{
    "track_id": "Galactic Protector (FM) - 04 - Saturn Round",
    "mood": "happy",
    "instruments": {
        "Oboe": [
            {
                "pitch": 72,
                "velocity": 51,
                "duration": 0.2864,
                "tempo": 120.0
            },
            {
                "pitch": 72,
                "velocity": 51,
                "duration": 0.1341,
                "tempo": 120.0
            },
            {
                "pitch": 72,
                "velocity": 51,
                "duration": 0.4364,
                "tempo": 120.0
            },
            {
                "pitch": 70,
                "velocity": 51,
                "duration": 0.2864,
                "tempo": 120.0
            },
            {
                "pitch": 70,
                "velocity": 51,
                "duration": 0.2841,
                "tempo": 120.0
            },
            {
                "pitch": 70,
                "velocity": 51,
                "duration": 0.1341,
                "tempo": 120.0
            },
            {
                "pitch": 70,
                "velocity": 51,
                "duration": 0.2841,
                "tempo": 120.0
            },
            {
                "pitch": 70,
                "velocity": 51,
                "duration": 0.0841,
                "tempo": 120.0
            },
            {
                "pitch": 75,
                "velocity": 51,
                "duration": 0.2864,
                "tempo": 120.0
            },
            {
                "pitch": 75,
                "velocity": 51,
                "duration": 0.1341,
                "tempo": 120.0
            },
            {
                "pitch": 75,
                "velocity": 51,
                "duration": 0.2864,
                "tempo": 120.0
            },
            {
                "pitch": 77,
                "velocity": 51,
                "duration": 0.2841,
                "tempo": 120.0
            },
            {
                "pitch": 77,
                "velocity": 51,
                "duration": 0.1341,
                "tempo": 120.0
            },
            {
                "pitch": 77,
                "velocity": 51,
                "duration": 0.2841,
                "tempo": 120.0
            },
            {
                "pitch": 77,
                "velocity": 51,
                "duration": 0.1341,
                "tempo": 120.0
            },
            {
                "pitch": 77,
                "velocity": 51,
                "duration": 0.3364,
                "tempo": 120.0
            },
            {
                "pitch": 72,
                "velocity": 51,
                "duration": 0.2841,
                "tempo": 120.0
            },
            {
                "pitch": 72,
                "velocity": 51,
                "duration": 0.1341,
                "tempo": 120.0
            },
            {
                "pitch": 72,
                "velocity": 51,
                "duration": 0.2841,
                "tempo": 120.0
            },
            {
                "pitch": 70,
                "velocity": 51,
                "duration": 0.2841,
                "tempo": 120.0
            },
            {
                "pitch": 70,
                "velocity": 51,
                "duration": 0.1341,
                "tempo": 120.0
            },
            {
                "pitch": 70,
                "velocity": 51,
                "duration": 0.2818,
                "tempo": 120.0
            },
            {
                "pitch": 70,
                "velocity": 51,
                "duration": 0.1318,
                "tempo": 120.0
            },
            {
                "pitch": 70,
                "velocity": 51,
                "duration": 0.2818,
                "tempo": 120.0
            },
            {
                "pitch": 70,
                "velocity": 51,
                "duration": 0.05,
                "tempo": 120.0
            },
            {
                "pitch": 77,
                "velocity": 51,
                "duration": 0.2841,
                "tempo": 120.0
            },
            {
                "pitch": 77,
                "velocity": 51,
                "duration": 0.1341,
                "tempo": 120.0
            },
            {
                "pitch": 77,
                "velocity": 51,
                "duration": 0.4341,
                "tempo": 120.0
            },
            {
                "pitch": 79,
                "velocity": 51,
                "duration": 0.2841,
                "tempo": 120.0
            },
            {
                "pitch": 79,
                "velocity": 51,
                "duration": 0.1341,
                "tempo": 120.0
            },
            {
                "pitch": 79,
                "velocity": 51,
                "duration": 0.4341,
                "tempo": 120.0
            },
            {
                "pitch": 79,
                "velocity": 51,
                "duration": 0.1,
                "tempo": 120.0
            },
            {
                "pitch": 80,
                "velocity": 51,
                "duration": 0.4386,
                "tempo": 120.0
            },
            {
                "pitch": 80,
                "velocity": 51,
                "duration": 0.4364,
                "tempo": 120.0
            },
            {
                "pitch": 84,
                "velocity": 51,
                "duration": 0.4341,
                "tempo": 120.0
            },
            {
                "pitch": 82,
                "velocity": 51,
                "duration": 0.4341,
                "tempo": 120.0
            },
            {
                "pitch": 80,
                "velocity": 51,
                "duration": 0.5841,
                "tempo": 120.0
            },
            {
                "pitch": 75,
                "velocity": 51,
                "duration": 0.2841,
                "tempo": 120.0
            },
            {
                "pitch": 75,
                "velocity": 51,
                "duration": 0.2841,
                "tempo": 120.0
            },
            {
                "pitch": 77,
                "velocity": 51,
                "duration": 0.1341,
                "tempo": 120.0
            },
            {
                "pitch": 79,
                "velocity": 51,
                "duration": 0.8864,
                "tempo": 120.0
            },
            {
                "pitch": 79,
                "velocity": 51,
                "duration": 0.1318,
                "tempo": 120.0
            },
            {
                "pitch": 77,
                "velocity": 51,
                "duration": 0.1318,
                "tempo": 120.0
            },
            {
                "pitch": 75,
                "velocity": 51,
                "duration": 0.1318,
                "tempo": 120.0
            },
            {
                "pitch": 68,
                "velocity": 51,
                "duration": 0.8818,
                "tempo": 120.0
            },
            {
                "pitch": 75,
                "velocity": 51,
                "duration": 0.2818,
                "tempo": 120.0
            },
            {
                "pitch": 75,
                "velocity": 51,
                "duration": 0.5841,
                "tempo": 120.0
            },
            {
                "pitch": 74,
                "velocity": 51,
                "duration": 0.2864,
                "tempo": 120.0
            },
            {
                "pitch": 72,
                "velocity": 51,
                "duration": 0.5841,
                "tempo": 120.0
            },
            {
                "pitch": 70,
                "velocity": 51,
                "duration": 0.2864,
                "tempo": 120.0
            },
            {
                "pitch": 70,
                "velocity": 51,
                "duration": 0.2841,
                "tempo": 120.0
            },
            {
                "pitch": 72,
                "velocity": 51,
                "duration": 0.2864,
                "tempo": 120.0
            },
            {
                "pitch": 74,
                "velocity": 51,
                "duration": 0.0182,
                "tempo": 120.0
            },
            {
                "pitch": 79,
                "velocity": 51,
                "duration": 0.1,
                "tempo": 120.0
            },
            {
                "pitch": 77,
                "velocity": 51,
                "duration": 0.1341,
                "tempo": 120.0
            },
            {
                "pitch": 75,
                "velocity": 51,
                "duration": 0.1341,
                "tempo": 120.0
            },
            {
                "pitch": 74,
                "velocity": 51,
                "duration": 0.2795,
                "tempo": 120.0
            },
            {
                "pitch": 74,
                "velocity": 51,
                "duration": 0.1341,
                "tempo": 120.0
            },
            {
                "pitch": 77,
                "velocity": 51,
                "duration": 0.5955,
                "tempo": 120.0
            },
            {
                "pitch": 80,
                "velocity": 51,
                "duration": 0.1,
                "tempo": 120.0
            },
            {
                "pitch": 80,
                "velocity": 51,
                "duration": 0.4364,
                "tempo": 120.0
            },
            {
                "pitch": 84,
                "velocity": 51,
                "duration": 0.4364,
                "tempo": 120.0
            },
            {
                "pitch": 82,
                "velocity": 51,
                "duration": 0.4364,
                "tempo": 120.0
            },
            {
                "pitch": 80,
                "velocity": 51,
                "duration": 0.2,
                "tempo": 120.0
            },
            {
                "pitch": 75,
                "velocity": 51,
                "duration": 0.0318,
                "tempo": 120.0
            },
            {
                "pitch": 75,
                "velocity": 51,
                "duration": 0.2841,
                "tempo": 120.0
            },
            {
                "pitch": 77,
                "velocity": 51,
                "duration": 0.1341,
                "tempo": 120.0
            },
            {
                "pitch": 79,
                "velocity": 51,
                "duration": 0.7386,
                "tempo": 120.0
            },
            {
                "pitch": 79,
                "velocity": 51,
                "duration": 0.1341,
                "tempo": 120.0
            },
            {
                "pitch": 77,
                "velocity": 51,
                "duration": 0.1341,
                "tempo": 120.0
            },
            {
                "pitch": 75,
                "velocity": 51,
                "duration": 0.4364,
                "tempo": 120.0
            },
            {
                "pitch": 68,
                "velocity": 51,
                "duration": 0.5818,
                "tempo": 120.0
            },
            {
                "pitch": 72,
                "velocity": 51,
                "duration": 0.2841,
                "tempo": 120.0
            },
            {
                "pitch": 75,
                "velocity": 51,
                "duration": 0.5864,
                "tempo": 120.0
            },
            {
                "pitch": 74,
                "velocity": 51,
                "duration": 0.2841,
                "tempo": 120.0
            },
            {
                "pitch": 72,
                "velocity": 51,
                "duration": 0.2864,
                "tempo": 120.0
            },
            {
                "pitch": 70,
                "velocity": 51,
                "duration": 0.8909,
                "tempo": 120.0
            },
            {
                "pitch": 75,
                "velocity": 51,
                "duration": 0.2818,
                "tempo": 120.0
            },
            {
                "pitch": 75,
                "velocity": 51,
                "duration": 0.5795,
                "tempo": 120.0
            },
            {
                "pitch": 70,
                "velocity": 51,
                "duration": 0.5864,
                "tempo": 120.0
            },
            {
                "pitch": 72,
                "velocity": 51,
                "duration": 1.3659,
                "tempo": 120.0
            }
        ],
        "Acoustic Bass": [
            {
                "pitch": 60,
                "velocity": 40,
                "duration": 0.0773,
                "tempo": 120.0
            },
            {
                "pitch": 48,
                "velocity": 40,
                "duration": 0.0886,
                "tempo": 120.0
            },
            {
                "pitch": 48,
                "velocity": 40,
                "duration": 0.1341,
                "tempo": 120.0
            },
            {
                "pitch": 60,
                "velocity": 40,
                "duration": 0.1341,
                "tempo": 120.0
            },
            {
                "pitch": 48,
                "velocity": 40,
                "duration": 0.1341,
                "tempo": 120.0
            },
            {
                "pitch": 48,
                "velocity": 40,
                "duration": 0.1341,
                "tempo": 120.0
            },
            {
                "pitch": 60,
                "velocity": 40,
                "duration": 0.1341,
                "tempo": 120.0
            },
            {
                "pitch": 48,
                "velocity": 40,
                "duration": 0.1341,
                "tempo": 120.0
            },
            {
                "pitch": 58,
                "velocity": 40,
                "duration": 0.1341,
                "tempo": 120.0
            },
            {
                "pitch": 46,
                "velocity": 40,
                "duration": 0.1341,
                "tempo": 120.0
            },
            {
                "pitch": 46,
                "velocity": 40,
                "duration": 0.1341,
                "tempo": 120.0
            },
            {
                "pitch": 58,
                "velocity": 40,
                "duration": 0.1341,
                "tempo": 120.0
            },
            {
                "pitch": 46,
                "velocity": 40,
                "duration": 0.1341,
                "tempo": 120.0
            },
            {
                "pitch": 46,
                "velocity": 40,
                "duration": 0.1341,
                "tempo": 120.0
            },
            {
                "pitch": 58,
                "velocity": 40,
                "duration": 0.1341,
                "tempo": 120.0
            },
            {
                "pitch": 46,
                "velocity": 40,
                "duration": 0.1341,
                "tempo": 120.0
            },
            {
                "pitch": 51,
                "velocity": 40,
                "duration": 0.1341,
                "tempo": 120.0
            },
            {
                "pitch": 51,
                "velocity": 40,
                "duration": 0.1341,
                "tempo": 120.0
            },
            {
                "pitch": 63,
                "velocity": 40,
                "duration": 0.1341,
                "tempo": 120.0
            },
            {
                "pitch": 51,
                "velocity": 40,
                "duration": 0.1341,
                "tempo": 120.0
            },
            {
                "pitch": 51,
                "velocity": 40,
                "duration": 0.1341,
                "tempo": 120.0
            },
            {
                "pitch": 63,
                "velocity": 40,
                "duration": 0.1341,
                "tempo": 120.0
            },
            {
                "pitch": 51,
                "velocity": 40,
                "duration": 0.1341,
                "tempo": 120.0
            },
            {
                "pitch": 51,
                "velocity": 40,
                "duration": 0.1341,
                "tempo": 120.0
            },
            {
                "pitch": 65,
                "velocity": 40,
                "duration": 0.1341,
                "tempo": 120.0
            },
            {
                "pitch": 65,
                "velocity": 40,
                "duration": 0.1341,
                "tempo": 120.0
            },
            {
                "pitch": 53,
                "velocity": 40,
                "duration": 0.1341,
                "tempo": 120.0
            },
            {
                "pitch": 65,
                "velocity": 40,
                "duration": 0.1341,
                "tempo": 120.0
            },
            {
                "pitch": 53,
                "velocity": 40,
                "duration": 0.1341,
                "tempo": 120.0
            },
            {
                "pitch": 65,
                "velocity": 40,
                "duration": 0.1341,
                "tempo": 120.0
            },
            {
                "pitch": 53,
                "velocity": 40,
                "duration": 0.1341,
                "tempo": 120.0
            },
            {
                "pitch": 65,
                "velocity": 40,
                "duration": 0.1341,
                "tempo": 120.0
            },
            {
                "pitch": 60,
                "velocity": 40,
                "duration": 0.1341,
                "tempo": 120.0
            },
            {
                "pitch": 48,
                "velocity": 40,
                "duration": 0.1341,
                "tempo": 120.0
            },
            {
                "pitch": 48,
                "velocity": 40,
                "duration": 0.1341,
                "tempo": 120.0
            },
            {
                "pitch": 60,
                "velocity": 40,
                "duration": 0.1341,
                "tempo": 120.0
            },
            {
                "pitch": 48,
                "velocity": 40,
                "duration": 0.1341,
                "tempo": 120.0
            },
            {
                "pitch": 48,
                "velocity": 40,
                "duration": 0.1341,
                "tempo": 120.0
            },
            {
                "pitch": 60,
                "velocity": 40,
                "duration": 0.1341,
                "tempo": 120.0
            },
            {
                "pitch": 48,
                "velocity": 40,
                "duration": 0.1341,
                "tempo": 120.0
            },
            {
                "pitch": 58,
                "velocity": 40,
                "duration": 0.1341,
                "tempo": 120.0
            },
            {
                "pitch": 46,
                "velocity": 40,
                "duration": 0.1341,
                "tempo": 120.0
            },
            {
                "pitch": 46,
                "velocity": 40,
                "duration": 0.1318,
                "tempo": 120.0
            },
            {
                "pitch": 58,
                "velocity": 40,
                "duration": 0.1318,
                "tempo": 120.0
            },
            {
                "pitch": 46,
                "velocity": 40,
                "duration": 0.1318,
                "tempo": 120.0
            },
            {
                "pitch": 46,
                "velocity": 40,
                "duration": 0.1318,
                "tempo": 120.0
            },
            {
                "pitch": 58,
                "velocity": 40,
                "duration": 0.1318,
                "tempo": 120.0
            },
            {
                "pitch": 46,
                "velocity": 40,
                "duration": 0.1318,
                "tempo": 120.0
            },
            {
                "pitch": 53,
                "velocity": 40,
                "duration": 0.1318,
                "tempo": 120.0
            },
            {
                "pitch": 53,
                "velocity": 40,
                "duration": 0.1318,
                "tempo": 120.0
            },
            {
                "pitch": 65,
                "velocity": 40,
                "duration": 0.1341,
                "tempo": 120.0
            },
            {
                "pitch": 53,
                "velocity": 40,
                "duration": 0.1341,
                "tempo": 120.0
            },
            {
                "pitch": 53,
                "velocity": 40,
                "duration": 0.1341,
                "tempo": 120.0
            },
            {
                "pitch": 65,
                "velocity": 40,
                "duration": 0.1341,
                "tempo": 120.0
            },
            {
                "pitch": 53,
                "velocity": 40,
                "duration": 0.1341,
                "tempo": 120.0
            },
            {
                "pitch": 65,
                "velocity": 40,
                "duration": 0.1341,
                "tempo": 120.0
            },
            {
                "pitch": 55,
                "velocity": 40,
                "duration": 0.1341,
                "tempo": 120.0
            },
            {
                "pitch": 55,
                "velocity": 40,
                "duration": 0.1341,
                "tempo": 120.0
            },
            {
                "pitch": 67,
                "velocity": 40,
                "duration": 0.1341,
                "tempo": 120.0
            },
            {
                "pitch": 55,
                "velocity": 40,
                "duration": 0.1341,
                "tempo": 120.0
            },
            {
                "pitch": 55,
                "velocity": 40,
                "duration": 0.1341,
                "tempo": 120.0
            },
            {
                "pitch": 67,
                "velocity": 40,
                "duration": 0.1341,
                "tempo": 120.0
            },
            {
                "pitch": 55,
                "velocity": 40,
                "duration": 0.1341,
                "tempo": 120.0
            },
            {
                "pitch": 67,
                "velocity": 40,
                "duration": 0.1341,
                "tempo": 120.0
            },
            {
                "pitch": 56,
                "velocity": 40,
                "duration": 0.0182,
                "tempo": 120.0
            },
            {
                "pitch": 56,
                "velocity": 40,
                "duration": 0.1,
                "tempo": 120.0
            },
            {
                "pitch": 51,
                "velocity": 40,
                "duration": 0.1341,
                "tempo": 120.0
            },
            {
                "pitch": 51,
                "velocity": 40,
                "duration": 0.1341,
                "tempo": 120.0
            },
            {
                "pitch": 44,
                "velocity": 40,
                "duration": 0.2864,
                "tempo": 120.0
            },
            {
                "pitch": 44,
                "velocity": 40,
                "duration": 0.1341,
                "tempo": 120.0
            },
            {
                "pitch": 51,
                "velocity": 40,
                "duration": 0.1341,
                "tempo": 120.0
            },
            {
                "pitch": 56,
                "velocity": 40,
                "duration": 0.1341,
                "tempo": 120.0
            },
            {
                "pitch": 56,
                "velocity": 40,
                "duration": 0.1341,
                "tempo": 120.0
            },
            {
                "pitch": 56,
                "velocity": 40,
                "duration": 0.2841,
                "tempo": 120.0
            },
            {
                "pitch": 58,
                "velocity": 40,
                "duration": 0.2841,
                "tempo": 120.0
            },
            {
                "pitch": 56,
                "velocity": 40,
                "duration": 0.1341,
                "tempo": 120.0
            },
            {
                "pitch": 51,
                "velocity": 40,
                "duration": 0.2841,
                "tempo": 120.0
            },
            {
                "pitch": 63,
                "velocity": 40,
                "duration": 0.1341,
                "tempo": 120.0
            },
            {
                "pitch": 63,
                "velocity": 40,
                "duration": 0.0159,
                "tempo": 120.0
            },
            {
                "pitch": 58,
                "velocity": 40,
                "duration": 0.4,
                "tempo": 120.0
            },
            {
                "pitch": 51,
                "velocity": 40,
                "duration": 0.2841,
                "tempo": 120.0
            },
            {
                "pitch": 51,
                "velocity": 40,
                "duration": 0.1341,
                "tempo": 120.0
            },
            {
                "pitch": 55,
                "velocity": 40,
                "duration": 0.1341,
                "tempo": 120.0
            },
            {
                "pitch": 58,
                "velocity": 40,
                "duration": 0.1341,
                "tempo": 120.0
            },
            {
                "pitch": 63,
                "velocity": 40,
                "duration": 0.1341,
                "tempo": 120.0
            },
            {
                "pitch": 63,
                "velocity": 40,
                "duration": 0.1318,
                "tempo": 120.0
            },
            {
                "pitch": 63,
                "velocity": 40,
                "duration": 0.2818,
                "tempo": 120.0
            },
            {
                "pitch": 58,
                "velocity": 40,
                "duration": 0.1318,
                "tempo": 120.0
            },
            {
                "pitch": 51,
                "velocity": 40,
                "duration": 0.2818,
                "tempo": 120.0
            },
            {
                "pitch": 56,
                "velocity": 40,
                "duration": 0.1318,
                "tempo": 120.0
            },
            {
                "pitch": 56,
                "velocity": 40,
                "duration": 0.0318,
                "tempo": 120.0
            },
            {
                "pitch": 56,
                "velocity": 40,
                "duration": 0.1318,
                "tempo": 120.0
            },
            {
                "pitch": 56,
                "velocity": 40,
                "duration": 0.2818,
                "tempo": 120.0
            },
            {
                "pitch": 44,
                "velocity": 40,
                "duration": 0.2818,
                "tempo": 120.0
            },
            {
                "pitch": 44,
                "velocity": 40,
                "duration": 0.1318,
                "tempo": 120.0
            },
            {
                "pitch": 44,
                "velocity": 40,
                "duration": 0.1341,
                "tempo": 120.0
            },
            {
                "pitch": 44,
                "velocity": 40,
                "duration": 0.1341,
                "tempo": 120.0
            },
            {
                "pitch": 51,
                "velocity": 40,
                "duration": 0.1341,
                "tempo": 120.0
            },
            {
                "pitch": 56,
                "velocity": 40,
                "duration": 0.1341,
                "tempo": 120.0
            },
            {
                "pitch": 51,
                "velocity": 40,
                "duration": 0.1341,
                "tempo": 120.0
            },
            {
                "pitch": 56,
                "velocity": 40,
                "duration": 0.4341,
                "tempo": 120.0
            },
            {
                "pitch": 58,
                "velocity": 40,
                "duration": 0.1341,
                "tempo": 120.0
            },
            {
                "pitch": 58,
                "velocity": 40,
                "duration": 0.2864,
                "tempo": 120.0
            },
            {
                "pitch": 46,
                "velocity": 40,
                "duration": 0.1341,
                "tempo": 120.0
            },
            {
                "pitch": 46,
                "velocity": 40,
                "duration": 0.1341,
                "tempo": 120.0
            },
            {
                "pitch": 46,
                "velocity": 40,
                "duration": 0.1341,
                "tempo": 120.0
            },
            {
                "pitch": 58,
                "velocity": 40,
                "duration": 0.1341,
                "tempo": 120.0
            },
            {
                "pitch": 58,
                "velocity": 40,
                "duration": 0.1341,
                "tempo": 120.0
            },
            {
                "pitch": 60,
                "velocity": 40,
                "duration": 0.1341,
                "tempo": 120.0
            },
            {
                "pitch": 58,
                "velocity": 40,
                "duration": 0.1318,
                "tempo": 120.0
            },
            {
                "pitch": 60,
                "velocity": 40,
                "duration": 0.1318,
                "tempo": 120.0
            },
            {
                "pitch": 58,
                "velocity": 40,
                "duration": 0.1341,
                "tempo": 120.0
            },
            {
                "pitch": 60,
                "velocity": 40,
                "duration": 0.1364,
                "tempo": 120.0
            },
            {
                "pitch": 58,
                "velocity": 40,
                "duration": 0.1364,
                "tempo": 120.0
            },
            {
                "pitch": 56,
                "velocity": 40,
                "duration": 0.1364,
                "tempo": 120.0
            },
            {
                "pitch": 56,
                "velocity": 40,
                "duration": 0.2864,
                "tempo": 120.0
            },
            {
                "pitch": 44,
                "velocity": 40,
                "duration": 0.2841,
                "tempo": 120.0
            },
            {
                "pitch": 44,
                "velocity": 40,
                "duration": 0.4364,
                "tempo": 120.0
            },
            {
                "pitch": 51,
                "velocity": 40,
                "duration": 0.1341,
                "tempo": 120.0
            },
            {
                "pitch": 56,
                "velocity": 40,
                "duration": 0.2864,
                "tempo": 120.0
            },
            {
                "pitch": 56,
                "velocity": 40,
                "duration": 0.2841,
                "tempo": 120.0
            },
            {
                "pitch": 51,
                "velocity": 40,
                "duration": 0.1341,
                "tempo": 120.0
            },
            {
                "pitch": 44,
                "velocity": 40,
                "duration": 0.5818,
                "tempo": 120.0
            },
            {
                "pitch": 63,
                "velocity": 40,
                "duration": 0.1341,
                "tempo": 120.0
            },
            {
                "pitch": 63,
                "velocity": 40,
                "duration": 0.2864,
                "tempo": 120.0
            },
            {
                "pitch": 63,
                "velocity": 40,
                "duration": 0.2841,
                "tempo": 120.0
            },
            {
                "pitch": 63,
                "velocity": 40,
                "duration": 0.1341,
                "tempo": 120.0
            },
            {
                "pitch": 63,
                "velocity": 40,
                "duration": 0.1341,
                "tempo": 120.0
            },
            {
                "pitch": 51,
                "velocity": 40,
                "duration": 0.1341,
                "tempo": 120.0
            },
            {
                "pitch": 55,
                "velocity": 40,
                "duration": 0.1341,
                "tempo": 120.0
            },
            {
                "pitch": 58,
                "velocity": 40,
                "duration": 0.1341,
                "tempo": 120.0
            },
            {
                "pitch": 63,
                "velocity": 40,
                "duration": 0.1341,
                "tempo": 120.0
            },
            {
                "pitch": 58,
                "velocity": 40,
                "duration": 0.1341,
                "tempo": 120.0
            },
            {
                "pitch": 55,
                "velocity": 40,
                "duration": 0.1341,
                "tempo": 120.0
            },
            {
                "pitch": 51,
                "velocity": 40,
                "duration": 0.1341,
                "tempo": 120.0
            },
            {
                "pitch": 44,
                "velocity": 40,
                "duration": 0.1341,
                "tempo": 120.0
            },
            {
                "pitch": 44,
                "velocity": 40,
                "duration": 0.2841,
                "tempo": 120.0
            },
            {
                "pitch": 44,
                "velocity": 40,
                "duration": 0.1318,
                "tempo": 120.0
            },
            {
                "pitch": 44,
                "velocity": 40,
                "duration": 0.1318,
                "tempo": 120.0
            },
            {
                "pitch": 56,
                "velocity": 40,
                "duration": 0.2841,
                "tempo": 120.0
            },
            {
                "pitch": 56,
                "velocity": 40,
                "duration": 0.1341,
                "tempo": 120.0
            },
            {
                "pitch": 56,
                "velocity": 40,
                "duration": 0.1341,
                "tempo": 120.0
            },
            {
                "pitch": 55,
                "velocity": 40,
                "duration": 0.1341,
                "tempo": 120.0
            },
            {
                "pitch": 56,
                "velocity": 40,
                "duration": 0.1341,
                "tempo": 120.0
            },
            {
                "pitch": 55,
                "velocity": 40,
                "duration": 0.1341,
                "tempo": 120.0
            },
            {
                "pitch": 56,
                "velocity": 40,
                "duration": 0.1341,
                "tempo": 120.0
            },
            {
                "pitch": 55,
                "velocity": 40,
                "duration": 0.1341,
                "tempo": 120.0
            },
            {
                "pitch": 53,
                "velocity": 40,
                "duration": 0.1341,
                "tempo": 120.0
            },
            {
                "pitch": 51,
                "velocity": 40,
                "duration": 0.0841,
                "tempo": 120.0
            },
            {
                "pitch": 46,
                "velocity": 40,
                "duration": 0.1341,
                "tempo": 120.0
            },
            {
                "pitch": 46,
                "velocity": 40,
                "duration": 0.1341,
                "tempo": 120.0
            },
            {
                "pitch": 58,
                "velocity": 40,
                "duration": 0.1341,
                "tempo": 120.0
            },
            {
                "pitch": 46,
                "velocity": 40,
                "duration": 0.1341,
                "tempo": 120.0
            },
            {
                "pitch": 58,
                "velocity": 40,
                "duration": 0.1318,
                "tempo": 120.0
            },
            {
                "pitch": 46,
                "velocity": 40,
                "duration": 0.1318,
                "tempo": 120.0
            },
            {
                "pitch": 58,
                "velocity": 40,
                "duration": 0.1318,
                "tempo": 120.0
            },
            {
                "pitch": 58,
                "velocity": 40,
                "duration": 0.1318,
                "tempo": 120.0
            },
            {
                "pitch": 58,
                "velocity": 40,
                "duration": 0.1318,
                "tempo": 120.0
            },
            {
                "pitch": 58,
                "velocity": 40,
                "duration": 0.1318,
                "tempo": 120.0
            },
            {
                "pitch": 58,
                "velocity": 40,
                "duration": 0.1318,
                "tempo": 120.0
            },
            {
                "pitch": 58,
                "velocity": 40,
                "duration": 0.1318,
                "tempo": 120.0
            },
            {
                "pitch": 58,
                "velocity": 40,
                "duration": 0.1364,
                "tempo": 120.0
            },
            {
                "pitch": 58,
                "velocity": 40,
                "duration": 0.1364,
                "tempo": 120.0
            },
            {
                "pitch": 48,
                "velocity": 40,
                "duration": 0.4409,
                "tempo": 120.0
            },
            {
                "pitch": 48,
                "velocity": 40,
                "duration": 0.2864,
                "tempo": 120.0
            },
            {
                "pitch": 48,
                "velocity": 40,
                "duration": 0.1364,
                "tempo": 120.0
            },
            {
                "pitch": 48,
                "velocity": 40,
                "duration": 0.1341,
                "tempo": 120.0
            },
            {
                "pitch": 48,
                "velocity": 40,
                "duration": 0.1341,
                "tempo": 120.0
            },
            {
                "pitch": 48,
                "velocity": 40,
                "duration": 0.7045,
                "tempo": 120.0
            },
            {
                "pitch": 60,
                "velocity": 40,
                "duration": 0.1341,
                "tempo": 120.0
            },
            {
                "pitch": 48,
                "velocity": 40,
                "duration": 0.1432,
                "tempo": 120.0
            }
        ],
        "Vibraphone": [
            {
                "pitch": 72,
                "velocity": 51,
                "duration": 0.0114,
                "tempo": 120.0
            },
            {
                "pitch": 76,
                "velocity": 51,
                "duration": 0.0318,
                "tempo": 120.0
            },
            {
                "pitch": 77,
                "velocity": 51,
                "duration": 0.0341,
                "tempo": 120.0
            },
            {
                "pitch": 79,
                "velocity": 51,
                "duration": 0.0318,
                "tempo": 120.0
            },
            {
                "pitch": 72,
                "velocity": 51,
                "duration": 0.05,
                "tempo": 120.0
            },
            {
                "pitch": 76,
                "velocity": 51,
                "duration": 0.05,
                "tempo": 120.0
            },
            {
                "pitch": 77,
                "velocity": 51,
                "duration": 0.05,
                "tempo": 120.0
            },
            {
                "pitch": 79,
                "velocity": 51,
                "duration": 0.05,
                "tempo": 120.0
            },
            {
                "pitch": 72,
                "velocity": 51,
                "duration": 0.05,
                "tempo": 120.0
            },
            {
                "pitch": 76,
                "velocity": 51,
                "duration": 0.05,
                "tempo": 120.0
            },
            {
                "pitch": 77,
                "velocity": 51,
                "duration": 0.05,
                "tempo": 120.0
            },
            {
                "pitch": 79,
                "velocity": 51,
                "duration": 0.05,
                "tempo": 120.0
            },
            {
                "pitch": 72,
                "velocity": 51,
                "duration": 0.05,
                "tempo": 120.0
            },
            {
                "pitch": 76,
                "velocity": 51,
                "duration": 0.05,
                "tempo": 120.0
            },
            {
                "pitch": 77,
                "velocity": 51,
                "duration": 0.05,
                "tempo": 120.0
            },
            {
                "pitch": 79,
                "velocity": 51,
                "duration": 0.05,
                "tempo": 120.0
            },
            {
                "pitch": 70,
                "velocity": 51,
                "duration": 0.05,
                "tempo": 120.0
            },
            {
                "pitch": 74,
                "velocity": 51,
                "duration": 0.05,
                "tempo": 120.0
            },
            {
                "pitch": 76,
                "velocity": 51,
                "duration": 0.05,
                "tempo": 120.0
            },
            {
                "pitch": 77,
                "velocity": 51,
                "duration": 0.05,
                "tempo": 120.0
            },
            {
                "pitch": 70,
                "velocity": 51,
                "duration": 0.05,
                "tempo": 120.0
            },
            {
                "pitch": 74,
                "velocity": 51,
                "duration": 0.05,
                "tempo": 120.0
            },
            {
                "pitch": 76,
                "velocity": 51,
                "duration": 0.05,
                "tempo": 120.0
            },
            {
                "pitch": 77,
                "velocity": 51,
                "duration": 0.05,
                "tempo": 120.0
            },
            {
                "pitch": 70,
                "velocity": 51,
                "duration": 0.05,
                "tempo": 120.0
            },
            {
                "pitch": 74,
                "velocity": 51,
                "duration": 0.05,
                "tempo": 120.0
            },
            {
                "pitch": 76,
                "velocity": 51,
                "duration": 0.05,
                "tempo": 120.0
            },
            {
                "pitch": 77,
                "velocity": 51,
                "duration": 0.05,
                "tempo": 120.0
            },
            {
                "pitch": 70,
                "velocity": 51,
                "duration": 0.05,
                "tempo": 120.0
            },
            {
                "pitch": 74,
                "velocity": 51,
                "duration": 0.05,
                "tempo": 120.0
            },
            {
                "pitch": 76,
                "velocity": 51,
                "duration": 0.05,
                "tempo": 120.0
            },
            {
                "pitch": 77,
                "velocity": 51,
                "duration": 0.05,
                "tempo": 120.0
            },
            {
                "pitch": 75,
                "velocity": 51,
                "duration": 0.05,
                "tempo": 120.0
            },
            {
                "pitch": 79,
                "velocity": 51,
                "duration": 0.05,
                "tempo": 120.0
            },
            {
                "pitch": 80,
                "velocity": 51,
                "duration": 0.05,
                "tempo": 120.0
            },
            {
                "pitch": 82,
                "velocity": 51,
                "duration": 0.05,
                "tempo": 120.0
            },
            {
                "pitch": 75,
                "velocity": 51,
                "duration": 0.05,
                "tempo": 120.0
            },
            {
                "pitch": 79,
                "velocity": 51,
                "duration": 0.05,
                "tempo": 120.0
            },
            {
                "pitch": 80,
                "velocity": 51,
                "duration": 0.05,
                "tempo": 120.0
            },
            {
                "pitch": 82,
                "velocity": 51,
                "duration": 0.05,
                "tempo": 120.0
            },
            {
                "pitch": 75,
                "velocity": 51,
                "duration": 0.05,
                "tempo": 120.0
            },
            {
                "pitch": 79,
                "velocity": 51,
                "duration": 0.05,
                "tempo": 120.0
            },
            {
                "pitch": 80,
                "velocity": 51,
                "duration": 0.05,
                "tempo": 120.0
            },
            {
                "pitch": 82,
                "velocity": 51,
                "duration": 0.05,
                "tempo": 120.0
            },
            {
                "pitch": 75,
                "velocity": 51,
                "duration": 0.05,
                "tempo": 120.0
            },
            {
                "pitch": 79,
                "velocity": 51,
                "duration": 0.05,
                "tempo": 120.0
            },
            {
                "pitch": 80,
                "velocity": 51,
                "duration": 0.05,
                "tempo": 120.0
            },
            {
                "pitch": 82,
                "velocity": 51,
                "duration": 0.05,
                "tempo": 120.0
            },
            {
                "pitch": 77,
                "velocity": 51,
                "duration": 0.05,
                "tempo": 120.0
            },
            {
                "pitch": 81,
                "velocity": 51,
                "duration": 0.05,
                "tempo": 120.0
            },
            {
                "pitch": 82,
                "velocity": 51,
                "duration": 0.05,
                "tempo": 120.0
            },
            {
                "pitch": 84,
                "velocity": 51,
                "duration": 0.05,
                "tempo": 120.0
            },
            {
                "pitch": 77,
                "velocity": 51,
                "duration": 0.05,
                "tempo": 120.0
            },
            {
                "pitch": 81,
                "velocity": 51,
                "duration": 0.05,
                "tempo": 120.0
            },
            {
                "pitch": 82,
                "velocity": 51,
                "duration": 0.05,
                "tempo": 120.0
            },
            {
                "pitch": 84,
                "velocity": 51,
                "duration": 0.05,
                "tempo": 120.0
            },
            {
                "pitch": 77,
                "velocity": 51,
                "duration": 0.05,
                "tempo": 120.0
            },
            {
                "pitch": 81,
                "velocity": 51,
                "duration": 0.05,
                "tempo": 120.0
            },
            {
                "pitch": 82,
                "velocity": 51,
                "duration": 0.05,
                "tempo": 120.0
            },
            {
                "pitch": 84,
                "velocity": 51,
                "duration": 0.05,
                "tempo": 120.0
            },
            {
                "pitch": 86,
                "velocity": 51,
                "duration": 0.05,
                "tempo": 120.0
            },
            {
                "pitch": 84,
                "velocity": 51,
                "duration": 0.05,
                "tempo": 120.0
            },
            {
                "pitch": 82,
                "velocity": 51,
                "duration": 0.05,
                "tempo": 120.0
            },
            {
                "pitch": 81,
                "velocity": 51,
                "duration": 0.05,
                "tempo": 120.0
            },
            {
                "pitch": 72,
                "velocity": 51,
                "duration": 0.05,
                "tempo": 120.0
            },
            {
                "pitch": 76,
                "velocity": 51,
                "duration": 0.05,
                "tempo": 120.0
            },
            {
                "pitch": 77,
                "velocity": 51,
                "duration": 0.05,
                "tempo": 120.0
            },
            {
                "pitch": 79,
                "velocity": 51,
                "duration": 0.05,
                "tempo": 120.0
            },
            {
                "pitch": 72,
                "velocity": 51,
                "duration": 0.05,
                "tempo": 120.0
            },
            {
                "pitch": 76,
                "velocity": 51,
                "duration": 0.05,
                "tempo": 120.0
            },
            {
                "pitch": 77,
                "velocity": 51,
                "duration": 0.05,
                "tempo": 120.0
            },
            {
                "pitch": 79,
                "velocity": 51,
                "duration": 0.05,
                "tempo": 120.0
            },
            {
                "pitch": 72,
                "velocity": 51,
                "duration": 0.05,
                "tempo": 120.0
            },
            {
                "pitch": 76,
                "velocity": 51,
                "duration": 0.05,
                "tempo": 120.0
            },
            {
                "pitch": 77,
                "velocity": 51,
                "duration": 0.05,
                "tempo": 120.0
            },
            {
                "pitch": 79,
                "velocity": 51,
                "duration": 0.05,
                "tempo": 120.0
            },
            {
                "pitch": 72,
                "velocity": 51,
                "duration": 0.05,
                "tempo": 120.0
            },
            {
                "pitch": 76,
                "velocity": 51,
                "duration": 0.05,
                "tempo": 120.0
            },
            {
                "pitch": 77,
                "velocity": 51,
                "duration": 0.05,
                "tempo": 120.0
            },
            {
                "pitch": 79,
                "velocity": 51,
                "duration": 0.05,
                "tempo": 120.0
            },
            {
                "pitch": 70,
                "velocity": 51,
                "duration": 0.05,
                "tempo": 120.0
            },
            {
                "pitch": 74,
                "velocity": 51,
                "duration": 0.05,
                "tempo": 120.0
            },
            {
                "pitch": 76,
                "velocity": 51,
                "duration": 0.05,
                "tempo": 120.0
            },
            {
                "pitch": 77,
                "velocity": 51,
                "duration": 0.05,
                "tempo": 120.0
            },
            {
                "pitch": 70,
                "velocity": 51,
                "duration": 0.05,
                "tempo": 120.0
            },
            {
                "pitch": 74,
                "velocity": 51,
                "duration": 0.05,
                "tempo": 120.0
            },
            {
                "pitch": 76,
                "velocity": 51,
                "duration": 0.05,
                "tempo": 120.0
            },
            {
                "pitch": 77,
                "velocity": 51,
                "duration": 0.05,
                "tempo": 120.0
            },
            {
                "pitch": 70,
                "velocity": 51,
                "duration": 0.05,
                "tempo": 120.0
            },
            {
                "pitch": 74,
                "velocity": 51,
                "duration": 0.05,
                "tempo": 120.0
            },
            {
                "pitch": 76,
                "velocity": 51,
                "duration": 0.05,
                "tempo": 120.0
            },
            {
                "pitch": 77,
                "velocity": 51,
                "duration": 0.05,
                "tempo": 120.0
            },
            {
                "pitch": 70,
                "velocity": 51,
                "duration": 0.05,
                "tempo": 120.0
            },
            {
                "pitch": 74,
                "velocity": 51,
                "duration": 0.05,
                "tempo": 120.0
            },
            {
                "pitch": 76,
                "velocity": 51,
                "duration": 0.05,
                "tempo": 120.0
            },
            {
                "pitch": 77,
                "velocity": 51,
                "duration": 0.05,
                "tempo": 120.0
            },
            {
                "pitch": 77,
                "velocity": 51,
                "duration": 0.05,
                "tempo": 120.0
            },
            {
                "pitch": 81,
                "velocity": 51,
                "duration": 0.05,
                "tempo": 120.0
            },
            {
                "pitch": 82,
                "velocity": 51,
                "duration": 0.05,
                "tempo": 120.0
            },
            {
                "pitch": 84,
                "velocity": 51,
                "duration": 0.05,
                "tempo": 120.0
            },
            {
                "pitch": 77,
                "velocity": 51,
                "duration": 0.05,
                "tempo": 120.0
            },
            {
                "pitch": 81,
                "velocity": 51,
                "duration": 0.05,
                "tempo": 120.0
            },
            {
                "pitch": 82,
                "velocity": 51,
                "duration": 0.05,
                "tempo": 120.0
            },
            {
                "pitch": 84,
                "velocity": 51,
                "duration": 0.05,
                "tempo": 120.0
            },
            {
                "pitch": 77,
                "velocity": 51,
                "duration": 0.05,
                "tempo": 120.0
            },
            {
                "pitch": 81,
                "velocity": 51,
                "duration": 0.05,
                "tempo": 120.0
            },
            {
                "pitch": 82,
                "velocity": 51,
                "duration": 0.05,
                "tempo": 120.0
            },
            {
                "pitch": 84,
                "velocity": 51,
                "duration": 0.05,
                "tempo": 120.0
            },
            {
                "pitch": 77,
                "velocity": 51,
                "duration": 0.05,
                "tempo": 120.0
            },
            {
                "pitch": 81,
                "velocity": 51,
                "duration": 0.05,
                "tempo": 120.0
            },
            {
                "pitch": 82,
                "velocity": 51,
                "duration": 0.05,
                "tempo": 120.0
            },
            {
                "pitch": 84,
                "velocity": 51,
                "duration": 0.05,
                "tempo": 120.0
            },
            {
                "pitch": 79,
                "velocity": 51,
                "duration": 0.05,
                "tempo": 120.0
            },
            {
                "pitch": 82,
                "velocity": 51,
                "duration": 0.05,
                "tempo": 120.0
            },
            {
                "pitch": 83,
                "velocity": 51,
                "duration": 0.05,
                "tempo": 120.0
            },
            {
                "pitch": 84,
                "velocity": 51,
                "duration": 0.05,
                "tempo": 120.0
            },
            {
                "pitch": 79,
                "velocity": 51,
                "duration": 0.05,
                "tempo": 120.0
            },
            {
                "pitch": 83,
                "velocity": 51,
                "duration": 0.05,
                "tempo": 120.0
            },
            {
                "pitch": 84,
                "velocity": 51,
                "duration": 0.05,
                "tempo": 120.0
            },
            {
                "pitch": 86,
                "velocity": 51,
                "duration": 0.05,
                "tempo": 120.0
            },
            {
                "pitch": 79,
                "velocity": 51,
                "duration": 0.05,
                "tempo": 120.0
            },
            {
                "pitch": 83,
                "velocity": 51,
                "duration": 0.05,
                "tempo": 120.0
            },
            {
                "pitch": 84,
                "velocity": 51,
                "duration": 0.05,
                "tempo": 120.0
            },
            {
                "pitch": 86,
                "velocity": 51,
                "duration": 0.05,
                "tempo": 120.0
            },
            {
                "pitch": 87,
                "velocity": 51,
                "duration": 0.05,
                "tempo": 120.0
            },
            {
                "pitch": 86,
                "velocity": 51,
                "duration": 0.05,
                "tempo": 120.0
            },
            {
                "pitch": 84,
                "velocity": 51,
                "duration": 0.1341,
                "tempo": 120.0
            },
            {
                "pitch": 80,
                "velocity": 51,
                "duration": 0.4341,
                "tempo": 120.0
            },
            {
                "pitch": 75,
                "velocity": 51,
                "duration": 0.4364,
                "tempo": 120.0
            },
            {
                "pitch": 68,
                "velocity": 51,
                "duration": 1.1841,
                "tempo": 120.0
            },
            {
                "pitch": 80,
                "velocity": 51,
                "duration": 0.2341,
                "tempo": 120.0
            },
            {
                "pitch": 75,
                "velocity": 51,
                "duration": 0.8864,
                "tempo": 120.0
            },
            {
                "pitch": 82,
                "velocity": 51,
                "duration": 1.1864,
                "tempo": 120.0
            },
            {
                "pitch": 87,
                "velocity": 51,
                "duration": 1.1818,
                "tempo": 120.0
            },
            {
                "pitch": 92,
                "velocity": 51,
                "duration": 1.2386,
                "tempo": 120.0
            },
            {
                "pitch": 82,
                "velocity": 51,
                "duration": 0.5841,
                "tempo": 120.0
            },
            {
                "pitch": 77,
                "velocity": 51,
                "duration": 0.2818,
                "tempo": 120.0
            },
            {
                "pitch": 82,
                "velocity": 51,
                "duration": 0.2886,
                "tempo": 120.0
            },
            {
                "pitch": 75,
                "velocity": 51,
                "duration": 1.1932,
                "tempo": 120.0
            },
            {
                "pitch": 80,
                "velocity": 51,
                "duration": 0.5886,
                "tempo": 120.0
            },
            {
                "pitch": 87,
                "velocity": 51,
                "duration": 0.3545,
                "tempo": 120.0
            },
            {
                "pitch": 87,
                "velocity": 51,
                "duration": 0.0182,
                "tempo": 120.0
            },
            {
                "pitch": 87,
                "velocity": 51,
                "duration": 0.5045,
                "tempo": 120.0
            },
            {
                "pitch": 87,
                "velocity": 51,
                "duration": 0.35,
                "tempo": 120.0
            },
            {
                "pitch": 82,
                "velocity": 51,
                "duration": 0.6886,
                "tempo": 120.0
            },
            {
                "pitch": 68,
                "velocity": 51,
                "duration": 1.5591,
                "tempo": 120.0
            },
            {
                "pitch": 70,
                "velocity": 51,
                "duration": 0.8909,
                "tempo": 120.0
            },
            {
                "pitch": 70,
                "velocity": 51,
                "duration": 0.2818,
                "tempo": 120.0
            },
            {
                "pitch": 72,
                "velocity": 51,
                "duration": 0.5795,
                "tempo": 120.0
            },
            {
                "pitch": 72,
                "velocity": 51,
                "duration": 0.5864,
                "tempo": 120.0
            },
            {
                "pitch": 79,
                "velocity": 51,
                "duration": 1.1136,
                "tempo": 120.0
            },
            {
                "pitch": 72,
                "velocity": 51,
                "duration": 0.05,
                "tempo": 120.0
            },
            {
                "pitch": 76,
                "velocity": 51,
                "duration": 0.05,
                "tempo": 120.0
            },
            {
                "pitch": 77,
                "velocity": 51,
                "duration": 0.05,
                "tempo": 120.0
            },
            {
                "pitch": 79,
                "velocity": 51,
                "duration": 0.0591,
                "tempo": 120.0
            }
        ]
    }
}