{
    "track_id": "Golvellius - Valley of Doom (FM) - 27 - Ending",
    "mood": "relaxed",
    "instruments": {
        "Acoustic Bass": [
            {
                "pitch": 31,
                "velocity": 4,
                "duration": 0.15,
                "tempo": 120.0
            },
            {
                "pitch": 31,
                "velocity": 4,
                "duration": 0.1523,
                "tempo": 120.0
            },
            {
                "pitch": 31,
                "velocity": 4,
                "duration": 0.15,
                "tempo": 120.0
            },
            {
                "pitch": 31,
                "velocity": 4,
                "duration": 0.4614,
                "tempo": 120.0
            },
            {
                "pitch": 31,
                "velocity": 4,
                "duration": 0.45,
                "tempo": 120.0
            },
            {
                "pitch": 31,
                "velocity": 4,
                "duration": 0.2341,
                "tempo": 120.0
            },
            {
                "pitch": 31,
                "velocity": 5,
                "duration": 0.2182,
                "tempo": 120.0
            },
            {
                "pitch": 26,
                "velocity": 5,
                "duration": 0.1341,
                "tempo": 120.0
            },
            {
                "pitch": 26,
                "velocity": 5,
                "duration": 0.15,
                "tempo": 120.0
            },
            {
                "pitch": 26,
                "velocity": 5,
                "duration": 0.1523,
                "tempo": 120.0
            },
            {
                "pitch": 26,
                "velocity": 5,
                "duration": 0.4773,
                "tempo": 120.0
            },
            {
                "pitch": 26,
                "velocity": 5,
                "duration": 0.4614,
                "tempo": 120.0
            },
            {
                "pitch": 26,
                "velocity": 6,
                "duration": 0.4523,
                "tempo": 120.0
            },
            {
                "pitch": 24,
                "velocity": 6,
                "duration": 0.15,
                "tempo": 120.0
            },
            {
                "pitch": 24,
                "velocity": 6,
                "duration": 0.15,
                "tempo": 120.0
            },
            {
                "pitch": 24,
                "velocity": 6,
                "duration": 0.15,
                "tempo": 120.0
            },
            {
                "pitch": 24,
                "velocity": 6,
                "duration": 0.4523,
                "tempo": 120.0
            },
            {
                "pitch": 24,
                "velocity": 8,
                "duration": 0.4568,
                "tempo": 120.0
            },
            {
                "pitch": 24,
                "velocity": 8,
                "duration": 0.2318,
                "tempo": 120.0
            },
            {
                "pitch": 24,
                "velocity": 8,
                "duration": 0.2682,
                "tempo": 120.0
            },
            {
                "pitch": 24,
                "velocity": 8,
                "duration": 0.4364,
                "tempo": 120.0
            },
            {
                "pitch": 23,
                "velocity": 10,
                "duration": 0.2341,
                "tempo": 120.0
            },
            {
                "pitch": 23,
                "velocity": 10,
                "duration": 0.45,
                "tempo": 120.0
            },
            {
                "pitch": 23,
                "velocity": 10,
                "duration": 0.2182,
                "tempo": 120.0
            },
            {
                "pitch": 35,
                "velocity": 10,
                "duration": 0.2341,
                "tempo": 120.0
            },
            {
                "pitch": 23,
                "velocity": 10,
                "duration": 0.2341,
                "tempo": 120.0
            },
            {
                "pitch": 31,
                "velocity": 13,
                "duration": 0.45,
                "tempo": 120.0
            },
            {
                "pitch": 43,
                "velocity": 13,
                "duration": 0.2227,
                "tempo": 120.0
            },
            {
                "pitch": 31,
                "velocity": 13,
                "duration": 0.2386,
                "tempo": 120.0
            },
            {
                "pitch": 31,
                "velocity": 13,
                "duration": 0.2136,
                "tempo": 120.0
            },
            {
                "pitch": 43,
                "velocity": 13,
                "duration": 0.2273,
                "tempo": 120.0
            },
            {
                "pitch": 31,
                "velocity": 16,
                "duration": 0.4614,
                "tempo": 120.0
            },
            {
                "pitch": 29,
                "velocity": 16,
                "duration": 0.4682,
                "tempo": 120.0
            },
            {
                "pitch": 41,
                "velocity": 16,
                "duration": 0.2182,
                "tempo": 120.0
            },
            {
                "pitch": 29,
                "velocity": 16,
                "duration": 0.45,
                "tempo": 120.0
            },
            {
                "pitch": 29,
                "velocity": 20,
                "duration": 0.2341,
                "tempo": 120.0
            },
            {
                "pitch": 41,
                "velocity": 20,
                "duration": 0.2227,
                "tempo": 120.0
            },
            {
                "pitch": 29,
                "velocity": 20,
                "duration": 0.2386,
                "tempo": 120.0
            },
            {
                "pitch": 29,
                "velocity": 20,
                "duration": 0.2409,
                "tempo": 120.0
            },
            {
                "pitch": 40,
                "velocity": 20,
                "duration": 0.2227,
                "tempo": 120.0
            },
            {
                "pitch": 28,
                "velocity": 20,
                "duration": 0.2341,
                "tempo": 120.0
            },
            {
                "pitch": 40,
                "velocity": 20,
                "duration": 0.2159,
                "tempo": 120.0
            },
            {
                "pitch": 28,
                "velocity": 20,
                "duration": 0.2295,
                "tempo": 120.0
            },
            {
                "pitch": 40,
                "velocity": 20,
                "duration": 0.2295,
                "tempo": 120.0
            },
            {
                "pitch": 28,
                "velocity": 20,
                "duration": 0.2273,
                "tempo": 120.0
            },
            {
                "pitch": 40,
                "velocity": 20,
                "duration": 0.2432,
                "tempo": 120.0
            },
            {
                "pitch": 28,
                "velocity": 20,
                "duration": 0.2182,
                "tempo": 120.0
            },
            {
                "pitch": 40,
                "velocity": 20,
                "duration": 0.2341,
                "tempo": 120.0
            },
            {
                "pitch": 28,
                "velocity": 20,
                "duration": 0.2182,
                "tempo": 120.0
            },
            {
                "pitch": 40,
                "velocity": 20,
                "duration": 0.2341,
                "tempo": 120.0
            },
            {
                "pitch": 28,
                "velocity": 20,
                "duration": 0.2341,
                "tempo": 120.0
            },
            {
                "pitch": 40,
                "velocity": 20,
                "duration": 0.2159,
                "tempo": 120.0
            },
            {
                "pitch": 47,
                "velocity": 20,
                "duration": 0.2341,
                "tempo": 120.0
            },
            {
                "pitch": 40,
                "velocity": 20,
                "duration": 0.2182,
                "tempo": 120.0
            },
            {
                "pitch": 24,
                "velocity": 20,
                "duration": 0.1659,
                "tempo": 120.0
            },
            {
                "pitch": 24,
                "velocity": 20,
                "duration": 0.15,
                "tempo": 120.0
            },
            {
                "pitch": 24,
                "velocity": 20,
                "duration": 0.1523,
                "tempo": 120.0
            },
            {
                "pitch": 24,
                "velocity": 20,
                "duration": 0.4614,
                "tempo": 120.0
            },
            {
                "pitch": 36,
                "velocity": 20,
                "duration": 0.15,
                "tempo": 120.0
            },
            {
                "pitch": 36,
                "velocity": 20,
                "duration": 0.15,
                "tempo": 120.0
            },
            {
                "pitch": 36,
                "velocity": 20,
                "duration": 0.15,
                "tempo": 120.0
            },
            {
                "pitch": 36,
                "velocity": 20,
                "duration": 0.4523,
                "tempo": 120.0
            },
            {
                "pitch": 26,
                "velocity": 20,
                "duration": 0.1523,
                "tempo": 120.0
            },
            {
                "pitch": 26,
                "velocity": 20,
                "duration": 0.1545,
                "tempo": 120.0
            },
            {
                "pitch": 26,
                "velocity": 20,
                "duration": 0.1545,
                "tempo": 120.0
            },
            {
                "pitch": 26,
                "velocity": 20,
                "duration": 0.4682,
                "tempo": 120.0
            },
            {
                "pitch": 38,
                "velocity": 20,
                "duration": 0.1568,
                "tempo": 120.0
            },
            {
                "pitch": 38,
                "velocity": 20,
                "duration": 0.1568,
                "tempo": 120.0
            },
            {
                "pitch": 38,
                "velocity": 20,
                "duration": 0.1591,
                "tempo": 120.0
            },
            {
                "pitch": 38,
                "velocity": 20,
                "duration": 0.4409,
                "tempo": 120.0
            },
            {
                "pitch": 23,
                "velocity": 20,
                "duration": 0.1523,
                "tempo": 120.0
            },
            {
                "pitch": 23,
                "velocity": 20,
                "duration": 0.1545,
                "tempo": 120.0
            },
            {
                "pitch": 23,
                "velocity": 20,
                "duration": 0.1545,
                "tempo": 120.0
            },
            {
                "pitch": 23,
                "velocity": 20,
                "duration": 0.45,
                "tempo": 120.0
            },
            {
                "pitch": 35,
                "velocity": 20,
                "duration": 0.1477,
                "tempo": 120.0
            },
            {
                "pitch": 35,
                "velocity": 20,
                "duration": 0.1477,
                "tempo": 120.0
            },
            {
                "pitch": 35,
                "velocity": 20,
                "duration": 0.1455,
                "tempo": 120.0
            },
            {
                "pitch": 35,
                "velocity": 20,
                "duration": 0.4682,
                "tempo": 120.0
            },
            {
                "pitch": 23,
                "velocity": 20,
                "duration": 0.1591,
                "tempo": 120.0
            },
            {
                "pitch": 23,
                "velocity": 20,
                "duration": 0.1568,
                "tempo": 120.0
            },
            {
                "pitch": 23,
                "velocity": 20,
                "duration": 0.1568,
                "tempo": 120.0
            },
            {
                "pitch": 23,
                "velocity": 20,
                "duration": 0.4523,
                "tempo": 120.0
            },
            {
                "pitch": 47,
                "velocity": 20,
                "duration": 0.15,
                "tempo": 120.0
            },
            {
                "pitch": 47,
                "velocity": 20,
                "duration": 0.15,
                "tempo": 120.0
            },
            {
                "pitch": 47,
                "velocity": 20,
                "duration": 0.15,
                "tempo": 120.0
            },
            {
                "pitch": 47,
                "velocity": 20,
                "duration": 0.4614,
                "tempo": 120.0
            },
            {
                "pitch": 23,
                "velocity": 20,
                "duration": 0.1523,
                "tempo": 120.0
            },
            {
                "pitch": 24,
                "velocity": 20,
                "duration": 0.1659,
                "tempo": 120.0
            },
            {
                "pitch": 24,
                "velocity": 20,
                "duration": 0.15,
                "tempo": 120.0
            },
            {
                "pitch": 24,
                "velocity": 20,
                "duration": 0.4614,
                "tempo": 120.0
            },
            {
                "pitch": 36,
                "velocity": 20,
                "duration": 0.1523,
                "tempo": 120.0
            },
            {
                "pitch": 36,
                "velocity": 20,
                "duration": 0.15,
                "tempo": 120.0
            },
            {
                "pitch": 36,
                "velocity": 20,
                "duration": 0.15,
                "tempo": 120.0
            },
            {
                "pitch": 36,
                "velocity": 20,
                "duration": 0.4523,
                "tempo": 120.0
            },
            {
                "pitch": 26,
                "velocity": 20,
                "duration": 0.1523,
                "tempo": 120.0
            },
            {
                "pitch": 26,
                "velocity": 20,
                "duration": 0.1545,
                "tempo": 120.0
            },
            {
                "pitch": 26,
                "velocity": 20,
                "duration": 0.1545,
                "tempo": 120.0
            },
            {
                "pitch": 26,
                "velocity": 20,
                "duration": 0.4682,
                "tempo": 120.0
            },
            {
                "pitch": 38,
                "velocity": 20,
                "duration": 0.1523,
                "tempo": 120.0
            },
            {
                "pitch": 38,
                "velocity": 20,
                "duration": 0.1545,
                "tempo": 120.0
            },
            {
                "pitch": 38,
                "velocity": 20,
                "duration": 0.1545,
                "tempo": 120.0
            },
            {
                "pitch": 38,
                "velocity": 20,
                "duration": 0.4409,
                "tempo": 120.0
            },
            {
                "pitch": 28,
                "velocity": 20,
                "duration": 0.1523,
                "tempo": 120.0
            },
            {
                "pitch": 28,
                "velocity": 20,
                "duration": 0.1545,
                "tempo": 120.0
            },
            {
                "pitch": 28,
                "velocity": 20,
                "duration": 0.1545,
                "tempo": 120.0
            },
            {
                "pitch": 28,
                "velocity": 20,
                "duration": 0.45,
                "tempo": 120.0
            },
            {
                "pitch": 40,
                "velocity": 20,
                "duration": 0.1523,
                "tempo": 120.0
            },
            {
                "pitch": 40,
                "velocity": 20,
                "duration": 0.15,
                "tempo": 120.0
            },
            {
                "pitch": 40,
                "velocity": 20,
                "duration": 0.15,
                "tempo": 120.0
            },
            {
                "pitch": 40,
                "velocity": 20,
                "duration": 0.4682,
                "tempo": 120.0
            },
            {
                "pitch": 28,
                "velocity": 20,
                "duration": 0.1545,
                "tempo": 120.0
            },
            {
                "pitch": 28,
                "velocity": 20,
                "duration": 0.1523,
                "tempo": 120.0
            },
            {
                "pitch": 28,
                "velocity": 20,
                "duration": 0.1545,
                "tempo": 120.0
            },
            {
                "pitch": 28,
                "velocity": 20,
                "duration": 0.1545,
                "tempo": 120.0
            },
            {
                "pitch": 28,
                "velocity": 20,
                "duration": 0.1523,
                "tempo": 120.0
            },
            {
                "pitch": 28,
                "velocity": 20,
                "duration": 0.1545,
                "tempo": 120.0
            },
            {
                "pitch": 40,
                "velocity": 20,
                "duration": 0.1477,
                "tempo": 120.0
            },
            {
                "pitch": 40,
                "velocity": 20,
                "duration": 0.1477,
                "tempo": 120.0
            },
            {
                "pitch": 40,
                "velocity": 20,
                "duration": 0.1455,
                "tempo": 120.0
            },
            {
                "pitch": 40,
                "velocity": 20,
                "duration": 0.15,
                "tempo": 120.0
            },
            {
                "pitch": 40,
                "velocity": 20,
                "duration": 0.1523,
                "tempo": 120.0
            },
            {
                "pitch": 40,
                "velocity": 20,
                "duration": 0.15,
                "tempo": 120.0
            },
            {
                "pitch": 31,
                "velocity": 20,
                "duration": 0.1523,
                "tempo": 120.0
            },
            {
                "pitch": 31,
                "velocity": 20,
                "duration": 0.1727,
                "tempo": 120.0
            },
            {
                "pitch": 31,
                "velocity": 20,
                "duration": 0.1523,
                "tempo": 120.0
            },
            {
                "pitch": 31,
                "velocity": 20,
                "duration": 0.4614,
                "tempo": 120.0
            },
            {
                "pitch": 31,
                "velocity": 20,
                "duration": 0.4523,
                "tempo": 120.0
            },
            {
                "pitch": 31,
                "velocity": 20,
                "duration": 0.2386,
                "tempo": 120.0
            },
            {
                "pitch": 31,
                "velocity": 20,
                "duration": 0.2227,
                "tempo": 120.0
            },
            {
                "pitch": 26,
                "velocity": 20,
                "duration": 0.15,
                "tempo": 120.0
            },
            {
                "pitch": 26,
                "velocity": 20,
                "duration": 0.1523,
                "tempo": 120.0
            },
            {
                "pitch": 26,
                "velocity": 20,
                "duration": 0.15,
                "tempo": 120.0
            },
            {
                "pitch": 26,
                "velocity": 20,
                "duration": 0.4682,
                "tempo": 120.0
            },
            {
                "pitch": 26,
                "velocity": 20,
                "duration": 0.4614,
                "tempo": 120.0
            },
            {
                "pitch": 26,
                "velocity": 20,
                "duration": 0.45,
                "tempo": 120.0
            },
            {
                "pitch": 24,
                "velocity": 20,
                "duration": 0.1545,
                "tempo": 120.0
            },
            {
                "pitch": 24,
                "velocity": 20,
                "duration": 0.1545,
                "tempo": 120.0
            },
            {
                "pitch": 24,
                "velocity": 20,
                "duration": 0.1523,
                "tempo": 120.0
            },
            {
                "pitch": 24,
                "velocity": 20,
                "duration": 0.4432,
                "tempo": 120.0
            },
            {
                "pitch": 24,
                "velocity": 20,
                "duration": 0.4409,
                "tempo": 120.0
            },
            {
                "pitch": 24,
                "velocity": 20,
                "duration": 0.2386,
                "tempo": 120.0
            },
            {
                "pitch": 24,
                "velocity": 20,
                "duration": 0.2386,
                "tempo": 120.0
            },
            {
                "pitch": 24,
                "velocity": 20,
                "duration": 0.4727,
                "tempo": 120.0
            },
            {
                "pitch": 23,
                "velocity": 20,
                "duration": 0.2182,
                "tempo": 120.0
            },
            {
                "pitch": 23,
                "velocity": 20,
                "duration": 0.4682,
                "tempo": 120.0
            },
            {
                "pitch": 23,
                "velocity": 20,
                "duration": 0.2159,
                "tempo": 120.0
            },
            {
                "pitch": 35,
                "velocity": 20,
                "duration": 0.2341,
                "tempo": 120.0
            },
            {
                "pitch": 23,
                "velocity": 20,
                "duration": 0.2182,
                "tempo": 120.0
            },
            {
                "pitch": 31,
                "velocity": 20,
                "duration": 0.4682,
                "tempo": 120.0
            },
            {
                "pitch": 43,
                "velocity": 20,
                "duration": 0.2227,
                "tempo": 120.0
            },
            {
                "pitch": 31,
                "velocity": 20,
                "duration": 0.2386,
                "tempo": 120.0
            },
            {
                "pitch": 31,
                "velocity": 20,
                "duration": 0.2114,
                "tempo": 120.0
            },
            {
                "pitch": 43,
                "velocity": 20,
                "duration": 0.2295,
                "tempo": 120.0
            },
            {
                "pitch": 31,
                "velocity": 20,
                "duration": 0.4614,
                "tempo": 120.0
            },
            {
                "pitch": 29,
                "velocity": 20,
                "duration": 0.4523,
                "tempo": 120.0
            },
            {
                "pitch": 41,
                "velocity": 20,
                "duration": 0.2341,
                "tempo": 120.0
            },
            {
                "pitch": 29,
                "velocity": 20,
                "duration": 0.45,
                "tempo": 120.0
            },
            {
                "pitch": 29,
                "velocity": 20,
                "duration": 0.2341,
                "tempo": 120.0
            },
            {
                "pitch": 41,
                "velocity": 20,
                "duration": 0.2227,
                "tempo": 120.0
            },
            {
                "pitch": 29,
                "velocity": 20,
                "duration": 0.2386,
                "tempo": 120.0
            },
            {
                "pitch": 29,
                "velocity": 20,
                "duration": 0.2227,
                "tempo": 120.0
            },
            {
                "pitch": 40,
                "velocity": 20,
                "duration": 0.2386,
                "tempo": 120.0
            },
            {
                "pitch": 28,
                "velocity": 20,
                "duration": 0.2341,
                "tempo": 120.0
            },
            {
                "pitch": 40,
                "velocity": 20,
                "duration": 0.2182,
                "tempo": 120.0
            },
            {
                "pitch": 28,
                "velocity": 20,
                "duration": 0.2295,
                "tempo": 120.0
            },
            {
                "pitch": 40,
                "velocity": 20,
                "duration": 0.2114,
                "tempo": 120.0
            },
            {
                "pitch": 28,
                "velocity": 20,
                "duration": 0.2341,
                "tempo": 120.0
            },
            {
                "pitch": 40,
                "velocity": 20,
                "duration": 0.2341,
                "tempo": 120.0
            },
            {
                "pitch": 28,
                "velocity": 20,
                "duration": 0.2273,
                "tempo": 120.0
            },
            {
                "pitch": 40,
                "velocity": 20,
                "duration": 0.2455,
                "tempo": 120.0
            },
            {
                "pitch": 28,
                "velocity": 20,
                "duration": 0.2182,
                "tempo": 120.0
            },
            {
                "pitch": 40,
                "velocity": 20,
                "duration": 0.2341,
                "tempo": 120.0
            },
            {
                "pitch": 28,
                "velocity": 20,
                "duration": 0.2318,
                "tempo": 120.0
            },
            {
                "pitch": 40,
                "velocity": 20,
                "duration": 0.2182,
                "tempo": 120.0
            },
            {
                "pitch": 47,
                "velocity": 20,
                "duration": 0.2341,
                "tempo": 120.0
            },
            {
                "pitch": 40,
                "velocity": 20,
                "duration": 0.2182,
                "tempo": 120.0
            },
            {
                "pitch": 24,
                "velocity": 20,
                "duration": 0.15,
                "tempo": 120.0
            },
            {
                "pitch": 24,
                "velocity": 20,
                "duration": 0.15,
                "tempo": 120.0
            },
            {
                "pitch": 24,
                "velocity": 20,
                "duration": 0.1682,
                "tempo": 120.0
            },
            {
                "pitch": 24,
                "velocity": 20,
                "duration": 0.4705,
                "tempo": 120.0
            },
            {
                "pitch": 36,
                "velocity": 20,
                "duration": 0.1477,
                "tempo": 120.0
            },
            {
                "pitch": 36,
                "velocity": 20,
                "duration": 0.1477,
                "tempo": 120.0
            },
            {
                "pitch": 36,
                "velocity": 20,
                "duration": 0.1455,
                "tempo": 120.0
            },
            {
                "pitch": 36,
                "velocity": 20,
                "duration": 0.4614,
                "tempo": 120.0
            },
            {
                "pitch": 26,
                "velocity": 20,
                "duration": 0.1545,
                "tempo": 120.0
            },
            {
                "pitch": 26,
                "velocity": 20,
                "duration": 0.1545,
                "tempo": 120.0
            },
            {
                "pitch": 26,
                "velocity": 20,
                "duration": 0.1523,
                "tempo": 120.0
            },
            {
                "pitch": 26,
                "velocity": 20,
                "duration": 0.4432,
                "tempo": 120.0
            },
            {
                "pitch": 38,
                "velocity": 20,
                "duration": 0.1659,
                "tempo": 120.0
            },
            {
                "pitch": 38,
                "velocity": 20,
                "duration": 0.15,
                "tempo": 120.0
            },
            {
                "pitch": 38,
                "velocity": 20,
                "duration": 0.1523,
                "tempo": 120.0
            },
            {
                "pitch": 38,
                "velocity": 20,
                "duration": 0.4614,
                "tempo": 120.0
            },
            {
                "pitch": 23,
                "velocity": 20,
                "duration": 0.1523,
                "tempo": 120.0
            },
            {
                "pitch": 23,
                "velocity": 20,
                "duration": 0.1545,
                "tempo": 120.0
            },
            {
                "pitch": 23,
                "velocity": 20,
                "duration": 0.1545,
                "tempo": 120.0
            },
            {
                "pitch": 23,
                "velocity": 20,
                "duration": 0.4523,
                "tempo": 120.0
            },
            {
                "pitch": 35,
                "velocity": 20,
                "duration": 0.15,
                "tempo": 120.0
            },
            {
                "pitch": 35,
                "velocity": 20,
                "duration": 0.15,
                "tempo": 120.0
            },
            {
                "pitch": 35,
                "velocity": 20,
                "duration": 0.15,
                "tempo": 120.0
            },
            {
                "pitch": 35,
                "velocity": 20,
                "duration": 0.4682,
                "tempo": 120.0
            },
            {
                "pitch": 23,
                "velocity": 20,
                "duration": 0.1568,
                "tempo": 120.0
            },
            {
                "pitch": 23,
                "velocity": 20,
                "duration": 0.1568,
                "tempo": 120.0
            },
            {
                "pitch": 23,
                "velocity": 20,
                "duration": 0.1591,
                "tempo": 120.0
            },
            {
                "pitch": 23,
                "velocity": 20,
                "duration": 0.45,
                "tempo": 120.0
            },
            {
                "pitch": 47,
                "velocity": 20,
                "duration": 0.1477,
                "tempo": 120.0
            },
            {
                "pitch": 47,
                "velocity": 20,
                "duration": 0.1477,
                "tempo": 120.0
            },
            {
                "pitch": 47,
                "velocity": 20,
                "duration": 0.1477,
                "tempo": 120.0
            },
            {
                "pitch": 47,
                "velocity": 20,
                "duration": 0.4614,
                "tempo": 120.0
            },
            {
                "pitch": 23,
                "velocity": 20,
                "duration": 0.15,
                "tempo": 120.0
            },
            {
                "pitch": 24,
                "velocity": 20,
                "duration": 0.15,
                "tempo": 120.0
            },
            {
                "pitch": 24,
                "velocity": 20,
                "duration": 0.15,
                "tempo": 120.0
            },
            {
                "pitch": 24,
                "velocity": 20,
                "duration": 0.4682,
                "tempo": 120.0
            },
            {
                "pitch": 36,
                "velocity": 20,
                "duration": 0.1545,
                "tempo": 120.0
            },
            {
                "pitch": 36,
                "velocity": 20,
                "duration": 0.1523,
                "tempo": 120.0
            },
            {
                "pitch": 36,
                "velocity": 20,
                "duration": 0.1545,
                "tempo": 120.0
            },
            {
                "pitch": 36,
                "velocity": 20,
                "duration": 0.4523,
                "tempo": 120.0
            },
            {
                "pitch": 26,
                "velocity": 20,
                "duration": 0.1523,
                "tempo": 120.0
            },
            {
                "pitch": 26,
                "velocity": 20,
                "duration": 0.1545,
                "tempo": 120.0
            },
            {
                "pitch": 26,
                "velocity": 20,
                "duration": 0.1545,
                "tempo": 120.0
            },
            {
                "pitch": 26,
                "velocity": 20,
                "duration": 0.4409,
                "tempo": 120.0
            },
            {
                "pitch": 38,
                "velocity": 20,
                "duration": 0.15,
                "tempo": 120.0
            },
            {
                "pitch": 38,
                "velocity": 20,
                "duration": 0.1682,
                "tempo": 120.0
            },
            {
                "pitch": 38,
                "velocity": 20,
                "duration": 0.15,
                "tempo": 120.0
            },
            {
                "pitch": 38,
                "velocity": 20,
                "duration": 0.4614,
                "tempo": 120.0
            },
            {
                "pitch": 28,
                "velocity": 20,
                "duration": 0.1545,
                "tempo": 120.0
            },
            {
                "pitch": 28,
                "velocity": 20,
                "duration": 0.1523,
                "tempo": 120.0
            },
            {
                "pitch": 28,
                "velocity": 20,
                "duration": 0.1545,
                "tempo": 120.0
            },
            {
                "pitch": 28,
                "velocity": 20,
                "duration": 0.4523,
                "tempo": 120.0
            },
            {
                "pitch": 40,
                "velocity": 20,
                "duration": 0.15,
                "tempo": 120.0
            },
            {
                "pitch": 40,
                "velocity": 20,
                "duration": 0.15,
                "tempo": 120.0
            },
            {
                "pitch": 40,
                "velocity": 20,
                "duration": 0.15,
                "tempo": 120.0
            },
            {
                "pitch": 40,
                "velocity": 20,
                "duration": 0.4682,
                "tempo": 120.0
            },
            {
                "pitch": 28,
                "velocity": 20,
                "duration": 0.1568,
                "tempo": 120.0
            },
            {
                "pitch": 28,
                "velocity": 20,
                "duration": 0.1591,
                "tempo": 120.0
            },
            {
                "pitch": 28,
                "velocity": 20,
                "duration": 0.1568,
                "tempo": 120.0
            },
            {
                "pitch": 28,
                "velocity": 20,
                "duration": 0.15,
                "tempo": 120.0
            },
            {
                "pitch": 28,
                "velocity": 20,
                "duration": 0.1523,
                "tempo": 120.0
            },
            {
                "pitch": 28,
                "velocity": 20,
                "duration": 0.15,
                "tempo": 120.0
            },
            {
                "pitch": 40,
                "velocity": 20,
                "duration": 0.1455,
                "tempo": 120.0
            },
            {
                "pitch": 40,
                "velocity": 20,
                "duration": 0.1477,
                "tempo": 120.0
            },
            {
                "pitch": 40,
                "velocity": 20,
                "duration": 0.1477,
                "tempo": 120.0
            },
            {
                "pitch": 40,
                "velocity": 20,
                "duration": 0.15,
                "tempo": 120.0
            },
            {
                "pitch": 40,
                "velocity": 20,
                "duration": 0.15,
                "tempo": 120.0
            },
            {
                "pitch": 40,
                "velocity": 20,
                "duration": 0.1682,
                "tempo": 120.0
            },
            {
                "pitch": 28,
                "velocity": 20,
                "duration": 0.1364,
                "tempo": 120.0
            },
            {
                "pitch": 29,
                "velocity": 20,
                "duration": 0.1545,
                "tempo": 120.0
            },
            {
                "pitch": 29,
                "velocity": 20,
                "duration": 0.1523,
                "tempo": 120.0
            },
            {
                "pitch": 41,
                "velocity": 20,
                "duration": 0.1682,
                "tempo": 120.0
            },
            {
                "pitch": 41,
                "velocity": 20,
                "duration": 0.15,
                "tempo": 120.0
            },
            {
                "pitch": 41,
                "velocity": 20,
                "duration": 0.1682,
                "tempo": 120.0
            },
            {
                "pitch": 29,
                "velocity": 20,
                "duration": 0.1386,
                "tempo": 120.0
            },
            {
                "pitch": 29,
                "velocity": 20,
                "duration": 0.1591,
                "tempo": 120.0
            },
            {
                "pitch": 29,
                "velocity": 20,
                "duration": 0.1568,
                "tempo": 120.0
            },
            {
                "pitch": 41,
                "velocity": 20,
                "duration": 0.1477,
                "tempo": 120.0
            },
            {
                "pitch": 41,
                "velocity": 20,
                "duration": 0.1477,
                "tempo": 120.0
            },
            {
                "pitch": 41,
                "velocity": 20,
                "duration": 0.1636,
                "tempo": 120.0
            },
            {
                "pitch": 29,
                "velocity": 20,
                "duration": 0.1318,
                "tempo": 120.0
            },
            {
                "pitch": 29,
                "velocity": 20,
                "duration": 0.1523,
                "tempo": 120.0
            },
            {
                "pitch": 29,
                "velocity": 20,
                "duration": 0.15,
                "tempo": 120.0
            },
            {
                "pitch": 41,
                "velocity": 20,
                "duration": 0.15,
                "tempo": 120.0
            },
            {
                "pitch": 41,
                "velocity": 20,
                "duration": 0.15,
                "tempo": 120.0
            },
            {
                "pitch": 41,
                "velocity": 20,
                "duration": 0.1682,
                "tempo": 120.0
            },
            {
                "pitch": 29,
                "velocity": 20,
                "duration": 0.1386,
                "tempo": 120.0
            },
            {
                "pitch": 29,
                "velocity": 20,
                "duration": 0.175,
                "tempo": 120.0
            },
            {
                "pitch": 29,
                "velocity": 20,
                "duration": 0.1568,
                "tempo": 120.0
            },
            {
                "pitch": 41,
                "velocity": 20,
                "duration": 0.1523,
                "tempo": 120.0
            },
            {
                "pitch": 41,
                "velocity": 20,
                "duration": 0.15,
                "tempo": 120.0
            },
            {
                "pitch": 41,
                "velocity": 20,
                "duration": 0.15,
                "tempo": 120.0
            },
            {
                "pitch": 29,
                "velocity": 20,
                "duration": 0.15,
                "tempo": 120.0
            },
            {
                "pitch": 28,
                "velocity": 20,
                "duration": 0.1523,
                "tempo": 120.0
            },
            {
                "pitch": 28,
                "velocity": 20,
                "duration": 0.15,
                "tempo": 120.0
            },
            {
                "pitch": 40,
                "velocity": 20,
                "duration": 0.15,
                "tempo": 120.0
            },
            {
                "pitch": 40,
                "velocity": 20,
                "duration": 0.15,
                "tempo": 120.0
            },
            {
                "pitch": 40,
                "velocity": 20,
                "duration": 0.15,
                "tempo": 120.0
            },
            {
                "pitch": 28,
                "velocity": 20,
                "duration": 0.1523,
                "tempo": 120.0
            },
            {
                "pitch": 28,
                "velocity": 20,
                "duration": 0.15,
                "tempo": 120.0
            },
            {
                "pitch": 28,
                "velocity": 20,
                "duration": 0.15,
                "tempo": 120.0
            },
            {
                "pitch": 40,
                "velocity": 20,
                "duration": 0.1523,
                "tempo": 120.0
            },
            {
                "pitch": 40,
                "velocity": 20,
                "duration": 0.1545,
                "tempo": 120.0
            },
            {
                "pitch": 40,
                "velocity": 20,
                "duration": 0.1886,
                "tempo": 120.0
            },
            {
                "pitch": 28,
                "velocity": 20,
                "duration": 0.1386,
                "tempo": 120.0
            },
            {
                "pitch": 28,
                "velocity": 20,
                "duration": 0.1591,
                "tempo": 120.0
            },
            {
                "pitch": 28,
                "velocity": 20,
                "duration": 0.1568,
                "tempo": 120.0
            },
            {
                "pitch": 40,
                "velocity": 20,
                "duration": 0.1477,
                "tempo": 120.0
            },
            {
                "pitch": 40,
                "velocity": 20,
                "duration": 0.1477,
                "tempo": 120.0
            },
            {
                "pitch": 40,
                "velocity": 20,
                "duration": 0.1477,
                "tempo": 120.0
            },
            {
                "pitch": 28,
                "velocity": 20,
                "duration": 0.15,
                "tempo": 120.0
            },
            {
                "pitch": 28,
                "velocity": 20,
                "duration": 0.15,
                "tempo": 120.0
            },
            {
                "pitch": 28,
                "velocity": 20,
                "duration": 0.15,
                "tempo": 120.0
            },
            {
                "pitch": 40,
                "velocity": 20,
                "duration": 0.15,
                "tempo": 120.0
            },
            {
                "pitch": 40,
                "velocity": 20,
                "duration": 0.15,
                "tempo": 120.0
            },
            {
                "pitch": 40,
                "velocity": 20,
                "duration": 0.1682,
                "tempo": 120.0
            },
            {
                "pitch": 31,
                "velocity": 20,
                "duration": 0.1364,
                "tempo": 120.0
            },
            {
                "pitch": 31,
                "velocity": 20,
                "duration": 0.1545,
                "tempo": 120.0
            },
            {
                "pitch": 31,
                "velocity": 20,
                "duration": 0.1523,
                "tempo": 120.0
            },
            {
                "pitch": 43,
                "velocity": 20,
                "duration": 0.1614,
                "tempo": 120.0
            },
            {
                "pitch": 43,
                "velocity": 20,
                "duration": 0.1432,
                "tempo": 120.0
            },
            {
                "pitch": 43,
                "velocity": 20,
                "duration": 0.1614,
                "tempo": 120.0
            },
            {
                "pitch": 31,
                "velocity": 20,
                "duration": 0.1409,
                "tempo": 120.0
            },
            {
                "pitch": 31,
                "velocity": 20,
                "duration": 0.1568,
                "tempo": 120.0
            },
            {
                "pitch": 31,
                "velocity": 20,
                "duration": 0.1568,
                "tempo": 120.0
            },
            {
                "pitch": 43,
                "velocity": 20,
                "duration": 0.1477,
                "tempo": 120.0
            },
            {
                "pitch": 43,
                "velocity": 20,
                "duration": 0.1477,
                "tempo": 120.0
            },
            {
                "pitch": 43,
                "velocity": 20,
                "duration": 0.1455,
                "tempo": 120.0
            },
            {
                "pitch": 31,
                "velocity": 20,
                "duration": 0.1545,
                "tempo": 120.0
            },
            {
                "pitch": 31,
                "velocity": 20,
                "duration": 0.1545,
                "tempo": 120.0
            },
            {
                "pitch": 31,
                "velocity": 20,
                "duration": 0.1523,
                "tempo": 120.0
            },
            {
                "pitch": 43,
                "velocity": 20,
                "duration": 0.15,
                "tempo": 120.0
            },
            {
                "pitch": 43,
                "velocity": 20,
                "duration": 0.1523,
                "tempo": 120.0
            },
            {
                "pitch": 43,
                "velocity": 20,
                "duration": 0.15,
                "tempo": 120.0
            },
            {
                "pitch": 31,
                "velocity": 20,
                "duration": 0.15,
                "tempo": 120.0
            },
            {
                "pitch": 31,
                "velocity": 20,
                "duration": 0.15,
                "tempo": 120.0
            },
            {
                "pitch": 31,
                "velocity": 20,
                "duration": 0.1682,
                "tempo": 120.0
            },
            {
                "pitch": 43,
                "velocity": 20,
                "duration": 0.1591,
                "tempo": 120.0
            },
            {
                "pitch": 43,
                "velocity": 20,
                "duration": 0.1614,
                "tempo": 120.0
            },
            {
                "pitch": 43,
                "velocity": 20,
                "duration": 0.1795,
                "tempo": 120.0
            },
            {
                "pitch": 29,
                "velocity": 20,
                "duration": 0.1341,
                "tempo": 120.0
            },
            {
                "pitch": 29,
                "velocity": 20,
                "duration": 0.15,
                "tempo": 120.0
            },
            {
                "pitch": 29,
                "velocity": 20,
                "duration": 0.15,
                "tempo": 120.0
            },
            {
                "pitch": 41,
                "velocity": 20,
                "duration": 0.1477,
                "tempo": 120.0
            },
            {
                "pitch": 41,
                "velocity": 20,
                "duration": 0.1477,
                "tempo": 120.0
            },
            {
                "pitch": 41,
                "velocity": 20,
                "duration": 0.1477,
                "tempo": 120.0
            },
            {
                "pitch": 29,
                "velocity": 20,
                "duration": 0.15,
                "tempo": 120.0
            },
            {
                "pitch": 29,
                "velocity": 20,
                "duration": 0.15,
                "tempo": 120.0
            },
            {
                "pitch": 29,
                "velocity": 20,
                "duration": 0.15,
                "tempo": 120.0
            },
            {
                "pitch": 41,
                "velocity": 20,
                "duration": 0.15,
                "tempo": 120.0
            },
            {
                "pitch": 41,
                "velocity": 20,
                "duration": 0.15,
                "tempo": 120.0
            },
            {
                "pitch": 41,
                "velocity": 20,
                "duration": 0.1682,
                "tempo": 120.0
            },
            {
                "pitch": 29,
                "velocity": 20,
                "duration": 0.1545,
                "tempo": 120.0
            },
            {
                "pitch": 29,
                "velocity": 20,
                "duration": 0.1523,
                "tempo": 120.0
            },
            {
                "pitch": 29,
                "velocity": 20,
                "duration": 0.1545,
                "tempo": 120.0
            },
            {
                "pitch": 41,
                "velocity": 20,
                "duration": 0.1545,
                "tempo": 120.0
            },
            {
                "pitch": 41,
                "velocity": 20,
                "duration": 0.1523,
                "tempo": 120.0
            },
            {
                "pitch": 41,
                "velocity": 20,
                "duration": 0.1727,
                "tempo": 120.0
            },
            {
                "pitch": 29,
                "velocity": 20,
                "duration": 0.1318,
                "tempo": 120.0
            },
            {
                "pitch": 29,
                "velocity": 20,
                "duration": 0.1523,
                "tempo": 120.0
            },
            {
                "pitch": 29,
                "velocity": 20,
                "duration": 0.15,
                "tempo": 120.0
            },
            {
                "pitch": 41,
                "velocity": 20,
                "duration": 0.15,
                "tempo": 120.0
            },
            {
                "pitch": 41,
                "velocity": 20,
                "duration": 0.15,
                "tempo": 120.0
            },
            {
                "pitch": 41,
                "velocity": 20,
                "duration": 0.1682,
                "tempo": 120.0
            },
            {
                "pitch": 24,
                "velocity": 20,
                "duration": 0.1341,
                "tempo": 120.0
            },
            {
                "pitch": 24,
                "velocity": 20,
                "duration": 0.15,
                "tempo": 120.0
            },
            {
                "pitch": 24,
                "velocity": 20,
                "duration": 0.15,
                "tempo": 120.0
            },
            {
                "pitch": 36,
                "velocity": 20,
                "duration": 0.1477,
                "tempo": 120.0
            },
            {
                "pitch": 36,
                "velocity": 20,
                "duration": 0.1636,
                "tempo": 120.0
            },
            {
                "pitch": 36,
                "velocity": 20,
                "duration": 0.1455,
                "tempo": 120.0
            },
            {
                "pitch": 24,
                "velocity": 20,
                "duration": 0.1568,
                "tempo": 120.0
            },
            {
                "pitch": 24,
                "velocity": 20,
                "duration": 0.1591,
                "tempo": 120.0
            },
            {
                "pitch": 24,
                "velocity": 20,
                "duration": 0.1568,
                "tempo": 120.0
            },
            {
                "pitch": 36,
                "velocity": 20,
                "duration": 0.15,
                "tempo": 120.0
            },
            {
                "pitch": 36,
                "velocity": 20,
                "duration": 0.15,
                "tempo": 120.0
            },
            {
                "pitch": 36,
                "velocity": 20,
                "duration": 0.1523,
                "tempo": 120.0
            },
            {
                "pitch": 24,
                "velocity": 20,
                "duration": 0.15,
                "tempo": 120.0
            },
            {
                "pitch": 24,
                "velocity": 20,
                "duration": 0.15,
                "tempo": 120.0
            },
            {
                "pitch": 24,
                "velocity": 20,
                "duration": 0.15,
                "tempo": 120.0
            },
            {
                "pitch": 36,
                "velocity": 20,
                "duration": 0.15,
                "tempo": 120.0
            },
            {
                "pitch": 36,
                "velocity": 20,
                "duration": 0.1523,
                "tempo": 120.0
            },
            {
                "pitch": 36,
                "velocity": 20,
                "duration": 0.15,
                "tempo": 120.0
            },
            {
                "pitch": 24,
                "velocity": 20,
                "duration": 0.15,
                "tempo": 120.0
            },
            {
                "pitch": 24,
                "velocity": 20,
                "duration": 0.15,
                "tempo": 120.0
            },
            {
                "pitch": 24,
                "velocity": 20,
                "duration": 0.1682,
                "tempo": 120.0
            },
            {
                "pitch": 36,
                "velocity": 20,
                "duration": 0.1523,
                "tempo": 120.0
            },
            {
                "pitch": 36,
                "velocity": 20,
                "duration": 0.1545,
                "tempo": 120.0
            },
            {
                "pitch": 36,
                "velocity": 20,
                "duration": 0.1705,
                "tempo": 120.0
            },
            {
                "pitch": 24,
                "velocity": 20,
                "duration": 0.1386,
                "tempo": 120.0
            },
            {
                "pitch": 23,
                "velocity": 20,
                "duration": 0.1523,
                "tempo": 120.0
            },
            {
                "pitch": 23,
                "velocity": 20,
                "duration": 0.1545,
                "tempo": 120.0
            },
            {
                "pitch": 23,
                "velocity": 20,
                "duration": 0.4614,
                "tempo": 120.0
            },
            {
                "pitch": 35,
                "velocity": 20,
                "duration": 0.1477,
                "tempo": 120.0
            },
            {
                "pitch": 35,
                "velocity": 20,
                "duration": 0.1477,
                "tempo": 120.0
            },
            {
                "pitch": 35,
                "velocity": 20,
                "duration": 0.1455,
                "tempo": 120.0
            },
            {
                "pitch": 35,
                "velocity": 20,
                "duration": 0.4523,
                "tempo": 120.0
            },
            {
                "pitch": 23,
                "velocity": 20,
                "duration": 0.1659,
                "tempo": 120.0
            },
            {
                "pitch": 23,
                "velocity": 20,
                "duration": 0.1523,
                "tempo": 120.0
            },
            {
                "pitch": 23,
                "velocity": 20,
                "duration": 0.15,
                "tempo": 120.0
            },
            {
                "pitch": 23,
                "velocity": 20,
                "duration": 0.4705,
                "tempo": 120.0
            },
            {
                "pitch": 35,
                "velocity": 20,
                "duration": 0.1523,
                "tempo": 120.0
            },
            {
                "pitch": 35,
                "velocity": 20,
                "duration": 0.15,
                "tempo": 120.0
            },
            {
                "pitch": 35,
                "velocity": 20,
                "duration": 0.15,
                "tempo": 120.0
            },
            {
                "pitch": 35,
                "velocity": 20,
                "duration": 0.4682,
                "tempo": 120.0
            },
            {
                "pitch": 28,
                "velocity": 20,
                "duration": 0.1364,
                "tempo": 120.0
            },
            {
                "pitch": 28,
                "velocity": 20,
                "duration": 0.1545,
                "tempo": 120.0
            },
            {
                "pitch": 28,
                "velocity": 20,
                "duration": 0.1545,
                "tempo": 120.0
            },
            {
                "pitch": 28,
                "velocity": 20,
                "duration": 0.4568,
                "tempo": 120.0
            },
            {
                "pitch": 40,
                "velocity": 20,
                "duration": 0.1545,
                "tempo": 120.0
            },
            {
                "pitch": 40,
                "velocity": 20,
                "duration": 0.1545,
                "tempo": 120.0
            },
            {
                "pitch": 40,
                "velocity": 20,
                "duration": 0.1523,
                "tempo": 120.0
            },
            {
                "pitch": 40,
                "velocity": 20,
                "duration": 0.4795,
                "tempo": 120.0
            },
            {
                "pitch": 28,
                "velocity": 20,
                "duration": 0.1341,
                "tempo": 120.0
            },
            {
                "pitch": 28,
                "velocity": 20,
                "duration": 0.15,
                "tempo": 120.0
            },
            {
                "pitch": 28,
                "velocity": 20,
                "duration": 0.15,
                "tempo": 120.0
            },
            {
                "pitch": 28,
                "velocity": 20,
                "duration": 0.4523,
                "tempo": 120.0
            },
            {
                "pitch": 40,
                "velocity": 20,
                "duration": 0.1455,
                "tempo": 120.0
            },
            {
                "pitch": 40,
                "velocity": 20,
                "duration": 0.1477,
                "tempo": 120.0
            },
            {
                "pitch": 40,
                "velocity": 20,
                "duration": 0.1636,
                "tempo": 120.0
            },
            {
                "pitch": 40,
                "velocity": 20,
                "duration": 0.4886,
                "tempo": 120.0
            },
            {
                "pitch": 25,
                "velocity": 20,
                "duration": 0.1386,
                "tempo": 120.0
            },
            {
                "pitch": 25,
                "velocity": 20,
                "duration": 0.1523,
                "tempo": 120.0
            },
            {
                "pitch": 25,
                "velocity": 20,
                "duration": 0.1545,
                "tempo": 120.0
            },
            {
                "pitch": 25,
                "velocity": 20,
                "duration": 0.4409,
                "tempo": 120.0
            },
            {
                "pitch": 37,
                "velocity": 20,
                "duration": 0.1523,
                "tempo": 120.0
            },
            {
                "pitch": 37,
                "velocity": 20,
                "duration": 0.15,
                "tempo": 120.0
            },
            {
                "pitch": 37,
                "velocity": 20,
                "duration": 0.15,
                "tempo": 120.0
            },
            {
                "pitch": 37,
                "velocity": 20,
                "duration": 0.4682,
                "tempo": 120.0
            },
            {
                "pitch": 25,
                "velocity": 20,
                "duration": 0.1364,
                "tempo": 120.0
            },
            {
                "pitch": 25,
                "velocity": 20,
                "duration": 0.1705,
                "tempo": 120.0
            },
            {
                "pitch": 25,
                "velocity": 20,
                "duration": 0.1545,
                "tempo": 120.0
            },
            {
                "pitch": 25,
                "velocity": 20,
                "duration": 0.4614,
                "tempo": 120.0
            },
            {
                "pitch": 37,
                "velocity": 20,
                "duration": 0.15,
                "tempo": 120.0
            },
            {
                "pitch": 37,
                "velocity": 20,
                "duration": 0.1523,
                "tempo": 120.0
            },
            {
                "pitch": 37,
                "velocity": 20,
                "duration": 0.15,
                "tempo": 120.0
            },
            {
                "pitch": 37,
                "velocity": 20,
                "duration": 0.4682,
                "tempo": 120.0
            },
            {
                "pitch": 25,
                "velocity": 20,
                "duration": 0.1318,
                "tempo": 120.0
            },
            {
                "pitch": 27,
                "velocity": 20,
                "duration": 0.1523,
                "tempo": 120.0
            },
            {
                "pitch": 27,
                "velocity": 20,
                "duration": 0.15,
                "tempo": 120.0
            },
            {
                "pitch": 27,
                "velocity": 20,
                "duration": 0.4682,
                "tempo": 120.0
            },
            {
                "pitch": 39,
                "velocity": 20,
                "duration": 0.1523,
                "tempo": 120.0
            },
            {
                "pitch": 39,
                "velocity": 20,
                "duration": 0.1545,
                "tempo": 120.0
            },
            {
                "pitch": 39,
                "velocity": 20,
                "duration": 0.1545,
                "tempo": 120.0
            },
            {
                "pitch": 39,
                "velocity": 20,
                "duration": 0.4682,
                "tempo": 120.0
            },
            {
                "pitch": 27,
                "velocity": 20,
                "duration": 0.1386,
                "tempo": 120.0
            },
            {
                "pitch": 27,
                "velocity": 20,
                "duration": 0.1568,
                "tempo": 120.0
            },
            {
                "pitch": 27,
                "velocity": 20,
                "duration": 0.1591,
                "tempo": 120.0
            },
            {
                "pitch": 27,
                "velocity": 20,
                "duration": 0.4318,
                "tempo": 120.0
            },
            {
                "pitch": 39,
                "velocity": 20,
                "duration": 0.15,
                "tempo": 120.0
            },
            {
                "pitch": 39,
                "velocity": 20,
                "duration": 0.15,
                "tempo": 120.0
            },
            {
                "pitch": 39,
                "velocity": 20,
                "duration": 0.15,
                "tempo": 120.0
            },
            {
                "pitch": 39,
                "velocity": 20,
                "duration": 0.4864,
                "tempo": 120.0
            },
            {
                "pitch": 29,
                "velocity": 20,
                "duration": 0.1386,
                "tempo": 120.0
            },
            {
                "pitch": 29,
                "velocity": 20,
                "duration": 0.1591,
                "tempo": 120.0
            },
            {
                "pitch": 29,
                "velocity": 20,
                "duration": 0.1568,
                "tempo": 120.0
            },
            {
                "pitch": 29,
                "velocity": 20,
                "duration": 0.4523,
                "tempo": 120.0
            },
            {
                "pitch": 29,
                "velocity": 20,
                "duration": 0.4409,
                "tempo": 120.0
            },
            {
                "pitch": 29,
                "velocity": 20,
                "duration": 0.2432,
                "tempo": 120.0
            },
            {
                "pitch": 29,
                "velocity": 20,
                "duration": 0.2273,
                "tempo": 120.0
            },
            {
                "pitch": 24,
                "velocity": 20,
                "duration": 0.1477,
                "tempo": 120.0
            },
            {
                "pitch": 24,
                "velocity": 20,
                "duration": 0.1636,
                "tempo": 120.0
            },
            {
                "pitch": 24,
                "velocity": 20,
                "duration": 0.1477,
                "tempo": 120.0
            },
            {
                "pitch": 24,
                "velocity": 20,
                "duration": 0.4705,
                "tempo": 120.0
            },
            {
                "pitch": 24,
                "velocity": 20,
                "duration": 0.4523,
                "tempo": 120.0
            },
            {
                "pitch": 24,
                "velocity": 20,
                "duration": 0.4523,
                "tempo": 120.0
            },
            {
                "pitch": 24,
                "velocity": 20,
                "duration": 0.15,
                "tempo": 120.0
            },
            {
                "pitch": 22,
                "velocity": 20,
                "duration": 0.15,
                "tempo": 120.0
            },
            {
                "pitch": 22,
                "velocity": 20,
                "duration": 0.15,
                "tempo": 120.0
            },
            {
                "pitch": 22,
                "velocity": 20,
                "duration": 0.4682,
                "tempo": 120.0
            },
            {
                "pitch": 22,
                "velocity": 20,
                "duration": 0.4523,
                "tempo": 120.0
            },
            {
                "pitch": 22,
                "velocity": 20,
                "duration": 0.2273,
                "tempo": 120.0
            },
            {
                "pitch": 22,
                "velocity": 20,
                "duration": 0.2432,
                "tempo": 120.0
            },
            {
                "pitch": 22,
                "velocity": 20,
                "duration": 0.4432,
                "tempo": 120.0
            },
            {
                "pitch": 21,
                "velocity": 20,
                "duration": 0.2386,
                "tempo": 120.0
            },
            {
                "pitch": 21,
                "velocity": 20,
                "duration": 0.4568,
                "tempo": 120.0
            },
            {
                "pitch": 21,
                "velocity": 20,
                "duration": 0.2159,
                "tempo": 120.0
            },
            {
                "pitch": 33,
                "velocity": 20,
                "duration": 0.2295,
                "tempo": 120.0
            },
            {
                "pitch": 21,
                "velocity": 20,
                "duration": 0.2295,
                "tempo": 120.0
            },
            {
                "pitch": 29,
                "velocity": 20,
                "duration": 0.4705,
                "tempo": 120.0
            },
            {
                "pitch": 41,
                "velocity": 20,
                "duration": 0.2182,
                "tempo": 120.0
            },
            {
                "pitch": 29,
                "velocity": 20,
                "duration": 0.2341,
                "tempo": 120.0
            },
            {
                "pitch": 29,
                "velocity": 20,
                "duration": 0.2295,
                "tempo": 120.0
            },
            {
                "pitch": 41,
                "velocity": 20,
                "duration": 0.2114,
                "tempo": 120.0
            },
            {
                "pitch": 29,
                "velocity": 20,
                "duration": 0.4614,
                "tempo": 120.0
            },
            {
                "pitch": 27,
                "velocity": 20,
                "duration": 0.4682,
                "tempo": 120.0
            },
            {
                "pitch": 39,
                "velocity": 20,
                "duration": 0.2227,
                "tempo": 120.0
            },
            {
                "pitch": 27,
                "velocity": 20,
                "duration": 0.4568,
                "tempo": 120.0
            },
            {
                "pitch": 27,
                "velocity": 20,
                "duration": 0.2341,
                "tempo": 120.0
            },
            {
                "pitch": 39,
                "velocity": 20,
                "duration": 0.2341,
                "tempo": 120.0
            },
            {
                "pitch": 27,
                "velocity": 20,
                "duration": 0.2159,
                "tempo": 120.0
            },
            {
                "pitch": 27,
                "velocity": 20,
                "duration": 0.2409,
                "tempo": 120.0
            },
            {
                "pitch": 38,
                "velocity": 20,
                "duration": 0.2205,
                "tempo": 120.0
            },
            {
                "pitch": 26,
                "velocity": 20,
                "duration": 0.2341,
                "tempo": 120.0
            },
            {
                "pitch": 38,
                "velocity": 20,
                "duration": 0.2182,
                "tempo": 120.0
            },
            {
                "pitch": 26,
                "velocity": 20,
                "duration": 0.2295,
                "tempo": 120.0
            },
            {
                "pitch": 38,
                "velocity": 20,
                "duration": 0.2273,
                "tempo": 120.0
            },
            {
                "pitch": 26,
                "velocity": 20,
                "duration": 0.2227,
                "tempo": 120.0
            },
            {
                "pitch": 38,
                "velocity": 20,
                "duration": 0.2409,
                "tempo": 120.0
            },
            {
                "pitch": 26,
                "velocity": 20,
                "duration": 0.2205,
                "tempo": 120.0
            },
            {
                "pitch": 38,
                "velocity": 20,
                "duration": 0.2409,
                "tempo": 120.0
            },
            {
                "pitch": 26,
                "velocity": 20,
                "duration": 0.2341,
                "tempo": 120.0
            },
            {
                "pitch": 38,
                "velocity": 20,
                "duration": 0.2159,
                "tempo": 120.0
            },
            {
                "pitch": 26,
                "velocity": 20,
                "duration": 0.2341,
                "tempo": 120.0
            },
            {
                "pitch": 38,
                "velocity": 20,
                "duration": 0.2182,
                "tempo": 120.0
            },
            {
                "pitch": 45,
                "velocity": 20,
                "duration": 0.2341,
                "tempo": 120.0
            },
            {
                "pitch": 38,
                "velocity": 20,
                "duration": 0.2341,
                "tempo": 120.0
            },
            {
                "pitch": 22,
                "velocity": 20,
                "duration": 0.1568,
                "tempo": 120.0
            },
            {
                "pitch": 22,
                "velocity": 20,
                "duration": 0.1568,
                "tempo": 120.0
            },
            {
                "pitch": 22,
                "velocity": 20,
                "duration": 0.1591,
                "tempo": 120.0
            },
            {
                "pitch": 22,
                "velocity": 20,
                "duration": 0.4409,
                "tempo": 120.0
            },
            {
                "pitch": 34,
                "velocity": 20,
                "duration": 0.15,
                "tempo": 120.0
            },
            {
                "pitch": 34,
                "velocity": 20,
                "duration": 0.15,
                "tempo": 120.0
            },
            {
                "pitch": 34,
                "velocity": 20,
                "duration": 0.15,
                "tempo": 120.0
            },
            {
                "pitch": 34,
                "velocity": 20,
                "duration": 0.4523,
                "tempo": 120.0
            },
            {
                "pitch": 22,
                "velocity": 20,
                "duration": 0.1523,
                "tempo": 120.0
            },
            {
                "pitch": 24,
                "velocity": 20,
                "duration": 0.1545,
                "tempo": 120.0
            },
            {
                "pitch": 24,
                "velocity": 20,
                "duration": 0.1705,
                "tempo": 120.0
            },
            {
                "pitch": 24,
                "velocity": 20,
                "duration": 0.4727,
                "tempo": 120.0
            },
            {
                "pitch": 36,
                "velocity": 20,
                "duration": 0.1523,
                "tempo": 120.0
            },
            {
                "pitch": 36,
                "velocity": 20,
                "duration": 0.15,
                "tempo": 120.0
            },
            {
                "pitch": 36,
                "velocity": 20,
                "duration": 0.15,
                "tempo": 120.0
            },
            {
                "pitch": 36,
                "velocity": 20,
                "duration": 0.4409,
                "tempo": 120.0
            },
            {
                "pitch": 21,
                "velocity": 20,
                "duration": 0.1545,
                "tempo": 120.0
            },
            {
                "pitch": 21,
                "velocity": 20,
                "duration": 0.1523,
                "tempo": 120.0
            },
            {
                "pitch": 21,
                "velocity": 20,
                "duration": 0.1545,
                "tempo": 120.0
            },
            {
                "pitch": 21,
                "velocity": 20,
                "duration": 0.4523,
                "tempo": 120.0
            },
            {
                "pitch": 33,
                "velocity": 20,
                "duration": 0.1659,
                "tempo": 120.0
            },
            {
                "pitch": 33,
                "velocity": 20,
                "duration": 0.15,
                "tempo": 120.0
            },
            {
                "pitch": 33,
                "velocity": 20,
                "duration": 0.1523,
                "tempo": 120.0
            },
            {
                "pitch": 33,
                "velocity": 20,
                "duration": 0.4614,
                "tempo": 120.0
            },
            {
                "pitch": 21,
                "velocity": 20,
                "duration": 0.1523,
                "tempo": 120.0
            },
            {
                "pitch": 21,
                "velocity": 20,
                "duration": 0.1727,
                "tempo": 120.0
            },
            {
                "pitch": 21,
                "velocity": 20,
                "duration": 0.1523,
                "tempo": 120.0
            },
            {
                "pitch": 21,
                "velocity": 20,
                "duration": 0.4977,
                "tempo": 120.0
            },
            {
                "pitch": 45,
                "velocity": 20,
                "duration": 0.1568,
                "tempo": 120.0
            },
            {
                "pitch": 45,
                "velocity": 20,
                "duration": 0.175,
                "tempo": 120.0
            },
            {
                "pitch": 45,
                "velocity": 20,
                "duration": 0.1568,
                "tempo": 120.0
            },
            {
                "pitch": 45,
                "velocity": 20,
                "duration": 0.5205,
                "tempo": 120.0
            },
            {
                "pitch": 21,
                "velocity": 20,
                "duration": 0.1591,
                "tempo": 120.0
            },
            {
                "pitch": 22,
                "velocity": 20,
                "duration": 0.1773,
                "tempo": 120.0
            },
            {
                "pitch": 22,
                "velocity": 20,
                "duration": 0.1614,
                "tempo": 120.0
            },
            {
                "pitch": 22,
                "velocity": 20,
                "duration": 0.4909,
                "tempo": 120.0
            },
            {
                "pitch": 34,
                "velocity": 20,
                "duration": 0.175,
                "tempo": 120.0
            },
            {
                "pitch": 34,
                "velocity": 20,
                "duration": 0.1568,
                "tempo": 120.0
            },
            {
                "pitch": 34,
                "velocity": 20,
                "duration": 0.175,
                "tempo": 120.0
            },
            {
                "pitch": 34,
                "velocity": 20,
                "duration": 0.5068,
                "tempo": 120.0
            },
            {
                "pitch": 22,
                "velocity": 20,
                "duration": 0.1614,
                "tempo": 120.0
            },
            {
                "pitch": 24,
                "velocity": 20,
                "duration": 0.1773,
                "tempo": 120.0
            },
            {
                "pitch": 24,
                "velocity": 20,
                "duration": 0.1773,
                "tempo": 120.0
            },
            {
                "pitch": 24,
                "velocity": 20,
                "duration": 0.5659,
                "tempo": 120.0
            },
            {
                "pitch": 36,
                "velocity": 20,
                "duration": 0.1955,
                "tempo": 120.0
            },
            {
                "pitch": 36,
                "velocity": 20,
                "duration": 0.1955,
                "tempo": 120.0
            },
            {
                "pitch": 36,
                "velocity": 20,
                "duration": 0.1977,
                "tempo": 120.0
            },
            {
                "pitch": 36,
                "velocity": 20,
                "duration": 0.5636,
                "tempo": 120.0
            }
        ]
    }
}