{
    "track_id": "Golvellius - Valley of Doom (FM) - 26 - Final Boss - Golvellius",
    "mood": "angry",
    "instruments": {
        "Lead 2 (sawtooth)": [
            {
                "pitch": 81,
                "velocity": 51,
                "duration": 0.1818,
                "tempo": 120.0
            },
            {
                "pitch": 69,
                "velocity": 51,
                "duration": 0.2,
                "tempo": 120.0
            },
            {
                "pitch": 72,
                "velocity": 51,
                "duration": 0.2045,
                "tempo": 120.0
            },
            {
                "pitch": 75,
                "velocity": 51,
                "duration": 0.3795,
                "tempo": 120.0
            },
            {
                "pitch": 72,
                "velocity": 51,
                "duration": 0.3909,
                "tempo": 120.0
            },
            {
                "pitch": 68,
                "velocity": 51,
                "duration": 0.2159,
                "tempo": 120.0
            },
            {
                "pitch": 68,
                "velocity": 51,
                "duration": 0.1932,
                "tempo": 120.0
            },
            {
                "pitch": 57,
                "velocity": 51,
                "duration": 0.2114,
                "tempo": 120.0
            },
            {
                "pitch": 60,
                "velocity": 51,
                "duration": 0.2023,
                "tempo": 120.0
            },
            {
                "pitch": 63,
                "velocity": 51,
                "duration": 0.375,
                "tempo": 120.0
            },
            {
                "pitch": 60,
                "velocity": 51,
                "duration": 0.3909,
                "tempo": 120.0
            },
            {
                "pitch": 56,
                "velocity": 51,
                "duration": 0.2182,
                "tempo": 120.0
            },
            {
                "pitch": 80,
                "velocity": 51,
                "duration": 0.1932,
                "tempo": 120.0
            },
            {
                "pitch": 69,
                "velocity": 51,
                "duration": 0.2114,
                "tempo": 120.0
            },
            {
                "pitch": 72,
                "velocity": 51,
                "duration": 0.2023,
                "tempo": 120.0
            },
            {
                "pitch": 75,
                "velocity": 51,
                "duration": 0.3727,
                "tempo": 120.0
            },
            {
                "pitch": 72,
                "velocity": 51,
                "duration": 0.3932,
                "tempo": 120.0
            },
            {
                "pitch": 68,
                "velocity": 51,
                "duration": 0.2182,
                "tempo": 120.0
            },
            {
                "pitch": 75,
                "velocity": 51,
                "duration": 0.1932,
                "tempo": 120.0
            },
            {
                "pitch": 72,
                "velocity": 51,
                "duration": 0.2114,
                "tempo": 120.0
            },
            {
                "pitch": 69,
                "velocity": 51,
                "duration": 0.2,
                "tempo": 120.0
            },
            {
                "pitch": 69,
                "velocity": 51,
                "duration": 0.1864,
                "tempo": 120.0
            },
            {
                "pitch": 56,
                "velocity": 51,
                "duration": 0.0159,
                "tempo": 120.0
            },
            {
                "pitch": 64,
                "velocity": 51,
                "duration": 0.1841,
                "tempo": 120.0
            },
            {
                "pitch": 64,
                "velocity": 51,
                "duration": 0.2,
                "tempo": 120.0
            },
            {
                "pitch": 63,
                "velocity": 51,
                "duration": 0.0159,
                "tempo": 120.0
            },
            {
                "pitch": 60,
                "velocity": 51,
                "duration": 0.1841,
                "tempo": 120.0
            },
            {
                "pitch": 57,
                "velocity": 51,
                "duration": 0.2182,
                "tempo": 120.0
            },
            {
                "pitch": 81,
                "velocity": 51,
                "duration": 0.1841,
                "tempo": 120.0
            },
            {
                "pitch": 69,
                "velocity": 51,
                "duration": 0.2023,
                "tempo": 120.0
            },
            {
                "pitch": 72,
                "velocity": 51,
                "duration": 0.2,
                "tempo": 120.0
            },
            {
                "pitch": 75,
                "velocity": 51,
                "duration": 0.375,
                "tempo": 120.0
            },
            {
                "pitch": 72,
                "velocity": 51,
                "duration": 0.3932,
                "tempo": 120.0
            },
            {
                "pitch": 68,
                "velocity": 51,
                "duration": 0.2182,
                "tempo": 120.0
            },
            {
                "pitch": 68,
                "velocity": 51,
                "duration": 0.1932,
                "tempo": 120.0
            },
            {
                "pitch": 57,
                "velocity": 51,
                "duration": 0.2114,
                "tempo": 120.0
            },
            {
                "pitch": 60,
                "velocity": 51,
                "duration": 0.2,
                "tempo": 120.0
            },
            {
                "pitch": 63,
                "velocity": 51,
                "duration": 0.3773,
                "tempo": 120.0
            },
            {
                "pitch": 60,
                "velocity": 51,
                "duration": 0.3909,
                "tempo": 120.0
            },
            {
                "pitch": 56,
                "velocity": 51,
                "duration": 0.2182,
                "tempo": 120.0
            },
            {
                "pitch": 80,
                "velocity": 51,
                "duration": 0.1932,
                "tempo": 120.0
            },
            {
                "pitch": 69,
                "velocity": 51,
                "duration": 0.2114,
                "tempo": 120.0
            },
            {
                "pitch": 72,
                "velocity": 51,
                "duration": 0.2,
                "tempo": 120.0
            },
            {
                "pitch": 75,
                "velocity": 51,
                "duration": 0.375,
                "tempo": 120.0
            },
            {
                "pitch": 72,
                "velocity": 51,
                "duration": 0.3932,
                "tempo": 120.0
            },
            {
                "pitch": 68,
                "velocity": 51,
                "duration": 0.2159,
                "tempo": 120.0
            },
            {
                "pitch": 75,
                "velocity": 51,
                "duration": 0.2659,
                "tempo": 120.0
            },
            {
                "pitch": 72,
                "velocity": 51,
                "duration": 0.2682,
                "tempo": 120.0
            },
            {
                "pitch": 69,
                "velocity": 51,
                "duration": 0.2545,
                "tempo": 120.0
            },
            {
                "pitch": 63,
                "velocity": 51,
                "duration": 0.2795,
                "tempo": 120.0
            },
            {
                "pitch": 60,
                "velocity": 51,
                "duration": 0.2682,
                "tempo": 120.0
            },
            {
                "pitch": 57,
                "velocity": 51,
                "duration": 1.8795,
                "tempo": 120.0
            },
            {
                "pitch": 84,
                "velocity": 51,
                "duration": 0.1886,
                "tempo": 120.0
            },
            {
                "pitch": 72,
                "velocity": 51,
                "duration": 0.2227,
                "tempo": 120.0
            },
            {
                "pitch": 75,
                "velocity": 51,
                "duration": 0.2045,
                "tempo": 120.0
            },
            {
                "pitch": 78,
                "velocity": 51,
                "duration": 0.3795,
                "tempo": 120.0
            },
            {
                "pitch": 75,
                "velocity": 51,
                "duration": 0.3909,
                "tempo": 120.0
            },
            {
                "pitch": 71,
                "velocity": 51,
                "duration": 0.2182,
                "tempo": 120.0
            },
            {
                "pitch": 71,
                "velocity": 51,
                "duration": 0.1932,
                "tempo": 120.0
            },
            {
                "pitch": 60,
                "velocity": 51,
                "duration": 0.2273,
                "tempo": 120.0
            },
            {
                "pitch": 63,
                "velocity": 51,
                "duration": 0.2023,
                "tempo": 120.0
            },
            {
                "pitch": 66,
                "velocity": 51,
                "duration": 0.375,
                "tempo": 120.0
            },
            {
                "pitch": 63,
                "velocity": 51,
                "duration": 0.3909,
                "tempo": 120.0
            },
            {
                "pitch": 59,
                "velocity": 51,
                "duration": 0.2182,
                "tempo": 120.0
            },
            {
                "pitch": 83,
                "velocity": 51,
                "duration": 0.1932,
                "tempo": 120.0
            },
            {
                "pitch": 72,
                "velocity": 51,
                "duration": 0.2295,
                "tempo": 120.0
            },
            {
                "pitch": 75,
                "velocity": 51,
                "duration": 0.2,
                "tempo": 120.0
            },
            {
                "pitch": 78,
                "velocity": 51,
                "duration": 0.375,
                "tempo": 120.0
            },
            {
                "pitch": 75,
                "velocity": 51,
                "duration": 0.3909,
                "tempo": 120.0
            },
            {
                "pitch": 71,
                "velocity": 51,
                "duration": 0.2159,
                "tempo": 120.0
            },
            {
                "pitch": 78,
                "velocity": 51,
                "duration": 0.1932,
                "tempo": 120.0
            },
            {
                "pitch": 75,
                "velocity": 51,
                "duration": 0.2295,
                "tempo": 120.0
            },
            {
                "pitch": 72,
                "velocity": 51,
                "duration": 0.2,
                "tempo": 120.0
            },
            {
                "pitch": 72,
                "velocity": 51,
                "duration": 0.2023,
                "tempo": 120.0
            },
            {
                "pitch": 67,
                "velocity": 51,
                "duration": 0.1841,
                "tempo": 120.0
            },
            {
                "pitch": 66,
                "velocity": 51,
                "duration": 0.2159,
                "tempo": 120.0
            },
            {
                "pitch": 63,
                "velocity": 51,
                "duration": 0.1841,
                "tempo": 120.0
            },
            {
                "pitch": 60,
                "velocity": 51,
                "duration": 0.2182,
                "tempo": 120.0
            },
            {
                "pitch": 84,
                "velocity": 51,
                "duration": 0.1841,
                "tempo": 120.0
            },
            {
                "pitch": 72,
                "velocity": 51,
                "duration": 0.2159,
                "tempo": 120.0
            },
            {
                "pitch": 75,
                "velocity": 51,
                "duration": 0.2,
                "tempo": 120.0
            },
            {
                "pitch": 78,
                "velocity": 51,
                "duration": 0.375,
                "tempo": 120.0
            },
            {
                "pitch": 75,
                "velocity": 51,
                "duration": 0.3909,
                "tempo": 120.0
            },
            {
                "pitch": 71,
                "velocity": 51,
                "duration": 0.2159,
                "tempo": 120.0
            },
            {
                "pitch": 71,
                "velocity": 51,
                "duration": 0.1932,
                "tempo": 120.0
            },
            {
                "pitch": 60,
                "velocity": 51,
                "duration": 0.2295,
                "tempo": 120.0
            },
            {
                "pitch": 63,
                "velocity": 51,
                "duration": 0.2,
                "tempo": 120.0
            },
            {
                "pitch": 66,
                "velocity": 51,
                "duration": 0.375,
                "tempo": 120.0
            },
            {
                "pitch": 63,
                "velocity": 51,
                "duration": 0.3932,
                "tempo": 120.0
            },
            {
                "pitch": 59,
                "velocity": 51,
                "duration": 0.2182,
                "tempo": 120.0
            },
            {
                "pitch": 83,
                "velocity": 51,
                "duration": 0.1932,
                "tempo": 120.0
            },
            {
                "pitch": 72,
                "velocity": 51,
                "duration": 0.2273,
                "tempo": 120.0
            },
            {
                "pitch": 75,
                "velocity": 51,
                "duration": 0.2023,
                "tempo": 120.0
            },
            {
                "pitch": 78,
                "velocity": 51,
                "duration": 0.375,
                "tempo": 120.0
            },
            {
                "pitch": 75,
                "velocity": 51,
                "duration": 0.3909,
                "tempo": 120.0
            },
            {
                "pitch": 71,
                "velocity": 51,
                "duration": 0.2182,
                "tempo": 120.0
            },
            {
                "pitch": 78,
                "velocity": 51,
                "duration": 0.2636,
                "tempo": 120.0
            },
            {
                "pitch": 75,
                "velocity": 51,
                "duration": 0.2682,
                "tempo": 120.0
            },
            {
                "pitch": 72,
                "velocity": 51,
                "duration": 0.2545,
                "tempo": 120.0
            },
            {
                "pitch": 66,
                "velocity": 51,
                "duration": 0.2795,
                "tempo": 120.0
            },
            {
                "pitch": 63,
                "velocity": 51,
                "duration": 0.2682,
                "tempo": 120.0
            },
            {
                "pitch": 60,
                "velocity": 51,
                "duration": 1.8773,
                "tempo": 120.0
            },
            {
                "pitch": 81,
                "velocity": 51,
                "duration": 0.1886,
                "tempo": 120.0
            },
            {
                "pitch": 69,
                "velocity": 51,
                "duration": 0.2227,
                "tempo": 120.0
            },
            {
                "pitch": 72,
                "velocity": 51,
                "duration": 0.2045,
                "tempo": 120.0
            },
            {
                "pitch": 75,
                "velocity": 51,
                "duration": 0.3795,
                "tempo": 120.0
            },
            {
                "pitch": 72,
                "velocity": 51,
                "duration": 0.3909,
                "tempo": 120.0
            },
            {
                "pitch": 68,
                "velocity": 51,
                "duration": 0.2182,
                "tempo": 120.0
            },
            {
                "pitch": 68,
                "velocity": 51,
                "duration": 0.1932,
                "tempo": 120.0
            },
            {
                "pitch": 57,
                "velocity": 51,
                "duration": 0.2273,
                "tempo": 120.0
            },
            {
                "pitch": 60,
                "velocity": 51,
                "duration": 0.2023,
                "tempo": 120.0
            },
            {
                "pitch": 63,
                "velocity": 51,
                "duration": 0.3727,
                "tempo": 120.0
            },
            {
                "pitch": 60,
                "velocity": 51,
                "duration": 0.3932,
                "tempo": 120.0
            },
            {
                "pitch": 56,
                "velocity": 51,
                "duration": 0.2182,
                "tempo": 120.0
            },
            {
                "pitch": 80,
                "velocity": 51,
                "duration": 0.1932,
                "tempo": 120.0
            },
            {
                "pitch": 69,
                "velocity": 51,
                "duration": 0.2295,
                "tempo": 120.0
            },
            {
                "pitch": 72,
                "velocity": 51,
                "duration": 0.2,
                "tempo": 120.0
            },
            {
                "pitch": 75,
                "velocity": 51,
                "duration": 0.375,
                "tempo": 120.0
            },
            {
                "pitch": 72,
                "velocity": 51,
                "duration": 0.3909,
                "tempo": 120.0
            },
            {
                "pitch": 68,
                "velocity": 51,
                "duration": 0.2159,
                "tempo": 120.0
            },
            {
                "pitch": 75,
                "velocity": 51,
                "duration": 0.1932,
                "tempo": 120.0
            },
            {
                "pitch": 72,
                "velocity": 51,
                "duration": 0.2295,
                "tempo": 120.0
            },
            {
                "pitch": 69,
                "velocity": 51,
                "duration": 0.2,
                "tempo": 120.0
            },
            {
                "pitch": 69,
                "velocity": 51,
                "duration": 0.2,
                "tempo": 120.0
            },
            {
                "pitch": 64,
                "velocity": 51,
                "duration": 0.1841,
                "tempo": 120.0
            },
            {
                "pitch": 64,
                "velocity": 51,
                "duration": 0.2159,
                "tempo": 120.0
            },
            {
                "pitch": 60,
                "velocity": 51,
                "duration": 0.1841,
                "tempo": 120.0
            },
            {
                "pitch": 57,
                "velocity": 51,
                "duration": 0.2182,
                "tempo": 120.0
            },
            {
                "pitch": 81,
                "velocity": 51,
                "duration": 0.1841,
                "tempo": 120.0
            },
            {
                "pitch": 69,
                "velocity": 51,
                "duration": 0.2159,
                "tempo": 120.0
            },
            {
                "pitch": 72,
                "velocity": 51,
                "duration": 0.2,
                "tempo": 120.0
            },
            {
                "pitch": 75,
                "velocity": 51,
                "duration": 0.375,
                "tempo": 120.0
            },
            {
                "pitch": 72,
                "velocity": 51,
                "duration": 0.3909,
                "tempo": 120.0
            },
            {
                "pitch": 68,
                "velocity": 51,
                "duration": 0.2159,
                "tempo": 120.0
            },
            {
                "pitch": 68,
                "velocity": 51,
                "duration": 0.1932,
                "tempo": 120.0
            },
            {
                "pitch": 57,
                "velocity": 51,
                "duration": 0.2295,
                "tempo": 120.0
            },
            {
                "pitch": 60,
                "velocity": 51,
                "duration": 0.2,
                "tempo": 120.0
            },
            {
                "pitch": 63,
                "velocity": 51,
                "duration": 0.375,
                "tempo": 120.0
            },
            {
                "pitch": 60,
                "velocity": 51,
                "duration": 0.3932,
                "tempo": 120.0
            },
            {
                "pitch": 56,
                "velocity": 51,
                "duration": 0.2182,
                "tempo": 120.0
            },
            {
                "pitch": 80,
                "velocity": 51,
                "duration": 0.1932,
                "tempo": 120.0
            },
            {
                "pitch": 69,
                "velocity": 51,
                "duration": 0.2273,
                "tempo": 120.0
            },
            {
                "pitch": 72,
                "velocity": 51,
                "duration": 0.2023,
                "tempo": 120.0
            },
            {
                "pitch": 75,
                "velocity": 51,
                "duration": 0.375,
                "tempo": 120.0
            },
            {
                "pitch": 72,
                "velocity": 51,
                "duration": 0.3909,
                "tempo": 120.0
            },
            {
                "pitch": 68,
                "velocity": 51,
                "duration": 0.2182,
                "tempo": 120.0
            },
            {
                "pitch": 75,
                "velocity": 51,
                "duration": 0.2636,
                "tempo": 120.0
            },
            {
                "pitch": 72,
                "velocity": 51,
                "duration": 0.2682,
                "tempo": 120.0
            },
            {
                "pitch": 69,
                "velocity": 51,
                "duration": 0.2545,
                "tempo": 120.0
            },
            {
                "pitch": 63,
                "velocity": 51,
                "duration": 0.2795,
                "tempo": 120.0
            },
            {
                "pitch": 60,
                "velocity": 51,
                "duration": 0.2682,
                "tempo": 120.0
            },
            {
                "pitch": 57,
                "velocity": 51,
                "duration": 0.2705,
                "tempo": 120.0
            }
        ],
        "Acoustic Bass": [
            {
                "pitch": 45,
                "velocity": 40,
                "duration": 0.2,
                "tempo": 120.0
            },
            {
                "pitch": 51,
                "velocity": 40,
                "duration": 0.2,
                "tempo": 120.0
            },
            {
                "pitch": 45,
                "velocity": 40,
                "duration": 0.2045,
                "tempo": 120.0
            },
            {
                "pitch": 51,
                "velocity": 40,
                "duration": 0.1886,
                "tempo": 120.0
            },
            {
                "pitch": 45,
                "velocity": 40,
                "duration": 0.2068,
                "tempo": 120.0
            },
            {
                "pitch": 51,
                "velocity": 40,
                "duration": 0.175,
                "tempo": 120.0
            },
            {
                "pitch": 45,
                "velocity": 40,
                "duration": 0.2159,
                "tempo": 120.0
            },
            {
                "pitch": 51,
                "velocity": 40,
                "duration": 0.2,
                "tempo": 120.0
            },
            {
                "pitch": 45,
                "velocity": 40,
                "duration": 0.2114,
                "tempo": 120.0
            },
            {
                "pitch": 51,
                "velocity": 40,
                "duration": 0.2114,
                "tempo": 120.0
            },
            {
                "pitch": 45,
                "velocity": 40,
                "duration": 0.2023,
                "tempo": 120.0
            },
            {
                "pitch": 51,
                "velocity": 40,
                "duration": 0.1841,
                "tempo": 120.0
            },
            {
                "pitch": 45,
                "velocity": 40,
                "duration": 0.2068,
                "tempo": 120.0
            },
            {
                "pitch": 51,
                "velocity": 40,
                "duration": 0.175,
                "tempo": 120.0
            },
            {
                "pitch": 45,
                "velocity": 40,
                "duration": 0.2182,
                "tempo": 120.0
            },
            {
                "pitch": 51,
                "velocity": 40,
                "duration": 0.2,
                "tempo": 120.0
            },
            {
                "pitch": 45,
                "velocity": 40,
                "duration": 0.2091,
                "tempo": 120.0
            },
            {
                "pitch": 51,
                "velocity": 40,
                "duration": 0.2114,
                "tempo": 120.0
            },
            {
                "pitch": 45,
                "velocity": 40,
                "duration": 0.2023,
                "tempo": 120.0
            },
            {
                "pitch": 51,
                "velocity": 40,
                "duration": 0.1818,
                "tempo": 120.0
            },
            {
                "pitch": 45,
                "velocity": 40,
                "duration": 0.2068,
                "tempo": 120.0
            },
            {
                "pitch": 51,
                "velocity": 40,
                "duration": 0.175,
                "tempo": 120.0
            },
            {
                "pitch": 45,
                "velocity": 40,
                "duration": 0.2182,
                "tempo": 120.0
            },
            {
                "pitch": 51,
                "velocity": 40,
                "duration": 0.2023,
                "tempo": 120.0
            },
            {
                "pitch": 45,
                "velocity": 40,
                "duration": 0.2114,
                "tempo": 120.0
            },
            {
                "pitch": 51,
                "velocity": 40,
                "duration": 0.2114,
                "tempo": 120.0
            },
            {
                "pitch": 45,
                "velocity": 40,
                "duration": 0.2,
                "tempo": 120.0
            },
            {
                "pitch": 51,
                "velocity": 40,
                "duration": 0.2023,
                "tempo": 120.0
            },
            {
                "pitch": 45,
                "velocity": 40,
                "duration": 0.2,
                "tempo": 120.0
            },
            {
                "pitch": 51,
                "velocity": 40,
                "duration": 0.2,
                "tempo": 120.0
            },
            {
                "pitch": 45,
                "velocity": 40,
                "duration": 0.2023,
                "tempo": 120.0
            },
            {
                "pitch": 51,
                "velocity": 40,
                "duration": 0.2,
                "tempo": 120.0
            },
            {
                "pitch": 45,
                "velocity": 40,
                "duration": 0.2023,
                "tempo": 120.0
            },
            {
                "pitch": 51,
                "velocity": 40,
                "duration": 0.2,
                "tempo": 120.0
            },
            {
                "pitch": 45,
                "velocity": 40,
                "duration": 0.2,
                "tempo": 120.0
            },
            {
                "pitch": 51,
                "velocity": 40,
                "duration": 0.1841,
                "tempo": 120.0
            },
            {
                "pitch": 45,
                "velocity": 40,
                "duration": 0.2068,
                "tempo": 120.0
            },
            {
                "pitch": 51,
                "velocity": 40,
                "duration": 0.175,
                "tempo": 120.0
            },
            {
                "pitch": 45,
                "velocity": 40,
                "duration": 0.2182,
                "tempo": 120.0
            },
            {
                "pitch": 51,
                "velocity": 40,
                "duration": 0.2023,
                "tempo": 120.0
            },
            {
                "pitch": 45,
                "velocity": 40,
                "duration": 0.2114,
                "tempo": 120.0
            },
            {
                "pitch": 51,
                "velocity": 40,
                "duration": 0.2114,
                "tempo": 120.0
            },
            {
                "pitch": 45,
                "velocity": 40,
                "duration": 0.2,
                "tempo": 120.0
            },
            {
                "pitch": 51,
                "velocity": 40,
                "duration": 0.1841,
                "tempo": 120.0
            },
            {
                "pitch": 45,
                "velocity": 40,
                "duration": 0.2091,
                "tempo": 120.0
            },
            {
                "pitch": 51,
                "velocity": 40,
                "duration": 0.175,
                "tempo": 120.0
            },
            {
                "pitch": 45,
                "velocity": 40,
                "duration": 0.2182,
                "tempo": 120.0
            },
            {
                "pitch": 51,
                "velocity": 40,
                "duration": 0.2,
                "tempo": 120.0
            },
            {
                "pitch": 45,
                "velocity": 40,
                "duration": 0.2114,
                "tempo": 120.0
            },
            {
                "pitch": 51,
                "velocity": 40,
                "duration": 0.2114,
                "tempo": 120.0
            },
            {
                "pitch": 45,
                "velocity": 40,
                "duration": 0.2,
                "tempo": 120.0
            },
            {
                "pitch": 51,
                "velocity": 40,
                "duration": 0.1841,
                "tempo": 120.0
            },
            {
                "pitch": 45,
                "velocity": 40,
                "duration": 0.2068,
                "tempo": 120.0
            },
            {
                "pitch": 51,
                "velocity": 40,
                "duration": 0.175,
                "tempo": 120.0
            },
            {
                "pitch": 45,
                "velocity": 40,
                "duration": 0.2182,
                "tempo": 120.0
            },
            {
                "pitch": 51,
                "velocity": 40,
                "duration": 0.2,
                "tempo": 120.0
            },
            {
                "pitch": 45,
                "velocity": 40,
                "duration": 0.1955,
                "tempo": 120.0
            },
            {
                "pitch": 51,
                "velocity": 40,
                "duration": 0.2091,
                "tempo": 120.0
            },
            {
                "pitch": 45,
                "velocity": 40,
                "duration": 0.1932,
                "tempo": 120.0
            },
            {
                "pitch": 51,
                "velocity": 40,
                "duration": 0.2068,
                "tempo": 120.0
            },
            {
                "pitch": 45,
                "velocity": 40,
                "duration": 0.1932,
                "tempo": 120.0
            },
            {
                "pitch": 51,
                "velocity": 40,
                "duration": 0.2114,
                "tempo": 120.0
            },
            {
                "pitch": 45,
                "velocity": 40,
                "duration": 0.1909,
                "tempo": 120.0
            },
            {
                "pitch": 51,
                "velocity": 40,
                "duration": 0.2068,
                "tempo": 120.0
            },
            {
                "pitch": 44,
                "velocity": 40,
                "duration": 0.1932,
                "tempo": 120.0
            },
            {
                "pitch": 50,
                "velocity": 40,
                "duration": 0.2114,
                "tempo": 120.0
            },
            {
                "pitch": 45,
                "velocity": 40,
                "duration": 0.1977,
                "tempo": 120.0
            },
            {
                "pitch": 51,
                "velocity": 40,
                "duration": 0.1955,
                "tempo": 120.0
            },
            {
                "pitch": 46,
                "velocity": 40,
                "duration": 0.1955,
                "tempo": 120.0
            },
            {
                "pitch": 52,
                "velocity": 40,
                "duration": 0.1955,
                "tempo": 120.0
            },
            {
                "pitch": 47,
                "velocity": 40,
                "duration": 0.2023,
                "tempo": 120.0
            },
            {
                "pitch": 53,
                "velocity": 40,
                "duration": 0.2182,
                "tempo": 120.0
            },
            {
                "pitch": 48,
                "velocity": 40,
                "duration": 0.2045,
                "tempo": 120.0
            },
            {
                "pitch": 54,
                "velocity": 40,
                "duration": 0.2068,
                "tempo": 120.0
            },
            {
                "pitch": 48,
                "velocity": 40,
                "duration": 0.2045,
                "tempo": 120.0
            },
            {
                "pitch": 54,
                "velocity": 40,
                "duration": 0.1886,
                "tempo": 120.0
            },
            {
                "pitch": 48,
                "velocity": 40,
                "duration": 0.2068,
                "tempo": 120.0
            },
            {
                "pitch": 54,
                "velocity": 40,
                "duration": 0.175,
                "tempo": 120.0
            },
            {
                "pitch": 48,
                "velocity": 40,
                "duration": 0.2182,
                "tempo": 120.0
            },
            {
                "pitch": 54,
                "velocity": 40,
                "duration": 0.2,
                "tempo": 120.0
            },
            {
                "pitch": 48,
                "velocity": 40,
                "duration": 0.2091,
                "tempo": 120.0
            },
            {
                "pitch": 54,
                "velocity": 40,
                "duration": 0.2114,
                "tempo": 120.0
            },
            {
                "pitch": 48,
                "velocity": 40,
                "duration": 0.2023,
                "tempo": 120.0
            },
            {
                "pitch": 54,
                "velocity": 40,
                "duration": 0.1841,
                "tempo": 120.0
            },
            {
                "pitch": 48,
                "velocity": 40,
                "duration": 0.2068,
                "tempo": 120.0
            },
            {
                "pitch": 54,
                "velocity": 40,
                "duration": 0.1773,
                "tempo": 120.0
            },
            {
                "pitch": 48,
                "velocity": 40,
                "duration": 0.2159,
                "tempo": 120.0
            },
            {
                "pitch": 54,
                "velocity": 40,
                "duration": 0.2,
                "tempo": 120.0
            },
            {
                "pitch": 48,
                "velocity": 40,
                "duration": 0.2114,
                "tempo": 120.0
            },
            {
                "pitch": 54,
                "velocity": 40,
                "duration": 0.2114,
                "tempo": 120.0
            },
            {
                "pitch": 48,
                "velocity": 40,
                "duration": 0.2,
                "tempo": 120.0
            },
            {
                "pitch": 54,
                "velocity": 40,
                "duration": 0.1818,
                "tempo": 120.0
            },
            {
                "pitch": 48,
                "velocity": 40,
                "duration": 0.2091,
                "tempo": 120.0
            },
            {
                "pitch": 54,
                "velocity": 40,
                "duration": 0.175,
                "tempo": 120.0
            },
            {
                "pitch": 48,
                "velocity": 40,
                "duration": 0.2159,
                "tempo": 120.0
            },
            {
                "pitch": 54,
                "velocity": 40,
                "duration": 0.2,
                "tempo": 120.0
            },
            {
                "pitch": 48,
                "velocity": 40,
                "duration": 0.2114,
                "tempo": 120.0
            },
            {
                "pitch": 54,
                "velocity": 40,
                "duration": 0.2114,
                "tempo": 120.0
            },
            {
                "pitch": 48,
                "velocity": 40,
                "duration": 0.2,
                "tempo": 120.0
            },
            {
                "pitch": 54,
                "velocity": 40,
                "duration": 0.2023,
                "tempo": 120.0
            },
            {
                "pitch": 48,
                "velocity": 40,
                "duration": 0.2,
                "tempo": 120.0
            },
            {
                "pitch": 54,
                "velocity": 40,
                "duration": 0.2,
                "tempo": 120.0
            },
            {
                "pitch": 48,
                "velocity": 40,
                "duration": 0.2023,
                "tempo": 120.0
            },
            {
                "pitch": 54,
                "velocity": 40,
                "duration": 0.2,
                "tempo": 120.0
            },
            {
                "pitch": 48,
                "velocity": 40,
                "duration": 0.2,
                "tempo": 120.0
            },
            {
                "pitch": 54,
                "velocity": 40,
                "duration": 0.2,
                "tempo": 120.0
            },
            {
                "pitch": 48,
                "velocity": 40,
                "duration": 0.2,
                "tempo": 120.0
            },
            {
                "pitch": 54,
                "velocity": 40,
                "duration": 0.1841,
                "tempo": 120.0
            },
            {
                "pitch": 48,
                "velocity": 40,
                "duration": 0.2068,
                "tempo": 120.0
            },
            {
                "pitch": 54,
                "velocity": 40,
                "duration": 0.175,
                "tempo": 120.0
            },
            {
                "pitch": 48,
                "velocity": 40,
                "duration": 0.2159,
                "tempo": 120.0
            },
            {
                "pitch": 54,
                "velocity": 40,
                "duration": 0.2,
                "tempo": 120.0
            },
            {
                "pitch": 48,
                "velocity": 40,
                "duration": 0.2114,
                "tempo": 120.0
            },
            {
                "pitch": 54,
                "velocity": 40,
                "duration": 0.2114,
                "tempo": 120.0
            },
            {
                "pitch": 48,
                "velocity": 40,
                "duration": 0.2,
                "tempo": 120.0
            },
            {
                "pitch": 54,
                "velocity": 40,
                "duration": 0.1841,
                "tempo": 120.0
            },
            {
                "pitch": 48,
                "velocity": 40,
                "duration": 0.2068,
                "tempo": 120.0
            },
            {
                "pitch": 54,
                "velocity": 40,
                "duration": 0.175,
                "tempo": 120.0
            },
            {
                "pitch": 48,
                "velocity": 40,
                "duration": 0.2182,
                "tempo": 120.0
            },
            {
                "pitch": 54,
                "velocity": 40,
                "duration": 0.2023,
                "tempo": 120.0
            },
            {
                "pitch": 48,
                "velocity": 40,
                "duration": 0.2091,
                "tempo": 120.0
            },
            {
                "pitch": 54,
                "velocity": 40,
                "duration": 0.2114,
                "tempo": 120.0
            },
            {
                "pitch": 48,
                "velocity": 40,
                "duration": 0.2023,
                "tempo": 120.0
            },
            {
                "pitch": 54,
                "velocity": 40,
                "duration": 0.1841,
                "tempo": 120.0
            },
            {
                "pitch": 48,
                "velocity": 40,
                "duration": 0.2068,
                "tempo": 120.0
            },
            {
                "pitch": 54,
                "velocity": 40,
                "duration": 0.1773,
                "tempo": 120.0
            },
            {
                "pitch": 48,
                "velocity": 40,
                "duration": 0.2159,
                "tempo": 120.0
            },
            {
                "pitch": 54,
                "velocity": 40,
                "duration": 0.2,
                "tempo": 120.0
            },
            {
                "pitch": 48,
                "velocity": 40,
                "duration": 0.1932,
                "tempo": 120.0
            },
            {
                "pitch": 54,
                "velocity": 40,
                "duration": 0.2114,
                "tempo": 120.0
            },
            {
                "pitch": 48,
                "velocity": 40,
                "duration": 0.1909,
                "tempo": 120.0
            },
            {
                "pitch": 54,
                "velocity": 40,
                "duration": 0.2068,
                "tempo": 120.0
            },
            {
                "pitch": 48,
                "velocity": 40,
                "duration": 0.1932,
                "tempo": 120.0
            },
            {
                "pitch": 54,
                "velocity": 40,
                "duration": 0.2114,
                "tempo": 120.0
            },
            {
                "pitch": 48,
                "velocity": 40,
                "duration": 0.1909,
                "tempo": 120.0
            },
            {
                "pitch": 54,
                "velocity": 40,
                "duration": 0.2068,
                "tempo": 120.0
            },
            {
                "pitch": 52,
                "velocity": 40,
                "duration": 0.1932,
                "tempo": 120.0
            },
            {
                "pitch": 58,
                "velocity": 40,
                "duration": 0.2114,
                "tempo": 120.0
            },
            {
                "pitch": 51,
                "velocity": 40,
                "duration": 0.1909,
                "tempo": 120.0
            },
            {
                "pitch": 57,
                "velocity": 40,
                "duration": 0.1909,
                "tempo": 120.0
            },
            {
                "pitch": 50,
                "velocity": 40,
                "duration": 0.2,
                "tempo": 120.0
            },
            {
                "pitch": 56,
                "velocity": 40,
                "duration": 0.2,
                "tempo": 120.0
            },
            {
                "pitch": 49,
                "velocity": 40,
                "duration": 0.2023,
                "tempo": 120.0
            },
            {
                "pitch": 55,
                "velocity": 40,
                "duration": 0.2182,
                "tempo": 120.0
            },
            {
                "pitch": 43,
                "velocity": 40,
                "duration": 0.2045,
                "tempo": 120.0
            },
            {
                "pitch": 51,
                "velocity": 40,
                "duration": 0.2068,
                "tempo": 120.0
            },
            {
                "pitch": 45,
                "velocity": 40,
                "duration": 0.2045,
                "tempo": 120.0
            },
            {
                "pitch": 51,
                "velocity": 40,
                "duration": 0.1886,
                "tempo": 120.0
            },
            {
                "pitch": 45,
                "velocity": 40,
                "duration": 0.2068,
                "tempo": 120.0
            },
            {
                "pitch": 51,
                "velocity": 40,
                "duration": 0.175,
                "tempo": 120.0
            },
            {
                "pitch": 45,
                "velocity": 40,
                "duration": 0.2182,
                "tempo": 120.0
            },
            {
                "pitch": 51,
                "velocity": 40,
                "duration": 0.2,
                "tempo": 120.0
            },
            {
                "pitch": 45,
                "velocity": 40,
                "duration": 0.2091,
                "tempo": 120.0
            },
            {
                "pitch": 51,
                "velocity": 40,
                "duration": 0.2114,
                "tempo": 120.0
            },
            {
                "pitch": 45,
                "velocity": 40,
                "duration": 0.2023,
                "tempo": 120.0
            },
            {
                "pitch": 51,
                "velocity": 40,
                "duration": 0.1818,
                "tempo": 120.0
            },
            {
                "pitch": 45,
                "velocity": 40,
                "duration": 0.2068,
                "tempo": 120.0
            },
            {
                "pitch": 51,
                "velocity": 40,
                "duration": 0.175,
                "tempo": 120.0
            },
            {
                "pitch": 45,
                "velocity": 40,
                "duration": 0.2182,
                "tempo": 120.0
            },
            {
                "pitch": 51,
                "velocity": 40,
                "duration": 0.2023,
                "tempo": 120.0
            },
            {
                "pitch": 45,
                "velocity": 40,
                "duration": 0.2114,
                "tempo": 120.0
            },
            {
                "pitch": 51,
                "velocity": 40,
                "duration": 0.2114,
                "tempo": 120.0
            },
            {
                "pitch": 45,
                "velocity": 40,
                "duration": 0.2,
                "tempo": 120.0
            },
            {
                "pitch": 51,
                "velocity": 40,
                "duration": 0.1818,
                "tempo": 120.0
            },
            {
                "pitch": 45,
                "velocity": 40,
                "duration": 0.2091,
                "tempo": 120.0
            },
            {
                "pitch": 51,
                "velocity": 40,
                "duration": 0.175,
                "tempo": 120.0
            },
            {
                "pitch": 45,
                "velocity": 40,
                "duration": 0.2159,
                "tempo": 120.0
            },
            {
                "pitch": 51,
                "velocity": 40,
                "duration": 0.2,
                "tempo": 120.0
            },
            {
                "pitch": 45,
                "velocity": 40,
                "duration": 0.2114,
                "tempo": 120.0
            },
            {
                "pitch": 51,
                "velocity": 40,
                "duration": 0.2114,
                "tempo": 120.0
            },
            {
                "pitch": 45,
                "velocity": 40,
                "duration": 0.2,
                "tempo": 120.0
            },
            {
                "pitch": 51,
                "velocity": 40,
                "duration": 0.2,
                "tempo": 120.0
            },
            {
                "pitch": 45,
                "velocity": 40,
                "duration": 0.2,
                "tempo": 120.0
            },
            {
                "pitch": 51,
                "velocity": 40,
                "duration": 0.2,
                "tempo": 120.0
            },
            {
                "pitch": 45,
                "velocity": 40,
                "duration": 0.2,
                "tempo": 120.0
            },
            {
                "pitch": 51,
                "velocity": 40,
                "duration": 0.2023,
                "tempo": 120.0
            },
            {
                "pitch": 45,
                "velocity": 40,
                "duration": 0.2,
                "tempo": 120.0
            },
            {
                "pitch": 51,
                "velocity": 40,
                "duration": 0.2,
                "tempo": 120.0
            },
            {
                "pitch": 45,
                "velocity": 40,
                "duration": 0.2,
                "tempo": 120.0
            },
            {
                "pitch": 51,
                "velocity": 40,
                "duration": 0.1841,
                "tempo": 120.0
            },
            {
                "pitch": 45,
                "velocity": 40,
                "duration": 0.2068,
                "tempo": 120.0
            },
            {
                "pitch": 51,
                "velocity": 40,
                "duration": 0.175,
                "tempo": 120.0
            },
            {
                "pitch": 45,
                "velocity": 40,
                "duration": 0.2159,
                "tempo": 120.0
            },
            {
                "pitch": 51,
                "velocity": 40,
                "duration": 0.2,
                "tempo": 120.0
            },
            {
                "pitch": 45,
                "velocity": 40,
                "duration": 0.2114,
                "tempo": 120.0
            },
            {
                "pitch": 51,
                "velocity": 40,
                "duration": 0.2114,
                "tempo": 120.0
            },
            {
                "pitch": 45,
                "velocity": 40,
                "duration": 0.2,
                "tempo": 120.0
            },
            {
                "pitch": 51,
                "velocity": 40,
                "duration": 0.1841,
                "tempo": 120.0
            },
            {
                "pitch": 45,
                "velocity": 40,
                "duration": 0.2068,
                "tempo": 120.0
            },
            {
                "pitch": 51,
                "velocity": 40,
                "duration": 0.175,
                "tempo": 120.0
            },
            {
                "pitch": 45,
                "velocity": 40,
                "duration": 0.2182,
                "tempo": 120.0
            },
            {
                "pitch": 51,
                "velocity": 40,
                "duration": 0.2023,
                "tempo": 120.0
            },
            {
                "pitch": 45,
                "velocity": 40,
                "duration": 0.2091,
                "tempo": 120.0
            },
            {
                "pitch": 51,
                "velocity": 40,
                "duration": 0.2114,
                "tempo": 120.0
            },
            {
                "pitch": 45,
                "velocity": 40,
                "duration": 0.2023,
                "tempo": 120.0
            },
            {
                "pitch": 51,
                "velocity": 40,
                "duration": 0.1841,
                "tempo": 120.0
            },
            {
                "pitch": 45,
                "velocity": 40,
                "duration": 0.2068,
                "tempo": 120.0
            },
            {
                "pitch": 51,
                "velocity": 40,
                "duration": 0.175,
                "tempo": 120.0
            },
            {
                "pitch": 45,
                "velocity": 40,
                "duration": 0.2182,
                "tempo": 120.0
            },
            {
                "pitch": 51,
                "velocity": 40,
                "duration": 0.2,
                "tempo": 120.0
            },
            {
                "pitch": 45,
                "velocity": 40,
                "duration": 0.1932,
                "tempo": 120.0
            },
            {
                "pitch": 51,
                "velocity": 40,
                "duration": 0.2114,
                "tempo": 120.0
            },
            {
                "pitch": 45,
                "velocity": 40,
                "duration": 0.1909,
                "tempo": 120.0
            },
            {
                "pitch": 51,
                "velocity": 40,
                "duration": 0.2068,
                "tempo": 120.0
            },
            {
                "pitch": 45,
                "velocity": 40,
                "duration": 0.1932,
                "tempo": 120.0
            },
            {
                "pitch": 51,
                "velocity": 40,
                "duration": 0.2114,
                "tempo": 120.0
            },
            {
                "pitch": 45,
                "velocity": 40,
                "duration": 0.1909,
                "tempo": 120.0
            },
            {
                "pitch": 51,
                "velocity": 40,
                "duration": 0.2068,
                "tempo": 120.0
            }
        ],
        "Trumpet": [
            {
                "pitch": 79,
                "velocity": 40,
                "duration": 0.05,
                "tempo": 120.0
            },
            {
                "pitch": 81,
                "velocity": 40,
                "duration": 0.5545,
                "tempo": 120.0
            },
            {
                "pitch": 87,
                "velocity": 40,
                "duration": 0.9864,
                "tempo": 120.0
            },
            {
                "pitch": 81,
                "velocity": 40,
                "duration": 0.625,
                "tempo": 120.0
            },
            {
                "pitch": 87,
                "velocity": 40,
                "duration": 0.9841,
                "tempo": 120.0
            },
            {
                "pitch": 81,
                "velocity": 40,
                "duration": 0.6227,
                "tempo": 120.0
            },
            {
                "pitch": 87,
                "velocity": 40,
                "duration": 0.9841,
                "tempo": 120.0
            },
            {
                "pitch": 81,
                "velocity": 40,
                "duration": 0.6227,
                "tempo": 120.0
            },
            {
                "pitch": 87,
                "velocity": 40,
                "duration": 1.0045,
                "tempo": 120.0
            },
            {
                "pitch": 81,
                "velocity": 40,
                "duration": 0.6023,
                "tempo": 120.0
            },
            {
                "pitch": 87,
                "velocity": 40,
                "duration": 0.9864,
                "tempo": 120.0
            },
            {
                "pitch": 81,
                "velocity": 40,
                "duration": 0.6227,
                "tempo": 120.0
            },
            {
                "pitch": 87,
                "velocity": 40,
                "duration": 0.9864,
                "tempo": 120.0
            },
            {
                "pitch": 81,
                "velocity": 40,
                "duration": 0.6227,
                "tempo": 120.0
            },
            {
                "pitch": 87,
                "velocity": 40,
                "duration": 0.9841,
                "tempo": 120.0
            },
            {
                "pitch": 81,
                "velocity": 40,
                "duration": 0.6136,
                "tempo": 120.0
            },
            {
                "pitch": 87,
                "velocity": 40,
                "duration": 0.9932,
                "tempo": 120.0
            },
            {
                "pitch": 80,
                "velocity": 64,
                "duration": 0.1932,
                "tempo": 120.0
            },
            {
                "pitch": 88,
                "velocity": 64,
                "duration": 0.2114,
                "tempo": 120.0
            },
            {
                "pitch": 81,
                "velocity": 64,
                "duration": 0.1977,
                "tempo": 120.0
            },
            {
                "pitch": 89,
                "velocity": 64,
                "duration": 0.1955,
                "tempo": 120.0
            },
            {
                "pitch": 82,
                "velocity": 64,
                "duration": 0.1955,
                "tempo": 120.0
            },
            {
                "pitch": 90,
                "velocity": 64,
                "duration": 0.1955,
                "tempo": 120.0
            },
            {
                "pitch": 83,
                "velocity": 64,
                "duration": 0.2023,
                "tempo": 120.0
            },
            {
                "pitch": 91,
                "velocity": 64,
                "duration": 0.0659,
                "tempo": 120.0
            },
            {
                "pitch": 91,
                "velocity": 64,
                "duration": 0.1523,
                "tempo": 120.0
            },
            {
                "pitch": 84,
                "velocity": 8,
                "duration": 0.6159,
                "tempo": 120.0
            },
            {
                "pitch": 90,
                "velocity": 8,
                "duration": 0.9886,
                "tempo": 120.0
            },
            {
                "pitch": 84,
                "velocity": 8,
                "duration": 0.6227,
                "tempo": 120.0
            },
            {
                "pitch": 90,
                "velocity": 8,
                "duration": 0.9841,
                "tempo": 120.0
            },
            {
                "pitch": 84,
                "velocity": 8,
                "duration": 0.6227,
                "tempo": 120.0
            },
            {
                "pitch": 90,
                "velocity": 8,
                "duration": 0.9818,
                "tempo": 120.0
            },
            {
                "pitch": 84,
                "velocity": 8,
                "duration": 0.6227,
                "tempo": 120.0
            },
            {
                "pitch": 90,
                "velocity": 8,
                "duration": 1.0045,
                "tempo": 120.0
            },
            {
                "pitch": 84,
                "velocity": 8,
                "duration": 0.6,
                "tempo": 120.0
            },
            {
                "pitch": 90,
                "velocity": 8,
                "duration": 0.9818,
                "tempo": 120.0
            },
            {
                "pitch": 84,
                "velocity": 8,
                "duration": 0.6227,
                "tempo": 120.0
            },
            {
                "pitch": 90,
                "velocity": 8,
                "duration": 0.9864,
                "tempo": 120.0
            },
            {
                "pitch": 84,
                "velocity": 8,
                "duration": 0.6227,
                "tempo": 120.0
            },
            {
                "pitch": 90,
                "velocity": 8,
                "duration": 0.9841,
                "tempo": 120.0
            },
            {
                "pitch": 84,
                "velocity": 8,
                "duration": 0.6114,
                "tempo": 120.0
            },
            {
                "pitch": 90,
                "velocity": 8,
                "duration": 0.9932,
                "tempo": 120.0
            },
            {
                "pitch": 88,
                "velocity": 64,
                "duration": 0.1932,
                "tempo": 120.0
            },
            {
                "pitch": 96,
                "velocity": 64,
                "duration": 0.2114,
                "tempo": 120.0
            },
            {
                "pitch": 87,
                "velocity": 64,
                "duration": 0.1909,
                "tempo": 120.0
            },
            {
                "pitch": 95,
                "velocity": 64,
                "duration": 0.1909,
                "tempo": 120.0
            },
            {
                "pitch": 86,
                "velocity": 64,
                "duration": 0.2,
                "tempo": 120.0
            },
            {
                "pitch": 94,
                "velocity": 64,
                "duration": 0.2,
                "tempo": 120.0
            },
            {
                "pitch": 85,
                "velocity": 64,
                "duration": 0.2023,
                "tempo": 120.0
            },
            {
                "pitch": 93,
                "velocity": 64,
                "duration": 0.2182,
                "tempo": 120.0
            },
            {
                "pitch": 81,
                "velocity": 40,
                "duration": 0.6159,
                "tempo": 120.0
            },
            {
                "pitch": 87,
                "velocity": 40,
                "duration": 0.9886,
                "tempo": 120.0
            },
            {
                "pitch": 81,
                "velocity": 40,
                "duration": 0.6227,
                "tempo": 120.0
            },
            {
                "pitch": 87,
                "velocity": 40,
                "duration": 0.9841,
                "tempo": 120.0
            },
            {
                "pitch": 81,
                "velocity": 40,
                "duration": 0.6227,
                "tempo": 120.0
            },
            {
                "pitch": 87,
                "velocity": 40,
                "duration": 0.9818,
                "tempo": 120.0
            },
            {
                "pitch": 81,
                "velocity": 40,
                "duration": 0.6227,
                "tempo": 120.0
            },
            {
                "pitch": 87,
                "velocity": 40,
                "duration": 1.0023,
                "tempo": 120.0
            },
            {
                "pitch": 81,
                "velocity": 40,
                "duration": 0.6,
                "tempo": 120.0
            },
            {
                "pitch": 87,
                "velocity": 40,
                "duration": 0.9818,
                "tempo": 120.0
            },
            {
                "pitch": 81,
                "velocity": 40,
                "duration": 0.6227,
                "tempo": 120.0
            },
            {
                "pitch": 87,
                "velocity": 40,
                "duration": 0.9864,
                "tempo": 120.0
            },
            {
                "pitch": 81,
                "velocity": 40,
                "duration": 0.6227,
                "tempo": 120.0
            },
            {
                "pitch": 87,
                "velocity": 40,
                "duration": 0.9841,
                "tempo": 120.0
            },
            {
                "pitch": 81,
                "velocity": 40,
                "duration": 0.6114,
                "tempo": 120.0
            },
            {
                "pitch": 87,
                "velocity": 40,
                "duration": 0.9932,
                "tempo": 120.0
            }
        ]
    }
}