{
    "track_id": "Golvellius - Valley of Doom (FM) - 05 - Old Woman",
    "mood": "sad",
    "instruments": {
        "French Horn": [
            {
                "pitch": 50,
                "velocity": 40,
                "duration": 0.2341,
                "tempo": 120.0
            },
            {
                "pitch": 55,
                "velocity": 40,
                "duration": 0.0659,
                "tempo": 120.0
            },
            {
                "pitch": 55,
                "velocity": 40,
                "duration": 0.0705,
                "tempo": 120.0
            },
            {
                "pitch": 55,
                "velocity": 40,
                "duration": 0.0682,
                "tempo": 120.0
            },
            {
                "pitch": 55,
                "velocity": 40,
                "duration": 0.0523,
                "tempo": 120.0
            },
            {
                "pitch": 55,
                "velocity": 40,
                "duration": 0.0886,
                "tempo": 120.0
            },
            {
                "pitch": 57,
                "velocity": 40,
                "duration": 0.1727,
                "tempo": 120.0
            },
            {
                "pitch": 62,
                "velocity": 40,
                "duration": 0.2386,
                "tempo": 120.0
            },
            {
                "pitch": 60,
                "velocity": 40,
                "duration": 0.25,
                "tempo": 120.0
            },
            {
                "pitch": 60,
                "velocity": 40,
                "duration": 0.2295,
                "tempo": 120.0
            },
            {
                "pitch": 50,
                "velocity": 40,
                "duration": 0.2455,
                "tempo": 120.0
            },
            {
                "pitch": 55,
                "velocity": 40,
                "duration": 0.0659,
                "tempo": 120.0
            },
            {
                "pitch": 55,
                "velocity": 40,
                "duration": 0.0659,
                "tempo": 120.0
            },
            {
                "pitch": 55,
                "velocity": 40,
                "duration": 0.0636,
                "tempo": 120.0
            },
            {
                "pitch": 55,
                "velocity": 40,
                "duration": 0.05,
                "tempo": 120.0
            },
            {
                "pitch": 55,
                "velocity": 40,
                "duration": 0.0818,
                "tempo": 120.0
            },
            {
                "pitch": 57,
                "velocity": 40,
                "duration": 0.1455,
                "tempo": 120.0
            },
            {
                "pitch": 62,
                "velocity": 40,
                "duration": 0.2568,
                "tempo": 120.0
            },
            {
                "pitch": 60,
                "velocity": 40,
                "duration": 0.2614,
                "tempo": 120.0
            },
            {
                "pitch": 60,
                "velocity": 40,
                "duration": 0.2341,
                "tempo": 120.0
            },
            {
                "pitch": 50,
                "velocity": 40,
                "duration": 0.2432,
                "tempo": 120.0
            },
            {
                "pitch": 54,
                "velocity": 40,
                "duration": 0.2341,
                "tempo": 120.0
            },
            {
                "pitch": 53,
                "velocity": 40,
                "duration": 0.0659,
                "tempo": 120.0
            },
            {
                "pitch": 55,
                "velocity": 40,
                "duration": 0.0682,
                "tempo": 120.0
            },
            {
                "pitch": 55,
                "velocity": 40,
                "duration": 0.0659,
                "tempo": 120.0
            },
            {
                "pitch": 55,
                "velocity": 40,
                "duration": 0.05,
                "tempo": 120.0
            },
            {
                "pitch": 60,
                "velocity": 40,
                "duration": 0.2545,
                "tempo": 120.0
            },
            {
                "pitch": 60,
                "velocity": 40,
                "duration": 0.2364,
                "tempo": 120.0
            },
            {
                "pitch": 57,
                "velocity": 40,
                "duration": 0.2523,
                "tempo": 120.0
            },
            {
                "pitch": 50,
                "velocity": 40,
                "duration": 0.2523,
                "tempo": 120.0
            },
            {
                "pitch": 54,
                "velocity": 40,
                "duration": 0.2273,
                "tempo": 120.0
            },
            {
                "pitch": 53,
                "velocity": 40,
                "duration": 0.0636,
                "tempo": 120.0
            },
            {
                "pitch": 55,
                "velocity": 40,
                "duration": 0.0659,
                "tempo": 120.0
            },
            {
                "pitch": 55,
                "velocity": 40,
                "duration": 0.0636,
                "tempo": 120.0
            },
            {
                "pitch": 55,
                "velocity": 40,
                "duration": 0.0477,
                "tempo": 120.0
            },
            {
                "pitch": 60,
                "velocity": 40,
                "duration": 0.25,
                "tempo": 120.0
            },
            {
                "pitch": 60,
                "velocity": 40,
                "duration": 0.2386,
                "tempo": 120.0
            },
            {
                "pitch": 57,
                "velocity": 40,
                "duration": 0.25,
                "tempo": 120.0
            },
            {
                "pitch": 52,
                "velocity": 40,
                "duration": 0.2295,
                "tempo": 120.0
            },
            {
                "pitch": 57,
                "velocity": 40,
                "duration": 0.25,
                "tempo": 120.0
            },
            {
                "pitch": 57,
                "velocity": 40,
                "duration": 0.0841,
                "tempo": 120.0
            },
            {
                "pitch": 59,
                "velocity": 40,
                "duration": 0.1659,
                "tempo": 120.0
            },
            {
                "pitch": 64,
                "velocity": 40,
                "duration": 0.2318,
                "tempo": 120.0
            },
            {
                "pitch": 62,
                "velocity": 40,
                "duration": 0.2432,
                "tempo": 120.0
            },
            {
                "pitch": 62,
                "velocity": 40,
                "duration": 0.2477,
                "tempo": 120.0
            },
            {
                "pitch": 52,
                "velocity": 40,
                "duration": 0.2295,
                "tempo": 120.0
            },
            {
                "pitch": 57,
                "velocity": 40,
                "duration": 0.2523,
                "tempo": 120.0
            },
            {
                "pitch": 57,
                "velocity": 40,
                "duration": 0.0864,
                "tempo": 120.0
            },
            {
                "pitch": 59,
                "velocity": 40,
                "duration": 0.1523,
                "tempo": 120.0
            },
            {
                "pitch": 64,
                "velocity": 40,
                "duration": 0.2386,
                "tempo": 120.0
            },
            {
                "pitch": 62,
                "velocity": 40,
                "duration": 0.2364,
                "tempo": 120.0
            },
            {
                "pitch": 62,
                "velocity": 40,
                "duration": 0.2386,
                "tempo": 120.0
            },
            {
                "pitch": 55,
                "velocity": 40,
                "duration": 0.0682,
                "tempo": 120.0
            },
            {
                "pitch": 55,
                "velocity": 40,
                "duration": 0.0705,
                "tempo": 120.0
            },
            {
                "pitch": 55,
                "velocity": 40,
                "duration": 0.0705,
                "tempo": 120.0
            },
            {
                "pitch": 55,
                "velocity": 40,
                "duration": 0.0523,
                "tempo": 120.0
            },
            {
                "pitch": 50,
                "velocity": 40,
                "duration": 0.2523,
                "tempo": 120.0
            },
            {
                "pitch": 55,
                "velocity": 40,
                "duration": 0.0682,
                "tempo": 120.0
            },
            {
                "pitch": 55,
                "velocity": 40,
                "duration": 0.0659,
                "tempo": 120.0
            },
            {
                "pitch": 55,
                "velocity": 40,
                "duration": 0.0682,
                "tempo": 120.0
            },
            {
                "pitch": 55,
                "velocity": 40,
                "duration": 0.0318,
                "tempo": 120.0
            },
            {
                "pitch": 50,
                "velocity": 40,
                "duration": 0.25,
                "tempo": 120.0
            },
            {
                "pitch": 55,
                "velocity": 40,
                "duration": 0.0659,
                "tempo": 120.0
            },
            {
                "pitch": 55,
                "velocity": 40,
                "duration": 0.0636,
                "tempo": 120.0
            },
            {
                "pitch": 55,
                "velocity": 40,
                "duration": 0.0659,
                "tempo": 120.0
            },
            {
                "pitch": 55,
                "velocity": 40,
                "duration": 0.0341,
                "tempo": 120.0
            },
            {
                "pitch": 50,
                "velocity": 40,
                "duration": 0.2523,
                "tempo": 120.0
            },
            {
                "pitch": 55,
                "velocity": 40,
                "duration": 0.0682,
                "tempo": 120.0
            },
            {
                "pitch": 55,
                "velocity": 40,
                "duration": 0.0682,
                "tempo": 120.0
            },
            {
                "pitch": 55,
                "velocity": 40,
                "duration": 0.0682,
                "tempo": 120.0
            },
            {
                "pitch": 55,
                "velocity": 40,
                "duration": 0.05,
                "tempo": 120.0
            },
            {
                "pitch": 55,
                "velocity": 40,
                "duration": 0.0841,
                "tempo": 120.0
            },
            {
                "pitch": 57,
                "velocity": 40,
                "duration": 0.1477,
                "tempo": 120.0
            },
            {
                "pitch": 54,
                "velocity": 40,
                "duration": 0.2455,
                "tempo": 120.0
            },
            {
                "pitch": 50,
                "velocity": 40,
                "duration": 0.2477,
                "tempo": 120.0
            },
            {
                "pitch": 54,
                "velocity": 40,
                "duration": 0.2341,
                "tempo": 120.0
            },
            {
                "pitch": 50,
                "velocity": 40,
                "duration": 0.2545,
                "tempo": 120.0
            },
            {
                "pitch": 54,
                "velocity": 40,
                "duration": 0.2386,
                "tempo": 120.0
            },
            {
                "pitch": 50,
                "velocity": 40,
                "duration": 0.25,
                "tempo": 120.0
            },
            {
                "pitch": 54,
                "velocity": 40,
                "duration": 0.2455,
                "tempo": 120.0
            },
            {
                "pitch": 50,
                "velocity": 40,
                "duration": 0.2341,
                "tempo": 120.0
            },
            {
                "pitch": 50,
                "velocity": 40,
                "duration": 0.25,
                "tempo": 120.0
            },
            {
                "pitch": 55,
                "velocity": 40,
                "duration": 0.0682,
                "tempo": 120.0
            },
            {
                "pitch": 55,
                "velocity": 40,
                "duration": 0.0659,
                "tempo": 120.0
            },
            {
                "pitch": 55,
                "velocity": 40,
                "duration": 0.0636,
                "tempo": 120.0
            },
            {
                "pitch": 55,
                "velocity": 40,
                "duration": 0.05,
                "tempo": 120.0
            },
            {
                "pitch": 58,
                "velocity": 40,
                "duration": 0.2318,
                "tempo": 120.0
            },
            {
                "pitch": 62,
                "velocity": 40,
                "duration": 0.2477,
                "tempo": 120.0
            },
            {
                "pitch": 60,
                "velocity": 40,
                "duration": 0.2523,
                "tempo": 120.0
            },
            {
                "pitch": 58,
                "velocity": 40,
                "duration": 0.2295,
                "tempo": 120.0
            },
            {
                "pitch": 51,
                "velocity": 40,
                "duration": 0.2455,
                "tempo": 120.0
            },
            {
                "pitch": 55,
                "velocity": 40,
                "duration": 0.0659,
                "tempo": 120.0
            },
            {
                "pitch": 55,
                "velocity": 40,
                "duration": 0.0659,
                "tempo": 120.0
            },
            {
                "pitch": 55,
                "velocity": 40,
                "duration": 0.0659,
                "tempo": 120.0
            },
            {
                "pitch": 55,
                "velocity": 40,
                "duration": 0.0341,
                "tempo": 120.0
            },
            {
                "pitch": 58,
                "velocity": 40,
                "duration": 0.2523,
                "tempo": 120.0
            },
            {
                "pitch": 62,
                "velocity": 40,
                "duration": 0.25,
                "tempo": 120.0
            },
            {
                "pitch": 60,
                "velocity": 40,
                "duration": 0.2341,
                "tempo": 120.0
            },
            {
                "pitch": 58,
                "velocity": 40,
                "duration": 0.25,
                "tempo": 120.0
            },
            {
                "pitch": 53,
                "velocity": 40,
                "duration": 0.2523,
                "tempo": 120.0
            },
            {
                "pitch": 57,
                "velocity": 40,
                "duration": 0.2341,
                "tempo": 120.0
            },
            {
                "pitch": 60,
                "velocity": 40,
                "duration": 0.25,
                "tempo": 120.0
            },
            {
                "pitch": 63,
                "velocity": 40,
                "duration": 0.2341,
                "tempo": 120.0
            },
            {
                "pitch": 63,
                "velocity": 40,
                "duration": 0.2523,
                "tempo": 120.0
            },
            {
                "pitch": 60,
                "velocity": 40,
                "duration": 0.2432,
                "tempo": 120.0
            },
            {
                "pitch": 53,
                "velocity": 40,
                "duration": 0.225,
                "tempo": 120.0
            },
            {
                "pitch": 57,
                "velocity": 40,
                "duration": 0.2545,
                "tempo": 120.0
            },
            {
                "pitch": 60,
                "velocity": 40,
                "duration": 0.2614,
                "tempo": 120.0
            },
            {
                "pitch": 63,
                "velocity": 40,
                "duration": 0.2341,
                "tempo": 120.0
            },
            {
                "pitch": 63,
                "velocity": 40,
                "duration": 0.2477,
                "tempo": 120.0
            },
            {
                "pitch": 60,
                "velocity": 40,
                "duration": 0.2273,
                "tempo": 120.0
            },
            {
                "pitch": 60,
                "velocity": 40,
                "duration": 0.2455,
                "tempo": 120.0
            },
            {
                "pitch": 60,
                "velocity": 40,
                "duration": 0.2409,
                "tempo": 120.0
            },
            {
                "pitch": 55,
                "velocity": 40,
                "duration": 0.0659,
                "tempo": 120.0
            },
            {
                "pitch": 55,
                "velocity": 40,
                "duration": 0.0636,
                "tempo": 120.0
            },
            {
                "pitch": 55,
                "velocity": 40,
                "duration": 0.0636,
                "tempo": 120.0
            },
            {
                "pitch": 55,
                "velocity": 40,
                "duration": 0.0318,
                "tempo": 120.0
            },
            {
                "pitch": 62,
                "velocity": 40,
                "duration": 0.2659,
                "tempo": 120.0
            },
            {
                "pitch": 60,
                "velocity": 40,
                "duration": 0.2341,
                "tempo": 120.0
            },
            {
                "pitch": 60,
                "velocity": 40,
                "duration": 0.2477,
                "tempo": 120.0
            },
            {
                "pitch": 60,
                "velocity": 40,
                "duration": 0.2341,
                "tempo": 120.0
            },
            {
                "pitch": 55,
                "velocity": 40,
                "duration": 0.0659,
                "tempo": 120.0
            },
            {
                "pitch": 55,
                "velocity": 40,
                "duration": 0.0682,
                "tempo": 120.0
            },
            {
                "pitch": 55,
                "velocity": 40,
                "duration": 0.0659,
                "tempo": 120.0
            },
            {
                "pitch": 55,
                "velocity": 40,
                "duration": 0.05,
                "tempo": 120.0
            },
            {
                "pitch": 62,
                "velocity": 40,
                "duration": 0.2364,
                "tempo": 120.0
            },
            {
                "pitch": 60,
                "velocity": 40,
                "duration": 0.25,
                "tempo": 120.0
            },
            {
                "pitch": 60,
                "velocity": 40,
                "duration": 0.2477,
                "tempo": 120.0
            },
            {
                "pitch": 60,
                "velocity": 40,
                "duration": 0.225,
                "tempo": 120.0
            },
            {
                "pitch": 55,
                "velocity": 40,
                "duration": 0.0659,
                "tempo": 120.0
            },
            {
                "pitch": 55,
                "velocity": 40,
                "duration": 0.0636,
                "tempo": 120.0
            },
            {
                "pitch": 55,
                "velocity": 40,
                "duration": 0.0636,
                "tempo": 120.0
            },
            {
                "pitch": 55,
                "velocity": 40,
                "duration": 0.0477,
                "tempo": 120.0
            },
            {
                "pitch": 62,
                "velocity": 40,
                "duration": 0.2341,
                "tempo": 120.0
            },
            {
                "pitch": 60,
                "velocity": 40,
                "duration": 0.25,
                "tempo": 120.0
            },
            {
                "pitch": 60,
                "velocity": 40,
                "duration": 0.2341,
                "tempo": 120.0
            },
            {
                "pitch": 60,
                "velocity": 40,
                "duration": 0.2432,
                "tempo": 120.0
            },
            {
                "pitch": 55,
                "velocity": 40,
                "duration": 0.0659,
                "tempo": 120.0
            },
            {
                "pitch": 55,
                "velocity": 40,
                "duration": 0.0636,
                "tempo": 120.0
            },
            {
                "pitch": 55,
                "velocity": 40,
                "duration": 0.0636,
                "tempo": 120.0
            },
            {
                "pitch": 55,
                "velocity": 40,
                "duration": 0.0477,
                "tempo": 120.0
            },
            {
                "pitch": 62,
                "velocity": 40,
                "duration": 0.25,
                "tempo": 120.0
            },
            {
                "pitch": 60,
                "velocity": 40,
                "duration": 0.0659,
                "tempo": 120.0
            }
        ],
        "Flute": [
            {
                "pitch": 55,
                "velocity": 64,
                "duration": 0.05,
                "tempo": 120.0
            },
            {
                "pitch": 55,
                "velocity": 64,
                "duration": 0.0682,
                "tempo": 120.0
            },
            {
                "pitch": 55,
                "velocity": 64,
                "duration": 0.0659,
                "tempo": 120.0
            },
            {
                "pitch": 55,
                "velocity": 64,
                "duration": 0.0682,
                "tempo": 120.0
            },
            {
                "pitch": 55,
                "velocity": 64,
                "duration": 0.0659,
                "tempo": 120.0
            },
            {
                "pitch": 55,
                "velocity": 64,
                "duration": 0.0682,
                "tempo": 120.0
            },
            {
                "pitch": 55,
                "velocity": 64,
                "duration": 0.0659,
                "tempo": 120.0
            },
            {
                "pitch": 55,
                "velocity": 64,
                "duration": 0.0682,
                "tempo": 120.0
            },
            {
                "pitch": 55,
                "velocity": 64,
                "duration": 0.0682,
                "tempo": 120.0
            },
            {
                "pitch": 55,
                "velocity": 64,
                "duration": 0.0705,
                "tempo": 120.0
            },
            {
                "pitch": 55,
                "velocity": 64,
                "duration": 0.0705,
                "tempo": 120.0
            },
            {
                "pitch": 55,
                "velocity": 64,
                "duration": 0.0682,
                "tempo": 120.0
            },
            {
                "pitch": 55,
                "velocity": 64,
                "duration": 0.0705,
                "tempo": 120.0
            },
            {
                "pitch": 55,
                "velocity": 64,
                "duration": 0.0705,
                "tempo": 120.0
            },
            {
                "pitch": 55,
                "velocity": 64,
                "duration": 0.0682,
                "tempo": 120.0
            },
            {
                "pitch": 55,
                "velocity": 64,
                "duration": 0.0682,
                "tempo": 120.0
            },
            {
                "pitch": 55,
                "velocity": 64,
                "duration": 0.0682,
                "tempo": 120.0
            },
            {
                "pitch": 55,
                "velocity": 64,
                "duration": 0.0659,
                "tempo": 120.0
            },
            {
                "pitch": 55,
                "velocity": 64,
                "duration": 0.0659,
                "tempo": 120.0
            },
            {
                "pitch": 55,
                "velocity": 64,
                "duration": 0.0682,
                "tempo": 120.0
            },
            {
                "pitch": 55,
                "velocity": 64,
                "duration": 0.0659,
                "tempo": 120.0
            },
            {
                "pitch": 55,
                "velocity": 64,
                "duration": 0.0682,
                "tempo": 120.0
            },
            {
                "pitch": 55,
                "velocity": 64,
                "duration": 0.0659,
                "tempo": 120.0
            },
            {
                "pitch": 55,
                "velocity": 64,
                "duration": 0.0659,
                "tempo": 120.0
            },
            {
                "pitch": 55,
                "velocity": 64,
                "duration": 0.0636,
                "tempo": 120.0
            },
            {
                "pitch": 55,
                "velocity": 64,
                "duration": 0.0659,
                "tempo": 120.0
            },
            {
                "pitch": 55,
                "velocity": 64,
                "duration": 0.0659,
                "tempo": 120.0
            },
            {
                "pitch": 55,
                "velocity": 64,
                "duration": 0.0636,
                "tempo": 120.0
            },
            {
                "pitch": 55,
                "velocity": 64,
                "duration": 0.0659,
                "tempo": 120.0
            },
            {
                "pitch": 55,
                "velocity": 64,
                "duration": 0.0659,
                "tempo": 120.0
            },
            {
                "pitch": 55,
                "velocity": 64,
                "duration": 0.0659,
                "tempo": 120.0
            },
            {
                "pitch": 55,
                "velocity": 64,
                "duration": 0.0636,
                "tempo": 120.0
            },
            {
                "pitch": 55,
                "velocity": 64,
                "duration": 0.0659,
                "tempo": 120.0
            },
            {
                "pitch": 55,
                "velocity": 64,
                "duration": 0.0659,
                "tempo": 120.0
            },
            {
                "pitch": 55,
                "velocity": 64,
                "duration": 0.0659,
                "tempo": 120.0
            },
            {
                "pitch": 55,
                "velocity": 64,
                "duration": 0.0636,
                "tempo": 120.0
            },
            {
                "pitch": 55,
                "velocity": 64,
                "duration": 0.0659,
                "tempo": 120.0
            },
            {
                "pitch": 55,
                "velocity": 64,
                "duration": 0.0682,
                "tempo": 120.0
            },
            {
                "pitch": 55,
                "velocity": 64,
                "duration": 0.0705,
                "tempo": 120.0
            },
            {
                "pitch": 55,
                "velocity": 64,
                "duration": 0.0705,
                "tempo": 120.0
            },
            {
                "pitch": 55,
                "velocity": 64,
                "duration": 0.0682,
                "tempo": 120.0
            },
            {
                "pitch": 55,
                "velocity": 64,
                "duration": 0.0705,
                "tempo": 120.0
            },
            {
                "pitch": 55,
                "velocity": 64,
                "duration": 0.0705,
                "tempo": 120.0
            },
            {
                "pitch": 55,
                "velocity": 64,
                "duration": 0.0682,
                "tempo": 120.0
            },
            {
                "pitch": 50,
                "velocity": 64,
                "duration": 2.9295,
                "tempo": 120.0
            },
            {
                "pitch": 45,
                "velocity": 64,
                "duration": 2.8955,
                "tempo": 120.0
            },
            {
                "pitch": 50,
                "velocity": 64,
                "duration": 1.9591,
                "tempo": 120.0
            },
            {
                "pitch": 50,
                "velocity": 64,
                "duration": 1.9636,
                "tempo": 120.0
            },
            {
                "pitch": 50,
                "velocity": 64,
                "duration": 2.9227,
                "tempo": 120.0
            },
            {
                "pitch": 51,
                "velocity": 64,
                "duration": 0.05,
                "tempo": 120.0
            },
            {
                "pitch": 53,
                "velocity": 64,
                "duration": 2.8545,
                "tempo": 120.0
            },
            {
                "pitch": 55,
                "velocity": 64,
                "duration": 0.0659,
                "tempo": 120.0
            },
            {
                "pitch": 55,
                "velocity": 64,
                "duration": 0.0659,
                "tempo": 120.0
            },
            {
                "pitch": 55,
                "velocity": 64,
                "duration": 0.0636,
                "tempo": 120.0
            },
            {
                "pitch": 55,
                "velocity": 64,
                "duration": 0.0659,
                "tempo": 120.0
            },
            {
                "pitch": 55,
                "velocity": 64,
                "duration": 0.0659,
                "tempo": 120.0
            },
            {
                "pitch": 55,
                "velocity": 64,
                "duration": 0.0659,
                "tempo": 120.0
            },
            {
                "pitch": 55,
                "velocity": 64,
                "duration": 0.0636,
                "tempo": 120.0
            },
            {
                "pitch": 55,
                "velocity": 64,
                "duration": 0.0659,
                "tempo": 120.0
            },
            {
                "pitch": 55,
                "velocity": 64,
                "duration": 0.0636,
                "tempo": 120.0
            },
            {
                "pitch": 55,
                "velocity": 64,
                "duration": 0.0636,
                "tempo": 120.0
            },
            {
                "pitch": 55,
                "velocity": 64,
                "duration": 0.0659,
                "tempo": 120.0
            },
            {
                "pitch": 55,
                "velocity": 64,
                "duration": 0.0636,
                "tempo": 120.0
            },
            {
                "pitch": 55,
                "velocity": 64,
                "duration": 0.0636,
                "tempo": 120.0
            },
            {
                "pitch": 55,
                "velocity": 64,
                "duration": 0.0636,
                "tempo": 120.0
            },
            {
                "pitch": 55,
                "velocity": 64,
                "duration": 0.0659,
                "tempo": 120.0
            },
            {
                "pitch": 55,
                "velocity": 64,
                "duration": 0.0682,
                "tempo": 120.0
            },
            {
                "pitch": 55,
                "velocity": 64,
                "duration": 0.0705,
                "tempo": 120.0
            },
            {
                "pitch": 55,
                "velocity": 64,
                "duration": 0.0727,
                "tempo": 120.0
            },
            {
                "pitch": 55,
                "velocity": 64,
                "duration": 0.0705,
                "tempo": 120.0
            },
            {
                "pitch": 55,
                "velocity": 64,
                "duration": 0.0705,
                "tempo": 120.0
            },
            {
                "pitch": 55,
                "velocity": 64,
                "duration": 0.0705,
                "tempo": 120.0
            },
            {
                "pitch": 55,
                "velocity": 64,
                "duration": 0.0705,
                "tempo": 120.0
            },
            {
                "pitch": 55,
                "velocity": 64,
                "duration": 0.0705,
                "tempo": 120.0
            },
            {
                "pitch": 55,
                "velocity": 64,
                "duration": 0.0659,
                "tempo": 120.0
            },
            {
                "pitch": 55,
                "velocity": 64,
                "duration": 0.0636,
                "tempo": 120.0
            },
            {
                "pitch": 55,
                "velocity": 64,
                "duration": 0.0659,
                "tempo": 120.0
            },
            {
                "pitch": 55,
                "velocity": 64,
                "duration": 0.0659,
                "tempo": 120.0
            },
            {
                "pitch": 55,
                "velocity": 64,
                "duration": 0.0659,
                "tempo": 120.0
            },
            {
                "pitch": 55,
                "velocity": 64,
                "duration": 0.0659,
                "tempo": 120.0
            },
            {
                "pitch": 55,
                "velocity": 64,
                "duration": 0.0659,
                "tempo": 120.0
            },
            {
                "pitch": 55,
                "velocity": 64,
                "duration": 0.0682,
                "tempo": 120.0
            },
            {
                "pitch": 55,
                "velocity": 64,
                "duration": 0.0659,
                "tempo": 120.0
            },
            {
                "pitch": 55,
                "velocity": 64,
                "duration": 0.0682,
                "tempo": 120.0
            },
            {
                "pitch": 55,
                "velocity": 64,
                "duration": 0.0659,
                "tempo": 120.0
            },
            {
                "pitch": 55,
                "velocity": 64,
                "duration": 0.0682,
                "tempo": 120.0
            },
            {
                "pitch": 55,
                "velocity": 64,
                "duration": 0.0659,
                "tempo": 120.0
            },
            {
                "pitch": 55,
                "velocity": 64,
                "duration": 0.0659,
                "tempo": 120.0
            },
            {
                "pitch": 55,
                "velocity": 64,
                "duration": 0.0682,
                "tempo": 120.0
            },
            {
                "pitch": 55,
                "velocity": 64,
                "duration": 0.0682,
                "tempo": 120.0
            },
            {
                "pitch": 55,
                "velocity": 64,
                "duration": 0.0682,
                "tempo": 120.0
            },
            {
                "pitch": 55,
                "velocity": 64,
                "duration": 0.0682,
                "tempo": 120.0
            },
            {
                "pitch": 55,
                "velocity": 64,
                "duration": 0.0682,
                "tempo": 120.0
            },
            {
                "pitch": 55,
                "velocity": 64,
                "duration": 0.0682,
                "tempo": 120.0
            },
            {
                "pitch": 55,
                "velocity": 64,
                "duration": 0.0682,
                "tempo": 120.0
            },
            {
                "pitch": 55,
                "velocity": 64,
                "duration": 0.0659,
                "tempo": 120.0
            },
            {
                "pitch": 55,
                "velocity": 64,
                "duration": 0.0659,
                "tempo": 120.0
            },
            {
                "pitch": 55,
                "velocity": 64,
                "duration": 0.0659,
                "tempo": 120.0
            },
            {
                "pitch": 55,
                "velocity": 64,
                "duration": 0.0659,
                "tempo": 120.0
            },
            {
                "pitch": 55,
                "velocity": 64,
                "duration": 0.0659,
                "tempo": 120.0
            },
            {
                "pitch": 55,
                "velocity": 64,
                "duration": 0.0659,
                "tempo": 120.0
            },
            {
                "pitch": 55,
                "velocity": 64,
                "duration": 0.0659,
                "tempo": 120.0
            },
            {
                "pitch": 55,
                "velocity": 64,
                "duration": 0.0659,
                "tempo": 120.0
            },
            {
                "pitch": 55,
                "velocity": 64,
                "duration": 0.0636,
                "tempo": 120.0
            },
            {
                "pitch": 55,
                "velocity": 64,
                "duration": 0.0636,
                "tempo": 120.0
            },
            {
                "pitch": 55,
                "velocity": 64,
                "duration": 0.0659,
                "tempo": 120.0
            },
            {
                "pitch": 55,
                "velocity": 64,
                "duration": 0.0636,
                "tempo": 120.0
            },
            {
                "pitch": 55,
                "velocity": 64,
                "duration": 0.0636,
                "tempo": 120.0
            },
            {
                "pitch": 55,
                "velocity": 64,
                "duration": 0.0636,
                "tempo": 120.0
            },
            {
                "pitch": 55,
                "velocity": 64,
                "duration": 0.0659,
                "tempo": 120.0
            },
            {
                "pitch": 55,
                "velocity": 64,
                "duration": 0.0659,
                "tempo": 120.0
            },
            {
                "pitch": 55,
                "velocity": 64,
                "duration": 0.0682,
                "tempo": 120.0
            },
            {
                "pitch": 55,
                "velocity": 64,
                "duration": 0.0659,
                "tempo": 120.0
            },
            {
                "pitch": 55,
                "velocity": 64,
                "duration": 0.0682,
                "tempo": 120.0
            },
            {
                "pitch": 55,
                "velocity": 64,
                "duration": 0.0659,
                "tempo": 120.0
            },
            {
                "pitch": 55,
                "velocity": 64,
                "duration": 0.0659,
                "tempo": 120.0
            },
            {
                "pitch": 55,
                "velocity": 64,
                "duration": 0.0682,
                "tempo": 120.0
            },
            {
                "pitch": 55,
                "velocity": 64,
                "duration": 0.0659,
                "tempo": 120.0
            },
            {
                "pitch": 55,
                "velocity": 64,
                "duration": 0.0682,
                "tempo": 120.0
            },
            {
                "pitch": 55,
                "velocity": 64,
                "duration": 0.0659,
                "tempo": 120.0
            },
            {
                "pitch": 55,
                "velocity": 64,
                "duration": 0.0682,
                "tempo": 120.0
            },
            {
                "pitch": 55,
                "velocity": 64,
                "duration": 0.0659,
                "tempo": 120.0
            },
            {
                "pitch": 55,
                "velocity": 64,
                "duration": 0.0682,
                "tempo": 120.0
            },
            {
                "pitch": 55,
                "velocity": 64,
                "duration": 0.0659,
                "tempo": 120.0
            },
            {
                "pitch": 55,
                "velocity": 64,
                "duration": 0.0659,
                "tempo": 120.0
            },
            {
                "pitch": 55,
                "velocity": 64,
                "duration": 0.0636,
                "tempo": 120.0
            },
            {
                "pitch": 55,
                "velocity": 64,
                "duration": 0.0636,
                "tempo": 120.0
            },
            {
                "pitch": 55,
                "velocity": 64,
                "duration": 0.0636,
                "tempo": 120.0
            },
            {
                "pitch": 55,
                "velocity": 64,
                "duration": 0.0659,
                "tempo": 120.0
            },
            {
                "pitch": 55,
                "velocity": 64,
                "duration": 0.0636,
                "tempo": 120.0
            },
            {
                "pitch": 55,
                "velocity": 64,
                "duration": 0.0636,
                "tempo": 120.0
            },
            {
                "pitch": 55,
                "velocity": 64,
                "duration": 0.0659,
                "tempo": 120.0
            },
            {
                "pitch": 55,
                "velocity": 64,
                "duration": 0.0659,
                "tempo": 120.0
            },
            {
                "pitch": 55,
                "velocity": 64,
                "duration": 0.0682,
                "tempo": 120.0
            },
            {
                "pitch": 55,
                "velocity": 64,
                "duration": 0.0659,
                "tempo": 120.0
            },
            {
                "pitch": 55,
                "velocity": 64,
                "duration": 0.0682,
                "tempo": 120.0
            },
            {
                "pitch": 55,
                "velocity": 64,
                "duration": 0.0659,
                "tempo": 120.0
            },
            {
                "pitch": 55,
                "velocity": 64,
                "duration": 0.0682,
                "tempo": 120.0
            },
            {
                "pitch": 55,
                "velocity": 64,
                "duration": 0.0659,
                "tempo": 120.0
            }
        ]
    }
}