{
    "track_id": "Out Run (FM) - 01 - Magical Sound Shower",
    "mood": "happy",
    "instruments": {
        "Oboe": [
            {
                "pitch": 0,
                "velocity": 80,
                "duration": 4.2114,
                "tempo": 120.0
            },
            {
                "pitch": 0,
                "velocity": 80,
                "duration": 2.1386,
                "tempo": 120.0
            },
            {
                "pitch": 0,
                "velocity": 80,
                "duration": 3.9227,
                "tempo": 120.0
            },
            {
                "pitch": 0,
                "velocity": 80,
                "duration": 2.1455,
                "tempo": 120.0
            },
            {
                "pitch": 0,
                "velocity": 80,
                "duration": 4.2227,
                "tempo": 120.0
            },
            {
                "pitch": 0,
                "velocity": 80,
                "duration": 2.1318,
                "tempo": 120.0
            },
            {
                "pitch": 0,
                "velocity": 80,
                "duration": 4.1841,
                "tempo": 120.0
            },
            {
                "pitch": 0,
                "velocity": 80,
                "duration": 2.1318,
                "tempo": 120.0
            },
            {
                "pitch": 62,
                "velocity": 80,
                "duration": 0.0341,
                "tempo": 120.0
            },
            {
                "pitch": 64,
                "velocity": 80,
                "duration": 0.0318,
                "tempo": 120.0
            },
            {
                "pitch": 67,
                "velocity": 80,
                "duration": 0.0341,
                "tempo": 120.0
            },
            {
                "pitch": 64,
                "velocity": 80,
                "duration": 0.0341,
                "tempo": 120.0
            },
            {
                "pitch": 67,
                "velocity": 80,
                "duration": 0.0318,
                "tempo": 120.0
            },
            {
                "pitch": 69,
                "velocity": 80,
                "duration": 0.0341,
                "tempo": 120.0
            },
            {
                "pitch": 67,
                "velocity": 80,
                "duration": 0.0364,
                "tempo": 120.0
            },
            {
                "pitch": 69,
                "velocity": 80,
                "duration": 0.0364,
                "tempo": 120.0
            },
            {
                "pitch": 72,
                "velocity": 80,
                "duration": 0.0364,
                "tempo": 120.0
            },
            {
                "pitch": 69,
                "velocity": 80,
                "duration": 0.0364,
                "tempo": 120.0
            },
            {
                "pitch": 72,
                "velocity": 80,
                "duration": 0.0364,
                "tempo": 120.0
            },
            {
                "pitch": 74,
                "velocity": 80,
                "duration": 0.0341,
                "tempo": 120.0
            },
            {
                "pitch": 72,
                "velocity": 80,
                "duration": 0.0341,
                "tempo": 120.0
            },
            {
                "pitch": 74,
                "velocity": 80,
                "duration": 0.0341,
                "tempo": 120.0
            },
            {
                "pitch": 76,
                "velocity": 80,
                "duration": 0.0318,
                "tempo": 120.0
            },
            {
                "pitch": 74,
                "velocity": 80,
                "duration": 0.0318,
                "tempo": 120.0
            },
            {
                "pitch": 76,
                "velocity": 80,
                "duration": 0.0341,
                "tempo": 120.0
            },
            {
                "pitch": 79,
                "velocity": 80,
                "duration": 0.0341,
                "tempo": 120.0
            },
            {
                "pitch": 81,
                "velocity": 80,
                "duration": 0.0682,
                "tempo": 120.0
            },
            {
                "pitch": 0,
                "velocity": 80,
                "duration": 0.1705,
                "tempo": 120.0
            },
            {
                "pitch": 86,
                "velocity": 80,
                "duration": 2.8705,
                "tempo": 120.0
            },
            {
                "pitch": 0,
                "velocity": 80,
                "duration": 0.3659,
                "tempo": 120.0
            },
            {
                "pitch": 0,
                "velocity": 80,
                "duration": 4.2182,
                "tempo": 120.0
            },
            {
                "pitch": 0,
                "velocity": 80,
                "duration": 2.1341,
                "tempo": 120.0
            },
            {
                "pitch": 76,
                "velocity": 80,
                "duration": 0.2659,
                "tempo": 120.0
            },
            {
                "pitch": 74,
                "velocity": 80,
                "duration": 0.2659,
                "tempo": 120.0
            },
            {
                "pitch": 79,
                "velocity": 80,
                "duration": 0.1659,
                "tempo": 120.0
            },
            {
                "pitch": 76,
                "velocity": 80,
                "duration": 0.2659,
                "tempo": 120.0
            },
            {
                "pitch": 74,
                "velocity": 80,
                "duration": 0.2682,
                "tempo": 120.0
            },
            {
                "pitch": 72,
                "velocity": 80,
                "duration": 0.1659,
                "tempo": 120.0
            },
            {
                "pitch": 74,
                "velocity": 80,
                "duration": 0.2659,
                "tempo": 120.0
            },
            {
                "pitch": 71,
                "velocity": 80,
                "duration": 0.2659,
                "tempo": 120.0
            },
            {
                "pitch": 67,
                "velocity": 80,
                "duration": 0.5659,
                "tempo": 120.0
            },
            {
                "pitch": 0,
                "velocity": 80,
                "duration": 0.3659,
                "tempo": 120.0
            },
            {
                "pitch": 72,
                "velocity": 80,
                "duration": 0.2682,
                "tempo": 120.0
            },
            {
                "pitch": 71,
                "velocity": 80,
                "duration": 0.2682,
                "tempo": 120.0
            },
            {
                "pitch": 74,
                "velocity": 80,
                "duration": 0.1682,
                "tempo": 120.0
            },
            {
                "pitch": 72,
                "velocity": 80,
                "duration": 0.2682,
                "tempo": 120.0
            },
            {
                "pitch": 71,
                "velocity": 80,
                "duration": 0.2682,
                "tempo": 120.0
            },
            {
                "pitch": 64,
                "velocity": 80,
                "duration": 0.1682,
                "tempo": 120.0
            },
            {
                "pitch": 69,
                "velocity": 80,
                "duration": 0.2682,
                "tempo": 120.0
            },
            {
                "pitch": 71,
                "velocity": 80,
                "duration": 0.0682,
                "tempo": 120.0
            },
            {
                "pitch": 69,
                "velocity": 80,
                "duration": 0.7705,
                "tempo": 120.0
            },
            {
                "pitch": 0,
                "velocity": 80,
                "duration": 0.3682,
                "tempo": 120.0
            },
            {
                "pitch": 76,
                "velocity": 80,
                "duration": 0.2682,
                "tempo": 120.0
            },
            {
                "pitch": 74,
                "velocity": 80,
                "duration": 0.2682,
                "tempo": 120.0
            },
            {
                "pitch": 79,
                "velocity": 80,
                "duration": 0.1682,
                "tempo": 120.0
            },
            {
                "pitch": 76,
                "velocity": 80,
                "duration": 0.2682,
                "tempo": 120.0
            },
            {
                "pitch": 74,
                "velocity": 80,
                "duration": 0.2682,
                "tempo": 120.0
            },
            {
                "pitch": 72,
                "velocity": 80,
                "duration": 0.1659,
                "tempo": 120.0
            },
            {
                "pitch": 74,
                "velocity": 80,
                "duration": 0.2659,
                "tempo": 120.0
            },
            {
                "pitch": 71,
                "velocity": 80,
                "duration": 0.2659,
                "tempo": 120.0
            },
            {
                "pitch": 67,
                "velocity": 80,
                "duration": 0.5659,
                "tempo": 120.0
            },
            {
                "pitch": 0,
                "velocity": 80,
                "duration": 0.3682,
                "tempo": 120.0
            },
            {
                "pitch": 72,
                "velocity": 80,
                "duration": 0.2659,
                "tempo": 120.0
            },
            {
                "pitch": 71,
                "velocity": 80,
                "duration": 0.2659,
                "tempo": 120.0
            },
            {
                "pitch": 74,
                "velocity": 80,
                "duration": 0.1659,
                "tempo": 120.0
            },
            {
                "pitch": 72,
                "velocity": 80,
                "duration": 0.2659,
                "tempo": 120.0
            },
            {
                "pitch": 71,
                "velocity": 80,
                "duration": 0.2659,
                "tempo": 120.0
            },
            {
                "pitch": 64,
                "velocity": 80,
                "duration": 0.0659,
                "tempo": 120.0
            },
            {
                "pitch": 67,
                "velocity": 80,
                "duration": 0.0659,
                "tempo": 120.0
            },
            {
                "pitch": 71,
                "velocity": 80,
                "duration": 0.2682,
                "tempo": 120.0
            },
            {
                "pitch": 69,
                "velocity": 80,
                "duration": 0.9659,
                "tempo": 120.0
            },
            {
                "pitch": 67,
                "velocity": 80,
                "duration": 0.2659,
                "tempo": 120.0
            },
            {
                "pitch": 65,
                "velocity": 80,
                "duration": 0.4682,
                "tempo": 120.0
            },
            {
                "pitch": 67,
                "velocity": 80,
                "duration": 0.1682,
                "tempo": 120.0
            },
            {
                "pitch": 69,
                "velocity": 80,
                "duration": 0.0659,
                "tempo": 120.0
            },
            {
                "pitch": 67,
                "velocity": 80,
                "duration": 0.3682,
                "tempo": 120.0
            },
            {
                "pitch": 65,
                "velocity": 80,
                "duration": 0.1705,
                "tempo": 120.0
            },
            {
                "pitch": 64,
                "velocity": 80,
                "duration": 0.1705,
                "tempo": 120.0
            },
            {
                "pitch": 62,
                "velocity": 80,
                "duration": 0.2614,
                "tempo": 120.0
            },
            {
                "pitch": 64,
                "velocity": 80,
                "duration": 0.0659,
                "tempo": 120.0
            },
            {
                "pitch": 60,
                "velocity": 80,
                "duration": 0.7568,
                "tempo": 120.0
            },
            {
                "pitch": 0,
                "velocity": 80,
                "duration": 0.3773,
                "tempo": 120.0
            },
            {
                "pitch": 65,
                "velocity": 80,
                "duration": 0.4659,
                "tempo": 120.0
            },
            {
                "pitch": 67,
                "velocity": 80,
                "duration": 0.1659,
                "tempo": 120.0
            },
            {
                "pitch": 69,
                "velocity": 80,
                "duration": 0.0659,
                "tempo": 120.0
            },
            {
                "pitch": 67,
                "velocity": 80,
                "duration": 0.3659,
                "tempo": 120.0
            },
            {
                "pitch": 64,
                "velocity": 80,
                "duration": 0.1705,
                "tempo": 120.0
            },
            {
                "pitch": 72,
                "velocity": 80,
                "duration": 0.1705,
                "tempo": 120.0
            },
            {
                "pitch": 71,
                "velocity": 80,
                "duration": 0.2614,
                "tempo": 120.0
            },
            {
                "pitch": 69,
                "velocity": 80,
                "duration": 0.9636,
                "tempo": 120.0
            },
            {
                "pitch": 67,
                "velocity": 80,
                "duration": 0.2795,
                "tempo": 120.0
            },
            {
                "pitch": 65,
                "velocity": 80,
                "duration": 0.4614,
                "tempo": 120.0
            },
            {
                "pitch": 67,
                "velocity": 80,
                "duration": 0.1682,
                "tempo": 120.0
            },
            {
                "pitch": 69,
                "velocity": 80,
                "duration": 0.0682,
                "tempo": 120.0
            },
            {
                "pitch": 67,
                "velocity": 80,
                "duration": 0.3773,
                "tempo": 120.0
            },
            {
                "pitch": 65,
                "velocity": 80,
                "duration": 0.1682,
                "tempo": 120.0
            },
            {
                "pitch": 64,
                "velocity": 80,
                "duration": 0.1659,
                "tempo": 120.0
            },
            {
                "pitch": 62,
                "velocity": 80,
                "duration": 0.2614,
                "tempo": 120.0
            },
            {
                "pitch": 64,
                "velocity": 80,
                "duration": 0.0659,
                "tempo": 120.0
            },
            {
                "pitch": 60,
                "velocity": 80,
                "duration": 0.8636,
                "tempo": 120.0
            },
            {
                "pitch": 64,
                "velocity": 80,
                "duration": 0.275,
                "tempo": 120.0
            },
            {
                "pitch": 65,
                "velocity": 80,
                "duration": 0.4682,
                "tempo": 120.0
            },
            {
                "pitch": 67,
                "velocity": 80,
                "duration": 0.1682,
                "tempo": 120.0
            },
            {
                "pitch": 69,
                "velocity": 80,
                "duration": 0.0682,
                "tempo": 120.0
            },
            {
                "pitch": 67,
                "velocity": 80,
                "duration": 0.375,
                "tempo": 120.0
            },
            {
                "pitch": 64,
                "velocity": 80,
                "duration": 0.1614,
                "tempo": 120.0
            },
            {
                "pitch": 72,
                "velocity": 80,
                "duration": 0.1636,
                "tempo": 120.0
            },
            {
                "pitch": 71,
                "velocity": 80,
                "duration": 0.2727,
                "tempo": 120.0
            },
            {
                "pitch": 69,
                "velocity": 80,
                "duration": 0.8591,
                "tempo": 120.0
            },
            {
                "pitch": 0,
                "velocity": 80,
                "duration": 0.3682,
                "tempo": 120.0
            },
            {
                "pitch": 0,
                "velocity": 80,
                "duration": 3.175,
                "tempo": 120.0
            },
            {
                "pitch": 0,
                "velocity": 80,
                "duration": 4.2205,
                "tempo": 120.0
            },
            {
                "pitch": 0,
                "velocity": 80,
                "duration": 2.1386,
                "tempo": 120.0
            },
            {
                "pitch": 76,
                "velocity": 80,
                "duration": 0.2682,
                "tempo": 120.0
            },
            {
                "pitch": 74,
                "velocity": 80,
                "duration": 0.2659,
                "tempo": 120.0
            },
            {
                "pitch": 79,
                "velocity": 80,
                "duration": 0.1659,
                "tempo": 120.0
            },
            {
                "pitch": 76,
                "velocity": 80,
                "duration": 0.2682,
                "tempo": 120.0
            },
            {
                "pitch": 74,
                "velocity": 80,
                "duration": 0.2682,
                "tempo": 120.0
            },
            {
                "pitch": 72,
                "velocity": 80,
                "duration": 0.1659,
                "tempo": 120.0
            },
            {
                "pitch": 74,
                "velocity": 80,
                "duration": 0.2659,
                "tempo": 120.0
            },
            {
                "pitch": 71,
                "velocity": 80,
                "duration": 0.2682,
                "tempo": 120.0
            },
            {
                "pitch": 67,
                "velocity": 80,
                "duration": 0.5682,
                "tempo": 120.0
            },
            {
                "pitch": 0,
                "velocity": 80,
                "duration": 0.3705,
                "tempo": 120.0
            },
            {
                "pitch": 72,
                "velocity": 80,
                "duration": 0.2682,
                "tempo": 120.0
            },
            {
                "pitch": 71,
                "velocity": 80,
                "duration": 0.2659,
                "tempo": 120.0
            },
            {
                "pitch": 74,
                "velocity": 80,
                "duration": 0.1659,
                "tempo": 120.0
            },
            {
                "pitch": 72,
                "velocity": 80,
                "duration": 0.2682,
                "tempo": 120.0
            },
            {
                "pitch": 71,
                "velocity": 80,
                "duration": 0.2659,
                "tempo": 120.0
            },
            {
                "pitch": 64,
                "velocity": 80,
                "duration": 0.1659,
                "tempo": 120.0
            },
            {
                "pitch": 69,
                "velocity": 80,
                "duration": 0.2682,
                "tempo": 120.0
            },
            {
                "pitch": 71,
                "velocity": 80,
                "duration": 0.0659,
                "tempo": 120.0
            },
            {
                "pitch": 69,
                "velocity": 80,
                "duration": 0.7705,
                "tempo": 120.0
            },
            {
                "pitch": 0,
                "velocity": 80,
                "duration": 0.3705,
                "tempo": 120.0
            },
            {
                "pitch": 76,
                "velocity": 80,
                "duration": 0.2682,
                "tempo": 120.0
            },
            {
                "pitch": 74,
                "velocity": 80,
                "duration": 0.2682,
                "tempo": 120.0
            },
            {
                "pitch": 79,
                "velocity": 80,
                "duration": 0.1682,
                "tempo": 120.0
            },
            {
                "pitch": 76,
                "velocity": 80,
                "duration": 0.2682,
                "tempo": 120.0
            },
            {
                "pitch": 74,
                "velocity": 80,
                "duration": 0.2659,
                "tempo": 120.0
            },
            {
                "pitch": 72,
                "velocity": 80,
                "duration": 0.1659,
                "tempo": 120.0
            },
            {
                "pitch": 74,
                "velocity": 80,
                "duration": 0.2682,
                "tempo": 120.0
            },
            {
                "pitch": 71,
                "velocity": 80,
                "duration": 0.2659,
                "tempo": 120.0
            },
            {
                "pitch": 67,
                "velocity": 80,
                "duration": 0.5705,
                "tempo": 120.0
            },
            {
                "pitch": 0,
                "velocity": 80,
                "duration": 0.3705,
                "tempo": 120.0
            },
            {
                "pitch": 72,
                "velocity": 80,
                "duration": 0.2682,
                "tempo": 120.0
            },
            {
                "pitch": 71,
                "velocity": 80,
                "duration": 0.2682,
                "tempo": 120.0
            },
            {
                "pitch": 74,
                "velocity": 80,
                "duration": 0.1682,
                "tempo": 120.0
            },
            {
                "pitch": 72,
                "velocity": 80,
                "duration": 0.2659,
                "tempo": 120.0
            },
            {
                "pitch": 71,
                "velocity": 80,
                "duration": 0.2659,
                "tempo": 120.0
            },
            {
                "pitch": 64,
                "velocity": 80,
                "duration": 0.0682,
                "tempo": 120.0
            },
            {
                "pitch": 67,
                "velocity": 80,
                "duration": 0.0659,
                "tempo": 120.0
            },
            {
                "pitch": 71,
                "velocity": 80,
                "duration": 0.2682,
                "tempo": 120.0
            },
            {
                "pitch": 69,
                "velocity": 80,
                "duration": 0.9682,
                "tempo": 120.0
            },
            {
                "pitch": 67,
                "velocity": 80,
                "duration": 0.2659,
                "tempo": 120.0
            },
            {
                "pitch": 65,
                "velocity": 80,
                "duration": 0.4705,
                "tempo": 120.0
            },
            {
                "pitch": 67,
                "velocity": 80,
                "duration": 0.1682,
                "tempo": 120.0
            },
            {
                "pitch": 69,
                "velocity": 80,
                "duration": 0.0682,
                "tempo": 120.0
            },
            {
                "pitch": 67,
                "velocity": 80,
                "duration": 0.3682,
                "tempo": 120.0
            },
            {
                "pitch": 65,
                "velocity": 80,
                "duration": 0.1705,
                "tempo": 120.0
            },
            {
                "pitch": 64,
                "velocity": 80,
                "duration": 0.1705,
                "tempo": 120.0
            },
            {
                "pitch": 62,
                "velocity": 80,
                "duration": 0.2614,
                "tempo": 120.0
            },
            {
                "pitch": 64,
                "velocity": 80,
                "duration": 0.0659,
                "tempo": 120.0
            },
            {
                "pitch": 60,
                "velocity": 80,
                "duration": 0.7568,
                "tempo": 120.0
            },
            {
                "pitch": 0,
                "velocity": 80,
                "duration": 0.3864,
                "tempo": 120.0
            },
            {
                "pitch": 65,
                "velocity": 80,
                "duration": 0.4591,
                "tempo": 120.0
            },
            {
                "pitch": 67,
                "velocity": 80,
                "duration": 0.1659,
                "tempo": 120.0
            },
            {
                "pitch": 69,
                "velocity": 80,
                "duration": 0.0682,
                "tempo": 120.0
            },
            {
                "pitch": 67,
                "velocity": 80,
                "duration": 0.3705,
                "tempo": 120.0
            },
            {
                "pitch": 64,
                "velocity": 80,
                "duration": 0.1705,
                "tempo": 120.0
            },
            {
                "pitch": 72,
                "velocity": 80,
                "duration": 0.1705,
                "tempo": 120.0
            },
            {
                "pitch": 71,
                "velocity": 80,
                "duration": 0.2614,
                "tempo": 120.0
            },
            {
                "pitch": 69,
                "velocity": 80,
                "duration": 0.9659,
                "tempo": 120.0
            },
            {
                "pitch": 67,
                "velocity": 80,
                "duration": 0.2795,
                "tempo": 120.0
            },
            {
                "pitch": 65,
                "velocity": 80,
                "duration": 0.4614,
                "tempo": 120.0
            },
            {
                "pitch": 67,
                "velocity": 80,
                "duration": 0.1682,
                "tempo": 120.0
            },
            {
                "pitch": 69,
                "velocity": 80,
                "duration": 0.0682,
                "tempo": 120.0
            },
            {
                "pitch": 67,
                "velocity": 80,
                "duration": 0.3705,
                "tempo": 120.0
            },
            {
                "pitch": 65,
                "velocity": 80,
                "duration": 0.1659,
                "tempo": 120.0
            },
            {
                "pitch": 64,
                "velocity": 80,
                "duration": 0.1659,
                "tempo": 120.0
            },
            {
                "pitch": 62,
                "velocity": 80,
                "duration": 0.2682,
                "tempo": 120.0
            },
            {
                "pitch": 64,
                "velocity": 80,
                "duration": 0.0659,
                "tempo": 120.0
            },
            {
                "pitch": 60,
                "velocity": 80,
                "duration": 0.8659,
                "tempo": 120.0
            },
            {
                "pitch": 64,
                "velocity": 80,
                "duration": 0.2795,
                "tempo": 120.0
            },
            {
                "pitch": 65,
                "velocity": 80,
                "duration": 0.4614,
                "tempo": 120.0
            },
            {
                "pitch": 67,
                "velocity": 80,
                "duration": 0.1682,
                "tempo": 120.0
            },
            {
                "pitch": 69,
                "velocity": 80,
                "duration": 0.0682,
                "tempo": 120.0
            },
            {
                "pitch": 67,
                "velocity": 80,
                "duration": 0.3682,
                "tempo": 120.0
            },
            {
                "pitch": 64,
                "velocity": 80,
                "duration": 0.1659,
                "tempo": 120.0
            },
            {
                "pitch": 72,
                "velocity": 80,
                "duration": 0.1659,
                "tempo": 120.0
            },
            {
                "pitch": 71,
                "velocity": 80,
                "duration": 0.2614,
                "tempo": 120.0
            },
            {
                "pitch": 69,
                "velocity": 80,
                "duration": 0.8795,
                "tempo": 120.0
            },
            {
                "pitch": 0,
                "velocity": 80,
                "duration": 0.3705,
                "tempo": 120.0
            },
            {
                "pitch": 0,
                "velocity": 80,
                "duration": 3.1773,
                "tempo": 120.0
            },
            {
                "pitch": 0,
                "velocity": 80,
                "duration": 0.0636,
                "tempo": 120.0
            },
            {
                "pitch": 57,
                "velocity": 80,
                "duration": 0.0659,
                "tempo": 120.0
            },
            {
                "pitch": 0,
                "velocity": 80,
                "duration": 0.0659,
                "tempo": 120.0
            },
            {
                "pitch": 60,
                "velocity": 80,
                "duration": 0.0614,
                "tempo": 120.0
            },
            {
                "pitch": 0,
                "velocity": 80,
                "duration": 0.0614,
                "tempo": 120.0
            },
            {
                "pitch": 62,
                "velocity": 80,
                "duration": 0.0614,
                "tempo": 120.0
            },
            {
                "pitch": 0,
                "velocity": 80,
                "duration": 0.0614,
                "tempo": 120.0
            },
            {
                "pitch": 64,
                "velocity": 80,
                "duration": 0.0659,
                "tempo": 120.0
            },
            {
                "pitch": 0,
                "velocity": 80,
                "duration": 0.0682,
                "tempo": 120.0
            },
            {
                "pitch": 62,
                "velocity": 80,
                "duration": 0.0659,
                "tempo": 120.0
            },
            {
                "pitch": 0,
                "velocity": 80,
                "duration": 0.0659,
                "tempo": 120.0
            },
            {
                "pitch": 64,
                "velocity": 80,
                "duration": 0.0636,
                "tempo": 120.0
            },
            {
                "pitch": 0,
                "velocity": 80,
                "duration": 0.0636,
                "tempo": 120.0
            },
            {
                "pitch": 67,
                "velocity": 80,
                "duration": 0.0636,
                "tempo": 120.0
            },
            {
                "pitch": 0,
                "velocity": 80,
                "duration": 0.0636,
                "tempo": 120.0
            },
            {
                "pitch": 69,
                "velocity": 80,
                "duration": 0.0591,
                "tempo": 120.0
            },
            {
                "pitch": 0,
                "velocity": 80,
                "duration": 0.0591,
                "tempo": 120.0
            },
            {
                "pitch": 69,
                "velocity": 80,
                "duration": 0.0614,
                "tempo": 120.0
            },
            {
                "pitch": 0,
                "velocity": 80,
                "duration": 0.0614,
                "tempo": 120.0
            },
            {
                "pitch": 72,
                "velocity": 80,
                "duration": 0.0682,
                "tempo": 120.0
            },
            {
                "pitch": 0,
                "velocity": 80,
                "duration": 0.0659,
                "tempo": 120.0
            },
            {
                "pitch": 74,
                "velocity": 80,
                "duration": 0.0659,
                "tempo": 120.0
            },
            {
                "pitch": 0,
                "velocity": 80,
                "duration": 0.0682,
                "tempo": 120.0
            },
            {
                "pitch": 76,
                "velocity": 80,
                "duration": 0.0682,
                "tempo": 120.0
            },
            {
                "pitch": 0,
                "velocity": 80,
                "duration": 0.0682,
                "tempo": 120.0
            },
            {
                "pitch": 79,
                "velocity": 80,
                "duration": 0.0682,
                "tempo": 120.0
            },
            {
                "pitch": 0,
                "velocity": 80,
                "duration": 0.0659,
                "tempo": 120.0
            },
            {
                "pitch": 80,
                "velocity": 80,
                "duration": 0.0636,
                "tempo": 120.0
            },
            {
                "pitch": 0,
                "velocity": 80,
                "duration": 0.0659,
                "tempo": 120.0
            },
            {
                "pitch": 81,
                "velocity": 80,
                "duration": 1.4773,
                "tempo": 120.0
            },
            {
                "pitch": 0,
                "velocity": 80,
                "duration": 0.3705,
                "tempo": 120.0
            },
            {
                "pitch": 0,
                "velocity": 80,
                "duration": 0.0682,
                "tempo": 120.0
            },
            {
                "pitch": 84,
                "velocity": 80,
                "duration": 0.0682,
                "tempo": 120.0
            },
            {
                "pitch": 0,
                "velocity": 80,
                "duration": 0.0682,
                "tempo": 120.0
            },
            {
                "pitch": 84,
                "velocity": 80,
                "duration": 0.075,
                "tempo": 120.0
            },
            {
                "pitch": 0,
                "velocity": 80,
                "duration": 0.2932,
                "tempo": 120.0
            },
            {
                "pitch": 86,
                "velocity": 80,
                "duration": 0.0705,
                "tempo": 120.0
            },
            {
                "pitch": 0,
                "velocity": 80,
                "duration": 0.0682,
                "tempo": 120.0
            },
            {
                "pitch": 86,
                "velocity": 80,
                "duration": 0.0682,
                "tempo": 120.0
            },
            {
                "pitch": 0,
                "velocity": 80,
                "duration": 0.7045,
                "tempo": 120.0
            },
            {
                "pitch": 86,
                "velocity": 80,
                "duration": 0.0682,
                "tempo": 120.0
            },
            {
                "pitch": 0,
                "velocity": 80,
                "duration": 0.0659,
                "tempo": 120.0
            },
            {
                "pitch": 86,
                "velocity": 80,
                "duration": 0.0682,
                "tempo": 120.0
            },
            {
                "pitch": 0,
                "velocity": 80,
                "duration": 0.2818,
                "tempo": 120.0
            },
            {
                "pitch": 88,
                "velocity": 80,
                "duration": 0.0682,
                "tempo": 120.0
            },
            {
                "pitch": 0,
                "velocity": 80,
                "duration": 0.0659,
                "tempo": 120.0
            },
            {
                "pitch": 88,
                "velocity": 80,
                "duration": 0.0659,
                "tempo": 120.0
            },
            {
                "pitch": 0,
                "velocity": 80,
                "duration": 0.6568,
                "tempo": 120.0
            },
            {
                "pitch": 84,
                "velocity": 80,
                "duration": 0.0659,
                "tempo": 120.0
            },
            {
                "pitch": 0,
                "velocity": 80,
                "duration": 0.0659,
                "tempo": 120.0
            },
            {
                "pitch": 84,
                "velocity": 80,
                "duration": 0.0659,
                "tempo": 120.0
            },
            {
                "pitch": 0,
                "velocity": 80,
                "duration": 0.2818,
                "tempo": 120.0
            },
            {
                "pitch": 86,
                "velocity": 80,
                "duration": 0.0682,
                "tempo": 120.0
            },
            {
                "pitch": 0,
                "velocity": 80,
                "duration": 0.0636,
                "tempo": 120.0
            },
            {
                "pitch": 86,
                "velocity": 80,
                "duration": 0.0636,
                "tempo": 120.0
            },
            {
                "pitch": 0,
                "velocity": 80,
                "duration": 0.6682,
                "tempo": 120.0
            },
            {
                "pitch": 86,
                "velocity": 80,
                "duration": 0.0659,
                "tempo": 120.0
            },
            {
                "pitch": 0,
                "velocity": 80,
                "duration": 0.0659,
                "tempo": 120.0
            },
            {
                "pitch": 86,
                "velocity": 80,
                "duration": 0.0659,
                "tempo": 120.0
            },
            {
                "pitch": 0,
                "velocity": 80,
                "duration": 0.2818,
                "tempo": 120.0
            },
            {
                "pitch": 88,
                "velocity": 80,
                "duration": 0.0705,
                "tempo": 120.0
            },
            {
                "pitch": 0,
                "velocity": 80,
                "duration": 0.0682,
                "tempo": 120.0
            },
            {
                "pitch": 88,
                "velocity": 80,
                "duration": 0.0682,
                "tempo": 120.0
            },
            {
                "pitch": 0,
                "velocity": 80,
                "duration": 0.2659,
                "tempo": 120.0
            },
            {
                "pitch": 86,
                "velocity": 80,
                "duration": 1.8705,
                "tempo": 120.0
            },
            {
                "pitch": 0,
                "velocity": 80,
                "duration": 1.5727,
                "tempo": 120.0
            },
            {
                "pitch": 67,
                "velocity": 80,
                "duration": 0.0341,
                "tempo": 120.0
            },
            {
                "pitch": 68,
                "velocity": 80,
                "duration": 0.0341,
                "tempo": 120.0
            },
            {
                "pitch": 69,
                "velocity": 80,
                "duration": 0.0341,
                "tempo": 120.0
            },
            {
                "pitch": 69,
                "velocity": 80,
                "duration": 0.0341,
                "tempo": 120.0
            },
            {
                "pitch": 69,
                "velocity": 80,
                "duration": 0.0341,
                "tempo": 120.0
            },
            {
                "pitch": 69,
                "velocity": 80,
                "duration": 0.0341,
                "tempo": 120.0
            },
            {
                "pitch": 69,
                "velocity": 80,
                "duration": 0.0318,
                "tempo": 120.0
            },
            {
                "pitch": 69,
                "velocity": 80,
                "duration": 0.0341,
                "tempo": 120.0
            },
            {
                "pitch": 69,
                "velocity": 80,
                "duration": 0.0341,
                "tempo": 120.0
            },
            {
                "pitch": 69,
                "velocity": 80,
                "duration": 0.0318,
                "tempo": 120.0
            },
            {
                "pitch": 69,
                "velocity": 80,
                "duration": 0.0341,
                "tempo": 120.0
            },
            {
                "pitch": 69,
                "velocity": 80,
                "duration": 0.0341,
                "tempo": 120.0
            },
            {
                "pitch": 69,
                "velocity": 80,
                "duration": 0.0341,
                "tempo": 120.0
            },
            {
                "pitch": 69,
                "velocity": 80,
                "duration": 0.0341,
                "tempo": 120.0
            },
            {
                "pitch": 69,
                "velocity": 80,
                "duration": 0.0341,
                "tempo": 120.0
            },
            {
                "pitch": 69,
                "velocity": 80,
                "duration": 0.0341,
                "tempo": 120.0
            },
            {
                "pitch": 69,
                "velocity": 80,
                "duration": 0.0341,
                "tempo": 120.0
            },
            {
                "pitch": 69,
                "velocity": 80,
                "duration": 0.0341,
                "tempo": 120.0
            },
            {
                "pitch": 69,
                "velocity": 80,
                "duration": 0.0318,
                "tempo": 120.0
            },
            {
                "pitch": 71,
                "velocity": 80,
                "duration": 0.0659,
                "tempo": 120.0
            },
            {
                "pitch": 69,
                "velocity": 80,
                "duration": 0.0659,
                "tempo": 120.0
            },
            {
                "pitch": 72,
                "velocity": 80,
                "duration": 0.3682,
                "tempo": 120.0
            },
            {
                "pitch": 71,
                "velocity": 80,
                "duration": 0.2682,
                "tempo": 120.0
            },
            {
                "pitch": 69,
                "velocity": 80,
                "duration": 0.5773,
                "tempo": 120.0
            },
            {
                "pitch": 0,
                "velocity": 80,
                "duration": 0.1636,
                "tempo": 120.0
            },
            {
                "pitch": 68,
                "velocity": 80,
                "duration": 0.0318,
                "tempo": 120.0
            },
            {
                "pitch": 67,
                "velocity": 80,
                "duration": 0.0318,
                "tempo": 120.0
            },
            {
                "pitch": 69,
                "velocity": 80,
                "duration": 0.0341,
                "tempo": 120.0
            },
            {
                "pitch": 69,
                "velocity": 80,
                "duration": 0.0318,
                "tempo": 120.0
            },
            {
                "pitch": 69,
                "velocity": 80,
                "duration": 0.0341,
                "tempo": 120.0
            },
            {
                "pitch": 69,
                "velocity": 80,
                "duration": 0.0341,
                "tempo": 120.0
            },
            {
                "pitch": 69,
                "velocity": 80,
                "duration": 0.0318,
                "tempo": 120.0
            },
            {
                "pitch": 69,
                "velocity": 80,
                "duration": 0.0341,
                "tempo": 120.0
            },
            {
                "pitch": 69,
                "velocity": 80,
                "duration": 0.0341,
                "tempo": 120.0
            },
            {
                "pitch": 0,
                "velocity": 80,
                "duration": 0.1682,
                "tempo": 120.0
            },
            {
                "pitch": 68,
                "velocity": 80,
                "duration": 0.0341,
                "tempo": 120.0
            },
            {
                "pitch": 67,
                "velocity": 80,
                "duration": 0.0341,
                "tempo": 120.0
            },
            {
                "pitch": 69,
                "velocity": 80,
                "duration": 0.0341,
                "tempo": 120.0
            },
            {
                "pitch": 69,
                "velocity": 80,
                "duration": 0.0341,
                "tempo": 120.0
            },
            {
                "pitch": 69,
                "velocity": 80,
                "duration": 0.0341,
                "tempo": 120.0
            },
            {
                "pitch": 69,
                "velocity": 80,
                "duration": 0.0341,
                "tempo": 120.0
            },
            {
                "pitch": 69,
                "velocity": 80,
                "duration": 0.0341,
                "tempo": 120.0
            },
            {
                "pitch": 69,
                "velocity": 80,
                "duration": 0.0341,
                "tempo": 120.0
            },
            {
                "pitch": 69,
                "velocity": 80,
                "duration": 0.0341,
                "tempo": 120.0
            },
            {
                "pitch": 69,
                "velocity": 80,
                "duration": 0.0341,
                "tempo": 120.0
            },
            {
                "pitch": 69,
                "velocity": 80,
                "duration": 0.0318,
                "tempo": 120.0
            },
            {
                "pitch": 69,
                "velocity": 80,
                "duration": 0.0318,
                "tempo": 120.0
            },
            {
                "pitch": 69,
                "velocity": 80,
                "duration": 0.0341,
                "tempo": 120.0
            },
            {
                "pitch": 69,
                "velocity": 80,
                "duration": 0.0341,
                "tempo": 120.0
            },
            {
                "pitch": 69,
                "velocity": 80,
                "duration": 0.0341,
                "tempo": 120.0
            },
            {
                "pitch": 72,
                "velocity": 80,
                "duration": 0.2682,
                "tempo": 120.0
            },
            {
                "pitch": 71,
                "velocity": 80,
                "duration": 0.2682,
                "tempo": 120.0
            },
            {
                "pitch": 69,
                "velocity": 80,
                "duration": 0.1682,
                "tempo": 120.0
            },
            {
                "pitch": 0,
                "velocity": 80,
                "duration": 0.0682,
                "tempo": 120.0
            },
            {
                "pitch": 74,
                "velocity": 80,
                "duration": 0.0682,
                "tempo": 120.0
            },
            {
                "pitch": 0,
                "velocity": 80,
                "duration": 0.0682,
                "tempo": 120.0
            },
            {
                "pitch": 74,
                "velocity": 80,
                "duration": 0.0682,
                "tempo": 120.0
            },
            {
                "pitch": 0,
                "velocity": 80,
                "duration": 0.0636,
                "tempo": 120.0
            },
            {
                "pitch": 74,
                "velocity": 80,
                "duration": 0.0636,
                "tempo": 120.0
            },
            {
                "pitch": 75,
                "velocity": 80,
                "duration": 0.0659,
                "tempo": 120.0
            },
            {
                "pitch": 76,
                "velocity": 80,
                "duration": 0.0659,
                "tempo": 120.0
            },
            {
                "pitch": 79,
                "velocity": 80,
                "duration": 0.1659,
                "tempo": 120.0
            },
            {
                "pitch": 69,
                "velocity": 80,
                "duration": 0.0659,
                "tempo": 120.0
            },
            {
                "pitch": 76,
                "velocity": 80,
                "duration": 0.0659,
                "tempo": 120.0
            },
            {
                "pitch": 0,
                "velocity": 80,
                "duration": 0.0659,
                "tempo": 120.0
            },
            {
                "pitch": 79,
                "velocity": 80,
                "duration": 0.0682,
                "tempo": 120.0
            },
            {
                "pitch": 69,
                "velocity": 80,
                "duration": 0.0682,
                "tempo": 120.0
            },
            {
                "pitch": 76,
                "velocity": 80,
                "duration": 0.0659,
                "tempo": 120.0
            },
            {
                "pitch": 76,
                "velocity": 80,
                "duration": 0.0682,
                "tempo": 120.0
            },
            {
                "pitch": 74,
                "velocity": 80,
                "duration": 0.0705,
                "tempo": 120.0
            },
            {
                "pitch": 0,
                "velocity": 80,
                "duration": 0.0682,
                "tempo": 120.0
            },
            {
                "pitch": 72,
                "velocity": 80,
                "duration": 0.1659,
                "tempo": 120.0
            },
            {
                "pitch": 74,
                "velocity": 80,
                "duration": 0.0659,
                "tempo": 120.0
            },
            {
                "pitch": 72,
                "velocity": 80,
                "duration": 0.0659,
                "tempo": 120.0
            },
            {
                "pitch": 0,
                "velocity": 80,
                "duration": 0.0659,
                "tempo": 120.0
            },
            {
                "pitch": 72,
                "velocity": 80,
                "duration": 0.0682,
                "tempo": 120.0
            },
            {
                "pitch": 72,
                "velocity": 80,
                "duration": 0.0682,
                "tempo": 120.0
            },
            {
                "pitch": 72,
                "velocity": 80,
                "duration": 0.0341,
                "tempo": 120.0
            },
            {
                "pitch": 72,
                "velocity": 80,
                "duration": 0.0341,
                "tempo": 120.0
            },
            {
                "pitch": 72,
                "velocity": 80,
                "duration": 0.0341,
                "tempo": 120.0
            },
            {
                "pitch": 72,
                "velocity": 80,
                "duration": 0.0682,
                "tempo": 120.0
            },
            {
                "pitch": 71,
                "velocity": 80,
                "duration": 0.0682,
                "tempo": 120.0
            },
            {
                "pitch": 71,
                "velocity": 80,
                "duration": 0.0341,
                "tempo": 120.0
            },
            {
                "pitch": 71,
                "velocity": 80,
                "duration": 0.0318,
                "tempo": 120.0
            },
            {
                "pitch": 71,
                "velocity": 80,
                "duration": 0.0341,
                "tempo": 120.0
            },
            {
                "pitch": 71,
                "velocity": 80,
                "duration": 0.0682,
                "tempo": 120.0
            },
            {
                "pitch": 71,
                "velocity": 80,
                "duration": 0.0682,
                "tempo": 120.0
            },
            {
                "pitch": 69,
                "velocity": 80,
                "duration": 0.0682,
                "tempo": 120.0
            },
            {
                "pitch": 69,
                "velocity": 80,
                "duration": 0.0682,
                "tempo": 120.0
            },
            {
                "pitch": 67,
                "velocity": 80,
                "duration": 0.0341,
                "tempo": 120.0
            },
            {
                "pitch": 67,
                "velocity": 80,
                "duration": 0.0341,
                "tempo": 120.0
            },
            {
                "pitch": 67,
                "velocity": 80,
                "duration": 0.0318,
                "tempo": 120.0
            },
            {
                "pitch": 66,
                "velocity": 80,
                "duration": 0.1636,
                "tempo": 120.0
            },
            {
                "pitch": 62,
                "velocity": 80,
                "duration": 0.0659,
                "tempo": 120.0
            },
            {
                "pitch": 67,
                "velocity": 80,
                "duration": 0.1682,
                "tempo": 120.0
            },
            {
                "pitch": 64,
                "velocity": 80,
                "duration": 0.0682,
                "tempo": 120.0
            },
            {
                "pitch": 0,
                "velocity": 80,
                "duration": 0.0659,
                "tempo": 120.0
            },
            {
                "pitch": 66,
                "velocity": 80,
                "duration": 0.0682,
                "tempo": 120.0
            },
            {
                "pitch": 62,
                "velocity": 80,
                "duration": 0.0682,
                "tempo": 120.0
            },
            {
                "pitch": 67,
                "velocity": 80,
                "duration": 0.0659,
                "tempo": 120.0
            },
            {
                "pitch": 64,
                "velocity": 80,
                "duration": 0.0682,
                "tempo": 120.0
            },
            {
                "pitch": 69,
                "velocity": 80,
                "duration": 0.0682,
                "tempo": 120.0
            },
            {
                "pitch": 67,
                "velocity": 80,
                "duration": 0.1705,
                "tempo": 120.0
            },
            {
                "pitch": 62,
                "velocity": 80,
                "duration": 0.0659,
                "tempo": 120.0
            },
            {
                "pitch": 67,
                "velocity": 80,
                "duration": 0.0659,
                "tempo": 120.0
            },
            {
                "pitch": 64,
                "velocity": 80,
                "duration": 0.1636,
                "tempo": 120.0
            },
            {
                "pitch": 67,
                "velocity": 80,
                "duration": 0.0659,
                "tempo": 120.0
            },
            {
                "pitch": 64,
                "velocity": 80,
                "duration": 0.0659,
                "tempo": 120.0
            },
            {
                "pitch": 69,
                "velocity": 80,
                "duration": 0.1659,
                "tempo": 120.0
            },
            {
                "pitch": 0,
                "velocity": 80,
                "duration": 0.0341,
                "tempo": 120.0
            },
            {
                "pitch": 67,
                "velocity": 80,
                "duration": 0.0341,
                "tempo": 120.0
            },
            {
                "pitch": 67,
                "velocity": 80,
                "duration": 0.0341,
                "tempo": 120.0
            },
            {
                "pitch": 67,
                "velocity": 80,
                "duration": 0.0341,
                "tempo": 120.0
            },
            {
                "pitch": 67,
                "velocity": 80,
                "duration": 0.0341,
                "tempo": 120.0
            },
            {
                "pitch": 67,
                "velocity": 80,
                "duration": 0.0318,
                "tempo": 120.0
            },
            {
                "pitch": 69,
                "velocity": 80,
                "duration": 0.0318,
                "tempo": 120.0
            },
            {
                "pitch": 69,
                "velocity": 80,
                "duration": 0.0341,
                "tempo": 120.0
            },
            {
                "pitch": 71,
                "velocity": 80,
                "duration": 0.0341,
                "tempo": 120.0
            },
            {
                "pitch": 71,
                "velocity": 80,
                "duration": 0.0318,
                "tempo": 120.0
            },
            {
                "pitch": 71,
                "velocity": 80,
                "duration": 0.0318,
                "tempo": 120.0
            },
            {
                "pitch": 72,
                "velocity": 80,
                "duration": 0.0318,
                "tempo": 120.0
            },
            {
                "pitch": 72,
                "velocity": 80,
                "duration": 0.0341,
                "tempo": 120.0
            },
            {
                "pitch": 72,
                "velocity": 80,
                "duration": 0.0364,
                "tempo": 120.0
            },
            {
                "pitch": 74,
                "velocity": 80,
                "duration": 0.0341,
                "tempo": 120.0
            },
            {
                "pitch": 74,
                "velocity": 80,
                "duration": 0.0341,
                "tempo": 120.0
            },
            {
                "pitch": 76,
                "velocity": 80,
                "duration": 0.0341,
                "tempo": 120.0
            },
            {
                "pitch": 76,
                "velocity": 80,
                "duration": 0.0341,
                "tempo": 120.0
            },
            {
                "pitch": 64,
                "velocity": 80,
                "duration": 0.1682,
                "tempo": 120.0
            },
            {
                "pitch": 67,
                "velocity": 80,
                "duration": 0.0682,
                "tempo": 120.0
            },
            {
                "pitch": 69,
                "velocity": 80,
                "duration": 0.0659,
                "tempo": 120.0
            },
            {
                "pitch": 0,
                "velocity": 80,
                "duration": 0.0659,
                "tempo": 120.0
            },
            {
                "pitch": 64,
                "velocity": 80,
                "duration": 0.0659,
                "tempo": 120.0
            },
            {
                "pitch": 64,
                "velocity": 80,
                "duration": 0.0659,
                "tempo": 120.0
            },
            {
                "pitch": 64,
                "velocity": 80,
                "duration": 0.0659,
                "tempo": 120.0
            },
            {
                "pitch": 64,
                "velocity": 80,
                "duration": 0.0682,
                "tempo": 120.0
            },
            {
                "pitch": 67,
                "velocity": 80,
                "duration": 0.1727,
                "tempo": 120.0
            },
            {
                "pitch": 69,
                "velocity": 80,
                "duration": 0.0682,
                "tempo": 120.0
            },
            {
                "pitch": 64,
                "velocity": 80,
                "duration": 0.0659,
                "tempo": 120.0
            },
            {
                "pitch": 64,
                "velocity": 80,
                "duration": 0.0659,
                "tempo": 120.0
            },
            {
                "pitch": 64,
                "velocity": 80,
                "duration": 0.0341,
                "tempo": 120.0
            },
            {
                "pitch": 64,
                "velocity": 80,
                "duration": 0.0318,
                "tempo": 120.0
            },
            {
                "pitch": 64,
                "velocity": 80,
                "duration": 0.0318,
                "tempo": 120.0
            },
            {
                "pitch": 0,
                "velocity": 80,
                "duration": 0.0682,
                "tempo": 120.0
            },
            {
                "pitch": 71,
                "velocity": 80,
                "duration": 0.0682,
                "tempo": 120.0
            },
            {
                "pitch": 0,
                "velocity": 80,
                "duration": 0.0659,
                "tempo": 120.0
            },
            {
                "pitch": 72,
                "velocity": 80,
                "duration": 0.0659,
                "tempo": 120.0
            },
            {
                "pitch": 72,
                "velocity": 80,
                "duration": 0.0659,
                "tempo": 120.0
            },
            {
                "pitch": 71,
                "velocity": 80,
                "duration": 0.1341,
                "tempo": 120.0
            },
            {
                "pitch": 71,
                "velocity": 80,
                "duration": 0.0341,
                "tempo": 120.0
            },
            {
                "pitch": 71,
                "velocity": 80,
                "duration": 0.0341,
                "tempo": 120.0
            },
            {
                "pitch": 71,
                "velocity": 80,
                "duration": 0.0682,
                "tempo": 120.0
            },
            {
                "pitch": 71,
                "velocity": 80,
                "duration": 0.0682,
                "tempo": 120.0
            },
            {
                "pitch": 71,
                "velocity": 80,
                "duration": 0.0341,
                "tempo": 120.0
            },
            {
                "pitch": 71,
                "velocity": 80,
                "duration": 0.0341,
                "tempo": 120.0
            },
            {
                "pitch": 71,
                "velocity": 80,
                "duration": 0.0341,
                "tempo": 120.0
            },
            {
                "pitch": 69,
                "velocity": 80,
                "duration": 0.1636,
                "tempo": 120.0
            },
            {
                "pitch": 67,
                "velocity": 80,
                "duration": 0.0636,
                "tempo": 120.0
            },
            {
                "pitch": 69,
                "velocity": 80,
                "duration": 0.0659,
                "tempo": 120.0
            },
            {
                "pitch": 0,
                "velocity": 80,
                "duration": 0.1659,
                "tempo": 120.0
            },
            {
                "pitch": 69,
                "velocity": 80,
                "duration": 0.0682,
                "tempo": 120.0
            },
            {
                "pitch": 69,
                "velocity": 80,
                "duration": 0.0682,
                "tempo": 120.0
            },
            {
                "pitch": 0,
                "velocity": 80,
                "duration": 0.0659,
                "tempo": 120.0
            },
            {
                "pitch": 69,
                "velocity": 80,
                "duration": 0.0682,
                "tempo": 120.0
            },
            {
                "pitch": 71,
                "velocity": 80,
                "duration": 0.0682,
                "tempo": 120.0
            },
            {
                "pitch": 72,
                "velocity": 80,
                "duration": 0.0659,
                "tempo": 120.0
            },
            {
                "pitch": 0,
                "velocity": 80,
                "duration": 0.0682,
                "tempo": 120.0
            },
            {
                "pitch": 69,
                "velocity": 80,
                "duration": 0.0705,
                "tempo": 120.0
            },
            {
                "pitch": 69,
                "velocity": 80,
                "duration": 0.0682,
                "tempo": 120.0
            },
            {
                "pitch": 71,
                "velocity": 80,
                "duration": 0.0682,
                "tempo": 120.0
            },
            {
                "pitch": 72,
                "velocity": 80,
                "duration": 0.0659,
                "tempo": 120.0
            },
            {
                "pitch": 69,
                "velocity": 80,
                "duration": 0.0659,
                "tempo": 120.0
            },
            {
                "pitch": 69,
                "velocity": 80,
                "duration": 0.0659,
                "tempo": 120.0
            },
            {
                "pitch": 71,
                "velocity": 80,
                "duration": 0.0659,
                "tempo": 120.0
            },
            {
                "pitch": 0,
                "velocity": 80,
                "duration": 0.0682,
                "tempo": 120.0
            },
            {
                "pitch": 72,
                "velocity": 80,
                "duration": 0.1682,
                "tempo": 120.0
            },
            {
                "pitch": 69,
                "velocity": 80,
                "duration": 0.0682,
                "tempo": 120.0
            },
            {
                "pitch": 71,
                "velocity": 80,
                "duration": 0.0682,
                "tempo": 120.0
            },
            {
                "pitch": 0,
                "velocity": 80,
                "duration": 0.0659,
                "tempo": 120.0
            },
            {
                "pitch": 72,
                "velocity": 80,
                "duration": 0.0659,
                "tempo": 120.0
            },
            {
                "pitch": 69,
                "velocity": 80,
                "duration": 0.0682,
                "tempo": 120.0
            },
            {
                "pitch": 69,
                "velocity": 80,
                "duration": 0.1023,
                "tempo": 120.0
            },
            {
                "pitch": 71,
                "velocity": 80,
                "duration": 0.1023,
                "tempo": 120.0
            },
            {
                "pitch": 72,
                "velocity": 80,
                "duration": 0.1023,
                "tempo": 120.0
            },
            {
                "pitch": 74,
                "velocity": 80,
                "duration": 0.0977,
                "tempo": 120.0
            },
            {
                "pitch": 76,
                "velocity": 80,
                "duration": 0.0977,
                "tempo": 120.0
            },
            {
                "pitch": 76,
                "velocity": 80,
                "duration": 0.0977,
                "tempo": 120.0
            },
            {
                "pitch": 0,
                "velocity": 80,
                "duration": 0.0659,
                "tempo": 120.0
            },
            {
                "pitch": 76,
                "velocity": 80,
                "duration": 0.0682,
                "tempo": 120.0
            },
            {
                "pitch": 0,
                "velocity": 80,
                "duration": 0.0682,
                "tempo": 120.0
            },
            {
                "pitch": 76,
                "velocity": 80,
                "duration": 0.0659,
                "tempo": 120.0
            },
            {
                "pitch": 69,
                "velocity": 80,
                "duration": 0.0682,
                "tempo": 120.0
            },
            {
                "pitch": 74,
                "velocity": 80,
                "duration": 0.1682,
                "tempo": 120.0
            },
            {
                "pitch": 69,
                "velocity": 80,
                "duration": 0.0659,
                "tempo": 120.0
            },
            {
                "pitch": 72,
                "velocity": 80,
                "duration": 0.0682,
                "tempo": 120.0
            },
            {
                "pitch": 67,
                "velocity": 80,
                "duration": 0.1705,
                "tempo": 120.0
            },
            {
                "pitch": 69,
                "velocity": 80,
                "duration": 0.0682,
                "tempo": 120.0
            },
            {
                "pitch": 72,
                "velocity": 80,
                "duration": 0.0341,
                "tempo": 120.0
            },
            {
                "pitch": 73,
                "velocity": 80,
                "duration": 0.0318,
                "tempo": 120.0
            },
            {
                "pitch": 74,
                "velocity": 80,
                "duration": 0.0318,
                "tempo": 120.0
            },
            {
                "pitch": 74,
                "velocity": 80,
                "duration": 0.0636,
                "tempo": 120.0
            },
            {
                "pitch": 74,
                "velocity": 80,
                "duration": 0.0659,
                "tempo": 120.0
            },
            {
                "pitch": 0,
                "velocity": 80,
                "duration": 0.0341,
                "tempo": 120.0
            },
            {
                "pitch": 72,
                "velocity": 80,
                "duration": 0.0318,
                "tempo": 120.0
            },
            {
                "pitch": 71,
                "velocity": 80,
                "duration": 0.0341,
                "tempo": 120.0
            },
            {
                "pitch": 69,
                "velocity": 80,
                "duration": 0.0341,
                "tempo": 120.0
            },
            {
                "pitch": 0,
                "velocity": 80,
                "duration": 0.0318,
                "tempo": 120.0
            },
            {
                "pitch": 72,
                "velocity": 80,
                "duration": 0.0341,
                "tempo": 120.0
            },
            {
                "pitch": 71,
                "velocity": 80,
                "duration": 0.0341,
                "tempo": 120.0
            },
            {
                "pitch": 69,
                "velocity": 80,
                "duration": 0.0341,
                "tempo": 120.0
            },
            {
                "pitch": 0,
                "velocity": 80,
                "duration": 0.0318,
                "tempo": 120.0
            },
            {
                "pitch": 72,
                "velocity": 80,
                "duration": 0.0341,
                "tempo": 120.0
            },
            {
                "pitch": 71,
                "velocity": 80,
                "duration": 0.0318,
                "tempo": 120.0
            },
            {
                "pitch": 69,
                "velocity": 80,
                "duration": 0.0341,
                "tempo": 120.0
            },
            {
                "pitch": 0,
                "velocity": 80,
                "duration": 0.0682,
                "tempo": 120.0
            },
            {
                "pitch": 71,
                "velocity": 80,
                "duration": 0.1727,
                "tempo": 120.0
            },
            {
                "pitch": 69,
                "velocity": 80,
                "duration": 0.0659,
                "tempo": 120.0
            },
            {
                "pitch": 67,
                "velocity": 80,
                "duration": 0.0318,
                "tempo": 120.0
            },
            {
                "pitch": 67,
                "velocity": 80,
                "duration": 0.0318,
                "tempo": 120.0
            },
            {
                "pitch": 67,
                "velocity": 80,
                "duration": 0.0341,
                "tempo": 120.0
            },
            {
                "pitch": 69,
                "velocity": 80,
                "duration": 0.0659,
                "tempo": 120.0
            },
            {
                "pitch": 69,
                "velocity": 80,
                "duration": 0.0659,
                "tempo": 120.0
            },
            {
                "pitch": 69,
                "velocity": 80,
                "duration": 0.0341,
                "tempo": 120.0
            },
            {
                "pitch": 69,
                "velocity": 80,
                "duration": 0.0341,
                "tempo": 120.0
            },
            {
                "pitch": 69,
                "velocity": 80,
                "duration": 0.0341,
                "tempo": 120.0
            },
            {
                "pitch": 69,
                "velocity": 80,
                "duration": 0.0318,
                "tempo": 120.0
            },
            {
                "pitch": 69,
                "velocity": 80,
                "duration": 0.0341,
                "tempo": 120.0
            },
            {
                "pitch": 69,
                "velocity": 80,
                "duration": 0.0318,
                "tempo": 120.0
            },
            {
                "pitch": 69,
                "velocity": 80,
                "duration": 0.0659,
                "tempo": 120.0
            },
            {
                "pitch": 69,
                "velocity": 80,
                "duration": 0.0659,
                "tempo": 120.0
            },
            {
                "pitch": 69,
                "velocity": 80,
                "duration": 0.0659,
                "tempo": 120.0
            },
            {
                "pitch": 69,
                "velocity": 80,
                "duration": 0.0659,
                "tempo": 120.0
            },
            {
                "pitch": 69,
                "velocity": 80,
                "duration": 0.0705,
                "tempo": 120.0
            },
            {
                "pitch": 67,
                "velocity": 80,
                "duration": 0.0682,
                "tempo": 120.0
            },
            {
                "pitch": 66,
                "velocity": 80,
                "duration": 0.0682,
                "tempo": 120.0
            },
            {
                "pitch": 64,
                "velocity": 80,
                "duration": 0.0682,
                "tempo": 120.0
            },
            {
                "pitch": 67,
                "velocity": 80,
                "duration": 0.0659,
                "tempo": 120.0
            },
            {
                "pitch": 66,
                "velocity": 80,
                "duration": 0.0659,
                "tempo": 120.0
            },
            {
                "pitch": 67,
                "velocity": 80,
                "duration": 0.0636,
                "tempo": 120.0
            },
            {
                "pitch": 64,
                "velocity": 80,
                "duration": 0.0659,
                "tempo": 120.0
            },
            {
                "pitch": 0,
                "velocity": 80,
                "duration": 0.0682,
                "tempo": 120.0
            },
            {
                "pitch": 62,
                "velocity": 80,
                "duration": 0.0659,
                "tempo": 120.0
            },
            {
                "pitch": 0,
                "velocity": 80,
                "duration": 0.0659,
                "tempo": 120.0
            },
            {
                "pitch": 62,
                "velocity": 80,
                "duration": 0.0682,
                "tempo": 120.0
            },
            {
                "pitch": 62,
                "velocity": 80,
                "duration": 0.0659,
                "tempo": 120.0
            },
            {
                "pitch": 60,
                "velocity": 80,
                "duration": 0.0659,
                "tempo": 120.0
            },
            {
                "pitch": 0,
                "velocity": 80,
                "duration": 0.0682,
                "tempo": 120.0
            },
            {
                "pitch": 60,
                "velocity": 80,
                "duration": 0.0682,
                "tempo": 120.0
            },
            {
                "pitch": 60,
                "velocity": 80,
                "duration": 0.1,
                "tempo": 120.0
            },
            {
                "pitch": 59,
                "velocity": 80,
                "duration": 0.1,
                "tempo": 120.0
            },
            {
                "pitch": 57,
                "velocity": 80,
                "duration": 0.1,
                "tempo": 120.0
            },
            {
                "pitch": 55,
                "velocity": 80,
                "duration": 0.1,
                "tempo": 120.0
            },
            {
                "pitch": 55,
                "velocity": 80,
                "duration": 0.1,
                "tempo": 120.0
            },
            {
                "pitch": 52,
                "velocity": 80,
                "duration": 0.1,
                "tempo": 120.0
            },
            {
                "pitch": 0,
                "velocity": 80,
                "duration": 0.0659,
                "tempo": 120.0
            },
            {
                "pitch": 57,
                "velocity": 80,
                "duration": 0.0682,
                "tempo": 120.0
            },
            {
                "pitch": 0,
                "velocity": 80,
                "duration": 0.0659,
                "tempo": 120.0
            },
            {
                "pitch": 59,
                "velocity": 80,
                "duration": 0.0659,
                "tempo": 120.0
            },
            {
                "pitch": 0,
                "velocity": 80,
                "duration": 0.0682,
                "tempo": 120.0
            },
            {
                "pitch": 57,
                "velocity": 80,
                "duration": 0.0682,
                "tempo": 120.0
            },
            {
                "pitch": 52,
                "velocity": 80,
                "duration": 0.0659,
                "tempo": 120.0
            },
            {
                "pitch": 59,
                "velocity": 80,
                "duration": 0.0682,
                "tempo": 120.0
            },
            {
                "pitch": 57,
                "velocity": 80,
                "duration": 0.0682,
                "tempo": 120.0
            },
            {
                "pitch": 52,
                "velocity": 80,
                "duration": 0.1705,
                "tempo": 120.0
            },
            {
                "pitch": 55,
                "velocity": 80,
                "duration": 0.0682,
                "tempo": 120.0
            },
            {
                "pitch": 57,
                "velocity": 80,
                "duration": 0.0659,
                "tempo": 120.0
            },
            {
                "pitch": 59,
                "velocity": 80,
                "duration": 0.0636,
                "tempo": 120.0
            },
            {
                "pitch": 57,
                "velocity": 80,
                "duration": 0.0636,
                "tempo": 120.0
            },
            {
                "pitch": 60,
                "velocity": 80,
                "duration": 0.0659,
                "tempo": 120.0
            },
            {
                "pitch": 0,
                "velocity": 80,
                "duration": 0.0659,
                "tempo": 120.0
            },
            {
                "pitch": 62,
                "velocity": 80,
                "duration": 0.1682,
                "tempo": 120.0
            },
            {
                "pitch": 57,
                "velocity": 80,
                "duration": 0.1682,
                "tempo": 120.0
            },
            {
                "pitch": 60,
                "velocity": 80,
                "duration": 0.0682,
                "tempo": 120.0
            },
            {
                "pitch": 62,
                "velocity": 80,
                "duration": 0.0682,
                "tempo": 120.0
            },
            {
                "pitch": 0,
                "velocity": 80,
                "duration": 0.1341,
                "tempo": 120.0
            },
            {
                "pitch": 65,
                "velocity": 80,
                "duration": 0.0341,
                "tempo": 120.0
            },
            {
                "pitch": 0,
                "velocity": 80,
                "duration": 0.0341,
                "tempo": 120.0
            },
            {
                "pitch": 65,
                "velocity": 80,
                "duration": 0.0318,
                "tempo": 120.0
            },
            {
                "pitch": 0,
                "velocity": 80,
                "duration": 0.1,
                "tempo": 120.0
            },
            {
                "pitch": 62,
                "velocity": 80,
                "duration": 0.0682,
                "tempo": 120.0
            },
            {
                "pitch": 63,
                "velocity": 80,
                "duration": 0.0682,
                "tempo": 120.0
            },
            {
                "pitch": 64,
                "velocity": 80,
                "duration": 0.0659,
                "tempo": 120.0
            },
            {
                "pitch": 67,
                "velocity": 80,
                "duration": 0.0659,
                "tempo": 120.0
            },
            {
                "pitch": 0,
                "velocity": 80,
                "duration": 0.1659,
                "tempo": 120.0
            },
            {
                "pitch": 69,
                "velocity": 80,
                "duration": 0.0659,
                "tempo": 120.0
            },
            {
                "pitch": 69,
                "velocity": 80,
                "duration": 0.0682,
                "tempo": 120.0
            },
            {
                "pitch": 0,
                "velocity": 80,
                "duration": 0.0682,
                "tempo": 120.0
            },
            {
                "pitch": 69,
                "velocity": 80,
                "duration": 0.0659,
                "tempo": 120.0
            },
            {
                "pitch": 69,
                "velocity": 80,
                "duration": 0.0659,
                "tempo": 120.0
            },
            {
                "pitch": 69,
                "velocity": 80,
                "duration": 0.0682,
                "tempo": 120.0
            },
            {
                "pitch": 69,
                "velocity": 80,
                "duration": 0.0341,
                "tempo": 120.0
            },
            {
                "pitch": 71,
                "velocity": 80,
                "duration": 0.0682,
                "tempo": 120.0
            },
            {
                "pitch": 72,
                "velocity": 80,
                "duration": 0.1705,
                "tempo": 120.0
            },
            {
                "pitch": 72,
                "velocity": 80,
                "duration": 0.0636,
                "tempo": 120.0
            },
            {
                "pitch": 69,
                "velocity": 80,
                "duration": 0.0659,
                "tempo": 120.0
            },
            {
                "pitch": 71,
                "velocity": 80,
                "duration": 0.0659,
                "tempo": 120.0
            },
            {
                "pitch": 72,
                "velocity": 80,
                "duration": 0.0659,
                "tempo": 120.0
            },
            {
                "pitch": 0,
                "velocity": 80,
                "duration": 0.0659,
                "tempo": 120.0
            },
            {
                "pitch": 69,
                "velocity": 80,
                "duration": 0.0682,
                "tempo": 120.0
            },
            {
                "pitch": 71,
                "velocity": 80,
                "duration": 0.0682,
                "tempo": 120.0
            },
            {
                "pitch": 72,
                "velocity": 80,
                "duration": 0.0659,
                "tempo": 120.0
            },
            {
                "pitch": 69,
                "velocity": 80,
                "duration": 0.0659,
                "tempo": 120.0
            },
            {
                "pitch": 71,
                "velocity": 80,
                "duration": 0.0659,
                "tempo": 120.0
            },
            {
                "pitch": 72,
                "velocity": 80,
                "duration": 0.0659,
                "tempo": 120.0
            },
            {
                "pitch": 69,
                "velocity": 80,
                "duration": 0.0659,
                "tempo": 120.0
            },
            {
                "pitch": 71,
                "velocity": 80,
                "duration": 0.0682,
                "tempo": 120.0
            },
            {
                "pitch": 72,
                "velocity": 80,
                "duration": 0.0705,
                "tempo": 120.0
            },
            {
                "pitch": 69,
                "velocity": 80,
                "duration": 0.0682,
                "tempo": 120.0
            },
            {
                "pitch": 71,
                "velocity": 80,
                "duration": 0.0682,
                "tempo": 120.0
            },
            {
                "pitch": 72,
                "velocity": 80,
                "duration": 0.0659,
                "tempo": 120.0
            },
            {
                "pitch": 69,
                "velocity": 80,
                "duration": 0.0659,
                "tempo": 120.0
            },
            {
                "pitch": 74,
                "velocity": 80,
                "duration": 0.0659,
                "tempo": 120.0
            },
            {
                "pitch": 74,
                "velocity": 80,
                "duration": 0.0659,
                "tempo": 120.0
            },
            {
                "pitch": 74,
                "velocity": 80,
                "duration": 0.0682,
                "tempo": 120.0
            },
            {
                "pitch": 69,
                "velocity": 80,
                "duration": 0.0682,
                "tempo": 120.0
            },
            {
                "pitch": 69,
                "velocity": 80,
                "duration": 0.0659,
                "tempo": 120.0
            },
            {
                "pitch": 74,
                "velocity": 80,
                "duration": 0.0682,
                "tempo": 120.0
            },
            {
                "pitch": 74,
                "velocity": 80,
                "duration": 0.0682,
                "tempo": 120.0
            },
            {
                "pitch": 69,
                "velocity": 80,
                "duration": 0.0659,
                "tempo": 120.0
            },
            {
                "pitch": 76,
                "velocity": 80,
                "duration": 0.0659,
                "tempo": 120.0
            },
            {
                "pitch": 76,
                "velocity": 80,
                "duration": 0.0682,
                "tempo": 120.0
            },
            {
                "pitch": 76,
                "velocity": 80,
                "duration": 0.0682,
                "tempo": 120.0
            },
            {
                "pitch": 69,
                "velocity": 80,
                "duration": 0.0682,
                "tempo": 120.0
            },
            {
                "pitch": 69,
                "velocity": 80,
                "duration": 0.0682,
                "tempo": 120.0
            },
            {
                "pitch": 78,
                "velocity": 80,
                "duration": 0.0659,
                "tempo": 120.0
            },
            {
                "pitch": 78,
                "velocity": 80,
                "duration": 0.0636,
                "tempo": 120.0
            },
            {
                "pitch": 69,
                "velocity": 80,
                "duration": 0.0659,
                "tempo": 120.0
            },
            {
                "pitch": 69,
                "velocity": 80,
                "duration": 0.0659,
                "tempo": 120.0
            },
            {
                "pitch": 69,
                "velocity": 80,
                "duration": 0.0659,
                "tempo": 120.0
            },
            {
                "pitch": 0,
                "velocity": 80,
                "duration": 0.0659,
                "tempo": 120.0
            },
            {
                "pitch": 79,
                "velocity": 80,
                "duration": 0.0682,
                "tempo": 120.0
            },
            {
                "pitch": 79,
                "velocity": 80,
                "duration": 0.0682,
                "tempo": 120.0
            },
            {
                "pitch": 69,
                "velocity": 80,
                "duration": 0.0659,
                "tempo": 120.0
            },
            {
                "pitch": 69,
                "velocity": 80,
                "duration": 0.0682,
                "tempo": 120.0
            },
            {
                "pitch": 0,
                "velocity": 80,
                "duration": 0.0682,
                "tempo": 120.0
            },
            {
                "pitch": 81,
                "velocity": 80,
                "duration": 0.0659,
                "tempo": 120.0
            },
            {
                "pitch": 81,
                "velocity": 80,
                "duration": 0.0659,
                "tempo": 120.0
            },
            {
                "pitch": 0,
                "velocity": 80,
                "duration": 0.0682,
                "tempo": 120.0
            },
            {
                "pitch": 79,
                "velocity": 80,
                "duration": 0.0682,
                "tempo": 120.0
            },
            {
                "pitch": 79,
                "velocity": 80,
                "duration": 0.0682,
                "tempo": 120.0
            },
            {
                "pitch": 79,
                "velocity": 80,
                "duration": 0.0682,
                "tempo": 120.0
            },
            {
                "pitch": 79,
                "velocity": 80,
                "duration": 0.0341,
                "tempo": 120.0
            },
            {
                "pitch": 79,
                "velocity": 80,
                "duration": 0.0318,
                "tempo": 120.0
            },
            {
                "pitch": 80,
                "velocity": 80,
                "duration": 0.0318,
                "tempo": 120.0
            },
            {
                "pitch": 81,
                "velocity": 80,
                "duration": 0.0318,
                "tempo": 120.0
            },
            {
                "pitch": 81,
                "velocity": 80,
                "duration": 0.0341,
                "tempo": 120.0
            },
            {
                "pitch": 83,
                "velocity": 80,
                "duration": 0.0341,
                "tempo": 120.0
            },
            {
                "pitch": 81,
                "velocity": 80,
                "duration": 0.0682,
                "tempo": 120.0
            },
            {
                "pitch": 81,
                "velocity": 80,
                "duration": 0.0659,
                "tempo": 120.0
            },
            {
                "pitch": 76,
                "velocity": 80,
                "duration": 0.0682,
                "tempo": 120.0
            },
            {
                "pitch": 79,
                "velocity": 80,
                "duration": 0.0682,
                "tempo": 120.0
            },
            {
                "pitch": 81,
                "velocity": 80,
                "duration": 0.0659,
                "tempo": 120.0
            },
            {
                "pitch": 76,
                "velocity": 80,
                "duration": 0.0659,
                "tempo": 120.0
            },
            {
                "pitch": 79,
                "velocity": 80,
                "duration": 0.0682,
                "tempo": 120.0
            },
            {
                "pitch": 81,
                "velocity": 80,
                "duration": 0.0659,
                "tempo": 120.0
            },
            {
                "pitch": 76,
                "velocity": 80,
                "duration": 0.0682,
                "tempo": 120.0
            },
            {
                "pitch": 79,
                "velocity": 80,
                "duration": 0.0705,
                "tempo": 120.0
            },
            {
                "pitch": 81,
                "velocity": 80,
                "duration": 0.0682,
                "tempo": 120.0
            },
            {
                "pitch": 83,
                "velocity": 80,
                "duration": 0.0682,
                "tempo": 120.0
            },
            {
                "pitch": 0,
                "velocity": 80,
                "duration": 0.0659,
                "tempo": 120.0
            },
            {
                "pitch": 84,
                "velocity": 80,
                "duration": 0.0659,
                "tempo": 120.0
            },
            {
                "pitch": 0,
                "velocity": 80,
                "duration": 0.0659,
                "tempo": 120.0
            },
            {
                "pitch": 83,
                "velocity": 80,
                "duration": 0.0659,
                "tempo": 120.0
            },
            {
                "pitch": 0,
                "velocity": 80,
                "duration": 0.0659,
                "tempo": 120.0
            },
            {
                "pitch": 81,
                "velocity": 80,
                "duration": 0.0659,
                "tempo": 120.0
            },
            {
                "pitch": 0,
                "velocity": 80,
                "duration": 0.0659,
                "tempo": 120.0
            },
            {
                "pitch": 79,
                "velocity": 80,
                "duration": 0.0659,
                "tempo": 120.0
            },
            {
                "pitch": 0,
                "velocity": 80,
                "duration": 0.0682,
                "tempo": 120.0
            },
            {
                "pitch": 78,
                "velocity": 80,
                "duration": 0.0682,
                "tempo": 120.0
            },
            {
                "pitch": 0,
                "velocity": 80,
                "duration": 0.0659,
                "tempo": 120.0
            },
            {
                "pitch": 76,
                "velocity": 80,
                "duration": 0.0682,
                "tempo": 120.0
            },
            {
                "pitch": 0,
                "velocity": 80,
                "duration": 0.0682,
                "tempo": 120.0
            },
            {
                "pitch": 74,
                "velocity": 80,
                "duration": 0.0659,
                "tempo": 120.0
            },
            {
                "pitch": 0,
                "velocity": 80,
                "duration": 0.0659,
                "tempo": 120.0
            },
            {
                "pitch": 72,
                "velocity": 80,
                "duration": 0.0682,
                "tempo": 120.0
            },
            {
                "pitch": 0,
                "velocity": 80,
                "duration": 0.0682,
                "tempo": 120.0
            },
            {
                "pitch": 71,
                "velocity": 80,
                "duration": 0.0659,
                "tempo": 120.0
            },
            {
                "pitch": 0,
                "velocity": 80,
                "duration": 0.0682,
                "tempo": 120.0
            },
            {
                "pitch": 69,
                "velocity": 80,
                "duration": 0.0682,
                "tempo": 120.0
            },
            {
                "pitch": 67,
                "velocity": 80,
                "duration": 0.3682,
                "tempo": 120.0
            },
            {
                "pitch": 69,
                "velocity": 80,
                "duration": 0.2659,
                "tempo": 120.0
            },
            {
                "pitch": 72,
                "velocity": 80,
                "duration": 0.1682,
                "tempo": 120.0
            },
            {
                "pitch": 71,
                "velocity": 80,
                "duration": 0.0705,
                "tempo": 120.0
            },
            {
                "pitch": 67,
                "velocity": 80,
                "duration": 0.1705,
                "tempo": 120.0
            },
            {
                "pitch": 69,
                "velocity": 80,
                "duration": 0.1636,
                "tempo": 120.0
            },
            {
                "pitch": 0,
                "velocity": 80,
                "duration": 0.1636,
                "tempo": 120.0
            },
            {
                "pitch": 69,
                "velocity": 80,
                "duration": 0.3705,
                "tempo": 120.0
            },
            {
                "pitch": 71,
                "velocity": 80,
                "duration": 0.2682,
                "tempo": 120.0
            },
            {
                "pitch": 72,
                "velocity": 80,
                "duration": 0.1705,
                "tempo": 120.0
            },
            {
                "pitch": 71,
                "velocity": 80,
                "duration": 0.0682,
                "tempo": 120.0
            },
            {
                "pitch": 69,
                "velocity": 80,
                "duration": 0.1705,
                "tempo": 120.0
            },
            {
                "pitch": 71,
                "velocity": 80,
                "duration": 0.1614,
                "tempo": 120.0
            },
            {
                "pitch": 67,
                "velocity": 80,
                "duration": 0.0659,
                "tempo": 120.0
            },
            {
                "pitch": 69,
                "velocity": 80,
                "duration": 0.0659,
                "tempo": 120.0
            },
            {
                "pitch": 69,
                "velocity": 80,
                "duration": 0.3682,
                "tempo": 120.0
            },
            {
                "pitch": 71,
                "velocity": 80,
                "duration": 0.2682,
                "tempo": 120.0
            },
            {
                "pitch": 72,
                "velocity": 80,
                "duration": 0.1705,
                "tempo": 120.0
            },
            {
                "pitch": 67,
                "velocity": 80,
                "duration": 0.0682,
                "tempo": 120.0
            },
            {
                "pitch": 67,
                "velocity": 80,
                "duration": 0.1705,
                "tempo": 120.0
            },
            {
                "pitch": 69,
                "velocity": 80,
                "duration": 0.2614,
                "tempo": 120.0
            },
            {
                "pitch": 74,
                "velocity": 80,
                "duration": 0.0659,
                "tempo": 120.0
            },
            {
                "pitch": 0,
                "velocity": 80,
                "duration": 0.0682,
                "tempo": 120.0
            },
            {
                "pitch": 74,
                "velocity": 80,
                "duration": 0.0659,
                "tempo": 120.0
            },
            {
                "pitch": 72,
                "velocity": 80,
                "duration": 0.0659,
                "tempo": 120.0
            },
            {
                "pitch": 69,
                "velocity": 80,
                "duration": 0.0682,
                "tempo": 120.0
            },
            {
                "pitch": 0,
                "velocity": 80,
                "duration": 0.0659,
                "tempo": 120.0
            },
            {
                "pitch": 76,
                "velocity": 80,
                "duration": 0.0659,
                "tempo": 120.0
            },
            {
                "pitch": 74,
                "velocity": 80,
                "duration": 0.0682,
                "tempo": 120.0
            },
            {
                "pitch": 69,
                "velocity": 80,
                "duration": 0.0682,
                "tempo": 120.0
            },
            {
                "pitch": 0,
                "velocity": 80,
                "duration": 0.0659,
                "tempo": 120.0
            },
            {
                "pitch": 78,
                "velocity": 80,
                "duration": 0.0682,
                "tempo": 120.0
            },
            {
                "pitch": 76,
                "velocity": 80,
                "duration": 0.0682,
                "tempo": 120.0
            },
            {
                "pitch": 74,
                "velocity": 80,
                "duration": 0.0659,
                "tempo": 120.0
            },
            {
                "pitch": 0,
                "velocity": 80,
                "duration": 0.0659,
                "tempo": 120.0
            },
            {
                "pitch": 74,
                "velocity": 80,
                "duration": 0.0682,
                "tempo": 120.0
            },
            {
                "pitch": 75,
                "velocity": 80,
                "duration": 0.0659,
                "tempo": 120.0
            },
            {
                "pitch": 76,
                "velocity": 80,
                "duration": 0.0659,
                "tempo": 120.0
            },
            {
                "pitch": 74,
                "velocity": 80,
                "duration": 0.0341,
                "tempo": 120.0
            },
            {
                "pitch": 75,
                "velocity": 80,
                "duration": 0.0341,
                "tempo": 120.0
            },
            {
                "pitch": 76,
                "velocity": 80,
                "duration": 0.0318,
                "tempo": 120.0
            },
            {
                "pitch": 76,
                "velocity": 80,
                "duration": 0.0659,
                "tempo": 120.0
            },
            {
                "pitch": 76,
                "velocity": 80,
                "duration": 0.0659,
                "tempo": 120.0
            },
            {
                "pitch": 74,
                "velocity": 80,
                "duration": 0.0341,
                "tempo": 120.0
            },
            {
                "pitch": 75,
                "velocity": 80,
                "duration": 0.0318,
                "tempo": 120.0
            },
            {
                "pitch": 76,
                "velocity": 80,
                "duration": 0.0341,
                "tempo": 120.0
            },
            {
                "pitch": 76,
                "velocity": 80,
                "duration": 0.0659,
                "tempo": 120.0
            },
            {
                "pitch": 76,
                "velocity": 80,
                "duration": 0.0682,
                "tempo": 120.0
            },
            {
                "pitch": 74,
                "velocity": 80,
                "duration": 0.0341,
                "tempo": 120.0
            },
            {
                "pitch": 75,
                "velocity": 80,
                "duration": 0.0341,
                "tempo": 120.0
            },
            {
                "pitch": 76,
                "velocity": 80,
                "duration": 0.0341,
                "tempo": 120.0
            },
            {
                "pitch": 76,
                "velocity": 80,
                "duration": 0.0682,
                "tempo": 120.0
            },
            {
                "pitch": 76,
                "velocity": 80,
                "duration": 0.0682,
                "tempo": 120.0
            },
            {
                "pitch": 74,
                "velocity": 80,
                "duration": 0.0341,
                "tempo": 120.0
            },
            {
                "pitch": 75,
                "velocity": 80,
                "duration": 0.0341,
                "tempo": 120.0
            },
            {
                "pitch": 76,
                "velocity": 80,
                "duration": 0.0318,
                "tempo": 120.0
            },
            {
                "pitch": 76,
                "velocity": 80,
                "duration": 0.0636,
                "tempo": 120.0
            },
            {
                "pitch": 76,
                "velocity": 80,
                "duration": 0.0659,
                "tempo": 120.0
            },
            {
                "pitch": 74,
                "velocity": 80,
                "duration": 0.0318,
                "tempo": 120.0
            },
            {
                "pitch": 75,
                "velocity": 80,
                "duration": 0.0341,
                "tempo": 120.0
            },
            {
                "pitch": 76,
                "velocity": 80,
                "duration": 0.0318,
                "tempo": 120.0
            },
            {
                "pitch": 76,
                "velocity": 80,
                "duration": 0.0341,
                "tempo": 120.0
            },
            {
                "pitch": 76,
                "velocity": 80,
                "duration": 0.0318,
                "tempo": 120.0
            },
            {
                "pitch": 76,
                "velocity": 80,
                "duration": 0.0341,
                "tempo": 120.0
            },
            {
                "pitch": 76,
                "velocity": 80,
                "duration": 0.0659,
                "tempo": 120.0
            },
            {
                "pitch": 76,
                "velocity": 80,
                "duration": 0.0659,
                "tempo": 120.0
            },
            {
                "pitch": 76,
                "velocity": 80,
                "duration": 0.0659,
                "tempo": 120.0
            },
            {
                "pitch": 76,
                "velocity": 80,
                "duration": 0.0318,
                "tempo": 120.0
            },
            {
                "pitch": 76,
                "velocity": 80,
                "duration": 0.0341,
                "tempo": 120.0
            },
            {
                "pitch": 76,
                "velocity": 80,
                "duration": 0.0341,
                "tempo": 120.0
            },
            {
                "pitch": 76,
                "velocity": 80,
                "duration": 0.0341,
                "tempo": 120.0
            },
            {
                "pitch": 76,
                "velocity": 80,
                "duration": 0.0705,
                "tempo": 120.0
            },
            {
                "pitch": 76,
                "velocity": 80,
                "duration": 0.0659,
                "tempo": 120.0
            },
            {
                "pitch": 76,
                "velocity": 80,
                "duration": 0.0659,
                "tempo": 120.0
            },
            {
                "pitch": 74,
                "velocity": 80,
                "duration": 0.0659,
                "tempo": 120.0
            },
            {
                "pitch": 74,
                "velocity": 80,
                "duration": 0.0659,
                "tempo": 120.0
            },
            {
                "pitch": 74,
                "velocity": 80,
                "duration": 0.0659,
                "tempo": 120.0
            },
            {
                "pitch": 74,
                "velocity": 80,
                "duration": 0.0682,
                "tempo": 120.0
            },
            {
                "pitch": 72,
                "velocity": 80,
                "duration": 0.0682,
                "tempo": 120.0
            },
            {
                "pitch": 72,
                "velocity": 80,
                "duration": 0.0659,
                "tempo": 120.0
            },
            {
                "pitch": 72,
                "velocity": 80,
                "duration": 0.0659,
                "tempo": 120.0
            },
            {
                "pitch": 71,
                "velocity": 80,
                "duration": 0.0682,
                "tempo": 120.0
            },
            {
                "pitch": 71,
                "velocity": 80,
                "duration": 0.0682,
                "tempo": 120.0
            },
            {
                "pitch": 71,
                "velocity": 80,
                "duration": 0.0659,
                "tempo": 120.0
            },
            {
                "pitch": 71,
                "velocity": 80,
                "duration": 0.0341,
                "tempo": 120.0
            },
            {
                "pitch": 71,
                "velocity": 80,
                "duration": 0.0682,
                "tempo": 120.0
            },
            {
                "pitch": 71,
                "velocity": 80,
                "duration": 0.0682,
                "tempo": 120.0
            },
            {
                "pitch": 71,
                "velocity": 80,
                "duration": 0.0341,
                "tempo": 120.0
            },
            {
                "pitch": 69,
                "velocity": 80,
                "duration": 0.0318,
                "tempo": 120.0
            },
            {
                "pitch": 69,
                "velocity": 80,
                "duration": 0.0341,
                "tempo": 120.0
            },
            {
                "pitch": 69,
                "velocity": 80,
                "duration": 0.0682,
                "tempo": 120.0
            },
            {
                "pitch": 67,
                "velocity": 80,
                "duration": 0.0659,
                "tempo": 120.0
            },
            {
                "pitch": 67,
                "velocity": 80,
                "duration": 0.0659,
                "tempo": 120.0
            },
            {
                "pitch": 66,
                "velocity": 80,
                "duration": 0.0682,
                "tempo": 120.0
            },
            {
                "pitch": 0,
                "velocity": 80,
                "duration": 0.0659,
                "tempo": 120.0
            },
            {
                "pitch": 66,
                "velocity": 80,
                "duration": 0.0659,
                "tempo": 120.0
            },
            {
                "pitch": 64,
                "velocity": 80,
                "duration": 0.0682,
                "tempo": 120.0
            },
            {
                "pitch": 67,
                "velocity": 80,
                "duration": 0.0682,
                "tempo": 120.0
            },
            {
                "pitch": 62,
                "velocity": 80,
                "duration": 0.0659,
                "tempo": 120.0
            },
            {
                "pitch": 69,
                "velocity": 80,
                "duration": 0.0682,
                "tempo": 120.0
            },
            {
                "pitch": 64,
                "velocity": 80,
                "duration": 0.0682,
                "tempo": 120.0
            },
            {
                "pitch": 67,
                "velocity": 80,
                "duration": 0.0659,
                "tempo": 120.0
            },
            {
                "pitch": 66,
                "velocity": 80,
                "duration": 0.0659,
                "tempo": 120.0
            },
            {
                "pitch": 69,
                "velocity": 80,
                "duration": 0.0659,
                "tempo": 120.0
            },
            {
                "pitch": 69,
                "velocity": 80,
                "duration": 0.0341,
                "tempo": 120.0
            },
            {
                "pitch": 69,
                "velocity": 80,
                "duration": 0.0341,
                "tempo": 120.0
            },
            {
                "pitch": 69,
                "velocity": 80,
                "duration": 0.0341,
                "tempo": 120.0
            },
            {
                "pitch": 69,
                "velocity": 80,
                "duration": 0.0682,
                "tempo": 120.0
            },
            {
                "pitch": 69,
                "velocity": 80,
                "duration": 0.0682,
                "tempo": 120.0
            },
            {
                "pitch": 71,
                "velocity": 80,
                "duration": 0.0682,
                "tempo": 120.0
            },
            {
                "pitch": 69,
                "velocity": 80,
                "duration": 0.0682,
                "tempo": 120.0
            },
            {
                "pitch": 0,
                "velocity": 80,
                "duration": 0.0682,
                "tempo": 120.0
            },
            {
                "pitch": 57,
                "velocity": 80,
                "duration": 0.0682,
                "tempo": 120.0
            },
            {
                "pitch": 0,
                "velocity": 80,
                "duration": 0.0659,
                "tempo": 120.0
            },
            {
                "pitch": 60,
                "velocity": 80,
                "duration": 0.0614,
                "tempo": 120.0
            },
            {
                "pitch": 0,
                "velocity": 80,
                "duration": 0.0614,
                "tempo": 120.0
            },
            {
                "pitch": 62,
                "velocity": 80,
                "duration": 0.0614,
                "tempo": 120.0
            },
            {
                "pitch": 0,
                "velocity": 80,
                "duration": 0.0591,
                "tempo": 120.0
            },
            {
                "pitch": 64,
                "velocity": 80,
                "duration": 0.0659,
                "tempo": 120.0
            },
            {
                "pitch": 0,
                "velocity": 80,
                "duration": 0.0682,
                "tempo": 120.0
            },
            {
                "pitch": 62,
                "velocity": 80,
                "duration": 0.0659,
                "tempo": 120.0
            },
            {
                "pitch": 0,
                "velocity": 80,
                "duration": 0.0659,
                "tempo": 120.0
            },
            {
                "pitch": 64,
                "velocity": 80,
                "duration": 0.0636,
                "tempo": 120.0
            },
            {
                "pitch": 0,
                "velocity": 80,
                "duration": 0.0636,
                "tempo": 120.0
            },
            {
                "pitch": 67,
                "velocity": 80,
                "duration": 0.0636,
                "tempo": 120.0
            },
            {
                "pitch": 0,
                "velocity": 80,
                "duration": 0.0636,
                "tempo": 120.0
            },
            {
                "pitch": 69,
                "velocity": 80,
                "duration": 0.0614,
                "tempo": 120.0
            },
            {
                "pitch": 0,
                "velocity": 80,
                "duration": 0.0591,
                "tempo": 120.0
            },
            {
                "pitch": 69,
                "velocity": 80,
                "duration": 0.0591,
                "tempo": 120.0
            },
            {
                "pitch": 0,
                "velocity": 80,
                "duration": 0.0636,
                "tempo": 120.0
            },
            {
                "pitch": 72,
                "velocity": 80,
                "duration": 0.0682,
                "tempo": 120.0
            },
            {
                "pitch": 0,
                "velocity": 80,
                "duration": 0.0659,
                "tempo": 120.0
            },
            {
                "pitch": 74,
                "velocity": 80,
                "duration": 0.0659,
                "tempo": 120.0
            },
            {
                "pitch": 0,
                "velocity": 80,
                "duration": 0.0682,
                "tempo": 120.0
            },
            {
                "pitch": 76,
                "velocity": 80,
                "duration": 0.0659,
                "tempo": 120.0
            },
            {
                "pitch": 0,
                "velocity": 80,
                "duration": 0.0659,
                "tempo": 120.0
            },
            {
                "pitch": 79,
                "velocity": 80,
                "duration": 0.0682,
                "tempo": 120.0
            },
            {
                "pitch": 0,
                "velocity": 80,
                "duration": 0.0682,
                "tempo": 120.0
            },
            {
                "pitch": 80,
                "velocity": 80,
                "duration": 0.0659,
                "tempo": 120.0
            },
            {
                "pitch": 0,
                "velocity": 80,
                "duration": 0.0659,
                "tempo": 120.0
            },
            {
                "pitch": 81,
                "velocity": 80,
                "duration": 1.4795,
                "tempo": 120.0
            },
            {
                "pitch": 0,
                "velocity": 80,
                "duration": 0.3705,
                "tempo": 120.0
            },
            {
                "pitch": 0,
                "velocity": 80,
                "duration": 0.0682,
                "tempo": 120.0
            },
            {
                "pitch": 84,
                "velocity": 80,
                "duration": 0.0682,
                "tempo": 120.0
            },
            {
                "pitch": 0,
                "velocity": 80,
                "duration": 0.0705,
                "tempo": 120.0
            },
            {
                "pitch": 84,
                "velocity": 80,
                "duration": 0.0727,
                "tempo": 120.0
            },
            {
                "pitch": 0,
                "velocity": 80,
                "duration": 0.2955,
                "tempo": 120.0
            },
            {
                "pitch": 86,
                "velocity": 80,
                "duration": 0.0659,
                "tempo": 120.0
            },
            {
                "pitch": 0,
                "velocity": 80,
                "duration": 0.0682,
                "tempo": 120.0
            },
            {
                "pitch": 86,
                "velocity": 80,
                "duration": 0.0682,
                "tempo": 120.0
            },
            {
                "pitch": 0,
                "velocity": 80,
                "duration": 0.7091,
                "tempo": 120.0
            },
            {
                "pitch": 86,
                "velocity": 80,
                "duration": 0.0659,
                "tempo": 120.0
            },
            {
                "pitch": 0,
                "velocity": 80,
                "duration": 0.0682,
                "tempo": 120.0
            },
            {
                "pitch": 86,
                "velocity": 80,
                "duration": 0.0682,
                "tempo": 120.0
            },
            {
                "pitch": 0,
                "velocity": 80,
                "duration": 0.2818,
                "tempo": 120.0
            },
            {
                "pitch": 88,
                "velocity": 80,
                "duration": 0.0705,
                "tempo": 120.0
            },
            {
                "pitch": 0,
                "velocity": 80,
                "duration": 0.0659,
                "tempo": 120.0
            },
            {
                "pitch": 88,
                "velocity": 80,
                "duration": 0.0659,
                "tempo": 120.0
            },
            {
                "pitch": 0,
                "velocity": 80,
                "duration": 0.6614,
                "tempo": 120.0
            },
            {
                "pitch": 84,
                "velocity": 80,
                "duration": 0.0659,
                "tempo": 120.0
            },
            {
                "pitch": 0,
                "velocity": 80,
                "duration": 0.0659,
                "tempo": 120.0
            },
            {
                "pitch": 84,
                "velocity": 80,
                "duration": 0.0682,
                "tempo": 120.0
            },
            {
                "pitch": 0,
                "velocity": 80,
                "duration": 0.2727,
                "tempo": 120.0
            },
            {
                "pitch": 86,
                "velocity": 80,
                "duration": 0.0682,
                "tempo": 120.0
            },
            {
                "pitch": 0,
                "velocity": 80,
                "duration": 0.0636,
                "tempo": 120.0
            },
            {
                "pitch": 86,
                "velocity": 80,
                "duration": 0.0636,
                "tempo": 120.0
            },
            {
                "pitch": 0,
                "velocity": 80,
                "duration": 0.6682,
                "tempo": 120.0
            },
            {
                "pitch": 86,
                "velocity": 80,
                "duration": 0.0659,
                "tempo": 120.0
            },
            {
                "pitch": 0,
                "velocity": 80,
                "duration": 0.0659,
                "tempo": 120.0
            },
            {
                "pitch": 86,
                "velocity": 80,
                "duration": 0.0659,
                "tempo": 120.0
            },
            {
                "pitch": 0,
                "velocity": 80,
                "duration": 0.2818,
                "tempo": 120.0
            },
            {
                "pitch": 88,
                "velocity": 80,
                "duration": 0.0705,
                "tempo": 120.0
            },
            {
                "pitch": 0,
                "velocity": 80,
                "duration": 0.0659,
                "tempo": 120.0
            },
            {
                "pitch": 88,
                "velocity": 80,
                "duration": 0.0659,
                "tempo": 120.0
            },
            {
                "pitch": 0,
                "velocity": 80,
                "duration": 0.2636,
                "tempo": 120.0
            },
            {
                "pitch": 86,
                "velocity": 80,
                "duration": 1.8773,
                "tempo": 120.0
            }
        ],
        "Acoustic Bass": [
            {
                "pitch": 52,
                "velocity": 80,
                "duration": 0.1682,
                "tempo": 120.0
            },
            {
                "pitch": 43,
                "velocity": 80,
                "duration": 0.1659,
                "tempo": 120.0
            },
            {
                "pitch": 42,
                "velocity": 80,
                "duration": 0.2682,
                "tempo": 120.0
            },
            {
                "pitch": 50,
                "velocity": 80,
                "duration": 0.1682,
                "tempo": 120.0
            },
            {
                "pitch": 50,
                "velocity": 80,
                "duration": 0.0659,
                "tempo": 120.0
            },
            {
                "pitch": 42,
                "velocity": 80,
                "duration": 0.0659,
                "tempo": 120.0
            },
            {
                "pitch": 43,
                "velocity": 80,
                "duration": 0.1682,
                "tempo": 120.0
            },
            {
                "pitch": 45,
                "velocity": 80,
                "duration": 0.2682,
                "tempo": 120.0
            },
            {
                "pitch": 52,
                "velocity": 80,
                "duration": 0.1682,
                "tempo": 120.0
            },
            {
                "pitch": 43,
                "velocity": 80,
                "duration": 0.1682,
                "tempo": 120.0
            },
            {
                "pitch": 42,
                "velocity": 80,
                "duration": 0.0682,
                "tempo": 120.0
            },
            {
                "pitch": 0,
                "velocity": 80,
                "duration": 0.7591,
                "tempo": 120.0
            },
            {
                "pitch": 45,
                "velocity": 80,
                "duration": 0.2659,
                "tempo": 120.0
            },
            {
                "pitch": 52,
                "velocity": 80,
                "duration": 0.1727,
                "tempo": 120.0
            },
            {
                "pitch": 43,
                "velocity": 80,
                "duration": 0.1705,
                "tempo": 120.0
            },
            {
                "pitch": 42,
                "velocity": 80,
                "duration": 0.2659,
                "tempo": 120.0
            },
            {
                "pitch": 50,
                "velocity": 80,
                "duration": 0.1636,
                "tempo": 120.0
            },
            {
                "pitch": 50,
                "velocity": 80,
                "duration": 0.0659,
                "tempo": 120.0
            },
            {
                "pitch": 42,
                "velocity": 80,
                "duration": 0.0659,
                "tempo": 120.0
            },
            {
                "pitch": 43,
                "velocity": 80,
                "duration": 0.1659,
                "tempo": 120.0
            },
            {
                "pitch": 45,
                "velocity": 80,
                "duration": 0.2682,
                "tempo": 120.0
            },
            {
                "pitch": 52,
                "velocity": 80,
                "duration": 0.1773,
                "tempo": 120.0
            },
            {
                "pitch": 43,
                "velocity": 80,
                "duration": 0.1773,
                "tempo": 120.0
            },
            {
                "pitch": 42,
                "velocity": 80,
                "duration": 0.0659,
                "tempo": 120.0
            },
            {
                "pitch": 0,
                "velocity": 80,
                "duration": 0.1636,
                "tempo": 120.0
            },
            {
                "pitch": 42,
                "velocity": 80,
                "duration": 0.1659,
                "tempo": 120.0
            },
            {
                "pitch": 43,
                "velocity": 80,
                "duration": 0.1659,
                "tempo": 120.0
            },
            {
                "pitch": 44,
                "velocity": 80,
                "duration": 0.1659,
                "tempo": 120.0
            },
            {
                "pitch": 45,
                "velocity": 80,
                "duration": 0.2682,
                "tempo": 120.0
            },
            {
                "pitch": 52,
                "velocity": 80,
                "duration": 0.1545,
                "tempo": 120.0
            },
            {
                "pitch": 43,
                "velocity": 80,
                "duration": 0.1545,
                "tempo": 120.0
            },
            {
                "pitch": 42,
                "velocity": 80,
                "duration": 0.2545,
                "tempo": 120.0
            },
            {
                "pitch": 50,
                "velocity": 80,
                "duration": 0.1523,
                "tempo": 120.0
            },
            {
                "pitch": 50,
                "velocity": 80,
                "duration": 0.0591,
                "tempo": 120.0
            },
            {
                "pitch": 42,
                "velocity": 80,
                "duration": 0.0591,
                "tempo": 120.0
            },
            {
                "pitch": 43,
                "velocity": 80,
                "duration": 0.1591,
                "tempo": 120.0
            },
            {
                "pitch": 45,
                "velocity": 80,
                "duration": 0.25,
                "tempo": 120.0
            },
            {
                "pitch": 52,
                "velocity": 80,
                "duration": 0.1545,
                "tempo": 120.0
            },
            {
                "pitch": 43,
                "velocity": 80,
                "duration": 0.1455,
                "tempo": 120.0
            },
            {
                "pitch": 42,
                "velocity": 80,
                "duration": 0.0568,
                "tempo": 120.0
            },
            {
                "pitch": 0,
                "velocity": 80,
                "duration": 0.7273,
                "tempo": 120.0
            },
            {
                "pitch": 45,
                "velocity": 80,
                "duration": 0.2341,
                "tempo": 120.0
            },
            {
                "pitch": 52,
                "velocity": 80,
                "duration": 0.15,
                "tempo": 120.0
            },
            {
                "pitch": 43,
                "velocity": 80,
                "duration": 0.1545,
                "tempo": 120.0
            },
            {
                "pitch": 42,
                "velocity": 80,
                "duration": 0.2636,
                "tempo": 120.0
            },
            {
                "pitch": 50,
                "velocity": 80,
                "duration": 0.1682,
                "tempo": 120.0
            },
            {
                "pitch": 50,
                "velocity": 80,
                "duration": 0.0682,
                "tempo": 120.0
            },
            {
                "pitch": 42,
                "velocity": 80,
                "duration": 0.0682,
                "tempo": 120.0
            },
            {
                "pitch": 43,
                "velocity": 80,
                "duration": 0.1705,
                "tempo": 120.0
            },
            {
                "pitch": 45,
                "velocity": 80,
                "duration": 0.2682,
                "tempo": 120.0
            },
            {
                "pitch": 52,
                "velocity": 80,
                "duration": 0.1659,
                "tempo": 120.0
            },
            {
                "pitch": 43,
                "velocity": 80,
                "duration": 0.1636,
                "tempo": 120.0
            },
            {
                "pitch": 42,
                "velocity": 80,
                "duration": 0.0659,
                "tempo": 120.0
            },
            {
                "pitch": 0,
                "velocity": 80,
                "duration": 0.7705,
                "tempo": 120.0
            },
            {
                "pitch": 45,
                "velocity": 80,
                "duration": 0.2659,
                "tempo": 120.0
            },
            {
                "pitch": 52,
                "velocity": 80,
                "duration": 0.1659,
                "tempo": 120.0
            },
            {
                "pitch": 43,
                "velocity": 80,
                "duration": 0.1682,
                "tempo": 120.0
            },
            {
                "pitch": 42,
                "velocity": 80,
                "duration": 0.2682,
                "tempo": 120.0
            },
            {
                "pitch": 50,
                "velocity": 80,
                "duration": 0.1682,
                "tempo": 120.0
            },
            {
                "pitch": 50,
                "velocity": 80,
                "duration": 0.0682,
                "tempo": 120.0
            },
            {
                "pitch": 42,
                "velocity": 80,
                "duration": 0.0659,
                "tempo": 120.0
            },
            {
                "pitch": 43,
                "velocity": 80,
                "duration": 0.1682,
                "tempo": 120.0
            },
            {
                "pitch": 45,
                "velocity": 80,
                "duration": 0.2727,
                "tempo": 120.0
            },
            {
                "pitch": 52,
                "velocity": 80,
                "duration": 0.1682,
                "tempo": 120.0
            },
            {
                "pitch": 43,
                "velocity": 80,
                "duration": 0.1636,
                "tempo": 120.0
            },
            {
                "pitch": 42,
                "velocity": 80,
                "duration": 0.0659,
                "tempo": 120.0
            },
            {
                "pitch": 0,
                "velocity": 80,
                "duration": 0.7795,
                "tempo": 120.0
            },
            {
                "pitch": 45,
                "velocity": 80,
                "duration": 0.2614,
                "tempo": 120.0
            },
            {
                "pitch": 52,
                "velocity": 80,
                "duration": 0.1659,
                "tempo": 120.0
            },
            {
                "pitch": 43,
                "velocity": 80,
                "duration": 0.1682,
                "tempo": 120.0
            },
            {
                "pitch": 42,
                "velocity": 80,
                "duration": 0.2727,
                "tempo": 120.0
            },
            {
                "pitch": 50,
                "velocity": 80,
                "duration": 0.1705,
                "tempo": 120.0
            },
            {
                "pitch": 50,
                "velocity": 80,
                "duration": 0.0636,
                "tempo": 120.0
            },
            {
                "pitch": 42,
                "velocity": 80,
                "duration": 0.0659,
                "tempo": 120.0
            },
            {
                "pitch": 43,
                "velocity": 80,
                "duration": 0.1636,
                "tempo": 120.0
            },
            {
                "pitch": 45,
                "velocity": 80,
                "duration": 0.275,
                "tempo": 120.0
            },
            {
                "pitch": 52,
                "velocity": 80,
                "duration": 0.1682,
                "tempo": 120.0
            },
            {
                "pitch": 43,
                "velocity": 80,
                "duration": 0.1636,
                "tempo": 120.0
            },
            {
                "pitch": 42,
                "velocity": 80,
                "duration": 0.0659,
                "tempo": 120.0
            },
            {
                "pitch": 0,
                "velocity": 80,
                "duration": 0.7682,
                "tempo": 120.0
            },
            {
                "pitch": 45,
                "velocity": 80,
                "duration": 0.2477,
                "tempo": 120.0
            },
            {
                "pitch": 52,
                "velocity": 80,
                "duration": 0.1636,
                "tempo": 120.0
            },
            {
                "pitch": 43,
                "velocity": 80,
                "duration": 0.1682,
                "tempo": 120.0
            },
            {
                "pitch": 42,
                "velocity": 80,
                "duration": 0.2659,
                "tempo": 120.0
            },
            {
                "pitch": 50,
                "velocity": 80,
                "duration": 0.1659,
                "tempo": 120.0
            },
            {
                "pitch": 50,
                "velocity": 80,
                "duration": 0.0659,
                "tempo": 120.0
            },
            {
                "pitch": 42,
                "velocity": 80,
                "duration": 0.0682,
                "tempo": 120.0
            },
            {
                "pitch": 43,
                "velocity": 80,
                "duration": 0.1682,
                "tempo": 120.0
            },
            {
                "pitch": 45,
                "velocity": 80,
                "duration": 0.2659,
                "tempo": 120.0
            },
            {
                "pitch": 52,
                "velocity": 80,
                "duration": 0.1659,
                "tempo": 120.0
            },
            {
                "pitch": 43,
                "velocity": 80,
                "duration": 0.1659,
                "tempo": 120.0
            },
            {
                "pitch": 42,
                "velocity": 80,
                "duration": 0.0659,
                "tempo": 120.0
            },
            {
                "pitch": 0,
                "velocity": 80,
                "duration": 0.7682,
                "tempo": 120.0
            },
            {
                "pitch": 45,
                "velocity": 80,
                "duration": 0.2682,
                "tempo": 120.0
            },
            {
                "pitch": 52,
                "velocity": 80,
                "duration": 0.1682,
                "tempo": 120.0
            },
            {
                "pitch": 43,
                "velocity": 80,
                "duration": 0.1682,
                "tempo": 120.0
            },
            {
                "pitch": 42,
                "velocity": 80,
                "duration": 0.2682,
                "tempo": 120.0
            },
            {
                "pitch": 50,
                "velocity": 80,
                "duration": 0.1682,
                "tempo": 120.0
            },
            {
                "pitch": 50,
                "velocity": 80,
                "duration": 0.0682,
                "tempo": 120.0
            },
            {
                "pitch": 42,
                "velocity": 80,
                "duration": 0.0659,
                "tempo": 120.0
            },
            {
                "pitch": 43,
                "velocity": 80,
                "duration": 0.1682,
                "tempo": 120.0
            },
            {
                "pitch": 45,
                "velocity": 80,
                "duration": 0.2682,
                "tempo": 120.0
            },
            {
                "pitch": 52,
                "velocity": 80,
                "duration": 0.1682,
                "tempo": 120.0
            },
            {
                "pitch": 43,
                "velocity": 80,
                "duration": 0.1682,
                "tempo": 120.0
            },
            {
                "pitch": 42,
                "velocity": 80,
                "duration": 0.0682,
                "tempo": 120.0
            },
            {
                "pitch": 0,
                "velocity": 80,
                "duration": 0.7591,
                "tempo": 120.0
            },
            {
                "pitch": 0,
                "velocity": 80,
                "duration": 1.4886,
                "tempo": 120.0
            },
            {
                "pitch": 40,
                "velocity": 80,
                "duration": 2.4773,
                "tempo": 120.0
            },
            {
                "pitch": 0,
                "velocity": 80,
                "duration": 0.0659,
                "tempo": 120.0
            },
            {
                "pitch": 48,
                "velocity": 80,
                "duration": 0.0659,
                "tempo": 120.0
            },
            {
                "pitch": 0,
                "velocity": 80,
                "duration": 0.0659,
                "tempo": 120.0
            },
            {
                "pitch": 47,
                "velocity": 80,
                "duration": 0.0659,
                "tempo": 120.0
            },
            {
                "pitch": 0,
                "velocity": 80,
                "duration": 0.0682,
                "tempo": 120.0
            },
            {
                "pitch": 40,
                "velocity": 80,
                "duration": 0.0682,
                "tempo": 120.0
            },
            {
                "pitch": 0,
                "velocity": 80,
                "duration": 0.0682,
                "tempo": 120.0
            },
            {
                "pitch": 43,
                "velocity": 80,
                "duration": 0.0659,
                "tempo": 120.0
            },
            {
                "pitch": 45,
                "velocity": 80,
                "duration": 0.2614,
                "tempo": 120.0
            },
            {
                "pitch": 45,
                "velocity": 80,
                "duration": 0.0659,
                "tempo": 120.0
            },
            {
                "pitch": 0,
                "velocity": 80,
                "duration": 0.175,
                "tempo": 120.0
            },
            {
                "pitch": 45,
                "velocity": 80,
                "duration": 0.175,
                "tempo": 120.0
            },
            {
                "pitch": 0,
                "velocity": 80,
                "duration": 0.1636,
                "tempo": 120.0
            },
            {
                "pitch": 43,
                "velocity": 80,
                "duration": 0.0659,
                "tempo": 120.0
            },
            {
                "pitch": 0,
                "velocity": 80,
                "duration": 0.0659,
                "tempo": 120.0
            },
            {
                "pitch": 45,
                "velocity": 80,
                "duration": 0.1682,
                "tempo": 120.0
            },
            {
                "pitch": 0,
                "velocity": 80,
                "duration": 0.1659,
                "tempo": 120.0
            },
            {
                "pitch": 45,
                "velocity": 80,
                "duration": 0.2659,
                "tempo": 120.0
            },
            {
                "pitch": 45,
                "velocity": 80,
                "duration": 0.0659,
                "tempo": 120.0
            },
            {
                "pitch": 0,
                "velocity": 80,
                "duration": 0.1727,
                "tempo": 120.0
            },
            {
                "pitch": 45,
                "velocity": 80,
                "duration": 0.1705,
                "tempo": 120.0
            },
            {
                "pitch": 0,
                "velocity": 80,
                "duration": 0.1659,
                "tempo": 120.0
            },
            {
                "pitch": 43,
                "velocity": 80,
                "duration": 0.0659,
                "tempo": 120.0
            },
            {
                "pitch": 0,
                "velocity": 80,
                "duration": 0.0659,
                "tempo": 120.0
            },
            {
                "pitch": 45,
                "velocity": 80,
                "duration": 0.1636,
                "tempo": 120.0
            },
            {
                "pitch": 40,
                "velocity": 80,
                "duration": 0.1636,
                "tempo": 120.0
            },
            {
                "pitch": 45,
                "velocity": 80,
                "duration": 0.2682,
                "tempo": 120.0
            },
            {
                "pitch": 45,
                "velocity": 80,
                "duration": 0.0682,
                "tempo": 120.0
            },
            {
                "pitch": 0,
                "velocity": 80,
                "duration": 0.1705,
                "tempo": 120.0
            },
            {
                "pitch": 45,
                "velocity": 80,
                "duration": 0.1705,
                "tempo": 120.0
            },
            {
                "pitch": 0,
                "velocity": 80,
                "duration": 0.1614,
                "tempo": 120.0
            },
            {
                "pitch": 43,
                "velocity": 80,
                "duration": 0.0659,
                "tempo": 120.0
            },
            {
                "pitch": 0,
                "velocity": 80,
                "duration": 0.0659,
                "tempo": 120.0
            },
            {
                "pitch": 45,
                "velocity": 80,
                "duration": 0.1659,
                "tempo": 120.0
            },
            {
                "pitch": 0,
                "velocity": 80,
                "duration": 0.1659,
                "tempo": 120.0
            },
            {
                "pitch": 45,
                "velocity": 80,
                "duration": 0.2659,
                "tempo": 120.0
            },
            {
                "pitch": 45,
                "velocity": 80,
                "duration": 0.0659,
                "tempo": 120.0
            },
            {
                "pitch": 0,
                "velocity": 80,
                "duration": 0.1659,
                "tempo": 120.0
            },
            {
                "pitch": 45,
                "velocity": 80,
                "duration": 0.1659,
                "tempo": 120.0
            },
            {
                "pitch": 0,
                "velocity": 80,
                "duration": 0.1705,
                "tempo": 120.0
            },
            {
                "pitch": 43,
                "velocity": 80,
                "duration": 0.0705,
                "tempo": 120.0
            },
            {
                "pitch": 0,
                "velocity": 80,
                "duration": 0.0659,
                "tempo": 120.0
            },
            {
                "pitch": 45,
                "velocity": 80,
                "duration": 0.1636,
                "tempo": 120.0
            },
            {
                "pitch": 0,
                "velocity": 80,
                "duration": 0.1636,
                "tempo": 120.0
            },
            {
                "pitch": 45,
                "velocity": 80,
                "duration": 0.2659,
                "tempo": 120.0
            },
            {
                "pitch": 40,
                "velocity": 80,
                "duration": 0.0659,
                "tempo": 120.0
            },
            {
                "pitch": 40,
                "velocity": 80,
                "duration": 0.2659,
                "tempo": 120.0
            },
            {
                "pitch": 45,
                "velocity": 80,
                "duration": 0.0659,
                "tempo": 120.0
            },
            {
                "pitch": 45,
                "velocity": 80,
                "duration": 0.2659,
                "tempo": 120.0
            },
            {
                "pitch": 40,
                "velocity": 80,
                "duration": 0.0659,
                "tempo": 120.0
            },
            {
                "pitch": 40,
                "velocity": 80,
                "duration": 0.1682,
                "tempo": 120.0
            },
            {
                "pitch": 43,
                "velocity": 80,
                "duration": 0.0659,
                "tempo": 120.0
            },
            {
                "pitch": 45,
                "velocity": 80,
                "duration": 0.0659,
                "tempo": 120.0
            },
            {
                "pitch": 43,
                "velocity": 80,
                "duration": 0.2659,
                "tempo": 120.0
            },
            {
                "pitch": 38,
                "velocity": 80,
                "duration": 0.0659,
                "tempo": 120.0
            },
            {
                "pitch": 38,
                "velocity": 80,
                "duration": 0.2659,
                "tempo": 120.0
            },
            {
                "pitch": 43,
                "velocity": 80,
                "duration": 0.0659,
                "tempo": 120.0
            },
            {
                "pitch": 43,
                "velocity": 80,
                "duration": 0.2659,
                "tempo": 120.0
            },
            {
                "pitch": 38,
                "velocity": 80,
                "duration": 0.0659,
                "tempo": 120.0
            },
            {
                "pitch": 38,
                "velocity": 80,
                "duration": 0.0659,
                "tempo": 120.0
            },
            {
                "pitch": 45,
                "velocity": 80,
                "duration": 0.0659,
                "tempo": 120.0
            },
            {
                "pitch": 43,
                "velocity": 80,
                "duration": 0.0659,
                "tempo": 120.0
            },
            {
                "pitch": 42,
                "velocity": 80,
                "duration": 0.0659,
                "tempo": 120.0
            },
            {
                "pitch": 43,
                "velocity": 80,
                "duration": 0.2682,
                "tempo": 120.0
            },
            {
                "pitch": 38,
                "velocity": 80,
                "duration": 0.0682,
                "tempo": 120.0
            },
            {
                "pitch": 38,
                "velocity": 80,
                "duration": 0.2682,
                "tempo": 120.0
            },
            {
                "pitch": 43,
                "velocity": 80,
                "duration": 0.0682,
                "tempo": 120.0
            },
            {
                "pitch": 43,
                "velocity": 80,
                "duration": 0.2682,
                "tempo": 120.0
            },
            {
                "pitch": 38,
                "velocity": 80,
                "duration": 0.0682,
                "tempo": 120.0
            },
            {
                "pitch": 38,
                "velocity": 80,
                "duration": 0.1682,
                "tempo": 120.0
            },
            {
                "pitch": 43,
                "velocity": 80,
                "duration": 0.0682,
                "tempo": 120.0
            },
            {
                "pitch": 44,
                "velocity": 80,
                "duration": 0.0682,
                "tempo": 120.0
            },
            {
                "pitch": 45,
                "velocity": 80,
                "duration": 0.2682,
                "tempo": 120.0
            },
            {
                "pitch": 40,
                "velocity": 80,
                "duration": 0.0682,
                "tempo": 120.0
            },
            {
                "pitch": 40,
                "velocity": 80,
                "duration": 0.2682,
                "tempo": 120.0
            },
            {
                "pitch": 45,
                "velocity": 80,
                "duration": 0.0682,
                "tempo": 120.0
            },
            {
                "pitch": 45,
                "velocity": 80,
                "duration": 0.2682,
                "tempo": 120.0
            },
            {
                "pitch": 40,
                "velocity": 80,
                "duration": 0.0682,
                "tempo": 120.0
            },
            {
                "pitch": 40,
                "velocity": 80,
                "duration": 0.1682,
                "tempo": 120.0
            },
            {
                "pitch": 43,
                "velocity": 80,
                "duration": 0.0682,
                "tempo": 120.0
            },
            {
                "pitch": 45,
                "velocity": 80,
                "duration": 0.0682,
                "tempo": 120.0
            },
            {
                "pitch": 45,
                "velocity": 80,
                "duration": 0.2682,
                "tempo": 120.0
            },
            {
                "pitch": 40,
                "velocity": 80,
                "duration": 0.0682,
                "tempo": 120.0
            },
            {
                "pitch": 40,
                "velocity": 80,
                "duration": 0.2682,
                "tempo": 120.0
            },
            {
                "pitch": 45,
                "velocity": 80,
                "duration": 0.0682,
                "tempo": 120.0
            },
            {
                "pitch": 45,
                "velocity": 80,
                "duration": 0.2682,
                "tempo": 120.0
            },
            {
                "pitch": 40,
                "velocity": 80,
                "duration": 0.0682,
                "tempo": 120.0
            },
            {
                "pitch": 40,
                "velocity": 80,
                "duration": 0.1659,
                "tempo": 120.0
            },
            {
                "pitch": 43,
                "velocity": 80,
                "duration": 0.0659,
                "tempo": 120.0
            },
            {
                "pitch": 45,
                "velocity": 80,
                "duration": 0.0659,
                "tempo": 120.0
            },
            {
                "pitch": 43,
                "velocity": 80,
                "duration": 0.2659,
                "tempo": 120.0
            },
            {
                "pitch": 38,
                "velocity": 80,
                "duration": 0.0659,
                "tempo": 120.0
            },
            {
                "pitch": 38,
                "velocity": 80,
                "duration": 0.2659,
                "tempo": 120.0
            },
            {
                "pitch": 43,
                "velocity": 80,
                "duration": 0.0659,
                "tempo": 120.0
            },
            {
                "pitch": 43,
                "velocity": 80,
                "duration": 0.2659,
                "tempo": 120.0
            },
            {
                "pitch": 48,
                "velocity": 80,
                "duration": 0.0659,
                "tempo": 120.0
            },
            {
                "pitch": 48,
                "velocity": 80,
                "duration": 0.0659,
                "tempo": 120.0
            },
            {
                "pitch": 47,
                "velocity": 80,
                "duration": 0.0682,
                "tempo": 120.0
            },
            {
                "pitch": 43,
                "velocity": 80,
                "duration": 0.1682,
                "tempo": 120.0
            },
            {
                "pitch": 43,
                "velocity": 80,
                "duration": 0.2659,
                "tempo": 120.0
            },
            {
                "pitch": 38,
                "velocity": 80,
                "duration": 0.0659,
                "tempo": 120.0
            },
            {
                "pitch": 38,
                "velocity": 80,
                "duration": 0.2659,
                "tempo": 120.0
            },
            {
                "pitch": 43,
                "velocity": 80,
                "duration": 0.0659,
                "tempo": 120.0
            },
            {
                "pitch": 43,
                "velocity": 80,
                "duration": 0.2659,
                "tempo": 120.0
            },
            {
                "pitch": 38,
                "velocity": 80,
                "duration": 0.0659,
                "tempo": 120.0
            },
            {
                "pitch": 38,
                "velocity": 80,
                "duration": 0.1659,
                "tempo": 120.0
            },
            {
                "pitch": 43,
                "velocity": 80,
                "duration": 0.0659,
                "tempo": 120.0
            },
            {
                "pitch": 44,
                "velocity": 80,
                "duration": 0.0659,
                "tempo": 120.0
            },
            {
                "pitch": 45,
                "velocity": 80,
                "duration": 0.0659,
                "tempo": 120.0
            },
            {
                "pitch": 45,
                "velocity": 80,
                "duration": 0.0682,
                "tempo": 120.0
            },
            {
                "pitch": 45,
                "velocity": 80,
                "duration": 0.0682,
                "tempo": 120.0
            },
            {
                "pitch": 0,
                "velocity": 80,
                "duration": 0.2659,
                "tempo": 120.0
            },
            {
                "pitch": 45,
                "velocity": 80,
                "duration": 0.0659,
                "tempo": 120.0
            },
            {
                "pitch": 45,
                "velocity": 80,
                "duration": 0.0659,
                "tempo": 120.0
            },
            {
                "pitch": 45,
                "velocity": 80,
                "duration": 0.0659,
                "tempo": 120.0
            },
            {
                "pitch": 0,
                "velocity": 80,
                "duration": 0.2659,
                "tempo": 120.0
            },
            {
                "pitch": 0,
                "velocity": 80,
                "duration": 0.3659,
                "tempo": 120.0
            },
            {
                "pitch": 41,
                "velocity": 80,
                "duration": 0.2659,
                "tempo": 120.0
            },
            {
                "pitch": 48,
                "velocity": 80,
                "duration": 0.0659,
                "tempo": 120.0
            },
            {
                "pitch": 48,
                "velocity": 80,
                "duration": 0.0682,
                "tempo": 120.0
            },
            {
                "pitch": 53,
                "velocity": 80,
                "duration": 0.1682,
                "tempo": 120.0
            },
            {
                "pitch": 48,
                "velocity": 80,
                "duration": 0.0659,
                "tempo": 120.0
            },
            {
                "pitch": 43,
                "velocity": 80,
                "duration": 0.2659,
                "tempo": 120.0
            },
            {
                "pitch": 50,
                "velocity": 80,
                "duration": 0.0682,
                "tempo": 120.0
            },
            {
                "pitch": 50,
                "velocity": 80,
                "duration": 0.0682,
                "tempo": 120.0
            },
            {
                "pitch": 55,
                "velocity": 80,
                "duration": 0.1705,
                "tempo": 120.0
            },
            {
                "pitch": 50,
                "velocity": 80,
                "duration": 0.0682,
                "tempo": 120.0
            },
            {
                "pitch": 45,
                "velocity": 80,
                "duration": 0.2614,
                "tempo": 120.0
            },
            {
                "pitch": 52,
                "velocity": 80,
                "duration": 0.0659,
                "tempo": 120.0
            },
            {
                "pitch": 52,
                "velocity": 80,
                "duration": 0.0682,
                "tempo": 120.0
            },
            {
                "pitch": 57,
                "velocity": 80,
                "duration": 0.1705,
                "tempo": 120.0
            },
            {
                "pitch": 55,
                "velocity": 80,
                "duration": 0.1636,
                "tempo": 120.0
            },
            {
                "pitch": 52,
                "velocity": 80,
                "duration": 0.0636,
                "tempo": 120.0
            },
            {
                "pitch": 52,
                "velocity": 80,
                "duration": 0.0636,
                "tempo": 120.0
            },
            {
                "pitch": 59,
                "velocity": 80,
                "duration": 0.0636,
                "tempo": 120.0
            },
            {
                "pitch": 57,
                "velocity": 80,
                "duration": 0.3773,
                "tempo": 120.0
            },
            {
                "pitch": 41,
                "velocity": 80,
                "duration": 0.2659,
                "tempo": 120.0
            },
            {
                "pitch": 48,
                "velocity": 80,
                "duration": 0.0659,
                "tempo": 120.0
            },
            {
                "pitch": 48,
                "velocity": 80,
                "duration": 0.0659,
                "tempo": 120.0
            },
            {
                "pitch": 53,
                "velocity": 80,
                "duration": 0.1659,
                "tempo": 120.0
            },
            {
                "pitch": 48,
                "velocity": 80,
                "duration": 0.0659,
                "tempo": 120.0
            },
            {
                "pitch": 43,
                "velocity": 80,
                "duration": 0.2659,
                "tempo": 120.0
            },
            {
                "pitch": 50,
                "velocity": 80,
                "duration": 0.0659,
                "tempo": 120.0
            },
            {
                "pitch": 50,
                "velocity": 80,
                "duration": 0.0682,
                "tempo": 120.0
            },
            {
                "pitch": 55,
                "velocity": 80,
                "duration": 0.1727,
                "tempo": 120.0
            },
            {
                "pitch": 50,
                "velocity": 80,
                "duration": 0.0682,
                "tempo": 120.0
            },
            {
                "pitch": 45,
                "velocity": 80,
                "duration": 0.2614,
                "tempo": 120.0
            },
            {
                "pitch": 52,
                "velocity": 80,
                "duration": 0.0659,
                "tempo": 120.0
            },
            {
                "pitch": 52,
                "velocity": 80,
                "duration": 0.0659,
                "tempo": 120.0
            },
            {
                "pitch": 59,
                "velocity": 80,
                "duration": 0.1659,
                "tempo": 120.0
            },
            {
                "pitch": 57,
                "velocity": 80,
                "duration": 0.2614,
                "tempo": 120.0
            },
            {
                "pitch": 57,
                "velocity": 80,
                "duration": 0.1636,
                "tempo": 120.0
            },
            {
                "pitch": 57,
                "velocity": 80,
                "duration": 0.1773,
                "tempo": 120.0
            },
            {
                "pitch": 55,
                "velocity": 80,
                "duration": 0.175,
                "tempo": 120.0
            },
            {
                "pitch": 41,
                "velocity": 80,
                "duration": 0.2636,
                "tempo": 120.0
            },
            {
                "pitch": 48,
                "velocity": 80,
                "duration": 0.0659,
                "tempo": 120.0
            },
            {
                "pitch": 48,
                "velocity": 80,
                "duration": 0.0682,
                "tempo": 120.0
            },
            {
                "pitch": 53,
                "velocity": 80,
                "duration": 0.1682,
                "tempo": 120.0
            },
            {
                "pitch": 48,
                "velocity": 80,
                "duration": 0.0682,
                "tempo": 120.0
            },
            {
                "pitch": 43,
                "velocity": 80,
                "duration": 0.2727,
                "tempo": 120.0
            },
            {
                "pitch": 50,
                "velocity": 80,
                "duration": 0.0682,
                "tempo": 120.0
            },
            {
                "pitch": 50,
                "velocity": 80,
                "duration": 0.0682,
                "tempo": 120.0
            },
            {
                "pitch": 55,
                "velocity": 80,
                "duration": 0.1682,
                "tempo": 120.0
            },
            {
                "pitch": 50,
                "velocity": 80,
                "duration": 0.0659,
                "tempo": 120.0
            },
            {
                "pitch": 45,
                "velocity": 80,
                "duration": 0.2614,
                "tempo": 120.0
            },
            {
                "pitch": 52,
                "velocity": 80,
                "duration": 0.0659,
                "tempo": 120.0
            },
            {
                "pitch": 52,
                "velocity": 80,
                "duration": 0.0682,
                "tempo": 120.0
            },
            {
                "pitch": 57,
                "velocity": 80,
                "duration": 0.1682,
                "tempo": 120.0
            },
            {
                "pitch": 55,
                "velocity": 80,
                "duration": 0.1636,
                "tempo": 120.0
            },
            {
                "pitch": 52,
                "velocity": 80,
                "duration": 0.0636,
                "tempo": 120.0
            },
            {
                "pitch": 52,
                "velocity": 80,
                "duration": 0.0636,
                "tempo": 120.0
            },
            {
                "pitch": 59,
                "velocity": 80,
                "duration": 0.0659,
                "tempo": 120.0
            },
            {
                "pitch": 57,
                "velocity": 80,
                "duration": 0.3773,
                "tempo": 120.0
            },
            {
                "pitch": 41,
                "velocity": 80,
                "duration": 0.2682,
                "tempo": 120.0
            },
            {
                "pitch": 48,
                "velocity": 80,
                "duration": 0.0682,
                "tempo": 120.0
            },
            {
                "pitch": 48,
                "velocity": 80,
                "duration": 0.0682,
                "tempo": 120.0
            },
            {
                "pitch": 53,
                "velocity": 80,
                "duration": 0.1682,
                "tempo": 120.0
            },
            {
                "pitch": 48,
                "velocity": 80,
                "duration": 0.0682,
                "tempo": 120.0
            },
            {
                "pitch": 43,
                "velocity": 80,
                "duration": 0.2727,
                "tempo": 120.0
            },
            {
                "pitch": 50,
                "velocity": 80,
                "duration": 0.0682,
                "tempo": 120.0
            },
            {
                "pitch": 50,
                "velocity": 80,
                "duration": 0.0636,
                "tempo": 120.0
            },
            {
                "pitch": 55,
                "velocity": 80,
                "duration": 0.1636,
                "tempo": 120.0
            },
            {
                "pitch": 50,
                "velocity": 80,
                "duration": 0.0659,
                "tempo": 120.0
            },
            {
                "pitch": 45,
                "velocity": 80,
                "duration": 0.2727,
                "tempo": 120.0
            },
            {
                "pitch": 52,
                "velocity": 80,
                "duration": 0.0659,
                "tempo": 120.0
            },
            {
                "pitch": 52,
                "velocity": 80,
                "duration": 0.0636,
                "tempo": 120.0
            },
            {
                "pitch": 59,
                "velocity": 80,
                "duration": 0.1636,
                "tempo": 120.0
            },
            {
                "pitch": 57,
                "velocity": 80,
                "duration": 0.2659,
                "tempo": 120.0
            },
            {
                "pitch": 57,
                "velocity": 80,
                "duration": 0.1659,
                "tempo": 120.0
            },
            {
                "pitch": 57,
                "velocity": 80,
                "duration": 0.1682,
                "tempo": 120.0
            },
            {
                "pitch": 55,
                "velocity": 80,
                "duration": 0.1682,
                "tempo": 120.0
            },
            {
                "pitch": 57,
                "velocity": 80,
                "duration": 0.1659,
                "tempo": 120.0
            },
            {
                "pitch": 0,
                "velocity": 80,
                "duration": 2.975,
                "tempo": 120.0
            },
            {
                "pitch": 45,
                "velocity": 80,
                "duration": 0.2682,
                "tempo": 120.0
            },
            {
                "pitch": 45,
                "velocity": 80,
                "duration": 0.0682,
                "tempo": 120.0
            },
            {
                "pitch": 0,
                "velocity": 80,
                "duration": 0.1705,
                "tempo": 120.0
            },
            {
                "pitch": 45,
                "velocity": 80,
                "duration": 0.1727,
                "tempo": 120.0
            },
            {
                "pitch": 0,
                "velocity": 80,
                "duration": 0.1682,
                "tempo": 120.0
            },
            {
                "pitch": 43,
                "velocity": 80,
                "duration": 0.0659,
                "tempo": 120.0
            },
            {
                "pitch": 0,
                "velocity": 80,
                "duration": 0.0682,
                "tempo": 120.0
            },
            {
                "pitch": 45,
                "velocity": 80,
                "duration": 0.1636,
                "tempo": 120.0
            },
            {
                "pitch": 0,
                "velocity": 80,
                "duration": 0.1636,
                "tempo": 120.0
            },
            {
                "pitch": 45,
                "velocity": 80,
                "duration": 0.2682,
                "tempo": 120.0
            },
            {
                "pitch": 45,
                "velocity": 80,
                "duration": 0.0682,
                "tempo": 120.0
            },
            {
                "pitch": 0,
                "velocity": 80,
                "duration": 0.1705,
                "tempo": 120.0
            },
            {
                "pitch": 45,
                "velocity": 80,
                "duration": 0.1705,
                "tempo": 120.0
            },
            {
                "pitch": 0,
                "velocity": 80,
                "duration": 0.1659,
                "tempo": 120.0
            },
            {
                "pitch": 43,
                "velocity": 80,
                "duration": 0.0659,
                "tempo": 120.0
            },
            {
                "pitch": 0,
                "velocity": 80,
                "duration": 0.0659,
                "tempo": 120.0
            },
            {
                "pitch": 45,
                "velocity": 80,
                "duration": 0.1614,
                "tempo": 120.0
            },
            {
                "pitch": 40,
                "velocity": 80,
                "duration": 0.1636,
                "tempo": 120.0
            },
            {
                "pitch": 45,
                "velocity": 80,
                "duration": 0.2682,
                "tempo": 120.0
            },
            {
                "pitch": 45,
                "velocity": 80,
                "duration": 0.0659,
                "tempo": 120.0
            },
            {
                "pitch": 0,
                "velocity": 80,
                "duration": 0.1727,
                "tempo": 120.0
            },
            {
                "pitch": 45,
                "velocity": 80,
                "duration": 0.1705,
                "tempo": 120.0
            },
            {
                "pitch": 0,
                "velocity": 80,
                "duration": 0.1636,
                "tempo": 120.0
            },
            {
                "pitch": 43,
                "velocity": 80,
                "duration": 0.0659,
                "tempo": 120.0
            },
            {
                "pitch": 0,
                "velocity": 80,
                "duration": 0.0659,
                "tempo": 120.0
            },
            {
                "pitch": 45,
                "velocity": 80,
                "duration": 0.1682,
                "tempo": 120.0
            },
            {
                "pitch": 0,
                "velocity": 80,
                "duration": 0.1659,
                "tempo": 120.0
            },
            {
                "pitch": 45,
                "velocity": 80,
                "duration": 0.2659,
                "tempo": 120.0
            },
            {
                "pitch": 45,
                "velocity": 80,
                "duration": 0.0682,
                "tempo": 120.0
            },
            {
                "pitch": 0,
                "velocity": 80,
                "duration": 0.1682,
                "tempo": 120.0
            },
            {
                "pitch": 45,
                "velocity": 80,
                "duration": 0.1682,
                "tempo": 120.0
            },
            {
                "pitch": 0,
                "velocity": 80,
                "duration": 0.1705,
                "tempo": 120.0
            },
            {
                "pitch": 43,
                "velocity": 80,
                "duration": 0.0682,
                "tempo": 120.0
            },
            {
                "pitch": 0,
                "velocity": 80,
                "duration": 0.0682,
                "tempo": 120.0
            },
            {
                "pitch": 45,
                "velocity": 80,
                "duration": 0.1636,
                "tempo": 120.0
            },
            {
                "pitch": 0,
                "velocity": 80,
                "duration": 0.1636,
                "tempo": 120.0
            },
            {
                "pitch": 45,
                "velocity": 80,
                "duration": 0.2682,
                "tempo": 120.0
            },
            {
                "pitch": 40,
                "velocity": 80,
                "duration": 0.0659,
                "tempo": 120.0
            },
            {
                "pitch": 40,
                "velocity": 80,
                "duration": 0.2659,
                "tempo": 120.0
            },
            {
                "pitch": 45,
                "velocity": 80,
                "duration": 0.0659,
                "tempo": 120.0
            },
            {
                "pitch": 45,
                "velocity": 80,
                "duration": 0.2682,
                "tempo": 120.0
            },
            {
                "pitch": 40,
                "velocity": 80,
                "duration": 0.0659,
                "tempo": 120.0
            },
            {
                "pitch": 40,
                "velocity": 80,
                "duration": 0.1682,
                "tempo": 120.0
            },
            {
                "pitch": 43,
                "velocity": 80,
                "duration": 0.0659,
                "tempo": 120.0
            },
            {
                "pitch": 45,
                "velocity": 80,
                "duration": 0.0659,
                "tempo": 120.0
            },
            {
                "pitch": 43,
                "velocity": 80,
                "duration": 0.2659,
                "tempo": 120.0
            },
            {
                "pitch": 38,
                "velocity": 80,
                "duration": 0.0682,
                "tempo": 120.0
            },
            {
                "pitch": 38,
                "velocity": 80,
                "duration": 0.2682,
                "tempo": 120.0
            },
            {
                "pitch": 43,
                "velocity": 80,
                "duration": 0.0682,
                "tempo": 120.0
            },
            {
                "pitch": 43,
                "velocity": 80,
                "duration": 0.2682,
                "tempo": 120.0
            },
            {
                "pitch": 38,
                "velocity": 80,
                "duration": 0.0682,
                "tempo": 120.0
            },
            {
                "pitch": 38,
                "velocity": 80,
                "duration": 0.0682,
                "tempo": 120.0
            },
            {
                "pitch": 45,
                "velocity": 80,
                "duration": 0.0659,
                "tempo": 120.0
            },
            {
                "pitch": 43,
                "velocity": 80,
                "duration": 0.0682,
                "tempo": 120.0
            },
            {
                "pitch": 42,
                "velocity": 80,
                "duration": 0.0682,
                "tempo": 120.0
            },
            {
                "pitch": 43,
                "velocity": 80,
                "duration": 0.2682,
                "tempo": 120.0
            },
            {
                "pitch": 38,
                "velocity": 80,
                "duration": 0.0659,
                "tempo": 120.0
            },
            {
                "pitch": 38,
                "velocity": 80,
                "duration": 0.2659,
                "tempo": 120.0
            },
            {
                "pitch": 43,
                "velocity": 80,
                "duration": 0.0659,
                "tempo": 120.0
            },
            {
                "pitch": 43,
                "velocity": 80,
                "duration": 0.2682,
                "tempo": 120.0
            },
            {
                "pitch": 38,
                "velocity": 80,
                "duration": 0.0659,
                "tempo": 120.0
            },
            {
                "pitch": 38,
                "velocity": 80,
                "duration": 0.1659,
                "tempo": 120.0
            },
            {
                "pitch": 43,
                "velocity": 80,
                "duration": 0.0659,
                "tempo": 120.0
            },
            {
                "pitch": 44,
                "velocity": 80,
                "duration": 0.0659,
                "tempo": 120.0
            },
            {
                "pitch": 45,
                "velocity": 80,
                "duration": 0.2682,
                "tempo": 120.0
            },
            {
                "pitch": 40,
                "velocity": 80,
                "duration": 0.0659,
                "tempo": 120.0
            },
            {
                "pitch": 40,
                "velocity": 80,
                "duration": 0.2682,
                "tempo": 120.0
            },
            {
                "pitch": 45,
                "velocity": 80,
                "duration": 0.0682,
                "tempo": 120.0
            },
            {
                "pitch": 45,
                "velocity": 80,
                "duration": 0.2682,
                "tempo": 120.0
            },
            {
                "pitch": 40,
                "velocity": 80,
                "duration": 0.0682,
                "tempo": 120.0
            },
            {
                "pitch": 40,
                "velocity": 80,
                "duration": 0.1682,
                "tempo": 120.0
            },
            {
                "pitch": 43,
                "velocity": 80,
                "duration": 0.0682,
                "tempo": 120.0
            },
            {
                "pitch": 45,
                "velocity": 80,
                "duration": 0.0682,
                "tempo": 120.0
            },
            {
                "pitch": 45,
                "velocity": 80,
                "duration": 0.2682,
                "tempo": 120.0
            },
            {
                "pitch": 40,
                "velocity": 80,
                "duration": 0.0682,
                "tempo": 120.0
            },
            {
                "pitch": 40,
                "velocity": 80,
                "duration": 0.2682,
                "tempo": 120.0
            },
            {
                "pitch": 45,
                "velocity": 80,
                "duration": 0.0682,
                "tempo": 120.0
            },
            {
                "pitch": 45,
                "velocity": 80,
                "duration": 0.2682,
                "tempo": 120.0
            },
            {
                "pitch": 40,
                "velocity": 80,
                "duration": 0.0659,
                "tempo": 120.0
            },
            {
                "pitch": 40,
                "velocity": 80,
                "duration": 0.1659,
                "tempo": 120.0
            },
            {
                "pitch": 43,
                "velocity": 80,
                "duration": 0.0659,
                "tempo": 120.0
            },
            {
                "pitch": 45,
                "velocity": 80,
                "duration": 0.0659,
                "tempo": 120.0
            },
            {
                "pitch": 43,
                "velocity": 80,
                "duration": 0.2682,
                "tempo": 120.0
            },
            {
                "pitch": 38,
                "velocity": 80,
                "duration": 0.0659,
                "tempo": 120.0
            },
            {
                "pitch": 38,
                "velocity": 80,
                "duration": 0.2659,
                "tempo": 120.0
            },
            {
                "pitch": 43,
                "velocity": 80,
                "duration": 0.0659,
                "tempo": 120.0
            },
            {
                "pitch": 43,
                "velocity": 80,
                "duration": 0.2682,
                "tempo": 120.0
            },
            {
                "pitch": 48,
                "velocity": 80,
                "duration": 0.0682,
                "tempo": 120.0
            },
            {
                "pitch": 48,
                "velocity": 80,
                "duration": 0.0682,
                "tempo": 120.0
            },
            {
                "pitch": 47,
                "velocity": 80,
                "duration": 0.0659,
                "tempo": 120.0
            },
            {
                "pitch": 43,
                "velocity": 80,
                "duration": 0.1682,
                "tempo": 120.0
            },
            {
                "pitch": 43,
                "velocity": 80,
                "duration": 0.2682,
                "tempo": 120.0
            },
            {
                "pitch": 38,
                "velocity": 80,
                "duration": 0.0682,
                "tempo": 120.0
            },
            {
                "pitch": 38,
                "velocity": 80,
                "duration": 0.2705,
                "tempo": 120.0
            },
            {
                "pitch": 43,
                "velocity": 80,
                "duration": 0.0682,
                "tempo": 120.0
            },
            {
                "pitch": 43,
                "velocity": 80,
                "duration": 0.2659,
                "tempo": 120.0
            },
            {
                "pitch": 38,
                "velocity": 80,
                "duration": 0.0659,
                "tempo": 120.0
            },
            {
                "pitch": 38,
                "velocity": 80,
                "duration": 0.1659,
                "tempo": 120.0
            },
            {
                "pitch": 43,
                "velocity": 80,
                "duration": 0.0682,
                "tempo": 120.0
            },
            {
                "pitch": 44,
                "velocity": 80,
                "duration": 0.0659,
                "tempo": 120.0
            },
            {
                "pitch": 45,
                "velocity": 80,
                "duration": 0.0659,
                "tempo": 120.0
            },
            {
                "pitch": 45,
                "velocity": 80,
                "duration": 0.0682,
                "tempo": 120.0
            },
            {
                "pitch": 45,
                "velocity": 80,
                "duration": 0.0682,
                "tempo": 120.0
            },
            {
                "pitch": 0,
                "velocity": 80,
                "duration": 0.2659,
                "tempo": 120.0
            },
            {
                "pitch": 45,
                "velocity": 80,
                "duration": 0.0659,
                "tempo": 120.0
            },
            {
                "pitch": 45,
                "velocity": 80,
                "duration": 0.0659,
                "tempo": 120.0
            },
            {
                "pitch": 45,
                "velocity": 80,
                "duration": 0.0682,
                "tempo": 120.0
            },
            {
                "pitch": 0,
                "velocity": 80,
                "duration": 0.2682,
                "tempo": 120.0
            },
            {
                "pitch": 0,
                "velocity": 80,
                "duration": 0.3659,
                "tempo": 120.0
            },
            {
                "pitch": 41,
                "velocity": 80,
                "duration": 0.2682,
                "tempo": 120.0
            },
            {
                "pitch": 48,
                "velocity": 80,
                "duration": 0.0682,
                "tempo": 120.0
            },
            {
                "pitch": 48,
                "velocity": 80,
                "duration": 0.0682,
                "tempo": 120.0
            },
            {
                "pitch": 53,
                "velocity": 80,
                "duration": 0.1682,
                "tempo": 120.0
            },
            {
                "pitch": 48,
                "velocity": 80,
                "duration": 0.0682,
                "tempo": 120.0
            },
            {
                "pitch": 43,
                "velocity": 80,
                "duration": 0.2682,
                "tempo": 120.0
            },
            {
                "pitch": 50,
                "velocity": 80,
                "duration": 0.0682,
                "tempo": 120.0
            },
            {
                "pitch": 50,
                "velocity": 80,
                "duration": 0.0682,
                "tempo": 120.0
            },
            {
                "pitch": 55,
                "velocity": 80,
                "duration": 0.1705,
                "tempo": 120.0
            },
            {
                "pitch": 50,
                "velocity": 80,
                "duration": 0.0659,
                "tempo": 120.0
            },
            {
                "pitch": 45,
                "velocity": 80,
                "duration": 0.2614,
                "tempo": 120.0
            },
            {
                "pitch": 52,
                "velocity": 80,
                "duration": 0.0659,
                "tempo": 120.0
            },
            {
                "pitch": 52,
                "velocity": 80,
                "duration": 0.0682,
                "tempo": 120.0
            },
            {
                "pitch": 57,
                "velocity": 80,
                "duration": 0.1727,
                "tempo": 120.0
            },
            {
                "pitch": 55,
                "velocity": 80,
                "duration": 0.1614,
                "tempo": 120.0
            },
            {
                "pitch": 52,
                "velocity": 80,
                "duration": 0.0636,
                "tempo": 120.0
            },
            {
                "pitch": 52,
                "velocity": 80,
                "duration": 0.0636,
                "tempo": 120.0
            },
            {
                "pitch": 59,
                "velocity": 80,
                "duration": 0.0636,
                "tempo": 120.0
            },
            {
                "pitch": 57,
                "velocity": 80,
                "duration": 0.3864,
                "tempo": 120.0
            },
            {
                "pitch": 41,
                "velocity": 80,
                "duration": 0.2614,
                "tempo": 120.0
            },
            {
                "pitch": 48,
                "velocity": 80,
                "duration": 0.0636,
                "tempo": 120.0
            },
            {
                "pitch": 48,
                "velocity": 80,
                "duration": 0.0659,
                "tempo": 120.0
            },
            {
                "pitch": 53,
                "velocity": 80,
                "duration": 0.1659,
                "tempo": 120.0
            },
            {
                "pitch": 48,
                "velocity": 80,
                "duration": 0.0682,
                "tempo": 120.0
            },
            {
                "pitch": 43,
                "velocity": 80,
                "duration": 0.2682,
                "tempo": 120.0
            },
            {
                "pitch": 50,
                "velocity": 80,
                "duration": 0.0682,
                "tempo": 120.0
            },
            {
                "pitch": 50,
                "velocity": 80,
                "duration": 0.0682,
                "tempo": 120.0
            },
            {
                "pitch": 55,
                "velocity": 80,
                "duration": 0.1705,
                "tempo": 120.0
            },
            {
                "pitch": 50,
                "velocity": 80,
                "duration": 0.0682,
                "tempo": 120.0
            },
            {
                "pitch": 45,
                "velocity": 80,
                "duration": 0.2614,
                "tempo": 120.0
            },
            {
                "pitch": 52,
                "velocity": 80,
                "duration": 0.0659,
                "tempo": 120.0
            },
            {
                "pitch": 52,
                "velocity": 80,
                "duration": 0.0659,
                "tempo": 120.0
            },
            {
                "pitch": 59,
                "velocity": 80,
                "duration": 0.1682,
                "tempo": 120.0
            },
            {
                "pitch": 57,
                "velocity": 80,
                "duration": 0.2614,
                "tempo": 120.0
            },
            {
                "pitch": 57,
                "velocity": 80,
                "duration": 0.1636,
                "tempo": 120.0
            },
            {
                "pitch": 57,
                "velocity": 80,
                "duration": 0.1773,
                "tempo": 120.0
            },
            {
                "pitch": 55,
                "velocity": 80,
                "duration": 0.175,
                "tempo": 120.0
            },
            {
                "pitch": 41,
                "velocity": 80,
                "duration": 0.2614,
                "tempo": 120.0
            },
            {
                "pitch": 48,
                "velocity": 80,
                "duration": 0.0659,
                "tempo": 120.0
            },
            {
                "pitch": 48,
                "velocity": 80,
                "duration": 0.0682,
                "tempo": 120.0
            },
            {
                "pitch": 53,
                "velocity": 80,
                "duration": 0.1682,
                "tempo": 120.0
            },
            {
                "pitch": 48,
                "velocity": 80,
                "duration": 0.0682,
                "tempo": 120.0
            },
            {
                "pitch": 43,
                "velocity": 80,
                "duration": 0.2705,
                "tempo": 120.0
            },
            {
                "pitch": 50,
                "velocity": 80,
                "duration": 0.0682,
                "tempo": 120.0
            },
            {
                "pitch": 50,
                "velocity": 80,
                "duration": 0.0659,
                "tempo": 120.0
            },
            {
                "pitch": 55,
                "velocity": 80,
                "duration": 0.1659,
                "tempo": 120.0
            },
            {
                "pitch": 50,
                "velocity": 80,
                "duration": 0.0659,
                "tempo": 120.0
            },
            {
                "pitch": 45,
                "velocity": 80,
                "duration": 0.2682,
                "tempo": 120.0
            },
            {
                "pitch": 52,
                "velocity": 80,
                "duration": 0.0659,
                "tempo": 120.0
            },
            {
                "pitch": 52,
                "velocity": 80,
                "duration": 0.0659,
                "tempo": 120.0
            },
            {
                "pitch": 57,
                "velocity": 80,
                "duration": 0.1682,
                "tempo": 120.0
            },
            {
                "pitch": 55,
                "velocity": 80,
                "duration": 0.1636,
                "tempo": 120.0
            },
            {
                "pitch": 52,
                "velocity": 80,
                "duration": 0.0659,
                "tempo": 120.0
            },
            {
                "pitch": 52,
                "velocity": 80,
                "duration": 0.0636,
                "tempo": 120.0
            },
            {
                "pitch": 59,
                "velocity": 80,
                "duration": 0.0659,
                "tempo": 120.0
            },
            {
                "pitch": 57,
                "velocity": 80,
                "duration": 0.3864,
                "tempo": 120.0
            },
            {
                "pitch": 41,
                "velocity": 80,
                "duration": 0.2636,
                "tempo": 120.0
            },
            {
                "pitch": 48,
                "velocity": 80,
                "duration": 0.0659,
                "tempo": 120.0
            },
            {
                "pitch": 48,
                "velocity": 80,
                "duration": 0.0659,
                "tempo": 120.0
            },
            {
                "pitch": 53,
                "velocity": 80,
                "duration": 0.1682,
                "tempo": 120.0
            },
            {
                "pitch": 48,
                "velocity": 80,
                "duration": 0.0682,
                "tempo": 120.0
            },
            {
                "pitch": 43,
                "velocity": 80,
                "duration": 0.2682,
                "tempo": 120.0
            },
            {
                "pitch": 50,
                "velocity": 80,
                "duration": 0.0659,
                "tempo": 120.0
            },
            {
                "pitch": 50,
                "velocity": 80,
                "duration": 0.0659,
                "tempo": 120.0
            },
            {
                "pitch": 55,
                "velocity": 80,
                "duration": 0.1659,
                "tempo": 120.0
            },
            {
                "pitch": 50,
                "velocity": 80,
                "duration": 0.0659,
                "tempo": 120.0
            },
            {
                "pitch": 45,
                "velocity": 80,
                "duration": 0.2614,
                "tempo": 120.0
            },
            {
                "pitch": 52,
                "velocity": 80,
                "duration": 0.0659,
                "tempo": 120.0
            },
            {
                "pitch": 52,
                "velocity": 80,
                "duration": 0.0682,
                "tempo": 120.0
            },
            {
                "pitch": 59,
                "velocity": 80,
                "duration": 0.1705,
                "tempo": 120.0
            },
            {
                "pitch": 57,
                "velocity": 80,
                "duration": 0.2682,
                "tempo": 120.0
            },
            {
                "pitch": 57,
                "velocity": 80,
                "duration": 0.1682,
                "tempo": 120.0
            },
            {
                "pitch": 57,
                "velocity": 80,
                "duration": 0.1682,
                "tempo": 120.0
            },
            {
                "pitch": 55,
                "velocity": 80,
                "duration": 0.1682,
                "tempo": 120.0
            },
            {
                "pitch": 57,
                "velocity": 80,
                "duration": 0.1682,
                "tempo": 120.0
            },
            {
                "pitch": 0,
                "velocity": 80,
                "duration": 2.9773,
                "tempo": 120.0
            },
            {
                "pitch": 0,
                "velocity": 80,
                "duration": 0.0636,
                "tempo": 120.0
            },
            {
                "pitch": 45,
                "velocity": 80,
                "duration": 0.0659,
                "tempo": 120.0
            },
            {
                "pitch": 0,
                "velocity": 80,
                "duration": 0.0659,
                "tempo": 120.0
            },
            {
                "pitch": 48,
                "velocity": 80,
                "duration": 0.0614,
                "tempo": 120.0
            },
            {
                "pitch": 0,
                "velocity": 80,
                "duration": 0.0614,
                "tempo": 120.0
            },
            {
                "pitch": 50,
                "velocity": 80,
                "duration": 0.0614,
                "tempo": 120.0
            },
            {
                "pitch": 0,
                "velocity": 80,
                "duration": 0.0614,
                "tempo": 120.0
            },
            {
                "pitch": 52,
                "velocity": 80,
                "duration": 0.0659,
                "tempo": 120.0
            },
            {
                "pitch": 0,
                "velocity": 80,
                "duration": 0.0682,
                "tempo": 120.0
            },
            {
                "pitch": 50,
                "velocity": 80,
                "duration": 0.0659,
                "tempo": 120.0
            },
            {
                "pitch": 0,
                "velocity": 80,
                "duration": 0.0659,
                "tempo": 120.0
            },
            {
                "pitch": 52,
                "velocity": 80,
                "duration": 0.0636,
                "tempo": 120.0
            },
            {
                "pitch": 0,
                "velocity": 80,
                "duration": 0.0636,
                "tempo": 120.0
            },
            {
                "pitch": 55,
                "velocity": 80,
                "duration": 0.0636,
                "tempo": 120.0
            },
            {
                "pitch": 0,
                "velocity": 80,
                "duration": 0.0636,
                "tempo": 120.0
            },
            {
                "pitch": 57,
                "velocity": 80,
                "duration": 0.0591,
                "tempo": 120.0
            },
            {
                "pitch": 0,
                "velocity": 80,
                "duration": 0.0591,
                "tempo": 120.0
            },
            {
                "pitch": 57,
                "velocity": 80,
                "duration": 0.0614,
                "tempo": 120.0
            },
            {
                "pitch": 0,
                "velocity": 80,
                "duration": 0.0614,
                "tempo": 120.0
            },
            {
                "pitch": 60,
                "velocity": 80,
                "duration": 0.0682,
                "tempo": 120.0
            },
            {
                "pitch": 0,
                "velocity": 80,
                "duration": 0.0659,
                "tempo": 120.0
            },
            {
                "pitch": 62,
                "velocity": 80,
                "duration": 0.0659,
                "tempo": 120.0
            },
            {
                "pitch": 0,
                "velocity": 80,
                "duration": 0.0682,
                "tempo": 120.0
            },
            {
                "pitch": 64,
                "velocity": 80,
                "duration": 0.0682,
                "tempo": 120.0
            },
            {
                "pitch": 0,
                "velocity": 80,
                "duration": 0.0682,
                "tempo": 120.0
            },
            {
                "pitch": 67,
                "velocity": 80,
                "duration": 0.0682,
                "tempo": 120.0
            },
            {
                "pitch": 0,
                "velocity": 80,
                "duration": 0.0659,
                "tempo": 120.0
            },
            {
                "pitch": 68,
                "velocity": 80,
                "duration": 0.0636,
                "tempo": 120.0
            },
            {
                "pitch": 0,
                "velocity": 80,
                "duration": 0.0659,
                "tempo": 120.0
            },
            {
                "pitch": 69,
                "velocity": 80,
                "duration": 1.4773,
                "tempo": 120.0
            },
            {
                "pitch": 0,
                "velocity": 80,
                "duration": 0.4727,
                "tempo": 120.0
            },
            {
                "pitch": 41,
                "velocity": 80,
                "duration": 0.0682,
                "tempo": 120.0
            },
            {
                "pitch": 0,
                "velocity": 80,
                "duration": 0.0682,
                "tempo": 120.0
            },
            {
                "pitch": 53,
                "velocity": 80,
                "duration": 0.075,
                "tempo": 120.0
            },
            {
                "pitch": 0,
                "velocity": 80,
                "duration": 0.2932,
                "tempo": 120.0
            },
            {
                "pitch": 43,
                "velocity": 80,
                "duration": 0.0705,
                "tempo": 120.0
            },
            {
                "pitch": 0,
                "velocity": 80,
                "duration": 0.0682,
                "tempo": 120.0
            },
            {
                "pitch": 55,
                "velocity": 80,
                "duration": 0.0682,
                "tempo": 120.0
            },
            {
                "pitch": 0,
                "velocity": 80,
                "duration": 0.7045,
                "tempo": 120.0
            },
            {
                "pitch": 43,
                "velocity": 80,
                "duration": 0.0682,
                "tempo": 120.0
            },
            {
                "pitch": 0,
                "velocity": 80,
                "duration": 0.0659,
                "tempo": 120.0
            },
            {
                "pitch": 55,
                "velocity": 80,
                "duration": 0.0682,
                "tempo": 120.0
            },
            {
                "pitch": 0,
                "velocity": 80,
                "duration": 0.2818,
                "tempo": 120.0
            },
            {
                "pitch": 45,
                "velocity": 80,
                "duration": 0.0682,
                "tempo": 120.0
            },
            {
                "pitch": 0,
                "velocity": 80,
                "duration": 0.0659,
                "tempo": 120.0
            },
            {
                "pitch": 57,
                "velocity": 80,
                "duration": 0.0659,
                "tempo": 120.0
            },
            {
                "pitch": 0,
                "velocity": 80,
                "duration": 0.6568,
                "tempo": 120.0
            },
            {
                "pitch": 41,
                "velocity": 80,
                "duration": 0.0659,
                "tempo": 120.0
            },
            {
                "pitch": 0,
                "velocity": 80,
                "duration": 0.0659,
                "tempo": 120.0
            },
            {
                "pitch": 53,
                "velocity": 80,
                "duration": 0.0659,
                "tempo": 120.0
            },
            {
                "pitch": 0,
                "velocity": 80,
                "duration": 0.2818,
                "tempo": 120.0
            },
            {
                "pitch": 43,
                "velocity": 80,
                "duration": 0.0682,
                "tempo": 120.0
            },
            {
                "pitch": 0,
                "velocity": 80,
                "duration": 0.0636,
                "tempo": 120.0
            },
            {
                "pitch": 55,
                "velocity": 80,
                "duration": 0.0636,
                "tempo": 120.0
            },
            {
                "pitch": 0,
                "velocity": 80,
                "duration": 0.6682,
                "tempo": 120.0
            },
            {
                "pitch": 43,
                "velocity": 80,
                "duration": 0.0659,
                "tempo": 120.0
            },
            {
                "pitch": 0,
                "velocity": 80,
                "duration": 0.0659,
                "tempo": 120.0
            },
            {
                "pitch": 55,
                "velocity": 80,
                "duration": 0.0659,
                "tempo": 120.0
            },
            {
                "pitch": 0,
                "velocity": 80,
                "duration": 0.2818,
                "tempo": 120.0
            },
            {
                "pitch": 45,
                "velocity": 80,
                "duration": 0.0705,
                "tempo": 120.0
            },
            {
                "pitch": 0,
                "velocity": 80,
                "duration": 0.0682,
                "tempo": 120.0
            },
            {
                "pitch": 57,
                "velocity": 80,
                "duration": 0.0682,
                "tempo": 120.0
            },
            {
                "pitch": 0,
                "velocity": 80,
                "duration": 0.2659,
                "tempo": 120.0
            },
            {
                "pitch": 40,
                "velocity": 80,
                "duration": 2.4705,
                "tempo": 120.0
            },
            {
                "pitch": 0,
                "velocity": 80,
                "duration": 0.0682,
                "tempo": 120.0
            },
            {
                "pitch": 40,
                "velocity": 80,
                "duration": 0.0682,
                "tempo": 120.0
            },
            {
                "pitch": 40,
                "velocity": 80,
                "duration": 0.0682,
                "tempo": 120.0
            },
            {
                "pitch": 0,
                "velocity": 80,
                "duration": 0.0682,
                "tempo": 120.0
            },
            {
                "pitch": 52,
                "velocity": 80,
                "duration": 0.0682,
                "tempo": 120.0
            },
            {
                "pitch": 40,
                "velocity": 80,
                "duration": 0.0682,
                "tempo": 120.0
            },
            {
                "pitch": 50,
                "velocity": 80,
                "duration": 0.0659,
                "tempo": 120.0
            },
            {
                "pitch": 51,
                "velocity": 80,
                "duration": 0.0659,
                "tempo": 120.0
            },
            {
                "pitch": 52,
                "velocity": 80,
                "duration": 0.0682,
                "tempo": 120.0
            },
            {
                "pitch": 53,
                "velocity": 80,
                "duration": 0.0682,
                "tempo": 120.0
            },
            {
                "pitch": 45,
                "velocity": 80,
                "duration": 0.2682,
                "tempo": 120.0
            },
            {
                "pitch": 52,
                "velocity": 80,
                "duration": 0.0659,
                "tempo": 120.0
            },
            {
                "pitch": 52,
                "velocity": 80,
                "duration": 0.2659,
                "tempo": 120.0
            },
            {
                "pitch": 57,
                "velocity": 80,
                "duration": 0.0659,
                "tempo": 120.0
            },
            {
                "pitch": 57,
                "velocity": 80,
                "duration": 0.275,
                "tempo": 120.0
            },
            {
                "pitch": 52,
                "velocity": 80,
                "duration": 0.0682,
                "tempo": 120.0
            },
            {
                "pitch": 52,
                "velocity": 80,
                "duration": 0.1636,
                "tempo": 120.0
            },
            {
                "pitch": 45,
                "velocity": 80,
                "duration": 0.1636,
                "tempo": 120.0
            },
            {
                "pitch": 50,
                "velocity": 80,
                "duration": 0.2682,
                "tempo": 120.0
            },
            {
                "pitch": 57,
                "velocity": 80,
                "duration": 0.0682,
                "tempo": 120.0
            },
            {
                "pitch": 57,
                "velocity": 80,
                "duration": 0.2682,
                "tempo": 120.0
            },
            {
                "pitch": 62,
                "velocity": 80,
                "duration": 0.0682,
                "tempo": 120.0
            },
            {
                "pitch": 62,
                "velocity": 80,
                "duration": 0.2727,
                "tempo": 120.0
            },
            {
                "pitch": 57,
                "velocity": 80,
                "duration": 0.0659,
                "tempo": 120.0
            },
            {
                "pitch": 57,
                "velocity": 80,
                "duration": 0.0636,
                "tempo": 120.0
            },
            {
                "pitch": 50,
                "velocity": 80,
                "duration": 0.2614,
                "tempo": 120.0
            },
            {
                "pitch": 45,
                "velocity": 80,
                "duration": 0.2659,
                "tempo": 120.0
            },
            {
                "pitch": 52,
                "velocity": 80,
                "duration": 0.0659,
                "tempo": 120.0
            },
            {
                "pitch": 52,
                "velocity": 80,
                "duration": 0.2682,
                "tempo": 120.0
            },
            {
                "pitch": 57,
                "velocity": 80,
                "duration": 0.0659,
                "tempo": 120.0
            },
            {
                "pitch": 57,
                "velocity": 80,
                "duration": 0.275,
                "tempo": 120.0
            },
            {
                "pitch": 52,
                "velocity": 80,
                "duration": 0.0682,
                "tempo": 120.0
            },
            {
                "pitch": 52,
                "velocity": 80,
                "duration": 0.1636,
                "tempo": 120.0
            },
            {
                "pitch": 45,
                "velocity": 80,
                "duration": 0.1659,
                "tempo": 120.0
            },
            {
                "pitch": 50,
                "velocity": 80,
                "duration": 0.2682,
                "tempo": 120.0
            },
            {
                "pitch": 57,
                "velocity": 80,
                "duration": 0.0682,
                "tempo": 120.0
            },
            {
                "pitch": 57,
                "velocity": 80,
                "duration": 0.2682,
                "tempo": 120.0
            },
            {
                "pitch": 62,
                "velocity": 80,
                "duration": 0.0682,
                "tempo": 120.0
            },
            {
                "pitch": 62,
                "velocity": 80,
                "duration": 0.0682,
                "tempo": 120.0
            },
            {
                "pitch": 60,
                "velocity": 80,
                "duration": 0.0682,
                "tempo": 120.0
            },
            {
                "pitch": 61,
                "velocity": 80,
                "duration": 0.0682,
                "tempo": 120.0
            },
            {
                "pitch": 62,
                "velocity": 80,
                "duration": 0.0682,
                "tempo": 120.0
            },
            {
                "pitch": 0,
                "velocity": 80,
                "duration": 0.0636,
                "tempo": 120.0
            },
            {
                "pitch": 55,
                "velocity": 80,
                "duration": 0.0636,
                "tempo": 120.0
            },
            {
                "pitch": 56,
                "velocity": 80,
                "duration": 0.0659,
                "tempo": 120.0
            },
            {
                "pitch": 57,
                "velocity": 80,
                "duration": 0.0659,
                "tempo": 120.0
            },
            {
                "pitch": 45,
                "velocity": 80,
                "duration": 0.2659,
                "tempo": 120.0
            },
            {
                "pitch": 52,
                "velocity": 80,
                "duration": 0.0659,
                "tempo": 120.0
            },
            {
                "pitch": 52,
                "velocity": 80,
                "duration": 0.2682,
                "tempo": 120.0
            },
            {
                "pitch": 57,
                "velocity": 80,
                "duration": 0.0659,
                "tempo": 120.0
            },
            {
                "pitch": 57,
                "velocity": 80,
                "duration": 0.275,
                "tempo": 120.0
            },
            {
                "pitch": 52,
                "velocity": 80,
                "duration": 0.0682,
                "tempo": 120.0
            },
            {
                "pitch": 52,
                "velocity": 80,
                "duration": 0.1636,
                "tempo": 120.0
            },
            {
                "pitch": 45,
                "velocity": 80,
                "duration": 0.1636,
                "tempo": 120.0
            },
            {
                "pitch": 50,
                "velocity": 80,
                "duration": 0.2682,
                "tempo": 120.0
            },
            {
                "pitch": 57,
                "velocity": 80,
                "duration": 0.0682,
                "tempo": 120.0
            },
            {
                "pitch": 57,
                "velocity": 80,
                "duration": 0.2682,
                "tempo": 120.0
            },
            {
                "pitch": 62,
                "velocity": 80,
                "duration": 0.0682,
                "tempo": 120.0
            },
            {
                "pitch": 62,
                "velocity": 80,
                "duration": 0.2727,
                "tempo": 120.0
            },
            {
                "pitch": 57,
                "velocity": 80,
                "duration": 0.0682,
                "tempo": 120.0
            },
            {
                "pitch": 57,
                "velocity": 80,
                "duration": 0.0659,
                "tempo": 120.0
            },
            {
                "pitch": 50,
                "velocity": 80,
                "duration": 0.2614,
                "tempo": 120.0
            },
            {
                "pitch": 45,
                "velocity": 80,
                "duration": 0.2682,
                "tempo": 120.0
            },
            {
                "pitch": 52,
                "velocity": 80,
                "duration": 0.0682,
                "tempo": 120.0
            },
            {
                "pitch": 52,
                "velocity": 80,
                "duration": 0.2682,
                "tempo": 120.0
            },
            {
                "pitch": 57,
                "velocity": 80,
                "duration": 0.0659,
                "tempo": 120.0
            },
            {
                "pitch": 57,
                "velocity": 80,
                "duration": 0.275,
                "tempo": 120.0
            },
            {
                "pitch": 52,
                "velocity": 80,
                "duration": 0.0682,
                "tempo": 120.0
            },
            {
                "pitch": 52,
                "velocity": 80,
                "duration": 0.0659,
                "tempo": 120.0
            },
            {
                "pitch": 50,
                "velocity": 80,
                "duration": 0.0659,
                "tempo": 120.0
            },
            {
                "pitch": 51,
                "velocity": 80,
                "duration": 0.0659,
                "tempo": 120.0
            },
            {
                "pitch": 52,
                "velocity": 80,
                "duration": 0.0636,
                "tempo": 120.0
            },
            {
                "pitch": 50,
                "velocity": 80,
                "duration": 0.2659,
                "tempo": 120.0
            },
            {
                "pitch": 57,
                "velocity": 80,
                "duration": 0.0659,
                "tempo": 120.0
            },
            {
                "pitch": 57,
                "velocity": 80,
                "duration": 0.2682,
                "tempo": 120.0
            },
            {
                "pitch": 50,
                "velocity": 80,
                "duration": 0.0659,
                "tempo": 120.0
            },
            {
                "pitch": 64,
                "velocity": 80,
                "duration": 0.0977,
                "tempo": 120.0
            },
            {
                "pitch": 64,
                "velocity": 80,
                "duration": 0.0977,
                "tempo": 120.0
            },
            {
                "pitch": 64,
                "velocity": 80,
                "duration": 0.0977,
                "tempo": 120.0
            },
            {
                "pitch": 62,
                "velocity": 80,
                "duration": 0.1045,
                "tempo": 120.0
            },
            {
                "pitch": 55,
                "velocity": 80,
                "duration": 0.2386,
                "tempo": 120.0
            },
            {
                "pitch": 45,
                "velocity": 80,
                "duration": 0.2682,
                "tempo": 120.0
            },
            {
                "pitch": 52,
                "velocity": 80,
                "duration": 0.0659,
                "tempo": 120.0
            },
            {
                "pitch": 52,
                "velocity": 80,
                "duration": 0.2659,
                "tempo": 120.0
            },
            {
                "pitch": 57,
                "velocity": 80,
                "duration": 0.0659,
                "tempo": 120.0
            },
            {
                "pitch": 57,
                "velocity": 80,
                "duration": 0.275,
                "tempo": 120.0
            },
            {
                "pitch": 52,
                "velocity": 80,
                "duration": 0.0682,
                "tempo": 120.0
            },
            {
                "pitch": 52,
                "velocity": 80,
                "duration": 0.1636,
                "tempo": 120.0
            },
            {
                "pitch": 45,
                "velocity": 80,
                "duration": 0.1636,
                "tempo": 120.0
            },
            {
                "pitch": 50,
                "velocity": 80,
                "duration": 0.2682,
                "tempo": 120.0
            },
            {
                "pitch": 57,
                "velocity": 80,
                "duration": 0.0659,
                "tempo": 120.0
            },
            {
                "pitch": 57,
                "velocity": 80,
                "duration": 0.2659,
                "tempo": 120.0
            },
            {
                "pitch": 62,
                "velocity": 80,
                "duration": 0.0682,
                "tempo": 120.0
            },
            {
                "pitch": 62,
                "velocity": 80,
                "duration": 0.2727,
                "tempo": 120.0
            },
            {
                "pitch": 57,
                "velocity": 80,
                "duration": 0.0682,
                "tempo": 120.0
            },
            {
                "pitch": 57,
                "velocity": 80,
                "duration": 0.0659,
                "tempo": 120.0
            },
            {
                "pitch": 50,
                "velocity": 80,
                "duration": 0.2614,
                "tempo": 120.0
            },
            {
                "pitch": 45,
                "velocity": 80,
                "duration": 0.2682,
                "tempo": 120.0
            },
            {
                "pitch": 52,
                "velocity": 80,
                "duration": 0.0682,
                "tempo": 120.0
            },
            {
                "pitch": 52,
                "velocity": 80,
                "duration": 0.2682,
                "tempo": 120.0
            },
            {
                "pitch": 57,
                "velocity": 80,
                "duration": 0.0659,
                "tempo": 120.0
            },
            {
                "pitch": 57,
                "velocity": 80,
                "duration": 0.275,
                "tempo": 120.0
            },
            {
                "pitch": 52,
                "velocity": 80,
                "duration": 0.0682,
                "tempo": 120.0
            },
            {
                "pitch": 52,
                "velocity": 80,
                "duration": 0.1636,
                "tempo": 120.0
            },
            {
                "pitch": 45,
                "velocity": 80,
                "duration": 0.1636,
                "tempo": 120.0
            },
            {
                "pitch": 50,
                "velocity": 80,
                "duration": 0.2682,
                "tempo": 120.0
            },
            {
                "pitch": 57,
                "velocity": 80,
                "duration": 0.0682,
                "tempo": 120.0
            },
            {
                "pitch": 57,
                "velocity": 80,
                "duration": 0.2682,
                "tempo": 120.0
            },
            {
                "pitch": 62,
                "velocity": 80,
                "duration": 0.0682,
                "tempo": 120.0
            },
            {
                "pitch": 62,
                "velocity": 80,
                "duration": 0.0682,
                "tempo": 120.0
            },
            {
                "pitch": 60,
                "velocity": 80,
                "duration": 0.0682,
                "tempo": 120.0
            },
            {
                "pitch": 61,
                "velocity": 80,
                "duration": 0.0682,
                "tempo": 120.0
            },
            {
                "pitch": 62,
                "velocity": 80,
                "duration": 0.0659,
                "tempo": 120.0
            },
            {
                "pitch": 0,
                "velocity": 80,
                "duration": 0.0636,
                "tempo": 120.0
            },
            {
                "pitch": 55,
                "velocity": 80,
                "duration": 0.0659,
                "tempo": 120.0
            },
            {
                "pitch": 56,
                "velocity": 80,
                "duration": 0.0659,
                "tempo": 120.0
            },
            {
                "pitch": 57,
                "velocity": 80,
                "duration": 0.0659,
                "tempo": 120.0
            },
            {
                "pitch": 45,
                "velocity": 80,
                "duration": 0.2682,
                "tempo": 120.0
            },
            {
                "pitch": 52,
                "velocity": 80,
                "duration": 0.0659,
                "tempo": 120.0
            },
            {
                "pitch": 52,
                "velocity": 80,
                "duration": 0.2682,
                "tempo": 120.0
            },
            {
                "pitch": 57,
                "velocity": 80,
                "duration": 0.0659,
                "tempo": 120.0
            },
            {
                "pitch": 57,
                "velocity": 80,
                "duration": 0.2727,
                "tempo": 120.0
            },
            {
                "pitch": 52,
                "velocity": 80,
                "duration": 0.0682,
                "tempo": 120.0
            },
            {
                "pitch": 52,
                "velocity": 80,
                "duration": 0.1636,
                "tempo": 120.0
            },
            {
                "pitch": 45,
                "velocity": 80,
                "duration": 0.1636,
                "tempo": 120.0
            },
            {
                "pitch": 50,
                "velocity": 80,
                "duration": 0.2682,
                "tempo": 120.0
            },
            {
                "pitch": 57,
                "velocity": 80,
                "duration": 0.0682,
                "tempo": 120.0
            },
            {
                "pitch": 57,
                "velocity": 80,
                "duration": 0.2705,
                "tempo": 120.0
            },
            {
                "pitch": 62,
                "velocity": 80,
                "duration": 0.0682,
                "tempo": 120.0
            },
            {
                "pitch": 62,
                "velocity": 80,
                "duration": 0.275,
                "tempo": 120.0
            },
            {
                "pitch": 57,
                "velocity": 80,
                "duration": 0.0659,
                "tempo": 120.0
            },
            {
                "pitch": 57,
                "velocity": 80,
                "duration": 0.0659,
                "tempo": 120.0
            },
            {
                "pitch": 50,
                "velocity": 80,
                "duration": 0.2614,
                "tempo": 120.0
            },
            {
                "pitch": 45,
                "velocity": 80,
                "duration": 0.2682,
                "tempo": 120.0
            },
            {
                "pitch": 52,
                "velocity": 80,
                "duration": 0.0659,
                "tempo": 120.0
            },
            {
                "pitch": 52,
                "velocity": 80,
                "duration": 0.2659,
                "tempo": 120.0
            },
            {
                "pitch": 57,
                "velocity": 80,
                "duration": 0.0659,
                "tempo": 120.0
            },
            {
                "pitch": 57,
                "velocity": 80,
                "duration": 0.275,
                "tempo": 120.0
            },
            {
                "pitch": 52,
                "velocity": 80,
                "duration": 0.0682,
                "tempo": 120.0
            },
            {
                "pitch": 52,
                "velocity": 80,
                "duration": 0.0659,
                "tempo": 120.0
            },
            {
                "pitch": 50,
                "velocity": 80,
                "duration": 0.0659,
                "tempo": 120.0
            },
            {
                "pitch": 51,
                "velocity": 80,
                "duration": 0.0636,
                "tempo": 120.0
            },
            {
                "pitch": 52,
                "velocity": 80,
                "duration": 0.0659,
                "tempo": 120.0
            },
            {
                "pitch": 50,
                "velocity": 80,
                "duration": 0.2682,
                "tempo": 120.0
            },
            {
                "pitch": 57,
                "velocity": 80,
                "duration": 0.0682,
                "tempo": 120.0
            },
            {
                "pitch": 57,
                "velocity": 80,
                "duration": 0.2682,
                "tempo": 120.0
            },
            {
                "pitch": 50,
                "velocity": 80,
                "duration": 0.0682,
                "tempo": 120.0
            },
            {
                "pitch": 50,
                "velocity": 80,
                "duration": 0.0659,
                "tempo": 120.0
            },
            {
                "pitch": 0,
                "velocity": 80,
                "duration": 0.0659,
                "tempo": 120.0
            },
            {
                "pitch": 55,
                "velocity": 80,
                "duration": 0.1659,
                "tempo": 120.0
            },
            {
                "pitch": 56,
                "velocity": 80,
                "duration": 0.1682,
                "tempo": 120.0
            },
            {
                "pitch": 57,
                "velocity": 80,
                "duration": 0.1682,
                "tempo": 120.0
            },
            {
                "pitch": 45,
                "velocity": 80,
                "duration": 0.2682,
                "tempo": 120.0
            },
            {
                "pitch": 52,
                "velocity": 80,
                "duration": 0.0659,
                "tempo": 120.0
            },
            {
                "pitch": 52,
                "velocity": 80,
                "duration": 0.2682,
                "tempo": 120.0
            },
            {
                "pitch": 57,
                "velocity": 80,
                "duration": 0.0682,
                "tempo": 120.0
            },
            {
                "pitch": 57,
                "velocity": 80,
                "duration": 0.2727,
                "tempo": 120.0
            },
            {
                "pitch": 52,
                "velocity": 80,
                "duration": 0.0682,
                "tempo": 120.0
            },
            {
                "pitch": 52,
                "velocity": 80,
                "duration": 0.1636,
                "tempo": 120.0
            },
            {
                "pitch": 45,
                "velocity": 80,
                "duration": 0.1636,
                "tempo": 120.0
            },
            {
                "pitch": 50,
                "velocity": 80,
                "duration": 0.2682,
                "tempo": 120.0
            },
            {
                "pitch": 57,
                "velocity": 80,
                "duration": 0.0682,
                "tempo": 120.0
            },
            {
                "pitch": 57,
                "velocity": 80,
                "duration": 0.2682,
                "tempo": 120.0
            },
            {
                "pitch": 62,
                "velocity": 80,
                "duration": 0.0659,
                "tempo": 120.0
            },
            {
                "pitch": 62,
                "velocity": 80,
                "duration": 0.2682,
                "tempo": 120.0
            },
            {
                "pitch": 57,
                "velocity": 80,
                "duration": 0.0659,
                "tempo": 120.0
            },
            {
                "pitch": 57,
                "velocity": 80,
                "duration": 0.0682,
                "tempo": 120.0
            },
            {
                "pitch": 50,
                "velocity": 80,
                "duration": 0.2682,
                "tempo": 120.0
            },
            {
                "pitch": 45,
                "velocity": 80,
                "duration": 0.2659,
                "tempo": 120.0
            },
            {
                "pitch": 52,
                "velocity": 80,
                "duration": 0.0682,
                "tempo": 120.0
            },
            {
                "pitch": 52,
                "velocity": 80,
                "duration": 0.2682,
                "tempo": 120.0
            },
            {
                "pitch": 57,
                "velocity": 80,
                "duration": 0.0682,
                "tempo": 120.0
            },
            {
                "pitch": 57,
                "velocity": 80,
                "duration": 0.2727,
                "tempo": 120.0
            },
            {
                "pitch": 52,
                "velocity": 80,
                "duration": 0.0682,
                "tempo": 120.0
            },
            {
                "pitch": 52,
                "velocity": 80,
                "duration": 0.1636,
                "tempo": 120.0
            },
            {
                "pitch": 45,
                "velocity": 80,
                "duration": 0.1636,
                "tempo": 120.0
            },
            {
                "pitch": 50,
                "velocity": 80,
                "duration": 0.2682,
                "tempo": 120.0
            },
            {
                "pitch": 57,
                "velocity": 80,
                "duration": 0.0659,
                "tempo": 120.0
            },
            {
                "pitch": 57,
                "velocity": 80,
                "duration": 0.2659,
                "tempo": 120.0
            },
            {
                "pitch": 62,
                "velocity": 80,
                "duration": 0.0659,
                "tempo": 120.0
            },
            {
                "pitch": 62,
                "velocity": 80,
                "duration": 0.0682,
                "tempo": 120.0
            },
            {
                "pitch": 60,
                "velocity": 80,
                "duration": 0.0705,
                "tempo": 120.0
            },
            {
                "pitch": 61,
                "velocity": 80,
                "duration": 0.0682,
                "tempo": 120.0
            },
            {
                "pitch": 62,
                "velocity": 80,
                "duration": 0.0682,
                "tempo": 120.0
            },
            {
                "pitch": 0,
                "velocity": 80,
                "duration": 0.0659,
                "tempo": 120.0
            },
            {
                "pitch": 55,
                "velocity": 80,
                "duration": 0.0659,
                "tempo": 120.0
            },
            {
                "pitch": 56,
                "velocity": 80,
                "duration": 0.0659,
                "tempo": 120.0
            },
            {
                "pitch": 57,
                "velocity": 80,
                "duration": 0.0659,
                "tempo": 120.0
            },
            {
                "pitch": 45,
                "velocity": 80,
                "duration": 0.2682,
                "tempo": 120.0
            },
            {
                "pitch": 52,
                "velocity": 80,
                "duration": 0.0682,
                "tempo": 120.0
            },
            {
                "pitch": 52,
                "velocity": 80,
                "duration": 0.2682,
                "tempo": 120.0
            },
            {
                "pitch": 57,
                "velocity": 80,
                "duration": 0.0682,
                "tempo": 120.0
            },
            {
                "pitch": 57,
                "velocity": 80,
                "duration": 0.2727,
                "tempo": 120.0
            },
            {
                "pitch": 52,
                "velocity": 80,
                "duration": 0.0659,
                "tempo": 120.0
            },
            {
                "pitch": 52,
                "velocity": 80,
                "duration": 0.1636,
                "tempo": 120.0
            },
            {
                "pitch": 45,
                "velocity": 80,
                "duration": 0.1636,
                "tempo": 120.0
            },
            {
                "pitch": 50,
                "velocity": 80,
                "duration": 0.2682,
                "tempo": 120.0
            },
            {
                "pitch": 57,
                "velocity": 80,
                "duration": 0.0659,
                "tempo": 120.0
            },
            {
                "pitch": 57,
                "velocity": 80,
                "duration": 0.2682,
                "tempo": 120.0
            },
            {
                "pitch": 62,
                "velocity": 80,
                "duration": 0.0659,
                "tempo": 120.0
            },
            {
                "pitch": 62,
                "velocity": 80,
                "duration": 0.2727,
                "tempo": 120.0
            },
            {
                "pitch": 57,
                "velocity": 80,
                "duration": 0.0682,
                "tempo": 120.0
            },
            {
                "pitch": 57,
                "velocity": 80,
                "duration": 0.0659,
                "tempo": 120.0
            },
            {
                "pitch": 50,
                "velocity": 80,
                "duration": 0.2636,
                "tempo": 120.0
            },
            {
                "pitch": 45,
                "velocity": 80,
                "duration": 0.2705,
                "tempo": 120.0
            },
            {
                "pitch": 52,
                "velocity": 80,
                "duration": 0.0682,
                "tempo": 120.0
            },
            {
                "pitch": 52,
                "velocity": 80,
                "duration": 0.2682,
                "tempo": 120.0
            },
            {
                "pitch": 57,
                "velocity": 80,
                "duration": 0.0659,
                "tempo": 120.0
            },
            {
                "pitch": 57,
                "velocity": 80,
                "duration": 0.275,
                "tempo": 120.0
            },
            {
                "pitch": 52,
                "velocity": 80,
                "duration": 0.0682,
                "tempo": 120.0
            },
            {
                "pitch": 52,
                "velocity": 80,
                "duration": 0.0659,
                "tempo": 120.0
            },
            {
                "pitch": 50,
                "velocity": 80,
                "duration": 0.0659,
                "tempo": 120.0
            },
            {
                "pitch": 51,
                "velocity": 80,
                "duration": 0.0659,
                "tempo": 120.0
            },
            {
                "pitch": 52,
                "velocity": 80,
                "duration": 0.0659,
                "tempo": 120.0
            },
            {
                "pitch": 50,
                "velocity": 80,
                "duration": 0.2659,
                "tempo": 120.0
            },
            {
                "pitch": 57,
                "velocity": 80,
                "duration": 0.0659,
                "tempo": 120.0
            },
            {
                "pitch": 57,
                "velocity": 80,
                "duration": 0.2682,
                "tempo": 120.0
            },
            {
                "pitch": 50,
                "velocity": 80,
                "duration": 0.0682,
                "tempo": 120.0
            },
            {
                "pitch": 50,
                "velocity": 80,
                "duration": 0.0682,
                "tempo": 120.0
            },
            {
                "pitch": 0,
                "velocity": 80,
                "duration": 0.0659,
                "tempo": 120.0
            },
            {
                "pitch": 55,
                "velocity": 80,
                "duration": 0.1682,
                "tempo": 120.0
            },
            {
                "pitch": 56,
                "velocity": 80,
                "duration": 0.1682,
                "tempo": 120.0
            },
            {
                "pitch": 57,
                "velocity": 80,
                "duration": 0.1682,
                "tempo": 120.0
            },
            {
                "pitch": 45,
                "velocity": 80,
                "duration": 0.2682,
                "tempo": 120.0
            },
            {
                "pitch": 52,
                "velocity": 80,
                "duration": 0.0659,
                "tempo": 120.0
            },
            {
                "pitch": 52,
                "velocity": 80,
                "duration": 0.2659,
                "tempo": 120.0
            },
            {
                "pitch": 57,
                "velocity": 80,
                "duration": 0.0659,
                "tempo": 120.0
            },
            {
                "pitch": 57,
                "velocity": 80,
                "duration": 0.275,
                "tempo": 120.0
            },
            {
                "pitch": 52,
                "velocity": 80,
                "duration": 0.0682,
                "tempo": 120.0
            },
            {
                "pitch": 52,
                "velocity": 80,
                "duration": 0.1636,
                "tempo": 120.0
            },
            {
                "pitch": 45,
                "velocity": 80,
                "duration": 0.1636,
                "tempo": 120.0
            },
            {
                "pitch": 50,
                "velocity": 80,
                "duration": 0.2682,
                "tempo": 120.0
            },
            {
                "pitch": 57,
                "velocity": 80,
                "duration": 0.0682,
                "tempo": 120.0
            },
            {
                "pitch": 57,
                "velocity": 80,
                "duration": 0.2682,
                "tempo": 120.0
            },
            {
                "pitch": 62,
                "velocity": 80,
                "duration": 0.0682,
                "tempo": 120.0
            },
            {
                "pitch": 62,
                "velocity": 80,
                "duration": 0.2727,
                "tempo": 120.0
            },
            {
                "pitch": 57,
                "velocity": 80,
                "duration": 0.0682,
                "tempo": 120.0
            },
            {
                "pitch": 57,
                "velocity": 80,
                "duration": 0.0636,
                "tempo": 120.0
            },
            {
                "pitch": 50,
                "velocity": 80,
                "duration": 0.2614,
                "tempo": 120.0
            },
            {
                "pitch": 45,
                "velocity": 80,
                "duration": 0.2682,
                "tempo": 120.0
            },
            {
                "pitch": 52,
                "velocity": 80,
                "duration": 0.0659,
                "tempo": 120.0
            },
            {
                "pitch": 52,
                "velocity": 80,
                "duration": 0.2682,
                "tempo": 120.0
            },
            {
                "pitch": 57,
                "velocity": 80,
                "duration": 0.0659,
                "tempo": 120.0
            },
            {
                "pitch": 57,
                "velocity": 80,
                "duration": 0.275,
                "tempo": 120.0
            },
            {
                "pitch": 52,
                "velocity": 80,
                "duration": 0.0682,
                "tempo": 120.0
            },
            {
                "pitch": 52,
                "velocity": 80,
                "duration": 0.1636,
                "tempo": 120.0
            },
            {
                "pitch": 45,
                "velocity": 80,
                "duration": 0.1636,
                "tempo": 120.0
            },
            {
                "pitch": 50,
                "velocity": 80,
                "duration": 0.2682,
                "tempo": 120.0
            },
            {
                "pitch": 57,
                "velocity": 80,
                "duration": 0.0682,
                "tempo": 120.0
            },
            {
                "pitch": 57,
                "velocity": 80,
                "duration": 0.2682,
                "tempo": 120.0
            },
            {
                "pitch": 62,
                "velocity": 80,
                "duration": 0.0682,
                "tempo": 120.0
            },
            {
                "pitch": 62,
                "velocity": 80,
                "duration": 0.0659,
                "tempo": 120.0
            },
            {
                "pitch": 60,
                "velocity": 80,
                "duration": 0.0682,
                "tempo": 120.0
            },
            {
                "pitch": 61,
                "velocity": 80,
                "duration": 0.0682,
                "tempo": 120.0
            },
            {
                "pitch": 62,
                "velocity": 80,
                "duration": 0.0659,
                "tempo": 120.0
            },
            {
                "pitch": 0,
                "velocity": 80,
                "duration": 0.0659,
                "tempo": 120.0
            },
            {
                "pitch": 55,
                "velocity": 80,
                "duration": 0.0682,
                "tempo": 120.0
            },
            {
                "pitch": 56,
                "velocity": 80,
                "duration": 0.0659,
                "tempo": 120.0
            },
            {
                "pitch": 57,
                "velocity": 80,
                "duration": 0.0659,
                "tempo": 120.0
            },
            {
                "pitch": 45,
                "velocity": 80,
                "duration": 0.2659,
                "tempo": 120.0
            },
            {
                "pitch": 52,
                "velocity": 80,
                "duration": 0.0659,
                "tempo": 120.0
            },
            {
                "pitch": 52,
                "velocity": 80,
                "duration": 0.2682,
                "tempo": 120.0
            },
            {
                "pitch": 57,
                "velocity": 80,
                "duration": 0.0682,
                "tempo": 120.0
            },
            {
                "pitch": 57,
                "velocity": 80,
                "duration": 0.2727,
                "tempo": 120.0
            },
            {
                "pitch": 52,
                "velocity": 80,
                "duration": 0.0682,
                "tempo": 120.0
            },
            {
                "pitch": 52,
                "velocity": 80,
                "duration": 0.1636,
                "tempo": 120.0
            },
            {
                "pitch": 45,
                "velocity": 80,
                "duration": 0.1636,
                "tempo": 120.0
            },
            {
                "pitch": 50,
                "velocity": 80,
                "duration": 0.2682,
                "tempo": 120.0
            },
            {
                "pitch": 57,
                "velocity": 80,
                "duration": 0.0682,
                "tempo": 120.0
            },
            {
                "pitch": 57,
                "velocity": 80,
                "duration": 0.2659,
                "tempo": 120.0
            },
            {
                "pitch": 62,
                "velocity": 80,
                "duration": 0.0659,
                "tempo": 120.0
            },
            {
                "pitch": 62,
                "velocity": 80,
                "duration": 0.275,
                "tempo": 120.0
            },
            {
                "pitch": 57,
                "velocity": 80,
                "duration": 0.0659,
                "tempo": 120.0
            },
            {
                "pitch": 57,
                "velocity": 80,
                "duration": 0.0659,
                "tempo": 120.0
            },
            {
                "pitch": 50,
                "velocity": 80,
                "duration": 0.2614,
                "tempo": 120.0
            },
            {
                "pitch": 45,
                "velocity": 80,
                "duration": 0.2682,
                "tempo": 120.0
            },
            {
                "pitch": 52,
                "velocity": 80,
                "duration": 0.0659,
                "tempo": 120.0
            },
            {
                "pitch": 52,
                "velocity": 80,
                "duration": 0.2682,
                "tempo": 120.0
            },
            {
                "pitch": 57,
                "velocity": 80,
                "duration": 0.0682,
                "tempo": 120.0
            },
            {
                "pitch": 57,
                "velocity": 80,
                "duration": 0.2682,
                "tempo": 120.0
            },
            {
                "pitch": 52,
                "velocity": 80,
                "duration": 0.0682,
                "tempo": 120.0
            },
            {
                "pitch": 52,
                "velocity": 80,
                "duration": 0.0682,
                "tempo": 120.0
            },
            {
                "pitch": 50,
                "velocity": 80,
                "duration": 0.0659,
                "tempo": 120.0
            },
            {
                "pitch": 51,
                "velocity": 80,
                "duration": 0.0659,
                "tempo": 120.0
            },
            {
                "pitch": 52,
                "velocity": 80,
                "duration": 0.0682,
                "tempo": 120.0
            },
            {
                "pitch": 50,
                "velocity": 80,
                "duration": 0.2682,
                "tempo": 120.0
            },
            {
                "pitch": 57,
                "velocity": 80,
                "duration": 0.0682,
                "tempo": 120.0
            },
            {
                "pitch": 57,
                "velocity": 80,
                "duration": 0.2682,
                "tempo": 120.0
            },
            {
                "pitch": 50,
                "velocity": 80,
                "duration": 0.0659,
                "tempo": 120.0
            },
            {
                "pitch": 50,
                "velocity": 80,
                "duration": 0.0659,
                "tempo": 120.0
            },
            {
                "pitch": 0,
                "velocity": 80,
                "duration": 0.0659,
                "tempo": 120.0
            },
            {
                "pitch": 55,
                "velocity": 80,
                "duration": 0.1659,
                "tempo": 120.0
            },
            {
                "pitch": 56,
                "velocity": 80,
                "duration": 0.1705,
                "tempo": 120.0
            },
            {
                "pitch": 57,
                "velocity": 80,
                "duration": 0.1705,
                "tempo": 120.0
            },
            {
                "pitch": 0,
                "velocity": 80,
                "duration": 0.0682,
                "tempo": 120.0
            },
            {
                "pitch": 45,
                "velocity": 80,
                "duration": 0.0682,
                "tempo": 120.0
            },
            {
                "pitch": 0,
                "velocity": 80,
                "duration": 0.0659,
                "tempo": 120.0
            },
            {
                "pitch": 48,
                "velocity": 80,
                "duration": 0.0614,
                "tempo": 120.0
            },
            {
                "pitch": 0,
                "velocity": 80,
                "duration": 0.0614,
                "tempo": 120.0
            },
            {
                "pitch": 50,
                "velocity": 80,
                "duration": 0.0614,
                "tempo": 120.0
            },
            {
                "pitch": 0,
                "velocity": 80,
                "duration": 0.0591,
                "tempo": 120.0
            },
            {
                "pitch": 52,
                "velocity": 80,
                "duration": 0.0659,
                "tempo": 120.0
            },
            {
                "pitch": 0,
                "velocity": 80,
                "duration": 0.0682,
                "tempo": 120.0
            },
            {
                "pitch": 50,
                "velocity": 80,
                "duration": 0.0659,
                "tempo": 120.0
            },
            {
                "pitch": 0,
                "velocity": 80,
                "duration": 0.0659,
                "tempo": 120.0
            },
            {
                "pitch": 52,
                "velocity": 80,
                "duration": 0.0636,
                "tempo": 120.0
            },
            {
                "pitch": 0,
                "velocity": 80,
                "duration": 0.0636,
                "tempo": 120.0
            },
            {
                "pitch": 55,
                "velocity": 80,
                "duration": 0.0636,
                "tempo": 120.0
            },
            {
                "pitch": 0,
                "velocity": 80,
                "duration": 0.0636,
                "tempo": 120.0
            },
            {
                "pitch": 57,
                "velocity": 80,
                "duration": 0.0614,
                "tempo": 120.0
            },
            {
                "pitch": 0,
                "velocity": 80,
                "duration": 0.0591,
                "tempo": 120.0
            },
            {
                "pitch": 57,
                "velocity": 80,
                "duration": 0.0591,
                "tempo": 120.0
            },
            {
                "pitch": 0,
                "velocity": 80,
                "duration": 0.0636,
                "tempo": 120.0
            },
            {
                "pitch": 60,
                "velocity": 80,
                "duration": 0.0682,
                "tempo": 120.0
            },
            {
                "pitch": 0,
                "velocity": 80,
                "duration": 0.0659,
                "tempo": 120.0
            },
            {
                "pitch": 62,
                "velocity": 80,
                "duration": 0.0659,
                "tempo": 120.0
            },
            {
                "pitch": 0,
                "velocity": 80,
                "duration": 0.0682,
                "tempo": 120.0
            },
            {
                "pitch": 64,
                "velocity": 80,
                "duration": 0.0659,
                "tempo": 120.0
            },
            {
                "pitch": 0,
                "velocity": 80,
                "duration": 0.0659,
                "tempo": 120.0
            },
            {
                "pitch": 67,
                "velocity": 80,
                "duration": 0.0682,
                "tempo": 120.0
            },
            {
                "pitch": 0,
                "velocity": 80,
                "duration": 0.0682,
                "tempo": 120.0
            },
            {
                "pitch": 68,
                "velocity": 80,
                "duration": 0.0659,
                "tempo": 120.0
            },
            {
                "pitch": 0,
                "velocity": 80,
                "duration": 0.0659,
                "tempo": 120.0
            },
            {
                "pitch": 69,
                "velocity": 80,
                "duration": 1.4795,
                "tempo": 120.0
            },
            {
                "pitch": 0,
                "velocity": 80,
                "duration": 0.4727,
                "tempo": 120.0
            },
            {
                "pitch": 41,
                "velocity": 80,
                "duration": 0.0682,
                "tempo": 120.0
            },
            {
                "pitch": 0,
                "velocity": 80,
                "duration": 0.0705,
                "tempo": 120.0
            },
            {
                "pitch": 53,
                "velocity": 80,
                "duration": 0.0727,
                "tempo": 120.0
            },
            {
                "pitch": 0,
                "velocity": 80,
                "duration": 0.2955,
                "tempo": 120.0
            },
            {
                "pitch": 43,
                "velocity": 80,
                "duration": 0.0659,
                "tempo": 120.0
            },
            {
                "pitch": 0,
                "velocity": 80,
                "duration": 0.0682,
                "tempo": 120.0
            },
            {
                "pitch": 55,
                "velocity": 80,
                "duration": 0.0682,
                "tempo": 120.0
            },
            {
                "pitch": 0,
                "velocity": 80,
                "duration": 0.7091,
                "tempo": 120.0
            },
            {
                "pitch": 43,
                "velocity": 80,
                "duration": 0.0659,
                "tempo": 120.0
            },
            {
                "pitch": 0,
                "velocity": 80,
                "duration": 0.0682,
                "tempo": 120.0
            },
            {
                "pitch": 55,
                "velocity": 80,
                "duration": 0.0682,
                "tempo": 120.0
            },
            {
                "pitch": 0,
                "velocity": 80,
                "duration": 0.2818,
                "tempo": 120.0
            },
            {
                "pitch": 45,
                "velocity": 80,
                "duration": 0.0705,
                "tempo": 120.0
            },
            {
                "pitch": 0,
                "velocity": 80,
                "duration": 0.0659,
                "tempo": 120.0
            },
            {
                "pitch": 57,
                "velocity": 80,
                "duration": 0.0659,
                "tempo": 120.0
            },
            {
                "pitch": 0,
                "velocity": 80,
                "duration": 0.6614,
                "tempo": 120.0
            },
            {
                "pitch": 41,
                "velocity": 80,
                "duration": 0.0659,
                "tempo": 120.0
            },
            {
                "pitch": 0,
                "velocity": 80,
                "duration": 0.0659,
                "tempo": 120.0
            },
            {
                "pitch": 53,
                "velocity": 80,
                "duration": 0.0682,
                "tempo": 120.0
            },
            {
                "pitch": 0,
                "velocity": 80,
                "duration": 0.2727,
                "tempo": 120.0
            },
            {
                "pitch": 43,
                "velocity": 80,
                "duration": 0.0682,
                "tempo": 120.0
            },
            {
                "pitch": 0,
                "velocity": 80,
                "duration": 0.0636,
                "tempo": 120.0
            },
            {
                "pitch": 55,
                "velocity": 80,
                "duration": 0.0636,
                "tempo": 120.0
            },
            {
                "pitch": 0,
                "velocity": 80,
                "duration": 0.6682,
                "tempo": 120.0
            },
            {
                "pitch": 43,
                "velocity": 80,
                "duration": 0.0659,
                "tempo": 120.0
            },
            {
                "pitch": 0,
                "velocity": 80,
                "duration": 0.0659,
                "tempo": 120.0
            },
            {
                "pitch": 55,
                "velocity": 80,
                "duration": 0.0659,
                "tempo": 120.0
            },
            {
                "pitch": 0,
                "velocity": 80,
                "duration": 0.2818,
                "tempo": 120.0
            },
            {
                "pitch": 45,
                "velocity": 80,
                "duration": 0.0705,
                "tempo": 120.0
            },
            {
                "pitch": 0,
                "velocity": 80,
                "duration": 0.0659,
                "tempo": 120.0
            },
            {
                "pitch": 57,
                "velocity": 80,
                "duration": 0.0659,
                "tempo": 120.0
            },
            {
                "pitch": 0,
                "velocity": 80,
                "duration": 0.2636,
                "tempo": 120.0
            }
        ],
        "Acoustic Guitar (nylon)": [
            {
                "pitch": 72,
                "velocity": 64,
                "duration": 0.0659,
                "tempo": 120.0
            },
            {
                "pitch": 0,
                "velocity": 64,
                "duration": 0.1682,
                "tempo": 120.0
            },
            {
                "pitch": 67,
                "velocity": 64,
                "duration": 0.1659,
                "tempo": 120.0
            },
            {
                "pitch": 66,
                "velocity": 64,
                "duration": 0.1682,
                "tempo": 120.0
            },
            {
                "pitch": 69,
                "velocity": 64,
                "duration": 0.0682,
                "tempo": 120.0
            },
            {
                "pitch": 0,
                "velocity": 64,
                "duration": 0.1682,
                "tempo": 120.0
            },
            {
                "pitch": 66,
                "velocity": 64,
                "duration": 0.0659,
                "tempo": 120.0
            },
            {
                "pitch": 66,
                "velocity": 64,
                "duration": 0.0659,
                "tempo": 120.0
            },
            {
                "pitch": 67,
                "velocity": 64,
                "duration": 0.1682,
                "tempo": 120.0
            },
            {
                "pitch": 69,
                "velocity": 64,
                "duration": 0.1682,
                "tempo": 120.0
            },
            {
                "pitch": 72,
                "velocity": 64,
                "duration": 0.0682,
                "tempo": 120.0
            },
            {
                "pitch": 0,
                "velocity": 64,
                "duration": 0.1682,
                "tempo": 120.0
            },
            {
                "pitch": 67,
                "velocity": 64,
                "duration": 0.1682,
                "tempo": 120.0
            },
            {
                "pitch": 66,
                "velocity": 64,
                "duration": 0.0682,
                "tempo": 120.0
            },
            {
                "pitch": 0,
                "velocity": 64,
                "duration": 0.7591,
                "tempo": 120.0
            },
            {
                "pitch": 69,
                "velocity": 64,
                "duration": 0.1659,
                "tempo": 120.0
            },
            {
                "pitch": 72,
                "velocity": 64,
                "duration": 0.0659,
                "tempo": 120.0
            },
            {
                "pitch": 0,
                "velocity": 64,
                "duration": 0.1727,
                "tempo": 120.0
            },
            {
                "pitch": 67,
                "velocity": 64,
                "duration": 0.1705,
                "tempo": 120.0
            },
            {
                "pitch": 66,
                "velocity": 64,
                "duration": 0.1659,
                "tempo": 120.0
            },
            {
                "pitch": 69,
                "velocity": 64,
                "duration": 0.0659,
                "tempo": 120.0
            },
            {
                "pitch": 0,
                "velocity": 64,
                "duration": 0.1636,
                "tempo": 120.0
            },
            {
                "pitch": 66,
                "velocity": 64,
                "duration": 0.0659,
                "tempo": 120.0
            },
            {
                "pitch": 66,
                "velocity": 64,
                "duration": 0.0659,
                "tempo": 120.0
            },
            {
                "pitch": 67,
                "velocity": 64,
                "duration": 0.1659,
                "tempo": 120.0
            },
            {
                "pitch": 69,
                "velocity": 64,
                "duration": 0.1682,
                "tempo": 120.0
            },
            {
                "pitch": 72,
                "velocity": 64,
                "duration": 0.0682,
                "tempo": 120.0
            },
            {
                "pitch": 76,
                "velocity": 64,
                "duration": 0.0705,
                "tempo": 120.0
            },
            {
                "pitch": 0,
                "velocity": 64,
                "duration": 0.0705,
                "tempo": 120.0
            },
            {
                "pitch": 67,
                "velocity": 64,
                "duration": 0.1773,
                "tempo": 120.0
            },
            {
                "pitch": 66,
                "velocity": 64,
                "duration": 0.0659,
                "tempo": 120.0
            },
            {
                "pitch": 0,
                "velocity": 64,
                "duration": 0.7614,
                "tempo": 120.0
            },
            {
                "pitch": 69,
                "velocity": 64,
                "duration": 0.1682,
                "tempo": 120.0
            },
            {
                "pitch": 72,
                "velocity": 64,
                "duration": 0.0659,
                "tempo": 120.0
            },
            {
                "pitch": 0,
                "velocity": 64,
                "duration": 0.1545,
                "tempo": 120.0
            },
            {
                "pitch": 67,
                "velocity": 64,
                "duration": 0.1545,
                "tempo": 120.0
            },
            {
                "pitch": 66,
                "velocity": 64,
                "duration": 0.1591,
                "tempo": 120.0
            },
            {
                "pitch": 69,
                "velocity": 64,
                "duration": 0.0636,
                "tempo": 120.0
            },
            {
                "pitch": 0,
                "velocity": 64,
                "duration": 0.1523,
                "tempo": 120.0
            },
            {
                "pitch": 66,
                "velocity": 64,
                "duration": 0.0591,
                "tempo": 120.0
            },
            {
                "pitch": 66,
                "velocity": 64,
                "duration": 0.0591,
                "tempo": 120.0
            },
            {
                "pitch": 67,
                "velocity": 64,
                "duration": 0.1591,
                "tempo": 120.0
            },
            {
                "pitch": 69,
                "velocity": 64,
                "duration": 0.1591,
                "tempo": 120.0
            },
            {
                "pitch": 72,
                "velocity": 64,
                "duration": 0.0614,
                "tempo": 120.0
            },
            {
                "pitch": 0,
                "velocity": 64,
                "duration": 0.1545,
                "tempo": 120.0
            },
            {
                "pitch": 67,
                "velocity": 64,
                "duration": 0.1455,
                "tempo": 120.0
            },
            {
                "pitch": 66,
                "velocity": 64,
                "duration": 0.0568,
                "tempo": 120.0
            },
            {
                "pitch": 0,
                "velocity": 64,
                "duration": 0.7273,
                "tempo": 120.0
            },
            {
                "pitch": 69,
                "velocity": 64,
                "duration": 0.1477,
                "tempo": 120.0
            },
            {
                "pitch": 72,
                "velocity": 64,
                "duration": 0.0568,
                "tempo": 120.0
            },
            {
                "pitch": 0,
                "velocity": 64,
                "duration": 0.15,
                "tempo": 120.0
            },
            {
                "pitch": 67,
                "velocity": 64,
                "duration": 0.1545,
                "tempo": 120.0
            },
            {
                "pitch": 66,
                "velocity": 64,
                "duration": 0.1614,
                "tempo": 120.0
            },
            {
                "pitch": 69,
                "velocity": 64,
                "duration": 0.0682,
                "tempo": 120.0
            },
            {
                "pitch": 0,
                "velocity": 64,
                "duration": 0.1682,
                "tempo": 120.0
            },
            {
                "pitch": 66,
                "velocity": 64,
                "duration": 0.0682,
                "tempo": 120.0
            },
            {
                "pitch": 66,
                "velocity": 64,
                "duration": 0.0682,
                "tempo": 120.0
            },
            {
                "pitch": 67,
                "velocity": 64,
                "duration": 0.1705,
                "tempo": 120.0
            },
            {
                "pitch": 69,
                "velocity": 64,
                "duration": 0.1682,
                "tempo": 120.0
            },
            {
                "pitch": 72,
                "velocity": 64,
                "duration": 0.0682,
                "tempo": 120.0
            },
            {
                "pitch": 76,
                "velocity": 64,
                "duration": 0.0659,
                "tempo": 120.0
            },
            {
                "pitch": 0,
                "velocity": 64,
                "duration": 0.0659,
                "tempo": 120.0
            },
            {
                "pitch": 67,
                "velocity": 64,
                "duration": 0.1636,
                "tempo": 120.0
            },
            {
                "pitch": 66,
                "velocity": 64,
                "duration": 0.0659,
                "tempo": 120.0
            },
            {
                "pitch": 0,
                "velocity": 64,
                "duration": 0.7705,
                "tempo": 120.0
            },
            {
                "pitch": 69,
                "velocity": 64,
                "duration": 0.1659,
                "tempo": 120.0
            },
            {
                "pitch": 72,
                "velocity": 64,
                "duration": 0.0659,
                "tempo": 120.0
            },
            {
                "pitch": 0,
                "velocity": 64,
                "duration": 0.1659,
                "tempo": 120.0
            },
            {
                "pitch": 67,
                "velocity": 64,
                "duration": 0.1682,
                "tempo": 120.0
            },
            {
                "pitch": 66,
                "velocity": 64,
                "duration": 0.1682,
                "tempo": 120.0
            },
            {
                "pitch": 69,
                "velocity": 64,
                "duration": 0.0682,
                "tempo": 120.0
            },
            {
                "pitch": 0,
                "velocity": 64,
                "duration": 0.1682,
                "tempo": 120.0
            },
            {
                "pitch": 66,
                "velocity": 64,
                "duration": 0.0682,
                "tempo": 120.0
            },
            {
                "pitch": 66,
                "velocity": 64,
                "duration": 0.0659,
                "tempo": 120.0
            },
            {
                "pitch": 67,
                "velocity": 64,
                "duration": 0.1682,
                "tempo": 120.0
            },
            {
                "pitch": 69,
                "velocity": 64,
                "duration": 0.1705,
                "tempo": 120.0
            },
            {
                "pitch": 72,
                "velocity": 64,
                "duration": 0.0682,
                "tempo": 120.0
            },
            {
                "pitch": 0,
                "velocity": 64,
                "duration": 0.1682,
                "tempo": 120.0
            },
            {
                "pitch": 67,
                "velocity": 64,
                "duration": 0.1636,
                "tempo": 120.0
            },
            {
                "pitch": 66,
                "velocity": 64,
                "duration": 0.0659,
                "tempo": 120.0
            },
            {
                "pitch": 0,
                "velocity": 64,
                "duration": 0.7795,
                "tempo": 120.0
            },
            {
                "pitch": 69,
                "velocity": 64,
                "duration": 0.1636,
                "tempo": 120.0
            },
            {
                "pitch": 72,
                "velocity": 64,
                "duration": 0.0636,
                "tempo": 120.0
            },
            {
                "pitch": 0,
                "velocity": 64,
                "duration": 0.1659,
                "tempo": 120.0
            },
            {
                "pitch": 67,
                "velocity": 64,
                "duration": 0.1682,
                "tempo": 120.0
            },
            {
                "pitch": 66,
                "velocity": 64,
                "duration": 0.1682,
                "tempo": 120.0
            },
            {
                "pitch": 69,
                "velocity": 64,
                "duration": 0.0705,
                "tempo": 120.0
            },
            {
                "pitch": 0,
                "velocity": 64,
                "duration": 0.1705,
                "tempo": 120.0
            },
            {
                "pitch": 66,
                "velocity": 64,
                "duration": 0.0636,
                "tempo": 120.0
            },
            {
                "pitch": 66,
                "velocity": 64,
                "duration": 0.0659,
                "tempo": 120.0
            },
            {
                "pitch": 67,
                "velocity": 64,
                "duration": 0.1636,
                "tempo": 120.0
            },
            {
                "pitch": 69,
                "velocity": 64,
                "duration": 0.1727,
                "tempo": 120.0
            },
            {
                "pitch": 72,
                "velocity": 64,
                "duration": 0.0682,
                "tempo": 120.0
            },
            {
                "pitch": 76,
                "velocity": 64,
                "duration": 0.0682,
                "tempo": 120.0
            },
            {
                "pitch": 0,
                "velocity": 64,
                "duration": 0.0659,
                "tempo": 120.0
            },
            {
                "pitch": 67,
                "velocity": 64,
                "duration": 0.1636,
                "tempo": 120.0
            },
            {
                "pitch": 66,
                "velocity": 64,
                "duration": 0.0659,
                "tempo": 120.0
            },
            {
                "pitch": 0,
                "velocity": 64,
                "duration": 0.7682,
                "tempo": 120.0
            },
            {
                "pitch": 69,
                "velocity": 64,
                "duration": 0.1545,
                "tempo": 120.0
            },
            {
                "pitch": 72,
                "velocity": 64,
                "duration": 0.0636,
                "tempo": 120.0
            },
            {
                "pitch": 0,
                "velocity": 64,
                "duration": 0.1636,
                "tempo": 120.0
            },
            {
                "pitch": 67,
                "velocity": 64,
                "duration": 0.1682,
                "tempo": 120.0
            },
            {
                "pitch": 66,
                "velocity": 64,
                "duration": 0.1659,
                "tempo": 120.0
            },
            {
                "pitch": 69,
                "velocity": 64,
                "duration": 0.0659,
                "tempo": 120.0
            },
            {
                "pitch": 0,
                "velocity": 64,
                "duration": 0.1659,
                "tempo": 120.0
            },
            {
                "pitch": 66,
                "velocity": 64,
                "duration": 0.0659,
                "tempo": 120.0
            },
            {
                "pitch": 66,
                "velocity": 64,
                "duration": 0.0682,
                "tempo": 120.0
            },
            {
                "pitch": 67,
                "velocity": 64,
                "duration": 0.1682,
                "tempo": 120.0
            },
            {
                "pitch": 69,
                "velocity": 64,
                "duration": 0.1659,
                "tempo": 120.0
            },
            {
                "pitch": 72,
                "velocity": 64,
                "duration": 0.0659,
                "tempo": 120.0
            },
            {
                "pitch": 0,
                "velocity": 64,
                "duration": 0.1659,
                "tempo": 120.0
            },
            {
                "pitch": 67,
                "velocity": 64,
                "duration": 0.1659,
                "tempo": 120.0
            },
            {
                "pitch": 66,
                "velocity": 64,
                "duration": 0.0659,
                "tempo": 120.0
            },
            {
                "pitch": 0,
                "velocity": 64,
                "duration": 0.7682,
                "tempo": 120.0
            },
            {
                "pitch": 69,
                "velocity": 64,
                "duration": 0.1682,
                "tempo": 120.0
            },
            {
                "pitch": 72,
                "velocity": 64,
                "duration": 0.0659,
                "tempo": 120.0
            },
            {
                "pitch": 0,
                "velocity": 64,
                "duration": 0.1682,
                "tempo": 120.0
            },
            {
                "pitch": 67,
                "velocity": 64,
                "duration": 0.1682,
                "tempo": 120.0
            },
            {
                "pitch": 66,
                "velocity": 64,
                "duration": 0.1682,
                "tempo": 120.0
            },
            {
                "pitch": 69,
                "velocity": 64,
                "duration": 0.0682,
                "tempo": 120.0
            },
            {
                "pitch": 0,
                "velocity": 64,
                "duration": 0.1682,
                "tempo": 120.0
            },
            {
                "pitch": 66,
                "velocity": 64,
                "duration": 0.0682,
                "tempo": 120.0
            },
            {
                "pitch": 66,
                "velocity": 64,
                "duration": 0.0659,
                "tempo": 120.0
            },
            {
                "pitch": 67,
                "velocity": 64,
                "duration": 0.1682,
                "tempo": 120.0
            },
            {
                "pitch": 69,
                "velocity": 64,
                "duration": 0.1682,
                "tempo": 120.0
            },
            {
                "pitch": 72,
                "velocity": 64,
                "duration": 0.0682,
                "tempo": 120.0
            },
            {
                "pitch": 76,
                "velocity": 64,
                "duration": 0.0682,
                "tempo": 120.0
            },
            {
                "pitch": 0,
                "velocity": 64,
                "duration": 0.0659,
                "tempo": 120.0
            },
            {
                "pitch": 67,
                "velocity": 64,
                "duration": 0.1682,
                "tempo": 120.0
            },
            {
                "pitch": 66,
                "velocity": 64,
                "duration": 0.0682,
                "tempo": 120.0
            },
            {
                "pitch": 0,
                "velocity": 64,
                "duration": 0.7591,
                "tempo": 120.0
            },
            {
                "pitch": 62,
                "velocity": 64,
                "duration": 0.0341,
                "tempo": 120.0
            },
            {
                "pitch": 64,
                "velocity": 64,
                "duration": 0.0318,
                "tempo": 120.0
            },
            {
                "pitch": 67,
                "velocity": 64,
                "duration": 0.0341,
                "tempo": 120.0
            },
            {
                "pitch": 64,
                "velocity": 64,
                "duration": 0.0341,
                "tempo": 120.0
            },
            {
                "pitch": 67,
                "velocity": 64,
                "duration": 0.0318,
                "tempo": 120.0
            },
            {
                "pitch": 69,
                "velocity": 64,
                "duration": 0.0341,
                "tempo": 120.0
            },
            {
                "pitch": 67,
                "velocity": 64,
                "duration": 0.0364,
                "tempo": 120.0
            },
            {
                "pitch": 69,
                "velocity": 64,
                "duration": 0.0364,
                "tempo": 120.0
            },
            {
                "pitch": 72,
                "velocity": 64,
                "duration": 0.0364,
                "tempo": 120.0
            },
            {
                "pitch": 69,
                "velocity": 64,
                "duration": 0.0364,
                "tempo": 120.0
            },
            {
                "pitch": 72,
                "velocity": 64,
                "duration": 0.0364,
                "tempo": 120.0
            },
            {
                "pitch": 74,
                "velocity": 64,
                "duration": 0.0341,
                "tempo": 120.0
            },
            {
                "pitch": 72,
                "velocity": 64,
                "duration": 0.0341,
                "tempo": 120.0
            },
            {
                "pitch": 74,
                "velocity": 64,
                "duration": 0.0341,
                "tempo": 120.0
            },
            {
                "pitch": 76,
                "velocity": 64,
                "duration": 0.0318,
                "tempo": 120.0
            },
            {
                "pitch": 74,
                "velocity": 64,
                "duration": 0.0318,
                "tempo": 120.0
            },
            {
                "pitch": 76,
                "velocity": 64,
                "duration": 0.0341,
                "tempo": 120.0
            },
            {
                "pitch": 79,
                "velocity": 64,
                "duration": 0.0341,
                "tempo": 120.0
            },
            {
                "pitch": 81,
                "velocity": 64,
                "duration": 0.0682,
                "tempo": 120.0
            },
            {
                "pitch": 0,
                "velocity": 64,
                "duration": 0.1705,
                "tempo": 120.0
            },
            {
                "pitch": 86,
                "velocity": 64,
                "duration": 2.8705,
                "tempo": 120.0
            },
            {
                "pitch": 0,
                "velocity": 64,
                "duration": 0.3659,
                "tempo": 120.0
            },
            {
                "pitch": 72,
                "velocity": 64,
                "duration": 0.2614,
                "tempo": 120.0
            },
            {
                "pitch": 72,
                "velocity": 64,
                "duration": 0.0659,
                "tempo": 120.0
            },
            {
                "pitch": 0,
                "velocity": 64,
                "duration": 0.175,
                "tempo": 120.0
            },
            {
                "pitch": 72,
                "velocity": 64,
                "duration": 0.175,
                "tempo": 120.0
            },
            {
                "pitch": 0,
                "velocity": 64,
                "duration": 0.1636,
                "tempo": 120.0
            },
            {
                "pitch": 71,
                "velocity": 64,
                "duration": 0.0659,
                "tempo": 120.0
            },
            {
                "pitch": 0,
                "velocity": 64,
                "duration": 0.0659,
                "tempo": 120.0
            },
            {
                "pitch": 72,
                "velocity": 64,
                "duration": 0.1682,
                "tempo": 120.0
            },
            {
                "pitch": 0,
                "velocity": 64,
                "duration": 0.1659,
                "tempo": 120.0
            },
            {
                "pitch": 72,
                "velocity": 64,
                "duration": 0.2659,
                "tempo": 120.0
            },
            {
                "pitch": 72,
                "velocity": 64,
                "duration": 0.0659,
                "tempo": 120.0
            },
            {
                "pitch": 0,
                "velocity": 64,
                "duration": 0.1727,
                "tempo": 120.0
            },
            {
                "pitch": 72,
                "velocity": 64,
                "duration": 0.1705,
                "tempo": 120.0
            },
            {
                "pitch": 0,
                "velocity": 64,
                "duration": 0.1659,
                "tempo": 120.0
            },
            {
                "pitch": 71,
                "velocity": 64,
                "duration": 0.0659,
                "tempo": 120.0
            },
            {
                "pitch": 0,
                "velocity": 64,
                "duration": 0.0659,
                "tempo": 120.0
            },
            {
                "pitch": 72,
                "velocity": 64,
                "duration": 0.1636,
                "tempo": 120.0
            },
            {
                "pitch": 0,
                "velocity": 64,
                "duration": 0.1636,
                "tempo": 120.0
            },
            {
                "pitch": 72,
                "velocity": 64,
                "duration": 0.2682,
                "tempo": 120.0
            },
            {
                "pitch": 72,
                "velocity": 64,
                "duration": 0.0682,
                "tempo": 120.0
            },
            {
                "pitch": 0,
                "velocity": 64,
                "duration": 0.1705,
                "tempo": 120.0
            },
            {
                "pitch": 72,
                "velocity": 64,
                "duration": 0.1705,
                "tempo": 120.0
            },
            {
                "pitch": 0,
                "velocity": 64,
                "duration": 0.1614,
                "tempo": 120.0
            },
            {
                "pitch": 71,
                "velocity": 64,
                "duration": 0.0659,
                "tempo": 120.0
            },
            {
                "pitch": 0,
                "velocity": 64,
                "duration": 0.0659,
                "tempo": 120.0
            },
            {
                "pitch": 72,
                "velocity": 64,
                "duration": 0.1659,
                "tempo": 120.0
            },
            {
                "pitch": 0,
                "velocity": 64,
                "duration": 0.1659,
                "tempo": 120.0
            },
            {
                "pitch": 72,
                "velocity": 64,
                "duration": 0.2659,
                "tempo": 120.0
            },
            {
                "pitch": 72,
                "velocity": 64,
                "duration": 0.0659,
                "tempo": 120.0
            },
            {
                "pitch": 0,
                "velocity": 64,
                "duration": 0.1659,
                "tempo": 120.0
            },
            {
                "pitch": 72,
                "velocity": 64,
                "duration": 0.1659,
                "tempo": 120.0
            },
            {
                "pitch": 0,
                "velocity": 64,
                "duration": 0.1705,
                "tempo": 120.0
            },
            {
                "pitch": 71,
                "velocity": 64,
                "duration": 0.0705,
                "tempo": 120.0
            },
            {
                "pitch": 0,
                "velocity": 64,
                "duration": 0.0659,
                "tempo": 120.0
            },
            {
                "pitch": 72,
                "velocity": 64,
                "duration": 0.1636,
                "tempo": 120.0
            },
            {
                "pitch": 0,
                "velocity": 64,
                "duration": 0.1636,
                "tempo": 120.0
            },
            {
                "pitch": 72,
                "velocity": 64,
                "duration": 0.1659,
                "tempo": 120.0
            },
            {
                "pitch": 69,
                "velocity": 64,
                "duration": 0.1659,
                "tempo": 120.0
            },
            {
                "pitch": 0,
                "velocity": 64,
                "duration": 0.0659,
                "tempo": 120.0
            },
            {
                "pitch": 69,
                "velocity": 64,
                "duration": 0.0659,
                "tempo": 120.0
            },
            {
                "pitch": 0,
                "velocity": 64,
                "duration": 0.0659,
                "tempo": 120.0
            },
            {
                "pitch": 69,
                "velocity": 64,
                "duration": 0.1659,
                "tempo": 120.0
            },
            {
                "pitch": 72,
                "velocity": 64,
                "duration": 0.0659,
                "tempo": 120.0
            },
            {
                "pitch": 0,
                "velocity": 64,
                "duration": 0.0659,
                "tempo": 120.0
            },
            {
                "pitch": 69,
                "velocity": 64,
                "duration": 0.0659,
                "tempo": 120.0
            },
            {
                "pitch": 71,
                "velocity": 64,
                "duration": 0.1682,
                "tempo": 120.0
            },
            {
                "pitch": 72,
                "velocity": 64,
                "duration": 0.1659,
                "tempo": 120.0
            },
            {
                "pitch": 71,
                "velocity": 64,
                "duration": 0.1659,
                "tempo": 120.0
            },
            {
                "pitch": 67,
                "velocity": 64,
                "duration": 0.1659,
                "tempo": 120.0
            },
            {
                "pitch": 0,
                "velocity": 64,
                "duration": 0.0659,
                "tempo": 120.0
            },
            {
                "pitch": 67,
                "velocity": 64,
                "duration": 0.0659,
                "tempo": 120.0
            },
            {
                "pitch": 0,
                "velocity": 64,
                "duration": 0.0659,
                "tempo": 120.0
            },
            {
                "pitch": 67,
                "velocity": 64,
                "duration": 0.1659,
                "tempo": 120.0
            },
            {
                "pitch": 71,
                "velocity": 64,
                "duration": 0.0659,
                "tempo": 120.0
            },
            {
                "pitch": 0,
                "velocity": 64,
                "duration": 0.0659,
                "tempo": 120.0
            },
            {
                "pitch": 67,
                "velocity": 64,
                "duration": 0.0659,
                "tempo": 120.0
            },
            {
                "pitch": 72,
                "velocity": 64,
                "duration": 0.0659,
                "tempo": 120.0
            },
            {
                "pitch": 72,
                "velocity": 64,
                "duration": 0.0659,
                "tempo": 120.0
            },
            {
                "pitch": 67,
                "velocity": 64,
                "duration": 0.1659,
                "tempo": 120.0
            },
            {
                "pitch": 71,
                "velocity": 64,
                "duration": 0.1682,
                "tempo": 120.0
            },
            {
                "pitch": 67,
                "velocity": 64,
                "duration": 0.1682,
                "tempo": 120.0
            },
            {
                "pitch": 0,
                "velocity": 64,
                "duration": 0.0682,
                "tempo": 120.0
            },
            {
                "pitch": 67,
                "velocity": 64,
                "duration": 0.0682,
                "tempo": 120.0
            },
            {
                "pitch": 0,
                "velocity": 64,
                "duration": 0.0682,
                "tempo": 120.0
            },
            {
                "pitch": 67,
                "velocity": 64,
                "duration": 0.1682,
                "tempo": 120.0
            },
            {
                "pitch": 69,
                "velocity": 64,
                "duration": 0.0682,
                "tempo": 120.0
            },
            {
                "pitch": 0,
                "velocity": 64,
                "duration": 0.0682,
                "tempo": 120.0
            },
            {
                "pitch": 71,
                "velocity": 64,
                "duration": 0.0682,
                "tempo": 120.0
            },
            {
                "pitch": 72,
                "velocity": 64,
                "duration": 0.1682,
                "tempo": 120.0
            },
            {
                "pitch": 67,
                "velocity": 64,
                "duration": 0.1682,
                "tempo": 120.0
            },
            {
                "pitch": 72,
                "velocity": 64,
                "duration": 0.1682,
                "tempo": 120.0
            },
            {
                "pitch": 69,
                "velocity": 64,
                "duration": 0.1682,
                "tempo": 120.0
            },
            {
                "pitch": 0,
                "velocity": 64,
                "duration": 0.0682,
                "tempo": 120.0
            },
            {
                "pitch": 69,
                "velocity": 64,
                "duration": 0.0659,
                "tempo": 120.0
            },
            {
                "pitch": 0,
                "velocity": 64,
                "duration": 0.0659,
                "tempo": 120.0
            },
            {
                "pitch": 69,
                "velocity": 64,
                "duration": 0.1682,
                "tempo": 120.0
            },
            {
                "pitch": 72,
                "velocity": 64,
                "duration": 0.0682,
                "tempo": 120.0
            },
            {
                "pitch": 0,
                "velocity": 64,
                "duration": 0.0682,
                "tempo": 120.0
            },
            {
                "pitch": 69,
                "velocity": 64,
                "duration": 0.0682,
                "tempo": 120.0
            },
            {
                "pitch": 71,
                "velocity": 64,
                "duration": 0.0682,
                "tempo": 120.0
            },
            {
                "pitch": 71,
                "velocity": 64,
                "duration": 0.0682,
                "tempo": 120.0
            },
            {
                "pitch": 72,
                "velocity": 64,
                "duration": 0.1682,
                "tempo": 120.0
            },
            {
                "pitch": 72,
                "velocity": 64,
                "duration": 0.1682,
                "tempo": 120.0
            },
            {
                "pitch": 69,
                "velocity": 64,
                "duration": 0.1682,
                "tempo": 120.0
            },
            {
                "pitch": 0,
                "velocity": 64,
                "duration": 0.0682,
                "tempo": 120.0
            },
            {
                "pitch": 69,
                "velocity": 64,
                "duration": 0.0682,
                "tempo": 120.0
            },
            {
                "pitch": 0,
                "velocity": 64,
                "duration": 0.0682,
                "tempo": 120.0
            },
            {
                "pitch": 69,
                "velocity": 64,
                "duration": 0.1682,
                "tempo": 120.0
            },
            {
                "pitch": 72,
                "velocity": 64,
                "duration": 0.0659,
                "tempo": 120.0
            },
            {
                "pitch": 0,
                "velocity": 64,
                "duration": 0.0682,
                "tempo": 120.0
            },
            {
                "pitch": 69,
                "velocity": 64,
                "duration": 0.0682,
                "tempo": 120.0
            },
            {
                "pitch": 71,
                "velocity": 64,
                "duration": 0.1659,
                "tempo": 120.0
            },
            {
                "pitch": 72,
                "velocity": 64,
                "duration": 0.1659,
                "tempo": 120.0
            },
            {
                "pitch": 71,
                "velocity": 64,
                "duration": 0.1659,
                "tempo": 120.0
            },
            {
                "pitch": 67,
                "velocity": 64,
                "duration": 0.1659,
                "tempo": 120.0
            },
            {
                "pitch": 0,
                "velocity": 64,
                "duration": 0.0659,
                "tempo": 120.0
            },
            {
                "pitch": 67,
                "velocity": 64,
                "duration": 0.0659,
                "tempo": 120.0
            },
            {
                "pitch": 0,
                "velocity": 64,
                "duration": 0.0659,
                "tempo": 120.0
            },
            {
                "pitch": 67,
                "velocity": 64,
                "duration": 0.1659,
                "tempo": 120.0
            },
            {
                "pitch": 71,
                "velocity": 64,
                "duration": 0.0659,
                "tempo": 120.0
            },
            {
                "pitch": 0,
                "velocity": 64,
                "duration": 0.0659,
                "tempo": 120.0
            },
            {
                "pitch": 67,
                "velocity": 64,
                "duration": 0.0659,
                "tempo": 120.0
            },
            {
                "pitch": 72,
                "velocity": 64,
                "duration": 0.0659,
                "tempo": 120.0
            },
            {
                "pitch": 72,
                "velocity": 64,
                "duration": 0.0682,
                "tempo": 120.0
            },
            {
                "pitch": 67,
                "velocity": 64,
                "duration": 0.1682,
                "tempo": 120.0
            },
            {
                "pitch": 71,
                "velocity": 64,
                "duration": 0.1659,
                "tempo": 120.0
            },
            {
                "pitch": 67,
                "velocity": 64,
                "duration": 0.1659,
                "tempo": 120.0
            },
            {
                "pitch": 0,
                "velocity": 64,
                "duration": 0.0659,
                "tempo": 120.0
            },
            {
                "pitch": 67,
                "velocity": 64,
                "duration": 0.0659,
                "tempo": 120.0
            },
            {
                "pitch": 0,
                "velocity": 64,
                "duration": 0.0659,
                "tempo": 120.0
            },
            {
                "pitch": 67,
                "velocity": 64,
                "duration": 0.1659,
                "tempo": 120.0
            },
            {
                "pitch": 69,
                "velocity": 64,
                "duration": 0.0659,
                "tempo": 120.0
            },
            {
                "pitch": 0,
                "velocity": 64,
                "duration": 0.0659,
                "tempo": 120.0
            },
            {
                "pitch": 71,
                "velocity": 64,
                "duration": 0.0659,
                "tempo": 120.0
            },
            {
                "pitch": 72,
                "velocity": 64,
                "duration": 0.1659,
                "tempo": 120.0
            },
            {
                "pitch": 67,
                "velocity": 64,
                "duration": 0.1659,
                "tempo": 120.0
            },
            {
                "pitch": 72,
                "velocity": 64,
                "duration": 0.0659,
                "tempo": 120.0
            },
            {
                "pitch": 72,
                "velocity": 64,
                "duration": 0.0682,
                "tempo": 120.0
            },
            {
                "pitch": 72,
                "velocity": 64,
                "duration": 0.0682,
                "tempo": 120.0
            },
            {
                "pitch": 0,
                "velocity": 64,
                "duration": 0.2659,
                "tempo": 120.0
            },
            {
                "pitch": 72,
                "velocity": 64,
                "duration": 0.0659,
                "tempo": 120.0
            },
            {
                "pitch": 72,
                "velocity": 64,
                "duration": 0.0659,
                "tempo": 120.0
            },
            {
                "pitch": 72,
                "velocity": 64,
                "duration": 0.0659,
                "tempo": 120.0
            },
            {
                "pitch": 0,
                "velocity": 64,
                "duration": 0.6659,
                "tempo": 120.0
            },
            {
                "pitch": 69,
                "velocity": 64,
                "duration": 0.1659,
                "tempo": 120.0
            },
            {
                "pitch": 72,
                "velocity": 64,
                "duration": 0.0659,
                "tempo": 120.0
            },
            {
                "pitch": 0,
                "velocity": 64,
                "duration": 0.1682,
                "tempo": 120.0
            },
            {
                "pitch": 69,
                "velocity": 64,
                "duration": 0.1682,
                "tempo": 120.0
            },
            {
                "pitch": 71,
                "velocity": 64,
                "duration": 0.0659,
                "tempo": 120.0
            },
            {
                "pitch": 71,
                "velocity": 64,
                "duration": 0.1659,
                "tempo": 120.0
            },
            {
                "pitch": 74,
                "velocity": 64,
                "duration": 0.0659,
                "tempo": 120.0
            },
            {
                "pitch": 0,
                "velocity": 64,
                "duration": 0.1705,
                "tempo": 120.0
            },
            {
                "pitch": 71,
                "velocity": 64,
                "duration": 0.1705,
                "tempo": 120.0
            },
            {
                "pitch": 72,
                "velocity": 64,
                "duration": 0.0682,
                "tempo": 120.0
            },
            {
                "pitch": 72,
                "velocity": 64,
                "duration": 0.1636,
                "tempo": 120.0
            },
            {
                "pitch": 76,
                "velocity": 64,
                "duration": 0.0636,
                "tempo": 120.0
            },
            {
                "pitch": 0,
                "velocity": 64,
                "duration": 0.1682,
                "tempo": 120.0
            },
            {
                "pitch": 72,
                "velocity": 64,
                "duration": 0.1705,
                "tempo": 120.0
            },
            {
                "pitch": 72,
                "velocity": 64,
                "duration": 0.1636,
                "tempo": 120.0
            },
            {
                "pitch": 76,
                "velocity": 64,
                "duration": 0.1591,
                "tempo": 120.0
            },
            {
                "pitch": 72,
                "velocity": 64,
                "duration": 0.0636,
                "tempo": 120.0
            },
            {
                "pitch": 74,
                "velocity": 64,
                "duration": 0.1727,
                "tempo": 120.0
            },
            {
                "pitch": 76,
                "velocity": 64,
                "duration": 0.1705,
                "tempo": 120.0
            },
            {
                "pitch": 69,
                "velocity": 64,
                "duration": 0.1659,
                "tempo": 120.0
            },
            {
                "pitch": 72,
                "velocity": 64,
                "duration": 0.0659,
                "tempo": 120.0
            },
            {
                "pitch": 0,
                "velocity": 64,
                "duration": 0.1659,
                "tempo": 120.0
            },
            {
                "pitch": 69,
                "velocity": 64,
                "duration": 0.1659,
                "tempo": 120.0
            },
            {
                "pitch": 71,
                "velocity": 64,
                "duration": 0.0659,
                "tempo": 120.0
            },
            {
                "pitch": 71,
                "velocity": 64,
                "duration": 0.1659,
                "tempo": 120.0
            },
            {
                "pitch": 74,
                "velocity": 64,
                "duration": 0.0659,
                "tempo": 120.0
            },
            {
                "pitch": 0,
                "velocity": 64,
                "duration": 0.1682,
                "tempo": 120.0
            },
            {
                "pitch": 71,
                "velocity": 64,
                "duration": 0.1727,
                "tempo": 120.0
            },
            {
                "pitch": 72,
                "velocity": 64,
                "duration": 0.0682,
                "tempo": 120.0
            },
            {
                "pitch": 72,
                "velocity": 64,
                "duration": 0.1636,
                "tempo": 120.0
            },
            {
                "pitch": 76,
                "velocity": 64,
                "duration": 0.0659,
                "tempo": 120.0
            },
            {
                "pitch": 0,
                "velocity": 64,
                "duration": 0.1659,
                "tempo": 120.0
            },
            {
                "pitch": 72,
                "velocity": 64,
                "duration": 0.1659,
                "tempo": 120.0
            },
            {
                "pitch": 72,
                "velocity": 64,
                "duration": 0.1636,
                "tempo": 120.0
            },
            {
                "pitch": 76,
                "velocity": 64,
                "duration": 0.1636,
                "tempo": 120.0
            },
            {
                "pitch": 72,
                "velocity": 64,
                "duration": 0.0659,
                "tempo": 120.0
            },
            {
                "pitch": 74,
                "velocity": 64,
                "duration": 0.1773,
                "tempo": 120.0
            },
            {
                "pitch": 76,
                "velocity": 64,
                "duration": 0.175,
                "tempo": 120.0
            },
            {
                "pitch": 69,
                "velocity": 64,
                "duration": 0.1636,
                "tempo": 120.0
            },
            {
                "pitch": 72,
                "velocity": 64,
                "duration": 0.0659,
                "tempo": 120.0
            },
            {
                "pitch": 0,
                "velocity": 64,
                "duration": 0.1659,
                "tempo": 120.0
            },
            {
                "pitch": 69,
                "velocity": 64,
                "duration": 0.1682,
                "tempo": 120.0
            },
            {
                "pitch": 71,
                "velocity": 64,
                "duration": 0.0682,
                "tempo": 120.0
            },
            {
                "pitch": 71,
                "velocity": 64,
                "duration": 0.1705,
                "tempo": 120.0
            },
            {
                "pitch": 74,
                "velocity": 64,
                "duration": 0.0682,
                "tempo": 120.0
            },
            {
                "pitch": 0,
                "velocity": 64,
                "duration": 0.1682,
                "tempo": 120.0
            },
            {
                "pitch": 71,
                "velocity": 64,
                "duration": 0.1682,
                "tempo": 120.0
            },
            {
                "pitch": 72,
                "velocity": 64,
                "duration": 0.0659,
                "tempo": 120.0
            },
            {
                "pitch": 72,
                "velocity": 64,
                "duration": 0.1636,
                "tempo": 120.0
            },
            {
                "pitch": 76,
                "velocity": 64,
                "duration": 0.0659,
                "tempo": 120.0
            },
            {
                "pitch": 0,
                "velocity": 64,
                "duration": 0.1682,
                "tempo": 120.0
            },
            {
                "pitch": 72,
                "velocity": 64,
                "duration": 0.1682,
                "tempo": 120.0
            },
            {
                "pitch": 72,
                "velocity": 64,
                "duration": 0.1636,
                "tempo": 120.0
            },
            {
                "pitch": 76,
                "velocity": 64,
                "duration": 0.1614,
                "tempo": 120.0
            },
            {
                "pitch": 72,
                "velocity": 64,
                "duration": 0.0659,
                "tempo": 120.0
            },
            {
                "pitch": 74,
                "velocity": 64,
                "duration": 0.1705,
                "tempo": 120.0
            },
            {
                "pitch": 76,
                "velocity": 64,
                "duration": 0.1727,
                "tempo": 120.0
            },
            {
                "pitch": 69,
                "velocity": 64,
                "duration": 0.1682,
                "tempo": 120.0
            },
            {
                "pitch": 72,
                "velocity": 64,
                "duration": 0.0682,
                "tempo": 120.0
            },
            {
                "pitch": 0,
                "velocity": 64,
                "duration": 0.1682,
                "tempo": 120.0
            },
            {
                "pitch": 69,
                "velocity": 64,
                "duration": 0.1682,
                "tempo": 120.0
            },
            {
                "pitch": 71,
                "velocity": 64,
                "duration": 0.0682,
                "tempo": 120.0
            },
            {
                "pitch": 71,
                "velocity": 64,
                "duration": 0.1705,
                "tempo": 120.0
            },
            {
                "pitch": 74,
                "velocity": 64,
                "duration": 0.0682,
                "tempo": 120.0
            },
            {
                "pitch": 0,
                "velocity": 64,
                "duration": 0.1659,
                "tempo": 120.0
            },
            {
                "pitch": 71,
                "velocity": 64,
                "duration": 0.1636,
                "tempo": 120.0
            },
            {
                "pitch": 72,
                "velocity": 64,
                "duration": 0.0659,
                "tempo": 120.0
            },
            {
                "pitch": 72,
                "velocity": 64,
                "duration": 0.1705,
                "tempo": 120.0
            },
            {
                "pitch": 76,
                "velocity": 64,
                "duration": 0.0682,
                "tempo": 120.0
            },
            {
                "pitch": 0,
                "velocity": 64,
                "duration": 0.1636,
                "tempo": 120.0
            },
            {
                "pitch": 72,
                "velocity": 64,
                "duration": 0.1636,
                "tempo": 120.0
            },
            {
                "pitch": 72,
                "velocity": 64,
                "duration": 0.1659,
                "tempo": 120.0
            },
            {
                "pitch": 76,
                "velocity": 64,
                "duration": 0.1659,
                "tempo": 120.0
            },
            {
                "pitch": 72,
                "velocity": 64,
                "duration": 0.0659,
                "tempo": 120.0
            },
            {
                "pitch": 74,
                "velocity": 64,
                "duration": 0.1682,
                "tempo": 120.0
            },
            {
                "pitch": 76,
                "velocity": 64,
                "duration": 0.1682,
                "tempo": 120.0
            },
            {
                "pitch": 76,
                "velocity": 64,
                "duration": 0.1659,
                "tempo": 120.0
            },
            {
                "pitch": 0,
                "velocity": 64,
                "duration": 2.975,
                "tempo": 120.0
            },
            {
                "pitch": 72,
                "velocity": 64,
                "duration": 0.2682,
                "tempo": 120.0
            },
            {
                "pitch": 72,
                "velocity": 64,
                "duration": 0.0682,
                "tempo": 120.0
            },
            {
                "pitch": 0,
                "velocity": 64,
                "duration": 0.1705,
                "tempo": 120.0
            },
            {
                "pitch": 72,
                "velocity": 64,
                "duration": 0.1727,
                "tempo": 120.0
            },
            {
                "pitch": 0,
                "velocity": 64,
                "duration": 0.1682,
                "tempo": 120.0
            },
            {
                "pitch": 71,
                "velocity": 64,
                "duration": 0.0659,
                "tempo": 120.0
            },
            {
                "pitch": 0,
                "velocity": 64,
                "duration": 0.0682,
                "tempo": 120.0
            },
            {
                "pitch": 72,
                "velocity": 64,
                "duration": 0.1636,
                "tempo": 120.0
            },
            {
                "pitch": 0,
                "velocity": 64,
                "duration": 0.1636,
                "tempo": 120.0
            },
            {
                "pitch": 72,
                "velocity": 64,
                "duration": 0.2682,
                "tempo": 120.0
            },
            {
                "pitch": 72,
                "velocity": 64,
                "duration": 0.0682,
                "tempo": 120.0
            },
            {
                "pitch": 0,
                "velocity": 64,
                "duration": 0.1705,
                "tempo": 120.0
            },
            {
                "pitch": 72,
                "velocity": 64,
                "duration": 0.1705,
                "tempo": 120.0
            },
            {
                "pitch": 0,
                "velocity": 64,
                "duration": 0.1659,
                "tempo": 120.0
            },
            {
                "pitch": 71,
                "velocity": 64,
                "duration": 0.0659,
                "tempo": 120.0
            },
            {
                "pitch": 0,
                "velocity": 64,
                "duration": 0.0659,
                "tempo": 120.0
            },
            {
                "pitch": 72,
                "velocity": 64,
                "duration": 0.1614,
                "tempo": 120.0
            },
            {
                "pitch": 0,
                "velocity": 64,
                "duration": 0.1636,
                "tempo": 120.0
            },
            {
                "pitch": 72,
                "velocity": 64,
                "duration": 0.2682,
                "tempo": 120.0
            },
            {
                "pitch": 72,
                "velocity": 64,
                "duration": 0.0659,
                "tempo": 120.0
            },
            {
                "pitch": 0,
                "velocity": 64,
                "duration": 0.1727,
                "tempo": 120.0
            },
            {
                "pitch": 72,
                "velocity": 64,
                "duration": 0.1705,
                "tempo": 120.0
            },
            {
                "pitch": 0,
                "velocity": 64,
                "duration": 0.1636,
                "tempo": 120.0
            },
            {
                "pitch": 71,
                "velocity": 64,
                "duration": 0.0659,
                "tempo": 120.0
            },
            {
                "pitch": 0,
                "velocity": 64,
                "duration": 0.0659,
                "tempo": 120.0
            },
            {
                "pitch": 72,
                "velocity": 64,
                "duration": 0.1682,
                "tempo": 120.0
            },
            {
                "pitch": 0,
                "velocity": 64,
                "duration": 0.1659,
                "tempo": 120.0
            },
            {
                "pitch": 72,
                "velocity": 64,
                "duration": 0.2659,
                "tempo": 120.0
            },
            {
                "pitch": 72,
                "velocity": 64,
                "duration": 0.0682,
                "tempo": 120.0
            },
            {
                "pitch": 0,
                "velocity": 64,
                "duration": 0.1682,
                "tempo": 120.0
            },
            {
                "pitch": 72,
                "velocity": 64,
                "duration": 0.1682,
                "tempo": 120.0
            },
            {
                "pitch": 0,
                "velocity": 64,
                "duration": 0.1705,
                "tempo": 120.0
            },
            {
                "pitch": 71,
                "velocity": 64,
                "duration": 0.0682,
                "tempo": 120.0
            },
            {
                "pitch": 0,
                "velocity": 64,
                "duration": 0.0682,
                "tempo": 120.0
            },
            {
                "pitch": 72,
                "velocity": 64,
                "duration": 0.1636,
                "tempo": 120.0
            },
            {
                "pitch": 0,
                "velocity": 64,
                "duration": 0.1636,
                "tempo": 120.0
            },
            {
                "pitch": 72,
                "velocity": 64,
                "duration": 0.1682,
                "tempo": 120.0
            },
            {
                "pitch": 69,
                "velocity": 64,
                "duration": 0.1682,
                "tempo": 120.0
            },
            {
                "pitch": 0,
                "velocity": 64,
                "duration": 0.0659,
                "tempo": 120.0
            },
            {
                "pitch": 69,
                "velocity": 64,
                "duration": 0.0659,
                "tempo": 120.0
            },
            {
                "pitch": 0,
                "velocity": 64,
                "duration": 0.0659,
                "tempo": 120.0
            },
            {
                "pitch": 69,
                "velocity": 64,
                "duration": 0.1659,
                "tempo": 120.0
            },
            {
                "pitch": 72,
                "velocity": 64,
                "duration": 0.0682,
                "tempo": 120.0
            },
            {
                "pitch": 0,
                "velocity": 64,
                "duration": 0.0659,
                "tempo": 120.0
            },
            {
                "pitch": 69,
                "velocity": 64,
                "duration": 0.0659,
                "tempo": 120.0
            },
            {
                "pitch": 71,
                "velocity": 64,
                "duration": 0.1682,
                "tempo": 120.0
            },
            {
                "pitch": 72,
                "velocity": 64,
                "duration": 0.1659,
                "tempo": 120.0
            },
            {
                "pitch": 71,
                "velocity": 64,
                "duration": 0.1659,
                "tempo": 120.0
            },
            {
                "pitch": 67,
                "velocity": 64,
                "duration": 0.1682,
                "tempo": 120.0
            },
            {
                "pitch": 0,
                "velocity": 64,
                "duration": 0.0682,
                "tempo": 120.0
            },
            {
                "pitch": 67,
                "velocity": 64,
                "duration": 0.0659,
                "tempo": 120.0
            },
            {
                "pitch": 0,
                "velocity": 64,
                "duration": 0.0659,
                "tempo": 120.0
            },
            {
                "pitch": 67,
                "velocity": 64,
                "duration": 0.1682,
                "tempo": 120.0
            },
            {
                "pitch": 71,
                "velocity": 64,
                "duration": 0.0682,
                "tempo": 120.0
            },
            {
                "pitch": 0,
                "velocity": 64,
                "duration": 0.0682,
                "tempo": 120.0
            },
            {
                "pitch": 67,
                "velocity": 64,
                "duration": 0.0682,
                "tempo": 120.0
            },
            {
                "pitch": 72,
                "velocity": 64,
                "duration": 0.0682,
                "tempo": 120.0
            },
            {
                "pitch": 72,
                "velocity": 64,
                "duration": 0.0659,
                "tempo": 120.0
            },
            {
                "pitch": 67,
                "velocity": 64,
                "duration": 0.1682,
                "tempo": 120.0
            },
            {
                "pitch": 71,
                "velocity": 64,
                "duration": 0.1659,
                "tempo": 120.0
            },
            {
                "pitch": 67,
                "velocity": 64,
                "duration": 0.1682,
                "tempo": 120.0
            },
            {
                "pitch": 0,
                "velocity": 64,
                "duration": 0.0659,
                "tempo": 120.0
            },
            {
                "pitch": 67,
                "velocity": 64,
                "duration": 0.0659,
                "tempo": 120.0
            },
            {
                "pitch": 0,
                "velocity": 64,
                "duration": 0.0659,
                "tempo": 120.0
            },
            {
                "pitch": 67,
                "velocity": 64,
                "duration": 0.1659,
                "tempo": 120.0
            },
            {
                "pitch": 69,
                "velocity": 64,
                "duration": 0.0682,
                "tempo": 120.0
            },
            {
                "pitch": 0,
                "velocity": 64,
                "duration": 0.0682,
                "tempo": 120.0
            },
            {
                "pitch": 71,
                "velocity": 64,
                "duration": 0.0659,
                "tempo": 120.0
            },
            {
                "pitch": 72,
                "velocity": 64,
                "duration": 0.1659,
                "tempo": 120.0
            },
            {
                "pitch": 67,
                "velocity": 64,
                "duration": 0.1659,
                "tempo": 120.0
            },
            {
                "pitch": 72,
                "velocity": 64,
                "duration": 0.1682,
                "tempo": 120.0
            },
            {
                "pitch": 69,
                "velocity": 64,
                "duration": 0.1659,
                "tempo": 120.0
            },
            {
                "pitch": 0,
                "velocity": 64,
                "duration": 0.0682,
                "tempo": 120.0
            },
            {
                "pitch": 69,
                "velocity": 64,
                "duration": 0.0659,
                "tempo": 120.0
            },
            {
                "pitch": 0,
                "velocity": 64,
                "duration": 0.0659,
                "tempo": 120.0
            },
            {
                "pitch": 69,
                "velocity": 64,
                "duration": 0.1682,
                "tempo": 120.0
            },
            {
                "pitch": 72,
                "velocity": 64,
                "duration": 0.0682,
                "tempo": 120.0
            },
            {
                "pitch": 0,
                "velocity": 64,
                "duration": 0.0682,
                "tempo": 120.0
            },
            {
                "pitch": 69,
                "velocity": 64,
                "duration": 0.0682,
                "tempo": 120.0
            },
            {
                "pitch": 71,
                "velocity": 64,
                "duration": 0.0682,
                "tempo": 120.0
            },
            {
                "pitch": 71,
                "velocity": 64,
                "duration": 0.0659,
                "tempo": 120.0
            },
            {
                "pitch": 72,
                "velocity": 64,
                "duration": 0.1682,
                "tempo": 120.0
            },
            {
                "pitch": 72,
                "velocity": 64,
                "duration": 0.1682,
                "tempo": 120.0
            },
            {
                "pitch": 69,
                "velocity": 64,
                "duration": 0.1682,
                "tempo": 120.0
            },
            {
                "pitch": 0,
                "velocity": 64,
                "duration": 0.0659,
                "tempo": 120.0
            },
            {
                "pitch": 69,
                "velocity": 64,
                "duration": 0.0659,
                "tempo": 120.0
            },
            {
                "pitch": 0,
                "velocity": 64,
                "duration": 0.0682,
                "tempo": 120.0
            },
            {
                "pitch": 69,
                "velocity": 64,
                "duration": 0.1682,
                "tempo": 120.0
            },
            {
                "pitch": 72,
                "velocity": 64,
                "duration": 0.0682,
                "tempo": 120.0
            },
            {
                "pitch": 0,
                "velocity": 64,
                "duration": 0.0682,
                "tempo": 120.0
            },
            {
                "pitch": 69,
                "velocity": 64,
                "duration": 0.0659,
                "tempo": 120.0
            },
            {
                "pitch": 71,
                "velocity": 64,
                "duration": 0.1659,
                "tempo": 120.0
            },
            {
                "pitch": 72,
                "velocity": 64,
                "duration": 0.1659,
                "tempo": 120.0
            },
            {
                "pitch": 71,
                "velocity": 64,
                "duration": 0.1682,
                "tempo": 120.0
            },
            {
                "pitch": 67,
                "velocity": 64,
                "duration": 0.1659,
                "tempo": 120.0
            },
            {
                "pitch": 0,
                "velocity": 64,
                "duration": 0.0659,
                "tempo": 120.0
            },
            {
                "pitch": 67,
                "velocity": 64,
                "duration": 0.0659,
                "tempo": 120.0
            },
            {
                "pitch": 0,
                "velocity": 64,
                "duration": 0.0659,
                "tempo": 120.0
            },
            {
                "pitch": 67,
                "velocity": 64,
                "duration": 0.1682,
                "tempo": 120.0
            },
            {
                "pitch": 71,
                "velocity": 64,
                "duration": 0.0682,
                "tempo": 120.0
            },
            {
                "pitch": 0,
                "velocity": 64,
                "duration": 0.0659,
                "tempo": 120.0
            },
            {
                "pitch": 67,
                "velocity": 64,
                "duration": 0.0682,
                "tempo": 120.0
            },
            {
                "pitch": 72,
                "velocity": 64,
                "duration": 0.0682,
                "tempo": 120.0
            },
            {
                "pitch": 72,
                "velocity": 64,
                "duration": 0.0659,
                "tempo": 120.0
            },
            {
                "pitch": 67,
                "velocity": 64,
                "duration": 0.1682,
                "tempo": 120.0
            },
            {
                "pitch": 71,
                "velocity": 64,
                "duration": 0.1682,
                "tempo": 120.0
            },
            {
                "pitch": 67,
                "velocity": 64,
                "duration": 0.1682,
                "tempo": 120.0
            },
            {
                "pitch": 0,
                "velocity": 64,
                "duration": 0.0682,
                "tempo": 120.0
            },
            {
                "pitch": 67,
                "velocity": 64,
                "duration": 0.0659,
                "tempo": 120.0
            },
            {
                "pitch": 0,
                "velocity": 64,
                "duration": 0.0682,
                "tempo": 120.0
            },
            {
                "pitch": 67,
                "velocity": 64,
                "duration": 0.1682,
                "tempo": 120.0
            },
            {
                "pitch": 69,
                "velocity": 64,
                "duration": 0.0659,
                "tempo": 120.0
            },
            {
                "pitch": 0,
                "velocity": 64,
                "duration": 0.0659,
                "tempo": 120.0
            },
            {
                "pitch": 71,
                "velocity": 64,
                "duration": 0.0659,
                "tempo": 120.0
            },
            {
                "pitch": 72,
                "velocity": 64,
                "duration": 0.1659,
                "tempo": 120.0
            },
            {
                "pitch": 67,
                "velocity": 64,
                "duration": 0.1682,
                "tempo": 120.0
            },
            {
                "pitch": 72,
                "velocity": 64,
                "duration": 0.0659,
                "tempo": 120.0
            },
            {
                "pitch": 72,
                "velocity": 64,
                "duration": 0.0682,
                "tempo": 120.0
            },
            {
                "pitch": 72,
                "velocity": 64,
                "duration": 0.0682,
                "tempo": 120.0
            },
            {
                "pitch": 0,
                "velocity": 64,
                "duration": 0.2659,
                "tempo": 120.0
            },
            {
                "pitch": 72,
                "velocity": 64,
                "duration": 0.0659,
                "tempo": 120.0
            },
            {
                "pitch": 72,
                "velocity": 64,
                "duration": 0.0659,
                "tempo": 120.0
            },
            {
                "pitch": 72,
                "velocity": 64,
                "duration": 0.0682,
                "tempo": 120.0
            },
            {
                "pitch": 0,
                "velocity": 64,
                "duration": 0.6682,
                "tempo": 120.0
            },
            {
                "pitch": 69,
                "velocity": 64,
                "duration": 0.1682,
                "tempo": 120.0
            },
            {
                "pitch": 72,
                "velocity": 64,
                "duration": 0.0659,
                "tempo": 120.0
            },
            {
                "pitch": 0,
                "velocity": 64,
                "duration": 0.1682,
                "tempo": 120.0
            },
            {
                "pitch": 69,
                "velocity": 64,
                "duration": 0.1682,
                "tempo": 120.0
            },
            {
                "pitch": 71,
                "velocity": 64,
                "duration": 0.0682,
                "tempo": 120.0
            },
            {
                "pitch": 71,
                "velocity": 64,
                "duration": 0.1682,
                "tempo": 120.0
            },
            {
                "pitch": 74,
                "velocity": 64,
                "duration": 0.0682,
                "tempo": 120.0
            },
            {
                "pitch": 0,
                "velocity": 64,
                "duration": 0.1705,
                "tempo": 120.0
            },
            {
                "pitch": 71,
                "velocity": 64,
                "duration": 0.1705,
                "tempo": 120.0
            },
            {
                "pitch": 72,
                "velocity": 64,
                "duration": 0.0659,
                "tempo": 120.0
            },
            {
                "pitch": 72,
                "velocity": 64,
                "duration": 0.1636,
                "tempo": 120.0
            },
            {
                "pitch": 76,
                "velocity": 64,
                "duration": 0.0659,
                "tempo": 120.0
            },
            {
                "pitch": 0,
                "velocity": 64,
                "duration": 0.1682,
                "tempo": 120.0
            },
            {
                "pitch": 72,
                "velocity": 64,
                "duration": 0.1727,
                "tempo": 120.0
            },
            {
                "pitch": 72,
                "velocity": 64,
                "duration": 0.1614,
                "tempo": 120.0
            },
            {
                "pitch": 76,
                "velocity": 64,
                "duration": 0.1591,
                "tempo": 120.0
            },
            {
                "pitch": 72,
                "velocity": 64,
                "duration": 0.0636,
                "tempo": 120.0
            },
            {
                "pitch": 74,
                "velocity": 64,
                "duration": 0.175,
                "tempo": 120.0
            },
            {
                "pitch": 76,
                "velocity": 64,
                "duration": 0.175,
                "tempo": 120.0
            },
            {
                "pitch": 69,
                "velocity": 64,
                "duration": 0.1636,
                "tempo": 120.0
            },
            {
                "pitch": 72,
                "velocity": 64,
                "duration": 0.0659,
                "tempo": 120.0
            },
            {
                "pitch": 0,
                "velocity": 64,
                "duration": 0.1636,
                "tempo": 120.0
            },
            {
                "pitch": 69,
                "velocity": 64,
                "duration": 0.1659,
                "tempo": 120.0
            },
            {
                "pitch": 71,
                "velocity": 64,
                "duration": 0.0682,
                "tempo": 120.0
            },
            {
                "pitch": 71,
                "velocity": 64,
                "duration": 0.1682,
                "tempo": 120.0
            },
            {
                "pitch": 74,
                "velocity": 64,
                "duration": 0.0659,
                "tempo": 120.0
            },
            {
                "pitch": 0,
                "velocity": 64,
                "duration": 0.1705,
                "tempo": 120.0
            },
            {
                "pitch": 71,
                "velocity": 64,
                "duration": 0.1705,
                "tempo": 120.0
            },
            {
                "pitch": 72,
                "velocity": 64,
                "duration": 0.0682,
                "tempo": 120.0
            },
            {
                "pitch": 72,
                "velocity": 64,
                "duration": 0.1636,
                "tempo": 120.0
            },
            {
                "pitch": 76,
                "velocity": 64,
                "duration": 0.0659,
                "tempo": 120.0
            },
            {
                "pitch": 0,
                "velocity": 64,
                "duration": 0.1659,
                "tempo": 120.0
            },
            {
                "pitch": 72,
                "velocity": 64,
                "duration": 0.1682,
                "tempo": 120.0
            },
            {
                "pitch": 72,
                "velocity": 64,
                "duration": 0.1636,
                "tempo": 120.0
            },
            {
                "pitch": 76,
                "velocity": 64,
                "duration": 0.1636,
                "tempo": 120.0
            },
            {
                "pitch": 72,
                "velocity": 64,
                "duration": 0.0659,
                "tempo": 120.0
            },
            {
                "pitch": 74,
                "velocity": 64,
                "duration": 0.1773,
                "tempo": 120.0
            },
            {
                "pitch": 76,
                "velocity": 64,
                "duration": 0.175,
                "tempo": 120.0
            },
            {
                "pitch": 69,
                "velocity": 64,
                "duration": 0.1636,
                "tempo": 120.0
            },
            {
                "pitch": 72,
                "velocity": 64,
                "duration": 0.0636,
                "tempo": 120.0
            },
            {
                "pitch": 0,
                "velocity": 64,
                "duration": 0.1659,
                "tempo": 120.0
            },
            {
                "pitch": 69,
                "velocity": 64,
                "duration": 0.1682,
                "tempo": 120.0
            },
            {
                "pitch": 71,
                "velocity": 64,
                "duration": 0.0682,
                "tempo": 120.0
            },
            {
                "pitch": 71,
                "velocity": 64,
                "duration": 0.1682,
                "tempo": 120.0
            },
            {
                "pitch": 74,
                "velocity": 64,
                "duration": 0.0682,
                "tempo": 120.0
            },
            {
                "pitch": 0,
                "velocity": 64,
                "duration": 0.1682,
                "tempo": 120.0
            },
            {
                "pitch": 71,
                "velocity": 64,
                "duration": 0.1659,
                "tempo": 120.0
            },
            {
                "pitch": 72,
                "velocity": 64,
                "duration": 0.0659,
                "tempo": 120.0
            },
            {
                "pitch": 72,
                "velocity": 64,
                "duration": 0.1682,
                "tempo": 120.0
            },
            {
                "pitch": 76,
                "velocity": 64,
                "duration": 0.0682,
                "tempo": 120.0
            },
            {
                "pitch": 0,
                "velocity": 64,
                "duration": 0.1659,
                "tempo": 120.0
            },
            {
                "pitch": 72,
                "velocity": 64,
                "duration": 0.1682,
                "tempo": 120.0
            },
            {
                "pitch": 72,
                "velocity": 64,
                "duration": 0.1636,
                "tempo": 120.0
            },
            {
                "pitch": 76,
                "velocity": 64,
                "duration": 0.1636,
                "tempo": 120.0
            },
            {
                "pitch": 72,
                "velocity": 64,
                "duration": 0.0659,
                "tempo": 120.0
            },
            {
                "pitch": 74,
                "velocity": 64,
                "duration": 0.1773,
                "tempo": 120.0
            },
            {
                "pitch": 76,
                "velocity": 64,
                "duration": 0.175,
                "tempo": 120.0
            },
            {
                "pitch": 69,
                "velocity": 64,
                "duration": 0.1636,
                "tempo": 120.0
            },
            {
                "pitch": 72,
                "velocity": 64,
                "duration": 0.0659,
                "tempo": 120.0
            },
            {
                "pitch": 0,
                "velocity": 64,
                "duration": 0.1659,
                "tempo": 120.0
            },
            {
                "pitch": 69,
                "velocity": 64,
                "duration": 0.1682,
                "tempo": 120.0
            },
            {
                "pitch": 71,
                "velocity": 64,
                "duration": 0.0682,
                "tempo": 120.0
            },
            {
                "pitch": 71,
                "velocity": 64,
                "duration": 0.1682,
                "tempo": 120.0
            },
            {
                "pitch": 74,
                "velocity": 64,
                "duration": 0.0682,
                "tempo": 120.0
            },
            {
                "pitch": 0,
                "velocity": 64,
                "duration": 0.1659,
                "tempo": 120.0
            },
            {
                "pitch": 71,
                "velocity": 64,
                "duration": 0.1659,
                "tempo": 120.0
            },
            {
                "pitch": 72,
                "velocity": 64,
                "duration": 0.0659,
                "tempo": 120.0
            },
            {
                "pitch": 72,
                "velocity": 64,
                "duration": 0.1636,
                "tempo": 120.0
            },
            {
                "pitch": 76,
                "velocity": 64,
                "duration": 0.0636,
                "tempo": 120.0
            },
            {
                "pitch": 0,
                "velocity": 64,
                "duration": 0.1682,
                "tempo": 120.0
            },
            {
                "pitch": 72,
                "velocity": 64,
                "duration": 0.1705,
                "tempo": 120.0
            },
            {
                "pitch": 72,
                "velocity": 64,
                "duration": 0.1682,
                "tempo": 120.0
            },
            {
                "pitch": 76,
                "velocity": 64,
                "duration": 0.1659,
                "tempo": 120.0
            },
            {
                "pitch": 72,
                "velocity": 64,
                "duration": 0.0682,
                "tempo": 120.0
            },
            {
                "pitch": 74,
                "velocity": 64,
                "duration": 0.1682,
                "tempo": 120.0
            },
            {
                "pitch": 76,
                "velocity": 64,
                "duration": 0.1682,
                "tempo": 120.0
            },
            {
                "pitch": 76,
                "velocity": 64,
                "duration": 0.1682,
                "tempo": 120.0
            },
            {
                "pitch": 0,
                "velocity": 64,
                "duration": 2.9773,
                "tempo": 120.0
            },
            {
                "pitch": 0,
                "velocity": 64,
                "duration": 0.0636,
                "tempo": 120.0
            },
            {
                "pitch": 57,
                "velocity": 64,
                "duration": 0.0659,
                "tempo": 120.0
            },
            {
                "pitch": 0,
                "velocity": 64,
                "duration": 0.0659,
                "tempo": 120.0
            },
            {
                "pitch": 60,
                "velocity": 64,
                "duration": 0.0614,
                "tempo": 120.0
            },
            {
                "pitch": 0,
                "velocity": 64,
                "duration": 0.0614,
                "tempo": 120.0
            },
            {
                "pitch": 62,
                "velocity": 64,
                "duration": 0.0614,
                "tempo": 120.0
            },
            {
                "pitch": 0,
                "velocity": 64,
                "duration": 0.0614,
                "tempo": 120.0
            },
            {
                "pitch": 64,
                "velocity": 64,
                "duration": 0.0659,
                "tempo": 120.0
            },
            {
                "pitch": 0,
                "velocity": 64,
                "duration": 0.0682,
                "tempo": 120.0
            },
            {
                "pitch": 62,
                "velocity": 64,
                "duration": 0.0659,
                "tempo": 120.0
            },
            {
                "pitch": 0,
                "velocity": 64,
                "duration": 0.0659,
                "tempo": 120.0
            },
            {
                "pitch": 64,
                "velocity": 64,
                "duration": 0.0636,
                "tempo": 120.0
            },
            {
                "pitch": 0,
                "velocity": 64,
                "duration": 0.0636,
                "tempo": 120.0
            },
            {
                "pitch": 67,
                "velocity": 64,
                "duration": 0.0636,
                "tempo": 120.0
            },
            {
                "pitch": 0,
                "velocity": 64,
                "duration": 0.0636,
                "tempo": 120.0
            },
            {
                "pitch": 69,
                "velocity": 64,
                "duration": 0.0591,
                "tempo": 120.0
            },
            {
                "pitch": 0,
                "velocity": 64,
                "duration": 0.0591,
                "tempo": 120.0
            },
            {
                "pitch": 69,
                "velocity": 64,
                "duration": 0.0614,
                "tempo": 120.0
            },
            {
                "pitch": 0,
                "velocity": 64,
                "duration": 0.0614,
                "tempo": 120.0
            },
            {
                "pitch": 72,
                "velocity": 64,
                "duration": 0.0682,
                "tempo": 120.0
            },
            {
                "pitch": 0,
                "velocity": 64,
                "duration": 0.0659,
                "tempo": 120.0
            },
            {
                "pitch": 74,
                "velocity": 64,
                "duration": 0.0659,
                "tempo": 120.0
            },
            {
                "pitch": 0,
                "velocity": 64,
                "duration": 0.0682,
                "tempo": 120.0
            },
            {
                "pitch": 76,
                "velocity": 64,
                "duration": 0.0682,
                "tempo": 120.0
            },
            {
                "pitch": 0,
                "velocity": 64,
                "duration": 0.0682,
                "tempo": 120.0
            },
            {
                "pitch": 79,
                "velocity": 64,
                "duration": 0.0682,
                "tempo": 120.0
            },
            {
                "pitch": 0,
                "velocity": 64,
                "duration": 0.0659,
                "tempo": 120.0
            },
            {
                "pitch": 80,
                "velocity": 64,
                "duration": 0.0636,
                "tempo": 120.0
            },
            {
                "pitch": 0,
                "velocity": 64,
                "duration": 0.0659,
                "tempo": 120.0
            },
            {
                "pitch": 81,
                "velocity": 64,
                "duration": 1.4773,
                "tempo": 120.0
            },
            {
                "pitch": 0,
                "velocity": 64,
                "duration": 0.4727,
                "tempo": 120.0
            },
            {
                "pitch": 84,
                "velocity": 64,
                "duration": 0.0682,
                "tempo": 120.0
            },
            {
                "pitch": 0,
                "velocity": 64,
                "duration": 0.0682,
                "tempo": 120.0
            },
            {
                "pitch": 84,
                "velocity": 64,
                "duration": 0.075,
                "tempo": 120.0
            },
            {
                "pitch": 0,
                "velocity": 64,
                "duration": 0.2932,
                "tempo": 120.0
            },
            {
                "pitch": 86,
                "velocity": 64,
                "duration": 0.0705,
                "tempo": 120.0
            },
            {
                "pitch": 0,
                "velocity": 64,
                "duration": 0.0682,
                "tempo": 120.0
            },
            {
                "pitch": 86,
                "velocity": 64,
                "duration": 0.0682,
                "tempo": 120.0
            },
            {
                "pitch": 0,
                "velocity": 64,
                "duration": 0.7045,
                "tempo": 120.0
            },
            {
                "pitch": 86,
                "velocity": 64,
                "duration": 0.0682,
                "tempo": 120.0
            },
            {
                "pitch": 0,
                "velocity": 64,
                "duration": 0.0659,
                "tempo": 120.0
            },
            {
                "pitch": 86,
                "velocity": 64,
                "duration": 0.0682,
                "tempo": 120.0
            },
            {
                "pitch": 0,
                "velocity": 64,
                "duration": 0.2818,
                "tempo": 120.0
            },
            {
                "pitch": 88,
                "velocity": 64,
                "duration": 0.0682,
                "tempo": 120.0
            },
            {
                "pitch": 0,
                "velocity": 64,
                "duration": 0.0659,
                "tempo": 120.0
            },
            {
                "pitch": 88,
                "velocity": 64,
                "duration": 0.0659,
                "tempo": 120.0
            },
            {
                "pitch": 0,
                "velocity": 64,
                "duration": 0.6568,
                "tempo": 120.0
            },
            {
                "pitch": 84,
                "velocity": 64,
                "duration": 0.0659,
                "tempo": 120.0
            },
            {
                "pitch": 0,
                "velocity": 64,
                "duration": 0.0659,
                "tempo": 120.0
            },
            {
                "pitch": 84,
                "velocity": 64,
                "duration": 0.0659,
                "tempo": 120.0
            },
            {
                "pitch": 0,
                "velocity": 64,
                "duration": 0.2818,
                "tempo": 120.0
            },
            {
                "pitch": 86,
                "velocity": 64,
                "duration": 0.0682,
                "tempo": 120.0
            },
            {
                "pitch": 0,
                "velocity": 64,
                "duration": 0.0636,
                "tempo": 120.0
            },
            {
                "pitch": 86,
                "velocity": 64,
                "duration": 0.0636,
                "tempo": 120.0
            },
            {
                "pitch": 0,
                "velocity": 64,
                "duration": 0.6682,
                "tempo": 120.0
            },
            {
                "pitch": 86,
                "velocity": 64,
                "duration": 0.0659,
                "tempo": 120.0
            },
            {
                "pitch": 0,
                "velocity": 64,
                "duration": 0.0659,
                "tempo": 120.0
            },
            {
                "pitch": 86,
                "velocity": 64,
                "duration": 0.0659,
                "tempo": 120.0
            },
            {
                "pitch": 0,
                "velocity": 64,
                "duration": 0.2818,
                "tempo": 120.0
            },
            {
                "pitch": 88,
                "velocity": 64,
                "duration": 0.0705,
                "tempo": 120.0
            },
            {
                "pitch": 0,
                "velocity": 64,
                "duration": 0.0682,
                "tempo": 120.0
            },
            {
                "pitch": 88,
                "velocity": 64,
                "duration": 0.0682,
                "tempo": 120.0
            },
            {
                "pitch": 0,
                "velocity": 64,
                "duration": 0.2659,
                "tempo": 120.0
            },
            {
                "pitch": 86,
                "velocity": 64,
                "duration": 1.8705,
                "tempo": 120.0
            },
            {
                "pitch": 0,
                "velocity": 64,
                "duration": 1.5727,
                "tempo": 120.0
            },
            {
                "pitch": 69,
                "velocity": 64,
                "duration": 0.1682,
                "tempo": 120.0
            },
            {
                "pitch": 72,
                "velocity": 64,
                "duration": 0.0682,
                "tempo": 120.0
            },
            {
                "pitch": 0,
                "velocity": 64,
                "duration": 0.1659,
                "tempo": 120.0
            },
            {
                "pitch": 69,
                "velocity": 64,
                "duration": 0.1659,
                "tempo": 120.0
            },
            {
                "pitch": 69,
                "velocity": 64,
                "duration": 0.1682,
                "tempo": 120.0
            },
            {
                "pitch": 72,
                "velocity": 64,
                "duration": 0.1727,
                "tempo": 120.0
            },
            {
                "pitch": 0,
                "velocity": 64,
                "duration": 0.0682,
                "tempo": 120.0
            },
            {
                "pitch": 69,
                "velocity": 64,
                "duration": 0.0659,
                "tempo": 120.0
            },
            {
                "pitch": 69,
                "velocity": 64,
                "duration": 0.0659,
                "tempo": 120.0
            },
            {
                "pitch": 67,
                "velocity": 64,
                "duration": 0.1636,
                "tempo": 120.0
            },
            {
                "pitch": 66,
                "velocity": 64,
                "duration": 0.1682,
                "tempo": 120.0
            },
            {
                "pitch": 69,
                "velocity": 64,
                "duration": 0.0659,
                "tempo": 120.0
            },
            {
                "pitch": 0,
                "velocity": 64,
                "duration": 0.1682,
                "tempo": 120.0
            },
            {
                "pitch": 66,
                "velocity": 64,
                "duration": 0.1659,
                "tempo": 120.0
            },
            {
                "pitch": 66,
                "velocity": 64,
                "duration": 0.1705,
                "tempo": 120.0
            },
            {
                "pitch": 69,
                "velocity": 64,
                "duration": 0.1705,
                "tempo": 120.0
            },
            {
                "pitch": 0,
                "velocity": 64,
                "duration": 0.0659,
                "tempo": 120.0
            },
            {
                "pitch": 66,
                "velocity": 64,
                "duration": 0.0636,
                "tempo": 120.0
            },
            {
                "pitch": 66,
                "velocity": 64,
                "duration": 0.0659,
                "tempo": 120.0
            },
            {
                "pitch": 67,
                "velocity": 64,
                "duration": 0.1636,
                "tempo": 120.0
            },
            {
                "pitch": 69,
                "velocity": 64,
                "duration": 0.1659,
                "tempo": 120.0
            },
            {
                "pitch": 72,
                "velocity": 64,
                "duration": 0.0659,
                "tempo": 120.0
            },
            {
                "pitch": 0,
                "velocity": 64,
                "duration": 0.1659,
                "tempo": 120.0
            },
            {
                "pitch": 69,
                "velocity": 64,
                "duration": 0.1682,
                "tempo": 120.0
            },
            {
                "pitch": 69,
                "velocity": 64,
                "duration": 0.1705,
                "tempo": 120.0
            },
            {
                "pitch": 72,
                "velocity": 64,
                "duration": 0.1705,
                "tempo": 120.0
            },
            {
                "pitch": 0,
                "velocity": 64,
                "duration": 0.0682,
                "tempo": 120.0
            },
            {
                "pitch": 69,
                "velocity": 64,
                "duration": 0.0659,
                "tempo": 120.0
            },
            {
                "pitch": 69,
                "velocity": 64,
                "duration": 0.0659,
                "tempo": 120.0
            },
            {
                "pitch": 67,
                "velocity": 64,
                "duration": 0.1659,
                "tempo": 120.0
            },
            {
                "pitch": 66,
                "velocity": 64,
                "duration": 0.1682,
                "tempo": 120.0
            },
            {
                "pitch": 69,
                "velocity": 64,
                "duration": 0.0659,
                "tempo": 120.0
            },
            {
                "pitch": 0,
                "velocity": 64,
                "duration": 0.1682,
                "tempo": 120.0
            },
            {
                "pitch": 66,
                "velocity": 64,
                "duration": 0.1682,
                "tempo": 120.0
            },
            {
                "pitch": 66,
                "velocity": 64,
                "duration": 0.1705,
                "tempo": 120.0
            },
            {
                "pitch": 69,
                "velocity": 64,
                "duration": 0.1705,
                "tempo": 120.0
            },
            {
                "pitch": 0,
                "velocity": 64,
                "duration": 0.0682,
                "tempo": 120.0
            },
            {
                "pitch": 74,
                "velocity": 64,
                "duration": 0.0636,
                "tempo": 120.0
            },
            {
                "pitch": 74,
                "velocity": 64,
                "duration": 0.0636,
                "tempo": 120.0
            },
            {
                "pitch": 67,
                "velocity": 64,
                "duration": 0.1636,
                "tempo": 120.0
            },
            {
                "pitch": 69,
                "velocity": 64,
                "duration": 0.1659,
                "tempo": 120.0
            },
            {
                "pitch": 72,
                "velocity": 64,
                "duration": 0.0659,
                "tempo": 120.0
            },
            {
                "pitch": 0,
                "velocity": 64,
                "duration": 0.1659,
                "tempo": 120.0
            },
            {
                "pitch": 69,
                "velocity": 64,
                "duration": 0.1682,
                "tempo": 120.0
            },
            {
                "pitch": 69,
                "velocity": 64,
                "duration": 0.1682,
                "tempo": 120.0
            },
            {
                "pitch": 72,
                "velocity": 64,
                "duration": 0.1727,
                "tempo": 120.0
            },
            {
                "pitch": 0,
                "velocity": 64,
                "duration": 0.0682,
                "tempo": 120.0
            },
            {
                "pitch": 69,
                "velocity": 64,
                "duration": 0.0659,
                "tempo": 120.0
            },
            {
                "pitch": 69,
                "velocity": 64,
                "duration": 0.0659,
                "tempo": 120.0
            },
            {
                "pitch": 55,
                "velocity": 64,
                "duration": 0.1636,
                "tempo": 120.0
            },
            {
                "pitch": 66,
                "velocity": 64,
                "duration": 0.1682,
                "tempo": 120.0
            },
            {
                "pitch": 69,
                "velocity": 64,
                "duration": 0.0659,
                "tempo": 120.0
            },
            {
                "pitch": 0,
                "velocity": 64,
                "duration": 0.1682,
                "tempo": 120.0
            },
            {
                "pitch": 66,
                "velocity": 64,
                "duration": 0.1682,
                "tempo": 120.0
            },
            {
                "pitch": 66,
                "velocity": 64,
                "duration": 0.1705,
                "tempo": 120.0
            },
            {
                "pitch": 69,
                "velocity": 64,
                "duration": 0.1705,
                "tempo": 120.0
            },
            {
                "pitch": 0,
                "velocity": 64,
                "duration": 0.0682,
                "tempo": 120.0
            },
            {
                "pitch": 66,
                "velocity": 64,
                "duration": 0.0659,
                "tempo": 120.0
            },
            {
                "pitch": 66,
                "velocity": 64,
                "duration": 0.0636,
                "tempo": 120.0
            },
            {
                "pitch": 67,
                "velocity": 64,
                "duration": 0.1636,
                "tempo": 120.0
            },
            {
                "pitch": 69,
                "velocity": 64,
                "duration": 0.1659,
                "tempo": 120.0
            },
            {
                "pitch": 72,
                "velocity": 64,
                "duration": 0.0682,
                "tempo": 120.0
            },
            {
                "pitch": 0,
                "velocity": 64,
                "duration": 0.1682,
                "tempo": 120.0
            },
            {
                "pitch": 69,
                "velocity": 64,
                "duration": 0.1682,
                "tempo": 120.0
            },
            {
                "pitch": 69,
                "velocity": 64,
                "duration": 0.1682,
                "tempo": 120.0
            },
            {
                "pitch": 72,
                "velocity": 64,
                "duration": 0.1705,
                "tempo": 120.0
            },
            {
                "pitch": 0,
                "velocity": 64,
                "duration": 0.0682,
                "tempo": 120.0
            },
            {
                "pitch": 69,
                "velocity": 64,
                "duration": 0.0659,
                "tempo": 120.0
            },
            {
                "pitch": 69,
                "velocity": 64,
                "duration": 0.0659,
                "tempo": 120.0
            },
            {
                "pitch": 55,
                "velocity": 64,
                "duration": 0.1636,
                "tempo": 120.0
            },
            {
                "pitch": 66,
                "velocity": 64,
                "duration": 0.1659,
                "tempo": 120.0
            },
            {
                "pitch": 69,
                "velocity": 64,
                "duration": 0.0659,
                "tempo": 120.0
            },
            {
                "pitch": 0,
                "velocity": 64,
                "duration": 0.1682,
                "tempo": 120.0
            },
            {
                "pitch": 66,
                "velocity": 64,
                "duration": 0.1659,
                "tempo": 120.0
            },
            {
                "pitch": 66,
                "velocity": 64,
                "duration": 0.0659,
                "tempo": 120.0
            },
            {
                "pitch": 0,
                "velocity": 64,
                "duration": 0.0977,
                "tempo": 120.0
            },
            {
                "pitch": 74,
                "velocity": 64,
                "duration": 0.0977,
                "tempo": 120.0
            },
            {
                "pitch": 74,
                "velocity": 64,
                "duration": 0.0977,
                "tempo": 120.0
            },
            {
                "pitch": 74,
                "velocity": 64,
                "duration": 0.1045,
                "tempo": 120.0
            },
            {
                "pitch": 74,
                "velocity": 64,
                "duration": 0.1023,
                "tempo": 120.0
            },
            {
                "pitch": 74,
                "velocity": 64,
                "duration": 0.1023,
                "tempo": 120.0
            },
            {
                "pitch": 69,
                "velocity": 64,
                "duration": 0.1682,
                "tempo": 120.0
            },
            {
                "pitch": 72,
                "velocity": 64,
                "duration": 0.0682,
                "tempo": 120.0
            },
            {
                "pitch": 0,
                "velocity": 64,
                "duration": 0.1659,
                "tempo": 120.0
            },
            {
                "pitch": 69,
                "velocity": 64,
                "duration": 0.1659,
                "tempo": 120.0
            },
            {
                "pitch": 69,
                "velocity": 64,
                "duration": 0.1682,
                "tempo": 120.0
            },
            {
                "pitch": 72,
                "velocity": 64,
                "duration": 0.1727,
                "tempo": 120.0
            },
            {
                "pitch": 0,
                "velocity": 64,
                "duration": 0.0682,
                "tempo": 120.0
            },
            {
                "pitch": 69,
                "velocity": 64,
                "duration": 0.0659,
                "tempo": 120.0
            },
            {
                "pitch": 69,
                "velocity": 64,
                "duration": 0.0659,
                "tempo": 120.0
            },
            {
                "pitch": 67,
                "velocity": 64,
                "duration": 0.1636,
                "tempo": 120.0
            },
            {
                "pitch": 66,
                "velocity": 64,
                "duration": 0.1682,
                "tempo": 120.0
            },
            {
                "pitch": 69,
                "velocity": 64,
                "duration": 0.0659,
                "tempo": 120.0
            },
            {
                "pitch": 0,
                "velocity": 64,
                "duration": 0.1659,
                "tempo": 120.0
            },
            {
                "pitch": 66,
                "velocity": 64,
                "duration": 0.1659,
                "tempo": 120.0
            },
            {
                "pitch": 66,
                "velocity": 64,
                "duration": 0.1705,
                "tempo": 120.0
            },
            {
                "pitch": 69,
                "velocity": 64,
                "duration": 0.1705,
                "tempo": 120.0
            },
            {
                "pitch": 0,
                "velocity": 64,
                "duration": 0.0682,
                "tempo": 120.0
            },
            {
                "pitch": 66,
                "velocity": 64,
                "duration": 0.0659,
                "tempo": 120.0
            },
            {
                "pitch": 66,
                "velocity": 64,
                "duration": 0.0636,
                "tempo": 120.0
            },
            {
                "pitch": 67,
                "velocity": 64,
                "duration": 0.1636,
                "tempo": 120.0
            },
            {
                "pitch": 69,
                "velocity": 64,
                "duration": 0.1659,
                "tempo": 120.0
            },
            {
                "pitch": 72,
                "velocity": 64,
                "duration": 0.0682,
                "tempo": 120.0
            },
            {
                "pitch": 0,
                "velocity": 64,
                "duration": 0.1682,
                "tempo": 120.0
            },
            {
                "pitch": 69,
                "velocity": 64,
                "duration": 0.1682,
                "tempo": 120.0
            },
            {
                "pitch": 69,
                "velocity": 64,
                "duration": 0.1682,
                "tempo": 120.0
            },
            {
                "pitch": 72,
                "velocity": 64,
                "duration": 0.1727,
                "tempo": 120.0
            },
            {
                "pitch": 0,
                "velocity": 64,
                "duration": 0.0682,
                "tempo": 120.0
            },
            {
                "pitch": 69,
                "velocity": 64,
                "duration": 0.0659,
                "tempo": 120.0
            },
            {
                "pitch": 69,
                "velocity": 64,
                "duration": 0.0659,
                "tempo": 120.0
            },
            {
                "pitch": 67,
                "velocity": 64,
                "duration": 0.1636,
                "tempo": 120.0
            },
            {
                "pitch": 66,
                "velocity": 64,
                "duration": 0.1682,
                "tempo": 120.0
            },
            {
                "pitch": 69,
                "velocity": 64,
                "duration": 0.0659,
                "tempo": 120.0
            },
            {
                "pitch": 0,
                "velocity": 64,
                "duration": 0.1682,
                "tempo": 120.0
            },
            {
                "pitch": 66,
                "velocity": 64,
                "duration": 0.1659,
                "tempo": 120.0
            },
            {
                "pitch": 66,
                "velocity": 64,
                "duration": 0.1705,
                "tempo": 120.0
            },
            {
                "pitch": 69,
                "velocity": 64,
                "duration": 0.1705,
                "tempo": 120.0
            },
            {
                "pitch": 0,
                "velocity": 64,
                "duration": 0.0659,
                "tempo": 120.0
            },
            {
                "pitch": 74,
                "velocity": 64,
                "duration": 0.0636,
                "tempo": 120.0
            },
            {
                "pitch": 74,
                "velocity": 64,
                "duration": 0.0659,
                "tempo": 120.0
            },
            {
                "pitch": 67,
                "velocity": 64,
                "duration": 0.1636,
                "tempo": 120.0
            },
            {
                "pitch": 69,
                "velocity": 64,
                "duration": 0.1682,
                "tempo": 120.0
            },
            {
                "pitch": 72,
                "velocity": 64,
                "duration": 0.0682,
                "tempo": 120.0
            },
            {
                "pitch": 0,
                "velocity": 64,
                "duration": 0.1682,
                "tempo": 120.0
            },
            {
                "pitch": 69,
                "velocity": 64,
                "duration": 0.1682,
                "tempo": 120.0
            },
            {
                "pitch": 69,
                "velocity": 64,
                "duration": 0.1705,
                "tempo": 120.0
            },
            {
                "pitch": 72,
                "velocity": 64,
                "duration": 0.1705,
                "tempo": 120.0
            },
            {
                "pitch": 0,
                "velocity": 64,
                "duration": 0.0682,
                "tempo": 120.0
            },
            {
                "pitch": 69,
                "velocity": 64,
                "duration": 0.0659,
                "tempo": 120.0
            },
            {
                "pitch": 69,
                "velocity": 64,
                "duration": 0.0659,
                "tempo": 120.0
            },
            {
                "pitch": 55,
                "velocity": 64,
                "duration": 0.1636,
                "tempo": 120.0
            },
            {
                "pitch": 66,
                "velocity": 64,
                "duration": 0.1682,
                "tempo": 120.0
            },
            {
                "pitch": 69,
                "velocity": 64,
                "duration": 0.0682,
                "tempo": 120.0
            },
            {
                "pitch": 0,
                "velocity": 64,
                "duration": 0.1682,
                "tempo": 120.0
            },
            {
                "pitch": 66,
                "velocity": 64,
                "duration": 0.1682,
                "tempo": 120.0
            },
            {
                "pitch": 66,
                "velocity": 64,
                "duration": 0.1705,
                "tempo": 120.0
            },
            {
                "pitch": 69,
                "velocity": 64,
                "duration": 0.1727,
                "tempo": 120.0
            },
            {
                "pitch": 0,
                "velocity": 64,
                "duration": 0.0659,
                "tempo": 120.0
            },
            {
                "pitch": 66,
                "velocity": 64,
                "duration": 0.0659,
                "tempo": 120.0
            },
            {
                "pitch": 66,
                "velocity": 64,
                "duration": 0.0659,
                "tempo": 120.0
            },
            {
                "pitch": 67,
                "velocity": 64,
                "duration": 0.1636,
                "tempo": 120.0
            },
            {
                "pitch": 69,
                "velocity": 64,
                "duration": 0.1682,
                "tempo": 120.0
            },
            {
                "pitch": 72,
                "velocity": 64,
                "duration": 0.0659,
                "tempo": 120.0
            },
            {
                "pitch": 0,
                "velocity": 64,
                "duration": 0.1659,
                "tempo": 120.0
            },
            {
                "pitch": 69,
                "velocity": 64,
                "duration": 0.1659,
                "tempo": 120.0
            },
            {
                "pitch": 69,
                "velocity": 64,
                "duration": 0.1705,
                "tempo": 120.0
            },
            {
                "pitch": 72,
                "velocity": 64,
                "duration": 0.1705,
                "tempo": 120.0
            },
            {
                "pitch": 0,
                "velocity": 64,
                "duration": 0.0682,
                "tempo": 120.0
            },
            {
                "pitch": 69,
                "velocity": 64,
                "duration": 0.0659,
                "tempo": 120.0
            },
            {
                "pitch": 69,
                "velocity": 64,
                "duration": 0.0659,
                "tempo": 120.0
            },
            {
                "pitch": 55,
                "velocity": 64,
                "duration": 0.1636,
                "tempo": 120.0
            },
            {
                "pitch": 66,
                "velocity": 64,
                "duration": 0.1682,
                "tempo": 120.0
            },
            {
                "pitch": 69,
                "velocity": 64,
                "duration": 0.0659,
                "tempo": 120.0
            },
            {
                "pitch": 0,
                "velocity": 64,
                "duration": 0.1682,
                "tempo": 120.0
            },
            {
                "pitch": 66,
                "velocity": 64,
                "duration": 0.1682,
                "tempo": 120.0
            },
            {
                "pitch": 66,
                "velocity": 64,
                "duration": 0.0682,
                "tempo": 120.0
            },
            {
                "pitch": 0,
                "velocity": 64,
                "duration": 0.1,
                "tempo": 120.0
            },
            {
                "pitch": 74,
                "velocity": 64,
                "duration": 0.1,
                "tempo": 120.0
            },
            {
                "pitch": 74,
                "velocity": 64,
                "duration": 0.1,
                "tempo": 120.0
            },
            {
                "pitch": 74,
                "velocity": 64,
                "duration": 0.1,
                "tempo": 120.0
            },
            {
                "pitch": 74,
                "velocity": 64,
                "duration": 0.1,
                "tempo": 120.0
            },
            {
                "pitch": 74,
                "velocity": 64,
                "duration": 0.1,
                "tempo": 120.0
            },
            {
                "pitch": 69,
                "velocity": 64,
                "duration": 0.1682,
                "tempo": 120.0
            },
            {
                "pitch": 72,
                "velocity": 64,
                "duration": 0.0659,
                "tempo": 120.0
            },
            {
                "pitch": 0,
                "velocity": 64,
                "duration": 0.1682,
                "tempo": 120.0
            },
            {
                "pitch": 69,
                "velocity": 64,
                "duration": 0.1682,
                "tempo": 120.0
            },
            {
                "pitch": 69,
                "velocity": 64,
                "duration": 0.1705,
                "tempo": 120.0
            },
            {
                "pitch": 72,
                "velocity": 64,
                "duration": 0.1705,
                "tempo": 120.0
            },
            {
                "pitch": 0,
                "velocity": 64,
                "duration": 0.0682,
                "tempo": 120.0
            },
            {
                "pitch": 69,
                "velocity": 64,
                "duration": 0.0659,
                "tempo": 120.0
            },
            {
                "pitch": 69,
                "velocity": 64,
                "duration": 0.0636,
                "tempo": 120.0
            },
            {
                "pitch": 67,
                "velocity": 64,
                "duration": 0.1636,
                "tempo": 120.0
            },
            {
                "pitch": 66,
                "velocity": 64,
                "duration": 0.1659,
                "tempo": 120.0
            },
            {
                "pitch": 69,
                "velocity": 64,
                "duration": 0.0682,
                "tempo": 120.0
            },
            {
                "pitch": 0,
                "velocity": 64,
                "duration": 0.1682,
                "tempo": 120.0
            },
            {
                "pitch": 66,
                "velocity": 64,
                "duration": 0.1682,
                "tempo": 120.0
            },
            {
                "pitch": 66,
                "velocity": 64,
                "duration": 0.1659,
                "tempo": 120.0
            },
            {
                "pitch": 69,
                "velocity": 64,
                "duration": 0.1682,
                "tempo": 120.0
            },
            {
                "pitch": 0,
                "velocity": 64,
                "duration": 0.0659,
                "tempo": 120.0
            },
            {
                "pitch": 66,
                "velocity": 64,
                "duration": 0.0682,
                "tempo": 120.0
            },
            {
                "pitch": 66,
                "velocity": 64,
                "duration": 0.0682,
                "tempo": 120.0
            },
            {
                "pitch": 67,
                "velocity": 64,
                "duration": 0.1659,
                "tempo": 120.0
            },
            {
                "pitch": 69,
                "velocity": 64,
                "duration": 0.1659,
                "tempo": 120.0
            },
            {
                "pitch": 72,
                "velocity": 64,
                "duration": 0.0659,
                "tempo": 120.0
            },
            {
                "pitch": 0,
                "velocity": 64,
                "duration": 0.1682,
                "tempo": 120.0
            },
            {
                "pitch": 69,
                "velocity": 64,
                "duration": 0.1659,
                "tempo": 120.0
            },
            {
                "pitch": 69,
                "velocity": 64,
                "duration": 0.1705,
                "tempo": 120.0
            },
            {
                "pitch": 72,
                "velocity": 64,
                "duration": 0.1705,
                "tempo": 120.0
            },
            {
                "pitch": 0,
                "velocity": 64,
                "duration": 0.0682,
                "tempo": 120.0
            },
            {
                "pitch": 69,
                "velocity": 64,
                "duration": 0.0636,
                "tempo": 120.0
            },
            {
                "pitch": 69,
                "velocity": 64,
                "duration": 0.0659,
                "tempo": 120.0
            },
            {
                "pitch": 67,
                "velocity": 64,
                "duration": 0.1636,
                "tempo": 120.0
            },
            {
                "pitch": 66,
                "velocity": 64,
                "duration": 0.1682,
                "tempo": 120.0
            },
            {
                "pitch": 69,
                "velocity": 64,
                "duration": 0.0682,
                "tempo": 120.0
            },
            {
                "pitch": 0,
                "velocity": 64,
                "duration": 0.1659,
                "tempo": 120.0
            },
            {
                "pitch": 66,
                "velocity": 64,
                "duration": 0.1659,
                "tempo": 120.0
            },
            {
                "pitch": 66,
                "velocity": 64,
                "duration": 0.1682,
                "tempo": 120.0
            },
            {
                "pitch": 69,
                "velocity": 64,
                "duration": 0.1727,
                "tempo": 120.0
            },
            {
                "pitch": 0,
                "velocity": 64,
                "duration": 0.0682,
                "tempo": 120.0
            },
            {
                "pitch": 74,
                "velocity": 64,
                "duration": 0.0659,
                "tempo": 120.0
            },
            {
                "pitch": 74,
                "velocity": 64,
                "duration": 0.0659,
                "tempo": 120.0
            },
            {
                "pitch": 67,
                "velocity": 64,
                "duration": 0.1636,
                "tempo": 120.0
            },
            {
                "pitch": 69,
                "velocity": 64,
                "duration": 0.1682,
                "tempo": 120.0
            },
            {
                "pitch": 72,
                "velocity": 64,
                "duration": 0.0659,
                "tempo": 120.0
            },
            {
                "pitch": 0,
                "velocity": 64,
                "duration": 0.1682,
                "tempo": 120.0
            },
            {
                "pitch": 69,
                "velocity": 64,
                "duration": 0.1659,
                "tempo": 120.0
            },
            {
                "pitch": 69,
                "velocity": 64,
                "duration": 0.1705,
                "tempo": 120.0
            },
            {
                "pitch": 72,
                "velocity": 64,
                "duration": 0.1705,
                "tempo": 120.0
            },
            {
                "pitch": 0,
                "velocity": 64,
                "duration": 0.0659,
                "tempo": 120.0
            },
            {
                "pitch": 69,
                "velocity": 64,
                "duration": 0.0636,
                "tempo": 120.0
            },
            {
                "pitch": 69,
                "velocity": 64,
                "duration": 0.0659,
                "tempo": 120.0
            },
            {
                "pitch": 55,
                "velocity": 64,
                "duration": 0.1636,
                "tempo": 120.0
            },
            {
                "pitch": 66,
                "velocity": 64,
                "duration": 0.1682,
                "tempo": 120.0
            },
            {
                "pitch": 69,
                "velocity": 64,
                "duration": 0.0682,
                "tempo": 120.0
            },
            {
                "pitch": 0,
                "velocity": 64,
                "duration": 0.1682,
                "tempo": 120.0
            },
            {
                "pitch": 66,
                "velocity": 64,
                "duration": 0.1682,
                "tempo": 120.0
            },
            {
                "pitch": 66,
                "velocity": 64,
                "duration": 0.1705,
                "tempo": 120.0
            },
            {
                "pitch": 69,
                "velocity": 64,
                "duration": 0.1705,
                "tempo": 120.0
            },
            {
                "pitch": 0,
                "velocity": 64,
                "duration": 0.0682,
                "tempo": 120.0
            },
            {
                "pitch": 66,
                "velocity": 64,
                "duration": 0.0659,
                "tempo": 120.0
            },
            {
                "pitch": 66,
                "velocity": 64,
                "duration": 0.0659,
                "tempo": 120.0
            },
            {
                "pitch": 67,
                "velocity": 64,
                "duration": 0.1636,
                "tempo": 120.0
            },
            {
                "pitch": 69,
                "velocity": 64,
                "duration": 0.1682,
                "tempo": 120.0
            },
            {
                "pitch": 72,
                "velocity": 64,
                "duration": 0.0682,
                "tempo": 120.0
            },
            {
                "pitch": 0,
                "velocity": 64,
                "duration": 0.1682,
                "tempo": 120.0
            },
            {
                "pitch": 69,
                "velocity": 64,
                "duration": 0.1682,
                "tempo": 120.0
            },
            {
                "pitch": 69,
                "velocity": 64,
                "duration": 0.1682,
                "tempo": 120.0
            },
            {
                "pitch": 72,
                "velocity": 64,
                "duration": 0.1727,
                "tempo": 120.0
            },
            {
                "pitch": 0,
                "velocity": 64,
                "duration": 0.0682,
                "tempo": 120.0
            },
            {
                "pitch": 69,
                "velocity": 64,
                "duration": 0.0659,
                "tempo": 120.0
            },
            {
                "pitch": 69,
                "velocity": 64,
                "duration": 0.0659,
                "tempo": 120.0
            },
            {
                "pitch": 55,
                "velocity": 64,
                "duration": 0.1636,
                "tempo": 120.0
            },
            {
                "pitch": 66,
                "velocity": 64,
                "duration": 0.1659,
                "tempo": 120.0
            },
            {
                "pitch": 69,
                "velocity": 64,
                "duration": 0.0659,
                "tempo": 120.0
            },
            {
                "pitch": 0,
                "velocity": 64,
                "duration": 0.1682,
                "tempo": 120.0
            },
            {
                "pitch": 66,
                "velocity": 64,
                "duration": 0.1682,
                "tempo": 120.0
            },
            {
                "pitch": 66,
                "velocity": 64,
                "duration": 0.0682,
                "tempo": 120.0
            },
            {
                "pitch": 0,
                "velocity": 64,
                "duration": 0.1023,
                "tempo": 120.0
            },
            {
                "pitch": 74,
                "velocity": 64,
                "duration": 0.1023,
                "tempo": 120.0
            },
            {
                "pitch": 74,
                "velocity": 64,
                "duration": 0.1023,
                "tempo": 120.0
            },
            {
                "pitch": 74,
                "velocity": 64,
                "duration": 0.1023,
                "tempo": 120.0
            },
            {
                "pitch": 74,
                "velocity": 64,
                "duration": 0.1,
                "tempo": 120.0
            },
            {
                "pitch": 74,
                "velocity": 64,
                "duration": 0.1,
                "tempo": 120.0
            },
            {
                "pitch": 69,
                "velocity": 64,
                "duration": 0.1659,
                "tempo": 120.0
            },
            {
                "pitch": 72,
                "velocity": 64,
                "duration": 0.0682,
                "tempo": 120.0
            },
            {
                "pitch": 0,
                "velocity": 64,
                "duration": 0.1659,
                "tempo": 120.0
            },
            {
                "pitch": 69,
                "velocity": 64,
                "duration": 0.1659,
                "tempo": 120.0
            },
            {
                "pitch": 69,
                "velocity": 64,
                "duration": 0.1682,
                "tempo": 120.0
            },
            {
                "pitch": 72,
                "velocity": 64,
                "duration": 0.1727,
                "tempo": 120.0
            },
            {
                "pitch": 0,
                "velocity": 64,
                "duration": 0.0682,
                "tempo": 120.0
            },
            {
                "pitch": 69,
                "velocity": 64,
                "duration": 0.0659,
                "tempo": 120.0
            },
            {
                "pitch": 69,
                "velocity": 64,
                "duration": 0.0659,
                "tempo": 120.0
            },
            {
                "pitch": 67,
                "velocity": 64,
                "duration": 0.1636,
                "tempo": 120.0
            },
            {
                "pitch": 66,
                "velocity": 64,
                "duration": 0.1682,
                "tempo": 120.0
            },
            {
                "pitch": 69,
                "velocity": 64,
                "duration": 0.0659,
                "tempo": 120.0
            },
            {
                "pitch": 0,
                "velocity": 64,
                "duration": 0.1682,
                "tempo": 120.0
            },
            {
                "pitch": 66,
                "velocity": 64,
                "duration": 0.1659,
                "tempo": 120.0
            },
            {
                "pitch": 66,
                "velocity": 64,
                "duration": 0.1705,
                "tempo": 120.0
            },
            {
                "pitch": 69,
                "velocity": 64,
                "duration": 0.1705,
                "tempo": 120.0
            },
            {
                "pitch": 0,
                "velocity": 64,
                "duration": 0.0682,
                "tempo": 120.0
            },
            {
                "pitch": 66,
                "velocity": 64,
                "duration": 0.0636,
                "tempo": 120.0
            },
            {
                "pitch": 66,
                "velocity": 64,
                "duration": 0.0636,
                "tempo": 120.0
            },
            {
                "pitch": 67,
                "velocity": 64,
                "duration": 0.1636,
                "tempo": 120.0
            },
            {
                "pitch": 69,
                "velocity": 64,
                "duration": 0.1682,
                "tempo": 120.0
            },
            {
                "pitch": 72,
                "velocity": 64,
                "duration": 0.0682,
                "tempo": 120.0
            },
            {
                "pitch": 0,
                "velocity": 64,
                "duration": 0.1659,
                "tempo": 120.0
            },
            {
                "pitch": 69,
                "velocity": 64,
                "duration": 0.1682,
                "tempo": 120.0
            },
            {
                "pitch": 69,
                "velocity": 64,
                "duration": 0.1705,
                "tempo": 120.0
            },
            {
                "pitch": 72,
                "velocity": 64,
                "duration": 0.1705,
                "tempo": 120.0
            },
            {
                "pitch": 0,
                "velocity": 64,
                "duration": 0.0682,
                "tempo": 120.0
            },
            {
                "pitch": 69,
                "velocity": 64,
                "duration": 0.0659,
                "tempo": 120.0
            },
            {
                "pitch": 69,
                "velocity": 64,
                "duration": 0.0659,
                "tempo": 120.0
            },
            {
                "pitch": 67,
                "velocity": 64,
                "duration": 0.1636,
                "tempo": 120.0
            },
            {
                "pitch": 66,
                "velocity": 64,
                "duration": 0.1682,
                "tempo": 120.0
            },
            {
                "pitch": 69,
                "velocity": 64,
                "duration": 0.0659,
                "tempo": 120.0
            },
            {
                "pitch": 0,
                "velocity": 64,
                "duration": 0.1682,
                "tempo": 120.0
            },
            {
                "pitch": 66,
                "velocity": 64,
                "duration": 0.1682,
                "tempo": 120.0
            },
            {
                "pitch": 66,
                "velocity": 64,
                "duration": 0.1682,
                "tempo": 120.0
            },
            {
                "pitch": 69,
                "velocity": 64,
                "duration": 0.1682,
                "tempo": 120.0
            },
            {
                "pitch": 0,
                "velocity": 64,
                "duration": 0.0659,
                "tempo": 120.0
            },
            {
                "pitch": 74,
                "velocity": 64,
                "duration": 0.0659,
                "tempo": 120.0
            },
            {
                "pitch": 74,
                "velocity": 64,
                "duration": 0.0682,
                "tempo": 120.0
            },
            {
                "pitch": 67,
                "velocity": 64,
                "duration": 0.1659,
                "tempo": 120.0
            },
            {
                "pitch": 69,
                "velocity": 64,
                "duration": 0.1659,
                "tempo": 120.0
            },
            {
                "pitch": 72,
                "velocity": 64,
                "duration": 0.0659,
                "tempo": 120.0
            },
            {
                "pitch": 0,
                "velocity": 64,
                "duration": 0.1682,
                "tempo": 120.0
            },
            {
                "pitch": 69,
                "velocity": 64,
                "duration": 0.1682,
                "tempo": 120.0
            },
            {
                "pitch": 69,
                "velocity": 64,
                "duration": 0.1705,
                "tempo": 120.0
            },
            {
                "pitch": 72,
                "velocity": 64,
                "duration": 0.1705,
                "tempo": 120.0
            },
            {
                "pitch": 0,
                "velocity": 64,
                "duration": 0.0682,
                "tempo": 120.0
            },
            {
                "pitch": 69,
                "velocity": 64,
                "duration": 0.0659,
                "tempo": 120.0
            },
            {
                "pitch": 69,
                "velocity": 64,
                "duration": 0.0636,
                "tempo": 120.0
            },
            {
                "pitch": 55,
                "velocity": 64,
                "duration": 0.1636,
                "tempo": 120.0
            },
            {
                "pitch": 66,
                "velocity": 64,
                "duration": 0.1659,
                "tempo": 120.0
            },
            {
                "pitch": 69,
                "velocity": 64,
                "duration": 0.0682,
                "tempo": 120.0
            },
            {
                "pitch": 0,
                "velocity": 64,
                "duration": 0.1682,
                "tempo": 120.0
            },
            {
                "pitch": 66,
                "velocity": 64,
                "duration": 0.1659,
                "tempo": 120.0
            },
            {
                "pitch": 66,
                "velocity": 64,
                "duration": 0.1682,
                "tempo": 120.0
            },
            {
                "pitch": 69,
                "velocity": 64,
                "duration": 0.1727,
                "tempo": 120.0
            },
            {
                "pitch": 0,
                "velocity": 64,
                "duration": 0.0659,
                "tempo": 120.0
            },
            {
                "pitch": 66,
                "velocity": 64,
                "duration": 0.0659,
                "tempo": 120.0
            },
            {
                "pitch": 66,
                "velocity": 64,
                "duration": 0.0659,
                "tempo": 120.0
            },
            {
                "pitch": 67,
                "velocity": 64,
                "duration": 0.1636,
                "tempo": 120.0
            },
            {
                "pitch": 69,
                "velocity": 64,
                "duration": 0.1682,
                "tempo": 120.0
            },
            {
                "pitch": 72,
                "velocity": 64,
                "duration": 0.0659,
                "tempo": 120.0
            },
            {
                "pitch": 0,
                "velocity": 64,
                "duration": 0.1682,
                "tempo": 120.0
            },
            {
                "pitch": 69,
                "velocity": 64,
                "duration": 0.1682,
                "tempo": 120.0
            },
            {
                "pitch": 69,
                "velocity": 64,
                "duration": 0.1682,
                "tempo": 120.0
            },
            {
                "pitch": 72,
                "velocity": 64,
                "duration": 0.1682,
                "tempo": 120.0
            },
            {
                "pitch": 0,
                "velocity": 64,
                "duration": 0.0682,
                "tempo": 120.0
            },
            {
                "pitch": 69,
                "velocity": 64,
                "duration": 0.0682,
                "tempo": 120.0
            },
            {
                "pitch": 69,
                "velocity": 64,
                "duration": 0.0659,
                "tempo": 120.0
            },
            {
                "pitch": 55,
                "velocity": 64,
                "duration": 0.1682,
                "tempo": 120.0
            },
            {
                "pitch": 66,
                "velocity": 64,
                "duration": 0.1659,
                "tempo": 120.0
            },
            {
                "pitch": 69,
                "velocity": 64,
                "duration": 0.0682,
                "tempo": 120.0
            },
            {
                "pitch": 0,
                "velocity": 64,
                "duration": 0.1682,
                "tempo": 120.0
            },
            {
                "pitch": 66,
                "velocity": 64,
                "duration": 0.1682,
                "tempo": 120.0
            },
            {
                "pitch": 66,
                "velocity": 64,
                "duration": 0.0659,
                "tempo": 120.0
            },
            {
                "pitch": 0,
                "velocity": 64,
                "duration": 0.0977,
                "tempo": 120.0
            },
            {
                "pitch": 74,
                "velocity": 64,
                "duration": 0.0977,
                "tempo": 120.0
            },
            {
                "pitch": 74,
                "velocity": 64,
                "duration": 0.1,
                "tempo": 120.0
            },
            {
                "pitch": 74,
                "velocity": 64,
                "duration": 0.1023,
                "tempo": 120.0
            },
            {
                "pitch": 74,
                "velocity": 64,
                "duration": 0.1023,
                "tempo": 120.0
            },
            {
                "pitch": 74,
                "velocity": 64,
                "duration": 0.1023,
                "tempo": 120.0
            },
            {
                "pitch": 0,
                "velocity": 64,
                "duration": 0.0682,
                "tempo": 120.0
            },
            {
                "pitch": 57,
                "velocity": 64,
                "duration": 0.0682,
                "tempo": 120.0
            },
            {
                "pitch": 0,
                "velocity": 64,
                "duration": 0.0659,
                "tempo": 120.0
            },
            {
                "pitch": 60,
                "velocity": 64,
                "duration": 0.0614,
                "tempo": 120.0
            },
            {
                "pitch": 0,
                "velocity": 64,
                "duration": 0.0614,
                "tempo": 120.0
            },
            {
                "pitch": 62,
                "velocity": 64,
                "duration": 0.0614,
                "tempo": 120.0
            },
            {
                "pitch": 0,
                "velocity": 64,
                "duration": 0.0591,
                "tempo": 120.0
            },
            {
                "pitch": 64,
                "velocity": 64,
                "duration": 0.0659,
                "tempo": 120.0
            },
            {
                "pitch": 0,
                "velocity": 64,
                "duration": 0.0682,
                "tempo": 120.0
            },
            {
                "pitch": 62,
                "velocity": 64,
                "duration": 0.0659,
                "tempo": 120.0
            },
            {
                "pitch": 0,
                "velocity": 64,
                "duration": 0.0659,
                "tempo": 120.0
            },
            {
                "pitch": 64,
                "velocity": 64,
                "duration": 0.0636,
                "tempo": 120.0
            },
            {
                "pitch": 0,
                "velocity": 64,
                "duration": 0.0636,
                "tempo": 120.0
            },
            {
                "pitch": 67,
                "velocity": 64,
                "duration": 0.0636,
                "tempo": 120.0
            },
            {
                "pitch": 0,
                "velocity": 64,
                "duration": 0.0636,
                "tempo": 120.0
            },
            {
                "pitch": 69,
                "velocity": 64,
                "duration": 0.0614,
                "tempo": 120.0
            },
            {
                "pitch": 0,
                "velocity": 64,
                "duration": 0.0591,
                "tempo": 120.0
            },
            {
                "pitch": 69,
                "velocity": 64,
                "duration": 0.0591,
                "tempo": 120.0
            },
            {
                "pitch": 0,
                "velocity": 64,
                "duration": 0.0636,
                "tempo": 120.0
            },
            {
                "pitch": 72,
                "velocity": 64,
                "duration": 0.0682,
                "tempo": 120.0
            },
            {
                "pitch": 0,
                "velocity": 64,
                "duration": 0.0659,
                "tempo": 120.0
            },
            {
                "pitch": 74,
                "velocity": 64,
                "duration": 0.0659,
                "tempo": 120.0
            },
            {
                "pitch": 0,
                "velocity": 64,
                "duration": 0.0682,
                "tempo": 120.0
            },
            {
                "pitch": 76,
                "velocity": 64,
                "duration": 0.0659,
                "tempo": 120.0
            },
            {
                "pitch": 0,
                "velocity": 64,
                "duration": 0.0659,
                "tempo": 120.0
            },
            {
                "pitch": 79,
                "velocity": 64,
                "duration": 0.0682,
                "tempo": 120.0
            },
            {
                "pitch": 0,
                "velocity": 64,
                "duration": 0.0682,
                "tempo": 120.0
            },
            {
                "pitch": 80,
                "velocity": 64,
                "duration": 0.0659,
                "tempo": 120.0
            },
            {
                "pitch": 0,
                "velocity": 64,
                "duration": 0.0659,
                "tempo": 120.0
            },
            {
                "pitch": 81,
                "velocity": 64,
                "duration": 1.4795,
                "tempo": 120.0
            },
            {
                "pitch": 0,
                "velocity": 64,
                "duration": 0.4727,
                "tempo": 120.0
            },
            {
                "pitch": 84,
                "velocity": 64,
                "duration": 0.0682,
                "tempo": 120.0
            },
            {
                "pitch": 0,
                "velocity": 64,
                "duration": 0.0705,
                "tempo": 120.0
            },
            {
                "pitch": 84,
                "velocity": 64,
                "duration": 0.0727,
                "tempo": 120.0
            },
            {
                "pitch": 0,
                "velocity": 64,
                "duration": 0.2955,
                "tempo": 120.0
            },
            {
                "pitch": 86,
                "velocity": 64,
                "duration": 0.0659,
                "tempo": 120.0
            },
            {
                "pitch": 0,
                "velocity": 64,
                "duration": 0.0682,
                "tempo": 120.0
            },
            {
                "pitch": 86,
                "velocity": 64,
                "duration": 0.0682,
                "tempo": 120.0
            },
            {
                "pitch": 0,
                "velocity": 64,
                "duration": 0.7091,
                "tempo": 120.0
            },
            {
                "pitch": 86,
                "velocity": 64,
                "duration": 0.0659,
                "tempo": 120.0
            },
            {
                "pitch": 0,
                "velocity": 64,
                "duration": 0.0682,
                "tempo": 120.0
            },
            {
                "pitch": 86,
                "velocity": 64,
                "duration": 0.0682,
                "tempo": 120.0
            },
            {
                "pitch": 0,
                "velocity": 64,
                "duration": 0.2818,
                "tempo": 120.0
            },
            {
                "pitch": 88,
                "velocity": 64,
                "duration": 0.0705,
                "tempo": 120.0
            },
            {
                "pitch": 0,
                "velocity": 64,
                "duration": 0.0659,
                "tempo": 120.0
            },
            {
                "pitch": 88,
                "velocity": 64,
                "duration": 0.0659,
                "tempo": 120.0
            },
            {
                "pitch": 0,
                "velocity": 64,
                "duration": 0.6614,
                "tempo": 120.0
            },
            {
                "pitch": 84,
                "velocity": 64,
                "duration": 0.0659,
                "tempo": 120.0
            },
            {
                "pitch": 0,
                "velocity": 64,
                "duration": 0.0659,
                "tempo": 120.0
            },
            {
                "pitch": 84,
                "velocity": 64,
                "duration": 0.0682,
                "tempo": 120.0
            },
            {
                "pitch": 0,
                "velocity": 64,
                "duration": 0.2727,
                "tempo": 120.0
            },
            {
                "pitch": 86,
                "velocity": 64,
                "duration": 0.0682,
                "tempo": 120.0
            },
            {
                "pitch": 0,
                "velocity": 64,
                "duration": 0.0636,
                "tempo": 120.0
            },
            {
                "pitch": 86,
                "velocity": 64,
                "duration": 0.0636,
                "tempo": 120.0
            },
            {
                "pitch": 0,
                "velocity": 64,
                "duration": 0.6682,
                "tempo": 120.0
            },
            {
                "pitch": 86,
                "velocity": 64,
                "duration": 0.0659,
                "tempo": 120.0
            },
            {
                "pitch": 0,
                "velocity": 64,
                "duration": 0.0659,
                "tempo": 120.0
            },
            {
                "pitch": 86,
                "velocity": 64,
                "duration": 0.0659,
                "tempo": 120.0
            },
            {
                "pitch": 0,
                "velocity": 64,
                "duration": 0.2818,
                "tempo": 120.0
            },
            {
                "pitch": 88,
                "velocity": 64,
                "duration": 0.0705,
                "tempo": 120.0
            },
            {
                "pitch": 0,
                "velocity": 64,
                "duration": 0.0659,
                "tempo": 120.0
            },
            {
                "pitch": 88,
                "velocity": 64,
                "duration": 0.0659,
                "tempo": 120.0
            },
            {
                "pitch": 0,
                "velocity": 64,
                "duration": 0.2636,
                "tempo": 120.0
            },
            {
                "pitch": 86,
                "velocity": 64,
                "duration": 1.8773,
                "tempo": 120.0
            }
        ]
    }
}