{
    "track_id": "Out Run 3D (FM) - 04 - Shining Wind",
    "mood": "relaxed",
    "instruments": {
        "Trumpet": [
            {
                "pitch": 64,
                "velocity": 51,
                "duration": 0.1159,
                "tempo": 120.0
            },
            {
                "pitch": 66,
                "velocity": 51,
                "duration": 0.1182,
                "tempo": 120.0
            },
            {
                "pitch": 69,
                "velocity": 51,
                "duration": 0.1182,
                "tempo": 120.0
            },
            {
                "pitch": 71,
                "velocity": 51,
                "duration": 0.1182,
                "tempo": 120.0
            },
            {
                "pitch": 76,
                "velocity": 51,
                "duration": 0.1205,
                "tempo": 120.0
            },
            {
                "pitch": 78,
                "velocity": 51,
                "duration": 0.1182,
                "tempo": 120.0
            },
            {
                "pitch": 81,
                "velocity": 51,
                "duration": 0.1136,
                "tempo": 120.0
            },
            {
                "pitch": 83,
                "velocity": 51,
                "duration": 0.1136,
                "tempo": 120.0
            },
            {
                "pitch": 62,
                "velocity": 51,
                "duration": 0.1182,
                "tempo": 120.0
            },
            {
                "pitch": 64,
                "velocity": 51,
                "duration": 0.1182,
                "tempo": 120.0
            },
            {
                "pitch": 67,
                "velocity": 51,
                "duration": 0.1182,
                "tempo": 120.0
            },
            {
                "pitch": 69,
                "velocity": 51,
                "duration": 0.1205,
                "tempo": 120.0
            },
            {
                "pitch": 74,
                "velocity": 51,
                "duration": 0.1182,
                "tempo": 120.0
            },
            {
                "pitch": 76,
                "velocity": 51,
                "duration": 0.1182,
                "tempo": 120.0
            },
            {
                "pitch": 79,
                "velocity": 51,
                "duration": 0.1159,
                "tempo": 120.0
            },
            {
                "pitch": 81,
                "velocity": 51,
                "duration": 0.1136,
                "tempo": 120.0
            },
            {
                "pitch": 64,
                "velocity": 51,
                "duration": 0.1182,
                "tempo": 120.0
            },
            {
                "pitch": 66,
                "velocity": 51,
                "duration": 0.1159,
                "tempo": 120.0
            },
            {
                "pitch": 69,
                "velocity": 51,
                "duration": 0.1182,
                "tempo": 120.0
            },
            {
                "pitch": 71,
                "velocity": 51,
                "duration": 0.1159,
                "tempo": 120.0
            },
            {
                "pitch": 76,
                "velocity": 51,
                "duration": 0.1182,
                "tempo": 120.0
            },
            {
                "pitch": 78,
                "velocity": 51,
                "duration": 0.1182,
                "tempo": 120.0
            },
            {
                "pitch": 81,
                "velocity": 51,
                "duration": 0.1159,
                "tempo": 120.0
            },
            {
                "pitch": 83,
                "velocity": 51,
                "duration": 0.1182,
                "tempo": 120.0
            },
            {
                "pitch": 62,
                "velocity": 51,
                "duration": 0.1159,
                "tempo": 120.0
            },
            {
                "pitch": 64,
                "velocity": 51,
                "duration": 0.1159,
                "tempo": 120.0
            },
            {
                "pitch": 67,
                "velocity": 51,
                "duration": 0.1159,
                "tempo": 120.0
            },
            {
                "pitch": 69,
                "velocity": 51,
                "duration": 0.1182,
                "tempo": 120.0
            },
            {
                "pitch": 74,
                "velocity": 51,
                "duration": 0.1182,
                "tempo": 120.0
            },
            {
                "pitch": 76,
                "velocity": 51,
                "duration": 0.1159,
                "tempo": 120.0
            },
            {
                "pitch": 79,
                "velocity": 51,
                "duration": 0.1182,
                "tempo": 120.0
            },
            {
                "pitch": 81,
                "velocity": 51,
                "duration": 0.1159,
                "tempo": 120.0
            },
            {
                "pitch": 64,
                "velocity": 51,
                "duration": 0.0841,
                "tempo": 120.0
            },
            {
                "pitch": 66,
                "velocity": 51,
                "duration": 0.0841,
                "tempo": 120.0
            },
            {
                "pitch": 69,
                "velocity": 51,
                "duration": 0.0841,
                "tempo": 120.0
            },
            {
                "pitch": 71,
                "velocity": 51,
                "duration": 0.0841,
                "tempo": 120.0
            },
            {
                "pitch": 76,
                "velocity": 51,
                "duration": 0.0841,
                "tempo": 120.0
            },
            {
                "pitch": 78,
                "velocity": 51,
                "duration": 0.0841,
                "tempo": 120.0
            },
            {
                "pitch": 81,
                "velocity": 51,
                "duration": 0.0841,
                "tempo": 120.0
            },
            {
                "pitch": 83,
                "velocity": 51,
                "duration": 0.0841,
                "tempo": 120.0
            },
            {
                "pitch": 76,
                "velocity": 51,
                "duration": 0.0841,
                "tempo": 120.0
            },
            {
                "pitch": 78,
                "velocity": 51,
                "duration": 0.0841,
                "tempo": 120.0
            },
            {
                "pitch": 81,
                "velocity": 51,
                "duration": 0.0841,
                "tempo": 120.0
            },
            {
                "pitch": 83,
                "velocity": 51,
                "duration": 0.0841,
                "tempo": 120.0
            },
            {
                "pitch": 88,
                "velocity": 51,
                "duration": 0.0841,
                "tempo": 120.0
            },
            {
                "pitch": 90,
                "velocity": 51,
                "duration": 0.0841,
                "tempo": 120.0
            },
            {
                "pitch": 93,
                "velocity": 51,
                "duration": 0.0841,
                "tempo": 120.0
            },
            {
                "pitch": 95,
                "velocity": 51,
                "duration": 0.0818,
                "tempo": 120.0
            },
            {
                "pitch": 62,
                "velocity": 51,
                "duration": 0.0841,
                "tempo": 120.0
            },
            {
                "pitch": 64,
                "velocity": 51,
                "duration": 0.0841,
                "tempo": 120.0
            },
            {
                "pitch": 67,
                "velocity": 51,
                "duration": 0.0841,
                "tempo": 120.0
            },
            {
                "pitch": 69,
                "velocity": 51,
                "duration": 0.0841,
                "tempo": 120.0
            },
            {
                "pitch": 74,
                "velocity": 51,
                "duration": 0.0841,
                "tempo": 120.0
            },
            {
                "pitch": 76,
                "velocity": 51,
                "duration": 0.0841,
                "tempo": 120.0
            },
            {
                "pitch": 79,
                "velocity": 51,
                "duration": 0.0841,
                "tempo": 120.0
            },
            {
                "pitch": 81,
                "velocity": 51,
                "duration": 0.0841,
                "tempo": 120.0
            },
            {
                "pitch": 74,
                "velocity": 51,
                "duration": 0.0841,
                "tempo": 120.0
            },
            {
                "pitch": 76,
                "velocity": 51,
                "duration": 0.0841,
                "tempo": 120.0
            },
            {
                "pitch": 79,
                "velocity": 51,
                "duration": 0.0841,
                "tempo": 120.0
            },
            {
                "pitch": 81,
                "velocity": 51,
                "duration": 0.0841,
                "tempo": 120.0
            },
            {
                "pitch": 86,
                "velocity": 51,
                "duration": 0.0841,
                "tempo": 120.0
            },
            {
                "pitch": 88,
                "velocity": 51,
                "duration": 0.0818,
                "tempo": 120.0
            },
            {
                "pitch": 91,
                "velocity": 51,
                "duration": 0.0841,
                "tempo": 120.0
            },
            {
                "pitch": 93,
                "velocity": 51,
                "duration": 0.0841,
                "tempo": 120.0
            },
            {
                "pitch": 64,
                "velocity": 51,
                "duration": 0.0841,
                "tempo": 120.0
            },
            {
                "pitch": 66,
                "velocity": 51,
                "duration": 0.0841,
                "tempo": 120.0
            },
            {
                "pitch": 69,
                "velocity": 51,
                "duration": 0.0841,
                "tempo": 120.0
            },
            {
                "pitch": 71,
                "velocity": 51,
                "duration": 0.0841,
                "tempo": 120.0
            },
            {
                "pitch": 76,
                "velocity": 51,
                "duration": 0.0818,
                "tempo": 120.0
            },
            {
                "pitch": 78,
                "velocity": 51,
                "duration": 0.0841,
                "tempo": 120.0
            },
            {
                "pitch": 81,
                "velocity": 51,
                "duration": 0.0841,
                "tempo": 120.0
            },
            {
                "pitch": 83,
                "velocity": 51,
                "duration": 0.0841,
                "tempo": 120.0
            },
            {
                "pitch": 76,
                "velocity": 51,
                "duration": 0.0841,
                "tempo": 120.0
            },
            {
                "pitch": 78,
                "velocity": 51,
                "duration": 0.0841,
                "tempo": 120.0
            },
            {
                "pitch": 81,
                "velocity": 51,
                "duration": 0.0841,
                "tempo": 120.0
            },
            {
                "pitch": 83,
                "velocity": 51,
                "duration": 0.0841,
                "tempo": 120.0
            },
            {
                "pitch": 88,
                "velocity": 51,
                "duration": 0.0841,
                "tempo": 120.0
            },
            {
                "pitch": 90,
                "velocity": 51,
                "duration": 0.0841,
                "tempo": 120.0
            },
            {
                "pitch": 93,
                "velocity": 51,
                "duration": 0.0841,
                "tempo": 120.0
            },
            {
                "pitch": 95,
                "velocity": 51,
                "duration": 0.0841,
                "tempo": 120.0
            },
            {
                "pitch": 88,
                "velocity": 51,
                "duration": 0.1182,
                "tempo": 120.0
            },
            {
                "pitch": 95,
                "velocity": 51,
                "duration": 0.0841,
                "tempo": 120.0
            },
            {
                "pitch": 93,
                "velocity": 51,
                "duration": 0.0841,
                "tempo": 120.0
            },
            {
                "pitch": 88,
                "velocity": 51,
                "duration": 0.0818,
                "tempo": 120.0
            },
            {
                "pitch": 86,
                "velocity": 51,
                "duration": 0.0818,
                "tempo": 120.0
            },
            {
                "pitch": 83,
                "velocity": 51,
                "duration": 0.0818,
                "tempo": 120.0
            },
            {
                "pitch": 81,
                "velocity": 51,
                "duration": 0.0818,
                "tempo": 120.0
            },
            {
                "pitch": 76,
                "velocity": 51,
                "duration": 0.0864,
                "tempo": 120.0
            },
            {
                "pitch": 74,
                "velocity": 51,
                "duration": 0.0864,
                "tempo": 120.0
            },
            {
                "pitch": 71,
                "velocity": 51,
                "duration": 0.0864,
                "tempo": 120.0
            },
            {
                "pitch": 69,
                "velocity": 51,
                "duration": 0.0841,
                "tempo": 120.0
            }
        ],
        "Acoustic Bass": [
            {
                "pitch": 40,
                "velocity": 64,
                "duration": 0.1841,
                "tempo": 120.0
            },
            {
                "pitch": 52,
                "velocity": 64,
                "duration": 0.1841,
                "tempo": 120.0
            },
            {
                "pitch": 40,
                "velocity": 64,
                "duration": 0.1841,
                "tempo": 120.0
            },
            {
                "pitch": 52,
                "velocity": 64,
                "duration": 0.1841,
                "tempo": 120.0
            },
            {
                "pitch": 40,
                "velocity": 64,
                "duration": 0.1886,
                "tempo": 120.0
            },
            {
                "pitch": 52,
                "velocity": 64,
                "duration": 0.1886,
                "tempo": 120.0
            },
            {
                "pitch": 40,
                "velocity": 64,
                "duration": 0.1795,
                "tempo": 120.0
            },
            {
                "pitch": 52,
                "velocity": 64,
                "duration": 0.1795,
                "tempo": 120.0
            },
            {
                "pitch": 40,
                "velocity": 64,
                "duration": 0.1886,
                "tempo": 120.0
            },
            {
                "pitch": 52,
                "velocity": 64,
                "duration": 0.1886,
                "tempo": 120.0
            },
            {
                "pitch": 40,
                "velocity": 64,
                "duration": 0.1841,
                "tempo": 120.0
            },
            {
                "pitch": 52,
                "velocity": 64,
                "duration": 0.1841,
                "tempo": 120.0
            },
            {
                "pitch": 40,
                "velocity": 64,
                "duration": 0.1841,
                "tempo": 120.0
            },
            {
                "pitch": 52,
                "velocity": 64,
                "duration": 0.1841,
                "tempo": 120.0
            },
            {
                "pitch": 40,
                "velocity": 64,
                "duration": 0.1841,
                "tempo": 120.0
            },
            {
                "pitch": 52,
                "velocity": 64,
                "duration": 0.1841,
                "tempo": 120.0
            },
            {
                "pitch": 40,
                "velocity": 64,
                "duration": 0.1841,
                "tempo": 120.0
            },
            {
                "pitch": 52,
                "velocity": 64,
                "duration": 0.1841,
                "tempo": 120.0
            },
            {
                "pitch": 40,
                "velocity": 64,
                "duration": 0.1841,
                "tempo": 120.0
            },
            {
                "pitch": 52,
                "velocity": 64,
                "duration": 0.1841,
                "tempo": 120.0
            },
            {
                "pitch": 40,
                "velocity": 64,
                "duration": 0.1841,
                "tempo": 120.0
            },
            {
                "pitch": 52,
                "velocity": 64,
                "duration": 0.1841,
                "tempo": 120.0
            },
            {
                "pitch": 40,
                "velocity": 64,
                "duration": 0.1864,
                "tempo": 120.0
            },
            {
                "pitch": 52,
                "velocity": 64,
                "duration": 0.1841,
                "tempo": 120.0
            },
            {
                "pitch": 40,
                "velocity": 64,
                "duration": 0.1818,
                "tempo": 120.0
            },
            {
                "pitch": 52,
                "velocity": 64,
                "duration": 0.1818,
                "tempo": 120.0
            },
            {
                "pitch": 40,
                "velocity": 64,
                "duration": 0.1795,
                "tempo": 120.0
            },
            {
                "pitch": 52,
                "velocity": 64,
                "duration": 0.1795,
                "tempo": 120.0
            },
            {
                "pitch": 40,
                "velocity": 64,
                "duration": 0.1841,
                "tempo": 120.0
            },
            {
                "pitch": 52,
                "velocity": 64,
                "duration": 0.1841,
                "tempo": 120.0
            },
            {
                "pitch": 40,
                "velocity": 64,
                "duration": 0.1886,
                "tempo": 120.0
            },
            {
                "pitch": 52,
                "velocity": 64,
                "duration": 0.1886,
                "tempo": 120.0
            },
            {
                "pitch": 40,
                "velocity": 64,
                "duration": 0.1795,
                "tempo": 120.0
            },
            {
                "pitch": 52,
                "velocity": 64,
                "duration": 0.1795,
                "tempo": 120.0
            },
            {
                "pitch": 40,
                "velocity": 64,
                "duration": 0.1864,
                "tempo": 120.0
            },
            {
                "pitch": 52,
                "velocity": 64,
                "duration": 0.1841,
                "tempo": 120.0
            },
            {
                "pitch": 40,
                "velocity": 64,
                "duration": 0.1841,
                "tempo": 120.0
            },
            {
                "pitch": 52,
                "velocity": 64,
                "duration": 0.1841,
                "tempo": 120.0
            },
            {
                "pitch": 40,
                "velocity": 64,
                "duration": 0.1818,
                "tempo": 120.0
            },
            {
                "pitch": 52,
                "velocity": 64,
                "duration": 0.1818,
                "tempo": 120.0
            },
            {
                "pitch": 40,
                "velocity": 64,
                "duration": 0.1818,
                "tempo": 120.0
            },
            {
                "pitch": 52,
                "velocity": 64,
                "duration": 0.1818,
                "tempo": 120.0
            },
            {
                "pitch": 40,
                "velocity": 64,
                "duration": 0.1841,
                "tempo": 120.0
            },
            {
                "pitch": 52,
                "velocity": 64,
                "duration": 0.1841,
                "tempo": 120.0
            },
            {
                "pitch": 40,
                "velocity": 64,
                "duration": 0.1841,
                "tempo": 120.0
            },
            {
                "pitch": 52,
                "velocity": 64,
                "duration": 0.1864,
                "tempo": 120.0
            },
            {
                "pitch": 40,
                "velocity": 64,
                "duration": 0.1841,
                "tempo": 120.0
            },
            {
                "pitch": 52,
                "velocity": 64,
                "duration": 0.1841,
                "tempo": 120.0
            },
            {
                "pitch": 40,
                "velocity": 64,
                "duration": 0.1841,
                "tempo": 120.0
            },
            {
                "pitch": 52,
                "velocity": 64,
                "duration": 0.1841,
                "tempo": 120.0
            },
            {
                "pitch": 40,
                "velocity": 64,
                "duration": 0.1841,
                "tempo": 120.0
            },
            {
                "pitch": 52,
                "velocity": 64,
                "duration": 0.1841,
                "tempo": 120.0
            },
            {
                "pitch": 40,
                "velocity": 64,
                "duration": 0.1864,
                "tempo": 120.0
            },
            {
                "pitch": 52,
                "velocity": 64,
                "duration": 0.1841,
                "tempo": 120.0
            },
            {
                "pitch": 40,
                "velocity": 64,
                "duration": 0.1841,
                "tempo": 120.0
            },
            {
                "pitch": 52,
                "velocity": 64,
                "duration": 0.1841,
                "tempo": 120.0
            },
            {
                "pitch": 40,
                "velocity": 64,
                "duration": 0.1841,
                "tempo": 120.0
            },
            {
                "pitch": 52,
                "velocity": 64,
                "duration": 0.1864,
                "tempo": 120.0
            },
            {
                "pitch": 40,
                "velocity": 64,
                "duration": 0.1841,
                "tempo": 120.0
            },
            {
                "pitch": 52,
                "velocity": 64,
                "duration": 0.1841,
                "tempo": 120.0
            },
            {
                "pitch": 40,
                "velocity": 64,
                "duration": 0.1841,
                "tempo": 120.0
            },
            {
                "pitch": 52,
                "velocity": 64,
                "duration": 0.1841,
                "tempo": 120.0
            },
            {
                "pitch": 40,
                "velocity": 64,
                "duration": 0.1841,
                "tempo": 120.0
            },
            {
                "pitch": 52,
                "velocity": 64,
                "duration": 0.1841,
                "tempo": 120.0
            },
            {
                "pitch": 40,
                "velocity": 64,
                "duration": 0.1864,
                "tempo": 120.0
            },
            {
                "pitch": 52,
                "velocity": 64,
                "duration": 0.1841,
                "tempo": 120.0
            },
            {
                "pitch": 40,
                "velocity": 64,
                "duration": 0.1841,
                "tempo": 120.0
            },
            {
                "pitch": 52,
                "velocity": 64,
                "duration": 0.1841,
                "tempo": 120.0
            },
            {
                "pitch": 40,
                "velocity": 64,
                "duration": 0.1841,
                "tempo": 120.0
            },
            {
                "pitch": 52,
                "velocity": 64,
                "duration": 0.1841,
                "tempo": 120.0
            },
            {
                "pitch": 40,
                "velocity": 64,
                "duration": 0.1841,
                "tempo": 120.0
            },
            {
                "pitch": 52,
                "velocity": 64,
                "duration": 0.1841,
                "tempo": 120.0
            },
            {
                "pitch": 40,
                "velocity": 64,
                "duration": 0.1841,
                "tempo": 120.0
            },
            {
                "pitch": 52,
                "velocity": 64,
                "duration": 0.1864,
                "tempo": 120.0
            },
            {
                "pitch": 40,
                "velocity": 64,
                "duration": 0.1841,
                "tempo": 120.0
            },
            {
                "pitch": 52,
                "velocity": 64,
                "duration": 0.1841,
                "tempo": 120.0
            },
            {
                "pitch": 40,
                "velocity": 64,
                "duration": 0.1841,
                "tempo": 120.0
            },
            {
                "pitch": 52,
                "velocity": 64,
                "duration": 0.1841,
                "tempo": 120.0
            },
            {
                "pitch": 40,
                "velocity": 64,
                "duration": 0.1864,
                "tempo": 120.0
            },
            {
                "pitch": 52,
                "velocity": 64,
                "duration": 0.1841,
                "tempo": 120.0
            },
            {
                "pitch": 38,
                "velocity": 64,
                "duration": 0.1818,
                "tempo": 120.0
            },
            {
                "pitch": 50,
                "velocity": 64,
                "duration": 0.1818,
                "tempo": 120.0
            },
            {
                "pitch": 38,
                "velocity": 64,
                "duration": 0.1841,
                "tempo": 120.0
            },
            {
                "pitch": 50,
                "velocity": 64,
                "duration": 0.1841,
                "tempo": 120.0
            },
            {
                "pitch": 38,
                "velocity": 64,
                "duration": 0.1818,
                "tempo": 120.0
            },
            {
                "pitch": 50,
                "velocity": 64,
                "duration": 0.1818,
                "tempo": 120.0
            },
            {
                "pitch": 38,
                "velocity": 64,
                "duration": 0.1818,
                "tempo": 120.0
            },
            {
                "pitch": 50,
                "velocity": 64,
                "duration": 0.1818,
                "tempo": 120.0
            },
            {
                "pitch": 38,
                "velocity": 64,
                "duration": 0.1841,
                "tempo": 120.0
            },
            {
                "pitch": 50,
                "velocity": 64,
                "duration": 0.1864,
                "tempo": 120.0
            },
            {
                "pitch": 38,
                "velocity": 64,
                "duration": 0.1841,
                "tempo": 120.0
            },
            {
                "pitch": 50,
                "velocity": 64,
                "duration": 0.1841,
                "tempo": 120.0
            },
            {
                "pitch": 38,
                "velocity": 64,
                "duration": 0.1841,
                "tempo": 120.0
            },
            {
                "pitch": 50,
                "velocity": 64,
                "duration": 0.1841,
                "tempo": 120.0
            },
            {
                "pitch": 38,
                "velocity": 64,
                "duration": 0.1841,
                "tempo": 120.0
            },
            {
                "pitch": 50,
                "velocity": 64,
                "duration": 0.1841,
                "tempo": 120.0
            },
            {
                "pitch": 37,
                "velocity": 64,
                "duration": 0.1841,
                "tempo": 120.0
            },
            {
                "pitch": 49,
                "velocity": 64,
                "duration": 0.1841,
                "tempo": 120.0
            },
            {
                "pitch": 37,
                "velocity": 64,
                "duration": 0.1841,
                "tempo": 120.0
            },
            {
                "pitch": 49,
                "velocity": 64,
                "duration": 0.1841,
                "tempo": 120.0
            },
            {
                "pitch": 37,
                "velocity": 64,
                "duration": 0.1841,
                "tempo": 120.0
            },
            {
                "pitch": 49,
                "velocity": 64,
                "duration": 0.1841,
                "tempo": 120.0
            },
            {
                "pitch": 37,
                "velocity": 64,
                "duration": 0.1864,
                "tempo": 120.0
            },
            {
                "pitch": 49,
                "velocity": 64,
                "duration": 0.1841,
                "tempo": 120.0
            },
            {
                "pitch": 36,
                "velocity": 64,
                "duration": 0.1818,
                "tempo": 120.0
            },
            {
                "pitch": 48,
                "velocity": 64,
                "duration": 0.1818,
                "tempo": 120.0
            },
            {
                "pitch": 36,
                "velocity": 64,
                "duration": 0.1818,
                "tempo": 120.0
            },
            {
                "pitch": 48,
                "velocity": 64,
                "duration": 0.1818,
                "tempo": 120.0
            },
            {
                "pitch": 36,
                "velocity": 64,
                "duration": 0.1841,
                "tempo": 120.0
            },
            {
                "pitch": 48,
                "velocity": 64,
                "duration": 0.1841,
                "tempo": 120.0
            },
            {
                "pitch": 36,
                "velocity": 64,
                "duration": 0.1818,
                "tempo": 120.0
            },
            {
                "pitch": 48,
                "velocity": 64,
                "duration": 0.1818,
                "tempo": 120.0
            },
            {
                "pitch": 35,
                "velocity": 64,
                "duration": 0.1841,
                "tempo": 120.0
            },
            {
                "pitch": 47,
                "velocity": 64,
                "duration": 0.1841,
                "tempo": 120.0
            },
            {
                "pitch": 35,
                "velocity": 64,
                "duration": 0.1841,
                "tempo": 120.0
            },
            {
                "pitch": 47,
                "velocity": 64,
                "duration": 0.1841,
                "tempo": 120.0
            },
            {
                "pitch": 35,
                "velocity": 64,
                "duration": 0.1841,
                "tempo": 120.0
            },
            {
                "pitch": 47,
                "velocity": 64,
                "duration": 0.1841,
                "tempo": 120.0
            },
            {
                "pitch": 35,
                "velocity": 64,
                "duration": 0.1841,
                "tempo": 120.0
            },
            {
                "pitch": 47,
                "velocity": 64,
                "duration": 0.1864,
                "tempo": 120.0
            },
            {
                "pitch": 35,
                "velocity": 64,
                "duration": 0.1841,
                "tempo": 120.0
            },
            {
                "pitch": 47,
                "velocity": 64,
                "duration": 0.1841,
                "tempo": 120.0
            },
            {
                "pitch": 35,
                "velocity": 64,
                "duration": 0.1841,
                "tempo": 120.0
            },
            {
                "pitch": 47,
                "velocity": 64,
                "duration": 0.1841,
                "tempo": 120.0
            },
            {
                "pitch": 35,
                "velocity": 64,
                "duration": 0.1841,
                "tempo": 120.0
            },
            {
                "pitch": 47,
                "velocity": 64,
                "duration": 0.1841,
                "tempo": 120.0
            },
            {
                "pitch": 35,
                "velocity": 64,
                "duration": 0.1841,
                "tempo": 120.0
            },
            {
                "pitch": 47,
                "velocity": 64,
                "duration": 0.1841,
                "tempo": 120.0
            },
            {
                "pitch": 40,
                "velocity": 64,
                "duration": 0.1841,
                "tempo": 120.0
            },
            {
                "pitch": 52,
                "velocity": 64,
                "duration": 0.1841,
                "tempo": 120.0
            },
            {
                "pitch": 40,
                "velocity": 64,
                "duration": 0.1841,
                "tempo": 120.0
            },
            {
                "pitch": 52,
                "velocity": 64,
                "duration": 0.1841,
                "tempo": 120.0
            },
            {
                "pitch": 40,
                "velocity": 64,
                "duration": 0.1864,
                "tempo": 120.0
            },
            {
                "pitch": 52,
                "velocity": 64,
                "duration": 0.1841,
                "tempo": 120.0
            },
            {
                "pitch": 40,
                "velocity": 64,
                "duration": 0.1818,
                "tempo": 120.0
            },
            {
                "pitch": 52,
                "velocity": 64,
                "duration": 0.1818,
                "tempo": 120.0
            },
            {
                "pitch": 40,
                "velocity": 64,
                "duration": 0.1818,
                "tempo": 120.0
            },
            {
                "pitch": 52,
                "velocity": 64,
                "duration": 0.1818,
                "tempo": 120.0
            },
            {
                "pitch": 40,
                "velocity": 64,
                "duration": 0.1841,
                "tempo": 120.0
            },
            {
                "pitch": 52,
                "velocity": 64,
                "duration": 0.1841,
                "tempo": 120.0
            },
            {
                "pitch": 40,
                "velocity": 64,
                "duration": 0.1818,
                "tempo": 120.0
            },
            {
                "pitch": 52,
                "velocity": 64,
                "duration": 0.1818,
                "tempo": 120.0
            },
            {
                "pitch": 40,
                "velocity": 64,
                "duration": 0.1841,
                "tempo": 120.0
            },
            {
                "pitch": 52,
                "velocity": 64,
                "duration": 0.1864,
                "tempo": 120.0
            },
            {
                "pitch": 38,
                "velocity": 64,
                "duration": 0.1841,
                "tempo": 120.0
            },
            {
                "pitch": 50,
                "velocity": 64,
                "duration": 0.1841,
                "tempo": 120.0
            },
            {
                "pitch": 38,
                "velocity": 64,
                "duration": 0.1841,
                "tempo": 120.0
            },
            {
                "pitch": 50,
                "velocity": 64,
                "duration": 0.1841,
                "tempo": 120.0
            },
            {
                "pitch": 38,
                "velocity": 64,
                "duration": 0.1841,
                "tempo": 120.0
            },
            {
                "pitch": 50,
                "velocity": 64,
                "duration": 0.1841,
                "tempo": 120.0
            },
            {
                "pitch": 38,
                "velocity": 64,
                "duration": 0.1841,
                "tempo": 120.0
            },
            {
                "pitch": 50,
                "velocity": 64,
                "duration": 0.1841,
                "tempo": 120.0
            },
            {
                "pitch": 38,
                "velocity": 64,
                "duration": 0.1841,
                "tempo": 120.0
            },
            {
                "pitch": 50,
                "velocity": 64,
                "duration": 0.1841,
                "tempo": 120.0
            },
            {
                "pitch": 38,
                "velocity": 64,
                "duration": 0.1841,
                "tempo": 120.0
            },
            {
                "pitch": 50,
                "velocity": 64,
                "duration": 0.1841,
                "tempo": 120.0
            },
            {
                "pitch": 38,
                "velocity": 64,
                "duration": 0.1841,
                "tempo": 120.0
            },
            {
                "pitch": 50,
                "velocity": 64,
                "duration": 0.1841,
                "tempo": 120.0
            },
            {
                "pitch": 38,
                "velocity": 64,
                "duration": 0.1864,
                "tempo": 120.0
            },
            {
                "pitch": 50,
                "velocity": 64,
                "duration": 0.1841,
                "tempo": 120.0
            },
            {
                "pitch": 37,
                "velocity": 64,
                "duration": 0.1864,
                "tempo": 120.0
            },
            {
                "pitch": 49,
                "velocity": 64,
                "duration": 0.1841,
                "tempo": 120.0
            },
            {
                "pitch": 37,
                "velocity": 64,
                "duration": 0.1818,
                "tempo": 120.0
            },
            {
                "pitch": 49,
                "velocity": 64,
                "duration": 0.1818,
                "tempo": 120.0
            },
            {
                "pitch": 37,
                "velocity": 64,
                "duration": 0.1818,
                "tempo": 120.0
            },
            {
                "pitch": 49,
                "velocity": 64,
                "duration": 0.1818,
                "tempo": 120.0
            },
            {
                "pitch": 37,
                "velocity": 64,
                "duration": 0.1818,
                "tempo": 120.0
            },
            {
                "pitch": 49,
                "velocity": 64,
                "duration": 0.1818,
                "tempo": 120.0
            },
            {
                "pitch": 36,
                "velocity": 64,
                "duration": 0.1818,
                "tempo": 120.0
            },
            {
                "pitch": 48,
                "velocity": 64,
                "duration": 0.1818,
                "tempo": 120.0
            },
            {
                "pitch": 36,
                "velocity": 64,
                "duration": 0.1841,
                "tempo": 120.0
            },
            {
                "pitch": 48,
                "velocity": 64,
                "duration": 0.1841,
                "tempo": 120.0
            },
            {
                "pitch": 36,
                "velocity": 64,
                "duration": 0.1841,
                "tempo": 120.0
            },
            {
                "pitch": 48,
                "velocity": 64,
                "duration": 0.1841,
                "tempo": 120.0
            },
            {
                "pitch": 36,
                "velocity": 64,
                "duration": 0.1841,
                "tempo": 120.0
            },
            {
                "pitch": 48,
                "velocity": 64,
                "duration": 0.1841,
                "tempo": 120.0
            },
            {
                "pitch": 35,
                "velocity": 64,
                "duration": 0.1841,
                "tempo": 120.0
            },
            {
                "pitch": 47,
                "velocity": 64,
                "duration": 0.1841,
                "tempo": 120.0
            },
            {
                "pitch": 35,
                "velocity": 64,
                "duration": 0.1886,
                "tempo": 120.0
            },
            {
                "pitch": 47,
                "velocity": 64,
                "duration": 0.1886,
                "tempo": 120.0
            },
            {
                "pitch": 35,
                "velocity": 64,
                "duration": 0.1818,
                "tempo": 120.0
            },
            {
                "pitch": 47,
                "velocity": 64,
                "duration": 0.1818,
                "tempo": 120.0
            },
            {
                "pitch": 35,
                "velocity": 64,
                "duration": 0.1795,
                "tempo": 120.0
            },
            {
                "pitch": 47,
                "velocity": 64,
                "duration": 0.1795,
                "tempo": 120.0
            },
            {
                "pitch": 35,
                "velocity": 64,
                "duration": 0.1841,
                "tempo": 120.0
            },
            {
                "pitch": 47,
                "velocity": 64,
                "duration": 0.1841,
                "tempo": 120.0
            },
            {
                "pitch": 35,
                "velocity": 64,
                "duration": 0.1841,
                "tempo": 120.0
            },
            {
                "pitch": 47,
                "velocity": 64,
                "duration": 0.1841,
                "tempo": 120.0
            },
            {
                "pitch": 35,
                "velocity": 64,
                "duration": 0.1841,
                "tempo": 120.0
            },
            {
                "pitch": 47,
                "velocity": 64,
                "duration": 0.1841,
                "tempo": 120.0
            },
            {
                "pitch": 35,
                "velocity": 64,
                "duration": 0.1841,
                "tempo": 120.0
            },
            {
                "pitch": 47,
                "velocity": 64,
                "duration": 0.1841,
                "tempo": 120.0
            },
            {
                "pitch": 40,
                "velocity": 64,
                "duration": 0.1886,
                "tempo": 120.0
            },
            {
                "pitch": 52,
                "velocity": 64,
                "duration": 0.1886,
                "tempo": 120.0
            },
            {
                "pitch": 40,
                "velocity": 64,
                "duration": 0.1841,
                "tempo": 120.0
            },
            {
                "pitch": 52,
                "velocity": 64,
                "duration": 0.1841,
                "tempo": 120.0
            },
            {
                "pitch": 40,
                "velocity": 64,
                "duration": 0.1841,
                "tempo": 120.0
            },
            {
                "pitch": 52,
                "velocity": 64,
                "duration": 0.1841,
                "tempo": 120.0
            },
            {
                "pitch": 40,
                "velocity": 64,
                "duration": 0.1795,
                "tempo": 120.0
            },
            {
                "pitch": 52,
                "velocity": 64,
                "duration": 0.1795,
                "tempo": 120.0
            },
            {
                "pitch": 40,
                "velocity": 64,
                "duration": 0.1795,
                "tempo": 120.0
            },
            {
                "pitch": 52,
                "velocity": 64,
                "duration": 0.1795,
                "tempo": 120.0
            },
            {
                "pitch": 40,
                "velocity": 64,
                "duration": 0.1886,
                "tempo": 120.0
            },
            {
                "pitch": 52,
                "velocity": 64,
                "duration": 0.1886,
                "tempo": 120.0
            },
            {
                "pitch": 40,
                "velocity": 64,
                "duration": 0.1886,
                "tempo": 120.0
            },
            {
                "pitch": 52,
                "velocity": 64,
                "duration": 0.1864,
                "tempo": 120.0
            },
            {
                "pitch": 40,
                "velocity": 64,
                "duration": 0.1841,
                "tempo": 120.0
            },
            {
                "pitch": 52,
                "velocity": 64,
                "duration": 0.1841,
                "tempo": 120.0
            },
            {
                "pitch": 40,
                "velocity": 64,
                "duration": 0.1841,
                "tempo": 120.0
            },
            {
                "pitch": 52,
                "velocity": 64,
                "duration": 0.1841,
                "tempo": 120.0
            },
            {
                "pitch": 40,
                "velocity": 64,
                "duration": 0.1841,
                "tempo": 120.0
            },
            {
                "pitch": 52,
                "velocity": 64,
                "duration": 0.1841,
                "tempo": 120.0
            },
            {
                "pitch": 40,
                "velocity": 64,
                "duration": 0.1841,
                "tempo": 120.0
            },
            {
                "pitch": 52,
                "velocity": 64,
                "duration": 0.1841,
                "tempo": 120.0
            },
            {
                "pitch": 40,
                "velocity": 64,
                "duration": 0.1841,
                "tempo": 120.0
            },
            {
                "pitch": 52,
                "velocity": 64,
                "duration": 0.1841,
                "tempo": 120.0
            },
            {
                "pitch": 40,
                "velocity": 64,
                "duration": 0.175,
                "tempo": 120.0
            },
            {
                "pitch": 52,
                "velocity": 64,
                "duration": 0.175,
                "tempo": 120.0
            },
            {
                "pitch": 40,
                "velocity": 64,
                "duration": 0.1886,
                "tempo": 120.0
            },
            {
                "pitch": 52,
                "velocity": 64,
                "duration": 0.1886,
                "tempo": 120.0
            },
            {
                "pitch": 40,
                "velocity": 64,
                "duration": 0.1795,
                "tempo": 120.0
            },
            {
                "pitch": 52,
                "velocity": 64,
                "duration": 0.1795,
                "tempo": 120.0
            },
            {
                "pitch": 40,
                "velocity": 64,
                "duration": 0.1886,
                "tempo": 120.0
            },
            {
                "pitch": 52,
                "velocity": 64,
                "duration": 0.1886,
                "tempo": 120.0
            },
            {
                "pitch": 40,
                "velocity": 64,
                "duration": 0.1841,
                "tempo": 120.0
            },
            {
                "pitch": 52,
                "velocity": 64,
                "duration": 0.1841,
                "tempo": 120.0
            },
            {
                "pitch": 40,
                "velocity": 64,
                "duration": 0.1841,
                "tempo": 120.0
            },
            {
                "pitch": 52,
                "velocity": 64,
                "duration": 0.1841,
                "tempo": 120.0
            },
            {
                "pitch": 40,
                "velocity": 64,
                "duration": 0.1841,
                "tempo": 120.0
            },
            {
                "pitch": 52,
                "velocity": 64,
                "duration": 0.1841,
                "tempo": 120.0
            },
            {
                "pitch": 40,
                "velocity": 64,
                "duration": 0.1841,
                "tempo": 120.0
            },
            {
                "pitch": 52,
                "velocity": 64,
                "duration": 0.1841,
                "tempo": 120.0
            },
            {
                "pitch": 40,
                "velocity": 64,
                "duration": 0.1841,
                "tempo": 120.0
            },
            {
                "pitch": 52,
                "velocity": 64,
                "duration": 0.1841,
                "tempo": 120.0
            },
            {
                "pitch": 40,
                "velocity": 64,
                "duration": 0.1841,
                "tempo": 120.0
            },
            {
                "pitch": 52,
                "velocity": 64,
                "duration": 0.1841,
                "tempo": 120.0
            },
            {
                "pitch": 40,
                "velocity": 64,
                "duration": 0.1841,
                "tempo": 120.0
            },
            {
                "pitch": 52,
                "velocity": 64,
                "duration": 0.1841,
                "tempo": 120.0
            },
            {
                "pitch": 40,
                "velocity": 64,
                "duration": 0.1841,
                "tempo": 120.0
            },
            {
                "pitch": 52,
                "velocity": 64,
                "duration": 0.1841,
                "tempo": 120.0
            },
            {
                "pitch": 40,
                "velocity": 64,
                "duration": 0.1864,
                "tempo": 120.0
            },
            {
                "pitch": 52,
                "velocity": 64,
                "duration": 0.1841,
                "tempo": 120.0
            },
            {
                "pitch": 40,
                "velocity": 64,
                "duration": 0.1818,
                "tempo": 120.0
            },
            {
                "pitch": 52,
                "velocity": 64,
                "duration": 0.1818,
                "tempo": 120.0
            },
            {
                "pitch": 40,
                "velocity": 64,
                "duration": 0.1818,
                "tempo": 120.0
            },
            {
                "pitch": 52,
                "velocity": 64,
                "duration": 0.1818,
                "tempo": 120.0
            },
            {
                "pitch": 40,
                "velocity": 64,
                "duration": 0.1818,
                "tempo": 120.0
            },
            {
                "pitch": 52,
                "velocity": 64,
                "duration": 0.1818,
                "tempo": 120.0
            },
            {
                "pitch": 40,
                "velocity": 64,
                "duration": 0.1818,
                "tempo": 120.0
            },
            {
                "pitch": 52,
                "velocity": 64,
                "duration": 0.1818,
                "tempo": 120.0
            },
            {
                "pitch": 40,
                "velocity": 64,
                "duration": 0.1841,
                "tempo": 120.0
            },
            {
                "pitch": 52,
                "velocity": 64,
                "duration": 0.1841,
                "tempo": 120.0
            },
            {
                "pitch": 40,
                "velocity": 64,
                "duration": 0.1818,
                "tempo": 120.0
            },
            {
                "pitch": 52,
                "velocity": 64,
                "duration": 0.1818,
                "tempo": 120.0
            },
            {
                "pitch": 40,
                "velocity": 64,
                "duration": 0.1818,
                "tempo": 120.0
            },
            {
                "pitch": 52,
                "velocity": 64,
                "duration": 0.1818,
                "tempo": 120.0
            },
            {
                "pitch": 40,
                "velocity": 64,
                "duration": 0.1818,
                "tempo": 120.0
            },
            {
                "pitch": 52,
                "velocity": 64,
                "duration": 0.1818,
                "tempo": 120.0
            },
            {
                "pitch": 40,
                "velocity": 64,
                "duration": 0.1818,
                "tempo": 120.0
            },
            {
                "pitch": 52,
                "velocity": 64,
                "duration": 0.1818,
                "tempo": 120.0
            },
            {
                "pitch": 40,
                "velocity": 64,
                "duration": 0.1841,
                "tempo": 120.0
            },
            {
                "pitch": 52,
                "velocity": 64,
                "duration": 0.1864,
                "tempo": 120.0
            },
            {
                "pitch": 40,
                "velocity": 64,
                "duration": 0.1841,
                "tempo": 120.0
            },
            {
                "pitch": 52,
                "velocity": 64,
                "duration": 0.1841,
                "tempo": 120.0
            },
            {
                "pitch": 40,
                "velocity": 64,
                "duration": 0.1841,
                "tempo": 120.0
            },
            {
                "pitch": 52,
                "velocity": 64,
                "duration": 0.1841,
                "tempo": 120.0
            },
            {
                "pitch": 40,
                "velocity": 64,
                "duration": 0.1841,
                "tempo": 120.0
            },
            {
                "pitch": 52,
                "velocity": 64,
                "duration": 0.1841,
                "tempo": 120.0
            },
            {
                "pitch": 40,
                "velocity": 64,
                "duration": 0.1841,
                "tempo": 120.0
            },
            {
                "pitch": 52,
                "velocity": 64,
                "duration": 0.1841,
                "tempo": 120.0
            },
            {
                "pitch": 40,
                "velocity": 64,
                "duration": 0.1841,
                "tempo": 120.0
            },
            {
                "pitch": 52,
                "velocity": 64,
                "duration": 0.1841,
                "tempo": 120.0
            },
            {
                "pitch": 38,
                "velocity": 64,
                "duration": 0.1841,
                "tempo": 120.0
            },
            {
                "pitch": 50,
                "velocity": 64,
                "duration": 0.1841,
                "tempo": 120.0
            },
            {
                "pitch": 38,
                "velocity": 64,
                "duration": 0.1841,
                "tempo": 120.0
            },
            {
                "pitch": 50,
                "velocity": 64,
                "duration": 0.1841,
                "tempo": 120.0
            },
            {
                "pitch": 38,
                "velocity": 64,
                "duration": 0.1841,
                "tempo": 120.0
            },
            {
                "pitch": 50,
                "velocity": 64,
                "duration": 0.1841,
                "tempo": 120.0
            },
            {
                "pitch": 38,
                "velocity": 64,
                "duration": 0.1841,
                "tempo": 120.0
            },
            {
                "pitch": 50,
                "velocity": 64,
                "duration": 0.1841,
                "tempo": 120.0
            },
            {
                "pitch": 38,
                "velocity": 64,
                "duration": 0.1841,
                "tempo": 120.0
            },
            {
                "pitch": 50,
                "velocity": 64,
                "duration": 0.1841,
                "tempo": 120.0
            },
            {
                "pitch": 38,
                "velocity": 64,
                "duration": 0.1841,
                "tempo": 120.0
            },
            {
                "pitch": 50,
                "velocity": 64,
                "duration": 0.1841,
                "tempo": 120.0
            },
            {
                "pitch": 38,
                "velocity": 64,
                "duration": 0.1841,
                "tempo": 120.0
            },
            {
                "pitch": 50,
                "velocity": 64,
                "duration": 0.1841,
                "tempo": 120.0
            },
            {
                "pitch": 38,
                "velocity": 64,
                "duration": 0.1841,
                "tempo": 120.0
            },
            {
                "pitch": 50,
                "velocity": 64,
                "duration": 0.1841,
                "tempo": 120.0
            },
            {
                "pitch": 35,
                "velocity": 64,
                "duration": 0.1841,
                "tempo": 120.0
            },
            {
                "pitch": 47,
                "velocity": 64,
                "duration": 0.1841,
                "tempo": 120.0
            },
            {
                "pitch": 35,
                "velocity": 64,
                "duration": 0.1864,
                "tempo": 120.0
            },
            {
                "pitch": 47,
                "velocity": 64,
                "duration": 0.1841,
                "tempo": 120.0
            },
            {
                "pitch": 35,
                "velocity": 64,
                "duration": 0.1818,
                "tempo": 120.0
            },
            {
                "pitch": 47,
                "velocity": 64,
                "duration": 0.1818,
                "tempo": 120.0
            },
            {
                "pitch": 35,
                "velocity": 64,
                "duration": 0.1818,
                "tempo": 120.0
            },
            {
                "pitch": 47,
                "velocity": 64,
                "duration": 0.1818,
                "tempo": 120.0
            },
            {
                "pitch": 35,
                "velocity": 64,
                "duration": 0.1818,
                "tempo": 120.0
            },
            {
                "pitch": 47,
                "velocity": 64,
                "duration": 0.1818,
                "tempo": 120.0
            },
            {
                "pitch": 35,
                "velocity": 64,
                "duration": 0.1818,
                "tempo": 120.0
            },
            {
                "pitch": 47,
                "velocity": 64,
                "duration": 0.1818,
                "tempo": 120.0
            },
            {
                "pitch": 35,
                "velocity": 64,
                "duration": 0.1841,
                "tempo": 120.0
            },
            {
                "pitch": 47,
                "velocity": 64,
                "duration": 0.1841,
                "tempo": 120.0
            },
            {
                "pitch": 35,
                "velocity": 64,
                "duration": 0.1818,
                "tempo": 120.0
            },
            {
                "pitch": 47,
                "velocity": 64,
                "duration": 0.1818,
                "tempo": 120.0
            },
            {
                "pitch": 40,
                "velocity": 64,
                "duration": 0.1818,
                "tempo": 120.0
            },
            {
                "pitch": 52,
                "velocity": 64,
                "duration": 0.1818,
                "tempo": 120.0
            },
            {
                "pitch": 40,
                "velocity": 64,
                "duration": 0.1818,
                "tempo": 120.0
            },
            {
                "pitch": 52,
                "velocity": 64,
                "duration": 0.1818,
                "tempo": 120.0
            },
            {
                "pitch": 40,
                "velocity": 64,
                "duration": 0.1818,
                "tempo": 120.0
            },
            {
                "pitch": 52,
                "velocity": 64,
                "duration": 0.1818,
                "tempo": 120.0
            },
            {
                "pitch": 40,
                "velocity": 64,
                "duration": 0.1841,
                "tempo": 120.0
            },
            {
                "pitch": 52,
                "velocity": 64,
                "duration": 0.1864,
                "tempo": 120.0
            },
            {
                "pitch": 40,
                "velocity": 64,
                "duration": 0.1841,
                "tempo": 120.0
            },
            {
                "pitch": 52,
                "velocity": 64,
                "duration": 0.1841,
                "tempo": 120.0
            },
            {
                "pitch": 40,
                "velocity": 64,
                "duration": 0.1841,
                "tempo": 120.0
            },
            {
                "pitch": 52,
                "velocity": 64,
                "duration": 0.1841,
                "tempo": 120.0
            },
            {
                "pitch": 40,
                "velocity": 64,
                "duration": 0.1841,
                "tempo": 120.0
            },
            {
                "pitch": 52,
                "velocity": 64,
                "duration": 0.1841,
                "tempo": 120.0
            },
            {
                "pitch": 40,
                "velocity": 64,
                "duration": 0.1841,
                "tempo": 120.0
            },
            {
                "pitch": 52,
                "velocity": 64,
                "duration": 0.1841,
                "tempo": 120.0
            },
            {
                "pitch": 45,
                "velocity": 64,
                "duration": 0.1841,
                "tempo": 120.0
            },
            {
                "pitch": 57,
                "velocity": 64,
                "duration": 0.1864,
                "tempo": 120.0
            },
            {
                "pitch": 45,
                "velocity": 64,
                "duration": 0.1841,
                "tempo": 120.0
            },
            {
                "pitch": 57,
                "velocity": 64,
                "duration": 0.1841,
                "tempo": 120.0
            },
            {
                "pitch": 45,
                "velocity": 64,
                "duration": 0.1841,
                "tempo": 120.0
            },
            {
                "pitch": 57,
                "velocity": 64,
                "duration": 0.1841,
                "tempo": 120.0
            },
            {
                "pitch": 45,
                "velocity": 64,
                "duration": 0.1841,
                "tempo": 120.0
            },
            {
                "pitch": 57,
                "velocity": 64,
                "duration": 0.1841,
                "tempo": 120.0
            },
            {
                "pitch": 45,
                "velocity": 64,
                "duration": 0.1841,
                "tempo": 120.0
            },
            {
                "pitch": 57,
                "velocity": 64,
                "duration": 0.1841,
                "tempo": 120.0
            },
            {
                "pitch": 45,
                "velocity": 64,
                "duration": 0.1864,
                "tempo": 120.0
            },
            {
                "pitch": 57,
                "velocity": 64,
                "duration": 0.1841,
                "tempo": 120.0
            },
            {
                "pitch": 45,
                "velocity": 64,
                "duration": 0.1818,
                "tempo": 120.0
            },
            {
                "pitch": 57,
                "velocity": 64,
                "duration": 0.1818,
                "tempo": 120.0
            },
            {
                "pitch": 45,
                "velocity": 64,
                "duration": 0.1841,
                "tempo": 120.0
            },
            {
                "pitch": 57,
                "velocity": 64,
                "duration": 0.1841,
                "tempo": 120.0
            },
            {
                "pitch": 44,
                "velocity": 64,
                "duration": 0.1841,
                "tempo": 120.0
            },
            {
                "pitch": 56,
                "velocity": 64,
                "duration": 0.1864,
                "tempo": 120.0
            },
            {
                "pitch": 44,
                "velocity": 64,
                "duration": 0.1841,
                "tempo": 120.0
            },
            {
                "pitch": 56,
                "velocity": 64,
                "duration": 0.1841,
                "tempo": 120.0
            },
            {
                "pitch": 44,
                "velocity": 64,
                "duration": 0.1841,
                "tempo": 120.0
            },
            {
                "pitch": 56,
                "velocity": 64,
                "duration": 0.1841,
                "tempo": 120.0
            },
            {
                "pitch": 44,
                "velocity": 64,
                "duration": 0.1841,
                "tempo": 120.0
            },
            {
                "pitch": 56,
                "velocity": 64,
                "duration": 0.1841,
                "tempo": 120.0
            },
            {
                "pitch": 44,
                "velocity": 64,
                "duration": 0.1841,
                "tempo": 120.0
            },
            {
                "pitch": 56,
                "velocity": 64,
                "duration": 0.1841,
                "tempo": 120.0
            },
            {
                "pitch": 44,
                "velocity": 64,
                "duration": 0.1864,
                "tempo": 120.0
            },
            {
                "pitch": 56,
                "velocity": 64,
                "duration": 0.1841,
                "tempo": 120.0
            },
            {
                "pitch": 44,
                "velocity": 64,
                "duration": 0.1818,
                "tempo": 120.0
            },
            {
                "pitch": 56,
                "velocity": 64,
                "duration": 0.1818,
                "tempo": 120.0
            },
            {
                "pitch": 44,
                "velocity": 64,
                "duration": 0.1841,
                "tempo": 120.0
            },
            {
                "pitch": 56,
                "velocity": 64,
                "duration": 0.1841,
                "tempo": 120.0
            },
            {
                "pitch": 45,
                "velocity": 64,
                "duration": 0.1818,
                "tempo": 120.0
            },
            {
                "pitch": 57,
                "velocity": 64,
                "duration": 0.1818,
                "tempo": 120.0
            },
            {
                "pitch": 45,
                "velocity": 64,
                "duration": 0.1841,
                "tempo": 120.0
            },
            {
                "pitch": 57,
                "velocity": 64,
                "duration": 0.1841,
                "tempo": 120.0
            },
            {
                "pitch": 45,
                "velocity": 64,
                "duration": 0.1841,
                "tempo": 120.0
            },
            {
                "pitch": 57,
                "velocity": 64,
                "duration": 0.1864,
                "tempo": 120.0
            },
            {
                "pitch": 45,
                "velocity": 64,
                "duration": 0.1841,
                "tempo": 120.0
            },
            {
                "pitch": 57,
                "velocity": 64,
                "duration": 0.1841,
                "tempo": 120.0
            },
            {
                "pitch": 45,
                "velocity": 64,
                "duration": 0.1841,
                "tempo": 120.0
            },
            {
                "pitch": 57,
                "velocity": 64,
                "duration": 0.1841,
                "tempo": 120.0
            },
            {
                "pitch": 45,
                "velocity": 64,
                "duration": 0.1841,
                "tempo": 120.0
            },
            {
                "pitch": 57,
                "velocity": 64,
                "duration": 0.1841,
                "tempo": 120.0
            },
            {
                "pitch": 45,
                "velocity": 64,
                "duration": 0.1841,
                "tempo": 120.0
            },
            {
                "pitch": 57,
                "velocity": 64,
                "duration": 0.1841,
                "tempo": 120.0
            },
            {
                "pitch": 45,
                "velocity": 64,
                "duration": 0.1864,
                "tempo": 120.0
            },
            {
                "pitch": 57,
                "velocity": 64,
                "duration": 0.1841,
                "tempo": 120.0
            },
            {
                "pitch": 36,
                "velocity": 64,
                "duration": 0.1818,
                "tempo": 120.0
            },
            {
                "pitch": 48,
                "velocity": 64,
                "duration": 0.1818,
                "tempo": 120.0
            },
            {
                "pitch": 36,
                "velocity": 64,
                "duration": 0.1841,
                "tempo": 120.0
            },
            {
                "pitch": 48,
                "velocity": 64,
                "duration": 0.1841,
                "tempo": 120.0
            },
            {
                "pitch": 36,
                "velocity": 64,
                "duration": 0.1818,
                "tempo": 120.0
            },
            {
                "pitch": 48,
                "velocity": 64,
                "duration": 0.1818,
                "tempo": 120.0
            },
            {
                "pitch": 36,
                "velocity": 64,
                "duration": 0.1841,
                "tempo": 120.0
            },
            {
                "pitch": 48,
                "velocity": 64,
                "duration": 0.1864,
                "tempo": 120.0
            },
            {
                "pitch": 35,
                "velocity": 64,
                "duration": 0.1841,
                "tempo": 120.0
            },
            {
                "pitch": 47,
                "velocity": 64,
                "duration": 0.1841,
                "tempo": 120.0
            },
            {
                "pitch": 35,
                "velocity": 64,
                "duration": 0.1841,
                "tempo": 120.0
            },
            {
                "pitch": 47,
                "velocity": 64,
                "duration": 0.1841,
                "tempo": 120.0
            },
            {
                "pitch": 35,
                "velocity": 64,
                "duration": 0.1841,
                "tempo": 120.0
            },
            {
                "pitch": 47,
                "velocity": 64,
                "duration": 0.1841,
                "tempo": 120.0
            },
            {
                "pitch": 35,
                "velocity": 64,
                "duration": 0.1841,
                "tempo": 120.0
            },
            {
                "pitch": 47,
                "velocity": 64,
                "duration": 0.1841,
                "tempo": 120.0
            },
            {
                "pitch": 52,
                "velocity": 64,
                "duration": 0.1864,
                "tempo": 120.0
            },
            {
                "pitch": 52,
                "velocity": 64,
                "duration": 0.1795,
                "tempo": 120.0
            },
            {
                "pitch": 52,
                "velocity": 64,
                "duration": 0.1841,
                "tempo": 120.0
            },
            {
                "pitch": 51,
                "velocity": 64,
                "duration": 0.1841,
                "tempo": 120.0
            },
            {
                "pitch": 49,
                "velocity": 64,
                "duration": 0.1886,
                "tempo": 120.0
            },
            {
                "pitch": 49,
                "velocity": 64,
                "duration": 0.1773,
                "tempo": 120.0
            },
            {
                "pitch": 49,
                "velocity": 64,
                "duration": 0.1886,
                "tempo": 120.0
            },
            {
                "pitch": 51,
                "velocity": 64,
                "duration": 0.3841,
                "tempo": 120.0
            },
            {
                "pitch": 52,
                "velocity": 64,
                "duration": 0.1886,
                "tempo": 120.0
            },
            {
                "pitch": 52,
                "velocity": 64,
                "duration": 0.1795,
                "tempo": 120.0
            },
            {
                "pitch": 52,
                "velocity": 64,
                "duration": 0.1795,
                "tempo": 120.0
            },
            {
                "pitch": 51,
                "velocity": 64,
                "duration": 0.1886,
                "tempo": 120.0
            },
            {
                "pitch": 49,
                "velocity": 64,
                "duration": 0.1864,
                "tempo": 120.0
            },
            {
                "pitch": 49,
                "velocity": 64,
                "duration": 0.1886,
                "tempo": 120.0
            },
            {
                "pitch": 49,
                "velocity": 64,
                "duration": 0.1841,
                "tempo": 120.0
            },
            {
                "pitch": 47,
                "velocity": 64,
                "duration": 0.3864,
                "tempo": 120.0
            },
            {
                "pitch": 57,
                "velocity": 80,
                "duration": 0.1841,
                "tempo": 120.0
            },
            {
                "pitch": 45,
                "velocity": 80,
                "duration": 0.1841,
                "tempo": 120.0
            },
            {
                "pitch": 45,
                "velocity": 80,
                "duration": 0.1818,
                "tempo": 120.0
            },
            {
                "pitch": 57,
                "velocity": 80,
                "duration": 0.1818,
                "tempo": 120.0
            },
            {
                "pitch": 45,
                "velocity": 80,
                "duration": 0.1795,
                "tempo": 120.0
            },
            {
                "pitch": 45,
                "velocity": 80,
                "duration": 0.1795,
                "tempo": 120.0
            },
            {
                "pitch": 57,
                "velocity": 80,
                "duration": 0.1886,
                "tempo": 120.0
            },
            {
                "pitch": 45,
                "velocity": 80,
                "duration": 0.1886,
                "tempo": 120.0
            },
            {
                "pitch": 57,
                "velocity": 80,
                "duration": 0.1841,
                "tempo": 120.0
            },
            {
                "pitch": 45,
                "velocity": 80,
                "duration": 0.1841,
                "tempo": 120.0
            },
            {
                "pitch": 45,
                "velocity": 80,
                "duration": 0.1841,
                "tempo": 120.0
            },
            {
                "pitch": 57,
                "velocity": 80,
                "duration": 0.1841,
                "tempo": 120.0
            },
            {
                "pitch": 45,
                "velocity": 80,
                "duration": 0.1841,
                "tempo": 120.0
            },
            {
                "pitch": 45,
                "velocity": 80,
                "duration": 0.1841,
                "tempo": 120.0
            },
            {
                "pitch": 57,
                "velocity": 80,
                "duration": 0.1864,
                "tempo": 120.0
            },
            {
                "pitch": 45,
                "velocity": 80,
                "duration": 0.1841,
                "tempo": 120.0
            },
            {
                "pitch": 56,
                "velocity": 80,
                "duration": 0.1818,
                "tempo": 120.0
            },
            {
                "pitch": 44,
                "velocity": 80,
                "duration": 0.1818,
                "tempo": 120.0
            },
            {
                "pitch": 44,
                "velocity": 80,
                "duration": 0.1841,
                "tempo": 120.0
            },
            {
                "pitch": 56,
                "velocity": 80,
                "duration": 0.1841,
                "tempo": 120.0
            },
            {
                "pitch": 44,
                "velocity": 80,
                "duration": 0.1841,
                "tempo": 120.0
            },
            {
                "pitch": 44,
                "velocity": 80,
                "duration": 0.1864,
                "tempo": 120.0
            },
            {
                "pitch": 56,
                "velocity": 80,
                "duration": 0.1841,
                "tempo": 120.0
            },
            {
                "pitch": 44,
                "velocity": 80,
                "duration": 0.1841,
                "tempo": 120.0
            },
            {
                "pitch": 49,
                "velocity": 80,
                "duration": 0.1841,
                "tempo": 120.0
            },
            {
                "pitch": 37,
                "velocity": 80,
                "duration": 0.1841,
                "tempo": 120.0
            },
            {
                "pitch": 37,
                "velocity": 80,
                "duration": 0.1841,
                "tempo": 120.0
            },
            {
                "pitch": 49,
                "velocity": 80,
                "duration": 0.1841,
                "tempo": 120.0
            },
            {
                "pitch": 37,
                "velocity": 80,
                "duration": 0.1841,
                "tempo": 120.0
            },
            {
                "pitch": 37,
                "velocity": 80,
                "duration": 0.1841,
                "tempo": 120.0
            },
            {
                "pitch": 49,
                "velocity": 80,
                "duration": 0.1864,
                "tempo": 120.0
            },
            {
                "pitch": 37,
                "velocity": 80,
                "duration": 0.1841,
                "tempo": 120.0
            },
            {
                "pitch": 57,
                "velocity": 80,
                "duration": 0.1818,
                "tempo": 120.0
            },
            {
                "pitch": 45,
                "velocity": 80,
                "duration": 0.1818,
                "tempo": 120.0
            },
            {
                "pitch": 45,
                "velocity": 80,
                "duration": 0.1841,
                "tempo": 120.0
            },
            {
                "pitch": 57,
                "velocity": 80,
                "duration": 0.1841,
                "tempo": 120.0
            },
            {
                "pitch": 45,
                "velocity": 80,
                "duration": 0.1795,
                "tempo": 120.0
            },
            {
                "pitch": 45,
                "velocity": 80,
                "duration": 0.1795,
                "tempo": 120.0
            },
            {
                "pitch": 57,
                "velocity": 80,
                "duration": 0.1886,
                "tempo": 120.0
            },
            {
                "pitch": 45,
                "velocity": 80,
                "duration": 0.1864,
                "tempo": 120.0
            },
            {
                "pitch": 56,
                "velocity": 80,
                "duration": 0.1841,
                "tempo": 120.0
            },
            {
                "pitch": 44,
                "velocity": 80,
                "duration": 0.1841,
                "tempo": 120.0
            },
            {
                "pitch": 44,
                "velocity": 80,
                "duration": 0.1841,
                "tempo": 120.0
            },
            {
                "pitch": 56,
                "velocity": 80,
                "duration": 0.1841,
                "tempo": 120.0
            },
            {
                "pitch": 44,
                "velocity": 80,
                "duration": 0.1841,
                "tempo": 120.0
            },
            {
                "pitch": 44,
                "velocity": 80,
                "duration": 0.1841,
                "tempo": 120.0
            },
            {
                "pitch": 56,
                "velocity": 80,
                "duration": 0.1841,
                "tempo": 120.0
            },
            {
                "pitch": 44,
                "velocity": 80,
                "duration": 0.1841,
                "tempo": 120.0
            },
            {
                "pitch": 55,
                "velocity": 80,
                "duration": 0.1864,
                "tempo": 120.0
            },
            {
                "pitch": 43,
                "velocity": 80,
                "duration": 0.1841,
                "tempo": 120.0
            },
            {
                "pitch": 43,
                "velocity": 80,
                "duration": 0.1841,
                "tempo": 120.0
            },
            {
                "pitch": 55,
                "velocity": 80,
                "duration": 0.1841,
                "tempo": 120.0
            },
            {
                "pitch": 43,
                "velocity": 80,
                "duration": 0.1795,
                "tempo": 120.0
            },
            {
                "pitch": 43,
                "velocity": 80,
                "duration": 0.1795,
                "tempo": 120.0
            },
            {
                "pitch": 55,
                "velocity": 80,
                "duration": 0.1886,
                "tempo": 120.0
            },
            {
                "pitch": 43,
                "velocity": 80,
                "duration": 0.1864,
                "tempo": 120.0
            },
            {
                "pitch": 47,
                "velocity": 80,
                "duration": 0.1841,
                "tempo": 120.0
            },
            {
                "pitch": 47,
                "velocity": 80,
                "duration": 0.1841,
                "tempo": 120.0
            },
            {
                "pitch": 47,
                "velocity": 80,
                "duration": 0.1841,
                "tempo": 120.0
            },
            {
                "pitch": 47,
                "velocity": 80,
                "duration": 0.1841,
                "tempo": 120.0
            },
            {
                "pitch": 40,
                "velocity": 80,
                "duration": 0.1886,
                "tempo": 120.0
            },
            {
                "pitch": 40,
                "velocity": 80,
                "duration": 0.1886,
                "tempo": 120.0
            },
            {
                "pitch": 40,
                "velocity": 80,
                "duration": 0.1818,
                "tempo": 120.0
            },
            {
                "pitch": 40,
                "velocity": 80,
                "duration": 0.1841,
                "tempo": 120.0
            },
            {
                "pitch": 40,
                "velocity": 80,
                "duration": 0.1841,
                "tempo": 120.0
            },
            {
                "pitch": 40,
                "velocity": 80,
                "duration": 0.0818,
                "tempo": 120.0
            },
            {
                "pitch": 49,
                "velocity": 80,
                "duration": 0.1841,
                "tempo": 120.0
            },
            {
                "pitch": 50,
                "velocity": 80,
                "duration": 0.1864,
                "tempo": 120.0
            },
            {
                "pitch": 40,
                "velocity": 80,
                "duration": 0.1886,
                "tempo": 120.0
            },
            {
                "pitch": 40,
                "velocity": 80,
                "duration": 0.1886,
                "tempo": 120.0
            },
            {
                "pitch": 40,
                "velocity": 80,
                "duration": 0.1795,
                "tempo": 120.0
            },
            {
                "pitch": 40,
                "velocity": 80,
                "duration": 0.1818,
                "tempo": 120.0
            },
            {
                "pitch": 40,
                "velocity": 80,
                "duration": 0.1841,
                "tempo": 120.0
            },
            {
                "pitch": 40,
                "velocity": 80,
                "duration": 0.0841,
                "tempo": 120.0
            },
            {
                "pitch": 50,
                "velocity": 80,
                "duration": 0.1864,
                "tempo": 120.0
            },
            {
                "pitch": 49,
                "velocity": 80,
                "duration": 0.1841,
                "tempo": 120.0
            },
            {
                "pitch": 40,
                "velocity": 80,
                "duration": 0.1841,
                "tempo": 120.0
            },
            {
                "pitch": 40,
                "velocity": 80,
                "duration": 0.1841,
                "tempo": 120.0
            },
            {
                "pitch": 40,
                "velocity": 80,
                "duration": 0.1818,
                "tempo": 120.0
            },
            {
                "pitch": 40,
                "velocity": 80,
                "duration": 0.1841,
                "tempo": 120.0
            },
            {
                "pitch": 40,
                "velocity": 80,
                "duration": 0.1841,
                "tempo": 120.0
            },
            {
                "pitch": 40,
                "velocity": 80,
                "duration": 0.0818,
                "tempo": 120.0
            },
            {
                "pitch": 49,
                "velocity": 80,
                "duration": 0.1841,
                "tempo": 120.0
            },
            {
                "pitch": 50,
                "velocity": 80,
                "duration": 0.1841,
                "tempo": 120.0
            },
            {
                "pitch": 40,
                "velocity": 80,
                "duration": 0.1841,
                "tempo": 120.0
            },
            {
                "pitch": 40,
                "velocity": 80,
                "duration": 0.1864,
                "tempo": 120.0
            },
            {
                "pitch": 40,
                "velocity": 80,
                "duration": 0.1864,
                "tempo": 120.0
            },
            {
                "pitch": 40,
                "velocity": 80,
                "duration": 0.1841,
                "tempo": 120.0
            },
            {
                "pitch": 40,
                "velocity": 80,
                "duration": 0.1841,
                "tempo": 120.0
            },
            {
                "pitch": 40,
                "velocity": 80,
                "duration": 0.0841,
                "tempo": 120.0
            },
            {
                "pitch": 50,
                "velocity": 80,
                "duration": 0.1841,
                "tempo": 120.0
            },
            {
                "pitch": 49,
                "velocity": 80,
                "duration": 0.1841,
                "tempo": 120.0
            },
            {
                "pitch": 40,
                "velocity": 80,
                "duration": 0.1841,
                "tempo": 120.0
            },
            {
                "pitch": 40,
                "velocity": 80,
                "duration": 0.1841,
                "tempo": 120.0
            },
            {
                "pitch": 40,
                "velocity": 80,
                "duration": 0.1841,
                "tempo": 120.0
            },
            {
                "pitch": 40,
                "velocity": 80,
                "duration": 0.1864,
                "tempo": 120.0
            },
            {
                "pitch": 40,
                "velocity": 80,
                "duration": 0.1841,
                "tempo": 120.0
            },
            {
                "pitch": 40,
                "velocity": 80,
                "duration": 0.0841,
                "tempo": 120.0
            },
            {
                "pitch": 49,
                "velocity": 80,
                "duration": 0.1818,
                "tempo": 120.0
            },
            {
                "pitch": 50,
                "velocity": 80,
                "duration": 0.1818,
                "tempo": 120.0
            },
            {
                "pitch": 40,
                "velocity": 80,
                "duration": 0.1841,
                "tempo": 120.0
            },
            {
                "pitch": 40,
                "velocity": 80,
                "duration": 0.1864,
                "tempo": 120.0
            },
            {
                "pitch": 40,
                "velocity": 80,
                "duration": 0.1841,
                "tempo": 120.0
            },
            {
                "pitch": 40,
                "velocity": 80,
                "duration": 0.1841,
                "tempo": 120.0
            },
            {
                "pitch": 40,
                "velocity": 80,
                "duration": 0.1841,
                "tempo": 120.0
            },
            {
                "pitch": 40,
                "velocity": 80,
                "duration": 0.0841,
                "tempo": 120.0
            },
            {
                "pitch": 50,
                "velocity": 80,
                "duration": 0.1841,
                "tempo": 120.0
            },
            {
                "pitch": 49,
                "velocity": 80,
                "duration": 0.1841,
                "tempo": 120.0
            },
            {
                "pitch": 40,
                "velocity": 80,
                "duration": 0.1841,
                "tempo": 120.0
            },
            {
                "pitch": 40,
                "velocity": 80,
                "duration": 0.1841,
                "tempo": 120.0
            },
            {
                "pitch": 40,
                "velocity": 80,
                "duration": 0.1841,
                "tempo": 120.0
            },
            {
                "pitch": 40,
                "velocity": 80,
                "duration": 0.1841,
                "tempo": 120.0
            },
            {
                "pitch": 40,
                "velocity": 80,
                "duration": 0.1818,
                "tempo": 120.0
            },
            {
                "pitch": 40,
                "velocity": 80,
                "duration": 0.0818,
                "tempo": 120.0
            },
            {
                "pitch": 49,
                "velocity": 80,
                "duration": 0.1841,
                "tempo": 120.0
            },
            {
                "pitch": 50,
                "velocity": 80,
                "duration": 0.1841,
                "tempo": 120.0
            },
            {
                "pitch": 40,
                "velocity": 80,
                "duration": 0.1841,
                "tempo": 120.0
            },
            {
                "pitch": 40,
                "velocity": 80,
                "duration": 0.1841,
                "tempo": 120.0
            },
            {
                "pitch": 40,
                "velocity": 80,
                "duration": 0.1841,
                "tempo": 120.0
            },
            {
                "pitch": 40,
                "velocity": 80,
                "duration": 0.1841,
                "tempo": 120.0
            },
            {
                "pitch": 40,
                "velocity": 80,
                "duration": 0.1841,
                "tempo": 120.0
            },
            {
                "pitch": 40,
                "velocity": 80,
                "duration": 0.0841,
                "tempo": 120.0
            },
            {
                "pitch": 50,
                "velocity": 80,
                "duration": 0.1841,
                "tempo": 120.0
            },
            {
                "pitch": 49,
                "velocity": 80,
                "duration": 0.1841,
                "tempo": 120.0
            },
            {
                "pitch": 35,
                "velocity": 80,
                "duration": 0.1841,
                "tempo": 120.0
            },
            {
                "pitch": 35,
                "velocity": 80,
                "duration": 0.1841,
                "tempo": 120.0
            },
            {
                "pitch": 35,
                "velocity": 80,
                "duration": 0.1841,
                "tempo": 120.0
            },
            {
                "pitch": 35,
                "velocity": 80,
                "duration": 0.1841,
                "tempo": 120.0
            },
            {
                "pitch": 35,
                "velocity": 80,
                "duration": 0.1841,
                "tempo": 120.0
            },
            {
                "pitch": 35,
                "velocity": 80,
                "duration": 0.0841,
                "tempo": 120.0
            },
            {
                "pitch": 37,
                "velocity": 80,
                "duration": 0.1864,
                "tempo": 120.0
            },
            {
                "pitch": 38,
                "velocity": 80,
                "duration": 0.1841,
                "tempo": 120.0
            },
            {
                "pitch": 35,
                "velocity": 80,
                "duration": 0.1818,
                "tempo": 120.0
            },
            {
                "pitch": 35,
                "velocity": 80,
                "duration": 0.1818,
                "tempo": 120.0
            },
            {
                "pitch": 35,
                "velocity": 80,
                "duration": 0.1841,
                "tempo": 120.0
            },
            {
                "pitch": 35,
                "velocity": 80,
                "duration": 0.1864,
                "tempo": 120.0
            },
            {
                "pitch": 35,
                "velocity": 80,
                "duration": 0.1841,
                "tempo": 120.0
            },
            {
                "pitch": 35,
                "velocity": 80,
                "duration": 0.0841,
                "tempo": 120.0
            },
            {
                "pitch": 38,
                "velocity": 80,
                "duration": 0.1841,
                "tempo": 120.0
            },
            {
                "pitch": 37,
                "velocity": 80,
                "duration": 0.1841,
                "tempo": 120.0
            },
            {
                "pitch": 42,
                "velocity": 80,
                "duration": 0.1841,
                "tempo": 120.0
            },
            {
                "pitch": 42,
                "velocity": 80,
                "duration": 0.1841,
                "tempo": 120.0
            },
            {
                "pitch": 42,
                "velocity": 80,
                "duration": 0.1841,
                "tempo": 120.0
            },
            {
                "pitch": 42,
                "velocity": 80,
                "duration": 0.1841,
                "tempo": 120.0
            },
            {
                "pitch": 42,
                "velocity": 80,
                "duration": 0.1864,
                "tempo": 120.0
            },
            {
                "pitch": 42,
                "velocity": 80,
                "duration": 0.0841,
                "tempo": 120.0
            },
            {
                "pitch": 49,
                "velocity": 80,
                "duration": 0.1864,
                "tempo": 120.0
            },
            {
                "pitch": 50,
                "velocity": 80,
                "duration": 0.1841,
                "tempo": 120.0
            },
            {
                "pitch": 42,
                "velocity": 80,
                "duration": 0.1818,
                "tempo": 120.0
            },
            {
                "pitch": 42,
                "velocity": 80,
                "duration": 0.1818,
                "tempo": 120.0
            },
            {
                "pitch": 42,
                "velocity": 80,
                "duration": 0.1841,
                "tempo": 120.0
            },
            {
                "pitch": 42,
                "velocity": 80,
                "duration": 0.1841,
                "tempo": 120.0
            },
            {
                "pitch": 42,
                "velocity": 80,
                "duration": 0.1818,
                "tempo": 120.0
            },
            {
                "pitch": 42,
                "velocity": 80,
                "duration": 0.0818,
                "tempo": 120.0
            },
            {
                "pitch": 50,
                "velocity": 80,
                "duration": 0.1841,
                "tempo": 120.0
            },
            {
                "pitch": 49,
                "velocity": 80,
                "duration": 0.1841,
                "tempo": 120.0
            },
            {
                "pitch": 35,
                "velocity": 80,
                "duration": 0.1841,
                "tempo": 120.0
            },
            {
                "pitch": 35,
                "velocity": 80,
                "duration": 0.1864,
                "tempo": 120.0
            },
            {
                "pitch": 35,
                "velocity": 80,
                "duration": 0.1841,
                "tempo": 120.0
            },
            {
                "pitch": 35,
                "velocity": 80,
                "duration": 0.1841,
                "tempo": 120.0
            },
            {
                "pitch": 35,
                "velocity": 80,
                "duration": 0.1864,
                "tempo": 120.0
            },
            {
                "pitch": 35,
                "velocity": 80,
                "duration": 0.0841,
                "tempo": 120.0
            },
            {
                "pitch": 37,
                "velocity": 80,
                "duration": 0.1841,
                "tempo": 120.0
            },
            {
                "pitch": 38,
                "velocity": 80,
                "duration": 0.1841,
                "tempo": 120.0
            },
            {
                "pitch": 35,
                "velocity": 80,
                "duration": 0.1841,
                "tempo": 120.0
            },
            {
                "pitch": 35,
                "velocity": 80,
                "duration": 0.1841,
                "tempo": 120.0
            },
            {
                "pitch": 35,
                "velocity": 80,
                "duration": 0.1841,
                "tempo": 120.0
            },
            {
                "pitch": 35,
                "velocity": 80,
                "duration": 0.1841,
                "tempo": 120.0
            },
            {
                "pitch": 35,
                "velocity": 80,
                "duration": 0.1818,
                "tempo": 120.0
            },
            {
                "pitch": 35,
                "velocity": 80,
                "duration": 0.0818,
                "tempo": 120.0
            },
            {
                "pitch": 38,
                "velocity": 80,
                "duration": 0.1841,
                "tempo": 120.0
            },
            {
                "pitch": 37,
                "velocity": 80,
                "duration": 0.1841,
                "tempo": 120.0
            },
            {
                "pitch": 40,
                "velocity": 80,
                "duration": 0.1818,
                "tempo": 120.0
            },
            {
                "pitch": 40,
                "velocity": 80,
                "duration": 0.1818,
                "tempo": 120.0
            },
            {
                "pitch": 40,
                "velocity": 80,
                "duration": 0.1841,
                "tempo": 120.0
            },
            {
                "pitch": 40,
                "velocity": 80,
                "duration": 0.1841,
                "tempo": 120.0
            },
            {
                "pitch": 40,
                "velocity": 80,
                "duration": 0.1841,
                "tempo": 120.0
            },
            {
                "pitch": 40,
                "velocity": 80,
                "duration": 0.0841,
                "tempo": 120.0
            },
            {
                "pitch": 49,
                "velocity": 80,
                "duration": 0.1841,
                "tempo": 120.0
            },
            {
                "pitch": 50,
                "velocity": 80,
                "duration": 0.1841,
                "tempo": 120.0
            },
            {
                "pitch": 40,
                "velocity": 80,
                "duration": 0.1841,
                "tempo": 120.0
            },
            {
                "pitch": 40,
                "velocity": 80,
                "duration": 0.1841,
                "tempo": 120.0
            },
            {
                "pitch": 40,
                "velocity": 80,
                "duration": 0.1841,
                "tempo": 120.0
            },
            {
                "pitch": 40,
                "velocity": 80,
                "duration": 0.1841,
                "tempo": 120.0
            },
            {
                "pitch": 40,
                "velocity": 80,
                "duration": 0.1841,
                "tempo": 120.0
            },
            {
                "pitch": 40,
                "velocity": 80,
                "duration": 0.0841,
                "tempo": 120.0
            },
            {
                "pitch": 50,
                "velocity": 80,
                "duration": 0.1864,
                "tempo": 120.0
            },
            {
                "pitch": 49,
                "velocity": 80,
                "duration": 0.1841,
                "tempo": 120.0
            },
            {
                "pitch": 40,
                "velocity": 80,
                "duration": 0.1818,
                "tempo": 120.0
            },
            {
                "pitch": 40,
                "velocity": 80,
                "duration": 0.1818,
                "tempo": 120.0
            },
            {
                "pitch": 40,
                "velocity": 80,
                "duration": 0.1841,
                "tempo": 120.0
            },
            {
                "pitch": 40,
                "velocity": 80,
                "duration": 0.1841,
                "tempo": 120.0
            },
            {
                "pitch": 40,
                "velocity": 80,
                "duration": 0.1841,
                "tempo": 120.0
            },
            {
                "pitch": 40,
                "velocity": 80,
                "duration": 0.0841,
                "tempo": 120.0
            },
            {
                "pitch": 49,
                "velocity": 80,
                "duration": 0.1841,
                "tempo": 120.0
            },
            {
                "pitch": 50,
                "velocity": 80,
                "duration": 0.1864,
                "tempo": 120.0
            },
            {
                "pitch": 40,
                "velocity": 80,
                "duration": 0.1886,
                "tempo": 120.0
            },
            {
                "pitch": 40,
                "velocity": 80,
                "duration": 0.1886,
                "tempo": 120.0
            },
            {
                "pitch": 40,
                "velocity": 80,
                "duration": 0.1795,
                "tempo": 120.0
            },
            {
                "pitch": 40,
                "velocity": 80,
                "duration": 0.1818,
                "tempo": 120.0
            },
            {
                "pitch": 40,
                "velocity": 80,
                "duration": 0.1841,
                "tempo": 120.0
            },
            {
                "pitch": 40,
                "velocity": 80,
                "duration": 0.0841,
                "tempo": 120.0
            },
            {
                "pitch": 50,
                "velocity": 80,
                "duration": 0.1818,
                "tempo": 120.0
            },
            {
                "pitch": 49,
                "velocity": 80,
                "duration": 0.1818,
                "tempo": 120.0
            },
            {
                "pitch": 40,
                "velocity": 80,
                "duration": 0.1841,
                "tempo": 120.0
            },
            {
                "pitch": 40,
                "velocity": 80,
                "duration": 0.1841,
                "tempo": 120.0
            },
            {
                "pitch": 40,
                "velocity": 80,
                "duration": 0.1841,
                "tempo": 120.0
            },
            {
                "pitch": 40,
                "velocity": 80,
                "duration": 0.1841,
                "tempo": 120.0
            },
            {
                "pitch": 40,
                "velocity": 80,
                "duration": 0.1841,
                "tempo": 120.0
            },
            {
                "pitch": 40,
                "velocity": 80,
                "duration": 0.0841,
                "tempo": 120.0
            },
            {
                "pitch": 49,
                "velocity": 80,
                "duration": 0.1841,
                "tempo": 120.0
            },
            {
                "pitch": 50,
                "velocity": 80,
                "duration": 0.1864,
                "tempo": 120.0
            },
            {
                "pitch": 40,
                "velocity": 80,
                "duration": 0.1841,
                "tempo": 120.0
            },
            {
                "pitch": 40,
                "velocity": 80,
                "duration": 0.1841,
                "tempo": 120.0
            },
            {
                "pitch": 40,
                "velocity": 80,
                "duration": 0.1864,
                "tempo": 120.0
            },
            {
                "pitch": 40,
                "velocity": 80,
                "duration": 0.1841,
                "tempo": 120.0
            },
            {
                "pitch": 40,
                "velocity": 80,
                "duration": 0.1841,
                "tempo": 120.0
            },
            {
                "pitch": 40,
                "velocity": 80,
                "duration": 0.0841,
                "tempo": 120.0
            },
            {
                "pitch": 50,
                "velocity": 80,
                "duration": 0.1841,
                "tempo": 120.0
            },
            {
                "pitch": 49,
                "velocity": 80,
                "duration": 0.1841,
                "tempo": 120.0
            },
            {
                "pitch": 40,
                "velocity": 80,
                "duration": 0.1841,
                "tempo": 120.0
            },
            {
                "pitch": 40,
                "velocity": 80,
                "duration": 0.1841,
                "tempo": 120.0
            },
            {
                "pitch": 40,
                "velocity": 80,
                "duration": 0.1841,
                "tempo": 120.0
            },
            {
                "pitch": 40,
                "velocity": 80,
                "duration": 0.1864,
                "tempo": 120.0
            },
            {
                "pitch": 40,
                "velocity": 80,
                "duration": 0.1841,
                "tempo": 120.0
            },
            {
                "pitch": 40,
                "velocity": 80,
                "duration": 0.0841,
                "tempo": 120.0
            },
            {
                "pitch": 49,
                "velocity": 80,
                "duration": 0.1841,
                "tempo": 120.0
            },
            {
                "pitch": 50,
                "velocity": 80,
                "duration": 0.1864,
                "tempo": 120.0
            },
            {
                "pitch": 40,
                "velocity": 80,
                "duration": 0.1886,
                "tempo": 120.0
            },
            {
                "pitch": 40,
                "velocity": 80,
                "duration": 0.1886,
                "tempo": 120.0
            },
            {
                "pitch": 40,
                "velocity": 80,
                "duration": 0.1795,
                "tempo": 120.0
            },
            {
                "pitch": 40,
                "velocity": 80,
                "duration": 0.1818,
                "tempo": 120.0
            },
            {
                "pitch": 40,
                "velocity": 80,
                "duration": 0.1841,
                "tempo": 120.0
            },
            {
                "pitch": 40,
                "velocity": 80,
                "duration": 0.0841,
                "tempo": 120.0
            },
            {
                "pitch": 50,
                "velocity": 80,
                "duration": 0.1864,
                "tempo": 120.0
            },
            {
                "pitch": 49,
                "velocity": 80,
                "duration": 0.1841,
                "tempo": 120.0
            },
            {
                "pitch": 40,
                "velocity": 80,
                "duration": 0.1841,
                "tempo": 120.0
            },
            {
                "pitch": 40,
                "velocity": 80,
                "duration": 0.1841,
                "tempo": 120.0
            },
            {
                "pitch": 40,
                "velocity": 80,
                "duration": 0.1841,
                "tempo": 120.0
            },
            {
                "pitch": 40,
                "velocity": 80,
                "duration": 0.1841,
                "tempo": 120.0
            },
            {
                "pitch": 40,
                "velocity": 80,
                "duration": 0.1841,
                "tempo": 120.0
            },
            {
                "pitch": 40,
                "velocity": 80,
                "duration": 0.0841,
                "tempo": 120.0
            },
            {
                "pitch": 49,
                "velocity": 80,
                "duration": 0.1841,
                "tempo": 120.0
            },
            {
                "pitch": 50,
                "velocity": 80,
                "duration": 0.1841,
                "tempo": 120.0
            },
            {
                "pitch": 40,
                "velocity": 80,
                "duration": 0.1841,
                "tempo": 120.0
            },
            {
                "pitch": 40,
                "velocity": 80,
                "duration": 0.1841,
                "tempo": 120.0
            },
            {
                "pitch": 40,
                "velocity": 80,
                "duration": 0.1841,
                "tempo": 120.0
            },
            {
                "pitch": 40,
                "velocity": 80,
                "duration": 0.1841,
                "tempo": 120.0
            },
            {
                "pitch": 40,
                "velocity": 80,
                "duration": 0.1841,
                "tempo": 120.0
            },
            {
                "pitch": 40,
                "velocity": 80,
                "duration": 0.0841,
                "tempo": 120.0
            },
            {
                "pitch": 50,
                "velocity": 80,
                "duration": 0.1818,
                "tempo": 120.0
            },
            {
                "pitch": 49,
                "velocity": 80,
                "duration": 0.1818,
                "tempo": 120.0
            },
            {
                "pitch": 35,
                "velocity": 80,
                "duration": 0.1841,
                "tempo": 120.0
            },
            {
                "pitch": 35,
                "velocity": 80,
                "duration": 0.1841,
                "tempo": 120.0
            },
            {
                "pitch": 35,
                "velocity": 80,
                "duration": 0.1841,
                "tempo": 120.0
            },
            {
                "pitch": 35,
                "velocity": 80,
                "duration": 0.1841,
                "tempo": 120.0
            },
            {
                "pitch": 35,
                "velocity": 80,
                "duration": 0.1864,
                "tempo": 120.0
            },
            {
                "pitch": 35,
                "velocity": 80,
                "duration": 0.0841,
                "tempo": 120.0
            },
            {
                "pitch": 37,
                "velocity": 80,
                "duration": 0.1841,
                "tempo": 120.0
            },
            {
                "pitch": 38,
                "velocity": 80,
                "duration": 0.1841,
                "tempo": 120.0
            },
            {
                "pitch": 35,
                "velocity": 80,
                "duration": 0.1841,
                "tempo": 120.0
            },
            {
                "pitch": 35,
                "velocity": 80,
                "duration": 0.1841,
                "tempo": 120.0
            },
            {
                "pitch": 35,
                "velocity": 80,
                "duration": 0.1841,
                "tempo": 120.0
            },
            {
                "pitch": 35,
                "velocity": 80,
                "duration": 0.1864,
                "tempo": 120.0
            },
            {
                "pitch": 35,
                "velocity": 80,
                "duration": 0.1841,
                "tempo": 120.0
            },
            {
                "pitch": 35,
                "velocity": 80,
                "duration": 0.0841,
                "tempo": 120.0
            },
            {
                "pitch": 38,
                "velocity": 80,
                "duration": 0.1841,
                "tempo": 120.0
            },
            {
                "pitch": 37,
                "velocity": 80,
                "duration": 0.1864,
                "tempo": 120.0
            },
            {
                "pitch": 42,
                "velocity": 80,
                "duration": 0.1841,
                "tempo": 120.0
            },
            {
                "pitch": 42,
                "velocity": 80,
                "duration": 0.1841,
                "tempo": 120.0
            },
            {
                "pitch": 42,
                "velocity": 80,
                "duration": 0.1841,
                "tempo": 120.0
            },
            {
                "pitch": 42,
                "velocity": 80,
                "duration": 0.1841,
                "tempo": 120.0
            },
            {
                "pitch": 42,
                "velocity": 80,
                "duration": 0.1864,
                "tempo": 120.0
            },
            {
                "pitch": 42,
                "velocity": 80,
                "duration": 0.0841,
                "tempo": 120.0
            },
            {
                "pitch": 49,
                "velocity": 80,
                "duration": 0.1864,
                "tempo": 120.0
            },
            {
                "pitch": 50,
                "velocity": 80,
                "duration": 0.1841,
                "tempo": 120.0
            },
            {
                "pitch": 42,
                "velocity": 80,
                "duration": 0.1864,
                "tempo": 120.0
            },
            {
                "pitch": 42,
                "velocity": 80,
                "duration": 0.1841,
                "tempo": 120.0
            },
            {
                "pitch": 42,
                "velocity": 80,
                "duration": 0.1841,
                "tempo": 120.0
            },
            {
                "pitch": 42,
                "velocity": 80,
                "duration": 0.1841,
                "tempo": 120.0
            },
            {
                "pitch": 42,
                "velocity": 80,
                "duration": 0.1841,
                "tempo": 120.0
            },
            {
                "pitch": 42,
                "velocity": 80,
                "duration": 0.0841,
                "tempo": 120.0
            },
            {
                "pitch": 50,
                "velocity": 80,
                "duration": 0.1841,
                "tempo": 120.0
            },
            {
                "pitch": 49,
                "velocity": 80,
                "duration": 0.1864,
                "tempo": 120.0
            },
            {
                "pitch": 35,
                "velocity": 80,
                "duration": 0.1841,
                "tempo": 120.0
            },
            {
                "pitch": 35,
                "velocity": 80,
                "duration": 0.1841,
                "tempo": 120.0
            },
            {
                "pitch": 35,
                "velocity": 80,
                "duration": 0.1841,
                "tempo": 120.0
            },
            {
                "pitch": 35,
                "velocity": 80,
                "duration": 0.1841,
                "tempo": 120.0
            },
            {
                "pitch": 35,
                "velocity": 80,
                "duration": 0.1841,
                "tempo": 120.0
            },
            {
                "pitch": 35,
                "velocity": 80,
                "duration": 0.0841,
                "tempo": 120.0
            },
            {
                "pitch": 37,
                "velocity": 80,
                "duration": 0.1818,
                "tempo": 120.0
            },
            {
                "pitch": 38,
                "velocity": 80,
                "duration": 0.1818,
                "tempo": 120.0
            },
            {
                "pitch": 35,
                "velocity": 80,
                "duration": 0.1841,
                "tempo": 120.0
            },
            {
                "pitch": 35,
                "velocity": 80,
                "duration": 0.1841,
                "tempo": 120.0
            },
            {
                "pitch": 35,
                "velocity": 80,
                "duration": 0.1841,
                "tempo": 120.0
            },
            {
                "pitch": 35,
                "velocity": 80,
                "duration": 0.1841,
                "tempo": 120.0
            },
            {
                "pitch": 35,
                "velocity": 80,
                "duration": 0.1841,
                "tempo": 120.0
            },
            {
                "pitch": 35,
                "velocity": 80,
                "duration": 0.0841,
                "tempo": 120.0
            },
            {
                "pitch": 38,
                "velocity": 80,
                "duration": 0.1841,
                "tempo": 120.0
            },
            {
                "pitch": 37,
                "velocity": 80,
                "duration": 0.1841,
                "tempo": 120.0
            },
            {
                "pitch": 40,
                "velocity": 80,
                "duration": 0.1841,
                "tempo": 120.0
            },
            {
                "pitch": 40,
                "velocity": 80,
                "duration": 0.1841,
                "tempo": 120.0
            },
            {
                "pitch": 40,
                "velocity": 80,
                "duration": 0.1841,
                "tempo": 120.0
            },
            {
                "pitch": 40,
                "velocity": 80,
                "duration": 0.1841,
                "tempo": 120.0
            },
            {
                "pitch": 40,
                "velocity": 80,
                "duration": 0.1841,
                "tempo": 120.0
            },
            {
                "pitch": 40,
                "velocity": 80,
                "duration": 0.0841,
                "tempo": 120.0
            },
            {
                "pitch": 49,
                "velocity": 80,
                "duration": 0.1841,
                "tempo": 120.0
            },
            {
                "pitch": 50,
                "velocity": 80,
                "duration": 0.1841,
                "tempo": 120.0
            },
            {
                "pitch": 47,
                "velocity": 80,
                "duration": 0.1182,
                "tempo": 120.0
            },
            {
                "pitch": 59,
                "velocity": 80,
                "duration": 0.1182,
                "tempo": 120.0
            },
            {
                "pitch": 45,
                "velocity": 80,
                "duration": 0.1159,
                "tempo": 120.0
            },
            {
                "pitch": 57,
                "velocity": 80,
                "duration": 0.1159,
                "tempo": 120.0
            },
            {
                "pitch": 44,
                "velocity": 80,
                "duration": 0.1205,
                "tempo": 120.0
            },
            {
                "pitch": 56,
                "velocity": 80,
                "duration": 0.1205,
                "tempo": 120.0
            },
            {
                "pitch": 42,
                "velocity": 80,
                "duration": 0.1136,
                "tempo": 120.0
            },
            {
                "pitch": 54,
                "velocity": 80,
                "duration": 0.1136,
                "tempo": 120.0
            },
            {
                "pitch": 64,
                "velocity": 64,
                "duration": 0.1182,
                "tempo": 120.0
            },
            {
                "pitch": 64,
                "velocity": 64,
                "duration": 0.1205,
                "tempo": 120.0
            },
            {
                "pitch": 66,
                "velocity": 64,
                "duration": 0.1159,
                "tempo": 120.0
            },
            {
                "pitch": 64,
                "velocity": 64,
                "duration": 0.1136,
                "tempo": 120.0
            },
            {
                "pitch": 62,
                "velocity": 64,
                "duration": 0.1182,
                "tempo": 120.0
            },
            {
                "pitch": 62,
                "velocity": 64,
                "duration": 0.1159,
                "tempo": 120.0
            },
            {
                "pitch": 61,
                "velocity": 64,
                "duration": 0.1136,
                "tempo": 120.0
            },
            {
                "pitch": 62,
                "velocity": 64,
                "duration": 0.1159,
                "tempo": 120.0
            },
            {
                "pitch": 64,
                "velocity": 64,
                "duration": 0.1159,
                "tempo": 120.0
            },
            {
                "pitch": 64,
                "velocity": 64,
                "duration": 0.1159,
                "tempo": 120.0
            },
            {
                "pitch": 66,
                "velocity": 64,
                "duration": 0.1182,
                "tempo": 120.0
            },
            {
                "pitch": 64,
                "velocity": 64,
                "duration": 0.1159,
                "tempo": 120.0
            },
            {
                "pitch": 62,
                "velocity": 64,
                "duration": 0.1182,
                "tempo": 120.0
            },
            {
                "pitch": 62,
                "velocity": 64,
                "duration": 0.1182,
                "tempo": 120.0
            },
            {
                "pitch": 61,
                "velocity": 64,
                "duration": 0.1159,
                "tempo": 120.0
            },
            {
                "pitch": 62,
                "velocity": 64,
                "duration": 0.1182,
                "tempo": 120.0
            },
            {
                "pitch": 64,
                "velocity": 64,
                "duration": 0.1182,
                "tempo": 120.0
            },
            {
                "pitch": 64,
                "velocity": 64,
                "duration": 0.1159,
                "tempo": 120.0
            },
            {
                "pitch": 64,
                "velocity": 64,
                "duration": 0.1159,
                "tempo": 120.0
            },
            {
                "pitch": 66,
                "velocity": 64,
                "duration": 0.1182,
                "tempo": 120.0
            },
            {
                "pitch": 64,
                "velocity": 64,
                "duration": 0.1182,
                "tempo": 120.0
            },
            {
                "pitch": 62,
                "velocity": 64,
                "duration": 0.1182,
                "tempo": 120.0
            },
            {
                "pitch": 62,
                "velocity": 64,
                "duration": 0.1182,
                "tempo": 120.0
            },
            {
                "pitch": 62,
                "velocity": 64,
                "duration": 0.1159,
                "tempo": 120.0
            },
            {
                "pitch": 61,
                "velocity": 64,
                "duration": 0.1182,
                "tempo": 120.0
            },
            {
                "pitch": 62,
                "velocity": 64,
                "duration": 0.1182,
                "tempo": 120.0
            },
            {
                "pitch": 64,
                "velocity": 64,
                "duration": 0.1182,
                "tempo": 120.0
            },
            {
                "pitch": 64,
                "velocity": 64,
                "duration": 0.1159,
                "tempo": 120.0
            },
            {
                "pitch": 64,
                "velocity": 64,
                "duration": 0.1182,
                "tempo": 120.0
            },
            {
                "pitch": 66,
                "velocity": 64,
                "duration": 0.1159,
                "tempo": 120.0
            },
            {
                "pitch": 64,
                "velocity": 64,
                "duration": 0.1159,
                "tempo": 120.0
            },
            {
                "pitch": 62,
                "velocity": 64,
                "duration": 0.1159,
                "tempo": 120.0
            },
            {
                "pitch": 40,
                "velocity": 64,
                "duration": 0.1023,
                "tempo": 120.0
            }
        ],
        "Clarinet": [
            {
                "pitch": 56,
                "velocity": 64,
                "duration": 1.5932,
                "tempo": 120.0
            },
            {
                "pitch": 56,
                "velocity": 64,
                "duration": 1.5932,
                "tempo": 120.0
            },
            {
                "pitch": 56,
                "velocity": 64,
                "duration": 1.5841,
                "tempo": 120.0
            },
            {
                "pitch": 56,
                "velocity": 64,
                "duration": 1.5886,
                "tempo": 120.0
            },
            {
                "pitch": 56,
                "velocity": 64,
                "duration": 1.1864,
                "tempo": 120.0
            },
            {
                "pitch": 55,
                "velocity": 64,
                "duration": 0.3864,
                "tempo": 120.0
            },
            {
                "pitch": 52,
                "velocity": 64,
                "duration": 1.1841,
                "tempo": 120.0
            },
            {
                "pitch": 57,
                "velocity": 64,
                "duration": 0.3818,
                "tempo": 120.0
            },
            {
                "pitch": 52,
                "velocity": 64,
                "duration": 1.1864,
                "tempo": 120.0
            },
            {
                "pitch": 51,
                "velocity": 64,
                "duration": 0.3864,
                "tempo": 120.0
            },
            {
                "pitch": 57,
                "velocity": 64,
                "duration": 0.7864,
                "tempo": 120.0
            },
            {
                "pitch": 56,
                "velocity": 64,
                "duration": 0.3841,
                "tempo": 120.0
            },
            {
                "pitch": 54,
                "velocity": 64,
                "duration": 0.3841,
                "tempo": 120.0
            },
            {
                "pitch": 59,
                "velocity": 64,
                "duration": 1.5886,
                "tempo": 120.0
            },
            {
                "pitch": 56,
                "velocity": 64,
                "duration": 1.5886,
                "tempo": 120.0
            },
            {
                "pitch": 52,
                "velocity": 64,
                "duration": 1.5864,
                "tempo": 120.0
            },
            {
                "pitch": 54,
                "velocity": 64,
                "duration": 1.5886,
                "tempo": 120.0
            },
            {
                "pitch": 56,
                "velocity": 64,
                "duration": 1.1864,
                "tempo": 120.0
            },
            {
                "pitch": 55,
                "velocity": 64,
                "duration": 0.3818,
                "tempo": 120.0
            },
            {
                "pitch": 55,
                "velocity": 64,
                "duration": 1.1864,
                "tempo": 120.0
            },
            {
                "pitch": 57,
                "velocity": 64,
                "duration": 0.3841,
                "tempo": 120.0
            },
            {
                "pitch": 56,
                "velocity": 64,
                "duration": 1.5864,
                "tempo": 120.0
            },
            {
                "pitch": 57,
                "velocity": 64,
                "duration": 0.7841,
                "tempo": 120.0
            },
            {
                "pitch": 56,
                "velocity": 64,
                "duration": 0.3841,
                "tempo": 120.0
            },
            {
                "pitch": 54,
                "velocity": 64,
                "duration": 0.3864,
                "tempo": 120.0
            }
        ],
        "Vibraphone": [
            {
                "pitch": 76,
                "velocity": 64,
                "duration": 0.0659,
                "tempo": 120.0
            },
            {
                "pitch": 78,
                "velocity": 64,
                "duration": 0.0682,
                "tempo": 120.0
            },
            {
                "pitch": 80,
                "velocity": 64,
                "duration": 0.0682,
                "tempo": 120.0
            },
            {
                "pitch": 83,
                "velocity": 64,
                "duration": 1.3864,
                "tempo": 120.0
            },
            {
                "pitch": 76,
                "velocity": 64,
                "duration": 0.0682,
                "tempo": 120.0
            },
            {
                "pitch": 78,
                "velocity": 64,
                "duration": 0.0659,
                "tempo": 120.0
            },
            {
                "pitch": 81,
                "velocity": 64,
                "duration": 1.4591,
                "tempo": 120.0
            },
            {
                "pitch": 76,
                "velocity": 64,
                "duration": 0.0682,
                "tempo": 120.0
            },
            {
                "pitch": 78,
                "velocity": 64,
                "duration": 0.0659,
                "tempo": 120.0
            },
            {
                "pitch": 81,
                "velocity": 64,
                "duration": 1.4591,
                "tempo": 120.0
            },
            {
                "pitch": 76,
                "velocity": 64,
                "duration": 0.0659,
                "tempo": 120.0
            },
            {
                "pitch": 78,
                "velocity": 64,
                "duration": 0.0682,
                "tempo": 120.0
            },
            {
                "pitch": 80,
                "velocity": 64,
                "duration": 0.0659,
                "tempo": 120.0
            },
            {
                "pitch": 83,
                "velocity": 64,
                "duration": 0.7864,
                "tempo": 120.0
            },
            {
                "pitch": 68,
                "velocity": 80,
                "duration": 1.9955,
                "tempo": 120.0
            },
            {
                "pitch": 63,
                "velocity": 80,
                "duration": 0.3864,
                "tempo": 120.0
            },
            {
                "pitch": 64,
                "velocity": 80,
                "duration": 0.3864,
                "tempo": 120.0
            },
            {
                "pitch": 66,
                "velocity": 80,
                "duration": 0.3864,
                "tempo": 120.0
            },
            {
                "pitch": 64,
                "velocity": 80,
                "duration": 1.9886,
                "tempo": 120.0
            },
            {
                "pitch": 64,
                "velocity": 80,
                "duration": 0.3841,
                "tempo": 120.0
            },
            {
                "pitch": 66,
                "velocity": 80,
                "duration": 0.3864,
                "tempo": 120.0
            },
            {
                "pitch": 68,
                "velocity": 80,
                "duration": 0.3841,
                "tempo": 120.0
            },
            {
                "pitch": 69,
                "velocity": 80,
                "duration": 1.5886,
                "tempo": 120.0
            },
            {
                "pitch": 60,
                "velocity": 80,
                "duration": 1.5841,
                "tempo": 120.0
            },
            {
                "pitch": 64,
                "velocity": 80,
                "duration": 1.5886,
                "tempo": 120.0
            },
            {
                "pitch": 63,
                "velocity": 80,
                "duration": 1.5864,
                "tempo": 120.0
            },
            {
                "pitch": 68,
                "velocity": 80,
                "duration": 1.9886,
                "tempo": 120.0
            },
            {
                "pitch": 68,
                "velocity": 80,
                "duration": 0.3841,
                "tempo": 120.0
            },
            {
                "pitch": 69,
                "velocity": 80,
                "duration": 0.3818,
                "tempo": 120.0
            },
            {
                "pitch": 71,
                "velocity": 80,
                "duration": 0.3864,
                "tempo": 120.0
            },
            {
                "pitch": 68,
                "velocity": 80,
                "duration": 1.9886,
                "tempo": 120.0
            },
            {
                "pitch": 68,
                "velocity": 80,
                "duration": 0.3841,
                "tempo": 120.0
            },
            {
                "pitch": 69,
                "velocity": 80,
                "duration": 0.3841,
                "tempo": 120.0
            },
            {
                "pitch": 71,
                "velocity": 80,
                "duration": 0.3864,
                "tempo": 120.0
            },
            {
                "pitch": 68,
                "velocity": 80,
                "duration": 1.5864,
                "tempo": 120.0
            },
            {
                "pitch": 60,
                "velocity": 80,
                "duration": 1.5864,
                "tempo": 120.0
            },
            {
                "pitch": 71,
                "velocity": 80,
                "duration": 2.3864,
                "tempo": 120.0
            },
            {
                "pitch": 71,
                "velocity": 80,
                "duration": 0.3841,
                "tempo": 120.0
            },
            {
                "pitch": 69,
                "velocity": 80,
                "duration": 0.3864,
                "tempo": 120.0
            },
            {
                "pitch": 76,
                "velocity": 64,
                "duration": 0.0682,
                "tempo": 120.0
            },
            {
                "pitch": 78,
                "velocity": 64,
                "duration": 0.0659,
                "tempo": 120.0
            },
            {
                "pitch": 80,
                "velocity": 64,
                "duration": 0.0659,
                "tempo": 120.0
            },
            {
                "pitch": 83,
                "velocity": 64,
                "duration": 1.3864,
                "tempo": 120.0
            },
            {
                "pitch": 76,
                "velocity": 64,
                "duration": 0.0682,
                "tempo": 120.0
            },
            {
                "pitch": 78,
                "velocity": 64,
                "duration": 0.0659,
                "tempo": 120.0
            },
            {
                "pitch": 81,
                "velocity": 64,
                "duration": 1.4523,
                "tempo": 120.0
            },
            {
                "pitch": 76,
                "velocity": 64,
                "duration": 0.0659,
                "tempo": 120.0
            },
            {
                "pitch": 78,
                "velocity": 64,
                "duration": 0.0659,
                "tempo": 120.0
            },
            {
                "pitch": 81,
                "velocity": 64,
                "duration": 1.4523,
                "tempo": 120.0
            },
            {
                "pitch": 76,
                "velocity": 64,
                "duration": 0.0682,
                "tempo": 120.0
            },
            {
                "pitch": 78,
                "velocity": 64,
                "duration": 0.0659,
                "tempo": 120.0
            },
            {
                "pitch": 80,
                "velocity": 64,
                "duration": 0.0682,
                "tempo": 120.0
            },
            {
                "pitch": 83,
                "velocity": 64,
                "duration": 0.7818,
                "tempo": 120.0
            }
        ],
        "Violin": [
            {
                "pitch": 50,
                "velocity": 51,
                "duration": 0.0159,
                "tempo": 120.0
            },
            {
                "pitch": 80,
                "velocity": 51,
                "duration": 1.5932,
                "tempo": 120.0
            },
            {
                "pitch": 81,
                "velocity": 51,
                "duration": 1.5909,
                "tempo": 120.0
            },
            {
                "pitch": 81,
                "velocity": 51,
                "duration": 1.5864,
                "tempo": 120.0
            },
            {
                "pitch": 80,
                "velocity": 51,
                "duration": 1.5818,
                "tempo": 120.0
            },
            {
                "pitch": 80,
                "velocity": 51,
                "duration": 1.5864,
                "tempo": 120.0
            },
            {
                "pitch": 81,
                "velocity": 51,
                "duration": 1.5909,
                "tempo": 120.0
            },
            {
                "pitch": 81,
                "velocity": 51,
                "duration": 1.5909,
                "tempo": 120.0
            },
            {
                "pitch": 80,
                "velocity": 51,
                "duration": 1.5909,
                "tempo": 120.0
            },
            {
                "pitch": 78,
                "velocity": 51,
                "duration": 0.5864,
                "tempo": 120.0
            },
            {
                "pitch": 76,
                "velocity": 51,
                "duration": 0.5886,
                "tempo": 120.0
            },
            {
                "pitch": 71,
                "velocity": 51,
                "duration": 1.9955,
                "tempo": 120.0
            },
            {
                "pitch": 78,
                "velocity": 51,
                "duration": 0.5841,
                "tempo": 120.0
            },
            {
                "pitch": 76,
                "velocity": 51,
                "duration": 0.5841,
                "tempo": 120.0
            },
            {
                "pitch": 71,
                "velocity": 51,
                "duration": 1.9886,
                "tempo": 120.0
            },
            {
                "pitch": 78,
                "velocity": 51,
                "duration": 0.5864,
                "tempo": 120.0
            },
            {
                "pitch": 76,
                "velocity": 51,
                "duration": 0.5841,
                "tempo": 120.0
            },
            {
                "pitch": 81,
                "velocity": 51,
                "duration": 0.7864,
                "tempo": 120.0
            },
            {
                "pitch": 81,
                "velocity": 51,
                "duration": 0.3841,
                "tempo": 120.0
            },
            {
                "pitch": 76,
                "velocity": 51,
                "duration": 0.3864,
                "tempo": 120.0
            },
            {
                "pitch": 78,
                "velocity": 51,
                "duration": 0.3841,
                "tempo": 120.0
            },
            {
                "pitch": 80,
                "velocity": 51,
                "duration": 1.3864,
                "tempo": 120.0
            },
            {
                "pitch": 78,
                "velocity": 51,
                "duration": 1.7864,
                "tempo": 120.0
            },
            {
                "pitch": 78,
                "velocity": 51,
                "duration": 0.5841,
                "tempo": 120.0
            },
            {
                "pitch": 76,
                "velocity": 51,
                "duration": 0.5864,
                "tempo": 120.0
            },
            {
                "pitch": 71,
                "velocity": 51,
                "duration": 0.5841,
                "tempo": 120.0
            },
            {
                "pitch": 71,
                "velocity": 51,
                "duration": 0.1841,
                "tempo": 120.0
            },
            {
                "pitch": 76,
                "velocity": 51,
                "duration": 0.1841,
                "tempo": 120.0
            },
            {
                "pitch": 78,
                "velocity": 51,
                "duration": 0.1841,
                "tempo": 120.0
            },
            {
                "pitch": 81,
                "velocity": 51,
                "duration": 0.1841,
                "tempo": 120.0
            },
            {
                "pitch": 80,
                "velocity": 51,
                "duration": 0.1841,
                "tempo": 120.0
            },
            {
                "pitch": 78,
                "velocity": 51,
                "duration": 0.1841,
                "tempo": 120.0
            },
            {
                "pitch": 76,
                "velocity": 51,
                "duration": 0.1841,
                "tempo": 120.0
            },
            {
                "pitch": 78,
                "velocity": 51,
                "duration": 0.5841,
                "tempo": 120.0
            },
            {
                "pitch": 76,
                "velocity": 51,
                "duration": 0.5864,
                "tempo": 120.0
            },
            {
                "pitch": 71,
                "velocity": 51,
                "duration": 0.5864,
                "tempo": 120.0
            },
            {
                "pitch": 71,
                "velocity": 51,
                "duration": 0.1841,
                "tempo": 120.0
            },
            {
                "pitch": 76,
                "velocity": 51,
                "duration": 0.1818,
                "tempo": 120.0
            },
            {
                "pitch": 78,
                "velocity": 51,
                "duration": 0.1818,
                "tempo": 120.0
            },
            {
                "pitch": 81,
                "velocity": 51,
                "duration": 0.1818,
                "tempo": 120.0
            },
            {
                "pitch": 80,
                "velocity": 51,
                "duration": 0.1818,
                "tempo": 120.0
            },
            {
                "pitch": 78,
                "velocity": 51,
                "duration": 0.1841,
                "tempo": 120.0
            },
            {
                "pitch": 76,
                "velocity": 51,
                "duration": 0.1841,
                "tempo": 120.0
            },
            {
                "pitch": 71,
                "velocity": 51,
                "duration": 0.1864,
                "tempo": 120.0
            },
            {
                "pitch": 76,
                "velocity": 51,
                "duration": 0.1841,
                "tempo": 120.0
            },
            {
                "pitch": 78,
                "velocity": 51,
                "duration": 0.1841,
                "tempo": 120.0
            },
            {
                "pitch": 81,
                "velocity": 51,
                "duration": 0.1841,
                "tempo": 120.0
            },
            {
                "pitch": 80,
                "velocity": 51,
                "duration": 0.1841,
                "tempo": 120.0
            },
            {
                "pitch": 78,
                "velocity": 51,
                "duration": 0.1841,
                "tempo": 120.0
            },
            {
                "pitch": 76,
                "velocity": 51,
                "duration": 0.1841,
                "tempo": 120.0
            },
            {
                "pitch": 71,
                "velocity": 51,
                "duration": 0.1841,
                "tempo": 120.0
            },
            {
                "pitch": 76,
                "velocity": 51,
                "duration": 0.1841,
                "tempo": 120.0
            },
            {
                "pitch": 78,
                "velocity": 51,
                "duration": 0.1841,
                "tempo": 120.0
            },
            {
                "pitch": 81,
                "velocity": 51,
                "duration": 0.1841,
                "tempo": 120.0
            },
            {
                "pitch": 83,
                "velocity": 51,
                "duration": 0.1841,
                "tempo": 120.0
            },
            {
                "pitch": 88,
                "velocity": 51,
                "duration": 0.1841,
                "tempo": 120.0
            },
            {
                "pitch": 93,
                "velocity": 51,
                "duration": 0.1841,
                "tempo": 120.0
            },
            {
                "pitch": 92,
                "velocity": 51,
                "duration": 0.0841,
                "tempo": 120.0
            },
            {
                "pitch": 88,
                "velocity": 51,
                "duration": 0.0841,
                "tempo": 120.0
            },
            {
                "pitch": 83,
                "velocity": 51,
                "duration": 0.0841,
                "tempo": 120.0
            },
            {
                "pitch": 92,
                "velocity": 51,
                "duration": 0.0841,
                "tempo": 120.0
            },
            {
                "pitch": 88,
                "velocity": 51,
                "duration": 0.0864,
                "tempo": 120.0
            },
            {
                "pitch": 83,
                "velocity": 51,
                "duration": 0.0864,
                "tempo": 120.0
            },
            {
                "pitch": 92,
                "velocity": 51,
                "duration": 0.0841,
                "tempo": 120.0
            },
            {
                "pitch": 88,
                "velocity": 51,
                "duration": 0.0864,
                "tempo": 120.0
            },
            {
                "pitch": 83,
                "velocity": 51,
                "duration": 0.0841,
                "tempo": 120.0
            },
            {
                "pitch": 92,
                "velocity": 51,
                "duration": 0.0841,
                "tempo": 120.0
            },
            {
                "pitch": 88,
                "velocity": 51,
                "duration": 0.0841,
                "tempo": 120.0
            },
            {
                "pitch": 83,
                "velocity": 51,
                "duration": 0.0841,
                "tempo": 120.0
            },
            {
                "pitch": 92,
                "velocity": 51,
                "duration": 0.0818,
                "tempo": 120.0
            },
            {
                "pitch": 88,
                "velocity": 51,
                "duration": 0.0818,
                "tempo": 120.0
            },
            {
                "pitch": 83,
                "velocity": 51,
                "duration": 0.0818,
                "tempo": 120.0
            },
            {
                "pitch": 92,
                "velocity": 51,
                "duration": 0.0818,
                "tempo": 120.0
            },
            {
                "pitch": 90,
                "velocity": 51,
                "duration": 0.0818,
                "tempo": 120.0
            },
            {
                "pitch": 87,
                "velocity": 51,
                "duration": 0.0818,
                "tempo": 120.0
            },
            {
                "pitch": 83,
                "velocity": 51,
                "duration": 0.0818,
                "tempo": 120.0
            },
            {
                "pitch": 90,
                "velocity": 51,
                "duration": 0.0818,
                "tempo": 120.0
            },
            {
                "pitch": 87,
                "velocity": 51,
                "duration": 0.0818,
                "tempo": 120.0
            },
            {
                "pitch": 83,
                "velocity": 51,
                "duration": 0.0818,
                "tempo": 120.0
            },
            {
                "pitch": 90,
                "velocity": 51,
                "duration": 0.0818,
                "tempo": 120.0
            },
            {
                "pitch": 87,
                "velocity": 51,
                "duration": 0.0818,
                "tempo": 120.0
            },
            {
                "pitch": 83,
                "velocity": 51,
                "duration": 0.0818,
                "tempo": 120.0
            },
            {
                "pitch": 90,
                "velocity": 51,
                "duration": 0.0818,
                "tempo": 120.0
            },
            {
                "pitch": 87,
                "velocity": 51,
                "duration": 0.0818,
                "tempo": 120.0
            },
            {
                "pitch": 83,
                "velocity": 51,
                "duration": 0.0818,
                "tempo": 120.0
            },
            {
                "pitch": 90,
                "velocity": 51,
                "duration": 0.0841,
                "tempo": 120.0
            },
            {
                "pitch": 87,
                "velocity": 51,
                "duration": 0.0841,
                "tempo": 120.0
            },
            {
                "pitch": 83,
                "velocity": 51,
                "duration": 0.0841,
                "tempo": 120.0
            },
            {
                "pitch": 81,
                "velocity": 51,
                "duration": 0.0841,
                "tempo": 120.0
            },
            {
                "pitch": 92,
                "velocity": 51,
                "duration": 1.3909,
                "tempo": 120.0
            },
            {
                "pitch": 93,
                "velocity": 51,
                "duration": 1.5932,
                "tempo": 120.0
            },
            {
                "pitch": 93,
                "velocity": 51,
                "duration": 1.5864,
                "tempo": 120.0
            },
            {
                "pitch": 92,
                "velocity": 51,
                "duration": 1.5727,
                "tempo": 120.0
            },
            {
                "pitch": 80,
                "velocity": 51,
                "duration": 1.5909,
                "tempo": 120.0
            },
            {
                "pitch": 81,
                "velocity": 51,
                "duration": 1.5841,
                "tempo": 120.0
            },
            {
                "pitch": 81,
                "velocity": 51,
                "duration": 1.5864,
                "tempo": 120.0
            },
            {
                "pitch": 80,
                "velocity": 51,
                "duration": 1.5864,
                "tempo": 120.0
            },
            {
                "pitch": 78,
                "velocity": 51,
                "duration": 0.7841,
                "tempo": 120.0
            },
            {
                "pitch": 80,
                "velocity": 51,
                "duration": 1.7864,
                "tempo": 120.0
            },
            {
                "pitch": 81,
                "velocity": 51,
                "duration": 0.25,
                "tempo": 120.0
            },
            {
                "pitch": 83,
                "velocity": 51,
                "duration": 0.25,
                "tempo": 120.0
            },
            {
                "pitch": 88,
                "velocity": 51,
                "duration": 0.2523,
                "tempo": 120.0
            },
            {
                "pitch": 83,
                "velocity": 51,
                "duration": 0.5841,
                "tempo": 120.0
            },
            {
                "pitch": 81,
                "velocity": 51,
                "duration": 0.0841,
                "tempo": 120.0
            },
            {
                "pitch": 80,
                "velocity": 51,
                "duration": 0.0841,
                "tempo": 120.0
            },
            {
                "pitch": 81,
                "velocity": 51,
                "duration": 2.3864,
                "tempo": 120.0
            },
            {
                "pitch": 75,
                "velocity": 51,
                "duration": 0.5841,
                "tempo": 120.0
            },
            {
                "pitch": 81,
                "velocity": 51,
                "duration": 1.7864,
                "tempo": 120.0
            },
            {
                "pitch": 73,
                "velocity": 51,
                "duration": 0.2523,
                "tempo": 120.0
            },
            {
                "pitch": 75,
                "velocity": 51,
                "duration": 0.25,
                "tempo": 120.0
            },
            {
                "pitch": 81,
                "velocity": 51,
                "duration": 0.25,
                "tempo": 120.0
            },
            {
                "pitch": 81,
                "velocity": 51,
                "duration": 0.5841,
                "tempo": 120.0
            },
            {
                "pitch": 80,
                "velocity": 51,
                "duration": 0.0841,
                "tempo": 120.0
            },
            {
                "pitch": 78,
                "velocity": 51,
                "duration": 0.0841,
                "tempo": 120.0
            },
            {
                "pitch": 80,
                "velocity": 51,
                "duration": 1.7864,
                "tempo": 120.0
            },
            {
                "pitch": 78,
                "velocity": 51,
                "duration": 0.3841,
                "tempo": 120.0
            },
            {
                "pitch": 76,
                "velocity": 51,
                "duration": 1.1886,
                "tempo": 120.0
            },
            {
                "pitch": 69,
                "velocity": 51,
                "duration": 0.1841,
                "tempo": 120.0
            },
            {
                "pitch": 71,
                "velocity": 51,
                "duration": 0.1841,
                "tempo": 120.0
            },
            {
                "pitch": 76,
                "velocity": 51,
                "duration": 0.1841,
                "tempo": 120.0
            },
            {
                "pitch": 81,
                "velocity": 51,
                "duration": 0.5841,
                "tempo": 120.0
            },
            {
                "pitch": 80,
                "velocity": 51,
                "duration": 0.5864,
                "tempo": 120.0
            },
            {
                "pitch": 78,
                "velocity": 51,
                "duration": 0.3864,
                "tempo": 120.0
            },
            {
                "pitch": 76,
                "velocity": 51,
                "duration": 0.9886,
                "tempo": 120.0
            },
            {
                "pitch": 68,
                "velocity": 51,
                "duration": 0.1841,
                "tempo": 120.0
            },
            {
                "pitch": 71,
                "velocity": 51,
                "duration": 0.1841,
                "tempo": 120.0
            },
            {
                "pitch": 76,
                "velocity": 51,
                "duration": 0.1841,
                "tempo": 120.0
            },
            {
                "pitch": 81,
                "velocity": 51,
                "duration": 0.5864,
                "tempo": 120.0
            },
            {
                "pitch": 80,
                "velocity": 51,
                "duration": 0.5864,
                "tempo": 120.0
            },
            {
                "pitch": 78,
                "velocity": 51,
                "duration": 0.3864,
                "tempo": 120.0
            },
            {
                "pitch": 76,
                "velocity": 51,
                "duration": 0.9864,
                "tempo": 120.0
            },
            {
                "pitch": 66,
                "velocity": 51,
                "duration": 0.1841,
                "tempo": 120.0
            },
            {
                "pitch": 69,
                "velocity": 51,
                "duration": 0.1841,
                "tempo": 120.0
            },
            {
                "pitch": 71,
                "velocity": 51,
                "duration": 0.1841,
                "tempo": 120.0
            },
            {
                "pitch": 76,
                "velocity": 51,
                "duration": 0.1864,
                "tempo": 120.0
            },
            {
                "pitch": 78,
                "velocity": 51,
                "duration": 0.1841,
                "tempo": 120.0
            },
            {
                "pitch": 81,
                "velocity": 51,
                "duration": 0.1818,
                "tempo": 120.0
            },
            {
                "pitch": 83,
                "velocity": 51,
                "duration": 0.1818,
                "tempo": 120.0
            },
            {
                "pitch": 88,
                "velocity": 51,
                "duration": 0.1841,
                "tempo": 120.0
            },
            {
                "pitch": 90,
                "velocity": 51,
                "duration": 0.1841,
                "tempo": 120.0
            },
            {
                "pitch": 93,
                "velocity": 51,
                "duration": 0.1841,
                "tempo": 120.0
            },
            {
                "pitch": 95,
                "velocity": 51,
                "duration": 0.1864,
                "tempo": 120.0
            },
            {
                "pitch": 88,
                "velocity": 51,
                "duration": 0.0841,
                "tempo": 120.0
            },
            {
                "pitch": 90,
                "velocity": 51,
                "duration": 0.0841,
                "tempo": 120.0
            },
            {
                "pitch": 93,
                "velocity": 51,
                "duration": 0.0841,
                "tempo": 120.0
            },
            {
                "pitch": 95,
                "velocity": 51,
                "duration": 0.0841,
                "tempo": 120.0
            },
            {
                "pitch": 88,
                "velocity": 51,
                "duration": 0.0841,
                "tempo": 120.0
            },
            {
                "pitch": 90,
                "velocity": 51,
                "duration": 0.0841,
                "tempo": 120.0
            },
            {
                "pitch": 93,
                "velocity": 51,
                "duration": 0.0818,
                "tempo": 120.0
            },
            {
                "pitch": 95,
                "velocity": 51,
                "duration": 0.0841,
                "tempo": 120.0
            },
            {
                "pitch": 88,
                "velocity": 51,
                "duration": 0.0841,
                "tempo": 120.0
            },
            {
                "pitch": 90,
                "velocity": 51,
                "duration": 0.0841,
                "tempo": 120.0
            },
            {
                "pitch": 93,
                "velocity": 51,
                "duration": 0.0841,
                "tempo": 120.0
            },
            {
                "pitch": 95,
                "velocity": 51,
                "duration": 0.0841,
                "tempo": 120.0
            },
            {
                "pitch": 88,
                "velocity": 51,
                "duration": 0.0841,
                "tempo": 120.0
            },
            {
                "pitch": 90,
                "velocity": 51,
                "duration": 0.0841,
                "tempo": 120.0
            },
            {
                "pitch": 93,
                "velocity": 51,
                "duration": 0.0841,
                "tempo": 120.0
            },
            {
                "pitch": 95,
                "velocity": 51,
                "duration": 0.0841,
                "tempo": 120.0
            },
            {
                "pitch": 87,
                "velocity": 51,
                "duration": 0.0841,
                "tempo": 120.0
            },
            {
                "pitch": 90,
                "velocity": 51,
                "duration": 0.0841,
                "tempo": 120.0
            },
            {
                "pitch": 93,
                "velocity": 51,
                "duration": 0.0841,
                "tempo": 120.0
            },
            {
                "pitch": 95,
                "velocity": 51,
                "duration": 0.0841,
                "tempo": 120.0
            },
            {
                "pitch": 87,
                "velocity": 51,
                "duration": 0.0841,
                "tempo": 120.0
            },
            {
                "pitch": 90,
                "velocity": 51,
                "duration": 0.0841,
                "tempo": 120.0
            },
            {
                "pitch": 93,
                "velocity": 51,
                "duration": 0.0841,
                "tempo": 120.0
            },
            {
                "pitch": 95,
                "velocity": 51,
                "duration": 0.0841,
                "tempo": 120.0
            },
            {
                "pitch": 87,
                "velocity": 51,
                "duration": 0.0818,
                "tempo": 120.0
            },
            {
                "pitch": 90,
                "velocity": 51,
                "duration": 0.0841,
                "tempo": 120.0
            },
            {
                "pitch": 93,
                "velocity": 51,
                "duration": 0.0841,
                "tempo": 120.0
            },
            {
                "pitch": 95,
                "velocity": 51,
                "duration": 0.0841,
                "tempo": 120.0
            },
            {
                "pitch": 87,
                "velocity": 51,
                "duration": 0.0818,
                "tempo": 120.0
            },
            {
                "pitch": 90,
                "velocity": 51,
                "duration": 0.0818,
                "tempo": 120.0
            },
            {
                "pitch": 93,
                "velocity": 51,
                "duration": 0.0818,
                "tempo": 120.0
            },
            {
                "pitch": 95,
                "velocity": 51,
                "duration": 0.0818,
                "tempo": 120.0
            },
            {
                "pitch": 88,
                "velocity": 51,
                "duration": 1.3977,
                "tempo": 120.0
            },
            {
                "pitch": 90,
                "velocity": 51,
                "duration": 0.0841,
                "tempo": 120.0
            },
            {
                "pitch": 92,
                "velocity": 51,
                "duration": 0.0841,
                "tempo": 120.0
            },
            {
                "pitch": 93,
                "velocity": 51,
                "duration": 1.3886,
                "tempo": 120.0
            },
            {
                "pitch": 92,
                "velocity": 51,
                "duration": 0.1864,
                "tempo": 120.0
            },
            {
                "pitch": 90,
                "velocity": 51,
                "duration": 1.3886,
                "tempo": 120.0
            },
            {
                "pitch": 88,
                "velocity": 51,
                "duration": 1.7909,
                "tempo": 120.0
            },
            {
                "pitch": 88,
                "velocity": 51,
                "duration": 1.3886,
                "tempo": 120.0
            },
            {
                "pitch": 90,
                "velocity": 51,
                "duration": 0.0841,
                "tempo": 120.0
            },
            {
                "pitch": 92,
                "velocity": 51,
                "duration": 0.0841,
                "tempo": 120.0
            },
            {
                "pitch": 93,
                "velocity": 51,
                "duration": 1.3909,
                "tempo": 120.0
            },
            {
                "pitch": 92,
                "velocity": 51,
                "duration": 0.1841,
                "tempo": 120.0
            },
            {
                "pitch": 90,
                "velocity": 51,
                "duration": 1.3864,
                "tempo": 120.0
            },
            {
                "pitch": 88,
                "velocity": 51,
                "duration": 1.7909,
                "tempo": 120.0
            },
            {
                "pitch": 88,
                "velocity": 51,
                "duration": 1.3864,
                "tempo": 120.0
            },
            {
                "pitch": 90,
                "velocity": 51,
                "duration": 0.0841,
                "tempo": 120.0
            },
            {
                "pitch": 92,
                "velocity": 51,
                "duration": 0.0841,
                "tempo": 120.0
            },
            {
                "pitch": 93,
                "velocity": 51,
                "duration": 1.3909,
                "tempo": 120.0
            },
            {
                "pitch": 92,
                "velocity": 51,
                "duration": 0.1841,
                "tempo": 120.0
            },
            {
                "pitch": 90,
                "velocity": 51,
                "duration": 1.3886,
                "tempo": 120.0
            },
            {
                "pitch": 88,
                "velocity": 51,
                "duration": 1.7886,
                "tempo": 120.0
            },
            {
                "pitch": 88,
                "velocity": 51,
                "duration": 1.3886,
                "tempo": 120.0
            },
            {
                "pitch": 90,
                "velocity": 51,
                "duration": 0.0841,
                "tempo": 120.0
            },
            {
                "pitch": 92,
                "velocity": 51,
                "duration": 0.0841,
                "tempo": 120.0
            },
            {
                "pitch": 93,
                "velocity": 51,
                "duration": 0.2568,
                "tempo": 120.0
            },
            {
                "pitch": 95,
                "velocity": 51,
                "duration": 0.25,
                "tempo": 120.0
            },
            {
                "pitch": 93,
                "velocity": 51,
                "duration": 0.2455,
                "tempo": 120.0
            },
            {
                "pitch": 92,
                "velocity": 51,
                "duration": 0.25,
                "tempo": 120.0
            },
            {
                "pitch": 93,
                "velocity": 51,
                "duration": 0.25,
                "tempo": 120.0
            },
            {
                "pitch": 92,
                "velocity": 51,
                "duration": 0.2523,
                "tempo": 120.0
            },
            {
                "pitch": 90,
                "velocity": 51,
                "duration": 0.7886,
                "tempo": 120.0
            },
            {
                "pitch": 92,
                "velocity": 51,
                "duration": 0.3841,
                "tempo": 120.0
            },
            {
                "pitch": 93,
                "velocity": 51,
                "duration": 0.1864,
                "tempo": 120.0
            },
            {
                "pitch": 92,
                "velocity": 51,
                "duration": 0.0841,
                "tempo": 120.0
            },
            {
                "pitch": 90,
                "velocity": 51,
                "duration": 0.0841,
                "tempo": 120.0
            },
            {
                "pitch": 88,
                "velocity": 51,
                "duration": 1.5909,
                "tempo": 120.0
            },
            {
                "pitch": 80,
                "velocity": 51,
                "duration": 0.0841,
                "tempo": 120.0
            }
        ],
        "Acoustic Grand Piano": [
            {
                "pitch": 40,
                "velocity": 64,
                "duration": 0.1182,
                "tempo": 120.0
            },
            {
                "pitch": 42,
                "velocity": 64,
                "duration": 0.1182,
                "tempo": 120.0
            },
            {
                "pitch": 45,
                "velocity": 64,
                "duration": 0.1182,
                "tempo": 120.0
            },
            {
                "pitch": 47,
                "velocity": 64,
                "duration": 0.1182,
                "tempo": 120.0
            },
            {
                "pitch": 52,
                "velocity": 64,
                "duration": 0.1182,
                "tempo": 120.0
            },
            {
                "pitch": 54,
                "velocity": 64,
                "duration": 0.1205,
                "tempo": 120.0
            },
            {
                "pitch": 57,
                "velocity": 64,
                "duration": 0.1159,
                "tempo": 120.0
            },
            {
                "pitch": 59,
                "velocity": 64,
                "duration": 0.1136,
                "tempo": 120.0
            },
            {
                "pitch": 38,
                "velocity": 64,
                "duration": 0.1182,
                "tempo": 120.0
            },
            {
                "pitch": 40,
                "velocity": 64,
                "duration": 0.1159,
                "tempo": 120.0
            },
            {
                "pitch": 43,
                "velocity": 64,
                "duration": 0.1205,
                "tempo": 120.0
            },
            {
                "pitch": 45,
                "velocity": 64,
                "duration": 0.1205,
                "tempo": 120.0
            },
            {
                "pitch": 50,
                "velocity": 64,
                "duration": 0.1182,
                "tempo": 120.0
            },
            {
                "pitch": 52,
                "velocity": 64,
                "duration": 0.1159,
                "tempo": 120.0
            },
            {
                "pitch": 55,
                "velocity": 64,
                "duration": 0.1136,
                "tempo": 120.0
            },
            {
                "pitch": 57,
                "velocity": 64,
                "duration": 0.1159,
                "tempo": 120.0
            },
            {
                "pitch": 40,
                "velocity": 64,
                "duration": 0.1159,
                "tempo": 120.0
            },
            {
                "pitch": 42,
                "velocity": 64,
                "duration": 0.1182,
                "tempo": 120.0
            },
            {
                "pitch": 45,
                "velocity": 64,
                "duration": 0.1182,
                "tempo": 120.0
            },
            {
                "pitch": 47,
                "velocity": 64,
                "duration": 0.1182,
                "tempo": 120.0
            },
            {
                "pitch": 52,
                "velocity": 64,
                "duration": 0.1182,
                "tempo": 120.0
            },
            {
                "pitch": 54,
                "velocity": 64,
                "duration": 0.1159,
                "tempo": 120.0
            },
            {
                "pitch": 57,
                "velocity": 64,
                "duration": 0.1182,
                "tempo": 120.0
            },
            {
                "pitch": 59,
                "velocity": 64,
                "duration": 0.1159,
                "tempo": 120.0
            },
            {
                "pitch": 38,
                "velocity": 64,
                "duration": 0.1182,
                "tempo": 120.0
            },
            {
                "pitch": 40,
                "velocity": 64,
                "duration": 0.1182,
                "tempo": 120.0
            },
            {
                "pitch": 43,
                "velocity": 64,
                "duration": 0.1182,
                "tempo": 120.0
            },
            {
                "pitch": 45,
                "velocity": 64,
                "duration": 0.1182,
                "tempo": 120.0
            },
            {
                "pitch": 50,
                "velocity": 64,
                "duration": 0.1159,
                "tempo": 120.0
            },
            {
                "pitch": 52,
                "velocity": 64,
                "duration": 0.1182,
                "tempo": 120.0
            },
            {
                "pitch": 55,
                "velocity": 64,
                "duration": 0.1159,
                "tempo": 120.0
            },
            {
                "pitch": 57,
                "velocity": 64,
                "duration": 0.1182,
                "tempo": 120.0
            },
            {
                "pitch": 40,
                "velocity": 64,
                "duration": 0.0841,
                "tempo": 120.0
            },
            {
                "pitch": 42,
                "velocity": 64,
                "duration": 0.0841,
                "tempo": 120.0
            },
            {
                "pitch": 45,
                "velocity": 64,
                "duration": 0.0818,
                "tempo": 120.0
            },
            {
                "pitch": 47,
                "velocity": 64,
                "duration": 0.0841,
                "tempo": 120.0
            },
            {
                "pitch": 52,
                "velocity": 64,
                "duration": 0.0841,
                "tempo": 120.0
            },
            {
                "pitch": 54,
                "velocity": 64,
                "duration": 0.0841,
                "tempo": 120.0
            },
            {
                "pitch": 57,
                "velocity": 64,
                "duration": 0.0841,
                "tempo": 120.0
            },
            {
                "pitch": 59,
                "velocity": 64,
                "duration": 0.0841,
                "tempo": 120.0
            },
            {
                "pitch": 52,
                "velocity": 64,
                "duration": 0.0841,
                "tempo": 120.0
            },
            {
                "pitch": 54,
                "velocity": 64,
                "duration": 0.0841,
                "tempo": 120.0
            },
            {
                "pitch": 57,
                "velocity": 64,
                "duration": 0.0841,
                "tempo": 120.0
            },
            {
                "pitch": 59,
                "velocity": 64,
                "duration": 0.0841,
                "tempo": 120.0
            },
            {
                "pitch": 64,
                "velocity": 64,
                "duration": 0.0841,
                "tempo": 120.0
            },
            {
                "pitch": 66,
                "velocity": 64,
                "duration": 0.0841,
                "tempo": 120.0
            },
            {
                "pitch": 69,
                "velocity": 64,
                "duration": 0.0841,
                "tempo": 120.0
            },
            {
                "pitch": 71,
                "velocity": 64,
                "duration": 0.0841,
                "tempo": 120.0
            },
            {
                "pitch": 38,
                "velocity": 64,
                "duration": 0.0841,
                "tempo": 120.0
            },
            {
                "pitch": 40,
                "velocity": 64,
                "duration": 0.0841,
                "tempo": 120.0
            },
            {
                "pitch": 43,
                "velocity": 64,
                "duration": 0.0841,
                "tempo": 120.0
            },
            {
                "pitch": 45,
                "velocity": 64,
                "duration": 0.0841,
                "tempo": 120.0
            },
            {
                "pitch": 50,
                "velocity": 64,
                "duration": 0.0841,
                "tempo": 120.0
            },
            {
                "pitch": 52,
                "velocity": 64,
                "duration": 0.0841,
                "tempo": 120.0
            },
            {
                "pitch": 55,
                "velocity": 64,
                "duration": 0.0841,
                "tempo": 120.0
            },
            {
                "pitch": 57,
                "velocity": 64,
                "duration": 0.0818,
                "tempo": 120.0
            },
            {
                "pitch": 50,
                "velocity": 64,
                "duration": 0.0841,
                "tempo": 120.0
            },
            {
                "pitch": 52,
                "velocity": 64,
                "duration": 0.0841,
                "tempo": 120.0
            },
            {
                "pitch": 55,
                "velocity": 64,
                "duration": 0.0841,
                "tempo": 120.0
            },
            {
                "pitch": 57,
                "velocity": 64,
                "duration": 0.0841,
                "tempo": 120.0
            },
            {
                "pitch": 62,
                "velocity": 64,
                "duration": 0.0841,
                "tempo": 120.0
            },
            {
                "pitch": 64,
                "velocity": 64,
                "duration": 0.0841,
                "tempo": 120.0
            },
            {
                "pitch": 67,
                "velocity": 64,
                "duration": 0.0841,
                "tempo": 120.0
            },
            {
                "pitch": 69,
                "velocity": 64,
                "duration": 0.0841,
                "tempo": 120.0
            },
            {
                "pitch": 40,
                "velocity": 64,
                "duration": 0.0841,
                "tempo": 120.0
            },
            {
                "pitch": 42,
                "velocity": 64,
                "duration": 0.0841,
                "tempo": 120.0
            },
            {
                "pitch": 45,
                "velocity": 64,
                "duration": 0.0841,
                "tempo": 120.0
            },
            {
                "pitch": 47,
                "velocity": 64,
                "duration": 0.0841,
                "tempo": 120.0
            },
            {
                "pitch": 52,
                "velocity": 64,
                "duration": 0.0841,
                "tempo": 120.0
            },
            {
                "pitch": 54,
                "velocity": 64,
                "duration": 0.0841,
                "tempo": 120.0
            },
            {
                "pitch": 57,
                "velocity": 64,
                "duration": 0.0841,
                "tempo": 120.0
            },
            {
                "pitch": 59,
                "velocity": 64,
                "duration": 0.0841,
                "tempo": 120.0
            },
            {
                "pitch": 52,
                "velocity": 64,
                "duration": 0.0841,
                "tempo": 120.0
            },
            {
                "pitch": 54,
                "velocity": 64,
                "duration": 0.0841,
                "tempo": 120.0
            },
            {
                "pitch": 57,
                "velocity": 64,
                "duration": 0.0841,
                "tempo": 120.0
            },
            {
                "pitch": 59,
                "velocity": 64,
                "duration": 0.0841,
                "tempo": 120.0
            },
            {
                "pitch": 64,
                "velocity": 64,
                "duration": 0.0818,
                "tempo": 120.0
            },
            {
                "pitch": 66,
                "velocity": 64,
                "duration": 0.0818,
                "tempo": 120.0
            },
            {
                "pitch": 69,
                "velocity": 64,
                "duration": 0.0818,
                "tempo": 120.0
            },
            {
                "pitch": 71,
                "velocity": 64,
                "duration": 0.0818,
                "tempo": 120.0
            },
            {
                "pitch": 64,
                "velocity": 64,
                "duration": 0.1159,
                "tempo": 120.0
            },
            {
                "pitch": 76,
                "velocity": 64,
                "duration": 0.0841,
                "tempo": 120.0
            },
            {
                "pitch": 74,
                "velocity": 64,
                "duration": 0.0841,
                "tempo": 120.0
            },
            {
                "pitch": 71,
                "velocity": 64,
                "duration": 0.0841,
                "tempo": 120.0
            },
            {
                "pitch": 69,
                "velocity": 64,
                "duration": 0.0841,
                "tempo": 120.0
            },
            {
                "pitch": 64,
                "velocity": 64,
                "duration": 0.0818,
                "tempo": 120.0
            },
            {
                "pitch": 62,
                "velocity": 64,
                "duration": 0.0818,
                "tempo": 120.0
            },
            {
                "pitch": 59,
                "velocity": 64,
                "duration": 0.0818,
                "tempo": 120.0
            },
            {
                "pitch": 57,
                "velocity": 64,
                "duration": 0.0818,
                "tempo": 120.0
            },
            {
                "pitch": 52,
                "velocity": 64,
                "duration": 0.0864,
                "tempo": 120.0
            },
            {
                "pitch": 50,
                "velocity": 64,
                "duration": 0.0841,
                "tempo": 120.0
            },
            {
                "pitch": 47,
                "velocity": 64,
                "duration": 0.0841,
                "tempo": 120.0
            },
            {
                "pitch": 45,
                "velocity": 64,
                "duration": 0.0864,
                "tempo": 120.0
            }
        ],
        "French Horn": [
            {
                "pitch": 80,
                "velocity": 40,
                "duration": 0.1841,
                "tempo": 120.0
            },
            {
                "pitch": 80,
                "velocity": 40,
                "duration": 0.1795,
                "tempo": 120.0
            },
            {
                "pitch": 80,
                "velocity": 40,
                "duration": 0.1841,
                "tempo": 120.0
            },
            {
                "pitch": 78,
                "velocity": 40,
                "duration": 0.1818,
                "tempo": 120.0
            },
            {
                "pitch": 76,
                "velocity": 40,
                "duration": 0.1886,
                "tempo": 120.0
            },
            {
                "pitch": 76,
                "velocity": 40,
                "duration": 0.1773,
                "tempo": 120.0
            },
            {
                "pitch": 76,
                "velocity": 40,
                "duration": 0.1886,
                "tempo": 120.0
            },
            {
                "pitch": 78,
                "velocity": 40,
                "duration": 0.1841,
                "tempo": 120.0
            },
            {
                "pitch": 80,
                "velocity": 40,
                "duration": 0.1886,
                "tempo": 120.0
            },
            {
                "pitch": 80,
                "velocity": 40,
                "duration": 0.1795,
                "tempo": 120.0
            },
            {
                "pitch": 80,
                "velocity": 40,
                "duration": 0.1818,
                "tempo": 120.0
            },
            {
                "pitch": 78,
                "velocity": 40,
                "duration": 0.1886,
                "tempo": 120.0
            },
            {
                "pitch": 76,
                "velocity": 40,
                "duration": 0.1841,
                "tempo": 120.0
            },
            {
                "pitch": 76,
                "velocity": 40,
                "duration": 0.1864,
                "tempo": 120.0
            },
            {
                "pitch": 76,
                "velocity": 40,
                "duration": 0.1818,
                "tempo": 120.0
            },
            {
                "pitch": 75,
                "velocity": 40,
                "duration": 0.1841,
                "tempo": 120.0
            },
            {
                "pitch": 73,
                "velocity": 40,
                "duration": 1.3841,
                "tempo": 120.0
            },
            {
                "pitch": 75,
                "velocity": 40,
                "duration": 1.5955,
                "tempo": 120.0
            },
            {
                "pitch": 75,
                "velocity": 40,
                "duration": 1.5909,
                "tempo": 120.0
            },
            {
                "pitch": 76,
                "velocity": 40,
                "duration": 1.5909,
                "tempo": 120.0
            },
            {
                "pitch": 73,
                "velocity": 40,
                "duration": 1.5864,
                "tempo": 120.0
            },
            {
                "pitch": 73,
                "velocity": 40,
                "duration": 1.5932,
                "tempo": 120.0
            },
            {
                "pitch": 73,
                "velocity": 40,
                "duration": 1.7909,
                "tempo": 120.0
            },
            {
                "pitch": 75,
                "velocity": 40,
                "duration": 0.1841,
                "tempo": 120.0
            },
            {
                "pitch": 75,
                "velocity": 40,
                "duration": 0.1841,
                "tempo": 120.0
            },
            {
                "pitch": 75,
                "velocity": 40,
                "duration": 0.1864,
                "tempo": 120.0
            },
            {
                "pitch": 75,
                "velocity": 40,
                "duration": 0.1841,
                "tempo": 120.0
            }
        ],
        "Flute": [
            {
                "pitch": 74,
                "velocity": 51,
                "duration": 1.3909,
                "tempo": 120.0
            },
            {
                "pitch": 73,
                "velocity": 51,
                "duration": 0.0841,
                "tempo": 120.0
            },
            {
                "pitch": 71,
                "velocity": 51,
                "duration": 0.0841,
                "tempo": 120.0
            },
            {
                "pitch": 78,
                "velocity": 51,
                "duration": 1.5886,
                "tempo": 120.0
            },
            {
                "pitch": 81,
                "velocity": 51,
                "duration": 1.3909,
                "tempo": 120.0
            },
            {
                "pitch": 80,
                "velocity": 51,
                "duration": 0.0841,
                "tempo": 120.0
            },
            {
                "pitch": 78,
                "velocity": 51,
                "duration": 0.0841,
                "tempo": 120.0
            },
            {
                "pitch": 73,
                "velocity": 51,
                "duration": 1.5886,
                "tempo": 120.0
            },
            {
                "pitch": 74,
                "velocity": 51,
                "duration": 1.3886,
                "tempo": 120.0
            },
            {
                "pitch": 73,
                "velocity": 51,
                "duration": 0.0818,
                "tempo": 120.0
            },
            {
                "pitch": 71,
                "velocity": 51,
                "duration": 0.0818,
                "tempo": 120.0
            },
            {
                "pitch": 78,
                "velocity": 51,
                "duration": 1.5909,
                "tempo": 120.0
            },
            {
                "pitch": 76,
                "velocity": 51,
                "duration": 1.3886,
                "tempo": 120.0
            },
            {
                "pitch": 78,
                "velocity": 51,
                "duration": 0.0841,
                "tempo": 120.0
            },
            {
                "pitch": 80,
                "velocity": 51,
                "duration": 0.0841,
                "tempo": 120.0
            },
            {
                "pitch": 85,
                "velocity": 51,
                "duration": 0.7841,
                "tempo": 120.0
            },
            {
                "pitch": 86,
                "velocity": 51,
                "duration": 0.3841,
                "tempo": 120.0
            },
            {
                "pitch": 83,
                "velocity": 51,
                "duration": 0.3864,
                "tempo": 120.0
            },
            {
                "pitch": 74,
                "velocity": 51,
                "duration": 1.3932,
                "tempo": 120.0
            },
            {
                "pitch": 73,
                "velocity": 51,
                "duration": 0.0841,
                "tempo": 120.0
            },
            {
                "pitch": 71,
                "velocity": 51,
                "duration": 0.0841,
                "tempo": 120.0
            },
            {
                "pitch": 78,
                "velocity": 51,
                "duration": 1.5909,
                "tempo": 120.0
            },
            {
                "pitch": 81,
                "velocity": 51,
                "duration": 1.3909,
                "tempo": 120.0
            },
            {
                "pitch": 80,
                "velocity": 51,
                "duration": 0.0841,
                "tempo": 120.0
            },
            {
                "pitch": 78,
                "velocity": 51,
                "duration": 0.0818,
                "tempo": 120.0
            },
            {
                "pitch": 73,
                "velocity": 51,
                "duration": 1.5909,
                "tempo": 120.0
            },
            {
                "pitch": 74,
                "velocity": 51,
                "duration": 1.3932,
                "tempo": 120.0
            },
            {
                "pitch": 73,
                "velocity": 51,
                "duration": 0.0841,
                "tempo": 120.0
            },
            {
                "pitch": 71,
                "velocity": 51,
                "duration": 0.0841,
                "tempo": 120.0
            },
            {
                "pitch": 78,
                "velocity": 51,
                "duration": 1.5932,
                "tempo": 120.0
            },
            {
                "pitch": 80,
                "velocity": 51,
                "duration": 0.7841,
                "tempo": 120.0
            },
            {
                "pitch": 81,
                "velocity": 51,
                "duration": 0.7886,
                "tempo": 120.0
            },
            {
                "pitch": 83,
                "velocity": 51,
                "duration": 1.5886,
                "tempo": 120.0
            }
        ]
    }
}