{
    "track_id": "Phantasy Star (FM) - 06 - Battle",
    "mood": "angry",
    "instruments": {
        "Church Organ": [
            {
                "pitch": 74,
                "velocity": 80,
                "duration": 0.0841,
                "tempo": 120.0
            },
            {
                "pitch": 73,
                "velocity": 80,
                "duration": 0.0841,
                "tempo": 120.0
            },
            {
                "pitch": 74,
                "velocity": 80,
                "duration": 0.1841,
                "tempo": 120.0
            },
            {
                "pitch": 77,
                "velocity": 80,
                "duration": 0.0841,
                "tempo": 120.0
            },
            {
                "pitch": 76,
                "velocity": 80,
                "duration": 0.0841,
                "tempo": 120.0
            },
            {
                "pitch": 77,
                "velocity": 80,
                "duration": 0.1841,
                "tempo": 120.0
            },
            {
                "pitch": 80,
                "velocity": 80,
                "duration": 0.0841,
                "tempo": 120.0
            },
            {
                "pitch": 79,
                "velocity": 80,
                "duration": 0.0841,
                "tempo": 120.0
            },
            {
                "pitch": 80,
                "velocity": 80,
                "duration": 0.1841,
                "tempo": 120.0
            },
            {
                "pitch": 84,
                "velocity": 80,
                "duration": 0.0864,
                "tempo": 120.0
            },
            {
                "pitch": 83,
                "velocity": 80,
                "duration": 0.0864,
                "tempo": 120.0
            },
            {
                "pitch": 84,
                "velocity": 80,
                "duration": 0.0864,
                "tempo": 120.0
            },
            {
                "pitch": 74,
                "velocity": 80,
                "duration": 0.0818,
                "tempo": 120.0
            },
            {
                "pitch": 73,
                "velocity": 80,
                "duration": 0.0818,
                "tempo": 120.0
            },
            {
                "pitch": 74,
                "velocity": 80,
                "duration": 0.1818,
                "tempo": 120.0
            },
            {
                "pitch": 77,
                "velocity": 80,
                "duration": 0.0841,
                "tempo": 120.0
            },
            {
                "pitch": 76,
                "velocity": 80,
                "duration": 0.0841,
                "tempo": 120.0
            },
            {
                "pitch": 77,
                "velocity": 80,
                "duration": 0.1841,
                "tempo": 120.0
            },
            {
                "pitch": 80,
                "velocity": 80,
                "duration": 0.1818,
                "tempo": 120.0
            },
            {
                "pitch": 79,
                "velocity": 80,
                "duration": 0.1818,
                "tempo": 120.0
            },
            {
                "pitch": 84,
                "velocity": 80,
                "duration": 1.9909,
                "tempo": 120.0
            },
            {
                "pitch": 74,
                "velocity": 80,
                "duration": 0.0841,
                "tempo": 120.0
            },
            {
                "pitch": 73,
                "velocity": 80,
                "duration": 0.0841,
                "tempo": 120.0
            },
            {
                "pitch": 74,
                "velocity": 80,
                "duration": 0.1841,
                "tempo": 120.0
            },
            {
                "pitch": 77,
                "velocity": 80,
                "duration": 0.0818,
                "tempo": 120.0
            },
            {
                "pitch": 76,
                "velocity": 80,
                "duration": 0.0841,
                "tempo": 120.0
            },
            {
                "pitch": 77,
                "velocity": 80,
                "duration": 0.1841,
                "tempo": 120.0
            },
            {
                "pitch": 80,
                "velocity": 80,
                "duration": 0.0841,
                "tempo": 120.0
            },
            {
                "pitch": 79,
                "velocity": 80,
                "duration": 0.0841,
                "tempo": 120.0
            },
            {
                "pitch": 80,
                "velocity": 80,
                "duration": 0.1864,
                "tempo": 120.0
            },
            {
                "pitch": 84,
                "velocity": 80,
                "duration": 0.0841,
                "tempo": 120.0
            },
            {
                "pitch": 83,
                "velocity": 80,
                "duration": 0.0841,
                "tempo": 120.0
            },
            {
                "pitch": 84,
                "velocity": 80,
                "duration": 0.0841,
                "tempo": 120.0
            },
            {
                "pitch": 74,
                "velocity": 80,
                "duration": 0.0818,
                "tempo": 120.0
            },
            {
                "pitch": 73,
                "velocity": 80,
                "duration": 0.0818,
                "tempo": 120.0
            },
            {
                "pitch": 74,
                "velocity": 80,
                "duration": 0.1818,
                "tempo": 120.0
            },
            {
                "pitch": 77,
                "velocity": 80,
                "duration": 0.0841,
                "tempo": 120.0
            },
            {
                "pitch": 76,
                "velocity": 80,
                "duration": 0.0841,
                "tempo": 120.0
            },
            {
                "pitch": 77,
                "velocity": 80,
                "duration": 0.1841,
                "tempo": 120.0
            },
            {
                "pitch": 80,
                "velocity": 80,
                "duration": 0.0841,
                "tempo": 120.0
            },
            {
                "pitch": 79,
                "velocity": 80,
                "duration": 0.0841,
                "tempo": 120.0
            },
            {
                "pitch": 80,
                "velocity": 80,
                "duration": 0.1864,
                "tempo": 120.0
            },
            {
                "pitch": 84,
                "velocity": 80,
                "duration": 0.3523,
                "tempo": 120.0
            },
            {
                "pitch": 84,
                "velocity": 80,
                "duration": 0.5864,
                "tempo": 120.0
            },
            {
                "pitch": 87,
                "velocity": 80,
                "duration": 0.9886,
                "tempo": 120.0
            },
            {
                "pitch": 89,
                "velocity": 80,
                "duration": 0.5818,
                "tempo": 120.0
            },
            {
                "pitch": 88,
                "velocity": 80,
                "duration": 0.9886,
                "tempo": 120.0
            },
            {
                "pitch": 84,
                "velocity": 80,
                "duration": 0.5955,
                "tempo": 120.0
            },
            {
                "pitch": 87,
                "velocity": 80,
                "duration": 0.9841,
                "tempo": 120.0
            },
            {
                "pitch": 84,
                "velocity": 80,
                "duration": 0.0818,
                "tempo": 120.0
            },
            {
                "pitch": 80,
                "velocity": 80,
                "duration": 2.0591,
                "tempo": 120.0
            }
        ],
        "Electric Guitar (clean)": [
            {
                "pitch": 38,
                "velocity": 64,
                "duration": 0.0841,
                "tempo": 120.0
            },
            {
                "pitch": 37,
                "velocity": 64,
                "duration": 0.0841,
                "tempo": 120.0
            },
            {
                "pitch": 38,
                "velocity": 64,
                "duration": 0.1841,
                "tempo": 120.0
            },
            {
                "pitch": 41,
                "velocity": 64,
                "duration": 0.1841,
                "tempo": 120.0
            },
            {
                "pitch": 40,
                "velocity": 64,
                "duration": 0.1841,
                "tempo": 120.0
            },
            {
                "pitch": 38,
                "velocity": 64,
                "duration": 0.0841,
                "tempo": 120.0
            },
            {
                "pitch": 37,
                "velocity": 64,
                "duration": 0.0841,
                "tempo": 120.0
            },
            {
                "pitch": 38,
                "velocity": 64,
                "duration": 0.1841,
                "tempo": 120.0
            },
            {
                "pitch": 44,
                "velocity": 64,
                "duration": 0.1841,
                "tempo": 120.0
            },
            {
                "pitch": 43,
                "velocity": 64,
                "duration": 0.1841,
                "tempo": 120.0
            },
            {
                "pitch": 38,
                "velocity": 64,
                "duration": 0.0841,
                "tempo": 120.0
            },
            {
                "pitch": 37,
                "velocity": 64,
                "duration": 0.0841,
                "tempo": 120.0
            },
            {
                "pitch": 38,
                "velocity": 64,
                "duration": 0.1841,
                "tempo": 120.0
            },
            {
                "pitch": 41,
                "velocity": 64,
                "duration": 0.1841,
                "tempo": 120.0
            },
            {
                "pitch": 40,
                "velocity": 64,
                "duration": 0.1841,
                "tempo": 120.0
            },
            {
                "pitch": 36,
                "velocity": 64,
                "duration": 0.3841,
                "tempo": 120.0
            },
            {
                "pitch": 37,
                "velocity": 64,
                "duration": 0.3932,
                "tempo": 120.0
            },
            {
                "pitch": 38,
                "velocity": 64,
                "duration": 0.0818,
                "tempo": 120.0
            },
            {
                "pitch": 38,
                "velocity": 64,
                "duration": 0.0818,
                "tempo": 120.0
            },
            {
                "pitch": 38,
                "velocity": 64,
                "duration": 0.1795,
                "tempo": 120.0
            },
            {
                "pitch": 41,
                "velocity": 64,
                "duration": 0.1841,
                "tempo": 120.0
            },
            {
                "pitch": 40,
                "velocity": 64,
                "duration": 0.1841,
                "tempo": 120.0
            },
            {
                "pitch": 38,
                "velocity": 64,
                "duration": 0.0841,
                "tempo": 120.0
            },
            {
                "pitch": 37,
                "velocity": 64,
                "duration": 0.0841,
                "tempo": 120.0
            },
            {
                "pitch": 38,
                "velocity": 64,
                "duration": 0.1841,
                "tempo": 120.0
            },
            {
                "pitch": 44,
                "velocity": 64,
                "duration": 0.1864,
                "tempo": 120.0
            },
            {
                "pitch": 43,
                "velocity": 64,
                "duration": 0.1841,
                "tempo": 120.0
            },
            {
                "pitch": 38,
                "velocity": 64,
                "duration": 0.0818,
                "tempo": 120.0
            },
            {
                "pitch": 37,
                "velocity": 64,
                "duration": 0.0818,
                "tempo": 120.0
            },
            {
                "pitch": 38,
                "velocity": 64,
                "duration": 0.1818,
                "tempo": 120.0
            },
            {
                "pitch": 41,
                "velocity": 64,
                "duration": 0.1841,
                "tempo": 120.0
            },
            {
                "pitch": 40,
                "velocity": 64,
                "duration": 0.1841,
                "tempo": 120.0
            },
            {
                "pitch": 37,
                "velocity": 64,
                "duration": 0.1818,
                "tempo": 120.0
            },
            {
                "pitch": 44,
                "velocity": 64,
                "duration": 0.1818,
                "tempo": 120.0
            },
            {
                "pitch": 43,
                "velocity": 64,
                "duration": 0.3864,
                "tempo": 120.0
            },
            {
                "pitch": 38,
                "velocity": 64,
                "duration": 0.0841,
                "tempo": 120.0
            },
            {
                "pitch": 37,
                "velocity": 64,
                "duration": 0.0841,
                "tempo": 120.0
            },
            {
                "pitch": 38,
                "velocity": 64,
                "duration": 0.1841,
                "tempo": 120.0
            },
            {
                "pitch": 41,
                "velocity": 64,
                "duration": 0.1841,
                "tempo": 120.0
            },
            {
                "pitch": 40,
                "velocity": 64,
                "duration": 0.1841,
                "tempo": 120.0
            },
            {
                "pitch": 38,
                "velocity": 64,
                "duration": 0.0841,
                "tempo": 120.0
            },
            {
                "pitch": 37,
                "velocity": 64,
                "duration": 0.0841,
                "tempo": 120.0
            },
            {
                "pitch": 38,
                "velocity": 64,
                "duration": 0.1841,
                "tempo": 120.0
            },
            {
                "pitch": 44,
                "velocity": 64,
                "duration": 0.1841,
                "tempo": 120.0
            },
            {
                "pitch": 43,
                "velocity": 64,
                "duration": 0.1841,
                "tempo": 120.0
            },
            {
                "pitch": 38,
                "velocity": 64,
                "duration": 0.0841,
                "tempo": 120.0
            },
            {
                "pitch": 37,
                "velocity": 64,
                "duration": 0.0841,
                "tempo": 120.0
            },
            {
                "pitch": 38,
                "velocity": 64,
                "duration": 0.1841,
                "tempo": 120.0
            },
            {
                "pitch": 41,
                "velocity": 64,
                "duration": 0.1841,
                "tempo": 120.0
            },
            {
                "pitch": 40,
                "velocity": 64,
                "duration": 0.1841,
                "tempo": 120.0
            },
            {
                "pitch": 36,
                "velocity": 64,
                "duration": 0.3864,
                "tempo": 120.0
            },
            {
                "pitch": 37,
                "velocity": 64,
                "duration": 0.3841,
                "tempo": 120.0
            },
            {
                "pitch": 38,
                "velocity": 64,
                "duration": 0.0841,
                "tempo": 120.0
            },
            {
                "pitch": 38,
                "velocity": 64,
                "duration": 0.0841,
                "tempo": 120.0
            },
            {
                "pitch": 38,
                "velocity": 64,
                "duration": 0.1864,
                "tempo": 120.0
            },
            {
                "pitch": 41,
                "velocity": 64,
                "duration": 0.1841,
                "tempo": 120.0
            },
            {
                "pitch": 40,
                "velocity": 64,
                "duration": 0.1841,
                "tempo": 120.0
            },
            {
                "pitch": 38,
                "velocity": 64,
                "duration": 0.0841,
                "tempo": 120.0
            },
            {
                "pitch": 37,
                "velocity": 64,
                "duration": 0.0818,
                "tempo": 120.0
            },
            {
                "pitch": 38,
                "velocity": 64,
                "duration": 0.1841,
                "tempo": 120.0
            },
            {
                "pitch": 44,
                "velocity": 64,
                "duration": 0.1864,
                "tempo": 120.0
            },
            {
                "pitch": 43,
                "velocity": 64,
                "duration": 0.1841,
                "tempo": 120.0
            },
            {
                "pitch": 38,
                "velocity": 64,
                "duration": 0.0818,
                "tempo": 120.0
            },
            {
                "pitch": 37,
                "velocity": 64,
                "duration": 0.0818,
                "tempo": 120.0
            },
            {
                "pitch": 38,
                "velocity": 64,
                "duration": 0.1818,
                "tempo": 120.0
            },
            {
                "pitch": 41,
                "velocity": 64,
                "duration": 0.1841,
                "tempo": 120.0
            },
            {
                "pitch": 40,
                "velocity": 64,
                "duration": 0.1841,
                "tempo": 120.0
            },
            {
                "pitch": 44,
                "velocity": 64,
                "duration": 0.3864,
                "tempo": 120.0
            },
            {
                "pitch": 43,
                "velocity": 64,
                "duration": 0.3864,
                "tempo": 120.0
            },
            {
                "pitch": 41,
                "velocity": 64,
                "duration": 0.9886,
                "tempo": 120.0
            },
            {
                "pitch": 40,
                "velocity": 64,
                "duration": 0.1841,
                "tempo": 120.0
            },
            {
                "pitch": 41,
                "velocity": 64,
                "duration": 0.1841,
                "tempo": 120.0
            },
            {
                "pitch": 40,
                "velocity": 64,
                "duration": 0.1841,
                "tempo": 120.0
            },
            {
                "pitch": 37,
                "velocity": 64,
                "duration": 0.9886,
                "tempo": 120.0
            },
            {
                "pitch": 36,
                "velocity": 64,
                "duration": 0.1841,
                "tempo": 120.0
            },
            {
                "pitch": 36,
                "velocity": 64,
                "duration": 0.1841,
                "tempo": 120.0
            },
            {
                "pitch": 37,
                "velocity": 64,
                "duration": 0.1841,
                "tempo": 120.0
            },
            {
                "pitch": 38,
                "velocity": 64,
                "duration": 0.5818,
                "tempo": 120.0
            },
            {
                "pitch": 44,
                "velocity": 64,
                "duration": 1.9932,
                "tempo": 120.0
            },
            {
                "pitch": 36,
                "velocity": 64,
                "duration": 0.1841,
                "tempo": 120.0
            },
            {
                "pitch": 36,
                "velocity": 64,
                "duration": 0.1795,
                "tempo": 120.0
            },
            {
                "pitch": 37,
                "velocity": 64,
                "duration": 0.1795,
                "tempo": 120.0
            },
            {
                "pitch": 38,
                "velocity": 64,
                "duration": 0.5955,
                "tempo": 120.0
            },
            {
                "pitch": 34,
                "velocity": 64,
                "duration": 1.9841,
                "tempo": 120.0
            },
            {
                "pitch": 36,
                "velocity": 64,
                "duration": 0.1886,
                "tempo": 120.0
            },
            {
                "pitch": 36,
                "velocity": 64,
                "duration": 0.1818,
                "tempo": 120.0
            },
            {
                "pitch": 37,
                "velocity": 64,
                "duration": 0.1818,
                "tempo": 120.0
            },
            {
                "pitch": 38,
                "velocity": 64,
                "duration": 0.5841,
                "tempo": 120.0
            },
            {
                "pitch": 41,
                "velocity": 64,
                "duration": 1.9932,
                "tempo": 120.0
            },
            {
                "pitch": 40,
                "velocity": 64,
                "duration": 0.1841,
                "tempo": 120.0
            },
            {
                "pitch": 41,
                "velocity": 64,
                "duration": 0.1818,
                "tempo": 120.0
            },
            {
                "pitch": 43,
                "velocity": 64,
                "duration": 0.1818,
                "tempo": 120.0
            },
            {
                "pitch": 38,
                "velocity": 64,
                "duration": 0.0318,
                "tempo": 120.0
            }
        ],
        "Synth Bass 1": [
            {
                "pitch": 62,
                "velocity": 51,
                "duration": 0.0818,
                "tempo": 120.0
            },
            {
                "pitch": 61,
                "velocity": 51,
                "duration": 0.0818,
                "tempo": 120.0
            },
            {
                "pitch": 62,
                "velocity": 51,
                "duration": 0.1818,
                "tempo": 120.0
            },
            {
                "pitch": 65,
                "velocity": 51,
                "duration": 0.0818,
                "tempo": 120.0
            },
            {
                "pitch": 64,
                "velocity": 51,
                "duration": 0.0818,
                "tempo": 120.0
            },
            {
                "pitch": 65,
                "velocity": 51,
                "duration": 0.1818,
                "tempo": 120.0
            },
            {
                "pitch": 68,
                "velocity": 51,
                "duration": 0.0818,
                "tempo": 120.0
            },
            {
                "pitch": 67,
                "velocity": 51,
                "duration": 0.0818,
                "tempo": 120.0
            },
            {
                "pitch": 68,
                "velocity": 51,
                "duration": 0.1818,
                "tempo": 120.0
            },
            {
                "pitch": 72,
                "velocity": 51,
                "duration": 0.0818,
                "tempo": 120.0
            },
            {
                "pitch": 71,
                "velocity": 51,
                "duration": 0.0818,
                "tempo": 120.0
            },
            {
                "pitch": 72,
                "velocity": 51,
                "duration": 0.1818,
                "tempo": 120.0
            },
            {
                "pitch": 77,
                "velocity": 51,
                "duration": 0.9864,
                "tempo": 120.0
            },
            {
                "pitch": 75,
                "velocity": 51,
                "duration": 0.1841,
                "tempo": 120.0
            },
            {
                "pitch": 77,
                "velocity": 51,
                "duration": 0.1886,
                "tempo": 120.0
            },
            {
                "pitch": 75,
                "velocity": 51,
                "duration": 0.1864,
                "tempo": 120.0
            },
            {
                "pitch": 75,
                "velocity": 51,
                "duration": 0.0818,
                "tempo": 120.0
            },
            {
                "pitch": 74,
                "velocity": 51,
                "duration": 0.0818,
                "tempo": 120.0
            },
            {
                "pitch": 72,
                "velocity": 51,
                "duration": 1.3818,
                "tempo": 120.0
            },
            {
                "pitch": 50,
                "velocity": 32,
                "duration": 0.0341,
                "tempo": 120.0
            },
            {
                "pitch": 47,
                "velocity": 32,
                "duration": 0.0341,
                "tempo": 120.0
            },
            {
                "pitch": 43,
                "velocity": 32,
                "duration": 0.0318,
                "tempo": 120.0
            },
            {
                "pitch": 50,
                "velocity": 32,
                "duration": 0.0341,
                "tempo": 120.0
            },
            {
                "pitch": 47,
                "velocity": 32,
                "duration": 0.0341,
                "tempo": 120.0
            },
            {
                "pitch": 43,
                "velocity": 32,
                "duration": 0.0318,
                "tempo": 120.0
            },
            {
                "pitch": 40,
                "velocity": 32,
                "duration": 0.0341,
                "tempo": 120.0
            },
            {
                "pitch": 37,
                "velocity": 32,
                "duration": 0.0341,
                "tempo": 120.0
            },
            {
                "pitch": 34,
                "velocity": 32,
                "duration": 0.0318,
                "tempo": 120.0
            },
            {
                "pitch": 47,
                "velocity": 32,
                "duration": 0.0182,
                "tempo": 120.0
            },
            {
                "pitch": 45,
                "velocity": 32,
                "duration": 0.0159,
                "tempo": 120.0
            },
            {
                "pitch": 43,
                "velocity": 32,
                "duration": 0.0341,
                "tempo": 120.0
            },
            {
                "pitch": 40,
                "velocity": 32,
                "duration": 0.0318,
                "tempo": 120.0
            },
            {
                "pitch": 47,
                "velocity": 32,
                "duration": 0.0182,
                "tempo": 120.0
            },
            {
                "pitch": 45,
                "velocity": 32,
                "duration": 0.0159,
                "tempo": 120.0
            },
            {
                "pitch": 43,
                "velocity": 32,
                "duration": 0.0341,
                "tempo": 120.0
            },
            {
                "pitch": 40,
                "velocity": 32,
                "duration": 0.0341,
                "tempo": 120.0
            },
            {
                "pitch": 50,
                "velocity": 32,
                "duration": 0.0318,
                "tempo": 120.0
            },
            {
                "pitch": 47,
                "velocity": 32,
                "duration": 0.0341,
                "tempo": 120.0
            },
            {
                "pitch": 43,
                "velocity": 32,
                "duration": 0.0341,
                "tempo": 120.0
            },
            {
                "pitch": 40,
                "velocity": 32,
                "duration": 0.0341,
                "tempo": 120.0
            },
            {
                "pitch": 37,
                "velocity": 32,
                "duration": 0.0318,
                "tempo": 120.0
            },
            {
                "pitch": 34,
                "velocity": 32,
                "duration": 0.0341,
                "tempo": 120.0
            },
            {
                "pitch": 47,
                "velocity": 32,
                "duration": 0.0182,
                "tempo": 120.0
            },
            {
                "pitch": 45,
                "velocity": 32,
                "duration": 0.0159,
                "tempo": 120.0
            },
            {
                "pitch": 43,
                "velocity": 32,
                "duration": 0.0341,
                "tempo": 120.0
            },
            {
                "pitch": 40,
                "velocity": 32,
                "duration": 0.0318,
                "tempo": 120.0
            },
            {
                "pitch": 50,
                "velocity": 32,
                "duration": 0.0341,
                "tempo": 120.0
            },
            {
                "pitch": 47,
                "velocity": 32,
                "duration": 0.0341,
                "tempo": 120.0
            },
            {
                "pitch": 43,
                "velocity": 32,
                "duration": 0.0318,
                "tempo": 120.0
            },
            {
                "pitch": 40,
                "velocity": 32,
                "duration": 0.0341,
                "tempo": 120.0
            },
            {
                "pitch": 37,
                "velocity": 32,
                "duration": 0.0341,
                "tempo": 120.0
            },
            {
                "pitch": 34,
                "velocity": 32,
                "duration": 0.0318,
                "tempo": 120.0
            },
            {
                "pitch": 47,
                "velocity": 32,
                "duration": 0.0182,
                "tempo": 120.0
            },
            {
                "pitch": 45,
                "velocity": 32,
                "duration": 0.0159,
                "tempo": 120.0
            },
            {
                "pitch": 43,
                "velocity": 32,
                "duration": 0.0341,
                "tempo": 120.0
            },
            {
                "pitch": 40,
                "velocity": 32,
                "duration": 0.0318,
                "tempo": 120.0
            },
            {
                "pitch": 47,
                "velocity": 32,
                "duration": 0.0182,
                "tempo": 120.0
            },
            {
                "pitch": 45,
                "velocity": 32,
                "duration": 0.0159,
                "tempo": 120.0
            },
            {
                "pitch": 43,
                "velocity": 32,
                "duration": 0.0341,
                "tempo": 120.0
            },
            {
                "pitch": 40,
                "velocity": 32,
                "duration": 0.0341,
                "tempo": 120.0
            },
            {
                "pitch": 50,
                "velocity": 32,
                "duration": 0.0318,
                "tempo": 120.0
            },
            {
                "pitch": 47,
                "velocity": 32,
                "duration": 0.0341,
                "tempo": 120.0
            },
            {
                "pitch": 43,
                "velocity": 32,
                "duration": 0.0341,
                "tempo": 120.0
            },
            {
                "pitch": 47,
                "velocity": 32,
                "duration": 0.0159,
                "tempo": 120.0
            },
            {
                "pitch": 45,
                "velocity": 32,
                "duration": 0.0182,
                "tempo": 120.0
            },
            {
                "pitch": 43,
                "velocity": 32,
                "duration": 0.0318,
                "tempo": 120.0
            },
            {
                "pitch": 40,
                "velocity": 32,
                "duration": 0.0341,
                "tempo": 120.0
            },
            {
                "pitch": 47,
                "velocity": 32,
                "duration": 0.0182,
                "tempo": 120.0
            },
            {
                "pitch": 45,
                "velocity": 32,
                "duration": 0.0159,
                "tempo": 120.0
            },
            {
                "pitch": 43,
                "velocity": 32,
                "duration": 0.0341,
                "tempo": 120.0
            },
            {
                "pitch": 40,
                "velocity": 32,
                "duration": 0.0318,
                "tempo": 120.0
            },
            {
                "pitch": 44,
                "velocity": 32,
                "duration": 0.0341,
                "tempo": 120.0
            },
            {
                "pitch": 43,
                "velocity": 32,
                "duration": 0.0682,
                "tempo": 120.0
            },
            {
                "pitch": 62,
                "velocity": 32,
                "duration": 0.0841,
                "tempo": 120.0
            },
            {
                "pitch": 61,
                "velocity": 51,
                "duration": 0.0841,
                "tempo": 120.0
            },
            {
                "pitch": 62,
                "velocity": 51,
                "duration": 0.1841,
                "tempo": 120.0
            },
            {
                "pitch": 65,
                "velocity": 51,
                "duration": 0.0818,
                "tempo": 120.0
            },
            {
                "pitch": 64,
                "velocity": 51,
                "duration": 0.0818,
                "tempo": 120.0
            },
            {
                "pitch": 65,
                "velocity": 51,
                "duration": 0.1841,
                "tempo": 120.0
            },
            {
                "pitch": 68,
                "velocity": 51,
                "duration": 0.0841,
                "tempo": 120.0
            },
            {
                "pitch": 67,
                "velocity": 51,
                "duration": 0.0841,
                "tempo": 120.0
            },
            {
                "pitch": 68,
                "velocity": 51,
                "duration": 0.1841,
                "tempo": 120.0
            },
            {
                "pitch": 72,
                "velocity": 51,
                "duration": 0.0841,
                "tempo": 120.0
            },
            {
                "pitch": 71,
                "velocity": 51,
                "duration": 0.0841,
                "tempo": 120.0
            },
            {
                "pitch": 72,
                "velocity": 51,
                "duration": 0.1841,
                "tempo": 120.0
            },
            {
                "pitch": 77,
                "velocity": 51,
                "duration": 0.9909,
                "tempo": 120.0
            },
            {
                "pitch": 75,
                "velocity": 51,
                "duration": 0.1841,
                "tempo": 120.0
            },
            {
                "pitch": 77,
                "velocity": 51,
                "duration": 0.1818,
                "tempo": 120.0
            },
            {
                "pitch": 75,
                "velocity": 51,
                "duration": 0.1818,
                "tempo": 120.0
            },
            {
                "pitch": 74,
                "velocity": 51,
                "duration": 0.0841,
                "tempo": 120.0
            },
            {
                "pitch": 75,
                "velocity": 51,
                "duration": 0.0841,
                "tempo": 120.0
            },
            {
                "pitch": 77,
                "velocity": 51,
                "duration": 0.0841,
                "tempo": 120.0
            },
            {
                "pitch": 72,
                "velocity": 51,
                "duration": 1.0886,
                "tempo": 120.0
            },
            {
                "pitch": 80,
                "velocity": 51,
                "duration": 0.0841,
                "tempo": 120.0
            },
            {
                "pitch": 79,
                "velocity": 51,
                "duration": 0.0841,
                "tempo": 120.0
            },
            {
                "pitch": 77,
                "velocity": 51,
                "duration": 0.7864,
                "tempo": 120.0
            },
            {
                "pitch": 50,
                "velocity": 32,
                "duration": 0.0318,
                "tempo": 120.0
            },
            {
                "pitch": 47,
                "velocity": 32,
                "duration": 0.0341,
                "tempo": 120.0
            },
            {
                "pitch": 43,
                "velocity": 32,
                "duration": 0.0341,
                "tempo": 120.0
            },
            {
                "pitch": 40,
                "velocity": 32,
                "duration": 0.0341,
                "tempo": 120.0
            },
            {
                "pitch": 37,
                "velocity": 32,
                "duration": 0.0318,
                "tempo": 120.0
            },
            {
                "pitch": 34,
                "velocity": 32,
                "duration": 0.0341,
                "tempo": 120.0
            },
            {
                "pitch": 47,
                "velocity": 32,
                "duration": 0.0182,
                "tempo": 120.0
            },
            {
                "pitch": 45,
                "velocity": 32,
                "duration": 0.0159,
                "tempo": 120.0
            },
            {
                "pitch": 43,
                "velocity": 32,
                "duration": 0.0341,
                "tempo": 120.0
            },
            {
                "pitch": 40,
                "velocity": 32,
                "duration": 0.0318,
                "tempo": 120.0
            },
            {
                "pitch": 47,
                "velocity": 32,
                "duration": 0.0182,
                "tempo": 120.0
            },
            {
                "pitch": 45,
                "velocity": 32,
                "duration": 0.0159,
                "tempo": 120.0
            },
            {
                "pitch": 43,
                "velocity": 32,
                "duration": 0.0341,
                "tempo": 120.0
            },
            {
                "pitch": 40,
                "velocity": 32,
                "duration": 0.0341,
                "tempo": 120.0
            },
            {
                "pitch": 50,
                "velocity": 32,
                "duration": 0.0341,
                "tempo": 120.0
            },
            {
                "pitch": 47,
                "velocity": 32,
                "duration": 0.0318,
                "tempo": 120.0
            },
            {
                "pitch": 43,
                "velocity": 32,
                "duration": 0.0341,
                "tempo": 120.0
            },
            {
                "pitch": 50,
                "velocity": 32,
                "duration": 0.0341,
                "tempo": 120.0
            },
            {
                "pitch": 47,
                "velocity": 32,
                "duration": 0.0341,
                "tempo": 120.0
            },
            {
                "pitch": 43,
                "velocity": 32,
                "duration": 0.0318,
                "tempo": 120.0
            },
            {
                "pitch": 47,
                "velocity": 32,
                "duration": 0.0182,
                "tempo": 120.0
            },
            {
                "pitch": 45,
                "velocity": 32,
                "duration": 0.0159,
                "tempo": 120.0
            },
            {
                "pitch": 43,
                "velocity": 32,
                "duration": 0.0341,
                "tempo": 120.0
            },
            {
                "pitch": 40,
                "velocity": 32,
                "duration": 0.0341,
                "tempo": 120.0
            },
            {
                "pitch": 44,
                "velocity": 32,
                "duration": 0.0318,
                "tempo": 120.0
            },
            {
                "pitch": 43,
                "velocity": 32,
                "duration": 0.0682,
                "tempo": 120.0
            },
            {
                "pitch": 65,
                "velocity": 32,
                "duration": 0.0841,
                "tempo": 120.0
            },
            {
                "pitch": 68,
                "velocity": 51,
                "duration": 0.9886,
                "tempo": 120.0
            },
            {
                "pitch": 67,
                "velocity": 51,
                "duration": 0.0841,
                "tempo": 120.0
            },
            {
                "pitch": 65,
                "velocity": 51,
                "duration": 0.9886,
                "tempo": 120.0
            },
            {
                "pitch": 64,
                "velocity": 51,
                "duration": 0.5818,
                "tempo": 120.0
            },
            {
                "pitch": 61,
                "velocity": 51,
                "duration": 0.9909,
                "tempo": 120.0
            },
            {
                "pitch": 47,
                "velocity": 32,
                "duration": 0.0182,
                "tempo": 120.0
            },
            {
                "pitch": 45,
                "velocity": 32,
                "duration": 0.0159,
                "tempo": 120.0
            },
            {
                "pitch": 43,
                "velocity": 32,
                "duration": 0.0341,
                "tempo": 120.0
            },
            {
                "pitch": 40,
                "velocity": 32,
                "duration": 0.0341,
                "tempo": 120.0
            },
            {
                "pitch": 37,
                "velocity": 32,
                "duration": 0.0341,
                "tempo": 120.0
            },
            {
                "pitch": 33,
                "velocity": 32,
                "duration": 0.0159,
                "tempo": 120.0
            },
            {
                "pitch": 31,
                "velocity": 32,
                "duration": 0.0341,
                "tempo": 120.0
            },
            {
                "pitch": 28,
                "velocity": 32,
                "duration": 0.0159,
                "tempo": 120.0
            },
            {
                "pitch": 50,
                "velocity": 32,
                "duration": 0.0341,
                "tempo": 120.0
            },
            {
                "pitch": 47,
                "velocity": 32,
                "duration": 0.0341,
                "tempo": 120.0
            },
            {
                "pitch": 43,
                "velocity": 32,
                "duration": 0.0318,
                "tempo": 120.0
            },
            {
                "pitch": 40,
                "velocity": 32,
                "duration": 0.0341,
                "tempo": 120.0
            },
            {
                "pitch": 37,
                "velocity": 32,
                "duration": 0.0341,
                "tempo": 120.0
            },
            {
                "pitch": 34,
                "velocity": 32,
                "duration": 0.0341,
                "tempo": 120.0
            },
            {
                "pitch": 50,
                "velocity": 32,
                "duration": 0.0318,
                "tempo": 120.0
            },
            {
                "pitch": 47,
                "velocity": 32,
                "duration": 0.0341,
                "tempo": 120.0
            },
            {
                "pitch": 43,
                "velocity": 32,
                "duration": 0.0341,
                "tempo": 120.0
            },
            {
                "pitch": 40,
                "velocity": 32,
                "duration": 0.0318,
                "tempo": 120.0
            },
            {
                "pitch": 37,
                "velocity": 32,
                "duration": 0.0341,
                "tempo": 120.0
            },
            {
                "pitch": 34,
                "velocity": 32,
                "duration": 0.0341,
                "tempo": 120.0
            },
            {
                "pitch": 47,
                "velocity": 32,
                "duration": 0.0159,
                "tempo": 120.0
            },
            {
                "pitch": 45,
                "velocity": 32,
                "duration": 0.0159,
                "tempo": 120.0
            },
            {
                "pitch": 43,
                "velocity": 32,
                "duration": 0.0341,
                "tempo": 120.0
            },
            {
                "pitch": 40,
                "velocity": 32,
                "duration": 0.0341,
                "tempo": 120.0
            },
            {
                "pitch": 37,
                "velocity": 32,
                "duration": 0.0318,
                "tempo": 120.0
            },
            {
                "pitch": 33,
                "velocity": 32,
                "duration": 0.0182,
                "tempo": 120.0
            },
            {
                "pitch": 31,
                "velocity": 32,
                "duration": 0.0318,
                "tempo": 120.0
            },
            {
                "pitch": 28,
                "velocity": 32,
                "duration": 0.0182,
                "tempo": 120.0
            },
            {
                "pitch": 50,
                "velocity": 32,
                "duration": 0.0318,
                "tempo": 120.0
            },
            {
                "pitch": 47,
                "velocity": 32,
                "duration": 0.0341,
                "tempo": 120.0
            },
            {
                "pitch": 43,
                "velocity": 32,
                "duration": 0.0341,
                "tempo": 120.0
            },
            {
                "pitch": 40,
                "velocity": 32,
                "duration": 0.0318,
                "tempo": 120.0
            },
            {
                "pitch": 37,
                "velocity": 32,
                "duration": 0.0341,
                "tempo": 120.0
            },
            {
                "pitch": 34,
                "velocity": 32,
                "duration": 0.0341,
                "tempo": 120.0
            },
            {
                "pitch": 50,
                "velocity": 32,
                "duration": 0.0318,
                "tempo": 120.0
            },
            {
                "pitch": 47,
                "velocity": 32,
                "duration": 0.0341,
                "tempo": 120.0
            },
            {
                "pitch": 43,
                "velocity": 32,
                "duration": 0.0341,
                "tempo": 120.0
            },
            {
                "pitch": 40,
                "velocity": 32,
                "duration": 0.0318,
                "tempo": 120.0
            },
            {
                "pitch": 37,
                "velocity": 32,
                "duration": 0.0341,
                "tempo": 120.0
            },
            {
                "pitch": 34,
                "velocity": 32,
                "duration": 0.0318,
                "tempo": 120.0
            },
            {
                "pitch": 47,
                "velocity": 32,
                "duration": 0.0159,
                "tempo": 120.0
            },
            {
                "pitch": 45,
                "velocity": 32,
                "duration": 0.0182,
                "tempo": 120.0
            },
            {
                "pitch": 43,
                "velocity": 32,
                "duration": 0.0318,
                "tempo": 120.0
            },
            {
                "pitch": 40,
                "velocity": 32,
                "duration": 0.0318,
                "tempo": 120.0
            },
            {
                "pitch": 37,
                "velocity": 32,
                "duration": 0.0341,
                "tempo": 120.0
            },
            {
                "pitch": 33,
                "velocity": 32,
                "duration": 0.0159,
                "tempo": 120.0
            },
            {
                "pitch": 31,
                "velocity": 32,
                "duration": 0.0318,
                "tempo": 120.0
            },
            {
                "pitch": 28,
                "velocity": 32,
                "duration": 0.0159,
                "tempo": 120.0
            },
            {
                "pitch": 44,
                "velocity": 32,
                "duration": 0.0341,
                "tempo": 120.0
            },
            {
                "pitch": 43,
                "velocity": 32,
                "duration": 0.0977,
                "tempo": 120.0
            },
            {
                "pitch": 41,
                "velocity": 32,
                "duration": 0.0659,
                "tempo": 120.0
            },
            {
                "pitch": 65,
                "velocity": 32,
                "duration": 0.0864,
                "tempo": 120.0
            },
            {
                "pitch": 68,
                "velocity": 51,
                "duration": 0.9864,
                "tempo": 120.0
            },
            {
                "pitch": 67,
                "velocity": 51,
                "duration": 0.0841,
                "tempo": 120.0
            },
            {
                "pitch": 65,
                "velocity": 51,
                "duration": 0.9909,
                "tempo": 120.0
            },
            {
                "pitch": 64,
                "velocity": 51,
                "duration": 0.5864,
                "tempo": 120.0
            },
            {
                "pitch": 61,
                "velocity": 51,
                "duration": 0.9864,
                "tempo": 120.0
            },
            {
                "pitch": 50,
                "velocity": 32,
                "duration": 0.0341,
                "tempo": 120.0
            },
            {
                "pitch": 47,
                "velocity": 32,
                "duration": 0.0318,
                "tempo": 120.0
            },
            {
                "pitch": 43,
                "velocity": 32,
                "duration": 0.0341,
                "tempo": 120.0
            },
            {
                "pitch": 50,
                "velocity": 32,
                "duration": 0.0318,
                "tempo": 120.0
            },
            {
                "pitch": 47,
                "velocity": 32,
                "duration": 0.0318,
                "tempo": 120.0
            },
            {
                "pitch": 43,
                "velocity": 32,
                "duration": 0.0341,
                "tempo": 120.0
            },
            {
                "pitch": 47,
                "velocity": 32,
                "duration": 0.0159,
                "tempo": 120.0
            },
            {
                "pitch": 45,
                "velocity": 32,
                "duration": 0.0159,
                "tempo": 120.0
            },
            {
                "pitch": 43,
                "velocity": 32,
                "duration": 0.0318,
                "tempo": 120.0
            },
            {
                "pitch": 40,
                "velocity": 32,
                "duration": 0.0341,
                "tempo": 120.0
            },
            {
                "pitch": 37,
                "velocity": 32,
                "duration": 0.0318,
                "tempo": 120.0
            },
            {
                "pitch": 33,
                "velocity": 32,
                "duration": 0.0159,
                "tempo": 120.0
            },
            {
                "pitch": 31,
                "velocity": 32,
                "duration": 0.0341,
                "tempo": 120.0
            },
            {
                "pitch": 28,
                "velocity": 32,
                "duration": 0.0182,
                "tempo": 120.0
            },
            {
                "pitch": 50,
                "velocity": 32,
                "duration": 0.0341,
                "tempo": 120.0
            },
            {
                "pitch": 47,
                "velocity": 32,
                "duration": 0.0341,
                "tempo": 120.0
            },
            {
                "pitch": 43,
                "velocity": 32,
                "duration": 0.0341,
                "tempo": 120.0
            },
            {
                "pitch": 50,
                "velocity": 32,
                "duration": 0.0341,
                "tempo": 120.0
            },
            {
                "pitch": 47,
                "velocity": 32,
                "duration": 0.0341,
                "tempo": 120.0
            },
            {
                "pitch": 43,
                "velocity": 32,
                "duration": 0.0341,
                "tempo": 120.0
            },
            {
                "pitch": 47,
                "velocity": 32,
                "duration": 0.0182,
                "tempo": 120.0
            },
            {
                "pitch": 45,
                "velocity": 32,
                "duration": 0.0159,
                "tempo": 120.0
            },
            {
                "pitch": 43,
                "velocity": 32,
                "duration": 0.0341,
                "tempo": 120.0
            },
            {
                "pitch": 40,
                "velocity": 32,
                "duration": 0.0341,
                "tempo": 120.0
            },
            {
                "pitch": 37,
                "velocity": 32,
                "duration": 0.0341,
                "tempo": 120.0
            },
            {
                "pitch": 33,
                "velocity": 32,
                "duration": 0.0182,
                "tempo": 120.0
            },
            {
                "pitch": 31,
                "velocity": 32,
                "duration": 0.0341,
                "tempo": 120.0
            },
            {
                "pitch": 28,
                "velocity": 32,
                "duration": 0.0159,
                "tempo": 120.0
            },
            {
                "pitch": 50,
                "velocity": 32,
                "duration": 0.0341,
                "tempo": 120.0
            },
            {
                "pitch": 47,
                "velocity": 32,
                "duration": 0.0341,
                "tempo": 120.0
            },
            {
                "pitch": 43,
                "velocity": 32,
                "duration": 0.0318,
                "tempo": 120.0
            },
            {
                "pitch": 50,
                "velocity": 32,
                "duration": 0.0341,
                "tempo": 120.0
            },
            {
                "pitch": 47,
                "velocity": 32,
                "duration": 0.0341,
                "tempo": 120.0
            },
            {
                "pitch": 43,
                "velocity": 32,
                "duration": 0.0341,
                "tempo": 120.0
            },
            {
                "pitch": 50,
                "velocity": 32,
                "duration": 0.0341,
                "tempo": 120.0
            },
            {
                "pitch": 47,
                "velocity": 32,
                "duration": 0.0318,
                "tempo": 120.0
            },
            {
                "pitch": 43,
                "velocity": 32,
                "duration": 0.0341,
                "tempo": 120.0
            },
            {
                "pitch": 47,
                "velocity": 32,
                "duration": 0.0159,
                "tempo": 120.0
            },
            {
                "pitch": 45,
                "velocity": 32,
                "duration": 0.0182,
                "tempo": 120.0
            },
            {
                "pitch": 43,
                "velocity": 32,
                "duration": 0.0341,
                "tempo": 120.0
            },
            {
                "pitch": 40,
                "velocity": 32,
                "duration": 0.0318,
                "tempo": 120.0
            },
            {
                "pitch": 47,
                "velocity": 32,
                "duration": 0.0182,
                "tempo": 120.0
            },
            {
                "pitch": 45,
                "velocity": 32,
                "duration": 0.0159,
                "tempo": 120.0
            },
            {
                "pitch": 43,
                "velocity": 32,
                "duration": 0.0341,
                "tempo": 120.0
            },
            {
                "pitch": 40,
                "velocity": 32,
                "duration": 0.0318,
                "tempo": 120.0
            },
            {
                "pitch": 47,
                "velocity": 32,
                "duration": 0.0182,
                "tempo": 120.0
            },
            {
                "pitch": 45,
                "velocity": 32,
                "duration": 0.0159,
                "tempo": 120.0
            },
            {
                "pitch": 43,
                "velocity": 32,
                "duration": 0.0341,
                "tempo": 120.0
            },
            {
                "pitch": 40,
                "velocity": 32,
                "duration": 0.0318,
                "tempo": 120.0
            },
            {
                "pitch": 44,
                "velocity": 32,
                "duration": 0.0341,
                "tempo": 120.0
            },
            {
                "pitch": 43,
                "velocity": 32,
                "duration": 0.0659,
                "tempo": 120.0
            },
            {
                "pitch": 44,
                "velocity": 32,
                "duration": 0.0341,
                "tempo": 120.0
            },
            {
                "pitch": 43,
                "velocity": 32,
                "duration": 0.0659,
                "tempo": 120.0
            }
        ]
    }
}