{
    "track_id": "Phantasy Star (FM) - 15 - Tower",
    "mood": "angry",
    "instruments": {
        "Trumpet": [
            {
                "pitch": 57,
                "velocity": 51,
                "duration": 0.0841,
                "tempo": 120.0
            },
            {
                "pitch": 59,
                "velocity": 51,
                "duration": 0.0841,
                "tempo": 120.0
            },
            {
                "pitch": 60,
                "velocity": 51,
                "duration": 0.1841,
                "tempo": 120.0
            },
            {
                "pitch": 60,
                "velocity": 51,
                "duration": 0.1841,
                "tempo": 120.0
            },
            {
                "pitch": 59,
                "velocity": 51,
                "duration": 0.0841,
                "tempo": 120.0
            },
            {
                "pitch": 57,
                "velocity": 51,
                "duration": 0.05,
                "tempo": 120.0
            },
            {
                "pitch": 57,
                "velocity": 51,
                "duration": 0.1182,
                "tempo": 120.0
            },
            {
                "pitch": 59,
                "velocity": 51,
                "duration": 0.0841,
                "tempo": 120.0
            },
            {
                "pitch": 60,
                "velocity": 51,
                "duration": 0.1841,
                "tempo": 120.0
            },
            {
                "pitch": 60,
                "velocity": 51,
                "duration": 0.1841,
                "tempo": 120.0
            },
            {
                "pitch": 59,
                "velocity": 51,
                "duration": 0.0841,
                "tempo": 120.0
            },
            {
                "pitch": 57,
                "velocity": 51,
                "duration": 0.8841,
                "tempo": 120.0
            },
            {
                "pitch": 53,
                "velocity": 51,
                "duration": 1.3886,
                "tempo": 120.0
            },
            {
                "pitch": 50,
                "velocity": 51,
                "duration": 0.1841,
                "tempo": 120.0
            },
            {
                "pitch": 50,
                "velocity": 51,
                "duration": 1.1182,
                "tempo": 120.0
            },
            {
                "pitch": 57,
                "velocity": 51,
                "duration": 0.0841,
                "tempo": 120.0
            },
            {
                "pitch": 59,
                "velocity": 51,
                "duration": 0.0841,
                "tempo": 120.0
            },
            {
                "pitch": 60,
                "velocity": 51,
                "duration": 0.1864,
                "tempo": 120.0
            },
            {
                "pitch": 60,
                "velocity": 51,
                "duration": 0.1841,
                "tempo": 120.0
            },
            {
                "pitch": 59,
                "velocity": 51,
                "duration": 0.0841,
                "tempo": 120.0
            },
            {
                "pitch": 57,
                "velocity": 51,
                "duration": 0.05,
                "tempo": 120.0
            },
            {
                "pitch": 57,
                "velocity": 51,
                "duration": 0.0841,
                "tempo": 120.0
            },
            {
                "pitch": 59,
                "velocity": 51,
                "duration": 0.0818,
                "tempo": 120.0
            },
            {
                "pitch": 60,
                "velocity": 51,
                "duration": 0.1841,
                "tempo": 120.0
            },
            {
                "pitch": 60,
                "velocity": 51,
                "duration": 0.1864,
                "tempo": 120.0
            },
            {
                "pitch": 59,
                "velocity": 51,
                "duration": 0.0841,
                "tempo": 120.0
            },
            {
                "pitch": 57,
                "velocity": 51,
                "duration": 0.8864,
                "tempo": 120.0
            },
            {
                "pitch": 59,
                "velocity": 51,
                "duration": 1.5932,
                "tempo": 120.0
            },
            {
                "pitch": 59,
                "velocity": 51,
                "duration": 1.5909,
                "tempo": 120.0
            },
            {
                "pitch": 57,
                "velocity": 51,
                "duration": 0.0841,
                "tempo": 120.0
            },
            {
                "pitch": 59,
                "velocity": 51,
                "duration": 0.0841,
                "tempo": 120.0
            },
            {
                "pitch": 60,
                "velocity": 51,
                "duration": 0.1841,
                "tempo": 120.0
            },
            {
                "pitch": 60,
                "velocity": 51,
                "duration": 0.1841,
                "tempo": 120.0
            },
            {
                "pitch": 59,
                "velocity": 51,
                "duration": 0.0841,
                "tempo": 120.0
            },
            {
                "pitch": 57,
                "velocity": 51,
                "duration": 0.05,
                "tempo": 120.0
            },
            {
                "pitch": 57,
                "velocity": 51,
                "duration": 0.0841,
                "tempo": 120.0
            },
            {
                "pitch": 59,
                "velocity": 51,
                "duration": 0.0841,
                "tempo": 120.0
            },
            {
                "pitch": 60,
                "velocity": 51,
                "duration": 0.1841,
                "tempo": 120.0
            },
            {
                "pitch": 60,
                "velocity": 51,
                "duration": 0.1841,
                "tempo": 120.0
            },
            {
                "pitch": 59,
                "velocity": 51,
                "duration": 0.0841,
                "tempo": 120.0
            },
            {
                "pitch": 57,
                "velocity": 51,
                "duration": 0.8864,
                "tempo": 120.0
            },
            {
                "pitch": 57,
                "velocity": 51,
                "duration": 1.3886,
                "tempo": 120.0
            },
            {
                "pitch": 50,
                "velocity": 51,
                "duration": 0.1818,
                "tempo": 120.0
            },
            {
                "pitch": 50,
                "velocity": 51,
                "duration": 1.1182,
                "tempo": 120.0
            },
            {
                "pitch": 57,
                "velocity": 51,
                "duration": 0.0841,
                "tempo": 120.0
            },
            {
                "pitch": 59,
                "velocity": 51,
                "duration": 0.0841,
                "tempo": 120.0
            },
            {
                "pitch": 60,
                "velocity": 51,
                "duration": 0.1841,
                "tempo": 120.0
            },
            {
                "pitch": 60,
                "velocity": 51,
                "duration": 0.1841,
                "tempo": 120.0
            },
            {
                "pitch": 59,
                "velocity": 51,
                "duration": 0.0841,
                "tempo": 120.0
            },
            {
                "pitch": 57,
                "velocity": 51,
                "duration": 0.05,
                "tempo": 120.0
            },
            {
                "pitch": 57,
                "velocity": 51,
                "duration": 0.0841,
                "tempo": 120.0
            },
            {
                "pitch": 59,
                "velocity": 51,
                "duration": 0.0841,
                "tempo": 120.0
            },
            {
                "pitch": 60,
                "velocity": 51,
                "duration": 0.1841,
                "tempo": 120.0
            },
            {
                "pitch": 60,
                "velocity": 51,
                "duration": 0.1841,
                "tempo": 120.0
            },
            {
                "pitch": 59,
                "velocity": 51,
                "duration": 0.0841,
                "tempo": 120.0
            },
            {
                "pitch": 57,
                "velocity": 51,
                "duration": 0.8864,
                "tempo": 120.0
            },
            {
                "pitch": 59,
                "velocity": 51,
                "duration": 1.5886,
                "tempo": 120.0
            },
            {
                "pitch": 64,
                "velocity": 51,
                "duration": 1.5864,
                "tempo": 120.0
            },
            {
                "pitch": 64,
                "velocity": 51,
                "duration": 0.7864,
                "tempo": 120.0
            },
            {
                "pitch": 71,
                "velocity": 51,
                "duration": 0.7864,
                "tempo": 120.0
            },
            {
                "pitch": 68,
                "velocity": 51,
                "duration": 0.7864,
                "tempo": 120.0
            },
            {
                "pitch": 64,
                "velocity": 51,
                "duration": 0.7818,
                "tempo": 120.0
            },
            {
                "pitch": 60,
                "velocity": 51,
                "duration": 0.7841,
                "tempo": 120.0
            },
            {
                "pitch": 69,
                "velocity": 51,
                "duration": 0.7864,
                "tempo": 120.0
            },
            {
                "pitch": 71,
                "velocity": 51,
                "duration": 1.5886,
                "tempo": 120.0
            },
            {
                "pitch": 65,
                "velocity": 51,
                "duration": 0.1841,
                "tempo": 120.0
            },
            {
                "pitch": 62,
                "velocity": 51,
                "duration": 0.3841,
                "tempo": 120.0
            },
            {
                "pitch": 69,
                "velocity": 51,
                "duration": 0.3841,
                "tempo": 120.0
            },
            {
                "pitch": 62,
                "velocity": 51,
                "duration": 0.1841,
                "tempo": 120.0
            },
            {
                "pitch": 71,
                "velocity": 51,
                "duration": 0.1841,
                "tempo": 120.0
            },
            {
                "pitch": 62,
                "velocity": 51,
                "duration": 0.1841,
                "tempo": 120.0
            },
            {
                "pitch": 65,
                "velocity": 51,
                "duration": 0.1841,
                "tempo": 120.0
            },
            {
                "pitch": 62,
                "velocity": 51,
                "duration": 0.5841,
                "tempo": 120.0
            },
            {
                "pitch": 69,
                "velocity": 51,
                "duration": 0.3841,
                "tempo": 120.0
            },
            {
                "pitch": 62,
                "velocity": 51,
                "duration": 0.3841,
                "tempo": 120.0
            },
            {
                "pitch": 59,
                "velocity": 51,
                "duration": 0.1864,
                "tempo": 120.0
            },
            {
                "pitch": 59,
                "velocity": 51,
                "duration": 0.3841,
                "tempo": 120.0
            },
            {
                "pitch": 59,
                "velocity": 51,
                "duration": 0.5818,
                "tempo": 120.0
            },
            {
                "pitch": 67,
                "velocity": 51,
                "duration": 1.9841,
                "tempo": 120.0
            },
            {
                "pitch": 64,
                "velocity": 51,
                "duration": 0.7818,
                "tempo": 120.0
            },
            {
                "pitch": 71,
                "velocity": 51,
                "duration": 0.7864,
                "tempo": 120.0
            },
            {
                "pitch": 68,
                "velocity": 51,
                "duration": 0.7841,
                "tempo": 120.0
            },
            {
                "pitch": 64,
                "velocity": 51,
                "duration": 0.7864,
                "tempo": 120.0
            },
            {
                "pitch": 60,
                "velocity": 51,
                "duration": 0.7841,
                "tempo": 120.0
            },
            {
                "pitch": 69,
                "velocity": 51,
                "duration": 0.7841,
                "tempo": 120.0
            },
            {
                "pitch": 71,
                "velocity": 51,
                "duration": 1.5864,
                "tempo": 120.0
            },
            {
                "pitch": 59,
                "velocity": 51,
                "duration": 0.1841,
                "tempo": 120.0
            },
            {
                "pitch": 55,
                "velocity": 51,
                "duration": 0.1841,
                "tempo": 120.0
            },
            {
                "pitch": 62,
                "velocity": 51,
                "duration": 0.1864,
                "tempo": 120.0
            },
            {
                "pitch": 55,
                "velocity": 51,
                "duration": 0.1841,
                "tempo": 120.0
            },
            {
                "pitch": 64,
                "velocity": 51,
                "duration": 0.1818,
                "tempo": 120.0
            },
            {
                "pitch": 55,
                "velocity": 51,
                "duration": 0.1818,
                "tempo": 120.0
            },
            {
                "pitch": 62,
                "velocity": 51,
                "duration": 0.1818,
                "tempo": 120.0
            },
            {
                "pitch": 55,
                "velocity": 51,
                "duration": 0.1818,
                "tempo": 120.0
            },
            {
                "pitch": 59,
                "velocity": 51,
                "duration": 0.1818,
                "tempo": 120.0
            },
            {
                "pitch": 55,
                "velocity": 51,
                "duration": 0.1818,
                "tempo": 120.0
            },
            {
                "pitch": 62,
                "velocity": 51,
                "duration": 0.1818,
                "tempo": 120.0
            },
            {
                "pitch": 55,
                "velocity": 51,
                "duration": 0.1818,
                "tempo": 120.0
            },
            {
                "pitch": 62,
                "velocity": 51,
                "duration": 0.1841,
                "tempo": 120.0
            },
            {
                "pitch": 55,
                "velocity": 51,
                "duration": 0.1841,
                "tempo": 120.0
            },
            {
                "pitch": 62,
                "velocity": 51,
                "duration": 0.1818,
                "tempo": 120.0
            },
            {
                "pitch": 55,
                "velocity": 51,
                "duration": 0.1818,
                "tempo": 120.0
            },
            {
                "pitch": 57,
                "velocity": 51,
                "duration": 0.1818,
                "tempo": 120.0
            },
            {
                "pitch": 59,
                "velocity": 51,
                "duration": 0.1818,
                "tempo": 120.0
            },
            {
                "pitch": 60,
                "velocity": 51,
                "duration": 0.1818,
                "tempo": 120.0
            },
            {
                "pitch": 62,
                "velocity": 51,
                "duration": 0.1818,
                "tempo": 120.0
            },
            {
                "pitch": 59,
                "velocity": 51,
                "duration": 0.1818,
                "tempo": 120.0
            },
            {
                "pitch": 60,
                "velocity": 51,
                "duration": 0.1818,
                "tempo": 120.0
            },
            {
                "pitch": 62,
                "velocity": 51,
                "duration": 0.1841,
                "tempo": 120.0
            },
            {
                "pitch": 64,
                "velocity": 51,
                "duration": 0.1864,
                "tempo": 120.0
            },
            {
                "pitch": 60,
                "velocity": 51,
                "duration": 0.1841,
                "tempo": 120.0
            },
            {
                "pitch": 62,
                "velocity": 51,
                "duration": 0.1841,
                "tempo": 120.0
            },
            {
                "pitch": 64,
                "velocity": 51,
                "duration": 0.1841,
                "tempo": 120.0
            },
            {
                "pitch": 65,
                "velocity": 51,
                "duration": 0.1841,
                "tempo": 120.0
            },
            {
                "pitch": 67,
                "velocity": 51,
                "duration": 0.3841,
                "tempo": 120.0
            },
            {
                "pitch": 67,
                "velocity": 51,
                "duration": 0.3841,
                "tempo": 120.0
            }
        ],
        "Electric Guitar (clean)": [
            {
                "pitch": 68,
                "velocity": 80,
                "duration": 1.1864,
                "tempo": 120.0
            },
            {
                "pitch": 64,
                "velocity": 80,
                "duration": 0.3864,
                "tempo": 120.0
            },
            {
                "pitch": 65,
                "velocity": 80,
                "duration": 0.7864,
                "tempo": 120.0
            },
            {
                "pitch": 64,
                "velocity": 80,
                "duration": 0.3818,
                "tempo": 120.0
            },
            {
                "pitch": 62,
                "velocity": 80,
                "duration": 0.7841,
                "tempo": 120.0
            },
            {
                "pitch": 60,
                "velocity": 80,
                "duration": 0.3818,
                "tempo": 120.0
            },
            {
                "pitch": 62,
                "velocity": 80,
                "duration": 0.3864,
                "tempo": 120.0
            },
            {
                "pitch": 64,
                "velocity": 80,
                "duration": 0.3841,
                "tempo": 120.0
            },
            {
                "pitch": 55,
                "velocity": 80,
                "duration": 1.1523,
                "tempo": 120.0
            },
            {
                "pitch": 62,
                "velocity": 80,
                "duration": 1.1841,
                "tempo": 120.0
            },
            {
                "pitch": 64,
                "velocity": 80,
                "duration": 0.3864,
                "tempo": 120.0
            },
            {
                "pitch": 65,
                "velocity": 80,
                "duration": 0.7841,
                "tempo": 120.0
            },
            {
                "pitch": 64,
                "velocity": 80,
                "duration": 0.3841,
                "tempo": 120.0
            },
            {
                "pitch": 62,
                "velocity": 80,
                "duration": 0.3841,
                "tempo": 120.0
            },
            {
                "pitch": 59,
                "velocity": 80,
                "duration": 1.1864,
                "tempo": 120.0
            },
            {
                "pitch": 67,
                "velocity": 80,
                "duration": 0.3818,
                "tempo": 120.0
            },
            {
                "pitch": 64,
                "velocity": 80,
                "duration": 0.7841,
                "tempo": 120.0
            },
            {
                "pitch": 64,
                "velocity": 80,
                "duration": 0.3818,
                "tempo": 120.0
            },
            {
                "pitch": 67,
                "velocity": 80,
                "duration": 0.3818,
                "tempo": 120.0
            },
            {
                "pitch": 68,
                "velocity": 80,
                "duration": 1.1864,
                "tempo": 120.0
            },
            {
                "pitch": 64,
                "velocity": 80,
                "duration": 0.3841,
                "tempo": 120.0
            },
            {
                "pitch": 65,
                "velocity": 80,
                "duration": 0.7841,
                "tempo": 120.0
            },
            {
                "pitch": 64,
                "velocity": 80,
                "duration": 0.3841,
                "tempo": 120.0
            },
            {
                "pitch": 62,
                "velocity": 80,
                "duration": 0.7864,
                "tempo": 120.0
            },
            {
                "pitch": 60,
                "velocity": 80,
                "duration": 0.3841,
                "tempo": 120.0
            },
            {
                "pitch": 62,
                "velocity": 80,
                "duration": 0.3841,
                "tempo": 120.0
            },
            {
                "pitch": 64,
                "velocity": 80,
                "duration": 0.3841,
                "tempo": 120.0
            },
            {
                "pitch": 55,
                "velocity": 80,
                "duration": 1.1523,
                "tempo": 120.0
            },
            {
                "pitch": 59,
                "velocity": 80,
                "duration": 1.1864,
                "tempo": 120.0
            },
            {
                "pitch": 69,
                "velocity": 80,
                "duration": 0.3818,
                "tempo": 120.0
            },
            {
                "pitch": 67,
                "velocity": 80,
                "duration": 0.7818,
                "tempo": 120.0
            },
            {
                "pitch": 65,
                "velocity": 80,
                "duration": 0.3841,
                "tempo": 120.0
            },
            {
                "pitch": 64,
                "velocity": 80,
                "duration": 0.3818,
                "tempo": 120.0
            }
        ],
        "Oboe": [
            {
                "pitch": 60,
                "velocity": 80,
                "duration": 0.1818,
                "tempo": 120.0
            },
            {
                "pitch": 62,
                "velocity": 80,
                "duration": 0.1818,
                "tempo": 120.0
            },
            {
                "pitch": 64,
                "velocity": 80,
                "duration": 0.1818,
                "tempo": 120.0
            },
            {
                "pitch": 65,
                "velocity": 80,
                "duration": 0.1818,
                "tempo": 120.0
            },
            {
                "pitch": 62,
                "velocity": 80,
                "duration": 0.1818,
                "tempo": 120.0
            },
            {
                "pitch": 64,
                "velocity": 80,
                "duration": 0.1818,
                "tempo": 120.0
            },
            {
                "pitch": 65,
                "velocity": 80,
                "duration": 0.1841,
                "tempo": 120.0
            },
            {
                "pitch": 67,
                "velocity": 80,
                "duration": 0.1864,
                "tempo": 120.0
            },
            {
                "pitch": 64,
                "velocity": 80,
                "duration": 0.1841,
                "tempo": 120.0
            },
            {
                "pitch": 65,
                "velocity": 80,
                "duration": 0.1841,
                "tempo": 120.0
            },
            {
                "pitch": 67,
                "velocity": 80,
                "duration": 0.1841,
                "tempo": 120.0
            },
            {
                "pitch": 69,
                "velocity": 80,
                "duration": 0.1841,
                "tempo": 120.0
            },
            {
                "pitch": 72,
                "velocity": 80,
                "duration": 0.3841,
                "tempo": 120.0
            },
            {
                "pitch": 71,
                "velocity": 80,
                "duration": 0.3841,
                "tempo": 120.0
            }
        ],
        "Lead 2 (sawtooth)": [
            {
                "pitch": 33,
                "velocity": 51,
                "duration": 0.3841,
                "tempo": 120.0
            },
            {
                "pitch": 33,
                "velocity": 51,
                "duration": 0.3841,
                "tempo": 120.0
            },
            {
                "pitch": 33,
                "velocity": 51,
                "duration": 0.3841,
                "tempo": 120.0
            },
            {
                "pitch": 33,
                "velocity": 51,
                "duration": 0.3841,
                "tempo": 120.0
            },
            {
                "pitch": 33,
                "velocity": 51,
                "duration": 0.3864,
                "tempo": 120.0
            },
            {
                "pitch": 33,
                "velocity": 51,
                "duration": 0.3841,
                "tempo": 120.0
            },
            {
                "pitch": 33,
                "velocity": 51,
                "duration": 0.3841,
                "tempo": 120.0
            },
            {
                "pitch": 33,
                "velocity": 51,
                "duration": 0.3841,
                "tempo": 120.0
            },
            {
                "pitch": 29,
                "velocity": 51,
                "duration": 0.3864,
                "tempo": 120.0
            },
            {
                "pitch": 29,
                "velocity": 51,
                "duration": 0.3841,
                "tempo": 120.0
            },
            {
                "pitch": 29,
                "velocity": 51,
                "duration": 0.3841,
                "tempo": 120.0
            },
            {
                "pitch": 29,
                "velocity": 51,
                "duration": 0.3864,
                "tempo": 120.0
            },
            {
                "pitch": 31,
                "velocity": 51,
                "duration": 0.3818,
                "tempo": 120.0
            },
            {
                "pitch": 31,
                "velocity": 51,
                "duration": 0.3841,
                "tempo": 120.0
            },
            {
                "pitch": 31,
                "velocity": 51,
                "duration": 0.3818,
                "tempo": 120.0
            },
            {
                "pitch": 31,
                "velocity": 51,
                "duration": 0.3864,
                "tempo": 120.0
            },
            {
                "pitch": 33,
                "velocity": 51,
                "duration": 0.3864,
                "tempo": 120.0
            },
            {
                "pitch": 33,
                "velocity": 51,
                "duration": 0.3841,
                "tempo": 120.0
            },
            {
                "pitch": 33,
                "velocity": 51,
                "duration": 0.3864,
                "tempo": 120.0
            },
            {
                "pitch": 33,
                "velocity": 51,
                "duration": 0.3841,
                "tempo": 120.0
            },
            {
                "pitch": 33,
                "velocity": 51,
                "duration": 0.3864,
                "tempo": 120.0
            },
            {
                "pitch": 33,
                "velocity": 51,
                "duration": 0.3864,
                "tempo": 120.0
            },
            {
                "pitch": 33,
                "velocity": 51,
                "duration": 0.3841,
                "tempo": 120.0
            },
            {
                "pitch": 33,
                "velocity": 51,
                "duration": 0.3818,
                "tempo": 120.0
            },
            {
                "pitch": 29,
                "velocity": 51,
                "duration": 0.3864,
                "tempo": 120.0
            },
            {
                "pitch": 29,
                "velocity": 51,
                "duration": 0.3864,
                "tempo": 120.0
            },
            {
                "pitch": 29,
                "velocity": 51,
                "duration": 0.3864,
                "tempo": 120.0
            },
            {
                "pitch": 29,
                "velocity": 51,
                "duration": 0.3864,
                "tempo": 120.0
            },
            {
                "pitch": 40,
                "velocity": 51,
                "duration": 0.3818,
                "tempo": 120.0
            },
            {
                "pitch": 40,
                "velocity": 51,
                "duration": 0.3841,
                "tempo": 120.0
            },
            {
                "pitch": 40,
                "velocity": 51,
                "duration": 0.3864,
                "tempo": 120.0
            },
            {
                "pitch": 40,
                "velocity": 51,
                "duration": 0.3864,
                "tempo": 120.0
            },
            {
                "pitch": 33,
                "velocity": 51,
                "duration": 0.3864,
                "tempo": 120.0
            },
            {
                "pitch": 33,
                "velocity": 51,
                "duration": 0.3841,
                "tempo": 120.0
            },
            {
                "pitch": 33,
                "velocity": 51,
                "duration": 0.3864,
                "tempo": 120.0
            },
            {
                "pitch": 33,
                "velocity": 51,
                "duration": 0.3864,
                "tempo": 120.0
            },
            {
                "pitch": 33,
                "velocity": 51,
                "duration": 0.3841,
                "tempo": 120.0
            },
            {
                "pitch": 33,
                "velocity": 51,
                "duration": 0.3864,
                "tempo": 120.0
            },
            {
                "pitch": 33,
                "velocity": 51,
                "duration": 0.3841,
                "tempo": 120.0
            },
            {
                "pitch": 33,
                "velocity": 51,
                "duration": 0.3864,
                "tempo": 120.0
            },
            {
                "pitch": 29,
                "velocity": 51,
                "duration": 0.3864,
                "tempo": 120.0
            },
            {
                "pitch": 29,
                "velocity": 51,
                "duration": 0.3841,
                "tempo": 120.0
            },
            {
                "pitch": 29,
                "velocity": 51,
                "duration": 0.3864,
                "tempo": 120.0
            },
            {
                "pitch": 29,
                "velocity": 51,
                "duration": 0.3818,
                "tempo": 120.0
            },
            {
                "pitch": 31,
                "velocity": 51,
                "duration": 0.3841,
                "tempo": 120.0
            },
            {
                "pitch": 31,
                "velocity": 51,
                "duration": 0.3818,
                "tempo": 120.0
            },
            {
                "pitch": 31,
                "velocity": 51,
                "duration": 0.3818,
                "tempo": 120.0
            },
            {
                "pitch": 31,
                "velocity": 51,
                "duration": 0.3864,
                "tempo": 120.0
            },
            {
                "pitch": 33,
                "velocity": 51,
                "duration": 0.3841,
                "tempo": 120.0
            },
            {
                "pitch": 33,
                "velocity": 51,
                "duration": 0.3864,
                "tempo": 120.0
            },
            {
                "pitch": 33,
                "velocity": 51,
                "duration": 0.3841,
                "tempo": 120.0
            },
            {
                "pitch": 33,
                "velocity": 51,
                "duration": 0.3841,
                "tempo": 120.0
            },
            {
                "pitch": 33,
                "velocity": 51,
                "duration": 0.3864,
                "tempo": 120.0
            },
            {
                "pitch": 33,
                "velocity": 51,
                "duration": 0.3841,
                "tempo": 120.0
            },
            {
                "pitch": 33,
                "velocity": 51,
                "duration": 0.3864,
                "tempo": 120.0
            },
            {
                "pitch": 33,
                "velocity": 51,
                "duration": 0.3841,
                "tempo": 120.0
            },
            {
                "pitch": 29,
                "velocity": 51,
                "duration": 0.3841,
                "tempo": 120.0
            },
            {
                "pitch": 29,
                "velocity": 51,
                "duration": 0.3864,
                "tempo": 120.0
            },
            {
                "pitch": 29,
                "velocity": 51,
                "duration": 0.3818,
                "tempo": 120.0
            },
            {
                "pitch": 29,
                "velocity": 51,
                "duration": 0.3841,
                "tempo": 120.0
            },
            {
                "pitch": 31,
                "velocity": 51,
                "duration": 0.3818,
                "tempo": 120.0
            },
            {
                "pitch": 31,
                "velocity": 51,
                "duration": 0.3818,
                "tempo": 120.0
            },
            {
                "pitch": 31,
                "velocity": 51,
                "duration": 0.3864,
                "tempo": 120.0
            },
            {
                "pitch": 31,
                "velocity": 51,
                "duration": 0.3841,
                "tempo": 120.0
            },
            {
                "pitch": 40,
                "velocity": 51,
                "duration": 0.3864,
                "tempo": 120.0
            },
            {
                "pitch": 40,
                "velocity": 51,
                "duration": 0.3841,
                "tempo": 120.0
            },
            {
                "pitch": 40,
                "velocity": 51,
                "duration": 0.3841,
                "tempo": 120.0
            },
            {
                "pitch": 40,
                "velocity": 51,
                "duration": 0.3864,
                "tempo": 120.0
            },
            {
                "pitch": 40,
                "velocity": 51,
                "duration": 0.3841,
                "tempo": 120.0
            },
            {
                "pitch": 40,
                "velocity": 51,
                "duration": 0.3864,
                "tempo": 120.0
            },
            {
                "pitch": 40,
                "velocity": 51,
                "duration": 0.3818,
                "tempo": 120.0
            },
            {
                "pitch": 40,
                "velocity": 51,
                "duration": 0.3818,
                "tempo": 120.0
            },
            {
                "pitch": 36,
                "velocity": 51,
                "duration": 0.3841,
                "tempo": 120.0
            },
            {
                "pitch": 36,
                "velocity": 51,
                "duration": 0.3818,
                "tempo": 120.0
            },
            {
                "pitch": 36,
                "velocity": 51,
                "duration": 0.3864,
                "tempo": 120.0
            },
            {
                "pitch": 36,
                "velocity": 51,
                "duration": 0.3841,
                "tempo": 120.0
            },
            {
                "pitch": 36,
                "velocity": 51,
                "duration": 0.3841,
                "tempo": 120.0
            },
            {
                "pitch": 36,
                "velocity": 51,
                "duration": 0.3864,
                "tempo": 120.0
            },
            {
                "pitch": 36,
                "velocity": 51,
                "duration": 0.3841,
                "tempo": 120.0
            },
            {
                "pitch": 36,
                "velocity": 51,
                "duration": 0.3864,
                "tempo": 120.0
            },
            {
                "pitch": 38,
                "velocity": 51,
                "duration": 0.3841,
                "tempo": 120.0
            },
            {
                "pitch": 38,
                "velocity": 51,
                "duration": 0.3841,
                "tempo": 120.0
            },
            {
                "pitch": 38,
                "velocity": 51,
                "duration": 0.3841,
                "tempo": 120.0
            },
            {
                "pitch": 38,
                "velocity": 51,
                "duration": 0.3864,
                "tempo": 120.0
            },
            {
                "pitch": 38,
                "velocity": 51,
                "duration": 0.3841,
                "tempo": 120.0
            },
            {
                "pitch": 38,
                "velocity": 51,
                "duration": 0.3841,
                "tempo": 120.0
            },
            {
                "pitch": 38,
                "velocity": 51,
                "duration": 0.3841,
                "tempo": 120.0
            },
            {
                "pitch": 38,
                "velocity": 51,
                "duration": 0.3841,
                "tempo": 120.0
            },
            {
                "pitch": 35,
                "velocity": 51,
                "duration": 0.3864,
                "tempo": 120.0
            },
            {
                "pitch": 35,
                "velocity": 51,
                "duration": 0.3818,
                "tempo": 120.0
            },
            {
                "pitch": 35,
                "velocity": 51,
                "duration": 0.3818,
                "tempo": 120.0
            },
            {
                "pitch": 35,
                "velocity": 51,
                "duration": 0.3818,
                "tempo": 120.0
            },
            {
                "pitch": 36,
                "velocity": 51,
                "duration": 0.3818,
                "tempo": 120.0
            },
            {
                "pitch": 36,
                "velocity": 51,
                "duration": 0.3841,
                "tempo": 120.0
            },
            {
                "pitch": 36,
                "velocity": 51,
                "duration": 0.3818,
                "tempo": 120.0
            },
            {
                "pitch": 36,
                "velocity": 51,
                "duration": 0.3818,
                "tempo": 120.0
            },
            {
                "pitch": 40,
                "velocity": 51,
                "duration": 0.3818,
                "tempo": 120.0
            },
            {
                "pitch": 40,
                "velocity": 51,
                "duration": 0.3818,
                "tempo": 120.0
            },
            {
                "pitch": 40,
                "velocity": 51,
                "duration": 0.3864,
                "tempo": 120.0
            },
            {
                "pitch": 40,
                "velocity": 51,
                "duration": 0.3841,
                "tempo": 120.0
            },
            {
                "pitch": 40,
                "velocity": 51,
                "duration": 0.3841,
                "tempo": 120.0
            },
            {
                "pitch": 40,
                "velocity": 51,
                "duration": 0.3841,
                "tempo": 120.0
            },
            {
                "pitch": 40,
                "velocity": 51,
                "duration": 0.3841,
                "tempo": 120.0
            },
            {
                "pitch": 40,
                "velocity": 51,
                "duration": 0.3864,
                "tempo": 120.0
            },
            {
                "pitch": 36,
                "velocity": 51,
                "duration": 0.3841,
                "tempo": 120.0
            },
            {
                "pitch": 36,
                "velocity": 51,
                "duration": 0.3841,
                "tempo": 120.0
            },
            {
                "pitch": 36,
                "velocity": 51,
                "duration": 0.3841,
                "tempo": 120.0
            },
            {
                "pitch": 36,
                "velocity": 51,
                "duration": 0.3841,
                "tempo": 120.0
            },
            {
                "pitch": 36,
                "velocity": 51,
                "duration": 0.3864,
                "tempo": 120.0
            },
            {
                "pitch": 36,
                "velocity": 51,
                "duration": 0.3841,
                "tempo": 120.0
            },
            {
                "pitch": 36,
                "velocity": 51,
                "duration": 0.3841,
                "tempo": 120.0
            },
            {
                "pitch": 36,
                "velocity": 51,
                "duration": 0.3841,
                "tempo": 120.0
            },
            {
                "pitch": 35,
                "velocity": 51,
                "duration": 0.3841,
                "tempo": 120.0
            },
            {
                "pitch": 35,
                "velocity": 51,
                "duration": 0.3864,
                "tempo": 120.0
            },
            {
                "pitch": 35,
                "velocity": 51,
                "duration": 0.3818,
                "tempo": 120.0
            },
            {
                "pitch": 35,
                "velocity": 51,
                "duration": 0.3818,
                "tempo": 120.0
            },
            {
                "pitch": 35,
                "velocity": 51,
                "duration": 0.3818,
                "tempo": 120.0
            },
            {
                "pitch": 35,
                "velocity": 51,
                "duration": 0.3818,
                "tempo": 120.0
            },
            {
                "pitch": 35,
                "velocity": 51,
                "duration": 0.3841,
                "tempo": 120.0
            },
            {
                "pitch": 35,
                "velocity": 51,
                "duration": 0.3818,
                "tempo": 120.0
            },
            {
                "pitch": 29,
                "velocity": 51,
                "duration": 0.3818,
                "tempo": 120.0
            },
            {
                "pitch": 29,
                "velocity": 51,
                "duration": 0.3818,
                "tempo": 120.0
            },
            {
                "pitch": 29,
                "velocity": 51,
                "duration": 0.3818,
                "tempo": 120.0
            },
            {
                "pitch": 29,
                "velocity": 51,
                "duration": 0.3864,
                "tempo": 120.0
            },
            {
                "pitch": 31,
                "velocity": 51,
                "duration": 0.3841,
                "tempo": 120.0
            },
            {
                "pitch": 31,
                "velocity": 51,
                "duration": 0.3841,
                "tempo": 120.0
            },
            {
                "pitch": 31,
                "velocity": 51,
                "duration": 0.3841,
                "tempo": 120.0
            },
            {
                "pitch": 31,
                "velocity": 51,
                "duration": 0.3841,
                "tempo": 120.0
            }
        ]
    }
}