{
    "track_id": "Power Strike, Aleste (FM) - 05 - The Devastation",
    "mood": "angry",
    "instruments": {
        "Violin": [
            {
                "pitch": 59,
                "velocity": 127,
                "duration": 1.3318,
                "tempo": 120.0
            },
            {
                "pitch": 71,
                "velocity": 127,
                "duration": 0.2432,
                "tempo": 120.0
            },
            {
                "pitch": 66,
                "velocity": 127,
                "duration": 2.0136,
                "tempo": 120.0
            },
            {
                "pitch": 65,
                "velocity": 127,
                "duration": 1.3909,
                "tempo": 120.0
            },
            {
                "pitch": 57,
                "velocity": 127,
                "duration": 0.2227,
                "tempo": 120.0
            },
            {
                "pitch": 59,
                "velocity": 127,
                "duration": 2.0341,
                "tempo": 120.0
            },
            {
                "pitch": 59,
                "velocity": 127,
                "duration": 1.3545,
                "tempo": 120.0
            },
            {
                "pitch": 71,
                "velocity": 127,
                "duration": 0.2386,
                "tempo": 120.0
            },
            {
                "pitch": 66,
                "velocity": 127,
                "duration": 2.0341,
                "tempo": 120.0
            },
            {
                "pitch": 65,
                "velocity": 127,
                "duration": 1.375,
                "tempo": 120.0
            },
            {
                "pitch": 57,
                "velocity": 127,
                "duration": 0.2227,
                "tempo": 120.0
            },
            {
                "pitch": 59,
                "velocity": 127,
                "duration": 9.2818,
                "tempo": 120.0
            },
            {
                "pitch": 62,
                "velocity": 127,
                "duration": 0.2386,
                "tempo": 120.0
            },
            {
                "pitch": 59,
                "velocity": 127,
                "duration": 0.4523,
                "tempo": 120.0
            },
            {
                "pitch": 65,
                "velocity": 127,
                "duration": 0.2114,
                "tempo": 120.0
            },
            {
                "pitch": 59,
                "velocity": 127,
                "duration": 0.4727,
                "tempo": 120.0
            },
            {
                "pitch": 62,
                "velocity": 127,
                "duration": 0.2295,
                "tempo": 120.0
            },
            {
                "pitch": 59,
                "velocity": 127,
                "duration": 0.4455,
                "tempo": 120.0
            },
            {
                "pitch": 66,
                "velocity": 127,
                "duration": 0.2159,
                "tempo": 120.0
            },
            {
                "pitch": 66,
                "velocity": 127,
                "duration": 0.2409,
                "tempo": 120.0
            },
            {
                "pitch": 62,
                "velocity": 127,
                "duration": 0.2386,
                "tempo": 120.0
            },
            {
                "pitch": 69,
                "velocity": 127,
                "duration": 0.4614,
                "tempo": 120.0
            },
            {
                "pitch": 62,
                "velocity": 127,
                "duration": 0.2182,
                "tempo": 120.0
            },
            {
                "pitch": 69,
                "velocity": 127,
                "duration": 3.8341,
                "tempo": 120.0
            },
            {
                "pitch": 62,
                "velocity": 127,
                "duration": 0.2386,
                "tempo": 120.0
            },
            {
                "pitch": 59,
                "velocity": 127,
                "duration": 0.45,
                "tempo": 120.0
            },
            {
                "pitch": 65,
                "velocity": 127,
                "duration": 0.2136,
                "tempo": 120.0
            },
            {
                "pitch": 59,
                "velocity": 127,
                "duration": 0.4614,
                "tempo": 120.0
            },
            {
                "pitch": 62,
                "velocity": 127,
                "duration": 0.2341,
                "tempo": 120.0
            },
            {
                "pitch": 59,
                "velocity": 127,
                "duration": 0.4455,
                "tempo": 120.0
            },
            {
                "pitch": 66,
                "velocity": 127,
                "duration": 0.2136,
                "tempo": 120.0
            },
            {
                "pitch": 66,
                "velocity": 127,
                "duration": 0.2432,
                "tempo": 120.0
            },
            {
                "pitch": 62,
                "velocity": 127,
                "duration": 0.2455,
                "tempo": 120.0
            },
            {
                "pitch": 69,
                "velocity": 127,
                "duration": 0.4614,
                "tempo": 120.0
            },
            {
                "pitch": 62,
                "velocity": 127,
                "duration": 0.2182,
                "tempo": 120.0
            },
            {
                "pitch": 69,
                "velocity": 127,
                "duration": 3.8341,
                "tempo": 120.0
            },
            {
                "pitch": 69,
                "velocity": 127,
                "duration": 0.1159,
                "tempo": 120.0
            },
            {
                "pitch": 69,
                "velocity": 127,
                "duration": 0.1182,
                "tempo": 120.0
            },
            {
                "pitch": 73,
                "velocity": 127,
                "duration": 0.1159,
                "tempo": 120.0
            },
            {
                "pitch": 73,
                "velocity": 127,
                "duration": 0.1,
                "tempo": 120.0
            },
            {
                "pitch": 78,
                "velocity": 127,
                "duration": 0.2409,
                "tempo": 120.0
            },
            {
                "pitch": 69,
                "velocity": 101,
                "duration": 0.1182,
                "tempo": 120.0
            },
            {
                "pitch": 69,
                "velocity": 101,
                "duration": 0.1023,
                "tempo": 120.0
            },
            {
                "pitch": 73,
                "velocity": 101,
                "duration": 0.1159,
                "tempo": 120.0
            },
            {
                "pitch": 73,
                "velocity": 101,
                "duration": 0.1136,
                "tempo": 120.0
            },
            {
                "pitch": 78,
                "velocity": 101,
                "duration": 0.6636,
                "tempo": 120.0
            },
            {
                "pitch": 81,
                "velocity": 127,
                "duration": 0.1182,
                "tempo": 120.0
            },
            {
                "pitch": 81,
                "velocity": 127,
                "duration": 0.1159,
                "tempo": 120.0
            },
            {
                "pitch": 85,
                "velocity": 127,
                "duration": 0.1182,
                "tempo": 120.0
            },
            {
                "pitch": 85,
                "velocity": 127,
                "duration": 0.1159,
                "tempo": 120.0
            },
            {
                "pitch": 90,
                "velocity": 127,
                "duration": 0.2295,
                "tempo": 120.0
            },
            {
                "pitch": 81,
                "velocity": 101,
                "duration": 0.125,
                "tempo": 120.0
            },
            {
                "pitch": 81,
                "velocity": 101,
                "duration": 0.125,
                "tempo": 120.0
            },
            {
                "pitch": 85,
                "velocity": 101,
                "duration": 0.0955,
                "tempo": 120.0
            },
            {
                "pitch": 85,
                "velocity": 101,
                "duration": 0.1114,
                "tempo": 120.0
            },
            {
                "pitch": 90,
                "velocity": 101,
                "duration": 0.225,
                "tempo": 120.0
            },
            {
                "pitch": 81,
                "velocity": 80,
                "duration": 0.1023,
                "tempo": 120.0
            },
            {
                "pitch": 81,
                "velocity": 80,
                "duration": 0.1227,
                "tempo": 120.0
            },
            {
                "pitch": 85,
                "velocity": 80,
                "duration": 0.1227,
                "tempo": 120.0
            },
            {
                "pitch": 85,
                "velocity": 80,
                "duration": 0.1227,
                "tempo": 120.0
            },
            {
                "pitch": 90,
                "velocity": 80,
                "duration": 3.5909,
                "tempo": 120.0
            },
            {
                "pitch": 62,
                "velocity": 127,
                "duration": 0.2386,
                "tempo": 120.0
            },
            {
                "pitch": 59,
                "velocity": 127,
                "duration": 0.4523,
                "tempo": 120.0
            },
            {
                "pitch": 65,
                "velocity": 127,
                "duration": 0.2114,
                "tempo": 120.0
            },
            {
                "pitch": 59,
                "velocity": 127,
                "duration": 0.4727,
                "tempo": 120.0
            },
            {
                "pitch": 62,
                "velocity": 127,
                "duration": 0.2341,
                "tempo": 120.0
            },
            {
                "pitch": 59,
                "velocity": 127,
                "duration": 0.4523,
                "tempo": 120.0
            },
            {
                "pitch": 66,
                "velocity": 127,
                "duration": 0.2318,
                "tempo": 120.0
            },
            {
                "pitch": 66,
                "velocity": 127,
                "duration": 0.2227,
                "tempo": 120.0
            },
            {
                "pitch": 62,
                "velocity": 127,
                "duration": 0.2386,
                "tempo": 120.0
            },
            {
                "pitch": 69,
                "velocity": 127,
                "duration": 0.4523,
                "tempo": 120.0
            },
            {
                "pitch": 62,
                "velocity": 127,
                "duration": 0.2182,
                "tempo": 120.0
            },
            {
                "pitch": 69,
                "velocity": 127,
                "duration": 3.8341,
                "tempo": 120.0
            },
            {
                "pitch": 62,
                "velocity": 127,
                "duration": 0.2386,
                "tempo": 120.0
            },
            {
                "pitch": 59,
                "velocity": 127,
                "duration": 0.45,
                "tempo": 120.0
            },
            {
                "pitch": 65,
                "velocity": 127,
                "duration": 0.2136,
                "tempo": 120.0
            },
            {
                "pitch": 59,
                "velocity": 127,
                "duration": 0.4886,
                "tempo": 120.0
            },
            {
                "pitch": 62,
                "velocity": 127,
                "duration": 0.2227,
                "tempo": 120.0
            },
            {
                "pitch": 59,
                "velocity": 127,
                "duration": 0.4477,
                "tempo": 120.0
            },
            {
                "pitch": 66,
                "velocity": 127,
                "duration": 0.2227,
                "tempo": 120.0
            },
            {
                "pitch": 66,
                "velocity": 127,
                "duration": 0.225,
                "tempo": 120.0
            },
            {
                "pitch": 62,
                "velocity": 127,
                "duration": 0.2455,
                "tempo": 120.0
            },
            {
                "pitch": 69,
                "velocity": 127,
                "duration": 0.4523,
                "tempo": 120.0
            },
            {
                "pitch": 62,
                "velocity": 127,
                "duration": 0.2182,
                "tempo": 120.0
            },
            {
                "pitch": 69,
                "velocity": 127,
                "duration": 3.8341,
                "tempo": 120.0
            },
            {
                "pitch": 69,
                "velocity": 127,
                "duration": 0.1159,
                "tempo": 120.0
            },
            {
                "pitch": 69,
                "velocity": 127,
                "duration": 0.1182,
                "tempo": 120.0
            },
            {
                "pitch": 73,
                "velocity": 127,
                "duration": 0.1159,
                "tempo": 120.0
            },
            {
                "pitch": 73,
                "velocity": 127,
                "duration": 0.1023,
                "tempo": 120.0
            },
            {
                "pitch": 78,
                "velocity": 127,
                "duration": 0.2386,
                "tempo": 120.0
            },
            {
                "pitch": 69,
                "velocity": 101,
                "duration": 0.1182,
                "tempo": 120.0
            },
            {
                "pitch": 69,
                "velocity": 101,
                "duration": 0.1205,
                "tempo": 120.0
            },
            {
                "pitch": 73,
                "velocity": 101,
                "duration": 0.1,
                "tempo": 120.0
            },
            {
                "pitch": 73,
                "velocity": 101,
                "duration": 0.1182,
                "tempo": 120.0
            },
            {
                "pitch": 78,
                "velocity": 101,
                "duration": 0.6841,
                "tempo": 120.0
            },
            {
                "pitch": 71,
                "velocity": 127,
                "duration": 0.1023,
                "tempo": 120.0
            },
            {
                "pitch": 73,
                "velocity": 127,
                "duration": 0.1205,
                "tempo": 120.0
            },
            {
                "pitch": 73,
                "velocity": 127,
                "duration": 0.1182,
                "tempo": 120.0
            },
            {
                "pitch": 76,
                "velocity": 127,
                "duration": 0.1205,
                "tempo": 120.0
            },
            {
                "pitch": 81,
                "velocity": 127,
                "duration": 0.2227,
                "tempo": 120.0
            },
            {
                "pitch": 69,
                "velocity": 101,
                "duration": 0.1205,
                "tempo": 120.0
            },
            {
                "pitch": 73,
                "velocity": 101,
                "duration": 0.1182,
                "tempo": 120.0
            },
            {
                "pitch": 73,
                "velocity": 101,
                "duration": 0.1136,
                "tempo": 120.0
            },
            {
                "pitch": 76,
                "velocity": 101,
                "duration": 0.0955,
                "tempo": 120.0
            },
            {
                "pitch": 81,
                "velocity": 101,
                "duration": 0.2227,
                "tempo": 120.0
            },
            {
                "pitch": 69,
                "velocity": 80,
                "duration": 0.1205,
                "tempo": 120.0
            },
            {
                "pitch": 73,
                "velocity": 80,
                "duration": 0.1068,
                "tempo": 120.0
            },
            {
                "pitch": 73,
                "velocity": 80,
                "duration": 0.1205,
                "tempo": 120.0
            },
            {
                "pitch": 76,
                "velocity": 80,
                "duration": 0.1227,
                "tempo": 120.0
            },
            {
                "pitch": 81,
                "velocity": 80,
                "duration": 3.5932,
                "tempo": 120.0
            },
            {
                "pitch": 59,
                "velocity": 127,
                "duration": 0.05,
                "tempo": 120.0
            }
        ],
        "Acoustic Bass": [
            {
                "pitch": 35,
                "velocity": 127,
                "duration": 0.2,
                "tempo": 120.0
            },
            {
                "pitch": 35,
                "velocity": 127,
                "duration": 0.2341,
                "tempo": 120.0
            },
            {
                "pitch": 35,
                "velocity": 127,
                "duration": 0.2227,
                "tempo": 120.0
            },
            {
                "pitch": 35,
                "velocity": 127,
                "duration": 0.2091,
                "tempo": 120.0
            },
            {
                "pitch": 35,
                "velocity": 127,
                "duration": 0.2318,
                "tempo": 120.0
            },
            {
                "pitch": 35,
                "velocity": 127,
                "duration": 0.2182,
                "tempo": 120.0
            },
            {
                "pitch": 35,
                "velocity": 127,
                "duration": 0.2432,
                "tempo": 120.0
            },
            {
                "pitch": 35,
                "velocity": 127,
                "duration": 0.2295,
                "tempo": 120.0
            },
            {
                "pitch": 35,
                "velocity": 127,
                "duration": 0.2227,
                "tempo": 120.0
            },
            {
                "pitch": 35,
                "velocity": 127,
                "duration": 0.2091,
                "tempo": 120.0
            },
            {
                "pitch": 35,
                "velocity": 127,
                "duration": 0.2341,
                "tempo": 120.0
            },
            {
                "pitch": 35,
                "velocity": 127,
                "duration": 0.2159,
                "tempo": 120.0
            },
            {
                "pitch": 35,
                "velocity": 127,
                "duration": 0.2341,
                "tempo": 120.0
            },
            {
                "pitch": 35,
                "velocity": 127,
                "duration": 0.2182,
                "tempo": 120.0
            },
            {
                "pitch": 38,
                "velocity": 127,
                "duration": 0.45,
                "tempo": 120.0
            },
            {
                "pitch": 35,
                "velocity": 127,
                "duration": 0.2386,
                "tempo": 120.0
            },
            {
                "pitch": 35,
                "velocity": 127,
                "duration": 0.2409,
                "tempo": 120.0
            },
            {
                "pitch": 35,
                "velocity": 127,
                "duration": 0.2227,
                "tempo": 120.0
            },
            {
                "pitch": 35,
                "velocity": 127,
                "duration": 0.2386,
                "tempo": 120.0
            },
            {
                "pitch": 35,
                "velocity": 127,
                "duration": 0.2182,
                "tempo": 120.0
            },
            {
                "pitch": 35,
                "velocity": 127,
                "duration": 0.2318,
                "tempo": 120.0
            },
            {
                "pitch": 35,
                "velocity": 127,
                "duration": 0.2227,
                "tempo": 120.0
            },
            {
                "pitch": 35,
                "velocity": 127,
                "duration": 0.2386,
                "tempo": 120.0
            },
            {
                "pitch": 35,
                "velocity": 127,
                "duration": 0.2136,
                "tempo": 120.0
            },
            {
                "pitch": 35,
                "velocity": 127,
                "duration": 0.2295,
                "tempo": 120.0
            },
            {
                "pitch": 35,
                "velocity": 127,
                "duration": 0.2159,
                "tempo": 120.0
            },
            {
                "pitch": 35,
                "velocity": 127,
                "duration": 0.2341,
                "tempo": 120.0
            },
            {
                "pitch": 35,
                "velocity": 127,
                "duration": 0.2182,
                "tempo": 120.0
            },
            {
                "pitch": 35,
                "velocity": 127,
                "duration": 0.2341,
                "tempo": 120.0
            },
            {
                "pitch": 38,
                "velocity": 127,
                "duration": 0.45,
                "tempo": 120.0
            },
            {
                "pitch": 35,
                "velocity": 127,
                "duration": 0.2386,
                "tempo": 120.0
            },
            {
                "pitch": 35,
                "velocity": 127,
                "duration": 0.2227,
                "tempo": 120.0
            },
            {
                "pitch": 35,
                "velocity": 127,
                "duration": 0.2295,
                "tempo": 120.0
            },
            {
                "pitch": 35,
                "velocity": 127,
                "duration": 0.2136,
                "tempo": 120.0
            },
            {
                "pitch": 35,
                "velocity": 127,
                "duration": 0.2318,
                "tempo": 120.0
            },
            {
                "pitch": 35,
                "velocity": 127,
                "duration": 0.2182,
                "tempo": 120.0
            },
            {
                "pitch": 35,
                "velocity": 127,
                "duration": 0.2386,
                "tempo": 120.0
            },
            {
                "pitch": 35,
                "velocity": 127,
                "duration": 0.2227,
                "tempo": 120.0
            },
            {
                "pitch": 35,
                "velocity": 127,
                "duration": 0.2295,
                "tempo": 120.0
            },
            {
                "pitch": 35,
                "velocity": 127,
                "duration": 0.2114,
                "tempo": 120.0
            },
            {
                "pitch": 35,
                "velocity": 127,
                "duration": 0.2341,
                "tempo": 120.0
            },
            {
                "pitch": 35,
                "velocity": 127,
                "duration": 0.2182,
                "tempo": 120.0
            },
            {
                "pitch": 35,
                "velocity": 127,
                "duration": 0.2341,
                "tempo": 120.0
            },
            {
                "pitch": 35,
                "velocity": 127,
                "duration": 0.2159,
                "tempo": 120.0
            },
            {
                "pitch": 38,
                "velocity": 127,
                "duration": 0.4682,
                "tempo": 120.0
            },
            {
                "pitch": 35,
                "velocity": 127,
                "duration": 0.2273,
                "tempo": 120.0
            },
            {
                "pitch": 35,
                "velocity": 127,
                "duration": 0.2455,
                "tempo": 120.0
            },
            {
                "pitch": 35,
                "velocity": 127,
                "duration": 0.2114,
                "tempo": 120.0
            },
            {
                "pitch": 35,
                "velocity": 127,
                "duration": 0.2295,
                "tempo": 120.0
            },
            {
                "pitch": 35,
                "velocity": 127,
                "duration": 0.2227,
                "tempo": 120.0
            },
            {
                "pitch": 35,
                "velocity": 127,
                "duration": 0.2386,
                "tempo": 120.0
            },
            {
                "pitch": 38,
                "velocity": 127,
                "duration": 0.4614,
                "tempo": 120.0
            },
            {
                "pitch": 35,
                "velocity": 127,
                "duration": 0.2136,
                "tempo": 120.0
            },
            {
                "pitch": 35,
                "velocity": 127,
                "duration": 0.2273,
                "tempo": 120.0
            },
            {
                "pitch": 38,
                "velocity": 127,
                "duration": 0.4523,
                "tempo": 120.0
            },
            {
                "pitch": 38,
                "velocity": 127,
                "duration": 0.2182,
                "tempo": 120.0
            },
            {
                "pitch": 32,
                "velocity": 127,
                "duration": 0.2341,
                "tempo": 120.0
            },
            {
                "pitch": 32,
                "velocity": 127,
                "duration": 0.2318,
                "tempo": 120.0
            },
            {
                "pitch": 33,
                "velocity": 127,
                "duration": 0.2182,
                "tempo": 120.0
            },
            {
                "pitch": 34,
                "velocity": 127,
                "duration": 0.2341,
                "tempo": 120.0
            },
            {
                "pitch": 35,
                "velocity": 127,
                "duration": 0.2182,
                "tempo": 120.0
            },
            {
                "pitch": 35,
                "velocity": 127,
                "duration": 0.2273,
                "tempo": 120.0
            },
            {
                "pitch": 35,
                "velocity": 127,
                "duration": 0.2136,
                "tempo": 120.0
            },
            {
                "pitch": 35,
                "velocity": 127,
                "duration": 0.2386,
                "tempo": 120.0
            },
            {
                "pitch": 35,
                "velocity": 127,
                "duration": 0.2227,
                "tempo": 120.0
            },
            {
                "pitch": 35,
                "velocity": 127,
                "duration": 0.2273,
                "tempo": 120.0
            },
            {
                "pitch": 35,
                "velocity": 127,
                "duration": 0.2136,
                "tempo": 120.0
            },
            {
                "pitch": 35,
                "velocity": 127,
                "duration": 0.2341,
                "tempo": 120.0
            },
            {
                "pitch": 35,
                "velocity": 127,
                "duration": 0.2159,
                "tempo": 120.0
            },
            {
                "pitch": 35,
                "velocity": 127,
                "duration": 0.2341,
                "tempo": 120.0
            },
            {
                "pitch": 35,
                "velocity": 127,
                "duration": 0.2182,
                "tempo": 120.0
            },
            {
                "pitch": 35,
                "velocity": 127,
                "duration": 0.2386,
                "tempo": 120.0
            },
            {
                "pitch": 32,
                "velocity": 127,
                "duration": 0.2409,
                "tempo": 120.0
            },
            {
                "pitch": 32,
                "velocity": 127,
                "duration": 0.2205,
                "tempo": 120.0
            },
            {
                "pitch": 33,
                "velocity": 127,
                "duration": 0.2409,
                "tempo": 120.0
            },
            {
                "pitch": 34,
                "velocity": 127,
                "duration": 0.2159,
                "tempo": 120.0
            },
            {
                "pitch": 35,
                "velocity": 127,
                "duration": 0.2341,
                "tempo": 120.0
            },
            {
                "pitch": 35,
                "velocity": 127,
                "duration": 0.2182,
                "tempo": 120.0
            },
            {
                "pitch": 35,
                "velocity": 127,
                "duration": 0.2341,
                "tempo": 120.0
            },
            {
                "pitch": 35,
                "velocity": 127,
                "duration": 0.2159,
                "tempo": 120.0
            },
            {
                "pitch": 35,
                "velocity": 127,
                "duration": 0.2341,
                "tempo": 120.0
            },
            {
                "pitch": 35,
                "velocity": 127,
                "duration": 0.2182,
                "tempo": 120.0
            },
            {
                "pitch": 35,
                "velocity": 127,
                "duration": 0.2341,
                "tempo": 120.0
            },
            {
                "pitch": 35,
                "velocity": 127,
                "duration": 0.2159,
                "tempo": 120.0
            },
            {
                "pitch": 35,
                "velocity": 127,
                "duration": 0.2341,
                "tempo": 120.0
            },
            {
                "pitch": 35,
                "velocity": 127,
                "duration": 0.2182,
                "tempo": 120.0
            },
            {
                "pitch": 35,
                "velocity": 127,
                "duration": 0.2341,
                "tempo": 120.0
            },
            {
                "pitch": 35,
                "velocity": 127,
                "duration": 0.2386,
                "tempo": 120.0
            },
            {
                "pitch": 35,
                "velocity": 127,
                "duration": 0.2227,
                "tempo": 120.0
            },
            {
                "pitch": 35,
                "velocity": 127,
                "duration": 0.2295,
                "tempo": 120.0
            },
            {
                "pitch": 35,
                "velocity": 127,
                "duration": 0.2273,
                "tempo": 120.0
            },
            {
                "pitch": 35,
                "velocity": 127,
                "duration": 0.2227,
                "tempo": 120.0
            },
            {
                "pitch": 35,
                "velocity": 127,
                "duration": 0.2227,
                "tempo": 120.0
            },
            {
                "pitch": 35,
                "velocity": 127,
                "duration": 0.2295,
                "tempo": 120.0
            },
            {
                "pitch": 35,
                "velocity": 127,
                "duration": 0.2114,
                "tempo": 120.0
            },
            {
                "pitch": 35,
                "velocity": 127,
                "duration": 0.2432,
                "tempo": 120.0
            },
            {
                "pitch": 35,
                "velocity": 127,
                "duration": 0.2295,
                "tempo": 120.0
            },
            {
                "pitch": 35,
                "velocity": 127,
                "duration": 0.2295,
                "tempo": 120.0
            },
            {
                "pitch": 35,
                "velocity": 127,
                "duration": 0.2114,
                "tempo": 120.0
            },
            {
                "pitch": 35,
                "velocity": 127,
                "duration": 0.2341,
                "tempo": 120.0
            },
            {
                "pitch": 35,
                "velocity": 127,
                "duration": 0.2159,
                "tempo": 120.0
            },
            {
                "pitch": 35,
                "velocity": 127,
                "duration": 0.2409,
                "tempo": 120.0
            },
            {
                "pitch": 35,
                "velocity": 127,
                "duration": 0.2386,
                "tempo": 120.0
            },
            {
                "pitch": 35,
                "velocity": 127,
                "duration": 0.2227,
                "tempo": 120.0
            },
            {
                "pitch": 35,
                "velocity": 127,
                "duration": 0.2386,
                "tempo": 120.0
            },
            {
                "pitch": 38,
                "velocity": 127,
                "duration": 0.4523,
                "tempo": 120.0
            },
            {
                "pitch": 35,
                "velocity": 127,
                "duration": 0.2114,
                "tempo": 120.0
            },
            {
                "pitch": 35,
                "velocity": 127,
                "duration": 0.2295,
                "tempo": 120.0
            },
            {
                "pitch": 35,
                "velocity": 127,
                "duration": 0.2159,
                "tempo": 120.0
            },
            {
                "pitch": 35,
                "velocity": 127,
                "duration": 0.2341,
                "tempo": 120.0
            },
            {
                "pitch": 35,
                "velocity": 127,
                "duration": 0.2182,
                "tempo": 120.0
            },
            {
                "pitch": 35,
                "velocity": 127,
                "duration": 0.2341,
                "tempo": 120.0
            },
            {
                "pitch": 35,
                "velocity": 127,
                "duration": 0.2182,
                "tempo": 120.0
            },
            {
                "pitch": 35,
                "velocity": 127,
                "duration": 0.2341,
                "tempo": 120.0
            },
            {
                "pitch": 35,
                "velocity": 127,
                "duration": 0.2159,
                "tempo": 120.0
            },
            {
                "pitch": 35,
                "velocity": 127,
                "duration": 0.2341,
                "tempo": 120.0
            },
            {
                "pitch": 35,
                "velocity": 127,
                "duration": 0.2182,
                "tempo": 120.0
            },
            {
                "pitch": 35,
                "velocity": 127,
                "duration": 0.2341,
                "tempo": 120.0
            },
            {
                "pitch": 35,
                "velocity": 127,
                "duration": 0.2341,
                "tempo": 120.0
            },
            {
                "pitch": 35,
                "velocity": 127,
                "duration": 0.2159,
                "tempo": 120.0
            },
            {
                "pitch": 38,
                "velocity": 127,
                "duration": 0.4523,
                "tempo": 120.0
            },
            {
                "pitch": 35,
                "velocity": 127,
                "duration": 0.2386,
                "tempo": 120.0
            },
            {
                "pitch": 35,
                "velocity": 127,
                "duration": 0.2227,
                "tempo": 120.0
            },
            {
                "pitch": 35,
                "velocity": 127,
                "duration": 0.2273,
                "tempo": 120.0
            },
            {
                "pitch": 35,
                "velocity": 127,
                "duration": 0.2136,
                "tempo": 120.0
            },
            {
                "pitch": 35,
                "velocity": 127,
                "duration": 0.2386,
                "tempo": 120.0
            },
            {
                "pitch": 35,
                "velocity": 127,
                "duration": 0.2227,
                "tempo": 120.0
            },
            {
                "pitch": 35,
                "velocity": 127,
                "duration": 0.2341,
                "tempo": 120.0
            },
            {
                "pitch": 35,
                "velocity": 127,
                "duration": 0.2159,
                "tempo": 120.0
            },
            {
                "pitch": 35,
                "velocity": 127,
                "duration": 0.2295,
                "tempo": 120.0
            },
            {
                "pitch": 35,
                "velocity": 127,
                "duration": 0.2136,
                "tempo": 120.0
            },
            {
                "pitch": 35,
                "velocity": 127,
                "duration": 0.2432,
                "tempo": 120.0
            },
            {
                "pitch": 35,
                "velocity": 127,
                "duration": 0.2455,
                "tempo": 120.0
            },
            {
                "pitch": 35,
                "velocity": 127,
                "duration": 0.2227,
                "tempo": 120.0
            },
            {
                "pitch": 35,
                "velocity": 127,
                "duration": 0.2386,
                "tempo": 120.0
            },
            {
                "pitch": 38,
                "velocity": 127,
                "duration": 0.4523,
                "tempo": 120.0
            },
            {
                "pitch": 35,
                "velocity": 127,
                "duration": 0.2114,
                "tempo": 120.0
            },
            {
                "pitch": 35,
                "velocity": 127,
                "duration": 0.2295,
                "tempo": 120.0
            },
            {
                "pitch": 35,
                "velocity": 127,
                "duration": 0.2114,
                "tempo": 120.0
            },
            {
                "pitch": 35,
                "velocity": 127,
                "duration": 0.2295,
                "tempo": 120.0
            },
            {
                "pitch": 35,
                "velocity": 127,
                "duration": 0.2227,
                "tempo": 120.0
            },
            {
                "pitch": 35,
                "velocity": 127,
                "duration": 0.2386,
                "tempo": 120.0
            },
            {
                "pitch": 35,
                "velocity": 127,
                "duration": 0.2114,
                "tempo": 120.0
            },
            {
                "pitch": 35,
                "velocity": 127,
                "duration": 0.2295,
                "tempo": 120.0
            },
            {
                "pitch": 35,
                "velocity": 127,
                "duration": 0.2182,
                "tempo": 120.0
            },
            {
                "pitch": 35,
                "velocity": 127,
                "duration": 0.2341,
                "tempo": 120.0
            },
            {
                "pitch": 35,
                "velocity": 127,
                "duration": 0.2341,
                "tempo": 120.0
            },
            {
                "pitch": 35,
                "velocity": 127,
                "duration": 0.2159,
                "tempo": 120.0
            },
            {
                "pitch": 35,
                "velocity": 127,
                "duration": 0.2341,
                "tempo": 120.0
            },
            {
                "pitch": 38,
                "velocity": 127,
                "duration": 0.2182,
                "tempo": 120.0
            },
            {
                "pitch": 38,
                "velocity": 127,
                "duration": 0.2386,
                "tempo": 120.0
            },
            {
                "pitch": 39,
                "velocity": 127,
                "duration": 0.2227,
                "tempo": 120.0
            },
            {
                "pitch": 40,
                "velocity": 127,
                "duration": 0.2341,
                "tempo": 120.0
            },
            {
                "pitch": 42,
                "velocity": 127,
                "duration": 0.2159,
                "tempo": 120.0
            },
            {
                "pitch": 42,
                "velocity": 127,
                "duration": 0.2409,
                "tempo": 120.0
            },
            {
                "pitch": 42,
                "velocity": 127,
                "duration": 0.2205,
                "tempo": 120.0
            },
            {
                "pitch": 42,
                "velocity": 127,
                "duration": 0.2295,
                "tempo": 120.0
            },
            {
                "pitch": 42,
                "velocity": 127,
                "duration": 0.2136,
                "tempo": 120.0
            },
            {
                "pitch": 42,
                "velocity": 127,
                "duration": 0.2341,
                "tempo": 120.0
            },
            {
                "pitch": 42,
                "velocity": 127,
                "duration": 0.2159,
                "tempo": 120.0
            },
            {
                "pitch": 42,
                "velocity": 127,
                "duration": 0.2341,
                "tempo": 120.0
            },
            {
                "pitch": 40,
                "velocity": 127,
                "duration": 0.2341,
                "tempo": 120.0
            },
            {
                "pitch": 40,
                "velocity": 127,
                "duration": 0.2295,
                "tempo": 120.0
            },
            {
                "pitch": 40,
                "velocity": 127,
                "duration": 0.25,
                "tempo": 120.0
            },
            {
                "pitch": 40,
                "velocity": 127,
                "duration": 0.2068,
                "tempo": 120.0
            },
            {
                "pitch": 32,
                "velocity": 127,
                "duration": 0.225,
                "tempo": 120.0
            },
            {
                "pitch": 32,
                "velocity": 127,
                "duration": 0.225,
                "tempo": 120.0
            },
            {
                "pitch": 33,
                "velocity": 127,
                "duration": 0.2455,
                "tempo": 120.0
            },
            {
                "pitch": 34,
                "velocity": 127,
                "duration": 0.2182,
                "tempo": 120.0
            },
            {
                "pitch": 35,
                "velocity": 127,
                "duration": 0.2341,
                "tempo": 120.0
            },
            {
                "pitch": 35,
                "velocity": 127,
                "duration": 0.2068,
                "tempo": 120.0
            },
            {
                "pitch": 35,
                "velocity": 127,
                "duration": 0.225,
                "tempo": 120.0
            },
            {
                "pitch": 35,
                "velocity": 127,
                "duration": 0.2159,
                "tempo": 120.0
            },
            {
                "pitch": 35,
                "velocity": 127,
                "duration": 0.2341,
                "tempo": 120.0
            },
            {
                "pitch": 38,
                "velocity": 127,
                "duration": 0.4523,
                "tempo": 120.0
            },
            {
                "pitch": 35,
                "velocity": 127,
                "duration": 0.2341,
                "tempo": 120.0
            },
            {
                "pitch": 35,
                "velocity": 127,
                "duration": 0.2159,
                "tempo": 120.0
            },
            {
                "pitch": 35,
                "velocity": 127,
                "duration": 0.2341,
                "tempo": 120.0
            },
            {
                "pitch": 35,
                "velocity": 127,
                "duration": 0.2182,
                "tempo": 120.0
            },
            {
                "pitch": 35,
                "velocity": 127,
                "duration": 0.2341,
                "tempo": 120.0
            },
            {
                "pitch": 35,
                "velocity": 127,
                "duration": 0.2182,
                "tempo": 120.0
            },
            {
                "pitch": 38,
                "velocity": 127,
                "duration": 0.4682,
                "tempo": 120.0
            },
            {
                "pitch": 35,
                "velocity": 127,
                "duration": 0.2205,
                "tempo": 120.0
            },
            {
                "pitch": 35,
                "velocity": 127,
                "duration": 0.2227,
                "tempo": 120.0
            },
            {
                "pitch": 35,
                "velocity": 127,
                "duration": 0.2295,
                "tempo": 120.0
            },
            {
                "pitch": 35,
                "velocity": 127,
                "duration": 0.2114,
                "tempo": 120.0
            },
            {
                "pitch": 35,
                "velocity": 127,
                "duration": 0.2455,
                "tempo": 120.0
            },
            {
                "pitch": 35,
                "velocity": 127,
                "duration": 0.2273,
                "tempo": 120.0
            },
            {
                "pitch": 35,
                "velocity": 127,
                "duration": 0.2341,
                "tempo": 120.0
            },
            {
                "pitch": 35,
                "velocity": 127,
                "duration": 0.2341,
                "tempo": 120.0
            },
            {
                "pitch": 35,
                "velocity": 127,
                "duration": 0.2182,
                "tempo": 120.0
            },
            {
                "pitch": 35,
                "velocity": 127,
                "duration": 0.2318,
                "tempo": 120.0
            },
            {
                "pitch": 35,
                "velocity": 127,
                "duration": 0.2227,
                "tempo": 120.0
            },
            {
                "pitch": 35,
                "velocity": 127,
                "duration": 0.2386,
                "tempo": 120.0
            },
            {
                "pitch": 35,
                "velocity": 127,
                "duration": 0.2182,
                "tempo": 120.0
            },
            {
                "pitch": 35,
                "velocity": 127,
                "duration": 0.2341,
                "tempo": 120.0
            },
            {
                "pitch": 38,
                "velocity": 127,
                "duration": 0.4523,
                "tempo": 120.0
            },
            {
                "pitch": 35,
                "velocity": 127,
                "duration": 0.2114,
                "tempo": 120.0
            },
            {
                "pitch": 35,
                "velocity": 127,
                "duration": 0.2295,
                "tempo": 120.0
            },
            {
                "pitch": 35,
                "velocity": 127,
                "duration": 0.2159,
                "tempo": 120.0
            },
            {
                "pitch": 35,
                "velocity": 127,
                "duration": 0.2341,
                "tempo": 120.0
            },
            {
                "pitch": 35,
                "velocity": 127,
                "duration": 0.2182,
                "tempo": 120.0
            },
            {
                "pitch": 35,
                "velocity": 127,
                "duration": 0.2341,
                "tempo": 120.0
            },
            {
                "pitch": 35,
                "velocity": 127,
                "duration": 0.2341,
                "tempo": 120.0
            },
            {
                "pitch": 35,
                "velocity": 127,
                "duration": 0.2182,
                "tempo": 120.0
            },
            {
                "pitch": 35,
                "velocity": 127,
                "duration": 0.2318,
                "tempo": 120.0
            },
            {
                "pitch": 35,
                "velocity": 127,
                "duration": 0.2182,
                "tempo": 120.0
            },
            {
                "pitch": 35,
                "velocity": 127,
                "duration": 0.2341,
                "tempo": 120.0
            },
            {
                "pitch": 35,
                "velocity": 127,
                "duration": 0.2182,
                "tempo": 120.0
            },
            {
                "pitch": 35,
                "velocity": 127,
                "duration": 0.2341,
                "tempo": 120.0
            },
            {
                "pitch": 35,
                "velocity": 127,
                "duration": 0.2159,
                "tempo": 120.0
            },
            {
                "pitch": 38,
                "velocity": 127,
                "duration": 0.4682,
                "tempo": 120.0
            },
            {
                "pitch": 35,
                "velocity": 127,
                "duration": 0.2227,
                "tempo": 120.0
            },
            {
                "pitch": 35,
                "velocity": 127,
                "duration": 0.2227,
                "tempo": 120.0
            },
            {
                "pitch": 35,
                "velocity": 127,
                "duration": 0.2273,
                "tempo": 120.0
            },
            {
                "pitch": 35,
                "velocity": 127,
                "duration": 0.2136,
                "tempo": 120.0
            },
            {
                "pitch": 35,
                "velocity": 127,
                "duration": 0.2432,
                "tempo": 120.0
            },
            {
                "pitch": 35,
                "velocity": 127,
                "duration": 0.2455,
                "tempo": 120.0
            },
            {
                "pitch": 35,
                "velocity": 127,
                "duration": 0.2227,
                "tempo": 120.0
            },
            {
                "pitch": 35,
                "velocity": 127,
                "duration": 0.2386,
                "tempo": 120.0
            },
            {
                "pitch": 35,
                "velocity": 127,
                "duration": 0.2091,
                "tempo": 120.0
            },
            {
                "pitch": 35,
                "velocity": 127,
                "duration": 0.2227,
                "tempo": 120.0
            },
            {
                "pitch": 35,
                "velocity": 127,
                "duration": 0.225,
                "tempo": 120.0
            },
            {
                "pitch": 35,
                "velocity": 127,
                "duration": 0.2455,
                "tempo": 120.0
            },
            {
                "pitch": 35,
                "velocity": 127,
                "duration": 0.2182,
                "tempo": 120.0
            },
            {
                "pitch": 35,
                "velocity": 127,
                "duration": 0.2341,
                "tempo": 120.0
            },
            {
                "pitch": 38,
                "velocity": 127,
                "duration": 0.4523,
                "tempo": 120.0
            },
            {
                "pitch": 35,
                "velocity": 127,
                "duration": 0.2114,
                "tempo": 120.0
            },
            {
                "pitch": 35,
                "velocity": 127,
                "duration": 0.2295,
                "tempo": 120.0
            },
            {
                "pitch": 35,
                "velocity": 127,
                "duration": 0.2114,
                "tempo": 120.0
            },
            {
                "pitch": 35,
                "velocity": 127,
                "duration": 0.2295,
                "tempo": 120.0
            },
            {
                "pitch": 35,
                "velocity": 127,
                "duration": 0.2386,
                "tempo": 120.0
            },
            {
                "pitch": 35,
                "velocity": 127,
                "duration": 0.2227,
                "tempo": 120.0
            },
            {
                "pitch": 35,
                "velocity": 127,
                "duration": 0.2295,
                "tempo": 120.0
            },
            {
                "pitch": 35,
                "velocity": 127,
                "duration": 0.2114,
                "tempo": 120.0
            },
            {
                "pitch": 35,
                "velocity": 127,
                "duration": 0.2341,
                "tempo": 120.0
            },
            {
                "pitch": 35,
                "velocity": 127,
                "duration": 0.2182,
                "tempo": 120.0
            },
            {
                "pitch": 35,
                "velocity": 127,
                "duration": 0.2341,
                "tempo": 120.0
            },
            {
                "pitch": 35,
                "velocity": 127,
                "duration": 0.2159,
                "tempo": 120.0
            },
            {
                "pitch": 35,
                "velocity": 127,
                "duration": 0.2341,
                "tempo": 120.0
            },
            {
                "pitch": 38,
                "velocity": 127,
                "duration": 0.2182,
                "tempo": 120.0
            },
            {
                "pitch": 38,
                "velocity": 127,
                "duration": 0.2386,
                "tempo": 120.0
            },
            {
                "pitch": 39,
                "velocity": 127,
                "duration": 0.2227,
                "tempo": 120.0
            },
            {
                "pitch": 40,
                "velocity": 127,
                "duration": 0.2341,
                "tempo": 120.0
            },
            {
                "pitch": 42,
                "velocity": 127,
                "duration": 0.2182,
                "tempo": 120.0
            },
            {
                "pitch": 42,
                "velocity": 127,
                "duration": 0.2386,
                "tempo": 120.0
            },
            {
                "pitch": 42,
                "velocity": 127,
                "duration": 0.2386,
                "tempo": 120.0
            },
            {
                "pitch": 42,
                "velocity": 127,
                "duration": 0.2182,
                "tempo": 120.0
            },
            {
                "pitch": 42,
                "velocity": 127,
                "duration": 0.2341,
                "tempo": 120.0
            },
            {
                "pitch": 42,
                "velocity": 127,
                "duration": 0.2159,
                "tempo": 120.0
            },
            {
                "pitch": 42,
                "velocity": 127,
                "duration": 0.2341,
                "tempo": 120.0
            },
            {
                "pitch": 42,
                "velocity": 127,
                "duration": 0.2227,
                "tempo": 120.0
            },
            {
                "pitch": 40,
                "velocity": 127,
                "duration": 0.2386,
                "tempo": 120.0
            },
            {
                "pitch": 40,
                "velocity": 127,
                "duration": 0.2227,
                "tempo": 120.0
            },
            {
                "pitch": 40,
                "velocity": 127,
                "duration": 0.2386,
                "tempo": 120.0
            },
            {
                "pitch": 40,
                "velocity": 127,
                "duration": 0.2091,
                "tempo": 120.0
            },
            {
                "pitch": 32,
                "velocity": 127,
                "duration": 0.2227,
                "tempo": 120.0
            },
            {
                "pitch": 32,
                "velocity": 127,
                "duration": 0.2273,
                "tempo": 120.0
            },
            {
                "pitch": 33,
                "velocity": 127,
                "duration": 0.2432,
                "tempo": 120.0
            },
            {
                "pitch": 34,
                "velocity": 127,
                "duration": 0.2182,
                "tempo": 120.0
            },
            {
                "pitch": 35,
                "velocity": 127,
                "duration": 0.2341,
                "tempo": 120.0
            },
            {
                "pitch": 35,
                "velocity": 127,
                "duration": 0.225,
                "tempo": 120.0
            },
            {
                "pitch": 35,
                "velocity": 127,
                "duration": 0.2068,
                "tempo": 120.0
            },
            {
                "pitch": 35,
                "velocity": 127,
                "duration": 0.2341,
                "tempo": 120.0
            },
            {
                "pitch": 35,
                "velocity": 127,
                "duration": 0.2182,
                "tempo": 120.0
            },
            {
                "pitch": 38,
                "velocity": 127,
                "duration": 0.45,
                "tempo": 120.0
            },
            {
                "pitch": 35,
                "velocity": 127,
                "duration": 0.2341,
                "tempo": 120.0
            },
            {
                "pitch": 35,
                "velocity": 127,
                "duration": 0.2182,
                "tempo": 120.0
            },
            {
                "pitch": 35,
                "velocity": 127,
                "duration": 0.2341,
                "tempo": 120.0
            },
            {
                "pitch": 35,
                "velocity": 127,
                "duration": 0.2182,
                "tempo": 120.0
            },
            {
                "pitch": 35,
                "velocity": 127,
                "duration": 0.2318,
                "tempo": 120.0
            },
            {
                "pitch": 35,
                "velocity": 127,
                "duration": 0.2182,
                "tempo": 120.0
            },
            {
                "pitch": 38,
                "velocity": 127,
                "duration": 0.4682,
                "tempo": 120.0
            },
            {
                "pitch": 35,
                "velocity": 127,
                "duration": 0.0341,
                "tempo": 120.0
            }
        ]
    }
}