{
    "track_id": "Rastan (FM) - 04 - Re-In-Carnation",
    "mood": "angry",
    "instruments": {
        "Lead 2 (sawtooth)": [
            {
                "pitch": 93,
                "velocity": 20,
                "duration": 67.7114,
                "tempo": 120.0
            },
            {
                "pitch": 65,
                "velocity": 80,
                "duration": 0.175,
                "tempo": 120.0
            },
            {
                "pitch": 67,
                "velocity": 80,
                "duration": 0.1727,
                "tempo": 120.0
            },
            {
                "pitch": 69,
                "velocity": 80,
                "duration": 0.175,
                "tempo": 120.0
            },
            {
                "pitch": 67,
                "velocity": 80,
                "duration": 0.1773,
                "tempo": 120.0
            },
            {
                "pitch": 69,
                "velocity": 80,
                "duration": 0.1773,
                "tempo": 120.0
            },
            {
                "pitch": 55,
                "velocity": 80,
                "duration": 0.8818,
                "tempo": 120.0
            },
            {
                "pitch": 65,
                "velocity": 80,
                "duration": 0.1795,
                "tempo": 120.0
            },
            {
                "pitch": 67,
                "velocity": 80,
                "duration": 0.1705,
                "tempo": 120.0
            },
            {
                "pitch": 70,
                "velocity": 80,
                "duration": 0.1705,
                "tempo": 120.0
            },
            {
                "pitch": 70,
                "velocity": 80,
                "duration": 0.1705,
                "tempo": 120.0
            },
            {
                "pitch": 69,
                "velocity": 80,
                "duration": 0.3523,
                "tempo": 120.0
            },
            {
                "pitch": 77,
                "velocity": 80,
                "duration": 0.8727,
                "tempo": 120.0
            },
            {
                "pitch": 55,
                "velocity": 80,
                "duration": 0.8659,
                "tempo": 120.0
            },
            {
                "pitch": 65,
                "velocity": 80,
                "duration": 0.1727,
                "tempo": 120.0
            },
            {
                "pitch": 67,
                "velocity": 80,
                "duration": 0.175,
                "tempo": 120.0
            },
            {
                "pitch": 69,
                "velocity": 80,
                "duration": 0.1795,
                "tempo": 120.0
            },
            {
                "pitch": 67,
                "velocity": 80,
                "duration": 0.1773,
                "tempo": 120.0
            },
            {
                "pitch": 69,
                "velocity": 80,
                "duration": 0.1773,
                "tempo": 120.0
            },
            {
                "pitch": 77,
                "velocity": 80,
                "duration": 0.8818,
                "tempo": 120.0
            },
            {
                "pitch": 55,
                "velocity": 80,
                "duration": 0.8841,
                "tempo": 120.0
            },
            {
                "pitch": 65,
                "velocity": 80,
                "duration": 0.175,
                "tempo": 120.0
            },
            {
                "pitch": 67,
                "velocity": 101,
                "duration": 0.1705,
                "tempo": 120.0
            },
            {
                "pitch": 70,
                "velocity": 101,
                "duration": 0.1705,
                "tempo": 120.0
            },
            {
                "pitch": 70,
                "velocity": 101,
                "duration": 0.1705,
                "tempo": 120.0
            },
            {
                "pitch": 69,
                "velocity": 101,
                "duration": 0.3568,
                "tempo": 120.0
            },
            {
                "pitch": 69,
                "velocity": 101,
                "duration": 1.4023,
                "tempo": 120.0
            },
            {
                "pitch": 69,
                "velocity": 101,
                "duration": 0.3477,
                "tempo": 120.0
            },
            {
                "pitch": 69,
                "velocity": 101,
                "duration": 1.4,
                "tempo": 120.0
            },
            {
                "pitch": 69,
                "velocity": 101,
                "duration": 0.35,
                "tempo": 120.0
            },
            {
                "pitch": 69,
                "velocity": 101,
                "duration": 1.4,
                "tempo": 120.0
            },
            {
                "pitch": 69,
                "velocity": 101,
                "duration": 0.3477,
                "tempo": 120.0
            },
            {
                "pitch": 69,
                "velocity": 101,
                "duration": 1.0591,
                "tempo": 120.0
            },
            {
                "pitch": 69,
                "velocity": 101,
                "duration": 0.35,
                "tempo": 120.0
            },
            {
                "pitch": 69,
                "velocity": 101,
                "duration": 0.35,
                "tempo": 120.0
            },
            {
                "pitch": 69,
                "velocity": 80,
                "duration": 0.3432,
                "tempo": 120.0
            },
            {
                "pitch": 69,
                "velocity": 80,
                "duration": 0.3659,
                "tempo": 120.0
            },
            {
                "pitch": 69,
                "velocity": 64,
                "duration": 0.3341,
                "tempo": 120.0
            },
            {
                "pitch": 69,
                "velocity": 64,
                "duration": 0.3682,
                "tempo": 120.0
            },
            {
                "pitch": 69,
                "velocity": 51,
                "duration": 0.3341,
                "tempo": 120.0
            },
            {
                "pitch": 69,
                "velocity": 51,
                "duration": 0.3568,
                "tempo": 120.0
            },
            {
                "pitch": 69,
                "velocity": 32,
                "duration": 0.3341,
                "tempo": 120.0
            },
            {
                "pitch": 69,
                "velocity": 32,
                "duration": 0.3568,
                "tempo": 120.0
            },
            {
                "pitch": 69,
                "velocity": 20,
                "duration": 0.3341,
                "tempo": 120.0
            },
            {
                "pitch": 69,
                "velocity": 20,
                "duration": 0.3659,
                "tempo": 120.0
            },
            {
                "pitch": 69,
                "velocity": 13,
                "duration": 0.3318,
                "tempo": 120.0
            },
            {
                "pitch": 69,
                "velocity": 13,
                "duration": 0.3682,
                "tempo": 120.0
            },
            {
                "pitch": 69,
                "velocity": 8,
                "duration": 0.3341,
                "tempo": 120.0
            },
            {
                "pitch": 69,
                "velocity": 8,
                "duration": 0.3659,
                "tempo": 120.0
            }
        ],
        "Electric Guitar (clean)": [
            {
                "pitch": 64,
                "velocity": 80,
                "duration": 0.1205,
                "tempo": 120.0
            },
            {
                "pitch": 69,
                "velocity": 80,
                "duration": 0.1205,
                "tempo": 120.0
            },
            {
                "pitch": 62,
                "velocity": 80,
                "duration": 0.1182,
                "tempo": 120.0
            },
            {
                "pitch": 67,
                "velocity": 80,
                "duration": 0.1205,
                "tempo": 120.0
            },
            {
                "pitch": 60,
                "velocity": 80,
                "duration": 0.1205,
                "tempo": 120.0
            },
            {
                "pitch": 65,
                "velocity": 80,
                "duration": 0.1205,
                "tempo": 120.0
            },
            {
                "pitch": 65,
                "velocity": 80,
                "duration": 0.1205,
                "tempo": 120.0
            }
        ],
        "Trumpet": [
            {
                "pitch": 81,
                "velocity": 40,
                "duration": 7.5409,
                "tempo": 120.0
            },
            {
                "pitch": 81,
                "velocity": 40,
                "duration": 0.1864,
                "tempo": 120.0
            },
            {
                "pitch": 74,
                "velocity": 40,
                "duration": 0.5636,
                "tempo": 120.0
            },
            {
                "pitch": 76,
                "velocity": 40,
                "duration": 5.0023,
                "tempo": 120.0
            },
            {
                "pitch": 76,
                "velocity": 40,
                "duration": 5.0023,
                "tempo": 120.0
            },
            {
                "pitch": 76,
                "velocity": 80,
                "duration": 0.4568,
                "tempo": 120.0
            },
            {
                "pitch": 81,
                "velocity": 64,
                "duration": 0.1386,
                "tempo": 120.0
            },
            {
                "pitch": 81,
                "velocity": 51,
                "duration": 0.1409,
                "tempo": 120.0
            },
            {
                "pitch": 81,
                "velocity": 51,
                "duration": 0.1205,
                "tempo": 120.0
            },
            {
                "pitch": 81,
                "velocity": 51,
                "duration": 0.1182,
                "tempo": 120.0
            },
            {
                "pitch": 81,
                "velocity": 20,
                "duration": 15.8977,
                "tempo": 120.0
            },
            {
                "pitch": 79,
                "velocity": 80,
                "duration": 0.0909,
                "tempo": 120.0
            },
            {
                "pitch": 81,
                "velocity": 64,
                "duration": 0.0682,
                "tempo": 120.0
            },
            {
                "pitch": 82,
                "velocity": 64,
                "duration": 0.8909,
                "tempo": 120.0
            },
            {
                "pitch": 81,
                "velocity": 64,
                "duration": 0.3545,
                "tempo": 120.0
            },
            {
                "pitch": 79,
                "velocity": 64,
                "duration": 0.3227,
                "tempo": 120.0
            },
            {
                "pitch": 90,
                "velocity": 64,
                "duration": 0.0023,
                "tempo": 120.0
            },
            {
                "pitch": 78,
                "velocity": 64,
                "duration": 0.2636,
                "tempo": 120.0
            },
            {
                "pitch": 75,
                "velocity": 64,
                "duration": 0.2591,
                "tempo": 120.0
            },
            {
                "pitch": 75,
                "velocity": 64,
                "duration": 0.2591,
                "tempo": 120.0
            },
            {
                "pitch": 78,
                "velocity": 64,
                "duration": 0.2341,
                "tempo": 120.0
            },
            {
                "pitch": 78,
                "velocity": 64,
                "duration": 0.2341,
                "tempo": 120.0
            },
            {
                "pitch": 75,
                "velocity": 64,
                "duration": 0.2341,
                "tempo": 120.0
            },
            {
                "pitch": 75,
                "velocity": 64,
                "duration": 0.2341,
                "tempo": 120.0
            },
            {
                "pitch": 78,
                "velocity": 64,
                "duration": 0.2,
                "tempo": 120.0
            },
            {
                "pitch": 78,
                "velocity": 64,
                "duration": 0.2,
                "tempo": 120.0
            },
            {
                "pitch": 75,
                "velocity": 64,
                "duration": 0.2,
                "tempo": 120.0
            },
            {
                "pitch": 75,
                "velocity": 64,
                "duration": 0.2,
                "tempo": 120.0
            },
            {
                "pitch": 78,
                "velocity": 64,
                "duration": 0.1568,
                "tempo": 120.0
            },
            {
                "pitch": 78,
                "velocity": 64,
                "duration": 0.1568,
                "tempo": 120.0
            },
            {
                "pitch": 75,
                "velocity": 64,
                "duration": 0.1568,
                "tempo": 120.0
            },
            {
                "pitch": 75,
                "velocity": 64,
                "duration": 0.1568,
                "tempo": 120.0
            },
            {
                "pitch": 78,
                "velocity": 64,
                "duration": 0.1273,
                "tempo": 120.0
            },
            {
                "pitch": 78,
                "velocity": 64,
                "duration": 0.1273,
                "tempo": 120.0
            },
            {
                "pitch": 75,
                "velocity": 64,
                "duration": 0.1318,
                "tempo": 120.0
            },
            {
                "pitch": 75,
                "velocity": 64,
                "duration": 0.1318,
                "tempo": 120.0
            },
            {
                "pitch": 78,
                "velocity": 64,
                "duration": 0.0977,
                "tempo": 120.0
            },
            {
                "pitch": 78,
                "velocity": 64,
                "duration": 0.0977,
                "tempo": 120.0
            },
            {
                "pitch": 75,
                "velocity": 64,
                "duration": 0.0977,
                "tempo": 120.0
            },
            {
                "pitch": 75,
                "velocity": 64,
                "duration": 0.0977,
                "tempo": 120.0
            },
            {
                "pitch": 78,
                "velocity": 64,
                "duration": 0.0977,
                "tempo": 120.0
            },
            {
                "pitch": 78,
                "velocity": 64,
                "duration": 0.0977,
                "tempo": 120.0
            },
            {
                "pitch": 75,
                "velocity": 64,
                "duration": 0.1045,
                "tempo": 120.0
            },
            {
                "pitch": 75,
                "velocity": 64,
                "duration": 0.1045,
                "tempo": 120.0
            },
            {
                "pitch": 78,
                "velocity": 64,
                "duration": 0.0886,
                "tempo": 120.0
            },
            {
                "pitch": 78,
                "velocity": 64,
                "duration": 0.0886,
                "tempo": 120.0
            },
            {
                "pitch": 75,
                "velocity": 64,
                "duration": 0.0864,
                "tempo": 120.0
            },
            {
                "pitch": 75,
                "velocity": 64,
                "duration": 0.0864,
                "tempo": 120.0
            },
            {
                "pitch": 78,
                "velocity": 64,
                "duration": 0.0864,
                "tempo": 120.0
            },
            {
                "pitch": 78,
                "velocity": 64,
                "duration": 0.0864,
                "tempo": 120.0
            },
            {
                "pitch": 75,
                "velocity": 64,
                "duration": 0.0705,
                "tempo": 120.0
            },
            {
                "pitch": 75,
                "velocity": 64,
                "duration": 0.0705,
                "tempo": 120.0
            },
            {
                "pitch": 78,
                "velocity": 64,
                "duration": 0.5318,
                "tempo": 120.0
            },
            {
                "pitch": 78,
                "velocity": 64,
                "duration": 0.5318,
                "tempo": 120.0
            },
            {
                "pitch": 86,
                "velocity": 40,
                "duration": 48.8932,
                "tempo": 120.0
            },
            {
                "pitch": 86,
                "velocity": 32,
                "duration": 2.15,
                "tempo": 120.0
            },
            {
                "pitch": 84,
                "velocity": 32,
                "duration": 0.2386,
                "tempo": 120.0
            },
            {
                "pitch": 86,
                "velocity": 32,
                "duration": 0.2386,
                "tempo": 120.0
            },
            {
                "pitch": 87,
                "velocity": 32,
                "duration": 0.7205,
                "tempo": 120.0
            },
            {
                "pitch": 86,
                "velocity": 32,
                "duration": 0.2409,
                "tempo": 120.0
            },
            {
                "pitch": 84,
                "velocity": 32,
                "duration": 0.2364,
                "tempo": 120.0
            },
            {
                "pitch": 82,
                "velocity": 32,
                "duration": 0.2341,
                "tempo": 120.0
            },
            {
                "pitch": 82,
                "velocity": 32,
                "duration": 0.2341,
                "tempo": 120.0
            },
            {
                "pitch": 84,
                "velocity": 32,
                "duration": 0.2386,
                "tempo": 120.0
            },
            {
                "pitch": 84,
                "velocity": 32,
                "duration": 0.2386,
                "tempo": 120.0
            },
            {
                "pitch": 82,
                "velocity": 32,
                "duration": 0.2386,
                "tempo": 120.0
            },
            {
                "pitch": 82,
                "velocity": 32,
                "duration": 0.2386,
                "tempo": 120.0
            },
            {
                "pitch": 81,
                "velocity": 32,
                "duration": 1.1977,
                "tempo": 120.0
            },
            {
                "pitch": 87,
                "velocity": 32,
                "duration": 0.4727,
                "tempo": 120.0
            },
            {
                "pitch": 87,
                "velocity": 32,
                "duration": 0.4727,
                "tempo": 120.0
            },
            {
                "pitch": 86,
                "velocity": 32,
                "duration": 0.2386,
                "tempo": 120.0
            },
            {
                "pitch": 84,
                "velocity": 32,
                "duration": 0.2409,
                "tempo": 120.0
            },
            {
                "pitch": 86,
                "velocity": 32,
                "duration": 0.2409,
                "tempo": 120.0
            },
            {
                "pitch": 82,
                "velocity": 32,
                "duration": 0.4795,
                "tempo": 120.0
            },
            {
                "pitch": 82,
                "velocity": 32,
                "duration": 0.4795,
                "tempo": 120.0
            },
            {
                "pitch": 84,
                "velocity": 32,
                "duration": 0.2364,
                "tempo": 120.0
            },
            {
                "pitch": 84,
                "velocity": 32,
                "duration": 0.2364,
                "tempo": 120.0
            },
            {
                "pitch": 82,
                "velocity": 32,
                "duration": 0.2341,
                "tempo": 120.0
            },
            {
                "pitch": 82,
                "velocity": 32,
                "duration": 0.2341,
                "tempo": 120.0
            },
            {
                "pitch": 84,
                "velocity": 32,
                "duration": 0.2386,
                "tempo": 120.0
            },
            {
                "pitch": 84,
                "velocity": 32,
                "duration": 0.2386,
                "tempo": 120.0
            },
            {
                "pitch": 82,
                "velocity": 32,
                "duration": 0.1205,
                "tempo": 120.0
            },
            {
                "pitch": 82,
                "velocity": 32,
                "duration": 0.1205,
                "tempo": 120.0
            },
            {
                "pitch": 84,
                "velocity": 32,
                "duration": 0.1182,
                "tempo": 120.0
            },
            {
                "pitch": 84,
                "velocity": 32,
                "duration": 0.1182,
                "tempo": 120.0
            },
            {
                "pitch": 82,
                "velocity": 32,
                "duration": 0.0023,
                "tempo": 120.0
            },
            {
                "pitch": 82,
                "velocity": 32,
                "duration": 0.2386,
                "tempo": 120.0
            },
            {
                "pitch": 81,
                "velocity": 32,
                "duration": 14.3909,
                "tempo": 120.0
            },
            {
                "pitch": 65,
                "velocity": 10,
                "duration": 1.8091,
                "tempo": 120.0
            },
            {
                "pitch": 65,
                "velocity": 16,
                "duration": 1.75,
                "tempo": 120.0
            },
            {
                "pitch": 65,
                "velocity": 25,
                "duration": 1.7477,
                "tempo": 120.0
            },
            {
                "pitch": 65,
                "velocity": 40,
                "duration": 20.3068,
                "tempo": 120.0
            },
            {
                "pitch": 81,
                "velocity": 40,
                "duration": 2.6591,
                "tempo": 120.0
            }
        ],
        "Harpsichord": [
            {
                "pitch": 45,
                "velocity": 127,
                "duration": 0.4591,
                "tempo": 120.0
            },
            {
                "pitch": 45,
                "velocity": 127,
                "duration": 0.4523,
                "tempo": 120.0
            },
            {
                "pitch": 33,
                "velocity": 101,
                "duration": 0.4795,
                "tempo": 120.0
            },
            {
                "pitch": 33,
                "velocity": 101,
                "duration": 5.5773,
                "tempo": 120.0
            },
            {
                "pitch": 38,
                "velocity": 101,
                "duration": 0.1205,
                "tempo": 120.0
            },
            {
                "pitch": 38,
                "velocity": 80,
                "duration": 0.1205,
                "tempo": 120.0
            },
            {
                "pitch": 38,
                "velocity": 101,
                "duration": 0.1182,
                "tempo": 120.0
            },
            {
                "pitch": 38,
                "velocity": 80,
                "duration": 11.575,
                "tempo": 120.0
            },
            {
                "pitch": 82,
                "velocity": 80,
                "duration": 0.0023,
                "tempo": 120.0
            },
            {
                "pitch": 70,
                "velocity": 32,
                "duration": 0.2386,
                "tempo": 120.0
            },
            {
                "pitch": 65,
                "velocity": 32,
                "duration": 0.2409,
                "tempo": 120.0
            },
            {
                "pitch": 70,
                "velocity": 32,
                "duration": 0.2341,
                "tempo": 120.0
            },
            {
                "pitch": 77,
                "velocity": 32,
                "duration": 0.475,
                "tempo": 120.0
            },
            {
                "pitch": 77,
                "velocity": 32,
                "duration": 0.475,
                "tempo": 120.0
            },
            {
                "pitch": 77,
                "velocity": 32,
                "duration": 0.475,
                "tempo": 120.0
            },
            {
                "pitch": 70,
                "velocity": 32,
                "duration": 0.4682,
                "tempo": 120.0
            },
            {
                "pitch": 70,
                "velocity": 32,
                "duration": 0.4682,
                "tempo": 120.0
            },
            {
                "pitch": 58,
                "velocity": 32,
                "duration": 1.4068,
                "tempo": 120.0
            },
            {
                "pitch": 65,
                "velocity": 32,
                "duration": 0.2295,
                "tempo": 120.0
            },
            {
                "pitch": 70,
                "velocity": 32,
                "duration": 0.2455,
                "tempo": 120.0
            },
            {
                "pitch": 77,
                "velocity": 32,
                "duration": 0.475,
                "tempo": 120.0
            },
            {
                "pitch": 58,
                "velocity": 32,
                "duration": 0.4909,
                "tempo": 120.0
            },
            {
                "pitch": 65,
                "velocity": 32,
                "duration": 0.2455,
                "tempo": 120.0
            },
            {
                "pitch": 70,
                "velocity": 32,
                "duration": 0.2409,
                "tempo": 120.0
            },
            {
                "pitch": 77,
                "velocity": 32,
                "duration": 0.4864,
                "tempo": 120.0
            },
            {
                "pitch": 77,
                "velocity": 32,
                "duration": 0.4818,
                "tempo": 120.0
            },
            {
                "pitch": 77,
                "velocity": 32,
                "duration": 0.4818,
                "tempo": 120.0
            },
            {
                "pitch": 70,
                "velocity": 32,
                "duration": 0.4795,
                "tempo": 120.0
            },
            {
                "pitch": 70,
                "velocity": 32,
                "duration": 0.4795,
                "tempo": 120.0
            },
            {
                "pitch": 58,
                "velocity": 32,
                "duration": 1.4364,
                "tempo": 120.0
            },
            {
                "pitch": 65,
                "velocity": 32,
                "duration": 0.2341,
                "tempo": 120.0
            },
            {
                "pitch": 70,
                "velocity": 32,
                "duration": 0.2409,
                "tempo": 120.0
            },
            {
                "pitch": 77,
                "velocity": 32,
                "duration": 0.475,
                "tempo": 120.0
            },
            {
                "pitch": 58,
                "velocity": 32,
                "duration": 0.4795,
                "tempo": 120.0
            },
            {
                "pitch": 65,
                "velocity": 32,
                "duration": 0.2386,
                "tempo": 120.0
            },
            {
                "pitch": 70,
                "velocity": 32,
                "duration": 0.2364,
                "tempo": 120.0
            },
            {
                "pitch": 77,
                "velocity": 32,
                "duration": 0.475,
                "tempo": 120.0
            },
            {
                "pitch": 77,
                "velocity": 32,
                "duration": 0.4727,
                "tempo": 120.0
            },
            {
                "pitch": 77,
                "velocity": 32,
                "duration": 0.4727,
                "tempo": 120.0
            },
            {
                "pitch": 70,
                "velocity": 32,
                "duration": 0.475,
                "tempo": 120.0
            },
            {
                "pitch": 70,
                "velocity": 32,
                "duration": 0.475,
                "tempo": 120.0
            },
            {
                "pitch": 58,
                "velocity": 32,
                "duration": 1.4182,
                "tempo": 120.0
            },
            {
                "pitch": 65,
                "velocity": 32,
                "duration": 0.2341,
                "tempo": 120.0
            },
            {
                "pitch": 70,
                "velocity": 32,
                "duration": 0.1932,
                "tempo": 120.0
            },
            {
                "pitch": 72,
                "velocity": 32,
                "duration": 0.1591,
                "tempo": 120.0
            },
            {
                "pitch": 72,
                "velocity": 32,
                "duration": 0.1591,
                "tempo": 120.0
            },
            {
                "pitch": 77,
                "velocity": 32,
                "duration": 0.5864,
                "tempo": 120.0
            },
            {
                "pitch": 77,
                "velocity": 32,
                "duration": 0.1682,
                "tempo": 120.0
            },
            {
                "pitch": 77,
                "velocity": 32,
                "duration": 0.1682,
                "tempo": 120.0
            },
            {
                "pitch": 70,
                "velocity": 32,
                "duration": 0.1409,
                "tempo": 120.0
            },
            {
                "pitch": 70,
                "velocity": 32,
                "duration": 0.1409,
                "tempo": 120.0
            },
            {
                "pitch": 72,
                "velocity": 32,
                "duration": 0.1409,
                "tempo": 120.0
            },
            {
                "pitch": 72,
                "velocity": 32,
                "duration": 0.1409,
                "tempo": 120.0
            },
            {
                "pitch": 77,
                "velocity": 32,
                "duration": 0.1545,
                "tempo": 120.0
            },
            {
                "pitch": 77,
                "velocity": 32,
                "duration": 0.1545,
                "tempo": 120.0
            },
            {
                "pitch": 70,
                "velocity": 32,
                "duration": 0.1386,
                "tempo": 120.0
            },
            {
                "pitch": 70,
                "velocity": 32,
                "duration": 0.1386,
                "tempo": 120.0
            },
            {
                "pitch": 72,
                "velocity": 32,
                "duration": 0.1364,
                "tempo": 120.0
            },
            {
                "pitch": 72,
                "velocity": 32,
                "duration": 0.1364,
                "tempo": 120.0
            },
            {
                "pitch": 77,
                "velocity": 32,
                "duration": 0.1545,
                "tempo": 120.0
            },
            {
                "pitch": 77,
                "velocity": 32,
                "duration": 0.1545,
                "tempo": 120.0
            },
            {
                "pitch": 70,
                "velocity": 32,
                "duration": 0.1364,
                "tempo": 120.0
            },
            {
                "pitch": 70,
                "velocity": 32,
                "duration": 0.1364,
                "tempo": 120.0
            },
            {
                "pitch": 72,
                "velocity": 32,
                "duration": 0.1386,
                "tempo": 120.0
            },
            {
                "pitch": 72,
                "velocity": 32,
                "duration": 0.1364,
                "tempo": 120.0
            },
            {
                "pitch": 77,
                "velocity": 32,
                "duration": 0.1636,
                "tempo": 120.0
            },
            {
                "pitch": 77,
                "velocity": 32,
                "duration": 0.1636,
                "tempo": 120.0
            },
            {
                "pitch": 70,
                "velocity": 32,
                "duration": 0.1477,
                "tempo": 120.0
            },
            {
                "pitch": 70,
                "velocity": 32,
                "duration": 0.1477,
                "tempo": 120.0
            },
            {
                "pitch": 72,
                "velocity": 32,
                "duration": 0.1477,
                "tempo": 120.0
            },
            {
                "pitch": 72,
                "velocity": 32,
                "duration": 0.1477,
                "tempo": 120.0
            },
            {
                "pitch": 77,
                "velocity": 32,
                "duration": 0.175,
                "tempo": 120.0
            },
            {
                "pitch": 77,
                "velocity": 32,
                "duration": 0.175,
                "tempo": 120.0
            },
            {
                "pitch": 70,
                "velocity": 20,
                "duration": 0.1568,
                "tempo": 120.0
            },
            {
                "pitch": 70,
                "velocity": 32,
                "duration": 0.1568,
                "tempo": 120.0
            },
            {
                "pitch": 72,
                "velocity": 20,
                "duration": 0.1727,
                "tempo": 120.0
            },
            {
                "pitch": 72,
                "velocity": 20,
                "duration": 0.1727,
                "tempo": 120.0
            },
            {
                "pitch": 77,
                "velocity": 20,
                "duration": 0.15,
                "tempo": 120.0
            },
            {
                "pitch": 77,
                "velocity": 20,
                "duration": 0.15,
                "tempo": 120.0
            },
            {
                "pitch": 70,
                "velocity": 20,
                "duration": 0.1523,
                "tempo": 120.0
            },
            {
                "pitch": 70,
                "velocity": 20,
                "duration": 0.1523,
                "tempo": 120.0
            },
            {
                "pitch": 72,
                "velocity": 20,
                "duration": 0.1659,
                "tempo": 120.0
            },
            {
                "pitch": 72,
                "velocity": 20,
                "duration": 0.1659,
                "tempo": 120.0
            },
            {
                "pitch": 77,
                "velocity": 20,
                "duration": 0.1545,
                "tempo": 120.0
            },
            {
                "pitch": 77,
                "velocity": 20,
                "duration": 0.1545,
                "tempo": 120.0
            },
            {
                "pitch": 70,
                "velocity": 16,
                "duration": 0.1545,
                "tempo": 120.0
            },
            {
                "pitch": 70,
                "velocity": 20,
                "duration": 0.1545,
                "tempo": 120.0
            },
            {
                "pitch": 72,
                "velocity": 16,
                "duration": 0.1705,
                "tempo": 120.0
            },
            {
                "pitch": 72,
                "velocity": 16,
                "duration": 0.1705,
                "tempo": 120.0
            },
            {
                "pitch": 77,
                "velocity": 16,
                "duration": 0.1523,
                "tempo": 120.0
            },
            {
                "pitch": 77,
                "velocity": 16,
                "duration": 0.1523,
                "tempo": 120.0
            },
            {
                "pitch": 70,
                "velocity": 13,
                "duration": 0.15,
                "tempo": 120.0
            },
            {
                "pitch": 70,
                "velocity": 16,
                "duration": 0.15,
                "tempo": 120.0
            },
            {
                "pitch": 72,
                "velocity": 13,
                "duration": 0.1682,
                "tempo": 120.0
            },
            {
                "pitch": 72,
                "velocity": 13,
                "duration": 0.1682,
                "tempo": 120.0
            },
            {
                "pitch": 77,
                "velocity": 13,
                "duration": 0.1568,
                "tempo": 120.0
            },
            {
                "pitch": 77,
                "velocity": 13,
                "duration": 0.1568,
                "tempo": 120.0
            },
            {
                "pitch": 70,
                "velocity": 13,
                "duration": 0.0023,
                "tempo": 120.0
            },
            {
                "pitch": 70,
                "velocity": 10,
                "duration": 0.1568,
                "tempo": 120.0
            },
            {
                "pitch": 72,
                "velocity": 10,
                "duration": 0.175,
                "tempo": 120.0
            },
            {
                "pitch": 72,
                "velocity": 10,
                "duration": 0.175,
                "tempo": 120.0
            },
            {
                "pitch": 77,
                "velocity": 10,
                "duration": 0.1545,
                "tempo": 120.0
            },
            {
                "pitch": 77,
                "velocity": 10,
                "duration": 0.1545,
                "tempo": 120.0
            },
            {
                "pitch": 70,
                "velocity": 8,
                "duration": 0.1545,
                "tempo": 120.0
            },
            {
                "pitch": 70,
                "velocity": 10,
                "duration": 0.1545,
                "tempo": 120.0
            },
            {
                "pitch": 72,
                "velocity": 8,
                "duration": 0.1705,
                "tempo": 120.0
            },
            {
                "pitch": 72,
                "velocity": 8,
                "duration": 0.1705,
                "tempo": 120.0
            },
            {
                "pitch": 77,
                "velocity": 8,
                "duration": 0.1523,
                "tempo": 120.0
            },
            {
                "pitch": 77,
                "velocity": 8,
                "duration": 0.1523,
                "tempo": 120.0
            },
            {
                "pitch": 70,
                "velocity": 6,
                "duration": 0.15,
                "tempo": 120.0
            },
            {
                "pitch": 70,
                "velocity": 8,
                "duration": 0.15,
                "tempo": 120.0
            },
            {
                "pitch": 72,
                "velocity": 5,
                "duration": 0.1682,
                "tempo": 120.0
            },
            {
                "pitch": 72,
                "velocity": 6,
                "duration": 0.1682,
                "tempo": 120.0
            }
        ],
        "Oboe": [
            {
                "pitch": 62,
                "velocity": 101,
                "duration": 0.1182,
                "tempo": 120.0
            },
            {
                "pitch": 63,
                "velocity": 64,
                "duration": 0.3023,
                "tempo": 120.0
            },
            {
                "pitch": 63,
                "velocity": 80,
                "duration": 0.2545,
                "tempo": 120.0
            },
            {
                "pitch": 63,
                "velocity": 80,
                "duration": 0.2227,
                "tempo": 120.0
            },
            {
                "pitch": 63,
                "velocity": 80,
                "duration": 0.1886,
                "tempo": 120.0
            },
            {
                "pitch": 63,
                "velocity": 80,
                "duration": 0.1727,
                "tempo": 120.0
            },
            {
                "pitch": 63,
                "velocity": 80,
                "duration": 0.1545,
                "tempo": 120.0
            },
            {
                "pitch": 63,
                "velocity": 101,
                "duration": 0.1114,
                "tempo": 120.0
            },
            {
                "pitch": 63,
                "velocity": 101,
                "duration": 0.0955,
                "tempo": 120.0
            },
            {
                "pitch": 63,
                "velocity": 101,
                "duration": 0.2091,
                "tempo": 120.0
            },
            {
                "pitch": 62,
                "velocity": 101,
                "duration": 0.1182,
                "tempo": 120.0
            },
            {
                "pitch": 63,
                "velocity": 101,
                "duration": 0.125,
                "tempo": 120.0
            },
            {
                "pitch": 62,
                "velocity": 80,
                "duration": 0.1068,
                "tempo": 120.0
            },
            {
                "pitch": 63,
                "velocity": 80,
                "duration": 0.1068,
                "tempo": 120.0
            },
            {
                "pitch": 62,
                "velocity": 80,
                "duration": 0.0886,
                "tempo": 120.0
            },
            {
                "pitch": 63,
                "velocity": 101,
                "duration": 0.3273,
                "tempo": 120.0
            }
        ],
        "Acoustic Bass": [
            {
                "pitch": 40,
                "velocity": 101,
                "duration": 0.1205,
                "tempo": 120.0
            },
            {
                "pitch": 45,
                "velocity": 101,
                "duration": 0.1205,
                "tempo": 120.0
            },
            {
                "pitch": 38,
                "velocity": 101,
                "duration": 0.1205,
                "tempo": 120.0
            },
            {
                "pitch": 43,
                "velocity": 101,
                "duration": 0.1182,
                "tempo": 120.0
            },
            {
                "pitch": 36,
                "velocity": 101,
                "duration": 0.1205,
                "tempo": 120.0
            },
            {
                "pitch": 41,
                "velocity": 101,
                "duration": 0.1205,
                "tempo": 120.0
            },
            {
                "pitch": 41,
                "velocity": 101,
                "duration": 0.1205,
                "tempo": 120.0
            },
            {
                "pitch": 33,
                "velocity": 101,
                "duration": 10.6136,
                "tempo": 120.0
            },
            {
                "pitch": 33,
                "velocity": 127,
                "duration": 0.2386,
                "tempo": 120.0
            },
            {
                "pitch": 33,
                "velocity": 127,
                "duration": 0.2455,
                "tempo": 120.0
            },
            {
                "pitch": 33,
                "velocity": 127,
                "duration": 0.2455,
                "tempo": 120.0
            },
            {
                "pitch": 33,
                "velocity": 127,
                "duration": 0.2409,
                "tempo": 120.0
            },
            {
                "pitch": 39,
                "velocity": 127,
                "duration": 0.4568,
                "tempo": 120.0
            },
            {
                "pitch": 39,
                "velocity": 127,
                "duration": 0.4523,
                "tempo": 120.0
            },
            {
                "pitch": 39,
                "velocity": 127,
                "duration": 0.4818,
                "tempo": 120.0
            },
            {
                "pitch": 39,
                "velocity": 127,
                "duration": 0.4795,
                "tempo": 120.0
            },
            {
                "pitch": 38,
                "velocity": 101,
                "duration": 0.1205,
                "tempo": 120.0
            },
            {
                "pitch": 38,
                "velocity": 80,
                "duration": 0.1205,
                "tempo": 120.0
            },
            {
                "pitch": 38,
                "velocity": 101,
                "duration": 0.1182,
                "tempo": 120.0
            }
        ]
    }
}