{
    "track_id": "Shanghai (FM) - 04 - Music Type B",
    "mood": "happy",
    "instruments": {
        "Electric Guitar (clean)": [
            {
                "pitch": 73,
                "velocity": 64,
                "duration": 0.1841,
                "tempo": 120.0
            },
            {
                "pitch": 71,
                "velocity": 64,
                "duration": 0.2,
                "tempo": 120.0
            },
            {
                "pitch": 70,
                "velocity": 64,
                "duration": 0.4182,
                "tempo": 120.0
            },
            {
                "pitch": 70,
                "velocity": 64,
                "duration": 0.1841,
                "tempo": 120.0
            },
            {
                "pitch": 70,
                "velocity": 64,
                "duration": 0.1841,
                "tempo": 120.0
            },
            {
                "pitch": 68,
                "velocity": 64,
                "duration": 0.4091,
                "tempo": 120.0
            },
            {
                "pitch": 68,
                "velocity": 64,
                "duration": 0.2091,
                "tempo": 120.0
            },
            {
                "pitch": 68,
                "velocity": 64,
                "duration": 0.1909,
                "tempo": 120.0
            },
            {
                "pitch": 66,
                "velocity": 64,
                "duration": 1.2705,
                "tempo": 120.0
            },
            {
                "pitch": 73,
                "velocity": 64,
                "duration": 0.2,
                "tempo": 120.0
            },
            {
                "pitch": 71,
                "velocity": 64,
                "duration": 0.2023,
                "tempo": 120.0
            },
            {
                "pitch": 70,
                "velocity": 64,
                "duration": 0.3932,
                "tempo": 120.0
            },
            {
                "pitch": 70,
                "velocity": 64,
                "duration": 0.1773,
                "tempo": 120.0
            },
            {
                "pitch": 70,
                "velocity": 64,
                "duration": 0.2159,
                "tempo": 120.0
            },
            {
                "pitch": 68,
                "velocity": 64,
                "duration": 0.3977,
                "tempo": 120.0
            },
            {
                "pitch": 68,
                "velocity": 64,
                "duration": 0.1886,
                "tempo": 120.0
            },
            {
                "pitch": 68,
                "velocity": 64,
                "duration": 0.1886,
                "tempo": 120.0
            },
            {
                "pitch": 66,
                "velocity": 64,
                "duration": 1.2977,
                "tempo": 120.0
            },
            {
                "pitch": 73,
                "velocity": 64,
                "duration": 0.1977,
                "tempo": 120.0
            },
            {
                "pitch": 71,
                "velocity": 64,
                "duration": 0.1977,
                "tempo": 120.0
            },
            {
                "pitch": 70,
                "velocity": 64,
                "duration": 0.4023,
                "tempo": 120.0
            },
            {
                "pitch": 70,
                "velocity": 64,
                "duration": 0.2,
                "tempo": 120.0
            },
            {
                "pitch": 70,
                "velocity": 64,
                "duration": 0.2,
                "tempo": 120.0
            },
            {
                "pitch": 68,
                "velocity": 64,
                "duration": 0.4023,
                "tempo": 120.0
            },
            {
                "pitch": 68,
                "velocity": 64,
                "duration": 0.1977,
                "tempo": 120.0
            },
            {
                "pitch": 68,
                "velocity": 64,
                "duration": 0.2136,
                "tempo": 120.0
            },
            {
                "pitch": 66,
                "velocity": 64,
                "duration": 1.2864,
                "tempo": 120.0
            },
            {
                "pitch": 73,
                "velocity": 64,
                "duration": 0.1977,
                "tempo": 120.0
            },
            {
                "pitch": 71,
                "velocity": 64,
                "duration": 0.1795,
                "tempo": 120.0
            },
            {
                "pitch": 70,
                "velocity": 64,
                "duration": 0.4091,
                "tempo": 120.0
            },
            {
                "pitch": 70,
                "velocity": 64,
                "duration": 0.2023,
                "tempo": 120.0
            },
            {
                "pitch": 70,
                "velocity": 64,
                "duration": 0.2,
                "tempo": 120.0
            },
            {
                "pitch": 68,
                "velocity": 64,
                "duration": 0.3932,
                "tempo": 120.0
            },
            {
                "pitch": 68,
                "velocity": 64,
                "duration": 0.2,
                "tempo": 120.0
            },
            {
                "pitch": 68,
                "velocity": 64,
                "duration": 0.2023,
                "tempo": 120.0
            },
            {
                "pitch": 66,
                "velocity": 64,
                "duration": 0.4,
                "tempo": 120.0
            },
            {
                "pitch": 45,
                "velocity": 64,
                "duration": 0.1886,
                "tempo": 120.0
            },
            {
                "pitch": 45,
                "velocity": 64,
                "duration": 1.5227,
                "tempo": 120.0
            },
            {
                "pitch": 47,
                "velocity": 64,
                "duration": 0.2045,
                "tempo": 120.0
            },
            {
                "pitch": 47,
                "velocity": 64,
                "duration": 1.4932,
                "tempo": 120.0
            },
            {
                "pitch": 45,
                "velocity": 64,
                "duration": 0.2,
                "tempo": 120.0
            },
            {
                "pitch": 45,
                "velocity": 64,
                "duration": 1.5045,
                "tempo": 120.0
            },
            {
                "pitch": 42,
                "velocity": 64,
                "duration": 0.1864,
                "tempo": 120.0
            },
            {
                "pitch": 42,
                "velocity": 64,
                "duration": 1.5114,
                "tempo": 120.0
            },
            {
                "pitch": 45,
                "velocity": 64,
                "duration": 0.1955,
                "tempo": 120.0
            },
            {
                "pitch": 45,
                "velocity": 64,
                "duration": 1.4773,
                "tempo": 120.0
            },
            {
                "pitch": 47,
                "velocity": 64,
                "duration": 0.1932,
                "tempo": 120.0
            },
            {
                "pitch": 47,
                "velocity": 64,
                "duration": 1.5159,
                "tempo": 120.0
            },
            {
                "pitch": 45,
                "velocity": 64,
                "duration": 0.2091,
                "tempo": 120.0
            },
            {
                "pitch": 45,
                "velocity": 64,
                "duration": 1.5,
                "tempo": 120.0
            },
            {
                "pitch": 42,
                "velocity": 64,
                "duration": 0.1955,
                "tempo": 120.0
            },
            {
                "pitch": 42,
                "velocity": 64,
                "duration": 1.5114,
                "tempo": 120.0
            },
            {
                "pitch": 45,
                "velocity": 64,
                "duration": 0.1864,
                "tempo": 120.0
            },
            {
                "pitch": 45,
                "velocity": 64,
                "duration": 1.4955,
                "tempo": 120.0
            },
            {
                "pitch": 47,
                "velocity": 64,
                "duration": 0.1977,
                "tempo": 120.0
            },
            {
                "pitch": 47,
                "velocity": 64,
                "duration": 1.4773,
                "tempo": 120.0
            },
            {
                "pitch": 45,
                "velocity": 64,
                "duration": 0.1886,
                "tempo": 120.0
            },
            {
                "pitch": 45,
                "velocity": 64,
                "duration": 1.5114,
                "tempo": 120.0
            },
            {
                "pitch": 42,
                "velocity": 64,
                "duration": 0.2045,
                "tempo": 120.0
            },
            {
                "pitch": 42,
                "velocity": 64,
                "duration": 1.5023,
                "tempo": 120.0
            },
            {
                "pitch": 45,
                "velocity": 64,
                "duration": 0.1955,
                "tempo": 120.0
            },
            {
                "pitch": 45,
                "velocity": 64,
                "duration": 1.5023,
                "tempo": 120.0
            },
            {
                "pitch": 47,
                "velocity": 64,
                "duration": 0.175,
                "tempo": 120.0
            },
            {
                "pitch": 47,
                "velocity": 64,
                "duration": 1.4955,
                "tempo": 120.0
            },
            {
                "pitch": 45,
                "velocity": 64,
                "duration": 0.2023,
                "tempo": 120.0
            },
            {
                "pitch": 45,
                "velocity": 64,
                "duration": 1.4886,
                "tempo": 120.0
            },
            {
                "pitch": 42,
                "velocity": 64,
                "duration": 0.1932,
                "tempo": 120.0
            },
            {
                "pitch": 42,
                "velocity": 64,
                "duration": 1.5045,
                "tempo": 120.0
            },
            {
                "pitch": 40,
                "velocity": 64,
                "duration": 0.2,
                "tempo": 120.0
            },
            {
                "pitch": 40,
                "velocity": 64,
                "duration": 0.1659,
                "tempo": 120.0
            },
            {
                "pitch": 42,
                "velocity": 64,
                "duration": 0.2114,
                "tempo": 120.0
            },
            {
                "pitch": 42,
                "velocity": 64,
                "duration": 0.2114,
                "tempo": 120.0
            },
            {
                "pitch": 40,
                "velocity": 64,
                "duration": 0.1841,
                "tempo": 120.0
            },
            {
                "pitch": 40,
                "velocity": 64,
                "duration": 0.1841,
                "tempo": 120.0
            },
            {
                "pitch": 42,
                "velocity": 64,
                "duration": 0.2023,
                "tempo": 120.0
            },
            {
                "pitch": 42,
                "velocity": 64,
                "duration": 0.2,
                "tempo": 120.0
            },
            {
                "pitch": 40,
                "velocity": 64,
                "duration": 0.1705,
                "tempo": 120.0
            },
            {
                "pitch": 40,
                "velocity": 64,
                "duration": 0.2068,
                "tempo": 120.0
            },
            {
                "pitch": 42,
                "velocity": 64,
                "duration": 0.2091,
                "tempo": 120.0
            },
            {
                "pitch": 42,
                "velocity": 64,
                "duration": 0.1909,
                "tempo": 120.0
            },
            {
                "pitch": 40,
                "velocity": 64,
                "duration": 0.1909,
                "tempo": 120.0
            },
            {
                "pitch": 40,
                "velocity": 64,
                "duration": 0.1909,
                "tempo": 120.0
            },
            {
                "pitch": 42,
                "velocity": 64,
                "duration": 0.1886,
                "tempo": 120.0
            },
            {
                "pitch": 42,
                "velocity": 64,
                "duration": 0.1705,
                "tempo": 120.0
            },
            {
                "pitch": 45,
                "velocity": 64,
                "duration": 1.2614,
                "tempo": 120.0
            },
            {
                "pitch": 45,
                "velocity": 64,
                "duration": 0.4273,
                "tempo": 120.0
            },
            {
                "pitch": 42,
                "velocity": 64,
                "duration": 1.2705,
                "tempo": 120.0
            },
            {
                "pitch": 40,
                "velocity": 64,
                "duration": 0.4182,
                "tempo": 120.0
            },
            {
                "pitch": 45,
                "velocity": 64,
                "duration": 1.2909,
                "tempo": 120.0
            },
            {
                "pitch": 45,
                "velocity": 64,
                "duration": 0.4023,
                "tempo": 120.0
            },
            {
                "pitch": 42,
                "velocity": 64,
                "duration": 1.2977,
                "tempo": 120.0
            },
            {
                "pitch": 42,
                "velocity": 64,
                "duration": 0.4341,
                "tempo": 120.0
            },
            {
                "pitch": 45,
                "velocity": 64,
                "duration": 1.2568,
                "tempo": 120.0
            },
            {
                "pitch": 45,
                "velocity": 64,
                "duration": 0.4091,
                "tempo": 120.0
            },
            {
                "pitch": 42,
                "velocity": 64,
                "duration": 1.2886,
                "tempo": 120.0
            },
            {
                "pitch": 42,
                "velocity": 64,
                "duration": 0.4114,
                "tempo": 120.0
            },
            {
                "pitch": 45,
                "velocity": 64,
                "duration": 1.2705,
                "tempo": 120.0
            },
            {
                "pitch": 45,
                "velocity": 64,
                "duration": 0.4182,
                "tempo": 120.0
            },
            {
                "pitch": 42,
                "velocity": 64,
                "duration": 1.2705,
                "tempo": 120.0
            },
            {
                "pitch": 42,
                "velocity": 64,
                "duration": 0.4273,
                "tempo": 120.0
            }
        ],
        "Clarinet": [
            {
                "pitch": 54,
                "velocity": 64,
                "duration": 0.4,
                "tempo": 120.0
            },
            {
                "pitch": 54,
                "velocity": 64,
                "duration": 0.3932,
                "tempo": 120.0
            },
            {
                "pitch": 78,
                "velocity": 64,
                "duration": 2.5864,
                "tempo": 120.0
            },
            {
                "pitch": 54,
                "velocity": 64,
                "duration": 0.4091,
                "tempo": 120.0
            },
            {
                "pitch": 54,
                "velocity": 64,
                "duration": 0.4091,
                "tempo": 120.0
            },
            {
                "pitch": 83,
                "velocity": 64,
                "duration": 2.5909,
                "tempo": 120.0
            },
            {
                "pitch": 54,
                "velocity": 64,
                "duration": 0.4114,
                "tempo": 120.0
            },
            {
                "pitch": 54,
                "velocity": 64,
                "duration": 0.4114,
                "tempo": 120.0
            },
            {
                "pitch": 78,
                "velocity": 64,
                "duration": 2.5932,
                "tempo": 120.0
            },
            {
                "pitch": 54,
                "velocity": 64,
                "duration": 0.4023,
                "tempo": 120.0
            },
            {
                "pitch": 54,
                "velocity": 64,
                "duration": 0.4364,
                "tempo": 120.0
            },
            {
                "pitch": 83,
                "velocity": 64,
                "duration": 2.5682,
                "tempo": 120.0
            },
            {
                "pitch": 52,
                "velocity": 64,
                "duration": 0.1886,
                "tempo": 120.0
            },
            {
                "pitch": 52,
                "velocity": 64,
                "duration": 1.5227,
                "tempo": 120.0
            },
            {
                "pitch": 54,
                "velocity": 64,
                "duration": 0.2045,
                "tempo": 120.0
            },
            {
                "pitch": 54,
                "velocity": 64,
                "duration": 1.4932,
                "tempo": 120.0
            },
            {
                "pitch": 52,
                "velocity": 64,
                "duration": 0.2,
                "tempo": 120.0
            },
            {
                "pitch": 52,
                "velocity": 64,
                "duration": 1.5045,
                "tempo": 120.0
            },
            {
                "pitch": 49,
                "velocity": 64,
                "duration": 0.1864,
                "tempo": 120.0
            },
            {
                "pitch": 49,
                "velocity": 64,
                "duration": 1.5114,
                "tempo": 120.0
            },
            {
                "pitch": 52,
                "velocity": 64,
                "duration": 0.1955,
                "tempo": 120.0
            },
            {
                "pitch": 52,
                "velocity": 64,
                "duration": 1.4773,
                "tempo": 120.0
            },
            {
                "pitch": 54,
                "velocity": 64,
                "duration": 0.1932,
                "tempo": 120.0
            },
            {
                "pitch": 54,
                "velocity": 64,
                "duration": 1.5159,
                "tempo": 120.0
            },
            {
                "pitch": 52,
                "velocity": 64,
                "duration": 0.2091,
                "tempo": 120.0
            },
            {
                "pitch": 52,
                "velocity": 64,
                "duration": 1.5,
                "tempo": 120.0
            },
            {
                "pitch": 49,
                "velocity": 64,
                "duration": 0.1955,
                "tempo": 120.0
            },
            {
                "pitch": 49,
                "velocity": 64,
                "duration": 1.5114,
                "tempo": 120.0
            },
            {
                "pitch": 52,
                "velocity": 64,
                "duration": 0.1864,
                "tempo": 120.0
            },
            {
                "pitch": 52,
                "velocity": 64,
                "duration": 1.4955,
                "tempo": 120.0
            },
            {
                "pitch": 54,
                "velocity": 64,
                "duration": 0.1977,
                "tempo": 120.0
            },
            {
                "pitch": 54,
                "velocity": 64,
                "duration": 1.4773,
                "tempo": 120.0
            },
            {
                "pitch": 52,
                "velocity": 64,
                "duration": 0.1886,
                "tempo": 120.0
            },
            {
                "pitch": 52,
                "velocity": 64,
                "duration": 1.5114,
                "tempo": 120.0
            },
            {
                "pitch": 49,
                "velocity": 64,
                "duration": 0.2045,
                "tempo": 120.0
            },
            {
                "pitch": 49,
                "velocity": 64,
                "duration": 1.5023,
                "tempo": 120.0
            },
            {
                "pitch": 52,
                "velocity": 64,
                "duration": 0.1955,
                "tempo": 120.0
            },
            {
                "pitch": 52,
                "velocity": 64,
                "duration": 1.5023,
                "tempo": 120.0
            },
            {
                "pitch": 54,
                "velocity": 64,
                "duration": 0.175,
                "tempo": 120.0
            },
            {
                "pitch": 54,
                "velocity": 64,
                "duration": 1.4955,
                "tempo": 120.0
            },
            {
                "pitch": 52,
                "velocity": 64,
                "duration": 0.2023,
                "tempo": 120.0
            },
            {
                "pitch": 52,
                "velocity": 64,
                "duration": 1.4886,
                "tempo": 120.0
            },
            {
                "pitch": 49,
                "velocity": 64,
                "duration": 0.1932,
                "tempo": 120.0
            },
            {
                "pitch": 49,
                "velocity": 64,
                "duration": 1.5045,
                "tempo": 120.0
            },
            {
                "pitch": 47,
                "velocity": 64,
                "duration": 0.2,
                "tempo": 120.0
            },
            {
                "pitch": 47,
                "velocity": 64,
                "duration": 0.1659,
                "tempo": 120.0
            },
            {
                "pitch": 59,
                "velocity": 64,
                "duration": 0.1886,
                "tempo": 120.0
            },
            {
                "pitch": 61,
                "velocity": 64,
                "duration": 0.2045,
                "tempo": 120.0
            },
            {
                "pitch": 64,
                "velocity": 64,
                "duration": 0.1909,
                "tempo": 120.0
            },
            {
                "pitch": 66,
                "velocity": 64,
                "duration": 0.1909,
                "tempo": 120.0
            },
            {
                "pitch": 78,
                "velocity": 64,
                "duration": 0.1841,
                "tempo": 120.0
            },
            {
                "pitch": 78,
                "velocity": 64,
                "duration": 0.1682,
                "tempo": 120.0
            },
            {
                "pitch": 49,
                "velocity": 64,
                "duration": 0.2114,
                "tempo": 120.0
            },
            {
                "pitch": 49,
                "velocity": 64,
                "duration": 0.2114,
                "tempo": 120.0
            },
            {
                "pitch": 71,
                "velocity": 64,
                "duration": 0.2068,
                "tempo": 120.0
            },
            {
                "pitch": 69,
                "velocity": 64,
                "duration": 0.1886,
                "tempo": 120.0
            },
            {
                "pitch": 64,
                "velocity": 64,
                "duration": 0.1841,
                "tempo": 120.0
            },
            {
                "pitch": 78,
                "velocity": 64,
                "duration": 0.2023,
                "tempo": 120.0
            },
            {
                "pitch": 76,
                "velocity": 64,
                "duration": 0.2023,
                "tempo": 120.0
            },
            {
                "pitch": 78,
                "velocity": 64,
                "duration": 0.2023,
                "tempo": 120.0
            },
            {
                "pitch": 47,
                "velocity": 64,
                "duration": 0.1841,
                "tempo": 120.0
            },
            {
                "pitch": 47,
                "velocity": 64,
                "duration": 0.1841,
                "tempo": 120.0
            },
            {
                "pitch": 59,
                "velocity": 64,
                "duration": 0.1955,
                "tempo": 120.0
            },
            {
                "pitch": 61,
                "velocity": 64,
                "duration": 0.1955,
                "tempo": 120.0
            },
            {
                "pitch": 64,
                "velocity": 64,
                "duration": 0.1955,
                "tempo": 120.0
            },
            {
                "pitch": 66,
                "velocity": 64,
                "duration": 0.1818,
                "tempo": 120.0
            },
            {
                "pitch": 78,
                "velocity": 64,
                "duration": 0.1886,
                "tempo": 120.0
            },
            {
                "pitch": 78,
                "velocity": 64,
                "duration": 0.2045,
                "tempo": 120.0
            },
            {
                "pitch": 49,
                "velocity": 64,
                "duration": 0.2023,
                "tempo": 120.0
            },
            {
                "pitch": 49,
                "velocity": 64,
                "duration": 0.2,
                "tempo": 120.0
            },
            {
                "pitch": 71,
                "velocity": 64,
                "duration": 0.1795,
                "tempo": 120.0
            },
            {
                "pitch": 69,
                "velocity": 64,
                "duration": 0.1955,
                "tempo": 120.0
            },
            {
                "pitch": 64,
                "velocity": 64,
                "duration": 0.1909,
                "tempo": 120.0
            },
            {
                "pitch": 78,
                "velocity": 64,
                "duration": 0.1909,
                "tempo": 120.0
            },
            {
                "pitch": 76,
                "velocity": 64,
                "duration": 0.2045,
                "tempo": 120.0
            },
            {
                "pitch": 78,
                "velocity": 64,
                "duration": 0.1886,
                "tempo": 120.0
            },
            {
                "pitch": 47,
                "velocity": 64,
                "duration": 0.1705,
                "tempo": 120.0
            },
            {
                "pitch": 47,
                "velocity": 64,
                "duration": 0.2068,
                "tempo": 120.0
            },
            {
                "pitch": 59,
                "velocity": 64,
                "duration": 0.2023,
                "tempo": 120.0
            },
            {
                "pitch": 61,
                "velocity": 64,
                "duration": 0.2,
                "tempo": 120.0
            },
            {
                "pitch": 64,
                "velocity": 64,
                "duration": 0.175,
                "tempo": 120.0
            },
            {
                "pitch": 66,
                "velocity": 64,
                "duration": 0.1773,
                "tempo": 120.0
            },
            {
                "pitch": 78,
                "velocity": 64,
                "duration": 0.2,
                "tempo": 120.0
            },
            {
                "pitch": 78,
                "velocity": 64,
                "duration": 0.2,
                "tempo": 120.0
            },
            {
                "pitch": 49,
                "velocity": 64,
                "duration": 0.2091,
                "tempo": 120.0
            },
            {
                "pitch": 49,
                "velocity": 64,
                "duration": 0.1909,
                "tempo": 120.0
            },
            {
                "pitch": 71,
                "velocity": 64,
                "duration": 0.1864,
                "tempo": 120.0
            },
            {
                "pitch": 69,
                "velocity": 64,
                "duration": 0.2045,
                "tempo": 120.0
            },
            {
                "pitch": 64,
                "velocity": 64,
                "duration": 0.2,
                "tempo": 120.0
            },
            {
                "pitch": 66,
                "velocity": 64,
                "duration": 0.2,
                "tempo": 120.0
            },
            {
                "pitch": 76,
                "velocity": 64,
                "duration": 0.1864,
                "tempo": 120.0
            },
            {
                "pitch": 78,
                "velocity": 64,
                "duration": 0.1864,
                "tempo": 120.0
            },
            {
                "pitch": 47,
                "velocity": 64,
                "duration": 0.1909,
                "tempo": 120.0
            },
            {
                "pitch": 47,
                "velocity": 64,
                "duration": 0.1909,
                "tempo": 120.0
            },
            {
                "pitch": 59,
                "velocity": 64,
                "duration": 0.2045,
                "tempo": 120.0
            },
            {
                "pitch": 61,
                "velocity": 64,
                "duration": 0.1705,
                "tempo": 120.0
            },
            {
                "pitch": 64,
                "velocity": 64,
                "duration": 0.1886,
                "tempo": 120.0
            },
            {
                "pitch": 66,
                "velocity": 64,
                "duration": 0.2068,
                "tempo": 120.0
            },
            {
                "pitch": 78,
                "velocity": 64,
                "duration": 0.1909,
                "tempo": 120.0
            },
            {
                "pitch": 78,
                "velocity": 64,
                "duration": 0.1909,
                "tempo": 120.0
            },
            {
                "pitch": 49,
                "velocity": 64,
                "duration": 0.1886,
                "tempo": 120.0
            },
            {
                "pitch": 49,
                "velocity": 64,
                "duration": 0.1705,
                "tempo": 120.0
            },
            {
                "pitch": 71,
                "velocity": 64,
                "duration": 0.2045,
                "tempo": 120.0
            },
            {
                "pitch": 69,
                "velocity": 64,
                "duration": 0.2045,
                "tempo": 120.0
            },
            {
                "pitch": 64,
                "velocity": 64,
                "duration": 0.2023,
                "tempo": 120.0
            },
            {
                "pitch": 66,
                "velocity": 64,
                "duration": 0.1841,
                "tempo": 120.0
            },
            {
                "pitch": 76,
                "velocity": 64,
                "duration": 0.1886,
                "tempo": 120.0
            },
            {
                "pitch": 78,
                "velocity": 64,
                "duration": 0.2045,
                "tempo": 120.0
            },
            {
                "pitch": 52,
                "velocity": 64,
                "duration": 1.2614,
                "tempo": 120.0
            },
            {
                "pitch": 52,
                "velocity": 64,
                "duration": 0.4273,
                "tempo": 120.0
            },
            {
                "pitch": 49,
                "velocity": 64,
                "duration": 1.2705,
                "tempo": 120.0
            },
            {
                "pitch": 49,
                "velocity": 64,
                "duration": 0.4182,
                "tempo": 120.0
            },
            {
                "pitch": 52,
                "velocity": 64,
                "duration": 1.2909,
                "tempo": 120.0
            },
            {
                "pitch": 52,
                "velocity": 64,
                "duration": 0.4023,
                "tempo": 120.0
            },
            {
                "pitch": 49,
                "velocity": 64,
                "duration": 1.2977,
                "tempo": 120.0
            },
            {
                "pitch": 49,
                "velocity": 64,
                "duration": 0.4341,
                "tempo": 120.0
            },
            {
                "pitch": 52,
                "velocity": 64,
                "duration": 1.2568,
                "tempo": 120.0
            },
            {
                "pitch": 52,
                "velocity": 64,
                "duration": 0.4091,
                "tempo": 120.0
            },
            {
                "pitch": 49,
                "velocity": 64,
                "duration": 1.2886,
                "tempo": 120.0
            },
            {
                "pitch": 49,
                "velocity": 64,
                "duration": 0.4114,
                "tempo": 120.0
            },
            {
                "pitch": 52,
                "velocity": 64,
                "duration": 1.2705,
                "tempo": 120.0
            },
            {
                "pitch": 52,
                "velocity": 64,
                "duration": 0.4182,
                "tempo": 120.0
            },
            {
                "pitch": 49,
                "velocity": 64,
                "duration": 1.2705,
                "tempo": 120.0
            },
            {
                "pitch": 49,
                "velocity": 64,
                "duration": 0.4273,
                "tempo": 120.0
            }
        ],
        "Trumpet": [
            {
                "pitch": 80,
                "velocity": 64,
                "duration": 0.1841,
                "tempo": 120.0
            },
            {
                "pitch": 78,
                "velocity": 64,
                "duration": 0.2,
                "tempo": 120.0
            },
            {
                "pitch": 77,
                "velocity": 64,
                "duration": 0.4182,
                "tempo": 120.0
            },
            {
                "pitch": 77,
                "velocity": 64,
                "duration": 0.1841,
                "tempo": 120.0
            },
            {
                "pitch": 77,
                "velocity": 64,
                "duration": 0.1841,
                "tempo": 120.0
            },
            {
                "pitch": 75,
                "velocity": 64,
                "duration": 0.4091,
                "tempo": 120.0
            },
            {
                "pitch": 75,
                "velocity": 64,
                "duration": 0.2091,
                "tempo": 120.0
            },
            {
                "pitch": 75,
                "velocity": 64,
                "duration": 0.1909,
                "tempo": 120.0
            },
            {
                "pitch": 73,
                "velocity": 64,
                "duration": 1.2705,
                "tempo": 120.0
            },
            {
                "pitch": 80,
                "velocity": 64,
                "duration": 0.2,
                "tempo": 120.0
            },
            {
                "pitch": 78,
                "velocity": 64,
                "duration": 0.2023,
                "tempo": 120.0
            },
            {
                "pitch": 77,
                "velocity": 64,
                "duration": 0.3932,
                "tempo": 120.0
            },
            {
                "pitch": 77,
                "velocity": 64,
                "duration": 0.1773,
                "tempo": 120.0
            },
            {
                "pitch": 77,
                "velocity": 64,
                "duration": 0.2159,
                "tempo": 120.0
            },
            {
                "pitch": 75,
                "velocity": 64,
                "duration": 0.3977,
                "tempo": 120.0
            },
            {
                "pitch": 75,
                "velocity": 64,
                "duration": 0.1886,
                "tempo": 120.0
            },
            {
                "pitch": 75,
                "velocity": 64,
                "duration": 0.1886,
                "tempo": 120.0
            },
            {
                "pitch": 73,
                "velocity": 64,
                "duration": 1.2977,
                "tempo": 120.0
            },
            {
                "pitch": 80,
                "velocity": 64,
                "duration": 0.1977,
                "tempo": 120.0
            },
            {
                "pitch": 78,
                "velocity": 64,
                "duration": 0.1977,
                "tempo": 120.0
            },
            {
                "pitch": 77,
                "velocity": 64,
                "duration": 0.4023,
                "tempo": 120.0
            },
            {
                "pitch": 77,
                "velocity": 64,
                "duration": 0.2,
                "tempo": 120.0
            },
            {
                "pitch": 77,
                "velocity": 64,
                "duration": 0.2,
                "tempo": 120.0
            },
            {
                "pitch": 75,
                "velocity": 64,
                "duration": 0.4023,
                "tempo": 120.0
            },
            {
                "pitch": 75,
                "velocity": 64,
                "duration": 0.1977,
                "tempo": 120.0
            },
            {
                "pitch": 75,
                "velocity": 64,
                "duration": 0.2136,
                "tempo": 120.0
            },
            {
                "pitch": 73,
                "velocity": 64,
                "duration": 1.2864,
                "tempo": 120.0
            },
            {
                "pitch": 80,
                "velocity": 64,
                "duration": 0.1977,
                "tempo": 120.0
            },
            {
                "pitch": 78,
                "velocity": 64,
                "duration": 0.1795,
                "tempo": 120.0
            },
            {
                "pitch": 77,
                "velocity": 64,
                "duration": 0.4091,
                "tempo": 120.0
            },
            {
                "pitch": 77,
                "velocity": 64,
                "duration": 0.2023,
                "tempo": 120.0
            },
            {
                "pitch": 77,
                "velocity": 64,
                "duration": 0.2,
                "tempo": 120.0
            },
            {
                "pitch": 75,
                "velocity": 64,
                "duration": 0.3932,
                "tempo": 120.0
            },
            {
                "pitch": 75,
                "velocity": 64,
                "duration": 0.2,
                "tempo": 120.0
            },
            {
                "pitch": 75,
                "velocity": 64,
                "duration": 0.2023,
                "tempo": 120.0
            },
            {
                "pitch": 73,
                "velocity": 64,
                "duration": 0.4,
                "tempo": 120.0
            },
            {
                "pitch": 52,
                "velocity": 64,
                "duration": 0.1886,
                "tempo": 120.0
            },
            {
                "pitch": 52,
                "velocity": 64,
                "duration": 1.5227,
                "tempo": 120.0
            },
            {
                "pitch": 54,
                "velocity": 64,
                "duration": 0.2045,
                "tempo": 120.0
            },
            {
                "pitch": 54,
                "velocity": 64,
                "duration": 1.4932,
                "tempo": 120.0
            },
            {
                "pitch": 52,
                "velocity": 64,
                "duration": 0.2,
                "tempo": 120.0
            },
            {
                "pitch": 52,
                "velocity": 64,
                "duration": 1.5045,
                "tempo": 120.0
            },
            {
                "pitch": 49,
                "velocity": 64,
                "duration": 0.1864,
                "tempo": 120.0
            },
            {
                "pitch": 49,
                "velocity": 64,
                "duration": 1.5114,
                "tempo": 120.0
            },
            {
                "pitch": 52,
                "velocity": 64,
                "duration": 0.1955,
                "tempo": 120.0
            },
            {
                "pitch": 52,
                "velocity": 64,
                "duration": 1.4773,
                "tempo": 120.0
            },
            {
                "pitch": 54,
                "velocity": 64,
                "duration": 0.1932,
                "tempo": 120.0
            },
            {
                "pitch": 54,
                "velocity": 64,
                "duration": 1.5159,
                "tempo": 120.0
            },
            {
                "pitch": 52,
                "velocity": 64,
                "duration": 0.2091,
                "tempo": 120.0
            },
            {
                "pitch": 52,
                "velocity": 64,
                "duration": 1.5,
                "tempo": 120.0
            },
            {
                "pitch": 49,
                "velocity": 64,
                "duration": 0.1955,
                "tempo": 120.0
            },
            {
                "pitch": 49,
                "velocity": 64,
                "duration": 1.5114,
                "tempo": 120.0
            },
            {
                "pitch": 52,
                "velocity": 64,
                "duration": 0.1864,
                "tempo": 120.0
            },
            {
                "pitch": 52,
                "velocity": 64,
                "duration": 1.4955,
                "tempo": 120.0
            },
            {
                "pitch": 54,
                "velocity": 64,
                "duration": 0.1977,
                "tempo": 120.0
            },
            {
                "pitch": 54,
                "velocity": 64,
                "duration": 1.4773,
                "tempo": 120.0
            },
            {
                "pitch": 52,
                "velocity": 64,
                "duration": 0.1886,
                "tempo": 120.0
            },
            {
                "pitch": 52,
                "velocity": 64,
                "duration": 1.5114,
                "tempo": 120.0
            },
            {
                "pitch": 49,
                "velocity": 64,
                "duration": 0.2045,
                "tempo": 120.0
            },
            {
                "pitch": 49,
                "velocity": 64,
                "duration": 1.5023,
                "tempo": 120.0
            },
            {
                "pitch": 52,
                "velocity": 64,
                "duration": 0.1955,
                "tempo": 120.0
            },
            {
                "pitch": 52,
                "velocity": 64,
                "duration": 1.5023,
                "tempo": 120.0
            },
            {
                "pitch": 54,
                "velocity": 64,
                "duration": 0.175,
                "tempo": 120.0
            },
            {
                "pitch": 54,
                "velocity": 64,
                "duration": 1.4955,
                "tempo": 120.0
            },
            {
                "pitch": 52,
                "velocity": 64,
                "duration": 0.2023,
                "tempo": 120.0
            },
            {
                "pitch": 52,
                "velocity": 64,
                "duration": 1.4886,
                "tempo": 120.0
            },
            {
                "pitch": 49,
                "velocity": 64,
                "duration": 0.1932,
                "tempo": 120.0
            },
            {
                "pitch": 49,
                "velocity": 64,
                "duration": 1.5045,
                "tempo": 120.0
            },
            {
                "pitch": 47,
                "velocity": 64,
                "duration": 0.2,
                "tempo": 120.0
            },
            {
                "pitch": 47,
                "velocity": 64,
                "duration": 0.1659,
                "tempo": 120.0
            },
            {
                "pitch": 49,
                "velocity": 64,
                "duration": 0.2114,
                "tempo": 120.0
            },
            {
                "pitch": 49,
                "velocity": 64,
                "duration": 0.2114,
                "tempo": 120.0
            },
            {
                "pitch": 47,
                "velocity": 64,
                "duration": 0.1841,
                "tempo": 120.0
            },
            {
                "pitch": 47,
                "velocity": 64,
                "duration": 0.1841,
                "tempo": 120.0
            },
            {
                "pitch": 49,
                "velocity": 64,
                "duration": 0.2023,
                "tempo": 120.0
            },
            {
                "pitch": 49,
                "velocity": 64,
                "duration": 0.2,
                "tempo": 120.0
            },
            {
                "pitch": 47,
                "velocity": 64,
                "duration": 0.1705,
                "tempo": 120.0
            },
            {
                "pitch": 47,
                "velocity": 64,
                "duration": 0.2068,
                "tempo": 120.0
            },
            {
                "pitch": 49,
                "velocity": 64,
                "duration": 0.2091,
                "tempo": 120.0
            },
            {
                "pitch": 49,
                "velocity": 64,
                "duration": 0.1909,
                "tempo": 120.0
            },
            {
                "pitch": 47,
                "velocity": 64,
                "duration": 0.1909,
                "tempo": 120.0
            },
            {
                "pitch": 47,
                "velocity": 64,
                "duration": 0.1909,
                "tempo": 120.0
            },
            {
                "pitch": 49,
                "velocity": 64,
                "duration": 0.1886,
                "tempo": 120.0
            },
            {
                "pitch": 49,
                "velocity": 64,
                "duration": 0.1705,
                "tempo": 120.0
            },
            {
                "pitch": 52,
                "velocity": 64,
                "duration": 1.2614,
                "tempo": 120.0
            },
            {
                "pitch": 52,
                "velocity": 64,
                "duration": 0.4273,
                "tempo": 120.0
            },
            {
                "pitch": 49,
                "velocity": 64,
                "duration": 1.2705,
                "tempo": 120.0
            },
            {
                "pitch": 47,
                "velocity": 64,
                "duration": 0.4182,
                "tempo": 120.0
            },
            {
                "pitch": 52,
                "velocity": 64,
                "duration": 1.2909,
                "tempo": 120.0
            },
            {
                "pitch": 52,
                "velocity": 64,
                "duration": 0.4023,
                "tempo": 120.0
            },
            {
                "pitch": 49,
                "velocity": 64,
                "duration": 1.2977,
                "tempo": 120.0
            },
            {
                "pitch": 49,
                "velocity": 64,
                "duration": 0.4341,
                "tempo": 120.0
            },
            {
                "pitch": 52,
                "velocity": 64,
                "duration": 1.2568,
                "tempo": 120.0
            },
            {
                "pitch": 52,
                "velocity": 64,
                "duration": 0.4091,
                "tempo": 120.0
            },
            {
                "pitch": 49,
                "velocity": 64,
                "duration": 1.2886,
                "tempo": 120.0
            },
            {
                "pitch": 49,
                "velocity": 64,
                "duration": 0.4114,
                "tempo": 120.0
            },
            {
                "pitch": 52,
                "velocity": 64,
                "duration": 1.2705,
                "tempo": 120.0
            },
            {
                "pitch": 52,
                "velocity": 64,
                "duration": 0.4182,
                "tempo": 120.0
            },
            {
                "pitch": 49,
                "velocity": 64,
                "duration": 1.2705,
                "tempo": 120.0
            },
            {
                "pitch": 49,
                "velocity": 64,
                "duration": 0.4273,
                "tempo": 120.0
            }
        ],
        "Oboe": [
            {
                "pitch": 61,
                "velocity": 64,
                "duration": 0.4,
                "tempo": 120.0
            },
            {
                "pitch": 61,
                "velocity": 64,
                "duration": 0.3932,
                "tempo": 120.0
            },
            {
                "pitch": 85,
                "velocity": 64,
                "duration": 2.5864,
                "tempo": 120.0
            },
            {
                "pitch": 61,
                "velocity": 64,
                "duration": 0.4091,
                "tempo": 120.0
            },
            {
                "pitch": 61,
                "velocity": 64,
                "duration": 0.4091,
                "tempo": 120.0
            },
            {
                "pitch": 88,
                "velocity": 64,
                "duration": 2.5909,
                "tempo": 120.0
            },
            {
                "pitch": 61,
                "velocity": 64,
                "duration": 0.4114,
                "tempo": 120.0
            },
            {
                "pitch": 61,
                "velocity": 64,
                "duration": 0.4114,
                "tempo": 120.0
            },
            {
                "pitch": 85,
                "velocity": 64,
                "duration": 2.5932,
                "tempo": 120.0
            },
            {
                "pitch": 61,
                "velocity": 64,
                "duration": 0.4023,
                "tempo": 120.0
            },
            {
                "pitch": 61,
                "velocity": 64,
                "duration": 0.4364,
                "tempo": 120.0
            },
            {
                "pitch": 90,
                "velocity": 64,
                "duration": 2.5682,
                "tempo": 120.0
            },
            {
                "pitch": 64,
                "velocity": 64,
                "duration": 0.1886,
                "tempo": 120.0
            },
            {
                "pitch": 66,
                "velocity": 64,
                "duration": 0.2068,
                "tempo": 120.0
            },
            {
                "pitch": 69,
                "velocity": 64,
                "duration": 0.2023,
                "tempo": 120.0
            },
            {
                "pitch": 71,
                "velocity": 64,
                "duration": 0.2,
                "tempo": 120.0
            },
            {
                "pitch": 66,
                "velocity": 64,
                "duration": 0.175,
                "tempo": 120.0
            },
            {
                "pitch": 64,
                "velocity": 64,
                "duration": 2.3523,
                "tempo": 120.0
            },
            {
                "pitch": 59,
                "velocity": 64,
                "duration": 0.2,
                "tempo": 120.0
            },
            {
                "pitch": 61,
                "velocity": 64,
                "duration": 0.2,
                "tempo": 120.0
            },
            {
                "pitch": 64,
                "velocity": 64,
                "duration": 0.2023,
                "tempo": 120.0
            },
            {
                "pitch": 66,
                "velocity": 64,
                "duration": 0.6273,
                "tempo": 120.0
            },
            {
                "pitch": 64,
                "velocity": 64,
                "duration": 0.425,
                "tempo": 120.0
            },
            {
                "pitch": 66,
                "velocity": 64,
                "duration": 0.1864,
                "tempo": 120.0
            },
            {
                "pitch": 66,
                "velocity": 64,
                "duration": 1.5114,
                "tempo": 120.0
            },
            {
                "pitch": 64,
                "velocity": 64,
                "duration": 0.1955,
                "tempo": 120.0
            },
            {
                "pitch": 66,
                "velocity": 64,
                "duration": 0.1977,
                "tempo": 120.0
            },
            {
                "pitch": 69,
                "velocity": 64,
                "duration": 0.1795,
                "tempo": 120.0
            },
            {
                "pitch": 71,
                "velocity": 64,
                "duration": 0.4023,
                "tempo": 120.0
            },
            {
                "pitch": 71,
                "velocity": 64,
                "duration": 0.2068,
                "tempo": 120.0
            },
            {
                "pitch": 64,
                "velocity": 64,
                "duration": 0.3932,
                "tempo": 120.0
            },
            {
                "pitch": 66,
                "velocity": 64,
                "duration": 0.1932,
                "tempo": 120.0
            },
            {
                "pitch": 66,
                "velocity": 64,
                "duration": 1.5159,
                "tempo": 120.0
            },
            {
                "pitch": 59,
                "velocity": 64,
                "duration": 0.2091,
                "tempo": 120.0
            },
            {
                "pitch": 61,
                "velocity": 64,
                "duration": 0.1932,
                "tempo": 120.0
            },
            {
                "pitch": 64,
                "velocity": 64,
                "duration": 0.1818,
                "tempo": 120.0
            },
            {
                "pitch": 66,
                "velocity": 64,
                "duration": 0.6227,
                "tempo": 120.0
            },
            {
                "pitch": 64,
                "velocity": 64,
                "duration": 0.4205,
                "tempo": 120.0
            },
            {
                "pitch": 66,
                "velocity": 64,
                "duration": 0.1955,
                "tempo": 120.0
            },
            {
                "pitch": 66,
                "velocity": 64,
                "duration": 1.5114,
                "tempo": 120.0
            },
            {
                "pitch": 66,
                "velocity": 64,
                "duration": 0.8523,
                "tempo": 120.0
            },
            {
                "pitch": 66,
                "velocity": 64,
                "duration": 0.6295,
                "tempo": 120.0
            },
            {
                "pitch": 64,
                "velocity": 64,
                "duration": 0.2023,
                "tempo": 120.0
            },
            {
                "pitch": 66,
                "velocity": 64,
                "duration": 0.8523,
                "tempo": 120.0
            },
            {
                "pitch": 61,
                "velocity": 64,
                "duration": 0.8364,
                "tempo": 120.0
            },
            {
                "pitch": 64,
                "velocity": 64,
                "duration": 0.1886,
                "tempo": 120.0
            },
            {
                "pitch": 66,
                "velocity": 64,
                "duration": 0.2045,
                "tempo": 120.0
            },
            {
                "pitch": 66,
                "velocity": 64,
                "duration": 0.1977,
                "tempo": 120.0
            },
            {
                "pitch": 66,
                "velocity": 64,
                "duration": 0.4023,
                "tempo": 120.0
            },
            {
                "pitch": 64,
                "velocity": 64,
                "duration": 0.1705,
                "tempo": 120.0
            },
            {
                "pitch": 66,
                "velocity": 64,
                "duration": 0.2023,
                "tempo": 120.0
            },
            {
                "pitch": 71,
                "velocity": 64,
                "duration": 0.2023,
                "tempo": 120.0
            },
            {
                "pitch": 69,
                "velocity": 64,
                "duration": 0.8364,
                "tempo": 120.0
            },
            {
                "pitch": 69,
                "velocity": 64,
                "duration": 0.2045,
                "tempo": 120.0
            },
            {
                "pitch": 61,
                "velocity": 64,
                "duration": 0.6318,
                "tempo": 120.0
            },
            {
                "pitch": 66,
                "velocity": 64,
                "duration": 0.8523,
                "tempo": 120.0
            },
            {
                "pitch": 66,
                "velocity": 64,
                "duration": 0.6136,
                "tempo": 120.0
            },
            {
                "pitch": 64,
                "velocity": 64,
                "duration": 0.1955,
                "tempo": 120.0
            },
            {
                "pitch": 66,
                "velocity": 64,
                "duration": 0.8341,
                "tempo": 120.0
            },
            {
                "pitch": 61,
                "velocity": 64,
                "duration": 0.8727,
                "tempo": 120.0
            },
            {
                "pitch": 61,
                "velocity": 64,
                "duration": 0.2023,
                "tempo": 120.0
            },
            {
                "pitch": 64,
                "velocity": 64,
                "duration": 0.2,
                "tempo": 120.0
            },
            {
                "pitch": 66,
                "velocity": 64,
                "duration": 0.1841,
                "tempo": 120.0
            },
            {
                "pitch": 64,
                "velocity": 64,
                "duration": 0.1841,
                "tempo": 120.0
            },
            {
                "pitch": 66,
                "velocity": 64,
                "duration": 0.1955,
                "tempo": 120.0
            },
            {
                "pitch": 69,
                "velocity": 64,
                "duration": 0.1955,
                "tempo": 120.0
            },
            {
                "pitch": 71,
                "velocity": 64,
                "duration": 0.4091,
                "tempo": 120.0
            },
            {
                "pitch": 66,
                "velocity": 64,
                "duration": 1.7136,
                "tempo": 120.0
            },
            {
                "pitch": 83,
                "velocity": 64,
                "duration": 0.2,
                "tempo": 120.0
            },
            {
                "pitch": 83,
                "velocity": 64,
                "duration": 0.1659,
                "tempo": 120.0
            },
            {
                "pitch": 83,
                "velocity": 64,
                "duration": 0.1886,
                "tempo": 120.0
            },
            {
                "pitch": 83,
                "velocity": 64,
                "duration": 0.2045,
                "tempo": 120.0
            },
            {
                "pitch": 82,
                "velocity": 64,
                "duration": 0.1909,
                "tempo": 120.0
            },
            {
                "pitch": 82,
                "velocity": 64,
                "duration": 0.1909,
                "tempo": 120.0
            },
            {
                "pitch": 78,
                "velocity": 64,
                "duration": 0.1841,
                "tempo": 120.0
            },
            {
                "pitch": 78,
                "velocity": 64,
                "duration": 0.1682,
                "tempo": 120.0
            },
            {
                "pitch": 76,
                "velocity": 64,
                "duration": 0.2114,
                "tempo": 120.0
            },
            {
                "pitch": 76,
                "velocity": 64,
                "duration": 0.2114,
                "tempo": 120.0
            },
            {
                "pitch": 75,
                "velocity": 64,
                "duration": 0.2068,
                "tempo": 120.0
            },
            {
                "pitch": 75,
                "velocity": 64,
                "duration": 0.1886,
                "tempo": 120.0
            },
            {
                "pitch": 73,
                "velocity": 64,
                "duration": 0.1841,
                "tempo": 120.0
            },
            {
                "pitch": 73,
                "velocity": 64,
                "duration": 0.2023,
                "tempo": 120.0
            },
            {
                "pitch": 76,
                "velocity": 64,
                "duration": 0.2023,
                "tempo": 120.0
            },
            {
                "pitch": 76,
                "velocity": 64,
                "duration": 0.2023,
                "tempo": 120.0
            },
            {
                "pitch": 83,
                "velocity": 64,
                "duration": 0.1841,
                "tempo": 120.0
            },
            {
                "pitch": 83,
                "velocity": 64,
                "duration": 0.1841,
                "tempo": 120.0
            },
            {
                "pitch": 83,
                "velocity": 64,
                "duration": 0.1955,
                "tempo": 120.0
            },
            {
                "pitch": 83,
                "velocity": 64,
                "duration": 0.1955,
                "tempo": 120.0
            },
            {
                "pitch": 82,
                "velocity": 64,
                "duration": 0.1955,
                "tempo": 120.0
            },
            {
                "pitch": 82,
                "velocity": 64,
                "duration": 0.1818,
                "tempo": 120.0
            },
            {
                "pitch": 78,
                "velocity": 64,
                "duration": 0.1886,
                "tempo": 120.0
            },
            {
                "pitch": 78,
                "velocity": 64,
                "duration": 0.2045,
                "tempo": 120.0
            },
            {
                "pitch": 76,
                "velocity": 64,
                "duration": 0.2023,
                "tempo": 120.0
            },
            {
                "pitch": 78,
                "velocity": 64,
                "duration": 0.2,
                "tempo": 120.0
            },
            {
                "pitch": 82,
                "velocity": 64,
                "duration": 0.1795,
                "tempo": 120.0
            },
            {
                "pitch": 83,
                "velocity": 64,
                "duration": 0.1955,
                "tempo": 120.0
            },
            {
                "pitch": 82,
                "velocity": 64,
                "duration": 0.1909,
                "tempo": 120.0
            },
            {
                "pitch": 78,
                "velocity": 64,
                "duration": 0.1909,
                "tempo": 120.0
            },
            {
                "pitch": 76,
                "velocity": 64,
                "duration": 0.2045,
                "tempo": 120.0
            },
            {
                "pitch": 78,
                "velocity": 64,
                "duration": 0.1886,
                "tempo": 120.0
            },
            {
                "pitch": 83,
                "velocity": 64,
                "duration": 0.1705,
                "tempo": 120.0
            },
            {
                "pitch": 83,
                "velocity": 64,
                "duration": 0.2068,
                "tempo": 120.0
            },
            {
                "pitch": 83,
                "velocity": 64,
                "duration": 0.2023,
                "tempo": 120.0
            },
            {
                "pitch": 83,
                "velocity": 64,
                "duration": 0.2,
                "tempo": 120.0
            },
            {
                "pitch": 82,
                "velocity": 64,
                "duration": 0.175,
                "tempo": 120.0
            },
            {
                "pitch": 82,
                "velocity": 64,
                "duration": 0.1773,
                "tempo": 120.0
            },
            {
                "pitch": 78,
                "velocity": 64,
                "duration": 0.2,
                "tempo": 120.0
            },
            {
                "pitch": 78,
                "velocity": 64,
                "duration": 0.2,
                "tempo": 120.0
            },
            {
                "pitch": 76,
                "velocity": 64,
                "duration": 0.2091,
                "tempo": 120.0
            },
            {
                "pitch": 76,
                "velocity": 64,
                "duration": 0.1909,
                "tempo": 120.0
            },
            {
                "pitch": 75,
                "velocity": 64,
                "duration": 0.1864,
                "tempo": 120.0
            },
            {
                "pitch": 75,
                "velocity": 64,
                "duration": 0.2045,
                "tempo": 120.0
            },
            {
                "pitch": 73,
                "velocity": 64,
                "duration": 0.2,
                "tempo": 120.0
            },
            {
                "pitch": 73,
                "velocity": 64,
                "duration": 0.2,
                "tempo": 120.0
            },
            {
                "pitch": 76,
                "velocity": 64,
                "duration": 0.1864,
                "tempo": 120.0
            },
            {
                "pitch": 76,
                "velocity": 64,
                "duration": 0.1864,
                "tempo": 120.0
            },
            {
                "pitch": 83,
                "velocity": 64,
                "duration": 0.1909,
                "tempo": 120.0
            },
            {
                "pitch": 83,
                "velocity": 64,
                "duration": 0.1909,
                "tempo": 120.0
            },
            {
                "pitch": 83,
                "velocity": 64,
                "duration": 0.2045,
                "tempo": 120.0
            },
            {
                "pitch": 83,
                "velocity": 64,
                "duration": 0.1705,
                "tempo": 120.0
            },
            {
                "pitch": 82,
                "velocity": 64,
                "duration": 0.1886,
                "tempo": 120.0
            },
            {
                "pitch": 82,
                "velocity": 64,
                "duration": 0.2068,
                "tempo": 120.0
            },
            {
                "pitch": 78,
                "velocity": 64,
                "duration": 0.1909,
                "tempo": 120.0
            },
            {
                "pitch": 78,
                "velocity": 64,
                "duration": 0.1909,
                "tempo": 120.0
            },
            {
                "pitch": 76,
                "velocity": 64,
                "duration": 0.1886,
                "tempo": 120.0
            },
            {
                "pitch": 78,
                "velocity": 64,
                "duration": 0.1705,
                "tempo": 120.0
            },
            {
                "pitch": 82,
                "velocity": 64,
                "duration": 0.2045,
                "tempo": 120.0
            },
            {
                "pitch": 83,
                "velocity": 64,
                "duration": 0.2045,
                "tempo": 120.0
            },
            {
                "pitch": 82,
                "velocity": 64,
                "duration": 0.2023,
                "tempo": 120.0
            },
            {
                "pitch": 78,
                "velocity": 64,
                "duration": 0.1841,
                "tempo": 120.0
            },
            {
                "pitch": 76,
                "velocity": 64,
                "duration": 0.1886,
                "tempo": 120.0
            },
            {
                "pitch": 78,
                "velocity": 64,
                "duration": 0.2045,
                "tempo": 120.0
            },
            {
                "pitch": 71,
                "velocity": 64,
                "duration": 1.7227,
                "tempo": 120.0
            },
            {
                "pitch": 73,
                "velocity": 64,
                "duration": 0.1795,
                "tempo": 120.0
            },
            {
                "pitch": 76,
                "velocity": 64,
                "duration": 0.1977,
                "tempo": 120.0
            },
            {
                "pitch": 78,
                "velocity": 64,
                "duration": 0.4182,
                "tempo": 120.0
            },
            {
                "pitch": 78,
                "velocity": 64,
                "duration": 0.8455,
                "tempo": 120.0
            },
            {
                "pitch": 73,
                "velocity": 64,
                "duration": 0.1977,
                "tempo": 120.0
            },
            {
                "pitch": 71,
                "velocity": 64,
                "duration": 0.4045,
                "tempo": 120.0
            },
            {
                "pitch": 73,
                "velocity": 64,
                "duration": 0.8386,
                "tempo": 120.0
            },
            {
                "pitch": 66,
                "velocity": 64,
                "duration": 1.0614,
                "tempo": 120.0
            },
            {
                "pitch": 73,
                "velocity": 64,
                "duration": 0.8545,
                "tempo": 120.0
            },
            {
                "pitch": 71,
                "velocity": 64,
                "duration": 1.2568,
                "tempo": 120.0
            },
            {
                "pitch": 73,
                "velocity": 64,
                "duration": 0.4091,
                "tempo": 120.0
            },
            {
                "pitch": 76,
                "velocity": 64,
                "duration": 0.1955,
                "tempo": 120.0
            },
            {
                "pitch": 78,
                "velocity": 64,
                "duration": 0.4,
                "tempo": 120.0
            },
            {
                "pitch": 76,
                "velocity": 64,
                "duration": 1.0523,
                "tempo": 120.0
            },
            {
                "pitch": 71,
                "velocity": 64,
                "duration": 0.1841,
                "tempo": 120.0
            },
            {
                "pitch": 73,
                "velocity": 64,
                "duration": 0.2023,
                "tempo": 120.0
            },
            {
                "pitch": 76,
                "velocity": 64,
                "duration": 0.2023,
                "tempo": 120.0
            },
            {
                "pitch": 78,
                "velocity": 64,
                "duration": 1.0545,
                "tempo": 120.0
            },
            {
                "pitch": 83,
                "velocity": 64,
                "duration": 0.2045,
                "tempo": 120.0
            },
            {
                "pitch": 81,
                "velocity": 64,
                "duration": 0.1886,
                "tempo": 120.0
            },
            {
                "pitch": 78,
                "velocity": 64,
                "duration": 0.1841,
                "tempo": 120.0
            },
            {
                "pitch": 78,
                "velocity": 64,
                "duration": 1.0864,
                "tempo": 120.0
            }
        ]
    }
}