{
    "track_id": "Solomon no Kagi (FM) - 03 - Hidden Room",
    "mood": "happy",
    "instruments": {
        "Flute": [
            {
                "pitch": 77,
                "velocity": 6,
                "duration": 0.1,
                "tempo": 120.0
            },
            {
                "pitch": 79,
                "velocity": 6,
                "duration": 0.1,
                "tempo": 120.0
            },
            {
                "pitch": 77,
                "velocity": 6,
                "duration": 0.1,
                "tempo": 120.0
            },
            {
                "pitch": 79,
                "velocity": 6,
                "duration": 0.075,
                "tempo": 120.0
            },
            {
                "pitch": 77,
                "velocity": 6,
                "duration": 0.075,
                "tempo": 120.0
            },
            {
                "pitch": 79,
                "velocity": 6,
                "duration": 0.0773,
                "tempo": 120.0
            },
            {
                "pitch": 77,
                "velocity": 13,
                "duration": 0.0773,
                "tempo": 120.0
            },
            {
                "pitch": 79,
                "velocity": 13,
                "duration": 0.0773,
                "tempo": 120.0
            },
            {
                "pitch": 77,
                "velocity": 13,
                "duration": 0.0795,
                "tempo": 120.0
            },
            {
                "pitch": 79,
                "velocity": 13,
                "duration": 0.075,
                "tempo": 120.0
            },
            {
                "pitch": 77,
                "velocity": 13,
                "duration": 0.075,
                "tempo": 120.0
            },
            {
                "pitch": 79,
                "velocity": 13,
                "duration": 0.0727,
                "tempo": 120.0
            },
            {
                "pitch": 77,
                "velocity": 25,
                "duration": 0.075,
                "tempo": 120.0
            },
            {
                "pitch": 79,
                "velocity": 25,
                "duration": 0.075,
                "tempo": 120.0
            },
            {
                "pitch": 77,
                "velocity": 25,
                "duration": 0.075,
                "tempo": 120.0
            },
            {
                "pitch": 79,
                "velocity": 25,
                "duration": 0.0773,
                "tempo": 120.0
            },
            {
                "pitch": 77,
                "velocity": 25,
                "duration": 0.0795,
                "tempo": 120.0
            },
            {
                "pitch": 79,
                "velocity": 25,
                "duration": 0.0773,
                "tempo": 120.0
            },
            {
                "pitch": 77,
                "velocity": 51,
                "duration": 0.0773,
                "tempo": 120.0
            },
            {
                "pitch": 79,
                "velocity": 51,
                "duration": 0.075,
                "tempo": 120.0
            },
            {
                "pitch": 77,
                "velocity": 51,
                "duration": 0.075,
                "tempo": 120.0
            },
            {
                "pitch": 79,
                "velocity": 51,
                "duration": 0.0773,
                "tempo": 120.0
            },
            {
                "pitch": 77,
                "velocity": 51,
                "duration": 0.075,
                "tempo": 120.0
            },
            {
                "pitch": 79,
                "velocity": 51,
                "duration": 0.075,
                "tempo": 120.0
            },
            {
                "pitch": 86,
                "velocity": 32,
                "duration": 0.075,
                "tempo": 120.0
            },
            {
                "pitch": 74,
                "velocity": 32,
                "duration": 0.075,
                "tempo": 120.0
            },
            {
                "pitch": 91,
                "velocity": 32,
                "duration": 0.075,
                "tempo": 120.0
            },
            {
                "pitch": 79,
                "velocity": 32,
                "duration": 0.0773,
                "tempo": 120.0
            },
            {
                "pitch": 89,
                "velocity": 32,
                "duration": 0.075,
                "tempo": 120.0
            },
            {
                "pitch": 77,
                "velocity": 32,
                "duration": 0.0773,
                "tempo": 120.0
            },
            {
                "pitch": 86,
                "velocity": 32,
                "duration": 0.075,
                "tempo": 120.0
            },
            {
                "pitch": 74,
                "velocity": 32,
                "duration": 0.075,
                "tempo": 120.0
            },
            {
                "pitch": 82,
                "velocity": 32,
                "duration": 0.0773,
                "tempo": 120.0
            },
            {
                "pitch": 70,
                "velocity": 32,
                "duration": 0.075,
                "tempo": 120.0
            },
            {
                "pitch": 84,
                "velocity": 32,
                "duration": 0.0773,
                "tempo": 120.0
            },
            {
                "pitch": 72,
                "velocity": 32,
                "duration": 0.075,
                "tempo": 120.0
            },
            {
                "pitch": 86,
                "velocity": 32,
                "duration": 0.0773,
                "tempo": 120.0
            },
            {
                "pitch": 74,
                "velocity": 32,
                "duration": 0.075,
                "tempo": 120.0
            },
            {
                "pitch": 91,
                "velocity": 32,
                "duration": 0.075,
                "tempo": 120.0
            },
            {
                "pitch": 79,
                "velocity": 32,
                "duration": 0.075,
                "tempo": 120.0
            },
            {
                "pitch": 89,
                "velocity": 32,
                "duration": 0.0773,
                "tempo": 120.0
            },
            {
                "pitch": 77,
                "velocity": 32,
                "duration": 0.075,
                "tempo": 120.0
            },
            {
                "pitch": 86,
                "velocity": 32,
                "duration": 0.075,
                "tempo": 120.0
            },
            {
                "pitch": 74,
                "velocity": 32,
                "duration": 0.075,
                "tempo": 120.0
            },
            {
                "pitch": 82,
                "velocity": 32,
                "duration": 0.0773,
                "tempo": 120.0
            },
            {
                "pitch": 70,
                "velocity": 32,
                "duration": 0.075,
                "tempo": 120.0
            },
            {
                "pitch": 84,
                "velocity": 32,
                "duration": 0.075,
                "tempo": 120.0
            },
            {
                "pitch": 72,
                "velocity": 32,
                "duration": 0.0773,
                "tempo": 120.0
            },
            {
                "pitch": 86,
                "velocity": 32,
                "duration": 0.075,
                "tempo": 120.0
            },
            {
                "pitch": 74,
                "velocity": 32,
                "duration": 0.0773,
                "tempo": 120.0
            },
            {
                "pitch": 91,
                "velocity": 32,
                "duration": 0.075,
                "tempo": 120.0
            },
            {
                "pitch": 79,
                "velocity": 32,
                "duration": 0.0773,
                "tempo": 120.0
            },
            {
                "pitch": 89,
                "velocity": 32,
                "duration": 0.075,
                "tempo": 120.0
            },
            {
                "pitch": 77,
                "velocity": 32,
                "duration": 0.0773,
                "tempo": 120.0
            },
            {
                "pitch": 86,
                "velocity": 32,
                "duration": 0.075,
                "tempo": 120.0
            },
            {
                "pitch": 74,
                "velocity": 32,
                "duration": 0.0773,
                "tempo": 120.0
            },
            {
                "pitch": 82,
                "velocity": 32,
                "duration": 0.075,
                "tempo": 120.0
            },
            {
                "pitch": 70,
                "velocity": 32,
                "duration": 0.075,
                "tempo": 120.0
            },
            {
                "pitch": 84,
                "velocity": 32,
                "duration": 0.075,
                "tempo": 120.0
            },
            {
                "pitch": 72,
                "velocity": 32,
                "duration": 0.0773,
                "tempo": 120.0
            },
            {
                "pitch": 85,
                "velocity": 32,
                "duration": 0.075,
                "tempo": 120.0
            },
            {
                "pitch": 73,
                "velocity": 32,
                "duration": 0.0773,
                "tempo": 120.0
            },
            {
                "pitch": 89,
                "velocity": 32,
                "duration": 0.075,
                "tempo": 120.0
            },
            {
                "pitch": 77,
                "velocity": 32,
                "duration": 0.0773,
                "tempo": 120.0
            },
            {
                "pitch": 92,
                "velocity": 32,
                "duration": 0.075,
                "tempo": 120.0
            },
            {
                "pitch": 80,
                "velocity": 32,
                "duration": 0.075,
                "tempo": 120.0
            },
            {
                "pitch": 91,
                "velocity": 32,
                "duration": 0.0773,
                "tempo": 120.0
            },
            {
                "pitch": 79,
                "velocity": 32,
                "duration": 0.075,
                "tempo": 120.0
            },
            {
                "pitch": 87,
                "velocity": 32,
                "duration": 0.0773,
                "tempo": 120.0
            },
            {
                "pitch": 75,
                "velocity": 32,
                "duration": 0.075,
                "tempo": 120.0
            },
            {
                "pitch": 84,
                "velocity": 32,
                "duration": 0.075,
                "tempo": 120.0
            },
            {
                "pitch": 72,
                "velocity": 32,
                "duration": 0.0773,
                "tempo": 120.0
            },
            {
                "pitch": 85,
                "velocity": 32,
                "duration": 0.075,
                "tempo": 120.0
            },
            {
                "pitch": 73,
                "velocity": 32,
                "duration": 0.0773,
                "tempo": 120.0
            },
            {
                "pitch": 82,
                "velocity": 32,
                "duration": 0.075,
                "tempo": 120.0
            },
            {
                "pitch": 70,
                "velocity": 32,
                "duration": 0.0773,
                "tempo": 120.0
            },
            {
                "pitch": 78,
                "velocity": 32,
                "duration": 0.075,
                "tempo": 120.0
            },
            {
                "pitch": 66,
                "velocity": 32,
                "duration": 0.075,
                "tempo": 120.0
            },
            {
                "pitch": 77,
                "velocity": 32,
                "duration": 0.075,
                "tempo": 120.0
            },
            {
                "pitch": 65,
                "velocity": 32,
                "duration": 0.075,
                "tempo": 120.0
            },
            {
                "pitch": 81,
                "velocity": 32,
                "duration": 0.075,
                "tempo": 120.0
            },
            {
                "pitch": 69,
                "velocity": 32,
                "duration": 0.075,
                "tempo": 120.0
            },
            {
                "pitch": 84,
                "velocity": 32,
                "duration": 0.075,
                "tempo": 120.0
            },
            {
                "pitch": 72,
                "velocity": 32,
                "duration": 0.0773,
                "tempo": 120.0
            },
            {
                "pitch": 82,
                "velocity": 32,
                "duration": 0.075,
                "tempo": 120.0
            },
            {
                "pitch": 70,
                "velocity": 32,
                "duration": 0.0773,
                "tempo": 120.0
            },
            {
                "pitch": 86,
                "velocity": 32,
                "duration": 0.075,
                "tempo": 120.0
            },
            {
                "pitch": 74,
                "velocity": 32,
                "duration": 0.075,
                "tempo": 120.0
            },
            {
                "pitch": 89,
                "velocity": 32,
                "duration": 0.0773,
                "tempo": 120.0
            },
            {
                "pitch": 77,
                "velocity": 32,
                "duration": 0.075,
                "tempo": 120.0
            },
            {
                "pitch": 92,
                "velocity": 32,
                "duration": 0.0773,
                "tempo": 120.0
            },
            {
                "pitch": 80,
                "velocity": 32,
                "duration": 0.075,
                "tempo": 120.0
            },
            {
                "pitch": 89,
                "velocity": 32,
                "duration": 0.0773,
                "tempo": 120.0
            },
            {
                "pitch": 77,
                "velocity": 32,
                "duration": 0.075,
                "tempo": 120.0
            },
            {
                "pitch": 86,
                "velocity": 32,
                "duration": 0.0773,
                "tempo": 120.0
            },
            {
                "pitch": 74,
                "velocity": 32,
                "duration": 0.075,
                "tempo": 120.0
            },
            {
                "pitch": 91,
                "velocity": 32,
                "duration": 0.075,
                "tempo": 120.0
            },
            {
                "pitch": 79,
                "velocity": 32,
                "duration": 0.0773,
                "tempo": 120.0
            },
            {
                "pitch": 87,
                "velocity": 32,
                "duration": 0.075,
                "tempo": 120.0
            },
            {
                "pitch": 75,
                "velocity": 32,
                "duration": 0.075,
                "tempo": 120.0
            },
            {
                "pitch": 84,
                "velocity": 32,
                "duration": 0.0773,
                "tempo": 120.0
            },
            {
                "pitch": 72,
                "velocity": 32,
                "duration": 0.075,
                "tempo": 120.0
            },
            {
                "pitch": 81,
                "velocity": 32,
                "duration": 0.0773,
                "tempo": 120.0
            },
            {
                "pitch": 69,
                "velocity": 32,
                "duration": 0.075,
                "tempo": 120.0
            },
            {
                "pitch": 79,
                "velocity": 32,
                "duration": 0.0773,
                "tempo": 120.0
            },
            {
                "pitch": 67,
                "velocity": 32,
                "duration": 0.0773,
                "tempo": 120.0
            },
            {
                "pitch": 81,
                "velocity": 32,
                "duration": 0.075,
                "tempo": 120.0
            },
            {
                "pitch": 69,
                "velocity": 32,
                "duration": 0.0773,
                "tempo": 120.0
            },
            {
                "pitch": 82,
                "velocity": 32,
                "duration": 0.075,
                "tempo": 120.0
            },
            {
                "pitch": 70,
                "velocity": 32,
                "duration": 0.075,
                "tempo": 120.0
            },
            {
                "pitch": 86,
                "velocity": 32,
                "duration": 0.0773,
                "tempo": 120.0
            },
            {
                "pitch": 74,
                "velocity": 32,
                "duration": 0.075,
                "tempo": 120.0
            },
            {
                "pitch": 89,
                "velocity": 32,
                "duration": 0.0773,
                "tempo": 120.0
            },
            {
                "pitch": 77,
                "velocity": 32,
                "duration": 0.075,
                "tempo": 120.0
            },
            {
                "pitch": 94,
                "velocity": 32,
                "duration": 0.0773,
                "tempo": 120.0
            },
            {
                "pitch": 82,
                "velocity": 32,
                "duration": 0.075,
                "tempo": 120.0
            },
            {
                "pitch": 82,
                "velocity": 32,
                "duration": 0.075,
                "tempo": 120.0
            },
            {
                "pitch": 70,
                "velocity": 32,
                "duration": 0.0773,
                "tempo": 120.0
            },
            {
                "pitch": 94,
                "velocity": 32,
                "duration": 0.075,
                "tempo": 120.0
            },
            {
                "pitch": 82,
                "velocity": 32,
                "duration": 0.0773,
                "tempo": 120.0
            },
            {
                "pitch": 86,
                "velocity": 32,
                "duration": 0.075,
                "tempo": 120.0
            },
            {
                "pitch": 74,
                "velocity": 32,
                "duration": 0.0773,
                "tempo": 120.0
            },
            {
                "pitch": 91,
                "velocity": 32,
                "duration": 0.075,
                "tempo": 120.0
            },
            {
                "pitch": 79,
                "velocity": 32,
                "duration": 0.075,
                "tempo": 120.0
            },
            {
                "pitch": 89,
                "velocity": 32,
                "duration": 0.075,
                "tempo": 120.0
            },
            {
                "pitch": 77,
                "velocity": 32,
                "duration": 0.075,
                "tempo": 120.0
            },
            {
                "pitch": 86,
                "velocity": 32,
                "duration": 0.0773,
                "tempo": 120.0
            },
            {
                "pitch": 74,
                "velocity": 32,
                "duration": 0.075,
                "tempo": 120.0
            },
            {
                "pitch": 82,
                "velocity": 32,
                "duration": 0.075,
                "tempo": 120.0
            },
            {
                "pitch": 70,
                "velocity": 32,
                "duration": 0.075,
                "tempo": 120.0
            },
            {
                "pitch": 84,
                "velocity": 32,
                "duration": 0.075,
                "tempo": 120.0
            },
            {
                "pitch": 72,
                "velocity": 32,
                "duration": 0.075,
                "tempo": 120.0
            },
            {
                "pitch": 86,
                "velocity": 32,
                "duration": 0.075,
                "tempo": 120.0
            },
            {
                "pitch": 74,
                "velocity": 32,
                "duration": 0.0773,
                "tempo": 120.0
            },
            {
                "pitch": 91,
                "velocity": 32,
                "duration": 0.075,
                "tempo": 120.0
            },
            {
                "pitch": 79,
                "velocity": 32,
                "duration": 0.075,
                "tempo": 120.0
            },
            {
                "pitch": 89,
                "velocity": 32,
                "duration": 0.0773,
                "tempo": 120.0
            },
            {
                "pitch": 77,
                "velocity": 32,
                "duration": 0.075,
                "tempo": 120.0
            },
            {
                "pitch": 86,
                "velocity": 32,
                "duration": 0.075,
                "tempo": 120.0
            },
            {
                "pitch": 74,
                "velocity": 32,
                "duration": 0.075,
                "tempo": 120.0
            },
            {
                "pitch": 82,
                "velocity": 32,
                "duration": 0.075,
                "tempo": 120.0
            },
            {
                "pitch": 70,
                "velocity": 32,
                "duration": 0.075,
                "tempo": 120.0
            },
            {
                "pitch": 84,
                "velocity": 32,
                "duration": 0.075,
                "tempo": 120.0
            },
            {
                "pitch": 72,
                "velocity": 32,
                "duration": 0.075,
                "tempo": 120.0
            },
            {
                "pitch": 86,
                "velocity": 32,
                "duration": 0.075,
                "tempo": 120.0
            },
            {
                "pitch": 74,
                "velocity": 32,
                "duration": 0.075,
                "tempo": 120.0
            },
            {
                "pitch": 91,
                "velocity": 32,
                "duration": 0.075,
                "tempo": 120.0
            },
            {
                "pitch": 79,
                "velocity": 32,
                "duration": 0.075,
                "tempo": 120.0
            },
            {
                "pitch": 89,
                "velocity": 32,
                "duration": 0.0773,
                "tempo": 120.0
            },
            {
                "pitch": 77,
                "velocity": 32,
                "duration": 0.075,
                "tempo": 120.0
            },
            {
                "pitch": 86,
                "velocity": 32,
                "duration": 0.075,
                "tempo": 120.0
            },
            {
                "pitch": 74,
                "velocity": 32,
                "duration": 0.0773,
                "tempo": 120.0
            },
            {
                "pitch": 82,
                "velocity": 32,
                "duration": 0.0773,
                "tempo": 120.0
            },
            {
                "pitch": 70,
                "velocity": 32,
                "duration": 0.075,
                "tempo": 120.0
            },
            {
                "pitch": 84,
                "velocity": 32,
                "duration": 0.075,
                "tempo": 120.0
            },
            {
                "pitch": 72,
                "velocity": 32,
                "duration": 0.075,
                "tempo": 120.0
            },
            {
                "pitch": 85,
                "velocity": 32,
                "duration": 0.075,
                "tempo": 120.0
            },
            {
                "pitch": 73,
                "velocity": 32,
                "duration": 0.0773,
                "tempo": 120.0
            },
            {
                "pitch": 89,
                "velocity": 32,
                "duration": 0.075,
                "tempo": 120.0
            },
            {
                "pitch": 77,
                "velocity": 32,
                "duration": 0.075,
                "tempo": 120.0
            },
            {
                "pitch": 92,
                "velocity": 32,
                "duration": 0.075,
                "tempo": 120.0
            },
            {
                "pitch": 80,
                "velocity": 32,
                "duration": 0.075,
                "tempo": 120.0
            },
            {
                "pitch": 91,
                "velocity": 32,
                "duration": 0.075,
                "tempo": 120.0
            },
            {
                "pitch": 79,
                "velocity": 32,
                "duration": 0.0773,
                "tempo": 120.0
            },
            {
                "pitch": 87,
                "velocity": 32,
                "duration": 0.075,
                "tempo": 120.0
            },
            {
                "pitch": 75,
                "velocity": 32,
                "duration": 0.075,
                "tempo": 120.0
            },
            {
                "pitch": 84,
                "velocity": 32,
                "duration": 0.075,
                "tempo": 120.0
            },
            {
                "pitch": 72,
                "velocity": 32,
                "duration": 0.0773,
                "tempo": 120.0
            },
            {
                "pitch": 85,
                "velocity": 32,
                "duration": 0.0727,
                "tempo": 120.0
            },
            {
                "pitch": 73,
                "velocity": 32,
                "duration": 0.075,
                "tempo": 120.0
            },
            {
                "pitch": 82,
                "velocity": 32,
                "duration": 0.0727,
                "tempo": 120.0
            },
            {
                "pitch": 70,
                "velocity": 32,
                "duration": 0.0773,
                "tempo": 120.0
            },
            {
                "pitch": 78,
                "velocity": 32,
                "duration": 0.0773,
                "tempo": 120.0
            },
            {
                "pitch": 66,
                "velocity": 32,
                "duration": 0.0773,
                "tempo": 120.0
            },
            {
                "pitch": 77,
                "velocity": 32,
                "duration": 0.0773,
                "tempo": 120.0
            },
            {
                "pitch": 65,
                "velocity": 32,
                "duration": 0.075,
                "tempo": 120.0
            },
            {
                "pitch": 81,
                "velocity": 32,
                "duration": 0.075,
                "tempo": 120.0
            },
            {
                "pitch": 69,
                "velocity": 32,
                "duration": 0.075,
                "tempo": 120.0
            },
            {
                "pitch": 84,
                "velocity": 32,
                "duration": 0.0773,
                "tempo": 120.0
            },
            {
                "pitch": 72,
                "velocity": 32,
                "duration": 0.075,
                "tempo": 120.0
            },
            {
                "pitch": 82,
                "velocity": 32,
                "duration": 0.075,
                "tempo": 120.0
            },
            {
                "pitch": 70,
                "velocity": 32,
                "duration": 0.075,
                "tempo": 120.0
            },
            {
                "pitch": 86,
                "velocity": 32,
                "duration": 0.0773,
                "tempo": 120.0
            },
            {
                "pitch": 74,
                "velocity": 32,
                "duration": 0.075,
                "tempo": 120.0
            },
            {
                "pitch": 89,
                "velocity": 32,
                "duration": 0.075,
                "tempo": 120.0
            },
            {
                "pitch": 77,
                "velocity": 32,
                "duration": 0.0773,
                "tempo": 120.0
            },
            {
                "pitch": 92,
                "velocity": 32,
                "duration": 0.075,
                "tempo": 120.0
            },
            {
                "pitch": 80,
                "velocity": 32,
                "duration": 0.0773,
                "tempo": 120.0
            },
            {
                "pitch": 89,
                "velocity": 32,
                "duration": 0.075,
                "tempo": 120.0
            },
            {
                "pitch": 77,
                "velocity": 32,
                "duration": 0.0773,
                "tempo": 120.0
            },
            {
                "pitch": 86,
                "velocity": 32,
                "duration": 0.075,
                "tempo": 120.0
            },
            {
                "pitch": 74,
                "velocity": 32,
                "duration": 0.075,
                "tempo": 120.0
            },
            {
                "pitch": 91,
                "velocity": 32,
                "duration": 0.075,
                "tempo": 120.0
            },
            {
                "pitch": 79,
                "velocity": 32,
                "duration": 0.0773,
                "tempo": 120.0
            },
            {
                "pitch": 87,
                "velocity": 32,
                "duration": 0.075,
                "tempo": 120.0
            },
            {
                "pitch": 75,
                "velocity": 32,
                "duration": 0.075,
                "tempo": 120.0
            },
            {
                "pitch": 84,
                "velocity": 32,
                "duration": 0.075,
                "tempo": 120.0
            },
            {
                "pitch": 72,
                "velocity": 32,
                "duration": 0.0773,
                "tempo": 120.0
            },
            {
                "pitch": 81,
                "velocity": 32,
                "duration": 0.075,
                "tempo": 120.0
            },
            {
                "pitch": 69,
                "velocity": 32,
                "duration": 0.075,
                "tempo": 120.0
            },
            {
                "pitch": 79,
                "velocity": 32,
                "duration": 0.0773,
                "tempo": 120.0
            },
            {
                "pitch": 67,
                "velocity": 32,
                "duration": 0.075,
                "tempo": 120.0
            },
            {
                "pitch": 81,
                "velocity": 32,
                "duration": 0.0773,
                "tempo": 120.0
            },
            {
                "pitch": 69,
                "velocity": 32,
                "duration": 0.075,
                "tempo": 120.0
            },
            {
                "pitch": 82,
                "velocity": 32,
                "duration": 0.0773,
                "tempo": 120.0
            },
            {
                "pitch": 70,
                "velocity": 32,
                "duration": 0.075,
                "tempo": 120.0
            },
            {
                "pitch": 86,
                "velocity": 32,
                "duration": 0.075,
                "tempo": 120.0
            },
            {
                "pitch": 74,
                "velocity": 32,
                "duration": 0.075,
                "tempo": 120.0
            },
            {
                "pitch": 89,
                "velocity": 32,
                "duration": 0.075,
                "tempo": 120.0
            },
            {
                "pitch": 77,
                "velocity": 32,
                "duration": 0.075,
                "tempo": 120.0
            },
            {
                "pitch": 94,
                "velocity": 32,
                "duration": 0.075,
                "tempo": 120.0
            },
            {
                "pitch": 82,
                "velocity": 32,
                "duration": 0.0977,
                "tempo": 120.0
            },
            {
                "pitch": 82,
                "velocity": 32,
                "duration": 0.1,
                "tempo": 120.0
            },
            {
                "pitch": 70,
                "velocity": 32,
                "duration": 0.1,
                "tempo": 120.0
            },
            {
                "pitch": 94,
                "velocity": 32,
                "duration": 0.1,
                "tempo": 120.0
            },
            {
                "pitch": 82,
                "velocity": 32,
                "duration": 0.1,
                "tempo": 120.0
            },
            {
                "pitch": 86,
                "velocity": 32,
                "duration": 0.1,
                "tempo": 120.0
            },
            {
                "pitch": 74,
                "velocity": 32,
                "duration": 0.1,
                "tempo": 120.0
            },
            {
                "pitch": 91,
                "velocity": 32,
                "duration": 0.1,
                "tempo": 120.0
            },
            {
                "pitch": 79,
                "velocity": 32,
                "duration": 0.1,
                "tempo": 120.0
            },
            {
                "pitch": 89,
                "velocity": 32,
                "duration": 0.0114,
                "tempo": 120.0
            },
            {
                "pitch": 89,
                "velocity": 32,
                "duration": 0.0909,
                "tempo": 120.0
            },
            {
                "pitch": 77,
                "velocity": 32,
                "duration": 0.1023,
                "tempo": 120.0
            },
            {
                "pitch": 86,
                "velocity": 32,
                "duration": 0.1023,
                "tempo": 120.0
            },
            {
                "pitch": 74,
                "velocity": 32,
                "duration": 0.1,
                "tempo": 120.0
            },
            {
                "pitch": 82,
                "velocity": 32,
                "duration": 0.1,
                "tempo": 120.0
            },
            {
                "pitch": 70,
                "velocity": 32,
                "duration": 0.1,
                "tempo": 120.0
            },
            {
                "pitch": 84,
                "velocity": 32,
                "duration": 0.1,
                "tempo": 120.0
            },
            {
                "pitch": 72,
                "velocity": 32,
                "duration": 0.1,
                "tempo": 120.0
            },
            {
                "pitch": 86,
                "velocity": 32,
                "duration": 0.1,
                "tempo": 120.0
            },
            {
                "pitch": 74,
                "velocity": 32,
                "duration": 0.1,
                "tempo": 120.0
            },
            {
                "pitch": 91,
                "velocity": 32,
                "duration": 0.1023,
                "tempo": 120.0
            },
            {
                "pitch": 79,
                "velocity": 32,
                "duration": 0.1023,
                "tempo": 120.0
            },
            {
                "pitch": 89,
                "velocity": 32,
                "duration": 0.1023,
                "tempo": 120.0
            },
            {
                "pitch": 77,
                "velocity": 32,
                "duration": 0.1023,
                "tempo": 120.0
            },
            {
                "pitch": 86,
                "velocity": 32,
                "duration": 0.1023,
                "tempo": 120.0
            },
            {
                "pitch": 74,
                "velocity": 32,
                "duration": 0.1023,
                "tempo": 120.0
            },
            {
                "pitch": 82,
                "velocity": 32,
                "duration": 0.1,
                "tempo": 120.0
            },
            {
                "pitch": 70,
                "velocity": 32,
                "duration": 0.1,
                "tempo": 120.0
            },
            {
                "pitch": 84,
                "velocity": 32,
                "duration": 0.1,
                "tempo": 120.0
            },
            {
                "pitch": 72,
                "velocity": 32,
                "duration": 0.1,
                "tempo": 120.0
            },
            {
                "pitch": 86,
                "velocity": 32,
                "duration": 0.1023,
                "tempo": 120.0
            },
            {
                "pitch": 74,
                "velocity": 32,
                "duration": 0.1,
                "tempo": 120.0
            },
            {
                "pitch": 91,
                "velocity": 32,
                "duration": 0.1,
                "tempo": 120.0
            },
            {
                "pitch": 79,
                "velocity": 32,
                "duration": 0.1023,
                "tempo": 120.0
            },
            {
                "pitch": 89,
                "velocity": 32,
                "duration": 0.1,
                "tempo": 120.0
            },
            {
                "pitch": 77,
                "velocity": 32,
                "duration": 0.1023,
                "tempo": 120.0
            },
            {
                "pitch": 86,
                "velocity": 32,
                "duration": 0.1023,
                "tempo": 120.0
            },
            {
                "pitch": 74,
                "velocity": 32,
                "duration": 0.1,
                "tempo": 120.0
            },
            {
                "pitch": 82,
                "velocity": 32,
                "duration": 0.1,
                "tempo": 120.0
            },
            {
                "pitch": 70,
                "velocity": 32,
                "duration": 0.1,
                "tempo": 120.0
            },
            {
                "pitch": 84,
                "velocity": 32,
                "duration": 0.1,
                "tempo": 120.0
            },
            {
                "pitch": 72,
                "velocity": 32,
                "duration": 0.1,
                "tempo": 120.0
            },
            {
                "pitch": 85,
                "velocity": 32,
                "duration": 0.1,
                "tempo": 120.0
            },
            {
                "pitch": 73,
                "velocity": 32,
                "duration": 0.1,
                "tempo": 120.0
            },
            {
                "pitch": 89,
                "velocity": 32,
                "duration": 0.1,
                "tempo": 120.0
            },
            {
                "pitch": 77,
                "velocity": 32,
                "duration": 0.1023,
                "tempo": 120.0
            },
            {
                "pitch": 92,
                "velocity": 32,
                "duration": 0.1023,
                "tempo": 120.0
            },
            {
                "pitch": 80,
                "velocity": 32,
                "duration": 0.1023,
                "tempo": 120.0
            },
            {
                "pitch": 91,
                "velocity": 32,
                "duration": 0.1023,
                "tempo": 120.0
            },
            {
                "pitch": 79,
                "velocity": 32,
                "duration": 0.1,
                "tempo": 120.0
            },
            {
                "pitch": 87,
                "velocity": 32,
                "duration": 0.1,
                "tempo": 120.0
            },
            {
                "pitch": 75,
                "velocity": 32,
                "duration": 0.1,
                "tempo": 120.0
            },
            {
                "pitch": 84,
                "velocity": 32,
                "duration": 0.1,
                "tempo": 120.0
            },
            {
                "pitch": 72,
                "velocity": 32,
                "duration": 0.1,
                "tempo": 120.0
            },
            {
                "pitch": 85,
                "velocity": 32,
                "duration": 0.1,
                "tempo": 120.0
            },
            {
                "pitch": 73,
                "velocity": 32,
                "duration": 0.1023,
                "tempo": 120.0
            },
            {
                "pitch": 82,
                "velocity": 32,
                "duration": 0.1,
                "tempo": 120.0
            },
            {
                "pitch": 70,
                "velocity": 32,
                "duration": 0.1023,
                "tempo": 120.0
            },
            {
                "pitch": 78,
                "velocity": 32,
                "duration": 0.1023,
                "tempo": 120.0
            },
            {
                "pitch": 66,
                "velocity": 32,
                "duration": 0.1,
                "tempo": 120.0
            },
            {
                "pitch": 77,
                "velocity": 32,
                "duration": 0.1023,
                "tempo": 120.0
            },
            {
                "pitch": 65,
                "velocity": 32,
                "duration": 0.1,
                "tempo": 120.0
            },
            {
                "pitch": 81,
                "velocity": 32,
                "duration": 0.1,
                "tempo": 120.0
            },
            {
                "pitch": 69,
                "velocity": 32,
                "duration": 0.1,
                "tempo": 120.0
            },
            {
                "pitch": 84,
                "velocity": 32,
                "duration": 0.1,
                "tempo": 120.0
            },
            {
                "pitch": 72,
                "velocity": 32,
                "duration": 0.1023,
                "tempo": 120.0
            },
            {
                "pitch": 82,
                "velocity": 32,
                "duration": 0.1023,
                "tempo": 120.0
            },
            {
                "pitch": 70,
                "velocity": 32,
                "duration": 0.1023,
                "tempo": 120.0
            },
            {
                "pitch": 86,
                "velocity": 32,
                "duration": 0.1023,
                "tempo": 120.0
            },
            {
                "pitch": 74,
                "velocity": 32,
                "duration": 0.1,
                "tempo": 120.0
            },
            {
                "pitch": 89,
                "velocity": 32,
                "duration": 0.1,
                "tempo": 120.0
            },
            {
                "pitch": 77,
                "velocity": 32,
                "duration": 0.1,
                "tempo": 120.0
            },
            {
                "pitch": 92,
                "velocity": 32,
                "duration": 0.1,
                "tempo": 120.0
            },
            {
                "pitch": 80,
                "velocity": 32,
                "duration": 0.1,
                "tempo": 120.0
            },
            {
                "pitch": 89,
                "velocity": 32,
                "duration": 0.1,
                "tempo": 120.0
            },
            {
                "pitch": 77,
                "velocity": 32,
                "duration": 0.1,
                "tempo": 120.0
            },
            {
                "pitch": 86,
                "velocity": 32,
                "duration": 0.1,
                "tempo": 120.0
            },
            {
                "pitch": 74,
                "velocity": 32,
                "duration": 0.1023,
                "tempo": 120.0
            },
            {
                "pitch": 91,
                "velocity": 32,
                "duration": 0.1023,
                "tempo": 120.0
            },
            {
                "pitch": 79,
                "velocity": 32,
                "duration": 0.1023,
                "tempo": 120.0
            },
            {
                "pitch": 87,
                "velocity": 32,
                "duration": 0.1023,
                "tempo": 120.0
            },
            {
                "pitch": 75,
                "velocity": 32,
                "duration": 0.1,
                "tempo": 120.0
            },
            {
                "pitch": 84,
                "velocity": 32,
                "duration": 0.1,
                "tempo": 120.0
            },
            {
                "pitch": 72,
                "velocity": 32,
                "duration": 0.1,
                "tempo": 120.0
            },
            {
                "pitch": 81,
                "velocity": 32,
                "duration": 0.1,
                "tempo": 120.0
            },
            {
                "pitch": 69,
                "velocity": 32,
                "duration": 0.1,
                "tempo": 120.0
            },
            {
                "pitch": 79,
                "velocity": 32,
                "duration": 0.1,
                "tempo": 120.0
            },
            {
                "pitch": 67,
                "velocity": 32,
                "duration": 0.1,
                "tempo": 120.0
            },
            {
                "pitch": 81,
                "velocity": 32,
                "duration": 0.1,
                "tempo": 120.0
            },
            {
                "pitch": 69,
                "velocity": 32,
                "duration": 0.1,
                "tempo": 120.0
            },
            {
                "pitch": 82,
                "velocity": 32,
                "duration": 0.1023,
                "tempo": 120.0
            },
            {
                "pitch": 70,
                "velocity": 32,
                "duration": 0.1023,
                "tempo": 120.0
            },
            {
                "pitch": 86,
                "velocity": 32,
                "duration": 0.1023,
                "tempo": 120.0
            },
            {
                "pitch": 74,
                "velocity": 32,
                "duration": 0.1,
                "tempo": 120.0
            },
            {
                "pitch": 89,
                "velocity": 32,
                "duration": 0.1,
                "tempo": 120.0
            },
            {
                "pitch": 77,
                "velocity": 32,
                "duration": 0.1,
                "tempo": 120.0
            },
            {
                "pitch": 94,
                "velocity": 32,
                "duration": 0.1,
                "tempo": 120.0
            },
            {
                "pitch": 82,
                "velocity": 32,
                "duration": 0.1,
                "tempo": 120.0
            },
            {
                "pitch": 82,
                "velocity": 32,
                "duration": 0.1,
                "tempo": 120.0
            },
            {
                "pitch": 70,
                "velocity": 32,
                "duration": 0.1,
                "tempo": 120.0
            },
            {
                "pitch": 94,
                "velocity": 32,
                "duration": 0.1023,
                "tempo": 120.0
            },
            {
                "pitch": 82,
                "velocity": 32,
                "duration": 0.1,
                "tempo": 120.0
            },
            {
                "pitch": 86,
                "velocity": 32,
                "duration": 0.1,
                "tempo": 120.0
            },
            {
                "pitch": 74,
                "velocity": 32,
                "duration": 0.1,
                "tempo": 120.0
            },
            {
                "pitch": 91,
                "velocity": 32,
                "duration": 0.1,
                "tempo": 120.0
            },
            {
                "pitch": 79,
                "velocity": 32,
                "duration": 0.1023,
                "tempo": 120.0
            },
            {
                "pitch": 89,
                "velocity": 32,
                "duration": 0.1023,
                "tempo": 120.0
            },
            {
                "pitch": 77,
                "velocity": 32,
                "duration": 0.1023,
                "tempo": 120.0
            },
            {
                "pitch": 86,
                "velocity": 32,
                "duration": 0.1023,
                "tempo": 120.0
            },
            {
                "pitch": 74,
                "velocity": 32,
                "duration": 0.1,
                "tempo": 120.0
            },
            {
                "pitch": 82,
                "velocity": 32,
                "duration": 0.1,
                "tempo": 120.0
            },
            {
                "pitch": 70,
                "velocity": 32,
                "duration": 0.1,
                "tempo": 120.0
            },
            {
                "pitch": 84,
                "velocity": 32,
                "duration": 0.1,
                "tempo": 120.0
            },
            {
                "pitch": 72,
                "velocity": 32,
                "duration": 0.1,
                "tempo": 120.0
            },
            {
                "pitch": 86,
                "velocity": 32,
                "duration": 0.1,
                "tempo": 120.0
            },
            {
                "pitch": 74,
                "velocity": 32,
                "duration": 0.1,
                "tempo": 120.0
            },
            {
                "pitch": 91,
                "velocity": 32,
                "duration": 0.1,
                "tempo": 120.0
            },
            {
                "pitch": 79,
                "velocity": 32,
                "duration": 0.1023,
                "tempo": 120.0
            },
            {
                "pitch": 89,
                "velocity": 32,
                "duration": 0.1023,
                "tempo": 120.0
            },
            {
                "pitch": 77,
                "velocity": 32,
                "duration": 0.1,
                "tempo": 120.0
            },
            {
                "pitch": 86,
                "velocity": 32,
                "duration": 0.1023,
                "tempo": 120.0
            },
            {
                "pitch": 74,
                "velocity": 32,
                "duration": 0.1,
                "tempo": 120.0
            },
            {
                "pitch": 82,
                "velocity": 32,
                "duration": 0.1,
                "tempo": 120.0
            },
            {
                "pitch": 70,
                "velocity": 32,
                "duration": 0.1,
                "tempo": 120.0
            },
            {
                "pitch": 84,
                "velocity": 32,
                "duration": 0.1,
                "tempo": 120.0
            },
            {
                "pitch": 72,
                "velocity": 32,
                "duration": 0.1023,
                "tempo": 120.0
            },
            {
                "pitch": 86,
                "velocity": 32,
                "duration": 0.1,
                "tempo": 120.0
            },
            {
                "pitch": 74,
                "velocity": 32,
                "duration": 0.1,
                "tempo": 120.0
            },
            {
                "pitch": 91,
                "velocity": 32,
                "duration": 0.1,
                "tempo": 120.0
            },
            {
                "pitch": 79,
                "velocity": 32,
                "duration": 0.1,
                "tempo": 120.0
            },
            {
                "pitch": 89,
                "velocity": 32,
                "duration": 0.1023,
                "tempo": 120.0
            },
            {
                "pitch": 77,
                "velocity": 32,
                "duration": 0.1023,
                "tempo": 120.0
            },
            {
                "pitch": 86,
                "velocity": 32,
                "duration": 0.1023,
                "tempo": 120.0
            },
            {
                "pitch": 74,
                "velocity": 32,
                "duration": 0.1,
                "tempo": 120.0
            },
            {
                "pitch": 82,
                "velocity": 32,
                "duration": 0.1,
                "tempo": 120.0
            },
            {
                "pitch": 70,
                "velocity": 32,
                "duration": 0.1023,
                "tempo": 120.0
            },
            {
                "pitch": 84,
                "velocity": 32,
                "duration": 0.1,
                "tempo": 120.0
            },
            {
                "pitch": 72,
                "velocity": 32,
                "duration": 0.1,
                "tempo": 120.0
            },
            {
                "pitch": 85,
                "velocity": 32,
                "duration": 0.1,
                "tempo": 120.0
            },
            {
                "pitch": 73,
                "velocity": 32,
                "duration": 0.1,
                "tempo": 120.0
            },
            {
                "pitch": 89,
                "velocity": 32,
                "duration": 0.1,
                "tempo": 120.0
            },
            {
                "pitch": 77,
                "velocity": 32,
                "duration": 0.1023,
                "tempo": 120.0
            },
            {
                "pitch": 92,
                "velocity": 32,
                "duration": 0.1023,
                "tempo": 120.0
            },
            {
                "pitch": 80,
                "velocity": 32,
                "duration": 0.1023,
                "tempo": 120.0
            },
            {
                "pitch": 91,
                "velocity": 32,
                "duration": 0.1,
                "tempo": 120.0
            },
            {
                "pitch": 79,
                "velocity": 32,
                "duration": 0.1023,
                "tempo": 120.0
            },
            {
                "pitch": 87,
                "velocity": 32,
                "duration": 0.1,
                "tempo": 120.0
            },
            {
                "pitch": 75,
                "velocity": 32,
                "duration": 0.1,
                "tempo": 120.0
            },
            {
                "pitch": 84,
                "velocity": 32,
                "duration": 0.1,
                "tempo": 120.0
            },
            {
                "pitch": 72,
                "velocity": 32,
                "duration": 0.1,
                "tempo": 120.0
            },
            {
                "pitch": 85,
                "velocity": 32,
                "duration": 0.1,
                "tempo": 120.0
            },
            {
                "pitch": 73,
                "velocity": 32,
                "duration": 0.1,
                "tempo": 120.0
            },
            {
                "pitch": 82,
                "velocity": 32,
                "duration": 0.1,
                "tempo": 120.0
            },
            {
                "pitch": 70,
                "velocity": 32,
                "duration": 0.1023,
                "tempo": 120.0
            },
            {
                "pitch": 78,
                "velocity": 32,
                "duration": 0.1023,
                "tempo": 120.0
            },
            {
                "pitch": 66,
                "velocity": 32,
                "duration": 0.1023,
                "tempo": 120.0
            },
            {
                "pitch": 77,
                "velocity": 32,
                "duration": 0.1023,
                "tempo": 120.0
            },
            {
                "pitch": 65,
                "velocity": 32,
                "duration": 0.1,
                "tempo": 120.0
            },
            {
                "pitch": 81,
                "velocity": 32,
                "duration": 0.1,
                "tempo": 120.0
            },
            {
                "pitch": 69,
                "velocity": 32,
                "duration": 0.1,
                "tempo": 120.0
            },
            {
                "pitch": 84,
                "velocity": 32,
                "duration": 0.1023,
                "tempo": 120.0
            },
            {
                "pitch": 72,
                "velocity": 32,
                "duration": 0.1023,
                "tempo": 120.0
            },
            {
                "pitch": 82,
                "velocity": 32,
                "duration": 0.1023,
                "tempo": 120.0
            },
            {
                "pitch": 70,
                "velocity": 32,
                "duration": 0.1023,
                "tempo": 120.0
            },
            {
                "pitch": 86,
                "velocity": 32,
                "duration": 0.1023,
                "tempo": 120.0
            },
            {
                "pitch": 74,
                "velocity": 32,
                "duration": 0.1023,
                "tempo": 120.0
            },
            {
                "pitch": 89,
                "velocity": 32,
                "duration": 0.1,
                "tempo": 120.0
            },
            {
                "pitch": 77,
                "velocity": 32,
                "duration": 0.1,
                "tempo": 120.0
            },
            {
                "pitch": 92,
                "velocity": 32,
                "duration": 0.1,
                "tempo": 120.0
            },
            {
                "pitch": 80,
                "velocity": 32,
                "duration": 0.1,
                "tempo": 120.0
            },
            {
                "pitch": 89,
                "velocity": 32,
                "duration": 0.1023,
                "tempo": 120.0
            },
            {
                "pitch": 77,
                "velocity": 32,
                "duration": 0.1,
                "tempo": 120.0
            },
            {
                "pitch": 86,
                "velocity": 32,
                "duration": 0.1,
                "tempo": 120.0
            },
            {
                "pitch": 74,
                "velocity": 32,
                "duration": 0.1,
                "tempo": 120.0
            },
            {
                "pitch": 91,
                "velocity": 32,
                "duration": 0.1,
                "tempo": 120.0
            },
            {
                "pitch": 79,
                "velocity": 32,
                "duration": 0.1,
                "tempo": 120.0
            },
            {
                "pitch": 87,
                "velocity": 32,
                "duration": 0.1,
                "tempo": 120.0
            },
            {
                "pitch": 75,
                "velocity": 32,
                "duration": 0.1023,
                "tempo": 120.0
            },
            {
                "pitch": 84,
                "velocity": 32,
                "duration": 0.1023,
                "tempo": 120.0
            },
            {
                "pitch": 72,
                "velocity": 32,
                "duration": 0.1,
                "tempo": 120.0
            },
            {
                "pitch": 81,
                "velocity": 32,
                "duration": 0.1023,
                "tempo": 120.0
            },
            {
                "pitch": 69,
                "velocity": 32,
                "duration": 0.1,
                "tempo": 120.0
            },
            {
                "pitch": 79,
                "velocity": 32,
                "duration": 0.1,
                "tempo": 120.0
            },
            {
                "pitch": 67,
                "velocity": 32,
                "duration": 0.1,
                "tempo": 120.0
            },
            {
                "pitch": 81,
                "velocity": 32,
                "duration": 0.1,
                "tempo": 120.0
            },
            {
                "pitch": 69,
                "velocity": 32,
                "duration": 0.1,
                "tempo": 120.0
            },
            {
                "pitch": 82,
                "velocity": 32,
                "duration": 0.1,
                "tempo": 120.0
            },
            {
                "pitch": 70,
                "velocity": 32,
                "duration": 0.1,
                "tempo": 120.0
            },
            {
                "pitch": 86,
                "velocity": 32,
                "duration": 0.1,
                "tempo": 120.0
            },
            {
                "pitch": 74,
                "velocity": 32,
                "duration": 0.1,
                "tempo": 120.0
            },
            {
                "pitch": 89,
                "velocity": 32,
                "duration": 0.1023,
                "tempo": 120.0
            },
            {
                "pitch": 77,
                "velocity": 32,
                "duration": 0.1023,
                "tempo": 120.0
            },
            {
                "pitch": 94,
                "velocity": 32,
                "duration": 0.1023,
                "tempo": 120.0
            },
            {
                "pitch": 82,
                "velocity": 32,
                "duration": 0.1,
                "tempo": 120.0
            },
            {
                "pitch": 82,
                "velocity": 32,
                "duration": 0.1,
                "tempo": 120.0
            },
            {
                "pitch": 70,
                "velocity": 32,
                "duration": 0.1023,
                "tempo": 120.0
            },
            {
                "pitch": 94,
                "velocity": 32,
                "duration": 0.1,
                "tempo": 120.0
            },
            {
                "pitch": 82,
                "velocity": 32,
                "duration": 0.1,
                "tempo": 120.0
            },
            {
                "pitch": 86,
                "velocity": 32,
                "duration": 0.1,
                "tempo": 120.0
            },
            {
                "pitch": 74,
                "velocity": 32,
                "duration": 0.1,
                "tempo": 120.0
            },
            {
                "pitch": 91,
                "velocity": 32,
                "duration": 0.1,
                "tempo": 120.0
            },
            {
                "pitch": 79,
                "velocity": 32,
                "duration": 0.1023,
                "tempo": 120.0
            }
        ],
        "Clarinet": [
            {
                "pitch": 74,
                "velocity": 8,
                "duration": 0.0591,
                "tempo": 120.0
            },
            {
                "pitch": 75,
                "velocity": 8,
                "duration": 0.075,
                "tempo": 120.0
            },
            {
                "pitch": 74,
                "velocity": 8,
                "duration": 0.075,
                "tempo": 120.0
            },
            {
                "pitch": 75,
                "velocity": 8,
                "duration": 0.1,
                "tempo": 120.0
            },
            {
                "pitch": 74,
                "velocity": 8,
                "duration": 0.1,
                "tempo": 120.0
            },
            {
                "pitch": 75,
                "velocity": 8,
                "duration": 0.1,
                "tempo": 120.0
            },
            {
                "pitch": 74,
                "velocity": 16,
                "duration": 0.075,
                "tempo": 120.0
            },
            {
                "pitch": 75,
                "velocity": 16,
                "duration": 0.075,
                "tempo": 120.0
            },
            {
                "pitch": 74,
                "velocity": 16,
                "duration": 0.0773,
                "tempo": 120.0
            },
            {
                "pitch": 75,
                "velocity": 16,
                "duration": 0.0773,
                "tempo": 120.0
            },
            {
                "pitch": 74,
                "velocity": 16,
                "duration": 0.0773,
                "tempo": 120.0
            },
            {
                "pitch": 75,
                "velocity": 16,
                "duration": 0.0795,
                "tempo": 120.0
            },
            {
                "pitch": 74,
                "velocity": 32,
                "duration": 0.075,
                "tempo": 120.0
            },
            {
                "pitch": 75,
                "velocity": 32,
                "duration": 0.075,
                "tempo": 120.0
            },
            {
                "pitch": 74,
                "velocity": 32,
                "duration": 0.0727,
                "tempo": 120.0
            },
            {
                "pitch": 75,
                "velocity": 32,
                "duration": 0.075,
                "tempo": 120.0
            },
            {
                "pitch": 74,
                "velocity": 32,
                "duration": 0.075,
                "tempo": 120.0
            },
            {
                "pitch": 75,
                "velocity": 32,
                "duration": 0.075,
                "tempo": 120.0
            },
            {
                "pitch": 74,
                "velocity": 64,
                "duration": 0.0773,
                "tempo": 120.0
            },
            {
                "pitch": 75,
                "velocity": 64,
                "duration": 0.0795,
                "tempo": 120.0
            },
            {
                "pitch": 74,
                "velocity": 64,
                "duration": 0.0773,
                "tempo": 120.0
            },
            {
                "pitch": 75,
                "velocity": 64,
                "duration": 0.0773,
                "tempo": 120.0
            },
            {
                "pitch": 74,
                "velocity": 64,
                "duration": 0.075,
                "tempo": 120.0
            },
            {
                "pitch": 75,
                "velocity": 64,
                "duration": 0.075,
                "tempo": 120.0
            },
            {
                "pitch": 43,
                "velocity": 40,
                "duration": 0.0773,
                "tempo": 120.0
            },
            {
                "pitch": 46,
                "velocity": 40,
                "duration": 0.075,
                "tempo": 120.0
            },
            {
                "pitch": 55,
                "velocity": 40,
                "duration": 0.075,
                "tempo": 120.0
            },
            {
                "pitch": 58,
                "velocity": 40,
                "duration": 0.075,
                "tempo": 120.0
            },
            {
                "pitch": 67,
                "velocity": 40,
                "duration": 0.075,
                "tempo": 120.0
            },
            {
                "pitch": 70,
                "velocity": 40,
                "duration": 0.075,
                "tempo": 120.0
            },
            {
                "pitch": 41,
                "velocity": 40,
                "duration": 0.0773,
                "tempo": 120.0
            },
            {
                "pitch": 46,
                "velocity": 40,
                "duration": 0.075,
                "tempo": 120.0
            },
            {
                "pitch": 53,
                "velocity": 40,
                "duration": 0.0773,
                "tempo": 120.0
            },
            {
                "pitch": 58,
                "velocity": 40,
                "duration": 0.075,
                "tempo": 120.0
            },
            {
                "pitch": 65,
                "velocity": 40,
                "duration": 0.075,
                "tempo": 120.0
            },
            {
                "pitch": 70,
                "velocity": 40,
                "duration": 0.0773,
                "tempo": 120.0
            },
            {
                "pitch": 43,
                "velocity": 40,
                "duration": 0.075,
                "tempo": 120.0
            },
            {
                "pitch": 46,
                "velocity": 40,
                "duration": 0.0773,
                "tempo": 120.0
            },
            {
                "pitch": 55,
                "velocity": 40,
                "duration": 0.075,
                "tempo": 120.0
            },
            {
                "pitch": 58,
                "velocity": 40,
                "duration": 0.0773,
                "tempo": 120.0
            },
            {
                "pitch": 67,
                "velocity": 40,
                "duration": 0.075,
                "tempo": 120.0
            },
            {
                "pitch": 70,
                "velocity": 40,
                "duration": 0.075,
                "tempo": 120.0
            },
            {
                "pitch": 41,
                "velocity": 40,
                "duration": 0.075,
                "tempo": 120.0
            },
            {
                "pitch": 46,
                "velocity": 40,
                "duration": 0.0773,
                "tempo": 120.0
            },
            {
                "pitch": 53,
                "velocity": 40,
                "duration": 0.075,
                "tempo": 120.0
            },
            {
                "pitch": 58,
                "velocity": 40,
                "duration": 0.075,
                "tempo": 120.0
            },
            {
                "pitch": 65,
                "velocity": 40,
                "duration": 0.075,
                "tempo": 120.0
            },
            {
                "pitch": 70,
                "velocity": 40,
                "duration": 0.0773,
                "tempo": 120.0
            },
            {
                "pitch": 43,
                "velocity": 40,
                "duration": 0.075,
                "tempo": 120.0
            },
            {
                "pitch": 46,
                "velocity": 40,
                "duration": 0.075,
                "tempo": 120.0
            },
            {
                "pitch": 55,
                "velocity": 40,
                "duration": 0.0773,
                "tempo": 120.0
            },
            {
                "pitch": 58,
                "velocity": 40,
                "duration": 0.075,
                "tempo": 120.0
            },
            {
                "pitch": 67,
                "velocity": 40,
                "duration": 0.0773,
                "tempo": 120.0
            },
            {
                "pitch": 70,
                "velocity": 40,
                "duration": 0.075,
                "tempo": 120.0
            },
            {
                "pitch": 41,
                "velocity": 40,
                "duration": 0.0773,
                "tempo": 120.0
            },
            {
                "pitch": 46,
                "velocity": 40,
                "duration": 0.075,
                "tempo": 120.0
            },
            {
                "pitch": 53,
                "velocity": 40,
                "duration": 0.0773,
                "tempo": 120.0
            },
            {
                "pitch": 58,
                "velocity": 40,
                "duration": 0.075,
                "tempo": 120.0
            },
            {
                "pitch": 65,
                "velocity": 40,
                "duration": 0.0773,
                "tempo": 120.0
            },
            {
                "pitch": 70,
                "velocity": 40,
                "duration": 0.075,
                "tempo": 120.0
            },
            {
                "pitch": 44,
                "velocity": 40,
                "duration": 0.075,
                "tempo": 120.0
            },
            {
                "pitch": 49,
                "velocity": 40,
                "duration": 0.075,
                "tempo": 120.0
            },
            {
                "pitch": 56,
                "velocity": 40,
                "duration": 0.0773,
                "tempo": 120.0
            },
            {
                "pitch": 61,
                "velocity": 40,
                "duration": 0.075,
                "tempo": 120.0
            },
            {
                "pitch": 68,
                "velocity": 40,
                "duration": 0.0773,
                "tempo": 120.0
            },
            {
                "pitch": 73,
                "velocity": 40,
                "duration": 0.075,
                "tempo": 120.0
            },
            {
                "pitch": 43,
                "velocity": 40,
                "duration": 0.0773,
                "tempo": 120.0
            },
            {
                "pitch": 48,
                "velocity": 40,
                "duration": 0.075,
                "tempo": 120.0
            },
            {
                "pitch": 55,
                "velocity": 40,
                "duration": 0.075,
                "tempo": 120.0
            },
            {
                "pitch": 60,
                "velocity": 40,
                "duration": 0.0773,
                "tempo": 120.0
            },
            {
                "pitch": 67,
                "velocity": 40,
                "duration": 0.075,
                "tempo": 120.0
            },
            {
                "pitch": 72,
                "velocity": 40,
                "duration": 0.0773,
                "tempo": 120.0
            },
            {
                "pitch": 42,
                "velocity": 40,
                "duration": 0.075,
                "tempo": 120.0
            },
            {
                "pitch": 46,
                "velocity": 40,
                "duration": 0.075,
                "tempo": 120.0
            },
            {
                "pitch": 54,
                "velocity": 40,
                "duration": 0.0773,
                "tempo": 120.0
            },
            {
                "pitch": 58,
                "velocity": 40,
                "duration": 0.075,
                "tempo": 120.0
            },
            {
                "pitch": 66,
                "velocity": 40,
                "duration": 0.0773,
                "tempo": 120.0
            },
            {
                "pitch": 70,
                "velocity": 40,
                "duration": 0.075,
                "tempo": 120.0
            },
            {
                "pitch": 41,
                "velocity": 40,
                "duration": 0.0773,
                "tempo": 120.0
            },
            {
                "pitch": 45,
                "velocity": 40,
                "duration": 0.075,
                "tempo": 120.0
            },
            {
                "pitch": 53,
                "velocity": 40,
                "duration": 0.075,
                "tempo": 120.0
            },
            {
                "pitch": 57,
                "velocity": 40,
                "duration": 0.075,
                "tempo": 120.0
            },
            {
                "pitch": 65,
                "velocity": 40,
                "duration": 0.075,
                "tempo": 120.0
            },
            {
                "pitch": 69,
                "velocity": 40,
                "duration": 0.075,
                "tempo": 120.0
            },
            {
                "pitch": 38,
                "velocity": 40,
                "duration": 0.075,
                "tempo": 120.0
            },
            {
                "pitch": 41,
                "velocity": 40,
                "duration": 0.075,
                "tempo": 120.0
            },
            {
                "pitch": 50,
                "velocity": 40,
                "duration": 0.0773,
                "tempo": 120.0
            },
            {
                "pitch": 53,
                "velocity": 40,
                "duration": 0.075,
                "tempo": 120.0
            },
            {
                "pitch": 62,
                "velocity": 40,
                "duration": 0.0773,
                "tempo": 120.0
            },
            {
                "pitch": 65,
                "velocity": 40,
                "duration": 0.075,
                "tempo": 120.0
            },
            {
                "pitch": 41,
                "velocity": 40,
                "duration": 0.075,
                "tempo": 120.0
            },
            {
                "pitch": 46,
                "velocity": 40,
                "duration": 0.0773,
                "tempo": 120.0
            },
            {
                "pitch": 53,
                "velocity": 40,
                "duration": 0.075,
                "tempo": 120.0
            },
            {
                "pitch": 58,
                "velocity": 40,
                "duration": 0.0773,
                "tempo": 120.0
            },
            {
                "pitch": 65,
                "velocity": 40,
                "duration": 0.075,
                "tempo": 120.0
            },
            {
                "pitch": 70,
                "velocity": 40,
                "duration": 0.0773,
                "tempo": 120.0
            },
            {
                "pitch": 43,
                "velocity": 40,
                "duration": 0.075,
                "tempo": 120.0
            },
            {
                "pitch": 48,
                "velocity": 40,
                "duration": 0.0773,
                "tempo": 120.0
            },
            {
                "pitch": 55,
                "velocity": 40,
                "duration": 0.075,
                "tempo": 120.0
            },
            {
                "pitch": 60,
                "velocity": 40,
                "duration": 0.075,
                "tempo": 120.0
            },
            {
                "pitch": 67,
                "velocity": 40,
                "duration": 0.0773,
                "tempo": 120.0
            },
            {
                "pitch": 72,
                "velocity": 40,
                "duration": 0.075,
                "tempo": 120.0
            },
            {
                "pitch": 41,
                "velocity": 40,
                "duration": 0.075,
                "tempo": 120.0
            },
            {
                "pitch": 45,
                "velocity": 40,
                "duration": 0.0773,
                "tempo": 120.0
            },
            {
                "pitch": 53,
                "velocity": 40,
                "duration": 0.075,
                "tempo": 120.0
            },
            {
                "pitch": 57,
                "velocity": 40,
                "duration": 0.0773,
                "tempo": 120.0
            },
            {
                "pitch": 65,
                "velocity": 40,
                "duration": 0.075,
                "tempo": 120.0
            },
            {
                "pitch": 69,
                "velocity": 40,
                "duration": 0.0773,
                "tempo": 120.0
            },
            {
                "pitch": 38,
                "velocity": 40,
                "duration": 0.0773,
                "tempo": 120.0
            },
            {
                "pitch": 41,
                "velocity": 40,
                "duration": 0.075,
                "tempo": 120.0
            },
            {
                "pitch": 50,
                "velocity": 40,
                "duration": 0.0773,
                "tempo": 120.0
            },
            {
                "pitch": 53,
                "velocity": 40,
                "duration": 0.075,
                "tempo": 120.0
            },
            {
                "pitch": 62,
                "velocity": 40,
                "duration": 0.075,
                "tempo": 120.0
            },
            {
                "pitch": 65,
                "velocity": 40,
                "duration": 0.0773,
                "tempo": 120.0
            },
            {
                "pitch": 42,
                "velocity": 40,
                "duration": 0.075,
                "tempo": 120.0
            },
            {
                "pitch": 46,
                "velocity": 40,
                "duration": 0.0773,
                "tempo": 120.0
            },
            {
                "pitch": 54,
                "velocity": 40,
                "duration": 0.075,
                "tempo": 120.0
            },
            {
                "pitch": 58,
                "velocity": 40,
                "duration": 0.0773,
                "tempo": 120.0
            },
            {
                "pitch": 66,
                "velocity": 40,
                "duration": 0.075,
                "tempo": 120.0
            },
            {
                "pitch": 70,
                "velocity": 40,
                "duration": 0.075,
                "tempo": 120.0
            },
            {
                "pitch": 43,
                "velocity": 40,
                "duration": 0.0773,
                "tempo": 120.0
            },
            {
                "pitch": 46,
                "velocity": 40,
                "duration": 0.075,
                "tempo": 120.0
            },
            {
                "pitch": 55,
                "velocity": 40,
                "duration": 0.0773,
                "tempo": 120.0
            },
            {
                "pitch": 58,
                "velocity": 40,
                "duration": 0.075,
                "tempo": 120.0
            },
            {
                "pitch": 67,
                "velocity": 40,
                "duration": 0.0773,
                "tempo": 120.0
            },
            {
                "pitch": 70,
                "velocity": 40,
                "duration": 0.075,
                "tempo": 120.0
            },
            {
                "pitch": 41,
                "velocity": 40,
                "duration": 0.075,
                "tempo": 120.0
            },
            {
                "pitch": 46,
                "velocity": 40,
                "duration": 0.075,
                "tempo": 120.0
            },
            {
                "pitch": 53,
                "velocity": 40,
                "duration": 0.075,
                "tempo": 120.0
            },
            {
                "pitch": 58,
                "velocity": 40,
                "duration": 0.0773,
                "tempo": 120.0
            },
            {
                "pitch": 65,
                "velocity": 40,
                "duration": 0.075,
                "tempo": 120.0
            },
            {
                "pitch": 70,
                "velocity": 40,
                "duration": 0.075,
                "tempo": 120.0
            },
            {
                "pitch": 43,
                "velocity": 40,
                "duration": 0.075,
                "tempo": 120.0
            },
            {
                "pitch": 46,
                "velocity": 40,
                "duration": 0.075,
                "tempo": 120.0
            },
            {
                "pitch": 55,
                "velocity": 40,
                "duration": 0.075,
                "tempo": 120.0
            },
            {
                "pitch": 58,
                "velocity": 40,
                "duration": 0.075,
                "tempo": 120.0
            },
            {
                "pitch": 67,
                "velocity": 40,
                "duration": 0.0773,
                "tempo": 120.0
            },
            {
                "pitch": 70,
                "velocity": 40,
                "duration": 0.075,
                "tempo": 120.0
            },
            {
                "pitch": 41,
                "velocity": 40,
                "duration": 0.075,
                "tempo": 120.0
            },
            {
                "pitch": 46,
                "velocity": 40,
                "duration": 0.0773,
                "tempo": 120.0
            },
            {
                "pitch": 53,
                "velocity": 40,
                "duration": 0.075,
                "tempo": 120.0
            },
            {
                "pitch": 58,
                "velocity": 40,
                "duration": 0.075,
                "tempo": 120.0
            },
            {
                "pitch": 65,
                "velocity": 40,
                "duration": 0.075,
                "tempo": 120.0
            },
            {
                "pitch": 70,
                "velocity": 40,
                "duration": 0.075,
                "tempo": 120.0
            },
            {
                "pitch": 43,
                "velocity": 40,
                "duration": 0.075,
                "tempo": 120.0
            },
            {
                "pitch": 46,
                "velocity": 40,
                "duration": 0.075,
                "tempo": 120.0
            },
            {
                "pitch": 55,
                "velocity": 40,
                "duration": 0.075,
                "tempo": 120.0
            },
            {
                "pitch": 58,
                "velocity": 40,
                "duration": 0.075,
                "tempo": 120.0
            },
            {
                "pitch": 67,
                "velocity": 40,
                "duration": 0.075,
                "tempo": 120.0
            },
            {
                "pitch": 70,
                "velocity": 40,
                "duration": 0.075,
                "tempo": 120.0
            },
            {
                "pitch": 41,
                "velocity": 40,
                "duration": 0.075,
                "tempo": 120.0
            },
            {
                "pitch": 46,
                "velocity": 40,
                "duration": 0.0773,
                "tempo": 120.0
            },
            {
                "pitch": 53,
                "velocity": 40,
                "duration": 0.075,
                "tempo": 120.0
            },
            {
                "pitch": 58,
                "velocity": 40,
                "duration": 0.075,
                "tempo": 120.0
            },
            {
                "pitch": 65,
                "velocity": 40,
                "duration": 0.0773,
                "tempo": 120.0
            },
            {
                "pitch": 70,
                "velocity": 40,
                "duration": 0.0773,
                "tempo": 120.0
            },
            {
                "pitch": 44,
                "velocity": 40,
                "duration": 0.075,
                "tempo": 120.0
            },
            {
                "pitch": 49,
                "velocity": 40,
                "duration": 0.075,
                "tempo": 120.0
            },
            {
                "pitch": 56,
                "velocity": 40,
                "duration": 0.075,
                "tempo": 120.0
            },
            {
                "pitch": 61,
                "velocity": 40,
                "duration": 0.075,
                "tempo": 120.0
            },
            {
                "pitch": 68,
                "velocity": 40,
                "duration": 0.0773,
                "tempo": 120.0
            },
            {
                "pitch": 73,
                "velocity": 40,
                "duration": 0.075,
                "tempo": 120.0
            },
            {
                "pitch": 43,
                "velocity": 40,
                "duration": 0.075,
                "tempo": 120.0
            },
            {
                "pitch": 48,
                "velocity": 40,
                "duration": 0.075,
                "tempo": 120.0
            },
            {
                "pitch": 55,
                "velocity": 40,
                "duration": 0.075,
                "tempo": 120.0
            },
            {
                "pitch": 60,
                "velocity": 40,
                "duration": 0.075,
                "tempo": 120.0
            },
            {
                "pitch": 67,
                "velocity": 40,
                "duration": 0.0773,
                "tempo": 120.0
            },
            {
                "pitch": 72,
                "velocity": 40,
                "duration": 0.075,
                "tempo": 120.0
            },
            {
                "pitch": 42,
                "velocity": 40,
                "duration": 0.075,
                "tempo": 120.0
            },
            {
                "pitch": 46,
                "velocity": 40,
                "duration": 0.075,
                "tempo": 120.0
            },
            {
                "pitch": 54,
                "velocity": 40,
                "duration": 0.0773,
                "tempo": 120.0
            },
            {
                "pitch": 58,
                "velocity": 40,
                "duration": 0.0727,
                "tempo": 120.0
            },
            {
                "pitch": 66,
                "velocity": 40,
                "duration": 0.075,
                "tempo": 120.0
            },
            {
                "pitch": 70,
                "velocity": 40,
                "duration": 0.0727,
                "tempo": 120.0
            },
            {
                "pitch": 41,
                "velocity": 40,
                "duration": 0.0773,
                "tempo": 120.0
            },
            {
                "pitch": 45,
                "velocity": 40,
                "duration": 0.0773,
                "tempo": 120.0
            },
            {
                "pitch": 53,
                "velocity": 40,
                "duration": 0.0773,
                "tempo": 120.0
            },
            {
                "pitch": 57,
                "velocity": 40,
                "duration": 0.0773,
                "tempo": 120.0
            },
            {
                "pitch": 65,
                "velocity": 40,
                "duration": 0.075,
                "tempo": 120.0
            },
            {
                "pitch": 69,
                "velocity": 40,
                "duration": 0.075,
                "tempo": 120.0
            },
            {
                "pitch": 38,
                "velocity": 40,
                "duration": 0.075,
                "tempo": 120.0
            },
            {
                "pitch": 41,
                "velocity": 40,
                "duration": 0.0773,
                "tempo": 120.0
            },
            {
                "pitch": 50,
                "velocity": 40,
                "duration": 0.075,
                "tempo": 120.0
            },
            {
                "pitch": 53,
                "velocity": 40,
                "duration": 0.075,
                "tempo": 120.0
            },
            {
                "pitch": 62,
                "velocity": 40,
                "duration": 0.075,
                "tempo": 120.0
            },
            {
                "pitch": 65,
                "velocity": 40,
                "duration": 0.0773,
                "tempo": 120.0
            },
            {
                "pitch": 41,
                "velocity": 40,
                "duration": 0.075,
                "tempo": 120.0
            },
            {
                "pitch": 46,
                "velocity": 40,
                "duration": 0.075,
                "tempo": 120.0
            },
            {
                "pitch": 53,
                "velocity": 40,
                "duration": 0.0773,
                "tempo": 120.0
            },
            {
                "pitch": 58,
                "velocity": 40,
                "duration": 0.075,
                "tempo": 120.0
            },
            {
                "pitch": 65,
                "velocity": 40,
                "duration": 0.0773,
                "tempo": 120.0
            },
            {
                "pitch": 70,
                "velocity": 40,
                "duration": 0.075,
                "tempo": 120.0
            },
            {
                "pitch": 43,
                "velocity": 40,
                "duration": 0.0773,
                "tempo": 120.0
            },
            {
                "pitch": 48,
                "velocity": 40,
                "duration": 0.075,
                "tempo": 120.0
            },
            {
                "pitch": 55,
                "velocity": 40,
                "duration": 0.075,
                "tempo": 120.0
            },
            {
                "pitch": 60,
                "velocity": 40,
                "duration": 0.075,
                "tempo": 120.0
            },
            {
                "pitch": 67,
                "velocity": 40,
                "duration": 0.0773,
                "tempo": 120.0
            },
            {
                "pitch": 72,
                "velocity": 40,
                "duration": 0.075,
                "tempo": 120.0
            },
            {
                "pitch": 41,
                "velocity": 40,
                "duration": 0.075,
                "tempo": 120.0
            },
            {
                "pitch": 45,
                "velocity": 40,
                "duration": 0.075,
                "tempo": 120.0
            },
            {
                "pitch": 53,
                "velocity": 40,
                "duration": 0.0773,
                "tempo": 120.0
            },
            {
                "pitch": 57,
                "velocity": 40,
                "duration": 0.075,
                "tempo": 120.0
            },
            {
                "pitch": 65,
                "velocity": 40,
                "duration": 0.075,
                "tempo": 120.0
            },
            {
                "pitch": 69,
                "velocity": 40,
                "duration": 0.0773,
                "tempo": 120.0
            },
            {
                "pitch": 38,
                "velocity": 40,
                "duration": 0.075,
                "tempo": 120.0
            },
            {
                "pitch": 41,
                "velocity": 40,
                "duration": 0.0773,
                "tempo": 120.0
            },
            {
                "pitch": 50,
                "velocity": 40,
                "duration": 0.075,
                "tempo": 120.0
            },
            {
                "pitch": 53,
                "velocity": 40,
                "duration": 0.0773,
                "tempo": 120.0
            },
            {
                "pitch": 62,
                "velocity": 40,
                "duration": 0.075,
                "tempo": 120.0
            },
            {
                "pitch": 65,
                "velocity": 40,
                "duration": 0.075,
                "tempo": 120.0
            },
            {
                "pitch": 42,
                "velocity": 40,
                "duration": 0.075,
                "tempo": 120.0
            },
            {
                "pitch": 46,
                "velocity": 40,
                "duration": 0.075,
                "tempo": 120.0
            },
            {
                "pitch": 54,
                "velocity": 40,
                "duration": 0.075,
                "tempo": 120.0
            },
            {
                "pitch": 58,
                "velocity": 40,
                "duration": 0.075,
                "tempo": 120.0
            },
            {
                "pitch": 66,
                "velocity": 40,
                "duration": 0.0977,
                "tempo": 120.0
            },
            {
                "pitch": 70,
                "velocity": 40,
                "duration": 0.1,
                "tempo": 120.0
            },
            {
                "pitch": 43,
                "velocity": 40,
                "duration": 0.1,
                "tempo": 120.0
            },
            {
                "pitch": 46,
                "velocity": 40,
                "duration": 0.1,
                "tempo": 120.0
            },
            {
                "pitch": 55,
                "velocity": 40,
                "duration": 0.1,
                "tempo": 120.0
            },
            {
                "pitch": 58,
                "velocity": 40,
                "duration": 0.1,
                "tempo": 120.0
            },
            {
                "pitch": 67,
                "velocity": 40,
                "duration": 0.1,
                "tempo": 120.0
            },
            {
                "pitch": 70,
                "velocity": 40,
                "duration": 0.1,
                "tempo": 120.0
            },
            {
                "pitch": 41,
                "velocity": 40,
                "duration": 0.1,
                "tempo": 120.0
            },
            {
                "pitch": 46,
                "velocity": 40,
                "duration": 0.0114,
                "tempo": 120.0
            },
            {
                "pitch": 46,
                "velocity": 40,
                "duration": 0.0909,
                "tempo": 120.0
            },
            {
                "pitch": 53,
                "velocity": 40,
                "duration": 0.1023,
                "tempo": 120.0
            },
            {
                "pitch": 58,
                "velocity": 40,
                "duration": 0.1023,
                "tempo": 120.0
            },
            {
                "pitch": 65,
                "velocity": 40,
                "duration": 0.1,
                "tempo": 120.0
            },
            {
                "pitch": 70,
                "velocity": 40,
                "duration": 0.1,
                "tempo": 120.0
            },
            {
                "pitch": 43,
                "velocity": 40,
                "duration": 0.1,
                "tempo": 120.0
            },
            {
                "pitch": 46,
                "velocity": 40,
                "duration": 0.1,
                "tempo": 120.0
            },
            {
                "pitch": 55,
                "velocity": 40,
                "duration": 0.1,
                "tempo": 120.0
            },
            {
                "pitch": 58,
                "velocity": 40,
                "duration": 0.1,
                "tempo": 120.0
            },
            {
                "pitch": 67,
                "velocity": 40,
                "duration": 0.1,
                "tempo": 120.0
            },
            {
                "pitch": 70,
                "velocity": 40,
                "duration": 0.1023,
                "tempo": 120.0
            },
            {
                "pitch": 41,
                "velocity": 40,
                "duration": 0.1023,
                "tempo": 120.0
            },
            {
                "pitch": 46,
                "velocity": 40,
                "duration": 0.1023,
                "tempo": 120.0
            },
            {
                "pitch": 53,
                "velocity": 40,
                "duration": 0.1023,
                "tempo": 120.0
            },
            {
                "pitch": 58,
                "velocity": 40,
                "duration": 0.1023,
                "tempo": 120.0
            },
            {
                "pitch": 65,
                "velocity": 40,
                "duration": 0.1023,
                "tempo": 120.0
            },
            {
                "pitch": 70,
                "velocity": 40,
                "duration": 0.1,
                "tempo": 120.0
            },
            {
                "pitch": 43,
                "velocity": 40,
                "duration": 0.1,
                "tempo": 120.0
            },
            {
                "pitch": 46,
                "velocity": 40,
                "duration": 0.1,
                "tempo": 120.0
            },
            {
                "pitch": 55,
                "velocity": 40,
                "duration": 0.1,
                "tempo": 120.0
            },
            {
                "pitch": 58,
                "velocity": 40,
                "duration": 0.1023,
                "tempo": 120.0
            },
            {
                "pitch": 67,
                "velocity": 40,
                "duration": 0.1,
                "tempo": 120.0
            },
            {
                "pitch": 70,
                "velocity": 40,
                "duration": 0.1,
                "tempo": 120.0
            },
            {
                "pitch": 41,
                "velocity": 40,
                "duration": 0.1023,
                "tempo": 120.0
            },
            {
                "pitch": 46,
                "velocity": 40,
                "duration": 0.1,
                "tempo": 120.0
            },
            {
                "pitch": 53,
                "velocity": 40,
                "duration": 0.1023,
                "tempo": 120.0
            },
            {
                "pitch": 58,
                "velocity": 40,
                "duration": 0.1023,
                "tempo": 120.0
            },
            {
                "pitch": 65,
                "velocity": 40,
                "duration": 0.1,
                "tempo": 120.0
            },
            {
                "pitch": 70,
                "velocity": 40,
                "duration": 0.1,
                "tempo": 120.0
            },
            {
                "pitch": 44,
                "velocity": 40,
                "duration": 0.1,
                "tempo": 120.0
            },
            {
                "pitch": 49,
                "velocity": 40,
                "duration": 0.1,
                "tempo": 120.0
            },
            {
                "pitch": 56,
                "velocity": 40,
                "duration": 0.1,
                "tempo": 120.0
            },
            {
                "pitch": 61,
                "velocity": 40,
                "duration": 0.1,
                "tempo": 120.0
            },
            {
                "pitch": 68,
                "velocity": 40,
                "duration": 0.1,
                "tempo": 120.0
            },
            {
                "pitch": 73,
                "velocity": 40,
                "duration": 0.1,
                "tempo": 120.0
            },
            {
                "pitch": 43,
                "velocity": 40,
                "duration": 0.1023,
                "tempo": 120.0
            },
            {
                "pitch": 48,
                "velocity": 40,
                "duration": 0.1023,
                "tempo": 120.0
            },
            {
                "pitch": 55,
                "velocity": 40,
                "duration": 0.1023,
                "tempo": 120.0
            },
            {
                "pitch": 60,
                "velocity": 40,
                "duration": 0.1023,
                "tempo": 120.0
            },
            {
                "pitch": 67,
                "velocity": 40,
                "duration": 0.1,
                "tempo": 120.0
            },
            {
                "pitch": 72,
                "velocity": 40,
                "duration": 0.1,
                "tempo": 120.0
            },
            {
                "pitch": 42,
                "velocity": 40,
                "duration": 0.1,
                "tempo": 120.0
            },
            {
                "pitch": 46,
                "velocity": 40,
                "duration": 0.1,
                "tempo": 120.0
            },
            {
                "pitch": 54,
                "velocity": 40,
                "duration": 0.1,
                "tempo": 120.0
            },
            {
                "pitch": 58,
                "velocity": 40,
                "duration": 0.1,
                "tempo": 120.0
            },
            {
                "pitch": 66,
                "velocity": 40,
                "duration": 0.1023,
                "tempo": 120.0
            },
            {
                "pitch": 70,
                "velocity": 40,
                "duration": 0.1,
                "tempo": 120.0
            },
            {
                "pitch": 41,
                "velocity": 40,
                "duration": 0.1023,
                "tempo": 120.0
            },
            {
                "pitch": 45,
                "velocity": 40,
                "duration": 0.1023,
                "tempo": 120.0
            },
            {
                "pitch": 53,
                "velocity": 40,
                "duration": 0.1,
                "tempo": 120.0
            },
            {
                "pitch": 57,
                "velocity": 40,
                "duration": 0.1023,
                "tempo": 120.0
            },
            {
                "pitch": 65,
                "velocity": 40,
                "duration": 0.1,
                "tempo": 120.0
            },
            {
                "pitch": 69,
                "velocity": 40,
                "duration": 0.1,
                "tempo": 120.0
            },
            {
                "pitch": 38,
                "velocity": 40,
                "duration": 0.1,
                "tempo": 120.0
            },
            {
                "pitch": 41,
                "velocity": 40,
                "duration": 0.1,
                "tempo": 120.0
            },
            {
                "pitch": 50,
                "velocity": 40,
                "duration": 0.1023,
                "tempo": 120.0
            },
            {
                "pitch": 53,
                "velocity": 40,
                "duration": 0.1023,
                "tempo": 120.0
            },
            {
                "pitch": 62,
                "velocity": 40,
                "duration": 0.1023,
                "tempo": 120.0
            },
            {
                "pitch": 65,
                "velocity": 40,
                "duration": 0.1023,
                "tempo": 120.0
            },
            {
                "pitch": 41,
                "velocity": 40,
                "duration": 0.1,
                "tempo": 120.0
            },
            {
                "pitch": 46,
                "velocity": 40,
                "duration": 0.1,
                "tempo": 120.0
            },
            {
                "pitch": 53,
                "velocity": 40,
                "duration": 0.1,
                "tempo": 120.0
            },
            {
                "pitch": 58,
                "velocity": 40,
                "duration": 0.1,
                "tempo": 120.0
            },
            {
                "pitch": 65,
                "velocity": 40,
                "duration": 0.1,
                "tempo": 120.0
            },
            {
                "pitch": 70,
                "velocity": 40,
                "duration": 0.1,
                "tempo": 120.0
            },
            {
                "pitch": 43,
                "velocity": 40,
                "duration": 0.1,
                "tempo": 120.0
            },
            {
                "pitch": 48,
                "velocity": 40,
                "duration": 0.1,
                "tempo": 120.0
            },
            {
                "pitch": 55,
                "velocity": 40,
                "duration": 0.1023,
                "tempo": 120.0
            },
            {
                "pitch": 60,
                "velocity": 40,
                "duration": 0.1023,
                "tempo": 120.0
            },
            {
                "pitch": 67,
                "velocity": 40,
                "duration": 0.1023,
                "tempo": 120.0
            },
            {
                "pitch": 72,
                "velocity": 40,
                "duration": 0.1023,
                "tempo": 120.0
            },
            {
                "pitch": 41,
                "velocity": 40,
                "duration": 0.1,
                "tempo": 120.0
            },
            {
                "pitch": 45,
                "velocity": 40,
                "duration": 0.1,
                "tempo": 120.0
            },
            {
                "pitch": 53,
                "velocity": 40,
                "duration": 0.1,
                "tempo": 120.0
            },
            {
                "pitch": 57,
                "velocity": 40,
                "duration": 0.1,
                "tempo": 120.0
            },
            {
                "pitch": 65,
                "velocity": 40,
                "duration": 0.1,
                "tempo": 120.0
            },
            {
                "pitch": 69,
                "velocity": 40,
                "duration": 0.1,
                "tempo": 120.0
            },
            {
                "pitch": 38,
                "velocity": 40,
                "duration": 0.1,
                "tempo": 120.0
            },
            {
                "pitch": 41,
                "velocity": 40,
                "duration": 0.1,
                "tempo": 120.0
            },
            {
                "pitch": 50,
                "velocity": 40,
                "duration": 0.1,
                "tempo": 120.0
            },
            {
                "pitch": 53,
                "velocity": 40,
                "duration": 0.1023,
                "tempo": 120.0
            },
            {
                "pitch": 62,
                "velocity": 40,
                "duration": 0.1023,
                "tempo": 120.0
            },
            {
                "pitch": 65,
                "velocity": 40,
                "duration": 0.1023,
                "tempo": 120.0
            },
            {
                "pitch": 42,
                "velocity": 40,
                "duration": 0.1,
                "tempo": 120.0
            },
            {
                "pitch": 46,
                "velocity": 40,
                "duration": 0.1,
                "tempo": 120.0
            },
            {
                "pitch": 54,
                "velocity": 40,
                "duration": 0.1,
                "tempo": 120.0
            },
            {
                "pitch": 58,
                "velocity": 40,
                "duration": 0.1,
                "tempo": 120.0
            },
            {
                "pitch": 66,
                "velocity": 40,
                "duration": 0.1,
                "tempo": 120.0
            },
            {
                "pitch": 70,
                "velocity": 40,
                "duration": 0.1,
                "tempo": 120.0
            },
            {
                "pitch": 43,
                "velocity": 40,
                "duration": 0.1,
                "tempo": 120.0
            },
            {
                "pitch": 46,
                "velocity": 40,
                "duration": 0.1023,
                "tempo": 120.0
            },
            {
                "pitch": 55,
                "velocity": 40,
                "duration": 0.1,
                "tempo": 120.0
            },
            {
                "pitch": 58,
                "velocity": 40,
                "duration": 0.1,
                "tempo": 120.0
            },
            {
                "pitch": 67,
                "velocity": 40,
                "duration": 0.1,
                "tempo": 120.0
            },
            {
                "pitch": 70,
                "velocity": 40,
                "duration": 0.1,
                "tempo": 120.0
            },
            {
                "pitch": 41,
                "velocity": 40,
                "duration": 0.1023,
                "tempo": 120.0
            },
            {
                "pitch": 46,
                "velocity": 40,
                "duration": 0.1023,
                "tempo": 120.0
            },
            {
                "pitch": 53,
                "velocity": 40,
                "duration": 0.1023,
                "tempo": 120.0
            },
            {
                "pitch": 58,
                "velocity": 40,
                "duration": 0.1023,
                "tempo": 120.0
            },
            {
                "pitch": 65,
                "velocity": 40,
                "duration": 0.1,
                "tempo": 120.0
            },
            {
                "pitch": 70,
                "velocity": 40,
                "duration": 0.1,
                "tempo": 120.0
            },
            {
                "pitch": 43,
                "velocity": 40,
                "duration": 0.1,
                "tempo": 120.0
            },
            {
                "pitch": 46,
                "velocity": 40,
                "duration": 0.1,
                "tempo": 120.0
            },
            {
                "pitch": 55,
                "velocity": 40,
                "duration": 0.1,
                "tempo": 120.0
            },
            {
                "pitch": 58,
                "velocity": 40,
                "duration": 0.1,
                "tempo": 120.0
            },
            {
                "pitch": 67,
                "velocity": 40,
                "duration": 0.1,
                "tempo": 120.0
            },
            {
                "pitch": 70,
                "velocity": 40,
                "duration": 0.1,
                "tempo": 120.0
            },
            {
                "pitch": 41,
                "velocity": 40,
                "duration": 0.1023,
                "tempo": 120.0
            },
            {
                "pitch": 46,
                "velocity": 40,
                "duration": 0.1023,
                "tempo": 120.0
            },
            {
                "pitch": 53,
                "velocity": 40,
                "duration": 0.1,
                "tempo": 120.0
            },
            {
                "pitch": 58,
                "velocity": 40,
                "duration": 0.1023,
                "tempo": 120.0
            },
            {
                "pitch": 65,
                "velocity": 40,
                "duration": 0.1,
                "tempo": 120.0
            },
            {
                "pitch": 70,
                "velocity": 40,
                "duration": 0.1,
                "tempo": 120.0
            },
            {
                "pitch": 43,
                "velocity": 40,
                "duration": 0.1,
                "tempo": 120.0
            },
            {
                "pitch": 46,
                "velocity": 40,
                "duration": 0.1,
                "tempo": 120.0
            },
            {
                "pitch": 55,
                "velocity": 40,
                "duration": 0.1023,
                "tempo": 120.0
            },
            {
                "pitch": 58,
                "velocity": 40,
                "duration": 0.1,
                "tempo": 120.0
            },
            {
                "pitch": 67,
                "velocity": 40,
                "duration": 0.1,
                "tempo": 120.0
            },
            {
                "pitch": 70,
                "velocity": 40,
                "duration": 0.1,
                "tempo": 120.0
            },
            {
                "pitch": 41,
                "velocity": 40,
                "duration": 0.1,
                "tempo": 120.0
            },
            {
                "pitch": 46,
                "velocity": 40,
                "duration": 0.1023,
                "tempo": 120.0
            },
            {
                "pitch": 53,
                "velocity": 40,
                "duration": 0.1023,
                "tempo": 120.0
            },
            {
                "pitch": 58,
                "velocity": 40,
                "duration": 0.1023,
                "tempo": 120.0
            },
            {
                "pitch": 65,
                "velocity": 40,
                "duration": 0.1,
                "tempo": 120.0
            },
            {
                "pitch": 70,
                "velocity": 40,
                "duration": 0.1,
                "tempo": 120.0
            },
            {
                "pitch": 44,
                "velocity": 40,
                "duration": 0.1023,
                "tempo": 120.0
            },
            {
                "pitch": 49,
                "velocity": 40,
                "duration": 0.1,
                "tempo": 120.0
            },
            {
                "pitch": 56,
                "velocity": 40,
                "duration": 0.1,
                "tempo": 120.0
            },
            {
                "pitch": 61,
                "velocity": 40,
                "duration": 0.1,
                "tempo": 120.0
            },
            {
                "pitch": 68,
                "velocity": 40,
                "duration": 0.1,
                "tempo": 120.0
            },
            {
                "pitch": 73,
                "velocity": 40,
                "duration": 0.1,
                "tempo": 120.0
            },
            {
                "pitch": 43,
                "velocity": 40,
                "duration": 0.1023,
                "tempo": 120.0
            },
            {
                "pitch": 48,
                "velocity": 40,
                "duration": 0.1023,
                "tempo": 120.0
            },
            {
                "pitch": 55,
                "velocity": 40,
                "duration": 0.1023,
                "tempo": 120.0
            },
            {
                "pitch": 60,
                "velocity": 40,
                "duration": 0.1,
                "tempo": 120.0
            },
            {
                "pitch": 67,
                "velocity": 40,
                "duration": 0.1023,
                "tempo": 120.0
            },
            {
                "pitch": 72,
                "velocity": 40,
                "duration": 0.1,
                "tempo": 120.0
            },
            {
                "pitch": 42,
                "velocity": 40,
                "duration": 0.1,
                "tempo": 120.0
            },
            {
                "pitch": 46,
                "velocity": 40,
                "duration": 0.1,
                "tempo": 120.0
            },
            {
                "pitch": 54,
                "velocity": 40,
                "duration": 0.1,
                "tempo": 120.0
            },
            {
                "pitch": 58,
                "velocity": 40,
                "duration": 0.1,
                "tempo": 120.0
            },
            {
                "pitch": 66,
                "velocity": 40,
                "duration": 0.1,
                "tempo": 120.0
            },
            {
                "pitch": 70,
                "velocity": 40,
                "duration": 0.1,
                "tempo": 120.0
            },
            {
                "pitch": 41,
                "velocity": 40,
                "duration": 0.1023,
                "tempo": 120.0
            },
            {
                "pitch": 45,
                "velocity": 40,
                "duration": 0.1023,
                "tempo": 120.0
            },
            {
                "pitch": 53,
                "velocity": 40,
                "duration": 0.1023,
                "tempo": 120.0
            },
            {
                "pitch": 57,
                "velocity": 40,
                "duration": 0.1023,
                "tempo": 120.0
            },
            {
                "pitch": 65,
                "velocity": 40,
                "duration": 0.1,
                "tempo": 120.0
            },
            {
                "pitch": 69,
                "velocity": 40,
                "duration": 0.1,
                "tempo": 120.0
            },
            {
                "pitch": 38,
                "velocity": 40,
                "duration": 0.1,
                "tempo": 120.0
            },
            {
                "pitch": 41,
                "velocity": 40,
                "duration": 0.1023,
                "tempo": 120.0
            },
            {
                "pitch": 50,
                "velocity": 40,
                "duration": 0.1023,
                "tempo": 120.0
            },
            {
                "pitch": 53,
                "velocity": 40,
                "duration": 0.1023,
                "tempo": 120.0
            },
            {
                "pitch": 62,
                "velocity": 40,
                "duration": 0.1023,
                "tempo": 120.0
            },
            {
                "pitch": 65,
                "velocity": 40,
                "duration": 0.1023,
                "tempo": 120.0
            },
            {
                "pitch": 41,
                "velocity": 40,
                "duration": 0.1023,
                "tempo": 120.0
            },
            {
                "pitch": 46,
                "velocity": 40,
                "duration": 0.1,
                "tempo": 120.0
            },
            {
                "pitch": 53,
                "velocity": 40,
                "duration": 0.1,
                "tempo": 120.0
            },
            {
                "pitch": 58,
                "velocity": 40,
                "duration": 0.1,
                "tempo": 120.0
            },
            {
                "pitch": 65,
                "velocity": 40,
                "duration": 0.1,
                "tempo": 120.0
            },
            {
                "pitch": 70,
                "velocity": 40,
                "duration": 0.1023,
                "tempo": 120.0
            },
            {
                "pitch": 43,
                "velocity": 40,
                "duration": 0.1,
                "tempo": 120.0
            },
            {
                "pitch": 48,
                "velocity": 40,
                "duration": 0.1,
                "tempo": 120.0
            },
            {
                "pitch": 55,
                "velocity": 40,
                "duration": 0.1,
                "tempo": 120.0
            },
            {
                "pitch": 60,
                "velocity": 40,
                "duration": 0.1,
                "tempo": 120.0
            },
            {
                "pitch": 67,
                "velocity": 40,
                "duration": 0.1,
                "tempo": 120.0
            },
            {
                "pitch": 72,
                "velocity": 40,
                "duration": 0.1,
                "tempo": 120.0
            },
            {
                "pitch": 41,
                "velocity": 40,
                "duration": 0.1023,
                "tempo": 120.0
            },
            {
                "pitch": 45,
                "velocity": 40,
                "duration": 0.1023,
                "tempo": 120.0
            },
            {
                "pitch": 53,
                "velocity": 40,
                "duration": 0.1,
                "tempo": 120.0
            },
            {
                "pitch": 57,
                "velocity": 40,
                "duration": 0.1023,
                "tempo": 120.0
            },
            {
                "pitch": 65,
                "velocity": 40,
                "duration": 0.1,
                "tempo": 120.0
            },
            {
                "pitch": 69,
                "velocity": 40,
                "duration": 0.1,
                "tempo": 120.0
            },
            {
                "pitch": 38,
                "velocity": 40,
                "duration": 0.1,
                "tempo": 120.0
            },
            {
                "pitch": 41,
                "velocity": 40,
                "duration": 0.1,
                "tempo": 120.0
            },
            {
                "pitch": 50,
                "velocity": 40,
                "duration": 0.1,
                "tempo": 120.0
            },
            {
                "pitch": 53,
                "velocity": 40,
                "duration": 0.1,
                "tempo": 120.0
            },
            {
                "pitch": 62,
                "velocity": 40,
                "duration": 0.1,
                "tempo": 120.0
            },
            {
                "pitch": 65,
                "velocity": 40,
                "duration": 0.1,
                "tempo": 120.0
            },
            {
                "pitch": 42,
                "velocity": 40,
                "duration": 0.1,
                "tempo": 120.0
            },
            {
                "pitch": 46,
                "velocity": 40,
                "duration": 0.1023,
                "tempo": 120.0
            },
            {
                "pitch": 54,
                "velocity": 40,
                "duration": 0.1023,
                "tempo": 120.0
            },
            {
                "pitch": 58,
                "velocity": 40,
                "duration": 0.1023,
                "tempo": 120.0
            },
            {
                "pitch": 66,
                "velocity": 40,
                "duration": 0.1,
                "tempo": 120.0
            },
            {
                "pitch": 70,
                "velocity": 40,
                "duration": 0.1,
                "tempo": 120.0
            },
            {
                "pitch": 43,
                "velocity": 40,
                "duration": 0.1023,
                "tempo": 120.0
            },
            {
                "pitch": 46,
                "velocity": 40,
                "duration": 0.1,
                "tempo": 120.0
            },
            {
                "pitch": 55,
                "velocity": 40,
                "duration": 0.1,
                "tempo": 120.0
            },
            {
                "pitch": 58,
                "velocity": 40,
                "duration": 0.1,
                "tempo": 120.0
            },
            {
                "pitch": 67,
                "velocity": 40,
                "duration": 0.1,
                "tempo": 120.0
            },
            {
                "pitch": 70,
                "velocity": 40,
                "duration": 0.1,
                "tempo": 120.0
            },
            {
                "pitch": 41,
                "velocity": 40,
                "duration": 0.1023,
                "tempo": 120.0
            }
        ],
        "Church Organ": [
            {
                "pitch": 74,
                "velocity": 51,
                "duration": 0.6341,
                "tempo": 120.0
            },
            {
                "pitch": 74,
                "velocity": 51,
                "duration": 0.1455,
                "tempo": 120.0
            },
            {
                "pitch": 70,
                "velocity": 51,
                "duration": 0.2045,
                "tempo": 120.0
            },
            {
                "pitch": 72,
                "velocity": 51,
                "duration": 0.2,
                "tempo": 120.0
            },
            {
                "pitch": 74,
                "velocity": 51,
                "duration": 0.6341,
                "tempo": 120.0
            },
            {
                "pitch": 74,
                "velocity": 51,
                "duration": 0.2045,
                "tempo": 120.0
            },
            {
                "pitch": 70,
                "velocity": 51,
                "duration": 0.2045,
                "tempo": 120.0
            },
            {
                "pitch": 72,
                "velocity": 51,
                "duration": 0.2023,
                "tempo": 120.0
            },
            {
                "pitch": 74,
                "velocity": 51,
                "duration": 0.6341,
                "tempo": 120.0
            },
            {
                "pitch": 74,
                "velocity": 51,
                "duration": 0.2023,
                "tempo": 120.0
            },
            {
                "pitch": 70,
                "velocity": 51,
                "duration": 0.2045,
                "tempo": 120.0
            },
            {
                "pitch": 72,
                "velocity": 51,
                "duration": 0.2,
                "tempo": 120.0
            },
            {
                "pitch": 73,
                "velocity": 51,
                "duration": 0.6341,
                "tempo": 120.0
            },
            {
                "pitch": 72,
                "velocity": 51,
                "duration": 0.6455,
                "tempo": 120.0
            },
            {
                "pitch": 70,
                "velocity": 51,
                "duration": 0.6364,
                "tempo": 120.0
            },
            {
                "pitch": 69,
                "velocity": 51,
                "duration": 0.2045,
                "tempo": 120.0
            },
            {
                "pitch": 67,
                "velocity": 51,
                "duration": 0.2023,
                "tempo": 120.0
            },
            {
                "pitch": 69,
                "velocity": 51,
                "duration": 0.2023,
                "tempo": 120.0
            },
            {
                "pitch": 70,
                "velocity": 51,
                "duration": 0.4205,
                "tempo": 120.0
            },
            {
                "pitch": 65,
                "velocity": 51,
                "duration": 0.2045,
                "tempo": 120.0
            },
            {
                "pitch": 68,
                "velocity": 51,
                "duration": 0.6341,
                "tempo": 120.0
            },
            {
                "pitch": 67,
                "velocity": 51,
                "duration": 0.6409,
                "tempo": 120.0
            },
            {
                "pitch": 63,
                "velocity": 51,
                "duration": 0.2023,
                "tempo": 120.0
            },
            {
                "pitch": 62,
                "velocity": 51,
                "duration": 0.2,
                "tempo": 120.0
            },
            {
                "pitch": 63,
                "velocity": 51,
                "duration": 0.2,
                "tempo": 120.0
            },
            {
                "pitch": 65,
                "velocity": 51,
                "duration": 1.2795,
                "tempo": 120.0
            },
            {
                "pitch": 74,
                "velocity": 51,
                "duration": 0.6341,
                "tempo": 120.0
            },
            {
                "pitch": 74,
                "velocity": 51,
                "duration": 0.2045,
                "tempo": 120.0
            },
            {
                "pitch": 70,
                "velocity": 51,
                "duration": 0.2045,
                "tempo": 120.0
            },
            {
                "pitch": 72,
                "velocity": 51,
                "duration": 0.2,
                "tempo": 120.0
            },
            {
                "pitch": 74,
                "velocity": 51,
                "duration": 0.6341,
                "tempo": 120.0
            },
            {
                "pitch": 74,
                "velocity": 51,
                "duration": 0.2045,
                "tempo": 120.0
            },
            {
                "pitch": 70,
                "velocity": 51,
                "duration": 0.2023,
                "tempo": 120.0
            },
            {
                "pitch": 72,
                "velocity": 51,
                "duration": 0.2,
                "tempo": 120.0
            },
            {
                "pitch": 74,
                "velocity": 51,
                "duration": 0.6341,
                "tempo": 120.0
            },
            {
                "pitch": 74,
                "velocity": 51,
                "duration": 0.2023,
                "tempo": 120.0
            },
            {
                "pitch": 70,
                "velocity": 51,
                "duration": 0.2045,
                "tempo": 120.0
            },
            {
                "pitch": 72,
                "velocity": 51,
                "duration": 0.2,
                "tempo": 120.0
            },
            {
                "pitch": 73,
                "velocity": 51,
                "duration": 0.6364,
                "tempo": 120.0
            },
            {
                "pitch": 75,
                "velocity": 51,
                "duration": 0.6455,
                "tempo": 120.0
            },
            {
                "pitch": 77,
                "velocity": 51,
                "duration": 0.6341,
                "tempo": 120.0
            },
            {
                "pitch": 75,
                "velocity": 51,
                "duration": 0.6432,
                "tempo": 120.0
            },
            {
                "pitch": 74,
                "velocity": 51,
                "duration": 0.2,
                "tempo": 120.0
            },
            {
                "pitch": 70,
                "velocity": 51,
                "duration": 0.8614,
                "tempo": 120.0
            },
            {
                "pitch": 70,
                "velocity": 51,
                "duration": 0.2,
                "tempo": 120.0
            },
            {
                "pitch": 69,
                "velocity": 51,
                "duration": 0.2,
                "tempo": 120.0
            },
            {
                "pitch": 67,
                "velocity": 51,
                "duration": 0.2023,
                "tempo": 120.0
            },
            {
                "pitch": 69,
                "velocity": 51,
                "duration": 0.2045,
                "tempo": 120.0
            },
            {
                "pitch": 70,
                "velocity": 51,
                "duration": 0.2023,
                "tempo": 120.0
            },
            {
                "pitch": 72,
                "velocity": 51,
                "duration": 0.2,
                "tempo": 120.0
            },
            {
                "pitch": 70,
                "velocity": 51,
                "duration": 0.8523,
                "tempo": 120.0
            },
            {
                "pitch": 65,
                "velocity": 51,
                "duration": 0.2,
                "tempo": 120.0
            },
            {
                "pitch": 74,
                "velocity": 51,
                "duration": 0.6364,
                "tempo": 120.0
            },
            {
                "pitch": 74,
                "velocity": 51,
                "duration": 0.1455,
                "tempo": 120.0
            }
        ]
    }
}