{
    "track_id": "Space Harrier 3-D (FM) - 01 - Main BGM",
    "mood": "relaxed",
    "instruments": {
        "Violin": [
            {
                "pitch": 64,
                "velocity": 127,
                "duration": 1.1864,
                "tempo": 120.0
            },
            {
                "pitch": 64,
                "velocity": 127,
                "duration": 0.1659,
                "tempo": 120.0
            },
            {
                "pitch": 65,
                "velocity": 127,
                "duration": 1.7682,
                "tempo": 120.0
            },
            {
                "pitch": 65,
                "velocity": 127,
                "duration": 0.9682,
                "tempo": 120.0
            },
            {
                "pitch": 65,
                "velocity": 127,
                "duration": 0.1659,
                "tempo": 120.0
            },
            {
                "pitch": 64,
                "velocity": 127,
                "duration": 1.775,
                "tempo": 120.0
            },
            {
                "pitch": 64,
                "velocity": 127,
                "duration": 1.1705,
                "tempo": 120.0
            },
            {
                "pitch": 64,
                "velocity": 127,
                "duration": 0.1705,
                "tempo": 120.0
            },
            {
                "pitch": 65,
                "velocity": 127,
                "duration": 1.7705,
                "tempo": 120.0
            },
            {
                "pitch": 65,
                "velocity": 127,
                "duration": 0.975,
                "tempo": 120.0
            },
            {
                "pitch": 65,
                "velocity": 127,
                "duration": 0.1682,
                "tempo": 120.0
            },
            {
                "pitch": 64,
                "velocity": 127,
                "duration": 1.7773,
                "tempo": 120.0
            },
            {
                "pitch": 76,
                "velocity": 127,
                "duration": 1.1705,
                "tempo": 120.0
            },
            {
                "pitch": 76,
                "velocity": 127,
                "duration": 0.1705,
                "tempo": 120.0
            },
            {
                "pitch": 77,
                "velocity": 127,
                "duration": 1.7773,
                "tempo": 120.0
            },
            {
                "pitch": 77,
                "velocity": 127,
                "duration": 0.9659,
                "tempo": 120.0
            },
            {
                "pitch": 77,
                "velocity": 127,
                "duration": 0.1636,
                "tempo": 120.0
            },
            {
                "pitch": 76,
                "velocity": 127,
                "duration": 1.7773,
                "tempo": 120.0
            },
            {
                "pitch": 76,
                "velocity": 127,
                "duration": 1.1614,
                "tempo": 120.0
            },
            {
                "pitch": 76,
                "velocity": 127,
                "duration": 0.1659,
                "tempo": 120.0
            },
            {
                "pitch": 77,
                "velocity": 127,
                "duration": 1.7727,
                "tempo": 120.0
            },
            {
                "pitch": 77,
                "velocity": 127,
                "duration": 0.1705,
                "tempo": 120.0
            },
            {
                "pitch": 77,
                "velocity": 127,
                "duration": 0.1705,
                "tempo": 120.0
            },
            {
                "pitch": 77,
                "velocity": 127,
                "duration": 0.1636,
                "tempo": 120.0
            },
            {
                "pitch": 77,
                "velocity": 127,
                "duration": 0.1659,
                "tempo": 120.0
            },
            {
                "pitch": 76,
                "velocity": 127,
                "duration": 0.1659,
                "tempo": 120.0
            }
        ],
        "Church Organ": [
            {
                "pitch": 64,
                "velocity": 101,
                "duration": 0.1682,
                "tempo": 120.0
            },
            {
                "pitch": 64,
                "velocity": 101,
                "duration": 1.5682,
                "tempo": 120.0
            },
            {
                "pitch": 55,
                "velocity": 101,
                "duration": 0.3773,
                "tempo": 120.0
            },
            {
                "pitch": 57,
                "velocity": 101,
                "duration": 0.3591,
                "tempo": 120.0
            },
            {
                "pitch": 65,
                "velocity": 101,
                "duration": 0.5682,
                "tempo": 120.0
            },
            {
                "pitch": 64,
                "velocity": 101,
                "duration": 0.1659,
                "tempo": 120.0
            },
            {
                "pitch": 64,
                "velocity": 101,
                "duration": 1.9818,
                "tempo": 120.0
            },
            {
                "pitch": 65,
                "velocity": 101,
                "duration": 0.5705,
                "tempo": 120.0
            },
            {
                "pitch": 64,
                "velocity": 101,
                "duration": 0.1659,
                "tempo": 120.0
            },
            {
                "pitch": 64,
                "velocity": 101,
                "duration": 1.5705,
                "tempo": 120.0
            },
            {
                "pitch": 62,
                "velocity": 101,
                "duration": 0.3705,
                "tempo": 120.0
            },
            {
                "pitch": 64,
                "velocity": 101,
                "duration": 0.3773,
                "tempo": 120.0
            },
            {
                "pitch": 65,
                "velocity": 101,
                "duration": 1.5614,
                "tempo": 120.0
            },
            {
                "pitch": 68,
                "velocity": 101,
                "duration": 0.5659,
                "tempo": 120.0
            },
            {
                "pitch": 67,
                "velocity": 101,
                "duration": 0.5659,
                "tempo": 120.0
            },
            {
                "pitch": 65,
                "velocity": 101,
                "duration": 0.3659,
                "tempo": 120.0
            },
            {
                "pitch": 65,
                "velocity": 101,
                "duration": 0.5682,
                "tempo": 120.0
            },
            {
                "pitch": 64,
                "velocity": 101,
                "duration": 0.1659,
                "tempo": 120.0
            },
            {
                "pitch": 64,
                "velocity": 101,
                "duration": 1.5795,
                "tempo": 120.0
            },
            {
                "pitch": 55,
                "velocity": 101,
                "duration": 0.3682,
                "tempo": 120.0
            },
            {
                "pitch": 57,
                "velocity": 101,
                "duration": 0.3591,
                "tempo": 120.0
            },
            {
                "pitch": 65,
                "velocity": 101,
                "duration": 0.5659,
                "tempo": 120.0
            },
            {
                "pitch": 64,
                "velocity": 101,
                "duration": 0.1659,
                "tempo": 120.0
            },
            {
                "pitch": 64,
                "velocity": 101,
                "duration": 1.9795,
                "tempo": 120.0
            },
            {
                "pitch": 65,
                "velocity": 101,
                "duration": 0.5682,
                "tempo": 120.0
            },
            {
                "pitch": 64,
                "velocity": 101,
                "duration": 0.1682,
                "tempo": 120.0
            },
            {
                "pitch": 64,
                "velocity": 101,
                "duration": 1.5705,
                "tempo": 120.0
            },
            {
                "pitch": 62,
                "velocity": 101,
                "duration": 0.3659,
                "tempo": 120.0
            },
            {
                "pitch": 64,
                "velocity": 101,
                "duration": 0.3773,
                "tempo": 120.0
            },
            {
                "pitch": 65,
                "velocity": 101,
                "duration": 1.5614,
                "tempo": 120.0
            },
            {
                "pitch": 68,
                "velocity": 101,
                "duration": 0.5659,
                "tempo": 120.0
            },
            {
                "pitch": 67,
                "velocity": 101,
                "duration": 0.5705,
                "tempo": 120.0
            },
            {
                "pitch": 65,
                "velocity": 101,
                "duration": 0.3682,
                "tempo": 120.0
            },
            {
                "pitch": 64,
                "velocity": 101,
                "duration": 1.9705,
                "tempo": 120.0
            },
            {
                "pitch": 52,
                "velocity": 101,
                "duration": 0.375,
                "tempo": 120.0
            },
            {
                "pitch": 55,
                "velocity": 101,
                "duration": 0.3591,
                "tempo": 120.0
            },
            {
                "pitch": 62,
                "velocity": 101,
                "duration": 0.3773,
                "tempo": 120.0
            },
            {
                "pitch": 61,
                "velocity": 101,
                "duration": 1.1591,
                "tempo": 120.0
            },
            {
                "pitch": 58,
                "velocity": 101,
                "duration": 0.3659,
                "tempo": 120.0
            },
            {
                "pitch": 57,
                "velocity": 101,
                "duration": 1.0364,
                "tempo": 120.0
            },
            {
                "pitch": 55,
                "velocity": 101,
                "duration": 0.2341,
                "tempo": 120.0
            },
            {
                "pitch": 53,
                "velocity": 101,
                "duration": 0.2318,
                "tempo": 120.0
            },
            {
                "pitch": 52,
                "velocity": 101,
                "duration": 0.3773,
                "tempo": 120.0
            },
            {
                "pitch": 53,
                "velocity": 101,
                "duration": 0.1636,
                "tempo": 120.0
            },
            {
                "pitch": 50,
                "velocity": 101,
                "duration": 1.5659,
                "tempo": 120.0
            },
            {
                "pitch": 50,
                "velocity": 101,
                "duration": 0.1682,
                "tempo": 120.0
            },
            {
                "pitch": 52,
                "velocity": 101,
                "duration": 0.1682,
                "tempo": 120.0
            },
            {
                "pitch": 53,
                "velocity": 101,
                "duration": 0.3682,
                "tempo": 120.0
            },
            {
                "pitch": 55,
                "velocity": 101,
                "duration": 0.1682,
                "tempo": 120.0
            },
            {
                "pitch": 57,
                "velocity": 101,
                "duration": 1.1659,
                "tempo": 120.0
            },
            {
                "pitch": 56,
                "velocity": 101,
                "duration": 0.3773,
                "tempo": 120.0
            },
            {
                "pitch": 65,
                "velocity": 101,
                "duration": 0.7591,
                "tempo": 120.0
            },
            {
                "pitch": 62,
                "velocity": 101,
                "duration": 0.7773,
                "tempo": 120.0
            },
            {
                "pitch": 64,
                "velocity": 101,
                "duration": 1.9659,
                "tempo": 120.0
            },
            {
                "pitch": 52,
                "velocity": 101,
                "duration": 0.3682,
                "tempo": 120.0
            },
            {
                "pitch": 55,
                "velocity": 101,
                "duration": 0.3659,
                "tempo": 120.0
            },
            {
                "pitch": 62,
                "velocity": 101,
                "duration": 0.3682,
                "tempo": 120.0
            },
            {
                "pitch": 61,
                "velocity": 101,
                "duration": 1.7727,
                "tempo": 120.0
            },
            {
                "pitch": 64,
                "velocity": 101,
                "duration": 0.1682,
                "tempo": 120.0
            },
            {
                "pitch": 61,
                "velocity": 101,
                "duration": 0.1659,
                "tempo": 120.0
            },
            {
                "pitch": 58,
                "velocity": 101,
                "duration": 0.1682,
                "tempo": 120.0
            },
            {
                "pitch": 57,
                "velocity": 101,
                "duration": 0.1659,
                "tempo": 120.0
            },
            {
                "pitch": 55,
                "velocity": 101,
                "duration": 0.1659,
                "tempo": 120.0
            },
            {
                "pitch": 53,
                "velocity": 101,
                "duration": 0.1705,
                "tempo": 120.0
            },
            {
                "pitch": 52,
                "velocity": 101,
                "duration": 0.1727,
                "tempo": 120.0
            },
            {
                "pitch": 50,
                "velocity": 101,
                "duration": 1.1636,
                "tempo": 120.0
            },
            {
                "pitch": 52,
                "velocity": 101,
                "duration": 0.375,
                "tempo": 120.0
            },
            {
                "pitch": 53,
                "velocity": 101,
                "duration": 0.2273,
                "tempo": 120.0
            },
            {
                "pitch": 52,
                "velocity": 101,
                "duration": 0.2295,
                "tempo": 120.0
            },
            {
                "pitch": 53,
                "velocity": 101,
                "duration": 0.2341,
                "tempo": 120.0
            },
            {
                "pitch": 55,
                "velocity": 101,
                "duration": 0.2341,
                "tempo": 120.0
            },
            {
                "pitch": 53,
                "velocity": 101,
                "duration": 0.2341,
                "tempo": 120.0
            },
            {
                "pitch": 55,
                "velocity": 101,
                "duration": 0.2341,
                "tempo": 120.0
            },
            {
                "pitch": 57,
                "velocity": 101,
                "duration": 1.1682,
                "tempo": 120.0
            },
            {
                "pitch": 55,
                "velocity": 101,
                "duration": 0.1682,
                "tempo": 120.0
            },
            {
                "pitch": 67,
                "velocity": 101,
                "duration": 0.9705,
                "tempo": 120.0
            },
            {
                "pitch": 69,
                "velocity": 101,
                "duration": 0.0818,
                "tempo": 120.0
            },
            {
                "pitch": 70,
                "velocity": 101,
                "duration": 0.0841,
                "tempo": 120.0
            },
            {
                "pitch": 71,
                "velocity": 101,
                "duration": 0.0841,
                "tempo": 120.0
            },
            {
                "pitch": 72,
                "velocity": 101,
                "duration": 0.0841,
                "tempo": 120.0
            },
            {
                "pitch": 73,
                "velocity": 101,
                "duration": 0.0818,
                "tempo": 120.0
            },
            {
                "pitch": 74,
                "velocity": 101,
                "duration": 0.0841,
                "tempo": 120.0
            },
            {
                "pitch": 75,
                "velocity": 101,
                "duration": 0.0818,
                "tempo": 120.0
            },
            {
                "pitch": 76,
                "velocity": 101,
                "duration": 0.0841,
                "tempo": 120.0
            }
        ],
        "Trumpet": [
            {
                "pitch": 81,
                "velocity": 40,
                "duration": 0.2182,
                "tempo": 120.0
            },
            {
                "pitch": 81,
                "velocity": 51,
                "duration": 0.2114,
                "tempo": 120.0
            },
            {
                "pitch": 72,
                "velocity": 64,
                "duration": 0.4023,
                "tempo": 120.0
            },
            {
                "pitch": 76,
                "velocity": 64,
                "duration": 0.2023,
                "tempo": 120.0
            },
            {
                "pitch": 79,
                "velocity": 64,
                "duration": 0.2068,
                "tempo": 120.0
            },
            {
                "pitch": 76,
                "velocity": 64,
                "duration": 0.2023,
                "tempo": 120.0
            },
            {
                "pitch": 74,
                "velocity": 64,
                "duration": 0.7295,
                "tempo": 120.0
            },
            {
                "pitch": 72,
                "velocity": 64,
                "duration": 0.4955,
                "tempo": 120.0
            },
            {
                "pitch": 72,
                "velocity": 51,
                "duration": 0.2136,
                "tempo": 120.0
            },
            {
                "pitch": 79,
                "velocity": 64,
                "duration": 0.2023,
                "tempo": 120.0
            },
            {
                "pitch": 69,
                "velocity": 64,
                "duration": 0.2045,
                "tempo": 120.0
            },
            {
                "pitch": 72,
                "velocity": 64,
                "duration": 0.2045,
                "tempo": 120.0
            },
            {
                "pitch": 76,
                "velocity": 64,
                "duration": 0.2023,
                "tempo": 120.0
            },
            {
                "pitch": 69,
                "velocity": 64,
                "duration": 0.2,
                "tempo": 120.0
            },
            {
                "pitch": 72,
                "velocity": 64,
                "duration": 0.8636,
                "tempo": 120.0
            },
            {
                "pitch": 74,
                "velocity": 64,
                "duration": 0.5614,
                "tempo": 120.0
            },
            {
                "pitch": 74,
                "velocity": 51,
                "duration": 0.2136,
                "tempo": 120.0
            },
            {
                "pitch": 72,
                "velocity": 64,
                "duration": 1.2932,
                "tempo": 120.0
            },
            {
                "pitch": 69,
                "velocity": 80,
                "duration": 0.0818,
                "tempo": 120.0
            },
            {
                "pitch": 67,
                "velocity": 80,
                "duration": 0.0841,
                "tempo": 120.0
            },
            {
                "pitch": 69,
                "velocity": 80,
                "duration": 0.0841,
                "tempo": 120.0
            },
            {
                "pitch": 81,
                "velocity": 80,
                "duration": 0.575,
                "tempo": 120.0
            },
            {
                "pitch": 81,
                "velocity": 40,
                "duration": 0.2227,
                "tempo": 120.0
            },
            {
                "pitch": 81,
                "velocity": 51,
                "duration": 0.2114,
                "tempo": 120.0
            },
            {
                "pitch": 72,
                "velocity": 64,
                "duration": 0.4,
                "tempo": 120.0
            },
            {
                "pitch": 76,
                "velocity": 64,
                "duration": 0.2023,
                "tempo": 120.0
            },
            {
                "pitch": 79,
                "velocity": 64,
                "duration": 0.2068,
                "tempo": 120.0
            },
            {
                "pitch": 76,
                "velocity": 64,
                "duration": 0.2023,
                "tempo": 120.0
            },
            {
                "pitch": 74,
                "velocity": 64,
                "duration": 0.7295,
                "tempo": 120.0
            },
            {
                "pitch": 72,
                "velocity": 64,
                "duration": 0.4841,
                "tempo": 120.0
            },
            {
                "pitch": 72,
                "velocity": 51,
                "duration": 0.2114,
                "tempo": 120.0
            },
            {
                "pitch": 79,
                "velocity": 64,
                "duration": 0.2023,
                "tempo": 120.0
            },
            {
                "pitch": 69,
                "velocity": 64,
                "duration": 0.2023,
                "tempo": 120.0
            },
            {
                "pitch": 72,
                "velocity": 64,
                "duration": 0.2,
                "tempo": 120.0
            },
            {
                "pitch": 76,
                "velocity": 64,
                "duration": 0.2068,
                "tempo": 120.0
            },
            {
                "pitch": 69,
                "velocity": 64,
                "duration": 0.2023,
                "tempo": 120.0
            },
            {
                "pitch": 72,
                "velocity": 64,
                "duration": 0.8636,
                "tempo": 120.0
            },
            {
                "pitch": 74,
                "velocity": 64,
                "duration": 0.5591,
                "tempo": 120.0
            },
            {
                "pitch": 74,
                "velocity": 51,
                "duration": 0.2136,
                "tempo": 120.0
            },
            {
                "pitch": 72,
                "velocity": 64,
                "duration": 1.2977,
                "tempo": 120.0
            },
            {
                "pitch": 69,
                "velocity": 80,
                "duration": 0.0818,
                "tempo": 120.0
            },
            {
                "pitch": 67,
                "velocity": 80,
                "duration": 0.0841,
                "tempo": 120.0
            },
            {
                "pitch": 69,
                "velocity": 80,
                "duration": 0.0818,
                "tempo": 120.0
            }
        ],
        "Acoustic Bass": [
            {
                "pitch": 24,
                "velocity": 51,
                "duration": 0.2,
                "tempo": 120.0
            },
            {
                "pitch": 36,
                "velocity": 51,
                "duration": 0.1682,
                "tempo": 120.0
            },
            {
                "pitch": 24,
                "velocity": 51,
                "duration": 0.1682,
                "tempo": 120.0
            },
            {
                "pitch": 36,
                "velocity": 51,
                "duration": 0.1682,
                "tempo": 120.0
            },
            {
                "pitch": 24,
                "velocity": 51,
                "duration": 0.1659,
                "tempo": 120.0
            },
            {
                "pitch": 36,
                "velocity": 51,
                "duration": 0.1659,
                "tempo": 120.0
            },
            {
                "pitch": 24,
                "velocity": 51,
                "duration": 0.1659,
                "tempo": 120.0
            },
            {
                "pitch": 36,
                "velocity": 51,
                "duration": 0.1659,
                "tempo": 120.0
            },
            {
                "pitch": 24,
                "velocity": 51,
                "duration": 0.1659,
                "tempo": 120.0
            },
            {
                "pitch": 36,
                "velocity": 51,
                "duration": 0.1682,
                "tempo": 120.0
            },
            {
                "pitch": 24,
                "velocity": 51,
                "duration": 0.1659,
                "tempo": 120.0
            },
            {
                "pitch": 36,
                "velocity": 51,
                "duration": 0.1659,
                "tempo": 120.0
            },
            {
                "pitch": 24,
                "velocity": 51,
                "duration": 0.1659,
                "tempo": 120.0
            },
            {
                "pitch": 36,
                "velocity": 51,
                "duration": 0.1659,
                "tempo": 120.0
            },
            {
                "pitch": 24,
                "velocity": 51,
                "duration": 0.1659,
                "tempo": 120.0
            },
            {
                "pitch": 36,
                "velocity": 51,
                "duration": 0.1659,
                "tempo": 120.0
            },
            {
                "pitch": 24,
                "velocity": 51,
                "duration": 0.1682,
                "tempo": 120.0
            },
            {
                "pitch": 36,
                "velocity": 51,
                "duration": 0.1682,
                "tempo": 120.0
            },
            {
                "pitch": 24,
                "velocity": 51,
                "duration": 0.1659,
                "tempo": 120.0
            },
            {
                "pitch": 36,
                "velocity": 51,
                "duration": 0.1659,
                "tempo": 120.0
            },
            {
                "pitch": 24,
                "velocity": 51,
                "duration": 0.1659,
                "tempo": 120.0
            },
            {
                "pitch": 36,
                "velocity": 51,
                "duration": 0.1659,
                "tempo": 120.0
            },
            {
                "pitch": 24,
                "velocity": 51,
                "duration": 0.1659,
                "tempo": 120.0
            },
            {
                "pitch": 36,
                "velocity": 51,
                "duration": 0.1659,
                "tempo": 120.0
            },
            {
                "pitch": 24,
                "velocity": 51,
                "duration": 0.1682,
                "tempo": 120.0
            },
            {
                "pitch": 36,
                "velocity": 51,
                "duration": 0.1659,
                "tempo": 120.0
            },
            {
                "pitch": 24,
                "velocity": 51,
                "duration": 0.1659,
                "tempo": 120.0
            },
            {
                "pitch": 36,
                "velocity": 51,
                "duration": 0.1659,
                "tempo": 120.0
            },
            {
                "pitch": 24,
                "velocity": 51,
                "duration": 0.1682,
                "tempo": 120.0
            },
            {
                "pitch": 36,
                "velocity": 51,
                "duration": 0.1682,
                "tempo": 120.0
            },
            {
                "pitch": 24,
                "velocity": 51,
                "duration": 0.1682,
                "tempo": 120.0
            },
            {
                "pitch": 36,
                "velocity": 51,
                "duration": 0.1682,
                "tempo": 120.0
            },
            {
                "pitch": 24,
                "velocity": 51,
                "duration": 0.1682,
                "tempo": 120.0
            },
            {
                "pitch": 36,
                "velocity": 51,
                "duration": 0.1682,
                "tempo": 120.0
            },
            {
                "pitch": 24,
                "velocity": 51,
                "duration": 0.1659,
                "tempo": 120.0
            },
            {
                "pitch": 36,
                "velocity": 51,
                "duration": 0.1682,
                "tempo": 120.0
            },
            {
                "pitch": 24,
                "velocity": 51,
                "duration": 0.1659,
                "tempo": 120.0
            },
            {
                "pitch": 36,
                "velocity": 51,
                "duration": 0.1659,
                "tempo": 120.0
            },
            {
                "pitch": 24,
                "velocity": 51,
                "duration": 0.1705,
                "tempo": 120.0
            },
            {
                "pitch": 36,
                "velocity": 51,
                "duration": 0.1727,
                "tempo": 120.0
            },
            {
                "pitch": 24,
                "velocity": 51,
                "duration": 0.1636,
                "tempo": 120.0
            },
            {
                "pitch": 36,
                "velocity": 51,
                "duration": 0.1636,
                "tempo": 120.0
            },
            {
                "pitch": 24,
                "velocity": 51,
                "duration": 0.1682,
                "tempo": 120.0
            },
            {
                "pitch": 36,
                "velocity": 51,
                "duration": 0.1659,
                "tempo": 120.0
            },
            {
                "pitch": 24,
                "velocity": 51,
                "duration": 0.1659,
                "tempo": 120.0
            },
            {
                "pitch": 36,
                "velocity": 51,
                "duration": 0.1659,
                "tempo": 120.0
            },
            {
                "pitch": 24,
                "velocity": 51,
                "duration": 0.1682,
                "tempo": 120.0
            },
            {
                "pitch": 36,
                "velocity": 51,
                "duration": 0.1682,
                "tempo": 120.0
            },
            {
                "pitch": 24,
                "velocity": 51,
                "duration": 0.1682,
                "tempo": 120.0
            },
            {
                "pitch": 36,
                "velocity": 51,
                "duration": 0.1682,
                "tempo": 120.0
            },
            {
                "pitch": 24,
                "velocity": 51,
                "duration": 0.1682,
                "tempo": 120.0
            },
            {
                "pitch": 36,
                "velocity": 51,
                "duration": 0.1682,
                "tempo": 120.0
            },
            {
                "pitch": 24,
                "velocity": 51,
                "duration": 0.1682,
                "tempo": 120.0
            },
            {
                "pitch": 36,
                "velocity": 51,
                "duration": 0.1682,
                "tempo": 120.0
            },
            {
                "pitch": 24,
                "velocity": 51,
                "duration": 0.1659,
                "tempo": 120.0
            },
            {
                "pitch": 36,
                "velocity": 51,
                "duration": 0.1659,
                "tempo": 120.0
            },
            {
                "pitch": 24,
                "velocity": 51,
                "duration": 0.1682,
                "tempo": 120.0
            },
            {
                "pitch": 36,
                "velocity": 51,
                "duration": 0.1682,
                "tempo": 120.0
            },
            {
                "pitch": 24,
                "velocity": 51,
                "duration": 0.1682,
                "tempo": 120.0
            },
            {
                "pitch": 36,
                "velocity": 51,
                "duration": 0.1659,
                "tempo": 120.0
            },
            {
                "pitch": 24,
                "velocity": 51,
                "duration": 0.1682,
                "tempo": 120.0
            },
            {
                "pitch": 36,
                "velocity": 51,
                "duration": 0.1682,
                "tempo": 120.0
            },
            {
                "pitch": 24,
                "velocity": 51,
                "duration": 0.1682,
                "tempo": 120.0
            },
            {
                "pitch": 36,
                "velocity": 51,
                "duration": 0.1682,
                "tempo": 120.0
            },
            {
                "pitch": 24,
                "velocity": 51,
                "duration": 0.1682,
                "tempo": 120.0
            },
            {
                "pitch": 36,
                "velocity": 51,
                "duration": 0.1682,
                "tempo": 120.0
            },
            {
                "pitch": 24,
                "velocity": 51,
                "duration": 0.1705,
                "tempo": 120.0
            },
            {
                "pitch": 36,
                "velocity": 51,
                "duration": 0.1705,
                "tempo": 120.0
            },
            {
                "pitch": 24,
                "velocity": 51,
                "duration": 0.1636,
                "tempo": 120.0
            },
            {
                "pitch": 36,
                "velocity": 51,
                "duration": 0.1636,
                "tempo": 120.0
            },
            {
                "pitch": 24,
                "velocity": 51,
                "duration": 0.1705,
                "tempo": 120.0
            },
            {
                "pitch": 36,
                "velocity": 51,
                "duration": 0.1727,
                "tempo": 120.0
            },
            {
                "pitch": 24,
                "velocity": 51,
                "duration": 0.1636,
                "tempo": 120.0
            },
            {
                "pitch": 36,
                "velocity": 51,
                "duration": 0.1636,
                "tempo": 120.0
            },
            {
                "pitch": 24,
                "velocity": 51,
                "duration": 0.1705,
                "tempo": 120.0
            },
            {
                "pitch": 36,
                "velocity": 51,
                "duration": 0.1705,
                "tempo": 120.0
            },
            {
                "pitch": 24,
                "velocity": 51,
                "duration": 0.1636,
                "tempo": 120.0
            },
            {
                "pitch": 36,
                "velocity": 51,
                "duration": 0.1636,
                "tempo": 120.0
            },
            {
                "pitch": 24,
                "velocity": 51,
                "duration": 0.1727,
                "tempo": 120.0
            },
            {
                "pitch": 36,
                "velocity": 51,
                "duration": 0.1705,
                "tempo": 120.0
            },
            {
                "pitch": 24,
                "velocity": 51,
                "duration": 0.1636,
                "tempo": 120.0
            },
            {
                "pitch": 36,
                "velocity": 51,
                "duration": 0.1636,
                "tempo": 120.0
            },
            {
                "pitch": 24,
                "velocity": 51,
                "duration": 0.1727,
                "tempo": 120.0
            },
            {
                "pitch": 36,
                "velocity": 51,
                "duration": 0.1705,
                "tempo": 120.0
            },
            {
                "pitch": 24,
                "velocity": 51,
                "duration": 0.1614,
                "tempo": 120.0
            },
            {
                "pitch": 36,
                "velocity": 51,
                "duration": 0.1636,
                "tempo": 120.0
            },
            {
                "pitch": 24,
                "velocity": 51,
                "duration": 0.1705,
                "tempo": 120.0
            },
            {
                "pitch": 36,
                "velocity": 51,
                "duration": 0.1705,
                "tempo": 120.0
            },
            {
                "pitch": 24,
                "velocity": 51,
                "duration": 0.1636,
                "tempo": 120.0
            },
            {
                "pitch": 36,
                "velocity": 51,
                "duration": 0.1636,
                "tempo": 120.0
            },
            {
                "pitch": 24,
                "velocity": 51,
                "duration": 0.1705,
                "tempo": 120.0
            },
            {
                "pitch": 36,
                "velocity": 51,
                "duration": 0.1705,
                "tempo": 120.0
            },
            {
                "pitch": 24,
                "velocity": 51,
                "duration": 0.1636,
                "tempo": 120.0
            },
            {
                "pitch": 36,
                "velocity": 51,
                "duration": 0.1636,
                "tempo": 120.0
            },
            {
                "pitch": 24,
                "velocity": 51,
                "duration": 0.1705,
                "tempo": 120.0
            },
            {
                "pitch": 36,
                "velocity": 51,
                "duration": 0.1727,
                "tempo": 120.0
            },
            {
                "pitch": 24,
                "velocity": 51,
                "duration": 0.1636,
                "tempo": 120.0
            },
            {
                "pitch": 36,
                "velocity": 51,
                "duration": 0.1636,
                "tempo": 120.0
            },
            {
                "pitch": 24,
                "velocity": 51,
                "duration": 0.1659,
                "tempo": 120.0
            },
            {
                "pitch": 36,
                "velocity": 51,
                "duration": 0.1659,
                "tempo": 120.0
            },
            {
                "pitch": 24,
                "velocity": 51,
                "duration": 0.1682,
                "tempo": 120.0
            },
            {
                "pitch": 36,
                "velocity": 51,
                "duration": 0.1659,
                "tempo": 120.0
            },
            {
                "pitch": 24,
                "velocity": 51,
                "duration": 0.1659,
                "tempo": 120.0
            },
            {
                "pitch": 36,
                "velocity": 51,
                "duration": 0.1659,
                "tempo": 120.0
            },
            {
                "pitch": 24,
                "velocity": 51,
                "duration": 0.1682,
                "tempo": 120.0
            },
            {
                "pitch": 36,
                "velocity": 51,
                "duration": 0.1682,
                "tempo": 120.0
            },
            {
                "pitch": 24,
                "velocity": 51,
                "duration": 0.1682,
                "tempo": 120.0
            },
            {
                "pitch": 36,
                "velocity": 51,
                "duration": 0.1682,
                "tempo": 120.0
            },
            {
                "pitch": 24,
                "velocity": 51,
                "duration": 0.1682,
                "tempo": 120.0
            },
            {
                "pitch": 36,
                "velocity": 51,
                "duration": 0.1682,
                "tempo": 120.0
            },
            {
                "pitch": 24,
                "velocity": 51,
                "duration": 0.1682,
                "tempo": 120.0
            },
            {
                "pitch": 36,
                "velocity": 51,
                "duration": 0.1682,
                "tempo": 120.0
            },
            {
                "pitch": 24,
                "velocity": 51,
                "duration": 0.1705,
                "tempo": 120.0
            },
            {
                "pitch": 24,
                "velocity": 51,
                "duration": 0.1705,
                "tempo": 120.0
            },
            {
                "pitch": 24,
                "velocity": 51,
                "duration": 0.1636,
                "tempo": 120.0
            },
            {
                "pitch": 24,
                "velocity": 51,
                "duration": 0.1659,
                "tempo": 120.0
            },
            {
                "pitch": 24,
                "velocity": 51,
                "duration": 0.1659,
                "tempo": 120.0
            },
            {
                "pitch": 24,
                "velocity": 51,
                "duration": 0.1659,
                "tempo": 120.0
            },
            {
                "pitch": 36,
                "velocity": 51,
                "duration": 0.1659,
                "tempo": 120.0
            },
            {
                "pitch": 24,
                "velocity": 51,
                "duration": 0.1682,
                "tempo": 120.0
            },
            {
                "pitch": 36,
                "velocity": 51,
                "duration": 0.1682,
                "tempo": 120.0
            },
            {
                "pitch": 24,
                "velocity": 51,
                "duration": 0.1705,
                "tempo": 120.0
            },
            {
                "pitch": 36,
                "velocity": 51,
                "duration": 0.1705,
                "tempo": 120.0
            },
            {
                "pitch": 24,
                "velocity": 51,
                "duration": 0.1636,
                "tempo": 120.0
            },
            {
                "pitch": 36,
                "velocity": 51,
                "duration": 0.1636,
                "tempo": 120.0
            },
            {
                "pitch": 24,
                "velocity": 51,
                "duration": 0.1659,
                "tempo": 120.0
            },
            {
                "pitch": 36,
                "velocity": 51,
                "duration": 0.1659,
                "tempo": 120.0
            },
            {
                "pitch": 24,
                "velocity": 51,
                "duration": 0.1659,
                "tempo": 120.0
            },
            {
                "pitch": 36,
                "velocity": 51,
                "duration": 0.1659,
                "tempo": 120.0
            },
            {
                "pitch": 24,
                "velocity": 51,
                "duration": 0.1705,
                "tempo": 120.0
            },
            {
                "pitch": 36,
                "velocity": 51,
                "duration": 0.1727,
                "tempo": 120.0
            },
            {
                "pitch": 24,
                "velocity": 51,
                "duration": 0.1636,
                "tempo": 120.0
            },
            {
                "pitch": 36,
                "velocity": 51,
                "duration": 0.1636,
                "tempo": 120.0
            },
            {
                "pitch": 34,
                "velocity": 51,
                "duration": 0.1682,
                "tempo": 120.0
            },
            {
                "pitch": 46,
                "velocity": 51,
                "duration": 0.1682,
                "tempo": 120.0
            },
            {
                "pitch": 34,
                "velocity": 51,
                "duration": 0.1659,
                "tempo": 120.0
            },
            {
                "pitch": 46,
                "velocity": 51,
                "duration": 0.1659,
                "tempo": 120.0
            },
            {
                "pitch": 34,
                "velocity": 51,
                "duration": 0.1727,
                "tempo": 120.0
            },
            {
                "pitch": 46,
                "velocity": 51,
                "duration": 0.1705,
                "tempo": 120.0
            },
            {
                "pitch": 34,
                "velocity": 51,
                "duration": 0.1636,
                "tempo": 120.0
            },
            {
                "pitch": 46,
                "velocity": 51,
                "duration": 0.1636,
                "tempo": 120.0
            },
            {
                "pitch": 34,
                "velocity": 51,
                "duration": 0.1682,
                "tempo": 120.0
            },
            {
                "pitch": 46,
                "velocity": 51,
                "duration": 0.1682,
                "tempo": 120.0
            },
            {
                "pitch": 34,
                "velocity": 51,
                "duration": 0.1682,
                "tempo": 120.0
            },
            {
                "pitch": 46,
                "velocity": 51,
                "duration": 0.1682,
                "tempo": 120.0
            },
            {
                "pitch": 34,
                "velocity": 51,
                "duration": 0.1705,
                "tempo": 120.0
            },
            {
                "pitch": 46,
                "velocity": 51,
                "duration": 0.1705,
                "tempo": 120.0
            },
            {
                "pitch": 34,
                "velocity": 51,
                "duration": 0.1636,
                "tempo": 120.0
            },
            {
                "pitch": 46,
                "velocity": 51,
                "duration": 0.1636,
                "tempo": 120.0
            },
            {
                "pitch": 33,
                "velocity": 51,
                "duration": 0.1682,
                "tempo": 120.0
            },
            {
                "pitch": 45,
                "velocity": 51,
                "duration": 0.1682,
                "tempo": 120.0
            },
            {
                "pitch": 33,
                "velocity": 51,
                "duration": 0.1682,
                "tempo": 120.0
            },
            {
                "pitch": 45,
                "velocity": 51,
                "duration": 0.1659,
                "tempo": 120.0
            },
            {
                "pitch": 33,
                "velocity": 51,
                "duration": 0.1727,
                "tempo": 120.0
            },
            {
                "pitch": 45,
                "velocity": 51,
                "duration": 0.1705,
                "tempo": 120.0
            },
            {
                "pitch": 33,
                "velocity": 51,
                "duration": 0.1636,
                "tempo": 120.0
            },
            {
                "pitch": 45,
                "velocity": 51,
                "duration": 0.1636,
                "tempo": 120.0
            },
            {
                "pitch": 33,
                "velocity": 51,
                "duration": 0.1682,
                "tempo": 120.0
            },
            {
                "pitch": 45,
                "velocity": 51,
                "duration": 0.1682,
                "tempo": 120.0
            },
            {
                "pitch": 33,
                "velocity": 51,
                "duration": 0.1682,
                "tempo": 120.0
            },
            {
                "pitch": 45,
                "velocity": 51,
                "duration": 0.1682,
                "tempo": 120.0
            },
            {
                "pitch": 33,
                "velocity": 51,
                "duration": 0.1682,
                "tempo": 120.0
            },
            {
                "pitch": 45,
                "velocity": 51,
                "duration": 0.1682,
                "tempo": 120.0
            },
            {
                "pitch": 33,
                "velocity": 51,
                "duration": 0.1705,
                "tempo": 120.0
            },
            {
                "pitch": 45,
                "velocity": 51,
                "duration": 0.1727,
                "tempo": 120.0
            },
            {
                "pitch": 29,
                "velocity": 51,
                "duration": 0.1636,
                "tempo": 120.0
            },
            {
                "pitch": 41,
                "velocity": 51,
                "duration": 0.1636,
                "tempo": 120.0
            },
            {
                "pitch": 29,
                "velocity": 51,
                "duration": 0.1659,
                "tempo": 120.0
            },
            {
                "pitch": 41,
                "velocity": 51,
                "duration": 0.1659,
                "tempo": 120.0
            },
            {
                "pitch": 29,
                "velocity": 51,
                "duration": 0.1659,
                "tempo": 120.0
            },
            {
                "pitch": 41,
                "velocity": 51,
                "duration": 0.1659,
                "tempo": 120.0
            },
            {
                "pitch": 29,
                "velocity": 51,
                "duration": 0.1682,
                "tempo": 120.0
            },
            {
                "pitch": 41,
                "velocity": 51,
                "duration": 0.1682,
                "tempo": 120.0
            },
            {
                "pitch": 29,
                "velocity": 51,
                "duration": 0.1659,
                "tempo": 120.0
            },
            {
                "pitch": 41,
                "velocity": 51,
                "duration": 0.1659,
                "tempo": 120.0
            },
            {
                "pitch": 29,
                "velocity": 51,
                "duration": 0.1659,
                "tempo": 120.0
            },
            {
                "pitch": 41,
                "velocity": 51,
                "duration": 0.1659,
                "tempo": 120.0
            },
            {
                "pitch": 29,
                "velocity": 51,
                "duration": 0.1659,
                "tempo": 120.0
            },
            {
                "pitch": 41,
                "velocity": 51,
                "duration": 0.1659,
                "tempo": 120.0
            },
            {
                "pitch": 29,
                "velocity": 51,
                "duration": 0.1659,
                "tempo": 120.0
            },
            {
                "pitch": 41,
                "velocity": 51,
                "duration": 0.1659,
                "tempo": 120.0
            },
            {
                "pitch": 24,
                "velocity": 51,
                "duration": 0.1682,
                "tempo": 120.0
            },
            {
                "pitch": 36,
                "velocity": 51,
                "duration": 0.1659,
                "tempo": 120.0
            },
            {
                "pitch": 24,
                "velocity": 51,
                "duration": 0.1659,
                "tempo": 120.0
            },
            {
                "pitch": 36,
                "velocity": 51,
                "duration": 0.1659,
                "tempo": 120.0
            },
            {
                "pitch": 24,
                "velocity": 51,
                "duration": 0.1727,
                "tempo": 120.0
            },
            {
                "pitch": 36,
                "velocity": 51,
                "duration": 0.1705,
                "tempo": 120.0
            },
            {
                "pitch": 24,
                "velocity": 51,
                "duration": 0.1614,
                "tempo": 120.0
            },
            {
                "pitch": 36,
                "velocity": 51,
                "duration": 0.1636,
                "tempo": 120.0
            },
            {
                "pitch": 24,
                "velocity": 51,
                "duration": 0.1682,
                "tempo": 120.0
            },
            {
                "pitch": 36,
                "velocity": 51,
                "duration": 0.1682,
                "tempo": 120.0
            },
            {
                "pitch": 24,
                "velocity": 51,
                "duration": 0.1705,
                "tempo": 120.0
            },
            {
                "pitch": 36,
                "velocity": 51,
                "duration": 0.1705,
                "tempo": 120.0
            },
            {
                "pitch": 24,
                "velocity": 51,
                "duration": 0.1682,
                "tempo": 120.0
            },
            {
                "pitch": 36,
                "velocity": 51,
                "duration": 0.1682,
                "tempo": 120.0
            },
            {
                "pitch": 24,
                "velocity": 51,
                "duration": 0.1636,
                "tempo": 120.0
            },
            {
                "pitch": 36,
                "velocity": 51,
                "duration": 0.1636,
                "tempo": 120.0
            },
            {
                "pitch": 34,
                "velocity": 51,
                "duration": 0.1659,
                "tempo": 120.0
            },
            {
                "pitch": 46,
                "velocity": 51,
                "duration": 0.1659,
                "tempo": 120.0
            },
            {
                "pitch": 34,
                "velocity": 51,
                "duration": 0.1659,
                "tempo": 120.0
            },
            {
                "pitch": 46,
                "velocity": 51,
                "duration": 0.1659,
                "tempo": 120.0
            },
            {
                "pitch": 34,
                "velocity": 51,
                "duration": 0.1705,
                "tempo": 120.0
            },
            {
                "pitch": 46,
                "velocity": 51,
                "duration": 0.1727,
                "tempo": 120.0
            },
            {
                "pitch": 34,
                "velocity": 51,
                "duration": 0.1636,
                "tempo": 120.0
            },
            {
                "pitch": 46,
                "velocity": 51,
                "duration": 0.1636,
                "tempo": 120.0
            },
            {
                "pitch": 34,
                "velocity": 51,
                "duration": 0.1659,
                "tempo": 120.0
            },
            {
                "pitch": 46,
                "velocity": 51,
                "duration": 0.1659,
                "tempo": 120.0
            },
            {
                "pitch": 34,
                "velocity": 51,
                "duration": 0.1659,
                "tempo": 120.0
            },
            {
                "pitch": 46,
                "velocity": 51,
                "duration": 0.1659,
                "tempo": 120.0
            },
            {
                "pitch": 34,
                "velocity": 51,
                "duration": 0.1727,
                "tempo": 120.0
            },
            {
                "pitch": 46,
                "velocity": 51,
                "duration": 0.1705,
                "tempo": 120.0
            },
            {
                "pitch": 34,
                "velocity": 51,
                "duration": 0.1636,
                "tempo": 120.0
            },
            {
                "pitch": 46,
                "velocity": 51,
                "duration": 0.1636,
                "tempo": 120.0
            },
            {
                "pitch": 33,
                "velocity": 51,
                "duration": 0.1682,
                "tempo": 120.0
            },
            {
                "pitch": 45,
                "velocity": 51,
                "duration": 0.1682,
                "tempo": 120.0
            },
            {
                "pitch": 33,
                "velocity": 51,
                "duration": 0.1682,
                "tempo": 120.0
            },
            {
                "pitch": 45,
                "velocity": 51,
                "duration": 0.1682,
                "tempo": 120.0
            },
            {
                "pitch": 33,
                "velocity": 51,
                "duration": 0.1705,
                "tempo": 120.0
            },
            {
                "pitch": 45,
                "velocity": 51,
                "duration": 0.1705,
                "tempo": 120.0
            },
            {
                "pitch": 33,
                "velocity": 51,
                "duration": 0.1636,
                "tempo": 120.0
            },
            {
                "pitch": 45,
                "velocity": 51,
                "duration": 0.1636,
                "tempo": 120.0
            },
            {
                "pitch": 33,
                "velocity": 51,
                "duration": 0.1659,
                "tempo": 120.0
            },
            {
                "pitch": 45,
                "velocity": 51,
                "duration": 0.1682,
                "tempo": 120.0
            },
            {
                "pitch": 33,
                "velocity": 51,
                "duration": 0.1659,
                "tempo": 120.0
            },
            {
                "pitch": 45,
                "velocity": 51,
                "duration": 0.1659,
                "tempo": 120.0
            },
            {
                "pitch": 33,
                "velocity": 51,
                "duration": 0.1659,
                "tempo": 120.0
            },
            {
                "pitch": 45,
                "velocity": 51,
                "duration": 0.1659,
                "tempo": 120.0
            },
            {
                "pitch": 33,
                "velocity": 51,
                "duration": 0.1705,
                "tempo": 120.0
            },
            {
                "pitch": 45,
                "velocity": 51,
                "duration": 0.1727,
                "tempo": 120.0
            },
            {
                "pitch": 29,
                "velocity": 51,
                "duration": 0.1636,
                "tempo": 120.0
            },
            {
                "pitch": 41,
                "velocity": 51,
                "duration": 0.1636,
                "tempo": 120.0
            },
            {
                "pitch": 29,
                "velocity": 51,
                "duration": 0.1682,
                "tempo": 120.0
            },
            {
                "pitch": 41,
                "velocity": 51,
                "duration": 0.1659,
                "tempo": 120.0
            },
            {
                "pitch": 29,
                "velocity": 51,
                "duration": 0.1659,
                "tempo": 120.0
            },
            {
                "pitch": 41,
                "velocity": 51,
                "duration": 0.1659,
                "tempo": 120.0
            },
            {
                "pitch": 29,
                "velocity": 51,
                "duration": 0.1659,
                "tempo": 120.0
            },
            {
                "pitch": 41,
                "velocity": 51,
                "duration": 0.1659,
                "tempo": 120.0
            },
            {
                "pitch": 29,
                "velocity": 51,
                "duration": 0.1659,
                "tempo": 120.0
            },
            {
                "pitch": 41,
                "velocity": 51,
                "duration": 0.1659,
                "tempo": 120.0
            },
            {
                "pitch": 29,
                "velocity": 51,
                "duration": 0.1659,
                "tempo": 120.0
            },
            {
                "pitch": 41,
                "velocity": 51,
                "duration": 0.1659,
                "tempo": 120.0
            },
            {
                "pitch": 29,
                "velocity": 51,
                "duration": 0.1682,
                "tempo": 120.0
            },
            {
                "pitch": 41,
                "velocity": 51,
                "duration": 0.1682,
                "tempo": 120.0
            },
            {
                "pitch": 29,
                "velocity": 51,
                "duration": 0.1682,
                "tempo": 120.0
            },
            {
                "pitch": 41,
                "velocity": 51,
                "duration": 0.1682,
                "tempo": 120.0
            },
            {
                "pitch": 28,
                "velocity": 51,
                "duration": 0.1682,
                "tempo": 120.0
            },
            {
                "pitch": 40,
                "velocity": 51,
                "duration": 0.1682,
                "tempo": 120.0
            },
            {
                "pitch": 28,
                "velocity": 51,
                "duration": 0.1682,
                "tempo": 120.0
            },
            {
                "pitch": 40,
                "velocity": 51,
                "duration": 0.1682,
                "tempo": 120.0
            },
            {
                "pitch": 28,
                "velocity": 51,
                "duration": 0.1682,
                "tempo": 120.0
            },
            {
                "pitch": 40,
                "velocity": 51,
                "duration": 0.1682,
                "tempo": 120.0
            },
            {
                "pitch": 28,
                "velocity": 51,
                "duration": 0.1705,
                "tempo": 120.0
            },
            {
                "pitch": 40,
                "velocity": 51,
                "duration": 0.1705,
                "tempo": 120.0
            },
            {
                "pitch": 28,
                "velocity": 51,
                "duration": 0.1636,
                "tempo": 120.0
            },
            {
                "pitch": 40,
                "velocity": 51,
                "duration": 0.1636,
                "tempo": 120.0
            },
            {
                "pitch": 28,
                "velocity": 51,
                "duration": 0.1705,
                "tempo": 120.0
            },
            {
                "pitch": 40,
                "velocity": 51,
                "duration": 0.1705,
                "tempo": 120.0
            },
            {
                "pitch": 28,
                "velocity": 51,
                "duration": 0.1636,
                "tempo": 120.0
            },
            {
                "pitch": 40,
                "velocity": 51,
                "duration": 0.1636,
                "tempo": 120.0
            },
            {
                "pitch": 28,
                "velocity": 51,
                "duration": 0.1705,
                "tempo": 120.0
            },
            {
                "pitch": 40,
                "velocity": 51,
                "duration": 0.1727,
                "tempo": 120.0
            },
            {
                "pitch": 33,
                "velocity": 51,
                "duration": 0.1636,
                "tempo": 120.0
            },
            {
                "pitch": 45,
                "velocity": 51,
                "duration": 0.1636,
                "tempo": 120.0
            },
            {
                "pitch": 33,
                "velocity": 51,
                "duration": 0.1659,
                "tempo": 120.0
            },
            {
                "pitch": 45,
                "velocity": 51,
                "duration": 0.1659,
                "tempo": 120.0
            },
            {
                "pitch": 33,
                "velocity": 51,
                "duration": 0.1659,
                "tempo": 120.0
            },
            {
                "pitch": 45,
                "velocity": 51,
                "duration": 0.1659,
                "tempo": 120.0
            },
            {
                "pitch": 33,
                "velocity": 51,
                "duration": 0.1659,
                "tempo": 120.0
            },
            {
                "pitch": 45,
                "velocity": 51,
                "duration": 0.1659,
                "tempo": 120.0
            },
            {
                "pitch": 33,
                "velocity": 51,
                "duration": 0.1659,
                "tempo": 120.0
            },
            {
                "pitch": 45,
                "velocity": 51,
                "duration": 0.1659,
                "tempo": 120.0
            },
            {
                "pitch": 33,
                "velocity": 51,
                "duration": 0.1682,
                "tempo": 120.0
            },
            {
                "pitch": 45,
                "velocity": 51,
                "duration": 0.1659,
                "tempo": 120.0
            },
            {
                "pitch": 33,
                "velocity": 51,
                "duration": 0.1659,
                "tempo": 120.0
            },
            {
                "pitch": 45,
                "velocity": 51,
                "duration": 0.1659,
                "tempo": 120.0
            },
            {
                "pitch": 33,
                "velocity": 51,
                "duration": 0.1659,
                "tempo": 120.0
            },
            {
                "pitch": 45,
                "velocity": 51,
                "duration": 0.1659,
                "tempo": 120.0
            },
            {
                "pitch": 26,
                "velocity": 51,
                "duration": 0.1727,
                "tempo": 120.0
            },
            {
                "pitch": 38,
                "velocity": 51,
                "duration": 0.0841,
                "tempo": 120.0
            },
            {
                "pitch": 38,
                "velocity": 51,
                "duration": 0.0864,
                "tempo": 120.0
            },
            {
                "pitch": 26,
                "velocity": 51,
                "duration": 0.1636,
                "tempo": 120.0
            },
            {
                "pitch": 38,
                "velocity": 51,
                "duration": 0.0818,
                "tempo": 120.0
            },
            {
                "pitch": 38,
                "velocity": 51,
                "duration": 0.0818,
                "tempo": 120.0
            },
            {
                "pitch": 26,
                "velocity": 51,
                "duration": 0.1682,
                "tempo": 120.0
            },
            {
                "pitch": 38,
                "velocity": 51,
                "duration": 0.0841,
                "tempo": 120.0
            },
            {
                "pitch": 38,
                "velocity": 51,
                "duration": 0.0841,
                "tempo": 120.0
            },
            {
                "pitch": 26,
                "velocity": 51,
                "duration": 0.1682,
                "tempo": 120.0
            },
            {
                "pitch": 38,
                "velocity": 51,
                "duration": 0.0841,
                "tempo": 120.0
            },
            {
                "pitch": 38,
                "velocity": 51,
                "duration": 0.0841,
                "tempo": 120.0
            },
            {
                "pitch": 26,
                "velocity": 51,
                "duration": 0.1682,
                "tempo": 120.0
            },
            {
                "pitch": 38,
                "velocity": 51,
                "duration": 0.0841,
                "tempo": 120.0
            },
            {
                "pitch": 38,
                "velocity": 51,
                "duration": 0.0841,
                "tempo": 120.0
            },
            {
                "pitch": 26,
                "velocity": 51,
                "duration": 0.1682,
                "tempo": 120.0
            },
            {
                "pitch": 38,
                "velocity": 51,
                "duration": 0.0841,
                "tempo": 120.0
            },
            {
                "pitch": 38,
                "velocity": 51,
                "duration": 0.0841,
                "tempo": 120.0
            },
            {
                "pitch": 26,
                "velocity": 51,
                "duration": 0.1682,
                "tempo": 120.0
            },
            {
                "pitch": 38,
                "velocity": 51,
                "duration": 0.0841,
                "tempo": 120.0
            },
            {
                "pitch": 38,
                "velocity": 51,
                "duration": 0.0841,
                "tempo": 120.0
            },
            {
                "pitch": 26,
                "velocity": 51,
                "duration": 0.1659,
                "tempo": 120.0
            },
            {
                "pitch": 38,
                "velocity": 51,
                "duration": 0.0841,
                "tempo": 120.0
            },
            {
                "pitch": 38,
                "velocity": 51,
                "duration": 0.0841,
                "tempo": 120.0
            },
            {
                "pitch": 29,
                "velocity": 51,
                "duration": 0.1659,
                "tempo": 120.0
            },
            {
                "pitch": 41,
                "velocity": 51,
                "duration": 0.1659,
                "tempo": 120.0
            },
            {
                "pitch": 29,
                "velocity": 51,
                "duration": 0.1659,
                "tempo": 120.0
            },
            {
                "pitch": 41,
                "velocity": 51,
                "duration": 0.1659,
                "tempo": 120.0
            },
            {
                "pitch": 29,
                "velocity": 51,
                "duration": 0.1659,
                "tempo": 120.0
            },
            {
                "pitch": 41,
                "velocity": 51,
                "duration": 0.1659,
                "tempo": 120.0
            },
            {
                "pitch": 29,
                "velocity": 51,
                "duration": 0.1705,
                "tempo": 120.0
            },
            {
                "pitch": 41,
                "velocity": 51,
                "duration": 0.1727,
                "tempo": 120.0
            },
            {
                "pitch": 29,
                "velocity": 51,
                "duration": 0.1636,
                "tempo": 120.0
            },
            {
                "pitch": 41,
                "velocity": 51,
                "duration": 0.1636,
                "tempo": 120.0
            },
            {
                "pitch": 29,
                "velocity": 51,
                "duration": 0.1659,
                "tempo": 120.0
            },
            {
                "pitch": 41,
                "velocity": 51,
                "duration": 0.1659,
                "tempo": 120.0
            },
            {
                "pitch": 29,
                "velocity": 51,
                "duration": 0.1659,
                "tempo": 120.0
            },
            {
                "pitch": 41,
                "velocity": 51,
                "duration": 0.1659,
                "tempo": 120.0
            },
            {
                "pitch": 29,
                "velocity": 51,
                "duration": 0.1727,
                "tempo": 120.0
            },
            {
                "pitch": 41,
                "velocity": 51,
                "duration": 0.1705,
                "tempo": 120.0
            },
            {
                "pitch": 28,
                "velocity": 51,
                "duration": 0.1636,
                "tempo": 120.0
            },
            {
                "pitch": 40,
                "velocity": 51,
                "duration": 0.1636,
                "tempo": 120.0
            },
            {
                "pitch": 28,
                "velocity": 51,
                "duration": 0.1682,
                "tempo": 120.0
            },
            {
                "pitch": 40,
                "velocity": 51,
                "duration": 0.1682,
                "tempo": 120.0
            },
            {
                "pitch": 28,
                "velocity": 51,
                "duration": 0.1682,
                "tempo": 120.0
            },
            {
                "pitch": 40,
                "velocity": 51,
                "duration": 0.1682,
                "tempo": 120.0
            },
            {
                "pitch": 28,
                "velocity": 51,
                "duration": 0.1682,
                "tempo": 120.0
            },
            {
                "pitch": 40,
                "velocity": 51,
                "duration": 0.1682,
                "tempo": 120.0
            },
            {
                "pitch": 28,
                "velocity": 51,
                "duration": 0.1659,
                "tempo": 120.0
            },
            {
                "pitch": 40,
                "velocity": 51,
                "duration": 0.1659,
                "tempo": 120.0
            },
            {
                "pitch": 28,
                "velocity": 51,
                "duration": 0.1659,
                "tempo": 120.0
            },
            {
                "pitch": 40,
                "velocity": 51,
                "duration": 0.1682,
                "tempo": 120.0
            },
            {
                "pitch": 28,
                "velocity": 51,
                "duration": 0.1659,
                "tempo": 120.0
            },
            {
                "pitch": 40,
                "velocity": 51,
                "duration": 0.1659,
                "tempo": 120.0
            },
            {
                "pitch": 28,
                "velocity": 51,
                "duration": 0.1682,
                "tempo": 120.0
            },
            {
                "pitch": 40,
                "velocity": 51,
                "duration": 0.1682,
                "tempo": 120.0
            },
            {
                "pitch": 33,
                "velocity": 51,
                "duration": 0.1682,
                "tempo": 120.0
            },
            {
                "pitch": 45,
                "velocity": 51,
                "duration": 0.1659,
                "tempo": 120.0
            },
            {
                "pitch": 33,
                "velocity": 51,
                "duration": 0.1659,
                "tempo": 120.0
            },
            {
                "pitch": 45,
                "velocity": 51,
                "duration": 0.1659,
                "tempo": 120.0
            },
            {
                "pitch": 33,
                "velocity": 51,
                "duration": 0.1682,
                "tempo": 120.0
            },
            {
                "pitch": 45,
                "velocity": 51,
                "duration": 0.1682,
                "tempo": 120.0
            },
            {
                "pitch": 33,
                "velocity": 51,
                "duration": 0.1682,
                "tempo": 120.0
            },
            {
                "pitch": 45,
                "velocity": 51,
                "duration": 0.1682,
                "tempo": 120.0
            },
            {
                "pitch": 33,
                "velocity": 51,
                "duration": 0.1682,
                "tempo": 120.0
            },
            {
                "pitch": 45,
                "velocity": 51,
                "duration": 0.1682,
                "tempo": 120.0
            },
            {
                "pitch": 33,
                "velocity": 51,
                "duration": 0.1659,
                "tempo": 120.0
            },
            {
                "pitch": 45,
                "velocity": 51,
                "duration": 0.1682,
                "tempo": 120.0
            },
            {
                "pitch": 33,
                "velocity": 51,
                "duration": 0.1659,
                "tempo": 120.0
            },
            {
                "pitch": 45,
                "velocity": 51,
                "duration": 0.1659,
                "tempo": 120.0
            },
            {
                "pitch": 33,
                "velocity": 51,
                "duration": 0.1705,
                "tempo": 120.0
            },
            {
                "pitch": 45,
                "velocity": 51,
                "duration": 0.1727,
                "tempo": 120.0
            },
            {
                "pitch": 26,
                "velocity": 51,
                "duration": 0.1659,
                "tempo": 120.0
            },
            {
                "pitch": 38,
                "velocity": 51,
                "duration": 0.0841,
                "tempo": 120.0
            },
            {
                "pitch": 38,
                "velocity": 51,
                "duration": 0.0841,
                "tempo": 120.0
            },
            {
                "pitch": 26,
                "velocity": 51,
                "duration": 0.1682,
                "tempo": 120.0
            },
            {
                "pitch": 38,
                "velocity": 51,
                "duration": 0.0841,
                "tempo": 120.0
            },
            {
                "pitch": 38,
                "velocity": 51,
                "duration": 0.0841,
                "tempo": 120.0
            },
            {
                "pitch": 26,
                "velocity": 51,
                "duration": 0.1636,
                "tempo": 120.0
            },
            {
                "pitch": 38,
                "velocity": 51,
                "duration": 0.0818,
                "tempo": 120.0
            },
            {
                "pitch": 38,
                "velocity": 51,
                "duration": 0.0818,
                "tempo": 120.0
            },
            {
                "pitch": 26,
                "velocity": 51,
                "duration": 0.1705,
                "tempo": 120.0
            },
            {
                "pitch": 38,
                "velocity": 51,
                "duration": 0.0864,
                "tempo": 120.0
            },
            {
                "pitch": 38,
                "velocity": 51,
                "duration": 0.0841,
                "tempo": 120.0
            },
            {
                "pitch": 26,
                "velocity": 51,
                "duration": 0.1636,
                "tempo": 120.0
            },
            {
                "pitch": 38,
                "velocity": 51,
                "duration": 0.0818,
                "tempo": 120.0
            },
            {
                "pitch": 38,
                "velocity": 51,
                "duration": 0.0818,
                "tempo": 120.0
            },
            {
                "pitch": 26,
                "velocity": 51,
                "duration": 0.1682,
                "tempo": 120.0
            },
            {
                "pitch": 38,
                "velocity": 51,
                "duration": 0.0841,
                "tempo": 120.0
            },
            {
                "pitch": 38,
                "velocity": 51,
                "duration": 0.0841,
                "tempo": 120.0
            },
            {
                "pitch": 26,
                "velocity": 51,
                "duration": 0.1659,
                "tempo": 120.0
            },
            {
                "pitch": 38,
                "velocity": 51,
                "duration": 0.0841,
                "tempo": 120.0
            },
            {
                "pitch": 38,
                "velocity": 51,
                "duration": 0.0841,
                "tempo": 120.0
            },
            {
                "pitch": 26,
                "velocity": 51,
                "duration": 0.1682,
                "tempo": 120.0
            },
            {
                "pitch": 38,
                "velocity": 51,
                "duration": 0.0841,
                "tempo": 120.0
            },
            {
                "pitch": 38,
                "velocity": 51,
                "duration": 0.0841,
                "tempo": 120.0
            },
            {
                "pitch": 29,
                "velocity": 51,
                "duration": 0.1659,
                "tempo": 120.0
            },
            {
                "pitch": 41,
                "velocity": 51,
                "duration": 0.1659,
                "tempo": 120.0
            },
            {
                "pitch": 29,
                "velocity": 51,
                "duration": 0.1682,
                "tempo": 120.0
            },
            {
                "pitch": 41,
                "velocity": 51,
                "duration": 0.1659,
                "tempo": 120.0
            },
            {
                "pitch": 29,
                "velocity": 51,
                "duration": 0.1659,
                "tempo": 120.0
            },
            {
                "pitch": 41,
                "velocity": 51,
                "duration": 0.1659,
                "tempo": 120.0
            },
            {
                "pitch": 29,
                "velocity": 51,
                "duration": 0.1682,
                "tempo": 120.0
            },
            {
                "pitch": 41,
                "velocity": 51,
                "duration": 0.1682,
                "tempo": 120.0
            },
            {
                "pitch": 31,
                "velocity": 51,
                "duration": 0.1682,
                "tempo": 120.0
            },
            {
                "pitch": 43,
                "velocity": 51,
                "duration": 0.1682,
                "tempo": 120.0
            },
            {
                "pitch": 32,
                "velocity": 51,
                "duration": 0.1682,
                "tempo": 120.0
            },
            {
                "pitch": 44,
                "velocity": 51,
                "duration": 0.1682,
                "tempo": 120.0
            },
            {
                "pitch": 33,
                "velocity": 51,
                "duration": 0.1659,
                "tempo": 120.0
            },
            {
                "pitch": 45,
                "velocity": 51,
                "duration": 0.1682,
                "tempo": 120.0
            },
            {
                "pitch": 35,
                "velocity": 51,
                "duration": 0.1659,
                "tempo": 120.0
            },
            {
                "pitch": 47,
                "velocity": 51,
                "duration": 0.1659,
                "tempo": 120.0
            },
            {
                "pitch": 24,
                "velocity": 51,
                "duration": 0.1682,
                "tempo": 120.0
            },
            {
                "pitch": 36,
                "velocity": 51,
                "duration": 0.1682,
                "tempo": 120.0
            },
            {
                "pitch": 24,
                "velocity": 51,
                "duration": 0.1705,
                "tempo": 120.0
            },
            {
                "pitch": 36,
                "velocity": 51,
                "duration": 0.1705,
                "tempo": 120.0
            },
            {
                "pitch": 24,
                "velocity": 51,
                "duration": 0.1682,
                "tempo": 120.0
            },
            {
                "pitch": 36,
                "velocity": 51,
                "duration": 0.1682,
                "tempo": 120.0
            },
            {
                "pitch": 24,
                "velocity": 51,
                "duration": 0.1636,
                "tempo": 120.0
            },
            {
                "pitch": 36,
                "velocity": 51,
                "duration": 0.1636,
                "tempo": 120.0
            },
            {
                "pitch": 24,
                "velocity": 51,
                "duration": 0.1682,
                "tempo": 120.0
            },
            {
                "pitch": 36,
                "velocity": 51,
                "duration": 0.1682,
                "tempo": 120.0
            },
            {
                "pitch": 24,
                "velocity": 51,
                "duration": 0.1705,
                "tempo": 120.0
            },
            {
                "pitch": 36,
                "velocity": 51,
                "duration": 0.1705,
                "tempo": 120.0
            },
            {
                "pitch": 24,
                "velocity": 51,
                "duration": 0.1636,
                "tempo": 120.0
            },
            {
                "pitch": 36,
                "velocity": 51,
                "duration": 0.1636,
                "tempo": 120.0
            },
            {
                "pitch": 24,
                "velocity": 51,
                "duration": 0.1659,
                "tempo": 120.0
            },
            {
                "pitch": 36,
                "velocity": 51,
                "duration": 0.1659,
                "tempo": 120.0
            },
            {
                "pitch": 34,
                "velocity": 51,
                "duration": 0.1682,
                "tempo": 120.0
            },
            {
                "pitch": 46,
                "velocity": 51,
                "duration": 0.1682,
                "tempo": 120.0
            },
            {
                "pitch": 34,
                "velocity": 51,
                "duration": 0.1659,
                "tempo": 120.0
            },
            {
                "pitch": 46,
                "velocity": 51,
                "duration": 0.1659,
                "tempo": 120.0
            },
            {
                "pitch": 34,
                "velocity": 51,
                "duration": 0.1682,
                "tempo": 120.0
            },
            {
                "pitch": 46,
                "velocity": 51,
                "duration": 0.1682,
                "tempo": 120.0
            },
            {
                "pitch": 34,
                "velocity": 51,
                "duration": 0.1727,
                "tempo": 120.0
            },
            {
                "pitch": 46,
                "velocity": 51,
                "duration": 0.1705,
                "tempo": 120.0
            },
            {
                "pitch": 34,
                "velocity": 51,
                "duration": 0.1636,
                "tempo": 120.0
            },
            {
                "pitch": 46,
                "velocity": 51,
                "duration": 0.1636,
                "tempo": 120.0
            },
            {
                "pitch": 34,
                "velocity": 51,
                "duration": 0.1682,
                "tempo": 120.0
            },
            {
                "pitch": 46,
                "velocity": 51,
                "duration": 0.1682,
                "tempo": 120.0
            },
            {
                "pitch": 34,
                "velocity": 51,
                "duration": 0.1705,
                "tempo": 120.0
            },
            {
                "pitch": 46,
                "velocity": 51,
                "duration": 0.1705,
                "tempo": 120.0
            },
            {
                "pitch": 34,
                "velocity": 51,
                "duration": 0.1636,
                "tempo": 120.0
            },
            {
                "pitch": 46,
                "velocity": 51,
                "duration": 0.1636,
                "tempo": 120.0
            },
            {
                "pitch": 33,
                "velocity": 51,
                "duration": 0.1682,
                "tempo": 120.0
            },
            {
                "pitch": 45,
                "velocity": 51,
                "duration": 0.1682,
                "tempo": 120.0
            },
            {
                "pitch": 33,
                "velocity": 51,
                "duration": 0.1659,
                "tempo": 120.0
            },
            {
                "pitch": 45,
                "velocity": 51,
                "duration": 0.1659,
                "tempo": 120.0
            },
            {
                "pitch": 33,
                "velocity": 51,
                "duration": 0.1682,
                "tempo": 120.0
            },
            {
                "pitch": 45,
                "velocity": 51,
                "duration": 0.1659,
                "tempo": 120.0
            },
            {
                "pitch": 33,
                "velocity": 51,
                "duration": 0.1727,
                "tempo": 120.0
            },
            {
                "pitch": 45,
                "velocity": 51,
                "duration": 0.1705,
                "tempo": 120.0
            },
            {
                "pitch": 33,
                "velocity": 51,
                "duration": 0.1636,
                "tempo": 120.0
            },
            {
                "pitch": 45,
                "velocity": 51,
                "duration": 0.1636,
                "tempo": 120.0
            },
            {
                "pitch": 33,
                "velocity": 51,
                "duration": 0.1682,
                "tempo": 120.0
            },
            {
                "pitch": 45,
                "velocity": 51,
                "duration": 0.1682,
                "tempo": 120.0
            },
            {
                "pitch": 33,
                "velocity": 51,
                "duration": 0.1682,
                "tempo": 120.0
            },
            {
                "pitch": 45,
                "velocity": 51,
                "duration": 0.1682,
                "tempo": 120.0
            },
            {
                "pitch": 33,
                "velocity": 51,
                "duration": 0.1705,
                "tempo": 120.0
            },
            {
                "pitch": 45,
                "velocity": 51,
                "duration": 0.1727,
                "tempo": 120.0
            },
            {
                "pitch": 29,
                "velocity": 51,
                "duration": 0.1636,
                "tempo": 120.0
            },
            {
                "pitch": 41,
                "velocity": 51,
                "duration": 0.1636,
                "tempo": 120.0
            },
            {
                "pitch": 29,
                "velocity": 51,
                "duration": 0.1682,
                "tempo": 120.0
            },
            {
                "pitch": 41,
                "velocity": 51,
                "duration": 0.1682,
                "tempo": 120.0
            },
            {
                "pitch": 29,
                "velocity": 51,
                "duration": 0.1682,
                "tempo": 120.0
            },
            {
                "pitch": 41,
                "velocity": 51,
                "duration": 0.1659,
                "tempo": 120.0
            },
            {
                "pitch": 29,
                "velocity": 51,
                "duration": 0.1659,
                "tempo": 120.0
            },
            {
                "pitch": 41,
                "velocity": 51,
                "duration": 0.1659,
                "tempo": 120.0
            },
            {
                "pitch": 29,
                "velocity": 51,
                "duration": 0.1682,
                "tempo": 120.0
            },
            {
                "pitch": 41,
                "velocity": 51,
                "duration": 0.1682,
                "tempo": 120.0
            },
            {
                "pitch": 29,
                "velocity": 51,
                "duration": 0.1682,
                "tempo": 120.0
            },
            {
                "pitch": 41,
                "velocity": 51,
                "duration": 0.1682,
                "tempo": 120.0
            },
            {
                "pitch": 29,
                "velocity": 51,
                "duration": 0.1682,
                "tempo": 120.0
            },
            {
                "pitch": 41,
                "velocity": 51,
                "duration": 0.1682,
                "tempo": 120.0
            },
            {
                "pitch": 29,
                "velocity": 51,
                "duration": 0.1659,
                "tempo": 120.0
            },
            {
                "pitch": 41,
                "velocity": 51,
                "duration": 0.1682,
                "tempo": 120.0
            },
            {
                "pitch": 24,
                "velocity": 51,
                "duration": 0.1659,
                "tempo": 120.0
            },
            {
                "pitch": 36,
                "velocity": 51,
                "duration": 0.1659,
                "tempo": 120.0
            },
            {
                "pitch": 24,
                "velocity": 51,
                "duration": 0.1682,
                "tempo": 120.0
            },
            {
                "pitch": 36,
                "velocity": 51,
                "duration": 0.1682,
                "tempo": 120.0
            },
            {
                "pitch": 24,
                "velocity": 51,
                "duration": 0.1659,
                "tempo": 120.0
            },
            {
                "pitch": 36,
                "velocity": 51,
                "duration": 0.1659,
                "tempo": 120.0
            },
            {
                "pitch": 24,
                "velocity": 51,
                "duration": 0.1727,
                "tempo": 120.0
            },
            {
                "pitch": 36,
                "velocity": 51,
                "duration": 0.1705,
                "tempo": 120.0
            },
            {
                "pitch": 24,
                "velocity": 51,
                "duration": 0.1636,
                "tempo": 120.0
            },
            {
                "pitch": 36,
                "velocity": 51,
                "duration": 0.1636,
                "tempo": 120.0
            },
            {
                "pitch": 24,
                "velocity": 51,
                "duration": 0.1727,
                "tempo": 120.0
            },
            {
                "pitch": 36,
                "velocity": 51,
                "duration": 0.1705,
                "tempo": 120.0
            },
            {
                "pitch": 24,
                "velocity": 51,
                "duration": 0.1659,
                "tempo": 120.0
            },
            {
                "pitch": 36,
                "velocity": 51,
                "duration": 0.1659,
                "tempo": 120.0
            },
            {
                "pitch": 24,
                "velocity": 51,
                "duration": 0.1614,
                "tempo": 120.0
            },
            {
                "pitch": 36,
                "velocity": 51,
                "duration": 0.1636,
                "tempo": 120.0
            },
            {
                "pitch": 34,
                "velocity": 51,
                "duration": 0.1682,
                "tempo": 120.0
            },
            {
                "pitch": 46,
                "velocity": 51,
                "duration": 0.1682,
                "tempo": 120.0
            },
            {
                "pitch": 34,
                "velocity": 51,
                "duration": 0.1705,
                "tempo": 120.0
            },
            {
                "pitch": 46,
                "velocity": 51,
                "duration": 0.1727,
                "tempo": 120.0
            },
            {
                "pitch": 34,
                "velocity": 51,
                "duration": 0.1682,
                "tempo": 120.0
            },
            {
                "pitch": 46,
                "velocity": 51,
                "duration": 0.1682,
                "tempo": 120.0
            },
            {
                "pitch": 34,
                "velocity": 51,
                "duration": 0.1659,
                "tempo": 120.0
            },
            {
                "pitch": 46,
                "velocity": 51,
                "duration": 0.1659,
                "tempo": 120.0
            },
            {
                "pitch": 34,
                "velocity": 51,
                "duration": 0.1636,
                "tempo": 120.0
            },
            {
                "pitch": 46,
                "velocity": 51,
                "duration": 0.1614,
                "tempo": 120.0
            },
            {
                "pitch": 34,
                "velocity": 51,
                "duration": 0.1682,
                "tempo": 120.0
            },
            {
                "pitch": 46,
                "velocity": 51,
                "duration": 0.1682,
                "tempo": 120.0
            },
            {
                "pitch": 34,
                "velocity": 51,
                "duration": 0.1705,
                "tempo": 120.0
            },
            {
                "pitch": 46,
                "velocity": 51,
                "duration": 0.1705,
                "tempo": 120.0
            },
            {
                "pitch": 34,
                "velocity": 51,
                "duration": 0.1636,
                "tempo": 120.0
            },
            {
                "pitch": 46,
                "velocity": 51,
                "duration": 0.1636,
                "tempo": 120.0
            },
            {
                "pitch": 33,
                "velocity": 51,
                "duration": 0.1682,
                "tempo": 120.0
            },
            {
                "pitch": 45,
                "velocity": 51,
                "duration": 0.1682,
                "tempo": 120.0
            },
            {
                "pitch": 33,
                "velocity": 51,
                "duration": 0.1659,
                "tempo": 120.0
            },
            {
                "pitch": 45,
                "velocity": 51,
                "duration": 0.1659,
                "tempo": 120.0
            },
            {
                "pitch": 33,
                "velocity": 51,
                "duration": 0.1705,
                "tempo": 120.0
            },
            {
                "pitch": 45,
                "velocity": 51,
                "duration": 0.1705,
                "tempo": 120.0
            },
            {
                "pitch": 33,
                "velocity": 51,
                "duration": 0.1659,
                "tempo": 120.0
            },
            {
                "pitch": 45,
                "velocity": 51,
                "duration": 0.1659,
                "tempo": 120.0
            },
            {
                "pitch": 33,
                "velocity": 51,
                "duration": 0.1636,
                "tempo": 120.0
            },
            {
                "pitch": 45,
                "velocity": 51,
                "duration": 0.1614,
                "tempo": 120.0
            },
            {
                "pitch": 33,
                "velocity": 51,
                "duration": 0.1682,
                "tempo": 120.0
            },
            {
                "pitch": 45,
                "velocity": 51,
                "duration": 0.1682,
                "tempo": 120.0
            },
            {
                "pitch": 33,
                "velocity": 51,
                "duration": 0.1682,
                "tempo": 120.0
            },
            {
                "pitch": 45,
                "velocity": 51,
                "duration": 0.1682,
                "tempo": 120.0
            },
            {
                "pitch": 33,
                "velocity": 51,
                "duration": 0.1705,
                "tempo": 120.0
            },
            {
                "pitch": 45,
                "velocity": 51,
                "duration": 0.1705,
                "tempo": 120.0
            },
            {
                "pitch": 29,
                "velocity": 51,
                "duration": 0.1636,
                "tempo": 120.0
            },
            {
                "pitch": 41,
                "velocity": 51,
                "duration": 0.1636,
                "tempo": 120.0
            },
            {
                "pitch": 29,
                "velocity": 51,
                "duration": 0.1659,
                "tempo": 120.0
            },
            {
                "pitch": 41,
                "velocity": 51,
                "duration": 0.1659,
                "tempo": 120.0
            },
            {
                "pitch": 29,
                "velocity": 51,
                "duration": 0.1682,
                "tempo": 120.0
            },
            {
                "pitch": 41,
                "velocity": 51,
                "duration": 0.1682,
                "tempo": 120.0
            },
            {
                "pitch": 29,
                "velocity": 51,
                "duration": 0.1705,
                "tempo": 120.0
            },
            {
                "pitch": 41,
                "velocity": 51,
                "duration": 0.1705,
                "tempo": 120.0
            },
            {
                "pitch": 29,
                "velocity": 51,
                "duration": 0.1636,
                "tempo": 120.0
            },
            {
                "pitch": 41,
                "velocity": 51,
                "duration": 0.1636,
                "tempo": 120.0
            },
            {
                "pitch": 29,
                "velocity": 51,
                "duration": 0.1727,
                "tempo": 120.0
            },
            {
                "pitch": 41,
                "velocity": 51,
                "duration": 0.1705,
                "tempo": 120.0
            },
            {
                "pitch": 29,
                "velocity": 51,
                "duration": 0.1636,
                "tempo": 120.0
            },
            {
                "pitch": 41,
                "velocity": 51,
                "duration": 0.1636,
                "tempo": 120.0
            },
            {
                "pitch": 29,
                "velocity": 51,
                "duration": 0.1682,
                "tempo": 120.0
            },
            {
                "pitch": 41,
                "velocity": 51,
                "duration": 0.1682,
                "tempo": 120.0
            },
            {
                "pitch": 28,
                "velocity": 51,
                "duration": 0.1682,
                "tempo": 120.0
            },
            {
                "pitch": 40,
                "velocity": 51,
                "duration": 0.1682,
                "tempo": 120.0
            },
            {
                "pitch": 28,
                "velocity": 51,
                "duration": 0.1705,
                "tempo": 120.0
            },
            {
                "pitch": 40,
                "velocity": 51,
                "duration": 0.1705,
                "tempo": 120.0
            },
            {
                "pitch": 28,
                "velocity": 51,
                "duration": 0.1636,
                "tempo": 120.0
            },
            {
                "pitch": 40,
                "velocity": 51,
                "duration": 0.1636,
                "tempo": 120.0
            },
            {
                "pitch": 28,
                "velocity": 51,
                "duration": 0.1659,
                "tempo": 120.0
            },
            {
                "pitch": 40,
                "velocity": 51,
                "duration": 0.1659,
                "tempo": 120.0
            },
            {
                "pitch": 28,
                "velocity": 51,
                "duration": 0.1682,
                "tempo": 120.0
            },
            {
                "pitch": 40,
                "velocity": 51,
                "duration": 0.1682,
                "tempo": 120.0
            },
            {
                "pitch": 28,
                "velocity": 51,
                "duration": 0.1659,
                "tempo": 120.0
            },
            {
                "pitch": 40,
                "velocity": 51,
                "duration": 0.1659,
                "tempo": 120.0
            },
            {
                "pitch": 28,
                "velocity": 51,
                "duration": 0.1682,
                "tempo": 120.0
            },
            {
                "pitch": 40,
                "velocity": 51,
                "duration": 0.1659,
                "tempo": 120.0
            },
            {
                "pitch": 28,
                "velocity": 51,
                "duration": 0.1727,
                "tempo": 120.0
            },
            {
                "pitch": 40,
                "velocity": 51,
                "duration": 0.1705,
                "tempo": 120.0
            },
            {
                "pitch": 33,
                "velocity": 51,
                "duration": 0.1636,
                "tempo": 120.0
            },
            {
                "pitch": 45,
                "velocity": 51,
                "duration": 0.1636,
                "tempo": 120.0
            },
            {
                "pitch": 33,
                "velocity": 51,
                "duration": 0.1705,
                "tempo": 120.0
            },
            {
                "pitch": 45,
                "velocity": 51,
                "duration": 0.1705,
                "tempo": 120.0
            },
            {
                "pitch": 33,
                "velocity": 51,
                "duration": 0.1614,
                "tempo": 120.0
            },
            {
                "pitch": 45,
                "velocity": 51,
                "duration": 0.1636,
                "tempo": 120.0
            },
            {
                "pitch": 33,
                "velocity": 51,
                "duration": 0.1659,
                "tempo": 120.0
            },
            {
                "pitch": 45,
                "velocity": 51,
                "duration": 0.1682,
                "tempo": 120.0
            },
            {
                "pitch": 33,
                "velocity": 51,
                "duration": 0.1682,
                "tempo": 120.0
            },
            {
                "pitch": 45,
                "velocity": 51,
                "duration": 0.1682,
                "tempo": 120.0
            },
            {
                "pitch": 33,
                "velocity": 51,
                "duration": 0.1659,
                "tempo": 120.0
            },
            {
                "pitch": 45,
                "velocity": 51,
                "duration": 0.1659,
                "tempo": 120.0
            },
            {
                "pitch": 33,
                "velocity": 51,
                "duration": 0.1682,
                "tempo": 120.0
            },
            {
                "pitch": 45,
                "velocity": 51,
                "duration": 0.1659,
                "tempo": 120.0
            },
            {
                "pitch": 33,
                "velocity": 51,
                "duration": 0.1727,
                "tempo": 120.0
            },
            {
                "pitch": 45,
                "velocity": 51,
                "duration": 0.1705,
                "tempo": 120.0
            },
            {
                "pitch": 26,
                "velocity": 51,
                "duration": 0.1682,
                "tempo": 120.0
            },
            {
                "pitch": 38,
                "velocity": 51,
                "duration": 0.0818,
                "tempo": 120.0
            },
            {
                "pitch": 38,
                "velocity": 51,
                "duration": 0.0841,
                "tempo": 120.0
            },
            {
                "pitch": 26,
                "velocity": 51,
                "duration": 0.1659,
                "tempo": 120.0
            },
            {
                "pitch": 38,
                "velocity": 51,
                "duration": 0.0841,
                "tempo": 120.0
            },
            {
                "pitch": 38,
                "velocity": 51,
                "duration": 0.0818,
                "tempo": 120.0
            },
            {
                "pitch": 26,
                "velocity": 51,
                "duration": 0.1636,
                "tempo": 120.0
            },
            {
                "pitch": 38,
                "velocity": 51,
                "duration": 0.0818,
                "tempo": 120.0
            },
            {
                "pitch": 38,
                "velocity": 51,
                "duration": 0.0818,
                "tempo": 120.0
            },
            {
                "pitch": 26,
                "velocity": 51,
                "duration": 0.1705,
                "tempo": 120.0
            },
            {
                "pitch": 38,
                "velocity": 51,
                "duration": 0.0864,
                "tempo": 120.0
            },
            {
                "pitch": 38,
                "velocity": 51,
                "duration": 0.0841,
                "tempo": 120.0
            },
            {
                "pitch": 26,
                "velocity": 51,
                "duration": 0.1636,
                "tempo": 120.0
            },
            {
                "pitch": 38,
                "velocity": 51,
                "duration": 0.0818,
                "tempo": 120.0
            },
            {
                "pitch": 38,
                "velocity": 51,
                "duration": 0.0818,
                "tempo": 120.0
            },
            {
                "pitch": 26,
                "velocity": 51,
                "duration": 0.1682,
                "tempo": 120.0
            },
            {
                "pitch": 38,
                "velocity": 51,
                "duration": 0.0841,
                "tempo": 120.0
            },
            {
                "pitch": 38,
                "velocity": 51,
                "duration": 0.0841,
                "tempo": 120.0
            },
            {
                "pitch": 26,
                "velocity": 51,
                "duration": 0.1682,
                "tempo": 120.0
            },
            {
                "pitch": 38,
                "velocity": 51,
                "duration": 0.0841,
                "tempo": 120.0
            },
            {
                "pitch": 38,
                "velocity": 51,
                "duration": 0.0818,
                "tempo": 120.0
            },
            {
                "pitch": 26,
                "velocity": 51,
                "duration": 0.1727,
                "tempo": 120.0
            },
            {
                "pitch": 38,
                "velocity": 51,
                "duration": 0.0864,
                "tempo": 120.0
            },
            {
                "pitch": 38,
                "velocity": 51,
                "duration": 0.0841,
                "tempo": 120.0
            },
            {
                "pitch": 29,
                "velocity": 51,
                "duration": 0.1614,
                "tempo": 120.0
            },
            {
                "pitch": 41,
                "velocity": 51,
                "duration": 0.1636,
                "tempo": 120.0
            },
            {
                "pitch": 29,
                "velocity": 51,
                "duration": 0.1705,
                "tempo": 120.0
            },
            {
                "pitch": 41,
                "velocity": 51,
                "duration": 0.1705,
                "tempo": 120.0
            },
            {
                "pitch": 29,
                "velocity": 51,
                "duration": 0.1636,
                "tempo": 120.0
            },
            {
                "pitch": 41,
                "velocity": 51,
                "duration": 0.1636,
                "tempo": 120.0
            },
            {
                "pitch": 29,
                "velocity": 51,
                "duration": 0.1705,
                "tempo": 120.0
            },
            {
                "pitch": 41,
                "velocity": 51,
                "duration": 0.1705,
                "tempo": 120.0
            },
            {
                "pitch": 29,
                "velocity": 51,
                "duration": 0.1636,
                "tempo": 120.0
            },
            {
                "pitch": 41,
                "velocity": 51,
                "duration": 0.1636,
                "tempo": 120.0
            },
            {
                "pitch": 29,
                "velocity": 51,
                "duration": 0.1705,
                "tempo": 120.0
            },
            {
                "pitch": 41,
                "velocity": 51,
                "duration": 0.1727,
                "tempo": 120.0
            },
            {
                "pitch": 29,
                "velocity": 51,
                "duration": 0.1636,
                "tempo": 120.0
            },
            {
                "pitch": 41,
                "velocity": 51,
                "duration": 0.1636,
                "tempo": 120.0
            },
            {
                "pitch": 29,
                "velocity": 51,
                "duration": 0.1682,
                "tempo": 120.0
            },
            {
                "pitch": 41,
                "velocity": 51,
                "duration": 0.1659,
                "tempo": 120.0
            },
            {
                "pitch": 28,
                "velocity": 51,
                "duration": 0.1682,
                "tempo": 120.0
            },
            {
                "pitch": 40,
                "velocity": 51,
                "duration": 0.1682,
                "tempo": 120.0
            },
            {
                "pitch": 28,
                "velocity": 51,
                "duration": 0.1682,
                "tempo": 120.0
            },
            {
                "pitch": 40,
                "velocity": 51,
                "duration": 0.1682,
                "tempo": 120.0
            },
            {
                "pitch": 28,
                "velocity": 51,
                "duration": 0.1682,
                "tempo": 120.0
            },
            {
                "pitch": 40,
                "velocity": 51,
                "duration": 0.1682,
                "tempo": 120.0
            },
            {
                "pitch": 28,
                "velocity": 51,
                "duration": 0.1705,
                "tempo": 120.0
            },
            {
                "pitch": 40,
                "velocity": 51,
                "duration": 0.1705,
                "tempo": 120.0
            },
            {
                "pitch": 28,
                "velocity": 51,
                "duration": 0.1636,
                "tempo": 120.0
            },
            {
                "pitch": 40,
                "velocity": 51,
                "duration": 0.1636,
                "tempo": 120.0
            },
            {
                "pitch": 28,
                "velocity": 51,
                "duration": 0.1682,
                "tempo": 120.0
            },
            {
                "pitch": 40,
                "velocity": 51,
                "duration": 0.1682,
                "tempo": 120.0
            },
            {
                "pitch": 28,
                "velocity": 51,
                "duration": 0.1659,
                "tempo": 120.0
            },
            {
                "pitch": 40,
                "velocity": 51,
                "duration": 0.1659,
                "tempo": 120.0
            },
            {
                "pitch": 28,
                "velocity": 51,
                "duration": 0.1727,
                "tempo": 120.0
            },
            {
                "pitch": 40,
                "velocity": 51,
                "duration": 0.1705,
                "tempo": 120.0
            },
            {
                "pitch": 33,
                "velocity": 51,
                "duration": 0.1636,
                "tempo": 120.0
            },
            {
                "pitch": 45,
                "velocity": 51,
                "duration": 0.1614,
                "tempo": 120.0
            },
            {
                "pitch": 33,
                "velocity": 51,
                "duration": 0.1682,
                "tempo": 120.0
            },
            {
                "pitch": 45,
                "velocity": 51,
                "duration": 0.1682,
                "tempo": 120.0
            },
            {
                "pitch": 33,
                "velocity": 51,
                "duration": 0.1682,
                "tempo": 120.0
            },
            {
                "pitch": 45,
                "velocity": 51,
                "duration": 0.1682,
                "tempo": 120.0
            },
            {
                "pitch": 33,
                "velocity": 51,
                "duration": 0.1682,
                "tempo": 120.0
            },
            {
                "pitch": 45,
                "velocity": 51,
                "duration": 0.1682,
                "tempo": 120.0
            },
            {
                "pitch": 33,
                "velocity": 51,
                "duration": 0.1659,
                "tempo": 120.0
            },
            {
                "pitch": 45,
                "velocity": 51,
                "duration": 0.1682,
                "tempo": 120.0
            },
            {
                "pitch": 33,
                "velocity": 51,
                "duration": 0.1659,
                "tempo": 120.0
            },
            {
                "pitch": 45,
                "velocity": 51,
                "duration": 0.1659,
                "tempo": 120.0
            },
            {
                "pitch": 33,
                "velocity": 51,
                "duration": 0.1682,
                "tempo": 120.0
            },
            {
                "pitch": 45,
                "velocity": 51,
                "duration": 0.1682,
                "tempo": 120.0
            },
            {
                "pitch": 33,
                "velocity": 51,
                "duration": 0.1727,
                "tempo": 120.0
            },
            {
                "pitch": 45,
                "velocity": 51,
                "duration": 0.1705,
                "tempo": 120.0
            },
            {
                "pitch": 26,
                "velocity": 51,
                "duration": 0.1682,
                "tempo": 120.0
            },
            {
                "pitch": 38,
                "velocity": 51,
                "duration": 0.0841,
                "tempo": 120.0
            },
            {
                "pitch": 38,
                "velocity": 51,
                "duration": 0.0841,
                "tempo": 120.0
            },
            {
                "pitch": 26,
                "velocity": 51,
                "duration": 0.1614,
                "tempo": 120.0
            },
            {
                "pitch": 38,
                "velocity": 51,
                "duration": 0.0818,
                "tempo": 120.0
            },
            {
                "pitch": 38,
                "velocity": 51,
                "duration": 0.0818,
                "tempo": 120.0
            },
            {
                "pitch": 26,
                "velocity": 51,
                "duration": 0.1682,
                "tempo": 120.0
            },
            {
                "pitch": 38,
                "velocity": 51,
                "duration": 0.0841,
                "tempo": 120.0
            },
            {
                "pitch": 38,
                "velocity": 51,
                "duration": 0.0841,
                "tempo": 120.0
            },
            {
                "pitch": 26,
                "velocity": 51,
                "duration": 0.1659,
                "tempo": 120.0
            },
            {
                "pitch": 38,
                "velocity": 51,
                "duration": 0.0841,
                "tempo": 120.0
            },
            {
                "pitch": 38,
                "velocity": 51,
                "duration": 0.0841,
                "tempo": 120.0
            },
            {
                "pitch": 26,
                "velocity": 51,
                "duration": 0.1682,
                "tempo": 120.0
            },
            {
                "pitch": 38,
                "velocity": 51,
                "duration": 0.0841,
                "tempo": 120.0
            },
            {
                "pitch": 38,
                "velocity": 51,
                "duration": 0.0841,
                "tempo": 120.0
            },
            {
                "pitch": 26,
                "velocity": 51,
                "duration": 0.1705,
                "tempo": 120.0
            },
            {
                "pitch": 38,
                "velocity": 51,
                "duration": 0.0841,
                "tempo": 120.0
            },
            {
                "pitch": 38,
                "velocity": 51,
                "duration": 0.0864,
                "tempo": 120.0
            },
            {
                "pitch": 26,
                "velocity": 51,
                "duration": 0.1636,
                "tempo": 120.0
            },
            {
                "pitch": 38,
                "velocity": 51,
                "duration": 0.0818,
                "tempo": 120.0
            },
            {
                "pitch": 38,
                "velocity": 51,
                "duration": 0.0818,
                "tempo": 120.0
            },
            {
                "pitch": 26,
                "velocity": 51,
                "duration": 0.1659,
                "tempo": 120.0
            },
            {
                "pitch": 38,
                "velocity": 51,
                "duration": 0.0841,
                "tempo": 120.0
            },
            {
                "pitch": 38,
                "velocity": 51,
                "duration": 0.0818,
                "tempo": 120.0
            },
            {
                "pitch": 29,
                "velocity": 51,
                "duration": 0.1682,
                "tempo": 120.0
            },
            {
                "pitch": 41,
                "velocity": 51,
                "duration": 0.1682,
                "tempo": 120.0
            },
            {
                "pitch": 29,
                "velocity": 51,
                "duration": 0.1682,
                "tempo": 120.0
            },
            {
                "pitch": 41,
                "velocity": 51,
                "duration": 0.1682,
                "tempo": 120.0
            },
            {
                "pitch": 29,
                "velocity": 51,
                "duration": 0.1682,
                "tempo": 120.0
            },
            {
                "pitch": 41,
                "velocity": 51,
                "duration": 0.1682,
                "tempo": 120.0
            },
            {
                "pitch": 29,
                "velocity": 51,
                "duration": 0.1705,
                "tempo": 120.0
            },
            {
                "pitch": 41,
                "velocity": 51,
                "duration": 0.1705,
                "tempo": 120.0
            },
            {
                "pitch": 31,
                "velocity": 51,
                "duration": 0.1636,
                "tempo": 120.0
            },
            {
                "pitch": 43,
                "velocity": 51,
                "duration": 0.1636,
                "tempo": 120.0
            },
            {
                "pitch": 31,
                "velocity": 51,
                "duration": 0.1682,
                "tempo": 120.0
            },
            {
                "pitch": 43,
                "velocity": 51,
                "duration": 0.1682,
                "tempo": 120.0
            },
            {
                "pitch": 31,
                "velocity": 51,
                "duration": 0.1682,
                "tempo": 120.0
            },
            {
                "pitch": 43,
                "velocity": 51,
                "duration": 0.1659,
                "tempo": 120.0
            },
            {
                "pitch": 31,
                "velocity": 51,
                "duration": 0.1727,
                "tempo": 120.0
            },
            {
                "pitch": 43,
                "velocity": 51,
                "duration": 0.1705,
                "tempo": 120.0
            },
            {
                "pitch": 33,
                "velocity": 51,
                "duration": 0.1636,
                "tempo": 120.0
            },
            {
                "pitch": 45,
                "velocity": 51,
                "duration": 0.0818,
                "tempo": 120.0
            },
            {
                "pitch": 45,
                "velocity": 51,
                "duration": 0.0818,
                "tempo": 120.0
            },
            {
                "pitch": 33,
                "velocity": 51,
                "duration": 0.1682,
                "tempo": 120.0
            },
            {
                "pitch": 45,
                "velocity": 51,
                "duration": 0.0841,
                "tempo": 120.0
            },
            {
                "pitch": 45,
                "velocity": 51,
                "duration": 0.0841,
                "tempo": 120.0
            },
            {
                "pitch": 33,
                "velocity": 51,
                "duration": 0.1705,
                "tempo": 120.0
            },
            {
                "pitch": 45,
                "velocity": 51,
                "duration": 0.0864,
                "tempo": 120.0
            },
            {
                "pitch": 45,
                "velocity": 51,
                "duration": 0.0841,
                "tempo": 120.0
            },
            {
                "pitch": 33,
                "velocity": 51,
                "duration": 0.1636,
                "tempo": 120.0
            },
            {
                "pitch": 45,
                "velocity": 51,
                "duration": 0.0818,
                "tempo": 120.0
            },
            {
                "pitch": 45,
                "velocity": 51,
                "duration": 0.0818,
                "tempo": 120.0
            },
            {
                "pitch": 33,
                "velocity": 51,
                "duration": 0.1659,
                "tempo": 120.0
            },
            {
                "pitch": 45,
                "velocity": 51,
                "duration": 0.0841,
                "tempo": 120.0
            },
            {
                "pitch": 45,
                "velocity": 51,
                "duration": 0.0841,
                "tempo": 120.0
            },
            {
                "pitch": 33,
                "velocity": 51,
                "duration": 0.1659,
                "tempo": 120.0
            },
            {
                "pitch": 45,
                "velocity": 51,
                "duration": 0.0818,
                "tempo": 120.0
            },
            {
                "pitch": 45,
                "velocity": 51,
                "duration": 0.0841,
                "tempo": 120.0
            },
            {
                "pitch": 33,
                "velocity": 51,
                "duration": 0.1705,
                "tempo": 120.0
            },
            {
                "pitch": 45,
                "velocity": 51,
                "duration": 0.0864,
                "tempo": 120.0
            },
            {
                "pitch": 45,
                "velocity": 51,
                "duration": 0.0864,
                "tempo": 120.0
            },
            {
                "pitch": 33,
                "velocity": 51,
                "duration": 0.1636,
                "tempo": 120.0
            },
            {
                "pitch": 45,
                "velocity": 51,
                "duration": 0.0818,
                "tempo": 120.0
            },
            {
                "pitch": 45,
                "velocity": 51,
                "duration": 0.0818,
                "tempo": 120.0
            },
            {
                "pitch": 29,
                "velocity": 51,
                "duration": 0.1682,
                "tempo": 120.0
            },
            {
                "pitch": 41,
                "velocity": 51,
                "duration": 0.0841,
                "tempo": 120.0
            },
            {
                "pitch": 41,
                "velocity": 51,
                "duration": 0.0841,
                "tempo": 120.0
            },
            {
                "pitch": 29,
                "velocity": 51,
                "duration": 0.1682,
                "tempo": 120.0
            },
            {
                "pitch": 41,
                "velocity": 51,
                "duration": 0.0841,
                "tempo": 120.0
            },
            {
                "pitch": 41,
                "velocity": 51,
                "duration": 0.0841,
                "tempo": 120.0
            },
            {
                "pitch": 29,
                "velocity": 51,
                "duration": 0.1705,
                "tempo": 120.0
            },
            {
                "pitch": 41,
                "velocity": 51,
                "duration": 0.0864,
                "tempo": 120.0
            },
            {
                "pitch": 41,
                "velocity": 51,
                "duration": 0.0841,
                "tempo": 120.0
            },
            {
                "pitch": 29,
                "velocity": 51,
                "duration": 0.1636,
                "tempo": 120.0
            },
            {
                "pitch": 41,
                "velocity": 51,
                "duration": 0.0818,
                "tempo": 120.0
            },
            {
                "pitch": 41,
                "velocity": 51,
                "duration": 0.0818,
                "tempo": 120.0
            },
            {
                "pitch": 29,
                "velocity": 51,
                "duration": 0.1682,
                "tempo": 120.0
            },
            {
                "pitch": 41,
                "velocity": 51,
                "duration": 0.0841,
                "tempo": 120.0
            },
            {
                "pitch": 41,
                "velocity": 51,
                "duration": 0.0841,
                "tempo": 120.0
            },
            {
                "pitch": 29,
                "velocity": 51,
                "duration": 0.1682,
                "tempo": 120.0
            },
            {
                "pitch": 41,
                "velocity": 51,
                "duration": 0.0818,
                "tempo": 120.0
            },
            {
                "pitch": 41,
                "velocity": 51,
                "duration": 0.0841,
                "tempo": 120.0
            },
            {
                "pitch": 29,
                "velocity": 51,
                "duration": 0.1682,
                "tempo": 120.0
            },
            {
                "pitch": 41,
                "velocity": 51,
                "duration": 0.0841,
                "tempo": 120.0
            },
            {
                "pitch": 41,
                "velocity": 51,
                "duration": 0.0841,
                "tempo": 120.0
            },
            {
                "pitch": 29,
                "velocity": 51,
                "duration": 0.1682,
                "tempo": 120.0
            },
            {
                "pitch": 41,
                "velocity": 51,
                "duration": 0.0841,
                "tempo": 120.0
            },
            {
                "pitch": 41,
                "velocity": 51,
                "duration": 0.0841,
                "tempo": 120.0
            },
            {
                "pitch": 31,
                "velocity": 51,
                "duration": 0.1682,
                "tempo": 120.0
            },
            {
                "pitch": 43,
                "velocity": 51,
                "duration": 0.0841,
                "tempo": 120.0
            },
            {
                "pitch": 43,
                "velocity": 51,
                "duration": 0.0841,
                "tempo": 120.0
            },
            {
                "pitch": 31,
                "velocity": 51,
                "duration": 0.1682,
                "tempo": 120.0
            },
            {
                "pitch": 43,
                "velocity": 51,
                "duration": 0.0841,
                "tempo": 120.0
            },
            {
                "pitch": 43,
                "velocity": 51,
                "duration": 0.0841,
                "tempo": 120.0
            },
            {
                "pitch": 31,
                "velocity": 51,
                "duration": 0.1659,
                "tempo": 120.0
            },
            {
                "pitch": 43,
                "velocity": 51,
                "duration": 0.0841,
                "tempo": 120.0
            },
            {
                "pitch": 43,
                "velocity": 51,
                "duration": 0.0841,
                "tempo": 120.0
            },
            {
                "pitch": 31,
                "velocity": 51,
                "duration": 0.1682,
                "tempo": 120.0
            },
            {
                "pitch": 43,
                "velocity": 51,
                "duration": 0.0841,
                "tempo": 120.0
            },
            {
                "pitch": 43,
                "velocity": 51,
                "duration": 0.0841,
                "tempo": 120.0
            },
            {
                "pitch": 31,
                "velocity": 51,
                "duration": 0.1659,
                "tempo": 120.0
            },
            {
                "pitch": 43,
                "velocity": 51,
                "duration": 0.0841,
                "tempo": 120.0
            },
            {
                "pitch": 43,
                "velocity": 51,
                "duration": 0.0818,
                "tempo": 120.0
            },
            {
                "pitch": 31,
                "velocity": 51,
                "duration": 0.1682,
                "tempo": 120.0
            },
            {
                "pitch": 43,
                "velocity": 51,
                "duration": 0.0841,
                "tempo": 120.0
            },
            {
                "pitch": 43,
                "velocity": 51,
                "duration": 0.0818,
                "tempo": 120.0
            },
            {
                "pitch": 31,
                "velocity": 51,
                "duration": 0.1727,
                "tempo": 120.0
            },
            {
                "pitch": 43,
                "velocity": 51,
                "duration": 0.0864,
                "tempo": 120.0
            },
            {
                "pitch": 43,
                "velocity": 51,
                "duration": 0.0841,
                "tempo": 120.0
            },
            {
                "pitch": 31,
                "velocity": 51,
                "duration": 0.1682,
                "tempo": 120.0
            },
            {
                "pitch": 43,
                "velocity": 51,
                "duration": 0.0841,
                "tempo": 120.0
            },
            {
                "pitch": 43,
                "velocity": 51,
                "duration": 0.0818,
                "tempo": 120.0
            },
            {
                "pitch": 33,
                "velocity": 51,
                "duration": 0.1636,
                "tempo": 120.0
            },
            {
                "pitch": 45,
                "velocity": 51,
                "duration": 0.0818,
                "tempo": 120.0
            },
            {
                "pitch": 45,
                "velocity": 51,
                "duration": 0.0818,
                "tempo": 120.0
            },
            {
                "pitch": 33,
                "velocity": 51,
                "duration": 0.1659,
                "tempo": 120.0
            },
            {
                "pitch": 45,
                "velocity": 51,
                "duration": 0.0818,
                "tempo": 120.0
            },
            {
                "pitch": 45,
                "velocity": 51,
                "duration": 0.0841,
                "tempo": 120.0
            },
            {
                "pitch": 33,
                "velocity": 51,
                "duration": 0.1705,
                "tempo": 120.0
            },
            {
                "pitch": 45,
                "velocity": 51,
                "duration": 0.0864,
                "tempo": 120.0
            },
            {
                "pitch": 45,
                "velocity": 51,
                "duration": 0.0864,
                "tempo": 120.0
            },
            {
                "pitch": 33,
                "velocity": 51,
                "duration": 0.1636,
                "tempo": 120.0
            },
            {
                "pitch": 45,
                "velocity": 51,
                "duration": 0.0818,
                "tempo": 120.0
            },
            {
                "pitch": 45,
                "velocity": 51,
                "duration": 0.0818,
                "tempo": 120.0
            },
            {
                "pitch": 33,
                "velocity": 51,
                "duration": 0.1682,
                "tempo": 120.0
            },
            {
                "pitch": 45,
                "velocity": 51,
                "duration": 0.0818,
                "tempo": 120.0
            },
            {
                "pitch": 45,
                "velocity": 51,
                "duration": 0.0841,
                "tempo": 120.0
            },
            {
                "pitch": 33,
                "velocity": 51,
                "duration": 0.1682,
                "tempo": 120.0
            },
            {
                "pitch": 45,
                "velocity": 51,
                "duration": 0.0841,
                "tempo": 120.0
            },
            {
                "pitch": 45,
                "velocity": 51,
                "duration": 0.0841,
                "tempo": 120.0
            },
            {
                "pitch": 33,
                "velocity": 51,
                "duration": 0.1682,
                "tempo": 120.0
            },
            {
                "pitch": 45,
                "velocity": 51,
                "duration": 0.0841,
                "tempo": 120.0
            },
            {
                "pitch": 45,
                "velocity": 51,
                "duration": 0.0841,
                "tempo": 120.0
            },
            {
                "pitch": 33,
                "velocity": 51,
                "duration": 0.1682,
                "tempo": 120.0
            },
            {
                "pitch": 45,
                "velocity": 51,
                "duration": 0.0841,
                "tempo": 120.0
            },
            {
                "pitch": 45,
                "velocity": 51,
                "duration": 0.0841,
                "tempo": 120.0
            },
            {
                "pitch": 33,
                "velocity": 51,
                "duration": 0.1659,
                "tempo": 120.0
            },
            {
                "pitch": 45,
                "velocity": 51,
                "duration": 0.0841,
                "tempo": 120.0
            },
            {
                "pitch": 45,
                "velocity": 51,
                "duration": 0.0841,
                "tempo": 120.0
            },
            {
                "pitch": 33,
                "velocity": 51,
                "duration": 0.1682,
                "tempo": 120.0
            },
            {
                "pitch": 45,
                "velocity": 51,
                "duration": 0.0841,
                "tempo": 120.0
            },
            {
                "pitch": 45,
                "velocity": 51,
                "duration": 0.0841,
                "tempo": 120.0
            },
            {
                "pitch": 33,
                "velocity": 51,
                "duration": 0.1705,
                "tempo": 120.0
            },
            {
                "pitch": 45,
                "velocity": 51,
                "duration": 0.0841,
                "tempo": 120.0
            },
            {
                "pitch": 45,
                "velocity": 51,
                "duration": 0.0864,
                "tempo": 120.0
            },
            {
                "pitch": 33,
                "velocity": 51,
                "duration": 0.1636,
                "tempo": 120.0
            },
            {
                "pitch": 45,
                "velocity": 51,
                "duration": 0.0818,
                "tempo": 120.0
            },
            {
                "pitch": 45,
                "velocity": 51,
                "duration": 0.0818,
                "tempo": 120.0
            },
            {
                "pitch": 33,
                "velocity": 51,
                "duration": 0.1682,
                "tempo": 120.0
            },
            {
                "pitch": 45,
                "velocity": 51,
                "duration": 0.0841,
                "tempo": 120.0
            },
            {
                "pitch": 45,
                "velocity": 51,
                "duration": 0.0841,
                "tempo": 120.0
            },
            {
                "pitch": 33,
                "velocity": 51,
                "duration": 0.1682,
                "tempo": 120.0
            },
            {
                "pitch": 45,
                "velocity": 51,
                "duration": 0.0841,
                "tempo": 120.0
            },
            {
                "pitch": 45,
                "velocity": 51,
                "duration": 0.0841,
                "tempo": 120.0
            },
            {
                "pitch": 33,
                "velocity": 51,
                "duration": 0.1705,
                "tempo": 120.0
            },
            {
                "pitch": 45,
                "velocity": 51,
                "duration": 0.0864,
                "tempo": 120.0
            },
            {
                "pitch": 45,
                "velocity": 51,
                "duration": 0.0841,
                "tempo": 120.0
            },
            {
                "pitch": 33,
                "velocity": 51,
                "duration": 0.1636,
                "tempo": 120.0
            },
            {
                "pitch": 45,
                "velocity": 51,
                "duration": 0.0818,
                "tempo": 120.0
            },
            {
                "pitch": 45,
                "velocity": 51,
                "duration": 0.0818,
                "tempo": 120.0
            },
            {
                "pitch": 29,
                "velocity": 51,
                "duration": 0.1659,
                "tempo": 120.0
            },
            {
                "pitch": 41,
                "velocity": 51,
                "duration": 0.0818,
                "tempo": 120.0
            },
            {
                "pitch": 41,
                "velocity": 51,
                "duration": 0.0841,
                "tempo": 120.0
            },
            {
                "pitch": 29,
                "velocity": 51,
                "duration": 0.1682,
                "tempo": 120.0
            },
            {
                "pitch": 41,
                "velocity": 51,
                "duration": 0.0841,
                "tempo": 120.0
            },
            {
                "pitch": 41,
                "velocity": 51,
                "duration": 0.0841,
                "tempo": 120.0
            },
            {
                "pitch": 29,
                "velocity": 51,
                "duration": 0.1727,
                "tempo": 120.0
            },
            {
                "pitch": 41,
                "velocity": 51,
                "duration": 0.0841,
                "tempo": 120.0
            },
            {
                "pitch": 41,
                "velocity": 51,
                "duration": 0.0864,
                "tempo": 120.0
            },
            {
                "pitch": 29,
                "velocity": 51,
                "duration": 0.1636,
                "tempo": 120.0
            },
            {
                "pitch": 41,
                "velocity": 51,
                "duration": 0.0818,
                "tempo": 120.0
            },
            {
                "pitch": 41,
                "velocity": 51,
                "duration": 0.0818,
                "tempo": 120.0
            },
            {
                "pitch": 29,
                "velocity": 51,
                "duration": 0.1682,
                "tempo": 120.0
            },
            {
                "pitch": 41,
                "velocity": 51,
                "duration": 0.0841,
                "tempo": 120.0
            },
            {
                "pitch": 41,
                "velocity": 51,
                "duration": 0.0841,
                "tempo": 120.0
            },
            {
                "pitch": 29,
                "velocity": 51,
                "duration": 0.1682,
                "tempo": 120.0
            },
            {
                "pitch": 41,
                "velocity": 51,
                "duration": 0.0841,
                "tempo": 120.0
            },
            {
                "pitch": 41,
                "velocity": 51,
                "duration": 0.0841,
                "tempo": 120.0
            },
            {
                "pitch": 29,
                "velocity": 51,
                "duration": 0.1705,
                "tempo": 120.0
            },
            {
                "pitch": 41,
                "velocity": 51,
                "duration": 0.0864,
                "tempo": 120.0
            },
            {
                "pitch": 41,
                "velocity": 51,
                "duration": 0.0841,
                "tempo": 120.0
            },
            {
                "pitch": 29,
                "velocity": 51,
                "duration": 0.1636,
                "tempo": 120.0
            },
            {
                "pitch": 41,
                "velocity": 51,
                "duration": 0.0818,
                "tempo": 120.0
            },
            {
                "pitch": 41,
                "velocity": 51,
                "duration": 0.0818,
                "tempo": 120.0
            },
            {
                "pitch": 31,
                "velocity": 51,
                "duration": 0.1682,
                "tempo": 120.0
            },
            {
                "pitch": 43,
                "velocity": 51,
                "duration": 0.0841,
                "tempo": 120.0
            },
            {
                "pitch": 43,
                "velocity": 51,
                "duration": 0.0841,
                "tempo": 120.0
            },
            {
                "pitch": 31,
                "velocity": 51,
                "duration": 0.1682,
                "tempo": 120.0
            },
            {
                "pitch": 43,
                "velocity": 51,
                "duration": 0.0841,
                "tempo": 120.0
            },
            {
                "pitch": 43,
                "velocity": 51,
                "duration": 0.0841,
                "tempo": 120.0
            },
            {
                "pitch": 31,
                "velocity": 51,
                "duration": 0.1727,
                "tempo": 120.0
            },
            {
                "pitch": 43,
                "velocity": 51,
                "duration": 0.0841,
                "tempo": 120.0
            },
            {
                "pitch": 43,
                "velocity": 51,
                "duration": 0.0864,
                "tempo": 120.0
            },
            {
                "pitch": 31,
                "velocity": 51,
                "duration": 0.1636,
                "tempo": 120.0
            },
            {
                "pitch": 43,
                "velocity": 51,
                "duration": 0.0818,
                "tempo": 120.0
            },
            {
                "pitch": 43,
                "velocity": 51,
                "duration": 0.0818,
                "tempo": 120.0
            },
            {
                "pitch": 31,
                "velocity": 51,
                "duration": 0.1682,
                "tempo": 120.0
            },
            {
                "pitch": 43,
                "velocity": 51,
                "duration": 0.0841,
                "tempo": 120.0
            },
            {
                "pitch": 43,
                "velocity": 51,
                "duration": 0.0841,
                "tempo": 120.0
            },
            {
                "pitch": 31,
                "velocity": 51,
                "duration": 0.1659,
                "tempo": 120.0
            },
            {
                "pitch": 43,
                "velocity": 51,
                "duration": 0.0841,
                "tempo": 120.0
            },
            {
                "pitch": 43,
                "velocity": 51,
                "duration": 0.0841,
                "tempo": 120.0
            },
            {
                "pitch": 31,
                "velocity": 51,
                "duration": 0.1705,
                "tempo": 120.0
            },
            {
                "pitch": 43,
                "velocity": 51,
                "duration": 0.0864,
                "tempo": 120.0
            },
            {
                "pitch": 43,
                "velocity": 51,
                "duration": 0.0864,
                "tempo": 120.0
            },
            {
                "pitch": 31,
                "velocity": 51,
                "duration": 0.1659,
                "tempo": 120.0
            },
            {
                "pitch": 43,
                "velocity": 51,
                "duration": 0.0841,
                "tempo": 120.0
            },
            {
                "pitch": 43,
                "velocity": 51,
                "duration": 0.0841,
                "tempo": 120.0
            },
            {
                "pitch": 33,
                "velocity": 51,
                "duration": 0.1636,
                "tempo": 120.0
            },
            {
                "pitch": 45,
                "velocity": 51,
                "duration": 0.0818,
                "tempo": 120.0
            },
            {
                "pitch": 45,
                "velocity": 51,
                "duration": 0.0818,
                "tempo": 120.0
            },
            {
                "pitch": 33,
                "velocity": 51,
                "duration": 0.1682,
                "tempo": 120.0
            },
            {
                "pitch": 45,
                "velocity": 51,
                "duration": 0.0841,
                "tempo": 120.0
            },
            {
                "pitch": 45,
                "velocity": 51,
                "duration": 0.0841,
                "tempo": 120.0
            },
            {
                "pitch": 33,
                "velocity": 51,
                "duration": 0.1705,
                "tempo": 120.0
            },
            {
                "pitch": 45,
                "velocity": 51,
                "duration": 0.0864,
                "tempo": 120.0
            },
            {
                "pitch": 45,
                "velocity": 51,
                "duration": 0.0841,
                "tempo": 120.0
            },
            {
                "pitch": 33,
                "velocity": 51,
                "duration": 0.1636,
                "tempo": 120.0
            },
            {
                "pitch": 45,
                "velocity": 51,
                "duration": 0.0818,
                "tempo": 120.0
            },
            {
                "pitch": 45,
                "velocity": 51,
                "duration": 0.0818,
                "tempo": 120.0
            },
            {
                "pitch": 33,
                "velocity": 51,
                "duration": 0.1659,
                "tempo": 120.0
            },
            {
                "pitch": 45,
                "velocity": 51,
                "duration": 0.0818,
                "tempo": 120.0
            },
            {
                "pitch": 45,
                "velocity": 51,
                "duration": 0.0841,
                "tempo": 120.0
            },
            {
                "pitch": 33,
                "velocity": 51,
                "duration": 0.1682,
                "tempo": 120.0
            },
            {
                "pitch": 45,
                "velocity": 51,
                "duration": 0.0841,
                "tempo": 120.0
            },
            {
                "pitch": 45,
                "velocity": 51,
                "duration": 0.0841,
                "tempo": 120.0
            },
            {
                "pitch": 33,
                "velocity": 51,
                "duration": 0.1682,
                "tempo": 120.0
            },
            {
                "pitch": 45,
                "velocity": 51,
                "duration": 0.0818,
                "tempo": 120.0
            },
            {
                "pitch": 45,
                "velocity": 51,
                "duration": 0.0841,
                "tempo": 120.0
            },
            {
                "pitch": 33,
                "velocity": 51,
                "duration": 0.1682,
                "tempo": 120.0
            },
            {
                "pitch": 45,
                "velocity": 51,
                "duration": 0.0841,
                "tempo": 120.0
            },
            {
                "pitch": 45,
                "velocity": 51,
                "duration": 0.0841,
                "tempo": 120.0
            },
            {
                "pitch": 33,
                "velocity": 51,
                "duration": 0.1682,
                "tempo": 120.0
            },
            {
                "pitch": 45,
                "velocity": 51,
                "duration": 0.0841,
                "tempo": 120.0
            },
            {
                "pitch": 45,
                "velocity": 51,
                "duration": 0.0841,
                "tempo": 120.0
            },
            {
                "pitch": 33,
                "velocity": 51,
                "duration": 0.1682,
                "tempo": 120.0
            },
            {
                "pitch": 45,
                "velocity": 51,
                "duration": 0.0841,
                "tempo": 120.0
            },
            {
                "pitch": 45,
                "velocity": 51,
                "duration": 0.0841,
                "tempo": 120.0
            },
            {
                "pitch": 33,
                "velocity": 51,
                "duration": 0.1705,
                "tempo": 120.0
            },
            {
                "pitch": 45,
                "velocity": 51,
                "duration": 0.0864,
                "tempo": 120.0
            },
            {
                "pitch": 45,
                "velocity": 51,
                "duration": 0.0841,
                "tempo": 120.0
            },
            {
                "pitch": 33,
                "velocity": 51,
                "duration": 0.1636,
                "tempo": 120.0
            },
            {
                "pitch": 45,
                "velocity": 51,
                "duration": 0.0818,
                "tempo": 120.0
            },
            {
                "pitch": 45,
                "velocity": 51,
                "duration": 0.0818,
                "tempo": 120.0
            },
            {
                "pitch": 33,
                "velocity": 51,
                "duration": 0.1682,
                "tempo": 120.0
            },
            {
                "pitch": 45,
                "velocity": 51,
                "duration": 0.0841,
                "tempo": 120.0
            },
            {
                "pitch": 45,
                "velocity": 51,
                "duration": 0.0841,
                "tempo": 120.0
            },
            {
                "pitch": 33,
                "velocity": 51,
                "duration": 0.1682,
                "tempo": 120.0
            },
            {
                "pitch": 45,
                "velocity": 51,
                "duration": 0.0841,
                "tempo": 120.0
            },
            {
                "pitch": 45,
                "velocity": 51,
                "duration": 0.0841,
                "tempo": 120.0
            },
            {
                "pitch": 33,
                "velocity": 51,
                "duration": 0.1727,
                "tempo": 120.0
            },
            {
                "pitch": 45,
                "velocity": 51,
                "duration": 0.0841,
                "tempo": 120.0
            },
            {
                "pitch": 45,
                "velocity": 51,
                "duration": 0.0864,
                "tempo": 120.0
            },
            {
                "pitch": 33,
                "velocity": 51,
                "duration": 0.1636,
                "tempo": 120.0
            },
            {
                "pitch": 45,
                "velocity": 51,
                "duration": 0.0818,
                "tempo": 120.0
            },
            {
                "pitch": 45,
                "velocity": 51,
                "duration": 0.0818,
                "tempo": 120.0
            },
            {
                "pitch": 29,
                "velocity": 51,
                "duration": 0.1682,
                "tempo": 120.0
            },
            {
                "pitch": 41,
                "velocity": 51,
                "duration": 0.0841,
                "tempo": 120.0
            },
            {
                "pitch": 41,
                "velocity": 51,
                "duration": 0.0841,
                "tempo": 120.0
            },
            {
                "pitch": 29,
                "velocity": 51,
                "duration": 0.1705,
                "tempo": 120.0
            },
            {
                "pitch": 41,
                "velocity": 51,
                "duration": 0.0864,
                "tempo": 120.0
            },
            {
                "pitch": 41,
                "velocity": 51,
                "duration": 0.0864,
                "tempo": 120.0
            },
            {
                "pitch": 29,
                "velocity": 51,
                "duration": 0.1682,
                "tempo": 120.0
            },
            {
                "pitch": 41,
                "velocity": 51,
                "duration": 0.0841,
                "tempo": 120.0
            },
            {
                "pitch": 41,
                "velocity": 51,
                "duration": 0.0841,
                "tempo": 120.0
            },
            {
                "pitch": 29,
                "velocity": 51,
                "duration": 0.1636,
                "tempo": 120.0
            },
            {
                "pitch": 41,
                "velocity": 51,
                "duration": 0.0818,
                "tempo": 120.0
            },
            {
                "pitch": 41,
                "velocity": 51,
                "duration": 0.0818,
                "tempo": 120.0
            },
            {
                "pitch": 29,
                "velocity": 51,
                "duration": 0.1682,
                "tempo": 120.0
            },
            {
                "pitch": 41,
                "velocity": 51,
                "duration": 0.0841,
                "tempo": 120.0
            },
            {
                "pitch": 41,
                "velocity": 51,
                "duration": 0.0841,
                "tempo": 120.0
            },
            {
                "pitch": 29,
                "velocity": 51,
                "duration": 0.1705,
                "tempo": 120.0
            },
            {
                "pitch": 41,
                "velocity": 51,
                "duration": 0.0864,
                "tempo": 120.0
            },
            {
                "pitch": 41,
                "velocity": 51,
                "duration": 0.0841,
                "tempo": 120.0
            },
            {
                "pitch": 29,
                "velocity": 51,
                "duration": 0.1682,
                "tempo": 120.0
            },
            {
                "pitch": 41,
                "velocity": 51,
                "duration": 0.0841,
                "tempo": 120.0
            },
            {
                "pitch": 41,
                "velocity": 51,
                "duration": 0.0841,
                "tempo": 120.0
            },
            {
                "pitch": 29,
                "velocity": 51,
                "duration": 0.1682,
                "tempo": 120.0
            },
            {
                "pitch": 41,
                "velocity": 51,
                "duration": 0.0841,
                "tempo": 120.0
            },
            {
                "pitch": 41,
                "velocity": 51,
                "duration": 0.0841,
                "tempo": 120.0
            },
            {
                "pitch": 31,
                "velocity": 51,
                "duration": 0.1636,
                "tempo": 120.0
            },
            {
                "pitch": 43,
                "velocity": 51,
                "duration": 0.0818,
                "tempo": 120.0
            },
            {
                "pitch": 43,
                "velocity": 51,
                "duration": 0.0818,
                "tempo": 120.0
            },
            {
                "pitch": 31,
                "velocity": 51,
                "duration": 0.1705,
                "tempo": 120.0
            },
            {
                "pitch": 43,
                "velocity": 51,
                "duration": 0.0841,
                "tempo": 120.0
            },
            {
                "pitch": 43,
                "velocity": 51,
                "duration": 0.0864,
                "tempo": 120.0
            },
            {
                "pitch": 31,
                "velocity": 51,
                "duration": 0.1682,
                "tempo": 120.0
            },
            {
                "pitch": 43,
                "velocity": 51,
                "duration": 0.0841,
                "tempo": 120.0
            },
            {
                "pitch": 43,
                "velocity": 51,
                "duration": 0.0841,
                "tempo": 120.0
            },
            {
                "pitch": 31,
                "velocity": 51,
                "duration": 0.1636,
                "tempo": 120.0
            },
            {
                "pitch": 43,
                "velocity": 51,
                "duration": 0.0818,
                "tempo": 120.0
            },
            {
                "pitch": 43,
                "velocity": 51,
                "duration": 0.0818,
                "tempo": 120.0
            },
            {
                "pitch": 31,
                "velocity": 51,
                "duration": 0.1682,
                "tempo": 120.0
            },
            {
                "pitch": 43,
                "velocity": 51,
                "duration": 0.0841,
                "tempo": 120.0
            },
            {
                "pitch": 43,
                "velocity": 51,
                "duration": 0.0841,
                "tempo": 120.0
            },
            {
                "pitch": 31,
                "velocity": 51,
                "duration": 0.1659,
                "tempo": 120.0
            },
            {
                "pitch": 43,
                "velocity": 51,
                "duration": 0.0818,
                "tempo": 120.0
            },
            {
                "pitch": 43,
                "velocity": 51,
                "duration": 0.0841,
                "tempo": 120.0
            },
            {
                "pitch": 31,
                "velocity": 51,
                "duration": 0.1705,
                "tempo": 120.0
            },
            {
                "pitch": 43,
                "velocity": 51,
                "duration": 0.0864,
                "tempo": 120.0
            },
            {
                "pitch": 43,
                "velocity": 51,
                "duration": 0.0864,
                "tempo": 120.0
            },
            {
                "pitch": 31,
                "velocity": 51,
                "duration": 0.1682,
                "tempo": 120.0
            },
            {
                "pitch": 43,
                "velocity": 51,
                "duration": 0.0841,
                "tempo": 120.0
            },
            {
                "pitch": 43,
                "velocity": 51,
                "duration": 0.0841,
                "tempo": 120.0
            },
            {
                "pitch": 33,
                "velocity": 51,
                "duration": 0.1636,
                "tempo": 120.0
            },
            {
                "pitch": 45,
                "velocity": 51,
                "duration": 0.0818,
                "tempo": 120.0
            },
            {
                "pitch": 45,
                "velocity": 51,
                "duration": 0.0818,
                "tempo": 120.0
            },
            {
                "pitch": 33,
                "velocity": 51,
                "duration": 0.1682,
                "tempo": 120.0
            },
            {
                "pitch": 45,
                "velocity": 51,
                "duration": 0.0841,
                "tempo": 120.0
            },
            {
                "pitch": 45,
                "velocity": 51,
                "duration": 0.0841,
                "tempo": 120.0
            },
            {
                "pitch": 33,
                "velocity": 51,
                "duration": 0.1705,
                "tempo": 120.0
            },
            {
                "pitch": 45,
                "velocity": 51,
                "duration": 0.0864,
                "tempo": 120.0
            },
            {
                "pitch": 45,
                "velocity": 51,
                "duration": 0.0841,
                "tempo": 120.0
            },
            {
                "pitch": 33,
                "velocity": 51,
                "duration": 0.1636,
                "tempo": 120.0
            },
            {
                "pitch": 45,
                "velocity": 51,
                "duration": 0.0818,
                "tempo": 120.0
            },
            {
                "pitch": 45,
                "velocity": 51,
                "duration": 0.0818,
                "tempo": 120.0
            },
            {
                "pitch": 33,
                "velocity": 51,
                "duration": 0.1659,
                "tempo": 120.0
            },
            {
                "pitch": 45,
                "velocity": 51,
                "duration": 0.0841,
                "tempo": 120.0
            },
            {
                "pitch": 45,
                "velocity": 51,
                "duration": 0.0841,
                "tempo": 120.0
            },
            {
                "pitch": 33,
                "velocity": 51,
                "duration": 0.1682,
                "tempo": 120.0
            },
            {
                "pitch": 45,
                "velocity": 51,
                "duration": 0.0841,
                "tempo": 120.0
            },
            {
                "pitch": 45,
                "velocity": 51,
                "duration": 0.0841,
                "tempo": 120.0
            },
            {
                "pitch": 33,
                "velocity": 51,
                "duration": 0.1682,
                "tempo": 120.0
            },
            {
                "pitch": 45,
                "velocity": 51,
                "duration": 0.0818,
                "tempo": 120.0
            },
            {
                "pitch": 45,
                "velocity": 51,
                "duration": 0.0841,
                "tempo": 120.0
            },
            {
                "pitch": 33,
                "velocity": 51,
                "duration": 0.1659,
                "tempo": 120.0
            },
            {
                "pitch": 45,
                "velocity": 51,
                "duration": 0.0841,
                "tempo": 120.0
            },
            {
                "pitch": 45,
                "velocity": 51,
                "duration": 0.0818,
                "tempo": 120.0
            },
            {
                "pitch": 33,
                "velocity": 51,
                "duration": 0.1682,
                "tempo": 120.0
            },
            {
                "pitch": 45,
                "velocity": 51,
                "duration": 0.0841,
                "tempo": 120.0
            },
            {
                "pitch": 45,
                "velocity": 51,
                "duration": 0.0841,
                "tempo": 120.0
            },
            {
                "pitch": 33,
                "velocity": 51,
                "duration": 0.1705,
                "tempo": 120.0
            },
            {
                "pitch": 45,
                "velocity": 51,
                "duration": 0.0864,
                "tempo": 120.0
            },
            {
                "pitch": 45,
                "velocity": 51,
                "duration": 0.0841,
                "tempo": 120.0
            },
            {
                "pitch": 33,
                "velocity": 51,
                "duration": 0.1682,
                "tempo": 120.0
            },
            {
                "pitch": 45,
                "velocity": 51,
                "duration": 0.0841,
                "tempo": 120.0
            },
            {
                "pitch": 45,
                "velocity": 51,
                "duration": 0.0841,
                "tempo": 120.0
            },
            {
                "pitch": 33,
                "velocity": 51,
                "duration": 0.1636,
                "tempo": 120.0
            },
            {
                "pitch": 45,
                "velocity": 51,
                "duration": 0.0818,
                "tempo": 120.0
            },
            {
                "pitch": 45,
                "velocity": 51,
                "duration": 0.0818,
                "tempo": 120.0
            },
            {
                "pitch": 33,
                "velocity": 51,
                "duration": 0.1659,
                "tempo": 120.0
            },
            {
                "pitch": 45,
                "velocity": 51,
                "duration": 0.0818,
                "tempo": 120.0
            },
            {
                "pitch": 45,
                "velocity": 51,
                "duration": 0.0841,
                "tempo": 120.0
            },
            {
                "pitch": 33,
                "velocity": 51,
                "duration": 0.1682,
                "tempo": 120.0
            },
            {
                "pitch": 45,
                "velocity": 51,
                "duration": 0.0841,
                "tempo": 120.0
            },
            {
                "pitch": 45,
                "velocity": 51,
                "duration": 0.0841,
                "tempo": 120.0
            },
            {
                "pitch": 33,
                "velocity": 51,
                "duration": 0.1727,
                "tempo": 120.0
            },
            {
                "pitch": 45,
                "velocity": 51,
                "duration": 0.0841,
                "tempo": 120.0
            },
            {
                "pitch": 45,
                "velocity": 51,
                "duration": 0.0864,
                "tempo": 120.0
            },
            {
                "pitch": 33,
                "velocity": 51,
                "duration": 0.1636,
                "tempo": 120.0
            },
            {
                "pitch": 45,
                "velocity": 51,
                "duration": 0.0818,
                "tempo": 120.0
            },
            {
                "pitch": 45,
                "velocity": 51,
                "duration": 0.0818,
                "tempo": 120.0
            },
            {
                "pitch": 29,
                "velocity": 51,
                "duration": 0.1682,
                "tempo": 120.0
            },
            {
                "pitch": 41,
                "velocity": 51,
                "duration": 0.0841,
                "tempo": 120.0
            },
            {
                "pitch": 41,
                "velocity": 51,
                "duration": 0.0841,
                "tempo": 120.0
            },
            {
                "pitch": 29,
                "velocity": 51,
                "duration": 0.1682,
                "tempo": 120.0
            },
            {
                "pitch": 41,
                "velocity": 51,
                "duration": 0.0841,
                "tempo": 120.0
            },
            {
                "pitch": 41,
                "velocity": 51,
                "duration": 0.0841,
                "tempo": 120.0
            },
            {
                "pitch": 29,
                "velocity": 51,
                "duration": 0.1705,
                "tempo": 120.0
            },
            {
                "pitch": 41,
                "velocity": 51,
                "duration": 0.0864,
                "tempo": 120.0
            },
            {
                "pitch": 41,
                "velocity": 51,
                "duration": 0.0841,
                "tempo": 120.0
            },
            {
                "pitch": 29,
                "velocity": 51,
                "duration": 0.1636,
                "tempo": 120.0
            },
            {
                "pitch": 41,
                "velocity": 51,
                "duration": 0.0818,
                "tempo": 120.0
            },
            {
                "pitch": 41,
                "velocity": 51,
                "duration": 0.0818,
                "tempo": 120.0
            },
            {
                "pitch": 29,
                "velocity": 51,
                "duration": 0.1682,
                "tempo": 120.0
            },
            {
                "pitch": 41,
                "velocity": 51,
                "duration": 0.0841,
                "tempo": 120.0
            },
            {
                "pitch": 41,
                "velocity": 51,
                "duration": 0.0841,
                "tempo": 120.0
            },
            {
                "pitch": 29,
                "velocity": 51,
                "duration": 0.1682,
                "tempo": 120.0
            },
            {
                "pitch": 41,
                "velocity": 51,
                "duration": 0.0818,
                "tempo": 120.0
            },
            {
                "pitch": 41,
                "velocity": 51,
                "duration": 0.0841,
                "tempo": 120.0
            },
            {
                "pitch": 29,
                "velocity": 51,
                "duration": 0.1727,
                "tempo": 120.0
            },
            {
                "pitch": 41,
                "velocity": 51,
                "duration": 0.0841,
                "tempo": 120.0
            },
            {
                "pitch": 41,
                "velocity": 51,
                "duration": 0.0864,
                "tempo": 120.0
            },
            {
                "pitch": 29,
                "velocity": 51,
                "duration": 0.1636,
                "tempo": 120.0
            },
            {
                "pitch": 41,
                "velocity": 51,
                "duration": 0.0818,
                "tempo": 120.0
            },
            {
                "pitch": 41,
                "velocity": 51,
                "duration": 0.0818,
                "tempo": 120.0
            },
            {
                "pitch": 31,
                "velocity": 51,
                "duration": 0.1682,
                "tempo": 120.0
            },
            {
                "pitch": 43,
                "velocity": 51,
                "duration": 0.0841,
                "tempo": 120.0
            },
            {
                "pitch": 43,
                "velocity": 51,
                "duration": 0.0841,
                "tempo": 120.0
            },
            {
                "pitch": 31,
                "velocity": 51,
                "duration": 0.1659,
                "tempo": 120.0
            },
            {
                "pitch": 43,
                "velocity": 51,
                "duration": 0.0841,
                "tempo": 120.0
            },
            {
                "pitch": 43,
                "velocity": 51,
                "duration": 0.0841,
                "tempo": 120.0
            },
            {
                "pitch": 31,
                "velocity": 51,
                "duration": 0.1705,
                "tempo": 120.0
            },
            {
                "pitch": 43,
                "velocity": 51,
                "duration": 0.0864,
                "tempo": 120.0
            },
            {
                "pitch": 43,
                "velocity": 51,
                "duration": 0.0864,
                "tempo": 120.0
            },
            {
                "pitch": 31,
                "velocity": 51,
                "duration": 0.1636,
                "tempo": 120.0
            },
            {
                "pitch": 43,
                "velocity": 51,
                "duration": 0.0818,
                "tempo": 120.0
            },
            {
                "pitch": 43,
                "velocity": 51,
                "duration": 0.0818,
                "tempo": 120.0
            },
            {
                "pitch": 31,
                "velocity": 51,
                "duration": 0.1682,
                "tempo": 120.0
            },
            {
                "pitch": 43,
                "velocity": 51,
                "duration": 0.0841,
                "tempo": 120.0
            },
            {
                "pitch": 43,
                "velocity": 51,
                "duration": 0.0818,
                "tempo": 120.0
            },
            {
                "pitch": 31,
                "velocity": 51,
                "duration": 0.1682,
                "tempo": 120.0
            },
            {
                "pitch": 43,
                "velocity": 51,
                "duration": 0.0841,
                "tempo": 120.0
            },
            {
                "pitch": 43,
                "velocity": 51,
                "duration": 0.0841,
                "tempo": 120.0
            },
            {
                "pitch": 31,
                "velocity": 51,
                "duration": 0.1705,
                "tempo": 120.0
            },
            {
                "pitch": 43,
                "velocity": 51,
                "duration": 0.0864,
                "tempo": 120.0
            },
            {
                "pitch": 43,
                "velocity": 51,
                "duration": 0.0841,
                "tempo": 120.0
            },
            {
                "pitch": 31,
                "velocity": 51,
                "duration": 0.1682,
                "tempo": 120.0
            },
            {
                "pitch": 43,
                "velocity": 51,
                "duration": 0.0841,
                "tempo": 120.0
            },
            {
                "pitch": 43,
                "velocity": 51,
                "duration": 0.0841,
                "tempo": 120.0
            },
            {
                "pitch": 33,
                "velocity": 51,
                "duration": 0.1636,
                "tempo": 120.0
            },
            {
                "pitch": 45,
                "velocity": 51,
                "duration": 0.1636,
                "tempo": 120.0
            },
            {
                "pitch": 33,
                "velocity": 51,
                "duration": 0.1682,
                "tempo": 120.0
            },
            {
                "pitch": 45,
                "velocity": 51,
                "duration": 0.1659,
                "tempo": 120.0
            },
            {
                "pitch": 33,
                "velocity": 51,
                "duration": 0.1727,
                "tempo": 120.0
            },
            {
                "pitch": 45,
                "velocity": 51,
                "duration": 0.1705,
                "tempo": 120.0
            },
            {
                "pitch": 33,
                "velocity": 51,
                "duration": 0.1636,
                "tempo": 120.0
            },
            {
                "pitch": 45,
                "velocity": 51,
                "duration": 0.1636,
                "tempo": 120.0
            },
            {
                "pitch": 29,
                "velocity": 51,
                "duration": 0.1682,
                "tempo": 120.0
            },
            {
                "pitch": 29,
                "velocity": 51,
                "duration": 0.1659,
                "tempo": 120.0
            },
            {
                "pitch": 31,
                "velocity": 51,
                "duration": 0.1659,
                "tempo": 120.0
            },
            {
                "pitch": 31,
                "velocity": 51,
                "duration": 0.1682,
                "tempo": 120.0
            }
        ],
        "Vibraphone": [
            {
                "pitch": 71,
                "velocity": 64,
                "duration": 0.1682,
                "tempo": 120.0
            },
            {
                "pitch": 74,
                "velocity": 64,
                "duration": 0.5591,
                "tempo": 120.0
            },
            {
                "pitch": 72,
                "velocity": 64,
                "duration": 0.1659,
                "tempo": 120.0
            },
            {
                "pitch": 71,
                "velocity": 64,
                "duration": 0.1705,
                "tempo": 120.0
            },
            {
                "pitch": 72,
                "velocity": 64,
                "duration": 0.1727,
                "tempo": 120.0
            },
            {
                "pitch": 72,
                "velocity": 64,
                "duration": 0.5682,
                "tempo": 120.0
            },
            {
                "pitch": 70,
                "velocity": 64,
                "duration": 0.1659,
                "tempo": 120.0
            },
            {
                "pitch": 74,
                "velocity": 64,
                "duration": 0.5614,
                "tempo": 120.0
            },
            {
                "pitch": 72,
                "velocity": 64,
                "duration": 0.1682,
                "tempo": 120.0
            },
            {
                "pitch": 70,
                "velocity": 64,
                "duration": 0.1705,
                "tempo": 120.0
            },
            {
                "pitch": 72,
                "velocity": 64,
                "duration": 0.1705,
                "tempo": 120.0
            },
            {
                "pitch": 72,
                "velocity": 64,
                "duration": 0.5705,
                "tempo": 120.0
            },
            {
                "pitch": 71,
                "velocity": 64,
                "duration": 0.1659,
                "tempo": 120.0
            },
            {
                "pitch": 74,
                "velocity": 64,
                "duration": 0.5614,
                "tempo": 120.0
            },
            {
                "pitch": 72,
                "velocity": 64,
                "duration": 0.1682,
                "tempo": 120.0
            },
            {
                "pitch": 71,
                "velocity": 64,
                "duration": 0.3705,
                "tempo": 120.0
            },
            {
                "pitch": 72,
                "velocity": 64,
                "duration": 0.3773,
                "tempo": 120.0
            },
            {
                "pitch": 72,
                "velocity": 64,
                "duration": 0.7591,
                "tempo": 120.0
            },
            {
                "pitch": 74,
                "velocity": 64,
                "duration": 0.1659,
                "tempo": 120.0
            },
            {
                "pitch": 76,
                "velocity": 64,
                "duration": 0.1682,
                "tempo": 120.0
            },
            {
                "pitch": 74,
                "velocity": 64,
                "duration": 0.9682,
                "tempo": 120.0
            },
            {
                "pitch": 72,
                "velocity": 64,
                "duration": 0.3659,
                "tempo": 120.0
            },
            {
                "pitch": 74,
                "velocity": 64,
                "duration": 0.3659,
                "tempo": 120.0
            },
            {
                "pitch": 72,
                "velocity": 64,
                "duration": 0.5682,
                "tempo": 120.0
            },
            {
                "pitch": 71,
                "velocity": 64,
                "duration": 0.1659,
                "tempo": 120.0
            },
            {
                "pitch": 74,
                "velocity": 64,
                "duration": 0.5591,
                "tempo": 120.0
            },
            {
                "pitch": 72,
                "velocity": 64,
                "duration": 0.1682,
                "tempo": 120.0
            },
            {
                "pitch": 71,
                "velocity": 64,
                "duration": 0.1682,
                "tempo": 120.0
            },
            {
                "pitch": 72,
                "velocity": 64,
                "duration": 0.1682,
                "tempo": 120.0
            },
            {
                "pitch": 72,
                "velocity": 64,
                "duration": 0.5659,
                "tempo": 120.0
            },
            {
                "pitch": 70,
                "velocity": 64,
                "duration": 0.1659,
                "tempo": 120.0
            },
            {
                "pitch": 74,
                "velocity": 64,
                "duration": 0.5591,
                "tempo": 120.0
            },
            {
                "pitch": 72,
                "velocity": 64,
                "duration": 0.1659,
                "tempo": 120.0
            },
            {
                "pitch": 70,
                "velocity": 64,
                "duration": 0.1727,
                "tempo": 120.0
            },
            {
                "pitch": 72,
                "velocity": 64,
                "duration": 0.1705,
                "tempo": 120.0
            },
            {
                "pitch": 72,
                "velocity": 64,
                "duration": 0.5682,
                "tempo": 120.0
            },
            {
                "pitch": 71,
                "velocity": 64,
                "duration": 0.1682,
                "tempo": 120.0
            },
            {
                "pitch": 74,
                "velocity": 64,
                "duration": 0.5591,
                "tempo": 120.0
            },
            {
                "pitch": 72,
                "velocity": 64,
                "duration": 0.1682,
                "tempo": 120.0
            },
            {
                "pitch": 71,
                "velocity": 64,
                "duration": 0.3659,
                "tempo": 120.0
            },
            {
                "pitch": 72,
                "velocity": 64,
                "duration": 0.3773,
                "tempo": 120.0
            },
            {
                "pitch": 72,
                "velocity": 64,
                "duration": 0.7614,
                "tempo": 120.0
            },
            {
                "pitch": 74,
                "velocity": 64,
                "duration": 0.1659,
                "tempo": 120.0
            },
            {
                "pitch": 76,
                "velocity": 64,
                "duration": 0.1659,
                "tempo": 120.0
            },
            {
                "pitch": 74,
                "velocity": 64,
                "duration": 0.9659,
                "tempo": 120.0
            },
            {
                "pitch": 72,
                "velocity": 64,
                "duration": 0.3705,
                "tempo": 120.0
            },
            {
                "pitch": 74,
                "velocity": 64,
                "duration": 0.3682,
                "tempo": 120.0
            },
            {
                "pitch": 76,
                "velocity": 64,
                "duration": 2.7727,
                "tempo": 120.0
            },
            {
                "pitch": 74,
                "velocity": 64,
                "duration": 0.3773,
                "tempo": 120.0
            },
            {
                "pitch": 73,
                "velocity": 64,
                "duration": 1.5591,
                "tempo": 120.0
            },
            {
                "pitch": 70,
                "velocity": 64,
                "duration": 0.7682,
                "tempo": 120.0
            },
            {
                "pitch": 69,
                "velocity": 64,
                "duration": 0.3659,
                "tempo": 120.0
            },
            {
                "pitch": 67,
                "velocity": 64,
                "duration": 0.3659,
                "tempo": 120.0
            },
            {
                "pitch": 74,
                "velocity": 64,
                "duration": 1.5727,
                "tempo": 120.0
            },
            {
                "pitch": 72,
                "velocity": 64,
                "duration": 0.7682,
                "tempo": 120.0
            },
            {
                "pitch": 74,
                "velocity": 64,
                "duration": 0.7705,
                "tempo": 120.0
            },
            {
                "pitch": 72,
                "velocity": 64,
                "duration": 1.5773,
                "tempo": 120.0
            },
            {
                "pitch": 74,
                "velocity": 64,
                "duration": 0.7591,
                "tempo": 120.0
            },
            {
                "pitch": 77,
                "velocity": 64,
                "duration": 0.7773,
                "tempo": 120.0
            },
            {
                "pitch": 76,
                "velocity": 64,
                "duration": 2.7682,
                "tempo": 120.0
            },
            {
                "pitch": 74,
                "velocity": 64,
                "duration": 0.3682,
                "tempo": 120.0
            },
            {
                "pitch": 73,
                "velocity": 64,
                "duration": 1.5727,
                "tempo": 120.0
            },
            {
                "pitch": 70,
                "velocity": 64,
                "duration": 0.7727,
                "tempo": 120.0
            },
            {
                "pitch": 69,
                "velocity": 64,
                "duration": 0.3659,
                "tempo": 120.0
            },
            {
                "pitch": 67,
                "velocity": 64,
                "duration": 0.3773,
                "tempo": 120.0
            },
            {
                "pitch": 74,
                "velocity": 64,
                "duration": 1.5727,
                "tempo": 120.0
            },
            {
                "pitch": 72,
                "velocity": 64,
                "duration": 0.7591,
                "tempo": 120.0
            },
            {
                "pitch": 74,
                "velocity": 64,
                "duration": 0.7705,
                "tempo": 120.0
            },
            {
                "pitch": 72,
                "velocity": 64,
                "duration": 1.1682,
                "tempo": 120.0
            },
            {
                "pitch": 72,
                "velocity": 64,
                "duration": 0.1682,
                "tempo": 120.0
            },
            {
                "pitch": 79,
                "velocity": 64,
                "duration": 1.3727,
                "tempo": 120.0
            },
            {
                "pitch": 72,
                "velocity": 64,
                "duration": 0.5727,
                "tempo": 120.0
            },
            {
                "pitch": 71,
                "velocity": 64,
                "duration": 0.1705,
                "tempo": 120.0
            },
            {
                "pitch": 74,
                "velocity": 64,
                "duration": 0.5614,
                "tempo": 120.0
            },
            {
                "pitch": 72,
                "velocity": 64,
                "duration": 0.1682,
                "tempo": 120.0
            },
            {
                "pitch": 71,
                "velocity": 64,
                "duration": 0.1636,
                "tempo": 120.0
            },
            {
                "pitch": 72,
                "velocity": 64,
                "duration": 0.1636,
                "tempo": 120.0
            },
            {
                "pitch": 72,
                "velocity": 64,
                "duration": 0.5682,
                "tempo": 120.0
            },
            {
                "pitch": 70,
                "velocity": 64,
                "duration": 0.1659,
                "tempo": 120.0
            },
            {
                "pitch": 74,
                "velocity": 64,
                "duration": 0.5727,
                "tempo": 120.0
            },
            {
                "pitch": 72,
                "velocity": 64,
                "duration": 0.1636,
                "tempo": 120.0
            },
            {
                "pitch": 70,
                "velocity": 64,
                "duration": 0.1705,
                "tempo": 120.0
            },
            {
                "pitch": 72,
                "velocity": 64,
                "duration": 0.1705,
                "tempo": 120.0
            },
            {
                "pitch": 72,
                "velocity": 64,
                "duration": 0.5682,
                "tempo": 120.0
            },
            {
                "pitch": 71,
                "velocity": 64,
                "duration": 0.1659,
                "tempo": 120.0
            },
            {
                "pitch": 74,
                "velocity": 64,
                "duration": 0.5727,
                "tempo": 120.0
            },
            {
                "pitch": 72,
                "velocity": 64,
                "duration": 0.1636,
                "tempo": 120.0
            },
            {
                "pitch": 71,
                "velocity": 64,
                "duration": 0.3682,
                "tempo": 120.0
            },
            {
                "pitch": 72,
                "velocity": 64,
                "duration": 0.3773,
                "tempo": 120.0
            },
            {
                "pitch": 72,
                "velocity": 64,
                "duration": 0.7614,
                "tempo": 120.0
            },
            {
                "pitch": 74,
                "velocity": 64,
                "duration": 0.1659,
                "tempo": 120.0
            },
            {
                "pitch": 76,
                "velocity": 64,
                "duration": 0.1659,
                "tempo": 120.0
            },
            {
                "pitch": 74,
                "velocity": 64,
                "duration": 0.9705,
                "tempo": 120.0
            },
            {
                "pitch": 72,
                "velocity": 64,
                "duration": 0.3705,
                "tempo": 120.0
            },
            {
                "pitch": 74,
                "velocity": 64,
                "duration": 0.3682,
                "tempo": 120.0
            },
            {
                "pitch": 72,
                "velocity": 64,
                "duration": 0.5682,
                "tempo": 120.0
            },
            {
                "pitch": 71,
                "velocity": 64,
                "duration": 0.1682,
                "tempo": 120.0
            },
            {
                "pitch": 74,
                "velocity": 64,
                "duration": 0.5727,
                "tempo": 120.0
            },
            {
                "pitch": 72,
                "velocity": 64,
                "duration": 0.1636,
                "tempo": 120.0
            },
            {
                "pitch": 71,
                "velocity": 64,
                "duration": 0.1659,
                "tempo": 120.0
            },
            {
                "pitch": 72,
                "velocity": 64,
                "duration": 0.1659,
                "tempo": 120.0
            },
            {
                "pitch": 72,
                "velocity": 64,
                "duration": 0.575,
                "tempo": 120.0
            },
            {
                "pitch": 70,
                "velocity": 64,
                "duration": 0.1727,
                "tempo": 120.0
            },
            {
                "pitch": 74,
                "velocity": 64,
                "duration": 0.5614,
                "tempo": 120.0
            },
            {
                "pitch": 72,
                "velocity": 64,
                "duration": 0.1614,
                "tempo": 120.0
            },
            {
                "pitch": 70,
                "velocity": 64,
                "duration": 0.1705,
                "tempo": 120.0
            },
            {
                "pitch": 72,
                "velocity": 64,
                "duration": 0.1705,
                "tempo": 120.0
            },
            {
                "pitch": 72,
                "velocity": 64,
                "duration": 0.5682,
                "tempo": 120.0
            },
            {
                "pitch": 71,
                "velocity": 64,
                "duration": 0.1659,
                "tempo": 120.0
            },
            {
                "pitch": 74,
                "velocity": 64,
                "duration": 0.5614,
                "tempo": 120.0
            },
            {
                "pitch": 72,
                "velocity": 64,
                "duration": 0.1614,
                "tempo": 120.0
            },
            {
                "pitch": 71,
                "velocity": 64,
                "duration": 0.3682,
                "tempo": 120.0
            },
            {
                "pitch": 72,
                "velocity": 64,
                "duration": 0.375,
                "tempo": 120.0
            },
            {
                "pitch": 72,
                "velocity": 64,
                "duration": 0.7591,
                "tempo": 120.0
            },
            {
                "pitch": 74,
                "velocity": 64,
                "duration": 0.1682,
                "tempo": 120.0
            },
            {
                "pitch": 76,
                "velocity": 64,
                "duration": 0.1705,
                "tempo": 120.0
            },
            {
                "pitch": 74,
                "velocity": 64,
                "duration": 0.9727,
                "tempo": 120.0
            },
            {
                "pitch": 72,
                "velocity": 64,
                "duration": 0.3614,
                "tempo": 120.0
            },
            {
                "pitch": 74,
                "velocity": 64,
                "duration": 0.3705,
                "tempo": 120.0
            },
            {
                "pitch": 76,
                "velocity": 64,
                "duration": 2.775,
                "tempo": 120.0
            },
            {
                "pitch": 74,
                "velocity": 64,
                "duration": 0.3773,
                "tempo": 120.0
            },
            {
                "pitch": 73,
                "velocity": 64,
                "duration": 1.5659,
                "tempo": 120.0
            },
            {
                "pitch": 70,
                "velocity": 64,
                "duration": 0.7682,
                "tempo": 120.0
            },
            {
                "pitch": 69,
                "velocity": 64,
                "duration": 0.3682,
                "tempo": 120.0
            },
            {
                "pitch": 67,
                "velocity": 64,
                "duration": 0.3773,
                "tempo": 120.0
            },
            {
                "pitch": 74,
                "velocity": 64,
                "duration": 1.5705,
                "tempo": 120.0
            },
            {
                "pitch": 72,
                "velocity": 64,
                "duration": 0.7614,
                "tempo": 120.0
            },
            {
                "pitch": 74,
                "velocity": 64,
                "duration": 0.7795,
                "tempo": 120.0
            },
            {
                "pitch": 72,
                "velocity": 64,
                "duration": 1.5705,
                "tempo": 120.0
            },
            {
                "pitch": 74,
                "velocity": 64,
                "duration": 0.7705,
                "tempo": 120.0
            },
            {
                "pitch": 77,
                "velocity": 64,
                "duration": 0.7614,
                "tempo": 120.0
            },
            {
                "pitch": 76,
                "velocity": 64,
                "duration": 2.7773,
                "tempo": 120.0
            },
            {
                "pitch": 74,
                "velocity": 64,
                "duration": 0.3773,
                "tempo": 120.0
            },
            {
                "pitch": 73,
                "velocity": 64,
                "duration": 1.5659,
                "tempo": 120.0
            },
            {
                "pitch": 70,
                "velocity": 64,
                "duration": 0.7682,
                "tempo": 120.0
            },
            {
                "pitch": 69,
                "velocity": 64,
                "duration": 0.3682,
                "tempo": 120.0
            },
            {
                "pitch": 67,
                "velocity": 64,
                "duration": 0.3773,
                "tempo": 120.0
            },
            {
                "pitch": 74,
                "velocity": 64,
                "duration": 1.5636,
                "tempo": 120.0
            },
            {
                "pitch": 72,
                "velocity": 64,
                "duration": 0.7795,
                "tempo": 120.0
            },
            {
                "pitch": 74,
                "velocity": 64,
                "duration": 0.7591,
                "tempo": 120.0
            },
            {
                "pitch": 72,
                "velocity": 64,
                "duration": 1.1727,
                "tempo": 120.0
            },
            {
                "pitch": 72,
                "velocity": 64,
                "duration": 0.1705,
                "tempo": 120.0
            },
            {
                "pitch": 79,
                "velocity": 64,
                "duration": 1.3682,
                "tempo": 120.0
            }
        ],
        "Oboe": [
            {
                "pitch": 76,
                "velocity": 64,
                "duration": 0.0818,
                "tempo": 120.0
            },
            {
                "pitch": 74,
                "velocity": 64,
                "duration": 0.0841,
                "tempo": 120.0
            },
            {
                "pitch": 76,
                "velocity": 64,
                "duration": 0.0841,
                "tempo": 120.0
            },
            {
                "pitch": 76,
                "velocity": 64,
                "duration": 0.0818,
                "tempo": 120.0
            },
            {
                "pitch": 76,
                "velocity": 64,
                "duration": 0.0864,
                "tempo": 120.0
            },
            {
                "pitch": 76,
                "velocity": 64,
                "duration": 0.1727,
                "tempo": 120.0
            },
            {
                "pitch": 77,
                "velocity": 64,
                "duration": 0.0841,
                "tempo": 120.0
            },
            {
                "pitch": 77,
                "velocity": 64,
                "duration": 0.0841,
                "tempo": 120.0
            },
            {
                "pitch": 76,
                "velocity": 64,
                "duration": 0.0841,
                "tempo": 120.0
            },
            {
                "pitch": 77,
                "velocity": 64,
                "duration": 0.0841,
                "tempo": 120.0
            },
            {
                "pitch": 77,
                "velocity": 64,
                "duration": 0.0818,
                "tempo": 120.0
            },
            {
                "pitch": 77,
                "velocity": 64,
                "duration": 0.0841,
                "tempo": 120.0
            },
            {
                "pitch": 77,
                "velocity": 64,
                "duration": 0.1682,
                "tempo": 120.0
            },
            {
                "pitch": 79,
                "velocity": 64,
                "duration": 0.0841,
                "tempo": 120.0
            },
            {
                "pitch": 79,
                "velocity": 64,
                "duration": 0.0841,
                "tempo": 120.0
            },
            {
                "pitch": 77,
                "velocity": 64,
                "duration": 0.0841,
                "tempo": 120.0
            },
            {
                "pitch": 79,
                "velocity": 64,
                "duration": 0.0841,
                "tempo": 120.0
            },
            {
                "pitch": 79,
                "velocity": 64,
                "duration": 0.0841,
                "tempo": 120.0
            },
            {
                "pitch": 79,
                "velocity": 64,
                "duration": 0.0864,
                "tempo": 120.0
            },
            {
                "pitch": 79,
                "velocity": 64,
                "duration": 0.1705,
                "tempo": 120.0
            },
            {
                "pitch": 76,
                "velocity": 64,
                "duration": 0.0818,
                "tempo": 120.0
            },
            {
                "pitch": 76,
                "velocity": 64,
                "duration": 0.0818,
                "tempo": 120.0
            },
            {
                "pitch": 74,
                "velocity": 64,
                "duration": 0.0818,
                "tempo": 120.0
            },
            {
                "pitch": 76,
                "velocity": 64,
                "duration": 0.0818,
                "tempo": 120.0
            },
            {
                "pitch": 76,
                "velocity": 64,
                "duration": 0.0818,
                "tempo": 120.0
            },
            {
                "pitch": 76,
                "velocity": 64,
                "duration": 0.0841,
                "tempo": 120.0
            },
            {
                "pitch": 74,
                "velocity": 64,
                "duration": 0.0841,
                "tempo": 120.0
            },
            {
                "pitch": 76,
                "velocity": 64,
                "duration": 0.0841,
                "tempo": 120.0
            },
            {
                "pitch": 76,
                "velocity": 64,
                "duration": 0.0841,
                "tempo": 120.0
            },
            {
                "pitch": 76,
                "velocity": 64,
                "duration": 0.0841,
                "tempo": 120.0
            },
            {
                "pitch": 76,
                "velocity": 64,
                "duration": 0.1705,
                "tempo": 120.0
            },
            {
                "pitch": 77,
                "velocity": 64,
                "duration": 0.0818,
                "tempo": 120.0
            },
            {
                "pitch": 77,
                "velocity": 64,
                "duration": 0.0818,
                "tempo": 120.0
            },
            {
                "pitch": 76,
                "velocity": 64,
                "duration": 0.0841,
                "tempo": 120.0
            },
            {
                "pitch": 77,
                "velocity": 64,
                "duration": 0.0841,
                "tempo": 120.0
            },
            {
                "pitch": 77,
                "velocity": 64,
                "duration": 0.0841,
                "tempo": 120.0
            },
            {
                "pitch": 77,
                "velocity": 64,
                "duration": 0.0841,
                "tempo": 120.0
            },
            {
                "pitch": 77,
                "velocity": 64,
                "duration": 0.1705,
                "tempo": 120.0
            },
            {
                "pitch": 79,
                "velocity": 64,
                "duration": 0.0841,
                "tempo": 120.0
            },
            {
                "pitch": 79,
                "velocity": 64,
                "duration": 0.0841,
                "tempo": 120.0
            },
            {
                "pitch": 77,
                "velocity": 64,
                "duration": 0.0841,
                "tempo": 120.0
            },
            {
                "pitch": 79,
                "velocity": 64,
                "duration": 0.0841,
                "tempo": 120.0
            },
            {
                "pitch": 79,
                "velocity": 64,
                "duration": 0.0841,
                "tempo": 120.0
            },
            {
                "pitch": 79,
                "velocity": 64,
                "duration": 0.0864,
                "tempo": 120.0
            },
            {
                "pitch": 79,
                "velocity": 64,
                "duration": 0.1727,
                "tempo": 120.0
            },
            {
                "pitch": 76,
                "velocity": 64,
                "duration": 0.0818,
                "tempo": 120.0
            },
            {
                "pitch": 76,
                "velocity": 64,
                "duration": 0.0818,
                "tempo": 120.0
            },
            {
                "pitch": 74,
                "velocity": 64,
                "duration": 0.0841,
                "tempo": 120.0
            },
            {
                "pitch": 76,
                "velocity": 64,
                "duration": 0.0841,
                "tempo": 120.0
            },
            {
                "pitch": 81,
                "velocity": 64,
                "duration": 0.0841,
                "tempo": 120.0
            },
            {
                "pitch": 81,
                "velocity": 64,
                "duration": 0.0841,
                "tempo": 120.0
            },
            {
                "pitch": 79,
                "velocity": 64,
                "duration": 0.0841,
                "tempo": 120.0
            },
            {
                "pitch": 81,
                "velocity": 64,
                "duration": 0.0841,
                "tempo": 120.0
            },
            {
                "pitch": 81,
                "velocity": 64,
                "duration": 0.0841,
                "tempo": 120.0
            },
            {
                "pitch": 81,
                "velocity": 64,
                "duration": 0.0841,
                "tempo": 120.0
            },
            {
                "pitch": 79,
                "velocity": 64,
                "duration": 0.0841,
                "tempo": 120.0
            },
            {
                "pitch": 81,
                "velocity": 64,
                "duration": 0.0864,
                "tempo": 120.0
            },
            {
                "pitch": 79,
                "velocity": 64,
                "duration": 0.0818,
                "tempo": 120.0
            },
            {
                "pitch": 79,
                "velocity": 64,
                "duration": 0.0818,
                "tempo": 120.0
            },
            {
                "pitch": 77,
                "velocity": 64,
                "duration": 0.0864,
                "tempo": 120.0
            },
            {
                "pitch": 79,
                "velocity": 64,
                "duration": 0.0841,
                "tempo": 120.0
            },
            {
                "pitch": 79,
                "velocity": 64,
                "duration": 0.3659,
                "tempo": 120.0
            },
            {
                "pitch": 79,
                "velocity": 64,
                "duration": 0.3773,
                "tempo": 120.0
            },
            {
                "pitch": 79,
                "velocity": 64,
                "duration": 0.3705,
                "tempo": 120.0
            },
            {
                "pitch": 76,
                "velocity": 64,
                "duration": 0.0818,
                "tempo": 120.0
            },
            {
                "pitch": 76,
                "velocity": 64,
                "duration": 0.0818,
                "tempo": 120.0
            },
            {
                "pitch": 74,
                "velocity": 64,
                "duration": 0.0841,
                "tempo": 120.0
            },
            {
                "pitch": 76,
                "velocity": 64,
                "duration": 0.0841,
                "tempo": 120.0
            },
            {
                "pitch": 81,
                "velocity": 64,
                "duration": 0.0841,
                "tempo": 120.0
            },
            {
                "pitch": 81,
                "velocity": 64,
                "duration": 0.0841,
                "tempo": 120.0
            },
            {
                "pitch": 79,
                "velocity": 64,
                "duration": 0.0841,
                "tempo": 120.0
            },
            {
                "pitch": 81,
                "velocity": 64,
                "duration": 0.0864,
                "tempo": 120.0
            },
            {
                "pitch": 81,
                "velocity": 64,
                "duration": 0.0841,
                "tempo": 120.0
            },
            {
                "pitch": 81,
                "velocity": 64,
                "duration": 0.0841,
                "tempo": 120.0
            },
            {
                "pitch": 79,
                "velocity": 64,
                "duration": 0.0841,
                "tempo": 120.0
            },
            {
                "pitch": 81,
                "velocity": 64,
                "duration": 0.0841,
                "tempo": 120.0
            },
            {
                "pitch": 79,
                "velocity": 64,
                "duration": 0.0841,
                "tempo": 120.0
            },
            {
                "pitch": 79,
                "velocity": 64,
                "duration": 0.0841,
                "tempo": 120.0
            },
            {
                "pitch": 77,
                "velocity": 64,
                "duration": 0.0841,
                "tempo": 120.0
            },
            {
                "pitch": 79,
                "velocity": 64,
                "duration": 0.0841,
                "tempo": 120.0
            },
            {
                "pitch": 79,
                "velocity": 64,
                "duration": 0.3705,
                "tempo": 120.0
            },
            {
                "pitch": 79,
                "velocity": 64,
                "duration": 0.375,
                "tempo": 120.0
            },
            {
                "pitch": 79,
                "velocity": 64,
                "duration": 0.3705,
                "tempo": 120.0
            },
            {
                "pitch": 76,
                "velocity": 64,
                "duration": 0.0818,
                "tempo": 120.0
            },
            {
                "pitch": 76,
                "velocity": 64,
                "duration": 0.0818,
                "tempo": 120.0
            },
            {
                "pitch": 74,
                "velocity": 64,
                "duration": 0.0841,
                "tempo": 120.0
            },
            {
                "pitch": 76,
                "velocity": 64,
                "duration": 0.0818,
                "tempo": 120.0
            },
            {
                "pitch": 77,
                "velocity": 64,
                "duration": 0.0841,
                "tempo": 120.0
            },
            {
                "pitch": 77,
                "velocity": 64,
                "duration": 0.0818,
                "tempo": 120.0
            },
            {
                "pitch": 79,
                "velocity": 64,
                "duration": 0.0841,
                "tempo": 120.0
            },
            {
                "pitch": 79,
                "velocity": 64,
                "duration": 0.1682,
                "tempo": 120.0
            }
        ]
    }
}