{
    "track_id": "Space Harrier 3-D (FM) - 19 - Battle Field",
    "mood": "happy",
    "instruments": {
        "Trumpet": [
            {
                "pitch": 67,
                "velocity": 4,
                "duration": 1.9114,
                "tempo": 120.0
            },
            {
                "pitch": 65,
                "velocity": 64,
                "duration": 0.0682,
                "tempo": 120.0
            },
            {
                "pitch": 67,
                "velocity": 64,
                "duration": 0.1773,
                "tempo": 120.0
            },
            {
                "pitch": 65,
                "velocity": 64,
                "duration": 2.5023,
                "tempo": 120.0
            },
            {
                "pitch": 65,
                "velocity": 64,
                "duration": 0.1909,
                "tempo": 120.0
            },
            {
                "pitch": 65,
                "velocity": 64,
                "duration": 0.0977,
                "tempo": 120.0
            },
            {
                "pitch": 65,
                "velocity": 64,
                "duration": 0.1773,
                "tempo": 120.0
            },
            {
                "pitch": 65,
                "velocity": 64,
                "duration": 0.0705,
                "tempo": 120.0
            },
            {
                "pitch": 65,
                "velocity": 64,
                "duration": 0.1909,
                "tempo": 120.0
            },
            {
                "pitch": 65,
                "velocity": 64,
                "duration": 0.1773,
                "tempo": 120.0
            },
            {
                "pitch": 67,
                "velocity": 64,
                "duration": 1.7864,
                "tempo": 120.0
            },
            {
                "pitch": 63,
                "velocity": 64,
                "duration": 0.1886,
                "tempo": 120.0
            },
            {
                "pitch": 65,
                "velocity": 64,
                "duration": 0.0682,
                "tempo": 120.0
            },
            {
                "pitch": 67,
                "velocity": 64,
                "duration": 1.9023,
                "tempo": 120.0
            },
            {
                "pitch": 65,
                "velocity": 64,
                "duration": 0.0705,
                "tempo": 120.0
            },
            {
                "pitch": 67,
                "velocity": 64,
                "duration": 0.1773,
                "tempo": 120.0
            },
            {
                "pitch": 65,
                "velocity": 64,
                "duration": 2.5023,
                "tempo": 120.0
            },
            {
                "pitch": 65,
                "velocity": 64,
                "duration": 0.1909,
                "tempo": 120.0
            },
            {
                "pitch": 65,
                "velocity": 64,
                "duration": 0.0977,
                "tempo": 120.0
            },
            {
                "pitch": 65,
                "velocity": 64,
                "duration": 0.1773,
                "tempo": 120.0
            },
            {
                "pitch": 65,
                "velocity": 64,
                "duration": 0.0682,
                "tempo": 120.0
            },
            {
                "pitch": 65,
                "velocity": 64,
                "duration": 0.1909,
                "tempo": 120.0
            },
            {
                "pitch": 65,
                "velocity": 64,
                "duration": 0.1795,
                "tempo": 120.0
            },
            {
                "pitch": 67,
                "velocity": 64,
                "duration": 1.7864,
                "tempo": 120.0
            },
            {
                "pitch": 63,
                "velocity": 64,
                "duration": 0.1909,
                "tempo": 120.0
            },
            {
                "pitch": 65,
                "velocity": 64,
                "duration": 0.0705,
                "tempo": 120.0
            },
            {
                "pitch": 67,
                "velocity": 64,
                "duration": 1.9023,
                "tempo": 120.0
            },
            {
                "pitch": 65,
                "velocity": 64,
                "duration": 0.0682,
                "tempo": 120.0
            },
            {
                "pitch": 67,
                "velocity": 64,
                "duration": 0.1773,
                "tempo": 120.0
            },
            {
                "pitch": 65,
                "velocity": 64,
                "duration": 2.5023,
                "tempo": 120.0
            },
            {
                "pitch": 65,
                "velocity": 64,
                "duration": 0.1909,
                "tempo": 120.0
            },
            {
                "pitch": 65,
                "velocity": 64,
                "duration": 0.0977,
                "tempo": 120.0
            },
            {
                "pitch": 65,
                "velocity": 64,
                "duration": 0.1795,
                "tempo": 120.0
            },
            {
                "pitch": 65,
                "velocity": 64,
                "duration": 0.0705,
                "tempo": 120.0
            },
            {
                "pitch": 65,
                "velocity": 64,
                "duration": 0.1886,
                "tempo": 120.0
            },
            {
                "pitch": 65,
                "velocity": 64,
                "duration": 0.1773,
                "tempo": 120.0
            },
            {
                "pitch": 67,
                "velocity": 64,
                "duration": 1.7864,
                "tempo": 120.0
            },
            {
                "pitch": 63,
                "velocity": 64,
                "duration": 0.1886,
                "tempo": 120.0
            },
            {
                "pitch": 65,
                "velocity": 64,
                "duration": 0.0682,
                "tempo": 120.0
            },
            {
                "pitch": 67,
                "velocity": 64,
                "duration": 1.9023,
                "tempo": 120.0
            },
            {
                "pitch": 65,
                "velocity": 64,
                "duration": 0.1909,
                "tempo": 120.0
            },
            {
                "pitch": 67,
                "velocity": 64,
                "duration": 0.0705,
                "tempo": 120.0
            },
            {
                "pitch": 65,
                "velocity": 64,
                "duration": 2.3886,
                "tempo": 120.0
            },
            {
                "pitch": 65,
                "velocity": 64,
                "duration": 0.1886,
                "tempo": 120.0
            },
            {
                "pitch": 65,
                "velocity": 64,
                "duration": 0.1,
                "tempo": 120.0
            },
            {
                "pitch": 65,
                "velocity": 64,
                "duration": 0.1795,
                "tempo": 120.0
            },
            {
                "pitch": 65,
                "velocity": 64,
                "duration": 0.0705,
                "tempo": 120.0
            },
            {
                "pitch": 65,
                "velocity": 64,
                "duration": 0.1886,
                "tempo": 120.0
            },
            {
                "pitch": 65,
                "velocity": 64,
                "duration": 0.1773,
                "tempo": 120.0
            },
            {
                "pitch": 67,
                "velocity": 64,
                "duration": 2.0818,
                "tempo": 120.0
            },
            {
                "pitch": 67,
                "velocity": 64,
                "duration": 1.9045,
                "tempo": 120.0
            },
            {
                "pitch": 65,
                "velocity": 64,
                "duration": 0.0705,
                "tempo": 120.0
            },
            {
                "pitch": 67,
                "velocity": 64,
                "duration": 0.1773,
                "tempo": 120.0
            },
            {
                "pitch": 65,
                "velocity": 64,
                "duration": 2.5045,
                "tempo": 120.0
            },
            {
                "pitch": 65,
                "velocity": 64,
                "duration": 0.1909,
                "tempo": 120.0
            },
            {
                "pitch": 65,
                "velocity": 64,
                "duration": 0.0955,
                "tempo": 120.0
            },
            {
                "pitch": 65,
                "velocity": 64,
                "duration": 0.1773,
                "tempo": 120.0
            },
            {
                "pitch": 65,
                "velocity": 64,
                "duration": 0.0682,
                "tempo": 120.0
            },
            {
                "pitch": 65,
                "velocity": 64,
                "duration": 0.1909,
                "tempo": 120.0
            },
            {
                "pitch": 65,
                "velocity": 64,
                "duration": 0.1773,
                "tempo": 120.0
            },
            {
                "pitch": 67,
                "velocity": 64,
                "duration": 1.7864,
                "tempo": 120.0
            },
            {
                "pitch": 63,
                "velocity": 64,
                "duration": 0.1886,
                "tempo": 120.0
            },
            {
                "pitch": 65,
                "velocity": 64,
                "duration": 0.0682,
                "tempo": 120.0
            },
            {
                "pitch": 67,
                "velocity": 64,
                "duration": 1.9023,
                "tempo": 120.0
            },
            {
                "pitch": 65,
                "velocity": 64,
                "duration": 0.0682,
                "tempo": 120.0
            },
            {
                "pitch": 67,
                "velocity": 64,
                "duration": 0.1795,
                "tempo": 120.0
            },
            {
                "pitch": 65,
                "velocity": 64,
                "duration": 2.5023,
                "tempo": 120.0
            },
            {
                "pitch": 65,
                "velocity": 64,
                "duration": 0.1886,
                "tempo": 120.0
            },
            {
                "pitch": 65,
                "velocity": 64,
                "duration": 0.0977,
                "tempo": 120.0
            },
            {
                "pitch": 65,
                "velocity": 64,
                "duration": 0.1795,
                "tempo": 120.0
            },
            {
                "pitch": 65,
                "velocity": 64,
                "duration": 0.0705,
                "tempo": 120.0
            },
            {
                "pitch": 65,
                "velocity": 64,
                "duration": 0.1886,
                "tempo": 120.0
            },
            {
                "pitch": 65,
                "velocity": 64,
                "duration": 0.1773,
                "tempo": 120.0
            },
            {
                "pitch": 67,
                "velocity": 64,
                "duration": 1.7886,
                "tempo": 120.0
            },
            {
                "pitch": 63,
                "velocity": 64,
                "duration": 0.1909,
                "tempo": 120.0
            },
            {
                "pitch": 65,
                "velocity": 64,
                "duration": 0.0682,
                "tempo": 120.0
            },
            {
                "pitch": 67,
                "velocity": 64,
                "duration": 1.9,
                "tempo": 120.0
            },
            {
                "pitch": 65,
                "velocity": 64,
                "duration": 0.0705,
                "tempo": 120.0
            },
            {
                "pitch": 67,
                "velocity": 64,
                "duration": 0.1773,
                "tempo": 120.0
            },
            {
                "pitch": 65,
                "velocity": 64,
                "duration": 2.5045,
                "tempo": 120.0
            },
            {
                "pitch": 65,
                "velocity": 64,
                "duration": 0.1909,
                "tempo": 120.0
            },
            {
                "pitch": 65,
                "velocity": 64,
                "duration": 0.0955,
                "tempo": 120.0
            },
            {
                "pitch": 65,
                "velocity": 64,
                "duration": 0.1773,
                "tempo": 120.0
            },
            {
                "pitch": 65,
                "velocity": 64,
                "duration": 0.0682,
                "tempo": 120.0
            },
            {
                "pitch": 65,
                "velocity": 64,
                "duration": 0.1909,
                "tempo": 120.0
            },
            {
                "pitch": 65,
                "velocity": 64,
                "duration": 0.1773,
                "tempo": 120.0
            },
            {
                "pitch": 67,
                "velocity": 64,
                "duration": 1.7864,
                "tempo": 120.0
            },
            {
                "pitch": 63,
                "velocity": 64,
                "duration": 0.1886,
                "tempo": 120.0
            },
            {
                "pitch": 65,
                "velocity": 64,
                "duration": 0.0682,
                "tempo": 120.0
            },
            {
                "pitch": 67,
                "velocity": 64,
                "duration": 1.9023,
                "tempo": 120.0
            },
            {
                "pitch": 65,
                "velocity": 64,
                "duration": 0.0682,
                "tempo": 120.0
            },
            {
                "pitch": 67,
                "velocity": 64,
                "duration": 0.1795,
                "tempo": 120.0
            },
            {
                "pitch": 65,
                "velocity": 64,
                "duration": 2.5023,
                "tempo": 120.0
            },
            {
                "pitch": 65,
                "velocity": 64,
                "duration": 0.1909,
                "tempo": 120.0
            },
            {
                "pitch": 65,
                "velocity": 64,
                "duration": 0.1,
                "tempo": 120.0
            },
            {
                "pitch": 65,
                "velocity": 64,
                "duration": 0.1773,
                "tempo": 120.0
            },
            {
                "pitch": 65,
                "velocity": 64,
                "duration": 0.0682,
                "tempo": 120.0
            },
            {
                "pitch": 65,
                "velocity": 64,
                "duration": 0.1909,
                "tempo": 120.0
            },
            {
                "pitch": 65,
                "velocity": 64,
                "duration": 0.1795,
                "tempo": 120.0
            },
            {
                "pitch": 67,
                "velocity": 64,
                "duration": 0.1909,
                "tempo": 120.0
            },
            {
                "pitch": 67,
                "velocity": 64,
                "duration": 0.0977,
                "tempo": 120.0
            },
            {
                "pitch": 67,
                "velocity": 64,
                "duration": 0.2909,
                "tempo": 120.0
            }
        ],
        "Acoustic Bass": [
            {
                "pitch": 43,
                "velocity": 4,
                "duration": 0.3114,
                "tempo": 120.0
            },
            {
                "pitch": 55,
                "velocity": 80,
                "duration": 0.0705,
                "tempo": 120.0
            },
            {
                "pitch": 43,
                "velocity": 80,
                "duration": 0.1773,
                "tempo": 120.0
            },
            {
                "pitch": 55,
                "velocity": 80,
                "duration": 0.0977,
                "tempo": 120.0
            },
            {
                "pitch": 43,
                "velocity": 80,
                "duration": 0.1909,
                "tempo": 120.0
            },
            {
                "pitch": 55,
                "velocity": 80,
                "duration": 0.0682,
                "tempo": 120.0
            },
            {
                "pitch": 43,
                "velocity": 80,
                "duration": 0.1795,
                "tempo": 120.0
            },
            {
                "pitch": 55,
                "velocity": 80,
                "duration": 0.0955,
                "tempo": 120.0
            },
            {
                "pitch": 43,
                "velocity": 80,
                "duration": 0.1909,
                "tempo": 120.0
            },
            {
                "pitch": 55,
                "velocity": 80,
                "duration": 0.0705,
                "tempo": 120.0
            },
            {
                "pitch": 43,
                "velocity": 80,
                "duration": 0.1773,
                "tempo": 120.0
            },
            {
                "pitch": 55,
                "velocity": 80,
                "duration": 0.0977,
                "tempo": 120.0
            },
            {
                "pitch": 43,
                "velocity": 80,
                "duration": 0.1886,
                "tempo": 120.0
            },
            {
                "pitch": 55,
                "velocity": 80,
                "duration": 0.0682,
                "tempo": 120.0
            },
            {
                "pitch": 43,
                "velocity": 80,
                "duration": 0.1773,
                "tempo": 120.0
            },
            {
                "pitch": 55,
                "velocity": 80,
                "duration": 0.0977,
                "tempo": 120.0
            },
            {
                "pitch": 41,
                "velocity": 80,
                "duration": 0.1909,
                "tempo": 120.0
            },
            {
                "pitch": 53,
                "velocity": 80,
                "duration": 0.0682,
                "tempo": 120.0
            },
            {
                "pitch": 41,
                "velocity": 80,
                "duration": 0.1795,
                "tempo": 120.0
            },
            {
                "pitch": 53,
                "velocity": 80,
                "duration": 0.0955,
                "tempo": 120.0
            },
            {
                "pitch": 41,
                "velocity": 80,
                "duration": 0.1909,
                "tempo": 120.0
            },
            {
                "pitch": 53,
                "velocity": 80,
                "duration": 0.0705,
                "tempo": 120.0
            },
            {
                "pitch": 41,
                "velocity": 80,
                "duration": 0.1773,
                "tempo": 120.0
            },
            {
                "pitch": 53,
                "velocity": 80,
                "duration": 0.0977,
                "tempo": 120.0
            },
            {
                "pitch": 41,
                "velocity": 80,
                "duration": 0.1886,
                "tempo": 120.0
            },
            {
                "pitch": 53,
                "velocity": 80,
                "duration": 0.0682,
                "tempo": 120.0
            },
            {
                "pitch": 41,
                "velocity": 80,
                "duration": 0.1773,
                "tempo": 120.0
            },
            {
                "pitch": 53,
                "velocity": 80,
                "duration": 0.0977,
                "tempo": 120.0
            },
            {
                "pitch": 41,
                "velocity": 80,
                "duration": 0.1909,
                "tempo": 120.0
            },
            {
                "pitch": 53,
                "velocity": 80,
                "duration": 0.0682,
                "tempo": 120.0
            },
            {
                "pitch": 41,
                "velocity": 80,
                "duration": 0.1795,
                "tempo": 120.0
            },
            {
                "pitch": 53,
                "velocity": 80,
                "duration": 0.0955,
                "tempo": 120.0
            },
            {
                "pitch": 41,
                "velocity": 80,
                "duration": 0.1909,
                "tempo": 120.0
            },
            {
                "pitch": 53,
                "velocity": 80,
                "duration": 0.0705,
                "tempo": 120.0
            },
            {
                "pitch": 41,
                "velocity": 80,
                "duration": 0.1773,
                "tempo": 120.0
            },
            {
                "pitch": 53,
                "velocity": 80,
                "duration": 0.0977,
                "tempo": 120.0
            },
            {
                "pitch": 41,
                "velocity": 80,
                "duration": 0.1886,
                "tempo": 120.0
            },
            {
                "pitch": 53,
                "velocity": 80,
                "duration": 0.0682,
                "tempo": 120.0
            },
            {
                "pitch": 41,
                "velocity": 80,
                "duration": 0.1773,
                "tempo": 120.0
            },
            {
                "pitch": 53,
                "velocity": 80,
                "duration": 0.0977,
                "tempo": 120.0
            },
            {
                "pitch": 41,
                "velocity": 80,
                "duration": 0.1909,
                "tempo": 120.0
            },
            {
                "pitch": 53,
                "velocity": 80,
                "duration": 0.0705,
                "tempo": 120.0
            },
            {
                "pitch": 41,
                "velocity": 80,
                "duration": 0.1795,
                "tempo": 120.0
            },
            {
                "pitch": 53,
                "velocity": 80,
                "duration": 0.0955,
                "tempo": 120.0
            },
            {
                "pitch": 41,
                "velocity": 80,
                "duration": 0.1909,
                "tempo": 120.0
            },
            {
                "pitch": 53,
                "velocity": 80,
                "duration": 0.0705,
                "tempo": 120.0
            },
            {
                "pitch": 41,
                "velocity": 80,
                "duration": 0.1773,
                "tempo": 120.0
            },
            {
                "pitch": 53,
                "velocity": 80,
                "duration": 0.0977,
                "tempo": 120.0
            },
            {
                "pitch": 43,
                "velocity": 80,
                "duration": 0.1886,
                "tempo": 120.0
            },
            {
                "pitch": 55,
                "velocity": 80,
                "duration": 0.0682,
                "tempo": 120.0
            },
            {
                "pitch": 43,
                "velocity": 80,
                "duration": 0.1795,
                "tempo": 120.0
            },
            {
                "pitch": 55,
                "velocity": 80,
                "duration": 0.0977,
                "tempo": 120.0
            },
            {
                "pitch": 43,
                "velocity": 80,
                "duration": 0.1909,
                "tempo": 120.0
            },
            {
                "pitch": 55,
                "velocity": 80,
                "duration": 0.0705,
                "tempo": 120.0
            },
            {
                "pitch": 43,
                "velocity": 80,
                "duration": 0.1773,
                "tempo": 120.0
            },
            {
                "pitch": 55,
                "velocity": 80,
                "duration": 0.0955,
                "tempo": 120.0
            },
            {
                "pitch": 43,
                "velocity": 80,
                "duration": 0.1886,
                "tempo": 120.0
            },
            {
                "pitch": 55,
                "velocity": 80,
                "duration": 0.0682,
                "tempo": 120.0
            },
            {
                "pitch": 43,
                "velocity": 80,
                "duration": 0.1773,
                "tempo": 120.0
            },
            {
                "pitch": 55,
                "velocity": 80,
                "duration": 0.0977,
                "tempo": 120.0
            },
            {
                "pitch": 43,
                "velocity": 80,
                "duration": 0.1886,
                "tempo": 120.0
            },
            {
                "pitch": 55,
                "velocity": 80,
                "duration": 0.0682,
                "tempo": 120.0
            },
            {
                "pitch": 43,
                "velocity": 80,
                "duration": 0.1795,
                "tempo": 120.0
            },
            {
                "pitch": 55,
                "velocity": 80,
                "duration": 0.0977,
                "tempo": 120.0
            },
            {
                "pitch": 43,
                "velocity": 80,
                "duration": 0.1909,
                "tempo": 120.0
            },
            {
                "pitch": 55,
                "velocity": 80,
                "duration": 0.0705,
                "tempo": 120.0
            },
            {
                "pitch": 43,
                "velocity": 80,
                "duration": 0.1773,
                "tempo": 120.0
            },
            {
                "pitch": 55,
                "velocity": 80,
                "duration": 0.0955,
                "tempo": 120.0
            },
            {
                "pitch": 43,
                "velocity": 80,
                "duration": 0.1886,
                "tempo": 120.0
            },
            {
                "pitch": 55,
                "velocity": 80,
                "duration": 0.0682,
                "tempo": 120.0
            },
            {
                "pitch": 43,
                "velocity": 80,
                "duration": 0.1773,
                "tempo": 120.0
            },
            {
                "pitch": 55,
                "velocity": 80,
                "duration": 0.0977,
                "tempo": 120.0
            },
            {
                "pitch": 43,
                "velocity": 80,
                "duration": 0.1886,
                "tempo": 120.0
            },
            {
                "pitch": 55,
                "velocity": 80,
                "duration": 0.0682,
                "tempo": 120.0
            },
            {
                "pitch": 43,
                "velocity": 80,
                "duration": 0.1795,
                "tempo": 120.0
            },
            {
                "pitch": 55,
                "velocity": 80,
                "duration": 0.0977,
                "tempo": 120.0
            },
            {
                "pitch": 43,
                "velocity": 80,
                "duration": 0.1909,
                "tempo": 120.0
            },
            {
                "pitch": 55,
                "velocity": 80,
                "duration": 0.0705,
                "tempo": 120.0
            },
            {
                "pitch": 43,
                "velocity": 80,
                "duration": 0.1773,
                "tempo": 120.0
            },
            {
                "pitch": 55,
                "velocity": 80,
                "duration": 0.0955,
                "tempo": 120.0
            },
            {
                "pitch": 41,
                "velocity": 80,
                "duration": 0.1886,
                "tempo": 120.0
            },
            {
                "pitch": 53,
                "velocity": 80,
                "duration": 0.0682,
                "tempo": 120.0
            },
            {
                "pitch": 41,
                "velocity": 80,
                "duration": 0.1773,
                "tempo": 120.0
            },
            {
                "pitch": 53,
                "velocity": 80,
                "duration": 0.0977,
                "tempo": 120.0
            },
            {
                "pitch": 41,
                "velocity": 80,
                "duration": 0.1909,
                "tempo": 120.0
            },
            {
                "pitch": 53,
                "velocity": 80,
                "duration": 0.0682,
                "tempo": 120.0
            },
            {
                "pitch": 41,
                "velocity": 80,
                "duration": 0.1795,
                "tempo": 120.0
            },
            {
                "pitch": 53,
                "velocity": 80,
                "duration": 0.0977,
                "tempo": 120.0
            },
            {
                "pitch": 41,
                "velocity": 80,
                "duration": 0.1909,
                "tempo": 120.0
            },
            {
                "pitch": 53,
                "velocity": 80,
                "duration": 0.0705,
                "tempo": 120.0
            },
            {
                "pitch": 41,
                "velocity": 80,
                "duration": 0.1773,
                "tempo": 120.0
            },
            {
                "pitch": 53,
                "velocity": 80,
                "duration": 0.0977,
                "tempo": 120.0
            },
            {
                "pitch": 41,
                "velocity": 80,
                "duration": 0.1886,
                "tempo": 120.0
            },
            {
                "pitch": 53,
                "velocity": 80,
                "duration": 0.0682,
                "tempo": 120.0
            },
            {
                "pitch": 41,
                "velocity": 80,
                "duration": 0.1773,
                "tempo": 120.0
            },
            {
                "pitch": 53,
                "velocity": 80,
                "duration": 0.0977,
                "tempo": 120.0
            },
            {
                "pitch": 41,
                "velocity": 80,
                "duration": 0.1909,
                "tempo": 120.0
            },
            {
                "pitch": 53,
                "velocity": 80,
                "duration": 0.0682,
                "tempo": 120.0
            },
            {
                "pitch": 41,
                "velocity": 80,
                "duration": 0.1795,
                "tempo": 120.0
            },
            {
                "pitch": 53,
                "velocity": 80,
                "duration": 0.0977,
                "tempo": 120.0
            },
            {
                "pitch": 41,
                "velocity": 80,
                "duration": 0.1909,
                "tempo": 120.0
            },
            {
                "pitch": 53,
                "velocity": 80,
                "duration": 0.0705,
                "tempo": 120.0
            },
            {
                "pitch": 41,
                "velocity": 80,
                "duration": 0.1773,
                "tempo": 120.0
            },
            {
                "pitch": 53,
                "velocity": 80,
                "duration": 0.0977,
                "tempo": 120.0
            },
            {
                "pitch": 41,
                "velocity": 80,
                "duration": 0.1886,
                "tempo": 120.0
            },
            {
                "pitch": 53,
                "velocity": 80,
                "duration": 0.0682,
                "tempo": 120.0
            },
            {
                "pitch": 41,
                "velocity": 80,
                "duration": 0.1773,
                "tempo": 120.0
            },
            {
                "pitch": 53,
                "velocity": 80,
                "duration": 0.0977,
                "tempo": 120.0
            },
            {
                "pitch": 41,
                "velocity": 80,
                "duration": 0.1909,
                "tempo": 120.0
            },
            {
                "pitch": 53,
                "velocity": 80,
                "duration": 0.0682,
                "tempo": 120.0
            },
            {
                "pitch": 41,
                "velocity": 80,
                "duration": 0.1795,
                "tempo": 120.0
            },
            {
                "pitch": 53,
                "velocity": 80,
                "duration": 0.0955,
                "tempo": 120.0
            },
            {
                "pitch": 43,
                "velocity": 80,
                "duration": 0.1909,
                "tempo": 120.0
            },
            {
                "pitch": 55,
                "velocity": 80,
                "duration": 0.0705,
                "tempo": 120.0
            },
            {
                "pitch": 43,
                "velocity": 80,
                "duration": 0.1773,
                "tempo": 120.0
            },
            {
                "pitch": 55,
                "velocity": 80,
                "duration": 0.0977,
                "tempo": 120.0
            },
            {
                "pitch": 43,
                "velocity": 80,
                "duration": 0.1886,
                "tempo": 120.0
            },
            {
                "pitch": 55,
                "velocity": 80,
                "duration": 0.0682,
                "tempo": 120.0
            },
            {
                "pitch": 43,
                "velocity": 80,
                "duration": 0.1773,
                "tempo": 120.0
            },
            {
                "pitch": 55,
                "velocity": 80,
                "duration": 0.0977,
                "tempo": 120.0
            },
            {
                "pitch": 43,
                "velocity": 80,
                "duration": 0.1909,
                "tempo": 120.0
            },
            {
                "pitch": 55,
                "velocity": 80,
                "duration": 0.0682,
                "tempo": 120.0
            },
            {
                "pitch": 43,
                "velocity": 80,
                "duration": 0.1795,
                "tempo": 120.0
            },
            {
                "pitch": 55,
                "velocity": 80,
                "duration": 0.0955,
                "tempo": 120.0
            },
            {
                "pitch": 43,
                "velocity": 80,
                "duration": 0.1909,
                "tempo": 120.0
            },
            {
                "pitch": 55,
                "velocity": 80,
                "duration": 0.0705,
                "tempo": 120.0
            },
            {
                "pitch": 43,
                "velocity": 80,
                "duration": 0.1773,
                "tempo": 120.0
            },
            {
                "pitch": 55,
                "velocity": 80,
                "duration": 0.0977,
                "tempo": 120.0
            },
            {
                "pitch": 43,
                "velocity": 80,
                "duration": 0.1886,
                "tempo": 120.0
            },
            {
                "pitch": 55,
                "velocity": 80,
                "duration": 0.0682,
                "tempo": 120.0
            },
            {
                "pitch": 43,
                "velocity": 80,
                "duration": 0.1773,
                "tempo": 120.0
            },
            {
                "pitch": 55,
                "velocity": 80,
                "duration": 0.0977,
                "tempo": 120.0
            },
            {
                "pitch": 43,
                "velocity": 80,
                "duration": 0.1909,
                "tempo": 120.0
            },
            {
                "pitch": 55,
                "velocity": 80,
                "duration": 0.0682,
                "tempo": 120.0
            },
            {
                "pitch": 43,
                "velocity": 80,
                "duration": 0.1795,
                "tempo": 120.0
            },
            {
                "pitch": 55,
                "velocity": 80,
                "duration": 0.0955,
                "tempo": 120.0
            },
            {
                "pitch": 43,
                "velocity": 80,
                "duration": 0.1909,
                "tempo": 120.0
            },
            {
                "pitch": 55,
                "velocity": 80,
                "duration": 0.0705,
                "tempo": 120.0
            },
            {
                "pitch": 43,
                "velocity": 80,
                "duration": 0.1773,
                "tempo": 120.0
            },
            {
                "pitch": 55,
                "velocity": 80,
                "duration": 0.0977,
                "tempo": 120.0
            },
            {
                "pitch": 43,
                "velocity": 80,
                "duration": 0.1886,
                "tempo": 120.0
            },
            {
                "pitch": 55,
                "velocity": 80,
                "duration": 0.0682,
                "tempo": 120.0
            },
            {
                "pitch": 43,
                "velocity": 80,
                "duration": 0.1773,
                "tempo": 120.0
            },
            {
                "pitch": 55,
                "velocity": 80,
                "duration": 0.0977,
                "tempo": 120.0
            },
            {
                "pitch": 41,
                "velocity": 80,
                "duration": 0.1909,
                "tempo": 120.0
            },
            {
                "pitch": 53,
                "velocity": 80,
                "duration": 0.0682,
                "tempo": 120.0
            },
            {
                "pitch": 41,
                "velocity": 80,
                "duration": 0.1795,
                "tempo": 120.0
            },
            {
                "pitch": 53,
                "velocity": 80,
                "duration": 0.0955,
                "tempo": 120.0
            },
            {
                "pitch": 41,
                "velocity": 80,
                "duration": 0.1909,
                "tempo": 120.0
            },
            {
                "pitch": 53,
                "velocity": 80,
                "duration": 0.0705,
                "tempo": 120.0
            },
            {
                "pitch": 41,
                "velocity": 80,
                "duration": 0.1773,
                "tempo": 120.0
            },
            {
                "pitch": 53,
                "velocity": 80,
                "duration": 0.0977,
                "tempo": 120.0
            },
            {
                "pitch": 41,
                "velocity": 80,
                "duration": 0.1886,
                "tempo": 120.0
            },
            {
                "pitch": 53,
                "velocity": 80,
                "duration": 0.0682,
                "tempo": 120.0
            },
            {
                "pitch": 41,
                "velocity": 80,
                "duration": 0.1773,
                "tempo": 120.0
            },
            {
                "pitch": 53,
                "velocity": 80,
                "duration": 0.0977,
                "tempo": 120.0
            },
            {
                "pitch": 41,
                "velocity": 80,
                "duration": 0.1909,
                "tempo": 120.0
            },
            {
                "pitch": 53,
                "velocity": 80,
                "duration": 0.0705,
                "tempo": 120.0
            },
            {
                "pitch": 41,
                "velocity": 80,
                "duration": 0.1795,
                "tempo": 120.0
            },
            {
                "pitch": 53,
                "velocity": 80,
                "duration": 0.0955,
                "tempo": 120.0
            },
            {
                "pitch": 41,
                "velocity": 80,
                "duration": 0.1909,
                "tempo": 120.0
            },
            {
                "pitch": 53,
                "velocity": 80,
                "duration": 0.0705,
                "tempo": 120.0
            },
            {
                "pitch": 41,
                "velocity": 80,
                "duration": 0.1773,
                "tempo": 120.0
            },
            {
                "pitch": 53,
                "velocity": 80,
                "duration": 0.0977,
                "tempo": 120.0
            },
            {
                "pitch": 41,
                "velocity": 80,
                "duration": 0.1886,
                "tempo": 120.0
            },
            {
                "pitch": 53,
                "velocity": 80,
                "duration": 0.0682,
                "tempo": 120.0
            },
            {
                "pitch": 41,
                "velocity": 80,
                "duration": 0.1795,
                "tempo": 120.0
            },
            {
                "pitch": 53,
                "velocity": 80,
                "duration": 0.0977,
                "tempo": 120.0
            },
            {
                "pitch": 41,
                "velocity": 80,
                "duration": 0.1909,
                "tempo": 120.0
            },
            {
                "pitch": 53,
                "velocity": 80,
                "duration": 0.0705,
                "tempo": 120.0
            },
            {
                "pitch": 41,
                "velocity": 80,
                "duration": 0.1773,
                "tempo": 120.0
            },
            {
                "pitch": 53,
                "velocity": 80,
                "duration": 0.0955,
                "tempo": 120.0
            },
            {
                "pitch": 41,
                "velocity": 80,
                "duration": 0.1886,
                "tempo": 120.0
            },
            {
                "pitch": 53,
                "velocity": 80,
                "duration": 0.0682,
                "tempo": 120.0
            },
            {
                "pitch": 41,
                "velocity": 80,
                "duration": 0.1773,
                "tempo": 120.0
            },
            {
                "pitch": 53,
                "velocity": 80,
                "duration": 0.0977,
                "tempo": 120.0
            },
            {
                "pitch": 43,
                "velocity": 80,
                "duration": 0.1886,
                "tempo": 120.0
            },
            {
                "pitch": 55,
                "velocity": 80,
                "duration": 0.0682,
                "tempo": 120.0
            },
            {
                "pitch": 43,
                "velocity": 80,
                "duration": 0.1795,
                "tempo": 120.0
            },
            {
                "pitch": 55,
                "velocity": 80,
                "duration": 0.0977,
                "tempo": 120.0
            },
            {
                "pitch": 43,
                "velocity": 80,
                "duration": 0.1909,
                "tempo": 120.0
            },
            {
                "pitch": 55,
                "velocity": 80,
                "duration": 0.0705,
                "tempo": 120.0
            },
            {
                "pitch": 43,
                "velocity": 80,
                "duration": 0.1773,
                "tempo": 120.0
            },
            {
                "pitch": 55,
                "velocity": 80,
                "duration": 0.0955,
                "tempo": 120.0
            },
            {
                "pitch": 43,
                "velocity": 80,
                "duration": 0.1886,
                "tempo": 120.0
            },
            {
                "pitch": 55,
                "velocity": 80,
                "duration": 0.0682,
                "tempo": 120.0
            },
            {
                "pitch": 43,
                "velocity": 80,
                "duration": 0.1773,
                "tempo": 120.0
            },
            {
                "pitch": 55,
                "velocity": 80,
                "duration": 0.0977,
                "tempo": 120.0
            },
            {
                "pitch": 43,
                "velocity": 80,
                "duration": 0.1886,
                "tempo": 120.0
            },
            {
                "pitch": 55,
                "velocity": 80,
                "duration": 0.0682,
                "tempo": 120.0
            },
            {
                "pitch": 43,
                "velocity": 80,
                "duration": 0.1795,
                "tempo": 120.0
            },
            {
                "pitch": 55,
                "velocity": 80,
                "duration": 0.0977,
                "tempo": 120.0
            },
            {
                "pitch": 43,
                "velocity": 80,
                "duration": 0.1909,
                "tempo": 120.0
            },
            {
                "pitch": 55,
                "velocity": 80,
                "duration": 0.0705,
                "tempo": 120.0
            },
            {
                "pitch": 43,
                "velocity": 80,
                "duration": 0.1773,
                "tempo": 120.0
            },
            {
                "pitch": 55,
                "velocity": 80,
                "duration": 0.0955,
                "tempo": 120.0
            },
            {
                "pitch": 43,
                "velocity": 80,
                "duration": 0.1886,
                "tempo": 120.0
            },
            {
                "pitch": 55,
                "velocity": 80,
                "duration": 0.0682,
                "tempo": 120.0
            },
            {
                "pitch": 43,
                "velocity": 80,
                "duration": 0.1773,
                "tempo": 120.0
            },
            {
                "pitch": 55,
                "velocity": 80,
                "duration": 0.0977,
                "tempo": 120.0
            },
            {
                "pitch": 43,
                "velocity": 80,
                "duration": 0.1909,
                "tempo": 120.0
            },
            {
                "pitch": 55,
                "velocity": 80,
                "duration": 0.0682,
                "tempo": 120.0
            },
            {
                "pitch": 43,
                "velocity": 80,
                "duration": 0.1795,
                "tempo": 120.0
            },
            {
                "pitch": 55,
                "velocity": 80,
                "duration": 0.0977,
                "tempo": 120.0
            },
            {
                "pitch": 43,
                "velocity": 80,
                "duration": 0.1909,
                "tempo": 120.0
            },
            {
                "pitch": 55,
                "velocity": 80,
                "duration": 0.0705,
                "tempo": 120.0
            },
            {
                "pitch": 43,
                "velocity": 80,
                "duration": 0.2909,
                "tempo": 120.0
            },
            {
                "pitch": 41,
                "velocity": 80,
                "duration": 0.1841,
                "tempo": 120.0
            },
            {
                "pitch": 53,
                "velocity": 80,
                "duration": 0.0682,
                "tempo": 120.0
            },
            {
                "pitch": 41,
                "velocity": 80,
                "duration": 0.1841,
                "tempo": 120.0
            },
            {
                "pitch": 53,
                "velocity": 80,
                "duration": 0.1,
                "tempo": 120.0
            },
            {
                "pitch": 41,
                "velocity": 80,
                "duration": 0.1886,
                "tempo": 120.0
            },
            {
                "pitch": 53,
                "velocity": 80,
                "duration": 0.0682,
                "tempo": 120.0
            },
            {
                "pitch": 41,
                "velocity": 80,
                "duration": 0.1795,
                "tempo": 120.0
            },
            {
                "pitch": 53,
                "velocity": 80,
                "duration": 0.0977,
                "tempo": 120.0
            },
            {
                "pitch": 41,
                "velocity": 80,
                "duration": 0.1909,
                "tempo": 120.0
            },
            {
                "pitch": 53,
                "velocity": 80,
                "duration": 0.0705,
                "tempo": 120.0
            },
            {
                "pitch": 41,
                "velocity": 80,
                "duration": 0.1773,
                "tempo": 120.0
            },
            {
                "pitch": 53,
                "velocity": 80,
                "duration": 0.0955,
                "tempo": 120.0
            },
            {
                "pitch": 41,
                "velocity": 80,
                "duration": 0.1886,
                "tempo": 120.0
            },
            {
                "pitch": 53,
                "velocity": 80,
                "duration": 0.0682,
                "tempo": 120.0
            },
            {
                "pitch": 41,
                "velocity": 80,
                "duration": 0.2909,
                "tempo": 120.0
            },
            {
                "pitch": 41,
                "velocity": 80,
                "duration": 0.1886,
                "tempo": 120.0
            },
            {
                "pitch": 53,
                "velocity": 80,
                "duration": 0.0682,
                "tempo": 120.0
            },
            {
                "pitch": 41,
                "velocity": 80,
                "duration": 0.1818,
                "tempo": 120.0
            },
            {
                "pitch": 53,
                "velocity": 80,
                "duration": 0.1,
                "tempo": 120.0
            },
            {
                "pitch": 41,
                "velocity": 80,
                "duration": 0.1841,
                "tempo": 120.0
            },
            {
                "pitch": 53,
                "velocity": 80,
                "duration": 0.0659,
                "tempo": 120.0
            },
            {
                "pitch": 41,
                "velocity": 80,
                "duration": 0.1795,
                "tempo": 120.0
            },
            {
                "pitch": 53,
                "velocity": 80,
                "duration": 0.0955,
                "tempo": 120.0
            },
            {
                "pitch": 41,
                "velocity": 80,
                "duration": 0.1909,
                "tempo": 120.0
            },
            {
                "pitch": 53,
                "velocity": 80,
                "duration": 0.0705,
                "tempo": 120.0
            },
            {
                "pitch": 41,
                "velocity": 80,
                "duration": 0.1773,
                "tempo": 120.0
            },
            {
                "pitch": 53,
                "velocity": 80,
                "duration": 0.0977,
                "tempo": 120.0
            },
            {
                "pitch": 41,
                "velocity": 80,
                "duration": 0.1886,
                "tempo": 120.0
            },
            {
                "pitch": 53,
                "velocity": 80,
                "duration": 0.0682,
                "tempo": 120.0
            },
            {
                "pitch": 41,
                "velocity": 80,
                "duration": 0.1773,
                "tempo": 120.0
            },
            {
                "pitch": 53,
                "velocity": 80,
                "duration": 0.0977,
                "tempo": 120.0
            },
            {
                "pitch": 43,
                "velocity": 80,
                "duration": 0.1909,
                "tempo": 120.0
            },
            {
                "pitch": 55,
                "velocity": 80,
                "duration": 0.0682,
                "tempo": 120.0
            },
            {
                "pitch": 43,
                "velocity": 80,
                "duration": 0.1795,
                "tempo": 120.0
            },
            {
                "pitch": 55,
                "velocity": 80,
                "duration": 0.0955,
                "tempo": 120.0
            },
            {
                "pitch": 43,
                "velocity": 80,
                "duration": 0.1909,
                "tempo": 120.0
            },
            {
                "pitch": 55,
                "velocity": 80,
                "duration": 0.0705,
                "tempo": 120.0
            },
            {
                "pitch": 43,
                "velocity": 80,
                "duration": 0.1773,
                "tempo": 120.0
            },
            {
                "pitch": 55,
                "velocity": 80,
                "duration": 0.0977,
                "tempo": 120.0
            },
            {
                "pitch": 43,
                "velocity": 80,
                "duration": 0.1886,
                "tempo": 120.0
            },
            {
                "pitch": 55,
                "velocity": 80,
                "duration": 0.0682,
                "tempo": 120.0
            },
            {
                "pitch": 43,
                "velocity": 80,
                "duration": 0.1773,
                "tempo": 120.0
            },
            {
                "pitch": 55,
                "velocity": 80,
                "duration": 0.0977,
                "tempo": 120.0
            },
            {
                "pitch": 43,
                "velocity": 80,
                "duration": 0.1909,
                "tempo": 120.0
            },
            {
                "pitch": 55,
                "velocity": 80,
                "duration": 0.0705,
                "tempo": 120.0
            },
            {
                "pitch": 43,
                "velocity": 80,
                "duration": 0.2909,
                "tempo": 120.0
            },
            {
                "pitch": 43,
                "velocity": 80,
                "duration": 0.3091,
                "tempo": 120.0
            },
            {
                "pitch": 55,
                "velocity": 80,
                "duration": 0.0705,
                "tempo": 120.0
            },
            {
                "pitch": 43,
                "velocity": 80,
                "duration": 0.1773,
                "tempo": 120.0
            },
            {
                "pitch": 55,
                "velocity": 80,
                "duration": 0.0977,
                "tempo": 120.0
            },
            {
                "pitch": 43,
                "velocity": 80,
                "duration": 0.1886,
                "tempo": 120.0
            },
            {
                "pitch": 55,
                "velocity": 80,
                "duration": 0.0682,
                "tempo": 120.0
            },
            {
                "pitch": 43,
                "velocity": 80,
                "duration": 0.1773,
                "tempo": 120.0
            },
            {
                "pitch": 55,
                "velocity": 80,
                "duration": 0.0977,
                "tempo": 120.0
            },
            {
                "pitch": 43,
                "velocity": 80,
                "duration": 0.1909,
                "tempo": 120.0
            },
            {
                "pitch": 55,
                "velocity": 80,
                "duration": 0.0682,
                "tempo": 120.0
            },
            {
                "pitch": 43,
                "velocity": 80,
                "duration": 0.1795,
                "tempo": 120.0
            },
            {
                "pitch": 55,
                "velocity": 80,
                "duration": 0.0955,
                "tempo": 120.0
            },
            {
                "pitch": 43,
                "velocity": 80,
                "duration": 0.1909,
                "tempo": 120.0
            },
            {
                "pitch": 55,
                "velocity": 80,
                "duration": 0.0705,
                "tempo": 120.0
            },
            {
                "pitch": 43,
                "velocity": 80,
                "duration": 0.1773,
                "tempo": 120.0
            },
            {
                "pitch": 55,
                "velocity": 80,
                "duration": 0.0977,
                "tempo": 120.0
            },
            {
                "pitch": 41,
                "velocity": 80,
                "duration": 0.1886,
                "tempo": 120.0
            },
            {
                "pitch": 53,
                "velocity": 80,
                "duration": 0.0682,
                "tempo": 120.0
            },
            {
                "pitch": 41,
                "velocity": 80,
                "duration": 0.1773,
                "tempo": 120.0
            },
            {
                "pitch": 53,
                "velocity": 80,
                "duration": 0.0977,
                "tempo": 120.0
            },
            {
                "pitch": 41,
                "velocity": 80,
                "duration": 0.1909,
                "tempo": 120.0
            },
            {
                "pitch": 53,
                "velocity": 80,
                "duration": 0.0682,
                "tempo": 120.0
            },
            {
                "pitch": 41,
                "velocity": 80,
                "duration": 0.1795,
                "tempo": 120.0
            },
            {
                "pitch": 53,
                "velocity": 80,
                "duration": 0.0955,
                "tempo": 120.0
            },
            {
                "pitch": 41,
                "velocity": 80,
                "duration": 0.1909,
                "tempo": 120.0
            },
            {
                "pitch": 53,
                "velocity": 80,
                "duration": 0.0705,
                "tempo": 120.0
            },
            {
                "pitch": 41,
                "velocity": 80,
                "duration": 0.1773,
                "tempo": 120.0
            },
            {
                "pitch": 53,
                "velocity": 80,
                "duration": 0.0977,
                "tempo": 120.0
            },
            {
                "pitch": 41,
                "velocity": 80,
                "duration": 0.1886,
                "tempo": 120.0
            },
            {
                "pitch": 53,
                "velocity": 80,
                "duration": 0.0682,
                "tempo": 120.0
            },
            {
                "pitch": 41,
                "velocity": 80,
                "duration": 0.1773,
                "tempo": 120.0
            },
            {
                "pitch": 53,
                "velocity": 80,
                "duration": 0.0977,
                "tempo": 120.0
            },
            {
                "pitch": 41,
                "velocity": 80,
                "duration": 0.1909,
                "tempo": 120.0
            },
            {
                "pitch": 53,
                "velocity": 80,
                "duration": 0.0705,
                "tempo": 120.0
            },
            {
                "pitch": 41,
                "velocity": 80,
                "duration": 0.1795,
                "tempo": 120.0
            },
            {
                "pitch": 53,
                "velocity": 80,
                "duration": 0.0955,
                "tempo": 120.0
            },
            {
                "pitch": 41,
                "velocity": 80,
                "duration": 0.1909,
                "tempo": 120.0
            },
            {
                "pitch": 53,
                "velocity": 80,
                "duration": 0.0705,
                "tempo": 120.0
            },
            {
                "pitch": 41,
                "velocity": 80,
                "duration": 0.1773,
                "tempo": 120.0
            },
            {
                "pitch": 53,
                "velocity": 80,
                "duration": 0.0977,
                "tempo": 120.0
            },
            {
                "pitch": 41,
                "velocity": 80,
                "duration": 0.1886,
                "tempo": 120.0
            },
            {
                "pitch": 53,
                "velocity": 80,
                "duration": 0.0682,
                "tempo": 120.0
            },
            {
                "pitch": 41,
                "velocity": 80,
                "duration": 0.1773,
                "tempo": 120.0
            },
            {
                "pitch": 53,
                "velocity": 80,
                "duration": 0.0977,
                "tempo": 120.0
            },
            {
                "pitch": 41,
                "velocity": 80,
                "duration": 0.1909,
                "tempo": 120.0
            },
            {
                "pitch": 53,
                "velocity": 80,
                "duration": 0.0705,
                "tempo": 120.0
            },
            {
                "pitch": 41,
                "velocity": 80,
                "duration": 0.1773,
                "tempo": 120.0
            },
            {
                "pitch": 53,
                "velocity": 80,
                "duration": 0.0955,
                "tempo": 120.0
            },
            {
                "pitch": 43,
                "velocity": 80,
                "duration": 0.1909,
                "tempo": 120.0
            },
            {
                "pitch": 55,
                "velocity": 80,
                "duration": 0.0705,
                "tempo": 120.0
            },
            {
                "pitch": 43,
                "velocity": 80,
                "duration": 0.1773,
                "tempo": 120.0
            },
            {
                "pitch": 55,
                "velocity": 80,
                "duration": 0.0977,
                "tempo": 120.0
            },
            {
                "pitch": 43,
                "velocity": 80,
                "duration": 0.1886,
                "tempo": 120.0
            },
            {
                "pitch": 55,
                "velocity": 80,
                "duration": 0.0682,
                "tempo": 120.0
            },
            {
                "pitch": 43,
                "velocity": 80,
                "duration": 0.1795,
                "tempo": 120.0
            },
            {
                "pitch": 55,
                "velocity": 80,
                "duration": 0.0977,
                "tempo": 120.0
            },
            {
                "pitch": 43,
                "velocity": 80,
                "duration": 0.1909,
                "tempo": 120.0
            },
            {
                "pitch": 55,
                "velocity": 80,
                "duration": 0.0705,
                "tempo": 120.0
            },
            {
                "pitch": 43,
                "velocity": 80,
                "duration": 0.1773,
                "tempo": 120.0
            },
            {
                "pitch": 55,
                "velocity": 80,
                "duration": 0.0955,
                "tempo": 120.0
            },
            {
                "pitch": 43,
                "velocity": 80,
                "duration": 0.1886,
                "tempo": 120.0
            },
            {
                "pitch": 55,
                "velocity": 80,
                "duration": 0.0682,
                "tempo": 120.0
            },
            {
                "pitch": 43,
                "velocity": 80,
                "duration": 0.1773,
                "tempo": 120.0
            },
            {
                "pitch": 55,
                "velocity": 80,
                "duration": 0.0977,
                "tempo": 120.0
            },
            {
                "pitch": 43,
                "velocity": 80,
                "duration": 0.1886,
                "tempo": 120.0
            },
            {
                "pitch": 55,
                "velocity": 80,
                "duration": 0.0682,
                "tempo": 120.0
            },
            {
                "pitch": 43,
                "velocity": 80,
                "duration": 0.1795,
                "tempo": 120.0
            },
            {
                "pitch": 55,
                "velocity": 80,
                "duration": 0.0977,
                "tempo": 120.0
            },
            {
                "pitch": 43,
                "velocity": 80,
                "duration": 0.1909,
                "tempo": 120.0
            },
            {
                "pitch": 55,
                "velocity": 80,
                "duration": 0.0705,
                "tempo": 120.0
            },
            {
                "pitch": 43,
                "velocity": 80,
                "duration": 0.1773,
                "tempo": 120.0
            },
            {
                "pitch": 55,
                "velocity": 80,
                "duration": 0.0955,
                "tempo": 120.0
            },
            {
                "pitch": 43,
                "velocity": 80,
                "duration": 0.1886,
                "tempo": 120.0
            },
            {
                "pitch": 55,
                "velocity": 80,
                "duration": 0.0682,
                "tempo": 120.0
            },
            {
                "pitch": 43,
                "velocity": 80,
                "duration": 0.1773,
                "tempo": 120.0
            },
            {
                "pitch": 55,
                "velocity": 80,
                "duration": 0.0977,
                "tempo": 120.0
            },
            {
                "pitch": 43,
                "velocity": 80,
                "duration": 0.1886,
                "tempo": 120.0
            },
            {
                "pitch": 55,
                "velocity": 80,
                "duration": 0.0682,
                "tempo": 120.0
            },
            {
                "pitch": 43,
                "velocity": 80,
                "duration": 0.1795,
                "tempo": 120.0
            },
            {
                "pitch": 55,
                "velocity": 80,
                "duration": 0.0977,
                "tempo": 120.0
            },
            {
                "pitch": 41,
                "velocity": 80,
                "duration": 0.1909,
                "tempo": 120.0
            },
            {
                "pitch": 53,
                "velocity": 80,
                "duration": 0.0705,
                "tempo": 120.0
            },
            {
                "pitch": 41,
                "velocity": 80,
                "duration": 0.1773,
                "tempo": 120.0
            },
            {
                "pitch": 53,
                "velocity": 80,
                "duration": 0.0977,
                "tempo": 120.0
            },
            {
                "pitch": 41,
                "velocity": 80,
                "duration": 0.1886,
                "tempo": 120.0
            },
            {
                "pitch": 53,
                "velocity": 80,
                "duration": 0.0682,
                "tempo": 120.0
            },
            {
                "pitch": 41,
                "velocity": 80,
                "duration": 0.1773,
                "tempo": 120.0
            },
            {
                "pitch": 53,
                "velocity": 80,
                "duration": 0.0977,
                "tempo": 120.0
            },
            {
                "pitch": 41,
                "velocity": 80,
                "duration": 0.1909,
                "tempo": 120.0
            },
            {
                "pitch": 53,
                "velocity": 80,
                "duration": 0.0682,
                "tempo": 120.0
            },
            {
                "pitch": 41,
                "velocity": 80,
                "duration": 0.1795,
                "tempo": 120.0
            },
            {
                "pitch": 53,
                "velocity": 80,
                "duration": 0.0977,
                "tempo": 120.0
            },
            {
                "pitch": 41,
                "velocity": 80,
                "duration": 0.1909,
                "tempo": 120.0
            },
            {
                "pitch": 53,
                "velocity": 80,
                "duration": 0.0705,
                "tempo": 120.0
            },
            {
                "pitch": 41,
                "velocity": 80,
                "duration": 0.1773,
                "tempo": 120.0
            },
            {
                "pitch": 53,
                "velocity": 80,
                "duration": 0.0977,
                "tempo": 120.0
            },
            {
                "pitch": 41,
                "velocity": 80,
                "duration": 0.1886,
                "tempo": 120.0
            },
            {
                "pitch": 53,
                "velocity": 80,
                "duration": 0.0682,
                "tempo": 120.0
            },
            {
                "pitch": 41,
                "velocity": 80,
                "duration": 0.1773,
                "tempo": 120.0
            },
            {
                "pitch": 53,
                "velocity": 80,
                "duration": 0.0977,
                "tempo": 120.0
            },
            {
                "pitch": 41,
                "velocity": 80,
                "duration": 0.1909,
                "tempo": 120.0
            },
            {
                "pitch": 53,
                "velocity": 80,
                "duration": 0.0682,
                "tempo": 120.0
            },
            {
                "pitch": 41,
                "velocity": 80,
                "duration": 0.1795,
                "tempo": 120.0
            },
            {
                "pitch": 53,
                "velocity": 80,
                "duration": 0.0955,
                "tempo": 120.0
            },
            {
                "pitch": 41,
                "velocity": 80,
                "duration": 0.1909,
                "tempo": 120.0
            },
            {
                "pitch": 53,
                "velocity": 80,
                "duration": 0.0705,
                "tempo": 120.0
            },
            {
                "pitch": 41,
                "velocity": 80,
                "duration": 0.1773,
                "tempo": 120.0
            },
            {
                "pitch": 53,
                "velocity": 80,
                "duration": 0.0977,
                "tempo": 120.0
            },
            {
                "pitch": 41,
                "velocity": 80,
                "duration": 0.1886,
                "tempo": 120.0
            },
            {
                "pitch": 53,
                "velocity": 80,
                "duration": 0.0682,
                "tempo": 120.0
            },
            {
                "pitch": 41,
                "velocity": 80,
                "duration": 0.1773,
                "tempo": 120.0
            },
            {
                "pitch": 53,
                "velocity": 80,
                "duration": 0.0977,
                "tempo": 120.0
            },
            {
                "pitch": 43,
                "velocity": 80,
                "duration": 0.1909,
                "tempo": 120.0
            },
            {
                "pitch": 55,
                "velocity": 80,
                "duration": 0.0682,
                "tempo": 120.0
            },
            {
                "pitch": 43,
                "velocity": 80,
                "duration": 0.1795,
                "tempo": 120.0
            },
            {
                "pitch": 55,
                "velocity": 80,
                "duration": 0.0955,
                "tempo": 120.0
            },
            {
                "pitch": 43,
                "velocity": 80,
                "duration": 0.1909,
                "tempo": 120.0
            },
            {
                "pitch": 55,
                "velocity": 80,
                "duration": 0.0705,
                "tempo": 120.0
            },
            {
                "pitch": 43,
                "velocity": 80,
                "duration": 0.1773,
                "tempo": 120.0
            },
            {
                "pitch": 55,
                "velocity": 80,
                "duration": 0.0977,
                "tempo": 120.0
            },
            {
                "pitch": 43,
                "velocity": 80,
                "duration": 0.1886,
                "tempo": 120.0
            },
            {
                "pitch": 55,
                "velocity": 80,
                "duration": 0.0682,
                "tempo": 120.0
            },
            {
                "pitch": 43,
                "velocity": 80,
                "duration": 0.1773,
                "tempo": 120.0
            },
            {
                "pitch": 55,
                "velocity": 80,
                "duration": 0.0977,
                "tempo": 120.0
            },
            {
                "pitch": 43,
                "velocity": 80,
                "duration": 0.1909,
                "tempo": 120.0
            },
            {
                "pitch": 55,
                "velocity": 80,
                "duration": 0.0682,
                "tempo": 120.0
            },
            {
                "pitch": 43,
                "velocity": 80,
                "duration": 0.1795,
                "tempo": 120.0
            },
            {
                "pitch": 55,
                "velocity": 80,
                "duration": 0.0955,
                "tempo": 120.0
            },
            {
                "pitch": 43,
                "velocity": 80,
                "duration": 0.1909,
                "tempo": 120.0
            },
            {
                "pitch": 55,
                "velocity": 80,
                "duration": 0.0705,
                "tempo": 120.0
            },
            {
                "pitch": 43,
                "velocity": 80,
                "duration": 0.1773,
                "tempo": 120.0
            },
            {
                "pitch": 55,
                "velocity": 80,
                "duration": 0.0977,
                "tempo": 120.0
            },
            {
                "pitch": 43,
                "velocity": 80,
                "duration": 0.1886,
                "tempo": 120.0
            },
            {
                "pitch": 55,
                "velocity": 80,
                "duration": 0.0682,
                "tempo": 120.0
            },
            {
                "pitch": 43,
                "velocity": 80,
                "duration": 0.1773,
                "tempo": 120.0
            },
            {
                "pitch": 55,
                "velocity": 80,
                "duration": 0.0977,
                "tempo": 120.0
            },
            {
                "pitch": 43,
                "velocity": 80,
                "duration": 0.1909,
                "tempo": 120.0
            },
            {
                "pitch": 55,
                "velocity": 80,
                "duration": 0.0682,
                "tempo": 120.0
            },
            {
                "pitch": 43,
                "velocity": 80,
                "duration": 0.1795,
                "tempo": 120.0
            },
            {
                "pitch": 55,
                "velocity": 80,
                "duration": 0.0955,
                "tempo": 120.0
            },
            {
                "pitch": 43,
                "velocity": 80,
                "duration": 0.1909,
                "tempo": 120.0
            },
            {
                "pitch": 55,
                "velocity": 80,
                "duration": 0.0705,
                "tempo": 120.0
            },
            {
                "pitch": 43,
                "velocity": 80,
                "duration": 0.1773,
                "tempo": 120.0
            },
            {
                "pitch": 55,
                "velocity": 80,
                "duration": 0.0977,
                "tempo": 120.0
            },
            {
                "pitch": 41,
                "velocity": 80,
                "duration": 0.1886,
                "tempo": 120.0
            },
            {
                "pitch": 53,
                "velocity": 80,
                "duration": 0.0682,
                "tempo": 120.0
            },
            {
                "pitch": 41,
                "velocity": 80,
                "duration": 0.1773,
                "tempo": 120.0
            },
            {
                "pitch": 53,
                "velocity": 80,
                "duration": 0.0977,
                "tempo": 120.0
            },
            {
                "pitch": 41,
                "velocity": 80,
                "duration": 0.1909,
                "tempo": 120.0
            },
            {
                "pitch": 53,
                "velocity": 80,
                "duration": 0.0705,
                "tempo": 120.0
            },
            {
                "pitch": 41,
                "velocity": 80,
                "duration": 0.1795,
                "tempo": 120.0
            },
            {
                "pitch": 53,
                "velocity": 80,
                "duration": 0.0955,
                "tempo": 120.0
            },
            {
                "pitch": 41,
                "velocity": 80,
                "duration": 0.1909,
                "tempo": 120.0
            },
            {
                "pitch": 53,
                "velocity": 80,
                "duration": 0.0705,
                "tempo": 120.0
            },
            {
                "pitch": 41,
                "velocity": 80,
                "duration": 0.1773,
                "tempo": 120.0
            },
            {
                "pitch": 53,
                "velocity": 80,
                "duration": 0.0977,
                "tempo": 120.0
            },
            {
                "pitch": 41,
                "velocity": 80,
                "duration": 0.1886,
                "tempo": 120.0
            },
            {
                "pitch": 53,
                "velocity": 80,
                "duration": 0.0682,
                "tempo": 120.0
            },
            {
                "pitch": 41,
                "velocity": 80,
                "duration": 0.1773,
                "tempo": 120.0
            },
            {
                "pitch": 53,
                "velocity": 80,
                "duration": 0.0977,
                "tempo": 120.0
            },
            {
                "pitch": 41,
                "velocity": 80,
                "duration": 0.1909,
                "tempo": 120.0
            },
            {
                "pitch": 53,
                "velocity": 80,
                "duration": 0.0705,
                "tempo": 120.0
            },
            {
                "pitch": 41,
                "velocity": 80,
                "duration": 0.1773,
                "tempo": 120.0
            },
            {
                "pitch": 53,
                "velocity": 80,
                "duration": 0.0955,
                "tempo": 120.0
            },
            {
                "pitch": 41,
                "velocity": 80,
                "duration": 0.1909,
                "tempo": 120.0
            },
            {
                "pitch": 53,
                "velocity": 80,
                "duration": 0.0705,
                "tempo": 120.0
            },
            {
                "pitch": 41,
                "velocity": 80,
                "duration": 0.1773,
                "tempo": 120.0
            },
            {
                "pitch": 53,
                "velocity": 80,
                "duration": 0.0977,
                "tempo": 120.0
            },
            {
                "pitch": 41,
                "velocity": 80,
                "duration": 0.1886,
                "tempo": 120.0
            },
            {
                "pitch": 53,
                "velocity": 80,
                "duration": 0.0682,
                "tempo": 120.0
            },
            {
                "pitch": 41,
                "velocity": 80,
                "duration": 0.1795,
                "tempo": 120.0
            },
            {
                "pitch": 53,
                "velocity": 80,
                "duration": 0.0977,
                "tempo": 120.0
            },
            {
                "pitch": 41,
                "velocity": 80,
                "duration": 0.1909,
                "tempo": 120.0
            },
            {
                "pitch": 53,
                "velocity": 80,
                "duration": 0.0705,
                "tempo": 120.0
            },
            {
                "pitch": 41,
                "velocity": 80,
                "duration": 0.1773,
                "tempo": 120.0
            },
            {
                "pitch": 53,
                "velocity": 80,
                "duration": 0.0955,
                "tempo": 120.0
            },
            {
                "pitch": 43,
                "velocity": 80,
                "duration": 0.1886,
                "tempo": 120.0
            },
            {
                "pitch": 55,
                "velocity": 80,
                "duration": 0.0682,
                "tempo": 120.0
            },
            {
                "pitch": 43,
                "velocity": 80,
                "duration": 0.1773,
                "tempo": 120.0
            },
            {
                "pitch": 55,
                "velocity": 80,
                "duration": 0.0977,
                "tempo": 120.0
            },
            {
                "pitch": 43,
                "velocity": 80,
                "duration": 0.1886,
                "tempo": 120.0
            },
            {
                "pitch": 55,
                "velocity": 80,
                "duration": 0.0682,
                "tempo": 120.0
            },
            {
                "pitch": 43,
                "velocity": 80,
                "duration": 0.1795,
                "tempo": 120.0
            },
            {
                "pitch": 55,
                "velocity": 80,
                "duration": 0.0977,
                "tempo": 120.0
            },
            {
                "pitch": 43,
                "velocity": 80,
                "duration": 0.1909,
                "tempo": 120.0
            },
            {
                "pitch": 55,
                "velocity": 80,
                "duration": 0.0705,
                "tempo": 120.0
            },
            {
                "pitch": 43,
                "velocity": 80,
                "duration": 0.1773,
                "tempo": 120.0
            },
            {
                "pitch": 55,
                "velocity": 80,
                "duration": 0.0955,
                "tempo": 120.0
            },
            {
                "pitch": 43,
                "velocity": 80,
                "duration": 0.1886,
                "tempo": 120.0
            },
            {
                "pitch": 55,
                "velocity": 80,
                "duration": 0.0682,
                "tempo": 120.0
            },
            {
                "pitch": 43,
                "velocity": 80,
                "duration": 0.1773,
                "tempo": 120.0
            },
            {
                "pitch": 55,
                "velocity": 80,
                "duration": 0.0977,
                "tempo": 120.0
            },
            {
                "pitch": 43,
                "velocity": 80,
                "duration": 0.1886,
                "tempo": 120.0
            },
            {
                "pitch": 55,
                "velocity": 80,
                "duration": 0.0682,
                "tempo": 120.0
            },
            {
                "pitch": 43,
                "velocity": 80,
                "duration": 0.1795,
                "tempo": 120.0
            },
            {
                "pitch": 55,
                "velocity": 80,
                "duration": 0.0977,
                "tempo": 120.0
            },
            {
                "pitch": 43,
                "velocity": 80,
                "duration": 0.1909,
                "tempo": 120.0
            },
            {
                "pitch": 55,
                "velocity": 80,
                "duration": 0.0705,
                "tempo": 120.0
            },
            {
                "pitch": 43,
                "velocity": 80,
                "duration": 0.1773,
                "tempo": 120.0
            },
            {
                "pitch": 55,
                "velocity": 80,
                "duration": 0.0955,
                "tempo": 120.0
            },
            {
                "pitch": 43,
                "velocity": 80,
                "duration": 0.1886,
                "tempo": 120.0
            },
            {
                "pitch": 55,
                "velocity": 80,
                "duration": 0.0682,
                "tempo": 120.0
            },
            {
                "pitch": 43,
                "velocity": 80,
                "duration": 0.1773,
                "tempo": 120.0
            },
            {
                "pitch": 55,
                "velocity": 80,
                "duration": 0.0977,
                "tempo": 120.0
            },
            {
                "pitch": 43,
                "velocity": 80,
                "duration": 0.1909,
                "tempo": 120.0
            },
            {
                "pitch": 55,
                "velocity": 80,
                "duration": 0.0682,
                "tempo": 120.0
            },
            {
                "pitch": 43,
                "velocity": 80,
                "duration": 0.1795,
                "tempo": 120.0
            },
            {
                "pitch": 55,
                "velocity": 80,
                "duration": 0.0977,
                "tempo": 120.0
            },
            {
                "pitch": 41,
                "velocity": 80,
                "duration": 0.1841,
                "tempo": 120.0
            },
            {
                "pitch": 53,
                "velocity": 80,
                "duration": 0.0659,
                "tempo": 120.0
            },
            {
                "pitch": 41,
                "velocity": 80,
                "duration": 0.1818,
                "tempo": 120.0
            },
            {
                "pitch": 53,
                "velocity": 80,
                "duration": 0.1,
                "tempo": 120.0
            },
            {
                "pitch": 41,
                "velocity": 80,
                "duration": 0.1909,
                "tempo": 120.0
            },
            {
                "pitch": 53,
                "velocity": 80,
                "duration": 0.0705,
                "tempo": 120.0
            },
            {
                "pitch": 41,
                "velocity": 80,
                "duration": 0.1773,
                "tempo": 120.0
            },
            {
                "pitch": 53,
                "velocity": 80,
                "duration": 0.0955,
                "tempo": 120.0
            },
            {
                "pitch": 41,
                "velocity": 80,
                "duration": 0.1909,
                "tempo": 120.0
            },
            {
                "pitch": 53,
                "velocity": 80,
                "duration": 0.0705,
                "tempo": 120.0
            },
            {
                "pitch": 41,
                "velocity": 80,
                "duration": 0.1773,
                "tempo": 120.0
            },
            {
                "pitch": 53,
                "velocity": 80,
                "duration": 0.0977,
                "tempo": 120.0
            },
            {
                "pitch": 41,
                "velocity": 80,
                "duration": 0.1886,
                "tempo": 120.0
            },
            {
                "pitch": 53,
                "velocity": 80,
                "duration": 0.0682,
                "tempo": 120.0
            },
            {
                "pitch": 41,
                "velocity": 80,
                "duration": 0.1795,
                "tempo": 120.0
            },
            {
                "pitch": 53,
                "velocity": 80,
                "duration": 0.0977,
                "tempo": 120.0
            },
            {
                "pitch": 41,
                "velocity": 80,
                "duration": 0.1909,
                "tempo": 120.0
            },
            {
                "pitch": 53,
                "velocity": 80,
                "duration": 0.0705,
                "tempo": 120.0
            },
            {
                "pitch": 41,
                "velocity": 80,
                "duration": 0.1841,
                "tempo": 120.0
            },
            {
                "pitch": 53,
                "velocity": 80,
                "duration": 0.1,
                "tempo": 120.0
            },
            {
                "pitch": 41,
                "velocity": 80,
                "duration": 0.1841,
                "tempo": 120.0
            },
            {
                "pitch": 53,
                "velocity": 80,
                "duration": 0.0682,
                "tempo": 120.0
            },
            {
                "pitch": 41,
                "velocity": 80,
                "duration": 0.1773,
                "tempo": 120.0
            },
            {
                "pitch": 53,
                "velocity": 80,
                "duration": 0.0977,
                "tempo": 120.0
            },
            {
                "pitch": 41,
                "velocity": 80,
                "duration": 0.1886,
                "tempo": 120.0
            },
            {
                "pitch": 53,
                "velocity": 80,
                "duration": 0.0682,
                "tempo": 120.0
            },
            {
                "pitch": 41,
                "velocity": 80,
                "duration": 0.1773,
                "tempo": 120.0
            },
            {
                "pitch": 53,
                "velocity": 80,
                "duration": 0.0977,
                "tempo": 120.0
            },
            {
                "pitch": 41,
                "velocity": 80,
                "duration": 0.1909,
                "tempo": 120.0
            },
            {
                "pitch": 53,
                "velocity": 80,
                "duration": 0.0682,
                "tempo": 120.0
            },
            {
                "pitch": 41,
                "velocity": 80,
                "duration": 0.1795,
                "tempo": 120.0
            },
            {
                "pitch": 53,
                "velocity": 80,
                "duration": 0.0955,
                "tempo": 120.0
            },
            {
                "pitch": 43,
                "velocity": 80,
                "duration": 0.2773,
                "tempo": 120.0
            },
            {
                "pitch": 43,
                "velocity": 80,
                "duration": 0.0977,
                "tempo": 120.0
            },
            {
                "pitch": 43,
                "velocity": 80,
                "duration": 0.2909,
                "tempo": 120.0
            }
        ]
    }
}