{
    "track_id": "Space Harrier 3-D (FM) - 14 - Syura",
    "mood": "sad",
    "instruments": {
        "Acoustic Bass": [
            {
                "pitch": 34,
                "velocity": 80,
                "duration": 0.8318,
                "tempo": 120.0
            },
            {
                "pitch": 32,
                "velocity": 80,
                "duration": 0.8795,
                "tempo": 120.0
            },
            {
                "pitch": 30,
                "velocity": 80,
                "duration": 0.8932,
                "tempo": 120.0
            },
            {
                "pitch": 32,
                "velocity": 80,
                "duration": 0.8773,
                "tempo": 120.0
            },
            {
                "pitch": 34,
                "velocity": 80,
                "duration": 0.9023,
                "tempo": 120.0
            },
            {
                "pitch": 32,
                "velocity": 80,
                "duration": 0.8705,
                "tempo": 120.0
            },
            {
                "pitch": 30,
                "velocity": 80,
                "duration": 0.9023,
                "tempo": 120.0
            },
            {
                "pitch": 32,
                "velocity": 80,
                "duration": 0.8682,
                "tempo": 120.0
            },
            {
                "pitch": 34,
                "velocity": 80,
                "duration": 0.9045,
                "tempo": 120.0
            },
            {
                "pitch": 32,
                "velocity": 80,
                "duration": 0.8682,
                "tempo": 120.0
            },
            {
                "pitch": 30,
                "velocity": 80,
                "duration": 0.9023,
                "tempo": 120.0
            },
            {
                "pitch": 32,
                "velocity": 80,
                "duration": 0.8705,
                "tempo": 120.0
            },
            {
                "pitch": 34,
                "velocity": 80,
                "duration": 0.8932,
                "tempo": 120.0
            },
            {
                "pitch": 32,
                "velocity": 80,
                "duration": 0.8795,
                "tempo": 120.0
            },
            {
                "pitch": 30,
                "velocity": 80,
                "duration": 0.8932,
                "tempo": 120.0
            },
            {
                "pitch": 32,
                "velocity": 80,
                "duration": 0.8773,
                "tempo": 120.0
            },
            {
                "pitch": 34,
                "velocity": 80,
                "duration": 0.9023,
                "tempo": 120.0
            },
            {
                "pitch": 32,
                "velocity": 80,
                "duration": 0.8705,
                "tempo": 120.0
            },
            {
                "pitch": 30,
                "velocity": 80,
                "duration": 0.8932,
                "tempo": 120.0
            },
            {
                "pitch": 32,
                "velocity": 80,
                "duration": 0.8795,
                "tempo": 120.0
            },
            {
                "pitch": 34,
                "velocity": 80,
                "duration": 0.8864,
                "tempo": 120.0
            },
            {
                "pitch": 32,
                "velocity": 80,
                "duration": 0.875,
                "tempo": 120.0
            },
            {
                "pitch": 30,
                "velocity": 80,
                "duration": 0.8955,
                "tempo": 120.0
            },
            {
                "pitch": 32,
                "velocity": 80,
                "duration": 0.8659,
                "tempo": 120.0
            },
            {
                "pitch": 34,
                "velocity": 80,
                "duration": 0.9068,
                "tempo": 120.0
            },
            {
                "pitch": 32,
                "velocity": 80,
                "duration": 0.8773,
                "tempo": 120.0
            },
            {
                "pitch": 30,
                "velocity": 80,
                "duration": 0.8955,
                "tempo": 120.0
            },
            {
                "pitch": 32,
                "velocity": 80,
                "duration": 0.8773,
                "tempo": 120.0
            },
            {
                "pitch": 34,
                "velocity": 80,
                "duration": 0.8955,
                "tempo": 120.0
            },
            {
                "pitch": 32,
                "velocity": 80,
                "duration": 0.8773,
                "tempo": 120.0
            },
            {
                "pitch": 30,
                "velocity": 80,
                "duration": 0.8955,
                "tempo": 120.0
            },
            {
                "pitch": 32,
                "velocity": 80,
                "duration": 0.8773,
                "tempo": 120.0
            },
            {
                "pitch": 34,
                "velocity": 80,
                "duration": 0.8955,
                "tempo": 120.0
            },
            {
                "pitch": 32,
                "velocity": 80,
                "duration": 0.8773,
                "tempo": 120.0
            },
            {
                "pitch": 30,
                "velocity": 80,
                "duration": 0.8955,
                "tempo": 120.0
            },
            {
                "pitch": 32,
                "velocity": 80,
                "duration": 0.8773,
                "tempo": 120.0
            },
            {
                "pitch": 34,
                "velocity": 80,
                "duration": 0.8955,
                "tempo": 120.0
            },
            {
                "pitch": 32,
                "velocity": 80,
                "duration": 0.8773,
                "tempo": 120.0
            },
            {
                "pitch": 30,
                "velocity": 80,
                "duration": 0.8955,
                "tempo": 120.0
            },
            {
                "pitch": 32,
                "velocity": 80,
                "duration": 0.8773,
                "tempo": 120.0
            },
            {
                "pitch": 34,
                "velocity": 80,
                "duration": 0.8955,
                "tempo": 120.0
            },
            {
                "pitch": 32,
                "velocity": 80,
                "duration": 0.8773,
                "tempo": 120.0
            },
            {
                "pitch": 30,
                "velocity": 80,
                "duration": 0.8955,
                "tempo": 120.0
            },
            {
                "pitch": 32,
                "velocity": 80,
                "duration": 0.8659,
                "tempo": 120.0
            },
            {
                "pitch": 34,
                "velocity": 80,
                "duration": 0.9068,
                "tempo": 120.0
            },
            {
                "pitch": 32,
                "velocity": 80,
                "duration": 0.8773,
                "tempo": 120.0
            },
            {
                "pitch": 30,
                "velocity": 80,
                "duration": 0.8955,
                "tempo": 120.0
            },
            {
                "pitch": 32,
                "velocity": 80,
                "duration": 0.875,
                "tempo": 120.0
            },
            {
                "pitch": 34,
                "velocity": 80,
                "duration": 0.8955,
                "tempo": 120.0
            },
            {
                "pitch": 32,
                "velocity": 80,
                "duration": 0.8773,
                "tempo": 120.0
            },
            {
                "pitch": 30,
                "velocity": 80,
                "duration": 0.8955,
                "tempo": 120.0
            },
            {
                "pitch": 32,
                "velocity": 80,
                "duration": 0.8773,
                "tempo": 120.0
            },
            {
                "pitch": 34,
                "velocity": 80,
                "duration": 0.8955,
                "tempo": 120.0
            },
            {
                "pitch": 32,
                "velocity": 80,
                "duration": 0.8773,
                "tempo": 120.0
            },
            {
                "pitch": 30,
                "velocity": 80,
                "duration": 0.8955,
                "tempo": 120.0
            },
            {
                "pitch": 32,
                "velocity": 80,
                "duration": 0.8773,
                "tempo": 120.0
            },
            {
                "pitch": 34,
                "velocity": 80,
                "duration": 0.8955,
                "tempo": 120.0
            },
            {
                "pitch": 32,
                "velocity": 80,
                "duration": 0.8773,
                "tempo": 120.0
            },
            {
                "pitch": 30,
                "velocity": 80,
                "duration": 0.8977,
                "tempo": 120.0
            },
            {
                "pitch": 32,
                "velocity": 80,
                "duration": 0.8773,
                "tempo": 120.0
            },
            {
                "pitch": 34,
                "velocity": 80,
                "duration": 0.8955,
                "tempo": 120.0
            },
            {
                "pitch": 32,
                "velocity": 80,
                "duration": 0.8773,
                "tempo": 120.0
            },
            {
                "pitch": 30,
                "velocity": 80,
                "duration": 0.8955,
                "tempo": 120.0
            },
            {
                "pitch": 32,
                "velocity": 80,
                "duration": 0.8773,
                "tempo": 120.0
            },
            {
                "pitch": 34,
                "velocity": 80,
                "duration": 0.8955,
                "tempo": 120.0
            },
            {
                "pitch": 32,
                "velocity": 80,
                "duration": 0.8773,
                "tempo": 120.0
            },
            {
                "pitch": 30,
                "velocity": 80,
                "duration": 0.8955,
                "tempo": 120.0
            },
            {
                "pitch": 32,
                "velocity": 80,
                "duration": 0.8773,
                "tempo": 120.0
            },
            {
                "pitch": 34,
                "velocity": 80,
                "duration": 0.8955,
                "tempo": 120.0
            },
            {
                "pitch": 32,
                "velocity": 80,
                "duration": 0.875,
                "tempo": 120.0
            },
            {
                "pitch": 30,
                "velocity": 80,
                "duration": 0.8955,
                "tempo": 120.0
            },
            {
                "pitch": 32,
                "velocity": 80,
                "duration": 0.8682,
                "tempo": 120.0
            },
            {
                "pitch": 34,
                "velocity": 80,
                "duration": 0.9045,
                "tempo": 120.0
            },
            {
                "pitch": 32,
                "velocity": 80,
                "duration": 0.8773,
                "tempo": 120.0
            },
            {
                "pitch": 30,
                "velocity": 80,
                "duration": 0.8955,
                "tempo": 120.0
            },
            {
                "pitch": 32,
                "velocity": 80,
                "duration": 0.8773,
                "tempo": 120.0
            },
            {
                "pitch": 34,
                "velocity": 80,
                "duration": 0.8955,
                "tempo": 120.0
            },
            {
                "pitch": 32,
                "velocity": 80,
                "duration": 0.8773,
                "tempo": 120.0
            },
            {
                "pitch": 30,
                "velocity": 80,
                "duration": 0.8955,
                "tempo": 120.0
            },
            {
                "pitch": 32,
                "velocity": 80,
                "duration": 0.8773,
                "tempo": 120.0
            }
        ],
        "Acoustic Grand Piano": [
            {
                "pitch": 75,
                "velocity": 64,
                "duration": 0.1114,
                "tempo": 120.0
            },
            {
                "pitch": 77,
                "velocity": 64,
                "duration": 0.0955,
                "tempo": 120.0
            },
            {
                "pitch": 80,
                "velocity": 64,
                "duration": 0.0636,
                "tempo": 120.0
            },
            {
                "pitch": 82,
                "velocity": 64,
                "duration": 0.0636,
                "tempo": 120.0
            },
            {
                "pitch": 82,
                "velocity": 64,
                "duration": 0.2455,
                "tempo": 120.0
            },
            {
                "pitch": 75,
                "velocity": 64,
                "duration": 0.0705,
                "tempo": 120.0
            },
            {
                "pitch": 77,
                "velocity": 64,
                "duration": 0.1045,
                "tempo": 120.0
            },
            {
                "pitch": 80,
                "velocity": 64,
                "duration": 0.1159,
                "tempo": 120.0
            },
            {
                "pitch": 82,
                "velocity": 64,
                "duration": 0.0659,
                "tempo": 120.0
            },
            {
                "pitch": 82,
                "velocity": 64,
                "duration": 0.2295,
                "tempo": 120.0
            },
            {
                "pitch": 75,
                "velocity": 64,
                "duration": 0.0682,
                "tempo": 120.0
            },
            {
                "pitch": 77,
                "velocity": 64,
                "duration": 0.1182,
                "tempo": 120.0
            },
            {
                "pitch": 80,
                "velocity": 64,
                "duration": 0.1023,
                "tempo": 120.0
            },
            {
                "pitch": 82,
                "velocity": 64,
                "duration": 0.0682,
                "tempo": 120.0
            },
            {
                "pitch": 75,
                "velocity": 64,
                "duration": 0.1114,
                "tempo": 120.0
            },
            {
                "pitch": 77,
                "velocity": 64,
                "duration": 0.0977,
                "tempo": 120.0
            },
            {
                "pitch": 80,
                "velocity": 64,
                "duration": 0.0636,
                "tempo": 120.0
            },
            {
                "pitch": 82,
                "velocity": 64,
                "duration": 0.0636,
                "tempo": 120.0
            },
            {
                "pitch": 82,
                "velocity": 64,
                "duration": 0.2455,
                "tempo": 120.0
            },
            {
                "pitch": 75,
                "velocity": 64,
                "duration": 0.0682,
                "tempo": 120.0
            },
            {
                "pitch": 77,
                "velocity": 64,
                "duration": 0.1045,
                "tempo": 120.0
            },
            {
                "pitch": 80,
                "velocity": 64,
                "duration": 0.1136,
                "tempo": 120.0
            },
            {
                "pitch": 82,
                "velocity": 64,
                "duration": 0.0659,
                "tempo": 120.0
            },
            {
                "pitch": 82,
                "velocity": 64,
                "duration": 0.2295,
                "tempo": 120.0
            },
            {
                "pitch": 75,
                "velocity": 64,
                "duration": 0.0705,
                "tempo": 120.0
            },
            {
                "pitch": 77,
                "velocity": 64,
                "duration": 0.1205,
                "tempo": 120.0
            },
            {
                "pitch": 80,
                "velocity": 64,
                "duration": 0.1023,
                "tempo": 120.0
            },
            {
                "pitch": 82,
                "velocity": 64,
                "duration": 0.0682,
                "tempo": 120.0
            },
            {
                "pitch": 75,
                "velocity": 64,
                "duration": 0.1136,
                "tempo": 120.0
            },
            {
                "pitch": 77,
                "velocity": 64,
                "duration": 0.0955,
                "tempo": 120.0
            },
            {
                "pitch": 80,
                "velocity": 64,
                "duration": 0.0636,
                "tempo": 120.0
            },
            {
                "pitch": 82,
                "velocity": 64,
                "duration": 0.0636,
                "tempo": 120.0
            },
            {
                "pitch": 82,
                "velocity": 64,
                "duration": 0.2455,
                "tempo": 120.0
            },
            {
                "pitch": 75,
                "velocity": 64,
                "duration": 0.0705,
                "tempo": 120.0
            },
            {
                "pitch": 77,
                "velocity": 64,
                "duration": 0.1045,
                "tempo": 120.0
            },
            {
                "pitch": 80,
                "velocity": 64,
                "duration": 0.1136,
                "tempo": 120.0
            },
            {
                "pitch": 82,
                "velocity": 64,
                "duration": 0.0636,
                "tempo": 120.0
            },
            {
                "pitch": 82,
                "velocity": 64,
                "duration": 0.2295,
                "tempo": 120.0
            },
            {
                "pitch": 75,
                "velocity": 64,
                "duration": 0.0682,
                "tempo": 120.0
            },
            {
                "pitch": 77,
                "velocity": 64,
                "duration": 0.1205,
                "tempo": 120.0
            },
            {
                "pitch": 80,
                "velocity": 64,
                "duration": 0.1023,
                "tempo": 120.0
            },
            {
                "pitch": 82,
                "velocity": 64,
                "duration": 0.0682,
                "tempo": 120.0
            },
            {
                "pitch": 75,
                "velocity": 64,
                "duration": 0.1114,
                "tempo": 120.0
            },
            {
                "pitch": 77,
                "velocity": 64,
                "duration": 0.0955,
                "tempo": 120.0
            },
            {
                "pitch": 80,
                "velocity": 64,
                "duration": 0.0636,
                "tempo": 120.0
            },
            {
                "pitch": 82,
                "velocity": 64,
                "duration": 0.0659,
                "tempo": 120.0
            },
            {
                "pitch": 82,
                "velocity": 64,
                "duration": 0.2455,
                "tempo": 120.0
            },
            {
                "pitch": 75,
                "velocity": 64,
                "duration": 0.0705,
                "tempo": 120.0
            },
            {
                "pitch": 77,
                "velocity": 64,
                "duration": 0.1045,
                "tempo": 120.0
            },
            {
                "pitch": 80,
                "velocity": 64,
                "duration": 0.1159,
                "tempo": 120.0
            },
            {
                "pitch": 82,
                "velocity": 64,
                "duration": 0.0659,
                "tempo": 120.0
            },
            {
                "pitch": 82,
                "velocity": 64,
                "duration": 0.2295,
                "tempo": 120.0
            },
            {
                "pitch": 75,
                "velocity": 64,
                "duration": 0.0682,
                "tempo": 120.0
            },
            {
                "pitch": 77,
                "velocity": 64,
                "duration": 0.1182,
                "tempo": 120.0
            },
            {
                "pitch": 80,
                "velocity": 64,
                "duration": 0.1023,
                "tempo": 120.0
            },
            {
                "pitch": 82,
                "velocity": 64,
                "duration": 0.0682,
                "tempo": 120.0
            },
            {
                "pitch": 80,
                "velocity": 64,
                "duration": 0.1114,
                "tempo": 120.0
            },
            {
                "pitch": 82,
                "velocity": 64,
                "duration": 0.0955,
                "tempo": 120.0
            },
            {
                "pitch": 85,
                "velocity": 64,
                "duration": 0.0659,
                "tempo": 120.0
            },
            {
                "pitch": 87,
                "velocity": 64,
                "duration": 0.0636,
                "tempo": 120.0
            },
            {
                "pitch": 87,
                "velocity": 64,
                "duration": 0.2409,
                "tempo": 120.0
            },
            {
                "pitch": 80,
                "velocity": 64,
                "duration": 0.0682,
                "tempo": 120.0
            },
            {
                "pitch": 82,
                "velocity": 64,
                "duration": 0.1023,
                "tempo": 120.0
            },
            {
                "pitch": 85,
                "velocity": 64,
                "duration": 0.1182,
                "tempo": 120.0
            },
            {
                "pitch": 87,
                "velocity": 64,
                "duration": 0.0682,
                "tempo": 120.0
            },
            {
                "pitch": 87,
                "velocity": 64,
                "duration": 0.2341,
                "tempo": 120.0
            },
            {
                "pitch": 80,
                "velocity": 64,
                "duration": 0.0705,
                "tempo": 120.0
            },
            {
                "pitch": 82,
                "velocity": 64,
                "duration": 0.1205,
                "tempo": 120.0
            },
            {
                "pitch": 85,
                "velocity": 64,
                "duration": 0.1023,
                "tempo": 120.0
            },
            {
                "pitch": 87,
                "velocity": 64,
                "duration": 0.0682,
                "tempo": 120.0
            },
            {
                "pitch": 80,
                "velocity": 64,
                "duration": 0.1136,
                "tempo": 120.0
            },
            {
                "pitch": 82,
                "velocity": 64,
                "duration": 0.0955,
                "tempo": 120.0
            },
            {
                "pitch": 85,
                "velocity": 64,
                "duration": 0.0636,
                "tempo": 120.0
            },
            {
                "pitch": 87,
                "velocity": 64,
                "duration": 0.0636,
                "tempo": 120.0
            },
            {
                "pitch": 87,
                "velocity": 64,
                "duration": 0.2386,
                "tempo": 120.0
            },
            {
                "pitch": 80,
                "velocity": 64,
                "duration": 0.0682,
                "tempo": 120.0
            },
            {
                "pitch": 82,
                "velocity": 64,
                "duration": 0.1023,
                "tempo": 120.0
            },
            {
                "pitch": 85,
                "velocity": 64,
                "duration": 0.1159,
                "tempo": 120.0
            },
            {
                "pitch": 87,
                "velocity": 64,
                "duration": 0.0659,
                "tempo": 120.0
            },
            {
                "pitch": 87,
                "velocity": 64,
                "duration": 0.2341,
                "tempo": 120.0
            },
            {
                "pitch": 80,
                "velocity": 64,
                "duration": 0.0682,
                "tempo": 120.0
            },
            {
                "pitch": 82,
                "velocity": 64,
                "duration": 0.1205,
                "tempo": 120.0
            },
            {
                "pitch": 85,
                "velocity": 64,
                "duration": 0.1023,
                "tempo": 120.0
            },
            {
                "pitch": 87,
                "velocity": 64,
                "duration": 0.0682,
                "tempo": 120.0
            },
            {
                "pitch": 80,
                "velocity": 64,
                "duration": 0.1114,
                "tempo": 120.0
            },
            {
                "pitch": 82,
                "velocity": 64,
                "duration": 0.0955,
                "tempo": 120.0
            },
            {
                "pitch": 85,
                "velocity": 64,
                "duration": 0.0636,
                "tempo": 120.0
            },
            {
                "pitch": 87,
                "velocity": 64,
                "duration": 0.0636,
                "tempo": 120.0
            },
            {
                "pitch": 87,
                "velocity": 64,
                "duration": 0.2455,
                "tempo": 120.0
            },
            {
                "pitch": 80,
                "velocity": 64,
                "duration": 0.0705,
                "tempo": 120.0
            },
            {
                "pitch": 82,
                "velocity": 64,
                "duration": 0.1045,
                "tempo": 120.0
            },
            {
                "pitch": 85,
                "velocity": 64,
                "duration": 0.1159,
                "tempo": 120.0
            },
            {
                "pitch": 87,
                "velocity": 64,
                "duration": 0.0659,
                "tempo": 120.0
            },
            {
                "pitch": 87,
                "velocity": 64,
                "duration": 0.2295,
                "tempo": 120.0
            },
            {
                "pitch": 80,
                "velocity": 64,
                "duration": 0.0682,
                "tempo": 120.0
            },
            {
                "pitch": 82,
                "velocity": 64,
                "duration": 0.1182,
                "tempo": 120.0
            },
            {
                "pitch": 85,
                "velocity": 64,
                "duration": 0.1023,
                "tempo": 120.0
            },
            {
                "pitch": 87,
                "velocity": 64,
                "duration": 0.0682,
                "tempo": 120.0
            },
            {
                "pitch": 80,
                "velocity": 64,
                "duration": 0.1114,
                "tempo": 120.0
            },
            {
                "pitch": 82,
                "velocity": 64,
                "duration": 0.0977,
                "tempo": 120.0
            },
            {
                "pitch": 85,
                "velocity": 64,
                "duration": 0.0636,
                "tempo": 120.0
            },
            {
                "pitch": 87,
                "velocity": 64,
                "duration": 0.0636,
                "tempo": 120.0
            },
            {
                "pitch": 87,
                "velocity": 64,
                "duration": 0.2409,
                "tempo": 120.0
            },
            {
                "pitch": 80,
                "velocity": 64,
                "duration": 0.0682,
                "tempo": 120.0
            },
            {
                "pitch": 82,
                "velocity": 64,
                "duration": 0.1023,
                "tempo": 120.0
            },
            {
                "pitch": 85,
                "velocity": 64,
                "duration": 0.1182,
                "tempo": 120.0
            },
            {
                "pitch": 87,
                "velocity": 64,
                "duration": 0.0682,
                "tempo": 120.0
            },
            {
                "pitch": 87,
                "velocity": 64,
                "duration": 0.2341,
                "tempo": 120.0
            },
            {
                "pitch": 80,
                "velocity": 64,
                "duration": 0.0682,
                "tempo": 120.0
            },
            {
                "pitch": 82,
                "velocity": 64,
                "duration": 0.1205,
                "tempo": 120.0
            },
            {
                "pitch": 85,
                "velocity": 64,
                "duration": 0.1023,
                "tempo": 120.0
            },
            {
                "pitch": 87,
                "velocity": 64,
                "duration": 0.0682,
                "tempo": 120.0
            },
            {
                "pitch": 75,
                "velocity": 64,
                "duration": 0.1341,
                "tempo": 120.0
            },
            {
                "pitch": 77,
                "velocity": 64,
                "duration": 0.0841,
                "tempo": 120.0
            },
            {
                "pitch": 80,
                "velocity": 64,
                "duration": 0.0841,
                "tempo": 120.0
            },
            {
                "pitch": 82,
                "velocity": 64,
                "duration": 0.0818,
                "tempo": 120.0
            },
            {
                "pitch": 82,
                "velocity": 64,
                "duration": 0.2295,
                "tempo": 120.0
            },
            {
                "pitch": 75,
                "velocity": 64,
                "duration": 0.0864,
                "tempo": 120.0
            },
            {
                "pitch": 77,
                "velocity": 64,
                "duration": 0.0886,
                "tempo": 120.0
            },
            {
                "pitch": 80,
                "velocity": 64,
                "duration": 0.0977,
                "tempo": 120.0
            },
            {
                "pitch": 82,
                "velocity": 64,
                "duration": 0.0795,
                "tempo": 120.0
            },
            {
                "pitch": 82,
                "velocity": 64,
                "duration": 0.2068,
                "tempo": 120.0
            },
            {
                "pitch": 75,
                "velocity": 64,
                "duration": 0.0864,
                "tempo": 120.0
            },
            {
                "pitch": 77,
                "velocity": 64,
                "duration": 0.1364,
                "tempo": 120.0
            },
            {
                "pitch": 80,
                "velocity": 64,
                "duration": 0.0864,
                "tempo": 120.0
            },
            {
                "pitch": 82,
                "velocity": 64,
                "duration": 0.0841,
                "tempo": 120.0
            },
            {
                "pitch": 75,
                "velocity": 64,
                "duration": 0.1341,
                "tempo": 120.0
            },
            {
                "pitch": 77,
                "velocity": 64,
                "duration": 0.0841,
                "tempo": 120.0
            },
            {
                "pitch": 80,
                "velocity": 64,
                "duration": 0.0818,
                "tempo": 120.0
            },
            {
                "pitch": 82,
                "velocity": 64,
                "duration": 0.0818,
                "tempo": 120.0
            },
            {
                "pitch": 82,
                "velocity": 64,
                "duration": 0.2227,
                "tempo": 120.0
            },
            {
                "pitch": 75,
                "velocity": 64,
                "duration": 0.0864,
                "tempo": 120.0
            },
            {
                "pitch": 77,
                "velocity": 64,
                "duration": 0.0841,
                "tempo": 120.0
            },
            {
                "pitch": 80,
                "velocity": 64,
                "duration": 0.0955,
                "tempo": 120.0
            },
            {
                "pitch": 82,
                "velocity": 64,
                "duration": 0.0795,
                "tempo": 120.0
            },
            {
                "pitch": 82,
                "velocity": 64,
                "duration": 0.2091,
                "tempo": 120.0
            },
            {
                "pitch": 75,
                "velocity": 64,
                "duration": 0.0841,
                "tempo": 120.0
            },
            {
                "pitch": 77,
                "velocity": 64,
                "duration": 0.1364,
                "tempo": 120.0
            },
            {
                "pitch": 80,
                "velocity": 64,
                "duration": 0.0864,
                "tempo": 120.0
            },
            {
                "pitch": 82,
                "velocity": 64,
                "duration": 0.0864,
                "tempo": 120.0
            },
            {
                "pitch": 75,
                "velocity": 64,
                "duration": 0.1341,
                "tempo": 120.0
            },
            {
                "pitch": 77,
                "velocity": 64,
                "duration": 0.0818,
                "tempo": 120.0
            },
            {
                "pitch": 80,
                "velocity": 64,
                "duration": 0.0841,
                "tempo": 120.0
            },
            {
                "pitch": 82,
                "velocity": 64,
                "duration": 0.0841,
                "tempo": 120.0
            },
            {
                "pitch": 82,
                "velocity": 64,
                "duration": 0.2227,
                "tempo": 120.0
            },
            {
                "pitch": 75,
                "velocity": 64,
                "duration": 0.0841,
                "tempo": 120.0
            },
            {
                "pitch": 77,
                "velocity": 64,
                "duration": 0.0864,
                "tempo": 120.0
            },
            {
                "pitch": 80,
                "velocity": 64,
                "duration": 0.0955,
                "tempo": 120.0
            },
            {
                "pitch": 82,
                "velocity": 64,
                "duration": 0.0818,
                "tempo": 120.0
            },
            {
                "pitch": 82,
                "velocity": 64,
                "duration": 0.2068,
                "tempo": 120.0
            },
            {
                "pitch": 75,
                "velocity": 64,
                "duration": 0.0864,
                "tempo": 120.0
            },
            {
                "pitch": 77,
                "velocity": 64,
                "duration": 0.1364,
                "tempo": 120.0
            },
            {
                "pitch": 80,
                "velocity": 64,
                "duration": 0.0841,
                "tempo": 120.0
            },
            {
                "pitch": 82,
                "velocity": 64,
                "duration": 0.0841,
                "tempo": 120.0
            },
            {
                "pitch": 75,
                "velocity": 64,
                "duration": 0.1341,
                "tempo": 120.0
            },
            {
                "pitch": 77,
                "velocity": 64,
                "duration": 0.0841,
                "tempo": 120.0
            },
            {
                "pitch": 80,
                "velocity": 64,
                "duration": 0.0841,
                "tempo": 120.0
            },
            {
                "pitch": 82,
                "velocity": 64,
                "duration": 0.0841,
                "tempo": 120.0
            },
            {
                "pitch": 82,
                "velocity": 64,
                "duration": 0.2227,
                "tempo": 120.0
            },
            {
                "pitch": 75,
                "velocity": 64,
                "duration": 0.0864,
                "tempo": 120.0
            },
            {
                "pitch": 77,
                "velocity": 64,
                "duration": 0.0841,
                "tempo": 120.0
            },
            {
                "pitch": 80,
                "velocity": 64,
                "duration": 0.0955,
                "tempo": 120.0
            },
            {
                "pitch": 82,
                "velocity": 64,
                "duration": 0.0795,
                "tempo": 120.0
            },
            {
                "pitch": 82,
                "velocity": 64,
                "duration": 0.2091,
                "tempo": 120.0
            },
            {
                "pitch": 75,
                "velocity": 64,
                "duration": 0.0864,
                "tempo": 120.0
            },
            {
                "pitch": 77,
                "velocity": 64,
                "duration": 0.1364,
                "tempo": 120.0
            },
            {
                "pitch": 80,
                "velocity": 64,
                "duration": 0.0864,
                "tempo": 120.0
            },
            {
                "pitch": 82,
                "velocity": 64,
                "duration": 0.0864,
                "tempo": 120.0
            },
            {
                "pitch": 80,
                "velocity": 64,
                "duration": 0.1318,
                "tempo": 120.0
            },
            {
                "pitch": 82,
                "velocity": 64,
                "duration": 0.0841,
                "tempo": 120.0
            },
            {
                "pitch": 85,
                "velocity": 64,
                "duration": 0.0841,
                "tempo": 120.0
            },
            {
                "pitch": 87,
                "velocity": 64,
                "duration": 0.0841,
                "tempo": 120.0
            },
            {
                "pitch": 87,
                "velocity": 64,
                "duration": 0.2205,
                "tempo": 120.0
            },
            {
                "pitch": 80,
                "velocity": 64,
                "duration": 0.0864,
                "tempo": 120.0
            },
            {
                "pitch": 82,
                "velocity": 64,
                "duration": 0.0864,
                "tempo": 120.0
            },
            {
                "pitch": 85,
                "velocity": 64,
                "duration": 0.0955,
                "tempo": 120.0
            },
            {
                "pitch": 87,
                "velocity": 64,
                "duration": 0.0795,
                "tempo": 120.0
            },
            {
                "pitch": 87,
                "velocity": 64,
                "duration": 0.2091,
                "tempo": 120.0
            },
            {
                "pitch": 80,
                "velocity": 64,
                "duration": 0.0841,
                "tempo": 120.0
            },
            {
                "pitch": 82,
                "velocity": 64,
                "duration": 0.1386,
                "tempo": 120.0
            },
            {
                "pitch": 85,
                "velocity": 64,
                "duration": 0.0841,
                "tempo": 120.0
            },
            {
                "pitch": 87,
                "velocity": 64,
                "duration": 0.0864,
                "tempo": 120.0
            },
            {
                "pitch": 80,
                "velocity": 64,
                "duration": 0.1341,
                "tempo": 120.0
            },
            {
                "pitch": 82,
                "velocity": 64,
                "duration": 0.0841,
                "tempo": 120.0
            },
            {
                "pitch": 85,
                "velocity": 64,
                "duration": 0.0841,
                "tempo": 120.0
            },
            {
                "pitch": 87,
                "velocity": 64,
                "duration": 0.0841,
                "tempo": 120.0
            },
            {
                "pitch": 87,
                "velocity": 64,
                "duration": 0.2227,
                "tempo": 120.0
            },
            {
                "pitch": 80,
                "velocity": 64,
                "duration": 0.0841,
                "tempo": 120.0
            },
            {
                "pitch": 82,
                "velocity": 64,
                "duration": 0.0864,
                "tempo": 120.0
            },
            {
                "pitch": 85,
                "velocity": 64,
                "duration": 0.0977,
                "tempo": 120.0
            },
            {
                "pitch": 87,
                "velocity": 64,
                "duration": 0.0795,
                "tempo": 120.0
            },
            {
                "pitch": 87,
                "velocity": 64,
                "duration": 0.2068,
                "tempo": 120.0
            },
            {
                "pitch": 80,
                "velocity": 64,
                "duration": 0.0864,
                "tempo": 120.0
            },
            {
                "pitch": 82,
                "velocity": 64,
                "duration": 0.1364,
                "tempo": 120.0
            },
            {
                "pitch": 85,
                "velocity": 64,
                "duration": 0.0864,
                "tempo": 120.0
            },
            {
                "pitch": 87,
                "velocity": 64,
                "duration": 0.0841,
                "tempo": 120.0
            },
            {
                "pitch": 80,
                "velocity": 64,
                "duration": 0.1341,
                "tempo": 120.0
            },
            {
                "pitch": 82,
                "velocity": 64,
                "duration": 0.0841,
                "tempo": 120.0
            },
            {
                "pitch": 85,
                "velocity": 64,
                "duration": 0.0818,
                "tempo": 120.0
            },
            {
                "pitch": 87,
                "velocity": 64,
                "duration": 0.0841,
                "tempo": 120.0
            },
            {
                "pitch": 87,
                "velocity": 64,
                "duration": 0.2227,
                "tempo": 120.0
            },
            {
                "pitch": 80,
                "velocity": 64,
                "duration": 0.0864,
                "tempo": 120.0
            },
            {
                "pitch": 82,
                "velocity": 64,
                "duration": 0.0841,
                "tempo": 120.0
            },
            {
                "pitch": 85,
                "velocity": 64,
                "duration": 0.0955,
                "tempo": 120.0
            },
            {
                "pitch": 87,
                "velocity": 64,
                "duration": 0.0795,
                "tempo": 120.0
            },
            {
                "pitch": 87,
                "velocity": 64,
                "duration": 0.2091,
                "tempo": 120.0
            },
            {
                "pitch": 80,
                "velocity": 64,
                "duration": 0.0841,
                "tempo": 120.0
            },
            {
                "pitch": 82,
                "velocity": 64,
                "duration": 0.1364,
                "tempo": 120.0
            },
            {
                "pitch": 85,
                "velocity": 64,
                "duration": 0.0864,
                "tempo": 120.0
            },
            {
                "pitch": 87,
                "velocity": 64,
                "duration": 0.0864,
                "tempo": 120.0
            },
            {
                "pitch": 80,
                "velocity": 64,
                "duration": 0.1341,
                "tempo": 120.0
            },
            {
                "pitch": 82,
                "velocity": 64,
                "duration": 0.0818,
                "tempo": 120.0
            },
            {
                "pitch": 85,
                "velocity": 64,
                "duration": 0.0841,
                "tempo": 120.0
            },
            {
                "pitch": 87,
                "velocity": 64,
                "duration": 0.0841,
                "tempo": 120.0
            },
            {
                "pitch": 87,
                "velocity": 64,
                "duration": 0.2205,
                "tempo": 120.0
            },
            {
                "pitch": 80,
                "velocity": 64,
                "duration": 0.0841,
                "tempo": 120.0
            },
            {
                "pitch": 82,
                "velocity": 64,
                "duration": 0.0864,
                "tempo": 120.0
            },
            {
                "pitch": 85,
                "velocity": 64,
                "duration": 0.0955,
                "tempo": 120.0
            },
            {
                "pitch": 87,
                "velocity": 64,
                "duration": 0.0818,
                "tempo": 120.0
            },
            {
                "pitch": 87,
                "velocity": 64,
                "duration": 0.2068,
                "tempo": 120.0
            },
            {
                "pitch": 80,
                "velocity": 64,
                "duration": 0.0864,
                "tempo": 120.0
            },
            {
                "pitch": 82,
                "velocity": 64,
                "duration": 0.1364,
                "tempo": 120.0
            },
            {
                "pitch": 85,
                "velocity": 64,
                "duration": 0.0841,
                "tempo": 120.0
            },
            {
                "pitch": 87,
                "velocity": 64,
                "duration": 0.0864,
                "tempo": 120.0
            },
            {
                "pitch": 75,
                "velocity": 64,
                "duration": 0.1341,
                "tempo": 120.0
            },
            {
                "pitch": 77,
                "velocity": 64,
                "duration": 0.0841,
                "tempo": 120.0
            },
            {
                "pitch": 80,
                "velocity": 64,
                "duration": 0.0818,
                "tempo": 120.0
            },
            {
                "pitch": 82,
                "velocity": 64,
                "duration": 0.0818,
                "tempo": 120.0
            },
            {
                "pitch": 82,
                "velocity": 64,
                "duration": 0.2273,
                "tempo": 120.0
            },
            {
                "pitch": 75,
                "velocity": 64,
                "duration": 0.0864,
                "tempo": 120.0
            },
            {
                "pitch": 77,
                "velocity": 64,
                "duration": 0.0886,
                "tempo": 120.0
            },
            {
                "pitch": 80,
                "velocity": 64,
                "duration": 0.0977,
                "tempo": 120.0
            },
            {
                "pitch": 82,
                "velocity": 64,
                "duration": 0.0795,
                "tempo": 120.0
            },
            {
                "pitch": 82,
                "velocity": 64,
                "duration": 0.2068,
                "tempo": 120.0
            },
            {
                "pitch": 75,
                "velocity": 64,
                "duration": 0.0864,
                "tempo": 120.0
            },
            {
                "pitch": 77,
                "velocity": 64,
                "duration": 0.1364,
                "tempo": 120.0
            },
            {
                "pitch": 80,
                "velocity": 64,
                "duration": 0.0864,
                "tempo": 120.0
            },
            {
                "pitch": 82,
                "velocity": 64,
                "duration": 0.0841,
                "tempo": 120.0
            },
            {
                "pitch": 75,
                "velocity": 64,
                "duration": 0.1318,
                "tempo": 120.0
            },
            {
                "pitch": 77,
                "velocity": 64,
                "duration": 0.0818,
                "tempo": 120.0
            },
            {
                "pitch": 80,
                "velocity": 64,
                "duration": 0.0818,
                "tempo": 120.0
            },
            {
                "pitch": 82,
                "velocity": 64,
                "duration": 0.0818,
                "tempo": 120.0
            },
            {
                "pitch": 82,
                "velocity": 64,
                "duration": 0.2273,
                "tempo": 120.0
            },
            {
                "pitch": 75,
                "velocity": 64,
                "duration": 0.0886,
                "tempo": 120.0
            },
            {
                "pitch": 77,
                "velocity": 64,
                "duration": 0.0864,
                "tempo": 120.0
            },
            {
                "pitch": 80,
                "velocity": 64,
                "duration": 0.0955,
                "tempo": 120.0
            },
            {
                "pitch": 82,
                "velocity": 64,
                "duration": 0.0795,
                "tempo": 120.0
            },
            {
                "pitch": 82,
                "velocity": 64,
                "duration": 0.2091,
                "tempo": 120.0
            },
            {
                "pitch": 75,
                "velocity": 64,
                "duration": 0.0841,
                "tempo": 120.0
            },
            {
                "pitch": 77,
                "velocity": 64,
                "duration": 0.1364,
                "tempo": 120.0
            },
            {
                "pitch": 80,
                "velocity": 64,
                "duration": 0.0864,
                "tempo": 120.0
            },
            {
                "pitch": 82,
                "velocity": 64,
                "duration": 0.0841,
                "tempo": 120.0
            },
            {
                "pitch": 75,
                "velocity": 64,
                "duration": 0.1318,
                "tempo": 120.0
            },
            {
                "pitch": 77,
                "velocity": 64,
                "duration": 0.0818,
                "tempo": 120.0
            },
            {
                "pitch": 80,
                "velocity": 64,
                "duration": 0.0818,
                "tempo": 120.0
            },
            {
                "pitch": 82,
                "velocity": 64,
                "duration": 0.0818,
                "tempo": 120.0
            },
            {
                "pitch": 82,
                "velocity": 64,
                "duration": 0.2273,
                "tempo": 120.0
            },
            {
                "pitch": 75,
                "velocity": 64,
                "duration": 0.0886,
                "tempo": 120.0
            },
            {
                "pitch": 77,
                "velocity": 64,
                "duration": 0.0864,
                "tempo": 120.0
            },
            {
                "pitch": 80,
                "velocity": 64,
                "duration": 0.0955,
                "tempo": 120.0
            },
            {
                "pitch": 82,
                "velocity": 64,
                "duration": 0.0795,
                "tempo": 120.0
            },
            {
                "pitch": 82,
                "velocity": 64,
                "duration": 0.2091,
                "tempo": 120.0
            },
            {
                "pitch": 75,
                "velocity": 64,
                "duration": 0.0841,
                "tempo": 120.0
            },
            {
                "pitch": 77,
                "velocity": 64,
                "duration": 0.1386,
                "tempo": 120.0
            },
            {
                "pitch": 80,
                "velocity": 64,
                "duration": 0.0841,
                "tempo": 120.0
            },
            {
                "pitch": 82,
                "velocity": 64,
                "duration": 0.0864,
                "tempo": 120.0
            },
            {
                "pitch": 75,
                "velocity": 64,
                "duration": 0.1341,
                "tempo": 120.0
            },
            {
                "pitch": 77,
                "velocity": 64,
                "duration": 0.0841,
                "tempo": 120.0
            },
            {
                "pitch": 80,
                "velocity": 64,
                "duration": 0.0841,
                "tempo": 120.0
            },
            {
                "pitch": 82,
                "velocity": 64,
                "duration": 0.0841,
                "tempo": 120.0
            },
            {
                "pitch": 82,
                "velocity": 64,
                "duration": 0.2227,
                "tempo": 120.0
            },
            {
                "pitch": 75,
                "velocity": 64,
                "duration": 0.0841,
                "tempo": 120.0
            },
            {
                "pitch": 77,
                "velocity": 64,
                "duration": 0.0864,
                "tempo": 120.0
            },
            {
                "pitch": 80,
                "velocity": 64,
                "duration": 0.0977,
                "tempo": 120.0
            },
            {
                "pitch": 82,
                "velocity": 64,
                "duration": 0.0795,
                "tempo": 120.0
            },
            {
                "pitch": 82,
                "velocity": 64,
                "duration": 0.2068,
                "tempo": 120.0
            },
            {
                "pitch": 75,
                "velocity": 64,
                "duration": 0.0864,
                "tempo": 120.0
            },
            {
                "pitch": 77,
                "velocity": 64,
                "duration": 0.1364,
                "tempo": 120.0
            },
            {
                "pitch": 80,
                "velocity": 64,
                "duration": 0.0864,
                "tempo": 120.0
            },
            {
                "pitch": 82,
                "velocity": 64,
                "duration": 0.0841,
                "tempo": 120.0
            },
            {
                "pitch": 80,
                "velocity": 64,
                "duration": 0.1341,
                "tempo": 120.0
            },
            {
                "pitch": 82,
                "velocity": 64,
                "duration": 0.0841,
                "tempo": 120.0
            },
            {
                "pitch": 85,
                "velocity": 64,
                "duration": 0.0818,
                "tempo": 120.0
            },
            {
                "pitch": 87,
                "velocity": 64,
                "duration": 0.0841,
                "tempo": 120.0
            },
            {
                "pitch": 87,
                "velocity": 64,
                "duration": 0.2227,
                "tempo": 120.0
            },
            {
                "pitch": 80,
                "velocity": 64,
                "duration": 0.0864,
                "tempo": 120.0
            },
            {
                "pitch": 82,
                "velocity": 64,
                "duration": 0.0841,
                "tempo": 120.0
            },
            {
                "pitch": 85,
                "velocity": 64,
                "duration": 0.0955,
                "tempo": 120.0
            },
            {
                "pitch": 87,
                "velocity": 64,
                "duration": 0.0795,
                "tempo": 120.0
            },
            {
                "pitch": 87,
                "velocity": 64,
                "duration": 0.2091,
                "tempo": 120.0
            },
            {
                "pitch": 80,
                "velocity": 64,
                "duration": 0.0841,
                "tempo": 120.0
            },
            {
                "pitch": 82,
                "velocity": 64,
                "duration": 0.1364,
                "tempo": 120.0
            },
            {
                "pitch": 85,
                "velocity": 64,
                "duration": 0.0864,
                "tempo": 120.0
            },
            {
                "pitch": 87,
                "velocity": 64,
                "duration": 0.0864,
                "tempo": 120.0
            },
            {
                "pitch": 80,
                "velocity": 64,
                "duration": 0.1341,
                "tempo": 120.0
            },
            {
                "pitch": 82,
                "velocity": 64,
                "duration": 0.0818,
                "tempo": 120.0
            },
            {
                "pitch": 85,
                "velocity": 64,
                "duration": 0.0841,
                "tempo": 120.0
            },
            {
                "pitch": 87,
                "velocity": 64,
                "duration": 0.0841,
                "tempo": 120.0
            },
            {
                "pitch": 87,
                "velocity": 64,
                "duration": 0.2205,
                "tempo": 120.0
            },
            {
                "pitch": 80,
                "velocity": 64,
                "duration": 0.0841,
                "tempo": 120.0
            },
            {
                "pitch": 82,
                "velocity": 64,
                "duration": 0.0864,
                "tempo": 120.0
            },
            {
                "pitch": 85,
                "velocity": 64,
                "duration": 0.0955,
                "tempo": 120.0
            },
            {
                "pitch": 87,
                "velocity": 64,
                "duration": 0.0818,
                "tempo": 120.0
            },
            {
                "pitch": 87,
                "velocity": 64,
                "duration": 0.2068,
                "tempo": 120.0
            },
            {
                "pitch": 80,
                "velocity": 64,
                "duration": 0.0864,
                "tempo": 120.0
            },
            {
                "pitch": 82,
                "velocity": 64,
                "duration": 0.1364,
                "tempo": 120.0
            },
            {
                "pitch": 85,
                "velocity": 64,
                "duration": 0.0841,
                "tempo": 120.0
            },
            {
                "pitch": 87,
                "velocity": 64,
                "duration": 0.0864,
                "tempo": 120.0
            },
            {
                "pitch": 80,
                "velocity": 64,
                "duration": 0.1341,
                "tempo": 120.0
            },
            {
                "pitch": 82,
                "velocity": 64,
                "duration": 0.0841,
                "tempo": 120.0
            },
            {
                "pitch": 85,
                "velocity": 64,
                "duration": 0.0841,
                "tempo": 120.0
            },
            {
                "pitch": 87,
                "velocity": 64,
                "duration": 0.0841,
                "tempo": 120.0
            },
            {
                "pitch": 87,
                "velocity": 64,
                "duration": 0.2227,
                "tempo": 120.0
            },
            {
                "pitch": 80,
                "velocity": 64,
                "duration": 0.0864,
                "tempo": 120.0
            },
            {
                "pitch": 82,
                "velocity": 64,
                "duration": 0.0841,
                "tempo": 120.0
            },
            {
                "pitch": 85,
                "velocity": 64,
                "duration": 0.0977,
                "tempo": 120.0
            },
            {
                "pitch": 87,
                "velocity": 64,
                "duration": 0.0795,
                "tempo": 120.0
            },
            {
                "pitch": 87,
                "velocity": 64,
                "duration": 0.2068,
                "tempo": 120.0
            },
            {
                "pitch": 80,
                "velocity": 64,
                "duration": 0.0864,
                "tempo": 120.0
            },
            {
                "pitch": 82,
                "velocity": 64,
                "duration": 0.1364,
                "tempo": 120.0
            },
            {
                "pitch": 85,
                "velocity": 64,
                "duration": 0.0864,
                "tempo": 120.0
            },
            {
                "pitch": 87,
                "velocity": 64,
                "duration": 0.0841,
                "tempo": 120.0
            },
            {
                "pitch": 80,
                "velocity": 64,
                "duration": 0.1341,
                "tempo": 120.0
            },
            {
                "pitch": 82,
                "velocity": 64,
                "duration": 0.0841,
                "tempo": 120.0
            },
            {
                "pitch": 85,
                "velocity": 64,
                "duration": 0.0841,
                "tempo": 120.0
            },
            {
                "pitch": 87,
                "velocity": 64,
                "duration": 0.0818,
                "tempo": 120.0
            },
            {
                "pitch": 87,
                "velocity": 64,
                "duration": 0.2227,
                "tempo": 120.0
            },
            {
                "pitch": 80,
                "velocity": 64,
                "duration": 0.0864,
                "tempo": 120.0
            },
            {
                "pitch": 82,
                "velocity": 64,
                "duration": 0.0864,
                "tempo": 120.0
            },
            {
                "pitch": 85,
                "velocity": 64,
                "duration": 0.0955,
                "tempo": 120.0
            },
            {
                "pitch": 87,
                "velocity": 64,
                "duration": 0.0795,
                "tempo": 120.0
            },
            {
                "pitch": 87,
                "velocity": 64,
                "duration": 0.2091,
                "tempo": 120.0
            },
            {
                "pitch": 80,
                "velocity": 64,
                "duration": 0.0841,
                "tempo": 120.0
            },
            {
                "pitch": 82,
                "velocity": 64,
                "duration": 0.1386,
                "tempo": 120.0
            },
            {
                "pitch": 85,
                "velocity": 64,
                "duration": 0.0841,
                "tempo": 120.0
            },
            {
                "pitch": 87,
                "velocity": 64,
                "duration": 0.0864,
                "tempo": 120.0
            },
            {
                "pitch": 75,
                "velocity": 64,
                "duration": 0.1318,
                "tempo": 120.0
            },
            {
                "pitch": 77,
                "velocity": 64,
                "duration": 0.0841,
                "tempo": 120.0
            },
            {
                "pitch": 80,
                "velocity": 64,
                "duration": 0.0841,
                "tempo": 120.0
            },
            {
                "pitch": 82,
                "velocity": 64,
                "duration": 0.0841,
                "tempo": 120.0
            },
            {
                "pitch": 82,
                "velocity": 64,
                "duration": 0.2205,
                "tempo": 120.0
            },
            {
                "pitch": 75,
                "velocity": 64,
                "duration": 0.0864,
                "tempo": 120.0
            },
            {
                "pitch": 77,
                "velocity": 64,
                "duration": 0.0864,
                "tempo": 120.0
            },
            {
                "pitch": 80,
                "velocity": 64,
                "duration": 0.0955,
                "tempo": 120.0
            },
            {
                "pitch": 82,
                "velocity": 64,
                "duration": 0.0795,
                "tempo": 120.0
            },
            {
                "pitch": 82,
                "velocity": 64,
                "duration": 0.2091,
                "tempo": 120.0
            },
            {
                "pitch": 75,
                "velocity": 64,
                "duration": 0.0864,
                "tempo": 120.0
            },
            {
                "pitch": 77,
                "velocity": 64,
                "duration": 0.1364,
                "tempo": 120.0
            },
            {
                "pitch": 80,
                "velocity": 64,
                "duration": 0.0841,
                "tempo": 120.0
            },
            {
                "pitch": 82,
                "velocity": 64,
                "duration": 0.0864,
                "tempo": 120.0
            },
            {
                "pitch": 75,
                "velocity": 64,
                "duration": 0.1295,
                "tempo": 120.0
            },
            {
                "pitch": 77,
                "velocity": 64,
                "duration": 0.0818,
                "tempo": 120.0
            },
            {
                "pitch": 80,
                "velocity": 64,
                "duration": 0.0818,
                "tempo": 120.0
            },
            {
                "pitch": 82,
                "velocity": 64,
                "duration": 0.0818,
                "tempo": 120.0
            },
            {
                "pitch": 82,
                "velocity": 64,
                "duration": 0.2273,
                "tempo": 120.0
            },
            {
                "pitch": 75,
                "velocity": 64,
                "duration": 0.0864,
                "tempo": 120.0
            },
            {
                "pitch": 77,
                "velocity": 64,
                "duration": 0.0886,
                "tempo": 120.0
            },
            {
                "pitch": 80,
                "velocity": 64,
                "duration": 0.0977,
                "tempo": 120.0
            },
            {
                "pitch": 82,
                "velocity": 64,
                "duration": 0.0795,
                "tempo": 120.0
            },
            {
                "pitch": 82,
                "velocity": 64,
                "duration": 0.2068,
                "tempo": 120.0
            },
            {
                "pitch": 75,
                "velocity": 64,
                "duration": 0.0864,
                "tempo": 120.0
            },
            {
                "pitch": 77,
                "velocity": 64,
                "duration": 0.1364,
                "tempo": 120.0
            },
            {
                "pitch": 80,
                "velocity": 64,
                "duration": 0.0864,
                "tempo": 120.0
            },
            {
                "pitch": 82,
                "velocity": 64,
                "duration": 0.0841,
                "tempo": 120.0
            },
            {
                "pitch": 75,
                "velocity": 64,
                "duration": 0.1318,
                "tempo": 120.0
            },
            {
                "pitch": 77,
                "velocity": 64,
                "duration": 0.0818,
                "tempo": 120.0
            },
            {
                "pitch": 80,
                "velocity": 64,
                "duration": 0.0818,
                "tempo": 120.0
            },
            {
                "pitch": 82,
                "velocity": 64,
                "duration": 0.0818,
                "tempo": 120.0
            },
            {
                "pitch": 82,
                "velocity": 64,
                "duration": 0.2273,
                "tempo": 120.0
            },
            {
                "pitch": 75,
                "velocity": 64,
                "duration": 0.0886,
                "tempo": 120.0
            },
            {
                "pitch": 77,
                "velocity": 64,
                "duration": 0.0864,
                "tempo": 120.0
            },
            {
                "pitch": 80,
                "velocity": 64,
                "duration": 0.0955,
                "tempo": 120.0
            },
            {
                "pitch": 82,
                "velocity": 64,
                "duration": 0.0795,
                "tempo": 120.0
            },
            {
                "pitch": 82,
                "velocity": 64,
                "duration": 0.2091,
                "tempo": 120.0
            },
            {
                "pitch": 75,
                "velocity": 64,
                "duration": 0.0864,
                "tempo": 120.0
            },
            {
                "pitch": 77,
                "velocity": 64,
                "duration": 0.1364,
                "tempo": 120.0
            },
            {
                "pitch": 80,
                "velocity": 64,
                "duration": 0.0864,
                "tempo": 120.0
            },
            {
                "pitch": 82,
                "velocity": 64,
                "duration": 0.0841,
                "tempo": 120.0
            },
            {
                "pitch": 75,
                "velocity": 64,
                "duration": 0.1318,
                "tempo": 120.0
            },
            {
                "pitch": 77,
                "velocity": 64,
                "duration": 0.0818,
                "tempo": 120.0
            },
            {
                "pitch": 80,
                "velocity": 64,
                "duration": 0.0818,
                "tempo": 120.0
            },
            {
                "pitch": 82,
                "velocity": 64,
                "duration": 0.0818,
                "tempo": 120.0
            },
            {
                "pitch": 82,
                "velocity": 64,
                "duration": 0.2273,
                "tempo": 120.0
            },
            {
                "pitch": 75,
                "velocity": 64,
                "duration": 0.0886,
                "tempo": 120.0
            },
            {
                "pitch": 77,
                "velocity": 64,
                "duration": 0.0864,
                "tempo": 120.0
            },
            {
                "pitch": 80,
                "velocity": 64,
                "duration": 0.0955,
                "tempo": 120.0
            },
            {
                "pitch": 82,
                "velocity": 64,
                "duration": 0.0795,
                "tempo": 120.0
            },
            {
                "pitch": 82,
                "velocity": 64,
                "duration": 0.2091,
                "tempo": 120.0
            },
            {
                "pitch": 75,
                "velocity": 64,
                "duration": 0.0818,
                "tempo": 120.0
            },
            {
                "pitch": 77,
                "velocity": 64,
                "duration": 0.1341,
                "tempo": 120.0
            },
            {
                "pitch": 80,
                "velocity": 64,
                "duration": 0.0841,
                "tempo": 120.0
            },
            {
                "pitch": 82,
                "velocity": 64,
                "duration": 0.0841,
                "tempo": 120.0
            },
            {
                "pitch": 80,
                "velocity": 64,
                "duration": 0.1318,
                "tempo": 120.0
            },
            {
                "pitch": 82,
                "velocity": 64,
                "duration": 0.0841,
                "tempo": 120.0
            },
            {
                "pitch": 85,
                "velocity": 64,
                "duration": 0.0841,
                "tempo": 120.0
            },
            {
                "pitch": 87,
                "velocity": 64,
                "duration": 0.0818,
                "tempo": 120.0
            },
            {
                "pitch": 87,
                "velocity": 64,
                "duration": 0.2295,
                "tempo": 120.0
            },
            {
                "pitch": 80,
                "velocity": 64,
                "duration": 0.0886,
                "tempo": 120.0
            },
            {
                "pitch": 82,
                "velocity": 64,
                "duration": 0.0864,
                "tempo": 120.0
            },
            {
                "pitch": 85,
                "velocity": 64,
                "duration": 0.0977,
                "tempo": 120.0
            },
            {
                "pitch": 87,
                "velocity": 64,
                "duration": 0.0795,
                "tempo": 120.0
            },
            {
                "pitch": 87,
                "velocity": 64,
                "duration": 0.2068,
                "tempo": 120.0
            },
            {
                "pitch": 80,
                "velocity": 64,
                "duration": 0.0864,
                "tempo": 120.0
            },
            {
                "pitch": 82,
                "velocity": 64,
                "duration": 0.1364,
                "tempo": 120.0
            },
            {
                "pitch": 85,
                "velocity": 64,
                "duration": 0.0864,
                "tempo": 120.0
            },
            {
                "pitch": 87,
                "velocity": 64,
                "duration": 0.0841,
                "tempo": 120.0
            },
            {
                "pitch": 80,
                "velocity": 64,
                "duration": 0.1341,
                "tempo": 120.0
            },
            {
                "pitch": 82,
                "velocity": 64,
                "duration": 0.0841,
                "tempo": 120.0
            },
            {
                "pitch": 85,
                "velocity": 64,
                "duration": 0.0841,
                "tempo": 120.0
            },
            {
                "pitch": 87,
                "velocity": 64,
                "duration": 0.0818,
                "tempo": 120.0
            },
            {
                "pitch": 87,
                "velocity": 64,
                "duration": 0.2227,
                "tempo": 120.0
            },
            {
                "pitch": 80,
                "velocity": 64,
                "duration": 0.0864,
                "tempo": 120.0
            },
            {
                "pitch": 82,
                "velocity": 64,
                "duration": 0.0841,
                "tempo": 120.0
            },
            {
                "pitch": 85,
                "velocity": 64,
                "duration": 0.0955,
                "tempo": 120.0
            },
            {
                "pitch": 87,
                "velocity": 64,
                "duration": 0.0795,
                "tempo": 120.0
            },
            {
                "pitch": 87,
                "velocity": 64,
                "duration": 0.2091,
                "tempo": 120.0
            },
            {
                "pitch": 80,
                "velocity": 64,
                "duration": 0.0841,
                "tempo": 120.0
            },
            {
                "pitch": 82,
                "velocity": 64,
                "duration": 0.1386,
                "tempo": 120.0
            },
            {
                "pitch": 85,
                "velocity": 64,
                "duration": 0.0841,
                "tempo": 120.0
            },
            {
                "pitch": 87,
                "velocity": 64,
                "duration": 0.0864,
                "tempo": 120.0
            },
            {
                "pitch": 80,
                "velocity": 64,
                "duration": 0.1341,
                "tempo": 120.0
            },
            {
                "pitch": 82,
                "velocity": 64,
                "duration": 0.0818,
                "tempo": 120.0
            },
            {
                "pitch": 85,
                "velocity": 64,
                "duration": 0.0841,
                "tempo": 120.0
            },
            {
                "pitch": 87,
                "velocity": 64,
                "duration": 0.0841,
                "tempo": 120.0
            },
            {
                "pitch": 87,
                "velocity": 64,
                "duration": 0.2227,
                "tempo": 120.0
            },
            {
                "pitch": 80,
                "velocity": 64,
                "duration": 0.0841,
                "tempo": 120.0
            },
            {
                "pitch": 82,
                "velocity": 64,
                "duration": 0.0864,
                "tempo": 120.0
            },
            {
                "pitch": 85,
                "velocity": 64,
                "duration": 0.0955,
                "tempo": 120.0
            },
            {
                "pitch": 87,
                "velocity": 64,
                "duration": 0.0795,
                "tempo": 120.0
            },
            {
                "pitch": 87,
                "velocity": 64,
                "duration": 0.2068,
                "tempo": 120.0
            },
            {
                "pitch": 80,
                "velocity": 64,
                "duration": 0.0864,
                "tempo": 120.0
            },
            {
                "pitch": 82,
                "velocity": 64,
                "duration": 0.1364,
                "tempo": 120.0
            },
            {
                "pitch": 85,
                "velocity": 64,
                "duration": 0.0864,
                "tempo": 120.0
            },
            {
                "pitch": 87,
                "velocity": 64,
                "duration": 0.0841,
                "tempo": 120.0
            },
            {
                "pitch": 80,
                "velocity": 64,
                "duration": 0.1341,
                "tempo": 120.0
            },
            {
                "pitch": 82,
                "velocity": 64,
                "duration": 0.0841,
                "tempo": 120.0
            },
            {
                "pitch": 85,
                "velocity": 64,
                "duration": 0.0818,
                "tempo": 120.0
            },
            {
                "pitch": 87,
                "velocity": 64,
                "duration": 0.0841,
                "tempo": 120.0
            },
            {
                "pitch": 87,
                "velocity": 64,
                "duration": 0.2227,
                "tempo": 120.0
            },
            {
                "pitch": 80,
                "velocity": 64,
                "duration": 0.0864,
                "tempo": 120.0
            },
            {
                "pitch": 82,
                "velocity": 64,
                "duration": 0.0841,
                "tempo": 120.0
            },
            {
                "pitch": 85,
                "velocity": 64,
                "duration": 0.0955,
                "tempo": 120.0
            },
            {
                "pitch": 87,
                "velocity": 64,
                "duration": 0.0795,
                "tempo": 120.0
            },
            {
                "pitch": 87,
                "velocity": 64,
                "duration": 0.2091,
                "tempo": 120.0
            },
            {
                "pitch": 80,
                "velocity": 64,
                "duration": 0.0841,
                "tempo": 120.0
            },
            {
                "pitch": 82,
                "velocity": 64,
                "duration": 0.1364,
                "tempo": 120.0
            },
            {
                "pitch": 85,
                "velocity": 64,
                "duration": 0.0864,
                "tempo": 120.0
            },
            {
                "pitch": 87,
                "velocity": 64,
                "duration": 0.0864,
                "tempo": 120.0
            }
        ],
        "Oboe": [
            {
                "pitch": 76,
                "velocity": 40,
                "duration": 0.0591,
                "tempo": 120.0
            },
            {
                "pitch": 70,
                "velocity": 40,
                "duration": 0.0591,
                "tempo": 120.0
            },
            {
                "pitch": 73,
                "velocity": 40,
                "duration": 0.0886,
                "tempo": 120.0
            },
            {
                "pitch": 75,
                "velocity": 40,
                "duration": 0.1045,
                "tempo": 120.0
            },
            {
                "pitch": 77,
                "velocity": 40,
                "duration": 0.0682,
                "tempo": 120.0
            },
            {
                "pitch": 77,
                "velocity": 40,
                "duration": 0.2409,
                "tempo": 120.0
            },
            {
                "pitch": 70,
                "velocity": 40,
                "duration": 0.0682,
                "tempo": 120.0
            },
            {
                "pitch": 73,
                "velocity": 40,
                "duration": 0.1182,
                "tempo": 120.0
            },
            {
                "pitch": 75,
                "velocity": 40,
                "duration": 0.1,
                "tempo": 120.0
            },
            {
                "pitch": 77,
                "velocity": 40,
                "duration": 0.0659,
                "tempo": 120.0
            },
            {
                "pitch": 77,
                "velocity": 40,
                "duration": 0.2364,
                "tempo": 120.0
            },
            {
                "pitch": 70,
                "velocity": 40,
                "duration": 0.0682,
                "tempo": 120.0
            },
            {
                "pitch": 73,
                "velocity": 40,
                "duration": 0.0682,
                "tempo": 120.0
            },
            {
                "pitch": 75,
                "velocity": 40,
                "duration": 0.1023,
                "tempo": 120.0
            },
            {
                "pitch": 77,
                "velocity": 40,
                "duration": 0.1136,
                "tempo": 120.0
            },
            {
                "pitch": 70,
                "velocity": 40,
                "duration": 0.0636,
                "tempo": 120.0
            },
            {
                "pitch": 73,
                "velocity": 40,
                "duration": 0.0955,
                "tempo": 120.0
            },
            {
                "pitch": 75,
                "velocity": 40,
                "duration": 0.1114,
                "tempo": 120.0
            },
            {
                "pitch": 77,
                "velocity": 40,
                "duration": 0.0682,
                "tempo": 120.0
            },
            {
                "pitch": 77,
                "velocity": 40,
                "duration": 0.2386,
                "tempo": 120.0
            },
            {
                "pitch": 70,
                "velocity": 40,
                "duration": 0.0682,
                "tempo": 120.0
            },
            {
                "pitch": 73,
                "velocity": 40,
                "duration": 0.1182,
                "tempo": 120.0
            },
            {
                "pitch": 75,
                "velocity": 40,
                "duration": 0.1,
                "tempo": 120.0
            },
            {
                "pitch": 77,
                "velocity": 40,
                "duration": 0.0659,
                "tempo": 120.0
            },
            {
                "pitch": 77,
                "velocity": 40,
                "duration": 0.2341,
                "tempo": 120.0
            },
            {
                "pitch": 70,
                "velocity": 40,
                "duration": 0.0682,
                "tempo": 120.0
            },
            {
                "pitch": 73,
                "velocity": 40,
                "duration": 0.0682,
                "tempo": 120.0
            },
            {
                "pitch": 75,
                "velocity": 40,
                "duration": 0.1023,
                "tempo": 120.0
            },
            {
                "pitch": 77,
                "velocity": 40,
                "duration": 0.1136,
                "tempo": 120.0
            },
            {
                "pitch": 70,
                "velocity": 40,
                "duration": 0.0636,
                "tempo": 120.0
            },
            {
                "pitch": 73,
                "velocity": 40,
                "duration": 0.0955,
                "tempo": 120.0
            },
            {
                "pitch": 75,
                "velocity": 40,
                "duration": 0.1136,
                "tempo": 120.0
            },
            {
                "pitch": 77,
                "velocity": 40,
                "duration": 0.0682,
                "tempo": 120.0
            },
            {
                "pitch": 77,
                "velocity": 40,
                "duration": 0.2432,
                "tempo": 120.0
            },
            {
                "pitch": 70,
                "velocity": 40,
                "duration": 0.0705,
                "tempo": 120.0
            },
            {
                "pitch": 73,
                "velocity": 40,
                "duration": 0.1159,
                "tempo": 120.0
            },
            {
                "pitch": 75,
                "velocity": 40,
                "duration": 0.0977,
                "tempo": 120.0
            },
            {
                "pitch": 77,
                "velocity": 40,
                "duration": 0.0636,
                "tempo": 120.0
            },
            {
                "pitch": 77,
                "velocity": 40,
                "duration": 0.2318,
                "tempo": 120.0
            },
            {
                "pitch": 70,
                "velocity": 40,
                "duration": 0.0682,
                "tempo": 120.0
            },
            {
                "pitch": 73,
                "velocity": 40,
                "duration": 0.0705,
                "tempo": 120.0
            },
            {
                "pitch": 75,
                "velocity": 40,
                "duration": 0.1023,
                "tempo": 120.0
            },
            {
                "pitch": 77,
                "velocity": 40,
                "duration": 0.1114,
                "tempo": 120.0
            },
            {
                "pitch": 70,
                "velocity": 40,
                "duration": 0.0636,
                "tempo": 120.0
            },
            {
                "pitch": 73,
                "velocity": 40,
                "duration": 0.0977,
                "tempo": 120.0
            },
            {
                "pitch": 75,
                "velocity": 40,
                "duration": 0.1114,
                "tempo": 120.0
            },
            {
                "pitch": 77,
                "velocity": 40,
                "duration": 0.0682,
                "tempo": 120.0
            },
            {
                "pitch": 77,
                "velocity": 40,
                "duration": 0.2455,
                "tempo": 120.0
            },
            {
                "pitch": 70,
                "velocity": 40,
                "duration": 0.0705,
                "tempo": 120.0
            },
            {
                "pitch": 73,
                "velocity": 40,
                "duration": 0.1159,
                "tempo": 120.0
            },
            {
                "pitch": 75,
                "velocity": 40,
                "duration": 0.0977,
                "tempo": 120.0
            },
            {
                "pitch": 77,
                "velocity": 40,
                "duration": 0.0659,
                "tempo": 120.0
            },
            {
                "pitch": 77,
                "velocity": 40,
                "duration": 0.2318,
                "tempo": 120.0
            },
            {
                "pitch": 70,
                "velocity": 40,
                "duration": 0.0682,
                "tempo": 120.0
            },
            {
                "pitch": 73,
                "velocity": 40,
                "duration": 0.0682,
                "tempo": 120.0
            },
            {
                "pitch": 75,
                "velocity": 40,
                "duration": 0.1023,
                "tempo": 120.0
            },
            {
                "pitch": 77,
                "velocity": 40,
                "duration": 0.1136,
                "tempo": 120.0
            },
            {
                "pitch": 70,
                "velocity": 40,
                "duration": 0.0636,
                "tempo": 120.0
            },
            {
                "pitch": 73,
                "velocity": 40,
                "duration": 0.0955,
                "tempo": 120.0
            },
            {
                "pitch": 75,
                "velocity": 40,
                "duration": 0.1114,
                "tempo": 120.0
            },
            {
                "pitch": 77,
                "velocity": 40,
                "duration": 0.0705,
                "tempo": 120.0
            },
            {
                "pitch": 77,
                "velocity": 40,
                "duration": 0.2455,
                "tempo": 120.0
            },
            {
                "pitch": 70,
                "velocity": 40,
                "duration": 0.0705,
                "tempo": 120.0
            },
            {
                "pitch": 73,
                "velocity": 40,
                "duration": 0.1182,
                "tempo": 120.0
            },
            {
                "pitch": 75,
                "velocity": 40,
                "duration": 0.0977,
                "tempo": 120.0
            },
            {
                "pitch": 77,
                "velocity": 40,
                "duration": 0.0659,
                "tempo": 120.0
            },
            {
                "pitch": 77,
                "velocity": 40,
                "duration": 0.2318,
                "tempo": 120.0
            },
            {
                "pitch": 70,
                "velocity": 40,
                "duration": 0.0682,
                "tempo": 120.0
            },
            {
                "pitch": 73,
                "velocity": 40,
                "duration": 0.0682,
                "tempo": 120.0
            },
            {
                "pitch": 75,
                "velocity": 40,
                "duration": 0.1023,
                "tempo": 120.0
            },
            {
                "pitch": 77,
                "velocity": 40,
                "duration": 0.1136,
                "tempo": 120.0
            },
            {
                "pitch": 70,
                "velocity": 40,
                "duration": 0.0636,
                "tempo": 120.0
            },
            {
                "pitch": 73,
                "velocity": 40,
                "duration": 0.0955,
                "tempo": 120.0
            },
            {
                "pitch": 75,
                "velocity": 40,
                "duration": 0.1136,
                "tempo": 120.0
            },
            {
                "pitch": 77,
                "velocity": 40,
                "duration": 0.0682,
                "tempo": 120.0
            },
            {
                "pitch": 77,
                "velocity": 40,
                "duration": 0.2432,
                "tempo": 120.0
            },
            {
                "pitch": 70,
                "velocity": 40,
                "duration": 0.0705,
                "tempo": 120.0
            },
            {
                "pitch": 73,
                "velocity": 40,
                "duration": 0.1159,
                "tempo": 120.0
            },
            {
                "pitch": 75,
                "velocity": 40,
                "duration": 0.0977,
                "tempo": 120.0
            },
            {
                "pitch": 77,
                "velocity": 40,
                "duration": 0.0636,
                "tempo": 120.0
            },
            {
                "pitch": 77,
                "velocity": 40,
                "duration": 0.2318,
                "tempo": 120.0
            },
            {
                "pitch": 70,
                "velocity": 40,
                "duration": 0.0682,
                "tempo": 120.0
            },
            {
                "pitch": 73,
                "velocity": 40,
                "duration": 0.0682,
                "tempo": 120.0
            },
            {
                "pitch": 75,
                "velocity": 40,
                "duration": 0.1023,
                "tempo": 120.0
            },
            {
                "pitch": 77,
                "velocity": 40,
                "duration": 0.1114,
                "tempo": 120.0
            },
            {
                "pitch": 70,
                "velocity": 40,
                "duration": 0.0636,
                "tempo": 120.0
            },
            {
                "pitch": 73,
                "velocity": 40,
                "duration": 0.0977,
                "tempo": 120.0
            },
            {
                "pitch": 75,
                "velocity": 40,
                "duration": 0.1114,
                "tempo": 120.0
            },
            {
                "pitch": 77,
                "velocity": 40,
                "duration": 0.0682,
                "tempo": 120.0
            },
            {
                "pitch": 77,
                "velocity": 40,
                "duration": 0.2409,
                "tempo": 120.0
            },
            {
                "pitch": 70,
                "velocity": 40,
                "duration": 0.0682,
                "tempo": 120.0
            },
            {
                "pitch": 73,
                "velocity": 40,
                "duration": 0.1182,
                "tempo": 120.0
            },
            {
                "pitch": 75,
                "velocity": 40,
                "duration": 0.1,
                "tempo": 120.0
            },
            {
                "pitch": 77,
                "velocity": 40,
                "duration": 0.0659,
                "tempo": 120.0
            },
            {
                "pitch": 77,
                "velocity": 40,
                "duration": 0.2364,
                "tempo": 120.0
            },
            {
                "pitch": 70,
                "velocity": 40,
                "duration": 0.0682,
                "tempo": 120.0
            },
            {
                "pitch": 73,
                "velocity": 40,
                "duration": 0.0682,
                "tempo": 120.0
            },
            {
                "pitch": 75,
                "velocity": 40,
                "duration": 0.1023,
                "tempo": 120.0
            },
            {
                "pitch": 77,
                "velocity": 40,
                "duration": 0.1136,
                "tempo": 120.0
            },
            {
                "pitch": 70,
                "velocity": 40,
                "duration": 0.0636,
                "tempo": 120.0
            },
            {
                "pitch": 73,
                "velocity": 40,
                "duration": 0.0955,
                "tempo": 120.0
            },
            {
                "pitch": 75,
                "velocity": 40,
                "duration": 0.1114,
                "tempo": 120.0
            },
            {
                "pitch": 77,
                "velocity": 40,
                "duration": 0.0682,
                "tempo": 120.0
            },
            {
                "pitch": 77,
                "velocity": 40,
                "duration": 0.2386,
                "tempo": 120.0
            },
            {
                "pitch": 70,
                "velocity": 40,
                "duration": 0.0682,
                "tempo": 120.0
            },
            {
                "pitch": 73,
                "velocity": 40,
                "duration": 0.1182,
                "tempo": 120.0
            },
            {
                "pitch": 75,
                "velocity": 40,
                "duration": 0.1023,
                "tempo": 120.0
            },
            {
                "pitch": 77,
                "velocity": 40,
                "duration": 0.0659,
                "tempo": 120.0
            },
            {
                "pitch": 77,
                "velocity": 40,
                "duration": 0.2341,
                "tempo": 120.0
            },
            {
                "pitch": 70,
                "velocity": 40,
                "duration": 0.0682,
                "tempo": 120.0
            },
            {
                "pitch": 73,
                "velocity": 40,
                "duration": 0.0682,
                "tempo": 120.0
            },
            {
                "pitch": 75,
                "velocity": 40,
                "duration": 0.1023,
                "tempo": 120.0
            },
            {
                "pitch": 77,
                "velocity": 40,
                "duration": 0.1136,
                "tempo": 120.0
            },
            {
                "pitch": 75,
                "velocity": 40,
                "duration": 0.0636,
                "tempo": 120.0
            },
            {
                "pitch": 77,
                "velocity": 40,
                "duration": 0.0955,
                "tempo": 120.0
            },
            {
                "pitch": 80,
                "velocity": 40,
                "duration": 0.1136,
                "tempo": 120.0
            },
            {
                "pitch": 82,
                "velocity": 40,
                "duration": 0.0682,
                "tempo": 120.0
            },
            {
                "pitch": 82,
                "velocity": 40,
                "duration": 0.2432,
                "tempo": 120.0
            },
            {
                "pitch": 75,
                "velocity": 40,
                "duration": 0.0705,
                "tempo": 120.0
            },
            {
                "pitch": 77,
                "velocity": 40,
                "duration": 0.1159,
                "tempo": 120.0
            },
            {
                "pitch": 80,
                "velocity": 40,
                "duration": 0.0977,
                "tempo": 120.0
            },
            {
                "pitch": 82,
                "velocity": 40,
                "duration": 0.0636,
                "tempo": 120.0
            },
            {
                "pitch": 82,
                "velocity": 40,
                "duration": 0.2318,
                "tempo": 120.0
            },
            {
                "pitch": 75,
                "velocity": 40,
                "duration": 0.0682,
                "tempo": 120.0
            },
            {
                "pitch": 77,
                "velocity": 40,
                "duration": 0.0705,
                "tempo": 120.0
            },
            {
                "pitch": 80,
                "velocity": 40,
                "duration": 0.1023,
                "tempo": 120.0
            },
            {
                "pitch": 82,
                "velocity": 40,
                "duration": 0.1114,
                "tempo": 120.0
            },
            {
                "pitch": 75,
                "velocity": 40,
                "duration": 0.0636,
                "tempo": 120.0
            },
            {
                "pitch": 77,
                "velocity": 40,
                "duration": 0.0977,
                "tempo": 120.0
            },
            {
                "pitch": 80,
                "velocity": 40,
                "duration": 0.1114,
                "tempo": 120.0
            },
            {
                "pitch": 82,
                "velocity": 40,
                "duration": 0.0682,
                "tempo": 120.0
            },
            {
                "pitch": 82,
                "velocity": 40,
                "duration": 0.2386,
                "tempo": 120.0
            },
            {
                "pitch": 75,
                "velocity": 40,
                "duration": 0.0682,
                "tempo": 120.0
            },
            {
                "pitch": 77,
                "velocity": 40,
                "duration": 0.1182,
                "tempo": 120.0
            },
            {
                "pitch": 80,
                "velocity": 40,
                "duration": 0.1,
                "tempo": 120.0
            },
            {
                "pitch": 82,
                "velocity": 40,
                "duration": 0.0659,
                "tempo": 120.0
            },
            {
                "pitch": 82,
                "velocity": 40,
                "duration": 0.2364,
                "tempo": 120.0
            },
            {
                "pitch": 75,
                "velocity": 40,
                "duration": 0.0682,
                "tempo": 120.0
            },
            {
                "pitch": 77,
                "velocity": 40,
                "duration": 0.0682,
                "tempo": 120.0
            },
            {
                "pitch": 80,
                "velocity": 40,
                "duration": 0.1045,
                "tempo": 120.0
            },
            {
                "pitch": 82,
                "velocity": 40,
                "duration": 0.0977,
                "tempo": 120.0
            },
            {
                "pitch": 75,
                "velocity": 40,
                "duration": 0.0795,
                "tempo": 120.0
            },
            {
                "pitch": 77,
                "velocity": 40,
                "duration": 0.0795,
                "tempo": 120.0
            },
            {
                "pitch": 80,
                "velocity": 40,
                "duration": 0.0955,
                "tempo": 120.0
            },
            {
                "pitch": 82,
                "velocity": 40,
                "duration": 0.0864,
                "tempo": 120.0
            },
            {
                "pitch": 82,
                "velocity": 40,
                "duration": 0.2273,
                "tempo": 120.0
            },
            {
                "pitch": 75,
                "velocity": 40,
                "duration": 0.0864,
                "tempo": 120.0
            },
            {
                "pitch": 77,
                "velocity": 40,
                "duration": 0.1318,
                "tempo": 120.0
            },
            {
                "pitch": 80,
                "velocity": 40,
                "duration": 0.0795,
                "tempo": 120.0
            },
            {
                "pitch": 82,
                "velocity": 40,
                "duration": 0.0795,
                "tempo": 120.0
            },
            {
                "pitch": 82,
                "velocity": 40,
                "duration": 0.2114,
                "tempo": 120.0
            },
            {
                "pitch": 75,
                "velocity": 40,
                "duration": 0.0841,
                "tempo": 120.0
            },
            {
                "pitch": 77,
                "velocity": 40,
                "duration": 0.0841,
                "tempo": 120.0
            },
            {
                "pitch": 80,
                "velocity": 40,
                "duration": 0.0864,
                "tempo": 120.0
            },
            {
                "pitch": 82,
                "velocity": 40,
                "duration": 0.0977,
                "tempo": 120.0
            },
            {
                "pitch": 75,
                "velocity": 40,
                "duration": 0.0818,
                "tempo": 120.0
            },
            {
                "pitch": 77,
                "velocity": 40,
                "duration": 0.0818,
                "tempo": 120.0
            },
            {
                "pitch": 80,
                "velocity": 40,
                "duration": 0.0977,
                "tempo": 120.0
            },
            {
                "pitch": 82,
                "velocity": 40,
                "duration": 0.0864,
                "tempo": 120.0
            },
            {
                "pitch": 82,
                "velocity": 40,
                "duration": 0.2273,
                "tempo": 120.0
            },
            {
                "pitch": 75,
                "velocity": 40,
                "duration": 0.0886,
                "tempo": 120.0
            },
            {
                "pitch": 77,
                "velocity": 40,
                "duration": 0.1295,
                "tempo": 120.0
            },
            {
                "pitch": 80,
                "velocity": 40,
                "duration": 0.0795,
                "tempo": 120.0
            },
            {
                "pitch": 82,
                "velocity": 40,
                "duration": 0.0795,
                "tempo": 120.0
            },
            {
                "pitch": 82,
                "velocity": 40,
                "duration": 0.2114,
                "tempo": 120.0
            },
            {
                "pitch": 75,
                "velocity": 40,
                "duration": 0.0841,
                "tempo": 120.0
            },
            {
                "pitch": 77,
                "velocity": 40,
                "duration": 0.0841,
                "tempo": 120.0
            },
            {
                "pitch": 80,
                "velocity": 40,
                "duration": 0.0818,
                "tempo": 120.0
            },
            {
                "pitch": 82,
                "velocity": 40,
                "duration": 0.1,
                "tempo": 120.0
            },
            {
                "pitch": 70,
                "velocity": 40,
                "duration": 0.0841,
                "tempo": 120.0
            },
            {
                "pitch": 73,
                "velocity": 40,
                "duration": 0.0818,
                "tempo": 120.0
            },
            {
                "pitch": 75,
                "velocity": 40,
                "duration": 0.1,
                "tempo": 120.0
            },
            {
                "pitch": 77,
                "velocity": 40,
                "duration": 0.0864,
                "tempo": 120.0
            },
            {
                "pitch": 77,
                "velocity": 40,
                "duration": 0.2273,
                "tempo": 120.0
            },
            {
                "pitch": 70,
                "velocity": 40,
                "duration": 0.0864,
                "tempo": 120.0
            },
            {
                "pitch": 73,
                "velocity": 40,
                "duration": 0.1318,
                "tempo": 120.0
            },
            {
                "pitch": 75,
                "velocity": 40,
                "duration": 0.0795,
                "tempo": 120.0
            },
            {
                "pitch": 77,
                "velocity": 40,
                "duration": 0.0795,
                "tempo": 120.0
            },
            {
                "pitch": 77,
                "velocity": 40,
                "duration": 0.2114,
                "tempo": 120.0
            },
            {
                "pitch": 70,
                "velocity": 40,
                "duration": 0.0864,
                "tempo": 120.0
            },
            {
                "pitch": 73,
                "velocity": 40,
                "duration": 0.0841,
                "tempo": 120.0
            },
            {
                "pitch": 75,
                "velocity": 40,
                "duration": 0.0864,
                "tempo": 120.0
            },
            {
                "pitch": 77,
                "velocity": 40,
                "duration": 0.1,
                "tempo": 120.0
            },
            {
                "pitch": 70,
                "velocity": 40,
                "duration": 0.0841,
                "tempo": 120.0
            },
            {
                "pitch": 73,
                "velocity": 40,
                "duration": 0.0818,
                "tempo": 120.0
            },
            {
                "pitch": 75,
                "velocity": 40,
                "duration": 0.1,
                "tempo": 120.0
            },
            {
                "pitch": 77,
                "velocity": 40,
                "duration": 0.0841,
                "tempo": 120.0
            },
            {
                "pitch": 77,
                "velocity": 40,
                "duration": 0.2227,
                "tempo": 120.0
            },
            {
                "pitch": 70,
                "velocity": 40,
                "duration": 0.0864,
                "tempo": 120.0
            },
            {
                "pitch": 73,
                "velocity": 40,
                "duration": 0.1295,
                "tempo": 120.0
            },
            {
                "pitch": 75,
                "velocity": 40,
                "duration": 0.0795,
                "tempo": 120.0
            },
            {
                "pitch": 77,
                "velocity": 40,
                "duration": 0.0795,
                "tempo": 120.0
            },
            {
                "pitch": 77,
                "velocity": 40,
                "duration": 0.2136,
                "tempo": 120.0
            },
            {
                "pitch": 70,
                "velocity": 40,
                "duration": 0.0841,
                "tempo": 120.0
            },
            {
                "pitch": 73,
                "velocity": 40,
                "duration": 0.0864,
                "tempo": 120.0
            },
            {
                "pitch": 75,
                "velocity": 40,
                "duration": 0.0841,
                "tempo": 120.0
            },
            {
                "pitch": 77,
                "velocity": 40,
                "duration": 0.1023,
                "tempo": 120.0
            },
            {
                "pitch": 70,
                "velocity": 40,
                "duration": 0.0841,
                "tempo": 120.0
            },
            {
                "pitch": 73,
                "velocity": 40,
                "duration": 0.0841,
                "tempo": 120.0
            },
            {
                "pitch": 75,
                "velocity": 40,
                "duration": 0.1,
                "tempo": 120.0
            },
            {
                "pitch": 77,
                "velocity": 40,
                "duration": 0.0864,
                "tempo": 120.0
            },
            {
                "pitch": 77,
                "velocity": 40,
                "duration": 0.2227,
                "tempo": 120.0
            },
            {
                "pitch": 70,
                "velocity": 40,
                "duration": 0.0841,
                "tempo": 120.0
            },
            {
                "pitch": 73,
                "velocity": 40,
                "duration": 0.1295,
                "tempo": 120.0
            },
            {
                "pitch": 75,
                "velocity": 40,
                "duration": 0.0818,
                "tempo": 120.0
            },
            {
                "pitch": 77,
                "velocity": 40,
                "duration": 0.0795,
                "tempo": 120.0
            },
            {
                "pitch": 77,
                "velocity": 40,
                "duration": 0.2114,
                "tempo": 120.0
            },
            {
                "pitch": 70,
                "velocity": 40,
                "duration": 0.0864,
                "tempo": 120.0
            },
            {
                "pitch": 73,
                "velocity": 40,
                "duration": 0.0864,
                "tempo": 120.0
            },
            {
                "pitch": 75,
                "velocity": 40,
                "duration": 0.0864,
                "tempo": 120.0
            },
            {
                "pitch": 77,
                "velocity": 40,
                "duration": 0.1,
                "tempo": 120.0
            },
            {
                "pitch": 70,
                "velocity": 40,
                "duration": 0.0818,
                "tempo": 120.0
            },
            {
                "pitch": 73,
                "velocity": 40,
                "duration": 0.0841,
                "tempo": 120.0
            },
            {
                "pitch": 75,
                "velocity": 40,
                "duration": 0.1,
                "tempo": 120.0
            },
            {
                "pitch": 77,
                "velocity": 40,
                "duration": 0.0841,
                "tempo": 120.0
            },
            {
                "pitch": 77,
                "velocity": 40,
                "duration": 0.2227,
                "tempo": 120.0
            },
            {
                "pitch": 70,
                "velocity": 40,
                "duration": 0.0864,
                "tempo": 120.0
            },
            {
                "pitch": 73,
                "velocity": 40,
                "duration": 0.1295,
                "tempo": 120.0
            },
            {
                "pitch": 75,
                "velocity": 40,
                "duration": 0.0795,
                "tempo": 120.0
            },
            {
                "pitch": 77,
                "velocity": 40,
                "duration": 0.0795,
                "tempo": 120.0
            },
            {
                "pitch": 77,
                "velocity": 40,
                "duration": 0.2136,
                "tempo": 120.0
            },
            {
                "pitch": 70,
                "velocity": 40,
                "duration": 0.0841,
                "tempo": 120.0
            },
            {
                "pitch": 73,
                "velocity": 40,
                "duration": 0.0841,
                "tempo": 120.0
            },
            {
                "pitch": 75,
                "velocity": 40,
                "duration": 0.0864,
                "tempo": 120.0
            },
            {
                "pitch": 77,
                "velocity": 40,
                "duration": 0.1,
                "tempo": 120.0
            },
            {
                "pitch": 70,
                "velocity": 40,
                "duration": 0.0841,
                "tempo": 120.0
            },
            {
                "pitch": 73,
                "velocity": 40,
                "duration": 0.0841,
                "tempo": 120.0
            },
            {
                "pitch": 75,
                "velocity": 40,
                "duration": 0.1,
                "tempo": 120.0
            },
            {
                "pitch": 77,
                "velocity": 40,
                "duration": 0.0864,
                "tempo": 120.0
            },
            {
                "pitch": 77,
                "velocity": 40,
                "duration": 0.2205,
                "tempo": 120.0
            },
            {
                "pitch": 70,
                "velocity": 40,
                "duration": 0.0864,
                "tempo": 120.0
            },
            {
                "pitch": 73,
                "velocity": 40,
                "duration": 0.1295,
                "tempo": 120.0
            },
            {
                "pitch": 75,
                "velocity": 40,
                "duration": 0.0795,
                "tempo": 120.0
            },
            {
                "pitch": 77,
                "velocity": 40,
                "duration": 0.0818,
                "tempo": 120.0
            },
            {
                "pitch": 77,
                "velocity": 40,
                "duration": 0.2114,
                "tempo": 120.0
            },
            {
                "pitch": 70,
                "velocity": 40,
                "duration": 0.0864,
                "tempo": 120.0
            },
            {
                "pitch": 73,
                "velocity": 40,
                "duration": 0.0864,
                "tempo": 120.0
            },
            {
                "pitch": 75,
                "velocity": 40,
                "duration": 0.0841,
                "tempo": 120.0
            },
            {
                "pitch": 77,
                "velocity": 40,
                "duration": 0.1023,
                "tempo": 120.0
            },
            {
                "pitch": 70,
                "velocity": 40,
                "duration": 0.0841,
                "tempo": 120.0
            },
            {
                "pitch": 73,
                "velocity": 40,
                "duration": 0.0841,
                "tempo": 120.0
            },
            {
                "pitch": 75,
                "velocity": 40,
                "duration": 0.1,
                "tempo": 120.0
            },
            {
                "pitch": 77,
                "velocity": 40,
                "duration": 0.0841,
                "tempo": 120.0
            },
            {
                "pitch": 77,
                "velocity": 40,
                "duration": 0.2227,
                "tempo": 120.0
            },
            {
                "pitch": 70,
                "velocity": 40,
                "duration": 0.0841,
                "tempo": 120.0
            },
            {
                "pitch": 73,
                "velocity": 40,
                "duration": 0.1318,
                "tempo": 120.0
            },
            {
                "pitch": 75,
                "velocity": 40,
                "duration": 0.0795,
                "tempo": 120.0
            },
            {
                "pitch": 77,
                "velocity": 40,
                "duration": 0.0795,
                "tempo": 120.0
            },
            {
                "pitch": 77,
                "velocity": 40,
                "duration": 0.2114,
                "tempo": 120.0
            },
            {
                "pitch": 70,
                "velocity": 40,
                "duration": 0.0864,
                "tempo": 120.0
            },
            {
                "pitch": 73,
                "velocity": 40,
                "duration": 0.0841,
                "tempo": 120.0
            },
            {
                "pitch": 75,
                "velocity": 40,
                "duration": 0.0864,
                "tempo": 120.0
            },
            {
                "pitch": 77,
                "velocity": 40,
                "duration": 0.1,
                "tempo": 120.0
            },
            {
                "pitch": 70,
                "velocity": 40,
                "duration": 0.0841,
                "tempo": 120.0
            },
            {
                "pitch": 73,
                "velocity": 40,
                "duration": 0.0818,
                "tempo": 120.0
            },
            {
                "pitch": 75,
                "velocity": 40,
                "duration": 0.1,
                "tempo": 120.0
            },
            {
                "pitch": 77,
                "velocity": 40,
                "duration": 0.0841,
                "tempo": 120.0
            },
            {
                "pitch": 77,
                "velocity": 40,
                "duration": 0.2227,
                "tempo": 120.0
            },
            {
                "pitch": 70,
                "velocity": 40,
                "duration": 0.0864,
                "tempo": 120.0
            },
            {
                "pitch": 73,
                "velocity": 40,
                "duration": 0.1295,
                "tempo": 120.0
            },
            {
                "pitch": 75,
                "velocity": 40,
                "duration": 0.0795,
                "tempo": 120.0
            },
            {
                "pitch": 77,
                "velocity": 40,
                "duration": 0.0795,
                "tempo": 120.0
            },
            {
                "pitch": 77,
                "velocity": 40,
                "duration": 0.2136,
                "tempo": 120.0
            },
            {
                "pitch": 70,
                "velocity": 40,
                "duration": 0.0841,
                "tempo": 120.0
            },
            {
                "pitch": 73,
                "velocity": 40,
                "duration": 0.0864,
                "tempo": 120.0
            },
            {
                "pitch": 75,
                "velocity": 40,
                "duration": 0.0841,
                "tempo": 120.0
            },
            {
                "pitch": 77,
                "velocity": 40,
                "duration": 0.1,
                "tempo": 120.0
            },
            {
                "pitch": 70,
                "velocity": 40,
                "duration": 0.0841,
                "tempo": 120.0
            },
            {
                "pitch": 73,
                "velocity": 40,
                "duration": 0.0841,
                "tempo": 120.0
            },
            {
                "pitch": 75,
                "velocity": 40,
                "duration": 0.1023,
                "tempo": 120.0
            },
            {
                "pitch": 77,
                "velocity": 40,
                "duration": 0.0864,
                "tempo": 120.0
            },
            {
                "pitch": 77,
                "velocity": 40,
                "duration": 0.2227,
                "tempo": 120.0
            },
            {
                "pitch": 70,
                "velocity": 40,
                "duration": 0.0841,
                "tempo": 120.0
            },
            {
                "pitch": 73,
                "velocity": 40,
                "duration": 0.1295,
                "tempo": 120.0
            },
            {
                "pitch": 75,
                "velocity": 40,
                "duration": 0.0795,
                "tempo": 120.0
            },
            {
                "pitch": 77,
                "velocity": 40,
                "duration": 0.0795,
                "tempo": 120.0
            },
            {
                "pitch": 77,
                "velocity": 40,
                "duration": 0.2114,
                "tempo": 120.0
            },
            {
                "pitch": 70,
                "velocity": 40,
                "duration": 0.0864,
                "tempo": 120.0
            },
            {
                "pitch": 73,
                "velocity": 40,
                "duration": 0.0864,
                "tempo": 120.0
            },
            {
                "pitch": 75,
                "velocity": 40,
                "duration": 0.0864,
                "tempo": 120.0
            },
            {
                "pitch": 77,
                "velocity": 40,
                "duration": 0.1,
                "tempo": 120.0
            },
            {
                "pitch": 75,
                "velocity": 40,
                "duration": 0.0818,
                "tempo": 120.0
            },
            {
                "pitch": 77,
                "velocity": 40,
                "duration": 0.0841,
                "tempo": 120.0
            },
            {
                "pitch": 80,
                "velocity": 40,
                "duration": 0.1,
                "tempo": 120.0
            },
            {
                "pitch": 82,
                "velocity": 40,
                "duration": 0.0841,
                "tempo": 120.0
            },
            {
                "pitch": 82,
                "velocity": 40,
                "duration": 0.2227,
                "tempo": 120.0
            },
            {
                "pitch": 75,
                "velocity": 40,
                "duration": 0.0864,
                "tempo": 120.0
            },
            {
                "pitch": 77,
                "velocity": 40,
                "duration": 0.1295,
                "tempo": 120.0
            },
            {
                "pitch": 80,
                "velocity": 40,
                "duration": 0.0795,
                "tempo": 120.0
            },
            {
                "pitch": 82,
                "velocity": 40,
                "duration": 0.0795,
                "tempo": 120.0
            },
            {
                "pitch": 82,
                "velocity": 40,
                "duration": 0.2114,
                "tempo": 120.0
            },
            {
                "pitch": 75,
                "velocity": 40,
                "duration": 0.0864,
                "tempo": 120.0
            },
            {
                "pitch": 77,
                "velocity": 40,
                "duration": 0.0841,
                "tempo": 120.0
            },
            {
                "pitch": 80,
                "velocity": 40,
                "duration": 0.0864,
                "tempo": 120.0
            },
            {
                "pitch": 82,
                "velocity": 40,
                "duration": 0.0977,
                "tempo": 120.0
            },
            {
                "pitch": 75,
                "velocity": 40,
                "duration": 0.0818,
                "tempo": 120.0
            },
            {
                "pitch": 77,
                "velocity": 40,
                "duration": 0.0818,
                "tempo": 120.0
            },
            {
                "pitch": 80,
                "velocity": 40,
                "duration": 0.0977,
                "tempo": 120.0
            },
            {
                "pitch": 82,
                "velocity": 40,
                "duration": 0.0886,
                "tempo": 120.0
            },
            {
                "pitch": 82,
                "velocity": 40,
                "duration": 0.2273,
                "tempo": 120.0
            },
            {
                "pitch": 75,
                "velocity": 40,
                "duration": 0.0886,
                "tempo": 120.0
            },
            {
                "pitch": 77,
                "velocity": 40,
                "duration": 0.1295,
                "tempo": 120.0
            },
            {
                "pitch": 80,
                "velocity": 40,
                "duration": 0.0795,
                "tempo": 120.0
            },
            {
                "pitch": 82,
                "velocity": 40,
                "duration": 0.0795,
                "tempo": 120.0
            },
            {
                "pitch": 82,
                "velocity": 40,
                "duration": 0.2114,
                "tempo": 120.0
            },
            {
                "pitch": 75,
                "velocity": 40,
                "duration": 0.0841,
                "tempo": 120.0
            },
            {
                "pitch": 77,
                "velocity": 40,
                "duration": 0.0841,
                "tempo": 120.0
            },
            {
                "pitch": 80,
                "velocity": 40,
                "duration": 0.0818,
                "tempo": 120.0
            },
            {
                "pitch": 82,
                "velocity": 40,
                "duration": 0.1,
                "tempo": 120.0
            },
            {
                "pitch": 75,
                "velocity": 40,
                "duration": 0.0841,
                "tempo": 120.0
            },
            {
                "pitch": 77,
                "velocity": 40,
                "duration": 0.0818,
                "tempo": 120.0
            },
            {
                "pitch": 80,
                "velocity": 40,
                "duration": 0.1,
                "tempo": 120.0
            },
            {
                "pitch": 82,
                "velocity": 40,
                "duration": 0.0864,
                "tempo": 120.0
            },
            {
                "pitch": 82,
                "velocity": 40,
                "duration": 0.2273,
                "tempo": 120.0
            },
            {
                "pitch": 75,
                "velocity": 40,
                "duration": 0.0864,
                "tempo": 120.0
            },
            {
                "pitch": 77,
                "velocity": 40,
                "duration": 0.1318,
                "tempo": 120.0
            },
            {
                "pitch": 80,
                "velocity": 40,
                "duration": 0.0795,
                "tempo": 120.0
            },
            {
                "pitch": 82,
                "velocity": 40,
                "duration": 0.0795,
                "tempo": 120.0
            },
            {
                "pitch": 82,
                "velocity": 40,
                "duration": 0.2114,
                "tempo": 120.0
            },
            {
                "pitch": 75,
                "velocity": 40,
                "duration": 0.0864,
                "tempo": 120.0
            },
            {
                "pitch": 77,
                "velocity": 40,
                "duration": 0.0841,
                "tempo": 120.0
            },
            {
                "pitch": 80,
                "velocity": 40,
                "duration": 0.0864,
                "tempo": 120.0
            },
            {
                "pitch": 82,
                "velocity": 40,
                "duration": 0.0977,
                "tempo": 120.0
            },
            {
                "pitch": 75,
                "velocity": 40,
                "duration": 0.0795,
                "tempo": 120.0
            },
            {
                "pitch": 77,
                "velocity": 40,
                "duration": 0.0818,
                "tempo": 120.0
            },
            {
                "pitch": 80,
                "velocity": 40,
                "duration": 0.0977,
                "tempo": 120.0
            },
            {
                "pitch": 82,
                "velocity": 40,
                "duration": 0.0864,
                "tempo": 120.0
            },
            {
                "pitch": 82,
                "velocity": 40,
                "duration": 0.2295,
                "tempo": 120.0
            },
            {
                "pitch": 75,
                "velocity": 40,
                "duration": 0.0864,
                "tempo": 120.0
            },
            {
                "pitch": 77,
                "velocity": 40,
                "duration": 0.1318,
                "tempo": 120.0
            },
            {
                "pitch": 80,
                "velocity": 40,
                "duration": 0.0795,
                "tempo": 120.0
            },
            {
                "pitch": 82,
                "velocity": 40,
                "duration": 0.0795,
                "tempo": 120.0
            },
            {
                "pitch": 82,
                "velocity": 40,
                "duration": 0.2136,
                "tempo": 120.0
            },
            {
                "pitch": 75,
                "velocity": 40,
                "duration": 0.0841,
                "tempo": 120.0
            },
            {
                "pitch": 77,
                "velocity": 40,
                "duration": 0.0841,
                "tempo": 120.0
            },
            {
                "pitch": 80,
                "velocity": 40,
                "duration": 0.0864,
                "tempo": 120.0
            },
            {
                "pitch": 82,
                "velocity": 40,
                "duration": 0.0977,
                "tempo": 120.0
            },
            {
                "pitch": 70,
                "velocity": 40,
                "duration": 0.0818,
                "tempo": 120.0
            },
            {
                "pitch": 73,
                "velocity": 40,
                "duration": 0.0818,
                "tempo": 120.0
            },
            {
                "pitch": 75,
                "velocity": 40,
                "duration": 0.0977,
                "tempo": 120.0
            },
            {
                "pitch": 77,
                "velocity": 40,
                "duration": 0.0864,
                "tempo": 120.0
            },
            {
                "pitch": 77,
                "velocity": 40,
                "duration": 0.2273,
                "tempo": 120.0
            },
            {
                "pitch": 70,
                "velocity": 40,
                "duration": 0.0886,
                "tempo": 120.0
            },
            {
                "pitch": 73,
                "velocity": 40,
                "duration": 0.1295,
                "tempo": 120.0
            },
            {
                "pitch": 75,
                "velocity": 40,
                "duration": 0.0795,
                "tempo": 120.0
            },
            {
                "pitch": 77,
                "velocity": 40,
                "duration": 0.0818,
                "tempo": 120.0
            },
            {
                "pitch": 77,
                "velocity": 40,
                "duration": 0.2114,
                "tempo": 120.0
            },
            {
                "pitch": 70,
                "velocity": 40,
                "duration": 0.0864,
                "tempo": 120.0
            },
            {
                "pitch": 73,
                "velocity": 40,
                "duration": 0.0864,
                "tempo": 120.0
            },
            {
                "pitch": 75,
                "velocity": 40,
                "duration": 0.0841,
                "tempo": 120.0
            },
            {
                "pitch": 77,
                "velocity": 40,
                "duration": 0.1023,
                "tempo": 120.0
            },
            {
                "pitch": 70,
                "velocity": 40,
                "duration": 0.0841,
                "tempo": 120.0
            },
            {
                "pitch": 73,
                "velocity": 40,
                "duration": 0.0841,
                "tempo": 120.0
            },
            {
                "pitch": 75,
                "velocity": 40,
                "duration": 0.1,
                "tempo": 120.0
            },
            {
                "pitch": 77,
                "velocity": 40,
                "duration": 0.0864,
                "tempo": 120.0
            },
            {
                "pitch": 77,
                "velocity": 40,
                "duration": 0.2227,
                "tempo": 120.0
            },
            {
                "pitch": 70,
                "velocity": 40,
                "duration": 0.0841,
                "tempo": 120.0
            },
            {
                "pitch": 73,
                "velocity": 40,
                "duration": 0.1318,
                "tempo": 120.0
            },
            {
                "pitch": 75,
                "velocity": 40,
                "duration": 0.0795,
                "tempo": 120.0
            },
            {
                "pitch": 77,
                "velocity": 40,
                "duration": 0.0795,
                "tempo": 120.0
            },
            {
                "pitch": 77,
                "velocity": 40,
                "duration": 0.2114,
                "tempo": 120.0
            },
            {
                "pitch": 70,
                "velocity": 40,
                "duration": 0.0864,
                "tempo": 120.0
            },
            {
                "pitch": 73,
                "velocity": 40,
                "duration": 0.0841,
                "tempo": 120.0
            },
            {
                "pitch": 75,
                "velocity": 40,
                "duration": 0.0864,
                "tempo": 120.0
            },
            {
                "pitch": 77,
                "velocity": 40,
                "duration": 0.1,
                "tempo": 120.0
            },
            {
                "pitch": 70,
                "velocity": 40,
                "duration": 0.0841,
                "tempo": 120.0
            },
            {
                "pitch": 73,
                "velocity": 40,
                "duration": 0.0818,
                "tempo": 120.0
            },
            {
                "pitch": 75,
                "velocity": 40,
                "duration": 0.1,
                "tempo": 120.0
            },
            {
                "pitch": 77,
                "velocity": 40,
                "duration": 0.0841,
                "tempo": 120.0
            },
            {
                "pitch": 77,
                "velocity": 40,
                "duration": 0.2227,
                "tempo": 120.0
            },
            {
                "pitch": 70,
                "velocity": 40,
                "duration": 0.0864,
                "tempo": 120.0
            },
            {
                "pitch": 73,
                "velocity": 40,
                "duration": 0.1295,
                "tempo": 120.0
            },
            {
                "pitch": 75,
                "velocity": 40,
                "duration": 0.0795,
                "tempo": 120.0
            },
            {
                "pitch": 77,
                "velocity": 40,
                "duration": 0.0795,
                "tempo": 120.0
            },
            {
                "pitch": 77,
                "velocity": 40,
                "duration": 0.2136,
                "tempo": 120.0
            },
            {
                "pitch": 70,
                "velocity": 40,
                "duration": 0.0841,
                "tempo": 120.0
            },
            {
                "pitch": 73,
                "velocity": 40,
                "duration": 0.0864,
                "tempo": 120.0
            },
            {
                "pitch": 75,
                "velocity": 40,
                "duration": 0.0841,
                "tempo": 120.0
            },
            {
                "pitch": 77,
                "velocity": 40,
                "duration": 0.1,
                "tempo": 120.0
            },
            {
                "pitch": 70,
                "velocity": 40,
                "duration": 0.0841,
                "tempo": 120.0
            },
            {
                "pitch": 73,
                "velocity": 40,
                "duration": 0.0841,
                "tempo": 120.0
            },
            {
                "pitch": 75,
                "velocity": 40,
                "duration": 0.1023,
                "tempo": 120.0
            },
            {
                "pitch": 77,
                "velocity": 40,
                "duration": 0.0864,
                "tempo": 120.0
            },
            {
                "pitch": 77,
                "velocity": 40,
                "duration": 0.2227,
                "tempo": 120.0
            },
            {
                "pitch": 70,
                "velocity": 40,
                "duration": 0.0841,
                "tempo": 120.0
            },
            {
                "pitch": 73,
                "velocity": 40,
                "duration": 0.1295,
                "tempo": 120.0
            },
            {
                "pitch": 75,
                "velocity": 40,
                "duration": 0.0795,
                "tempo": 120.0
            },
            {
                "pitch": 77,
                "velocity": 40,
                "duration": 0.0795,
                "tempo": 120.0
            },
            {
                "pitch": 77,
                "velocity": 40,
                "duration": 0.2114,
                "tempo": 120.0
            },
            {
                "pitch": 70,
                "velocity": 40,
                "duration": 0.0864,
                "tempo": 120.0
            },
            {
                "pitch": 73,
                "velocity": 40,
                "duration": 0.0864,
                "tempo": 120.0
            },
            {
                "pitch": 75,
                "velocity": 40,
                "duration": 0.0864,
                "tempo": 120.0
            },
            {
                "pitch": 77,
                "velocity": 40,
                "duration": 0.1,
                "tempo": 120.0
            },
            {
                "pitch": 70,
                "velocity": 40,
                "duration": 0.0818,
                "tempo": 120.0
            },
            {
                "pitch": 73,
                "velocity": 40,
                "duration": 0.0841,
                "tempo": 120.0
            },
            {
                "pitch": 75,
                "velocity": 40,
                "duration": 0.1,
                "tempo": 120.0
            },
            {
                "pitch": 77,
                "velocity": 40,
                "duration": 0.0841,
                "tempo": 120.0
            },
            {
                "pitch": 77,
                "velocity": 40,
                "duration": 0.2227,
                "tempo": 120.0
            },
            {
                "pitch": 70,
                "velocity": 40,
                "duration": 0.0864,
                "tempo": 120.0
            },
            {
                "pitch": 73,
                "velocity": 40,
                "duration": 0.1295,
                "tempo": 120.0
            },
            {
                "pitch": 75,
                "velocity": 40,
                "duration": 0.0795,
                "tempo": 120.0
            },
            {
                "pitch": 77,
                "velocity": 40,
                "duration": 0.0795,
                "tempo": 120.0
            },
            {
                "pitch": 77,
                "velocity": 40,
                "duration": 0.2114,
                "tempo": 120.0
            },
            {
                "pitch": 70,
                "velocity": 40,
                "duration": 0.0864,
                "tempo": 120.0
            },
            {
                "pitch": 73,
                "velocity": 40,
                "duration": 0.0841,
                "tempo": 120.0
            },
            {
                "pitch": 75,
                "velocity": 40,
                "duration": 0.0864,
                "tempo": 120.0
            },
            {
                "pitch": 77,
                "velocity": 40,
                "duration": 0.1,
                "tempo": 120.0
            },
            {
                "pitch": 70,
                "velocity": 40,
                "duration": 0.0841,
                "tempo": 120.0
            },
            {
                "pitch": 73,
                "velocity": 40,
                "duration": 0.0841,
                "tempo": 120.0
            },
            {
                "pitch": 75,
                "velocity": 40,
                "duration": 0.1,
                "tempo": 120.0
            },
            {
                "pitch": 77,
                "velocity": 40,
                "duration": 0.0864,
                "tempo": 120.0
            },
            {
                "pitch": 77,
                "velocity": 40,
                "duration": 0.2205,
                "tempo": 120.0
            },
            {
                "pitch": 70,
                "velocity": 40,
                "duration": 0.0864,
                "tempo": 120.0
            },
            {
                "pitch": 73,
                "velocity": 40,
                "duration": 0.1295,
                "tempo": 120.0
            },
            {
                "pitch": 75,
                "velocity": 40,
                "duration": 0.0795,
                "tempo": 120.0
            },
            {
                "pitch": 77,
                "velocity": 40,
                "duration": 0.0795,
                "tempo": 120.0
            },
            {
                "pitch": 77,
                "velocity": 40,
                "duration": 0.2136,
                "tempo": 120.0
            },
            {
                "pitch": 70,
                "velocity": 40,
                "duration": 0.0841,
                "tempo": 120.0
            },
            {
                "pitch": 73,
                "velocity": 40,
                "duration": 0.0864,
                "tempo": 120.0
            },
            {
                "pitch": 75,
                "velocity": 40,
                "duration": 0.0841,
                "tempo": 120.0
            },
            {
                "pitch": 77,
                "velocity": 40,
                "duration": 0.1023,
                "tempo": 120.0
            },
            {
                "pitch": 70,
                "velocity": 40,
                "duration": 0.0841,
                "tempo": 120.0
            },
            {
                "pitch": 73,
                "velocity": 40,
                "duration": 0.0841,
                "tempo": 120.0
            },
            {
                "pitch": 75,
                "velocity": 40,
                "duration": 0.1,
                "tempo": 120.0
            },
            {
                "pitch": 77,
                "velocity": 40,
                "duration": 0.0864,
                "tempo": 120.0
            },
            {
                "pitch": 77,
                "velocity": 40,
                "duration": 0.2227,
                "tempo": 120.0
            },
            {
                "pitch": 70,
                "velocity": 40,
                "duration": 0.0841,
                "tempo": 120.0
            },
            {
                "pitch": 73,
                "velocity": 40,
                "duration": 0.1295,
                "tempo": 120.0
            },
            {
                "pitch": 75,
                "velocity": 40,
                "duration": 0.0818,
                "tempo": 120.0
            },
            {
                "pitch": 77,
                "velocity": 40,
                "duration": 0.0795,
                "tempo": 120.0
            },
            {
                "pitch": 77,
                "velocity": 40,
                "duration": 0.2114,
                "tempo": 120.0
            },
            {
                "pitch": 70,
                "velocity": 40,
                "duration": 0.0864,
                "tempo": 120.0
            },
            {
                "pitch": 73,
                "velocity": 40,
                "duration": 0.0864,
                "tempo": 120.0
            },
            {
                "pitch": 75,
                "velocity": 40,
                "duration": 0.0864,
                "tempo": 120.0
            },
            {
                "pitch": 77,
                "velocity": 40,
                "duration": 0.1,
                "tempo": 120.0
            },
            {
                "pitch": 70,
                "velocity": 40,
                "duration": 0.0841,
                "tempo": 120.0
            },
            {
                "pitch": 73,
                "velocity": 40,
                "duration": 0.0818,
                "tempo": 120.0
            },
            {
                "pitch": 75,
                "velocity": 40,
                "duration": 0.1,
                "tempo": 120.0
            },
            {
                "pitch": 77,
                "velocity": 40,
                "duration": 0.0841,
                "tempo": 120.0
            },
            {
                "pitch": 77,
                "velocity": 40,
                "duration": 0.2227,
                "tempo": 120.0
            },
            {
                "pitch": 70,
                "velocity": 40,
                "duration": 0.0864,
                "tempo": 120.0
            },
            {
                "pitch": 73,
                "velocity": 40,
                "duration": 0.1295,
                "tempo": 120.0
            },
            {
                "pitch": 75,
                "velocity": 40,
                "duration": 0.0795,
                "tempo": 120.0
            },
            {
                "pitch": 77,
                "velocity": 40,
                "duration": 0.0795,
                "tempo": 120.0
            },
            {
                "pitch": 77,
                "velocity": 40,
                "duration": 0.2136,
                "tempo": 120.0
            },
            {
                "pitch": 70,
                "velocity": 40,
                "duration": 0.0841,
                "tempo": 120.0
            },
            {
                "pitch": 73,
                "velocity": 40,
                "duration": 0.0841,
                "tempo": 120.0
            },
            {
                "pitch": 75,
                "velocity": 40,
                "duration": 0.0864,
                "tempo": 120.0
            },
            {
                "pitch": 77,
                "velocity": 40,
                "duration": 0.1,
                "tempo": 120.0
            },
            {
                "pitch": 75,
                "velocity": 40,
                "duration": 0.0841,
                "tempo": 120.0
            },
            {
                "pitch": 77,
                "velocity": 40,
                "duration": 0.0841,
                "tempo": 120.0
            },
            {
                "pitch": 80,
                "velocity": 40,
                "duration": 0.1,
                "tempo": 120.0
            },
            {
                "pitch": 82,
                "velocity": 40,
                "duration": 0.0864,
                "tempo": 120.0
            },
            {
                "pitch": 82,
                "velocity": 40,
                "duration": 0.2205,
                "tempo": 120.0
            },
            {
                "pitch": 75,
                "velocity": 40,
                "duration": 0.0841,
                "tempo": 120.0
            },
            {
                "pitch": 77,
                "velocity": 40,
                "duration": 0.1295,
                "tempo": 120.0
            },
            {
                "pitch": 80,
                "velocity": 40,
                "duration": 0.0795,
                "tempo": 120.0
            },
            {
                "pitch": 82,
                "velocity": 40,
                "duration": 0.0818,
                "tempo": 120.0
            },
            {
                "pitch": 82,
                "velocity": 40,
                "duration": 0.2114,
                "tempo": 120.0
            },
            {
                "pitch": 75,
                "velocity": 40,
                "duration": 0.0864,
                "tempo": 120.0
            },
            {
                "pitch": 77,
                "velocity": 40,
                "duration": 0.0864,
                "tempo": 120.0
            },
            {
                "pitch": 80,
                "velocity": 40,
                "duration": 0.0841,
                "tempo": 120.0
            },
            {
                "pitch": 82,
                "velocity": 40,
                "duration": 0.1,
                "tempo": 120.0
            },
            {
                "pitch": 75,
                "velocity": 40,
                "duration": 0.0818,
                "tempo": 120.0
            },
            {
                "pitch": 77,
                "velocity": 40,
                "duration": 0.0818,
                "tempo": 120.0
            },
            {
                "pitch": 80,
                "velocity": 40,
                "duration": 0.1,
                "tempo": 120.0
            },
            {
                "pitch": 82,
                "velocity": 40,
                "duration": 0.0864,
                "tempo": 120.0
            },
            {
                "pitch": 82,
                "velocity": 40,
                "duration": 0.2273,
                "tempo": 120.0
            },
            {
                "pitch": 75,
                "velocity": 40,
                "duration": 0.0864,
                "tempo": 120.0
            },
            {
                "pitch": 77,
                "velocity": 40,
                "duration": 0.1295,
                "tempo": 120.0
            },
            {
                "pitch": 80,
                "velocity": 40,
                "duration": 0.0818,
                "tempo": 120.0
            },
            {
                "pitch": 82,
                "velocity": 40,
                "duration": 0.0795,
                "tempo": 120.0
            },
            {
                "pitch": 82,
                "velocity": 40,
                "duration": 0.2114,
                "tempo": 120.0
            },
            {
                "pitch": 75,
                "velocity": 40,
                "duration": 0.0864,
                "tempo": 120.0
            },
            {
                "pitch": 77,
                "velocity": 40,
                "duration": 0.0864,
                "tempo": 120.0
            },
            {
                "pitch": 80,
                "velocity": 40,
                "duration": 0.0864,
                "tempo": 120.0
            },
            {
                "pitch": 82,
                "velocity": 40,
                "duration": 0.0977,
                "tempo": 120.0
            },
            {
                "pitch": 75,
                "velocity": 40,
                "duration": 0.0818,
                "tempo": 120.0
            },
            {
                "pitch": 77,
                "velocity": 40,
                "duration": 0.0818,
                "tempo": 120.0
            },
            {
                "pitch": 80,
                "velocity": 40,
                "duration": 0.0977,
                "tempo": 120.0
            },
            {
                "pitch": 82,
                "velocity": 40,
                "duration": 0.0864,
                "tempo": 120.0
            },
            {
                "pitch": 82,
                "velocity": 40,
                "duration": 0.2295,
                "tempo": 120.0
            },
            {
                "pitch": 75,
                "velocity": 40,
                "duration": 0.0864,
                "tempo": 120.0
            },
            {
                "pitch": 77,
                "velocity": 40,
                "duration": 0.1318,
                "tempo": 120.0
            },
            {
                "pitch": 80,
                "velocity": 40,
                "duration": 0.0795,
                "tempo": 120.0
            },
            {
                "pitch": 82,
                "velocity": 40,
                "duration": 0.0795,
                "tempo": 120.0
            },
            {
                "pitch": 82,
                "velocity": 40,
                "duration": 0.2136,
                "tempo": 120.0
            },
            {
                "pitch": 75,
                "velocity": 40,
                "duration": 0.0841,
                "tempo": 120.0
            },
            {
                "pitch": 77,
                "velocity": 40,
                "duration": 0.0841,
                "tempo": 120.0
            },
            {
                "pitch": 80,
                "velocity": 40,
                "duration": 0.0864,
                "tempo": 120.0
            },
            {
                "pitch": 82,
                "velocity": 40,
                "duration": 0.0977,
                "tempo": 120.0
            },
            {
                "pitch": 75,
                "velocity": 40,
                "duration": 0.0818,
                "tempo": 120.0
            },
            {
                "pitch": 77,
                "velocity": 40,
                "duration": 0.0818,
                "tempo": 120.0
            },
            {
                "pitch": 80,
                "velocity": 40,
                "duration": 0.0977,
                "tempo": 120.0
            },
            {
                "pitch": 82,
                "velocity": 40,
                "duration": 0.0864,
                "tempo": 120.0
            },
            {
                "pitch": 82,
                "velocity": 40,
                "duration": 0.2273,
                "tempo": 120.0
            },
            {
                "pitch": 75,
                "velocity": 40,
                "duration": 0.0886,
                "tempo": 120.0
            },
            {
                "pitch": 77,
                "velocity": 40,
                "duration": 0.1295,
                "tempo": 120.0
            },
            {
                "pitch": 80,
                "velocity": 40,
                "duration": 0.0795,
                "tempo": 120.0
            },
            {
                "pitch": 82,
                "velocity": 40,
                "duration": 0.0818,
                "tempo": 120.0
            },
            {
                "pitch": 82,
                "velocity": 40,
                "duration": 0.2091,
                "tempo": 120.0
            },
            {
                "pitch": 75,
                "velocity": 40,
                "duration": 0.0841,
                "tempo": 120.0
            },
            {
                "pitch": 77,
                "velocity": 40,
                "duration": 0.0841,
                "tempo": 120.0
            },
            {
                "pitch": 80,
                "velocity": 40,
                "duration": 0.0818,
                "tempo": 120.0
            },
            {
                "pitch": 82,
                "velocity": 40,
                "duration": 0.1,
                "tempo": 120.0
            },
            {
                "pitch": 70,
                "velocity": 40,
                "duration": 0.0841,
                "tempo": 120.0
            },
            {
                "pitch": 73,
                "velocity": 40,
                "duration": 0.0841,
                "tempo": 120.0
            },
            {
                "pitch": 75,
                "velocity": 40,
                "duration": 0.1,
                "tempo": 120.0
            },
            {
                "pitch": 77,
                "velocity": 40,
                "duration": 0.0864,
                "tempo": 120.0
            },
            {
                "pitch": 77,
                "velocity": 40,
                "duration": 0.2273,
                "tempo": 120.0
            },
            {
                "pitch": 70,
                "velocity": 40,
                "duration": 0.0864,
                "tempo": 120.0
            },
            {
                "pitch": 73,
                "velocity": 40,
                "duration": 0.1318,
                "tempo": 120.0
            },
            {
                "pitch": 75,
                "velocity": 40,
                "duration": 0.0795,
                "tempo": 120.0
            },
            {
                "pitch": 77,
                "velocity": 40,
                "duration": 0.0795,
                "tempo": 120.0
            },
            {
                "pitch": 77,
                "velocity": 40,
                "duration": 0.2114,
                "tempo": 120.0
            },
            {
                "pitch": 70,
                "velocity": 40,
                "duration": 0.0864,
                "tempo": 120.0
            },
            {
                "pitch": 73,
                "velocity": 40,
                "duration": 0.0841,
                "tempo": 120.0
            },
            {
                "pitch": 75,
                "velocity": 40,
                "duration": 0.0864,
                "tempo": 120.0
            },
            {
                "pitch": 77,
                "velocity": 40,
                "duration": 0.1,
                "tempo": 120.0
            },
            {
                "pitch": 70,
                "velocity": 40,
                "duration": 0.0841,
                "tempo": 120.0
            },
            {
                "pitch": 73,
                "velocity": 40,
                "duration": 0.0818,
                "tempo": 120.0
            },
            {
                "pitch": 75,
                "velocity": 40,
                "duration": 0.1,
                "tempo": 120.0
            },
            {
                "pitch": 77,
                "velocity": 40,
                "duration": 0.0864,
                "tempo": 120.0
            },
            {
                "pitch": 77,
                "velocity": 40,
                "duration": 0.2205,
                "tempo": 120.0
            },
            {
                "pitch": 70,
                "velocity": 40,
                "duration": 0.0864,
                "tempo": 120.0
            },
            {
                "pitch": 73,
                "velocity": 40,
                "duration": 0.1295,
                "tempo": 120.0
            },
            {
                "pitch": 75,
                "velocity": 40,
                "duration": 0.0795,
                "tempo": 120.0
            },
            {
                "pitch": 77,
                "velocity": 40,
                "duration": 0.0795,
                "tempo": 120.0
            },
            {
                "pitch": 77,
                "velocity": 40,
                "duration": 0.2136,
                "tempo": 120.0
            },
            {
                "pitch": 70,
                "velocity": 40,
                "duration": 0.0841,
                "tempo": 120.0
            },
            {
                "pitch": 73,
                "velocity": 40,
                "duration": 0.0864,
                "tempo": 120.0
            },
            {
                "pitch": 75,
                "velocity": 40,
                "duration": 0.0841,
                "tempo": 120.0
            },
            {
                "pitch": 77,
                "velocity": 40,
                "duration": 0.1023,
                "tempo": 120.0
            },
            {
                "pitch": 70,
                "velocity": 40,
                "duration": 0.0841,
                "tempo": 120.0
            },
            {
                "pitch": 73,
                "velocity": 40,
                "duration": 0.0841,
                "tempo": 120.0
            },
            {
                "pitch": 75,
                "velocity": 40,
                "duration": 0.1,
                "tempo": 120.0
            },
            {
                "pitch": 77,
                "velocity": 40,
                "duration": 0.0864,
                "tempo": 120.0
            },
            {
                "pitch": 77,
                "velocity": 40,
                "duration": 0.2227,
                "tempo": 120.0
            },
            {
                "pitch": 70,
                "velocity": 40,
                "duration": 0.0841,
                "tempo": 120.0
            },
            {
                "pitch": 73,
                "velocity": 40,
                "duration": 0.1295,
                "tempo": 120.0
            },
            {
                "pitch": 75,
                "velocity": 40,
                "duration": 0.0818,
                "tempo": 120.0
            },
            {
                "pitch": 77,
                "velocity": 40,
                "duration": 0.0795,
                "tempo": 120.0
            },
            {
                "pitch": 77,
                "velocity": 40,
                "duration": 0.2114,
                "tempo": 120.0
            },
            {
                "pitch": 70,
                "velocity": 40,
                "duration": 0.0864,
                "tempo": 120.0
            },
            {
                "pitch": 73,
                "velocity": 40,
                "duration": 0.0864,
                "tempo": 120.0
            },
            {
                "pitch": 75,
                "velocity": 40,
                "duration": 0.0864,
                "tempo": 120.0
            },
            {
                "pitch": 77,
                "velocity": 40,
                "duration": 0.1,
                "tempo": 120.0
            },
            {
                "pitch": 70,
                "velocity": 40,
                "duration": 0.0818,
                "tempo": 120.0
            },
            {
                "pitch": 73,
                "velocity": 40,
                "duration": 0.0841,
                "tempo": 120.0
            },
            {
                "pitch": 75,
                "velocity": 40,
                "duration": 0.1,
                "tempo": 120.0
            },
            {
                "pitch": 77,
                "velocity": 40,
                "duration": 0.0841,
                "tempo": 120.0
            },
            {
                "pitch": 77,
                "velocity": 40,
                "duration": 0.2227,
                "tempo": 120.0
            },
            {
                "pitch": 70,
                "velocity": 40,
                "duration": 0.0864,
                "tempo": 120.0
            },
            {
                "pitch": 73,
                "velocity": 40,
                "duration": 0.1295,
                "tempo": 120.0
            },
            {
                "pitch": 75,
                "velocity": 40,
                "duration": 0.0795,
                "tempo": 120.0
            },
            {
                "pitch": 77,
                "velocity": 40,
                "duration": 0.0795,
                "tempo": 120.0
            },
            {
                "pitch": 77,
                "velocity": 40,
                "duration": 0.2136,
                "tempo": 120.0
            },
            {
                "pitch": 70,
                "velocity": 40,
                "duration": 0.0841,
                "tempo": 120.0
            },
            {
                "pitch": 73,
                "velocity": 40,
                "duration": 0.0841,
                "tempo": 120.0
            },
            {
                "pitch": 75,
                "velocity": 40,
                "duration": 0.0864,
                "tempo": 120.0
            },
            {
                "pitch": 77,
                "velocity": 40,
                "duration": 0.0182,
                "tempo": 120.0
            }
        ]
    }
}