{
    "track_id": "Summer Games (FM) - 07 - Gymnastics",
    "mood": "happy",
    "instruments": {
        "Vibraphone": [
            {
                "pitch": 63,
                "velocity": 40,
                "duration": 0.1659,
                "tempo": 120.0
            },
            {
                "pitch": 62,
                "velocity": 40,
                "duration": 0.6,
                "tempo": 120.0
            },
            {
                "pitch": 63,
                "velocity": 40,
                "duration": 0.1682,
                "tempo": 120.0
            },
            {
                "pitch": 62,
                "velocity": 40,
                "duration": 0.2545,
                "tempo": 120.0
            },
            {
                "pitch": 60,
                "velocity": 40,
                "duration": 0.2545,
                "tempo": 120.0
            },
            {
                "pitch": 60,
                "velocity": 40,
                "duration": 0.0682,
                "tempo": 120.0
            },
            {
                "pitch": 62,
                "velocity": 40,
                "duration": 0.2341,
                "tempo": 120.0
            },
            {
                "pitch": 63,
                "velocity": 40,
                "duration": 0.1682,
                "tempo": 120.0
            },
            {
                "pitch": 62,
                "velocity": 40,
                "duration": 0.2523,
                "tempo": 120.0
            },
            {
                "pitch": 63,
                "velocity": 40,
                "duration": 0.3386,
                "tempo": 120.0
            },
            {
                "pitch": 60,
                "velocity": 40,
                "duration": 0.4386,
                "tempo": 120.0
            },
            {
                "pitch": 62,
                "velocity": 40,
                "duration": 0.4841,
                "tempo": 120.0
            },
            {
                "pitch": 63,
                "velocity": 40,
                "duration": 0.1682,
                "tempo": 120.0
            },
            {
                "pitch": 62,
                "velocity": 40,
                "duration": 0.6068,
                "tempo": 120.0
            },
            {
                "pitch": 63,
                "velocity": 40,
                "duration": 0.1705,
                "tempo": 120.0
            },
            {
                "pitch": 62,
                "velocity": 40,
                "duration": 0.2523,
                "tempo": 120.0
            },
            {
                "pitch": 60,
                "velocity": 40,
                "duration": 0.2523,
                "tempo": 120.0
            },
            {
                "pitch": 60,
                "velocity": 40,
                "duration": 0.0659,
                "tempo": 120.0
            },
            {
                "pitch": 62,
                "velocity": 40,
                "duration": 0.2364,
                "tempo": 120.0
            },
            {
                "pitch": 63,
                "velocity": 40,
                "duration": 0.1682,
                "tempo": 120.0
            },
            {
                "pitch": 62,
                "velocity": 40,
                "duration": 0.25,
                "tempo": 120.0
            },
            {
                "pitch": 63,
                "velocity": 40,
                "duration": 0.3318,
                "tempo": 120.0
            },
            {
                "pitch": 65,
                "velocity": 40,
                "duration": 0.5227,
                "tempo": 120.0
            },
            {
                "pitch": 64,
                "velocity": 40,
                "duration": 0.5227,
                "tempo": 120.0
            }
        ],
        "Harpsichord": [
            {
                "pitch": 41,
                "velocity": 40,
                "duration": 0.175,
                "tempo": 120.0
            },
            {
                "pitch": 63,
                "velocity": 40,
                "duration": 0.1818,
                "tempo": 120.0
            },
            {
                "pitch": 62,
                "velocity": 40,
                "duration": 0.25,
                "tempo": 120.0
            },
            {
                "pitch": 63,
                "velocity": 40,
                "duration": 0.2523,
                "tempo": 120.0
            },
            {
                "pitch": 62,
                "velocity": 40,
                "duration": 0.05,
                "tempo": 120.0
            },
            {
                "pitch": 70,
                "velocity": 40,
                "duration": 0.05,
                "tempo": 120.0
            },
            {
                "pitch": 69,
                "velocity": 40,
                "duration": 0.5386,
                "tempo": 120.0
            },
            {
                "pitch": 63,
                "velocity": 40,
                "duration": 0.1841,
                "tempo": 120.0
            },
            {
                "pitch": 62,
                "velocity": 40,
                "duration": 0.25,
                "tempo": 120.0
            },
            {
                "pitch": 63,
                "velocity": 40,
                "duration": 0.2545,
                "tempo": 120.0
            },
            {
                "pitch": 62,
                "velocity": 40,
                "duration": 0.0523,
                "tempo": 120.0
            },
            {
                "pitch": 61,
                "velocity": 40,
                "duration": 0.2545,
                "tempo": 120.0
            },
            {
                "pitch": 61,
                "velocity": 40,
                "duration": 0.1841,
                "tempo": 120.0
            },
            {
                "pitch": 61,
                "velocity": 40,
                "duration": 0.25,
                "tempo": 120.0
            },
            {
                "pitch": 61,
                "velocity": 40,
                "duration": 0.05,
                "tempo": 120.0
            },
            {
                "pitch": 63,
                "velocity": 40,
                "duration": 0.2545,
                "tempo": 120.0
            },
            {
                "pitch": 41,
                "velocity": 40,
                "duration": 0.2545,
                "tempo": 120.0
            },
            {
                "pitch": 63,
                "velocity": 40,
                "duration": 0.1841,
                "tempo": 120.0
            },
            {
                "pitch": 62,
                "velocity": 40,
                "duration": 0.2523,
                "tempo": 120.0
            },
            {
                "pitch": 63,
                "velocity": 40,
                "duration": 0.25,
                "tempo": 120.0
            },
            {
                "pitch": 62,
                "velocity": 40,
                "duration": 0.05,
                "tempo": 120.0
            },
            {
                "pitch": 70,
                "velocity": 40,
                "duration": 0.1159,
                "tempo": 120.0
            },
            {
                "pitch": 69,
                "velocity": 40,
                "duration": 0.8614,
                "tempo": 120.0
            },
            {
                "pitch": 63,
                "velocity": 40,
                "duration": 0.1841,
                "tempo": 120.0
            },
            {
                "pitch": 62,
                "velocity": 40,
                "duration": 0.25,
                "tempo": 120.0
            },
            {
                "pitch": 63,
                "velocity": 40,
                "duration": 0.25,
                "tempo": 120.0
            },
            {
                "pitch": 62,
                "velocity": 40,
                "duration": 0.05,
                "tempo": 120.0
            },
            {
                "pitch": 61,
                "velocity": 40,
                "duration": 0.3841,
                "tempo": 120.0
            },
            {
                "pitch": 61,
                "velocity": 40,
                "duration": 0.25,
                "tempo": 120.0
            },
            {
                "pitch": 61,
                "velocity": 40,
                "duration": 0.1159,
                "tempo": 120.0
            },
            {
                "pitch": 63,
                "velocity": 40,
                "duration": 0.2568,
                "tempo": 120.0
            },
            {
                "pitch": 65,
                "velocity": 40,
                "duration": 1.0614,
                "tempo": 120.0
            },
            {
                "pitch": 41,
                "velocity": 40,
                "duration": 0.2205,
                "tempo": 120.0
            }
        ],
        "Acoustic Bass": [
            {
                "pitch": 60,
                "velocity": 25,
                "duration": 0.0682,
                "tempo": 120.0
            },
            {
                "pitch": 60,
                "velocity": 25,
                "duration": 0.0682,
                "tempo": 120.0
            },
            {
                "pitch": 60,
                "velocity": 25,
                "duration": 0.0682,
                "tempo": 120.0
            },
            {
                "pitch": 63,
                "velocity": 25,
                "duration": 0.1705,
                "tempo": 120.0
            },
            {
                "pitch": 62,
                "velocity": 25,
                "duration": 0.2545,
                "tempo": 120.0
            },
            {
                "pitch": 70,
                "velocity": 25,
                "duration": 0.2523,
                "tempo": 120.0
            },
            {
                "pitch": 69,
                "velocity": 25,
                "duration": 0.0659,
                "tempo": 120.0
            },
            {
                "pitch": 67,
                "velocity": 25,
                "duration": 0.4341,
                "tempo": 120.0
            },
            {
                "pitch": 70,
                "velocity": 25,
                "duration": 0.3341,
                "tempo": 120.0
            },
            {
                "pitch": 69,
                "velocity": 25,
                "duration": 0.525,
                "tempo": 120.0
            },
            {
                "pitch": 63,
                "velocity": 25,
                "duration": 0.1659,
                "tempo": 120.0
            },
            {
                "pitch": 62,
                "velocity": 25,
                "duration": 0.25,
                "tempo": 120.0
            },
            {
                "pitch": 70,
                "velocity": 25,
                "duration": 0.25,
                "tempo": 120.0
            },
            {
                "pitch": 69,
                "velocity": 25,
                "duration": 0.0659,
                "tempo": 120.0
            },
            {
                "pitch": 67,
                "velocity": 25,
                "duration": 1.0636,
                "tempo": 120.0
            },
            {
                "pitch": 60,
                "velocity": 25,
                "duration": 0.0659,
                "tempo": 120.0
            },
            {
                "pitch": 60,
                "velocity": 25,
                "duration": 0.0659,
                "tempo": 120.0
            },
            {
                "pitch": 60,
                "velocity": 25,
                "duration": 0.0659,
                "tempo": 120.0
            },
            {
                "pitch": 63,
                "velocity": 25,
                "duration": 0.1682,
                "tempo": 120.0
            },
            {
                "pitch": 62,
                "velocity": 25,
                "duration": 0.2523,
                "tempo": 120.0
            },
            {
                "pitch": 70,
                "velocity": 25,
                "duration": 0.2545,
                "tempo": 120.0
            },
            {
                "pitch": 69,
                "velocity": 25,
                "duration": 0.0682,
                "tempo": 120.0
            },
            {
                "pitch": 67,
                "velocity": 25,
                "duration": 0.4364,
                "tempo": 120.0
            },
            {
                "pitch": 70,
                "velocity": 25,
                "duration": 0.3341,
                "tempo": 120.0
            },
            {
                "pitch": 69,
                "velocity": 25,
                "duration": 0.5182,
                "tempo": 120.0
            },
            {
                "pitch": 63,
                "velocity": 25,
                "duration": 0.1682,
                "tempo": 120.0
            },
            {
                "pitch": 62,
                "velocity": 25,
                "duration": 0.2545,
                "tempo": 120.0
            },
            {
                "pitch": 70,
                "velocity": 25,
                "duration": 0.25,
                "tempo": 120.0
            },
            {
                "pitch": 69,
                "velocity": 25,
                "duration": 0.0682,
                "tempo": 120.0
            },
            {
                "pitch": 69,
                "velocity": 25,
                "duration": 0.4341,
                "tempo": 120.0
            },
            {
                "pitch": 67,
                "velocity": 25,
                "duration": 0.8773,
                "tempo": 120.0
            }
        ],
        "French Horn": [
            {
                "pitch": 60,
                "velocity": 25,
                "duration": 0.025,
                "tempo": 120.0
            }
        ],
        "Oboe": [
            {
                "pitch": 53,
                "velocity": 25,
                "duration": 0.1136,
                "tempo": 120.0
            },
            {
                "pitch": 53,
                "velocity": 25,
                "duration": 0.0364,
                "tempo": 120.0
            },
            {
                "pitch": 53,
                "velocity": 25,
                "duration": 0.1818,
                "tempo": 120.0
            },
            {
                "pitch": 53,
                "velocity": 25,
                "duration": 0.05,
                "tempo": 120.0
            },
            {
                "pitch": 53,
                "velocity": 25,
                "duration": 0.1841,
                "tempo": 120.0
            },
            {
                "pitch": 53,
                "velocity": 25,
                "duration": 0.05,
                "tempo": 120.0
            },
            {
                "pitch": 53,
                "velocity": 25,
                "duration": 0.1841,
                "tempo": 120.0
            },
            {
                "pitch": 53,
                "velocity": 25,
                "duration": 0.05,
                "tempo": 120.0
            },
            {
                "pitch": 53,
                "velocity": 25,
                "duration": 0.1841,
                "tempo": 120.0
            },
            {
                "pitch": 53,
                "velocity": 25,
                "duration": 0.0523,
                "tempo": 120.0
            },
            {
                "pitch": 53,
                "velocity": 25,
                "duration": 0.1864,
                "tempo": 120.0
            },
            {
                "pitch": 53,
                "velocity": 25,
                "duration": 0.05,
                "tempo": 120.0
            },
            {
                "pitch": 53,
                "velocity": 25,
                "duration": 0.1864,
                "tempo": 120.0
            },
            {
                "pitch": 53,
                "velocity": 25,
                "duration": 0.0523,
                "tempo": 120.0
            },
            {
                "pitch": 53,
                "velocity": 25,
                "duration": 0.1841,
                "tempo": 120.0
            },
            {
                "pitch": 53,
                "velocity": 25,
                "duration": 0.05,
                "tempo": 120.0
            },
            {
                "pitch": 53,
                "velocity": 25,
                "duration": 0.1841,
                "tempo": 120.0
            },
            {
                "pitch": 53,
                "velocity": 25,
                "duration": 0.05,
                "tempo": 120.0
            },
            {
                "pitch": 53,
                "velocity": 25,
                "duration": 0.1841,
                "tempo": 120.0
            },
            {
                "pitch": 53,
                "velocity": 25,
                "duration": 0.05,
                "tempo": 120.0
            },
            {
                "pitch": 53,
                "velocity": 25,
                "duration": 0.1841,
                "tempo": 120.0
            },
            {
                "pitch": 53,
                "velocity": 25,
                "duration": 0.05,
                "tempo": 120.0
            },
            {
                "pitch": 53,
                "velocity": 25,
                "duration": 0.1886,
                "tempo": 120.0
            },
            {
                "pitch": 53,
                "velocity": 25,
                "duration": 0.0523,
                "tempo": 120.0
            },
            {
                "pitch": 49,
                "velocity": 25,
                "duration": 0.2545,
                "tempo": 120.0
            },
            {
                "pitch": 49,
                "velocity": 25,
                "duration": 0.1159,
                "tempo": 120.0
            },
            {
                "pitch": 49,
                "velocity": 25,
                "duration": 0.25,
                "tempo": 120.0
            },
            {
                "pitch": 49,
                "velocity": 25,
                "duration": 0.1182,
                "tempo": 120.0
            },
            {
                "pitch": 49,
                "velocity": 25,
                "duration": 0.2545,
                "tempo": 120.0
            },
            {
                "pitch": 53,
                "velocity": 25,
                "duration": 0.1864,
                "tempo": 120.0
            },
            {
                "pitch": 53,
                "velocity": 25,
                "duration": 0.0523,
                "tempo": 120.0
            },
            {
                "pitch": 53,
                "velocity": 25,
                "duration": 0.1841,
                "tempo": 120.0
            },
            {
                "pitch": 53,
                "velocity": 25,
                "duration": 0.05,
                "tempo": 120.0
            },
            {
                "pitch": 53,
                "velocity": 25,
                "duration": 0.1841,
                "tempo": 120.0
            },
            {
                "pitch": 53,
                "velocity": 25,
                "duration": 0.05,
                "tempo": 120.0
            },
            {
                "pitch": 53,
                "velocity": 25,
                "duration": 0.1841,
                "tempo": 120.0
            },
            {
                "pitch": 53,
                "velocity": 25,
                "duration": 0.05,
                "tempo": 120.0
            },
            {
                "pitch": 53,
                "velocity": 25,
                "duration": 0.1841,
                "tempo": 120.0
            },
            {
                "pitch": 53,
                "velocity": 25,
                "duration": 0.05,
                "tempo": 120.0
            },
            {
                "pitch": 53,
                "velocity": 25,
                "duration": 0.1818,
                "tempo": 120.0
            },
            {
                "pitch": 53,
                "velocity": 25,
                "duration": 0.05,
                "tempo": 120.0
            },
            {
                "pitch": 53,
                "velocity": 25,
                "duration": 0.1841,
                "tempo": 120.0
            },
            {
                "pitch": 53,
                "velocity": 25,
                "duration": 0.05,
                "tempo": 120.0
            },
            {
                "pitch": 53,
                "velocity": 25,
                "duration": 0.1864,
                "tempo": 120.0
            },
            {
                "pitch": 53,
                "velocity": 25,
                "duration": 0.0523,
                "tempo": 120.0
            },
            {
                "pitch": 53,
                "velocity": 25,
                "duration": 0.1886,
                "tempo": 120.0
            },
            {
                "pitch": 53,
                "velocity": 25,
                "duration": 0.0523,
                "tempo": 120.0
            },
            {
                "pitch": 53,
                "velocity": 25,
                "duration": 0.1841,
                "tempo": 120.0
            },
            {
                "pitch": 53,
                "velocity": 25,
                "duration": 0.05,
                "tempo": 120.0
            },
            {
                "pitch": 53,
                "velocity": 25,
                "duration": 0.1818,
                "tempo": 120.0
            },
            {
                "pitch": 53,
                "velocity": 25,
                "duration": 0.05,
                "tempo": 120.0
            },
            {
                "pitch": 53,
                "velocity": 25,
                "duration": 0.1841,
                "tempo": 120.0
            },
            {
                "pitch": 53,
                "velocity": 25,
                "duration": 0.05,
                "tempo": 120.0
            },
            {
                "pitch": 49,
                "velocity": 25,
                "duration": 0.25,
                "tempo": 120.0
            },
            {
                "pitch": 49,
                "velocity": 25,
                "duration": 0.1182,
                "tempo": 120.0
            },
            {
                "pitch": 49,
                "velocity": 25,
                "duration": 0.25,
                "tempo": 120.0
            },
            {
                "pitch": 49,
                "velocity": 25,
                "duration": 0.1159,
                "tempo": 120.0
            },
            {
                "pitch": 49,
                "velocity": 25,
                "duration": 0.2568,
                "tempo": 120.0
            },
            {
                "pitch": 53,
                "velocity": 25,
                "duration": 0.1864,
                "tempo": 120.0
            },
            {
                "pitch": 53,
                "velocity": 25,
                "duration": 0.05,
                "tempo": 120.0
            },
            {
                "pitch": 53,
                "velocity": 25,
                "duration": 0.1841,
                "tempo": 120.0
            },
            {
                "pitch": 53,
                "velocity": 25,
                "duration": 0.05,
                "tempo": 120.0
            },
            {
                "pitch": 53,
                "velocity": 25,
                "duration": 0.1841,
                "tempo": 120.0
            },
            {
                "pitch": 53,
                "velocity": 25,
                "duration": 0.0523,
                "tempo": 120.0
            },
            {
                "pitch": 53,
                "velocity": 25,
                "duration": 0.1864,
                "tempo": 120.0
            },
            {
                "pitch": 53,
                "velocity": 25,
                "duration": 0.05,
                "tempo": 120.0
            },
            {
                "pitch": 53,
                "velocity": 25,
                "duration": 1.0591,
                "tempo": 120.0
            },
            {
                "pitch": 53,
                "velocity": 25,
                "duration": 0.0659,
                "tempo": 120.0
            },
            {
                "pitch": 53,
                "velocity": 25,
                "duration": 0.0659,
                "tempo": 120.0
            },
            {
                "pitch": 53,
                "velocity": 25,
                "duration": 0.0659,
                "tempo": 120.0
            },
            {
                "pitch": 53,
                "velocity": 25,
                "duration": 0.1705,
                "tempo": 120.0
            },
            {
                "pitch": 53,
                "velocity": 25,
                "duration": 0.0682,
                "tempo": 120.0
            },
            {
                "pitch": 53,
                "velocity": 25,
                "duration": 0.1705,
                "tempo": 120.0
            },
            {
                "pitch": 53,
                "velocity": 25,
                "duration": 0.0682,
                "tempo": 120.0
            },
            {
                "pitch": 53,
                "velocity": 25,
                "duration": 0.1659,
                "tempo": 120.0
            },
            {
                "pitch": 53,
                "velocity": 25,
                "duration": 0.0659,
                "tempo": 120.0
            },
            {
                "pitch": 53,
                "velocity": 25,
                "duration": 0.0682,
                "tempo": 120.0
            },
            {
                "pitch": 53,
                "velocity": 25,
                "duration": 0.0682,
                "tempo": 120.0
            },
            {
                "pitch": 53,
                "velocity": 25,
                "duration": 0.0682,
                "tempo": 120.0
            },
            {
                "pitch": 53,
                "velocity": 25,
                "duration": 0.1659,
                "tempo": 120.0
            },
            {
                "pitch": 53,
                "velocity": 25,
                "duration": 0.0659,
                "tempo": 120.0
            },
            {
                "pitch": 53,
                "velocity": 25,
                "duration": 0.1682,
                "tempo": 120.0
            },
            {
                "pitch": 53,
                "velocity": 25,
                "duration": 0.0682,
                "tempo": 120.0
            },
            {
                "pitch": 53,
                "velocity": 25,
                "duration": 0.1705,
                "tempo": 120.0
            },
            {
                "pitch": 53,
                "velocity": 25,
                "duration": 0.0682,
                "tempo": 120.0
            },
            {
                "pitch": 53,
                "velocity": 25,
                "duration": 0.0682,
                "tempo": 120.0
            },
            {
                "pitch": 53,
                "velocity": 25,
                "duration": 0.0659,
                "tempo": 120.0
            },
            {
                "pitch": 53,
                "velocity": 25,
                "duration": 0.0682,
                "tempo": 120.0
            },
            {
                "pitch": 53,
                "velocity": 25,
                "duration": 0.1682,
                "tempo": 120.0
            },
            {
                "pitch": 53,
                "velocity": 25,
                "duration": 0.0682,
                "tempo": 120.0
            },
            {
                "pitch": 53,
                "velocity": 25,
                "duration": 0.1659,
                "tempo": 120.0
            },
            {
                "pitch": 53,
                "velocity": 25,
                "duration": 0.0659,
                "tempo": 120.0
            },
            {
                "pitch": 53,
                "velocity": 25,
                "duration": 0.1659,
                "tempo": 120.0
            },
            {
                "pitch": 53,
                "velocity": 25,
                "duration": 0.0682,
                "tempo": 120.0
            },
            {
                "pitch": 53,
                "velocity": 25,
                "duration": 0.1682,
                "tempo": 120.0
            },
            {
                "pitch": 53,
                "velocity": 25,
                "duration": 0.0659,
                "tempo": 120.0
            },
            {
                "pitch": 53,
                "velocity": 25,
                "duration": 0.1682,
                "tempo": 120.0
            },
            {
                "pitch": 53,
                "velocity": 25,
                "duration": 0.0682,
                "tempo": 120.0
            },
            {
                "pitch": 53,
                "velocity": 25,
                "duration": 0.1705,
                "tempo": 120.0
            },
            {
                "pitch": 53,
                "velocity": 25,
                "duration": 0.0659,
                "tempo": 120.0
            },
            {
                "pitch": 49,
                "velocity": 25,
                "duration": 0.1659,
                "tempo": 120.0
            },
            {
                "pitch": 51,
                "velocity": 25,
                "duration": 0.0659,
                "tempo": 120.0
            },
            {
                "pitch": 53,
                "velocity": 25,
                "duration": 0.0659,
                "tempo": 120.0
            },
            {
                "pitch": 53,
                "velocity": 25,
                "duration": 0.0659,
                "tempo": 120.0
            },
            {
                "pitch": 53,
                "velocity": 25,
                "duration": 0.0682,
                "tempo": 120.0
            },
            {
                "pitch": 53,
                "velocity": 25,
                "duration": 0.1682,
                "tempo": 120.0
            },
            {
                "pitch": 53,
                "velocity": 25,
                "duration": 0.0659,
                "tempo": 120.0
            },
            {
                "pitch": 53,
                "velocity": 25,
                "duration": 0.1659,
                "tempo": 120.0
            },
            {
                "pitch": 53,
                "velocity": 25,
                "duration": 0.0682,
                "tempo": 120.0
            },
            {
                "pitch": 53,
                "velocity": 25,
                "duration": 0.1705,
                "tempo": 120.0
            },
            {
                "pitch": 53,
                "velocity": 25,
                "duration": 0.0682,
                "tempo": 120.0
            },
            {
                "pitch": 53,
                "velocity": 25,
                "duration": 0.0682,
                "tempo": 120.0
            },
            {
                "pitch": 53,
                "velocity": 25,
                "duration": 0.0682,
                "tempo": 120.0
            },
            {
                "pitch": 53,
                "velocity": 25,
                "duration": 0.0682,
                "tempo": 120.0
            },
            {
                "pitch": 53,
                "velocity": 25,
                "duration": 0.1659,
                "tempo": 120.0
            },
            {
                "pitch": 53,
                "velocity": 25,
                "duration": 0.0682,
                "tempo": 120.0
            },
            {
                "pitch": 53,
                "velocity": 25,
                "duration": 0.1682,
                "tempo": 120.0
            },
            {
                "pitch": 53,
                "velocity": 25,
                "duration": 0.0659,
                "tempo": 120.0
            },
            {
                "pitch": 53,
                "velocity": 25,
                "duration": 0.1659,
                "tempo": 120.0
            },
            {
                "pitch": 53,
                "velocity": 25,
                "duration": 0.0659,
                "tempo": 120.0
            },
            {
                "pitch": 53,
                "velocity": 25,
                "duration": 0.0682,
                "tempo": 120.0
            },
            {
                "pitch": 53,
                "velocity": 25,
                "duration": 0.0682,
                "tempo": 120.0
            },
            {
                "pitch": 53,
                "velocity": 25,
                "duration": 0.0659,
                "tempo": 120.0
            },
            {
                "pitch": 53,
                "velocity": 25,
                "duration": 0.1705,
                "tempo": 120.0
            },
            {
                "pitch": 53,
                "velocity": 25,
                "duration": 0.0682,
                "tempo": 120.0
            },
            {
                "pitch": 53,
                "velocity": 25,
                "duration": 0.1705,
                "tempo": 120.0
            },
            {
                "pitch": 53,
                "velocity": 25,
                "duration": 0.0682,
                "tempo": 120.0
            },
            {
                "pitch": 53,
                "velocity": 25,
                "duration": 0.1682,
                "tempo": 120.0
            },
            {
                "pitch": 53,
                "velocity": 25,
                "duration": 0.0659,
                "tempo": 120.0
            },
            {
                "pitch": 53,
                "velocity": 25,
                "duration": 0.25,
                "tempo": 120.0
            },
            {
                "pitch": 53,
                "velocity": 25,
                "duration": 0.2523,
                "tempo": 120.0
            },
            {
                "pitch": 51,
                "velocity": 25,
                "duration": 0.25,
                "tempo": 120.0
            },
            {
                "pitch": 49,
                "velocity": 25,
                "duration": 0.2568,
                "tempo": 120.0
            },
            {
                "pitch": 46,
                "velocity": 25,
                "duration": 0.1705,
                "tempo": 120.0
            },
            {
                "pitch": 46,
                "velocity": 25,
                "duration": 0.0682,
                "tempo": 120.0
            },
            {
                "pitch": 46,
                "velocity": 25,
                "duration": 0.1659,
                "tempo": 120.0
            },
            {
                "pitch": 46,
                "velocity": 25,
                "duration": 0.0659,
                "tempo": 120.0
            },
            {
                "pitch": 46,
                "velocity": 25,
                "duration": 0.0682,
                "tempo": 120.0
            },
            {
                "pitch": 46,
                "velocity": 25,
                "duration": 0.0682,
                "tempo": 120.0
            },
            {
                "pitch": 46,
                "velocity": 25,
                "duration": 0.0682,
                "tempo": 120.0
            },
            {
                "pitch": 46,
                "velocity": 25,
                "duration": 0.1659,
                "tempo": 120.0
            },
            {
                "pitch": 46,
                "velocity": 25,
                "duration": 0.0659,
                "tempo": 120.0
            },
            {
                "pitch": 46,
                "velocity": 25,
                "duration": 0.1682,
                "tempo": 120.0
            },
            {
                "pitch": 46,
                "velocity": 25,
                "duration": 0.0682,
                "tempo": 120.0
            },
            {
                "pitch": 46,
                "velocity": 25,
                "duration": 0.1705,
                "tempo": 120.0
            },
            {
                "pitch": 46,
                "velocity": 25,
                "duration": 0.0682,
                "tempo": 120.0
            },
            {
                "pitch": 46,
                "velocity": 25,
                "duration": 0.1682,
                "tempo": 120.0
            },
            {
                "pitch": 46,
                "velocity": 25,
                "duration": 0.0682,
                "tempo": 120.0
            },
            {
                "pitch": 44,
                "velocity": 25,
                "duration": 0.1682,
                "tempo": 120.0
            },
            {
                "pitch": 46,
                "velocity": 25,
                "duration": 0.0682,
                "tempo": 120.0
            },
            {
                "pitch": 46,
                "velocity": 25,
                "duration": 0.1659,
                "tempo": 120.0
            },
            {
                "pitch": 46,
                "velocity": 25,
                "duration": 0.0659,
                "tempo": 120.0
            },
            {
                "pitch": 46,
                "velocity": 25,
                "duration": 0.1682,
                "tempo": 120.0
            },
            {
                "pitch": 46,
                "velocity": 25,
                "duration": 0.0682,
                "tempo": 120.0
            },
            {
                "pitch": 46,
                "velocity": 25,
                "duration": 0.0659,
                "tempo": 120.0
            },
            {
                "pitch": 46,
                "velocity": 25,
                "duration": 0.0682,
                "tempo": 120.0
            },
            {
                "pitch": 46,
                "velocity": 25,
                "duration": 0.0659,
                "tempo": 120.0
            },
            {
                "pitch": 46,
                "velocity": 25,
                "duration": 0.1682,
                "tempo": 120.0
            },
            {
                "pitch": 46,
                "velocity": 25,
                "duration": 0.0682,
                "tempo": 120.0
            },
            {
                "pitch": 44,
                "velocity": 25,
                "duration": 0.1705,
                "tempo": 120.0
            },
            {
                "pitch": 44,
                "velocity": 25,
                "duration": 0.0659,
                "tempo": 120.0
            },
            {
                "pitch": 46,
                "velocity": 25,
                "duration": 0.1659,
                "tempo": 120.0
            },
            {
                "pitch": 46,
                "velocity": 25,
                "duration": 0.0659,
                "tempo": 120.0
            },
            {
                "pitch": 46,
                "velocity": 25,
                "duration": 0.0659,
                "tempo": 120.0
            },
            {
                "pitch": 46,
                "velocity": 25,
                "duration": 0.0659,
                "tempo": 120.0
            },
            {
                "pitch": 46,
                "velocity": 25,
                "duration": 0.0682,
                "tempo": 120.0
            },
            {
                "pitch": 46,
                "velocity": 25,
                "duration": 0.1682,
                "tempo": 120.0
            },
            {
                "pitch": 46,
                "velocity": 25,
                "duration": 0.0659,
                "tempo": 120.0
            },
            {
                "pitch": 46,
                "velocity": 25,
                "duration": 0.1659,
                "tempo": 120.0
            },
            {
                "pitch": 46,
                "velocity": 25,
                "duration": 0.0682,
                "tempo": 120.0
            },
            {
                "pitch": 46,
                "velocity": 25,
                "duration": 0.1682,
                "tempo": 120.0
            },
            {
                "pitch": 46,
                "velocity": 25,
                "duration": 0.0659,
                "tempo": 120.0
            },
            {
                "pitch": 46,
                "velocity": 25,
                "duration": 0.0659,
                "tempo": 120.0
            },
            {
                "pitch": 46,
                "velocity": 25,
                "duration": 0.0659,
                "tempo": 120.0
            },
            {
                "pitch": 46,
                "velocity": 25,
                "duration": 0.0659,
                "tempo": 120.0
            },
            {
                "pitch": 46,
                "velocity": 25,
                "duration": 0.1705,
                "tempo": 120.0
            },
            {
                "pitch": 46,
                "velocity": 25,
                "duration": 0.0682,
                "tempo": 120.0
            },
            {
                "pitch": 46,
                "velocity": 25,
                "duration": 0.1705,
                "tempo": 120.0
            },
            {
                "pitch": 46,
                "velocity": 25,
                "duration": 0.0682,
                "tempo": 120.0
            },
            {
                "pitch": 46,
                "velocity": 25,
                "duration": 0.1659,
                "tempo": 120.0
            },
            {
                "pitch": 46,
                "velocity": 25,
                "duration": 0.0682,
                "tempo": 120.0
            },
            {
                "pitch": 46,
                "velocity": 25,
                "duration": 0.1682,
                "tempo": 120.0
            },
            {
                "pitch": 46,
                "velocity": 25,
                "duration": 0.0659,
                "tempo": 120.0
            },
            {
                "pitch": 44,
                "velocity": 25,
                "duration": 0.1705,
                "tempo": 120.0
            },
            {
                "pitch": 46,
                "velocity": 25,
                "duration": 0.0682,
                "tempo": 120.0
            },
            {
                "pitch": 46,
                "velocity": 25,
                "duration": 0.1705,
                "tempo": 120.0
            },
            {
                "pitch": 46,
                "velocity": 25,
                "duration": 0.0682,
                "tempo": 120.0
            },
            {
                "pitch": 46,
                "velocity": 25,
                "duration": 0.1682,
                "tempo": 120.0
            },
            {
                "pitch": 46,
                "velocity": 25,
                "duration": 0.0659,
                "tempo": 120.0
            },
            {
                "pitch": 46,
                "velocity": 25,
                "duration": 0.0659,
                "tempo": 120.0
            },
            {
                "pitch": 46,
                "velocity": 25,
                "duration": 0.0659,
                "tempo": 120.0
            },
            {
                "pitch": 46,
                "velocity": 25,
                "duration": 0.0659,
                "tempo": 120.0
            },
            {
                "pitch": 46,
                "velocity": 25,
                "duration": 0.1682,
                "tempo": 120.0
            },
            {
                "pitch": 46,
                "velocity": 25,
                "duration": 0.0659,
                "tempo": 120.0
            },
            {
                "pitch": 48,
                "velocity": 25,
                "duration": 0.25,
                "tempo": 120.0
            },
            {
                "pitch": 48,
                "velocity": 25,
                "duration": 0.2568,
                "tempo": 120.0
            },
            {
                "pitch": 48,
                "velocity": 25,
                "duration": 0.1705,
                "tempo": 120.0
            },
            {
                "pitch": 48,
                "velocity": 25,
                "duration": 0.0682,
                "tempo": 120.0
            },
            {
                "pitch": 48,
                "velocity": 25,
                "duration": 0.25,
                "tempo": 120.0
            },
            {
                "pitch": 48,
                "velocity": 25,
                "duration": 0.1682,
                "tempo": 120.0
            },
            {
                "pitch": 48,
                "velocity": 25,
                "duration": 0.0659,
                "tempo": 120.0
            },
            {
                "pitch": 48,
                "velocity": 25,
                "duration": 0.1659,
                "tempo": 120.0
            },
            {
                "pitch": 48,
                "velocity": 25,
                "duration": 0.0659,
                "tempo": 120.0
            },
            {
                "pitch": 48,
                "velocity": 25,
                "duration": 0.1682,
                "tempo": 120.0
            },
            {
                "pitch": 48,
                "velocity": 25,
                "duration": 0.0682,
                "tempo": 120.0
            },
            {
                "pitch": 48,
                "velocity": 25,
                "duration": 0.2545,
                "tempo": 120.0
            },
            {
                "pitch": 53,
                "velocity": 25,
                "duration": 0.1864,
                "tempo": 120.0
            },
            {
                "pitch": 53,
                "velocity": 25,
                "duration": 0.0182,
                "tempo": 120.0
            }
        ]
    }
}