{
    "track_id": "Summer Games (FM) - 01 - Title Screen",
    "mood": "happy",
    "instruments": {
        "Acoustic Bass": [
            {
                "pitch": 37,
                "velocity": 32,
                "duration": 0.0773,
                "tempo": 120.0
            },
            {
                "pitch": 37,
                "velocity": 32,
                "duration": 0.0886,
                "tempo": 120.0
            },
            {
                "pitch": 49,
                "velocity": 32,
                "duration": 0.1364,
                "tempo": 120.0
            },
            {
                "pitch": 37,
                "velocity": 32,
                "duration": 0.1341,
                "tempo": 120.0
            },
            {
                "pitch": 37,
                "velocity": 32,
                "duration": 0.1341,
                "tempo": 120.0
            },
            {
                "pitch": 49,
                "velocity": 32,
                "duration": 0.1364,
                "tempo": 120.0
            },
            {
                "pitch": 37,
                "velocity": 32,
                "duration": 0.1318,
                "tempo": 120.0
            },
            {
                "pitch": 37,
                "velocity": 32,
                "duration": 0.1318,
                "tempo": 120.0
            },
            {
                "pitch": 49,
                "velocity": 32,
                "duration": 0.1318,
                "tempo": 120.0
            },
            {
                "pitch": 37,
                "velocity": 32,
                "duration": 0.1318,
                "tempo": 120.0
            },
            {
                "pitch": 37,
                "velocity": 32,
                "duration": 0.1364,
                "tempo": 120.0
            },
            {
                "pitch": 49,
                "velocity": 32,
                "duration": 0.1364,
                "tempo": 120.0
            },
            {
                "pitch": 37,
                "velocity": 32,
                "duration": 0.1364,
                "tempo": 120.0
            },
            {
                "pitch": 37,
                "velocity": 32,
                "duration": 0.1364,
                "tempo": 120.0
            },
            {
                "pitch": 49,
                "velocity": 32,
                "duration": 0.1341,
                "tempo": 120.0
            },
            {
                "pitch": 37,
                "velocity": 32,
                "duration": 0.1364,
                "tempo": 120.0
            },
            {
                "pitch": 35,
                "velocity": 32,
                "duration": 0.1341,
                "tempo": 120.0
            },
            {
                "pitch": 35,
                "velocity": 32,
                "duration": 0.1341,
                "tempo": 120.0
            },
            {
                "pitch": 47,
                "velocity": 32,
                "duration": 0.1364,
                "tempo": 120.0
            },
            {
                "pitch": 35,
                "velocity": 32,
                "duration": 0.1341,
                "tempo": 120.0
            },
            {
                "pitch": 35,
                "velocity": 32,
                "duration": 0.1341,
                "tempo": 120.0
            },
            {
                "pitch": 47,
                "velocity": 32,
                "duration": 0.1364,
                "tempo": 120.0
            },
            {
                "pitch": 35,
                "velocity": 32,
                "duration": 0.1341,
                "tempo": 120.0
            },
            {
                "pitch": 35,
                "velocity": 32,
                "duration": 0.1341,
                "tempo": 120.0
            },
            {
                "pitch": 35,
                "velocity": 32,
                "duration": 0.1341,
                "tempo": 120.0
            },
            {
                "pitch": 33,
                "velocity": 32,
                "duration": 0.2864,
                "tempo": 120.0
            },
            {
                "pitch": 33,
                "velocity": 32,
                "duration": 0.2909,
                "tempo": 120.0
            },
            {
                "pitch": 33,
                "velocity": 32,
                "duration": 0.1364,
                "tempo": 120.0
            },
            {
                "pitch": 35,
                "velocity": 32,
                "duration": 0.2818,
                "tempo": 120.0
            },
            {
                "pitch": 37,
                "velocity": 32,
                "duration": 0.1318,
                "tempo": 120.0
            },
            {
                "pitch": 37,
                "velocity": 32,
                "duration": 0.1341,
                "tempo": 120.0
            },
            {
                "pitch": 49,
                "velocity": 32,
                "duration": 0.1318,
                "tempo": 120.0
            },
            {
                "pitch": 37,
                "velocity": 32,
                "duration": 0.1318,
                "tempo": 120.0
            },
            {
                "pitch": 37,
                "velocity": 32,
                "duration": 0.1318,
                "tempo": 120.0
            },
            {
                "pitch": 49,
                "velocity": 32,
                "duration": 0.1318,
                "tempo": 120.0
            },
            {
                "pitch": 37,
                "velocity": 32,
                "duration": 0.1318,
                "tempo": 120.0
            },
            {
                "pitch": 37,
                "velocity": 32,
                "duration": 0.1318,
                "tempo": 120.0
            },
            {
                "pitch": 49,
                "velocity": 32,
                "duration": 0.1318,
                "tempo": 120.0
            },
            {
                "pitch": 37,
                "velocity": 32,
                "duration": 0.1318,
                "tempo": 120.0
            },
            {
                "pitch": 37,
                "velocity": 32,
                "duration": 0.1341,
                "tempo": 120.0
            },
            {
                "pitch": 49,
                "velocity": 32,
                "duration": 0.1341,
                "tempo": 120.0
            },
            {
                "pitch": 37,
                "velocity": 32,
                "duration": 0.1341,
                "tempo": 120.0
            },
            {
                "pitch": 37,
                "velocity": 32,
                "duration": 0.1341,
                "tempo": 120.0
            },
            {
                "pitch": 49,
                "velocity": 32,
                "duration": 0.1341,
                "tempo": 120.0
            },
            {
                "pitch": 37,
                "velocity": 32,
                "duration": 0.1364,
                "tempo": 120.0
            },
            {
                "pitch": 35,
                "velocity": 32,
                "duration": 0.1364,
                "tempo": 120.0
            },
            {
                "pitch": 35,
                "velocity": 32,
                "duration": 0.1341,
                "tempo": 120.0
            },
            {
                "pitch": 47,
                "velocity": 32,
                "duration": 0.1318,
                "tempo": 120.0
            },
            {
                "pitch": 35,
                "velocity": 32,
                "duration": 0.1318,
                "tempo": 120.0
            },
            {
                "pitch": 35,
                "velocity": 32,
                "duration": 0.1318,
                "tempo": 120.0
            },
            {
                "pitch": 47,
                "velocity": 32,
                "duration": 0.1318,
                "tempo": 120.0
            },
            {
                "pitch": 35,
                "velocity": 32,
                "duration": 0.1341,
                "tempo": 120.0
            },
            {
                "pitch": 35,
                "velocity": 32,
                "duration": 0.1341,
                "tempo": 120.0
            },
            {
                "pitch": 35,
                "velocity": 32,
                "duration": 0.1341,
                "tempo": 120.0
            },
            {
                "pitch": 35,
                "velocity": 32,
                "duration": 0.1341,
                "tempo": 120.0
            },
            {
                "pitch": 35,
                "velocity": 32,
                "duration": 0.1364,
                "tempo": 120.0
            },
            {
                "pitch": 47,
                "velocity": 32,
                "duration": 0.1341,
                "tempo": 120.0
            },
            {
                "pitch": 35,
                "velocity": 32,
                "duration": 0.05,
                "tempo": 120.0
            },
            {
                "pitch": 35,
                "velocity": 32,
                "duration": 0.0523,
                "tempo": 120.0
            },
            {
                "pitch": 35,
                "velocity": 32,
                "duration": 0.1364,
                "tempo": 120.0
            },
            {
                "pitch": 47,
                "velocity": 32,
                "duration": 0.1318,
                "tempo": 120.0
            },
            {
                "pitch": 35,
                "velocity": 32,
                "duration": 0.1318,
                "tempo": 120.0
            },
            {
                "pitch": 37,
                "velocity": 32,
                "duration": 0.1318,
                "tempo": 120.0
            },
            {
                "pitch": 37,
                "velocity": 32,
                "duration": 0.1318,
                "tempo": 120.0
            },
            {
                "pitch": 49,
                "velocity": 32,
                "duration": 0.1341,
                "tempo": 120.0
            },
            {
                "pitch": 37,
                "velocity": 32,
                "duration": 0.1341,
                "tempo": 120.0
            },
            {
                "pitch": 37,
                "velocity": 32,
                "duration": 0.1364,
                "tempo": 120.0
            },
            {
                "pitch": 49,
                "velocity": 32,
                "duration": 0.1341,
                "tempo": 120.0
            },
            {
                "pitch": 37,
                "velocity": 32,
                "duration": 0.1318,
                "tempo": 120.0
            },
            {
                "pitch": 37,
                "velocity": 32,
                "duration": 0.1318,
                "tempo": 120.0
            },
            {
                "pitch": 49,
                "velocity": 32,
                "duration": 0.1318,
                "tempo": 120.0
            },
            {
                "pitch": 37,
                "velocity": 32,
                "duration": 0.1318,
                "tempo": 120.0
            },
            {
                "pitch": 37,
                "velocity": 32,
                "duration": 0.1318,
                "tempo": 120.0
            },
            {
                "pitch": 49,
                "velocity": 32,
                "duration": 0.1318,
                "tempo": 120.0
            },
            {
                "pitch": 37,
                "velocity": 32,
                "duration": 0.1318,
                "tempo": 120.0
            },
            {
                "pitch": 37,
                "velocity": 32,
                "duration": 0.1318,
                "tempo": 120.0
            },
            {
                "pitch": 49,
                "velocity": 32,
                "duration": 0.1341,
                "tempo": 120.0
            },
            {
                "pitch": 37,
                "velocity": 32,
                "duration": 0.1364,
                "tempo": 120.0
            },
            {
                "pitch": 35,
                "velocity": 32,
                "duration": 0.1364,
                "tempo": 120.0
            },
            {
                "pitch": 35,
                "velocity": 32,
                "duration": 0.1341,
                "tempo": 120.0
            },
            {
                "pitch": 47,
                "velocity": 32,
                "duration": 0.1318,
                "tempo": 120.0
            },
            {
                "pitch": 35,
                "velocity": 32,
                "duration": 0.1318,
                "tempo": 120.0
            },
            {
                "pitch": 35,
                "velocity": 32,
                "duration": 0.1318,
                "tempo": 120.0
            },
            {
                "pitch": 47,
                "velocity": 32,
                "duration": 0.1318,
                "tempo": 120.0
            },
            {
                "pitch": 35,
                "velocity": 32,
                "duration": 0.1364,
                "tempo": 120.0
            },
            {
                "pitch": 35,
                "velocity": 32,
                "duration": 0.1341,
                "tempo": 120.0
            },
            {
                "pitch": 47,
                "velocity": 32,
                "duration": 0.1341,
                "tempo": 120.0
            },
            {
                "pitch": 35,
                "velocity": 32,
                "duration": 0.1364,
                "tempo": 120.0
            },
            {
                "pitch": 35,
                "velocity": 32,
                "duration": 0.1364,
                "tempo": 120.0
            },
            {
                "pitch": 47,
                "velocity": 32,
                "duration": 0.2886,
                "tempo": 120.0
            },
            {
                "pitch": 47,
                "velocity": 32,
                "duration": 0.1364,
                "tempo": 120.0
            },
            {
                "pitch": 47,
                "velocity": 32,
                "duration": 0.1341,
                "tempo": 120.0
            },
            {
                "pitch": 47,
                "velocity": 32,
                "duration": 0.1341,
                "tempo": 120.0
            },
            {
                "pitch": 33,
                "velocity": 32,
                "duration": 0.1341,
                "tempo": 120.0
            },
            {
                "pitch": 33,
                "velocity": 32,
                "duration": 0.1341,
                "tempo": 120.0
            },
            {
                "pitch": 33,
                "velocity": 32,
                "duration": 0.1341,
                "tempo": 120.0
            },
            {
                "pitch": 33,
                "velocity": 32,
                "duration": 0.1341,
                "tempo": 120.0
            },
            {
                "pitch": 33,
                "velocity": 32,
                "duration": 0.1341,
                "tempo": 120.0
            },
            {
                "pitch": 33,
                "velocity": 32,
                "duration": 0.1341,
                "tempo": 120.0
            },
            {
                "pitch": 45,
                "velocity": 32,
                "duration": 0.1318,
                "tempo": 120.0
            },
            {
                "pitch": 33,
                "velocity": 32,
                "duration": 0.1318,
                "tempo": 120.0
            },
            {
                "pitch": 35,
                "velocity": 32,
                "duration": 0.1318,
                "tempo": 120.0
            },
            {
                "pitch": 35,
                "velocity": 32,
                "duration": 0.1318,
                "tempo": 120.0
            },
            {
                "pitch": 35,
                "velocity": 32,
                "duration": 0.1364,
                "tempo": 120.0
            },
            {
                "pitch": 35,
                "velocity": 32,
                "duration": 0.1364,
                "tempo": 120.0
            },
            {
                "pitch": 35,
                "velocity": 32,
                "duration": 0.1364,
                "tempo": 120.0
            },
            {
                "pitch": 40,
                "velocity": 32,
                "duration": 0.1364,
                "tempo": 120.0
            },
            {
                "pitch": 42,
                "velocity": 32,
                "duration": 0.1341,
                "tempo": 120.0
            },
            {
                "pitch": 44,
                "velocity": 32,
                "duration": 0.1341,
                "tempo": 120.0
            },
            {
                "pitch": 37,
                "velocity": 32,
                "duration": 0.1341,
                "tempo": 120.0
            },
            {
                "pitch": 37,
                "velocity": 32,
                "duration": 0.1341,
                "tempo": 120.0
            },
            {
                "pitch": 49,
                "velocity": 32,
                "duration": 0.1318,
                "tempo": 120.0
            },
            {
                "pitch": 37,
                "velocity": 32,
                "duration": 0.1341,
                "tempo": 120.0
            },
            {
                "pitch": 37,
                "velocity": 32,
                "duration": 0.1318,
                "tempo": 120.0
            },
            {
                "pitch": 49,
                "velocity": 32,
                "duration": 0.1318,
                "tempo": 120.0
            },
            {
                "pitch": 37,
                "velocity": 32,
                "duration": 0.1364,
                "tempo": 120.0
            },
            {
                "pitch": 37,
                "velocity": 32,
                "duration": 0.1341,
                "tempo": 120.0
            },
            {
                "pitch": 37,
                "velocity": 32,
                "duration": 0.2864,
                "tempo": 120.0
            },
            {
                "pitch": 33,
                "velocity": 32,
                "duration": 0.2864,
                "tempo": 120.0
            },
            {
                "pitch": 35,
                "velocity": 32,
                "duration": 0.2886,
                "tempo": 120.0
            },
            {
                "pitch": 37,
                "velocity": 32,
                "duration": 0.1364,
                "tempo": 120.0
            },
            {
                "pitch": 37,
                "velocity": 32,
                "duration": 0.1364,
                "tempo": 120.0
            },
            {
                "pitch": 49,
                "velocity": 32,
                "duration": 0.1341,
                "tempo": 120.0
            },
            {
                "pitch": 37,
                "velocity": 32,
                "duration": 0.1341,
                "tempo": 120.0
            },
            {
                "pitch": 37,
                "velocity": 32,
                "duration": 0.1341,
                "tempo": 120.0
            },
            {
                "pitch": 49,
                "velocity": 32,
                "duration": 0.1341,
                "tempo": 120.0
            },
            {
                "pitch": 37,
                "velocity": 32,
                "duration": 0.1318,
                "tempo": 120.0
            },
            {
                "pitch": 37,
                "velocity": 32,
                "duration": 0.1318,
                "tempo": 120.0
            },
            {
                "pitch": 49,
                "velocity": 32,
                "duration": 0.1318,
                "tempo": 120.0
            },
            {
                "pitch": 37,
                "velocity": 32,
                "duration": 0.1318,
                "tempo": 120.0
            },
            {
                "pitch": 37,
                "velocity": 32,
                "duration": 0.1341,
                "tempo": 120.0
            },
            {
                "pitch": 49,
                "velocity": 32,
                "duration": 0.1364,
                "tempo": 120.0
            },
            {
                "pitch": 37,
                "velocity": 32,
                "duration": 0.1364,
                "tempo": 120.0
            },
            {
                "pitch": 37,
                "velocity": 32,
                "duration": 0.1341,
                "tempo": 120.0
            },
            {
                "pitch": 49,
                "velocity": 32,
                "duration": 0.1318,
                "tempo": 120.0
            },
            {
                "pitch": 37,
                "velocity": 32,
                "duration": 0.1318,
                "tempo": 120.0
            },
            {
                "pitch": 35,
                "velocity": 32,
                "duration": 0.1318,
                "tempo": 120.0
            },
            {
                "pitch": 35,
                "velocity": 32,
                "duration": 0.1318,
                "tempo": 120.0
            },
            {
                "pitch": 47,
                "velocity": 32,
                "duration": 0.1341,
                "tempo": 120.0
            },
            {
                "pitch": 35,
                "velocity": 32,
                "duration": 0.1341,
                "tempo": 120.0
            },
            {
                "pitch": 35,
                "velocity": 32,
                "duration": 0.1341,
                "tempo": 120.0
            },
            {
                "pitch": 47,
                "velocity": 32,
                "duration": 0.1341,
                "tempo": 120.0
            },
            {
                "pitch": 35,
                "velocity": 32,
                "duration": 0.1364,
                "tempo": 120.0
            },
            {
                "pitch": 35,
                "velocity": 32,
                "duration": 0.1341,
                "tempo": 120.0
            },
            {
                "pitch": 35,
                "velocity": 32,
                "duration": 0.1341,
                "tempo": 120.0
            },
            {
                "pitch": 33,
                "velocity": 32,
                "duration": 0.2886,
                "tempo": 120.0
            },
            {
                "pitch": 33,
                "velocity": 32,
                "duration": 0.2886,
                "tempo": 120.0
            },
            {
                "pitch": 33,
                "velocity": 32,
                "duration": 0.1364,
                "tempo": 120.0
            },
            {
                "pitch": 35,
                "velocity": 32,
                "duration": 0.2864,
                "tempo": 120.0
            },
            {
                "pitch": 37,
                "velocity": 32,
                "duration": 0.1341,
                "tempo": 120.0
            },
            {
                "pitch": 37,
                "velocity": 32,
                "duration": 0.1364,
                "tempo": 120.0
            },
            {
                "pitch": 49,
                "velocity": 32,
                "duration": 0.1318,
                "tempo": 120.0
            },
            {
                "pitch": 37,
                "velocity": 32,
                "duration": 0.1318,
                "tempo": 120.0
            },
            {
                "pitch": 37,
                "velocity": 32,
                "duration": 0.1318,
                "tempo": 120.0
            },
            {
                "pitch": 49,
                "velocity": 32,
                "duration": 0.1318,
                "tempo": 120.0
            },
            {
                "pitch": 37,
                "velocity": 32,
                "duration": 0.1341,
                "tempo": 120.0
            },
            {
                "pitch": 37,
                "velocity": 32,
                "duration": 0.1341,
                "tempo": 120.0
            },
            {
                "pitch": 49,
                "velocity": 32,
                "duration": 0.1341,
                "tempo": 120.0
            },
            {
                "pitch": 37,
                "velocity": 32,
                "duration": 0.1341,
                "tempo": 120.0
            },
            {
                "pitch": 37,
                "velocity": 32,
                "duration": 0.1364,
                "tempo": 120.0
            },
            {
                "pitch": 49,
                "velocity": 32,
                "duration": 0.1341,
                "tempo": 120.0
            },
            {
                "pitch": 37,
                "velocity": 32,
                "duration": 0.1341,
                "tempo": 120.0
            },
            {
                "pitch": 37,
                "velocity": 32,
                "duration": 0.1364,
                "tempo": 120.0
            },
            {
                "pitch": 49,
                "velocity": 32,
                "duration": 0.1341,
                "tempo": 120.0
            },
            {
                "pitch": 37,
                "velocity": 32,
                "duration": 0.1341,
                "tempo": 120.0
            },
            {
                "pitch": 35,
                "velocity": 32,
                "duration": 0.1341,
                "tempo": 120.0
            },
            {
                "pitch": 35,
                "velocity": 32,
                "duration": 0.1341,
                "tempo": 120.0
            },
            {
                "pitch": 47,
                "velocity": 32,
                "duration": 0.1341,
                "tempo": 120.0
            },
            {
                "pitch": 35,
                "velocity": 32,
                "duration": 0.1341,
                "tempo": 120.0
            },
            {
                "pitch": 35,
                "velocity": 32,
                "duration": 0.1364,
                "tempo": 120.0
            },
            {
                "pitch": 47,
                "velocity": 32,
                "duration": 0.1341,
                "tempo": 120.0
            },
            {
                "pitch": 35,
                "velocity": 32,
                "duration": 0.1341,
                "tempo": 120.0
            },
            {
                "pitch": 35,
                "velocity": 32,
                "duration": 0.1364,
                "tempo": 120.0
            },
            {
                "pitch": 35,
                "velocity": 32,
                "duration": 0.1341,
                "tempo": 120.0
            },
            {
                "pitch": 35,
                "velocity": 32,
                "duration": 0.1341,
                "tempo": 120.0
            },
            {
                "pitch": 35,
                "velocity": 32,
                "duration": 0.1364,
                "tempo": 120.0
            },
            {
                "pitch": 47,
                "velocity": 32,
                "duration": 0.1364,
                "tempo": 120.0
            },
            {
                "pitch": 35,
                "velocity": 32,
                "duration": 0.0523,
                "tempo": 120.0
            },
            {
                "pitch": 35,
                "velocity": 32,
                "duration": 0.0523,
                "tempo": 120.0
            },
            {
                "pitch": 35,
                "velocity": 32,
                "duration": 0.1364,
                "tempo": 120.0
            },
            {
                "pitch": 47,
                "velocity": 32,
                "duration": 0.1318,
                "tempo": 120.0
            },
            {
                "pitch": 35,
                "velocity": 32,
                "duration": 0.1318,
                "tempo": 120.0
            },
            {
                "pitch": 37,
                "velocity": 32,
                "duration": 0.1318,
                "tempo": 120.0
            },
            {
                "pitch": 37,
                "velocity": 32,
                "duration": 0.1318,
                "tempo": 120.0
            },
            {
                "pitch": 49,
                "velocity": 32,
                "duration": 0.1318,
                "tempo": 120.0
            },
            {
                "pitch": 37,
                "velocity": 32,
                "duration": 0.1318,
                "tempo": 120.0
            },
            {
                "pitch": 37,
                "velocity": 32,
                "duration": 0.1341,
                "tempo": 120.0
            },
            {
                "pitch": 49,
                "velocity": 32,
                "duration": 0.1318,
                "tempo": 120.0
            },
            {
                "pitch": 37,
                "velocity": 32,
                "duration": 0.1341,
                "tempo": 120.0
            },
            {
                "pitch": 37,
                "velocity": 32,
                "duration": 0.1341,
                "tempo": 120.0
            },
            {
                "pitch": 49,
                "velocity": 32,
                "duration": 0.1341,
                "tempo": 120.0
            },
            {
                "pitch": 37,
                "velocity": 32,
                "duration": 0.1341,
                "tempo": 120.0
            },
            {
                "pitch": 37,
                "velocity": 32,
                "duration": 0.1341,
                "tempo": 120.0
            },
            {
                "pitch": 49,
                "velocity": 32,
                "duration": 0.1341,
                "tempo": 120.0
            },
            {
                "pitch": 37,
                "velocity": 32,
                "duration": 0.1341,
                "tempo": 120.0
            },
            {
                "pitch": 37,
                "velocity": 32,
                "duration": 0.1341,
                "tempo": 120.0
            },
            {
                "pitch": 49,
                "velocity": 32,
                "duration": 0.1318,
                "tempo": 120.0
            },
            {
                "pitch": 37,
                "velocity": 32,
                "duration": 0.1318,
                "tempo": 120.0
            },
            {
                "pitch": 35,
                "velocity": 32,
                "duration": 0.1318,
                "tempo": 120.0
            },
            {
                "pitch": 35,
                "velocity": 32,
                "duration": 0.1318,
                "tempo": 120.0
            },
            {
                "pitch": 47,
                "velocity": 32,
                "duration": 0.1341,
                "tempo": 120.0
            },
            {
                "pitch": 35,
                "velocity": 32,
                "duration": 0.1364,
                "tempo": 120.0
            },
            {
                "pitch": 35,
                "velocity": 32,
                "duration": 0.1364,
                "tempo": 120.0
            },
            {
                "pitch": 47,
                "velocity": 32,
                "duration": 0.1341,
                "tempo": 120.0
            },
            {
                "pitch": 35,
                "velocity": 32,
                "duration": 0.1318,
                "tempo": 120.0
            },
            {
                "pitch": 35,
                "velocity": 32,
                "duration": 0.1318,
                "tempo": 120.0
            },
            {
                "pitch": 47,
                "velocity": 32,
                "duration": 0.1318,
                "tempo": 120.0
            },
            {
                "pitch": 35,
                "velocity": 32,
                "duration": 0.1318,
                "tempo": 120.0
            },
            {
                "pitch": 35,
                "velocity": 32,
                "duration": 0.1364,
                "tempo": 120.0
            },
            {
                "pitch": 47,
                "velocity": 32,
                "duration": 0.2909,
                "tempo": 120.0
            },
            {
                "pitch": 47,
                "velocity": 32,
                "duration": 0.1364,
                "tempo": 120.0
            },
            {
                "pitch": 47,
                "velocity": 32,
                "duration": 0.1364,
                "tempo": 120.0
            },
            {
                "pitch": 47,
                "velocity": 32,
                "duration": 0.1341,
                "tempo": 120.0
            },
            {
                "pitch": 33,
                "velocity": 32,
                "duration": 0.1341,
                "tempo": 120.0
            },
            {
                "pitch": 33,
                "velocity": 32,
                "duration": 0.1341,
                "tempo": 120.0
            },
            {
                "pitch": 33,
                "velocity": 32,
                "duration": 0.1341,
                "tempo": 120.0
            },
            {
                "pitch": 33,
                "velocity": 32,
                "duration": 0.1341,
                "tempo": 120.0
            },
            {
                "pitch": 33,
                "velocity": 32,
                "duration": 0.1341,
                "tempo": 120.0
            },
            {
                "pitch": 33,
                "velocity": 32,
                "duration": 0.1341,
                "tempo": 120.0
            },
            {
                "pitch": 45,
                "velocity": 32,
                "duration": 0.1341,
                "tempo": 120.0
            },
            {
                "pitch": 33,
                "velocity": 32,
                "duration": 0.1341,
                "tempo": 120.0
            },
            {
                "pitch": 35,
                "velocity": 32,
                "duration": 0.1341,
                "tempo": 120.0
            },
            {
                "pitch": 35,
                "velocity": 32,
                "duration": 0.1341,
                "tempo": 120.0
            },
            {
                "pitch": 35,
                "velocity": 32,
                "duration": 0.1341,
                "tempo": 120.0
            },
            {
                "pitch": 35,
                "velocity": 32,
                "duration": 0.1318,
                "tempo": 120.0
            },
            {
                "pitch": 35,
                "velocity": 32,
                "duration": 0.1318,
                "tempo": 120.0
            },
            {
                "pitch": 40,
                "velocity": 32,
                "duration": 0.1318,
                "tempo": 120.0
            },
            {
                "pitch": 42,
                "velocity": 32,
                "duration": 0.1364,
                "tempo": 120.0
            },
            {
                "pitch": 44,
                "velocity": 32,
                "duration": 0.1364,
                "tempo": 120.0
            },
            {
                "pitch": 37,
                "velocity": 32,
                "duration": 0.1364,
                "tempo": 120.0
            },
            {
                "pitch": 37,
                "velocity": 32,
                "duration": 0.1364,
                "tempo": 120.0
            },
            {
                "pitch": 49,
                "velocity": 32,
                "duration": 0.1318,
                "tempo": 120.0
            },
            {
                "pitch": 37,
                "velocity": 32,
                "duration": 0.1341,
                "tempo": 120.0
            },
            {
                "pitch": 37,
                "velocity": 32,
                "duration": 0.1318,
                "tempo": 120.0
            },
            {
                "pitch": 49,
                "velocity": 32,
                "duration": 0.1318,
                "tempo": 120.0
            },
            {
                "pitch": 37,
                "velocity": 32,
                "duration": 0.1341,
                "tempo": 120.0
            },
            {
                "pitch": 37,
                "velocity": 32,
                "duration": 0.1364,
                "tempo": 120.0
            },
            {
                "pitch": 37,
                "velocity": 32,
                "duration": 0.2886,
                "tempo": 120.0
            },
            {
                "pitch": 33,
                "velocity": 32,
                "duration": 0.2818,
                "tempo": 120.0
            },
            {
                "pitch": 35,
                "velocity": 32,
                "duration": 0.2864,
                "tempo": 120.0
            },
            {
                "pitch": 37,
                "velocity": 32,
                "duration": 0.1341,
                "tempo": 120.0
            },
            {
                "pitch": 37,
                "velocity": 32,
                "duration": 0.1341,
                "tempo": 120.0
            }
        ],
        "Oboe": [
            {
                "pitch": 65,
                "velocity": 25,
                "duration": 0.1773,
                "tempo": 120.0
            },
            {
                "pitch": 73,
                "velocity": 25,
                "duration": 0.4386,
                "tempo": 120.0
            },
            {
                "pitch": 75,
                "velocity": 25,
                "duration": 0.2841,
                "tempo": 120.0
            },
            {
                "pitch": 73,
                "velocity": 25,
                "duration": 0.1318,
                "tempo": 120.0
            },
            {
                "pitch": 77,
                "velocity": 25,
                "duration": 0.4318,
                "tempo": 120.0
            },
            {
                "pitch": 75,
                "velocity": 25,
                "duration": 0.4409,
                "tempo": 120.0
            },
            {
                "pitch": 73,
                "velocity": 25,
                "duration": 0.2864,
                "tempo": 120.0
            },
            {
                "pitch": 71,
                "velocity": 25,
                "duration": 0.4386,
                "tempo": 120.0
            },
            {
                "pitch": 71,
                "velocity": 25,
                "duration": 0.8886,
                "tempo": 120.0
            },
            {
                "pitch": 69,
                "velocity": 25,
                "duration": 0.2864,
                "tempo": 120.0
            },
            {
                "pitch": 69,
                "velocity": 25,
                "duration": 0.2909,
                "tempo": 120.0
            },
            {
                "pitch": 69,
                "velocity": 25,
                "duration": 0.1364,
                "tempo": 120.0
            },
            {
                "pitch": 71,
                "velocity": 25,
                "duration": 0.2818,
                "tempo": 120.0
            },
            {
                "pitch": 65,
                "velocity": 25,
                "duration": 0.2818,
                "tempo": 120.0
            },
            {
                "pitch": 73,
                "velocity": 25,
                "duration": 0.4318,
                "tempo": 120.0
            },
            {
                "pitch": 75,
                "velocity": 25,
                "duration": 0.2818,
                "tempo": 120.0
            },
            {
                "pitch": 73,
                "velocity": 25,
                "duration": 0.1318,
                "tempo": 120.0
            },
            {
                "pitch": 77,
                "velocity": 25,
                "duration": 0.4341,
                "tempo": 120.0
            },
            {
                "pitch": 75,
                "velocity": 25,
                "duration": 0.4364,
                "tempo": 120.0
            },
            {
                "pitch": 73,
                "velocity": 25,
                "duration": 0.2886,
                "tempo": 120.0
            },
            {
                "pitch": 71,
                "velocity": 25,
                "duration": 0.4386,
                "tempo": 120.0
            },
            {
                "pitch": 71,
                "velocity": 25,
                "duration": 0.7295,
                "tempo": 120.0
            },
            {
                "pitch": 80,
                "velocity": 25,
                "duration": 0.4364,
                "tempo": 120.0
            },
            {
                "pitch": 78,
                "velocity": 25,
                "duration": 0.6568,
                "tempo": 120.0
            },
            {
                "pitch": 65,
                "velocity": 25,
                "duration": 0.2818,
                "tempo": 120.0
            },
            {
                "pitch": 73,
                "velocity": 25,
                "duration": 0.4386,
                "tempo": 120.0
            },
            {
                "pitch": 75,
                "velocity": 25,
                "duration": 0.2841,
                "tempo": 120.0
            },
            {
                "pitch": 73,
                "velocity": 25,
                "duration": 0.1318,
                "tempo": 120.0
            },
            {
                "pitch": 77,
                "velocity": 25,
                "duration": 0.4318,
                "tempo": 120.0
            },
            {
                "pitch": 75,
                "velocity": 25,
                "duration": 0.4318,
                "tempo": 120.0
            },
            {
                "pitch": 73,
                "velocity": 25,
                "duration": 0.2886,
                "tempo": 120.0
            },
            {
                "pitch": 71,
                "velocity": 25,
                "duration": 0.4386,
                "tempo": 120.0
            },
            {
                "pitch": 71,
                "velocity": 25,
                "duration": 0.9,
                "tempo": 120.0
            },
            {
                "pitch": 73,
                "velocity": 25,
                "duration": 0.4341,
                "tempo": 120.0
            },
            {
                "pitch": 76,
                "velocity": 25,
                "duration": 0.7318,
                "tempo": 120.0
            },
            {
                "pitch": 75,
                "velocity": 25,
                "duration": 0.5864,
                "tempo": 120.0
            },
            {
                "pitch": 78,
                "velocity": 25,
                "duration": 0.5909,
                "tempo": 120.0
            },
            {
                "pitch": 77,
                "velocity": 25,
                "duration": 1.2477,
                "tempo": 120.0
            },
            {
                "pitch": 73,
                "velocity": 25,
                "duration": 0.2864,
                "tempo": 120.0
            },
            {
                "pitch": 75,
                "velocity": 25,
                "duration": 0.2886,
                "tempo": 120.0
            },
            {
                "pitch": 73,
                "velocity": 25,
                "duration": 0.0341,
                "tempo": 120.0
            },
            {
                "pitch": 80,
                "velocity": 25,
                "duration": 0.2795,
                "tempo": 120.0
            },
            {
                "pitch": 85,
                "velocity": 25,
                "duration": 0.1318,
                "tempo": 120.0
            },
            {
                "pitch": 83,
                "velocity": 25,
                "duration": 0.1341,
                "tempo": 120.0
            },
            {
                "pitch": 90,
                "velocity": 25,
                "duration": 0.1364,
                "tempo": 120.0
            },
            {
                "pitch": 89,
                "velocity": 25,
                "duration": 0.1364,
                "tempo": 120.0
            },
            {
                "pitch": 85,
                "velocity": 25,
                "duration": 0.2841,
                "tempo": 120.0
            },
            {
                "pitch": 85,
                "velocity": 25,
                "duration": 1.4841,
                "tempo": 120.0
            },
            {
                "pitch": 85,
                "velocity": 25,
                "duration": 0.2886,
                "tempo": 120.0
            },
            {
                "pitch": 85,
                "velocity": 25,
                "duration": 0.2886,
                "tempo": 120.0
            },
            {
                "pitch": 85,
                "velocity": 25,
                "duration": 0.1364,
                "tempo": 120.0
            },
            {
                "pitch": 87,
                "velocity": 25,
                "duration": 0.2364,
                "tempo": 120.0
            },
            {
                "pitch": 80,
                "velocity": 25,
                "duration": 0.1341,
                "tempo": 120.0
            },
            {
                "pitch": 85,
                "velocity": 25,
                "duration": 0.1341,
                "tempo": 120.0
            },
            {
                "pitch": 83,
                "velocity": 25,
                "duration": 0.1341,
                "tempo": 120.0
            },
            {
                "pitch": 90,
                "velocity": 25,
                "duration": 0.1364,
                "tempo": 120.0
            },
            {
                "pitch": 89,
                "velocity": 25,
                "duration": 0.2864,
                "tempo": 120.0
            },
            {
                "pitch": 80,
                "velocity": 25,
                "duration": 0.1364,
                "tempo": 120.0
            },
            {
                "pitch": 85,
                "velocity": 25,
                "duration": 0.1341,
                "tempo": 120.0
            },
            {
                "pitch": 83,
                "velocity": 25,
                "duration": 0.1341,
                "tempo": 120.0
            },
            {
                "pitch": 90,
                "velocity": 25,
                "duration": 0.1341,
                "tempo": 120.0
            },
            {
                "pitch": 89,
                "velocity": 25,
                "duration": 0.2841,
                "tempo": 120.0
            },
            {
                "pitch": 89,
                "velocity": 25,
                "duration": 0.2864,
                "tempo": 120.0
            },
            {
                "pitch": 87,
                "velocity": 25,
                "duration": 0.2864,
                "tempo": 120.0
            },
            {
                "pitch": 85,
                "velocity": 25,
                "duration": 0.8977,
                "tempo": 120.0
            },
            {
                "pitch": 85,
                "velocity": 25,
                "duration": 0.1364,
                "tempo": 120.0
            },
            {
                "pitch": 85,
                "velocity": 25,
                "duration": 0.1318,
                "tempo": 120.0
            },
            {
                "pitch": 83,
                "velocity": 25,
                "duration": 0.0818,
                "tempo": 120.0
            },
            {
                "pitch": 80,
                "velocity": 25,
                "duration": 0.1318,
                "tempo": 120.0
            },
            {
                "pitch": 85,
                "velocity": 25,
                "duration": 0.1341,
                "tempo": 120.0
            },
            {
                "pitch": 83,
                "velocity": 25,
                "duration": 0.1318,
                "tempo": 120.0
            },
            {
                "pitch": 90,
                "velocity": 25,
                "duration": 0.1341,
                "tempo": 120.0
            },
            {
                "pitch": 89,
                "velocity": 25,
                "duration": 0.0341,
                "tempo": 120.0
            },
            {
                "pitch": 80,
                "velocity": 25,
                "duration": 0.1341,
                "tempo": 120.0
            },
            {
                "pitch": 85,
                "velocity": 25,
                "duration": 0.1341,
                "tempo": 120.0
            },
            {
                "pitch": 83,
                "velocity": 25,
                "duration": 0.1341,
                "tempo": 120.0
            },
            {
                "pitch": 90,
                "velocity": 25,
                "duration": 0.1318,
                "tempo": 120.0
            },
            {
                "pitch": 89,
                "velocity": 25,
                "duration": 0.0818,
                "tempo": 120.0
            },
            {
                "pitch": 85,
                "velocity": 25,
                "duration": 0.1364,
                "tempo": 120.0
            },
            {
                "pitch": 83,
                "velocity": 25,
                "duration": 0.1364,
                "tempo": 120.0
            },
            {
                "pitch": 80,
                "velocity": 25,
                "duration": 0.1341,
                "tempo": 120.0
            },
            {
                "pitch": 90,
                "velocity": 25,
                "duration": 0.1318,
                "tempo": 120.0
            },
            {
                "pitch": 89,
                "velocity": 25,
                "duration": 0.2818,
                "tempo": 120.0
            },
            {
                "pitch": 85,
                "velocity": 25,
                "duration": 0.1318,
                "tempo": 120.0
            },
            {
                "pitch": 83,
                "velocity": 25,
                "duration": 0.1364,
                "tempo": 120.0
            },
            {
                "pitch": 85,
                "velocity": 25,
                "duration": 0.2909,
                "tempo": 120.0
            },
            {
                "pitch": 80,
                "velocity": 25,
                "duration": 0.2386,
                "tempo": 120.0
            },
            {
                "pitch": 80,
                "velocity": 25,
                "duration": 0.1341,
                "tempo": 120.0
            },
            {
                "pitch": 85,
                "velocity": 25,
                "duration": 0.1341,
                "tempo": 120.0
            },
            {
                "pitch": 83,
                "velocity": 25,
                "duration": 0.1341,
                "tempo": 120.0
            },
            {
                "pitch": 90,
                "velocity": 25,
                "duration": 0.5886,
                "tempo": 120.0
            },
            {
                "pitch": 90,
                "velocity": 25,
                "duration": 0.5841,
                "tempo": 120.0
            },
            {
                "pitch": 83,
                "velocity": 25,
                "duration": 0.5864,
                "tempo": 120.0
            },
            {
                "pitch": 92,
                "velocity": 25,
                "duration": 1.1909,
                "tempo": 120.0
            },
            {
                "pitch": 65,
                "velocity": 25,
                "duration": 0.2841,
                "tempo": 120.0
            }
        ],
        "Church Organ": [
            {
                "pitch": 60,
                "velocity": 25,
                "duration": 0.0114,
                "tempo": 120.0
            },
            {
                "pitch": 61,
                "velocity": 25,
                "duration": 0.1545,
                "tempo": 120.0
            },
            {
                "pitch": 61,
                "velocity": 25,
                "duration": 0.0455,
                "tempo": 120.0
            },
            {
                "pitch": 77,
                "velocity": 25,
                "duration": 0.4364,
                "tempo": 120.0
            },
            {
                "pitch": 78,
                "velocity": 25,
                "duration": 0.2818,
                "tempo": 120.0
            },
            {
                "pitch": 77,
                "velocity": 25,
                "duration": 0.1318,
                "tempo": 120.0
            },
            {
                "pitch": 80,
                "velocity": 25,
                "duration": 0.4341,
                "tempo": 120.0
            },
            {
                "pitch": 78,
                "velocity": 25,
                "duration": 0.4432,
                "tempo": 120.0
            },
            {
                "pitch": 77,
                "velocity": 25,
                "duration": 0.2864,
                "tempo": 120.0
            },
            {
                "pitch": 75,
                "velocity": 25,
                "duration": 0.0523,
                "tempo": 120.0
            },
            {
                "pitch": 75,
                "velocity": 25,
                "duration": 0.8886,
                "tempo": 120.0
            },
            {
                "pitch": 73,
                "velocity": 25,
                "duration": 0.2864,
                "tempo": 120.0
            },
            {
                "pitch": 73,
                "velocity": 25,
                "duration": 0.2886,
                "tempo": 120.0
            },
            {
                "pitch": 73,
                "velocity": 25,
                "duration": 0.1341,
                "tempo": 120.0
            },
            {
                "pitch": 75,
                "velocity": 25,
                "duration": 0.1818,
                "tempo": 120.0
            },
            {
                "pitch": 77,
                "velocity": 25,
                "duration": 0.1,
                "tempo": 120.0
            },
            {
                "pitch": 78,
                "velocity": 25,
                "duration": 0.2818,
                "tempo": 120.0
            },
            {
                "pitch": 77,
                "velocity": 25,
                "duration": 0.1318,
                "tempo": 120.0
            },
            {
                "pitch": 80,
                "velocity": 25,
                "duration": 0.1318,
                "tempo": 120.0
            },
            {
                "pitch": 78,
                "velocity": 25,
                "duration": 0.4364,
                "tempo": 120.0
            },
            {
                "pitch": 77,
                "velocity": 25,
                "duration": 0.2886,
                "tempo": 120.0
            },
            {
                "pitch": 83,
                "velocity": 25,
                "duration": 0.4364,
                "tempo": 120.0
            },
            {
                "pitch": 83,
                "velocity": 25,
                "duration": 0.7295,
                "tempo": 120.0
            },
            {
                "pitch": 87,
                "velocity": 25,
                "duration": 0.4364,
                "tempo": 120.0
            },
            {
                "pitch": 83,
                "velocity": 25,
                "duration": 0.7386,
                "tempo": 120.0
            },
            {
                "pitch": 61,
                "velocity": 25,
                "duration": 0.2818,
                "tempo": 120.0
            },
            {
                "pitch": 77,
                "velocity": 25,
                "duration": 0.4386,
                "tempo": 120.0
            },
            {
                "pitch": 78,
                "velocity": 25,
                "duration": 0.2841,
                "tempo": 120.0
            },
            {
                "pitch": 77,
                "velocity": 25,
                "duration": 0.1318,
                "tempo": 120.0
            },
            {
                "pitch": 80,
                "velocity": 25,
                "duration": 0.4318,
                "tempo": 120.0
            },
            {
                "pitch": 78,
                "velocity": 25,
                "duration": 0.4318,
                "tempo": 120.0
            },
            {
                "pitch": 77,
                "velocity": 25,
                "duration": 0.2886,
                "tempo": 120.0
            },
            {
                "pitch": 75,
                "velocity": 25,
                "duration": 0.05,
                "tempo": 120.0
            },
            {
                "pitch": 78,
                "velocity": 25,
                "duration": 0.4386,
                "tempo": 120.0
            },
            {
                "pitch": 77,
                "velocity": 25,
                "duration": 0.4409,
                "tempo": 120.0
            },
            {
                "pitch": 75,
                "velocity": 25,
                "duration": 0.2841,
                "tempo": 120.0
            },
            {
                "pitch": 76,
                "velocity": 25,
                "duration": 0.4341,
                "tempo": 120.0
            },
            {
                "pitch": 80,
                "velocity": 25,
                "duration": 0.7318,
                "tempo": 120.0
            },
            {
                "pitch": 78,
                "velocity": 25,
                "duration": 0.5864,
                "tempo": 120.0
            },
            {
                "pitch": 81,
                "velocity": 25,
                "duration": 0.5886,
                "tempo": 120.0
            },
            {
                "pitch": 80,
                "velocity": 25,
                "duration": 1.2477,
                "tempo": 120.0
            },
            {
                "pitch": 76,
                "velocity": 25,
                "duration": 0.2864,
                "tempo": 120.0
            },
            {
                "pitch": 78,
                "velocity": 25,
                "duration": 0.2886,
                "tempo": 120.0
            },
            {
                "pitch": 80,
                "velocity": 25,
                "duration": 0.1364,
                "tempo": 120.0
            },
            {
                "pitch": 80,
                "velocity": 25,
                "duration": 0.1364,
                "tempo": 120.0
            },
            {
                "pitch": 85,
                "velocity": 25,
                "duration": 0.1341,
                "tempo": 120.0
            },
            {
                "pitch": 83,
                "velocity": 25,
                "duration": 0.1341,
                "tempo": 120.0
            },
            {
                "pitch": 90,
                "velocity": 25,
                "duration": 0.1341,
                "tempo": 120.0
            },
            {
                "pitch": 89,
                "velocity": 25,
                "duration": 0.2818,
                "tempo": 120.0
            },
            {
                "pitch": 85,
                "velocity": 25,
                "duration": 1.0409,
                "tempo": 120.0
            },
            {
                "pitch": 83,
                "velocity": 25,
                "duration": 0.1318,
                "tempo": 120.0
            },
            {
                "pitch": 85,
                "velocity": 25,
                "duration": 0.1318,
                "tempo": 120.0
            },
            {
                "pitch": 87,
                "velocity": 25,
                "duration": 0.4318,
                "tempo": 120.0
            },
            {
                "pitch": 83,
                "velocity": 25,
                "duration": 1.3977,
                "tempo": 120.0
            },
            {
                "pitch": 80,
                "velocity": 25,
                "duration": 0.1318,
                "tempo": 120.0
            },
            {
                "pitch": 83,
                "velocity": 25,
                "duration": 0.1318,
                "tempo": 120.0
            },
            {
                "pitch": 85,
                "velocity": 25,
                "duration": 0.1341,
                "tempo": 120.0
            },
            {
                "pitch": 83,
                "velocity": 25,
                "duration": 0.2818,
                "tempo": 120.0
            },
            {
                "pitch": 90,
                "velocity": 25,
                "duration": 0.2841,
                "tempo": 120.0
            },
            {
                "pitch": 89,
                "velocity": 25,
                "duration": 0.5886,
                "tempo": 120.0
            },
            {
                "pitch": 89,
                "velocity": 25,
                "duration": 0.4341,
                "tempo": 120.0
            },
            {
                "pitch": 92,
                "velocity": 25,
                "duration": 0.4364,
                "tempo": 120.0
            },
            {
                "pitch": 90,
                "velocity": 25,
                "duration": 0.8932,
                "tempo": 120.0
            },
            {
                "pitch": 83,
                "velocity": 25,
                "duration": 0.1341,
                "tempo": 120.0
            },
            {
                "pitch": 85,
                "velocity": 25,
                "duration": 0.1364,
                "tempo": 120.0
            },
            {
                "pitch": 80,
                "velocity": 25,
                "duration": 0.7409,
                "tempo": 120.0
            },
            {
                "pitch": 90,
                "velocity": 25,
                "duration": 0.05,
                "tempo": 120.0
            },
            {
                "pitch": 89,
                "velocity": 25,
                "duration": 0.05,
                "tempo": 120.0
            },
            {
                "pitch": 87,
                "velocity": 25,
                "duration": 0.1318,
                "tempo": 120.0
            },
            {
                "pitch": 85,
                "velocity": 25,
                "duration": 0.1318,
                "tempo": 120.0
            },
            {
                "pitch": 87,
                "velocity": 25,
                "duration": 0.05,
                "tempo": 120.0
            },
            {
                "pitch": 87,
                "velocity": 25,
                "duration": 0.1159,
                "tempo": 120.0
            },
            {
                "pitch": 83,
                "velocity": 25,
                "duration": 0.1136,
                "tempo": 120.0
            },
            {
                "pitch": 85,
                "velocity": 25,
                "duration": 0.05,
                "tempo": 120.0
            },
            {
                "pitch": 85,
                "velocity": 25,
                "duration": 0.1364,
                "tempo": 120.0
            },
            {
                "pitch": 80,
                "velocity": 25,
                "duration": 0.1341,
                "tempo": 120.0
            },
            {
                "pitch": 83,
                "velocity": 25,
                "duration": 0.4364,
                "tempo": 120.0
            },
            {
                "pitch": 78,
                "velocity": 25,
                "duration": 0.4364,
                "tempo": 120.0
            },
            {
                "pitch": 80,
                "velocity": 25,
                "duration": 0.4318,
                "tempo": 120.0
            },
            {
                "pitch": 73,
                "velocity": 25,
                "duration": 0.1318,
                "tempo": 120.0
            },
            {
                "pitch": 71,
                "velocity": 25,
                "duration": 0.1364,
                "tempo": 120.0
            },
            {
                "pitch": 73,
                "velocity": 25,
                "duration": 0.1364,
                "tempo": 120.0
            },
            {
                "pitch": 75,
                "velocity": 25,
                "duration": 0.1341,
                "tempo": 120.0
            },
            {
                "pitch": 73,
                "velocity": 25,
                "duration": 0.2841,
                "tempo": 120.0
            },
            {
                "pitch": 78,
                "velocity": 25,
                "duration": 0.2795,
                "tempo": 120.0
            },
            {
                "pitch": 77,
                "velocity": 25,
                "duration": 0.1318,
                "tempo": 120.0
            },
            {
                "pitch": 73,
                "velocity": 25,
                "duration": 0.3568,
                "tempo": 120.0
            },
            {
                "pitch": 83,
                "velocity": 25,
                "duration": 0.05,
                "tempo": 120.0
            },
            {
                "pitch": 85,
                "velocity": 25,
                "duration": 0.05,
                "tempo": 120.0
            },
            {
                "pitch": 80,
                "velocity": 25,
                "duration": 0.1364,
                "tempo": 120.0
            },
            {
                "pitch": 80,
                "velocity": 25,
                "duration": 0.1341,
                "tempo": 120.0
            },
            {
                "pitch": 83,
                "velocity": 25,
                "duration": 0.1341,
                "tempo": 120.0
            },
            {
                "pitch": 85,
                "velocity": 25,
                "duration": 0.2864,
                "tempo": 120.0
            },
            {
                "pitch": 90,
                "velocity": 25,
                "duration": 0.7341,
                "tempo": 120.0
            },
            {
                "pitch": 92,
                "velocity": 25,
                "duration": 0.5864,
                "tempo": 120.0
            },
            {
                "pitch": 89,
                "velocity": 25,
                "duration": 1.1886,
                "tempo": 120.0
            },
            {
                "pitch": 61,
                "velocity": 25,
                "duration": 0.2341,
                "tempo": 120.0
            }
        ]
    }
}