{
    "track_id": "Summer Games (FM) - 05 - 100m Dash",
    "mood": "happy",
    "instruments": {
        "Trumpet": [
            {
                "pitch": 60,
                "velocity": 25,
                "duration": 0.1795,
                "tempo": 120.0
            },
            {
                "pitch": 72,
                "velocity": 25,
                "duration": 0.05,
                "tempo": 120.0
            },
            {
                "pitch": 72,
                "velocity": 25,
                "duration": 0.0841,
                "tempo": 120.0
            },
            {
                "pitch": 70,
                "velocity": 25,
                "duration": 0.0864,
                "tempo": 120.0
            },
            {
                "pitch": 70,
                "velocity": 25,
                "duration": 0.2068,
                "tempo": 120.0
            },
            {
                "pitch": 70,
                "velocity": 25,
                "duration": 0.0955,
                "tempo": 120.0
            },
            {
                "pitch": 72,
                "velocity": 25,
                "duration": 0.1705,
                "tempo": 120.0
            },
            {
                "pitch": 72,
                "velocity": 25,
                "duration": 0.0318,
                "tempo": 120.0
            },
            {
                "pitch": 70,
                "velocity": 25,
                "duration": 0.3341,
                "tempo": 120.0
            },
            {
                "pitch": 68,
                "velocity": 25,
                "duration": 0.3523,
                "tempo": 120.0
            },
            {
                "pitch": 68,
                "velocity": 25,
                "duration": 0.2205,
                "tempo": 120.0
            },
            {
                "pitch": 68,
                "velocity": 25,
                "duration": 0.1023,
                "tempo": 120.0
            },
            {
                "pitch": 70,
                "velocity": 25,
                "duration": 0.4591,
                "tempo": 120.0
            },
            {
                "pitch": 72,
                "velocity": 25,
                "duration": 0.0659,
                "tempo": 120.0
            },
            {
                "pitch": 70,
                "velocity": 25,
                "duration": 0.3341,
                "tempo": 120.0
            },
            {
                "pitch": 70,
                "velocity": 25,
                "duration": 0.35,
                "tempo": 120.0
            },
            {
                "pitch": 70,
                "velocity": 25,
                "duration": 0.2205,
                "tempo": 120.0
            },
            {
                "pitch": 70,
                "velocity": 25,
                "duration": 0.1,
                "tempo": 120.0
            },
            {
                "pitch": 72,
                "velocity": 25,
                "duration": 0.4614,
                "tempo": 120.0
            },
            {
                "pitch": 72,
                "velocity": 25,
                "duration": 0.0818,
                "tempo": 120.0
            },
            {
                "pitch": 72,
                "velocity": 25,
                "duration": 0.3341,
                "tempo": 120.0
            },
            {
                "pitch": 77,
                "velocity": 25,
                "duration": 0.3409,
                "tempo": 120.0
            },
            {
                "pitch": 77,
                "velocity": 25,
                "duration": 0.5932,
                "tempo": 120.0
            },
            {
                "pitch": 60,
                "velocity": 25,
                "duration": 0.2227,
                "tempo": 120.0
            },
            {
                "pitch": 72,
                "velocity": 25,
                "duration": 0.0659,
                "tempo": 120.0
            },
            {
                "pitch": 72,
                "velocity": 25,
                "duration": 0.3409,
                "tempo": 120.0
            },
            {
                "pitch": 70,
                "velocity": 25,
                "duration": 0.325,
                "tempo": 120.0
            },
            {
                "pitch": 70,
                "velocity": 25,
                "duration": 0.2386,
                "tempo": 120.0
            },
            {
                "pitch": 70,
                "velocity": 25,
                "duration": 0.1023,
                "tempo": 120.0
            },
            {
                "pitch": 72,
                "velocity": 25,
                "duration": 0.4705,
                "tempo": 120.0
            },
            {
                "pitch": 72,
                "velocity": 25,
                "duration": 0.3341,
                "tempo": 120.0
            },
            {
                "pitch": 72,
                "velocity": 25,
                "duration": 0.3568,
                "tempo": 120.0
            },
            {
                "pitch": 70,
                "velocity": 25,
                "duration": 0.3386,
                "tempo": 120.0
            },
            {
                "pitch": 70,
                "velocity": 25,
                "duration": 0.5636,
                "tempo": 120.0
            },
            {
                "pitch": 70,
                "velocity": 25,
                "duration": 0.3341,
                "tempo": 120.0
            },
            {
                "pitch": 70,
                "velocity": 25,
                "duration": 0.7114,
                "tempo": 120.0
            },
            {
                "pitch": 70,
                "velocity": 25,
                "duration": 0.2386,
                "tempo": 120.0
            },
            {
                "pitch": 70,
                "velocity": 25,
                "duration": 0.2182,
                "tempo": 120.0
            },
            {
                "pitch": 70,
                "velocity": 25,
                "duration": 0.1,
                "tempo": 120.0
            },
            {
                "pitch": 70,
                "velocity": 25,
                "duration": 0.2295,
                "tempo": 120.0
            },
            {
                "pitch": 72,
                "velocity": 25,
                "duration": 1.0523,
                "tempo": 120.0
            },
            {
                "pitch": 71,
                "velocity": 25,
                "duration": 1.0614,
                "tempo": 120.0
            },
            {
                "pitch": 72,
                "velocity": 25,
                "duration": 0.2886,
                "tempo": 120.0
            },
            {
                "pitch": 72,
                "velocity": 25,
                "duration": 0.2295,
                "tempo": 120.0
            },
            {
                "pitch": 72,
                "velocity": 25,
                "duration": 0.1023,
                "tempo": 120.0
            },
            {
                "pitch": 70,
                "velocity": 25,
                "duration": 0.3409,
                "tempo": 120.0
            },
            {
                "pitch": 70,
                "velocity": 25,
                "duration": 0.2182,
                "tempo": 120.0
            },
            {
                "pitch": 70,
                "velocity": 25,
                "duration": 0.1182,
                "tempo": 120.0
            },
            {
                "pitch": 72,
                "velocity": 25,
                "duration": 0.0659,
                "tempo": 120.0
            },
            {
                "pitch": 70,
                "velocity": 25,
                "duration": 0.1182,
                "tempo": 120.0
            },
            {
                "pitch": 68,
                "velocity": 25,
                "duration": 0.3205,
                "tempo": 120.0
            },
            {
                "pitch": 68,
                "velocity": 25,
                "duration": 0.2568,
                "tempo": 120.0
            },
            {
                "pitch": 68,
                "velocity": 25,
                "duration": 0.1182,
                "tempo": 120.0
            },
            {
                "pitch": 68,
                "velocity": 25,
                "duration": 1.1773,
                "tempo": 120.0
            },
            {
                "pitch": 48,
                "velocity": 25,
                "duration": 0.2364,
                "tempo": 120.0
            },
            {
                "pitch": 72,
                "velocity": 25,
                "duration": 0.0841,
                "tempo": 120.0
            },
            {
                "pitch": 70,
                "velocity": 25,
                "duration": 0.3727,
                "tempo": 120.0
            },
            {
                "pitch": 72,
                "velocity": 25,
                "duration": 0.2205,
                "tempo": 120.0
            },
            {
                "pitch": 75,
                "velocity": 25,
                "duration": 0.1909,
                "tempo": 120.0
            },
            {
                "pitch": 75,
                "velocity": 25,
                "duration": 0.0955,
                "tempo": 120.0
            },
            {
                "pitch": 70,
                "velocity": 25,
                "duration": 0.35,
                "tempo": 120.0
            },
            {
                "pitch": 72,
                "velocity": 25,
                "duration": 0.3386,
                "tempo": 120.0
            },
            {
                "pitch": 72,
                "velocity": 25,
                "duration": 0.2182,
                "tempo": 120.0
            },
            {
                "pitch": 72,
                "velocity": 25,
                "duration": 0.1,
                "tempo": 120.0
            },
            {
                "pitch": 72,
                "velocity": 25,
                "duration": 0.2182,
                "tempo": 120.0
            },
            {
                "pitch": 77,
                "velocity": 25,
                "duration": 0.3523,
                "tempo": 120.0
            },
            {
                "pitch": 77,
                "velocity": 25,
                "duration": 0.3409,
                "tempo": 120.0
            },
            {
                "pitch": 72,
                "velocity": 25,
                "duration": 0.4614,
                "tempo": 120.0
            },
            {
                "pitch": 72,
                "velocity": 25,
                "duration": 0.1,
                "tempo": 120.0
            },
            {
                "pitch": 72,
                "velocity": 25,
                "duration": 0.1023,
                "tempo": 120.0
            },
            {
                "pitch": 72,
                "velocity": 25,
                "duration": 0.3205,
                "tempo": 120.0
            },
            {
                "pitch": 72,
                "velocity": 25,
                "duration": 0.2182,
                "tempo": 120.0
            },
            {
                "pitch": 72,
                "velocity": 25,
                "duration": 0.1,
                "tempo": 120.0
            },
            {
                "pitch": 72,
                "velocity": 25,
                "duration": 0.2227,
                "tempo": 120.0
            },
            {
                "pitch": 70,
                "velocity": 25,
                "duration": 0.3182,
                "tempo": 120.0
            },
            {
                "pitch": 68,
                "velocity": 25,
                "duration": 0.2409,
                "tempo": 120.0
            },
            {
                "pitch": 68,
                "velocity": 25,
                "duration": 0.0977,
                "tempo": 120.0
            },
            {
                "pitch": 68,
                "velocity": 25,
                "duration": 1.0614,
                "tempo": 120.0
            },
            {
                "pitch": 70,
                "velocity": 25,
                "duration": 0.0682,
                "tempo": 120.0
            },
            {
                "pitch": 70,
                "velocity": 25,
                "duration": 0.1977,
                "tempo": 120.0
            },
            {
                "pitch": 70,
                "velocity": 25,
                "duration": 0.0955,
                "tempo": 120.0
            },
            {
                "pitch": 70,
                "velocity": 25,
                "duration": 0.4295,
                "tempo": 120.0
            },
            {
                "pitch": 70,
                "velocity": 25,
                "duration": 0.475,
                "tempo": 120.0
            },
            {
                "pitch": 72,
                "velocity": 25,
                "duration": 0.3523,
                "tempo": 120.0
            },
            {
                "pitch": 72,
                "velocity": 25,
                "duration": 0.2182,
                "tempo": 120.0
            },
            {
                "pitch": 72,
                "velocity": 25,
                "duration": 0.1182,
                "tempo": 120.0
            },
            {
                "pitch": 72,
                "velocity": 25,
                "duration": 0.1364,
                "tempo": 120.0
            },
            {
                "pitch": 77,
                "velocity": 25,
                "duration": 0.2295,
                "tempo": 120.0
            },
            {
                "pitch": 75,
                "velocity": 25,
                "duration": 0.2136,
                "tempo": 120.0
            },
            {
                "pitch": 72,
                "velocity": 25,
                "duration": 0.4705,
                "tempo": 120.0
            },
            {
                "pitch": 72,
                "velocity": 25,
                "duration": 0.3364,
                "tempo": 120.0
            },
            {
                "pitch": 72,
                "velocity": 25,
                "duration": 1.15,
                "tempo": 120.0
            },
            {
                "pitch": 70,
                "velocity": 25,
                "duration": 0.1,
                "tempo": 120.0
            },
            {
                "pitch": 70,
                "velocity": 25,
                "duration": 0.2318,
                "tempo": 120.0
            },
            {
                "pitch": 70,
                "velocity": 25,
                "duration": 1.1205,
                "tempo": 120.0
            },
            {
                "pitch": 72,
                "velocity": 25,
                "duration": 0.2227,
                "tempo": 120.0
            },
            {
                "pitch": 72,
                "velocity": 25,
                "duration": 0.1,
                "tempo": 120.0
            },
            {
                "pitch": 72,
                "velocity": 25,
                "duration": 0.2136,
                "tempo": 120.0
            },
            {
                "pitch": 72,
                "velocity": 25,
                "duration": 0.3341,
                "tempo": 120.0
            },
            {
                "pitch": 73,
                "velocity": 25,
                "duration": 0.1,
                "tempo": 120.0
            },
            {
                "pitch": 73,
                "velocity": 25,
                "duration": 0.05,
                "tempo": 120.0
            },
            {
                "pitch": 73,
                "velocity": 25,
                "duration": 0.35,
                "tempo": 120.0
            },
            {
                "pitch": 75,
                "velocity": 25,
                "duration": 0.3295,
                "tempo": 120.0
            },
            {
                "pitch": 75,
                "velocity": 25,
                "duration": 1.0705,
                "tempo": 120.0
            },
            {
                "pitch": 75,
                "velocity": 25,
                "duration": 0.2205,
                "tempo": 120.0
            },
            {
                "pitch": 75,
                "velocity": 25,
                "duration": 0.2045,
                "tempo": 120.0
            },
            {
                "pitch": 72,
                "velocity": 25,
                "duration": 0.0795,
                "tempo": 120.0
            },
            {
                "pitch": 72,
                "velocity": 25,
                "duration": 0.2136,
                "tempo": 120.0
            },
            {
                "pitch": 72,
                "velocity": 25,
                "duration": 0.9591,
                "tempo": 120.0
            },
            {
                "pitch": 68,
                "velocity": 25,
                "duration": 0.3409,
                "tempo": 120.0
            },
            {
                "pitch": 73,
                "velocity": 25,
                "duration": 0.2182,
                "tempo": 120.0
            },
            {
                "pitch": 73,
                "velocity": 25,
                "duration": 0.9455,
                "tempo": 120.0
            },
            {
                "pitch": 70,
                "velocity": 25,
                "duration": 0.3409,
                "tempo": 120.0
            },
            {
                "pitch": 75,
                "velocity": 25,
                "duration": 0.3568,
                "tempo": 120.0
            },
            {
                "pitch": 75,
                "velocity": 25,
                "duration": 0.3341,
                "tempo": 120.0
            },
            {
                "pitch": 75,
                "velocity": 25,
                "duration": 0.3295,
                "tempo": 120.0
            },
            {
                "pitch": 72,
                "velocity": 25,
                "duration": 0.2159,
                "tempo": 120.0
            },
            {
                "pitch": 72,
                "velocity": 25,
                "duration": 0.9455,
                "tempo": 120.0
            }
        ],
        "Electric Guitar (clean)": [
            {
                "pitch": 60,
                "velocity": 25,
                "duration": 0.0136,
                "tempo": 120.0
            },
            {
                "pitch": 65,
                "velocity": 25,
                "duration": 0.1841,
                "tempo": 120.0
            },
            {
                "pitch": 77,
                "velocity": 25,
                "duration": 0.0659,
                "tempo": 120.0
            },
            {
                "pitch": 75,
                "velocity": 25,
                "duration": 0.05,
                "tempo": 120.0
            },
            {
                "pitch": 74,
                "velocity": 25,
                "duration": 0.35,
                "tempo": 120.0
            },
            {
                "pitch": 74,
                "velocity": 25,
                "duration": 0.2091,
                "tempo": 120.0
            },
            {
                "pitch": 74,
                "velocity": 25,
                "duration": 0.0955,
                "tempo": 120.0
            },
            {
                "pitch": 75,
                "velocity": 25,
                "duration": 0.2045,
                "tempo": 120.0
            },
            {
                "pitch": 77,
                "velocity": 25,
                "duration": 0.0682,
                "tempo": 120.0
            },
            {
                "pitch": 75,
                "velocity": 25,
                "duration": 0.3318,
                "tempo": 120.0
            },
            {
                "pitch": 73,
                "velocity": 25,
                "duration": 0.3364,
                "tempo": 120.0
            },
            {
                "pitch": 73,
                "velocity": 25,
                "duration": 0.2205,
                "tempo": 120.0
            },
            {
                "pitch": 73,
                "velocity": 25,
                "duration": 0.1023,
                "tempo": 120.0
            },
            {
                "pitch": 75,
                "velocity": 25,
                "duration": 0.1795,
                "tempo": 120.0
            },
            {
                "pitch": 65,
                "velocity": 25,
                "duration": 0.2136,
                "tempo": 120.0
            },
            {
                "pitch": 77,
                "velocity": 25,
                "duration": 0.05,
                "tempo": 120.0
            },
            {
                "pitch": 75,
                "velocity": 25,
                "duration": 0.0682,
                "tempo": 120.0
            },
            {
                "pitch": 74,
                "velocity": 25,
                "duration": 0.3341,
                "tempo": 120.0
            },
            {
                "pitch": 74,
                "velocity": 25,
                "duration": 0.2364,
                "tempo": 120.0
            },
            {
                "pitch": 74,
                "velocity": 25,
                "duration": 0.1023,
                "tempo": 120.0
            },
            {
                "pitch": 75,
                "velocity": 25,
                "duration": 0.2045,
                "tempo": 120.0
            },
            {
                "pitch": 77,
                "velocity": 25,
                "duration": 0.05,
                "tempo": 120.0
            },
            {
                "pitch": 75,
                "velocity": 25,
                "duration": 0.3523,
                "tempo": 120.0
            },
            {
                "pitch": 82,
                "velocity": 25,
                "duration": 0.3409,
                "tempo": 120.0
            },
            {
                "pitch": 82,
                "velocity": 25,
                "duration": 0.5432,
                "tempo": 120.0
            },
            {
                "pitch": 77,
                "velocity": 25,
                "duration": 0.3341,
                "tempo": 120.0
            },
            {
                "pitch": 75,
                "velocity": 25,
                "duration": 0.3227,
                "tempo": 120.0
            },
            {
                "pitch": 74,
                "velocity": 25,
                "duration": 0.3455,
                "tempo": 120.0
            },
            {
                "pitch": 74,
                "velocity": 25,
                "duration": 0.2205,
                "tempo": 120.0
            },
            {
                "pitch": 74,
                "velocity": 25,
                "duration": 0.1023,
                "tempo": 120.0
            },
            {
                "pitch": 75,
                "velocity": 25,
                "duration": 0.4705,
                "tempo": 120.0
            },
            {
                "pitch": 77,
                "velocity": 25,
                "duration": 0.3545,
                "tempo": 120.0
            },
            {
                "pitch": 75,
                "velocity": 25,
                "duration": 0.3409,
                "tempo": 120.0
            },
            {
                "pitch": 73,
                "velocity": 25,
                "duration": 0.3523,
                "tempo": 120.0
            },
            {
                "pitch": 73,
                "velocity": 25,
                "duration": 0.5795,
                "tempo": 120.0
            },
            {
                "pitch": 73,
                "velocity": 25,
                "duration": 0.0682,
                "tempo": 120.0
            },
            {
                "pitch": 75,
                "velocity": 25,
                "duration": 0.7114,
                "tempo": 120.0
            },
            {
                "pitch": 75,
                "velocity": 25,
                "duration": 0.2182,
                "tempo": 120.0
            },
            {
                "pitch": 75,
                "velocity": 25,
                "duration": 0.2182,
                "tempo": 120.0
            },
            {
                "pitch": 75,
                "velocity": 25,
                "duration": 0.1,
                "tempo": 120.0
            },
            {
                "pitch": 75,
                "velocity": 25,
                "duration": 0.2136,
                "tempo": 120.0
            },
            {
                "pitch": 77,
                "velocity": 25,
                "duration": 1.0705,
                "tempo": 120.0
            },
            {
                "pitch": 77,
                "velocity": 25,
                "duration": 0.1023,
                "tempo": 120.0
            },
            {
                "pitch": 77,
                "velocity": 25,
                "duration": 0.1023,
                "tempo": 120.0
            },
            {
                "pitch": 77,
                "velocity": 25,
                "duration": 0.1023,
                "tempo": 120.0
            },
            {
                "pitch": 77,
                "velocity": 25,
                "duration": 0.4545,
                "tempo": 120.0
            },
            {
                "pitch": 53,
                "velocity": 25,
                "duration": 0.2318,
                "tempo": 120.0
            },
            {
                "pitch": 77,
                "velocity": 25,
                "duration": 0.0318,
                "tempo": 120.0
            },
            {
                "pitch": 75,
                "velocity": 25,
                "duration": 0.2318,
                "tempo": 120.0
            },
            {
                "pitch": 75,
                "velocity": 25,
                "duration": 0.1023,
                "tempo": 120.0
            },
            {
                "pitch": 74,
                "velocity": 25,
                "duration": 0.0841,
                "tempo": 120.0
            },
            {
                "pitch": 74,
                "velocity": 25,
                "duration": 0.2182,
                "tempo": 120.0
            },
            {
                "pitch": 74,
                "velocity": 25,
                "duration": 0.1,
                "tempo": 120.0
            },
            {
                "pitch": 75,
                "velocity": 25,
                "duration": 0.1,
                "tempo": 120.0
            },
            {
                "pitch": 74,
                "velocity": 25,
                "duration": 0.1,
                "tempo": 120.0
            },
            {
                "pitch": 73,
                "velocity": 25,
                "duration": 0.05,
                "tempo": 120.0
            },
            {
                "pitch": 72,
                "velocity": 25,
                "duration": 0.2227,
                "tempo": 120.0
            },
            {
                "pitch": 72,
                "velocity": 25,
                "duration": 0.1,
                "tempo": 120.0
            },
            {
                "pitch": 73,
                "velocity": 25,
                "duration": 0.8932,
                "tempo": 120.0
            },
            {
                "pitch": 75,
                "velocity": 25,
                "duration": 0.05,
                "tempo": 120.0
            },
            {
                "pitch": 73,
                "velocity": 25,
                "duration": 0.0318,
                "tempo": 120.0
            },
            {
                "pitch": 75,
                "velocity": 25,
                "duration": 0.2364,
                "tempo": 120.0
            },
            {
                "pitch": 79,
                "velocity": 25,
                "duration": 0.2091,
                "tempo": 120.0
            },
            {
                "pitch": 79,
                "velocity": 25,
                "duration": 0.0955,
                "tempo": 120.0
            },
            {
                "pitch": 75,
                "velocity": 25,
                "duration": 0.3523,
                "tempo": 120.0
            },
            {
                "pitch": 77,
                "velocity": 25,
                "duration": 0.0682,
                "tempo": 120.0
            },
            {
                "pitch": 75,
                "velocity": 25,
                "duration": 0.2182,
                "tempo": 120.0
            },
            {
                "pitch": 75,
                "velocity": 25,
                "duration": 0.1,
                "tempo": 120.0
            },
            {
                "pitch": 77,
                "velocity": 25,
                "duration": 0.2159,
                "tempo": 120.0
            },
            {
                "pitch": 82,
                "velocity": 25,
                "duration": 0.3364,
                "tempo": 120.0
            },
            {
                "pitch": 81,
                "velocity": 25,
                "duration": 0.3568,
                "tempo": 120.0
            },
            {
                "pitch": 77,
                "velocity": 25,
                "duration": 0.2136,
                "tempo": 120.0
            },
            {
                "pitch": 53,
                "velocity": 25,
                "duration": 0.2136,
                "tempo": 120.0
            },
            {
                "pitch": 77,
                "velocity": 25,
                "duration": 0.0341,
                "tempo": 120.0
            },
            {
                "pitch": 75,
                "velocity": 25,
                "duration": 0.2182,
                "tempo": 120.0
            },
            {
                "pitch": 75,
                "velocity": 25,
                "duration": 0.1,
                "tempo": 120.0
            },
            {
                "pitch": 74,
                "velocity": 25,
                "duration": 0.0841,
                "tempo": 120.0
            },
            {
                "pitch": 74,
                "velocity": 25,
                "duration": 0.2364,
                "tempo": 120.0
            },
            {
                "pitch": 74,
                "velocity": 25,
                "duration": 0.1,
                "tempo": 120.0
            },
            {
                "pitch": 75,
                "velocity": 25,
                "duration": 0.1023,
                "tempo": 120.0
            },
            {
                "pitch": 74,
                "velocity": 25,
                "duration": 0.1023,
                "tempo": 120.0
            },
            {
                "pitch": 73,
                "velocity": 25,
                "duration": 0.0682,
                "tempo": 120.0
            },
            {
                "pitch": 72,
                "velocity": 25,
                "duration": 0.2068,
                "tempo": 120.0
            },
            {
                "pitch": 72,
                "velocity": 25,
                "duration": 0.0977,
                "tempo": 120.0
            },
            {
                "pitch": 73,
                "velocity": 25,
                "duration": 0.9114,
                "tempo": 120.0
            },
            {
                "pitch": 75,
                "velocity": 25,
                "duration": 0.1045,
                "tempo": 120.0
            },
            {
                "pitch": 74,
                "velocity": 25,
                "duration": 0.2227,
                "tempo": 120.0
            },
            {
                "pitch": 75,
                "velocity": 25,
                "duration": 0.2114,
                "tempo": 120.0
            },
            {
                "pitch": 74,
                "velocity": 25,
                "duration": 0.0955,
                "tempo": 120.0
            },
            {
                "pitch": 74,
                "velocity": 25,
                "duration": 0.1114,
                "tempo": 120.0
            },
            {
                "pitch": 79,
                "velocity": 25,
                "duration": 0.4727,
                "tempo": 120.0
            },
            {
                "pitch": 77,
                "velocity": 25,
                "duration": 0.3341,
                "tempo": 120.0
            },
            {
                "pitch": 75,
                "velocity": 25,
                "duration": 0.2341,
                "tempo": 120.0
            },
            {
                "pitch": 75,
                "velocity": 25,
                "duration": 0.1,
                "tempo": 120.0
            },
            {
                "pitch": 77,
                "velocity": 25,
                "duration": 0.4773,
                "tempo": 120.0
            },
            {
                "pitch": 82,
                "velocity": 25,
                "duration": 0.2136,
                "tempo": 120.0
            },
            {
                "pitch": 81,
                "velocity": 25,
                "duration": 0.2136,
                "tempo": 120.0
            },
            {
                "pitch": 79,
                "velocity": 25,
                "duration": 0.2182,
                "tempo": 120.0
            },
            {
                "pitch": 60,
                "velocity": 25,
                "duration": 0.1,
                "tempo": 120.0
            },
            {
                "pitch": 60,
                "velocity": 25,
                "duration": 0.1,
                "tempo": 120.0
            },
            {
                "pitch": 77,
                "velocity": 25,
                "duration": 0.3523,
                "tempo": 120.0
            },
            {
                "pitch": 76,
                "velocity": 25,
                "duration": 1.1818,
                "tempo": 120.0
            },
            {
                "pitch": 75,
                "velocity": 25,
                "duration": 0.1,
                "tempo": 120.0
            },
            {
                "pitch": 74,
                "velocity": 25,
                "duration": 0.2159,
                "tempo": 120.0
            },
            {
                "pitch": 75,
                "velocity": 25,
                "duration": 1.1909,
                "tempo": 120.0
            },
            {
                "pitch": 77,
                "velocity": 25,
                "duration": 0.2386,
                "tempo": 120.0
            },
            {
                "pitch": 77,
                "velocity": 25,
                "duration": 0.0977,
                "tempo": 120.0
            },
            {
                "pitch": 77,
                "velocity": 25,
                "duration": 0.2114,
                "tempo": 120.0
            },
            {
                "pitch": 76,
                "velocity": 25,
                "duration": 1.1841,
                "tempo": 120.0
            },
            {
                "pitch": 77,
                "velocity": 25,
                "duration": 0.1,
                "tempo": 120.0
            },
            {
                "pitch": 77,
                "velocity": 25,
                "duration": 0.0318,
                "tempo": 120.0
            },
            {
                "pitch": 77,
                "velocity": 25,
                "duration": 0.3295,
                "tempo": 120.0
            },
            {
                "pitch": 79,
                "velocity": 25,
                "duration": 0.4,
                "tempo": 120.0
            },
            {
                "pitch": 79,
                "velocity": 25,
                "duration": 1.0045,
                "tempo": 120.0
            },
            {
                "pitch": 79,
                "velocity": 25,
                "duration": 0.2182,
                "tempo": 120.0
            },
            {
                "pitch": 79,
                "velocity": 25,
                "duration": 0.2227,
                "tempo": 120.0
            },
            {
                "pitch": 60,
                "velocity": 25,
                "duration": 0.2364,
                "tempo": 120.0
            },
            {
                "pitch": 77,
                "velocity": 25,
                "duration": 0.0477,
                "tempo": 120.0
            },
            {
                "pitch": 76,
                "velocity": 25,
                "duration": 0.2341,
                "tempo": 120.0
            },
            {
                "pitch": 77,
                "velocity": 25,
                "duration": 0.8591,
                "tempo": 120.0
            },
            {
                "pitch": 73,
                "velocity": 25,
                "duration": 0.0841,
                "tempo": 120.0
            },
            {
                "pitch": 79,
                "velocity": 25,
                "duration": 0.2159,
                "tempo": 120.0
            },
            {
                "pitch": 77,
                "velocity": 25,
                "duration": 1.0659,
                "tempo": 120.0
            },
            {
                "pitch": 63,
                "velocity": 25,
                "duration": 0.2182,
                "tempo": 120.0
            },
            {
                "pitch": 75,
                "velocity": 25,
                "duration": 0.3568,
                "tempo": 120.0
            },
            {
                "pitch": 79,
                "velocity": 25,
                "duration": 0.3364,
                "tempo": 120.0
            },
            {
                "pitch": 82,
                "velocity": 25,
                "duration": 0.3477,
                "tempo": 120.0
            },
            {
                "pitch": 81,
                "velocity": 25,
                "duration": 0.3273,
                "tempo": 120.0
            },
            {
                "pitch": 77,
                "velocity": 25,
                "duration": 0.2159,
                "tempo": 120.0
            },
            {
                "pitch": 81,
                "velocity": 25,
                "duration": 0.9477,
                "tempo": 120.0
            }
        ]
    }
}