{
    "track_id": "Wonder Boy III (FM) - 11 - It_s a Treasure Box",
    "mood": "happy",
    "instruments": {
        "Acoustic Bass": [
            {
                "pitch": 38,
                "velocity": 64,
                "duration": 0.1136,
                "tempo": 120.0
            },
            {
                "pitch": 43,
                "velocity": 64,
                "duration": 0.125,
                "tempo": 120.0
            },
            {
                "pitch": 41,
                "velocity": 64,
                "duration": 0.125,
                "tempo": 120.0
            },
            {
                "pitch": 43,
                "velocity": 64,
                "duration": 0.1614,
                "tempo": 120.0
            },
            {
                "pitch": 31,
                "velocity": 64,
                "duration": 0.25,
                "tempo": 120.0
            },
            {
                "pitch": 38,
                "velocity": 64,
                "duration": 0.15,
                "tempo": 120.0
            },
            {
                "pitch": 43,
                "velocity": 64,
                "duration": 0.1182,
                "tempo": 120.0
            },
            {
                "pitch": 41,
                "velocity": 64,
                "duration": 0.1182,
                "tempo": 120.0
            },
            {
                "pitch": 43,
                "velocity": 64,
                "duration": 0.1523,
                "tempo": 120.0
            },
            {
                "pitch": 33,
                "velocity": 64,
                "duration": 0.2523,
                "tempo": 120.0
            },
            {
                "pitch": 40,
                "velocity": 64,
                "duration": 0.15,
                "tempo": 120.0
            },
            {
                "pitch": 47,
                "velocity": 64,
                "duration": 0.1182,
                "tempo": 120.0
            },
            {
                "pitch": 45,
                "velocity": 64,
                "duration": 0.1341,
                "tempo": 120.0
            },
            {
                "pitch": 43,
                "velocity": 64,
                "duration": 0.15,
                "tempo": 120.0
            },
            {
                "pitch": 38,
                "velocity": 64,
                "duration": 0.25,
                "tempo": 120.0
            },
            {
                "pitch": 37,
                "velocity": 64,
                "duration": 0.15,
                "tempo": 120.0
            },
            {
                "pitch": 36,
                "velocity": 64,
                "duration": 0.2545,
                "tempo": 120.0
            },
            {
                "pitch": 43,
                "velocity": 64,
                "duration": 0.1523,
                "tempo": 120.0
            },
            {
                "pitch": 48,
                "velocity": 64,
                "duration": 0.1205,
                "tempo": 120.0
            },
            {
                "pitch": 46,
                "velocity": 64,
                "duration": 0.1205,
                "tempo": 120.0
            },
            {
                "pitch": 48,
                "velocity": 64,
                "duration": 0.1523,
                "tempo": 120.0
            },
            {
                "pitch": 37,
                "velocity": 64,
                "duration": 0.25,
                "tempo": 120.0
            },
            {
                "pitch": 43,
                "velocity": 64,
                "duration": 0.15,
                "tempo": 120.0
            },
            {
                "pitch": 49,
                "velocity": 64,
                "duration": 0.1159,
                "tempo": 120.0
            },
            {
                "pitch": 46,
                "velocity": 64,
                "duration": 0.1182,
                "tempo": 120.0
            },
            {
                "pitch": 49,
                "velocity": 64,
                "duration": 0.15,
                "tempo": 120.0
            },
            {
                "pitch": 38,
                "velocity": 64,
                "duration": 0.25,
                "tempo": 120.0
            },
            {
                "pitch": 38,
                "velocity": 64,
                "duration": 0.15,
                "tempo": 120.0
            },
            {
                "pitch": 36,
                "velocity": 64,
                "duration": 0.2523,
                "tempo": 120.0
            },
            {
                "pitch": 48,
                "velocity": 64,
                "duration": 0.15,
                "tempo": 120.0
            },
            {
                "pitch": 35,
                "velocity": 64,
                "duration": 0.2364,
                "tempo": 120.0
            },
            {
                "pitch": 47,
                "velocity": 64,
                "duration": 0.15,
                "tempo": 120.0
            },
            {
                "pitch": 33,
                "velocity": 64,
                "duration": 0.25,
                "tempo": 120.0
            },
            {
                "pitch": 45,
                "velocity": 64,
                "duration": 0.1659,
                "tempo": 120.0
            },
            {
                "pitch": 31,
                "velocity": 64,
                "duration": 0.2591,
                "tempo": 120.0
            },
            {
                "pitch": 38,
                "velocity": 64,
                "duration": 0.1705,
                "tempo": 120.0
            },
            {
                "pitch": 43,
                "velocity": 64,
                "duration": 0.1182,
                "tempo": 120.0
            },
            {
                "pitch": 41,
                "velocity": 64,
                "duration": 0.1159,
                "tempo": 120.0
            },
            {
                "pitch": 43,
                "velocity": 64,
                "duration": 0.15,
                "tempo": 120.0
            },
            {
                "pitch": 31,
                "velocity": 64,
                "duration": 0.2523,
                "tempo": 120.0
            },
            {
                "pitch": 38,
                "velocity": 64,
                "duration": 0.1523,
                "tempo": 120.0
            },
            {
                "pitch": 43,
                "velocity": 64,
                "duration": 0.1182,
                "tempo": 120.0
            },
            {
                "pitch": 41,
                "velocity": 64,
                "duration": 0.1205,
                "tempo": 120.0
            },
            {
                "pitch": 43,
                "velocity": 64,
                "duration": 0.1545,
                "tempo": 120.0
            },
            {
                "pitch": 33,
                "velocity": 64,
                "duration": 0.25,
                "tempo": 120.0
            },
            {
                "pitch": 40,
                "velocity": 64,
                "duration": 0.15,
                "tempo": 120.0
            },
            {
                "pitch": 47,
                "velocity": 64,
                "duration": 0.1182,
                "tempo": 120.0
            },
            {
                "pitch": 45,
                "velocity": 64,
                "duration": 0.1364,
                "tempo": 120.0
            },
            {
                "pitch": 43,
                "velocity": 64,
                "duration": 0.1523,
                "tempo": 120.0
            },
            {
                "pitch": 38,
                "velocity": 64,
                "duration": 0.25,
                "tempo": 120.0
            },
            {
                "pitch": 37,
                "velocity": 64,
                "duration": 0.15,
                "tempo": 120.0
            },
            {
                "pitch": 36,
                "velocity": 64,
                "duration": 0.2545,
                "tempo": 120.0
            },
            {
                "pitch": 46,
                "velocity": 64,
                "duration": 0.1545,
                "tempo": 120.0
            },
            {
                "pitch": 45,
                "velocity": 64,
                "duration": 0.1182,
                "tempo": 120.0
            },
            {
                "pitch": 43,
                "velocity": 64,
                "duration": 0.1159,
                "tempo": 120.0
            },
            {
                "pitch": 40,
                "velocity": 64,
                "duration": 0.15,
                "tempo": 120.0
            },
            {
                "pitch": 31,
                "velocity": 64,
                "duration": 0.2364,
                "tempo": 120.0
            },
            {
                "pitch": 43,
                "velocity": 64,
                "duration": 0.1636,
                "tempo": 120.0
            },
            {
                "pitch": 32,
                "velocity": 64,
                "duration": 0.2568,
                "tempo": 120.0
            },
            {
                "pitch": 44,
                "velocity": 64,
                "duration": 0.1523,
                "tempo": 120.0
            },
            {
                "pitch": 33,
                "velocity": 64,
                "duration": 0.25,
                "tempo": 120.0
            },
            {
                "pitch": 33,
                "velocity": 64,
                "duration": 0.15,
                "tempo": 120.0
            },
            {
                "pitch": 38,
                "velocity": 64,
                "duration": 0.1159,
                "tempo": 120.0
            },
            {
                "pitch": 36,
                "velocity": 64,
                "duration": 0.1341,
                "tempo": 120.0
            },
            {
                "pitch": 35,
                "velocity": 64,
                "duration": 0.15,
                "tempo": 120.0
            },
            {
                "pitch": 31,
                "velocity": 64,
                "duration": 0.1159,
                "tempo": 120.0
            },
            {
                "pitch": 43,
                "velocity": 64,
                "duration": 0.1341,
                "tempo": 120.0
            },
            {
                "pitch": 31,
                "velocity": 64,
                "duration": 0.15,
                "tempo": 120.0
            },
            {
                "pitch": 31,
                "velocity": 64,
                "duration": 0.4159,
                "tempo": 120.0
            },
            {
                "pitch": 35,
                "velocity": 64,
                "duration": 0.2455,
                "tempo": 120.0
            },
            {
                "pitch": 42,
                "velocity": 64,
                "duration": 0.1477,
                "tempo": 120.0
            },
            {
                "pitch": 47,
                "velocity": 64,
                "duration": 0.1341,
                "tempo": 120.0
            },
            {
                "pitch": 45,
                "velocity": 64,
                "duration": 0.1364,
                "tempo": 120.0
            },
            {
                "pitch": 47,
                "velocity": 64,
                "duration": 0.1545,
                "tempo": 120.0
            },
            {
                "pitch": 35,
                "velocity": 64,
                "duration": 0.25,
                "tempo": 120.0
            },
            {
                "pitch": 42,
                "velocity": 64,
                "duration": 0.15,
                "tempo": 120.0
            },
            {
                "pitch": 47,
                "velocity": 64,
                "duration": 0.1341,
                "tempo": 120.0
            },
            {
                "pitch": 45,
                "velocity": 64,
                "duration": 0.1318,
                "tempo": 120.0
            },
            {
                "pitch": 47,
                "velocity": 64,
                "duration": 0.15,
                "tempo": 120.0
            },
            {
                "pitch": 40,
                "velocity": 64,
                "duration": 0.25,
                "tempo": 120.0
            },
            {
                "pitch": 40,
                "velocity": 64,
                "duration": 0.15,
                "tempo": 120.0
            },
            {
                "pitch": 38,
                "velocity": 64,
                "duration": 0.2568,
                "tempo": 120.0
            },
            {
                "pitch": 38,
                "velocity": 64,
                "duration": 0.1523,
                "tempo": 120.0
            },
            {
                "pitch": 36,
                "velocity": 64,
                "duration": 0.25,
                "tempo": 120.0
            },
            {
                "pitch": 36,
                "velocity": 64,
                "duration": 0.15,
                "tempo": 120.0
            },
            {
                "pitch": 35,
                "velocity": 64,
                "duration": 0.25,
                "tempo": 120.0
            },
            {
                "pitch": 35,
                "velocity": 64,
                "duration": 0.15,
                "tempo": 120.0
            },
            {
                "pitch": 33,
                "velocity": 64,
                "duration": 0.2545,
                "tempo": 120.0
            },
            {
                "pitch": 40,
                "velocity": 64,
                "duration": 0.1523,
                "tempo": 120.0
            },
            {
                "pitch": 45,
                "velocity": 64,
                "duration": 0.1341,
                "tempo": 120.0
            },
            {
                "pitch": 43,
                "velocity": 64,
                "duration": 0.1341,
                "tempo": 120.0
            },
            {
                "pitch": 45,
                "velocity": 64,
                "duration": 0.15,
                "tempo": 120.0
            },
            {
                "pitch": 33,
                "velocity": 64,
                "duration": 0.2523,
                "tempo": 120.0
            },
            {
                "pitch": 40,
                "velocity": 64,
                "duration": 0.1523,
                "tempo": 120.0
            },
            {
                "pitch": 45,
                "velocity": 64,
                "duration": 0.1341,
                "tempo": 120.0
            },
            {
                "pitch": 43,
                "velocity": 64,
                "duration": 0.1364,
                "tempo": 120.0
            },
            {
                "pitch": 45,
                "velocity": 64,
                "duration": 0.1523,
                "tempo": 120.0
            },
            {
                "pitch": 38,
                "velocity": 64,
                "duration": 0.25,
                "tempo": 120.0
            },
            {
                "pitch": 38,
                "velocity": 64,
                "duration": 0.15,
                "tempo": 120.0
            },
            {
                "pitch": 36,
                "velocity": 64,
                "duration": 0.2523,
                "tempo": 120.0
            },
            {
                "pitch": 36,
                "velocity": 64,
                "duration": 0.15,
                "tempo": 120.0
            },
            {
                "pitch": 35,
                "velocity": 64,
                "duration": 0.2568,
                "tempo": 120.0
            },
            {
                "pitch": 35,
                "velocity": 64,
                "duration": 0.1523,
                "tempo": 120.0
            },
            {
                "pitch": 33,
                "velocity": 64,
                "duration": 0.25,
                "tempo": 120.0
            },
            {
                "pitch": 33,
                "velocity": 64,
                "duration": 0.15,
                "tempo": 120.0
            },
            {
                "pitch": 31,
                "velocity": 64,
                "duration": 0.25,
                "tempo": 120.0
            },
            {
                "pitch": 38,
                "velocity": 64,
                "duration": 0.15,
                "tempo": 120.0
            },
            {
                "pitch": 43,
                "velocity": 64,
                "duration": 0.2545,
                "tempo": 120.0
            },
            {
                "pitch": 38,
                "velocity": 64,
                "duration": 0.1523,
                "tempo": 120.0
            },
            {
                "pitch": 31,
                "velocity": 64,
                "duration": 0.25,
                "tempo": 120.0
            },
            {
                "pitch": 38,
                "velocity": 64,
                "duration": 0.1523,
                "tempo": 120.0
            },
            {
                "pitch": 41,
                "velocity": 64,
                "duration": 0.2545,
                "tempo": 120.0
            },
            {
                "pitch": 38,
                "velocity": 64,
                "duration": 0.1545,
                "tempo": 120.0
            },
            {
                "pitch": 31,
                "velocity": 64,
                "duration": 0.25,
                "tempo": 120.0
            },
            {
                "pitch": 36,
                "velocity": 64,
                "duration": 0.15,
                "tempo": 120.0
            },
            {
                "pitch": 40,
                "velocity": 64,
                "duration": 0.25,
                "tempo": 120.0
            },
            {
                "pitch": 36,
                "velocity": 64,
                "duration": 0.1523,
                "tempo": 120.0
            },
            {
                "pitch": 31,
                "velocity": 64,
                "duration": 0.2545,
                "tempo": 120.0
            },
            {
                "pitch": 36,
                "velocity": 64,
                "duration": 0.1705,
                "tempo": 120.0
            },
            {
                "pitch": 39,
                "velocity": 64,
                "duration": 0.2659,
                "tempo": 120.0
            },
            {
                "pitch": 36,
                "velocity": 64,
                "duration": 0.1659,
                "tempo": 120.0
            },
            {
                "pitch": 31,
                "velocity": 64,
                "duration": 0.2364,
                "tempo": 120.0
            },
            {
                "pitch": 38,
                "velocity": 64,
                "duration": 0.15,
                "tempo": 120.0
            },
            {
                "pitch": 43,
                "velocity": 64,
                "duration": 0.1341,
                "tempo": 120.0
            },
            {
                "pitch": 41,
                "velocity": 64,
                "duration": 0.1364,
                "tempo": 120.0
            },
            {
                "pitch": 38,
                "velocity": 64,
                "duration": 0.1523,
                "tempo": 120.0
            },
            {
                "pitch": 36,
                "velocity": 64,
                "duration": 0.2659,
                "tempo": 120.0
            },
            {
                "pitch": 43,
                "velocity": 64,
                "duration": 0.1523,
                "tempo": 120.0
            },
            {
                "pitch": 48,
                "velocity": 64,
                "duration": 0.1182,
                "tempo": 120.0
            },
            {
                "pitch": 46,
                "velocity": 64,
                "duration": 0.1205,
                "tempo": 120.0
            },
            {
                "pitch": 43,
                "velocity": 64,
                "duration": 0.1523,
                "tempo": 120.0
            },
            {
                "pitch": 38,
                "velocity": 64,
                "duration": 0.2318,
                "tempo": 120.0
            },
            {
                "pitch": 36,
                "velocity": 64,
                "duration": 0.1636,
                "tempo": 120.0
            },
            {
                "pitch": 35,
                "velocity": 64,
                "duration": 0.2523,
                "tempo": 120.0
            },
            {
                "pitch": 31,
                "velocity": 64,
                "duration": 0.1523,
                "tempo": 120.0
            },
            {
                "pitch": 31,
                "velocity": 64,
                "duration": 0.4068,
                "tempo": 120.0
            },
            {
                "pitch": 28,
                "velocity": 64,
                "duration": 0.1318,
                "tempo": 120.0
            },
            {
                "pitch": 29,
                "velocity": 64,
                "duration": 0.1318,
                "tempo": 120.0
            },
            {
                "pitch": 31,
                "velocity": 64,
                "duration": 0.1477,
                "tempo": 120.0
            }
        ],
        "Harpsichord": [
            {
                "pitch": 65,
                "velocity": 51,
                "duration": 0.0636,
                "tempo": 120.0
            },
            {
                "pitch": 64,
                "velocity": 51,
                "duration": 0.075,
                "tempo": 120.0
            },
            {
                "pitch": 65,
                "velocity": 51,
                "duration": 0.0886,
                "tempo": 120.0
            },
            {
                "pitch": 64,
                "velocity": 51,
                "duration": 0.0886,
                "tempo": 120.0
            },
            {
                "pitch": 62,
                "velocity": 51,
                "duration": 0.1068,
                "tempo": 120.0
            },
            {
                "pitch": 58,
                "velocity": 51,
                "duration": 0.0841,
                "tempo": 120.0
            },
            {
                "pitch": 59,
                "velocity": 51,
                "duration": 0.0841,
                "tempo": 120.0
            },
            {
                "pitch": 62,
                "velocity": 51,
                "duration": 0.1,
                "tempo": 120.0
            },
            {
                "pitch": 59,
                "velocity": 51,
                "duration": 0.0841,
                "tempo": 120.0
            },
            {
                "pitch": 57,
                "velocity": 51,
                "duration": 0.0841,
                "tempo": 120.0
            },
            {
                "pitch": 55,
                "velocity": 51,
                "duration": 0.1,
                "tempo": 120.0
            },
            {
                "pitch": 57,
                "velocity": 51,
                "duration": 0.1682,
                "tempo": 120.0
            },
            {
                "pitch": 57,
                "velocity": 51,
                "duration": 0.1,
                "tempo": 120.0
            },
            {
                "pitch": 59,
                "velocity": 51,
                "duration": 0.1682,
                "tempo": 120.0
            },
            {
                "pitch": 57,
                "velocity": 51,
                "duration": 0.1,
                "tempo": 120.0
            },
            {
                "pitch": 52,
                "velocity": 51,
                "duration": 0.0818,
                "tempo": 120.0
            },
            {
                "pitch": 52,
                "velocity": 51,
                "duration": 0.0841,
                "tempo": 120.0
            },
            {
                "pitch": 52,
                "velocity": 51,
                "duration": 0.0841,
                "tempo": 120.0
            },
            {
                "pitch": 55,
                "velocity": 51,
                "duration": 0.1705,
                "tempo": 120.0
            },
            {
                "pitch": 52,
                "velocity": 51,
                "duration": 0.1,
                "tempo": 120.0
            },
            {
                "pitch": 54,
                "velocity": 51,
                "duration": 0.0864,
                "tempo": 120.0
            },
            {
                "pitch": 55,
                "velocity": 51,
                "duration": 0.0864,
                "tempo": 120.0
            },
            {
                "pitch": 57,
                "velocity": 51,
                "duration": 0.1023,
                "tempo": 120.0
            },
            {
                "pitch": 58,
                "velocity": 51,
                "duration": 0.1659,
                "tempo": 120.0
            },
            {
                "pitch": 57,
                "velocity": 51,
                "duration": 0.1,
                "tempo": 120.0
            },
            {
                "pitch": 55,
                "velocity": 51,
                "duration": 0.1659,
                "tempo": 120.0
            },
            {
                "pitch": 52,
                "velocity": 51,
                "duration": 0.1,
                "tempo": 120.0
            },
            {
                "pitch": 62,
                "velocity": 51,
                "duration": 0.1,
                "tempo": 120.0
            },
            {
                "pitch": 62,
                "velocity": 51,
                "duration": 0.1682,
                "tempo": 120.0
            },
            {
                "pitch": 61,
                "velocity": 51,
                "duration": 0.1,
                "tempo": 120.0
            },
            {
                "pitch": 60,
                "velocity": 51,
                "duration": 0.5205,
                "tempo": 120.0
            },
            {
                "pitch": 67,
                "velocity": 51,
                "duration": 0.0886,
                "tempo": 120.0
            },
            {
                "pitch": 65,
                "velocity": 51,
                "duration": 0.1045,
                "tempo": 120.0
            },
            {
                "pitch": 64,
                "velocity": 51,
                "duration": 0.1023,
                "tempo": 120.0
            },
            {
                "pitch": 65,
                "velocity": 51,
                "duration": 0.0841,
                "tempo": 120.0
            },
            {
                "pitch": 64,
                "velocity": 51,
                "duration": 0.0841,
                "tempo": 120.0
            },
            {
                "pitch": 62,
                "velocity": 51,
                "duration": 0.1,
                "tempo": 120.0
            },
            {
                "pitch": 58,
                "velocity": 51,
                "duration": 0.0841,
                "tempo": 120.0
            },
            {
                "pitch": 59,
                "velocity": 51,
                "duration": 0.0841,
                "tempo": 120.0
            },
            {
                "pitch": 62,
                "velocity": 51,
                "duration": 0.1023,
                "tempo": 120.0
            },
            {
                "pitch": 59,
                "velocity": 51,
                "duration": 0.0841,
                "tempo": 120.0
            },
            {
                "pitch": 57,
                "velocity": 51,
                "duration": 0.0864,
                "tempo": 120.0
            },
            {
                "pitch": 55,
                "velocity": 51,
                "duration": 0.1023,
                "tempo": 120.0
            },
            {
                "pitch": 57,
                "velocity": 51,
                "duration": 0.1659,
                "tempo": 120.0
            },
            {
                "pitch": 57,
                "velocity": 51,
                "duration": 0.1,
                "tempo": 120.0
            },
            {
                "pitch": 59,
                "velocity": 51,
                "duration": 0.1705,
                "tempo": 120.0
            },
            {
                "pitch": 57,
                "velocity": 51,
                "duration": 0.1023,
                "tempo": 120.0
            },
            {
                "pitch": 52,
                "velocity": 51,
                "duration": 0.0818,
                "tempo": 120.0
            },
            {
                "pitch": 52,
                "velocity": 51,
                "duration": 0.0841,
                "tempo": 120.0
            },
            {
                "pitch": 52,
                "velocity": 51,
                "duration": 0.0841,
                "tempo": 120.0
            },
            {
                "pitch": 55,
                "velocity": 51,
                "duration": 0.1705,
                "tempo": 120.0
            },
            {
                "pitch": 52,
                "velocity": 51,
                "duration": 0.1023,
                "tempo": 120.0
            },
            {
                "pitch": 52,
                "velocity": 51,
                "duration": 0.0841,
                "tempo": 120.0
            },
            {
                "pitch": 54,
                "velocity": 51,
                "duration": 0.0818,
                "tempo": 120.0
            },
            {
                "pitch": 55,
                "velocity": 51,
                "duration": 0.1,
                "tempo": 120.0
            },
            {
                "pitch": 62,
                "velocity": 51,
                "duration": 0.1523,
                "tempo": 120.0
            },
            {
                "pitch": 67,
                "velocity": 51,
                "duration": 0.0977,
                "tempo": 120.0
            },
            {
                "pitch": 55,
                "velocity": 51,
                "duration": 0.0864,
                "tempo": 120.0
            },
            {
                "pitch": 55,
                "velocity": 51,
                "duration": 0.0864,
                "tempo": 120.0
            },
            {
                "pitch": 57,
                "velocity": 51,
                "duration": 0.1023,
                "tempo": 120.0
            },
            {
                "pitch": 59,
                "velocity": 51,
                "duration": 0.1659,
                "tempo": 120.0
            },
            {
                "pitch": 55,
                "velocity": 51,
                "duration": 0.1,
                "tempo": 120.0
            },
            {
                "pitch": 57,
                "velocity": 51,
                "duration": 0.1659,
                "tempo": 120.0
            },
            {
                "pitch": 55,
                "velocity": 51,
                "duration": 0.4682,
                "tempo": 120.0
            },
            {
                "pitch": 59,
                "velocity": 51,
                "duration": 0.0818,
                "tempo": 120.0
            },
            {
                "pitch": 58,
                "velocity": 51,
                "duration": 0.0818,
                "tempo": 120.0
            },
            {
                "pitch": 59,
                "velocity": 51,
                "duration": 0.0977,
                "tempo": 120.0
            },
            {
                "pitch": 58,
                "velocity": 51,
                "duration": 0.0841,
                "tempo": 120.0
            },
            {
                "pitch": 59,
                "velocity": 51,
                "duration": 0.0864,
                "tempo": 120.0
            },
            {
                "pitch": 58,
                "velocity": 51,
                "duration": 0.1023,
                "tempo": 120.0
            },
            {
                "pitch": 59,
                "velocity": 51,
                "duration": 0.0841,
                "tempo": 120.0
            },
            {
                "pitch": 58,
                "velocity": 51,
                "duration": 0.0841,
                "tempo": 120.0
            },
            {
                "pitch": 59,
                "velocity": 51,
                "duration": 0.1,
                "tempo": 120.0
            },
            {
                "pitch": 58,
                "velocity": 51,
                "duration": 0.0841,
                "tempo": 120.0
            },
            {
                "pitch": 59,
                "velocity": 51,
                "duration": 0.0818,
                "tempo": 120.0
            },
            {
                "pitch": 58,
                "velocity": 51,
                "duration": 0.1,
                "tempo": 120.0
            },
            {
                "pitch": 59,
                "velocity": 51,
                "duration": 0.2682,
                "tempo": 120.0
            },
            {
                "pitch": 59,
                "velocity": 51,
                "duration": 0.2727,
                "tempo": 120.0
            },
            {
                "pitch": 59,
                "velocity": 51,
                "duration": 0.2659,
                "tempo": 120.0
            },
            {
                "pitch": 59,
                "velocity": 51,
                "duration": 0.1682,
                "tempo": 120.0
            },
            {
                "pitch": 57,
                "velocity": 51,
                "duration": 0.0841,
                "tempo": 120.0
            },
            {
                "pitch": 56,
                "velocity": 51,
                "duration": 0.0841,
                "tempo": 120.0
            },
            {
                "pitch": 57,
                "velocity": 51,
                "duration": 0.1,
                "tempo": 120.0
            },
            {
                "pitch": 56,
                "velocity": 51,
                "duration": 0.0841,
                "tempo": 120.0
            },
            {
                "pitch": 57,
                "velocity": 51,
                "duration": 0.0841,
                "tempo": 120.0
            },
            {
                "pitch": 56,
                "velocity": 51,
                "duration": 0.1,
                "tempo": 120.0
            },
            {
                "pitch": 57,
                "velocity": 51,
                "duration": 0.0841,
                "tempo": 120.0
            },
            {
                "pitch": 56,
                "velocity": 51,
                "duration": 0.0841,
                "tempo": 120.0
            },
            {
                "pitch": 57,
                "velocity": 51,
                "duration": 0.1,
                "tempo": 120.0
            },
            {
                "pitch": 56,
                "velocity": 51,
                "duration": 0.0841,
                "tempo": 120.0
            },
            {
                "pitch": 57,
                "velocity": 51,
                "duration": 0.0864,
                "tempo": 120.0
            },
            {
                "pitch": 56,
                "velocity": 51,
                "duration": 0.1023,
                "tempo": 120.0
            },
            {
                "pitch": 57,
                "velocity": 51,
                "duration": 0.2682,
                "tempo": 120.0
            },
            {
                "pitch": 57,
                "velocity": 51,
                "duration": 0.2659,
                "tempo": 120.0
            },
            {
                "pitch": 57,
                "velocity": 51,
                "duration": 0.1705,
                "tempo": 120.0
            },
            {
                "pitch": 67,
                "velocity": 51,
                "duration": 0.1659,
                "tempo": 120.0
            },
            {
                "pitch": 69,
                "velocity": 51,
                "duration": 0.1,
                "tempo": 120.0
            },
            {
                "pitch": 71,
                "velocity": 51,
                "duration": 0.1659,
                "tempo": 120.0
            },
            {
                "pitch": 67,
                "velocity": 51,
                "duration": 0.1,
                "tempo": 120.0
            },
            {
                "pitch": 62,
                "velocity": 51,
                "duration": 0.1705,
                "tempo": 120.0
            },
            {
                "pitch": 69,
                "velocity": 51,
                "duration": 0.7386,
                "tempo": 120.0
            },
            {
                "pitch": 64,
                "velocity": 51,
                "duration": 0.2682,
                "tempo": 120.0
            },
            {
                "pitch": 71,
                "velocity": 51,
                "duration": 0.1682,
                "tempo": 120.0
            },
            {
                "pitch": 69,
                "velocity": 51,
                "duration": 0.4568,
                "tempo": 120.0
            },
            {
                "pitch": 71,
                "velocity": 51,
                "duration": 0.2477,
                "tempo": 120.0
            },
            {
                "pitch": 62,
                "velocity": 51,
                "duration": 0.2523,
                "tempo": 120.0
            },
            {
                "pitch": 67,
                "velocity": 51,
                "duration": 0.0841,
                "tempo": 120.0
            },
            {
                "pitch": 65,
                "velocity": 51,
                "duration": 0.1023,
                "tempo": 120.0
            },
            {
                "pitch": 62,
                "velocity": 51,
                "duration": 0.0864,
                "tempo": 120.0
            },
            {
                "pitch": 60,
                "velocity": 51,
                "duration": 0.1659,
                "tempo": 120.0
            },
            {
                "pitch": 58,
                "velocity": 51,
                "duration": 0.1,
                "tempo": 120.0
            },
            {
                "pitch": 60,
                "velocity": 51,
                "duration": 0.1023,
                "tempo": 120.0
            },
            {
                "pitch": 59,
                "velocity": 51,
                "duration": 0.15,
                "tempo": 120.0
            },
            {
                "pitch": 55,
                "velocity": 51,
                "duration": 0.0818,
                "tempo": 120.0
            },
            {
                "pitch": 57,
                "velocity": 51,
                "duration": 0.15,
                "tempo": 120.0
            },
            {
                "pitch": 55,
                "velocity": 51,
                "duration": 0.7273,
                "tempo": 120.0
            }
        ],
        "Electric Guitar (clean)": [
            {
                "pitch": 36,
                "velocity": 4,
                "duration": 0.0136,
                "tempo": 120.0
            },
            {
                "pitch": 45,
                "velocity": 4,
                "duration": 0.0114,
                "tempo": 120.0
            },
            {
                "pitch": 29,
                "velocity": 4,
                "duration": 0.0386,
                "tempo": 120.0
            },
            {
                "pitch": 19,
                "velocity": 4,
                "duration": 0.3818,
                "tempo": 120.0
            },
            {
                "pitch": 108,
                "velocity": 4,
                "duration": 0.3591,
                "tempo": 120.0
            },
            {
                "pitch": 19,
                "velocity": 4,
                "duration": 0.7477,
                "tempo": 120.0
            },
            {
                "pitch": 108,
                "velocity": 4,
                "duration": 0.3409,
                "tempo": 120.0
            },
            {
                "pitch": 19,
                "velocity": 4,
                "duration": 0.7386,
                "tempo": 120.0
            },
            {
                "pitch": 108,
                "velocity": 4,
                "duration": 0.3341,
                "tempo": 120.0
            },
            {
                "pitch": 19,
                "velocity": 4,
                "duration": 0.7341,
                "tempo": 120.0
            },
            {
                "pitch": 108,
                "velocity": 4,
                "duration": 0.3341,
                "tempo": 120.0
            },
            {
                "pitch": 28,
                "velocity": 4,
                "duration": 0.2023,
                "tempo": 120.0
            },
            {
                "pitch": 19,
                "velocity": 4,
                "duration": 0.3568,
                "tempo": 120.0
            },
            {
                "pitch": 30,
                "velocity": 4,
                "duration": 0.1864,
                "tempo": 120.0
            },
            {
                "pitch": 21,
                "velocity": 4,
                "duration": 0.3386,
                "tempo": 120.0
            },
            {
                "pitch": 30,
                "velocity": 4,
                "duration": 0.7386,
                "tempo": 120.0
            },
            {
                "pitch": 21,
                "velocity": 4,
                "duration": 0.3341,
                "tempo": 120.0
            },
            {
                "pitch": 30,
                "velocity": 4,
                "duration": 0.3682,
                "tempo": 120.0
            },
            {
                "pitch": 20,
                "velocity": 4,
                "duration": 0.3659,
                "tempo": 120.0
            },
            {
                "pitch": 30,
                "velocity": 4,
                "duration": 0.1682,
                "tempo": 120.0
            },
            {
                "pitch": 20,
                "velocity": 4,
                "duration": 0.3682,
                "tempo": 120.0
            },
            {
                "pitch": 30,
                "velocity": 4,
                "duration": 0.1682,
                "tempo": 120.0
            },
            {
                "pitch": 20,
                "velocity": 4,
                "duration": 0.5341,
                "tempo": 120.0
            },
            {
                "pitch": 14,
                "velocity": 4,
                "duration": 0.3,
                "tempo": 120.0
            },
            {
                "pitch": 21,
                "velocity": 4,
                "duration": 0.0682,
                "tempo": 120.0
            },
            {
                "pitch": 36,
                "velocity": 4,
                "duration": 0.5523,
                "tempo": 120.0
            },
            {
                "pitch": 27,
                "velocity": 4,
                "duration": 0.3341,
                "tempo": 120.0
            },
            {
                "pitch": 36,
                "velocity": 4,
                "duration": 0.6841,
                "tempo": 120.0
            },
            {
                "pitch": 38,
                "velocity": 4,
                "duration": 0.05,
                "tempo": 120.0
            },
            {
                "pitch": 30,
                "velocity": 4,
                "duration": 0.1864,
                "tempo": 120.0
            },
            {
                "pitch": 83,
                "velocity": 4,
                "duration": 0.1545,
                "tempo": 120.0
            },
            {
                "pitch": 91,
                "velocity": 4,
                "duration": 0.7386,
                "tempo": 120.0
            },
            {
                "pitch": 83,
                "velocity": 4,
                "duration": 0.1864,
                "tempo": 120.0
            },
            {
                "pitch": 105,
                "velocity": 4,
                "duration": 0.1523,
                "tempo": 120.0
            },
            {
                "pitch": 17,
                "velocity": 4,
                "duration": 0.7386,
                "tempo": 120.0
            },
            {
                "pitch": 105,
                "velocity": 4,
                "duration": 0.3341,
                "tempo": 120.0
            },
            {
                "pitch": 25,
                "velocity": 4,
                "duration": 0.2023,
                "tempo": 120.0
            },
            {
                "pitch": 17,
                "velocity": 4,
                "duration": 0.5432,
                "tempo": 120.0
            },
            {
                "pitch": 105,
                "velocity": 4,
                "duration": 0.0159,
                "tempo": 120.0
            },
            {
                "pitch": 37,
                "velocity": 4,
                "duration": 0.3182,
                "tempo": 120.0
            },
            {
                "pitch": 45,
                "velocity": 4,
                "duration": 0.7341,
                "tempo": 120.0
            },
            {
                "pitch": 37,
                "velocity": 4,
                "duration": 0.3386,
                "tempo": 120.0
            },
            {
                "pitch": 45,
                "velocity": 4,
                "duration": 0.3727,
                "tempo": 120.0
            },
            {
                "pitch": 36,
                "velocity": 4,
                "duration": 0.3659,
                "tempo": 120.0
            },
            {
                "pitch": 44,
                "velocity": 4,
                "duration": 0.1682,
                "tempo": 120.0
            },
            {
                "pitch": 36,
                "velocity": 4,
                "duration": 1.4545,
                "tempo": 120.0
            },
            {
                "pitch": 46,
                "velocity": 4,
                "duration": 0.1318,
                "tempo": 120.0
            },
            {
                "pitch": 30,
                "velocity": 4,
                "duration": 0.0159,
                "tempo": 120.0
            },
            {
                "pitch": 21,
                "velocity": 4,
                "duration": 0.3773,
                "tempo": 120.0
            },
            {
                "pitch": 13,
                "velocity": 4,
                "duration": 0.3409,
                "tempo": 120.0
            },
            {
                "pitch": 19,
                "velocity": 4,
                "duration": 0.7364,
                "tempo": 120.0
            },
            {
                "pitch": 13,
                "velocity": 4,
                "duration": 0.3341,
                "tempo": 120.0
            },
            {
                "pitch": 19,
                "velocity": 4,
                "duration": 0.7364,
                "tempo": 120.0
            },
            {
                "pitch": 27,
                "velocity": 4,
                "duration": 0.3386,
                "tempo": 120.0
            },
            {
                "pitch": 19,
                "velocity": 4,
                "duration": 0.7386,
                "tempo": 120.0
            },
            {
                "pitch": 27,
                "velocity": 4,
                "duration": 0.1682,
                "tempo": 120.0
            },
            {
                "pitch": 107,
                "velocity": 4,
                "duration": 0.1659,
                "tempo": 120.0
            },
            {
                "pitch": 27,
                "velocity": 4,
                "duration": 0.2,
                "tempo": 120.0
            },
            {
                "pitch": 21,
                "velocity": 4,
                "duration": 0.5455,
                "tempo": 120.0
            },
            {
                "pitch": 13,
                "velocity": 4,
                "duration": 0.0318,
                "tempo": 120.0
            },
            {
                "pitch": 23,
                "velocity": 4,
                "duration": 0.3023,
                "tempo": 120.0
            },
            {
                "pitch": 30,
                "velocity": 4,
                "duration": 0.7341,
                "tempo": 120.0
            },
            {
                "pitch": 23,
                "velocity": 4,
                "duration": 0.3409,
                "tempo": 120.0
            },
            {
                "pitch": 30,
                "velocity": 4,
                "duration": 0.7386,
                "tempo": 120.0
            },
            {
                "pitch": 36,
                "velocity": 4,
                "duration": 0.3341,
                "tempo": 120.0
            },
            {
                "pitch": 28,
                "velocity": 4,
                "duration": 0.7432,
                "tempo": 120.0
            },
            {
                "pitch": 36,
                "velocity": 4,
                "duration": 0.1682,
                "tempo": 120.0
            },
            {
                "pitch": 20,
                "velocity": 4,
                "duration": 0.1659,
                "tempo": 120.0
            },
            {
                "pitch": 36,
                "velocity": 4,
                "duration": 0.2,
                "tempo": 120.0
            },
            {
                "pitch": 30,
                "velocity": 4,
                "duration": 0.05,
                "tempo": 120.0
            },
            {
                "pitch": 36,
                "velocity": 4,
                "duration": 0.4864,
                "tempo": 120.0
            },
            {
                "pitch": 27,
                "velocity": 4,
                "duration": 0.3386,
                "tempo": 120.0
            },
            {
                "pitch": 36,
                "velocity": 4,
                "duration": 0.7386,
                "tempo": 120.0
            },
            {
                "pitch": 27,
                "velocity": 4,
                "duration": 0.0523,
                "tempo": 120.0
            },
            {
                "pitch": 30,
                "velocity": 4,
                "duration": 0.2364,
                "tempo": 120.0
            },
            {
                "pitch": 83,
                "velocity": 4,
                "duration": 0.0523,
                "tempo": 120.0
            },
            {
                "pitch": 91,
                "velocity": 4,
                "duration": 0.7364,
                "tempo": 120.0
            },
            {
                "pitch": 83,
                "velocity": 4,
                "duration": 0.2841,
                "tempo": 120.0
            },
            {
                "pitch": 105,
                "velocity": 4,
                "duration": 0.05,
                "tempo": 120.0
            },
            {
                "pitch": 17,
                "velocity": 4,
                "duration": 0.7477,
                "tempo": 120.0
            },
            {
                "pitch": 105,
                "velocity": 4,
                "duration": 0.3318,
                "tempo": 120.0
            },
            {
                "pitch": 25,
                "velocity": 4,
                "duration": 0.2023,
                "tempo": 120.0
            },
            {
                "pitch": 17,
                "velocity": 4,
                "duration": 0.5341,
                "tempo": 120.0
            },
            {
                "pitch": 105,
                "velocity": 4,
                "duration": 0.1023,
                "tempo": 120.0
            },
            {
                "pitch": 37,
                "velocity": 4,
                "duration": 0.2386,
                "tempo": 120.0
            },
            {
                "pitch": 45,
                "velocity": 4,
                "duration": 0.7364,
                "tempo": 120.0
            },
            {
                "pitch": 37,
                "velocity": 4,
                "duration": 0.3409,
                "tempo": 120.0
            },
            {
                "pitch": 45,
                "velocity": 4,
                "duration": 0.3682,
                "tempo": 120.0
            },
            {
                "pitch": 36,
                "velocity": 4,
                "duration": 0.3614,
                "tempo": 120.0
            },
            {
                "pitch": 44,
                "velocity": 4,
                "duration": 0.1682,
                "tempo": 120.0
            },
            {
                "pitch": 36,
                "velocity": 4,
                "duration": 0.3659,
                "tempo": 120.0
            },
            {
                "pitch": 44,
                "velocity": 4,
                "duration": 1.0523,
                "tempo": 120.0
            }
        ]
    }
}