{
    "track_id": "Wonder Boy in Monster Land (FM) - 08 - So Long",
    "mood": "happy",
    "instruments": {
        "Trumpet": [
            {
                "pitch": 64,
                "velocity": 64,
                "duration": 2.3432,
                "tempo": 120.0
            },
            {
                "pitch": 64,
                "velocity": 64,
                "duration": 3.1659,
                "tempo": 120.0
            },
            {
                "pitch": 64,
                "velocity": 64,
                "duration": 3.2091,
                "tempo": 120.0
            },
            {
                "pitch": 64,
                "velocity": 64,
                "duration": 3.1659,
                "tempo": 120.0
            },
            {
                "pitch": 52,
                "velocity": 64,
                "duration": 1.9659,
                "tempo": 120.0
            },
            {
                "pitch": 55,
                "velocity": 64,
                "duration": 0.3659,
                "tempo": 120.0
            },
            {
                "pitch": 52,
                "velocity": 64,
                "duration": 0.3659,
                "tempo": 120.0
            },
            {
                "pitch": 50,
                "velocity": 64,
                "duration": 0.3659,
                "tempo": 120.0
            },
            {
                "pitch": 52,
                "velocity": 64,
                "duration": 1.9864,
                "tempo": 120.0
            },
            {
                "pitch": 56,
                "velocity": 64,
                "duration": 0.3659,
                "tempo": 120.0
            },
            {
                "pitch": 57,
                "velocity": 64,
                "duration": 0.3659,
                "tempo": 120.0
            },
            {
                "pitch": 59,
                "velocity": 64,
                "duration": 0.3659,
                "tempo": 120.0
            },
            {
                "pitch": 64,
                "velocity": 64,
                "duration": 2.0114,
                "tempo": 120.0
            },
            {
                "pitch": 69,
                "velocity": 64,
                "duration": 0.3682,
                "tempo": 120.0
            },
            {
                "pitch": 71,
                "velocity": 64,
                "duration": 0.3682,
                "tempo": 120.0
            },
            {
                "pitch": 72,
                "velocity": 64,
                "duration": 0.3682,
                "tempo": 120.0
            },
            {
                "pitch": 64,
                "velocity": 64,
                "duration": 1.9682,
                "tempo": 120.0
            },
            {
                "pitch": 56,
                "velocity": 64,
                "duration": 0.3682,
                "tempo": 120.0
            },
            {
                "pitch": 57,
                "velocity": 64,
                "duration": 0.3682,
                "tempo": 120.0
            },
            {
                "pitch": 59,
                "velocity": 64,
                "duration": 0.3682,
                "tempo": 120.0
            },
            {
                "pitch": 60,
                "velocity": 64,
                "duration": 0.7773,
                "tempo": 120.0
            },
            {
                "pitch": 57,
                "velocity": 64,
                "duration": 0.3705,
                "tempo": 120.0
            },
            {
                "pitch": 62,
                "velocity": 64,
                "duration": 1.1727,
                "tempo": 120.0
            },
            {
                "pitch": 64,
                "velocity": 64,
                "duration": 0.7659,
                "tempo": 120.0
            },
            {
                "pitch": 55,
                "velocity": 64,
                "duration": 0.775,
                "tempo": 120.0
            },
            {
                "pitch": 52,
                "velocity": 64,
                "duration": 0.3727,
                "tempo": 120.0
            },
            {
                "pitch": 55,
                "velocity": 64,
                "duration": 1.1705,
                "tempo": 120.0
            },
            {
                "pitch": 57,
                "velocity": 64,
                "duration": 0.7659,
                "tempo": 120.0
            },
            {
                "pitch": 50,
                "velocity": 64,
                "duration": 0.3705,
                "tempo": 120.0
            },
            {
                "pitch": 52,
                "velocity": 64,
                "duration": 0.3727,
                "tempo": 120.0
            },
            {
                "pitch": 53,
                "velocity": 64,
                "duration": 0.3705,
                "tempo": 120.0
            },
            {
                "pitch": 55,
                "velocity": 64,
                "duration": 0.3727,
                "tempo": 120.0
            },
            {
                "pitch": 56,
                "velocity": 64,
                "duration": 0.3727,
                "tempo": 120.0
            },
            {
                "pitch": 57,
                "velocity": 64,
                "duration": 0.3705,
                "tempo": 120.0
            },
            {
                "pitch": 59,
                "velocity": 64,
                "duration": 0.3727,
                "tempo": 120.0
            },
            {
                "pitch": 60,
                "velocity": 64,
                "duration": 0.3705,
                "tempo": 120.0
            },
            {
                "pitch": 62,
                "velocity": 64,
                "duration": 2.3773,
                "tempo": 120.0
            },
            {
                "pitch": 67,
                "velocity": 64,
                "duration": 0.3705,
                "tempo": 120.0
            },
            {
                "pitch": 69,
                "velocity": 64,
                "duration": 0.3727,
                "tempo": 120.0
            },
            {
                "pitch": 64,
                "velocity": 64,
                "duration": 1.5886,
                "tempo": 120.0
            },
            {
                "pitch": 64,
                "velocity": 64,
                "duration": 0.3636,
                "tempo": 120.0
            },
            {
                "pitch": 64,
                "velocity": 64,
                "duration": 0.3614,
                "tempo": 120.0
            },
            {
                "pitch": 64,
                "velocity": 64,
                "duration": 0.3614,
                "tempo": 120.0
            },
            {
                "pitch": 64,
                "velocity": 64,
                "duration": 0.3773,
                "tempo": 120.0
            },
            {
                "pitch": 62,
                "velocity": 64,
                "duration": 0.7886,
                "tempo": 120.0
            },
            {
                "pitch": 60,
                "velocity": 64,
                "duration": 0.5682,
                "tempo": 120.0
            },
            {
                "pitch": 67,
                "velocity": 64,
                "duration": 0.2773,
                "tempo": 120.0
            },
            {
                "pitch": 69,
                "velocity": 64,
                "duration": 0.2773,
                "tempo": 120.0
            },
            {
                "pitch": 64,
                "velocity": 64,
                "duration": 1.1955,
                "tempo": 120.0
            },
            {
                "pitch": 64,
                "velocity": 64,
                "duration": 0.2659,
                "tempo": 120.0
            },
            {
                "pitch": 64,
                "velocity": 64,
                "duration": 0.2659,
                "tempo": 120.0
            },
            {
                "pitch": 64,
                "velocity": 64,
                "duration": 0.2864,
                "tempo": 120.0
            },
            {
                "pitch": 64,
                "velocity": 64,
                "duration": 0.2864,
                "tempo": 120.0
            },
            {
                "pitch": 62,
                "velocity": 64,
                "duration": 0.5841,
                "tempo": 120.0
            },
            {
                "pitch": 60,
                "velocity": 64,
                "duration": 0.5682,
                "tempo": 120.0
            },
            {
                "pitch": 67,
                "velocity": 64,
                "duration": 0.5864,
                "tempo": 120.0
            },
            {
                "pitch": 67,
                "velocity": 64,
                "duration": 0.2818,
                "tempo": 120.0
            },
            {
                "pitch": 65,
                "velocity": 64,
                "duration": 1.1909,
                "tempo": 120.0
            },
            {
                "pitch": 65,
                "velocity": 64,
                "duration": 0.2705,
                "tempo": 120.0
            },
            {
                "pitch": 65,
                "velocity": 64,
                "duration": 0.2818,
                "tempo": 120.0
            },
            {
                "pitch": 65,
                "velocity": 64,
                "duration": 0.2795,
                "tempo": 120.0
            },
            {
                "pitch": 65,
                "velocity": 64,
                "duration": 0.2818,
                "tempo": 120.0
            },
            {
                "pitch": 64,
                "velocity": 64,
                "duration": 0.5705,
                "tempo": 120.0
            },
            {
                "pitch": 62,
                "velocity": 64,
                "duration": 0.5636,
                "tempo": 120.0
            },
            {
                "pitch": 67,
                "velocity": 64,
                "duration": 0.4886,
                "tempo": 120.0
            },
            {
                "pitch": 67,
                "velocity": 64,
                "duration": 0.1932,
                "tempo": 120.0
            },
            {
                "pitch": 65,
                "velocity": 64,
                "duration": 0.775,
                "tempo": 120.0
            },
            {
                "pitch": 65,
                "velocity": 64,
                "duration": 0.1841,
                "tempo": 120.0
            },
            {
                "pitch": 64,
                "velocity": 64,
                "duration": 0.1841,
                "tempo": 120.0
            },
            {
                "pitch": 65,
                "velocity": 64,
                "duration": 0.1841,
                "tempo": 120.0
            },
            {
                "pitch": 68,
                "velocity": 64,
                "duration": 0.3955,
                "tempo": 120.0
            },
            {
                "pitch": 67,
                "velocity": 64,
                "duration": 0.1841,
                "tempo": 120.0
            },
            {
                "pitch": 65,
                "velocity": 64,
                "duration": 0.5864,
                "tempo": 120.0
            },
            {
                "pitch": 64,
                "velocity": 64,
                "duration": 0.1841,
                "tempo": 120.0
            },
            {
                "pitch": 65,
                "velocity": 64,
                "duration": 0.1841,
                "tempo": 120.0
            },
            {
                "pitch": 67,
                "velocity": 64,
                "duration": 0.7864,
                "tempo": 120.0
            },
            {
                "pitch": 59,
                "velocity": 64,
                "duration": 0.7864,
                "tempo": 120.0
            },
            {
                "pitch": 60,
                "velocity": 64,
                "duration": 0.3864,
                "tempo": 120.0
            },
            {
                "pitch": 62,
                "velocity": 64,
                "duration": 0.1841,
                "tempo": 120.0
            },
            {
                "pitch": 60,
                "velocity": 64,
                "duration": 0.3795,
                "tempo": 120.0
            },
            {
                "pitch": 60,
                "velocity": 64,
                "duration": 0.1795,
                "tempo": 120.0
            },
            {
                "pitch": 59,
                "velocity": 64,
                "duration": 0.1864,
                "tempo": 120.0
            },
            {
                "pitch": 57,
                "velocity": 64,
                "duration": 0.1886,
                "tempo": 120.0
            },
            {
                "pitch": 53,
                "velocity": 64,
                "duration": 0.5864,
                "tempo": 120.0
            },
            {
                "pitch": 64,
                "velocity": 64,
                "duration": 0.3841,
                "tempo": 120.0
            },
            {
                "pitch": 64,
                "velocity": 64,
                "duration": 0.1818,
                "tempo": 120.0
            },
            {
                "pitch": 65,
                "velocity": 64,
                "duration": 0.1818,
                "tempo": 120.0
            },
            {
                "pitch": 67,
                "velocity": 64,
                "duration": 0.1818,
                "tempo": 120.0
            },
            {
                "pitch": 69,
                "velocity": 64,
                "duration": 0.1818,
                "tempo": 120.0
            },
            {
                "pitch": 67,
                "velocity": 64,
                "duration": 0.1818,
                "tempo": 120.0
            },
            {
                "pitch": 64,
                "velocity": 64,
                "duration": 0.1818,
                "tempo": 120.0
            },
            {
                "pitch": 67,
                "velocity": 64,
                "duration": 0.5841,
                "tempo": 120.0
            },
            {
                "pitch": 64,
                "velocity": 64,
                "duration": 0.1864,
                "tempo": 120.0
            },
            {
                "pitch": 65,
                "velocity": 64,
                "duration": 0.1886,
                "tempo": 120.0
            },
            {
                "pitch": 67,
                "velocity": 64,
                "duration": 0.7773,
                "tempo": 120.0
            },
            {
                "pitch": 71,
                "velocity": 64,
                "duration": 0.7864,
                "tempo": 120.0
            },
            {
                "pitch": 72,
                "velocity": 64,
                "duration": 0.1841,
                "tempo": 120.0
            },
            {
                "pitch": 71,
                "velocity": 64,
                "duration": 0.1841,
                "tempo": 120.0
            },
            {
                "pitch": 69,
                "velocity": 64,
                "duration": 0.3795,
                "tempo": 120.0
            },
            {
                "pitch": 69,
                "velocity": 64,
                "duration": 0.1818,
                "tempo": 120.0
            },
            {
                "pitch": 71,
                "velocity": 64,
                "duration": 0.1886,
                "tempo": 120.0
            },
            {
                "pitch": 72,
                "velocity": 64,
                "duration": 0.1886,
                "tempo": 120.0
            },
            {
                "pitch": 74,
                "velocity": 64,
                "duration": 0.1841,
                "tempo": 120.0
            },
            {
                "pitch": 69,
                "velocity": 64,
                "duration": 0.1841,
                "tempo": 120.0
            },
            {
                "pitch": 71,
                "velocity": 64,
                "duration": 0.1818,
                "tempo": 120.0
            },
            {
                "pitch": 72,
                "velocity": 64,
                "duration": 0.1818,
                "tempo": 120.0
            },
            {
                "pitch": 74,
                "velocity": 64,
                "duration": 0.1818,
                "tempo": 120.0
            },
            {
                "pitch": 69,
                "velocity": 64,
                "duration": 0.1818,
                "tempo": 120.0
            },
            {
                "pitch": 71,
                "velocity": 64,
                "duration": 0.175,
                "tempo": 120.0
            },
            {
                "pitch": 72,
                "velocity": 64,
                "duration": 0.175,
                "tempo": 120.0
            },
            {
                "pitch": 76,
                "velocity": 64,
                "duration": 0.3932,
                "tempo": 120.0
            },
            {
                "pitch": 76,
                "velocity": 64,
                "duration": 0.1795,
                "tempo": 120.0
            },
            {
                "pitch": 74,
                "velocity": 64,
                "duration": 0.5705,
                "tempo": 120.0
            },
            {
                "pitch": 67,
                "velocity": 64,
                "duration": 0.4114,
                "tempo": 120.0
            },
            {
                "pitch": 67,
                "velocity": 64,
                "duration": 0.2045,
                "tempo": 120.0
            },
            {
                "pitch": 65,
                "velocity": 64,
                "duration": 0.6727,
                "tempo": 120.0
            },
            {
                "pitch": 60,
                "velocity": 64,
                "duration": 0.4409,
                "tempo": 120.0
            },
            {
                "pitch": 64,
                "velocity": 64,
                "duration": 0.425,
                "tempo": 120.0
            },
            {
                "pitch": 69,
                "velocity": 64,
                "duration": 0.3773,
                "tempo": 120.0
            },
            {
                "pitch": 67,
                "velocity": 64,
                "duration": 0.1886,
                "tempo": 120.0
            },
            {
                "pitch": 65,
                "velocity": 64,
                "duration": 0.1886,
                "tempo": 120.0
            },
            {
                "pitch": 64,
                "velocity": 64,
                "duration": 0.1818,
                "tempo": 120.0
            },
            {
                "pitch": 62,
                "velocity": 64,
                "duration": 0.3841,
                "tempo": 120.0
            },
            {
                "pitch": 67,
                "velocity": 64,
                "duration": 0.375,
                "tempo": 120.0
            },
            {
                "pitch": 65,
                "velocity": 64,
                "duration": 0.1886,
                "tempo": 120.0
            },
            {
                "pitch": 64,
                "velocity": 64,
                "duration": 0.1886,
                "tempo": 120.0
            },
            {
                "pitch": 62,
                "velocity": 64,
                "duration": 0.1795,
                "tempo": 120.0
            },
            {
                "pitch": 64,
                "velocity": 64,
                "duration": 0.3841,
                "tempo": 120.0
            },
            {
                "pitch": 57,
                "velocity": 64,
                "duration": 0.3886,
                "tempo": 120.0
            },
            {
                "pitch": 60,
                "velocity": 64,
                "duration": 0.1841,
                "tempo": 120.0
            },
            {
                "pitch": 62,
                "velocity": 64,
                "duration": 0.3864,
                "tempo": 120.0
            },
            {
                "pitch": 64,
                "velocity": 64,
                "duration": 0.3841,
                "tempo": 120.0
            },
            {
                "pitch": 57,
                "velocity": 64,
                "duration": 0.1841,
                "tempo": 120.0
            },
            {
                "pitch": 60,
                "velocity": 64,
                "duration": 0.3841,
                "tempo": 120.0
            },
            {
                "pitch": 59,
                "velocity": 64,
                "duration": 0.1841,
                "tempo": 120.0
            },
            {
                "pitch": 57,
                "velocity": 64,
                "duration": 0.1841,
                "tempo": 120.0
            },
            {
                "pitch": 55,
                "velocity": 64,
                "duration": 0.1841,
                "tempo": 120.0
            },
            {
                "pitch": 53,
                "velocity": 64,
                "duration": 0.1864,
                "tempo": 120.0
            },
            {
                "pitch": 64,
                "velocity": 64,
                "duration": 0.3841,
                "tempo": 120.0
            },
            {
                "pitch": 69,
                "velocity": 64,
                "duration": 0.3773,
                "tempo": 120.0
            },
            {
                "pitch": 67,
                "velocity": 64,
                "duration": 0.1886,
                "tempo": 120.0
            },
            {
                "pitch": 65,
                "velocity": 64,
                "duration": 0.1886,
                "tempo": 120.0
            },
            {
                "pitch": 64,
                "velocity": 64,
                "duration": 0.1818,
                "tempo": 120.0
            },
            {
                "pitch": 62,
                "velocity": 64,
                "duration": 0.3841,
                "tempo": 120.0
            },
            {
                "pitch": 67,
                "velocity": 64,
                "duration": 0.375,
                "tempo": 120.0
            },
            {
                "pitch": 65,
                "velocity": 64,
                "duration": 0.1886,
                "tempo": 120.0
            },
            {
                "pitch": 64,
                "velocity": 64,
                "duration": 0.1886,
                "tempo": 120.0
            },
            {
                "pitch": 62,
                "velocity": 64,
                "duration": 0.1795,
                "tempo": 120.0
            },
            {
                "pitch": 64,
                "velocity": 64,
                "duration": 0.3841,
                "tempo": 120.0
            },
            {
                "pitch": 57,
                "velocity": 64,
                "duration": 0.3909,
                "tempo": 120.0
            },
            {
                "pitch": 60,
                "velocity": 64,
                "duration": 0.1841,
                "tempo": 120.0
            },
            {
                "pitch": 62,
                "velocity": 64,
                "duration": 0.3818,
                "tempo": 120.0
            },
            {
                "pitch": 64,
                "velocity": 64,
                "duration": 0.3818,
                "tempo": 120.0
            },
            {
                "pitch": 57,
                "velocity": 64,
                "duration": 0.1818,
                "tempo": 120.0
            },
            {
                "pitch": 60,
                "velocity": 64,
                "duration": 0.3818,
                "tempo": 120.0
            },
            {
                "pitch": 60,
                "velocity": 64,
                "duration": 0.1818,
                "tempo": 120.0
            },
            {
                "pitch": 59,
                "velocity": 64,
                "duration": 0.1795,
                "tempo": 120.0
            },
            {
                "pitch": 57,
                "velocity": 64,
                "duration": 0.1795,
                "tempo": 120.0
            },
            {
                "pitch": 55,
                "velocity": 64,
                "duration": 0.1886,
                "tempo": 120.0
            },
            {
                "pitch": 52,
                "velocity": 64,
                "duration": 0.9909,
                "tempo": 120.0
            },
            {
                "pitch": 55,
                "velocity": 64,
                "duration": 0.1841,
                "tempo": 120.0
            },
            {
                "pitch": 52,
                "velocity": 64,
                "duration": 0.1841,
                "tempo": 120.0
            },
            {
                "pitch": 50,
                "velocity": 64,
                "duration": 0.1886,
                "tempo": 120.0
            },
            {
                "pitch": 52,
                "velocity": 64,
                "duration": 0.9818,
                "tempo": 120.0
            },
            {
                "pitch": 56,
                "velocity": 64,
                "duration": 0.1886,
                "tempo": 120.0
            },
            {
                "pitch": 57,
                "velocity": 64,
                "duration": 0.1864,
                "tempo": 120.0
            },
            {
                "pitch": 59,
                "velocity": 64,
                "duration": 0.1841,
                "tempo": 120.0
            },
            {
                "pitch": 64,
                "velocity": 64,
                "duration": 0.9773,
                "tempo": 120.0
            },
            {
                "pitch": 62,
                "velocity": 64,
                "duration": 0.1841,
                "tempo": 120.0
            },
            {
                "pitch": 60,
                "velocity": 64,
                "duration": 0.1841,
                "tempo": 120.0
            },
            {
                "pitch": 67,
                "velocity": 64,
                "duration": 0.1841,
                "tempo": 120.0
            },
            {
                "pitch": 64,
                "velocity": 64,
                "duration": 0.7841,
                "tempo": 120.0
            },
            {
                "pitch": 64,
                "velocity": 64,
                "duration": 0.1864,
                "tempo": 120.0
            },
            {
                "pitch": 62,
                "velocity": 64,
                "duration": 0.1795,
                "tempo": 120.0
            },
            {
                "pitch": 60,
                "velocity": 64,
                "duration": 0.1795,
                "tempo": 120.0
            },
            {
                "pitch": 55,
                "velocity": 64,
                "duration": 0.1864,
                "tempo": 120.0
            },
            {
                "pitch": 57,
                "velocity": 64,
                "duration": 0.3841,
                "tempo": 120.0
            },
            {
                "pitch": 53,
                "velocity": 64,
                "duration": 0.1818,
                "tempo": 120.0
            },
            {
                "pitch": 57,
                "velocity": 64,
                "duration": 0.3932,
                "tempo": 120.0
            },
            {
                "pitch": 59,
                "velocity": 64,
                "duration": 0.1864,
                "tempo": 120.0
            },
            {
                "pitch": 60,
                "velocity": 64,
                "duration": 0.3841,
                "tempo": 120.0
            },
            {
                "pitch": 59,
                "velocity": 64,
                "duration": 0.575,
                "tempo": 120.0
            },
            {
                "pitch": 59,
                "velocity": 64,
                "duration": 0.0864,
                "tempo": 120.0
            },
            {
                "pitch": 60,
                "velocity": 64,
                "duration": 0.0864,
                "tempo": 120.0
            },
            {
                "pitch": 62,
                "velocity": 64,
                "duration": 0.1886,
                "tempo": 120.0
            },
            {
                "pitch": 59,
                "velocity": 64,
                "duration": 0.1841,
                "tempo": 120.0
            },
            {
                "pitch": 57,
                "velocity": 64,
                "duration": 0.1841,
                "tempo": 120.0
            },
            {
                "pitch": 55,
                "velocity": 64,
                "duration": 0.1841,
                "tempo": 120.0
            },
            {
                "pitch": 57,
                "velocity": 64,
                "duration": 0.3864,
                "tempo": 120.0
            },
            {
                "pitch": 53,
                "velocity": 64,
                "duration": 0.1841,
                "tempo": 120.0
            },
            {
                "pitch": 53,
                "velocity": 64,
                "duration": 0.5864,
                "tempo": 120.0
            },
            {
                "pitch": 60,
                "velocity": 64,
                "duration": 0.3841,
                "tempo": 120.0
            },
            {
                "pitch": 59,
                "velocity": 64,
                "duration": 0.0841,
                "tempo": 120.0
            },
            {
                "pitch": 60,
                "velocity": 64,
                "duration": 0.0841,
                "tempo": 120.0
            },
            {
                "pitch": 59,
                "velocity": 64,
                "duration": 0.0864,
                "tempo": 120.0
            },
            {
                "pitch": 60,
                "velocity": 64,
                "duration": 0.0864,
                "tempo": 120.0
            },
            {
                "pitch": 59,
                "velocity": 64,
                "duration": 0.0841,
                "tempo": 120.0
            },
            {
                "pitch": 60,
                "velocity": 64,
                "duration": 0.0864,
                "tempo": 120.0
            },
            {
                "pitch": 59,
                "velocity": 64,
                "duration": 0.0818,
                "tempo": 120.0
            },
            {
                "pitch": 60,
                "velocity": 64,
                "duration": 0.0818,
                "tempo": 120.0
            },
            {
                "pitch": 59,
                "velocity": 64,
                "duration": 0.3773,
                "tempo": 120.0
            },
            {
                "pitch": 48,
                "velocity": 64,
                "duration": 0.1795,
                "tempo": 120.0
            },
            {
                "pitch": 50,
                "velocity": 64,
                "duration": 0.1864,
                "tempo": 120.0
            },
            {
                "pitch": 52,
                "velocity": 64,
                "duration": 0.9977,
                "tempo": 120.0
            },
            {
                "pitch": 55,
                "velocity": 64,
                "duration": 0.1818,
                "tempo": 120.0
            },
            {
                "pitch": 52,
                "velocity": 64,
                "duration": 0.1818,
                "tempo": 120.0
            },
            {
                "pitch": 50,
                "velocity": 64,
                "duration": 0.1864,
                "tempo": 120.0
            },
            {
                "pitch": 52,
                "velocity": 64,
                "duration": 0.9795,
                "tempo": 120.0
            },
            {
                "pitch": 56,
                "velocity": 64,
                "duration": 0.1886,
                "tempo": 120.0
            },
            {
                "pitch": 57,
                "velocity": 64,
                "duration": 0.1886,
                "tempo": 120.0
            },
            {
                "pitch": 59,
                "velocity": 64,
                "duration": 0.1841,
                "tempo": 120.0
            },
            {
                "pitch": 64,
                "velocity": 64,
                "duration": 0.9795,
                "tempo": 120.0
            },
            {
                "pitch": 69,
                "velocity": 64,
                "duration": 0.1795,
                "tempo": 120.0
            },
            {
                "pitch": 71,
                "velocity": 64,
                "duration": 0.1795,
                "tempo": 120.0
            },
            {
                "pitch": 72,
                "velocity": 64,
                "duration": 0.1886,
                "tempo": 120.0
            },
            {
                "pitch": 64,
                "velocity": 64,
                "duration": 0.9909,
                "tempo": 120.0
            },
            {
                "pitch": 56,
                "velocity": 64,
                "duration": 0.1886,
                "tempo": 120.0
            },
            {
                "pitch": 57,
                "velocity": 64,
                "duration": 0.1864,
                "tempo": 120.0
            },
            {
                "pitch": 59,
                "velocity": 64,
                "duration": 0.1795,
                "tempo": 120.0
            },
            {
                "pitch": 60,
                "velocity": 64,
                "duration": 0.3773,
                "tempo": 120.0
            },
            {
                "pitch": 57,
                "velocity": 64,
                "duration": 0.1795,
                "tempo": 120.0
            },
            {
                "pitch": 62,
                "velocity": 64,
                "duration": 0.5909,
                "tempo": 120.0
            },
            {
                "pitch": 64,
                "velocity": 64,
                "duration": 0.3841,
                "tempo": 120.0
            },
            {
                "pitch": 55,
                "velocity": 64,
                "duration": 0.3841,
                "tempo": 120.0
            },
            {
                "pitch": 52,
                "velocity": 64,
                "duration": 0.1795,
                "tempo": 120.0
            },
            {
                "pitch": 55,
                "velocity": 64,
                "duration": 0.5955,
                "tempo": 120.0
            },
            {
                "pitch": 57,
                "velocity": 64,
                "duration": 0.3795,
                "tempo": 120.0
            },
            {
                "pitch": 50,
                "velocity": 64,
                "duration": 0.1818,
                "tempo": 120.0
            },
            {
                "pitch": 52,
                "velocity": 64,
                "duration": 0.1864,
                "tempo": 120.0
            },
            {
                "pitch": 53,
                "velocity": 64,
                "duration": 0.1886,
                "tempo": 120.0
            },
            {
                "pitch": 55,
                "velocity": 64,
                "duration": 0.1841,
                "tempo": 120.0
            },
            {
                "pitch": 56,
                "velocity": 64,
                "duration": 0.1818,
                "tempo": 120.0
            },
            {
                "pitch": 57,
                "velocity": 64,
                "duration": 0.1841,
                "tempo": 120.0
            },
            {
                "pitch": 59,
                "velocity": 64,
                "duration": 0.1841,
                "tempo": 120.0
            },
            {
                "pitch": 60,
                "velocity": 64,
                "duration": 0.1818,
                "tempo": 120.0
            },
            {
                "pitch": 62,
                "velocity": 64,
                "duration": 3.1932,
                "tempo": 120.0
            },
            {
                "pitch": 60,
                "velocity": 64,
                "duration": 1.5886,
                "tempo": 120.0
            },
            {
                "pitch": 60,
                "velocity": 64,
                "duration": 0.1795,
                "tempo": 120.0
            },
            {
                "pitch": 60,
                "velocity": 64,
                "duration": 0.1864,
                "tempo": 120.0
            },
            {
                "pitch": 72,
                "velocity": 64,
                "duration": 0.175,
                "tempo": 120.0
            },
            {
                "pitch": 72,
                "velocity": 64,
                "duration": 0.1886,
                "tempo": 120.0
            }
        ],
        "Electric Guitar (clean)": [
            {
                "pitch": 41,
                "velocity": 51,
                "duration": 0.5659,
                "tempo": 120.0
            },
            {
                "pitch": 41,
                "velocity": 51,
                "duration": 0.1818,
                "tempo": 120.0
            },
            {
                "pitch": 41,
                "velocity": 51,
                "duration": 1.5591,
                "tempo": 120.0
            },
            {
                "pitch": 40,
                "velocity": 51,
                "duration": 1.1659,
                "tempo": 120.0
            },
            {
                "pitch": 40,
                "velocity": 51,
                "duration": 0.3659,
                "tempo": 120.0
            },
            {
                "pitch": 40,
                "velocity": 51,
                "duration": 1.5659,
                "tempo": 120.0
            },
            {
                "pitch": 38,
                "velocity": 51,
                "duration": 1.1818,
                "tempo": 120.0
            },
            {
                "pitch": 38,
                "velocity": 51,
                "duration": 0.3705,
                "tempo": 120.0
            },
            {
                "pitch": 38,
                "velocity": 51,
                "duration": 1.5886,
                "tempo": 120.0
            },
            {
                "pitch": 36,
                "velocity": 51,
                "duration": 3.1659,
                "tempo": 120.0
            },
            {
                "pitch": 41,
                "velocity": 51,
                "duration": 1.1659,
                "tempo": 120.0
            },
            {
                "pitch": 41,
                "velocity": 51,
                "duration": 0.3659,
                "tempo": 120.0
            },
            {
                "pitch": 41,
                "velocity": 51,
                "duration": 1.5659,
                "tempo": 120.0
            },
            {
                "pitch": 40,
                "velocity": 51,
                "duration": 1.1818,
                "tempo": 120.0
            },
            {
                "pitch": 40,
                "velocity": 51,
                "duration": 0.3705,
                "tempo": 120.0
            },
            {
                "pitch": 40,
                "velocity": 51,
                "duration": 1.5659,
                "tempo": 120.0
            },
            {
                "pitch": 38,
                "velocity": 51,
                "duration": 1.1977,
                "tempo": 120.0
            },
            {
                "pitch": 38,
                "velocity": 51,
                "duration": 0.3773,
                "tempo": 120.0
            },
            {
                "pitch": 38,
                "velocity": 51,
                "duration": 1.5682,
                "tempo": 120.0
            },
            {
                "pitch": 36,
                "velocity": 51,
                "duration": 3.1682,
                "tempo": 120.0
            },
            {
                "pitch": 41,
                "velocity": 51,
                "duration": 1.1818,
                "tempo": 120.0
            },
            {
                "pitch": 41,
                "velocity": 51,
                "duration": 0.3727,
                "tempo": 120.0
            },
            {
                "pitch": 41,
                "velocity": 51,
                "duration": 1.5659,
                "tempo": 120.0
            },
            {
                "pitch": 40,
                "velocity": 51,
                "duration": 1.1818,
                "tempo": 120.0
            },
            {
                "pitch": 40,
                "velocity": 51,
                "duration": 0.3705,
                "tempo": 120.0
            },
            {
                "pitch": 40,
                "velocity": 51,
                "duration": 1.5659,
                "tempo": 120.0
            },
            {
                "pitch": 38,
                "velocity": 51,
                "duration": 1.1818,
                "tempo": 120.0
            },
            {
                "pitch": 38,
                "velocity": 51,
                "duration": 0.3727,
                "tempo": 120.0
            },
            {
                "pitch": 38,
                "velocity": 51,
                "duration": 1.5886,
                "tempo": 120.0
            },
            {
                "pitch": 31,
                "velocity": 51,
                "duration": 0.3659,
                "tempo": 120.0
            },
            {
                "pitch": 31,
                "velocity": 51,
                "duration": 0.3659,
                "tempo": 120.0
            },
            {
                "pitch": 31,
                "velocity": 51,
                "duration": 1.5773,
                "tempo": 120.0
            },
            {
                "pitch": 43,
                "velocity": 51,
                "duration": 0.7773,
                "tempo": 120.0
            },
            {
                "pitch": 36,
                "velocity": 51,
                "duration": 0.3727,
                "tempo": 120.0
            },
            {
                "pitch": 36,
                "velocity": 51,
                "duration": 0.3705,
                "tempo": 120.0
            },
            {
                "pitch": 31,
                "velocity": 51,
                "duration": 0.3636,
                "tempo": 120.0
            },
            {
                "pitch": 36,
                "velocity": 51,
                "duration": 0.3614,
                "tempo": 120.0
            },
            {
                "pitch": 31,
                "velocity": 51,
                "duration": 0.3614,
                "tempo": 120.0
            },
            {
                "pitch": 36,
                "velocity": 51,
                "duration": 0.3773,
                "tempo": 120.0
            },
            {
                "pitch": 36,
                "velocity": 51,
                "duration": 0.3773,
                "tempo": 120.0
            },
            {
                "pitch": 43,
                "velocity": 51,
                "duration": 0.5682,
                "tempo": 120.0
            },
            {
                "pitch": 40,
                "velocity": 51,
                "duration": 0.2727,
                "tempo": 120.0
            },
            {
                "pitch": 38,
                "velocity": 51,
                "duration": 0.2773,
                "tempo": 120.0
            },
            {
                "pitch": 36,
                "velocity": 51,
                "duration": 0.2773,
                "tempo": 120.0
            },
            {
                "pitch": 35,
                "velocity": 51,
                "duration": 0.2773,
                "tempo": 120.0
            },
            {
                "pitch": 35,
                "velocity": 51,
                "duration": 0.2795,
                "tempo": 120.0
            },
            {
                "pitch": 31,
                "velocity": 51,
                "duration": 0.2659,
                "tempo": 120.0
            },
            {
                "pitch": 35,
                "velocity": 51,
                "duration": 0.2659,
                "tempo": 120.0
            },
            {
                "pitch": 31,
                "velocity": 51,
                "duration": 0.2864,
                "tempo": 120.0
            },
            {
                "pitch": 35,
                "velocity": 51,
                "duration": 0.2864,
                "tempo": 120.0
            },
            {
                "pitch": 35,
                "velocity": 51,
                "duration": 0.2864,
                "tempo": 120.0
            },
            {
                "pitch": 43,
                "velocity": 51,
                "duration": 0.5682,
                "tempo": 120.0
            },
            {
                "pitch": 40,
                "velocity": 51,
                "duration": 0.2795,
                "tempo": 120.0
            },
            {
                "pitch": 38,
                "velocity": 51,
                "duration": 0.2795,
                "tempo": 120.0
            },
            {
                "pitch": 36,
                "velocity": 51,
                "duration": 0.2818,
                "tempo": 120.0
            },
            {
                "pitch": 38,
                "velocity": 51,
                "duration": 0.4341,
                "tempo": 120.0
            },
            {
                "pitch": 38,
                "velocity": 51,
                "duration": 0.1273,
                "tempo": 120.0
            },
            {
                "pitch": 33,
                "velocity": 51,
                "duration": 0.2818,
                "tempo": 120.0
            },
            {
                "pitch": 38,
                "velocity": 51,
                "duration": 0.2727,
                "tempo": 120.0
            },
            {
                "pitch": 35,
                "velocity": 51,
                "duration": 0.2705,
                "tempo": 120.0
            },
            {
                "pitch": 36,
                "velocity": 51,
                "duration": 0.2818,
                "tempo": 120.0
            },
            {
                "pitch": 37,
                "velocity": 51,
                "duration": 0.2795,
                "tempo": 120.0
            },
            {
                "pitch": 38,
                "velocity": 51,
                "duration": 0.4318,
                "tempo": 120.0
            },
            {
                "pitch": 38,
                "velocity": 51,
                "duration": 0.1227,
                "tempo": 120.0
            },
            {
                "pitch": 33,
                "velocity": 51,
                "duration": 0.2727,
                "tempo": 120.0
            },
            {
                "pitch": 38,
                "velocity": 51,
                "duration": 0.2705,
                "tempo": 120.0
            },
            {
                "pitch": 35,
                "velocity": 51,
                "duration": 0.2682,
                "tempo": 120.0
            },
            {
                "pitch": 36,
                "velocity": 51,
                "duration": 0.1977,
                "tempo": 120.0
            },
            {
                "pitch": 37,
                "velocity": 51,
                "duration": 0.1932,
                "tempo": 120.0
            },
            {
                "pitch": 41,
                "velocity": 51,
                "duration": 0.2818,
                "tempo": 120.0
            },
            {
                "pitch": 41,
                "velocity": 51,
                "duration": 0.0818,
                "tempo": 120.0
            },
            {
                "pitch": 36,
                "velocity": 51,
                "duration": 0.1795,
                "tempo": 120.0
            },
            {
                "pitch": 41,
                "velocity": 51,
                "duration": 0.1795,
                "tempo": 120.0
            },
            {
                "pitch": 41,
                "velocity": 51,
                "duration": 0.3841,
                "tempo": 120.0
            },
            {
                "pitch": 40,
                "velocity": 51,
                "duration": 0.1841,
                "tempo": 120.0
            },
            {
                "pitch": 38,
                "velocity": 51,
                "duration": 0.3955,
                "tempo": 120.0
            },
            {
                "pitch": 38,
                "velocity": 51,
                "duration": 0.1841,
                "tempo": 120.0
            },
            {
                "pitch": 31,
                "velocity": 51,
                "duration": 0.3841,
                "tempo": 120.0
            },
            {
                "pitch": 31,
                "velocity": 51,
                "duration": 0.1841,
                "tempo": 120.0
            },
            {
                "pitch": 33,
                "velocity": 51,
                "duration": 0.1841,
                "tempo": 120.0
            },
            {
                "pitch": 35,
                "velocity": 51,
                "duration": 0.1841,
                "tempo": 120.0
            },
            {
                "pitch": 28,
                "velocity": 51,
                "duration": 0.3841,
                "tempo": 120.0
            },
            {
                "pitch": 31,
                "velocity": 51,
                "duration": 0.3864,
                "tempo": 120.0
            },
            {
                "pitch": 35,
                "velocity": 51,
                "duration": 0.3932,
                "tempo": 120.0
            },
            {
                "pitch": 38,
                "velocity": 51,
                "duration": 0.3773,
                "tempo": 120.0
            },
            {
                "pitch": 33,
                "velocity": 51,
                "duration": 0.1841,
                "tempo": 120.0
            },
            {
                "pitch": 33,
                "velocity": 51,
                "duration": 0.1841,
                "tempo": 120.0
            },
            {
                "pitch": 36,
                "velocity": 51,
                "duration": 0.3795,
                "tempo": 120.0
            },
            {
                "pitch": 35,
                "velocity": 51,
                "duration": 0.1795,
                "tempo": 120.0
            },
            {
                "pitch": 33,
                "velocity": 51,
                "duration": 0.1864,
                "tempo": 120.0
            },
            {
                "pitch": 31,
                "velocity": 51,
                "duration": 0.1886,
                "tempo": 120.0
            },
            {
                "pitch": 38,
                "velocity": 51,
                "duration": 0.3841,
                "tempo": 120.0
            },
            {
                "pitch": 36,
                "velocity": 51,
                "duration": 0.3864,
                "tempo": 120.0
            },
            {
                "pitch": 35,
                "velocity": 51,
                "duration": 0.3818,
                "tempo": 120.0
            },
            {
                "pitch": 33,
                "velocity": 51,
                "duration": 0.3818,
                "tempo": 120.0
            },
            {
                "pitch": 31,
                "velocity": 51,
                "duration": 0.1818,
                "tempo": 120.0
            },
            {
                "pitch": 43,
                "velocity": 51,
                "duration": 0.1818,
                "tempo": 120.0
            },
            {
                "pitch": 31,
                "velocity": 51,
                "duration": 0.1818,
                "tempo": 120.0
            },
            {
                "pitch": 38,
                "velocity": 51,
                "duration": 0.3841,
                "tempo": 120.0
            },
            {
                "pitch": 35,
                "velocity": 51,
                "duration": 0.3932,
                "tempo": 120.0
            },
            {
                "pitch": 28,
                "velocity": 51,
                "duration": 0.3773,
                "tempo": 120.0
            },
            {
                "pitch": 31,
                "velocity": 51,
                "duration": 0.3841,
                "tempo": 120.0
            },
            {
                "pitch": 35,
                "velocity": 51,
                "duration": 0.3841,
                "tempo": 120.0
            },
            {
                "pitch": 38,
                "velocity": 51,
                "duration": 0.3864,
                "tempo": 120.0
            },
            {
                "pitch": 33,
                "velocity": 51,
                "duration": 0.1841,
                "tempo": 120.0
            },
            {
                "pitch": 33,
                "velocity": 51,
                "duration": 0.1841,
                "tempo": 120.0
            },
            {
                "pitch": 36,
                "velocity": 51,
                "duration": 0.3795,
                "tempo": 120.0
            },
            {
                "pitch": 35,
                "velocity": 51,
                "duration": 0.1818,
                "tempo": 120.0
            },
            {
                "pitch": 33,
                "velocity": 51,
                "duration": 0.1886,
                "tempo": 120.0
            },
            {
                "pitch": 31,
                "velocity": 51,
                "duration": 0.1886,
                "tempo": 120.0
            },
            {
                "pitch": 38,
                "velocity": 51,
                "duration": 0.1841,
                "tempo": 120.0
            },
            {
                "pitch": 38,
                "velocity": 51,
                "duration": 0.1841,
                "tempo": 120.0
            },
            {
                "pitch": 40,
                "velocity": 51,
                "duration": 0.1818,
                "tempo": 120.0
            },
            {
                "pitch": 40,
                "velocity": 51,
                "duration": 0.1818,
                "tempo": 120.0
            },
            {
                "pitch": 41,
                "velocity": 51,
                "duration": 0.1886,
                "tempo": 120.0
            },
            {
                "pitch": 41,
                "velocity": 51,
                "duration": 0.1886,
                "tempo": 120.0
            },
            {
                "pitch": 43,
                "velocity": 51,
                "duration": 0.7705,
                "tempo": 120.0
            },
            {
                "pitch": 39,
                "velocity": 51,
                "duration": 0.1955,
                "tempo": 120.0
            },
            {
                "pitch": 39,
                "velocity": 51,
                "duration": 0.1977,
                "tempo": 120.0
            },
            {
                "pitch": 41,
                "velocity": 51,
                "duration": 0.9091,
                "tempo": 120.0
            },
            {
                "pitch": 33,
                "velocity": 51,
                "duration": 0.2068,
                "tempo": 120.0
            },
            {
                "pitch": 33,
                "velocity": 51,
                "duration": 0.2,
                "tempo": 120.0
            },
            {
                "pitch": 28,
                "velocity": 51,
                "duration": 0.1795,
                "tempo": 120.0
            },
            {
                "pitch": 33,
                "velocity": 51,
                "duration": 0.1795,
                "tempo": 120.0
            },
            {
                "pitch": 33,
                "velocity": 51,
                "duration": 0.1886,
                "tempo": 120.0
            },
            {
                "pitch": 28,
                "velocity": 51,
                "duration": 0.1818,
                "tempo": 120.0
            },
            {
                "pitch": 33,
                "velocity": 51,
                "duration": 0.1795,
                "tempo": 120.0
            },
            {
                "pitch": 33,
                "velocity": 51,
                "duration": 0.1886,
                "tempo": 120.0
            },
            {
                "pitch": 28,
                "velocity": 51,
                "duration": 0.1795,
                "tempo": 120.0
            },
            {
                "pitch": 33,
                "velocity": 51,
                "duration": 0.1795,
                "tempo": 120.0
            },
            {
                "pitch": 33,
                "velocity": 51,
                "duration": 0.1886,
                "tempo": 120.0
            },
            {
                "pitch": 28,
                "velocity": 51,
                "duration": 0.1795,
                "tempo": 120.0
            },
            {
                "pitch": 36,
                "velocity": 51,
                "duration": 0.1795,
                "tempo": 120.0
            },
            {
                "pitch": 36,
                "velocity": 51,
                "duration": 0.1886,
                "tempo": 120.0
            },
            {
                "pitch": 31,
                "velocity": 51,
                "duration": 0.1841,
                "tempo": 120.0
            },
            {
                "pitch": 36,
                "velocity": 51,
                "duration": 0.1841,
                "tempo": 120.0
            },
            {
                "pitch": 36,
                "velocity": 51,
                "duration": 0.1841,
                "tempo": 120.0
            },
            {
                "pitch": 31,
                "velocity": 51,
                "duration": 0.1841,
                "tempo": 120.0
            },
            {
                "pitch": 38,
                "velocity": 51,
                "duration": 0.1841,
                "tempo": 120.0
            },
            {
                "pitch": 38,
                "velocity": 51,
                "duration": 0.1841,
                "tempo": 120.0
            },
            {
                "pitch": 33,
                "velocity": 51,
                "duration": 0.1841,
                "tempo": 120.0
            },
            {
                "pitch": 40,
                "velocity": 51,
                "duration": 0.1841,
                "tempo": 120.0
            },
            {
                "pitch": 40,
                "velocity": 51,
                "duration": 0.1841,
                "tempo": 120.0
            },
            {
                "pitch": 35,
                "velocity": 51,
                "duration": 0.1864,
                "tempo": 120.0
            },
            {
                "pitch": 33,
                "velocity": 51,
                "duration": 0.1841,
                "tempo": 120.0
            },
            {
                "pitch": 33,
                "velocity": 51,
                "duration": 0.1841,
                "tempo": 120.0
            },
            {
                "pitch": 28,
                "velocity": 51,
                "duration": 0.1818,
                "tempo": 120.0
            },
            {
                "pitch": 33,
                "velocity": 51,
                "duration": 0.1795,
                "tempo": 120.0
            },
            {
                "pitch": 33,
                "velocity": 51,
                "duration": 0.1886,
                "tempo": 120.0
            },
            {
                "pitch": 28,
                "velocity": 51,
                "duration": 0.1818,
                "tempo": 120.0
            },
            {
                "pitch": 33,
                "velocity": 51,
                "duration": 0.1818,
                "tempo": 120.0
            },
            {
                "pitch": 33,
                "velocity": 51,
                "duration": 0.1841,
                "tempo": 120.0
            },
            {
                "pitch": 28,
                "velocity": 51,
                "duration": 0.1795,
                "tempo": 120.0
            },
            {
                "pitch": 33,
                "velocity": 51,
                "duration": 0.1795,
                "tempo": 120.0
            },
            {
                "pitch": 33,
                "velocity": 51,
                "duration": 0.1886,
                "tempo": 120.0
            },
            {
                "pitch": 28,
                "velocity": 51,
                "duration": 0.1795,
                "tempo": 120.0
            },
            {
                "pitch": 36,
                "velocity": 51,
                "duration": 0.1795,
                "tempo": 120.0
            },
            {
                "pitch": 36,
                "velocity": 51,
                "duration": 0.1864,
                "tempo": 120.0
            },
            {
                "pitch": 31,
                "velocity": 51,
                "duration": 0.1864,
                "tempo": 120.0
            },
            {
                "pitch": 36,
                "velocity": 51,
                "duration": 0.1841,
                "tempo": 120.0
            },
            {
                "pitch": 36,
                "velocity": 51,
                "duration": 0.1818,
                "tempo": 120.0
            },
            {
                "pitch": 31,
                "velocity": 51,
                "duration": 0.1818,
                "tempo": 120.0
            },
            {
                "pitch": 38,
                "velocity": 51,
                "duration": 0.1818,
                "tempo": 120.0
            },
            {
                "pitch": 38,
                "velocity": 51,
                "duration": 0.1818,
                "tempo": 120.0
            },
            {
                "pitch": 33,
                "velocity": 51,
                "duration": 0.1818,
                "tempo": 120.0
            },
            {
                "pitch": 40,
                "velocity": 51,
                "duration": 0.3795,
                "tempo": 120.0
            },
            {
                "pitch": 40,
                "velocity": 51,
                "duration": 0.3841,
                "tempo": 120.0
            },
            {
                "pitch": 41,
                "velocity": 51,
                "duration": 0.1886,
                "tempo": 120.0
            },
            {
                "pitch": 36,
                "velocity": 51,
                "duration": 0.0841,
                "tempo": 120.0
            },
            {
                "pitch": 36,
                "velocity": 51,
                "duration": 0.0841,
                "tempo": 120.0
            },
            {
                "pitch": 35,
                "velocity": 51,
                "duration": 0.0841,
                "tempo": 120.0
            },
            {
                "pitch": 41,
                "velocity": 51,
                "duration": 0.1841,
                "tempo": 120.0
            },
            {
                "pitch": 41,
                "velocity": 51,
                "duration": 0.0841,
                "tempo": 120.0
            },
            {
                "pitch": 35,
                "velocity": 51,
                "duration": 0.1841,
                "tempo": 120.0
            },
            {
                "pitch": 36,
                "velocity": 51,
                "duration": 0.1841,
                "tempo": 120.0
            },
            {
                "pitch": 38,
                "velocity": 51,
                "duration": 0.1886,
                "tempo": 120.0
            },
            {
                "pitch": 40,
                "velocity": 51,
                "duration": 0.1886,
                "tempo": 120.0
            },
            {
                "pitch": 28,
                "velocity": 51,
                "duration": 0.0795,
                "tempo": 120.0
            },
            {
                "pitch": 36,
                "velocity": 51,
                "duration": 0.175,
                "tempo": 120.0
            },
            {
                "pitch": 35,
                "velocity": 51,
                "duration": 0.0818,
                "tempo": 120.0
            },
            {
                "pitch": 40,
                "velocity": 51,
                "duration": 0.1864,
                "tempo": 120.0
            },
            {
                "pitch": 33,
                "velocity": 51,
                "duration": 0.1886,
                "tempo": 120.0
            },
            {
                "pitch": 45,
                "velocity": 51,
                "duration": 0.0864,
                "tempo": 120.0
            },
            {
                "pitch": 33,
                "velocity": 51,
                "duration": 0.0841,
                "tempo": 120.0
            },
            {
                "pitch": 33,
                "velocity": 51,
                "duration": 0.0841,
                "tempo": 120.0
            },
            {
                "pitch": 45,
                "velocity": 51,
                "duration": 0.1841,
                "tempo": 120.0
            },
            {
                "pitch": 38,
                "velocity": 51,
                "duration": 0.1841,
                "tempo": 120.0
            },
            {
                "pitch": 35,
                "velocity": 51,
                "duration": 0.0818,
                "tempo": 120.0
            },
            {
                "pitch": 35,
                "velocity": 51,
                "duration": 0.0818,
                "tempo": 120.0
            },
            {
                "pitch": 36,
                "velocity": 51,
                "duration": 0.0818,
                "tempo": 120.0
            },
            {
                "pitch": 38,
                "velocity": 51,
                "duration": 0.1841,
                "tempo": 120.0
            },
            {
                "pitch": 38,
                "velocity": 51,
                "duration": 0.0841,
                "tempo": 120.0
            },
            {
                "pitch": 33,
                "velocity": 51,
                "duration": 0.1841,
                "tempo": 120.0
            },
            {
                "pitch": 35,
                "velocity": 51,
                "duration": 0.1841,
                "tempo": 120.0
            },
            {
                "pitch": 36,
                "velocity": 51,
                "duration": 0.1841,
                "tempo": 120.0
            },
            {
                "pitch": 36,
                "velocity": 51,
                "duration": 0.1841,
                "tempo": 120.0
            },
            {
                "pitch": 31,
                "velocity": 51,
                "duration": 0.0841,
                "tempo": 120.0
            },
            {
                "pitch": 33,
                "velocity": 51,
                "duration": 0.1841,
                "tempo": 120.0
            },
            {
                "pitch": 35,
                "velocity": 51,
                "duration": 0.0841,
                "tempo": 120.0
            },
            {
                "pitch": 36,
                "velocity": 51,
                "duration": 0.1841,
                "tempo": 120.0
            },
            {
                "pitch": 36,
                "velocity": 51,
                "duration": 0.1864,
                "tempo": 120.0
            },
            {
                "pitch": 43,
                "velocity": 51,
                "duration": 0.1795,
                "tempo": 120.0
            },
            {
                "pitch": 36,
                "velocity": 51,
                "duration": 0.0818,
                "tempo": 120.0
            },
            {
                "pitch": 36,
                "velocity": 51,
                "duration": 0.0818,
                "tempo": 120.0
            },
            {
                "pitch": 43,
                "velocity": 51,
                "duration": 0.1864,
                "tempo": 120.0
            },
            {
                "pitch": 41,
                "velocity": 51,
                "duration": 0.1886,
                "tempo": 120.0
            },
            {
                "pitch": 36,
                "velocity": 51,
                "duration": 0.0818,
                "tempo": 120.0
            },
            {
                "pitch": 36,
                "velocity": 51,
                "duration": 0.0818,
                "tempo": 120.0
            },
            {
                "pitch": 35,
                "velocity": 51,
                "duration": 0.0818,
                "tempo": 120.0
            },
            {
                "pitch": 41,
                "velocity": 51,
                "duration": 0.1864,
                "tempo": 120.0
            },
            {
                "pitch": 41,
                "velocity": 51,
                "duration": 0.0864,
                "tempo": 120.0
            },
            {
                "pitch": 35,
                "velocity": 51,
                "duration": 0.1864,
                "tempo": 120.0
            },
            {
                "pitch": 36,
                "velocity": 51,
                "duration": 0.1841,
                "tempo": 120.0
            },
            {
                "pitch": 38,
                "velocity": 51,
                "duration": 0.1818,
                "tempo": 120.0
            },
            {
                "pitch": 40,
                "velocity": 51,
                "duration": 0.1818,
                "tempo": 120.0
            },
            {
                "pitch": 28,
                "velocity": 51,
                "duration": 0.0818,
                "tempo": 120.0
            },
            {
                "pitch": 36,
                "velocity": 51,
                "duration": 0.1795,
                "tempo": 120.0
            },
            {
                "pitch": 35,
                "velocity": 51,
                "duration": 0.0818,
                "tempo": 120.0
            },
            {
                "pitch": 40,
                "velocity": 51,
                "duration": 0.1886,
                "tempo": 120.0
            },
            {
                "pitch": 33,
                "velocity": 51,
                "duration": 0.1886,
                "tempo": 120.0
            },
            {
                "pitch": 45,
                "velocity": 51,
                "duration": 0.0841,
                "tempo": 120.0
            },
            {
                "pitch": 33,
                "velocity": 51,
                "duration": 0.0841,
                "tempo": 120.0
            },
            {
                "pitch": 33,
                "velocity": 51,
                "duration": 0.0841,
                "tempo": 120.0
            },
            {
                "pitch": 45,
                "velocity": 51,
                "duration": 0.1841,
                "tempo": 120.0
            },
            {
                "pitch": 38,
                "velocity": 51,
                "duration": 0.1864,
                "tempo": 120.0
            },
            {
                "pitch": 35,
                "velocity": 51,
                "duration": 0.0841,
                "tempo": 120.0
            },
            {
                "pitch": 35,
                "velocity": 51,
                "duration": 0.0841,
                "tempo": 120.0
            },
            {
                "pitch": 36,
                "velocity": 51,
                "duration": 0.0841,
                "tempo": 120.0
            },
            {
                "pitch": 38,
                "velocity": 51,
                "duration": 0.1841,
                "tempo": 120.0
            },
            {
                "pitch": 38,
                "velocity": 51,
                "duration": 0.0841,
                "tempo": 120.0
            },
            {
                "pitch": 33,
                "velocity": 51,
                "duration": 0.1841,
                "tempo": 120.0
            },
            {
                "pitch": 35,
                "velocity": 51,
                "duration": 0.1841,
                "tempo": 120.0
            },
            {
                "pitch": 36,
                "velocity": 51,
                "duration": 0.1841,
                "tempo": 120.0
            },
            {
                "pitch": 36,
                "velocity": 51,
                "duration": 0.1841,
                "tempo": 120.0
            },
            {
                "pitch": 31,
                "velocity": 51,
                "duration": 0.0864,
                "tempo": 120.0
            },
            {
                "pitch": 33,
                "velocity": 51,
                "duration": 0.1886,
                "tempo": 120.0
            },
            {
                "pitch": 35,
                "velocity": 51,
                "duration": 0.0864,
                "tempo": 120.0
            },
            {
                "pitch": 36,
                "velocity": 51,
                "duration": 0.1795,
                "tempo": 120.0
            },
            {
                "pitch": 36,
                "velocity": 51,
                "duration": 0.1818,
                "tempo": 120.0
            },
            {
                "pitch": 43,
                "velocity": 51,
                "duration": 0.1795,
                "tempo": 120.0
            },
            {
                "pitch": 36,
                "velocity": 51,
                "duration": 0.0818,
                "tempo": 120.0
            },
            {
                "pitch": 36,
                "velocity": 51,
                "duration": 0.0818,
                "tempo": 120.0
            },
            {
                "pitch": 43,
                "velocity": 51,
                "duration": 0.1864,
                "tempo": 120.0
            },
            {
                "pitch": 41,
                "velocity": 51,
                "duration": 0.1841,
                "tempo": 120.0
            },
            {
                "pitch": 36,
                "velocity": 51,
                "duration": 0.0841,
                "tempo": 120.0
            },
            {
                "pitch": 36,
                "velocity": 51,
                "duration": 0.0841,
                "tempo": 120.0
            },
            {
                "pitch": 35,
                "velocity": 51,
                "duration": 0.0864,
                "tempo": 120.0
            },
            {
                "pitch": 41,
                "velocity": 51,
                "duration": 0.1864,
                "tempo": 120.0
            },
            {
                "pitch": 41,
                "velocity": 51,
                "duration": 0.0841,
                "tempo": 120.0
            },
            {
                "pitch": 35,
                "velocity": 51,
                "duration": 0.1818,
                "tempo": 120.0
            },
            {
                "pitch": 36,
                "velocity": 51,
                "duration": 0.1818,
                "tempo": 120.0
            },
            {
                "pitch": 38,
                "velocity": 51,
                "duration": 0.1864,
                "tempo": 120.0
            },
            {
                "pitch": 40,
                "velocity": 51,
                "duration": 0.1886,
                "tempo": 120.0
            },
            {
                "pitch": 28,
                "velocity": 51,
                "duration": 0.0795,
                "tempo": 120.0
            },
            {
                "pitch": 36,
                "velocity": 51,
                "duration": 0.175,
                "tempo": 120.0
            },
            {
                "pitch": 35,
                "velocity": 51,
                "duration": 0.0795,
                "tempo": 120.0
            },
            {
                "pitch": 40,
                "velocity": 51,
                "duration": 0.1886,
                "tempo": 120.0
            },
            {
                "pitch": 33,
                "velocity": 51,
                "duration": 0.1886,
                "tempo": 120.0
            },
            {
                "pitch": 45,
                "velocity": 51,
                "duration": 0.0864,
                "tempo": 120.0
            },
            {
                "pitch": 33,
                "velocity": 51,
                "duration": 0.0864,
                "tempo": 120.0
            },
            {
                "pitch": 33,
                "velocity": 51,
                "duration": 0.0864,
                "tempo": 120.0
            },
            {
                "pitch": 45,
                "velocity": 51,
                "duration": 0.1841,
                "tempo": 120.0
            },
            {
                "pitch": 38,
                "velocity": 51,
                "duration": 0.1864,
                "tempo": 120.0
            },
            {
                "pitch": 35,
                "velocity": 51,
                "duration": 0.0818,
                "tempo": 120.0
            },
            {
                "pitch": 35,
                "velocity": 51,
                "duration": 0.0818,
                "tempo": 120.0
            },
            {
                "pitch": 36,
                "velocity": 51,
                "duration": 0.0818,
                "tempo": 120.0
            },
            {
                "pitch": 38,
                "velocity": 51,
                "duration": 0.1841,
                "tempo": 120.0
            },
            {
                "pitch": 38,
                "velocity": 51,
                "duration": 0.0841,
                "tempo": 120.0
            },
            {
                "pitch": 33,
                "velocity": 51,
                "duration": 0.1795,
                "tempo": 120.0
            },
            {
                "pitch": 35,
                "velocity": 51,
                "duration": 0.1795,
                "tempo": 120.0
            },
            {
                "pitch": 36,
                "velocity": 51,
                "duration": 0.1886,
                "tempo": 120.0
            },
            {
                "pitch": 36,
                "velocity": 51,
                "duration": 0.1864,
                "tempo": 120.0
            },
            {
                "pitch": 31,
                "velocity": 51,
                "duration": 0.0818,
                "tempo": 120.0
            },
            {
                "pitch": 33,
                "velocity": 51,
                "duration": 0.1795,
                "tempo": 120.0
            },
            {
                "pitch": 35,
                "velocity": 51,
                "duration": 0.0818,
                "tempo": 120.0
            },
            {
                "pitch": 36,
                "velocity": 51,
                "duration": 0.1886,
                "tempo": 120.0
            },
            {
                "pitch": 36,
                "velocity": 51,
                "duration": 0.1886,
                "tempo": 120.0
            },
            {
                "pitch": 43,
                "velocity": 51,
                "duration": 0.1886,
                "tempo": 120.0
            },
            {
                "pitch": 36,
                "velocity": 51,
                "duration": 0.0841,
                "tempo": 120.0
            },
            {
                "pitch": 36,
                "velocity": 51,
                "duration": 0.0841,
                "tempo": 120.0
            },
            {
                "pitch": 43,
                "velocity": 51,
                "duration": 0.1795,
                "tempo": 120.0
            },
            {
                "pitch": 41,
                "velocity": 51,
                "duration": 0.1795,
                "tempo": 120.0
            },
            {
                "pitch": 36,
                "velocity": 51,
                "duration": 0.0818,
                "tempo": 120.0
            },
            {
                "pitch": 36,
                "velocity": 51,
                "duration": 0.0818,
                "tempo": 120.0
            },
            {
                "pitch": 35,
                "velocity": 51,
                "duration": 0.0818,
                "tempo": 120.0
            },
            {
                "pitch": 41,
                "velocity": 51,
                "duration": 0.1886,
                "tempo": 120.0
            },
            {
                "pitch": 41,
                "velocity": 51,
                "duration": 0.0864,
                "tempo": 120.0
            },
            {
                "pitch": 35,
                "velocity": 51,
                "duration": 0.1795,
                "tempo": 120.0
            },
            {
                "pitch": 36,
                "velocity": 51,
                "duration": 0.1795,
                "tempo": 120.0
            },
            {
                "pitch": 38,
                "velocity": 51,
                "duration": 0.1886,
                "tempo": 120.0
            },
            {
                "pitch": 40,
                "velocity": 51,
                "duration": 0.1864,
                "tempo": 120.0
            },
            {
                "pitch": 28,
                "velocity": 51,
                "duration": 0.0818,
                "tempo": 120.0
            },
            {
                "pitch": 36,
                "velocity": 51,
                "duration": 0.1795,
                "tempo": 120.0
            },
            {
                "pitch": 35,
                "velocity": 51,
                "duration": 0.0818,
                "tempo": 120.0
            },
            {
                "pitch": 40,
                "velocity": 51,
                "duration": 0.1886,
                "tempo": 120.0
            },
            {
                "pitch": 33,
                "velocity": 51,
                "duration": 0.1886,
                "tempo": 120.0
            },
            {
                "pitch": 45,
                "velocity": 51,
                "duration": 0.0841,
                "tempo": 120.0
            },
            {
                "pitch": 33,
                "velocity": 51,
                "duration": 0.0841,
                "tempo": 120.0
            },
            {
                "pitch": 33,
                "velocity": 51,
                "duration": 0.0841,
                "tempo": 120.0
            },
            {
                "pitch": 45,
                "velocity": 51,
                "duration": 0.1795,
                "tempo": 120.0
            },
            {
                "pitch": 45,
                "velocity": 51,
                "duration": 0.1818,
                "tempo": 120.0
            },
            {
                "pitch": 43,
                "velocity": 51,
                "duration": 0.1864,
                "tempo": 120.0
            },
            {
                "pitch": 41,
                "velocity": 51,
                "duration": 0.1886,
                "tempo": 120.0
            },
            {
                "pitch": 40,
                "velocity": 51,
                "duration": 0.1841,
                "tempo": 120.0
            },
            {
                "pitch": 38,
                "velocity": 51,
                "duration": 0.1818,
                "tempo": 120.0
            },
            {
                "pitch": 36,
                "velocity": 51,
                "duration": 0.1841,
                "tempo": 120.0
            },
            {
                "pitch": 35,
                "velocity": 51,
                "duration": 0.1841,
                "tempo": 120.0
            },
            {
                "pitch": 33,
                "velocity": 51,
                "duration": 0.1818,
                "tempo": 120.0
            },
            {
                "pitch": 31,
                "velocity": 51,
                "duration": 0.1818,
                "tempo": 120.0
            },
            {
                "pitch": 33,
                "velocity": 51,
                "duration": 0.1841,
                "tempo": 120.0
            },
            {
                "pitch": 36,
                "velocity": 51,
                "duration": 0.3864,
                "tempo": 120.0
            },
            {
                "pitch": 38,
                "velocity": 51,
                "duration": 0.1841,
                "tempo": 120.0
            },
            {
                "pitch": 40,
                "velocity": 51,
                "duration": 0.3795,
                "tempo": 120.0
            },
            {
                "pitch": 31,
                "velocity": 51,
                "duration": 0.1795,
                "tempo": 120.0
            },
            {
                "pitch": 33,
                "velocity": 51,
                "duration": 0.1864,
                "tempo": 120.0
            },
            {
                "pitch": 36,
                "velocity": 51,
                "duration": 0.3864,
                "tempo": 120.0
            },
            {
                "pitch": 38,
                "velocity": 51,
                "duration": 0.1841,
                "tempo": 120.0
            },
            {
                "pitch": 40,
                "velocity": 51,
                "duration": 0.3818,
                "tempo": 120.0
            },
            {
                "pitch": 31,
                "velocity": 51,
                "duration": 0.1795,
                "tempo": 120.0
            },
            {
                "pitch": 33,
                "velocity": 51,
                "duration": 0.1886,
                "tempo": 120.0
            },
            {
                "pitch": 36,
                "velocity": 51,
                "duration": 0.3841,
                "tempo": 120.0
            },
            {
                "pitch": 38,
                "velocity": 51,
                "duration": 0.1841,
                "tempo": 120.0
            },
            {
                "pitch": 40,
                "velocity": 51,
                "duration": 0.3795,
                "tempo": 120.0
            },
            {
                "pitch": 36,
                "velocity": 51,
                "duration": 0.0818,
                "tempo": 120.0
            },
            {
                "pitch": 36,
                "velocity": 51,
                "duration": 0.0841,
                "tempo": 120.0
            },
            {
                "pitch": 36,
                "velocity": 51,
                "duration": 0.0795,
                "tempo": 120.0
            },
            {
                "pitch": 36,
                "velocity": 51,
                "duration": 0.0864,
                "tempo": 120.0
            }
        ],
        "Vibraphone": [
            {
                "pitch": 60,
                "velocity": 64,
                "duration": 2.3432,
                "tempo": 120.0
            },
            {
                "pitch": 62,
                "velocity": 64,
                "duration": 1.5659,
                "tempo": 120.0
            },
            {
                "pitch": 59,
                "velocity": 64,
                "duration": 0.7659,
                "tempo": 120.0
            },
            {
                "pitch": 55,
                "velocity": 64,
                "duration": 0.7659,
                "tempo": 120.0
            },
            {
                "pitch": 57,
                "velocity": 64,
                "duration": 1.5864,
                "tempo": 120.0
            },
            {
                "pitch": 53,
                "velocity": 64,
                "duration": 0.7773,
                "tempo": 120.0
            },
            {
                "pitch": 57,
                "velocity": 64,
                "duration": 0.7773,
                "tempo": 120.0
            },
            {
                "pitch": 55,
                "velocity": 64,
                "duration": 0.7659,
                "tempo": 120.0
            },
            {
                "pitch": 59,
                "velocity": 64,
                "duration": 2.3659,
                "tempo": 120.0
            },
            {
                "pitch": 60,
                "velocity": 64,
                "duration": 3.1659,
                "tempo": 120.0
            },
            {
                "pitch": 62,
                "velocity": 64,
                "duration": 3.1864,
                "tempo": 120.0
            },
            {
                "pitch": 59,
                "velocity": 64,
                "duration": 3.2114,
                "tempo": 120.0
            },
            {
                "pitch": 59,
                "velocity": 64,
                "duration": 3.1682,
                "tempo": 120.0
            },
            {
                "pitch": 60,
                "velocity": 64,
                "duration": 3.1886,
                "tempo": 120.0
            },
            {
                "pitch": 62,
                "velocity": 64,
                "duration": 3.1864,
                "tempo": 120.0
            },
            {
                "pitch": 59,
                "velocity": 64,
                "duration": 3.2091,
                "tempo": 120.0
            },
            {
                "pitch": 60,
                "velocity": 64,
                "duration": 0.7659,
                "tempo": 120.0
            },
            {
                "pitch": 60,
                "velocity": 64,
                "duration": 2.3886,
                "tempo": 120.0
            },
            {
                "pitch": 55,
                "velocity": 64,
                "duration": 0.3727,
                "tempo": 120.0
            },
            {
                "pitch": 55,
                "velocity": 64,
                "duration": 0.1682,
                "tempo": 120.0
            },
            {
                "pitch": 57,
                "velocity": 64,
                "duration": 0.1636,
                "tempo": 120.0
            },
            {
                "pitch": 57,
                "velocity": 64,
                "duration": 0.1659,
                "tempo": 120.0
            },
            {
                "pitch": 59,
                "velocity": 64,
                "duration": 0.1705,
                "tempo": 120.0
            },
            {
                "pitch": 59,
                "velocity": 64,
                "duration": 0.1705,
                "tempo": 120.0
            },
            {
                "pitch": 57,
                "velocity": 64,
                "duration": 0.1227,
                "tempo": 120.0
            },
            {
                "pitch": 55,
                "velocity": 64,
                "duration": 0.2773,
                "tempo": 120.0
            },
            {
                "pitch": 55,
                "velocity": 64,
                "duration": 0.1273,
                "tempo": 120.0
            },
            {
                "pitch": 57,
                "velocity": 64,
                "duration": 0.1205,
                "tempo": 120.0
            },
            {
                "pitch": 57,
                "velocity": 64,
                "duration": 0.1205,
                "tempo": 120.0
            },
            {
                "pitch": 59,
                "velocity": 64,
                "duration": 0.1295,
                "tempo": 120.0
            },
            {
                "pitch": 59,
                "velocity": 64,
                "duration": 0.1295,
                "tempo": 120.0
            },
            {
                "pitch": 57,
                "velocity": 64,
                "duration": 0.1227,
                "tempo": 120.0
            },
            {
                "pitch": 57,
                "velocity": 64,
                "duration": 0.2818,
                "tempo": 120.0
            },
            {
                "pitch": 57,
                "velocity": 64,
                "duration": 0.5773,
                "tempo": 120.0
            },
            {
                "pitch": 55,
                "velocity": 64,
                "duration": 0.1273,
                "tempo": 120.0
            },
            {
                "pitch": 57,
                "velocity": 64,
                "duration": 0.1295,
                "tempo": 120.0
            },
            {
                "pitch": 55,
                "velocity": 64,
                "duration": 0.125,
                "tempo": 120.0
            },
            {
                "pitch": 57,
                "velocity": 64,
                "duration": 0.1227,
                "tempo": 120.0
            },
            {
                "pitch": 57,
                "velocity": 64,
                "duration": 0.1227,
                "tempo": 120.0
            },
            {
                "pitch": 57,
                "velocity": 64,
                "duration": 0.0909,
                "tempo": 120.0
            },
            {
                "pitch": 56,
                "velocity": 64,
                "duration": 0.1795,
                "tempo": 120.0
            },
            {
                "pitch": 62,
                "velocity": 64,
                "duration": 0.3841,
                "tempo": 120.0
            },
            {
                "pitch": 60,
                "velocity": 64,
                "duration": 0.0841,
                "tempo": 120.0
            },
            {
                "pitch": 62,
                "velocity": 64,
                "duration": 0.1886,
                "tempo": 120.0
            },
            {
                "pitch": 62,
                "velocity": 64,
                "duration": 0.1886,
                "tempo": 120.0
            },
            {
                "pitch": 62,
                "velocity": 64,
                "duration": 0.1841,
                "tempo": 120.0
            },
            {
                "pitch": 62,
                "velocity": 64,
                "duration": 0.1841,
                "tempo": 120.0
            },
            {
                "pitch": 62,
                "velocity": 64,
                "duration": 0.1841,
                "tempo": 120.0
            },
            {
                "pitch": 67,
                "velocity": 64,
                "duration": 0.1841,
                "tempo": 120.0
            },
            {
                "pitch": 55,
                "velocity": 64,
                "duration": 0.7864,
                "tempo": 120.0
            },
            {
                "pitch": 59,
                "velocity": 64,
                "duration": 0.3932,
                "tempo": 120.0
            },
            {
                "pitch": 62,
                "velocity": 64,
                "duration": 0.3773,
                "tempo": 120.0
            },
            {
                "pitch": 60,
                "velocity": 64,
                "duration": 0.3864,
                "tempo": 120.0
            },
            {
                "pitch": 60,
                "velocity": 64,
                "duration": 0.0841,
                "tempo": 120.0
            },
            {
                "pitch": 60,
                "velocity": 64,
                "duration": 0.0818,
                "tempo": 120.0
            },
            {
                "pitch": 59,
                "velocity": 64,
                "duration": 0.3841,
                "tempo": 120.0
            },
            {
                "pitch": 65,
                "velocity": 64,
                "duration": 0.7864,
                "tempo": 120.0
            },
            {
                "pitch": 65,
                "velocity": 64,
                "duration": 0.3818,
                "tempo": 120.0
            },
            {
                "pitch": 64,
                "velocity": 64,
                "duration": 0.3818,
                "tempo": 120.0
            },
            {
                "pitch": 60,
                "velocity": 64,
                "duration": 0.3818,
                "tempo": 120.0
            },
            {
                "pitch": 60,
                "velocity": 64,
                "duration": 0.0818,
                "tempo": 120.0
            },
            {
                "pitch": 59,
                "velocity": 64,
                "duration": 0.5841,
                "tempo": 120.0
            },
            {
                "pitch": 60,
                "velocity": 64,
                "duration": 0.1864,
                "tempo": 120.0
            },
            {
                "pitch": 59,
                "velocity": 64,
                "duration": 0.1841,
                "tempo": 120.0
            },
            {
                "pitch": 59,
                "velocity": 64,
                "duration": 0.1841,
                "tempo": 120.0
            },
            {
                "pitch": 59,
                "velocity": 64,
                "duration": 0.0841,
                "tempo": 120.0
            },
            {
                "pitch": 64,
                "velocity": 64,
                "duration": 0.1841,
                "tempo": 120.0
            },
            {
                "pitch": 69,
                "velocity": 64,
                "duration": 0.1841,
                "tempo": 120.0
            },
            {
                "pitch": 64,
                "velocity": 64,
                "duration": 0.0818,
                "tempo": 120.0
            },
            {
                "pitch": 62,
                "velocity": 64,
                "duration": 0.0818,
                "tempo": 120.0
            },
            {
                "pitch": 60,
                "velocity": 64,
                "duration": 0.0818,
                "tempo": 120.0
            },
            {
                "pitch": 57,
                "velocity": 64,
                "duration": 0.1886,
                "tempo": 120.0
            },
            {
                "pitch": 60,
                "velocity": 64,
                "duration": 0.7841,
                "tempo": 120.0
            },
            {
                "pitch": 62,
                "velocity": 64,
                "duration": 0.7659,
                "tempo": 120.0
            },
            {
                "pitch": 60,
                "velocity": 64,
                "duration": 0.1886,
                "tempo": 120.0
            },
            {
                "pitch": 60,
                "velocity": 64,
                "duration": 0.1886,
                "tempo": 120.0
            },
            {
                "pitch": 62,
                "velocity": 64,
                "duration": 0.9705,
                "tempo": 120.0
            },
            {
                "pitch": 58,
                "velocity": 64,
                "duration": 0.1955,
                "tempo": 120.0
            },
            {
                "pitch": 58,
                "velocity": 64,
                "duration": 0.1977,
                "tempo": 120.0
            },
            {
                "pitch": 60,
                "velocity": 64,
                "duration": 1.1341,
                "tempo": 120.0
            },
            {
                "pitch": 52,
                "velocity": 64,
                "duration": 0.2068,
                "tempo": 120.0
            },
            {
                "pitch": 52,
                "velocity": 64,
                "duration": 0.2,
                "tempo": 120.0
            },
            {
                "pitch": 60,
                "velocity": 64,
                "duration": 0.3773,
                "tempo": 120.0
            },
            {
                "pitch": 55,
                "velocity": 64,
                "duration": 0.1818,
                "tempo": 120.0
            },
            {
                "pitch": 53,
                "velocity": 64,
                "duration": 0.1795,
                "tempo": 120.0
            },
            {
                "pitch": 53,
                "velocity": 64,
                "duration": 0.1886,
                "tempo": 120.0
            },
            {
                "pitch": 60,
                "velocity": 64,
                "duration": 0.375,
                "tempo": 120.0
            },
            {
                "pitch": 55,
                "velocity": 64,
                "duration": 0.1795,
                "tempo": 120.0
            },
            {
                "pitch": 55,
                "velocity": 64,
                "duration": 0.1795,
                "tempo": 120.0
            },
            {
                "pitch": 55,
                "velocity": 64,
                "duration": 0.1886,
                "tempo": 120.0
            },
            {
                "pitch": 64,
                "velocity": 64,
                "duration": 0.3841,
                "tempo": 120.0
            },
            {
                "pitch": 62,
                "velocity": 64,
                "duration": 0.1841,
                "tempo": 120.0
            },
            {
                "pitch": 60,
                "velocity": 64,
                "duration": 0.1841,
                "tempo": 120.0
            },
            {
                "pitch": 59,
                "velocity": 64,
                "duration": 0.1841,
                "tempo": 120.0
            },
            {
                "pitch": 57,
                "velocity": 64,
                "duration": 0.7841,
                "tempo": 120.0
            },
            {
                "pitch": 59,
                "velocity": 64,
                "duration": 0.7864,
                "tempo": 120.0
            },
            {
                "pitch": 52,
                "velocity": 64,
                "duration": 0.1841,
                "tempo": 120.0
            },
            {
                "pitch": 52,
                "velocity": 64,
                "duration": 0.1841,
                "tempo": 120.0
            },
            {
                "pitch": 60,
                "velocity": 64,
                "duration": 0.3773,
                "tempo": 120.0
            },
            {
                "pitch": 55,
                "velocity": 64,
                "duration": 0.1818,
                "tempo": 120.0
            },
            {
                "pitch": 53,
                "velocity": 64,
                "duration": 0.1818,
                "tempo": 120.0
            },
            {
                "pitch": 53,
                "velocity": 64,
                "duration": 0.1841,
                "tempo": 120.0
            },
            {
                "pitch": 60,
                "velocity": 64,
                "duration": 0.375,
                "tempo": 120.0
            },
            {
                "pitch": 55,
                "velocity": 64,
                "duration": 0.1795,
                "tempo": 120.0
            },
            {
                "pitch": 55,
                "velocity": 64,
                "duration": 0.1795,
                "tempo": 120.0
            },
            {
                "pitch": 55,
                "velocity": 64,
                "duration": 0.1864,
                "tempo": 120.0
            },
            {
                "pitch": 64,
                "velocity": 64,
                "duration": 0.3864,
                "tempo": 120.0
            },
            {
                "pitch": 62,
                "velocity": 64,
                "duration": 0.1818,
                "tempo": 120.0
            },
            {
                "pitch": 60,
                "velocity": 64,
                "duration": 0.1818,
                "tempo": 120.0
            },
            {
                "pitch": 59,
                "velocity": 64,
                "duration": 0.1818,
                "tempo": 120.0
            },
            {
                "pitch": 57,
                "velocity": 64,
                "duration": 0.7818,
                "tempo": 120.0
            },
            {
                "pitch": 59,
                "velocity": 64,
                "duration": 0.7795,
                "tempo": 120.0
            },
            {
                "pitch": 60,
                "velocity": 64,
                "duration": 1.5955,
                "tempo": 120.0
            },
            {
                "pitch": 62,
                "velocity": 64,
                "duration": 1.5932,
                "tempo": 120.0
            },
            {
                "pitch": 59,
                "velocity": 64,
                "duration": 1.5773,
                "tempo": 120.0
            },
            {
                "pitch": 59,
                "velocity": 64,
                "duration": 1.5818,
                "tempo": 120.0
            },
            {
                "pitch": 60,
                "velocity": 64,
                "duration": 1.5932,
                "tempo": 120.0
            },
            {
                "pitch": 62,
                "velocity": 64,
                "duration": 1.5864,
                "tempo": 120.0
            },
            {
                "pitch": 59,
                "velocity": 64,
                "duration": 1.5909,
                "tempo": 120.0
            },
            {
                "pitch": 59,
                "velocity": 64,
                "duration": 1.5818,
                "tempo": 120.0
            },
            {
                "pitch": 60,
                "velocity": 64,
                "duration": 1.6023,
                "tempo": 120.0
            },
            {
                "pitch": 62,
                "velocity": 64,
                "duration": 1.5932,
                "tempo": 120.0
            },
            {
                "pitch": 59,
                "velocity": 64,
                "duration": 1.5773,
                "tempo": 120.0
            },
            {
                "pitch": 59,
                "velocity": 64,
                "duration": 1.5977,
                "tempo": 120.0
            },
            {
                "pitch": 60,
                "velocity": 64,
                "duration": 1.5795,
                "tempo": 120.0
            },
            {
                "pitch": 59,
                "velocity": 64,
                "duration": 1.5864,
                "tempo": 120.0
            },
            {
                "pitch": 57,
                "velocity": 64,
                "duration": 1.5932,
                "tempo": 120.0
            },
            {
                "pitch": 59,
                "velocity": 64,
                "duration": 1.5841,
                "tempo": 120.0
            },
            {
                "pitch": 55,
                "velocity": 64,
                "duration": 1.5932,
                "tempo": 120.0
            },
            {
                "pitch": 57,
                "velocity": 64,
                "duration": 1.5886,
                "tempo": 120.0
            },
            {
                "pitch": 52,
                "velocity": 64,
                "duration": 0.1795,
                "tempo": 120.0
            },
            {
                "pitch": 52,
                "velocity": 64,
                "duration": 0.1864,
                "tempo": 120.0
            },
            {
                "pitch": 52,
                "velocity": 64,
                "duration": 0.175,
                "tempo": 120.0
            },
            {
                "pitch": 52,
                "velocity": 64,
                "duration": 0.1886,
                "tempo": 120.0
            }
        ]
    }
}