{
    "track_id": "Wonder Boy III (FM) - 09 - The Danger Zone",
    "mood": "angry",
    "instruments": {
        "Electric Guitar (clean)": [
            {
                "pitch": 31,
                "velocity": 4,
                "duration": 0.4136,
                "tempo": 120.0
            },
            {
                "pitch": 38,
                "velocity": 4,
                "duration": 0.1977,
                "tempo": 120.0
            },
            {
                "pitch": 30,
                "velocity": 4,
                "duration": 0.1955,
                "tempo": 120.0
            },
            {
                "pitch": 14,
                "velocity": 4,
                "duration": 0.2068,
                "tempo": 120.0
            },
            {
                "pitch": 30,
                "velocity": 4,
                "duration": 0.2045,
                "tempo": 120.0
            },
            {
                "pitch": 38,
                "velocity": 4,
                "duration": 0.2,
                "tempo": 120.0
            },
            {
                "pitch": 14,
                "velocity": 4,
                "duration": 0.0159,
                "tempo": 120.0
            },
            {
                "pitch": 19,
                "velocity": 4,
                "duration": 0.1841,
                "tempo": 120.0
            },
            {
                "pitch": 36,
                "velocity": 4,
                "duration": 0.1955,
                "tempo": 120.0
            },
            {
                "pitch": 19,
                "velocity": 4,
                "duration": 0.1977,
                "tempo": 120.0
            },
            {
                "pitch": 44,
                "velocity": 4,
                "duration": 0.2045,
                "tempo": 120.0
            },
            {
                "pitch": 19,
                "velocity": 4,
                "duration": 0.2045,
                "tempo": 120.0
            },
            {
                "pitch": 36,
                "velocity": 4,
                "duration": 0.2,
                "tempo": 120.0
            },
            {
                "pitch": 19,
                "velocity": 4,
                "duration": 0.2,
                "tempo": 120.0
            },
            {
                "pitch": 44,
                "velocity": 4,
                "duration": 0.1023,
                "tempo": 120.0
            },
            {
                "pitch": 19,
                "velocity": 4,
                "duration": 0.25,
                "tempo": 120.0
            },
            {
                "pitch": 22,
                "velocity": 4,
                "duration": 0.05,
                "tempo": 120.0
            },
            {
                "pitch": 39,
                "velocity": 4,
                "duration": 0.2,
                "tempo": 120.0
            },
            {
                "pitch": 92,
                "velocity": 4,
                "duration": 0.2023,
                "tempo": 120.0
            },
            {
                "pitch": 99,
                "velocity": 4,
                "duration": 0.2,
                "tempo": 120.0
            },
            {
                "pitch": 91,
                "velocity": 4,
                "duration": 0.2,
                "tempo": 120.0
            },
            {
                "pitch": 75,
                "velocity": 4,
                "duration": 0.2,
                "tempo": 120.0
            },
            {
                "pitch": 91,
                "velocity": 4,
                "duration": 0.2,
                "tempo": 120.0
            },
            {
                "pitch": 99,
                "velocity": 4,
                "duration": 0.1023,
                "tempo": 120.0
            },
            {
                "pitch": 25,
                "velocity": 4,
                "duration": 0.1,
                "tempo": 120.0
            },
            {
                "pitch": 97,
                "velocity": 4,
                "duration": 0.2,
                "tempo": 120.0
            },
            {
                "pitch": 17,
                "velocity": 4,
                "duration": 0.2,
                "tempo": 120.0
            },
            {
                "pitch": 97,
                "velocity": 4,
                "duration": 0.2,
                "tempo": 120.0
            },
            {
                "pitch": 25,
                "velocity": 4,
                "duration": 0.2,
                "tempo": 120.0
            },
            {
                "pitch": 97,
                "velocity": 4,
                "duration": 0.2023,
                "tempo": 120.0
            },
            {
                "pitch": 17,
                "velocity": 4,
                "duration": 0.2,
                "tempo": 120.0
            },
            {
                "pitch": 97,
                "velocity": 4,
                "duration": 0.2,
                "tempo": 120.0
            },
            {
                "pitch": 25,
                "velocity": 4,
                "duration": 0.1023,
                "tempo": 120.0
            },
            {
                "pitch": 97,
                "velocity": 4,
                "duration": 0.3023,
                "tempo": 120.0
            },
            {
                "pitch": 18,
                "velocity": 4,
                "duration": 0.2341,
                "tempo": 120.0
            },
            {
                "pitch": 46,
                "velocity": 4,
                "duration": 0.1659,
                "tempo": 120.0
            },
            {
                "pitch": 54,
                "velocity": 4,
                "duration": 0.2,
                "tempo": 120.0
            },
            {
                "pitch": 45,
                "velocity": 4,
                "duration": 0.2,
                "tempo": 120.0
            },
            {
                "pitch": 29,
                "velocity": 4,
                "duration": 0.2023,
                "tempo": 120.0
            },
            {
                "pitch": 45,
                "velocity": 4,
                "duration": 0.2023,
                "tempo": 120.0
            },
            {
                "pitch": 54,
                "velocity": 4,
                "duration": 0.2,
                "tempo": 120.0
            },
            {
                "pitch": 29,
                "velocity": 4,
                "duration": 0.2,
                "tempo": 120.0
            },
            {
                "pitch": 45,
                "velocity": 4,
                "duration": 0.2,
                "tempo": 120.0
            },
            {
                "pitch": 29,
                "velocity": 4,
                "duration": 0.2023,
                "tempo": 120.0
            },
            {
                "pitch": 53,
                "velocity": 4,
                "duration": 0.2,
                "tempo": 120.0
            },
            {
                "pitch": 29,
                "velocity": 4,
                "duration": 0.2023,
                "tempo": 120.0
            },
            {
                "pitch": 45,
                "velocity": 4,
                "duration": 0.2023,
                "tempo": 120.0
            },
            {
                "pitch": 29,
                "velocity": 4,
                "duration": 0.2,
                "tempo": 120.0
            },
            {
                "pitch": 53,
                "velocity": 4,
                "duration": 0.1,
                "tempo": 120.0
            },
            {
                "pitch": 29,
                "velocity": 4,
                "duration": 0.3023,
                "tempo": 120.0
            },
            {
                "pitch": 46,
                "velocity": 4,
                "duration": 0.3909,
                "tempo": 120.0
            },
            {
                "pitch": 54,
                "velocity": 4,
                "duration": 0.2045,
                "tempo": 120.0
            },
            {
                "pitch": 45,
                "velocity": 4,
                "duration": 0.2068,
                "tempo": 120.0
            },
            {
                "pitch": 29,
                "velocity": 4,
                "duration": 0.2,
                "tempo": 120.0
            },
            {
                "pitch": 45,
                "velocity": 4,
                "duration": 0.2023,
                "tempo": 120.0
            },
            {
                "pitch": 54,
                "velocity": 4,
                "duration": 0.0159,
                "tempo": 120.0
            },
            {
                "pitch": 37,
                "velocity": 4,
                "duration": 0.0159,
                "tempo": 120.0
            },
            {
                "pitch": 28,
                "velocity": 4,
                "duration": 0.1705,
                "tempo": 120.0
            },
            {
                "pitch": 100,
                "velocity": 4,
                "duration": 0.2,
                "tempo": 120.0
            },
            {
                "pitch": 19,
                "velocity": 4,
                "duration": 0.2,
                "tempo": 120.0
            },
            {
                "pitch": 100,
                "velocity": 4,
                "duration": 0.2,
                "tempo": 120.0
            },
            {
                "pitch": 28,
                "velocity": 4,
                "duration": 0.2023,
                "tempo": 120.0
            },
            {
                "pitch": 100,
                "velocity": 4,
                "duration": 0.2,
                "tempo": 120.0
            },
            {
                "pitch": 19,
                "velocity": 4,
                "duration": 0.2023,
                "tempo": 120.0
            },
            {
                "pitch": 100,
                "velocity": 4,
                "duration": 0.2,
                "tempo": 120.0
            },
            {
                "pitch": 28,
                "velocity": 4,
                "duration": 0.1023,
                "tempo": 120.0
            },
            {
                "pitch": 100,
                "velocity": 4,
                "duration": 0.2864,
                "tempo": 120.0
            },
            {
                "pitch": 100,
                "velocity": 4,
                "duration": 0.0159,
                "tempo": 120.0
            },
            {
                "pitch": 21,
                "velocity": 4,
                "duration": 0.4023,
                "tempo": 120.0
            },
            {
                "pitch": 30,
                "velocity": 4,
                "duration": 0.1909,
                "tempo": 120.0
            },
            {
                "pitch": 19,
                "velocity": 4,
                "duration": 0.1932,
                "tempo": 120.0
            },
            {
                "pitch": 100,
                "velocity": 4,
                "duration": 0.2,
                "tempo": 120.0
            },
            {
                "pitch": 19,
                "velocity": 4,
                "duration": 0.2023,
                "tempo": 120.0
            },
            {
                "pitch": 30,
                "velocity": 4,
                "duration": 0.2023,
                "tempo": 120.0
            },
            {
                "pitch": 100,
                "velocity": 4,
                "duration": 0.2,
                "tempo": 120.0
            },
            {
                "pitch": 19,
                "velocity": 4,
                "duration": 0.2068,
                "tempo": 120.0
            },
            {
                "pitch": 100,
                "velocity": 4,
                "duration": 0.2023,
                "tempo": 120.0
            },
            {
                "pitch": 28,
                "velocity": 4,
                "duration": 0.1977,
                "tempo": 120.0
            },
            {
                "pitch": 100,
                "velocity": 4,
                "duration": 0.1955,
                "tempo": 120.0
            },
            {
                "pitch": 19,
                "velocity": 4,
                "duration": 0.2023,
                "tempo": 120.0
            },
            {
                "pitch": 100,
                "velocity": 4,
                "duration": 0.2023,
                "tempo": 120.0
            },
            {
                "pitch": 28,
                "velocity": 4,
                "duration": 0.1,
                "tempo": 120.0
            },
            {
                "pitch": 100,
                "velocity": 4,
                "duration": 0.0341,
                "tempo": 120.0
            },
            {
                "pitch": 14,
                "velocity": 4,
                "duration": 0.2682,
                "tempo": 120.0
            },
            {
                "pitch": 31,
                "velocity": 4,
                "duration": 0.4091,
                "tempo": 120.0
            },
            {
                "pitch": 38,
                "velocity": 4,
                "duration": 0.1955,
                "tempo": 120.0
            },
            {
                "pitch": 30,
                "velocity": 4,
                "duration": 0.1977,
                "tempo": 120.0
            },
            {
                "pitch": 14,
                "velocity": 4,
                "duration": 0.2068,
                "tempo": 120.0
            },
            {
                "pitch": 30,
                "velocity": 4,
                "duration": 0.2023,
                "tempo": 120.0
            },
            {
                "pitch": 38,
                "velocity": 4,
                "duration": 0.1977,
                "tempo": 120.0
            },
            {
                "pitch": 14,
                "velocity": 4,
                "duration": 0.1977,
                "tempo": 120.0
            },
            {
                "pitch": 30,
                "velocity": 4,
                "duration": 0.2045,
                "tempo": 120.0
            },
            {
                "pitch": 14,
                "velocity": 4,
                "duration": 0.2045,
                "tempo": 120.0
            },
            {
                "pitch": 38,
                "velocity": 4,
                "duration": 0.1955,
                "tempo": 120.0
            },
            {
                "pitch": 14,
                "velocity": 4,
                "duration": 0.1955,
                "tempo": 120.0
            },
            {
                "pitch": 30,
                "velocity": 4,
                "duration": 0.2,
                "tempo": 120.0
            },
            {
                "pitch": 14,
                "velocity": 4,
                "duration": 0.2023,
                "tempo": 120.0
            },
            {
                "pitch": 38,
                "velocity": 4,
                "duration": 0.1,
                "tempo": 120.0
            },
            {
                "pitch": 14,
                "velocity": 4,
                "duration": 0.3023,
                "tempo": 120.0
            },
            {
                "pitch": 31,
                "velocity": 4,
                "duration": 0.4091,
                "tempo": 120.0
            },
            {
                "pitch": 38,
                "velocity": 4,
                "duration": 0.0977,
                "tempo": 120.0
            },
            {
                "pitch": 44,
                "velocity": 4,
                "duration": 0.0977,
                "tempo": 120.0
            },
            {
                "pitch": 36,
                "velocity": 4,
                "duration": 0.1977,
                "tempo": 120.0
            },
            {
                "pitch": 19,
                "velocity": 4,
                "duration": 0.2023,
                "tempo": 120.0
            },
            {
                "pitch": 36,
                "velocity": 4,
                "duration": 0.2,
                "tempo": 120.0
            },
            {
                "pitch": 44,
                "velocity": 4,
                "duration": 0.2,
                "tempo": 120.0
            },
            {
                "pitch": 19,
                "velocity": 4,
                "duration": 0.2023,
                "tempo": 120.0
            },
            {
                "pitch": 36,
                "velocity": 4,
                "duration": 0.2045,
                "tempo": 120.0
            },
            {
                "pitch": 19,
                "velocity": 4,
                "duration": 0.2045,
                "tempo": 120.0
            },
            {
                "pitch": 44,
                "velocity": 4,
                "duration": 0.1955,
                "tempo": 120.0
            },
            {
                "pitch": 22,
                "velocity": 4,
                "duration": 0.1955,
                "tempo": 120.0
            },
            {
                "pitch": 38,
                "velocity": 4,
                "duration": 0.0341,
                "tempo": 120.0
            },
            {
                "pitch": 91,
                "velocity": 4,
                "duration": 0.1659,
                "tempo": 120.0
            },
            {
                "pitch": 75,
                "velocity": 4,
                "duration": 0.2023,
                "tempo": 120.0
            },
            {
                "pitch": 99,
                "velocity": 4,
                "duration": 0.1,
                "tempo": 120.0
            },
            {
                "pitch": 75,
                "velocity": 4,
                "duration": 0.3023,
                "tempo": 120.0
            },
            {
                "pitch": 92,
                "velocity": 4,
                "duration": 0.4182,
                "tempo": 120.0
            },
            {
                "pitch": 25,
                "velocity": 4,
                "duration": 0.1932,
                "tempo": 120.0
            },
            {
                "pitch": 17,
                "velocity": 4,
                "duration": 0.1909,
                "tempo": 120.0
            },
            {
                "pitch": 97,
                "velocity": 4,
                "duration": 0.2068,
                "tempo": 120.0
            },
            {
                "pitch": 17,
                "velocity": 4,
                "duration": 0.2045,
                "tempo": 120.0
            },
            {
                "pitch": 25,
                "velocity": 4,
                "duration": 0.1955,
                "tempo": 120.0
            },
            {
                "pitch": 97,
                "velocity": 4,
                "duration": 0.1977,
                "tempo": 120.0
            },
            {
                "pitch": 17,
                "velocity": 4,
                "duration": 0.2114,
                "tempo": 120.0
            },
            {
                "pitch": 97,
                "velocity": 4,
                "duration": 0.2068,
                "tempo": 120.0
            },
            {
                "pitch": 25,
                "velocity": 4,
                "duration": 0.1909,
                "tempo": 120.0
            },
            {
                "pitch": 97,
                "velocity": 4,
                "duration": 0.1932,
                "tempo": 120.0
            },
            {
                "pitch": 17,
                "velocity": 4,
                "duration": 0.0659,
                "tempo": 120.0
            },
            {
                "pitch": 45,
                "velocity": 4,
                "duration": 0.1364,
                "tempo": 120.0
            },
            {
                "pitch": 29,
                "velocity": 4,
                "duration": 0.2,
                "tempo": 120.0
            },
            {
                "pitch": 53,
                "velocity": 4,
                "duration": 0.1,
                "tempo": 120.0
            },
            {
                "pitch": 29,
                "velocity": 4,
                "duration": 0.3,
                "tempo": 120.0
            },
            {
                "pitch": 46,
                "velocity": 4,
                "duration": 0.4205,
                "tempo": 120.0
            },
            {
                "pitch": 54,
                "velocity": 4,
                "duration": 0.1909,
                "tempo": 120.0
            },
            {
                "pitch": 45,
                "velocity": 4,
                "duration": 0.1932,
                "tempo": 120.0
            },
            {
                "pitch": 29,
                "velocity": 4,
                "duration": 0.2045,
                "tempo": 120.0
            },
            {
                "pitch": 45,
                "velocity": 4,
                "duration": 0.2045,
                "tempo": 120.0
            },
            {
                "pitch": 54,
                "velocity": 4,
                "duration": 0.1955,
                "tempo": 120.0
            },
            {
                "pitch": 29,
                "velocity": 4,
                "duration": 0.1977,
                "tempo": 120.0
            },
            {
                "pitch": 45,
                "velocity": 4,
                "duration": 0.2114,
                "tempo": 120.0
            },
            {
                "pitch": 29,
                "velocity": 4,
                "duration": 0.2068,
                "tempo": 120.0
            },
            {
                "pitch": 53,
                "velocity": 4,
                "duration": 0.1909,
                "tempo": 120.0
            },
            {
                "pitch": 29,
                "velocity": 4,
                "duration": 0.1932,
                "tempo": 120.0
            },
            {
                "pitch": 45,
                "velocity": 4,
                "duration": 0.2023,
                "tempo": 120.0
            },
            {
                "pitch": 29,
                "velocity": 4,
                "duration": 0.2,
                "tempo": 120.0
            },
            {
                "pitch": 53,
                "velocity": 4,
                "duration": 0.1,
                "tempo": 120.0
            },
            {
                "pitch": 29,
                "velocity": 4,
                "duration": 0.3023,
                "tempo": 120.0
            },
            {
                "pitch": 46,
                "velocity": 4,
                "duration": 0.3159,
                "tempo": 120.0
            },
            {
                "pitch": 30,
                "velocity": 4,
                "duration": 0.0364,
                "tempo": 120.0
            },
            {
                "pitch": 21,
                "velocity": 4,
                "duration": 0.0659,
                "tempo": 120.0
            },
            {
                "pitch": 30,
                "velocity": 4,
                "duration": 0.1909,
                "tempo": 120.0
            },
            {
                "pitch": 19,
                "velocity": 4,
                "duration": 0.1932,
                "tempo": 120.0
            },
            {
                "pitch": 100,
                "velocity": 4,
                "duration": 0.2068,
                "tempo": 120.0
            },
            {
                "pitch": 19,
                "velocity": 4,
                "duration": 0.2023,
                "tempo": 120.0
            },
            {
                "pitch": 30,
                "velocity": 4,
                "duration": 0.1955,
                "tempo": 120.0
            },
            {
                "pitch": 100,
                "velocity": 4,
                "duration": 0.1977,
                "tempo": 120.0
            },
            {
                "pitch": 19,
                "velocity": 4,
                "duration": 0.2114,
                "tempo": 120.0
            },
            {
                "pitch": 100,
                "velocity": 4,
                "duration": 0.2091,
                "tempo": 120.0
            },
            {
                "pitch": 28,
                "velocity": 4,
                "duration": 0.1909,
                "tempo": 120.0
            },
            {
                "pitch": 100,
                "velocity": 4,
                "duration": 0.1909,
                "tempo": 120.0
            },
            {
                "pitch": 19,
                "velocity": 4,
                "duration": 0.2,
                "tempo": 120.0
            },
            {
                "pitch": 100,
                "velocity": 4,
                "duration": 0.2,
                "tempo": 120.0
            },
            {
                "pitch": 28,
                "velocity": 4,
                "duration": 0.1,
                "tempo": 120.0
            },
            {
                "pitch": 100,
                "velocity": 4,
                "duration": 0.3023,
                "tempo": 120.0
            },
            {
                "pitch": 21,
                "velocity": 4,
                "duration": 0.4182,
                "tempo": 120.0
            },
            {
                "pitch": 30,
                "velocity": 4,
                "duration": 0.1909,
                "tempo": 120.0
            },
            {
                "pitch": 19,
                "velocity": 4,
                "duration": 0.1932,
                "tempo": 120.0
            },
            {
                "pitch": 100,
                "velocity": 4,
                "duration": 0.2068,
                "tempo": 120.0
            },
            {
                "pitch": 19,
                "velocity": 4,
                "duration": 0.2045,
                "tempo": 120.0
            },
            {
                "pitch": 30,
                "velocity": 4,
                "duration": 0.2,
                "tempo": 120.0
            },
            {
                "pitch": 100,
                "velocity": 4,
                "duration": 0.2,
                "tempo": 120.0
            },
            {
                "pitch": 19,
                "velocity": 4,
                "duration": 0.2045,
                "tempo": 120.0
            },
            {
                "pitch": 100,
                "velocity": 4,
                "duration": 0.2045,
                "tempo": 120.0
            },
            {
                "pitch": 28,
                "velocity": 4,
                "duration": 0.0318,
                "tempo": 120.0
            },
            {
                "pitch": 38,
                "velocity": 4,
                "duration": 0.1591,
                "tempo": 120.0
            },
            {
                "pitch": 14,
                "velocity": 4,
                "duration": 0.1932,
                "tempo": 120.0
            },
            {
                "pitch": 30,
                "velocity": 4,
                "duration": 0.2,
                "tempo": 120.0
            },
            {
                "pitch": 14,
                "velocity": 4,
                "duration": 0.2023,
                "tempo": 120.0
            },
            {
                "pitch": 38,
                "velocity": 4,
                "duration": 0.1,
                "tempo": 120.0
            },
            {
                "pitch": 14,
                "velocity": 4,
                "duration": 0.3,
                "tempo": 120.0
            },
            {
                "pitch": 31,
                "velocity": 4,
                "duration": 0.4182,
                "tempo": 120.0
            },
            {
                "pitch": 38,
                "velocity": 4,
                "duration": 0.1932,
                "tempo": 120.0
            },
            {
                "pitch": 30,
                "velocity": 4,
                "duration": 0.1932,
                "tempo": 120.0
            },
            {
                "pitch": 14,
                "velocity": 4,
                "duration": 0.2045,
                "tempo": 120.0
            },
            {
                "pitch": 30,
                "velocity": 4,
                "duration": 0.2045,
                "tempo": 120.0
            },
            {
                "pitch": 38,
                "velocity": 4,
                "duration": 0.2,
                "tempo": 120.0
            },
            {
                "pitch": 14,
                "velocity": 4,
                "duration": 0.2,
                "tempo": 120.0
            },
            {
                "pitch": 30,
                "velocity": 4,
                "duration": 0.2068,
                "tempo": 120.0
            },
            {
                "pitch": 14,
                "velocity": 4,
                "duration": 0.2023,
                "tempo": 120.0
            },
            {
                "pitch": 38,
                "velocity": 4,
                "duration": 0.1909,
                "tempo": 120.0
            },
            {
                "pitch": 14,
                "velocity": 4,
                "duration": 0.1932,
                "tempo": 120.0
            },
            {
                "pitch": 30,
                "velocity": 4,
                "duration": 0.2,
                "tempo": 120.0
            },
            {
                "pitch": 14,
                "velocity": 4,
                "duration": 0.1659,
                "tempo": 120.0
            },
            {
                "pitch": 19,
                "velocity": 4,
                "duration": 0.0341,
                "tempo": 120.0
            },
            {
                "pitch": 44,
                "velocity": 4,
                "duration": 0.1045,
                "tempo": 120.0
            },
            {
                "pitch": 19,
                "velocity": 4,
                "duration": 0.3182,
                "tempo": 120.0
            },
            {
                "pitch": 37,
                "velocity": 4,
                "duration": 0.4,
                "tempo": 120.0
            },
            {
                "pitch": 44,
                "velocity": 4,
                "duration": 0.1955,
                "tempo": 120.0
            },
            {
                "pitch": 36,
                "velocity": 4,
                "duration": 0.1977,
                "tempo": 120.0
            },
            {
                "pitch": 19,
                "velocity": 4,
                "duration": 0.1977,
                "tempo": 120.0
            },
            {
                "pitch": 36,
                "velocity": 4,
                "duration": 0.2023,
                "tempo": 120.0
            },
            {
                "pitch": 27,
                "velocity": 4,
                "duration": 0.1,
                "tempo": 120.0
            },
            {
                "pitch": 22,
                "velocity": 4,
                "duration": 0.3023,
                "tempo": 120.0
            },
            {
                "pitch": 39,
                "velocity": 4,
                "duration": 0.0341,
                "tempo": 120.0
            },
            {
                "pitch": 92,
                "velocity": 4,
                "duration": 0.375,
                "tempo": 120.0
            },
            {
                "pitch": 99,
                "velocity": 4,
                "duration": 0.1955,
                "tempo": 120.0
            },
            {
                "pitch": 91,
                "velocity": 4,
                "duration": 0.1977,
                "tempo": 120.0
            },
            {
                "pitch": 75,
                "velocity": 4,
                "duration": 0.2,
                "tempo": 120.0
            },
            {
                "pitch": 91,
                "velocity": 4,
                "duration": 0.1,
                "tempo": 120.0
            },
            {
                "pitch": 17,
                "velocity": 4,
                "duration": 0.1,
                "tempo": 120.0
            },
            {
                "pitch": 105,
                "velocity": 4,
                "duration": 0.1,
                "tempo": 120.0
            },
            {
                "pitch": 97,
                "velocity": 4,
                "duration": 0.3,
                "tempo": 120.0
            },
            {
                "pitch": 104,
                "velocity": 4,
                "duration": 1.0068,
                "tempo": 120.0
            },
            {
                "pitch": 15,
                "velocity": 4,
                "duration": 0.3023,
                "tempo": 120.0
            },
            {
                "pitch": 97,
                "velocity": 4,
                "duration": 0.2886,
                "tempo": 120.0
            },
            {
                "pitch": 104,
                "velocity": 4,
                "duration": 0.2409,
                "tempo": 120.0
            },
            {
                "pitch": 36,
                "velocity": 4,
                "duration": 0.7795,
                "tempo": 120.0
            },
            {
                "pitch": 44,
                "velocity": 4,
                "duration": 0.2977,
                "tempo": 120.0
            },
            {
                "pitch": 29,
                "velocity": 4,
                "duration": 0.2886,
                "tempo": 120.0
            },
            {
                "pitch": 46,
                "velocity": 4,
                "duration": 0.4205,
                "tempo": 120.0
            },
            {
                "pitch": 54,
                "velocity": 4,
                "duration": 0.1955,
                "tempo": 120.0
            },
            {
                "pitch": 45,
                "velocity": 4,
                "duration": 0.1977,
                "tempo": 120.0
            },
            {
                "pitch": 29,
                "velocity": 4,
                "duration": 0.2,
                "tempo": 120.0
            },
            {
                "pitch": 45,
                "velocity": 4,
                "duration": 0.2023,
                "tempo": 120.0
            },
            {
                "pitch": 37,
                "velocity": 4,
                "duration": 0.1,
                "tempo": 120.0
            },
            {
                "pitch": 29,
                "velocity": 4,
                "duration": 0.3,
                "tempo": 120.0
            },
            {
                "pitch": 46,
                "velocity": 4,
                "duration": 0.4091,
                "tempo": 120.0
            },
            {
                "pitch": 54,
                "velocity": 4,
                "duration": 0.1955,
                "tempo": 120.0
            },
            {
                "pitch": 45,
                "velocity": 4,
                "duration": 0.1977,
                "tempo": 120.0
            },
            {
                "pitch": 29,
                "velocity": 4,
                "duration": 0.2,
                "tempo": 120.0
            },
            {
                "pitch": 45,
                "velocity": 4,
                "duration": 0.2,
                "tempo": 120.0
            },
            {
                "pitch": 37,
                "velocity": 4,
                "duration": 0.0341,
                "tempo": 120.0
            },
            {
                "pitch": 21,
                "velocity": 4,
                "duration": 0.0682,
                "tempo": 120.0
            },
            {
                "pitch": 100,
                "velocity": 4,
                "duration": 0.3,
                "tempo": 120.0
            },
            {
                "pitch": 107,
                "velocity": 4,
                "duration": 1.0091,
                "tempo": 120.0
            },
            {
                "pitch": 19,
                "velocity": 4,
                "duration": 0.2977,
                "tempo": 120.0
            },
            {
                "pitch": 100,
                "velocity": 4,
                "duration": 0.2886,
                "tempo": 120.0
            },
            {
                "pitch": 107,
                "velocity": 4,
                "duration": 1.0205,
                "tempo": 120.0
            },
            {
                "pitch": 19,
                "velocity": 4,
                "duration": 0.3023,
                "tempo": 120.0
            },
            {
                "pitch": 100,
                "velocity": 4,
                "duration": 0.3,
                "tempo": 120.0
            },
            {
                "pitch": 19,
                "velocity": 4,
                "duration": 0.3841,
                "tempo": 120.0
            },
            {
                "pitch": 27,
                "velocity": 4,
                "duration": 0.2068,
                "tempo": 120.0
            },
            {
                "pitch": 19,
                "velocity": 4,
                "duration": 0.6045,
                "tempo": 120.0
            },
            {
                "pitch": 108,
                "velocity": 4,
                "duration": 0.1,
                "tempo": 120.0
            },
            {
                "pitch": 100,
                "velocity": 4,
                "duration": 0.3,
                "tempo": 120.0
            },
            {
                "pitch": 19,
                "velocity": 4,
                "duration": 0.1364,
                "tempo": 120.0
            },
            {
                "pitch": 30,
                "velocity": 4,
                "duration": 0.275,
                "tempo": 120.0
            },
            {
                "pitch": 36,
                "velocity": 4,
                "duration": 0.7932,
                "tempo": 120.0
            },
            {
                "pitch": 21,
                "velocity": 4,
                "duration": 0.0977,
                "tempo": 120.0
            },
            {
                "pitch": 14,
                "velocity": 4,
                "duration": 0.2977,
                "tempo": 120.0
            },
            {
                "pitch": 28,
                "velocity": 4,
                "duration": 0.4091,
                "tempo": 120.0
            },
            {
                "pitch": 36,
                "velocity": 4,
                "duration": 0.2068,
                "tempo": 120.0
            },
            {
                "pitch": 28,
                "velocity": 4,
                "duration": 0.6045,
                "tempo": 120.0
            },
            {
                "pitch": 21,
                "velocity": 4,
                "duration": 0.4023,
                "tempo": 120.0
            },
            {
                "pitch": 36,
                "velocity": 4,
                "duration": 0.8,
                "tempo": 120.0
            },
            {
                "pitch": 15,
                "velocity": 4,
                "duration": 0.2932,
                "tempo": 120.0
            },
            {
                "pitch": 19,
                "velocity": 4,
                "duration": 0.5,
                "tempo": 120.0
            },
            {
                "pitch": 35,
                "velocity": 4,
                "duration": 0.4023,
                "tempo": 120.0
            },
            {
                "pitch": 43,
                "velocity": 4,
                "duration": 0.2,
                "tempo": 120.0
            },
            {
                "pitch": 35,
                "velocity": 4,
                "duration": 0.6091,
                "tempo": 120.0
            },
            {
                "pitch": 27,
                "velocity": 4,
                "duration": 0.0341,
                "tempo": 120.0
            },
            {
                "pitch": 30,
                "velocity": 4,
                "duration": 0.0659,
                "tempo": 120.0
            },
            {
                "pitch": 22,
                "velocity": 4,
                "duration": 0.2273,
                "tempo": 120.0
            },
            {
                "pitch": 75,
                "velocity": 4,
                "duration": 0.0659,
                "tempo": 120.0
            },
            {
                "pitch": 90,
                "velocity": 4,
                "duration": 0.4114,
                "tempo": 120.0
            },
            {
                "pitch": 98,
                "velocity": 4,
                "duration": 0.7,
                "tempo": 120.0
            },
            {
                "pitch": 24,
                "velocity": 4,
                "duration": 0.1,
                "tempo": 120.0
            },
            {
                "pitch": 105,
                "velocity": 4,
                "duration": 0.0977,
                "tempo": 120.0
            },
            {
                "pitch": 97,
                "velocity": 4,
                "duration": 0.2955,
                "tempo": 120.0
            },
            {
                "pitch": 15,
                "velocity": 4,
                "duration": 0.4,
                "tempo": 120.0
            },
            {
                "pitch": 24,
                "velocity": 4,
                "duration": 0.2045,
                "tempo": 120.0
            },
            {
                "pitch": 15,
                "velocity": 4,
                "duration": 0.6136,
                "tempo": 120.0
            },
            {
                "pitch": 105,
                "velocity": 4,
                "duration": 0.3932,
                "tempo": 120.0
            },
            {
                "pitch": 24,
                "velocity": 4,
                "duration": 0.1341,
                "tempo": 120.0
            },
            {
                "pitch": 52,
                "velocity": 4,
                "duration": 0.6659,
                "tempo": 120.0
            },
            {
                "pitch": 30,
                "velocity": 4,
                "duration": 0.8023,
                "tempo": 120.0
            },
            {
                "pitch": 46,
                "velocity": 4,
                "duration": 0.4,
                "tempo": 120.0
            },
            {
                "pitch": 54,
                "velocity": 4,
                "duration": 0.2023,
                "tempo": 120.0
            },
            {
                "pitch": 45,
                "velocity": 4,
                "duration": 0.2,
                "tempo": 120.0
            },
            {
                "pitch": 29,
                "velocity": 4,
                "duration": 0.2,
                "tempo": 120.0
            },
            {
                "pitch": 45,
                "velocity": 4,
                "duration": 0.2,
                "tempo": 120.0
            },
            {
                "pitch": 54,
                "velocity": 4,
                "duration": 0.2023,
                "tempo": 120.0
            },
            {
                "pitch": 29,
                "velocity": 4,
                "duration": 0.2023,
                "tempo": 120.0
            },
            {
                "pitch": 45,
                "velocity": 4,
                "duration": 0.2,
                "tempo": 120.0
            },
            {
                "pitch": 29,
                "velocity": 4,
                "duration": 0.2,
                "tempo": 120.0
            },
            {
                "pitch": 53,
                "velocity": 4,
                "duration": 0.2,
                "tempo": 120.0
            },
            {
                "pitch": 29,
                "velocity": 4,
                "duration": 0.2023,
                "tempo": 120.0
            },
            {
                "pitch": 45,
                "velocity": 4,
                "duration": 0.2,
                "tempo": 120.0
            },
            {
                "pitch": 29,
                "velocity": 4,
                "duration": 0.2023,
                "tempo": 120.0
            },
            {
                "pitch": 37,
                "velocity": 4,
                "duration": 0.0159,
                "tempo": 120.0
            },
            {
                "pitch": 28,
                "velocity": 4,
                "duration": 0.0841,
                "tempo": 120.0
            },
            {
                "pitch": 100,
                "velocity": 4,
                "duration": 0.3,
                "tempo": 120.0
            },
            {
                "pitch": 21,
                "velocity": 4,
                "duration": 0.4023,
                "tempo": 120.0
            },
            {
                "pitch": 30,
                "velocity": 4,
                "duration": 0.2,
                "tempo": 120.0
            },
            {
                "pitch": 19,
                "velocity": 4,
                "duration": 0.2,
                "tempo": 120.0
            },
            {
                "pitch": 100,
                "velocity": 4,
                "duration": 0.2023,
                "tempo": 120.0
            },
            {
                "pitch": 19,
                "velocity": 4,
                "duration": 0.2,
                "tempo": 120.0
            },
            {
                "pitch": 30,
                "velocity": 4,
                "duration": 0.2023,
                "tempo": 120.0
            },
            {
                "pitch": 100,
                "velocity": 4,
                "duration": 0.2023,
                "tempo": 120.0
            },
            {
                "pitch": 19,
                "velocity": 4,
                "duration": 0.2,
                "tempo": 120.0
            },
            {
                "pitch": 100,
                "velocity": 4,
                "duration": 0.2,
                "tempo": 120.0
            },
            {
                "pitch": 28,
                "velocity": 4,
                "duration": 0.2,
                "tempo": 120.0
            },
            {
                "pitch": 100,
                "velocity": 4,
                "duration": 0.2023,
                "tempo": 120.0
            },
            {
                "pitch": 19,
                "velocity": 4,
                "duration": 0.2,
                "tempo": 120.0
            },
            {
                "pitch": 100,
                "velocity": 4,
                "duration": 0.2,
                "tempo": 120.0
            },
            {
                "pitch": 28,
                "velocity": 4,
                "duration": 0.1,
                "tempo": 120.0
            },
            {
                "pitch": 100,
                "velocity": 4,
                "duration": 0.3023,
                "tempo": 120.0
            },
            {
                "pitch": 21,
                "velocity": 4,
                "duration": 0.4023,
                "tempo": 120.0
            },
            {
                "pitch": 30,
                "velocity": 4,
                "duration": 0.2,
                "tempo": 120.0
            },
            {
                "pitch": 19,
                "velocity": 4,
                "duration": 0.2,
                "tempo": 120.0
            },
            {
                "pitch": 100,
                "velocity": 4,
                "duration": 0.2023,
                "tempo": 120.0
            },
            {
                "pitch": 19,
                "velocity": 4,
                "duration": 0.2,
                "tempo": 120.0
            },
            {
                "pitch": 30,
                "velocity": 4,
                "duration": 0.15,
                "tempo": 120.0
            },
            {
                "pitch": 38,
                "velocity": 4,
                "duration": 0.05,
                "tempo": 120.0
            },
            {
                "pitch": 14,
                "velocity": 4,
                "duration": 0.2,
                "tempo": 120.0
            },
            {
                "pitch": 30,
                "velocity": 4,
                "duration": 0.2023,
                "tempo": 120.0
            },
            {
                "pitch": 14,
                "velocity": 4,
                "duration": 0.2,
                "tempo": 120.0
            },
            {
                "pitch": 38,
                "velocity": 4,
                "duration": 0.2023,
                "tempo": 120.0
            },
            {
                "pitch": 14,
                "velocity": 4,
                "duration": 0.2023,
                "tempo": 120.0
            },
            {
                "pitch": 30,
                "velocity": 4,
                "duration": 0.2,
                "tempo": 120.0
            },
            {
                "pitch": 14,
                "velocity": 4,
                "duration": 0.2,
                "tempo": 120.0
            },
            {
                "pitch": 38,
                "velocity": 4,
                "duration": 0.1,
                "tempo": 120.0
            },
            {
                "pitch": 14,
                "velocity": 4,
                "duration": 0.3023,
                "tempo": 120.0
            },
            {
                "pitch": 31,
                "velocity": 4,
                "duration": 0.4,
                "tempo": 120.0
            },
            {
                "pitch": 38,
                "velocity": 4,
                "duration": 0.2,
                "tempo": 120.0
            },
            {
                "pitch": 30,
                "velocity": 4,
                "duration": 0.2023,
                "tempo": 120.0
            },
            {
                "pitch": 14,
                "velocity": 4,
                "duration": 0.2023,
                "tempo": 120.0
            },
            {
                "pitch": 30,
                "velocity": 4,
                "duration": 0.2,
                "tempo": 120.0
            },
            {
                "pitch": 38,
                "velocity": 4,
                "duration": 0.2,
                "tempo": 120.0
            },
            {
                "pitch": 14,
                "velocity": 4,
                "duration": 0.2,
                "tempo": 120.0
            },
            {
                "pitch": 30,
                "velocity": 4,
                "duration": 0.2023,
                "tempo": 120.0
            },
            {
                "pitch": 14,
                "velocity": 4,
                "duration": 0.2,
                "tempo": 120.0
            },
            {
                "pitch": 38,
                "velocity": 4,
                "duration": 0.0841,
                "tempo": 120.0
            },
            {
                "pitch": 44,
                "velocity": 4,
                "duration": 0.1159,
                "tempo": 120.0
            },
            {
                "pitch": 19,
                "velocity": 4,
                "duration": 0.2,
                "tempo": 120.0
            },
            {
                "pitch": 36,
                "velocity": 4,
                "duration": 0.2023,
                "tempo": 120.0
            },
            {
                "pitch": 19,
                "velocity": 4,
                "duration": 0.2023,
                "tempo": 120.0
            },
            {
                "pitch": 44,
                "velocity": 4,
                "duration": 0.1,
                "tempo": 120.0
            },
            {
                "pitch": 19,
                "velocity": 4,
                "duration": 0.2841,
                "tempo": 120.0
            }
        ],
        "Trumpet": [
            {
                "pitch": 55,
                "velocity": 51,
                "duration": 0.1,
                "tempo": 120.0
            },
            {
                "pitch": 57,
                "velocity": 51,
                "duration": 0.1682,
                "tempo": 120.0
            },
            {
                "pitch": 60,
                "velocity": 51,
                "duration": 0.0955,
                "tempo": 120.0
            },
            {
                "pitch": 59,
                "velocity": 51,
                "duration": 0.0955,
                "tempo": 120.0
            },
            {
                "pitch": 60,
                "velocity": 51,
                "duration": 0.1591,
                "tempo": 120.0
            },
            {
                "pitch": 62,
                "velocity": 51,
                "duration": 0.1,
                "tempo": 120.0
            },
            {
                "pitch": 60,
                "velocity": 51,
                "duration": 0.1023,
                "tempo": 120.0
            },
            {
                "pitch": 62,
                "velocity": 51,
                "duration": 0.1659,
                "tempo": 120.0
            },
            {
                "pitch": 67,
                "velocity": 51,
                "duration": 0.3023,
                "tempo": 120.0
            },
            {
                "pitch": 64,
                "velocity": 51,
                "duration": 1.2068,
                "tempo": 120.0
            },
            {
                "pitch": 57,
                "velocity": 51,
                "duration": 0.1023,
                "tempo": 120.0
            },
            {
                "pitch": 55,
                "velocity": 51,
                "duration": 0.1045,
                "tempo": 120.0
            },
            {
                "pitch": 57,
                "velocity": 51,
                "duration": 0.1705,
                "tempo": 120.0
            },
            {
                "pitch": 60,
                "velocity": 51,
                "duration": 0.0977,
                "tempo": 120.0
            },
            {
                "pitch": 59,
                "velocity": 51,
                "duration": 0.0977,
                "tempo": 120.0
            },
            {
                "pitch": 60,
                "velocity": 51,
                "duration": 0.1636,
                "tempo": 120.0
            },
            {
                "pitch": 62,
                "velocity": 51,
                "duration": 0.1045,
                "tempo": 120.0
            },
            {
                "pitch": 60,
                "velocity": 51,
                "duration": 0.1023,
                "tempo": 120.0
            },
            {
                "pitch": 62,
                "velocity": 51,
                "duration": 0.1705,
                "tempo": 120.0
            },
            {
                "pitch": 64,
                "velocity": 51,
                "duration": 0.2932,
                "tempo": 120.0
            },
            {
                "pitch": 57,
                "velocity": 51,
                "duration": 1.2023,
                "tempo": 120.0
            },
            {
                "pitch": 57,
                "velocity": 51,
                "duration": 0.1023,
                "tempo": 120.0
            },
            {
                "pitch": 55,
                "velocity": 51,
                "duration": 0.1023,
                "tempo": 120.0
            },
            {
                "pitch": 57,
                "velocity": 51,
                "duration": 0.1727,
                "tempo": 120.0
            },
            {
                "pitch": 60,
                "velocity": 51,
                "duration": 0.0977,
                "tempo": 120.0
            },
            {
                "pitch": 59,
                "velocity": 51,
                "duration": 0.0977,
                "tempo": 120.0
            },
            {
                "pitch": 60,
                "velocity": 51,
                "duration": 0.1636,
                "tempo": 120.0
            },
            {
                "pitch": 62,
                "velocity": 51,
                "duration": 0.1023,
                "tempo": 120.0
            },
            {
                "pitch": 60,
                "velocity": 51,
                "duration": 0.1,
                "tempo": 120.0
            },
            {
                "pitch": 62,
                "velocity": 51,
                "duration": 0.1682,
                "tempo": 120.0
            },
            {
                "pitch": 67,
                "velocity": 51,
                "duration": 0.3,
                "tempo": 120.0
            },
            {
                "pitch": 64,
                "velocity": 51,
                "duration": 1.2023,
                "tempo": 120.0
            },
            {
                "pitch": 57,
                "velocity": 51,
                "duration": 0.1045,
                "tempo": 120.0
            },
            {
                "pitch": 55,
                "velocity": 51,
                "duration": 0.1068,
                "tempo": 120.0
            },
            {
                "pitch": 57,
                "velocity": 51,
                "duration": 0.175,
                "tempo": 120.0
            },
            {
                "pitch": 60,
                "velocity": 51,
                "duration": 0.0955,
                "tempo": 120.0
            },
            {
                "pitch": 59,
                "velocity": 51,
                "duration": 0.0955,
                "tempo": 120.0
            },
            {
                "pitch": 60,
                "velocity": 51,
                "duration": 0.1614,
                "tempo": 120.0
            },
            {
                "pitch": 62,
                "velocity": 51,
                "duration": 0.1023,
                "tempo": 120.0
            },
            {
                "pitch": 60,
                "velocity": 51,
                "duration": 0.1023,
                "tempo": 120.0
            },
            {
                "pitch": 62,
                "velocity": 51,
                "duration": 0.1705,
                "tempo": 120.0
            },
            {
                "pitch": 64,
                "velocity": 51,
                "duration": 0.2955,
                "tempo": 120.0
            },
            {
                "pitch": 57,
                "velocity": 51,
                "duration": 1.2045,
                "tempo": 120.0
            },
            {
                "pitch": 58,
                "velocity": 51,
                "duration": 0.0886,
                "tempo": 120.0
            },
            {
                "pitch": 58,
                "velocity": 51,
                "duration": 0.1045,
                "tempo": 120.0
            },
            {
                "pitch": 56,
                "velocity": 51,
                "duration": 0.175,
                "tempo": 120.0
            },
            {
                "pitch": 61,
                "velocity": 51,
                "duration": 0.0955,
                "tempo": 120.0
            },
            {
                "pitch": 61,
                "velocity": 51,
                "duration": 0.0955,
                "tempo": 120.0
            },
            {
                "pitch": 60,
                "velocity": 51,
                "duration": 0.1591,
                "tempo": 120.0
            },
            {
                "pitch": 63,
                "velocity": 51,
                "duration": 0.1023,
                "tempo": 120.0
            },
            {
                "pitch": 63,
                "velocity": 51,
                "duration": 0.1023,
                "tempo": 120.0
            },
            {
                "pitch": 61,
                "velocity": 51,
                "duration": 0.1727,
                "tempo": 120.0
            },
            {
                "pitch": 68,
                "velocity": 51,
                "duration": 0.2955,
                "tempo": 120.0
            },
            {
                "pitch": 65,
                "velocity": 51,
                "duration": 1.2068,
                "tempo": 120.0
            },
            {
                "pitch": 58,
                "velocity": 51,
                "duration": 0.1045,
                "tempo": 120.0
            },
            {
                "pitch": 58,
                "velocity": 51,
                "duration": 0.1045,
                "tempo": 120.0
            },
            {
                "pitch": 56,
                "velocity": 51,
                "duration": 0.1773,
                "tempo": 120.0
            },
            {
                "pitch": 61,
                "velocity": 51,
                "duration": 0.0955,
                "tempo": 120.0
            },
            {
                "pitch": 61,
                "velocity": 51,
                "duration": 0.0955,
                "tempo": 120.0
            },
            {
                "pitch": 60,
                "velocity": 51,
                "duration": 0.1591,
                "tempo": 120.0
            },
            {
                "pitch": 63,
                "velocity": 51,
                "duration": 0.1023,
                "tempo": 120.0
            },
            {
                "pitch": 63,
                "velocity": 51,
                "duration": 0.1045,
                "tempo": 120.0
            },
            {
                "pitch": 61,
                "velocity": 51,
                "duration": 0.1705,
                "tempo": 120.0
            },
            {
                "pitch": 65,
                "velocity": 51,
                "duration": 0.2932,
                "tempo": 120.0
            },
            {
                "pitch": 58,
                "velocity": 51,
                "duration": 1.2045,
                "tempo": 120.0
            },
            {
                "pitch": 58,
                "velocity": 51,
                "duration": 0.0886,
                "tempo": 120.0
            },
            {
                "pitch": 58,
                "velocity": 51,
                "duration": 0.1068,
                "tempo": 120.0
            },
            {
                "pitch": 56,
                "velocity": 51,
                "duration": 0.175,
                "tempo": 120.0
            },
            {
                "pitch": 61,
                "velocity": 51,
                "duration": 0.0955,
                "tempo": 120.0
            },
            {
                "pitch": 61,
                "velocity": 51,
                "duration": 0.0955,
                "tempo": 120.0
            },
            {
                "pitch": 60,
                "velocity": 51,
                "duration": 0.1591,
                "tempo": 120.0
            },
            {
                "pitch": 63,
                "velocity": 51,
                "duration": 0.1023,
                "tempo": 120.0
            },
            {
                "pitch": 63,
                "velocity": 51,
                "duration": 0.1045,
                "tempo": 120.0
            },
            {
                "pitch": 61,
                "velocity": 51,
                "duration": 0.1705,
                "tempo": 120.0
            },
            {
                "pitch": 68,
                "velocity": 51,
                "duration": 0.3,
                "tempo": 120.0
            },
            {
                "pitch": 65,
                "velocity": 51,
                "duration": 1.1955,
                "tempo": 120.0
            },
            {
                "pitch": 58,
                "velocity": 51,
                "duration": 0.1045,
                "tempo": 120.0
            },
            {
                "pitch": 58,
                "velocity": 51,
                "duration": 0.1068,
                "tempo": 120.0
            },
            {
                "pitch": 56,
                "velocity": 51,
                "duration": 0.175,
                "tempo": 120.0
            },
            {
                "pitch": 61,
                "velocity": 51,
                "duration": 0.0955,
                "tempo": 120.0
            },
            {
                "pitch": 61,
                "velocity": 51,
                "duration": 0.0977,
                "tempo": 120.0
            },
            {
                "pitch": 60,
                "velocity": 51,
                "duration": 0.1591,
                "tempo": 120.0
            },
            {
                "pitch": 63,
                "velocity": 51,
                "duration": 0.1023,
                "tempo": 120.0
            },
            {
                "pitch": 63,
                "velocity": 51,
                "duration": 0.1023,
                "tempo": 120.0
            },
            {
                "pitch": 61,
                "velocity": 51,
                "duration": 0.1705,
                "tempo": 120.0
            },
            {
                "pitch": 65,
                "velocity": 51,
                "duration": 0.3,
                "tempo": 120.0
            },
            {
                "pitch": 58,
                "velocity": 51,
                "duration": 0.8932,
                "tempo": 120.0
            },
            {
                "pitch": 61,
                "velocity": 51,
                "duration": 0.175,
                "tempo": 120.0
            },
            {
                "pitch": 63,
                "velocity": 51,
                "duration": 0.1432,
                "tempo": 120.0
            },
            {
                "pitch": 65,
                "velocity": 51,
                "duration": 0.1,
                "tempo": 120.0
            },
            {
                "pitch": 65,
                "velocity": 51,
                "duration": 0.1,
                "tempo": 120.0
            },
            {
                "pitch": 63,
                "velocity": 51,
                "duration": 0.15,
                "tempo": 120.0
            },
            {
                "pitch": 65,
                "velocity": 51,
                "duration": 0.0977,
                "tempo": 120.0
            },
            {
                "pitch": 65,
                "velocity": 51,
                "duration": 0.0977,
                "tempo": 120.0
            },
            {
                "pitch": 63,
                "velocity": 51,
                "duration": 0.1477,
                "tempo": 120.0
            },
            {
                "pitch": 61,
                "velocity": 51,
                "duration": 0.1,
                "tempo": 120.0
            },
            {
                "pitch": 61,
                "velocity": 51,
                "duration": 0.1,
                "tempo": 120.0
            },
            {
                "pitch": 60,
                "velocity": 51,
                "duration": 0.15,
                "tempo": 120.0
            },
            {
                "pitch": 58,
                "velocity": 51,
                "duration": 0.3023,
                "tempo": 120.0
            },
            {
                "pitch": 65,
                "velocity": 51,
                "duration": 0.0864,
                "tempo": 120.0
            },
            {
                "pitch": 63,
                "velocity": 51,
                "duration": 0.0864,
                "tempo": 120.0
            },
            {
                "pitch": 65,
                "velocity": 51,
                "duration": 0.1545,
                "tempo": 120.0
            },
            {
                "pitch": 65,
                "velocity": 51,
                "duration": 0.0977,
                "tempo": 120.0
            },
            {
                "pitch": 65,
                "velocity": 51,
                "duration": 0.0977,
                "tempo": 120.0
            },
            {
                "pitch": 63,
                "velocity": 51,
                "duration": 0.1477,
                "tempo": 120.0
            },
            {
                "pitch": 61,
                "velocity": 51,
                "duration": 0.1,
                "tempo": 120.0
            },
            {
                "pitch": 61,
                "velocity": 51,
                "duration": 0.1,
                "tempo": 120.0
            },
            {
                "pitch": 60,
                "velocity": 51,
                "duration": 0.15,
                "tempo": 120.0
            },
            {
                "pitch": 68,
                "velocity": 51,
                "duration": 0.15,
                "tempo": 120.0
            },
            {
                "pitch": 66,
                "velocity": 51,
                "duration": 0.1659,
                "tempo": 120.0
            },
            {
                "pitch": 65,
                "velocity": 51,
                "duration": 0.0818,
                "tempo": 120.0
            },
            {
                "pitch": 65,
                "velocity": 51,
                "duration": 0.1023,
                "tempo": 120.0
            },
            {
                "pitch": 65,
                "velocity": 51,
                "duration": 0.1,
                "tempo": 120.0
            },
            {
                "pitch": 65,
                "velocity": 51,
                "duration": 0.0977,
                "tempo": 120.0
            },
            {
                "pitch": 65,
                "velocity": 51,
                "duration": 0.0977,
                "tempo": 120.0
            },
            {
                "pitch": 65,
                "velocity": 51,
                "duration": 0.1045,
                "tempo": 120.0
            },
            {
                "pitch": 48,
                "velocity": 51,
                "duration": 0.0955,
                "tempo": 120.0
            },
            {
                "pitch": 48,
                "velocity": 51,
                "duration": 0.0955,
                "tempo": 120.0
            },
            {
                "pitch": 49,
                "velocity": 51,
                "duration": 0.0955,
                "tempo": 120.0
            },
            {
                "pitch": 51,
                "velocity": 51,
                "duration": 0.0955,
                "tempo": 120.0
            },
            {
                "pitch": 65,
                "velocity": 51,
                "duration": 0.1023,
                "tempo": 120.0
            },
            {
                "pitch": 65,
                "velocity": 51,
                "duration": 0.1045,
                "tempo": 120.0
            },
            {
                "pitch": 65,
                "velocity": 51,
                "duration": 0.1023,
                "tempo": 120.0
            },
            {
                "pitch": 65,
                "velocity": 51,
                "duration": 0.1,
                "tempo": 120.0
            },
            {
                "pitch": 65,
                "velocity": 51,
                "duration": 0.1,
                "tempo": 120.0
            },
            {
                "pitch": 65,
                "velocity": 51,
                "duration": 0.1023,
                "tempo": 120.0
            },
            {
                "pitch": 48,
                "velocity": 51,
                "duration": 0.0955,
                "tempo": 120.0
            },
            {
                "pitch": 48,
                "velocity": 51,
                "duration": 0.0955,
                "tempo": 120.0
            },
            {
                "pitch": 49,
                "velocity": 51,
                "duration": 0.0955,
                "tempo": 120.0
            },
            {
                "pitch": 51,
                "velocity": 51,
                "duration": 0.0955,
                "tempo": 120.0
            },
            {
                "pitch": 65,
                "velocity": 51,
                "duration": 0.0886,
                "tempo": 120.0
            },
            {
                "pitch": 65,
                "velocity": 51,
                "duration": 0.1045,
                "tempo": 120.0
            },
            {
                "pitch": 63,
                "velocity": 51,
                "duration": 0.1591,
                "tempo": 120.0
            },
            {
                "pitch": 65,
                "velocity": 51,
                "duration": 0.0955,
                "tempo": 120.0
            },
            {
                "pitch": 65,
                "velocity": 51,
                "duration": 0.1,
                "tempo": 120.0
            },
            {
                "pitch": 63,
                "velocity": 51,
                "duration": 0.1477,
                "tempo": 120.0
            },
            {
                "pitch": 61,
                "velocity": 51,
                "duration": 0.1,
                "tempo": 120.0
            },
            {
                "pitch": 61,
                "velocity": 51,
                "duration": 0.1,
                "tempo": 120.0
            },
            {
                "pitch": 60,
                "velocity": 51,
                "duration": 0.1523,
                "tempo": 120.0
            },
            {
                "pitch": 58,
                "velocity": 51,
                "duration": 0.3,
                "tempo": 120.0
            },
            {
                "pitch": 65,
                "velocity": 51,
                "duration": 0.1023,
                "tempo": 120.0
            },
            {
                "pitch": 65,
                "velocity": 51,
                "duration": 0.1023,
                "tempo": 120.0
            },
            {
                "pitch": 63,
                "velocity": 51,
                "duration": 0.1545,
                "tempo": 120.0
            },
            {
                "pitch": 65,
                "velocity": 51,
                "duration": 0.0977,
                "tempo": 120.0
            },
            {
                "pitch": 65,
                "velocity": 51,
                "duration": 0.0977,
                "tempo": 120.0
            },
            {
                "pitch": 63,
                "velocity": 51,
                "duration": 0.1477,
                "tempo": 120.0
            },
            {
                "pitch": 61,
                "velocity": 51,
                "duration": 0.0977,
                "tempo": 120.0
            },
            {
                "pitch": 61,
                "velocity": 51,
                "duration": 0.1,
                "tempo": 120.0
            },
            {
                "pitch": 60,
                "velocity": 51,
                "duration": 0.1523,
                "tempo": 120.0
            },
            {
                "pitch": 68,
                "velocity": 51,
                "duration": 0.15,
                "tempo": 120.0
            },
            {
                "pitch": 66,
                "velocity": 51,
                "duration": 0.1682,
                "tempo": 120.0
            },
            {
                "pitch": 65,
                "velocity": 51,
                "duration": 0.0864,
                "tempo": 120.0
            },
            {
                "pitch": 65,
                "velocity": 51,
                "duration": 0.1023,
                "tempo": 120.0
            },
            {
                "pitch": 65,
                "velocity": 51,
                "duration": 0.1023,
                "tempo": 120.0
            },
            {
                "pitch": 65,
                "velocity": 51,
                "duration": 0.0818,
                "tempo": 120.0
            },
            {
                "pitch": 65,
                "velocity": 51,
                "duration": 0.0977,
                "tempo": 120.0
            },
            {
                "pitch": 65,
                "velocity": 51,
                "duration": 0.1023,
                "tempo": 120.0
            },
            {
                "pitch": 48,
                "velocity": 51,
                "duration": 0.0932,
                "tempo": 120.0
            },
            {
                "pitch": 48,
                "velocity": 51,
                "duration": 0.0955,
                "tempo": 120.0
            },
            {
                "pitch": 49,
                "velocity": 51,
                "duration": 0.0955,
                "tempo": 120.0
            },
            {
                "pitch": 51,
                "velocity": 51,
                "duration": 0.0955,
                "tempo": 120.0
            },
            {
                "pitch": 65,
                "velocity": 51,
                "duration": 0.1045,
                "tempo": 120.0
            },
            {
                "pitch": 65,
                "velocity": 51,
                "duration": 0.1068,
                "tempo": 120.0
            },
            {
                "pitch": 65,
                "velocity": 51,
                "duration": 0.1023,
                "tempo": 120.0
            },
            {
                "pitch": 65,
                "velocity": 51,
                "duration": 0.0841,
                "tempo": 120.0
            },
            {
                "pitch": 65,
                "velocity": 51,
                "duration": 0.0977,
                "tempo": 120.0
            },
            {
                "pitch": 65,
                "velocity": 51,
                "duration": 0.1023,
                "tempo": 120.0
            }
        ],
        "Flute": [
            {
                "pitch": 82,
                "velocity": 51,
                "duration": 0.0955,
                "tempo": 120.0
            },
            {
                "pitch": 82,
                "velocity": 51,
                "duration": 0.0955,
                "tempo": 120.0
            },
            {
                "pitch": 81,
                "velocity": 51,
                "duration": 0.0955,
                "tempo": 120.0
            },
            {
                "pitch": 81,
                "velocity": 51,
                "duration": 0.1023,
                "tempo": 120.0
            },
            {
                "pitch": 80,
                "velocity": 51,
                "duration": 0.1023,
                "tempo": 120.0
            },
            {
                "pitch": 80,
                "velocity": 51,
                "duration": 0.1023,
                "tempo": 120.0
            },
            {
                "pitch": 78,
                "velocity": 51,
                "duration": 0.1,
                "tempo": 120.0
            },
            {
                "pitch": 78,
                "velocity": 51,
                "duration": 0.1,
                "tempo": 120.0
            },
            {
                "pitch": 77,
                "velocity": 51,
                "duration": 0.1,
                "tempo": 120.0
            },
            {
                "pitch": 78,
                "velocity": 51,
                "duration": 0.1,
                "tempo": 120.0
            },
            {
                "pitch": 77,
                "velocity": 51,
                "duration": 0.1023,
                "tempo": 120.0
            },
            {
                "pitch": 77,
                "velocity": 51,
                "duration": 0.1023,
                "tempo": 120.0
            },
            {
                "pitch": 75,
                "velocity": 51,
                "duration": 0.1023,
                "tempo": 120.0
            },
            {
                "pitch": 75,
                "velocity": 51,
                "duration": 0.1,
                "tempo": 120.0
            },
            {
                "pitch": 77,
                "velocity": 51,
                "duration": 0.5932,
                "tempo": 120.0
            },
            {
                "pitch": 75,
                "velocity": 51,
                "duration": 0.1023,
                "tempo": 120.0
            },
            {
                "pitch": 75,
                "velocity": 51,
                "duration": 0.1045,
                "tempo": 120.0
            },
            {
                "pitch": 73,
                "velocity": 51,
                "duration": 0.0864,
                "tempo": 120.0
            },
            {
                "pitch": 73,
                "velocity": 51,
                "duration": 0.1023,
                "tempo": 120.0
            },
            {
                "pitch": 75,
                "velocity": 51,
                "duration": 0.1023,
                "tempo": 120.0
            },
            {
                "pitch": 75,
                "velocity": 51,
                "duration": 0.1023,
                "tempo": 120.0
            },
            {
                "pitch": 70,
                "velocity": 51,
                "duration": 0.0841,
                "tempo": 120.0
            },
            {
                "pitch": 72,
                "velocity": 51,
                "duration": 0.1,
                "tempo": 120.0
            },
            {
                "pitch": 72,
                "velocity": 51,
                "duration": 0.1,
                "tempo": 120.0
            },
            {
                "pitch": 73,
                "velocity": 51,
                "duration": 0.1,
                "tempo": 120.0
            },
            {
                "pitch": 75,
                "velocity": 51,
                "duration": 0.1,
                "tempo": 120.0
            },
            {
                "pitch": 77,
                "velocity": 51,
                "duration": 0.1,
                "tempo": 120.0
            },
            {
                "pitch": 75,
                "velocity": 51,
                "duration": 0.0977,
                "tempo": 120.0
            },
            {
                "pitch": 75,
                "velocity": 51,
                "duration": 0.1,
                "tempo": 120.0
            },
            {
                "pitch": 77,
                "velocity": 51,
                "duration": 0.0977,
                "tempo": 120.0
            },
            {
                "pitch": 77,
                "velocity": 51,
                "duration": 0.1,
                "tempo": 120.0
            },
            {
                "pitch": 82,
                "velocity": 51,
                "duration": 0.1,
                "tempo": 120.0
            },
            {
                "pitch": 82,
                "velocity": 51,
                "duration": 0.1,
                "tempo": 120.0
            },
            {
                "pitch": 81,
                "velocity": 51,
                "duration": 0.1,
                "tempo": 120.0
            },
            {
                "pitch": 81,
                "velocity": 51,
                "duration": 0.1,
                "tempo": 120.0
            },
            {
                "pitch": 80,
                "velocity": 51,
                "duration": 0.1,
                "tempo": 120.0
            },
            {
                "pitch": 80,
                "velocity": 51,
                "duration": 0.1,
                "tempo": 120.0
            },
            {
                "pitch": 78,
                "velocity": 51,
                "duration": 0.1023,
                "tempo": 120.0
            },
            {
                "pitch": 78,
                "velocity": 51,
                "duration": 0.1023,
                "tempo": 120.0
            },
            {
                "pitch": 77,
                "velocity": 51,
                "duration": 0.0818,
                "tempo": 120.0
            },
            {
                "pitch": 78,
                "velocity": 51,
                "duration": 0.0977,
                "tempo": 120.0
            },
            {
                "pitch": 77,
                "velocity": 51,
                "duration": 0.1023,
                "tempo": 120.0
            },
            {
                "pitch": 77,
                "velocity": 51,
                "duration": 0.1023,
                "tempo": 120.0
            },
            {
                "pitch": 75,
                "velocity": 51,
                "duration": 0.1023,
                "tempo": 120.0
            },
            {
                "pitch": 75,
                "velocity": 51,
                "duration": 0.1,
                "tempo": 120.0
            },
            {
                "pitch": 77,
                "velocity": 51,
                "duration": 0.6,
                "tempo": 120.0
            },
            {
                "pitch": 75,
                "velocity": 51,
                "duration": 0.1,
                "tempo": 120.0
            },
            {
                "pitch": 75,
                "velocity": 51,
                "duration": 0.1,
                "tempo": 120.0
            },
            {
                "pitch": 73,
                "velocity": 51,
                "duration": 0.0864,
                "tempo": 120.0
            },
            {
                "pitch": 73,
                "velocity": 51,
                "duration": 0.1023,
                "tempo": 120.0
            },
            {
                "pitch": 75,
                "velocity": 51,
                "duration": 0.1023,
                "tempo": 120.0
            },
            {
                "pitch": 75,
                "velocity": 51,
                "duration": 0.1023,
                "tempo": 120.0
            },
            {
                "pitch": 70,
                "velocity": 51,
                "duration": 0.0841,
                "tempo": 120.0
            },
            {
                "pitch": 72,
                "velocity": 51,
                "duration": 0.0977,
                "tempo": 120.0
            },
            {
                "pitch": 72,
                "velocity": 51,
                "duration": 0.0977,
                "tempo": 120.0
            },
            {
                "pitch": 73,
                "velocity": 51,
                "duration": 0.0977,
                "tempo": 120.0
            },
            {
                "pitch": 75,
                "velocity": 51,
                "duration": 0.1,
                "tempo": 120.0
            },
            {
                "pitch": 77,
                "velocity": 51,
                "duration": 0.1,
                "tempo": 120.0
            },
            {
                "pitch": 75,
                "velocity": 51,
                "duration": 0.1,
                "tempo": 120.0
            },
            {
                "pitch": 75,
                "velocity": 51,
                "duration": 0.1,
                "tempo": 120.0
            },
            {
                "pitch": 80,
                "velocity": 51,
                "duration": 0.1659,
                "tempo": 120.0
            },
            {
                "pitch": 77,
                "velocity": 51,
                "duration": 0.1523,
                "tempo": 120.0
            }
        ],
        "Vibraphone": [
            {
                "pitch": 81,
                "velocity": 51,
                "duration": 0.1,
                "tempo": 120.0
            },
            {
                "pitch": 79,
                "velocity": 51,
                "duration": 0.1023,
                "tempo": 120.0
            },
            {
                "pitch": 76,
                "velocity": 51,
                "duration": 0.2,
                "tempo": 120.0
            },
            {
                "pitch": 79,
                "velocity": 51,
                "duration": 0.2,
                "tempo": 120.0
            },
            {
                "pitch": 79,
                "velocity": 51,
                "duration": 0.0159,
                "tempo": 120.0
            },
            {
                "pitch": 81,
                "velocity": 51,
                "duration": 0.3864,
                "tempo": 120.0
            },
            {
                "pitch": 84,
                "velocity": 51,
                "duration": 0.0841,
                "tempo": 120.0
            },
            {
                "pitch": 84,
                "velocity": 51,
                "duration": 0.05,
                "tempo": 120.0
            },
            {
                "pitch": 84,
                "velocity": 51,
                "duration": 0.0841,
                "tempo": 120.0
            },
            {
                "pitch": 84,
                "velocity": 51,
                "duration": 0.05,
                "tempo": 120.0
            },
            {
                "pitch": 84,
                "velocity": 51,
                "duration": 0.0818,
                "tempo": 120.0
            },
            {
                "pitch": 84,
                "velocity": 51,
                "duration": 0.05,
                "tempo": 120.0
            },
            {
                "pitch": 81,
                "velocity": 51,
                "duration": 0.2,
                "tempo": 120.0
            },
            {
                "pitch": 84,
                "velocity": 51,
                "duration": 0.0841,
                "tempo": 120.0
            },
            {
                "pitch": 84,
                "velocity": 51,
                "duration": 0.05,
                "tempo": 120.0
            },
            {
                "pitch": 84,
                "velocity": 51,
                "duration": 0.0682,
                "tempo": 120.0
            },
            {
                "pitch": 81,
                "velocity": 51,
                "duration": 0.2,
                "tempo": 120.0
            },
            {
                "pitch": 86,
                "velocity": 51,
                "duration": 0.2023,
                "tempo": 120.0
            },
            {
                "pitch": 86,
                "velocity": 51,
                "duration": 0.0159,
                "tempo": 120.0
            },
            {
                "pitch": 88,
                "velocity": 51,
                "duration": 0.5864,
                "tempo": 120.0
            },
            {
                "pitch": 92,
                "velocity": 51,
                "duration": 0.4023,
                "tempo": 120.0
            },
            {
                "pitch": 93,
                "velocity": 51,
                "duration": 0.4,
                "tempo": 120.0
            },
            {
                "pitch": 93,
                "velocity": 51,
                "duration": 0.1,
                "tempo": 120.0
            },
            {
                "pitch": 91,
                "velocity": 51,
                "duration": 0.1,
                "tempo": 120.0
            },
            {
                "pitch": 88,
                "velocity": 51,
                "duration": 0.2023,
                "tempo": 120.0
            },
            {
                "pitch": 86,
                "velocity": 51,
                "duration": 0.2023,
                "tempo": 120.0
            },
            {
                "pitch": 86,
                "velocity": 51,
                "duration": 0.05,
                "tempo": 120.0
            },
            {
                "pitch": 88,
                "velocity": 51,
                "duration": 0.35,
                "tempo": 120.0
            },
            {
                "pitch": 88,
                "velocity": 51,
                "duration": 0.0841,
                "tempo": 120.0
            },
            {
                "pitch": 86,
                "velocity": 51,
                "duration": 0.1159,
                "tempo": 120.0
            },
            {
                "pitch": 84,
                "velocity": 51,
                "duration": 0.0841,
                "tempo": 120.0
            },
            {
                "pitch": 84,
                "velocity": 51,
                "duration": 0.05,
                "tempo": 120.0
            },
            {
                "pitch": 84,
                "velocity": 51,
                "duration": 0.0682,
                "tempo": 120.0
            },
            {
                "pitch": 81,
                "velocity": 51,
                "duration": 0.2,
                "tempo": 120.0
            },
            {
                "pitch": 86,
                "velocity": 51,
                "duration": 0.4,
                "tempo": 120.0
            },
            {
                "pitch": 79,
                "velocity": 51,
                "duration": 0.4045,
                "tempo": 120.0
            },
            {
                "pitch": 81,
                "velocity": 51,
                "duration": 0.4023,
                "tempo": 120.0
            },
            {
                "pitch": 88,
                "velocity": 51,
                "duration": 0.2,
                "tempo": 120.0
            },
            {
                "pitch": 79,
                "velocity": 51,
                "duration": 0.6023,
                "tempo": 120.0
            },
            {
                "pitch": 88,
                "velocity": 51,
                "duration": 0.2,
                "tempo": 120.0
            },
            {
                "pitch": 77,
                "velocity": 51,
                "duration": 0.6023,
                "tempo": 120.0
            },
            {
                "pitch": 88,
                "velocity": 51,
                "duration": 0.2023,
                "tempo": 120.0
            },
            {
                "pitch": 86,
                "velocity": 51,
                "duration": 0.6,
                "tempo": 120.0
            },
            {
                "pitch": 76,
                "velocity": 51,
                "duration": 0.1023,
                "tempo": 120.0
            },
            {
                "pitch": 76,
                "velocity": 51,
                "duration": 0.1,
                "tempo": 120.0
            },
            {
                "pitch": 79,
                "velocity": 51,
                "duration": 0.1,
                "tempo": 120.0
            },
            {
                "pitch": 81,
                "velocity": 51,
                "duration": 0.1,
                "tempo": 120.0
            },
            {
                "pitch": 84,
                "velocity": 51,
                "duration": 0.0841,
                "tempo": 120.0
            },
            {
                "pitch": 84,
                "velocity": 51,
                "duration": 0.05,
                "tempo": 120.0
            },
            {
                "pitch": 84,
                "velocity": 51,
                "duration": 0.0841,
                "tempo": 120.0
            },
            {
                "pitch": 84,
                "velocity": 51,
                "duration": 0.05,
                "tempo": 120.0
            },
            {
                "pitch": 84,
                "velocity": 51,
                "duration": 0.0818,
                "tempo": 120.0
            },
            {
                "pitch": 84,
                "velocity": 51,
                "duration": 0.05,
                "tempo": 120.0
            },
            {
                "pitch": 81,
                "velocity": 51,
                "duration": 0.2023,
                "tempo": 120.0
            },
            {
                "pitch": 84,
                "velocity": 51,
                "duration": 0.0841,
                "tempo": 120.0
            },
            {
                "pitch": 84,
                "velocity": 51,
                "duration": 0.05,
                "tempo": 120.0
            },
            {
                "pitch": 84,
                "velocity": 51,
                "duration": 0.0841,
                "tempo": 120.0
            },
            {
                "pitch": 84,
                "velocity": 51,
                "duration": 0.05,
                "tempo": 120.0
            },
            {
                "pitch": 84,
                "velocity": 51,
                "duration": 0.0841,
                "tempo": 120.0
            },
            {
                "pitch": 84,
                "velocity": 51,
                "duration": 0.05,
                "tempo": 120.0
            },
            {
                "pitch": 86,
                "velocity": 51,
                "duration": 0.2023,
                "tempo": 120.0
            },
            {
                "pitch": 86,
                "velocity": 51,
                "duration": 0.0159,
                "tempo": 120.0
            },
            {
                "pitch": 88,
                "velocity": 51,
                "duration": 0.3841,
                "tempo": 120.0
            },
            {
                "pitch": 93,
                "velocity": 51,
                "duration": 0.1,
                "tempo": 120.0
            },
            {
                "pitch": 93,
                "velocity": 51,
                "duration": 0.1,
                "tempo": 120.0
            },
            {
                "pitch": 92,
                "velocity": 51,
                "duration": 0.1023,
                "tempo": 120.0
            },
            {
                "pitch": 88,
                "velocity": 51,
                "duration": 0.1,
                "tempo": 120.0
            },
            {
                "pitch": 88,
                "velocity": 51,
                "duration": 0.0841,
                "tempo": 120.0
            },
            {
                "pitch": 86,
                "velocity": 51,
                "duration": 0.0159,
                "tempo": 120.0
            },
            {
                "pitch": 86,
                "velocity": 51,
                "duration": 0.0841,
                "tempo": 120.0
            },
            {
                "pitch": 84,
                "velocity": 51,
                "duration": 0.0159,
                "tempo": 120.0
            },
            {
                "pitch": 86,
                "velocity": 51,
                "duration": 0.1,
                "tempo": 120.0
            },
            {
                "pitch": 86,
                "velocity": 51,
                "duration": 0.0841,
                "tempo": 120.0
            },
            {
                "pitch": 84,
                "velocity": 51,
                "duration": 0.0182,
                "tempo": 120.0
            },
            {
                "pitch": 86,
                "velocity": 51,
                "duration": 0.2,
                "tempo": 120.0
            },
            {
                "pitch": 86,
                "velocity": 51,
                "duration": 0.0182,
                "tempo": 120.0
            },
            {
                "pitch": 88,
                "velocity": 51,
                "duration": 0.1841,
                "tempo": 120.0
            },
            {
                "pitch": 79,
                "velocity": 51,
                "duration": 0.2,
                "tempo": 120.0
            }
        ]
    }
}