{
    "track_id": "Wonder Boy in Monster Land (FM) - 01 - Main Theme",
    "mood": "happy",
    "instruments": {
        "Acoustic Grand Piano": [
            {
                "pitch": 57,
                "velocity": 64,
                "duration": 0.7659,
                "tempo": 120.0
            },
            {
                "pitch": 64,
                "velocity": 64,
                "duration": 0.5932,
                "tempo": 120.0
            },
            {
                "pitch": 64,
                "velocity": 64,
                "duration": 0.1841,
                "tempo": 120.0
            },
            {
                "pitch": 62,
                "velocity": 64,
                "duration": 0.5773,
                "tempo": 120.0
            },
            {
                "pitch": 59,
                "velocity": 64,
                "duration": 0.5932,
                "tempo": 120.0
            },
            {
                "pitch": 55,
                "velocity": 64,
                "duration": 0.375,
                "tempo": 120.0
            },
            {
                "pitch": 57,
                "velocity": 64,
                "duration": 0.1886,
                "tempo": 120.0
            },
            {
                "pitch": 52,
                "velocity": 64,
                "duration": 0.1864,
                "tempo": 120.0
            },
            {
                "pitch": 57,
                "velocity": 64,
                "duration": 0.1841,
                "tempo": 120.0
            },
            {
                "pitch": 52,
                "velocity": 64,
                "duration": 0.1841,
                "tempo": 120.0
            },
            {
                "pitch": 64,
                "velocity": 64,
                "duration": 0.5795,
                "tempo": 120.0
            },
            {
                "pitch": 69,
                "velocity": 64,
                "duration": 0.1886,
                "tempo": 120.0
            },
            {
                "pitch": 73,
                "velocity": 64,
                "duration": 0.5886,
                "tempo": 120.0
            },
            {
                "pitch": 68,
                "velocity": 64,
                "duration": 0.7659,
                "tempo": 120.0
            },
            {
                "pitch": 64,
                "velocity": 64,
                "duration": 0.1818,
                "tempo": 120.0
            },
            {
                "pitch": 66,
                "velocity": 64,
                "duration": 0.1886,
                "tempo": 120.0
            },
            {
                "pitch": 64,
                "velocity": 64,
                "duration": 0.1841,
                "tempo": 120.0
            },
            {
                "pitch": 62,
                "velocity": 64,
                "duration": 0.3818,
                "tempo": 120.0
            },
            {
                "pitch": 64,
                "velocity": 64,
                "duration": 0.1795,
                "tempo": 120.0
            },
            {
                "pitch": 66,
                "velocity": 64,
                "duration": 0.4045,
                "tempo": 120.0
            },
            {
                "pitch": 64,
                "velocity": 64,
                "duration": 0.7886,
                "tempo": 120.0
            },
            {
                "pitch": 61,
                "velocity": 64,
                "duration": 0.7659,
                "tempo": 120.0
            },
            {
                "pitch": 52,
                "velocity": 64,
                "duration": 0.0818,
                "tempo": 120.0
            },
            {
                "pitch": 54,
                "velocity": 64,
                "duration": 0.0818,
                "tempo": 120.0
            },
            {
                "pitch": 52,
                "velocity": 64,
                "duration": 1.375,
                "tempo": 120.0
            },
            {
                "pitch": 64,
                "velocity": 64,
                "duration": 0.0864,
                "tempo": 120.0
            },
            {
                "pitch": 66,
                "velocity": 64,
                "duration": 0.0841,
                "tempo": 120.0
            },
            {
                "pitch": 68,
                "velocity": 64,
                "duration": 0.5909,
                "tempo": 120.0
            },
            {
                "pitch": 57,
                "velocity": 64,
                "duration": 0.7977,
                "tempo": 120.0
            },
            {
                "pitch": 64,
                "velocity": 64,
                "duration": 0.5886,
                "tempo": 120.0
            },
            {
                "pitch": 64,
                "velocity": 64,
                "duration": 0.1841,
                "tempo": 120.0
            },
            {
                "pitch": 62,
                "velocity": 64,
                "duration": 0.5727,
                "tempo": 120.0
            },
            {
                "pitch": 59,
                "velocity": 64,
                "duration": 0.5818,
                "tempo": 120.0
            },
            {
                "pitch": 55,
                "velocity": 64,
                "duration": 0.3932,
                "tempo": 120.0
            },
            {
                "pitch": 57,
                "velocity": 64,
                "duration": 0.1886,
                "tempo": 120.0
            },
            {
                "pitch": 52,
                "velocity": 64,
                "duration": 0.1886,
                "tempo": 120.0
            },
            {
                "pitch": 57,
                "velocity": 64,
                "duration": 0.1864,
                "tempo": 120.0
            },
            {
                "pitch": 52,
                "velocity": 64,
                "duration": 0.1841,
                "tempo": 120.0
            },
            {
                "pitch": 64,
                "velocity": 64,
                "duration": 0.5795,
                "tempo": 120.0
            },
            {
                "pitch": 69,
                "velocity": 64,
                "duration": 0.1886,
                "tempo": 120.0
            },
            {
                "pitch": 73,
                "velocity": 64,
                "duration": 0.5841,
                "tempo": 120.0
            },
            {
                "pitch": 68,
                "velocity": 64,
                "duration": 0.7659,
                "tempo": 120.0
            },
            {
                "pitch": 64,
                "velocity": 64,
                "duration": 0.1841,
                "tempo": 120.0
            },
            {
                "pitch": 66,
                "velocity": 64,
                "duration": 0.1932,
                "tempo": 120.0
            },
            {
                "pitch": 64,
                "velocity": 64,
                "duration": 0.1795,
                "tempo": 120.0
            },
            {
                "pitch": 62,
                "velocity": 64,
                "duration": 0.375,
                "tempo": 120.0
            },
            {
                "pitch": 64,
                "velocity": 64,
                "duration": 0.1795,
                "tempo": 120.0
            },
            {
                "pitch": 66,
                "velocity": 64,
                "duration": 0.4045,
                "tempo": 120.0
            },
            {
                "pitch": 64,
                "velocity": 64,
                "duration": 0.7841,
                "tempo": 120.0
            },
            {
                "pitch": 61,
                "velocity": 64,
                "duration": 0.775,
                "tempo": 120.0
            },
            {
                "pitch": 52,
                "velocity": 64,
                "duration": 0.0818,
                "tempo": 120.0
            },
            {
                "pitch": 54,
                "velocity": 64,
                "duration": 0.0818,
                "tempo": 120.0
            },
            {
                "pitch": 52,
                "velocity": 64,
                "duration": 1.375,
                "tempo": 120.0
            },
            {
                "pitch": 64,
                "velocity": 64,
                "duration": 0.0864,
                "tempo": 120.0
            },
            {
                "pitch": 66,
                "velocity": 64,
                "duration": 0.0841,
                "tempo": 120.0
            },
            {
                "pitch": 68,
                "velocity": 64,
                "duration": 0.5886,
                "tempo": 120.0
            },
            {
                "pitch": 54,
                "velocity": 64,
                "duration": 0.5886,
                "tempo": 120.0
            },
            {
                "pitch": 54,
                "velocity": 64,
                "duration": 0.3886,
                "tempo": 120.0
            },
            {
                "pitch": 56,
                "velocity": 64,
                "duration": 0.1841,
                "tempo": 120.0
            },
            {
                "pitch": 57,
                "velocity": 64,
                "duration": 0.3841,
                "tempo": 120.0
            },
            {
                "pitch": 52,
                "velocity": 64,
                "duration": 0.5795,
                "tempo": 120.0
            },
            {
                "pitch": 52,
                "velocity": 64,
                "duration": 0.3886,
                "tempo": 120.0
            },
            {
                "pitch": 56,
                "velocity": 64,
                "duration": 0.1818,
                "tempo": 120.0
            },
            {
                "pitch": 57,
                "velocity": 64,
                "duration": 0.3841,
                "tempo": 120.0
            },
            {
                "pitch": 50,
                "velocity": 64,
                "duration": 0.5841,
                "tempo": 120.0
            },
            {
                "pitch": 50,
                "velocity": 64,
                "duration": 0.3864,
                "tempo": 120.0
            },
            {
                "pitch": 56,
                "velocity": 64,
                "duration": 0.1841,
                "tempo": 120.0
            },
            {
                "pitch": 57,
                "velocity": 64,
                "duration": 0.375,
                "tempo": 120.0
            },
            {
                "pitch": 56,
                "velocity": 64,
                "duration": 0.1841,
                "tempo": 120.0
            },
            {
                "pitch": 54,
                "velocity": 64,
                "duration": 0.3886,
                "tempo": 120.0
            },
            {
                "pitch": 49,
                "velocity": 64,
                "duration": 0.3841,
                "tempo": 120.0
            },
            {
                "pitch": 50,
                "velocity": 64,
                "duration": 0.0818,
                "tempo": 120.0
            },
            {
                "pitch": 49,
                "velocity": 64,
                "duration": 0.3818,
                "tempo": 120.0
            },
            {
                "pitch": 47,
                "velocity": 64,
                "duration": 0.5955,
                "tempo": 120.0
            },
            {
                "pitch": 54,
                "velocity": 64,
                "duration": 0.3841,
                "tempo": 120.0
            },
            {
                "pitch": 52,
                "velocity": 64,
                "duration": 0.1818,
                "tempo": 120.0
            },
            {
                "pitch": 50,
                "velocity": 64,
                "duration": 0.375,
                "tempo": 120.0
            },
            {
                "pitch": 49,
                "velocity": 64,
                "duration": 0.5955,
                "tempo": 120.0
            },
            {
                "pitch": 57,
                "velocity": 64,
                "duration": 0.3841,
                "tempo": 120.0
            },
            {
                "pitch": 56,
                "velocity": 64,
                "duration": 0.1841,
                "tempo": 120.0
            },
            {
                "pitch": 49,
                "velocity": 64,
                "duration": 0.3841,
                "tempo": 120.0
            },
            {
                "pitch": 47,
                "velocity": 64,
                "duration": 0.7864,
                "tempo": 120.0
            },
            {
                "pitch": 49,
                "velocity": 64,
                "duration": 0.7841,
                "tempo": 120.0
            },
            {
                "pitch": 51,
                "velocity": 64,
                "duration": 0.7841,
                "tempo": 120.0
            },
            {
                "pitch": 52,
                "velocity": 64,
                "duration": 0.7864,
                "tempo": 120.0
            },
            {
                "pitch": 47,
                "velocity": 64,
                "duration": 0.3841,
                "tempo": 120.0
            },
            {
                "pitch": 49,
                "velocity": 64,
                "duration": 0.3841,
                "tempo": 120.0
            },
            {
                "pitch": 51,
                "velocity": 64,
                "duration": 0.3841,
                "tempo": 120.0
            },
            {
                "pitch": 52,
                "velocity": 64,
                "duration": 0.3864,
                "tempo": 120.0
            },
            {
                "pitch": 47,
                "velocity": 64,
                "duration": 0.3841,
                "tempo": 120.0
            },
            {
                "pitch": 49,
                "velocity": 64,
                "duration": 0.3818,
                "tempo": 120.0
            },
            {
                "pitch": 51,
                "velocity": 64,
                "duration": 0.3818,
                "tempo": 120.0
            },
            {
                "pitch": 52,
                "velocity": 64,
                "duration": 0.3818,
                "tempo": 120.0
            },
            {
                "pitch": 47,
                "velocity": 64,
                "duration": 0.7841,
                "tempo": 120.0
            },
            {
                "pitch": 49,
                "velocity": 64,
                "duration": 0.775,
                "tempo": 120.0
            },
            {
                "pitch": 50,
                "velocity": 64,
                "duration": 0.7841,
                "tempo": 120.0
            },
            {
                "pitch": 52,
                "velocity": 64,
                "duration": 0.7864,
                "tempo": 120.0
            },
            {
                "pitch": 47,
                "velocity": 64,
                "duration": 0.3841,
                "tempo": 120.0
            },
            {
                "pitch": 49,
                "velocity": 64,
                "duration": 0.3955,
                "tempo": 120.0
            },
            {
                "pitch": 50,
                "velocity": 64,
                "duration": 0.375,
                "tempo": 120.0
            },
            {
                "pitch": 52,
                "velocity": 64,
                "duration": 0.3818,
                "tempo": 120.0
            },
            {
                "pitch": 54,
                "velocity": 64,
                "duration": 0.3841,
                "tempo": 120.0
            },
            {
                "pitch": 56,
                "velocity": 64,
                "duration": 0.3841,
                "tempo": 120.0
            },
            {
                "pitch": 57,
                "velocity": 64,
                "duration": 0.3932,
                "tempo": 120.0
            },
            {
                "pitch": 59,
                "velocity": 64,
                "duration": 0.375,
                "tempo": 120.0
            }
        ],
        "Electric Guitar (clean)": [
            {
                "pitch": 33,
                "velocity": 51,
                "duration": 0.3659,
                "tempo": 120.0
            },
            {
                "pitch": 45,
                "velocity": 51,
                "duration": 0.3818,
                "tempo": 120.0
            },
            {
                "pitch": 33,
                "velocity": 51,
                "duration": 0.1864,
                "tempo": 120.0
            },
            {
                "pitch": 45,
                "velocity": 51,
                "duration": 0.1886,
                "tempo": 120.0
            },
            {
                "pitch": 33,
                "velocity": 51,
                "duration": 0.1841,
                "tempo": 120.0
            },
            {
                "pitch": 45,
                "velocity": 51,
                "duration": 0.1841,
                "tempo": 120.0
            },
            {
                "pitch": 31,
                "velocity": 51,
                "duration": 0.3773,
                "tempo": 120.0
            },
            {
                "pitch": 43,
                "velocity": 51,
                "duration": 0.1841,
                "tempo": 120.0
            },
            {
                "pitch": 45,
                "velocity": 51,
                "duration": 0.3886,
                "tempo": 120.0
            },
            {
                "pitch": 47,
                "velocity": 51,
                "duration": 0.1886,
                "tempo": 120.0
            },
            {
                "pitch": 43,
                "velocity": 51,
                "duration": 0.375,
                "tempo": 120.0
            },
            {
                "pitch": 33,
                "velocity": 51,
                "duration": 0.3932,
                "tempo": 120.0
            },
            {
                "pitch": 45,
                "velocity": 51,
                "duration": 0.3841,
                "tempo": 120.0
            },
            {
                "pitch": 33,
                "velocity": 51,
                "duration": 0.1795,
                "tempo": 120.0
            },
            {
                "pitch": 45,
                "velocity": 51,
                "duration": 0.1795,
                "tempo": 120.0
            },
            {
                "pitch": 33,
                "velocity": 51,
                "duration": 0.1864,
                "tempo": 120.0
            },
            {
                "pitch": 45,
                "velocity": 51,
                "duration": 0.1886,
                "tempo": 120.0
            },
            {
                "pitch": 37,
                "velocity": 51,
                "duration": 0.3864,
                "tempo": 120.0
            },
            {
                "pitch": 37,
                "velocity": 51,
                "duration": 0.1864,
                "tempo": 120.0
            },
            {
                "pitch": 44,
                "velocity": 51,
                "duration": 0.375,
                "tempo": 120.0
            },
            {
                "pitch": 49,
                "velocity": 51,
                "duration": 0.175,
                "tempo": 120.0
            },
            {
                "pitch": 37,
                "velocity": 51,
                "duration": 0.3818,
                "tempo": 120.0
            },
            {
                "pitch": 38,
                "velocity": 51,
                "duration": 0.1886,
                "tempo": 120.0
            },
            {
                "pitch": 38,
                "velocity": 51,
                "duration": 0.1886,
                "tempo": 120.0
            },
            {
                "pitch": 33,
                "velocity": 51,
                "duration": 0.1841,
                "tempo": 120.0
            },
            {
                "pitch": 38,
                "velocity": 51,
                "duration": 0.1841,
                "tempo": 120.0
            },
            {
                "pitch": 38,
                "velocity": 51,
                "duration": 0.1795,
                "tempo": 120.0
            },
            {
                "pitch": 33,
                "velocity": 51,
                "duration": 0.4045,
                "tempo": 120.0
            },
            {
                "pitch": 37,
                "velocity": 51,
                "duration": 0.1841,
                "tempo": 120.0
            },
            {
                "pitch": 32,
                "velocity": 51,
                "duration": 0.1841,
                "tempo": 120.0
            },
            {
                "pitch": 37,
                "velocity": 51,
                "duration": 0.1841,
                "tempo": 120.0
            },
            {
                "pitch": 32,
                "velocity": 51,
                "duration": 0.1841,
                "tempo": 120.0
            },
            {
                "pitch": 45,
                "velocity": 51,
                "duration": 0.1841,
                "tempo": 120.0
            },
            {
                "pitch": 44,
                "velocity": 51,
                "duration": 0.1841,
                "tempo": 120.0
            },
            {
                "pitch": 42,
                "velocity": 51,
                "duration": 0.175,
                "tempo": 120.0
            },
            {
                "pitch": 40,
                "velocity": 51,
                "duration": 0.175,
                "tempo": 120.0
            },
            {
                "pitch": 35,
                "velocity": 51,
                "duration": 0.1886,
                "tempo": 120.0
            },
            {
                "pitch": 47,
                "velocity": 51,
                "duration": 0.1886,
                "tempo": 120.0
            },
            {
                "pitch": 37,
                "velocity": 51,
                "duration": 0.1886,
                "tempo": 120.0
            },
            {
                "pitch": 49,
                "velocity": 51,
                "duration": 0.1886,
                "tempo": 120.0
            },
            {
                "pitch": 38,
                "velocity": 51,
                "duration": 0.1795,
                "tempo": 120.0
            },
            {
                "pitch": 50,
                "velocity": 51,
                "duration": 0.1795,
                "tempo": 120.0
            },
            {
                "pitch": 40,
                "velocity": 51,
                "duration": 0.1818,
                "tempo": 120.0
            },
            {
                "pitch": 52,
                "velocity": 51,
                "duration": 0.1818,
                "tempo": 120.0
            },
            {
                "pitch": 42,
                "velocity": 51,
                "duration": 0.1818,
                "tempo": 120.0
            },
            {
                "pitch": 54,
                "velocity": 51,
                "duration": 0.1795,
                "tempo": 120.0
            },
            {
                "pitch": 44,
                "velocity": 51,
                "duration": 0.1841,
                "tempo": 120.0
            },
            {
                "pitch": 56,
                "velocity": 51,
                "duration": 0.1841,
                "tempo": 120.0
            },
            {
                "pitch": 45,
                "velocity": 51,
                "duration": 0.1886,
                "tempo": 120.0
            },
            {
                "pitch": 57,
                "velocity": 51,
                "duration": 0.1886,
                "tempo": 120.0
            },
            {
                "pitch": 47,
                "velocity": 51,
                "duration": 0.1841,
                "tempo": 120.0
            },
            {
                "pitch": 40,
                "velocity": 51,
                "duration": 0.1841,
                "tempo": 120.0
            },
            {
                "pitch": 33,
                "velocity": 51,
                "duration": 0.3955,
                "tempo": 120.0
            },
            {
                "pitch": 45,
                "velocity": 51,
                "duration": 0.3864,
                "tempo": 120.0
            },
            {
                "pitch": 33,
                "velocity": 51,
                "duration": 0.1864,
                "tempo": 120.0
            },
            {
                "pitch": 45,
                "velocity": 51,
                "duration": 0.1841,
                "tempo": 120.0
            },
            {
                "pitch": 33,
                "velocity": 51,
                "duration": 0.1841,
                "tempo": 120.0
            },
            {
                "pitch": 45,
                "velocity": 51,
                "duration": 0.1841,
                "tempo": 120.0
            },
            {
                "pitch": 31,
                "velocity": 51,
                "duration": 0.3682,
                "tempo": 120.0
            },
            {
                "pitch": 43,
                "velocity": 51,
                "duration": 0.1886,
                "tempo": 120.0
            },
            {
                "pitch": 45,
                "velocity": 51,
                "duration": 0.3841,
                "tempo": 120.0
            },
            {
                "pitch": 47,
                "velocity": 51,
                "duration": 0.1818,
                "tempo": 120.0
            },
            {
                "pitch": 43,
                "velocity": 51,
                "duration": 0.3932,
                "tempo": 120.0
            },
            {
                "pitch": 33,
                "velocity": 51,
                "duration": 0.3932,
                "tempo": 120.0
            },
            {
                "pitch": 45,
                "velocity": 51,
                "duration": 0.3864,
                "tempo": 120.0
            },
            {
                "pitch": 33,
                "velocity": 51,
                "duration": 0.1795,
                "tempo": 120.0
            },
            {
                "pitch": 45,
                "velocity": 51,
                "duration": 0.1795,
                "tempo": 120.0
            },
            {
                "pitch": 33,
                "velocity": 51,
                "duration": 0.1886,
                "tempo": 120.0
            },
            {
                "pitch": 45,
                "velocity": 51,
                "duration": 0.1886,
                "tempo": 120.0
            },
            {
                "pitch": 37,
                "velocity": 51,
                "duration": 0.3841,
                "tempo": 120.0
            },
            {
                "pitch": 37,
                "velocity": 51,
                "duration": 0.1841,
                "tempo": 120.0
            },
            {
                "pitch": 44,
                "velocity": 51,
                "duration": 0.375,
                "tempo": 120.0
            },
            {
                "pitch": 49,
                "velocity": 51,
                "duration": 0.175,
                "tempo": 120.0
            },
            {
                "pitch": 37,
                "velocity": 51,
                "duration": 0.3841,
                "tempo": 120.0
            },
            {
                "pitch": 38,
                "velocity": 51,
                "duration": 0.1932,
                "tempo": 120.0
            },
            {
                "pitch": 38,
                "velocity": 51,
                "duration": 0.1932,
                "tempo": 120.0
            },
            {
                "pitch": 33,
                "velocity": 51,
                "duration": 0.1795,
                "tempo": 120.0
            },
            {
                "pitch": 38,
                "velocity": 51,
                "duration": 0.1795,
                "tempo": 120.0
            },
            {
                "pitch": 38,
                "velocity": 51,
                "duration": 0.1795,
                "tempo": 120.0
            },
            {
                "pitch": 33,
                "velocity": 51,
                "duration": 0.4045,
                "tempo": 120.0
            },
            {
                "pitch": 37,
                "velocity": 51,
                "duration": 0.1818,
                "tempo": 120.0
            },
            {
                "pitch": 32,
                "velocity": 51,
                "duration": 0.1818,
                "tempo": 120.0
            },
            {
                "pitch": 37,
                "velocity": 51,
                "duration": 0.1841,
                "tempo": 120.0
            },
            {
                "pitch": 32,
                "velocity": 51,
                "duration": 0.1841,
                "tempo": 120.0
            },
            {
                "pitch": 45,
                "velocity": 51,
                "duration": 0.1841,
                "tempo": 120.0
            },
            {
                "pitch": 44,
                "velocity": 51,
                "duration": 0.1841,
                "tempo": 120.0
            },
            {
                "pitch": 42,
                "velocity": 51,
                "duration": 0.1795,
                "tempo": 120.0
            },
            {
                "pitch": 40,
                "velocity": 51,
                "duration": 0.1795,
                "tempo": 120.0
            },
            {
                "pitch": 35,
                "velocity": 51,
                "duration": 0.1841,
                "tempo": 120.0
            },
            {
                "pitch": 47,
                "velocity": 51,
                "duration": 0.1841,
                "tempo": 120.0
            },
            {
                "pitch": 37,
                "velocity": 51,
                "duration": 0.1886,
                "tempo": 120.0
            },
            {
                "pitch": 49,
                "velocity": 51,
                "duration": 0.1886,
                "tempo": 120.0
            },
            {
                "pitch": 38,
                "velocity": 51,
                "duration": 0.1795,
                "tempo": 120.0
            },
            {
                "pitch": 50,
                "velocity": 51,
                "duration": 0.1795,
                "tempo": 120.0
            },
            {
                "pitch": 40,
                "velocity": 51,
                "duration": 0.1795,
                "tempo": 120.0
            },
            {
                "pitch": 52,
                "velocity": 51,
                "duration": 0.1795,
                "tempo": 120.0
            },
            {
                "pitch": 42,
                "velocity": 51,
                "duration": 0.1886,
                "tempo": 120.0
            },
            {
                "pitch": 54,
                "velocity": 51,
                "duration": 0.1886,
                "tempo": 120.0
            },
            {
                "pitch": 44,
                "velocity": 51,
                "duration": 0.1795,
                "tempo": 120.0
            },
            {
                "pitch": 56,
                "velocity": 51,
                "duration": 0.1795,
                "tempo": 120.0
            },
            {
                "pitch": 45,
                "velocity": 51,
                "duration": 0.1886,
                "tempo": 120.0
            },
            {
                "pitch": 57,
                "velocity": 51,
                "duration": 0.1886,
                "tempo": 120.0
            },
            {
                "pitch": 47,
                "velocity": 51,
                "duration": 0.1841,
                "tempo": 120.0
            },
            {
                "pitch": 40,
                "velocity": 51,
                "duration": 0.1841,
                "tempo": 120.0
            },
            {
                "pitch": 38,
                "velocity": 51,
                "duration": 0.1841,
                "tempo": 120.0
            },
            {
                "pitch": 38,
                "velocity": 51,
                "duration": 0.1841,
                "tempo": 120.0
            },
            {
                "pitch": 38,
                "velocity": 51,
                "duration": 0.1886,
                "tempo": 120.0
            },
            {
                "pitch": 38,
                "velocity": 51,
                "duration": 0.1864,
                "tempo": 120.0
            },
            {
                "pitch": 38,
                "velocity": 51,
                "duration": 0.1841,
                "tempo": 120.0
            },
            {
                "pitch": 45,
                "velocity": 51,
                "duration": 0.1841,
                "tempo": 120.0
            },
            {
                "pitch": 38,
                "velocity": 51,
                "duration": 0.1841,
                "tempo": 120.0
            },
            {
                "pitch": 45,
                "velocity": 51,
                "duration": 0.1841,
                "tempo": 120.0
            },
            {
                "pitch": 37,
                "velocity": 51,
                "duration": 0.1795,
                "tempo": 120.0
            },
            {
                "pitch": 37,
                "velocity": 51,
                "duration": 0.1818,
                "tempo": 120.0
            },
            {
                "pitch": 37,
                "velocity": 51,
                "duration": 0.1864,
                "tempo": 120.0
            },
            {
                "pitch": 37,
                "velocity": 51,
                "duration": 0.1886,
                "tempo": 120.0
            },
            {
                "pitch": 37,
                "velocity": 51,
                "duration": 0.1841,
                "tempo": 120.0
            },
            {
                "pitch": 44,
                "velocity": 51,
                "duration": 0.1818,
                "tempo": 120.0
            },
            {
                "pitch": 37,
                "velocity": 51,
                "duration": 0.1841,
                "tempo": 120.0
            },
            {
                "pitch": 44,
                "velocity": 51,
                "duration": 0.1841,
                "tempo": 120.0
            },
            {
                "pitch": 35,
                "velocity": 51,
                "duration": 0.1818,
                "tempo": 120.0
            },
            {
                "pitch": 35,
                "velocity": 51,
                "duration": 0.1818,
                "tempo": 120.0
            },
            {
                "pitch": 35,
                "velocity": 51,
                "duration": 0.1841,
                "tempo": 120.0
            },
            {
                "pitch": 35,
                "velocity": 51,
                "duration": 0.1841,
                "tempo": 120.0
            },
            {
                "pitch": 35,
                "velocity": 51,
                "duration": 0.1841,
                "tempo": 120.0
            },
            {
                "pitch": 42,
                "velocity": 51,
                "duration": 0.1841,
                "tempo": 120.0
            },
            {
                "pitch": 35,
                "velocity": 51,
                "duration": 0.1795,
                "tempo": 120.0
            },
            {
                "pitch": 42,
                "velocity": 51,
                "duration": 0.1795,
                "tempo": 120.0
            },
            {
                "pitch": 33,
                "velocity": 51,
                "duration": 0.1841,
                "tempo": 120.0
            },
            {
                "pitch": 33,
                "velocity": 51,
                "duration": 0.1841,
                "tempo": 120.0
            },
            {
                "pitch": 33,
                "velocity": 51,
                "duration": 0.1886,
                "tempo": 120.0
            },
            {
                "pitch": 33,
                "velocity": 51,
                "duration": 0.1886,
                "tempo": 120.0
            },
            {
                "pitch": 33,
                "velocity": 51,
                "duration": 0.0818,
                "tempo": 120.0
            },
            {
                "pitch": 40,
                "velocity": 51,
                "duration": 0.0818,
                "tempo": 120.0
            },
            {
                "pitch": 33,
                "velocity": 51,
                "duration": 0.0818,
                "tempo": 120.0
            },
            {
                "pitch": 40,
                "velocity": 51,
                "duration": 0.0795,
                "tempo": 120.0
            },
            {
                "pitch": 38,
                "velocity": 51,
                "duration": 0.0818,
                "tempo": 120.0
            },
            {
                "pitch": 37,
                "velocity": 51,
                "duration": 0.0818,
                "tempo": 120.0
            },
            {
                "pitch": 35,
                "velocity": 51,
                "duration": 0.0818,
                "tempo": 120.0
            },
            {
                "pitch": 33,
                "velocity": 51,
                "duration": 0.0818,
                "tempo": 120.0
            },
            {
                "pitch": 31,
                "velocity": 51,
                "duration": 0.1864,
                "tempo": 120.0
            },
            {
                "pitch": 31,
                "velocity": 51,
                "duration": 0.1886,
                "tempo": 120.0
            },
            {
                "pitch": 31,
                "velocity": 51,
                "duration": 0.1864,
                "tempo": 120.0
            },
            {
                "pitch": 31,
                "velocity": 51,
                "duration": 0.1841,
                "tempo": 120.0
            },
            {
                "pitch": 31,
                "velocity": 51,
                "duration": 0.1818,
                "tempo": 120.0
            },
            {
                "pitch": 31,
                "velocity": 51,
                "duration": 0.1818,
                "tempo": 120.0
            },
            {
                "pitch": 31,
                "velocity": 51,
                "duration": 0.1795,
                "tempo": 120.0
            },
            {
                "pitch": 31,
                "velocity": 51,
                "duration": 0.1795,
                "tempo": 120.0
            },
            {
                "pitch": 33,
                "velocity": 51,
                "duration": 0.1886,
                "tempo": 120.0
            },
            {
                "pitch": 33,
                "velocity": 51,
                "duration": 0.1886,
                "tempo": 120.0
            },
            {
                "pitch": 33,
                "velocity": 51,
                "duration": 0.1841,
                "tempo": 120.0
            },
            {
                "pitch": 33,
                "velocity": 51,
                "duration": 0.1841,
                "tempo": 120.0
            },
            {
                "pitch": 33,
                "velocity": 51,
                "duration": 0.1841,
                "tempo": 120.0
            },
            {
                "pitch": 33,
                "velocity": 51,
                "duration": 0.1841,
                "tempo": 120.0
            },
            {
                "pitch": 33,
                "velocity": 51,
                "duration": 0.1841,
                "tempo": 120.0
            },
            {
                "pitch": 33,
                "velocity": 51,
                "duration": 0.1841,
                "tempo": 120.0
            },
            {
                "pitch": 35,
                "velocity": 51,
                "duration": 0.1841,
                "tempo": 120.0
            },
            {
                "pitch": 47,
                "velocity": 51,
                "duration": 0.1841,
                "tempo": 120.0
            },
            {
                "pitch": 35,
                "velocity": 51,
                "duration": 0.1841,
                "tempo": 120.0
            },
            {
                "pitch": 47,
                "velocity": 51,
                "duration": 0.1841,
                "tempo": 120.0
            },
            {
                "pitch": 35,
                "velocity": 51,
                "duration": 0.1841,
                "tempo": 120.0
            },
            {
                "pitch": 47,
                "velocity": 51,
                "duration": 0.1841,
                "tempo": 120.0
            },
            {
                "pitch": 35,
                "velocity": 51,
                "duration": 0.1841,
                "tempo": 120.0
            },
            {
                "pitch": 47,
                "velocity": 51,
                "duration": 0.1841,
                "tempo": 120.0
            },
            {
                "pitch": 35,
                "velocity": 51,
                "duration": 0.1841,
                "tempo": 120.0
            },
            {
                "pitch": 47,
                "velocity": 51,
                "duration": 0.1841,
                "tempo": 120.0
            },
            {
                "pitch": 35,
                "velocity": 51,
                "duration": 0.1841,
                "tempo": 120.0
            },
            {
                "pitch": 47,
                "velocity": 51,
                "duration": 0.1841,
                "tempo": 120.0
            },
            {
                "pitch": 35,
                "velocity": 51,
                "duration": 0.1841,
                "tempo": 120.0
            },
            {
                "pitch": 47,
                "velocity": 51,
                "duration": 0.1841,
                "tempo": 120.0
            },
            {
                "pitch": 35,
                "velocity": 51,
                "duration": 0.1841,
                "tempo": 120.0
            },
            {
                "pitch": 47,
                "velocity": 51,
                "duration": 0.1841,
                "tempo": 120.0
            },
            {
                "pitch": 35,
                "velocity": 51,
                "duration": 0.1841,
                "tempo": 120.0
            },
            {
                "pitch": 47,
                "velocity": 51,
                "duration": 0.1841,
                "tempo": 120.0
            },
            {
                "pitch": 35,
                "velocity": 51,
                "duration": 0.1841,
                "tempo": 120.0
            },
            {
                "pitch": 47,
                "velocity": 51,
                "duration": 0.1841,
                "tempo": 120.0
            },
            {
                "pitch": 35,
                "velocity": 51,
                "duration": 0.1841,
                "tempo": 120.0
            },
            {
                "pitch": 47,
                "velocity": 51,
                "duration": 0.1841,
                "tempo": 120.0
            },
            {
                "pitch": 35,
                "velocity": 51,
                "duration": 0.1864,
                "tempo": 120.0
            },
            {
                "pitch": 47,
                "velocity": 51,
                "duration": 0.1841,
                "tempo": 120.0
            },
            {
                "pitch": 35,
                "velocity": 51,
                "duration": 0.1841,
                "tempo": 120.0
            },
            {
                "pitch": 47,
                "velocity": 51,
                "duration": 0.1818,
                "tempo": 120.0
            },
            {
                "pitch": 35,
                "velocity": 51,
                "duration": 0.1818,
                "tempo": 120.0
            },
            {
                "pitch": 47,
                "velocity": 51,
                "duration": 0.1818,
                "tempo": 120.0
            },
            {
                "pitch": 35,
                "velocity": 51,
                "duration": 0.1818,
                "tempo": 120.0
            },
            {
                "pitch": 47,
                "velocity": 51,
                "duration": 0.1818,
                "tempo": 120.0
            },
            {
                "pitch": 35,
                "velocity": 51,
                "duration": 0.1818,
                "tempo": 120.0
            },
            {
                "pitch": 47,
                "velocity": 51,
                "duration": 0.1818,
                "tempo": 120.0
            },
            {
                "pitch": 40,
                "velocity": 51,
                "duration": 0.1841,
                "tempo": 120.0
            },
            {
                "pitch": 52,
                "velocity": 51,
                "duration": 0.1841,
                "tempo": 120.0
            },
            {
                "pitch": 40,
                "velocity": 51,
                "duration": 0.1818,
                "tempo": 120.0
            },
            {
                "pitch": 52,
                "velocity": 51,
                "duration": 0.1818,
                "tempo": 120.0
            },
            {
                "pitch": 40,
                "velocity": 51,
                "duration": 0.1818,
                "tempo": 120.0
            },
            {
                "pitch": 52,
                "velocity": 51,
                "duration": 0.1818,
                "tempo": 120.0
            },
            {
                "pitch": 40,
                "velocity": 51,
                "duration": 0.1795,
                "tempo": 120.0
            },
            {
                "pitch": 52,
                "velocity": 51,
                "duration": 0.1795,
                "tempo": 120.0
            },
            {
                "pitch": 40,
                "velocity": 51,
                "duration": 0.1841,
                "tempo": 120.0
            },
            {
                "pitch": 52,
                "velocity": 51,
                "duration": 0.1841,
                "tempo": 120.0
            },
            {
                "pitch": 40,
                "velocity": 51,
                "duration": 0.1841,
                "tempo": 120.0
            },
            {
                "pitch": 52,
                "velocity": 51,
                "duration": 0.1841,
                "tempo": 120.0
            },
            {
                "pitch": 40,
                "velocity": 51,
                "duration": 0.1841,
                "tempo": 120.0
            },
            {
                "pitch": 52,
                "velocity": 51,
                "duration": 0.1841,
                "tempo": 120.0
            },
            {
                "pitch": 40,
                "velocity": 51,
                "duration": 0.1841,
                "tempo": 120.0
            },
            {
                "pitch": 52,
                "velocity": 51,
                "duration": 0.1841,
                "tempo": 120.0
            },
            {
                "pitch": 40,
                "velocity": 51,
                "duration": 0.1841,
                "tempo": 120.0
            },
            {
                "pitch": 52,
                "velocity": 51,
                "duration": 0.1841,
                "tempo": 120.0
            },
            {
                "pitch": 40,
                "velocity": 51,
                "duration": 0.1886,
                "tempo": 120.0
            },
            {
                "pitch": 52,
                "velocity": 51,
                "duration": 0.1886,
                "tempo": 120.0
            },
            {
                "pitch": 40,
                "velocity": 51,
                "duration": 0.1795,
                "tempo": 120.0
            },
            {
                "pitch": 52,
                "velocity": 51,
                "duration": 0.1795,
                "tempo": 120.0
            },
            {
                "pitch": 40,
                "velocity": 51,
                "duration": 0.1818,
                "tempo": 120.0
            },
            {
                "pitch": 52,
                "velocity": 51,
                "duration": 0.1818,
                "tempo": 120.0
            },
            {
                "pitch": 40,
                "velocity": 51,
                "duration": 0.1841,
                "tempo": 120.0
            },
            {
                "pitch": 52,
                "velocity": 51,
                "duration": 0.1841,
                "tempo": 120.0
            },
            {
                "pitch": 40,
                "velocity": 51,
                "duration": 0.1841,
                "tempo": 120.0
            },
            {
                "pitch": 52,
                "velocity": 51,
                "duration": 0.1841,
                "tempo": 120.0
            },
            {
                "pitch": 40,
                "velocity": 51,
                "duration": 0.1886,
                "tempo": 120.0
            },
            {
                "pitch": 52,
                "velocity": 51,
                "duration": 0.1886,
                "tempo": 120.0
            },
            {
                "pitch": 40,
                "velocity": 51,
                "duration": 0.1795,
                "tempo": 120.0
            },
            {
                "pitch": 52,
                "velocity": 51,
                "duration": 0.1795,
                "tempo": 120.0
            }
        ],
        "Church Organ": [
            {
                "pitch": 52,
                "velocity": 40,
                "duration": 0.7659,
                "tempo": 120.0
            },
            {
                "pitch": 57,
                "velocity": 40,
                "duration": 0.5932,
                "tempo": 120.0
            },
            {
                "pitch": 57,
                "velocity": 40,
                "duration": 0.1841,
                "tempo": 120.0
            },
            {
                "pitch": 55,
                "velocity": 40,
                "duration": 0.5773,
                "tempo": 120.0
            },
            {
                "pitch": 55,
                "velocity": 40,
                "duration": 0.5932,
                "tempo": 120.0
            },
            {
                "pitch": 50,
                "velocity": 40,
                "duration": 0.375,
                "tempo": 120.0
            },
            {
                "pitch": 52,
                "velocity": 40,
                "duration": 0.1886,
                "tempo": 120.0
            },
            {
                "pitch": 45,
                "velocity": 40,
                "duration": 0.1864,
                "tempo": 120.0
            },
            {
                "pitch": 52,
                "velocity": 40,
                "duration": 0.1841,
                "tempo": 120.0
            },
            {
                "pitch": 45,
                "velocity": 40,
                "duration": 0.1841,
                "tempo": 120.0
            },
            {
                "pitch": 57,
                "velocity": 40,
                "duration": 0.5795,
                "tempo": 120.0
            },
            {
                "pitch": 64,
                "velocity": 40,
                "duration": 0.1886,
                "tempo": 120.0
            },
            {
                "pitch": 68,
                "velocity": 40,
                "duration": 0.5886,
                "tempo": 120.0
            },
            {
                "pitch": 64,
                "velocity": 40,
                "duration": 0.7659,
                "tempo": 120.0
            },
            {
                "pitch": 59,
                "velocity": 40,
                "duration": 0.1818,
                "tempo": 120.0
            },
            {
                "pitch": 62,
                "velocity": 40,
                "duration": 0.1886,
                "tempo": 120.0
            },
            {
                "pitch": 61,
                "velocity": 40,
                "duration": 0.1841,
                "tempo": 120.0
            },
            {
                "pitch": 59,
                "velocity": 40,
                "duration": 0.3818,
                "tempo": 120.0
            },
            {
                "pitch": 61,
                "velocity": 40,
                "duration": 0.1795,
                "tempo": 120.0
            },
            {
                "pitch": 62,
                "velocity": 40,
                "duration": 0.4045,
                "tempo": 120.0
            },
            {
                "pitch": 61,
                "velocity": 40,
                "duration": 0.7886,
                "tempo": 120.0
            },
            {
                "pitch": 57,
                "velocity": 40,
                "duration": 0.7659,
                "tempo": 120.0
            },
            {
                "pitch": 47,
                "velocity": 40,
                "duration": 0.0864,
                "tempo": 120.0
            },
            {
                "pitch": 49,
                "velocity": 40,
                "duration": 0.0841,
                "tempo": 120.0
            },
            {
                "pitch": 47,
                "velocity": 40,
                "duration": 1.3909,
                "tempo": 120.0
            },
            {
                "pitch": 59,
                "velocity": 40,
                "duration": 0.0818,
                "tempo": 120.0
            },
            {
                "pitch": 61,
                "velocity": 40,
                "duration": 0.0818,
                "tempo": 120.0
            },
            {
                "pitch": 59,
                "velocity": 40,
                "duration": 1.3955,
                "tempo": 120.0
            },
            {
                "pitch": 52,
                "velocity": 40,
                "duration": 0.7977,
                "tempo": 120.0
            },
            {
                "pitch": 57,
                "velocity": 40,
                "duration": 0.5886,
                "tempo": 120.0
            },
            {
                "pitch": 57,
                "velocity": 40,
                "duration": 0.1841,
                "tempo": 120.0
            },
            {
                "pitch": 55,
                "velocity": 40,
                "duration": 0.5727,
                "tempo": 120.0
            },
            {
                "pitch": 55,
                "velocity": 40,
                "duration": 0.5818,
                "tempo": 120.0
            },
            {
                "pitch": 50,
                "velocity": 40,
                "duration": 0.3932,
                "tempo": 120.0
            },
            {
                "pitch": 52,
                "velocity": 40,
                "duration": 0.1886,
                "tempo": 120.0
            },
            {
                "pitch": 45,
                "velocity": 40,
                "duration": 0.1886,
                "tempo": 120.0
            },
            {
                "pitch": 52,
                "velocity": 40,
                "duration": 0.1864,
                "tempo": 120.0
            },
            {
                "pitch": 45,
                "velocity": 40,
                "duration": 0.1841,
                "tempo": 120.0
            },
            {
                "pitch": 57,
                "velocity": 40,
                "duration": 0.5795,
                "tempo": 120.0
            },
            {
                "pitch": 64,
                "velocity": 40,
                "duration": 0.1886,
                "tempo": 120.0
            },
            {
                "pitch": 68,
                "velocity": 40,
                "duration": 0.5841,
                "tempo": 120.0
            },
            {
                "pitch": 64,
                "velocity": 40,
                "duration": 0.7659,
                "tempo": 120.0
            },
            {
                "pitch": 59,
                "velocity": 40,
                "duration": 0.1841,
                "tempo": 120.0
            },
            {
                "pitch": 62,
                "velocity": 40,
                "duration": 0.1932,
                "tempo": 120.0
            },
            {
                "pitch": 61,
                "velocity": 40,
                "duration": 0.1795,
                "tempo": 120.0
            },
            {
                "pitch": 59,
                "velocity": 40,
                "duration": 0.375,
                "tempo": 120.0
            },
            {
                "pitch": 61,
                "velocity": 40,
                "duration": 0.1795,
                "tempo": 120.0
            },
            {
                "pitch": 62,
                "velocity": 40,
                "duration": 0.4045,
                "tempo": 120.0
            },
            {
                "pitch": 61,
                "velocity": 40,
                "duration": 0.7841,
                "tempo": 120.0
            },
            {
                "pitch": 57,
                "velocity": 40,
                "duration": 0.775,
                "tempo": 120.0
            },
            {
                "pitch": 47,
                "velocity": 40,
                "duration": 0.0841,
                "tempo": 120.0
            },
            {
                "pitch": 49,
                "velocity": 40,
                "duration": 0.0841,
                "tempo": 120.0
            },
            {
                "pitch": 47,
                "velocity": 40,
                "duration": 1.3795,
                "tempo": 120.0
            },
            {
                "pitch": 59,
                "velocity": 40,
                "duration": 0.0864,
                "tempo": 120.0
            },
            {
                "pitch": 61,
                "velocity": 40,
                "duration": 0.0864,
                "tempo": 120.0
            },
            {
                "pitch": 59,
                "velocity": 40,
                "duration": 1.3909,
                "tempo": 120.0
            },
            {
                "pitch": 50,
                "velocity": 40,
                "duration": 0.5886,
                "tempo": 120.0
            },
            {
                "pitch": 50,
                "velocity": 40,
                "duration": 0.3886,
                "tempo": 120.0
            },
            {
                "pitch": 52,
                "velocity": 40,
                "duration": 0.1841,
                "tempo": 120.0
            },
            {
                "pitch": 54,
                "velocity": 40,
                "duration": 0.3841,
                "tempo": 120.0
            },
            {
                "pitch": 49,
                "velocity": 40,
                "duration": 0.5795,
                "tempo": 120.0
            },
            {
                "pitch": 49,
                "velocity": 40,
                "duration": 0.3886,
                "tempo": 120.0
            },
            {
                "pitch": 52,
                "velocity": 40,
                "duration": 0.1818,
                "tempo": 120.0
            },
            {
                "pitch": 54,
                "velocity": 40,
                "duration": 0.3841,
                "tempo": 120.0
            },
            {
                "pitch": 47,
                "velocity": 40,
                "duration": 0.5841,
                "tempo": 120.0
            },
            {
                "pitch": 47,
                "velocity": 40,
                "duration": 0.3864,
                "tempo": 120.0
            },
            {
                "pitch": 52,
                "velocity": 40,
                "duration": 0.1841,
                "tempo": 120.0
            },
            {
                "pitch": 54,
                "velocity": 40,
                "duration": 0.375,
                "tempo": 120.0
            },
            {
                "pitch": 52,
                "velocity": 40,
                "duration": 0.1841,
                "tempo": 120.0
            },
            {
                "pitch": 50,
                "velocity": 40,
                "duration": 0.3886,
                "tempo": 120.0
            },
            {
                "pitch": 45,
                "velocity": 40,
                "duration": 0.3841,
                "tempo": 120.0
            },
            {
                "pitch": 47,
                "velocity": 40,
                "duration": 0.0818,
                "tempo": 120.0
            },
            {
                "pitch": 45,
                "velocity": 40,
                "duration": 0.3818,
                "tempo": 120.0
            },
            {
                "pitch": 43,
                "velocity": 40,
                "duration": 0.5955,
                "tempo": 120.0
            },
            {
                "pitch": 50,
                "velocity": 40,
                "duration": 0.3841,
                "tempo": 120.0
            },
            {
                "pitch": 49,
                "velocity": 40,
                "duration": 0.1818,
                "tempo": 120.0
            },
            {
                "pitch": 47,
                "velocity": 40,
                "duration": 0.375,
                "tempo": 120.0
            },
            {
                "pitch": 45,
                "velocity": 40,
                "duration": 0.5955,
                "tempo": 120.0
            },
            {
                "pitch": 52,
                "velocity": 40,
                "duration": 0.3841,
                "tempo": 120.0
            },
            {
                "pitch": 52,
                "velocity": 40,
                "duration": 0.1841,
                "tempo": 120.0
            },
            {
                "pitch": 45,
                "velocity": 40,
                "duration": 0.3841,
                "tempo": 120.0
            },
            {
                "pitch": 42,
                "velocity": 40,
                "duration": 0.7864,
                "tempo": 120.0
            },
            {
                "pitch": 45,
                "velocity": 40,
                "duration": 0.7841,
                "tempo": 120.0
            },
            {
                "pitch": 47,
                "velocity": 40,
                "duration": 0.7841,
                "tempo": 120.0
            },
            {
                "pitch": 49,
                "velocity": 40,
                "duration": 0.7864,
                "tempo": 120.0
            },
            {
                "pitch": 42,
                "velocity": 40,
                "duration": 0.3841,
                "tempo": 120.0
            },
            {
                "pitch": 42,
                "velocity": 40,
                "duration": 0.3841,
                "tempo": 120.0
            },
            {
                "pitch": 47,
                "velocity": 40,
                "duration": 0.3841,
                "tempo": 120.0
            },
            {
                "pitch": 49,
                "velocity": 40,
                "duration": 0.3864,
                "tempo": 120.0
            },
            {
                "pitch": 42,
                "velocity": 40,
                "duration": 0.3841,
                "tempo": 120.0
            },
            {
                "pitch": 45,
                "velocity": 40,
                "duration": 0.3818,
                "tempo": 120.0
            },
            {
                "pitch": 47,
                "velocity": 40,
                "duration": 0.3818,
                "tempo": 120.0
            },
            {
                "pitch": 49,
                "velocity": 40,
                "duration": 0.3818,
                "tempo": 120.0
            },
            {
                "pitch": 44,
                "velocity": 40,
                "duration": 0.7841,
                "tempo": 120.0
            },
            {
                "pitch": 45,
                "velocity": 40,
                "duration": 0.775,
                "tempo": 120.0
            },
            {
                "pitch": 47,
                "velocity": 40,
                "duration": 0.7841,
                "tempo": 120.0
            },
            {
                "pitch": 49,
                "velocity": 40,
                "duration": 0.7864,
                "tempo": 120.0
            },
            {
                "pitch": 44,
                "velocity": 40,
                "duration": 0.3841,
                "tempo": 120.0
            },
            {
                "pitch": 45,
                "velocity": 40,
                "duration": 0.3955,
                "tempo": 120.0
            },
            {
                "pitch": 47,
                "velocity": 40,
                "duration": 0.375,
                "tempo": 120.0
            },
            {
                "pitch": 49,
                "velocity": 40,
                "duration": 0.3818,
                "tempo": 120.0
            },
            {
                "pitch": 50,
                "velocity": 40,
                "duration": 0.3841,
                "tempo": 120.0
            },
            {
                "pitch": 52,
                "velocity": 40,
                "duration": 0.3841,
                "tempo": 120.0
            },
            {
                "pitch": 54,
                "velocity": 40,
                "duration": 0.3932,
                "tempo": 120.0
            },
            {
                "pitch": 56,
                "velocity": 40,
                "duration": 0.375,
                "tempo": 120.0
            }
        ]
    }
}