{
    "track_id": "Wonder Boy III (FM) - 08 - Side-Crawler_s Dance",
    "mood": "happy",
    "instruments": {
        "Synth Bass 1": [
            {
                "pitch": 57,
                "velocity": 4,
                "duration": 0.0159,
                "tempo": 120.0
            },
            {
                "pitch": 69,
                "velocity": 64,
                "duration": 0.0341,
                "tempo": 120.0
            },
            {
                "pitch": 69,
                "velocity": 64,
                "duration": 0.0159,
                "tempo": 120.0
            },
            {
                "pitch": 57,
                "velocity": 64,
                "duration": 0.0159,
                "tempo": 120.0
            },
            {
                "pitch": 69,
                "velocity": 64,
                "duration": 0.0159,
                "tempo": 120.0
            },
            {
                "pitch": 69,
                "velocity": 64,
                "duration": 0.0159,
                "tempo": 120.0
            },
            {
                "pitch": 57,
                "velocity": 64,
                "duration": 0.0341,
                "tempo": 120.0
            },
            {
                "pitch": 57,
                "velocity": 64,
                "duration": 0.0159,
                "tempo": 120.0
            },
            {
                "pitch": 69,
                "velocity": 64,
                "duration": 0.0182,
                "tempo": 120.0
            },
            {
                "pitch": 57,
                "velocity": 64,
                "duration": 0.0159,
                "tempo": 120.0
            },
            {
                "pitch": 69,
                "velocity": 64,
                "duration": 0.0318,
                "tempo": 120.0
            },
            {
                "pitch": 69,
                "velocity": 64,
                "duration": 0.0182,
                "tempo": 120.0
            },
            {
                "pitch": 52,
                "velocity": 64,
                "duration": 0.0182,
                "tempo": 120.0
            },
            {
                "pitch": 64,
                "velocity": 64,
                "duration": 0.0159,
                "tempo": 120.0
            },
            {
                "pitch": 64,
                "velocity": 64,
                "duration": 0.0159,
                "tempo": 120.0
            },
            {
                "pitch": 52,
                "velocity": 64,
                "duration": 0.0341,
                "tempo": 120.0
            },
            {
                "pitch": 64,
                "velocity": 64,
                "duration": 0.0159,
                "tempo": 120.0
            },
            {
                "pitch": 64,
                "velocity": 64,
                "duration": 0.0341,
                "tempo": 120.0
            },
            {
                "pitch": 52,
                "velocity": 64,
                "duration": 0.0159,
                "tempo": 120.0
            },
            {
                "pitch": 52,
                "velocity": 64,
                "duration": 0.0182,
                "tempo": 120.0
            },
            {
                "pitch": 64,
                "velocity": 64,
                "duration": 0.0341,
                "tempo": 120.0
            },
            {
                "pitch": 52,
                "velocity": 64,
                "duration": 0.0159,
                "tempo": 120.0
            },
            {
                "pitch": 64,
                "velocity": 64,
                "duration": 0.0182,
                "tempo": 120.0
            },
            {
                "pitch": 64,
                "velocity": 64,
                "duration": 0.0159,
                "tempo": 120.0
            },
            {
                "pitch": 54,
                "velocity": 64,
                "duration": 0.0341,
                "tempo": 120.0
            },
            {
                "pitch": 66,
                "velocity": 64,
                "duration": 0.0159,
                "tempo": 120.0
            },
            {
                "pitch": 66,
                "velocity": 64,
                "duration": 0.0341,
                "tempo": 120.0
            },
            {
                "pitch": 54,
                "velocity": 64,
                "duration": 0.0182,
                "tempo": 120.0
            },
            {
                "pitch": 66,
                "velocity": 64,
                "duration": 0.0318,
                "tempo": 120.0
            },
            {
                "pitch": 66,
                "velocity": 64,
                "duration": 0.0159,
                "tempo": 120.0
            },
            {
                "pitch": 54,
                "velocity": 64,
                "duration": 0.0182,
                "tempo": 120.0
            },
            {
                "pitch": 54,
                "velocity": 64,
                "duration": 0.0341,
                "tempo": 120.0
            },
            {
                "pitch": 66,
                "velocity": 64,
                "duration": 0.0159,
                "tempo": 120.0
            },
            {
                "pitch": 54,
                "velocity": 64,
                "duration": 0.0341,
                "tempo": 120.0
            },
            {
                "pitch": 66,
                "velocity": 64,
                "duration": 0.0159,
                "tempo": 120.0
            },
            {
                "pitch": 66,
                "velocity": 64,
                "duration": 0.0341,
                "tempo": 120.0
            },
            {
                "pitch": 50,
                "velocity": 64,
                "duration": 0.0159,
                "tempo": 120.0
            },
            {
                "pitch": 62,
                "velocity": 64,
                "duration": 0.0341,
                "tempo": 120.0
            },
            {
                "pitch": 62,
                "velocity": 64,
                "duration": 0.0341,
                "tempo": 120.0
            },
            {
                "pitch": 50,
                "velocity": 64,
                "duration": 0.0341,
                "tempo": 120.0
            },
            {
                "pitch": 62,
                "velocity": 64,
                "duration": 0.0318,
                "tempo": 120.0
            },
            {
                "pitch": 62,
                "velocity": 64,
                "duration": 0.0341,
                "tempo": 120.0
            },
            {
                "pitch": 52,
                "velocity": 64,
                "duration": 0.0341,
                "tempo": 120.0
            },
            {
                "pitch": 52,
                "velocity": 64,
                "duration": 0.0341,
                "tempo": 120.0
            },
            {
                "pitch": 52,
                "velocity": 64,
                "duration": 0.0341,
                "tempo": 120.0
            },
            {
                "pitch": 52,
                "velocity": 64,
                "duration": 0.0341,
                "tempo": 120.0
            },
            {
                "pitch": 52,
                "velocity": 64,
                "duration": 0.0341,
                "tempo": 120.0
            },
            {
                "pitch": 64,
                "velocity": 64,
                "duration": 0.0341,
                "tempo": 120.0
            },
            {
                "pitch": 64,
                "velocity": 64,
                "duration": 0.0318,
                "tempo": 120.0
            },
            {
                "pitch": 57,
                "velocity": 64,
                "duration": 0.0318,
                "tempo": 120.0
            },
            {
                "pitch": 69,
                "velocity": 64,
                "duration": 0.0341,
                "tempo": 120.0
            },
            {
                "pitch": 69,
                "velocity": 64,
                "duration": 0.0341,
                "tempo": 120.0
            },
            {
                "pitch": 57,
                "velocity": 64,
                "duration": 0.0318,
                "tempo": 120.0
            },
            {
                "pitch": 69,
                "velocity": 64,
                "duration": 0.0341,
                "tempo": 120.0
            },
            {
                "pitch": 69,
                "velocity": 64,
                "duration": 0.0341,
                "tempo": 120.0
            },
            {
                "pitch": 57,
                "velocity": 64,
                "duration": 0.0341,
                "tempo": 120.0
            },
            {
                "pitch": 57,
                "velocity": 64,
                "duration": 0.0341,
                "tempo": 120.0
            },
            {
                "pitch": 69,
                "velocity": 64,
                "duration": 0.0341,
                "tempo": 120.0
            },
            {
                "pitch": 57,
                "velocity": 64,
                "duration": 0.0341,
                "tempo": 120.0
            },
            {
                "pitch": 69,
                "velocity": 64,
                "duration": 0.0318,
                "tempo": 120.0
            },
            {
                "pitch": 69,
                "velocity": 64,
                "duration": 0.0341,
                "tempo": 120.0
            },
            {
                "pitch": 52,
                "velocity": 64,
                "duration": 0.0341,
                "tempo": 120.0
            },
            {
                "pitch": 64,
                "velocity": 64,
                "duration": 0.0341,
                "tempo": 120.0
            },
            {
                "pitch": 64,
                "velocity": 64,
                "duration": 0.0318,
                "tempo": 120.0
            },
            {
                "pitch": 52,
                "velocity": 64,
                "duration": 0.0341,
                "tempo": 120.0
            },
            {
                "pitch": 64,
                "velocity": 64,
                "duration": 0.0341,
                "tempo": 120.0
            },
            {
                "pitch": 64,
                "velocity": 64,
                "duration": 0.0341,
                "tempo": 120.0
            },
            {
                "pitch": 52,
                "velocity": 64,
                "duration": 0.0318,
                "tempo": 120.0
            },
            {
                "pitch": 52,
                "velocity": 64,
                "duration": 0.0318,
                "tempo": 120.0
            },
            {
                "pitch": 64,
                "velocity": 64,
                "duration": 0.0341,
                "tempo": 120.0
            },
            {
                "pitch": 52,
                "velocity": 64,
                "duration": 0.0341,
                "tempo": 120.0
            },
            {
                "pitch": 64,
                "velocity": 64,
                "duration": 0.0341,
                "tempo": 120.0
            },
            {
                "pitch": 64,
                "velocity": 64,
                "duration": 0.0341,
                "tempo": 120.0
            },
            {
                "pitch": 54,
                "velocity": 64,
                "duration": 0.0341,
                "tempo": 120.0
            },
            {
                "pitch": 66,
                "velocity": 64,
                "duration": 0.0341,
                "tempo": 120.0
            },
            {
                "pitch": 66,
                "velocity": 64,
                "duration": 0.0318,
                "tempo": 120.0
            },
            {
                "pitch": 54,
                "velocity": 64,
                "duration": 0.0341,
                "tempo": 120.0
            },
            {
                "pitch": 66,
                "velocity": 64,
                "duration": 0.0341,
                "tempo": 120.0
            },
            {
                "pitch": 66,
                "velocity": 64,
                "duration": 0.0318,
                "tempo": 120.0
            },
            {
                "pitch": 54,
                "velocity": 64,
                "duration": 0.0341,
                "tempo": 120.0
            },
            {
                "pitch": 54,
                "velocity": 64,
                "duration": 0.0341,
                "tempo": 120.0
            },
            {
                "pitch": 66,
                "velocity": 64,
                "duration": 0.0341,
                "tempo": 120.0
            },
            {
                "pitch": 54,
                "velocity": 64,
                "duration": 0.0341,
                "tempo": 120.0
            },
            {
                "pitch": 66,
                "velocity": 64,
                "duration": 0.0341,
                "tempo": 120.0
            },
            {
                "pitch": 66,
                "velocity": 64,
                "duration": 0.0341,
                "tempo": 120.0
            },
            {
                "pitch": 50,
                "velocity": 64,
                "duration": 0.0341,
                "tempo": 120.0
            },
            {
                "pitch": 62,
                "velocity": 64,
                "duration": 0.0341,
                "tempo": 120.0
            },
            {
                "pitch": 62,
                "velocity": 64,
                "duration": 0.0341,
                "tempo": 120.0
            },
            {
                "pitch": 50,
                "velocity": 64,
                "duration": 0.0341,
                "tempo": 120.0
            },
            {
                "pitch": 62,
                "velocity": 64,
                "duration": 0.0341,
                "tempo": 120.0
            },
            {
                "pitch": 62,
                "velocity": 64,
                "duration": 0.0318,
                "tempo": 120.0
            },
            {
                "pitch": 52,
                "velocity": 64,
                "duration": 0.0341,
                "tempo": 120.0
            },
            {
                "pitch": 52,
                "velocity": 64,
                "duration": 0.0341,
                "tempo": 120.0
            },
            {
                "pitch": 52,
                "velocity": 64,
                "duration": 0.0341,
                "tempo": 120.0
            },
            {
                "pitch": 52,
                "velocity": 64,
                "duration": 0.0318,
                "tempo": 120.0
            },
            {
                "pitch": 52,
                "velocity": 64,
                "duration": 0.0318,
                "tempo": 120.0
            },
            {
                "pitch": 64,
                "velocity": 64,
                "duration": 0.0341,
                "tempo": 120.0
            },
            {
                "pitch": 64,
                "velocity": 64,
                "duration": 0.0341,
                "tempo": 120.0
            },
            {
                "pitch": 57,
                "velocity": 64,
                "duration": 0.0341,
                "tempo": 120.0
            },
            {
                "pitch": 69,
                "velocity": 64,
                "duration": 0.0341,
                "tempo": 120.0
            },
            {
                "pitch": 57,
                "velocity": 64,
                "duration": 0.0341,
                "tempo": 120.0
            },
            {
                "pitch": 69,
                "velocity": 64,
                "duration": 0.0318,
                "tempo": 120.0
            },
            {
                "pitch": 69,
                "velocity": 64,
                "duration": 0.0341,
                "tempo": 120.0
            },
            {
                "pitch": 57,
                "velocity": 64,
                "duration": 0.0341,
                "tempo": 120.0
            },
            {
                "pitch": 57,
                "velocity": 64,
                "duration": 0.0341,
                "tempo": 120.0
            },
            {
                "pitch": 57,
                "velocity": 64,
                "duration": 0.0318,
                "tempo": 120.0
            },
            {
                "pitch": 57,
                "velocity": 64,
                "duration": 0.0341,
                "tempo": 120.0
            },
            {
                "pitch": 69,
                "velocity": 64,
                "duration": 0.0318,
                "tempo": 120.0
            },
            {
                "pitch": 56,
                "velocity": 64,
                "duration": 0.0341,
                "tempo": 120.0
            },
            {
                "pitch": 68,
                "velocity": 64,
                "duration": 0.0341,
                "tempo": 120.0
            },
            {
                "pitch": 56,
                "velocity": 64,
                "duration": 0.0318,
                "tempo": 120.0
            },
            {
                "pitch": 68,
                "velocity": 64,
                "duration": 0.0341,
                "tempo": 120.0
            },
            {
                "pitch": 68,
                "velocity": 64,
                "duration": 0.0341,
                "tempo": 120.0
            },
            {
                "pitch": 56,
                "velocity": 64,
                "duration": 0.0341,
                "tempo": 120.0
            },
            {
                "pitch": 56,
                "velocity": 64,
                "duration": 0.0341,
                "tempo": 120.0
            },
            {
                "pitch": 56,
                "velocity": 64,
                "duration": 0.0341,
                "tempo": 120.0
            },
            {
                "pitch": 56,
                "velocity": 64,
                "duration": 0.0341,
                "tempo": 120.0
            },
            {
                "pitch": 68,
                "velocity": 64,
                "duration": 0.0318,
                "tempo": 120.0
            },
            {
                "pitch": 55,
                "velocity": 64,
                "duration": 0.0341,
                "tempo": 120.0
            },
            {
                "pitch": 67,
                "velocity": 64,
                "duration": 0.0341,
                "tempo": 120.0
            },
            {
                "pitch": 55,
                "velocity": 64,
                "duration": 0.0341,
                "tempo": 120.0
            },
            {
                "pitch": 67,
                "velocity": 64,
                "duration": 0.0341,
                "tempo": 120.0
            },
            {
                "pitch": 67,
                "velocity": 64,
                "duration": 0.0341,
                "tempo": 120.0
            },
            {
                "pitch": 55,
                "velocity": 64,
                "duration": 0.0318,
                "tempo": 120.0
            },
            {
                "pitch": 55,
                "velocity": 64,
                "duration": 0.0318,
                "tempo": 120.0
            },
            {
                "pitch": 55,
                "velocity": 64,
                "duration": 0.0341,
                "tempo": 120.0
            },
            {
                "pitch": 55,
                "velocity": 64,
                "duration": 0.0341,
                "tempo": 120.0
            },
            {
                "pitch": 67,
                "velocity": 64,
                "duration": 0.0341,
                "tempo": 120.0
            },
            {
                "pitch": 54,
                "velocity": 64,
                "duration": 0.0341,
                "tempo": 120.0
            },
            {
                "pitch": 66,
                "velocity": 64,
                "duration": 0.0318,
                "tempo": 120.0
            },
            {
                "pitch": 54,
                "velocity": 64,
                "duration": 0.0341,
                "tempo": 120.0
            },
            {
                "pitch": 66,
                "velocity": 64,
                "duration": 0.0341,
                "tempo": 120.0
            },
            {
                "pitch": 66,
                "velocity": 64,
                "duration": 0.0341,
                "tempo": 120.0
            },
            {
                "pitch": 54,
                "velocity": 64,
                "duration": 0.0341,
                "tempo": 120.0
            },
            {
                "pitch": 54,
                "velocity": 64,
                "duration": 0.0341,
                "tempo": 120.0
            },
            {
                "pitch": 54,
                "velocity": 64,
                "duration": 0.0341,
                "tempo": 120.0
            },
            {
                "pitch": 54,
                "velocity": 64,
                "duration": 0.0318,
                "tempo": 120.0
            },
            {
                "pitch": 66,
                "velocity": 64,
                "duration": 0.0341,
                "tempo": 120.0
            },
            {
                "pitch": 53,
                "velocity": 64,
                "duration": 0.0341,
                "tempo": 120.0
            },
            {
                "pitch": 65,
                "velocity": 64,
                "duration": 0.0341,
                "tempo": 120.0
            },
            {
                "pitch": 53,
                "velocity": 64,
                "duration": 0.0341,
                "tempo": 120.0
            },
            {
                "pitch": 65,
                "velocity": 64,
                "duration": 0.0318,
                "tempo": 120.0
            },
            {
                "pitch": 65,
                "velocity": 64,
                "duration": 0.0341,
                "tempo": 120.0
            },
            {
                "pitch": 53,
                "velocity": 64,
                "duration": 0.0341,
                "tempo": 120.0
            },
            {
                "pitch": 53,
                "velocity": 64,
                "duration": 0.0341,
                "tempo": 120.0
            },
            {
                "pitch": 53,
                "velocity": 64,
                "duration": 0.0341,
                "tempo": 120.0
            },
            {
                "pitch": 53,
                "velocity": 64,
                "duration": 0.0318,
                "tempo": 120.0
            },
            {
                "pitch": 65,
                "velocity": 64,
                "duration": 0.0341,
                "tempo": 120.0
            },
            {
                "pitch": 52,
                "velocity": 64,
                "duration": 0.0318,
                "tempo": 120.0
            },
            {
                "pitch": 64,
                "velocity": 64,
                "duration": 0.0341,
                "tempo": 120.0
            },
            {
                "pitch": 52,
                "velocity": 64,
                "duration": 0.0341,
                "tempo": 120.0
            },
            {
                "pitch": 64,
                "velocity": 64,
                "duration": 0.0341,
                "tempo": 120.0
            },
            {
                "pitch": 64,
                "velocity": 64,
                "duration": 0.0341,
                "tempo": 120.0
            },
            {
                "pitch": 52,
                "velocity": 64,
                "duration": 0.0341,
                "tempo": 120.0
            },
            {
                "pitch": 52,
                "velocity": 64,
                "duration": 0.0341,
                "tempo": 120.0
            },
            {
                "pitch": 52,
                "velocity": 64,
                "duration": 0.0318,
                "tempo": 120.0
            },
            {
                "pitch": 52,
                "velocity": 64,
                "duration": 0.0341,
                "tempo": 120.0
            },
            {
                "pitch": 64,
                "velocity": 64,
                "duration": 0.0341,
                "tempo": 120.0
            },
            {
                "pitch": 50,
                "velocity": 64,
                "duration": 0.0341,
                "tempo": 120.0
            },
            {
                "pitch": 62,
                "velocity": 64,
                "duration": 0.0341,
                "tempo": 120.0
            },
            {
                "pitch": 50,
                "velocity": 64,
                "duration": 0.0318,
                "tempo": 120.0
            },
            {
                "pitch": 62,
                "velocity": 64,
                "duration": 0.0341,
                "tempo": 120.0
            },
            {
                "pitch": 62,
                "velocity": 64,
                "duration": 0.0341,
                "tempo": 120.0
            },
            {
                "pitch": 50,
                "velocity": 64,
                "duration": 0.0341,
                "tempo": 120.0
            },
            {
                "pitch": 50,
                "velocity": 64,
                "duration": 0.0318,
                "tempo": 120.0
            },
            {
                "pitch": 50,
                "velocity": 64,
                "duration": 0.0341,
                "tempo": 120.0
            },
            {
                "pitch": 50,
                "velocity": 64,
                "duration": 0.0341,
                "tempo": 120.0
            },
            {
                "pitch": 62,
                "velocity": 64,
                "duration": 0.0318,
                "tempo": 120.0
            },
            {
                "pitch": 52,
                "velocity": 64,
                "duration": 0.0341,
                "tempo": 120.0
            },
            {
                "pitch": 64,
                "velocity": 64,
                "duration": 0.0341,
                "tempo": 120.0
            },
            {
                "pitch": 52,
                "velocity": 64,
                "duration": 0.0341,
                "tempo": 120.0
            },
            {
                "pitch": 64,
                "velocity": 64,
                "duration": 0.0341,
                "tempo": 120.0
            },
            {
                "pitch": 64,
                "velocity": 64,
                "duration": 0.0318,
                "tempo": 120.0
            },
            {
                "pitch": 52,
                "velocity": 64,
                "duration": 0.0318,
                "tempo": 120.0
            },
            {
                "pitch": 52,
                "velocity": 64,
                "duration": 0.0341,
                "tempo": 120.0
            },
            {
                "pitch": 52,
                "velocity": 64,
                "duration": 0.0341,
                "tempo": 120.0
            },
            {
                "pitch": 52,
                "velocity": 64,
                "duration": 0.0341,
                "tempo": 120.0
            },
            {
                "pitch": 64,
                "velocity": 64,
                "duration": 0.0341,
                "tempo": 120.0
            },
            {
                "pitch": 57,
                "velocity": 64,
                "duration": 0.0341,
                "tempo": 120.0
            },
            {
                "pitch": 69,
                "velocity": 64,
                "duration": 0.0318,
                "tempo": 120.0
            },
            {
                "pitch": 69,
                "velocity": 64,
                "duration": 0.0341,
                "tempo": 120.0
            },
            {
                "pitch": 57,
                "velocity": 64,
                "duration": 0.0341,
                "tempo": 120.0
            },
            {
                "pitch": 69,
                "velocity": 64,
                "duration": 0.0318,
                "tempo": 120.0
            },
            {
                "pitch": 69,
                "velocity": 64,
                "duration": 0.0318,
                "tempo": 120.0
            },
            {
                "pitch": 57,
                "velocity": 64,
                "duration": 0.0341,
                "tempo": 120.0
            },
            {
                "pitch": 57,
                "velocity": 64,
                "duration": 0.0341,
                "tempo": 120.0
            },
            {
                "pitch": 69,
                "velocity": 64,
                "duration": 0.0341,
                "tempo": 120.0
            },
            {
                "pitch": 57,
                "velocity": 64,
                "duration": 0.0318,
                "tempo": 120.0
            },
            {
                "pitch": 69,
                "velocity": 64,
                "duration": 0.0341,
                "tempo": 120.0
            },
            {
                "pitch": 69,
                "velocity": 64,
                "duration": 0.0341,
                "tempo": 120.0
            },
            {
                "pitch": 52,
                "velocity": 64,
                "duration": 0.0341,
                "tempo": 120.0
            },
            {
                "pitch": 64,
                "velocity": 64,
                "duration": 0.0341,
                "tempo": 120.0
            },
            {
                "pitch": 64,
                "velocity": 64,
                "duration": 0.0341,
                "tempo": 120.0
            },
            {
                "pitch": 52,
                "velocity": 64,
                "duration": 0.0341,
                "tempo": 120.0
            },
            {
                "pitch": 64,
                "velocity": 64,
                "duration": 0.0318,
                "tempo": 120.0
            },
            {
                "pitch": 64,
                "velocity": 64,
                "duration": 0.0341,
                "tempo": 120.0
            },
            {
                "pitch": 52,
                "velocity": 64,
                "duration": 0.0341,
                "tempo": 120.0
            },
            {
                "pitch": 52,
                "velocity": 64,
                "duration": 0.0341,
                "tempo": 120.0
            },
            {
                "pitch": 64,
                "velocity": 64,
                "duration": 0.0318,
                "tempo": 120.0
            },
            {
                "pitch": 52,
                "velocity": 64,
                "duration": 0.0341,
                "tempo": 120.0
            },
            {
                "pitch": 64,
                "velocity": 64,
                "duration": 0.0341,
                "tempo": 120.0
            },
            {
                "pitch": 64,
                "velocity": 64,
                "duration": 0.0318,
                "tempo": 120.0
            },
            {
                "pitch": 54,
                "velocity": 64,
                "duration": 0.0341,
                "tempo": 120.0
            },
            {
                "pitch": 66,
                "velocity": 64,
                "duration": 0.0341,
                "tempo": 120.0
            },
            {
                "pitch": 66,
                "velocity": 64,
                "duration": 0.0341,
                "tempo": 120.0
            },
            {
                "pitch": 54,
                "velocity": 64,
                "duration": 0.0341,
                "tempo": 120.0
            },
            {
                "pitch": 66,
                "velocity": 64,
                "duration": 0.0341,
                "tempo": 120.0
            },
            {
                "pitch": 66,
                "velocity": 64,
                "duration": 0.0341,
                "tempo": 120.0
            },
            {
                "pitch": 54,
                "velocity": 64,
                "duration": 0.0341,
                "tempo": 120.0
            },
            {
                "pitch": 54,
                "velocity": 64,
                "duration": 0.0341,
                "tempo": 120.0
            },
            {
                "pitch": 66,
                "velocity": 64,
                "duration": 0.0341,
                "tempo": 120.0
            },
            {
                "pitch": 54,
                "velocity": 64,
                "duration": 0.0341,
                "tempo": 120.0
            },
            {
                "pitch": 66,
                "velocity": 64,
                "duration": 0.0341,
                "tempo": 120.0
            },
            {
                "pitch": 66,
                "velocity": 64,
                "duration": 0.0318,
                "tempo": 120.0
            },
            {
                "pitch": 50,
                "velocity": 64,
                "duration": 0.0341,
                "tempo": 120.0
            },
            {
                "pitch": 62,
                "velocity": 64,
                "duration": 0.0341,
                "tempo": 120.0
            },
            {
                "pitch": 62,
                "velocity": 64,
                "duration": 0.0318,
                "tempo": 120.0
            },
            {
                "pitch": 50,
                "velocity": 64,
                "duration": 0.0318,
                "tempo": 120.0
            },
            {
                "pitch": 62,
                "velocity": 64,
                "duration": 0.0341,
                "tempo": 120.0
            },
            {
                "pitch": 62,
                "velocity": 64,
                "duration": 0.0341,
                "tempo": 120.0
            },
            {
                "pitch": 52,
                "velocity": 64,
                "duration": 0.0341,
                "tempo": 120.0
            },
            {
                "pitch": 52,
                "velocity": 64,
                "duration": 0.0318,
                "tempo": 120.0
            },
            {
                "pitch": 52,
                "velocity": 64,
                "duration": 0.0341,
                "tempo": 120.0
            },
            {
                "pitch": 52,
                "velocity": 64,
                "duration": 0.0341,
                "tempo": 120.0
            },
            {
                "pitch": 52,
                "velocity": 64,
                "duration": 0.0341,
                "tempo": 120.0
            },
            {
                "pitch": 64,
                "velocity": 64,
                "duration": 0.0318,
                "tempo": 120.0
            },
            {
                "pitch": 64,
                "velocity": 64,
                "duration": 0.0341,
                "tempo": 120.0
            },
            {
                "pitch": 57,
                "velocity": 64,
                "duration": 0.0341,
                "tempo": 120.0
            },
            {
                "pitch": 69,
                "velocity": 64,
                "duration": 0.0318,
                "tempo": 120.0
            },
            {
                "pitch": 69,
                "velocity": 64,
                "duration": 0.0341,
                "tempo": 120.0
            },
            {
                "pitch": 57,
                "velocity": 64,
                "duration": 0.0341,
                "tempo": 120.0
            },
            {
                "pitch": 69,
                "velocity": 64,
                "duration": 0.0341,
                "tempo": 120.0
            },
            {
                "pitch": 69,
                "velocity": 64,
                "duration": 0.0341,
                "tempo": 120.0
            },
            {
                "pitch": 57,
                "velocity": 64,
                "duration": 0.0318,
                "tempo": 120.0
            },
            {
                "pitch": 57,
                "velocity": 64,
                "duration": 0.0341,
                "tempo": 120.0
            },
            {
                "pitch": 69,
                "velocity": 64,
                "duration": 0.0341,
                "tempo": 120.0
            },
            {
                "pitch": 57,
                "velocity": 64,
                "duration": 0.0318,
                "tempo": 120.0
            },
            {
                "pitch": 69,
                "velocity": 64,
                "duration": 0.0341,
                "tempo": 120.0
            },
            {
                "pitch": 69,
                "velocity": 64,
                "duration": 0.0341,
                "tempo": 120.0
            },
            {
                "pitch": 52,
                "velocity": 64,
                "duration": 0.0341,
                "tempo": 120.0
            },
            {
                "pitch": 64,
                "velocity": 64,
                "duration": 0.0318,
                "tempo": 120.0
            },
            {
                "pitch": 64,
                "velocity": 64,
                "duration": 0.0341,
                "tempo": 120.0
            },
            {
                "pitch": 52,
                "velocity": 64,
                "duration": 0.0341,
                "tempo": 120.0
            },
            {
                "pitch": 64,
                "velocity": 64,
                "duration": 0.0318,
                "tempo": 120.0
            },
            {
                "pitch": 64,
                "velocity": 64,
                "duration": 0.0318,
                "tempo": 120.0
            },
            {
                "pitch": 52,
                "velocity": 64,
                "duration": 0.0341,
                "tempo": 120.0
            },
            {
                "pitch": 52,
                "velocity": 64,
                "duration": 0.0341,
                "tempo": 120.0
            },
            {
                "pitch": 64,
                "velocity": 64,
                "duration": 0.0341,
                "tempo": 120.0
            },
            {
                "pitch": 52,
                "velocity": 64,
                "duration": 0.0318,
                "tempo": 120.0
            },
            {
                "pitch": 64,
                "velocity": 64,
                "duration": 0.0341,
                "tempo": 120.0
            },
            {
                "pitch": 64,
                "velocity": 64,
                "duration": 0.0341,
                "tempo": 120.0
            },
            {
                "pitch": 54,
                "velocity": 64,
                "duration": 0.0318,
                "tempo": 120.0
            },
            {
                "pitch": 66,
                "velocity": 64,
                "duration": 0.0341,
                "tempo": 120.0
            },
            {
                "pitch": 66,
                "velocity": 64,
                "duration": 0.0341,
                "tempo": 120.0
            },
            {
                "pitch": 54,
                "velocity": 64,
                "duration": 0.0341,
                "tempo": 120.0
            },
            {
                "pitch": 66,
                "velocity": 64,
                "duration": 0.0341,
                "tempo": 120.0
            },
            {
                "pitch": 66,
                "velocity": 64,
                "duration": 0.0341,
                "tempo": 120.0
            },
            {
                "pitch": 54,
                "velocity": 64,
                "duration": 0.0341,
                "tempo": 120.0
            },
            {
                "pitch": 54,
                "velocity": 64,
                "duration": 0.0341,
                "tempo": 120.0
            },
            {
                "pitch": 66,
                "velocity": 64,
                "duration": 0.0341,
                "tempo": 120.0
            },
            {
                "pitch": 54,
                "velocity": 64,
                "duration": 0.0341,
                "tempo": 120.0
            },
            {
                "pitch": 66,
                "velocity": 64,
                "duration": 0.0341,
                "tempo": 120.0
            },
            {
                "pitch": 66,
                "velocity": 64,
                "duration": 0.0318,
                "tempo": 120.0
            },
            {
                "pitch": 50,
                "velocity": 64,
                "duration": 0.0341,
                "tempo": 120.0
            },
            {
                "pitch": 62,
                "velocity": 64,
                "duration": 0.0341,
                "tempo": 120.0
            },
            {
                "pitch": 62,
                "velocity": 64,
                "duration": 0.0341,
                "tempo": 120.0
            },
            {
                "pitch": 50,
                "velocity": 64,
                "duration": 0.0341,
                "tempo": 120.0
            },
            {
                "pitch": 62,
                "velocity": 64,
                "duration": 0.0341,
                "tempo": 120.0
            },
            {
                "pitch": 62,
                "velocity": 64,
                "duration": 0.0341,
                "tempo": 120.0
            },
            {
                "pitch": 53,
                "velocity": 64,
                "duration": 0.0341,
                "tempo": 120.0
            },
            {
                "pitch": 53,
                "velocity": 64,
                "duration": 0.0318,
                "tempo": 120.0
            },
            {
                "pitch": 53,
                "velocity": 64,
                "duration": 0.0318,
                "tempo": 120.0
            },
            {
                "pitch": 53,
                "velocity": 64,
                "duration": 0.0341,
                "tempo": 120.0
            },
            {
                "pitch": 53,
                "velocity": 64,
                "duration": 0.0341,
                "tempo": 120.0
            },
            {
                "pitch": 65,
                "velocity": 64,
                "duration": 0.0341,
                "tempo": 120.0
            },
            {
                "pitch": 65,
                "velocity": 64,
                "duration": 0.0341,
                "tempo": 120.0
            },
            {
                "pitch": 60,
                "velocity": 64,
                "duration": 0.0341,
                "tempo": 120.0
            },
            {
                "pitch": 60,
                "velocity": 64,
                "duration": 0.0341,
                "tempo": 120.0
            },
            {
                "pitch": 60,
                "velocity": 64,
                "duration": 0.0341,
                "tempo": 120.0
            },
            {
                "pitch": 72,
                "velocity": 64,
                "duration": 0.0318,
                "tempo": 120.0
            },
            {
                "pitch": 72,
                "velocity": 64,
                "duration": 0.0341,
                "tempo": 120.0
            },
            {
                "pitch": 55,
                "velocity": 64,
                "duration": 0.0341,
                "tempo": 120.0
            },
            {
                "pitch": 55,
                "velocity": 64,
                "duration": 0.0341,
                "tempo": 120.0
            },
            {
                "pitch": 60,
                "velocity": 64,
                "duration": 0.0341,
                "tempo": 120.0
            },
            {
                "pitch": 69,
                "velocity": 64,
                "duration": 0.0341,
                "tempo": 120.0
            },
            {
                "pitch": 67,
                "velocity": 64,
                "duration": 0.0341,
                "tempo": 120.0
            },
            {
                "pitch": 66,
                "velocity": 64,
                "duration": 0.0318,
                "tempo": 120.0
            },
            {
                "pitch": 64,
                "velocity": 64,
                "duration": 0.0341,
                "tempo": 120.0
            },
            {
                "pitch": 62,
                "velocity": 64,
                "duration": 0.0341,
                "tempo": 120.0
            },
            {
                "pitch": 62,
                "velocity": 64,
                "duration": 0.0341,
                "tempo": 120.0
            },
            {
                "pitch": 62,
                "velocity": 64,
                "duration": 0.0318,
                "tempo": 120.0
            },
            {
                "pitch": 74,
                "velocity": 64,
                "duration": 0.0341,
                "tempo": 120.0
            },
            {
                "pitch": 74,
                "velocity": 64,
                "duration": 0.0341,
                "tempo": 120.0
            },
            {
                "pitch": 57,
                "velocity": 64,
                "duration": 0.0341,
                "tempo": 120.0
            },
            {
                "pitch": 57,
                "velocity": 64,
                "duration": 0.0318,
                "tempo": 120.0
            },
            {
                "pitch": 62,
                "velocity": 64,
                "duration": 0.0341,
                "tempo": 120.0
            },
            {
                "pitch": 66,
                "velocity": 64,
                "duration": 0.0318,
                "tempo": 120.0
            },
            {
                "pitch": 64,
                "velocity": 64,
                "duration": 0.0318,
                "tempo": 120.0
            },
            {
                "pitch": 62,
                "velocity": 64,
                "duration": 0.0341,
                "tempo": 120.0
            },
            {
                "pitch": 60,
                "velocity": 64,
                "duration": 0.0341,
                "tempo": 120.0
            },
            {
                "pitch": 59,
                "velocity": 64,
                "duration": 0.0341,
                "tempo": 120.0
            },
            {
                "pitch": 59,
                "velocity": 64,
                "duration": 0.0341,
                "tempo": 120.0
            },
            {
                "pitch": 59,
                "velocity": 64,
                "duration": 0.0318,
                "tempo": 120.0
            },
            {
                "pitch": 71,
                "velocity": 64,
                "duration": 0.0341,
                "tempo": 120.0
            },
            {
                "pitch": 71,
                "velocity": 64,
                "duration": 0.0341,
                "tempo": 120.0
            },
            {
                "pitch": 54,
                "velocity": 64,
                "duration": 0.0318,
                "tempo": 120.0
            },
            {
                "pitch": 54,
                "velocity": 64,
                "duration": 0.0318,
                "tempo": 120.0
            },
            {
                "pitch": 59,
                "velocity": 64,
                "duration": 0.0341,
                "tempo": 120.0
            },
            {
                "pitch": 59,
                "velocity": 64,
                "duration": 0.0341,
                "tempo": 120.0
            },
            {
                "pitch": 57,
                "velocity": 64,
                "duration": 0.0341,
                "tempo": 120.0
            },
            {
                "pitch": 55,
                "velocity": 64,
                "duration": 0.0341,
                "tempo": 120.0
            },
            {
                "pitch": 54,
                "velocity": 64,
                "duration": 0.0341,
                "tempo": 120.0
            },
            {
                "pitch": 52,
                "velocity": 64,
                "duration": 0.0341,
                "tempo": 120.0
            },
            {
                "pitch": 64,
                "velocity": 64,
                "duration": 0.0341,
                "tempo": 120.0
            },
            {
                "pitch": 54,
                "velocity": 64,
                "duration": 0.0341,
                "tempo": 120.0
            },
            {
                "pitch": 66,
                "velocity": 64,
                "duration": 0.0341,
                "tempo": 120.0
            },
            {
                "pitch": 55,
                "velocity": 64,
                "duration": 0.0341,
                "tempo": 120.0
            },
            {
                "pitch": 55,
                "velocity": 64,
                "duration": 0.0341,
                "tempo": 120.0
            },
            {
                "pitch": 67,
                "velocity": 64,
                "duration": 0.0318,
                "tempo": 120.0
            },
            {
                "pitch": 59,
                "velocity": 64,
                "duration": 0.0341,
                "tempo": 120.0
            },
            {
                "pitch": 71,
                "velocity": 64,
                "duration": 0.0341,
                "tempo": 120.0
            },
            {
                "pitch": 60,
                "velocity": 64,
                "duration": 0.0318,
                "tempo": 120.0
            },
            {
                "pitch": 60,
                "velocity": 64,
                "duration": 0.0341,
                "tempo": 120.0
            },
            {
                "pitch": 60,
                "velocity": 64,
                "duration": 0.0341,
                "tempo": 120.0
            },
            {
                "pitch": 72,
                "velocity": 64,
                "duration": 0.0318,
                "tempo": 120.0
            },
            {
                "pitch": 72,
                "velocity": 64,
                "duration": 0.0341,
                "tempo": 120.0
            },
            {
                "pitch": 55,
                "velocity": 64,
                "duration": 0.0341,
                "tempo": 120.0
            },
            {
                "pitch": 55,
                "velocity": 64,
                "duration": 0.0341,
                "tempo": 120.0
            },
            {
                "pitch": 60,
                "velocity": 64,
                "duration": 0.0341,
                "tempo": 120.0
            },
            {
                "pitch": 69,
                "velocity": 64,
                "duration": 0.0341,
                "tempo": 120.0
            },
            {
                "pitch": 67,
                "velocity": 64,
                "duration": 0.0341,
                "tempo": 120.0
            },
            {
                "pitch": 66,
                "velocity": 64,
                "duration": 0.0318,
                "tempo": 120.0
            },
            {
                "pitch": 64,
                "velocity": 64,
                "duration": 0.0341,
                "tempo": 120.0
            },
            {
                "pitch": 62,
                "velocity": 64,
                "duration": 0.0341,
                "tempo": 120.0
            },
            {
                "pitch": 62,
                "velocity": 64,
                "duration": 0.0341,
                "tempo": 120.0
            },
            {
                "pitch": 62,
                "velocity": 64,
                "duration": 0.0341,
                "tempo": 120.0
            },
            {
                "pitch": 74,
                "velocity": 64,
                "duration": 0.0341,
                "tempo": 120.0
            },
            {
                "pitch": 74,
                "velocity": 64,
                "duration": 0.0341,
                "tempo": 120.0
            },
            {
                "pitch": 57,
                "velocity": 64,
                "duration": 0.0341,
                "tempo": 120.0
            },
            {
                "pitch": 57,
                "velocity": 64,
                "duration": 0.0341,
                "tempo": 120.0
            },
            {
                "pitch": 62,
                "velocity": 64,
                "duration": 0.0318,
                "tempo": 120.0
            },
            {
                "pitch": 66,
                "velocity": 64,
                "duration": 0.0341,
                "tempo": 120.0
            },
            {
                "pitch": 64,
                "velocity": 64,
                "duration": 0.0341,
                "tempo": 120.0
            },
            {
                "pitch": 62,
                "velocity": 64,
                "duration": 0.0341,
                "tempo": 120.0
            },
            {
                "pitch": 60,
                "velocity": 64,
                "duration": 0.0341,
                "tempo": 120.0
            },
            {
                "pitch": 52,
                "velocity": 64,
                "duration": 0.0341,
                "tempo": 120.0
            },
            {
                "pitch": 52,
                "velocity": 64,
                "duration": 0.0341,
                "tempo": 120.0
            },
            {
                "pitch": 52,
                "velocity": 64,
                "duration": 0.0318,
                "tempo": 120.0
            },
            {
                "pitch": 64,
                "velocity": 64,
                "duration": 0.0341,
                "tempo": 120.0
            },
            {
                "pitch": 64,
                "velocity": 64,
                "duration": 0.0341,
                "tempo": 120.0
            },
            {
                "pitch": 56,
                "velocity": 64,
                "duration": 0.0341,
                "tempo": 120.0
            },
            {
                "pitch": 56,
                "velocity": 64,
                "duration": 0.0318,
                "tempo": 120.0
            },
            {
                "pitch": 52,
                "velocity": 64,
                "duration": 0.0341,
                "tempo": 120.0
            },
            {
                "pitch": 59,
                "velocity": 64,
                "duration": 0.0318,
                "tempo": 120.0
            },
            {
                "pitch": 57,
                "velocity": 64,
                "duration": 0.0318,
                "tempo": 120.0
            },
            {
                "pitch": 68,
                "velocity": 64,
                "duration": 0.0341,
                "tempo": 120.0
            },
            {
                "pitch": 66,
                "velocity": 64,
                "duration": 0.0341,
                "tempo": 120.0
            },
            {
                "pitch": 52,
                "velocity": 64,
                "duration": 0.0341,
                "tempo": 120.0
            },
            {
                "pitch": 64,
                "velocity": 64,
                "duration": 0.0341,
                "tempo": 120.0
            },
            {
                "pitch": 54,
                "velocity": 64,
                "duration": 0.0341,
                "tempo": 120.0
            },
            {
                "pitch": 66,
                "velocity": 64,
                "duration": 0.0341,
                "tempo": 120.0
            },
            {
                "pitch": 56,
                "velocity": 64,
                "duration": 0.0341,
                "tempo": 120.0
            },
            {
                "pitch": 56,
                "velocity": 64,
                "duration": 0.0341,
                "tempo": 120.0
            },
            {
                "pitch": 68,
                "velocity": 64,
                "duration": 0.0341,
                "tempo": 120.0
            },
            {
                "pitch": 59,
                "velocity": 64,
                "duration": 0.0341,
                "tempo": 120.0
            },
            {
                "pitch": 71,
                "velocity": 64,
                "duration": 0.0341,
                "tempo": 120.0
            }
        ],
        "Violin": [
            {
                "pitch": 71,
                "velocity": 80,
                "duration": 0.1477,
                "tempo": 120.0
            },
            {
                "pitch": 73,
                "velocity": 80,
                "duration": 1.275,
                "tempo": 120.0
            },
            {
                "pitch": 64,
                "velocity": 80,
                "duration": 0.1886,
                "tempo": 120.0
            },
            {
                "pitch": 76,
                "velocity": 80,
                "duration": 0.1841,
                "tempo": 120.0
            },
            {
                "pitch": 64,
                "velocity": 80,
                "duration": 0.2,
                "tempo": 120.0
            },
            {
                "pitch": 71,
                "velocity": 80,
                "duration": 0.1,
                "tempo": 120.0
            },
            {
                "pitch": 73,
                "velocity": 80,
                "duration": 0.1,
                "tempo": 120.0
            },
            {
                "pitch": 71,
                "velocity": 80,
                "duration": 1.0773,
                "tempo": 120.0
            },
            {
                "pitch": 69,
                "velocity": 80,
                "duration": 0.2,
                "tempo": 120.0
            },
            {
                "pitch": 68,
                "velocity": 80,
                "duration": 0.2,
                "tempo": 120.0
            },
            {
                "pitch": 66,
                "velocity": 80,
                "duration": 0.3068,
                "tempo": 120.0
            },
            {
                "pitch": 64,
                "velocity": 80,
                "duration": 0.1023,
                "tempo": 120.0
            },
            {
                "pitch": 66,
                "velocity": 80,
                "duration": 0.3,
                "tempo": 120.0
            },
            {
                "pitch": 64,
                "velocity": 80,
                "duration": 0.1,
                "tempo": 120.0
            },
            {
                "pitch": 66,
                "velocity": 80,
                "duration": 0.2023,
                "tempo": 120.0
            },
            {
                "pitch": 68,
                "velocity": 80,
                "duration": 0.2,
                "tempo": 120.0
            },
            {
                "pitch": 69,
                "velocity": 80,
                "duration": 0.2023,
                "tempo": 120.0
            },
            {
                "pitch": 71,
                "velocity": 80,
                "duration": 0.2,
                "tempo": 120.0
            },
            {
                "pitch": 74,
                "velocity": 80,
                "duration": 0.4068,
                "tempo": 120.0
            },
            {
                "pitch": 73,
                "velocity": 80,
                "duration": 0.4,
                "tempo": 120.0
            },
            {
                "pitch": 71,
                "velocity": 80,
                "duration": 0.2045,
                "tempo": 120.0
            },
            {
                "pitch": 69,
                "velocity": 80,
                "duration": 0.4045,
                "tempo": 120.0
            },
            {
                "pitch": 71,
                "velocity": 80,
                "duration": 0.2,
                "tempo": 120.0
            },
            {
                "pitch": 73,
                "velocity": 80,
                "duration": 1.2727,
                "tempo": 120.0
            },
            {
                "pitch": 64,
                "velocity": 80,
                "duration": 0.2045,
                "tempo": 120.0
            },
            {
                "pitch": 76,
                "velocity": 80,
                "duration": 0.2,
                "tempo": 120.0
            },
            {
                "pitch": 64,
                "velocity": 80,
                "duration": 0.2,
                "tempo": 120.0
            },
            {
                "pitch": 71,
                "velocity": 80,
                "duration": 0.1,
                "tempo": 120.0
            },
            {
                "pitch": 73,
                "velocity": 80,
                "duration": 0.1,
                "tempo": 120.0
            },
            {
                "pitch": 71,
                "velocity": 80,
                "duration": 1.0773,
                "tempo": 120.0
            },
            {
                "pitch": 69,
                "velocity": 80,
                "duration": 0.2,
                "tempo": 120.0
            },
            {
                "pitch": 68,
                "velocity": 80,
                "duration": 0.2023,
                "tempo": 120.0
            },
            {
                "pitch": 66,
                "velocity": 80,
                "duration": 0.3068,
                "tempo": 120.0
            },
            {
                "pitch": 64,
                "velocity": 80,
                "duration": 0.1,
                "tempo": 120.0
            },
            {
                "pitch": 66,
                "velocity": 80,
                "duration": 0.3023,
                "tempo": 120.0
            },
            {
                "pitch": 64,
                "velocity": 80,
                "duration": 0.1,
                "tempo": 120.0
            },
            {
                "pitch": 66,
                "velocity": 80,
                "duration": 0.2023,
                "tempo": 120.0
            },
            {
                "pitch": 68,
                "velocity": 80,
                "duration": 0.2,
                "tempo": 120.0
            },
            {
                "pitch": 69,
                "velocity": 80,
                "duration": 0.2023,
                "tempo": 120.0
            },
            {
                "pitch": 71,
                "velocity": 80,
                "duration": 0.2045,
                "tempo": 120.0
            },
            {
                "pitch": 74,
                "velocity": 80,
                "duration": 0.4,
                "tempo": 120.0
            },
            {
                "pitch": 73,
                "velocity": 80,
                "duration": 0.4091,
                "tempo": 120.0
            },
            {
                "pitch": 71,
                "velocity": 80,
                "duration": 0.2023,
                "tempo": 120.0
            },
            {
                "pitch": 69,
                "velocity": 80,
                "duration": 0.4,
                "tempo": 120.0
            },
            {
                "pitch": 71,
                "velocity": 80,
                "duration": 0.2,
                "tempo": 120.0
            },
            {
                "pitch": 76,
                "velocity": 80,
                "duration": 0.6091,
                "tempo": 120.0
            },
            {
                "pitch": 76,
                "velocity": 80,
                "duration": 0.1,
                "tempo": 120.0
            },
            {
                "pitch": 76,
                "velocity": 80,
                "duration": 0.1,
                "tempo": 120.0
            },
            {
                "pitch": 76,
                "velocity": 80,
                "duration": 0.2,
                "tempo": 120.0
            },
            {
                "pitch": 74,
                "velocity": 80,
                "duration": 0.2,
                "tempo": 120.0
            },
            {
                "pitch": 73,
                "velocity": 80,
                "duration": 0.2,
                "tempo": 120.0
            },
            {
                "pitch": 74,
                "velocity": 80,
                "duration": 0.2,
                "tempo": 120.0
            },
            {
                "pitch": 76,
                "velocity": 80,
                "duration": 0.6114,
                "tempo": 120.0
            },
            {
                "pitch": 76,
                "velocity": 80,
                "duration": 0.1,
                "tempo": 120.0
            },
            {
                "pitch": 76,
                "velocity": 80,
                "duration": 0.1,
                "tempo": 120.0
            },
            {
                "pitch": 76,
                "velocity": 80,
                "duration": 0.2045,
                "tempo": 120.0
            },
            {
                "pitch": 74,
                "velocity": 80,
                "duration": 0.2045,
                "tempo": 120.0
            },
            {
                "pitch": 73,
                "velocity": 80,
                "duration": 0.2,
                "tempo": 120.0
            },
            {
                "pitch": 74,
                "velocity": 80,
                "duration": 0.2,
                "tempo": 120.0
            },
            {
                "pitch": 76,
                "velocity": 80,
                "duration": 0.6023,
                "tempo": 120.0
            },
            {
                "pitch": 76,
                "velocity": 80,
                "duration": 0.1023,
                "tempo": 120.0
            },
            {
                "pitch": 76,
                "velocity": 80,
                "duration": 0.1023,
                "tempo": 120.0
            },
            {
                "pitch": 76,
                "velocity": 80,
                "duration": 0.2,
                "tempo": 120.0
            },
            {
                "pitch": 74,
                "velocity": 80,
                "duration": 0.2,
                "tempo": 120.0
            },
            {
                "pitch": 73,
                "velocity": 80,
                "duration": 0.2,
                "tempo": 120.0
            },
            {
                "pitch": 71,
                "velocity": 80,
                "duration": 0.2023,
                "tempo": 120.0
            },
            {
                "pitch": 71,
                "velocity": 80,
                "duration": 0.3,
                "tempo": 120.0
            },
            {
                "pitch": 73,
                "velocity": 80,
                "duration": 0.1,
                "tempo": 120.0
            },
            {
                "pitch": 69,
                "velocity": 80,
                "duration": 1.2114,
                "tempo": 120.0
            },
            {
                "pitch": 65,
                "velocity": 80,
                "duration": 0.6091,
                "tempo": 120.0
            },
            {
                "pitch": 65,
                "velocity": 80,
                "duration": 0.1,
                "tempo": 120.0
            },
            {
                "pitch": 65,
                "velocity": 80,
                "duration": 0.1,
                "tempo": 120.0
            },
            {
                "pitch": 69,
                "velocity": 80,
                "duration": 0.2045,
                "tempo": 120.0
            },
            {
                "pitch": 71,
                "velocity": 80,
                "duration": 0.2045,
                "tempo": 120.0
            },
            {
                "pitch": 73,
                "velocity": 80,
                "duration": 0.2,
                "tempo": 120.0
            },
            {
                "pitch": 74,
                "velocity": 80,
                "duration": 0.2,
                "tempo": 120.0
            },
            {
                "pitch": 76,
                "velocity": 80,
                "duration": 0.6023,
                "tempo": 120.0
            },
            {
                "pitch": 71,
                "velocity": 80,
                "duration": 0.2045,
                "tempo": 120.0
            },
            {
                "pitch": 71,
                "velocity": 80,
                "duration": 0.4,
                "tempo": 120.0
            },
            {
                "pitch": 73,
                "velocity": 80,
                "duration": 0.2,
                "tempo": 120.0
            },
            {
                "pitch": 71,
                "velocity": 80,
                "duration": 0.2,
                "tempo": 120.0
            },
            {
                "pitch": 66,
                "velocity": 80,
                "duration": 0.1023,
                "tempo": 120.0
            },
            {
                "pitch": 64,
                "velocity": 80,
                "duration": 0.1023,
                "tempo": 120.0
            },
            {
                "pitch": 66,
                "velocity": 80,
                "duration": 0.1023,
                "tempo": 120.0
            },
            {
                "pitch": 68,
                "velocity": 80,
                "duration": 0.1023,
                "tempo": 120.0
            },
            {
                "pitch": 69,
                "velocity": 80,
                "duration": 0.1,
                "tempo": 120.0
            },
            {
                "pitch": 68,
                "velocity": 80,
                "duration": 0.1023,
                "tempo": 120.0
            },
            {
                "pitch": 69,
                "velocity": 80,
                "duration": 0.1,
                "tempo": 120.0
            },
            {
                "pitch": 71,
                "velocity": 80,
                "duration": 0.1,
                "tempo": 120.0
            },
            {
                "pitch": 73,
                "velocity": 80,
                "duration": 0.1,
                "tempo": 120.0
            },
            {
                "pitch": 71,
                "velocity": 80,
                "duration": 0.1,
                "tempo": 120.0
            },
            {
                "pitch": 73,
                "velocity": 80,
                "duration": 0.1,
                "tempo": 120.0
            },
            {
                "pitch": 74,
                "velocity": 80,
                "duration": 0.1,
                "tempo": 120.0
            },
            {
                "pitch": 76,
                "velocity": 80,
                "duration": 0.1,
                "tempo": 120.0
            },
            {
                "pitch": 74,
                "velocity": 80,
                "duration": 0.1,
                "tempo": 120.0
            },
            {
                "pitch": 76,
                "velocity": 80,
                "duration": 0.1,
                "tempo": 120.0
            },
            {
                "pitch": 78,
                "velocity": 80,
                "duration": 0.1,
                "tempo": 120.0
            },
            {
                "pitch": 76,
                "velocity": 80,
                "duration": 0.4091,
                "tempo": 120.0
            },
            {
                "pitch": 74,
                "velocity": 80,
                "duration": 0.4023,
                "tempo": 120.0
            },
            {
                "pitch": 73,
                "velocity": 80,
                "duration": 0.4,
                "tempo": 120.0
            },
            {
                "pitch": 69,
                "velocity": 80,
                "duration": 0.2023,
                "tempo": 120.0
            },
            {
                "pitch": 71,
                "velocity": 80,
                "duration": 0.2045,
                "tempo": 120.0
            },
            {
                "pitch": 73,
                "velocity": 80,
                "duration": 1.2727,
                "tempo": 120.0
            },
            {
                "pitch": 64,
                "velocity": 80,
                "duration": 0.2045,
                "tempo": 120.0
            },
            {
                "pitch": 76,
                "velocity": 80,
                "duration": 0.2,
                "tempo": 120.0
            },
            {
                "pitch": 64,
                "velocity": 80,
                "duration": 0.2,
                "tempo": 120.0
            },
            {
                "pitch": 71,
                "velocity": 80,
                "duration": 0.1023,
                "tempo": 120.0
            },
            {
                "pitch": 73,
                "velocity": 80,
                "duration": 0.1,
                "tempo": 120.0
            },
            {
                "pitch": 71,
                "velocity": 80,
                "duration": 1.075,
                "tempo": 120.0
            },
            {
                "pitch": 69,
                "velocity": 80,
                "duration": 0.2023,
                "tempo": 120.0
            },
            {
                "pitch": 68,
                "velocity": 80,
                "duration": 0.2,
                "tempo": 120.0
            },
            {
                "pitch": 66,
                "velocity": 80,
                "duration": 0.3068,
                "tempo": 120.0
            },
            {
                "pitch": 64,
                "velocity": 80,
                "duration": 0.1023,
                "tempo": 120.0
            },
            {
                "pitch": 66,
                "velocity": 80,
                "duration": 0.3,
                "tempo": 120.0
            },
            {
                "pitch": 64,
                "velocity": 80,
                "duration": 0.1,
                "tempo": 120.0
            },
            {
                "pitch": 66,
                "velocity": 80,
                "duration": 0.2045,
                "tempo": 120.0
            },
            {
                "pitch": 68,
                "velocity": 80,
                "duration": 0.2023,
                "tempo": 120.0
            },
            {
                "pitch": 69,
                "velocity": 80,
                "duration": 0.2,
                "tempo": 120.0
            },
            {
                "pitch": 71,
                "velocity": 80,
                "duration": 0.2,
                "tempo": 120.0
            },
            {
                "pitch": 74,
                "velocity": 80,
                "duration": 0.4023,
                "tempo": 120.0
            },
            {
                "pitch": 73,
                "velocity": 80,
                "duration": 0.4068,
                "tempo": 120.0
            },
            {
                "pitch": 71,
                "velocity": 80,
                "duration": 0.2,
                "tempo": 120.0
            },
            {
                "pitch": 69,
                "velocity": 80,
                "duration": 0.4023,
                "tempo": 120.0
            },
            {
                "pitch": 71,
                "velocity": 80,
                "duration": 0.2,
                "tempo": 120.0
            },
            {
                "pitch": 73,
                "velocity": 80,
                "duration": 1.2795,
                "tempo": 120.0
            },
            {
                "pitch": 64,
                "velocity": 80,
                "duration": 0.2,
                "tempo": 120.0
            },
            {
                "pitch": 76,
                "velocity": 80,
                "duration": 0.2,
                "tempo": 120.0
            },
            {
                "pitch": 64,
                "velocity": 80,
                "duration": 0.2,
                "tempo": 120.0
            },
            {
                "pitch": 71,
                "velocity": 80,
                "duration": 0.1023,
                "tempo": 120.0
            },
            {
                "pitch": 73,
                "velocity": 80,
                "duration": 0.1023,
                "tempo": 120.0
            },
            {
                "pitch": 71,
                "velocity": 80,
                "duration": 1.0773,
                "tempo": 120.0
            },
            {
                "pitch": 69,
                "velocity": 80,
                "duration": 0.2,
                "tempo": 120.0
            },
            {
                "pitch": 68,
                "velocity": 80,
                "duration": 0.2,
                "tempo": 120.0
            },
            {
                "pitch": 66,
                "velocity": 80,
                "duration": 0.3,
                "tempo": 120.0
            },
            {
                "pitch": 64,
                "velocity": 80,
                "duration": 0.1,
                "tempo": 120.0
            },
            {
                "pitch": 66,
                "velocity": 80,
                "duration": 0.3068,
                "tempo": 120.0
            },
            {
                "pitch": 64,
                "velocity": 80,
                "duration": 0.1023,
                "tempo": 120.0
            },
            {
                "pitch": 66,
                "velocity": 80,
                "duration": 0.2,
                "tempo": 120.0
            },
            {
                "pitch": 68,
                "velocity": 80,
                "duration": 0.2,
                "tempo": 120.0
            },
            {
                "pitch": 69,
                "velocity": 80,
                "duration": 0.2023,
                "tempo": 120.0
            },
            {
                "pitch": 71,
                "velocity": 80,
                "duration": 0.2,
                "tempo": 120.0
            },
            {
                "pitch": 74,
                "velocity": 80,
                "duration": 0.4023,
                "tempo": 120.0
            },
            {
                "pitch": 73,
                "velocity": 80,
                "duration": 0.4068,
                "tempo": 120.0
            },
            {
                "pitch": 69,
                "velocity": 80,
                "duration": 0.4,
                "tempo": 120.0
            },
            {
                "pitch": 65,
                "velocity": 80,
                "duration": 0.4091,
                "tempo": 120.0
            },
            {
                "pitch": 67,
                "velocity": 80,
                "duration": 0.5364,
                "tempo": 120.0
            },
            {
                "pitch": 67,
                "velocity": 80,
                "duration": 0.0159,
                "tempo": 120.0
            },
            {
                "pitch": 67,
                "velocity": 80,
                "duration": 0.05,
                "tempo": 120.0
            },
            {
                "pitch": 67,
                "velocity": 80,
                "duration": 0.2,
                "tempo": 120.0
            },
            {
                "pitch": 72,
                "velocity": 80,
                "duration": 0.2023,
                "tempo": 120.0
            },
            {
                "pitch": 74,
                "velocity": 80,
                "duration": 0.2045,
                "tempo": 120.0
            },
            {
                "pitch": 76,
                "velocity": 80,
                "duration": 0.4,
                "tempo": 120.0
            },
            {
                "pitch": 69,
                "velocity": 80,
                "duration": 0.6023,
                "tempo": 120.0
            },
            {
                "pitch": 69,
                "velocity": 80,
                "duration": 0.2,
                "tempo": 120.0
            },
            {
                "pitch": 78,
                "velocity": 80,
                "duration": 0.2045,
                "tempo": 120.0
            },
            {
                "pitch": 76,
                "velocity": 80,
                "duration": 0.2045,
                "tempo": 120.0
            },
            {
                "pitch": 74,
                "velocity": 80,
                "duration": 0.2,
                "tempo": 120.0
            },
            {
                "pitch": 72,
                "velocity": 80,
                "duration": 0.2,
                "tempo": 120.0
            },
            {
                "pitch": 74,
                "velocity": 80,
                "duration": 0.8114,
                "tempo": 120.0
            },
            {
                "pitch": 69,
                "velocity": 80,
                "duration": 0.4023,
                "tempo": 120.0
            },
            {
                "pitch": 74,
                "velocity": 80,
                "duration": 0.2023,
                "tempo": 120.0
            },
            {
                "pitch": 71,
                "velocity": 80,
                "duration": 0.2,
                "tempo": 120.0
            },
            {
                "pitch": 67,
                "velocity": 80,
                "duration": 0.5432,
                "tempo": 120.0
            },
            {
                "pitch": 67,
                "velocity": 80,
                "duration": 0.0159,
                "tempo": 120.0
            },
            {
                "pitch": 67,
                "velocity": 80,
                "duration": 0.1841,
                "tempo": 120.0
            },
            {
                "pitch": 67,
                "velocity": 80,
                "duration": 0.0159,
                "tempo": 120.0
            },
            {
                "pitch": 67,
                "velocity": 80,
                "duration": 0.1682,
                "tempo": 120.0
            },
            {
                "pitch": 67,
                "velocity": 80,
                "duration": 0.2,
                "tempo": 120.0
            },
            {
                "pitch": 67,
                "velocity": 80,
                "duration": 0.0841,
                "tempo": 120.0
            },
            {
                "pitch": 67,
                "velocity": 80,
                "duration": 0.1023,
                "tempo": 120.0
            },
            {
                "pitch": 66,
                "velocity": 80,
                "duration": 0.1023,
                "tempo": 120.0
            },
            {
                "pitch": 64,
                "velocity": 80,
                "duration": 0.1023,
                "tempo": 120.0
            },
            {
                "pitch": 62,
                "velocity": 80,
                "duration": 0.1023,
                "tempo": 120.0
            },
            {
                "pitch": 64,
                "velocity": 80,
                "duration": 0.2,
                "tempo": 120.0
            },
            {
                "pitch": 66,
                "velocity": 80,
                "duration": 0.4,
                "tempo": 120.0
            },
            {
                "pitch": 67,
                "velocity": 80,
                "duration": 0.2,
                "tempo": 120.0
            },
            {
                "pitch": 69,
                "velocity": 80,
                "duration": 0.2045,
                "tempo": 120.0
            },
            {
                "pitch": 71,
                "velocity": 80,
                "duration": 0.4068,
                "tempo": 120.0
            },
            {
                "pitch": 72,
                "velocity": 80,
                "duration": 0.2,
                "tempo": 120.0
            },
            {
                "pitch": 74,
                "velocity": 80,
                "duration": 0.4023,
                "tempo": 120.0
            },
            {
                "pitch": 72,
                "velocity": 80,
                "duration": 0.3068,
                "tempo": 120.0
            },
            {
                "pitch": 72,
                "velocity": 80,
                "duration": 0.0841,
                "tempo": 120.0
            },
            {
                "pitch": 72,
                "velocity": 80,
                "duration": 0.0182,
                "tempo": 120.0
            },
            {
                "pitch": 71,
                "velocity": 80,
                "duration": 0.4,
                "tempo": 120.0
            },
            {
                "pitch": 69,
                "velocity": 80,
                "duration": 0.2045,
                "tempo": 120.0
            },
            {
                "pitch": 67,
                "velocity": 80,
                "duration": 0.1023,
                "tempo": 120.0
            },
            {
                "pitch": 69,
                "velocity": 80,
                "duration": 0.1023,
                "tempo": 120.0
            },
            {
                "pitch": 71,
                "velocity": 80,
                "duration": 1.2045,
                "tempo": 120.0
            },
            {
                "pitch": 71,
                "velocity": 80,
                "duration": 0.2,
                "tempo": 120.0
            },
            {
                "pitch": 69,
                "velocity": 80,
                "duration": 0.2023,
                "tempo": 120.0
            },
            {
                "pitch": 68,
                "velocity": 80,
                "duration": 1.2114,
                "tempo": 120.0
            },
            {
                "pitch": 69,
                "velocity": 80,
                "duration": 0.2023,
                "tempo": 120.0
            },
            {
                "pitch": 71,
                "velocity": 80,
                "duration": 0.2,
                "tempo": 120.0
            }
        ],
        "Church Organ": [
            {
                "pitch": 79,
                "velocity": 64,
                "duration": 0.0159,
                "tempo": 120.0
            },
            {
                "pitch": 82,
                "velocity": 64,
                "duration": 0.0182,
                "tempo": 120.0
            },
            {
                "pitch": 81,
                "velocity": 64,
                "duration": 0.0159,
                "tempo": 120.0
            },
            {
                "pitch": 84,
                "velocity": 64,
                "duration": 0.0159,
                "tempo": 120.0
            },
            {
                "pitch": 78,
                "velocity": 64,
                "duration": 0.0159,
                "tempo": 120.0
            },
            {
                "pitch": 81,
                "velocity": 64,
                "duration": 0.0182,
                "tempo": 120.0
            },
            {
                "pitch": 79,
                "velocity": 64,
                "duration": 0.0159,
                "tempo": 120.0
            },
            {
                "pitch": 82,
                "velocity": 64,
                "duration": 0.0182,
                "tempo": 120.0
            },
            {
                "pitch": 81,
                "velocity": 64,
                "duration": 0.0159,
                "tempo": 120.0
            },
            {
                "pitch": 84,
                "velocity": 64,
                "duration": 0.0159,
                "tempo": 120.0
            },
            {
                "pitch": 78,
                "velocity": 64,
                "duration": 0.0182,
                "tempo": 120.0
            },
            {
                "pitch": 81,
                "velocity": 64,
                "duration": 0.0159,
                "tempo": 120.0
            },
            {
                "pitch": 79,
                "velocity": 64,
                "duration": 0.0159,
                "tempo": 120.0
            },
            {
                "pitch": 82,
                "velocity": 64,
                "duration": 0.0182,
                "tempo": 120.0
            },
            {
                "pitch": 81,
                "velocity": 64,
                "duration": 0.0159,
                "tempo": 120.0
            },
            {
                "pitch": 84,
                "velocity": 64,
                "duration": 0.0159,
                "tempo": 120.0
            },
            {
                "pitch": 78,
                "velocity": 64,
                "duration": 0.0182,
                "tempo": 120.0
            },
            {
                "pitch": 81,
                "velocity": 64,
                "duration": 0.0159,
                "tempo": 120.0
            },
            {
                "pitch": 79,
                "velocity": 64,
                "duration": 0.0159,
                "tempo": 120.0
            },
            {
                "pitch": 82,
                "velocity": 64,
                "duration": 0.0159,
                "tempo": 120.0
            },
            {
                "pitch": 81,
                "velocity": 64,
                "duration": 0.0182,
                "tempo": 120.0
            },
            {
                "pitch": 84,
                "velocity": 64,
                "duration": 0.0159,
                "tempo": 120.0
            },
            {
                "pitch": 78,
                "velocity": 64,
                "duration": 0.0159,
                "tempo": 120.0
            },
            {
                "pitch": 81,
                "velocity": 64,
                "duration": 0.0182,
                "tempo": 120.0
            },
            {
                "pitch": 79,
                "velocity": 64,
                "duration": 0.0159,
                "tempo": 120.0
            },
            {
                "pitch": 82,
                "velocity": 64,
                "duration": 0.0182,
                "tempo": 120.0
            },
            {
                "pitch": 81,
                "velocity": 64,
                "duration": 0.0182,
                "tempo": 120.0
            },
            {
                "pitch": 84,
                "velocity": 64,
                "duration": 0.0159,
                "tempo": 120.0
            },
            {
                "pitch": 78,
                "velocity": 64,
                "duration": 0.0182,
                "tempo": 120.0
            },
            {
                "pitch": 81,
                "velocity": 64,
                "duration": 0.0159,
                "tempo": 120.0
            },
            {
                "pitch": 79,
                "velocity": 64,
                "duration": 0.0159,
                "tempo": 120.0
            },
            {
                "pitch": 82,
                "velocity": 64,
                "duration": 0.0159,
                "tempo": 120.0
            },
            {
                "pitch": 81,
                "velocity": 64,
                "duration": 0.0182,
                "tempo": 120.0
            },
            {
                "pitch": 84,
                "velocity": 64,
                "duration": 0.0159,
                "tempo": 120.0
            },
            {
                "pitch": 78,
                "velocity": 64,
                "duration": 0.0159,
                "tempo": 120.0
            },
            {
                "pitch": 81,
                "velocity": 64,
                "duration": 0.0182,
                "tempo": 120.0
            },
            {
                "pitch": 79,
                "velocity": 64,
                "duration": 0.0159,
                "tempo": 120.0
            },
            {
                "pitch": 82,
                "velocity": 64,
                "duration": 0.0182,
                "tempo": 120.0
            },
            {
                "pitch": 81,
                "velocity": 64,
                "duration": 0.0182,
                "tempo": 120.0
            },
            {
                "pitch": 84,
                "velocity": 64,
                "duration": 0.0159,
                "tempo": 120.0
            },
            {
                "pitch": 78,
                "velocity": 64,
                "duration": 0.0159,
                "tempo": 120.0
            },
            {
                "pitch": 81,
                "velocity": 64,
                "duration": 0.0159,
                "tempo": 120.0
            },
            {
                "pitch": 79,
                "velocity": 64,
                "duration": 0.0159,
                "tempo": 120.0
            },
            {
                "pitch": 82,
                "velocity": 64,
                "duration": 0.0159,
                "tempo": 120.0
            },
            {
                "pitch": 81,
                "velocity": 64,
                "duration": 0.0159,
                "tempo": 120.0
            },
            {
                "pitch": 84,
                "velocity": 64,
                "duration": 0.0182,
                "tempo": 120.0
            },
            {
                "pitch": 78,
                "velocity": 64,
                "duration": 0.0159,
                "tempo": 120.0
            },
            {
                "pitch": 81,
                "velocity": 64,
                "duration": 0.0182,
                "tempo": 120.0
            },
            {
                "pitch": 79,
                "velocity": 64,
                "duration": 0.0182,
                "tempo": 120.0
            },
            {
                "pitch": 82,
                "velocity": 64,
                "duration": 0.0159,
                "tempo": 120.0
            },
            {
                "pitch": 81,
                "velocity": 64,
                "duration": 0.0159,
                "tempo": 120.0
            },
            {
                "pitch": 84,
                "velocity": 64,
                "duration": 0.0182,
                "tempo": 120.0
            },
            {
                "pitch": 74,
                "velocity": 64,
                "duration": 0.0159,
                "tempo": 120.0
            },
            {
                "pitch": 77,
                "velocity": 64,
                "duration": 0.0182,
                "tempo": 120.0
            },
            {
                "pitch": 76,
                "velocity": 64,
                "duration": 0.0182,
                "tempo": 120.0
            },
            {
                "pitch": 79,
                "velocity": 64,
                "duration": 0.0159,
                "tempo": 120.0
            },
            {
                "pitch": 78,
                "velocity": 64,
                "duration": 0.0159,
                "tempo": 120.0
            },
            {
                "pitch": 81,
                "velocity": 64,
                "duration": 0.0182,
                "tempo": 120.0
            },
            {
                "pitch": 74,
                "velocity": 64,
                "duration": 0.0159,
                "tempo": 120.0
            },
            {
                "pitch": 77,
                "velocity": 64,
                "duration": 0.0159,
                "tempo": 120.0
            },
            {
                "pitch": 76,
                "velocity": 64,
                "duration": 0.0182,
                "tempo": 120.0
            },
            {
                "pitch": 79,
                "velocity": 64,
                "duration": 0.0159,
                "tempo": 120.0
            },
            {
                "pitch": 78,
                "velocity": 64,
                "duration": 0.0159,
                "tempo": 120.0
            },
            {
                "pitch": 81,
                "velocity": 64,
                "duration": 0.0182,
                "tempo": 120.0
            },
            {
                "pitch": 74,
                "velocity": 64,
                "duration": 0.0159,
                "tempo": 120.0
            },
            {
                "pitch": 77,
                "velocity": 64,
                "duration": 0.0182,
                "tempo": 120.0
            },
            {
                "pitch": 76,
                "velocity": 64,
                "duration": 0.0182,
                "tempo": 120.0
            },
            {
                "pitch": 79,
                "velocity": 64,
                "duration": 0.0159,
                "tempo": 120.0
            },
            {
                "pitch": 78,
                "velocity": 64,
                "duration": 0.0159,
                "tempo": 120.0
            },
            {
                "pitch": 81,
                "velocity": 64,
                "duration": 0.0182,
                "tempo": 120.0
            },
            {
                "pitch": 78,
                "velocity": 64,
                "duration": 0.0159,
                "tempo": 120.0
            },
            {
                "pitch": 81,
                "velocity": 64,
                "duration": 0.0159,
                "tempo": 120.0
            },
            {
                "pitch": 79,
                "velocity": 64,
                "duration": 0.0159,
                "tempo": 120.0
            },
            {
                "pitch": 82,
                "velocity": 64,
                "duration": 0.0182,
                "tempo": 120.0
            },
            {
                "pitch": 81,
                "velocity": 64,
                "duration": 0.0159,
                "tempo": 120.0
            },
            {
                "pitch": 84,
                "velocity": 64,
                "duration": 0.0159,
                "tempo": 120.0
            },
            {
                "pitch": 78,
                "velocity": 64,
                "duration": 0.0182,
                "tempo": 120.0
            },
            {
                "pitch": 81,
                "velocity": 64,
                "duration": 0.0159,
                "tempo": 120.0
            },
            {
                "pitch": 79,
                "velocity": 64,
                "duration": 0.0159,
                "tempo": 120.0
            },
            {
                "pitch": 82,
                "velocity": 64,
                "duration": 0.0182,
                "tempo": 120.0
            },
            {
                "pitch": 81,
                "velocity": 64,
                "duration": 0.0159,
                "tempo": 120.0
            },
            {
                "pitch": 84,
                "velocity": 64,
                "duration": 0.0182,
                "tempo": 120.0
            },
            {
                "pitch": 78,
                "velocity": 64,
                "duration": 0.0182,
                "tempo": 120.0
            },
            {
                "pitch": 81,
                "velocity": 64,
                "duration": 0.0159,
                "tempo": 120.0
            },
            {
                "pitch": 79,
                "velocity": 64,
                "duration": 0.0159,
                "tempo": 120.0
            },
            {
                "pitch": 82,
                "velocity": 64,
                "duration": 0.0182,
                "tempo": 120.0
            },
            {
                "pitch": 81,
                "velocity": 64,
                "duration": 0.0159,
                "tempo": 120.0
            },
            {
                "pitch": 84,
                "velocity": 64,
                "duration": 0.0159,
                "tempo": 120.0
            },
            {
                "pitch": 78,
                "velocity": 64,
                "duration": 0.0182,
                "tempo": 120.0
            },
            {
                "pitch": 81,
                "velocity": 64,
                "duration": 0.0159,
                "tempo": 120.0
            },
            {
                "pitch": 79,
                "velocity": 64,
                "duration": 0.0159,
                "tempo": 120.0
            },
            {
                "pitch": 82,
                "velocity": 64,
                "duration": 0.0182,
                "tempo": 120.0
            },
            {
                "pitch": 81,
                "velocity": 64,
                "duration": 0.0182,
                "tempo": 120.0
            },
            {
                "pitch": 84,
                "velocity": 64,
                "duration": 0.0159,
                "tempo": 120.0
            },
            {
                "pitch": 78,
                "velocity": 64,
                "duration": 0.0182,
                "tempo": 120.0
            },
            {
                "pitch": 81,
                "velocity": 64,
                "duration": 0.0159,
                "tempo": 120.0
            },
            {
                "pitch": 79,
                "velocity": 64,
                "duration": 0.0159,
                "tempo": 120.0
            },
            {
                "pitch": 82,
                "velocity": 64,
                "duration": 0.0182,
                "tempo": 120.0
            },
            {
                "pitch": 81,
                "velocity": 64,
                "duration": 0.0159,
                "tempo": 120.0
            },
            {
                "pitch": 84,
                "velocity": 64,
                "duration": 0.0159,
                "tempo": 120.0
            },
            {
                "pitch": 78,
                "velocity": 64,
                "duration": 0.0182,
                "tempo": 120.0
            },
            {
                "pitch": 81,
                "velocity": 64,
                "duration": 0.0159,
                "tempo": 120.0
            },
            {
                "pitch": 79,
                "velocity": 64,
                "duration": 0.0159,
                "tempo": 120.0
            },
            {
                "pitch": 82,
                "velocity": 64,
                "duration": 0.0182,
                "tempo": 120.0
            },
            {
                "pitch": 81,
                "velocity": 64,
                "duration": 0.0182,
                "tempo": 120.0
            },
            {
                "pitch": 84,
                "velocity": 64,
                "duration": 0.0159,
                "tempo": 120.0
            },
            {
                "pitch": 78,
                "velocity": 64,
                "duration": 0.0159,
                "tempo": 120.0
            },
            {
                "pitch": 81,
                "velocity": 64,
                "duration": 0.0182,
                "tempo": 120.0
            },
            {
                "pitch": 79,
                "velocity": 64,
                "duration": 0.0159,
                "tempo": 120.0
            },
            {
                "pitch": 82,
                "velocity": 64,
                "duration": 0.0182,
                "tempo": 120.0
            },
            {
                "pitch": 81,
                "velocity": 64,
                "duration": 0.0182,
                "tempo": 120.0
            },
            {
                "pitch": 84,
                "velocity": 64,
                "duration": 0.0159,
                "tempo": 120.0
            },
            {
                "pitch": 78,
                "velocity": 64,
                "duration": 0.0159,
                "tempo": 120.0
            },
            {
                "pitch": 81,
                "velocity": 64,
                "duration": 0.0182,
                "tempo": 120.0
            },
            {
                "pitch": 79,
                "velocity": 64,
                "duration": 0.0159,
                "tempo": 120.0
            },
            {
                "pitch": 82,
                "velocity": 64,
                "duration": 0.0159,
                "tempo": 120.0
            },
            {
                "pitch": 81,
                "velocity": 64,
                "duration": 0.0182,
                "tempo": 120.0
            },
            {
                "pitch": 84,
                "velocity": 64,
                "duration": 0.0159,
                "tempo": 120.0
            },
            {
                "pitch": 78,
                "velocity": 64,
                "duration": 0.0159,
                "tempo": 120.0
            },
            {
                "pitch": 81,
                "velocity": 64,
                "duration": 0.0182,
                "tempo": 120.0
            },
            {
                "pitch": 79,
                "velocity": 64,
                "duration": 0.0159,
                "tempo": 120.0
            },
            {
                "pitch": 82,
                "velocity": 64,
                "duration": 0.0182,
                "tempo": 120.0
            },
            {
                "pitch": 81,
                "velocity": 64,
                "duration": 0.0182,
                "tempo": 120.0
            },
            {
                "pitch": 84,
                "velocity": 64,
                "duration": 0.0159,
                "tempo": 120.0
            },
            {
                "pitch": 74,
                "velocity": 64,
                "duration": 0.0159,
                "tempo": 120.0
            },
            {
                "pitch": 77,
                "velocity": 64,
                "duration": 0.0182,
                "tempo": 120.0
            },
            {
                "pitch": 76,
                "velocity": 64,
                "duration": 0.0182,
                "tempo": 120.0
            },
            {
                "pitch": 79,
                "velocity": 64,
                "duration": 0.0159,
                "tempo": 120.0
            },
            {
                "pitch": 78,
                "velocity": 64,
                "duration": 0.0159,
                "tempo": 120.0
            },
            {
                "pitch": 81,
                "velocity": 64,
                "duration": 0.0182,
                "tempo": 120.0
            },
            {
                "pitch": 74,
                "velocity": 64,
                "duration": 0.0159,
                "tempo": 120.0
            },
            {
                "pitch": 77,
                "velocity": 64,
                "duration": 0.0182,
                "tempo": 120.0
            },
            {
                "pitch": 76,
                "velocity": 64,
                "duration": 0.0159,
                "tempo": 120.0
            },
            {
                "pitch": 79,
                "velocity": 64,
                "duration": 0.0159,
                "tempo": 120.0
            },
            {
                "pitch": 78,
                "velocity": 64,
                "duration": 0.0182,
                "tempo": 120.0
            },
            {
                "pitch": 81,
                "velocity": 64,
                "duration": 0.0159,
                "tempo": 120.0
            },
            {
                "pitch": 74,
                "velocity": 64,
                "duration": 0.0159,
                "tempo": 120.0
            },
            {
                "pitch": 77,
                "velocity": 64,
                "duration": 0.0182,
                "tempo": 120.0
            },
            {
                "pitch": 76,
                "velocity": 64,
                "duration": 0.0159,
                "tempo": 120.0
            },
            {
                "pitch": 79,
                "velocity": 64,
                "duration": 0.0159,
                "tempo": 120.0
            },
            {
                "pitch": 78,
                "velocity": 64,
                "duration": 0.0159,
                "tempo": 120.0
            },
            {
                "pitch": 81,
                "velocity": 64,
                "duration": 0.0182,
                "tempo": 120.0
            },
            {
                "pitch": 74,
                "velocity": 64,
                "duration": 0.0159,
                "tempo": 120.0
            },
            {
                "pitch": 77,
                "velocity": 64,
                "duration": 0.0182,
                "tempo": 120.0
            },
            {
                "pitch": 73,
                "velocity": 64,
                "duration": 0.0182,
                "tempo": 120.0
            },
            {
                "pitch": 76,
                "velocity": 64,
                "duration": 0.0159,
                "tempo": 120.0
            },
            {
                "pitch": 74,
                "velocity": 64,
                "duration": 0.0182,
                "tempo": 120.0
            },
            {
                "pitch": 77,
                "velocity": 64,
                "duration": 0.0159,
                "tempo": 120.0
            },
            {
                "pitch": 76,
                "velocity": 64,
                "duration": 0.0182,
                "tempo": 120.0
            },
            {
                "pitch": 79,
                "velocity": 64,
                "duration": 0.0159,
                "tempo": 120.0
            },
            {
                "pitch": 78,
                "velocity": 64,
                "duration": 0.0159,
                "tempo": 120.0
            },
            {
                "pitch": 81,
                "velocity": 64,
                "duration": 0.0182,
                "tempo": 120.0
            },
            {
                "pitch": 76,
                "velocity": 64,
                "duration": 0.0159,
                "tempo": 120.0
            },
            {
                "pitch": 79,
                "velocity": 64,
                "duration": 0.0159,
                "tempo": 120.0
            },
            {
                "pitch": 78,
                "velocity": 64,
                "duration": 0.0159,
                "tempo": 120.0
            },
            {
                "pitch": 81,
                "velocity": 64,
                "duration": 0.0159,
                "tempo": 120.0
            },
            {
                "pitch": 79,
                "velocity": 64,
                "duration": 0.0182,
                "tempo": 120.0
            },
            {
                "pitch": 82,
                "velocity": 64,
                "duration": 0.0159,
                "tempo": 120.0
            },
            {
                "pitch": 81,
                "velocity": 64,
                "duration": 0.0159,
                "tempo": 120.0
            },
            {
                "pitch": 84,
                "velocity": 64,
                "duration": 0.0182,
                "tempo": 120.0
            },
            {
                "pitch": 79,
                "velocity": 64,
                "duration": 0.0159,
                "tempo": 120.0
            },
            {
                "pitch": 82,
                "velocity": 64,
                "duration": 0.0182,
                "tempo": 120.0
            },
            {
                "pitch": 81,
                "velocity": 64,
                "duration": 0.0159,
                "tempo": 120.0
            },
            {
                "pitch": 84,
                "velocity": 64,
                "duration": 0.0159,
                "tempo": 120.0
            },
            {
                "pitch": 83,
                "velocity": 64,
                "duration": 0.0182,
                "tempo": 120.0
            },
            {
                "pitch": 86,
                "velocity": 64,
                "duration": 0.0159,
                "tempo": 120.0
            },
            {
                "pitch": 85,
                "velocity": 64,
                "duration": 0.0182,
                "tempo": 120.0
            },
            {
                "pitch": 88,
                "velocity": 64,
                "duration": 0.0159,
                "tempo": 120.0
            },
            {
                "pitch": 83,
                "velocity": 64,
                "duration": 0.0159,
                "tempo": 120.0
            },
            {
                "pitch": 86,
                "velocity": 64,
                "duration": 0.0182,
                "tempo": 120.0
            },
            {
                "pitch": 85,
                "velocity": 64,
                "duration": 0.0159,
                "tempo": 120.0
            },
            {
                "pitch": 88,
                "velocity": 64,
                "duration": 0.0159,
                "tempo": 120.0
            },
            {
                "pitch": 86,
                "velocity": 64,
                "duration": 0.0159,
                "tempo": 120.0
            },
            {
                "pitch": 89,
                "velocity": 64,
                "duration": 0.0159,
                "tempo": 120.0
            },
            {
                "pitch": 74,
                "velocity": 64,
                "duration": 0.0182,
                "tempo": 120.0
            },
            {
                "pitch": 77,
                "velocity": 64,
                "duration": 0.0159,
                "tempo": 120.0
            },
            {
                "pitch": 73,
                "velocity": 64,
                "duration": 0.0182,
                "tempo": 120.0
            },
            {
                "pitch": 76,
                "velocity": 64,
                "duration": 0.0159,
                "tempo": 120.0
            },
            {
                "pitch": 74,
                "velocity": 64,
                "duration": 0.0182,
                "tempo": 120.0
            },
            {
                "pitch": 77,
                "velocity": 64,
                "duration": 0.0159,
                "tempo": 120.0
            },
            {
                "pitch": 76,
                "velocity": 64,
                "duration": 0.0159,
                "tempo": 120.0
            },
            {
                "pitch": 79,
                "velocity": 64,
                "duration": 0.0182,
                "tempo": 120.0
            },
            {
                "pitch": 78,
                "velocity": 64,
                "duration": 0.0159,
                "tempo": 120.0
            },
            {
                "pitch": 81,
                "velocity": 64,
                "duration": 0.0159,
                "tempo": 120.0
            },
            {
                "pitch": 76,
                "velocity": 64,
                "duration": 0.0182,
                "tempo": 120.0
            },
            {
                "pitch": 79,
                "velocity": 64,
                "duration": 0.0159,
                "tempo": 120.0
            },
            {
                "pitch": 78,
                "velocity": 64,
                "duration": 0.0182,
                "tempo": 120.0
            },
            {
                "pitch": 81,
                "velocity": 64,
                "duration": 0.0159,
                "tempo": 120.0
            },
            {
                "pitch": 79,
                "velocity": 64,
                "duration": 0.0159,
                "tempo": 120.0
            },
            {
                "pitch": 82,
                "velocity": 64,
                "duration": 0.0182,
                "tempo": 120.0
            },
            {
                "pitch": 81,
                "velocity": 64,
                "duration": 0.0159,
                "tempo": 120.0
            },
            {
                "pitch": 84,
                "velocity": 64,
                "duration": 0.0182,
                "tempo": 120.0
            },
            {
                "pitch": 79,
                "velocity": 64,
                "duration": 0.0159,
                "tempo": 120.0
            },
            {
                "pitch": 82,
                "velocity": 64,
                "duration": 0.0182,
                "tempo": 120.0
            },
            {
                "pitch": 81,
                "velocity": 64,
                "duration": 0.0182,
                "tempo": 120.0
            },
            {
                "pitch": 84,
                "velocity": 64,
                "duration": 0.0159,
                "tempo": 120.0
            },
            {
                "pitch": 83,
                "velocity": 64,
                "duration": 0.0182,
                "tempo": 120.0
            },
            {
                "pitch": 86,
                "velocity": 64,
                "duration": 0.0159,
                "tempo": 120.0
            },
            {
                "pitch": 85,
                "velocity": 64,
                "duration": 0.0182,
                "tempo": 120.0
            },
            {
                "pitch": 88,
                "velocity": 64,
                "duration": 0.0159,
                "tempo": 120.0
            },
            {
                "pitch": 83,
                "velocity": 64,
                "duration": 0.0159,
                "tempo": 120.0
            },
            {
                "pitch": 86,
                "velocity": 64,
                "duration": 0.0182,
                "tempo": 120.0
            },
            {
                "pitch": 85,
                "velocity": 64,
                "duration": 0.0159,
                "tempo": 120.0
            },
            {
                "pitch": 88,
                "velocity": 64,
                "duration": 0.0159,
                "tempo": 120.0
            },
            {
                "pitch": 86,
                "velocity": 64,
                "duration": 0.0182,
                "tempo": 120.0
            },
            {
                "pitch": 89,
                "velocity": 64,
                "duration": 0.0159,
                "tempo": 120.0
            },
            {
                "pitch": 74,
                "velocity": 64,
                "duration": 0.0182,
                "tempo": 120.0
            },
            {
                "pitch": 77,
                "velocity": 64,
                "duration": 0.0159,
                "tempo": 120.0
            },
            {
                "pitch": 73,
                "velocity": 64,
                "duration": 0.0159,
                "tempo": 120.0
            },
            {
                "pitch": 76,
                "velocity": 64,
                "duration": 0.0182,
                "tempo": 120.0
            },
            {
                "pitch": 74,
                "velocity": 64,
                "duration": 0.0159,
                "tempo": 120.0
            },
            {
                "pitch": 77,
                "velocity": 64,
                "duration": 0.0182,
                "tempo": 120.0
            },
            {
                "pitch": 76,
                "velocity": 64,
                "duration": 0.0159,
                "tempo": 120.0
            },
            {
                "pitch": 79,
                "velocity": 64,
                "duration": 0.0159,
                "tempo": 120.0
            },
            {
                "pitch": 78,
                "velocity": 64,
                "duration": 0.0182,
                "tempo": 120.0
            },
            {
                "pitch": 81,
                "velocity": 64,
                "duration": 0.0159,
                "tempo": 120.0
            },
            {
                "pitch": 76,
                "velocity": 64,
                "duration": 0.0182,
                "tempo": 120.0
            },
            {
                "pitch": 79,
                "velocity": 64,
                "duration": 0.0159,
                "tempo": 120.0
            },
            {
                "pitch": 78,
                "velocity": 64,
                "duration": 0.0182,
                "tempo": 120.0
            },
            {
                "pitch": 81,
                "velocity": 64,
                "duration": 0.0159,
                "tempo": 120.0
            },
            {
                "pitch": 79,
                "velocity": 64,
                "duration": 0.0159,
                "tempo": 120.0
            },
            {
                "pitch": 82,
                "velocity": 64,
                "duration": 0.0182,
                "tempo": 120.0
            },
            {
                "pitch": 81,
                "velocity": 64,
                "duration": 0.0159,
                "tempo": 120.0
            },
            {
                "pitch": 84,
                "velocity": 64,
                "duration": 0.0159,
                "tempo": 120.0
            },
            {
                "pitch": 79,
                "velocity": 64,
                "duration": 0.0159,
                "tempo": 120.0
            },
            {
                "pitch": 82,
                "velocity": 64,
                "duration": 0.0159,
                "tempo": 120.0
            },
            {
                "pitch": 81,
                "velocity": 64,
                "duration": 0.0182,
                "tempo": 120.0
            },
            {
                "pitch": 84,
                "velocity": 64,
                "duration": 0.0159,
                "tempo": 120.0
            },
            {
                "pitch": 83,
                "velocity": 64,
                "duration": 0.0159,
                "tempo": 120.0
            },
            {
                "pitch": 86,
                "velocity": 64,
                "duration": 0.0182,
                "tempo": 120.0
            },
            {
                "pitch": 85,
                "velocity": 64,
                "duration": 0.0159,
                "tempo": 120.0
            },
            {
                "pitch": 88,
                "velocity": 64,
                "duration": 0.0182,
                "tempo": 120.0
            },
            {
                "pitch": 83,
                "velocity": 64,
                "duration": 0.0159,
                "tempo": 120.0
            },
            {
                "pitch": 86,
                "velocity": 64,
                "duration": 0.0159,
                "tempo": 120.0
            },
            {
                "pitch": 85,
                "velocity": 64,
                "duration": 0.0182,
                "tempo": 120.0
            },
            {
                "pitch": 88,
                "velocity": 64,
                "duration": 0.0159,
                "tempo": 120.0
            },
            {
                "pitch": 86,
                "velocity": 64,
                "duration": 0.0182,
                "tempo": 120.0
            },
            {
                "pitch": 89,
                "velocity": 64,
                "duration": 0.0159,
                "tempo": 120.0
            },
            {
                "pitch": 74,
                "velocity": 64,
                "duration": 0.0159,
                "tempo": 120.0
            },
            {
                "pitch": 77,
                "velocity": 64,
                "duration": 0.0182,
                "tempo": 120.0
            },
            {
                "pitch": 76,
                "velocity": 64,
                "duration": 0.0159,
                "tempo": 120.0
            },
            {
                "pitch": 79,
                "velocity": 64,
                "duration": 0.0159,
                "tempo": 120.0
            },
            {
                "pitch": 78,
                "velocity": 64,
                "duration": 0.0182,
                "tempo": 120.0
            },
            {
                "pitch": 81,
                "velocity": 64,
                "duration": 0.0159,
                "tempo": 120.0
            },
            {
                "pitch": 74,
                "velocity": 64,
                "duration": 0.0159,
                "tempo": 120.0
            },
            {
                "pitch": 77,
                "velocity": 64,
                "duration": 0.0182,
                "tempo": 120.0
            },
            {
                "pitch": 76,
                "velocity": 64,
                "duration": 0.0159,
                "tempo": 120.0
            },
            {
                "pitch": 79,
                "velocity": 64,
                "duration": 0.0182,
                "tempo": 120.0
            },
            {
                "pitch": 78,
                "velocity": 64,
                "duration": 0.0182,
                "tempo": 120.0
            },
            {
                "pitch": 81,
                "velocity": 64,
                "duration": 0.0159,
                "tempo": 120.0
            },
            {
                "pitch": 74,
                "velocity": 64,
                "duration": 0.0159,
                "tempo": 120.0
            },
            {
                "pitch": 77,
                "velocity": 64,
                "duration": 0.0182,
                "tempo": 120.0
            },
            {
                "pitch": 76,
                "velocity": 64,
                "duration": 0.0159,
                "tempo": 120.0
            },
            {
                "pitch": 79,
                "velocity": 64,
                "duration": 0.0159,
                "tempo": 120.0
            },
            {
                "pitch": 78,
                "velocity": 64,
                "duration": 0.0182,
                "tempo": 120.0
            },
            {
                "pitch": 81,
                "velocity": 64,
                "duration": 0.0159,
                "tempo": 120.0
            },
            {
                "pitch": 74,
                "velocity": 64,
                "duration": 0.0159,
                "tempo": 120.0
            },
            {
                "pitch": 77,
                "velocity": 64,
                "duration": 0.0182,
                "tempo": 120.0
            },
            {
                "pitch": 73,
                "velocity": 64,
                "duration": 0.0159,
                "tempo": 120.0
            },
            {
                "pitch": 76,
                "velocity": 64,
                "duration": 0.0182,
                "tempo": 120.0
            },
            {
                "pitch": 74,
                "velocity": 64,
                "duration": 0.0182,
                "tempo": 120.0
            },
            {
                "pitch": 77,
                "velocity": 64,
                "duration": 0.0159,
                "tempo": 120.0
            },
            {
                "pitch": 76,
                "velocity": 64,
                "duration": 0.0182,
                "tempo": 120.0
            },
            {
                "pitch": 79,
                "velocity": 64,
                "duration": 0.0159,
                "tempo": 120.0
            },
            {
                "pitch": 78,
                "velocity": 64,
                "duration": 0.0159,
                "tempo": 120.0
            },
            {
                "pitch": 81,
                "velocity": 64,
                "duration": 0.0182,
                "tempo": 120.0
            },
            {
                "pitch": 76,
                "velocity": 64,
                "duration": 0.0159,
                "tempo": 120.0
            },
            {
                "pitch": 79,
                "velocity": 64,
                "duration": 0.0182,
                "tempo": 120.0
            },
            {
                "pitch": 78,
                "velocity": 64,
                "duration": 0.0159,
                "tempo": 120.0
            },
            {
                "pitch": 81,
                "velocity": 64,
                "duration": 0.0159,
                "tempo": 120.0
            },
            {
                "pitch": 79,
                "velocity": 64,
                "duration": 0.0182,
                "tempo": 120.0
            },
            {
                "pitch": 82,
                "velocity": 64,
                "duration": 0.0159,
                "tempo": 120.0
            },
            {
                "pitch": 81,
                "velocity": 64,
                "duration": 0.0182,
                "tempo": 120.0
            },
            {
                "pitch": 84,
                "velocity": 64,
                "duration": 0.0159,
                "tempo": 120.0
            },
            {
                "pitch": 79,
                "velocity": 64,
                "duration": 0.0159,
                "tempo": 120.0
            },
            {
                "pitch": 82,
                "velocity": 64,
                "duration": 0.0182,
                "tempo": 120.0
            },
            {
                "pitch": 81,
                "velocity": 64,
                "duration": 0.0159,
                "tempo": 120.0
            },
            {
                "pitch": 84,
                "velocity": 64,
                "duration": 0.0182,
                "tempo": 120.0
            },
            {
                "pitch": 83,
                "velocity": 64,
                "duration": 0.0159,
                "tempo": 120.0
            },
            {
                "pitch": 86,
                "velocity": 64,
                "duration": 0.0182,
                "tempo": 120.0
            },
            {
                "pitch": 85,
                "velocity": 64,
                "duration": 0.0159,
                "tempo": 120.0
            },
            {
                "pitch": 88,
                "velocity": 64,
                "duration": 0.0159,
                "tempo": 120.0
            },
            {
                "pitch": 83,
                "velocity": 64,
                "duration": 0.0182,
                "tempo": 120.0
            },
            {
                "pitch": 86,
                "velocity": 64,
                "duration": 0.0159,
                "tempo": 120.0
            },
            {
                "pitch": 85,
                "velocity": 64,
                "duration": 0.0159,
                "tempo": 120.0
            },
            {
                "pitch": 88,
                "velocity": 64,
                "duration": 0.0182,
                "tempo": 120.0
            },
            {
                "pitch": 86,
                "velocity": 64,
                "duration": 0.0159,
                "tempo": 120.0
            },
            {
                "pitch": 89,
                "velocity": 64,
                "duration": 0.0182,
                "tempo": 120.0
            },
            {
                "pitch": 74,
                "velocity": 64,
                "duration": 0.0159,
                "tempo": 120.0
            },
            {
                "pitch": 77,
                "velocity": 64,
                "duration": 0.0159,
                "tempo": 120.0
            },
            {
                "pitch": 73,
                "velocity": 64,
                "duration": 0.0182,
                "tempo": 120.0
            },
            {
                "pitch": 76,
                "velocity": 64,
                "duration": 0.0159,
                "tempo": 120.0
            },
            {
                "pitch": 74,
                "velocity": 64,
                "duration": 0.0182,
                "tempo": 120.0
            },
            {
                "pitch": 77,
                "velocity": 64,
                "duration": 0.0159,
                "tempo": 120.0
            },
            {
                "pitch": 76,
                "velocity": 64,
                "duration": 0.0159,
                "tempo": 120.0
            },
            {
                "pitch": 79,
                "velocity": 64,
                "duration": 0.0182,
                "tempo": 120.0
            },
            {
                "pitch": 78,
                "velocity": 64,
                "duration": 0.0159,
                "tempo": 120.0
            },
            {
                "pitch": 81,
                "velocity": 64,
                "duration": 0.0182,
                "tempo": 120.0
            },
            {
                "pitch": 76,
                "velocity": 64,
                "duration": 0.0159,
                "tempo": 120.0
            },
            {
                "pitch": 79,
                "velocity": 64,
                "duration": 0.0182,
                "tempo": 120.0
            },
            {
                "pitch": 78,
                "velocity": 64,
                "duration": 0.0182,
                "tempo": 120.0
            },
            {
                "pitch": 81,
                "velocity": 64,
                "duration": 0.0159,
                "tempo": 120.0
            },
            {
                "pitch": 79,
                "velocity": 64,
                "duration": 0.0182,
                "tempo": 120.0
            },
            {
                "pitch": 82,
                "velocity": 64,
                "duration": 0.0159,
                "tempo": 120.0
            },
            {
                "pitch": 81,
                "velocity": 64,
                "duration": 0.0159,
                "tempo": 120.0
            },
            {
                "pitch": 84,
                "velocity": 64,
                "duration": 0.0182,
                "tempo": 120.0
            },
            {
                "pitch": 79,
                "velocity": 64,
                "duration": 0.0159,
                "tempo": 120.0
            },
            {
                "pitch": 82,
                "velocity": 64,
                "duration": 0.0182,
                "tempo": 120.0
            },
            {
                "pitch": 81,
                "velocity": 64,
                "duration": 0.0159,
                "tempo": 120.0
            },
            {
                "pitch": 84,
                "velocity": 64,
                "duration": 0.0159,
                "tempo": 120.0
            },
            {
                "pitch": 83,
                "velocity": 64,
                "duration": 0.0182,
                "tempo": 120.0
            },
            {
                "pitch": 86,
                "velocity": 64,
                "duration": 0.0159,
                "tempo": 120.0
            },
            {
                "pitch": 85,
                "velocity": 64,
                "duration": 0.0182,
                "tempo": 120.0
            },
            {
                "pitch": 88,
                "velocity": 64,
                "duration": 0.0159,
                "tempo": 120.0
            },
            {
                "pitch": 83,
                "velocity": 64,
                "duration": 0.0159,
                "tempo": 120.0
            },
            {
                "pitch": 86,
                "velocity": 64,
                "duration": 0.0182,
                "tempo": 120.0
            },
            {
                "pitch": 85,
                "velocity": 64,
                "duration": 0.0159,
                "tempo": 120.0
            },
            {
                "pitch": 88,
                "velocity": 64,
                "duration": 0.0182,
                "tempo": 120.0
            },
            {
                "pitch": 86,
                "velocity": 64,
                "duration": 0.0159,
                "tempo": 120.0
            },
            {
                "pitch": 89,
                "velocity": 64,
                "duration": 0.0159,
                "tempo": 120.0
            },
            {
                "pitch": 74,
                "velocity": 64,
                "duration": 0.0182,
                "tempo": 120.0
            },
            {
                "pitch": 77,
                "velocity": 64,
                "duration": 0.0159,
                "tempo": 120.0
            },
            {
                "pitch": 73,
                "velocity": 64,
                "duration": 0.0182,
                "tempo": 120.0
            },
            {
                "pitch": 76,
                "velocity": 64,
                "duration": 0.0159,
                "tempo": 120.0
            },
            {
                "pitch": 74,
                "velocity": 64,
                "duration": 0.0182,
                "tempo": 120.0
            },
            {
                "pitch": 77,
                "velocity": 64,
                "duration": 0.0159,
                "tempo": 120.0
            },
            {
                "pitch": 76,
                "velocity": 64,
                "duration": 0.0159,
                "tempo": 120.0
            },
            {
                "pitch": 79,
                "velocity": 64,
                "duration": 0.0182,
                "tempo": 120.0
            },
            {
                "pitch": 78,
                "velocity": 64,
                "duration": 0.0159,
                "tempo": 120.0
            },
            {
                "pitch": 81,
                "velocity": 64,
                "duration": 0.0159,
                "tempo": 120.0
            },
            {
                "pitch": 76,
                "velocity": 64,
                "duration": 0.0182,
                "tempo": 120.0
            },
            {
                "pitch": 79,
                "velocity": 64,
                "duration": 0.0159,
                "tempo": 120.0
            },
            {
                "pitch": 78,
                "velocity": 64,
                "duration": 0.0182,
                "tempo": 120.0
            },
            {
                "pitch": 81,
                "velocity": 64,
                "duration": 0.0159,
                "tempo": 120.0
            },
            {
                "pitch": 79,
                "velocity": 64,
                "duration": 0.0159,
                "tempo": 120.0
            },
            {
                "pitch": 82,
                "velocity": 64,
                "duration": 0.0182,
                "tempo": 120.0
            },
            {
                "pitch": 81,
                "velocity": 64,
                "duration": 0.0159,
                "tempo": 120.0
            },
            {
                "pitch": 84,
                "velocity": 64,
                "duration": 0.0182,
                "tempo": 120.0
            },
            {
                "pitch": 79,
                "velocity": 64,
                "duration": 0.0159,
                "tempo": 120.0
            },
            {
                "pitch": 82,
                "velocity": 64,
                "duration": 0.0159,
                "tempo": 120.0
            },
            {
                "pitch": 81,
                "velocity": 64,
                "duration": 0.0182,
                "tempo": 120.0
            },
            {
                "pitch": 84,
                "velocity": 64,
                "duration": 0.0159,
                "tempo": 120.0
            },
            {
                "pitch": 83,
                "velocity": 64,
                "duration": 0.0182,
                "tempo": 120.0
            },
            {
                "pitch": 86,
                "velocity": 64,
                "duration": 0.0159,
                "tempo": 120.0
            },
            {
                "pitch": 85,
                "velocity": 64,
                "duration": 0.0159,
                "tempo": 120.0
            },
            {
                "pitch": 88,
                "velocity": 64,
                "duration": 0.0182,
                "tempo": 120.0
            },
            {
                "pitch": 83,
                "velocity": 64,
                "duration": 0.0159,
                "tempo": 120.0
            },
            {
                "pitch": 86,
                "velocity": 64,
                "duration": 0.0159,
                "tempo": 120.0
            },
            {
                "pitch": 85,
                "velocity": 64,
                "duration": 0.0159,
                "tempo": 120.0
            },
            {
                "pitch": 88,
                "velocity": 64,
                "duration": 0.0159,
                "tempo": 120.0
            },
            {
                "pitch": 86,
                "velocity": 64,
                "duration": 0.0182,
                "tempo": 120.0
            },
            {
                "pitch": 89,
                "velocity": 64,
                "duration": 0.0159,
                "tempo": 120.0
            },
            {
                "pitch": 74,
                "velocity": 64,
                "duration": 0.0182,
                "tempo": 120.0
            },
            {
                "pitch": 77,
                "velocity": 64,
                "duration": 0.0159,
                "tempo": 120.0
            },
            {
                "pitch": 76,
                "velocity": 64,
                "duration": 0.0159,
                "tempo": 120.0
            },
            {
                "pitch": 79,
                "velocity": 64,
                "duration": 0.0182,
                "tempo": 120.0
            },
            {
                "pitch": 78,
                "velocity": 64,
                "duration": 0.0182,
                "tempo": 120.0
            },
            {
                "pitch": 81,
                "velocity": 64,
                "duration": 0.0159,
                "tempo": 120.0
            },
            {
                "pitch": 74,
                "velocity": 64,
                "duration": 0.0159,
                "tempo": 120.0
            },
            {
                "pitch": 77,
                "velocity": 64,
                "duration": 0.0182,
                "tempo": 120.0
            },
            {
                "pitch": 76,
                "velocity": 64,
                "duration": 0.0159,
                "tempo": 120.0
            },
            {
                "pitch": 79,
                "velocity": 64,
                "duration": 0.0159,
                "tempo": 120.0
            },
            {
                "pitch": 78,
                "velocity": 64,
                "duration": 0.0182,
                "tempo": 120.0
            },
            {
                "pitch": 81,
                "velocity": 64,
                "duration": 0.0159,
                "tempo": 120.0
            },
            {
                "pitch": 74,
                "velocity": 64,
                "duration": 0.0159,
                "tempo": 120.0
            },
            {
                "pitch": 77,
                "velocity": 64,
                "duration": 0.0182,
                "tempo": 120.0
            },
            {
                "pitch": 76,
                "velocity": 64,
                "duration": 0.0159,
                "tempo": 120.0
            },
            {
                "pitch": 79,
                "velocity": 64,
                "duration": 0.0182,
                "tempo": 120.0
            },
            {
                "pitch": 78,
                "velocity": 64,
                "duration": 0.0182,
                "tempo": 120.0
            },
            {
                "pitch": 81,
                "velocity": 64,
                "duration": 0.0159,
                "tempo": 120.0
            },
            {
                "pitch": 81,
                "velocity": 64,
                "duration": 0.0159,
                "tempo": 120.0
            },
            {
                "pitch": 84,
                "velocity": 64,
                "duration": 0.0182,
                "tempo": 120.0
            },
            {
                "pitch": 88,
                "velocity": 64,
                "duration": 0.1659,
                "tempo": 120.0
            },
            {
                "pitch": 81,
                "velocity": 64,
                "duration": 0.0159,
                "tempo": 120.0
            },
            {
                "pitch": 84,
                "velocity": 64,
                "duration": 0.0159,
                "tempo": 120.0
            },
            {
                "pitch": 81,
                "velocity": 64,
                "duration": 0.0159,
                "tempo": 120.0
            },
            {
                "pitch": 84,
                "velocity": 64,
                "duration": 0.0159,
                "tempo": 120.0
            },
            {
                "pitch": 81,
                "velocity": 64,
                "duration": 0.0182,
                "tempo": 120.0
            },
            {
                "pitch": 84,
                "velocity": 64,
                "duration": 0.0159,
                "tempo": 120.0
            },
            {
                "pitch": 88,
                "velocity": 64,
                "duration": 0.0341,
                "tempo": 120.0
            },
            {
                "pitch": 79,
                "velocity": 64,
                "duration": 0.0159,
                "tempo": 120.0
            },
            {
                "pitch": 82,
                "velocity": 64,
                "duration": 0.0182,
                "tempo": 120.0
            },
            {
                "pitch": 86,
                "velocity": 64,
                "duration": 0.0341,
                "tempo": 120.0
            },
            {
                "pitch": 78,
                "velocity": 64,
                "duration": 0.0159,
                "tempo": 120.0
            },
            {
                "pitch": 81,
                "velocity": 64,
                "duration": 0.0159,
                "tempo": 120.0
            },
            {
                "pitch": 85,
                "velocity": 64,
                "duration": 0.0341,
                "tempo": 120.0
            },
            {
                "pitch": 79,
                "velocity": 64,
                "duration": 0.0182,
                "tempo": 120.0
            },
            {
                "pitch": 82,
                "velocity": 64,
                "duration": 0.0159,
                "tempo": 120.0
            },
            {
                "pitch": 86,
                "velocity": 64,
                "duration": 0.0341,
                "tempo": 120.0
            },
            {
                "pitch": 81,
                "velocity": 64,
                "duration": 0.0159,
                "tempo": 120.0
            },
            {
                "pitch": 84,
                "velocity": 64,
                "duration": 0.0182,
                "tempo": 120.0
            },
            {
                "pitch": 88,
                "velocity": 64,
                "duration": 0.1682,
                "tempo": 120.0
            },
            {
                "pitch": 81,
                "velocity": 64,
                "duration": 0.0159,
                "tempo": 120.0
            },
            {
                "pitch": 84,
                "velocity": 64,
                "duration": 0.0159,
                "tempo": 120.0
            },
            {
                "pitch": 81,
                "velocity": 64,
                "duration": 0.0182,
                "tempo": 120.0
            },
            {
                "pitch": 84,
                "velocity": 64,
                "duration": 0.0159,
                "tempo": 120.0
            },
            {
                "pitch": 81,
                "velocity": 64,
                "duration": 0.0182,
                "tempo": 120.0
            },
            {
                "pitch": 84,
                "velocity": 64,
                "duration": 0.0159,
                "tempo": 120.0
            },
            {
                "pitch": 88,
                "velocity": 64,
                "duration": 0.0341,
                "tempo": 120.0
            },
            {
                "pitch": 79,
                "velocity": 64,
                "duration": 0.0159,
                "tempo": 120.0
            },
            {
                "pitch": 82,
                "velocity": 64,
                "duration": 0.0159,
                "tempo": 120.0
            },
            {
                "pitch": 86,
                "velocity": 64,
                "duration": 0.0341,
                "tempo": 120.0
            },
            {
                "pitch": 78,
                "velocity": 64,
                "duration": 0.0182,
                "tempo": 120.0
            },
            {
                "pitch": 81,
                "velocity": 64,
                "duration": 0.0159,
                "tempo": 120.0
            },
            {
                "pitch": 85,
                "velocity": 64,
                "duration": 0.0341,
                "tempo": 120.0
            },
            {
                "pitch": 79,
                "velocity": 64,
                "duration": 0.0159,
                "tempo": 120.0
            },
            {
                "pitch": 82,
                "velocity": 64,
                "duration": 0.0182,
                "tempo": 120.0
            },
            {
                "pitch": 86,
                "velocity": 64,
                "duration": 0.0318,
                "tempo": 120.0
            },
            {
                "pitch": 81,
                "velocity": 64,
                "duration": 0.0182,
                "tempo": 120.0
            },
            {
                "pitch": 84,
                "velocity": 64,
                "duration": 0.0159,
                "tempo": 120.0
            },
            {
                "pitch": 88,
                "velocity": 64,
                "duration": 0.1705,
                "tempo": 120.0
            },
            {
                "pitch": 81,
                "velocity": 64,
                "duration": 0.0182,
                "tempo": 120.0
            },
            {
                "pitch": 84,
                "velocity": 64,
                "duration": 0.0159,
                "tempo": 120.0
            },
            {
                "pitch": 81,
                "velocity": 64,
                "duration": 0.0182,
                "tempo": 120.0
            },
            {
                "pitch": 84,
                "velocity": 64,
                "duration": 0.0159,
                "tempo": 120.0
            },
            {
                "pitch": 81,
                "velocity": 64,
                "duration": 0.0159,
                "tempo": 120.0
            },
            {
                "pitch": 84,
                "velocity": 64,
                "duration": 0.0182,
                "tempo": 120.0
            },
            {
                "pitch": 88,
                "velocity": 64,
                "duration": 0.0341,
                "tempo": 120.0
            },
            {
                "pitch": 79,
                "velocity": 64,
                "duration": 0.0159,
                "tempo": 120.0
            },
            {
                "pitch": 82,
                "velocity": 64,
                "duration": 0.0182,
                "tempo": 120.0
            },
            {
                "pitch": 86,
                "velocity": 64,
                "duration": 0.0341,
                "tempo": 120.0
            },
            {
                "pitch": 78,
                "velocity": 64,
                "duration": 0.0182,
                "tempo": 120.0
            },
            {
                "pitch": 81,
                "velocity": 64,
                "duration": 0.0159,
                "tempo": 120.0
            },
            {
                "pitch": 85,
                "velocity": 64,
                "duration": 0.0341,
                "tempo": 120.0
            },
            {
                "pitch": 79,
                "velocity": 64,
                "duration": 0.0159,
                "tempo": 120.0
            },
            {
                "pitch": 82,
                "velocity": 64,
                "duration": 0.0182,
                "tempo": 120.0
            },
            {
                "pitch": 86,
                "velocity": 64,
                "duration": 0.0318,
                "tempo": 120.0
            },
            {
                "pitch": 74,
                "velocity": 64,
                "duration": 0.0182,
                "tempo": 120.0
            },
            {
                "pitch": 77,
                "velocity": 64,
                "duration": 0.0159,
                "tempo": 120.0
            },
            {
                "pitch": 76,
                "velocity": 64,
                "duration": 0.0159,
                "tempo": 120.0
            },
            {
                "pitch": 79,
                "velocity": 64,
                "duration": 0.0182,
                "tempo": 120.0
            },
            {
                "pitch": 78,
                "velocity": 64,
                "duration": 0.0159,
                "tempo": 120.0
            },
            {
                "pitch": 81,
                "velocity": 64,
                "duration": 0.0159,
                "tempo": 120.0
            },
            {
                "pitch": 74,
                "velocity": 64,
                "duration": 0.0182,
                "tempo": 120.0
            },
            {
                "pitch": 77,
                "velocity": 64,
                "duration": 0.0159,
                "tempo": 120.0
            },
            {
                "pitch": 76,
                "velocity": 64,
                "duration": 0.0182,
                "tempo": 120.0
            },
            {
                "pitch": 79,
                "velocity": 64,
                "duration": 0.0159,
                "tempo": 120.0
            },
            {
                "pitch": 78,
                "velocity": 64,
                "duration": 0.0159,
                "tempo": 120.0
            },
            {
                "pitch": 81,
                "velocity": 64,
                "duration": 0.0159,
                "tempo": 120.0
            },
            {
                "pitch": 74,
                "velocity": 64,
                "duration": 0.0182,
                "tempo": 120.0
            },
            {
                "pitch": 77,
                "velocity": 64,
                "duration": 0.0159,
                "tempo": 120.0
            },
            {
                "pitch": 76,
                "velocity": 64,
                "duration": 0.0159,
                "tempo": 120.0
            },
            {
                "pitch": 79,
                "velocity": 64,
                "duration": 0.0182,
                "tempo": 120.0
            },
            {
                "pitch": 78,
                "velocity": 64,
                "duration": 0.0159,
                "tempo": 120.0
            },
            {
                "pitch": 81,
                "velocity": 64,
                "duration": 0.0159,
                "tempo": 120.0
            },
            {
                "pitch": 81,
                "velocity": 64,
                "duration": 0.0159,
                "tempo": 120.0
            },
            {
                "pitch": 84,
                "velocity": 64,
                "duration": 0.0182,
                "tempo": 120.0
            },
            {
                "pitch": 88,
                "velocity": 64,
                "duration": 0.1659,
                "tempo": 120.0
            },
            {
                "pitch": 81,
                "velocity": 64,
                "duration": 0.0159,
                "tempo": 120.0
            },
            {
                "pitch": 84,
                "velocity": 64,
                "duration": 0.0182,
                "tempo": 120.0
            },
            {
                "pitch": 81,
                "velocity": 64,
                "duration": 0.0159,
                "tempo": 120.0
            },
            {
                "pitch": 84,
                "velocity": 64,
                "duration": 0.0182,
                "tempo": 120.0
            },
            {
                "pitch": 81,
                "velocity": 64,
                "duration": 0.0159,
                "tempo": 120.0
            },
            {
                "pitch": 84,
                "velocity": 64,
                "duration": 0.0159,
                "tempo": 120.0
            },
            {
                "pitch": 88,
                "velocity": 64,
                "duration": 0.0341,
                "tempo": 120.0
            },
            {
                "pitch": 79,
                "velocity": 64,
                "duration": 0.0182,
                "tempo": 120.0
            },
            {
                "pitch": 82,
                "velocity": 64,
                "duration": 0.0159,
                "tempo": 120.0
            },
            {
                "pitch": 86,
                "velocity": 64,
                "duration": 0.0341,
                "tempo": 120.0
            },
            {
                "pitch": 78,
                "velocity": 64,
                "duration": 0.0159,
                "tempo": 120.0
            },
            {
                "pitch": 81,
                "velocity": 64,
                "duration": 0.0159,
                "tempo": 120.0
            },
            {
                "pitch": 85,
                "velocity": 64,
                "duration": 0.0341,
                "tempo": 120.0
            },
            {
                "pitch": 79,
                "velocity": 64,
                "duration": 0.0182,
                "tempo": 120.0
            },
            {
                "pitch": 82,
                "velocity": 64,
                "duration": 0.0159,
                "tempo": 120.0
            },
            {
                "pitch": 86,
                "velocity": 64,
                "duration": 0.0341,
                "tempo": 120.0
            },
            {
                "pitch": 81,
                "velocity": 64,
                "duration": 0.0159,
                "tempo": 120.0
            },
            {
                "pitch": 84,
                "velocity": 64,
                "duration": 0.0182,
                "tempo": 120.0
            },
            {
                "pitch": 88,
                "velocity": 64,
                "duration": 0.1705,
                "tempo": 120.0
            },
            {
                "pitch": 81,
                "velocity": 64,
                "duration": 0.0159,
                "tempo": 120.0
            },
            {
                "pitch": 84,
                "velocity": 64,
                "duration": 0.0159,
                "tempo": 120.0
            },
            {
                "pitch": 81,
                "velocity": 64,
                "duration": 0.0159,
                "tempo": 120.0
            },
            {
                "pitch": 84,
                "velocity": 64,
                "duration": 0.0159,
                "tempo": 120.0
            },
            {
                "pitch": 81,
                "velocity": 64,
                "duration": 0.0182,
                "tempo": 120.0
            },
            {
                "pitch": 84,
                "velocity": 64,
                "duration": 0.0159,
                "tempo": 120.0
            },
            {
                "pitch": 88,
                "velocity": 64,
                "duration": 0.0341,
                "tempo": 120.0
            },
            {
                "pitch": 79,
                "velocity": 64,
                "duration": 0.0159,
                "tempo": 120.0
            },
            {
                "pitch": 82,
                "velocity": 64,
                "duration": 0.0182,
                "tempo": 120.0
            },
            {
                "pitch": 86,
                "velocity": 64,
                "duration": 0.0341,
                "tempo": 120.0
            },
            {
                "pitch": 78,
                "velocity": 64,
                "duration": 0.0159,
                "tempo": 120.0
            },
            {
                "pitch": 81,
                "velocity": 64,
                "duration": 0.0159,
                "tempo": 120.0
            },
            {
                "pitch": 85,
                "velocity": 64,
                "duration": 0.0341,
                "tempo": 120.0
            },
            {
                "pitch": 79,
                "velocity": 64,
                "duration": 0.0182,
                "tempo": 120.0
            },
            {
                "pitch": 82,
                "velocity": 64,
                "duration": 0.0159,
                "tempo": 120.0
            },
            {
                "pitch": 86,
                "velocity": 64,
                "duration": 0.0341,
                "tempo": 120.0
            },
            {
                "pitch": 81,
                "velocity": 64,
                "duration": 0.0159,
                "tempo": 120.0
            },
            {
                "pitch": 84,
                "velocity": 64,
                "duration": 0.0159,
                "tempo": 120.0
            },
            {
                "pitch": 88,
                "velocity": 64,
                "duration": 0.1682,
                "tempo": 120.0
            },
            {
                "pitch": 81,
                "velocity": 64,
                "duration": 0.0159,
                "tempo": 120.0
            },
            {
                "pitch": 84,
                "velocity": 64,
                "duration": 0.0182,
                "tempo": 120.0
            },
            {
                "pitch": 81,
                "velocity": 64,
                "duration": 0.0182,
                "tempo": 120.0
            },
            {
                "pitch": 84,
                "velocity": 64,
                "duration": 0.0159,
                "tempo": 120.0
            },
            {
                "pitch": 81,
                "velocity": 64,
                "duration": 0.0182,
                "tempo": 120.0
            },
            {
                "pitch": 84,
                "velocity": 64,
                "duration": 0.0159,
                "tempo": 120.0
            },
            {
                "pitch": 88,
                "velocity": 64,
                "duration": 0.0341,
                "tempo": 120.0
            },
            {
                "pitch": 79,
                "velocity": 64,
                "duration": 0.0159,
                "tempo": 120.0
            },
            {
                "pitch": 82,
                "velocity": 64,
                "duration": 0.0182,
                "tempo": 120.0
            },
            {
                "pitch": 86,
                "velocity": 64,
                "duration": 0.0318,
                "tempo": 120.0
            },
            {
                "pitch": 78,
                "velocity": 64,
                "duration": 0.0182,
                "tempo": 120.0
            },
            {
                "pitch": 81,
                "velocity": 64,
                "duration": 0.0159,
                "tempo": 120.0
            },
            {
                "pitch": 85,
                "velocity": 64,
                "duration": 0.0341,
                "tempo": 120.0
            },
            {
                "pitch": 79,
                "velocity": 64,
                "duration": 0.0159,
                "tempo": 120.0
            },
            {
                "pitch": 82,
                "velocity": 64,
                "duration": 0.0182,
                "tempo": 120.0
            },
            {
                "pitch": 86,
                "velocity": 64,
                "duration": 0.0318,
                "tempo": 120.0
            },
            {
                "pitch": 74,
                "velocity": 64,
                "duration": 0.0182,
                "tempo": 120.0
            },
            {
                "pitch": 77,
                "velocity": 64,
                "duration": 0.0159,
                "tempo": 120.0
            },
            {
                "pitch": 76,
                "velocity": 64,
                "duration": 0.0159,
                "tempo": 120.0
            },
            {
                "pitch": 79,
                "velocity": 64,
                "duration": 0.0182,
                "tempo": 120.0
            },
            {
                "pitch": 78,
                "velocity": 64,
                "duration": 0.0159,
                "tempo": 120.0
            },
            {
                "pitch": 81,
                "velocity": 64,
                "duration": 0.0182,
                "tempo": 120.0
            },
            {
                "pitch": 74,
                "velocity": 64,
                "duration": 0.0182,
                "tempo": 120.0
            },
            {
                "pitch": 77,
                "velocity": 64,
                "duration": 0.0159,
                "tempo": 120.0
            },
            {
                "pitch": 76,
                "velocity": 64,
                "duration": 0.0182,
                "tempo": 120.0
            },
            {
                "pitch": 79,
                "velocity": 64,
                "duration": 0.0159,
                "tempo": 120.0
            },
            {
                "pitch": 78,
                "velocity": 64,
                "duration": 0.0159,
                "tempo": 120.0
            },
            {
                "pitch": 81,
                "velocity": 64,
                "duration": 0.0159,
                "tempo": 120.0
            },
            {
                "pitch": 74,
                "velocity": 64,
                "duration": 0.0159,
                "tempo": 120.0
            },
            {
                "pitch": 77,
                "velocity": 64,
                "duration": 0.0159,
                "tempo": 120.0
            },
            {
                "pitch": 76,
                "velocity": 64,
                "duration": 0.0182,
                "tempo": 120.0
            },
            {
                "pitch": 79,
                "velocity": 64,
                "duration": 0.0159,
                "tempo": 120.0
            },
            {
                "pitch": 78,
                "velocity": 64,
                "duration": 0.0159,
                "tempo": 120.0
            },
            {
                "pitch": 81,
                "velocity": 64,
                "duration": 0.0182,
                "tempo": 120.0
            },
            {
                "pitch": 65,
                "velocity": 64,
                "duration": 0.0182,
                "tempo": 120.0
            },
            {
                "pitch": 68,
                "velocity": 64,
                "duration": 0.0159,
                "tempo": 120.0
            },
            {
                "pitch": 65,
                "velocity": 80,
                "duration": 0.0182,
                "tempo": 120.0
            },
            {
                "pitch": 68,
                "velocity": 80,
                "duration": 0.0159,
                "tempo": 120.0
            },
            {
                "pitch": 69,
                "velocity": 80,
                "duration": 0.0159,
                "tempo": 120.0
            },
            {
                "pitch": 72,
                "velocity": 80,
                "duration": 0.0182,
                "tempo": 120.0
            },
            {
                "pitch": 69,
                "velocity": 80,
                "duration": 0.0159,
                "tempo": 120.0
            },
            {
                "pitch": 72,
                "velocity": 80,
                "duration": 0.0159,
                "tempo": 120.0
            },
            {
                "pitch": 72,
                "velocity": 80,
                "duration": 0.0159,
                "tempo": 120.0
            },
            {
                "pitch": 75,
                "velocity": 80,
                "duration": 0.0159,
                "tempo": 120.0
            },
            {
                "pitch": 72,
                "velocity": 80,
                "duration": 0.0182,
                "tempo": 120.0
            },
            {
                "pitch": 75,
                "velocity": 80,
                "duration": 0.0159,
                "tempo": 120.0
            },
            {
                "pitch": 77,
                "velocity": 80,
                "duration": 0.0159,
                "tempo": 120.0
            },
            {
                "pitch": 80,
                "velocity": 80,
                "duration": 0.0182,
                "tempo": 120.0
            },
            {
                "pitch": 77,
                "velocity": 80,
                "duration": 0.0159,
                "tempo": 120.0
            },
            {
                "pitch": 80,
                "velocity": 80,
                "duration": 0.0182,
                "tempo": 120.0
            },
            {
                "pitch": 67,
                "velocity": 80,
                "duration": 0.0159,
                "tempo": 120.0
            },
            {
                "pitch": 70,
                "velocity": 80,
                "duration": 0.0182,
                "tempo": 120.0
            },
            {
                "pitch": 67,
                "velocity": 80,
                "duration": 0.0159,
                "tempo": 120.0
            },
            {
                "pitch": 70,
                "velocity": 80,
                "duration": 0.0182,
                "tempo": 120.0
            },
            {
                "pitch": 71,
                "velocity": 80,
                "duration": 0.0159,
                "tempo": 120.0
            },
            {
                "pitch": 74,
                "velocity": 80,
                "duration": 0.0159,
                "tempo": 120.0
            },
            {
                "pitch": 71,
                "velocity": 80,
                "duration": 0.0182,
                "tempo": 120.0
            },
            {
                "pitch": 74,
                "velocity": 80,
                "duration": 0.0159,
                "tempo": 120.0
            },
            {
                "pitch": 74,
                "velocity": 80,
                "duration": 0.0182,
                "tempo": 120.0
            },
            {
                "pitch": 77,
                "velocity": 80,
                "duration": 0.0159,
                "tempo": 120.0
            },
            {
                "pitch": 74,
                "velocity": 80,
                "duration": 0.0159,
                "tempo": 120.0
            },
            {
                "pitch": 77,
                "velocity": 80,
                "duration": 0.0182,
                "tempo": 120.0
            },
            {
                "pitch": 79,
                "velocity": 80,
                "duration": 0.0159,
                "tempo": 120.0
            },
            {
                "pitch": 82,
                "velocity": 80,
                "duration": 0.0182,
                "tempo": 120.0
            },
            {
                "pitch": 79,
                "velocity": 80,
                "duration": 0.0159,
                "tempo": 120.0
            },
            {
                "pitch": 82,
                "velocity": 80,
                "duration": 0.0159,
                "tempo": 120.0
            },
            {
                "pitch": 67,
                "velocity": 80,
                "duration": 0.0159,
                "tempo": 120.0
            },
            {
                "pitch": 70,
                "velocity": 80,
                "duration": 0.0182,
                "tempo": 120.0
            },
            {
                "pitch": 67,
                "velocity": 80,
                "duration": 0.0159,
                "tempo": 120.0
            },
            {
                "pitch": 70,
                "velocity": 80,
                "duration": 0.0182,
                "tempo": 120.0
            },
            {
                "pitch": 71,
                "velocity": 80,
                "duration": 0.0159,
                "tempo": 120.0
            },
            {
                "pitch": 74,
                "velocity": 80,
                "duration": 0.0159,
                "tempo": 120.0
            },
            {
                "pitch": 71,
                "velocity": 80,
                "duration": 0.0182,
                "tempo": 120.0
            },
            {
                "pitch": 74,
                "velocity": 80,
                "duration": 0.0159,
                "tempo": 120.0
            },
            {
                "pitch": 76,
                "velocity": 80,
                "duration": 0.0182,
                "tempo": 120.0
            },
            {
                "pitch": 79,
                "velocity": 80,
                "duration": 0.0159,
                "tempo": 120.0
            },
            {
                "pitch": 76,
                "velocity": 80,
                "duration": 0.0159,
                "tempo": 120.0
            },
            {
                "pitch": 79,
                "velocity": 80,
                "duration": 0.0182,
                "tempo": 120.0
            },
            {
                "pitch": 79,
                "velocity": 80,
                "duration": 0.0159,
                "tempo": 120.0
            },
            {
                "pitch": 82,
                "velocity": 80,
                "duration": 0.0159,
                "tempo": 120.0
            },
            {
                "pitch": 79,
                "velocity": 80,
                "duration": 0.0159,
                "tempo": 120.0
            },
            {
                "pitch": 82,
                "velocity": 80,
                "duration": 0.0159,
                "tempo": 120.0
            },
            {
                "pitch": 64,
                "velocity": 80,
                "duration": 0.0159,
                "tempo": 120.0
            },
            {
                "pitch": 67,
                "velocity": 80,
                "duration": 0.0182,
                "tempo": 120.0
            },
            {
                "pitch": 64,
                "velocity": 80,
                "duration": 0.0182,
                "tempo": 120.0
            },
            {
                "pitch": 67,
                "velocity": 80,
                "duration": 0.0159,
                "tempo": 120.0
            },
            {
                "pitch": 69,
                "velocity": 80,
                "duration": 0.0182,
                "tempo": 120.0
            },
            {
                "pitch": 72,
                "velocity": 80,
                "duration": 0.0159,
                "tempo": 120.0
            },
            {
                "pitch": 69,
                "velocity": 80,
                "duration": 0.0182,
                "tempo": 120.0
            },
            {
                "pitch": 72,
                "velocity": 80,
                "duration": 0.0159,
                "tempo": 120.0
            },
            {
                "pitch": 72,
                "velocity": 80,
                "duration": 0.0159,
                "tempo": 120.0
            },
            {
                "pitch": 75,
                "velocity": 80,
                "duration": 0.0182,
                "tempo": 120.0
            },
            {
                "pitch": 72,
                "velocity": 80,
                "duration": 0.0159,
                "tempo": 120.0
            },
            {
                "pitch": 75,
                "velocity": 80,
                "duration": 0.0159,
                "tempo": 120.0
            },
            {
                "pitch": 76,
                "velocity": 80,
                "duration": 0.0182,
                "tempo": 120.0
            },
            {
                "pitch": 79,
                "velocity": 80,
                "duration": 0.0159,
                "tempo": 120.0
            },
            {
                "pitch": 76,
                "velocity": 80,
                "duration": 0.0182,
                "tempo": 120.0
            },
            {
                "pitch": 79,
                "velocity": 80,
                "duration": 0.0159,
                "tempo": 120.0
            },
            {
                "pitch": 65,
                "velocity": 80,
                "duration": 0.0159,
                "tempo": 120.0
            },
            {
                "pitch": 68,
                "velocity": 80,
                "duration": 0.0159,
                "tempo": 120.0
            },
            {
                "pitch": 65,
                "velocity": 80,
                "duration": 0.0182,
                "tempo": 120.0
            },
            {
                "pitch": 68,
                "velocity": 80,
                "duration": 0.0159,
                "tempo": 120.0
            },
            {
                "pitch": 69,
                "velocity": 80,
                "duration": 0.0159,
                "tempo": 120.0
            },
            {
                "pitch": 72,
                "velocity": 80,
                "duration": 0.0182,
                "tempo": 120.0
            },
            {
                "pitch": 69,
                "velocity": 80,
                "duration": 0.0159,
                "tempo": 120.0
            },
            {
                "pitch": 72,
                "velocity": 80,
                "duration": 0.0182,
                "tempo": 120.0
            },
            {
                "pitch": 72,
                "velocity": 80,
                "duration": 0.0159,
                "tempo": 120.0
            },
            {
                "pitch": 75,
                "velocity": 80,
                "duration": 0.0159,
                "tempo": 120.0
            },
            {
                "pitch": 72,
                "velocity": 80,
                "duration": 0.0182,
                "tempo": 120.0
            },
            {
                "pitch": 75,
                "velocity": 80,
                "duration": 0.0159,
                "tempo": 120.0
            },
            {
                "pitch": 77,
                "velocity": 80,
                "duration": 0.0182,
                "tempo": 120.0
            },
            {
                "pitch": 80,
                "velocity": 80,
                "duration": 0.0159,
                "tempo": 120.0
            },
            {
                "pitch": 77,
                "velocity": 80,
                "duration": 0.0159,
                "tempo": 120.0
            },
            {
                "pitch": 80,
                "velocity": 80,
                "duration": 0.0182,
                "tempo": 120.0
            },
            {
                "pitch": 67,
                "velocity": 80,
                "duration": 0.0182,
                "tempo": 120.0
            },
            {
                "pitch": 70,
                "velocity": 80,
                "duration": 0.0159,
                "tempo": 120.0
            },
            {
                "pitch": 67,
                "velocity": 80,
                "duration": 0.0159,
                "tempo": 120.0
            },
            {
                "pitch": 70,
                "velocity": 80,
                "duration": 0.0182,
                "tempo": 120.0
            },
            {
                "pitch": 71,
                "velocity": 80,
                "duration": 0.0159,
                "tempo": 120.0
            },
            {
                "pitch": 74,
                "velocity": 80,
                "duration": 0.0182,
                "tempo": 120.0
            },
            {
                "pitch": 71,
                "velocity": 80,
                "duration": 0.0159,
                "tempo": 120.0
            },
            {
                "pitch": 74,
                "velocity": 80,
                "duration": 0.0159,
                "tempo": 120.0
            },
            {
                "pitch": 74,
                "velocity": 80,
                "duration": 0.0182,
                "tempo": 120.0
            },
            {
                "pitch": 77,
                "velocity": 80,
                "duration": 0.0159,
                "tempo": 120.0
            },
            {
                "pitch": 74,
                "velocity": 80,
                "duration": 0.0182,
                "tempo": 120.0
            },
            {
                "pitch": 77,
                "velocity": 80,
                "duration": 0.0159,
                "tempo": 120.0
            },
            {
                "pitch": 79,
                "velocity": 80,
                "duration": 0.0182,
                "tempo": 120.0
            },
            {
                "pitch": 82,
                "velocity": 80,
                "duration": 0.0159,
                "tempo": 120.0
            },
            {
                "pitch": 79,
                "velocity": 80,
                "duration": 0.0159,
                "tempo": 120.0
            },
            {
                "pitch": 82,
                "velocity": 80,
                "duration": 0.0182,
                "tempo": 120.0
            },
            {
                "pitch": 69,
                "velocity": 80,
                "duration": 0.0182,
                "tempo": 120.0
            },
            {
                "pitch": 72,
                "velocity": 80,
                "duration": 0.0159,
                "tempo": 120.0
            },
            {
                "pitch": 69,
                "velocity": 80,
                "duration": 0.0159,
                "tempo": 120.0
            },
            {
                "pitch": 72,
                "velocity": 80,
                "duration": 0.0182,
                "tempo": 120.0
            },
            {
                "pitch": 73,
                "velocity": 80,
                "duration": 0.0159,
                "tempo": 120.0
            },
            {
                "pitch": 76,
                "velocity": 80,
                "duration": 0.0159,
                "tempo": 120.0
            },
            {
                "pitch": 73,
                "velocity": 80,
                "duration": 0.0159,
                "tempo": 120.0
            },
            {
                "pitch": 76,
                "velocity": 80,
                "duration": 0.0159,
                "tempo": 120.0
            },
            {
                "pitch": 76,
                "velocity": 80,
                "duration": 0.0182,
                "tempo": 120.0
            },
            {
                "pitch": 79,
                "velocity": 80,
                "duration": 0.0159,
                "tempo": 120.0
            },
            {
                "pitch": 76,
                "velocity": 80,
                "duration": 0.0159,
                "tempo": 120.0
            },
            {
                "pitch": 79,
                "velocity": 80,
                "duration": 0.0182,
                "tempo": 120.0
            },
            {
                "pitch": 81,
                "velocity": 80,
                "duration": 0.0159,
                "tempo": 120.0
            },
            {
                "pitch": 84,
                "velocity": 80,
                "duration": 0.0182,
                "tempo": 120.0
            },
            {
                "pitch": 81,
                "velocity": 80,
                "duration": 0.0159,
                "tempo": 120.0
            },
            {
                "pitch": 84,
                "velocity": 80,
                "duration": 0.0159,
                "tempo": 120.0
            },
            {
                "pitch": 69,
                "velocity": 80,
                "duration": 0.0159,
                "tempo": 120.0
            },
            {
                "pitch": 72,
                "velocity": 80,
                "duration": 0.0182,
                "tempo": 120.0
            },
            {
                "pitch": 69,
                "velocity": 80,
                "duration": 0.0159,
                "tempo": 120.0
            },
            {
                "pitch": 72,
                "velocity": 80,
                "duration": 0.0159,
                "tempo": 120.0
            },
            {
                "pitch": 73,
                "velocity": 80,
                "duration": 0.0182,
                "tempo": 120.0
            },
            {
                "pitch": 76,
                "velocity": 80,
                "duration": 0.0159,
                "tempo": 120.0
            },
            {
                "pitch": 73,
                "velocity": 80,
                "duration": 0.0182,
                "tempo": 120.0
            },
            {
                "pitch": 76,
                "velocity": 80,
                "duration": 0.0159,
                "tempo": 120.0
            },
            {
                "pitch": 76,
                "velocity": 80,
                "duration": 0.0159,
                "tempo": 120.0
            },
            {
                "pitch": 79,
                "velocity": 80,
                "duration": 0.0182,
                "tempo": 120.0
            },
            {
                "pitch": 76,
                "velocity": 80,
                "duration": 0.0159,
                "tempo": 120.0
            },
            {
                "pitch": 79,
                "velocity": 80,
                "duration": 0.0182,
                "tempo": 120.0
            },
            {
                "pitch": 81,
                "velocity": 80,
                "duration": 0.0159,
                "tempo": 120.0
            },
            {
                "pitch": 84,
                "velocity": 80,
                "duration": 0.0182,
                "tempo": 120.0
            },
            {
                "pitch": 81,
                "velocity": 80,
                "duration": 0.0159,
                "tempo": 120.0
            },
            {
                "pitch": 84,
                "velocity": 80,
                "duration": 0.0159,
                "tempo": 120.0
            }
        ],
        "Electric Guitar (clean)": [
            {
                "pitch": 60,
                "velocity": 4,
                "duration": 0.0136,
                "tempo": 120.0
            },
            {
                "pitch": 44,
                "velocity": 4,
                "duration": 0.3886,
                "tempo": 120.0
            },
            {
                "pitch": 39,
                "velocity": 4,
                "duration": 0.0136,
                "tempo": 120.0
            },
            {
                "pitch": 39,
                "velocity": 4,
                "duration": 0.0159,
                "tempo": 120.0
            },
            {
                "pitch": 46,
                "velocity": 4,
                "duration": 0.1386,
                "tempo": 120.0
            },
            {
                "pitch": 30,
                "velocity": 4,
                "duration": 0.4159,
                "tempo": 120.0
            },
            {
                "pitch": 54,
                "velocity": 4,
                "duration": 0.1,
                "tempo": 120.0
            },
            {
                "pitch": 40,
                "velocity": 4,
                "duration": 0.0341,
                "tempo": 120.0
            },
            {
                "pitch": 16,
                "velocity": 4,
                "duration": 0.4,
                "tempo": 120.0
            },
            {
                "pitch": 32,
                "velocity": 4,
                "duration": 0.1364,
                "tempo": 120.0
            },
            {
                "pitch": 16,
                "velocity": 4,
                "duration": 0.4068,
                "tempo": 120.0
            },
            {
                "pitch": 40,
                "velocity": 4,
                "duration": 0.1341,
                "tempo": 120.0
            },
            {
                "pitch": 16,
                "velocity": 4,
                "duration": 0.4023,
                "tempo": 120.0
            },
            {
                "pitch": 32,
                "velocity": 4,
                "duration": 0.1318,
                "tempo": 120.0
            },
            {
                "pitch": 16,
                "velocity": 4,
                "duration": 0.4023,
                "tempo": 120.0
            },
            {
                "pitch": 40,
                "velocity": 4,
                "duration": 0.1364,
                "tempo": 120.0
            },
            {
                "pitch": 16,
                "velocity": 4,
                "duration": 0.4068,
                "tempo": 120.0
            },
            {
                "pitch": 32,
                "velocity": 4,
                "duration": 0.1341,
                "tempo": 120.0
            },
            {
                "pitch": 16,
                "velocity": 4,
                "duration": 0.4,
                "tempo": 120.0
            },
            {
                "pitch": 40,
                "velocity": 4,
                "duration": 0.1341,
                "tempo": 120.0
            },
            {
                "pitch": 16,
                "velocity": 4,
                "duration": 0.4,
                "tempo": 120.0
            },
            {
                "pitch": 32,
                "velocity": 4,
                "duration": 0.1364,
                "tempo": 120.0
            },
            {
                "pitch": 16,
                "velocity": 4,
                "duration": 0.4091,
                "tempo": 120.0
            },
            {
                "pitch": 40,
                "velocity": 4,
                "duration": 0.1318,
                "tempo": 120.0
            },
            {
                "pitch": 16,
                "velocity": 4,
                "duration": 0.4023,
                "tempo": 120.0
            },
            {
                "pitch": 32,
                "velocity": 4,
                "duration": 0.1318,
                "tempo": 120.0
            },
            {
                "pitch": 16,
                "velocity": 4,
                "duration": 0.2023,
                "tempo": 120.0
            },
            {
                "pitch": 13,
                "velocity": 4,
                "duration": 0.2,
                "tempo": 120.0
            },
            {
                "pitch": 37,
                "velocity": 4,
                "duration": 0.1341,
                "tempo": 120.0
            },
            {
                "pitch": 13,
                "velocity": 4,
                "duration": 0.4,
                "tempo": 120.0
            },
            {
                "pitch": 29,
                "velocity": 4,
                "duration": 0.1364,
                "tempo": 120.0
            },
            {
                "pitch": 13,
                "velocity": 4,
                "duration": 0.4068,
                "tempo": 120.0
            },
            {
                "pitch": 37,
                "velocity": 4,
                "duration": 0.1341,
                "tempo": 120.0
            },
            {
                "pitch": 13,
                "velocity": 4,
                "duration": 0.4023,
                "tempo": 120.0
            },
            {
                "pitch": 29,
                "velocity": 4,
                "duration": 0.1341,
                "tempo": 120.0
            },
            {
                "pitch": 13,
                "velocity": 4,
                "duration": 0.4091,
                "tempo": 120.0
            },
            {
                "pitch": 37,
                "velocity": 4,
                "duration": 0.1341,
                "tempo": 120.0
            },
            {
                "pitch": 13,
                "velocity": 4,
                "duration": 0.4,
                "tempo": 120.0
            },
            {
                "pitch": 29,
                "velocity": 4,
                "duration": 0.1341,
                "tempo": 120.0
            },
            {
                "pitch": 13,
                "velocity": 4,
                "duration": 0.25,
                "tempo": 120.0
            },
            {
                "pitch": 47,
                "velocity": 4,
                "duration": 0.15,
                "tempo": 120.0
            },
            {
                "pitch": 70,
                "velocity": 4,
                "duration": 0.1341,
                "tempo": 120.0
            },
            {
                "pitch": 46,
                "velocity": 4,
                "duration": 0.4,
                "tempo": 120.0
            },
            {
                "pitch": 62,
                "velocity": 4,
                "duration": 0.1364,
                "tempo": 120.0
            },
            {
                "pitch": 46,
                "velocity": 4,
                "duration": 0.4068,
                "tempo": 120.0
            },
            {
                "pitch": 70,
                "velocity": 4,
                "duration": 0.1341,
                "tempo": 120.0
            },
            {
                "pitch": 46,
                "velocity": 4,
                "duration": 0.15,
                "tempo": 120.0
            },
            {
                "pitch": 15,
                "velocity": 4,
                "duration": 0.2523,
                "tempo": 120.0
            },
            {
                "pitch": 31,
                "velocity": 4,
                "duration": 0.1318,
                "tempo": 120.0
            },
            {
                "pitch": 15,
                "velocity": 4,
                "duration": 0.4023,
                "tempo": 120.0
            },
            {
                "pitch": 39,
                "velocity": 4,
                "duration": 0.1364,
                "tempo": 120.0
            },
            {
                "pitch": 15,
                "velocity": 4,
                "duration": 0.4068,
                "tempo": 120.0
            },
            {
                "pitch": 29,
                "velocity": 4,
                "duration": 0.1341,
                "tempo": 120.0
            },
            {
                "pitch": 13,
                "velocity": 4,
                "duration": 0.4,
                "tempo": 120.0
            },
            {
                "pitch": 39,
                "velocity": 4,
                "duration": 0.1341,
                "tempo": 120.0
            },
            {
                "pitch": 15,
                "velocity": 4,
                "duration": 0.4,
                "tempo": 120.0
            },
            {
                "pitch": 31,
                "velocity": 4,
                "duration": 0.1364,
                "tempo": 120.0
            },
            {
                "pitch": 25,
                "velocity": 4,
                "duration": 0.4091,
                "tempo": 120.0
            },
            {
                "pitch": 49,
                "velocity": 4,
                "duration": 0.1318,
                "tempo": 120.0
            },
            {
                "pitch": 25,
                "velocity": 4,
                "duration": 0.4023,
                "tempo": 120.0
            },
            {
                "pitch": 40,
                "velocity": 4,
                "duration": 0.2659,
                "tempo": 120.0
            },
            {
                "pitch": 33,
                "velocity": 4,
                "duration": 0.2682,
                "tempo": 120.0
            },
            {
                "pitch": 42,
                "velocity": 4,
                "duration": 0.1364,
                "tempo": 120.0
            },
            {
                "pitch": 25,
                "velocity": 4,
                "duration": 0.1364,
                "tempo": 120.0
            },
            {
                "pitch": 33,
                "velocity": 4,
                "duration": 0.2705,
                "tempo": 120.0
            },
            {
                "pitch": 42,
                "velocity": 4,
                "duration": 0.1341,
                "tempo": 120.0
            },
            {
                "pitch": 25,
                "velocity": 4,
                "duration": 0.4,
                "tempo": 120.0
            },
            {
                "pitch": 49,
                "velocity": 4,
                "duration": 0.1364,
                "tempo": 120.0
            },
            {
                "pitch": 25,
                "velocity": 4,
                "duration": 0.4091,
                "tempo": 120.0
            },
            {
                "pitch": 40,
                "velocity": 4,
                "duration": 0.2659,
                "tempo": 120.0
            },
            {
                "pitch": 33,
                "velocity": 4,
                "duration": 0.2682,
                "tempo": 120.0
            },
            {
                "pitch": 42,
                "velocity": 4,
                "duration": 0.1341,
                "tempo": 120.0
            },
            {
                "pitch": 25,
                "velocity": 4,
                "duration": 0.1318,
                "tempo": 120.0
            },
            {
                "pitch": 33,
                "velocity": 4,
                "duration": 0.2682,
                "tempo": 120.0
            },
            {
                "pitch": 42,
                "velocity": 4,
                "duration": 0.0523,
                "tempo": 120.0
            },
            {
                "pitch": 59,
                "velocity": 4,
                "duration": 0.0159,
                "tempo": 120.0
            },
            {
                "pitch": 29,
                "velocity": 4,
                "duration": 0.0682,
                "tempo": 120.0
            },
            {
                "pitch": 13,
                "velocity": 4,
                "duration": 0.4068,
                "tempo": 120.0
            },
            {
                "pitch": 37,
                "velocity": 4,
                "duration": 0.1341,
                "tempo": 120.0
            },
            {
                "pitch": 13,
                "velocity": 4,
                "duration": 0.4,
                "tempo": 120.0
            },
            {
                "pitch": 29,
                "velocity": 4,
                "duration": 0.5364,
                "tempo": 120.0
            },
            {
                "pitch": 54,
                "velocity": 4,
                "duration": 0.1318,
                "tempo": 120.0
            },
            {
                "pitch": 30,
                "velocity": 4,
                "duration": 0.4023,
                "tempo": 120.0
            },
            {
                "pitch": 37,
                "velocity": 4,
                "duration": 0.1364,
                "tempo": 120.0
            },
            {
                "pitch": 21,
                "velocity": 4,
                "duration": 0.4068,
                "tempo": 120.0
            },
            {
                "pitch": 45,
                "velocity": 4,
                "duration": 0.1341,
                "tempo": 120.0
            },
            {
                "pitch": 21,
                "velocity": 4,
                "duration": 0.4,
                "tempo": 120.0
            },
            {
                "pitch": 37,
                "velocity": 4,
                "duration": 0.1364,
                "tempo": 120.0
            },
            {
                "pitch": 21,
                "velocity": 4,
                "duration": 0.4091,
                "tempo": 120.0
            },
            {
                "pitch": 45,
                "velocity": 4,
                "duration": 0.1318,
                "tempo": 120.0
            },
            {
                "pitch": 21,
                "velocity": 4,
                "duration": 0.4023,
                "tempo": 120.0
            },
            {
                "pitch": 37,
                "velocity": 4,
                "duration": 0.1318,
                "tempo": 120.0
            },
            {
                "pitch": 21,
                "velocity": 4,
                "duration": 0.4023,
                "tempo": 120.0
            },
            {
                "pitch": 45,
                "velocity": 4,
                "duration": 0.1364,
                "tempo": 120.0
            },
            {
                "pitch": 21,
                "velocity": 4,
                "duration": 0.4068,
                "tempo": 120.0
            },
            {
                "pitch": 37,
                "velocity": 4,
                "duration": 0.1341,
                "tempo": 120.0
            },
            {
                "pitch": 21,
                "velocity": 4,
                "duration": 0.4,
                "tempo": 120.0
            },
            {
                "pitch": 45,
                "velocity": 4,
                "duration": 0.1341,
                "tempo": 120.0
            },
            {
                "pitch": 21,
                "velocity": 4,
                "duration": 0.4,
                "tempo": 120.0
            },
            {
                "pitch": 37,
                "velocity": 4,
                "duration": 0.1341,
                "tempo": 120.0
            },
            {
                "pitch": 21,
                "velocity": 4,
                "duration": 0.2841,
                "tempo": 120.0
            },
            {
                "pitch": 24,
                "velocity": 4,
                "duration": 0.1182,
                "tempo": 120.0
            },
            {
                "pitch": 47,
                "velocity": 4,
                "duration": 0.1341,
                "tempo": 120.0
            },
            {
                "pitch": 23,
                "velocity": 4,
                "duration": 0.4091,
                "tempo": 120.0
            },
            {
                "pitch": 39,
                "velocity": 4,
                "duration": 0.1341,
                "tempo": 120.0
            },
            {
                "pitch": 23,
                "velocity": 4,
                "duration": 0.4,
                "tempo": 120.0
            },
            {
                "pitch": 47,
                "velocity": 4,
                "duration": 0.1341,
                "tempo": 120.0
            },
            {
                "pitch": 23,
                "velocity": 4,
                "duration": 0.4,
                "tempo": 120.0
            },
            {
                "pitch": 39,
                "velocity": 4,
                "duration": 0.1364,
                "tempo": 120.0
            },
            {
                "pitch": 23,
                "velocity": 4,
                "duration": 0.4068,
                "tempo": 120.0
            },
            {
                "pitch": 47,
                "velocity": 4,
                "duration": 0.1341,
                "tempo": 120.0
            },
            {
                "pitch": 23,
                "velocity": 4,
                "duration": 0.4023,
                "tempo": 120.0
            },
            {
                "pitch": 39,
                "velocity": 4,
                "duration": 0.1341,
                "tempo": 120.0
            },
            {
                "pitch": 23,
                "velocity": 4,
                "duration": 0.4091,
                "tempo": 120.0
            },
            {
                "pitch": 47,
                "velocity": 4,
                "duration": 0.1341,
                "tempo": 120.0
            },
            {
                "pitch": 23,
                "velocity": 4,
                "duration": 0.4,
                "tempo": 120.0
            },
            {
                "pitch": 39,
                "velocity": 4,
                "duration": 0.1341,
                "tempo": 120.0
            },
            {
                "pitch": 23,
                "velocity": 4,
                "duration": 0.4,
                "tempo": 120.0
            },
            {
                "pitch": 47,
                "velocity": 4,
                "duration": 0.1364,
                "tempo": 120.0
            },
            {
                "pitch": 23,
                "velocity": 4,
                "duration": 0.2045,
                "tempo": 120.0
            },
            {
                "pitch": 72,
                "velocity": 4,
                "duration": 0.2023,
                "tempo": 120.0
            },
            {
                "pitch": 87,
                "velocity": 4,
                "duration": 0.1341,
                "tempo": 120.0
            },
            {
                "pitch": 71,
                "velocity": 4,
                "duration": 0.3341,
                "tempo": 120.0
            },
            {
                "pitch": 77,
                "velocity": 4,
                "duration": 0.0682,
                "tempo": 120.0
            },
            {
                "pitch": 36,
                "velocity": 4,
                "duration": 0.1318,
                "tempo": 120.0
            },
            {
                "pitch": 76,
                "velocity": 4,
                "duration": 0.4023,
                "tempo": 120.0
            },
            {
                "pitch": 27,
                "velocity": 4,
                "duration": 0.1364,
                "tempo": 120.0
            },
            {
                "pitch": 76,
                "velocity": 4,
                "duration": 0.1364,
                "tempo": 120.0
            },
            {
                "pitch": 13,
                "velocity": 4,
                "duration": 0.2705,
                "tempo": 120.0
            },
            {
                "pitch": 36,
                "velocity": 4,
                "duration": 0.1341,
                "tempo": 120.0
            },
            {
                "pitch": 76,
                "velocity": 4,
                "duration": 0.1341,
                "tempo": 120.0
            },
            {
                "pitch": 13,
                "velocity": 4,
                "duration": 0.2659,
                "tempo": 120.0
            },
            {
                "pitch": 27,
                "velocity": 4,
                "duration": 0.0182,
                "tempo": 120.0
            },
            {
                "pitch": 43,
                "velocity": 4,
                "duration": 0.0318,
                "tempo": 120.0
            },
            {
                "pitch": 79,
                "velocity": 4,
                "duration": 0.0841,
                "tempo": 120.0
            },
            {
                "pitch": 63,
                "velocity": 4,
                "duration": 0.4,
                "tempo": 120.0
            },
            {
                "pitch": 87,
                "velocity": 4,
                "duration": 0.1341,
                "tempo": 120.0
            },
            {
                "pitch": 63,
                "velocity": 4,
                "duration": 0.4023,
                "tempo": 120.0
            },
            {
                "pitch": 79,
                "velocity": 4,
                "duration": 0.1341,
                "tempo": 120.0
            },
            {
                "pitch": 63,
                "velocity": 4,
                "duration": 0.4091,
                "tempo": 120.0
            },
            {
                "pitch": 87,
                "velocity": 4,
                "duration": 0.1341,
                "tempo": 120.0
            },
            {
                "pitch": 63,
                "velocity": 4,
                "duration": 0.4,
                "tempo": 120.0
            },
            {
                "pitch": 78,
                "velocity": 4,
                "duration": 0.2659,
                "tempo": 120.0
            },
            {
                "pitch": 71,
                "velocity": 4,
                "duration": 0.2682,
                "tempo": 120.0
            },
            {
                "pitch": 79,
                "velocity": 4,
                "duration": 0.1364,
                "tempo": 120.0
            },
            {
                "pitch": 63,
                "velocity": 4,
                "duration": 0.1364,
                "tempo": 120.0
            },
            {
                "pitch": 71,
                "velocity": 4,
                "duration": 0.2705,
                "tempo": 120.0
            },
            {
                "pitch": 79,
                "velocity": 4,
                "duration": 0.1341,
                "tempo": 120.0
            },
            {
                "pitch": 63,
                "velocity": 4,
                "duration": 0.4023,
                "tempo": 120.0
            },
            {
                "pitch": 87,
                "velocity": 4,
                "duration": 0.1318,
                "tempo": 120.0
            },
            {
                "pitch": 63,
                "velocity": 4,
                "duration": 0.4023,
                "tempo": 120.0
            },
            {
                "pitch": 79,
                "velocity": 4,
                "duration": 0.1364,
                "tempo": 120.0
            },
            {
                "pitch": 63,
                "velocity": 4,
                "duration": 0.3386,
                "tempo": 120.0
            },
            {
                "pitch": 45,
                "velocity": 4,
                "duration": 0.0682,
                "tempo": 120.0
            },
            {
                "pitch": 69,
                "velocity": 4,
                "duration": 0.1341,
                "tempo": 120.0
            },
            {
                "pitch": 45,
                "velocity": 4,
                "duration": 0.4,
                "tempo": 120.0
            },
            {
                "pitch": 61,
                "velocity": 4,
                "duration": 0.1364,
                "tempo": 120.0
            },
            {
                "pitch": 45,
                "velocity": 4,
                "duration": 0.4068,
                "tempo": 120.0
            },
            {
                "pitch": 69,
                "velocity": 4,
                "duration": 0.1341,
                "tempo": 120.0
            },
            {
                "pitch": 45,
                "velocity": 4,
                "duration": 0.4023,
                "tempo": 120.0
            },
            {
                "pitch": 61,
                "velocity": 4,
                "duration": 0.1318,
                "tempo": 120.0
            },
            {
                "pitch": 45,
                "velocity": 4,
                "duration": 0.4023,
                "tempo": 120.0
            },
            {
                "pitch": 69,
                "velocity": 4,
                "duration": 0.1318,
                "tempo": 120.0
            },
            {
                "pitch": 45,
                "velocity": 4,
                "duration": 0.4023,
                "tempo": 120.0
            },
            {
                "pitch": 61,
                "velocity": 4,
                "duration": 0.1364,
                "tempo": 120.0
            },
            {
                "pitch": 45,
                "velocity": 4,
                "duration": 0.4068,
                "tempo": 120.0
            },
            {
                "pitch": 69,
                "velocity": 4,
                "duration": 0.1341,
                "tempo": 120.0
            },
            {
                "pitch": 45,
                "velocity": 4,
                "duration": 0.4,
                "tempo": 120.0
            },
            {
                "pitch": 61,
                "velocity": 4,
                "duration": 0.1364,
                "tempo": 120.0
            },
            {
                "pitch": 45,
                "velocity": 4,
                "duration": 0.4091,
                "tempo": 120.0
            },
            {
                "pitch": 69,
                "velocity": 4,
                "duration": 0.1318,
                "tempo": 120.0
            },
            {
                "pitch": 45,
                "velocity": 4,
                "duration": 0.4023,
                "tempo": 120.0
            },
            {
                "pitch": 61,
                "velocity": 4,
                "duration": 0.1341,
                "tempo": 120.0
            },
            {
                "pitch": 45,
                "velocity": 4,
                "duration": 0.4,
                "tempo": 120.0
            },
            {
                "pitch": 69,
                "velocity": 4,
                "duration": 0.1364,
                "tempo": 120.0
            },
            {
                "pitch": 44,
                "velocity": 4,
                "duration": 0.05,
                "tempo": 120.0
            },
            {
                "pitch": 15,
                "velocity": 4,
                "duration": 0.3568,
                "tempo": 120.0
            },
            {
                "pitch": 58,
                "velocity": 4,
                "duration": 0.1341,
                "tempo": 120.0
            },
            {
                "pitch": 42,
                "velocity": 4,
                "duration": 0.4,
                "tempo": 120.0
            },
            {
                "pitch": 107,
                "velocity": 4,
                "duration": 0.1341,
                "tempo": 120.0
            },
            {
                "pitch": 83,
                "velocity": 4,
                "duration": 0.4,
                "tempo": 120.0
            },
            {
                "pitch": 99,
                "velocity": 4,
                "duration": 0.1341,
                "tempo": 120.0
            },
            {
                "pitch": 83,
                "velocity": 4,
                "duration": 0.1341,
                "tempo": 120.0
            },
            {
                "pitch": 84,
                "velocity": 4,
                "duration": 0.2682,
                "tempo": 120.0
            },
            {
                "pitch": 107,
                "velocity": 4,
                "duration": 0.1364,
                "tempo": 120.0
            },
            {
                "pitch": 83,
                "velocity": 4,
                "duration": 0.1341,
                "tempo": 120.0
            },
            {
                "pitch": 84,
                "velocity": 4,
                "duration": 0.2727,
                "tempo": 120.0
            },
            {
                "pitch": 99,
                "velocity": 4,
                "duration": 0.1341,
                "tempo": 120.0
            },
            {
                "pitch": 83,
                "velocity": 4,
                "duration": 0.4,
                "tempo": 120.0
            },
            {
                "pitch": 107,
                "velocity": 4,
                "duration": 0.1341,
                "tempo": 120.0
            },
            {
                "pitch": 83,
                "velocity": 4,
                "duration": 0.4,
                "tempo": 120.0
            },
            {
                "pitch": 99,
                "velocity": 4,
                "duration": 0.1364,
                "tempo": 120.0
            },
            {
                "pitch": 83,
                "velocity": 4,
                "duration": 0.1364,
                "tempo": 120.0
            },
            {
                "pitch": 84,
                "velocity": 4,
                "duration": 0.2727,
                "tempo": 120.0
            },
            {
                "pitch": 107,
                "velocity": 4,
                "duration": 0.1318,
                "tempo": 120.0
            },
            {
                "pitch": 83,
                "velocity": 4,
                "duration": 0.1341,
                "tempo": 120.0
            },
            {
                "pitch": 84,
                "velocity": 4,
                "duration": 0.2682,
                "tempo": 120.0
            },
            {
                "pitch": 99,
                "velocity": 4,
                "duration": 0.1364,
                "tempo": 120.0
            },
            {
                "pitch": 83,
                "velocity": 4,
                "duration": 0.4068,
                "tempo": 120.0
            },
            {
                "pitch": 107,
                "velocity": 4,
                "duration": 0.05,
                "tempo": 120.0
            },
            {
                "pitch": 66,
                "velocity": 4,
                "duration": 0.0841,
                "tempo": 120.0
            },
            {
                "pitch": 42,
                "velocity": 4,
                "duration": 0.4,
                "tempo": 120.0
            },
            {
                "pitch": 58,
                "velocity": 4,
                "duration": 0.1341,
                "tempo": 120.0
            },
            {
                "pitch": 43,
                "velocity": 4,
                "duration": 0.4,
                "tempo": 120.0
            },
            {
                "pitch": 67,
                "velocity": 4,
                "duration": 0.1364,
                "tempo": 120.0
            },
            {
                "pitch": 43,
                "velocity": 4,
                "duration": 0.4091,
                "tempo": 120.0
            },
            {
                "pitch": 59,
                "velocity": 4,
                "duration": 0.1318,
                "tempo": 120.0
            },
            {
                "pitch": 43,
                "velocity": 4,
                "duration": 0.4023,
                "tempo": 120.0
            },
            {
                "pitch": 67,
                "velocity": 4,
                "duration": 0.1318,
                "tempo": 120.0
            },
            {
                "pitch": 43,
                "velocity": 4,
                "duration": 0.4023,
                "tempo": 120.0
            },
            {
                "pitch": 59,
                "velocity": 4,
                "duration": 0.1341,
                "tempo": 120.0
            },
            {
                "pitch": 43,
                "velocity": 4,
                "duration": 0.4,
                "tempo": 120.0
            },
            {
                "pitch": 67,
                "velocity": 4,
                "duration": 0.1364,
                "tempo": 120.0
            },
            {
                "pitch": 43,
                "velocity": 4,
                "duration": 0.4068,
                "tempo": 120.0
            },
            {
                "pitch": 58,
                "velocity": 4,
                "duration": 0.2682,
                "tempo": 120.0
            },
            {
                "pitch": 51,
                "velocity": 4,
                "duration": 0.2682,
                "tempo": 120.0
            },
            {
                "pitch": 59,
                "velocity": 4,
                "duration": 0.1341,
                "tempo": 120.0
            },
            {
                "pitch": 43,
                "velocity": 4,
                "duration": 0.1364,
                "tempo": 120.0
            },
            {
                "pitch": 53,
                "velocity": 4,
                "duration": 0.2727,
                "tempo": 120.0
            },
            {
                "pitch": 58,
                "velocity": 4,
                "duration": 0.6341,
                "tempo": 120.0
            },
            {
                "pitch": 50,
                "velocity": 4,
                "duration": 0.9773,
                "tempo": 120.0
            },
            {
                "pitch": 43,
                "velocity": 4,
                "duration": 0.1341,
                "tempo": 120.0
            },
            {
                "pitch": 35,
                "velocity": 4,
                "duration": 0.2682,
                "tempo": 120.0
            },
            {
                "pitch": 51,
                "velocity": 4,
                "duration": 1.7455,
                "tempo": 120.0
            },
            {
                "pitch": 43,
                "velocity": 4,
                "duration": 0.1341,
                "tempo": 120.0
            },
            {
                "pitch": 35,
                "velocity": 4,
                "duration": 0.2659,
                "tempo": 120.0
            },
            {
                "pitch": 51,
                "velocity": 4,
                "duration": 0.3227,
                "tempo": 120.0
            },
            {
                "pitch": 13,
                "velocity": 4,
                "duration": 1.425,
                "tempo": 120.0
            },
            {
                "pitch": 70,
                "velocity": 4,
                "duration": 0.1341,
                "tempo": 120.0
            },
            {
                "pitch": 62,
                "velocity": 4,
                "duration": 0.2659,
                "tempo": 120.0
            },
            {
                "pitch": 14,
                "velocity": 4,
                "duration": 0.5091,
                "tempo": 120.0
            },
            {
                "pitch": 27,
                "velocity": 4,
                "duration": 1.1045,
                "tempo": 120.0
            },
            {
                "pitch": 71,
                "velocity": 4,
                "duration": 0.1341,
                "tempo": 120.0
            },
            {
                "pitch": 64,
                "velocity": 4,
                "duration": 0.1364,
                "tempo": 120.0
            },
            {
                "pitch": 56,
                "velocity": 4,
                "duration": 0.1864,
                "tempo": 120.0
            },
            {
                "pitch": 39,
                "velocity": 4,
                "duration": 0.0841,
                "tempo": 120.0
            },
            {
                "pitch": 55,
                "velocity": 4,
                "duration": 1.1545,
                "tempo": 120.0
            },
            {
                "pitch": 30,
                "velocity": 4,
                "duration": 0.5932,
                "tempo": 120.0
            },
            {
                "pitch": 23,
                "velocity": 4,
                "duration": 0.0341,
                "tempo": 120.0
            },
            {
                "pitch": 50,
                "velocity": 4,
                "duration": 0.1,
                "tempo": 120.0
            },
            {
                "pitch": 42,
                "velocity": 4,
                "duration": 0.2682,
                "tempo": 120.0
            },
            {
                "pitch": 58,
                "velocity": 4,
                "duration": 1.7455,
                "tempo": 120.0
            },
            {
                "pitch": 51,
                "velocity": 4,
                "duration": 0.1364,
                "tempo": 120.0
            },
            {
                "pitch": 43,
                "velocity": 4,
                "duration": 0.2727,
                "tempo": 120.0
            },
            {
                "pitch": 59,
                "velocity": 4,
                "duration": 1.7477,
                "tempo": 120.0
            },
            {
                "pitch": 51,
                "velocity": 4,
                "duration": 0.0159,
                "tempo": 120.0
            },
            {
                "pitch": 70,
                "velocity": 4,
                "duration": 0.1182,
                "tempo": 120.0
            },
            {
                "pitch": 62,
                "velocity": 4,
                "duration": 0.2659,
                "tempo": 120.0
            },
            {
                "pitch": 14,
                "velocity": 4,
                "duration": 0.2682,
                "tempo": 120.0
            },
            {
                "pitch": 62,
                "velocity": 4,
                "duration": 0.4,
                "tempo": 120.0
            },
            {
                "pitch": 22,
                "velocity": 4,
                "duration": 0.1364,
                "tempo": 120.0
            },
            {
                "pitch": 62,
                "velocity": 4,
                "duration": 0.4091,
                "tempo": 120.0
            },
            {
                "pitch": 13,
                "velocity": 4,
                "duration": 0.2659,
                "tempo": 120.0
            },
            {
                "pitch": 70,
                "velocity": 4,
                "duration": 0.2682,
                "tempo": 120.0
            },
            {
                "pitch": 14,
                "velocity": 4,
                "duration": 0.1341,
                "tempo": 120.0
            },
            {
                "pitch": 62,
                "velocity": 4,
                "duration": 0.1318,
                "tempo": 120.0
            },
            {
                "pitch": 70,
                "velocity": 4,
                "duration": 0.2523,
                "tempo": 120.0
            }
        ]
    }
}