{
    "track_id": "Ys (FM) - 09 -  Beat of the Terror",
    "mood": "angry",
    "instruments": {
        "Church Organ": [
            {
                "pitch": 68,
                "velocity": 64,
                "duration": 0.1182,
                "tempo": 120.0
            },
            {
                "pitch": 70,
                "velocity": 64,
                "duration": 0.1182,
                "tempo": 120.0
            },
            {
                "pitch": 71,
                "velocity": 64,
                "duration": 1.8614,
                "tempo": 120.0
            },
            {
                "pitch": 71,
                "velocity": 64,
                "duration": 0.1159,
                "tempo": 120.0
            },
            {
                "pitch": 73,
                "velocity": 64,
                "duration": 0.1159,
                "tempo": 120.0
            },
            {
                "pitch": 75,
                "velocity": 64,
                "duration": 2.1409,
                "tempo": 120.0
            }
        ],
        "Clarinet": [
            {
                "pitch": 56,
                "velocity": 51,
                "duration": 0.3841,
                "tempo": 120.0
            },
            {
                "pitch": 56,
                "velocity": 51,
                "duration": 0.1182,
                "tempo": 120.0
            },
            {
                "pitch": 56,
                "velocity": 51,
                "duration": 0.3841,
                "tempo": 120.0
            },
            {
                "pitch": 56,
                "velocity": 51,
                "duration": 0.1205,
                "tempo": 120.0
            },
            {
                "pitch": 56,
                "velocity": 51,
                "duration": 0.1182,
                "tempo": 120.0
            },
            {
                "pitch": 56,
                "velocity": 51,
                "duration": 0.1182,
                "tempo": 120.0
            },
            {
                "pitch": 56,
                "velocity": 51,
                "duration": 0.1159,
                "tempo": 120.0
            },
            {
                "pitch": 56,
                "velocity": 51,
                "duration": 0.3841,
                "tempo": 120.0
            },
            {
                "pitch": 56,
                "velocity": 51,
                "duration": 0.1159,
                "tempo": 120.0
            },
            {
                "pitch": 56,
                "velocity": 51,
                "duration": 0.3818,
                "tempo": 120.0
            },
            {
                "pitch": 56,
                "velocity": 51,
                "duration": 0.125,
                "tempo": 120.0
            },
            {
                "pitch": 56,
                "velocity": 51,
                "duration": 0.1182,
                "tempo": 120.0
            },
            {
                "pitch": 56,
                "velocity": 51,
                "duration": 0.1182,
                "tempo": 120.0
            },
            {
                "pitch": 56,
                "velocity": 51,
                "duration": 0.1182,
                "tempo": 120.0
            },
            {
                "pitch": 56,
                "velocity": 51,
                "duration": 0.3909,
                "tempo": 120.0
            },
            {
                "pitch": 56,
                "velocity": 51,
                "duration": 0.1205,
                "tempo": 120.0
            },
            {
                "pitch": 56,
                "velocity": 51,
                "duration": 1.3273,
                "tempo": 120.0
            },
            {
                "pitch": 56,
                "velocity": 51,
                "duration": 0.3909,
                "tempo": 120.0
            },
            {
                "pitch": 56,
                "velocity": 51,
                "duration": 0.1182,
                "tempo": 120.0
            },
            {
                "pitch": 56,
                "velocity": 51,
                "duration": 0.3795,
                "tempo": 120.0
            },
            {
                "pitch": 56,
                "velocity": 51,
                "duration": 0.1227,
                "tempo": 120.0
            },
            {
                "pitch": 56,
                "velocity": 51,
                "duration": 0.1182,
                "tempo": 120.0
            },
            {
                "pitch": 56,
                "velocity": 51,
                "duration": 0.1159,
                "tempo": 120.0
            },
            {
                "pitch": 56,
                "velocity": 51,
                "duration": 0.1159,
                "tempo": 120.0
            },
            {
                "pitch": 56,
                "velocity": 51,
                "duration": 0.3841,
                "tempo": 120.0
            },
            {
                "pitch": 56,
                "velocity": 51,
                "duration": 0.1159,
                "tempo": 120.0
            },
            {
                "pitch": 56,
                "velocity": 51,
                "duration": 0.3841,
                "tempo": 120.0
            },
            {
                "pitch": 56,
                "velocity": 51,
                "duration": 0.1205,
                "tempo": 120.0
            },
            {
                "pitch": 56,
                "velocity": 51,
                "duration": 0.1182,
                "tempo": 120.0
            },
            {
                "pitch": 56,
                "velocity": 51,
                "duration": 0.1182,
                "tempo": 120.0
            },
            {
                "pitch": 56,
                "velocity": 51,
                "duration": 0.1182,
                "tempo": 120.0
            },
            {
                "pitch": 56,
                "velocity": 51,
                "duration": 0.3795,
                "tempo": 120.0
            },
            {
                "pitch": 56,
                "velocity": 51,
                "duration": 0.1136,
                "tempo": 120.0
            },
            {
                "pitch": 56,
                "velocity": 51,
                "duration": 1.3341,
                "tempo": 120.0
            },
            {
                "pitch": 56,
                "velocity": 51,
                "duration": 0.3909,
                "tempo": 120.0
            },
            {
                "pitch": 56,
                "velocity": 51,
                "duration": 0.1205,
                "tempo": 120.0
            },
            {
                "pitch": 56,
                "velocity": 51,
                "duration": 0.3773,
                "tempo": 120.0
            },
            {
                "pitch": 56,
                "velocity": 51,
                "duration": 0.1205,
                "tempo": 120.0
            },
            {
                "pitch": 56,
                "velocity": 51,
                "duration": 0.1182,
                "tempo": 120.0
            },
            {
                "pitch": 56,
                "velocity": 51,
                "duration": 0.1182,
                "tempo": 120.0
            },
            {
                "pitch": 56,
                "velocity": 51,
                "duration": 0.1182,
                "tempo": 120.0
            },
            {
                "pitch": 56,
                "velocity": 51,
                "duration": 0.3773,
                "tempo": 120.0
            },
            {
                "pitch": 56,
                "velocity": 51,
                "duration": 0.1159,
                "tempo": 120.0
            },
            {
                "pitch": 56,
                "velocity": 51,
                "duration": 0.3841,
                "tempo": 120.0
            },
            {
                "pitch": 56,
                "velocity": 51,
                "duration": 0.1205,
                "tempo": 120.0
            },
            {
                "pitch": 56,
                "velocity": 51,
                "duration": 0.1182,
                "tempo": 120.0
            },
            {
                "pitch": 56,
                "velocity": 51,
                "duration": 0.1182,
                "tempo": 120.0
            },
            {
                "pitch": 56,
                "velocity": 51,
                "duration": 0.1182,
                "tempo": 120.0
            },
            {
                "pitch": 56,
                "velocity": 51,
                "duration": 0.3841,
                "tempo": 120.0
            },
            {
                "pitch": 56,
                "velocity": 51,
                "duration": 0.1159,
                "tempo": 120.0
            },
            {
                "pitch": 56,
                "velocity": 51,
                "duration": 1.3341,
                "tempo": 120.0
            }
        ],
        "Trumpet": [
            {
                "pitch": 73,
                "velocity": 80,
                "duration": 0.25,
                "tempo": 120.0
            },
            {
                "pitch": 68,
                "velocity": 80,
                "duration": 1.3182,
                "tempo": 120.0
            },
            {
                "pitch": 75,
                "velocity": 80,
                "duration": 0.25,
                "tempo": 120.0
            },
            {
                "pitch": 73,
                "velocity": 80,
                "duration": 0.2591,
                "tempo": 120.0
            },
            {
                "pitch": 68,
                "velocity": 80,
                "duration": 0.2614,
                "tempo": 120.0
            },
            {
                "pitch": 75,
                "velocity": 80,
                "duration": 0.2523,
                "tempo": 120.0
            },
            {
                "pitch": 73,
                "velocity": 80,
                "duration": 0.25,
                "tempo": 120.0
            },
            {
                "pitch": 68,
                "velocity": 80,
                "duration": 0.5182,
                "tempo": 120.0
            },
            {
                "pitch": 75,
                "velocity": 80,
                "duration": 0.5159,
                "tempo": 120.0
            },
            {
                "pitch": 73,
                "velocity": 80,
                "duration": 0.2545,
                "tempo": 120.0
            },
            {
                "pitch": 68,
                "velocity": 80,
                "duration": 1.325,
                "tempo": 120.0
            },
            {
                "pitch": 75,
                "velocity": 80,
                "duration": 0.25,
                "tempo": 120.0
            },
            {
                "pitch": 73,
                "velocity": 80,
                "duration": 0.2568,
                "tempo": 120.0
            },
            {
                "pitch": 68,
                "velocity": 80,
                "duration": 0.2545,
                "tempo": 120.0
            },
            {
                "pitch": 75,
                "velocity": 80,
                "duration": 0.25,
                "tempo": 120.0
            },
            {
                "pitch": 73,
                "velocity": 80,
                "duration": 0.2523,
                "tempo": 120.0
            },
            {
                "pitch": 68,
                "velocity": 80,
                "duration": 0.5273,
                "tempo": 120.0
            },
            {
                "pitch": 76,
                "velocity": 80,
                "duration": 0.5091,
                "tempo": 120.0
            },
            {
                "pitch": 74,
                "velocity": 80,
                "duration": 0.2545,
                "tempo": 120.0
            },
            {
                "pitch": 69,
                "velocity": 80,
                "duration": 1.3227,
                "tempo": 120.0
            },
            {
                "pitch": 76,
                "velocity": 80,
                "duration": 0.2568,
                "tempo": 120.0
            },
            {
                "pitch": 74,
                "velocity": 80,
                "duration": 0.2545,
                "tempo": 120.0
            },
            {
                "pitch": 69,
                "velocity": 80,
                "duration": 0.2545,
                "tempo": 120.0
            },
            {
                "pitch": 76,
                "velocity": 80,
                "duration": 0.2523,
                "tempo": 120.0
            },
            {
                "pitch": 74,
                "velocity": 80,
                "duration": 0.25,
                "tempo": 120.0
            },
            {
                "pitch": 69,
                "velocity": 80,
                "duration": 0.5159,
                "tempo": 120.0
            },
            {
                "pitch": 76,
                "velocity": 80,
                "duration": 0.5182,
                "tempo": 120.0
            },
            {
                "pitch": 74,
                "velocity": 80,
                "duration": 0.2545,
                "tempo": 120.0
            },
            {
                "pitch": 69,
                "velocity": 80,
                "duration": 1.325,
                "tempo": 120.0
            },
            {
                "pitch": 76,
                "velocity": 80,
                "duration": 0.2455,
                "tempo": 120.0
            },
            {
                "pitch": 74,
                "velocity": 80,
                "duration": 0.2591,
                "tempo": 120.0
            },
            {
                "pitch": 69,
                "velocity": 80,
                "duration": 0.2591,
                "tempo": 120.0
            },
            {
                "pitch": 76,
                "velocity": 80,
                "duration": 0.2545,
                "tempo": 120.0
            },
            {
                "pitch": 74,
                "velocity": 80,
                "duration": 0.2545,
                "tempo": 120.0
            },
            {
                "pitch": 59,
                "velocity": 80,
                "duration": 0.5182,
                "tempo": 120.0
            },
            {
                "pitch": 64,
                "velocity": 80,
                "duration": 0.2455,
                "tempo": 120.0
            },
            {
                "pitch": 57,
                "velocity": 51,
                "duration": 0.2455,
                "tempo": 120.0
            },
            {
                "pitch": 62,
                "velocity": 51,
                "duration": 0.2545,
                "tempo": 120.0
            },
            {
                "pitch": 57,
                "velocity": 51,
                "duration": 0.2545,
                "tempo": 120.0
            },
            {
                "pitch": 60,
                "velocity": 51,
                "duration": 0.25,
                "tempo": 120.0
            },
            {
                "pitch": 57,
                "velocity": 51,
                "duration": 0.25,
                "tempo": 120.0
            },
            {
                "pitch": 62,
                "velocity": 51,
                "duration": 0.2545,
                "tempo": 120.0
            },
            {
                "pitch": 57,
                "velocity": 51,
                "duration": 0.2545,
                "tempo": 120.0
            },
            {
                "pitch": 64,
                "velocity": 51,
                "duration": 0.2523,
                "tempo": 120.0
            },
            {
                "pitch": 57,
                "velocity": 51,
                "duration": 0.25,
                "tempo": 120.0
            },
            {
                "pitch": 62,
                "velocity": 51,
                "duration": 0.25,
                "tempo": 120.0
            },
            {
                "pitch": 57,
                "velocity": 51,
                "duration": 0.25,
                "tempo": 120.0
            },
            {
                "pitch": 60,
                "velocity": 51,
                "duration": 0.25,
                "tempo": 120.0
            },
            {
                "pitch": 57,
                "velocity": 51,
                "duration": 0.25,
                "tempo": 120.0
            },
            {
                "pitch": 62,
                "velocity": 51,
                "duration": 0.2545,
                "tempo": 120.0
            },
            {
                "pitch": 57,
                "velocity": 51,
                "duration": 0.2568,
                "tempo": 120.0
            },
            {
                "pitch": 72,
                "velocity": 51,
                "duration": 0.25,
                "tempo": 120.0
            },
            {
                "pitch": 64,
                "velocity": 51,
                "duration": 0.25,
                "tempo": 120.0
            },
            {
                "pitch": 71,
                "velocity": 51,
                "duration": 0.2545,
                "tempo": 120.0
            },
            {
                "pitch": 64,
                "velocity": 51,
                "duration": 0.2545,
                "tempo": 120.0
            },
            {
                "pitch": 69,
                "velocity": 51,
                "duration": 0.25,
                "tempo": 120.0
            },
            {
                "pitch": 64,
                "velocity": 51,
                "duration": 0.25,
                "tempo": 120.0
            },
            {
                "pitch": 71,
                "velocity": 51,
                "duration": 0.25,
                "tempo": 120.0
            },
            {
                "pitch": 64,
                "velocity": 51,
                "duration": 0.2523,
                "tempo": 120.0
            },
            {
                "pitch": 72,
                "velocity": 51,
                "duration": 0.25,
                "tempo": 120.0
            },
            {
                "pitch": 64,
                "velocity": 51,
                "duration": 0.2523,
                "tempo": 120.0
            },
            {
                "pitch": 71,
                "velocity": 51,
                "duration": 0.2545,
                "tempo": 120.0
            },
            {
                "pitch": 64,
                "velocity": 51,
                "duration": 0.2545,
                "tempo": 120.0
            },
            {
                "pitch": 69,
                "velocity": 51,
                "duration": 0.2523,
                "tempo": 120.0
            },
            {
                "pitch": 64,
                "velocity": 51,
                "duration": 0.25,
                "tempo": 120.0
            },
            {
                "pitch": 71,
                "velocity": 51,
                "duration": 0.2568,
                "tempo": 120.0
            },
            {
                "pitch": 64,
                "velocity": 51,
                "duration": 0.2545,
                "tempo": 120.0
            },
            {
                "pitch": 71,
                "velocity": 51,
                "duration": 0.2545,
                "tempo": 120.0
            },
            {
                "pitch": 63,
                "velocity": 51,
                "duration": 0.2568,
                "tempo": 120.0
            },
            {
                "pitch": 70,
                "velocity": 51,
                "duration": 0.2455,
                "tempo": 120.0
            },
            {
                "pitch": 63,
                "velocity": 51,
                "duration": 0.2455,
                "tempo": 120.0
            },
            {
                "pitch": 68,
                "velocity": 51,
                "duration": 0.25,
                "tempo": 120.0
            },
            {
                "pitch": 63,
                "velocity": 51,
                "duration": 0.25,
                "tempo": 120.0
            },
            {
                "pitch": 70,
                "velocity": 51,
                "duration": 0.2545,
                "tempo": 120.0
            },
            {
                "pitch": 63,
                "velocity": 51,
                "duration": 0.2545,
                "tempo": 120.0
            },
            {
                "pitch": 71,
                "velocity": 51,
                "duration": 0.25,
                "tempo": 120.0
            },
            {
                "pitch": 63,
                "velocity": 51,
                "duration": 0.25,
                "tempo": 120.0
            },
            {
                "pitch": 70,
                "velocity": 51,
                "duration": 0.2545,
                "tempo": 120.0
            },
            {
                "pitch": 63,
                "velocity": 51,
                "duration": 0.2568,
                "tempo": 120.0
            },
            {
                "pitch": 68,
                "velocity": 51,
                "duration": 0.25,
                "tempo": 120.0
            },
            {
                "pitch": 63,
                "velocity": 51,
                "duration": 0.25,
                "tempo": 120.0
            },
            {
                "pitch": 70,
                "velocity": 51,
                "duration": 0.25,
                "tempo": 120.0
            },
            {
                "pitch": 63,
                "velocity": 51,
                "duration": 0.25,
                "tempo": 120.0
            },
            {
                "pitch": 71,
                "velocity": 51,
                "duration": 0.2523,
                "tempo": 120.0
            },
            {
                "pitch": 63,
                "velocity": 51,
                "duration": 0.25,
                "tempo": 120.0
            },
            {
                "pitch": 70,
                "velocity": 51,
                "duration": 0.2545,
                "tempo": 120.0
            },
            {
                "pitch": 63,
                "velocity": 51,
                "duration": 0.2545,
                "tempo": 120.0
            },
            {
                "pitch": 68,
                "velocity": 51,
                "duration": 0.25,
                "tempo": 120.0
            },
            {
                "pitch": 63,
                "velocity": 51,
                "duration": 0.2523,
                "tempo": 120.0
            },
            {
                "pitch": 70,
                "velocity": 51,
                "duration": 0.2545,
                "tempo": 120.0
            },
            {
                "pitch": 63,
                "velocity": 51,
                "duration": 0.2545,
                "tempo": 120.0
            },
            {
                "pitch": 71,
                "velocity": 51,
                "duration": 0.2523,
                "tempo": 120.0
            },
            {
                "pitch": 63,
                "velocity": 51,
                "duration": 0.25,
                "tempo": 120.0
            },
            {
                "pitch": 70,
                "velocity": 51,
                "duration": 0.2523,
                "tempo": 120.0
            },
            {
                "pitch": 63,
                "velocity": 51,
                "duration": 0.25,
                "tempo": 120.0
            },
            {
                "pitch": 68,
                "velocity": 51,
                "duration": 0.25,
                "tempo": 120.0
            },
            {
                "pitch": 63,
                "velocity": 51,
                "duration": 0.25,
                "tempo": 120.0
            },
            {
                "pitch": 70,
                "velocity": 51,
                "duration": 0.2545,
                "tempo": 120.0
            },
            {
                "pitch": 63,
                "velocity": 51,
                "duration": 0.2568,
                "tempo": 120.0
            }
        ],
        "Acoustic Grand Piano": [
            {
                "pitch": 32,
                "velocity": 80,
                "duration": 0.175,
                "tempo": 120.0
            },
            {
                "pitch": 32,
                "velocity": 80,
                "duration": 0.1886,
                "tempo": 120.0
            },
            {
                "pitch": 32,
                "velocity": 80,
                "duration": 0.2477,
                "tempo": 120.0
            },
            {
                "pitch": 32,
                "velocity": 80,
                "duration": 0.25,
                "tempo": 120.0
            },
            {
                "pitch": 32,
                "velocity": 80,
                "duration": 0.2545,
                "tempo": 120.0
            },
            {
                "pitch": 32,
                "velocity": 80,
                "duration": 0.2545,
                "tempo": 120.0
            },
            {
                "pitch": 32,
                "velocity": 80,
                "duration": 0.25,
                "tempo": 120.0
            },
            {
                "pitch": 32,
                "velocity": 80,
                "duration": 0.25,
                "tempo": 120.0
            },
            {
                "pitch": 32,
                "velocity": 80,
                "duration": 0.25,
                "tempo": 120.0
            },
            {
                "pitch": 32,
                "velocity": 80,
                "duration": 0.2523,
                "tempo": 120.0
            },
            {
                "pitch": 32,
                "velocity": 80,
                "duration": 0.2545,
                "tempo": 120.0
            },
            {
                "pitch": 32,
                "velocity": 80,
                "duration": 0.2545,
                "tempo": 120.0
            },
            {
                "pitch": 32,
                "velocity": 80,
                "duration": 0.25,
                "tempo": 120.0
            },
            {
                "pitch": 32,
                "velocity": 80,
                "duration": 0.25,
                "tempo": 120.0
            },
            {
                "pitch": 32,
                "velocity": 80,
                "duration": 0.2568,
                "tempo": 120.0
            },
            {
                "pitch": 32,
                "velocity": 80,
                "duration": 0.2545,
                "tempo": 120.0
            },
            {
                "pitch": 33,
                "velocity": 80,
                "duration": 0.25,
                "tempo": 120.0
            },
            {
                "pitch": 33,
                "velocity": 80,
                "duration": 0.2523,
                "tempo": 120.0
            },
            {
                "pitch": 33,
                "velocity": 80,
                "duration": 0.2455,
                "tempo": 120.0
            },
            {
                "pitch": 33,
                "velocity": 80,
                "duration": 0.2477,
                "tempo": 120.0
            },
            {
                "pitch": 33,
                "velocity": 80,
                "duration": 0.2591,
                "tempo": 120.0
            },
            {
                "pitch": 33,
                "velocity": 80,
                "duration": 0.2614,
                "tempo": 120.0
            },
            {
                "pitch": 33,
                "velocity": 80,
                "duration": 0.2523,
                "tempo": 120.0
            },
            {
                "pitch": 33,
                "velocity": 80,
                "duration": 0.25,
                "tempo": 120.0
            },
            {
                "pitch": 33,
                "velocity": 80,
                "duration": 0.25,
                "tempo": 120.0
            },
            {
                "pitch": 33,
                "velocity": 80,
                "duration": 0.25,
                "tempo": 120.0
            },
            {
                "pitch": 33,
                "velocity": 80,
                "duration": 0.2432,
                "tempo": 120.0
            },
            {
                "pitch": 33,
                "velocity": 80,
                "duration": 0.2409,
                "tempo": 120.0
            },
            {
                "pitch": 33,
                "velocity": 80,
                "duration": 0.2636,
                "tempo": 120.0
            },
            {
                "pitch": 33,
                "velocity": 80,
                "duration": 0.2659,
                "tempo": 120.0
            },
            {
                "pitch": 33,
                "velocity": 80,
                "duration": 0.2523,
                "tempo": 120.0
            },
            {
                "pitch": 33,
                "velocity": 80,
                "duration": 0.25,
                "tempo": 120.0
            },
            {
                "pitch": 32,
                "velocity": 80,
                "duration": 0.2545,
                "tempo": 120.0
            },
            {
                "pitch": 32,
                "velocity": 80,
                "duration": 0.2568,
                "tempo": 120.0
            },
            {
                "pitch": 32,
                "velocity": 80,
                "duration": 0.25,
                "tempo": 120.0
            },
            {
                "pitch": 32,
                "velocity": 80,
                "duration": 0.25,
                "tempo": 120.0
            },
            {
                "pitch": 32,
                "velocity": 80,
                "duration": 0.25,
                "tempo": 120.0
            },
            {
                "pitch": 32,
                "velocity": 80,
                "duration": 0.25,
                "tempo": 120.0
            },
            {
                "pitch": 32,
                "velocity": 80,
                "duration": 0.2545,
                "tempo": 120.0
            },
            {
                "pitch": 32,
                "velocity": 80,
                "duration": 0.2545,
                "tempo": 120.0
            },
            {
                "pitch": 32,
                "velocity": 80,
                "duration": 0.25,
                "tempo": 120.0
            },
            {
                "pitch": 32,
                "velocity": 80,
                "duration": 0.2523,
                "tempo": 120.0
            },
            {
                "pitch": 32,
                "velocity": 80,
                "duration": 0.25,
                "tempo": 120.0
            },
            {
                "pitch": 32,
                "velocity": 80,
                "duration": 0.2523,
                "tempo": 120.0
            },
            {
                "pitch": 32,
                "velocity": 80,
                "duration": 0.2545,
                "tempo": 120.0
            },
            {
                "pitch": 32,
                "velocity": 80,
                "duration": 0.2545,
                "tempo": 120.0
            },
            {
                "pitch": 32,
                "velocity": 80,
                "duration": 0.2523,
                "tempo": 120.0
            },
            {
                "pitch": 32,
                "velocity": 80,
                "duration": 0.25,
                "tempo": 120.0
            },
            {
                "pitch": 33,
                "velocity": 80,
                "duration": 0.2568,
                "tempo": 120.0
            },
            {
                "pitch": 33,
                "velocity": 80,
                "duration": 0.2545,
                "tempo": 120.0
            },
            {
                "pitch": 33,
                "velocity": 80,
                "duration": 0.2409,
                "tempo": 120.0
            },
            {
                "pitch": 33,
                "velocity": 80,
                "duration": 0.2432,
                "tempo": 120.0
            },
            {
                "pitch": 33,
                "velocity": 80,
                "duration": 0.2591,
                "tempo": 120.0
            },
            {
                "pitch": 33,
                "velocity": 80,
                "duration": 0.2591,
                "tempo": 120.0
            },
            {
                "pitch": 33,
                "velocity": 80,
                "duration": 0.25,
                "tempo": 120.0
            },
            {
                "pitch": 33,
                "velocity": 80,
                "duration": 0.25,
                "tempo": 120.0
            },
            {
                "pitch": 33,
                "velocity": 80,
                "duration": 0.2523,
                "tempo": 120.0
            },
            {
                "pitch": 33,
                "velocity": 80,
                "duration": 0.25,
                "tempo": 120.0
            },
            {
                "pitch": 33,
                "velocity": 80,
                "duration": 0.2477,
                "tempo": 120.0
            },
            {
                "pitch": 33,
                "velocity": 80,
                "duration": 0.2455,
                "tempo": 120.0
            },
            {
                "pitch": 33,
                "velocity": 80,
                "duration": 0.2591,
                "tempo": 120.0
            },
            {
                "pitch": 33,
                "velocity": 80,
                "duration": 0.2591,
                "tempo": 120.0
            },
            {
                "pitch": 33,
                "velocity": 80,
                "duration": 0.2545,
                "tempo": 120.0
            },
            {
                "pitch": 33,
                "velocity": 80,
                "duration": 0.2545,
                "tempo": 120.0
            },
            {
                "pitch": 32,
                "velocity": 80,
                "duration": 0.2477,
                "tempo": 120.0
            },
            {
                "pitch": 32,
                "velocity": 80,
                "duration": 0.2455,
                "tempo": 120.0
            },
            {
                "pitch": 32,
                "velocity": 80,
                "duration": 0.2568,
                "tempo": 120.0
            },
            {
                "pitch": 32,
                "velocity": 80,
                "duration": 0.2545,
                "tempo": 120.0
            },
            {
                "pitch": 32,
                "velocity": 80,
                "duration": 0.2545,
                "tempo": 120.0
            },
            {
                "pitch": 32,
                "velocity": 80,
                "duration": 0.2568,
                "tempo": 120.0
            },
            {
                "pitch": 32,
                "velocity": 80,
                "duration": 0.25,
                "tempo": 120.0
            },
            {
                "pitch": 32,
                "velocity": 80,
                "duration": 0.25,
                "tempo": 120.0
            },
            {
                "pitch": 32,
                "velocity": 80,
                "duration": 0.2523,
                "tempo": 120.0
            },
            {
                "pitch": 32,
                "velocity": 80,
                "duration": 0.25,
                "tempo": 120.0
            },
            {
                "pitch": 32,
                "velocity": 80,
                "duration": 0.2568,
                "tempo": 120.0
            },
            {
                "pitch": 32,
                "velocity": 80,
                "duration": 0.2545,
                "tempo": 120.0
            },
            {
                "pitch": 32,
                "velocity": 80,
                "duration": 0.25,
                "tempo": 120.0
            },
            {
                "pitch": 32,
                "velocity": 80,
                "duration": 0.2523,
                "tempo": 120.0
            },
            {
                "pitch": 32,
                "velocity": 80,
                "duration": 0.25,
                "tempo": 120.0
            },
            {
                "pitch": 32,
                "velocity": 80,
                "duration": 0.2523,
                "tempo": 120.0
            },
            {
                "pitch": 33,
                "velocity": 80,
                "duration": 0.2545,
                "tempo": 120.0
            },
            {
                "pitch": 33,
                "velocity": 80,
                "duration": 0.2545,
                "tempo": 120.0
            },
            {
                "pitch": 33,
                "velocity": 80,
                "duration": 0.2432,
                "tempo": 120.0
            },
            {
                "pitch": 33,
                "velocity": 80,
                "duration": 0.2409,
                "tempo": 120.0
            },
            {
                "pitch": 33,
                "velocity": 80,
                "duration": 0.2591,
                "tempo": 120.0
            },
            {
                "pitch": 33,
                "velocity": 80,
                "duration": 0.2591,
                "tempo": 120.0
            },
            {
                "pitch": 33,
                "velocity": 80,
                "duration": 0.2545,
                "tempo": 120.0
            },
            {
                "pitch": 33,
                "velocity": 80,
                "duration": 0.2545,
                "tempo": 120.0
            },
            {
                "pitch": 33,
                "velocity": 80,
                "duration": 0.2455,
                "tempo": 120.0
            },
            {
                "pitch": 33,
                "velocity": 80,
                "duration": 0.2455,
                "tempo": 120.0
            },
            {
                "pitch": 33,
                "velocity": 80,
                "duration": 0.2477,
                "tempo": 120.0
            },
            {
                "pitch": 33,
                "velocity": 80,
                "duration": 0.2455,
                "tempo": 120.0
            },
            {
                "pitch": 33,
                "velocity": 80,
                "duration": 0.2591,
                "tempo": 120.0
            },
            {
                "pitch": 33,
                "velocity": 80,
                "duration": 0.2591,
                "tempo": 120.0
            },
            {
                "pitch": 33,
                "velocity": 80,
                "duration": 0.2545,
                "tempo": 120.0
            },
            {
                "pitch": 33,
                "velocity": 80,
                "duration": 0.2545,
                "tempo": 120.0
            },
            {
                "pitch": 32,
                "velocity": 80,
                "duration": 0.2523,
                "tempo": 120.0
            },
            {
                "pitch": 32,
                "velocity": 80,
                "duration": 0.25,
                "tempo": 120.0
            },
            {
                "pitch": 32,
                "velocity": 80,
                "duration": 0.2455,
                "tempo": 120.0
            },
            {
                "pitch": 32,
                "velocity": 80,
                "duration": 0.2455,
                "tempo": 120.0
            },
            {
                "pitch": 32,
                "velocity": 80,
                "duration": 0.2591,
                "tempo": 120.0
            },
            {
                "pitch": 32,
                "velocity": 80,
                "duration": 0.2591,
                "tempo": 120.0
            },
            {
                "pitch": 32,
                "velocity": 80,
                "duration": 0.25,
                "tempo": 120.0
            },
            {
                "pitch": 32,
                "velocity": 80,
                "duration": 0.25,
                "tempo": 120.0
            },
            {
                "pitch": 32,
                "velocity": 80,
                "duration": 0.2523,
                "tempo": 120.0
            },
            {
                "pitch": 32,
                "velocity": 80,
                "duration": 0.25,
                "tempo": 120.0
            },
            {
                "pitch": 32,
                "velocity": 80,
                "duration": 0.2568,
                "tempo": 120.0
            },
            {
                "pitch": 32,
                "velocity": 80,
                "duration": 0.2545,
                "tempo": 120.0
            },
            {
                "pitch": 32,
                "velocity": 80,
                "duration": 0.25,
                "tempo": 120.0
            },
            {
                "pitch": 32,
                "velocity": 80,
                "duration": 0.2523,
                "tempo": 120.0
            },
            {
                "pitch": 32,
                "velocity": 80,
                "duration": 0.2545,
                "tempo": 120.0
            },
            {
                "pitch": 32,
                "velocity": 80,
                "duration": 0.2568,
                "tempo": 120.0
            },
            {
                "pitch": 32,
                "velocity": 80,
                "duration": 0.25,
                "tempo": 120.0
            },
            {
                "pitch": 32,
                "velocity": 80,
                "duration": 0.25,
                "tempo": 120.0
            },
            {
                "pitch": 32,
                "velocity": 80,
                "duration": 0.2477,
                "tempo": 120.0
            },
            {
                "pitch": 32,
                "velocity": 80,
                "duration": 0.2455,
                "tempo": 120.0
            },
            {
                "pitch": 32,
                "velocity": 80,
                "duration": 0.2568,
                "tempo": 120.0
            },
            {
                "pitch": 32,
                "velocity": 80,
                "duration": 0.2545,
                "tempo": 120.0
            },
            {
                "pitch": 32,
                "velocity": 80,
                "duration": 0.25,
                "tempo": 120.0
            },
            {
                "pitch": 32,
                "velocity": 80,
                "duration": 0.25,
                "tempo": 120.0
            },
            {
                "pitch": 32,
                "velocity": 80,
                "duration": 0.25,
                "tempo": 120.0
            },
            {
                "pitch": 32,
                "velocity": 80,
                "duration": 0.2523,
                "tempo": 120.0
            },
            {
                "pitch": 32,
                "velocity": 80,
                "duration": 0.2545,
                "tempo": 120.0
            },
            {
                "pitch": 32,
                "velocity": 80,
                "duration": 0.2545,
                "tempo": 120.0
            },
            {
                "pitch": 32,
                "velocity": 80,
                "duration": 0.2523,
                "tempo": 120.0
            },
            {
                "pitch": 32,
                "velocity": 80,
                "duration": 0.25,
                "tempo": 120.0
            },
            {
                "pitch": 32,
                "velocity": 80,
                "duration": 0.2568,
                "tempo": 120.0
            },
            {
                "pitch": 32,
                "velocity": 80,
                "duration": 0.2545,
                "tempo": 120.0
            },
            {
                "pitch": 32,
                "velocity": 80,
                "duration": 0.25,
                "tempo": 120.0
            },
            {
                "pitch": 32,
                "velocity": 80,
                "duration": 0.2523,
                "tempo": 120.0
            },
            {
                "pitch": 32,
                "velocity": 80,
                "duration": 0.2591,
                "tempo": 120.0
            },
            {
                "pitch": 32,
                "velocity": 80,
                "duration": 0.2614,
                "tempo": 120.0
            },
            {
                "pitch": 32,
                "velocity": 80,
                "duration": 0.2523,
                "tempo": 120.0
            },
            {
                "pitch": 32,
                "velocity": 80,
                "duration": 0.25,
                "tempo": 120.0
            },
            {
                "pitch": 32,
                "velocity": 80,
                "duration": 0.25,
                "tempo": 120.0
            },
            {
                "pitch": 32,
                "velocity": 80,
                "duration": 0.25,
                "tempo": 120.0
            },
            {
                "pitch": 32,
                "velocity": 80,
                "duration": 0.2455,
                "tempo": 120.0
            },
            {
                "pitch": 32,
                "velocity": 80,
                "duration": 0.2477,
                "tempo": 120.0
            },
            {
                "pitch": 32,
                "velocity": 80,
                "duration": 0.2545,
                "tempo": 120.0
            },
            {
                "pitch": 32,
                "velocity": 80,
                "duration": 0.2568,
                "tempo": 120.0
            },
            {
                "pitch": 32,
                "velocity": 80,
                "duration": 0.25,
                "tempo": 120.0
            },
            {
                "pitch": 32,
                "velocity": 80,
                "duration": 0.25,
                "tempo": 120.0
            },
            {
                "pitch": 32,
                "velocity": 80,
                "duration": 0.2545,
                "tempo": 120.0
            },
            {
                "pitch": 32,
                "velocity": 80,
                "duration": 0.2545,
                "tempo": 120.0
            },
            {
                "pitch": 32,
                "velocity": 80,
                "duration": 0.2455,
                "tempo": 120.0
            },
            {
                "pitch": 32,
                "velocity": 80,
                "duration": 0.2455,
                "tempo": 120.0
            },
            {
                "pitch": 32,
                "velocity": 80,
                "duration": 0.2545,
                "tempo": 120.0
            },
            {
                "pitch": 32,
                "velocity": 80,
                "duration": 0.2545,
                "tempo": 120.0
            },
            {
                "pitch": 32,
                "velocity": 80,
                "duration": 0.25,
                "tempo": 120.0
            },
            {
                "pitch": 32,
                "velocity": 80,
                "duration": 0.2523,
                "tempo": 120.0
            },
            {
                "pitch": 32,
                "velocity": 80,
                "duration": 0.2545,
                "tempo": 120.0
            },
            {
                "pitch": 32,
                "velocity": 80,
                "duration": 0.2545,
                "tempo": 120.0
            },
            {
                "pitch": 32,
                "velocity": 80,
                "duration": 0.2523,
                "tempo": 120.0
            },
            {
                "pitch": 32,
                "velocity": 80,
                "duration": 0.25,
                "tempo": 120.0
            },
            {
                "pitch": 32,
                "velocity": 80,
                "duration": 0.2523,
                "tempo": 120.0
            },
            {
                "pitch": 32,
                "velocity": 80,
                "duration": 0.25,
                "tempo": 120.0
            },
            {
                "pitch": 32,
                "velocity": 80,
                "duration": 0.25,
                "tempo": 120.0
            },
            {
                "pitch": 32,
                "velocity": 80,
                "duration": 0.25,
                "tempo": 120.0
            },
            {
                "pitch": 32,
                "velocity": 80,
                "duration": 0.2545,
                "tempo": 120.0
            },
            {
                "pitch": 32,
                "velocity": 80,
                "duration": 0.2568,
                "tempo": 120.0
            },
            {
                "pitch": 32,
                "velocity": 80,
                "duration": 0.25,
                "tempo": 120.0
            },
            {
                "pitch": 32,
                "velocity": 80,
                "duration": 0.25,
                "tempo": 120.0
            },
            {
                "pitch": 32,
                "velocity": 80,
                "duration": 0.2545,
                "tempo": 120.0
            },
            {
                "pitch": 32,
                "velocity": 80,
                "duration": 0.2545,
                "tempo": 120.0
            },
            {
                "pitch": 32,
                "velocity": 80,
                "duration": 0.2523,
                "tempo": 120.0
            },
            {
                "pitch": 32,
                "velocity": 80,
                "duration": 0.25,
                "tempo": 120.0
            },
            {
                "pitch": 32,
                "velocity": 80,
                "duration": 0.2545,
                "tempo": 120.0
            },
            {
                "pitch": 32,
                "velocity": 80,
                "duration": 0.2545,
                "tempo": 120.0
            },
            {
                "pitch": 32,
                "velocity": 80,
                "duration": 0.2455,
                "tempo": 120.0
            },
            {
                "pitch": 32,
                "velocity": 80,
                "duration": 0.2477,
                "tempo": 120.0
            },
            {
                "pitch": 32,
                "velocity": 80,
                "duration": 0.2545,
                "tempo": 120.0
            },
            {
                "pitch": 32,
                "velocity": 80,
                "duration": 0.2545,
                "tempo": 120.0
            },
            {
                "pitch": 32,
                "velocity": 80,
                "duration": 0.2545,
                "tempo": 120.0
            },
            {
                "pitch": 32,
                "velocity": 80,
                "duration": 0.2545,
                "tempo": 120.0
            },
            {
                "pitch": 32,
                "velocity": 80,
                "duration": 0.25,
                "tempo": 120.0
            },
            {
                "pitch": 32,
                "velocity": 80,
                "duration": 0.25,
                "tempo": 120.0
            },
            {
                "pitch": 33,
                "velocity": 80,
                "duration": 0.2545,
                "tempo": 120.0
            },
            {
                "pitch": 33,
                "velocity": 80,
                "duration": 0.2568,
                "tempo": 120.0
            },
            {
                "pitch": 33,
                "velocity": 80,
                "duration": 0.25,
                "tempo": 120.0
            },
            {
                "pitch": 33,
                "velocity": 80,
                "duration": 0.25,
                "tempo": 120.0
            },
            {
                "pitch": 33,
                "velocity": 80,
                "duration": 0.25,
                "tempo": 120.0
            },
            {
                "pitch": 33,
                "velocity": 80,
                "duration": 0.25,
                "tempo": 120.0
            },
            {
                "pitch": 33,
                "velocity": 80,
                "duration": 0.2523,
                "tempo": 120.0
            },
            {
                "pitch": 33,
                "velocity": 80,
                "duration": 0.25,
                "tempo": 120.0
            },
            {
                "pitch": 33,
                "velocity": 80,
                "duration": 0.25,
                "tempo": 120.0
            },
            {
                "pitch": 33,
                "velocity": 80,
                "duration": 0.25,
                "tempo": 120.0
            },
            {
                "pitch": 33,
                "velocity": 80,
                "duration": 0.2591,
                "tempo": 120.0
            },
            {
                "pitch": 33,
                "velocity": 80,
                "duration": 0.2614,
                "tempo": 120.0
            },
            {
                "pitch": 33,
                "velocity": 80,
                "duration": 0.2523,
                "tempo": 120.0
            },
            {
                "pitch": 33,
                "velocity": 80,
                "duration": 0.25,
                "tempo": 120.0
            },
            {
                "pitch": 33,
                "velocity": 80,
                "duration": 0.2523,
                "tempo": 120.0
            },
            {
                "pitch": 33,
                "velocity": 80,
                "duration": 0.25,
                "tempo": 120.0
            },
            {
                "pitch": 33,
                "velocity": 80,
                "duration": 0.25,
                "tempo": 120.0
            },
            {
                "pitch": 33,
                "velocity": 80,
                "duration": 0.25,
                "tempo": 120.0
            },
            {
                "pitch": 33,
                "velocity": 80,
                "duration": 0.2545,
                "tempo": 120.0
            },
            {
                "pitch": 33,
                "velocity": 80,
                "duration": 0.2545,
                "tempo": 120.0
            },
            {
                "pitch": 33,
                "velocity": 80,
                "duration": 0.2455,
                "tempo": 120.0
            },
            {
                "pitch": 33,
                "velocity": 80,
                "duration": 0.2477,
                "tempo": 120.0
            },
            {
                "pitch": 33,
                "velocity": 80,
                "duration": 0.2545,
                "tempo": 120.0
            },
            {
                "pitch": 33,
                "velocity": 80,
                "duration": 0.2545,
                "tempo": 120.0
            },
            {
                "pitch": 33,
                "velocity": 80,
                "duration": 0.2523,
                "tempo": 120.0
            },
            {
                "pitch": 33,
                "velocity": 80,
                "duration": 0.25,
                "tempo": 120.0
            },
            {
                "pitch": 33,
                "velocity": 80,
                "duration": 0.2568,
                "tempo": 120.0
            },
            {
                "pitch": 33,
                "velocity": 80,
                "duration": 0.2545,
                "tempo": 120.0
            },
            {
                "pitch": 33,
                "velocity": 80,
                "duration": 0.25,
                "tempo": 120.0
            },
            {
                "pitch": 33,
                "velocity": 80,
                "duration": 0.2523,
                "tempo": 120.0
            },
            {
                "pitch": 33,
                "velocity": 80,
                "duration": 0.2545,
                "tempo": 120.0
            },
            {
                "pitch": 33,
                "velocity": 80,
                "duration": 0.2568,
                "tempo": 120.0
            },
            {
                "pitch": 35,
                "velocity": 80,
                "duration": 0.2455,
                "tempo": 120.0
            },
            {
                "pitch": 35,
                "velocity": 80,
                "duration": 0.2455,
                "tempo": 120.0
            },
            {
                "pitch": 35,
                "velocity": 80,
                "duration": 0.2545,
                "tempo": 120.0
            },
            {
                "pitch": 35,
                "velocity": 80,
                "duration": 0.2545,
                "tempo": 120.0
            },
            {
                "pitch": 35,
                "velocity": 80,
                "duration": 0.2523,
                "tempo": 120.0
            },
            {
                "pitch": 35,
                "velocity": 80,
                "duration": 0.25,
                "tempo": 120.0
            },
            {
                "pitch": 35,
                "velocity": 80,
                "duration": 0.25,
                "tempo": 120.0
            },
            {
                "pitch": 35,
                "velocity": 80,
                "duration": 0.25,
                "tempo": 120.0
            },
            {
                "pitch": 35,
                "velocity": 80,
                "duration": 0.2545,
                "tempo": 120.0
            },
            {
                "pitch": 35,
                "velocity": 80,
                "duration": 0.2568,
                "tempo": 120.0
            },
            {
                "pitch": 35,
                "velocity": 80,
                "duration": 0.2545,
                "tempo": 120.0
            },
            {
                "pitch": 35,
                "velocity": 80,
                "duration": 0.2545,
                "tempo": 120.0
            },
            {
                "pitch": 35,
                "velocity": 80,
                "duration": 0.2523,
                "tempo": 120.0
            },
            {
                "pitch": 35,
                "velocity": 80,
                "duration": 0.25,
                "tempo": 120.0
            },
            {
                "pitch": 35,
                "velocity": 80,
                "duration": 0.25,
                "tempo": 120.0
            },
            {
                "pitch": 35,
                "velocity": 80,
                "duration": 0.25,
                "tempo": 120.0
            },
            {
                "pitch": 35,
                "velocity": 80,
                "duration": 0.25,
                "tempo": 120.0
            },
            {
                "pitch": 35,
                "velocity": 80,
                "duration": 0.2523,
                "tempo": 120.0
            },
            {
                "pitch": 35,
                "velocity": 80,
                "duration": 0.2545,
                "tempo": 120.0
            },
            {
                "pitch": 35,
                "velocity": 80,
                "duration": 0.2568,
                "tempo": 120.0
            },
            {
                "pitch": 35,
                "velocity": 80,
                "duration": 0.2455,
                "tempo": 120.0
            },
            {
                "pitch": 35,
                "velocity": 80,
                "duration": 0.2455,
                "tempo": 120.0
            },
            {
                "pitch": 35,
                "velocity": 80,
                "duration": 0.2545,
                "tempo": 120.0
            },
            {
                "pitch": 35,
                "velocity": 80,
                "duration": 0.2545,
                "tempo": 120.0
            },
            {
                "pitch": 35,
                "velocity": 80,
                "duration": 0.2477,
                "tempo": 120.0
            },
            {
                "pitch": 35,
                "velocity": 80,
                "duration": 0.2455,
                "tempo": 120.0
            },
            {
                "pitch": 35,
                "velocity": 80,
                "duration": 0.2591,
                "tempo": 120.0
            },
            {
                "pitch": 35,
                "velocity": 80,
                "duration": 0.2591,
                "tempo": 120.0
            },
            {
                "pitch": 35,
                "velocity": 80,
                "duration": 0.2545,
                "tempo": 120.0
            },
            {
                "pitch": 35,
                "velocity": 80,
                "duration": 0.2545,
                "tempo": 120.0
            },
            {
                "pitch": 35,
                "velocity": 80,
                "duration": 0.2523,
                "tempo": 120.0
            },
            {
                "pitch": 35,
                "velocity": 80,
                "duration": 0.25,
                "tempo": 120.0
            },
            {
                "pitch": 33,
                "velocity": 80,
                "duration": 0.2455,
                "tempo": 120.0
            },
            {
                "pitch": 33,
                "velocity": 80,
                "duration": 0.2455,
                "tempo": 120.0
            },
            {
                "pitch": 33,
                "velocity": 80,
                "duration": 0.2545,
                "tempo": 120.0
            },
            {
                "pitch": 33,
                "velocity": 80,
                "duration": 0.2545,
                "tempo": 120.0
            },
            {
                "pitch": 33,
                "velocity": 80,
                "duration": 0.25,
                "tempo": 120.0
            },
            {
                "pitch": 33,
                "velocity": 80,
                "duration": 0.25,
                "tempo": 120.0
            },
            {
                "pitch": 33,
                "velocity": 80,
                "duration": 0.2545,
                "tempo": 120.0
            },
            {
                "pitch": 33,
                "velocity": 80,
                "duration": 0.2545,
                "tempo": 120.0
            },
            {
                "pitch": 33,
                "velocity": 80,
                "duration": 0.2523,
                "tempo": 120.0
            },
            {
                "pitch": 33,
                "velocity": 80,
                "duration": 0.25,
                "tempo": 120.0
            },
            {
                "pitch": 33,
                "velocity": 80,
                "duration": 0.25,
                "tempo": 120.0
            },
            {
                "pitch": 33,
                "velocity": 80,
                "duration": 0.25,
                "tempo": 120.0
            },
            {
                "pitch": 33,
                "velocity": 80,
                "duration": 0.25,
                "tempo": 120.0
            },
            {
                "pitch": 33,
                "velocity": 80,
                "duration": 0.25,
                "tempo": 120.0
            },
            {
                "pitch": 33,
                "velocity": 80,
                "duration": 0.2545,
                "tempo": 120.0
            },
            {
                "pitch": 33,
                "velocity": 80,
                "duration": 0.2568,
                "tempo": 120.0
            },
            {
                "pitch": 33,
                "velocity": 80,
                "duration": 0.25,
                "tempo": 120.0
            },
            {
                "pitch": 33,
                "velocity": 80,
                "duration": 0.25,
                "tempo": 120.0
            },
            {
                "pitch": 33,
                "velocity": 80,
                "duration": 0.2545,
                "tempo": 120.0
            },
            {
                "pitch": 33,
                "velocity": 80,
                "duration": 0.2545,
                "tempo": 120.0
            },
            {
                "pitch": 33,
                "velocity": 80,
                "duration": 0.25,
                "tempo": 120.0
            },
            {
                "pitch": 33,
                "velocity": 80,
                "duration": 0.25,
                "tempo": 120.0
            },
            {
                "pitch": 33,
                "velocity": 80,
                "duration": 0.25,
                "tempo": 120.0
            },
            {
                "pitch": 33,
                "velocity": 80,
                "duration": 0.2523,
                "tempo": 120.0
            },
            {
                "pitch": 33,
                "velocity": 80,
                "duration": 0.25,
                "tempo": 120.0
            },
            {
                "pitch": 33,
                "velocity": 80,
                "duration": 0.2523,
                "tempo": 120.0
            },
            {
                "pitch": 33,
                "velocity": 80,
                "duration": 0.2545,
                "tempo": 120.0
            },
            {
                "pitch": 33,
                "velocity": 80,
                "duration": 0.2545,
                "tempo": 120.0
            },
            {
                "pitch": 33,
                "velocity": 80,
                "duration": 0.2523,
                "tempo": 120.0
            },
            {
                "pitch": 33,
                "velocity": 80,
                "duration": 0.25,
                "tempo": 120.0
            },
            {
                "pitch": 33,
                "velocity": 80,
                "duration": 0.2568,
                "tempo": 120.0
            },
            {
                "pitch": 33,
                "velocity": 80,
                "duration": 0.2545,
                "tempo": 120.0
            },
            {
                "pitch": 32,
                "velocity": 80,
                "duration": 0.2545,
                "tempo": 120.0
            },
            {
                "pitch": 32,
                "velocity": 80,
                "duration": 0.2568,
                "tempo": 120.0
            },
            {
                "pitch": 32,
                "velocity": 80,
                "duration": 0.2455,
                "tempo": 120.0
            },
            {
                "pitch": 32,
                "velocity": 80,
                "duration": 0.2455,
                "tempo": 120.0
            },
            {
                "pitch": 32,
                "velocity": 80,
                "duration": 0.25,
                "tempo": 120.0
            },
            {
                "pitch": 32,
                "velocity": 80,
                "duration": 0.25,
                "tempo": 120.0
            },
            {
                "pitch": 32,
                "velocity": 80,
                "duration": 0.2545,
                "tempo": 120.0
            },
            {
                "pitch": 32,
                "velocity": 80,
                "duration": 0.2545,
                "tempo": 120.0
            },
            {
                "pitch": 32,
                "velocity": 80,
                "duration": 0.25,
                "tempo": 120.0
            },
            {
                "pitch": 32,
                "velocity": 80,
                "duration": 0.25,
                "tempo": 120.0
            },
            {
                "pitch": 32,
                "velocity": 80,
                "duration": 0.2545,
                "tempo": 120.0
            },
            {
                "pitch": 32,
                "velocity": 80,
                "duration": 0.2568,
                "tempo": 120.0
            },
            {
                "pitch": 32,
                "velocity": 80,
                "duration": 0.25,
                "tempo": 120.0
            },
            {
                "pitch": 32,
                "velocity": 80,
                "duration": 0.25,
                "tempo": 120.0
            },
            {
                "pitch": 32,
                "velocity": 80,
                "duration": 0.25,
                "tempo": 120.0
            },
            {
                "pitch": 32,
                "velocity": 80,
                "duration": 0.25,
                "tempo": 120.0
            },
            {
                "pitch": 32,
                "velocity": 80,
                "duration": 0.2523,
                "tempo": 120.0
            },
            {
                "pitch": 32,
                "velocity": 80,
                "duration": 0.25,
                "tempo": 120.0
            },
            {
                "pitch": 32,
                "velocity": 80,
                "duration": 0.2545,
                "tempo": 120.0
            },
            {
                "pitch": 32,
                "velocity": 80,
                "duration": 0.2545,
                "tempo": 120.0
            },
            {
                "pitch": 32,
                "velocity": 80,
                "duration": 0.25,
                "tempo": 120.0
            },
            {
                "pitch": 32,
                "velocity": 80,
                "duration": 0.2523,
                "tempo": 120.0
            },
            {
                "pitch": 32,
                "velocity": 80,
                "duration": 0.2545,
                "tempo": 120.0
            },
            {
                "pitch": 32,
                "velocity": 80,
                "duration": 0.2545,
                "tempo": 120.0
            },
            {
                "pitch": 32,
                "velocity": 80,
                "duration": 0.2523,
                "tempo": 120.0
            },
            {
                "pitch": 32,
                "velocity": 80,
                "duration": 0.25,
                "tempo": 120.0
            },
            {
                "pitch": 32,
                "velocity": 80,
                "duration": 0.2523,
                "tempo": 120.0
            },
            {
                "pitch": 32,
                "velocity": 80,
                "duration": 0.25,
                "tempo": 120.0
            },
            {
                "pitch": 32,
                "velocity": 80,
                "duration": 0.25,
                "tempo": 120.0
            },
            {
                "pitch": 32,
                "velocity": 80,
                "duration": 0.25,
                "tempo": 120.0
            },
            {
                "pitch": 32,
                "velocity": 80,
                "duration": 0.2545,
                "tempo": 120.0
            },
            {
                "pitch": 32,
                "velocity": 80,
                "duration": 0.2568,
                "tempo": 120.0
            },
            {
                "pitch": 33,
                "velocity": 80,
                "duration": 0.0182,
                "tempo": 120.0
            }
        ],
        "Acoustic Guitar (nylon)": [
            {
                "pitch": 75,
                "velocity": 64,
                "duration": 0.2568,
                "tempo": 120.0
            },
            {
                "pitch": 73,
                "velocity": 64,
                "duration": 0.25,
                "tempo": 120.0
            },
            {
                "pitch": 80,
                "velocity": 64,
                "duration": 0.25,
                "tempo": 120.0
            },
            {
                "pitch": 75,
                "velocity": 64,
                "duration": 0.25,
                "tempo": 120.0
            },
            {
                "pitch": 73,
                "velocity": 64,
                "duration": 0.25,
                "tempo": 120.0
            },
            {
                "pitch": 80,
                "velocity": 64,
                "duration": 0.2523,
                "tempo": 120.0
            },
            {
                "pitch": 75,
                "velocity": 64,
                "duration": 0.25,
                "tempo": 120.0
            },
            {
                "pitch": 73,
                "velocity": 64,
                "duration": 0.25,
                "tempo": 120.0
            },
            {
                "pitch": 80,
                "velocity": 64,
                "duration": 0.25,
                "tempo": 120.0
            },
            {
                "pitch": 75,
                "velocity": 64,
                "duration": 0.2591,
                "tempo": 120.0
            },
            {
                "pitch": 73,
                "velocity": 64,
                "duration": 0.2614,
                "tempo": 120.0
            },
            {
                "pitch": 80,
                "velocity": 64,
                "duration": 0.2523,
                "tempo": 120.0
            },
            {
                "pitch": 75,
                "velocity": 64,
                "duration": 0.25,
                "tempo": 120.0
            },
            {
                "pitch": 73,
                "velocity": 64,
                "duration": 0.2523,
                "tempo": 120.0
            },
            {
                "pitch": 80,
                "velocity": 64,
                "duration": 0.25,
                "tempo": 120.0
            },
            {
                "pitch": 75,
                "velocity": 64,
                "duration": 0.25,
                "tempo": 120.0
            },
            {
                "pitch": 73,
                "velocity": 64,
                "duration": 0.25,
                "tempo": 120.0
            },
            {
                "pitch": 80,
                "velocity": 64,
                "duration": 0.2545,
                "tempo": 120.0
            },
            {
                "pitch": 75,
                "velocity": 64,
                "duration": 0.2545,
                "tempo": 120.0
            },
            {
                "pitch": 73,
                "velocity": 64,
                "duration": 0.2455,
                "tempo": 120.0
            },
            {
                "pitch": 80,
                "velocity": 64,
                "duration": 0.2477,
                "tempo": 120.0
            },
            {
                "pitch": 75,
                "velocity": 64,
                "duration": 0.2545,
                "tempo": 120.0
            },
            {
                "pitch": 73,
                "velocity": 64,
                "duration": 0.2545,
                "tempo": 120.0
            },
            {
                "pitch": 80,
                "velocity": 64,
                "duration": 0.2523,
                "tempo": 120.0
            },
            {
                "pitch": 75,
                "velocity": 64,
                "duration": 0.25,
                "tempo": 120.0
            },
            {
                "pitch": 73,
                "velocity": 64,
                "duration": 0.2568,
                "tempo": 120.0
            },
            {
                "pitch": 80,
                "velocity": 64,
                "duration": 0.2545,
                "tempo": 120.0
            },
            {
                "pitch": 75,
                "velocity": 64,
                "duration": 0.25,
                "tempo": 120.0
            },
            {
                "pitch": 73,
                "velocity": 64,
                "duration": 0.2523,
                "tempo": 120.0
            },
            {
                "pitch": 80,
                "velocity": 64,
                "duration": 0.2545,
                "tempo": 120.0
            },
            {
                "pitch": 75,
                "velocity": 64,
                "duration": 0.2568,
                "tempo": 120.0
            },
            {
                "pitch": 81,
                "velocity": 64,
                "duration": 0.2455,
                "tempo": 120.0
            },
            {
                "pitch": 76,
                "velocity": 64,
                "duration": 0.2455,
                "tempo": 120.0
            },
            {
                "pitch": 74,
                "velocity": 64,
                "duration": 0.2545,
                "tempo": 120.0
            },
            {
                "pitch": 81,
                "velocity": 64,
                "duration": 0.2545,
                "tempo": 120.0
            },
            {
                "pitch": 76,
                "velocity": 64,
                "duration": 0.2523,
                "tempo": 120.0
            },
            {
                "pitch": 74,
                "velocity": 64,
                "duration": 0.25,
                "tempo": 120.0
            },
            {
                "pitch": 81,
                "velocity": 64,
                "duration": 0.25,
                "tempo": 120.0
            },
            {
                "pitch": 76,
                "velocity": 64,
                "duration": 0.25,
                "tempo": 120.0
            },
            {
                "pitch": 74,
                "velocity": 64,
                "duration": 0.2545,
                "tempo": 120.0
            },
            {
                "pitch": 81,
                "velocity": 64,
                "duration": 0.2568,
                "tempo": 120.0
            },
            {
                "pitch": 76,
                "velocity": 64,
                "duration": 0.2545,
                "tempo": 120.0
            },
            {
                "pitch": 74,
                "velocity": 64,
                "duration": 0.2545,
                "tempo": 120.0
            },
            {
                "pitch": 81,
                "velocity": 64,
                "duration": 0.2523,
                "tempo": 120.0
            },
            {
                "pitch": 76,
                "velocity": 64,
                "duration": 0.25,
                "tempo": 120.0
            },
            {
                "pitch": 74,
                "velocity": 64,
                "duration": 0.25,
                "tempo": 120.0
            },
            {
                "pitch": 81,
                "velocity": 64,
                "duration": 0.25,
                "tempo": 120.0
            },
            {
                "pitch": 76,
                "velocity": 64,
                "duration": 0.25,
                "tempo": 120.0
            },
            {
                "pitch": 74,
                "velocity": 64,
                "duration": 0.2523,
                "tempo": 120.0
            },
            {
                "pitch": 81,
                "velocity": 64,
                "duration": 0.2545,
                "tempo": 120.0
            },
            {
                "pitch": 76,
                "velocity": 64,
                "duration": 0.2568,
                "tempo": 120.0
            },
            {
                "pitch": 74,
                "velocity": 64,
                "duration": 0.2455,
                "tempo": 120.0
            },
            {
                "pitch": 81,
                "velocity": 64,
                "duration": 0.2455,
                "tempo": 120.0
            },
            {
                "pitch": 76,
                "velocity": 64,
                "duration": 0.2545,
                "tempo": 120.0
            },
            {
                "pitch": 74,
                "velocity": 64,
                "duration": 0.2545,
                "tempo": 120.0
            },
            {
                "pitch": 81,
                "velocity": 64,
                "duration": 0.2477,
                "tempo": 120.0
            },
            {
                "pitch": 76,
                "velocity": 64,
                "duration": 0.2455,
                "tempo": 120.0
            },
            {
                "pitch": 74,
                "velocity": 64,
                "duration": 0.2591,
                "tempo": 120.0
            },
            {
                "pitch": 81,
                "velocity": 64,
                "duration": 0.2591,
                "tempo": 120.0
            },
            {
                "pitch": 76,
                "velocity": 64,
                "duration": 0.2545,
                "tempo": 120.0
            },
            {
                "pitch": 74,
                "velocity": 64,
                "duration": 0.2545,
                "tempo": 120.0
            },
            {
                "pitch": 81,
                "velocity": 64,
                "duration": 0.2523,
                "tempo": 120.0
            },
            {
                "pitch": 76,
                "velocity": 64,
                "duration": 0.25,
                "tempo": 120.0
            },
            {
                "pitch": 81,
                "velocity": 64,
                "duration": 0.2455,
                "tempo": 120.0
            },
            {
                "pitch": 76,
                "velocity": 64,
                "duration": 0.2455,
                "tempo": 120.0
            },
            {
                "pitch": 72,
                "velocity": 64,
                "duration": 0.2545,
                "tempo": 120.0
            },
            {
                "pitch": 81,
                "velocity": 64,
                "duration": 0.2545,
                "tempo": 120.0
            },
            {
                "pitch": 76,
                "velocity": 64,
                "duration": 0.25,
                "tempo": 120.0
            },
            {
                "pitch": 72,
                "velocity": 64,
                "duration": 0.25,
                "tempo": 120.0
            },
            {
                "pitch": 81,
                "velocity": 64,
                "duration": 0.2545,
                "tempo": 120.0
            },
            {
                "pitch": 76,
                "velocity": 64,
                "duration": 0.2545,
                "tempo": 120.0
            },
            {
                "pitch": 72,
                "velocity": 64,
                "duration": 0.2523,
                "tempo": 120.0
            },
            {
                "pitch": 81,
                "velocity": 64,
                "duration": 0.25,
                "tempo": 120.0
            },
            {
                "pitch": 76,
                "velocity": 64,
                "duration": 0.25,
                "tempo": 120.0
            },
            {
                "pitch": 72,
                "velocity": 64,
                "duration": 0.25,
                "tempo": 120.0
            },
            {
                "pitch": 81,
                "velocity": 64,
                "duration": 0.25,
                "tempo": 120.0
            },
            {
                "pitch": 76,
                "velocity": 64,
                "duration": 0.25,
                "tempo": 120.0
            },
            {
                "pitch": 72,
                "velocity": 64,
                "duration": 0.2545,
                "tempo": 120.0
            },
            {
                "pitch": 81,
                "velocity": 64,
                "duration": 0.2568,
                "tempo": 120.0
            },
            {
                "pitch": 76,
                "velocity": 64,
                "duration": 0.25,
                "tempo": 120.0
            },
            {
                "pitch": 72,
                "velocity": 64,
                "duration": 0.25,
                "tempo": 120.0
            },
            {
                "pitch": 81,
                "velocity": 64,
                "duration": 0.2545,
                "tempo": 120.0
            },
            {
                "pitch": 76,
                "velocity": 64,
                "duration": 0.2545,
                "tempo": 120.0
            },
            {
                "pitch": 72,
                "velocity": 64,
                "duration": 0.25,
                "tempo": 120.0
            },
            {
                "pitch": 81,
                "velocity": 64,
                "duration": 0.25,
                "tempo": 120.0
            },
            {
                "pitch": 76,
                "velocity": 64,
                "duration": 0.25,
                "tempo": 120.0
            },
            {
                "pitch": 72,
                "velocity": 64,
                "duration": 0.2523,
                "tempo": 120.0
            },
            {
                "pitch": 81,
                "velocity": 64,
                "duration": 0.25,
                "tempo": 120.0
            },
            {
                "pitch": 76,
                "velocity": 64,
                "duration": 0.2523,
                "tempo": 120.0
            },
            {
                "pitch": 72,
                "velocity": 64,
                "duration": 0.2545,
                "tempo": 120.0
            },
            {
                "pitch": 81,
                "velocity": 64,
                "duration": 0.2545,
                "tempo": 120.0
            },
            {
                "pitch": 76,
                "velocity": 64,
                "duration": 0.2523,
                "tempo": 120.0
            },
            {
                "pitch": 72,
                "velocity": 64,
                "duration": 0.25,
                "tempo": 120.0
            },
            {
                "pitch": 81,
                "velocity": 64,
                "duration": 0.2568,
                "tempo": 120.0
            },
            {
                "pitch": 76,
                "velocity": 64,
                "duration": 0.2545,
                "tempo": 120.0
            },
            {
                "pitch": 80,
                "velocity": 64,
                "duration": 0.1182,
                "tempo": 120.0
            },
            {
                "pitch": 80,
                "velocity": 80,
                "duration": 0.1182,
                "tempo": 120.0
            },
            {
                "pitch": 75,
                "velocity": 80,
                "duration": 0.1205,
                "tempo": 120.0
            },
            {
                "pitch": 75,
                "velocity": 80,
                "duration": 0.1205,
                "tempo": 120.0
            },
            {
                "pitch": 71,
                "velocity": 80,
                "duration": 0.1159,
                "tempo": 120.0
            },
            {
                "pitch": 71,
                "velocity": 80,
                "duration": 0.1136,
                "tempo": 120.0
            },
            {
                "pitch": 80,
                "velocity": 80,
                "duration": 0.1136,
                "tempo": 120.0
            },
            {
                "pitch": 80,
                "velocity": 80,
                "duration": 0.1159,
                "tempo": 120.0
            },
            {
                "pitch": 75,
                "velocity": 80,
                "duration": 0.1182,
                "tempo": 120.0
            },
            {
                "pitch": 75,
                "velocity": 80,
                "duration": 0.1159,
                "tempo": 120.0
            },
            {
                "pitch": 71,
                "velocity": 80,
                "duration": 0.1159,
                "tempo": 120.0
            },
            {
                "pitch": 71,
                "velocity": 80,
                "duration": 0.1159,
                "tempo": 120.0
            },
            {
                "pitch": 80,
                "velocity": 80,
                "duration": 0.1205,
                "tempo": 120.0
            },
            {
                "pitch": 80,
                "velocity": 80,
                "duration": 0.1182,
                "tempo": 120.0
            },
            {
                "pitch": 75,
                "velocity": 80,
                "duration": 0.1182,
                "tempo": 120.0
            },
            {
                "pitch": 75,
                "velocity": 80,
                "duration": 0.1182,
                "tempo": 120.0
            },
            {
                "pitch": 71,
                "velocity": 80,
                "duration": 0.1159,
                "tempo": 120.0
            },
            {
                "pitch": 71,
                "velocity": 80,
                "duration": 0.1182,
                "tempo": 120.0
            },
            {
                "pitch": 80,
                "velocity": 80,
                "duration": 0.1182,
                "tempo": 120.0
            },
            {
                "pitch": 80,
                "velocity": 80,
                "duration": 0.1159,
                "tempo": 120.0
            },
            {
                "pitch": 75,
                "velocity": 80,
                "duration": 0.1182,
                "tempo": 120.0
            },
            {
                "pitch": 75,
                "velocity": 80,
                "duration": 0.1182,
                "tempo": 120.0
            },
            {
                "pitch": 71,
                "velocity": 80,
                "duration": 0.1205,
                "tempo": 120.0
            },
            {
                "pitch": 71,
                "velocity": 80,
                "duration": 0.1205,
                "tempo": 120.0
            },
            {
                "pitch": 80,
                "velocity": 80,
                "duration": 0.1182,
                "tempo": 120.0
            },
            {
                "pitch": 80,
                "velocity": 80,
                "duration": 0.1159,
                "tempo": 120.0
            },
            {
                "pitch": 75,
                "velocity": 80,
                "duration": 0.1159,
                "tempo": 120.0
            },
            {
                "pitch": 75,
                "velocity": 80,
                "duration": 0.1182,
                "tempo": 120.0
            },
            {
                "pitch": 71,
                "velocity": 80,
                "duration": 0.1182,
                "tempo": 120.0
            },
            {
                "pitch": 71,
                "velocity": 80,
                "duration": 0.1159,
                "tempo": 120.0
            },
            {
                "pitch": 80,
                "velocity": 80,
                "duration": 0.1159,
                "tempo": 120.0
            },
            {
                "pitch": 80,
                "velocity": 80,
                "duration": 0.1159,
                "tempo": 120.0
            },
            {
                "pitch": 75,
                "velocity": 80,
                "duration": 0.1182,
                "tempo": 120.0
            },
            {
                "pitch": 75,
                "velocity": 80,
                "duration": 0.1182,
                "tempo": 120.0
            },
            {
                "pitch": 71,
                "velocity": 80,
                "duration": 0.1159,
                "tempo": 120.0
            },
            {
                "pitch": 71,
                "velocity": 80,
                "duration": 0.1159,
                "tempo": 120.0
            },
            {
                "pitch": 80,
                "velocity": 80,
                "duration": 0.1182,
                "tempo": 120.0
            },
            {
                "pitch": 80,
                "velocity": 80,
                "duration": 0.1205,
                "tempo": 120.0
            },
            {
                "pitch": 75,
                "velocity": 80,
                "duration": 0.1205,
                "tempo": 120.0
            },
            {
                "pitch": 75,
                "velocity": 80,
                "duration": 0.1182,
                "tempo": 120.0
            },
            {
                "pitch": 71,
                "velocity": 80,
                "duration": 0.1159,
                "tempo": 120.0
            },
            {
                "pitch": 71,
                "velocity": 80,
                "duration": 0.1159,
                "tempo": 120.0
            },
            {
                "pitch": 80,
                "velocity": 80,
                "duration": 0.1182,
                "tempo": 120.0
            },
            {
                "pitch": 80,
                "velocity": 80,
                "duration": 0.1182,
                "tempo": 120.0
            },
            {
                "pitch": 75,
                "velocity": 80,
                "duration": 0.1182,
                "tempo": 120.0
            },
            {
                "pitch": 75,
                "velocity": 80,
                "duration": 0.1182,
                "tempo": 120.0
            },
            {
                "pitch": 71,
                "velocity": 80,
                "duration": 0.1182,
                "tempo": 120.0
            },
            {
                "pitch": 71,
                "velocity": 80,
                "duration": 0.1205,
                "tempo": 120.0
            },
            {
                "pitch": 80,
                "velocity": 80,
                "duration": 0.1182,
                "tempo": 120.0
            },
            {
                "pitch": 80,
                "velocity": 80,
                "duration": 0.1182,
                "tempo": 120.0
            },
            {
                "pitch": 75,
                "velocity": 80,
                "duration": 0.1159,
                "tempo": 120.0
            },
            {
                "pitch": 75,
                "velocity": 80,
                "duration": 0.1159,
                "tempo": 120.0
            },
            {
                "pitch": 71,
                "velocity": 80,
                "duration": 0.1182,
                "tempo": 120.0
            },
            {
                "pitch": 71,
                "velocity": 80,
                "duration": 0.1182,
                "tempo": 120.0
            },
            {
                "pitch": 80,
                "velocity": 80,
                "duration": 0.1159,
                "tempo": 120.0
            },
            {
                "pitch": 80,
                "velocity": 80,
                "duration": 0.1159,
                "tempo": 120.0
            },
            {
                "pitch": 75,
                "velocity": 80,
                "duration": 0.1159,
                "tempo": 120.0
            },
            {
                "pitch": 75,
                "velocity": 80,
                "duration": 0.1182,
                "tempo": 120.0
            },
            {
                "pitch": 71,
                "velocity": 80,
                "duration": 0.1182,
                "tempo": 120.0
            },
            {
                "pitch": 71,
                "velocity": 80,
                "duration": 0.1159,
                "tempo": 120.0
            },
            {
                "pitch": 80,
                "velocity": 80,
                "duration": 0.1182,
                "tempo": 120.0
            },
            {
                "pitch": 80,
                "velocity": 80,
                "duration": 0.1182,
                "tempo": 120.0
            },
            {
                "pitch": 75,
                "velocity": 80,
                "duration": 0.1205,
                "tempo": 120.0
            },
            {
                "pitch": 75,
                "velocity": 80,
                "duration": 0.1205,
                "tempo": 120.0
            }
        ],
        "Vibraphone": [
            {
                "pitch": 61,
                "velocity": 80,
                "duration": 2.1386,
                "tempo": 120.0
            },
            {
                "pitch": 61,
                "velocity": 80,
                "duration": 2.1386,
                "tempo": 120.0
            },
            {
                "pitch": 61,
                "velocity": 80,
                "duration": 2.1295,
                "tempo": 120.0
            },
            {
                "pitch": 61,
                "velocity": 80,
                "duration": 2.1295,
                "tempo": 120.0
            },
            {
                "pitch": 61,
                "velocity": 80,
                "duration": 2.1318,
                "tempo": 120.0
            },
            {
                "pitch": 61,
                "velocity": 80,
                "duration": 2.1386,
                "tempo": 120.0
            },
            {
                "pitch": 61,
                "velocity": 80,
                "duration": 2.1295,
                "tempo": 120.0
            }
        ]
    }
}