{
    "track_id": "Ys (FM) - 01 - Feena",
    "mood": "relaxed",
    "instruments": {
        "Electric Piano 1": [
            {
                "pitch": 66,
                "velocity": 101,
                "duration": 0.3386,
                "tempo": 120.0
            },
            {
                "pitch": 64,
                "velocity": 101,
                "duration": 0.3364,
                "tempo": 120.0
            },
            {
                "pitch": 66,
                "velocity": 101,
                "duration": 0.3386,
                "tempo": 120.0
            },
            {
                "pitch": 71,
                "velocity": 101,
                "duration": 0.3386,
                "tempo": 120.0
            },
            {
                "pitch": 66,
                "velocity": 101,
                "duration": 3.1545,
                "tempo": 120.0
            },
            {
                "pitch": 64,
                "velocity": 101,
                "duration": 1.5341,
                "tempo": 120.0
            },
            {
                "pitch": 66,
                "velocity": 101,
                "duration": 0.3386,
                "tempo": 120.0
            },
            {
                "pitch": 64,
                "velocity": 101,
                "duration": 0.3386,
                "tempo": 120.0
            },
            {
                "pitch": 66,
                "velocity": 101,
                "duration": 0.3364,
                "tempo": 120.0
            },
            {
                "pitch": 71,
                "velocity": 101,
                "duration": 0.3386,
                "tempo": 120.0
            },
            {
                "pitch": 66,
                "velocity": 101,
                "duration": 3.1523,
                "tempo": 120.0
            },
            {
                "pitch": 62,
                "velocity": 101,
                "duration": 1.5341,
                "tempo": 120.0
            },
            {
                "pitch": 64,
                "velocity": 101,
                "duration": 1.5545,
                "tempo": 120.0
            },
            {
                "pitch": 69,
                "velocity": 101,
                "duration": 6.3568,
                "tempo": 120.0
            },
            {
                "pitch": 66,
                "velocity": 101,
                "duration": 0.3386,
                "tempo": 120.0
            },
            {
                "pitch": 64,
                "velocity": 101,
                "duration": 0.3386,
                "tempo": 120.0
            },
            {
                "pitch": 66,
                "velocity": 101,
                "duration": 0.3364,
                "tempo": 120.0
            },
            {
                "pitch": 71,
                "velocity": 101,
                "duration": 0.3386,
                "tempo": 120.0
            },
            {
                "pitch": 66,
                "velocity": 101,
                "duration": 3.1318,
                "tempo": 120.0
            },
            {
                "pitch": 64,
                "velocity": 101,
                "duration": 1.5523,
                "tempo": 120.0
            },
            {
                "pitch": 66,
                "velocity": 101,
                "duration": 0.3341,
                "tempo": 120.0
            },
            {
                "pitch": 64,
                "velocity": 101,
                "duration": 0.3341,
                "tempo": 120.0
            },
            {
                "pitch": 66,
                "velocity": 101,
                "duration": 0.3341,
                "tempo": 120.0
            },
            {
                "pitch": 71,
                "velocity": 101,
                "duration": 0.3341,
                "tempo": 120.0
            },
            {
                "pitch": 66,
                "velocity": 101,
                "duration": 3.1545,
                "tempo": 120.0
            },
            {
                "pitch": 62,
                "velocity": 101,
                "duration": 1.5318,
                "tempo": 120.0
            },
            {
                "pitch": 64,
                "velocity": 101,
                "duration": 1.5523,
                "tempo": 120.0
            },
            {
                "pitch": 57,
                "velocity": 101,
                "duration": 3.1545,
                "tempo": 120.0
            },
            {
                "pitch": 60,
                "velocity": 101,
                "duration": 1.5341,
                "tempo": 120.0
            },
            {
                "pitch": 64,
                "velocity": 101,
                "duration": 1.5341,
                "tempo": 120.0
            },
            {
                "pitch": 57,
                "velocity": 101,
                "duration": 3.1568,
                "tempo": 120.0
            },
            {
                "pitch": 62,
                "velocity": 101,
                "duration": 1.5545,
                "tempo": 120.0
            },
            {
                "pitch": 59,
                "velocity": 101,
                "duration": 12.8205,
                "tempo": 120.0
            },
            {
                "pitch": 64,
                "velocity": 101,
                "duration": 0.3341,
                "tempo": 120.0
            },
            {
                "pitch": 62,
                "velocity": 101,
                "duration": 0.3341,
                "tempo": 120.0
            },
            {
                "pitch": 64,
                "velocity": 101,
                "duration": 2.3341,
                "tempo": 120.0
            },
            {
                "pitch": 57,
                "velocity": 101,
                "duration": 0.7432,
                "tempo": 120.0
            },
            {
                "pitch": 59,
                "velocity": 101,
                "duration": 0.7432,
                "tempo": 120.0
            },
            {
                "pitch": 60,
                "velocity": 101,
                "duration": 0.7318,
                "tempo": 120.0
            },
            {
                "pitch": 62,
                "velocity": 101,
                "duration": 0.7318,
                "tempo": 120.0
            },
            {
                "pitch": 64,
                "velocity": 101,
                "duration": 0.3364,
                "tempo": 120.0
            },
            {
                "pitch": 62,
                "velocity": 101,
                "duration": 0.3386,
                "tempo": 120.0
            },
            {
                "pitch": 64,
                "velocity": 101,
                "duration": 2.325,
                "tempo": 120.0
            },
            {
                "pitch": 57,
                "velocity": 101,
                "duration": 0.7432,
                "tempo": 120.0
            },
            {
                "pitch": 59,
                "velocity": 101,
                "duration": 0.7432,
                "tempo": 120.0
            },
            {
                "pitch": 60,
                "velocity": 101,
                "duration": 0.7432,
                "tempo": 120.0
            },
            {
                "pitch": 64,
                "velocity": 101,
                "duration": 0.7432,
                "tempo": 120.0
            },
            {
                "pitch": 62,
                "velocity": 101,
                "duration": 0.3364,
                "tempo": 120.0
            },
            {
                "pitch": 60,
                "velocity": 101,
                "duration": 0.3386,
                "tempo": 120.0
            },
            {
                "pitch": 62,
                "velocity": 101,
                "duration": 2.3455,
                "tempo": 120.0
            },
            {
                "pitch": 55,
                "velocity": 101,
                "duration": 0.7341,
                "tempo": 120.0
            },
            {
                "pitch": 57,
                "velocity": 101,
                "duration": 0.7341,
                "tempo": 120.0
            },
            {
                "pitch": 59,
                "velocity": 101,
                "duration": 0.7341,
                "tempo": 120.0
            },
            {
                "pitch": 60,
                "velocity": 101,
                "duration": 0.7341,
                "tempo": 120.0
            },
            {
                "pitch": 62,
                "velocity": 101,
                "duration": 0.3386,
                "tempo": 120.0
            },
            {
                "pitch": 60,
                "velocity": 101,
                "duration": 0.3386,
                "tempo": 120.0
            },
            {
                "pitch": 62,
                "velocity": 101,
                "duration": 2.3432,
                "tempo": 120.0
            },
            {
                "pitch": 55,
                "velocity": 101,
                "duration": 0.7318,
                "tempo": 120.0
            },
            {
                "pitch": 57,
                "velocity": 101,
                "duration": 0.7318,
                "tempo": 120.0
            },
            {
                "pitch": 59,
                "velocity": 101,
                "duration": 0.7318,
                "tempo": 120.0
            },
            {
                "pitch": 62,
                "velocity": 101,
                "duration": 0.7318,
                "tempo": 120.0
            },
            {
                "pitch": 64,
                "velocity": 101,
                "duration": 0.3364,
                "tempo": 120.0
            },
            {
                "pitch": 62,
                "velocity": 101,
                "duration": 0.3364,
                "tempo": 120.0
            },
            {
                "pitch": 64,
                "velocity": 101,
                "duration": 2.325,
                "tempo": 120.0
            },
            {
                "pitch": 57,
                "velocity": 101,
                "duration": 0.7432,
                "tempo": 120.0
            },
            {
                "pitch": 59,
                "velocity": 101,
                "duration": 0.7432,
                "tempo": 120.0
            },
            {
                "pitch": 60,
                "velocity": 101,
                "duration": 0.7341,
                "tempo": 120.0
            },
            {
                "pitch": 62,
                "velocity": 101,
                "duration": 0.7341,
                "tempo": 120.0
            },
            {
                "pitch": 64,
                "velocity": 101,
                "duration": 0.3386,
                "tempo": 120.0
            },
            {
                "pitch": 62,
                "velocity": 101,
                "duration": 0.3386,
                "tempo": 120.0
            },
            {
                "pitch": 64,
                "velocity": 101,
                "duration": 2.3227,
                "tempo": 120.0
            },
            {
                "pitch": 57,
                "velocity": 101,
                "duration": 0.7432,
                "tempo": 120.0
            },
            {
                "pitch": 59,
                "velocity": 101,
                "duration": 0.7432,
                "tempo": 120.0
            },
            {
                "pitch": 60,
                "velocity": 101,
                "duration": 0.7341,
                "tempo": 120.0
            }
        ],
        "Church Organ": [
            {
                "pitch": 66,
                "velocity": 51,
                "duration": 0.2659,
                "tempo": 120.0
            },
            {
                "pitch": 71,
                "velocity": 51,
                "duration": 1.5341,
                "tempo": 120.0
            },
            {
                "pitch": 69,
                "velocity": 51,
                "duration": 1.525,
                "tempo": 120.0
            },
            {
                "pitch": 68,
                "velocity": 51,
                "duration": 1.5159,
                "tempo": 120.0
            },
            {
                "pitch": 66,
                "velocity": 51,
                "duration": 1.5659,
                "tempo": 120.0
            },
            {
                "pitch": 69,
                "velocity": 51,
                "duration": 1.4909,
                "tempo": 120.0
            },
            {
                "pitch": 68,
                "velocity": 51,
                "duration": 1.5386,
                "tempo": 120.0
            },
            {
                "pitch": 66,
                "velocity": 51,
                "duration": 1.5477,
                "tempo": 120.0
            },
            {
                "pitch": 64,
                "velocity": 51,
                "duration": 1.5318,
                "tempo": 120.0
            },
            {
                "pitch": 71,
                "velocity": 51,
                "duration": 1.5318,
                "tempo": 120.0
            },
            {
                "pitch": 69,
                "velocity": 51,
                "duration": 1.5386,
                "tempo": 120.0
            },
            {
                "pitch": 68,
                "velocity": 51,
                "duration": 1.55,
                "tempo": 120.0
            },
            {
                "pitch": 66,
                "velocity": 51,
                "duration": 1.5386,
                "tempo": 120.0
            },
            {
                "pitch": 69,
                "velocity": 51,
                "duration": 1.5545,
                "tempo": 120.0
            },
            {
                "pitch": 68,
                "velocity": 51,
                "duration": 1.55,
                "tempo": 120.0
            },
            {
                "pitch": 66,
                "velocity": 51,
                "duration": 1.5386,
                "tempo": 120.0
            },
            {
                "pitch": 64,
                "velocity": 51,
                "duration": 1.5477,
                "tempo": 120.0
            },
            {
                "pitch": 64,
                "velocity": 51,
                "duration": 3.1545,
                "tempo": 120.0
            },
            {
                "pitch": 63,
                "velocity": 51,
                "duration": 3.1727,
                "tempo": 120.0
            },
            {
                "pitch": 61,
                "velocity": 51,
                "duration": 3.15,
                "tempo": 120.0
            },
            {
                "pitch": 63,
                "velocity": 51,
                "duration": 3.2295,
                "tempo": 120.0
            },
            {
                "pitch": 64,
                "velocity": 51,
                "duration": 3.0909,
                "tempo": 120.0
            },
            {
                "pitch": 63,
                "velocity": 51,
                "duration": 3.2023,
                "tempo": 120.0
            },
            {
                "pitch": 61,
                "velocity": 51,
                "duration": 3.1364,
                "tempo": 120.0
            },
            {
                "pitch": 63,
                "velocity": 51,
                "duration": 3.1455,
                "tempo": 120.0
            }
        ],
        "Trumpet": [
            {
                "pitch": 40,
                "velocity": 64,
                "duration": 6.4409,
                "tempo": 120.0
            },
            {
                "pitch": 40,
                "velocity": 64,
                "duration": 6.3341,
                "tempo": 120.0
            },
            {
                "pitch": 40,
                "velocity": 64,
                "duration": 6.3773,
                "tempo": 120.0
            },
            {
                "pitch": 40,
                "velocity": 64,
                "duration": 6.3773,
                "tempo": 120.0
            },
            {
                "pitch": 41,
                "velocity": 64,
                "duration": 6.3955,
                "tempo": 120.0
            },
            {
                "pitch": 41,
                "velocity": 64,
                "duration": 6.3136,
                "tempo": 120.0
            },
            {
                "pitch": 40,
                "velocity": 64,
                "duration": 6.375,
                "tempo": 120.0
            },
            {
                "pitch": 40,
                "velocity": 64,
                "duration": 6.3545,
                "tempo": 120.0
            },
            {
                "pitch": 41,
                "velocity": 64,
                "duration": 6.375,
                "tempo": 120.0
            },
            {
                "pitch": 41,
                "velocity": 64,
                "duration": 6.3773,
                "tempo": 120.0
            },
            {
                "pitch": 40,
                "velocity": 64,
                "duration": 6.3773,
                "tempo": 120.0
            },
            {
                "pitch": 40,
                "velocity": 51,
                "duration": 6.3773,
                "tempo": 120.0
            },
            {
                "pitch": 40,
                "velocity": 40,
                "duration": 6.3977,
                "tempo": 120.0
            },
            {
                "pitch": 40,
                "velocity": 32,
                "duration": 6.3341,
                "tempo": 120.0
            },
            {
                "pitch": 41,
                "velocity": 64,
                "duration": 6.3545,
                "tempo": 120.0
            },
            {
                "pitch": 41,
                "velocity": 64,
                "duration": 6.375,
                "tempo": 120.0
            },
            {
                "pitch": 40,
                "velocity": 64,
                "duration": 6.3545,
                "tempo": 120.0
            },
            {
                "pitch": 40,
                "velocity": 64,
                "duration": 6.3545,
                "tempo": 120.0
            },
            {
                "pitch": 41,
                "velocity": 64,
                "duration": 6.3545,
                "tempo": 120.0
            }
        ],
        "Acoustic Grand Piano": [
            {
                "pitch": 55,
                "velocity": 51,
                "duration": 0.3364,
                "tempo": 120.0
            },
            {
                "pitch": 55,
                "velocity": 51,
                "duration": 0.7432,
                "tempo": 120.0
            },
            {
                "pitch": 55,
                "velocity": 51,
                "duration": 3.6023,
                "tempo": 120.0
            },
            {
                "pitch": 55,
                "velocity": 51,
                "duration": 0.3295,
                "tempo": 120.0
            },
            {
                "pitch": 55,
                "velocity": 51,
                "duration": 0.7227,
                "tempo": 120.0
            },
            {
                "pitch": 55,
                "velocity": 51,
                "duration": 3.55,
                "tempo": 120.0
            },
            {
                "pitch": 55,
                "velocity": 51,
                "duration": 0.3364,
                "tempo": 120.0
            },
            {
                "pitch": 55,
                "velocity": 51,
                "duration": 0.7432,
                "tempo": 120.0
            },
            {
                "pitch": 55,
                "velocity": 51,
                "duration": 3.5386,
                "tempo": 120.0
            },
            {
                "pitch": 55,
                "velocity": 51,
                "duration": 0.3318,
                "tempo": 120.0
            },
            {
                "pitch": 55,
                "velocity": 51,
                "duration": 0.7318,
                "tempo": 120.0
            },
            {
                "pitch": 55,
                "velocity": 51,
                "duration": 3.5545,
                "tempo": 120.0
            },
            {
                "pitch": 55,
                "velocity": 51,
                "duration": 0.3341,
                "tempo": 120.0
            },
            {
                "pitch": 55,
                "velocity": 51,
                "duration": 0.7341,
                "tempo": 120.0
            },
            {
                "pitch": 55,
                "velocity": 51,
                "duration": 3.575,
                "tempo": 120.0
            },
            {
                "pitch": 55,
                "velocity": 51,
                "duration": 0.3341,
                "tempo": 120.0
            },
            {
                "pitch": 55,
                "velocity": 51,
                "duration": 0.7341,
                "tempo": 120.0
            },
            {
                "pitch": 55,
                "velocity": 51,
                "duration": 3.5341,
                "tempo": 120.0
            },
            {
                "pitch": 55,
                "velocity": 51,
                "duration": 0.3318,
                "tempo": 120.0
            },
            {
                "pitch": 55,
                "velocity": 51,
                "duration": 0.7318,
                "tempo": 120.0
            },
            {
                "pitch": 55,
                "velocity": 51,
                "duration": 3.5523,
                "tempo": 120.0
            },
            {
                "pitch": 55,
                "velocity": 51,
                "duration": 0.3386,
                "tempo": 120.0
            },
            {
                "pitch": 55,
                "velocity": 51,
                "duration": 0.7432,
                "tempo": 120.0
            },
            {
                "pitch": 55,
                "velocity": 51,
                "duration": 3.5386,
                "tempo": 120.0
            },
            {
                "pitch": 55,
                "velocity": 51,
                "duration": 0.3341,
                "tempo": 120.0
            },
            {
                "pitch": 55,
                "velocity": 51,
                "duration": 0.7341,
                "tempo": 120.0
            },
            {
                "pitch": 55,
                "velocity": 51,
                "duration": 3.5545,
                "tempo": 120.0
            },
            {
                "pitch": 55,
                "velocity": 51,
                "duration": 0.3386,
                "tempo": 120.0
            },
            {
                "pitch": 55,
                "velocity": 51,
                "duration": 0.7432,
                "tempo": 120.0
            },
            {
                "pitch": 55,
                "velocity": 51,
                "duration": 3.5591,
                "tempo": 120.0
            },
            {
                "pitch": 54,
                "velocity": 51,
                "duration": 6.3773,
                "tempo": 120.0
            },
            {
                "pitch": 54,
                "velocity": 40,
                "duration": 6.3773,
                "tempo": 120.0
            },
            {
                "pitch": 54,
                "velocity": 32,
                "duration": 6.3977,
                "tempo": 120.0
            },
            {
                "pitch": 54,
                "velocity": 25,
                "duration": 6.3341,
                "tempo": 120.0
            }
        ],
        "Flute": [
            {
                "pitch": 64,
                "velocity": 51,
                "duration": 6.2864,
                "tempo": 120.0
            },
            {
                "pitch": 64,
                "velocity": 51,
                "duration": 6.2955,
                "tempo": 120.0
            },
            {
                "pitch": 64,
                "velocity": 51,
                "duration": 6.3545,
                "tempo": 120.0
            },
            {
                "pitch": 64,
                "velocity": 51,
                "duration": 6.3955,
                "tempo": 120.0
            },
            {
                "pitch": 66,
                "velocity": 51,
                "duration": 6.375,
                "tempo": 120.0
            },
            {
                "pitch": 66,
                "velocity": 51,
                "duration": 6.4659,
                "tempo": 120.0
            },
            {
                "pitch": 66,
                "velocity": 51,
                "duration": 6.3568,
                "tempo": 120.0
            },
            {
                "pitch": 66,
                "velocity": 51,
                "duration": 6.3568,
                "tempo": 120.0
            }
        ],
        "Vibraphone": [
            {
                "pitch": 76,
                "velocity": 51,
                "duration": 0.3341,
                "tempo": 120.0
            },
            {
                "pitch": 72,
                "velocity": 51,
                "duration": 0.3341,
                "tempo": 120.0
            },
            {
                "pitch": 69,
                "velocity": 51,
                "duration": 0.3341,
                "tempo": 120.0
            },
            {
                "pitch": 65,
                "velocity": 51,
                "duration": 0.3341,
                "tempo": 120.0
            },
            {
                "pitch": 76,
                "velocity": 51,
                "duration": 0.3341,
                "tempo": 120.0
            },
            {
                "pitch": 72,
                "velocity": 51,
                "duration": 0.3341,
                "tempo": 120.0
            },
            {
                "pitch": 69,
                "velocity": 51,
                "duration": 0.3341,
                "tempo": 120.0
            },
            {
                "pitch": 65,
                "velocity": 51,
                "duration": 0.3341,
                "tempo": 120.0
            },
            {
                "pitch": 76,
                "velocity": 51,
                "duration": 0.3386,
                "tempo": 120.0
            },
            {
                "pitch": 72,
                "velocity": 51,
                "duration": 0.3364,
                "tempo": 120.0
            },
            {
                "pitch": 69,
                "velocity": 51,
                "duration": 0.3386,
                "tempo": 120.0
            },
            {
                "pitch": 65,
                "velocity": 51,
                "duration": 0.3386,
                "tempo": 120.0
            },
            {
                "pitch": 76,
                "velocity": 51,
                "duration": 0.3318,
                "tempo": 120.0
            },
            {
                "pitch": 72,
                "velocity": 51,
                "duration": 0.3318,
                "tempo": 120.0
            },
            {
                "pitch": 69,
                "velocity": 51,
                "duration": 0.3318,
                "tempo": 120.0
            },
            {
                "pitch": 65,
                "velocity": 51,
                "duration": 0.3318,
                "tempo": 120.0
            },
            {
                "pitch": 76,
                "velocity": 51,
                "duration": 0.3364,
                "tempo": 120.0
            },
            {
                "pitch": 72,
                "velocity": 51,
                "duration": 0.3386,
                "tempo": 120.0
            },
            {
                "pitch": 69,
                "velocity": 51,
                "duration": 0.3386,
                "tempo": 120.0
            },
            {
                "pitch": 65,
                "velocity": 51,
                "duration": 0.3364,
                "tempo": 120.0
            },
            {
                "pitch": 76,
                "velocity": 51,
                "duration": 0.3295,
                "tempo": 120.0
            },
            {
                "pitch": 72,
                "velocity": 51,
                "duration": 0.3273,
                "tempo": 120.0
            },
            {
                "pitch": 69,
                "velocity": 51,
                "duration": 0.3295,
                "tempo": 120.0
            },
            {
                "pitch": 65,
                "velocity": 51,
                "duration": 0.3295,
                "tempo": 120.0
            },
            {
                "pitch": 76,
                "velocity": 51,
                "duration": 0.3364,
                "tempo": 120.0
            },
            {
                "pitch": 72,
                "velocity": 51,
                "duration": 0.3386,
                "tempo": 120.0
            },
            {
                "pitch": 69,
                "velocity": 51,
                "duration": 0.3386,
                "tempo": 120.0
            },
            {
                "pitch": 65,
                "velocity": 51,
                "duration": 0.3364,
                "tempo": 120.0
            },
            {
                "pitch": 76,
                "velocity": 51,
                "duration": 0.3386,
                "tempo": 120.0
            },
            {
                "pitch": 72,
                "velocity": 51,
                "duration": 0.3364,
                "tempo": 120.0
            },
            {
                "pitch": 69,
                "velocity": 51,
                "duration": 0.3386,
                "tempo": 120.0
            },
            {
                "pitch": 65,
                "velocity": 51,
                "duration": 0.3386,
                "tempo": 120.0
            },
            {
                "pitch": 74,
                "velocity": 51,
                "duration": 0.3364,
                "tempo": 120.0
            },
            {
                "pitch": 71,
                "velocity": 51,
                "duration": 0.3386,
                "tempo": 120.0
            },
            {
                "pitch": 67,
                "velocity": 51,
                "duration": 0.3386,
                "tempo": 120.0
            },
            {
                "pitch": 64,
                "velocity": 51,
                "duration": 0.3364,
                "tempo": 120.0
            },
            {
                "pitch": 74,
                "velocity": 51,
                "duration": 0.3341,
                "tempo": 120.0
            },
            {
                "pitch": 71,
                "velocity": 51,
                "duration": 0.3341,
                "tempo": 120.0
            },
            {
                "pitch": 67,
                "velocity": 51,
                "duration": 0.3341,
                "tempo": 120.0
            },
            {
                "pitch": 64,
                "velocity": 51,
                "duration": 0.3341,
                "tempo": 120.0
            },
            {
                "pitch": 74,
                "velocity": 51,
                "duration": 0.3341,
                "tempo": 120.0
            },
            {
                "pitch": 71,
                "velocity": 51,
                "duration": 0.3341,
                "tempo": 120.0
            },
            {
                "pitch": 67,
                "velocity": 51,
                "duration": 0.3341,
                "tempo": 120.0
            },
            {
                "pitch": 64,
                "velocity": 51,
                "duration": 0.3341,
                "tempo": 120.0
            },
            {
                "pitch": 74,
                "velocity": 51,
                "duration": 0.3341,
                "tempo": 120.0
            },
            {
                "pitch": 71,
                "velocity": 51,
                "duration": 0.3341,
                "tempo": 120.0
            },
            {
                "pitch": 67,
                "velocity": 51,
                "duration": 0.3341,
                "tempo": 120.0
            },
            {
                "pitch": 64,
                "velocity": 51,
                "duration": 0.3341,
                "tempo": 120.0
            },
            {
                "pitch": 74,
                "velocity": 51,
                "duration": 0.3386,
                "tempo": 120.0
            },
            {
                "pitch": 71,
                "velocity": 51,
                "duration": 0.3386,
                "tempo": 120.0
            },
            {
                "pitch": 67,
                "velocity": 51,
                "duration": 0.3364,
                "tempo": 120.0
            },
            {
                "pitch": 64,
                "velocity": 51,
                "duration": 0.3386,
                "tempo": 120.0
            },
            {
                "pitch": 74,
                "velocity": 51,
                "duration": 0.3318,
                "tempo": 120.0
            },
            {
                "pitch": 71,
                "velocity": 51,
                "duration": 0.3318,
                "tempo": 120.0
            },
            {
                "pitch": 67,
                "velocity": 51,
                "duration": 0.3318,
                "tempo": 120.0
            },
            {
                "pitch": 64,
                "velocity": 51,
                "duration": 0.3318,
                "tempo": 120.0
            },
            {
                "pitch": 74,
                "velocity": 51,
                "duration": 0.3318,
                "tempo": 120.0
            },
            {
                "pitch": 71,
                "velocity": 51,
                "duration": 0.3318,
                "tempo": 120.0
            },
            {
                "pitch": 67,
                "velocity": 51,
                "duration": 0.3318,
                "tempo": 120.0
            },
            {
                "pitch": 64,
                "velocity": 51,
                "duration": 0.3318,
                "tempo": 120.0
            },
            {
                "pitch": 74,
                "velocity": 51,
                "duration": 0.3318,
                "tempo": 120.0
            },
            {
                "pitch": 71,
                "velocity": 51,
                "duration": 0.3318,
                "tempo": 120.0
            },
            {
                "pitch": 67,
                "velocity": 51,
                "duration": 0.3318,
                "tempo": 120.0
            },
            {
                "pitch": 64,
                "velocity": 51,
                "duration": 0.3318,
                "tempo": 120.0
            },
            {
                "pitch": 76,
                "velocity": 51,
                "duration": 0.3364,
                "tempo": 120.0
            },
            {
                "pitch": 72,
                "velocity": 51,
                "duration": 0.3364,
                "tempo": 120.0
            },
            {
                "pitch": 69,
                "velocity": 51,
                "duration": 0.3386,
                "tempo": 120.0
            },
            {
                "pitch": 65,
                "velocity": 51,
                "duration": 0.3364,
                "tempo": 120.0
            },
            {
                "pitch": 76,
                "velocity": 51,
                "duration": 0.3273,
                "tempo": 120.0
            },
            {
                "pitch": 72,
                "velocity": 51,
                "duration": 0.3295,
                "tempo": 120.0
            },
            {
                "pitch": 69,
                "velocity": 51,
                "duration": 0.3295,
                "tempo": 120.0
            },
            {
                "pitch": 65,
                "velocity": 51,
                "duration": 0.3295,
                "tempo": 120.0
            },
            {
                "pitch": 76,
                "velocity": 51,
                "duration": 0.3386,
                "tempo": 120.0
            },
            {
                "pitch": 72,
                "velocity": 51,
                "duration": 0.3364,
                "tempo": 120.0
            },
            {
                "pitch": 69,
                "velocity": 51,
                "duration": 0.3386,
                "tempo": 120.0
            },
            {
                "pitch": 65,
                "velocity": 51,
                "duration": 0.3364,
                "tempo": 120.0
            },
            {
                "pitch": 76,
                "velocity": 51,
                "duration": 0.3341,
                "tempo": 120.0
            },
            {
                "pitch": 72,
                "velocity": 51,
                "duration": 0.3341,
                "tempo": 120.0
            },
            {
                "pitch": 69,
                "velocity": 51,
                "duration": 0.3341,
                "tempo": 120.0
            },
            {
                "pitch": 65,
                "velocity": 51,
                "duration": 0.3341,
                "tempo": 120.0
            },
            {
                "pitch": 76,
                "velocity": 51,
                "duration": 0.3386,
                "tempo": 120.0
            },
            {
                "pitch": 72,
                "velocity": 51,
                "duration": 0.3386,
                "tempo": 120.0
            },
            {
                "pitch": 69,
                "velocity": 51,
                "duration": 0.3364,
                "tempo": 120.0
            },
            {
                "pitch": 65,
                "velocity": 51,
                "duration": 0.3386,
                "tempo": 120.0
            },
            {
                "pitch": 76,
                "velocity": 51,
                "duration": 0.3295,
                "tempo": 120.0
            },
            {
                "pitch": 72,
                "velocity": 51,
                "duration": 0.3295,
                "tempo": 120.0
            },
            {
                "pitch": 69,
                "velocity": 51,
                "duration": 0.3295,
                "tempo": 120.0
            },
            {
                "pitch": 65,
                "velocity": 51,
                "duration": 0.3295,
                "tempo": 120.0
            },
            {
                "pitch": 76,
                "velocity": 51,
                "duration": 0.3386,
                "tempo": 120.0
            },
            {
                "pitch": 72,
                "velocity": 51,
                "duration": 0.3386,
                "tempo": 120.0
            },
            {
                "pitch": 69,
                "velocity": 51,
                "duration": 0.3364,
                "tempo": 120.0
            },
            {
                "pitch": 65,
                "velocity": 51,
                "duration": 0.3386,
                "tempo": 120.0
            },
            {
                "pitch": 76,
                "velocity": 51,
                "duration": 0.3341,
                "tempo": 120.0
            },
            {
                "pitch": 72,
                "velocity": 51,
                "duration": 0.3341,
                "tempo": 120.0
            },
            {
                "pitch": 69,
                "velocity": 51,
                "duration": 0.3341,
                "tempo": 120.0
            }
        ]
    }
}