{
    "mood": "relaxed",
    "instruments": {
        "Flute": [
            {
                "start_time": 15.0886364,
                "end_time": 15.7159091,
                "pitch": 79,
                "velocity": 40,
                "duration": 0.6272727,
                "tempo": 120.0
            },
            {
                "start_time": 15.7159091,
                "end_time": 15.85,
                "pitch": 79,
                "velocity": 40,
                "duration": 0.1340909,
                "tempo": 120.0
            },
            {
                "start_time": 15.7159091,
                "end_time": 15.85,
                "pitch": 91,
                "velocity": 40,
                "duration": 0.1340909,
                "tempo": 120.0
            },
            {
                "start_time": 15.85,
                "end_time": 15.9,
                "pitch": 79,
                "velocity": 40,
                "duration": 0.05,
                "tempo": 120.0
            },
            {
                "start_time": 15.9,
                "end_time": 17.2386364,
                "pitch": 79,
                "velocity": 40,
                "duration": 1.3386364,
                "tempo": 120.0
            },
            {
                "start_time": 17.2386364,
                "end_time": 17.8659091,
                "pitch": 79,
                "velocity": 40,
                "duration": 0.6272727,
                "tempo": 120.0
            },
            {
                "start_time": 15.85,
                "end_time": 17.8659091,
                "pitch": 91,
                "velocity": 40,
                "duration": 2.0159091,
                "tempo": 120.0
            },
            {
                "start_time": 17.8659091,
                "end_time": 18.0,
                "pitch": 79,
                "velocity": 40,
                "duration": 0.1340909,
                "tempo": 120.0
            },
            {
                "start_time": 17.8659091,
                "end_time": 18.0,
                "pitch": 91,
                "velocity": 40,
                "duration": 0.1340909,
                "tempo": 120.0
            },
            {
                "start_time": 18.0,
                "end_time": 18.05,
                "pitch": 79,
                "velocity": 40,
                "duration": 0.05,
                "tempo": 120.0
            },
            {
                "start_time": 18.05,
                "end_time": 19.3977273,
                "pitch": 79,
                "velocity": 40,
                "duration": 1.3477273,
                "tempo": 120.0
            },
            {
                "start_time": 19.3977273,
                "end_time": 20.2090909,
                "pitch": 76,
                "velocity": 40,
                "duration": 0.8113636,
                "tempo": 120.0
            },
            {
                "start_time": 20.2113636,
                "end_time": 20.8272727,
                "pitch": 79,
                "velocity": 40,
                "duration": 0.6159091,
                "tempo": 120.0
            },
            {
                "start_time": 18.0,
                "end_time": 20.8272727,
                "pitch": 91,
                "velocity": 40,
                "duration": 2.8272727,
                "tempo": 120.0
            },
            {
                "start_time": 20.8272727,
                "end_time": 20.9613636,
                "pitch": 79,
                "velocity": 40,
                "duration": 0.1340909,
                "tempo": 120.0
            },
            {
                "start_time": 20.8272727,
                "end_time": 20.9613636,
                "pitch": 91,
                "velocity": 40,
                "duration": 0.1340909,
                "tempo": 120.0
            },
            {
                "start_time": 20.9613636,
                "end_time": 21.0954545,
                "pitch": 79,
                "velocity": 40,
                "duration": 0.1340909,
                "tempo": 120.0
            },
            {
                "start_time": 20.9613636,
                "end_time": 21.0954545,
                "pitch": 91,
                "velocity": 40,
                "duration": 0.1340909,
                "tempo": 120.0
            },
            {
                "start_time": 21.0954545,
                "end_time": 21.2318182,
                "pitch": 79,
                "velocity": 40,
                "duration": 0.1363636,
                "tempo": 120.0
            },
            {
                "start_time": 21.0954545,
                "end_time": 21.2318182,
                "pitch": 91,
                "velocity": 40,
                "duration": 0.1363636,
                "tempo": 120.0
            },
            {
                "start_time": 21.2318182,
                "end_time": 21.3681818,
                "pitch": 79,
                "velocity": 40,
                "duration": 0.1363636,
                "tempo": 120.0
            },
            {
                "start_time": 21.2318182,
                "end_time": 21.3681818,
                "pitch": 91,
                "velocity": 40,
                "duration": 0.1363636,
                "tempo": 120.0
            },
            {
                "start_time": 21.3681818,
                "end_time": 21.5045455,
                "pitch": 79,
                "velocity": 40,
                "duration": 0.1363636,
                "tempo": 120.0
            },
            {
                "start_time": 21.3681818,
                "end_time": 21.5045455,
                "pitch": 91,
                "velocity": 40,
                "duration": 0.1363636,
                "tempo": 120.0
            },
            {
                "start_time": 21.5045455,
                "end_time": 21.5568182,
                "pitch": 79,
                "velocity": 40,
                "duration": 0.0522727,
                "tempo": 120.0
            }
        ],
        "Acoustic Bass": [
            {
                "start_time": 0.0022727,
                "end_time": 0.5159091,
                "pitch": 36,
                "velocity": 51,
                "duration": 0.5136364,
                "tempo": 120.0
            },
            {
                "start_time": 0.8022727,
                "end_time": 0.9181818,
                "pitch": 36,
                "velocity": 51,
                "duration": 0.1159091,
                "tempo": 120.0
            },
            {
                "start_time": 0.9340909,
                "end_time": 1.0522727,
                "pitch": 36,
                "velocity": 51,
                "duration": 0.1181818,
                "tempo": 120.0
            },
            {
                "start_time": 1.3409091,
                "end_time": 1.5954545,
                "pitch": 31,
                "velocity": 51,
                "duration": 0.2545455,
                "tempo": 120.0
            },
            {
                "start_time": 0.0022727,
                "end_time": 1.6136364,
                "pitch": 0,
                "velocity": 51,
                "duration": 1.6113636,
                "tempo": 120.0
            },
            {
                "start_time": 1.6136364,
                "end_time": 1.8636364,
                "pitch": 36,
                "velocity": 51,
                "duration": 0.25,
                "tempo": 120.0
            },
            {
                "start_time": 1.8818182,
                "end_time": 2.1318182,
                "pitch": 36,
                "velocity": 51,
                "duration": 0.25,
                "tempo": 120.0
            },
            {
                "start_time": 2.15,
                "end_time": 2.675,
                "pitch": 41,
                "velocity": 51,
                "duration": 0.525,
                "tempo": 120.0
            },
            {
                "start_time": 2.9613636,
                "end_time": 3.0772727,
                "pitch": 41,
                "velocity": 51,
                "duration": 0.1159091,
                "tempo": 120.0
            },
            {
                "start_time": 3.0931818,
                "end_time": 3.2113636,
                "pitch": 41,
                "velocity": 51,
                "duration": 0.1181818,
                "tempo": 120.0
            },
            {
                "start_time": 3.4954545,
                "end_time": 3.7454545,
                "pitch": 41,
                "velocity": 51,
                "duration": 0.25,
                "tempo": 120.0
            },
            {
                "start_time": 2.15,
                "end_time": 4.0181818,
                "pitch": 36,
                "velocity": 51,
                "duration": 1.8681818,
                "tempo": 120.0
            },
            {
                "start_time": 3.7636364,
                "end_time": 4.0181818,
                "pitch": 36,
                "velocity": 51,
                "duration": 0.2545455,
                "tempo": 120.0
            },
            {
                "start_time": 3.7636364,
                "end_time": 4.2909091,
                "pitch": 41,
                "velocity": 51,
                "duration": 0.5272727,
                "tempo": 120.0
            },
            {
                "start_time": 4.0363636,
                "end_time": 4.2909091,
                "pitch": 41,
                "velocity": 51,
                "duration": 0.2545455,
                "tempo": 120.0
            },
            {
                "start_time": 4.3090909,
                "end_time": 4.8272727,
                "pitch": 41,
                "velocity": 51,
                "duration": 0.5181818,
                "tempo": 120.0
            },
            {
                "start_time": 5.1113636,
                "end_time": 5.2272727,
                "pitch": 42,
                "velocity": 51,
                "duration": 0.1159091,
                "tempo": 120.0
            },
            {
                "start_time": 5.2431818,
                "end_time": 5.3613636,
                "pitch": 42,
                "velocity": 51,
                "duration": 0.1181818,
                "tempo": 120.0
            },
            {
                "start_time": 5.65,
                "end_time": 5.9045455,
                "pitch": 42,
                "velocity": 51,
                "duration": 0.2545455,
                "tempo": 120.0
            },
            {
                "start_time": 5.9227273,
                "end_time": 6.1727273,
                "pitch": 38,
                "velocity": 51,
                "duration": 0.25,
                "tempo": 120.0
            },
            {
                "start_time": 5.9227273,
                "end_time": 6.4409091,
                "pitch": 42,
                "velocity": 51,
                "duration": 0.5181818,
                "tempo": 120.0
            },
            {
                "start_time": 6.1909091,
                "end_time": 6.4409091,
                "pitch": 42,
                "velocity": 51,
                "duration": 0.25,
                "tempo": 120.0
            },
            {
                "start_time": 6.4590909,
                "end_time": 6.9863636,
                "pitch": 43,
                "velocity": 51,
                "duration": 0.5272727,
                "tempo": 120.0
            },
            {
                "start_time": 7.2704545,
                "end_time": 7.3863636,
                "pitch": 43,
                "velocity": 51,
                "duration": 0.1159091,
                "tempo": 120.0
            },
            {
                "start_time": 7.4045455,
                "end_time": 7.5204545,
                "pitch": 43,
                "velocity": 51,
                "duration": 0.1159091,
                "tempo": 120.0
            },
            {
                "start_time": 7.8113636,
                "end_time": 8.0659091,
                "pitch": 43,
                "velocity": 51,
                "duration": 0.2545455,
                "tempo": 120.0
            },
            {
                "start_time": 1.6136364,
                "end_time": 8.0818182,
                "pitch": 0,
                "velocity": 51,
                "duration": 6.4681818,
                "tempo": 120.0
            },
            {
                "start_time": 6.1909091,
                "end_time": 8.3340909,
                "pitch": 38,
                "velocity": 51,
                "duration": 2.1431818,
                "tempo": 120.0
            },
            {
                "start_time": 8.0818182,
                "end_time": 8.3340909,
                "pitch": 38,
                "velocity": 51,
                "duration": 0.2522727,
                "tempo": 120.0
            },
            {
                "start_time": 8.35,
                "end_time": 8.6,
                "pitch": 43,
                "velocity": 51,
                "duration": 0.25,
                "tempo": 120.0
            },
            {
                "start_time": 8.0818182,
                "end_time": 8.6181818,
                "pitch": 0,
                "velocity": 51,
                "duration": 0.5363636,
                "tempo": 120.0
            },
            {
                "start_time": 4.0363636,
                "end_time": 9.1454545,
                "pitch": 36,
                "velocity": 51,
                "duration": 5.1090909,
                "tempo": 120.0
            },
            {
                "start_time": 8.6181818,
                "end_time": 9.1454545,
                "pitch": 36,
                "velocity": 51,
                "duration": 0.5272727,
                "tempo": 120.0
            },
            {
                "start_time": 9.4295455,
                "end_time": 9.5454545,
                "pitch": 36,
                "velocity": 51,
                "duration": 0.1159091,
                "tempo": 120.0
            },
            {
                "start_time": 9.5636364,
                "end_time": 9.6795455,
                "pitch": 36,
                "velocity": 51,
                "duration": 0.1159091,
                "tempo": 120.0
            },
            {
                "start_time": 1.3409091,
                "end_time": 9.9659091,
                "pitch": 40,
                "velocity": 51,
                "duration": 8.625,
                "tempo": 120.0
            },
            {
                "start_time": 9.9659091,
                "end_time": 10.2159091,
                "pitch": 31,
                "velocity": 51,
                "duration": 0.25,
                "tempo": 120.0
            },
            {
                "start_time": 8.6181818,
                "end_time": 10.2340909,
                "pitch": 0,
                "velocity": 51,
                "duration": 1.6159091,
                "tempo": 120.0
            },
            {
                "start_time": 10.2340909,
                "end_time": 10.4863636,
                "pitch": 36,
                "velocity": 51,
                "duration": 0.2522727,
                "tempo": 120.0
            },
            {
                "start_time": 10.5045455,
                "end_time": 10.7590909,
                "pitch": 36,
                "velocity": 51,
                "duration": 0.2545455,
                "tempo": 120.0
            },
            {
                "start_time": 10.7772727,
                "end_time": 11.2954545,
                "pitch": 41,
                "velocity": 51,
                "duration": 0.5181818,
                "tempo": 120.0
            },
            {
                "start_time": 11.5795455,
                "end_time": 11.6954545,
                "pitch": 41,
                "velocity": 51,
                "duration": 0.1159091,
                "tempo": 120.0
            },
            {
                "start_time": 11.7136364,
                "end_time": 11.8295455,
                "pitch": 41,
                "velocity": 51,
                "duration": 0.1159091,
                "tempo": 120.0
            },
            {
                "start_time": 12.1204545,
                "end_time": 12.375,
                "pitch": 41,
                "velocity": 51,
                "duration": 0.2545455,
                "tempo": 120.0
            },
            {
                "start_time": 10.7772727,
                "end_time": 12.6431818,
                "pitch": 36,
                "velocity": 51,
                "duration": 1.8659091,
                "tempo": 120.0
            },
            {
                "start_time": 12.3909091,
                "end_time": 12.6431818,
                "pitch": 36,
                "velocity": 51,
                "duration": 0.2522727,
                "tempo": 120.0
            },
            {
                "start_time": 12.3909091,
                "end_time": 12.9090909,
                "pitch": 41,
                "velocity": 51,
                "duration": 0.5181818,
                "tempo": 120.0
            },
            {
                "start_time": 12.6590909,
                "end_time": 12.9090909,
                "pitch": 41,
                "velocity": 51,
                "duration": 0.25,
                "tempo": 120.0
            },
            {
                "start_time": 6.4590909,
                "end_time": 12.9272727,
                "pitch": 54,
                "velocity": 51,
                "duration": 6.4681818,
                "tempo": 120.0
            },
            {
                "start_time": 12.9272727,
                "end_time": 13.4545455,
                "pitch": 43,
                "velocity": 51,
                "duration": 0.5272727,
                "tempo": 120.0
            },
            {
                "start_time": 13.7386364,
                "end_time": 13.8568182,
                "pitch": 43,
                "velocity": 51,
                "duration": 0.1181818,
                "tempo": 120.0
            },
            {
                "start_time": 13.8727273,
                "end_time": 13.9909091,
                "pitch": 43,
                "velocity": 51,
                "duration": 0.1181818,
                "tempo": 120.0
            },
            {
                "start_time": 14.275,
                "end_time": 14.525,
                "pitch": 43,
                "velocity": 51,
                "duration": 0.25,
                "tempo": 120.0
            },
            {
                "start_time": 10.2340909,
                "end_time": 14.5431818,
                "pitch": 0,
                "velocity": 51,
                "duration": 4.3090909,
                "tempo": 120.0
            },
            {
                "start_time": 14.5431818,
                "end_time": 14.7977273,
                "pitch": 38,
                "velocity": 51,
                "duration": 0.2545455,
                "tempo": 120.0
            },
            {
                "start_time": 8.35,
                "end_time": 14.8136364,
                "pitch": 53,
                "velocity": 51,
                "duration": 6.4636364,
                "tempo": 120.0
            },
            {
                "start_time": 14.8136364,
                "end_time": 15.0704545,
                "pitch": 43,
                "velocity": 51,
                "duration": 0.2568182,
                "tempo": 120.0
            },
            {
                "start_time": 15.0863636,
                "end_time": 15.3409091,
                "pitch": 43,
                "velocity": 51,
                "duration": 0.2545455,
                "tempo": 120.0
            },
            {
                "start_time": 15.3590909,
                "end_time": 15.6136364,
                "pitch": 45,
                "velocity": 51,
                "duration": 0.2545455,
                "tempo": 120.0
            },
            {
                "start_time": 15.6318182,
                "end_time": 15.8818182,
                "pitch": 45,
                "velocity": 51,
                "duration": 0.25,
                "tempo": 120.0
            },
            {
                "start_time": 15.9,
                "end_time": 16.15,
                "pitch": 45,
                "velocity": 51,
                "duration": 0.25,
                "tempo": 120.0
            },
            {
                "start_time": 16.1681818,
                "end_time": 16.4181818,
                "pitch": 45,
                "velocity": 51,
                "duration": 0.25,
                "tempo": 120.0
            },
            {
                "start_time": 16.4340909,
                "end_time": 16.6840909,
                "pitch": 45,
                "velocity": 51,
                "duration": 0.25,
                "tempo": 120.0
            },
            {
                "start_time": 16.7022727,
                "end_time": 16.9522727,
                "pitch": 45,
                "velocity": 51,
                "duration": 0.25,
                "tempo": 120.0
            },
            {
                "start_time": 16.9704545,
                "end_time": 17.2204545,
                "pitch": 45,
                "velocity": 51,
                "duration": 0.25,
                "tempo": 120.0
            },
            {
                "start_time": 17.2363636,
                "end_time": 17.4909091,
                "pitch": 41,
                "velocity": 51,
                "duration": 0.2545455,
                "tempo": 120.0
            },
            {
                "start_time": 17.5090909,
                "end_time": 17.7636364,
                "pitch": 41,
                "velocity": 51,
                "duration": 0.2545455,
                "tempo": 120.0
            },
            {
                "start_time": 17.7818182,
                "end_time": 18.0318182,
                "pitch": 41,
                "velocity": 51,
                "duration": 0.25,
                "tempo": 120.0
            },
            {
                "start_time": 18.05,
                "end_time": 18.3,
                "pitch": 41,
                "velocity": 51,
                "duration": 0.25,
                "tempo": 120.0
            },
            {
                "start_time": 18.3181818,
                "end_time": 18.5704545,
                "pitch": 41,
                "velocity": 51,
                "duration": 0.2522727,
                "tempo": 120.0
            },
            {
                "start_time": 18.5886364,
                "end_time": 18.8431818,
                "pitch": 41,
                "velocity": 51,
                "duration": 0.2545455,
                "tempo": 120.0
            },
            {
                "start_time": 18.8613636,
                "end_time": 19.1113636,
                "pitch": 41,
                "velocity": 51,
                "duration": 0.25,
                "tempo": 120.0
            },
            {
                "start_time": 19.1295455,
                "end_time": 19.3795455,
                "pitch": 41,
                "velocity": 51,
                "duration": 0.25,
                "tempo": 120.0
            },
            {
                "start_time": 12.6590909,
                "end_time": 19.65,
                "pitch": 36,
                "velocity": 51,
                "duration": 6.9909091,
                "tempo": 120.0
            },
            {
                "start_time": 19.3977273,
                "end_time": 19.65,
                "pitch": 36,
                "velocity": 51,
                "duration": 0.2522727,
                "tempo": 120.0
            },
            {
                "start_time": 19.6681818,
                "end_time": 19.9227273,
                "pitch": 36,
                "velocity": 51,
                "duration": 0.2545455,
                "tempo": 120.0
            },
            {
                "start_time": 19.9409091,
                "end_time": 20.1909091,
                "pitch": 36,
                "velocity": 51,
                "duration": 0.25,
                "tempo": 120.0
            },
            {
                "start_time": 20.2090909,
                "end_time": 20.4590909,
                "pitch": 36,
                "velocity": 51,
                "duration": 0.25,
                "tempo": 120.0
            },
            {
                "start_time": 20.4772727,
                "end_time": 20.7272727,
                "pitch": 36,
                "velocity": 51,
                "duration": 0.25,
                "tempo": 120.0
            },
            {
                "start_time": 20.7431818,
                "end_time": 20.9954545,
                "pitch": 36,
                "velocity": 51,
                "duration": 0.2522727,
                "tempo": 120.0
            },
            {
                "start_time": 21.0113636,
                "end_time": 21.2659091,
                "pitch": 36,
                "velocity": 51,
                "duration": 0.2545455,
                "tempo": 120.0
            },
            {
                "start_time": 21.2840909,
                "end_time": 21.5386364,
                "pitch": 36,
                "velocity": 51,
                "duration": 0.2545455,
                "tempo": 120.0
            },
            {
                "start_time": 21.5568182,
                "end_time": 21.8068182,
                "pitch": 36,
                "velocity": 51,
                "duration": 0.25,
                "tempo": 120.0
            },
            {
                "start_time": 21.825,
                "end_time": 22.075,
                "pitch": 36,
                "velocity": 51,
                "duration": 0.25,
                "tempo": 120.0
            },
            {
                "start_time": 22.0931818,
                "end_time": 22.3454545,
                "pitch": 36,
                "velocity": 51,
                "duration": 0.2522727,
                "tempo": 120.0
            },
            {
                "start_time": 22.3636364,
                "end_time": 22.6181818,
                "pitch": 36,
                "velocity": 51,
                "duration": 0.2545455,
                "tempo": 120.0
            },
            {
                "start_time": 22.6363636,
                "end_time": 22.8863636,
                "pitch": 36,
                "velocity": 51,
                "duration": 0.25,
                "tempo": 120.0
            },
            {
                "start_time": 22.9045455,
                "end_time": 23.1545455,
                "pitch": 37,
                "velocity": 51,
                "duration": 0.25,
                "tempo": 120.0
            },
            {
                "start_time": 23.1727273,
                "end_time": 23.425,
                "pitch": 37,
                "velocity": 51,
                "duration": 0.2522727,
                "tempo": 120.0
            },
            {
                "start_time": 23.4431818,
                "end_time": 23.6977273,
                "pitch": 37,
                "velocity": 51,
                "duration": 0.2545455,
                "tempo": 120.0
            },
            {
                "start_time": 23.7159091,
                "end_time": 23.9659091,
                "pitch": 37,
                "velocity": 51,
                "duration": 0.25,
                "tempo": 120.0
            },
            {
                "start_time": 23.9840909,
                "end_time": 24.2340909,
                "pitch": 38,
                "velocity": 51,
                "duration": 0.25,
                "tempo": 120.0
            },
            {
                "start_time": 24.2522727,
                "end_time": 24.5,
                "pitch": 38,
                "velocity": 51,
                "duration": 0.2477273,
                "tempo": 120.0
            },
            {
                "start_time": 24.5181818,
                "end_time": 24.7681818,
                "pitch": 38,
                "velocity": 51,
                "duration": 0.25,
                "tempo": 120.0
            },
            {
                "start_time": 24.7863636,
                "end_time": 25.0409091,
                "pitch": 50,
                "velocity": 51,
                "duration": 0.2545455,
                "tempo": 120.0
            },
            {
                "start_time": 14.8136364,
                "end_time": 25.0590909,
                "pitch": 53,
                "velocity": 51,
                "duration": 10.2454545,
                "tempo": 120.0
            },
            {
                "start_time": 25.0590909,
                "end_time": 25.3136364,
                "pitch": 45,
                "velocity": 51,
                "duration": 0.2545455,
                "tempo": 120.0
            },
            {
                "start_time": 17.2363636,
                "end_time": 25.3318182,
                "pitch": 7,
                "velocity": 51,
                "duration": 8.0954545,
                "tempo": 120.0
            },
            {
                "start_time": 25.3318182,
                "end_time": 25.5818182,
                "pitch": 38,
                "velocity": 51,
                "duration": 0.25,
                "tempo": 120.0
            },
            {
                "start_time": 25.0590909,
                "end_time": 25.5977273,
                "pitch": 53,
                "velocity": 51,
                "duration": 0.5386364,
                "tempo": 120.0
            },
            {
                "start_time": 25.5977273,
                "end_time": 25.8477273,
                "pitch": 45,
                "velocity": 51,
                "duration": 0.25,
                "tempo": 120.0
            },
            {
                "start_time": 25.8659091,
                "end_time": 26.1159091,
                "pitch": 45,
                "velocity": 51,
                "duration": 0.25,
                "tempo": 120.0
            },
            {
                "start_time": 26.1340909,
                "end_time": 26.3840909,
                "pitch": 43,
                "velocity": 51,
                "duration": 0.25,
                "tempo": 120.0
            },
            {
                "start_time": 26.4,
                "end_time": 26.6545455,
                "pitch": 43,
                "velocity": 51,
                "duration": 0.2545455,
                "tempo": 120.0
            },
            {
                "start_time": 26.6727273,
                "end_time": 26.9272727,
                "pitch": 43,
                "velocity": 51,
                "duration": 0.2545455,
                "tempo": 120.0
            },
            {
                "start_time": 26.9454545,
                "end_time": 27.1954545,
                "pitch": 43,
                "velocity": 51,
                "duration": 0.25,
                "tempo": 120.0
            },
            {
                "start_time": 27.2136364,
                "end_time": 27.4636364,
                "pitch": 43,
                "velocity": 51,
                "duration": 0.25,
                "tempo": 120.0
            },
            {
                "start_time": 14.5431818,
                "end_time": 27.4795455,
                "pitch": 0,
                "velocity": 51,
                "duration": 12.9363636,
                "tempo": 120.0
            },
            {
                "start_time": 19.3977273,
                "end_time": 27.7363636,
                "pitch": 41,
                "velocity": 51,
                "duration": 8.3386364,
                "tempo": 120.0
            },
            {
                "start_time": 27.4795455,
                "end_time": 27.7363636,
                "pitch": 41,
                "velocity": 51,
                "duration": 0.2568182,
                "tempo": 120.0
            },
            {
                "start_time": 27.7522727,
                "end_time": 28.0068182,
                "pitch": 41,
                "velocity": 51,
                "duration": 0.2545455,
                "tempo": 120.0
            },
            {
                "start_time": 28.025,
                "end_time": 28.275,
                "pitch": 41,
                "velocity": 51,
                "duration": 0.25,
                "tempo": 120.0
            },
            {
                "start_time": 9.9659091,
                "end_time": 28.5431818,
                "pitch": 40,
                "velocity": 51,
                "duration": 18.5772727,
                "tempo": 120.0
            },
            {
                "start_time": 28.2931818,
                "end_time": 28.5431818,
                "pitch": 40,
                "velocity": 51,
                "duration": 0.25,
                "tempo": 120.0
            },
            {
                "start_time": 28.5613636,
                "end_time": 28.8159091,
                "pitch": 40,
                "velocity": 51,
                "duration": 0.2545455,
                "tempo": 120.0
            },
            {
                "start_time": 28.8340909,
                "end_time": 29.0863636,
                "pitch": 40,
                "velocity": 51,
                "duration": 0.2522727,
                "tempo": 120.0
            },
            {
                "start_time": 29.1068182,
                "end_time": 29.3545455,
                "pitch": 52,
                "velocity": 51,
                "duration": 0.2477273,
                "tempo": 120.0
            },
            {
                "start_time": 12.9272727,
                "end_time": 29.3727273,
                "pitch": 54,
                "velocity": 51,
                "duration": 16.4454545,
                "tempo": 120.0
            },
            {
                "start_time": 29.3727273,
                "end_time": 29.6227273,
                "pitch": 47,
                "velocity": 51,
                "duration": 0.25,
                "tempo": 120.0
            },
            {
                "start_time": 29.6409091,
                "end_time": 29.8909091,
                "pitch": 40,
                "velocity": 51,
                "duration": 0.25,
                "tempo": 120.0
            },
            {
                "start_time": 29.3727273,
                "end_time": 29.9090909,
                "pitch": 54,
                "velocity": 51,
                "duration": 0.5363636,
                "tempo": 120.0
            },
            {
                "start_time": 29.9090909,
                "end_time": 30.1590909,
                "pitch": 44,
                "velocity": 51,
                "duration": 0.25,
                "tempo": 120.0
            },
            {
                "start_time": 30.175,
                "end_time": 30.4295455,
                "pitch": 44,
                "velocity": 51,
                "duration": 0.2545455,
                "tempo": 120.0
            },
            {
                "start_time": 30.4477273,
                "end_time": 30.7022727,
                "pitch": 45,
                "velocity": 51,
                "duration": 0.2545455,
                "tempo": 120.0
            },
            {
                "start_time": 30.7204545,
                "end_time": 30.9704545,
                "pitch": 45,
                "velocity": 51,
                "duration": 0.25,
                "tempo": 120.0
            },
            {
                "start_time": 30.9886364,
                "end_time": 31.2386364,
                "pitch": 45,
                "velocity": 51,
                "duration": 0.25,
                "tempo": 120.0
            },
            {
                "start_time": 31.2545455,
                "end_time": 31.5090909,
                "pitch": 45,
                "velocity": 51,
                "duration": 0.2545455,
                "tempo": 120.0
            },
            {
                "start_time": 31.5272727,
                "end_time": 31.7818182,
                "pitch": 45,
                "velocity": 51,
                "duration": 0.2545455,
                "tempo": 120.0
            },
            {
                "start_time": 31.8,
                "end_time": 32.05,
                "pitch": 45,
                "velocity": 51,
                "duration": 0.25,
                "tempo": 120.0
            },
            {
                "start_time": 32.0681818,
                "end_time": 32.3181818,
                "pitch": 43,
                "velocity": 51,
                "duration": 0.25,
                "tempo": 120.0
            },
            {
                "start_time": 27.4795455,
                "end_time": 32.3340909,
                "pitch": 0,
                "velocity": 51,
                "duration": 4.8545455,
                "tempo": 120.0
            },
            {
                "start_time": 32.3340909,
                "end_time": 32.5840909,
                "pitch": 41,
                "velocity": 51,
                "duration": 0.25,
                "tempo": 120.0
            },
            {
                "start_time": 32.6022727,
                "end_time": 32.8522727,
                "pitch": 41,
                "velocity": 51,
                "duration": 0.25,
                "tempo": 120.0
            },
            {
                "start_time": 32.8704545,
                "end_time": 33.125,
                "pitch": 41,
                "velocity": 51,
                "duration": 0.2545455,
                "tempo": 120.0
            },
            {
                "start_time": 33.1431818,
                "end_time": 33.3977273,
                "pitch": 41,
                "velocity": 51,
                "duration": 0.2545455,
                "tempo": 120.0
            },
            {
                "start_time": 33.4159091,
                "end_time": 33.6659091,
                "pitch": 41,
                "velocity": 51,
                "duration": 0.25,
                "tempo": 120.0
            },
            {
                "start_time": 33.6818182,
                "end_time": 33.9318182,
                "pitch": 41,
                "velocity": 51,
                "duration": 0.25,
                "tempo": 120.0
            },
            {
                "start_time": 33.95,
                "end_time": 34.2045455,
                "pitch": 41,
                "velocity": 51,
                "duration": 0.2545455,
                "tempo": 120.0
            },
            {
                "start_time": 34.2227273,
                "end_time": 34.4772727,
                "pitch": 40,
                "velocity": 51,
                "duration": 0.2545455,
                "tempo": 120.0
            },
            {
                "start_time": 34.4954545,
                "end_time": 34.7454545,
                "pitch": 40,
                "velocity": 51,
                "duration": 0.25,
                "tempo": 120.0
            },
            {
                "start_time": 34.7636364,
                "end_time": 35.0113636,
                "pitch": 39,
                "velocity": 51,
                "duration": 0.2477273,
                "tempo": 120.0
            },
            {
                "start_time": 35.0295455,
                "end_time": 35.2840909,
                "pitch": 39,
                "velocity": 51,
                "duration": 0.2545455,
                "tempo": 120.0
            },
            {
                "start_time": 35.3022727,
                "end_time": 35.5568182,
                "pitch": 39,
                "velocity": 51,
                "duration": 0.2545455,
                "tempo": 120.0
            },
            {
                "start_time": 35.575,
                "end_time": 35.825,
                "pitch": 39,
                "velocity": 51,
                "duration": 0.25,
                "tempo": 120.0
            },
            {
                "start_time": 35.8409091,
                "end_time": 36.0931818,
                "pitch": 39,
                "velocity": 51,
                "duration": 0.2522727,
                "tempo": 120.0
            },
            {
                "start_time": 36.1090909,
                "end_time": 36.3590909,
                "pitch": 39,
                "velocity": 51,
                "duration": 0.25,
                "tempo": 120.0
            },
            {
                "start_time": 36.3772727,
                "end_time": 36.6272727,
                "pitch": 39,
                "velocity": 51,
                "duration": 0.25,
                "tempo": 120.0
            },
            {
                "start_time": 36.6454545,
                "end_time": 36.9,
                "pitch": 39,
                "velocity": 51,
                "duration": 0.2545455,
                "tempo": 120.0
            },
            {
                "start_time": 36.9181818,
                "end_time": 37.1704545,
                "pitch": 38,
                "velocity": 51,
                "duration": 0.2522727,
                "tempo": 120.0
            },
            {
                "start_time": 37.1909091,
                "end_time": 37.4386364,
                "pitch": 38,
                "velocity": 51,
                "duration": 0.2477273,
                "tempo": 120.0
            },
            {
                "start_time": 37.4568182,
                "end_time": 37.7068182,
                "pitch": 38,
                "velocity": 51,
                "duration": 0.25,
                "tempo": 120.0
            },
            {
                "start_time": 37.725,
                "end_time": 37.975,
                "pitch": 38,
                "velocity": 51,
                "duration": 0.25,
                "tempo": 120.0
            },
            {
                "start_time": 37.9931818,
                "end_time": 38.2431818,
                "pitch": 38,
                "velocity": 51,
                "duration": 0.25,
                "tempo": 120.0
            },
            {
                "start_time": 38.2590909,
                "end_time": 38.5136364,
                "pitch": 38,
                "velocity": 51,
                "duration": 0.2545455,
                "tempo": 120.0
            },
            {
                "start_time": 38.5318182,
                "end_time": 38.7863636,
                "pitch": 38,
                "velocity": 51,
                "duration": 0.2545455,
                "tempo": 120.0
            },
            {
                "start_time": 25.5977273,
                "end_time": 38.8045455,
                "pitch": 53,
                "velocity": 51,
                "duration": 13.2068182,
                "tempo": 120.0
            },
            {
                "start_time": 38.8045455,
                "end_time": 39.0545455,
                "pitch": 43,
                "velocity": 51,
                "duration": 0.25,
                "tempo": 120.0
            },
            {
                "start_time": 39.0727273,
                "end_time": 39.3227273,
                "pitch": 43,
                "velocity": 51,
                "duration": 0.25,
                "tempo": 120.0
            },
            {
                "start_time": 39.3386364,
                "end_time": 39.5931818,
                "pitch": 43,
                "velocity": 51,
                "duration": 0.2545455,
                "tempo": 120.0
            },
            {
                "start_time": 39.6113636,
                "end_time": 39.8659091,
                "pitch": 43,
                "velocity": 51,
                "duration": 0.2545455,
                "tempo": 120.0
            },
            {
                "start_time": 39.8840909,
                "end_time": 40.1340909,
                "pitch": 43,
                "velocity": 51,
                "duration": 0.25,
                "tempo": 120.0
            },
            {
                "start_time": 40.1522727,
                "end_time": 40.4022727,
                "pitch": 35,
                "velocity": 51,
                "duration": 0.25,
                "tempo": 120.0
            },
            {
                "start_time": 29.6409091,
                "end_time": 40.4181818,
                "pitch": 19,
                "velocity": 51,
                "duration": 10.7772727,
                "tempo": 120.0
            },
            {
                "start_time": 40.4181818,
                "end_time": 40.6704545,
                "pitch": 38,
                "velocity": 51,
                "duration": 0.2522727,
                "tempo": 120.0
            },
            {
                "start_time": 38.8045455,
                "end_time": 40.6863636,
                "pitch": 53,
                "velocity": 51,
                "duration": 1.8818182,
                "tempo": 120.0
            },
            {
                "start_time": 40.6863636,
                "end_time": 40.9363636,
                "pitch": 43,
                "velocity": 51,
                "duration": 0.25,
                "tempo": 120.0
            },
            {
                "start_time": 32.3340909,
                "end_time": 40.9545455,
                "pitch": 0,
                "velocity": 51,
                "duration": 8.6204545,
                "tempo": 120.0
            },
            {
                "start_time": 40.9545455,
                "end_time": 41.4818182,
                "pitch": 36,
                "velocity": 51,
                "duration": 0.5272727,
                "tempo": 120.0
            }
        ],
        "Vibraphone": [
            {
                "start_time": 0.0068182,
                "end_time": 0.2681818,
                "pitch": 76,
                "velocity": 51,
                "duration": 0.2613636,
                "tempo": 120.0
            },
            {
                "start_time": 0.2681818,
                "end_time": 0.5363636,
                "pitch": 71,
                "velocity": 51,
                "duration": 0.2681818,
                "tempo": 120.0
            },
            {
                "start_time": 0.5363636,
                "end_time": 0.8022727,
                "pitch": 74,
                "velocity": 51,
                "duration": 0.2659091,
                "tempo": 120.0
            },
            {
                "start_time": 0.8045455,
                "end_time": 1.0704545,
                "pitch": 69,
                "velocity": 51,
                "duration": 0.2659091,
                "tempo": 120.0
            },
            {
                "start_time": 1.0704545,
                "end_time": 1.3431818,
                "pitch": 69,
                "velocity": 51,
                "duration": 0.2727273,
                "tempo": 120.0
            },
            {
                "start_time": 1.3431818,
                "end_time": 1.6159091,
                "pitch": 67,
                "velocity": 51,
                "duration": 0.2727273,
                "tempo": 120.0
            },
            {
                "start_time": 1.6159091,
                "end_time": 1.8818182,
                "pitch": 67,
                "velocity": 51,
                "duration": 0.2659091,
                "tempo": 120.0
            },
            {
                "start_time": 1.8840909,
                "end_time": 2.15,
                "pitch": 64,
                "velocity": 51,
                "duration": 0.2659091,
                "tempo": 120.0
            },
            {
                "start_time": 2.1522727,
                "end_time": 2.6931818,
                "pitch": 72,
                "velocity": 51,
                "duration": 0.5409091,
                "tempo": 120.0
            },
            {
                "start_time": 2.6954545,
                "end_time": 3.2295455,
                "pitch": 65,
                "velocity": 51,
                "duration": 0.5340909,
                "tempo": 120.0
            },
            {
                "start_time": 3.2295455,
                "end_time": 4.3090909,
                "pitch": 65,
                "velocity": 51,
                "duration": 1.0795455,
                "tempo": 120.0
            },
            {
                "start_time": 0.8045455,
                "end_time": 4.3113636,
                "pitch": 77,
                "velocity": 51,
                "duration": 3.5068182,
                "tempo": 120.0
            },
            {
                "start_time": 2.6954545,
                "end_time": 4.8454545,
                "pitch": 60,
                "velocity": 51,
                "duration": 2.15,
                "tempo": 120.0
            },
            {
                "start_time": 4.3113636,
                "end_time": 4.8454545,
                "pitch": 72,
                "velocity": 51,
                "duration": 0.5340909,
                "tempo": 120.0
            },
            {
                "start_time": 4.8454545,
                "end_time": 5.3795455,
                "pitch": 66,
                "velocity": 51,
                "duration": 0.5340909,
                "tempo": 120.0
            },
            {
                "start_time": 5.3795455,
                "end_time": 5.925,
                "pitch": 66,
                "velocity": 51,
                "duration": 0.5454545,
                "tempo": 120.0
            },
            {
                "start_time": 0.2681818,
                "end_time": 5.925,
                "pitch": 78,
                "velocity": 51,
                "duration": 5.6568182,
                "tempo": 120.0
            },
            {
                "start_time": 5.925,
                "end_time": 6.4590909,
                "pitch": 72,
                "velocity": 51,
                "duration": 0.5340909,
                "tempo": 120.0
            },
            {
                "start_time": 6.4613636,
                "end_time": 7.0045455,
                "pitch": 79,
                "velocity": 51,
                "duration": 0.5431818,
                "tempo": 120.0
            },
            {
                "start_time": 7.0045455,
                "end_time": 7.5386364,
                "pitch": 79,
                "velocity": 51,
                "duration": 0.5340909,
                "tempo": 120.0
            },
            {
                "start_time": 7.5409091,
                "end_time": 8.6204545,
                "pitch": 79,
                "velocity": 51,
                "duration": 1.0795455,
                "tempo": 120.0
            },
            {
                "start_time": 5.925,
                "end_time": 8.8909091,
                "pitch": 78,
                "velocity": 51,
                "duration": 2.9659091,
                "tempo": 120.0
            },
            {
                "start_time": 0.5363636,
                "end_time": 9.1636364,
                "pitch": 56,
                "velocity": 51,
                "duration": 8.6272727,
                "tempo": 120.0
            },
            {
                "start_time": 1.3431818,
                "end_time": 9.1636364,
                "pitch": 71,
                "velocity": 51,
                "duration": 7.8204545,
                "tempo": 120.0
            },
            {
                "start_time": 8.8909091,
                "end_time": 9.1636364,
                "pitch": 71,
                "velocity": 51,
                "duration": 0.2727273,
                "tempo": 120.0
            },
            {
                "start_time": 9.1636364,
                "end_time": 9.4318182,
                "pitch": 74,
                "velocity": 51,
                "duration": 0.2681818,
                "tempo": 120.0
            },
            {
                "start_time": 4.3113636,
                "end_time": 9.4318182,
                "pitch": 77,
                "velocity": 51,
                "duration": 5.1204545,
                "tempo": 120.0
            },
            {
                "start_time": 9.4318182,
                "end_time": 9.7,
                "pitch": 69,
                "velocity": 51,
                "duration": 0.2681818,
                "tempo": 120.0
            },
            {
                "start_time": 9.7,
                "end_time": 9.9659091,
                "pitch": 69,
                "velocity": 51,
                "duration": 0.2659091,
                "tempo": 120.0
            },
            {
                "start_time": 9.9681818,
                "end_time": 10.2340909,
                "pitch": 67,
                "velocity": 51,
                "duration": 0.2659091,
                "tempo": 120.0
            },
            {
                "start_time": 1.8840909,
                "end_time": 10.5068182,
                "pitch": 31,
                "velocity": 51,
                "duration": 8.6227273,
                "tempo": 120.0
            },
            {
                "start_time": 10.2340909,
                "end_time": 10.5068182,
                "pitch": 67,
                "velocity": 51,
                "duration": 0.2727273,
                "tempo": 120.0
            },
            {
                "start_time": 10.5068182,
                "end_time": 10.7795455,
                "pitch": 64,
                "velocity": 51,
                "duration": 0.2727273,
                "tempo": 120.0
            },
            {
                "start_time": 2.1522727,
                "end_time": 10.7795455,
                "pitch": 76,
                "velocity": 51,
                "duration": 8.6272727,
                "tempo": 120.0
            },
            {
                "start_time": 4.8454545,
                "end_time": 11.3136364,
                "pitch": 60,
                "velocity": 51,
                "duration": 6.4681818,
                "tempo": 120.0
            },
            {
                "start_time": 10.7795455,
                "end_time": 11.3136364,
                "pitch": 72,
                "velocity": 51,
                "duration": 0.5340909,
                "tempo": 120.0
            },
            {
                "start_time": 11.3136364,
                "end_time": 11.85,
                "pitch": 65,
                "velocity": 51,
                "duration": 0.5363636,
                "tempo": 120.0
            },
            {
                "start_time": 11.85,
                "end_time": 12.9295455,
                "pitch": 65,
                "velocity": 51,
                "duration": 1.0795455,
                "tempo": 120.0
            },
            {
                "start_time": 8.8909091,
                "end_time": 12.9295455,
                "pitch": 78,
                "velocity": 51,
                "duration": 4.0386364,
                "tempo": 120.0
            },
            {
                "start_time": 12.9295455,
                "end_time": 13.4727273,
                "pitch": 67,
                "velocity": 51,
                "duration": 0.5431818,
                "tempo": 120.0
            },
            {
                "start_time": 13.4727273,
                "end_time": 14.0090909,
                "pitch": 67,
                "velocity": 51,
                "duration": 0.5363636,
                "tempo": 120.0
            },
            {
                "start_time": 14.5431818,
                "end_time": 15.0886364,
                "pitch": 62,
                "velocity": 51,
                "duration": 0.5454545,
                "tempo": 120.0
            },
            {
                "start_time": 9.4318182,
                "end_time": 15.0886364,
                "pitch": 77,
                "velocity": 51,
                "duration": 5.6568182,
                "tempo": 120.0
            },
            {
                "start_time": 15.0886364,
                "end_time": 15.3613636,
                "pitch": 67,
                "velocity": 51,
                "duration": 0.2727273,
                "tempo": 120.0
            },
            {
                "start_time": 15.3613636,
                "end_time": 15.6318182,
                "pitch": 67,
                "velocity": 51,
                "duration": 0.2704545,
                "tempo": 120.0
            },
            {
                "start_time": 15.6340909,
                "end_time": 15.9022727,
                "pitch": 67,
                "velocity": 51,
                "duration": 0.2681818,
                "tempo": 120.0
            },
            {
                "start_time": 15.9022727,
                "end_time": 16.1681818,
                "pitch": 67,
                "velocity": 51,
                "duration": 0.2659091,
                "tempo": 120.0
            },
            {
                "start_time": 16.1681818,
                "end_time": 16.4363636,
                "pitch": 69,
                "velocity": 51,
                "duration": 0.2681818,
                "tempo": 120.0
            },
            {
                "start_time": 16.4363636,
                "end_time": 16.7022727,
                "pitch": 69,
                "velocity": 51,
                "duration": 0.2659091,
                "tempo": 120.0
            },
            {
                "start_time": 16.7045455,
                "end_time": 16.9704545,
                "pitch": 69,
                "velocity": 51,
                "duration": 0.2659091,
                "tempo": 120.0
            },
            {
                "start_time": 16.9704545,
                "end_time": 17.2386364,
                "pitch": 69,
                "velocity": 51,
                "duration": 0.2681818,
                "tempo": 120.0
            },
            {
                "start_time": 17.2386364,
                "end_time": 17.5113636,
                "pitch": 69,
                "velocity": 51,
                "duration": 0.2727273,
                "tempo": 120.0
            },
            {
                "start_time": 17.5113636,
                "end_time": 17.7840909,
                "pitch": 67,
                "velocity": 51,
                "duration": 0.2727273,
                "tempo": 120.0
            },
            {
                "start_time": 17.7840909,
                "end_time": 18.0522727,
                "pitch": 67,
                "velocity": 51,
                "duration": 0.2681818,
                "tempo": 120.0
            },
            {
                "start_time": 18.0522727,
                "end_time": 18.3181818,
                "pitch": 67,
                "velocity": 51,
                "duration": 0.2659091,
                "tempo": 120.0
            },
            {
                "start_time": 18.3181818,
                "end_time": 18.5909091,
                "pitch": 69,
                "velocity": 51,
                "duration": 0.2727273,
                "tempo": 120.0
            },
            {
                "start_time": 18.5909091,
                "end_time": 18.8636364,
                "pitch": 69,
                "velocity": 51,
                "duration": 0.2727273,
                "tempo": 120.0
            },
            {
                "start_time": 18.8636364,
                "end_time": 19.1295455,
                "pitch": 69,
                "velocity": 51,
                "duration": 0.2659091,
                "tempo": 120.0
            },
            {
                "start_time": 19.1318182,
                "end_time": 19.3977273,
                "pitch": 69,
                "velocity": 51,
                "duration": 0.2659091,
                "tempo": 120.0
            },
            {
                "start_time": 19.4,
                "end_time": 19.6704545,
                "pitch": 69,
                "velocity": 51,
                "duration": 0.2704545,
                "tempo": 120.0
            },
            {
                "start_time": 19.6704545,
                "end_time": 19.9431818,
                "pitch": 67,
                "velocity": 51,
                "duration": 0.2727273,
                "tempo": 120.0
            },
            {
                "start_time": 19.9431818,
                "end_time": 20.2113636,
                "pitch": 67,
                "velocity": 51,
                "duration": 0.2681818,
                "tempo": 120.0
            },
            {
                "start_time": 11.3136364,
                "end_time": 20.7454545,
                "pitch": 60,
                "velocity": 51,
                "duration": 9.4318182,
                "tempo": 120.0
            },
            {
                "start_time": 20.4795455,
                "end_time": 20.7454545,
                "pitch": 60,
                "velocity": 51,
                "duration": 0.2659091,
                "tempo": 120.0
            },
            {
                "start_time": 20.7454545,
                "end_time": 21.0136364,
                "pitch": 60,
                "velocity": 51,
                "duration": 0.2681818,
                "tempo": 120.0
            },
            {
                "start_time": 10.7795455,
                "end_time": 21.0136364,
                "pitch": 76,
                "velocity": 51,
                "duration": 10.2340909,
                "tempo": 120.0
            },
            {
                "start_time": 9.9681818,
                "end_time": 21.2840909,
                "pitch": 71,
                "velocity": 51,
                "duration": 11.3159091,
                "tempo": 120.0
            },
            {
                "start_time": 21.0136364,
                "end_time": 21.2840909,
                "pitch": 71,
                "velocity": 51,
                "duration": 0.2704545,
                "tempo": 120.0
            },
            {
                "start_time": 21.2863636,
                "end_time": 21.5590909,
                "pitch": 71,
                "velocity": 51,
                "duration": 0.2727273,
                "tempo": 120.0
            },
            {
                "start_time": 14.5431818,
                "end_time": 22.0931818,
                "pitch": 64,
                "velocity": 51,
                "duration": 7.55,
                "tempo": 120.0
            },
            {
                "start_time": 21.825,
                "end_time": 22.0931818,
                "pitch": 64,
                "velocity": 32,
                "duration": 0.2681818,
                "tempo": 120.0
            },
            {
                "start_time": 22.0931818,
                "end_time": 22.3659091,
                "pitch": 55,
                "velocity": 32,
                "duration": 0.2727273,
                "tempo": 120.0
            },
            {
                "start_time": 12.9295455,
                "end_time": 22.6386364,
                "pitch": 78,
                "velocity": 51,
                "duration": 9.7090909,
                "tempo": 120.0
            },
            {
                "start_time": 22.6386364,
                "end_time": 22.9045455,
                "pitch": 67,
                "velocity": 32,
                "duration": 0.2659091,
                "tempo": 120.0
            },
            {
                "start_time": 21.825,
                "end_time": 23.1727273,
                "pitch": 44,
                "velocity": 32,
                "duration": 1.3477273,
                "tempo": 120.0
            },
            {
                "start_time": 22.9068182,
                "end_time": 23.1727273,
                "pitch": 71,
                "velocity": 32,
                "duration": 0.2659091,
                "tempo": 120.0
            },
            {
                "start_time": 23.1727273,
                "end_time": 23.4454545,
                "pitch": 64,
                "velocity": 32,
                "duration": 0.2727273,
                "tempo": 120.0
            },
            {
                "start_time": 22.6386364,
                "end_time": 23.4454545,
                "pitch": 78,
                "velocity": 32,
                "duration": 0.8068182,
                "tempo": 120.0
            },
            {
                "start_time": 22.9068182,
                "end_time": 23.7181818,
                "pitch": 67,
                "velocity": 32,
                "duration": 0.8113636,
                "tempo": 120.0
            },
            {
                "start_time": 23.4454545,
                "end_time": 23.7181818,
                "pitch": 67,
                "velocity": 32,
                "duration": 0.2727273,
                "tempo": 120.0
            },
            {
                "start_time": 23.7181818,
                "end_time": 23.9863636,
                "pitch": 67,
                "velocity": 40,
                "duration": 0.2681818,
                "tempo": 120.0
            },
            {
                "start_time": 23.9863636,
                "end_time": 24.2545455,
                "pitch": 69,
                "velocity": 40,
                "duration": 0.2681818,
                "tempo": 120.0
            },
            {
                "start_time": 24.2545455,
                "end_time": 24.5204545,
                "pitch": 69,
                "velocity": 40,
                "duration": 0.2659091,
                "tempo": 120.0
            },
            {
                "start_time": 10.5068182,
                "end_time": 24.7886364,
                "pitch": 31,
                "velocity": 51,
                "duration": 14.2818182,
                "tempo": 120.0
            },
            {
                "start_time": 24.5204545,
                "end_time": 24.7886364,
                "pitch": 69,
                "velocity": 40,
                "duration": 0.2681818,
                "tempo": 120.0
            },
            {
                "start_time": 24.7886364,
                "end_time": 25.0613636,
                "pitch": 65,
                "velocity": 40,
                "duration": 0.2727273,
                "tempo": 120.0
            },
            {
                "start_time": 25.0613636,
                "end_time": 25.3340909,
                "pitch": 65,
                "velocity": 40,
                "duration": 0.2727273,
                "tempo": 120.0
            },
            {
                "start_time": 25.3340909,
                "end_time": 25.6,
                "pitch": 65,
                "velocity": 40,
                "duration": 0.2659091,
                "tempo": 120.0
            },
            {
                "start_time": 25.6,
                "end_time": 25.8681818,
                "pitch": 65,
                "velocity": 40,
                "duration": 0.2681818,
                "tempo": 120.0
            },
            {
                "start_time": 23.4454545,
                "end_time": 25.8681818,
                "pitch": 78,
                "velocity": 32,
                "duration": 2.4227273,
                "tempo": 120.0
            },
            {
                "start_time": 25.8681818,
                "end_time": 26.1363636,
                "pitch": 67,
                "velocity": 40,
                "duration": 0.2681818,
                "tempo": 120.0
            },
            {
                "start_time": 26.1363636,
                "end_time": 26.4022727,
                "pitch": 67,
                "velocity": 40,
                "duration": 0.2659091,
                "tempo": 120.0
            },
            {
                "start_time": 26.4022727,
                "end_time": 26.675,
                "pitch": 67,
                "velocity": 40,
                "duration": 0.2727273,
                "tempo": 120.0
            },
            {
                "start_time": 26.675,
                "end_time": 26.9477273,
                "pitch": 67,
                "velocity": 40,
                "duration": 0.2727273,
                "tempo": 120.0
            },
            {
                "start_time": 26.9477273,
                "end_time": 27.2159091,
                "pitch": 67,
                "velocity": 40,
                "duration": 0.2681818,
                "tempo": 120.0
            },
            {
                "start_time": 27.2159091,
                "end_time": 27.4818182,
                "pitch": 67,
                "velocity": 40,
                "duration": 0.2659091,
                "tempo": 120.0
            },
            {
                "start_time": 27.4818182,
                "end_time": 27.7545455,
                "pitch": 67,
                "velocity": 40,
                "duration": 0.2727273,
                "tempo": 120.0
            },
            {
                "start_time": 27.7545455,
                "end_time": 28.0272727,
                "pitch": 67,
                "velocity": 40,
                "duration": 0.2727273,
                "tempo": 120.0
            },
            {
                "start_time": 28.0272727,
                "end_time": 28.2954545,
                "pitch": 67,
                "velocity": 40,
                "duration": 0.2681818,
                "tempo": 120.0
            },
            {
                "start_time": 28.2954545,
                "end_time": 28.5636364,
                "pitch": 68,
                "velocity": 40,
                "duration": 0.2681818,
                "tempo": 120.0
            },
            {
                "start_time": 28.5636364,
                "end_time": 28.8340909,
                "pitch": 68,
                "velocity": 40,
                "duration": 0.2704545,
                "tempo": 120.0
            },
            {
                "start_time": 28.8363636,
                "end_time": 29.1068182,
                "pitch": 68,
                "velocity": 40,
                "duration": 0.2704545,
                "tempo": 120.0
            },
            {
                "start_time": 29.1090909,
                "end_time": 29.375,
                "pitch": 68,
                "velocity": 40,
                "duration": 0.2659091,
                "tempo": 120.0
            },
            {
                "start_time": 29.375,
                "end_time": 29.6431818,
                "pitch": 68,
                "velocity": 40,
                "duration": 0.2681818,
                "tempo": 120.0
            },
            {
                "start_time": 29.6431818,
                "end_time": 29.9090909,
                "pitch": 68,
                "velocity": 40,
                "duration": 0.2659091,
                "tempo": 120.0
            },
            {
                "start_time": 29.9090909,
                "end_time": 30.1772727,
                "pitch": 68,
                "velocity": 40,
                "duration": 0.2681818,
                "tempo": 120.0
            },
            {
                "start_time": 30.1772727,
                "end_time": 30.45,
                "pitch": 64,
                "velocity": 40,
                "duration": 0.2727273,
                "tempo": 120.0
            },
            {
                "start_time": 30.45,
                "end_time": 30.7227273,
                "pitch": 64,
                "velocity": 40,
                "duration": 0.2727273,
                "tempo": 120.0
            },
            {
                "start_time": 30.7227273,
                "end_time": 30.9886364,
                "pitch": 64,
                "velocity": 40,
                "duration": 0.2659091,
                "tempo": 120.0
            },
            {
                "start_time": 30.9909091,
                "end_time": 31.2568182,
                "pitch": 64,
                "velocity": 40,
                "duration": 0.2659091,
                "tempo": 120.0
            },
            {
                "start_time": 31.2568182,
                "end_time": 31.5295455,
                "pitch": 64,
                "velocity": 40,
                "duration": 0.2727273,
                "tempo": 120.0
            },
            {
                "start_time": 31.5295455,
                "end_time": 31.8022727,
                "pitch": 64,
                "velocity": 40,
                "duration": 0.2727273,
                "tempo": 120.0
            },
            {
                "start_time": 31.8022727,
                "end_time": 32.0681818,
                "pitch": 64,
                "velocity": 40,
                "duration": 0.2659091,
                "tempo": 120.0
            },
            {
                "start_time": 32.0704545,
                "end_time": 32.3363636,
                "pitch": 64,
                "velocity": 40,
                "duration": 0.2659091,
                "tempo": 120.0
            },
            {
                "start_time": 32.3363636,
                "end_time": 32.6045455,
                "pitch": 64,
                "velocity": 40,
                "duration": 0.2681818,
                "tempo": 120.0
            },
            {
                "start_time": 32.6045455,
                "end_time": 32.8727273,
                "pitch": 65,
                "velocity": 40,
                "duration": 0.2681818,
                "tempo": 120.0
            },
            {
                "start_time": 32.8727273,
                "end_time": 33.1454545,
                "pitch": 65,
                "velocity": 40,
                "duration": 0.2727273,
                "tempo": 120.0
            },
            {
                "start_time": 33.1454545,
                "end_time": 33.4159091,
                "pitch": 65,
                "velocity": 40,
                "duration": 0.2704545,
                "tempo": 120.0
            },
            {
                "start_time": 33.4181818,
                "end_time": 33.6840909,
                "pitch": 65,
                "velocity": 40,
                "duration": 0.2659091,
                "tempo": 120.0
            },
            {
                "start_time": 33.6840909,
                "end_time": 33.9522727,
                "pitch": 65,
                "velocity": 40,
                "duration": 0.2681818,
                "tempo": 120.0
            },
            {
                "start_time": 25.8681818,
                "end_time": 33.9522727,
                "pitch": 78,
                "velocity": 40,
                "duration": 8.0840909,
                "tempo": 120.0
            },
            {
                "start_time": 33.9522727,
                "end_time": 34.225,
                "pitch": 67,
                "velocity": 40,
                "duration": 0.2727273,
                "tempo": 120.0
            },
            {
                "start_time": 34.225,
                "end_time": 34.4954545,
                "pitch": 67,
                "velocity": 40,
                "duration": 0.2704545,
                "tempo": 120.0
            },
            {
                "start_time": 22.0931818,
                "end_time": 35.0318182,
                "pitch": 66,
                "velocity": 32,
                "duration": 12.9386364,
                "tempo": 120.0
            },
            {
                "start_time": 34.7659091,
                "end_time": 35.0318182,
                "pitch": 66,
                "velocity": 40,
                "duration": 0.2659091,
                "tempo": 120.0
            },
            {
                "start_time": 35.0318182,
                "end_time": 35.3045455,
                "pitch": 66,
                "velocity": 40,
                "duration": 0.2727273,
                "tempo": 120.0
            },
            {
                "start_time": 35.3045455,
                "end_time": 35.5772727,
                "pitch": 66,
                "velocity": 40,
                "duration": 0.2727273,
                "tempo": 120.0
            },
            {
                "start_time": 35.5772727,
                "end_time": 35.8431818,
                "pitch": 66,
                "velocity": 40,
                "duration": 0.2659091,
                "tempo": 120.0
            },
            {
                "start_time": 35.8431818,
                "end_time": 36.1113636,
                "pitch": 66,
                "velocity": 40,
                "duration": 0.2681818,
                "tempo": 120.0
            },
            {
                "start_time": 36.1113636,
                "end_time": 36.3795455,
                "pitch": 66,
                "velocity": 40,
                "duration": 0.2681818,
                "tempo": 120.0
            },
            {
                "start_time": 36.3795455,
                "end_time": 36.6477273,
                "pitch": 66,
                "velocity": 40,
                "duration": 0.2681818,
                "tempo": 120.0
            },
            {
                "start_time": 36.6477273,
                "end_time": 36.9204545,
                "pitch": 66,
                "velocity": 40,
                "duration": 0.2727273,
                "tempo": 120.0
            },
            {
                "start_time": 36.9204545,
                "end_time": 37.1909091,
                "pitch": 65,
                "velocity": 40,
                "duration": 0.2704545,
                "tempo": 120.0
            },
            {
                "start_time": 37.1931818,
                "end_time": 37.4590909,
                "pitch": 65,
                "velocity": 40,
                "duration": 0.2659091,
                "tempo": 120.0
            },
            {
                "start_time": 37.4590909,
                "end_time": 37.7272727,
                "pitch": 65,
                "velocity": 40,
                "duration": 0.2681818,
                "tempo": 120.0
            },
            {
                "start_time": 37.7272727,
                "end_time": 37.9931818,
                "pitch": 65,
                "velocity": 40,
                "duration": 0.2659091,
                "tempo": 120.0
            },
            {
                "start_time": 37.9954545,
                "end_time": 38.2613636,
                "pitch": 65,
                "velocity": 40,
                "duration": 0.2659091,
                "tempo": 120.0
            },
            {
                "start_time": 38.2613636,
                "end_time": 38.5340909,
                "pitch": 65,
                "velocity": 40,
                "duration": 0.2727273,
                "tempo": 120.0
            },
            {
                "start_time": 38.5340909,
                "end_time": 38.8068182,
                "pitch": 65,
                "velocity": 40,
                "duration": 0.2727273,
                "tempo": 120.0
            },
            {
                "start_time": 38.8068182,
                "end_time": 39.0727273,
                "pitch": 65,
                "velocity": 40,
                "duration": 0.2659091,
                "tempo": 120.0
            },
            {
                "start_time": 39.075,
                "end_time": 39.3409091,
                "pitch": 65,
                "velocity": 40,
                "duration": 0.2659091,
                "tempo": 120.0
            },
            {
                "start_time": 39.3409091,
                "end_time": 39.6136364,
                "pitch": 65,
                "velocity": 40,
                "duration": 0.2727273,
                "tempo": 120.0
            },
            {
                "start_time": 39.6136364,
                "end_time": 39.8863636,
                "pitch": 65,
                "velocity": 40,
                "duration": 0.2727273,
                "tempo": 120.0
            },
            {
                "start_time": 39.8863636,
                "end_time": 40.1545455,
                "pitch": 65,
                "velocity": 40,
                "duration": 0.2681818,
                "tempo": 120.0
            },
            {
                "start_time": 40.1545455,
                "end_time": 40.4204545,
                "pitch": 65,
                "velocity": 40,
                "duration": 0.2659091,
                "tempo": 120.0
            },
            {
                "start_time": 40.4204545,
                "end_time": 40.6886364,
                "pitch": 65,
                "velocity": 40,
                "duration": 0.2681818,
                "tempo": 120.0
            },
            {
                "start_time": 40.6886364,
                "end_time": 40.9568182,
                "pitch": 65,
                "velocity": 40,
                "duration": 0.2681818,
                "tempo": 120.0
            },
            {
                "start_time": 15.0886364,
                "end_time": 41.2272727,
                "pitch": 77,
                "velocity": 51,
                "duration": 26.1386364,
                "tempo": 120.0
            },
            {
                "start_time": 40.9590909,
                "end_time": 41.2272727,
                "pitch": 77,
                "velocity": 51,
                "duration": 0.2681818,
                "tempo": 120.0
            },
            {
                "start_time": 33.9522727,
                "end_time": 41.2272727,
                "pitch": 78,
                "velocity": 40,
                "duration": 7.275,
                "tempo": 120.0
            },
            {
                "start_time": 9.1636364,
                "end_time": 41.5,
                "pitch": 56,
                "velocity": 51,
                "duration": 32.3363636,
                "tempo": 120.0
            },
            {
                "start_time": 41.2272727,
                "end_time": 41.5,
                "pitch": 71,
                "velocity": 51,
                "duration": 0.2727273,
                "tempo": 120.0
            },
            {
                "start_time": 41.5,
                "end_time": 41.5022727,
                "pitch": 74,
                "velocity": 51,
                "duration": 0.0022727,
                "tempo": 120.0
            }
        ]
    }
}