{
    "mood": "relaxed",
    "instruments": {
        "Acoustic Bass": [
            {
                "start_time": 0.0113636,
                "end_time": 0.9,
                "pitch": 34,
                "velocity": 64,
                "duration": 0.8886364,
                "tempo": 120.0
            },
            {
                "start_time": 0.9,
                "end_time": 2.4113636,
                "pitch": 33,
                "velocity": 64,
                "duration": 1.5113636,
                "tempo": 120.0
            },
            {
                "start_time": 2.4113636,
                "end_time": 3.3159091,
                "pitch": 38,
                "velocity": 64,
                "duration": 0.9045455,
                "tempo": 120.0
            },
            {
                "start_time": 3.3159091,
                "end_time": 4.2227273,
                "pitch": 38,
                "velocity": 64,
                "duration": 0.9068182,
                "tempo": 120.0
            },
            {
                "start_time": 4.2227273,
                "end_time": 4.8386364,
                "pitch": 36,
                "velocity": 64,
                "duration": 0.6159091,
                "tempo": 120.0
            },
            {
                "start_time": 4.8386364,
                "end_time": 5.7386364,
                "pitch": 34,
                "velocity": 64,
                "duration": 0.9,
                "tempo": 120.0
            },
            {
                "start_time": 5.7409091,
                "end_time": 7.2545455,
                "pitch": 33,
                "velocity": 64,
                "duration": 1.5136364,
                "tempo": 120.0
            },
            {
                "start_time": 7.2545455,
                "end_time": 8.1568182,
                "pitch": 38,
                "velocity": 64,
                "duration": 0.9022727,
                "tempo": 120.0
            },
            {
                "start_time": 8.1590909,
                "end_time": 9.0590909,
                "pitch": 38,
                "velocity": 64,
                "duration": 0.9,
                "tempo": 120.0
            },
            {
                "start_time": 9.0613636,
                "end_time": 9.6636364,
                "pitch": 36,
                "velocity": 64,
                "duration": 0.6022727,
                "tempo": 120.0
            },
            {
                "start_time": 9.6636364,
                "end_time": 10.5704545,
                "pitch": 34,
                "velocity": 64,
                "duration": 0.9068182,
                "tempo": 120.0
            },
            {
                "start_time": 10.5704545,
                "end_time": 12.0772727,
                "pitch": 36,
                "velocity": 64,
                "duration": 1.5068182,
                "tempo": 120.0
            },
            {
                "start_time": 12.0795455,
                "end_time": 12.9727273,
                "pitch": 33,
                "velocity": 64,
                "duration": 0.8931818,
                "tempo": 120.0
            },
            {
                "start_time": 12.975,
                "end_time": 14.4886364,
                "pitch": 38,
                "velocity": 64,
                "duration": 1.5136364,
                "tempo": 120.0
            },
            {
                "start_time": 14.4886364,
                "end_time": 16.8977273,
                "pitch": 34,
                "velocity": 64,
                "duration": 2.4090909,
                "tempo": 120.0
            },
            {
                "start_time": 16.8977273,
                "end_time": 19.0113636,
                "pitch": 48,
                "velocity": 64,
                "duration": 2.1136364,
                "tempo": 120.0
            },
            {
                "start_time": 19.0136364,
                "end_time": 21.7340909,
                "pitch": 36,
                "velocity": 64,
                "duration": 2.7204545,
                "tempo": 120.0
            },
            {
                "start_time": 21.7340909,
                "end_time": 22.6363636,
                "pitch": 29,
                "velocity": 64,
                "duration": 0.9022727,
                "tempo": 120.0
            },
            {
                "start_time": 22.6386364,
                "end_time": 24.1545455,
                "pitch": 29,
                "velocity": 64,
                "duration": 1.5159091,
                "tempo": 120.0
            },
            {
                "start_time": 24.1545455,
                "end_time": 25.0545455,
                "pitch": 33,
                "velocity": 64,
                "duration": 0.9,
                "tempo": 120.0
            },
            {
                "start_time": 25.0568182,
                "end_time": 26.5681818,
                "pitch": 33,
                "velocity": 64,
                "duration": 1.5113636,
                "tempo": 120.0
            },
            {
                "start_time": 26.5704545,
                "end_time": 27.4795455,
                "pitch": 38,
                "velocity": 64,
                "duration": 0.9090909,
                "tempo": 120.0
            },
            {
                "start_time": 27.4795455,
                "end_time": 28.9840909,
                "pitch": 38,
                "velocity": 64,
                "duration": 1.5045455,
                "tempo": 120.0
            },
            {
                "start_time": 28.9863636,
                "end_time": 29.8977273,
                "pitch": 31,
                "velocity": 64,
                "duration": 0.9113636,
                "tempo": 120.0
            },
            {
                "start_time": 29.8977273,
                "end_time": 30.8113636,
                "pitch": 36,
                "velocity": 64,
                "duration": 0.9136364,
                "tempo": 120.0
            },
            {
                "start_time": 30.8113636,
                "end_time": 31.4113636,
                "pitch": 34,
                "velocity": 64,
                "duration": 0.6,
                "tempo": 120.0
            },
            {
                "start_time": 31.4136364,
                "end_time": 32.3181818,
                "pitch": 45,
                "velocity": 64,
                "duration": 0.9045455,
                "tempo": 120.0
            },
            {
                "start_time": 32.3204545,
                "end_time": 33.8340909,
                "pitch": 33,
                "velocity": 64,
                "duration": 1.5136364,
                "tempo": 120.0
            },
            {
                "start_time": 33.8340909,
                "end_time": 34.4409091,
                "pitch": 38,
                "velocity": 64,
                "duration": 0.6068182,
                "tempo": 120.0
            },
            {
                "start_time": 34.4409091,
                "end_time": 35.0477273,
                "pitch": 40,
                "velocity": 64,
                "duration": 0.6068182,
                "tempo": 120.0
            },
            {
                "start_time": 35.0477273,
                "end_time": 35.6545455,
                "pitch": 41,
                "velocity": 64,
                "duration": 0.6068182,
                "tempo": 120.0
            },
            {
                "start_time": 35.6545455,
                "end_time": 36.2613636,
                "pitch": 42,
                "velocity": 64,
                "duration": 0.6068182,
                "tempo": 120.0
            },
            {
                "start_time": 36.2613636,
                "end_time": 37.1613636,
                "pitch": 43,
                "velocity": 64,
                "duration": 0.9,
                "tempo": 120.0
            },
            {
                "start_time": 37.1636364,
                "end_time": 38.6886364,
                "pitch": 31,
                "velocity": 64,
                "duration": 1.525,
                "tempo": 120.0
            },
            {
                "start_time": 38.6886364,
                "end_time": 39.5977273,
                "pitch": 48,
                "velocity": 64,
                "duration": 0.9090909,
                "tempo": 120.0
            },
            {
                "start_time": 39.6,
                "end_time": 41.1090909,
                "pitch": 36,
                "velocity": 64,
                "duration": 1.5090909,
                "tempo": 120.0
            },
            {
                "start_time": 41.1113636,
                "end_time": 42.0159091,
                "pitch": 29,
                "velocity": 64,
                "duration": 0.9045455,
                "tempo": 120.0
            },
            {
                "start_time": 42.0181818,
                "end_time": 43.5295455,
                "pitch": 29,
                "velocity": 64,
                "duration": 1.5113636,
                "tempo": 120.0
            },
            {
                "start_time": 43.5318182,
                "end_time": 44.4409091,
                "pitch": 33,
                "velocity": 64,
                "duration": 0.9090909,
                "tempo": 120.0
            },
            {
                "start_time": 44.4431818,
                "end_time": 45.9636364,
                "pitch": 33,
                "velocity": 64,
                "duration": 1.5204545,
                "tempo": 120.0
            },
            {
                "start_time": 45.9659091,
                "end_time": 46.8727273,
                "pitch": 38,
                "velocity": 64,
                "duration": 0.9068182,
                "tempo": 120.0
            },
            {
                "start_time": 46.8727273,
                "end_time": 48.3863636,
                "pitch": 38,
                "velocity": 64,
                "duration": 1.5136364,
                "tempo": 120.0
            },
            {
                "start_time": 48.3863636,
                "end_time": 49.2954545,
                "pitch": 31,
                "velocity": 64,
                "duration": 0.9090909,
                "tempo": 120.0
            },
            {
                "start_time": 49.2977273,
                "end_time": 50.2045455,
                "pitch": 36,
                "velocity": 64,
                "duration": 0.9068182,
                "tempo": 120.0
            },
            {
                "start_time": 50.2068182,
                "end_time": 50.8068182,
                "pitch": 34,
                "velocity": 64,
                "duration": 0.6,
                "tempo": 120.0
            },
            {
                "start_time": 50.8068182,
                "end_time": 51.7136364,
                "pitch": 45,
                "velocity": 64,
                "duration": 0.9068182,
                "tempo": 120.0
            },
            {
                "start_time": 51.7159091,
                "end_time": 53.2409091,
                "pitch": 33,
                "velocity": 64,
                "duration": 1.525,
                "tempo": 120.0
            },
            {
                "start_time": 53.2409091,
                "end_time": 53.8477273,
                "pitch": 38,
                "velocity": 64,
                "duration": 0.6068182,
                "tempo": 120.0
            },
            {
                "start_time": 53.8477273,
                "end_time": 54.4477273,
                "pitch": 40,
                "velocity": 64,
                "duration": 0.6,
                "tempo": 120.0
            },
            {
                "start_time": 54.45,
                "end_time": 55.0545455,
                "pitch": 41,
                "velocity": 64,
                "duration": 0.6045455,
                "tempo": 120.0
            },
            {
                "start_time": 55.0568182,
                "end_time": 55.6613636,
                "pitch": 42,
                "velocity": 64,
                "duration": 0.6045455,
                "tempo": 120.0
            },
            {
                "start_time": 55.6636364,
                "end_time": 56.5704545,
                "pitch": 43,
                "velocity": 64,
                "duration": 0.9068182,
                "tempo": 120.0
            },
            {
                "start_time": 56.5727273,
                "end_time": 58.0840909,
                "pitch": 48,
                "velocity": 64,
                "duration": 1.5113636,
                "tempo": 120.0
            },
            {
                "start_time": 58.0840909,
                "end_time": 58.9931818,
                "pitch": 41,
                "velocity": 64,
                "duration": 0.9090909,
                "tempo": 120.0
            },
            {
                "start_time": 58.9931818,
                "end_time": 60.5181818,
                "pitch": 29,
                "velocity": 64,
                "duration": 1.525,
                "tempo": 120.0
            },
            {
                "start_time": 60.5181818,
                "end_time": 61.4227273,
                "pitch": 46,
                "velocity": 64,
                "duration": 0.9045455,
                "tempo": 120.0
            },
            {
                "start_time": 61.425,
                "end_time": 62.9409091,
                "pitch": 34,
                "velocity": 64,
                "duration": 1.5159091,
                "tempo": 120.0
            },
            {
                "start_time": 62.9409091,
                "end_time": 63.85,
                "pitch": 46,
                "velocity": 64,
                "duration": 0.9090909,
                "tempo": 120.0
            },
            {
                "start_time": 63.8522727,
                "end_time": 65.3613636,
                "pitch": 34,
                "velocity": 64,
                "duration": 1.5090909,
                "tempo": 120.0
            },
            {
                "start_time": 65.3613636,
                "end_time": 66.2613636,
                "pitch": 38,
                "velocity": 64,
                "duration": 0.9,
                "tempo": 120.0
            },
            {
                "start_time": 66.2636364,
                "end_time": 67.7704545,
                "pitch": 38,
                "velocity": 64,
                "duration": 1.5068182,
                "tempo": 120.0
            },
            {
                "start_time": 67.7704545,
                "end_time": 68.6863636,
                "pitch": 36,
                "velocity": 64,
                "duration": 0.9159091,
                "tempo": 120.0
            },
            {
                "start_time": 68.6886364,
                "end_time": 70.1909091,
                "pitch": 29,
                "velocity": 64,
                "duration": 1.5022727,
                "tempo": 120.0
            },
            {
                "start_time": 70.1931818,
                "end_time": 71.1,
                "pitch": 34,
                "velocity": 64,
                "duration": 0.9068182,
                "tempo": 120.0
            },
            {
                "start_time": 71.1,
                "end_time": 72.6068182,
                "pitch": 36,
                "velocity": 64,
                "duration": 1.5068182,
                "tempo": 120.0
            },
            {
                "start_time": 72.6068182,
                "end_time": 73.5113636,
                "pitch": 33,
                "velocity": 64,
                "duration": 0.9045455,
                "tempo": 120.0
            },
            {
                "start_time": 73.5113636,
                "end_time": 75.0227273,
                "pitch": 38,
                "velocity": 64,
                "duration": 1.5113636,
                "tempo": 120.0
            },
            {
                "start_time": 75.0227273,
                "end_time": 75.9272727,
                "pitch": 46,
                "velocity": 64,
                "duration": 0.9045455,
                "tempo": 120.0
            },
            {
                "start_time": 75.9272727,
                "end_time": 77.4477273,
                "pitch": 34,
                "velocity": 64,
                "duration": 1.5204545,
                "tempo": 120.0
            },
            {
                "start_time": 77.4477273,
                "end_time": 79.5522727,
                "pitch": 48,
                "velocity": 64,
                "duration": 2.1045455,
                "tempo": 120.0
            },
            {
                "start_time": 79.5522727,
                "end_time": 82.2681818,
                "pitch": 36,
                "velocity": 64,
                "duration": 2.7159091,
                "tempo": 120.0
            },
            {
                "start_time": 82.2704545,
                "end_time": 83.175,
                "pitch": 29,
                "velocity": 64,
                "duration": 0.9045455,
                "tempo": 120.0
            },
            {
                "start_time": 83.1772727,
                "end_time": 84.6886364,
                "pitch": 29,
                "velocity": 64,
                "duration": 1.5113636,
                "tempo": 120.0
            },
            {
                "start_time": 84.6909091,
                "end_time": 85.5977273,
                "pitch": 33,
                "velocity": 64,
                "duration": 0.9068182,
                "tempo": 120.0
            },
            {
                "start_time": 85.5977273,
                "end_time": 87.1045455,
                "pitch": 33,
                "velocity": 64,
                "duration": 1.5068182,
                "tempo": 120.0
            },
            {
                "start_time": 87.1068182,
                "end_time": 88.0090909,
                "pitch": 38,
                "velocity": 64,
                "duration": 0.9022727,
                "tempo": 120.0
            },
            {
                "start_time": 88.0090909,
                "end_time": 89.5136364,
                "pitch": 38,
                "velocity": 64,
                "duration": 1.5045455,
                "tempo": 120.0
            },
            {
                "start_time": 89.5159091,
                "end_time": 90.4204545,
                "pitch": 31,
                "velocity": 64,
                "duration": 0.9045455,
                "tempo": 120.0
            },
            {
                "start_time": 90.4227273,
                "end_time": 91.9431818,
                "pitch": 31,
                "velocity": 64,
                "duration": 1.5204545,
                "tempo": 120.0
            },
            {
                "start_time": 91.9431818,
                "end_time": 92.8454545,
                "pitch": 36,
                "velocity": 64,
                "duration": 0.9022727,
                "tempo": 120.0
            },
            {
                "start_time": 92.8454545,
                "end_time": 94.35,
                "pitch": 36,
                "velocity": 64,
                "duration": 1.5045455,
                "tempo": 120.0
            },
            {
                "start_time": 94.3522727,
                "end_time": 95.2590909,
                "pitch": 29,
                "velocity": 64,
                "duration": 0.9068182,
                "tempo": 120.0
            },
            {
                "start_time": 95.2590909,
                "end_time": 96.7659091,
                "pitch": 38,
                "velocity": 64,
                "duration": 1.5068182,
                "tempo": 120.0
            },
            {
                "start_time": 96.7681818,
                "end_time": 97.6704545,
                "pitch": 31,
                "velocity": 64,
                "duration": 0.9022727,
                "tempo": 120.0
            },
            {
                "start_time": 97.6727273,
                "end_time": 99.1886364,
                "pitch": 36,
                "velocity": 64,
                "duration": 1.5159091,
                "tempo": 120.0
            },
            {
                "start_time": 99.1886364,
                "end_time": 101.6,
                "pitch": 41,
                "velocity": 64,
                "duration": 2.4113636,
                "tempo": 120.0
            }
        ],
        "Vibraphone": [
            {
                "start_time": 0.0090909,
                "end_time": 0.8954545,
                "pitch": 69,
                "velocity": 51,
                "duration": 0.8863636,
                "tempo": 120.0
            },
            {
                "start_time": 0.8977273,
                "end_time": 2.4068182,
                "pitch": 67,
                "velocity": 51,
                "duration": 1.5090909,
                "tempo": 120.0
            },
            {
                "start_time": 2.4090909,
                "end_time": 3.3113636,
                "pitch": 67,
                "velocity": 51,
                "duration": 0.9022727,
                "tempo": 120.0
            },
            {
                "start_time": 3.3136364,
                "end_time": 4.2204545,
                "pitch": 65,
                "velocity": 51,
                "duration": 0.9068182,
                "tempo": 120.0
            },
            {
                "start_time": 4.2227273,
                "end_time": 4.8340909,
                "pitch": 64,
                "velocity": 51,
                "duration": 0.6113636,
                "tempo": 120.0
            },
            {
                "start_time": 4.8363636,
                "end_time": 5.7363636,
                "pitch": 69,
                "velocity": 51,
                "duration": 0.9,
                "tempo": 120.0
            },
            {
                "start_time": 5.7363636,
                "end_time": 7.25,
                "pitch": 67,
                "velocity": 51,
                "duration": 1.5136364,
                "tempo": 120.0
            },
            {
                "start_time": 7.2522727,
                "end_time": 8.1545455,
                "pitch": 67,
                "velocity": 51,
                "duration": 0.9022727,
                "tempo": 120.0
            },
            {
                "start_time": 8.1545455,
                "end_time": 8.7568182,
                "pitch": 65,
                "velocity": 51,
                "duration": 0.6022727,
                "tempo": 120.0
            },
            {
                "start_time": 8.7590909,
                "end_time": 9.0568182,
                "pitch": 62,
                "velocity": 51,
                "duration": 0.2977273,
                "tempo": 120.0
            },
            {
                "start_time": 9.0590909,
                "end_time": 9.3590909,
                "pitch": 64,
                "velocity": 51,
                "duration": 0.3,
                "tempo": 120.0
            },
            {
                "start_time": 9.3590909,
                "end_time": 9.6590909,
                "pitch": 65,
                "velocity": 51,
                "duration": 0.3,
                "tempo": 120.0
            },
            {
                "start_time": 9.6613636,
                "end_time": 10.5659091,
                "pitch": 65,
                "velocity": 51,
                "duration": 0.9045455,
                "tempo": 120.0
            },
            {
                "start_time": 10.5681818,
                "end_time": 12.075,
                "pitch": 64,
                "velocity": 51,
                "duration": 1.5068182,
                "tempo": 120.0
            },
            {
                "start_time": 12.075,
                "end_time": 12.9704545,
                "pitch": 67,
                "velocity": 51,
                "duration": 0.8954545,
                "tempo": 120.0
            },
            {
                "start_time": 12.9704545,
                "end_time": 13.8840909,
                "pitch": 65,
                "velocity": 51,
                "duration": 0.9136364,
                "tempo": 120.0
            },
            {
                "start_time": 13.8840909,
                "end_time": 14.1840909,
                "pitch": 64,
                "velocity": 51,
                "duration": 0.3,
                "tempo": 120.0
            },
            {
                "start_time": 14.1840909,
                "end_time": 14.4840909,
                "pitch": 65,
                "velocity": 51,
                "duration": 0.3,
                "tempo": 120.0
            },
            {
                "start_time": 14.4840909,
                "end_time": 15.9886364,
                "pitch": 65,
                "velocity": 51,
                "duration": 1.5045455,
                "tempo": 120.0
            },
            {
                "start_time": 15.9886364,
                "end_time": 16.2909091,
                "pitch": 58,
                "velocity": 51,
                "duration": 0.3022727,
                "tempo": 120.0
            },
            {
                "start_time": 16.2931818,
                "end_time": 16.5931818,
                "pitch": 62,
                "velocity": 51,
                "duration": 0.3,
                "tempo": 120.0
            },
            {
                "start_time": 16.5931818,
                "end_time": 16.8931818,
                "pitch": 65,
                "velocity": 51,
                "duration": 0.3,
                "tempo": 120.0
            },
            {
                "start_time": 16.8954545,
                "end_time": 19.0090909,
                "pitch": 65,
                "velocity": 51,
                "duration": 2.1136364,
                "tempo": 120.0
            },
            {
                "start_time": 19.0090909,
                "end_time": 21.7295455,
                "pitch": 67,
                "velocity": 51,
                "duration": 2.7204545,
                "tempo": 120.0
            },
            {
                "start_time": 21.7295455,
                "end_time": 24.15,
                "pitch": 67,
                "velocity": 51,
                "duration": 2.4204545,
                "tempo": 120.0
            },
            {
                "start_time": 24.1522727,
                "end_time": 26.5659091,
                "pitch": 67,
                "velocity": 51,
                "duration": 2.4136364,
                "tempo": 120.0
            },
            {
                "start_time": 26.5659091,
                "end_time": 28.9818182,
                "pitch": 67,
                "velocity": 51,
                "duration": 2.4159091,
                "tempo": 120.0
            },
            {
                "start_time": 28.9818182,
                "end_time": 29.8931818,
                "pitch": 65,
                "velocity": 51,
                "duration": 0.9113636,
                "tempo": 120.0
            },
            {
                "start_time": 29.8954545,
                "end_time": 30.8068182,
                "pitch": 67,
                "velocity": 51,
                "duration": 0.9113636,
                "tempo": 120.0
            },
            {
                "start_time": 30.8090909,
                "end_time": 31.4090909,
                "pitch": 65,
                "velocity": 51,
                "duration": 0.6,
                "tempo": 120.0
            },
            {
                "start_time": 31.4090909,
                "end_time": 33.8295455,
                "pitch": 64,
                "velocity": 51,
                "duration": 2.4204545,
                "tempo": 120.0
            },
            {
                "start_time": 33.8318182,
                "end_time": 34.4363636,
                "pitch": 65,
                "velocity": 51,
                "duration": 0.6045455,
                "tempo": 120.0
            },
            {
                "start_time": 34.4386364,
                "end_time": 35.0431818,
                "pitch": 67,
                "velocity": 51,
                "duration": 0.6045455,
                "tempo": 120.0
            },
            {
                "start_time": 35.0454545,
                "end_time": 35.65,
                "pitch": 69,
                "velocity": 51,
                "duration": 0.6045455,
                "tempo": 120.0
            },
            {
                "start_time": 35.6522727,
                "end_time": 36.2568182,
                "pitch": 72,
                "velocity": 51,
                "duration": 0.6045455,
                "tempo": 120.0
            },
            {
                "start_time": 36.2590909,
                "end_time": 37.7704545,
                "pitch": 70,
                "velocity": 51,
                "duration": 1.5113636,
                "tempo": 120.0
            },
            {
                "start_time": 37.7727273,
                "end_time": 38.0772727,
                "pitch": 72,
                "velocity": 51,
                "duration": 0.3045455,
                "tempo": 120.0
            },
            {
                "start_time": 38.0795455,
                "end_time": 38.3818182,
                "pitch": 70,
                "velocity": 51,
                "duration": 0.3022727,
                "tempo": 120.0
            },
            {
                "start_time": 38.3818182,
                "end_time": 38.6840909,
                "pitch": 65,
                "velocity": 51,
                "duration": 0.3022727,
                "tempo": 120.0
            },
            {
                "start_time": 38.6863636,
                "end_time": 39.5954545,
                "pitch": 65,
                "velocity": 51,
                "duration": 0.9090909,
                "tempo": 120.0
            },
            {
                "start_time": 39.5954545,
                "end_time": 41.1068182,
                "pitch": 67,
                "velocity": 51,
                "duration": 1.5113636,
                "tempo": 120.0
            },
            {
                "start_time": 41.1068182,
                "end_time": 43.5272727,
                "pitch": 67,
                "velocity": 51,
                "duration": 2.4204545,
                "tempo": 120.0
            },
            {
                "start_time": 43.5272727,
                "end_time": 45.9613636,
                "pitch": 67,
                "velocity": 51,
                "duration": 2.4340909,
                "tempo": 120.0
            },
            {
                "start_time": 45.9613636,
                "end_time": 48.3818182,
                "pitch": 67,
                "velocity": 51,
                "duration": 2.4204545,
                "tempo": 120.0
            },
            {
                "start_time": 48.3840909,
                "end_time": 49.2931818,
                "pitch": 65,
                "velocity": 51,
                "duration": 0.9090909,
                "tempo": 120.0
            },
            {
                "start_time": 49.2931818,
                "end_time": 50.2022727,
                "pitch": 67,
                "velocity": 51,
                "duration": 0.9090909,
                "tempo": 120.0
            },
            {
                "start_time": 50.2022727,
                "end_time": 50.8045455,
                "pitch": 65,
                "velocity": 51,
                "duration": 0.6022727,
                "tempo": 120.0
            },
            {
                "start_time": 50.8045455,
                "end_time": 53.2363636,
                "pitch": 64,
                "velocity": 51,
                "duration": 2.4318182,
                "tempo": 120.0
            },
            {
                "start_time": 53.2386364,
                "end_time": 53.8431818,
                "pitch": 65,
                "velocity": 51,
                "duration": 0.6045455,
                "tempo": 120.0
            },
            {
                "start_time": 53.8454545,
                "end_time": 54.4454545,
                "pitch": 67,
                "velocity": 51,
                "duration": 0.6,
                "tempo": 120.0
            },
            {
                "start_time": 54.4454545,
                "end_time": 55.0522727,
                "pitch": 69,
                "velocity": 51,
                "duration": 0.6068182,
                "tempo": 120.0
            },
            {
                "start_time": 55.0522727,
                "end_time": 55.6590909,
                "pitch": 72,
                "velocity": 51,
                "duration": 0.6068182,
                "tempo": 120.0
            },
            {
                "start_time": 55.6590909,
                "end_time": 56.5681818,
                "pitch": 70,
                "velocity": 51,
                "duration": 0.9090909,
                "tempo": 120.0
            },
            {
                "start_time": 56.5681818,
                "end_time": 58.0795455,
                "pitch": 67,
                "velocity": 51,
                "duration": 1.5113636,
                "tempo": 120.0
            },
            {
                "start_time": 58.0818182,
                "end_time": 58.9909091,
                "pitch": 69,
                "velocity": 51,
                "duration": 0.9090909,
                "tempo": 120.0
            },
            {
                "start_time": 58.9909091,
                "end_time": 60.5136364,
                "pitch": 69,
                "velocity": 51,
                "duration": 1.5227273,
                "tempo": 120.0
            },
            {
                "start_time": 60.5159091,
                "end_time": 61.4204545,
                "pitch": 69,
                "velocity": 51,
                "duration": 0.9045455,
                "tempo": 120.0
            },
            {
                "start_time": 61.4204545,
                "end_time": 62.9363636,
                "pitch": 65,
                "velocity": 51,
                "duration": 1.5159091,
                "tempo": 120.0
            },
            {
                "start_time": 62.9363636,
                "end_time": 63.8477273,
                "pitch": 69,
                "velocity": 51,
                "duration": 0.9113636,
                "tempo": 120.0
            },
            {
                "start_time": 63.8477273,
                "end_time": 64.45,
                "pitch": 67,
                "velocity": 51,
                "duration": 0.6022727,
                "tempo": 120.0
            },
            {
                "start_time": 64.4522727,
                "end_time": 65.3590909,
                "pitch": 69,
                "velocity": 51,
                "duration": 0.9068182,
                "tempo": 120.0
            },
            {
                "start_time": 65.3590909,
                "end_time": 66.2590909,
                "pitch": 67,
                "velocity": 51,
                "duration": 0.9,
                "tempo": 120.0
            },
            {
                "start_time": 66.2590909,
                "end_time": 67.7659091,
                "pitch": 65,
                "velocity": 51,
                "duration": 1.5068182,
                "tempo": 120.0
            },
            {
                "start_time": 67.7681818,
                "end_time": 68.6840909,
                "pitch": 67,
                "velocity": 51,
                "duration": 0.9159091,
                "tempo": 120.0
            },
            {
                "start_time": 68.6840909,
                "end_time": 69.2863636,
                "pitch": 67,
                "velocity": 51,
                "duration": 0.6022727,
                "tempo": 120.0
            },
            {
                "start_time": 69.2886364,
                "end_time": 70.1886364,
                "pitch": 69,
                "velocity": 51,
                "duration": 0.9,
                "tempo": 120.0
            },
            {
                "start_time": 70.1886364,
                "end_time": 71.0954545,
                "pitch": 69,
                "velocity": 51,
                "duration": 0.9068182,
                "tempo": 120.0
            },
            {
                "start_time": 71.0954545,
                "end_time": 72.6022727,
                "pitch": 67,
                "velocity": 51,
                "duration": 1.5068182,
                "tempo": 120.0
            },
            {
                "start_time": 72.6045455,
                "end_time": 73.5068182,
                "pitch": 67,
                "velocity": 51,
                "duration": 0.9022727,
                "tempo": 120.0
            },
            {
                "start_time": 73.5090909,
                "end_time": 75.0181818,
                "pitch": 65,
                "velocity": 51,
                "duration": 1.5090909,
                "tempo": 120.0
            },
            {
                "start_time": 75.0204545,
                "end_time": 77.4431818,
                "pitch": 65,
                "velocity": 51,
                "duration": 2.4227273,
                "tempo": 120.0
            },
            {
                "start_time": 77.4454545,
                "end_time": 79.5477273,
                "pitch": 65,
                "velocity": 51,
                "duration": 2.1022727,
                "tempo": 120.0
            },
            {
                "start_time": 79.55,
                "end_time": 82.2659091,
                "pitch": 67,
                "velocity": 51,
                "duration": 2.7159091,
                "tempo": 120.0
            },
            {
                "start_time": 82.2659091,
                "end_time": 83.1727273,
                "pitch": 69,
                "velocity": 51,
                "duration": 0.9068182,
                "tempo": 120.0
            },
            {
                "start_time": 83.1727273,
                "end_time": 84.6863636,
                "pitch": 65,
                "velocity": 51,
                "duration": 1.5136364,
                "tempo": 120.0
            },
            {
                "start_time": 84.6863636,
                "end_time": 85.5931818,
                "pitch": 67,
                "velocity": 51,
                "duration": 0.9068182,
                "tempo": 120.0
            },
            {
                "start_time": 85.5954545,
                "end_time": 87.1022727,
                "pitch": 67,
                "velocity": 51,
                "duration": 1.5068182,
                "tempo": 120.0
            },
            {
                "start_time": 87.1022727,
                "end_time": 88.0045455,
                "pitch": 69,
                "velocity": 51,
                "duration": 0.9022727,
                "tempo": 120.0
            },
            {
                "start_time": 88.0068182,
                "end_time": 89.5113636,
                "pitch": 72,
                "velocity": 51,
                "duration": 1.5045455,
                "tempo": 120.0
            },
            {
                "start_time": 89.5113636,
                "end_time": 90.4181818,
                "pitch": 70,
                "velocity": 51,
                "duration": 0.9068182,
                "tempo": 120.0
            },
            {
                "start_time": 90.4181818,
                "end_time": 91.025,
                "pitch": 69,
                "velocity": 51,
                "duration": 0.6068182,
                "tempo": 120.0
            },
            {
                "start_time": 91.025,
                "end_time": 91.9386364,
                "pitch": 67,
                "velocity": 51,
                "duration": 0.9136364,
                "tempo": 120.0
            },
            {
                "start_time": 91.9386364,
                "end_time": 92.8409091,
                "pitch": 67,
                "velocity": 51,
                "duration": 0.9022727,
                "tempo": 120.0
            },
            {
                "start_time": 92.8431818,
                "end_time": 94.3477273,
                "pitch": 70,
                "velocity": 51,
                "duration": 1.5045455,
                "tempo": 120.0
            },
            {
                "start_time": 94.3477273,
                "end_time": 95.2545455,
                "pitch": 69,
                "velocity": 64,
                "duration": 0.9068182,
                "tempo": 120.0
            },
            {
                "start_time": 95.2568182,
                "end_time": 96.7636364,
                "pitch": 69,
                "velocity": 64,
                "duration": 1.5068182,
                "tempo": 120.0
            },
            {
                "start_time": 96.7636364,
                "end_time": 97.6681818,
                "pitch": 65,
                "velocity": 51,
                "duration": 0.9045455,
                "tempo": 120.0
            },
            {
                "start_time": 97.6681818,
                "end_time": 99.1840909,
                "pitch": 67,
                "velocity": 51,
                "duration": 1.5159091,
                "tempo": 120.0
            },
            {
                "start_time": 99.1863636,
                "end_time": 101.5977273,
                "pitch": 65,
                "velocity": 51,
                "duration": 2.4113636,
                "tempo": 120.0
            },
            {
                "start_time": 101.6090909,
                "end_time": 101.6113636,
                "pitch": 69,
                "velocity": 51,
                "duration": 0.0022727,
                "tempo": 120.0
            }
        ],
        "Flute": [
            {
                "start_time": 62.025,
                "end_time": 62.0409091,
                "pitch": 66,
                "velocity": 101,
                "duration": 0.0159091,
                "tempo": 120.0
            },
            {
                "start_time": 62.0409091,
                "end_time": 62.325,
                "pitch": 67,
                "velocity": 101,
                "duration": 0.2840909,
                "tempo": 120.0
            },
            {
                "start_time": 62.3272727,
                "end_time": 62.6295455,
                "pitch": 68,
                "velocity": 101,
                "duration": 0.3022727,
                "tempo": 120.0
            },
            {
                "start_time": 62.6318182,
                "end_time": 62.9318182,
                "pitch": 68,
                "velocity": 101,
                "duration": 0.3,
                "tempo": 120.0
            },
            {
                "start_time": 62.9340909,
                "end_time": 62.9681818,
                "pitch": 68,
                "velocity": 101,
                "duration": 0.0340909,
                "tempo": 120.0
            },
            {
                "start_time": 62.9681818,
                "end_time": 63.5386364,
                "pitch": 71,
                "velocity": 101,
                "duration": 0.5704545,
                "tempo": 120.0
            },
            {
                "start_time": 63.5409091,
                "end_time": 63.8431818,
                "pitch": 71,
                "velocity": 101,
                "duration": 0.3022727,
                "tempo": 120.0
            },
            {
                "start_time": 63.8454545,
                "end_time": 64.4454545,
                "pitch": 69,
                "velocity": 101,
                "duration": 0.6,
                "tempo": 120.0
            },
            {
                "start_time": 64.4477273,
                "end_time": 64.8318182,
                "pitch": 68,
                "velocity": 101,
                "duration": 0.3840909,
                "tempo": 120.0
            },
            {
                "start_time": 62.0409091,
                "end_time": 64.8840909,
                "pitch": 55,
                "velocity": 101,
                "duration": 2.8431818,
                "tempo": 120.0
            },
            {
                "start_time": 64.8318182,
                "end_time": 64.8840909,
                "pitch": 67,
                "velocity": 101,
                "duration": 0.0522727,
                "tempo": 120.0
            },
            {
                "start_time": 64.8840909,
                "end_time": 65.0,
                "pitch": 67,
                "velocity": 101,
                "duration": 0.1159091,
                "tempo": 120.0
            },
            {
                "start_time": 64.8318182,
                "end_time": 65.0,
                "pitch": 79,
                "velocity": 101,
                "duration": 0.1681818,
                "tempo": 120.0
            },
            {
                "start_time": 64.8840909,
                "end_time": 65.0522727,
                "pitch": 55,
                "velocity": 101,
                "duration": 0.1681818,
                "tempo": 120.0
            },
            {
                "start_time": 65.0,
                "end_time": 65.0522727,
                "pitch": 67,
                "velocity": 101,
                "duration": 0.0522727,
                "tempo": 120.0
            },
            {
                "start_time": 65.0522727,
                "end_time": 65.1704545,
                "pitch": 67,
                "velocity": 101,
                "duration": 0.1181818,
                "tempo": 120.0
            },
            {
                "start_time": 65.0,
                "end_time": 65.1704545,
                "pitch": 79,
                "velocity": 101,
                "duration": 0.1704545,
                "tempo": 120.0
            },
            {
                "start_time": 65.0522727,
                "end_time": 65.2204545,
                "pitch": 55,
                "velocity": 101,
                "duration": 0.1681818,
                "tempo": 120.0
            },
            {
                "start_time": 65.1704545,
                "end_time": 65.2204545,
                "pitch": 67,
                "velocity": 101,
                "duration": 0.05,
                "tempo": 120.0
            },
            {
                "start_time": 65.2204545,
                "end_time": 65.3386364,
                "pitch": 67,
                "velocity": 101,
                "duration": 0.1181818,
                "tempo": 120.0
            },
            {
                "start_time": 65.1704545,
                "end_time": 65.3386364,
                "pitch": 79,
                "velocity": 101,
                "duration": 0.1681818,
                "tempo": 120.0
            },
            {
                "start_time": 65.3386364,
                "end_time": 65.3545455,
                "pitch": 67,
                "velocity": 101,
                "duration": 0.0159091,
                "tempo": 120.0
            },
            {
                "start_time": 65.3568182,
                "end_time": 65.6545455,
                "pitch": 68,
                "velocity": 101,
                "duration": 0.2977273,
                "tempo": 120.0
            },
            {
                "start_time": 65.6568182,
                "end_time": 65.9545455,
                "pitch": 69,
                "velocity": 101,
                "duration": 0.2977273,
                "tempo": 120.0
            },
            {
                "start_time": 65.9568182,
                "end_time": 66.2545455,
                "pitch": 68,
                "velocity": 101,
                "duration": 0.2977273,
                "tempo": 120.0
            },
            {
                "start_time": 66.2568182,
                "end_time": 66.8590909,
                "pitch": 68,
                "velocity": 101,
                "duration": 0.6022727,
                "tempo": 120.0
            },
            {
                "start_time": 66.8613636,
                "end_time": 66.8772727,
                "pitch": 68,
                "velocity": 101,
                "duration": 0.0159091,
                "tempo": 120.0
            },
            {
                "start_time": 65.3386364,
                "end_time": 66.8772727,
                "pitch": 79,
                "velocity": 101,
                "duration": 1.5386364,
                "tempo": 120.0
            },
            {
                "start_time": 66.8772727,
                "end_time": 67.2295455,
                "pitch": 67,
                "velocity": 101,
                "duration": 0.3522727,
                "tempo": 120.0
            },
            {
                "start_time": 67.2295455,
                "end_time": 67.7636364,
                "pitch": 65,
                "velocity": 101,
                "duration": 0.5340909,
                "tempo": 120.0
            },
            {
                "start_time": 67.7659091,
                "end_time": 67.7795455,
                "pitch": 66,
                "velocity": 101,
                "duration": 0.0136364,
                "tempo": 120.0
            },
            {
                "start_time": 65.2204545,
                "end_time": 67.7818182,
                "pitch": 55,
                "velocity": 101,
                "duration": 2.5613636,
                "tempo": 120.0
            },
            {
                "start_time": 67.7795455,
                "end_time": 67.7818182,
                "pitch": 55,
                "velocity": 101,
                "duration": 0.0022727,
                "tempo": 120.0
            },
            {
                "start_time": 67.7818182,
                "end_time": 67.8159091,
                "pitch": 67,
                "velocity": 101,
                "duration": 0.0340909,
                "tempo": 120.0
            },
            {
                "start_time": 67.8159091,
                "end_time": 67.8477273,
                "pitch": 70,
                "velocity": 101,
                "duration": 0.0318182,
                "tempo": 120.0
            },
            {
                "start_time": 67.8477273,
                "end_time": 68.375,
                "pitch": 72,
                "velocity": 101,
                "duration": 0.5272727,
                "tempo": 120.0
            },
            {
                "start_time": 68.3772727,
                "end_time": 68.6795455,
                "pitch": 71,
                "velocity": 101,
                "duration": 0.3022727,
                "tempo": 120.0
            },
            {
                "start_time": 68.6818182,
                "end_time": 69.2840909,
                "pitch": 69,
                "velocity": 101,
                "duration": 0.6022727,
                "tempo": 120.0
            },
            {
                "start_time": 69.2863636,
                "end_time": 69.6181818,
                "pitch": 68,
                "velocity": 101,
                "duration": 0.3318182,
                "tempo": 120.0
            },
            {
                "start_time": 66.8772727,
                "end_time": 69.6181818,
                "pitch": 79,
                "velocity": 101,
                "duration": 2.7409091,
                "tempo": 120.0
            },
            {
                "start_time": 69.6181818,
                "end_time": 69.6681818,
                "pitch": 67,
                "velocity": 101,
                "duration": 0.05,
                "tempo": 120.0
            },
            {
                "start_time": 69.6681818,
                "end_time": 69.7840909,
                "pitch": 67,
                "velocity": 101,
                "duration": 0.1159091,
                "tempo": 120.0
            },
            {
                "start_time": 69.6181818,
                "end_time": 69.7840909,
                "pitch": 79,
                "velocity": 101,
                "duration": 0.1659091,
                "tempo": 120.0
            },
            {
                "start_time": 69.6681818,
                "end_time": 69.8340909,
                "pitch": 55,
                "velocity": 101,
                "duration": 0.1659091,
                "tempo": 120.0
            },
            {
                "start_time": 69.7840909,
                "end_time": 69.8340909,
                "pitch": 67,
                "velocity": 101,
                "duration": 0.05,
                "tempo": 120.0
            },
            {
                "start_time": 69.8340909,
                "end_time": 69.9522727,
                "pitch": 67,
                "velocity": 101,
                "duration": 0.1181818,
                "tempo": 120.0
            },
            {
                "start_time": 69.7840909,
                "end_time": 69.9522727,
                "pitch": 79,
                "velocity": 101,
                "duration": 0.1681818,
                "tempo": 120.0
            },
            {
                "start_time": 69.8340909,
                "end_time": 70.0022727,
                "pitch": 55,
                "velocity": 101,
                "duration": 0.1681818,
                "tempo": 120.0
            },
            {
                "start_time": 69.9522727,
                "end_time": 70.0022727,
                "pitch": 67,
                "velocity": 101,
                "duration": 0.05,
                "tempo": 120.0
            },
            {
                "start_time": 70.0022727,
                "end_time": 70.1181818,
                "pitch": 67,
                "velocity": 101,
                "duration": 0.1159091,
                "tempo": 120.0
            },
            {
                "start_time": 69.9522727,
                "end_time": 70.1181818,
                "pitch": 79,
                "velocity": 101,
                "duration": 0.1659091,
                "tempo": 120.0
            },
            {
                "start_time": 70.0022727,
                "end_time": 70.1681818,
                "pitch": 55,
                "velocity": 101,
                "duration": 0.1659091,
                "tempo": 120.0
            },
            {
                "start_time": 70.1181818,
                "end_time": 70.1681818,
                "pitch": 67,
                "velocity": 101,
                "duration": 0.05,
                "tempo": 120.0
            },
            {
                "start_time": 70.1681818,
                "end_time": 70.1840909,
                "pitch": 67,
                "velocity": 101,
                "duration": 0.0159091,
                "tempo": 120.0
            },
            {
                "start_time": 70.1863636,
                "end_time": 70.4886364,
                "pitch": 68,
                "velocity": 101,
                "duration": 0.3022727,
                "tempo": 120.0
            },
            {
                "start_time": 70.4909091,
                "end_time": 70.7909091,
                "pitch": 71,
                "velocity": 101,
                "duration": 0.3,
                "tempo": 120.0
            },
            {
                "start_time": 70.7931818,
                "end_time": 71.0909091,
                "pitch": 71,
                "velocity": 101,
                "duration": 0.2977273,
                "tempo": 120.0
            },
            {
                "start_time": 71.0931818,
                "end_time": 71.4772727,
                "pitch": 69,
                "velocity": 101,
                "duration": 0.3840909,
                "tempo": 120.0
            },
            {
                "start_time": 70.1181818,
                "end_time": 71.4772727,
                "pitch": 79,
                "velocity": 101,
                "duration": 1.3590909,
                "tempo": 120.0
            },
            {
                "start_time": 70.1681818,
                "end_time": 71.5272727,
                "pitch": 55,
                "velocity": 101,
                "duration": 1.3590909,
                "tempo": 120.0
            },
            {
                "start_time": 71.4772727,
                "end_time": 71.5272727,
                "pitch": 67,
                "velocity": 101,
                "duration": 0.05,
                "tempo": 120.0
            },
            {
                "start_time": 71.5272727,
                "end_time": 71.6454545,
                "pitch": 67,
                "velocity": 101,
                "duration": 0.1181818,
                "tempo": 120.0
            },
            {
                "start_time": 71.4772727,
                "end_time": 71.6454545,
                "pitch": 79,
                "velocity": 101,
                "duration": 0.1681818,
                "tempo": 120.0
            },
            {
                "start_time": 71.5272727,
                "end_time": 71.6977273,
                "pitch": 55,
                "velocity": 101,
                "duration": 0.1704545,
                "tempo": 120.0
            },
            {
                "start_time": 71.6454545,
                "end_time": 71.6977273,
                "pitch": 67,
                "velocity": 101,
                "duration": 0.0522727,
                "tempo": 120.0
            },
            {
                "start_time": 71.6977273,
                "end_time": 71.8136364,
                "pitch": 67,
                "velocity": 101,
                "duration": 0.1159091,
                "tempo": 120.0
            },
            {
                "start_time": 71.6454545,
                "end_time": 71.8136364,
                "pitch": 79,
                "velocity": 101,
                "duration": 0.1681818,
                "tempo": 120.0
            },
            {
                "start_time": 71.6977273,
                "end_time": 71.8659091,
                "pitch": 55,
                "velocity": 101,
                "duration": 0.1681818,
                "tempo": 120.0
            },
            {
                "start_time": 71.8136364,
                "end_time": 71.8659091,
                "pitch": 67,
                "velocity": 101,
                "duration": 0.0522727,
                "tempo": 120.0
            },
            {
                "start_time": 71.8659091,
                "end_time": 71.9840909,
                "pitch": 67,
                "velocity": 101,
                "duration": 0.1181818,
                "tempo": 120.0
            },
            {
                "start_time": 71.8136364,
                "end_time": 71.9840909,
                "pitch": 79,
                "velocity": 101,
                "duration": 0.1704545,
                "tempo": 120.0
            },
            {
                "start_time": 71.9840909,
                "end_time": 71.9977273,
                "pitch": 67,
                "velocity": 101,
                "duration": 0.0136364,
                "tempo": 120.0
            },
            {
                "start_time": 72.0,
                "end_time": 72.0340909,
                "pitch": 68,
                "velocity": 101,
                "duration": 0.0340909,
                "tempo": 120.0
            },
            {
                "start_time": 72.0340909,
                "end_time": 72.6,
                "pitch": 71,
                "velocity": 101,
                "duration": 0.5659091,
                "tempo": 120.0
            },
            {
                "start_time": 72.6022727,
                "end_time": 72.9,
                "pitch": 72,
                "velocity": 101,
                "duration": 0.2977273,
                "tempo": 120.0
            },
            {
                "start_time": 72.9022727,
                "end_time": 73.2,
                "pitch": 73,
                "velocity": 101,
                "duration": 0.2977273,
                "tempo": 120.0
            },
            {
                "start_time": 73.2022727,
                "end_time": 73.5045455,
                "pitch": 73,
                "velocity": 101,
                "duration": 0.3022727,
                "tempo": 120.0
            },
            {
                "start_time": 73.5068182,
                "end_time": 73.8590909,
                "pitch": 71,
                "velocity": 101,
                "duration": 0.3522727,
                "tempo": 120.0
            },
            {
                "start_time": 73.8590909,
                "end_time": 74.4068182,
                "pitch": 69,
                "velocity": 101,
                "duration": 0.5477273,
                "tempo": 120.0
            },
            {
                "start_time": 74.4090909,
                "end_time": 74.7954545,
                "pitch": 70,
                "velocity": 101,
                "duration": 0.3863636,
                "tempo": 120.0
            },
            {
                "start_time": 74.7954545,
                "end_time": 75.0159091,
                "pitch": 72,
                "velocity": 101,
                "duration": 0.2204545,
                "tempo": 120.0
            },
            {
                "start_time": 75.0181818,
                "end_time": 76.5340909,
                "pitch": 70,
                "velocity": 101,
                "duration": 1.5159091,
                "tempo": 120.0
            },
            {
                "start_time": 76.5363636,
                "end_time": 76.5477273,
                "pitch": 68,
                "velocity": 101,
                "duration": 0.0113636,
                "tempo": 120.0
            },
            {
                "start_time": 76.5477273,
                "end_time": 76.5818182,
                "pitch": 66,
                "velocity": 101,
                "duration": 0.0340909,
                "tempo": 120.0
            },
            {
                "start_time": 76.5818182,
                "end_time": 76.8295455,
                "pitch": 63,
                "velocity": 101,
                "duration": 0.2477273,
                "tempo": 120.0
            },
            {
                "start_time": 71.8659091,
                "end_time": 76.8659091,
                "pitch": 55,
                "velocity": 101,
                "duration": 5.0,
                "tempo": 120.0
            },
            {
                "start_time": 76.8318182,
                "end_time": 76.8659091,
                "pitch": 64,
                "velocity": 101,
                "duration": 0.0340909,
                "tempo": 120.0
            },
            {
                "start_time": 76.8659091,
                "end_time": 76.9,
                "pitch": 67,
                "velocity": 101,
                "duration": 0.0340909,
                "tempo": 120.0
            },
            {
                "start_time": 76.9,
                "end_time": 77.1386364,
                "pitch": 71,
                "velocity": 101,
                "duration": 0.2386364,
                "tempo": 120.0
            },
            {
                "start_time": 77.1409091,
                "end_time": 77.4409091,
                "pitch": 70,
                "velocity": 101,
                "duration": 0.3,
                "tempo": 120.0
            },
            {
                "start_time": 77.4431818,
                "end_time": 77.475,
                "pitch": 69,
                "velocity": 101,
                "duration": 0.0318182,
                "tempo": 120.0
            },
            {
                "start_time": 71.9840909,
                "end_time": 77.475,
                "pitch": 79,
                "velocity": 101,
                "duration": 5.4909091,
                "tempo": 120.0
            },
            {
                "start_time": 77.475,
                "end_time": 79.5454545,
                "pitch": 67,
                "velocity": 101,
                "duration": 2.0704545,
                "tempo": 120.0
            },
            {
                "start_time": 79.5477273,
                "end_time": 79.5613636,
                "pitch": 66,
                "velocity": 101,
                "duration": 0.0136364,
                "tempo": 120.0
            },
            {
                "start_time": 76.8659091,
                "end_time": 79.5636364,
                "pitch": 55,
                "velocity": 101,
                "duration": 2.6977273,
                "tempo": 120.0
            },
            {
                "start_time": 79.5613636,
                "end_time": 79.5636364,
                "pitch": 55,
                "velocity": 101,
                "duration": 0.0022727,
                "tempo": 120.0
            },
            {
                "start_time": 79.5636364,
                "end_time": 79.9636364,
                "pitch": 67,
                "velocity": 101,
                "duration": 0.4,
                "tempo": 120.0
            },
            {
                "start_time": 77.475,
                "end_time": 79.9636364,
                "pitch": 79,
                "velocity": 101,
                "duration": 2.4886364,
                "tempo": 120.0
            },
            {
                "start_time": 79.9636364,
                "end_time": 80.0159091,
                "pitch": 67,
                "velocity": 101,
                "duration": 0.0522727,
                "tempo": 120.0
            },
            {
                "start_time": 80.0159091,
                "end_time": 80.1318182,
                "pitch": 67,
                "velocity": 101,
                "duration": 0.1159091,
                "tempo": 120.0
            },
            {
                "start_time": 79.9636364,
                "end_time": 80.1340909,
                "pitch": 79,
                "velocity": 101,
                "duration": 0.1704545,
                "tempo": 120.0
            },
            {
                "start_time": 80.1318182,
                "end_time": 80.1340909,
                "pitch": 79,
                "velocity": 101,
                "duration": 0.0022727,
                "tempo": 120.0
            },
            {
                "start_time": 80.0159091,
                "end_time": 80.1840909,
                "pitch": 55,
                "velocity": 101,
                "duration": 0.1681818,
                "tempo": 120.0
            },
            {
                "start_time": 80.1340909,
                "end_time": 80.1840909,
                "pitch": 67,
                "velocity": 101,
                "duration": 0.05,
                "tempo": 120.0
            },
            {
                "start_time": 80.1840909,
                "end_time": 80.3022727,
                "pitch": 67,
                "velocity": 101,
                "duration": 0.1181818,
                "tempo": 120.0
            },
            {
                "start_time": 80.1840909,
                "end_time": 80.3522727,
                "pitch": 55,
                "velocity": 101,
                "duration": 0.1681818,
                "tempo": 120.0
            },
            {
                "start_time": 80.3022727,
                "end_time": 80.3522727,
                "pitch": 67,
                "velocity": 101,
                "duration": 0.05,
                "tempo": 120.0
            },
            {
                "start_time": 80.3522727,
                "end_time": 80.4704545,
                "pitch": 67,
                "velocity": 101,
                "duration": 0.1181818,
                "tempo": 120.0
            },
            {
                "start_time": 80.3022727,
                "end_time": 80.4704545,
                "pitch": 79,
                "velocity": 101,
                "duration": 0.1681818,
                "tempo": 120.0
            },
            {
                "start_time": 80.3522727,
                "end_time": 80.5204545,
                "pitch": 55,
                "velocity": 101,
                "duration": 0.1681818,
                "tempo": 120.0
            },
            {
                "start_time": 80.4704545,
                "end_time": 80.5204545,
                "pitch": 67,
                "velocity": 101,
                "duration": 0.05,
                "tempo": 120.0
            },
            {
                "start_time": 80.5204545,
                "end_time": 80.6363636,
                "pitch": 67,
                "velocity": 101,
                "duration": 0.1159091,
                "tempo": 120.0
            },
            {
                "start_time": 80.4704545,
                "end_time": 80.6363636,
                "pitch": 79,
                "velocity": 101,
                "duration": 0.1659091,
                "tempo": 120.0
            },
            {
                "start_time": 80.5204545,
                "end_time": 80.6863636,
                "pitch": 55,
                "velocity": 101,
                "duration": 0.1659091,
                "tempo": 120.0
            },
            {
                "start_time": 80.6363636,
                "end_time": 80.6863636,
                "pitch": 67,
                "velocity": 101,
                "duration": 0.05,
                "tempo": 120.0
            },
            {
                "start_time": 80.6863636,
                "end_time": 80.8045455,
                "pitch": 67,
                "velocity": 101,
                "duration": 0.1181818,
                "tempo": 120.0
            },
            {
                "start_time": 80.6363636,
                "end_time": 80.8045455,
                "pitch": 79,
                "velocity": 101,
                "duration": 0.1681818,
                "tempo": 120.0
            },
            {
                "start_time": 80.6863636,
                "end_time": 80.8545455,
                "pitch": 55,
                "velocity": 101,
                "duration": 0.1681818,
                "tempo": 120.0
            },
            {
                "start_time": 80.8045455,
                "end_time": 80.8545455,
                "pitch": 67,
                "velocity": 101,
                "duration": 0.05,
                "tempo": 120.0
            },
            {
                "start_time": 80.8545455,
                "end_time": 80.9704545,
                "pitch": 67,
                "velocity": 101,
                "duration": 0.1159091,
                "tempo": 120.0
            },
            {
                "start_time": 80.8045455,
                "end_time": 80.9704545,
                "pitch": 79,
                "velocity": 101,
                "duration": 0.1659091,
                "tempo": 120.0
            },
            {
                "start_time": 80.8545455,
                "end_time": 81.0204545,
                "pitch": 55,
                "velocity": 101,
                "duration": 0.1659091,
                "tempo": 120.0
            },
            {
                "start_time": 80.9704545,
                "end_time": 81.0204545,
                "pitch": 67,
                "velocity": 101,
                "duration": 0.05,
                "tempo": 120.0
            },
            {
                "start_time": 81.0204545,
                "end_time": 81.1386364,
                "pitch": 67,
                "velocity": 101,
                "duration": 0.1181818,
                "tempo": 120.0
            },
            {
                "start_time": 80.9704545,
                "end_time": 81.1386364,
                "pitch": 79,
                "velocity": 101,
                "duration": 0.1681818,
                "tempo": 120.0
            },
            {
                "start_time": 81.0204545,
                "end_time": 81.1886364,
                "pitch": 55,
                "velocity": 101,
                "duration": 0.1681818,
                "tempo": 120.0
            },
            {
                "start_time": 81.1386364,
                "end_time": 81.1886364,
                "pitch": 67,
                "velocity": 101,
                "duration": 0.05,
                "tempo": 120.0
            },
            {
                "start_time": 81.1886364,
                "end_time": 81.3068182,
                "pitch": 67,
                "velocity": 101,
                "duration": 0.1181818,
                "tempo": 120.0
            },
            {
                "start_time": 81.1386364,
                "end_time": 81.3068182,
                "pitch": 79,
                "velocity": 101,
                "duration": 0.1681818,
                "tempo": 120.0
            },
            {
                "start_time": 81.1886364,
                "end_time": 81.3568182,
                "pitch": 55,
                "velocity": 101,
                "duration": 0.1681818,
                "tempo": 120.0
            },
            {
                "start_time": 81.3068182,
                "end_time": 81.3568182,
                "pitch": 67,
                "velocity": 101,
                "duration": 0.05,
                "tempo": 120.0
            },
            {
                "start_time": 81.3568182,
                "end_time": 81.475,
                "pitch": 67,
                "velocity": 101,
                "duration": 0.1181818,
                "tempo": 120.0
            },
            {
                "start_time": 81.3068182,
                "end_time": 81.475,
                "pitch": 79,
                "velocity": 101,
                "duration": 0.1681818,
                "tempo": 120.0
            },
            {
                "start_time": 81.3568182,
                "end_time": 81.525,
                "pitch": 55,
                "velocity": 101,
                "duration": 0.1681818,
                "tempo": 120.0
            },
            {
                "start_time": 81.475,
                "end_time": 81.525,
                "pitch": 67,
                "velocity": 101,
                "duration": 0.05,
                "tempo": 120.0
            },
            {
                "start_time": 81.525,
                "end_time": 81.6431818,
                "pitch": 67,
                "velocity": 101,
                "duration": 0.1181818,
                "tempo": 120.0
            },
            {
                "start_time": 81.475,
                "end_time": 81.6431818,
                "pitch": 79,
                "velocity": 101,
                "duration": 0.1681818,
                "tempo": 120.0
            },
            {
                "start_time": 81.525,
                "end_time": 81.6931818,
                "pitch": 55,
                "velocity": 101,
                "duration": 0.1681818,
                "tempo": 120.0
            },
            {
                "start_time": 81.6431818,
                "end_time": 81.6931818,
                "pitch": 67,
                "velocity": 101,
                "duration": 0.05,
                "tempo": 120.0
            },
            {
                "start_time": 81.6931818,
                "end_time": 81.8113636,
                "pitch": 67,
                "velocity": 101,
                "duration": 0.1181818,
                "tempo": 120.0
            },
            {
                "start_time": 81.6431818,
                "end_time": 81.8113636,
                "pitch": 79,
                "velocity": 101,
                "duration": 0.1681818,
                "tempo": 120.0
            },
            {
                "start_time": 81.6931818,
                "end_time": 81.8613636,
                "pitch": 55,
                "velocity": 101,
                "duration": 0.1681818,
                "tempo": 120.0
            },
            {
                "start_time": 81.8113636,
                "end_time": 81.8613636,
                "pitch": 67,
                "velocity": 101,
                "duration": 0.05,
                "tempo": 120.0
            },
            {
                "start_time": 81.8613636,
                "end_time": 81.9772727,
                "pitch": 67,
                "velocity": 101,
                "duration": 0.1159091,
                "tempo": 120.0
            },
            {
                "start_time": 81.8113636,
                "end_time": 81.9772727,
                "pitch": 79,
                "velocity": 101,
                "duration": 0.1659091,
                "tempo": 120.0
            },
            {
                "start_time": 81.8613636,
                "end_time": 82.0272727,
                "pitch": 55,
                "velocity": 101,
                "duration": 0.1659091,
                "tempo": 120.0
            },
            {
                "start_time": 81.9772727,
                "end_time": 82.0272727,
                "pitch": 67,
                "velocity": 101,
                "duration": 0.05,
                "tempo": 120.0
            },
            {
                "start_time": 82.0272727,
                "end_time": 82.1454545,
                "pitch": 67,
                "velocity": 101,
                "duration": 0.1181818,
                "tempo": 120.0
            },
            {
                "start_time": 81.9772727,
                "end_time": 82.1454545,
                "pitch": 79,
                "velocity": 101,
                "duration": 0.1681818,
                "tempo": 120.0
            },
            {
                "start_time": 82.0272727,
                "end_time": 82.1954545,
                "pitch": 55,
                "velocity": 101,
                "duration": 0.1681818,
                "tempo": 120.0
            },
            {
                "start_time": 82.1454545,
                "end_time": 82.1954545,
                "pitch": 67,
                "velocity": 101,
                "duration": 0.05,
                "tempo": 120.0
            },
            {
                "start_time": 82.1954545,
                "end_time": 82.2613636,
                "pitch": 67,
                "velocity": 101,
                "duration": 0.0659091,
                "tempo": 120.0
            }
        ],
        "Acoustic Guitar (nylon)": [
            {
                "start_time": 21.9318182,
                "end_time": 22.2318182,
                "pitch": 67,
                "velocity": 40,
                "duration": 0.3,
                "tempo": 120.0
            },
            {
                "start_time": 22.2340909,
                "end_time": 22.5340909,
                "pitch": 60,
                "velocity": 40,
                "duration": 0.3,
                "tempo": 120.0
            },
            {
                "start_time": 22.5363636,
                "end_time": 22.8340909,
                "pitch": 64,
                "velocity": 40,
                "duration": 0.2977273,
                "tempo": 120.0
            },
            {
                "start_time": 22.8363636,
                "end_time": 23.4409091,
                "pitch": 69,
                "velocity": 40,
                "duration": 0.6045455,
                "tempo": 120.0
            },
            {
                "start_time": 23.4409091,
                "end_time": 24.3477273,
                "pitch": 65,
                "velocity": 40,
                "duration": 0.9068182,
                "tempo": 120.0
            },
            {
                "start_time": 24.35,
                "end_time": 24.6477273,
                "pitch": 67,
                "velocity": 40,
                "duration": 0.2977273,
                "tempo": 120.0
            },
            {
                "start_time": 24.65,
                "end_time": 24.95,
                "pitch": 60,
                "velocity": 40,
                "duration": 0.3,
                "tempo": 120.0
            },
            {
                "start_time": 24.9522727,
                "end_time": 25.2545455,
                "pitch": 64,
                "velocity": 40,
                "duration": 0.3022727,
                "tempo": 120.0
            },
            {
                "start_time": 25.2568182,
                "end_time": 25.8568182,
                "pitch": 72,
                "velocity": 40,
                "duration": 0.6,
                "tempo": 120.0
            },
            {
                "start_time": 25.8590909,
                "end_time": 26.7659091,
                "pitch": 64,
                "velocity": 40,
                "duration": 0.9068182,
                "tempo": 120.0
            },
            {
                "start_time": 26.7681818,
                "end_time": 27.0681818,
                "pitch": 67,
                "velocity": 40,
                "duration": 0.3,
                "tempo": 120.0
            },
            {
                "start_time": 27.0704545,
                "end_time": 27.375,
                "pitch": 65,
                "velocity": 40,
                "duration": 0.3045455,
                "tempo": 120.0
            },
            {
                "start_time": 27.3772727,
                "end_time": 27.6818182,
                "pitch": 64,
                "velocity": 40,
                "duration": 0.3045455,
                "tempo": 120.0
            },
            {
                "start_time": 27.6818182,
                "end_time": 29.1818182,
                "pitch": 65,
                "velocity": 40,
                "duration": 1.5,
                "tempo": 120.0
            },
            {
                "start_time": 29.1818182,
                "end_time": 29.4840909,
                "pitch": 69,
                "velocity": 40,
                "duration": 0.3022727,
                "tempo": 120.0
            },
            {
                "start_time": 29.4863636,
                "end_time": 29.7909091,
                "pitch": 70,
                "velocity": 40,
                "duration": 0.3045455,
                "tempo": 120.0
            },
            {
                "start_time": 29.7909091,
                "end_time": 30.0954545,
                "pitch": 69,
                "velocity": 40,
                "duration": 0.3045455,
                "tempo": 120.0
            },
            {
                "start_time": 30.0977273,
                "end_time": 30.4863636,
                "pitch": 67,
                "velocity": 40,
                "duration": 0.3886364,
                "tempo": 120.0
            },
            {
                "start_time": 30.4863636,
                "end_time": 30.5022727,
                "pitch": 67,
                "velocity": 40,
                "duration": 0.0159091,
                "tempo": 120.0
            },
            {
                "start_time": 30.5022727,
                "end_time": 30.6204545,
                "pitch": 67,
                "velocity": 40,
                "duration": 0.1181818,
                "tempo": 120.0
            },
            {
                "start_time": 30.4863636,
                "end_time": 30.6204545,
                "pitch": 79,
                "velocity": 40,
                "duration": 0.1340909,
                "tempo": 120.0
            },
            {
                "start_time": 30.6204545,
                "end_time": 30.6704545,
                "pitch": 67,
                "velocity": 40,
                "duration": 0.05,
                "tempo": 120.0
            },
            {
                "start_time": 30.5022727,
                "end_time": 30.6727273,
                "pitch": 55,
                "velocity": 40,
                "duration": 0.1704545,
                "tempo": 120.0
            },
            {
                "start_time": 30.6704545,
                "end_time": 30.6727273,
                "pitch": 55,
                "velocity": 40,
                "duration": 0.0022727,
                "tempo": 120.0
            },
            {
                "start_time": 30.6727273,
                "end_time": 30.7886364,
                "pitch": 67,
                "velocity": 40,
                "duration": 0.1159091,
                "tempo": 120.0
            },
            {
                "start_time": 30.6204545,
                "end_time": 30.7886364,
                "pitch": 79,
                "velocity": 40,
                "duration": 0.1681818,
                "tempo": 120.0
            },
            {
                "start_time": 30.7886364,
                "end_time": 30.8409091,
                "pitch": 67,
                "velocity": 40,
                "duration": 0.0522727,
                "tempo": 120.0
            },
            {
                "start_time": 30.8409091,
                "end_time": 30.9568182,
                "pitch": 67,
                "velocity": 40,
                "duration": 0.1159091,
                "tempo": 120.0
            },
            {
                "start_time": 30.7886364,
                "end_time": 30.9568182,
                "pitch": 79,
                "velocity": 40,
                "duration": 0.1681818,
                "tempo": 120.0
            },
            {
                "start_time": 30.8409091,
                "end_time": 31.0068182,
                "pitch": 55,
                "velocity": 40,
                "duration": 0.1659091,
                "tempo": 120.0
            },
            {
                "start_time": 30.9568182,
                "end_time": 31.0068182,
                "pitch": 67,
                "velocity": 40,
                "duration": 0.05,
                "tempo": 120.0
            },
            {
                "start_time": 31.0068182,
                "end_time": 31.1227273,
                "pitch": 67,
                "velocity": 40,
                "duration": 0.1159091,
                "tempo": 120.0
            },
            {
                "start_time": 30.9568182,
                "end_time": 31.1227273,
                "pitch": 79,
                "velocity": 40,
                "duration": 0.1659091,
                "tempo": 120.0
            },
            {
                "start_time": 31.0068182,
                "end_time": 31.1727273,
                "pitch": 55,
                "velocity": 40,
                "duration": 0.1659091,
                "tempo": 120.0
            },
            {
                "start_time": 31.1227273,
                "end_time": 31.1727273,
                "pitch": 67,
                "velocity": 40,
                "duration": 0.05,
                "tempo": 120.0
            },
            {
                "start_time": 31.1727273,
                "end_time": 31.2909091,
                "pitch": 67,
                "velocity": 40,
                "duration": 0.1181818,
                "tempo": 120.0
            },
            {
                "start_time": 31.1227273,
                "end_time": 31.2909091,
                "pitch": 79,
                "velocity": 40,
                "duration": 0.1681818,
                "tempo": 120.0
            },
            {
                "start_time": 31.1727273,
                "end_time": 31.3409091,
                "pitch": 55,
                "velocity": 40,
                "duration": 0.1681818,
                "tempo": 120.0
            },
            {
                "start_time": 31.2909091,
                "end_time": 31.3409091,
                "pitch": 67,
                "velocity": 40,
                "duration": 0.05,
                "tempo": 120.0
            },
            {
                "start_time": 31.3409091,
                "end_time": 31.4568182,
                "pitch": 67,
                "velocity": 40,
                "duration": 0.1159091,
                "tempo": 120.0
            },
            {
                "start_time": 31.2909091,
                "end_time": 31.4568182,
                "pitch": 79,
                "velocity": 40,
                "duration": 0.1659091,
                "tempo": 120.0
            },
            {
                "start_time": 31.3409091,
                "end_time": 31.5090909,
                "pitch": 55,
                "velocity": 40,
                "duration": 0.1681818,
                "tempo": 120.0
            },
            {
                "start_time": 31.4568182,
                "end_time": 31.5090909,
                "pitch": 67,
                "velocity": 40,
                "duration": 0.0522727,
                "tempo": 120.0
            },
            {
                "start_time": 31.5090909,
                "end_time": 31.6090909,
                "pitch": 67,
                "velocity": 40,
                "duration": 0.1,
                "tempo": 120.0
            },
            {
                "start_time": 31.6113636,
                "end_time": 31.9977273,
                "pitch": 67,
                "velocity": 40,
                "duration": 0.3863636,
                "tempo": 120.0
            },
            {
                "start_time": 31.4568182,
                "end_time": 31.9977273,
                "pitch": 79,
                "velocity": 40,
                "duration": 0.5409091,
                "tempo": 120.0
            },
            {
                "start_time": 31.5090909,
                "end_time": 32.0318182,
                "pitch": 55,
                "velocity": 40,
                "duration": 0.5227273,
                "tempo": 120.0
            },
            {
                "start_time": 31.9977273,
                "end_time": 32.0318182,
                "pitch": 67,
                "velocity": 40,
                "duration": 0.0340909,
                "tempo": 120.0
            },
            {
                "start_time": 32.0318182,
                "end_time": 32.15,
                "pitch": 67,
                "velocity": 40,
                "duration": 0.1181818,
                "tempo": 120.0
            },
            {
                "start_time": 31.9977273,
                "end_time": 32.15,
                "pitch": 79,
                "velocity": 40,
                "duration": 0.1522727,
                "tempo": 120.0
            },
            {
                "start_time": 32.0318182,
                "end_time": 32.2,
                "pitch": 55,
                "velocity": 40,
                "duration": 0.1681818,
                "tempo": 120.0
            },
            {
                "start_time": 32.15,
                "end_time": 32.2,
                "pitch": 67,
                "velocity": 40,
                "duration": 0.05,
                "tempo": 120.0
            },
            {
                "start_time": 32.2,
                "end_time": 32.3181818,
                "pitch": 67,
                "velocity": 40,
                "duration": 0.1181818,
                "tempo": 120.0
            },
            {
                "start_time": 32.15,
                "end_time": 32.3181818,
                "pitch": 79,
                "velocity": 40,
                "duration": 0.1681818,
                "tempo": 120.0
            },
            {
                "start_time": 32.2,
                "end_time": 32.3681818,
                "pitch": 55,
                "velocity": 40,
                "duration": 0.1681818,
                "tempo": 120.0
            },
            {
                "start_time": 32.3181818,
                "end_time": 32.3681818,
                "pitch": 67,
                "velocity": 40,
                "duration": 0.05,
                "tempo": 120.0
            },
            {
                "start_time": 32.3681818,
                "end_time": 32.4863636,
                "pitch": 67,
                "velocity": 40,
                "duration": 0.1181818,
                "tempo": 120.0
            },
            {
                "start_time": 32.3181818,
                "end_time": 32.4863636,
                "pitch": 79,
                "velocity": 40,
                "duration": 0.1681818,
                "tempo": 120.0
            },
            {
                "start_time": 32.3681818,
                "end_time": 32.5363636,
                "pitch": 55,
                "velocity": 40,
                "duration": 0.1681818,
                "tempo": 120.0
            },
            {
                "start_time": 32.4863636,
                "end_time": 32.5363636,
                "pitch": 67,
                "velocity": 40,
                "duration": 0.05,
                "tempo": 120.0
            },
            {
                "start_time": 32.5363636,
                "end_time": 32.6545455,
                "pitch": 67,
                "velocity": 40,
                "duration": 0.1181818,
                "tempo": 120.0
            },
            {
                "start_time": 32.4863636,
                "end_time": 32.6545455,
                "pitch": 79,
                "velocity": 40,
                "duration": 0.1681818,
                "tempo": 120.0
            },
            {
                "start_time": 32.5363636,
                "end_time": 32.7045455,
                "pitch": 55,
                "velocity": 40,
                "duration": 0.1681818,
                "tempo": 120.0
            },
            {
                "start_time": 32.6545455,
                "end_time": 32.7045455,
                "pitch": 67,
                "velocity": 40,
                "duration": 0.05,
                "tempo": 120.0
            },
            {
                "start_time": 32.7045455,
                "end_time": 32.8227273,
                "pitch": 67,
                "velocity": 40,
                "duration": 0.1181818,
                "tempo": 120.0
            },
            {
                "start_time": 32.6545455,
                "end_time": 32.8227273,
                "pitch": 79,
                "velocity": 40,
                "duration": 0.1681818,
                "tempo": 120.0
            },
            {
                "start_time": 32.7045455,
                "end_time": 32.8727273,
                "pitch": 55,
                "velocity": 40,
                "duration": 0.1681818,
                "tempo": 120.0
            },
            {
                "start_time": 32.8227273,
                "end_time": 32.8727273,
                "pitch": 67,
                "velocity": 40,
                "duration": 0.05,
                "tempo": 120.0
            },
            {
                "start_time": 32.8727273,
                "end_time": 32.9909091,
                "pitch": 67,
                "velocity": 40,
                "duration": 0.1181818,
                "tempo": 120.0
            },
            {
                "start_time": 32.8227273,
                "end_time": 32.9909091,
                "pitch": 79,
                "velocity": 40,
                "duration": 0.1681818,
                "tempo": 120.0
            },
            {
                "start_time": 32.8727273,
                "end_time": 33.0431818,
                "pitch": 55,
                "velocity": 40,
                "duration": 0.1704545,
                "tempo": 120.0
            },
            {
                "start_time": 32.9909091,
                "end_time": 33.0431818,
                "pitch": 67,
                "velocity": 40,
                "duration": 0.0522727,
                "tempo": 120.0
            },
            {
                "start_time": 33.0431818,
                "end_time": 33.125,
                "pitch": 67,
                "velocity": 40,
                "duration": 0.0818182,
                "tempo": 120.0
            },
            {
                "start_time": 33.1272727,
                "end_time": 33.4272727,
                "pitch": 61,
                "velocity": 40,
                "duration": 0.3,
                "tempo": 120.0
            },
            {
                "start_time": 33.4295455,
                "end_time": 33.7272727,
                "pitch": 62,
                "velocity": 40,
                "duration": 0.2977273,
                "tempo": 120.0
            },
            {
                "start_time": 33.7295455,
                "end_time": 34.0295455,
                "pitch": 64,
                "velocity": 40,
                "duration": 0.3,
                "tempo": 120.0
            },
            {
                "start_time": 34.0318182,
                "end_time": 34.6363636,
                "pitch": 65,
                "velocity": 40,
                "duration": 0.6045455,
                "tempo": 120.0
            },
            {
                "start_time": 34.6386364,
                "end_time": 35.0431818,
                "pitch": 67,
                "velocity": 40,
                "duration": 0.4045455,
                "tempo": 120.0
            },
            {
                "start_time": 32.9909091,
                "end_time": 35.0431818,
                "pitch": 79,
                "velocity": 40,
                "duration": 2.0522727,
                "tempo": 120.0
            },
            {
                "start_time": 33.0431818,
                "end_time": 35.0931818,
                "pitch": 55,
                "velocity": 40,
                "duration": 2.05,
                "tempo": 120.0
            },
            {
                "start_time": 35.0431818,
                "end_time": 35.0931818,
                "pitch": 67,
                "velocity": 40,
                "duration": 0.05,
                "tempo": 120.0
            },
            {
                "start_time": 35.0931818,
                "end_time": 35.2113636,
                "pitch": 67,
                "velocity": 40,
                "duration": 0.1181818,
                "tempo": 120.0
            },
            {
                "start_time": 35.0431818,
                "end_time": 35.2113636,
                "pitch": 79,
                "velocity": 40,
                "duration": 0.1681818,
                "tempo": 120.0
            },
            {
                "start_time": 35.2113636,
                "end_time": 35.2431818,
                "pitch": 67,
                "velocity": 40,
                "duration": 0.0318182,
                "tempo": 120.0
            },
            {
                "start_time": 35.2454545,
                "end_time": 35.85,
                "pitch": 69,
                "velocity": 40,
                "duration": 0.6045455,
                "tempo": 120.0
            },
            {
                "start_time": 35.8522727,
                "end_time": 36.4545455,
                "pitch": 72,
                "velocity": 40,
                "duration": 0.6022727,
                "tempo": 120.0
            },
            {
                "start_time": 36.4568182,
                "end_time": 37.9727273,
                "pitch": 70,
                "velocity": 40,
                "duration": 1.5159091,
                "tempo": 120.0
            },
            {
                "start_time": 37.975,
                "end_time": 38.2772727,
                "pitch": 62,
                "velocity": 40,
                "duration": 0.3022727,
                "tempo": 120.0
            },
            {
                "start_time": 38.2795455,
                "end_time": 38.5818182,
                "pitch": 62,
                "velocity": 40,
                "duration": 0.3022727,
                "tempo": 120.0
            },
            {
                "start_time": 38.5840909,
                "end_time": 38.8840909,
                "pitch": 65,
                "velocity": 40,
                "duration": 0.3,
                "tempo": 120.0
            },
            {
                "start_time": 38.8863636,
                "end_time": 39.7954545,
                "pitch": 65,
                "velocity": 40,
                "duration": 0.9090909,
                "tempo": 120.0
            },
            {
                "start_time": 39.7977273,
                "end_time": 40.1818182,
                "pitch": 67,
                "velocity": 40,
                "duration": 0.3840909,
                "tempo": 120.0
            },
            {
                "start_time": 35.2113636,
                "end_time": 40.1818182,
                "pitch": 79,
                "velocity": 40,
                "duration": 4.9704545,
                "tempo": 120.0
            },
            {
                "start_time": 35.0931818,
                "end_time": 40.2318182,
                "pitch": 55,
                "velocity": 40,
                "duration": 5.1386364,
                "tempo": 120.0
            },
            {
                "start_time": 40.1818182,
                "end_time": 40.2318182,
                "pitch": 67,
                "velocity": 40,
                "duration": 0.05,
                "tempo": 120.0
            },
            {
                "start_time": 40.2318182,
                "end_time": 40.3477273,
                "pitch": 67,
                "velocity": 40,
                "duration": 0.1159091,
                "tempo": 120.0
            },
            {
                "start_time": 40.1818182,
                "end_time": 40.3477273,
                "pitch": 79,
                "velocity": 40,
                "duration": 0.1659091,
                "tempo": 120.0
            },
            {
                "start_time": 40.2318182,
                "end_time": 40.3977273,
                "pitch": 55,
                "velocity": 40,
                "duration": 0.1659091,
                "tempo": 120.0
            },
            {
                "start_time": 40.3477273,
                "end_time": 40.3977273,
                "pitch": 67,
                "velocity": 40,
                "duration": 0.05,
                "tempo": 120.0
            },
            {
                "start_time": 40.3977273,
                "end_time": 40.5136364,
                "pitch": 67,
                "velocity": 40,
                "duration": 0.1159091,
                "tempo": 120.0
            },
            {
                "start_time": 40.3477273,
                "end_time": 40.5159091,
                "pitch": 79,
                "velocity": 40,
                "duration": 0.1681818,
                "tempo": 120.0
            },
            {
                "start_time": 40.5136364,
                "end_time": 40.5159091,
                "pitch": 79,
                "velocity": 40,
                "duration": 0.0022727,
                "tempo": 120.0
            },
            {
                "start_time": 40.3977273,
                "end_time": 40.5659091,
                "pitch": 55,
                "velocity": 40,
                "duration": 0.1681818,
                "tempo": 120.0
            },
            {
                "start_time": 40.5159091,
                "end_time": 40.5659091,
                "pitch": 67,
                "velocity": 40,
                "duration": 0.05,
                "tempo": 120.0
            },
            {
                "start_time": 40.5659091,
                "end_time": 40.6840909,
                "pitch": 67,
                "velocity": 40,
                "duration": 0.1181818,
                "tempo": 120.0
            },
            {
                "start_time": 40.6840909,
                "end_time": 40.7,
                "pitch": 67,
                "velocity": 40,
                "duration": 0.0159091,
                "tempo": 120.0
            },
            {
                "start_time": 40.7022727,
                "end_time": 41.3068182,
                "pitch": 64,
                "velocity": 40,
                "duration": 0.6045455,
                "tempo": 120.0
            },
            {
                "start_time": 41.3068182,
                "end_time": 41.6090909,
                "pitch": 67,
                "velocity": 40,
                "duration": 0.3022727,
                "tempo": 120.0
            },
            {
                "start_time": 41.6113636,
                "end_time": 41.9136364,
                "pitch": 60,
                "velocity": 40,
                "duration": 0.3022727,
                "tempo": 120.0
            },
            {
                "start_time": 41.9159091,
                "end_time": 42.2159091,
                "pitch": 64,
                "velocity": 40,
                "duration": 0.3,
                "tempo": 120.0
            },
            {
                "start_time": 42.2181818,
                "end_time": 42.8227273,
                "pitch": 69,
                "velocity": 40,
                "duration": 0.6045455,
                "tempo": 120.0
            },
            {
                "start_time": 42.825,
                "end_time": 43.7272727,
                "pitch": 65,
                "velocity": 40,
                "duration": 0.9022727,
                "tempo": 120.0
            },
            {
                "start_time": 43.7295455,
                "end_time": 44.0295455,
                "pitch": 67,
                "velocity": 40,
                "duration": 0.3,
                "tempo": 120.0
            },
            {
                "start_time": 44.0318182,
                "end_time": 44.3363636,
                "pitch": 60,
                "velocity": 40,
                "duration": 0.3045455,
                "tempo": 120.0
            },
            {
                "start_time": 44.3386364,
                "end_time": 44.6431818,
                "pitch": 64,
                "velocity": 40,
                "duration": 0.3045455,
                "tempo": 120.0
            },
            {
                "start_time": 44.6454545,
                "end_time": 45.25,
                "pitch": 72,
                "velocity": 40,
                "duration": 0.6045455,
                "tempo": 120.0
            },
            {
                "start_time": 45.2522727,
                "end_time": 46.1613636,
                "pitch": 64,
                "velocity": 40,
                "duration": 0.9090909,
                "tempo": 120.0
            },
            {
                "start_time": 46.1636364,
                "end_time": 46.4636364,
                "pitch": 67,
                "velocity": 40,
                "duration": 0.3,
                "tempo": 120.0
            },
            {
                "start_time": 46.4659091,
                "end_time": 46.7681818,
                "pitch": 65,
                "velocity": 40,
                "duration": 0.3022727,
                "tempo": 120.0
            },
            {
                "start_time": 46.7704545,
                "end_time": 47.0704545,
                "pitch": 64,
                "velocity": 40,
                "duration": 0.3,
                "tempo": 120.0
            },
            {
                "start_time": 47.0727273,
                "end_time": 48.5818182,
                "pitch": 65,
                "velocity": 40,
                "duration": 1.5090909,
                "tempo": 120.0
            },
            {
                "start_time": 48.5840909,
                "end_time": 48.8863636,
                "pitch": 69,
                "velocity": 40,
                "duration": 0.3022727,
                "tempo": 120.0
            },
            {
                "start_time": 48.8886364,
                "end_time": 49.1886364,
                "pitch": 70,
                "velocity": 40,
                "duration": 0.3,
                "tempo": 120.0
            },
            {
                "start_time": 49.1909091,
                "end_time": 49.4931818,
                "pitch": 69,
                "velocity": 40,
                "duration": 0.3022727,
                "tempo": 120.0
            },
            {
                "start_time": 49.4931818,
                "end_time": 49.8977273,
                "pitch": 67,
                "velocity": 40,
                "duration": 0.4045455,
                "tempo": 120.0
            },
            {
                "start_time": 40.6840909,
                "end_time": 49.8977273,
                "pitch": 79,
                "velocity": 40,
                "duration": 9.2136364,
                "tempo": 120.0
            },
            {
                "start_time": 40.5659091,
                "end_time": 49.9477273,
                "pitch": 55,
                "velocity": 40,
                "duration": 9.3818182,
                "tempo": 120.0
            },
            {
                "start_time": 49.8977273,
                "end_time": 49.9477273,
                "pitch": 67,
                "velocity": 40,
                "duration": 0.05,
                "tempo": 120.0
            },
            {
                "start_time": 49.9477273,
                "end_time": 50.0659091,
                "pitch": 67,
                "velocity": 40,
                "duration": 0.1181818,
                "tempo": 120.0
            },
            {
                "start_time": 49.8977273,
                "end_time": 50.0659091,
                "pitch": 79,
                "velocity": 40,
                "duration": 0.1681818,
                "tempo": 120.0
            },
            {
                "start_time": 49.9477273,
                "end_time": 50.1181818,
                "pitch": 55,
                "velocity": 40,
                "duration": 0.1704545,
                "tempo": 120.0
            },
            {
                "start_time": 50.0659091,
                "end_time": 50.1181818,
                "pitch": 67,
                "velocity": 40,
                "duration": 0.0522727,
                "tempo": 120.0
            },
            {
                "start_time": 50.1181818,
                "end_time": 50.2340909,
                "pitch": 67,
                "velocity": 40,
                "duration": 0.1159091,
                "tempo": 120.0
            },
            {
                "start_time": 50.0659091,
                "end_time": 50.2340909,
                "pitch": 79,
                "velocity": 40,
                "duration": 0.1681818,
                "tempo": 120.0
            },
            {
                "start_time": 50.1181818,
                "end_time": 50.2840909,
                "pitch": 55,
                "velocity": 40,
                "duration": 0.1659091,
                "tempo": 120.0
            },
            {
                "start_time": 50.2340909,
                "end_time": 50.2840909,
                "pitch": 67,
                "velocity": 40,
                "duration": 0.05,
                "tempo": 120.0
            },
            {
                "start_time": 50.2840909,
                "end_time": 50.4022727,
                "pitch": 67,
                "velocity": 40,
                "duration": 0.1181818,
                "tempo": 120.0
            },
            {
                "start_time": 50.2340909,
                "end_time": 50.4022727,
                "pitch": 79,
                "velocity": 40,
                "duration": 0.1681818,
                "tempo": 120.0
            },
            {
                "start_time": 50.2840909,
                "end_time": 50.4522727,
                "pitch": 55,
                "velocity": 40,
                "duration": 0.1681818,
                "tempo": 120.0
            },
            {
                "start_time": 50.4022727,
                "end_time": 50.4522727,
                "pitch": 67,
                "velocity": 40,
                "duration": 0.05,
                "tempo": 120.0
            },
            {
                "start_time": 50.4522727,
                "end_time": 50.5681818,
                "pitch": 67,
                "velocity": 40,
                "duration": 0.1159091,
                "tempo": 120.0
            },
            {
                "start_time": 50.4022727,
                "end_time": 50.5681818,
                "pitch": 79,
                "velocity": 40,
                "duration": 0.1659091,
                "tempo": 120.0
            },
            {
                "start_time": 50.4522727,
                "end_time": 50.6181818,
                "pitch": 55,
                "velocity": 40,
                "duration": 0.1659091,
                "tempo": 120.0
            },
            {
                "start_time": 50.5681818,
                "end_time": 50.6181818,
                "pitch": 67,
                "velocity": 40,
                "duration": 0.05,
                "tempo": 120.0
            },
            {
                "start_time": 50.6181818,
                "end_time": 50.7363636,
                "pitch": 67,
                "velocity": 40,
                "duration": 0.1181818,
                "tempo": 120.0
            },
            {
                "start_time": 50.5681818,
                "end_time": 50.7363636,
                "pitch": 79,
                "velocity": 40,
                "duration": 0.1681818,
                "tempo": 120.0
            },
            {
                "start_time": 50.6181818,
                "end_time": 50.7863636,
                "pitch": 55,
                "velocity": 40,
                "duration": 0.1681818,
                "tempo": 120.0
            },
            {
                "start_time": 50.7363636,
                "end_time": 50.7863636,
                "pitch": 67,
                "velocity": 40,
                "duration": 0.05,
                "tempo": 120.0
            },
            {
                "start_time": 50.7863636,
                "end_time": 50.9022727,
                "pitch": 67,
                "velocity": 40,
                "duration": 0.1159091,
                "tempo": 120.0
            },
            {
                "start_time": 50.7363636,
                "end_time": 50.9045455,
                "pitch": 79,
                "velocity": 40,
                "duration": 0.1681818,
                "tempo": 120.0
            },
            {
                "start_time": 50.9022727,
                "end_time": 50.9045455,
                "pitch": 79,
                "velocity": 40,
                "duration": 0.0022727,
                "tempo": 120.0
            },
            {
                "start_time": 50.7863636,
                "end_time": 50.9545455,
                "pitch": 55,
                "velocity": 40,
                "duration": 0.1681818,
                "tempo": 120.0
            },
            {
                "start_time": 50.9045455,
                "end_time": 50.9545455,
                "pitch": 67,
                "velocity": 40,
                "duration": 0.05,
                "tempo": 120.0
            },
            {
                "start_time": 50.9545455,
                "end_time": 51.0045455,
                "pitch": 67,
                "velocity": 40,
                "duration": 0.05,
                "tempo": 120.0
            },
            {
                "start_time": 51.0045455,
                "end_time": 51.425,
                "pitch": 67,
                "velocity": 40,
                "duration": 0.4204545,
                "tempo": 120.0
            },
            {
                "start_time": 50.9545455,
                "end_time": 51.4772727,
                "pitch": 55,
                "velocity": 40,
                "duration": 0.5227273,
                "tempo": 120.0
            },
            {
                "start_time": 51.425,
                "end_time": 51.4772727,
                "pitch": 67,
                "velocity": 40,
                "duration": 0.0522727,
                "tempo": 120.0
            },
            {
                "start_time": 51.4772727,
                "end_time": 51.5954545,
                "pitch": 67,
                "velocity": 40,
                "duration": 0.1181818,
                "tempo": 120.0
            },
            {
                "start_time": 51.425,
                "end_time": 51.5954545,
                "pitch": 79,
                "velocity": 40,
                "duration": 0.1704545,
                "tempo": 120.0
            },
            {
                "start_time": 51.4772727,
                "end_time": 51.6454545,
                "pitch": 55,
                "velocity": 40,
                "duration": 0.1681818,
                "tempo": 120.0
            },
            {
                "start_time": 51.5954545,
                "end_time": 51.6454545,
                "pitch": 67,
                "velocity": 40,
                "duration": 0.05,
                "tempo": 120.0
            },
            {
                "start_time": 51.6454545,
                "end_time": 51.7636364,
                "pitch": 67,
                "velocity": 40,
                "duration": 0.1181818,
                "tempo": 120.0
            },
            {
                "start_time": 51.5954545,
                "end_time": 51.7636364,
                "pitch": 79,
                "velocity": 40,
                "duration": 0.1681818,
                "tempo": 120.0
            },
            {
                "start_time": 51.6454545,
                "end_time": 51.8136364,
                "pitch": 55,
                "velocity": 40,
                "duration": 0.1681818,
                "tempo": 120.0
            },
            {
                "start_time": 51.7636364,
                "end_time": 51.8136364,
                "pitch": 67,
                "velocity": 40,
                "duration": 0.05,
                "tempo": 120.0
            },
            {
                "start_time": 51.8136364,
                "end_time": 51.9318182,
                "pitch": 67,
                "velocity": 40,
                "duration": 0.1181818,
                "tempo": 120.0
            },
            {
                "start_time": 51.7636364,
                "end_time": 51.9318182,
                "pitch": 79,
                "velocity": 40,
                "duration": 0.1681818,
                "tempo": 120.0
            },
            {
                "start_time": 51.8136364,
                "end_time": 51.9818182,
                "pitch": 55,
                "velocity": 40,
                "duration": 0.1681818,
                "tempo": 120.0
            },
            {
                "start_time": 51.9318182,
                "end_time": 51.9818182,
                "pitch": 67,
                "velocity": 40,
                "duration": 0.05,
                "tempo": 120.0
            },
            {
                "start_time": 51.9818182,
                "end_time": 52.1,
                "pitch": 67,
                "velocity": 40,
                "duration": 0.1181818,
                "tempo": 120.0
            },
            {
                "start_time": 51.9318182,
                "end_time": 52.1,
                "pitch": 79,
                "velocity": 40,
                "duration": 0.1681818,
                "tempo": 120.0
            },
            {
                "start_time": 51.9818182,
                "end_time": 52.15,
                "pitch": 55,
                "velocity": 40,
                "duration": 0.1681818,
                "tempo": 120.0
            },
            {
                "start_time": 52.1,
                "end_time": 52.15,
                "pitch": 67,
                "velocity": 40,
                "duration": 0.05,
                "tempo": 120.0
            },
            {
                "start_time": 52.15,
                "end_time": 52.2681818,
                "pitch": 67,
                "velocity": 40,
                "duration": 0.1181818,
                "tempo": 120.0
            },
            {
                "start_time": 52.1,
                "end_time": 52.2681818,
                "pitch": 79,
                "velocity": 40,
                "duration": 0.1681818,
                "tempo": 120.0
            },
            {
                "start_time": 52.15,
                "end_time": 52.3204545,
                "pitch": 55,
                "velocity": 40,
                "duration": 0.1704545,
                "tempo": 120.0
            },
            {
                "start_time": 52.2681818,
                "end_time": 52.3204545,
                "pitch": 67,
                "velocity": 40,
                "duration": 0.0522727,
                "tempo": 120.0
            },
            {
                "start_time": 52.3204545,
                "end_time": 52.4363636,
                "pitch": 67,
                "velocity": 40,
                "duration": 0.1159091,
                "tempo": 120.0
            },
            {
                "start_time": 52.2681818,
                "end_time": 52.4363636,
                "pitch": 79,
                "velocity": 40,
                "duration": 0.1681818,
                "tempo": 120.0
            },
            {
                "start_time": 52.3204545,
                "end_time": 52.4886364,
                "pitch": 55,
                "velocity": 40,
                "duration": 0.1681818,
                "tempo": 120.0
            },
            {
                "start_time": 52.4363636,
                "end_time": 52.4886364,
                "pitch": 67,
                "velocity": 40,
                "duration": 0.0522727,
                "tempo": 120.0
            },
            {
                "start_time": 52.4886364,
                "end_time": 52.5204545,
                "pitch": 67,
                "velocity": 40,
                "duration": 0.0318182,
                "tempo": 120.0
            },
            {
                "start_time": 52.5227273,
                "end_time": 52.825,
                "pitch": 61,
                "velocity": 40,
                "duration": 0.3022727,
                "tempo": 120.0
            },
            {
                "start_time": 52.8272727,
                "end_time": 53.1318182,
                "pitch": 62,
                "velocity": 40,
                "duration": 0.3045455,
                "tempo": 120.0
            },
            {
                "start_time": 53.1340909,
                "end_time": 53.4363636,
                "pitch": 64,
                "velocity": 40,
                "duration": 0.3022727,
                "tempo": 120.0
            },
            {
                "start_time": 53.4386364,
                "end_time": 54.0409091,
                "pitch": 65,
                "velocity": 40,
                "duration": 0.6022727,
                "tempo": 120.0
            },
            {
                "start_time": 54.0431818,
                "end_time": 54.4931818,
                "pitch": 67,
                "velocity": 40,
                "duration": 0.45,
                "tempo": 120.0
            },
            {
                "start_time": 52.4363636,
                "end_time": 54.4931818,
                "pitch": 79,
                "velocity": 40,
                "duration": 2.0568182,
                "tempo": 120.0
            },
            {
                "start_time": 52.4886364,
                "end_time": 54.5454545,
                "pitch": 55,
                "velocity": 40,
                "duration": 2.0568182,
                "tempo": 120.0
            },
            {
                "start_time": 54.4931818,
                "end_time": 54.5454545,
                "pitch": 67,
                "velocity": 40,
                "duration": 0.0522727,
                "tempo": 120.0
            },
            {
                "start_time": 54.5454545,
                "end_time": 54.6454545,
                "pitch": 67,
                "velocity": 40,
                "duration": 0.1,
                "tempo": 120.0
            },
            {
                "start_time": 54.6477273,
                "end_time": 55.2522727,
                "pitch": 69,
                "velocity": 40,
                "duration": 0.6045455,
                "tempo": 120.0
            },
            {
                "start_time": 55.2545455,
                "end_time": 55.8590909,
                "pitch": 72,
                "velocity": 40,
                "duration": 0.6045455,
                "tempo": 120.0
            },
            {
                "start_time": 55.8613636,
                "end_time": 57.3704545,
                "pitch": 70,
                "velocity": 40,
                "duration": 1.5090909,
                "tempo": 120.0
            },
            {
                "start_time": 57.3727273,
                "end_time": 57.6727273,
                "pitch": 62,
                "velocity": 40,
                "duration": 0.3,
                "tempo": 120.0
            },
            {
                "start_time": 57.675,
                "end_time": 57.9772727,
                "pitch": 65,
                "velocity": 40,
                "duration": 0.3022727,
                "tempo": 120.0
            },
            {
                "start_time": 57.9772727,
                "end_time": 58.2795455,
                "pitch": 67,
                "velocity": 40,
                "duration": 0.3022727,
                "tempo": 120.0
            },
            {
                "start_time": 58.2818182,
                "end_time": 58.5840909,
                "pitch": 67,
                "velocity": 40,
                "duration": 0.3022727,
                "tempo": 120.0
            },
            {
                "start_time": 58.5840909,
                "end_time": 58.8863636,
                "pitch": 69,
                "velocity": 40,
                "duration": 0.3022727,
                "tempo": 120.0
            },
            {
                "start_time": 58.8886364,
                "end_time": 59.1909091,
                "pitch": 67,
                "velocity": 40,
                "duration": 0.3022727,
                "tempo": 120.0
            },
            {
                "start_time": 59.1909091,
                "end_time": 60.5113636,
                "pitch": 65,
                "velocity": 40,
                "duration": 1.3204545,
                "tempo": 120.0
            }
        ],
        "Harpsichord": [
            {
                "start_time": 60.5136364,
                "end_time": 60.8136364,
                "pitch": 82,
                "velocity": 25,
                "duration": 0.3,
                "tempo": 120.0
            },
            {
                "start_time": 60.8159091,
                "end_time": 61.1181818,
                "pitch": 82,
                "velocity": 25,
                "duration": 0.3022727,
                "tempo": 120.0
            },
            {
                "start_time": 61.1204545,
                "end_time": 61.4181818,
                "pitch": 82,
                "velocity": 25,
                "duration": 0.2977273,
                "tempo": 120.0
            },
            {
                "start_time": 61.4204545,
                "end_time": 61.7181818,
                "pitch": 82,
                "velocity": 25,
                "duration": 0.2977273,
                "tempo": 120.0
            },
            {
                "start_time": 61.7204545,
                "end_time": 62.025,
                "pitch": 82,
                "velocity": 25,
                "duration": 0.3045455,
                "tempo": 120.0
            },
            {
                "start_time": 62.025,
                "end_time": 62.3272727,
                "pitch": 82,
                "velocity": 25,
                "duration": 0.3022727,
                "tempo": 120.0
            },
            {
                "start_time": 62.3295455,
                "end_time": 62.6318182,
                "pitch": 82,
                "velocity": 25,
                "duration": 0.3022727,
                "tempo": 120.0
            },
            {
                "start_time": 62.6340909,
                "end_time": 62.9340909,
                "pitch": 82,
                "velocity": 25,
                "duration": 0.3,
                "tempo": 120.0
            },
            {
                "start_time": 62.9363636,
                "end_time": 63.2363636,
                "pitch": 82,
                "velocity": 25,
                "duration": 0.3,
                "tempo": 120.0
            },
            {
                "start_time": 63.2386364,
                "end_time": 63.5409091,
                "pitch": 82,
                "velocity": 25,
                "duration": 0.3022727,
                "tempo": 120.0
            },
            {
                "start_time": 63.5431818,
                "end_time": 63.8454545,
                "pitch": 82,
                "velocity": 25,
                "duration": 0.3022727,
                "tempo": 120.0
            },
            {
                "start_time": 63.8477273,
                "end_time": 64.1477273,
                "pitch": 82,
                "velocity": 25,
                "duration": 0.3,
                "tempo": 120.0
            },
            {
                "start_time": 64.15,
                "end_time": 64.4477273,
                "pitch": 82,
                "velocity": 25,
                "duration": 0.2977273,
                "tempo": 120.0
            },
            {
                "start_time": 64.45,
                "end_time": 64.7477273,
                "pitch": 82,
                "velocity": 25,
                "duration": 0.2977273,
                "tempo": 120.0
            },
            {
                "start_time": 64.75,
                "end_time": 65.0522727,
                "pitch": 82,
                "velocity": 25,
                "duration": 0.3022727,
                "tempo": 120.0
            },
            {
                "start_time": 65.0545455,
                "end_time": 65.3568182,
                "pitch": 82,
                "velocity": 25,
                "duration": 0.3022727,
                "tempo": 120.0
            },
            {
                "start_time": 65.3568182,
                "end_time": 65.6568182,
                "pitch": 84,
                "velocity": 25,
                "duration": 0.3,
                "tempo": 120.0
            },
            {
                "start_time": 65.6590909,
                "end_time": 65.9568182,
                "pitch": 84,
                "velocity": 25,
                "duration": 0.2977273,
                "tempo": 120.0
            },
            {
                "start_time": 65.9590909,
                "end_time": 66.2568182,
                "pitch": 84,
                "velocity": 25,
                "duration": 0.2977273,
                "tempo": 120.0
            },
            {
                "start_time": 66.2590909,
                "end_time": 66.5568182,
                "pitch": 84,
                "velocity": 25,
                "duration": 0.2977273,
                "tempo": 120.0
            },
            {
                "start_time": 66.5590909,
                "end_time": 66.8613636,
                "pitch": 84,
                "velocity": 25,
                "duration": 0.3022727,
                "tempo": 120.0
            },
            {
                "start_time": 66.8636364,
                "end_time": 67.1636364,
                "pitch": 84,
                "velocity": 25,
                "duration": 0.3,
                "tempo": 120.0
            },
            {
                "start_time": 67.1659091,
                "end_time": 67.4636364,
                "pitch": 84,
                "velocity": 25,
                "duration": 0.2977273,
                "tempo": 120.0
            },
            {
                "start_time": 67.4659091,
                "end_time": 67.7659091,
                "pitch": 84,
                "velocity": 25,
                "duration": 0.3,
                "tempo": 120.0
            },
            {
                "start_time": 67.7659091,
                "end_time": 68.0704545,
                "pitch": 84,
                "velocity": 25,
                "duration": 0.3045455,
                "tempo": 120.0
            },
            {
                "start_time": 68.0727273,
                "end_time": 68.3772727,
                "pitch": 84,
                "velocity": 25,
                "duration": 0.3045455,
                "tempo": 120.0
            },
            {
                "start_time": 68.3795455,
                "end_time": 68.6818182,
                "pitch": 84,
                "velocity": 25,
                "duration": 0.3022727,
                "tempo": 120.0
            },
            {
                "start_time": 68.6840909,
                "end_time": 68.9840909,
                "pitch": 84,
                "velocity": 25,
                "duration": 0.3,
                "tempo": 120.0
            },
            {
                "start_time": 68.9863636,
                "end_time": 69.2863636,
                "pitch": 84,
                "velocity": 25,
                "duration": 0.3,
                "tempo": 120.0
            },
            {
                "start_time": 69.2863636,
                "end_time": 69.5863636,
                "pitch": 84,
                "velocity": 25,
                "duration": 0.3,
                "tempo": 120.0
            },
            {
                "start_time": 69.5863636,
                "end_time": 69.8863636,
                "pitch": 84,
                "velocity": 25,
                "duration": 0.3,
                "tempo": 120.0
            },
            {
                "start_time": 69.8863636,
                "end_time": 70.1863636,
                "pitch": 84,
                "velocity": 25,
                "duration": 0.3,
                "tempo": 120.0
            },
            {
                "start_time": 70.1886364,
                "end_time": 70.4909091,
                "pitch": 89,
                "velocity": 25,
                "duration": 0.3022727,
                "tempo": 120.0
            },
            {
                "start_time": 70.4909091,
                "end_time": 70.7931818,
                "pitch": 89,
                "velocity": 25,
                "duration": 0.3022727,
                "tempo": 120.0
            },
            {
                "start_time": 70.7954545,
                "end_time": 71.0931818,
                "pitch": 89,
                "velocity": 25,
                "duration": 0.2977273,
                "tempo": 120.0
            },
            {
                "start_time": 71.0954545,
                "end_time": 71.3931818,
                "pitch": 88,
                "velocity": 25,
                "duration": 0.2977273,
                "tempo": 120.0
            },
            {
                "start_time": 71.3954545,
                "end_time": 71.6977273,
                "pitch": 88,
                "velocity": 25,
                "duration": 0.3022727,
                "tempo": 120.0
            },
            {
                "start_time": 71.6977273,
                "end_time": 72.0,
                "pitch": 88,
                "velocity": 25,
                "duration": 0.3022727,
                "tempo": 120.0
            },
            {
                "start_time": 72.0022727,
                "end_time": 72.3,
                "pitch": 88,
                "velocity": 25,
                "duration": 0.2977273,
                "tempo": 120.0
            },
            {
                "start_time": 72.3022727,
                "end_time": 72.6022727,
                "pitch": 88,
                "velocity": 25,
                "duration": 0.3,
                "tempo": 120.0
            },
            {
                "start_time": 72.6022727,
                "end_time": 72.9022727,
                "pitch": 88,
                "velocity": 25,
                "duration": 0.3,
                "tempo": 120.0
            },
            {
                "start_time": 72.9045455,
                "end_time": 73.2022727,
                "pitch": 88,
                "velocity": 25,
                "duration": 0.2977273,
                "tempo": 120.0
            },
            {
                "start_time": 73.2045455,
                "end_time": 73.5068182,
                "pitch": 88,
                "velocity": 25,
                "duration": 0.3022727,
                "tempo": 120.0
            },
            {
                "start_time": 73.5068182,
                "end_time": 73.8090909,
                "pitch": 89,
                "velocity": 25,
                "duration": 0.3022727,
                "tempo": 120.0
            },
            {
                "start_time": 73.8090909,
                "end_time": 74.1090909,
                "pitch": 89,
                "velocity": 25,
                "duration": 0.3,
                "tempo": 120.0
            },
            {
                "start_time": 74.1113636,
                "end_time": 74.4113636,
                "pitch": 89,
                "velocity": 25,
                "duration": 0.3,
                "tempo": 120.0
            },
            {
                "start_time": 74.4113636,
                "end_time": 74.7136364,
                "pitch": 89,
                "velocity": 25,
                "duration": 0.3022727,
                "tempo": 120.0
            },
            {
                "start_time": 74.7136364,
                "end_time": 75.0181818,
                "pitch": 89,
                "velocity": 25,
                "duration": 0.3045455,
                "tempo": 120.0
            },
            {
                "start_time": 75.0181818,
                "end_time": 75.3159091,
                "pitch": 89,
                "velocity": 25,
                "duration": 0.2977273,
                "tempo": 120.0
            },
            {
                "start_time": 75.3181818,
                "end_time": 75.6181818,
                "pitch": 89,
                "velocity": 25,
                "duration": 0.3,
                "tempo": 120.0
            },
            {
                "start_time": 75.6181818,
                "end_time": 75.9227273,
                "pitch": 89,
                "velocity": 25,
                "duration": 0.3045455,
                "tempo": 120.0
            },
            {
                "start_time": 75.925,
                "end_time": 76.2295455,
                "pitch": 89,
                "velocity": 25,
                "duration": 0.3045455,
                "tempo": 120.0
            },
            {
                "start_time": 76.2318182,
                "end_time": 76.5363636,
                "pitch": 89,
                "velocity": 25,
                "duration": 0.3045455,
                "tempo": 120.0
            },
            {
                "start_time": 76.5363636,
                "end_time": 76.8318182,
                "pitch": 89,
                "velocity": 25,
                "duration": 0.2954545,
                "tempo": 120.0
            },
            {
                "start_time": 76.8340909,
                "end_time": 77.1409091,
                "pitch": 89,
                "velocity": 25,
                "duration": 0.3068182,
                "tempo": 120.0
            },
            {
                "start_time": 77.1409091,
                "end_time": 77.4431818,
                "pitch": 89,
                "velocity": 25,
                "duration": 0.3022727,
                "tempo": 120.0
            },
            {
                "start_time": 77.4431818,
                "end_time": 77.7386364,
                "pitch": 86,
                "velocity": 25,
                "duration": 0.2954545,
                "tempo": 120.0
            },
            {
                "start_time": 77.7409091,
                "end_time": 78.0386364,
                "pitch": 86,
                "velocity": 25,
                "duration": 0.2977273,
                "tempo": 120.0
            },
            {
                "start_time": 78.0409091,
                "end_time": 78.3409091,
                "pitch": 86,
                "velocity": 25,
                "duration": 0.3,
                "tempo": 120.0
            },
            {
                "start_time": 78.3431818,
                "end_time": 78.6454545,
                "pitch": 86,
                "velocity": 25,
                "duration": 0.3022727,
                "tempo": 120.0
            },
            {
                "start_time": 78.6477273,
                "end_time": 78.9454545,
                "pitch": 86,
                "velocity": 25,
                "duration": 0.2977273,
                "tempo": 120.0
            },
            {
                "start_time": 78.9477273,
                "end_time": 79.2454545,
                "pitch": 86,
                "velocity": 25,
                "duration": 0.2977273,
                "tempo": 120.0
            },
            {
                "start_time": 79.2477273,
                "end_time": 79.5477273,
                "pitch": 86,
                "velocity": 25,
                "duration": 0.3,
                "tempo": 120.0
            },
            {
                "start_time": 79.5477273,
                "end_time": 79.8477273,
                "pitch": 88,
                "velocity": 25,
                "duration": 0.3,
                "tempo": 120.0
            },
            {
                "start_time": 79.8477273,
                "end_time": 80.15,
                "pitch": 88,
                "velocity": 25,
                "duration": 0.3022727,
                "tempo": 120.0
            },
            {
                "start_time": 80.1522727,
                "end_time": 80.4545455,
                "pitch": 88,
                "velocity": 25,
                "duration": 0.3022727,
                "tempo": 120.0
            },
            {
                "start_time": 80.4545455,
                "end_time": 80.7545455,
                "pitch": 88,
                "velocity": 25,
                "duration": 0.3,
                "tempo": 120.0
            },
            {
                "start_time": 80.7545455,
                "end_time": 81.0545455,
                "pitch": 88,
                "velocity": 25,
                "duration": 0.3,
                "tempo": 120.0
            },
            {
                "start_time": 81.0568182,
                "end_time": 81.3568182,
                "pitch": 88,
                "velocity": 25,
                "duration": 0.3,
                "tempo": 120.0
            },
            {
                "start_time": 81.3590909,
                "end_time": 81.6613636,
                "pitch": 88,
                "velocity": 25,
                "duration": 0.3022727,
                "tempo": 120.0
            },
            {
                "start_time": 81.6636364,
                "end_time": 81.9613636,
                "pitch": 88,
                "velocity": 25,
                "duration": 0.2977273,
                "tempo": 120.0
            },
            {
                "start_time": 81.9636364,
                "end_time": 82.2636364,
                "pitch": 88,
                "velocity": 25,
                "duration": 0.3,
                "tempo": 120.0
            }
        ],
        "French Horn": [
            {
                "start_time": 82.2636364,
                "end_time": 82.2954545,
                "pitch": 69,
                "velocity": 80,
                "duration": 0.0318182,
                "tempo": 120.0
            },
            {
                "start_time": 82.2954545,
                "end_time": 82.8613636,
                "pitch": 72,
                "velocity": 80,
                "duration": 0.5659091,
                "tempo": 120.0
            },
            {
                "start_time": 82.8636364,
                "end_time": 83.1681818,
                "pitch": 70,
                "velocity": 80,
                "duration": 0.3045455,
                "tempo": 120.0
            },
            {
                "start_time": 83.1704545,
                "end_time": 83.1863636,
                "pitch": 67,
                "velocity": 80,
                "duration": 0.0159091,
                "tempo": 120.0
            },
            {
                "start_time": 83.1863636,
                "end_time": 84.6818182,
                "pitch": 66,
                "velocity": 80,
                "duration": 1.4954545,
                "tempo": 120.0
            },
            {
                "start_time": 84.6840909,
                "end_time": 84.7,
                "pitch": 67,
                "velocity": 80,
                "duration": 0.0159091,
                "tempo": 120.0
            },
            {
                "start_time": 84.7,
                "end_time": 84.7340909,
                "pitch": 68,
                "velocity": 80,
                "duration": 0.0340909,
                "tempo": 120.0
            },
            {
                "start_time": 84.7340909,
                "end_time": 85.2886364,
                "pitch": 72,
                "velocity": 80,
                "duration": 0.5545455,
                "tempo": 120.0
            },
            {
                "start_time": 85.2909091,
                "end_time": 85.3227273,
                "pitch": 70,
                "velocity": 80,
                "duration": 0.0318182,
                "tempo": 120.0
            },
            {
                "start_time": 85.3227273,
                "end_time": 85.5886364,
                "pitch": 67,
                "velocity": 80,
                "duration": 0.2659091,
                "tempo": 120.0
            },
            {
                "start_time": 85.5909091,
                "end_time": 87.0977273,
                "pitch": 65,
                "velocity": 80,
                "duration": 1.5068182,
                "tempo": 120.0
            },
            {
                "start_time": 87.1,
                "end_time": 87.1159091,
                "pitch": 66,
                "velocity": 80,
                "duration": 0.0159091,
                "tempo": 120.0
            },
            {
                "start_time": 87.1159091,
                "end_time": 87.1477273,
                "pitch": 67,
                "velocity": 80,
                "duration": 0.0318182,
                "tempo": 120.0
            },
            {
                "start_time": 87.1477273,
                "end_time": 88.6045455,
                "pitch": 71,
                "velocity": 80,
                "duration": 1.4568182,
                "tempo": 120.0
            },
            {
                "start_time": 88.6068182,
                "end_time": 88.9045455,
                "pitch": 74,
                "velocity": 80,
                "duration": 0.2977273,
                "tempo": 120.0
            },
            {
                "start_time": 88.9068182,
                "end_time": 89.2068182,
                "pitch": 74,
                "velocity": 80,
                "duration": 0.3,
                "tempo": 120.0
            },
            {
                "start_time": 89.2090909,
                "end_time": 89.5068182,
                "pitch": 72,
                "velocity": 80,
                "duration": 0.2977273,
                "tempo": 120.0
            },
            {
                "start_time": 89.5090909,
                "end_time": 90.1136364,
                "pitch": 72,
                "velocity": 80,
                "duration": 0.6045455,
                "tempo": 120.0
            },
            {
                "start_time": 90.1159091,
                "end_time": 90.4136364,
                "pitch": 70,
                "velocity": 80,
                "duration": 0.2977273,
                "tempo": 120.0
            },
            {
                "start_time": 90.4159091,
                "end_time": 91.0204545,
                "pitch": 69,
                "velocity": 80,
                "duration": 0.6045455,
                "tempo": 120.0
            },
            {
                "start_time": 91.0227273,
                "end_time": 91.9340909,
                "pitch": 70,
                "velocity": 80,
                "duration": 0.9113636,
                "tempo": 120.0
            },
            {
                "start_time": 91.9363636,
                "end_time": 92.3863636,
                "pitch": 68,
                "velocity": 80,
                "duration": 0.45,
                "tempo": 120.0
            },
            {
                "start_time": 87.1159091,
                "end_time": 92.4363636,
                "pitch": 55,
                "velocity": 80,
                "duration": 5.3204545,
                "tempo": 120.0
            },
            {
                "start_time": 92.3863636,
                "end_time": 92.4363636,
                "pitch": 67,
                "velocity": 80,
                "duration": 0.05,
                "tempo": 120.0
            },
            {
                "start_time": 92.4363636,
                "end_time": 92.5522727,
                "pitch": 67,
                "velocity": 80,
                "duration": 0.1159091,
                "tempo": 120.0
            },
            {
                "start_time": 92.3863636,
                "end_time": 92.5522727,
                "pitch": 79,
                "velocity": 80,
                "duration": 0.1659091,
                "tempo": 120.0
            },
            {
                "start_time": 92.4363636,
                "end_time": 92.6022727,
                "pitch": 55,
                "velocity": 80,
                "duration": 0.1659091,
                "tempo": 120.0
            },
            {
                "start_time": 92.5522727,
                "end_time": 92.6022727,
                "pitch": 67,
                "velocity": 80,
                "duration": 0.05,
                "tempo": 120.0
            },
            {
                "start_time": 92.6022727,
                "end_time": 92.7204545,
                "pitch": 67,
                "velocity": 80,
                "duration": 0.1181818,
                "tempo": 120.0
            },
            {
                "start_time": 92.5522727,
                "end_time": 92.7204545,
                "pitch": 79,
                "velocity": 80,
                "duration": 0.1681818,
                "tempo": 120.0
            },
            {
                "start_time": 92.6022727,
                "end_time": 92.7727273,
                "pitch": 55,
                "velocity": 80,
                "duration": 0.1704545,
                "tempo": 120.0
            },
            {
                "start_time": 92.7204545,
                "end_time": 92.7727273,
                "pitch": 67,
                "velocity": 80,
                "duration": 0.0522727,
                "tempo": 120.0
            },
            {
                "start_time": 92.7727273,
                "end_time": 92.8886364,
                "pitch": 67,
                "velocity": 80,
                "duration": 0.1159091,
                "tempo": 120.0
            },
            {
                "start_time": 92.7204545,
                "end_time": 92.8909091,
                "pitch": 79,
                "velocity": 80,
                "duration": 0.1704545,
                "tempo": 120.0
            },
            {
                "start_time": 92.8886364,
                "end_time": 92.8909091,
                "pitch": 79,
                "velocity": 80,
                "duration": 0.0022727,
                "tempo": 120.0
            },
            {
                "start_time": 92.7727273,
                "end_time": 92.9409091,
                "pitch": 55,
                "velocity": 80,
                "duration": 0.1681818,
                "tempo": 120.0
            },
            {
                "start_time": 92.8909091,
                "end_time": 92.9409091,
                "pitch": 67,
                "velocity": 80,
                "duration": 0.05,
                "tempo": 120.0
            },
            {
                "start_time": 92.9409091,
                "end_time": 93.0590909,
                "pitch": 67,
                "velocity": 80,
                "duration": 0.1181818,
                "tempo": 120.0
            },
            {
                "start_time": 92.9409091,
                "end_time": 93.1090909,
                "pitch": 55,
                "velocity": 80,
                "duration": 0.1681818,
                "tempo": 120.0
            },
            {
                "start_time": 93.0590909,
                "end_time": 93.1090909,
                "pitch": 67,
                "velocity": 80,
                "duration": 0.05,
                "tempo": 120.0
            },
            {
                "start_time": 93.1090909,
                "end_time": 93.225,
                "pitch": 67,
                "velocity": 80,
                "duration": 0.1159091,
                "tempo": 120.0
            },
            {
                "start_time": 93.0590909,
                "end_time": 93.2272727,
                "pitch": 79,
                "velocity": 80,
                "duration": 0.1681818,
                "tempo": 120.0
            },
            {
                "start_time": 93.225,
                "end_time": 93.2272727,
                "pitch": 79,
                "velocity": 80,
                "duration": 0.0022727,
                "tempo": 120.0
            },
            {
                "start_time": 93.2272727,
                "end_time": 93.275,
                "pitch": 67,
                "velocity": 80,
                "duration": 0.0477273,
                "tempo": 120.0
            },
            {
                "start_time": 93.1090909,
                "end_time": 93.2772727,
                "pitch": 55,
                "velocity": 80,
                "duration": 0.1681818,
                "tempo": 120.0
            },
            {
                "start_time": 93.275,
                "end_time": 93.2772727,
                "pitch": 55,
                "velocity": 80,
                "duration": 0.0022727,
                "tempo": 120.0
            },
            {
                "start_time": 93.2772727,
                "end_time": 93.3931818,
                "pitch": 67,
                "velocity": 80,
                "duration": 0.1159091,
                "tempo": 120.0
            },
            {
                "start_time": 93.3931818,
                "end_time": 93.4409091,
                "pitch": 67,
                "velocity": 80,
                "duration": 0.0477273,
                "tempo": 120.0
            },
            {
                "start_time": 93.4431818,
                "end_time": 93.7409091,
                "pitch": 67,
                "velocity": 80,
                "duration": 0.2977273,
                "tempo": 120.0
            },
            {
                "start_time": 93.7431818,
                "end_time": 94.0431818,
                "pitch": 69,
                "velocity": 80,
                "duration": 0.3,
                "tempo": 120.0
            },
            {
                "start_time": 94.0454545,
                "end_time": 94.3431818,
                "pitch": 70,
                "velocity": 80,
                "duration": 0.2977273,
                "tempo": 120.0
            },
            {
                "start_time": 94.3454545,
                "end_time": 95.25,
                "pitch": 72,
                "velocity": 80,
                "duration": 0.9045455,
                "tempo": 120.0
            },
            {
                "start_time": 95.2522727,
                "end_time": 96.7590909,
                "pitch": 74,
                "velocity": 80,
                "duration": 1.5068182,
                "tempo": 120.0
            },
            {
                "start_time": 96.7613636,
                "end_time": 97.0590909,
                "pitch": 74,
                "velocity": 80,
                "duration": 0.2977273,
                "tempo": 120.0
            },
            {
                "start_time": 97.0613636,
                "end_time": 97.3590909,
                "pitch": 72,
                "velocity": 80,
                "duration": 0.2977273,
                "tempo": 120.0
            },
            {
                "start_time": 97.3613636,
                "end_time": 97.6613636,
                "pitch": 70,
                "velocity": 80,
                "duration": 0.3,
                "tempo": 120.0
            },
            {
                "start_time": 97.6636364,
                "end_time": 98.1363636,
                "pitch": 68,
                "velocity": 80,
                "duration": 0.4727273,
                "tempo": 120.0
            },
            {
                "start_time": 93.3931818,
                "end_time": 98.1363636,
                "pitch": 79,
                "velocity": 80,
                "duration": 4.7431818,
                "tempo": 120.0
            },
            {
                "start_time": 98.1363636,
                "end_time": 98.1886364,
                "pitch": 67,
                "velocity": 80,
                "duration": 0.0522727,
                "tempo": 120.0
            },
            {
                "start_time": 98.1886364,
                "end_time": 98.3068182,
                "pitch": 67,
                "velocity": 80,
                "duration": 0.1181818,
                "tempo": 120.0
            },
            {
                "start_time": 98.1363636,
                "end_time": 98.3068182,
                "pitch": 79,
                "velocity": 80,
                "duration": 0.1704545,
                "tempo": 120.0
            },
            {
                "start_time": 98.1886364,
                "end_time": 98.3590909,
                "pitch": 55,
                "velocity": 80,
                "duration": 0.1704545,
                "tempo": 120.0
            },
            {
                "start_time": 98.3068182,
                "end_time": 98.3590909,
                "pitch": 67,
                "velocity": 80,
                "duration": 0.0522727,
                "tempo": 120.0
            },
            {
                "start_time": 98.3590909,
                "end_time": 98.4772727,
                "pitch": 67,
                "velocity": 80,
                "duration": 0.1181818,
                "tempo": 120.0
            },
            {
                "start_time": 98.3068182,
                "end_time": 98.4772727,
                "pitch": 79,
                "velocity": 80,
                "duration": 0.1704545,
                "tempo": 120.0
            },
            {
                "start_time": 98.3590909,
                "end_time": 98.5295455,
                "pitch": 55,
                "velocity": 80,
                "duration": 0.1704545,
                "tempo": 120.0
            },
            {
                "start_time": 98.4772727,
                "end_time": 98.5295455,
                "pitch": 67,
                "velocity": 80,
                "duration": 0.0522727,
                "tempo": 120.0
            },
            {
                "start_time": 98.5295455,
                "end_time": 98.5795455,
                "pitch": 67,
                "velocity": 80,
                "duration": 0.05,
                "tempo": 120.0
            },
            {
                "start_time": 98.5795455,
                "end_time": 99.1795455,
                "pitch": 69,
                "velocity": 80,
                "duration": 0.6,
                "tempo": 120.0
            },
            {
                "start_time": 99.1818182,
                "end_time": 99.1977273,
                "pitch": 67,
                "velocity": 80,
                "duration": 0.0159091,
                "tempo": 120.0
            },
            {
                "start_time": 83.1863636,
                "end_time": 99.1977273,
                "pitch": 78,
                "velocity": 80,
                "duration": 16.0113636,
                "tempo": 120.0
            },
            {
                "start_time": 99.1977273,
                "end_time": 101.5954545,
                "pitch": 66,
                "velocity": 80,
                "duration": 2.3977273,
                "tempo": 120.0
            },
            {
                "start_time": 101.5954545,
                "end_time": 101.6022727,
                "pitch": 65,
                "velocity": 80,
                "duration": 0.0068182,
                "tempo": 120.0
            }
        ],
        "Clarinet": [
            {
                "start_time": 0.0068182,
                "end_time": 0.3,
                "pitch": 69,
                "velocity": 51,
                "duration": 0.2931818,
                "tempo": 120.0
            },
            {
                "start_time": 0.3022727,
                "end_time": 0.6,
                "pitch": 70,
                "velocity": 51,
                "duration": 0.2977273,
                "tempo": 120.0
            },
            {
                "start_time": 0.6022727,
                "end_time": 0.8931818,
                "pitch": 69,
                "velocity": 51,
                "duration": 0.2909091,
                "tempo": 120.0
            },
            {
                "start_time": 0.8931818,
                "end_time": 1.2704545,
                "pitch": 67,
                "velocity": 51,
                "duration": 0.3772727,
                "tempo": 120.0
            },
            {
                "start_time": 1.2704545,
                "end_time": 1.2863636,
                "pitch": 67,
                "velocity": 51,
                "duration": 0.0159091,
                "tempo": 120.0
            },
            {
                "start_time": 1.2863636,
                "end_time": 1.4068182,
                "pitch": 67,
                "velocity": 51,
                "duration": 0.1204545,
                "tempo": 120.0
            },
            {
                "start_time": 1.2704545,
                "end_time": 1.4068182,
                "pitch": 79,
                "velocity": 51,
                "duration": 0.1363636,
                "tempo": 120.0
            },
            {
                "start_time": 1.2863636,
                "end_time": 1.4568182,
                "pitch": 55,
                "velocity": 51,
                "duration": 0.1704545,
                "tempo": 120.0
            },
            {
                "start_time": 1.4068182,
                "end_time": 1.4568182,
                "pitch": 67,
                "velocity": 51,
                "duration": 0.05,
                "tempo": 120.0
            },
            {
                "start_time": 1.4568182,
                "end_time": 1.5772727,
                "pitch": 67,
                "velocity": 51,
                "duration": 0.1204545,
                "tempo": 120.0
            },
            {
                "start_time": 1.4068182,
                "end_time": 1.5772727,
                "pitch": 79,
                "velocity": 51,
                "duration": 0.1704545,
                "tempo": 120.0
            },
            {
                "start_time": 1.4568182,
                "end_time": 1.6272727,
                "pitch": 55,
                "velocity": 51,
                "duration": 0.1704545,
                "tempo": 120.0
            },
            {
                "start_time": 1.5772727,
                "end_time": 1.6272727,
                "pitch": 67,
                "velocity": 51,
                "duration": 0.05,
                "tempo": 120.0
            },
            {
                "start_time": 1.6272727,
                "end_time": 1.7477273,
                "pitch": 67,
                "velocity": 51,
                "duration": 0.1204545,
                "tempo": 120.0
            },
            {
                "start_time": 1.5772727,
                "end_time": 1.7477273,
                "pitch": 79,
                "velocity": 51,
                "duration": 0.1704545,
                "tempo": 120.0
            },
            {
                "start_time": 1.6272727,
                "end_time": 1.7977273,
                "pitch": 55,
                "velocity": 51,
                "duration": 0.1704545,
                "tempo": 120.0
            },
            {
                "start_time": 1.7477273,
                "end_time": 1.7977273,
                "pitch": 67,
                "velocity": 51,
                "duration": 0.05,
                "tempo": 120.0
            },
            {
                "start_time": 1.7977273,
                "end_time": 1.9159091,
                "pitch": 67,
                "velocity": 51,
                "duration": 0.1181818,
                "tempo": 120.0
            },
            {
                "start_time": 1.7477273,
                "end_time": 1.9159091,
                "pitch": 79,
                "velocity": 51,
                "duration": 0.1681818,
                "tempo": 120.0
            },
            {
                "start_time": 1.7977273,
                "end_time": 1.9659091,
                "pitch": 55,
                "velocity": 51,
                "duration": 0.1681818,
                "tempo": 120.0
            },
            {
                "start_time": 1.9159091,
                "end_time": 1.9659091,
                "pitch": 67,
                "velocity": 51,
                "duration": 0.05,
                "tempo": 120.0
            },
            {
                "start_time": 1.9659091,
                "end_time": 2.0840909,
                "pitch": 67,
                "velocity": 51,
                "duration": 0.1181818,
                "tempo": 120.0
            },
            {
                "start_time": 1.9159091,
                "end_time": 2.0840909,
                "pitch": 79,
                "velocity": 51,
                "duration": 0.1681818,
                "tempo": 120.0
            },
            {
                "start_time": 2.0840909,
                "end_time": 2.1340909,
                "pitch": 67,
                "velocity": 51,
                "duration": 0.05,
                "tempo": 120.0
            },
            {
                "start_time": 1.9659091,
                "end_time": 2.1363636,
                "pitch": 55,
                "velocity": 51,
                "duration": 0.1704545,
                "tempo": 120.0
            },
            {
                "start_time": 2.1340909,
                "end_time": 2.1363636,
                "pitch": 55,
                "velocity": 51,
                "duration": 0.0022727,
                "tempo": 120.0
            },
            {
                "start_time": 2.1363636,
                "end_time": 2.2522727,
                "pitch": 67,
                "velocity": 51,
                "duration": 0.1159091,
                "tempo": 120.0
            },
            {
                "start_time": 2.0840909,
                "end_time": 2.2522727,
                "pitch": 79,
                "velocity": 51,
                "duration": 0.1681818,
                "tempo": 120.0
            },
            {
                "start_time": 2.2522727,
                "end_time": 2.3045455,
                "pitch": 67,
                "velocity": 51,
                "duration": 0.0522727,
                "tempo": 120.0
            },
            {
                "start_time": 2.3045455,
                "end_time": 2.4045455,
                "pitch": 67,
                "velocity": 51,
                "duration": 0.1,
                "tempo": 120.0
            },
            {
                "start_time": 2.4068182,
                "end_time": 2.7931818,
                "pitch": 67,
                "velocity": 51,
                "duration": 0.3863636,
                "tempo": 120.0
            },
            {
                "start_time": 2.2522727,
                "end_time": 2.7931818,
                "pitch": 79,
                "velocity": 51,
                "duration": 0.5409091,
                "tempo": 120.0
            },
            {
                "start_time": 2.3045455,
                "end_time": 2.8272727,
                "pitch": 55,
                "velocity": 51,
                "duration": 0.5227273,
                "tempo": 120.0
            },
            {
                "start_time": 2.7931818,
                "end_time": 2.8272727,
                "pitch": 67,
                "velocity": 51,
                "duration": 0.0340909,
                "tempo": 120.0
            },
            {
                "start_time": 2.8272727,
                "end_time": 2.9431818,
                "pitch": 67,
                "velocity": 51,
                "duration": 0.1159091,
                "tempo": 120.0
            },
            {
                "start_time": 2.7931818,
                "end_time": 2.9454545,
                "pitch": 79,
                "velocity": 51,
                "duration": 0.1522727,
                "tempo": 120.0
            },
            {
                "start_time": 2.9431818,
                "end_time": 2.9454545,
                "pitch": 79,
                "velocity": 51,
                "duration": 0.0022727,
                "tempo": 120.0
            },
            {
                "start_time": 2.8272727,
                "end_time": 2.9954545,
                "pitch": 55,
                "velocity": 51,
                "duration": 0.1681818,
                "tempo": 120.0
            },
            {
                "start_time": 2.9454545,
                "end_time": 2.9954545,
                "pitch": 67,
                "velocity": 51,
                "duration": 0.05,
                "tempo": 120.0
            },
            {
                "start_time": 2.9954545,
                "end_time": 3.1113636,
                "pitch": 67,
                "velocity": 51,
                "duration": 0.1159091,
                "tempo": 120.0
            },
            {
                "start_time": 3.1113636,
                "end_time": 3.1590909,
                "pitch": 67,
                "velocity": 51,
                "duration": 0.0477273,
                "tempo": 120.0
            },
            {
                "start_time": 2.9954545,
                "end_time": 3.1613636,
                "pitch": 55,
                "velocity": 51,
                "duration": 0.1659091,
                "tempo": 120.0
            },
            {
                "start_time": 3.1590909,
                "end_time": 3.1613636,
                "pitch": 55,
                "velocity": 51,
                "duration": 0.0022727,
                "tempo": 120.0
            },
            {
                "start_time": 3.1613636,
                "end_time": 3.275,
                "pitch": 67,
                "velocity": 51,
                "duration": 0.1136364,
                "tempo": 120.0
            },
            {
                "start_time": 3.1113636,
                "end_time": 3.275,
                "pitch": 79,
                "velocity": 51,
                "duration": 0.1636364,
                "tempo": 120.0
            },
            {
                "start_time": 3.275,
                "end_time": 3.3090909,
                "pitch": 67,
                "velocity": 51,
                "duration": 0.0340909,
                "tempo": 120.0
            },
            {
                "start_time": 3.3090909,
                "end_time": 4.8318182,
                "pitch": 65,
                "velocity": 51,
                "duration": 1.5227273,
                "tempo": 120.0
            },
            {
                "start_time": 4.8340909,
                "end_time": 5.1295455,
                "pitch": 69,
                "velocity": 51,
                "duration": 0.2954545,
                "tempo": 120.0
            },
            {
                "start_time": 5.1295455,
                "end_time": 5.425,
                "pitch": 70,
                "velocity": 51,
                "duration": 0.2954545,
                "tempo": 120.0
            },
            {
                "start_time": 5.4272727,
                "end_time": 5.7318182,
                "pitch": 69,
                "velocity": 51,
                "duration": 0.3045455,
                "tempo": 120.0
            },
            {
                "start_time": 5.7340909,
                "end_time": 6.1727273,
                "pitch": 67,
                "velocity": 51,
                "duration": 0.4386364,
                "tempo": 120.0
            },
            {
                "start_time": 3.275,
                "end_time": 6.1727273,
                "pitch": 79,
                "velocity": 51,
                "duration": 2.8977273,
                "tempo": 120.0
            },
            {
                "start_time": 6.1727273,
                "end_time": 6.2227273,
                "pitch": 67,
                "velocity": 51,
                "duration": 0.05,
                "tempo": 120.0
            },
            {
                "start_time": 6.2227273,
                "end_time": 6.3409091,
                "pitch": 67,
                "velocity": 51,
                "duration": 0.1181818,
                "tempo": 120.0
            },
            {
                "start_time": 6.1727273,
                "end_time": 6.3409091,
                "pitch": 79,
                "velocity": 51,
                "duration": 0.1681818,
                "tempo": 120.0
            },
            {
                "start_time": 6.2227273,
                "end_time": 6.3909091,
                "pitch": 55,
                "velocity": 51,
                "duration": 0.1681818,
                "tempo": 120.0
            },
            {
                "start_time": 6.3409091,
                "end_time": 6.3909091,
                "pitch": 67,
                "velocity": 51,
                "duration": 0.05,
                "tempo": 120.0
            },
            {
                "start_time": 6.3909091,
                "end_time": 6.5068182,
                "pitch": 67,
                "velocity": 51,
                "duration": 0.1159091,
                "tempo": 120.0
            },
            {
                "start_time": 6.3409091,
                "end_time": 6.5068182,
                "pitch": 79,
                "velocity": 51,
                "duration": 0.1659091,
                "tempo": 120.0
            },
            {
                "start_time": 6.3909091,
                "end_time": 6.5568182,
                "pitch": 55,
                "velocity": 51,
                "duration": 0.1659091,
                "tempo": 120.0
            },
            {
                "start_time": 6.5068182,
                "end_time": 6.5568182,
                "pitch": 67,
                "velocity": 51,
                "duration": 0.05,
                "tempo": 120.0
            },
            {
                "start_time": 6.5568182,
                "end_time": 6.6409091,
                "pitch": 67,
                "velocity": 51,
                "duration": 0.0840909,
                "tempo": 120.0
            },
            {
                "start_time": 6.6409091,
                "end_time": 7.2477273,
                "pitch": 72,
                "velocity": 51,
                "duration": 0.6068182,
                "tempo": 120.0
            },
            {
                "start_time": 7.2477273,
                "end_time": 7.7159091,
                "pitch": 67,
                "velocity": 51,
                "duration": 0.4681818,
                "tempo": 120.0
            },
            {
                "start_time": 6.5068182,
                "end_time": 7.7159091,
                "pitch": 79,
                "velocity": 51,
                "duration": 1.2090909,
                "tempo": 120.0
            },
            {
                "start_time": 6.5568182,
                "end_time": 7.7659091,
                "pitch": 55,
                "velocity": 51,
                "duration": 1.2090909,
                "tempo": 120.0
            },
            {
                "start_time": 7.7159091,
                "end_time": 7.7659091,
                "pitch": 67,
                "velocity": 51,
                "duration": 0.05,
                "tempo": 120.0
            },
            {
                "start_time": 7.7659091,
                "end_time": 7.8818182,
                "pitch": 67,
                "velocity": 51,
                "duration": 0.1159091,
                "tempo": 120.0
            },
            {
                "start_time": 7.7159091,
                "end_time": 7.8818182,
                "pitch": 79,
                "velocity": 51,
                "duration": 0.1659091,
                "tempo": 120.0
            },
            {
                "start_time": 7.7659091,
                "end_time": 7.9318182,
                "pitch": 55,
                "velocity": 51,
                "duration": 0.1659091,
                "tempo": 120.0
            },
            {
                "start_time": 7.8818182,
                "end_time": 7.9318182,
                "pitch": 67,
                "velocity": 51,
                "duration": 0.05,
                "tempo": 120.0
            },
            {
                "start_time": 7.9318182,
                "end_time": 8.05,
                "pitch": 67,
                "velocity": 51,
                "duration": 0.1181818,
                "tempo": 120.0
            },
            {
                "start_time": 7.8818182,
                "end_time": 8.05,
                "pitch": 79,
                "velocity": 51,
                "duration": 0.1681818,
                "tempo": 120.0
            },
            {
                "start_time": 7.9318182,
                "end_time": 8.1022727,
                "pitch": 55,
                "velocity": 51,
                "duration": 0.1704545,
                "tempo": 120.0
            },
            {
                "start_time": 8.05,
                "end_time": 8.1022727,
                "pitch": 67,
                "velocity": 51,
                "duration": 0.0522727,
                "tempo": 120.0
            },
            {
                "start_time": 8.1022727,
                "end_time": 8.1522727,
                "pitch": 67,
                "velocity": 51,
                "duration": 0.05,
                "tempo": 120.0
            },
            {
                "start_time": 8.1522727,
                "end_time": 9.6568182,
                "pitch": 65,
                "velocity": 51,
                "duration": 1.5045455,
                "tempo": 120.0
            },
            {
                "start_time": 9.6568182,
                "end_time": 9.9568182,
                "pitch": 65,
                "velocity": 51,
                "duration": 0.3,
                "tempo": 120.0
            },
            {
                "start_time": 9.9568182,
                "end_time": 10.2568182,
                "pitch": 62,
                "velocity": 51,
                "duration": 0.3,
                "tempo": 120.0
            },
            {
                "start_time": 10.2590909,
                "end_time": 10.5636364,
                "pitch": 64,
                "velocity": 51,
                "duration": 0.3045455,
                "tempo": 120.0
            },
            {
                "start_time": 10.5659091,
                "end_time": 10.9545455,
                "pitch": 67,
                "velocity": 51,
                "duration": 0.3886364,
                "tempo": 120.0
            },
            {
                "start_time": 8.05,
                "end_time": 10.9545455,
                "pitch": 79,
                "velocity": 51,
                "duration": 2.9045455,
                "tempo": 120.0
            },
            {
                "start_time": 10.9545455,
                "end_time": 10.9863636,
                "pitch": 67,
                "velocity": 51,
                "duration": 0.0318182,
                "tempo": 120.0
            },
            {
                "start_time": 8.1022727,
                "end_time": 10.9886364,
                "pitch": 55,
                "velocity": 51,
                "duration": 2.8863636,
                "tempo": 120.0
            },
            {
                "start_time": 10.9863636,
                "end_time": 10.9886364,
                "pitch": 55,
                "velocity": 51,
                "duration": 0.0022727,
                "tempo": 120.0
            },
            {
                "start_time": 10.9886364,
                "end_time": 11.1045455,
                "pitch": 67,
                "velocity": 51,
                "duration": 0.1159091,
                "tempo": 120.0
            },
            {
                "start_time": 10.9545455,
                "end_time": 11.1045455,
                "pitch": 79,
                "velocity": 51,
                "duration": 0.15,
                "tempo": 120.0
            },
            {
                "start_time": 11.1045455,
                "end_time": 11.1545455,
                "pitch": 67,
                "velocity": 51,
                "duration": 0.05,
                "tempo": 120.0
            },
            {
                "start_time": 11.1545455,
                "end_time": 11.2704545,
                "pitch": 67,
                "velocity": 51,
                "duration": 0.1159091,
                "tempo": 120.0
            },
            {
                "start_time": 11.1045455,
                "end_time": 11.2704545,
                "pitch": 79,
                "velocity": 51,
                "duration": 0.1659091,
                "tempo": 120.0
            },
            {
                "start_time": 11.1545455,
                "end_time": 11.3204545,
                "pitch": 55,
                "velocity": 51,
                "duration": 0.1659091,
                "tempo": 120.0
            },
            {
                "start_time": 11.2704545,
                "end_time": 11.3204545,
                "pitch": 67,
                "velocity": 51,
                "duration": 0.05,
                "tempo": 120.0
            },
            {
                "start_time": 11.3204545,
                "end_time": 11.4386364,
                "pitch": 67,
                "velocity": 51,
                "duration": 0.1181818,
                "tempo": 120.0
            },
            {
                "start_time": 11.2704545,
                "end_time": 11.4386364,
                "pitch": 79,
                "velocity": 51,
                "duration": 0.1681818,
                "tempo": 120.0
            },
            {
                "start_time": 11.4386364,
                "end_time": 11.4704545,
                "pitch": 67,
                "velocity": 51,
                "duration": 0.0318182,
                "tempo": 120.0
            },
            {
                "start_time": 11.4727273,
                "end_time": 12.0704545,
                "pitch": 72,
                "velocity": 51,
                "duration": 0.5977273,
                "tempo": 120.0
            },
            {
                "start_time": 12.0727273,
                "end_time": 12.4681818,
                "pitch": 67,
                "velocity": 51,
                "duration": 0.3954545,
                "tempo": 120.0
            },
            {
                "start_time": 11.4386364,
                "end_time": 12.4681818,
                "pitch": 79,
                "velocity": 51,
                "duration": 1.0295455,
                "tempo": 120.0
            },
            {
                "start_time": 11.3204545,
                "end_time": 12.5181818,
                "pitch": 55,
                "velocity": 51,
                "duration": 1.1977273,
                "tempo": 120.0
            },
            {
                "start_time": 12.4681818,
                "end_time": 12.5181818,
                "pitch": 67,
                "velocity": 51,
                "duration": 0.05,
                "tempo": 120.0
            },
            {
                "start_time": 12.5181818,
                "end_time": 12.6340909,
                "pitch": 67,
                "velocity": 51,
                "duration": 0.1159091,
                "tempo": 120.0
            },
            {
                "start_time": 12.4681818,
                "end_time": 12.6340909,
                "pitch": 79,
                "velocity": 51,
                "duration": 0.1659091,
                "tempo": 120.0
            },
            {
                "start_time": 12.5181818,
                "end_time": 12.6840909,
                "pitch": 55,
                "velocity": 51,
                "duration": 0.1659091,
                "tempo": 120.0
            },
            {
                "start_time": 12.6340909,
                "end_time": 12.6840909,
                "pitch": 67,
                "velocity": 51,
                "duration": 0.05,
                "tempo": 120.0
            },
            {
                "start_time": 12.6840909,
                "end_time": 12.8,
                "pitch": 67,
                "velocity": 51,
                "duration": 0.1159091,
                "tempo": 120.0
            },
            {
                "start_time": 12.6340909,
                "end_time": 12.8,
                "pitch": 79,
                "velocity": 51,
                "duration": 0.1659091,
                "tempo": 120.0
            },
            {
                "start_time": 12.6840909,
                "end_time": 12.85,
                "pitch": 55,
                "velocity": 51,
                "duration": 0.1659091,
                "tempo": 120.0
            },
            {
                "start_time": 12.8,
                "end_time": 12.85,
                "pitch": 67,
                "velocity": 51,
                "duration": 0.05,
                "tempo": 120.0
            },
            {
                "start_time": 12.85,
                "end_time": 12.9659091,
                "pitch": 67,
                "velocity": 51,
                "duration": 0.1159091,
                "tempo": 120.0
            },
            {
                "start_time": 12.9681818,
                "end_time": 13.8795455,
                "pitch": 69,
                "velocity": 51,
                "duration": 0.9113636,
                "tempo": 120.0
            },
            {
                "start_time": 13.8818182,
                "end_time": 14.4818182,
                "pitch": 65,
                "velocity": 51,
                "duration": 0.6,
                "tempo": 120.0
            },
            {
                "start_time": 14.4818182,
                "end_time": 15.6818182,
                "pitch": 69,
                "velocity": 51,
                "duration": 1.2,
                "tempo": 120.0
            },
            {
                "start_time": 15.6840909,
                "end_time": 15.9863636,
                "pitch": 72,
                "velocity": 51,
                "duration": 0.3022727,
                "tempo": 120.0
            },
            {
                "start_time": 15.9863636,
                "end_time": 16.2886364,
                "pitch": 70,
                "velocity": 51,
                "duration": 0.3022727,
                "tempo": 120.0
            },
            {
                "start_time": 16.2909091,
                "end_time": 16.5886364,
                "pitch": 65,
                "velocity": 51,
                "duration": 0.2977273,
                "tempo": 120.0
            },
            {
                "start_time": 16.5909091,
                "end_time": 16.8909091,
                "pitch": 62,
                "velocity": 51,
                "duration": 0.3,
                "tempo": 120.0
            },
            {
                "start_time": 16.8909091,
                "end_time": 19.0045455,
                "pitch": 65,
                "velocity": 51,
                "duration": 2.1136364,
                "tempo": 120.0
            },
            {
                "start_time": 19.0068182,
                "end_time": 19.425,
                "pitch": 67,
                "velocity": 51,
                "duration": 0.4181818,
                "tempo": 120.0
            },
            {
                "start_time": 12.8,
                "end_time": 19.425,
                "pitch": 79,
                "velocity": 51,
                "duration": 6.625,
                "tempo": 120.0
            },
            {
                "start_time": 12.85,
                "end_time": 19.475,
                "pitch": 55,
                "velocity": 51,
                "duration": 6.625,
                "tempo": 120.0
            },
            {
                "start_time": 19.425,
                "end_time": 19.475,
                "pitch": 67,
                "velocity": 51,
                "duration": 0.05,
                "tempo": 120.0
            },
            {
                "start_time": 19.475,
                "end_time": 19.5931818,
                "pitch": 67,
                "velocity": 51,
                "duration": 0.1181818,
                "tempo": 120.0
            },
            {
                "start_time": 19.425,
                "end_time": 19.5931818,
                "pitch": 79,
                "velocity": 51,
                "duration": 0.1681818,
                "tempo": 120.0
            },
            {
                "start_time": 19.475,
                "end_time": 19.6431818,
                "pitch": 55,
                "velocity": 51,
                "duration": 0.1681818,
                "tempo": 120.0
            },
            {
                "start_time": 19.5931818,
                "end_time": 19.6431818,
                "pitch": 67,
                "velocity": 51,
                "duration": 0.05,
                "tempo": 120.0
            },
            {
                "start_time": 19.6431818,
                "end_time": 19.7613636,
                "pitch": 67,
                "velocity": 51,
                "duration": 0.1181818,
                "tempo": 120.0
            },
            {
                "start_time": 19.5931818,
                "end_time": 19.7613636,
                "pitch": 79,
                "velocity": 51,
                "duration": 0.1681818,
                "tempo": 120.0
            },
            {
                "start_time": 19.6431818,
                "end_time": 19.8113636,
                "pitch": 55,
                "velocity": 51,
                "duration": 0.1681818,
                "tempo": 120.0
            },
            {
                "start_time": 19.7613636,
                "end_time": 19.8113636,
                "pitch": 67,
                "velocity": 51,
                "duration": 0.05,
                "tempo": 120.0
            },
            {
                "start_time": 19.8113636,
                "end_time": 19.9295455,
                "pitch": 67,
                "velocity": 51,
                "duration": 0.1181818,
                "tempo": 120.0
            },
            {
                "start_time": 19.7613636,
                "end_time": 19.9295455,
                "pitch": 79,
                "velocity": 51,
                "duration": 0.1681818,
                "tempo": 120.0
            },
            {
                "start_time": 19.8113636,
                "end_time": 19.9795455,
                "pitch": 55,
                "velocity": 51,
                "duration": 0.1681818,
                "tempo": 120.0
            },
            {
                "start_time": 19.9295455,
                "end_time": 19.9795455,
                "pitch": 67,
                "velocity": 51,
                "duration": 0.05,
                "tempo": 120.0
            },
            {
                "start_time": 19.9795455,
                "end_time": 20.0954545,
                "pitch": 67,
                "velocity": 51,
                "duration": 0.1159091,
                "tempo": 120.0
            },
            {
                "start_time": 19.9295455,
                "end_time": 20.0954545,
                "pitch": 79,
                "velocity": 51,
                "duration": 0.1659091,
                "tempo": 120.0
            },
            {
                "start_time": 19.9795455,
                "end_time": 20.1454545,
                "pitch": 55,
                "velocity": 51,
                "duration": 0.1659091,
                "tempo": 120.0
            },
            {
                "start_time": 20.0954545,
                "end_time": 20.1454545,
                "pitch": 67,
                "velocity": 51,
                "duration": 0.05,
                "tempo": 120.0
            },
            {
                "start_time": 20.1454545,
                "end_time": 20.2636364,
                "pitch": 67,
                "velocity": 51,
                "duration": 0.1181818,
                "tempo": 120.0
            },
            {
                "start_time": 20.0954545,
                "end_time": 20.2636364,
                "pitch": 79,
                "velocity": 51,
                "duration": 0.1681818,
                "tempo": 120.0
            },
            {
                "start_time": 20.1454545,
                "end_time": 20.3136364,
                "pitch": 55,
                "velocity": 51,
                "duration": 0.1681818,
                "tempo": 120.0
            },
            {
                "start_time": 20.2636364,
                "end_time": 20.3136364,
                "pitch": 67,
                "velocity": 51,
                "duration": 0.05,
                "tempo": 120.0
            },
            {
                "start_time": 20.3136364,
                "end_time": 20.4295455,
                "pitch": 67,
                "velocity": 51,
                "duration": 0.1159091,
                "tempo": 120.0
            },
            {
                "start_time": 20.2636364,
                "end_time": 20.4295455,
                "pitch": 79,
                "velocity": 51,
                "duration": 0.1659091,
                "tempo": 120.0
            },
            {
                "start_time": 20.3136364,
                "end_time": 20.4795455,
                "pitch": 55,
                "velocity": 51,
                "duration": 0.1659091,
                "tempo": 120.0
            },
            {
                "start_time": 20.4295455,
                "end_time": 20.4795455,
                "pitch": 67,
                "velocity": 51,
                "duration": 0.05,
                "tempo": 120.0
            },
            {
                "start_time": 20.4795455,
                "end_time": 20.5977273,
                "pitch": 67,
                "velocity": 51,
                "duration": 0.1181818,
                "tempo": 120.0
            },
            {
                "start_time": 20.4295455,
                "end_time": 20.5977273,
                "pitch": 79,
                "velocity": 51,
                "duration": 0.1681818,
                "tempo": 120.0
            },
            {
                "start_time": 20.4795455,
                "end_time": 20.65,
                "pitch": 55,
                "velocity": 51,
                "duration": 0.1704545,
                "tempo": 120.0
            },
            {
                "start_time": 20.5977273,
                "end_time": 20.65,
                "pitch": 67,
                "velocity": 51,
                "duration": 0.0522727,
                "tempo": 120.0
            },
            {
                "start_time": 20.65,
                "end_time": 20.7681818,
                "pitch": 67,
                "velocity": 51,
                "duration": 0.1181818,
                "tempo": 120.0
            },
            {
                "start_time": 20.5977273,
                "end_time": 20.7681818,
                "pitch": 79,
                "velocity": 51,
                "duration": 0.1704545,
                "tempo": 120.0
            },
            {
                "start_time": 20.65,
                "end_time": 20.8204545,
                "pitch": 55,
                "velocity": 51,
                "duration": 0.1704545,
                "tempo": 120.0
            },
            {
                "start_time": 20.7681818,
                "end_time": 20.8204545,
                "pitch": 67,
                "velocity": 51,
                "duration": 0.0522727,
                "tempo": 120.0
            },
            {
                "start_time": 20.8204545,
                "end_time": 20.9386364,
                "pitch": 67,
                "velocity": 51,
                "duration": 0.1181818,
                "tempo": 120.0
            },
            {
                "start_time": 20.7681818,
                "end_time": 20.9386364,
                "pitch": 79,
                "velocity": 51,
                "duration": 0.1704545,
                "tempo": 120.0
            },
            {
                "start_time": 20.8204545,
                "end_time": 20.9909091,
                "pitch": 55,
                "velocity": 51,
                "duration": 0.1704545,
                "tempo": 120.0
            },
            {
                "start_time": 20.9386364,
                "end_time": 20.9909091,
                "pitch": 67,
                "velocity": 51,
                "duration": 0.0522727,
                "tempo": 120.0
            },
            {
                "start_time": 20.9909091,
                "end_time": 21.1090909,
                "pitch": 67,
                "velocity": 51,
                "duration": 0.1181818,
                "tempo": 120.0
            },
            {
                "start_time": 20.9386364,
                "end_time": 21.1090909,
                "pitch": 79,
                "velocity": 51,
                "duration": 0.1704545,
                "tempo": 120.0
            },
            {
                "start_time": 20.9909091,
                "end_time": 21.1590909,
                "pitch": 55,
                "velocity": 51,
                "duration": 0.1681818,
                "tempo": 120.0
            },
            {
                "start_time": 21.1090909,
                "end_time": 21.1590909,
                "pitch": 67,
                "velocity": 51,
                "duration": 0.05,
                "tempo": 120.0
            },
            {
                "start_time": 21.1590909,
                "end_time": 21.2772727,
                "pitch": 67,
                "velocity": 51,
                "duration": 0.1181818,
                "tempo": 120.0
            },
            {
                "start_time": 21.1090909,
                "end_time": 21.2772727,
                "pitch": 79,
                "velocity": 51,
                "duration": 0.1681818,
                "tempo": 120.0
            },
            {
                "start_time": 21.1590909,
                "end_time": 21.3272727,
                "pitch": 55,
                "velocity": 51,
                "duration": 0.1681818,
                "tempo": 120.0
            },
            {
                "start_time": 21.2772727,
                "end_time": 21.3272727,
                "pitch": 67,
                "velocity": 51,
                "duration": 0.05,
                "tempo": 120.0
            },
            {
                "start_time": 21.3272727,
                "end_time": 21.4431818,
                "pitch": 67,
                "velocity": 51,
                "duration": 0.1159091,
                "tempo": 120.0
            },
            {
                "start_time": 21.2772727,
                "end_time": 21.4431818,
                "pitch": 79,
                "velocity": 51,
                "duration": 0.1659091,
                "tempo": 120.0
            },
            {
                "start_time": 21.3272727,
                "end_time": 21.4931818,
                "pitch": 55,
                "velocity": 51,
                "duration": 0.1659091,
                "tempo": 120.0
            },
            {
                "start_time": 21.4431818,
                "end_time": 21.4931818,
                "pitch": 67,
                "velocity": 51,
                "duration": 0.05,
                "tempo": 120.0
            },
            {
                "start_time": 21.4931818,
                "end_time": 21.6113636,
                "pitch": 67,
                "velocity": 51,
                "duration": 0.1181818,
                "tempo": 120.0
            },
            {
                "start_time": 21.4431818,
                "end_time": 21.6113636,
                "pitch": 79,
                "velocity": 51,
                "duration": 0.1681818,
                "tempo": 120.0
            },
            {
                "start_time": 21.4931818,
                "end_time": 21.6613636,
                "pitch": 55,
                "velocity": 51,
                "duration": 0.1681818,
                "tempo": 120.0
            },
            {
                "start_time": 21.6113636,
                "end_time": 21.6613636,
                "pitch": 67,
                "velocity": 51,
                "duration": 0.05,
                "tempo": 120.0
            },
            {
                "start_time": 21.6613636,
                "end_time": 21.7272727,
                "pitch": 67,
                "velocity": 51,
                "duration": 0.0659091,
                "tempo": 120.0
            },
            {
                "start_time": 101.6068182,
                "end_time": 101.6113636,
                "pitch": 69,
                "velocity": 51,
                "duration": 0.0045455,
                "tempo": 120.0
            }
        ]
    }
}