{
    "mood": "relaxed",
    "instruments": {
        "Electric Piano 1": [
            {
                "start_time": 0.0159091,
                "end_time": 1.9409091,
                "pitch": 48,
                "velocity": 101,
                "duration": 1.925,
                "tempo": 120.0
            },
            {
                "start_time": 1.9409091,
                "end_time": 3.8522727,
                "pitch": 41,
                "velocity": 101,
                "duration": 1.9113636,
                "tempo": 120.0
            },
            {
                "start_time": 3.8522727,
                "end_time": 5.7863636,
                "pitch": 43,
                "velocity": 101,
                "duration": 1.9340909,
                "tempo": 120.0
            },
            {
                "start_time": 5.7863636,
                "end_time": 7.2477273,
                "pitch": 48,
                "velocity": 101,
                "duration": 1.4613636,
                "tempo": 120.0
            },
            {
                "start_time": 7.2477273,
                "end_time": 7.725,
                "pitch": 47,
                "velocity": 101,
                "duration": 0.4772727,
                "tempo": 120.0
            },
            {
                "start_time": 7.725,
                "end_time": 9.6704545,
                "pitch": 45,
                "velocity": 101,
                "duration": 1.9454545,
                "tempo": 120.0
            },
            {
                "start_time": 9.6704545,
                "end_time": 11.5931818,
                "pitch": 41,
                "velocity": 101,
                "duration": 1.9227273,
                "tempo": 120.0
            },
            {
                "start_time": 11.5931818,
                "end_time": 13.5272727,
                "pitch": 42,
                "velocity": 101,
                "duration": 1.9340909,
                "tempo": 120.0
            },
            {
                "start_time": 13.5272727,
                "end_time": 15.4545455,
                "pitch": 43,
                "velocity": 101,
                "duration": 1.9272727,
                "tempo": 120.0
            },
            {
                "start_time": 15.4545455,
                "end_time": 17.3931818,
                "pitch": 48,
                "velocity": 101,
                "duration": 1.9386364,
                "tempo": 120.0
            },
            {
                "start_time": 17.3931818,
                "end_time": 19.3409091,
                "pitch": 41,
                "velocity": 101,
                "duration": 1.9477273,
                "tempo": 120.0
            },
            {
                "start_time": 19.3409091,
                "end_time": 21.2681818,
                "pitch": 42,
                "velocity": 101,
                "duration": 1.9272727,
                "tempo": 120.0
            },
            {
                "start_time": 21.2681818,
                "end_time": 23.1977273,
                "pitch": 43,
                "velocity": 101,
                "duration": 1.9295455,
                "tempo": 120.0
            },
            {
                "start_time": 23.1977273,
                "end_time": 25.125,
                "pitch": 48,
                "velocity": 101,
                "duration": 1.9272727,
                "tempo": 120.0
            },
            {
                "start_time": 25.125,
                "end_time": 27.0681818,
                "pitch": 41,
                "velocity": 101,
                "duration": 1.9431818,
                "tempo": 120.0
            },
            {
                "start_time": 27.0681818,
                "end_time": 29.0159091,
                "pitch": 43,
                "velocity": 101,
                "duration": 1.9477273,
                "tempo": 120.0
            },
            {
                "start_time": 29.0159091,
                "end_time": 30.4590909,
                "pitch": 48,
                "velocity": 101,
                "duration": 1.4431818,
                "tempo": 120.0
            },
            {
                "start_time": 30.4590909,
                "end_time": 30.9454545,
                "pitch": 47,
                "velocity": 101,
                "duration": 0.4863636,
                "tempo": 120.0
            },
            {
                "start_time": 30.9454545,
                "end_time": 32.8772727,
                "pitch": 45,
                "velocity": 101,
                "duration": 1.9318182,
                "tempo": 120.0
            },
            {
                "start_time": 32.8772727,
                "end_time": 34.8,
                "pitch": 41,
                "velocity": 101,
                "duration": 1.9227273,
                "tempo": 120.0
            },
            {
                "start_time": 34.8,
                "end_time": 36.7409091,
                "pitch": 42,
                "velocity": 101,
                "duration": 1.9409091,
                "tempo": 120.0
            },
            {
                "start_time": 36.7431818,
                "end_time": 38.6818182,
                "pitch": 43,
                "velocity": 101,
                "duration": 1.9386364,
                "tempo": 120.0
            },
            {
                "start_time": 38.6818182,
                "end_time": 40.6090909,
                "pitch": 45,
                "velocity": 101,
                "duration": 1.9272727,
                "tempo": 120.0
            },
            {
                "start_time": 40.6090909,
                "end_time": 42.525,
                "pitch": 43,
                "velocity": 101,
                "duration": 1.9159091,
                "tempo": 120.0
            },
            {
                "start_time": 42.525,
                "end_time": 44.4590909,
                "pitch": 42,
                "velocity": 101,
                "duration": 1.9340909,
                "tempo": 120.0
            },
            {
                "start_time": 44.4590909,
                "end_time": 46.3931818,
                "pitch": 43,
                "velocity": 101,
                "duration": 1.9340909,
                "tempo": 120.0
            },
            {
                "start_time": 46.3954545,
                "end_time": 48.3340909,
                "pitch": 44,
                "velocity": 101,
                "duration": 1.9386364,
                "tempo": 120.0
            },
            {
                "start_time": 48.3340909,
                "end_time": 50.2613636,
                "pitch": 45,
                "velocity": 101,
                "duration": 1.9272727,
                "tempo": 120.0
            },
            {
                "start_time": 50.2613636,
                "end_time": 52.1840909,
                "pitch": 47,
                "velocity": 101,
                "duration": 1.9227273,
                "tempo": 120.0
            },
            {
                "start_time": 52.1863636,
                "end_time": 54.1045455,
                "pitch": 48,
                "velocity": 101,
                "duration": 1.9181818,
                "tempo": 120.0
            },
            {
                "start_time": 54.1045455,
                "end_time": 56.0454545,
                "pitch": 50,
                "velocity": 101,
                "duration": 1.9409091,
                "tempo": 120.0
            },
            {
                "start_time": 56.0454545,
                "end_time": 57.9909091,
                "pitch": 43,
                "velocity": 101,
                "duration": 1.9454545,
                "tempo": 120.0
            },
            {
                "start_time": 57.9909091,
                "end_time": 59.9068182,
                "pitch": 43,
                "velocity": 101,
                "duration": 1.9159091,
                "tempo": 120.0
            },
            {
                "start_time": 59.9068182,
                "end_time": 59.9090909,
                "pitch": 48,
                "velocity": 101,
                "duration": 0.0022727,
                "tempo": 120.0
            }
        ],
        "Acoustic Grand Piano": [
            {
                "start_time": 0.4863636,
                "end_time": 0.7318182,
                "pitch": 64,
                "velocity": 25,
                "duration": 0.2454545,
                "tempo": 120.0
            },
            {
                "start_time": 0.7318182,
                "end_time": 0.9613636,
                "pitch": 60,
                "velocity": 25,
                "duration": 0.2295455,
                "tempo": 120.0
            },
            {
                "start_time": 0.9636364,
                "end_time": 1.2136364,
                "pitch": 55,
                "velocity": 25,
                "duration": 0.25,
                "tempo": 120.0
            },
            {
                "start_time": 1.2136364,
                "end_time": 1.4454545,
                "pitch": 60,
                "velocity": 25,
                "duration": 0.2318182,
                "tempo": 120.0
            },
            {
                "start_time": 1.4477273,
                "end_time": 1.6863636,
                "pitch": 67,
                "velocity": 25,
                "duration": 0.2386364,
                "tempo": 120.0
            },
            {
                "start_time": 1.6863636,
                "end_time": 1.9431818,
                "pitch": 60,
                "velocity": 25,
                "duration": 0.2568182,
                "tempo": 120.0
            },
            {
                "start_time": 1.9431818,
                "end_time": 2.175,
                "pitch": 55,
                "velocity": 25,
                "duration": 0.2318182,
                "tempo": 120.0
            },
            {
                "start_time": 2.175,
                "end_time": 2.425,
                "pitch": 60,
                "velocity": 25,
                "duration": 0.25,
                "tempo": 120.0
            },
            {
                "start_time": 2.4272727,
                "end_time": 2.6590909,
                "pitch": 67,
                "velocity": 25,
                "duration": 0.2318182,
                "tempo": 120.0
            },
            {
                "start_time": 2.6590909,
                "end_time": 2.8931818,
                "pitch": 60,
                "velocity": 25,
                "duration": 0.2340909,
                "tempo": 120.0
            },
            {
                "start_time": 2.8931818,
                "end_time": 3.1386364,
                "pitch": 55,
                "velocity": 25,
                "duration": 0.2454545,
                "tempo": 120.0
            },
            {
                "start_time": 3.1409091,
                "end_time": 3.3704545,
                "pitch": 60,
                "velocity": 25,
                "duration": 0.2295455,
                "tempo": 120.0
            },
            {
                "start_time": 3.3704545,
                "end_time": 3.6204545,
                "pitch": 65,
                "velocity": 25,
                "duration": 0.25,
                "tempo": 120.0
            },
            {
                "start_time": 3.6204545,
                "end_time": 3.8545455,
                "pitch": 60,
                "velocity": 25,
                "duration": 0.2340909,
                "tempo": 120.0
            },
            {
                "start_time": 3.8545455,
                "end_time": 4.0863636,
                "pitch": 64,
                "velocity": 25,
                "duration": 0.2318182,
                "tempo": 120.0
            },
            {
                "start_time": 4.0863636,
                "end_time": 4.3363636,
                "pitch": 60,
                "velocity": 25,
                "duration": 0.25,
                "tempo": 120.0
            },
            {
                "start_time": 4.3386364,
                "end_time": 4.5772727,
                "pitch": 62,
                "velocity": 25,
                "duration": 0.2386364,
                "tempo": 120.0
            },
            {
                "start_time": 4.5772727,
                "end_time": 4.8340909,
                "pitch": 59,
                "velocity": 25,
                "duration": 0.2568182,
                "tempo": 120.0
            },
            {
                "start_time": 4.8340909,
                "end_time": 5.0681818,
                "pitch": 55,
                "velocity": 25,
                "duration": 0.2340909,
                "tempo": 120.0
            },
            {
                "start_time": 5.0681818,
                "end_time": 5.3045455,
                "pitch": 59,
                "velocity": 25,
                "duration": 0.2363636,
                "tempo": 120.0
            },
            {
                "start_time": 5.3045455,
                "end_time": 5.5545455,
                "pitch": 65,
                "velocity": 25,
                "duration": 0.25,
                "tempo": 120.0
            },
            {
                "start_time": 5.5545455,
                "end_time": 5.7886364,
                "pitch": 59,
                "velocity": 25,
                "duration": 0.2340909,
                "tempo": 120.0
            },
            {
                "start_time": 5.7886364,
                "end_time": 6.0340909,
                "pitch": 55,
                "velocity": 25,
                "duration": 0.2454545,
                "tempo": 120.0
            },
            {
                "start_time": 6.0340909,
                "end_time": 6.2636364,
                "pitch": 59,
                "velocity": 25,
                "duration": 0.2295455,
                "tempo": 120.0
            },
            {
                "start_time": 6.2636364,
                "end_time": 6.5045455,
                "pitch": 65,
                "velocity": 25,
                "duration": 0.2409091,
                "tempo": 120.0
            },
            {
                "start_time": 6.5045455,
                "end_time": 6.7590909,
                "pitch": 60,
                "velocity": 25,
                "duration": 0.2545455,
                "tempo": 120.0
            },
            {
                "start_time": 6.7613636,
                "end_time": 6.9954545,
                "pitch": 55,
                "velocity": 25,
                "duration": 0.2340909,
                "tempo": 120.0
            },
            {
                "start_time": 6.9954545,
                "end_time": 7.2477273,
                "pitch": 60,
                "velocity": 25,
                "duration": 0.2522727,
                "tempo": 120.0
            },
            {
                "start_time": 7.2477273,
                "end_time": 7.4863636,
                "pitch": 64,
                "velocity": 25,
                "duration": 0.2386364,
                "tempo": 120.0
            },
            {
                "start_time": 7.4863636,
                "end_time": 7.7272727,
                "pitch": 60,
                "velocity": 25,
                "duration": 0.2409091,
                "tempo": 120.0
            },
            {
                "start_time": 7.7272727,
                "end_time": 7.9659091,
                "pitch": 62,
                "velocity": 25,
                "duration": 0.2386364,
                "tempo": 120.0
            },
            {
                "start_time": 7.9681818,
                "end_time": 8.1909091,
                "pitch": 59,
                "velocity": 25,
                "duration": 0.2227273,
                "tempo": 120.0
            },
            {
                "start_time": 8.1909091,
                "end_time": 8.4477273,
                "pitch": 60,
                "velocity": 25,
                "duration": 0.2568182,
                "tempo": 120.0
            },
            {
                "start_time": 8.4477273,
                "end_time": 8.6863636,
                "pitch": 57,
                "velocity": 25,
                "duration": 0.2386364,
                "tempo": 120.0
            },
            {
                "start_time": 8.6863636,
                "end_time": 8.9227273,
                "pitch": 53,
                "velocity": 25,
                "duration": 0.2363636,
                "tempo": 120.0
            },
            {
                "start_time": 8.9227273,
                "end_time": 9.175,
                "pitch": 57,
                "velocity": 25,
                "duration": 0.2522727,
                "tempo": 120.0
            },
            {
                "start_time": 9.175,
                "end_time": 9.4136364,
                "pitch": 64,
                "velocity": 25,
                "duration": 0.2386364,
                "tempo": 120.0
            },
            {
                "start_time": 9.4136364,
                "end_time": 9.6727273,
                "pitch": 57,
                "velocity": 25,
                "duration": 0.2590909,
                "tempo": 120.0
            },
            {
                "start_time": 10.1409091,
                "end_time": 10.3886364,
                "pitch": 64,
                "velocity": 25,
                "duration": 0.2477273,
                "tempo": 120.0
            },
            {
                "start_time": 10.3886364,
                "end_time": 10.6181818,
                "pitch": 57,
                "velocity": 25,
                "duration": 0.2295455,
                "tempo": 120.0
            },
            {
                "start_time": 10.6181818,
                "end_time": 10.8704545,
                "pitch": 53,
                "velocity": 25,
                "duration": 0.2522727,
                "tempo": 120.0
            },
            {
                "start_time": 10.8704545,
                "end_time": 11.1068182,
                "pitch": 57,
                "velocity": 25,
                "duration": 0.2363636,
                "tempo": 120.0
            },
            {
                "start_time": 11.1068182,
                "end_time": 11.3409091,
                "pitch": 62,
                "velocity": 25,
                "duration": 0.2340909,
                "tempo": 120.0
            },
            {
                "start_time": 11.3409091,
                "end_time": 11.5931818,
                "pitch": 57,
                "velocity": 25,
                "duration": 0.2522727,
                "tempo": 120.0
            },
            {
                "start_time": 11.5954545,
                "end_time": 11.8340909,
                "pitch": 60,
                "velocity": 25,
                "duration": 0.2386364,
                "tempo": 120.0
            },
            {
                "start_time": 11.8340909,
                "end_time": 12.0886364,
                "pitch": 57,
                "velocity": 25,
                "duration": 0.2545455,
                "tempo": 120.0
            },
            {
                "start_time": 12.0886364,
                "end_time": 12.3227273,
                "pitch": 60,
                "velocity": 25,
                "duration": 0.2340909,
                "tempo": 120.0
            },
            {
                "start_time": 12.3227273,
                "end_time": 12.5568182,
                "pitch": 57,
                "velocity": 25,
                "duration": 0.2340909,
                "tempo": 120.0
            },
            {
                "start_time": 12.5568182,
                "end_time": 12.8022727,
                "pitch": 54,
                "velocity": 25,
                "duration": 0.2454545,
                "tempo": 120.0
            },
            {
                "start_time": 12.8022727,
                "end_time": 13.0340909,
                "pitch": 57,
                "velocity": 25,
                "duration": 0.2318182,
                "tempo": 120.0
            },
            {
                "start_time": 13.0340909,
                "end_time": 13.2886364,
                "pitch": 60,
                "velocity": 25,
                "duration": 0.2545455,
                "tempo": 120.0
            },
            {
                "start_time": 13.2886364,
                "end_time": 13.5295455,
                "pitch": 57,
                "velocity": 25,
                "duration": 0.2409091,
                "tempo": 120.0
            },
            {
                "start_time": 13.5295455,
                "end_time": 13.7636364,
                "pitch": 54,
                "velocity": 25,
                "duration": 0.2340909,
                "tempo": 120.0
            },
            {
                "start_time": 13.7636364,
                "end_time": 14.0159091,
                "pitch": 57,
                "velocity": 25,
                "duration": 0.2522727,
                "tempo": 120.0
            },
            {
                "start_time": 14.0159091,
                "end_time": 14.25,
                "pitch": 62,
                "velocity": 25,
                "duration": 0.2340909,
                "tempo": 120.0
            },
            {
                "start_time": 14.25,
                "end_time": 14.5,
                "pitch": 60,
                "velocity": 25,
                "duration": 0.25,
                "tempo": 120.0
            },
            {
                "start_time": 14.5,
                "end_time": 14.7386364,
                "pitch": 55,
                "velocity": 25,
                "duration": 0.2386364,
                "tempo": 120.0
            },
            {
                "start_time": 14.7409091,
                "end_time": 14.9795455,
                "pitch": 60,
                "velocity": 25,
                "duration": 0.2386364,
                "tempo": 120.0
            },
            {
                "start_time": 14.9795455,
                "end_time": 15.225,
                "pitch": 62,
                "velocity": 25,
                "duration": 0.2454545,
                "tempo": 120.0
            },
            {
                "start_time": 15.225,
                "end_time": 15.4568182,
                "pitch": 59,
                "velocity": 25,
                "duration": 0.2318182,
                "tempo": 120.0
            },
            {
                "start_time": 15.4568182,
                "end_time": 15.7068182,
                "pitch": 55,
                "velocity": 25,
                "duration": 0.25,
                "tempo": 120.0
            },
            {
                "start_time": 15.7090909,
                "end_time": 15.9431818,
                "pitch": 59,
                "velocity": 25,
                "duration": 0.2340909,
                "tempo": 120.0
            },
            {
                "start_time": 15.9431818,
                "end_time": 16.1772727,
                "pitch": 72,
                "velocity": 25,
                "duration": 0.2340909,
                "tempo": 120.0
            },
            {
                "start_time": 16.1772727,
                "end_time": 16.4272727,
                "pitch": 67,
                "velocity": 25,
                "duration": 0.25,
                "tempo": 120.0
            },
            {
                "start_time": 16.4272727,
                "end_time": 16.6636364,
                "pitch": 64,
                "velocity": 25,
                "duration": 0.2363636,
                "tempo": 120.0
            },
            {
                "start_time": 16.6636364,
                "end_time": 16.9159091,
                "pitch": 67,
                "velocity": 25,
                "duration": 0.2522727,
                "tempo": 120.0
            },
            {
                "start_time": 16.9159091,
                "end_time": 17.1545455,
                "pitch": 72,
                "velocity": 25,
                "duration": 0.2386364,
                "tempo": 120.0
            },
            {
                "start_time": 17.1545455,
                "end_time": 17.3931818,
                "pitch": 76,
                "velocity": 25,
                "duration": 0.2386364,
                "tempo": 120.0
            },
            {
                "start_time": 17.3954545,
                "end_time": 17.6409091,
                "pitch": 72,
                "velocity": 25,
                "duration": 0.2454545,
                "tempo": 120.0
            },
            {
                "start_time": 17.6409091,
                "end_time": 17.8704545,
                "pitch": 67,
                "velocity": 25,
                "duration": 0.2295455,
                "tempo": 120.0
            },
            {
                "start_time": 17.8704545,
                "end_time": 18.1227273,
                "pitch": 76,
                "velocity": 25,
                "duration": 0.2522727,
                "tempo": 120.0
            },
            {
                "start_time": 18.1227273,
                "end_time": 18.3590909,
                "pitch": 72,
                "velocity": 25,
                "duration": 0.2363636,
                "tempo": 120.0
            },
            {
                "start_time": 18.3590909,
                "end_time": 18.5977273,
                "pitch": 69,
                "velocity": 25,
                "duration": 0.2386364,
                "tempo": 120.0
            },
            {
                "start_time": 18.5977273,
                "end_time": 18.8545455,
                "pitch": 65,
                "velocity": 25,
                "duration": 0.2568182,
                "tempo": 120.0
            },
            {
                "start_time": 18.8545455,
                "end_time": 19.0886364,
                "pitch": 69,
                "velocity": 25,
                "duration": 0.2340909,
                "tempo": 120.0
            },
            {
                "start_time": 19.0886364,
                "end_time": 19.3431818,
                "pitch": 72,
                "velocity": 25,
                "duration": 0.2545455,
                "tempo": 120.0
            },
            {
                "start_time": 19.8090909,
                "end_time": 20.0545455,
                "pitch": 74,
                "velocity": 25,
                "duration": 0.2454545,
                "tempo": 120.0
            },
            {
                "start_time": 20.0545455,
                "end_time": 20.2840909,
                "pitch": 72,
                "velocity": 25,
                "duration": 0.2295455,
                "tempo": 120.0
            },
            {
                "start_time": 20.2863636,
                "end_time": 20.5386364,
                "pitch": 69,
                "velocity": 25,
                "duration": 0.2522727,
                "tempo": 120.0
            },
            {
                "start_time": 20.5386364,
                "end_time": 20.7727273,
                "pitch": 66,
                "velocity": 25,
                "duration": 0.2340909,
                "tempo": 120.0
            },
            {
                "start_time": 20.7727273,
                "end_time": 21.0113636,
                "pitch": 69,
                "velocity": 25,
                "duration": 0.2386364,
                "tempo": 120.0
            },
            {
                "start_time": 21.0113636,
                "end_time": 21.2681818,
                "pitch": 72,
                "velocity": 25,
                "duration": 0.2568182,
                "tempo": 120.0
            },
            {
                "start_time": 21.2704545,
                "end_time": 21.5045455,
                "pitch": 74,
                "velocity": 25,
                "duration": 0.2340909,
                "tempo": 120.0
            },
            {
                "start_time": 21.5045455,
                "end_time": 21.7568182,
                "pitch": 72,
                "velocity": 25,
                "duration": 0.2522727,
                "tempo": 120.0
            },
            {
                "start_time": 21.7568182,
                "end_time": 21.9954545,
                "pitch": 72,
                "velocity": 25,
                "duration": 0.2386364,
                "tempo": 120.0
            },
            {
                "start_time": 21.9954545,
                "end_time": 22.2363636,
                "pitch": 67,
                "velocity": 25,
                "duration": 0.2409091,
                "tempo": 120.0
            },
            {
                "start_time": 22.2363636,
                "end_time": 22.4818182,
                "pitch": 62,
                "velocity": 25,
                "duration": 0.2454545,
                "tempo": 120.0
            },
            {
                "start_time": 22.4818182,
                "end_time": 22.7113636,
                "pitch": 67,
                "velocity": 25,
                "duration": 0.2295455,
                "tempo": 120.0
            },
            {
                "start_time": 22.7113636,
                "end_time": 22.9636364,
                "pitch": 71,
                "velocity": 25,
                "duration": 0.2522727,
                "tempo": 120.0
            },
            {
                "start_time": 22.9636364,
                "end_time": 23.2,
                "pitch": 67,
                "velocity": 25,
                "duration": 0.2363636,
                "tempo": 120.0
            },
            {
                "start_time": 23.2,
                "end_time": 23.4340909,
                "pitch": 62,
                "velocity": 25,
                "duration": 0.2340909,
                "tempo": 120.0
            },
            {
                "start_time": 23.4340909,
                "end_time": 23.6840909,
                "pitch": 67,
                "velocity": 25,
                "duration": 0.25,
                "tempo": 120.0
            },
            {
                "start_time": 23.6840909,
                "end_time": 23.9227273,
                "pitch": 76,
                "velocity": 25,
                "duration": 0.2386364,
                "tempo": 120.0
            },
            {
                "start_time": 23.9227273,
                "end_time": 24.1795455,
                "pitch": 72,
                "velocity": 25,
                "duration": 0.2568182,
                "tempo": 120.0
            },
            {
                "start_time": 24.1795455,
                "end_time": 24.4136364,
                "pitch": 67,
                "velocity": 25,
                "duration": 0.2340909,
                "tempo": 120.0
            },
            {
                "start_time": 24.4159091,
                "end_time": 24.65,
                "pitch": 72,
                "velocity": 25,
                "duration": 0.2340909,
                "tempo": 120.0
            },
            {
                "start_time": 24.65,
                "end_time": 24.8954545,
                "pitch": 79,
                "velocity": 25,
                "duration": 0.2454545,
                "tempo": 120.0
            },
            {
                "start_time": 24.8977273,
                "end_time": 25.1272727,
                "pitch": 72,
                "velocity": 25,
                "duration": 0.2295455,
                "tempo": 120.0
            },
            {
                "start_time": 25.1272727,
                "end_time": 25.3795455,
                "pitch": 67,
                "velocity": 25,
                "duration": 0.2522727,
                "tempo": 120.0
            },
            {
                "start_time": 25.3795455,
                "end_time": 25.6136364,
                "pitch": 72,
                "velocity": 25,
                "duration": 0.2340909,
                "tempo": 120.0
            },
            {
                "start_time": 25.6136364,
                "end_time": 25.8545455,
                "pitch": 79,
                "velocity": 25,
                "duration": 0.2409091,
                "tempo": 120.0
            },
            {
                "start_time": 25.8545455,
                "end_time": 26.1090909,
                "pitch": 72,
                "velocity": 25,
                "duration": 0.2545455,
                "tempo": 120.0
            },
            {
                "start_time": 26.1090909,
                "end_time": 26.3454545,
                "pitch": 69,
                "velocity": 25,
                "duration": 0.2363636,
                "tempo": 120.0
            },
            {
                "start_time": 26.3454545,
                "end_time": 26.5977273,
                "pitch": 72,
                "velocity": 25,
                "duration": 0.2522727,
                "tempo": 120.0
            },
            {
                "start_time": 26.5977273,
                "end_time": 26.8340909,
                "pitch": 77,
                "velocity": 25,
                "duration": 0.2363636,
                "tempo": 120.0
            },
            {
                "start_time": 26.8340909,
                "end_time": 27.0681818,
                "pitch": 72,
                "velocity": 25,
                "duration": 0.2340909,
                "tempo": 120.0
            },
            {
                "start_time": 27.0704545,
                "end_time": 27.3159091,
                "pitch": 76,
                "velocity": 25,
                "duration": 0.2454545,
                "tempo": 120.0
            },
            {
                "start_time": 27.3159091,
                "end_time": 27.5454545,
                "pitch": 72,
                "velocity": 25,
                "duration": 0.2295455,
                "tempo": 120.0
            },
            {
                "start_time": 27.5454545,
                "end_time": 27.8022727,
                "pitch": 74,
                "velocity": 25,
                "duration": 0.2568182,
                "tempo": 120.0
            },
            {
                "start_time": 27.8022727,
                "end_time": 28.0409091,
                "pitch": 71,
                "velocity": 25,
                "duration": 0.2386364,
                "tempo": 120.0
            },
            {
                "start_time": 28.0409091,
                "end_time": 28.2772727,
                "pitch": 67,
                "velocity": 25,
                "duration": 0.2363636,
                "tempo": 120.0
            },
            {
                "start_time": 28.2772727,
                "end_time": 28.5295455,
                "pitch": 71,
                "velocity": 25,
                "duration": 0.2522727,
                "tempo": 120.0
            },
            {
                "start_time": 28.5295455,
                "end_time": 28.7636364,
                "pitch": 77,
                "velocity": 25,
                "duration": 0.2340909,
                "tempo": 120.0
            },
            {
                "start_time": 28.7636364,
                "end_time": 29.0181818,
                "pitch": 71,
                "velocity": 25,
                "duration": 0.2545455,
                "tempo": 120.0
            },
            {
                "start_time": 29.4863636,
                "end_time": 29.7340909,
                "pitch": 77,
                "velocity": 25,
                "duration": 0.2477273,
                "tempo": 120.0
            },
            {
                "start_time": 29.7340909,
                "end_time": 29.9636364,
                "pitch": 72,
                "velocity": 25,
                "duration": 0.2295455,
                "tempo": 120.0
            },
            {
                "start_time": 29.9636364,
                "end_time": 30.2204545,
                "pitch": 67,
                "velocity": 25,
                "duration": 0.2568182,
                "tempo": 120.0
            },
            {
                "start_time": 30.2204545,
                "end_time": 30.4590909,
                "pitch": 72,
                "velocity": 25,
                "duration": 0.2386364,
                "tempo": 120.0
            },
            {
                "start_time": 30.4590909,
                "end_time": 30.6954545,
                "pitch": 76,
                "velocity": 25,
                "duration": 0.2363636,
                "tempo": 120.0
            },
            {
                "start_time": 30.6954545,
                "end_time": 30.9477273,
                "pitch": 72,
                "velocity": 25,
                "duration": 0.2522727,
                "tempo": 120.0
            },
            {
                "start_time": 30.9477273,
                "end_time": 31.1818182,
                "pitch": 74,
                "velocity": 25,
                "duration": 0.2340909,
                "tempo": 120.0
            },
            {
                "start_time": 31.1818182,
                "end_time": 31.4340909,
                "pitch": 71,
                "velocity": 25,
                "duration": 0.2522727,
                "tempo": 120.0
            },
            {
                "start_time": 31.4340909,
                "end_time": 31.675,
                "pitch": 72,
                "velocity": 25,
                "duration": 0.2409091,
                "tempo": 120.0
            },
            {
                "start_time": 31.675,
                "end_time": 31.9136364,
                "pitch": 69,
                "velocity": 25,
                "duration": 0.2386364,
                "tempo": 120.0
            },
            {
                "start_time": 31.9136364,
                "end_time": 32.1590909,
                "pitch": 64,
                "velocity": 25,
                "duration": 0.2454545,
                "tempo": 120.0
            },
            {
                "start_time": 32.1613636,
                "end_time": 32.3909091,
                "pitch": 69,
                "velocity": 25,
                "duration": 0.2295455,
                "tempo": 120.0
            },
            {
                "start_time": 32.3909091,
                "end_time": 32.6431818,
                "pitch": 76,
                "velocity": 25,
                "duration": 0.2522727,
                "tempo": 120.0
            },
            {
                "start_time": 32.6431818,
                "end_time": 32.8772727,
                "pitch": 69,
                "velocity": 25,
                "duration": 0.2340909,
                "tempo": 120.0
            },
            {
                "start_time": 32.8795455,
                "end_time": 33.1113636,
                "pitch": 64,
                "velocity": 25,
                "duration": 0.2318182,
                "tempo": 120.0
            },
            {
                "start_time": 33.1113636,
                "end_time": 33.3613636,
                "pitch": 69,
                "velocity": 25,
                "duration": 0.25,
                "tempo": 120.0
            },
            {
                "start_time": 33.3613636,
                "end_time": 33.6,
                "pitch": 76,
                "velocity": 25,
                "duration": 0.2386364,
                "tempo": 120.0
            },
            {
                "start_time": 33.6022727,
                "end_time": 33.8568182,
                "pitch": 69,
                "velocity": 25,
                "duration": 0.2545455,
                "tempo": 120.0
            },
            {
                "start_time": 33.8568182,
                "end_time": 34.0909091,
                "pitch": 65,
                "velocity": 25,
                "duration": 0.2340909,
                "tempo": 120.0
            },
            {
                "start_time": 34.0909091,
                "end_time": 34.325,
                "pitch": 69,
                "velocity": 25,
                "duration": 0.2340909,
                "tempo": 120.0
            },
            {
                "start_time": 34.325,
                "end_time": 34.5704545,
                "pitch": 74,
                "velocity": 25,
                "duration": 0.2454545,
                "tempo": 120.0
            },
            {
                "start_time": 34.5704545,
                "end_time": 34.8022727,
                "pitch": 69,
                "velocity": 25,
                "duration": 0.2318182,
                "tempo": 120.0
            },
            {
                "start_time": 34.8022727,
                "end_time": 35.0522727,
                "pitch": 65,
                "velocity": 25,
                "duration": 0.25,
                "tempo": 120.0
            },
            {
                "start_time": 35.0522727,
                "end_time": 35.2840909,
                "pitch": 72,
                "velocity": 25,
                "duration": 0.2318182,
                "tempo": 120.0
            },
            {
                "start_time": 35.2840909,
                "end_time": 35.525,
                "pitch": 72,
                "velocity": 25,
                "duration": 0.2409091,
                "tempo": 120.0
            },
            {
                "start_time": 35.525,
                "end_time": 35.7795455,
                "pitch": 69,
                "velocity": 25,
                "duration": 0.2545455,
                "tempo": 120.0
            },
            {
                "start_time": 35.7818182,
                "end_time": 36.0136364,
                "pitch": 66,
                "velocity": 25,
                "duration": 0.2318182,
                "tempo": 120.0
            },
            {
                "start_time": 36.0136364,
                "end_time": 36.2636364,
                "pitch": 69,
                "velocity": 25,
                "duration": 0.25,
                "tempo": 120.0
            },
            {
                "start_time": 36.2659091,
                "end_time": 36.5045455,
                "pitch": 72,
                "velocity": 25,
                "duration": 0.2386364,
                "tempo": 120.0
            },
            {
                "start_time": 36.5045455,
                "end_time": 36.7431818,
                "pitch": 69,
                "velocity": 25,
                "duration": 0.2386364,
                "tempo": 120.0
            },
            {
                "start_time": 36.7431818,
                "end_time": 36.9840909,
                "pitch": 66,
                "velocity": 25,
                "duration": 0.2409091,
                "tempo": 120.0
            },
            {
                "start_time": 36.9840909,
                "end_time": 37.2090909,
                "pitch": 72,
                "velocity": 25,
                "duration": 0.225,
                "tempo": 120.0
            },
            {
                "start_time": 37.2090909,
                "end_time": 37.4636364,
                "pitch": 72,
                "velocity": 25,
                "duration": 0.2545455,
                "tempo": 120.0
            },
            {
                "start_time": 37.4636364,
                "end_time": 37.7045455,
                "pitch": 67,
                "velocity": 25,
                "duration": 0.2409091,
                "tempo": 120.0
            },
            {
                "start_time": 37.7045455,
                "end_time": 37.9363636,
                "pitch": 62,
                "velocity": 25,
                "duration": 0.2318182,
                "tempo": 120.0
            },
            {
                "start_time": 37.9386364,
                "end_time": 38.1886364,
                "pitch": 67,
                "velocity": 25,
                "duration": 0.25,
                "tempo": 120.0
            },
            {
                "start_time": 38.1886364,
                "end_time": 38.4272727,
                "pitch": 71,
                "velocity": 25,
                "duration": 0.2386364,
                "tempo": 120.0
            },
            {
                "start_time": 38.4272727,
                "end_time": 38.6840909,
                "pitch": 67,
                "velocity": 25,
                "duration": 0.2568182,
                "tempo": 120.0
            },
            {
                "start_time": 39.15,
                "end_time": 39.3977273,
                "pitch": 72,
                "velocity": 25,
                "duration": 0.2477273,
                "tempo": 120.0
            },
            {
                "start_time": 39.3977273,
                "end_time": 39.6272727,
                "pitch": 69,
                "velocity": 25,
                "duration": 0.2295455,
                "tempo": 120.0
            },
            {
                "start_time": 39.6272727,
                "end_time": 39.8795455,
                "pitch": 64,
                "velocity": 25,
                "duration": 0.2522727,
                "tempo": 120.0
            },
            {
                "start_time": 39.8795455,
                "end_time": 40.1159091,
                "pitch": 69,
                "velocity": 25,
                "duration": 0.2363636,
                "tempo": 120.0
            },
            {
                "start_time": 40.1159091,
                "end_time": 40.3545455,
                "pitch": 72,
                "velocity": 25,
                "duration": 0.2386364,
                "tempo": 120.0
            },
            {
                "start_time": 40.3545455,
                "end_time": 40.6113636,
                "pitch": 69,
                "velocity": 25,
                "duration": 0.2568182,
                "tempo": 120.0
            },
            {
                "start_time": 40.6113636,
                "end_time": 40.8454545,
                "pitch": 71,
                "velocity": 25,
                "duration": 0.2340909,
                "tempo": 120.0
            },
            {
                "start_time": 40.8454545,
                "end_time": 41.0977273,
                "pitch": 69,
                "velocity": 25,
                "duration": 0.2522727,
                "tempo": 120.0
            },
            {
                "start_time": 41.0977273,
                "end_time": 41.3318182,
                "pitch": 72,
                "velocity": 25,
                "duration": 0.2340909,
                "tempo": 120.0
            },
            {
                "start_time": 41.3318182,
                "end_time": 41.5659091,
                "pitch": 69,
                "velocity": 25,
                "duration": 0.2340909,
                "tempo": 120.0
            },
            {
                "start_time": 41.5659091,
                "end_time": 41.8113636,
                "pitch": 64,
                "velocity": 25,
                "duration": 0.2454545,
                "tempo": 120.0
            },
            {
                "start_time": 41.8113636,
                "end_time": 42.0409091,
                "pitch": 69,
                "velocity": 25,
                "duration": 0.2295455,
                "tempo": 120.0
            },
            {
                "start_time": 42.0431818,
                "end_time": 42.2931818,
                "pitch": 72,
                "velocity": 25,
                "duration": 0.25,
                "tempo": 120.0
            },
            {
                "start_time": 42.2931818,
                "end_time": 42.5272727,
                "pitch": 69,
                "velocity": 25,
                "duration": 0.2340909,
                "tempo": 120.0
            },
            {
                "start_time": 42.5272727,
                "end_time": 42.7590909,
                "pitch": 71,
                "velocity": 25,
                "duration": 0.2318182,
                "tempo": 120.0
            },
            {
                "start_time": 42.7590909,
                "end_time": 43.0090909,
                "pitch": 69,
                "velocity": 25,
                "duration": 0.25,
                "tempo": 120.0
            },
            {
                "start_time": 43.0090909,
                "end_time": 43.25,
                "pitch": 72,
                "velocity": 25,
                "duration": 0.2409091,
                "tempo": 120.0
            },
            {
                "start_time": 43.25,
                "end_time": 43.5045455,
                "pitch": 69,
                "velocity": 25,
                "duration": 0.2545455,
                "tempo": 120.0
            },
            {
                "start_time": 43.5068182,
                "end_time": 43.7409091,
                "pitch": 66,
                "velocity": 25,
                "duration": 0.2340909,
                "tempo": 120.0
            },
            {
                "start_time": 43.7409091,
                "end_time": 43.9772727,
                "pitch": 69,
                "velocity": 25,
                "duration": 0.2363636,
                "tempo": 120.0
            },
            {
                "start_time": 43.9772727,
                "end_time": 44.2272727,
                "pitch": 74,
                "velocity": 25,
                "duration": 0.25,
                "tempo": 120.0
            },
            {
                "start_time": 44.2272727,
                "end_time": 44.4613636,
                "pitch": 69,
                "velocity": 25,
                "duration": 0.2340909,
                "tempo": 120.0
            },
            {
                "start_time": 44.4613636,
                "end_time": 44.7068182,
                "pitch": 66,
                "velocity": 25,
                "duration": 0.2454545,
                "tempo": 120.0
            },
            {
                "start_time": 44.7068182,
                "end_time": 44.9363636,
                "pitch": 69,
                "velocity": 25,
                "duration": 0.2295455,
                "tempo": 120.0
            },
            {
                "start_time": 44.9363636,
                "end_time": 45.175,
                "pitch": 72,
                "velocity": 25,
                "duration": 0.2386364,
                "tempo": 120.0
            },
            {
                "start_time": 45.1772727,
                "end_time": 45.4318182,
                "pitch": 67,
                "velocity": 25,
                "duration": 0.2545455,
                "tempo": 120.0
            },
            {
                "start_time": 45.4318182,
                "end_time": 45.6727273,
                "pitch": 62,
                "velocity": 25,
                "duration": 0.2409091,
                "tempo": 120.0
            },
            {
                "start_time": 45.6727273,
                "end_time": 45.9272727,
                "pitch": 67,
                "velocity": 25,
                "duration": 0.2545455,
                "tempo": 120.0
            },
            {
                "start_time": 45.9295455,
                "end_time": 46.1613636,
                "pitch": 71,
                "velocity": 25,
                "duration": 0.2318182,
                "tempo": 120.0
            },
            {
                "start_time": 46.1613636,
                "end_time": 46.3954545,
                "pitch": 67,
                "velocity": 25,
                "duration": 0.2340909,
                "tempo": 120.0
            },
            {
                "start_time": 46.3954545,
                "end_time": 46.6363636,
                "pitch": 62,
                "velocity": 25,
                "duration": 0.2409091,
                "tempo": 120.0
            },
            {
                "start_time": 46.6363636,
                "end_time": 46.8613636,
                "pitch": 67,
                "velocity": 25,
                "duration": 0.225,
                "tempo": 120.0
            },
            {
                "start_time": 46.8613636,
                "end_time": 47.1159091,
                "pitch": 71,
                "velocity": 25,
                "duration": 0.2545455,
                "tempo": 120.0
            },
            {
                "start_time": 47.1181818,
                "end_time": 47.3568182,
                "pitch": 68,
                "velocity": 25,
                "duration": 0.2386364,
                "tempo": 120.0
            },
            {
                "start_time": 47.3568182,
                "end_time": 47.5909091,
                "pitch": 64,
                "velocity": 25,
                "duration": 0.2340909,
                "tempo": 120.0
            },
            {
                "start_time": 47.5909091,
                "end_time": 47.8409091,
                "pitch": 68,
                "velocity": 25,
                "duration": 0.25,
                "tempo": 120.0
            },
            {
                "start_time": 47.8409091,
                "end_time": 48.0795455,
                "pitch": 71,
                "velocity": 25,
                "duration": 0.2386364,
                "tempo": 120.0
            },
            {
                "start_time": 48.0795455,
                "end_time": 48.3363636,
                "pitch": 68,
                "velocity": 25,
                "duration": 0.2568182,
                "tempo": 120.0
            },
            {
                "start_time": 48.8022727,
                "end_time": 49.05,
                "pitch": 74,
                "velocity": 25,
                "duration": 0.2477273,
                "tempo": 120.0
            },
            {
                "start_time": 49.05,
                "end_time": 49.2795455,
                "pitch": 69,
                "velocity": 25,
                "duration": 0.2295455,
                "tempo": 120.0
            },
            {
                "start_time": 49.2795455,
                "end_time": 49.5318182,
                "pitch": 64,
                "velocity": 25,
                "duration": 0.2522727,
                "tempo": 120.0
            },
            {
                "start_time": 49.5318182,
                "end_time": 49.7681818,
                "pitch": 69,
                "velocity": 25,
                "duration": 0.2363636,
                "tempo": 120.0
            },
            {
                "start_time": 49.7681818,
                "end_time": 50.0068182,
                "pitch": 72,
                "velocity": 25,
                "duration": 0.2386364,
                "tempo": 120.0
            },
            {
                "start_time": 50.0068182,
                "end_time": 50.2636364,
                "pitch": 69,
                "velocity": 25,
                "duration": 0.2568182,
                "tempo": 120.0
            },
            {
                "start_time": 50.2636364,
                "end_time": 50.4977273,
                "pitch": 64,
                "velocity": 25,
                "duration": 0.2340909,
                "tempo": 120.0
            },
            {
                "start_time": 50.4977273,
                "end_time": 50.7477273,
                "pitch": 69,
                "velocity": 25,
                "duration": 0.25,
                "tempo": 120.0
            },
            {
                "start_time": 50.7477273,
                "end_time": 50.9863636,
                "pitch": 74,
                "velocity": 25,
                "duration": 0.2386364,
                "tempo": 120.0
            },
            {
                "start_time": 50.9863636,
                "end_time": 51.225,
                "pitch": 71,
                "velocity": 25,
                "duration": 0.2386364,
                "tempo": 120.0
            },
            {
                "start_time": 51.225,
                "end_time": 51.4659091,
                "pitch": 67,
                "velocity": 25,
                "duration": 0.2409091,
                "tempo": 120.0
            },
            {
                "start_time": 51.4659091,
                "end_time": 51.6909091,
                "pitch": 71,
                "velocity": 25,
                "duration": 0.225,
                "tempo": 120.0
            },
            {
                "start_time": 51.6909091,
                "end_time": 51.9477273,
                "pitch": 74,
                "velocity": 25,
                "duration": 0.2568182,
                "tempo": 120.0
            },
            {
                "start_time": 51.9477273,
                "end_time": 52.1863636,
                "pitch": 71,
                "velocity": 25,
                "duration": 0.2386364,
                "tempo": 120.0
            },
            {
                "start_time": 52.1863636,
                "end_time": 52.4227273,
                "pitch": 77,
                "velocity": 25,
                "duration": 0.2363636,
                "tempo": 120.0
            },
            {
                "start_time": 52.4227273,
                "end_time": 52.675,
                "pitch": 74,
                "velocity": 25,
                "duration": 0.2522727,
                "tempo": 120.0
            },
            {
                "start_time": 52.675,
                "end_time": 52.9068182,
                "pitch": 77,
                "velocity": 25,
                "duration": 0.2318182,
                "tempo": 120.0
            },
            {
                "start_time": 52.9068182,
                "end_time": 53.1590909,
                "pitch": 72,
                "velocity": 25,
                "duration": 0.2522727,
                "tempo": 120.0
            },
            {
                "start_time": 53.1590909,
                "end_time": 53.3931818,
                "pitch": 67,
                "velocity": 25,
                "duration": 0.2340909,
                "tempo": 120.0
            },
            {
                "start_time": 53.3931818,
                "end_time": 53.6295455,
                "pitch": 72,
                "velocity": 25,
                "duration": 0.2363636,
                "tempo": 120.0
            },
            {
                "start_time": 53.6295455,
                "end_time": 53.875,
                "pitch": 76,
                "velocity": 25,
                "duration": 0.2454545,
                "tempo": 120.0
            },
            {
                "start_time": 53.875,
                "end_time": 54.1068182,
                "pitch": 72,
                "velocity": 25,
                "duration": 0.2318182,
                "tempo": 120.0
            },
            {
                "start_time": 54.1068182,
                "end_time": 54.3613636,
                "pitch": 67,
                "velocity": 25,
                "duration": 0.2545455,
                "tempo": 120.0
            },
            {
                "start_time": 54.3613636,
                "end_time": 54.6,
                "pitch": 72,
                "velocity": 25,
                "duration": 0.2386364,
                "tempo": 120.0
            },
            {
                "start_time": 54.6022727,
                "end_time": 54.8340909,
                "pitch": 66,
                "velocity": 25,
                "duration": 0.2318182,
                "tempo": 120.0
            },
            {
                "start_time": 54.8340909,
                "end_time": 55.0840909,
                "pitch": 62,
                "velocity": 25,
                "duration": 0.25,
                "tempo": 120.0
            },
            {
                "start_time": 55.0840909,
                "end_time": 55.3181818,
                "pitch": 57,
                "velocity": 25,
                "duration": 0.2340909,
                "tempo": 120.0
            },
            {
                "start_time": 55.3181818,
                "end_time": 55.5681818,
                "pitch": 62,
                "velocity": 25,
                "duration": 0.25,
                "tempo": 120.0
            },
            {
                "start_time": 55.5681818,
                "end_time": 55.8090909,
                "pitch": 66,
                "velocity": 25,
                "duration": 0.2409091,
                "tempo": 120.0
            },
            {
                "start_time": 55.8090909,
                "end_time": 56.0477273,
                "pitch": 62,
                "velocity": 25,
                "duration": 0.2386364,
                "tempo": 120.0
            },
            {
                "start_time": 56.0477273,
                "end_time": 56.2931818,
                "pitch": 57,
                "velocity": 25,
                "duration": 0.2454545,
                "tempo": 120.0
            },
            {
                "start_time": 56.2931818,
                "end_time": 56.5227273,
                "pitch": 62,
                "velocity": 25,
                "duration": 0.2295455,
                "tempo": 120.0
            },
            {
                "start_time": 56.525,
                "end_time": 56.7772727,
                "pitch": 67,
                "velocity": 25,
                "duration": 0.2522727,
                "tempo": 120.0
            },
            {
                "start_time": 56.7772727,
                "end_time": 57.0113636,
                "pitch": 62,
                "velocity": 25,
                "duration": 0.2340909,
                "tempo": 120.0
            },
            {
                "start_time": 57.0113636,
                "end_time": 57.2454545,
                "pitch": 60,
                "velocity": 25,
                "duration": 0.2340909,
                "tempo": 120.0
            },
            {
                "start_time": 57.2454545,
                "end_time": 57.4954545,
                "pitch": 62,
                "velocity": 25,
                "duration": 0.25,
                "tempo": 120.0
            },
            {
                "start_time": 57.4954545,
                "end_time": 57.7340909,
                "pitch": 67,
                "velocity": 25,
                "duration": 0.2386364,
                "tempo": 120.0
            },
            {
                "start_time": 57.7340909,
                "end_time": 57.9909091,
                "pitch": 62,
                "velocity": 25,
                "duration": 0.2568182,
                "tempo": 120.0
            },
            {
                "start_time": 57.9909091,
                "end_time": 58.2227273,
                "pitch": 60,
                "velocity": 25,
                "duration": 0.2318182,
                "tempo": 120.0
            },
            {
                "start_time": 58.2227273,
                "end_time": 58.4568182,
                "pitch": 57,
                "velocity": 25,
                "duration": 0.2340909,
                "tempo": 120.0
            },
            {
                "start_time": 58.4568182,
                "end_time": 59.9090909,
                "pitch": 59,
                "velocity": 25,
                "duration": 1.4522727,
                "tempo": 120.0
            }
        ],
        "Trumpet": [
            {
                "start_time": 0.0181818,
                "end_time": 0.9636364,
                "pitch": 64,
                "velocity": 64,
                "duration": 0.9454545,
                "tempo": 120.0
            },
            {
                "start_time": 0.9636364,
                "end_time": 1.9431818,
                "pitch": 67,
                "velocity": 64,
                "duration": 0.9795455,
                "tempo": 120.0
            },
            {
                "start_time": 1.9431818,
                "end_time": 2.8931818,
                "pitch": 67,
                "velocity": 64,
                "duration": 0.95,
                "tempo": 120.0
            },
            {
                "start_time": 2.8931818,
                "end_time": 3.3704545,
                "pitch": 65,
                "velocity": 64,
                "duration": 0.4772727,
                "tempo": 120.0
            },
            {
                "start_time": 3.3704545,
                "end_time": 3.8545455,
                "pitch": 64,
                "velocity": 64,
                "duration": 0.4840909,
                "tempo": 120.0
            },
            {
                "start_time": 3.8545455,
                "end_time": 4.8340909,
                "pitch": 62,
                "velocity": 64,
                "duration": 0.9795455,
                "tempo": 120.0
            },
            {
                "start_time": 4.8340909,
                "end_time": 5.7886364,
                "pitch": 65,
                "velocity": 64,
                "duration": 0.9545455,
                "tempo": 120.0
            },
            {
                "start_time": 5.7886364,
                "end_time": 6.7613636,
                "pitch": 65,
                "velocity": 64,
                "duration": 0.9727273,
                "tempo": 120.0
            },
            {
                "start_time": 6.7613636,
                "end_time": 7.25,
                "pitch": 64,
                "velocity": 64,
                "duration": 0.4886364,
                "tempo": 120.0
            },
            {
                "start_time": 7.25,
                "end_time": 7.7272727,
                "pitch": 62,
                "velocity": 64,
                "duration": 0.4772727,
                "tempo": 120.0
            },
            {
                "start_time": 7.7272727,
                "end_time": 8.6886364,
                "pitch": 60,
                "velocity": 64,
                "duration": 0.9613636,
                "tempo": 120.0
            },
            {
                "start_time": 8.6886364,
                "end_time": 9.6727273,
                "pitch": 64,
                "velocity": 64,
                "duration": 0.9840909,
                "tempo": 120.0
            },
            {
                "start_time": 9.6727273,
                "end_time": 10.6181818,
                "pitch": 64,
                "velocity": 64,
                "duration": 0.9454545,
                "tempo": 120.0
            },
            {
                "start_time": 10.6181818,
                "end_time": 11.1068182,
                "pitch": 62,
                "velocity": 64,
                "duration": 0.4886364,
                "tempo": 120.0
            },
            {
                "start_time": 11.1068182,
                "end_time": 11.5954545,
                "pitch": 60,
                "velocity": 64,
                "duration": 0.4886364,
                "tempo": 120.0
            },
            {
                "start_time": 11.5954545,
                "end_time": 12.5568182,
                "pitch": 60,
                "velocity": 64,
                "duration": 0.9613636,
                "tempo": 120.0
            },
            {
                "start_time": 12.5568182,
                "end_time": 13.2909091,
                "pitch": 60,
                "velocity": 64,
                "duration": 0.7340909,
                "tempo": 120.0
            },
            {
                "start_time": 13.2909091,
                "end_time": 13.5295455,
                "pitch": 62,
                "velocity": 64,
                "duration": 0.2386364,
                "tempo": 120.0
            },
            {
                "start_time": 13.5295455,
                "end_time": 15.4568182,
                "pitch": 62,
                "velocity": 64,
                "duration": 1.9272727,
                "tempo": 120.0
            },
            {
                "start_time": 15.4568182,
                "end_time": 16.4272727,
                "pitch": 72,
                "velocity": 64,
                "duration": 0.9704545,
                "tempo": 120.0
            },
            {
                "start_time": 16.4272727,
                "end_time": 16.9159091,
                "pitch": 72,
                "velocity": 64,
                "duration": 0.4886364,
                "tempo": 120.0
            },
            {
                "start_time": 16.9159091,
                "end_time": 17.3954545,
                "pitch": 71,
                "velocity": 64,
                "duration": 0.4795455,
                "tempo": 120.0
            },
            {
                "start_time": 17.3954545,
                "end_time": 18.3590909,
                "pitch": 72,
                "velocity": 64,
                "duration": 0.9636364,
                "tempo": 120.0
            },
            {
                "start_time": 18.3590909,
                "end_time": 18.8545455,
                "pitch": 72,
                "velocity": 64,
                "duration": 0.4954545,
                "tempo": 120.0
            },
            {
                "start_time": 18.8545455,
                "end_time": 19.3431818,
                "pitch": 71,
                "velocity": 64,
                "duration": 0.4886364,
                "tempo": 120.0
            },
            {
                "start_time": 19.3431818,
                "end_time": 20.2863636,
                "pitch": 72,
                "velocity": 64,
                "duration": 0.9431818,
                "tempo": 120.0
            },
            {
                "start_time": 20.2863636,
                "end_time": 21.2704545,
                "pitch": 74,
                "velocity": 64,
                "duration": 0.9840909,
                "tempo": 120.0
            }
        ],
        "Clarinet": [
            {
                "start_time": 23.2,
                "end_time": 24.1795455,
                "pitch": 76,
                "velocity": 80,
                "duration": 0.9795455,
                "tempo": 120.0
            },
            {
                "start_time": 24.1795455,
                "end_time": 25.1272727,
                "pitch": 79,
                "velocity": 80,
                "duration": 0.9477273,
                "tempo": 120.0
            },
            {
                "start_time": 25.1272727,
                "end_time": 26.1113636,
                "pitch": 79,
                "velocity": 80,
                "duration": 0.9840909,
                "tempo": 120.0
            },
            {
                "start_time": 26.1113636,
                "end_time": 26.5977273,
                "pitch": 77,
                "velocity": 80,
                "duration": 0.4863636,
                "tempo": 120.0
            },
            {
                "start_time": 26.5977273,
                "end_time": 27.0704545,
                "pitch": 76,
                "velocity": 80,
                "duration": 0.4727273,
                "tempo": 120.0
            },
            {
                "start_time": 27.0704545,
                "end_time": 28.0409091,
                "pitch": 74,
                "velocity": 80,
                "duration": 0.9704545,
                "tempo": 120.0
            },
            {
                "start_time": 28.0409091,
                "end_time": 29.0181818,
                "pitch": 77,
                "velocity": 80,
                "duration": 0.9772727,
                "tempo": 120.0
            },
            {
                "start_time": 29.0181818,
                "end_time": 29.9636364,
                "pitch": 77,
                "velocity": 80,
                "duration": 0.9454545,
                "tempo": 120.0
            },
            {
                "start_time": 29.9636364,
                "end_time": 30.4590909,
                "pitch": 76,
                "velocity": 80,
                "duration": 0.4954545,
                "tempo": 120.0
            },
            {
                "start_time": 30.4613636,
                "end_time": 30.9477273,
                "pitch": 74,
                "velocity": 80,
                "duration": 0.4863636,
                "tempo": 120.0
            },
            {
                "start_time": 30.9477273,
                "end_time": 31.9136364,
                "pitch": 72,
                "velocity": 80,
                "duration": 0.9659091,
                "tempo": 120.0
            },
            {
                "start_time": 31.9136364,
                "end_time": 32.8795455,
                "pitch": 76,
                "velocity": 80,
                "duration": 0.9659091,
                "tempo": 120.0
            },
            {
                "start_time": 32.8795455,
                "end_time": 33.8568182,
                "pitch": 76,
                "velocity": 80,
                "duration": 0.9772727,
                "tempo": 120.0
            },
            {
                "start_time": 33.8590909,
                "end_time": 34.325,
                "pitch": 74,
                "velocity": 80,
                "duration": 0.4659091,
                "tempo": 120.0
            },
            {
                "start_time": 34.325,
                "end_time": 34.8022727,
                "pitch": 72,
                "velocity": 80,
                "duration": 0.4772727,
                "tempo": 120.0
            },
            {
                "start_time": 34.8022727,
                "end_time": 35.7818182,
                "pitch": 72,
                "velocity": 80,
                "duration": 0.9795455,
                "tempo": 120.0
            },
            {
                "start_time": 35.7818182,
                "end_time": 36.5045455,
                "pitch": 72,
                "velocity": 80,
                "duration": 0.7227273,
                "tempo": 120.0
            },
            {
                "start_time": 36.5045455,
                "end_time": 36.7431818,
                "pitch": 74,
                "velocity": 80,
                "duration": 0.2386364,
                "tempo": 120.0
            },
            {
                "start_time": 36.7431818,
                "end_time": 38.6840909,
                "pitch": 74,
                "velocity": 80,
                "duration": 1.9409091,
                "tempo": 120.0
            },
            {
                "start_time": 38.6840909,
                "end_time": 39.6272727,
                "pitch": 72,
                "velocity": 80,
                "duration": 0.9431818,
                "tempo": 120.0
            },
            {
                "start_time": 39.6272727,
                "end_time": 40.1159091,
                "pitch": 72,
                "velocity": 80,
                "duration": 0.4886364,
                "tempo": 120.0
            },
            {
                "start_time": 40.1159091,
                "end_time": 40.1818182,
                "pitch": 72,
                "velocity": 80,
                "duration": 0.0659091,
                "tempo": 120.0
            },
            {
                "start_time": 40.1818182,
                "end_time": 40.6113636,
                "pitch": 72,
                "velocity": 80,
                "duration": 0.4295455,
                "tempo": 120.0
            },
            {
                "start_time": 40.6113636,
                "end_time": 41.5659091,
                "pitch": 72,
                "velocity": 80,
                "duration": 0.9545455,
                "tempo": 120.0
            },
            {
                "start_time": 41.5659091,
                "end_time": 42.0431818,
                "pitch": 72,
                "velocity": 80,
                "duration": 0.4772727,
                "tempo": 120.0
            },
            {
                "start_time": 42.0431818,
                "end_time": 42.1068182,
                "pitch": 72,
                "velocity": 80,
                "duration": 0.0636364,
                "tempo": 120.0
            },
            {
                "start_time": 40.1818182,
                "end_time": 42.1068182,
                "pitch": 84,
                "velocity": 80,
                "duration": 1.925,
                "tempo": 120.0
            },
            {
                "start_time": 42.1068182,
                "end_time": 42.5272727,
                "pitch": 72,
                "velocity": 80,
                "duration": 0.4204545,
                "tempo": 120.0
            },
            {
                "start_time": 42.5272727,
                "end_time": 43.5068182,
                "pitch": 72,
                "velocity": 80,
                "duration": 0.9795455,
                "tempo": 120.0
            },
            {
                "start_time": 43.5068182,
                "end_time": 44.4613636,
                "pitch": 74,
                "velocity": 80,
                "duration": 0.9545455,
                "tempo": 120.0
            },
            {
                "start_time": 44.4613636,
                "end_time": 45.4340909,
                "pitch": 72,
                "velocity": 80,
                "duration": 0.9727273,
                "tempo": 120.0
            },
            {
                "start_time": 45.4340909,
                "end_time": 46.3954545,
                "pitch": 71,
                "velocity": 80,
                "duration": 0.9613636,
                "tempo": 120.0
            },
            {
                "start_time": 46.3977273,
                "end_time": 47.3568182,
                "pitch": 71,
                "velocity": 80,
                "duration": 0.9590909,
                "tempo": 120.0
            },
            {
                "start_time": 47.3568182,
                "end_time": 48.3363636,
                "pitch": 74,
                "velocity": 80,
                "duration": 0.9795455,
                "tempo": 120.0
            },
            {
                "start_time": 48.3386364,
                "end_time": 49.2795455,
                "pitch": 74,
                "velocity": 64,
                "duration": 0.9409091,
                "tempo": 120.0
            },
            {
                "start_time": 49.2795455,
                "end_time": 50.2636364,
                "pitch": 72,
                "velocity": 64,
                "duration": 0.9840909,
                "tempo": 120.0
            },
            {
                "start_time": 50.2636364,
                "end_time": 51.225,
                "pitch": 74,
                "velocity": 64,
                "duration": 0.9613636,
                "tempo": 120.0
            },
            {
                "start_time": 51.2272727,
                "end_time": 52.1863636,
                "pitch": 77,
                "velocity": 64,
                "duration": 0.9590909,
                "tempo": 120.0
            },
            {
                "start_time": 52.1886364,
                "end_time": 53.1590909,
                "pitch": 77,
                "velocity": 64,
                "duration": 0.9704545,
                "tempo": 120.0
            },
            {
                "start_time": 53.1590909,
                "end_time": 54.1068182,
                "pitch": 76,
                "velocity": 64,
                "duration": 0.9477273,
                "tempo": 120.0
            },
            {
                "start_time": 54.1068182,
                "end_time": 55.8090909,
                "pitch": 78,
                "velocity": 64,
                "duration": 1.7022727,
                "tempo": 120.0
            },
            {
                "start_time": 55.8090909,
                "end_time": 56.0477273,
                "pitch": 79,
                "velocity": 64,
                "duration": 0.2386364,
                "tempo": 120.0
            },
            {
                "start_time": 56.0477273,
                "end_time": 59.9090909,
                "pitch": 79,
                "velocity": 64,
                "duration": 3.8613636,
                "tempo": 120.0
            }
        ]
    }
}