{
    "mood": "relaxed",
    "instruments": {
        "French Horn": [
            {
                "start_time": 55.5431818,
                "end_time": 56.2931818,
                "pitch": 40,
                "velocity": 32,
                "duration": 0.75,
                "tempo": 120.0
            },
            {
                "start_time": 56.7477273,
                "end_time": 58.7113636,
                "pitch": 40,
                "velocity": 32,
                "duration": 1.9636364,
                "tempo": 120.0
            },
            {
                "start_time": 58.7636364,
                "end_time": 59.5295455,
                "pitch": 40,
                "velocity": 32,
                "duration": 0.7659091,
                "tempo": 120.0
            },
            {
                "start_time": 59.9727273,
                "end_time": 61.9295455,
                "pitch": 40,
                "velocity": 32,
                "duration": 1.9568182,
                "tempo": 120.0
            },
            {
                "start_time": 61.9795455,
                "end_time": 62.7522727,
                "pitch": 40,
                "velocity": 32,
                "duration": 0.7727273,
                "tempo": 120.0
            },
            {
                "start_time": 63.1977273,
                "end_time": 65.1522727,
                "pitch": 40,
                "velocity": 32,
                "duration": 1.9545455,
                "tempo": 120.0
            },
            {
                "start_time": 65.2022727,
                "end_time": 65.9659091,
                "pitch": 40,
                "velocity": 32,
                "duration": 0.7636364,
                "tempo": 120.0
            },
            {
                "start_time": 66.4090909,
                "end_time": 68.3818182,
                "pitch": 40,
                "velocity": 32,
                "duration": 1.9727273,
                "tempo": 120.0
            },
            {
                "start_time": 68.4318182,
                "end_time": 69.1727273,
                "pitch": 40,
                "velocity": 32,
                "duration": 0.7409091,
                "tempo": 120.0
            },
            {
                "start_time": 69.6295455,
                "end_time": 71.5977273,
                "pitch": 40,
                "velocity": 32,
                "duration": 1.9681818,
                "tempo": 120.0
            },
            {
                "start_time": 71.65,
                "end_time": 72.4068182,
                "pitch": 40,
                "velocity": 32,
                "duration": 0.7568182,
                "tempo": 120.0
            },
            {
                "start_time": 72.8568182,
                "end_time": 74.8159091,
                "pitch": 40,
                "velocity": 32,
                "duration": 1.9590909,
                "tempo": 120.0
            },
            {
                "start_time": 74.8681818,
                "end_time": 75.6363636,
                "pitch": 40,
                "velocity": 32,
                "duration": 0.7681818,
                "tempo": 120.0
            },
            {
                "start_time": 76.0886364,
                "end_time": 78.05,
                "pitch": 40,
                "velocity": 32,
                "duration": 1.9613636,
                "tempo": 120.0
            },
            {
                "start_time": 78.1022727,
                "end_time": 78.4590909,
                "pitch": 40,
                "velocity": 32,
                "duration": 0.3568182,
                "tempo": 120.0
            },
            {
                "start_time": 78.5136364,
                "end_time": 78.8704545,
                "pitch": 50,
                "velocity": 80,
                "duration": 0.3568182,
                "tempo": 120.0
            },
            {
                "start_time": 78.5136364,
                "end_time": 79.6568182,
                "pitch": 52,
                "velocity": 80,
                "duration": 1.1431818,
                "tempo": 120.0
            },
            {
                "start_time": 78.925,
                "end_time": 79.6568182,
                "pitch": 52,
                "velocity": 80,
                "duration": 0.7318182,
                "tempo": 120.0
            },
            {
                "start_time": 81.7318182,
                "end_time": 82.0795455,
                "pitch": 55,
                "velocity": 80,
                "duration": 0.3477273,
                "tempo": 120.0
            },
            {
                "start_time": 81.7318182,
                "end_time": 84.9545455,
                "pitch": 66,
                "velocity": 80,
                "duration": 3.2227273,
                "tempo": 120.0
            },
            {
                "start_time": 84.9545455,
                "end_time": 85.3068182,
                "pitch": 57,
                "velocity": 80,
                "duration": 0.3522727,
                "tempo": 120.0
            },
            {
                "start_time": 78.925,
                "end_time": 86.5045455,
                "pitch": 50,
                "velocity": 80,
                "duration": 7.5795455,
                "tempo": 120.0
            },
            {
                "start_time": 86.1613636,
                "end_time": 86.5045455,
                "pitch": 50,
                "velocity": 80,
                "duration": 0.3431818,
                "tempo": 120.0
            },
            {
                "start_time": 88.1727273,
                "end_time": 88.5318182,
                "pitch": 55,
                "velocity": 80,
                "duration": 0.3590909,
                "tempo": 120.0
            },
            {
                "start_time": 90.1840909,
                "end_time": 90.5431818,
                "pitch": 47,
                "velocity": 80,
                "duration": 0.3590909,
                "tempo": 120.0
            },
            {
                "start_time": 91.7931818,
                "end_time": 92.15,
                "pitch": 47,
                "velocity": 80,
                "duration": 0.3568182,
                "tempo": 120.0
            },
            {
                "start_time": 94.6136364,
                "end_time": 94.9636364,
                "pitch": 55,
                "velocity": 80,
                "duration": 0.35,
                "tempo": 120.0
            },
            {
                "start_time": 84.9545455,
                "end_time": 97.8318182,
                "pitch": 66,
                "velocity": 80,
                "duration": 12.8772727,
                "tempo": 120.0
            },
            {
                "start_time": 97.8318182,
                "end_time": 98.1886364,
                "pitch": 57,
                "velocity": 80,
                "duration": 0.3568182,
                "tempo": 120.0
            },
            {
                "start_time": 86.1613636,
                "end_time": 99.0386364,
                "pitch": 19,
                "velocity": 80,
                "duration": 12.8772727,
                "tempo": 120.0
            },
            {
                "start_time": 99.0386364,
                "end_time": 99.3977273,
                "pitch": 50,
                "velocity": 80,
                "duration": 0.3590909,
                "tempo": 120.0
            },
            {
                "start_time": 88.1727273,
                "end_time": 101.0568182,
                "pitch": 65,
                "velocity": 80,
                "duration": 12.8840909,
                "tempo": 120.0
            },
            {
                "start_time": 101.0568182,
                "end_time": 101.4159091,
                "pitch": 55,
                "velocity": 80,
                "duration": 0.3590909,
                "tempo": 120.0
            },
            {
                "start_time": 90.1840909,
                "end_time": 103.0659091,
                "pitch": 54,
                "velocity": 80,
                "duration": 12.8818182,
                "tempo": 120.0
            },
            {
                "start_time": 103.0659091,
                "end_time": 103.425,
                "pitch": 47,
                "velocity": 80,
                "duration": 0.3590909,
                "tempo": 120.0
            },
            {
                "start_time": 104.675,
                "end_time": 105.0227273,
                "pitch": 47,
                "velocity": 80,
                "duration": 0.3477273,
                "tempo": 120.0
            },
            {
                "start_time": 94.6136364,
                "end_time": 107.4886364,
                "pitch": 59,
                "velocity": 80,
                "duration": 12.875,
                "tempo": 120.0
            },
            {
                "start_time": 107.4886364,
                "end_time": 107.8477273,
                "pitch": 55,
                "velocity": 80,
                "duration": 0.3590909,
                "tempo": 120.0
            },
            {
                "start_time": 97.8318182,
                "end_time": 110.7159091,
                "pitch": 66,
                "velocity": 80,
                "duration": 12.8840909,
                "tempo": 120.0
            },
            {
                "start_time": 110.7159091,
                "end_time": 111.075,
                "pitch": 57,
                "velocity": 80,
                "duration": 0.3590909,
                "tempo": 120.0
            },
            {
                "start_time": 99.0386364,
                "end_time": 111.9204545,
                "pitch": 19,
                "velocity": 80,
                "duration": 12.8818182,
                "tempo": 120.0
            },
            {
                "start_time": 111.9204545,
                "end_time": 112.2795455,
                "pitch": 50,
                "velocity": 80,
                "duration": 0.3590909,
                "tempo": 120.0
            },
            {
                "start_time": 101.0568182,
                "end_time": 113.5295455,
                "pitch": 65,
                "velocity": 80,
                "duration": 12.4727273,
                "tempo": 120.0
            },
            {
                "start_time": 113.5295455,
                "end_time": 113.8863636,
                "pitch": 55,
                "velocity": 80,
                "duration": 0.3568182,
                "tempo": 120.0
            },
            {
                "start_time": 103.0659091,
                "end_time": 114.3318182,
                "pitch": 54,
                "velocity": 80,
                "duration": 11.2659091,
                "tempo": 120.0
            },
            {
                "start_time": 114.3318182,
                "end_time": 114.6909091,
                "pitch": 50,
                "velocity": 80,
                "duration": 0.3590909,
                "tempo": 120.0
            },
            {
                "start_time": 115.1363636,
                "end_time": 115.5022727,
                "pitch": 52,
                "velocity": 80,
                "duration": 0.3659091,
                "tempo": 120.0
            },
            {
                "start_time": 115.5568182,
                "end_time": 115.9,
                "pitch": 52,
                "velocity": 80,
                "duration": 0.3431818,
                "tempo": 120.0
            },
            {
                "start_time": 110.7159091,
                "end_time": 115.95,
                "pitch": 66,
                "velocity": 80,
                "duration": 5.2340909,
                "tempo": 120.0
            },
            {
                "start_time": 115.95,
                "end_time": 116.3090909,
                "pitch": 57,
                "velocity": 80,
                "duration": 0.3590909,
                "tempo": 120.0
            }
        ],
        "Acoustic Guitar (nylon)": [
            {
                "start_time": 55.8431818,
                "end_time": 56.1931818,
                "pitch": 50,
                "velocity": 32,
                "duration": 0.35,
                "tempo": 120.0
            },
            {
                "start_time": 56.2431818,
                "end_time": 56.5954545,
                "pitch": 59,
                "velocity": 32,
                "duration": 0.3522727,
                "tempo": 120.0
            },
            {
                "start_time": 56.6454545,
                "end_time": 56.9977273,
                "pitch": 59,
                "velocity": 32,
                "duration": 0.3522727,
                "tempo": 120.0
            },
            {
                "start_time": 57.0477273,
                "end_time": 57.3977273,
                "pitch": 62,
                "velocity": 32,
                "duration": 0.35,
                "tempo": 120.0
            },
            {
                "start_time": 57.4477273,
                "end_time": 57.8045455,
                "pitch": 59,
                "velocity": 32,
                "duration": 0.3568182,
                "tempo": 120.0
            },
            {
                "start_time": 56.2431818,
                "end_time": 60.6272727,
                "pitch": 66,
                "velocity": 32,
                "duration": 4.3840909,
                "tempo": 120.0
            },
            {
                "start_time": 58.2545455,
                "end_time": 60.6272727,
                "pitch": 66,
                "velocity": 32,
                "duration": 2.3727273,
                "tempo": 120.0
            },
            {
                "start_time": 60.6772727,
                "end_time": 61.025,
                "pitch": 66,
                "velocity": 32,
                "duration": 0.3477273,
                "tempo": 120.0
            },
            {
                "start_time": 61.075,
                "end_time": 61.425,
                "pitch": 57,
                "velocity": 32,
                "duration": 0.35,
                "tempo": 120.0
            },
            {
                "start_time": 61.4772727,
                "end_time": 63.4522727,
                "pitch": 57,
                "velocity": 32,
                "duration": 1.975,
                "tempo": 120.0
            },
            {
                "start_time": 57.0477273,
                "end_time": 68.7181818,
                "pitch": 32,
                "velocity": 32,
                "duration": 11.6704545,
                "tempo": 120.0
            },
            {
                "start_time": 68.7181818,
                "end_time": 69.0704545,
                "pitch": 52,
                "velocity": 32,
                "duration": 0.3522727,
                "tempo": 120.0
            },
            {
                "start_time": 61.075,
                "end_time": 69.1227273,
                "pitch": 66,
                "velocity": 32,
                "duration": 8.0477273,
                "tempo": 120.0
            },
            {
                "start_time": 69.1204545,
                "end_time": 69.1227273,
                "pitch": 66,
                "velocity": 32,
                "duration": 0.0022727,
                "tempo": 120.0
            },
            {
                "start_time": 69.1227273,
                "end_time": 69.4772727,
                "pitch": 59,
                "velocity": 32,
                "duration": 0.3545455,
                "tempo": 120.0
            },
            {
                "start_time": 69.5272727,
                "end_time": 69.8772727,
                "pitch": 59,
                "velocity": 32,
                "duration": 0.35,
                "tempo": 120.0
            },
            {
                "start_time": 68.7181818,
                "end_time": 69.9272727,
                "pitch": 32,
                "velocity": 32,
                "duration": 1.2090909,
                "tempo": 120.0
            },
            {
                "start_time": 69.9272727,
                "end_time": 70.2795455,
                "pitch": 62,
                "velocity": 32,
                "duration": 0.3522727,
                "tempo": 120.0
            },
            {
                "start_time": 57.4477273,
                "end_time": 70.3318182,
                "pitch": 65,
                "velocity": 32,
                "duration": 12.8840909,
                "tempo": 120.0
            },
            {
                "start_time": 70.3318182,
                "end_time": 70.6840909,
                "pitch": 59,
                "velocity": 32,
                "duration": 0.3522727,
                "tempo": 120.0
            },
            {
                "start_time": 58.2545455,
                "end_time": 71.1295455,
                "pitch": 44,
                "velocity": 32,
                "duration": 12.875,
                "tempo": 120.0
            },
            {
                "start_time": 71.1295455,
                "end_time": 73.5045455,
                "pitch": 66,
                "velocity": 32,
                "duration": 2.375,
                "tempo": 120.0
            },
            {
                "start_time": 73.5545455,
                "end_time": 73.9022727,
                "pitch": 67,
                "velocity": 32,
                "duration": 0.3477273,
                "tempo": 120.0
            },
            {
                "start_time": 73.9545455,
                "end_time": 74.3045455,
                "pitch": 67,
                "velocity": 32,
                "duration": 0.35,
                "tempo": 120.0
            },
            {
                "start_time": 69.9272727,
                "end_time": 74.3568182,
                "pitch": 32,
                "velocity": 32,
                "duration": 4.4295455,
                "tempo": 120.0
            },
            {
                "start_time": 74.3568182,
                "end_time": 76.35,
                "pitch": 66,
                "velocity": 32,
                "duration": 1.9931818,
                "tempo": 120.0
            }
        ],
        "Oboe": [
            {
                "start_time": 80.0090909,
                "end_time": 80.7840909,
                "pitch": 69,
                "velocity": 40,
                "duration": 0.775,
                "tempo": 120.0
            },
            {
                "start_time": 80.8181818,
                "end_time": 80.9818182,
                "pitch": 69,
                "velocity": 40,
                "duration": 0.1636364,
                "tempo": 120.0
            },
            {
                "start_time": 81.2227273,
                "end_time": 83.2045455,
                "pitch": 66,
                "velocity": 40,
                "duration": 1.9818182,
                "tempo": 120.0
            },
            {
                "start_time": 83.2363636,
                "end_time": 84.0068182,
                "pitch": 69,
                "velocity": 40,
                "duration": 0.7704545,
                "tempo": 120.0
            },
            {
                "start_time": 84.0409091,
                "end_time": 84.2045455,
                "pitch": 69,
                "velocity": 40,
                "duration": 0.1636364,
                "tempo": 120.0
            },
            {
                "start_time": 84.4409091,
                "end_time": 86.4227273,
                "pitch": 66,
                "velocity": 40,
                "duration": 1.9818182,
                "tempo": 120.0
            },
            {
                "start_time": 86.4545455,
                "end_time": 86.8272727,
                "pitch": 64,
                "velocity": 40,
                "duration": 0.3727273,
                "tempo": 120.0
            },
            {
                "start_time": 80.0090909,
                "end_time": 86.8613636,
                "pitch": 79,
                "velocity": 40,
                "duration": 6.8522727,
                "tempo": 120.0
            },
            {
                "start_time": 86.8613636,
                "end_time": 87.2318182,
                "pitch": 67,
                "velocity": 40,
                "duration": 0.3704545,
                "tempo": 120.0
            },
            {
                "start_time": 92.8909091,
                "end_time": 93.6659091,
                "pitch": 71,
                "velocity": 40,
                "duration": 0.775,
                "tempo": 120.0
            },
            {
                "start_time": 93.7,
                "end_time": 93.8659091,
                "pitch": 69,
                "velocity": 40,
                "duration": 0.1659091,
                "tempo": 120.0
            },
            {
                "start_time": 94.1068182,
                "end_time": 96.0863636,
                "pitch": 66,
                "velocity": 40,
                "duration": 1.9795455,
                "tempo": 120.0
            },
            {
                "start_time": 83.2363636,
                "end_time": 96.1204545,
                "pitch": 78,
                "velocity": 40,
                "duration": 12.8840909,
                "tempo": 120.0
            },
            {
                "start_time": 96.1204545,
                "end_time": 96.8909091,
                "pitch": 69,
                "velocity": 40,
                "duration": 0.7704545,
                "tempo": 120.0
            },
            {
                "start_time": 96.925,
                "end_time": 97.0931818,
                "pitch": 69,
                "velocity": 40,
                "duration": 0.1681818,
                "tempo": 120.0
            },
            {
                "start_time": 97.325,
                "end_time": 98.9022727,
                "pitch": 66,
                "velocity": 40,
                "duration": 1.5772727,
                "tempo": 120.0
            },
            {
                "start_time": 98.9363636,
                "end_time": 100.5181818,
                "pitch": 64,
                "velocity": 40,
                "duration": 1.5818182,
                "tempo": 120.0
            },
            {
                "start_time": 100.5522727,
                "end_time": 103.7431818,
                "pitch": 62,
                "velocity": 40,
                "duration": 3.1909091,
                "tempo": 120.0
            },
            {
                "start_time": 105.7704545,
                "end_time": 106.5545455,
                "pitch": 81,
                "velocity": 40,
                "duration": 0.7840909,
                "tempo": 120.0
            },
            {
                "start_time": 106.5886364,
                "end_time": 106.7568182,
                "pitch": 81,
                "velocity": 40,
                "duration": 0.1681818,
                "tempo": 120.0
            },
            {
                "start_time": 96.1204545,
                "end_time": 106.9545455,
                "pitch": 78,
                "velocity": 40,
                "duration": 10.8340909,
                "tempo": 120.0
            },
            {
                "start_time": 106.7909091,
                "end_time": 106.9545455,
                "pitch": 78,
                "velocity": 40,
                "duration": 0.1636364,
                "tempo": 120.0
            },
            {
                "start_time": 106.9863636,
                "end_time": 108.9727273,
                "pitch": 78,
                "velocity": 40,
                "duration": 1.9863636,
                "tempo": 120.0
            },
            {
                "start_time": 105.7704545,
                "end_time": 109.0068182,
                "pitch": 90,
                "velocity": 40,
                "duration": 3.2363636,
                "tempo": 120.0
            },
            {
                "start_time": 109.0068182,
                "end_time": 109.7772727,
                "pitch": 81,
                "velocity": 40,
                "duration": 0.7704545,
                "tempo": 120.0
            },
            {
                "start_time": 109.8113636,
                "end_time": 109.975,
                "pitch": 81,
                "velocity": 40,
                "duration": 0.1636364,
                "tempo": 120.0
            },
            {
                "start_time": 106.7909091,
                "end_time": 110.0090909,
                "pitch": 2,
                "velocity": 40,
                "duration": 3.2181818,
                "tempo": 120.0
            },
            {
                "start_time": 110.0090909,
                "end_time": 110.1727273,
                "pitch": 78,
                "velocity": 40,
                "duration": 0.1636364,
                "tempo": 120.0
            },
            {
                "start_time": 110.2045455,
                "end_time": 111.7863636,
                "pitch": 78,
                "velocity": 40,
                "duration": 1.5818182,
                "tempo": 120.0
            },
            {
                "start_time": 111.8204545,
                "end_time": 114.2,
                "pitch": 74,
                "velocity": 40,
                "duration": 2.3795455,
                "tempo": 120.0
            },
            {
                "start_time": 114.2340909,
                "end_time": 115.0045455,
                "pitch": 69,
                "velocity": 40,
                "duration": 0.7704545,
                "tempo": 120.0
            },
            {
                "start_time": 115.0363636,
                "end_time": 115.8181818,
                "pitch": 66,
                "velocity": 40,
                "duration": 0.7818182,
                "tempo": 120.0
            },
            {
                "start_time": 115.8522727,
                "end_time": 116.6159091,
                "pitch": 62,
                "velocity": 40,
                "duration": 0.7636364,
                "tempo": 120.0
            }
        ],
        "Flute": [
            {
                "start_time": 0.6181818,
                "end_time": 0.975,
                "pitch": 78,
                "velocity": 40,
                "duration": 0.3568182,
                "tempo": 120.0
            },
            {
                "start_time": 1.025,
                "end_time": 1.375,
                "pitch": 79,
                "velocity": 40,
                "duration": 0.35,
                "tempo": 120.0
            },
            {
                "start_time": 1.425,
                "end_time": 3.375,
                "pitch": 83,
                "velocity": 40,
                "duration": 1.95,
                "tempo": 120.0
            },
            {
                "start_time": 3.8363636,
                "end_time": 4.1931818,
                "pitch": 78,
                "velocity": 40,
                "duration": 0.3568182,
                "tempo": 120.0
            },
            {
                "start_time": 1.025,
                "end_time": 4.2431818,
                "pitch": 90,
                "velocity": 40,
                "duration": 3.2181818,
                "tempo": 120.0
            },
            {
                "start_time": 1.425,
                "end_time": 4.5954545,
                "pitch": 79,
                "velocity": 40,
                "duration": 3.1704545,
                "tempo": 120.0
            },
            {
                "start_time": 4.2431818,
                "end_time": 4.5954545,
                "pitch": 79,
                "velocity": 40,
                "duration": 0.3522727,
                "tempo": 120.0
            },
            {
                "start_time": 4.6454545,
                "end_time": 4.9977273,
                "pitch": 88,
                "velocity": 40,
                "duration": 0.3522727,
                "tempo": 120.0
            },
            {
                "start_time": 5.0477273,
                "end_time": 6.5886364,
                "pitch": 86,
                "velocity": 40,
                "duration": 1.5409091,
                "tempo": 120.0
            },
            {
                "start_time": 7.0477273,
                "end_time": 7.4,
                "pitch": 78,
                "velocity": 40,
                "duration": 0.3522727,
                "tempo": 120.0
            },
            {
                "start_time": 4.2431818,
                "end_time": 7.45,
                "pitch": 90,
                "velocity": 40,
                "duration": 3.2068182,
                "tempo": 120.0
            },
            {
                "start_time": 7.45,
                "end_time": 7.8022727,
                "pitch": 79,
                "velocity": 40,
                "duration": 0.3522727,
                "tempo": 120.0
            },
            {
                "start_time": 7.8522727,
                "end_time": 8.6113636,
                "pitch": 83,
                "velocity": 40,
                "duration": 0.7590909,
                "tempo": 120.0
            },
            {
                "start_time": 8.6613636,
                "end_time": 9.4181818,
                "pitch": 83,
                "velocity": 40,
                "duration": 0.7568182,
                "tempo": 120.0
            },
            {
                "start_time": 9.4704545,
                "end_time": 10.225,
                "pitch": 78,
                "velocity": 40,
                "duration": 0.7545455,
                "tempo": 120.0
            },
            {
                "start_time": 7.45,
                "end_time": 10.275,
                "pitch": 90,
                "velocity": 40,
                "duration": 2.825,
                "tempo": 120.0
            },
            {
                "start_time": 7.8522727,
                "end_time": 10.625,
                "pitch": 79,
                "velocity": 40,
                "duration": 2.7727273,
                "tempo": 120.0
            },
            {
                "start_time": 10.275,
                "end_time": 10.625,
                "pitch": 79,
                "velocity": 40,
                "duration": 0.35,
                "tempo": 120.0
            },
            {
                "start_time": 10.6772727,
                "end_time": 13.0431818,
                "pitch": 79,
                "velocity": 40,
                "duration": 2.3659091,
                "tempo": 120.0
            },
            {
                "start_time": 10.275,
                "end_time": 13.9113636,
                "pitch": 90,
                "velocity": 40,
                "duration": 3.6363636,
                "tempo": 120.0
            },
            {
                "start_time": 13.9113636,
                "end_time": 14.2659091,
                "pitch": 79,
                "velocity": 40,
                "duration": 0.3545455,
                "tempo": 120.0
            },
            {
                "start_time": 14.3159091,
                "end_time": 16.2636364,
                "pitch": 83,
                "velocity": 40,
                "duration": 1.9477273,
                "tempo": 120.0
            },
            {
                "start_time": 3.8363636,
                "end_time": 16.7227273,
                "pitch": 56,
                "velocity": 40,
                "duration": 12.8863636,
                "tempo": 120.0
            },
            {
                "start_time": 16.7227273,
                "end_time": 17.075,
                "pitch": 78,
                "velocity": 40,
                "duration": 0.3522727,
                "tempo": 120.0
            },
            {
                "start_time": 13.9113636,
                "end_time": 17.1272727,
                "pitch": 90,
                "velocity": 40,
                "duration": 3.2159091,
                "tempo": 120.0
            },
            {
                "start_time": 14.3159091,
                "end_time": 17.4840909,
                "pitch": 79,
                "velocity": 40,
                "duration": 3.1681818,
                "tempo": 120.0
            },
            {
                "start_time": 17.1272727,
                "end_time": 17.4840909,
                "pitch": 79,
                "velocity": 40,
                "duration": 0.3568182,
                "tempo": 120.0
            },
            {
                "start_time": 4.6454545,
                "end_time": 17.5363636,
                "pitch": 7,
                "velocity": 40,
                "duration": 12.8909091,
                "tempo": 120.0
            },
            {
                "start_time": 5.0477273,
                "end_time": 17.8886364,
                "pitch": 88,
                "velocity": 40,
                "duration": 12.8409091,
                "tempo": 120.0
            },
            {
                "start_time": 17.5363636,
                "end_time": 17.8886364,
                "pitch": 88,
                "velocity": 40,
                "duration": 0.3522727,
                "tempo": 120.0
            },
            {
                "start_time": 17.9386364,
                "end_time": 19.475,
                "pitch": 86,
                "velocity": 40,
                "duration": 1.5363636,
                "tempo": 120.0
            },
            {
                "start_time": 7.0477273,
                "end_time": 19.9318182,
                "pitch": 74,
                "velocity": 40,
                "duration": 12.8840909,
                "tempo": 120.0
            },
            {
                "start_time": 19.9318182,
                "end_time": 20.2886364,
                "pitch": 78,
                "velocity": 40,
                "duration": 0.3568182,
                "tempo": 120.0
            },
            {
                "start_time": 17.1272727,
                "end_time": 20.3386364,
                "pitch": 90,
                "velocity": 40,
                "duration": 3.2113636,
                "tempo": 120.0
            },
            {
                "start_time": 20.3386364,
                "end_time": 20.6909091,
                "pitch": 79,
                "velocity": 40,
                "duration": 0.3522727,
                "tempo": 120.0
            },
            {
                "start_time": 20.7409091,
                "end_time": 21.4931818,
                "pitch": 83,
                "velocity": 40,
                "duration": 0.7522727,
                "tempo": 120.0
            },
            {
                "start_time": 21.5454545,
                "end_time": 22.3022727,
                "pitch": 83,
                "velocity": 40,
                "duration": 0.7568182,
                "tempo": 120.0
            },
            {
                "start_time": 9.4704545,
                "end_time": 22.3522727,
                "pitch": 43,
                "velocity": 40,
                "duration": 12.8818182,
                "tempo": 120.0
            },
            {
                "start_time": 22.3522727,
                "end_time": 23.1068182,
                "pitch": 78,
                "velocity": 40,
                "duration": 0.7545455,
                "tempo": 120.0
            },
            {
                "start_time": 20.3386364,
                "end_time": 23.1568182,
                "pitch": 90,
                "velocity": 40,
                "duration": 2.8181818,
                "tempo": 120.0
            },
            {
                "start_time": 20.7409091,
                "end_time": 23.5022727,
                "pitch": 79,
                "velocity": 40,
                "duration": 2.7613636,
                "tempo": 120.0
            },
            {
                "start_time": 23.1568182,
                "end_time": 23.5022727,
                "pitch": 79,
                "velocity": 40,
                "duration": 0.3454545,
                "tempo": 120.0
            },
            {
                "start_time": 23.5522727,
                "end_time": 24.3113636,
                "pitch": 83,
                "velocity": 40,
                "duration": 0.7590909,
                "tempo": 120.0
            },
            {
                "start_time": 24.3613636,
                "end_time": 25.1159091,
                "pitch": 83,
                "velocity": 40,
                "duration": 0.7545455,
                "tempo": 120.0
            },
            {
                "start_time": 22.3522727,
                "end_time": 25.1659091,
                "pitch": 43,
                "velocity": 40,
                "duration": 2.8136364,
                "tempo": 120.0
            },
            {
                "start_time": 25.1659091,
                "end_time": 28.8931818,
                "pitch": 78,
                "velocity": 40,
                "duration": 3.7272727,
                "tempo": 120.0
            },
            {
                "start_time": 19.9318182,
                "end_time": 29.0681818,
                "pitch": 74,
                "velocity": 40,
                "duration": 9.1363636,
                "tempo": 120.0
            },
            {
                "start_time": 28.8931818,
                "end_time": 29.0681818,
                "pitch": 74,
                "velocity": 40,
                "duration": 0.175,
                "tempo": 120.0
            },
            {
                "start_time": 23.5522727,
                "end_time": 30.3590909,
                "pitch": 79,
                "velocity": 40,
                "duration": 6.8068182,
                "tempo": 120.0
            },
            {
                "start_time": 30.2113636,
                "end_time": 30.3590909,
                "pitch": 79,
                "velocity": 80,
                "duration": 0.1477273,
                "tempo": 120.0
            },
            {
                "start_time": 23.1568182,
                "end_time": 33.4409091,
                "pitch": 90,
                "velocity": 40,
                "duration": 10.2840909,
                "tempo": 120.0
            },
            {
                "start_time": 33.4409091,
                "end_time": 33.5863636,
                "pitch": 81,
                "velocity": 80,
                "duration": 0.1454545,
                "tempo": 120.0
            },
            {
                "start_time": 25.1659091,
                "end_time": 34.6386364,
                "pitch": 43,
                "velocity": 40,
                "duration": 9.4727273,
                "tempo": 120.0
            },
            {
                "start_time": 34.6386364,
                "end_time": 34.7863636,
                "pitch": 74,
                "velocity": 80,
                "duration": 0.1477273,
                "tempo": 120.0
            },
            {
                "start_time": 30.2113636,
                "end_time": 36.6568182,
                "pitch": 89,
                "velocity": 80,
                "duration": 6.4454545,
                "tempo": 120.0
            },
            {
                "start_time": 36.6568182,
                "end_time": 36.8045455,
                "pitch": 79,
                "velocity": 80,
                "duration": 0.1477273,
                "tempo": 120.0
            },
            {
                "start_time": 33.4409091,
                "end_time": 38.6454545,
                "pitch": 90,
                "velocity": 80,
                "duration": 5.2045455,
                "tempo": 120.0
            },
            {
                "start_time": 38.6454545,
                "end_time": 38.8,
                "pitch": 81,
                "velocity": 80,
                "duration": 0.1545455,
                "tempo": 120.0
            },
            {
                "start_time": 34.6386364,
                "end_time": 40.2522727,
                "pitch": 43,
                "velocity": 80,
                "duration": 5.6136364,
                "tempo": 120.0
            },
            {
                "start_time": 40.2522727,
                "end_time": 40.4,
                "pitch": 74,
                "velocity": 80,
                "duration": 0.1477273,
                "tempo": 120.0
            },
            {
                "start_time": 36.6568182,
                "end_time": 43.0818182,
                "pitch": 89,
                "velocity": 80,
                "duration": 6.425,
                "tempo": 120.0
            },
            {
                "start_time": 43.0818182,
                "end_time": 43.2295455,
                "pitch": 79,
                "velocity": 80,
                "duration": 0.1477273,
                "tempo": 120.0
            },
            {
                "start_time": 38.6454545,
                "end_time": 46.3159091,
                "pitch": 90,
                "velocity": 80,
                "duration": 7.6704545,
                "tempo": 120.0
            },
            {
                "start_time": 46.3159091,
                "end_time": 46.4613636,
                "pitch": 81,
                "velocity": 80,
                "duration": 0.1454545,
                "tempo": 120.0
            },
            {
                "start_time": 40.2522727,
                "end_time": 47.5022727,
                "pitch": 43,
                "velocity": 80,
                "duration": 7.25,
                "tempo": 120.0
            },
            {
                "start_time": 47.5022727,
                "end_time": 47.6545455,
                "pitch": 74,
                "velocity": 80,
                "duration": 0.1522727,
                "tempo": 120.0
            },
            {
                "start_time": 43.0818182,
                "end_time": 49.5113636,
                "pitch": 89,
                "velocity": 80,
                "duration": 6.4295455,
                "tempo": 120.0
            },
            {
                "start_time": 49.5113636,
                "end_time": 49.6613636,
                "pitch": 79,
                "velocity": 80,
                "duration": 0.15,
                "tempo": 120.0
            },
            {
                "start_time": 46.3159091,
                "end_time": 51.5272727,
                "pitch": 90,
                "velocity": 80,
                "duration": 5.2113636,
                "tempo": 120.0
            },
            {
                "start_time": 51.5272727,
                "end_time": 51.675,
                "pitch": 81,
                "velocity": 80,
                "duration": 0.1477273,
                "tempo": 120.0
            },
            {
                "start_time": 47.5022727,
                "end_time": 53.1227273,
                "pitch": 43,
                "velocity": 80,
                "duration": 5.6204545,
                "tempo": 120.0
            },
            {
                "start_time": 53.1227273,
                "end_time": 55.0818182,
                "pitch": 74,
                "velocity": 80,
                "duration": 1.9590909,
                "tempo": 120.0
            }
        ],
        "Trumpet": [
            {
                "start_time": 0.2068182,
                "end_time": 1.7613636,
                "pitch": 59,
                "velocity": 32,
                "duration": 1.5545455,
                "tempo": 120.0
            },
            {
                "start_time": 2.2295455,
                "end_time": 2.5522727,
                "pitch": 62,
                "velocity": 32,
                "duration": 0.3227273,
                "tempo": 120.0
            },
            {
                "start_time": 2.6204545,
                "end_time": 2.9522727,
                "pitch": 62,
                "velocity": 32,
                "duration": 0.3318182,
                "tempo": 120.0
            },
            {
                "start_time": 3.0204545,
                "end_time": 4.9795455,
                "pitch": 67,
                "velocity": 32,
                "duration": 1.9590909,
                "tempo": 120.0
            },
            {
                "start_time": 5.8318182,
                "end_time": 6.1659091,
                "pitch": 62,
                "velocity": 32,
                "duration": 0.3340909,
                "tempo": 120.0
            },
            {
                "start_time": 3.0204545,
                "end_time": 6.2340909,
                "pitch": 78,
                "velocity": 32,
                "duration": 3.2136364,
                "tempo": 120.0
            },
            {
                "start_time": 6.2340909,
                "end_time": 6.5704545,
                "pitch": 71,
                "velocity": 32,
                "duration": 0.3363636,
                "tempo": 120.0
            },
            {
                "start_time": 6.6386364,
                "end_time": 6.9795455,
                "pitch": 71,
                "velocity": 32,
                "duration": 0.3409091,
                "tempo": 120.0
            },
            {
                "start_time": 7.0477273,
                "end_time": 7.3818182,
                "pitch": 62,
                "velocity": 32,
                "duration": 0.3340909,
                "tempo": 120.0
            },
            {
                "start_time": 7.45,
                "end_time": 7.7863636,
                "pitch": 62,
                "velocity": 32,
                "duration": 0.3363636,
                "tempo": 120.0
            },
            {
                "start_time": 6.2340909,
                "end_time": 7.8522727,
                "pitch": 78,
                "velocity": 32,
                "duration": 1.6181818,
                "tempo": 120.0
            },
            {
                "start_time": 7.8522727,
                "end_time": 8.5954545,
                "pitch": 67,
                "velocity": 32,
                "duration": 0.7431818,
                "tempo": 120.0
            },
            {
                "start_time": 9.4681818,
                "end_time": 9.4704545,
                "pitch": 66,
                "velocity": 32,
                "duration": 0.0022727,
                "tempo": 120.0
            },
            {
                "start_time": 9.4704545,
                "end_time": 10.2068182,
                "pitch": 62,
                "velocity": 32,
                "duration": 0.7363636,
                "tempo": 120.0
            },
            {
                "start_time": 10.275,
                "end_time": 10.6090909,
                "pitch": 62,
                "velocity": 32,
                "duration": 0.3340909,
                "tempo": 120.0
            },
            {
                "start_time": 10.6772727,
                "end_time": 11.0090909,
                "pitch": 64,
                "velocity": 32,
                "duration": 0.3318182,
                "tempo": 120.0
            },
            {
                "start_time": 7.8522727,
                "end_time": 11.075,
                "pitch": 78,
                "velocity": 32,
                "duration": 3.2227273,
                "tempo": 120.0
            },
            {
                "start_time": 11.075,
                "end_time": 11.4045455,
                "pitch": 67,
                "velocity": 32,
                "duration": 0.3295455,
                "tempo": 120.0
            },
            {
                "start_time": 11.875,
                "end_time": 12.6227273,
                "pitch": 62,
                "velocity": 32,
                "duration": 0.7477273,
                "tempo": 120.0
            },
            {
                "start_time": 12.6909091,
                "end_time": 13.025,
                "pitch": 57,
                "velocity": 32,
                "duration": 0.3340909,
                "tempo": 120.0
            },
            {
                "start_time": 13.0931818,
                "end_time": 14.6431818,
                "pitch": 57,
                "velocity": 32,
                "duration": 1.55,
                "tempo": 120.0
            },
            {
                "start_time": 2.2295455,
                "end_time": 15.1090909,
                "pitch": 44,
                "velocity": 32,
                "duration": 12.8795455,
                "tempo": 120.0
            },
            {
                "start_time": 15.1090909,
                "end_time": 15.4386364,
                "pitch": 62,
                "velocity": 32,
                "duration": 0.3295455,
                "tempo": 120.0
            },
            {
                "start_time": 15.5068182,
                "end_time": 15.8409091,
                "pitch": 62,
                "velocity": 32,
                "duration": 0.3340909,
                "tempo": 120.0
            },
            {
                "start_time": 11.075,
                "end_time": 15.9090909,
                "pitch": 78,
                "velocity": 32,
                "duration": 4.8340909,
                "tempo": 120.0
            },
            {
                "start_time": 15.9090909,
                "end_time": 17.8704545,
                "pitch": 67,
                "velocity": 32,
                "duration": 1.9613636,
                "tempo": 120.0
            },
            {
                "start_time": 18.7227273,
                "end_time": 19.0568182,
                "pitch": 62,
                "velocity": 32,
                "duration": 0.3340909,
                "tempo": 120.0
            },
            {
                "start_time": 15.9090909,
                "end_time": 19.125,
                "pitch": 78,
                "velocity": 32,
                "duration": 3.2159091,
                "tempo": 120.0
            },
            {
                "start_time": 19.125,
                "end_time": 19.4590909,
                "pitch": 71,
                "velocity": 32,
                "duration": 0.3340909,
                "tempo": 120.0
            },
            {
                "start_time": 19.525,
                "end_time": 19.8613636,
                "pitch": 71,
                "velocity": 32,
                "duration": 0.3363636,
                "tempo": 120.0
            },
            {
                "start_time": 7.0477273,
                "end_time": 19.9295455,
                "pitch": 32,
                "velocity": 32,
                "duration": 12.8818182,
                "tempo": 120.0
            },
            {
                "start_time": 19.9295455,
                "end_time": 20.2704545,
                "pitch": 62,
                "velocity": 32,
                "duration": 0.3409091,
                "tempo": 120.0
            },
            {
                "start_time": 20.3386364,
                "end_time": 20.6727273,
                "pitch": 62,
                "velocity": 32,
                "duration": 0.3340909,
                "tempo": 120.0
            },
            {
                "start_time": 19.125,
                "end_time": 20.7409091,
                "pitch": 78,
                "velocity": 32,
                "duration": 1.6159091,
                "tempo": 120.0
            },
            {
                "start_time": 20.7409091,
                "end_time": 21.4772727,
                "pitch": 67,
                "velocity": 32,
                "duration": 0.7363636,
                "tempo": 120.0
            },
            {
                "start_time": 11.875,
                "end_time": 22.3522727,
                "pitch": 66,
                "velocity": 32,
                "duration": 10.4772727,
                "tempo": 120.0
            },
            {
                "start_time": 22.3522727,
                "end_time": 23.0909091,
                "pitch": 62,
                "velocity": 32,
                "duration": 0.7386364,
                "tempo": 120.0
            },
            {
                "start_time": 23.1568182,
                "end_time": 23.4840909,
                "pitch": 62,
                "velocity": 32,
                "duration": 0.3272727,
                "tempo": 120.0
            },
            {
                "start_time": 20.7409091,
                "end_time": 23.5522727,
                "pitch": 78,
                "velocity": 32,
                "duration": 2.8113636,
                "tempo": 120.0
            },
            {
                "start_time": 23.5522727,
                "end_time": 24.2954545,
                "pitch": 67,
                "velocity": 32,
                "duration": 0.7431818,
                "tempo": 120.0
            },
            {
                "start_time": 22.3522727,
                "end_time": 25.1636364,
                "pitch": 66,
                "velocity": 32,
                "duration": 2.8113636,
                "tempo": 120.0
            },
            {
                "start_time": 25.1636364,
                "end_time": 25.4954545,
                "pitch": 62,
                "velocity": 32,
                "duration": 0.3318182,
                "tempo": 120.0
            },
            {
                "start_time": 25.5659091,
                "end_time": 25.9022727,
                "pitch": 62,
                "velocity": 32,
                "duration": 0.3363636,
                "tempo": 120.0
            },
            {
                "start_time": 23.5522727,
                "end_time": 25.9681818,
                "pitch": 78,
                "velocity": 32,
                "duration": 2.4159091,
                "tempo": 120.0
            },
            {
                "start_time": 25.9681818,
                "end_time": 26.7068182,
                "pitch": 69,
                "velocity": 32,
                "duration": 0.7386364,
                "tempo": 120.0
            },
            {
                "start_time": 19.9295455,
                "end_time": 26.7727273,
                "pitch": 32,
                "velocity": 32,
                "duration": 6.8431818,
                "tempo": 120.0
            },
            {
                "start_time": 25.1636364,
                "end_time": 27.5022727,
                "pitch": 66,
                "velocity": 32,
                "duration": 2.3386364,
                "tempo": 120.0
            },
            {
                "start_time": 26.7727273,
                "end_time": 27.5022727,
                "pitch": 66,
                "velocity": 32,
                "duration": 0.7295455,
                "tempo": 120.0
            },
            {
                "start_time": 27.5727273,
                "end_time": 29.0477273,
                "pitch": 62,
                "velocity": 32,
                "duration": 1.475,
                "tempo": 120.0
            },
            {
                "start_time": 30.3090909,
                "end_time": 30.4409091,
                "pitch": 67,
                "velocity": 32,
                "duration": 0.1318182,
                "tempo": 120.0
            },
            {
                "start_time": 33.5386364,
                "end_time": 33.6681818,
                "pitch": 69,
                "velocity": 32,
                "duration": 0.1295455,
                "tempo": 120.0
            },
            {
                "start_time": 26.7727273,
                "end_time": 34.7363636,
                "pitch": 32,
                "velocity": 32,
                "duration": 7.9636364,
                "tempo": 120.0
            },
            {
                "start_time": 34.7363636,
                "end_time": 34.8704545,
                "pitch": 62,
                "velocity": 32,
                "duration": 0.1340909,
                "tempo": 120.0
            },
            {
                "start_time": 30.3090909,
                "end_time": 36.7545455,
                "pitch": 77,
                "velocity": 32,
                "duration": 6.4454545,
                "tempo": 120.0
            },
            {
                "start_time": 36.7545455,
                "end_time": 36.8840909,
                "pitch": 67,
                "velocity": 32,
                "duration": 0.1295455,
                "tempo": 120.0
            },
            {
                "start_time": 33.5386364,
                "end_time": 38.7477273,
                "pitch": 79,
                "velocity": 32,
                "duration": 5.2090909,
                "tempo": 120.0
            },
            {
                "start_time": 38.7477273,
                "end_time": 38.8886364,
                "pitch": 69,
                "velocity": 32,
                "duration": 0.1409091,
                "tempo": 120.0
            },
            {
                "start_time": 34.7363636,
                "end_time": 40.35,
                "pitch": 32,
                "velocity": 32,
                "duration": 5.6136364,
                "tempo": 120.0
            },
            {
                "start_time": 40.35,
                "end_time": 40.4840909,
                "pitch": 62,
                "velocity": 32,
                "duration": 0.1340909,
                "tempo": 120.0
            },
            {
                "start_time": 36.7545455,
                "end_time": 43.0818182,
                "pitch": 77,
                "velocity": 32,
                "duration": 6.3272727,
                "tempo": 120.0
            },
            {
                "start_time": 43.0818182,
                "end_time": 43.2136364,
                "pitch": 71,
                "velocity": 51,
                "duration": 0.1318182,
                "tempo": 120.0
            },
            {
                "start_time": 44.3045455,
                "end_time": 44.4318182,
                "pitch": 71,
                "velocity": 51,
                "duration": 0.1272727,
                "tempo": 120.0
            },
            {
                "start_time": 15.1090909,
                "end_time": 46.3159091,
                "pitch": 44,
                "velocity": 32,
                "duration": 31.2068182,
                "tempo": 120.0
            },
            {
                "start_time": 46.3159091,
                "end_time": 46.4454545,
                "pitch": 74,
                "velocity": 51,
                "duration": 0.1295455,
                "tempo": 120.0
            },
            {
                "start_time": 43.0818182,
                "end_time": 47.5,
                "pitch": 77,
                "velocity": 51,
                "duration": 4.4181818,
                "tempo": 120.0
            },
            {
                "start_time": 47.5,
                "end_time": 47.6363636,
                "pitch": 69,
                "velocity": 51,
                "duration": 0.1363636,
                "tempo": 120.0
            },
            {
                "start_time": 49.5090909,
                "end_time": 49.6454545,
                "pitch": 69,
                "velocity": 51,
                "duration": 0.1363636,
                "tempo": 120.0
            },
            {
                "start_time": 50.7318182,
                "end_time": 50.8636364,
                "pitch": 71,
                "velocity": 51,
                "duration": 0.1318182,
                "tempo": 120.0
            },
            {
                "start_time": 46.3159091,
                "end_time": 51.5272727,
                "pitch": 44,
                "velocity": 51,
                "duration": 5.2113636,
                "tempo": 120.0
            },
            {
                "start_time": 51.5272727,
                "end_time": 51.6590909,
                "pitch": 74,
                "velocity": 51,
                "duration": 0.1318182,
                "tempo": 120.0
            },
            {
                "start_time": 12.6909091,
                "end_time": 53.1227273,
                "pitch": 65,
                "velocity": 32,
                "duration": 40.4318182,
                "tempo": 120.0
            },
            {
                "start_time": 53.1227273,
                "end_time": 55.0636364,
                "pitch": 57,
                "velocity": 51,
                "duration": 1.9409091,
                "tempo": 120.0
            }
        ],
        "Vibraphone": [
            {
                "start_time": 29.3590909,
                "end_time": 29.5590909,
                "pitch": 42,
                "velocity": 80,
                "duration": 0.2,
                "tempo": 120.0
            },
            {
                "start_time": 29.5590909,
                "end_time": 30.9727273,
                "pitch": 40,
                "velocity": 80,
                "duration": 1.4136364,
                "tempo": 120.0
            },
            {
                "start_time": 31.4295455,
                "end_time": 32.9840909,
                "pitch": 35,
                "velocity": 80,
                "duration": 1.5545455,
                "tempo": 120.0
            },
            {
                "start_time": 33.8340909,
                "end_time": 35.3818182,
                "pitch": 40,
                "velocity": 80,
                "duration": 1.5477273,
                "tempo": 120.0
            },
            {
                "start_time": 31.4295455,
                "end_time": 35.8318182,
                "pitch": 42,
                "velocity": 80,
                "duration": 4.4022727,
                "tempo": 120.0
            },
            {
                "start_time": 35.8318182,
                "end_time": 37.4090909,
                "pitch": 35,
                "velocity": 80,
                "duration": 1.5772727,
                "tempo": 120.0
            },
            {
                "start_time": 33.8340909,
                "end_time": 38.2613636,
                "pitch": 21,
                "velocity": 80,
                "duration": 4.4272727,
                "tempo": 120.0
            },
            {
                "start_time": 38.2613636,
                "end_time": 39.8181818,
                "pitch": 40,
                "velocity": 80,
                "duration": 1.5568182,
                "tempo": 120.0
            },
            {
                "start_time": 35.8318182,
                "end_time": 40.2522727,
                "pitch": 42,
                "velocity": 80,
                "duration": 4.4204545,
                "tempo": 120.0
            },
            {
                "start_time": 40.2522727,
                "end_time": 41.8136364,
                "pitch": 35,
                "velocity": 80,
                "duration": 1.5613636,
                "tempo": 120.0
            },
            {
                "start_time": 38.2613636,
                "end_time": 42.6954545,
                "pitch": 21,
                "velocity": 80,
                "duration": 4.4340909,
                "tempo": 120.0
            },
            {
                "start_time": 42.6954545,
                "end_time": 44.2545455,
                "pitch": 40,
                "velocity": 80,
                "duration": 1.5590909,
                "tempo": 120.0
            },
            {
                "start_time": 40.2522727,
                "end_time": 44.6863636,
                "pitch": 42,
                "velocity": 80,
                "duration": 4.4340909,
                "tempo": 120.0
            },
            {
                "start_time": 44.6863636,
                "end_time": 46.2636364,
                "pitch": 35,
                "velocity": 80,
                "duration": 1.5772727,
                "tempo": 120.0
            },
            {
                "start_time": 42.6954545,
                "end_time": 47.1181818,
                "pitch": 21,
                "velocity": 80,
                "duration": 4.4227273,
                "tempo": 120.0
            },
            {
                "start_time": 47.1181818,
                "end_time": 48.6545455,
                "pitch": 40,
                "velocity": 80,
                "duration": 1.5363636,
                "tempo": 120.0
            },
            {
                "start_time": 44.6863636,
                "end_time": 49.125,
                "pitch": 42,
                "velocity": 80,
                "duration": 4.4386364,
                "tempo": 120.0
            },
            {
                "start_time": 49.125,
                "end_time": 50.6818182,
                "pitch": 35,
                "velocity": 80,
                "duration": 1.5568182,
                "tempo": 120.0
            },
            {
                "start_time": 47.1181818,
                "end_time": 51.5272727,
                "pitch": 21,
                "velocity": 80,
                "duration": 4.4090909,
                "tempo": 120.0
            },
            {
                "start_time": 51.5272727,
                "end_time": 53.0727273,
                "pitch": 40,
                "velocity": 80,
                "duration": 1.5454545,
                "tempo": 120.0
            },
            {
                "start_time": 53.5409091,
                "end_time": 55.0818182,
                "pitch": 38,
                "velocity": 80,
                "duration": 1.5409091,
                "tempo": 120.0
            }
        ],
        "Acoustic Grand Piano": [
            {
                "start_time": 0.0113636,
                "end_time": 2.3727273,
                "pitch": 47,
                "velocity": 25,
                "duration": 2.3613636,
                "tempo": 120.0
            },
            {
                "start_time": 3.2227273,
                "end_time": 5.5840909,
                "pitch": 47,
                "velocity": 25,
                "duration": 2.3613636,
                "tempo": 120.0
            },
            {
                "start_time": 6.4363636,
                "end_time": 8.8068182,
                "pitch": 47,
                "velocity": 25,
                "duration": 2.3704545,
                "tempo": 120.0
            },
            {
                "start_time": 9.6727273,
                "end_time": 12.0272727,
                "pitch": 47,
                "velocity": 25,
                "duration": 2.3545455,
                "tempo": 120.0
            },
            {
                "start_time": 12.8954545,
                "end_time": 15.2568182,
                "pitch": 47,
                "velocity": 25,
                "duration": 2.3613636,
                "tempo": 120.0
            },
            {
                "start_time": 16.1136364,
                "end_time": 18.475,
                "pitch": 47,
                "velocity": 25,
                "duration": 2.3613636,
                "tempo": 120.0
            },
            {
                "start_time": 19.3272727,
                "end_time": 21.6931818,
                "pitch": 47,
                "velocity": 25,
                "duration": 2.3659091,
                "tempo": 120.0
            },
            {
                "start_time": 22.55,
                "end_time": 24.1113636,
                "pitch": 47,
                "velocity": 25,
                "duration": 1.5613636,
                "tempo": 120.0
            },
            {
                "start_time": 25.7727273,
                "end_time": 27.3113636,
                "pitch": 45,
                "velocity": 25,
                "duration": 1.5386364,
                "tempo": 120.0
            },
            {
                "start_time": 55.1386364,
                "end_time": 55.8931818,
                "pitch": 59,
                "velocity": 25,
                "duration": 0.7545455,
                "tempo": 120.0
            },
            {
                "start_time": 56.3454545,
                "end_time": 57.9090909,
                "pitch": 59,
                "velocity": 25,
                "duration": 1.5636364,
                "tempo": 120.0
            },
            {
                "start_time": 58.3545455,
                "end_time": 59.1318182,
                "pitch": 59,
                "velocity": 25,
                "duration": 0.7772727,
                "tempo": 120.0
            },
            {
                "start_time": 59.5818182,
                "end_time": 61.1272727,
                "pitch": 59,
                "velocity": 25,
                "duration": 1.5454545,
                "tempo": 120.0
            },
            {
                "start_time": 61.5795455,
                "end_time": 62.3409091,
                "pitch": 59,
                "velocity": 25,
                "duration": 0.7613636,
                "tempo": 120.0
            },
            {
                "start_time": 62.8045455,
                "end_time": 64.3590909,
                "pitch": 59,
                "velocity": 25,
                "duration": 1.5545455,
                "tempo": 120.0
            },
            {
                "start_time": 64.8113636,
                "end_time": 65.5613636,
                "pitch": 59,
                "velocity": 25,
                "duration": 0.75,
                "tempo": 120.0
            },
            {
                "start_time": 66.0181818,
                "end_time": 67.5590909,
                "pitch": 59,
                "velocity": 25,
                "duration": 1.5409091,
                "tempo": 120.0
            },
            {
                "start_time": 68.0295455,
                "end_time": 68.7659091,
                "pitch": 59,
                "velocity": 25,
                "duration": 0.7363636,
                "tempo": 120.0
            },
            {
                "start_time": 69.2272727,
                "end_time": 70.7840909,
                "pitch": 59,
                "velocity": 25,
                "duration": 1.5568182,
                "tempo": 120.0
            },
            {
                "start_time": 71.2295455,
                "end_time": 72.0045455,
                "pitch": 59,
                "velocity": 25,
                "duration": 0.775,
                "tempo": 120.0
            },
            {
                "start_time": 72.4590909,
                "end_time": 74.0045455,
                "pitch": 59,
                "velocity": 25,
                "duration": 1.5454545,
                "tempo": 120.0
            },
            {
                "start_time": 74.4590909,
                "end_time": 75.2386364,
                "pitch": 59,
                "velocity": 25,
                "duration": 0.7795455,
                "tempo": 120.0
            },
            {
                "start_time": 75.6863636,
                "end_time": 77.2477273,
                "pitch": 59,
                "velocity": 25,
                "duration": 1.5613636,
                "tempo": 120.0
            },
            {
                "start_time": 77.7090909,
                "end_time": 78.4590909,
                "pitch": 59,
                "velocity": 25,
                "duration": 0.75,
                "tempo": 120.0
            },
            {
                "start_time": 78.925,
                "end_time": 80.4704545,
                "pitch": 59,
                "velocity": 25,
                "duration": 1.5454545,
                "tempo": 120.0
            },
            {
                "start_time": 80.9181818,
                "end_time": 81.6795455,
                "pitch": 60,
                "velocity": 25,
                "duration": 0.7613636,
                "tempo": 120.0
            },
            {
                "start_time": 82.1318182,
                "end_time": 82.8931818,
                "pitch": 60,
                "velocity": 25,
                "duration": 0.7613636,
                "tempo": 120.0
            },
            {
                "start_time": 83.3386364,
                "end_time": 84.0909091,
                "pitch": 60,
                "velocity": 25,
                "duration": 0.7522727,
                "tempo": 120.0
            },
            {
                "start_time": 84.1431818,
                "end_time": 84.9022727,
                "pitch": 60,
                "velocity": 25,
                "duration": 0.7590909,
                "tempo": 120.0
            },
            {
                "start_time": 85.3590909,
                "end_time": 86.1090909,
                "pitch": 60,
                "velocity": 25,
                "duration": 0.75,
                "tempo": 120.0
            },
            {
                "start_time": 86.5568182,
                "end_time": 87.3181818,
                "pitch": 62,
                "velocity": 25,
                "duration": 0.7613636,
                "tempo": 120.0
            },
            {
                "start_time": 87.3704545,
                "end_time": 88.1227273,
                "pitch": 59,
                "velocity": 25,
                "duration": 0.7522727,
                "tempo": 120.0
            },
            {
                "start_time": 88.5840909,
                "end_time": 89.3363636,
                "pitch": 59,
                "velocity": 25,
                "duration": 0.7522727,
                "tempo": 120.0
            },
            {
                "start_time": 89.7931818,
                "end_time": 90.5431818,
                "pitch": 59,
                "velocity": 25,
                "duration": 0.75,
                "tempo": 120.0
            },
            {
                "start_time": 90.5954545,
                "end_time": 91.3318182,
                "pitch": 59,
                "velocity": 25,
                "duration": 0.7363636,
                "tempo": 120.0
            },
            {
                "start_time": 91.7931818,
                "end_time": 92.5454545,
                "pitch": 59,
                "velocity": 25,
                "duration": 0.7522727,
                "tempo": 120.0
            },
            {
                "start_time": 92.9909091,
                "end_time": 93.75,
                "pitch": 59,
                "velocity": 25,
                "duration": 0.7590909,
                "tempo": 120.0
            },
            {
                "start_time": 80.9181818,
                "end_time": 93.8022727,
                "pitch": 44,
                "velocity": 25,
                "duration": 12.8840909,
                "tempo": 120.0
            },
            {
                "start_time": 86.5568182,
                "end_time": 94.5613636,
                "pitch": 60,
                "velocity": 25,
                "duration": 8.0045455,
                "tempo": 120.0
            },
            {
                "start_time": 93.8022727,
                "end_time": 94.5613636,
                "pitch": 60,
                "velocity": 25,
                "duration": 0.7590909,
                "tempo": 120.0
            },
            {
                "start_time": 95.0159091,
                "end_time": 95.7704545,
                "pitch": 60,
                "velocity": 25,
                "duration": 0.7545455,
                "tempo": 120.0
            },
            {
                "start_time": 96.225,
                "end_time": 96.975,
                "pitch": 60,
                "velocity": 25,
                "duration": 0.75,
                "tempo": 120.0
            },
            {
                "start_time": 55.1386364,
                "end_time": 97.7795455,
                "pitch": 57,
                "velocity": 25,
                "duration": 42.6409091,
                "tempo": 120.0
            },
            {
                "start_time": 97.0295455,
                "end_time": 97.7795455,
                "pitch": 57,
                "velocity": 25,
                "duration": 0.75,
                "tempo": 120.0
            },
            {
                "start_time": 98.2431818,
                "end_time": 98.9863636,
                "pitch": 57,
                "velocity": 25,
                "duration": 0.7431818,
                "tempo": 120.0
            },
            {
                "start_time": 99.8545455,
                "end_time": 100.1954545,
                "pitch": 57,
                "velocity": 25,
                "duration": 0.3409091,
                "tempo": 120.0
            },
            {
                "start_time": 100.2477273,
                "end_time": 101.0068182,
                "pitch": 59,
                "velocity": 25,
                "duration": 0.7590909,
                "tempo": 120.0
            },
            {
                "start_time": 101.4704545,
                "end_time": 102.2090909,
                "pitch": 59,
                "velocity": 25,
                "duration": 0.7386364,
                "tempo": 120.0
            },
            {
                "start_time": 102.675,
                "end_time": 103.425,
                "pitch": 59,
                "velocity": 25,
                "duration": 0.75,
                "tempo": 120.0
            },
            {
                "start_time": 103.4795455,
                "end_time": 104.2204545,
                "pitch": 59,
                "velocity": 25,
                "duration": 0.7409091,
                "tempo": 120.0
            },
            {
                "start_time": 104.675,
                "end_time": 106.2295455,
                "pitch": 59,
                "velocity": 25,
                "duration": 1.5545455,
                "tempo": 120.0
            },
            {
                "start_time": 93.8022727,
                "end_time": 106.6954545,
                "pitch": 44,
                "velocity": 25,
                "duration": 12.8931818,
                "tempo": 120.0
            },
            {
                "start_time": 106.6954545,
                "end_time": 107.4386364,
                "pitch": 60,
                "velocity": 25,
                "duration": 0.7431818,
                "tempo": 120.0
            },
            {
                "start_time": 107.9,
                "end_time": 108.65,
                "pitch": 60,
                "velocity": 25,
                "duration": 0.75,
                "tempo": 120.0
            },
            {
                "start_time": 108.7068182,
                "end_time": 109.4613636,
                "pitch": 60,
                "velocity": 25,
                "duration": 0.7545455,
                "tempo": 120.0
            },
            {
                "start_time": 97.0295455,
                "end_time": 109.9136364,
                "pitch": 64,
                "velocity": 25,
                "duration": 12.8840909,
                "tempo": 120.0
            },
            {
                "start_time": 100.2477273,
                "end_time": 110.6636364,
                "pitch": 57,
                "velocity": 25,
                "duration": 10.4159091,
                "tempo": 120.0
            },
            {
                "start_time": 109.9136364,
                "end_time": 110.6636364,
                "pitch": 57,
                "velocity": 25,
                "duration": 0.75,
                "tempo": 120.0
            },
            {
                "start_time": 111.1295455,
                "end_time": 111.8704545,
                "pitch": 57,
                "velocity": 25,
                "duration": 0.7409091,
                "tempo": 120.0
            },
            {
                "start_time": 112.3340909,
                "end_time": 113.0840909,
                "pitch": 57,
                "velocity": 25,
                "duration": 0.75,
                "tempo": 120.0
            },
            {
                "start_time": 113.1363636,
                "end_time": 113.8863636,
                "pitch": 62,
                "velocity": 25,
                "duration": 0.75,
                "tempo": 120.0
            },
            {
                "start_time": 114.3340909,
                "end_time": 116.3090909,
                "pitch": 62,
                "velocity": 25,
                "duration": 1.975,
                "tempo": 120.0
            }
        ]
    }
}