{
    "mood": "relaxed",
    "instruments": {
        "Trumpet": [
            {
                "start_time": 0.0340909,
                "end_time": 0.4318182,
                "pitch": 68,
                "velocity": 64,
                "duration": 0.3977273,
                "tempo": 120.0
            },
            {
                "start_time": 0.4340909,
                "end_time": 0.5659091,
                "pitch": 68,
                "velocity": 64,
                "duration": 0.1318182,
                "tempo": 120.0
            },
            {
                "start_time": 0.5681818,
                "end_time": 0.7,
                "pitch": 68,
                "velocity": 64,
                "duration": 0.1318182,
                "tempo": 120.0
            },
            {
                "start_time": 0.7,
                "end_time": 0.8318182,
                "pitch": 68,
                "velocity": 64,
                "duration": 0.1318182,
                "tempo": 120.0
            },
            {
                "start_time": 0.8340909,
                "end_time": 1.0340909,
                "pitch": 68,
                "velocity": 64,
                "duration": 0.2,
                "tempo": 120.0
            },
            {
                "start_time": 1.0340909,
                "end_time": 1.2340909,
                "pitch": 68,
                "velocity": 64,
                "duration": 0.2,
                "tempo": 120.0
            },
            {
                "start_time": 1.2340909,
                "end_time": 1.4340909,
                "pitch": 68,
                "velocity": 64,
                "duration": 0.2,
                "tempo": 120.0
            },
            {
                "start_time": 1.4340909,
                "end_time": 1.6340909,
                "pitch": 68,
                "velocity": 64,
                "duration": 0.2,
                "tempo": 120.0
            },
            {
                "start_time": 1.6340909,
                "end_time": 2.0340909,
                "pitch": 70,
                "velocity": 64,
                "duration": 0.4,
                "tempo": 120.0
            },
            {
                "start_time": 2.0363636,
                "end_time": 2.1704545,
                "pitch": 70,
                "velocity": 64,
                "duration": 0.1340909,
                "tempo": 120.0
            },
            {
                "start_time": 2.1727273,
                "end_time": 2.3090909,
                "pitch": 70,
                "velocity": 64,
                "duration": 0.1363636,
                "tempo": 120.0
            },
            {
                "start_time": 2.3090909,
                "end_time": 2.4454545,
                "pitch": 70,
                "velocity": 64,
                "duration": 0.1363636,
                "tempo": 120.0
            },
            {
                "start_time": 2.4454545,
                "end_time": 2.6409091,
                "pitch": 70,
                "velocity": 64,
                "duration": 0.1954545,
                "tempo": 120.0
            },
            {
                "start_time": 2.6431818,
                "end_time": 2.8386364,
                "pitch": 70,
                "velocity": 64,
                "duration": 0.1954545,
                "tempo": 120.0
            },
            {
                "start_time": 2.8386364,
                "end_time": 3.0386364,
                "pitch": 70,
                "velocity": 64,
                "duration": 0.2,
                "tempo": 120.0
            },
            {
                "start_time": 3.0386364,
                "end_time": 3.2386364,
                "pitch": 70,
                "velocity": 64,
                "duration": 0.2,
                "tempo": 120.0
            },
            {
                "start_time": 3.2409091,
                "end_time": 3.65,
                "pitch": 72,
                "velocity": 64,
                "duration": 0.4090909,
                "tempo": 120.0
            },
            {
                "start_time": 3.6522727,
                "end_time": 3.7840909,
                "pitch": 72,
                "velocity": 64,
                "duration": 0.1318182,
                "tempo": 120.0
            },
            {
                "start_time": 3.7840909,
                "end_time": 3.9181818,
                "pitch": 72,
                "velocity": 64,
                "duration": 0.1340909,
                "tempo": 120.0
            },
            {
                "start_time": 3.9181818,
                "end_time": 4.05,
                "pitch": 72,
                "velocity": 64,
                "duration": 0.1318182,
                "tempo": 120.0
            },
            {
                "start_time": 4.0522727,
                "end_time": 4.25,
                "pitch": 72,
                "velocity": 64,
                "duration": 0.1977273,
                "tempo": 120.0
            },
            {
                "start_time": 4.2522727,
                "end_time": 4.4522727,
                "pitch": 72,
                "velocity": 64,
                "duration": 0.2,
                "tempo": 120.0
            },
            {
                "start_time": 4.4522727,
                "end_time": 4.6522727,
                "pitch": 72,
                "velocity": 64,
                "duration": 0.2,
                "tempo": 120.0
            },
            {
                "start_time": 4.6545455,
                "end_time": 4.8545455,
                "pitch": 72,
                "velocity": 64,
                "duration": 0.2,
                "tempo": 120.0
            },
            {
                "start_time": 4.8545455,
                "end_time": 5.0545455,
                "pitch": 72,
                "velocity": 64,
                "duration": 0.2,
                "tempo": 120.0
            },
            {
                "start_time": 5.0545455,
                "end_time": 5.2545455,
                "pitch": 73,
                "velocity": 64,
                "duration": 0.2,
                "tempo": 120.0
            },
            {
                "start_time": 5.2568182,
                "end_time": 5.4568182,
                "pitch": 75,
                "velocity": 64,
                "duration": 0.2,
                "tempo": 120.0
            },
            {
                "start_time": 5.4568182,
                "end_time": 5.6590909,
                "pitch": 77,
                "velocity": 64,
                "duration": 0.2022727,
                "tempo": 120.0
            },
            {
                "start_time": 5.6590909,
                "end_time": 5.8590909,
                "pitch": 78,
                "velocity": 64,
                "duration": 0.2,
                "tempo": 120.0
            },
            {
                "start_time": 5.8590909,
                "end_time": 6.0590909,
                "pitch": 80,
                "velocity": 64,
                "duration": 0.2,
                "tempo": 120.0
            },
            {
                "start_time": 6.0590909,
                "end_time": 6.2590909,
                "pitch": 82,
                "velocity": 64,
                "duration": 0.2,
                "tempo": 120.0
            },
            {
                "start_time": 6.2613636,
                "end_time": 6.4636364,
                "pitch": 84,
                "velocity": 64,
                "duration": 0.2022727,
                "tempo": 120.0
            },
            {
                "start_time": 32.2204545,
                "end_time": 32.2272727,
                "pitch": 68,
                "velocity": 64,
                "duration": 0.0068182,
                "tempo": 120.0
            }
        ],
        "French Horn": [
            {
                "start_time": 6.4636364,
                "end_time": 6.8659091,
                "pitch": 56,
                "velocity": 101,
                "duration": 0.4022727,
                "tempo": 120.0
            },
            {
                "start_time": 6.8659091,
                "end_time": 6.9977273,
                "pitch": 61,
                "velocity": 101,
                "duration": 0.1318182,
                "tempo": 120.0
            },
            {
                "start_time": 7.0,
                "end_time": 7.1318182,
                "pitch": 60,
                "velocity": 101,
                "duration": 0.1318182,
                "tempo": 120.0
            },
            {
                "start_time": 7.1318182,
                "end_time": 7.2659091,
                "pitch": 61,
                "velocity": 101,
                "duration": 0.1340909,
                "tempo": 120.0
            },
            {
                "start_time": 7.2659091,
                "end_time": 7.6681818,
                "pitch": 60,
                "velocity": 101,
                "duration": 0.4022727,
                "tempo": 120.0
            },
            {
                "start_time": 7.6704545,
                "end_time": 8.0681818,
                "pitch": 56,
                "velocity": 101,
                "duration": 0.3977273,
                "tempo": 120.0
            },
            {
                "start_time": 8.0704545,
                "end_time": 8.8727273,
                "pitch": 58,
                "velocity": 101,
                "duration": 0.8022727,
                "tempo": 120.0
            },
            {
                "start_time": 8.8727273,
                "end_time": 9.275,
                "pitch": 54,
                "velocity": 101,
                "duration": 0.4022727,
                "tempo": 120.0
            },
            {
                "start_time": 9.2772727,
                "end_time": 9.6795455,
                "pitch": 58,
                "velocity": 101,
                "duration": 0.4022727,
                "tempo": 120.0
            },
            {
                "start_time": 9.6795455,
                "end_time": 10.4818182,
                "pitch": 61,
                "velocity": 101,
                "duration": 0.8022727,
                "tempo": 120.0
            },
            {
                "start_time": 10.4840909,
                "end_time": 11.2977273,
                "pitch": 60,
                "velocity": 101,
                "duration": 0.8136364,
                "tempo": 120.0
            },
            {
                "start_time": 11.2977273,
                "end_time": 11.6909091,
                "pitch": 57,
                "velocity": 101,
                "duration": 0.3931818,
                "tempo": 120.0
            },
            {
                "start_time": 11.6909091,
                "end_time": 12.1022727,
                "pitch": 60,
                "velocity": 101,
                "duration": 0.4113636,
                "tempo": 120.0
            },
            {
                "start_time": 12.1022727,
                "end_time": 12.5045455,
                "pitch": 61,
                "velocity": 101,
                "duration": 0.4022727,
                "tempo": 120.0
            },
            {
                "start_time": 12.5045455,
                "end_time": 12.9045455,
                "pitch": 63,
                "velocity": 101,
                "duration": 0.4,
                "tempo": 120.0
            },
            {
                "start_time": 12.9068182,
                "end_time": 13.7113636,
                "pitch": 61,
                "velocity": 101,
                "duration": 0.8045455,
                "tempo": 120.0
            },
            {
                "start_time": 13.7113636,
                "end_time": 14.1159091,
                "pitch": 60,
                "velocity": 101,
                "duration": 0.4045455,
                "tempo": 120.0
            },
            {
                "start_time": 14.1159091,
                "end_time": 14.5181818,
                "pitch": 58,
                "velocity": 101,
                "duration": 0.4022727,
                "tempo": 120.0
            },
            {
                "start_time": 14.5181818,
                "end_time": 15.3227273,
                "pitch": 56,
                "velocity": 101,
                "duration": 0.8045455,
                "tempo": 120.0
            },
            {
                "start_time": 15.3227273,
                "end_time": 15.725,
                "pitch": 54,
                "velocity": 101,
                "duration": 0.4022727,
                "tempo": 120.0
            },
            {
                "start_time": 15.725,
                "end_time": 16.1295455,
                "pitch": 58,
                "velocity": 101,
                "duration": 0.4045455,
                "tempo": 120.0
            },
            {
                "start_time": 16.1295455,
                "end_time": 16.5318182,
                "pitch": 54,
                "velocity": 101,
                "duration": 0.4022727,
                "tempo": 120.0
            },
            {
                "start_time": 16.5318182,
                "end_time": 16.6659091,
                "pitch": 58,
                "velocity": 101,
                "duration": 0.1340909,
                "tempo": 120.0
            },
            {
                "start_time": 16.6659091,
                "end_time": 16.7977273,
                "pitch": 60,
                "velocity": 101,
                "duration": 0.1318182,
                "tempo": 120.0
            },
            {
                "start_time": 16.8,
                "end_time": 16.9318182,
                "pitch": 61,
                "velocity": 101,
                "duration": 0.1318182,
                "tempo": 120.0
            },
            {
                "start_time": 16.9318182,
                "end_time": 17.3340909,
                "pitch": 60,
                "velocity": 101,
                "duration": 0.4022727,
                "tempo": 120.0
            },
            {
                "start_time": 17.3363636,
                "end_time": 17.7363636,
                "pitch": 58,
                "velocity": 101,
                "duration": 0.4,
                "tempo": 120.0
            },
            {
                "start_time": 17.7363636,
                "end_time": 18.5477273,
                "pitch": 58,
                "velocity": 101,
                "duration": 0.8113636,
                "tempo": 120.0
            },
            {
                "start_time": 18.5477273,
                "end_time": 19.3522727,
                "pitch": 56,
                "velocity": 101,
                "duration": 0.8045455,
                "tempo": 120.0
            },
            {
                "start_time": 19.3522727,
                "end_time": 19.7545455,
                "pitch": 56,
                "velocity": 101,
                "duration": 0.4022727,
                "tempo": 120.0
            },
            {
                "start_time": 19.7545455,
                "end_time": 19.8886364,
                "pitch": 61,
                "velocity": 101,
                "duration": 0.1340909,
                "tempo": 120.0
            },
            {
                "start_time": 19.8886364,
                "end_time": 20.0204545,
                "pitch": 60,
                "velocity": 101,
                "duration": 0.1318182,
                "tempo": 120.0
            },
            {
                "start_time": 20.0227273,
                "end_time": 20.1545455,
                "pitch": 61,
                "velocity": 101,
                "duration": 0.1318182,
                "tempo": 120.0
            },
            {
                "start_time": 20.1568182,
                "end_time": 20.5545455,
                "pitch": 60,
                "velocity": 101,
                "duration": 0.3977273,
                "tempo": 120.0
            },
            {
                "start_time": 20.5568182,
                "end_time": 20.9590909,
                "pitch": 56,
                "velocity": 101,
                "duration": 0.4022727,
                "tempo": 120.0
            },
            {
                "start_time": 20.9590909,
                "end_time": 21.7613636,
                "pitch": 58,
                "velocity": 101,
                "duration": 0.8022727,
                "tempo": 120.0
            },
            {
                "start_time": 21.7636364,
                "end_time": 22.1636364,
                "pitch": 54,
                "velocity": 101,
                "duration": 0.4,
                "tempo": 120.0
            },
            {
                "start_time": 22.1636364,
                "end_time": 22.5636364,
                "pitch": 58,
                "velocity": 101,
                "duration": 0.4,
                "tempo": 120.0
            },
            {
                "start_time": 22.5636364,
                "end_time": 23.3681818,
                "pitch": 61,
                "velocity": 101,
                "duration": 0.8045455,
                "tempo": 120.0
            },
            {
                "start_time": 23.3681818,
                "end_time": 24.1704545,
                "pitch": 60,
                "velocity": 101,
                "duration": 0.8022727,
                "tempo": 120.0
            },
            {
                "start_time": 24.1727273,
                "end_time": 24.5704545,
                "pitch": 57,
                "velocity": 101,
                "duration": 0.3977273,
                "tempo": 120.0
            },
            {
                "start_time": 24.5727273,
                "end_time": 24.975,
                "pitch": 60,
                "velocity": 101,
                "duration": 0.4022727,
                "tempo": 120.0
            },
            {
                "start_time": 24.975,
                "end_time": 25.375,
                "pitch": 61,
                "velocity": 101,
                "duration": 0.4,
                "tempo": 120.0
            },
            {
                "start_time": 25.375,
                "end_time": 25.7795455,
                "pitch": 63,
                "velocity": 101,
                "duration": 0.4045455,
                "tempo": 120.0
            },
            {
                "start_time": 25.7795455,
                "end_time": 26.5909091,
                "pitch": 61,
                "velocity": 101,
                "duration": 0.8113636,
                "tempo": 120.0
            },
            {
                "start_time": 26.5909091,
                "end_time": 26.9909091,
                "pitch": 60,
                "velocity": 101,
                "duration": 0.4,
                "tempo": 120.0
            },
            {
                "start_time": 26.9909091,
                "end_time": 27.3931818,
                "pitch": 58,
                "velocity": 101,
                "duration": 0.4022727,
                "tempo": 120.0
            },
            {
                "start_time": 27.3954545,
                "end_time": 28.1977273,
                "pitch": 56,
                "velocity": 101,
                "duration": 0.8022727,
                "tempo": 120.0
            },
            {
                "start_time": 28.1977273,
                "end_time": 28.5977273,
                "pitch": 54,
                "velocity": 101,
                "duration": 0.4,
                "tempo": 120.0
            },
            {
                "start_time": 28.6,
                "end_time": 29.0,
                "pitch": 58,
                "velocity": 101,
                "duration": 0.4,
                "tempo": 120.0
            },
            {
                "start_time": 29.0,
                "end_time": 29.4022727,
                "pitch": 54,
                "velocity": 101,
                "duration": 0.4022727,
                "tempo": 120.0
            },
            {
                "start_time": 29.4022727,
                "end_time": 29.5363636,
                "pitch": 58,
                "velocity": 101,
                "duration": 0.1340909,
                "tempo": 120.0
            },
            {
                "start_time": 29.5363636,
                "end_time": 29.6681818,
                "pitch": 60,
                "velocity": 101,
                "duration": 0.1318182,
                "tempo": 120.0
            },
            {
                "start_time": 29.6704545,
                "end_time": 29.8022727,
                "pitch": 61,
                "velocity": 101,
                "duration": 0.1318182,
                "tempo": 120.0
            },
            {
                "start_time": 29.8045455,
                "end_time": 30.2068182,
                "pitch": 60,
                "velocity": 101,
                "duration": 0.4022727,
                "tempo": 120.0
            },
            {
                "start_time": 30.2068182,
                "end_time": 30.6068182,
                "pitch": 56,
                "velocity": 101,
                "duration": 0.4,
                "tempo": 120.0
            },
            {
                "start_time": 30.6068182,
                "end_time": 32.2136364,
                "pitch": 61,
                "velocity": 101,
                "duration": 1.6068182,
                "tempo": 120.0
            }
        ],
        "Vibraphone": [
            {
                "start_time": 6.4659091,
                "end_time": 6.8681818,
                "pitch": 80,
                "velocity": 51,
                "duration": 0.4022727,
                "tempo": 120.0
            },
            {
                "start_time": 8.0727273,
                "end_time": 8.4704545,
                "pitch": 82,
                "velocity": 51,
                "duration": 0.3977273,
                "tempo": 120.0
            },
            {
                "start_time": 9.6818182,
                "end_time": 10.0840909,
                "pitch": 82,
                "velocity": 51,
                "duration": 0.4022727,
                "tempo": 120.0
            },
            {
                "start_time": 10.4863636,
                "end_time": 10.8954545,
                "pitch": 84,
                "velocity": 51,
                "duration": 0.4090909,
                "tempo": 120.0
            },
            {
                "start_time": 11.3,
                "end_time": 11.6931818,
                "pitch": 81,
                "velocity": 51,
                "duration": 0.3931818,
                "tempo": 120.0
            },
            {
                "start_time": 11.6931818,
                "end_time": 12.1045455,
                "pitch": 84,
                "velocity": 51,
                "duration": 0.4113636,
                "tempo": 120.0
            },
            {
                "start_time": 12.1045455,
                "end_time": 12.5068182,
                "pitch": 85,
                "velocity": 51,
                "duration": 0.4022727,
                "tempo": 120.0
            },
            {
                "start_time": 12.5068182,
                "end_time": 12.9068182,
                "pitch": 87,
                "velocity": 51,
                "duration": 0.4,
                "tempo": 120.0
            },
            {
                "start_time": 12.9090909,
                "end_time": 13.3090909,
                "pitch": 85,
                "velocity": 51,
                "duration": 0.4,
                "tempo": 120.0
            },
            {
                "start_time": 14.5204545,
                "end_time": 14.9181818,
                "pitch": 80,
                "velocity": 51,
                "duration": 0.3977273,
                "tempo": 120.0
            },
            {
                "start_time": 16.1318182,
                "end_time": 16.5340909,
                "pitch": 78,
                "velocity": 51,
                "duration": 0.4022727,
                "tempo": 120.0
            },
            {
                "start_time": 16.9340909,
                "end_time": 17.3386364,
                "pitch": 84,
                "velocity": 51,
                "duration": 0.4045455,
                "tempo": 120.0
            },
            {
                "start_time": 17.7386364,
                "end_time": 18.1477273,
                "pitch": 82,
                "velocity": 51,
                "duration": 0.4090909,
                "tempo": 120.0
            },
            {
                "start_time": 18.55,
                "end_time": 18.9522727,
                "pitch": 82,
                "velocity": 51,
                "duration": 0.4022727,
                "tempo": 120.0
            },
            {
                "start_time": 19.3545455,
                "end_time": 19.7568182,
                "pitch": 80,
                "velocity": 51,
                "duration": 0.4022727,
                "tempo": 120.0
            },
            {
                "start_time": 20.9613636,
                "end_time": 21.3590909,
                "pitch": 82,
                "velocity": 51,
                "duration": 0.3977273,
                "tempo": 120.0
            },
            {
                "start_time": 22.5681818,
                "end_time": 22.9681818,
                "pitch": 82,
                "velocity": 51,
                "duration": 0.4,
                "tempo": 120.0
            },
            {
                "start_time": 23.3704545,
                "end_time": 23.7704545,
                "pitch": 84,
                "velocity": 51,
                "duration": 0.4,
                "tempo": 120.0
            },
            {
                "start_time": 24.175,
                "end_time": 24.5727273,
                "pitch": 81,
                "velocity": 51,
                "duration": 0.3977273,
                "tempo": 120.0
            },
            {
                "start_time": 24.575,
                "end_time": 24.9772727,
                "pitch": 84,
                "velocity": 51,
                "duration": 0.4022727,
                "tempo": 120.0
            },
            {
                "start_time": 24.9772727,
                "end_time": 25.3772727,
                "pitch": 85,
                "velocity": 51,
                "duration": 0.4,
                "tempo": 120.0
            },
            {
                "start_time": 25.3772727,
                "end_time": 25.7818182,
                "pitch": 87,
                "velocity": 51,
                "duration": 0.4045455,
                "tempo": 120.0
            },
            {
                "start_time": 25.7818182,
                "end_time": 26.1795455,
                "pitch": 85,
                "velocity": 51,
                "duration": 0.3977273,
                "tempo": 120.0
            },
            {
                "start_time": 27.3977273,
                "end_time": 27.7863636,
                "pitch": 80,
                "velocity": 51,
                "duration": 0.3886364,
                "tempo": 120.0
            },
            {
                "start_time": 29.0022727,
                "end_time": 29.4045455,
                "pitch": 78,
                "velocity": 51,
                "duration": 0.4022727,
                "tempo": 120.0
            },
            {
                "start_time": 29.8068182,
                "end_time": 30.2090909,
                "pitch": 82,
                "velocity": 51,
                "duration": 0.4022727,
                "tempo": 120.0
            },
            {
                "start_time": 30.6090909,
                "end_time": 31.0068182,
                "pitch": 85,
                "velocity": 51,
                "duration": 0.3977273,
                "tempo": 120.0
            }
        ],
        "Flute": [
            {
                "start_time": 6.4659091,
                "end_time": 6.8659091,
                "pitch": 68,
                "velocity": 101,
                "duration": 0.4,
                "tempo": 120.0
            },
            {
                "start_time": 6.8681818,
                "end_time": 7.0,
                "pitch": 73,
                "velocity": 101,
                "duration": 0.1318182,
                "tempo": 120.0
            },
            {
                "start_time": 7.0,
                "end_time": 7.1318182,
                "pitch": 72,
                "velocity": 101,
                "duration": 0.1318182,
                "tempo": 120.0
            },
            {
                "start_time": 7.1340909,
                "end_time": 7.2659091,
                "pitch": 73,
                "velocity": 101,
                "duration": 0.1318182,
                "tempo": 120.0
            },
            {
                "start_time": 7.2681818,
                "end_time": 7.6704545,
                "pitch": 72,
                "velocity": 101,
                "duration": 0.4022727,
                "tempo": 120.0
            },
            {
                "start_time": 7.6704545,
                "end_time": 8.0704545,
                "pitch": 68,
                "velocity": 101,
                "duration": 0.4,
                "tempo": 120.0
            },
            {
                "start_time": 8.0704545,
                "end_time": 8.8727273,
                "pitch": 70,
                "velocity": 101,
                "duration": 0.8022727,
                "tempo": 120.0
            },
            {
                "start_time": 8.875,
                "end_time": 9.2772727,
                "pitch": 66,
                "velocity": 101,
                "duration": 0.4022727,
                "tempo": 120.0
            },
            {
                "start_time": 9.2772727,
                "end_time": 9.6795455,
                "pitch": 70,
                "velocity": 101,
                "duration": 0.4022727,
                "tempo": 120.0
            },
            {
                "start_time": 9.6818182,
                "end_time": 10.4840909,
                "pitch": 73,
                "velocity": 101,
                "duration": 0.8022727,
                "tempo": 120.0
            },
            {
                "start_time": 10.4840909,
                "end_time": 11.2977273,
                "pitch": 72,
                "velocity": 101,
                "duration": 0.8136364,
                "tempo": 120.0
            },
            {
                "start_time": 11.3,
                "end_time": 11.6909091,
                "pitch": 69,
                "velocity": 101,
                "duration": 0.3909091,
                "tempo": 120.0
            },
            {
                "start_time": 11.6931818,
                "end_time": 12.1022727,
                "pitch": 72,
                "velocity": 101,
                "duration": 0.4090909,
                "tempo": 120.0
            },
            {
                "start_time": 12.1045455,
                "end_time": 12.5045455,
                "pitch": 73,
                "velocity": 101,
                "duration": 0.4,
                "tempo": 120.0
            },
            {
                "start_time": 12.5068182,
                "end_time": 12.9068182,
                "pitch": 75,
                "velocity": 101,
                "duration": 0.4,
                "tempo": 120.0
            },
            {
                "start_time": 12.9068182,
                "end_time": 13.7136364,
                "pitch": 73,
                "velocity": 101,
                "duration": 0.8068182,
                "tempo": 120.0
            },
            {
                "start_time": 13.7136364,
                "end_time": 14.1159091,
                "pitch": 72,
                "velocity": 101,
                "duration": 0.4022727,
                "tempo": 120.0
            },
            {
                "start_time": 14.1181818,
                "end_time": 14.5181818,
                "pitch": 70,
                "velocity": 101,
                "duration": 0.4,
                "tempo": 120.0
            },
            {
                "start_time": 14.5204545,
                "end_time": 15.3227273,
                "pitch": 68,
                "velocity": 101,
                "duration": 0.8022727,
                "tempo": 120.0
            },
            {
                "start_time": 15.3227273,
                "end_time": 15.725,
                "pitch": 66,
                "velocity": 101,
                "duration": 0.4022727,
                "tempo": 120.0
            },
            {
                "start_time": 15.7272727,
                "end_time": 16.1295455,
                "pitch": 70,
                "velocity": 101,
                "duration": 0.4022727,
                "tempo": 120.0
            },
            {
                "start_time": 16.1295455,
                "end_time": 16.5318182,
                "pitch": 66,
                "velocity": 101,
                "duration": 0.4022727,
                "tempo": 120.0
            },
            {
                "start_time": 16.5340909,
                "end_time": 16.6659091,
                "pitch": 70,
                "velocity": 101,
                "duration": 0.1318182,
                "tempo": 120.0
            },
            {
                "start_time": 16.6681818,
                "end_time": 16.8,
                "pitch": 72,
                "velocity": 101,
                "duration": 0.1318182,
                "tempo": 120.0
            },
            {
                "start_time": 16.8,
                "end_time": 16.9318182,
                "pitch": 73,
                "velocity": 101,
                "duration": 0.1318182,
                "tempo": 120.0
            },
            {
                "start_time": 16.9340909,
                "end_time": 17.3363636,
                "pitch": 72,
                "velocity": 101,
                "duration": 0.4022727,
                "tempo": 120.0
            },
            {
                "start_time": 17.3363636,
                "end_time": 17.7363636,
                "pitch": 70,
                "velocity": 101,
                "duration": 0.4,
                "tempo": 120.0
            },
            {
                "start_time": 17.7386364,
                "end_time": 18.5477273,
                "pitch": 70,
                "velocity": 101,
                "duration": 0.8090909,
                "tempo": 120.0
            },
            {
                "start_time": 18.55,
                "end_time": 19.3522727,
                "pitch": 68,
                "velocity": 101,
                "duration": 0.8022727,
                "tempo": 120.0
            },
            {
                "start_time": 19.3545455,
                "end_time": 19.7545455,
                "pitch": 68,
                "velocity": 101,
                "duration": 0.4,
                "tempo": 120.0
            },
            {
                "start_time": 19.7568182,
                "end_time": 19.8886364,
                "pitch": 73,
                "velocity": 101,
                "duration": 0.1318182,
                "tempo": 120.0
            },
            {
                "start_time": 19.8909091,
                "end_time": 20.0227273,
                "pitch": 72,
                "velocity": 101,
                "duration": 0.1318182,
                "tempo": 120.0
            },
            {
                "start_time": 20.0227273,
                "end_time": 20.1568182,
                "pitch": 73,
                "velocity": 101,
                "duration": 0.1340909,
                "tempo": 120.0
            },
            {
                "start_time": 20.1568182,
                "end_time": 20.5568182,
                "pitch": 72,
                "velocity": 101,
                "duration": 0.4,
                "tempo": 120.0
            },
            {
                "start_time": 20.5568182,
                "end_time": 20.9590909,
                "pitch": 68,
                "velocity": 101,
                "duration": 0.4022727,
                "tempo": 120.0
            },
            {
                "start_time": 20.9613636,
                "end_time": 21.7636364,
                "pitch": 70,
                "velocity": 101,
                "duration": 0.8022727,
                "tempo": 120.0
            },
            {
                "start_time": 21.7636364,
                "end_time": 22.1636364,
                "pitch": 66,
                "velocity": 101,
                "duration": 0.4,
                "tempo": 120.0
            },
            {
                "start_time": 22.1659091,
                "end_time": 22.5659091,
                "pitch": 70,
                "velocity": 101,
                "duration": 0.4,
                "tempo": 120.0
            },
            {
                "start_time": 22.5659091,
                "end_time": 23.3681818,
                "pitch": 73,
                "velocity": 101,
                "duration": 0.8022727,
                "tempo": 120.0
            },
            {
                "start_time": 23.3704545,
                "end_time": 24.1727273,
                "pitch": 72,
                "velocity": 101,
                "duration": 0.8022727,
                "tempo": 120.0
            },
            {
                "start_time": 24.1727273,
                "end_time": 24.5727273,
                "pitch": 69,
                "velocity": 101,
                "duration": 0.4,
                "tempo": 120.0
            },
            {
                "start_time": 24.5727273,
                "end_time": 24.975,
                "pitch": 72,
                "velocity": 101,
                "duration": 0.4022727,
                "tempo": 120.0
            },
            {
                "start_time": 24.9772727,
                "end_time": 25.375,
                "pitch": 73,
                "velocity": 101,
                "duration": 0.3977273,
                "tempo": 120.0
            },
            {
                "start_time": 25.3772727,
                "end_time": 25.7795455,
                "pitch": 75,
                "velocity": 101,
                "duration": 0.4022727,
                "tempo": 120.0
            },
            {
                "start_time": 25.7818182,
                "end_time": 26.5909091,
                "pitch": 73,
                "velocity": 101,
                "duration": 0.8090909,
                "tempo": 120.0
            },
            {
                "start_time": 26.5931818,
                "end_time": 26.9909091,
                "pitch": 72,
                "velocity": 101,
                "duration": 0.3977273,
                "tempo": 120.0
            },
            {
                "start_time": 26.9931818,
                "end_time": 27.3954545,
                "pitch": 70,
                "velocity": 101,
                "duration": 0.4022727,
                "tempo": 120.0
            },
            {
                "start_time": 27.3954545,
                "end_time": 28.1977273,
                "pitch": 68,
                "velocity": 101,
                "duration": 0.8022727,
                "tempo": 120.0
            },
            {
                "start_time": 28.2,
                "end_time": 28.6,
                "pitch": 66,
                "velocity": 101,
                "duration": 0.4,
                "tempo": 120.0
            },
            {
                "start_time": 28.6,
                "end_time": 29.0,
                "pitch": 70,
                "velocity": 101,
                "duration": 0.4,
                "tempo": 120.0
            },
            {
                "start_time": 29.0022727,
                "end_time": 29.4022727,
                "pitch": 66,
                "velocity": 101,
                "duration": 0.4,
                "tempo": 120.0
            },
            {
                "start_time": 29.4045455,
                "end_time": 29.5363636,
                "pitch": 70,
                "velocity": 101,
                "duration": 0.1318182,
                "tempo": 120.0
            },
            {
                "start_time": 29.5386364,
                "end_time": 29.6704545,
                "pitch": 72,
                "velocity": 101,
                "duration": 0.1318182,
                "tempo": 120.0
            },
            {
                "start_time": 29.6704545,
                "end_time": 29.8045455,
                "pitch": 73,
                "velocity": 101,
                "duration": 0.1340909,
                "tempo": 120.0
            },
            {
                "start_time": 29.8045455,
                "end_time": 30.2068182,
                "pitch": 72,
                "velocity": 101,
                "duration": 0.4022727,
                "tempo": 120.0
            },
            {
                "start_time": 30.2090909,
                "end_time": 30.6068182,
                "pitch": 68,
                "velocity": 101,
                "duration": 0.3977273,
                "tempo": 120.0
            },
            {
                "start_time": 30.6090909,
                "end_time": 32.2136364,
                "pitch": 73,
                "velocity": 101,
                "duration": 1.6045455,
                "tempo": 120.0
            }
        ]
    }
}