{
    "mood": "relaxed",
    "instruments": {
        "Electric Piano 1": [
            {
                "start_time": 0.7954545,
                "end_time": 1.1977273,
                "pitch": 84,
                "velocity": 64,
                "duration": 0.4022727,
                "tempo": 120.0
            },
            {
                "start_time": 1.1977273,
                "end_time": 3.5568182,
                "pitch": 83,
                "velocity": 64,
                "duration": 2.3590909,
                "tempo": 120.0
            },
            {
                "start_time": 3.5590909,
                "end_time": 3.9090909,
                "pitch": 84,
                "velocity": 64,
                "duration": 0.35,
                "tempo": 120.0
            },
            {
                "start_time": 3.9090909,
                "end_time": 6.2454545,
                "pitch": 83,
                "velocity": 64,
                "duration": 2.3363636,
                "tempo": 120.0
            },
            {
                "start_time": 6.2477273,
                "end_time": 6.6022727,
                "pitch": 83,
                "velocity": 64,
                "duration": 0.3545455,
                "tempo": 120.0
            },
            {
                "start_time": 6.6022727,
                "end_time": 6.9568182,
                "pitch": 84,
                "velocity": 64,
                "duration": 0.3545455,
                "tempo": 120.0
            },
            {
                "start_time": 6.9590909,
                "end_time": 7.6295455,
                "pitch": 84,
                "velocity": 64,
                "duration": 0.6704545,
                "tempo": 120.0
            },
            {
                "start_time": 7.6295455,
                "end_time": 8.3022727,
                "pitch": 84,
                "velocity": 64,
                "duration": 0.6727273,
                "tempo": 120.0
            },
            {
                "start_time": 8.3022727,
                "end_time": 9.2886364,
                "pitch": 84,
                "velocity": 64,
                "duration": 0.9863636,
                "tempo": 120.0
            },
            {
                "start_time": 9.2909091,
                "end_time": 9.6136364,
                "pitch": 86,
                "velocity": 64,
                "duration": 0.3227273,
                "tempo": 120.0
            },
            {
                "start_time": 9.6159091,
                "end_time": 11.6227273,
                "pitch": 84,
                "velocity": 64,
                "duration": 2.0068182,
                "tempo": 120.0
            },
            {
                "start_time": 11.6227273,
                "end_time": 11.9613636,
                "pitch": 84,
                "velocity": 64,
                "duration": 0.3386364,
                "tempo": 120.0
            },
            {
                "start_time": 11.9636364,
                "end_time": 14.2590909,
                "pitch": 83,
                "velocity": 64,
                "duration": 2.2954545,
                "tempo": 120.0
            },
            {
                "start_time": 14.2613636,
                "end_time": 14.6159091,
                "pitch": 84,
                "velocity": 64,
                "duration": 0.3545455,
                "tempo": 120.0
            },
            {
                "start_time": 14.6159091,
                "end_time": 16.95,
                "pitch": 83,
                "velocity": 64,
                "duration": 2.3340909,
                "tempo": 120.0
            },
            {
                "start_time": 16.95,
                "end_time": 17.3090909,
                "pitch": 83,
                "velocity": 64,
                "duration": 0.3590909,
                "tempo": 120.0
            },
            {
                "start_time": 17.3090909,
                "end_time": 17.6681818,
                "pitch": 84,
                "velocity": 64,
                "duration": 0.3590909,
                "tempo": 120.0
            },
            {
                "start_time": 17.6704545,
                "end_time": 18.3409091,
                "pitch": 84,
                "velocity": 64,
                "duration": 0.6704545,
                "tempo": 120.0
            },
            {
                "start_time": 18.3409091,
                "end_time": 19.0113636,
                "pitch": 84,
                "velocity": 64,
                "duration": 0.6704545,
                "tempo": 120.0
            },
            {
                "start_time": 19.0136364,
                "end_time": 19.9977273,
                "pitch": 84,
                "velocity": 64,
                "duration": 0.9840909,
                "tempo": 120.0
            },
            {
                "start_time": 19.9977273,
                "end_time": 20.3181818,
                "pitch": 83,
                "velocity": 64,
                "duration": 0.3204545,
                "tempo": 120.0
            },
            {
                "start_time": 20.3204545,
                "end_time": 20.9886364,
                "pitch": 81,
                "velocity": 64,
                "duration": 0.6681818,
                "tempo": 120.0
            },
            {
                "start_time": 20.9909091,
                "end_time": 21.2659091,
                "pitch": 79,
                "velocity": 64,
                "duration": 0.275,
                "tempo": 120.0
            },
            {
                "start_time": 21.2659091,
                "end_time": 21.4113636,
                "pitch": 79,
                "velocity": 64,
                "duration": 0.1454545,
                "tempo": 120.0
            },
            {
                "start_time": 21.2659091,
                "end_time": 21.4113636,
                "pitch": 91,
                "velocity": 64,
                "duration": 0.1454545,
                "tempo": 120.0
            },
            {
                "start_time": 21.4113636,
                "end_time": 21.5295455,
                "pitch": 79,
                "velocity": 64,
                "duration": 0.1181818,
                "tempo": 120.0
            },
            {
                "start_time": 21.4113636,
                "end_time": 21.5295455,
                "pitch": 91,
                "velocity": 64,
                "duration": 0.1181818,
                "tempo": 120.0
            },
            {
                "start_time": 21.5295455,
                "end_time": 21.6386364,
                "pitch": 79,
                "velocity": 64,
                "duration": 0.1090909,
                "tempo": 120.0
            },
            {
                "start_time": 21.5295455,
                "end_time": 21.6386364,
                "pitch": 91,
                "velocity": 64,
                "duration": 0.1090909,
                "tempo": 120.0
            },
            {
                "start_time": 21.6386364,
                "end_time": 21.7590909,
                "pitch": 79,
                "velocity": 64,
                "duration": 0.1204545,
                "tempo": 120.0
            },
            {
                "start_time": 21.6386364,
                "end_time": 21.7590909,
                "pitch": 91,
                "velocity": 64,
                "duration": 0.1204545,
                "tempo": 120.0
            },
            {
                "start_time": 21.7590909,
                "end_time": 21.8659091,
                "pitch": 79,
                "velocity": 64,
                "duration": 0.1068182,
                "tempo": 120.0
            },
            {
                "start_time": 21.7590909,
                "end_time": 21.8659091,
                "pitch": 91,
                "velocity": 64,
                "duration": 0.1068182,
                "tempo": 120.0
            },
            {
                "start_time": 21.8659091,
                "end_time": 21.9727273,
                "pitch": 79,
                "velocity": 64,
                "duration": 0.1068182,
                "tempo": 120.0
            },
            {
                "start_time": 21.8659091,
                "end_time": 21.9727273,
                "pitch": 91,
                "velocity": 64,
                "duration": 0.1068182,
                "tempo": 120.0
            },
            {
                "start_time": 21.9727273,
                "end_time": 22.0909091,
                "pitch": 79,
                "velocity": 64,
                "duration": 0.1181818,
                "tempo": 120.0
            },
            {
                "start_time": 21.9727273,
                "end_time": 22.0909091,
                "pitch": 91,
                "velocity": 64,
                "duration": 0.1181818,
                "tempo": 120.0
            },
            {
                "start_time": 22.0909091,
                "end_time": 22.1977273,
                "pitch": 79,
                "velocity": 64,
                "duration": 0.1068182,
                "tempo": 120.0
            },
            {
                "start_time": 22.0909091,
                "end_time": 22.1977273,
                "pitch": 91,
                "velocity": 64,
                "duration": 0.1068182,
                "tempo": 120.0
            },
            {
                "start_time": 22.1977273,
                "end_time": 22.3045455,
                "pitch": 79,
                "velocity": 64,
                "duration": 0.1068182,
                "tempo": 120.0
            },
            {
                "start_time": 22.1977273,
                "end_time": 22.3045455,
                "pitch": 91,
                "velocity": 64,
                "duration": 0.1068182,
                "tempo": 120.0
            },
            {
                "start_time": 22.3045455,
                "end_time": 22.4136364,
                "pitch": 79,
                "velocity": 64,
                "duration": 0.1090909,
                "tempo": 120.0
            },
            {
                "start_time": 22.4136364,
                "end_time": 23.375,
                "pitch": 84,
                "velocity": 64,
                "duration": 0.9613636,
                "tempo": 120.0
            },
            {
                "start_time": 23.375,
                "end_time": 24.3977273,
                "pitch": 84,
                "velocity": 64,
                "duration": 1.0227273,
                "tempo": 120.0
            },
            {
                "start_time": 24.3977273,
                "end_time": 25.0681818,
                "pitch": 84,
                "velocity": 64,
                "duration": 0.6704545,
                "tempo": 120.0
            },
            {
                "start_time": 25.0681818,
                "end_time": 26.0522727,
                "pitch": 83,
                "velocity": 64,
                "duration": 0.9840909,
                "tempo": 120.0
            },
            {
                "start_time": 26.0522727,
                "end_time": 27.7113636,
                "pitch": 81,
                "velocity": 64,
                "duration": 1.6590909,
                "tempo": 120.0
            },
            {
                "start_time": 27.7113636,
                "end_time": 28.725,
                "pitch": 81,
                "velocity": 64,
                "duration": 1.0136364,
                "tempo": 120.0
            },
            {
                "start_time": 28.725,
                "end_time": 30.3931818,
                "pitch": 81,
                "velocity": 64,
                "duration": 1.6681818,
                "tempo": 120.0
            },
            {
                "start_time": 30.3931818,
                "end_time": 31.4113636,
                "pitch": 83,
                "velocity": 64,
                "duration": 1.0181818,
                "tempo": 120.0
            },
            {
                "start_time": 31.4113636,
                "end_time": 33.0727273,
                "pitch": 83,
                "velocity": 64,
                "duration": 1.6613636,
                "tempo": 120.0
            },
            {
                "start_time": 33.0727273,
                "end_time": 34.1,
                "pitch": 84,
                "velocity": 64,
                "duration": 1.0272727,
                "tempo": 120.0
            },
            {
                "start_time": 34.1,
                "end_time": 35.1113636,
                "pitch": 84,
                "velocity": 64,
                "duration": 1.0113636,
                "tempo": 120.0
            },
            {
                "start_time": 35.1113636,
                "end_time": 35.7818182,
                "pitch": 84,
                "velocity": 64,
                "duration": 0.6704545,
                "tempo": 120.0
            },
            {
                "start_time": 35.7818182,
                "end_time": 36.7568182,
                "pitch": 83,
                "velocity": 64,
                "duration": 0.975,
                "tempo": 120.0
            },
            {
                "start_time": 36.7568182,
                "end_time": 37.7545455,
                "pitch": 81,
                "velocity": 64,
                "duration": 0.9977273,
                "tempo": 120.0
            },
            {
                "start_time": 37.7545455,
                "end_time": 38.0431818,
                "pitch": 79,
                "velocity": 64,
                "duration": 0.2886364,
                "tempo": 120.0
            },
            {
                "start_time": 22.3045455,
                "end_time": 38.0431818,
                "pitch": 91,
                "velocity": 64,
                "duration": 15.7386364,
                "tempo": 120.0
            },
            {
                "start_time": 38.0431818,
                "end_time": 38.1954545,
                "pitch": 79,
                "velocity": 64,
                "duration": 0.1522727,
                "tempo": 120.0
            },
            {
                "start_time": 38.0431818,
                "end_time": 38.1954545,
                "pitch": 91,
                "velocity": 64,
                "duration": 0.1522727,
                "tempo": 120.0
            },
            {
                "start_time": 38.1954545,
                "end_time": 38.3318182,
                "pitch": 79,
                "velocity": 64,
                "duration": 0.1363636,
                "tempo": 120.0
            },
            {
                "start_time": 38.1954545,
                "end_time": 38.3318182,
                "pitch": 91,
                "velocity": 64,
                "duration": 0.1363636,
                "tempo": 120.0
            },
            {
                "start_time": 38.3318182,
                "end_time": 38.4318182,
                "pitch": 79,
                "velocity": 64,
                "duration": 0.1,
                "tempo": 120.0
            },
            {
                "start_time": 38.4318182,
                "end_time": 39.4431818,
                "pitch": 81,
                "velocity": 64,
                "duration": 1.0113636,
                "tempo": 120.0
            },
            {
                "start_time": 39.4454545,
                "end_time": 41.0977273,
                "pitch": 81,
                "velocity": 64,
                "duration": 1.6522727,
                "tempo": 120.0
            },
            {
                "start_time": 41.0977273,
                "end_time": 41.4340909,
                "pitch": 83,
                "velocity": 64,
                "duration": 0.3363636,
                "tempo": 120.0
            },
            {
                "start_time": 41.4340909,
                "end_time": 42.1,
                "pitch": 81,
                "velocity": 64,
                "duration": 0.6659091,
                "tempo": 120.0
            },
            {
                "start_time": 42.1022727,
                "end_time": 42.3840909,
                "pitch": 79,
                "velocity": 64,
                "duration": 0.2818182,
                "tempo": 120.0
            },
            {
                "start_time": 38.3318182,
                "end_time": 42.3840909,
                "pitch": 91,
                "velocity": 64,
                "duration": 4.0522727,
                "tempo": 120.0
            },
            {
                "start_time": 42.3840909,
                "end_time": 42.5318182,
                "pitch": 79,
                "velocity": 64,
                "duration": 0.1477273,
                "tempo": 120.0
            },
            {
                "start_time": 42.3840909,
                "end_time": 42.5318182,
                "pitch": 91,
                "velocity": 64,
                "duration": 0.1477273,
                "tempo": 120.0
            },
            {
                "start_time": 42.5318182,
                "end_time": 42.6659091,
                "pitch": 79,
                "velocity": 64,
                "duration": 0.1340909,
                "tempo": 120.0
            },
            {
                "start_time": 42.5318182,
                "end_time": 42.6659091,
                "pitch": 91,
                "velocity": 64,
                "duration": 0.1340909,
                "tempo": 120.0
            },
            {
                "start_time": 42.6659091,
                "end_time": 42.7977273,
                "pitch": 79,
                "velocity": 64,
                "duration": 0.1318182,
                "tempo": 120.0
            },
            {
                "start_time": 42.6659091,
                "end_time": 42.7977273,
                "pitch": 91,
                "velocity": 64,
                "duration": 0.1318182,
                "tempo": 120.0
            },
            {
                "start_time": 42.7977273,
                "end_time": 42.9477273,
                "pitch": 79,
                "velocity": 64,
                "duration": 0.15,
                "tempo": 120.0
            },
            {
                "start_time": 42.7977273,
                "end_time": 42.9477273,
                "pitch": 91,
                "velocity": 64,
                "duration": 0.15,
                "tempo": 120.0
            },
            {
                "start_time": 42.9477273,
                "end_time": 43.0818182,
                "pitch": 79,
                "velocity": 64,
                "duration": 0.1340909,
                "tempo": 120.0
            },
            {
                "start_time": 42.9477273,
                "end_time": 43.0818182,
                "pitch": 91,
                "velocity": 64,
                "duration": 0.1340909,
                "tempo": 120.0
            },
            {
                "start_time": 43.0818182,
                "end_time": 43.2159091,
                "pitch": 79,
                "velocity": 64,
                "duration": 0.1340909,
                "tempo": 120.0
            },
            {
                "start_time": 43.0818182,
                "end_time": 43.2159091,
                "pitch": 91,
                "velocity": 64,
                "duration": 0.1340909,
                "tempo": 120.0
            },
            {
                "start_time": 43.2159091,
                "end_time": 43.3704545,
                "pitch": 79,
                "velocity": 64,
                "duration": 0.1545455,
                "tempo": 120.0
            },
            {
                "start_time": 43.2159091,
                "end_time": 43.3704545,
                "pitch": 91,
                "velocity": 64,
                "duration": 0.1545455,
                "tempo": 120.0
            },
            {
                "start_time": 43.3704545,
                "end_time": 43.5045455,
                "pitch": 79,
                "velocity": 64,
                "duration": 0.1340909,
                "tempo": 120.0
            },
            {
                "start_time": 43.3704545,
                "end_time": 43.5045455,
                "pitch": 91,
                "velocity": 64,
                "duration": 0.1340909,
                "tempo": 120.0
            },
            {
                "start_time": 43.5045455,
                "end_time": 43.6409091,
                "pitch": 79,
                "velocity": 64,
                "duration": 0.1363636,
                "tempo": 120.0
            },
            {
                "start_time": 43.5045455,
                "end_time": 43.6409091,
                "pitch": 91,
                "velocity": 64,
                "duration": 0.1363636,
                "tempo": 120.0
            },
            {
                "start_time": 43.6409091,
                "end_time": 43.7772727,
                "pitch": 79,
                "velocity": 64,
                "duration": 0.1363636,
                "tempo": 120.0
            },
            {
                "start_time": 43.7772727,
                "end_time": 44.8045455,
                "pitch": 84,
                "velocity": 64,
                "duration": 1.0272727,
                "tempo": 120.0
            },
            {
                "start_time": 44.8045455,
                "end_time": 45.8227273,
                "pitch": 84,
                "velocity": 64,
                "duration": 1.0181818,
                "tempo": 120.0
            },
            {
                "start_time": 45.8227273,
                "end_time": 46.4931818,
                "pitch": 84,
                "velocity": 64,
                "duration": 0.6704545,
                "tempo": 120.0
            },
            {
                "start_time": 46.4931818,
                "end_time": 47.4681818,
                "pitch": 83,
                "velocity": 64,
                "duration": 0.975,
                "tempo": 120.0
            },
            {
                "start_time": 47.4704545,
                "end_time": 49.1159091,
                "pitch": 81,
                "velocity": 64,
                "duration": 1.6454545,
                "tempo": 120.0
            },
            {
                "start_time": 49.1159091,
                "end_time": 50.1431818,
                "pitch": 81,
                "velocity": 64,
                "duration": 1.0272727,
                "tempo": 120.0
            },
            {
                "start_time": 50.1454545,
                "end_time": 51.7909091,
                "pitch": 81,
                "velocity": 64,
                "duration": 1.6454545,
                "tempo": 120.0
            },
            {
                "start_time": 51.7909091,
                "end_time": 52.1431818,
                "pitch": 83,
                "velocity": 64,
                "duration": 0.3522727,
                "tempo": 120.0
            },
            {
                "start_time": 52.1431818,
                "end_time": 52.825,
                "pitch": 84,
                "velocity": 64,
                "duration": 0.6818182,
                "tempo": 120.0
            },
            {
                "start_time": 52.825,
                "end_time": 54.4840909,
                "pitch": 86,
                "velocity": 64,
                "duration": 1.6590909,
                "tempo": 120.0
            },
            {
                "start_time": 54.4840909,
                "end_time": 55.4863636,
                "pitch": 88,
                "velocity": 64,
                "duration": 1.0022727,
                "tempo": 120.0
            },
            {
                "start_time": 55.4863636,
                "end_time": 57.1659091,
                "pitch": 88,
                "velocity": 64,
                "duration": 1.6795455,
                "tempo": 120.0
            },
            {
                "start_time": 57.1659091,
                "end_time": 58.1795455,
                "pitch": 86,
                "velocity": 64,
                "duration": 1.0136364,
                "tempo": 120.0
            },
            {
                "start_time": 58.1795455,
                "end_time": 59.8431818,
                "pitch": 86,
                "velocity": 64,
                "duration": 1.6636364,
                "tempo": 120.0
            },
            {
                "start_time": 59.8454545,
                "end_time": 60.7340909,
                "pitch": 84,
                "velocity": 64,
                "duration": 0.8886364,
                "tempo": 120.0
            },
            {
                "start_time": 60.7340909,
                "end_time": 61.2477273,
                "pitch": 84,
                "velocity": 64,
                "duration": 0.5136364,
                "tempo": 120.0
            },
            {
                "start_time": 61.2477273,
                "end_time": 62.2431818,
                "pitch": 84,
                "velocity": 64,
                "duration": 0.9954545,
                "tempo": 120.0
            },
            {
                "start_time": 62.2431818,
                "end_time": 62.575,
                "pitch": 83,
                "velocity": 64,
                "duration": 0.3318182,
                "tempo": 120.0
            },
            {
                "start_time": 62.575,
                "end_time": 63.2227273,
                "pitch": 81,
                "velocity": 64,
                "duration": 0.6477273,
                "tempo": 120.0
            },
            {
                "start_time": 63.2227273,
                "end_time": 63.4954545,
                "pitch": 79,
                "velocity": 64,
                "duration": 0.2727273,
                "tempo": 120.0
            },
            {
                "start_time": 43.6409091,
                "end_time": 63.4954545,
                "pitch": 91,
                "velocity": 64,
                "duration": 19.8545455,
                "tempo": 120.0
            },
            {
                "start_time": 63.4954545,
                "end_time": 63.6409091,
                "pitch": 79,
                "velocity": 64,
                "duration": 0.1454545,
                "tempo": 120.0
            },
            {
                "start_time": 63.4954545,
                "end_time": 63.6409091,
                "pitch": 91,
                "velocity": 64,
                "duration": 0.1454545,
                "tempo": 120.0
            },
            {
                "start_time": 63.6409091,
                "end_time": 63.7704545,
                "pitch": 79,
                "velocity": 64,
                "duration": 0.1295455,
                "tempo": 120.0
            },
            {
                "start_time": 63.6409091,
                "end_time": 63.7704545,
                "pitch": 91,
                "velocity": 64,
                "duration": 0.1295455,
                "tempo": 120.0
            },
            {
                "start_time": 63.7704545,
                "end_time": 63.9022727,
                "pitch": 79,
                "velocity": 64,
                "duration": 0.1318182,
                "tempo": 120.0
            },
            {
                "start_time": 63.7704545,
                "end_time": 63.9022727,
                "pitch": 91,
                "velocity": 64,
                "duration": 0.1318182,
                "tempo": 120.0
            },
            {
                "start_time": 63.9022727,
                "end_time": 64.0545455,
                "pitch": 79,
                "velocity": 64,
                "duration": 0.1522727,
                "tempo": 120.0
            },
            {
                "start_time": 63.9022727,
                "end_time": 64.0545455,
                "pitch": 91,
                "velocity": 64,
                "duration": 0.1522727,
                "tempo": 120.0
            },
            {
                "start_time": 64.0545455,
                "end_time": 64.1909091,
                "pitch": 79,
                "velocity": 64,
                "duration": 0.1363636,
                "tempo": 120.0
            },
            {
                "start_time": 64.0545455,
                "end_time": 64.1909091,
                "pitch": 91,
                "velocity": 64,
                "duration": 0.1363636,
                "tempo": 120.0
            },
            {
                "start_time": 64.1909091,
                "end_time": 64.3272727,
                "pitch": 79,
                "velocity": 64,
                "duration": 0.1363636,
                "tempo": 120.0
            },
            {
                "start_time": 64.1909091,
                "end_time": 64.3272727,
                "pitch": 91,
                "velocity": 64,
                "duration": 0.1363636,
                "tempo": 120.0
            },
            {
                "start_time": 64.3272727,
                "end_time": 64.4795455,
                "pitch": 79,
                "velocity": 64,
                "duration": 0.1522727,
                "tempo": 120.0
            },
            {
                "start_time": 64.3272727,
                "end_time": 64.4795455,
                "pitch": 91,
                "velocity": 64,
                "duration": 0.1522727,
                "tempo": 120.0
            },
            {
                "start_time": 64.4795455,
                "end_time": 64.6090909,
                "pitch": 79,
                "velocity": 64,
                "duration": 0.1295455,
                "tempo": 120.0
            },
            {
                "start_time": 64.4795455,
                "end_time": 64.6090909,
                "pitch": 91,
                "velocity": 64,
                "duration": 0.1295455,
                "tempo": 120.0
            },
            {
                "start_time": 64.6090909,
                "end_time": 64.7409091,
                "pitch": 79,
                "velocity": 64,
                "duration": 0.1318182,
                "tempo": 120.0
            },
            {
                "start_time": 64.6090909,
                "end_time": 64.7409091,
                "pitch": 91,
                "velocity": 64,
                "duration": 0.1318182,
                "tempo": 120.0
            },
            {
                "start_time": 64.7409091,
                "end_time": 64.8863636,
                "pitch": 79,
                "velocity": 64,
                "duration": 0.1454545,
                "tempo": 120.0
            },
            {
                "start_time": 64.7409091,
                "end_time": 64.8863636,
                "pitch": 91,
                "velocity": 64,
                "duration": 0.1454545,
                "tempo": 120.0
            },
            {
                "start_time": 64.8863636,
                "end_time": 65.0159091,
                "pitch": 79,
                "velocity": 64,
                "duration": 0.1295455,
                "tempo": 120.0
            },
            {
                "start_time": 64.8863636,
                "end_time": 65.0159091,
                "pitch": 91,
                "velocity": 64,
                "duration": 0.1295455,
                "tempo": 120.0
            },
            {
                "start_time": 65.0159091,
                "end_time": 65.1454545,
                "pitch": 79,
                "velocity": 64,
                "duration": 0.1295455,
                "tempo": 120.0
            },
            {
                "start_time": 65.0159091,
                "end_time": 65.1454545,
                "pitch": 91,
                "velocity": 64,
                "duration": 0.1295455,
                "tempo": 120.0
            },
            {
                "start_time": 65.1454545,
                "end_time": 65.2977273,
                "pitch": 79,
                "velocity": 64,
                "duration": 0.1522727,
                "tempo": 120.0
            },
            {
                "start_time": 65.1454545,
                "end_time": 65.2977273,
                "pitch": 91,
                "velocity": 64,
                "duration": 0.1522727,
                "tempo": 120.0
            },
            {
                "start_time": 65.2977273,
                "end_time": 65.4318182,
                "pitch": 79,
                "velocity": 64,
                "duration": 0.1340909,
                "tempo": 120.0
            },
            {
                "start_time": 65.2977273,
                "end_time": 65.4318182,
                "pitch": 91,
                "velocity": 64,
                "duration": 0.1340909,
                "tempo": 120.0
            },
            {
                "start_time": 65.4318182,
                "end_time": 65.5659091,
                "pitch": 79,
                "velocity": 64,
                "duration": 0.1340909,
                "tempo": 120.0
            },
            {
                "start_time": 65.4318182,
                "end_time": 65.5659091,
                "pitch": 91,
                "velocity": 64,
                "duration": 0.1340909,
                "tempo": 120.0
            },
            {
                "start_time": 65.5659091,
                "end_time": 65.7181818,
                "pitch": 79,
                "velocity": 64,
                "duration": 0.1522727,
                "tempo": 120.0
            },
            {
                "start_time": 65.5659091,
                "end_time": 65.7181818,
                "pitch": 91,
                "velocity": 64,
                "duration": 0.1522727,
                "tempo": 120.0
            },
            {
                "start_time": 65.7181818,
                "end_time": 65.8022727,
                "pitch": 79,
                "velocity": 64,
                "duration": 0.0840909,
                "tempo": 120.0
            },
            {
                "start_time": 65.8022727,
                "end_time": 65.8522727,
                "pitch": 84,
                "velocity": 64,
                "duration": 0.05,
                "tempo": 120.0
            }
        ],
        "Vibraphone": [
            {
                "start_time": 0.8454545,
                "end_time": 1.2318182,
                "pitch": 84,
                "velocity": 40,
                "duration": 0.3863636,
                "tempo": 120.0
            },
            {
                "start_time": 1.2318182,
                "end_time": 3.5931818,
                "pitch": 83,
                "velocity": 40,
                "duration": 2.3613636,
                "tempo": 120.0
            },
            {
                "start_time": 3.5931818,
                "end_time": 3.9454545,
                "pitch": 84,
                "velocity": 40,
                "duration": 0.3522727,
                "tempo": 120.0
            },
            {
                "start_time": 3.9454545,
                "end_time": 6.2818182,
                "pitch": 83,
                "velocity": 40,
                "duration": 2.3363636,
                "tempo": 120.0
            },
            {
                "start_time": 6.2818182,
                "end_time": 6.6363636,
                "pitch": 83,
                "velocity": 40,
                "duration": 0.3545455,
                "tempo": 120.0
            },
            {
                "start_time": 6.6386364,
                "end_time": 6.9909091,
                "pitch": 84,
                "velocity": 40,
                "duration": 0.3522727,
                "tempo": 120.0
            },
            {
                "start_time": 6.9931818,
                "end_time": 7.6636364,
                "pitch": 84,
                "velocity": 40,
                "duration": 0.6704545,
                "tempo": 120.0
            },
            {
                "start_time": 7.6636364,
                "end_time": 8.3340909,
                "pitch": 84,
                "velocity": 40,
                "duration": 0.6704545,
                "tempo": 120.0
            },
            {
                "start_time": 8.3340909,
                "end_time": 9.3227273,
                "pitch": 84,
                "velocity": 40,
                "duration": 0.9886364,
                "tempo": 120.0
            },
            {
                "start_time": 9.3227273,
                "end_time": 9.65,
                "pitch": 86,
                "velocity": 40,
                "duration": 0.3272727,
                "tempo": 120.0
            },
            {
                "start_time": 9.65,
                "end_time": 11.6568182,
                "pitch": 84,
                "velocity": 40,
                "duration": 2.0068182,
                "tempo": 120.0
            },
            {
                "start_time": 11.6568182,
                "end_time": 11.9954545,
                "pitch": 84,
                "velocity": 40,
                "duration": 0.3386364,
                "tempo": 120.0
            },
            {
                "start_time": 11.9977273,
                "end_time": 14.2954545,
                "pitch": 83,
                "velocity": 40,
                "duration": 2.2977273,
                "tempo": 120.0
            },
            {
                "start_time": 14.2977273,
                "end_time": 14.6522727,
                "pitch": 84,
                "velocity": 40,
                "duration": 0.3545455,
                "tempo": 120.0
            },
            {
                "start_time": 14.6522727,
                "end_time": 16.9840909,
                "pitch": 83,
                "velocity": 40,
                "duration": 2.3318182,
                "tempo": 120.0
            },
            {
                "start_time": 16.9863636,
                "end_time": 17.3454545,
                "pitch": 83,
                "velocity": 40,
                "duration": 0.3590909,
                "tempo": 120.0
            },
            {
                "start_time": 17.3454545,
                "end_time": 17.7022727,
                "pitch": 84,
                "velocity": 40,
                "duration": 0.3568182,
                "tempo": 120.0
            },
            {
                "start_time": 17.7045455,
                "end_time": 18.375,
                "pitch": 84,
                "velocity": 40,
                "duration": 0.6704545,
                "tempo": 120.0
            },
            {
                "start_time": 18.375,
                "end_time": 19.0454545,
                "pitch": 84,
                "velocity": 40,
                "duration": 0.6704545,
                "tempo": 120.0
            },
            {
                "start_time": 19.0454545,
                "end_time": 20.0295455,
                "pitch": 84,
                "velocity": 40,
                "duration": 0.9840909,
                "tempo": 120.0
            },
            {
                "start_time": 20.0295455,
                "end_time": 20.3522727,
                "pitch": 83,
                "velocity": 40,
                "duration": 0.3227273,
                "tempo": 120.0
            },
            {
                "start_time": 20.3545455,
                "end_time": 21.0227273,
                "pitch": 81,
                "velocity": 40,
                "duration": 0.6681818,
                "tempo": 120.0
            },
            {
                "start_time": 21.0227273,
                "end_time": 21.9068182,
                "pitch": 79,
                "velocity": 40,
                "duration": 0.8840909,
                "tempo": 120.0
            },
            {
                "start_time": 21.9068182,
                "end_time": 22.4431818,
                "pitch": 91,
                "velocity": 40,
                "duration": 0.5363636,
                "tempo": 120.0
            },
            {
                "start_time": 22.4431818,
                "end_time": 23.4113636,
                "pitch": 84,
                "velocity": 40,
                "duration": 0.9681818,
                "tempo": 120.0
            },
            {
                "start_time": 23.4113636,
                "end_time": 24.4318182,
                "pitch": 84,
                "velocity": 40,
                "duration": 1.0204545,
                "tempo": 120.0
            },
            {
                "start_time": 24.4318182,
                "end_time": 25.1,
                "pitch": 84,
                "velocity": 40,
                "duration": 0.6681818,
                "tempo": 120.0
            },
            {
                "start_time": 25.1022727,
                "end_time": 26.0863636,
                "pitch": 83,
                "velocity": 40,
                "duration": 0.9840909,
                "tempo": 120.0
            },
            {
                "start_time": 26.0863636,
                "end_time": 27.7454545,
                "pitch": 81,
                "velocity": 40,
                "duration": 1.6590909,
                "tempo": 120.0
            },
            {
                "start_time": 27.7454545,
                "end_time": 28.7590909,
                "pitch": 81,
                "velocity": 40,
                "duration": 1.0136364,
                "tempo": 120.0
            },
            {
                "start_time": 28.7590909,
                "end_time": 30.4272727,
                "pitch": 81,
                "velocity": 40,
                "duration": 1.6681818,
                "tempo": 120.0
            },
            {
                "start_time": 30.4272727,
                "end_time": 31.4477273,
                "pitch": 83,
                "velocity": 40,
                "duration": 1.0204545,
                "tempo": 120.0
            },
            {
                "start_time": 31.4477273,
                "end_time": 33.1068182,
                "pitch": 83,
                "velocity": 40,
                "duration": 1.6590909,
                "tempo": 120.0
            },
            {
                "start_time": 33.1068182,
                "end_time": 34.1318182,
                "pitch": 84,
                "velocity": 40,
                "duration": 1.025,
                "tempo": 120.0
            },
            {
                "start_time": 34.1340909,
                "end_time": 35.1454545,
                "pitch": 84,
                "velocity": 40,
                "duration": 1.0113636,
                "tempo": 120.0
            },
            {
                "start_time": 35.1454545,
                "end_time": 35.8136364,
                "pitch": 84,
                "velocity": 40,
                "duration": 0.6681818,
                "tempo": 120.0
            },
            {
                "start_time": 35.8136364,
                "end_time": 36.7909091,
                "pitch": 83,
                "velocity": 40,
                "duration": 0.9772727,
                "tempo": 120.0
            },
            {
                "start_time": 36.7909091,
                "end_time": 37.7886364,
                "pitch": 81,
                "velocity": 40,
                "duration": 0.9977273,
                "tempo": 120.0
            },
            {
                "start_time": 37.7886364,
                "end_time": 38.4659091,
                "pitch": 79,
                "velocity": 40,
                "duration": 0.6772727,
                "tempo": 120.0
            },
            {
                "start_time": 38.4659091,
                "end_time": 39.4772727,
                "pitch": 81,
                "velocity": 40,
                "duration": 1.0113636,
                "tempo": 120.0
            },
            {
                "start_time": 39.4795455,
                "end_time": 41.1318182,
                "pitch": 81,
                "velocity": 40,
                "duration": 1.6522727,
                "tempo": 120.0
            },
            {
                "start_time": 41.1318182,
                "end_time": 41.4681818,
                "pitch": 83,
                "velocity": 40,
                "duration": 0.3363636,
                "tempo": 120.0
            },
            {
                "start_time": 41.4681818,
                "end_time": 42.1340909,
                "pitch": 81,
                "velocity": 40,
                "duration": 0.6659091,
                "tempo": 120.0
            },
            {
                "start_time": 42.1340909,
                "end_time": 43.8113636,
                "pitch": 79,
                "velocity": 40,
                "duration": 1.6772727,
                "tempo": 120.0
            },
            {
                "start_time": 43.8113636,
                "end_time": 44.8386364,
                "pitch": 84,
                "velocity": 40,
                "duration": 1.0272727,
                "tempo": 120.0
            },
            {
                "start_time": 44.8386364,
                "end_time": 45.8568182,
                "pitch": 84,
                "velocity": 40,
                "duration": 1.0181818,
                "tempo": 120.0
            },
            {
                "start_time": 45.8568182,
                "end_time": 46.525,
                "pitch": 84,
                "velocity": 40,
                "duration": 0.6681818,
                "tempo": 120.0
            },
            {
                "start_time": 46.5272727,
                "end_time": 47.5022727,
                "pitch": 83,
                "velocity": 40,
                "duration": 0.975,
                "tempo": 120.0
            },
            {
                "start_time": 47.5022727,
                "end_time": 49.15,
                "pitch": 81,
                "velocity": 40,
                "duration": 1.6477273,
                "tempo": 120.0
            },
            {
                "start_time": 49.15,
                "end_time": 50.1795455,
                "pitch": 81,
                "velocity": 40,
                "duration": 1.0295455,
                "tempo": 120.0
            },
            {
                "start_time": 50.1795455,
                "end_time": 51.8272727,
                "pitch": 81,
                "velocity": 40,
                "duration": 1.6477273,
                "tempo": 120.0
            },
            {
                "start_time": 51.8272727,
                "end_time": 52.1772727,
                "pitch": 83,
                "velocity": 40,
                "duration": 0.35,
                "tempo": 120.0
            },
            {
                "start_time": 52.1795455,
                "end_time": 52.8568182,
                "pitch": 84,
                "velocity": 40,
                "duration": 0.6772727,
                "tempo": 120.0
            },
            {
                "start_time": 52.8590909,
                "end_time": 54.5159091,
                "pitch": 86,
                "velocity": 40,
                "duration": 1.6568182,
                "tempo": 120.0
            },
            {
                "start_time": 54.5159091,
                "end_time": 55.5227273,
                "pitch": 88,
                "velocity": 40,
                "duration": 1.0068182,
                "tempo": 120.0
            },
            {
                "start_time": 55.5227273,
                "end_time": 57.2,
                "pitch": 88,
                "velocity": 40,
                "duration": 1.6772727,
                "tempo": 120.0
            },
            {
                "start_time": 57.2,
                "end_time": 58.2136364,
                "pitch": 86,
                "velocity": 40,
                "duration": 1.0136364,
                "tempo": 120.0
            },
            {
                "start_time": 58.2136364,
                "end_time": 59.875,
                "pitch": 86,
                "velocity": 40,
                "duration": 1.6613636,
                "tempo": 120.0
            },
            {
                "start_time": 59.875,
                "end_time": 60.7613636,
                "pitch": 84,
                "velocity": 40,
                "duration": 0.8863636,
                "tempo": 120.0
            },
            {
                "start_time": 60.7613636,
                "end_time": 61.2795455,
                "pitch": 84,
                "velocity": 40,
                "duration": 0.5181818,
                "tempo": 120.0
            },
            {
                "start_time": 61.2795455,
                "end_time": 62.275,
                "pitch": 84,
                "velocity": 40,
                "duration": 0.9954545,
                "tempo": 120.0
            },
            {
                "start_time": 62.2772727,
                "end_time": 62.6068182,
                "pitch": 83,
                "velocity": 40,
                "duration": 0.3295455,
                "tempo": 120.0
            },
            {
                "start_time": 62.6068182,
                "end_time": 63.2545455,
                "pitch": 81,
                "velocity": 40,
                "duration": 0.6477273,
                "tempo": 120.0
            },
            {
                "start_time": 63.2568182,
                "end_time": 65.8522727,
                "pitch": 79,
                "velocity": 40,
                "duration": 2.5954545,
                "tempo": 120.0
            }
        ]
    }
}