{
    "mood": "relaxed",
    "instruments": {
        "Acoustic Guitar (nylon)": [
            {
                "start_time": 0.1863636,
                "end_time": 0.2590909,
                "pitch": 103,
                "velocity": 8,
                "duration": 0.0727273,
                "tempo": 120.0
            },
            {
                "start_time": 0.2590909,
                "end_time": 0.3590909,
                "pitch": 100,
                "velocity": 8,
                "duration": 0.1,
                "tempo": 120.0
            },
            {
                "start_time": 0.3590909,
                "end_time": 0.4590909,
                "pitch": 96,
                "velocity": 10,
                "duration": 0.1,
                "tempo": 120.0
            },
            {
                "start_time": 0.4590909,
                "end_time": 0.5590909,
                "pitch": 101,
                "velocity": 10,
                "duration": 0.1,
                "tempo": 120.0
            },
            {
                "start_time": 0.5613636,
                "end_time": 0.6590909,
                "pitch": 100,
                "velocity": 13,
                "duration": 0.0977273,
                "tempo": 120.0
            },
            {
                "start_time": 0.6613636,
                "end_time": 0.7613636,
                "pitch": 107,
                "velocity": 16,
                "duration": 0.1,
                "tempo": 120.0
            },
            {
                "start_time": 0.7613636,
                "end_time": 0.8613636,
                "pitch": 103,
                "velocity": 16,
                "duration": 0.1,
                "tempo": 120.0
            },
            {
                "start_time": 0.8613636,
                "end_time": 0.9636364,
                "pitch": 100,
                "velocity": 16,
                "duration": 0.1022727,
                "tempo": 120.0
            },
            {
                "start_time": 0.9636364,
                "end_time": 1.0681818,
                "pitch": 96,
                "velocity": 16,
                "duration": 0.1045455,
                "tempo": 120.0
            },
            {
                "start_time": 1.0681818,
                "end_time": 1.1727273,
                "pitch": 101,
                "velocity": 16,
                "duration": 0.1045455,
                "tempo": 120.0
            },
            {
                "start_time": 1.1727273,
                "end_time": 1.275,
                "pitch": 100,
                "velocity": 16,
                "duration": 0.1022727,
                "tempo": 120.0
            },
            {
                "start_time": 1.275,
                "end_time": 1.3795455,
                "pitch": 107,
                "velocity": 16,
                "duration": 0.1045455,
                "tempo": 120.0
            },
            {
                "start_time": 1.3795455,
                "end_time": 1.4818182,
                "pitch": 103,
                "velocity": 13,
                "duration": 0.1022727,
                "tempo": 120.0
            },
            {
                "start_time": 1.4840909,
                "end_time": 1.5863636,
                "pitch": 100,
                "velocity": 13,
                "duration": 0.1022727,
                "tempo": 120.0
            },
            {
                "start_time": 1.5863636,
                "end_time": 1.6818182,
                "pitch": 96,
                "velocity": 13,
                "duration": 0.0954545,
                "tempo": 120.0
            },
            {
                "start_time": 1.6818182,
                "end_time": 1.7795455,
                "pitch": 101,
                "velocity": 13,
                "duration": 0.0977273,
                "tempo": 120.0
            },
            {
                "start_time": 1.7795455,
                "end_time": 1.8772727,
                "pitch": 100,
                "velocity": 13,
                "duration": 0.0977273,
                "tempo": 120.0
            },
            {
                "start_time": 1.8772727,
                "end_time": 1.975,
                "pitch": 107,
                "velocity": 13,
                "duration": 0.0977273,
                "tempo": 120.0
            },
            {
                "start_time": 1.975,
                "end_time": 2.0704545,
                "pitch": 103,
                "velocity": 10,
                "duration": 0.0954545,
                "tempo": 120.0
            },
            {
                "start_time": 2.0727273,
                "end_time": 2.1681818,
                "pitch": 100,
                "velocity": 10,
                "duration": 0.0954545,
                "tempo": 120.0
            },
            {
                "start_time": 2.1704545,
                "end_time": 2.2681818,
                "pitch": 96,
                "velocity": 10,
                "duration": 0.0977273,
                "tempo": 120.0
            },
            {
                "start_time": 2.2681818,
                "end_time": 2.3681818,
                "pitch": 101,
                "velocity": 10,
                "duration": 0.1,
                "tempo": 120.0
            },
            {
                "start_time": 2.3681818,
                "end_time": 2.4659091,
                "pitch": 100,
                "velocity": 10,
                "duration": 0.0977273,
                "tempo": 120.0
            },
            {
                "start_time": 2.4659091,
                "end_time": 2.5659091,
                "pitch": 107,
                "velocity": 10,
                "duration": 0.1,
                "tempo": 120.0
            },
            {
                "start_time": 2.5681818,
                "end_time": 2.6659091,
                "pitch": 103,
                "velocity": 8,
                "duration": 0.0977273,
                "tempo": 120.0
            },
            {
                "start_time": 2.6659091,
                "end_time": 2.7659091,
                "pitch": 100,
                "velocity": 8,
                "duration": 0.1,
                "tempo": 120.0
            },
            {
                "start_time": 2.7659091,
                "end_time": 2.8636364,
                "pitch": 96,
                "velocity": 8,
                "duration": 0.0977273,
                "tempo": 120.0
            },
            {
                "start_time": 2.8659091,
                "end_time": 2.9659091,
                "pitch": 101,
                "velocity": 8,
                "duration": 0.1,
                "tempo": 120.0
            },
            {
                "start_time": 2.9659091,
                "end_time": 3.0659091,
                "pitch": 100,
                "velocity": 8,
                "duration": 0.1,
                "tempo": 120.0
            },
            {
                "start_time": 3.0659091,
                "end_time": 3.1659091,
                "pitch": 107,
                "velocity": 8,
                "duration": 0.1,
                "tempo": 120.0
            },
            {
                "start_time": 3.1681818,
                "end_time": 3.2659091,
                "pitch": 103,
                "velocity": 6,
                "duration": 0.0977273,
                "tempo": 120.0
            },
            {
                "start_time": 3.2659091,
                "end_time": 3.3681818,
                "pitch": 100,
                "velocity": 6,
                "duration": 0.1022727,
                "tempo": 120.0
            },
            {
                "start_time": 3.3681818,
                "end_time": 3.4659091,
                "pitch": 96,
                "velocity": 6,
                "duration": 0.0977273,
                "tempo": 120.0
            },
            {
                "start_time": 3.4659091,
                "end_time": 3.5613636,
                "pitch": 101,
                "velocity": 6,
                "duration": 0.0954545,
                "tempo": 120.0
            },
            {
                "start_time": 3.5613636,
                "end_time": 3.6545455,
                "pitch": 100,
                "velocity": 6,
                "duration": 0.0931818,
                "tempo": 120.0
            },
            {
                "start_time": 3.6545455,
                "end_time": 3.75,
                "pitch": 107,
                "velocity": 6,
                "duration": 0.0954545,
                "tempo": 120.0
            },
            {
                "start_time": 3.75,
                "end_time": 3.8431818,
                "pitch": 103,
                "velocity": 5,
                "duration": 0.0931818,
                "tempo": 120.0
            },
            {
                "start_time": 3.8431818,
                "end_time": 3.9386364,
                "pitch": 100,
                "velocity": 5,
                "duration": 0.0954545,
                "tempo": 120.0
            },
            {
                "start_time": 3.9386364,
                "end_time": 4.0318182,
                "pitch": 96,
                "velocity": 5,
                "duration": 0.0931818,
                "tempo": 120.0
            },
            {
                "start_time": 4.0318182,
                "end_time": 4.1318182,
                "pitch": 101,
                "velocity": 5,
                "duration": 0.1,
                "tempo": 120.0
            },
            {
                "start_time": 4.1340909,
                "end_time": 4.2340909,
                "pitch": 100,
                "velocity": 5,
                "duration": 0.1,
                "tempo": 120.0
            },
            {
                "start_time": 4.2340909,
                "end_time": 4.3386364,
                "pitch": 107,
                "velocity": 5,
                "duration": 0.1045455,
                "tempo": 120.0
            },
            {
                "start_time": 4.3386364,
                "end_time": 4.4409091,
                "pitch": 103,
                "velocity": 4,
                "duration": 0.1022727,
                "tempo": 120.0
            },
            {
                "start_time": 4.4409091,
                "end_time": 4.5431818,
                "pitch": 100,
                "velocity": 4,
                "duration": 0.1022727,
                "tempo": 120.0
            },
            {
                "start_time": 4.5431818,
                "end_time": 4.6454545,
                "pitch": 96,
                "velocity": 4,
                "duration": 0.1022727,
                "tempo": 120.0
            },
            {
                "start_time": 4.6454545,
                "end_time": 4.7454545,
                "pitch": 101,
                "velocity": 4,
                "duration": 0.1,
                "tempo": 120.0
            },
            {
                "start_time": 4.7454545,
                "end_time": 4.8409091,
                "pitch": 100,
                "velocity": 4,
                "duration": 0.0954545,
                "tempo": 120.0
            },
            {
                "start_time": 4.8409091,
                "end_time": 4.9386364,
                "pitch": 107,
                "velocity": 4,
                "duration": 0.0977273,
                "tempo": 120.0
            }
        ]
    }
}