{
    "mood": "relaxed",
    "instruments": {
        "Acoustic Bass": [
            {
                "start_time": 0.0,
                "end_time": 0.6863636,
                "pitch": 38,
                "velocity": 51,
                "duration": 0.6863636,
                "tempo": 120.0
            },
            {
                "start_time": 0.7045455,
                "end_time": 0.9727273,
                "pitch": 38,
                "velocity": 51,
                "duration": 0.2681818,
                "tempo": 120.0
            },
            {
                "start_time": 0.9886364,
                "end_time": 1.5727273,
                "pitch": 45,
                "velocity": 51,
                "duration": 0.5840909,
                "tempo": 120.0
            },
            {
                "start_time": 1.5886364,
                "end_time": 2.1795455,
                "pitch": 45,
                "velocity": 51,
                "duration": 0.5909091,
                "tempo": 120.0
            },
            {
                "start_time": 2.1954545,
                "end_time": 3.1045455,
                "pitch": 38,
                "velocity": 51,
                "duration": 0.9090909,
                "tempo": 120.0
            },
            {
                "start_time": 3.1227273,
                "end_time": 3.3909091,
                "pitch": 38,
                "velocity": 51,
                "duration": 0.2681818,
                "tempo": 120.0
            },
            {
                "start_time": 3.4068182,
                "end_time": 3.9909091,
                "pitch": 45,
                "velocity": 51,
                "duration": 0.5840909,
                "tempo": 120.0
            },
            {
                "start_time": 4.0068182,
                "end_time": 4.5977273,
                "pitch": 45,
                "velocity": 51,
                "duration": 0.5909091,
                "tempo": 120.0
            },
            {
                "start_time": 4.6136364,
                "end_time": 5.5136364,
                "pitch": 40,
                "velocity": 51,
                "duration": 0.9,
                "tempo": 120.0
            },
            {
                "start_time": 5.5295455,
                "end_time": 5.7977273,
                "pitch": 40,
                "velocity": 51,
                "duration": 0.2681818,
                "tempo": 120.0
            },
            {
                "start_time": 5.8136364,
                "end_time": 6.4022727,
                "pitch": 47,
                "velocity": 51,
                "duration": 0.5886364,
                "tempo": 120.0
            },
            {
                "start_time": 6.4204545,
                "end_time": 7.0022727,
                "pitch": 47,
                "velocity": 51,
                "duration": 0.5818182,
                "tempo": 120.0
            },
            {
                "start_time": 7.0204545,
                "end_time": 7.925,
                "pitch": 40,
                "velocity": 51,
                "duration": 0.9045455,
                "tempo": 120.0
            },
            {
                "start_time": 7.9431818,
                "end_time": 8.2090909,
                "pitch": 40,
                "velocity": 51,
                "duration": 0.2659091,
                "tempo": 120.0
            },
            {
                "start_time": 8.225,
                "end_time": 8.8090909,
                "pitch": 47,
                "velocity": 51,
                "duration": 0.5840909,
                "tempo": 120.0
            },
            {
                "start_time": 8.825,
                "end_time": 9.4090909,
                "pitch": 47,
                "velocity": 51,
                "duration": 0.5840909,
                "tempo": 120.0
            },
            {
                "start_time": 9.425,
                "end_time": 10.3318182,
                "pitch": 42,
                "velocity": 51,
                "duration": 0.9068182,
                "tempo": 120.0
            },
            {
                "start_time": 10.3477273,
                "end_time": 10.6159091,
                "pitch": 42,
                "velocity": 51,
                "duration": 0.2681818,
                "tempo": 120.0
            },
            {
                "start_time": 10.6318182,
                "end_time": 11.2159091,
                "pitch": 49,
                "velocity": 51,
                "duration": 0.5840909,
                "tempo": 120.0
            },
            {
                "start_time": 11.2318182,
                "end_time": 11.8159091,
                "pitch": 49,
                "velocity": 51,
                "duration": 0.5840909,
                "tempo": 120.0
            },
            {
                "start_time": 11.8318182,
                "end_time": 12.7340909,
                "pitch": 42,
                "velocity": 51,
                "duration": 0.9022727,
                "tempo": 120.0
            },
            {
                "start_time": 12.7522727,
                "end_time": 13.0204545,
                "pitch": 42,
                "velocity": 51,
                "duration": 0.2681818,
                "tempo": 120.0
            },
            {
                "start_time": 13.0386364,
                "end_time": 13.6204545,
                "pitch": 49,
                "velocity": 51,
                "duration": 0.5818182,
                "tempo": 120.0
            },
            {
                "start_time": 13.6386364,
                "end_time": 14.2204545,
                "pitch": 49,
                "velocity": 51,
                "duration": 0.5818182,
                "tempo": 120.0
            },
            {
                "start_time": 14.2386364,
                "end_time": 15.1386364,
                "pitch": 38,
                "velocity": 51,
                "duration": 0.9,
                "tempo": 120.0
            },
            {
                "start_time": 15.1545455,
                "end_time": 15.4204545,
                "pitch": 38,
                "velocity": 51,
                "duration": 0.2659091,
                "tempo": 120.0
            },
            {
                "start_time": 15.4386364,
                "end_time": 16.0272727,
                "pitch": 45,
                "velocity": 51,
                "duration": 0.5886364,
                "tempo": 120.0
            },
            {
                "start_time": 16.0431818,
                "end_time": 16.6272727,
                "pitch": 45,
                "velocity": 51,
                "duration": 0.5840909,
                "tempo": 120.0
            },
            {
                "start_time": 16.6431818,
                "end_time": 17.5522727,
                "pitch": 38,
                "velocity": 51,
                "duration": 0.9090909,
                "tempo": 120.0
            },
            {
                "start_time": 17.5704545,
                "end_time": 17.8386364,
                "pitch": 38,
                "velocity": 51,
                "duration": 0.2681818,
                "tempo": 120.0
            },
            {
                "start_time": 17.8568182,
                "end_time": 18.4386364,
                "pitch": 45,
                "velocity": 51,
                "duration": 0.5818182,
                "tempo": 120.0
            },
            {
                "start_time": 18.4568182,
                "end_time": 19.0454545,
                "pitch": 45,
                "velocity": 51,
                "duration": 0.5886364,
                "tempo": 120.0
            },
            {
                "start_time": 19.0613636,
                "end_time": 19.9659091,
                "pitch": 38,
                "velocity": 51,
                "duration": 0.9045455,
                "tempo": 120.0
            },
            {
                "start_time": 19.9818182,
                "end_time": 20.2522727,
                "pitch": 38,
                "velocity": 51,
                "duration": 0.2704545,
                "tempo": 120.0
            },
            {
                "start_time": 20.2681818,
                "end_time": 20.8568182,
                "pitch": 45,
                "velocity": 51,
                "duration": 0.5886364,
                "tempo": 120.0
            },
            {
                "start_time": 20.875,
                "end_time": 21.4568182,
                "pitch": 45,
                "velocity": 51,
                "duration": 0.5818182,
                "tempo": 120.0
            },
            {
                "start_time": 21.475,
                "end_time": 22.3795455,
                "pitch": 38,
                "velocity": 51,
                "duration": 0.9045455,
                "tempo": 120.0
            },
            {
                "start_time": 22.3977273,
                "end_time": 22.6636364,
                "pitch": 38,
                "velocity": 51,
                "duration": 0.2659091,
                "tempo": 120.0
            },
            {
                "start_time": 22.6795455,
                "end_time": 23.2704545,
                "pitch": 45,
                "velocity": 51,
                "duration": 0.5909091,
                "tempo": 120.0
            },
            {
                "start_time": 23.2863636,
                "end_time": 23.875,
                "pitch": 45,
                "velocity": 51,
                "duration": 0.5886364,
                "tempo": 120.0
            },
            {
                "start_time": 23.8931818,
                "end_time": 24.7954545,
                "pitch": 40,
                "velocity": 51,
                "duration": 0.9022727,
                "tempo": 120.0
            },
            {
                "start_time": 24.8136364,
                "end_time": 25.0818182,
                "pitch": 40,
                "velocity": 51,
                "duration": 0.2681818,
                "tempo": 120.0
            },
            {
                "start_time": 25.0977273,
                "end_time": 25.6818182,
                "pitch": 47,
                "velocity": 51,
                "duration": 0.5840909,
                "tempo": 120.0
            },
            {
                "start_time": 25.6977273,
                "end_time": 26.2886364,
                "pitch": 47,
                "velocity": 51,
                "duration": 0.5909091,
                "tempo": 120.0
            },
            {
                "start_time": 26.3045455,
                "end_time": 27.2113636,
                "pitch": 40,
                "velocity": 51,
                "duration": 0.9068182,
                "tempo": 120.0
            },
            {
                "start_time": 27.2272727,
                "end_time": 27.4931818,
                "pitch": 40,
                "velocity": 51,
                "duration": 0.2659091,
                "tempo": 120.0
            },
            {
                "start_time": 27.5113636,
                "end_time": 28.1,
                "pitch": 47,
                "velocity": 51,
                "duration": 0.5886364,
                "tempo": 120.0
            },
            {
                "start_time": 28.1159091,
                "end_time": 28.7,
                "pitch": 47,
                "velocity": 51,
                "duration": 0.5840909,
                "tempo": 120.0
            },
            {
                "start_time": 28.7159091,
                "end_time": 29.625,
                "pitch": 42,
                "velocity": 51,
                "duration": 0.9090909,
                "tempo": 120.0
            },
            {
                "start_time": 29.6431818,
                "end_time": 29.9113636,
                "pitch": 42,
                "velocity": 51,
                "duration": 0.2681818,
                "tempo": 120.0
            },
            {
                "start_time": 29.9295455,
                "end_time": 30.5113636,
                "pitch": 49,
                "velocity": 51,
                "duration": 0.5818182,
                "tempo": 120.0
            },
            {
                "start_time": 30.5295455,
                "end_time": 31.1181818,
                "pitch": 49,
                "velocity": 51,
                "duration": 0.5886364,
                "tempo": 120.0
            },
            {
                "start_time": 31.1340909,
                "end_time": 32.0386364,
                "pitch": 42,
                "velocity": 51,
                "duration": 0.9045455,
                "tempo": 120.0
            },
            {
                "start_time": 32.0545455,
                "end_time": 32.325,
                "pitch": 42,
                "velocity": 51,
                "duration": 0.2704545,
                "tempo": 120.0
            },
            {
                "start_time": 32.3409091,
                "end_time": 32.9295455,
                "pitch": 49,
                "velocity": 51,
                "duration": 0.5886364,
                "tempo": 120.0
            },
            {
                "start_time": 32.9477273,
                "end_time": 33.5363636,
                "pitch": 49,
                "velocity": 51,
                "duration": 0.5886364,
                "tempo": 120.0
            },
            {
                "start_time": 33.5522727,
                "end_time": 34.4568182,
                "pitch": 38,
                "velocity": 51,
                "duration": 0.9045455,
                "tempo": 120.0
            },
            {
                "start_time": 34.4727273,
                "end_time": 34.7431818,
                "pitch": 38,
                "velocity": 51,
                "duration": 0.2704545,
                "tempo": 120.0
            },
            {
                "start_time": 34.7590909,
                "end_time": 35.3477273,
                "pitch": 45,
                "velocity": 51,
                "duration": 0.5886364,
                "tempo": 120.0
            },
            {
                "start_time": 35.3659091,
                "end_time": 35.9545455,
                "pitch": 45,
                "velocity": 51,
                "duration": 0.5886364,
                "tempo": 120.0
            },
            {
                "start_time": 35.9704545,
                "end_time": 36.8772727,
                "pitch": 38,
                "velocity": 51,
                "duration": 0.9068182,
                "tempo": 120.0
            },
            {
                "start_time": 36.8931818,
                "end_time": 37.1613636,
                "pitch": 38,
                "velocity": 51,
                "duration": 0.2681818,
                "tempo": 120.0
            },
            {
                "start_time": 37.1772727,
                "end_time": 37.7659091,
                "pitch": 45,
                "velocity": 51,
                "duration": 0.5886364,
                "tempo": 120.0
            },
            {
                "start_time": 37.7840909,
                "end_time": 38.3727273,
                "pitch": 45,
                "velocity": 51,
                "duration": 0.5886364,
                "tempo": 120.0
            }
        ],
        "French Horn": [
            {
                "start_time": 0.0,
                "end_time": 0.0227273,
                "pitch": 76,
                "velocity": 32,
                "duration": 0.0227273,
                "tempo": 120.0
            },
            {
                "start_time": 0.0227273,
                "end_time": 1.3068182,
                "pitch": 74,
                "velocity": 32,
                "duration": 1.2840909,
                "tempo": 120.0
            },
            {
                "start_time": 1.3727273,
                "end_time": 1.6227273,
                "pitch": 78,
                "velocity": 32,
                "duration": 0.25,
                "tempo": 120.0
            },
            {
                "start_time": 1.6568182,
                "end_time": 1.9090909,
                "pitch": 79,
                "velocity": 32,
                "duration": 0.2522727,
                "tempo": 120.0
            },
            {
                "start_time": 1.9772727,
                "end_time": 3.725,
                "pitch": 81,
                "velocity": 32,
                "duration": 1.7477273,
                "tempo": 120.0
            },
            {
                "start_time": 3.7909091,
                "end_time": 4.0409091,
                "pitch": 86,
                "velocity": 32,
                "duration": 0.25,
                "tempo": 120.0
            },
            {
                "start_time": 4.075,
                "end_time": 4.6477273,
                "pitch": 85,
                "velocity": 32,
                "duration": 0.5727273,
                "tempo": 120.0
            },
            {
                "start_time": 4.6795455,
                "end_time": 6.1340909,
                "pitch": 76,
                "velocity": 32,
                "duration": 1.4545455,
                "tempo": 120.0
            },
            {
                "start_time": 6.2,
                "end_time": 6.4522727,
                "pitch": 81,
                "velocity": 32,
                "duration": 0.2522727,
                "tempo": 120.0
            },
            {
                "start_time": 6.4863636,
                "end_time": 6.7363636,
                "pitch": 79,
                "velocity": 32,
                "duration": 0.25,
                "tempo": 120.0
            },
            {
                "start_time": 6.8022727,
                "end_time": 7.9431818,
                "pitch": 78,
                "velocity": 32,
                "duration": 1.1409091,
                "tempo": 120.0
            },
            {
                "start_time": 8.0090909,
                "end_time": 8.5431818,
                "pitch": 78,
                "velocity": 32,
                "duration": 0.5340909,
                "tempo": 120.0
            },
            {
                "start_time": 8.6090909,
                "end_time": 9.4590909,
                "pitch": 81,
                "velocity": 32,
                "duration": 0.85,
                "tempo": 120.0
            },
            {
                "start_time": 9.4931818,
                "end_time": 10.9477273,
                "pitch": 73,
                "velocity": 32,
                "duration": 1.4545455,
                "tempo": 120.0
            },
            {
                "start_time": 11.0159091,
                "end_time": 11.2659091,
                "pitch": 81,
                "velocity": 32,
                "duration": 0.25,
                "tempo": 120.0
            },
            {
                "start_time": 11.2977273,
                "end_time": 11.5477273,
                "pitch": 83,
                "velocity": 32,
                "duration": 0.25,
                "tempo": 120.0
            },
            {
                "start_time": 11.6159091,
                "end_time": 12.1477273,
                "pitch": 85,
                "velocity": 32,
                "duration": 0.5318182,
                "tempo": 120.0
            },
            {
                "start_time": 12.2159091,
                "end_time": 12.4659091,
                "pitch": 85,
                "velocity": 32,
                "duration": 0.25,
                "tempo": 120.0
            },
            {
                "start_time": 12.5,
                "end_time": 12.7522727,
                "pitch": 81,
                "velocity": 32,
                "duration": 0.2522727,
                "tempo": 120.0
            },
            {
                "start_time": 12.8181818,
                "end_time": 13.3545455,
                "pitch": 83,
                "velocity": 32,
                "duration": 0.5363636,
                "tempo": 120.0
            },
            {
                "start_time": 13.4204545,
                "end_time": 14.2704545,
                "pitch": 83,
                "velocity": 32,
                "duration": 0.85,
                "tempo": 120.0
            },
            {
                "start_time": 14.3045455,
                "end_time": 15.1545455,
                "pitch": 79,
                "velocity": 32,
                "duration": 0.85,
                "tempo": 120.0
            },
            {
                "start_time": 15.2204545,
                "end_time": 16.6772727,
                "pitch": 78,
                "velocity": 32,
                "duration": 1.4568182,
                "tempo": 120.0
            },
            {
                "start_time": 16.7113636,
                "end_time": 17.5704545,
                "pitch": 74,
                "velocity": 32,
                "duration": 0.8590909,
                "tempo": 120.0
            },
            {
                "start_time": 17.6363636,
                "end_time": 19.0954545,
                "pitch": 74,
                "velocity": 32,
                "duration": 1.4590909,
                "tempo": 120.0
            },
            {
                "start_time": 19.1295455,
                "end_time": 20.5886364,
                "pitch": 74,
                "velocity": 32,
                "duration": 1.4590909,
                "tempo": 120.0
            },
            {
                "start_time": 20.6545455,
                "end_time": 20.9068182,
                "pitch": 78,
                "velocity": 32,
                "duration": 0.2522727,
                "tempo": 120.0
            },
            {
                "start_time": 20.9409091,
                "end_time": 21.1909091,
                "pitch": 79,
                "velocity": 32,
                "duration": 0.25,
                "tempo": 120.0
            },
            {
                "start_time": 21.2568182,
                "end_time": 23.0,
                "pitch": 81,
                "velocity": 32,
                "duration": 1.7431818,
                "tempo": 120.0
            },
            {
                "start_time": 23.0681818,
                "end_time": 23.3204545,
                "pitch": 86,
                "velocity": 32,
                "duration": 0.2522727,
                "tempo": 120.0
            },
            {
                "start_time": 23.3545455,
                "end_time": 23.925,
                "pitch": 85,
                "velocity": 32,
                "duration": 0.5704545,
                "tempo": 120.0
            },
            {
                "start_time": 23.9590909,
                "end_time": 25.4159091,
                "pitch": 76,
                "velocity": 32,
                "duration": 1.4568182,
                "tempo": 120.0
            },
            {
                "start_time": 25.4818182,
                "end_time": 25.7318182,
                "pitch": 81,
                "velocity": 32,
                "duration": 0.25,
                "tempo": 120.0
            },
            {
                "start_time": 25.7659091,
                "end_time": 26.0181818,
                "pitch": 79,
                "velocity": 32,
                "duration": 0.2522727,
                "tempo": 120.0
            },
            {
                "start_time": 26.0863636,
                "end_time": 27.2272727,
                "pitch": 78,
                "velocity": 32,
                "duration": 1.1409091,
                "tempo": 120.0
            },
            {
                "start_time": 27.2931818,
                "end_time": 27.8318182,
                "pitch": 78,
                "velocity": 32,
                "duration": 0.5386364,
                "tempo": 120.0
            },
            {
                "start_time": 27.8977273,
                "end_time": 28.75,
                "pitch": 81,
                "velocity": 32,
                "duration": 0.8522727,
                "tempo": 120.0
            },
            {
                "start_time": 28.7840909,
                "end_time": 30.2454545,
                "pitch": 73,
                "velocity": 32,
                "duration": 1.4613636,
                "tempo": 120.0
            },
            {
                "start_time": 30.3113636,
                "end_time": 30.5636364,
                "pitch": 81,
                "velocity": 32,
                "duration": 0.2522727,
                "tempo": 120.0
            },
            {
                "start_time": 30.5954545,
                "end_time": 30.85,
                "pitch": 83,
                "velocity": 32,
                "duration": 0.2545455,
                "tempo": 120.0
            },
            {
                "start_time": 30.9159091,
                "end_time": 31.4522727,
                "pitch": 85,
                "velocity": 32,
                "duration": 0.5363636,
                "tempo": 120.0
            },
            {
                "start_time": 31.5181818,
                "end_time": 31.7681818,
                "pitch": 85,
                "velocity": 32,
                "duration": 0.25,
                "tempo": 120.0
            },
            {
                "start_time": 31.8022727,
                "end_time": 32.0545455,
                "pitch": 81,
                "velocity": 32,
                "duration": 0.2522727,
                "tempo": 120.0
            },
            {
                "start_time": 32.1227273,
                "end_time": 32.6613636,
                "pitch": 83,
                "velocity": 32,
                "duration": 0.5386364,
                "tempo": 120.0
            },
            {
                "start_time": 32.7272727,
                "end_time": 33.5863636,
                "pitch": 83,
                "velocity": 32,
                "duration": 0.8590909,
                "tempo": 120.0
            },
            {
                "start_time": 33.6204545,
                "end_time": 34.4727273,
                "pitch": 79,
                "velocity": 32,
                "duration": 0.8522727,
                "tempo": 120.0
            },
            {
                "start_time": 34.5409091,
                "end_time": 36.0045455,
                "pitch": 78,
                "velocity": 32,
                "duration": 1.4636364,
                "tempo": 120.0
            },
            {
                "start_time": 36.0386364,
                "end_time": 36.8931818,
                "pitch": 74,
                "velocity": 32,
                "duration": 0.8545455,
                "tempo": 120.0
            },
            {
                "start_time": 36.9613636,
                "end_time": 38.4227273,
                "pitch": 74,
                "velocity": 32,
                "duration": 1.4613636,
                "tempo": 120.0
            }
        ]
    }
}