{
    "mood": "relaxed",
    "instruments": {
        "Acoustic Bass": [
            {
                "start_time": 0.0113636,
                "end_time": 0.1659091,
                "pitch": 39,
                "velocity": 64,
                "duration": 0.1545455,
                "tempo": 120.0
            },
            {
                "start_time": 0.2,
                "end_time": 0.4863636,
                "pitch": 44,
                "velocity": 64,
                "duration": 0.2863636,
                "tempo": 120.0
            },
            {
                "start_time": 0.4863636,
                "end_time": 0.7727273,
                "pitch": 48,
                "velocity": 64,
                "duration": 0.2863636,
                "tempo": 120.0
            },
            {
                "start_time": 0.8068182,
                "end_time": 1.9727273,
                "pitch": 51,
                "velocity": 64,
                "duration": 1.1659091,
                "tempo": 120.0
            },
            {
                "start_time": 2.0068182,
                "end_time": 2.2886364,
                "pitch": 53,
                "velocity": 64,
                "duration": 0.2818182,
                "tempo": 120.0
            },
            {
                "start_time": 2.2886364,
                "end_time": 4.1045455,
                "pitch": 46,
                "velocity": 64,
                "duration": 1.8159091,
                "tempo": 120.0
            },
            {
                "start_time": 4.1045455,
                "end_time": 4.3909091,
                "pitch": 48,
                "velocity": 64,
                "duration": 0.2863636,
                "tempo": 120.0
            },
            {
                "start_time": 4.425,
                "end_time": 4.7113636,
                "pitch": 51,
                "velocity": 64,
                "duration": 0.2863636,
                "tempo": 120.0
            },
            {
                "start_time": 4.7113636,
                "end_time": 6.8022727,
                "pitch": 44,
                "velocity": 64,
                "duration": 2.0909091,
                "tempo": 120.0
            },
            {
                "start_time": 6.8363636,
                "end_time": 7.1204545,
                "pitch": 44,
                "velocity": 64,
                "duration": 0.2840909,
                "tempo": 120.0
            },
            {
                "start_time": 7.1204545,
                "end_time": 9.5318182,
                "pitch": 39,
                "velocity": 64,
                "duration": 2.4113636,
                "tempo": 120.0
            },
            {
                "start_time": 9.5318182,
                "end_time": 9.8159091,
                "pitch": 39,
                "velocity": 64,
                "duration": 0.2840909,
                "tempo": 120.0
            },
            {
                "start_time": 9.8318182,
                "end_time": 10.1159091,
                "pitch": 44,
                "velocity": 64,
                "duration": 0.2840909,
                "tempo": 120.0
            },
            {
                "start_time": 10.1477273,
                "end_time": 10.4318182,
                "pitch": 48,
                "velocity": 64,
                "duration": 0.2840909,
                "tempo": 120.0
            },
            {
                "start_time": 10.4318182,
                "end_time": 11.65,
                "pitch": 51,
                "velocity": 64,
                "duration": 1.2181818,
                "tempo": 120.0
            },
            {
                "start_time": 11.65,
                "end_time": 11.9386364,
                "pitch": 53,
                "velocity": 64,
                "duration": 0.2886364,
                "tempo": 120.0
            },
            {
                "start_time": 11.9727273,
                "end_time": 13.75,
                "pitch": 46,
                "velocity": 64,
                "duration": 1.7772727,
                "tempo": 120.0
            },
            {
                "start_time": 13.7818182,
                "end_time": 14.0613636,
                "pitch": 48,
                "velocity": 64,
                "duration": 0.2795455,
                "tempo": 120.0
            },
            {
                "start_time": 14.0613636,
                "end_time": 14.3522727,
                "pitch": 51,
                "velocity": 64,
                "duration": 0.2909091,
                "tempo": 120.0
            },
            {
                "start_time": 14.3863636,
                "end_time": 16.7636364,
                "pitch": 44,
                "velocity": 64,
                "duration": 2.3772727,
                "tempo": 120.0
            },
            {
                "start_time": 16.7977273,
                "end_time": 17.0863636,
                "pitch": 44,
                "velocity": 64,
                "duration": 0.2886364,
                "tempo": 120.0
            },
            {
                "start_time": 17.0863636,
                "end_time": 19.1704545,
                "pitch": 39,
                "velocity": 64,
                "duration": 2.0840909,
                "tempo": 120.0
            }
        ],
        "Acoustic Guitar (nylon)": [
            {
                "start_time": 0.0113636,
                "end_time": 0.1659091,
                "pitch": 60,
                "velocity": 80,
                "duration": 0.1545455,
                "tempo": 120.0
            },
            {
                "start_time": 0.2,
                "end_time": 0.7727273,
                "pitch": 63,
                "velocity": 80,
                "duration": 0.5727273,
                "tempo": 120.0
            },
            {
                "start_time": 0.8068182,
                "end_time": 2.2886364,
                "pitch": 70,
                "velocity": 80,
                "duration": 1.4818182,
                "tempo": 120.0
            },
            {
                "start_time": 2.2886364,
                "end_time": 2.5727273,
                "pitch": 58,
                "velocity": 80,
                "duration": 0.2840909,
                "tempo": 120.0
            },
            {
                "start_time": 2.6068182,
                "end_time": 3.1795455,
                "pitch": 61,
                "velocity": 80,
                "duration": 0.5727273,
                "tempo": 120.0
            },
            {
                "start_time": 3.2113636,
                "end_time": 4.7113636,
                "pitch": 68,
                "velocity": 80,
                "duration": 1.5,
                "tempo": 120.0
            },
            {
                "start_time": 4.7113636,
                "end_time": 4.9977273,
                "pitch": 56,
                "velocity": 80,
                "duration": 0.2863636,
                "tempo": 120.0
            },
            {
                "start_time": 5.0295455,
                "end_time": 5.5977273,
                "pitch": 60,
                "velocity": 80,
                "duration": 0.5681818,
                "tempo": 120.0
            },
            {
                "start_time": 5.6295455,
                "end_time": 7.1204545,
                "pitch": 63,
                "velocity": 80,
                "duration": 1.4909091,
                "tempo": 120.0
            },
            {
                "start_time": 7.1204545,
                "end_time": 7.4022727,
                "pitch": 58,
                "velocity": 80,
                "duration": 0.2818182,
                "tempo": 120.0
            },
            {
                "start_time": 7.4363636,
                "end_time": 8.0090909,
                "pitch": 61,
                "velocity": 80,
                "duration": 0.5727273,
                "tempo": 120.0
            },
            {
                "start_time": 8.0431818,
                "end_time": 9.5318182,
                "pitch": 65,
                "velocity": 80,
                "duration": 1.4886364,
                "tempo": 120.0
            },
            {
                "start_time": 9.5318182,
                "end_time": 9.8159091,
                "pitch": 60,
                "velocity": 80,
                "duration": 0.2840909,
                "tempo": 120.0
            },
            {
                "start_time": 9.8318182,
                "end_time": 10.4318182,
                "pitch": 63,
                "velocity": 80,
                "duration": 0.6,
                "tempo": 120.0
            },
            {
                "start_time": 10.4318182,
                "end_time": 11.9386364,
                "pitch": 70,
                "velocity": 80,
                "duration": 1.5068182,
                "tempo": 120.0
            },
            {
                "start_time": 11.9727273,
                "end_time": 12.2613636,
                "pitch": 58,
                "velocity": 80,
                "duration": 0.2886364,
                "tempo": 120.0
            },
            {
                "start_time": 12.2613636,
                "end_time": 12.8568182,
                "pitch": 61,
                "velocity": 80,
                "duration": 0.5954545,
                "tempo": 120.0
            },
            {
                "start_time": 12.8568182,
                "end_time": 14.3522727,
                "pitch": 68,
                "velocity": 80,
                "duration": 1.4954545,
                "tempo": 120.0
            },
            {
                "start_time": 14.3863636,
                "end_time": 14.675,
                "pitch": 56,
                "velocity": 80,
                "duration": 0.2886364,
                "tempo": 120.0
            },
            {
                "start_time": 14.675,
                "end_time": 15.2681818,
                "pitch": 60,
                "velocity": 80,
                "duration": 0.5931818,
                "tempo": 120.0
            },
            {
                "start_time": 15.2681818,
                "end_time": 16.7636364,
                "pitch": 63,
                "velocity": 80,
                "duration": 1.4954545,
                "tempo": 120.0
            },
            {
                "start_time": 16.7977273,
                "end_time": 17.0863636,
                "pitch": 58,
                "velocity": 80,
                "duration": 0.2886364,
                "tempo": 120.0
            },
            {
                "start_time": 17.0863636,
                "end_time": 17.6795455,
                "pitch": 61,
                "velocity": 80,
                "duration": 0.5931818,
                "tempo": 120.0
            },
            {
                "start_time": 17.6795455,
                "end_time": 19.1704545,
                "pitch": 65,
                "velocity": 80,
                "duration": 1.4909091,
                "tempo": 120.0
            }
        ],
        "Church Organ": [
            {
                "start_time": 0.0113636,
                "end_time": 0.0340909,
                "pitch": 87,
                "velocity": 32,
                "duration": 0.0227273,
                "tempo": 120.0
            },
            {
                "start_time": 0.0545455,
                "end_time": 0.2840909,
                "pitch": 75,
                "velocity": 32,
                "duration": 0.2295455,
                "tempo": 120.0
            },
            {
                "start_time": 0.2840909,
                "end_time": 0.5704545,
                "pitch": 80,
                "velocity": 32,
                "duration": 0.2863636,
                "tempo": 120.0
            },
            {
                "start_time": 0.6045455,
                "end_time": 0.8886364,
                "pitch": 82,
                "velocity": 32,
                "duration": 0.2840909,
                "tempo": 120.0
            },
            {
                "start_time": 0.8886364,
                "end_time": 1.1727273,
                "pitch": 79,
                "velocity": 32,
                "duration": 0.2840909,
                "tempo": 120.0
            },
            {
                "start_time": 1.2068182,
                "end_time": 1.7727273,
                "pitch": 80,
                "velocity": 32,
                "duration": 0.5659091,
                "tempo": 120.0
            },
            {
                "start_time": 1.8068182,
                "end_time": 2.0886364,
                "pitch": 82,
                "velocity": 32,
                "duration": 0.2818182,
                "tempo": 120.0
            },
            {
                "start_time": 2.0886364,
                "end_time": 3.9022727,
                "pitch": 85,
                "velocity": 32,
                "duration": 1.8136364,
                "tempo": 120.0
            },
            {
                "start_time": 3.9022727,
                "end_time": 4.1886364,
                "pitch": 80,
                "velocity": 32,
                "duration": 0.2863636,
                "tempo": 120.0
            },
            {
                "start_time": 4.2227273,
                "end_time": 4.5090909,
                "pitch": 82,
                "velocity": 32,
                "duration": 0.2863636,
                "tempo": 120.0
            },
            {
                "start_time": 4.5090909,
                "end_time": 4.7954545,
                "pitch": 80,
                "velocity": 32,
                "duration": 0.2863636,
                "tempo": 120.0
            },
            {
                "start_time": 4.8295455,
                "end_time": 5.7159091,
                "pitch": 79,
                "velocity": 32,
                "duration": 0.8863636,
                "tempo": 120.0
            },
            {
                "start_time": 5.7159091,
                "end_time": 7.2022727,
                "pitch": 77,
                "velocity": 32,
                "duration": 1.4863636,
                "tempo": 120.0
            },
            {
                "start_time": 7.2363636,
                "end_time": 8.1272727,
                "pitch": 75,
                "velocity": 32,
                "duration": 0.8909091,
                "tempo": 120.0
            },
            {
                "start_time": 8.1272727,
                "end_time": 8.7318182,
                "pitch": 77,
                "velocity": 32,
                "duration": 0.6045455,
                "tempo": 120.0
            },
            {
                "start_time": 8.7318182,
                "end_time": 9.6159091,
                "pitch": 80,
                "velocity": 32,
                "duration": 0.8840909,
                "tempo": 120.0
            },
            {
                "start_time": 9.6318182,
                "end_time": 9.9318182,
                "pitch": 75,
                "velocity": 32,
                "duration": 0.3,
                "tempo": 120.0
            },
            {
                "start_time": 9.9477273,
                "end_time": 10.2318182,
                "pitch": 80,
                "velocity": 32,
                "duration": 0.2840909,
                "tempo": 120.0
            },
            {
                "start_time": 10.2318182,
                "end_time": 10.5181818,
                "pitch": 82,
                "velocity": 32,
                "duration": 0.2863636,
                "tempo": 120.0
            },
            {
                "start_time": 10.5522727,
                "end_time": 10.8477273,
                "pitch": 79,
                "velocity": 32,
                "duration": 0.2954545,
                "tempo": 120.0
            },
            {
                "start_time": 10.8477273,
                "end_time": 11.4522727,
                "pitch": 80,
                "velocity": 32,
                "duration": 0.6045455,
                "tempo": 120.0
            },
            {
                "start_time": 11.4522727,
                "end_time": 11.7363636,
                "pitch": 82,
                "velocity": 32,
                "duration": 0.2840909,
                "tempo": 120.0
            },
            {
                "start_time": 11.7704545,
                "end_time": 13.55,
                "pitch": 85,
                "velocity": 32,
                "duration": 1.7795455,
                "tempo": 120.0
            },
            {
                "start_time": 13.5840909,
                "end_time": 13.8636364,
                "pitch": 80,
                "velocity": 32,
                "duration": 0.2795455,
                "tempo": 120.0
            },
            {
                "start_time": 13.8636364,
                "end_time": 14.1477273,
                "pitch": 82,
                "velocity": 32,
                "duration": 0.2840909,
                "tempo": 120.0
            },
            {
                "start_time": 14.1818182,
                "end_time": 14.4704545,
                "pitch": 85,
                "velocity": 32,
                "duration": 0.2886364,
                "tempo": 120.0
            },
            {
                "start_time": 14.4704545,
                "end_time": 14.7568182,
                "pitch": 80,
                "velocity": 32,
                "duration": 0.2863636,
                "tempo": 120.0
            },
            {
                "start_time": 14.7909091,
                "end_time": 16.8818182,
                "pitch": 79,
                "velocity": 32,
                "duration": 2.0909091,
                "tempo": 120.0
            },
            {
                "start_time": 16.8818182,
                "end_time": 17.7659091,
                "pitch": 77,
                "velocity": 32,
                "duration": 0.8840909,
                "tempo": 120.0
            },
            {
                "start_time": 17.8,
                "end_time": 18.375,
                "pitch": 75,
                "velocity": 32,
                "duration": 0.575,
                "tempo": 120.0
            },
            {
                "start_time": 18.4068182,
                "end_time": 18.6886364,
                "pitch": 77,
                "velocity": 32,
                "duration": 0.2818182,
                "tempo": 120.0
            },
            {
                "start_time": 18.6886364,
                "end_time": 19.1704545,
                "pitch": 80,
                "velocity": 32,
                "duration": 0.4818182,
                "tempo": 120.0
            }
        ]
    }
}