{
    "mood": "relaxed",
    "instruments": {
        "Clarinet": [
            {
                "start_time": 0.175,
                "end_time": 0.4545455,
                "pitch": 69,
                "velocity": 51,
                "duration": 0.2795455,
                "tempo": 120.0
            },
            {
                "start_time": 0.4704545,
                "end_time": 0.75,
                "pitch": 72,
                "velocity": 51,
                "duration": 0.2795455,
                "tempo": 120.0
            },
            {
                "start_time": 0.7659091,
                "end_time": 2.5590909,
                "pitch": 74,
                "velocity": 51,
                "duration": 1.7931818,
                "tempo": 120.0
            },
            {
                "start_time": 2.5772727,
                "end_time": 3.1681818,
                "pitch": 77,
                "velocity": 51,
                "duration": 0.5909091,
                "tempo": 120.0
            },
            {
                "start_time": 3.1840909,
                "end_time": 4.9613636,
                "pitch": 76,
                "velocity": 51,
                "duration": 1.7772727,
                "tempo": 120.0
            },
            {
                "start_time": 4.9772727,
                "end_time": 5.2659091,
                "pitch": 72,
                "velocity": 51,
                "duration": 0.2886364,
                "tempo": 120.0
            },
            {
                "start_time": 5.2818182,
                "end_time": 5.5704545,
                "pitch": 67,
                "velocity": 51,
                "duration": 0.2886364,
                "tempo": 120.0
            },
            {
                "start_time": 5.5886364,
                "end_time": 6.4727273,
                "pitch": 67,
                "velocity": 51,
                "duration": 0.8840909,
                "tempo": 120.0
            },
            {
                "start_time": 6.4909091,
                "end_time": 7.9727273,
                "pitch": 69,
                "velocity": 51,
                "duration": 1.4818182,
                "tempo": 120.0
            },
            {
                "start_time": 9.8,
                "end_time": 10.0840909,
                "pitch": 69,
                "velocity": 51,
                "duration": 0.2840909,
                "tempo": 120.0
            },
            {
                "start_time": 10.1,
                "end_time": 10.3863636,
                "pitch": 72,
                "velocity": 51,
                "duration": 0.2863636,
                "tempo": 120.0
            },
            {
                "start_time": 10.4022727,
                "end_time": 12.1818182,
                "pitch": 74,
                "velocity": 51,
                "duration": 1.7795455,
                "tempo": 120.0
            },
            {
                "start_time": 12.2,
                "end_time": 12.7931818,
                "pitch": 77,
                "velocity": 51,
                "duration": 0.5931818,
                "tempo": 120.0
            },
            {
                "start_time": 12.8090909,
                "end_time": 14.5931818,
                "pitch": 76,
                "velocity": 51,
                "duration": 1.7840909,
                "tempo": 120.0
            },
            {
                "start_time": 14.6113636,
                "end_time": 14.9,
                "pitch": 72,
                "velocity": 51,
                "duration": 0.2886364,
                "tempo": 120.0
            },
            {
                "start_time": 14.9181818,
                "end_time": 15.2022727,
                "pitch": 74,
                "velocity": 51,
                "duration": 0.2840909,
                "tempo": 120.0
            },
            {
                "start_time": 15.2181818,
                "end_time": 16.9954545,
                "pitch": 76,
                "velocity": 51,
                "duration": 1.7772727,
                "tempo": 120.0
            },
            {
                "start_time": 17.0136364,
                "end_time": 17.6022727,
                "pitch": 79,
                "velocity": 51,
                "duration": 0.5886364,
                "tempo": 120.0
            },
            {
                "start_time": 17.6181818,
                "end_time": 18.5,
                "pitch": 79,
                "velocity": 51,
                "duration": 0.8818182,
                "tempo": 120.0
            },
            {
                "start_time": 18.5159091,
                "end_time": 19.4068182,
                "pitch": 77,
                "velocity": 51,
                "duration": 0.8909091,
                "tempo": 120.0
            },
            {
                "start_time": 19.425,
                "end_time": 19.7090909,
                "pitch": 69,
                "velocity": 51,
                "duration": 0.2840909,
                "tempo": 120.0
            },
            {
                "start_time": 19.725,
                "end_time": 20.0090909,
                "pitch": 72,
                "velocity": 51,
                "duration": 0.2840909,
                "tempo": 120.0
            },
            {
                "start_time": 20.0272727,
                "end_time": 21.8136364,
                "pitch": 74,
                "velocity": 51,
                "duration": 1.7863636,
                "tempo": 120.0
            },
            {
                "start_time": 21.8318182,
                "end_time": 22.4181818,
                "pitch": 81,
                "velocity": 51,
                "duration": 0.5863636,
                "tempo": 120.0
            },
            {
                "start_time": 22.4340909,
                "end_time": 22.7136364,
                "pitch": 79,
                "velocity": 51,
                "duration": 0.2795455,
                "tempo": 120.0
            },
            {
                "start_time": 23.0363636,
                "end_time": 23.3204545,
                "pitch": 76,
                "velocity": 51,
                "duration": 0.2840909,
                "tempo": 120.0
            },
            {
                "start_time": 24.2363636,
                "end_time": 24.5204545,
                "pitch": 72,
                "velocity": 51,
                "duration": 0.2840909,
                "tempo": 120.0
            },
            {
                "start_time": 24.8431818,
                "end_time": 25.725,
                "pitch": 72,
                "velocity": 51,
                "duration": 0.8818182,
                "tempo": 120.0
            },
            {
                "start_time": 25.7409091,
                "end_time": 27.2295455,
                "pitch": 74,
                "velocity": 51,
                "duration": 1.4886364,
                "tempo": 120.0
            },
            {
                "start_time": 29.0636364,
                "end_time": 29.3477273,
                "pitch": 69,
                "velocity": 51,
                "duration": 0.2840909,
                "tempo": 120.0
            },
            {
                "start_time": 29.3636364,
                "end_time": 29.3818182,
                "pitch": 72,
                "velocity": 51,
                "duration": 0.0181818,
                "tempo": 120.0
            }
        ],
        "Acoustic Bass": [
            {
                "start_time": 0.6159091,
                "end_time": 1.5022727,
                "pitch": 34,
                "velocity": 64,
                "duration": 0.8863636,
                "tempo": 120.0
            },
            {
                "start_time": 1.5181818,
                "end_time": 1.8113636,
                "pitch": 34,
                "velocity": 64,
                "duration": 0.2931818,
                "tempo": 120.0
            },
            {
                "start_time": 1.8295455,
                "end_time": 2.7159091,
                "pitch": 34,
                "velocity": 64,
                "duration": 0.8863636,
                "tempo": 120.0
            },
            {
                "start_time": 2.7318182,
                "end_time": 3.0181818,
                "pitch": 34,
                "velocity": 64,
                "duration": 0.2863636,
                "tempo": 120.0
            },
            {
                "start_time": 3.0340909,
                "end_time": 3.9181818,
                "pitch": 34,
                "velocity": 64,
                "duration": 0.8840909,
                "tempo": 120.0
            },
            {
                "start_time": 3.9363636,
                "end_time": 4.2181818,
                "pitch": 34,
                "velocity": 64,
                "duration": 0.2818182,
                "tempo": 120.0
            },
            {
                "start_time": 4.2363636,
                "end_time": 5.1113636,
                "pitch": 34,
                "velocity": 64,
                "duration": 0.875,
                "tempo": 120.0
            },
            {
                "start_time": 5.1272727,
                "end_time": 5.4204545,
                "pitch": 34,
                "velocity": 64,
                "duration": 0.2931818,
                "tempo": 120.0
            },
            {
                "start_time": 5.4386364,
                "end_time": 6.3227273,
                "pitch": 26,
                "velocity": 64,
                "duration": 0.8840909,
                "tempo": 120.0
            },
            {
                "start_time": 6.3386364,
                "end_time": 6.625,
                "pitch": 26,
                "velocity": 64,
                "duration": 0.2863636,
                "tempo": 120.0
            },
            {
                "start_time": 6.6409091,
                "end_time": 7.525,
                "pitch": 26,
                "velocity": 64,
                "duration": 0.8840909,
                "tempo": 120.0
            },
            {
                "start_time": 7.5431818,
                "end_time": 7.8272727,
                "pitch": 26,
                "velocity": 64,
                "duration": 0.2840909,
                "tempo": 120.0
            },
            {
                "start_time": 7.8431818,
                "end_time": 8.7295455,
                "pitch": 26,
                "velocity": 64,
                "duration": 0.8863636,
                "tempo": 120.0
            },
            {
                "start_time": 8.7477273,
                "end_time": 9.0318182,
                "pitch": 26,
                "velocity": 64,
                "duration": 0.2840909,
                "tempo": 120.0
            },
            {
                "start_time": 9.0477273,
                "end_time": 9.9340909,
                "pitch": 26,
                "velocity": 64,
                "duration": 0.8863636,
                "tempo": 120.0
            },
            {
                "start_time": 9.95,
                "end_time": 10.2340909,
                "pitch": 26,
                "velocity": 64,
                "duration": 0.2840909,
                "tempo": 120.0
            },
            {
                "start_time": 10.2522727,
                "end_time": 11.1295455,
                "pitch": 34,
                "velocity": 64,
                "duration": 0.8772727,
                "tempo": 120.0
            },
            {
                "start_time": 11.1454545,
                "end_time": 11.4386364,
                "pitch": 34,
                "velocity": 64,
                "duration": 0.2931818,
                "tempo": 120.0
            },
            {
                "start_time": 11.4568182,
                "end_time": 12.3318182,
                "pitch": 34,
                "velocity": 64,
                "duration": 0.875,
                "tempo": 120.0
            },
            {
                "start_time": 12.35,
                "end_time": 12.6431818,
                "pitch": 34,
                "velocity": 64,
                "duration": 0.2931818,
                "tempo": 120.0
            },
            {
                "start_time": 12.6590909,
                "end_time": 13.5363636,
                "pitch": 34,
                "velocity": 64,
                "duration": 0.8772727,
                "tempo": 120.0
            },
            {
                "start_time": 13.5522727,
                "end_time": 13.8454545,
                "pitch": 34,
                "velocity": 64,
                "duration": 0.2931818,
                "tempo": 120.0
            },
            {
                "start_time": 13.8636364,
                "end_time": 14.75,
                "pitch": 34,
                "velocity": 64,
                "duration": 0.8863636,
                "tempo": 120.0
            },
            {
                "start_time": 14.7659091,
                "end_time": 15.0522727,
                "pitch": 34,
                "velocity": 64,
                "duration": 0.2863636,
                "tempo": 120.0
            },
            {
                "start_time": 15.0681818,
                "end_time": 15.9522727,
                "pitch": 33,
                "velocity": 64,
                "duration": 0.8840909,
                "tempo": 120.0
            },
            {
                "start_time": 15.9704545,
                "end_time": 16.2545455,
                "pitch": 33,
                "velocity": 64,
                "duration": 0.2840909,
                "tempo": 120.0
            },
            {
                "start_time": 16.2727273,
                "end_time": 17.1454545,
                "pitch": 33,
                "velocity": 64,
                "duration": 0.8727273,
                "tempo": 120.0
            },
            {
                "start_time": 17.1636364,
                "end_time": 17.4568182,
                "pitch": 33,
                "velocity": 64,
                "duration": 0.2931818,
                "tempo": 120.0
            },
            {
                "start_time": 17.4727273,
                "end_time": 18.35,
                "pitch": 26,
                "velocity": 64,
                "duration": 0.8772727,
                "tempo": 120.0
            },
            {
                "start_time": 18.3659091,
                "end_time": 18.65,
                "pitch": 26,
                "velocity": 64,
                "duration": 0.2840909,
                "tempo": 120.0
            },
            {
                "start_time": 18.6659091,
                "end_time": 19.2522727,
                "pitch": 26,
                "velocity": 64,
                "duration": 0.5863636,
                "tempo": 120.0
            },
            {
                "start_time": 19.2704545,
                "end_time": 19.5636364,
                "pitch": 38,
                "velocity": 64,
                "duration": 0.2931818,
                "tempo": 120.0
            },
            {
                "start_time": 19.5795455,
                "end_time": 19.8545455,
                "pitch": 36,
                "velocity": 64,
                "duration": 0.275,
                "tempo": 120.0
            },
            {
                "start_time": 19.8704545,
                "end_time": 20.7659091,
                "pitch": 34,
                "velocity": 64,
                "duration": 0.8954545,
                "tempo": 120.0
            },
            {
                "start_time": 20.7840909,
                "end_time": 21.0659091,
                "pitch": 34,
                "velocity": 64,
                "duration": 0.2818182,
                "tempo": 120.0
            },
            {
                "start_time": 21.0840909,
                "end_time": 21.9704545,
                "pitch": 34,
                "velocity": 64,
                "duration": 0.8863636,
                "tempo": 120.0
            },
            {
                "start_time": 21.9863636,
                "end_time": 22.2704545,
                "pitch": 34,
                "velocity": 64,
                "duration": 0.2840909,
                "tempo": 120.0
            },
            {
                "start_time": 22.2886364,
                "end_time": 22.5636364,
                "pitch": 33,
                "velocity": 64,
                "duration": 0.275,
                "tempo": 120.0
            },
            {
                "start_time": 22.8818182,
                "end_time": 23.175,
                "pitch": 33,
                "velocity": 64,
                "duration": 0.2931818,
                "tempo": 120.0
            },
            {
                "start_time": 24.0863636,
                "end_time": 24.3704545,
                "pitch": 33,
                "velocity": 64,
                "duration": 0.2840909,
                "tempo": 120.0
            },
            {
                "start_time": 24.6863636,
                "end_time": 25.575,
                "pitch": 26,
                "velocity": 64,
                "duration": 0.8886364,
                "tempo": 120.0
            },
            {
                "start_time": 25.5909091,
                "end_time": 25.875,
                "pitch": 26,
                "velocity": 64,
                "duration": 0.2840909,
                "tempo": 120.0
            },
            {
                "start_time": 25.8931818,
                "end_time": 26.7772727,
                "pitch": 26,
                "velocity": 64,
                "duration": 0.8840909,
                "tempo": 120.0
            },
            {
                "start_time": 26.7954545,
                "end_time": 27.0795455,
                "pitch": 26,
                "velocity": 64,
                "duration": 0.2840909,
                "tempo": 120.0
            },
            {
                "start_time": 27.0977273,
                "end_time": 27.9909091,
                "pitch": 26,
                "velocity": 64,
                "duration": 0.8931818,
                "tempo": 120.0
            },
            {
                "start_time": 28.0090909,
                "end_time": 28.2840909,
                "pitch": 26,
                "velocity": 64,
                "duration": 0.275,
                "tempo": 120.0
            },
            {
                "start_time": 28.3,
                "end_time": 29.1977273,
                "pitch": 26,
                "velocity": 64,
                "duration": 0.8977273,
                "tempo": 120.0
            },
            {
                "start_time": 29.2136364,
                "end_time": 29.3818182,
                "pitch": 26,
                "velocity": 64,
                "duration": 0.1681818,
                "tempo": 120.0
            }
        ],
        "Vibraphone": [
            {
                "start_time": 0.6159091,
                "end_time": 0.9,
                "pitch": 69,
                "velocity": 51,
                "duration": 0.2840909,
                "tempo": 120.0
            },
            {
                "start_time": 0.9159091,
                "end_time": 1.2022727,
                "pitch": 65,
                "velocity": 51,
                "duration": 0.2863636,
                "tempo": 120.0
            },
            {
                "start_time": 1.2181818,
                "end_time": 1.5022727,
                "pitch": 62,
                "velocity": 51,
                "duration": 0.2840909,
                "tempo": 120.0
            },
            {
                "start_time": 1.5181818,
                "end_time": 1.8113636,
                "pitch": 65,
                "velocity": 51,
                "duration": 0.2931818,
                "tempo": 120.0
            },
            {
                "start_time": 1.8295455,
                "end_time": 2.1136364,
                "pitch": 69,
                "velocity": 51,
                "duration": 0.2840909,
                "tempo": 120.0
            },
            {
                "start_time": 2.1295455,
                "end_time": 2.4045455,
                "pitch": 65,
                "velocity": 51,
                "duration": 0.275,
                "tempo": 120.0
            },
            {
                "start_time": 2.4227273,
                "end_time": 2.7159091,
                "pitch": 62,
                "velocity": 51,
                "duration": 0.2931818,
                "tempo": 120.0
            },
            {
                "start_time": 2.7318182,
                "end_time": 3.0181818,
                "pitch": 65,
                "velocity": 51,
                "duration": 0.2863636,
                "tempo": 120.0
            },
            {
                "start_time": 3.0340909,
                "end_time": 3.3181818,
                "pitch": 72,
                "velocity": 51,
                "duration": 0.2840909,
                "tempo": 120.0
            },
            {
                "start_time": 3.3340909,
                "end_time": 3.6090909,
                "pitch": 67,
                "velocity": 51,
                "duration": 0.275,
                "tempo": 120.0
            },
            {
                "start_time": 3.625,
                "end_time": 3.9181818,
                "pitch": 64,
                "velocity": 51,
                "duration": 0.2931818,
                "tempo": 120.0
            },
            {
                "start_time": 3.9363636,
                "end_time": 4.2181818,
                "pitch": 67,
                "velocity": 51,
                "duration": 0.2818182,
                "tempo": 120.0
            },
            {
                "start_time": 4.2363636,
                "end_time": 4.5181818,
                "pitch": 72,
                "velocity": 51,
                "duration": 0.2818182,
                "tempo": 120.0
            },
            {
                "start_time": 4.5363636,
                "end_time": 4.8113636,
                "pitch": 67,
                "velocity": 51,
                "duration": 0.275,
                "tempo": 120.0
            },
            {
                "start_time": 4.8272727,
                "end_time": 5.1113636,
                "pitch": 64,
                "velocity": 51,
                "duration": 0.2840909,
                "tempo": 120.0
            },
            {
                "start_time": 5.1272727,
                "end_time": 5.4204545,
                "pitch": 60,
                "velocity": 51,
                "duration": 0.2931818,
                "tempo": 120.0
            },
            {
                "start_time": 5.4386364,
                "end_time": 5.7204545,
                "pitch": 64,
                "velocity": 51,
                "duration": 0.2818182,
                "tempo": 120.0
            },
            {
                "start_time": 5.7386364,
                "end_time": 6.0136364,
                "pitch": 60,
                "velocity": 51,
                "duration": 0.275,
                "tempo": 120.0
            },
            {
                "start_time": 6.0295455,
                "end_time": 6.3227273,
                "pitch": 57,
                "velocity": 51,
                "duration": 0.2931818,
                "tempo": 120.0
            },
            {
                "start_time": 6.3386364,
                "end_time": 6.625,
                "pitch": 65,
                "velocity": 51,
                "duration": 0.2863636,
                "tempo": 120.0
            },
            {
                "start_time": 6.6409091,
                "end_time": 6.9159091,
                "pitch": 62,
                "velocity": 51,
                "duration": 0.275,
                "tempo": 120.0
            },
            {
                "start_time": 6.9318182,
                "end_time": 7.2159091,
                "pitch": 57,
                "velocity": 51,
                "duration": 0.2840909,
                "tempo": 120.0
            },
            {
                "start_time": 7.2318182,
                "end_time": 7.525,
                "pitch": 53,
                "velocity": 51,
                "duration": 0.2931818,
                "tempo": 120.0
            },
            {
                "start_time": 7.5431818,
                "end_time": 7.8272727,
                "pitch": 57,
                "velocity": 51,
                "duration": 0.2840909,
                "tempo": 120.0
            },
            {
                "start_time": 7.8431818,
                "end_time": 8.1181818,
                "pitch": 50,
                "velocity": 51,
                "duration": 0.275,
                "tempo": 120.0
            },
            {
                "start_time": 8.1340909,
                "end_time": 8.4272727,
                "pitch": 57,
                "velocity": 51,
                "duration": 0.2931818,
                "tempo": 120.0
            },
            {
                "start_time": 8.4454545,
                "end_time": 8.7295455,
                "pitch": 64,
                "velocity": 51,
                "duration": 0.2840909,
                "tempo": 120.0
            },
            {
                "start_time": 8.7477273,
                "end_time": 9.0318182,
                "pitch": 62,
                "velocity": 51,
                "duration": 0.2840909,
                "tempo": 120.0
            },
            {
                "start_time": 9.0477273,
                "end_time": 9.3318182,
                "pitch": 62,
                "velocity": 51,
                "duration": 0.2840909,
                "tempo": 120.0
            },
            {
                "start_time": 9.3477273,
                "end_time": 9.6340909,
                "pitch": 57,
                "velocity": 51,
                "duration": 0.2863636,
                "tempo": 120.0
            },
            {
                "start_time": 9.65,
                "end_time": 9.9340909,
                "pitch": 65,
                "velocity": 51,
                "duration": 0.2840909,
                "tempo": 120.0
            },
            {
                "start_time": 9.95,
                "end_time": 10.2340909,
                "pitch": 62,
                "velocity": 51,
                "duration": 0.2840909,
                "tempo": 120.0
            },
            {
                "start_time": 10.2522727,
                "end_time": 10.5363636,
                "pitch": 69,
                "velocity": 51,
                "duration": 0.2840909,
                "tempo": 120.0
            },
            {
                "start_time": 10.5522727,
                "end_time": 10.8272727,
                "pitch": 65,
                "velocity": 51,
                "duration": 0.275,
                "tempo": 120.0
            },
            {
                "start_time": 10.8431818,
                "end_time": 11.1295455,
                "pitch": 62,
                "velocity": 51,
                "duration": 0.2863636,
                "tempo": 120.0
            },
            {
                "start_time": 11.1454545,
                "end_time": 11.4386364,
                "pitch": 65,
                "velocity": 51,
                "duration": 0.2931818,
                "tempo": 120.0
            },
            {
                "start_time": 11.4568182,
                "end_time": 11.7409091,
                "pitch": 69,
                "velocity": 51,
                "duration": 0.2840909,
                "tempo": 120.0
            },
            {
                "start_time": 11.7568182,
                "end_time": 12.0318182,
                "pitch": 65,
                "velocity": 51,
                "duration": 0.275,
                "tempo": 120.0
            },
            {
                "start_time": 12.05,
                "end_time": 12.3318182,
                "pitch": 62,
                "velocity": 51,
                "duration": 0.2818182,
                "tempo": 120.0
            },
            {
                "start_time": 12.35,
                "end_time": 12.6431818,
                "pitch": 65,
                "velocity": 51,
                "duration": 0.2931818,
                "tempo": 120.0
            },
            {
                "start_time": 12.6590909,
                "end_time": 12.9431818,
                "pitch": 72,
                "velocity": 51,
                "duration": 0.2840909,
                "tempo": 120.0
            },
            {
                "start_time": 12.9590909,
                "end_time": 13.2340909,
                "pitch": 67,
                "velocity": 51,
                "duration": 0.275,
                "tempo": 120.0
            },
            {
                "start_time": 13.2522727,
                "end_time": 13.5363636,
                "pitch": 64,
                "velocity": 51,
                "duration": 0.2840909,
                "tempo": 120.0
            },
            {
                "start_time": 13.5522727,
                "end_time": 13.8454545,
                "pitch": 67,
                "velocity": 51,
                "duration": 0.2931818,
                "tempo": 120.0
            },
            {
                "start_time": 13.8636364,
                "end_time": 14.1477273,
                "pitch": 72,
                "velocity": 51,
                "duration": 0.2840909,
                "tempo": 120.0
            },
            {
                "start_time": 14.1659091,
                "end_time": 14.4409091,
                "pitch": 67,
                "velocity": 51,
                "duration": 0.275,
                "tempo": 120.0
            },
            {
                "start_time": 14.4568182,
                "end_time": 14.75,
                "pitch": 64,
                "velocity": 51,
                "duration": 0.2931818,
                "tempo": 120.0
            },
            {
                "start_time": 14.7659091,
                "end_time": 15.0522727,
                "pitch": 60,
                "velocity": 51,
                "duration": 0.2863636,
                "tempo": 120.0
            },
            {
                "start_time": 15.0681818,
                "end_time": 15.3522727,
                "pitch": 72,
                "velocity": 51,
                "duration": 0.2840909,
                "tempo": 120.0
            },
            {
                "start_time": 15.3681818,
                "end_time": 15.6431818,
                "pitch": 67,
                "velocity": 51,
                "duration": 0.275,
                "tempo": 120.0
            },
            {
                "start_time": 15.6590909,
                "end_time": 15.9522727,
                "pitch": 64,
                "velocity": 51,
                "duration": 0.2931818,
                "tempo": 120.0
            },
            {
                "start_time": 15.9704545,
                "end_time": 16.2545455,
                "pitch": 67,
                "velocity": 51,
                "duration": 0.2840909,
                "tempo": 120.0
            },
            {
                "start_time": 16.2727273,
                "end_time": 16.5545455,
                "pitch": 72,
                "velocity": 51,
                "duration": 0.2818182,
                "tempo": 120.0
            },
            {
                "start_time": 16.5727273,
                "end_time": 16.8477273,
                "pitch": 67,
                "velocity": 51,
                "duration": 0.275,
                "tempo": 120.0
            },
            {
                "start_time": 16.8636364,
                "end_time": 17.1454545,
                "pitch": 64,
                "velocity": 51,
                "duration": 0.2818182,
                "tempo": 120.0
            },
            {
                "start_time": 17.1636364,
                "end_time": 17.4568182,
                "pitch": 60,
                "velocity": 51,
                "duration": 0.2931818,
                "tempo": 120.0
            },
            {
                "start_time": 17.4727273,
                "end_time": 17.7477273,
                "pitch": 64,
                "velocity": 51,
                "duration": 0.275,
                "tempo": 120.0
            },
            {
                "start_time": 17.7659091,
                "end_time": 18.0590909,
                "pitch": 60,
                "velocity": 51,
                "duration": 0.2931818,
                "tempo": 120.0
            },
            {
                "start_time": 18.075,
                "end_time": 18.35,
                "pitch": 57,
                "velocity": 51,
                "duration": 0.275,
                "tempo": 120.0
            },
            {
                "start_time": 18.3659091,
                "end_time": 18.9522727,
                "pitch": 62,
                "velocity": 51,
                "duration": 0.5863636,
                "tempo": 120.0
            },
            {
                "start_time": 18.9681818,
                "end_time": 19.2522727,
                "pitch": 57,
                "velocity": 51,
                "duration": 0.2840909,
                "tempo": 120.0
            },
            {
                "start_time": 19.2704545,
                "end_time": 19.5636364,
                "pitch": 65,
                "velocity": 51,
                "duration": 0.2931818,
                "tempo": 120.0
            },
            {
                "start_time": 19.5795455,
                "end_time": 19.8545455,
                "pitch": 62,
                "velocity": 51,
                "duration": 0.275,
                "tempo": 120.0
            },
            {
                "start_time": 19.8704545,
                "end_time": 20.1636364,
                "pitch": 69,
                "velocity": 51,
                "duration": 0.2931818,
                "tempo": 120.0
            },
            {
                "start_time": 20.1818182,
                "end_time": 20.4568182,
                "pitch": 65,
                "velocity": 51,
                "duration": 0.275,
                "tempo": 120.0
            },
            {
                "start_time": 20.4727273,
                "end_time": 20.7659091,
                "pitch": 62,
                "velocity": 51,
                "duration": 0.2931818,
                "tempo": 120.0
            },
            {
                "start_time": 20.7840909,
                "end_time": 21.0659091,
                "pitch": 65,
                "velocity": 51,
                "duration": 0.2818182,
                "tempo": 120.0
            },
            {
                "start_time": 21.0840909,
                "end_time": 21.3681818,
                "pitch": 69,
                "velocity": 51,
                "duration": 0.2840909,
                "tempo": 120.0
            },
            {
                "start_time": 21.3840909,
                "end_time": 21.6590909,
                "pitch": 65,
                "velocity": 51,
                "duration": 0.275,
                "tempo": 120.0
            },
            {
                "start_time": 21.675,
                "end_time": 21.9704545,
                "pitch": 62,
                "velocity": 51,
                "duration": 0.2954545,
                "tempo": 120.0
            },
            {
                "start_time": 21.9863636,
                "end_time": 22.2704545,
                "pitch": 65,
                "velocity": 51,
                "duration": 0.2840909,
                "tempo": 120.0
            },
            {
                "start_time": 22.2886364,
                "end_time": 22.5636364,
                "pitch": 64,
                "velocity": 51,
                "duration": 0.275,
                "tempo": 120.0
            },
            {
                "start_time": 22.8818182,
                "end_time": 23.175,
                "pitch": 60,
                "velocity": 51,
                "duration": 0.2931818,
                "tempo": 120.0
            },
            {
                "start_time": 24.0863636,
                "end_time": 24.3704545,
                "pitch": 57,
                "velocity": 51,
                "duration": 0.2840909,
                "tempo": 120.0
            },
            {
                "start_time": 24.6863636,
                "end_time": 24.9818182,
                "pitch": 64,
                "velocity": 51,
                "duration": 0.2954545,
                "tempo": 120.0
            },
            {
                "start_time": 24.9977273,
                "end_time": 25.2727273,
                "pitch": 60,
                "velocity": 51,
                "duration": 0.275,
                "tempo": 120.0
            },
            {
                "start_time": 25.2886364,
                "end_time": 25.575,
                "pitch": 57,
                "velocity": 51,
                "duration": 0.2863636,
                "tempo": 120.0
            },
            {
                "start_time": 25.5909091,
                "end_time": 25.875,
                "pitch": 65,
                "velocity": 51,
                "duration": 0.2840909,
                "tempo": 120.0
            },
            {
                "start_time": 25.8931818,
                "end_time": 26.175,
                "pitch": 62,
                "velocity": 51,
                "duration": 0.2818182,
                "tempo": 120.0
            },
            {
                "start_time": 26.1931818,
                "end_time": 26.4772727,
                "pitch": 57,
                "velocity": 51,
                "duration": 0.2840909,
                "tempo": 120.0
            },
            {
                "start_time": 26.4931818,
                "end_time": 26.7772727,
                "pitch": 53,
                "velocity": 51,
                "duration": 0.2840909,
                "tempo": 120.0
            },
            {
                "start_time": 26.7954545,
                "end_time": 27.0795455,
                "pitch": 57,
                "velocity": 51,
                "duration": 0.2840909,
                "tempo": 120.0
            },
            {
                "start_time": 27.0977273,
                "end_time": 27.3818182,
                "pitch": 50,
                "velocity": 51,
                "duration": 0.2840909,
                "tempo": 120.0
            },
            {
                "start_time": 27.3977273,
                "end_time": 27.6818182,
                "pitch": 52,
                "velocity": 51,
                "duration": 0.2840909,
                "tempo": 120.0
            },
            {
                "start_time": 27.6977273,
                "end_time": 27.9909091,
                "pitch": 53,
                "velocity": 51,
                "duration": 0.2931818,
                "tempo": 120.0
            },
            {
                "start_time": 28.0090909,
                "end_time": 28.2840909,
                "pitch": 57,
                "velocity": 51,
                "duration": 0.275,
                "tempo": 120.0
            },
            {
                "start_time": 28.3,
                "end_time": 28.5931818,
                "pitch": 62,
                "velocity": 51,
                "duration": 0.2931818,
                "tempo": 120.0
            },
            {
                "start_time": 28.6113636,
                "end_time": 28.8954545,
                "pitch": 64,
                "velocity": 51,
                "duration": 0.2840909,
                "tempo": 120.0
            },
            {
                "start_time": 28.9113636,
                "end_time": 29.1977273,
                "pitch": 65,
                "velocity": 51,
                "duration": 0.2863636,
                "tempo": 120.0
            },
            {
                "start_time": 29.2136364,
                "end_time": 29.3818182,
                "pitch": 69,
                "velocity": 51,
                "duration": 0.1681818,
                "tempo": 120.0
            }
        ]
    }
}