{
    "mood": "relaxed",
    "instruments": {
        "Oboe": [
            {
                "start_time": 0.4704545,
                "end_time": 0.5704545,
                "pitch": 73,
                "velocity": 51,
                "duration": 0.1,
                "tempo": 120.0
            },
            {
                "start_time": 1.1386364,
                "end_time": 1.1863636,
                "pitch": 61,
                "velocity": 51,
                "duration": 0.0477273,
                "tempo": 120.0
            },
            {
                "start_time": 1.1863636,
                "end_time": 1.2363636,
                "pitch": 62,
                "velocity": 51,
                "duration": 0.05,
                "tempo": 120.0
            },
            {
                "start_time": 1.4704545,
                "end_time": 1.5704545,
                "pitch": 60,
                "velocity": 51,
                "duration": 0.1,
                "tempo": 120.0
            },
            {
                "start_time": 1.8045455,
                "end_time": 1.9068182,
                "pitch": 61,
                "velocity": 51,
                "duration": 0.1022727,
                "tempo": 120.0
            },
            {
                "start_time": 3.1477273,
                "end_time": 3.25,
                "pitch": 73,
                "velocity": 51,
                "duration": 0.1022727,
                "tempo": 120.0
            },
            {
                "start_time": 3.8159091,
                "end_time": 3.8659091,
                "pitch": 61,
                "velocity": 51,
                "duration": 0.05,
                "tempo": 120.0
            },
            {
                "start_time": 3.8659091,
                "end_time": 3.9159091,
                "pitch": 62,
                "velocity": 51,
                "duration": 0.05,
                "tempo": 120.0
            },
            {
                "start_time": 4.1477273,
                "end_time": 4.2477273,
                "pitch": 60,
                "velocity": 51,
                "duration": 0.1,
                "tempo": 120.0
            },
            {
                "start_time": 4.4840909,
                "end_time": 4.5840909,
                "pitch": 61,
                "velocity": 51,
                "duration": 0.1,
                "tempo": 120.0
            },
            {
                "start_time": 5.8272727,
                "end_time": 5.9272727,
                "pitch": 73,
                "velocity": 51,
                "duration": 0.1,
                "tempo": 120.0
            },
            {
                "start_time": 6.5,
                "end_time": 6.55,
                "pitch": 61,
                "velocity": 51,
                "duration": 0.05,
                "tempo": 120.0
            },
            {
                "start_time": 6.55,
                "end_time": 6.6,
                "pitch": 62,
                "velocity": 51,
                "duration": 0.05,
                "tempo": 120.0
            },
            {
                "start_time": 6.8363636,
                "end_time": 6.9363636,
                "pitch": 60,
                "velocity": 51,
                "duration": 0.1,
                "tempo": 120.0
            },
            {
                "start_time": 7.1704545,
                "end_time": 7.2704545,
                "pitch": 61,
                "velocity": 51,
                "duration": 0.1,
                "tempo": 120.0
            },
            {
                "start_time": 8.5136364,
                "end_time": 8.6136364,
                "pitch": 73,
                "velocity": 51,
                "duration": 0.1,
                "tempo": 120.0
            },
            {
                "start_time": 9.1818182,
                "end_time": 9.2318182,
                "pitch": 61,
                "velocity": 51,
                "duration": 0.05,
                "tempo": 120.0
            },
            {
                "start_time": 9.2318182,
                "end_time": 9.2818182,
                "pitch": 62,
                "velocity": 51,
                "duration": 0.05,
                "tempo": 120.0
            },
            {
                "start_time": 9.5136364,
                "end_time": 9.6136364,
                "pitch": 60,
                "velocity": 51,
                "duration": 0.1,
                "tempo": 120.0
            },
            {
                "start_time": 9.85,
                "end_time": 9.95,
                "pitch": 61,
                "velocity": 51,
                "duration": 0.1,
                "tempo": 120.0
            },
            {
                "start_time": 11.1863636,
                "end_time": 11.2863636,
                "pitch": 73,
                "velocity": 51,
                "duration": 0.1,
                "tempo": 120.0
            },
            {
                "start_time": 11.8568182,
                "end_time": 11.9068182,
                "pitch": 61,
                "velocity": 51,
                "duration": 0.05,
                "tempo": 120.0
            },
            {
                "start_time": 11.9068182,
                "end_time": 11.9568182,
                "pitch": 62,
                "velocity": 51,
                "duration": 0.05,
                "tempo": 120.0
            },
            {
                "start_time": 12.1931818,
                "end_time": 12.2931818,
                "pitch": 60,
                "velocity": 51,
                "duration": 0.1,
                "tempo": 120.0
            },
            {
                "start_time": 12.5295455,
                "end_time": 12.6295455,
                "pitch": 61,
                "velocity": 51,
                "duration": 0.1,
                "tempo": 120.0
            },
            {
                "start_time": 13.8727273,
                "end_time": 13.9727273,
                "pitch": 73,
                "velocity": 51,
                "duration": 0.1,
                "tempo": 120.0
            },
            {
                "start_time": 14.5409091,
                "end_time": 14.5886364,
                "pitch": 61,
                "velocity": 51,
                "duration": 0.0477273,
                "tempo": 120.0
            },
            {
                "start_time": 14.5886364,
                "end_time": 14.6386364,
                "pitch": 62,
                "velocity": 51,
                "duration": 0.05,
                "tempo": 120.0
            },
            {
                "start_time": 14.8727273,
                "end_time": 14.9727273,
                "pitch": 60,
                "velocity": 51,
                "duration": 0.1,
                "tempo": 120.0
            },
            {
                "start_time": 15.2068182,
                "end_time": 15.3068182,
                "pitch": 61,
                "velocity": 51,
                "duration": 0.1,
                "tempo": 120.0
            },
            {
                "start_time": 16.5431818,
                "end_time": 16.6431818,
                "pitch": 73,
                "velocity": 51,
                "duration": 0.1,
                "tempo": 120.0
            },
            {
                "start_time": 17.2159091,
                "end_time": 17.2636364,
                "pitch": 61,
                "velocity": 51,
                "duration": 0.0477273,
                "tempo": 120.0
            },
            {
                "start_time": 17.2659091,
                "end_time": 17.3159091,
                "pitch": 62,
                "velocity": 51,
                "duration": 0.05,
                "tempo": 120.0
            },
            {
                "start_time": 17.55,
                "end_time": 17.65,
                "pitch": 60,
                "velocity": 51,
                "duration": 0.1,
                "tempo": 120.0
            },
            {
                "start_time": 17.8863636,
                "end_time": 17.9863636,
                "pitch": 61,
                "velocity": 51,
                "duration": 0.1,
                "tempo": 120.0
            },
            {
                "start_time": 19.2272727,
                "end_time": 19.325,
                "pitch": 73,
                "velocity": 51,
                "duration": 0.0977273,
                "tempo": 120.0
            },
            {
                "start_time": 19.8931818,
                "end_time": 19.9431818,
                "pitch": 61,
                "velocity": 51,
                "duration": 0.05,
                "tempo": 120.0
            },
            {
                "start_time": 19.9431818,
                "end_time": 19.9931818,
                "pitch": 62,
                "velocity": 51,
                "duration": 0.05,
                "tempo": 120.0
            },
            {
                "start_time": 20.2295455,
                "end_time": 20.3295455,
                "pitch": 60,
                "velocity": 51,
                "duration": 0.1,
                "tempo": 120.0
            },
            {
                "start_time": 20.5659091,
                "end_time": 20.6659091,
                "pitch": 61,
                "velocity": 51,
                "duration": 0.1,
                "tempo": 120.0
            },
            {
                "start_time": 21.9,
                "end_time": 22.0022727,
                "pitch": 73,
                "velocity": 51,
                "duration": 0.1022727,
                "tempo": 120.0
            },
            {
                "start_time": 22.5727273,
                "end_time": 22.6227273,
                "pitch": 61,
                "velocity": 51,
                "duration": 0.05,
                "tempo": 120.0
            },
            {
                "start_time": 22.6227273,
                "end_time": 22.6727273,
                "pitch": 62,
                "velocity": 51,
                "duration": 0.05,
                "tempo": 120.0
            },
            {
                "start_time": 22.9090909,
                "end_time": 23.0090909,
                "pitch": 60,
                "velocity": 51,
                "duration": 0.1,
                "tempo": 120.0
            },
            {
                "start_time": 23.5795455,
                "end_time": 23.6795455,
                "pitch": 73,
                "velocity": 51,
                "duration": 0.1,
                "tempo": 120.0
            },
            {
                "start_time": 24.2454545,
                "end_time": 24.3454545,
                "pitch": 85,
                "velocity": 51,
                "duration": 0.1,
                "tempo": 120.0
            },
            {
                "start_time": 24.9227273,
                "end_time": 25.0227273,
                "pitch": 85,
                "velocity": 51,
                "duration": 0.1,
                "tempo": 120.0
            },
            {
                "start_time": 25.5863636,
                "end_time": 25.6863636,
                "pitch": 85,
                "velocity": 51,
                "duration": 0.1,
                "tempo": 120.0
            },
            {
                "start_time": 26.2522727,
                "end_time": 26.3522727,
                "pitch": 85,
                "velocity": 51,
                "duration": 0.1,
                "tempo": 120.0
            },
            {
                "start_time": 27.2636364,
                "end_time": 27.3613636,
                "pitch": 73,
                "velocity": 51,
                "duration": 0.0977273,
                "tempo": 120.0
            },
            {
                "start_time": 27.9295455,
                "end_time": 27.9795455,
                "pitch": 61,
                "velocity": 51,
                "duration": 0.05,
                "tempo": 120.0
            },
            {
                "start_time": 27.9818182,
                "end_time": 28.0318182,
                "pitch": 62,
                "velocity": 51,
                "duration": 0.05,
                "tempo": 120.0
            },
            {
                "start_time": 28.2659091,
                "end_time": 28.3659091,
                "pitch": 60,
                "velocity": 51,
                "duration": 0.1,
                "tempo": 120.0
            },
            {
                "start_time": 28.5977273,
                "end_time": 28.6977273,
                "pitch": 61,
                "velocity": 51,
                "duration": 0.1,
                "tempo": 120.0
            },
            {
                "start_time": 29.95,
                "end_time": 30.0522727,
                "pitch": 73,
                "velocity": 51,
                "duration": 0.1022727,
                "tempo": 120.0
            },
            {
                "start_time": 30.6204545,
                "end_time": 30.6704545,
                "pitch": 61,
                "velocity": 51,
                "duration": 0.05,
                "tempo": 120.0
            },
            {
                "start_time": 30.6704545,
                "end_time": 30.7181818,
                "pitch": 62,
                "velocity": 51,
                "duration": 0.0477273,
                "tempo": 120.0
            },
            {
                "start_time": 30.9454545,
                "end_time": 31.0454545,
                "pitch": 60,
                "velocity": 51,
                "duration": 0.1,
                "tempo": 120.0
            },
            {
                "start_time": 31.2818182,
                "end_time": 31.3818182,
                "pitch": 61,
                "velocity": 51,
                "duration": 0.1,
                "tempo": 120.0
            },
            {
                "start_time": 32.6295455,
                "end_time": 32.7318182,
                "pitch": 73,
                "velocity": 51,
                "duration": 0.1022727,
                "tempo": 120.0
            },
            {
                "start_time": 33.3,
                "end_time": 33.35,
                "pitch": 61,
                "velocity": 51,
                "duration": 0.05,
                "tempo": 120.0
            },
            {
                "start_time": 33.35,
                "end_time": 33.3977273,
                "pitch": 62,
                "velocity": 51,
                "duration": 0.0477273,
                "tempo": 120.0
            },
            {
                "start_time": 33.625,
                "end_time": 33.725,
                "pitch": 60,
                "velocity": 51,
                "duration": 0.1,
                "tempo": 120.0
            },
            {
                "start_time": 33.9613636,
                "end_time": 34.0613636,
                "pitch": 61,
                "velocity": 51,
                "duration": 0.1,
                "tempo": 120.0
            },
            {
                "start_time": 35.3090909,
                "end_time": 35.4090909,
                "pitch": 73,
                "velocity": 51,
                "duration": 0.1,
                "tempo": 120.0
            },
            {
                "start_time": 35.9727273,
                "end_time": 36.0204545,
                "pitch": 61,
                "velocity": 51,
                "duration": 0.0477273,
                "tempo": 120.0
            },
            {
                "start_time": 36.0204545,
                "end_time": 36.0704545,
                "pitch": 62,
                "velocity": 51,
                "duration": 0.05,
                "tempo": 120.0
            },
            {
                "start_time": 36.2977273,
                "end_time": 36.3977273,
                "pitch": 60,
                "velocity": 51,
                "duration": 0.1,
                "tempo": 120.0
            },
            {
                "start_time": 36.6340909,
                "end_time": 36.7340909,
                "pitch": 61,
                "velocity": 51,
                "duration": 0.1,
                "tempo": 120.0
            },
            {
                "start_time": 37.9795455,
                "end_time": 38.0818182,
                "pitch": 73,
                "velocity": 51,
                "duration": 0.1022727,
                "tempo": 120.0
            },
            {
                "start_time": 38.6454545,
                "end_time": 38.6931818,
                "pitch": 61,
                "velocity": 51,
                "duration": 0.0477273,
                "tempo": 120.0
            },
            {
                "start_time": 38.6931818,
                "end_time": 38.7409091,
                "pitch": 62,
                "velocity": 51,
                "duration": 0.0477273,
                "tempo": 120.0
            },
            {
                "start_time": 38.9704545,
                "end_time": 39.0704545,
                "pitch": 60,
                "velocity": 51,
                "duration": 0.1,
                "tempo": 120.0
            },
            {
                "start_time": 39.3045455,
                "end_time": 39.4045455,
                "pitch": 61,
                "velocity": 51,
                "duration": 0.1,
                "tempo": 120.0
            },
            {
                "start_time": 40.6522727,
                "end_time": 40.7522727,
                "pitch": 73,
                "velocity": 51,
                "duration": 0.1,
                "tempo": 120.0
            },
            {
                "start_time": 41.3159091,
                "end_time": 41.3636364,
                "pitch": 61,
                "velocity": 51,
                "duration": 0.0477273,
                "tempo": 120.0
            },
            {
                "start_time": 41.3636364,
                "end_time": 41.4136364,
                "pitch": 62,
                "velocity": 51,
                "duration": 0.05,
                "tempo": 120.0
            },
            {
                "start_time": 41.6409091,
                "end_time": 41.7409091,
                "pitch": 60,
                "velocity": 51,
                "duration": 0.1,
                "tempo": 120.0
            },
            {
                "start_time": 41.9772727,
                "end_time": 42.0772727,
                "pitch": 61,
                "velocity": 51,
                "duration": 0.1,
                "tempo": 120.0
            },
            {
                "start_time": 43.3204545,
                "end_time": 43.4204545,
                "pitch": 73,
                "velocity": 51,
                "duration": 0.1,
                "tempo": 120.0
            },
            {
                "start_time": 43.9886364,
                "end_time": 44.0363636,
                "pitch": 61,
                "velocity": 51,
                "duration": 0.0477273,
                "tempo": 120.0
            },
            {
                "start_time": 44.0386364,
                "end_time": 44.0863636,
                "pitch": 62,
                "velocity": 51,
                "duration": 0.0477273,
                "tempo": 120.0
            },
            {
                "start_time": 44.3204545,
                "end_time": 44.4204545,
                "pitch": 60,
                "velocity": 51,
                "duration": 0.1,
                "tempo": 120.0
            },
            {
                "start_time": 44.6568182,
                "end_time": 44.7568182,
                "pitch": 61,
                "velocity": 51,
                "duration": 0.1,
                "tempo": 120.0
            },
            {
                "start_time": 46.0,
                "end_time": 46.1,
                "pitch": 73,
                "velocity": 51,
                "duration": 0.1,
                "tempo": 120.0
            },
            {
                "start_time": 46.6681818,
                "end_time": 46.7159091,
                "pitch": 61,
                "velocity": 51,
                "duration": 0.0477273,
                "tempo": 120.0
            },
            {
                "start_time": 46.7159091,
                "end_time": 46.7659091,
                "pitch": 62,
                "velocity": 51,
                "duration": 0.05,
                "tempo": 120.0
            },
            {
                "start_time": 47.0,
                "end_time": 47.1,
                "pitch": 60,
                "velocity": 51,
                "duration": 0.1,
                "tempo": 120.0
            },
            {
                "start_time": 47.3363636,
                "end_time": 47.4340909,
                "pitch": 61,
                "velocity": 51,
                "duration": 0.0977273,
                "tempo": 120.0
            },
            {
                "start_time": 48.6772727,
                "end_time": 48.7772727,
                "pitch": 73,
                "velocity": 51,
                "duration": 0.1,
                "tempo": 120.0
            },
            {
                "start_time": 49.3454545,
                "end_time": 49.3954545,
                "pitch": 61,
                "velocity": 51,
                "duration": 0.05,
                "tempo": 120.0
            },
            {
                "start_time": 49.3954545,
                "end_time": 49.4454545,
                "pitch": 62,
                "velocity": 51,
                "duration": 0.05,
                "tempo": 120.0
            },
            {
                "start_time": 49.6772727,
                "end_time": 49.7772727,
                "pitch": 60,
                "velocity": 51,
                "duration": 0.1,
                "tempo": 120.0
            },
            {
                "start_time": 50.35,
                "end_time": 50.45,
                "pitch": 73,
                "velocity": 51,
                "duration": 0.1,
                "tempo": 120.0
            },
            {
                "start_time": 51.0227273,
                "end_time": 51.1204545,
                "pitch": 85,
                "velocity": 51,
                "duration": 0.0977273,
                "tempo": 120.0
            },
            {
                "start_time": 51.6931818,
                "end_time": 51.7909091,
                "pitch": 85,
                "velocity": 51,
                "duration": 0.0977273,
                "tempo": 120.0
            },
            {
                "start_time": 52.3568182,
                "end_time": 52.4568182,
                "pitch": 85,
                "velocity": 51,
                "duration": 0.1,
                "tempo": 120.0
            },
            {
                "start_time": 53.0295455,
                "end_time": 53.1295455,
                "pitch": 85,
                "velocity": 51,
                "duration": 0.1,
                "tempo": 120.0
            },
            {
                "start_time": 54.0363636,
                "end_time": 54.1363636,
                "pitch": 73,
                "velocity": 51,
                "duration": 0.1,
                "tempo": 120.0
            },
            {
                "start_time": 54.7045455,
                "end_time": 54.7522727,
                "pitch": 61,
                "velocity": 51,
                "duration": 0.0477273,
                "tempo": 120.0
            },
            {
                "start_time": 54.7522727,
                "end_time": 54.8022727,
                "pitch": 62,
                "velocity": 51,
                "duration": 0.05,
                "tempo": 120.0
            },
            {
                "start_time": 55.0363636,
                "end_time": 55.1363636,
                "pitch": 60,
                "velocity": 51,
                "duration": 0.1,
                "tempo": 120.0
            },
            {
                "start_time": 55.3727273,
                "end_time": 55.4727273,
                "pitch": 61,
                "velocity": 51,
                "duration": 0.1,
                "tempo": 120.0
            },
            {
                "start_time": 56.7159091,
                "end_time": 56.8159091,
                "pitch": 73,
                "velocity": 51,
                "duration": 0.1,
                "tempo": 120.0
            },
            {
                "start_time": 57.3840909,
                "end_time": 57.4318182,
                "pitch": 61,
                "velocity": 51,
                "duration": 0.0477273,
                "tempo": 120.0
            },
            {
                "start_time": 57.4318182,
                "end_time": 57.4818182,
                "pitch": 62,
                "velocity": 51,
                "duration": 0.05,
                "tempo": 120.0
            },
            {
                "start_time": 57.7159091,
                "end_time": 57.8159091,
                "pitch": 60,
                "velocity": 51,
                "duration": 0.1,
                "tempo": 120.0
            },
            {
                "start_time": 58.05,
                "end_time": 58.15,
                "pitch": 61,
                "velocity": 51,
                "duration": 0.1,
                "tempo": 120.0
            },
            {
                "start_time": 59.3931818,
                "end_time": 59.4931818,
                "pitch": 73,
                "velocity": 51,
                "duration": 0.1,
                "tempo": 120.0
            },
            {
                "start_time": 60.0659091,
                "end_time": 60.1159091,
                "pitch": 61,
                "velocity": 51,
                "duration": 0.05,
                "tempo": 120.0
            },
            {
                "start_time": 60.1159091,
                "end_time": 60.1659091,
                "pitch": 62,
                "velocity": 51,
                "duration": 0.05,
                "tempo": 120.0
            },
            {
                "start_time": 60.4022727,
                "end_time": 60.5,
                "pitch": 60,
                "velocity": 51,
                "duration": 0.0977273,
                "tempo": 120.0
            },
            {
                "start_time": 60.7340909,
                "end_time": 60.8318182,
                "pitch": 61,
                "velocity": 51,
                "duration": 0.0977273,
                "tempo": 120.0
            },
            {
                "start_time": 62.0727273,
                "end_time": 62.1727273,
                "pitch": 73,
                "velocity": 51,
                "duration": 0.1,
                "tempo": 120.0
            },
            {
                "start_time": 62.7454545,
                "end_time": 62.7931818,
                "pitch": 61,
                "velocity": 51,
                "duration": 0.0477273,
                "tempo": 120.0
            },
            {
                "start_time": 62.7931818,
                "end_time": 62.8431818,
                "pitch": 62,
                "velocity": 51,
                "duration": 0.05,
                "tempo": 120.0
            },
            {
                "start_time": 63.0795455,
                "end_time": 63.1795455,
                "pitch": 60,
                "velocity": 51,
                "duration": 0.1,
                "tempo": 120.0
            },
            {
                "start_time": 63.4113636,
                "end_time": 63.5113636,
                "pitch": 61,
                "velocity": 51,
                "duration": 0.1,
                "tempo": 120.0
            },
            {
                "start_time": 64.7522727,
                "end_time": 64.8522727,
                "pitch": 73,
                "velocity": 51,
                "duration": 0.1,
                "tempo": 120.0
            },
            {
                "start_time": 65.4204545,
                "end_time": 65.4681818,
                "pitch": 61,
                "velocity": 51,
                "duration": 0.0477273,
                "tempo": 120.0
            },
            {
                "start_time": 65.4681818,
                "end_time": 65.5181818,
                "pitch": 62,
                "velocity": 51,
                "duration": 0.05,
                "tempo": 120.0
            },
            {
                "start_time": 65.7522727,
                "end_time": 65.8522727,
                "pitch": 60,
                "velocity": 51,
                "duration": 0.1,
                "tempo": 120.0
            },
            {
                "start_time": 66.0863636,
                "end_time": 66.1863636,
                "pitch": 61,
                "velocity": 51,
                "duration": 0.1,
                "tempo": 120.0
            },
            {
                "start_time": 67.4318182,
                "end_time": 67.5295455,
                "pitch": 73,
                "velocity": 51,
                "duration": 0.0977273,
                "tempo": 120.0
            },
            {
                "start_time": 68.1022727,
                "end_time": 68.1522727,
                "pitch": 61,
                "velocity": 51,
                "duration": 0.05,
                "tempo": 120.0
            },
            {
                "start_time": 68.1522727,
                "end_time": 68.2022727,
                "pitch": 62,
                "velocity": 51,
                "duration": 0.05,
                "tempo": 120.0
            },
            {
                "start_time": 68.4386364,
                "end_time": 68.5363636,
                "pitch": 60,
                "velocity": 51,
                "duration": 0.0977273,
                "tempo": 120.0
            },
            {
                "start_time": 68.7704545,
                "end_time": 68.8681818,
                "pitch": 61,
                "velocity": 51,
                "duration": 0.0977273,
                "tempo": 120.0
            },
            {
                "start_time": 70.1090909,
                "end_time": 70.2090909,
                "pitch": 73,
                "velocity": 51,
                "duration": 0.1,
                "tempo": 120.0
            },
            {
                "start_time": 70.7818182,
                "end_time": 70.8295455,
                "pitch": 61,
                "velocity": 51,
                "duration": 0.0477273,
                "tempo": 120.0
            },
            {
                "start_time": 70.8318182,
                "end_time": 70.8818182,
                "pitch": 62,
                "velocity": 51,
                "duration": 0.05,
                "tempo": 120.0
            },
            {
                "start_time": 71.1181818,
                "end_time": 71.2159091,
                "pitch": 60,
                "velocity": 51,
                "duration": 0.0977273,
                "tempo": 120.0
            },
            {
                "start_time": 71.45,
                "end_time": 71.5477273,
                "pitch": 61,
                "velocity": 51,
                "duration": 0.0977273,
                "tempo": 120.0
            },
            {
                "start_time": 72.7886364,
                "end_time": 72.8886364,
                "pitch": 73,
                "velocity": 51,
                "duration": 0.1,
                "tempo": 120.0
            },
            {
                "start_time": 73.4590909,
                "end_time": 73.5090909,
                "pitch": 61,
                "velocity": 51,
                "duration": 0.05,
                "tempo": 120.0
            },
            {
                "start_time": 73.5090909,
                "end_time": 73.5590909,
                "pitch": 62,
                "velocity": 51,
                "duration": 0.05,
                "tempo": 120.0
            },
            {
                "start_time": 73.7954545,
                "end_time": 73.8954545,
                "pitch": 60,
                "velocity": 51,
                "duration": 0.1,
                "tempo": 120.0
            },
            {
                "start_time": 74.1272727,
                "end_time": 74.2272727,
                "pitch": 61,
                "velocity": 51,
                "duration": 0.1,
                "tempo": 120.0
            },
            {
                "start_time": 75.4681818,
                "end_time": 75.5681818,
                "pitch": 73,
                "velocity": 51,
                "duration": 0.1,
                "tempo": 120.0
            },
            {
                "start_time": 76.1386364,
                "end_time": 76.1886364,
                "pitch": 61,
                "velocity": 51,
                "duration": 0.05,
                "tempo": 120.0
            },
            {
                "start_time": 76.1886364,
                "end_time": 76.2386364,
                "pitch": 62,
                "velocity": 51,
                "duration": 0.05,
                "tempo": 120.0
            },
            {
                "start_time": 76.475,
                "end_time": 76.5727273,
                "pitch": 60,
                "velocity": 51,
                "duration": 0.0977273,
                "tempo": 120.0
            },
            {
                "start_time": 77.1386364,
                "end_time": 77.2386364,
                "pitch": 73,
                "velocity": 51,
                "duration": 0.1,
                "tempo": 120.0
            },
            {
                "start_time": 77.8113636,
                "end_time": 77.9113636,
                "pitch": 85,
                "velocity": 51,
                "duration": 0.1,
                "tempo": 120.0
            },
            {
                "start_time": 78.4818182,
                "end_time": 78.5818182,
                "pitch": 85,
                "velocity": 51,
                "duration": 0.1,
                "tempo": 120.0
            },
            {
                "start_time": 79.1545455,
                "end_time": 79.2522727,
                "pitch": 85,
                "velocity": 51,
                "duration": 0.0977273,
                "tempo": 120.0
            },
            {
                "start_time": 79.8181818,
                "end_time": 79.9181818,
                "pitch": 85,
                "velocity": 51,
                "duration": 0.1,
                "tempo": 120.0
            },
            {
                "start_time": 80.825,
                "end_time": 80.925,
                "pitch": 73,
                "velocity": 51,
                "duration": 0.1,
                "tempo": 120.0
            },
            {
                "start_time": 81.4931818,
                "end_time": 81.5409091,
                "pitch": 61,
                "velocity": 51,
                "duration": 0.0477273,
                "tempo": 120.0
            },
            {
                "start_time": 81.5431818,
                "end_time": 81.5909091,
                "pitch": 62,
                "velocity": 51,
                "duration": 0.0477273,
                "tempo": 120.0
            },
            {
                "start_time": 81.825,
                "end_time": 81.925,
                "pitch": 60,
                "velocity": 51,
                "duration": 0.1,
                "tempo": 120.0
            },
            {
                "start_time": 82.1613636,
                "end_time": 82.2613636,
                "pitch": 61,
                "velocity": 51,
                "duration": 0.1,
                "tempo": 120.0
            },
            {
                "start_time": 83.5068182,
                "end_time": 83.6090909,
                "pitch": 73,
                "velocity": 51,
                "duration": 0.1022727,
                "tempo": 120.0
            },
            {
                "start_time": 84.1795455,
                "end_time": 84.2295455,
                "pitch": 61,
                "velocity": 51,
                "duration": 0.05,
                "tempo": 120.0
            },
            {
                "start_time": 84.2295455,
                "end_time": 84.2772727,
                "pitch": 62,
                "velocity": 51,
                "duration": 0.0477273,
                "tempo": 120.0
            },
            {
                "start_time": 84.5113636,
                "end_time": 84.6113636,
                "pitch": 60,
                "velocity": 51,
                "duration": 0.1,
                "tempo": 120.0
            },
            {
                "start_time": 84.8431818,
                "end_time": 84.9431818,
                "pitch": 61,
                "velocity": 51,
                "duration": 0.1,
                "tempo": 120.0
            },
            {
                "start_time": 86.1863636,
                "end_time": 86.2886364,
                "pitch": 73,
                "velocity": 51,
                "duration": 0.1022727,
                "tempo": 120.0
            },
            {
                "start_time": 86.8590909,
                "end_time": 86.9068182,
                "pitch": 61,
                "velocity": 51,
                "duration": 0.0477273,
                "tempo": 120.0
            },
            {
                "start_time": 86.9068182,
                "end_time": 86.9568182,
                "pitch": 62,
                "velocity": 51,
                "duration": 0.05,
                "tempo": 120.0
            },
            {
                "start_time": 87.1909091,
                "end_time": 87.2886364,
                "pitch": 60,
                "velocity": 51,
                "duration": 0.0977273,
                "tempo": 120.0
            },
            {
                "start_time": 87.5227273,
                "end_time": 87.6204545,
                "pitch": 61,
                "velocity": 51,
                "duration": 0.0977273,
                "tempo": 120.0
            },
            {
                "start_time": 88.8659091,
                "end_time": 88.9659091,
                "pitch": 73,
                "velocity": 51,
                "duration": 0.1,
                "tempo": 120.0
            },
            {
                "start_time": 89.5386364,
                "end_time": 89.5863636,
                "pitch": 61,
                "velocity": 51,
                "duration": 0.0477273,
                "tempo": 120.0
            },
            {
                "start_time": 89.5863636,
                "end_time": 89.6363636,
                "pitch": 62,
                "velocity": 51,
                "duration": 0.05,
                "tempo": 120.0
            },
            {
                "start_time": 89.8704545,
                "end_time": 89.9681818,
                "pitch": 60,
                "velocity": 51,
                "duration": 0.0977273,
                "tempo": 120.0
            },
            {
                "start_time": 90.2022727,
                "end_time": 90.3,
                "pitch": 61,
                "velocity": 51,
                "duration": 0.0977273,
                "tempo": 120.0
            },
            {
                "start_time": 91.5454545,
                "end_time": 91.6454545,
                "pitch": 73,
                "velocity": 51,
                "duration": 0.1,
                "tempo": 120.0
            },
            {
                "start_time": 92.2159091,
                "end_time": 92.2659091,
                "pitch": 61,
                "velocity": 51,
                "duration": 0.05,
                "tempo": 120.0
            },
            {
                "start_time": 92.2659091,
                "end_time": 92.3159091,
                "pitch": 62,
                "velocity": 51,
                "duration": 0.05,
                "tempo": 120.0
            },
            {
                "start_time": 92.55,
                "end_time": 92.6477273,
                "pitch": 60,
                "velocity": 51,
                "duration": 0.0977273,
                "tempo": 120.0
            },
            {
                "start_time": 92.8818182,
                "end_time": 92.9795455,
                "pitch": 61,
                "velocity": 51,
                "duration": 0.0977273,
                "tempo": 120.0
            },
            {
                "start_time": 94.225,
                "end_time": 94.325,
                "pitch": 73,
                "velocity": 51,
                "duration": 0.1,
                "tempo": 120.0
            },
            {
                "start_time": 94.8954545,
                "end_time": 94.9454545,
                "pitch": 61,
                "velocity": 51,
                "duration": 0.05,
                "tempo": 120.0
            },
            {
                "start_time": 94.9454545,
                "end_time": 94.9954545,
                "pitch": 62,
                "velocity": 51,
                "duration": 0.05,
                "tempo": 120.0
            },
            {
                "start_time": 95.2272727,
                "end_time": 95.3272727,
                "pitch": 60,
                "velocity": 51,
                "duration": 0.1,
                "tempo": 120.0
            },
            {
                "start_time": 95.5590909,
                "end_time": 95.6590909,
                "pitch": 61,
                "velocity": 51,
                "duration": 0.1,
                "tempo": 120.0
            },
            {
                "start_time": 96.9022727,
                "end_time": 97.0045455,
                "pitch": 73,
                "velocity": 51,
                "duration": 0.1022727,
                "tempo": 120.0
            },
            {
                "start_time": 97.575,
                "end_time": 97.625,
                "pitch": 61,
                "velocity": 51,
                "duration": 0.05,
                "tempo": 120.0
            },
            {
                "start_time": 97.625,
                "end_time": 97.6727273,
                "pitch": 62,
                "velocity": 51,
                "duration": 0.0477273,
                "tempo": 120.0
            },
            {
                "start_time": 97.9068182,
                "end_time": 98.0068182,
                "pitch": 60,
                "velocity": 51,
                "duration": 0.1,
                "tempo": 120.0
            },
            {
                "start_time": 98.2386364,
                "end_time": 98.3386364,
                "pitch": 61,
                "velocity": 51,
                "duration": 0.1,
                "tempo": 120.0
            },
            {
                "start_time": 99.5795455,
                "end_time": 99.6795455,
                "pitch": 73,
                "velocity": 51,
                "duration": 0.1,
                "tempo": 120.0
            },
            {
                "start_time": 100.25,
                "end_time": 100.3,
                "pitch": 61,
                "velocity": 51,
                "duration": 0.05,
                "tempo": 120.0
            },
            {
                "start_time": 100.3,
                "end_time": 100.35,
                "pitch": 62,
                "velocity": 51,
                "duration": 0.05,
                "tempo": 120.0
            },
            {
                "start_time": 100.5863636,
                "end_time": 100.6840909,
                "pitch": 60,
                "velocity": 51,
                "duration": 0.0977273,
                "tempo": 120.0
            },
            {
                "start_time": 100.9181818,
                "end_time": 101.0159091,
                "pitch": 61,
                "velocity": 51,
                "duration": 0.0977273,
                "tempo": 120.0
            },
            {
                "start_time": 102.2568182,
                "end_time": 102.3568182,
                "pitch": 73,
                "velocity": 51,
                "duration": 0.1,
                "tempo": 120.0
            },
            {
                "start_time": 102.9295455,
                "end_time": 102.9795455,
                "pitch": 61,
                "velocity": 51,
                "duration": 0.05,
                "tempo": 120.0
            },
            {
                "start_time": 102.9795455,
                "end_time": 103.0295455,
                "pitch": 62,
                "velocity": 51,
                "duration": 0.05,
                "tempo": 120.0
            },
            {
                "start_time": 103.2659091,
                "end_time": 103.3636364,
                "pitch": 60,
                "velocity": 51,
                "duration": 0.0977273,
                "tempo": 120.0
            },
            {
                "start_time": 103.9295455,
                "end_time": 104.0295455,
                "pitch": 73,
                "velocity": 51,
                "duration": 0.1,
                "tempo": 120.0
            },
            {
                "start_time": 104.6,
                "end_time": 104.7,
                "pitch": 85,
                "velocity": 51,
                "duration": 0.1,
                "tempo": 120.0
            },
            {
                "start_time": 105.2727273,
                "end_time": 105.3727273,
                "pitch": 85,
                "velocity": 51,
                "duration": 0.1,
                "tempo": 120.0
            },
            {
                "start_time": 105.9431818,
                "end_time": 106.0431818,
                "pitch": 85,
                "velocity": 51,
                "duration": 0.1,
                "tempo": 120.0
            },
            {
                "start_time": 106.6090909,
                "end_time": 106.7068182,
                "pitch": 85,
                "velocity": 51,
                "duration": 0.0977273,
                "tempo": 120.0
            }
        ],
        "Trumpet": [
            {
                "start_time": 23.9113636,
                "end_time": 24.0272727,
                "pitch": 40,
                "velocity": 80,
                "duration": 0.1159091,
                "tempo": 120.0
            },
            {
                "start_time": 24.0772727,
                "end_time": 24.1931818,
                "pitch": 38,
                "velocity": 80,
                "duration": 0.1159091,
                "tempo": 120.0
            },
            {
                "start_time": 24.2431818,
                "end_time": 24.3272727,
                "pitch": 37,
                "velocity": 80,
                "duration": 0.0840909,
                "tempo": 120.0
            },
            {
                "start_time": 24.5840909,
                "end_time": 24.6681818,
                "pitch": 35,
                "velocity": 80,
                "duration": 0.0840909,
                "tempo": 120.0
            },
            {
                "start_time": 24.9227273,
                "end_time": 25.0045455,
                "pitch": 33,
                "velocity": 80,
                "duration": 0.0818182,
                "tempo": 120.0
            },
            {
                "start_time": 25.9181818,
                "end_time": 26.0022727,
                "pitch": 31,
                "velocity": 80,
                "duration": 0.0840909,
                "tempo": 120.0
            },
            {
                "start_time": 26.25,
                "end_time": 26.3363636,
                "pitch": 30,
                "velocity": 80,
                "duration": 0.0863636,
                "tempo": 120.0
            },
            {
                "start_time": 26.5909091,
                "end_time": 26.675,
                "pitch": 28,
                "velocity": 80,
                "duration": 0.0840909,
                "tempo": 120.0
            },
            {
                "start_time": 26.9295455,
                "end_time": 27.0136364,
                "pitch": 38,
                "velocity": 80,
                "duration": 0.0840909,
                "tempo": 120.0
            },
            {
                "start_time": 27.5931818,
                "end_time": 27.6772727,
                "pitch": 38,
                "velocity": 80,
                "duration": 0.0840909,
                "tempo": 120.0
            },
            {
                "start_time": 28.2659091,
                "end_time": 28.3477273,
                "pitch": 38,
                "velocity": 80,
                "duration": 0.0818182,
                "tempo": 120.0
            },
            {
                "start_time": 28.9295455,
                "end_time": 29.0136364,
                "pitch": 38,
                "velocity": 80,
                "duration": 0.0840909,
                "tempo": 120.0
            },
            {
                "start_time": 29.2659091,
                "end_time": 29.6022727,
                "pitch": 37,
                "velocity": 80,
                "duration": 0.3363636,
                "tempo": 120.0
            },
            {
                "start_time": 29.6022727,
                "end_time": 29.6886364,
                "pitch": 38,
                "velocity": 80,
                "duration": 0.0863636,
                "tempo": 120.0
            },
            {
                "start_time": 30.2954545,
                "end_time": 30.3772727,
                "pitch": 38,
                "velocity": 80,
                "duration": 0.0818182,
                "tempo": 120.0
            },
            {
                "start_time": 30.9454545,
                "end_time": 31.0295455,
                "pitch": 38,
                "velocity": 80,
                "duration": 0.0840909,
                "tempo": 120.0
            },
            {
                "start_time": 31.6181818,
                "end_time": 31.7,
                "pitch": 38,
                "velocity": 80,
                "duration": 0.0818182,
                "tempo": 120.0
            },
            {
                "start_time": 31.95,
                "end_time": 32.2818182,
                "pitch": 37,
                "velocity": 80,
                "duration": 0.3318182,
                "tempo": 120.0
            },
            {
                "start_time": 32.2818182,
                "end_time": 32.3681818,
                "pitch": 38,
                "velocity": 80,
                "duration": 0.0863636,
                "tempo": 120.0
            },
            {
                "start_time": 32.975,
                "end_time": 33.0568182,
                "pitch": 38,
                "velocity": 80,
                "duration": 0.0818182,
                "tempo": 120.0
            },
            {
                "start_time": 33.625,
                "end_time": 33.7090909,
                "pitch": 38,
                "velocity": 80,
                "duration": 0.0840909,
                "tempo": 120.0
            },
            {
                "start_time": 34.2977273,
                "end_time": 34.3795455,
                "pitch": 38,
                "velocity": 80,
                "duration": 0.0818182,
                "tempo": 120.0
            },
            {
                "start_time": 34.6318182,
                "end_time": 34.9681818,
                "pitch": 37,
                "velocity": 80,
                "duration": 0.3363636,
                "tempo": 120.0
            },
            {
                "start_time": 34.9681818,
                "end_time": 35.0522727,
                "pitch": 38,
                "velocity": 80,
                "duration": 0.0840909,
                "tempo": 120.0
            },
            {
                "start_time": 35.6477273,
                "end_time": 35.7272727,
                "pitch": 38,
                "velocity": 80,
                "duration": 0.0795455,
                "tempo": 120.0
            },
            {
                "start_time": 36.2977273,
                "end_time": 36.3795455,
                "pitch": 38,
                "velocity": 80,
                "duration": 0.0818182,
                "tempo": 120.0
            },
            {
                "start_time": 36.9681818,
                "end_time": 37.0522727,
                "pitch": 38,
                "velocity": 80,
                "duration": 0.0840909,
                "tempo": 120.0
            },
            {
                "start_time": 37.3045455,
                "end_time": 37.6409091,
                "pitch": 37,
                "velocity": 80,
                "duration": 0.3363636,
                "tempo": 120.0
            },
            {
                "start_time": 37.6409091,
                "end_time": 37.725,
                "pitch": 38,
                "velocity": 80,
                "duration": 0.0840909,
                "tempo": 120.0
            },
            {
                "start_time": 38.3204545,
                "end_time": 38.4,
                "pitch": 38,
                "velocity": 80,
                "duration": 0.0795455,
                "tempo": 120.0
            },
            {
                "start_time": 38.9681818,
                "end_time": 39.0522727,
                "pitch": 38,
                "velocity": 80,
                "duration": 0.0840909,
                "tempo": 120.0
            },
            {
                "start_time": 39.6409091,
                "end_time": 39.725,
                "pitch": 38,
                "velocity": 80,
                "duration": 0.0840909,
                "tempo": 120.0
            },
            {
                "start_time": 39.9772727,
                "end_time": 40.3113636,
                "pitch": 37,
                "velocity": 80,
                "duration": 0.3340909,
                "tempo": 120.0
            },
            {
                "start_time": 40.3136364,
                "end_time": 40.3954545,
                "pitch": 38,
                "velocity": 80,
                "duration": 0.0818182,
                "tempo": 120.0
            },
            {
                "start_time": 40.9909091,
                "end_time": 41.0727273,
                "pitch": 38,
                "velocity": 80,
                "duration": 0.0818182,
                "tempo": 120.0
            },
            {
                "start_time": 41.6409091,
                "end_time": 41.725,
                "pitch": 38,
                "velocity": 80,
                "duration": 0.0840909,
                "tempo": 120.0
            },
            {
                "start_time": 42.3136364,
                "end_time": 42.3954545,
                "pitch": 38,
                "velocity": 80,
                "duration": 0.0818182,
                "tempo": 120.0
            },
            {
                "start_time": 42.6477273,
                "end_time": 42.9840909,
                "pitch": 37,
                "velocity": 80,
                "duration": 0.3363636,
                "tempo": 120.0
            },
            {
                "start_time": 42.9840909,
                "end_time": 43.0681818,
                "pitch": 40,
                "velocity": 80,
                "duration": 0.0840909,
                "tempo": 120.0
            },
            {
                "start_time": 43.6568182,
                "end_time": 43.7386364,
                "pitch": 45,
                "velocity": 80,
                "duration": 0.0818182,
                "tempo": 120.0
            },
            {
                "start_time": 44.3204545,
                "end_time": 44.4022727,
                "pitch": 33,
                "velocity": 80,
                "duration": 0.0818182,
                "tempo": 120.0
            },
            {
                "start_time": 44.9909091,
                "end_time": 45.075,
                "pitch": 33,
                "velocity": 80,
                "duration": 0.0840909,
                "tempo": 120.0
            },
            {
                "start_time": 45.6636364,
                "end_time": 45.7454545,
                "pitch": 40,
                "velocity": 80,
                "duration": 0.0818182,
                "tempo": 120.0
            },
            {
                "start_time": 46.0,
                "end_time": 46.0818182,
                "pitch": 45,
                "velocity": 80,
                "duration": 0.0818182,
                "tempo": 120.0
            },
            {
                "start_time": 46.3340909,
                "end_time": 46.4181818,
                "pitch": 33,
                "velocity": 80,
                "duration": 0.0840909,
                "tempo": 120.0
            },
            {
                "start_time": 47.0,
                "end_time": 47.0818182,
                "pitch": 40,
                "velocity": 80,
                "duration": 0.0818182,
                "tempo": 120.0
            },
            {
                "start_time": 47.3340909,
                "end_time": 47.4181818,
                "pitch": 40,
                "velocity": 80,
                "duration": 0.0840909,
                "tempo": 120.0
            },
            {
                "start_time": 48.3431818,
                "end_time": 48.425,
                "pitch": 40,
                "velocity": 80,
                "duration": 0.0818182,
                "tempo": 120.0
            },
            {
                "start_time": 49.0136364,
                "end_time": 49.0954545,
                "pitch": 45,
                "velocity": 80,
                "duration": 0.0818182,
                "tempo": 120.0
            },
            {
                "start_time": 49.6772727,
                "end_time": 49.7613636,
                "pitch": 33,
                "velocity": 80,
                "duration": 0.0840909,
                "tempo": 120.0
            },
            {
                "start_time": 50.35,
                "end_time": 50.4318182,
                "pitch": 33,
                "velocity": 80,
                "duration": 0.0818182,
                "tempo": 120.0
            },
            {
                "start_time": 50.6863636,
                "end_time": 50.8022727,
                "pitch": 40,
                "velocity": 80,
                "duration": 0.1159091,
                "tempo": 120.0
            },
            {
                "start_time": 50.8522727,
                "end_time": 50.9704545,
                "pitch": 38,
                "velocity": 80,
                "duration": 0.1181818,
                "tempo": 120.0
            },
            {
                "start_time": 51.0204545,
                "end_time": 51.1045455,
                "pitch": 37,
                "velocity": 80,
                "duration": 0.0840909,
                "tempo": 120.0
            },
            {
                "start_time": 51.3568182,
                "end_time": 51.4409091,
                "pitch": 35,
                "velocity": 80,
                "duration": 0.0840909,
                "tempo": 120.0
            },
            {
                "start_time": 51.6931818,
                "end_time": 51.775,
                "pitch": 33,
                "velocity": 80,
                "duration": 0.0818182,
                "tempo": 120.0
            },
            {
                "start_time": 52.6931818,
                "end_time": 52.775,
                "pitch": 31,
                "velocity": 80,
                "duration": 0.0818182,
                "tempo": 120.0
            },
            {
                "start_time": 53.0272727,
                "end_time": 53.1113636,
                "pitch": 30,
                "velocity": 80,
                "duration": 0.0840909,
                "tempo": 120.0
            },
            {
                "start_time": 53.3636364,
                "end_time": 53.4477273,
                "pitch": 28,
                "velocity": 80,
                "duration": 0.0840909,
                "tempo": 120.0
            },
            {
                "start_time": 53.7,
                "end_time": 54.1181818,
                "pitch": 26,
                "velocity": 80,
                "duration": 0.4181818,
                "tempo": 120.0
            },
            {
                "start_time": 54.3704545,
                "end_time": 54.7863636,
                "pitch": 30,
                "velocity": 80,
                "duration": 0.4159091,
                "tempo": 120.0
            },
            {
                "start_time": 55.0363636,
                "end_time": 55.4545455,
                "pitch": 33,
                "velocity": 80,
                "duration": 0.4181818,
                "tempo": 120.0
            },
            {
                "start_time": 55.7068182,
                "end_time": 56.025,
                "pitch": 38,
                "velocity": 80,
                "duration": 0.3181818,
                "tempo": 120.0
            },
            {
                "start_time": 56.2113636,
                "end_time": 56.3272727,
                "pitch": 38,
                "velocity": 80,
                "duration": 0.1159091,
                "tempo": 120.0
            },
            {
                "start_time": 56.3795455,
                "end_time": 56.4613636,
                "pitch": 37,
                "velocity": 80,
                "duration": 0.0818182,
                "tempo": 120.0
            },
            {
                "start_time": 56.7136364,
                "end_time": 56.7977273,
                "pitch": 35,
                "velocity": 80,
                "duration": 0.0840909,
                "tempo": 120.0
            },
            {
                "start_time": 57.05,
                "end_time": 57.1318182,
                "pitch": 33,
                "velocity": 80,
                "duration": 0.0818182,
                "tempo": 120.0
            },
            {
                "start_time": 57.3818182,
                "end_time": 57.4659091,
                "pitch": 31,
                "velocity": 80,
                "duration": 0.0840909,
                "tempo": 120.0
            },
            {
                "start_time": 57.7136364,
                "end_time": 58.5522727,
                "pitch": 33,
                "velocity": 80,
                "duration": 0.8386364,
                "tempo": 120.0
            },
            {
                "start_time": 59.0568182,
                "end_time": 59.4772727,
                "pitch": 38,
                "velocity": 80,
                "duration": 0.4204545,
                "tempo": 120.0
            },
            {
                "start_time": 59.7295455,
                "end_time": 60.1477273,
                "pitch": 42,
                "velocity": 80,
                "duration": 0.4181818,
                "tempo": 120.0
            },
            {
                "start_time": 60.4,
                "end_time": 60.8159091,
                "pitch": 45,
                "velocity": 80,
                "duration": 0.4159091,
                "tempo": 120.0
            },
            {
                "start_time": 61.0659091,
                "end_time": 61.3840909,
                "pitch": 50,
                "velocity": 80,
                "duration": 0.3181818,
                "tempo": 120.0
            },
            {
                "start_time": 61.5681818,
                "end_time": 61.6863636,
                "pitch": 50,
                "velocity": 80,
                "duration": 0.1181818,
                "tempo": 120.0
            },
            {
                "start_time": 61.7363636,
                "end_time": 61.8204545,
                "pitch": 49,
                "velocity": 80,
                "duration": 0.0840909,
                "tempo": 120.0
            },
            {
                "start_time": 62.0727273,
                "end_time": 62.1568182,
                "pitch": 47,
                "velocity": 80,
                "duration": 0.0840909,
                "tempo": 120.0
            },
            {
                "start_time": 62.4090909,
                "end_time": 62.4909091,
                "pitch": 45,
                "velocity": 80,
                "duration": 0.0818182,
                "tempo": 120.0
            },
            {
                "start_time": 62.7431818,
                "end_time": 62.8272727,
                "pitch": 42,
                "velocity": 80,
                "duration": 0.0840909,
                "tempo": 120.0
            },
            {
                "start_time": 63.0795455,
                "end_time": 63.9113636,
                "pitch": 38,
                "velocity": 80,
                "duration": 0.8318182,
                "tempo": 120.0
            },
            {
                "start_time": 64.4159091,
                "end_time": 64.75,
                "pitch": 38,
                "velocity": 80,
                "duration": 0.3340909,
                "tempo": 120.0
            },
            {
                "start_time": 65.0863636,
                "end_time": 65.5022727,
                "pitch": 33,
                "velocity": 80,
                "duration": 0.4159091,
                "tempo": 120.0
            },
            {
                "start_time": 65.7522727,
                "end_time": 66.0863636,
                "pitch": 38,
                "velocity": 80,
                "duration": 0.3340909,
                "tempo": 120.0
            },
            {
                "start_time": 66.4227273,
                "end_time": 66.7409091,
                "pitch": 33,
                "velocity": 80,
                "duration": 0.3181818,
                "tempo": 120.0
            },
            {
                "start_time": 66.9272727,
                "end_time": 67.0431818,
                "pitch": 33,
                "velocity": 80,
                "duration": 0.1159091,
                "tempo": 120.0
            },
            {
                "start_time": 67.0954545,
                "end_time": 67.1772727,
                "pitch": 38,
                "velocity": 80,
                "duration": 0.0818182,
                "tempo": 120.0
            },
            {
                "start_time": 67.4295455,
                "end_time": 67.5136364,
                "pitch": 33,
                "velocity": 80,
                "duration": 0.0840909,
                "tempo": 120.0
            },
            {
                "start_time": 67.7659091,
                "end_time": 67.85,
                "pitch": 38,
                "velocity": 80,
                "duration": 0.0840909,
                "tempo": 120.0
            },
            {
                "start_time": 68.1022727,
                "end_time": 68.1840909,
                "pitch": 33,
                "velocity": 80,
                "duration": 0.0818182,
                "tempo": 120.0
            },
            {
                "start_time": 68.4386364,
                "end_time": 68.5204545,
                "pitch": 39,
                "velocity": 80,
                "duration": 0.0818182,
                "tempo": 120.0
            },
            {
                "start_time": 68.7704545,
                "end_time": 68.8522727,
                "pitch": 39,
                "velocity": 80,
                "duration": 0.0818182,
                "tempo": 120.0
            },
            {
                "start_time": 69.1022727,
                "end_time": 69.1840909,
                "pitch": 39,
                "velocity": 80,
                "duration": 0.0818182,
                "tempo": 120.0
            },
            {
                "start_time": 69.4363636,
                "end_time": 69.5204545,
                "pitch": 39,
                "velocity": 80,
                "duration": 0.0840909,
                "tempo": 120.0
            },
            {
                "start_time": 69.7727273,
                "end_time": 69.8568182,
                "pitch": 40,
                "velocity": 80,
                "duration": 0.0840909,
                "tempo": 120.0
            },
            {
                "start_time": 70.4454545,
                "end_time": 70.5272727,
                "pitch": 45,
                "velocity": 80,
                "duration": 0.0818182,
                "tempo": 120.0
            },
            {
                "start_time": 71.1159091,
                "end_time": 71.2,
                "pitch": 33,
                "velocity": 80,
                "duration": 0.0840909,
                "tempo": 120.0
            },
            {
                "start_time": 71.7818182,
                "end_time": 71.8636364,
                "pitch": 33,
                "velocity": 80,
                "duration": 0.0818182,
                "tempo": 120.0
            },
            {
                "start_time": 72.4522727,
                "end_time": 72.5363636,
                "pitch": 40,
                "velocity": 80,
                "duration": 0.0840909,
                "tempo": 120.0
            },
            {
                "start_time": 72.7886364,
                "end_time": 72.8704545,
                "pitch": 45,
                "velocity": 80,
                "duration": 0.0818182,
                "tempo": 120.0
            },
            {
                "start_time": 73.125,
                "end_time": 73.2068182,
                "pitch": 33,
                "velocity": 80,
                "duration": 0.0818182,
                "tempo": 120.0
            },
            {
                "start_time": 73.7954545,
                "end_time": 73.8772727,
                "pitch": 40,
                "velocity": 80,
                "duration": 0.0818182,
                "tempo": 120.0
            },
            {
                "start_time": 74.1272727,
                "end_time": 74.2090909,
                "pitch": 40,
                "velocity": 80,
                "duration": 0.0818182,
                "tempo": 120.0
            },
            {
                "start_time": 75.1318182,
                "end_time": 75.2136364,
                "pitch": 40,
                "velocity": 80,
                "duration": 0.0818182,
                "tempo": 120.0
            },
            {
                "start_time": 75.8022727,
                "end_time": 75.8863636,
                "pitch": 45,
                "velocity": 80,
                "duration": 0.0840909,
                "tempo": 120.0
            },
            {
                "start_time": 76.475,
                "end_time": 76.5568182,
                "pitch": 33,
                "velocity": 80,
                "duration": 0.0818182,
                "tempo": 120.0
            },
            {
                "start_time": 77.1386364,
                "end_time": 77.2227273,
                "pitch": 33,
                "velocity": 80,
                "duration": 0.0840909,
                "tempo": 120.0
            },
            {
                "start_time": 77.475,
                "end_time": 77.5909091,
                "pitch": 40,
                "velocity": 80,
                "duration": 0.1159091,
                "tempo": 120.0
            },
            {
                "start_time": 77.6409091,
                "end_time": 77.7590909,
                "pitch": 38,
                "velocity": 80,
                "duration": 0.1181818,
                "tempo": 120.0
            },
            {
                "start_time": 77.8090909,
                "end_time": 77.8931818,
                "pitch": 37,
                "velocity": 80,
                "duration": 0.0840909,
                "tempo": 120.0
            },
            {
                "start_time": 78.1454545,
                "end_time": 78.2295455,
                "pitch": 35,
                "velocity": 80,
                "duration": 0.0840909,
                "tempo": 120.0
            },
            {
                "start_time": 78.4818182,
                "end_time": 78.5659091,
                "pitch": 33,
                "velocity": 80,
                "duration": 0.0840909,
                "tempo": 120.0
            },
            {
                "start_time": 79.4863636,
                "end_time": 79.5681818,
                "pitch": 31,
                "velocity": 80,
                "duration": 0.0818182,
                "tempo": 120.0
            },
            {
                "start_time": 79.8181818,
                "end_time": 79.9,
                "pitch": 30,
                "velocity": 80,
                "duration": 0.0818182,
                "tempo": 120.0
            },
            {
                "start_time": 80.1522727,
                "end_time": 80.2363636,
                "pitch": 28,
                "velocity": 80,
                "duration": 0.0840909,
                "tempo": 120.0
            },
            {
                "start_time": 80.4886364,
                "end_time": 80.5727273,
                "pitch": 38,
                "velocity": 80,
                "duration": 0.0840909,
                "tempo": 120.0
            },
            {
                "start_time": 81.1613636,
                "end_time": 81.2431818,
                "pitch": 38,
                "velocity": 80,
                "duration": 0.0818182,
                "tempo": 120.0
            },
            {
                "start_time": 81.825,
                "end_time": 81.9090909,
                "pitch": 38,
                "velocity": 80,
                "duration": 0.0840909,
                "tempo": 120.0
            },
            {
                "start_time": 82.4954545,
                "end_time": 82.5795455,
                "pitch": 38,
                "velocity": 80,
                "duration": 0.0840909,
                "tempo": 120.0
            },
            {
                "start_time": 82.8318182,
                "end_time": 83.1681818,
                "pitch": 37,
                "velocity": 80,
                "duration": 0.3363636,
                "tempo": 120.0
            },
            {
                "start_time": 83.1681818,
                "end_time": 83.2522727,
                "pitch": 38,
                "velocity": 80,
                "duration": 0.0840909,
                "tempo": 120.0
            },
            {
                "start_time": 83.8477273,
                "end_time": 83.9295455,
                "pitch": 38,
                "velocity": 80,
                "duration": 0.0818182,
                "tempo": 120.0
            },
            {
                "start_time": 84.5113636,
                "end_time": 84.5931818,
                "pitch": 38,
                "velocity": 80,
                "duration": 0.0818182,
                "tempo": 120.0
            },
            {
                "start_time": 85.175,
                "end_time": 85.2590909,
                "pitch": 38,
                "velocity": 80,
                "duration": 0.0840909,
                "tempo": 120.0
            },
            {
                "start_time": 85.5113636,
                "end_time": 85.8477273,
                "pitch": 37,
                "velocity": 80,
                "duration": 0.3363636,
                "tempo": 120.0
            },
            {
                "start_time": 85.8477273,
                "end_time": 85.9318182,
                "pitch": 38,
                "velocity": 80,
                "duration": 0.0840909,
                "tempo": 120.0
            },
            {
                "start_time": 86.525,
                "end_time": 86.6090909,
                "pitch": 38,
                "velocity": 80,
                "duration": 0.0840909,
                "tempo": 120.0
            },
            {
                "start_time": 87.1909091,
                "end_time": 87.2727273,
                "pitch": 38,
                "velocity": 80,
                "duration": 0.0818182,
                "tempo": 120.0
            },
            {
                "start_time": 87.8545455,
                "end_time": 87.9386364,
                "pitch": 38,
                "velocity": 80,
                "duration": 0.0840909,
                "tempo": 120.0
            },
            {
                "start_time": 88.1909091,
                "end_time": 88.525,
                "pitch": 37,
                "velocity": 80,
                "duration": 0.3340909,
                "tempo": 120.0
            },
            {
                "start_time": 88.5272727,
                "end_time": 88.6090909,
                "pitch": 38,
                "velocity": 80,
                "duration": 0.0818182,
                "tempo": 120.0
            },
            {
                "start_time": 89.2045455,
                "end_time": 89.2886364,
                "pitch": 38,
                "velocity": 80,
                "duration": 0.0840909,
                "tempo": 120.0
            },
            {
                "start_time": 89.8704545,
                "end_time": 89.9522727,
                "pitch": 38,
                "velocity": 80,
                "duration": 0.0818182,
                "tempo": 120.0
            },
            {
                "start_time": 90.5340909,
                "end_time": 90.6159091,
                "pitch": 38,
                "velocity": 80,
                "duration": 0.0818182,
                "tempo": 120.0
            },
            {
                "start_time": 90.8681818,
                "end_time": 91.2045455,
                "pitch": 37,
                "velocity": 80,
                "duration": 0.3363636,
                "tempo": 120.0
            },
            {
                "start_time": 91.2045455,
                "end_time": 91.2886364,
                "pitch": 38,
                "velocity": 80,
                "duration": 0.0840909,
                "tempo": 120.0
            },
            {
                "start_time": 91.8840909,
                "end_time": 91.9659091,
                "pitch": 38,
                "velocity": 80,
                "duration": 0.0818182,
                "tempo": 120.0
            },
            {
                "start_time": 92.5477273,
                "end_time": 92.6318182,
                "pitch": 38,
                "velocity": 80,
                "duration": 0.0840909,
                "tempo": 120.0
            },
            {
                "start_time": 93.2136364,
                "end_time": 93.2954545,
                "pitch": 38,
                "velocity": 80,
                "duration": 0.0818182,
                "tempo": 120.0
            },
            {
                "start_time": 93.5477273,
                "end_time": 93.8840909,
                "pitch": 37,
                "velocity": 80,
                "duration": 0.3363636,
                "tempo": 120.0
            },
            {
                "start_time": 93.8840909,
                "end_time": 93.9681818,
                "pitch": 38,
                "velocity": 80,
                "duration": 0.0840909,
                "tempo": 120.0
            },
            {
                "start_time": 94.5636364,
                "end_time": 94.6454545,
                "pitch": 38,
                "velocity": 80,
                "duration": 0.0818182,
                "tempo": 120.0
            },
            {
                "start_time": 95.2272727,
                "end_time": 95.3090909,
                "pitch": 38,
                "velocity": 80,
                "duration": 0.0818182,
                "tempo": 120.0
            },
            {
                "start_time": 95.8909091,
                "end_time": 95.975,
                "pitch": 38,
                "velocity": 80,
                "duration": 0.0840909,
                "tempo": 120.0
            },
            {
                "start_time": 96.2272727,
                "end_time": 96.5636364,
                "pitch": 37,
                "velocity": 80,
                "duration": 0.3363636,
                "tempo": 120.0
            },
            {
                "start_time": 96.5636364,
                "end_time": 96.6477273,
                "pitch": 40,
                "velocity": 80,
                "duration": 0.0840909,
                "tempo": 120.0
            },
            {
                "start_time": 97.2431818,
                "end_time": 97.325,
                "pitch": 45,
                "velocity": 80,
                "duration": 0.0818182,
                "tempo": 120.0
            },
            {
                "start_time": 97.9068182,
                "end_time": 97.9886364,
                "pitch": 33,
                "velocity": 80,
                "duration": 0.0818182,
                "tempo": 120.0
            },
            {
                "start_time": 98.5704545,
                "end_time": 98.6545455,
                "pitch": 33,
                "velocity": 80,
                "duration": 0.0840909,
                "tempo": 120.0
            },
            {
                "start_time": 99.2431818,
                "end_time": 99.325,
                "pitch": 40,
                "velocity": 80,
                "duration": 0.0818182,
                "tempo": 120.0
            },
            {
                "start_time": 99.5772727,
                "end_time": 99.6613636,
                "pitch": 45,
                "velocity": 80,
                "duration": 0.0840909,
                "tempo": 120.0
            },
            {
                "start_time": 99.9136364,
                "end_time": 99.9977273,
                "pitch": 33,
                "velocity": 80,
                "duration": 0.0840909,
                "tempo": 120.0
            },
            {
                "start_time": 100.5863636,
                "end_time": 100.6681818,
                "pitch": 40,
                "velocity": 80,
                "duration": 0.0818182,
                "tempo": 120.0
            },
            {
                "start_time": 100.9181818,
                "end_time": 101.0,
                "pitch": 40,
                "velocity": 80,
                "duration": 0.0818182,
                "tempo": 120.0
            },
            {
                "start_time": 101.9204545,
                "end_time": 102.0045455,
                "pitch": 40,
                "velocity": 80,
                "duration": 0.0840909,
                "tempo": 120.0
            },
            {
                "start_time": 102.5931818,
                "end_time": 102.6772727,
                "pitch": 45,
                "velocity": 80,
                "duration": 0.0840909,
                "tempo": 120.0
            },
            {
                "start_time": 103.2636364,
                "end_time": 103.3477273,
                "pitch": 33,
                "velocity": 80,
                "duration": 0.0840909,
                "tempo": 120.0
            },
            {
                "start_time": 103.9295455,
                "end_time": 104.0113636,
                "pitch": 33,
                "velocity": 80,
                "duration": 0.0818182,
                "tempo": 120.0
            },
            {
                "start_time": 104.2636364,
                "end_time": 104.3818182,
                "pitch": 40,
                "velocity": 80,
                "duration": 0.1181818,
                "tempo": 120.0
            },
            {
                "start_time": 104.4318182,
                "end_time": 104.55,
                "pitch": 38,
                "velocity": 80,
                "duration": 0.1181818,
                "tempo": 120.0
            },
            {
                "start_time": 104.6,
                "end_time": 104.6840909,
                "pitch": 37,
                "velocity": 80,
                "duration": 0.0840909,
                "tempo": 120.0
            },
            {
                "start_time": 104.9363636,
                "end_time": 105.0181818,
                "pitch": 35,
                "velocity": 80,
                "duration": 0.0818182,
                "tempo": 120.0
            },
            {
                "start_time": 105.2727273,
                "end_time": 105.3545455,
                "pitch": 33,
                "velocity": 80,
                "duration": 0.0818182,
                "tempo": 120.0
            },
            {
                "start_time": 106.275,
                "end_time": 106.3568182,
                "pitch": 31,
                "velocity": 80,
                "duration": 0.0818182,
                "tempo": 120.0
            },
            {
                "start_time": 106.6068182,
                "end_time": 106.6909091,
                "pitch": 30,
                "velocity": 80,
                "duration": 0.0840909,
                "tempo": 120.0
            },
            {
                "start_time": 106.9431818,
                "end_time": 107.0272727,
                "pitch": 28,
                "velocity": 80,
                "duration": 0.0840909,
                "tempo": 120.0
            }
        ],
        "Electric Piano 1": [
            {
                "start_time": 16.2090909,
                "end_time": 16.375,
                "pitch": 76,
                "velocity": 80,
                "duration": 0.1659091,
                "tempo": 120.0
            },
            {
                "start_time": 16.375,
                "end_time": 16.5431818,
                "pitch": 75,
                "velocity": 51,
                "duration": 0.1681818,
                "tempo": 120.0
            },
            {
                "start_time": 16.5431818,
                "end_time": 16.7113636,
                "pitch": 76,
                "velocity": 64,
                "duration": 0.1681818,
                "tempo": 120.0
            },
            {
                "start_time": 16.7113636,
                "end_time": 16.8795455,
                "pitch": 75,
                "velocity": 40,
                "duration": 0.1681818,
                "tempo": 120.0
            },
            {
                "start_time": 16.8795455,
                "end_time": 16.9954545,
                "pitch": 79,
                "velocity": 80,
                "duration": 0.1159091,
                "tempo": 120.0
            },
            {
                "start_time": 16.9954545,
                "end_time": 17.0454545,
                "pitch": 79,
                "velocity": 80,
                "duration": 0.05,
                "tempo": 120.0
            },
            {
                "start_time": 17.0477273,
                "end_time": 17.2159091,
                "pitch": 78,
                "velocity": 51,
                "duration": 0.1681818,
                "tempo": 120.0
            },
            {
                "start_time": 17.2159091,
                "end_time": 17.3318182,
                "pitch": 79,
                "velocity": 64,
                "duration": 0.1159091,
                "tempo": 120.0
            },
            {
                "start_time": 16.9954545,
                "end_time": 17.3318182,
                "pitch": 91,
                "velocity": 80,
                "duration": 0.3363636,
                "tempo": 120.0
            },
            {
                "start_time": 17.3318182,
                "end_time": 17.3818182,
                "pitch": 79,
                "velocity": 64,
                "duration": 0.05,
                "tempo": 120.0
            },
            {
                "start_time": 17.3818182,
                "end_time": 17.5522727,
                "pitch": 80,
                "velocity": 64,
                "duration": 0.1704545,
                "tempo": 120.0
            },
            {
                "start_time": 17.8863636,
                "end_time": 18.2227273,
                "pitch": 81,
                "velocity": 64,
                "duration": 0.3363636,
                "tempo": 120.0
            },
            {
                "start_time": 18.5590909,
                "end_time": 18.8931818,
                "pitch": 81,
                "velocity": 64,
                "duration": 0.3340909,
                "tempo": 120.0
            },
            {
                "start_time": 18.8954545,
                "end_time": 19.0590909,
                "pitch": 76,
                "velocity": 80,
                "duration": 0.1636364,
                "tempo": 120.0
            },
            {
                "start_time": 19.0590909,
                "end_time": 19.2272727,
                "pitch": 75,
                "velocity": 51,
                "duration": 0.1681818,
                "tempo": 120.0
            },
            {
                "start_time": 19.2272727,
                "end_time": 19.3909091,
                "pitch": 76,
                "velocity": 64,
                "duration": 0.1636364,
                "tempo": 120.0
            },
            {
                "start_time": 19.3909091,
                "end_time": 19.5590909,
                "pitch": 78,
                "velocity": 64,
                "duration": 0.1681818,
                "tempo": 120.0
            },
            {
                "start_time": 19.5590909,
                "end_time": 20.2295455,
                "pitch": 80,
                "velocity": 80,
                "duration": 0.6704545,
                "tempo": 120.0
            },
            {
                "start_time": 20.2295455,
                "end_time": 20.3136364,
                "pitch": 68,
                "velocity": 80,
                "duration": 0.0840909,
                "tempo": 120.0
            },
            {
                "start_time": 20.5659091,
                "end_time": 20.65,
                "pitch": 80,
                "velocity": 80,
                "duration": 0.0840909,
                "tempo": 120.0
            },
            {
                "start_time": 21.5659091,
                "end_time": 21.7318182,
                "pitch": 76,
                "velocity": 80,
                "duration": 0.1659091,
                "tempo": 120.0
            },
            {
                "start_time": 21.7340909,
                "end_time": 21.9022727,
                "pitch": 75,
                "velocity": 51,
                "duration": 0.1681818,
                "tempo": 120.0
            },
            {
                "start_time": 21.9022727,
                "end_time": 22.0681818,
                "pitch": 76,
                "velocity": 64,
                "duration": 0.1659091,
                "tempo": 120.0
            },
            {
                "start_time": 22.0681818,
                "end_time": 22.2363636,
                "pitch": 75,
                "velocity": 40,
                "duration": 0.1681818,
                "tempo": 120.0
            },
            {
                "start_time": 22.2363636,
                "end_time": 22.3545455,
                "pitch": 79,
                "velocity": 80,
                "duration": 0.1181818,
                "tempo": 120.0
            },
            {
                "start_time": 17.3318182,
                "end_time": 22.3545455,
                "pitch": 91,
                "velocity": 64,
                "duration": 5.0227273,
                "tempo": 120.0
            },
            {
                "start_time": 22.3545455,
                "end_time": 22.4045455,
                "pitch": 79,
                "velocity": 80,
                "duration": 0.05,
                "tempo": 120.0
            },
            {
                "start_time": 22.4045455,
                "end_time": 22.5727273,
                "pitch": 78,
                "velocity": 51,
                "duration": 0.1681818,
                "tempo": 120.0
            },
            {
                "start_time": 22.5727273,
                "end_time": 22.6886364,
                "pitch": 79,
                "velocity": 64,
                "duration": 0.1159091,
                "tempo": 120.0
            },
            {
                "start_time": 22.3545455,
                "end_time": 22.6886364,
                "pitch": 91,
                "velocity": 80,
                "duration": 0.3340909,
                "tempo": 120.0
            },
            {
                "start_time": 22.6886364,
                "end_time": 22.7409091,
                "pitch": 79,
                "velocity": 64,
                "duration": 0.0522727,
                "tempo": 120.0
            },
            {
                "start_time": 22.7409091,
                "end_time": 22.9090909,
                "pitch": 80,
                "velocity": 64,
                "duration": 0.1681818,
                "tempo": 120.0
            },
            {
                "start_time": 22.9090909,
                "end_time": 22.9931818,
                "pitch": 68,
                "velocity": 64,
                "duration": 0.0840909,
                "tempo": 120.0
            },
            {
                "start_time": 23.5818182,
                "end_time": 23.6636364,
                "pitch": 80,
                "velocity": 64,
                "duration": 0.0818182,
                "tempo": 120.0
            },
            {
                "start_time": 24.2454545,
                "end_time": 24.3295455,
                "pitch": 68,
                "velocity": 64,
                "duration": 0.0840909,
                "tempo": 120.0
            },
            {
                "start_time": 24.925,
                "end_time": 25.0068182,
                "pitch": 80,
                "velocity": 64,
                "duration": 0.0818182,
                "tempo": 120.0
            },
            {
                "start_time": 25.5886364,
                "end_time": 25.6704545,
                "pitch": 68,
                "velocity": 64,
                "duration": 0.0818182,
                "tempo": 120.0
            },
            {
                "start_time": 26.2522727,
                "end_time": 26.3363636,
                "pitch": 80,
                "velocity": 64,
                "duration": 0.0840909,
                "tempo": 120.0
            },
            {
                "start_time": 42.9863636,
                "end_time": 43.1522727,
                "pitch": 76,
                "velocity": 80,
                "duration": 0.1659091,
                "tempo": 120.0
            },
            {
                "start_time": 43.1522727,
                "end_time": 43.3204545,
                "pitch": 75,
                "velocity": 51,
                "duration": 0.1681818,
                "tempo": 120.0
            },
            {
                "start_time": 43.3204545,
                "end_time": 43.4886364,
                "pitch": 76,
                "velocity": 64,
                "duration": 0.1681818,
                "tempo": 120.0
            },
            {
                "start_time": 43.4886364,
                "end_time": 43.6568182,
                "pitch": 75,
                "velocity": 40,
                "duration": 0.1681818,
                "tempo": 120.0
            },
            {
                "start_time": 43.6568182,
                "end_time": 43.7704545,
                "pitch": 79,
                "velocity": 80,
                "duration": 0.1136364,
                "tempo": 120.0
            },
            {
                "start_time": 22.6886364,
                "end_time": 43.7727273,
                "pitch": 91,
                "velocity": 64,
                "duration": 21.0840909,
                "tempo": 120.0
            },
            {
                "start_time": 43.7704545,
                "end_time": 43.7727273,
                "pitch": 91,
                "velocity": 80,
                "duration": 0.0022727,
                "tempo": 120.0
            },
            {
                "start_time": 43.7727273,
                "end_time": 43.8204545,
                "pitch": 79,
                "velocity": 80,
                "duration": 0.0477273,
                "tempo": 120.0
            },
            {
                "start_time": 43.8227273,
                "end_time": 43.9886364,
                "pitch": 78,
                "velocity": 51,
                "duration": 0.1659091,
                "tempo": 120.0
            },
            {
                "start_time": 43.9886364,
                "end_time": 44.1045455,
                "pitch": 79,
                "velocity": 64,
                "duration": 0.1159091,
                "tempo": 120.0
            },
            {
                "start_time": 44.1045455,
                "end_time": 44.1545455,
                "pitch": 79,
                "velocity": 64,
                "duration": 0.05,
                "tempo": 120.0
            },
            {
                "start_time": 44.1545455,
                "end_time": 44.3204545,
                "pitch": 80,
                "velocity": 64,
                "duration": 0.1659091,
                "tempo": 120.0
            },
            {
                "start_time": 44.6568182,
                "end_time": 44.9909091,
                "pitch": 81,
                "velocity": 64,
                "duration": 0.3340909,
                "tempo": 120.0
            },
            {
                "start_time": 45.3272727,
                "end_time": 45.6636364,
                "pitch": 81,
                "velocity": 64,
                "duration": 0.3363636,
                "tempo": 120.0
            },
            {
                "start_time": 45.6636364,
                "end_time": 45.8318182,
                "pitch": 76,
                "velocity": 80,
                "duration": 0.1681818,
                "tempo": 120.0
            },
            {
                "start_time": 45.8318182,
                "end_time": 46.0,
                "pitch": 75,
                "velocity": 51,
                "duration": 0.1681818,
                "tempo": 120.0
            },
            {
                "start_time": 46.0,
                "end_time": 46.1659091,
                "pitch": 76,
                "velocity": 64,
                "duration": 0.1659091,
                "tempo": 120.0
            },
            {
                "start_time": 46.1659091,
                "end_time": 46.3340909,
                "pitch": 78,
                "velocity": 64,
                "duration": 0.1681818,
                "tempo": 120.0
            },
            {
                "start_time": 46.3363636,
                "end_time": 47.0,
                "pitch": 80,
                "velocity": 80,
                "duration": 0.6636364,
                "tempo": 120.0
            },
            {
                "start_time": 47.0,
                "end_time": 47.0818182,
                "pitch": 68,
                "velocity": 80,
                "duration": 0.0818182,
                "tempo": 120.0
            },
            {
                "start_time": 47.3363636,
                "end_time": 47.4181818,
                "pitch": 80,
                "velocity": 80,
                "duration": 0.0818182,
                "tempo": 120.0
            },
            {
                "start_time": 48.3431818,
                "end_time": 48.5090909,
                "pitch": 76,
                "velocity": 80,
                "duration": 0.1659091,
                "tempo": 120.0
            },
            {
                "start_time": 48.5090909,
                "end_time": 48.6772727,
                "pitch": 75,
                "velocity": 51,
                "duration": 0.1681818,
                "tempo": 120.0
            },
            {
                "start_time": 48.6795455,
                "end_time": 48.8454545,
                "pitch": 76,
                "velocity": 64,
                "duration": 0.1659091,
                "tempo": 120.0
            },
            {
                "start_time": 48.8454545,
                "end_time": 49.0136364,
                "pitch": 75,
                "velocity": 40,
                "duration": 0.1681818,
                "tempo": 120.0
            },
            {
                "start_time": 49.0136364,
                "end_time": 49.1295455,
                "pitch": 79,
                "velocity": 80,
                "duration": 0.1159091,
                "tempo": 120.0
            },
            {
                "start_time": 44.1045455,
                "end_time": 49.1295455,
                "pitch": 91,
                "velocity": 64,
                "duration": 5.025,
                "tempo": 120.0
            },
            {
                "start_time": 49.1295455,
                "end_time": 49.1795455,
                "pitch": 79,
                "velocity": 80,
                "duration": 0.05,
                "tempo": 120.0
            },
            {
                "start_time": 49.1795455,
                "end_time": 49.3454545,
                "pitch": 78,
                "velocity": 51,
                "duration": 0.1659091,
                "tempo": 120.0
            },
            {
                "start_time": 49.3477273,
                "end_time": 49.4613636,
                "pitch": 79,
                "velocity": 64,
                "duration": 0.1136364,
                "tempo": 120.0
            },
            {
                "start_time": 49.1295455,
                "end_time": 49.4613636,
                "pitch": 91,
                "velocity": 80,
                "duration": 0.3318182,
                "tempo": 120.0
            },
            {
                "start_time": 49.4613636,
                "end_time": 49.5113636,
                "pitch": 79,
                "velocity": 64,
                "duration": 0.05,
                "tempo": 120.0
            },
            {
                "start_time": 49.5113636,
                "end_time": 49.6795455,
                "pitch": 80,
                "velocity": 64,
                "duration": 0.1681818,
                "tempo": 120.0
            },
            {
                "start_time": 49.6795455,
                "end_time": 49.7613636,
                "pitch": 68,
                "velocity": 64,
                "duration": 0.0818182,
                "tempo": 120.0
            },
            {
                "start_time": 50.35,
                "end_time": 50.4340909,
                "pitch": 80,
                "velocity": 64,
                "duration": 0.0840909,
                "tempo": 120.0
            },
            {
                "start_time": 51.0227273,
                "end_time": 51.1045455,
                "pitch": 68,
                "velocity": 64,
                "duration": 0.0818182,
                "tempo": 120.0
            },
            {
                "start_time": 51.6931818,
                "end_time": 51.775,
                "pitch": 80,
                "velocity": 64,
                "duration": 0.0818182,
                "tempo": 120.0
            },
            {
                "start_time": 52.3568182,
                "end_time": 52.4409091,
                "pitch": 68,
                "velocity": 64,
                "duration": 0.0840909,
                "tempo": 120.0
            },
            {
                "start_time": 53.0295455,
                "end_time": 53.1113636,
                "pitch": 80,
                "velocity": 64,
                "duration": 0.0818182,
                "tempo": 120.0
            },
            {
                "start_time": 69.775,
                "end_time": 69.9409091,
                "pitch": 76,
                "velocity": 80,
                "duration": 0.1659091,
                "tempo": 120.0
            },
            {
                "start_time": 69.9409091,
                "end_time": 70.1090909,
                "pitch": 75,
                "velocity": 51,
                "duration": 0.1681818,
                "tempo": 120.0
            },
            {
                "start_time": 70.1090909,
                "end_time": 70.2772727,
                "pitch": 76,
                "velocity": 64,
                "duration": 0.1681818,
                "tempo": 120.0
            },
            {
                "start_time": 70.2772727,
                "end_time": 70.4454545,
                "pitch": 75,
                "velocity": 40,
                "duration": 0.1681818,
                "tempo": 120.0
            },
            {
                "start_time": 70.4454545,
                "end_time": 70.5613636,
                "pitch": 79,
                "velocity": 80,
                "duration": 0.1159091,
                "tempo": 120.0
            },
            {
                "start_time": 49.4613636,
                "end_time": 70.5613636,
                "pitch": 91,
                "velocity": 64,
                "duration": 21.1,
                "tempo": 120.0
            },
            {
                "start_time": 70.5613636,
                "end_time": 70.6136364,
                "pitch": 79,
                "velocity": 80,
                "duration": 0.0522727,
                "tempo": 120.0
            },
            {
                "start_time": 70.6136364,
                "end_time": 70.7818182,
                "pitch": 78,
                "velocity": 51,
                "duration": 0.1681818,
                "tempo": 120.0
            },
            {
                "start_time": 70.7818182,
                "end_time": 70.8977273,
                "pitch": 79,
                "velocity": 64,
                "duration": 0.1159091,
                "tempo": 120.0
            },
            {
                "start_time": 70.5613636,
                "end_time": 70.8977273,
                "pitch": 91,
                "velocity": 80,
                "duration": 0.3363636,
                "tempo": 120.0
            },
            {
                "start_time": 70.8977273,
                "end_time": 70.9477273,
                "pitch": 79,
                "velocity": 64,
                "duration": 0.05,
                "tempo": 120.0
            },
            {
                "start_time": 70.9477273,
                "end_time": 71.1181818,
                "pitch": 80,
                "velocity": 64,
                "duration": 0.1704545,
                "tempo": 120.0
            },
            {
                "start_time": 71.45,
                "end_time": 71.7818182,
                "pitch": 81,
                "velocity": 64,
                "duration": 0.3318182,
                "tempo": 120.0
            },
            {
                "start_time": 72.1159091,
                "end_time": 72.4522727,
                "pitch": 81,
                "velocity": 64,
                "duration": 0.3363636,
                "tempo": 120.0
            },
            {
                "start_time": 72.4522727,
                "end_time": 72.6204545,
                "pitch": 76,
                "velocity": 80,
                "duration": 0.1681818,
                "tempo": 120.0
            },
            {
                "start_time": 72.6204545,
                "end_time": 72.7886364,
                "pitch": 75,
                "velocity": 51,
                "duration": 0.1681818,
                "tempo": 120.0
            },
            {
                "start_time": 72.7886364,
                "end_time": 72.9545455,
                "pitch": 76,
                "velocity": 64,
                "duration": 0.1659091,
                "tempo": 120.0
            },
            {
                "start_time": 72.9568182,
                "end_time": 73.125,
                "pitch": 78,
                "velocity": 64,
                "duration": 0.1681818,
                "tempo": 120.0
            },
            {
                "start_time": 73.125,
                "end_time": 73.7954545,
                "pitch": 80,
                "velocity": 80,
                "duration": 0.6704545,
                "tempo": 120.0
            },
            {
                "start_time": 73.7977273,
                "end_time": 73.8772727,
                "pitch": 68,
                "velocity": 80,
                "duration": 0.0795455,
                "tempo": 120.0
            },
            {
                "start_time": 74.1295455,
                "end_time": 74.2090909,
                "pitch": 80,
                "velocity": 80,
                "duration": 0.0795455,
                "tempo": 120.0
            },
            {
                "start_time": 75.1318182,
                "end_time": 75.2977273,
                "pitch": 76,
                "velocity": 80,
                "duration": 0.1659091,
                "tempo": 120.0
            },
            {
                "start_time": 75.3,
                "end_time": 75.4681818,
                "pitch": 75,
                "velocity": 51,
                "duration": 0.1681818,
                "tempo": 120.0
            },
            {
                "start_time": 75.4681818,
                "end_time": 75.6340909,
                "pitch": 76,
                "velocity": 64,
                "duration": 0.1659091,
                "tempo": 120.0
            },
            {
                "start_time": 75.6340909,
                "end_time": 75.8022727,
                "pitch": 75,
                "velocity": 40,
                "duration": 0.1681818,
                "tempo": 120.0
            },
            {
                "start_time": 75.8045455,
                "end_time": 75.9204545,
                "pitch": 79,
                "velocity": 80,
                "duration": 0.1159091,
                "tempo": 120.0
            },
            {
                "start_time": 70.8977273,
                "end_time": 75.9204545,
                "pitch": 91,
                "velocity": 64,
                "duration": 5.0227273,
                "tempo": 120.0
            },
            {
                "start_time": 75.9204545,
                "end_time": 75.9704545,
                "pitch": 79,
                "velocity": 80,
                "duration": 0.05,
                "tempo": 120.0
            },
            {
                "start_time": 75.9704545,
                "end_time": 76.1386364,
                "pitch": 78,
                "velocity": 51,
                "duration": 0.1681818,
                "tempo": 120.0
            },
            {
                "start_time": 76.1386364,
                "end_time": 76.2545455,
                "pitch": 79,
                "velocity": 64,
                "duration": 0.1159091,
                "tempo": 120.0
            },
            {
                "start_time": 75.9204545,
                "end_time": 76.2568182,
                "pitch": 91,
                "velocity": 80,
                "duration": 0.3363636,
                "tempo": 120.0
            },
            {
                "start_time": 76.2545455,
                "end_time": 76.2568182,
                "pitch": 91,
                "velocity": 64,
                "duration": 0.0022727,
                "tempo": 120.0
            },
            {
                "start_time": 76.2568182,
                "end_time": 76.3068182,
                "pitch": 79,
                "velocity": 64,
                "duration": 0.05,
                "tempo": 120.0
            },
            {
                "start_time": 76.3068182,
                "end_time": 76.475,
                "pitch": 80,
                "velocity": 64,
                "duration": 0.1681818,
                "tempo": 120.0
            },
            {
                "start_time": 76.475,
                "end_time": 76.5568182,
                "pitch": 68,
                "velocity": 64,
                "duration": 0.0818182,
                "tempo": 120.0
            },
            {
                "start_time": 77.1409091,
                "end_time": 77.2227273,
                "pitch": 80,
                "velocity": 64,
                "duration": 0.0818182,
                "tempo": 120.0
            },
            {
                "start_time": 77.8113636,
                "end_time": 77.8931818,
                "pitch": 68,
                "velocity": 64,
                "duration": 0.0818182,
                "tempo": 120.0
            },
            {
                "start_time": 78.4818182,
                "end_time": 78.5659091,
                "pitch": 80,
                "velocity": 64,
                "duration": 0.0840909,
                "tempo": 120.0
            },
            {
                "start_time": 79.1545455,
                "end_time": 79.2363636,
                "pitch": 68,
                "velocity": 64,
                "duration": 0.0818182,
                "tempo": 120.0
            },
            {
                "start_time": 79.8181818,
                "end_time": 79.9,
                "pitch": 80,
                "velocity": 64,
                "duration": 0.0818182,
                "tempo": 120.0
            },
            {
                "start_time": 96.5659091,
                "end_time": 96.7318182,
                "pitch": 76,
                "velocity": 80,
                "duration": 0.1659091,
                "tempo": 120.0
            },
            {
                "start_time": 96.7340909,
                "end_time": 96.9022727,
                "pitch": 75,
                "velocity": 51,
                "duration": 0.1681818,
                "tempo": 120.0
            },
            {
                "start_time": 96.9045455,
                "end_time": 97.0727273,
                "pitch": 76,
                "velocity": 64,
                "duration": 0.1681818,
                "tempo": 120.0
            },
            {
                "start_time": 97.0727273,
                "end_time": 97.2431818,
                "pitch": 75,
                "velocity": 40,
                "duration": 0.1704545,
                "tempo": 120.0
            },
            {
                "start_time": 97.2431818,
                "end_time": 97.3590909,
                "pitch": 79,
                "velocity": 80,
                "duration": 0.1159091,
                "tempo": 120.0
            },
            {
                "start_time": 97.3590909,
                "end_time": 97.4090909,
                "pitch": 79,
                "velocity": 80,
                "duration": 0.05,
                "tempo": 120.0
            },
            {
                "start_time": 97.4090909,
                "end_time": 97.575,
                "pitch": 78,
                "velocity": 51,
                "duration": 0.1659091,
                "tempo": 120.0
            },
            {
                "start_time": 97.575,
                "end_time": 97.6909091,
                "pitch": 79,
                "velocity": 64,
                "duration": 0.1159091,
                "tempo": 120.0
            },
            {
                "start_time": 97.3590909,
                "end_time": 97.6909091,
                "pitch": 91,
                "velocity": 80,
                "duration": 0.3318182,
                "tempo": 120.0
            },
            {
                "start_time": 97.6909091,
                "end_time": 97.7409091,
                "pitch": 79,
                "velocity": 64,
                "duration": 0.05,
                "tempo": 120.0
            },
            {
                "start_time": 97.7409091,
                "end_time": 97.9068182,
                "pitch": 80,
                "velocity": 64,
                "duration": 0.1659091,
                "tempo": 120.0
            },
            {
                "start_time": 98.2386364,
                "end_time": 98.5704545,
                "pitch": 81,
                "velocity": 64,
                "duration": 0.3318182,
                "tempo": 120.0
            },
            {
                "start_time": 98.9068182,
                "end_time": 99.2431818,
                "pitch": 81,
                "velocity": 64,
                "duration": 0.3363636,
                "tempo": 120.0
            },
            {
                "start_time": 99.2431818,
                "end_time": 99.4090909,
                "pitch": 76,
                "velocity": 80,
                "duration": 0.1659091,
                "tempo": 120.0
            },
            {
                "start_time": 99.4113636,
                "end_time": 99.5795455,
                "pitch": 75,
                "velocity": 51,
                "duration": 0.1681818,
                "tempo": 120.0
            },
            {
                "start_time": 99.5795455,
                "end_time": 99.7454545,
                "pitch": 76,
                "velocity": 64,
                "duration": 0.1659091,
                "tempo": 120.0
            },
            {
                "start_time": 99.7454545,
                "end_time": 99.9136364,
                "pitch": 78,
                "velocity": 64,
                "duration": 0.1681818,
                "tempo": 120.0
            },
            {
                "start_time": 99.9159091,
                "end_time": 100.5863636,
                "pitch": 80,
                "velocity": 80,
                "duration": 0.6704545,
                "tempo": 120.0
            },
            {
                "start_time": 100.5863636,
                "end_time": 100.6681818,
                "pitch": 68,
                "velocity": 80,
                "duration": 0.0818182,
                "tempo": 120.0
            },
            {
                "start_time": 100.9181818,
                "end_time": 101.0,
                "pitch": 80,
                "velocity": 80,
                "duration": 0.0818182,
                "tempo": 120.0
            },
            {
                "start_time": 101.9227273,
                "end_time": 102.0886364,
                "pitch": 76,
                "velocity": 80,
                "duration": 0.1659091,
                "tempo": 120.0
            },
            {
                "start_time": 102.0886364,
                "end_time": 102.2568182,
                "pitch": 75,
                "velocity": 51,
                "duration": 0.1681818,
                "tempo": 120.0
            },
            {
                "start_time": 102.2590909,
                "end_time": 102.425,
                "pitch": 76,
                "velocity": 64,
                "duration": 0.1659091,
                "tempo": 120.0
            },
            {
                "start_time": 102.425,
                "end_time": 102.5931818,
                "pitch": 75,
                "velocity": 40,
                "duration": 0.1681818,
                "tempo": 120.0
            },
            {
                "start_time": 102.5931818,
                "end_time": 102.7090909,
                "pitch": 79,
                "velocity": 80,
                "duration": 0.1159091,
                "tempo": 120.0
            },
            {
                "start_time": 97.6909091,
                "end_time": 102.7090909,
                "pitch": 91,
                "velocity": 64,
                "duration": 5.0181818,
                "tempo": 120.0
            },
            {
                "start_time": 102.7090909,
                "end_time": 102.7613636,
                "pitch": 79,
                "velocity": 80,
                "duration": 0.0522727,
                "tempo": 120.0
            },
            {
                "start_time": 102.7613636,
                "end_time": 102.9295455,
                "pitch": 78,
                "velocity": 51,
                "duration": 0.1681818,
                "tempo": 120.0
            },
            {
                "start_time": 102.9295455,
                "end_time": 103.0454545,
                "pitch": 79,
                "velocity": 64,
                "duration": 0.1159091,
                "tempo": 120.0
            },
            {
                "start_time": 102.7090909,
                "end_time": 103.0454545,
                "pitch": 91,
                "velocity": 80,
                "duration": 0.3363636,
                "tempo": 120.0
            },
            {
                "start_time": 103.0454545,
                "end_time": 103.0954545,
                "pitch": 79,
                "velocity": 64,
                "duration": 0.05,
                "tempo": 120.0
            },
            {
                "start_time": 103.0954545,
                "end_time": 103.2659091,
                "pitch": 80,
                "velocity": 64,
                "duration": 0.1704545,
                "tempo": 120.0
            },
            {
                "start_time": 103.2659091,
                "end_time": 103.3477273,
                "pitch": 68,
                "velocity": 64,
                "duration": 0.0818182,
                "tempo": 120.0
            },
            {
                "start_time": 103.9295455,
                "end_time": 104.0113636,
                "pitch": 80,
                "velocity": 64,
                "duration": 0.0818182,
                "tempo": 120.0
            },
            {
                "start_time": 104.6022727,
                "end_time": 104.6840909,
                "pitch": 68,
                "velocity": 64,
                "duration": 0.0818182,
                "tempo": 120.0
            },
            {
                "start_time": 105.2727273,
                "end_time": 105.3545455,
                "pitch": 80,
                "velocity": 64,
                "duration": 0.0818182,
                "tempo": 120.0
            },
            {
                "start_time": 105.9454545,
                "end_time": 106.025,
                "pitch": 68,
                "velocity": 64,
                "duration": 0.0795455,
                "tempo": 120.0
            },
            {
                "start_time": 106.6090909,
                "end_time": 106.6909091,
                "pitch": 80,
                "velocity": 64,
                "duration": 0.0818182,
                "tempo": 120.0
            }
        ],
        "Clarinet": [
            {
                "start_time": 0.5022727,
                "end_time": 0.6045455,
                "pitch": 73,
                "velocity": 40,
                "duration": 0.1022727,
                "tempo": 120.0
            },
            {
                "start_time": 1.1704545,
                "end_time": 1.2204545,
                "pitch": 61,
                "velocity": 40,
                "duration": 0.05,
                "tempo": 120.0
            },
            {
                "start_time": 1.2204545,
                "end_time": 1.2704545,
                "pitch": 62,
                "velocity": 40,
                "duration": 0.05,
                "tempo": 120.0
            },
            {
                "start_time": 1.5022727,
                "end_time": 1.6045455,
                "pitch": 60,
                "velocity": 40,
                "duration": 0.1022727,
                "tempo": 120.0
            },
            {
                "start_time": 1.8386364,
                "end_time": 1.9386364,
                "pitch": 61,
                "velocity": 40,
                "duration": 0.1,
                "tempo": 120.0
            },
            {
                "start_time": 3.1818182,
                "end_time": 3.2818182,
                "pitch": 73,
                "velocity": 40,
                "duration": 0.1,
                "tempo": 120.0
            },
            {
                "start_time": 3.85,
                "end_time": 3.9,
                "pitch": 61,
                "velocity": 40,
                "duration": 0.05,
                "tempo": 120.0
            },
            {
                "start_time": 3.9,
                "end_time": 3.9477273,
                "pitch": 62,
                "velocity": 40,
                "duration": 0.0477273,
                "tempo": 120.0
            },
            {
                "start_time": 4.1818182,
                "end_time": 4.2818182,
                "pitch": 60,
                "velocity": 40,
                "duration": 0.1,
                "tempo": 120.0
            },
            {
                "start_time": 4.5181818,
                "end_time": 4.6181818,
                "pitch": 61,
                "velocity": 40,
                "duration": 0.1,
                "tempo": 120.0
            }
        ],
        "Flute": [
            {
                "start_time": 5.1568182,
                "end_time": 5.4931818,
                "pitch": 74,
                "velocity": 80,
                "duration": 0.3363636,
                "tempo": 120.0
            },
            {
                "start_time": 5.4931818,
                "end_time": 5.5590909,
                "pitch": 76,
                "velocity": 80,
                "duration": 0.0659091,
                "tempo": 120.0
            },
            {
                "start_time": 5.5590909,
                "end_time": 5.625,
                "pitch": 79,
                "velocity": 80,
                "duration": 0.0659091,
                "tempo": 120.0
            },
            {
                "start_time": 5.625,
                "end_time": 5.6590909,
                "pitch": 83,
                "velocity": 80,
                "duration": 0.0340909,
                "tempo": 120.0
            },
            {
                "start_time": 5.6590909,
                "end_time": 7.1704545,
                "pitch": 85,
                "velocity": 80,
                "duration": 1.5113636,
                "tempo": 120.0
            },
            {
                "start_time": 7.1704545,
                "end_time": 7.3386364,
                "pitch": 83,
                "velocity": 80,
                "duration": 0.1681818,
                "tempo": 120.0
            },
            {
                "start_time": 7.3386364,
                "end_time": 7.5068182,
                "pitch": 81,
                "velocity": 80,
                "duration": 0.1681818,
                "tempo": 120.0
            },
            {
                "start_time": 7.5068182,
                "end_time": 7.8409091,
                "pitch": 79,
                "velocity": 80,
                "duration": 0.3340909,
                "tempo": 120.0
            },
            {
                "start_time": 7.8431818,
                "end_time": 8.0090909,
                "pitch": 78,
                "velocity": 80,
                "duration": 0.1659091,
                "tempo": 120.0
            },
            {
                "start_time": 8.0113636,
                "end_time": 8.1795455,
                "pitch": 79,
                "velocity": 80,
                "duration": 0.1681818,
                "tempo": 120.0
            },
            {
                "start_time": 8.1795455,
                "end_time": 8.2272727,
                "pitch": 81,
                "velocity": 80,
                "duration": 0.0477273,
                "tempo": 120.0
            },
            {
                "start_time": 8.2272727,
                "end_time": 8.2795455,
                "pitch": 83,
                "velocity": 80,
                "duration": 0.0522727,
                "tempo": 120.0
            },
            {
                "start_time": 8.2795455,
                "end_time": 9.5136364,
                "pitch": 81,
                "velocity": 80,
                "duration": 1.2340909,
                "tempo": 120.0
            },
            {
                "start_time": 10.5181818,
                "end_time": 10.85,
                "pitch": 74,
                "velocity": 80,
                "duration": 0.3318182,
                "tempo": 120.0
            },
            {
                "start_time": 10.85,
                "end_time": 10.9159091,
                "pitch": 76,
                "velocity": 80,
                "duration": 0.0659091,
                "tempo": 120.0
            },
            {
                "start_time": 10.9159091,
                "end_time": 10.9840909,
                "pitch": 79,
                "velocity": 80,
                "duration": 0.0681818,
                "tempo": 120.0
            },
            {
                "start_time": 10.9840909,
                "end_time": 11.0181818,
                "pitch": 83,
                "velocity": 80,
                "duration": 0.0340909,
                "tempo": 120.0
            },
            {
                "start_time": 5.6590909,
                "end_time": 11.0181818,
                "pitch": 88,
                "velocity": 80,
                "duration": 5.3590909,
                "tempo": 120.0
            },
            {
                "start_time": 11.0181818,
                "end_time": 12.5295455,
                "pitch": 85,
                "velocity": 80,
                "duration": 1.5113636,
                "tempo": 120.0
            },
            {
                "start_time": 12.5295455,
                "end_time": 12.6954545,
                "pitch": 83,
                "velocity": 80,
                "duration": 0.1659091,
                "tempo": 120.0
            },
            {
                "start_time": 12.6954545,
                "end_time": 12.8636364,
                "pitch": 81,
                "velocity": 80,
                "duration": 0.1681818,
                "tempo": 120.0
            },
            {
                "start_time": 12.8636364,
                "end_time": 13.2,
                "pitch": 79,
                "velocity": 80,
                "duration": 0.3363636,
                "tempo": 120.0
            },
            {
                "start_time": 13.2,
                "end_time": 13.3681818,
                "pitch": 78,
                "velocity": 80,
                "duration": 0.1681818,
                "tempo": 120.0
            },
            {
                "start_time": 13.3681818,
                "end_time": 13.5363636,
                "pitch": 76,
                "velocity": 80,
                "duration": 0.1681818,
                "tempo": 120.0
            },
            {
                "start_time": 13.5363636,
                "end_time": 13.5863636,
                "pitch": 74,
                "velocity": 80,
                "duration": 0.05,
                "tempo": 120.0
            },
            {
                "start_time": 13.5863636,
                "end_time": 13.6363636,
                "pitch": 76,
                "velocity": 80,
                "duration": 0.05,
                "tempo": 120.0
            },
            {
                "start_time": 13.6363636,
                "end_time": 14.8727273,
                "pitch": 74,
                "velocity": 80,
                "duration": 1.2363636,
                "tempo": 120.0
            },
            {
                "start_time": 31.95,
                "end_time": 32.2818182,
                "pitch": 74,
                "velocity": 80,
                "duration": 0.3318182,
                "tempo": 120.0
            },
            {
                "start_time": 32.2818182,
                "end_time": 32.35,
                "pitch": 76,
                "velocity": 80,
                "duration": 0.0681818,
                "tempo": 120.0
            },
            {
                "start_time": 32.35,
                "end_time": 32.4204545,
                "pitch": 79,
                "velocity": 80,
                "duration": 0.0704545,
                "tempo": 120.0
            },
            {
                "start_time": 32.4204545,
                "end_time": 32.4545455,
                "pitch": 83,
                "velocity": 80,
                "duration": 0.0340909,
                "tempo": 120.0
            },
            {
                "start_time": 11.0181818,
                "end_time": 32.4545455,
                "pitch": 88,
                "velocity": 80,
                "duration": 21.4363636,
                "tempo": 120.0
            },
            {
                "start_time": 32.4545455,
                "end_time": 33.9613636,
                "pitch": 85,
                "velocity": 80,
                "duration": 1.5068182,
                "tempo": 120.0
            },
            {
                "start_time": 33.9613636,
                "end_time": 34.1295455,
                "pitch": 83,
                "velocity": 80,
                "duration": 0.1681818,
                "tempo": 120.0
            },
            {
                "start_time": 34.1295455,
                "end_time": 34.2977273,
                "pitch": 81,
                "velocity": 80,
                "duration": 0.1681818,
                "tempo": 120.0
            },
            {
                "start_time": 34.2977273,
                "end_time": 34.6340909,
                "pitch": 79,
                "velocity": 80,
                "duration": 0.3363636,
                "tempo": 120.0
            },
            {
                "start_time": 34.6340909,
                "end_time": 34.8,
                "pitch": 78,
                "velocity": 80,
                "duration": 0.1659091,
                "tempo": 120.0
            },
            {
                "start_time": 34.8,
                "end_time": 34.9704545,
                "pitch": 79,
                "velocity": 80,
                "duration": 0.1704545,
                "tempo": 120.0
            },
            {
                "start_time": 34.9704545,
                "end_time": 35.0181818,
                "pitch": 81,
                "velocity": 80,
                "duration": 0.0477273,
                "tempo": 120.0
            },
            {
                "start_time": 35.0181818,
                "end_time": 35.0704545,
                "pitch": 83,
                "velocity": 80,
                "duration": 0.0522727,
                "tempo": 120.0
            },
            {
                "start_time": 35.0704545,
                "end_time": 36.2977273,
                "pitch": 81,
                "velocity": 80,
                "duration": 1.2272727,
                "tempo": 120.0
            },
            {
                "start_time": 37.3045455,
                "end_time": 37.6409091,
                "pitch": 74,
                "velocity": 80,
                "duration": 0.3363636,
                "tempo": 120.0
            },
            {
                "start_time": 37.6409091,
                "end_time": 37.7090909,
                "pitch": 76,
                "velocity": 80,
                "duration": 0.0681818,
                "tempo": 120.0
            },
            {
                "start_time": 37.7090909,
                "end_time": 37.775,
                "pitch": 79,
                "velocity": 80,
                "duration": 0.0659091,
                "tempo": 120.0
            },
            {
                "start_time": 37.775,
                "end_time": 37.8090909,
                "pitch": 83,
                "velocity": 80,
                "duration": 0.0340909,
                "tempo": 120.0
            },
            {
                "start_time": 32.4545455,
                "end_time": 37.8090909,
                "pitch": 88,
                "velocity": 80,
                "duration": 5.3545455,
                "tempo": 120.0
            },
            {
                "start_time": 37.8090909,
                "end_time": 39.3045455,
                "pitch": 85,
                "velocity": 80,
                "duration": 1.4954545,
                "tempo": 120.0
            },
            {
                "start_time": 39.3068182,
                "end_time": 39.4727273,
                "pitch": 83,
                "velocity": 80,
                "duration": 0.1659091,
                "tempo": 120.0
            },
            {
                "start_time": 39.4727273,
                "end_time": 39.6409091,
                "pitch": 81,
                "velocity": 80,
                "duration": 0.1681818,
                "tempo": 120.0
            },
            {
                "start_time": 39.6409091,
                "end_time": 39.9772727,
                "pitch": 79,
                "velocity": 80,
                "duration": 0.3363636,
                "tempo": 120.0
            },
            {
                "start_time": 39.9772727,
                "end_time": 40.1431818,
                "pitch": 78,
                "velocity": 80,
                "duration": 0.1659091,
                "tempo": 120.0
            },
            {
                "start_time": 40.1454545,
                "end_time": 40.3136364,
                "pitch": 76,
                "velocity": 80,
                "duration": 0.1681818,
                "tempo": 120.0
            },
            {
                "start_time": 40.3136364,
                "end_time": 40.3636364,
                "pitch": 74,
                "velocity": 80,
                "duration": 0.05,
                "tempo": 120.0
            },
            {
                "start_time": 40.3636364,
                "end_time": 40.4136364,
                "pitch": 76,
                "velocity": 80,
                "duration": 0.05,
                "tempo": 120.0
            },
            {
                "start_time": 40.4136364,
                "end_time": 41.6409091,
                "pitch": 74,
                "velocity": 80,
                "duration": 1.2272727,
                "tempo": 120.0
            },
            {
                "start_time": 58.7227273,
                "end_time": 59.0590909,
                "pitch": 74,
                "velocity": 80,
                "duration": 0.3363636,
                "tempo": 120.0
            },
            {
                "start_time": 59.0590909,
                "end_time": 59.125,
                "pitch": 76,
                "velocity": 80,
                "duration": 0.0659091,
                "tempo": 120.0
            },
            {
                "start_time": 59.125,
                "end_time": 59.1909091,
                "pitch": 79,
                "velocity": 80,
                "duration": 0.0659091,
                "tempo": 120.0
            },
            {
                "start_time": 59.1909091,
                "end_time": 59.225,
                "pitch": 83,
                "velocity": 80,
                "duration": 0.0340909,
                "tempo": 120.0
            },
            {
                "start_time": 37.8090909,
                "end_time": 59.225,
                "pitch": 88,
                "velocity": 80,
                "duration": 21.4159091,
                "tempo": 120.0
            },
            {
                "start_time": 59.225,
                "end_time": 60.7340909,
                "pitch": 85,
                "velocity": 80,
                "duration": 1.5090909,
                "tempo": 120.0
            },
            {
                "start_time": 60.7340909,
                "end_time": 60.8977273,
                "pitch": 83,
                "velocity": 80,
                "duration": 0.1636364,
                "tempo": 120.0
            },
            {
                "start_time": 60.9,
                "end_time": 61.0659091,
                "pitch": 81,
                "velocity": 80,
                "duration": 0.1659091,
                "tempo": 120.0
            },
            {
                "start_time": 61.0659091,
                "end_time": 61.4,
                "pitch": 79,
                "velocity": 80,
                "duration": 0.3340909,
                "tempo": 120.0
            },
            {
                "start_time": 61.4,
                "end_time": 61.5681818,
                "pitch": 78,
                "velocity": 80,
                "duration": 0.1681818,
                "tempo": 120.0
            },
            {
                "start_time": 61.5681818,
                "end_time": 61.7363636,
                "pitch": 79,
                "velocity": 80,
                "duration": 0.1681818,
                "tempo": 120.0
            },
            {
                "start_time": 61.7386364,
                "end_time": 61.7863636,
                "pitch": 81,
                "velocity": 80,
                "duration": 0.0477273,
                "tempo": 120.0
            },
            {
                "start_time": 61.7863636,
                "end_time": 61.8363636,
                "pitch": 83,
                "velocity": 80,
                "duration": 0.05,
                "tempo": 120.0
            },
            {
                "start_time": 61.8363636,
                "end_time": 63.0818182,
                "pitch": 81,
                "velocity": 80,
                "duration": 1.2454545,
                "tempo": 120.0
            },
            {
                "start_time": 64.0795455,
                "end_time": 64.4159091,
                "pitch": 74,
                "velocity": 80,
                "duration": 0.3363636,
                "tempo": 120.0
            },
            {
                "start_time": 64.4159091,
                "end_time": 64.4818182,
                "pitch": 76,
                "velocity": 80,
                "duration": 0.0659091,
                "tempo": 120.0
            },
            {
                "start_time": 64.4818182,
                "end_time": 64.55,
                "pitch": 79,
                "velocity": 80,
                "duration": 0.0681818,
                "tempo": 120.0
            },
            {
                "start_time": 64.55,
                "end_time": 64.5840909,
                "pitch": 83,
                "velocity": 80,
                "duration": 0.0340909,
                "tempo": 120.0
            },
            {
                "start_time": 59.225,
                "end_time": 64.5840909,
                "pitch": 88,
                "velocity": 80,
                "duration": 5.3590909,
                "tempo": 120.0
            },
            {
                "start_time": 64.5840909,
                "end_time": 66.0886364,
                "pitch": 85,
                "velocity": 80,
                "duration": 1.5045455,
                "tempo": 120.0
            },
            {
                "start_time": 66.0886364,
                "end_time": 66.2545455,
                "pitch": 83,
                "velocity": 80,
                "duration": 0.1659091,
                "tempo": 120.0
            },
            {
                "start_time": 66.2545455,
                "end_time": 66.4227273,
                "pitch": 81,
                "velocity": 80,
                "duration": 0.1681818,
                "tempo": 120.0
            },
            {
                "start_time": 66.4227273,
                "end_time": 66.7590909,
                "pitch": 79,
                "velocity": 80,
                "duration": 0.3363636,
                "tempo": 120.0
            },
            {
                "start_time": 66.7590909,
                "end_time": 66.9272727,
                "pitch": 78,
                "velocity": 80,
                "duration": 0.1681818,
                "tempo": 120.0
            },
            {
                "start_time": 66.9272727,
                "end_time": 67.0954545,
                "pitch": 76,
                "velocity": 80,
                "duration": 0.1681818,
                "tempo": 120.0
            },
            {
                "start_time": 67.0954545,
                "end_time": 67.1454545,
                "pitch": 74,
                "velocity": 80,
                "duration": 0.05,
                "tempo": 120.0
            },
            {
                "start_time": 67.1454545,
                "end_time": 67.1954545,
                "pitch": 76,
                "velocity": 80,
                "duration": 0.05,
                "tempo": 120.0
            },
            {
                "start_time": 67.1954545,
                "end_time": 68.4386364,
                "pitch": 74,
                "velocity": 80,
                "duration": 1.2431818,
                "tempo": 120.0
            },
            {
                "start_time": 85.5113636,
                "end_time": 85.8477273,
                "pitch": 74,
                "velocity": 80,
                "duration": 0.3363636,
                "tempo": 120.0
            },
            {
                "start_time": 85.8477273,
                "end_time": 85.9136364,
                "pitch": 76,
                "velocity": 80,
                "duration": 0.0659091,
                "tempo": 120.0
            },
            {
                "start_time": 85.9136364,
                "end_time": 85.9818182,
                "pitch": 79,
                "velocity": 80,
                "duration": 0.0681818,
                "tempo": 120.0
            },
            {
                "start_time": 85.9818182,
                "end_time": 86.0159091,
                "pitch": 83,
                "velocity": 80,
                "duration": 0.0340909,
                "tempo": 120.0
            },
            {
                "start_time": 64.5840909,
                "end_time": 86.0159091,
                "pitch": 88,
                "velocity": 80,
                "duration": 21.4318182,
                "tempo": 120.0
            },
            {
                "start_time": 86.0159091,
                "end_time": 87.5227273,
                "pitch": 85,
                "velocity": 80,
                "duration": 1.5068182,
                "tempo": 120.0
            },
            {
                "start_time": 87.5227273,
                "end_time": 87.6886364,
                "pitch": 83,
                "velocity": 80,
                "duration": 0.1659091,
                "tempo": 120.0
            },
            {
                "start_time": 87.6886364,
                "end_time": 87.8545455,
                "pitch": 81,
                "velocity": 80,
                "duration": 0.1659091,
                "tempo": 120.0
            },
            {
                "start_time": 87.8545455,
                "end_time": 88.1909091,
                "pitch": 79,
                "velocity": 80,
                "duration": 0.3363636,
                "tempo": 120.0
            },
            {
                "start_time": 88.1909091,
                "end_time": 88.3568182,
                "pitch": 78,
                "velocity": 80,
                "duration": 0.1659091,
                "tempo": 120.0
            },
            {
                "start_time": 88.3590909,
                "end_time": 88.5272727,
                "pitch": 79,
                "velocity": 80,
                "duration": 0.1681818,
                "tempo": 120.0
            },
            {
                "start_time": 88.5272727,
                "end_time": 88.5772727,
                "pitch": 81,
                "velocity": 80,
                "duration": 0.05,
                "tempo": 120.0
            },
            {
                "start_time": 88.5772727,
                "end_time": 88.6272727,
                "pitch": 83,
                "velocity": 80,
                "duration": 0.05,
                "tempo": 120.0
            },
            {
                "start_time": 88.6272727,
                "end_time": 89.8704545,
                "pitch": 81,
                "velocity": 80,
                "duration": 1.2431818,
                "tempo": 120.0
            },
            {
                "start_time": 90.8704545,
                "end_time": 91.2068182,
                "pitch": 74,
                "velocity": 80,
                "duration": 0.3363636,
                "tempo": 120.0
            },
            {
                "start_time": 91.2068182,
                "end_time": 91.2727273,
                "pitch": 76,
                "velocity": 80,
                "duration": 0.0659091,
                "tempo": 120.0
            },
            {
                "start_time": 91.2727273,
                "end_time": 91.3409091,
                "pitch": 79,
                "velocity": 80,
                "duration": 0.0681818,
                "tempo": 120.0
            },
            {
                "start_time": 91.3409091,
                "end_time": 91.375,
                "pitch": 83,
                "velocity": 80,
                "duration": 0.0340909,
                "tempo": 120.0
            },
            {
                "start_time": 86.0159091,
                "end_time": 91.375,
                "pitch": 88,
                "velocity": 80,
                "duration": 5.3590909,
                "tempo": 120.0
            },
            {
                "start_time": 91.375,
                "end_time": 92.8818182,
                "pitch": 85,
                "velocity": 80,
                "duration": 1.5068182,
                "tempo": 120.0
            },
            {
                "start_time": 92.8818182,
                "end_time": 93.0454545,
                "pitch": 83,
                "velocity": 80,
                "duration": 0.1636364,
                "tempo": 120.0
            },
            {
                "start_time": 93.0454545,
                "end_time": 93.2136364,
                "pitch": 81,
                "velocity": 80,
                "duration": 0.1681818,
                "tempo": 120.0
            },
            {
                "start_time": 93.2136364,
                "end_time": 93.5477273,
                "pitch": 79,
                "velocity": 80,
                "duration": 0.3340909,
                "tempo": 120.0
            },
            {
                "start_time": 93.55,
                "end_time": 93.7159091,
                "pitch": 78,
                "velocity": 80,
                "duration": 0.1659091,
                "tempo": 120.0
            },
            {
                "start_time": 93.7159091,
                "end_time": 93.8840909,
                "pitch": 76,
                "velocity": 80,
                "duration": 0.1681818,
                "tempo": 120.0
            },
            {
                "start_time": 93.8863636,
                "end_time": 93.9340909,
                "pitch": 74,
                "velocity": 80,
                "duration": 0.0477273,
                "tempo": 120.0
            },
            {
                "start_time": 93.9340909,
                "end_time": 93.9863636,
                "pitch": 76,
                "velocity": 80,
                "duration": 0.0522727,
                "tempo": 120.0
            },
            {
                "start_time": 93.9863636,
                "end_time": 95.2295455,
                "pitch": 74,
                "velocity": 80,
                "duration": 1.2431818,
                "tempo": 120.0
            }
        ],
        "Violin": [
            {
                "start_time": 29.6045455,
                "end_time": 29.6886364,
                "pitch": 93,
                "velocity": 101,
                "duration": 0.0840909,
                "tempo": 120.0
            },
            {
                "start_time": 29.6886364,
                "end_time": 29.775,
                "pitch": 93,
                "velocity": 40,
                "duration": 0.0863636,
                "tempo": 120.0
            },
            {
                "start_time": 29.775,
                "end_time": 29.8636364,
                "pitch": 98,
                "velocity": 101,
                "duration": 0.0886364,
                "tempo": 120.0
            },
            {
                "start_time": 29.8636364,
                "end_time": 29.95,
                "pitch": 98,
                "velocity": 40,
                "duration": 0.0863636,
                "tempo": 120.0
            },
            {
                "start_time": 29.95,
                "end_time": 30.1227273,
                "pitch": 98,
                "velocity": 101,
                "duration": 0.1727273,
                "tempo": 120.0
            },
            {
                "start_time": 30.1227273,
                "end_time": 30.2977273,
                "pitch": 98,
                "velocity": 40,
                "duration": 0.175,
                "tempo": 120.0
            },
            {
                "start_time": 30.2977273,
                "end_time": 30.3772727,
                "pitch": 93,
                "velocity": 101,
                "duration": 0.0795455,
                "tempo": 120.0
            },
            {
                "start_time": 30.3795455,
                "end_time": 30.4590909,
                "pitch": 93,
                "velocity": 40,
                "duration": 0.0795455,
                "tempo": 120.0
            },
            {
                "start_time": 30.4590909,
                "end_time": 30.5409091,
                "pitch": 98,
                "velocity": 101,
                "duration": 0.0818182,
                "tempo": 120.0
            },
            {
                "start_time": 30.5409091,
                "end_time": 30.6227273,
                "pitch": 98,
                "velocity": 40,
                "duration": 0.0818182,
                "tempo": 120.0
            },
            {
                "start_time": 30.6227273,
                "end_time": 30.7840909,
                "pitch": 98,
                "velocity": 101,
                "duration": 0.1613636,
                "tempo": 120.0
            },
            {
                "start_time": 30.7840909,
                "end_time": 30.9477273,
                "pitch": 98,
                "velocity": 40,
                "duration": 0.1636364,
                "tempo": 120.0
            },
            {
                "start_time": 32.2840909,
                "end_time": 32.3681818,
                "pitch": 93,
                "velocity": 101,
                "duration": 0.0840909,
                "tempo": 120.0
            },
            {
                "start_time": 32.3681818,
                "end_time": 32.4545455,
                "pitch": 93,
                "velocity": 40,
                "duration": 0.0863636,
                "tempo": 120.0
            },
            {
                "start_time": 32.4568182,
                "end_time": 32.5409091,
                "pitch": 98,
                "velocity": 101,
                "duration": 0.0840909,
                "tempo": 120.0
            },
            {
                "start_time": 32.5431818,
                "end_time": 32.6295455,
                "pitch": 98,
                "velocity": 40,
                "duration": 0.0863636,
                "tempo": 120.0
            },
            {
                "start_time": 32.6295455,
                "end_time": 32.8022727,
                "pitch": 98,
                "velocity": 101,
                "duration": 0.1727273,
                "tempo": 120.0
            },
            {
                "start_time": 32.8022727,
                "end_time": 32.9772727,
                "pitch": 98,
                "velocity": 40,
                "duration": 0.175,
                "tempo": 120.0
            },
            {
                "start_time": 32.9772727,
                "end_time": 33.0568182,
                "pitch": 93,
                "velocity": 101,
                "duration": 0.0795455,
                "tempo": 120.0
            },
            {
                "start_time": 33.0590909,
                "end_time": 33.1386364,
                "pitch": 93,
                "velocity": 40,
                "duration": 0.0795455,
                "tempo": 120.0
            },
            {
                "start_time": 33.1386364,
                "end_time": 33.2204545,
                "pitch": 98,
                "velocity": 101,
                "duration": 0.0818182,
                "tempo": 120.0
            },
            {
                "start_time": 33.2204545,
                "end_time": 33.3022727,
                "pitch": 98,
                "velocity": 40,
                "duration": 0.0818182,
                "tempo": 120.0
            },
            {
                "start_time": 33.3022727,
                "end_time": 33.4636364,
                "pitch": 98,
                "velocity": 101,
                "duration": 0.1613636,
                "tempo": 120.0
            },
            {
                "start_time": 33.4636364,
                "end_time": 33.6272727,
                "pitch": 98,
                "velocity": 40,
                "duration": 0.1636364,
                "tempo": 120.0
            },
            {
                "start_time": 33.9636364,
                "end_time": 34.0454545,
                "pitch": 95,
                "velocity": 101,
                "duration": 0.0818182,
                "tempo": 120.0
            },
            {
                "start_time": 34.0454545,
                "end_time": 34.1295455,
                "pitch": 95,
                "velocity": 40,
                "duration": 0.0840909,
                "tempo": 120.0
            },
            {
                "start_time": 34.1295455,
                "end_time": 34.2136364,
                "pitch": 93,
                "velocity": 101,
                "duration": 0.0840909,
                "tempo": 120.0
            },
            {
                "start_time": 34.2136364,
                "end_time": 34.2977273,
                "pitch": 93,
                "velocity": 40,
                "duration": 0.0840909,
                "tempo": 120.0
            },
            {
                "start_time": 34.3,
                "end_time": 34.3818182,
                "pitch": 91,
                "velocity": 101,
                "duration": 0.0818182,
                "tempo": 120.0
            },
            {
                "start_time": 34.3818182,
                "end_time": 34.4659091,
                "pitch": 91,
                "velocity": 40,
                "duration": 0.0840909,
                "tempo": 120.0
            },
            {
                "start_time": 34.4659091,
                "end_time": 34.5159091,
                "pitch": 91,
                "velocity": 80,
                "duration": 0.05,
                "tempo": 120.0
            },
            {
                "start_time": 34.5159091,
                "end_time": 34.5659091,
                "pitch": 93,
                "velocity": 80,
                "duration": 0.05,
                "tempo": 120.0
            },
            {
                "start_time": 34.5659091,
                "end_time": 34.6340909,
                "pitch": 91,
                "velocity": 80,
                "duration": 0.0681818,
                "tempo": 120.0
            },
            {
                "start_time": 34.6363636,
                "end_time": 34.7181818,
                "pitch": 90,
                "velocity": 101,
                "duration": 0.0818182,
                "tempo": 120.0
            },
            {
                "start_time": 34.7181818,
                "end_time": 34.8022727,
                "pitch": 90,
                "velocity": 40,
                "duration": 0.0840909,
                "tempo": 120.0
            },
            {
                "start_time": 34.8022727,
                "end_time": 34.8863636,
                "pitch": 91,
                "velocity": 101,
                "duration": 0.0840909,
                "tempo": 120.0
            },
            {
                "start_time": 34.8863636,
                "end_time": 34.9704545,
                "pitch": 91,
                "velocity": 40,
                "duration": 0.0840909,
                "tempo": 120.0
            },
            {
                "start_time": 34.9727273,
                "end_time": 35.0545455,
                "pitch": 93,
                "velocity": 101,
                "duration": 0.0818182,
                "tempo": 120.0
            },
            {
                "start_time": 35.0545455,
                "end_time": 35.1386364,
                "pitch": 93,
                "velocity": 40,
                "duration": 0.0840909,
                "tempo": 120.0
            },
            {
                "start_time": 35.1386364,
                "end_time": 35.2227273,
                "pitch": 98,
                "velocity": 101,
                "duration": 0.0840909,
                "tempo": 120.0
            },
            {
                "start_time": 35.225,
                "end_time": 35.3090909,
                "pitch": 98,
                "velocity": 40,
                "duration": 0.0840909,
                "tempo": 120.0
            },
            {
                "start_time": 35.3090909,
                "end_time": 35.4772727,
                "pitch": 98,
                "velocity": 101,
                "duration": 0.1681818,
                "tempo": 120.0
            },
            {
                "start_time": 35.4795455,
                "end_time": 35.65,
                "pitch": 98,
                "velocity": 40,
                "duration": 0.1704545,
                "tempo": 120.0
            },
            {
                "start_time": 35.65,
                "end_time": 35.7295455,
                "pitch": 93,
                "velocity": 101,
                "duration": 0.0795455,
                "tempo": 120.0
            },
            {
                "start_time": 35.7295455,
                "end_time": 35.8113636,
                "pitch": 93,
                "velocity": 40,
                "duration": 0.0818182,
                "tempo": 120.0
            },
            {
                "start_time": 35.8113636,
                "end_time": 35.8909091,
                "pitch": 98,
                "velocity": 101,
                "duration": 0.0795455,
                "tempo": 120.0
            },
            {
                "start_time": 35.8931818,
                "end_time": 35.975,
                "pitch": 98,
                "velocity": 40,
                "duration": 0.0818182,
                "tempo": 120.0
            },
            {
                "start_time": 35.975,
                "end_time": 36.1363636,
                "pitch": 98,
                "velocity": 101,
                "duration": 0.1613636,
                "tempo": 120.0
            },
            {
                "start_time": 36.1363636,
                "end_time": 36.3,
                "pitch": 98,
                "velocity": 40,
                "duration": 0.1636364,
                "tempo": 120.0
            },
            {
                "start_time": 36.3,
                "end_time": 36.4659091,
                "pitch": 62,
                "velocity": 101,
                "duration": 0.1659091,
                "tempo": 120.0
            },
            {
                "start_time": 36.4659091,
                "end_time": 36.6340909,
                "pitch": 62,
                "velocity": 40,
                "duration": 0.1681818,
                "tempo": 120.0
            },
            {
                "start_time": 36.6340909,
                "end_time": 36.8022727,
                "pitch": 62,
                "velocity": 101,
                "duration": 0.1681818,
                "tempo": 120.0
            },
            {
                "start_time": 36.8022727,
                "end_time": 36.9704545,
                "pitch": 62,
                "velocity": 40,
                "duration": 0.1681818,
                "tempo": 120.0
            },
            {
                "start_time": 36.9704545,
                "end_time": 37.0704545,
                "pitch": 98,
                "velocity": 40,
                "duration": 0.1,
                "tempo": 120.0
            },
            {
                "start_time": 37.0704545,
                "end_time": 37.1045455,
                "pitch": 95,
                "velocity": 40,
                "duration": 0.0340909,
                "tempo": 120.0
            },
            {
                "start_time": 37.1045455,
                "end_time": 37.1363636,
                "pitch": 96,
                "velocity": 40,
                "duration": 0.0318182,
                "tempo": 120.0
            },
            {
                "start_time": 37.1363636,
                "end_time": 37.2704545,
                "pitch": 94,
                "velocity": 40,
                "duration": 0.1340909,
                "tempo": 120.0
            },
            {
                "start_time": 37.2704545,
                "end_time": 37.4068182,
                "pitch": 92,
                "velocity": 40,
                "duration": 0.1363636,
                "tempo": 120.0
            },
            {
                "start_time": 37.4068182,
                "end_time": 37.5727273,
                "pitch": 89,
                "velocity": 40,
                "duration": 0.1659091,
                "tempo": 120.0
            },
            {
                "start_time": 37.6431818,
                "end_time": 37.725,
                "pitch": 93,
                "velocity": 101,
                "duration": 0.0818182,
                "tempo": 120.0
            },
            {
                "start_time": 37.7272727,
                "end_time": 37.8113636,
                "pitch": 93,
                "velocity": 40,
                "duration": 0.0840909,
                "tempo": 120.0
            },
            {
                "start_time": 37.8113636,
                "end_time": 37.8954545,
                "pitch": 98,
                "velocity": 101,
                "duration": 0.0840909,
                "tempo": 120.0
            },
            {
                "start_time": 37.8954545,
                "end_time": 37.9818182,
                "pitch": 98,
                "velocity": 40,
                "duration": 0.0863636,
                "tempo": 120.0
            },
            {
                "start_time": 37.9818182,
                "end_time": 38.15,
                "pitch": 98,
                "velocity": 101,
                "duration": 0.1681818,
                "tempo": 120.0
            },
            {
                "start_time": 38.15,
                "end_time": 38.3204545,
                "pitch": 98,
                "velocity": 40,
                "duration": 0.1704545,
                "tempo": 120.0
            },
            {
                "start_time": 38.3204545,
                "end_time": 38.4022727,
                "pitch": 93,
                "velocity": 101,
                "duration": 0.0818182,
                "tempo": 120.0
            },
            {
                "start_time": 38.4022727,
                "end_time": 38.4818182,
                "pitch": 93,
                "velocity": 40,
                "duration": 0.0795455,
                "tempo": 120.0
            },
            {
                "start_time": 38.4818182,
                "end_time": 38.5636364,
                "pitch": 98,
                "velocity": 101,
                "duration": 0.0818182,
                "tempo": 120.0
            },
            {
                "start_time": 38.5636364,
                "end_time": 38.6454545,
                "pitch": 98,
                "velocity": 40,
                "duration": 0.0818182,
                "tempo": 120.0
            },
            {
                "start_time": 38.6454545,
                "end_time": 38.8068182,
                "pitch": 98,
                "velocity": 101,
                "duration": 0.1613636,
                "tempo": 120.0
            },
            {
                "start_time": 38.8068182,
                "end_time": 38.9704545,
                "pitch": 98,
                "velocity": 40,
                "duration": 0.1636364,
                "tempo": 120.0
            },
            {
                "start_time": 39.3068182,
                "end_time": 39.3886364,
                "pitch": 95,
                "velocity": 101,
                "duration": 0.0818182,
                "tempo": 120.0
            },
            {
                "start_time": 39.3909091,
                "end_time": 39.4727273,
                "pitch": 95,
                "velocity": 40,
                "duration": 0.0818182,
                "tempo": 120.0
            },
            {
                "start_time": 39.475,
                "end_time": 39.5568182,
                "pitch": 93,
                "velocity": 101,
                "duration": 0.0818182,
                "tempo": 120.0
            },
            {
                "start_time": 39.5568182,
                "end_time": 39.6431818,
                "pitch": 93,
                "velocity": 40,
                "duration": 0.0863636,
                "tempo": 120.0
            },
            {
                "start_time": 39.6431818,
                "end_time": 39.725,
                "pitch": 91,
                "velocity": 101,
                "duration": 0.0818182,
                "tempo": 120.0
            },
            {
                "start_time": 39.725,
                "end_time": 39.8090909,
                "pitch": 91,
                "velocity": 40,
                "duration": 0.0840909,
                "tempo": 120.0
            },
            {
                "start_time": 39.8090909,
                "end_time": 39.8590909,
                "pitch": 91,
                "velocity": 80,
                "duration": 0.05,
                "tempo": 120.0
            },
            {
                "start_time": 39.8590909,
                "end_time": 39.9090909,
                "pitch": 93,
                "velocity": 80,
                "duration": 0.05,
                "tempo": 120.0
            },
            {
                "start_time": 39.9090909,
                "end_time": 39.9795455,
                "pitch": 91,
                "velocity": 80,
                "duration": 0.0704545,
                "tempo": 120.0
            },
            {
                "start_time": 39.9795455,
                "end_time": 40.0613636,
                "pitch": 90,
                "velocity": 101,
                "duration": 0.0818182,
                "tempo": 120.0
            },
            {
                "start_time": 40.0613636,
                "end_time": 40.1454545,
                "pitch": 90,
                "velocity": 40,
                "duration": 0.0840909,
                "tempo": 120.0
            },
            {
                "start_time": 40.1454545,
                "end_time": 40.2295455,
                "pitch": 88,
                "velocity": 101,
                "duration": 0.0840909,
                "tempo": 120.0
            },
            {
                "start_time": 40.2295455,
                "end_time": 40.3159091,
                "pitch": 88,
                "velocity": 40,
                "duration": 0.0863636,
                "tempo": 120.0
            },
            {
                "start_time": 40.3159091,
                "end_time": 40.3977273,
                "pitch": 74,
                "velocity": 101,
                "duration": 0.0818182,
                "tempo": 120.0
            },
            {
                "start_time": 40.3977273,
                "end_time": 40.4818182,
                "pitch": 74,
                "velocity": 40,
                "duration": 0.0840909,
                "tempo": 120.0
            },
            {
                "start_time": 40.4818182,
                "end_time": 40.5681818,
                "pitch": 74,
                "velocity": 101,
                "duration": 0.0863636,
                "tempo": 120.0
            },
            {
                "start_time": 40.5681818,
                "end_time": 40.6522727,
                "pitch": 74,
                "velocity": 40,
                "duration": 0.0840909,
                "tempo": 120.0
            },
            {
                "start_time": 40.6545455,
                "end_time": 40.8227273,
                "pitch": 74,
                "velocity": 101,
                "duration": 0.1681818,
                "tempo": 120.0
            },
            {
                "start_time": 40.8227273,
                "end_time": 40.9931818,
                "pitch": 74,
                "velocity": 40,
                "duration": 0.1704545,
                "tempo": 120.0
            },
            {
                "start_time": 40.9931818,
                "end_time": 41.0727273,
                "pitch": 74,
                "velocity": 101,
                "duration": 0.0795455,
                "tempo": 120.0
            },
            {
                "start_time": 41.0727273,
                "end_time": 41.1545455,
                "pitch": 74,
                "velocity": 40,
                "duration": 0.0818182,
                "tempo": 120.0
            },
            {
                "start_time": 41.1545455,
                "end_time": 41.2363636,
                "pitch": 74,
                "velocity": 101,
                "duration": 0.0818182,
                "tempo": 120.0
            },
            {
                "start_time": 41.2363636,
                "end_time": 41.3181818,
                "pitch": 74,
                "velocity": 40,
                "duration": 0.0818182,
                "tempo": 120.0
            },
            {
                "start_time": 41.3181818,
                "end_time": 41.4795455,
                "pitch": 74,
                "velocity": 101,
                "duration": 0.1613636,
                "tempo": 120.0
            },
            {
                "start_time": 41.4795455,
                "end_time": 41.6431818,
                "pitch": 74,
                "velocity": 40,
                "duration": 0.1636364,
                "tempo": 120.0
            },
            {
                "start_time": 41.6431818,
                "end_time": 41.8090909,
                "pitch": 62,
                "velocity": 101,
                "duration": 0.1659091,
                "tempo": 120.0
            },
            {
                "start_time": 41.8090909,
                "end_time": 41.9772727,
                "pitch": 62,
                "velocity": 40,
                "duration": 0.1681818,
                "tempo": 120.0
            },
            {
                "start_time": 41.9795455,
                "end_time": 42.1454545,
                "pitch": 62,
                "velocity": 101,
                "duration": 0.1659091,
                "tempo": 120.0
            },
            {
                "start_time": 42.1454545,
                "end_time": 42.3136364,
                "pitch": 62,
                "velocity": 40,
                "duration": 0.1681818,
                "tempo": 120.0
            },
            {
                "start_time": 37.0704545,
                "end_time": 42.4136364,
                "pitch": 81,
                "velocity": 40,
                "duration": 5.3431818,
                "tempo": 120.0
            },
            {
                "start_time": 42.3136364,
                "end_time": 42.4136364,
                "pitch": 98,
                "velocity": 40,
                "duration": 0.1,
                "tempo": 120.0
            },
            {
                "start_time": 42.4136364,
                "end_time": 42.4477273,
                "pitch": 95,
                "velocity": 40,
                "duration": 0.0340909,
                "tempo": 120.0
            },
            {
                "start_time": 37.1045455,
                "end_time": 42.4477273,
                "pitch": 100,
                "velocity": 40,
                "duration": 5.3431818,
                "tempo": 120.0
            },
            {
                "start_time": 37.1363636,
                "end_time": 42.4818182,
                "pitch": 76,
                "velocity": 40,
                "duration": 5.3454545,
                "tempo": 120.0
            },
            {
                "start_time": 42.4477273,
                "end_time": 42.4818182,
                "pitch": 96,
                "velocity": 40,
                "duration": 0.0340909,
                "tempo": 120.0
            },
            {
                "start_time": 42.4818182,
                "end_time": 42.6159091,
                "pitch": 94,
                "velocity": 40,
                "duration": 0.1340909,
                "tempo": 120.0
            },
            {
                "start_time": 42.6159091,
                "end_time": 42.75,
                "pitch": 92,
                "velocity": 40,
                "duration": 0.1340909,
                "tempo": 120.0
            },
            {
                "start_time": 37.4068182,
                "end_time": 42.75,
                "pitch": 102,
                "velocity": 40,
                "duration": 5.3431818,
                "tempo": 120.0
            },
            {
                "start_time": 42.75,
                "end_time": 42.9181818,
                "pitch": 89,
                "velocity": 40,
                "duration": 0.1681818,
                "tempo": 120.0
            },
            {
                "start_time": 43.3227273,
                "end_time": 43.4886364,
                "pitch": 97,
                "velocity": 101,
                "duration": 0.1659091,
                "tempo": 120.0
            },
            {
                "start_time": 43.9909091,
                "end_time": 44.1545455,
                "pitch": 97,
                "velocity": 101,
                "duration": 0.1636364,
                "tempo": 120.0
            },
            {
                "start_time": 44.6590909,
                "end_time": 44.825,
                "pitch": 97,
                "velocity": 101,
                "duration": 0.1659091,
                "tempo": 120.0
            },
            {
                "start_time": 45.3295455,
                "end_time": 45.4954545,
                "pitch": 97,
                "velocity": 101,
                "duration": 0.1659091,
                "tempo": 120.0
            },
            {
                "start_time": 46.0022727,
                "end_time": 46.1681818,
                "pitch": 97,
                "velocity": 101,
                "duration": 0.1659091,
                "tempo": 120.0
            },
            {
                "start_time": 46.6681818,
                "end_time": 46.8340909,
                "pitch": 97,
                "velocity": 101,
                "duration": 0.1659091,
                "tempo": 120.0
            },
            {
                "start_time": 47.0022727,
                "end_time": 47.1681818,
                "pitch": 85,
                "velocity": 101,
                "duration": 0.1659091,
                "tempo": 120.0
            },
            {
                "start_time": 47.3386364,
                "end_time": 47.5022727,
                "pitch": 97,
                "velocity": 101,
                "duration": 0.1636364,
                "tempo": 120.0
            },
            {
                "start_time": 48.6795455,
                "end_time": 48.8477273,
                "pitch": 97,
                "velocity": 101,
                "duration": 0.1681818,
                "tempo": 120.0
            },
            {
                "start_time": 49.3477273,
                "end_time": 49.5136364,
                "pitch": 97,
                "velocity": 101,
                "duration": 0.1659091,
                "tempo": 120.0
            },
            {
                "start_time": 50.0159091,
                "end_time": 50.1818182,
                "pitch": 97,
                "velocity": 101,
                "duration": 0.1659091,
                "tempo": 120.0
            },
            {
                "start_time": 50.6863636,
                "end_time": 50.8545455,
                "pitch": 97,
                "velocity": 101,
                "duration": 0.1681818,
                "tempo": 120.0
            },
            {
                "start_time": 51.3590909,
                "end_time": 51.525,
                "pitch": 97,
                "velocity": 101,
                "duration": 0.1659091,
                "tempo": 120.0
            },
            {
                "start_time": 52.0272727,
                "end_time": 52.1909091,
                "pitch": 97,
                "velocity": 101,
                "duration": 0.1636364,
                "tempo": 120.0
            },
            {
                "start_time": 52.6954545,
                "end_time": 52.8613636,
                "pitch": 97,
                "velocity": 101,
                "duration": 0.1659091,
                "tempo": 120.0
            },
            {
                "start_time": 53.3659091,
                "end_time": 53.5318182,
                "pitch": 97,
                "velocity": 101,
                "duration": 0.1659091,
                "tempo": 120.0
            },
            {
                "start_time": 56.3818182,
                "end_time": 56.4636364,
                "pitch": 93,
                "velocity": 101,
                "duration": 0.0818182,
                "tempo": 120.0
            },
            {
                "start_time": 56.4636364,
                "end_time": 56.5477273,
                "pitch": 93,
                "velocity": 40,
                "duration": 0.0840909,
                "tempo": 120.0
            },
            {
                "start_time": 56.5477273,
                "end_time": 56.6318182,
                "pitch": 98,
                "velocity": 101,
                "duration": 0.0840909,
                "tempo": 120.0
            },
            {
                "start_time": 56.6318182,
                "end_time": 56.7159091,
                "pitch": 98,
                "velocity": 40,
                "duration": 0.0840909,
                "tempo": 120.0
            },
            {
                "start_time": 56.7159091,
                "end_time": 56.8840909,
                "pitch": 98,
                "velocity": 101,
                "duration": 0.1681818,
                "tempo": 120.0
            },
            {
                "start_time": 56.8840909,
                "end_time": 57.0522727,
                "pitch": 98,
                "velocity": 40,
                "duration": 0.1681818,
                "tempo": 120.0
            },
            {
                "start_time": 57.0522727,
                "end_time": 57.1340909,
                "pitch": 93,
                "velocity": 101,
                "duration": 0.0818182,
                "tempo": 120.0
            },
            {
                "start_time": 57.1340909,
                "end_time": 57.2159091,
                "pitch": 93,
                "velocity": 40,
                "duration": 0.0818182,
                "tempo": 120.0
            },
            {
                "start_time": 57.2181818,
                "end_time": 57.3,
                "pitch": 98,
                "velocity": 101,
                "duration": 0.0818182,
                "tempo": 120.0
            },
            {
                "start_time": 57.3,
                "end_time": 57.3840909,
                "pitch": 98,
                "velocity": 40,
                "duration": 0.0840909,
                "tempo": 120.0
            },
            {
                "start_time": 57.3840909,
                "end_time": 57.55,
                "pitch": 98,
                "velocity": 101,
                "duration": 0.1659091,
                "tempo": 120.0
            },
            {
                "start_time": 57.55,
                "end_time": 57.7159091,
                "pitch": 98,
                "velocity": 40,
                "duration": 0.1659091,
                "tempo": 120.0
            },
            {
                "start_time": 59.0613636,
                "end_time": 59.1431818,
                "pitch": 93,
                "velocity": 101,
                "duration": 0.0818182,
                "tempo": 120.0
            },
            {
                "start_time": 59.1431818,
                "end_time": 59.2272727,
                "pitch": 93,
                "velocity": 40,
                "duration": 0.0840909,
                "tempo": 120.0
            },
            {
                "start_time": 59.2272727,
                "end_time": 59.3090909,
                "pitch": 98,
                "velocity": 101,
                "duration": 0.0818182,
                "tempo": 120.0
            },
            {
                "start_time": 59.3113636,
                "end_time": 59.3954545,
                "pitch": 98,
                "velocity": 40,
                "duration": 0.0840909,
                "tempo": 120.0
            },
            {
                "start_time": 59.3954545,
                "end_time": 59.5613636,
                "pitch": 98,
                "velocity": 101,
                "duration": 0.1659091,
                "tempo": 120.0
            },
            {
                "start_time": 59.5636364,
                "end_time": 59.7295455,
                "pitch": 98,
                "velocity": 40,
                "duration": 0.1659091,
                "tempo": 120.0
            },
            {
                "start_time": 59.7318182,
                "end_time": 59.8136364,
                "pitch": 93,
                "velocity": 101,
                "duration": 0.0818182,
                "tempo": 120.0
            },
            {
                "start_time": 59.8136364,
                "end_time": 59.8977273,
                "pitch": 93,
                "velocity": 40,
                "duration": 0.0840909,
                "tempo": 120.0
            },
            {
                "start_time": 59.8977273,
                "end_time": 59.9818182,
                "pitch": 98,
                "velocity": 101,
                "duration": 0.0840909,
                "tempo": 120.0
            },
            {
                "start_time": 59.9818182,
                "end_time": 60.0659091,
                "pitch": 98,
                "velocity": 40,
                "duration": 0.0840909,
                "tempo": 120.0
            },
            {
                "start_time": 60.0659091,
                "end_time": 60.2340909,
                "pitch": 98,
                "velocity": 101,
                "duration": 0.1681818,
                "tempo": 120.0
            },
            {
                "start_time": 60.2340909,
                "end_time": 60.4022727,
                "pitch": 98,
                "velocity": 40,
                "duration": 0.1681818,
                "tempo": 120.0
            },
            {
                "start_time": 60.7363636,
                "end_time": 60.8159091,
                "pitch": 95,
                "velocity": 101,
                "duration": 0.0795455,
                "tempo": 120.0
            },
            {
                "start_time": 60.8159091,
                "end_time": 60.9,
                "pitch": 95,
                "velocity": 40,
                "duration": 0.0840909,
                "tempo": 120.0
            },
            {
                "start_time": 60.9,
                "end_time": 60.9818182,
                "pitch": 93,
                "velocity": 101,
                "duration": 0.0818182,
                "tempo": 120.0
            },
            {
                "start_time": 60.9818182,
                "end_time": 61.0659091,
                "pitch": 93,
                "velocity": 40,
                "duration": 0.0840909,
                "tempo": 120.0
            },
            {
                "start_time": 61.0681818,
                "end_time": 61.15,
                "pitch": 91,
                "velocity": 101,
                "duration": 0.0818182,
                "tempo": 120.0
            },
            {
                "start_time": 61.15,
                "end_time": 61.2340909,
                "pitch": 91,
                "velocity": 40,
                "duration": 0.0840909,
                "tempo": 120.0
            },
            {
                "start_time": 61.2340909,
                "end_time": 61.2840909,
                "pitch": 91,
                "velocity": 80,
                "duration": 0.05,
                "tempo": 120.0
            },
            {
                "start_time": 61.2840909,
                "end_time": 61.3340909,
                "pitch": 93,
                "velocity": 80,
                "duration": 0.05,
                "tempo": 120.0
            },
            {
                "start_time": 61.3340909,
                "end_time": 61.4022727,
                "pitch": 91,
                "velocity": 80,
                "duration": 0.0681818,
                "tempo": 120.0
            },
            {
                "start_time": 61.4022727,
                "end_time": 61.4863636,
                "pitch": 90,
                "velocity": 101,
                "duration": 0.0840909,
                "tempo": 120.0
            },
            {
                "start_time": 61.4863636,
                "end_time": 61.5704545,
                "pitch": 90,
                "velocity": 40,
                "duration": 0.0840909,
                "tempo": 120.0
            },
            {
                "start_time": 61.5704545,
                "end_time": 61.6522727,
                "pitch": 91,
                "velocity": 101,
                "duration": 0.0818182,
                "tempo": 120.0
            },
            {
                "start_time": 61.6545455,
                "end_time": 61.7386364,
                "pitch": 91,
                "velocity": 40,
                "duration": 0.0840909,
                "tempo": 120.0
            },
            {
                "start_time": 61.7386364,
                "end_time": 61.8204545,
                "pitch": 93,
                "velocity": 101,
                "duration": 0.0818182,
                "tempo": 120.0
            },
            {
                "start_time": 61.8204545,
                "end_time": 61.9045455,
                "pitch": 93,
                "velocity": 40,
                "duration": 0.0840909,
                "tempo": 120.0
            },
            {
                "start_time": 61.9045455,
                "end_time": 61.9886364,
                "pitch": 98,
                "velocity": 101,
                "duration": 0.0840909,
                "tempo": 120.0
            },
            {
                "start_time": 61.9886364,
                "end_time": 62.075,
                "pitch": 98,
                "velocity": 40,
                "duration": 0.0863636,
                "tempo": 120.0
            },
            {
                "start_time": 62.075,
                "end_time": 62.2409091,
                "pitch": 98,
                "velocity": 101,
                "duration": 0.1659091,
                "tempo": 120.0
            },
            {
                "start_time": 62.2409091,
                "end_time": 62.4090909,
                "pitch": 98,
                "velocity": 40,
                "duration": 0.1681818,
                "tempo": 120.0
            },
            {
                "start_time": 62.4090909,
                "end_time": 62.4931818,
                "pitch": 93,
                "velocity": 101,
                "duration": 0.0840909,
                "tempo": 120.0
            },
            {
                "start_time": 62.4931818,
                "end_time": 62.5772727,
                "pitch": 93,
                "velocity": 40,
                "duration": 0.0840909,
                "tempo": 120.0
            },
            {
                "start_time": 62.5772727,
                "end_time": 62.6613636,
                "pitch": 98,
                "velocity": 101,
                "duration": 0.0840909,
                "tempo": 120.0
            },
            {
                "start_time": 62.6613636,
                "end_time": 62.7454545,
                "pitch": 98,
                "velocity": 40,
                "duration": 0.0840909,
                "tempo": 120.0
            },
            {
                "start_time": 62.7454545,
                "end_time": 62.9113636,
                "pitch": 98,
                "velocity": 101,
                "duration": 0.1659091,
                "tempo": 120.0
            },
            {
                "start_time": 62.9136364,
                "end_time": 63.0818182,
                "pitch": 98,
                "velocity": 40,
                "duration": 0.1681818,
                "tempo": 120.0
            },
            {
                "start_time": 63.0818182,
                "end_time": 63.2454545,
                "pitch": 62,
                "velocity": 101,
                "duration": 0.1636364,
                "tempo": 120.0
            },
            {
                "start_time": 63.2477273,
                "end_time": 63.4136364,
                "pitch": 62,
                "velocity": 40,
                "duration": 0.1659091,
                "tempo": 120.0
            },
            {
                "start_time": 63.4136364,
                "end_time": 63.5795455,
                "pitch": 62,
                "velocity": 101,
                "duration": 0.1659091,
                "tempo": 120.0
            },
            {
                "start_time": 63.5795455,
                "end_time": 63.7454545,
                "pitch": 62,
                "velocity": 40,
                "duration": 0.1659091,
                "tempo": 120.0
            },
            {
                "start_time": 42.4136364,
                "end_time": 63.8454545,
                "pitch": 81,
                "velocity": 40,
                "duration": 21.4318182,
                "tempo": 120.0
            },
            {
                "start_time": 63.7454545,
                "end_time": 63.8454545,
                "pitch": 98,
                "velocity": 40,
                "duration": 0.1,
                "tempo": 120.0
            },
            {
                "start_time": 63.8454545,
                "end_time": 63.8795455,
                "pitch": 95,
                "velocity": 40,
                "duration": 0.0340909,
                "tempo": 120.0
            },
            {
                "start_time": 42.4477273,
                "end_time": 63.8795455,
                "pitch": 100,
                "velocity": 40,
                "duration": 21.4318182,
                "tempo": 120.0
            },
            {
                "start_time": 42.4818182,
                "end_time": 63.9113636,
                "pitch": 76,
                "velocity": 40,
                "duration": 21.4295455,
                "tempo": 120.0
            },
            {
                "start_time": 63.8795455,
                "end_time": 63.9113636,
                "pitch": 96,
                "velocity": 40,
                "duration": 0.0318182,
                "tempo": 120.0
            },
            {
                "start_time": 63.9113636,
                "end_time": 64.0454545,
                "pitch": 94,
                "velocity": 40,
                "duration": 0.1340909,
                "tempo": 120.0
            },
            {
                "start_time": 64.0454545,
                "end_time": 64.1818182,
                "pitch": 92,
                "velocity": 40,
                "duration": 0.1363636,
                "tempo": 120.0
            },
            {
                "start_time": 42.75,
                "end_time": 64.1818182,
                "pitch": 102,
                "velocity": 40,
                "duration": 21.4318182,
                "tempo": 120.0
            },
            {
                "start_time": 64.1818182,
                "end_time": 64.3477273,
                "pitch": 89,
                "velocity": 40,
                "duration": 0.1659091,
                "tempo": 120.0
            },
            {
                "start_time": 64.4181818,
                "end_time": 64.5,
                "pitch": 93,
                "velocity": 101,
                "duration": 0.0818182,
                "tempo": 120.0
            },
            {
                "start_time": 64.5,
                "end_time": 64.5840909,
                "pitch": 93,
                "velocity": 40,
                "duration": 0.0840909,
                "tempo": 120.0
            },
            {
                "start_time": 64.5840909,
                "end_time": 64.6681818,
                "pitch": 98,
                "velocity": 101,
                "duration": 0.0840909,
                "tempo": 120.0
            },
            {
                "start_time": 64.6681818,
                "end_time": 64.7522727,
                "pitch": 98,
                "velocity": 40,
                "duration": 0.0840909,
                "tempo": 120.0
            },
            {
                "start_time": 64.7522727,
                "end_time": 64.9204545,
                "pitch": 98,
                "velocity": 101,
                "duration": 0.1681818,
                "tempo": 120.0
            },
            {
                "start_time": 64.9204545,
                "end_time": 65.0886364,
                "pitch": 98,
                "velocity": 40,
                "duration": 0.1681818,
                "tempo": 120.0
            },
            {
                "start_time": 65.0886364,
                "end_time": 65.1704545,
                "pitch": 93,
                "velocity": 101,
                "duration": 0.0818182,
                "tempo": 120.0
            },
            {
                "start_time": 65.1704545,
                "end_time": 65.2545455,
                "pitch": 93,
                "velocity": 40,
                "duration": 0.0840909,
                "tempo": 120.0
            },
            {
                "start_time": 65.2545455,
                "end_time": 65.3363636,
                "pitch": 98,
                "velocity": 101,
                "duration": 0.0818182,
                "tempo": 120.0
            },
            {
                "start_time": 65.3363636,
                "end_time": 65.4204545,
                "pitch": 98,
                "velocity": 40,
                "duration": 0.0840909,
                "tempo": 120.0
            },
            {
                "start_time": 65.4204545,
                "end_time": 65.5863636,
                "pitch": 98,
                "velocity": 101,
                "duration": 0.1659091,
                "tempo": 120.0
            },
            {
                "start_time": 65.5863636,
                "end_time": 65.7522727,
                "pitch": 98,
                "velocity": 40,
                "duration": 0.1659091,
                "tempo": 120.0
            },
            {
                "start_time": 66.0886364,
                "end_time": 66.1704545,
                "pitch": 95,
                "velocity": 101,
                "duration": 0.0818182,
                "tempo": 120.0
            },
            {
                "start_time": 66.1727273,
                "end_time": 66.2568182,
                "pitch": 95,
                "velocity": 40,
                "duration": 0.0840909,
                "tempo": 120.0
            },
            {
                "start_time": 66.2568182,
                "end_time": 66.3386364,
                "pitch": 93,
                "velocity": 101,
                "duration": 0.0818182,
                "tempo": 120.0
            },
            {
                "start_time": 66.3386364,
                "end_time": 66.425,
                "pitch": 93,
                "velocity": 40,
                "duration": 0.0863636,
                "tempo": 120.0
            },
            {
                "start_time": 66.425,
                "end_time": 66.5068182,
                "pitch": 91,
                "velocity": 101,
                "duration": 0.0818182,
                "tempo": 120.0
            },
            {
                "start_time": 66.5068182,
                "end_time": 66.5909091,
                "pitch": 91,
                "velocity": 40,
                "duration": 0.0840909,
                "tempo": 120.0
            },
            {
                "start_time": 66.5909091,
                "end_time": 66.6409091,
                "pitch": 91,
                "velocity": 80,
                "duration": 0.05,
                "tempo": 120.0
            },
            {
                "start_time": 66.6409091,
                "end_time": 66.6909091,
                "pitch": 93,
                "velocity": 80,
                "duration": 0.05,
                "tempo": 120.0
            },
            {
                "start_time": 66.6909091,
                "end_time": 66.7590909,
                "pitch": 91,
                "velocity": 80,
                "duration": 0.0681818,
                "tempo": 120.0
            },
            {
                "start_time": 66.7613636,
                "end_time": 66.8431818,
                "pitch": 90,
                "velocity": 101,
                "duration": 0.0818182,
                "tempo": 120.0
            },
            {
                "start_time": 66.8431818,
                "end_time": 66.9272727,
                "pitch": 90,
                "velocity": 40,
                "duration": 0.0840909,
                "tempo": 120.0
            },
            {
                "start_time": 66.9295455,
                "end_time": 67.0113636,
                "pitch": 88,
                "velocity": 101,
                "duration": 0.0818182,
                "tempo": 120.0
            },
            {
                "start_time": 67.0113636,
                "end_time": 67.0977273,
                "pitch": 88,
                "velocity": 40,
                "duration": 0.0863636,
                "tempo": 120.0
            },
            {
                "start_time": 67.0977273,
                "end_time": 67.1795455,
                "pitch": 74,
                "velocity": 101,
                "duration": 0.0818182,
                "tempo": 120.0
            },
            {
                "start_time": 67.1795455,
                "end_time": 67.2636364,
                "pitch": 74,
                "velocity": 40,
                "duration": 0.0840909,
                "tempo": 120.0
            },
            {
                "start_time": 67.2636364,
                "end_time": 67.3477273,
                "pitch": 74,
                "velocity": 101,
                "duration": 0.0840909,
                "tempo": 120.0
            },
            {
                "start_time": 67.3477273,
                "end_time": 67.4318182,
                "pitch": 74,
                "velocity": 40,
                "duration": 0.0840909,
                "tempo": 120.0
            },
            {
                "start_time": 67.4318182,
                "end_time": 67.5977273,
                "pitch": 74,
                "velocity": 101,
                "duration": 0.1659091,
                "tempo": 120.0
            },
            {
                "start_time": 67.6,
                "end_time": 67.7681818,
                "pitch": 74,
                "velocity": 40,
                "duration": 0.1681818,
                "tempo": 120.0
            },
            {
                "start_time": 67.7681818,
                "end_time": 67.85,
                "pitch": 74,
                "velocity": 101,
                "duration": 0.0818182,
                "tempo": 120.0
            },
            {
                "start_time": 67.85,
                "end_time": 67.9340909,
                "pitch": 74,
                "velocity": 40,
                "duration": 0.0840909,
                "tempo": 120.0
            },
            {
                "start_time": 67.9340909,
                "end_time": 68.0181818,
                "pitch": 74,
                "velocity": 101,
                "duration": 0.0840909,
                "tempo": 120.0
            },
            {
                "start_time": 68.0181818,
                "end_time": 68.1045455,
                "pitch": 74,
                "velocity": 40,
                "duration": 0.0863636,
                "tempo": 120.0
            },
            {
                "start_time": 68.1045455,
                "end_time": 68.2704545,
                "pitch": 74,
                "velocity": 101,
                "duration": 0.1659091,
                "tempo": 120.0
            },
            {
                "start_time": 68.2704545,
                "end_time": 68.4409091,
                "pitch": 74,
                "velocity": 40,
                "duration": 0.1704545,
                "tempo": 120.0
            },
            {
                "start_time": 68.4409091,
                "end_time": 68.6045455,
                "pitch": 62,
                "velocity": 101,
                "duration": 0.1636364,
                "tempo": 120.0
            },
            {
                "start_time": 68.6045455,
                "end_time": 68.7704545,
                "pitch": 62,
                "velocity": 40,
                "duration": 0.1659091,
                "tempo": 120.0
            },
            {
                "start_time": 68.7727273,
                "end_time": 68.9363636,
                "pitch": 62,
                "velocity": 101,
                "duration": 0.1636364,
                "tempo": 120.0
            },
            {
                "start_time": 68.9363636,
                "end_time": 69.1022727,
                "pitch": 62,
                "velocity": 40,
                "duration": 0.1659091,
                "tempo": 120.0
            },
            {
                "start_time": 63.8454545,
                "end_time": 69.2022727,
                "pitch": 81,
                "velocity": 40,
                "duration": 5.3568182,
                "tempo": 120.0
            },
            {
                "start_time": 69.1022727,
                "end_time": 69.2022727,
                "pitch": 98,
                "velocity": 40,
                "duration": 0.1,
                "tempo": 120.0
            },
            {
                "start_time": 69.2022727,
                "end_time": 69.2363636,
                "pitch": 95,
                "velocity": 40,
                "duration": 0.0340909,
                "tempo": 120.0
            },
            {
                "start_time": 63.8795455,
                "end_time": 69.2363636,
                "pitch": 100,
                "velocity": 40,
                "duration": 5.3568182,
                "tempo": 120.0
            },
            {
                "start_time": 63.9113636,
                "end_time": 69.2704545,
                "pitch": 76,
                "velocity": 40,
                "duration": 5.3590909,
                "tempo": 120.0
            },
            {
                "start_time": 69.2363636,
                "end_time": 69.2704545,
                "pitch": 96,
                "velocity": 40,
                "duration": 0.0340909,
                "tempo": 120.0
            },
            {
                "start_time": 69.2704545,
                "end_time": 69.4045455,
                "pitch": 94,
                "velocity": 40,
                "duration": 0.1340909,
                "tempo": 120.0
            },
            {
                "start_time": 69.4045455,
                "end_time": 69.5386364,
                "pitch": 92,
                "velocity": 40,
                "duration": 0.1340909,
                "tempo": 120.0
            },
            {
                "start_time": 64.1818182,
                "end_time": 69.5386364,
                "pitch": 102,
                "velocity": 40,
                "duration": 5.3568182,
                "tempo": 120.0
            },
            {
                "start_time": 69.5386364,
                "end_time": 69.7068182,
                "pitch": 89,
                "velocity": 40,
                "duration": 0.1681818,
                "tempo": 120.0
            },
            {
                "start_time": 70.1113636,
                "end_time": 70.2772727,
                "pitch": 97,
                "velocity": 101,
                "duration": 0.1659091,
                "tempo": 120.0
            },
            {
                "start_time": 70.7840909,
                "end_time": 70.95,
                "pitch": 97,
                "velocity": 101,
                "duration": 0.1659091,
                "tempo": 120.0
            },
            {
                "start_time": 71.4522727,
                "end_time": 71.6159091,
                "pitch": 97,
                "velocity": 101,
                "duration": 0.1636364,
                "tempo": 120.0
            },
            {
                "start_time": 72.1181818,
                "end_time": 72.2840909,
                "pitch": 97,
                "velocity": 101,
                "duration": 0.1659091,
                "tempo": 120.0
            },
            {
                "start_time": 72.7909091,
                "end_time": 72.9568182,
                "pitch": 97,
                "velocity": 101,
                "duration": 0.1659091,
                "tempo": 120.0
            },
            {
                "start_time": 73.4613636,
                "end_time": 73.6272727,
                "pitch": 97,
                "velocity": 101,
                "duration": 0.1659091,
                "tempo": 120.0
            },
            {
                "start_time": 73.8,
                "end_time": 73.9613636,
                "pitch": 85,
                "velocity": 101,
                "duration": 0.1613636,
                "tempo": 120.0
            },
            {
                "start_time": 74.1295455,
                "end_time": 74.2931818,
                "pitch": 97,
                "velocity": 101,
                "duration": 0.1636364,
                "tempo": 120.0
            },
            {
                "start_time": 75.4704545,
                "end_time": 75.6363636,
                "pitch": 97,
                "velocity": 101,
                "duration": 0.1659091,
                "tempo": 120.0
            },
            {
                "start_time": 76.1409091,
                "end_time": 76.3068182,
                "pitch": 97,
                "velocity": 101,
                "duration": 0.1659091,
                "tempo": 120.0
            },
            {
                "start_time": 76.8090909,
                "end_time": 76.9727273,
                "pitch": 97,
                "velocity": 101,
                "duration": 0.1636364,
                "tempo": 120.0
            },
            {
                "start_time": 77.4772727,
                "end_time": 77.6431818,
                "pitch": 97,
                "velocity": 101,
                "duration": 0.1659091,
                "tempo": 120.0
            },
            {
                "start_time": 78.1477273,
                "end_time": 78.3136364,
                "pitch": 97,
                "velocity": 101,
                "duration": 0.1659091,
                "tempo": 120.0
            },
            {
                "start_time": 78.8181818,
                "end_time": 78.9863636,
                "pitch": 97,
                "velocity": 101,
                "duration": 0.1681818,
                "tempo": 120.0
            },
            {
                "start_time": 79.4863636,
                "end_time": 79.6522727,
                "pitch": 97,
                "velocity": 101,
                "duration": 0.1659091,
                "tempo": 120.0
            },
            {
                "start_time": 80.1545455,
                "end_time": 80.3204545,
                "pitch": 97,
                "velocity": 101,
                "duration": 0.1659091,
                "tempo": 120.0
            },
            {
                "start_time": 83.1704545,
                "end_time": 83.2522727,
                "pitch": 93,
                "velocity": 101,
                "duration": 0.0818182,
                "tempo": 120.0
            },
            {
                "start_time": 83.2545455,
                "end_time": 83.3386364,
                "pitch": 93,
                "velocity": 40,
                "duration": 0.0840909,
                "tempo": 120.0
            },
            {
                "start_time": 83.3386364,
                "end_time": 83.4227273,
                "pitch": 98,
                "velocity": 101,
                "duration": 0.0840909,
                "tempo": 120.0
            },
            {
                "start_time": 83.4227273,
                "end_time": 83.5090909,
                "pitch": 98,
                "velocity": 40,
                "duration": 0.0863636,
                "tempo": 120.0
            },
            {
                "start_time": 83.5090909,
                "end_time": 83.6772727,
                "pitch": 98,
                "velocity": 101,
                "duration": 0.1681818,
                "tempo": 120.0
            },
            {
                "start_time": 83.6772727,
                "end_time": 83.8477273,
                "pitch": 98,
                "velocity": 40,
                "duration": 0.1704545,
                "tempo": 120.0
            },
            {
                "start_time": 83.85,
                "end_time": 83.9318182,
                "pitch": 93,
                "velocity": 101,
                "duration": 0.0818182,
                "tempo": 120.0
            },
            {
                "start_time": 83.9318182,
                "end_time": 84.0136364,
                "pitch": 93,
                "velocity": 40,
                "duration": 0.0818182,
                "tempo": 120.0
            },
            {
                "start_time": 84.0136364,
                "end_time": 84.0977273,
                "pitch": 98,
                "velocity": 101,
                "duration": 0.0840909,
                "tempo": 120.0
            },
            {
                "start_time": 84.0977273,
                "end_time": 84.1818182,
                "pitch": 98,
                "velocity": 40,
                "duration": 0.0840909,
                "tempo": 120.0
            },
            {
                "start_time": 84.1818182,
                "end_time": 84.3454545,
                "pitch": 98,
                "velocity": 101,
                "duration": 0.1636364,
                "tempo": 120.0
            },
            {
                "start_time": 84.3454545,
                "end_time": 84.5136364,
                "pitch": 98,
                "velocity": 40,
                "duration": 0.1681818,
                "tempo": 120.0
            },
            {
                "start_time": 85.85,
                "end_time": 85.9318182,
                "pitch": 93,
                "velocity": 101,
                "duration": 0.0818182,
                "tempo": 120.0
            },
            {
                "start_time": 85.9318182,
                "end_time": 86.0181818,
                "pitch": 93,
                "velocity": 40,
                "duration": 0.0863636,
                "tempo": 120.0
            },
            {
                "start_time": 86.0181818,
                "end_time": 86.1022727,
                "pitch": 98,
                "velocity": 101,
                "duration": 0.0840909,
                "tempo": 120.0
            },
            {
                "start_time": 86.1022727,
                "end_time": 86.1886364,
                "pitch": 98,
                "velocity": 40,
                "duration": 0.0863636,
                "tempo": 120.0
            },
            {
                "start_time": 86.1886364,
                "end_time": 86.3568182,
                "pitch": 98,
                "velocity": 101,
                "duration": 0.1681818,
                "tempo": 120.0
            },
            {
                "start_time": 86.3568182,
                "end_time": 86.5272727,
                "pitch": 98,
                "velocity": 40,
                "duration": 0.1704545,
                "tempo": 120.0
            },
            {
                "start_time": 86.5272727,
                "end_time": 86.6090909,
                "pitch": 93,
                "velocity": 101,
                "duration": 0.0818182,
                "tempo": 120.0
            },
            {
                "start_time": 86.6090909,
                "end_time": 86.6931818,
                "pitch": 93,
                "velocity": 40,
                "duration": 0.0840909,
                "tempo": 120.0
            },
            {
                "start_time": 86.6931818,
                "end_time": 86.775,
                "pitch": 98,
                "velocity": 101,
                "duration": 0.0818182,
                "tempo": 120.0
            },
            {
                "start_time": 86.775,
                "end_time": 86.8590909,
                "pitch": 98,
                "velocity": 40,
                "duration": 0.0840909,
                "tempo": 120.0
            },
            {
                "start_time": 86.8590909,
                "end_time": 87.025,
                "pitch": 98,
                "velocity": 101,
                "duration": 0.1659091,
                "tempo": 120.0
            },
            {
                "start_time": 87.025,
                "end_time": 87.1909091,
                "pitch": 98,
                "velocity": 40,
                "duration": 0.1659091,
                "tempo": 120.0
            },
            {
                "start_time": 87.525,
                "end_time": 87.6068182,
                "pitch": 95,
                "velocity": 101,
                "duration": 0.0818182,
                "tempo": 120.0
            },
            {
                "start_time": 87.6068182,
                "end_time": 87.6886364,
                "pitch": 95,
                "velocity": 40,
                "duration": 0.0818182,
                "tempo": 120.0
            },
            {
                "start_time": 87.6909091,
                "end_time": 87.7727273,
                "pitch": 93,
                "velocity": 101,
                "duration": 0.0818182,
                "tempo": 120.0
            },
            {
                "start_time": 87.7727273,
                "end_time": 87.8568182,
                "pitch": 93,
                "velocity": 40,
                "duration": 0.0840909,
                "tempo": 120.0
            },
            {
                "start_time": 87.8568182,
                "end_time": 87.9386364,
                "pitch": 91,
                "velocity": 101,
                "duration": 0.0818182,
                "tempo": 120.0
            },
            {
                "start_time": 87.9386364,
                "end_time": 88.0227273,
                "pitch": 91,
                "velocity": 40,
                "duration": 0.0840909,
                "tempo": 120.0
            },
            {
                "start_time": 88.0227273,
                "end_time": 88.0727273,
                "pitch": 91,
                "velocity": 80,
                "duration": 0.05,
                "tempo": 120.0
            },
            {
                "start_time": 88.0727273,
                "end_time": 88.1227273,
                "pitch": 93,
                "velocity": 80,
                "duration": 0.05,
                "tempo": 120.0
            },
            {
                "start_time": 88.1227273,
                "end_time": 88.1931818,
                "pitch": 91,
                "velocity": 80,
                "duration": 0.0704545,
                "tempo": 120.0
            },
            {
                "start_time": 88.1931818,
                "end_time": 88.275,
                "pitch": 90,
                "velocity": 101,
                "duration": 0.0818182,
                "tempo": 120.0
            },
            {
                "start_time": 88.275,
                "end_time": 88.3590909,
                "pitch": 90,
                "velocity": 40,
                "duration": 0.0840909,
                "tempo": 120.0
            },
            {
                "start_time": 88.3590909,
                "end_time": 88.4431818,
                "pitch": 91,
                "velocity": 101,
                "duration": 0.0840909,
                "tempo": 120.0
            },
            {
                "start_time": 88.4431818,
                "end_time": 88.5295455,
                "pitch": 91,
                "velocity": 40,
                "duration": 0.0863636,
                "tempo": 120.0
            },
            {
                "start_time": 88.5295455,
                "end_time": 88.6113636,
                "pitch": 93,
                "velocity": 101,
                "duration": 0.0818182,
                "tempo": 120.0
            },
            {
                "start_time": 88.6113636,
                "end_time": 88.6954545,
                "pitch": 93,
                "velocity": 40,
                "duration": 0.0840909,
                "tempo": 120.0
            },
            {
                "start_time": 88.6977273,
                "end_time": 88.7818182,
                "pitch": 98,
                "velocity": 101,
                "duration": 0.0840909,
                "tempo": 120.0
            },
            {
                "start_time": 88.7818182,
                "end_time": 88.8659091,
                "pitch": 98,
                "velocity": 40,
                "duration": 0.0840909,
                "tempo": 120.0
            },
            {
                "start_time": 88.8681818,
                "end_time": 89.0363636,
                "pitch": 98,
                "velocity": 101,
                "duration": 0.1681818,
                "tempo": 120.0
            },
            {
                "start_time": 89.0363636,
                "end_time": 89.2068182,
                "pitch": 98,
                "velocity": 40,
                "duration": 0.1704545,
                "tempo": 120.0
            },
            {
                "start_time": 89.2068182,
                "end_time": 89.2886364,
                "pitch": 93,
                "velocity": 101,
                "duration": 0.0818182,
                "tempo": 120.0
            },
            {
                "start_time": 89.2886364,
                "end_time": 89.3727273,
                "pitch": 93,
                "velocity": 40,
                "duration": 0.0840909,
                "tempo": 120.0
            },
            {
                "start_time": 89.3727273,
                "end_time": 89.4545455,
                "pitch": 98,
                "velocity": 101,
                "duration": 0.0818182,
                "tempo": 120.0
            },
            {
                "start_time": 89.4545455,
                "end_time": 89.5386364,
                "pitch": 98,
                "velocity": 40,
                "duration": 0.0840909,
                "tempo": 120.0
            },
            {
                "start_time": 89.5386364,
                "end_time": 89.7045455,
                "pitch": 98,
                "velocity": 101,
                "duration": 0.1659091,
                "tempo": 120.0
            },
            {
                "start_time": 89.7045455,
                "end_time": 89.8704545,
                "pitch": 98,
                "velocity": 40,
                "duration": 0.1659091,
                "tempo": 120.0
            },
            {
                "start_time": 89.8727273,
                "end_time": 90.0363636,
                "pitch": 62,
                "velocity": 101,
                "duration": 0.1636364,
                "tempo": 120.0
            },
            {
                "start_time": 90.0363636,
                "end_time": 90.2022727,
                "pitch": 62,
                "velocity": 40,
                "duration": 0.1659091,
                "tempo": 120.0
            },
            {
                "start_time": 90.2022727,
                "end_time": 90.3681818,
                "pitch": 62,
                "velocity": 101,
                "duration": 0.1659091,
                "tempo": 120.0
            },
            {
                "start_time": 90.3681818,
                "end_time": 90.5340909,
                "pitch": 62,
                "velocity": 40,
                "duration": 0.1659091,
                "tempo": 120.0
            },
            {
                "start_time": 69.2022727,
                "end_time": 90.6340909,
                "pitch": 81,
                "velocity": 40,
                "duration": 21.4318182,
                "tempo": 120.0
            },
            {
                "start_time": 90.5340909,
                "end_time": 90.6340909,
                "pitch": 98,
                "velocity": 40,
                "duration": 0.1,
                "tempo": 120.0
            },
            {
                "start_time": 90.6340909,
                "end_time": 90.6681818,
                "pitch": 95,
                "velocity": 40,
                "duration": 0.0340909,
                "tempo": 120.0
            },
            {
                "start_time": 69.2363636,
                "end_time": 90.6681818,
                "pitch": 100,
                "velocity": 40,
                "duration": 21.4318182,
                "tempo": 120.0
            },
            {
                "start_time": 69.2704545,
                "end_time": 90.7022727,
                "pitch": 76,
                "velocity": 40,
                "duration": 21.4318182,
                "tempo": 120.0
            },
            {
                "start_time": 90.6681818,
                "end_time": 90.7022727,
                "pitch": 96,
                "velocity": 40,
                "duration": 0.0340909,
                "tempo": 120.0
            },
            {
                "start_time": 90.7022727,
                "end_time": 90.8363636,
                "pitch": 94,
                "velocity": 40,
                "duration": 0.1340909,
                "tempo": 120.0
            },
            {
                "start_time": 90.8363636,
                "end_time": 90.9704545,
                "pitch": 92,
                "velocity": 40,
                "duration": 0.1340909,
                "tempo": 120.0
            },
            {
                "start_time": 69.5386364,
                "end_time": 90.9704545,
                "pitch": 102,
                "velocity": 40,
                "duration": 21.4318182,
                "tempo": 120.0
            },
            {
                "start_time": 90.9704545,
                "end_time": 91.1386364,
                "pitch": 89,
                "velocity": 40,
                "duration": 0.1681818,
                "tempo": 120.0
            },
            {
                "start_time": 91.2068182,
                "end_time": 91.2909091,
                "pitch": 93,
                "velocity": 101,
                "duration": 0.0840909,
                "tempo": 120.0
            },
            {
                "start_time": 91.2909091,
                "end_time": 91.375,
                "pitch": 93,
                "velocity": 40,
                "duration": 0.0840909,
                "tempo": 120.0
            },
            {
                "start_time": 91.375,
                "end_time": 91.4590909,
                "pitch": 98,
                "velocity": 101,
                "duration": 0.0840909,
                "tempo": 120.0
            },
            {
                "start_time": 91.4613636,
                "end_time": 91.5454545,
                "pitch": 98,
                "velocity": 40,
                "duration": 0.0840909,
                "tempo": 120.0
            },
            {
                "start_time": 91.5454545,
                "end_time": 91.7159091,
                "pitch": 98,
                "velocity": 101,
                "duration": 0.1704545,
                "tempo": 120.0
            },
            {
                "start_time": 91.7159091,
                "end_time": 91.8863636,
                "pitch": 98,
                "velocity": 40,
                "duration": 0.1704545,
                "tempo": 120.0
            },
            {
                "start_time": 91.8863636,
                "end_time": 91.9681818,
                "pitch": 93,
                "velocity": 101,
                "duration": 0.0818182,
                "tempo": 120.0
            },
            {
                "start_time": 91.9681818,
                "end_time": 92.05,
                "pitch": 93,
                "velocity": 40,
                "duration": 0.0818182,
                "tempo": 120.0
            },
            {
                "start_time": 92.0522727,
                "end_time": 92.1340909,
                "pitch": 98,
                "velocity": 101,
                "duration": 0.0818182,
                "tempo": 120.0
            },
            {
                "start_time": 92.1340909,
                "end_time": 92.2181818,
                "pitch": 98,
                "velocity": 40,
                "duration": 0.0840909,
                "tempo": 120.0
            },
            {
                "start_time": 92.2181818,
                "end_time": 92.3840909,
                "pitch": 98,
                "velocity": 101,
                "duration": 0.1659091,
                "tempo": 120.0
            },
            {
                "start_time": 92.3840909,
                "end_time": 92.55,
                "pitch": 98,
                "velocity": 40,
                "duration": 0.1659091,
                "tempo": 120.0
            },
            {
                "start_time": 92.8840909,
                "end_time": 92.9636364,
                "pitch": 95,
                "velocity": 101,
                "duration": 0.0795455,
                "tempo": 120.0
            },
            {
                "start_time": 92.9636364,
                "end_time": 93.0477273,
                "pitch": 95,
                "velocity": 40,
                "duration": 0.0840909,
                "tempo": 120.0
            },
            {
                "start_time": 93.0477273,
                "end_time": 93.1295455,
                "pitch": 93,
                "velocity": 101,
                "duration": 0.0818182,
                "tempo": 120.0
            },
            {
                "start_time": 93.1295455,
                "end_time": 93.2136364,
                "pitch": 93,
                "velocity": 40,
                "duration": 0.0840909,
                "tempo": 120.0
            },
            {
                "start_time": 93.2136364,
                "end_time": 93.2977273,
                "pitch": 91,
                "velocity": 101,
                "duration": 0.0840909,
                "tempo": 120.0
            },
            {
                "start_time": 93.2977273,
                "end_time": 93.3818182,
                "pitch": 91,
                "velocity": 40,
                "duration": 0.0840909,
                "tempo": 120.0
            },
            {
                "start_time": 93.3818182,
                "end_time": 93.4318182,
                "pitch": 91,
                "velocity": 80,
                "duration": 0.05,
                "tempo": 120.0
            },
            {
                "start_time": 93.4318182,
                "end_time": 93.4818182,
                "pitch": 93,
                "velocity": 80,
                "duration": 0.05,
                "tempo": 120.0
            },
            {
                "start_time": 93.4818182,
                "end_time": 93.55,
                "pitch": 91,
                "velocity": 80,
                "duration": 0.0681818,
                "tempo": 120.0
            },
            {
                "start_time": 93.55,
                "end_time": 93.6318182,
                "pitch": 90,
                "velocity": 101,
                "duration": 0.0818182,
                "tempo": 120.0
            },
            {
                "start_time": 93.6340909,
                "end_time": 93.7181818,
                "pitch": 90,
                "velocity": 40,
                "duration": 0.0840909,
                "tempo": 120.0
            },
            {
                "start_time": 93.7181818,
                "end_time": 93.8,
                "pitch": 88,
                "velocity": 101,
                "duration": 0.0818182,
                "tempo": 120.0
            },
            {
                "start_time": 93.8,
                "end_time": 93.8863636,
                "pitch": 88,
                "velocity": 40,
                "duration": 0.0863636,
                "tempo": 120.0
            },
            {
                "start_time": 93.8863636,
                "end_time": 93.9704545,
                "pitch": 74,
                "velocity": 101,
                "duration": 0.0840909,
                "tempo": 120.0
            },
            {
                "start_time": 93.9704545,
                "end_time": 94.0545455,
                "pitch": 74,
                "velocity": 40,
                "duration": 0.0840909,
                "tempo": 120.0
            },
            {
                "start_time": 94.0545455,
                "end_time": 94.1386364,
                "pitch": 74,
                "velocity": 101,
                "duration": 0.0840909,
                "tempo": 120.0
            },
            {
                "start_time": 94.1386364,
                "end_time": 94.225,
                "pitch": 74,
                "velocity": 40,
                "duration": 0.0863636,
                "tempo": 120.0
            },
            {
                "start_time": 94.225,
                "end_time": 94.3931818,
                "pitch": 74,
                "velocity": 101,
                "duration": 0.1681818,
                "tempo": 120.0
            },
            {
                "start_time": 94.3954545,
                "end_time": 94.5636364,
                "pitch": 74,
                "velocity": 40,
                "duration": 0.1681818,
                "tempo": 120.0
            },
            {
                "start_time": 94.5659091,
                "end_time": 94.6477273,
                "pitch": 74,
                "velocity": 101,
                "duration": 0.0818182,
                "tempo": 120.0
            },
            {
                "start_time": 94.6477273,
                "end_time": 94.7295455,
                "pitch": 74,
                "velocity": 40,
                "duration": 0.0818182,
                "tempo": 120.0
            },
            {
                "start_time": 94.7295455,
                "end_time": 94.8136364,
                "pitch": 74,
                "velocity": 101,
                "duration": 0.0840909,
                "tempo": 120.0
            },
            {
                "start_time": 94.8136364,
                "end_time": 94.8977273,
                "pitch": 74,
                "velocity": 40,
                "duration": 0.0840909,
                "tempo": 120.0
            },
            {
                "start_time": 94.8977273,
                "end_time": 95.0613636,
                "pitch": 74,
                "velocity": 101,
                "duration": 0.1636364,
                "tempo": 120.0
            },
            {
                "start_time": 95.0613636,
                "end_time": 95.2295455,
                "pitch": 74,
                "velocity": 40,
                "duration": 0.1681818,
                "tempo": 120.0
            },
            {
                "start_time": 95.2295455,
                "end_time": 95.3931818,
                "pitch": 62,
                "velocity": 101,
                "duration": 0.1636364,
                "tempo": 120.0
            },
            {
                "start_time": 95.3954545,
                "end_time": 95.5613636,
                "pitch": 62,
                "velocity": 40,
                "duration": 0.1659091,
                "tempo": 120.0
            },
            {
                "start_time": 95.5613636,
                "end_time": 95.7272727,
                "pitch": 62,
                "velocity": 101,
                "duration": 0.1659091,
                "tempo": 120.0
            },
            {
                "start_time": 95.7272727,
                "end_time": 95.8931818,
                "pitch": 62,
                "velocity": 40,
                "duration": 0.1659091,
                "tempo": 120.0
            },
            {
                "start_time": 90.6340909,
                "end_time": 95.9931818,
                "pitch": 81,
                "velocity": 40,
                "duration": 5.3590909,
                "tempo": 120.0
            },
            {
                "start_time": 95.8931818,
                "end_time": 95.9931818,
                "pitch": 98,
                "velocity": 40,
                "duration": 0.1,
                "tempo": 120.0
            },
            {
                "start_time": 95.9931818,
                "end_time": 96.0272727,
                "pitch": 95,
                "velocity": 40,
                "duration": 0.0340909,
                "tempo": 120.0
            },
            {
                "start_time": 90.6681818,
                "end_time": 96.0272727,
                "pitch": 100,
                "velocity": 40,
                "duration": 5.3590909,
                "tempo": 120.0
            },
            {
                "start_time": 90.7022727,
                "end_time": 96.0590909,
                "pitch": 76,
                "velocity": 40,
                "duration": 5.3568182,
                "tempo": 120.0
            },
            {
                "start_time": 96.0272727,
                "end_time": 96.0590909,
                "pitch": 96,
                "velocity": 40,
                "duration": 0.0318182,
                "tempo": 120.0
            },
            {
                "start_time": 96.0590909,
                "end_time": 96.1931818,
                "pitch": 94,
                "velocity": 40,
                "duration": 0.1340909,
                "tempo": 120.0
            },
            {
                "start_time": 96.1931818,
                "end_time": 96.3295455,
                "pitch": 92,
                "velocity": 40,
                "duration": 0.1363636,
                "tempo": 120.0
            },
            {
                "start_time": 90.9704545,
                "end_time": 96.3295455,
                "pitch": 102,
                "velocity": 40,
                "duration": 5.3590909,
                "tempo": 120.0
            },
            {
                "start_time": 96.3295455,
                "end_time": 96.4954545,
                "pitch": 89,
                "velocity": 40,
                "duration": 0.1659091,
                "tempo": 120.0
            },
            {
                "start_time": 96.9045455,
                "end_time": 97.0727273,
                "pitch": 97,
                "velocity": 101,
                "duration": 0.1681818,
                "tempo": 120.0
            },
            {
                "start_time": 97.5772727,
                "end_time": 97.7409091,
                "pitch": 97,
                "velocity": 101,
                "duration": 0.1636364,
                "tempo": 120.0
            },
            {
                "start_time": 98.2409091,
                "end_time": 98.4045455,
                "pitch": 97,
                "velocity": 101,
                "duration": 0.1636364,
                "tempo": 120.0
            },
            {
                "start_time": 98.9090909,
                "end_time": 99.075,
                "pitch": 97,
                "velocity": 101,
                "duration": 0.1659091,
                "tempo": 120.0
            },
            {
                "start_time": 99.5818182,
                "end_time": 99.7477273,
                "pitch": 97,
                "velocity": 101,
                "duration": 0.1659091,
                "tempo": 120.0
            },
            {
                "start_time": 100.2522727,
                "end_time": 100.4181818,
                "pitch": 97,
                "velocity": 101,
                "duration": 0.1659091,
                "tempo": 120.0
            },
            {
                "start_time": 100.5886364,
                "end_time": 100.7522727,
                "pitch": 85,
                "velocity": 101,
                "duration": 0.1636364,
                "tempo": 120.0
            },
            {
                "start_time": 100.9204545,
                "end_time": 101.0840909,
                "pitch": 97,
                "velocity": 101,
                "duration": 0.1636364,
                "tempo": 120.0
            },
            {
                "start_time": 102.2590909,
                "end_time": 102.425,
                "pitch": 97,
                "velocity": 101,
                "duration": 0.1659091,
                "tempo": 120.0
            },
            {
                "start_time": 102.9318182,
                "end_time": 103.0977273,
                "pitch": 97,
                "velocity": 101,
                "duration": 0.1659091,
                "tempo": 120.0
            },
            {
                "start_time": 103.5977273,
                "end_time": 103.7636364,
                "pitch": 97,
                "velocity": 101,
                "duration": 0.1659091,
                "tempo": 120.0
            },
            {
                "start_time": 104.2659091,
                "end_time": 104.4340909,
                "pitch": 97,
                "velocity": 101,
                "duration": 0.1681818,
                "tempo": 120.0
            },
            {
                "start_time": 104.9386364,
                "end_time": 105.1045455,
                "pitch": 97,
                "velocity": 101,
                "duration": 0.1659091,
                "tempo": 120.0
            },
            {
                "start_time": 105.6090909,
                "end_time": 105.775,
                "pitch": 97,
                "velocity": 101,
                "duration": 0.1659091,
                "tempo": 120.0
            },
            {
                "start_time": 106.2772727,
                "end_time": 106.4409091,
                "pitch": 97,
                "velocity": 101,
                "duration": 0.1636364,
                "tempo": 120.0
            },
            {
                "start_time": 106.9454545,
                "end_time": 107.1113636,
                "pitch": 97,
                "velocity": 101,
                "duration": 0.1659091,
                "tempo": 120.0
            }
        ]
    }
}