{
    "mood": "relaxed",
    "instruments": {
        "Acoustic Grand Piano": [
            {
                "start_time": 0.0045455,
                "end_time": 1.2704545,
                "pitch": 50,
                "velocity": 40,
                "duration": 1.2659091,
                "tempo": 120.0
            },
            {
                "start_time": 1.2704545,
                "end_time": 1.4045455,
                "pitch": 50,
                "velocity": 40,
                "duration": 0.1340909,
                "tempo": 120.0
            },
            {
                "start_time": 1.6727273,
                "end_time": 2.0795455,
                "pitch": 50,
                "velocity": 40,
                "duration": 0.4068182,
                "tempo": 120.0
            },
            {
                "start_time": 2.0795455,
                "end_time": 3.4295455,
                "pitch": 50,
                "velocity": 40,
                "duration": 1.35,
                "tempo": 120.0
            },
            {
                "start_time": 3.4318182,
                "end_time": 3.5613636,
                "pitch": 50,
                "velocity": 40,
                "duration": 0.1295455,
                "tempo": 120.0
            },
            {
                "start_time": 3.825,
                "end_time": 4.2295455,
                "pitch": 50,
                "velocity": 40,
                "duration": 0.4045455,
                "tempo": 120.0
            },
            {
                "start_time": 4.2295455,
                "end_time": 5.5909091,
                "pitch": 52,
                "velocity": 40,
                "duration": 1.3613636,
                "tempo": 120.0
            },
            {
                "start_time": 5.5909091,
                "end_time": 5.7204545,
                "pitch": 52,
                "velocity": 40,
                "duration": 0.1295455,
                "tempo": 120.0
            },
            {
                "start_time": 6.1181818,
                "end_time": 7.7409091,
                "pitch": 52,
                "velocity": 40,
                "duration": 1.6227273,
                "tempo": 120.0
            },
            {
                "start_time": 7.7409091,
                "end_time": 7.875,
                "pitch": 51,
                "velocity": 40,
                "duration": 0.1340909,
                "tempo": 120.0
            },
            {
                "start_time": 8.0090909,
                "end_time": 8.2772727,
                "pitch": 51,
                "velocity": 40,
                "duration": 0.2681818,
                "tempo": 120.0
            },
            {
                "start_time": 8.2772727,
                "end_time": 9.3659091,
                "pitch": 53,
                "velocity": 40,
                "duration": 1.0886364,
                "tempo": 120.0
            },
            {
                "start_time": 8.2772727,
                "end_time": 9.9022727,
                "pitch": 51,
                "velocity": 40,
                "duration": 1.625,
                "tempo": 120.0
            },
            {
                "start_time": 9.3659091,
                "end_time": 9.9022727,
                "pitch": 51,
                "velocity": 40,
                "duration": 0.5363636,
                "tempo": 120.0
            },
            {
                "start_time": 11.5272727,
                "end_time": 12.05,
                "pitch": 48,
                "velocity": 40,
                "duration": 0.5227273,
                "tempo": 120.0
            },
            {
                "start_time": 4.2295455,
                "end_time": 12.325,
                "pitch": 50,
                "velocity": 40,
                "duration": 8.0954545,
                "tempo": 120.0
            },
            {
                "start_time": 12.0522727,
                "end_time": 12.325,
                "pitch": 50,
                "velocity": 40,
                "duration": 0.2727273,
                "tempo": 120.0
            },
            {
                "start_time": 9.3659091,
                "end_time": 12.5954545,
                "pitch": 53,
                "velocity": 40,
                "duration": 3.2295455,
                "tempo": 120.0
            },
            {
                "start_time": 12.325,
                "end_time": 12.5954545,
                "pitch": 53,
                "velocity": 40,
                "duration": 0.2704545,
                "tempo": 120.0
            },
            {
                "start_time": 12.325,
                "end_time": 14.7795455,
                "pitch": 50,
                "velocity": 40,
                "duration": 2.4545455,
                "tempo": 120.0
            },
            {
                "start_time": 12.5954545,
                "end_time": 14.7795455,
                "pitch": 50,
                "velocity": 40,
                "duration": 2.1840909,
                "tempo": 120.0
            },
            {
                "start_time": 0.0045455,
                "end_time": 85.7,
                "pitch": 0,
                "velocity": 40,
                "duration": 85.6954545,
                "tempo": 120.0
            },
            {
                "start_time": 85.7,
                "end_time": 86.1863636,
                "pitch": 50,
                "velocity": 40,
                "duration": 0.4863636,
                "tempo": 120.0
            }
        ],
        "Flute": [
            {
                "start_time": 9.9022727,
                "end_time": 10.4340909,
                "pitch": 75,
                "velocity": 40,
                "duration": 0.5318182,
                "tempo": 120.0
            },
            {
                "start_time": 10.4363636,
                "end_time": 10.9795455,
                "pitch": 79,
                "velocity": 40,
                "duration": 0.5431818,
                "tempo": 120.0
            },
            {
                "start_time": 23.3954545,
                "end_time": 23.75,
                "pitch": 66,
                "velocity": 64,
                "duration": 0.3545455,
                "tempo": 120.0
            },
            {
                "start_time": 23.9386364,
                "end_time": 24.1545455,
                "pitch": 66,
                "velocity": 64,
                "duration": 0.2159091,
                "tempo": 120.0
            },
            {
                "start_time": 24.2068182,
                "end_time": 25.5022727,
                "pitch": 63,
                "velocity": 64,
                "duration": 1.2954545,
                "tempo": 120.0
            },
            {
                "start_time": 30.6772727,
                "end_time": 31.1590909,
                "pitch": 72,
                "velocity": 64,
                "duration": 0.4818182,
                "tempo": 120.0
            },
            {
                "start_time": 31.2113636,
                "end_time": 31.4272727,
                "pitch": 71,
                "velocity": 64,
                "duration": 0.2159091,
                "tempo": 120.0
            },
            {
                "start_time": 24.2068182,
                "end_time": 31.6977273,
                "pitch": 66,
                "velocity": 64,
                "duration": 7.4909091,
                "tempo": 120.0
            },
            {
                "start_time": 31.4795455,
                "end_time": 31.6977273,
                "pitch": 66,
                "velocity": 64,
                "duration": 0.2181818,
                "tempo": 120.0
            },
            {
                "start_time": 31.7522727,
                "end_time": 34.1227273,
                "pitch": 67,
                "velocity": 64,
                "duration": 2.3704545,
                "tempo": 120.0
            },
            {
                "start_time": 41.1886364,
                "end_time": 41.4045455,
                "pitch": 66,
                "velocity": 64,
                "duration": 0.2159091,
                "tempo": 120.0
            },
            {
                "start_time": 41.4568182,
                "end_time": 42.75,
                "pitch": 63,
                "velocity": 64,
                "duration": 1.2931818,
                "tempo": 120.0
            },
            {
                "start_time": 44.3090909,
                "end_time": 44.4840909,
                "pitch": 63,
                "velocity": 64,
                "duration": 0.175,
                "tempo": 120.0
            },
            {
                "start_time": 44.525,
                "end_time": 44.9545455,
                "pitch": 64,
                "velocity": 64,
                "duration": 0.4295455,
                "tempo": 120.0
            },
            {
                "start_time": 45.0,
                "end_time": 45.2159091,
                "pitch": 63,
                "velocity": 64,
                "duration": 0.2159091,
                "tempo": 120.0
            },
            {
                "start_time": 31.7522727,
                "end_time": 45.2681818,
                "pitch": 78,
                "velocity": 64,
                "duration": 13.5159091,
                "tempo": 120.0
            },
            {
                "start_time": 45.2681818,
                "end_time": 45.4818182,
                "pitch": 67,
                "velocity": 64,
                "duration": 0.2136364,
                "tempo": 120.0
            },
            {
                "start_time": 45.5363636,
                "end_time": 46.0181818,
                "pitch": 67,
                "velocity": 64,
                "duration": 0.4818182,
                "tempo": 120.0
            },
            {
                "start_time": 46.0704545,
                "end_time": 46.2886364,
                "pitch": 69,
                "velocity": 64,
                "duration": 0.2181818,
                "tempo": 120.0
            },
            {
                "start_time": 46.3431818,
                "end_time": 46.5613636,
                "pitch": 67,
                "velocity": 64,
                "duration": 0.2181818,
                "tempo": 120.0
            },
            {
                "start_time": 46.6159091,
                "end_time": 48.7136364,
                "pitch": 69,
                "velocity": 64,
                "duration": 2.0977273,
                "tempo": 120.0
            }
        ],
        "Vibraphone": [
            {
                "start_time": 65.6818182,
                "end_time": 65.8977273,
                "pitch": 79,
                "velocity": 32,
                "duration": 0.2159091,
                "tempo": 120.0
            },
            {
                "start_time": 65.95,
                "end_time": 66.1659091,
                "pitch": 78,
                "velocity": 32,
                "duration": 0.2159091,
                "tempo": 120.0
            },
            {
                "start_time": 66.2159091,
                "end_time": 66.4340909,
                "pitch": 74,
                "velocity": 32,
                "duration": 0.2181818,
                "tempo": 120.0
            },
            {
                "start_time": 66.4840909,
                "end_time": 66.7045455,
                "pitch": 71,
                "velocity": 32,
                "duration": 0.2204545,
                "tempo": 120.0
            },
            {
                "start_time": 66.7545455,
                "end_time": 66.9772727,
                "pitch": 67,
                "velocity": 32,
                "duration": 0.2227273,
                "tempo": 120.0
            },
            {
                "start_time": 67.5636364,
                "end_time": 68.5931818,
                "pitch": 62,
                "velocity": 32,
                "duration": 1.0295455,
                "tempo": 120.0
            }
        ],
        "French Horn": [
            {
                "start_time": 49.8454545,
                "end_time": 49.9272727,
                "pitch": 42,
                "velocity": 40,
                "duration": 0.0818182,
                "tempo": 120.0
            },
            {
                "start_time": 49.9818182,
                "end_time": 50.0636364,
                "pitch": 38,
                "velocity": 40,
                "duration": 0.0818182,
                "tempo": 120.0
            },
            {
                "start_time": 50.1159091,
                "end_time": 50.2,
                "pitch": 43,
                "velocity": 40,
                "duration": 0.0840909,
                "tempo": 120.0
            },
            {
                "start_time": 49.8454545,
                "end_time": 50.2522727,
                "pitch": 0,
                "velocity": 40,
                "duration": 0.4068182,
                "tempo": 120.0
            },
            {
                "start_time": 49.9818182,
                "end_time": 50.3363636,
                "pitch": 42,
                "velocity": 40,
                "duration": 0.3545455,
                "tempo": 120.0
            },
            {
                "start_time": 50.2522727,
                "end_time": 50.3363636,
                "pitch": 42,
                "velocity": 40,
                "duration": 0.0840909,
                "tempo": 120.0
            },
            {
                "start_time": 50.3886364,
                "end_time": 50.475,
                "pitch": 45,
                "velocity": 40,
                "duration": 0.0863636,
                "tempo": 120.0
            },
            {
                "start_time": 50.5295455,
                "end_time": 50.6159091,
                "pitch": 45,
                "velocity": 40,
                "duration": 0.0863636,
                "tempo": 120.0
            },
            {
                "start_time": 50.2522727,
                "end_time": 50.6704545,
                "pitch": 0,
                "velocity": 40,
                "duration": 0.4181818,
                "tempo": 120.0
            },
            {
                "start_time": 50.6704545,
                "end_time": 50.7568182,
                "pitch": 48,
                "velocity": 40,
                "duration": 0.0863636,
                "tempo": 120.0
            },
            {
                "start_time": 50.8113636,
                "end_time": 50.8977273,
                "pitch": 47,
                "velocity": 40,
                "duration": 0.0863636,
                "tempo": 120.0
            },
            {
                "start_time": 50.3886364,
                "end_time": 51.0840909,
                "pitch": 54,
                "velocity": 40,
                "duration": 0.6954545,
                "tempo": 120.0
            },
            {
                "start_time": 50.9545455,
                "end_time": 51.0840909,
                "pitch": 54,
                "velocity": 40,
                "duration": 0.1295455,
                "tempo": 120.0
            },
            {
                "start_time": 51.0840909,
                "end_time": 51.1636364,
                "pitch": 50,
                "velocity": 40,
                "duration": 0.0795455,
                "tempo": 120.0
            },
            {
                "start_time": 50.1159091,
                "end_time": 51.2136364,
                "pitch": 53,
                "velocity": 40,
                "duration": 1.0977273,
                "tempo": 120.0
            },
            {
                "start_time": 51.2136364,
                "end_time": 51.9454545,
                "pitch": 47,
                "velocity": 40,
                "duration": 0.7318182,
                "tempo": 120.0
            },
            {
                "start_time": 57.9590909,
                "end_time": 58.4340909,
                "pitch": 55,
                "velocity": 51,
                "duration": 0.475,
                "tempo": 120.0
            },
            {
                "start_time": 50.6704545,
                "end_time": 58.4863636,
                "pitch": 0,
                "velocity": 40,
                "duration": 7.8159091,
                "tempo": 120.0
            },
            {
                "start_time": 58.4863636,
                "end_time": 58.9613636,
                "pitch": 51,
                "velocity": 51,
                "duration": 0.475,
                "tempo": 120.0
            },
            {
                "start_time": 59.0113636,
                "end_time": 59.5022727,
                "pitch": 54,
                "velocity": 51,
                "duration": 0.4909091,
                "tempo": 120.0
            },
            {
                "start_time": 59.5545455,
                "end_time": 59.7727273,
                "pitch": 54,
                "velocity": 51,
                "duration": 0.2181818,
                "tempo": 120.0
            },
            {
                "start_time": 50.8113636,
                "end_time": 63.8659091,
                "pitch": 52,
                "velocity": 40,
                "duration": 13.0545455,
                "tempo": 120.0
            },
            {
                "start_time": 63.8659091,
                "end_time": 65.1636364,
                "pitch": 47,
                "velocity": 51,
                "duration": 1.2977273,
                "tempo": 120.0
            },
            {
                "start_time": 50.9545455,
                "end_time": 65.2136364,
                "pitch": 32,
                "velocity": 40,
                "duration": 14.2590909,
                "tempo": 120.0
            },
            {
                "start_time": 65.2136364,
                "end_time": 66.2340909,
                "pitch": 48,
                "velocity": 51,
                "duration": 1.0204545,
                "tempo": 120.0
            },
            {
                "start_time": 66.2840909,
                "end_time": 68.3931818,
                "pitch": 50,
                "velocity": 51,
                "duration": 2.1090909,
                "tempo": 120.0
            },
            {
                "start_time": 68.4454545,
                "end_time": 69.2204545,
                "pitch": 54,
                "velocity": 51,
                "duration": 0.775,
                "tempo": 120.0
            }
        ],
        "Acoustic Bass": [
            {
                "start_time": 0.0022727,
                "end_time": 0.6840909,
                "pitch": 43,
                "velocity": 64,
                "duration": 0.6818182,
                "tempo": 120.0
            },
            {
                "start_time": 0.7340909,
                "end_time": 1.7545455,
                "pitch": 43,
                "velocity": 64,
                "duration": 1.0204545,
                "tempo": 120.0
            },
            {
                "start_time": 1.8045455,
                "end_time": 1.8886364,
                "pitch": 43,
                "velocity": 64,
                "duration": 0.0840909,
                "tempo": 120.0
            },
            {
                "start_time": 1.9409091,
                "end_time": 2.025,
                "pitch": 43,
                "velocity": 64,
                "duration": 0.0840909,
                "tempo": 120.0
            },
            {
                "start_time": 2.0772727,
                "end_time": 2.8431818,
                "pitch": 41,
                "velocity": 64,
                "duration": 0.7659091,
                "tempo": 120.0
            },
            {
                "start_time": 2.8931818,
                "end_time": 3.9045455,
                "pitch": 41,
                "velocity": 64,
                "duration": 1.0113636,
                "tempo": 120.0
            },
            {
                "start_time": 3.9545455,
                "end_time": 4.0386364,
                "pitch": 41,
                "velocity": 64,
                "duration": 0.0840909,
                "tempo": 120.0
            },
            {
                "start_time": 4.0909091,
                "end_time": 4.175,
                "pitch": 41,
                "velocity": 64,
                "duration": 0.0840909,
                "tempo": 120.0
            },
            {
                "start_time": 4.2272727,
                "end_time": 4.9931818,
                "pitch": 41,
                "velocity": 64,
                "duration": 0.7659091,
                "tempo": 120.0
            },
            {
                "start_time": 5.0431818,
                "end_time": 6.0659091,
                "pitch": 40,
                "velocity": 64,
                "duration": 1.0227273,
                "tempo": 120.0
            },
            {
                "start_time": 6.1159091,
                "end_time": 6.1977273,
                "pitch": 40,
                "velocity": 64,
                "duration": 0.0818182,
                "tempo": 120.0
            },
            {
                "start_time": 6.2477273,
                "end_time": 6.3318182,
                "pitch": 40,
                "velocity": 64,
                "duration": 0.0840909,
                "tempo": 120.0
            },
            {
                "start_time": 6.3818182,
                "end_time": 7.1431818,
                "pitch": 40,
                "velocity": 64,
                "duration": 0.7613636,
                "tempo": 120.0
            },
            {
                "start_time": 7.1954545,
                "end_time": 8.225,
                "pitch": 39,
                "velocity": 64,
                "duration": 1.0295455,
                "tempo": 120.0
            },
            {
                "start_time": 8.275,
                "end_time": 9.3136364,
                "pitch": 41,
                "velocity": 64,
                "duration": 1.0386364,
                "tempo": 120.0
            },
            {
                "start_time": 8.275,
                "end_time": 10.1159091,
                "pitch": 39,
                "velocity": 64,
                "duration": 1.8409091,
                "tempo": 120.0
            },
            {
                "start_time": 9.3659091,
                "end_time": 10.1159091,
                "pitch": 39,
                "velocity": 64,
                "duration": 0.75,
                "tempo": 120.0
            },
            {
                "start_time": 9.3659091,
                "end_time": 10.1681818,
                "pitch": 41,
                "velocity": 64,
                "duration": 0.8022727,
                "tempo": 120.0
            },
            {
                "start_time": 10.1681818,
                "end_time": 10.6545455,
                "pitch": 34,
                "velocity": 64,
                "duration": 0.4863636,
                "tempo": 120.0
            },
            {
                "start_time": 10.7068182,
                "end_time": 11.4727273,
                "pitch": 39,
                "velocity": 64,
                "duration": 0.7659091,
                "tempo": 120.0
            },
            {
                "start_time": 11.525,
                "end_time": 12.2704545,
                "pitch": 39,
                "velocity": 64,
                "duration": 0.7454545,
                "tempo": 120.0
            },
            {
                "start_time": 10.1681818,
                "end_time": 12.8113636,
                "pitch": 41,
                "velocity": 64,
                "duration": 2.6431818,
                "tempo": 120.0
            },
            {
                "start_time": 12.3227273,
                "end_time": 12.8113636,
                "pitch": 41,
                "velocity": 64,
                "duration": 0.4886364,
                "tempo": 120.0
            },
            {
                "start_time": 12.8613636,
                "end_time": 13.5340909,
                "pitch": 43,
                "velocity": 64,
                "duration": 0.6727273,
                "tempo": 120.0
            },
            {
                "start_time": 13.5818182,
                "end_time": 14.2454545,
                "pitch": 43,
                "velocity": 64,
                "duration": 0.6636364,
                "tempo": 120.0
            },
            {
                "start_time": 2.0772727,
                "end_time": 14.2886364,
                "pitch": 0,
                "velocity": 64,
                "duration": 12.2113636,
                "tempo": 120.0
            },
            {
                "start_time": 14.2886364,
                "end_time": 14.7295455,
                "pitch": 38,
                "velocity": 64,
                "duration": 0.4409091,
                "tempo": 120.0
            },
            {
                "start_time": 14.7772727,
                "end_time": 15.5136364,
                "pitch": 43,
                "velocity": 64,
                "duration": 0.7363636,
                "tempo": 120.0
            },
            {
                "start_time": 15.5613636,
                "end_time": 16.3340909,
                "pitch": 43,
                "velocity": 64,
                "duration": 0.7727273,
                "tempo": 120.0
            },
            {
                "start_time": 14.2886364,
                "end_time": 16.3886364,
                "pitch": 0,
                "velocity": 64,
                "duration": 2.1,
                "tempo": 120.0
            },
            {
                "start_time": 16.3886364,
                "end_time": 16.8727273,
                "pitch": 42,
                "velocity": 64,
                "duration": 0.4840909,
                "tempo": 120.0
            },
            {
                "start_time": 16.925,
                "end_time": 17.6795455,
                "pitch": 42,
                "velocity": 64,
                "duration": 0.7545455,
                "tempo": 120.0
            },
            {
                "start_time": 17.7318182,
                "end_time": 18.4886364,
                "pitch": 40,
                "velocity": 64,
                "duration": 0.7568182,
                "tempo": 120.0
            },
            {
                "start_time": 18.5386364,
                "end_time": 19.0318182,
                "pitch": 35,
                "velocity": 64,
                "duration": 0.4931818,
                "tempo": 120.0
            },
            {
                "start_time": 19.0840909,
                "end_time": 19.8454545,
                "pitch": 40,
                "velocity": 64,
                "duration": 0.7613636,
                "tempo": 120.0
            },
            {
                "start_time": 19.8954545,
                "end_time": 20.6477273,
                "pitch": 40,
                "velocity": 64,
                "duration": 0.7522727,
                "tempo": 120.0
            },
            {
                "start_time": 20.6977273,
                "end_time": 21.1909091,
                "pitch": 37,
                "velocity": 64,
                "duration": 0.4931818,
                "tempo": 120.0
            },
            {
                "start_time": 21.2431818,
                "end_time": 21.9954545,
                "pitch": 38,
                "velocity": 64,
                "duration": 0.7522727,
                "tempo": 120.0
            },
            {
                "start_time": 12.3227273,
                "end_time": 22.7977273,
                "pitch": 39,
                "velocity": 64,
                "duration": 10.475,
                "tempo": 120.0
            },
            {
                "start_time": 22.0454545,
                "end_time": 22.7977273,
                "pitch": 39,
                "velocity": 64,
                "duration": 0.7522727,
                "tempo": 120.0
            },
            {
                "start_time": 22.8477273,
                "end_time": 22.85,
                "pitch": 41,
                "velocity": 64,
                "duration": 0.0022727,
                "tempo": 120.0
            },
            {
                "start_time": 22.85,
                "end_time": 23.3409091,
                "pitch": 35,
                "velocity": 64,
                "duration": 0.4909091,
                "tempo": 120.0
            },
            {
                "start_time": 19.0840909,
                "end_time": 23.3931818,
                "pitch": 19,
                "velocity": 64,
                "duration": 4.3090909,
                "tempo": 120.0
            },
            {
                "start_time": 23.3931818,
                "end_time": 24.1545455,
                "pitch": 39,
                "velocity": 64,
                "duration": 0.7613636,
                "tempo": 120.0
            },
            {
                "start_time": 24.2068182,
                "end_time": 24.9568182,
                "pitch": 39,
                "velocity": 64,
                "duration": 0.75,
                "tempo": 120.0
            },
            {
                "start_time": 25.0090909,
                "end_time": 25.5,
                "pitch": 35,
                "velocity": 64,
                "duration": 0.4909091,
                "tempo": 120.0
            },
            {
                "start_time": 23.3931818,
                "end_time": 25.5522727,
                "pitch": 19,
                "velocity": 64,
                "duration": 2.1590909,
                "tempo": 120.0
            },
            {
                "start_time": 25.5522727,
                "end_time": 26.3090909,
                "pitch": 36,
                "velocity": 64,
                "duration": 0.7568182,
                "tempo": 120.0
            },
            {
                "start_time": 26.3613636,
                "end_time": 27.1159091,
                "pitch": 36,
                "velocity": 64,
                "duration": 0.7545455,
                "tempo": 120.0
            },
            {
                "start_time": 20.6977273,
                "end_time": 27.1681818,
                "pitch": 40,
                "velocity": 64,
                "duration": 6.4704545,
                "tempo": 120.0
            },
            {
                "start_time": 27.1681818,
                "end_time": 27.6613636,
                "pitch": 31,
                "velocity": 64,
                "duration": 0.4931818,
                "tempo": 120.0
            },
            {
                "start_time": 16.3886364,
                "end_time": 27.7136364,
                "pitch": 0,
                "velocity": 64,
                "duration": 11.325,
                "tempo": 120.0
            },
            {
                "start_time": 27.7136364,
                "end_time": 28.4636364,
                "pitch": 36,
                "velocity": 64,
                "duration": 0.75,
                "tempo": 120.0
            },
            {
                "start_time": 28.5159091,
                "end_time": 29.2659091,
                "pitch": 36,
                "velocity": 64,
                "duration": 0.75,
                "tempo": 120.0
            },
            {
                "start_time": 27.1681818,
                "end_time": 29.5409091,
                "pitch": 40,
                "velocity": 64,
                "duration": 2.3727273,
                "tempo": 120.0
            },
            {
                "start_time": 29.3181818,
                "end_time": 29.5409091,
                "pitch": 40,
                "velocity": 64,
                "duration": 0.2227273,
                "tempo": 120.0
            },
            {
                "start_time": 29.5954545,
                "end_time": 29.8181818,
                "pitch": 40,
                "velocity": 64,
                "duration": 0.2227273,
                "tempo": 120.0
            },
            {
                "start_time": 12.8613636,
                "end_time": 29.8727273,
                "pitch": 54,
                "velocity": 64,
                "duration": 17.0113636,
                "tempo": 120.0
            },
            {
                "start_time": 29.8727273,
                "end_time": 30.625,
                "pitch": 43,
                "velocity": 64,
                "duration": 0.7522727,
                "tempo": 120.0
            },
            {
                "start_time": 30.675,
                "end_time": 31.4272727,
                "pitch": 43,
                "velocity": 64,
                "duration": 0.7522727,
                "tempo": 120.0
            },
            {
                "start_time": 27.7136364,
                "end_time": 31.4795455,
                "pitch": 0,
                "velocity": 64,
                "duration": 3.7659091,
                "tempo": 120.0
            },
            {
                "start_time": 31.4795455,
                "end_time": 31.9704545,
                "pitch": 38,
                "velocity": 64,
                "duration": 0.4909091,
                "tempo": 120.0
            },
            {
                "start_time": 14.7772727,
                "end_time": 32.0227273,
                "pitch": 53,
                "velocity": 64,
                "duration": 17.2454545,
                "tempo": 120.0
            },
            {
                "start_time": 32.0227273,
                "end_time": 32.7795455,
                "pitch": 43,
                "velocity": 64,
                "duration": 0.7568182,
                "tempo": 120.0
            },
            {
                "start_time": 32.8318182,
                "end_time": 33.5863636,
                "pitch": 43,
                "velocity": 64,
                "duration": 0.7545455,
                "tempo": 120.0
            },
            {
                "start_time": 31.4795455,
                "end_time": 33.6386364,
                "pitch": 0,
                "velocity": 64,
                "duration": 2.1590909,
                "tempo": 120.0
            },
            {
                "start_time": 18.5386364,
                "end_time": 34.1227273,
                "pitch": 42,
                "velocity": 64,
                "duration": 15.5840909,
                "tempo": 120.0
            },
            {
                "start_time": 33.6386364,
                "end_time": 34.1227273,
                "pitch": 42,
                "velocity": 64,
                "duration": 0.4840909,
                "tempo": 120.0
            },
            {
                "start_time": 34.1727273,
                "end_time": 34.9340909,
                "pitch": 42,
                "velocity": 64,
                "duration": 0.7613636,
                "tempo": 120.0
            },
            {
                "start_time": 34.9863636,
                "end_time": 35.7363636,
                "pitch": 40,
                "velocity": 64,
                "duration": 0.75,
                "tempo": 120.0
            },
            {
                "start_time": 35.7886364,
                "end_time": 36.2795455,
                "pitch": 35,
                "velocity": 64,
                "duration": 0.4909091,
                "tempo": 120.0
            },
            {
                "start_time": 25.5522727,
                "end_time": 36.3318182,
                "pitch": 19,
                "velocity": 64,
                "duration": 10.7795455,
                "tempo": 120.0
            },
            {
                "start_time": 36.3318182,
                "end_time": 37.0931818,
                "pitch": 40,
                "velocity": 64,
                "duration": 0.7613636,
                "tempo": 120.0
            },
            {
                "start_time": 37.1454545,
                "end_time": 37.8954545,
                "pitch": 40,
                "velocity": 64,
                "duration": 0.75,
                "tempo": 120.0
            },
            {
                "start_time": 37.9477273,
                "end_time": 38.4409091,
                "pitch": 37,
                "velocity": 64,
                "duration": 0.4931818,
                "tempo": 120.0
            },
            {
                "start_time": 38.4931818,
                "end_time": 39.2431818,
                "pitch": 38,
                "velocity": 64,
                "duration": 0.75,
                "tempo": 120.0
            },
            {
                "start_time": 39.2954545,
                "end_time": 40.0545455,
                "pitch": 39,
                "velocity": 64,
                "duration": 0.7590909,
                "tempo": 120.0
            },
            {
                "start_time": 25.0090909,
                "end_time": 40.1068182,
                "pitch": 41,
                "velocity": 64,
                "duration": 15.0977273,
                "tempo": 120.0
            },
            {
                "start_time": 40.1068182,
                "end_time": 40.5909091,
                "pitch": 35,
                "velocity": 64,
                "duration": 0.4840909,
                "tempo": 120.0
            },
            {
                "start_time": 36.3318182,
                "end_time": 40.6431818,
                "pitch": 19,
                "velocity": 64,
                "duration": 4.3113636,
                "tempo": 120.0
            },
            {
                "start_time": 40.6431818,
                "end_time": 41.4022727,
                "pitch": 39,
                "velocity": 64,
                "duration": 0.7590909,
                "tempo": 120.0
            },
            {
                "start_time": 41.4545455,
                "end_time": 42.2068182,
                "pitch": 39,
                "velocity": 64,
                "duration": 0.7522727,
                "tempo": 120.0
            },
            {
                "start_time": 40.1068182,
                "end_time": 42.2568182,
                "pitch": 41,
                "velocity": 64,
                "duration": 2.15,
                "tempo": 120.0
            },
            {
                "start_time": 42.2568182,
                "end_time": 42.75,
                "pitch": 35,
                "velocity": 64,
                "duration": 0.4931818,
                "tempo": 120.0
            },
            {
                "start_time": 40.6431818,
                "end_time": 42.8022727,
                "pitch": 19,
                "velocity": 64,
                "duration": 2.1590909,
                "tempo": 120.0
            },
            {
                "start_time": 29.3181818,
                "end_time": 43.5522727,
                "pitch": 36,
                "velocity": 64,
                "duration": 14.2340909,
                "tempo": 120.0
            },
            {
                "start_time": 42.8022727,
                "end_time": 43.5522727,
                "pitch": 36,
                "velocity": 64,
                "duration": 0.75,
                "tempo": 120.0
            },
            {
                "start_time": 43.6045455,
                "end_time": 44.2659091,
                "pitch": 36,
                "velocity": 64,
                "duration": 0.6613636,
                "tempo": 120.0
            },
            {
                "start_time": 44.3068182,
                "end_time": 44.4818182,
                "pitch": 38,
                "velocity": 64,
                "duration": 0.175,
                "tempo": 120.0
            },
            {
                "start_time": 44.525,
                "end_time": 45.4818182,
                "pitch": 38,
                "velocity": 64,
                "duration": 0.9568182,
                "tempo": 120.0
            },
            {
                "start_time": 45.5340909,
                "end_time": 46.2886364,
                "pitch": 39,
                "velocity": 64,
                "duration": 0.7545455,
                "tempo": 120.0
            },
            {
                "start_time": 42.2568182,
                "end_time": 46.5613636,
                "pitch": 41,
                "velocity": 64,
                "duration": 4.3045455,
                "tempo": 120.0
            },
            {
                "start_time": 46.3409091,
                "end_time": 46.5613636,
                "pitch": 41,
                "velocity": 64,
                "duration": 0.2204545,
                "tempo": 120.0
            },
            {
                "start_time": 29.8727273,
                "end_time": 46.6136364,
                "pitch": 54,
                "velocity": 64,
                "duration": 16.7409091,
                "tempo": 120.0
            },
            {
                "start_time": 46.6136364,
                "end_time": 47.6318182,
                "pitch": 43,
                "velocity": 64,
                "duration": 1.0181818,
                "tempo": 120.0
            },
            {
                "start_time": 47.6840909,
                "end_time": 48.4454545,
                "pitch": 43,
                "velocity": 64,
                "duration": 0.7613636,
                "tempo": 120.0
            },
            {
                "start_time": 33.6386364,
                "end_time": 48.4954545,
                "pitch": 0,
                "velocity": 64,
                "duration": 14.8568182,
                "tempo": 120.0
            },
            {
                "start_time": 48.4954545,
                "end_time": 48.9795455,
                "pitch": 38,
                "velocity": 64,
                "duration": 0.4840909,
                "tempo": 120.0
            },
            {
                "start_time": 32.0227273,
                "end_time": 49.0318182,
                "pitch": 53,
                "velocity": 64,
                "duration": 17.0090909,
                "tempo": 120.0
            },
            {
                "start_time": 49.0318182,
                "end_time": 49.7909091,
                "pitch": 43,
                "velocity": 64,
                "duration": 0.7590909,
                "tempo": 120.0
            },
            {
                "start_time": 49.8431818,
                "end_time": 50.6159091,
                "pitch": 43,
                "velocity": 64,
                "duration": 0.7727273,
                "tempo": 120.0
            },
            {
                "start_time": 50.6681818,
                "end_time": 50.8977273,
                "pitch": 43,
                "velocity": 64,
                "duration": 0.2295455,
                "tempo": 120.0
            },
            {
                "start_time": 50.9522727,
                "end_time": 51.1613636,
                "pitch": 45,
                "velocity": 64,
                "duration": 0.2090909,
                "tempo": 120.0
            },
            {
                "start_time": 51.2113636,
                "end_time": 51.55,
                "pitch": 46,
                "velocity": 64,
                "duration": 0.3386364,
                "tempo": 120.0
            },
            {
                "start_time": 51.6,
                "end_time": 51.6818182,
                "pitch": 59,
                "velocity": 64,
                "duration": 0.0818182,
                "tempo": 120.0
            },
            {
                "start_time": 51.9954545,
                "end_time": 52.4886364,
                "pitch": 47,
                "velocity": 64,
                "duration": 0.4931818,
                "tempo": 120.0
            },
            {
                "start_time": 52.5409091,
                "end_time": 52.8954545,
                "pitch": 47,
                "velocity": 64,
                "duration": 0.3545455,
                "tempo": 120.0
            },
            {
                "start_time": 42.8022727,
                "end_time": 52.9477273,
                "pitch": 19,
                "velocity": 64,
                "duration": 10.1454545,
                "tempo": 120.0
            },
            {
                "start_time": 35.7886364,
                "end_time": 53.3,
                "pitch": 42,
                "velocity": 64,
                "duration": 17.5113636,
                "tempo": 120.0
            },
            {
                "start_time": 52.9477273,
                "end_time": 53.3,
                "pitch": 42,
                "velocity": 64,
                "duration": 0.3522727,
                "tempo": 120.0
            },
            {
                "start_time": 46.6136364,
                "end_time": 53.3522727,
                "pitch": 54,
                "velocity": 64,
                "duration": 6.7386364,
                "tempo": 120.0
            },
            {
                "start_time": 53.3522727,
                "end_time": 53.7045455,
                "pitch": 47,
                "velocity": 64,
                "duration": 0.3522727,
                "tempo": 120.0
            },
            {
                "start_time": 53.7568182,
                "end_time": 53.8431818,
                "pitch": 59,
                "velocity": 64,
                "duration": 0.0863636,
                "tempo": 120.0
            },
            {
                "start_time": 54.175,
                "end_time": 54.65,
                "pitch": 47,
                "velocity": 64,
                "duration": 0.475,
                "tempo": 120.0
            },
            {
                "start_time": 54.7,
                "end_time": 55.0568182,
                "pitch": 47,
                "velocity": 64,
                "duration": 0.3568182,
                "tempo": 120.0
            },
            {
                "start_time": 52.9477273,
                "end_time": 55.1068182,
                "pitch": 19,
                "velocity": 64,
                "duration": 2.1590909,
                "tempo": 120.0
            },
            {
                "start_time": 46.3409091,
                "end_time": 55.4613636,
                "pitch": 39,
                "velocity": 64,
                "duration": 9.1204545,
                "tempo": 120.0
            },
            {
                "start_time": 55.1068182,
                "end_time": 55.4613636,
                "pitch": 39,
                "velocity": 64,
                "duration": 0.3545455,
                "tempo": 120.0
            },
            {
                "start_time": 55.5113636,
                "end_time": 55.8636364,
                "pitch": 39,
                "velocity": 64,
                "duration": 0.3522727,
                "tempo": 120.0
            },
            {
                "start_time": 55.9159091,
                "end_time": 56.0022727,
                "pitch": 52,
                "velocity": 64,
                "duration": 0.0863636,
                "tempo": 120.0
            },
            {
                "start_time": 37.9477273,
                "end_time": 56.8090909,
                "pitch": 40,
                "velocity": 64,
                "duration": 18.8613636,
                "tempo": 120.0
            },
            {
                "start_time": 56.3340909,
                "end_time": 56.8090909,
                "pitch": 40,
                "velocity": 64,
                "duration": 0.475,
                "tempo": 120.0
            },
            {
                "start_time": 56.8590909,
                "end_time": 57.2159091,
                "pitch": 40,
                "velocity": 64,
                "duration": 0.3568182,
                "tempo": 120.0
            },
            {
                "start_time": 57.2659091,
                "end_time": 57.2681818,
                "pitch": 42,
                "velocity": 64,
                "duration": 0.0022727,
                "tempo": 120.0
            },
            {
                "start_time": 57.2681818,
                "end_time": 57.6272727,
                "pitch": 35,
                "velocity": 64,
                "duration": 0.3590909,
                "tempo": 120.0
            },
            {
                "start_time": 55.1068182,
                "end_time": 57.6795455,
                "pitch": 19,
                "velocity": 64,
                "duration": 2.5727273,
                "tempo": 120.0
            },
            {
                "start_time": 57.6795455,
                "end_time": 58.0409091,
                "pitch": 40,
                "velocity": 64,
                "duration": 0.3613636,
                "tempo": 120.0
            },
            {
                "start_time": 58.0909091,
                "end_time": 58.1727273,
                "pitch": 52,
                "velocity": 64,
                "duration": 0.0818182,
                "tempo": 120.0
            },
            {
                "start_time": 58.4840909,
                "end_time": 58.9613636,
                "pitch": 40,
                "velocity": 64,
                "duration": 0.4772727,
                "tempo": 120.0
            },
            {
                "start_time": 59.0113636,
                "end_time": 59.3659091,
                "pitch": 40,
                "velocity": 64,
                "duration": 0.3545455,
                "tempo": 120.0
            },
            {
                "start_time": 59.4181818,
                "end_time": 59.7727273,
                "pitch": 40,
                "velocity": 64,
                "duration": 0.3545455,
                "tempo": 120.0
            },
            {
                "start_time": 59.8227273,
                "end_time": 60.175,
                "pitch": 39,
                "velocity": 64,
                "duration": 0.3522727,
                "tempo": 120.0
            },
            {
                "start_time": 60.2272727,
                "end_time": 60.3136364,
                "pitch": 50,
                "velocity": 64,
                "duration": 0.0863636,
                "tempo": 120.0
            },
            {
                "start_time": 60.6454545,
                "end_time": 61.1204545,
                "pitch": 38,
                "velocity": 64,
                "duration": 0.475,
                "tempo": 120.0
            },
            {
                "start_time": 61.1704545,
                "end_time": 61.5204545,
                "pitch": 38,
                "velocity": 64,
                "duration": 0.35,
                "tempo": 120.0
            },
            {
                "start_time": 61.5704545,
                "end_time": 61.9181818,
                "pitch": 33,
                "velocity": 64,
                "duration": 0.3477273,
                "tempo": 120.0
            },
            {
                "start_time": 61.9681818,
                "end_time": 62.3181818,
                "pitch": 38,
                "velocity": 64,
                "duration": 0.35,
                "tempo": 120.0
            },
            {
                "start_time": 62.3704545,
                "end_time": 62.4613636,
                "pitch": 50,
                "velocity": 64,
                "duration": 0.0909091,
                "tempo": 120.0
            },
            {
                "start_time": 62.8045455,
                "end_time": 63.2727273,
                "pitch": 38,
                "velocity": 64,
                "duration": 0.4681818,
                "tempo": 120.0
            },
            {
                "start_time": 63.3227273,
                "end_time": 63.6772727,
                "pitch": 40,
                "velocity": 64,
                "duration": 0.3545455,
                "tempo": 120.0
            },
            {
                "start_time": 63.7295455,
                "end_time": 64.0863636,
                "pitch": 40,
                "velocity": 64,
                "duration": 0.3568182,
                "tempo": 120.0
            },
            {
                "start_time": 53.3522727,
                "end_time": 64.1386364,
                "pitch": 54,
                "velocity": 64,
                "duration": 10.7863636,
                "tempo": 120.0
            },
            {
                "start_time": 64.1386364,
                "end_time": 64.4931818,
                "pitch": 43,
                "velocity": 64,
                "duration": 0.3545455,
                "tempo": 120.0
            },
            {
                "start_time": 64.5431818,
                "end_time": 64.6272727,
                "pitch": 55,
                "velocity": 64,
                "duration": 0.0840909,
                "tempo": 120.0
            },
            {
                "start_time": 64.9454545,
                "end_time": 65.4295455,
                "pitch": 43,
                "velocity": 64,
                "duration": 0.4840909,
                "tempo": 120.0
            },
            {
                "start_time": 65.4818182,
                "end_time": 65.8318182,
                "pitch": 43,
                "velocity": 64,
                "duration": 0.35,
                "tempo": 120.0
            },
            {
                "start_time": 48.4954545,
                "end_time": 65.8818182,
                "pitch": 0,
                "velocity": 64,
                "duration": 17.3863636,
                "tempo": 120.0
            },
            {
                "start_time": 63.3227273,
                "end_time": 66.2318182,
                "pitch": 38,
                "velocity": 64,
                "duration": 2.9090909,
                "tempo": 120.0
            },
            {
                "start_time": 65.8818182,
                "end_time": 66.2318182,
                "pitch": 38,
                "velocity": 64,
                "duration": 0.35,
                "tempo": 120.0
            },
            {
                "start_time": 49.0318182,
                "end_time": 66.2840909,
                "pitch": 53,
                "velocity": 64,
                "duration": 17.2522727,
                "tempo": 120.0
            },
            {
                "start_time": 66.2840909,
                "end_time": 66.6363636,
                "pitch": 43,
                "velocity": 64,
                "duration": 0.3522727,
                "tempo": 120.0
            },
            {
                "start_time": 66.6863636,
                "end_time": 66.7704545,
                "pitch": 55,
                "velocity": 64,
                "duration": 0.0840909,
                "tempo": 120.0
            },
            {
                "start_time": 67.0954545,
                "end_time": 67.5795455,
                "pitch": 43,
                "velocity": 64,
                "duration": 0.4840909,
                "tempo": 120.0
            },
            {
                "start_time": 67.6318182,
                "end_time": 67.9863636,
                "pitch": 43,
                "velocity": 64,
                "duration": 0.3545455,
                "tempo": 120.0
            },
            {
                "start_time": 68.0386364,
                "end_time": 68.3931818,
                "pitch": 43,
                "velocity": 64,
                "duration": 0.3545455,
                "tempo": 120.0
            },
            {
                "start_time": 68.4431818,
                "end_time": 68.7954545,
                "pitch": 47,
                "velocity": 64,
                "duration": 0.3522727,
                "tempo": 120.0
            },
            {
                "start_time": 68.85,
                "end_time": 68.9386364,
                "pitch": 59,
                "velocity": 64,
                "duration": 0.0886364,
                "tempo": 120.0
            },
            {
                "start_time": 69.275,
                "end_time": 69.7431818,
                "pitch": 47,
                "velocity": 64,
                "duration": 0.4681818,
                "tempo": 120.0
            },
            {
                "start_time": 69.7909091,
                "end_time": 70.1477273,
                "pitch": 47,
                "velocity": 64,
                "duration": 0.3568182,
                "tempo": 120.0
            },
            {
                "start_time": 57.6795455,
                "end_time": 70.2,
                "pitch": 19,
                "velocity": 64,
                "duration": 12.5204545,
                "tempo": 120.0
            },
            {
                "start_time": 70.2,
                "end_time": 70.5522727,
                "pitch": 42,
                "velocity": 64,
                "duration": 0.3522727,
                "tempo": 120.0
            },
            {
                "start_time": 64.1386364,
                "end_time": 70.6022727,
                "pitch": 54,
                "velocity": 64,
                "duration": 6.4636364,
                "tempo": 120.0
            },
            {
                "start_time": 70.6022727,
                "end_time": 70.9568182,
                "pitch": 47,
                "velocity": 64,
                "duration": 0.3545455,
                "tempo": 120.0
            },
            {
                "start_time": 71.0090909,
                "end_time": 71.0954545,
                "pitch": 59,
                "velocity": 64,
                "duration": 0.0863636,
                "tempo": 120.0
            },
            {
                "start_time": 71.425,
                "end_time": 71.9022727,
                "pitch": 47,
                "velocity": 64,
                "duration": 0.4772727,
                "tempo": 120.0
            },
            {
                "start_time": 68.4431818,
                "end_time": 72.1704545,
                "pitch": 45,
                "velocity": 64,
                "duration": 3.7272727,
                "tempo": 120.0
            },
            {
                "start_time": 71.9522727,
                "end_time": 72.1704545,
                "pitch": 45,
                "velocity": 64,
                "duration": 0.2181818,
                "tempo": 120.0
            },
            {
                "start_time": 72.2227273,
                "end_time": 72.4431818,
                "pitch": 45,
                "velocity": 64,
                "duration": 0.2204545,
                "tempo": 120.0
            },
            {
                "start_time": 65.8818182,
                "end_time": 72.4954545,
                "pitch": 0,
                "velocity": 64,
                "duration": 6.6136364,
                "tempo": 120.0
            },
            {
                "start_time": 72.4954545,
                "end_time": 72.7090909,
                "pitch": 39,
                "velocity": 64,
                "duration": 0.2136364,
                "tempo": 120.0
            },
            {
                "start_time": 72.7590909,
                "end_time": 73.1045455,
                "pitch": 39,
                "velocity": 64,
                "duration": 0.3454545,
                "tempo": 120.0
            },
            {
                "start_time": 73.1568182,
                "end_time": 73.2409091,
                "pitch": 52,
                "velocity": 64,
                "duration": 0.0840909,
                "tempo": 120.0
            },
            {
                "start_time": 73.5659091,
                "end_time": 74.05,
                "pitch": 40,
                "velocity": 64,
                "duration": 0.4840909,
                "tempo": 120.0
            },
            {
                "start_time": 74.1,
                "end_time": 74.4568182,
                "pitch": 40,
                "velocity": 64,
                "duration": 0.3568182,
                "tempo": 120.0
            },
            {
                "start_time": 74.5090909,
                "end_time": 74.8659091,
                "pitch": 40,
                "velocity": 64,
                "duration": 0.3568182,
                "tempo": 120.0
            },
            {
                "start_time": 74.9181818,
                "end_time": 75.2704545,
                "pitch": 39,
                "velocity": 64,
                "duration": 0.3522727,
                "tempo": 120.0
            },
            {
                "start_time": 75.3204545,
                "end_time": 75.4022727,
                "pitch": 50,
                "velocity": 64,
                "duration": 0.0818182,
                "tempo": 120.0
            },
            {
                "start_time": 75.7159091,
                "end_time": 76.2090909,
                "pitch": 38,
                "velocity": 64,
                "duration": 0.4931818,
                "tempo": 120.0
            },
            {
                "start_time": 76.2590909,
                "end_time": 76.6113636,
                "pitch": 37,
                "velocity": 64,
                "duration": 0.3522727,
                "tempo": 120.0
            },
            {
                "start_time": 76.6613636,
                "end_time": 77.0159091,
                "pitch": 37,
                "velocity": 64,
                "duration": 0.3545455,
                "tempo": 120.0
            },
            {
                "start_time": 77.0681818,
                "end_time": 77.425,
                "pitch": 37,
                "velocity": 64,
                "duration": 0.3568182,
                "tempo": 120.0
            },
            {
                "start_time": 77.4795455,
                "end_time": 77.5636364,
                "pitch": 48,
                "velocity": 64,
                "duration": 0.0840909,
                "tempo": 120.0
            },
            {
                "start_time": 44.3068182,
                "end_time": 78.3704545,
                "pitch": 36,
                "velocity": 64,
                "duration": 34.0636364,
                "tempo": 120.0
            },
            {
                "start_time": 77.8954545,
                "end_time": 78.3704545,
                "pitch": 36,
                "velocity": 64,
                "duration": 0.475,
                "tempo": 120.0
            },
            {
                "start_time": 78.4204545,
                "end_time": 78.5045455,
                "pitch": 48,
                "velocity": 64,
                "duration": 0.0840909,
                "tempo": 120.0
            },
            {
                "start_time": 78.6931818,
                "end_time": 78.7772727,
                "pitch": 36,
                "velocity": 64,
                "duration": 0.0840909,
                "tempo": 120.0
            },
            {
                "start_time": 78.8295455,
                "end_time": 79.1772727,
                "pitch": 36,
                "velocity": 64,
                "duration": 0.3477273,
                "tempo": 120.0
            },
            {
                "start_time": 79.2295455,
                "end_time": 79.575,
                "pitch": 37,
                "velocity": 64,
                "duration": 0.3454545,
                "tempo": 120.0
            },
            {
                "start_time": 79.6295455,
                "end_time": 79.7136364,
                "pitch": 50,
                "velocity": 64,
                "duration": 0.0840909,
                "tempo": 120.0
            },
            {
                "start_time": 80.0454545,
                "end_time": 80.5204545,
                "pitch": 38,
                "velocity": 64,
                "duration": 0.475,
                "tempo": 120.0
            },
            {
                "start_time": 80.5704545,
                "end_time": 80.6545455,
                "pitch": 50,
                "velocity": 64,
                "duration": 0.0840909,
                "tempo": 120.0
            },
            {
                "start_time": 80.9863636,
                "end_time": 81.3386364,
                "pitch": 38,
                "velocity": 64,
                "duration": 0.3522727,
                "tempo": 120.0
            },
            {
                "start_time": 66.2840909,
                "end_time": 81.3886364,
                "pitch": 53,
                "velocity": 64,
                "duration": 15.1045455,
                "tempo": 120.0
            },
            {
                "start_time": 81.3886364,
                "end_time": 81.7340909,
                "pitch": 43,
                "velocity": 64,
                "duration": 0.3454545,
                "tempo": 120.0
            },
            {
                "start_time": 81.7863636,
                "end_time": 81.8704545,
                "pitch": 55,
                "velocity": 64,
                "duration": 0.0840909,
                "tempo": 120.0
            },
            {
                "start_time": 82.1954545,
                "end_time": 82.6795455,
                "pitch": 43,
                "velocity": 64,
                "duration": 0.4840909,
                "tempo": 120.0
            },
            {
                "start_time": 82.7295455,
                "end_time": 82.8136364,
                "pitch": 55,
                "velocity": 64,
                "duration": 0.0840909,
                "tempo": 120.0
            },
            {
                "start_time": 72.4954545,
                "end_time": 83.1318182,
                "pitch": 0,
                "velocity": 64,
                "duration": 10.6363636,
                "tempo": 120.0
            },
            {
                "start_time": 83.1318182,
                "end_time": 83.4886364,
                "pitch": 38,
                "velocity": 64,
                "duration": 0.3568182,
                "tempo": 120.0
            },
            {
                "start_time": 81.3886364,
                "end_time": 83.5431818,
                "pitch": 53,
                "velocity": 64,
                "duration": 2.1545455,
                "tempo": 120.0
            },
            {
                "start_time": 83.5431818,
                "end_time": 83.9045455,
                "pitch": 43,
                "velocity": 64,
                "duration": 0.3613636,
                "tempo": 120.0
            },
            {
                "start_time": 83.9568182,
                "end_time": 84.0409091,
                "pitch": 43,
                "velocity": 64,
                "duration": 0.0840909,
                "tempo": 120.0
            },
            {
                "start_time": 84.3659091,
                "end_time": 85.6409091,
                "pitch": 43,
                "velocity": 64,
                "duration": 1.275,
                "tempo": 120.0
            },
            {
                "start_time": 85.6954545,
                "end_time": 86.1863636,
                "pitch": 43,
                "velocity": 64,
                "duration": 0.4909091,
                "tempo": 120.0
            }
        ],
        "Clarinet": [
            {
                "start_time": 51.9977273,
                "end_time": 52.1477273,
                "pitch": 71,
                "velocity": 51,
                "duration": 0.15,
                "tempo": 120.0
            },
            {
                "start_time": 52.2681818,
                "end_time": 52.4204545,
                "pitch": 69,
                "velocity": 51,
                "duration": 0.1522727,
                "tempo": 120.0
            },
            {
                "start_time": 52.5409091,
                "end_time": 52.6931818,
                "pitch": 69,
                "velocity": 51,
                "duration": 0.1522727,
                "tempo": 120.0
            },
            {
                "start_time": 52.8136364,
                "end_time": 53.0318182,
                "pitch": 69,
                "velocity": 51,
                "duration": 0.2181818,
                "tempo": 120.0
            },
            {
                "start_time": 53.0840909,
                "end_time": 53.3022727,
                "pitch": 63,
                "velocity": 51,
                "duration": 0.2181818,
                "tempo": 120.0
            },
            {
                "start_time": 53.3522727,
                "end_time": 53.9818182,
                "pitch": 69,
                "velocity": 51,
                "duration": 0.6295455,
                "tempo": 120.0
            },
            {
                "start_time": 54.175,
                "end_time": 54.2568182,
                "pitch": 69,
                "velocity": 51,
                "duration": 0.0818182,
                "tempo": 120.0
            },
            {
                "start_time": 54.4386364,
                "end_time": 54.65,
                "pitch": 69,
                "velocity": 51,
                "duration": 0.2113636,
                "tempo": 120.0
            },
            {
                "start_time": 53.0840909,
                "end_time": 54.7022727,
                "pitch": 31,
                "velocity": 51,
                "duration": 1.6181818,
                "tempo": 120.0
            },
            {
                "start_time": 54.7022727,
                "end_time": 54.9204545,
                "pitch": 63,
                "velocity": 51,
                "duration": 0.2181818,
                "tempo": 120.0
            },
            {
                "start_time": 53.3522727,
                "end_time": 54.9727273,
                "pitch": 77,
                "velocity": 51,
                "duration": 1.6204545,
                "tempo": 120.0
            },
            {
                "start_time": 54.9727273,
                "end_time": 55.1931818,
                "pitch": 69,
                "velocity": 51,
                "duration": 0.2204545,
                "tempo": 120.0
            },
            {
                "start_time": 55.2454545,
                "end_time": 55.3272727,
                "pitch": 75,
                "velocity": 51,
                "duration": 0.0818182,
                "tempo": 120.0
            },
            {
                "start_time": 55.5136364,
                "end_time": 56.0045455,
                "pitch": 75,
                "velocity": 51,
                "duration": 0.4909091,
                "tempo": 120.0
            },
            {
                "start_time": 54.9727273,
                "end_time": 56.0568182,
                "pitch": 77,
                "velocity": 51,
                "duration": 1.0840909,
                "tempo": 120.0
            },
            {
                "start_time": 56.0568182,
                "end_time": 56.2818182,
                "pitch": 71,
                "velocity": 51,
                "duration": 0.225,
                "tempo": 120.0
            },
            {
                "start_time": 56.3340909,
                "end_time": 57.3522727,
                "pitch": 76,
                "velocity": 51,
                "duration": 1.0181818,
                "tempo": 120.0
            },
            {
                "start_time": 60.6477273,
                "end_time": 60.7272727,
                "pitch": 69,
                "velocity": 51,
                "duration": 0.0795455,
                "tempo": 120.0
            },
            {
                "start_time": 60.9090909,
                "end_time": 60.9886364,
                "pitch": 69,
                "velocity": 51,
                "duration": 0.0795455,
                "tempo": 120.0
            },
            {
                "start_time": 61.1727273,
                "end_time": 61.2522727,
                "pitch": 69,
                "velocity": 51,
                "duration": 0.0795455,
                "tempo": 120.0
            },
            {
                "start_time": 54.7022727,
                "end_time": 61.7045455,
                "pitch": 31,
                "velocity": 51,
                "duration": 7.0022727,
                "tempo": 120.0
            },
            {
                "start_time": 61.4386364,
                "end_time": 61.7045455,
                "pitch": 69,
                "velocity": 51,
                "duration": 0.2659091,
                "tempo": 120.0
            },
            {
                "start_time": 61.7045455,
                "end_time": 61.9181818,
                "pitch": 66,
                "velocity": 51,
                "duration": 0.2136364,
                "tempo": 120.0
            },
            {
                "start_time": 60.6477273,
                "end_time": 61.9681818,
                "pitch": 78,
                "velocity": 51,
                "duration": 1.3204545,
                "tempo": 120.0
            },
            {
                "start_time": 61.9681818,
                "end_time": 62.75,
                "pitch": 69,
                "velocity": 51,
                "duration": 0.7818182,
                "tempo": 120.0
            },
            {
                "start_time": 63.0636364,
                "end_time": 63.2727273,
                "pitch": 69,
                "velocity": 51,
                "duration": 0.2090909,
                "tempo": 120.0
            },
            {
                "start_time": 55.2454545,
                "end_time": 63.3227273,
                "pitch": 43,
                "velocity": 51,
                "duration": 8.0772727,
                "tempo": 120.0
            },
            {
                "start_time": 63.3227273,
                "end_time": 63.8136364,
                "pitch": 72,
                "velocity": 51,
                "duration": 0.4909091,
                "tempo": 120.0
            },
            {
                "start_time": 61.9681818,
                "end_time": 69.2772727,
                "pitch": 78,
                "velocity": 51,
                "duration": 7.3090909,
                "tempo": 120.0
            },
            {
                "start_time": 69.2772727,
                "end_time": 69.4204545,
                "pitch": 69,
                "velocity": 51,
                "duration": 0.1431818,
                "tempo": 120.0
            },
            {
                "start_time": 69.5340909,
                "end_time": 69.6772727,
                "pitch": 69,
                "velocity": 51,
                "duration": 0.1431818,
                "tempo": 120.0
            },
            {
                "start_time": 69.7931818,
                "end_time": 69.9431818,
                "pitch": 69,
                "velocity": 51,
                "duration": 0.15,
                "tempo": 120.0
            },
            {
                "start_time": 70.0636364,
                "end_time": 70.2840909,
                "pitch": 69,
                "velocity": 51,
                "duration": 0.2204545,
                "tempo": 120.0
            },
            {
                "start_time": 61.7045455,
                "end_time": 70.3363636,
                "pitch": 31,
                "velocity": 51,
                "duration": 8.6318182,
                "tempo": 120.0
            },
            {
                "start_time": 70.3363636,
                "end_time": 70.5522727,
                "pitch": 63,
                "velocity": 51,
                "duration": 0.2159091,
                "tempo": 120.0
            },
            {
                "start_time": 56.0568182,
                "end_time": 70.6045455,
                "pitch": 77,
                "velocity": 51,
                "duration": 14.5477273,
                "tempo": 120.0
            },
            {
                "start_time": 70.6045455,
                "end_time": 71.2340909,
                "pitch": 69,
                "velocity": 51,
                "duration": 0.6295455,
                "tempo": 120.0
            },
            {
                "start_time": 72.7590909,
                "end_time": 73.5136364,
                "pitch": 69,
                "velocity": 51,
                "duration": 0.7545455,
                "tempo": 120.0
            },
            {
                "start_time": 73.5681818,
                "end_time": 74.3227273,
                "pitch": 71,
                "velocity": 51,
                "duration": 0.7545455,
                "tempo": 120.0
            },
            {
                "start_time": 74.375,
                "end_time": 74.8659091,
                "pitch": 71,
                "velocity": 51,
                "duration": 0.4909091,
                "tempo": 120.0
            },
            {
                "start_time": 74.9204545,
                "end_time": 75.6659091,
                "pitch": 71,
                "velocity": 51,
                "duration": 0.7454545,
                "tempo": 120.0
            },
            {
                "start_time": 75.7181818,
                "end_time": 76.4772727,
                "pitch": 71,
                "velocity": 51,
                "duration": 0.7590909,
                "tempo": 120.0
            },
            {
                "start_time": 76.5295455,
                "end_time": 77.0159091,
                "pitch": 71,
                "velocity": 51,
                "duration": 0.4863636,
                "tempo": 120.0
            },
            {
                "start_time": 77.0704545,
                "end_time": 77.425,
                "pitch": 64,
                "velocity": 51,
                "duration": 0.3545455,
                "tempo": 120.0
            },
            {
                "start_time": 69.2772727,
                "end_time": 77.4795455,
                "pitch": 78,
                "velocity": 51,
                "duration": 8.2022727,
                "tempo": 120.0
            },
            {
                "start_time": 77.4795455,
                "end_time": 77.8431818,
                "pitch": 71,
                "velocity": 51,
                "duration": 0.3636364,
                "tempo": 120.0
            },
            {
                "start_time": 77.8954545,
                "end_time": 78.1090909,
                "pitch": 67,
                "velocity": 51,
                "duration": 0.2136364,
                "tempo": 120.0
            },
            {
                "start_time": 77.4795455,
                "end_time": 78.5568182,
                "pitch": 78,
                "velocity": 51,
                "duration": 1.0772727,
                "tempo": 120.0
            },
            {
                "start_time": 77.8954545,
                "end_time": 78.9136364,
                "pitch": 71,
                "velocity": 51,
                "duration": 1.0181818,
                "tempo": 120.0
            },
            {
                "start_time": 78.5568182,
                "end_time": 78.9136364,
                "pitch": 71,
                "velocity": 51,
                "duration": 0.3568182,
                "tempo": 120.0
            },
            {
                "start_time": 78.9659091,
                "end_time": 79.1795455,
                "pitch": 67,
                "velocity": 51,
                "duration": 0.2136364,
                "tempo": 120.0
            },
            {
                "start_time": 78.5568182,
                "end_time": 79.6295455,
                "pitch": 78,
                "velocity": 51,
                "duration": 1.0727273,
                "tempo": 120.0
            },
            {
                "start_time": 79.6295455,
                "end_time": 79.9931818,
                "pitch": 74,
                "velocity": 51,
                "duration": 0.3636364,
                "tempo": 120.0
            },
            {
                "start_time": 70.6045455,
                "end_time": 80.0454545,
                "pitch": 77,
                "velocity": 51,
                "duration": 9.4409091,
                "tempo": 120.0
            },
            {
                "start_time": 80.0454545,
                "end_time": 80.2590909,
                "pitch": 69,
                "velocity": 51,
                "duration": 0.2136364,
                "tempo": 120.0
            },
            {
                "start_time": 70.3363636,
                "end_time": 80.3090909,
                "pitch": 31,
                "velocity": 51,
                "duration": 9.9727273,
                "tempo": 120.0
            },
            {
                "start_time": 80.3090909,
                "end_time": 80.6568182,
                "pitch": 66,
                "velocity": 51,
                "duration": 0.3477273,
                "tempo": 120.0
            },
            {
                "start_time": 79.6295455,
                "end_time": 80.7090909,
                "pitch": 78,
                "velocity": 51,
                "duration": 1.0795455,
                "tempo": 120.0
            },
            {
                "start_time": 80.7090909,
                "end_time": 81.0727273,
                "pitch": 74,
                "velocity": 51,
                "duration": 0.3636364,
                "tempo": 120.0
            },
            {
                "start_time": 80.0454545,
                "end_time": 81.125,
                "pitch": 77,
                "velocity": 51,
                "duration": 1.0795455,
                "tempo": 120.0
            },
            {
                "start_time": 81.125,
                "end_time": 81.3386364,
                "pitch": 69,
                "velocity": 51,
                "duration": 0.2136364,
                "tempo": 120.0
            },
            {
                "start_time": 80.3090909,
                "end_time": 81.3886364,
                "pitch": 31,
                "velocity": 51,
                "duration": 1.0795455,
                "tempo": 120.0
            },
            {
                "start_time": 81.3886364,
                "end_time": 81.7340909,
                "pitch": 62,
                "velocity": 51,
                "duration": 0.3454545,
                "tempo": 120.0
            },
            {
                "start_time": 81.7886364,
                "end_time": 82.1431818,
                "pitch": 66,
                "velocity": 51,
                "duration": 0.3545455,
                "tempo": 120.0
            },
            {
                "start_time": 80.7090909,
                "end_time": 82.1954545,
                "pitch": 78,
                "velocity": 51,
                "duration": 1.4863636,
                "tempo": 120.0
            },
            {
                "start_time": 82.1954545,
                "end_time": 83.4886364,
                "pitch": 67,
                "velocity": 51,
                "duration": 1.2931818,
                "tempo": 120.0
            },
            {
                "start_time": 82.1954545,
                "end_time": 84.3136364,
                "pitch": 78,
                "velocity": 51,
                "duration": 2.1181818,
                "tempo": 120.0
            },
            {
                "start_time": 83.9568182,
                "end_time": 84.3136364,
                "pitch": 78,
                "velocity": 32,
                "duration": 0.3568182,
                "tempo": 120.0
            },
            {
                "start_time": 84.3659091,
                "end_time": 85.6409091,
                "pitch": 79,
                "velocity": 32,
                "duration": 1.275,
                "tempo": 120.0
            }
        ]
    }
}