{
    "mood": "relaxed",
    "instruments": {
        "Electric Piano 1": [
            {
                "start_time": 0.2227273,
                "end_time": 0.4227273,
                "pitch": 58,
                "velocity": 51,
                "duration": 0.2,
                "tempo": 120.0
            },
            {
                "start_time": 0.425,
                "end_time": 0.625,
                "pitch": 57,
                "velocity": 51,
                "duration": 0.2,
                "tempo": 120.0
            },
            {
                "start_time": 0.625,
                "end_time": 0.8272727,
                "pitch": 58,
                "velocity": 51,
                "duration": 0.2022727,
                "tempo": 120.0
            },
            {
                "start_time": 0.8272727,
                "end_time": 1.0931818,
                "pitch": 58,
                "velocity": 51,
                "duration": 0.2659091,
                "tempo": 120.0
            },
            {
                "start_time": 1.0931818,
                "end_time": 1.3613636,
                "pitch": 57,
                "velocity": 51,
                "duration": 0.2681818,
                "tempo": 120.0
            },
            {
                "start_time": 1.3636364,
                "end_time": 1.6318182,
                "pitch": 58,
                "velocity": 51,
                "duration": 0.2681818,
                "tempo": 120.0
            },
            {
                "start_time": 1.6318182,
                "end_time": 1.9022727,
                "pitch": 58,
                "velocity": 51,
                "duration": 0.2704545,
                "tempo": 120.0
            },
            {
                "start_time": 1.9022727,
                "end_time": 2.1681818,
                "pitch": 57,
                "velocity": 51,
                "duration": 0.2659091,
                "tempo": 120.0
            },
            {
                "start_time": 2.1681818,
                "end_time": 2.4340909,
                "pitch": 58,
                "velocity": 51,
                "duration": 0.2659091,
                "tempo": 120.0
            },
            {
                "start_time": 2.4340909,
                "end_time": 2.7,
                "pitch": 58,
                "velocity": 51,
                "duration": 0.2659091,
                "tempo": 120.0
            },
            {
                "start_time": 2.7,
                "end_time": 2.9659091,
                "pitch": 57,
                "velocity": 51,
                "duration": 0.2659091,
                "tempo": 120.0
            },
            {
                "start_time": 2.9681818,
                "end_time": 3.2318182,
                "pitch": 58,
                "velocity": 51,
                "duration": 0.2636364,
                "tempo": 120.0
            },
            {
                "start_time": 3.2318182,
                "end_time": 3.4977273,
                "pitch": 58,
                "velocity": 51,
                "duration": 0.2659091,
                "tempo": 120.0
            },
            {
                "start_time": 3.5,
                "end_time": 3.7636364,
                "pitch": 57,
                "velocity": 51,
                "duration": 0.2636364,
                "tempo": 120.0
            },
            {
                "start_time": 3.7659091,
                "end_time": 4.0295455,
                "pitch": 58,
                "velocity": 51,
                "duration": 0.2636364,
                "tempo": 120.0
            },
            {
                "start_time": 4.0318182,
                "end_time": 4.2954545,
                "pitch": 58,
                "velocity": 51,
                "duration": 0.2636364,
                "tempo": 120.0
            },
            {
                "start_time": 4.2977273,
                "end_time": 4.5636364,
                "pitch": 57,
                "velocity": 51,
                "duration": 0.2659091,
                "tempo": 120.0
            },
            {
                "start_time": 4.5636364,
                "end_time": 4.8295455,
                "pitch": 58,
                "velocity": 51,
                "duration": 0.2659091,
                "tempo": 120.0
            },
            {
                "start_time": 4.8295455,
                "end_time": 5.0954545,
                "pitch": 58,
                "velocity": 51,
                "duration": 0.2659091,
                "tempo": 120.0
            },
            {
                "start_time": 5.0954545,
                "end_time": 5.3636364,
                "pitch": 57,
                "velocity": 51,
                "duration": 0.2681818,
                "tempo": 120.0
            },
            {
                "start_time": 5.3659091,
                "end_time": 5.6340909,
                "pitch": 58,
                "velocity": 51,
                "duration": 0.2681818,
                "tempo": 120.0
            },
            {
                "start_time": 5.6340909,
                "end_time": 5.9045455,
                "pitch": 58,
                "velocity": 51,
                "duration": 0.2704545,
                "tempo": 120.0
            },
            {
                "start_time": 5.9045455,
                "end_time": 6.175,
                "pitch": 57,
                "velocity": 51,
                "duration": 0.2704545,
                "tempo": 120.0
            },
            {
                "start_time": 6.175,
                "end_time": 6.4431818,
                "pitch": 58,
                "velocity": 51,
                "duration": 0.2681818,
                "tempo": 120.0
            },
            {
                "start_time": 6.4431818,
                "end_time": 6.7136364,
                "pitch": 60,
                "velocity": 51,
                "duration": 0.2704545,
                "tempo": 120.0
            },
            {
                "start_time": 6.7136364,
                "end_time": 6.9818182,
                "pitch": 58,
                "velocity": 51,
                "duration": 0.2681818,
                "tempo": 120.0
            },
            {
                "start_time": 6.9840909,
                "end_time": 7.2522727,
                "pitch": 60,
                "velocity": 51,
                "duration": 0.2681818,
                "tempo": 120.0
            },
            {
                "start_time": 7.2522727,
                "end_time": 7.5181818,
                "pitch": 58,
                "velocity": 51,
                "duration": 0.2659091,
                "tempo": 120.0
            },
            {
                "start_time": 7.5204545,
                "end_time": 7.7840909,
                "pitch": 57,
                "velocity": 51,
                "duration": 0.2636364,
                "tempo": 120.0
            },
            {
                "start_time": 7.7863636,
                "end_time": 8.05,
                "pitch": 58,
                "velocity": 51,
                "duration": 0.2636364,
                "tempo": 120.0
            },
            {
                "start_time": 8.0522727,
                "end_time": 8.3159091,
                "pitch": 57,
                "velocity": 51,
                "duration": 0.2636364,
                "tempo": 120.0
            },
            {
                "start_time": 8.3181818,
                "end_time": 8.5818182,
                "pitch": 55,
                "velocity": 51,
                "duration": 0.2636364,
                "tempo": 120.0
            },
            {
                "start_time": 8.5840909,
                "end_time": 8.85,
                "pitch": 57,
                "velocity": 51,
                "duration": 0.2659091,
                "tempo": 120.0
            },
            {
                "start_time": 8.85,
                "end_time": 9.1159091,
                "pitch": 55,
                "velocity": 51,
                "duration": 0.2659091,
                "tempo": 120.0
            },
            {
                "start_time": 9.1159091,
                "end_time": 9.3818182,
                "pitch": 53,
                "velocity": 51,
                "duration": 0.2659091,
                "tempo": 120.0
            },
            {
                "start_time": 9.3818182,
                "end_time": 9.65,
                "pitch": 52,
                "velocity": 51,
                "duration": 0.2681818,
                "tempo": 120.0
            },
            {
                "start_time": 9.6522727,
                "end_time": 9.9204545,
                "pitch": 62,
                "velocity": 51,
                "duration": 0.2681818,
                "tempo": 120.0
            },
            {
                "start_time": 9.9204545,
                "end_time": 10.1909091,
                "pitch": 63,
                "velocity": 51,
                "duration": 0.2704545,
                "tempo": 120.0
            },
            {
                "start_time": 10.1909091,
                "end_time": 10.3886364,
                "pitch": 62,
                "velocity": 51,
                "duration": 0.1977273,
                "tempo": 120.0
            },
            {
                "start_time": 10.3909091,
                "end_time": 10.5863636,
                "pitch": 60,
                "velocity": 51,
                "duration": 0.1954545,
                "tempo": 120.0
            },
            {
                "start_time": 10.5886364,
                "end_time": 10.7863636,
                "pitch": 58,
                "velocity": 51,
                "duration": 0.1977273,
                "tempo": 120.0
            },
            {
                "start_time": 10.7863636,
                "end_time": 10.9886364,
                "pitch": 57,
                "velocity": 51,
                "duration": 0.2022727,
                "tempo": 120.0
            },
            {
                "start_time": 10.9886364,
                "end_time": 11.1909091,
                "pitch": 54,
                "velocity": 51,
                "duration": 0.2022727,
                "tempo": 120.0
            },
            {
                "start_time": 11.1931818,
                "end_time": 11.3954545,
                "pitch": 51,
                "velocity": 51,
                "duration": 0.2022727,
                "tempo": 120.0
            },
            {
                "start_time": 11.3954545,
                "end_time": 11.5954545,
                "pitch": 50,
                "velocity": 51,
                "duration": 0.2,
                "tempo": 120.0
            },
            {
                "start_time": 11.5954545,
                "end_time": 11.7954545,
                "pitch": 48,
                "velocity": 51,
                "duration": 0.2,
                "tempo": 120.0
            },
            {
                "start_time": 11.7954545,
                "end_time": 11.9954545,
                "pitch": 46,
                "velocity": 51,
                "duration": 0.2,
                "tempo": 120.0
            },
            {
                "start_time": 11.9954545,
                "end_time": 12.1954545,
                "pitch": 45,
                "velocity": 51,
                "duration": 0.2,
                "tempo": 120.0
            },
            {
                "start_time": 12.1977273,
                "end_time": 12.3977273,
                "pitch": 55,
                "velocity": 51,
                "duration": 0.2,
                "tempo": 120.0
            },
            {
                "start_time": 12.3977273,
                "end_time": 12.6,
                "pitch": 65,
                "velocity": 51,
                "duration": 0.2022727,
                "tempo": 120.0
            },
            {
                "start_time": 12.6,
                "end_time": 12.7977273,
                "pitch": 63,
                "velocity": 51,
                "duration": 0.1977273,
                "tempo": 120.0
            },
            {
                "start_time": 12.8,
                "end_time": 12.9977273,
                "pitch": 62,
                "velocity": 51,
                "duration": 0.1977273,
                "tempo": 120.0
            },
            {
                "start_time": 13.0,
                "end_time": 13.1977273,
                "pitch": 60,
                "velocity": 51,
                "duration": 0.1977273,
                "tempo": 120.0
            },
            {
                "start_time": 13.2,
                "end_time": 13.3977273,
                "pitch": 58,
                "velocity": 51,
                "duration": 0.1977273,
                "tempo": 120.0
            },
            {
                "start_time": 13.3977273,
                "end_time": 13.6136364,
                "pitch": 60,
                "velocity": 51,
                "duration": 0.2159091,
                "tempo": 120.0
            },
            {
                "start_time": 13.6136364,
                "end_time": 13.6636364,
                "pitch": 60,
                "velocity": 51,
                "duration": 0.05,
                "tempo": 120.0
            },
            {
                "start_time": 13.6136364,
                "end_time": 13.7477273,
                "pitch": 48,
                "velocity": 51,
                "duration": 0.1340909,
                "tempo": 120.0
            },
            {
                "start_time": 13.6636364,
                "end_time": 13.7477273,
                "pitch": 60,
                "velocity": 51,
                "duration": 0.0840909,
                "tempo": 120.0
            },
            {
                "start_time": 13.7477273,
                "end_time": 13.7977273,
                "pitch": 60,
                "velocity": 51,
                "duration": 0.05,
                "tempo": 120.0
            },
            {
                "start_time": 13.6636364,
                "end_time": 13.7977273,
                "pitch": 64,
                "velocity": 51,
                "duration": 0.1340909,
                "tempo": 120.0
            },
            {
                "start_time": 13.7477273,
                "end_time": 13.8795455,
                "pitch": 48,
                "velocity": 51,
                "duration": 0.1318182,
                "tempo": 120.0
            },
            {
                "start_time": 13.7977273,
                "end_time": 13.8795455,
                "pitch": 60,
                "velocity": 51,
                "duration": 0.0818182,
                "tempo": 120.0
            },
            {
                "start_time": 13.8795455,
                "end_time": 13.9295455,
                "pitch": 60,
                "velocity": 51,
                "duration": 0.05,
                "tempo": 120.0
            },
            {
                "start_time": 13.7977273,
                "end_time": 13.9295455,
                "pitch": 64,
                "velocity": 51,
                "duration": 0.1318182,
                "tempo": 120.0
            },
            {
                "start_time": 13.9295455,
                "end_time": 13.9931818,
                "pitch": 60,
                "velocity": 51,
                "duration": 0.0636364,
                "tempo": 120.0
            },
            {
                "start_time": 13.9954545,
                "end_time": 14.1909091,
                "pitch": 58,
                "velocity": 51,
                "duration": 0.1954545,
                "tempo": 120.0
            },
            {
                "start_time": 14.1931818,
                "end_time": 14.3909091,
                "pitch": 57,
                "velocity": 51,
                "duration": 0.1977273,
                "tempo": 120.0
            },
            {
                "start_time": 14.3909091,
                "end_time": 14.5931818,
                "pitch": 58,
                "velocity": 51,
                "duration": 0.2022727,
                "tempo": 120.0
            },
            {
                "start_time": 14.5931818,
                "end_time": 14.7954545,
                "pitch": 55,
                "velocity": 51,
                "duration": 0.2022727,
                "tempo": 120.0
            },
            {
                "start_time": 14.7977273,
                "end_time": 15.0,
                "pitch": 65,
                "velocity": 51,
                "duration": 0.2022727,
                "tempo": 120.0
            },
            {
                "start_time": 15.0,
                "end_time": 15.1977273,
                "pitch": 63,
                "velocity": 51,
                "duration": 0.1977273,
                "tempo": 120.0
            },
            {
                "start_time": 15.1977273,
                "end_time": 15.3954545,
                "pitch": 62,
                "velocity": 51,
                "duration": 0.1977273,
                "tempo": 120.0
            },
            {
                "start_time": 15.3954545,
                "end_time": 15.5931818,
                "pitch": 60,
                "velocity": 51,
                "duration": 0.1977273,
                "tempo": 120.0
            },
            {
                "start_time": 15.5931818,
                "end_time": 15.7931818,
                "pitch": 58,
                "velocity": 51,
                "duration": 0.2,
                "tempo": 120.0
            },
            {
                "start_time": 13.8795455,
                "end_time": 16.0136364,
                "pitch": 48,
                "velocity": 51,
                "duration": 2.1340909,
                "tempo": 120.0
            },
            {
                "start_time": 15.7954545,
                "end_time": 16.0136364,
                "pitch": 60,
                "velocity": 51,
                "duration": 0.2181818,
                "tempo": 120.0
            },
            {
                "start_time": 16.0136364,
                "end_time": 16.0636364,
                "pitch": 60,
                "velocity": 51,
                "duration": 0.05,
                "tempo": 120.0
            },
            {
                "start_time": 13.9295455,
                "end_time": 16.0636364,
                "pitch": 64,
                "velocity": 51,
                "duration": 2.1340909,
                "tempo": 120.0
            },
            {
                "start_time": 16.0636364,
                "end_time": 16.1477273,
                "pitch": 60,
                "velocity": 51,
                "duration": 0.0840909,
                "tempo": 120.0
            },
            {
                "start_time": 16.1477273,
                "end_time": 16.1977273,
                "pitch": 60,
                "velocity": 51,
                "duration": 0.05,
                "tempo": 120.0
            },
            {
                "start_time": 16.0636364,
                "end_time": 16.1977273,
                "pitch": 64,
                "velocity": 51,
                "duration": 0.1340909,
                "tempo": 120.0
            },
            {
                "start_time": 16.0136364,
                "end_time": 16.2818182,
                "pitch": 48,
                "velocity": 51,
                "duration": 0.2681818,
                "tempo": 120.0
            },
            {
                "start_time": 16.1977273,
                "end_time": 16.2818182,
                "pitch": 60,
                "velocity": 51,
                "duration": 0.0840909,
                "tempo": 120.0
            },
            {
                "start_time": 16.2818182,
                "end_time": 16.3295455,
                "pitch": 60,
                "velocity": 51,
                "duration": 0.0477273,
                "tempo": 120.0
            },
            {
                "start_time": 16.1977273,
                "end_time": 16.3318182,
                "pitch": 64,
                "velocity": 51,
                "duration": 0.1340909,
                "tempo": 120.0
            },
            {
                "start_time": 16.3295455,
                "end_time": 16.3318182,
                "pitch": 64,
                "velocity": 51,
                "duration": 0.0022727,
                "tempo": 120.0
            },
            {
                "start_time": 16.3318182,
                "end_time": 16.3977273,
                "pitch": 60,
                "velocity": 51,
                "duration": 0.0659091,
                "tempo": 120.0
            },
            {
                "start_time": 16.3977273,
                "end_time": 16.5977273,
                "pitch": 58,
                "velocity": 51,
                "duration": 0.2,
                "tempo": 120.0
            },
            {
                "start_time": 16.5977273,
                "end_time": 16.7977273,
                "pitch": 57,
                "velocity": 51,
                "duration": 0.2,
                "tempo": 120.0
            },
            {
                "start_time": 16.7977273,
                "end_time": 16.9954545,
                "pitch": 58,
                "velocity": 51,
                "duration": 0.1977273,
                "tempo": 120.0
            },
            {
                "start_time": 16.9954545,
                "end_time": 17.2113636,
                "pitch": 55,
                "velocity": 51,
                "duration": 0.2159091,
                "tempo": 120.0
            },
            {
                "start_time": 17.2113636,
                "end_time": 17.2613636,
                "pitch": 55,
                "velocity": 51,
                "duration": 0.05,
                "tempo": 120.0
            },
            {
                "start_time": 17.2613636,
                "end_time": 17.3454545,
                "pitch": 55,
                "velocity": 51,
                "duration": 0.0840909,
                "tempo": 120.0
            },
            {
                "start_time": 17.2113636,
                "end_time": 17.3454545,
                "pitch": 67,
                "velocity": 51,
                "duration": 0.1340909,
                "tempo": 120.0
            },
            {
                "start_time": 17.2613636,
                "end_time": 17.3954545,
                "pitch": 0,
                "velocity": 51,
                "duration": 0.1340909,
                "tempo": 120.0
            },
            {
                "start_time": 17.3454545,
                "end_time": 17.3954545,
                "pitch": 55,
                "velocity": 51,
                "duration": 0.05,
                "tempo": 120.0
            },
            {
                "start_time": 17.3954545,
                "end_time": 17.4772727,
                "pitch": 55,
                "velocity": 51,
                "duration": 0.0818182,
                "tempo": 120.0
            },
            {
                "start_time": 17.3454545,
                "end_time": 17.4772727,
                "pitch": 67,
                "velocity": 51,
                "duration": 0.1318182,
                "tempo": 120.0
            },
            {
                "start_time": 17.3954545,
                "end_time": 17.5272727,
                "pitch": 0,
                "velocity": 51,
                "duration": 0.1318182,
                "tempo": 120.0
            },
            {
                "start_time": 17.4772727,
                "end_time": 17.5272727,
                "pitch": 55,
                "velocity": 51,
                "duration": 0.05,
                "tempo": 120.0
            },
            {
                "start_time": 17.5272727,
                "end_time": 17.6113636,
                "pitch": 55,
                "velocity": 51,
                "duration": 0.0840909,
                "tempo": 120.0
            },
            {
                "start_time": 17.4772727,
                "end_time": 17.6113636,
                "pitch": 67,
                "velocity": 51,
                "duration": 0.1340909,
                "tempo": 120.0
            },
            {
                "start_time": 17.5272727,
                "end_time": 17.6613636,
                "pitch": 0,
                "velocity": 51,
                "duration": 0.1340909,
                "tempo": 120.0
            },
            {
                "start_time": 17.6113636,
                "end_time": 17.6613636,
                "pitch": 55,
                "velocity": 51,
                "duration": 0.05,
                "tempo": 120.0
            },
            {
                "start_time": 17.6613636,
                "end_time": 17.7454545,
                "pitch": 55,
                "velocity": 51,
                "duration": 0.0840909,
                "tempo": 120.0
            },
            {
                "start_time": 17.6113636,
                "end_time": 17.7454545,
                "pitch": 67,
                "velocity": 51,
                "duration": 0.1340909,
                "tempo": 120.0
            },
            {
                "start_time": 17.6613636,
                "end_time": 17.7931818,
                "pitch": 0,
                "velocity": 51,
                "duration": 0.1318182,
                "tempo": 120.0
            },
            {
                "start_time": 17.7454545,
                "end_time": 17.7931818,
                "pitch": 55,
                "velocity": 51,
                "duration": 0.0477273,
                "tempo": 120.0
            },
            {
                "start_time": 17.7931818,
                "end_time": 17.8772727,
                "pitch": 55,
                "velocity": 51,
                "duration": 0.0840909,
                "tempo": 120.0
            },
            {
                "start_time": 17.7454545,
                "end_time": 17.8772727,
                "pitch": 67,
                "velocity": 51,
                "duration": 0.1318182,
                "tempo": 120.0
            },
            {
                "start_time": 17.7931818,
                "end_time": 17.9272727,
                "pitch": 0,
                "velocity": 51,
                "duration": 0.1340909,
                "tempo": 120.0
            },
            {
                "start_time": 17.8772727,
                "end_time": 17.9272727,
                "pitch": 55,
                "velocity": 51,
                "duration": 0.05,
                "tempo": 120.0
            },
            {
                "start_time": 17.9272727,
                "end_time": 18.0113636,
                "pitch": 55,
                "velocity": 51,
                "duration": 0.0840909,
                "tempo": 120.0
            },
            {
                "start_time": 17.8772727,
                "end_time": 18.0113636,
                "pitch": 67,
                "velocity": 51,
                "duration": 0.1340909,
                "tempo": 120.0
            },
            {
                "start_time": 17.9272727,
                "end_time": 18.0613636,
                "pitch": 0,
                "velocity": 51,
                "duration": 0.1340909,
                "tempo": 120.0
            },
            {
                "start_time": 18.0113636,
                "end_time": 18.0613636,
                "pitch": 55,
                "velocity": 51,
                "duration": 0.05,
                "tempo": 120.0
            },
            {
                "start_time": 18.0613636,
                "end_time": 18.1431818,
                "pitch": 55,
                "velocity": 51,
                "duration": 0.0818182,
                "tempo": 120.0
            },
            {
                "start_time": 18.0113636,
                "end_time": 18.1431818,
                "pitch": 67,
                "velocity": 51,
                "duration": 0.1318182,
                "tempo": 120.0
            },
            {
                "start_time": 18.0613636,
                "end_time": 18.1931818,
                "pitch": 0,
                "velocity": 51,
                "duration": 0.1318182,
                "tempo": 120.0
            },
            {
                "start_time": 18.1431818,
                "end_time": 18.1931818,
                "pitch": 55,
                "velocity": 51,
                "duration": 0.05,
                "tempo": 120.0
            },
            {
                "start_time": 18.1931818,
                "end_time": 18.2772727,
                "pitch": 55,
                "velocity": 51,
                "duration": 0.0840909,
                "tempo": 120.0
            },
            {
                "start_time": 18.1431818,
                "end_time": 18.2772727,
                "pitch": 67,
                "velocity": 51,
                "duration": 0.1340909,
                "tempo": 120.0
            },
            {
                "start_time": 18.1931818,
                "end_time": 18.3272727,
                "pitch": 0,
                "velocity": 51,
                "duration": 0.1340909,
                "tempo": 120.0
            },
            {
                "start_time": 18.2772727,
                "end_time": 18.3272727,
                "pitch": 55,
                "velocity": 51,
                "duration": 0.05,
                "tempo": 120.0
            },
            {
                "start_time": 18.3272727,
                "end_time": 18.4090909,
                "pitch": 55,
                "velocity": 51,
                "duration": 0.0818182,
                "tempo": 120.0
            },
            {
                "start_time": 18.2772727,
                "end_time": 18.4090909,
                "pitch": 67,
                "velocity": 51,
                "duration": 0.1318182,
                "tempo": 120.0
            },
            {
                "start_time": 18.3272727,
                "end_time": 18.4590909,
                "pitch": 0,
                "velocity": 51,
                "duration": 0.1318182,
                "tempo": 120.0
            },
            {
                "start_time": 18.4090909,
                "end_time": 18.4590909,
                "pitch": 55,
                "velocity": 51,
                "duration": 0.05,
                "tempo": 120.0
            },
            {
                "start_time": 18.4590909,
                "end_time": 18.5431818,
                "pitch": 55,
                "velocity": 51,
                "duration": 0.0840909,
                "tempo": 120.0
            },
            {
                "start_time": 18.4090909,
                "end_time": 18.5431818,
                "pitch": 67,
                "velocity": 51,
                "duration": 0.1340909,
                "tempo": 120.0
            },
            {
                "start_time": 18.4590909,
                "end_time": 18.5931818,
                "pitch": 0,
                "velocity": 51,
                "duration": 0.1340909,
                "tempo": 120.0
            },
            {
                "start_time": 18.5431818,
                "end_time": 18.5931818,
                "pitch": 55,
                "velocity": 51,
                "duration": 0.05,
                "tempo": 120.0
            },
            {
                "start_time": 18.5931818,
                "end_time": 18.675,
                "pitch": 55,
                "velocity": 51,
                "duration": 0.0818182,
                "tempo": 120.0
            },
            {
                "start_time": 18.5431818,
                "end_time": 18.675,
                "pitch": 67,
                "velocity": 51,
                "duration": 0.1318182,
                "tempo": 120.0
            },
            {
                "start_time": 18.5931818,
                "end_time": 18.725,
                "pitch": 0,
                "velocity": 51,
                "duration": 0.1318182,
                "tempo": 120.0
            },
            {
                "start_time": 18.675,
                "end_time": 18.725,
                "pitch": 55,
                "velocity": 51,
                "duration": 0.05,
                "tempo": 120.0
            },
            {
                "start_time": 18.725,
                "end_time": 18.8090909,
                "pitch": 55,
                "velocity": 51,
                "duration": 0.0840909,
                "tempo": 120.0
            },
            {
                "start_time": 18.675,
                "end_time": 18.8090909,
                "pitch": 67,
                "velocity": 51,
                "duration": 0.1340909,
                "tempo": 120.0
            },
            {
                "start_time": 18.725,
                "end_time": 18.8590909,
                "pitch": 0,
                "velocity": 51,
                "duration": 0.1340909,
                "tempo": 120.0
            },
            {
                "start_time": 18.8090909,
                "end_time": 18.8590909,
                "pitch": 55,
                "velocity": 51,
                "duration": 0.05,
                "tempo": 120.0
            },
            {
                "start_time": 18.8590909,
                "end_time": 18.9409091,
                "pitch": 55,
                "velocity": 51,
                "duration": 0.0818182,
                "tempo": 120.0
            },
            {
                "start_time": 18.8090909,
                "end_time": 18.9409091,
                "pitch": 67,
                "velocity": 51,
                "duration": 0.1318182,
                "tempo": 120.0
            },
            {
                "start_time": 18.8590909,
                "end_time": 18.9909091,
                "pitch": 0,
                "velocity": 51,
                "duration": 0.1318182,
                "tempo": 120.0
            },
            {
                "start_time": 18.9409091,
                "end_time": 18.9909091,
                "pitch": 55,
                "velocity": 51,
                "duration": 0.05,
                "tempo": 120.0
            },
            {
                "start_time": 18.9909091,
                "end_time": 19.075,
                "pitch": 55,
                "velocity": 51,
                "duration": 0.0840909,
                "tempo": 120.0
            },
            {
                "start_time": 18.9409091,
                "end_time": 19.075,
                "pitch": 67,
                "velocity": 51,
                "duration": 0.1340909,
                "tempo": 120.0
            },
            {
                "start_time": 18.9909091,
                "end_time": 19.125,
                "pitch": 0,
                "velocity": 51,
                "duration": 0.1340909,
                "tempo": 120.0
            },
            {
                "start_time": 19.075,
                "end_time": 19.125,
                "pitch": 55,
                "velocity": 51,
                "duration": 0.05,
                "tempo": 120.0
            },
            {
                "start_time": 19.125,
                "end_time": 19.2068182,
                "pitch": 55,
                "velocity": 51,
                "duration": 0.0818182,
                "tempo": 120.0
            },
            {
                "start_time": 19.075,
                "end_time": 19.2068182,
                "pitch": 67,
                "velocity": 51,
                "duration": 0.1318182,
                "tempo": 120.0
            },
            {
                "start_time": 19.125,
                "end_time": 19.2568182,
                "pitch": 0,
                "velocity": 51,
                "duration": 0.1318182,
                "tempo": 120.0
            },
            {
                "start_time": 19.2068182,
                "end_time": 19.2568182,
                "pitch": 55,
                "velocity": 51,
                "duration": 0.05,
                "tempo": 120.0
            },
            {
                "start_time": 19.2568182,
                "end_time": 19.3386364,
                "pitch": 55,
                "velocity": 51,
                "duration": 0.0818182,
                "tempo": 120.0
            },
            {
                "start_time": 19.3386364,
                "end_time": 19.3886364,
                "pitch": 55,
                "velocity": 51,
                "duration": 0.05,
                "tempo": 120.0
            },
            {
                "start_time": 19.3886364,
                "end_time": 19.5863636,
                "pitch": 63,
                "velocity": 51,
                "duration": 0.1977273,
                "tempo": 120.0
            },
            {
                "start_time": 19.5863636,
                "end_time": 19.7840909,
                "pitch": 62,
                "velocity": 51,
                "duration": 0.1977273,
                "tempo": 120.0
            },
            {
                "start_time": 19.7840909,
                "end_time": 19.9840909,
                "pitch": 60,
                "velocity": 51,
                "duration": 0.2,
                "tempo": 120.0
            },
            {
                "start_time": 19.9863636,
                "end_time": 20.1863636,
                "pitch": 62,
                "velocity": 51,
                "duration": 0.2,
                "tempo": 120.0
            },
            {
                "start_time": 20.1863636,
                "end_time": 20.3886364,
                "pitch": 65,
                "velocity": 51,
                "duration": 0.2022727,
                "tempo": 120.0
            },
            {
                "start_time": 19.2068182,
                "end_time": 20.5886364,
                "pitch": 67,
                "velocity": 51,
                "duration": 1.3818182,
                "tempo": 120.0
            },
            {
                "start_time": 20.3886364,
                "end_time": 20.5886364,
                "pitch": 67,
                "velocity": 51,
                "duration": 0.2,
                "tempo": 120.0
            },
            {
                "start_time": 20.5909091,
                "end_time": 20.7909091,
                "pitch": 69,
                "velocity": 51,
                "duration": 0.2,
                "tempo": 120.0
            },
            {
                "start_time": 20.7909091,
                "end_time": 20.9931818,
                "pitch": 70,
                "velocity": 51,
                "duration": 0.2022727,
                "tempo": 120.0
            },
            {
                "start_time": 20.9931818,
                "end_time": 21.1931818,
                "pitch": 69,
                "velocity": 51,
                "duration": 0.2,
                "tempo": 120.0
            },
            {
                "start_time": 21.1931818,
                "end_time": 21.3931818,
                "pitch": 66,
                "velocity": 51,
                "duration": 0.2,
                "tempo": 120.0
            },
            {
                "start_time": 21.3931818,
                "end_time": 21.5931818,
                "pitch": 62,
                "velocity": 51,
                "duration": 0.2,
                "tempo": 120.0
            },
            {
                "start_time": 21.5931818,
                "end_time": 21.7931818,
                "pitch": 60,
                "velocity": 51,
                "duration": 0.2,
                "tempo": 120.0
            },
            {
                "start_time": 21.7931818,
                "end_time": 21.9954545,
                "pitch": 55,
                "velocity": 51,
                "duration": 0.2022727,
                "tempo": 120.0
            },
            {
                "start_time": 21.9954545,
                "end_time": 22.1954545,
                "pitch": 65,
                "velocity": 51,
                "duration": 0.2,
                "tempo": 120.0
            },
            {
                "start_time": 22.1977273,
                "end_time": 22.3954545,
                "pitch": 63,
                "velocity": 51,
                "duration": 0.1977273,
                "tempo": 120.0
            },
            {
                "start_time": 22.3977273,
                "end_time": 22.5954545,
                "pitch": 62,
                "velocity": 51,
                "duration": 0.1977273,
                "tempo": 120.0
            },
            {
                "start_time": 22.5954545,
                "end_time": 22.7954545,
                "pitch": 60,
                "velocity": 51,
                "duration": 0.2,
                "tempo": 120.0
            },
            {
                "start_time": 22.7954545,
                "end_time": 22.9954545,
                "pitch": 58,
                "velocity": 51,
                "duration": 0.2,
                "tempo": 120.0
            },
            {
                "start_time": 16.2818182,
                "end_time": 23.2159091,
                "pitch": 48,
                "velocity": 51,
                "duration": 6.9340909,
                "tempo": 120.0
            },
            {
                "start_time": 22.9977273,
                "end_time": 23.2159091,
                "pitch": 60,
                "velocity": 51,
                "duration": 0.2181818,
                "tempo": 120.0
            },
            {
                "start_time": 23.2159091,
                "end_time": 23.2659091,
                "pitch": 60,
                "velocity": 51,
                "duration": 0.05,
                "tempo": 120.0
            },
            {
                "start_time": 23.2159091,
                "end_time": 23.35,
                "pitch": 48,
                "velocity": 51,
                "duration": 0.1340909,
                "tempo": 120.0
            },
            {
                "start_time": 23.2659091,
                "end_time": 23.35,
                "pitch": 60,
                "velocity": 51,
                "duration": 0.0840909,
                "tempo": 120.0
            },
            {
                "start_time": 23.35,
                "end_time": 23.4,
                "pitch": 60,
                "velocity": 51,
                "duration": 0.05,
                "tempo": 120.0
            },
            {
                "start_time": 23.2659091,
                "end_time": 23.4,
                "pitch": 64,
                "velocity": 51,
                "duration": 0.1340909,
                "tempo": 120.0
            },
            {
                "start_time": 23.35,
                "end_time": 23.4818182,
                "pitch": 48,
                "velocity": 51,
                "duration": 0.1318182,
                "tempo": 120.0
            },
            {
                "start_time": 23.4,
                "end_time": 23.4818182,
                "pitch": 60,
                "velocity": 51,
                "duration": 0.0818182,
                "tempo": 120.0
            },
            {
                "start_time": 23.4818182,
                "end_time": 23.5318182,
                "pitch": 60,
                "velocity": 51,
                "duration": 0.05,
                "tempo": 120.0
            },
            {
                "start_time": 23.4,
                "end_time": 23.5318182,
                "pitch": 64,
                "velocity": 51,
                "duration": 0.1318182,
                "tempo": 120.0
            },
            {
                "start_time": 23.5318182,
                "end_time": 23.5977273,
                "pitch": 60,
                "velocity": 51,
                "duration": 0.0659091,
                "tempo": 120.0
            },
            {
                "start_time": 23.5977273,
                "end_time": 23.7954545,
                "pitch": 58,
                "velocity": 51,
                "duration": 0.1977273,
                "tempo": 120.0
            },
            {
                "start_time": 23.7954545,
                "end_time": 23.9931818,
                "pitch": 57,
                "velocity": 51,
                "duration": 0.1977273,
                "tempo": 120.0
            },
            {
                "start_time": 23.9931818,
                "end_time": 24.1931818,
                "pitch": 58,
                "velocity": 51,
                "duration": 0.2,
                "tempo": 120.0
            },
            {
                "start_time": 24.1954545,
                "end_time": 24.3954545,
                "pitch": 55,
                "velocity": 51,
                "duration": 0.2,
                "tempo": 120.0
            },
            {
                "start_time": 24.3954545,
                "end_time": 24.5977273,
                "pitch": 65,
                "velocity": 51,
                "duration": 0.2022727,
                "tempo": 120.0
            },
            {
                "start_time": 24.5977273,
                "end_time": 24.7977273,
                "pitch": 63,
                "velocity": 51,
                "duration": 0.2,
                "tempo": 120.0
            },
            {
                "start_time": 24.7977273,
                "end_time": 24.9977273,
                "pitch": 62,
                "velocity": 51,
                "duration": 0.2,
                "tempo": 120.0
            },
            {
                "start_time": 24.9977273,
                "end_time": 25.1954545,
                "pitch": 60,
                "velocity": 51,
                "duration": 0.1977273,
                "tempo": 120.0
            },
            {
                "start_time": 25.1977273,
                "end_time": 25.3977273,
                "pitch": 58,
                "velocity": 51,
                "duration": 0.2,
                "tempo": 120.0
            },
            {
                "start_time": 23.4818182,
                "end_time": 25.6159091,
                "pitch": 48,
                "velocity": 51,
                "duration": 2.1340909,
                "tempo": 120.0
            },
            {
                "start_time": 25.3977273,
                "end_time": 25.6159091,
                "pitch": 60,
                "velocity": 51,
                "duration": 0.2181818,
                "tempo": 120.0
            },
            {
                "start_time": 25.6159091,
                "end_time": 25.6659091,
                "pitch": 60,
                "velocity": 51,
                "duration": 0.05,
                "tempo": 120.0
            },
            {
                "start_time": 23.5318182,
                "end_time": 25.6659091,
                "pitch": 64,
                "velocity": 51,
                "duration": 2.1340909,
                "tempo": 120.0
            },
            {
                "start_time": 25.6659091,
                "end_time": 25.75,
                "pitch": 60,
                "velocity": 51,
                "duration": 0.0840909,
                "tempo": 120.0
            },
            {
                "start_time": 25.75,
                "end_time": 25.8022727,
                "pitch": 60,
                "velocity": 51,
                "duration": 0.0522727,
                "tempo": 120.0
            },
            {
                "start_time": 25.6659091,
                "end_time": 25.8022727,
                "pitch": 64,
                "velocity": 51,
                "duration": 0.1363636,
                "tempo": 120.0
            },
            {
                "start_time": 25.6159091,
                "end_time": 25.8840909,
                "pitch": 48,
                "velocity": 51,
                "duration": 0.2681818,
                "tempo": 120.0
            },
            {
                "start_time": 25.8022727,
                "end_time": 25.8840909,
                "pitch": 60,
                "velocity": 51,
                "duration": 0.0818182,
                "tempo": 120.0
            },
            {
                "start_time": 25.8840909,
                "end_time": 25.9340909,
                "pitch": 60,
                "velocity": 51,
                "duration": 0.05,
                "tempo": 120.0
            },
            {
                "start_time": 25.8022727,
                "end_time": 25.9340909,
                "pitch": 64,
                "velocity": 51,
                "duration": 0.1318182,
                "tempo": 120.0
            },
            {
                "start_time": 25.9340909,
                "end_time": 26.0,
                "pitch": 60,
                "velocity": 51,
                "duration": 0.0659091,
                "tempo": 120.0
            },
            {
                "start_time": 26.0022727,
                "end_time": 26.2,
                "pitch": 58,
                "velocity": 51,
                "duration": 0.1977273,
                "tempo": 120.0
            },
            {
                "start_time": 26.2,
                "end_time": 26.4,
                "pitch": 57,
                "velocity": 51,
                "duration": 0.2,
                "tempo": 120.0
            },
            {
                "start_time": 26.4,
                "end_time": 26.6,
                "pitch": 58,
                "velocity": 51,
                "duration": 0.2,
                "tempo": 120.0
            },
            {
                "start_time": 26.6022727,
                "end_time": 26.8204545,
                "pitch": 55,
                "velocity": 51,
                "duration": 0.2181818,
                "tempo": 120.0
            },
            {
                "start_time": 19.2568182,
                "end_time": 26.8704545,
                "pitch": 0,
                "velocity": 51,
                "duration": 7.6136364,
                "tempo": 120.0
            },
            {
                "start_time": 26.8204545,
                "end_time": 26.8704545,
                "pitch": 55,
                "velocity": 51,
                "duration": 0.05,
                "tempo": 120.0
            },
            {
                "start_time": 26.8704545,
                "end_time": 26.9545455,
                "pitch": 55,
                "velocity": 51,
                "duration": 0.0840909,
                "tempo": 120.0
            },
            {
                "start_time": 26.8204545,
                "end_time": 26.9545455,
                "pitch": 67,
                "velocity": 51,
                "duration": 0.1340909,
                "tempo": 120.0
            },
            {
                "start_time": 26.8704545,
                "end_time": 27.0045455,
                "pitch": 0,
                "velocity": 51,
                "duration": 0.1340909,
                "tempo": 120.0
            },
            {
                "start_time": 26.9545455,
                "end_time": 27.0045455,
                "pitch": 55,
                "velocity": 51,
                "duration": 0.05,
                "tempo": 120.0
            },
            {
                "start_time": 27.0045455,
                "end_time": 27.0886364,
                "pitch": 55,
                "velocity": 51,
                "duration": 0.0840909,
                "tempo": 120.0
            },
            {
                "start_time": 26.9545455,
                "end_time": 27.0886364,
                "pitch": 67,
                "velocity": 51,
                "duration": 0.1340909,
                "tempo": 120.0
            },
            {
                "start_time": 27.0045455,
                "end_time": 27.1386364,
                "pitch": 0,
                "velocity": 51,
                "duration": 0.1340909,
                "tempo": 120.0
            },
            {
                "start_time": 27.0886364,
                "end_time": 27.1386364,
                "pitch": 55,
                "velocity": 51,
                "duration": 0.05,
                "tempo": 120.0
            },
            {
                "start_time": 27.1386364,
                "end_time": 27.2227273,
                "pitch": 55,
                "velocity": 51,
                "duration": 0.0840909,
                "tempo": 120.0
            },
            {
                "start_time": 27.0886364,
                "end_time": 27.2227273,
                "pitch": 67,
                "velocity": 51,
                "duration": 0.1340909,
                "tempo": 120.0
            },
            {
                "start_time": 27.1386364,
                "end_time": 27.2727273,
                "pitch": 0,
                "velocity": 51,
                "duration": 0.1340909,
                "tempo": 120.0
            },
            {
                "start_time": 27.2227273,
                "end_time": 27.2727273,
                "pitch": 55,
                "velocity": 51,
                "duration": 0.05,
                "tempo": 120.0
            },
            {
                "start_time": 27.2727273,
                "end_time": 27.3568182,
                "pitch": 55,
                "velocity": 51,
                "duration": 0.0840909,
                "tempo": 120.0
            },
            {
                "start_time": 27.2227273,
                "end_time": 27.3568182,
                "pitch": 67,
                "velocity": 51,
                "duration": 0.1340909,
                "tempo": 120.0
            },
            {
                "start_time": 27.2727273,
                "end_time": 27.4068182,
                "pitch": 0,
                "velocity": 51,
                "duration": 0.1340909,
                "tempo": 120.0
            },
            {
                "start_time": 27.3568182,
                "end_time": 27.4068182,
                "pitch": 55,
                "velocity": 51,
                "duration": 0.05,
                "tempo": 120.0
            },
            {
                "start_time": 27.4068182,
                "end_time": 27.4909091,
                "pitch": 55,
                "velocity": 51,
                "duration": 0.0840909,
                "tempo": 120.0
            },
            {
                "start_time": 27.3568182,
                "end_time": 27.4909091,
                "pitch": 67,
                "velocity": 51,
                "duration": 0.1340909,
                "tempo": 120.0
            },
            {
                "start_time": 27.4068182,
                "end_time": 27.5409091,
                "pitch": 0,
                "velocity": 51,
                "duration": 0.1340909,
                "tempo": 120.0
            },
            {
                "start_time": 27.4909091,
                "end_time": 27.5409091,
                "pitch": 55,
                "velocity": 51,
                "duration": 0.05,
                "tempo": 120.0
            },
            {
                "start_time": 27.5409091,
                "end_time": 27.625,
                "pitch": 55,
                "velocity": 51,
                "duration": 0.0840909,
                "tempo": 120.0
            },
            {
                "start_time": 27.4909091,
                "end_time": 27.625,
                "pitch": 67,
                "velocity": 51,
                "duration": 0.1340909,
                "tempo": 120.0
            },
            {
                "start_time": 27.5409091,
                "end_time": 27.675,
                "pitch": 0,
                "velocity": 51,
                "duration": 0.1340909,
                "tempo": 120.0
            },
            {
                "start_time": 27.625,
                "end_time": 27.675,
                "pitch": 55,
                "velocity": 51,
                "duration": 0.05,
                "tempo": 120.0
            },
            {
                "start_time": 27.675,
                "end_time": 27.7568182,
                "pitch": 55,
                "velocity": 51,
                "duration": 0.0818182,
                "tempo": 120.0
            },
            {
                "start_time": 27.625,
                "end_time": 27.7568182,
                "pitch": 67,
                "velocity": 51,
                "duration": 0.1318182,
                "tempo": 120.0
            },
            {
                "start_time": 27.675,
                "end_time": 27.8068182,
                "pitch": 0,
                "velocity": 51,
                "duration": 0.1318182,
                "tempo": 120.0
            },
            {
                "start_time": 27.7568182,
                "end_time": 27.8068182,
                "pitch": 55,
                "velocity": 51,
                "duration": 0.05,
                "tempo": 120.0
            },
            {
                "start_time": 27.8068182,
                "end_time": 27.8886364,
                "pitch": 55,
                "velocity": 51,
                "duration": 0.0818182,
                "tempo": 120.0
            },
            {
                "start_time": 27.7568182,
                "end_time": 27.8886364,
                "pitch": 67,
                "velocity": 51,
                "duration": 0.1318182,
                "tempo": 120.0
            },
            {
                "start_time": 27.8068182,
                "end_time": 27.9386364,
                "pitch": 0,
                "velocity": 51,
                "duration": 0.1318182,
                "tempo": 120.0
            },
            {
                "start_time": 27.8886364,
                "end_time": 27.9386364,
                "pitch": 55,
                "velocity": 51,
                "duration": 0.05,
                "tempo": 120.0
            },
            {
                "start_time": 27.9386364,
                "end_time": 28.0204545,
                "pitch": 55,
                "velocity": 51,
                "duration": 0.0818182,
                "tempo": 120.0
            },
            {
                "start_time": 27.8886364,
                "end_time": 28.0204545,
                "pitch": 67,
                "velocity": 51,
                "duration": 0.1318182,
                "tempo": 120.0
            },
            {
                "start_time": 27.9386364,
                "end_time": 28.0704545,
                "pitch": 0,
                "velocity": 51,
                "duration": 0.1318182,
                "tempo": 120.0
            },
            {
                "start_time": 28.0204545,
                "end_time": 28.0704545,
                "pitch": 55,
                "velocity": 51,
                "duration": 0.05,
                "tempo": 120.0
            },
            {
                "start_time": 28.0704545,
                "end_time": 28.1522727,
                "pitch": 55,
                "velocity": 51,
                "duration": 0.0818182,
                "tempo": 120.0
            },
            {
                "start_time": 28.0204545,
                "end_time": 28.1522727,
                "pitch": 67,
                "velocity": 51,
                "duration": 0.1318182,
                "tempo": 120.0
            },
            {
                "start_time": 28.0704545,
                "end_time": 28.2022727,
                "pitch": 0,
                "velocity": 51,
                "duration": 0.1318182,
                "tempo": 120.0
            },
            {
                "start_time": 28.1522727,
                "end_time": 28.2022727,
                "pitch": 55,
                "velocity": 51,
                "duration": 0.05,
                "tempo": 120.0
            },
            {
                "start_time": 28.2022727,
                "end_time": 28.2840909,
                "pitch": 55,
                "velocity": 51,
                "duration": 0.0818182,
                "tempo": 120.0
            },
            {
                "start_time": 28.1522727,
                "end_time": 28.2840909,
                "pitch": 67,
                "velocity": 51,
                "duration": 0.1318182,
                "tempo": 120.0
            },
            {
                "start_time": 28.2022727,
                "end_time": 28.3340909,
                "pitch": 0,
                "velocity": 51,
                "duration": 0.1318182,
                "tempo": 120.0
            },
            {
                "start_time": 28.2840909,
                "end_time": 28.3340909,
                "pitch": 55,
                "velocity": 51,
                "duration": 0.05,
                "tempo": 120.0
            },
            {
                "start_time": 28.3340909,
                "end_time": 28.4181818,
                "pitch": 55,
                "velocity": 51,
                "duration": 0.0840909,
                "tempo": 120.0
            },
            {
                "start_time": 28.2840909,
                "end_time": 28.4181818,
                "pitch": 67,
                "velocity": 51,
                "duration": 0.1340909,
                "tempo": 120.0
            },
            {
                "start_time": 28.3340909,
                "end_time": 28.4681818,
                "pitch": 0,
                "velocity": 51,
                "duration": 0.1340909,
                "tempo": 120.0
            },
            {
                "start_time": 28.4181818,
                "end_time": 28.4681818,
                "pitch": 55,
                "velocity": 51,
                "duration": 0.05,
                "tempo": 120.0
            },
            {
                "start_time": 28.4681818,
                "end_time": 28.55,
                "pitch": 55,
                "velocity": 51,
                "duration": 0.0818182,
                "tempo": 120.0
            },
            {
                "start_time": 28.4181818,
                "end_time": 28.55,
                "pitch": 67,
                "velocity": 51,
                "duration": 0.1318182,
                "tempo": 120.0
            },
            {
                "start_time": 28.4681818,
                "end_time": 28.6,
                "pitch": 0,
                "velocity": 51,
                "duration": 0.1318182,
                "tempo": 120.0
            },
            {
                "start_time": 28.55,
                "end_time": 28.6,
                "pitch": 55,
                "velocity": 51,
                "duration": 0.05,
                "tempo": 120.0
            },
            {
                "start_time": 28.6,
                "end_time": 28.6840909,
                "pitch": 55,
                "velocity": 51,
                "duration": 0.0840909,
                "tempo": 120.0
            },
            {
                "start_time": 28.55,
                "end_time": 28.6840909,
                "pitch": 67,
                "velocity": 51,
                "duration": 0.1340909,
                "tempo": 120.0
            },
            {
                "start_time": 28.6,
                "end_time": 28.7340909,
                "pitch": 0,
                "velocity": 51,
                "duration": 0.1340909,
                "tempo": 120.0
            },
            {
                "start_time": 28.6840909,
                "end_time": 28.7340909,
                "pitch": 55,
                "velocity": 51,
                "duration": 0.05,
                "tempo": 120.0
            },
            {
                "start_time": 28.7340909,
                "end_time": 28.8159091,
                "pitch": 55,
                "velocity": 51,
                "duration": 0.0818182,
                "tempo": 120.0
            },
            {
                "start_time": 28.6840909,
                "end_time": 28.8159091,
                "pitch": 67,
                "velocity": 51,
                "duration": 0.1318182,
                "tempo": 120.0
            },
            {
                "start_time": 28.7340909,
                "end_time": 28.8681818,
                "pitch": 0,
                "velocity": 51,
                "duration": 0.1340909,
                "tempo": 120.0
            },
            {
                "start_time": 28.8159091,
                "end_time": 28.8681818,
                "pitch": 55,
                "velocity": 51,
                "duration": 0.0522727,
                "tempo": 120.0
            },
            {
                "start_time": 28.8681818,
                "end_time": 28.9522727,
                "pitch": 55,
                "velocity": 51,
                "duration": 0.0840909,
                "tempo": 120.0
            },
            {
                "start_time": 28.9522727,
                "end_time": 29.0022727,
                "pitch": 55,
                "velocity": 51,
                "duration": 0.05,
                "tempo": 120.0
            },
            {
                "start_time": 29.0022727,
                "end_time": 29.2022727,
                "pitch": 63,
                "velocity": 51,
                "duration": 0.2,
                "tempo": 120.0
            },
            {
                "start_time": 29.2045455,
                "end_time": 29.4045455,
                "pitch": 62,
                "velocity": 51,
                "duration": 0.2,
                "tempo": 120.0
            },
            {
                "start_time": 29.4068182,
                "end_time": 29.6045455,
                "pitch": 60,
                "velocity": 51,
                "duration": 0.1977273,
                "tempo": 120.0
            },
            {
                "start_time": 29.6045455,
                "end_time": 29.8045455,
                "pitch": 62,
                "velocity": 51,
                "duration": 0.2,
                "tempo": 120.0
            },
            {
                "start_time": 29.8045455,
                "end_time": 30.0045455,
                "pitch": 65,
                "velocity": 51,
                "duration": 0.2,
                "tempo": 120.0
            },
            {
                "start_time": 28.8159091,
                "end_time": 30.2045455,
                "pitch": 67,
                "velocity": 51,
                "duration": 1.3886364,
                "tempo": 120.0
            },
            {
                "start_time": 30.0045455,
                "end_time": 30.2045455,
                "pitch": 67,
                "velocity": 51,
                "duration": 0.2,
                "tempo": 120.0
            },
            {
                "start_time": 30.2068182,
                "end_time": 30.4068182,
                "pitch": 69,
                "velocity": 51,
                "duration": 0.2,
                "tempo": 120.0
            },
            {
                "start_time": 30.4068182,
                "end_time": 30.6090909,
                "pitch": 66,
                "velocity": 51,
                "duration": 0.2022727,
                "tempo": 120.0
            },
            {
                "start_time": 30.6090909,
                "end_time": 30.8090909,
                "pitch": 62,
                "velocity": 51,
                "duration": 0.2,
                "tempo": 120.0
            },
            {
                "start_time": 30.8113636,
                "end_time": 31.0113636,
                "pitch": 60,
                "velocity": 51,
                "duration": 0.2,
                "tempo": 120.0
            },
            {
                "start_time": 31.0113636,
                "end_time": 31.2136364,
                "pitch": 58,
                "velocity": 51,
                "duration": 0.2022727,
                "tempo": 120.0
            },
            {
                "start_time": 31.2136364,
                "end_time": 31.4136364,
                "pitch": 57,
                "velocity": 51,
                "duration": 0.2,
                "tempo": 120.0
            },
            {
                "start_time": 31.4136364,
                "end_time": 31.6113636,
                "pitch": 58,
                "velocity": 51,
                "duration": 0.1977273,
                "tempo": 120.0
            },
            {
                "start_time": 31.6136364,
                "end_time": 31.8113636,
                "pitch": 55,
                "velocity": 51,
                "duration": 0.1977273,
                "tempo": 120.0
            },
            {
                "start_time": 31.8136364,
                "end_time": 32.0090909,
                "pitch": 57,
                "velocity": 51,
                "duration": 0.1954545,
                "tempo": 120.0
            },
            {
                "start_time": 32.0113636,
                "end_time": 32.2068182,
                "pitch": 67,
                "velocity": 51,
                "duration": 0.1954545,
                "tempo": 120.0
            },
            {
                "start_time": 32.2090909,
                "end_time": 32.4045455,
                "pitch": 65,
                "velocity": 51,
                "duration": 0.1954545,
                "tempo": 120.0
            },
            {
                "start_time": 32.4068182,
                "end_time": 32.6068182,
                "pitch": 63,
                "velocity": 51,
                "duration": 0.2,
                "tempo": 120.0
            },
            {
                "start_time": 32.6090909,
                "end_time": 32.8113636,
                "pitch": 62,
                "velocity": 51,
                "duration": 0.2022727,
                "tempo": 120.0
            },
            {
                "start_time": 32.8113636,
                "end_time": 33.0159091,
                "pitch": 60,
                "velocity": 51,
                "duration": 0.2045455,
                "tempo": 120.0
            },
            {
                "start_time": 33.0159091,
                "end_time": 33.2136364,
                "pitch": 58,
                "velocity": 51,
                "duration": 0.1977273,
                "tempo": 120.0
            },
            {
                "start_time": 33.2136364,
                "end_time": 33.4113636,
                "pitch": 57,
                "velocity": 51,
                "duration": 0.1977273,
                "tempo": 120.0
            },
            {
                "start_time": 33.4113636,
                "end_time": 33.6090909,
                "pitch": 58,
                "velocity": 51,
                "duration": 0.1977273,
                "tempo": 120.0
            },
            {
                "start_time": 33.6090909,
                "end_time": 33.8090909,
                "pitch": 60,
                "velocity": 51,
                "duration": 0.2,
                "tempo": 120.0
            },
            {
                "start_time": 33.8090909,
                "end_time": 36.2181818,
                "pitch": 62,
                "velocity": 51,
                "duration": 2.4090909,
                "tempo": 120.0
            },
            {
                "start_time": 36.2204545,
                "end_time": 36.4159091,
                "pitch": 62,
                "velocity": 51,
                "duration": 0.1954545,
                "tempo": 120.0
            },
            {
                "start_time": 36.4159091,
                "end_time": 36.6136364,
                "pitch": 60,
                "velocity": 51,
                "duration": 0.1977273,
                "tempo": 120.0
            },
            {
                "start_time": 36.6159091,
                "end_time": 36.8159091,
                "pitch": 62,
                "velocity": 51,
                "duration": 0.2,
                "tempo": 120.0
            },
            {
                "start_time": 36.8159091,
                "end_time": 37.0159091,
                "pitch": 55,
                "velocity": 51,
                "duration": 0.2,
                "tempo": 120.0
            },
            {
                "start_time": 37.0181818,
                "end_time": 37.2181818,
                "pitch": 62,
                "velocity": 51,
                "duration": 0.2,
                "tempo": 120.0
            },
            {
                "start_time": 37.2204545,
                "end_time": 37.4204545,
                "pitch": 60,
                "velocity": 51,
                "duration": 0.2,
                "tempo": 120.0
            },
            {
                "start_time": 37.4204545,
                "end_time": 37.6204545,
                "pitch": 62,
                "velocity": 51,
                "duration": 0.2,
                "tempo": 120.0
            },
            {
                "start_time": 37.6227273,
                "end_time": 37.8227273,
                "pitch": 60,
                "velocity": 51,
                "duration": 0.2,
                "tempo": 120.0
            },
            {
                "start_time": 37.825,
                "end_time": 38.0227273,
                "pitch": 62,
                "velocity": 51,
                "duration": 0.1977273,
                "tempo": 120.0
            },
            {
                "start_time": 38.0227273,
                "end_time": 38.2227273,
                "pitch": 55,
                "velocity": 51,
                "duration": 0.2,
                "tempo": 120.0
            },
            {
                "start_time": 38.2227273,
                "end_time": 38.4227273,
                "pitch": 62,
                "velocity": 51,
                "duration": 0.2,
                "tempo": 120.0
            },
            {
                "start_time": 38.4227273,
                "end_time": 38.6227273,
                "pitch": 60,
                "velocity": 51,
                "duration": 0.2,
                "tempo": 120.0
            },
            {
                "start_time": 38.625,
                "end_time": 38.825,
                "pitch": 69,
                "velocity": 51,
                "duration": 0.2,
                "tempo": 120.0
            },
            {
                "start_time": 38.825,
                "end_time": 39.0272727,
                "pitch": 66,
                "velocity": 51,
                "duration": 0.2022727,
                "tempo": 120.0
            },
            {
                "start_time": 39.0272727,
                "end_time": 39.2272727,
                "pitch": 63,
                "velocity": 51,
                "duration": 0.2,
                "tempo": 120.0
            },
            {
                "start_time": 39.2295455,
                "end_time": 39.4295455,
                "pitch": 62,
                "velocity": 51,
                "duration": 0.2,
                "tempo": 120.0
            },
            {
                "start_time": 39.4295455,
                "end_time": 39.6318182,
                "pitch": 60,
                "velocity": 51,
                "duration": 0.2022727,
                "tempo": 120.0
            },
            {
                "start_time": 39.6318182,
                "end_time": 39.8318182,
                "pitch": 58,
                "velocity": 51,
                "duration": 0.2,
                "tempo": 120.0
            },
            {
                "start_time": 39.8340909,
                "end_time": 40.0340909,
                "pitch": 57,
                "velocity": 51,
                "duration": 0.2,
                "tempo": 120.0
            },
            {
                "start_time": 40.0340909,
                "end_time": 40.2363636,
                "pitch": 54,
                "velocity": 51,
                "duration": 0.2022727,
                "tempo": 120.0
            },
            {
                "start_time": 40.2363636,
                "end_time": 40.4386364,
                "pitch": 51,
                "velocity": 51,
                "duration": 0.2022727,
                "tempo": 120.0
            },
            {
                "start_time": 40.4386364,
                "end_time": 41.0409091,
                "pitch": 50,
                "velocity": 51,
                "duration": 0.6022727,
                "tempo": 120.0
            },
            {
                "start_time": 41.0409091,
                "end_time": 41.2409091,
                "pitch": 58,
                "velocity": 51,
                "duration": 0.2,
                "tempo": 120.0
            },
            {
                "start_time": 41.2409091,
                "end_time": 41.4409091,
                "pitch": 55,
                "velocity": 51,
                "duration": 0.2,
                "tempo": 120.0
            },
            {
                "start_time": 41.4409091,
                "end_time": 41.6363636,
                "pitch": 57,
                "velocity": 51,
                "duration": 0.1954545,
                "tempo": 120.0
            },
            {
                "start_time": 41.6386364,
                "end_time": 41.8340909,
                "pitch": 67,
                "velocity": 51,
                "duration": 0.1954545,
                "tempo": 120.0
            },
            {
                "start_time": 41.8363636,
                "end_time": 42.0340909,
                "pitch": 65,
                "velocity": 51,
                "duration": 0.1977273,
                "tempo": 120.0
            },
            {
                "start_time": 42.0340909,
                "end_time": 42.2340909,
                "pitch": 63,
                "velocity": 51,
                "duration": 0.2,
                "tempo": 120.0
            },
            {
                "start_time": 42.2340909,
                "end_time": 42.4363636,
                "pitch": 62,
                "velocity": 51,
                "duration": 0.2022727,
                "tempo": 120.0
            },
            {
                "start_time": 42.4363636,
                "end_time": 42.6386364,
                "pitch": 60,
                "velocity": 51,
                "duration": 0.2022727,
                "tempo": 120.0
            },
            {
                "start_time": 42.6386364,
                "end_time": 42.8363636,
                "pitch": 58,
                "velocity": 51,
                "duration": 0.1977273,
                "tempo": 120.0
            },
            {
                "start_time": 42.8363636,
                "end_time": 43.0363636,
                "pitch": 57,
                "velocity": 51,
                "duration": 0.2,
                "tempo": 120.0
            },
            {
                "start_time": 43.0363636,
                "end_time": 43.2363636,
                "pitch": 58,
                "velocity": 51,
                "duration": 0.2,
                "tempo": 120.0
            },
            {
                "start_time": 43.2363636,
                "end_time": 43.4363636,
                "pitch": 60,
                "velocity": 51,
                "duration": 0.2,
                "tempo": 120.0
            },
            {
                "start_time": 43.4386364,
                "end_time": 45.8522727,
                "pitch": 62,
                "velocity": 51,
                "duration": 2.4136364,
                "tempo": 120.0
            },
            {
                "start_time": 45.8522727,
                "end_time": 46.05,
                "pitch": 62,
                "velocity": 51,
                "duration": 0.1977273,
                "tempo": 120.0
            },
            {
                "start_time": 46.05,
                "end_time": 46.2477273,
                "pitch": 60,
                "velocity": 51,
                "duration": 0.1977273,
                "tempo": 120.0
            },
            {
                "start_time": 46.2477273,
                "end_time": 46.45,
                "pitch": 62,
                "velocity": 51,
                "duration": 0.2022727,
                "tempo": 120.0
            },
            {
                "start_time": 46.45,
                "end_time": 46.65,
                "pitch": 55,
                "velocity": 51,
                "duration": 0.2,
                "tempo": 120.0
            },
            {
                "start_time": 46.6522727,
                "end_time": 46.8522727,
                "pitch": 62,
                "velocity": 51,
                "duration": 0.2,
                "tempo": 120.0
            },
            {
                "start_time": 46.8522727,
                "end_time": 47.0545455,
                "pitch": 60,
                "velocity": 51,
                "duration": 0.2022727,
                "tempo": 120.0
            },
            {
                "start_time": 47.0545455,
                "end_time": 47.2545455,
                "pitch": 62,
                "velocity": 51,
                "duration": 0.2,
                "tempo": 120.0
            },
            {
                "start_time": 47.2568182,
                "end_time": 47.4568182,
                "pitch": 60,
                "velocity": 51,
                "duration": 0.2,
                "tempo": 120.0
            },
            {
                "start_time": 47.4568182,
                "end_time": 47.6590909,
                "pitch": 62,
                "velocity": 51,
                "duration": 0.2022727,
                "tempo": 120.0
            },
            {
                "start_time": 47.6590909,
                "end_time": 47.8590909,
                "pitch": 55,
                "velocity": 51,
                "duration": 0.2,
                "tempo": 120.0
            },
            {
                "start_time": 47.8613636,
                "end_time": 48.0613636,
                "pitch": 62,
                "velocity": 51,
                "duration": 0.2,
                "tempo": 120.0
            },
            {
                "start_time": 48.0636364,
                "end_time": 48.2613636,
                "pitch": 60,
                "velocity": 51,
                "duration": 0.1977273,
                "tempo": 120.0
            },
            {
                "start_time": 48.2613636,
                "end_time": 48.4613636,
                "pitch": 69,
                "velocity": 51,
                "duration": 0.2,
                "tempo": 120.0
            },
            {
                "start_time": 48.4613636,
                "end_time": 48.6613636,
                "pitch": 66,
                "velocity": 51,
                "duration": 0.2,
                "tempo": 120.0
            },
            {
                "start_time": 48.6613636,
                "end_time": 48.8613636,
                "pitch": 63,
                "velocity": 51,
                "duration": 0.2,
                "tempo": 120.0
            },
            {
                "start_time": 48.8636364,
                "end_time": 49.0636364,
                "pitch": 62,
                "velocity": 51,
                "duration": 0.2,
                "tempo": 120.0
            },
            {
                "start_time": 49.0636364,
                "end_time": 49.2659091,
                "pitch": 60,
                "velocity": 51,
                "duration": 0.2022727,
                "tempo": 120.0
            },
            {
                "start_time": 49.2659091,
                "end_time": 49.4659091,
                "pitch": 58,
                "velocity": 51,
                "duration": 0.2,
                "tempo": 120.0
            },
            {
                "start_time": 49.4681818,
                "end_time": 49.6681818,
                "pitch": 57,
                "velocity": 51,
                "duration": 0.2,
                "tempo": 120.0
            },
            {
                "start_time": 49.6681818,
                "end_time": 49.8704545,
                "pitch": 54,
                "velocity": 51,
                "duration": 0.2022727,
                "tempo": 120.0
            },
            {
                "start_time": 49.8704545,
                "end_time": 50.0704545,
                "pitch": 51,
                "velocity": 51,
                "duration": 0.2,
                "tempo": 120.0
            },
            {
                "start_time": 50.0727273,
                "end_time": 50.2727273,
                "pitch": 50,
                "velocity": 51,
                "duration": 0.2,
                "tempo": 120.0
            },
            {
                "start_time": 25.8840909,
                "end_time": 50.475,
                "pitch": 48,
                "velocity": 51,
                "duration": 24.5909091,
                "tempo": 120.0
            },
            {
                "start_time": 50.2727273,
                "end_time": 50.475,
                "pitch": 48,
                "velocity": 51,
                "duration": 0.2022727,
                "tempo": 120.0
            },
            {
                "start_time": 50.475,
                "end_time": 50.675,
                "pitch": 46,
                "velocity": 51,
                "duration": 0.2,
                "tempo": 120.0
            },
            {
                "start_time": 50.6772727,
                "end_time": 51.8727273,
                "pitch": 45,
                "velocity": 51,
                "duration": 1.1954545,
                "tempo": 120.0
            },
            {
                "start_time": 51.875,
                "end_time": 52.075,
                "pitch": 62,
                "velocity": 51,
                "duration": 0.2,
                "tempo": 120.0
            },
            {
                "start_time": 52.075,
                "end_time": 52.2772727,
                "pitch": 63,
                "velocity": 51,
                "duration": 0.2022727,
                "tempo": 120.0
            },
            {
                "start_time": 52.2772727,
                "end_time": 52.4772727,
                "pitch": 62,
                "velocity": 51,
                "duration": 0.2,
                "tempo": 120.0
            },
            {
                "start_time": 52.4795455,
                "end_time": 52.6795455,
                "pitch": 63,
                "velocity": 51,
                "duration": 0.2,
                "tempo": 120.0
            },
            {
                "start_time": 52.6795455,
                "end_time": 52.8818182,
                "pitch": 59,
                "velocity": 51,
                "duration": 0.2022727,
                "tempo": 120.0
            },
            {
                "start_time": 52.8818182,
                "end_time": 53.0840909,
                "pitch": 60,
                "velocity": 51,
                "duration": 0.2022727,
                "tempo": 120.0
            },
            {
                "start_time": 53.0840909,
                "end_time": 53.2840909,
                "pitch": 62,
                "velocity": 51,
                "duration": 0.2,
                "tempo": 120.0
            },
            {
                "start_time": 53.2863636,
                "end_time": 53.4863636,
                "pitch": 55,
                "velocity": 51,
                "duration": 0.2,
                "tempo": 120.0
            },
            {
                "start_time": 53.4863636,
                "end_time": 53.6863636,
                "pitch": 57,
                "velocity": 51,
                "duration": 0.2,
                "tempo": 120.0
            },
            {
                "start_time": 53.6863636,
                "end_time": 53.8863636,
                "pitch": 59,
                "velocity": 51,
                "duration": 0.2,
                "tempo": 120.0
            },
            {
                "start_time": 53.8863636,
                "end_time": 54.0863636,
                "pitch": 60,
                "velocity": 51,
                "duration": 0.2,
                "tempo": 120.0
            },
            {
                "start_time": 54.0863636,
                "end_time": 54.2863636,
                "pitch": 62,
                "velocity": 51,
                "duration": 0.2,
                "tempo": 120.0
            },
            {
                "start_time": 54.2863636,
                "end_time": 54.4886364,
                "pitch": 62,
                "velocity": 51,
                "duration": 0.2022727,
                "tempo": 120.0
            },
            {
                "start_time": 54.4886364,
                "end_time": 54.6909091,
                "pitch": 63,
                "velocity": 51,
                "duration": 0.2022727,
                "tempo": 120.0
            },
            {
                "start_time": 54.6909091,
                "end_time": 54.8863636,
                "pitch": 62,
                "velocity": 51,
                "duration": 0.1954545,
                "tempo": 120.0
            },
            {
                "start_time": 54.8886364,
                "end_time": 55.0840909,
                "pitch": 63,
                "velocity": 51,
                "duration": 0.1954545,
                "tempo": 120.0
            },
            {
                "start_time": 55.0863636,
                "end_time": 55.2840909,
                "pitch": 59,
                "velocity": 51,
                "duration": 0.1977273,
                "tempo": 120.0
            },
            {
                "start_time": 55.2840909,
                "end_time": 55.4818182,
                "pitch": 60,
                "velocity": 51,
                "duration": 0.1977273,
                "tempo": 120.0
            },
            {
                "start_time": 55.4818182,
                "end_time": 55.6818182,
                "pitch": 62,
                "velocity": 51,
                "duration": 0.2,
                "tempo": 120.0
            },
            {
                "start_time": 55.6818182,
                "end_time": 55.8818182,
                "pitch": 55,
                "velocity": 51,
                "duration": 0.2,
                "tempo": 120.0
            },
            {
                "start_time": 55.8818182,
                "end_time": 56.0818182,
                "pitch": 57,
                "velocity": 51,
                "duration": 0.2,
                "tempo": 120.0
            },
            {
                "start_time": 56.0840909,
                "end_time": 56.2840909,
                "pitch": 59,
                "velocity": 51,
                "duration": 0.2,
                "tempo": 120.0
            },
            {
                "start_time": 56.2840909,
                "end_time": 56.4863636,
                "pitch": 60,
                "velocity": 51,
                "duration": 0.2022727,
                "tempo": 120.0
            },
            {
                "start_time": 56.4863636,
                "end_time": 56.6863636,
                "pitch": 62,
                "velocity": 51,
                "duration": 0.2,
                "tempo": 120.0
            },
            {
                "start_time": 56.6886364,
                "end_time": 56.8886364,
                "pitch": 62,
                "velocity": 51,
                "duration": 0.2,
                "tempo": 120.0
            },
            {
                "start_time": 56.8886364,
                "end_time": 57.0909091,
                "pitch": 60,
                "velocity": 51,
                "duration": 0.2022727,
                "tempo": 120.0
            },
            {
                "start_time": 57.0909091,
                "end_time": 57.2931818,
                "pitch": 62,
                "velocity": 51,
                "duration": 0.2022727,
                "tempo": 120.0
            },
            {
                "start_time": 57.2931818,
                "end_time": 57.4931818,
                "pitch": 55,
                "velocity": 51,
                "duration": 0.2,
                "tempo": 120.0
            },
            {
                "start_time": 57.4954545,
                "end_time": 57.6954545,
                "pitch": 62,
                "velocity": 51,
                "duration": 0.2,
                "tempo": 120.0
            },
            {
                "start_time": 57.6954545,
                "end_time": 57.8977273,
                "pitch": 60,
                "velocity": 51,
                "duration": 0.2022727,
                "tempo": 120.0
            },
            {
                "start_time": 57.8977273,
                "end_time": 58.0977273,
                "pitch": 62,
                "velocity": 51,
                "duration": 0.2,
                "tempo": 120.0
            },
            {
                "start_time": 58.1,
                "end_time": 58.3,
                "pitch": 60,
                "velocity": 51,
                "duration": 0.2,
                "tempo": 120.0
            },
            {
                "start_time": 58.3022727,
                "end_time": 58.5,
                "pitch": 62,
                "velocity": 51,
                "duration": 0.1977273,
                "tempo": 120.0
            },
            {
                "start_time": 58.5,
                "end_time": 58.7,
                "pitch": 55,
                "velocity": 51,
                "duration": 0.2,
                "tempo": 120.0
            },
            {
                "start_time": 58.7,
                "end_time": 58.9,
                "pitch": 62,
                "velocity": 51,
                "duration": 0.2,
                "tempo": 120.0
            },
            {
                "start_time": 58.9,
                "end_time": 59.1,
                "pitch": 60,
                "velocity": 51,
                "duration": 0.2,
                "tempo": 120.0
            },
            {
                "start_time": 59.1,
                "end_time": 59.3022727,
                "pitch": 62,
                "velocity": 51,
                "duration": 0.2022727,
                "tempo": 120.0
            },
            {
                "start_time": 59.3022727,
                "end_time": 59.5045455,
                "pitch": 55,
                "velocity": 51,
                "duration": 0.2022727,
                "tempo": 120.0
            },
            {
                "start_time": 59.5045455,
                "end_time": 59.7045455,
                "pitch": 57,
                "velocity": 51,
                "duration": 0.2,
                "tempo": 120.0
            },
            {
                "start_time": 59.7068182,
                "end_time": 59.9068182,
                "pitch": 58,
                "velocity": 51,
                "duration": 0.2,
                "tempo": 120.0
            },
            {
                "start_time": 59.9068182,
                "end_time": 60.1090909,
                "pitch": 60,
                "velocity": 51,
                "duration": 0.2022727,
                "tempo": 120.0
            },
            {
                "start_time": 60.1090909,
                "end_time": 60.3090909,
                "pitch": 62,
                "velocity": 51,
                "duration": 0.2,
                "tempo": 120.0
            },
            {
                "start_time": 60.3113636,
                "end_time": 60.5113636,
                "pitch": 60,
                "velocity": 51,
                "duration": 0.2,
                "tempo": 120.0
            },
            {
                "start_time": 60.5113636,
                "end_time": 60.7136364,
                "pitch": 58,
                "velocity": 51,
                "duration": 0.2022727,
                "tempo": 120.0
            },
            {
                "start_time": 60.7136364,
                "end_time": 60.9113636,
                "pitch": 57,
                "velocity": 51,
                "duration": 0.1977273,
                "tempo": 120.0
            },
            {
                "start_time": 60.9113636,
                "end_time": 61.1090909,
                "pitch": 55,
                "velocity": 51,
                "duration": 0.1977273,
                "tempo": 120.0
            },
            {
                "start_time": 61.1090909,
                "end_time": 61.3068182,
                "pitch": 57,
                "velocity": 51,
                "duration": 0.1977273,
                "tempo": 120.0
            },
            {
                "start_time": 61.3068182,
                "end_time": 61.5068182,
                "pitch": 53,
                "velocity": 51,
                "duration": 0.2,
                "tempo": 120.0
            },
            {
                "start_time": 61.5090909,
                "end_time": 61.7090909,
                "pitch": 62,
                "velocity": 51,
                "duration": 0.2,
                "tempo": 120.0
            },
            {
                "start_time": 61.7090909,
                "end_time": 61.9113636,
                "pitch": 63,
                "velocity": 51,
                "duration": 0.2022727,
                "tempo": 120.0
            },
            {
                "start_time": 61.9113636,
                "end_time": 62.1113636,
                "pitch": 62,
                "velocity": 51,
                "duration": 0.2,
                "tempo": 120.0
            },
            {
                "start_time": 62.1136364,
                "end_time": 62.3136364,
                "pitch": 63,
                "velocity": 51,
                "duration": 0.2,
                "tempo": 120.0
            },
            {
                "start_time": 62.3136364,
                "end_time": 62.5159091,
                "pitch": 59,
                "velocity": 51,
                "duration": 0.2022727,
                "tempo": 120.0
            },
            {
                "start_time": 62.5159091,
                "end_time": 62.7159091,
                "pitch": 60,
                "velocity": 51,
                "duration": 0.2,
                "tempo": 120.0
            },
            {
                "start_time": 62.7181818,
                "end_time": 62.9181818,
                "pitch": 62,
                "velocity": 51,
                "duration": 0.2,
                "tempo": 120.0
            },
            {
                "start_time": 62.9181818,
                "end_time": 63.1204545,
                "pitch": 55,
                "velocity": 51,
                "duration": 0.2022727,
                "tempo": 120.0
            },
            {
                "start_time": 63.1204545,
                "end_time": 63.3204545,
                "pitch": 57,
                "velocity": 51,
                "duration": 0.2,
                "tempo": 120.0
            },
            {
                "start_time": 63.3227273,
                "end_time": 63.5227273,
                "pitch": 59,
                "velocity": 51,
                "duration": 0.2,
                "tempo": 120.0
            },
            {
                "start_time": 63.5227273,
                "end_time": 63.725,
                "pitch": 60,
                "velocity": 51,
                "duration": 0.2022727,
                "tempo": 120.0
            },
            {
                "start_time": 63.725,
                "end_time": 63.9227273,
                "pitch": 62,
                "velocity": 51,
                "duration": 0.1977273,
                "tempo": 120.0
            },
            {
                "start_time": 63.9227273,
                "end_time": 64.1204545,
                "pitch": 62,
                "velocity": 51,
                "duration": 0.1977273,
                "tempo": 120.0
            },
            {
                "start_time": 64.1204545,
                "end_time": 64.3181818,
                "pitch": 63,
                "velocity": 51,
                "duration": 0.1977273,
                "tempo": 120.0
            },
            {
                "start_time": 64.3181818,
                "end_time": 64.5181818,
                "pitch": 62,
                "velocity": 51,
                "duration": 0.2,
                "tempo": 120.0
            },
            {
                "start_time": 64.5204545,
                "end_time": 64.7204545,
                "pitch": 63,
                "velocity": 51,
                "duration": 0.2,
                "tempo": 120.0
            },
            {
                "start_time": 64.7204545,
                "end_time": 64.9227273,
                "pitch": 59,
                "velocity": 51,
                "duration": 0.2022727,
                "tempo": 120.0
            },
            {
                "start_time": 64.9227273,
                "end_time": 65.1227273,
                "pitch": 60,
                "velocity": 51,
                "duration": 0.2,
                "tempo": 120.0
            },
            {
                "start_time": 65.125,
                "end_time": 65.325,
                "pitch": 62,
                "velocity": 51,
                "duration": 0.2,
                "tempo": 120.0
            },
            {
                "start_time": 65.325,
                "end_time": 65.5272727,
                "pitch": 55,
                "velocity": 51,
                "duration": 0.2022727,
                "tempo": 120.0
            },
            {
                "start_time": 65.5272727,
                "end_time": 65.7272727,
                "pitch": 57,
                "velocity": 51,
                "duration": 0.2,
                "tempo": 120.0
            },
            {
                "start_time": 65.7272727,
                "end_time": 65.9272727,
                "pitch": 59,
                "velocity": 51,
                "duration": 0.2,
                "tempo": 120.0
            },
            {
                "start_time": 65.9272727,
                "end_time": 66.1272727,
                "pitch": 60,
                "velocity": 51,
                "duration": 0.2,
                "tempo": 120.0
            },
            {
                "start_time": 66.1272727,
                "end_time": 66.3272727,
                "pitch": 62,
                "velocity": 51,
                "duration": 0.2,
                "tempo": 120.0
            },
            {
                "start_time": 66.3272727,
                "end_time": 66.5295455,
                "pitch": 62,
                "velocity": 51,
                "duration": 0.2022727,
                "tempo": 120.0
            },
            {
                "start_time": 66.5295455,
                "end_time": 66.7318182,
                "pitch": 60,
                "velocity": 51,
                "duration": 0.2022727,
                "tempo": 120.0
            },
            {
                "start_time": 66.7318182,
                "end_time": 66.9318182,
                "pitch": 62,
                "velocity": 51,
                "duration": 0.2,
                "tempo": 120.0
            },
            {
                "start_time": 66.9318182,
                "end_time": 67.1340909,
                "pitch": 55,
                "velocity": 51,
                "duration": 0.2022727,
                "tempo": 120.0
            },
            {
                "start_time": 67.1340909,
                "end_time": 67.3363636,
                "pitch": 62,
                "velocity": 51,
                "duration": 0.2022727,
                "tempo": 120.0
            },
            {
                "start_time": 67.3363636,
                "end_time": 67.5340909,
                "pitch": 60,
                "velocity": 51,
                "duration": 0.1977273,
                "tempo": 120.0
            },
            {
                "start_time": 67.5363636,
                "end_time": 67.7340909,
                "pitch": 62,
                "velocity": 51,
                "duration": 0.1977273,
                "tempo": 120.0
            },
            {
                "start_time": 67.7340909,
                "end_time": 67.9340909,
                "pitch": 60,
                "velocity": 51,
                "duration": 0.2,
                "tempo": 120.0
            },
            {
                "start_time": 67.9340909,
                "end_time": 68.1363636,
                "pitch": 62,
                "velocity": 51,
                "duration": 0.2022727,
                "tempo": 120.0
            },
            {
                "start_time": 68.1363636,
                "end_time": 68.3363636,
                "pitch": 55,
                "velocity": 51,
                "duration": 0.2,
                "tempo": 120.0
            },
            {
                "start_time": 68.3386364,
                "end_time": 68.5386364,
                "pitch": 62,
                "velocity": 51,
                "duration": 0.2,
                "tempo": 120.0
            },
            {
                "start_time": 68.5386364,
                "end_time": 68.7363636,
                "pitch": 60,
                "velocity": 51,
                "duration": 0.1977273,
                "tempo": 120.0
            },
            {
                "start_time": 68.7363636,
                "end_time": 68.9340909,
                "pitch": 62,
                "velocity": 51,
                "duration": 0.1977273,
                "tempo": 120.0
            },
            {
                "start_time": 68.9340909,
                "end_time": 69.1318182,
                "pitch": 55,
                "velocity": 51,
                "duration": 0.1977273,
                "tempo": 120.0
            },
            {
                "start_time": 69.1318182,
                "end_time": 69.3318182,
                "pitch": 57,
                "velocity": 51,
                "duration": 0.2,
                "tempo": 120.0
            },
            {
                "start_time": 69.3318182,
                "end_time": 69.5318182,
                "pitch": 58,
                "velocity": 51,
                "duration": 0.2,
                "tempo": 120.0
            },
            {
                "start_time": 69.5318182,
                "end_time": 69.7295455,
                "pitch": 60,
                "velocity": 51,
                "duration": 0.1977273,
                "tempo": 120.0
            },
            {
                "start_time": 69.7318182,
                "end_time": 69.9295455,
                "pitch": 62,
                "velocity": 51,
                "duration": 0.1977273,
                "tempo": 120.0
            },
            {
                "start_time": 69.9295455,
                "end_time": 70.1295455,
                "pitch": 60,
                "velocity": 51,
                "duration": 0.2,
                "tempo": 120.0
            },
            {
                "start_time": 70.1295455,
                "end_time": 70.3295455,
                "pitch": 58,
                "velocity": 51,
                "duration": 0.2,
                "tempo": 120.0
            },
            {
                "start_time": 70.3295455,
                "end_time": 70.5295455,
                "pitch": 57,
                "velocity": 51,
                "duration": 0.2,
                "tempo": 120.0
            },
            {
                "start_time": 70.5318182,
                "end_time": 70.7318182,
                "pitch": 55,
                "velocity": 51,
                "duration": 0.2,
                "tempo": 120.0
            },
            {
                "start_time": 70.7318182,
                "end_time": 70.9340909,
                "pitch": 57,
                "velocity": 51,
                "duration": 0.2022727,
                "tempo": 120.0
            },
            {
                "start_time": 70.9340909,
                "end_time": 71.1340909,
                "pitch": 53,
                "velocity": 51,
                "duration": 0.2,
                "tempo": 120.0
            },
            {
                "start_time": 71.1340909,
                "end_time": 71.3318182,
                "pitch": 55,
                "velocity": 51,
                "duration": 0.1977273,
                "tempo": 120.0
            },
            {
                "start_time": 71.3340909,
                "end_time": 71.5318182,
                "pitch": 65,
                "velocity": 51,
                "duration": 0.1977273,
                "tempo": 120.0
            },
            {
                "start_time": 71.5340909,
                "end_time": 71.7340909,
                "pitch": 63,
                "velocity": 51,
                "duration": 0.2,
                "tempo": 120.0
            },
            {
                "start_time": 71.7340909,
                "end_time": 71.9340909,
                "pitch": 62,
                "velocity": 51,
                "duration": 0.2,
                "tempo": 120.0
            },
            {
                "start_time": 71.9363636,
                "end_time": 72.1363636,
                "pitch": 60,
                "velocity": 51,
                "duration": 0.2,
                "tempo": 120.0
            },
            {
                "start_time": 72.1386364,
                "end_time": 72.3363636,
                "pitch": 58,
                "velocity": 51,
                "duration": 0.1977273,
                "tempo": 120.0
            },
            {
                "start_time": 72.3363636,
                "end_time": 72.5522727,
                "pitch": 60,
                "velocity": 51,
                "duration": 0.2159091,
                "tempo": 120.0
            },
            {
                "start_time": 72.5522727,
                "end_time": 72.6022727,
                "pitch": 60,
                "velocity": 51,
                "duration": 0.05,
                "tempo": 120.0
            },
            {
                "start_time": 25.9340909,
                "end_time": 72.6022727,
                "pitch": 64,
                "velocity": 51,
                "duration": 46.6681818,
                "tempo": 120.0
            },
            {
                "start_time": 72.5522727,
                "end_time": 72.6863636,
                "pitch": 48,
                "velocity": 51,
                "duration": 0.1340909,
                "tempo": 120.0
            },
            {
                "start_time": 72.6022727,
                "end_time": 72.6863636,
                "pitch": 60,
                "velocity": 51,
                "duration": 0.0840909,
                "tempo": 120.0
            },
            {
                "start_time": 72.6863636,
                "end_time": 72.7363636,
                "pitch": 60,
                "velocity": 51,
                "duration": 0.05,
                "tempo": 120.0
            },
            {
                "start_time": 72.6022727,
                "end_time": 72.7363636,
                "pitch": 64,
                "velocity": 51,
                "duration": 0.1340909,
                "tempo": 120.0
            },
            {
                "start_time": 72.6863636,
                "end_time": 72.8181818,
                "pitch": 48,
                "velocity": 51,
                "duration": 0.1318182,
                "tempo": 120.0
            },
            {
                "start_time": 72.7363636,
                "end_time": 72.8181818,
                "pitch": 60,
                "velocity": 51,
                "duration": 0.0818182,
                "tempo": 120.0
            },
            {
                "start_time": 72.8181818,
                "end_time": 72.8681818,
                "pitch": 60,
                "velocity": 51,
                "duration": 0.05,
                "tempo": 120.0
            },
            {
                "start_time": 72.7363636,
                "end_time": 72.8681818,
                "pitch": 64,
                "velocity": 51,
                "duration": 0.1318182,
                "tempo": 120.0
            },
            {
                "start_time": 72.8681818,
                "end_time": 72.9340909,
                "pitch": 60,
                "velocity": 51,
                "duration": 0.0659091,
                "tempo": 120.0
            },
            {
                "start_time": 72.9340909,
                "end_time": 73.1318182,
                "pitch": 58,
                "velocity": 51,
                "duration": 0.1977273,
                "tempo": 120.0
            },
            {
                "start_time": 73.1318182,
                "end_time": 73.3295455,
                "pitch": 57,
                "velocity": 51,
                "duration": 0.1977273,
                "tempo": 120.0
            },
            {
                "start_time": 73.3295455,
                "end_time": 73.5318182,
                "pitch": 58,
                "velocity": 51,
                "duration": 0.2022727,
                "tempo": 120.0
            },
            {
                "start_time": 73.5318182,
                "end_time": 73.7363636,
                "pitch": 55,
                "velocity": 51,
                "duration": 0.2045455,
                "tempo": 120.0
            },
            {
                "start_time": 73.7363636,
                "end_time": 73.9386364,
                "pitch": 65,
                "velocity": 51,
                "duration": 0.2022727,
                "tempo": 120.0
            },
            {
                "start_time": 73.9409091,
                "end_time": 74.1363636,
                "pitch": 63,
                "velocity": 51,
                "duration": 0.1954545,
                "tempo": 120.0
            },
            {
                "start_time": 74.1386364,
                "end_time": 74.3340909,
                "pitch": 62,
                "velocity": 51,
                "duration": 0.1954545,
                "tempo": 120.0
            },
            {
                "start_time": 74.3363636,
                "end_time": 74.5318182,
                "pitch": 60,
                "velocity": 51,
                "duration": 0.1954545,
                "tempo": 120.0
            },
            {
                "start_time": 74.5340909,
                "end_time": 74.7318182,
                "pitch": 58,
                "velocity": 51,
                "duration": 0.1977273,
                "tempo": 120.0
            },
            {
                "start_time": 72.8181818,
                "end_time": 74.9477273,
                "pitch": 48,
                "velocity": 51,
                "duration": 2.1295455,
                "tempo": 120.0
            },
            {
                "start_time": 74.7318182,
                "end_time": 74.9477273,
                "pitch": 60,
                "velocity": 51,
                "duration": 0.2159091,
                "tempo": 120.0
            },
            {
                "start_time": 74.9477273,
                "end_time": 74.9977273,
                "pitch": 60,
                "velocity": 51,
                "duration": 0.05,
                "tempo": 120.0
            },
            {
                "start_time": 72.8681818,
                "end_time": 74.9977273,
                "pitch": 64,
                "velocity": 51,
                "duration": 2.1295455,
                "tempo": 120.0
            },
            {
                "start_time": 74.9477273,
                "end_time": 75.0818182,
                "pitch": 48,
                "velocity": 51,
                "duration": 0.1340909,
                "tempo": 120.0
            },
            {
                "start_time": 74.9977273,
                "end_time": 75.0818182,
                "pitch": 60,
                "velocity": 51,
                "duration": 0.0840909,
                "tempo": 120.0
            },
            {
                "start_time": 75.0818182,
                "end_time": 75.1318182,
                "pitch": 60,
                "velocity": 51,
                "duration": 0.05,
                "tempo": 120.0
            },
            {
                "start_time": 74.9977273,
                "end_time": 75.1318182,
                "pitch": 64,
                "velocity": 51,
                "duration": 0.1340909,
                "tempo": 120.0
            },
            {
                "start_time": 75.0818182,
                "end_time": 75.2136364,
                "pitch": 48,
                "velocity": 51,
                "duration": 0.1318182,
                "tempo": 120.0
            },
            {
                "start_time": 75.1318182,
                "end_time": 75.2136364,
                "pitch": 60,
                "velocity": 51,
                "duration": 0.0818182,
                "tempo": 120.0
            },
            {
                "start_time": 75.2136364,
                "end_time": 75.2636364,
                "pitch": 60,
                "velocity": 51,
                "duration": 0.05,
                "tempo": 120.0
            },
            {
                "start_time": 75.1318182,
                "end_time": 75.2636364,
                "pitch": 64,
                "velocity": 51,
                "duration": 0.1318182,
                "tempo": 120.0
            },
            {
                "start_time": 75.2636364,
                "end_time": 75.3295455,
                "pitch": 60,
                "velocity": 51,
                "duration": 0.0659091,
                "tempo": 120.0
            },
            {
                "start_time": 75.3318182,
                "end_time": 75.5295455,
                "pitch": 58,
                "velocity": 51,
                "duration": 0.1977273,
                "tempo": 120.0
            },
            {
                "start_time": 75.5295455,
                "end_time": 75.7295455,
                "pitch": 57,
                "velocity": 51,
                "duration": 0.2,
                "tempo": 120.0
            },
            {
                "start_time": 75.7295455,
                "end_time": 75.9295455,
                "pitch": 58,
                "velocity": 51,
                "duration": 0.2,
                "tempo": 120.0
            },
            {
                "start_time": 75.9318182,
                "end_time": 76.15,
                "pitch": 55,
                "velocity": 51,
                "duration": 0.2181818,
                "tempo": 120.0
            },
            {
                "start_time": 28.8681818,
                "end_time": 76.2,
                "pitch": 0,
                "velocity": 51,
                "duration": 47.3318182,
                "tempo": 120.0
            },
            {
                "start_time": 76.15,
                "end_time": 76.2,
                "pitch": 55,
                "velocity": 51,
                "duration": 0.05,
                "tempo": 120.0
            },
            {
                "start_time": 76.2,
                "end_time": 76.2840909,
                "pitch": 55,
                "velocity": 51,
                "duration": 0.0840909,
                "tempo": 120.0
            },
            {
                "start_time": 76.15,
                "end_time": 76.2840909,
                "pitch": 67,
                "velocity": 51,
                "duration": 0.1340909,
                "tempo": 120.0
            },
            {
                "start_time": 76.2,
                "end_time": 76.3340909,
                "pitch": 0,
                "velocity": 51,
                "duration": 0.1340909,
                "tempo": 120.0
            },
            {
                "start_time": 76.2840909,
                "end_time": 76.3340909,
                "pitch": 55,
                "velocity": 51,
                "duration": 0.05,
                "tempo": 120.0
            },
            {
                "start_time": 76.3340909,
                "end_time": 76.4181818,
                "pitch": 55,
                "velocity": 51,
                "duration": 0.0840909,
                "tempo": 120.0
            },
            {
                "start_time": 76.2840909,
                "end_time": 76.4181818,
                "pitch": 67,
                "velocity": 51,
                "duration": 0.1340909,
                "tempo": 120.0
            },
            {
                "start_time": 76.3340909,
                "end_time": 76.4681818,
                "pitch": 0,
                "velocity": 51,
                "duration": 0.1340909,
                "tempo": 120.0
            },
            {
                "start_time": 76.4181818,
                "end_time": 76.4681818,
                "pitch": 55,
                "velocity": 51,
                "duration": 0.05,
                "tempo": 120.0
            },
            {
                "start_time": 76.4681818,
                "end_time": 76.55,
                "pitch": 55,
                "velocity": 51,
                "duration": 0.0818182,
                "tempo": 120.0
            },
            {
                "start_time": 76.4181818,
                "end_time": 76.55,
                "pitch": 67,
                "velocity": 51,
                "duration": 0.1318182,
                "tempo": 120.0
            },
            {
                "start_time": 76.4681818,
                "end_time": 76.6,
                "pitch": 0,
                "velocity": 51,
                "duration": 0.1318182,
                "tempo": 120.0
            },
            {
                "start_time": 76.55,
                "end_time": 76.6,
                "pitch": 55,
                "velocity": 51,
                "duration": 0.05,
                "tempo": 120.0
            },
            {
                "start_time": 76.6,
                "end_time": 76.6840909,
                "pitch": 55,
                "velocity": 51,
                "duration": 0.0840909,
                "tempo": 120.0
            },
            {
                "start_time": 76.55,
                "end_time": 76.6840909,
                "pitch": 67,
                "velocity": 51,
                "duration": 0.1340909,
                "tempo": 120.0
            },
            {
                "start_time": 76.6,
                "end_time": 76.7340909,
                "pitch": 0,
                "velocity": 51,
                "duration": 0.1340909,
                "tempo": 120.0
            },
            {
                "start_time": 76.6840909,
                "end_time": 76.7340909,
                "pitch": 55,
                "velocity": 51,
                "duration": 0.05,
                "tempo": 120.0
            },
            {
                "start_time": 76.7340909,
                "end_time": 76.8159091,
                "pitch": 55,
                "velocity": 51,
                "duration": 0.0818182,
                "tempo": 120.0
            },
            {
                "start_time": 76.6840909,
                "end_time": 76.8159091,
                "pitch": 67,
                "velocity": 51,
                "duration": 0.1318182,
                "tempo": 120.0
            },
            {
                "start_time": 76.7340909,
                "end_time": 76.8659091,
                "pitch": 0,
                "velocity": 51,
                "duration": 0.1318182,
                "tempo": 120.0
            },
            {
                "start_time": 76.8159091,
                "end_time": 76.8659091,
                "pitch": 55,
                "velocity": 51,
                "duration": 0.05,
                "tempo": 120.0
            },
            {
                "start_time": 76.8659091,
                "end_time": 76.95,
                "pitch": 55,
                "velocity": 51,
                "duration": 0.0840909,
                "tempo": 120.0
            },
            {
                "start_time": 76.8159091,
                "end_time": 76.95,
                "pitch": 67,
                "velocity": 51,
                "duration": 0.1340909,
                "tempo": 120.0
            },
            {
                "start_time": 76.8659091,
                "end_time": 77.0,
                "pitch": 0,
                "velocity": 51,
                "duration": 0.1340909,
                "tempo": 120.0
            },
            {
                "start_time": 76.95,
                "end_time": 77.0,
                "pitch": 55,
                "velocity": 51,
                "duration": 0.05,
                "tempo": 120.0
            },
            {
                "start_time": 77.0,
                "end_time": 77.0840909,
                "pitch": 55,
                "velocity": 51,
                "duration": 0.0840909,
                "tempo": 120.0
            },
            {
                "start_time": 76.95,
                "end_time": 77.0840909,
                "pitch": 67,
                "velocity": 51,
                "duration": 0.1340909,
                "tempo": 120.0
            },
            {
                "start_time": 77.0,
                "end_time": 77.1340909,
                "pitch": 0,
                "velocity": 51,
                "duration": 0.1340909,
                "tempo": 120.0
            },
            {
                "start_time": 77.0840909,
                "end_time": 77.1340909,
                "pitch": 55,
                "velocity": 51,
                "duration": 0.05,
                "tempo": 120.0
            },
            {
                "start_time": 77.1340909,
                "end_time": 77.2181818,
                "pitch": 55,
                "velocity": 51,
                "duration": 0.0840909,
                "tempo": 120.0
            },
            {
                "start_time": 77.0840909,
                "end_time": 77.2181818,
                "pitch": 67,
                "velocity": 51,
                "duration": 0.1340909,
                "tempo": 120.0
            },
            {
                "start_time": 77.1340909,
                "end_time": 77.2681818,
                "pitch": 0,
                "velocity": 51,
                "duration": 0.1340909,
                "tempo": 120.0
            },
            {
                "start_time": 77.2181818,
                "end_time": 77.2681818,
                "pitch": 55,
                "velocity": 51,
                "duration": 0.05,
                "tempo": 120.0
            },
            {
                "start_time": 77.2681818,
                "end_time": 77.3522727,
                "pitch": 55,
                "velocity": 51,
                "duration": 0.0840909,
                "tempo": 120.0
            },
            {
                "start_time": 77.2181818,
                "end_time": 77.3522727,
                "pitch": 67,
                "velocity": 51,
                "duration": 0.1340909,
                "tempo": 120.0
            },
            {
                "start_time": 77.2681818,
                "end_time": 77.4022727,
                "pitch": 0,
                "velocity": 51,
                "duration": 0.1340909,
                "tempo": 120.0
            },
            {
                "start_time": 77.3522727,
                "end_time": 77.4022727,
                "pitch": 55,
                "velocity": 51,
                "duration": 0.05,
                "tempo": 120.0
            },
            {
                "start_time": 77.4022727,
                "end_time": 77.4863636,
                "pitch": 55,
                "velocity": 51,
                "duration": 0.0840909,
                "tempo": 120.0
            },
            {
                "start_time": 77.3522727,
                "end_time": 77.4863636,
                "pitch": 67,
                "velocity": 51,
                "duration": 0.1340909,
                "tempo": 120.0
            },
            {
                "start_time": 77.4022727,
                "end_time": 77.5386364,
                "pitch": 0,
                "velocity": 51,
                "duration": 0.1363636,
                "tempo": 120.0
            },
            {
                "start_time": 77.4863636,
                "end_time": 77.5386364,
                "pitch": 55,
                "velocity": 51,
                "duration": 0.0522727,
                "tempo": 120.0
            },
            {
                "start_time": 77.5386364,
                "end_time": 77.6204545,
                "pitch": 55,
                "velocity": 51,
                "duration": 0.0818182,
                "tempo": 120.0
            },
            {
                "start_time": 77.4863636,
                "end_time": 77.6204545,
                "pitch": 67,
                "velocity": 51,
                "duration": 0.1340909,
                "tempo": 120.0
            },
            {
                "start_time": 77.5386364,
                "end_time": 77.6704545,
                "pitch": 0,
                "velocity": 51,
                "duration": 0.1318182,
                "tempo": 120.0
            },
            {
                "start_time": 77.6204545,
                "end_time": 77.6704545,
                "pitch": 55,
                "velocity": 51,
                "duration": 0.05,
                "tempo": 120.0
            },
            {
                "start_time": 77.6704545,
                "end_time": 77.7545455,
                "pitch": 55,
                "velocity": 51,
                "duration": 0.0840909,
                "tempo": 120.0
            },
            {
                "start_time": 77.6204545,
                "end_time": 77.7545455,
                "pitch": 67,
                "velocity": 51,
                "duration": 0.1340909,
                "tempo": 120.0
            },
            {
                "start_time": 77.6704545,
                "end_time": 77.8045455,
                "pitch": 0,
                "velocity": 51,
                "duration": 0.1340909,
                "tempo": 120.0
            },
            {
                "start_time": 77.7545455,
                "end_time": 77.8045455,
                "pitch": 55,
                "velocity": 51,
                "duration": 0.05,
                "tempo": 120.0
            },
            {
                "start_time": 77.8045455,
                "end_time": 77.8863636,
                "pitch": 55,
                "velocity": 51,
                "duration": 0.0818182,
                "tempo": 120.0
            },
            {
                "start_time": 77.7545455,
                "end_time": 77.8863636,
                "pitch": 67,
                "velocity": 51,
                "duration": 0.1318182,
                "tempo": 120.0
            },
            {
                "start_time": 77.8045455,
                "end_time": 77.9363636,
                "pitch": 0,
                "velocity": 51,
                "duration": 0.1318182,
                "tempo": 120.0
            },
            {
                "start_time": 77.8863636,
                "end_time": 77.9363636,
                "pitch": 55,
                "velocity": 51,
                "duration": 0.05,
                "tempo": 120.0
            },
            {
                "start_time": 77.9363636,
                "end_time": 78.0204545,
                "pitch": 55,
                "velocity": 51,
                "duration": 0.0840909,
                "tempo": 120.0
            },
            {
                "start_time": 77.8863636,
                "end_time": 78.0204545,
                "pitch": 67,
                "velocity": 51,
                "duration": 0.1340909,
                "tempo": 120.0
            },
            {
                "start_time": 77.9363636,
                "end_time": 78.0704545,
                "pitch": 0,
                "velocity": 51,
                "duration": 0.1340909,
                "tempo": 120.0
            },
            {
                "start_time": 78.0204545,
                "end_time": 78.0704545,
                "pitch": 55,
                "velocity": 51,
                "duration": 0.05,
                "tempo": 120.0
            },
            {
                "start_time": 78.0704545,
                "end_time": 78.1522727,
                "pitch": 55,
                "velocity": 51,
                "duration": 0.0818182,
                "tempo": 120.0
            },
            {
                "start_time": 78.0204545,
                "end_time": 78.1522727,
                "pitch": 67,
                "velocity": 51,
                "duration": 0.1318182,
                "tempo": 120.0
            },
            {
                "start_time": 78.0704545,
                "end_time": 78.2022727,
                "pitch": 0,
                "velocity": 51,
                "duration": 0.1318182,
                "tempo": 120.0
            },
            {
                "start_time": 78.1522727,
                "end_time": 78.2022727,
                "pitch": 55,
                "velocity": 51,
                "duration": 0.05,
                "tempo": 120.0
            },
            {
                "start_time": 78.2022727,
                "end_time": 78.2840909,
                "pitch": 55,
                "velocity": 51,
                "duration": 0.0818182,
                "tempo": 120.0
            },
            {
                "start_time": 78.2840909,
                "end_time": 78.3340909,
                "pitch": 55,
                "velocity": 51,
                "duration": 0.05,
                "tempo": 120.0
            },
            {
                "start_time": 78.3340909,
                "end_time": 78.5318182,
                "pitch": 63,
                "velocity": 51,
                "duration": 0.1977273,
                "tempo": 120.0
            },
            {
                "start_time": 78.5318182,
                "end_time": 78.7295455,
                "pitch": 62,
                "velocity": 51,
                "duration": 0.1977273,
                "tempo": 120.0
            },
            {
                "start_time": 78.7295455,
                "end_time": 78.9272727,
                "pitch": 60,
                "velocity": 51,
                "duration": 0.1977273,
                "tempo": 120.0
            },
            {
                "start_time": 78.9295455,
                "end_time": 79.1272727,
                "pitch": 62,
                "velocity": 51,
                "duration": 0.1977273,
                "tempo": 120.0
            },
            {
                "start_time": 79.1295455,
                "end_time": 79.3272727,
                "pitch": 65,
                "velocity": 51,
                "duration": 0.1977273,
                "tempo": 120.0
            },
            {
                "start_time": 78.1522727,
                "end_time": 79.5295455,
                "pitch": 67,
                "velocity": 51,
                "duration": 1.3772727,
                "tempo": 120.0
            },
            {
                "start_time": 79.3295455,
                "end_time": 79.5295455,
                "pitch": 67,
                "velocity": 51,
                "duration": 0.2,
                "tempo": 120.0
            },
            {
                "start_time": 79.5295455,
                "end_time": 79.7295455,
                "pitch": 69,
                "velocity": 51,
                "duration": 0.2,
                "tempo": 120.0
            },
            {
                "start_time": 79.7318182,
                "end_time": 79.9318182,
                "pitch": 70,
                "velocity": 51,
                "duration": 0.2,
                "tempo": 120.0
            },
            {
                "start_time": 79.9318182,
                "end_time": 80.1318182,
                "pitch": 69,
                "velocity": 51,
                "duration": 0.2,
                "tempo": 120.0
            },
            {
                "start_time": 80.1318182,
                "end_time": 80.3318182,
                "pitch": 66,
                "velocity": 51,
                "duration": 0.2,
                "tempo": 120.0
            },
            {
                "start_time": 80.3318182,
                "end_time": 80.5318182,
                "pitch": 62,
                "velocity": 51,
                "duration": 0.2,
                "tempo": 120.0
            },
            {
                "start_time": 80.5318182,
                "end_time": 80.7295455,
                "pitch": 60,
                "velocity": 51,
                "duration": 0.1977273,
                "tempo": 120.0
            },
            {
                "start_time": 80.7318182,
                "end_time": 80.9295455,
                "pitch": 55,
                "velocity": 51,
                "duration": 0.1977273,
                "tempo": 120.0
            },
            {
                "start_time": 80.9318182,
                "end_time": 81.1295455,
                "pitch": 65,
                "velocity": 51,
                "duration": 0.1977273,
                "tempo": 120.0
            },
            {
                "start_time": 81.1295455,
                "end_time": 81.3318182,
                "pitch": 63,
                "velocity": 51,
                "duration": 0.2022727,
                "tempo": 120.0
            },
            {
                "start_time": 81.3318182,
                "end_time": 81.5318182,
                "pitch": 62,
                "velocity": 51,
                "duration": 0.2,
                "tempo": 120.0
            },
            {
                "start_time": 81.5340909,
                "end_time": 81.7340909,
                "pitch": 60,
                "velocity": 51,
                "duration": 0.2,
                "tempo": 120.0
            },
            {
                "start_time": 81.7363636,
                "end_time": 81.9340909,
                "pitch": 58,
                "velocity": 51,
                "duration": 0.1977273,
                "tempo": 120.0
            },
            {
                "start_time": 75.2136364,
                "end_time": 82.15,
                "pitch": 48,
                "velocity": 51,
                "duration": 6.9363636,
                "tempo": 120.0
            },
            {
                "start_time": 81.9340909,
                "end_time": 82.15,
                "pitch": 60,
                "velocity": 51,
                "duration": 0.2159091,
                "tempo": 120.0
            },
            {
                "start_time": 82.15,
                "end_time": 82.2,
                "pitch": 60,
                "velocity": 51,
                "duration": 0.05,
                "tempo": 120.0
            },
            {
                "start_time": 75.2636364,
                "end_time": 82.2,
                "pitch": 64,
                "velocity": 51,
                "duration": 6.9363636,
                "tempo": 120.0
            },
            {
                "start_time": 82.15,
                "end_time": 82.2840909,
                "pitch": 48,
                "velocity": 51,
                "duration": 0.1340909,
                "tempo": 120.0
            },
            {
                "start_time": 82.2,
                "end_time": 82.2840909,
                "pitch": 60,
                "velocity": 51,
                "duration": 0.0840909,
                "tempo": 120.0
            },
            {
                "start_time": 82.2840909,
                "end_time": 82.3340909,
                "pitch": 60,
                "velocity": 51,
                "duration": 0.05,
                "tempo": 120.0
            },
            {
                "start_time": 82.2,
                "end_time": 82.3340909,
                "pitch": 64,
                "velocity": 51,
                "duration": 0.1340909,
                "tempo": 120.0
            },
            {
                "start_time": 82.2840909,
                "end_time": 82.4159091,
                "pitch": 48,
                "velocity": 51,
                "duration": 0.1318182,
                "tempo": 120.0
            },
            {
                "start_time": 82.3340909,
                "end_time": 82.4159091,
                "pitch": 60,
                "velocity": 51,
                "duration": 0.0818182,
                "tempo": 120.0
            },
            {
                "start_time": 82.4159091,
                "end_time": 82.4681818,
                "pitch": 60,
                "velocity": 51,
                "duration": 0.0522727,
                "tempo": 120.0
            },
            {
                "start_time": 82.4681818,
                "end_time": 82.5340909,
                "pitch": 60,
                "velocity": 51,
                "duration": 0.0659091,
                "tempo": 120.0
            },
            {
                "start_time": 82.5340909,
                "end_time": 82.7363636,
                "pitch": 58,
                "velocity": 51,
                "duration": 0.2022727,
                "tempo": 120.0
            },
            {
                "start_time": 82.7363636,
                "end_time": 82.9386364,
                "pitch": 57,
                "velocity": 51,
                "duration": 0.2022727,
                "tempo": 120.0
            },
            {
                "start_time": 82.9386364,
                "end_time": 83.1363636,
                "pitch": 58,
                "velocity": 51,
                "duration": 0.1977273,
                "tempo": 120.0
            },
            {
                "start_time": 83.1386364,
                "end_time": 83.3363636,
                "pitch": 55,
                "velocity": 51,
                "duration": 0.1977273,
                "tempo": 120.0
            },
            {
                "start_time": 83.3386364,
                "end_time": 83.5363636,
                "pitch": 65,
                "velocity": 51,
                "duration": 0.1977273,
                "tempo": 120.0
            },
            {
                "start_time": 83.5386364,
                "end_time": 83.7340909,
                "pitch": 63,
                "velocity": 51,
                "duration": 0.1954545,
                "tempo": 120.0
            },
            {
                "start_time": 83.7340909,
                "end_time": 83.9318182,
                "pitch": 62,
                "velocity": 51,
                "duration": 0.1977273,
                "tempo": 120.0
            },
            {
                "start_time": 83.9318182,
                "end_time": 84.1295455,
                "pitch": 60,
                "velocity": 51,
                "duration": 0.1977273,
                "tempo": 120.0
            },
            {
                "start_time": 84.1295455,
                "end_time": 84.3295455,
                "pitch": 58,
                "velocity": 51,
                "duration": 0.2,
                "tempo": 120.0
            },
            {
                "start_time": 82.4159091,
                "end_time": 84.5454545,
                "pitch": 48,
                "velocity": 51,
                "duration": 2.1295455,
                "tempo": 120.0
            },
            {
                "start_time": 84.3295455,
                "end_time": 84.5454545,
                "pitch": 60,
                "velocity": 51,
                "duration": 0.2159091,
                "tempo": 120.0
            },
            {
                "start_time": 84.5454545,
                "end_time": 84.5954545,
                "pitch": 60,
                "velocity": 51,
                "duration": 0.05,
                "tempo": 120.0
            },
            {
                "start_time": 82.3340909,
                "end_time": 84.5954545,
                "pitch": 64,
                "velocity": 51,
                "duration": 2.2613636,
                "tempo": 120.0
            },
            {
                "start_time": 84.5454545,
                "end_time": 84.6772727,
                "pitch": 48,
                "velocity": 51,
                "duration": 0.1318182,
                "tempo": 120.0
            },
            {
                "start_time": 84.5954545,
                "end_time": 84.6772727,
                "pitch": 60,
                "velocity": 51,
                "duration": 0.0818182,
                "tempo": 120.0
            },
            {
                "start_time": 84.6772727,
                "end_time": 84.7295455,
                "pitch": 60,
                "velocity": 51,
                "duration": 0.0522727,
                "tempo": 120.0
            },
            {
                "start_time": 84.5954545,
                "end_time": 84.7295455,
                "pitch": 64,
                "velocity": 51,
                "duration": 0.1340909,
                "tempo": 120.0
            },
            {
                "start_time": 84.6772727,
                "end_time": 84.8113636,
                "pitch": 48,
                "velocity": 51,
                "duration": 0.1340909,
                "tempo": 120.0
            },
            {
                "start_time": 84.7295455,
                "end_time": 84.8113636,
                "pitch": 60,
                "velocity": 51,
                "duration": 0.0818182,
                "tempo": 120.0
            },
            {
                "start_time": 84.8113636,
                "end_time": 84.8613636,
                "pitch": 60,
                "velocity": 51,
                "duration": 0.05,
                "tempo": 120.0
            },
            {
                "start_time": 84.7295455,
                "end_time": 84.8613636,
                "pitch": 64,
                "velocity": 51,
                "duration": 0.1318182,
                "tempo": 120.0
            },
            {
                "start_time": 84.8613636,
                "end_time": 84.9272727,
                "pitch": 60,
                "velocity": 51,
                "duration": 0.0659091,
                "tempo": 120.0
            },
            {
                "start_time": 84.9272727,
                "end_time": 85.1272727,
                "pitch": 58,
                "velocity": 51,
                "duration": 0.2,
                "tempo": 120.0
            },
            {
                "start_time": 85.1272727,
                "end_time": 85.3272727,
                "pitch": 57,
                "velocity": 51,
                "duration": 0.2,
                "tempo": 120.0
            },
            {
                "start_time": 85.3272727,
                "end_time": 85.5272727,
                "pitch": 58,
                "velocity": 51,
                "duration": 0.2,
                "tempo": 120.0
            },
            {
                "start_time": 85.5272727,
                "end_time": 85.7454545,
                "pitch": 55,
                "velocity": 51,
                "duration": 0.2181818,
                "tempo": 120.0
            },
            {
                "start_time": 78.2022727,
                "end_time": 85.7977273,
                "pitch": 0,
                "velocity": 51,
                "duration": 7.5954545,
                "tempo": 120.0
            },
            {
                "start_time": 85.7454545,
                "end_time": 85.7977273,
                "pitch": 55,
                "velocity": 51,
                "duration": 0.0522727,
                "tempo": 120.0
            },
            {
                "start_time": 85.7977273,
                "end_time": 85.8818182,
                "pitch": 55,
                "velocity": 51,
                "duration": 0.0840909,
                "tempo": 120.0
            },
            {
                "start_time": 85.7454545,
                "end_time": 85.8818182,
                "pitch": 67,
                "velocity": 51,
                "duration": 0.1363636,
                "tempo": 120.0
            },
            {
                "start_time": 85.7977273,
                "end_time": 85.9318182,
                "pitch": 0,
                "velocity": 51,
                "duration": 0.1340909,
                "tempo": 120.0
            },
            {
                "start_time": 85.8818182,
                "end_time": 85.9318182,
                "pitch": 55,
                "velocity": 51,
                "duration": 0.05,
                "tempo": 120.0
            },
            {
                "start_time": 85.9318182,
                "end_time": 86.0136364,
                "pitch": 55,
                "velocity": 51,
                "duration": 0.0818182,
                "tempo": 120.0
            },
            {
                "start_time": 85.8818182,
                "end_time": 86.0136364,
                "pitch": 67,
                "velocity": 51,
                "duration": 0.1318182,
                "tempo": 120.0
            },
            {
                "start_time": 85.9318182,
                "end_time": 86.0636364,
                "pitch": 0,
                "velocity": 51,
                "duration": 0.1318182,
                "tempo": 120.0
            },
            {
                "start_time": 86.0136364,
                "end_time": 86.0636364,
                "pitch": 55,
                "velocity": 51,
                "duration": 0.05,
                "tempo": 120.0
            },
            {
                "start_time": 86.0636364,
                "end_time": 86.1477273,
                "pitch": 55,
                "velocity": 51,
                "duration": 0.0840909,
                "tempo": 120.0
            },
            {
                "start_time": 86.0136364,
                "end_time": 86.1477273,
                "pitch": 67,
                "velocity": 51,
                "duration": 0.1340909,
                "tempo": 120.0
            },
            {
                "start_time": 86.0636364,
                "end_time": 86.1977273,
                "pitch": 0,
                "velocity": 51,
                "duration": 0.1340909,
                "tempo": 120.0
            },
            {
                "start_time": 86.1477273,
                "end_time": 86.1977273,
                "pitch": 55,
                "velocity": 51,
                "duration": 0.05,
                "tempo": 120.0
            },
            {
                "start_time": 86.1977273,
                "end_time": 86.2818182,
                "pitch": 55,
                "velocity": 51,
                "duration": 0.0840909,
                "tempo": 120.0
            },
            {
                "start_time": 86.1477273,
                "end_time": 86.2818182,
                "pitch": 67,
                "velocity": 51,
                "duration": 0.1340909,
                "tempo": 120.0
            },
            {
                "start_time": 86.1977273,
                "end_time": 86.3295455,
                "pitch": 0,
                "velocity": 51,
                "duration": 0.1318182,
                "tempo": 120.0
            },
            {
                "start_time": 86.2818182,
                "end_time": 86.3295455,
                "pitch": 55,
                "velocity": 51,
                "duration": 0.0477273,
                "tempo": 120.0
            },
            {
                "start_time": 86.3295455,
                "end_time": 86.4136364,
                "pitch": 55,
                "velocity": 51,
                "duration": 0.0840909,
                "tempo": 120.0
            },
            {
                "start_time": 86.2818182,
                "end_time": 86.4136364,
                "pitch": 67,
                "velocity": 51,
                "duration": 0.1318182,
                "tempo": 120.0
            },
            {
                "start_time": 86.3295455,
                "end_time": 86.4636364,
                "pitch": 0,
                "velocity": 51,
                "duration": 0.1340909,
                "tempo": 120.0
            },
            {
                "start_time": 86.4136364,
                "end_time": 86.4636364,
                "pitch": 55,
                "velocity": 51,
                "duration": 0.05,
                "tempo": 120.0
            },
            {
                "start_time": 86.4636364,
                "end_time": 86.5477273,
                "pitch": 55,
                "velocity": 51,
                "duration": 0.0840909,
                "tempo": 120.0
            },
            {
                "start_time": 86.4136364,
                "end_time": 86.5477273,
                "pitch": 67,
                "velocity": 51,
                "duration": 0.1340909,
                "tempo": 120.0
            },
            {
                "start_time": 86.4636364,
                "end_time": 86.5977273,
                "pitch": 0,
                "velocity": 51,
                "duration": 0.1340909,
                "tempo": 120.0
            },
            {
                "start_time": 86.5477273,
                "end_time": 86.5977273,
                "pitch": 55,
                "velocity": 51,
                "duration": 0.05,
                "tempo": 120.0
            },
            {
                "start_time": 86.5977273,
                "end_time": 86.6818182,
                "pitch": 55,
                "velocity": 51,
                "duration": 0.0840909,
                "tempo": 120.0
            },
            {
                "start_time": 86.5477273,
                "end_time": 86.6818182,
                "pitch": 67,
                "velocity": 51,
                "duration": 0.1340909,
                "tempo": 120.0
            },
            {
                "start_time": 86.5977273,
                "end_time": 86.7318182,
                "pitch": 0,
                "velocity": 51,
                "duration": 0.1340909,
                "tempo": 120.0
            },
            {
                "start_time": 86.6818182,
                "end_time": 86.7318182,
                "pitch": 55,
                "velocity": 51,
                "duration": 0.05,
                "tempo": 120.0
            },
            {
                "start_time": 86.7318182,
                "end_time": 86.8159091,
                "pitch": 55,
                "velocity": 51,
                "duration": 0.0840909,
                "tempo": 120.0
            },
            {
                "start_time": 86.6818182,
                "end_time": 86.8159091,
                "pitch": 67,
                "velocity": 51,
                "duration": 0.1340909,
                "tempo": 120.0
            },
            {
                "start_time": 86.7318182,
                "end_time": 86.8659091,
                "pitch": 0,
                "velocity": 51,
                "duration": 0.1340909,
                "tempo": 120.0
            },
            {
                "start_time": 86.8159091,
                "end_time": 86.8659091,
                "pitch": 55,
                "velocity": 51,
                "duration": 0.05,
                "tempo": 120.0
            },
            {
                "start_time": 86.8659091,
                "end_time": 86.95,
                "pitch": 55,
                "velocity": 51,
                "duration": 0.0840909,
                "tempo": 120.0
            },
            {
                "start_time": 86.8159091,
                "end_time": 86.95,
                "pitch": 67,
                "velocity": 51,
                "duration": 0.1340909,
                "tempo": 120.0
            },
            {
                "start_time": 86.8659091,
                "end_time": 87.0,
                "pitch": 0,
                "velocity": 51,
                "duration": 0.1340909,
                "tempo": 120.0
            },
            {
                "start_time": 86.95,
                "end_time": 87.0,
                "pitch": 55,
                "velocity": 51,
                "duration": 0.05,
                "tempo": 120.0
            },
            {
                "start_time": 87.0,
                "end_time": 87.0840909,
                "pitch": 55,
                "velocity": 51,
                "duration": 0.0840909,
                "tempo": 120.0
            },
            {
                "start_time": 86.95,
                "end_time": 87.0840909,
                "pitch": 67,
                "velocity": 51,
                "duration": 0.1340909,
                "tempo": 120.0
            },
            {
                "start_time": 87.0,
                "end_time": 87.1340909,
                "pitch": 0,
                "velocity": 51,
                "duration": 0.1340909,
                "tempo": 120.0
            },
            {
                "start_time": 87.0840909,
                "end_time": 87.1340909,
                "pitch": 55,
                "velocity": 51,
                "duration": 0.05,
                "tempo": 120.0
            },
            {
                "start_time": 87.1340909,
                "end_time": 87.2181818,
                "pitch": 55,
                "velocity": 51,
                "duration": 0.0840909,
                "tempo": 120.0
            },
            {
                "start_time": 87.0840909,
                "end_time": 87.2181818,
                "pitch": 67,
                "velocity": 51,
                "duration": 0.1340909,
                "tempo": 120.0
            },
            {
                "start_time": 87.1340909,
                "end_time": 87.2659091,
                "pitch": 0,
                "velocity": 51,
                "duration": 0.1318182,
                "tempo": 120.0
            },
            {
                "start_time": 87.2181818,
                "end_time": 87.2659091,
                "pitch": 55,
                "velocity": 51,
                "duration": 0.0477273,
                "tempo": 120.0
            },
            {
                "start_time": 87.2659091,
                "end_time": 87.35,
                "pitch": 55,
                "velocity": 51,
                "duration": 0.0840909,
                "tempo": 120.0
            },
            {
                "start_time": 87.2181818,
                "end_time": 87.35,
                "pitch": 67,
                "velocity": 51,
                "duration": 0.1318182,
                "tempo": 120.0
            },
            {
                "start_time": 87.2659091,
                "end_time": 87.3977273,
                "pitch": 0,
                "velocity": 51,
                "duration": 0.1318182,
                "tempo": 120.0
            },
            {
                "start_time": 87.35,
                "end_time": 87.3977273,
                "pitch": 55,
                "velocity": 51,
                "duration": 0.0477273,
                "tempo": 120.0
            },
            {
                "start_time": 87.3977273,
                "end_time": 87.4795455,
                "pitch": 55,
                "velocity": 51,
                "duration": 0.0818182,
                "tempo": 120.0
            },
            {
                "start_time": 87.35,
                "end_time": 87.4795455,
                "pitch": 67,
                "velocity": 51,
                "duration": 0.1295455,
                "tempo": 120.0
            },
            {
                "start_time": 87.3977273,
                "end_time": 87.5295455,
                "pitch": 0,
                "velocity": 51,
                "duration": 0.1318182,
                "tempo": 120.0
            },
            {
                "start_time": 87.4795455,
                "end_time": 87.5295455,
                "pitch": 55,
                "velocity": 51,
                "duration": 0.05,
                "tempo": 120.0
            },
            {
                "start_time": 87.5295455,
                "end_time": 87.6113636,
                "pitch": 55,
                "velocity": 51,
                "duration": 0.0818182,
                "tempo": 120.0
            },
            {
                "start_time": 87.4795455,
                "end_time": 87.6113636,
                "pitch": 67,
                "velocity": 51,
                "duration": 0.1318182,
                "tempo": 120.0
            },
            {
                "start_time": 87.5295455,
                "end_time": 87.6613636,
                "pitch": 0,
                "velocity": 51,
                "duration": 0.1318182,
                "tempo": 120.0
            },
            {
                "start_time": 87.6113636,
                "end_time": 87.6613636,
                "pitch": 55,
                "velocity": 51,
                "duration": 0.05,
                "tempo": 120.0
            },
            {
                "start_time": 87.6613636,
                "end_time": 87.7431818,
                "pitch": 55,
                "velocity": 51,
                "duration": 0.0818182,
                "tempo": 120.0
            },
            {
                "start_time": 87.6113636,
                "end_time": 87.7431818,
                "pitch": 67,
                "velocity": 51,
                "duration": 0.1318182,
                "tempo": 120.0
            },
            {
                "start_time": 87.6613636,
                "end_time": 87.7954545,
                "pitch": 0,
                "velocity": 51,
                "duration": 0.1340909,
                "tempo": 120.0
            },
            {
                "start_time": 87.7431818,
                "end_time": 87.7954545,
                "pitch": 55,
                "velocity": 51,
                "duration": 0.0522727,
                "tempo": 120.0
            },
            {
                "start_time": 87.7954545,
                "end_time": 87.8795455,
                "pitch": 55,
                "velocity": 51,
                "duration": 0.0840909,
                "tempo": 120.0
            },
            {
                "start_time": 87.8795455,
                "end_time": 87.9295455,
                "pitch": 55,
                "velocity": 51,
                "duration": 0.05,
                "tempo": 120.0
            },
            {
                "start_time": 87.9295455,
                "end_time": 88.1295455,
                "pitch": 63,
                "velocity": 51,
                "duration": 0.2,
                "tempo": 120.0
            },
            {
                "start_time": 88.1318182,
                "end_time": 88.3318182,
                "pitch": 62,
                "velocity": 51,
                "duration": 0.2,
                "tempo": 120.0
            },
            {
                "start_time": 88.3318182,
                "end_time": 88.5318182,
                "pitch": 60,
                "velocity": 51,
                "duration": 0.2,
                "tempo": 120.0
            },
            {
                "start_time": 88.5318182,
                "end_time": 88.7318182,
                "pitch": 62,
                "velocity": 51,
                "duration": 0.2,
                "tempo": 120.0
            },
            {
                "start_time": 88.7318182,
                "end_time": 88.9318182,
                "pitch": 65,
                "velocity": 51,
                "duration": 0.2,
                "tempo": 120.0
            },
            {
                "start_time": 87.7431818,
                "end_time": 89.1318182,
                "pitch": 67,
                "velocity": 51,
                "duration": 1.3886364,
                "tempo": 120.0
            },
            {
                "start_time": 88.9318182,
                "end_time": 89.1318182,
                "pitch": 67,
                "velocity": 51,
                "duration": 0.2,
                "tempo": 120.0
            },
            {
                "start_time": 89.1318182,
                "end_time": 89.3340909,
                "pitch": 69,
                "velocity": 51,
                "duration": 0.2022727,
                "tempo": 120.0
            },
            {
                "start_time": 89.3340909,
                "end_time": 89.5363636,
                "pitch": 66,
                "velocity": 51,
                "duration": 0.2022727,
                "tempo": 120.0
            },
            {
                "start_time": 89.5363636,
                "end_time": 89.7340909,
                "pitch": 62,
                "velocity": 51,
                "duration": 0.1977273,
                "tempo": 120.0
            },
            {
                "start_time": 89.7363636,
                "end_time": 89.9340909,
                "pitch": 60,
                "velocity": 51,
                "duration": 0.1977273,
                "tempo": 120.0
            },
            {
                "start_time": 89.9363636,
                "end_time": 90.1340909,
                "pitch": 58,
                "velocity": 51,
                "duration": 0.1977273,
                "tempo": 120.0
            },
            {
                "start_time": 90.1363636,
                "end_time": 90.3340909,
                "pitch": 57,
                "velocity": 51,
                "duration": 0.1977273,
                "tempo": 120.0
            },
            {
                "start_time": 90.3340909,
                "end_time": 90.5340909,
                "pitch": 58,
                "velocity": 51,
                "duration": 0.2,
                "tempo": 120.0
            },
            {
                "start_time": 90.5340909,
                "end_time": 90.7340909,
                "pitch": 55,
                "velocity": 51,
                "duration": 0.2,
                "tempo": 120.0
            },
            {
                "start_time": 90.7340909,
                "end_time": 90.9295455,
                "pitch": 57,
                "velocity": 51,
                "duration": 0.1954545,
                "tempo": 120.0
            },
            {
                "start_time": 90.9318182,
                "end_time": 91.1272727,
                "pitch": 67,
                "velocity": 51,
                "duration": 0.1954545,
                "tempo": 120.0
            },
            {
                "start_time": 91.1295455,
                "end_time": 91.3272727,
                "pitch": 65,
                "velocity": 51,
                "duration": 0.1977273,
                "tempo": 120.0
            },
            {
                "start_time": 91.3272727,
                "end_time": 91.5295455,
                "pitch": 63,
                "velocity": 51,
                "duration": 0.2022727,
                "tempo": 120.0
            },
            {
                "start_time": 91.5295455,
                "end_time": 91.7318182,
                "pitch": 62,
                "velocity": 51,
                "duration": 0.2022727,
                "tempo": 120.0
            },
            {
                "start_time": 91.7340909,
                "end_time": 91.9363636,
                "pitch": 60,
                "velocity": 51,
                "duration": 0.2022727,
                "tempo": 120.0
            },
            {
                "start_time": 91.9363636,
                "end_time": 92.1386364,
                "pitch": 58,
                "velocity": 51,
                "duration": 0.2022727,
                "tempo": 120.0
            },
            {
                "start_time": 92.1386364,
                "end_time": 92.3386364,
                "pitch": 57,
                "velocity": 51,
                "duration": 0.2,
                "tempo": 120.0
            },
            {
                "start_time": 92.3409091,
                "end_time": 92.5409091,
                "pitch": 58,
                "velocity": 51,
                "duration": 0.2,
                "tempo": 120.0
            },
            {
                "start_time": 92.5431818,
                "end_time": 92.7386364,
                "pitch": 60,
                "velocity": 51,
                "duration": 0.1954545,
                "tempo": 120.0
            },
            {
                "start_time": 92.7386364,
                "end_time": 95.1409091,
                "pitch": 62,
                "velocity": 51,
                "duration": 2.4022727,
                "tempo": 120.0
            },
            {
                "start_time": 95.1431818,
                "end_time": 95.3409091,
                "pitch": 62,
                "velocity": 51,
                "duration": 0.1977273,
                "tempo": 120.0
            },
            {
                "start_time": 95.3409091,
                "end_time": 95.5409091,
                "pitch": 60,
                "velocity": 51,
                "duration": 0.2,
                "tempo": 120.0
            },
            {
                "start_time": 95.5409091,
                "end_time": 95.7386364,
                "pitch": 62,
                "velocity": 51,
                "duration": 0.1977273,
                "tempo": 120.0
            },
            {
                "start_time": 95.7386364,
                "end_time": 95.9363636,
                "pitch": 55,
                "velocity": 51,
                "duration": 0.1977273,
                "tempo": 120.0
            },
            {
                "start_time": 95.9363636,
                "end_time": 96.1340909,
                "pitch": 62,
                "velocity": 51,
                "duration": 0.1977273,
                "tempo": 120.0
            },
            {
                "start_time": 96.1340909,
                "end_time": 96.3340909,
                "pitch": 60,
                "velocity": 51,
                "duration": 0.2,
                "tempo": 120.0
            },
            {
                "start_time": 96.3340909,
                "end_time": 96.5318182,
                "pitch": 62,
                "velocity": 51,
                "duration": 0.1977273,
                "tempo": 120.0
            },
            {
                "start_time": 96.5340909,
                "end_time": 96.7318182,
                "pitch": 60,
                "velocity": 51,
                "duration": 0.1977273,
                "tempo": 120.0
            },
            {
                "start_time": 96.7340909,
                "end_time": 96.9340909,
                "pitch": 62,
                "velocity": 51,
                "duration": 0.2,
                "tempo": 120.0
            },
            {
                "start_time": 96.9340909,
                "end_time": 97.1340909,
                "pitch": 55,
                "velocity": 51,
                "duration": 0.2,
                "tempo": 120.0
            },
            {
                "start_time": 97.1363636,
                "end_time": 97.3363636,
                "pitch": 62,
                "velocity": 51,
                "duration": 0.2,
                "tempo": 120.0
            },
            {
                "start_time": 97.3386364,
                "end_time": 97.5363636,
                "pitch": 60,
                "velocity": 51,
                "duration": 0.1977273,
                "tempo": 120.0
            },
            {
                "start_time": 97.5363636,
                "end_time": 97.7363636,
                "pitch": 69,
                "velocity": 51,
                "duration": 0.2,
                "tempo": 120.0
            },
            {
                "start_time": 97.7363636,
                "end_time": 97.9363636,
                "pitch": 66,
                "velocity": 51,
                "duration": 0.2,
                "tempo": 120.0
            },
            {
                "start_time": 97.9363636,
                "end_time": 98.1340909,
                "pitch": 63,
                "velocity": 51,
                "duration": 0.1977273,
                "tempo": 120.0
            },
            {
                "start_time": 98.1363636,
                "end_time": 98.3340909,
                "pitch": 62,
                "velocity": 51,
                "duration": 0.1977273,
                "tempo": 120.0
            },
            {
                "start_time": 98.3363636,
                "end_time": 98.5340909,
                "pitch": 60,
                "velocity": 51,
                "duration": 0.1977273,
                "tempo": 120.0
            },
            {
                "start_time": 98.5363636,
                "end_time": 98.7363636,
                "pitch": 58,
                "velocity": 51,
                "duration": 0.2,
                "tempo": 120.0
            },
            {
                "start_time": 98.7363636,
                "end_time": 98.9363636,
                "pitch": 57,
                "velocity": 51,
                "duration": 0.2,
                "tempo": 120.0
            },
            {
                "start_time": 98.9386364,
                "end_time": 99.1386364,
                "pitch": 54,
                "velocity": 51,
                "duration": 0.2,
                "tempo": 120.0
            },
            {
                "start_time": 99.1409091,
                "end_time": 99.3386364,
                "pitch": 51,
                "velocity": 51,
                "duration": 0.1977273,
                "tempo": 120.0
            },
            {
                "start_time": 99.3386364,
                "end_time": 99.9386364,
                "pitch": 50,
                "velocity": 51,
                "duration": 0.6,
                "tempo": 120.0
            },
            {
                "start_time": 99.9409091,
                "end_time": 100.1409091,
                "pitch": 58,
                "velocity": 51,
                "duration": 0.2,
                "tempo": 120.0
            },
            {
                "start_time": 100.1409091,
                "end_time": 100.3431818,
                "pitch": 55,
                "velocity": 51,
                "duration": 0.2022727,
                "tempo": 120.0
            },
            {
                "start_time": 100.3431818,
                "end_time": 100.5409091,
                "pitch": 57,
                "velocity": 51,
                "duration": 0.1977273,
                "tempo": 120.0
            },
            {
                "start_time": 100.5409091,
                "end_time": 100.7386364,
                "pitch": 67,
                "velocity": 51,
                "duration": 0.1977273,
                "tempo": 120.0
            },
            {
                "start_time": 100.7386364,
                "end_time": 100.9363636,
                "pitch": 65,
                "velocity": 51,
                "duration": 0.1977273,
                "tempo": 120.0
            },
            {
                "start_time": 100.9363636,
                "end_time": 101.1386364,
                "pitch": 63,
                "velocity": 51,
                "duration": 0.2022727,
                "tempo": 120.0
            },
            {
                "start_time": 101.1386364,
                "end_time": 101.3409091,
                "pitch": 62,
                "velocity": 51,
                "duration": 0.2022727,
                "tempo": 120.0
            },
            {
                "start_time": 101.3431818,
                "end_time": 101.5454545,
                "pitch": 60,
                "velocity": 51,
                "duration": 0.2022727,
                "tempo": 120.0
            },
            {
                "start_time": 101.5477273,
                "end_time": 101.7477273,
                "pitch": 58,
                "velocity": 51,
                "duration": 0.2,
                "tempo": 120.0
            },
            {
                "start_time": 101.7477273,
                "end_time": 101.95,
                "pitch": 57,
                "velocity": 51,
                "duration": 0.2022727,
                "tempo": 120.0
            },
            {
                "start_time": 101.95,
                "end_time": 102.15,
                "pitch": 58,
                "velocity": 51,
                "duration": 0.2,
                "tempo": 120.0
            },
            {
                "start_time": 102.1522727,
                "end_time": 102.3477273,
                "pitch": 60,
                "velocity": 51,
                "duration": 0.1954545,
                "tempo": 120.0
            },
            {
                "start_time": 102.35,
                "end_time": 104.7431818,
                "pitch": 62,
                "velocity": 51,
                "duration": 2.3931818,
                "tempo": 120.0
            },
            {
                "start_time": 104.7431818,
                "end_time": 104.9409091,
                "pitch": 62,
                "velocity": 51,
                "duration": 0.1977273,
                "tempo": 120.0
            },
            {
                "start_time": 104.9409091,
                "end_time": 105.1386364,
                "pitch": 60,
                "velocity": 51,
                "duration": 0.1977273,
                "tempo": 120.0
            },
            {
                "start_time": 105.1386364,
                "end_time": 105.3386364,
                "pitch": 62,
                "velocity": 51,
                "duration": 0.2,
                "tempo": 120.0
            },
            {
                "start_time": 105.3409091,
                "end_time": 105.5409091,
                "pitch": 55,
                "velocity": 51,
                "duration": 0.2,
                "tempo": 120.0
            },
            {
                "start_time": 105.5409091,
                "end_time": 105.7431818,
                "pitch": 62,
                "velocity": 51,
                "duration": 0.2022727,
                "tempo": 120.0
            },
            {
                "start_time": 105.7431818,
                "end_time": 105.9431818,
                "pitch": 60,
                "velocity": 51,
                "duration": 0.2,
                "tempo": 120.0
            },
            {
                "start_time": 105.9431818,
                "end_time": 106.1409091,
                "pitch": 62,
                "velocity": 51,
                "duration": 0.1977273,
                "tempo": 120.0
            },
            {
                "start_time": 106.1431818,
                "end_time": 106.3409091,
                "pitch": 60,
                "velocity": 51,
                "duration": 0.1977273,
                "tempo": 120.0
            },
            {
                "start_time": 106.3431818,
                "end_time": 106.5431818,
                "pitch": 62,
                "velocity": 51,
                "duration": 0.2,
                "tempo": 120.0
            },
            {
                "start_time": 106.5431818,
                "end_time": 106.7454545,
                "pitch": 55,
                "velocity": 51,
                "duration": 0.2022727,
                "tempo": 120.0
            },
            {
                "start_time": 106.7454545,
                "end_time": 106.9477273,
                "pitch": 62,
                "velocity": 51,
                "duration": 0.2022727,
                "tempo": 120.0
            },
            {
                "start_time": 106.9477273,
                "end_time": 107.1454545,
                "pitch": 60,
                "velocity": 51,
                "duration": 0.1977273,
                "tempo": 120.0
            },
            {
                "start_time": 107.1477273,
                "end_time": 107.3454545,
                "pitch": 69,
                "velocity": 51,
                "duration": 0.1977273,
                "tempo": 120.0
            },
            {
                "start_time": 107.3454545,
                "end_time": 107.5454545,
                "pitch": 66,
                "velocity": 51,
                "duration": 0.2,
                "tempo": 120.0
            },
            {
                "start_time": 107.5454545,
                "end_time": 107.7454545,
                "pitch": 63,
                "velocity": 51,
                "duration": 0.2,
                "tempo": 120.0
            },
            {
                "start_time": 107.7454545,
                "end_time": 107.9431818,
                "pitch": 62,
                "velocity": 51,
                "duration": 0.1977273,
                "tempo": 120.0
            },
            {
                "start_time": 107.9454545,
                "end_time": 108.1431818,
                "pitch": 60,
                "velocity": 51,
                "duration": 0.1977273,
                "tempo": 120.0
            },
            {
                "start_time": 108.1454545,
                "end_time": 108.3454545,
                "pitch": 58,
                "velocity": 51,
                "duration": 0.2,
                "tempo": 120.0
            },
            {
                "start_time": 108.3454545,
                "end_time": 108.5477273,
                "pitch": 57,
                "velocity": 51,
                "duration": 0.2022727,
                "tempo": 120.0
            },
            {
                "start_time": 108.5477273,
                "end_time": 108.7477273,
                "pitch": 54,
                "velocity": 51,
                "duration": 0.2,
                "tempo": 120.0
            },
            {
                "start_time": 108.75,
                "end_time": 108.9477273,
                "pitch": 51,
                "velocity": 51,
                "duration": 0.1977273,
                "tempo": 120.0
            },
            {
                "start_time": 108.9477273,
                "end_time": 109.1477273,
                "pitch": 50,
                "velocity": 51,
                "duration": 0.2,
                "tempo": 120.0
            },
            {
                "start_time": 84.8113636,
                "end_time": 109.3477273,
                "pitch": 48,
                "velocity": 51,
                "duration": 24.5363636,
                "tempo": 120.0
            },
            {
                "start_time": 109.1477273,
                "end_time": 109.3477273,
                "pitch": 48,
                "velocity": 51,
                "duration": 0.2,
                "tempo": 120.0
            },
            {
                "start_time": 109.3477273,
                "end_time": 109.5477273,
                "pitch": 46,
                "velocity": 51,
                "duration": 0.2,
                "tempo": 120.0
            },
            {
                "start_time": 109.55,
                "end_time": 110.7454545,
                "pitch": 45,
                "velocity": 51,
                "duration": 1.1954545,
                "tempo": 120.0
            },
            {
                "start_time": 110.7477273,
                "end_time": 110.9477273,
                "pitch": 62,
                "velocity": 51,
                "duration": 0.2,
                "tempo": 120.0
            },
            {
                "start_time": 110.9477273,
                "end_time": 111.15,
                "pitch": 63,
                "velocity": 51,
                "duration": 0.2022727,
                "tempo": 120.0
            },
            {
                "start_time": 111.15,
                "end_time": 111.3477273,
                "pitch": 62,
                "velocity": 51,
                "duration": 0.1977273,
                "tempo": 120.0
            },
            {
                "start_time": 111.35,
                "end_time": 111.5477273,
                "pitch": 63,
                "velocity": 51,
                "duration": 0.1977273,
                "tempo": 120.0
            },
            {
                "start_time": 111.55,
                "end_time": 111.7477273,
                "pitch": 59,
                "velocity": 51,
                "duration": 0.1977273,
                "tempo": 120.0
            },
            {
                "start_time": 111.75,
                "end_time": 111.95,
                "pitch": 60,
                "velocity": 51,
                "duration": 0.2,
                "tempo": 120.0
            },
            {
                "start_time": 111.95,
                "end_time": 112.15,
                "pitch": 62,
                "velocity": 51,
                "duration": 0.2,
                "tempo": 120.0
            },
            {
                "start_time": 112.1522727,
                "end_time": 112.3522727,
                "pitch": 55,
                "velocity": 51,
                "duration": 0.2,
                "tempo": 120.0
            },
            {
                "start_time": 112.3545455,
                "end_time": 112.5522727,
                "pitch": 57,
                "velocity": 51,
                "duration": 0.1977273,
                "tempo": 120.0
            },
            {
                "start_time": 112.5522727,
                "end_time": 112.7522727,
                "pitch": 59,
                "velocity": 51,
                "duration": 0.2,
                "tempo": 120.0
            },
            {
                "start_time": 112.7522727,
                "end_time": 112.9522727,
                "pitch": 60,
                "velocity": 51,
                "duration": 0.2,
                "tempo": 120.0
            },
            {
                "start_time": 112.9522727,
                "end_time": 113.15,
                "pitch": 62,
                "velocity": 51,
                "duration": 0.1977273,
                "tempo": 120.0
            },
            {
                "start_time": 113.1522727,
                "end_time": 113.35,
                "pitch": 62,
                "velocity": 51,
                "duration": 0.1977273,
                "tempo": 120.0
            },
            {
                "start_time": 113.3522727,
                "end_time": 113.55,
                "pitch": 63,
                "velocity": 51,
                "duration": 0.1977273,
                "tempo": 120.0
            },
            {
                "start_time": 113.5522727,
                "end_time": 113.7522727,
                "pitch": 62,
                "velocity": 51,
                "duration": 0.2,
                "tempo": 120.0
            },
            {
                "start_time": 113.7522727,
                "end_time": 113.9522727,
                "pitch": 63,
                "velocity": 51,
                "duration": 0.2,
                "tempo": 120.0
            },
            {
                "start_time": 113.9545455,
                "end_time": 114.1545455,
                "pitch": 59,
                "velocity": 51,
                "duration": 0.2,
                "tempo": 120.0
            },
            {
                "start_time": 114.1568182,
                "end_time": 114.3522727,
                "pitch": 60,
                "velocity": 51,
                "duration": 0.1954545,
                "tempo": 120.0
            },
            {
                "start_time": 114.3522727,
                "end_time": 114.55,
                "pitch": 62,
                "velocity": 51,
                "duration": 0.1977273,
                "tempo": 120.0
            },
            {
                "start_time": 114.55,
                "end_time": 114.7477273,
                "pitch": 55,
                "velocity": 51,
                "duration": 0.1977273,
                "tempo": 120.0
            },
            {
                "start_time": 114.7477273,
                "end_time": 114.95,
                "pitch": 57,
                "velocity": 51,
                "duration": 0.2022727,
                "tempo": 120.0
            },
            {
                "start_time": 114.9522727,
                "end_time": 115.1545455,
                "pitch": 59,
                "velocity": 51,
                "duration": 0.2022727,
                "tempo": 120.0
            },
            {
                "start_time": 115.1545455,
                "end_time": 115.3590909,
                "pitch": 60,
                "velocity": 51,
                "duration": 0.2045455,
                "tempo": 120.0
            },
            {
                "start_time": 115.3590909,
                "end_time": 115.5568182,
                "pitch": 62,
                "velocity": 51,
                "duration": 0.1977273,
                "tempo": 120.0
            },
            {
                "start_time": 115.5568182,
                "end_time": 115.7545455,
                "pitch": 62,
                "velocity": 51,
                "duration": 0.1977273,
                "tempo": 120.0
            },
            {
                "start_time": 115.7545455,
                "end_time": 115.9522727,
                "pitch": 60,
                "velocity": 51,
                "duration": 0.1977273,
                "tempo": 120.0
            },
            {
                "start_time": 115.9522727,
                "end_time": 116.1522727,
                "pitch": 62,
                "velocity": 51,
                "duration": 0.2,
                "tempo": 120.0
            },
            {
                "start_time": 116.1522727,
                "end_time": 116.3545455,
                "pitch": 55,
                "velocity": 51,
                "duration": 0.2022727,
                "tempo": 120.0
            },
            {
                "start_time": 116.3545455,
                "end_time": 116.5568182,
                "pitch": 62,
                "velocity": 51,
                "duration": 0.2022727,
                "tempo": 120.0
            },
            {
                "start_time": 116.5568182,
                "end_time": 116.7545455,
                "pitch": 60,
                "velocity": 51,
                "duration": 0.1977273,
                "tempo": 120.0
            },
            {
                "start_time": 116.7568182,
                "end_time": 116.9545455,
                "pitch": 62,
                "velocity": 51,
                "duration": 0.1977273,
                "tempo": 120.0
            },
            {
                "start_time": 116.9545455,
                "end_time": 117.1545455,
                "pitch": 60,
                "velocity": 51,
                "duration": 0.2,
                "tempo": 120.0
            },
            {
                "start_time": 117.1545455,
                "end_time": 117.3568182,
                "pitch": 62,
                "velocity": 51,
                "duration": 0.2022727,
                "tempo": 120.0
            },
            {
                "start_time": 117.3568182,
                "end_time": 117.5568182,
                "pitch": 55,
                "velocity": 51,
                "duration": 0.2,
                "tempo": 120.0
            },
            {
                "start_time": 117.5590909,
                "end_time": 117.7590909,
                "pitch": 62,
                "velocity": 51,
                "duration": 0.2,
                "tempo": 120.0
            },
            {
                "start_time": 117.7590909,
                "end_time": 117.9590909,
                "pitch": 60,
                "velocity": 51,
                "duration": 0.2,
                "tempo": 120.0
            },
            {
                "start_time": 117.9590909,
                "end_time": 118.1590909,
                "pitch": 62,
                "velocity": 51,
                "duration": 0.2,
                "tempo": 120.0
            },
            {
                "start_time": 118.1590909,
                "end_time": 118.3590909,
                "pitch": 55,
                "velocity": 51,
                "duration": 0.2,
                "tempo": 120.0
            },
            {
                "start_time": 118.3590909,
                "end_time": 118.5568182,
                "pitch": 57,
                "velocity": 51,
                "duration": 0.1977273,
                "tempo": 120.0
            },
            {
                "start_time": 118.5590909,
                "end_time": 118.7568182,
                "pitch": 58,
                "velocity": 51,
                "duration": 0.1977273,
                "tempo": 120.0
            },
            {
                "start_time": 118.7568182,
                "end_time": 118.9568182,
                "pitch": 60,
                "velocity": 51,
                "duration": 0.2,
                "tempo": 120.0
            },
            {
                "start_time": 118.9568182,
                "end_time": 119.1568182,
                "pitch": 62,
                "velocity": 51,
                "duration": 0.2,
                "tempo": 120.0
            },
            {
                "start_time": 119.1590909,
                "end_time": 119.3590909,
                "pitch": 60,
                "velocity": 51,
                "duration": 0.2,
                "tempo": 120.0
            },
            {
                "start_time": 119.3590909,
                "end_time": 119.5613636,
                "pitch": 58,
                "velocity": 51,
                "duration": 0.2022727,
                "tempo": 120.0
            },
            {
                "start_time": 119.5613636,
                "end_time": 119.7613636,
                "pitch": 57,
                "velocity": 51,
                "duration": 0.2,
                "tempo": 120.0
            },
            {
                "start_time": 119.7613636,
                "end_time": 119.9613636,
                "pitch": 55,
                "velocity": 51,
                "duration": 0.2,
                "tempo": 120.0
            },
            {
                "start_time": 119.9613636,
                "end_time": 120.1613636,
                "pitch": 57,
                "velocity": 51,
                "duration": 0.2,
                "tempo": 120.0
            },
            {
                "start_time": 120.1613636,
                "end_time": 120.3568182,
                "pitch": 53,
                "velocity": 51,
                "duration": 0.1954545,
                "tempo": 120.0
            },
            {
                "start_time": 120.3590909,
                "end_time": 120.5545455,
                "pitch": 62,
                "velocity": 51,
                "duration": 0.1954545,
                "tempo": 120.0
            },
            {
                "start_time": 120.5568182,
                "end_time": 120.7545455,
                "pitch": 63,
                "velocity": 51,
                "duration": 0.1977273,
                "tempo": 120.0
            },
            {
                "start_time": 120.7545455,
                "end_time": 120.9522727,
                "pitch": 62,
                "velocity": 51,
                "duration": 0.1977273,
                "tempo": 120.0
            },
            {
                "start_time": 120.9522727,
                "end_time": 121.1522727,
                "pitch": 63,
                "velocity": 51,
                "duration": 0.2,
                "tempo": 120.0
            },
            {
                "start_time": 121.1522727,
                "end_time": 121.3522727,
                "pitch": 59,
                "velocity": 51,
                "duration": 0.2,
                "tempo": 120.0
            },
            {
                "start_time": 121.3522727,
                "end_time": 121.5522727,
                "pitch": 60,
                "velocity": 51,
                "duration": 0.2,
                "tempo": 120.0
            },
            {
                "start_time": 121.5545455,
                "end_time": 121.7545455,
                "pitch": 62,
                "velocity": 51,
                "duration": 0.2,
                "tempo": 120.0
            },
            {
                "start_time": 121.7545455,
                "end_time": 121.9568182,
                "pitch": 55,
                "velocity": 51,
                "duration": 0.2022727,
                "tempo": 120.0
            },
            {
                "start_time": 121.9568182,
                "end_time": 122.1568182,
                "pitch": 57,
                "velocity": 51,
                "duration": 0.2,
                "tempo": 120.0
            },
            {
                "start_time": 122.1568182,
                "end_time": 122.3545455,
                "pitch": 59,
                "velocity": 51,
                "duration": 0.1977273,
                "tempo": 120.0
            },
            {
                "start_time": 122.3568182,
                "end_time": 122.5545455,
                "pitch": 60,
                "velocity": 51,
                "duration": 0.1977273,
                "tempo": 120.0
            },
            {
                "start_time": 122.5568182,
                "end_time": 122.7568182,
                "pitch": 62,
                "velocity": 51,
                "duration": 0.2,
                "tempo": 120.0
            },
            {
                "start_time": 122.7568182,
                "end_time": 122.9568182,
                "pitch": 62,
                "velocity": 51,
                "duration": 0.2,
                "tempo": 120.0
            },
            {
                "start_time": 122.9590909,
                "end_time": 123.1590909,
                "pitch": 63,
                "velocity": 51,
                "duration": 0.2,
                "tempo": 120.0
            },
            {
                "start_time": 123.1613636,
                "end_time": 123.3590909,
                "pitch": 62,
                "velocity": 51,
                "duration": 0.1977273,
                "tempo": 120.0
            },
            {
                "start_time": 123.3590909,
                "end_time": 123.5590909,
                "pitch": 63,
                "velocity": 51,
                "duration": 0.2,
                "tempo": 120.0
            },
            {
                "start_time": 123.5590909,
                "end_time": 123.7590909,
                "pitch": 59,
                "velocity": 51,
                "duration": 0.2,
                "tempo": 120.0
            },
            {
                "start_time": 123.7590909,
                "end_time": 123.9568182,
                "pitch": 60,
                "velocity": 51,
                "duration": 0.1977273,
                "tempo": 120.0
            },
            {
                "start_time": 123.9568182,
                "end_time": 124.1545455,
                "pitch": 62,
                "velocity": 51,
                "duration": 0.1977273,
                "tempo": 120.0
            },
            {
                "start_time": 124.1545455,
                "end_time": 124.3522727,
                "pitch": 55,
                "velocity": 51,
                "duration": 0.1977273,
                "tempo": 120.0
            },
            {
                "start_time": 124.3522727,
                "end_time": 124.55,
                "pitch": 57,
                "velocity": 51,
                "duration": 0.1977273,
                "tempo": 120.0
            },
            {
                "start_time": 124.5522727,
                "end_time": 124.75,
                "pitch": 59,
                "velocity": 51,
                "duration": 0.1977273,
                "tempo": 120.0
            },
            {
                "start_time": 124.75,
                "end_time": 124.95,
                "pitch": 60,
                "velocity": 51,
                "duration": 0.2,
                "tempo": 120.0
            },
            {
                "start_time": 124.95,
                "end_time": 125.1522727,
                "pitch": 62,
                "velocity": 51,
                "duration": 0.2022727,
                "tempo": 120.0
            },
            {
                "start_time": 125.1522727,
                "end_time": 125.3522727,
                "pitch": 62,
                "velocity": 51,
                "duration": 0.2,
                "tempo": 120.0
            },
            {
                "start_time": 125.3545455,
                "end_time": 125.5545455,
                "pitch": 60,
                "velocity": 51,
                "duration": 0.2,
                "tempo": 120.0
            },
            {
                "start_time": 125.5568182,
                "end_time": 125.7545455,
                "pitch": 62,
                "velocity": 51,
                "duration": 0.1977273,
                "tempo": 120.0
            },
            {
                "start_time": 125.7545455,
                "end_time": 125.9545455,
                "pitch": 55,
                "velocity": 51,
                "duration": 0.2,
                "tempo": 120.0
            },
            {
                "start_time": 125.9545455,
                "end_time": 126.1545455,
                "pitch": 62,
                "velocity": 51,
                "duration": 0.2,
                "tempo": 120.0
            },
            {
                "start_time": 126.1545455,
                "end_time": 126.3522727,
                "pitch": 60,
                "velocity": 51,
                "duration": 0.1977273,
                "tempo": 120.0
            },
            {
                "start_time": 126.3545455,
                "end_time": 126.5522727,
                "pitch": 62,
                "velocity": 51,
                "duration": 0.1977273,
                "tempo": 120.0
            },
            {
                "start_time": 126.5522727,
                "end_time": 126.7522727,
                "pitch": 60,
                "velocity": 51,
                "duration": 0.2,
                "tempo": 120.0
            },
            {
                "start_time": 126.7522727,
                "end_time": 126.9545455,
                "pitch": 62,
                "velocity": 51,
                "duration": 0.2022727,
                "tempo": 120.0
            },
            {
                "start_time": 126.9545455,
                "end_time": 127.1545455,
                "pitch": 55,
                "velocity": 51,
                "duration": 0.2,
                "tempo": 120.0
            },
            {
                "start_time": 127.1568182,
                "end_time": 127.3568182,
                "pitch": 62,
                "velocity": 51,
                "duration": 0.2,
                "tempo": 120.0
            },
            {
                "start_time": 127.3568182,
                "end_time": 127.5568182,
                "pitch": 60,
                "velocity": 51,
                "duration": 0.2,
                "tempo": 120.0
            },
            {
                "start_time": 127.5568182,
                "end_time": 127.7568182,
                "pitch": 62,
                "velocity": 51,
                "duration": 0.2,
                "tempo": 120.0
            },
            {
                "start_time": 127.7568182,
                "end_time": 127.9568182,
                "pitch": 55,
                "velocity": 51,
                "duration": 0.2,
                "tempo": 120.0
            },
            {
                "start_time": 127.9568182,
                "end_time": 128.1568182,
                "pitch": 57,
                "velocity": 51,
                "duration": 0.2,
                "tempo": 120.0
            },
            {
                "start_time": 128.1568182,
                "end_time": 128.3590909,
                "pitch": 58,
                "velocity": 51,
                "duration": 0.2022727,
                "tempo": 120.0
            },
            {
                "start_time": 128.3590909,
                "end_time": 128.5613636,
                "pitch": 60,
                "velocity": 51,
                "duration": 0.2022727,
                "tempo": 120.0
            },
            {
                "start_time": 128.5613636,
                "end_time": 128.7590909,
                "pitch": 62,
                "velocity": 51,
                "duration": 0.1977273,
                "tempo": 120.0
            },
            {
                "start_time": 128.7613636,
                "end_time": 128.9590909,
                "pitch": 60,
                "velocity": 51,
                "duration": 0.1977273,
                "tempo": 120.0
            },
            {
                "start_time": 128.9590909,
                "end_time": 129.1590909,
                "pitch": 58,
                "velocity": 51,
                "duration": 0.2,
                "tempo": 120.0
            },
            {
                "start_time": 129.1590909,
                "end_time": 129.3590909,
                "pitch": 57,
                "velocity": 51,
                "duration": 0.2,
                "tempo": 120.0
            },
            {
                "start_time": 129.3590909,
                "end_time": 129.5590909,
                "pitch": 55,
                "velocity": 51,
                "duration": 0.2,
                "tempo": 120.0
            },
            {
                "start_time": 129.5590909,
                "end_time": 129.7590909,
                "pitch": 57,
                "velocity": 51,
                "duration": 0.2,
                "tempo": 120.0
            },
            {
                "start_time": 129.7590909,
                "end_time": 129.9545455,
                "pitch": 53,
                "velocity": 51,
                "duration": 0.1954545,
                "tempo": 120.0
            },
            {
                "start_time": 129.9568182,
                "end_time": 130.1681818,
                "pitch": 53,
                "velocity": 51,
                "duration": 0.2113636,
                "tempo": 120.0
            },
            {
                "start_time": 130.1704545,
                "end_time": 130.4,
                "pitch": 62,
                "velocity": 51,
                "duration": 0.2295455,
                "tempo": 120.0
            },
            {
                "start_time": 130.4,
                "end_time": 130.6318182,
                "pitch": 60,
                "velocity": 51,
                "duration": 0.2318182,
                "tempo": 120.0
            },
            {
                "start_time": 130.6340909,
                "end_time": 130.8681818,
                "pitch": 62,
                "velocity": 51,
                "duration": 0.2340909,
                "tempo": 120.0
            },
            {
                "start_time": 130.8681818,
                "end_time": 131.1022727,
                "pitch": 55,
                "velocity": 51,
                "duration": 0.2340909,
                "tempo": 120.0
            },
            {
                "start_time": 131.1022727,
                "end_time": 131.1204545,
                "pitch": 55,
                "velocity": 51,
                "duration": 0.0181818,
                "tempo": 120.0
            },
            {
                "start_time": 131.1227273,
                "end_time": 131.3659091,
                "pitch": 62,
                "velocity": 51,
                "duration": 0.2431818,
                "tempo": 120.0
            },
            {
                "start_time": 131.3659091,
                "end_time": 131.6113636,
                "pitch": 60,
                "velocity": 51,
                "duration": 0.2454545,
                "tempo": 120.0
            },
            {
                "start_time": 131.6113636,
                "end_time": 131.6295455,
                "pitch": 60,
                "velocity": 51,
                "duration": 0.0181818,
                "tempo": 120.0
            },
            {
                "start_time": 131.6295455,
                "end_time": 131.7613636,
                "pitch": 60,
                "velocity": 51,
                "duration": 0.1318182,
                "tempo": 120.0
            },
            {
                "start_time": 131.7636364,
                "end_time": 131.8931818,
                "pitch": 62,
                "velocity": 51,
                "duration": 0.1295455,
                "tempo": 120.0
            },
            {
                "start_time": 131.8954545,
                "end_time": 132.1295455,
                "pitch": 67,
                "velocity": 51,
                "duration": 0.2340909,
                "tempo": 120.0
            },
            {
                "start_time": 132.1295455,
                "end_time": 132.275,
                "pitch": 67,
                "velocity": 51,
                "duration": 0.1454545,
                "tempo": 120.0
            },
            {
                "start_time": 132.1295455,
                "end_time": 132.275,
                "pitch": 79,
                "velocity": 51,
                "duration": 0.1454545,
                "tempo": 120.0
            },
            {
                "start_time": 132.275,
                "end_time": 132.4181818,
                "pitch": 67,
                "velocity": 51,
                "duration": 0.1431818,
                "tempo": 120.0
            },
            {
                "start_time": 132.275,
                "end_time": 132.4181818,
                "pitch": 79,
                "velocity": 51,
                "duration": 0.1431818,
                "tempo": 120.0
            },
            {
                "start_time": 132.4181818,
                "end_time": 132.5636364,
                "pitch": 67,
                "velocity": 51,
                "duration": 0.1454545,
                "tempo": 120.0
            },
            {
                "start_time": 132.4181818,
                "end_time": 132.5636364,
                "pitch": 79,
                "velocity": 51,
                "duration": 0.1454545,
                "tempo": 120.0
            },
            {
                "start_time": 132.5636364,
                "end_time": 132.7022727,
                "pitch": 67,
                "velocity": 51,
                "duration": 0.1386364,
                "tempo": 120.0
            },
            {
                "start_time": 132.5636364,
                "end_time": 132.7022727,
                "pitch": 79,
                "velocity": 51,
                "duration": 0.1386364,
                "tempo": 120.0
            },
            {
                "start_time": 132.7022727,
                "end_time": 132.8409091,
                "pitch": 67,
                "velocity": 51,
                "duration": 0.1386364,
                "tempo": 120.0
            },
            {
                "start_time": 132.8409091,
                "end_time": 132.9795455,
                "pitch": 67,
                "velocity": 51,
                "duration": 0.1386364,
                "tempo": 120.0
            },
            {
                "start_time": 132.7022727,
                "end_time": 132.9795455,
                "pitch": 79,
                "velocity": 51,
                "duration": 0.2772727,
                "tempo": 120.0
            },
            {
                "start_time": 132.9795455,
                "end_time": 133.1181818,
                "pitch": 67,
                "velocity": 51,
                "duration": 0.1386364,
                "tempo": 120.0
            },
            {
                "start_time": 132.9795455,
                "end_time": 133.1181818,
                "pitch": 79,
                "velocity": 51,
                "duration": 0.1386364,
                "tempo": 120.0
            },
            {
                "start_time": 133.1181818,
                "end_time": 133.2568182,
                "pitch": 67,
                "velocity": 51,
                "duration": 0.1386364,
                "tempo": 120.0
            },
            {
                "start_time": 133.1181818,
                "end_time": 133.2568182,
                "pitch": 79,
                "velocity": 51,
                "duration": 0.1386364,
                "tempo": 120.0
            },
            {
                "start_time": 133.2568182,
                "end_time": 133.4045455,
                "pitch": 67,
                "velocity": 51,
                "duration": 0.1477273,
                "tempo": 120.0
            }
        ]
    }
}