{
    "mood": "relaxed",
    "instruments": {
        "Electric Piano 1": [
            {
                "start_time": 0.0477273,
                "end_time": 1.3295455,
                "pitch": 69,
                "velocity": 51,
                "duration": 1.2818182,
                "tempo": 120.0
            },
            {
                "start_time": 1.3295455,
                "end_time": 1.4795455,
                "pitch": 69,
                "velocity": 51,
                "duration": 0.15,
                "tempo": 120.0
            },
            {
                "start_time": 1.4795455,
                "end_time": 1.6136364,
                "pitch": 69,
                "velocity": 51,
                "duration": 0.1340909,
                "tempo": 120.0
            },
            {
                "start_time": 1.6136364,
                "end_time": 1.7636364,
                "pitch": 69,
                "velocity": 51,
                "duration": 0.15,
                "tempo": 120.0
            },
            {
                "start_time": 1.7636364,
                "end_time": 2.2068182,
                "pitch": 71,
                "velocity": 51,
                "duration": 0.4431818,
                "tempo": 120.0
            },
            {
                "start_time": 2.2068182,
                "end_time": 2.6227273,
                "pitch": 74,
                "velocity": 51,
                "duration": 0.4159091,
                "tempo": 120.0
            },
            {
                "start_time": 2.625,
                "end_time": 3.0363636,
                "pitch": 74,
                "velocity": 51,
                "duration": 0.4113636,
                "tempo": 120.0
            },
            {
                "start_time": 3.0363636,
                "end_time": 3.4704545,
                "pitch": 71,
                "velocity": 51,
                "duration": 0.4340909,
                "tempo": 120.0
            },
            {
                "start_time": 3.4727273,
                "end_time": 3.8954545,
                "pitch": 74,
                "velocity": 51,
                "duration": 0.4227273,
                "tempo": 120.0
            },
            {
                "start_time": 3.8977273,
                "end_time": 4.3090909,
                "pitch": 73,
                "velocity": 51,
                "duration": 0.4113636,
                "tempo": 120.0
            },
            {
                "start_time": 4.3113636,
                "end_time": 4.7431818,
                "pitch": 71,
                "velocity": 51,
                "duration": 0.4318182,
                "tempo": 120.0
            },
            {
                "start_time": 4.7454545,
                "end_time": 5.1886364,
                "pitch": 69,
                "velocity": 51,
                "duration": 0.4431818,
                "tempo": 120.0
            },
            {
                "start_time": 5.1886364,
                "end_time": 5.6045455,
                "pitch": 78,
                "velocity": 51,
                "duration": 0.4159091,
                "tempo": 120.0
            },
            {
                "start_time": 5.6045455,
                "end_time": 6.0181818,
                "pitch": 76,
                "velocity": 51,
                "duration": 0.4136364,
                "tempo": 120.0
            },
            {
                "start_time": 6.0181818,
                "end_time": 6.4590909,
                "pitch": 74,
                "velocity": 51,
                "duration": 0.4409091,
                "tempo": 120.0
            },
            {
                "start_time": 6.4613636,
                "end_time": 6.5590909,
                "pitch": 73,
                "velocity": 51,
                "duration": 0.0977273,
                "tempo": 120.0
            },
            {
                "start_time": 6.5613636,
                "end_time": 6.6772727,
                "pitch": 74,
                "velocity": 51,
                "duration": 0.1159091,
                "tempo": 120.0
            },
            {
                "start_time": 6.6772727,
                "end_time": 6.8772727,
                "pitch": 73,
                "velocity": 51,
                "duration": 0.2,
                "tempo": 120.0
            },
            {
                "start_time": 7.3022727,
                "end_time": 7.5181818,
                "pitch": 71,
                "velocity": 51,
                "duration": 0.2159091,
                "tempo": 120.0
            },
            {
                "start_time": 7.5204545,
                "end_time": 7.7363636,
                "pitch": 73,
                "velocity": 51,
                "duration": 0.2159091,
                "tempo": 120.0
            },
            {
                "start_time": 7.7363636,
                "end_time": 8.1704545,
                "pitch": 74,
                "velocity": 51,
                "duration": 0.4340909,
                "tempo": 120.0
            },
            {
                "start_time": 8.1704545,
                "end_time": 8.5863636,
                "pitch": 76,
                "velocity": 51,
                "duration": 0.4159091,
                "tempo": 120.0
            },
            {
                "start_time": 8.5886364,
                "end_time": 9.0113636,
                "pitch": 76,
                "velocity": 51,
                "duration": 0.4227273,
                "tempo": 120.0
            },
            {
                "start_time": 9.0113636,
                "end_time": 9.4454545,
                "pitch": 78,
                "velocity": 51,
                "duration": 0.4340909,
                "tempo": 120.0
            },
            {
                "start_time": 9.4454545,
                "end_time": 10.2977273,
                "pitch": 73,
                "velocity": 51,
                "duration": 0.8522727,
                "tempo": 120.0
            },
            {
                "start_time": 10.2977273,
                "end_time": 10.4113636,
                "pitch": 79,
                "velocity": 51,
                "duration": 0.1136364,
                "tempo": 120.0
            },
            {
                "start_time": 10.4113636,
                "end_time": 10.5409091,
                "pitch": 79,
                "velocity": 51,
                "duration": 0.1295455,
                "tempo": 120.0
            },
            {
                "start_time": 10.5409091,
                "end_time": 10.6727273,
                "pitch": 79,
                "velocity": 51,
                "duration": 0.1318182,
                "tempo": 120.0
            },
            {
                "start_time": 10.6727273,
                "end_time": 10.7204545,
                "pitch": 79,
                "velocity": 51,
                "duration": 0.0477273,
                "tempo": 120.0
            },
            {
                "start_time": 10.7227273,
                "end_time": 11.1545455,
                "pitch": 78,
                "velocity": 51,
                "duration": 0.4318182,
                "tempo": 120.0
            },
            {
                "start_time": 11.1545455,
                "end_time": 11.5704545,
                "pitch": 76,
                "velocity": 51,
                "duration": 0.4159091,
                "tempo": 120.0
            },
            {
                "start_time": 11.5727273,
                "end_time": 11.9977273,
                "pitch": 74,
                "velocity": 51,
                "duration": 0.425,
                "tempo": 120.0
            },
            {
                "start_time": 11.9977273,
                "end_time": 13.7068182,
                "pitch": 74,
                "velocity": 51,
                "duration": 1.7090909,
                "tempo": 120.0
            },
            {
                "start_time": 13.7068182,
                "end_time": 14.9818182,
                "pitch": 69,
                "velocity": 51,
                "duration": 1.275,
                "tempo": 120.0
            },
            {
                "start_time": 14.9840909,
                "end_time": 15.1318182,
                "pitch": 69,
                "velocity": 51,
                "duration": 0.1477273,
                "tempo": 120.0
            },
            {
                "start_time": 15.1340909,
                "end_time": 15.2659091,
                "pitch": 69,
                "velocity": 51,
                "duration": 0.1318182,
                "tempo": 120.0
            },
            {
                "start_time": 15.2659091,
                "end_time": 15.4159091,
                "pitch": 69,
                "velocity": 51,
                "duration": 0.15,
                "tempo": 120.0
            },
            {
                "start_time": 15.4159091,
                "end_time": 15.8318182,
                "pitch": 71,
                "velocity": 51,
                "duration": 0.4159091,
                "tempo": 120.0
            },
            {
                "start_time": 15.8340909,
                "end_time": 16.2568182,
                "pitch": 74,
                "velocity": 51,
                "duration": 0.4227273,
                "tempo": 120.0
            },
            {
                "start_time": 16.2590909,
                "end_time": 16.6909091,
                "pitch": 74,
                "velocity": 51,
                "duration": 0.4318182,
                "tempo": 120.0
            },
            {
                "start_time": 16.6931818,
                "end_time": 17.125,
                "pitch": 71,
                "velocity": 51,
                "duration": 0.4318182,
                "tempo": 120.0
            },
            {
                "start_time": 17.1272727,
                "end_time": 17.55,
                "pitch": 74,
                "velocity": 51,
                "duration": 0.4227273,
                "tempo": 120.0
            },
            {
                "start_time": 17.5522727,
                "end_time": 17.9636364,
                "pitch": 73,
                "velocity": 51,
                "duration": 0.4113636,
                "tempo": 120.0
            },
            {
                "start_time": 17.9659091,
                "end_time": 18.3977273,
                "pitch": 71,
                "velocity": 51,
                "duration": 0.4318182,
                "tempo": 120.0
            },
            {
                "start_time": 18.4,
                "end_time": 18.8159091,
                "pitch": 69,
                "velocity": 51,
                "duration": 0.4159091,
                "tempo": 120.0
            },
            {
                "start_time": 18.8181818,
                "end_time": 19.2409091,
                "pitch": 78,
                "velocity": 51,
                "duration": 0.4227273,
                "tempo": 120.0
            },
            {
                "start_time": 19.2409091,
                "end_time": 19.675,
                "pitch": 76,
                "velocity": 51,
                "duration": 0.4340909,
                "tempo": 120.0
            },
            {
                "start_time": 19.675,
                "end_time": 20.1068182,
                "pitch": 74,
                "velocity": 51,
                "duration": 0.4318182,
                "tempo": 120.0
            },
            {
                "start_time": 20.1090909,
                "end_time": 20.2068182,
                "pitch": 73,
                "velocity": 51,
                "duration": 0.0977273,
                "tempo": 120.0
            },
            {
                "start_time": 20.2090909,
                "end_time": 20.3068182,
                "pitch": 74,
                "velocity": 51,
                "duration": 0.0977273,
                "tempo": 120.0
            },
            {
                "start_time": 20.3090909,
                "end_time": 20.525,
                "pitch": 73,
                "velocity": 51,
                "duration": 0.2159091,
                "tempo": 120.0
            },
            {
                "start_time": 20.95,
                "end_time": 21.1659091,
                "pitch": 71,
                "velocity": 51,
                "duration": 0.2159091,
                "tempo": 120.0
            },
            {
                "start_time": 21.1681818,
                "end_time": 21.3840909,
                "pitch": 73,
                "velocity": 51,
                "duration": 0.2159091,
                "tempo": 120.0
            },
            {
                "start_time": 21.3840909,
                "end_time": 21.8,
                "pitch": 74,
                "velocity": 51,
                "duration": 0.4159091,
                "tempo": 120.0
            },
            {
                "start_time": 21.8022727,
                "end_time": 22.225,
                "pitch": 76,
                "velocity": 51,
                "duration": 0.4227273,
                "tempo": 120.0
            },
            {
                "start_time": 22.2272727,
                "end_time": 22.6590909,
                "pitch": 76,
                "velocity": 51,
                "duration": 0.4318182,
                "tempo": 120.0
            },
            {
                "start_time": 22.6590909,
                "end_time": 23.0931818,
                "pitch": 78,
                "velocity": 51,
                "duration": 0.4340909,
                "tempo": 120.0
            },
            {
                "start_time": 23.0931818,
                "end_time": 23.9431818,
                "pitch": 73,
                "velocity": 51,
                "duration": 0.85,
                "tempo": 120.0
            },
            {
                "start_time": 23.9454545,
                "end_time": 24.0590909,
                "pitch": 79,
                "velocity": 51,
                "duration": 0.1136364,
                "tempo": 120.0
            },
            {
                "start_time": 24.0590909,
                "end_time": 24.1886364,
                "pitch": 79,
                "velocity": 51,
                "duration": 0.1295455,
                "tempo": 120.0
            },
            {
                "start_time": 24.1886364,
                "end_time": 24.3204545,
                "pitch": 79,
                "velocity": 51,
                "duration": 0.1318182,
                "tempo": 120.0
            },
            {
                "start_time": 24.3204545,
                "end_time": 24.3681818,
                "pitch": 79,
                "velocity": 51,
                "duration": 0.0477273,
                "tempo": 120.0
            },
            {
                "start_time": 24.3681818,
                "end_time": 24.7863636,
                "pitch": 78,
                "velocity": 51,
                "duration": 0.4181818,
                "tempo": 120.0
            },
            {
                "start_time": 24.7863636,
                "end_time": 25.2090909,
                "pitch": 76,
                "velocity": 51,
                "duration": 0.4227273,
                "tempo": 120.0
            },
            {
                "start_time": 25.2113636,
                "end_time": 25.6454545,
                "pitch": 74,
                "velocity": 51,
                "duration": 0.4340909,
                "tempo": 120.0
            },
            {
                "start_time": 25.6454545,
                "end_time": 26.0863636,
                "pitch": 73,
                "velocity": 51,
                "duration": 0.4409091,
                "tempo": 120.0
            },
            {
                "start_time": 26.0886364,
                "end_time": 26.5045455,
                "pitch": 74,
                "velocity": 51,
                "duration": 0.4159091,
                "tempo": 120.0
            },
            {
                "start_time": 26.5045455,
                "end_time": 26.9181818,
                "pitch": 76,
                "velocity": 51,
                "duration": 0.4136364,
                "tempo": 120.0
            },
            {
                "start_time": 26.9181818,
                "end_time": 27.3522727,
                "pitch": 73,
                "velocity": 51,
                "duration": 0.4340909,
                "tempo": 120.0
            },
            {
                "start_time": 27.3522727,
                "end_time": 27.7772727,
                "pitch": 74,
                "velocity": 51,
                "duration": 0.425,
                "tempo": 120.0
            },
            {
                "start_time": 27.7772727,
                "end_time": 28.1909091,
                "pitch": 71,
                "velocity": 51,
                "duration": 0.4136364,
                "tempo": 120.0
            },
            {
                "start_time": 28.1909091,
                "end_time": 28.625,
                "pitch": 73,
                "velocity": 51,
                "duration": 0.4340909,
                "tempo": 120.0
            },
            {
                "start_time": 28.625,
                "end_time": 28.8409091,
                "pitch": 83,
                "velocity": 51,
                "duration": 0.2159091,
                "tempo": 120.0
            },
            {
                "start_time": 28.8409091,
                "end_time": 29.4840909,
                "pitch": 81,
                "velocity": 51,
                "duration": 0.6431818,
                "tempo": 120.0
            },
            {
                "start_time": 29.4840909,
                "end_time": 29.5954545,
                "pitch": 79,
                "velocity": 51,
                "duration": 0.1113636,
                "tempo": 120.0
            },
            {
                "start_time": 24.3204545,
                "end_time": 29.5954545,
                "pitch": 91,
                "velocity": 51,
                "duration": 5.275,
                "tempo": 120.0
            },
            {
                "start_time": 29.5954545,
                "end_time": 29.7227273,
                "pitch": 79,
                "velocity": 51,
                "duration": 0.1272727,
                "tempo": 120.0
            },
            {
                "start_time": 29.5954545,
                "end_time": 29.7227273,
                "pitch": 91,
                "velocity": 51,
                "duration": 0.1272727,
                "tempo": 120.0
            },
            {
                "start_time": 29.7227273,
                "end_time": 29.85,
                "pitch": 79,
                "velocity": 51,
                "duration": 0.1272727,
                "tempo": 120.0
            },
            {
                "start_time": 29.7227273,
                "end_time": 29.85,
                "pitch": 91,
                "velocity": 51,
                "duration": 0.1272727,
                "tempo": 120.0
            },
            {
                "start_time": 29.85,
                "end_time": 29.8977273,
                "pitch": 79,
                "velocity": 51,
                "duration": 0.0477273,
                "tempo": 120.0
            },
            {
                "start_time": 29.8977273,
                "end_time": 30.3409091,
                "pitch": 78,
                "velocity": 51,
                "duration": 0.4431818,
                "tempo": 120.0
            },
            {
                "start_time": 30.3409091,
                "end_time": 30.5568182,
                "pitch": 76,
                "velocity": 51,
                "duration": 0.2159091,
                "tempo": 120.0
            },
            {
                "start_time": 30.5568182,
                "end_time": 33.325,
                "pitch": 78,
                "velocity": 51,
                "duration": 2.7681818,
                "tempo": 120.0
            },
            {
                "start_time": 33.3272727,
                "end_time": 33.7431818,
                "pitch": 78,
                "velocity": 51,
                "duration": 0.4159091,
                "tempo": 120.0
            },
            {
                "start_time": 33.7431818,
                "end_time": 34.1568182,
                "pitch": 76,
                "velocity": 51,
                "duration": 0.4136364,
                "tempo": 120.0
            },
            {
                "start_time": 34.1568182,
                "end_time": 34.5977273,
                "pitch": 71,
                "velocity": 51,
                "duration": 0.4409091,
                "tempo": 120.0
            },
            {
                "start_time": 34.6,
                "end_time": 35.0318182,
                "pitch": 73,
                "velocity": 51,
                "duration": 0.4318182,
                "tempo": 120.0
            },
            {
                "start_time": 35.0318182,
                "end_time": 35.45,
                "pitch": 74,
                "velocity": 51,
                "duration": 0.4181818,
                "tempo": 120.0
            },
            {
                "start_time": 35.45,
                "end_time": 35.6613636,
                "pitch": 76,
                "velocity": 51,
                "duration": 0.2113636,
                "tempo": 120.0
            },
            {
                "start_time": 35.6636364,
                "end_time": 36.3068182,
                "pitch": 78,
                "velocity": 51,
                "duration": 0.6431818,
                "tempo": 120.0
            },
            {
                "start_time": 36.3090909,
                "end_time": 36.725,
                "pitch": 76,
                "velocity": 51,
                "duration": 0.4159091,
                "tempo": 120.0
            },
            {
                "start_time": 36.725,
                "end_time": 37.1386364,
                "pitch": 74,
                "velocity": 51,
                "duration": 0.4136364,
                "tempo": 120.0
            },
            {
                "start_time": 37.1386364,
                "end_time": 37.3590909,
                "pitch": 76,
                "velocity": 51,
                "duration": 0.2204545,
                "tempo": 120.0
            },
            {
                "start_time": 37.3590909,
                "end_time": 38.4318182,
                "pitch": 73,
                "velocity": 51,
                "duration": 1.0727273,
                "tempo": 120.0
            },
            {
                "start_time": 38.4318182,
                "end_time": 39.2909091,
                "pitch": 71,
                "velocity": 51,
                "duration": 0.8590909,
                "tempo": 120.0
            },
            {
                "start_time": 39.2909091,
                "end_time": 41.0,
                "pitch": 70,
                "velocity": 51,
                "duration": 1.7090909,
                "tempo": 120.0
            },
            {
                "start_time": 41.0022727,
                "end_time": 41.425,
                "pitch": 74,
                "velocity": 51,
                "duration": 0.4227273,
                "tempo": 120.0
            },
            {
                "start_time": 41.4272727,
                "end_time": 41.8386364,
                "pitch": 71,
                "velocity": 51,
                "duration": 0.4113636,
                "tempo": 120.0
            },
            {
                "start_time": 41.8409091,
                "end_time": 42.2727273,
                "pitch": 73,
                "velocity": 51,
                "duration": 0.4318182,
                "tempo": 120.0
            },
            {
                "start_time": 42.275,
                "end_time": 42.4909091,
                "pitch": 83,
                "velocity": 51,
                "duration": 0.2159091,
                "tempo": 120.0
            },
            {
                "start_time": 42.4909091,
                "end_time": 43.1159091,
                "pitch": 81,
                "velocity": 51,
                "duration": 0.625,
                "tempo": 120.0
            },
            {
                "start_time": 43.1159091,
                "end_time": 43.2318182,
                "pitch": 79,
                "velocity": 51,
                "duration": 0.1159091,
                "tempo": 120.0
            },
            {
                "start_time": 43.2318182,
                "end_time": 43.3659091,
                "pitch": 79,
                "velocity": 51,
                "duration": 0.1340909,
                "tempo": 120.0
            },
            {
                "start_time": 29.85,
                "end_time": 43.3659091,
                "pitch": 91,
                "velocity": 51,
                "duration": 13.5159091,
                "tempo": 120.0
            },
            {
                "start_time": 43.3659091,
                "end_time": 43.5,
                "pitch": 79,
                "velocity": 51,
                "duration": 0.1340909,
                "tempo": 120.0
            },
            {
                "start_time": 43.5,
                "end_time": 43.5477273,
                "pitch": 79,
                "velocity": 51,
                "duration": 0.0477273,
                "tempo": 120.0
            },
            {
                "start_time": 43.55,
                "end_time": 43.9909091,
                "pitch": 78,
                "velocity": 51,
                "duration": 0.4409091,
                "tempo": 120.0
            },
            {
                "start_time": 43.9931818,
                "end_time": 44.1886364,
                "pitch": 76,
                "velocity": 51,
                "duration": 0.1954545,
                "tempo": 120.0
            },
            {
                "start_time": 44.1886364,
                "end_time": 46.9772727,
                "pitch": 78,
                "velocity": 51,
                "duration": 2.7886364,
                "tempo": 120.0
            },
            {
                "start_time": 46.9772727,
                "end_time": 47.3863636,
                "pitch": 78,
                "velocity": 51,
                "duration": 0.4090909,
                "tempo": 120.0
            },
            {
                "start_time": 47.3863636,
                "end_time": 47.8113636,
                "pitch": 76,
                "velocity": 51,
                "duration": 0.425,
                "tempo": 120.0
            },
            {
                "start_time": 47.8113636,
                "end_time": 48.2522727,
                "pitch": 71,
                "velocity": 51,
                "duration": 0.4409091,
                "tempo": 120.0
            },
            {
                "start_time": 48.2545455,
                "end_time": 48.6704545,
                "pitch": 73,
                "velocity": 51,
                "duration": 0.4159091,
                "tempo": 120.0
            },
            {
                "start_time": 48.6704545,
                "end_time": 49.0840909,
                "pitch": 74,
                "velocity": 51,
                "duration": 0.4136364,
                "tempo": 120.0
            },
            {
                "start_time": 49.0840909,
                "end_time": 49.3,
                "pitch": 76,
                "velocity": 51,
                "duration": 0.2159091,
                "tempo": 120.0
            },
            {
                "start_time": 49.3022727,
                "end_time": 49.9613636,
                "pitch": 78,
                "velocity": 51,
                "duration": 0.6590909,
                "tempo": 120.0
            },
            {
                "start_time": 49.9613636,
                "end_time": 50.3772727,
                "pitch": 76,
                "velocity": 51,
                "duration": 0.4159091,
                "tempo": 120.0
            },
            {
                "start_time": 50.3795455,
                "end_time": 50.7909091,
                "pitch": 74,
                "velocity": 51,
                "duration": 0.4113636,
                "tempo": 120.0
            },
            {
                "start_time": 50.7909091,
                "end_time": 51.0068182,
                "pitch": 76,
                "velocity": 51,
                "duration": 0.2159091,
                "tempo": 120.0
            },
            {
                "start_time": 51.0090909,
                "end_time": 52.0772727,
                "pitch": 73,
                "velocity": 51,
                "duration": 1.0681818,
                "tempo": 120.0
            },
            {
                "start_time": 52.0772727,
                "end_time": 52.9431818,
                "pitch": 71,
                "velocity": 51,
                "duration": 0.8659091,
                "tempo": 120.0
            },
            {
                "start_time": 52.9454545,
                "end_time": 54.6363636,
                "pitch": 70,
                "velocity": 51,
                "duration": 1.6909091,
                "tempo": 120.0
            }
        ]
    }
}