{
    "mood": "relaxed",
    "instruments": {
        "Church Organ": [
            {
                "start_time": 0.025,
                "end_time": 0.2909091,
                "pitch": 57,
                "velocity": 4,
                "duration": 0.2659091,
                "tempo": 120.0
            },
            {
                "start_time": 0.2909091,
                "end_time": 0.5568182,
                "pitch": 52,
                "velocity": 4,
                "duration": 0.2659091,
                "tempo": 120.0
            },
            {
                "start_time": 0.5568182,
                "end_time": 0.825,
                "pitch": 60,
                "velocity": 4,
                "duration": 0.2681818,
                "tempo": 120.0
            },
            {
                "start_time": 0.825,
                "end_time": 1.0909091,
                "pitch": 52,
                "velocity": 4,
                "duration": 0.2659091,
                "tempo": 120.0
            },
            {
                "start_time": 0.5568182,
                "end_time": 1.0909091,
                "pitch": 64,
                "velocity": 4,
                "duration": 0.5340909,
                "tempo": 120.0
            },
            {
                "start_time": 1.0909091,
                "end_time": 1.3636364,
                "pitch": 59,
                "velocity": 4,
                "duration": 0.2727273,
                "tempo": 120.0
            },
            {
                "start_time": 1.3636364,
                "end_time": 1.6363636,
                "pitch": 52,
                "velocity": 4,
                "duration": 0.2727273,
                "tempo": 120.0
            },
            {
                "start_time": 1.0909091,
                "end_time": 1.6363636,
                "pitch": 64,
                "velocity": 4,
                "duration": 0.5454545,
                "tempo": 120.0
            },
            {
                "start_time": 0.2909091,
                "end_time": 1.9022727,
                "pitch": 45,
                "velocity": 4,
                "duration": 1.6113636,
                "tempo": 120.0
            },
            {
                "start_time": 1.6363636,
                "end_time": 1.9022727,
                "pitch": 57,
                "velocity": 4,
                "duration": 0.2659091,
                "tempo": 120.0
            },
            {
                "start_time": 1.9022727,
                "end_time": 2.1704545,
                "pitch": 52,
                "velocity": 4,
                "duration": 0.2681818,
                "tempo": 120.0
            },
            {
                "start_time": 1.6363636,
                "end_time": 2.1727273,
                "pitch": 64,
                "velocity": 4,
                "duration": 0.5363636,
                "tempo": 120.0
            },
            {
                "start_time": 2.1704545,
                "end_time": 2.1727273,
                "pitch": 64,
                "velocity": 4,
                "duration": 0.0022727,
                "tempo": 120.0
            },
            {
                "start_time": 2.1727273,
                "end_time": 2.4409091,
                "pitch": 56,
                "velocity": 4,
                "duration": 0.2681818,
                "tempo": 120.0
            },
            {
                "start_time": 2.4409091,
                "end_time": 2.7136364,
                "pitch": 52,
                "velocity": 4,
                "duration": 0.2727273,
                "tempo": 120.0
            },
            {
                "start_time": 1.3636364,
                "end_time": 2.9818182,
                "pitch": 47,
                "velocity": 4,
                "duration": 1.6181818,
                "tempo": 120.0
            },
            {
                "start_time": 2.7136364,
                "end_time": 2.9818182,
                "pitch": 59,
                "velocity": 4,
                "duration": 0.2681818,
                "tempo": 120.0
            },
            {
                "start_time": 2.9818182,
                "end_time": 3.2477273,
                "pitch": 52,
                "velocity": 4,
                "duration": 0.2659091,
                "tempo": 120.0
            },
            {
                "start_time": 2.7136364,
                "end_time": 3.2477273,
                "pitch": 64,
                "velocity": 4,
                "duration": 0.5340909,
                "tempo": 120.0
            },
            {
                "start_time": 1.9022727,
                "end_time": 3.5159091,
                "pitch": 45,
                "velocity": 4,
                "duration": 1.6136364,
                "tempo": 120.0
            },
            {
                "start_time": 3.2477273,
                "end_time": 3.5159091,
                "pitch": 57,
                "velocity": 4,
                "duration": 0.2681818,
                "tempo": 120.0
            },
            {
                "start_time": 3.5159091,
                "end_time": 3.7818182,
                "pitch": 52,
                "velocity": 4,
                "duration": 0.2659091,
                "tempo": 120.0
            },
            {
                "start_time": 3.2477273,
                "end_time": 3.7818182,
                "pitch": 64,
                "velocity": 4,
                "duration": 0.5340909,
                "tempo": 120.0
            },
            {
                "start_time": 2.4409091,
                "end_time": 4.0545455,
                "pitch": 44,
                "velocity": 4,
                "duration": 1.6136364,
                "tempo": 120.0
            },
            {
                "start_time": 3.7818182,
                "end_time": 4.0545455,
                "pitch": 56,
                "velocity": 4,
                "duration": 0.2727273,
                "tempo": 120.0
            },
            {
                "start_time": 4.0545455,
                "end_time": 4.3272727,
                "pitch": 52,
                "velocity": 4,
                "duration": 0.2727273,
                "tempo": 120.0
            },
            {
                "start_time": 3.7818182,
                "end_time": 4.3272727,
                "pitch": 64,
                "velocity": 4,
                "duration": 0.5454545,
                "tempo": 120.0
            },
            {
                "start_time": 4.3272727,
                "end_time": 4.5931818,
                "pitch": 55,
                "velocity": 4,
                "duration": 0.2659091,
                "tempo": 120.0
            },
            {
                "start_time": 4.5931818,
                "end_time": 4.8613636,
                "pitch": 50,
                "velocity": 4,
                "duration": 0.2681818,
                "tempo": 120.0
            },
            {
                "start_time": 0.025,
                "end_time": 4.8613636,
                "pitch": 62,
                "velocity": 4,
                "duration": 4.8363636,
                "tempo": 120.0
            },
            {
                "start_time": 2.9818182,
                "end_time": 5.1272727,
                "pitch": 47,
                "velocity": 4,
                "duration": 2.1454545,
                "tempo": 120.0
            },
            {
                "start_time": 4.8613636,
                "end_time": 5.1272727,
                "pitch": 59,
                "velocity": 4,
                "duration": 0.2659091,
                "tempo": 120.0
            },
            {
                "start_time": 5.1272727,
                "end_time": 5.3954545,
                "pitch": 50,
                "velocity": 4,
                "duration": 0.2681818,
                "tempo": 120.0
            },
            {
                "start_time": 4.8613636,
                "end_time": 5.3954545,
                "pitch": 62,
                "velocity": 4,
                "duration": 0.5340909,
                "tempo": 120.0
            },
            {
                "start_time": 3.5159091,
                "end_time": 5.6636364,
                "pitch": 45,
                "velocity": 4,
                "duration": 2.1477273,
                "tempo": 120.0
            },
            {
                "start_time": 5.3954545,
                "end_time": 5.6636364,
                "pitch": 57,
                "velocity": 4,
                "duration": 0.2681818,
                "tempo": 120.0
            },
            {
                "start_time": 5.6636364,
                "end_time": 5.9295455,
                "pitch": 50,
                "velocity": 4,
                "duration": 0.2659091,
                "tempo": 120.0
            },
            {
                "start_time": 5.3954545,
                "end_time": 5.9295455,
                "pitch": 62,
                "velocity": 4,
                "duration": 0.5340909,
                "tempo": 120.0
            },
            {
                "start_time": 4.5931818,
                "end_time": 6.2022727,
                "pitch": 43,
                "velocity": 4,
                "duration": 1.6090909,
                "tempo": 120.0
            },
            {
                "start_time": 5.9295455,
                "end_time": 6.2022727,
                "pitch": 55,
                "velocity": 4,
                "duration": 0.2727273,
                "tempo": 120.0
            },
            {
                "start_time": 6.2022727,
                "end_time": 6.475,
                "pitch": 50,
                "velocity": 4,
                "duration": 0.2727273,
                "tempo": 120.0
            },
            {
                "start_time": 6.475,
                "end_time": 6.7409091,
                "pitch": 54,
                "velocity": 4,
                "duration": 0.2659091,
                "tempo": 120.0
            },
            {
                "start_time": 6.475,
                "end_time": 7.0090909,
                "pitch": 50,
                "velocity": 4,
                "duration": 0.5340909,
                "tempo": 120.0
            },
            {
                "start_time": 6.7409091,
                "end_time": 7.0090909,
                "pitch": 50,
                "velocity": 4,
                "duration": 0.2681818,
                "tempo": 120.0
            },
            {
                "start_time": 5.9295455,
                "end_time": 7.0090909,
                "pitch": 62,
                "velocity": 4,
                "duration": 1.0795455,
                "tempo": 120.0
            },
            {
                "start_time": 6.2022727,
                "end_time": 7.275,
                "pitch": 43,
                "velocity": 4,
                "duration": 1.0727273,
                "tempo": 120.0
            },
            {
                "start_time": 7.0090909,
                "end_time": 7.275,
                "pitch": 55,
                "velocity": 4,
                "duration": 0.2659091,
                "tempo": 120.0
            },
            {
                "start_time": 7.275,
                "end_time": 7.5431818,
                "pitch": 50,
                "velocity": 4,
                "duration": 0.2681818,
                "tempo": 120.0
            },
            {
                "start_time": 7.0090909,
                "end_time": 7.5431818,
                "pitch": 62,
                "velocity": 4,
                "duration": 0.5340909,
                "tempo": 120.0
            },
            {
                "start_time": 5.6636364,
                "end_time": 7.8136364,
                "pitch": 45,
                "velocity": 4,
                "duration": 2.15,
                "tempo": 120.0
            },
            {
                "start_time": 7.5431818,
                "end_time": 7.8136364,
                "pitch": 57,
                "velocity": 4,
                "duration": 0.2704545,
                "tempo": 120.0
            },
            {
                "start_time": 7.8136364,
                "end_time": 8.0863636,
                "pitch": 50,
                "velocity": 4,
                "duration": 0.2727273,
                "tempo": 120.0
            },
            {
                "start_time": 7.5431818,
                "end_time": 8.0863636,
                "pitch": 62,
                "velocity": 4,
                "duration": 0.5431818,
                "tempo": 120.0
            },
            {
                "start_time": 7.275,
                "end_time": 8.3545455,
                "pitch": 43,
                "velocity": 4,
                "duration": 1.0795455,
                "tempo": 120.0
            },
            {
                "start_time": 8.0863636,
                "end_time": 8.3545455,
                "pitch": 55,
                "velocity": 4,
                "duration": 0.2681818,
                "tempo": 120.0
            },
            {
                "start_time": 8.3545455,
                "end_time": 8.6227273,
                "pitch": 50,
                "velocity": 4,
                "duration": 0.2681818,
                "tempo": 120.0
            },
            {
                "start_time": 8.0863636,
                "end_time": 8.6227273,
                "pitch": 62,
                "velocity": 4,
                "duration": 0.5363636,
                "tempo": 120.0
            },
            {
                "start_time": 7.8136364,
                "end_time": 8.8931818,
                "pitch": 45,
                "velocity": 4,
                "duration": 1.0795455,
                "tempo": 120.0
            },
            {
                "start_time": 8.6227273,
                "end_time": 8.8931818,
                "pitch": 57,
                "velocity": 4,
                "duration": 0.2704545,
                "tempo": 120.0
            },
            {
                "start_time": 8.8931818,
                "end_time": 9.1659091,
                "pitch": 52,
                "velocity": 4,
                "duration": 0.2727273,
                "tempo": 120.0
            },
            {
                "start_time": 4.3272727,
                "end_time": 9.1659091,
                "pitch": 64,
                "velocity": 4,
                "duration": 4.8386364,
                "tempo": 120.0
            },
            {
                "start_time": 0.825,
                "end_time": 9.4318182,
                "pitch": 48,
                "velocity": 4,
                "duration": 8.6068182,
                "tempo": 120.0
            },
            {
                "start_time": 9.1659091,
                "end_time": 9.4318182,
                "pitch": 60,
                "velocity": 4,
                "duration": 0.2659091,
                "tempo": 120.0
            },
            {
                "start_time": 9.4318182,
                "end_time": 9.7,
                "pitch": 52,
                "velocity": 4,
                "duration": 0.2681818,
                "tempo": 120.0
            },
            {
                "start_time": 9.1659091,
                "end_time": 9.7,
                "pitch": 64,
                "velocity": 4,
                "duration": 0.5340909,
                "tempo": 120.0
            },
            {
                "start_time": 5.1272727,
                "end_time": 9.9659091,
                "pitch": 47,
                "velocity": 4,
                "duration": 4.8386364,
                "tempo": 120.0
            },
            {
                "start_time": 9.7,
                "end_time": 9.9659091,
                "pitch": 59,
                "velocity": 4,
                "duration": 0.2659091,
                "tempo": 120.0
            },
            {
                "start_time": 9.9659091,
                "end_time": 10.2340909,
                "pitch": 52,
                "velocity": 4,
                "duration": 0.2681818,
                "tempo": 120.0
            },
            {
                "start_time": 9.7,
                "end_time": 10.2340909,
                "pitch": 64,
                "velocity": 4,
                "duration": 0.5340909,
                "tempo": 120.0
            },
            {
                "start_time": 8.8931818,
                "end_time": 10.5068182,
                "pitch": 45,
                "velocity": 4,
                "duration": 1.6136364,
                "tempo": 120.0
            },
            {
                "start_time": 10.2340909,
                "end_time": 10.5068182,
                "pitch": 57,
                "velocity": 4,
                "duration": 0.2727273,
                "tempo": 120.0
            },
            {
                "start_time": 10.5068182,
                "end_time": 10.7795455,
                "pitch": 52,
                "velocity": 4,
                "duration": 0.2727273,
                "tempo": 120.0
            },
            {
                "start_time": 10.2340909,
                "end_time": 10.7795455,
                "pitch": 64,
                "velocity": 4,
                "duration": 0.5454545,
                "tempo": 120.0
            },
            {
                "start_time": 8.6227273,
                "end_time": 11.0454545,
                "pitch": 62,
                "velocity": 4,
                "duration": 2.4227273,
                "tempo": 120.0
            },
            {
                "start_time": 10.7795455,
                "end_time": 11.0454545,
                "pitch": 62,
                "velocity": 4,
                "duration": 0.2659091,
                "tempo": 120.0
            },
            {
                "start_time": 11.0454545,
                "end_time": 11.3136364,
                "pitch": 52,
                "velocity": 4,
                "duration": 0.2681818,
                "tempo": 120.0
            },
            {
                "start_time": 10.7795455,
                "end_time": 11.3136364,
                "pitch": 64,
                "velocity": 4,
                "duration": 0.5340909,
                "tempo": 120.0
            },
            {
                "start_time": 9.9659091,
                "end_time": 11.5795455,
                "pitch": 47,
                "velocity": 4,
                "duration": 1.6136364,
                "tempo": 120.0
            },
            {
                "start_time": 11.3136364,
                "end_time": 11.5795455,
                "pitch": 59,
                "velocity": 4,
                "duration": 0.2659091,
                "tempo": 120.0
            },
            {
                "start_time": 11.5795455,
                "end_time": 11.8477273,
                "pitch": 52,
                "velocity": 4,
                "duration": 0.2681818,
                "tempo": 120.0
            },
            {
                "start_time": 11.3136364,
                "end_time": 11.8477273,
                "pitch": 64,
                "velocity": 4,
                "duration": 0.5340909,
                "tempo": 120.0
            },
            {
                "start_time": 4.0545455,
                "end_time": 12.1136364,
                "pitch": 44,
                "velocity": 4,
                "duration": 8.0590909,
                "tempo": 120.0
            },
            {
                "start_time": 11.8477273,
                "end_time": 12.1136364,
                "pitch": 56,
                "velocity": 4,
                "duration": 0.2659091,
                "tempo": 120.0
            },
            {
                "start_time": 12.1136364,
                "end_time": 12.3818182,
                "pitch": 52,
                "velocity": 4,
                "duration": 0.2681818,
                "tempo": 120.0
            },
            {
                "start_time": 11.8477273,
                "end_time": 12.3818182,
                "pitch": 64,
                "velocity": 4,
                "duration": 0.5340909,
                "tempo": 120.0
            },
            {
                "start_time": 11.5795455,
                "end_time": 12.6522727,
                "pitch": 47,
                "velocity": 4,
                "duration": 1.0727273,
                "tempo": 120.0
            },
            {
                "start_time": 12.3818182,
                "end_time": 12.6522727,
                "pitch": 59,
                "velocity": 4,
                "duration": 0.2704545,
                "tempo": 120.0
            },
            {
                "start_time": 12.6522727,
                "end_time": 12.9272727,
                "pitch": 52,
                "velocity": 4,
                "duration": 0.275,
                "tempo": 120.0
            },
            {
                "start_time": 12.3818182,
                "end_time": 12.9272727,
                "pitch": 64,
                "velocity": 4,
                "duration": 0.5454545,
                "tempo": 120.0
            },
            {
                "start_time": 8.3545455,
                "end_time": 13.1931818,
                "pitch": 43,
                "velocity": 4,
                "duration": 4.8386364,
                "tempo": 120.0
            },
            {
                "start_time": 12.9272727,
                "end_time": 13.1931818,
                "pitch": 55,
                "velocity": 4,
                "duration": 0.2659091,
                "tempo": 120.0
            },
            {
                "start_time": 11.0454545,
                "end_time": 13.4590909,
                "pitch": 50,
                "velocity": 4,
                "duration": 2.4136364,
                "tempo": 120.0
            },
            {
                "start_time": 13.1931818,
                "end_time": 13.4590909,
                "pitch": 50,
                "velocity": 4,
                "duration": 0.2659091,
                "tempo": 120.0
            },
            {
                "start_time": 12.6522727,
                "end_time": 13.7318182,
                "pitch": 47,
                "velocity": 4,
                "duration": 1.0795455,
                "tempo": 120.0
            },
            {
                "start_time": 13.4590909,
                "end_time": 13.7318182,
                "pitch": 59,
                "velocity": 4,
                "duration": 0.2727273,
                "tempo": 120.0
            },
            {
                "start_time": 13.7318182,
                "end_time": 14.0045455,
                "pitch": 50,
                "velocity": 4,
                "duration": 0.2727273,
                "tempo": 120.0
            },
            {
                "start_time": 13.4590909,
                "end_time": 14.0045455,
                "pitch": 62,
                "velocity": 4,
                "duration": 0.5454545,
                "tempo": 120.0
            },
            {
                "start_time": 10.5068182,
                "end_time": 14.2704545,
                "pitch": 45,
                "velocity": 4,
                "duration": 3.7636364,
                "tempo": 120.0
            },
            {
                "start_time": 14.0045455,
                "end_time": 14.2704545,
                "pitch": 57,
                "velocity": 4,
                "duration": 0.2659091,
                "tempo": 120.0
            },
            {
                "start_time": 14.2704545,
                "end_time": 14.5386364,
                "pitch": 50,
                "velocity": 4,
                "duration": 0.2681818,
                "tempo": 120.0
            },
            {
                "start_time": 14.0045455,
                "end_time": 14.5386364,
                "pitch": 62,
                "velocity": 4,
                "duration": 0.5340909,
                "tempo": 120.0
            },
            {
                "start_time": 9.4318182,
                "end_time": 14.8045455,
                "pitch": 48,
                "velocity": 4,
                "duration": 5.3727273,
                "tempo": 120.0
            },
            {
                "start_time": 14.5386364,
                "end_time": 14.8045455,
                "pitch": 60,
                "velocity": 4,
                "duration": 0.2659091,
                "tempo": 120.0
            },
            {
                "start_time": 14.8045455,
                "end_time": 15.0727273,
                "pitch": 50,
                "velocity": 4,
                "duration": 0.2681818,
                "tempo": 120.0
            },
            {
                "start_time": 14.5386364,
                "end_time": 15.0727273,
                "pitch": 62,
                "velocity": 4,
                "duration": 0.5340909,
                "tempo": 120.0
            },
            {
                "start_time": 13.7318182,
                "end_time": 15.3431818,
                "pitch": 47,
                "velocity": 4,
                "duration": 1.6113636,
                "tempo": 120.0
            },
            {
                "start_time": 15.0727273,
                "end_time": 15.3431818,
                "pitch": 59,
                "velocity": 4,
                "duration": 0.2704545,
                "tempo": 120.0
            },
            {
                "start_time": 15.3431818,
                "end_time": 15.6159091,
                "pitch": 50,
                "velocity": 4,
                "duration": 0.2727273,
                "tempo": 120.0
            },
            {
                "start_time": 15.0727273,
                "end_time": 15.6159091,
                "pitch": 62,
                "velocity": 4,
                "duration": 0.5431818,
                "tempo": 120.0
            },
            {
                "start_time": 13.1931818,
                "end_time": 15.8840909,
                "pitch": 43,
                "velocity": 4,
                "duration": 2.6909091,
                "tempo": 120.0
            },
            {
                "start_time": 15.6159091,
                "end_time": 15.8840909,
                "pitch": 55,
                "velocity": 4,
                "duration": 0.2681818,
                "tempo": 120.0
            },
            {
                "start_time": 15.8840909,
                "end_time": 16.15,
                "pitch": 50,
                "velocity": 4,
                "duration": 0.2659091,
                "tempo": 120.0
            },
            {
                "start_time": 6.7409091,
                "end_time": 16.4181818,
                "pitch": 54,
                "velocity": 4,
                "duration": 9.6772727,
                "tempo": 120.0
            },
            {
                "start_time": 16.15,
                "end_time": 16.4181818,
                "pitch": 54,
                "velocity": 4,
                "duration": 0.2681818,
                "tempo": 120.0
            },
            {
                "start_time": 16.15,
                "end_time": 16.6863636,
                "pitch": 50,
                "velocity": 4,
                "duration": 0.5363636,
                "tempo": 120.0
            },
            {
                "start_time": 16.4181818,
                "end_time": 16.6863636,
                "pitch": 50,
                "velocity": 4,
                "duration": 0.2681818,
                "tempo": 120.0
            },
            {
                "start_time": 15.6159091,
                "end_time": 16.6863636,
                "pitch": 62,
                "velocity": 4,
                "duration": 1.0704545,
                "tempo": 120.0
            },
            {
                "start_time": 15.8840909,
                "end_time": 16.9568182,
                "pitch": 43,
                "velocity": 4,
                "duration": 1.0727273,
                "tempo": 120.0
            },
            {
                "start_time": 16.6863636,
                "end_time": 16.9568182,
                "pitch": 55,
                "velocity": 4,
                "duration": 0.2704545,
                "tempo": 120.0
            },
            {
                "start_time": 16.9568182,
                "end_time": 17.2318182,
                "pitch": 50,
                "velocity": 4,
                "duration": 0.275,
                "tempo": 120.0
            },
            {
                "start_time": 16.6863636,
                "end_time": 17.2318182,
                "pitch": 62,
                "velocity": 4,
                "duration": 0.5454545,
                "tempo": 120.0
            },
            {
                "start_time": 17.2318182,
                "end_time": 17.2431818,
                "pitch": 57,
                "velocity": 4,
                "duration": 0.0113636,
                "tempo": 120.0
            },
            {
                "start_time": 14.2704545,
                "end_time": 17.4977273,
                "pitch": 45,
                "velocity": 4,
                "duration": 3.2272727,
                "tempo": 120.0
            },
            {
                "start_time": 17.2431818,
                "end_time": 17.4977273,
                "pitch": 57,
                "velocity": 64,
                "duration": 0.2545455,
                "tempo": 120.0
            },
            {
                "start_time": 17.4977273,
                "end_time": 17.7636364,
                "pitch": 52,
                "velocity": 4,
                "duration": 0.2659091,
                "tempo": 120.0
            },
            {
                "start_time": 12.9272727,
                "end_time": 17.7636364,
                "pitch": 64,
                "velocity": 4,
                "duration": 4.8363636,
                "tempo": 120.0
            },
            {
                "start_time": 14.8045455,
                "end_time": 18.0318182,
                "pitch": 48,
                "velocity": 4,
                "duration": 3.2272727,
                "tempo": 120.0
            },
            {
                "start_time": 17.7636364,
                "end_time": 18.0318182,
                "pitch": 60,
                "velocity": 4,
                "duration": 0.2681818,
                "tempo": 120.0
            },
            {
                "start_time": 18.0318182,
                "end_time": 18.2977273,
                "pitch": 52,
                "velocity": 4,
                "duration": 0.2659091,
                "tempo": 120.0
            },
            {
                "start_time": 17.7636364,
                "end_time": 18.2977273,
                "pitch": 64,
                "velocity": 4,
                "duration": 0.5340909,
                "tempo": 120.0
            },
            {
                "start_time": 15.3431818,
                "end_time": 18.5659091,
                "pitch": 47,
                "velocity": 4,
                "duration": 3.2227273,
                "tempo": 120.0
            },
            {
                "start_time": 18.2977273,
                "end_time": 18.5659091,
                "pitch": 59,
                "velocity": 4,
                "duration": 0.2681818,
                "tempo": 120.0
            },
            {
                "start_time": 18.5659091,
                "end_time": 18.8340909,
                "pitch": 52,
                "velocity": 4,
                "duration": 0.2681818,
                "tempo": 120.0
            },
            {
                "start_time": 18.2977273,
                "end_time": 18.8340909,
                "pitch": 64,
                "velocity": 4,
                "duration": 0.5363636,
                "tempo": 120.0
            },
            {
                "start_time": 16.9568182,
                "end_time": 19.1045455,
                "pitch": 43,
                "velocity": 4,
                "duration": 2.1477273,
                "tempo": 120.0
            },
            {
                "start_time": 18.8340909,
                "end_time": 19.1045455,
                "pitch": 55,
                "velocity": 4,
                "duration": 0.2704545,
                "tempo": 120.0
            },
            {
                "start_time": 19.1045455,
                "end_time": 19.3772727,
                "pitch": 52,
                "velocity": 4,
                "duration": 0.2727273,
                "tempo": 120.0
            },
            {
                "start_time": 18.8340909,
                "end_time": 19.3772727,
                "pitch": 64,
                "velocity": 4,
                "duration": 0.5431818,
                "tempo": 120.0
            },
            {
                "start_time": 12.1136364,
                "end_time": 19.6477273,
                "pitch": 44,
                "velocity": 4,
                "duration": 7.5340909,
                "tempo": 120.0
            },
            {
                "start_time": 19.3772727,
                "end_time": 19.6477273,
                "pitch": 56,
                "velocity": 4,
                "duration": 0.2704545,
                "tempo": 120.0
            },
            {
                "start_time": 19.6477273,
                "end_time": 19.9204545,
                "pitch": 52,
                "velocity": 4,
                "duration": 0.2727273,
                "tempo": 120.0
            },
            {
                "start_time": 19.3772727,
                "end_time": 19.9204545,
                "pitch": 64,
                "velocity": 4,
                "duration": 0.5431818,
                "tempo": 120.0
            },
            {
                "start_time": 18.5659091,
                "end_time": 20.1886364,
                "pitch": 47,
                "velocity": 4,
                "duration": 1.6227273,
                "tempo": 120.0
            },
            {
                "start_time": 19.9204545,
                "end_time": 20.1886364,
                "pitch": 59,
                "velocity": 4,
                "duration": 0.2681818,
                "tempo": 120.0
            },
            {
                "start_time": 20.1886364,
                "end_time": 20.4545455,
                "pitch": 52,
                "velocity": 4,
                "duration": 0.2659091,
                "tempo": 120.0
            },
            {
                "start_time": 19.9204545,
                "end_time": 20.4545455,
                "pitch": 64,
                "velocity": 4,
                "duration": 0.5340909,
                "tempo": 120.0
            },
            {
                "start_time": 17.2318182,
                "end_time": 20.7227273,
                "pitch": 62,
                "velocity": 4,
                "duration": 3.4909091,
                "tempo": 120.0
            },
            {
                "start_time": 20.4545455,
                "end_time": 20.7227273,
                "pitch": 62,
                "velocity": 4,
                "duration": 0.2681818,
                "tempo": 120.0
            },
            {
                "start_time": 20.7227273,
                "end_time": 20.9886364,
                "pitch": 52,
                "velocity": 4,
                "duration": 0.2659091,
                "tempo": 120.0
            },
            {
                "start_time": 20.4545455,
                "end_time": 20.9886364,
                "pitch": 64,
                "velocity": 4,
                "duration": 0.5340909,
                "tempo": 120.0
            },
            {
                "start_time": 20.9886364,
                "end_time": 21.2613636,
                "pitch": 60,
                "velocity": 4,
                "duration": 0.2727273,
                "tempo": 120.0
            },
            {
                "start_time": 21.2613636,
                "end_time": 21.5340909,
                "pitch": 60,
                "velocity": 4,
                "duration": 0.2727273,
                "tempo": 120.0
            },
            {
                "start_time": 19.1045455,
                "end_time": 21.8,
                "pitch": 43,
                "velocity": 4,
                "duration": 2.6954545,
                "tempo": 120.0
            },
            {
                "start_time": 21.5340909,
                "end_time": 21.8,
                "pitch": 55,
                "velocity": 4,
                "duration": 0.2659091,
                "tempo": 120.0
            },
            {
                "start_time": 20.7227273,
                "end_time": 22.0681818,
                "pitch": 50,
                "velocity": 4,
                "duration": 1.3454545,
                "tempo": 120.0
            },
            {
                "start_time": 21.8,
                "end_time": 22.0681818,
                "pitch": 50,
                "velocity": 4,
                "duration": 0.2681818,
                "tempo": 120.0
            },
            {
                "start_time": 22.0681818,
                "end_time": 22.3386364,
                "pitch": 55,
                "velocity": 4,
                "duration": 0.2704545,
                "tempo": 120.0
            },
            {
                "start_time": 22.3386364,
                "end_time": 22.6113636,
                "pitch": 55,
                "velocity": 4,
                "duration": 0.2727273,
                "tempo": 120.0
            },
            {
                "start_time": 21.5340909,
                "end_time": 22.8840909,
                "pitch": 59,
                "velocity": 4,
                "duration": 1.35,
                "tempo": 120.0
            },
            {
                "start_time": 22.6113636,
                "end_time": 22.8840909,
                "pitch": 59,
                "velocity": 4,
                "duration": 0.2727273,
                "tempo": 120.0
            },
            {
                "start_time": 22.6113636,
                "end_time": 23.1568182,
                "pitch": 57,
                "velocity": 4,
                "duration": 0.5454545,
                "tempo": 120.0
            },
            {
                "start_time": 22.8840909,
                "end_time": 23.1568182,
                "pitch": 57,
                "velocity": 4,
                "duration": 0.2727273,
                "tempo": 120.0
            },
            {
                "start_time": 23.1568182,
                "end_time": 23.4181818,
                "pitch": 57,
                "velocity": 4,
                "duration": 0.2613636,
                "tempo": 120.0
            },
            {
                "start_time": 17.4977273,
                "end_time": 23.6818182,
                "pitch": 45,
                "velocity": 4,
                "duration": 6.1840909,
                "tempo": 120.0
            },
            {
                "start_time": 23.4181818,
                "end_time": 23.6818182,
                "pitch": 55,
                "velocity": 4,
                "duration": 0.2636364,
                "tempo": 120.0
            },
            {
                "start_time": 16.4181818,
                "end_time": 23.9477273,
                "pitch": 54,
                "velocity": 4,
                "duration": 7.5295455,
                "tempo": 120.0
            },
            {
                "start_time": 23.6818182,
                "end_time": 23.9477273,
                "pitch": 54,
                "velocity": 4,
                "duration": 0.2659091,
                "tempo": 120.0
            },
            {
                "start_time": 23.9477273,
                "end_time": 24.2159091,
                "pitch": 55,
                "velocity": 4,
                "duration": 0.2681818,
                "tempo": 120.0
            },
            {
                "start_time": 23.6818182,
                "end_time": 24.4909091,
                "pitch": 45,
                "velocity": 4,
                "duration": 0.8090909,
                "tempo": 120.0
            },
            {
                "start_time": 24.2159091,
                "end_time": 24.4909091,
                "pitch": 55,
                "velocity": 4,
                "duration": 0.275,
                "tempo": 120.0
            },
            {
                "start_time": 24.4909091,
                "end_time": 24.7704545,
                "pitch": 54,
                "velocity": 4,
                "duration": 0.2795455,
                "tempo": 120.0
            },
            {
                "start_time": 24.7704545,
                "end_time": 25.0318182,
                "pitch": 50,
                "velocity": 4,
                "duration": 0.2613636,
                "tempo": 120.0
            },
            {
                "start_time": 25.0318182,
                "end_time": 25.2954545,
                "pitch": 52,
                "velocity": 4,
                "duration": 0.2636364,
                "tempo": 120.0
            },
            {
                "start_time": 24.7704545,
                "end_time": 25.5704545,
                "pitch": 54,
                "velocity": 4,
                "duration": 0.8,
                "tempo": 120.0
            },
            {
                "start_time": 25.2954545,
                "end_time": 25.5704545,
                "pitch": 54,
                "velocity": 4,
                "duration": 0.275,
                "tempo": 120.0
            },
            {
                "start_time": 25.0318182,
                "end_time": 25.8477273,
                "pitch": 50,
                "velocity": 4,
                "duration": 0.8159091,
                "tempo": 120.0
            },
            {
                "start_time": 25.5704545,
                "end_time": 25.8477273,
                "pitch": 50,
                "velocity": 4,
                "duration": 0.2772727,
                "tempo": 120.0
            },
            {
                "start_time": 22.0681818,
                "end_time": 25.8477273,
                "pitch": 62,
                "velocity": 4,
                "duration": 3.7795455,
                "tempo": 120.0
            },
            {
                "start_time": 24.4909091,
                "end_time": 26.1090909,
                "pitch": 45,
                "velocity": 4,
                "duration": 1.6181818,
                "tempo": 120.0
            },
            {
                "start_time": 25.8477273,
                "end_time": 26.1090909,
                "pitch": 57,
                "velocity": 4,
                "duration": 0.2613636,
                "tempo": 120.0
            },
            {
                "start_time": 25.2954545,
                "end_time": 26.3727273,
                "pitch": 52,
                "velocity": 4,
                "duration": 1.0772727,
                "tempo": 120.0
            },
            {
                "start_time": 26.1090909,
                "end_time": 26.3727273,
                "pitch": 52,
                "velocity": 4,
                "duration": 0.2636364,
                "tempo": 120.0
            },
            {
                "start_time": 20.9886364,
                "end_time": 26.3727273,
                "pitch": 64,
                "velocity": 4,
                "duration": 5.3840909,
                "tempo": 120.0
            },
            {
                "start_time": 26.3727273,
                "end_time": 26.6340909,
                "pitch": 57,
                "velocity": 4,
                "duration": 0.2613636,
                "tempo": 120.0
            },
            {
                "start_time": 26.6340909,
                "end_time": 26.8977273,
                "pitch": 60,
                "velocity": 4,
                "duration": 0.2636364,
                "tempo": 120.0
            },
            {
                "start_time": 22.8840909,
                "end_time": 27.1681818,
                "pitch": 59,
                "velocity": 4,
                "duration": 4.2840909,
                "tempo": 120.0
            },
            {
                "start_time": 26.8977273,
                "end_time": 27.1681818,
                "pitch": 60,
                "velocity": 4,
                "duration": 0.2704545,
                "tempo": 120.0
            },
            {
                "start_time": 27.1681818,
                "end_time": 27.4409091,
                "pitch": 56,
                "velocity": 4,
                "duration": 0.2727273,
                "tempo": 120.0
            },
            {
                "start_time": 25.8477273,
                "end_time": 27.7068182,
                "pitch": 62,
                "velocity": 4,
                "duration": 1.8590909,
                "tempo": 120.0
            },
            {
                "start_time": 27.4409091,
                "end_time": 27.7068182,
                "pitch": 62,
                "velocity": 4,
                "duration": 0.2659091,
                "tempo": 120.0
            },
            {
                "start_time": 27.1681818,
                "end_time": 27.9772727,
                "pitch": 59,
                "velocity": 4,
                "duration": 0.8090909,
                "tempo": 120.0
            },
            {
                "start_time": 27.7068182,
                "end_time": 27.9772727,
                "pitch": 59,
                "velocity": 4,
                "duration": 0.2704545,
                "tempo": 120.0
            },
            {
                "start_time": 27.7068182,
                "end_time": 28.2477273,
                "pitch": 62,
                "velocity": 4,
                "duration": 0.5409091,
                "tempo": 120.0
            },
            {
                "start_time": 27.9772727,
                "end_time": 28.2477273,
                "pitch": 62,
                "velocity": 4,
                "duration": 0.2704545,
                "tempo": 120.0
            },
            {
                "start_time": 27.9772727,
                "end_time": 28.5204545,
                "pitch": 59,
                "velocity": 4,
                "duration": 0.5431818,
                "tempo": 120.0
            },
            {
                "start_time": 28.2477273,
                "end_time": 28.5204545,
                "pitch": 59,
                "velocity": 4,
                "duration": 0.2727273,
                "tempo": 120.0
            },
            {
                "start_time": 19.6477273,
                "end_time": 28.7863636,
                "pitch": 44,
                "velocity": 4,
                "duration": 9.1386364,
                "tempo": 120.0
            },
            {
                "start_time": 27.4409091,
                "end_time": 28.7863636,
                "pitch": 56,
                "velocity": 4,
                "duration": 1.3454545,
                "tempo": 120.0
            },
            {
                "start_time": 28.5204545,
                "end_time": 28.7863636,
                "pitch": 56,
                "velocity": 4,
                "duration": 0.2659091,
                "tempo": 120.0
            },
            {
                "start_time": 28.7863636,
                "end_time": 29.0545455,
                "pitch": 52,
                "velocity": 4,
                "duration": 0.2681818,
                "tempo": 120.0
            },
            {
                "start_time": 26.3727273,
                "end_time": 29.0545455,
                "pitch": 64,
                "velocity": 4,
                "duration": 2.6818182,
                "tempo": 120.0
            },
            {
                "start_time": 29.0545455,
                "end_time": 29.325,
                "pitch": 56,
                "velocity": 4,
                "duration": 0.2704545,
                "tempo": 120.0
            },
            {
                "start_time": 28.5204545,
                "end_time": 29.5977273,
                "pitch": 59,
                "velocity": 4,
                "duration": 1.0772727,
                "tempo": 120.0
            },
            {
                "start_time": 29.325,
                "end_time": 29.5977273,
                "pitch": 59,
                "velocity": 4,
                "duration": 0.2727273,
                "tempo": 120.0
            },
            {
                "start_time": 28.2477273,
                "end_time": 29.8636364,
                "pitch": 62,
                "velocity": 4,
                "duration": 1.6159091,
                "tempo": 120.0
            },
            {
                "start_time": 29.5977273,
                "end_time": 29.8636364,
                "pitch": 62,
                "velocity": 4,
                "duration": 0.2659091,
                "tempo": 120.0
            },
            {
                "start_time": 29.5977273,
                "end_time": 30.1340909,
                "pitch": 59,
                "velocity": 4,
                "duration": 0.5363636,
                "tempo": 120.0
            },
            {
                "start_time": 29.8636364,
                "end_time": 30.1340909,
                "pitch": 59,
                "velocity": 4,
                "duration": 0.2704545,
                "tempo": 120.0
            },
            {
                "start_time": 30.1340909,
                "end_time": 30.4,
                "pitch": 55,
                "velocity": 4,
                "duration": 0.2659091,
                "tempo": 120.0
            },
            {
                "start_time": 30.4,
                "end_time": 30.6681818,
                "pitch": 55,
                "velocity": 4,
                "duration": 0.2681818,
                "tempo": 120.0
            },
            {
                "start_time": 26.6340909,
                "end_time": 30.6681818,
                "pitch": 57,
                "velocity": 4,
                "duration": 4.0340909,
                "tempo": 120.0
            },
            {
                "start_time": 20.1886364,
                "end_time": 30.9340909,
                "pitch": 47,
                "velocity": 4,
                "duration": 10.7454545,
                "tempo": 120.0
            },
            {
                "start_time": 30.1340909,
                "end_time": 30.9340909,
                "pitch": 59,
                "velocity": 4,
                "duration": 0.8,
                "tempo": 120.0
            },
            {
                "start_time": 30.6681818,
                "end_time": 30.9340909,
                "pitch": 59,
                "velocity": 4,
                "duration": 0.2659091,
                "tempo": 120.0
            },
            {
                "start_time": 30.9340909,
                "end_time": 31.2022727,
                "pitch": 52,
                "velocity": 4,
                "duration": 0.2681818,
                "tempo": 120.0
            },
            {
                "start_time": 29.0545455,
                "end_time": 31.2022727,
                "pitch": 64,
                "velocity": 4,
                "duration": 2.1477273,
                "tempo": 120.0
            },
            {
                "start_time": 30.6681818,
                "end_time": 31.4727273,
                "pitch": 57,
                "velocity": 4,
                "duration": 0.8045455,
                "tempo": 120.0
            },
            {
                "start_time": 31.2022727,
                "end_time": 31.4727273,
                "pitch": 57,
                "velocity": 4,
                "duration": 0.2704545,
                "tempo": 120.0
            },
            {
                "start_time": 31.4727273,
                "end_time": 31.7454545,
                "pitch": 59,
                "velocity": 4,
                "duration": 0.2727273,
                "tempo": 120.0
            },
            {
                "start_time": 31.7454545,
                "end_time": 32.0113636,
                "pitch": 59,
                "velocity": 4,
                "duration": 0.2659091,
                "tempo": 120.0
            },
            {
                "start_time": 26.1090909,
                "end_time": 32.2818182,
                "pitch": 45,
                "velocity": 4,
                "duration": 6.1727273,
                "tempo": 120.0
            },
            {
                "start_time": 31.4727273,
                "end_time": 32.2818182,
                "pitch": 57,
                "velocity": 4,
                "duration": 0.8090909,
                "tempo": 120.0
            },
            {
                "start_time": 32.0113636,
                "end_time": 32.2818182,
                "pitch": 57,
                "velocity": 4,
                "duration": 0.2704545,
                "tempo": 120.0
            },
            {
                "start_time": 25.5704545,
                "end_time": 32.5477273,
                "pitch": 54,
                "velocity": 4,
                "duration": 6.9772727,
                "tempo": 120.0
            },
            {
                "start_time": 32.2818182,
                "end_time": 32.5477273,
                "pitch": 54,
                "velocity": 4,
                "duration": 0.2659091,
                "tempo": 120.0
            },
            {
                "start_time": 23.9477273,
                "end_time": 32.5477273,
                "pitch": 66,
                "velocity": 4,
                "duration": 8.6,
                "tempo": 120.0
            },
            {
                "start_time": 32.5477273,
                "end_time": 32.8136364,
                "pitch": 55,
                "velocity": 4,
                "duration": 0.2659091,
                "tempo": 120.0
            },
            {
                "start_time": 32.2818182,
                "end_time": 33.0863636,
                "pitch": 45,
                "velocity": 4,
                "duration": 0.8045455,
                "tempo": 120.0
            },
            {
                "start_time": 32.8136364,
                "end_time": 33.0863636,
                "pitch": 55,
                "velocity": 4,
                "duration": 0.2727273,
                "tempo": 120.0
            },
            {
                "start_time": 33.0863636,
                "end_time": 33.3590909,
                "pitch": 50,
                "velocity": 4,
                "duration": 0.2727273,
                "tempo": 120.0
            },
            {
                "start_time": 29.8636364,
                "end_time": 33.3590909,
                "pitch": 62,
                "velocity": 4,
                "duration": 3.4954545,
                "tempo": 120.0
            },
            {
                "start_time": 33.3590909,
                "end_time": 33.625,
                "pitch": 59,
                "velocity": 4,
                "duration": 0.2659091,
                "tempo": 120.0
            },
            {
                "start_time": 33.625,
                "end_time": 33.8931818,
                "pitch": 57,
                "velocity": 4,
                "duration": 0.2681818,
                "tempo": 120.0
            },
            {
                "start_time": 33.8931818,
                "end_time": 34.1590909,
                "pitch": 57,
                "velocity": 4,
                "duration": 0.2659091,
                "tempo": 120.0
            },
            {
                "start_time": 34.1590909,
                "end_time": 34.4272727,
                "pitch": 55,
                "velocity": 4,
                "duration": 0.2681818,
                "tempo": 120.0
            },
            {
                "start_time": 34.4272727,
                "end_time": 36.5954545,
                "pitch": 57,
                "velocity": 4,
                "duration": 2.1681818,
                "tempo": 120.0
            },
            {
                "start_time": 33.625,
                "end_time": 36.8545455,
                "pitch": 59,
                "velocity": 4,
                "duration": 3.2295455,
                "tempo": 120.0
            },
            {
                "start_time": 36.5954545,
                "end_time": 36.8545455,
                "pitch": 59,
                "velocity": 4,
                "duration": 0.2590909,
                "tempo": 120.0
            },
            {
                "start_time": 36.8545455,
                "end_time": 37.1181818,
                "pitch": 59,
                "velocity": 4,
                "duration": 0.2636364,
                "tempo": 120.0
            },
            {
                "start_time": 32.0113636,
                "end_time": 37.1181818,
                "pitch": 60,
                "velocity": 4,
                "duration": 5.1068182,
                "tempo": 120.0
            },
            {
                "start_time": 33.3590909,
                "end_time": 37.3840909,
                "pitch": 62,
                "velocity": 4,
                "duration": 4.025,
                "tempo": 120.0
            },
            {
                "start_time": 37.1181818,
                "end_time": 37.3840909,
                "pitch": 62,
                "velocity": 4,
                "duration": 0.2659091,
                "tempo": 120.0
            },
            {
                "start_time": 29.325,
                "end_time": 37.6522727,
                "pitch": 56,
                "velocity": 4,
                "duration": 8.3272727,
                "tempo": 120.0
            },
            {
                "start_time": 37.3840909,
                "end_time": 37.6522727,
                "pitch": 56,
                "velocity": 4,
                "duration": 0.2681818,
                "tempo": 120.0
            },
            {
                "start_time": 37.6522727,
                "end_time": 37.9181818,
                "pitch": 56,
                "velocity": 4,
                "duration": 0.2659091,
                "tempo": 120.0
            },
            {
                "start_time": 37.9181818,
                "end_time": 38.1863636,
                "pitch": 59,
                "velocity": 4,
                "duration": 0.2681818,
                "tempo": 120.0
            },
            {
                "start_time": 18.0318182,
                "end_time": 38.4522727,
                "pitch": 48,
                "velocity": 4,
                "duration": 20.4204545,
                "tempo": 120.0
            },
            {
                "start_time": 38.1863636,
                "end_time": 38.4522727,
                "pitch": 59,
                "velocity": 4,
                "duration": 0.2659091,
                "tempo": 120.0
            },
            {
                "start_time": 38.4522727,
                "end_time": 38.7227273,
                "pitch": 54,
                "velocity": 4,
                "duration": 0.2704545,
                "tempo": 120.0
            },
            {
                "start_time": 32.5477273,
                "end_time": 38.7227273,
                "pitch": 66,
                "velocity": 4,
                "duration": 6.175,
                "tempo": 120.0
            },
            {
                "start_time": 38.7227273,
                "end_time": 38.9977273,
                "pitch": 59,
                "velocity": 4,
                "duration": 0.275,
                "tempo": 120.0
            },
            {
                "start_time": 21.8,
                "end_time": 39.275,
                "pitch": 43,
                "velocity": 4,
                "duration": 17.475,
                "tempo": 120.0
            },
            {
                "start_time": 36.5954545,
                "end_time": 39.275,
                "pitch": 55,
                "velocity": 4,
                "duration": 2.6795455,
                "tempo": 120.0
            },
            {
                "start_time": 38.9977273,
                "end_time": 39.275,
                "pitch": 55,
                "velocity": 4,
                "duration": 0.2772727,
                "tempo": 120.0
            },
            {
                "start_time": 39.275,
                "end_time": 39.5431818,
                "pitch": 52,
                "velocity": 4,
                "duration": 0.2681818,
                "tempo": 120.0
            },
            {
                "start_time": 31.2022727,
                "end_time": 39.5431818,
                "pitch": 64,
                "velocity": 4,
                "duration": 8.3409091,
                "tempo": 120.0
            },
            {
                "start_time": 37.9181818,
                "end_time": 39.8090909,
                "pitch": 57,
                "velocity": 4,
                "duration": 1.8909091,
                "tempo": 120.0
            },
            {
                "start_time": 39.5431818,
                "end_time": 39.8090909,
                "pitch": 57,
                "velocity": 4,
                "duration": 0.2659091,
                "tempo": 120.0
            },
            {
                "start_time": 39.275,
                "end_time": 40.3545455,
                "pitch": 43,
                "velocity": 4,
                "duration": 1.0795455,
                "tempo": 120.0
            },
            {
                "start_time": 39.8090909,
                "end_time": 40.3545455,
                "pitch": 57,
                "velocity": 4,
                "duration": 0.5454545,
                "tempo": 120.0
            },
            {
                "start_time": 40.3545455,
                "end_time": 40.8795455,
                "pitch": 54,
                "velocity": 4,
                "duration": 0.525,
                "tempo": 120.0
            },
            {
                "start_time": 40.8795455,
                "end_time": 41.15,
                "pitch": 52,
                "velocity": 4,
                "duration": 0.2704545,
                "tempo": 120.0
            },
            {
                "start_time": 39.5431818,
                "end_time": 41.15,
                "pitch": 64,
                "velocity": 4,
                "duration": 1.6068182,
                "tempo": 120.0
            },
            {
                "start_time": 33.0863636,
                "end_time": 41.4227273,
                "pitch": 45,
                "velocity": 4,
                "duration": 8.3363636,
                "tempo": 120.0
            },
            {
                "start_time": 41.15,
                "end_time": 41.4227273,
                "pitch": 57,
                "velocity": 4,
                "duration": 0.2727273,
                "tempo": 120.0
            },
            {
                "start_time": 40.8795455,
                "end_time": 41.6886364,
                "pitch": 54,
                "velocity": 4,
                "duration": 0.8090909,
                "tempo": 120.0
            },
            {
                "start_time": 41.4227273,
                "end_time": 41.6886364,
                "pitch": 54,
                "velocity": 4,
                "duration": 0.2659091,
                "tempo": 120.0
            },
            {
                "start_time": 41.6886364,
                "end_time": 41.9590909,
                "pitch": 50,
                "velocity": 4,
                "duration": 0.2704545,
                "tempo": 120.0
            },
            {
                "start_time": 41.9590909,
                "end_time": 42.2227273,
                "pitch": 52,
                "velocity": 4,
                "duration": 0.2636364,
                "tempo": 120.0
            },
            {
                "start_time": 41.15,
                "end_time": 42.2227273,
                "pitch": 64,
                "velocity": 4,
                "duration": 1.0727273,
                "tempo": 120.0
            },
            {
                "start_time": 41.4227273,
                "end_time": 42.4931818,
                "pitch": 45,
                "velocity": 4,
                "duration": 1.0704545,
                "tempo": 120.0
            },
            {
                "start_time": 42.2227273,
                "end_time": 42.4931818,
                "pitch": 57,
                "velocity": 4,
                "duration": 0.2704545,
                "tempo": 120.0
            },
            {
                "start_time": 41.6886364,
                "end_time": 42.7636364,
                "pitch": 54,
                "velocity": 4,
                "duration": 1.075,
                "tempo": 120.0
            },
            {
                "start_time": 42.4931818,
                "end_time": 42.7636364,
                "pitch": 54,
                "velocity": 4,
                "duration": 0.2704545,
                "tempo": 120.0
            },
            {
                "start_time": 41.9590909,
                "end_time": 43.0363636,
                "pitch": 50,
                "velocity": 4,
                "duration": 1.0772727,
                "tempo": 120.0
            },
            {
                "start_time": 42.7636364,
                "end_time": 43.0363636,
                "pitch": 50,
                "velocity": 4,
                "duration": 0.2727273,
                "tempo": 120.0
            },
            {
                "start_time": 37.3840909,
                "end_time": 43.0363636,
                "pitch": 62,
                "velocity": 4,
                "duration": 5.6522727,
                "tempo": 120.0
            },
            {
                "start_time": 38.9977273,
                "end_time": 43.3022727,
                "pitch": 59,
                "velocity": 4,
                "duration": 4.3045455,
                "tempo": 120.0
            },
            {
                "start_time": 43.0363636,
                "end_time": 43.3022727,
                "pitch": 59,
                "velocity": 4,
                "duration": 0.2659091,
                "tempo": 120.0
            },
            {
                "start_time": 43.3022727,
                "end_time": 43.5704545,
                "pitch": 55,
                "velocity": 4,
                "duration": 0.2681818,
                "tempo": 120.0
            },
            {
                "start_time": 43.5704545,
                "end_time": 43.8363636,
                "pitch": 55,
                "velocity": 4,
                "duration": 0.2659091,
                "tempo": 120.0
            },
            {
                "start_time": 40.3545455,
                "end_time": 44.1045455,
                "pitch": 43,
                "velocity": 4,
                "duration": 3.75,
                "tempo": 120.0
            },
            {
                "start_time": 43.8363636,
                "end_time": 44.1045455,
                "pitch": 57,
                "velocity": 4,
                "duration": 0.2681818,
                "tempo": 120.0
            },
            {
                "start_time": 42.7636364,
                "end_time": 45.2113636,
                "pitch": 54,
                "velocity": 4,
                "duration": 2.4477273,
                "tempo": 120.0
            },
            {
                "start_time": 44.1045455,
                "end_time": 45.2113636,
                "pitch": 54,
                "velocity": 4,
                "duration": 1.1068182,
                "tempo": 120.0
            },
            {
                "start_time": 38.7227273,
                "end_time": 45.2113636,
                "pitch": 66,
                "velocity": 4,
                "duration": 6.4886364,
                "tempo": 120.0
            },
            {
                "start_time": 43.3022727,
                "end_time": 45.4613636,
                "pitch": 59,
                "velocity": 4,
                "duration": 2.1590909,
                "tempo": 120.0
            },
            {
                "start_time": 45.2113636,
                "end_time": 45.4613636,
                "pitch": 59,
                "velocity": 4,
                "duration": 0.25,
                "tempo": 120.0
            },
            {
                "start_time": 45.4636364,
                "end_time": 45.7136364,
                "pitch": 59,
                "velocity": 4,
                "duration": 0.25,
                "tempo": 120.0
            },
            {
                "start_time": 37.1181818,
                "end_time": 45.7136364,
                "pitch": 60,
                "velocity": 4,
                "duration": 8.5954545,
                "tempo": 120.0
            },
            {
                "start_time": 43.0363636,
                "end_time": 45.9863636,
                "pitch": 62,
                "velocity": 4,
                "duration": 2.95,
                "tempo": 120.0
            },
            {
                "start_time": 45.7136364,
                "end_time": 45.9863636,
                "pitch": 62,
                "velocity": 4,
                "duration": 0.2727273,
                "tempo": 120.0
            },
            {
                "start_time": 45.9863636,
                "end_time": 46.2568182,
                "pitch": 56,
                "velocity": 4,
                "duration": 0.2704545,
                "tempo": 120.0
            },
            {
                "start_time": 46.2568182,
                "end_time": 46.525,
                "pitch": 56,
                "velocity": 4,
                "duration": 0.2681818,
                "tempo": 120.0
            },
            {
                "start_time": 46.525,
                "end_time": 46.7909091,
                "pitch": 59,
                "velocity": 4,
                "duration": 0.2659091,
                "tempo": 120.0
            },
            {
                "start_time": 38.4522727,
                "end_time": 47.0590909,
                "pitch": 48,
                "velocity": 4,
                "duration": 8.6068182,
                "tempo": 120.0
            },
            {
                "start_time": 46.7931818,
                "end_time": 47.0590909,
                "pitch": 59,
                "velocity": 4,
                "duration": 0.2659091,
                "tempo": 120.0
            },
            {
                "start_time": 47.0590909,
                "end_time": 47.3272727,
                "pitch": 54,
                "velocity": 4,
                "duration": 0.2681818,
                "tempo": 120.0
            },
            {
                "start_time": 45.2113636,
                "end_time": 47.3272727,
                "pitch": 66,
                "velocity": 4,
                "duration": 2.1159091,
                "tempo": 120.0
            },
            {
                "start_time": 47.3272727,
                "end_time": 47.5977273,
                "pitch": 55,
                "velocity": 4,
                "duration": 0.2704545,
                "tempo": 120.0
            },
            {
                "start_time": 47.5977273,
                "end_time": 47.8704545,
                "pitch": 59,
                "velocity": 4,
                "duration": 0.2727273,
                "tempo": 120.0
            },
            {
                "start_time": 46.525,
                "end_time": 48.1386364,
                "pitch": 57,
                "velocity": 4,
                "duration": 1.6136364,
                "tempo": 120.0
            },
            {
                "start_time": 47.8704545,
                "end_time": 48.1386364,
                "pitch": 57,
                "velocity": 4,
                "duration": 0.2681818,
                "tempo": 120.0
            },
            {
                "start_time": 44.1045455,
                "end_time": 48.4045455,
                "pitch": 43,
                "velocity": 4,
                "duration": 4.3,
                "tempo": 120.0
            },
            {
                "start_time": 48.1386364,
                "end_time": 48.4045455,
                "pitch": 57,
                "velocity": 4,
                "duration": 0.2659091,
                "tempo": 120.0
            },
            {
                "start_time": 48.4045455,
                "end_time": 48.6772727,
                "pitch": 54,
                "velocity": 4,
                "duration": 0.2727273,
                "tempo": 120.0
            },
            {
                "start_time": 47.3272727,
                "end_time": 48.6772727,
                "pitch": 66,
                "velocity": 4,
                "duration": 1.35,
                "tempo": 120.0
            },
            {
                "start_time": 48.6772727,
                "end_time": 48.9477273,
                "pitch": 57,
                "velocity": 4,
                "duration": 0.2704545,
                "tempo": 120.0
            },
            {
                "start_time": 48.4045455,
                "end_time": 49.2113636,
                "pitch": 43,
                "velocity": 4,
                "duration": 0.8068182,
                "tempo": 120.0
            },
            {
                "start_time": 48.9477273,
                "end_time": 49.2113636,
                "pitch": 57,
                "velocity": 4,
                "duration": 0.2636364,
                "tempo": 120.0
            },
            {
                "start_time": 49.2113636,
                "end_time": 49.475,
                "pitch": 54,
                "velocity": 4,
                "duration": 0.2636364,
                "tempo": 120.0
            },
            {
                "start_time": 49.475,
                "end_time": 49.75,
                "pitch": 52,
                "velocity": 4,
                "duration": 0.275,
                "tempo": 120.0
            },
            {
                "start_time": 42.2227273,
                "end_time": 49.75,
                "pitch": 64,
                "velocity": 4,
                "duration": 7.5272727,
                "tempo": 120.0
            },
            {
                "start_time": 42.4931818,
                "end_time": 50.0272727,
                "pitch": 45,
                "velocity": 4,
                "duration": 7.5340909,
                "tempo": 120.0
            },
            {
                "start_time": 49.75,
                "end_time": 50.0272727,
                "pitch": 57,
                "velocity": 4,
                "duration": 0.2772727,
                "tempo": 120.0
            },
            {
                "start_time": 49.475,
                "end_time": 50.2886364,
                "pitch": 54,
                "velocity": 4,
                "duration": 0.8136364,
                "tempo": 120.0
            },
            {
                "start_time": 50.0272727,
                "end_time": 50.2886364,
                "pitch": 54,
                "velocity": 4,
                "duration": 0.2613636,
                "tempo": 120.0
            },
            {
                "start_time": 50.2886364,
                "end_time": 50.5522727,
                "pitch": 50,
                "velocity": 4,
                "duration": 0.2636364,
                "tempo": 120.0
            },
            {
                "start_time": 50.5522727,
                "end_time": 50.8227273,
                "pitch": 52,
                "velocity": 4,
                "duration": 0.2704545,
                "tempo": 120.0
            },
            {
                "start_time": 49.75,
                "end_time": 50.8227273,
                "pitch": 64,
                "velocity": 4,
                "duration": 1.0727273,
                "tempo": 120.0
            },
            {
                "start_time": 50.0272727,
                "end_time": 51.0977273,
                "pitch": 45,
                "velocity": 4,
                "duration": 1.0704545,
                "tempo": 120.0
            },
            {
                "start_time": 50.8227273,
                "end_time": 51.0977273,
                "pitch": 57,
                "velocity": 4,
                "duration": 0.275,
                "tempo": 120.0
            },
            {
                "start_time": 50.2886364,
                "end_time": 51.3613636,
                "pitch": 54,
                "velocity": 4,
                "duration": 1.0727273,
                "tempo": 120.0
            },
            {
                "start_time": 51.0977273,
                "end_time": 51.3613636,
                "pitch": 54,
                "velocity": 4,
                "duration": 0.2636364,
                "tempo": 120.0
            },
            {
                "start_time": 51.3613636,
                "end_time": 51.3636364,
                "pitch": 54,
                "velocity": 4,
                "duration": 0.0022727,
                "tempo": 120.0
            },
            {
                "start_time": 50.5522727,
                "end_time": 51.6318182,
                "pitch": 50,
                "velocity": 4,
                "duration": 1.0795455,
                "tempo": 120.0
            },
            {
                "start_time": 51.3636364,
                "end_time": 51.6318182,
                "pitch": 50,
                "velocity": 4,
                "duration": 0.2681818,
                "tempo": 120.0
            },
            {
                "start_time": 51.6318182,
                "end_time": 51.8977273,
                "pitch": 52,
                "velocity": 4,
                "duration": 0.2659091,
                "tempo": 120.0
            },
            {
                "start_time": 50.8227273,
                "end_time": 51.8977273,
                "pitch": 64,
                "velocity": 4,
                "duration": 1.075,
                "tempo": 120.0
            },
            {
                "start_time": 51.0977273,
                "end_time": 52.1659091,
                "pitch": 45,
                "velocity": 4,
                "duration": 1.0681818,
                "tempo": 120.0
            },
            {
                "start_time": 51.8977273,
                "end_time": 52.1659091,
                "pitch": 57,
                "velocity": 4,
                "duration": 0.2681818,
                "tempo": 120.0
            },
            {
                "start_time": 52.1659091,
                "end_time": 52.4363636,
                "pitch": 54,
                "velocity": 4,
                "duration": 0.2704545,
                "tempo": 120.0
            },
            {
                "start_time": 51.6318182,
                "end_time": 52.7090909,
                "pitch": 50,
                "velocity": 4,
                "duration": 1.0772727,
                "tempo": 120.0
            },
            {
                "start_time": 52.4363636,
                "end_time": 52.7090909,
                "pitch": 50,
                "velocity": 4,
                "duration": 0.2727273,
                "tempo": 120.0
            },
            {
                "start_time": 52.7090909,
                "end_time": 53.7863636,
                "pitch": 52,
                "velocity": 4,
                "duration": 1.0772727,
                "tempo": 120.0
            },
            {
                "start_time": 51.8977273,
                "end_time": 53.7863636,
                "pitch": 64,
                "velocity": 4,
                "duration": 1.8886364,
                "tempo": 120.0
            },
            {
                "start_time": 53.7863636,
                "end_time": 54.0477273,
                "pitch": 57,
                "velocity": 4,
                "duration": 0.2613636,
                "tempo": 120.0
            },
            {
                "start_time": 47.8704545,
                "end_time": 54.3113636,
                "pitch": 59,
                "velocity": 4,
                "duration": 6.4409091,
                "tempo": 120.0
            },
            {
                "start_time": 54.0477273,
                "end_time": 54.3113636,
                "pitch": 59,
                "velocity": 4,
                "duration": 0.2636364,
                "tempo": 120.0
            },
            {
                "start_time": 47.0590909,
                "end_time": 54.5840909,
                "pitch": 48,
                "velocity": 4,
                "duration": 7.525,
                "tempo": 120.0
            },
            {
                "start_time": 54.3113636,
                "end_time": 54.5840909,
                "pitch": 59,
                "velocity": 4,
                "duration": 0.2727273,
                "tempo": 120.0
            },
            {
                "start_time": 54.5840909,
                "end_time": 57.025,
                "pitch": 53,
                "velocity": 4,
                "duration": 2.4409091,
                "tempo": 120.0
            },
            {
                "start_time": 49.2113636,
                "end_time": 57.55,
                "pitch": 43,
                "velocity": 4,
                "duration": 8.3386364,
                "tempo": 120.0
            },
            {
                "start_time": 47.5977273,
                "end_time": 57.55,
                "pitch": 55,
                "velocity": 4,
                "duration": 9.9522727,
                "tempo": 120.0
            },
            {
                "start_time": 57.025,
                "end_time": 57.55,
                "pitch": 55,
                "velocity": 4,
                "duration": 0.525,
                "tempo": 120.0
            },
            {
                "start_time": 57.55,
                "end_time": 58.1022727,
                "pitch": 53,
                "velocity": 4,
                "duration": 0.5522727,
                "tempo": 120.0
            },
            {
                "start_time": 58.1022727,
                "end_time": 62.3636364,
                "pitch": 53,
                "velocity": 4,
                "duration": 4.2613636,
                "tempo": 120.0
            },
            {
                "start_time": 53.7863636,
                "end_time": 62.3636364,
                "pitch": 64,
                "velocity": 4,
                "duration": 8.5772727,
                "tempo": 120.0
            },
            {
                "start_time": 54.0477273,
                "end_time": 62.6386364,
                "pitch": 57,
                "velocity": 4,
                "duration": 8.5909091,
                "tempo": 120.0
            },
            {
                "start_time": 62.3636364,
                "end_time": 62.6386364,
                "pitch": 57,
                "velocity": 4,
                "duration": 0.275,
                "tempo": 120.0
            },
            {
                "start_time": 62.6386364,
                "end_time": 62.9181818,
                "pitch": 59,
                "velocity": 4,
                "duration": 0.2795455,
                "tempo": 120.0
            },
            {
                "start_time": 54.5840909,
                "end_time": 63.1840909,
                "pitch": 48,
                "velocity": 4,
                "duration": 8.6,
                "tempo": 120.0
            },
            {
                "start_time": 62.9181818,
                "end_time": 63.1840909,
                "pitch": 59,
                "velocity": 4,
                "duration": 0.2659091,
                "tempo": 120.0
            },
            {
                "start_time": 63.1840909,
                "end_time": 64.5522727,
                "pitch": 53,
                "velocity": 4,
                "duration": 1.3681818,
                "tempo": 120.0
            },
            {
                "start_time": 57.025,
                "end_time": 64.5522727,
                "pitch": 65,
                "velocity": 4,
                "duration": 7.5272727,
                "tempo": 120.0
            },
            {
                "start_time": 45.9863636,
                "end_time": 65.0772727,
                "pitch": 62,
                "velocity": 4,
                "duration": 19.0909091,
                "tempo": 120.0
            },
            {
                "start_time": 64.5522727,
                "end_time": 65.0772727,
                "pitch": 62,
                "velocity": 4,
                "duration": 0.525,
                "tempo": 120.0
            },
            {
                "start_time": 45.7136364,
                "end_time": 65.6113636,
                "pitch": 60,
                "velocity": 4,
                "duration": 19.8977273,
                "tempo": 120.0
            },
            {
                "start_time": 65.0772727,
                "end_time": 65.6113636,
                "pitch": 60,
                "velocity": 4,
                "duration": 0.5340909,
                "tempo": 120.0
            },
            {
                "start_time": 65.6113636,
                "end_time": 68.8568182,
                "pitch": 60,
                "velocity": 4,
                "duration": 3.2454545,
                "tempo": 120.0
            },
            {
                "start_time": 62.3636364,
                "end_time": 69.1136364,
                "pitch": 64,
                "velocity": 4,
                "duration": 6.75,
                "tempo": 120.0
            },
            {
                "start_time": 68.8568182,
                "end_time": 69.1136364,
                "pitch": 64,
                "velocity": 4,
                "duration": 0.2568182,
                "tempo": 120.0
            },
            {
                "start_time": 69.1136364,
                "end_time": 69.3727273,
                "pitch": 60,
                "velocity": 4,
                "duration": 0.2590909,
                "tempo": 120.0
            },
            {
                "start_time": 65.0772727,
                "end_time": 69.6386364,
                "pitch": 62,
                "velocity": 4,
                "duration": 4.5613636,
                "tempo": 120.0
            },
            {
                "start_time": 69.3727273,
                "end_time": 69.6386364,
                "pitch": 62,
                "velocity": 4,
                "duration": 0.2659091,
                "tempo": 120.0
            },
            {
                "start_time": 68.8568182,
                "end_time": 69.9068182,
                "pitch": 59,
                "velocity": 4,
                "duration": 1.05,
                "tempo": 120.0
            },
            {
                "start_time": 69.6386364,
                "end_time": 69.9068182,
                "pitch": 59,
                "velocity": 4,
                "duration": 0.2681818,
                "tempo": 120.0
            },
            {
                "start_time": 69.9068182,
                "end_time": 70.1772727,
                "pitch": 59,
                "velocity": 4,
                "duration": 0.2704545,
                "tempo": 120.0
            },
            {
                "start_time": 69.3727273,
                "end_time": 70.1772727,
                "pitch": 60,
                "velocity": 4,
                "duration": 0.8045455,
                "tempo": 120.0
            },
            {
                "start_time": 62.6386364,
                "end_time": 70.45,
                "pitch": 57,
                "velocity": 4,
                "duration": 7.8113636,
                "tempo": 120.0
            },
            {
                "start_time": 70.1772727,
                "end_time": 70.45,
                "pitch": 57,
                "velocity": 4,
                "duration": 0.2727273,
                "tempo": 120.0
            },
            {
                "start_time": 70.45,
                "end_time": 70.7181818,
                "pitch": 57,
                "velocity": 4,
                "duration": 0.2681818,
                "tempo": 120.0
            },
            {
                "start_time": 70.7181818,
                "end_time": 70.9863636,
                "pitch": 56,
                "velocity": 4,
                "duration": 0.2681818,
                "tempo": 120.0
            },
            {
                "start_time": 70.9863636,
                "end_time": 73.1568182,
                "pitch": 59,
                "velocity": 4,
                "duration": 2.1704545,
                "tempo": 120.0
            },
            {
                "start_time": 73.1568182,
                "end_time": 73.4136364,
                "pitch": 56,
                "velocity": 4,
                "duration": 0.2568182,
                "tempo": 120.0
            },
            {
                "start_time": 73.4136364,
                "end_time": 73.6727273,
                "pitch": 56,
                "velocity": 4,
                "duration": 0.2590909,
                "tempo": 120.0
            },
            {
                "start_time": 70.9863636,
                "end_time": 73.6727273,
                "pitch": 57,
                "velocity": 4,
                "duration": 2.6863636,
                "tempo": 120.0
            },
            {
                "start_time": 73.1568182,
                "end_time": 73.9386364,
                "pitch": 59,
                "velocity": 4,
                "duration": 0.7818182,
                "tempo": 120.0
            },
            {
                "start_time": 73.6727273,
                "end_time": 73.9386364,
                "pitch": 59,
                "velocity": 4,
                "duration": 0.2659091,
                "tempo": 120.0
            },
            {
                "start_time": 73.9386364,
                "end_time": 74.2068182,
                "pitch": 56,
                "velocity": 4,
                "duration": 0.2681818,
                "tempo": 120.0
            },
            {
                "start_time": 74.2068182,
                "end_time": 74.4727273,
                "pitch": 56,
                "velocity": 4,
                "duration": 0.2659091,
                "tempo": 120.0
            },
            {
                "start_time": 73.6727273,
                "end_time": 74.4727273,
                "pitch": 57,
                "velocity": 4,
                "duration": 0.8,
                "tempo": 120.0
            },
            {
                "start_time": 73.9386364,
                "end_time": 74.7409091,
                "pitch": 59,
                "velocity": 4,
                "duration": 0.8022727,
                "tempo": 120.0
            },
            {
                "start_time": 74.4727273,
                "end_time": 74.7409091,
                "pitch": 59,
                "velocity": 4,
                "duration": 0.2681818,
                "tempo": 120.0
            },
            {
                "start_time": 74.7409091,
                "end_time": 75.0136364,
                "pitch": 56,
                "velocity": 4,
                "duration": 0.2727273,
                "tempo": 120.0
            },
            {
                "start_time": 75.0136364,
                "end_time": 75.2863636,
                "pitch": 56,
                "velocity": 4,
                "duration": 0.2727273,
                "tempo": 120.0
            },
            {
                "start_time": 74.4727273,
                "end_time": 75.5568182,
                "pitch": 57,
                "velocity": 4,
                "duration": 1.0840909,
                "tempo": 120.0
            },
            {
                "start_time": 75.2863636,
                "end_time": 75.5568182,
                "pitch": 57,
                "velocity": 4,
                "duration": 0.2704545,
                "tempo": 120.0
            },
            {
                "start_time": 74.7409091,
                "end_time": 75.8295455,
                "pitch": 59,
                "velocity": 4,
                "duration": 1.0886364,
                "tempo": 120.0
            },
            {
                "start_time": 75.5568182,
                "end_time": 75.8295455,
                "pitch": 59,
                "velocity": 4,
                "duration": 0.2727273,
                "tempo": 120.0
            },
            {
                "start_time": 75.8295455,
                "end_time": 76.0909091,
                "pitch": 59,
                "velocity": 4,
                "duration": 0.2613636,
                "tempo": 120.0
            },
            {
                "start_time": 70.1772727,
                "end_time": 76.0909091,
                "pitch": 60,
                "velocity": 4,
                "duration": 5.9136364,
                "tempo": 120.0
            },
            {
                "start_time": 75.5568182,
                "end_time": 76.3545455,
                "pitch": 57,
                "velocity": 4,
                "duration": 0.7977273,
                "tempo": 120.0
            },
            {
                "start_time": 76.0909091,
                "end_time": 76.3545455,
                "pitch": 57,
                "velocity": 4,
                "duration": 0.2636364,
                "tempo": 120.0
            },
            {
                "start_time": 76.3545455,
                "end_time": 76.625,
                "pitch": 59,
                "velocity": 4,
                "duration": 0.2704545,
                "tempo": 120.0
            },
            {
                "start_time": 76.625,
                "end_time": 76.8977273,
                "pitch": 59,
                "velocity": 4,
                "duration": 0.2727273,
                "tempo": 120.0
            },
            {
                "start_time": 76.0909091,
                "end_time": 76.8977273,
                "pitch": 60,
                "velocity": 4,
                "duration": 0.8068182,
                "tempo": 120.0
            },
            {
                "start_time": 76.3545455,
                "end_time": 77.1659091,
                "pitch": 57,
                "velocity": 4,
                "duration": 0.8113636,
                "tempo": 120.0
            },
            {
                "start_time": 76.8977273,
                "end_time": 77.1659091,
                "pitch": 57,
                "velocity": 4,
                "duration": 0.2681818,
                "tempo": 120.0
            },
            {
                "start_time": 77.1659091,
                "end_time": 77.4340909,
                "pitch": 59,
                "velocity": 4,
                "duration": 0.2681818,
                "tempo": 120.0
            },
            {
                "start_time": 77.4340909,
                "end_time": 77.7045455,
                "pitch": 59,
                "velocity": 4,
                "duration": 0.2704545,
                "tempo": 120.0
            },
            {
                "start_time": 77.7045455,
                "end_time": 77.975,
                "pitch": 59,
                "velocity": 4,
                "duration": 0.2704545,
                "tempo": 120.0
            },
            {
                "start_time": 76.8977273,
                "end_time": 77.975,
                "pitch": 60,
                "velocity": 4,
                "duration": 1.0772727,
                "tempo": 120.0
            },
            {
                "start_time": 69.6386364,
                "end_time": 78.2431818,
                "pitch": 62,
                "velocity": 4,
                "duration": 8.6045455,
                "tempo": 120.0
            },
            {
                "start_time": 77.975,
                "end_time": 78.2431818,
                "pitch": 62,
                "velocity": 4,
                "duration": 0.2681818,
                "tempo": 120.0
            },
            {
                "start_time": 78.2431818,
                "end_time": 78.5090909,
                "pitch": 59,
                "velocity": 4,
                "duration": 0.2659091,
                "tempo": 120.0
            },
            {
                "start_time": 78.5090909,
                "end_time": 78.7772727,
                "pitch": 59,
                "velocity": 4,
                "duration": 0.2681818,
                "tempo": 120.0
            },
            {
                "start_time": 77.975,
                "end_time": 78.7772727,
                "pitch": 60,
                "velocity": 4,
                "duration": 0.8022727,
                "tempo": 120.0
            },
            {
                "start_time": 78.2431818,
                "end_time": 79.0454545,
                "pitch": 62,
                "velocity": 4,
                "duration": 0.8022727,
                "tempo": 120.0
            },
            {
                "start_time": 78.7772727,
                "end_time": 79.0454545,
                "pitch": 62,
                "velocity": 4,
                "duration": 0.2681818,
                "tempo": 120.0
            },
            {
                "start_time": 79.0454545,
                "end_time": 79.3136364,
                "pitch": 59,
                "velocity": 4,
                "duration": 0.2681818,
                "tempo": 120.0
            },
            {
                "start_time": 79.3136364,
                "end_time": 79.5818182,
                "pitch": 59,
                "velocity": 4,
                "duration": 0.2681818,
                "tempo": 120.0
            },
            {
                "start_time": 78.7772727,
                "end_time": 79.5818182,
                "pitch": 60,
                "velocity": 4,
                "duration": 0.8045455,
                "tempo": 120.0
            },
            {
                "start_time": 79.0454545,
                "end_time": 79.8522727,
                "pitch": 62,
                "velocity": 4,
                "duration": 0.8068182,
                "tempo": 120.0
            },
            {
                "start_time": 79.5818182,
                "end_time": 79.8522727,
                "pitch": 62,
                "velocity": 4,
                "duration": 0.2704545,
                "tempo": 120.0
            },
            {
                "start_time": 69.1136364,
                "end_time": 80.125,
                "pitch": 64,
                "velocity": 4,
                "duration": 11.0113636,
                "tempo": 120.0
            },
            {
                "start_time": 79.8522727,
                "end_time": 80.125,
                "pitch": 64,
                "velocity": 4,
                "duration": 0.2727273,
                "tempo": 120.0
            },
            {
                "start_time": 79.5818182,
                "end_time": 80.3909091,
                "pitch": 60,
                "velocity": 4,
                "duration": 0.8090909,
                "tempo": 120.0
            },
            {
                "start_time": 80.125,
                "end_time": 80.3909091,
                "pitch": 60,
                "velocity": 4,
                "duration": 0.2659091,
                "tempo": 120.0
            },
            {
                "start_time": 79.8522727,
                "end_time": 80.6590909,
                "pitch": 62,
                "velocity": 4,
                "duration": 0.8068182,
                "tempo": 120.0
            },
            {
                "start_time": 80.3909091,
                "end_time": 80.6590909,
                "pitch": 62,
                "velocity": 4,
                "duration": 0.2681818,
                "tempo": 120.0
            },
            {
                "start_time": 80.6590909,
                "end_time": 80.9272727,
                "pitch": 59,
                "velocity": 4,
                "duration": 0.2681818,
                "tempo": 120.0
            },
            {
                "start_time": 80.9272727,
                "end_time": 81.1931818,
                "pitch": 59,
                "velocity": 4,
                "duration": 0.2659091,
                "tempo": 120.0
            },
            {
                "start_time": 80.3909091,
                "end_time": 81.1931818,
                "pitch": 60,
                "velocity": 4,
                "duration": 0.8022727,
                "tempo": 120.0
            },
            {
                "start_time": 77.1659091,
                "end_time": 81.4659091,
                "pitch": 57,
                "velocity": 4,
                "duration": 4.3,
                "tempo": 120.0
            },
            {
                "start_time": 81.1931818,
                "end_time": 81.4659091,
                "pitch": 57,
                "velocity": 4,
                "duration": 0.2727273,
                "tempo": 120.0
            },
            {
                "start_time": 81.4659091,
                "end_time": 81.7386364,
                "pitch": 59,
                "velocity": 4,
                "duration": 0.2727273,
                "tempo": 120.0
            },
            {
                "start_time": 81.7386364,
                "end_time": 82.0022727,
                "pitch": 56,
                "velocity": 4,
                "duration": 0.2636364,
                "tempo": 120.0
            },
            {
                "start_time": 82.0022727,
                "end_time": 82.2704545,
                "pitch": 56,
                "velocity": 4,
                "duration": 0.2681818,
                "tempo": 120.0
            },
            {
                "start_time": 81.4659091,
                "end_time": 82.2704545,
                "pitch": 57,
                "velocity": 4,
                "duration": 0.8045455,
                "tempo": 120.0
            },
            {
                "start_time": 81.7386364,
                "end_time": 82.5409091,
                "pitch": 59,
                "velocity": 4,
                "duration": 0.8022727,
                "tempo": 120.0
            },
            {
                "start_time": 82.2704545,
                "end_time": 82.5409091,
                "pitch": 59,
                "velocity": 4,
                "duration": 0.2704545,
                "tempo": 120.0
            },
            {
                "start_time": 82.5409091,
                "end_time": 82.8136364,
                "pitch": 56,
                "velocity": 4,
                "duration": 0.2727273,
                "tempo": 120.0
            },
            {
                "start_time": 82.8136364,
                "end_time": 83.0818182,
                "pitch": 56,
                "velocity": 4,
                "duration": 0.2681818,
                "tempo": 120.0
            },
            {
                "start_time": 82.2704545,
                "end_time": 83.0818182,
                "pitch": 57,
                "velocity": 4,
                "duration": 0.8113636,
                "tempo": 120.0
            },
            {
                "start_time": 82.5409091,
                "end_time": 83.35,
                "pitch": 59,
                "velocity": 4,
                "duration": 0.8090909,
                "tempo": 120.0
            },
            {
                "start_time": 83.0818182,
                "end_time": 83.35,
                "pitch": 59,
                "velocity": 4,
                "duration": 0.2681818,
                "tempo": 120.0
            },
            {
                "start_time": 83.35,
                "end_time": 83.6159091,
                "pitch": 56,
                "velocity": 4,
                "duration": 0.2659091,
                "tempo": 120.0
            },
            {
                "start_time": 83.6159091,
                "end_time": 83.8840909,
                "pitch": 56,
                "velocity": 4,
                "duration": 0.2681818,
                "tempo": 120.0
            },
            {
                "start_time": 83.0818182,
                "end_time": 84.15,
                "pitch": 57,
                "velocity": 4,
                "duration": 1.0681818,
                "tempo": 120.0
            },
            {
                "start_time": 83.8840909,
                "end_time": 84.15,
                "pitch": 57,
                "velocity": 4,
                "duration": 0.2659091,
                "tempo": 120.0
            },
            {
                "start_time": 83.35,
                "end_time": 84.4181818,
                "pitch": 59,
                "velocity": 4,
                "duration": 1.0681818,
                "tempo": 120.0
            },
            {
                "start_time": 84.15,
                "end_time": 84.4181818,
                "pitch": 59,
                "velocity": 4,
                "duration": 0.2681818,
                "tempo": 120.0
            },
            {
                "start_time": 84.4181818,
                "end_time": 84.6886364,
                "pitch": 59,
                "velocity": 4,
                "duration": 0.2704545,
                "tempo": 120.0
            },
            {
                "start_time": 81.1931818,
                "end_time": 84.6886364,
                "pitch": 60,
                "velocity": 4,
                "duration": 3.4954545,
                "tempo": 120.0
            },
            {
                "start_time": 84.15,
                "end_time": 84.9613636,
                "pitch": 57,
                "velocity": 4,
                "duration": 0.8113636,
                "tempo": 120.0
            },
            {
                "start_time": 84.6886364,
                "end_time": 84.9613636,
                "pitch": 57,
                "velocity": 4,
                "duration": 0.2727273,
                "tempo": 120.0
            },
            {
                "start_time": 84.9613636,
                "end_time": 85.2272727,
                "pitch": 59,
                "velocity": 4,
                "duration": 0.2659091,
                "tempo": 120.0
            },
            {
                "start_time": 85.2272727,
                "end_time": 85.4954545,
                "pitch": 59,
                "velocity": 4,
                "duration": 0.2681818,
                "tempo": 120.0
            },
            {
                "start_time": 84.6886364,
                "end_time": 85.4954545,
                "pitch": 60,
                "velocity": 4,
                "duration": 0.8068182,
                "tempo": 120.0
            },
            {
                "start_time": 84.9613636,
                "end_time": 85.7636364,
                "pitch": 57,
                "velocity": 4,
                "duration": 0.8022727,
                "tempo": 120.0
            },
            {
                "start_time": 85.4954545,
                "end_time": 85.7636364,
                "pitch": 57,
                "velocity": 4,
                "duration": 0.2681818,
                "tempo": 120.0
            },
            {
                "start_time": 85.7636364,
                "end_time": 86.0318182,
                "pitch": 59,
                "velocity": 4,
                "duration": 0.2681818,
                "tempo": 120.0
            },
            {
                "start_time": 80.125,
                "end_time": 86.3022727,
                "pitch": 64,
                "velocity": 4,
                "duration": 6.1772727,
                "tempo": 120.0
            },
            {
                "start_time": 86.0318182,
                "end_time": 86.3022727,
                "pitch": 64,
                "velocity": 4,
                "duration": 0.2704545,
                "tempo": 120.0
            },
            {
                "start_time": 85.4954545,
                "end_time": 86.575,
                "pitch": 60,
                "velocity": 4,
                "duration": 1.0795455,
                "tempo": 120.0
            },
            {
                "start_time": 86.3022727,
                "end_time": 86.575,
                "pitch": 60,
                "velocity": 4,
                "duration": 0.2727273,
                "tempo": 120.0
            },
            {
                "start_time": 80.6590909,
                "end_time": 86.8409091,
                "pitch": 62,
                "velocity": 4,
                "duration": 6.1818182,
                "tempo": 120.0
            },
            {
                "start_time": 86.575,
                "end_time": 86.8409091,
                "pitch": 62,
                "velocity": 4,
                "duration": 0.2659091,
                "tempo": 120.0
            },
            {
                "start_time": 86.0318182,
                "end_time": 87.1090909,
                "pitch": 59,
                "velocity": 4,
                "duration": 1.0772727,
                "tempo": 120.0
            },
            {
                "start_time": 86.8409091,
                "end_time": 87.1090909,
                "pitch": 59,
                "velocity": 4,
                "duration": 0.2681818,
                "tempo": 120.0
            },
            {
                "start_time": 87.1090909,
                "end_time": 87.925,
                "pitch": 56,
                "velocity": 4,
                "duration": 0.8159091,
                "tempo": 120.0
            },
            {
                "start_time": 87.925,
                "end_time": 88.2068182,
                "pitch": 56,
                "velocity": 4,
                "duration": 0.2818182,
                "tempo": 120.0
            },
            {
                "start_time": 85.7636364,
                "end_time": 90.3568182,
                "pitch": 57,
                "velocity": 4,
                "duration": 4.5931818,
                "tempo": 120.0
            },
            {
                "start_time": 88.2090909,
                "end_time": 90.3568182,
                "pitch": 57,
                "velocity": 4,
                "duration": 2.1477273,
                "tempo": 120.0
            },
            {
                "start_time": 52.1659091,
                "end_time": 90.6113636,
                "pitch": 45,
                "velocity": 4,
                "duration": 38.4454545,
                "tempo": 120.0
            },
            {
                "start_time": 90.3568182,
                "end_time": 90.6113636,
                "pitch": 57,
                "velocity": 4,
                "duration": 0.2545455,
                "tempo": 120.0
            },
            {
                "start_time": 90.6113636,
                "end_time": 90.8704545,
                "pitch": 52,
                "velocity": 4,
                "duration": 0.2590909,
                "tempo": 120.0
            },
            {
                "start_time": 86.3022727,
                "end_time": 90.8704545,
                "pitch": 64,
                "velocity": 4,
                "duration": 4.5681818,
                "tempo": 120.0
            },
            {
                "start_time": 63.1840909,
                "end_time": 91.1363636,
                "pitch": 48,
                "velocity": 4,
                "duration": 27.9522727,
                "tempo": 120.0
            },
            {
                "start_time": 86.575,
                "end_time": 91.1363636,
                "pitch": 60,
                "velocity": 4,
                "duration": 4.5613636,
                "tempo": 120.0
            },
            {
                "start_time": 90.8704545,
                "end_time": 91.1363636,
                "pitch": 60,
                "velocity": 4,
                "duration": 0.2659091,
                "tempo": 120.0
            },
            {
                "start_time": 91.1363636,
                "end_time": 91.4045455,
                "pitch": 52,
                "velocity": 4,
                "duration": 0.2681818,
                "tempo": 120.0
            },
            {
                "start_time": 90.8704545,
                "end_time": 91.4045455,
                "pitch": 64,
                "velocity": 4,
                "duration": 0.5340909,
                "tempo": 120.0
            },
            {
                "start_time": 30.9340909,
                "end_time": 91.675,
                "pitch": 47,
                "velocity": 4,
                "duration": 60.7409091,
                "tempo": 120.0
            },
            {
                "start_time": 87.1090909,
                "end_time": 91.675,
                "pitch": 59,
                "velocity": 4,
                "duration": 4.5659091,
                "tempo": 120.0
            },
            {
                "start_time": 91.4045455,
                "end_time": 91.675,
                "pitch": 59,
                "velocity": 4,
                "duration": 0.2704545,
                "tempo": 120.0
            },
            {
                "start_time": 91.675,
                "end_time": 91.9477273,
                "pitch": 52,
                "velocity": 4,
                "duration": 0.2727273,
                "tempo": 120.0
            },
            {
                "start_time": 91.4045455,
                "end_time": 91.9477273,
                "pitch": 64,
                "velocity": 4,
                "duration": 0.5431818,
                "tempo": 120.0
            },
            {
                "start_time": 90.6113636,
                "end_time": 92.2159091,
                "pitch": 45,
                "velocity": 4,
                "duration": 1.6045455,
                "tempo": 120.0
            },
            {
                "start_time": 91.9477273,
                "end_time": 92.2159091,
                "pitch": 57,
                "velocity": 4,
                "duration": 0.2681818,
                "tempo": 120.0
            },
            {
                "start_time": 92.2159091,
                "end_time": 92.4840909,
                "pitch": 52,
                "velocity": 4,
                "duration": 0.2681818,
                "tempo": 120.0
            },
            {
                "start_time": 91.9477273,
                "end_time": 92.4840909,
                "pitch": 64,
                "velocity": 4,
                "duration": 0.5363636,
                "tempo": 120.0
            },
            {
                "start_time": 28.7863636,
                "end_time": 92.7545455,
                "pitch": 44,
                "velocity": 4,
                "duration": 63.9681818,
                "tempo": 120.0
            },
            {
                "start_time": 92.4840909,
                "end_time": 92.7545455,
                "pitch": 56,
                "velocity": 4,
                "duration": 0.2704545,
                "tempo": 120.0
            },
            {
                "start_time": 92.7545455,
                "end_time": 93.0272727,
                "pitch": 52,
                "velocity": 4,
                "duration": 0.2727273,
                "tempo": 120.0
            },
            {
                "start_time": 92.4840909,
                "end_time": 93.0272727,
                "pitch": 64,
                "velocity": 4,
                "duration": 0.5431818,
                "tempo": 120.0
            },
            {
                "start_time": 91.675,
                "end_time": 93.2931818,
                "pitch": 47,
                "velocity": 4,
                "duration": 1.6181818,
                "tempo": 120.0
            },
            {
                "start_time": 93.0272727,
                "end_time": 93.2931818,
                "pitch": 59,
                "velocity": 4,
                "duration": 0.2659091,
                "tempo": 120.0
            },
            {
                "start_time": 93.2931818,
                "end_time": 93.5613636,
                "pitch": 52,
                "velocity": 4,
                "duration": 0.2681818,
                "tempo": 120.0
            },
            {
                "start_time": 93.0272727,
                "end_time": 93.5613636,
                "pitch": 64,
                "velocity": 4,
                "duration": 0.5340909,
                "tempo": 120.0
            },
            {
                "start_time": 92.2159091,
                "end_time": 93.8272727,
                "pitch": 45,
                "velocity": 4,
                "duration": 1.6113636,
                "tempo": 120.0
            },
            {
                "start_time": 93.5613636,
                "end_time": 93.8272727,
                "pitch": 57,
                "velocity": 4,
                "duration": 0.2659091,
                "tempo": 120.0
            },
            {
                "start_time": 93.8272727,
                "end_time": 94.0954545,
                "pitch": 52,
                "velocity": 4,
                "duration": 0.2681818,
                "tempo": 120.0
            },
            {
                "start_time": 93.5613636,
                "end_time": 94.0954545,
                "pitch": 64,
                "velocity": 4,
                "duration": 0.5340909,
                "tempo": 120.0
            },
            {
                "start_time": 92.7545455,
                "end_time": 94.3613636,
                "pitch": 44,
                "velocity": 4,
                "duration": 1.6068182,
                "tempo": 120.0
            },
            {
                "start_time": 94.0954545,
                "end_time": 94.3613636,
                "pitch": 56,
                "velocity": 4,
                "duration": 0.2659091,
                "tempo": 120.0
            },
            {
                "start_time": 94.3613636,
                "end_time": 94.6318182,
                "pitch": 52,
                "velocity": 4,
                "duration": 0.2704545,
                "tempo": 120.0
            },
            {
                "start_time": 94.0954545,
                "end_time": 94.6318182,
                "pitch": 64,
                "velocity": 4,
                "duration": 0.5363636,
                "tempo": 120.0
            },
            {
                "start_time": 57.55,
                "end_time": 94.9022727,
                "pitch": 43,
                "velocity": 4,
                "duration": 37.3522727,
                "tempo": 120.0
            },
            {
                "start_time": 94.6318182,
                "end_time": 94.9022727,
                "pitch": 55,
                "velocity": 4,
                "duration": 0.2704545,
                "tempo": 120.0
            },
            {
                "start_time": 52.7090909,
                "end_time": 95.1727273,
                "pitch": 50,
                "velocity": 4,
                "duration": 42.4636364,
                "tempo": 120.0
            },
            {
                "start_time": 94.9022727,
                "end_time": 95.1727273,
                "pitch": 50,
                "velocity": 4,
                "duration": 0.2704545,
                "tempo": 120.0
            },
            {
                "start_time": 86.8409091,
                "end_time": 95.1727273,
                "pitch": 62,
                "velocity": 4,
                "duration": 8.3318182,
                "tempo": 120.0
            },
            {
                "start_time": 93.2931818,
                "end_time": 95.4409091,
                "pitch": 47,
                "velocity": 4,
                "duration": 2.1477273,
                "tempo": 120.0
            },
            {
                "start_time": 95.1727273,
                "end_time": 95.4409091,
                "pitch": 59,
                "velocity": 4,
                "duration": 0.2681818,
                "tempo": 120.0
            },
            {
                "start_time": 95.4409091,
                "end_time": 95.7068182,
                "pitch": 50,
                "velocity": 4,
                "duration": 0.2659091,
                "tempo": 120.0
            },
            {
                "start_time": 95.1727273,
                "end_time": 95.7068182,
                "pitch": 62,
                "velocity": 4,
                "duration": 0.5340909,
                "tempo": 120.0
            },
            {
                "start_time": 93.8272727,
                "end_time": 95.975,
                "pitch": 45,
                "velocity": 4,
                "duration": 2.1477273,
                "tempo": 120.0
            },
            {
                "start_time": 95.7068182,
                "end_time": 95.975,
                "pitch": 57,
                "velocity": 4,
                "duration": 0.2681818,
                "tempo": 120.0
            },
            {
                "start_time": 95.975,
                "end_time": 96.2431818,
                "pitch": 50,
                "velocity": 4,
                "duration": 0.2681818,
                "tempo": 120.0
            },
            {
                "start_time": 95.7068182,
                "end_time": 96.2431818,
                "pitch": 62,
                "velocity": 4,
                "duration": 0.5363636,
                "tempo": 120.0
            },
            {
                "start_time": 94.9022727,
                "end_time": 96.5136364,
                "pitch": 43,
                "velocity": 4,
                "duration": 1.6113636,
                "tempo": 120.0
            },
            {
                "start_time": 96.2431818,
                "end_time": 96.5136364,
                "pitch": 55,
                "velocity": 4,
                "duration": 0.2704545,
                "tempo": 120.0
            },
            {
                "start_time": 96.5136364,
                "end_time": 96.7886364,
                "pitch": 50,
                "velocity": 4,
                "duration": 0.275,
                "tempo": 120.0
            },
            {
                "start_time": 52.4363636,
                "end_time": 97.0545455,
                "pitch": 54,
                "velocity": 4,
                "duration": 44.6181818,
                "tempo": 120.0
            },
            {
                "start_time": 96.7886364,
                "end_time": 97.0545455,
                "pitch": 54,
                "velocity": 4,
                "duration": 0.2659091,
                "tempo": 120.0
            },
            {
                "start_time": 96.7886364,
                "end_time": 97.3204545,
                "pitch": 50,
                "velocity": 4,
                "duration": 0.5318182,
                "tempo": 120.0
            },
            {
                "start_time": 97.0545455,
                "end_time": 97.3204545,
                "pitch": 50,
                "velocity": 4,
                "duration": 0.2659091,
                "tempo": 120.0
            },
            {
                "start_time": 96.2431818,
                "end_time": 97.3204545,
                "pitch": 62,
                "velocity": 4,
                "duration": 1.0772727,
                "tempo": 120.0
            },
            {
                "start_time": 96.5136364,
                "end_time": 97.5886364,
                "pitch": 43,
                "velocity": 4,
                "duration": 1.075,
                "tempo": 120.0
            },
            {
                "start_time": 97.3204545,
                "end_time": 97.5886364,
                "pitch": 55,
                "velocity": 4,
                "duration": 0.2681818,
                "tempo": 120.0
            },
            {
                "start_time": 97.5886364,
                "end_time": 97.8545455,
                "pitch": 50,
                "velocity": 4,
                "duration": 0.2659091,
                "tempo": 120.0
            },
            {
                "start_time": 97.3204545,
                "end_time": 97.8545455,
                "pitch": 62,
                "velocity": 4,
                "duration": 0.5340909,
                "tempo": 120.0
            },
            {
                "start_time": 95.975,
                "end_time": 98.1272727,
                "pitch": 45,
                "velocity": 4,
                "duration": 2.1522727,
                "tempo": 120.0
            },
            {
                "start_time": 97.8545455,
                "end_time": 98.1272727,
                "pitch": 57,
                "velocity": 4,
                "duration": 0.2727273,
                "tempo": 120.0
            },
            {
                "start_time": 98.1272727,
                "end_time": 98.3977273,
                "pitch": 50,
                "velocity": 4,
                "duration": 0.2704545,
                "tempo": 120.0
            },
            {
                "start_time": 97.8545455,
                "end_time": 98.3977273,
                "pitch": 62,
                "velocity": 4,
                "duration": 0.5431818,
                "tempo": 120.0
            },
            {
                "start_time": 97.5886364,
                "end_time": 98.6659091,
                "pitch": 43,
                "velocity": 4,
                "duration": 1.0772727,
                "tempo": 120.0
            },
            {
                "start_time": 98.3977273,
                "end_time": 98.6659091,
                "pitch": 55,
                "velocity": 4,
                "duration": 0.2681818,
                "tempo": 120.0
            },
            {
                "start_time": 98.6659091,
                "end_time": 98.9363636,
                "pitch": 50,
                "velocity": 4,
                "duration": 0.2704545,
                "tempo": 120.0
            },
            {
                "start_time": 98.3977273,
                "end_time": 98.9363636,
                "pitch": 62,
                "velocity": 4,
                "duration": 0.5386364,
                "tempo": 120.0
            },
            {
                "start_time": 98.1272727,
                "end_time": 99.2045455,
                "pitch": 45,
                "velocity": 4,
                "duration": 1.0772727,
                "tempo": 120.0
            },
            {
                "start_time": 98.9363636,
                "end_time": 99.2045455,
                "pitch": 57,
                "velocity": 4,
                "duration": 0.2681818,
                "tempo": 120.0
            },
            {
                "start_time": 99.2045455,
                "end_time": 99.4772727,
                "pitch": 52,
                "velocity": 4,
                "duration": 0.2727273,
                "tempo": 120.0
            },
            {
                "start_time": 94.6318182,
                "end_time": 99.4772727,
                "pitch": 64,
                "velocity": 4,
                "duration": 4.8454545,
                "tempo": 120.0
            },
            {
                "start_time": 91.1363636,
                "end_time": 99.7454545,
                "pitch": 48,
                "velocity": 4,
                "duration": 8.6090909,
                "tempo": 120.0
            },
            {
                "start_time": 99.4772727,
                "end_time": 99.7454545,
                "pitch": 60,
                "velocity": 4,
                "duration": 0.2681818,
                "tempo": 120.0
            },
            {
                "start_time": 99.7454545,
                "end_time": 100.0136364,
                "pitch": 52,
                "velocity": 4,
                "duration": 0.2681818,
                "tempo": 120.0
            },
            {
                "start_time": 99.4772727,
                "end_time": 100.0136364,
                "pitch": 64,
                "velocity": 4,
                "duration": 0.5363636,
                "tempo": 120.0
            },
            {
                "start_time": 95.4409091,
                "end_time": 100.2840909,
                "pitch": 47,
                "velocity": 4,
                "duration": 4.8431818,
                "tempo": 120.0
            },
            {
                "start_time": 100.0136364,
                "end_time": 100.2840909,
                "pitch": 59,
                "velocity": 4,
                "duration": 0.2704545,
                "tempo": 120.0
            },
            {
                "start_time": 100.2840909,
                "end_time": 100.5568182,
                "pitch": 52,
                "velocity": 4,
                "duration": 0.2727273,
                "tempo": 120.0
            },
            {
                "start_time": 100.0136364,
                "end_time": 100.5568182,
                "pitch": 64,
                "velocity": 4,
                "duration": 0.5431818,
                "tempo": 120.0
            },
            {
                "start_time": 99.2045455,
                "end_time": 100.8227273,
                "pitch": 45,
                "velocity": 4,
                "duration": 1.6181818,
                "tempo": 120.0
            },
            {
                "start_time": 100.5568182,
                "end_time": 100.8227273,
                "pitch": 57,
                "velocity": 4,
                "duration": 0.2659091,
                "tempo": 120.0
            },
            {
                "start_time": 100.8227273,
                "end_time": 101.0909091,
                "pitch": 52,
                "velocity": 4,
                "duration": 0.2681818,
                "tempo": 120.0
            },
            {
                "start_time": 100.5568182,
                "end_time": 101.0909091,
                "pitch": 64,
                "velocity": 4,
                "duration": 0.5340909,
                "tempo": 120.0
            },
            {
                "start_time": 98.9363636,
                "end_time": 101.3568182,
                "pitch": 62,
                "velocity": 4,
                "duration": 2.4204545,
                "tempo": 120.0
            },
            {
                "start_time": 101.0909091,
                "end_time": 101.3568182,
                "pitch": 62,
                "velocity": 4,
                "duration": 0.2659091,
                "tempo": 120.0
            },
            {
                "start_time": 101.3568182,
                "end_time": 101.625,
                "pitch": 52,
                "velocity": 4,
                "duration": 0.2681818,
                "tempo": 120.0
            },
            {
                "start_time": 101.0909091,
                "end_time": 101.625,
                "pitch": 64,
                "velocity": 4,
                "duration": 0.5340909,
                "tempo": 120.0
            },
            {
                "start_time": 100.2840909,
                "end_time": 101.8909091,
                "pitch": 47,
                "velocity": 4,
                "duration": 1.6068182,
                "tempo": 120.0
            },
            {
                "start_time": 101.625,
                "end_time": 101.8909091,
                "pitch": 59,
                "velocity": 4,
                "duration": 0.2659091,
                "tempo": 120.0
            },
            {
                "start_time": 101.8909091,
                "end_time": 102.1590909,
                "pitch": 52,
                "velocity": 4,
                "duration": 0.2681818,
                "tempo": 120.0
            },
            {
                "start_time": 101.625,
                "end_time": 102.1590909,
                "pitch": 64,
                "velocity": 4,
                "duration": 0.5340909,
                "tempo": 120.0
            },
            {
                "start_time": 102.1590909,
                "end_time": 102.425,
                "pitch": 56,
                "velocity": 4,
                "duration": 0.2659091,
                "tempo": 120.0
            },
            {
                "start_time": 94.3613636,
                "end_time": 102.4272727,
                "pitch": 44,
                "velocity": 4,
                "duration": 8.0659091,
                "tempo": 120.0
            },
            {
                "start_time": 102.4272727,
                "end_time": 102.6931818,
                "pitch": 52,
                "velocity": 4,
                "duration": 0.2659091,
                "tempo": 120.0
            },
            {
                "start_time": 102.1590909,
                "end_time": 102.6931818,
                "pitch": 64,
                "velocity": 4,
                "duration": 0.5340909,
                "tempo": 120.0
            },
            {
                "start_time": 101.8909091,
                "end_time": 102.9659091,
                "pitch": 47,
                "velocity": 4,
                "duration": 1.075,
                "tempo": 120.0
            },
            {
                "start_time": 102.6931818,
                "end_time": 102.9659091,
                "pitch": 59,
                "velocity": 4,
                "duration": 0.2727273,
                "tempo": 120.0
            },
            {
                "start_time": 102.9659091,
                "end_time": 103.2386364,
                "pitch": 52,
                "velocity": 4,
                "duration": 0.2727273,
                "tempo": 120.0
            },
            {
                "start_time": 102.6931818,
                "end_time": 103.2386364,
                "pitch": 64,
                "velocity": 4,
                "duration": 0.5454545,
                "tempo": 120.0
            },
            {
                "start_time": 98.6659091,
                "end_time": 103.5045455,
                "pitch": 43,
                "velocity": 4,
                "duration": 4.8386364,
                "tempo": 120.0
            },
            {
                "start_time": 103.2386364,
                "end_time": 103.5045455,
                "pitch": 55,
                "velocity": 4,
                "duration": 0.2659091,
                "tempo": 120.0
            },
            {
                "start_time": 101.3568182,
                "end_time": 103.7727273,
                "pitch": 50,
                "velocity": 4,
                "duration": 2.4159091,
                "tempo": 120.0
            },
            {
                "start_time": 103.5045455,
                "end_time": 103.7727273,
                "pitch": 50,
                "velocity": 4,
                "duration": 0.2681818,
                "tempo": 120.0
            },
            {
                "start_time": 102.9659091,
                "end_time": 104.0431818,
                "pitch": 47,
                "velocity": 4,
                "duration": 1.0772727,
                "tempo": 120.0
            },
            {
                "start_time": 103.7727273,
                "end_time": 104.0431818,
                "pitch": 59,
                "velocity": 4,
                "duration": 0.2704545,
                "tempo": 120.0
            },
            {
                "start_time": 104.0431818,
                "end_time": 104.3159091,
                "pitch": 50,
                "velocity": 4,
                "duration": 0.2727273,
                "tempo": 120.0
            },
            {
                "start_time": 103.7727273,
                "end_time": 104.3159091,
                "pitch": 62,
                "velocity": 4,
                "duration": 0.5431818,
                "tempo": 120.0
            },
            {
                "start_time": 100.8227273,
                "end_time": 104.5818182,
                "pitch": 45,
                "velocity": 4,
                "duration": 3.7590909,
                "tempo": 120.0
            },
            {
                "start_time": 104.3159091,
                "end_time": 104.5818182,
                "pitch": 57,
                "velocity": 4,
                "duration": 0.2659091,
                "tempo": 120.0
            },
            {
                "start_time": 104.5818182,
                "end_time": 104.85,
                "pitch": 50,
                "velocity": 4,
                "duration": 0.2681818,
                "tempo": 120.0
            },
            {
                "start_time": 104.3159091,
                "end_time": 104.85,
                "pitch": 62,
                "velocity": 4,
                "duration": 0.5340909,
                "tempo": 120.0
            },
            {
                "start_time": 99.7454545,
                "end_time": 105.1181818,
                "pitch": 48,
                "velocity": 4,
                "duration": 5.3727273,
                "tempo": 120.0
            },
            {
                "start_time": 104.85,
                "end_time": 105.1181818,
                "pitch": 60,
                "velocity": 4,
                "duration": 0.2681818,
                "tempo": 120.0
            },
            {
                "start_time": 105.1181818,
                "end_time": 105.3863636,
                "pitch": 50,
                "velocity": 4,
                "duration": 0.2681818,
                "tempo": 120.0
            },
            {
                "start_time": 104.85,
                "end_time": 105.3863636,
                "pitch": 62,
                "velocity": 4,
                "duration": 0.5363636,
                "tempo": 120.0
            },
            {
                "start_time": 104.0431818,
                "end_time": 105.6568182,
                "pitch": 47,
                "velocity": 4,
                "duration": 1.6136364,
                "tempo": 120.0
            },
            {
                "start_time": 105.3863636,
                "end_time": 105.6568182,
                "pitch": 59,
                "velocity": 4,
                "duration": 0.2704545,
                "tempo": 120.0
            },
            {
                "start_time": 105.6568182,
                "end_time": 105.9295455,
                "pitch": 50,
                "velocity": 4,
                "duration": 0.2727273,
                "tempo": 120.0
            },
            {
                "start_time": 105.3863636,
                "end_time": 105.9295455,
                "pitch": 62,
                "velocity": 4,
                "duration": 0.5431818,
                "tempo": 120.0
            },
            {
                "start_time": 103.5045455,
                "end_time": 106.1954545,
                "pitch": 43,
                "velocity": 4,
                "duration": 2.6909091,
                "tempo": 120.0
            },
            {
                "start_time": 105.9295455,
                "end_time": 106.1954545,
                "pitch": 55,
                "velocity": 4,
                "duration": 0.2659091,
                "tempo": 120.0
            },
            {
                "start_time": 106.1954545,
                "end_time": 106.4636364,
                "pitch": 50,
                "velocity": 4,
                "duration": 0.2681818,
                "tempo": 120.0
            },
            {
                "start_time": 97.0545455,
                "end_time": 106.7295455,
                "pitch": 54,
                "velocity": 4,
                "duration": 9.675,
                "tempo": 120.0
            },
            {
                "start_time": 106.4636364,
                "end_time": 106.7295455,
                "pitch": 54,
                "velocity": 4,
                "duration": 0.2659091,
                "tempo": 120.0
            },
            {
                "start_time": 106.4636364,
                "end_time": 106.9977273,
                "pitch": 50,
                "velocity": 4,
                "duration": 0.5340909,
                "tempo": 120.0
            },
            {
                "start_time": 106.7295455,
                "end_time": 106.9977273,
                "pitch": 50,
                "velocity": 4,
                "duration": 0.2681818,
                "tempo": 120.0
            },
            {
                "start_time": 105.9295455,
                "end_time": 106.9977273,
                "pitch": 62,
                "velocity": 4,
                "duration": 1.0681818,
                "tempo": 120.0
            },
            {
                "start_time": 106.1954545,
                "end_time": 107.2681818,
                "pitch": 43,
                "velocity": 4,
                "duration": 1.0727273,
                "tempo": 120.0
            },
            {
                "start_time": 106.9977273,
                "end_time": 107.2681818,
                "pitch": 55,
                "velocity": 4,
                "duration": 0.2704545,
                "tempo": 120.0
            },
            {
                "start_time": 107.2681818,
                "end_time": 107.5431818,
                "pitch": 50,
                "velocity": 4,
                "duration": 0.275,
                "tempo": 120.0
            },
            {
                "start_time": 106.9977273,
                "end_time": 107.5431818,
                "pitch": 62,
                "velocity": 4,
                "duration": 0.5454545,
                "tempo": 120.0
            },
            {
                "start_time": 107.5431818,
                "end_time": 107.5568182,
                "pitch": 57,
                "velocity": 4,
                "duration": 0.0136364,
                "tempo": 120.0
            }
        ]
    }
}