{
    "mood": "relaxed",
    "instruments": {
        "Flute": [
            {
                "start_time": 82.5886364,
                "end_time": 82.7840909,
                "pitch": 94,
                "velocity": 51,
                "duration": 0.1954545,
                "tempo": 120.0
            },
            {
                "start_time": 82.7840909,
                "end_time": 82.9636364,
                "pitch": 96,
                "velocity": 51,
                "duration": 0.1795455,
                "tempo": 120.0
            },
            {
                "start_time": 82.9636364,
                "end_time": 85.3113636,
                "pitch": 93,
                "velocity": 51,
                "duration": 2.3477273,
                "tempo": 120.0
            },
            {
                "start_time": 85.3113636,
                "end_time": 85.5090909,
                "pitch": 88,
                "velocity": 51,
                "duration": 0.1977273,
                "tempo": 120.0
            },
            {
                "start_time": 85.5090909,
                "end_time": 85.7045455,
                "pitch": 90,
                "velocity": 51,
                "duration": 0.1954545,
                "tempo": 120.0
            },
            {
                "start_time": 85.7045455,
                "end_time": 85.9068182,
                "pitch": 91,
                "velocity": 51,
                "duration": 0.2022727,
                "tempo": 120.0
            },
            {
                "start_time": 85.9068182,
                "end_time": 86.1068182,
                "pitch": 91,
                "velocity": 51,
                "duration": 0.2,
                "tempo": 120.0
            },
            {
                "start_time": 86.1068182,
                "end_time": 88.4272727,
                "pitch": 93,
                "velocity": 51,
                "duration": 2.3204545,
                "tempo": 120.0
            },
            {
                "start_time": 82.7840909,
                "end_time": 88.6227273,
                "pitch": 94,
                "velocity": 51,
                "duration": 5.8386364,
                "tempo": 120.0
            },
            {
                "start_time": 88.4272727,
                "end_time": 88.6227273,
                "pitch": 94,
                "velocity": 51,
                "duration": 0.1954545,
                "tempo": 120.0
            },
            {
                "start_time": 82.9636364,
                "end_time": 88.8181818,
                "pitch": 96,
                "velocity": 51,
                "duration": 5.8545455,
                "tempo": 120.0
            },
            {
                "start_time": 88.6227273,
                "end_time": 88.8181818,
                "pitch": 96,
                "velocity": 51,
                "duration": 0.1954545,
                "tempo": 120.0
            },
            {
                "start_time": 88.6227273,
                "end_time": 89.0181818,
                "pitch": 94,
                "velocity": 51,
                "duration": 0.3954545,
                "tempo": 120.0
            },
            {
                "start_time": 88.8181818,
                "end_time": 89.0181818,
                "pitch": 94,
                "velocity": 51,
                "duration": 0.2,
                "tempo": 120.0
            },
            {
                "start_time": 89.0181818,
                "end_time": 89.2181818,
                "pitch": 91,
                "velocity": 51,
                "duration": 0.2,
                "tempo": 120.0
            },
            {
                "start_time": 85.3113636,
                "end_time": 91.5409091,
                "pitch": 81,
                "velocity": 51,
                "duration": 6.2295455,
                "tempo": 120.0
            },
            {
                "start_time": 89.2181818,
                "end_time": 91.5409091,
                "pitch": 91,
                "velocity": 51,
                "duration": 2.3227273,
                "tempo": 120.0
            },
            {
                "start_time": 91.5409091,
                "end_time": 91.7363636,
                "pitch": 86,
                "velocity": 51,
                "duration": 0.1954545,
                "tempo": 120.0
            },
            {
                "start_time": 85.5090909,
                "end_time": 91.9340909,
                "pitch": 88,
                "velocity": 51,
                "duration": 6.425,
                "tempo": 120.0
            },
            {
                "start_time": 91.7363636,
                "end_time": 91.9340909,
                "pitch": 88,
                "velocity": 51,
                "duration": 0.1977273,
                "tempo": 120.0
            },
            {
                "start_time": 91.9340909,
                "end_time": 92.1340909,
                "pitch": 90,
                "velocity": 51,
                "duration": 0.2,
                "tempo": 120.0
            },
            {
                "start_time": 91.7363636,
                "end_time": 92.3363636,
                "pitch": 86,
                "velocity": 51,
                "duration": 0.6,
                "tempo": 120.0
            },
            {
                "start_time": 92.1340909,
                "end_time": 92.3363636,
                "pitch": 86,
                "velocity": 51,
                "duration": 0.2022727,
                "tempo": 120.0
            },
            {
                "start_time": 91.9340909,
                "end_time": 93.4863636,
                "pitch": 88,
                "velocity": 51,
                "duration": 1.5522727,
                "tempo": 120.0
            },
            {
                "start_time": 92.3363636,
                "end_time": 93.4863636,
                "pitch": 88,
                "velocity": 51,
                "duration": 1.15,
                "tempo": 120.0
            },
            {
                "start_time": 92.1340909,
                "end_time": 93.8795455,
                "pitch": 90,
                "velocity": 51,
                "duration": 1.7454545,
                "tempo": 120.0
            },
            {
                "start_time": 93.4863636,
                "end_time": 93.8795455,
                "pitch": 90,
                "velocity": 51,
                "duration": 0.3931818,
                "tempo": 120.0
            },
            {
                "start_time": 85.7045455,
                "end_time": 93.8795455,
                "pitch": 102,
                "velocity": 51,
                "duration": 8.175,
                "tempo": 120.0
            },
            {
                "start_time": 93.8795455,
                "end_time": 94.2818182,
                "pitch": 91,
                "velocity": 51,
                "duration": 0.4022727,
                "tempo": 120.0
            },
            {
                "start_time": 93.4863636,
                "end_time": 94.6681818,
                "pitch": 88,
                "velocity": 51,
                "duration": 1.1818182,
                "tempo": 120.0
            },
            {
                "start_time": 94.2818182,
                "end_time": 94.6681818,
                "pitch": 88,
                "velocity": 51,
                "duration": 0.3863636,
                "tempo": 120.0
            },
            {
                "start_time": 89.0181818,
                "end_time": 95.05,
                "pitch": 94,
                "velocity": 51,
                "duration": 6.0318182,
                "tempo": 120.0
            },
            {
                "start_time": 94.6681818,
                "end_time": 95.05,
                "pitch": 94,
                "velocity": 51,
                "duration": 0.3818182,
                "tempo": 120.0
            },
            {
                "start_time": 95.05,
                "end_time": 95.4522727,
                "pitch": 94,
                "velocity": 51,
                "duration": 0.4022727,
                "tempo": 120.0
            },
            {
                "start_time": 95.4522727,
                "end_time": 98.5681818,
                "pitch": 93,
                "velocity": 51,
                "duration": 3.1159091,
                "tempo": 120.0
            },
            {
                "start_time": 98.5681818,
                "end_time": 99.7386364,
                "pitch": 93,
                "velocity": 51,
                "duration": 1.1704545,
                "tempo": 120.0
            },
            {
                "start_time": 88.8181818,
                "end_time": 100.1204545,
                "pitch": 96,
                "velocity": 51,
                "duration": 11.3022727,
                "tempo": 120.0
            },
            {
                "start_time": 99.7386364,
                "end_time": 100.1204545,
                "pitch": 96,
                "velocity": 51,
                "duration": 0.3818182,
                "tempo": 120.0
            },
            {
                "start_time": 100.1204545,
                "end_time": 100.5136364,
                "pitch": 96,
                "velocity": 51,
                "duration": 0.3931818,
                "tempo": 120.0
            },
            {
                "start_time": 99.7386364,
                "end_time": 100.8886364,
                "pitch": 94,
                "velocity": 51,
                "duration": 1.15,
                "tempo": 120.0
            },
            {
                "start_time": 100.5136364,
                "end_time": 100.8886364,
                "pitch": 94,
                "velocity": 51,
                "duration": 0.375,
                "tempo": 120.0
            },
            {
                "start_time": 100.8886364,
                "end_time": 101.6840909,
                "pitch": 96,
                "velocity": 51,
                "duration": 0.7954545,
                "tempo": 120.0
            },
            {
                "start_time": 94.6681818,
                "end_time": 104.4022727,
                "pitch": 100,
                "velocity": 51,
                "duration": 9.7340909,
                "tempo": 120.0
            },
            {
                "start_time": 101.6840909,
                "end_time": 104.4022727,
                "pitch": 100,
                "velocity": 51,
                "duration": 2.7181818,
                "tempo": 120.0
            },
            {
                "start_time": 91.5409091,
                "end_time": 104.7954545,
                "pitch": 81,
                "velocity": 51,
                "duration": 13.2545455,
                "tempo": 120.0
            },
            {
                "start_time": 104.4022727,
                "end_time": 104.7954545,
                "pitch": 93,
                "velocity": 51,
                "duration": 0.3931818,
                "tempo": 120.0
            },
            {
                "start_time": 92.3363636,
                "end_time": 105.7659091,
                "pitch": 86,
                "velocity": 51,
                "duration": 13.4295455,
                "tempo": 120.0
            },
            {
                "start_time": 104.7954545,
                "end_time": 105.7659091,
                "pitch": 86,
                "velocity": 51,
                "duration": 0.9704545,
                "tempo": 120.0
            },
            {
                "start_time": 105.7659091,
                "end_time": 105.9659091,
                "pitch": 88,
                "velocity": 51,
                "duration": 0.2,
                "tempo": 120.0
            },
            {
                "start_time": 105.9659091,
                "end_time": 106.15,
                "pitch": 90,
                "velocity": 51,
                "duration": 0.1840909,
                "tempo": 120.0
            },
            {
                "start_time": 93.8795455,
                "end_time": 106.15,
                "pitch": 102,
                "velocity": 51,
                "duration": 12.2704545,
                "tempo": 120.0
            },
            {
                "start_time": 106.15,
                "end_time": 106.35,
                "pitch": 91,
                "velocity": 51,
                "duration": 0.2,
                "tempo": 120.0
            },
            {
                "start_time": 104.7954545,
                "end_time": 106.7431818,
                "pitch": 81,
                "velocity": 51,
                "duration": 1.9477273,
                "tempo": 120.0
            },
            {
                "start_time": 106.35,
                "end_time": 106.7431818,
                "pitch": 91,
                "velocity": 51,
                "duration": 0.3931818,
                "tempo": 120.0
            },
            {
                "start_time": 106.7431818,
                "end_time": 107.1340909,
                "pitch": 90,
                "velocity": 51,
                "duration": 0.3909091,
                "tempo": 120.0
            },
            {
                "start_time": 106.15,
                "end_time": 107.1340909,
                "pitch": 102,
                "velocity": 51,
                "duration": 0.9840909,
                "tempo": 120.0
            },
            {
                "start_time": 107.1340909,
                "end_time": 107.5204545,
                "pitch": 95,
                "velocity": 51,
                "duration": 0.3863636,
                "tempo": 120.0
            },
            {
                "start_time": 94.2818182,
                "end_time": 107.9136364,
                "pitch": 79,
                "velocity": 51,
                "duration": 13.6318182,
                "tempo": 120.0
            },
            {
                "start_time": 107.5204545,
                "end_time": 107.9136364,
                "pitch": 91,
                "velocity": 51,
                "duration": 0.3931818,
                "tempo": 120.0
            },
            {
                "start_time": 107.9136364,
                "end_time": 109.0795455,
                "pitch": 90,
                "velocity": 51,
                "duration": 1.1659091,
                "tempo": 120.0
            },
            {
                "start_time": 107.1340909,
                "end_time": 109.0795455,
                "pitch": 102,
                "velocity": 51,
                "duration": 1.9454545,
                "tempo": 120.0
            },
            {
                "start_time": 107.9136364,
                "end_time": 109.2818182,
                "pitch": 79,
                "velocity": 51,
                "duration": 1.3681818,
                "tempo": 120.0
            },
            {
                "start_time": 109.0795455,
                "end_time": 109.2818182,
                "pitch": 91,
                "velocity": 51,
                "duration": 0.2022727,
                "tempo": 120.0
            },
            {
                "start_time": 109.2818182,
                "end_time": 109.4659091,
                "pitch": 90,
                "velocity": 51,
                "duration": 0.1840909,
                "tempo": 120.0
            },
            {
                "start_time": 105.9659091,
                "end_time": 111.0363636,
                "pitch": 88,
                "velocity": 51,
                "duration": 5.0704545,
                "tempo": 120.0
            },
            {
                "start_time": 109.4659091,
                "end_time": 111.0363636,
                "pitch": 88,
                "velocity": 51,
                "duration": 1.5704545,
                "tempo": 120.0
            },
            {
                "start_time": 105.7659091,
                "end_time": 112.0022727,
                "pitch": 86,
                "velocity": 51,
                "duration": 6.2363636,
                "tempo": 120.0
            },
            {
                "start_time": 111.0363636,
                "end_time": 112.0022727,
                "pitch": 86,
                "velocity": 51,
                "duration": 0.9659091,
                "tempo": 120.0
            },
            {
                "start_time": 111.0363636,
                "end_time": 112.1977273,
                "pitch": 88,
                "velocity": 51,
                "duration": 1.1613636,
                "tempo": 120.0
            },
            {
                "start_time": 112.0022727,
                "end_time": 112.1977273,
                "pitch": 88,
                "velocity": 51,
                "duration": 0.1954545,
                "tempo": 120.0
            },
            {
                "start_time": 109.4659091,
                "end_time": 112.4,
                "pitch": 90,
                "velocity": 51,
                "duration": 2.9340909,
                "tempo": 120.0
            },
            {
                "start_time": 112.1977273,
                "end_time": 112.4,
                "pitch": 90,
                "velocity": 51,
                "duration": 0.2022727,
                "tempo": 120.0
            },
            {
                "start_time": 109.0795455,
                "end_time": 112.4,
                "pitch": 102,
                "velocity": 51,
                "duration": 3.3204545,
                "tempo": 120.0
            },
            {
                "start_time": 112.4,
                "end_time": 112.5840909,
                "pitch": 91,
                "velocity": 51,
                "duration": 0.1840909,
                "tempo": 120.0
            },
            {
                "start_time": 106.7431818,
                "end_time": 112.975,
                "pitch": 81,
                "velocity": 51,
                "duration": 6.2318182,
                "tempo": 120.0
            },
            {
                "start_time": 112.5840909,
                "end_time": 112.975,
                "pitch": 91,
                "velocity": 51,
                "duration": 0.3909091,
                "tempo": 120.0
            },
            {
                "start_time": 112.975,
                "end_time": 113.375,
                "pitch": 90,
                "velocity": 51,
                "duration": 0.4,
                "tempo": 120.0
            },
            {
                "start_time": 112.4,
                "end_time": 113.375,
                "pitch": 102,
                "velocity": 51,
                "duration": 0.975,
                "tempo": 120.0
            },
            {
                "start_time": 107.5204545,
                "end_time": 113.7613636,
                "pitch": 95,
                "velocity": 51,
                "duration": 6.2409091,
                "tempo": 120.0
            },
            {
                "start_time": 113.375,
                "end_time": 113.7613636,
                "pitch": 95,
                "velocity": 51,
                "duration": 0.3863636,
                "tempo": 120.0
            },
            {
                "start_time": 113.7613636,
                "end_time": 114.1431818,
                "pitch": 91,
                "velocity": 51,
                "duration": 0.3818182,
                "tempo": 120.0
            },
            {
                "start_time": 114.1431818,
                "end_time": 114.9227273,
                "pitch": 91,
                "velocity": 51,
                "duration": 0.7795455,
                "tempo": 120.0
            },
            {
                "start_time": 114.9227273,
                "end_time": 115.3136364,
                "pitch": 93,
                "velocity": 51,
                "duration": 0.3909091,
                "tempo": 120.0
            },
            {
                "start_time": 115.3136364,
                "end_time": 115.6977273,
                "pitch": 90,
                "velocity": 51,
                "duration": 0.3840909,
                "tempo": 120.0
            },
            {
                "start_time": 113.375,
                "end_time": 115.6977273,
                "pitch": 102,
                "velocity": 51,
                "duration": 2.3227273,
                "tempo": 120.0
            },
            {
                "start_time": 109.2818182,
                "end_time": 116.4795455,
                "pitch": 79,
                "velocity": 51,
                "duration": 7.1977273,
                "tempo": 120.0
            },
            {
                "start_time": 115.6977273,
                "end_time": 116.4795455,
                "pitch": 91,
                "velocity": 51,
                "duration": 0.7818182,
                "tempo": 120.0
            },
            {
                "start_time": 112.1977273,
                "end_time": 117.2568182,
                "pitch": 88,
                "velocity": 51,
                "duration": 5.0590909,
                "tempo": 120.0
            },
            {
                "start_time": 116.4795455,
                "end_time": 117.2568182,
                "pitch": 88,
                "velocity": 51,
                "duration": 0.7772727,
                "tempo": 120.0
            },
            {
                "start_time": 112.0022727,
                "end_time": 118.425,
                "pitch": 86,
                "velocity": 51,
                "duration": 6.4227273,
                "tempo": 120.0
            },
            {
                "start_time": 117.2568182,
                "end_time": 118.425,
                "pitch": 86,
                "velocity": 51,
                "duration": 1.1681818,
                "tempo": 120.0
            },
            {
                "start_time": 100.5136364,
                "end_time": 118.425,
                "pitch": 98,
                "velocity": 51,
                "duration": 17.9113636,
                "tempo": 120.0
            },
            {
                "start_time": 118.425,
                "end_time": 118.6272727,
                "pitch": 93,
                "velocity": 51,
                "duration": 0.2022727,
                "tempo": 120.0
            },
            {
                "start_time": 116.4795455,
                "end_time": 118.8113636,
                "pitch": 79,
                "velocity": 51,
                "duration": 2.3318182,
                "tempo": 120.0
            },
            {
                "start_time": 118.6272727,
                "end_time": 118.8113636,
                "pitch": 93,
                "velocity": 51,
                "duration": 0.1840909,
                "tempo": 120.0
            },
            {
                "start_time": 117.2568182,
                "end_time": 119.9772727,
                "pitch": 88,
                "velocity": 51,
                "duration": 2.7204545,
                "tempo": 120.0
            },
            {
                "start_time": 118.8113636,
                "end_time": 119.9772727,
                "pitch": 88,
                "velocity": 51,
                "duration": 1.1659091,
                "tempo": 120.0
            },
            {
                "start_time": 104.4022727,
                "end_time": 119.9772727,
                "pitch": 100,
                "velocity": 51,
                "duration": 15.575,
                "tempo": 120.0
            },
            {
                "start_time": 119.9772727,
                "end_time": 120.1727273,
                "pitch": 93,
                "velocity": 51,
                "duration": 0.1954545,
                "tempo": 120.0
            },
            {
                "start_time": 118.8113636,
                "end_time": 120.3704545,
                "pitch": 79,
                "velocity": 51,
                "duration": 1.5590909,
                "tempo": 120.0
            },
            {
                "start_time": 120.1727273,
                "end_time": 120.3704545,
                "pitch": 93,
                "velocity": 51,
                "duration": 0.1977273,
                "tempo": 120.0
            },
            {
                "start_time": 120.3704545,
                "end_time": 121.55,
                "pitch": 86,
                "velocity": 51,
                "duration": 1.1795455,
                "tempo": 120.0
            },
            {
                "start_time": 118.425,
                "end_time": 121.55,
                "pitch": 98,
                "velocity": 51,
                "duration": 3.125,
                "tempo": 120.0
            },
            {
                "start_time": 113.7613636,
                "end_time": 121.7454545,
                "pitch": 95,
                "velocity": 51,
                "duration": 7.9840909,
                "tempo": 120.0
            },
            {
                "start_time": 121.55,
                "end_time": 121.7454545,
                "pitch": 95,
                "velocity": 51,
                "duration": 0.1954545,
                "tempo": 120.0
            },
            {
                "start_time": 120.3704545,
                "end_time": 121.9431818,
                "pitch": 79,
                "velocity": 51,
                "duration": 1.5727273,
                "tempo": 120.0
            },
            {
                "start_time": 121.7454545,
                "end_time": 121.9431818,
                "pitch": 91,
                "velocity": 51,
                "duration": 0.1977273,
                "tempo": 120.0
            },
            {
                "start_time": 121.9431818,
                "end_time": 123.1068182,
                "pitch": 88,
                "velocity": 51,
                "duration": 1.1636364,
                "tempo": 120.0
            },
            {
                "start_time": 119.9772727,
                "end_time": 123.1068182,
                "pitch": 100,
                "velocity": 51,
                "duration": 3.1295455,
                "tempo": 120.0
            },
            {
                "start_time": 123.1068182,
                "end_time": 123.2977273,
                "pitch": 93,
                "velocity": 51,
                "duration": 0.1909091,
                "tempo": 120.0
            },
            {
                "start_time": 121.9431818,
                "end_time": 123.4886364,
                "pitch": 79,
                "velocity": 51,
                "duration": 1.5454545,
                "tempo": 120.0
            },
            {
                "start_time": 123.2977273,
                "end_time": 123.4886364,
                "pitch": 93,
                "velocity": 51,
                "duration": 0.1909091,
                "tempo": 120.0
            },
            {
                "start_time": 123.4886364,
                "end_time": 123.8909091,
                "pitch": 86,
                "velocity": 51,
                "duration": 0.4022727,
                "tempo": 120.0
            },
            {
                "start_time": 123.8909091,
                "end_time": 124.0909091,
                "pitch": 90,
                "velocity": 51,
                "duration": 0.2,
                "tempo": 120.0
            },
            {
                "start_time": 115.6977273,
                "end_time": 124.0909091,
                "pitch": 102,
                "velocity": 51,
                "duration": 8.3931818,
                "tempo": 120.0
            },
            {
                "start_time": 123.4886364,
                "end_time": 124.275,
                "pitch": 79,
                "velocity": 51,
                "duration": 0.7863636,
                "tempo": 120.0
            },
            {
                "start_time": 124.0909091,
                "end_time": 124.275,
                "pitch": 91,
                "velocity": 51,
                "duration": 0.1840909,
                "tempo": 120.0
            },
            {
                "start_time": 124.275,
                "end_time": 124.6681818,
                "pitch": 88,
                "velocity": 51,
                "duration": 0.3931818,
                "tempo": 120.0
            },
            {
                "start_time": 123.1068182,
                "end_time": 124.6681818,
                "pitch": 100,
                "velocity": 51,
                "duration": 1.5613636,
                "tempo": 120.0
            },
            {
                "start_time": 124.6681818,
                "end_time": 124.8681818,
                "pitch": 93,
                "velocity": 51,
                "duration": 0.2,
                "tempo": 120.0
            },
            {
                "start_time": 124.275,
                "end_time": 125.0704545,
                "pitch": 79,
                "velocity": 51,
                "duration": 0.7954545,
                "tempo": 120.0
            },
            {
                "start_time": 124.8681818,
                "end_time": 125.0704545,
                "pitch": 93,
                "velocity": 51,
                "duration": 0.2022727,
                "tempo": 120.0
            },
            {
                "start_time": 123.8909091,
                "end_time": 125.4454545,
                "pitch": 86,
                "velocity": 51,
                "duration": 1.5545455,
                "tempo": 120.0
            },
            {
                "start_time": 125.0704545,
                "end_time": 125.4454545,
                "pitch": 86,
                "velocity": 51,
                "duration": 0.375,
                "tempo": 120.0
            },
            {
                "start_time": 125.4454545,
                "end_time": 125.6409091,
                "pitch": 90,
                "velocity": 51,
                "duration": 0.1954545,
                "tempo": 120.0
            },
            {
                "start_time": 124.0909091,
                "end_time": 125.6409091,
                "pitch": 102,
                "velocity": 51,
                "duration": 1.55,
                "tempo": 120.0
            },
            {
                "start_time": 125.0704545,
                "end_time": 125.8386364,
                "pitch": 79,
                "velocity": 51,
                "duration": 0.7681818,
                "tempo": 120.0
            },
            {
                "start_time": 125.6409091,
                "end_time": 125.8386364,
                "pitch": 91,
                "velocity": 51,
                "duration": 0.1977273,
                "tempo": 120.0
            },
            {
                "start_time": 125.8386364,
                "end_time": 126.2136364,
                "pitch": 88,
                "velocity": 51,
                "duration": 0.375,
                "tempo": 120.0
            },
            {
                "start_time": 124.6681818,
                "end_time": 126.2136364,
                "pitch": 100,
                "velocity": 51,
                "duration": 1.5454545,
                "tempo": 120.0
            },
            {
                "start_time": 126.2136364,
                "end_time": 126.4136364,
                "pitch": 93,
                "velocity": 51,
                "duration": 0.2,
                "tempo": 120.0
            },
            {
                "start_time": 125.8386364,
                "end_time": 126.6136364,
                "pitch": 79,
                "velocity": 51,
                "duration": 0.775,
                "tempo": 120.0
            },
            {
                "start_time": 126.4136364,
                "end_time": 126.6136364,
                "pitch": 93,
                "velocity": 51,
                "duration": 0.2,
                "tempo": 120.0
            },
            {
                "start_time": 125.4454545,
                "end_time": 127.0045455,
                "pitch": 86,
                "velocity": 51,
                "duration": 1.5590909,
                "tempo": 120.0
            },
            {
                "start_time": 126.6136364,
                "end_time": 127.0045455,
                "pitch": 86,
                "velocity": 51,
                "duration": 0.3909091,
                "tempo": 120.0
            },
            {
                "start_time": 127.0045455,
                "end_time": 127.2068182,
                "pitch": 90,
                "velocity": 51,
                "duration": 0.2022727,
                "tempo": 120.0
            },
            {
                "start_time": 125.6409091,
                "end_time": 127.2068182,
                "pitch": 102,
                "velocity": 51,
                "duration": 1.5659091,
                "tempo": 120.0
            },
            {
                "start_time": 127.2068182,
                "end_time": 127.3909091,
                "pitch": 91,
                "velocity": 51,
                "duration": 0.1840909,
                "tempo": 120.0
            },
            {
                "start_time": 127.3909091,
                "end_time": 127.7727273,
                "pitch": 91,
                "velocity": 51,
                "duration": 0.3818182,
                "tempo": 120.0
            },
            {
                "start_time": 127.7727273,
                "end_time": 127.975,
                "pitch": 93,
                "velocity": 51,
                "duration": 0.2022727,
                "tempo": 120.0
            },
            {
                "start_time": 121.7454545,
                "end_time": 127.975,
                "pitch": 95,
                "velocity": 51,
                "duration": 6.2295455,
                "tempo": 120.0
            },
            {
                "start_time": 127.975,
                "end_time": 128.1772727,
                "pitch": 97,
                "velocity": 51,
                "duration": 0.2022727,
                "tempo": 120.0
            },
            {
                "start_time": 128.1772727,
                "end_time": 128.5704545,
                "pitch": 85,
                "velocity": 51,
                "duration": 0.3931818,
                "tempo": 120.0
            },
            {
                "start_time": 127.0045455,
                "end_time": 128.5704545,
                "pitch": 86,
                "velocity": 51,
                "duration": 1.5659091,
                "tempo": 120.0
            },
            {
                "start_time": 128.5704545,
                "end_time": 128.7613636,
                "pitch": 90,
                "velocity": 51,
                "duration": 0.1909091,
                "tempo": 120.0
            },
            {
                "start_time": 127.2068182,
                "end_time": 128.7613636,
                "pitch": 102,
                "velocity": 51,
                "duration": 1.5545455,
                "tempo": 120.0
            },
            {
                "start_time": 128.7613636,
                "end_time": 128.9522727,
                "pitch": 91,
                "velocity": 51,
                "duration": 0.1909091,
                "tempo": 120.0
            },
            {
                "start_time": 128.9522727,
                "end_time": 129.1477273,
                "pitch": 91,
                "velocity": 51,
                "duration": 0.1954545,
                "tempo": 120.0
            },
            {
                "start_time": 129.1477273,
                "end_time": 129.3454545,
                "pitch": 93,
                "velocity": 51,
                "duration": 0.1977273,
                "tempo": 120.0
            },
            {
                "start_time": 127.975,
                "end_time": 129.3454545,
                "pitch": 95,
                "velocity": 51,
                "duration": 1.3704545,
                "tempo": 120.0
            },
            {
                "start_time": 129.3454545,
                "end_time": 129.7386364,
                "pitch": 97,
                "velocity": 51,
                "duration": 0.3931818,
                "tempo": 120.0
            },
            {
                "start_time": 129.7386364,
                "end_time": 130.1318182,
                "pitch": 85,
                "velocity": 51,
                "duration": 0.3931818,
                "tempo": 120.0
            },
            {
                "start_time": 128.5704545,
                "end_time": 130.1318182,
                "pitch": 86,
                "velocity": 51,
                "duration": 1.5613636,
                "tempo": 120.0
            },
            {
                "start_time": 130.1318182,
                "end_time": 130.3272727,
                "pitch": 90,
                "velocity": 51,
                "duration": 0.1954545,
                "tempo": 120.0
            },
            {
                "start_time": 128.7613636,
                "end_time": 130.3272727,
                "pitch": 102,
                "velocity": 51,
                "duration": 1.5659091,
                "tempo": 120.0
            },
            {
                "start_time": 130.3272727,
                "end_time": 130.5068182,
                "pitch": 91,
                "velocity": 51,
                "duration": 0.1795455,
                "tempo": 120.0
            },
            {
                "start_time": 130.5068182,
                "end_time": 130.8886364,
                "pitch": 91,
                "velocity": 51,
                "duration": 0.3818182,
                "tempo": 120.0
            },
            {
                "start_time": 130.8886364,
                "end_time": 131.0886364,
                "pitch": 93,
                "velocity": 51,
                "duration": 0.2,
                "tempo": 120.0
            },
            {
                "start_time": 129.3454545,
                "end_time": 131.0886364,
                "pitch": 95,
                "velocity": 51,
                "duration": 1.7431818,
                "tempo": 120.0
            },
            {
                "start_time": 131.0886364,
                "end_time": 131.2886364,
                "pitch": 97,
                "velocity": 51,
                "duration": 0.2,
                "tempo": 120.0
            },
            {
                "start_time": 131.2886364,
                "end_time": 131.675,
                "pitch": 85,
                "velocity": 51,
                "duration": 0.3863636,
                "tempo": 120.0
            },
            {
                "start_time": 130.1318182,
                "end_time": 131.675,
                "pitch": 86,
                "velocity": 51,
                "duration": 1.5431818,
                "tempo": 120.0
            },
            {
                "start_time": 131.675,
                "end_time": 131.8704545,
                "pitch": 90,
                "velocity": 51,
                "duration": 0.1954545,
                "tempo": 120.0
            },
            {
                "start_time": 130.3272727,
                "end_time": 131.8704545,
                "pitch": 102,
                "velocity": 51,
                "duration": 1.5431818,
                "tempo": 120.0
            },
            {
                "start_time": 131.8704545,
                "end_time": 132.0681818,
                "pitch": 91,
                "velocity": 51,
                "duration": 0.1977273,
                "tempo": 120.0
            },
            {
                "start_time": 132.0681818,
                "end_time": 132.2636364,
                "pitch": 91,
                "velocity": 51,
                "duration": 0.1954545,
                "tempo": 120.0
            },
            {
                "start_time": 132.2636364,
                "end_time": 132.4590909,
                "pitch": 93,
                "velocity": 51,
                "duration": 0.1954545,
                "tempo": 120.0
            },
            {
                "start_time": 131.0886364,
                "end_time": 132.4590909,
                "pitch": 95,
                "velocity": 51,
                "duration": 1.3704545,
                "tempo": 120.0
            },
            {
                "start_time": 132.4590909,
                "end_time": 132.8431818,
                "pitch": 97,
                "velocity": 51,
                "duration": 0.3840909,
                "tempo": 120.0
            },
            {
                "start_time": 132.8431818,
                "end_time": 133.2340909,
                "pitch": 97,
                "velocity": 51,
                "duration": 0.3909091,
                "tempo": 120.0
            },
            {
                "start_time": 121.55,
                "end_time": 133.2340909,
                "pitch": 98,
                "velocity": 51,
                "duration": 11.6840909,
                "tempo": 120.0
            },
            {
                "start_time": 133.2340909,
                "end_time": 133.4363636,
                "pitch": 93,
                "velocity": 51,
                "duration": 0.2022727,
                "tempo": 120.0
            },
            {
                "start_time": 133.4363636,
                "end_time": 133.6204545,
                "pitch": 93,
                "velocity": 51,
                "duration": 0.1840909,
                "tempo": 120.0
            },
            {
                "start_time": 132.4590909,
                "end_time": 133.6204545,
                "pitch": 95,
                "velocity": 51,
                "duration": 1.1613636,
                "tempo": 120.0
            },
            {
                "start_time": 133.6204545,
                "end_time": 134.0022727,
                "pitch": 91,
                "velocity": 51,
                "duration": 0.3818182,
                "tempo": 120.0
            },
            {
                "start_time": 112.975,
                "end_time": 134.2045455,
                "pitch": 81,
                "velocity": 51,
                "duration": 21.2295455,
                "tempo": 120.0
            },
            {
                "start_time": 134.0022727,
                "end_time": 134.2045455,
                "pitch": 91,
                "velocity": 51,
                "duration": 0.2022727,
                "tempo": 120.0
            },
            {
                "start_time": 134.2045455,
                "end_time": 134.4068182,
                "pitch": 90,
                "velocity": 51,
                "duration": 0.2022727,
                "tempo": 120.0
            },
            {
                "start_time": 131.8704545,
                "end_time": 134.4068182,
                "pitch": 102,
                "velocity": 51,
                "duration": 2.5363636,
                "tempo": 120.0
            },
            {
                "start_time": 134.4068182,
                "end_time": 134.7886364,
                "pitch": 91,
                "velocity": 51,
                "duration": 0.3818182,
                "tempo": 120.0
            },
            {
                "start_time": 134.2045455,
                "end_time": 134.9840909,
                "pitch": 81,
                "velocity": 51,
                "duration": 0.7795455,
                "tempo": 120.0
            },
            {
                "start_time": 134.7886364,
                "end_time": 134.9840909,
                "pitch": 91,
                "velocity": 51,
                "duration": 0.1954545,
                "tempo": 120.0
            },
            {
                "start_time": 134.9840909,
                "end_time": 135.1818182,
                "pitch": 90,
                "velocity": 51,
                "duration": 0.1977273,
                "tempo": 120.0
            },
            {
                "start_time": 131.675,
                "end_time": 135.9590909,
                "pitch": 86,
                "velocity": 51,
                "duration": 4.2840909,
                "tempo": 120.0
            },
            {
                "start_time": 135.1818182,
                "end_time": 135.9590909,
                "pitch": 86,
                "velocity": 51,
                "duration": 0.7772727,
                "tempo": 120.0
            },
            {
                "start_time": 133.2340909,
                "end_time": 135.9590909,
                "pitch": 98,
                "velocity": 51,
                "duration": 2.725,
                "tempo": 120.0
            },
            {
                "start_time": 126.6136364,
                "end_time": 136.3522727,
                "pitch": 79,
                "velocity": 51,
                "duration": 9.7386364,
                "tempo": 120.0
            },
            {
                "start_time": 135.9590909,
                "end_time": 136.3522727,
                "pitch": 91,
                "velocity": 51,
                "duration": 0.3931818,
                "tempo": 120.0
            },
            {
                "start_time": 136.3522727,
                "end_time": 136.5522727,
                "pitch": 88,
                "velocity": 51,
                "duration": 0.2,
                "tempo": 120.0
            },
            {
                "start_time": 136.5522727,
                "end_time": 136.7545455,
                "pitch": 85,
                "velocity": 51,
                "duration": 0.2022727,
                "tempo": 120.0
            },
            {
                "start_time": 136.7545455,
                "end_time": 137.1386364,
                "pitch": 85,
                "velocity": 51,
                "duration": 0.3840909,
                "tempo": 120.0
            },
            {
                "start_time": 136.5522727,
                "end_time": 137.3340909,
                "pitch": 88,
                "velocity": 51,
                "duration": 0.7818182,
                "tempo": 120.0
            },
            {
                "start_time": 137.1386364,
                "end_time": 137.3340909,
                "pitch": 88,
                "velocity": 51,
                "duration": 0.1954545,
                "tempo": 120.0
            },
            {
                "start_time": 137.1386364,
                "end_time": 137.5295455,
                "pitch": 85,
                "velocity": 51,
                "duration": 0.3909091,
                "tempo": 120.0
            },
            {
                "start_time": 137.3340909,
                "end_time": 137.5295455,
                "pitch": 85,
                "velocity": 51,
                "duration": 0.1954545,
                "tempo": 120.0
            },
            {
                "start_time": 137.5295455,
                "end_time": 137.9068182,
                "pitch": 85,
                "velocity": 51,
                "duration": 0.3772727,
                "tempo": 120.0
            },
            {
                "start_time": 135.1818182,
                "end_time": 138.1022727,
                "pitch": 90,
                "velocity": 51,
                "duration": 2.9204545,
                "tempo": 120.0
            },
            {
                "start_time": 137.9068182,
                "end_time": 138.1022727,
                "pitch": 90,
                "velocity": 51,
                "duration": 0.1954545,
                "tempo": 120.0
            },
            {
                "start_time": 137.9068182,
                "end_time": 138.2977273,
                "pitch": 86,
                "velocity": 51,
                "duration": 0.3909091,
                "tempo": 120.0
            },
            {
                "start_time": 138.1022727,
                "end_time": 138.2977273,
                "pitch": 86,
                "velocity": 51,
                "duration": 0.1954545,
                "tempo": 120.0
            },
            {
                "start_time": 115.3136364,
                "end_time": 138.4931818,
                "pitch": 83,
                "velocity": 51,
                "duration": 23.1795455,
                "tempo": 120.0
            },
            {
                "start_time": 138.2977273,
                "end_time": 138.4931818,
                "pitch": 83,
                "velocity": 51,
                "duration": 0.1954545,
                "tempo": 120.0
            },
            {
                "start_time": 138.4931818,
                "end_time": 138.6909091,
                "pitch": 85,
                "velocity": 51,
                "duration": 0.1977273,
                "tempo": 120.0
            },
            {
                "start_time": 138.6909091,
                "end_time": 138.8772727,
                "pitch": 85,
                "velocity": 51,
                "duration": 0.1863636,
                "tempo": 120.0
            },
            {
                "start_time": 138.2977273,
                "end_time": 138.8772727,
                "pitch": 86,
                "velocity": 51,
                "duration": 0.5795455,
                "tempo": 120.0
            },
            {
                "start_time": 137.3340909,
                "end_time": 139.0840909,
                "pitch": 88,
                "velocity": 51,
                "duration": 1.75,
                "tempo": 120.0
            },
            {
                "start_time": 138.8772727,
                "end_time": 139.0840909,
                "pitch": 88,
                "velocity": 51,
                "duration": 0.2068182,
                "tempo": 120.0
            },
            {
                "start_time": 138.8772727,
                "end_time": 139.275,
                "pitch": 86,
                "velocity": 51,
                "duration": 0.3977273,
                "tempo": 120.0
            },
            {
                "start_time": 139.0840909,
                "end_time": 139.275,
                "pitch": 86,
                "velocity": 51,
                "duration": 0.1909091,
                "tempo": 120.0
            },
            {
                "start_time": 138.1022727,
                "end_time": 139.4659091,
                "pitch": 90,
                "velocity": 51,
                "duration": 1.3636364,
                "tempo": 120.0
            },
            {
                "start_time": 139.275,
                "end_time": 139.4659091,
                "pitch": 90,
                "velocity": 51,
                "duration": 0.1909091,
                "tempo": 120.0
            },
            {
                "start_time": 134.4068182,
                "end_time": 139.4659091,
                "pitch": 102,
                "velocity": 51,
                "duration": 5.0590909,
                "tempo": 120.0
            },
            {
                "start_time": 133.6204545,
                "end_time": 139.6659091,
                "pitch": 95,
                "velocity": 51,
                "duration": 6.0454545,
                "tempo": 120.0
            },
            {
                "start_time": 139.4659091,
                "end_time": 139.6659091,
                "pitch": 95,
                "velocity": 51,
                "duration": 0.2,
                "tempo": 120.0
            },
            {
                "start_time": 136.3522727,
                "end_time": 139.8659091,
                "pitch": 79,
                "velocity": 51,
                "duration": 3.5136364,
                "tempo": 120.0
            },
            {
                "start_time": 139.6659091,
                "end_time": 139.8659091,
                "pitch": 91,
                "velocity": 51,
                "duration": 0.2,
                "tempo": 120.0
            },
            {
                "start_time": 139.0840909,
                "end_time": 140.05,
                "pitch": 88,
                "velocity": 51,
                "duration": 0.9659091,
                "tempo": 120.0
            },
            {
                "start_time": 139.8659091,
                "end_time": 140.05,
                "pitch": 88,
                "velocity": 51,
                "duration": 0.1840909,
                "tempo": 120.0
            },
            {
                "start_time": 126.2136364,
                "end_time": 140.05,
                "pitch": 100,
                "velocity": 51,
                "duration": 13.8363636,
                "tempo": 120.0
            },
            {
                "start_time": 140.05,
                "end_time": 140.2522727,
                "pitch": 93,
                "velocity": 51,
                "duration": 0.2022727,
                "tempo": 120.0
            },
            {
                "start_time": 140.2522727,
                "end_time": 140.4431818,
                "pitch": 97,
                "velocity": 51,
                "duration": 0.1909091,
                "tempo": 120.0
            },
            {
                "start_time": 140.2522727,
                "end_time": 140.6340909,
                "pitch": 93,
                "velocity": 51,
                "duration": 0.3818182,
                "tempo": 120.0
            },
            {
                "start_time": 140.4431818,
                "end_time": 140.6340909,
                "pitch": 93,
                "velocity": 51,
                "duration": 0.1909091,
                "tempo": 120.0
            },
            {
                "start_time": 140.6340909,
                "end_time": 140.8340909,
                "pitch": 93,
                "velocity": 51,
                "duration": 0.2,
                "tempo": 120.0
            },
            {
                "start_time": 139.6659091,
                "end_time": 140.8340909,
                "pitch": 95,
                "velocity": 51,
                "duration": 1.1681818,
                "tempo": 120.0
            },
            {
                "start_time": 140.8340909,
                "end_time": 141.0204545,
                "pitch": 91,
                "velocity": 51,
                "duration": 0.1863636,
                "tempo": 120.0
            },
            {
                "start_time": 140.4431818,
                "end_time": 141.2113636,
                "pitch": 97,
                "velocity": 51,
                "duration": 0.7681818,
                "tempo": 120.0
            },
            {
                "start_time": 141.0204545,
                "end_time": 141.2113636,
                "pitch": 97,
                "velocity": 51,
                "duration": 0.1909091,
                "tempo": 120.0
            },
            {
                "start_time": 141.2113636,
                "end_time": 141.4022727,
                "pitch": 93,
                "velocity": 51,
                "duration": 0.1909091,
                "tempo": 120.0
            },
            {
                "start_time": 141.2113636,
                "end_time": 141.6045455,
                "pitch": 97,
                "velocity": 51,
                "duration": 0.3931818,
                "tempo": 120.0
            },
            {
                "start_time": 141.4022727,
                "end_time": 141.6045455,
                "pitch": 97,
                "velocity": 51,
                "duration": 0.2022727,
                "tempo": 120.0
            },
            {
                "start_time": 140.05,
                "end_time": 141.8045455,
                "pitch": 100,
                "velocity": 51,
                "duration": 1.7545455,
                "tempo": 120.0
            },
            {
                "start_time": 141.6045455,
                "end_time": 141.8045455,
                "pitch": 100,
                "velocity": 51,
                "duration": 0.2,
                "tempo": 120.0
            },
            {
                "start_time": 139.4659091,
                "end_time": 142.0090909,
                "pitch": 102,
                "velocity": 51,
                "duration": 2.5431818,
                "tempo": 120.0
            },
            {
                "start_time": 141.8045455,
                "end_time": 142.0090909,
                "pitch": 102,
                "velocity": 51,
                "duration": 0.2045455,
                "tempo": 120.0
            },
            {
                "start_time": 135.9590909,
                "end_time": 142.1977273,
                "pitch": 98,
                "velocity": 51,
                "duration": 6.2386364,
                "tempo": 120.0
            },
            {
                "start_time": 142.0090909,
                "end_time": 142.1977273,
                "pitch": 98,
                "velocity": 51,
                "duration": 0.1886364,
                "tempo": 120.0
            },
            {
                "start_time": 139.275,
                "end_time": 145.3068182,
                "pitch": 86,
                "velocity": 51,
                "duration": 6.0318182,
                "tempo": 120.0
            },
            {
                "start_time": 142.1977273,
                "end_time": 145.3068182,
                "pitch": 98,
                "velocity": 51,
                "duration": 3.1090909,
                "tempo": 120.0
            },
            {
                "start_time": 134.9840909,
                "end_time": 145.8931818,
                "pitch": 81,
                "velocity": 51,
                "duration": 10.9090909,
                "tempo": 120.0
            },
            {
                "start_time": 145.3068182,
                "end_time": 145.8931818,
                "pitch": 81,
                "velocity": 51,
                "duration": 0.5863636,
                "tempo": 120.0
            },
            {
                "start_time": 145.3068182,
                "end_time": 146.0886364,
                "pitch": 86,
                "velocity": 51,
                "duration": 0.7818182,
                "tempo": 120.0
            },
            {
                "start_time": 145.8931818,
                "end_time": 146.0886364,
                "pitch": 86,
                "velocity": 51,
                "duration": 0.1954545,
                "tempo": 120.0
            },
            {
                "start_time": 146.0886364,
                "end_time": 146.2772727,
                "pitch": 88,
                "velocity": 51,
                "duration": 0.1886364,
                "tempo": 120.0
            },
            {
                "start_time": 141.8045455,
                "end_time": 146.2772727,
                "pitch": 100,
                "velocity": 51,
                "duration": 4.4727273,
                "tempo": 120.0
            },
            {
                "start_time": 141.0204545,
                "end_time": 146.4840909,
                "pitch": 91,
                "velocity": 51,
                "duration": 5.4636364,
                "tempo": 120.0
            },
            {
                "start_time": 146.2772727,
                "end_time": 146.4840909,
                "pitch": 91,
                "velocity": 51,
                "duration": 0.2068182,
                "tempo": 120.0
            },
            {
                "start_time": 146.4840909,
                "end_time": 148.4090909,
                "pitch": 91,
                "velocity": 51,
                "duration": 1.925,
                "tempo": 120.0
            },
            {
                "start_time": 145.8931818,
                "end_time": 148.4204545,
                "pitch": 81,
                "velocity": 51,
                "duration": 2.5272727,
                "tempo": 120.0
            },
            {
                "start_time": 148.4090909,
                "end_time": 148.4204545,
                "pitch": 81,
                "velocity": 51,
                "duration": 0.0113636,
                "tempo": 120.0
            }
        ],
        "Acoustic Grand Piano": [
            {
                "start_time": 79.0840909,
                "end_time": 79.2795455,
                "pitch": 66,
                "velocity": 20,
                "duration": 0.1954545,
                "tempo": 120.0
            },
            {
                "start_time": 79.2795455,
                "end_time": 79.475,
                "pitch": 67,
                "velocity": 20,
                "duration": 0.1954545,
                "tempo": 120.0
            },
            {
                "start_time": 79.475,
                "end_time": 79.675,
                "pitch": 67,
                "velocity": 20,
                "duration": 0.2,
                "tempo": 120.0
            },
            {
                "start_time": 79.675,
                "end_time": 79.8590909,
                "pitch": 69,
                "velocity": 20,
                "duration": 0.1840909,
                "tempo": 120.0
            },
            {
                "start_time": 79.8590909,
                "end_time": 82.1954545,
                "pitch": 74,
                "velocity": 20,
                "duration": 2.3363636,
                "tempo": 120.0
            },
            {
                "start_time": 82.1954545,
                "end_time": 82.5886364,
                "pitch": 74,
                "velocity": 20,
                "duration": 0.3931818,
                "tempo": 120.0
            },
            {
                "start_time": 79.8590909,
                "end_time": 82.7840909,
                "pitch": 70,
                "velocity": 20,
                "duration": 2.925,
                "tempo": 120.0
            },
            {
                "start_time": 82.5886364,
                "end_time": 82.7840909,
                "pitch": 70,
                "velocity": 20,
                "duration": 0.1954545,
                "tempo": 120.0
            },
            {
                "start_time": 82.5886364,
                "end_time": 82.9636364,
                "pitch": 72,
                "velocity": 20,
                "duration": 0.375,
                "tempo": 120.0
            },
            {
                "start_time": 82.7840909,
                "end_time": 82.9636364,
                "pitch": 72,
                "velocity": 20,
                "duration": 0.1795455,
                "tempo": 120.0
            },
            {
                "start_time": 82.9636364,
                "end_time": 85.3113636,
                "pitch": 69,
                "velocity": 20,
                "duration": 2.3477273,
                "tempo": 120.0
            },
            {
                "start_time": 85.3113636,
                "end_time": 85.5090909,
                "pitch": 64,
                "velocity": 20,
                "duration": 0.1977273,
                "tempo": 120.0
            },
            {
                "start_time": 85.5090909,
                "end_time": 85.7045455,
                "pitch": 66,
                "velocity": 20,
                "duration": 0.1954545,
                "tempo": 120.0
            },
            {
                "start_time": 79.2795455,
                "end_time": 85.7045455,
                "pitch": 78,
                "velocity": 20,
                "duration": 6.425,
                "tempo": 120.0
            },
            {
                "start_time": 85.7045455,
                "end_time": 85.9068182,
                "pitch": 67,
                "velocity": 20,
                "duration": 0.2022727,
                "tempo": 120.0
            },
            {
                "start_time": 85.9068182,
                "end_time": 86.1068182,
                "pitch": 67,
                "velocity": 20,
                "duration": 0.2,
                "tempo": 120.0
            },
            {
                "start_time": 86.1068182,
                "end_time": 88.4272727,
                "pitch": 69,
                "velocity": 20,
                "duration": 2.3204545,
                "tempo": 120.0
            },
            {
                "start_time": 82.7840909,
                "end_time": 88.6227273,
                "pitch": 70,
                "velocity": 20,
                "duration": 5.8386364,
                "tempo": 120.0
            },
            {
                "start_time": 88.4272727,
                "end_time": 88.6227273,
                "pitch": 70,
                "velocity": 20,
                "duration": 0.1954545,
                "tempo": 120.0
            },
            {
                "start_time": 82.9636364,
                "end_time": 88.8181818,
                "pitch": 72,
                "velocity": 20,
                "duration": 5.8545455,
                "tempo": 120.0
            },
            {
                "start_time": 88.6227273,
                "end_time": 88.8181818,
                "pitch": 72,
                "velocity": 20,
                "duration": 0.1954545,
                "tempo": 120.0
            },
            {
                "start_time": 88.6227273,
                "end_time": 89.0181818,
                "pitch": 70,
                "velocity": 20,
                "duration": 0.3954545,
                "tempo": 120.0
            },
            {
                "start_time": 88.8181818,
                "end_time": 89.0181818,
                "pitch": 70,
                "velocity": 20,
                "duration": 0.2,
                "tempo": 120.0
            },
            {
                "start_time": 89.0181818,
                "end_time": 89.2181818,
                "pitch": 67,
                "velocity": 20,
                "duration": 0.2,
                "tempo": 120.0
            },
            {
                "start_time": 85.3113636,
                "end_time": 91.5409091,
                "pitch": 57,
                "velocity": 20,
                "duration": 6.2295455,
                "tempo": 120.0
            },
            {
                "start_time": 89.2181818,
                "end_time": 91.5409091,
                "pitch": 67,
                "velocity": 20,
                "duration": 2.3227273,
                "tempo": 120.0
            },
            {
                "start_time": 79.0840909,
                "end_time": 91.7363636,
                "pitch": 62,
                "velocity": 20,
                "duration": 12.6522727,
                "tempo": 120.0
            },
            {
                "start_time": 91.5409091,
                "end_time": 91.7363636,
                "pitch": 62,
                "velocity": 20,
                "duration": 0.1954545,
                "tempo": 120.0
            },
            {
                "start_time": 85.5090909,
                "end_time": 91.9340909,
                "pitch": 64,
                "velocity": 20,
                "duration": 6.425,
                "tempo": 120.0
            },
            {
                "start_time": 91.7363636,
                "end_time": 91.9340909,
                "pitch": 64,
                "velocity": 20,
                "duration": 0.1977273,
                "tempo": 120.0
            },
            {
                "start_time": 91.9340909,
                "end_time": 92.1340909,
                "pitch": 66,
                "velocity": 20,
                "duration": 0.2,
                "tempo": 120.0
            },
            {
                "start_time": 91.7363636,
                "end_time": 92.3363636,
                "pitch": 62,
                "velocity": 20,
                "duration": 0.6,
                "tempo": 120.0
            },
            {
                "start_time": 92.1340909,
                "end_time": 92.3363636,
                "pitch": 62,
                "velocity": 20,
                "duration": 0.2022727,
                "tempo": 120.0
            },
            {
                "start_time": 91.9340909,
                "end_time": 93.4863636,
                "pitch": 64,
                "velocity": 20,
                "duration": 1.5522727,
                "tempo": 120.0
            },
            {
                "start_time": 92.3363636,
                "end_time": 93.4863636,
                "pitch": 64,
                "velocity": 20,
                "duration": 1.15,
                "tempo": 120.0
            },
            {
                "start_time": 92.1340909,
                "end_time": 93.8795455,
                "pitch": 66,
                "velocity": 20,
                "duration": 1.7454545,
                "tempo": 120.0
            },
            {
                "start_time": 93.4863636,
                "end_time": 93.8795455,
                "pitch": 66,
                "velocity": 20,
                "duration": 0.3931818,
                "tempo": 120.0
            },
            {
                "start_time": 85.7045455,
                "end_time": 93.8795455,
                "pitch": 78,
                "velocity": 20,
                "duration": 8.175,
                "tempo": 120.0
            },
            {
                "start_time": 93.8795455,
                "end_time": 94.2818182,
                "pitch": 67,
                "velocity": 20,
                "duration": 0.4022727,
                "tempo": 120.0
            },
            {
                "start_time": 93.4863636,
                "end_time": 94.6681818,
                "pitch": 64,
                "velocity": 20,
                "duration": 1.1818182,
                "tempo": 120.0
            },
            {
                "start_time": 94.2818182,
                "end_time": 94.6681818,
                "pitch": 64,
                "velocity": 20,
                "duration": 0.3863636,
                "tempo": 120.0
            },
            {
                "start_time": 89.0181818,
                "end_time": 95.05,
                "pitch": 70,
                "velocity": 20,
                "duration": 6.0318182,
                "tempo": 120.0
            },
            {
                "start_time": 94.6681818,
                "end_time": 95.05,
                "pitch": 70,
                "velocity": 20,
                "duration": 0.3818182,
                "tempo": 120.0
            },
            {
                "start_time": 95.05,
                "end_time": 95.4522727,
                "pitch": 70,
                "velocity": 20,
                "duration": 0.4022727,
                "tempo": 120.0
            },
            {
                "start_time": 95.4522727,
                "end_time": 98.5659091,
                "pitch": 69,
                "velocity": 20,
                "duration": 3.1136364,
                "tempo": 120.0
            },
            {
                "start_time": 98.5659091,
                "end_time": 99.7386364,
                "pitch": 69,
                "velocity": 20,
                "duration": 1.1727273,
                "tempo": 120.0
            },
            {
                "start_time": 88.8181818,
                "end_time": 100.1204545,
                "pitch": 72,
                "velocity": 20,
                "duration": 11.3022727,
                "tempo": 120.0
            },
            {
                "start_time": 99.7386364,
                "end_time": 100.1204545,
                "pitch": 72,
                "velocity": 20,
                "duration": 0.3818182,
                "tempo": 120.0
            },
            {
                "start_time": 100.1204545,
                "end_time": 100.5136364,
                "pitch": 72,
                "velocity": 20,
                "duration": 0.3931818,
                "tempo": 120.0
            },
            {
                "start_time": 99.7386364,
                "end_time": 100.8886364,
                "pitch": 70,
                "velocity": 20,
                "duration": 1.15,
                "tempo": 120.0
            },
            {
                "start_time": 100.5136364,
                "end_time": 100.8886364,
                "pitch": 70,
                "velocity": 20,
                "duration": 0.375,
                "tempo": 120.0
            },
            {
                "start_time": 100.8886364,
                "end_time": 101.6840909,
                "pitch": 72,
                "velocity": 20,
                "duration": 0.7954545,
                "tempo": 120.0
            },
            {
                "start_time": 94.6681818,
                "end_time": 104.4022727,
                "pitch": 76,
                "velocity": 20,
                "duration": 9.7340909,
                "tempo": 120.0
            },
            {
                "start_time": 101.6840909,
                "end_time": 104.4022727,
                "pitch": 76,
                "velocity": 20,
                "duration": 2.7181818,
                "tempo": 120.0
            },
            {
                "start_time": 91.5409091,
                "end_time": 104.7954545,
                "pitch": 57,
                "velocity": 20,
                "duration": 13.2545455,
                "tempo": 120.0
            },
            {
                "start_time": 104.4022727,
                "end_time": 104.7954545,
                "pitch": 69,
                "velocity": 20,
                "duration": 0.3931818,
                "tempo": 120.0
            },
            {
                "start_time": 92.3363636,
                "end_time": 105.7659091,
                "pitch": 62,
                "velocity": 20,
                "duration": 13.4295455,
                "tempo": 120.0
            },
            {
                "start_time": 104.7954545,
                "end_time": 105.7659091,
                "pitch": 62,
                "velocity": 20,
                "duration": 0.9704545,
                "tempo": 120.0
            },
            {
                "start_time": 105.7659091,
                "end_time": 105.9659091,
                "pitch": 64,
                "velocity": 20,
                "duration": 0.2,
                "tempo": 120.0
            },
            {
                "start_time": 105.9659091,
                "end_time": 106.15,
                "pitch": 66,
                "velocity": 20,
                "duration": 0.1840909,
                "tempo": 120.0
            },
            {
                "start_time": 93.8795455,
                "end_time": 106.15,
                "pitch": 78,
                "velocity": 20,
                "duration": 12.2704545,
                "tempo": 120.0
            },
            {
                "start_time": 106.15,
                "end_time": 106.35,
                "pitch": 67,
                "velocity": 20,
                "duration": 0.2,
                "tempo": 120.0
            },
            {
                "start_time": 104.7954545,
                "end_time": 106.7431818,
                "pitch": 57,
                "velocity": 20,
                "duration": 1.9477273,
                "tempo": 120.0
            },
            {
                "start_time": 106.35,
                "end_time": 106.7431818,
                "pitch": 67,
                "velocity": 20,
                "duration": 0.3931818,
                "tempo": 120.0
            },
            {
                "start_time": 106.7431818,
                "end_time": 107.1340909,
                "pitch": 66,
                "velocity": 20,
                "duration": 0.3909091,
                "tempo": 120.0
            },
            {
                "start_time": 106.15,
                "end_time": 107.1340909,
                "pitch": 78,
                "velocity": 20,
                "duration": 0.9840909,
                "tempo": 120.0
            },
            {
                "start_time": 107.1340909,
                "end_time": 107.5204545,
                "pitch": 71,
                "velocity": 20,
                "duration": 0.3863636,
                "tempo": 120.0
            },
            {
                "start_time": 94.2818182,
                "end_time": 107.9136364,
                "pitch": 55,
                "velocity": 20,
                "duration": 13.6318182,
                "tempo": 120.0
            },
            {
                "start_time": 107.5204545,
                "end_time": 107.9136364,
                "pitch": 67,
                "velocity": 20,
                "duration": 0.3931818,
                "tempo": 120.0
            },
            {
                "start_time": 107.9136364,
                "end_time": 109.0795455,
                "pitch": 66,
                "velocity": 20,
                "duration": 1.1659091,
                "tempo": 120.0
            },
            {
                "start_time": 107.1340909,
                "end_time": 109.0795455,
                "pitch": 78,
                "velocity": 20,
                "duration": 1.9454545,
                "tempo": 120.0
            },
            {
                "start_time": 107.9136364,
                "end_time": 109.2818182,
                "pitch": 55,
                "velocity": 20,
                "duration": 1.3681818,
                "tempo": 120.0
            },
            {
                "start_time": 109.0795455,
                "end_time": 109.2818182,
                "pitch": 67,
                "velocity": 20,
                "duration": 0.2022727,
                "tempo": 120.0
            },
            {
                "start_time": 109.2818182,
                "end_time": 109.4659091,
                "pitch": 66,
                "velocity": 20,
                "duration": 0.1840909,
                "tempo": 120.0
            },
            {
                "start_time": 105.9659091,
                "end_time": 111.0363636,
                "pitch": 64,
                "velocity": 20,
                "duration": 5.0704545,
                "tempo": 120.0
            },
            {
                "start_time": 109.4659091,
                "end_time": 111.0363636,
                "pitch": 64,
                "velocity": 20,
                "duration": 1.5704545,
                "tempo": 120.0
            },
            {
                "start_time": 105.7659091,
                "end_time": 112.0,
                "pitch": 62,
                "velocity": 20,
                "duration": 6.2340909,
                "tempo": 120.0
            },
            {
                "start_time": 111.0363636,
                "end_time": 112.0,
                "pitch": 62,
                "velocity": 20,
                "duration": 0.9636364,
                "tempo": 120.0
            },
            {
                "start_time": 112.0,
                "end_time": 112.0022727,
                "pitch": 62,
                "velocity": 20,
                "duration": 0.0022727,
                "tempo": 120.0
            },
            {
                "start_time": 111.0363636,
                "end_time": 112.1977273,
                "pitch": 64,
                "velocity": 20,
                "duration": 1.1613636,
                "tempo": 120.0
            },
            {
                "start_time": 112.0022727,
                "end_time": 112.1977273,
                "pitch": 64,
                "velocity": 20,
                "duration": 0.1954545,
                "tempo": 120.0
            },
            {
                "start_time": 109.4659091,
                "end_time": 112.4,
                "pitch": 66,
                "velocity": 20,
                "duration": 2.9340909,
                "tempo": 120.0
            },
            {
                "start_time": 112.1977273,
                "end_time": 112.4,
                "pitch": 66,
                "velocity": 20,
                "duration": 0.2022727,
                "tempo": 120.0
            },
            {
                "start_time": 109.0795455,
                "end_time": 112.4,
                "pitch": 78,
                "velocity": 20,
                "duration": 3.3204545,
                "tempo": 120.0
            },
            {
                "start_time": 112.4,
                "end_time": 112.5840909,
                "pitch": 67,
                "velocity": 20,
                "duration": 0.1840909,
                "tempo": 120.0
            },
            {
                "start_time": 106.7431818,
                "end_time": 112.975,
                "pitch": 57,
                "velocity": 20,
                "duration": 6.2318182,
                "tempo": 120.0
            },
            {
                "start_time": 112.5840909,
                "end_time": 112.975,
                "pitch": 67,
                "velocity": 20,
                "duration": 0.3909091,
                "tempo": 120.0
            },
            {
                "start_time": 112.975,
                "end_time": 113.375,
                "pitch": 66,
                "velocity": 20,
                "duration": 0.4,
                "tempo": 120.0
            },
            {
                "start_time": 112.4,
                "end_time": 113.375,
                "pitch": 78,
                "velocity": 20,
                "duration": 0.975,
                "tempo": 120.0
            },
            {
                "start_time": 107.5204545,
                "end_time": 113.7613636,
                "pitch": 71,
                "velocity": 20,
                "duration": 6.2409091,
                "tempo": 120.0
            },
            {
                "start_time": 113.375,
                "end_time": 113.7613636,
                "pitch": 71,
                "velocity": 20,
                "duration": 0.3863636,
                "tempo": 120.0
            },
            {
                "start_time": 113.7613636,
                "end_time": 114.1431818,
                "pitch": 67,
                "velocity": 20,
                "duration": 0.3818182,
                "tempo": 120.0
            },
            {
                "start_time": 114.1431818,
                "end_time": 114.9204545,
                "pitch": 67,
                "velocity": 20,
                "duration": 0.7772727,
                "tempo": 120.0
            },
            {
                "start_time": 114.9204545,
                "end_time": 115.3136364,
                "pitch": 69,
                "velocity": 20,
                "duration": 0.3931818,
                "tempo": 120.0
            },
            {
                "start_time": 115.3136364,
                "end_time": 115.6977273,
                "pitch": 66,
                "velocity": 20,
                "duration": 0.3840909,
                "tempo": 120.0
            },
            {
                "start_time": 113.375,
                "end_time": 115.6977273,
                "pitch": 78,
                "velocity": 20,
                "duration": 2.3227273,
                "tempo": 120.0
            },
            {
                "start_time": 109.2818182,
                "end_time": 116.4795455,
                "pitch": 55,
                "velocity": 20,
                "duration": 7.1977273,
                "tempo": 120.0
            },
            {
                "start_time": 115.6977273,
                "end_time": 116.4795455,
                "pitch": 67,
                "velocity": 20,
                "duration": 0.7818182,
                "tempo": 120.0
            },
            {
                "start_time": 112.1977273,
                "end_time": 117.2568182,
                "pitch": 64,
                "velocity": 20,
                "duration": 5.0590909,
                "tempo": 120.0
            },
            {
                "start_time": 116.4795455,
                "end_time": 117.2568182,
                "pitch": 64,
                "velocity": 20,
                "duration": 0.7772727,
                "tempo": 120.0
            },
            {
                "start_time": 117.2568182,
                "end_time": 118.425,
                "pitch": 62,
                "velocity": 20,
                "duration": 1.1681818,
                "tempo": 120.0
            },
            {
                "start_time": 100.5136364,
                "end_time": 118.425,
                "pitch": 74,
                "velocity": 20,
                "duration": 17.9113636,
                "tempo": 120.0
            },
            {
                "start_time": 118.425,
                "end_time": 118.6272727,
                "pitch": 69,
                "velocity": 20,
                "duration": 0.2022727,
                "tempo": 120.0
            },
            {
                "start_time": 116.4795455,
                "end_time": 118.8113636,
                "pitch": 55,
                "velocity": 20,
                "duration": 2.3318182,
                "tempo": 120.0
            },
            {
                "start_time": 118.6272727,
                "end_time": 118.8113636,
                "pitch": 69,
                "velocity": 20,
                "duration": 0.1840909,
                "tempo": 120.0
            },
            {
                "start_time": 117.2568182,
                "end_time": 119.9772727,
                "pitch": 64,
                "velocity": 20,
                "duration": 2.7204545,
                "tempo": 120.0
            },
            {
                "start_time": 118.8113636,
                "end_time": 119.9772727,
                "pitch": 64,
                "velocity": 20,
                "duration": 1.1659091,
                "tempo": 120.0
            },
            {
                "start_time": 104.4022727,
                "end_time": 119.9772727,
                "pitch": 76,
                "velocity": 20,
                "duration": 15.575,
                "tempo": 120.0
            },
            {
                "start_time": 119.9772727,
                "end_time": 120.1727273,
                "pitch": 69,
                "velocity": 20,
                "duration": 0.1954545,
                "tempo": 120.0
            },
            {
                "start_time": 118.8113636,
                "end_time": 120.3704545,
                "pitch": 55,
                "velocity": 20,
                "duration": 1.5590909,
                "tempo": 120.0
            },
            {
                "start_time": 120.1727273,
                "end_time": 120.3704545,
                "pitch": 69,
                "velocity": 20,
                "duration": 0.1977273,
                "tempo": 120.0
            },
            {
                "start_time": 120.3704545,
                "end_time": 121.55,
                "pitch": 62,
                "velocity": 20,
                "duration": 1.1795455,
                "tempo": 120.0
            },
            {
                "start_time": 118.425,
                "end_time": 121.55,
                "pitch": 74,
                "velocity": 20,
                "duration": 3.125,
                "tempo": 120.0
            },
            {
                "start_time": 113.7613636,
                "end_time": 121.7454545,
                "pitch": 71,
                "velocity": 20,
                "duration": 7.9840909,
                "tempo": 120.0
            },
            {
                "start_time": 121.55,
                "end_time": 121.7454545,
                "pitch": 71,
                "velocity": 20,
                "duration": 0.1954545,
                "tempo": 120.0
            },
            {
                "start_time": 120.3704545,
                "end_time": 121.9431818,
                "pitch": 55,
                "velocity": 20,
                "duration": 1.5727273,
                "tempo": 120.0
            },
            {
                "start_time": 121.7454545,
                "end_time": 121.9431818,
                "pitch": 67,
                "velocity": 20,
                "duration": 0.1977273,
                "tempo": 120.0
            },
            {
                "start_time": 121.9431818,
                "end_time": 123.1068182,
                "pitch": 64,
                "velocity": 20,
                "duration": 1.1636364,
                "tempo": 120.0
            },
            {
                "start_time": 119.9772727,
                "end_time": 123.1068182,
                "pitch": 76,
                "velocity": 20,
                "duration": 3.1295455,
                "tempo": 120.0
            },
            {
                "start_time": 123.1068182,
                "end_time": 123.2977273,
                "pitch": 69,
                "velocity": 20,
                "duration": 0.1909091,
                "tempo": 120.0
            },
            {
                "start_time": 121.9431818,
                "end_time": 123.4886364,
                "pitch": 55,
                "velocity": 20,
                "duration": 1.5454545,
                "tempo": 120.0
            },
            {
                "start_time": 123.2977273,
                "end_time": 123.4886364,
                "pitch": 69,
                "velocity": 20,
                "duration": 0.1909091,
                "tempo": 120.0
            },
            {
                "start_time": 123.4886364,
                "end_time": 123.8909091,
                "pitch": 62,
                "velocity": 20,
                "duration": 0.4022727,
                "tempo": 120.0
            },
            {
                "start_time": 123.8909091,
                "end_time": 124.0909091,
                "pitch": 66,
                "velocity": 20,
                "duration": 0.2,
                "tempo": 120.0
            },
            {
                "start_time": 115.6977273,
                "end_time": 124.0909091,
                "pitch": 78,
                "velocity": 20,
                "duration": 8.3931818,
                "tempo": 120.0
            },
            {
                "start_time": 123.4886364,
                "end_time": 124.275,
                "pitch": 55,
                "velocity": 20,
                "duration": 0.7863636,
                "tempo": 120.0
            },
            {
                "start_time": 124.0909091,
                "end_time": 124.275,
                "pitch": 67,
                "velocity": 20,
                "duration": 0.1840909,
                "tempo": 120.0
            },
            {
                "start_time": 124.275,
                "end_time": 124.6681818,
                "pitch": 64,
                "velocity": 20,
                "duration": 0.3931818,
                "tempo": 120.0
            },
            {
                "start_time": 123.1068182,
                "end_time": 124.6681818,
                "pitch": 76,
                "velocity": 20,
                "duration": 1.5613636,
                "tempo": 120.0
            },
            {
                "start_time": 124.6681818,
                "end_time": 124.8681818,
                "pitch": 69,
                "velocity": 20,
                "duration": 0.2,
                "tempo": 120.0
            },
            {
                "start_time": 124.275,
                "end_time": 125.0704545,
                "pitch": 55,
                "velocity": 20,
                "duration": 0.7954545,
                "tempo": 120.0
            },
            {
                "start_time": 124.8681818,
                "end_time": 125.0704545,
                "pitch": 69,
                "velocity": 20,
                "duration": 0.2022727,
                "tempo": 120.0
            },
            {
                "start_time": 123.8909091,
                "end_time": 125.4454545,
                "pitch": 62,
                "velocity": 20,
                "duration": 1.5545455,
                "tempo": 120.0
            },
            {
                "start_time": 125.0704545,
                "end_time": 125.4454545,
                "pitch": 62,
                "velocity": 20,
                "duration": 0.375,
                "tempo": 120.0
            },
            {
                "start_time": 125.4454545,
                "end_time": 125.6409091,
                "pitch": 66,
                "velocity": 20,
                "duration": 0.1954545,
                "tempo": 120.0
            },
            {
                "start_time": 124.0909091,
                "end_time": 125.6409091,
                "pitch": 78,
                "velocity": 20,
                "duration": 1.55,
                "tempo": 120.0
            },
            {
                "start_time": 125.0704545,
                "end_time": 125.8386364,
                "pitch": 55,
                "velocity": 20,
                "duration": 0.7681818,
                "tempo": 120.0
            },
            {
                "start_time": 125.6409091,
                "end_time": 125.8386364,
                "pitch": 67,
                "velocity": 20,
                "duration": 0.1977273,
                "tempo": 120.0
            },
            {
                "start_time": 125.8386364,
                "end_time": 126.2136364,
                "pitch": 64,
                "velocity": 20,
                "duration": 0.375,
                "tempo": 120.0
            },
            {
                "start_time": 124.6681818,
                "end_time": 126.2136364,
                "pitch": 76,
                "velocity": 20,
                "duration": 1.5454545,
                "tempo": 120.0
            },
            {
                "start_time": 126.2136364,
                "end_time": 126.4136364,
                "pitch": 69,
                "velocity": 20,
                "duration": 0.2,
                "tempo": 120.0
            },
            {
                "start_time": 125.8386364,
                "end_time": 126.6136364,
                "pitch": 55,
                "velocity": 20,
                "duration": 0.775,
                "tempo": 120.0
            },
            {
                "start_time": 126.4136364,
                "end_time": 126.6136364,
                "pitch": 69,
                "velocity": 20,
                "duration": 0.2,
                "tempo": 120.0
            },
            {
                "start_time": 125.4454545,
                "end_time": 127.0045455,
                "pitch": 62,
                "velocity": 20,
                "duration": 1.5590909,
                "tempo": 120.0
            },
            {
                "start_time": 126.6136364,
                "end_time": 127.0045455,
                "pitch": 62,
                "velocity": 20,
                "duration": 0.3909091,
                "tempo": 120.0
            },
            {
                "start_time": 127.0045455,
                "end_time": 127.2068182,
                "pitch": 66,
                "velocity": 20,
                "duration": 0.2022727,
                "tempo": 120.0
            },
            {
                "start_time": 125.6409091,
                "end_time": 127.2068182,
                "pitch": 78,
                "velocity": 20,
                "duration": 1.5659091,
                "tempo": 120.0
            },
            {
                "start_time": 127.2068182,
                "end_time": 127.3909091,
                "pitch": 67,
                "velocity": 20,
                "duration": 0.1840909,
                "tempo": 120.0
            },
            {
                "start_time": 127.3909091,
                "end_time": 127.7727273,
                "pitch": 67,
                "velocity": 20,
                "duration": 0.3818182,
                "tempo": 120.0
            },
            {
                "start_time": 127.7727273,
                "end_time": 127.975,
                "pitch": 69,
                "velocity": 20,
                "duration": 0.2022727,
                "tempo": 120.0
            },
            {
                "start_time": 121.7454545,
                "end_time": 127.975,
                "pitch": 71,
                "velocity": 20,
                "duration": 6.2295455,
                "tempo": 120.0
            },
            {
                "start_time": 127.975,
                "end_time": 128.1772727,
                "pitch": 73,
                "velocity": 20,
                "duration": 0.2022727,
                "tempo": 120.0
            },
            {
                "start_time": 128.1772727,
                "end_time": 128.5704545,
                "pitch": 61,
                "velocity": 20,
                "duration": 0.3931818,
                "tempo": 120.0
            },
            {
                "start_time": 127.0045455,
                "end_time": 128.5704545,
                "pitch": 62,
                "velocity": 20,
                "duration": 1.5659091,
                "tempo": 120.0
            },
            {
                "start_time": 128.5704545,
                "end_time": 128.7613636,
                "pitch": 66,
                "velocity": 20,
                "duration": 0.1909091,
                "tempo": 120.0
            },
            {
                "start_time": 127.2068182,
                "end_time": 128.7613636,
                "pitch": 78,
                "velocity": 20,
                "duration": 1.5545455,
                "tempo": 120.0
            },
            {
                "start_time": 128.7613636,
                "end_time": 128.9522727,
                "pitch": 67,
                "velocity": 20,
                "duration": 0.1909091,
                "tempo": 120.0
            },
            {
                "start_time": 128.9522727,
                "end_time": 129.1477273,
                "pitch": 67,
                "velocity": 20,
                "duration": 0.1954545,
                "tempo": 120.0
            },
            {
                "start_time": 129.1477273,
                "end_time": 129.3454545,
                "pitch": 69,
                "velocity": 20,
                "duration": 0.1977273,
                "tempo": 120.0
            },
            {
                "start_time": 127.975,
                "end_time": 129.3454545,
                "pitch": 71,
                "velocity": 20,
                "duration": 1.3704545,
                "tempo": 120.0
            },
            {
                "start_time": 129.3454545,
                "end_time": 129.7386364,
                "pitch": 73,
                "velocity": 20,
                "duration": 0.3931818,
                "tempo": 120.0
            },
            {
                "start_time": 129.7386364,
                "end_time": 130.1318182,
                "pitch": 61,
                "velocity": 20,
                "duration": 0.3931818,
                "tempo": 120.0
            },
            {
                "start_time": 128.5704545,
                "end_time": 130.1318182,
                "pitch": 62,
                "velocity": 20,
                "duration": 1.5613636,
                "tempo": 120.0
            },
            {
                "start_time": 130.1318182,
                "end_time": 130.3272727,
                "pitch": 66,
                "velocity": 20,
                "duration": 0.1954545,
                "tempo": 120.0
            },
            {
                "start_time": 128.7613636,
                "end_time": 130.3272727,
                "pitch": 78,
                "velocity": 20,
                "duration": 1.5659091,
                "tempo": 120.0
            },
            {
                "start_time": 130.3272727,
                "end_time": 130.5068182,
                "pitch": 67,
                "velocity": 20,
                "duration": 0.1795455,
                "tempo": 120.0
            },
            {
                "start_time": 130.5068182,
                "end_time": 130.8886364,
                "pitch": 67,
                "velocity": 20,
                "duration": 0.3818182,
                "tempo": 120.0
            },
            {
                "start_time": 130.8886364,
                "end_time": 131.0886364,
                "pitch": 69,
                "velocity": 20,
                "duration": 0.2,
                "tempo": 120.0
            },
            {
                "start_time": 129.3454545,
                "end_time": 131.0886364,
                "pitch": 71,
                "velocity": 20,
                "duration": 1.7431818,
                "tempo": 120.0
            },
            {
                "start_time": 131.0886364,
                "end_time": 131.2886364,
                "pitch": 73,
                "velocity": 20,
                "duration": 0.2,
                "tempo": 120.0
            },
            {
                "start_time": 131.2886364,
                "end_time": 131.675,
                "pitch": 61,
                "velocity": 20,
                "duration": 0.3863636,
                "tempo": 120.0
            },
            {
                "start_time": 130.1318182,
                "end_time": 131.675,
                "pitch": 62,
                "velocity": 20,
                "duration": 1.5431818,
                "tempo": 120.0
            },
            {
                "start_time": 131.675,
                "end_time": 131.8704545,
                "pitch": 66,
                "velocity": 20,
                "duration": 0.1954545,
                "tempo": 120.0
            },
            {
                "start_time": 130.3272727,
                "end_time": 131.8704545,
                "pitch": 78,
                "velocity": 20,
                "duration": 1.5431818,
                "tempo": 120.0
            },
            {
                "start_time": 131.8704545,
                "end_time": 132.0681818,
                "pitch": 67,
                "velocity": 20,
                "duration": 0.1977273,
                "tempo": 120.0
            },
            {
                "start_time": 132.0681818,
                "end_time": 132.2636364,
                "pitch": 67,
                "velocity": 20,
                "duration": 0.1954545,
                "tempo": 120.0
            },
            {
                "start_time": 132.2636364,
                "end_time": 132.4590909,
                "pitch": 69,
                "velocity": 20,
                "duration": 0.1954545,
                "tempo": 120.0
            },
            {
                "start_time": 131.0886364,
                "end_time": 132.4590909,
                "pitch": 71,
                "velocity": 20,
                "duration": 1.3704545,
                "tempo": 120.0
            },
            {
                "start_time": 132.4590909,
                "end_time": 132.8431818,
                "pitch": 73,
                "velocity": 20,
                "duration": 0.3840909,
                "tempo": 120.0
            },
            {
                "start_time": 132.8431818,
                "end_time": 133.2340909,
                "pitch": 73,
                "velocity": 20,
                "duration": 0.3909091,
                "tempo": 120.0
            },
            {
                "start_time": 121.55,
                "end_time": 133.2340909,
                "pitch": 74,
                "velocity": 20,
                "duration": 11.6840909,
                "tempo": 120.0
            },
            {
                "start_time": 133.2340909,
                "end_time": 133.4363636,
                "pitch": 69,
                "velocity": 20,
                "duration": 0.2022727,
                "tempo": 120.0
            },
            {
                "start_time": 133.4363636,
                "end_time": 133.6204545,
                "pitch": 69,
                "velocity": 20,
                "duration": 0.1840909,
                "tempo": 120.0
            },
            {
                "start_time": 132.4590909,
                "end_time": 133.6204545,
                "pitch": 71,
                "velocity": 20,
                "duration": 1.1613636,
                "tempo": 120.0
            },
            {
                "start_time": 133.6204545,
                "end_time": 134.0022727,
                "pitch": 67,
                "velocity": 20,
                "duration": 0.3818182,
                "tempo": 120.0
            },
            {
                "start_time": 112.975,
                "end_time": 134.2045455,
                "pitch": 57,
                "velocity": 20,
                "duration": 21.2295455,
                "tempo": 120.0
            },
            {
                "start_time": 134.0022727,
                "end_time": 134.2045455,
                "pitch": 67,
                "velocity": 20,
                "duration": 0.2022727,
                "tempo": 120.0
            },
            {
                "start_time": 134.2045455,
                "end_time": 134.4045455,
                "pitch": 66,
                "velocity": 20,
                "duration": 0.2,
                "tempo": 120.0
            },
            {
                "start_time": 131.8704545,
                "end_time": 134.4068182,
                "pitch": 78,
                "velocity": 20,
                "duration": 2.5363636,
                "tempo": 120.0
            },
            {
                "start_time": 134.4045455,
                "end_time": 134.4068182,
                "pitch": 78,
                "velocity": 20,
                "duration": 0.0022727,
                "tempo": 120.0
            },
            {
                "start_time": 134.4068182,
                "end_time": 134.7886364,
                "pitch": 67,
                "velocity": 20,
                "duration": 0.3818182,
                "tempo": 120.0
            },
            {
                "start_time": 134.2045455,
                "end_time": 134.9840909,
                "pitch": 57,
                "velocity": 20,
                "duration": 0.7795455,
                "tempo": 120.0
            },
            {
                "start_time": 134.7886364,
                "end_time": 134.9840909,
                "pitch": 67,
                "velocity": 20,
                "duration": 0.1954545,
                "tempo": 120.0
            },
            {
                "start_time": 134.9840909,
                "end_time": 135.1818182,
                "pitch": 66,
                "velocity": 20,
                "duration": 0.1977273,
                "tempo": 120.0
            },
            {
                "start_time": 131.675,
                "end_time": 135.9590909,
                "pitch": 62,
                "velocity": 20,
                "duration": 4.2840909,
                "tempo": 120.0
            },
            {
                "start_time": 135.1818182,
                "end_time": 135.9590909,
                "pitch": 62,
                "velocity": 20,
                "duration": 0.7772727,
                "tempo": 120.0
            },
            {
                "start_time": 133.2340909,
                "end_time": 135.9590909,
                "pitch": 74,
                "velocity": 20,
                "duration": 2.725,
                "tempo": 120.0
            },
            {
                "start_time": 126.6136364,
                "end_time": 136.3522727,
                "pitch": 55,
                "velocity": 20,
                "duration": 9.7386364,
                "tempo": 120.0
            },
            {
                "start_time": 135.9590909,
                "end_time": 136.3522727,
                "pitch": 67,
                "velocity": 20,
                "duration": 0.3931818,
                "tempo": 120.0
            },
            {
                "start_time": 136.3522727,
                "end_time": 136.5522727,
                "pitch": 64,
                "velocity": 20,
                "duration": 0.2,
                "tempo": 120.0
            },
            {
                "start_time": 136.5522727,
                "end_time": 136.7545455,
                "pitch": 61,
                "velocity": 20,
                "duration": 0.2022727,
                "tempo": 120.0
            },
            {
                "start_time": 136.7545455,
                "end_time": 137.1386364,
                "pitch": 61,
                "velocity": 20,
                "duration": 0.3840909,
                "tempo": 120.0
            },
            {
                "start_time": 136.5522727,
                "end_time": 137.3340909,
                "pitch": 64,
                "velocity": 20,
                "duration": 0.7818182,
                "tempo": 120.0
            },
            {
                "start_time": 137.1386364,
                "end_time": 137.3340909,
                "pitch": 64,
                "velocity": 20,
                "duration": 0.1954545,
                "tempo": 120.0
            },
            {
                "start_time": 137.1386364,
                "end_time": 137.5295455,
                "pitch": 61,
                "velocity": 20,
                "duration": 0.3909091,
                "tempo": 120.0
            },
            {
                "start_time": 137.3340909,
                "end_time": 137.5295455,
                "pitch": 61,
                "velocity": 20,
                "duration": 0.1954545,
                "tempo": 120.0
            },
            {
                "start_time": 137.5295455,
                "end_time": 137.9068182,
                "pitch": 61,
                "velocity": 20,
                "duration": 0.3772727,
                "tempo": 120.0
            },
            {
                "start_time": 135.1818182,
                "end_time": 138.1022727,
                "pitch": 66,
                "velocity": 20,
                "duration": 2.9204545,
                "tempo": 120.0
            },
            {
                "start_time": 137.9068182,
                "end_time": 138.1022727,
                "pitch": 66,
                "velocity": 20,
                "duration": 0.1954545,
                "tempo": 120.0
            },
            {
                "start_time": 137.9068182,
                "end_time": 138.2977273,
                "pitch": 62,
                "velocity": 20,
                "duration": 0.3909091,
                "tempo": 120.0
            },
            {
                "start_time": 138.1022727,
                "end_time": 138.2977273,
                "pitch": 62,
                "velocity": 20,
                "duration": 0.1954545,
                "tempo": 120.0
            },
            {
                "start_time": 115.3136364,
                "end_time": 138.4931818,
                "pitch": 59,
                "velocity": 20,
                "duration": 23.1795455,
                "tempo": 120.0
            },
            {
                "start_time": 138.2977273,
                "end_time": 138.4931818,
                "pitch": 59,
                "velocity": 20,
                "duration": 0.1954545,
                "tempo": 120.0
            },
            {
                "start_time": 138.4931818,
                "end_time": 138.6909091,
                "pitch": 59,
                "velocity": 20,
                "duration": 0.1977273,
                "tempo": 120.0
            },
            {
                "start_time": 138.6909091,
                "end_time": 138.8772727,
                "pitch": 61,
                "velocity": 20,
                "duration": 0.1863636,
                "tempo": 120.0
            },
            {
                "start_time": 138.2977273,
                "end_time": 138.8772727,
                "pitch": 62,
                "velocity": 20,
                "duration": 0.5795455,
                "tempo": 120.0
            },
            {
                "start_time": 137.3340909,
                "end_time": 139.0840909,
                "pitch": 64,
                "velocity": 20,
                "duration": 1.75,
                "tempo": 120.0
            },
            {
                "start_time": 138.8772727,
                "end_time": 139.0840909,
                "pitch": 64,
                "velocity": 20,
                "duration": 0.2068182,
                "tempo": 120.0
            },
            {
                "start_time": 138.8772727,
                "end_time": 139.275,
                "pitch": 62,
                "velocity": 20,
                "duration": 0.3977273,
                "tempo": 120.0
            },
            {
                "start_time": 139.0840909,
                "end_time": 139.275,
                "pitch": 62,
                "velocity": 20,
                "duration": 0.1909091,
                "tempo": 120.0
            },
            {
                "start_time": 138.1022727,
                "end_time": 139.4659091,
                "pitch": 66,
                "velocity": 20,
                "duration": 1.3636364,
                "tempo": 120.0
            },
            {
                "start_time": 139.275,
                "end_time": 139.4659091,
                "pitch": 66,
                "velocity": 20,
                "duration": 0.1909091,
                "tempo": 120.0
            },
            {
                "start_time": 133.6204545,
                "end_time": 139.6659091,
                "pitch": 71,
                "velocity": 20,
                "duration": 6.0454545,
                "tempo": 120.0
            },
            {
                "start_time": 139.4659091,
                "end_time": 139.6659091,
                "pitch": 71,
                "velocity": 20,
                "duration": 0.2,
                "tempo": 120.0
            },
            {
                "start_time": 136.3522727,
                "end_time": 139.8659091,
                "pitch": 55,
                "velocity": 20,
                "duration": 3.5136364,
                "tempo": 120.0
            },
            {
                "start_time": 139.6659091,
                "end_time": 139.8659091,
                "pitch": 67,
                "velocity": 20,
                "duration": 0.2,
                "tempo": 120.0
            },
            {
                "start_time": 139.0840909,
                "end_time": 140.05,
                "pitch": 64,
                "velocity": 20,
                "duration": 0.9659091,
                "tempo": 120.0
            },
            {
                "start_time": 139.8659091,
                "end_time": 140.05,
                "pitch": 64,
                "velocity": 20,
                "duration": 0.1840909,
                "tempo": 120.0
            },
            {
                "start_time": 126.2136364,
                "end_time": 140.05,
                "pitch": 76,
                "velocity": 20,
                "duration": 13.8363636,
                "tempo": 120.0
            },
            {
                "start_time": 140.05,
                "end_time": 140.2522727,
                "pitch": 69,
                "velocity": 20,
                "duration": 0.2022727,
                "tempo": 120.0
            },
            {
                "start_time": 140.2522727,
                "end_time": 140.4431818,
                "pitch": 73,
                "velocity": 20,
                "duration": 0.1909091,
                "tempo": 120.0
            },
            {
                "start_time": 140.2522727,
                "end_time": 140.6340909,
                "pitch": 69,
                "velocity": 20,
                "duration": 0.3818182,
                "tempo": 120.0
            },
            {
                "start_time": 140.4431818,
                "end_time": 140.6340909,
                "pitch": 69,
                "velocity": 20,
                "duration": 0.1909091,
                "tempo": 120.0
            },
            {
                "start_time": 140.6340909,
                "end_time": 140.8340909,
                "pitch": 69,
                "velocity": 20,
                "duration": 0.2,
                "tempo": 120.0
            },
            {
                "start_time": 139.6659091,
                "end_time": 140.8340909,
                "pitch": 71,
                "velocity": 20,
                "duration": 1.1681818,
                "tempo": 120.0
            },
            {
                "start_time": 140.8340909,
                "end_time": 141.0181818,
                "pitch": 67,
                "velocity": 20,
                "duration": 0.1840909,
                "tempo": 120.0
            },
            {
                "start_time": 140.4431818,
                "end_time": 141.2113636,
                "pitch": 73,
                "velocity": 20,
                "duration": 0.7681818,
                "tempo": 120.0
            },
            {
                "start_time": 141.0204545,
                "end_time": 141.2113636,
                "pitch": 73,
                "velocity": 20,
                "duration": 0.1909091,
                "tempo": 120.0
            },
            {
                "start_time": 141.2113636,
                "end_time": 141.4022727,
                "pitch": 69,
                "velocity": 20,
                "duration": 0.1909091,
                "tempo": 120.0
            },
            {
                "start_time": 141.2113636,
                "end_time": 141.6022727,
                "pitch": 73,
                "velocity": 20,
                "duration": 0.3909091,
                "tempo": 120.0
            },
            {
                "start_time": 141.4022727,
                "end_time": 141.6022727,
                "pitch": 73,
                "velocity": 20,
                "duration": 0.2,
                "tempo": 120.0
            },
            {
                "start_time": 140.05,
                "end_time": 141.8045455,
                "pitch": 76,
                "velocity": 20,
                "duration": 1.7545455,
                "tempo": 120.0
            },
            {
                "start_time": 141.6022727,
                "end_time": 141.8045455,
                "pitch": 76,
                "velocity": 20,
                "duration": 0.2022727,
                "tempo": 120.0
            },
            {
                "start_time": 139.4659091,
                "end_time": 142.0090909,
                "pitch": 78,
                "velocity": 20,
                "duration": 2.5431818,
                "tempo": 120.0
            },
            {
                "start_time": 141.8045455,
                "end_time": 142.0090909,
                "pitch": 78,
                "velocity": 20,
                "duration": 0.2045455,
                "tempo": 120.0
            },
            {
                "start_time": 135.9590909,
                "end_time": 142.1977273,
                "pitch": 74,
                "velocity": 20,
                "duration": 6.2386364,
                "tempo": 120.0
            },
            {
                "start_time": 142.0090909,
                "end_time": 142.1977273,
                "pitch": 74,
                "velocity": 20,
                "duration": 0.1886364,
                "tempo": 120.0
            }
        ]
    }
}