{
    "mood": "relaxed",
    "instruments": {
        "Vibraphone": [
            {
                "start_time": 25.0204545,
                "end_time": 25.3318182,
                "pitch": 64,
                "velocity": 32,
                "duration": 0.3113636,
                "tempo": 120.0
            },
            {
                "start_time": 25.35,
                "end_time": 25.6954545,
                "pitch": 68,
                "velocity": 32,
                "duration": 0.3454545,
                "tempo": 120.0
            },
            {
                "start_time": 25.7113636,
                "end_time": 26.0295455,
                "pitch": 61,
                "velocity": 32,
                "duration": 0.3181818,
                "tempo": 120.0
            },
            {
                "start_time": 26.0454545,
                "end_time": 26.3818182,
                "pitch": 64,
                "velocity": 32,
                "duration": 0.3363636,
                "tempo": 120.0
            },
            {
                "start_time": 26.3977273,
                "end_time": 26.7159091,
                "pitch": 68,
                "velocity": 32,
                "duration": 0.3181818,
                "tempo": 120.0
            },
            {
                "start_time": 26.7318182,
                "end_time": 27.0659091,
                "pitch": 64,
                "velocity": 32,
                "duration": 0.3340909,
                "tempo": 120.0
            },
            {
                "start_time": 27.0818182,
                "end_time": 27.4068182,
                "pitch": 61,
                "velocity": 32,
                "duration": 0.325,
                "tempo": 120.0
            },
            {
                "start_time": 27.4409091,
                "end_time": 27.7659091,
                "pitch": 64,
                "velocity": 32,
                "duration": 0.325,
                "tempo": 120.0
            },
            {
                "start_time": 27.7840909,
                "end_time": 28.1181818,
                "pitch": 66,
                "velocity": 32,
                "duration": 0.3340909,
                "tempo": 120.0
            },
            {
                "start_time": 28.1340909,
                "end_time": 28.4522727,
                "pitch": 71,
                "velocity": 32,
                "duration": 0.3181818,
                "tempo": 120.0
            },
            {
                "start_time": 28.4681818,
                "end_time": 28.8022727,
                "pitch": 59,
                "velocity": 32,
                "duration": 0.3340909,
                "tempo": 120.0
            },
            {
                "start_time": 28.8204545,
                "end_time": 29.1363636,
                "pitch": 75,
                "velocity": 32,
                "duration": 0.3159091,
                "tempo": 120.0
            },
            {
                "start_time": 29.1545455,
                "end_time": 29.4954545,
                "pitch": 68,
                "velocity": 32,
                "duration": 0.3409091,
                "tempo": 120.0
            },
            {
                "start_time": 29.5136364,
                "end_time": 29.8386364,
                "pitch": 75,
                "velocity": 32,
                "duration": 0.325,
                "tempo": 120.0
            },
            {
                "start_time": 29.8727273,
                "end_time": 30.2,
                "pitch": 63,
                "velocity": 32,
                "duration": 0.3272727,
                "tempo": 120.0
            },
            {
                "start_time": 30.2181818,
                "end_time": 30.5636364,
                "pitch": 75,
                "velocity": 32,
                "duration": 0.3454545,
                "tempo": 120.0
            },
            {
                "start_time": 30.5818182,
                "end_time": 31.25,
                "pitch": 66,
                "velocity": 32,
                "duration": 0.6681818,
                "tempo": 120.0
            },
            {
                "start_time": 31.2659091,
                "end_time": 31.95,
                "pitch": 73,
                "velocity": 32,
                "duration": 0.6840909,
                "tempo": 120.0
            },
            {
                "start_time": 31.9659091,
                "end_time": 32.2840909,
                "pitch": 69,
                "velocity": 32,
                "duration": 0.3181818,
                "tempo": 120.0
            },
            {
                "start_time": 32.3181818,
                "end_time": 32.9931818,
                "pitch": 76,
                "velocity": 32,
                "duration": 0.675,
                "tempo": 120.0
            },
            {
                "start_time": 33.0113636,
                "end_time": 33.3363636,
                "pitch": 73,
                "velocity": 32,
                "duration": 0.325,
                "tempo": 120.0
            },
            {
                "start_time": 33.3522727,
                "end_time": 34.0227273,
                "pitch": 66,
                "velocity": 32,
                "duration": 0.6704545,
                "tempo": 120.0
            },
            {
                "start_time": 34.0386364,
                "end_time": 34.7068182,
                "pitch": 73,
                "velocity": 32,
                "duration": 0.6681818,
                "tempo": 120.0
            },
            {
                "start_time": 34.7409091,
                "end_time": 35.0681818,
                "pitch": 69,
                "velocity": 32,
                "duration": 0.3272727,
                "tempo": 120.0
            },
            {
                "start_time": 35.0863636,
                "end_time": 35.4318182,
                "pitch": 71,
                "velocity": 32,
                "duration": 0.3454545,
                "tempo": 120.0
            },
            {
                "start_time": 35.45,
                "end_time": 35.7659091,
                "pitch": 73,
                "velocity": 32,
                "duration": 0.3159091,
                "tempo": 120.0
            },
            {
                "start_time": 35.7840909,
                "end_time": 36.1181818,
                "pitch": 75,
                "velocity": 32,
                "duration": 0.3340909,
                "tempo": 120.0
            },
            {
                "start_time": 36.1522727,
                "end_time": 36.8181818,
                "pitch": 52,
                "velocity": 51,
                "duration": 0.6659091,
                "tempo": 120.0
            },
            {
                "start_time": 36.8363636,
                "end_time": 37.5045455,
                "pitch": 59,
                "velocity": 51,
                "duration": 0.6681818,
                "tempo": 120.0
            },
            {
                "start_time": 37.5204545,
                "end_time": 38.1886364,
                "pitch": 64,
                "velocity": 51,
                "duration": 0.6681818,
                "tempo": 120.0
            },
            {
                "start_time": 38.2068182,
                "end_time": 38.5477273,
                "pitch": 59,
                "velocity": 51,
                "duration": 0.3409091,
                "tempo": 120.0
            },
            {
                "start_time": 38.5636364,
                "end_time": 38.8886364,
                "pitch": 60,
                "velocity": 51,
                "duration": 0.325,
                "tempo": 120.0
            },
            {
                "start_time": 38.9068182,
                "end_time": 39.575,
                "pitch": 61,
                "velocity": 51,
                "duration": 0.6681818,
                "tempo": 120.0
            },
            {
                "start_time": 39.6090909,
                "end_time": 40.3,
                "pitch": 63,
                "velocity": 51,
                "duration": 0.6909091,
                "tempo": 120.0
            },
            {
                "start_time": 40.3181818,
                "end_time": 40.9863636,
                "pitch": 64,
                "velocity": 51,
                "duration": 0.6681818,
                "tempo": 120.0
            },
            {
                "start_time": 41.0022727,
                "end_time": 41.6863636,
                "pitch": 68,
                "velocity": 51,
                "duration": 0.6840909,
                "tempo": 120.0
            },
            {
                "start_time": 41.7045455,
                "end_time": 42.0204545,
                "pitch": 69,
                "velocity": 51,
                "duration": 0.3159091,
                "tempo": 120.0
            },
            {
                "start_time": 42.0545455,
                "end_time": 42.3727273,
                "pitch": 68,
                "velocity": 51,
                "duration": 0.3181818,
                "tempo": 120.0
            },
            {
                "start_time": 42.3886364,
                "end_time": 42.7227273,
                "pitch": 66,
                "velocity": 51,
                "duration": 0.3340909,
                "tempo": 120.0
            },
            {
                "start_time": 42.7409091,
                "end_time": 43.0568182,
                "pitch": 64,
                "velocity": 51,
                "duration": 0.3159091,
                "tempo": 120.0
            },
            {
                "start_time": 43.075,
                "end_time": 43.7568182,
                "pitch": 64,
                "velocity": 51,
                "duration": 0.6818182,
                "tempo": 120.0
            },
            {
                "start_time": 43.775,
                "end_time": 44.1090909,
                "pitch": 63,
                "velocity": 51,
                "duration": 0.3340909,
                "tempo": 120.0
            },
            {
                "start_time": 44.125,
                "end_time": 44.4431818,
                "pitch": 64,
                "velocity": 51,
                "duration": 0.3181818,
                "tempo": 120.0
            },
            {
                "start_time": 44.4772727,
                "end_time": 44.8045455,
                "pitch": 61,
                "velocity": 51,
                "duration": 0.3272727,
                "tempo": 120.0
            },
            {
                "start_time": 44.8227273,
                "end_time": 46.5545455,
                "pitch": 59,
                "velocity": 51,
                "duration": 1.7318182,
                "tempo": 120.0
            },
            {
                "start_time": 58.4068182,
                "end_time": 58.725,
                "pitch": 64,
                "velocity": 40,
                "duration": 0.3181818,
                "tempo": 120.0
            },
            {
                "start_time": 58.7409091,
                "end_time": 59.0590909,
                "pitch": 68,
                "velocity": 40,
                "duration": 0.3181818,
                "tempo": 120.0
            },
            {
                "start_time": 59.0931818,
                "end_time": 59.4204545,
                "pitch": 61,
                "velocity": 40,
                "duration": 0.3272727,
                "tempo": 120.0
            },
            {
                "start_time": 59.4386364,
                "end_time": 59.7840909,
                "pitch": 64,
                "velocity": 40,
                "duration": 0.3454545,
                "tempo": 120.0
            },
            {
                "start_time": 59.8022727,
                "end_time": 60.1204545,
                "pitch": 68,
                "velocity": 40,
                "duration": 0.3181818,
                "tempo": 120.0
            },
            {
                "start_time": 60.1363636,
                "end_time": 60.4704545,
                "pitch": 64,
                "velocity": 40,
                "duration": 0.3340909,
                "tempo": 120.0
            },
            {
                "start_time": 60.4863636,
                "end_time": 60.8045455,
                "pitch": 61,
                "velocity": 40,
                "duration": 0.3181818,
                "tempo": 120.0
            },
            {
                "start_time": 60.8204545,
                "end_time": 61.1545455,
                "pitch": 64,
                "velocity": 40,
                "duration": 0.3340909,
                "tempo": 120.0
            },
            {
                "start_time": 61.1727273,
                "end_time": 61.4977273,
                "pitch": 66,
                "velocity": 40,
                "duration": 0.325,
                "tempo": 120.0
            },
            {
                "start_time": 61.5318182,
                "end_time": 61.8568182,
                "pitch": 71,
                "velocity": 40,
                "duration": 0.325,
                "tempo": 120.0
            },
            {
                "start_time": 61.8727273,
                "end_time": 62.2068182,
                "pitch": 59,
                "velocity": 40,
                "duration": 0.3340909,
                "tempo": 120.0
            },
            {
                "start_time": 62.225,
                "end_time": 62.5409091,
                "pitch": 75,
                "velocity": 40,
                "duration": 0.3159091,
                "tempo": 120.0
            },
            {
                "start_time": 62.5590909,
                "end_time": 62.8931818,
                "pitch": 68,
                "velocity": 40,
                "duration": 0.3340909,
                "tempo": 120.0
            },
            {
                "start_time": 62.9090909,
                "end_time": 63.2272727,
                "pitch": 75,
                "velocity": 40,
                "duration": 0.3181818,
                "tempo": 120.0
            },
            {
                "start_time": 63.2431818,
                "end_time": 63.5772727,
                "pitch": 63,
                "velocity": 40,
                "duration": 0.3340909,
                "tempo": 120.0
            },
            {
                "start_time": 63.5954545,
                "end_time": 63.9113636,
                "pitch": 75,
                "velocity": 40,
                "duration": 0.3159091,
                "tempo": 120.0
            },
            {
                "start_time": 63.9454545,
                "end_time": 64.6454545,
                "pitch": 66,
                "velocity": 40,
                "duration": 0.7,
                "tempo": 120.0
            },
            {
                "start_time": 64.6636364,
                "end_time": 65.3318182,
                "pitch": 73,
                "velocity": 40,
                "duration": 0.6681818,
                "tempo": 120.0
            },
            {
                "start_time": 65.3477273,
                "end_time": 65.6727273,
                "pitch": 69,
                "velocity": 40,
                "duration": 0.325,
                "tempo": 120.0
            },
            {
                "start_time": 65.6909091,
                "end_time": 66.3659091,
                "pitch": 76,
                "velocity": 40,
                "duration": 0.675,
                "tempo": 120.0
            },
            {
                "start_time": 66.4,
                "end_time": 66.7181818,
                "pitch": 73,
                "velocity": 40,
                "duration": 0.3181818,
                "tempo": 120.0
            },
            {
                "start_time": 66.7340909,
                "end_time": 67.4181818,
                "pitch": 66,
                "velocity": 40,
                "duration": 0.6840909,
                "tempo": 120.0
            },
            {
                "start_time": 67.4340909,
                "end_time": 68.1045455,
                "pitch": 73,
                "velocity": 40,
                "duration": 0.6704545,
                "tempo": 120.0
            },
            {
                "start_time": 68.1204545,
                "end_time": 68.4545455,
                "pitch": 69,
                "velocity": 40,
                "duration": 0.3340909,
                "tempo": 120.0
            },
            {
                "start_time": 68.4704545,
                "end_time": 68.7886364,
                "pitch": 71,
                "velocity": 40,
                "duration": 0.3181818,
                "tempo": 120.0
            },
            {
                "start_time": 68.8227273,
                "end_time": 69.15,
                "pitch": 73,
                "velocity": 40,
                "duration": 0.3272727,
                "tempo": 120.0
            },
            {
                "start_time": 69.1681818,
                "end_time": 69.5136364,
                "pitch": 75,
                "velocity": 40,
                "duration": 0.3454545,
                "tempo": 120.0
            },
            {
                "start_time": 69.5477273,
                "end_time": 70.5295455,
                "pitch": 73,
                "velocity": 40,
                "duration": 0.9818182,
                "tempo": 120.0
            },
            {
                "start_time": 70.5477273,
                "end_time": 72.2636364,
                "pitch": 71,
                "velocity": 40,
                "duration": 1.7159091,
                "tempo": 120.0
            }
        ],
        "Acoustic Guitar (nylon)": [
            {
                "start_time": 0.0090909,
                "end_time": 2.0227273,
                "pitch": 45,
                "velocity": 80,
                "duration": 2.0136364,
                "tempo": 120.0
            },
            {
                "start_time": 2.0386364,
                "end_time": 2.7068182,
                "pitch": 47,
                "velocity": 80,
                "duration": 0.6681818,
                "tempo": 120.0
            },
            {
                "start_time": 2.725,
                "end_time": 4.7931818,
                "pitch": 40,
                "velocity": 80,
                "duration": 2.0681818,
                "tempo": 120.0
            },
            {
                "start_time": 4.8113636,
                "end_time": 5.1454545,
                "pitch": 40,
                "velocity": 80,
                "duration": 0.3340909,
                "tempo": 120.0
            },
            {
                "start_time": 5.1613636,
                "end_time": 5.4795455,
                "pitch": 39,
                "velocity": 80,
                "duration": 0.3181818,
                "tempo": 120.0
            },
            {
                "start_time": 5.5136364,
                "end_time": 7.5909091,
                "pitch": 37,
                "velocity": 80,
                "duration": 2.0772727,
                "tempo": 120.0
            },
            {
                "start_time": 7.6090909,
                "end_time": 7.9272727,
                "pitch": 37,
                "velocity": 80,
                "duration": 0.3181818,
                "tempo": 120.0
            },
            {
                "start_time": 7.9590909,
                "end_time": 8.2772727,
                "pitch": 35,
                "velocity": 80,
                "duration": 0.3181818,
                "tempo": 120.0
            },
            {
                "start_time": 8.2931818,
                "end_time": 10.3477273,
                "pitch": 33,
                "velocity": 80,
                "duration": 2.0545455,
                "tempo": 120.0
            },
            {
                "start_time": 10.3818182,
                "end_time": 10.7090909,
                "pitch": 33,
                "velocity": 80,
                "duration": 0.3272727,
                "tempo": 120.0
            },
            {
                "start_time": 10.7272727,
                "end_time": 11.0727273,
                "pitch": 37,
                "velocity": 80,
                "duration": 0.3454545,
                "tempo": 120.0
            },
            {
                "start_time": 11.0909091,
                "end_time": 11.7590909,
                "pitch": 35,
                "velocity": 80,
                "duration": 0.6681818,
                "tempo": 120.0
            },
            {
                "start_time": 11.775,
                "end_time": 12.4590909,
                "pitch": 37,
                "velocity": 80,
                "duration": 0.6840909,
                "tempo": 120.0
            },
            {
                "start_time": 12.4772727,
                "end_time": 13.1454545,
                "pitch": 39,
                "velocity": 80,
                "duration": 0.6681818,
                "tempo": 120.0
            },
            {
                "start_time": 13.1613636,
                "end_time": 13.8454545,
                "pitch": 35,
                "velocity": 80,
                "duration": 0.6840909,
                "tempo": 120.0
            },
            {
                "start_time": 13.8636364,
                "end_time": 15.9409091,
                "pitch": 40,
                "velocity": 80,
                "duration": 2.0772727,
                "tempo": 120.0
            },
            {
                "start_time": 15.9590909,
                "end_time": 16.2772727,
                "pitch": 40,
                "velocity": 80,
                "duration": 0.3181818,
                "tempo": 120.0
            },
            {
                "start_time": 16.2931818,
                "end_time": 16.6272727,
                "pitch": 39,
                "velocity": 80,
                "duration": 0.3340909,
                "tempo": 120.0
            },
            {
                "start_time": 16.6454545,
                "end_time": 18.7068182,
                "pitch": 37,
                "velocity": 80,
                "duration": 2.0613636,
                "tempo": 120.0
            },
            {
                "start_time": 18.7227273,
                "end_time": 19.0659091,
                "pitch": 37,
                "velocity": 80,
                "duration": 0.3431818,
                "tempo": 120.0
            },
            {
                "start_time": 19.0818182,
                "end_time": 19.4068182,
                "pitch": 35,
                "velocity": 80,
                "duration": 0.325,
                "tempo": 120.0
            },
            {
                "start_time": 19.425,
                "end_time": 21.4954545,
                "pitch": 33,
                "velocity": 80,
                "duration": 2.0704545,
                "tempo": 120.0
            },
            {
                "start_time": 21.5136364,
                "end_time": 21.8409091,
                "pitch": 33,
                "velocity": 80,
                "duration": 0.3272727,
                "tempo": 120.0
            },
            {
                "start_time": 21.8590909,
                "end_time": 22.2045455,
                "pitch": 37,
                "velocity": 80,
                "duration": 0.3454545,
                "tempo": 120.0
            },
            {
                "start_time": 22.2227273,
                "end_time": 22.9068182,
                "pitch": 35,
                "velocity": 80,
                "duration": 0.6840909,
                "tempo": 120.0
            },
            {
                "start_time": 22.9227273,
                "end_time": 23.5840909,
                "pitch": 37,
                "velocity": 80,
                "duration": 0.6613636,
                "tempo": 120.0
            },
            {
                "start_time": 23.6,
                "end_time": 24.2840909,
                "pitch": 39,
                "velocity": 80,
                "duration": 0.6840909,
                "tempo": 120.0
            },
            {
                "start_time": 24.3022727,
                "end_time": 24.9704545,
                "pitch": 40,
                "velocity": 80,
                "duration": 0.6681818,
                "tempo": 120.0
            },
            {
                "start_time": 25.0022727,
                "end_time": 27.7659091,
                "pitch": 45,
                "velocity": 80,
                "duration": 2.7636364,
                "tempo": 120.0
            },
            {
                "start_time": 27.7840909,
                "end_time": 30.5636364,
                "pitch": 44,
                "velocity": 80,
                "duration": 2.7795455,
                "tempo": 120.0
            },
            {
                "start_time": 30.5818182,
                "end_time": 30.8977273,
                "pitch": 42,
                "velocity": 80,
                "duration": 0.3159091,
                "tempo": 120.0
            },
            {
                "start_time": 30.9159091,
                "end_time": 31.25,
                "pitch": 42,
                "velocity": 80,
                "duration": 0.3340909,
                "tempo": 120.0
            },
            {
                "start_time": 31.2659091,
                "end_time": 31.5909091,
                "pitch": 40,
                "velocity": 80,
                "duration": 0.325,
                "tempo": 120.0
            },
            {
                "start_time": 31.6090909,
                "end_time": 31.95,
                "pitch": 40,
                "velocity": 80,
                "duration": 0.3409091,
                "tempo": 120.0
            },
            {
                "start_time": 31.9659091,
                "end_time": 32.2840909,
                "pitch": 37,
                "velocity": 80,
                "duration": 0.3181818,
                "tempo": 120.0
            },
            {
                "start_time": 32.3181818,
                "end_time": 32.9931818,
                "pitch": 35,
                "velocity": 80,
                "duration": 0.675,
                "tempo": 120.0
            },
            {
                "start_time": 33.0113636,
                "end_time": 33.3363636,
                "pitch": 37,
                "velocity": 80,
                "duration": 0.325,
                "tempo": 120.0
            },
            {
                "start_time": 33.3522727,
                "end_time": 33.6863636,
                "pitch": 35,
                "velocity": 80,
                "duration": 0.3340909,
                "tempo": 120.0
            },
            {
                "start_time": 33.7045455,
                "end_time": 34.0227273,
                "pitch": 35,
                "velocity": 80,
                "duration": 0.3181818,
                "tempo": 120.0
            },
            {
                "start_time": 34.0386364,
                "end_time": 34.3727273,
                "pitch": 33,
                "velocity": 80,
                "duration": 0.3340909,
                "tempo": 120.0
            },
            {
                "start_time": 34.3886364,
                "end_time": 34.7068182,
                "pitch": 33,
                "velocity": 80,
                "duration": 0.3181818,
                "tempo": 120.0
            },
            {
                "start_time": 34.7409091,
                "end_time": 35.0681818,
                "pitch": 35,
                "velocity": 80,
                "duration": 0.3272727,
                "tempo": 120.0
            },
            {
                "start_time": 35.0863636,
                "end_time": 35.4318182,
                "pitch": 37,
                "velocity": 80,
                "duration": 0.3454545,
                "tempo": 120.0
            },
            {
                "start_time": 35.45,
                "end_time": 35.7659091,
                "pitch": 39,
                "velocity": 80,
                "duration": 0.3159091,
                "tempo": 120.0
            },
            {
                "start_time": 35.7840909,
                "end_time": 36.1181818,
                "pitch": 35,
                "velocity": 80,
                "duration": 0.3340909,
                "tempo": 120.0
            },
            {
                "start_time": 36.1340909,
                "end_time": 38.1886364,
                "pitch": 40,
                "velocity": 80,
                "duration": 2.0545455,
                "tempo": 120.0
            },
            {
                "start_time": 38.2068182,
                "end_time": 38.5477273,
                "pitch": 40,
                "velocity": 80,
                "duration": 0.3409091,
                "tempo": 120.0
            },
            {
                "start_time": 38.5636364,
                "end_time": 38.8886364,
                "pitch": 39,
                "velocity": 80,
                "duration": 0.325,
                "tempo": 120.0
            },
            {
                "start_time": 38.9068182,
                "end_time": 40.9863636,
                "pitch": 37,
                "velocity": 80,
                "duration": 2.0795455,
                "tempo": 120.0
            },
            {
                "start_time": 41.0022727,
                "end_time": 41.3272727,
                "pitch": 37,
                "velocity": 80,
                "duration": 0.325,
                "tempo": 120.0
            },
            {
                "start_time": 41.3454545,
                "end_time": 41.6863636,
                "pitch": 35,
                "velocity": 80,
                "duration": 0.3409091,
                "tempo": 120.0
            },
            {
                "start_time": 41.7045455,
                "end_time": 43.7568182,
                "pitch": 33,
                "velocity": 80,
                "duration": 2.0522727,
                "tempo": 120.0
            },
            {
                "start_time": 43.775,
                "end_time": 44.1090909,
                "pitch": 33,
                "velocity": 80,
                "duration": 0.3340909,
                "tempo": 120.0
            },
            {
                "start_time": 44.125,
                "end_time": 44.4431818,
                "pitch": 37,
                "velocity": 80,
                "duration": 0.3181818,
                "tempo": 120.0
            },
            {
                "start_time": 44.4772727,
                "end_time": 45.1681818,
                "pitch": 35,
                "velocity": 80,
                "duration": 0.6909091,
                "tempo": 120.0
            },
            {
                "start_time": 45.1863636,
                "end_time": 45.8545455,
                "pitch": 37,
                "velocity": 80,
                "duration": 0.6681818,
                "tempo": 120.0
            },
            {
                "start_time": 45.8704545,
                "end_time": 46.5545455,
                "pitch": 39,
                "velocity": 80,
                "duration": 0.6840909,
                "tempo": 120.0
            },
            {
                "start_time": 46.5727273,
                "end_time": 47.2568182,
                "pitch": 35,
                "velocity": 80,
                "duration": 0.6840909,
                "tempo": 120.0
            },
            {
                "start_time": 47.2727273,
                "end_time": 49.2977273,
                "pitch": 40,
                "velocity": 80,
                "duration": 2.025,
                "tempo": 120.0
            },
            {
                "start_time": 49.3295455,
                "end_time": 49.6659091,
                "pitch": 40,
                "velocity": 80,
                "duration": 0.3363636,
                "tempo": 120.0
            },
            {
                "start_time": 49.6840909,
                "end_time": 50.0386364,
                "pitch": 39,
                "velocity": 80,
                "duration": 0.3545455,
                "tempo": 120.0
            },
            {
                "start_time": 50.0545455,
                "end_time": 52.1113636,
                "pitch": 37,
                "velocity": 80,
                "duration": 2.0568182,
                "tempo": 120.0
            },
            {
                "start_time": 52.1272727,
                "end_time": 52.4727273,
                "pitch": 37,
                "velocity": 80,
                "duration": 0.3454545,
                "tempo": 120.0
            },
            {
                "start_time": 52.4909091,
                "end_time": 52.8204545,
                "pitch": 35,
                "velocity": 80,
                "duration": 0.3295455,
                "tempo": 120.0
            },
            {
                "start_time": 52.8363636,
                "end_time": 54.9159091,
                "pitch": 33,
                "velocity": 80,
                "duration": 2.0795455,
                "tempo": 120.0
            },
            {
                "start_time": 54.9340909,
                "end_time": 55.2522727,
                "pitch": 33,
                "velocity": 80,
                "duration": 0.3181818,
                "tempo": 120.0
            },
            {
                "start_time": 55.2681818,
                "end_time": 55.6022727,
                "pitch": 37,
                "velocity": 80,
                "duration": 0.3340909,
                "tempo": 120.0
            },
            {
                "start_time": 55.6181818,
                "end_time": 56.3022727,
                "pitch": 35,
                "velocity": 80,
                "duration": 0.6840909,
                "tempo": 120.0
            },
            {
                "start_time": 56.3204545,
                "end_time": 56.9886364,
                "pitch": 37,
                "velocity": 80,
                "duration": 0.6681818,
                "tempo": 120.0
            },
            {
                "start_time": 57.0045455,
                "end_time": 57.6727273,
                "pitch": 39,
                "velocity": 80,
                "duration": 0.6681818,
                "tempo": 120.0
            },
            {
                "start_time": 57.6909091,
                "end_time": 58.3727273,
                "pitch": 40,
                "velocity": 80,
                "duration": 0.6818182,
                "tempo": 120.0
            },
            {
                "start_time": 58.3909091,
                "end_time": 61.1545455,
                "pitch": 45,
                "velocity": 80,
                "duration": 2.7636364,
                "tempo": 120.0
            },
            {
                "start_time": 61.1727273,
                "end_time": 63.9113636,
                "pitch": 44,
                "velocity": 80,
                "duration": 2.7386364,
                "tempo": 120.0
            },
            {
                "start_time": 63.9454545,
                "end_time": 64.2772727,
                "pitch": 42,
                "velocity": 80,
                "duration": 0.3318182,
                "tempo": 120.0
            },
            {
                "start_time": 64.2954545,
                "end_time": 64.6454545,
                "pitch": 42,
                "velocity": 80,
                "duration": 0.35,
                "tempo": 120.0
            },
            {
                "start_time": 64.6636364,
                "end_time": 64.9795455,
                "pitch": 40,
                "velocity": 80,
                "duration": 0.3159091,
                "tempo": 120.0
            },
            {
                "start_time": 64.9977273,
                "end_time": 65.3318182,
                "pitch": 40,
                "velocity": 80,
                "duration": 0.3340909,
                "tempo": 120.0
            },
            {
                "start_time": 65.3477273,
                "end_time": 65.6727273,
                "pitch": 37,
                "velocity": 80,
                "duration": 0.325,
                "tempo": 120.0
            },
            {
                "start_time": 65.6909091,
                "end_time": 66.3659091,
                "pitch": 35,
                "velocity": 80,
                "duration": 0.675,
                "tempo": 120.0
            },
            {
                "start_time": 66.4,
                "end_time": 66.7181818,
                "pitch": 37,
                "velocity": 80,
                "duration": 0.3181818,
                "tempo": 120.0
            },
            {
                "start_time": 66.7340909,
                "end_time": 67.075,
                "pitch": 35,
                "velocity": 80,
                "duration": 0.3409091,
                "tempo": 120.0
            },
            {
                "start_time": 67.0931818,
                "end_time": 67.4181818,
                "pitch": 35,
                "velocity": 80,
                "duration": 0.325,
                "tempo": 120.0
            },
            {
                "start_time": 67.4340909,
                "end_time": 67.7681818,
                "pitch": 33,
                "velocity": 80,
                "duration": 0.3340909,
                "tempo": 120.0
            },
            {
                "start_time": 67.7863636,
                "end_time": 68.1045455,
                "pitch": 33,
                "velocity": 80,
                "duration": 0.3181818,
                "tempo": 120.0
            },
            {
                "start_time": 68.1204545,
                "end_time": 68.4545455,
                "pitch": 35,
                "velocity": 80,
                "duration": 0.3340909,
                "tempo": 120.0
            },
            {
                "start_time": 68.4704545,
                "end_time": 68.7886364,
                "pitch": 37,
                "velocity": 80,
                "duration": 0.3181818,
                "tempo": 120.0
            },
            {
                "start_time": 68.8227273,
                "end_time": 69.15,
                "pitch": 39,
                "velocity": 80,
                "duration": 0.3272727,
                "tempo": 120.0
            },
            {
                "start_time": 69.1681818,
                "end_time": 69.5136364,
                "pitch": 35,
                "velocity": 80,
                "duration": 0.3454545,
                "tempo": 120.0
            },
            {
                "start_time": 69.5318182,
                "end_time": 72.2636364,
                "pitch": 40,
                "velocity": 80,
                "duration": 2.7318182,
                "tempo": 120.0
            }
        ],
        "Violin": [
            {
                "start_time": 25.0545455,
                "end_time": 25.3840909,
                "pitch": 80,
                "velocity": 51,
                "duration": 0.3295455,
                "tempo": 120.0
            },
            {
                "start_time": 25.4181818,
                "end_time": 25.7454545,
                "pitch": 73,
                "velocity": 51,
                "duration": 0.3272727,
                "tempo": 120.0
            },
            {
                "start_time": 25.7613636,
                "end_time": 26.0977273,
                "pitch": 76,
                "velocity": 51,
                "duration": 0.3363636,
                "tempo": 120.0
            },
            {
                "start_time": 26.1136364,
                "end_time": 26.4318182,
                "pitch": 78,
                "velocity": 51,
                "duration": 0.3181818,
                "tempo": 120.0
            },
            {
                "start_time": 26.4477273,
                "end_time": 26.7818182,
                "pitch": 80,
                "velocity": 51,
                "duration": 0.3340909,
                "tempo": 120.0
            },
            {
                "start_time": 26.7977273,
                "end_time": 27.1159091,
                "pitch": 78,
                "velocity": 51,
                "duration": 0.3181818,
                "tempo": 120.0
            },
            {
                "start_time": 27.1340909,
                "end_time": 27.475,
                "pitch": 83,
                "velocity": 51,
                "duration": 0.3409091,
                "tempo": 120.0
            },
            {
                "start_time": 27.4931818,
                "end_time": 27.8159091,
                "pitch": 81,
                "velocity": 51,
                "duration": 0.3227273,
                "tempo": 120.0
            },
            {
                "start_time": 27.85,
                "end_time": 28.1681818,
                "pitch": 80,
                "velocity": 51,
                "duration": 0.3181818,
                "tempo": 120.0
            },
            {
                "start_time": 28.1840909,
                "end_time": 28.5181818,
                "pitch": 81,
                "velocity": 51,
                "duration": 0.3340909,
                "tempo": 120.0
            },
            {
                "start_time": 28.5363636,
                "end_time": 28.8522727,
                "pitch": 83,
                "velocity": 51,
                "duration": 0.3159091,
                "tempo": 120.0
            },
            {
                "start_time": 28.8704545,
                "end_time": 29.2045455,
                "pitch": 80,
                "velocity": 51,
                "duration": 0.3340909,
                "tempo": 120.0
            },
            {
                "start_time": 29.2227273,
                "end_time": 29.5477273,
                "pitch": 78,
                "velocity": 51,
                "duration": 0.325,
                "tempo": 120.0
            },
            {
                "start_time": 29.5636364,
                "end_time": 29.9068182,
                "pitch": 80,
                "velocity": 51,
                "duration": 0.3431818,
                "tempo": 120.0
            },
            {
                "start_time": 29.9227273,
                "end_time": 30.2522727,
                "pitch": 76,
                "velocity": 51,
                "duration": 0.3295455,
                "tempo": 120.0
            },
            {
                "start_time": 30.2863636,
                "end_time": 30.6136364,
                "pitch": 75,
                "velocity": 51,
                "duration": 0.3272727,
                "tempo": 120.0
            },
            {
                "start_time": 30.6318182,
                "end_time": 31.3,
                "pitch": 73,
                "velocity": 51,
                "duration": 0.6681818,
                "tempo": 120.0
            },
            {
                "start_time": 31.3181818,
                "end_time": 32.0,
                "pitch": 80,
                "velocity": 51,
                "duration": 0.6818182,
                "tempo": 120.0
            },
            {
                "start_time": 32.0181818,
                "end_time": 32.3522727,
                "pitch": 76,
                "velocity": 51,
                "duration": 0.3340909,
                "tempo": 120.0
            },
            {
                "start_time": 32.3681818,
                "end_time": 33.0454545,
                "pitch": 83,
                "velocity": 51,
                "duration": 0.6772727,
                "tempo": 120.0
            },
            {
                "start_time": 33.0613636,
                "end_time": 33.4022727,
                "pitch": 76,
                "velocity": 51,
                "duration": 0.3409091,
                "tempo": 120.0
            },
            {
                "start_time": 33.4204545,
                "end_time": 34.0886364,
                "pitch": 73,
                "velocity": 51,
                "duration": 0.6681818,
                "tempo": 120.0
            },
            {
                "start_time": 34.1045455,
                "end_time": 34.775,
                "pitch": 80,
                "velocity": 51,
                "duration": 0.6704545,
                "tempo": 120.0
            },
            {
                "start_time": 34.7909091,
                "end_time": 35.1204545,
                "pitch": 81,
                "velocity": 51,
                "duration": 0.3295455,
                "tempo": 120.0
            },
            {
                "start_time": 35.1545455,
                "end_time": 35.4818182,
                "pitch": 83,
                "velocity": 51,
                "duration": 0.3272727,
                "tempo": 120.0
            },
            {
                "start_time": 35.5,
                "end_time": 35.8340909,
                "pitch": 85,
                "velocity": 51,
                "duration": 0.3340909,
                "tempo": 120.0
            },
            {
                "start_time": 35.85,
                "end_time": 36.1681818,
                "pitch": 87,
                "velocity": 51,
                "duration": 0.3181818,
                "tempo": 120.0
            },
            {
                "start_time": 58.4568182,
                "end_time": 58.775,
                "pitch": 80,
                "velocity": 51,
                "duration": 0.3181818,
                "tempo": 120.0
            },
            {
                "start_time": 58.7931818,
                "end_time": 59.1272727,
                "pitch": 73,
                "velocity": 51,
                "duration": 0.3340909,
                "tempo": 120.0
            },
            {
                "start_time": 59.1454545,
                "end_time": 59.4727273,
                "pitch": 76,
                "velocity": 51,
                "duration": 0.3272727,
                "tempo": 120.0
            },
            {
                "start_time": 59.5068182,
                "end_time": 59.8363636,
                "pitch": 78,
                "velocity": 51,
                "duration": 0.3295455,
                "tempo": 120.0
            },
            {
                "start_time": 59.8522727,
                "end_time": 60.1863636,
                "pitch": 80,
                "velocity": 51,
                "duration": 0.3340909,
                "tempo": 120.0
            },
            {
                "start_time": 60.2022727,
                "end_time": 60.5204545,
                "pitch": 78,
                "velocity": 51,
                "duration": 0.3181818,
                "tempo": 120.0
            },
            {
                "start_time": 60.5363636,
                "end_time": 60.8704545,
                "pitch": 83,
                "velocity": 51,
                "duration": 0.3340909,
                "tempo": 120.0
            },
            {
                "start_time": 60.8886364,
                "end_time": 61.2068182,
                "pitch": 81,
                "velocity": 51,
                "duration": 0.3181818,
                "tempo": 120.0
            },
            {
                "start_time": 61.2227273,
                "end_time": 61.5659091,
                "pitch": 80,
                "velocity": 51,
                "duration": 0.3431818,
                "tempo": 120.0
            },
            {
                "start_time": 61.5818182,
                "end_time": 61.9068182,
                "pitch": 81,
                "velocity": 51,
                "duration": 0.325,
                "tempo": 120.0
            },
            {
                "start_time": 61.9409091,
                "end_time": 62.2568182,
                "pitch": 83,
                "velocity": 51,
                "duration": 0.3159091,
                "tempo": 120.0
            },
            {
                "start_time": 62.275,
                "end_time": 62.6090909,
                "pitch": 80,
                "velocity": 51,
                "duration": 0.3340909,
                "tempo": 120.0
            },
            {
                "start_time": 62.625,
                "end_time": 62.9431818,
                "pitch": 78,
                "velocity": 51,
                "duration": 0.3181818,
                "tempo": 120.0
            },
            {
                "start_time": 62.9590909,
                "end_time": 63.2931818,
                "pitch": 80,
                "velocity": 51,
                "duration": 0.3340909,
                "tempo": 120.0
            },
            {
                "start_time": 63.3113636,
                "end_time": 63.6272727,
                "pitch": 76,
                "velocity": 51,
                "duration": 0.3159091,
                "tempo": 120.0
            },
            {
                "start_time": 63.6454545,
                "end_time": 63.9795455,
                "pitch": 75,
                "velocity": 51,
                "duration": 0.3340909,
                "tempo": 120.0
            },
            {
                "start_time": 63.9977273,
                "end_time": 64.6954545,
                "pitch": 73,
                "velocity": 51,
                "duration": 0.6977273,
                "tempo": 120.0
            },
            {
                "start_time": 64.7136364,
                "end_time": 65.3818182,
                "pitch": 80,
                "velocity": 51,
                "duration": 0.6681818,
                "tempo": 120.0
            },
            {
                "start_time": 65.4,
                "end_time": 65.7409091,
                "pitch": 76,
                "velocity": 51,
                "duration": 0.3409091,
                "tempo": 120.0
            },
            {
                "start_time": 65.7590909,
                "end_time": 66.4340909,
                "pitch": 83,
                "velocity": 51,
                "duration": 0.675,
                "tempo": 120.0
            },
            {
                "start_time": 66.45,
                "end_time": 66.7681818,
                "pitch": 76,
                "velocity": 51,
                "duration": 0.3181818,
                "tempo": 120.0
            },
            {
                "start_time": 66.8022727,
                "end_time": 67.4863636,
                "pitch": 73,
                "velocity": 51,
                "duration": 0.6840909,
                "tempo": 120.0
            },
            {
                "start_time": 67.5022727,
                "end_time": 68.1704545,
                "pitch": 80,
                "velocity": 51,
                "duration": 0.6681818,
                "tempo": 120.0
            },
            {
                "start_time": 68.1863636,
                "end_time": 68.5045455,
                "pitch": 81,
                "velocity": 51,
                "duration": 0.3181818,
                "tempo": 120.0
            },
            {
                "start_time": 68.5204545,
                "end_time": 68.8568182,
                "pitch": 83,
                "velocity": 51,
                "duration": 0.3363636,
                "tempo": 120.0
            },
            {
                "start_time": 68.8727273,
                "end_time": 69.2022727,
                "pitch": 85,
                "velocity": 51,
                "duration": 0.3295455,
                "tempo": 120.0
            },
            {
                "start_time": 69.2363636,
                "end_time": 69.5636364,
                "pitch": 87,
                "velocity": 51,
                "duration": 0.3272727,
                "tempo": 120.0
            },
            {
                "start_time": 69.5818182,
                "end_time": 72.3318182,
                "pitch": 88,
                "velocity": 51,
                "duration": 2.75,
                "tempo": 120.0
            }
        ],
        "Trumpet": [
            {
                "start_time": 13.8636364,
                "end_time": 14.5318182,
                "pitch": 76,
                "velocity": 40,
                "duration": 0.6681818,
                "tempo": 120.0
            },
            {
                "start_time": 14.5477273,
                "end_time": 15.2090909,
                "pitch": 83,
                "velocity": 40,
                "duration": 0.6613636,
                "tempo": 120.0
            },
            {
                "start_time": 15.2409091,
                "end_time": 15.9409091,
                "pitch": 88,
                "velocity": 40,
                "duration": 0.7,
                "tempo": 120.0
            },
            {
                "start_time": 15.9590909,
                "end_time": 16.2772727,
                "pitch": 83,
                "velocity": 40,
                "duration": 0.3181818,
                "tempo": 120.0
            },
            {
                "start_time": 16.2931818,
                "end_time": 16.6272727,
                "pitch": 84,
                "velocity": 40,
                "duration": 0.3340909,
                "tempo": 120.0
            },
            {
                "start_time": 16.6454545,
                "end_time": 17.3272727,
                "pitch": 85,
                "velocity": 40,
                "duration": 0.6818182,
                "tempo": 120.0
            },
            {
                "start_time": 17.3454545,
                "end_time": 18.0068182,
                "pitch": 87,
                "velocity": 40,
                "duration": 0.6613636,
                "tempo": 120.0
            },
            {
                "start_time": 18.0227273,
                "end_time": 18.7068182,
                "pitch": 88,
                "velocity": 40,
                "duration": 0.6840909,
                "tempo": 120.0
            },
            {
                "start_time": 18.7227273,
                "end_time": 19.4068182,
                "pitch": 92,
                "velocity": 40,
                "duration": 0.6840909,
                "tempo": 120.0
            },
            {
                "start_time": 19.425,
                "end_time": 19.7590909,
                "pitch": 93,
                "velocity": 40,
                "duration": 0.3340909,
                "tempo": 120.0
            },
            {
                "start_time": 19.775,
                "end_time": 20.0931818,
                "pitch": 92,
                "velocity": 40,
                "duration": 0.3181818,
                "tempo": 120.0
            },
            {
                "start_time": 20.1272727,
                "end_time": 20.4545455,
                "pitch": 90,
                "velocity": 40,
                "duration": 0.3272727,
                "tempo": 120.0
            },
            {
                "start_time": 20.4727273,
                "end_time": 20.8181818,
                "pitch": 88,
                "velocity": 40,
                "duration": 0.3454545,
                "tempo": 120.0
            },
            {
                "start_time": 20.8363636,
                "end_time": 21.4954545,
                "pitch": 88,
                "velocity": 40,
                "duration": 0.6590909,
                "tempo": 120.0
            },
            {
                "start_time": 21.5136364,
                "end_time": 21.8409091,
                "pitch": 87,
                "velocity": 40,
                "duration": 0.3272727,
                "tempo": 120.0
            },
            {
                "start_time": 21.8590909,
                "end_time": 22.2045455,
                "pitch": 88,
                "velocity": 40,
                "duration": 0.3454545,
                "tempo": 120.0
            },
            {
                "start_time": 22.2227273,
                "end_time": 24.9704545,
                "pitch": 90,
                "velocity": 40,
                "duration": 2.7477273,
                "tempo": 120.0
            },
            {
                "start_time": 47.2727273,
                "end_time": 47.9409091,
                "pitch": 76,
                "velocity": 51,
                "duration": 0.6681818,
                "tempo": 120.0
            },
            {
                "start_time": 47.9590909,
                "end_time": 48.6181818,
                "pitch": 83,
                "velocity": 51,
                "duration": 0.6590909,
                "tempo": 120.0
            },
            {
                "start_time": 48.6363636,
                "end_time": 49.2977273,
                "pitch": 88,
                "velocity": 51,
                "duration": 0.6613636,
                "tempo": 120.0
            },
            {
                "start_time": 49.3295455,
                "end_time": 49.6659091,
                "pitch": 83,
                "velocity": 51,
                "duration": 0.3363636,
                "tempo": 120.0
            },
            {
                "start_time": 49.6840909,
                "end_time": 50.0386364,
                "pitch": 84,
                "velocity": 51,
                "duration": 0.3545455,
                "tempo": 120.0
            },
            {
                "start_time": 50.0545455,
                "end_time": 50.7409091,
                "pitch": 85,
                "velocity": 51,
                "duration": 0.6863636,
                "tempo": 120.0
            },
            {
                "start_time": 50.7568182,
                "end_time": 51.4113636,
                "pitch": 87,
                "velocity": 51,
                "duration": 0.6545455,
                "tempo": 120.0
            },
            {
                "start_time": 51.4272727,
                "end_time": 52.1113636,
                "pitch": 88,
                "velocity": 51,
                "duration": 0.6840909,
                "tempo": 120.0
            },
            {
                "start_time": 52.1272727,
                "end_time": 52.8204545,
                "pitch": 92,
                "velocity": 51,
                "duration": 0.6931818,
                "tempo": 120.0
            },
            {
                "start_time": 52.8363636,
                "end_time": 53.1704545,
                "pitch": 93,
                "velocity": 51,
                "duration": 0.3340909,
                "tempo": 120.0
            },
            {
                "start_time": 53.1886364,
                "end_time": 53.5068182,
                "pitch": 92,
                "velocity": 51,
                "duration": 0.3181818,
                "tempo": 120.0
            },
            {
                "start_time": 53.5227273,
                "end_time": 53.8522727,
                "pitch": 90,
                "velocity": 51,
                "duration": 0.3295455,
                "tempo": 120.0
            },
            {
                "start_time": 53.8704545,
                "end_time": 54.1840909,
                "pitch": 88,
                "velocity": 51,
                "duration": 0.3136364,
                "tempo": 120.0
            },
            {
                "start_time": 54.2159091,
                "end_time": 54.9159091,
                "pitch": 88,
                "velocity": 51,
                "duration": 0.7,
                "tempo": 120.0
            },
            {
                "start_time": 54.9340909,
                "end_time": 55.2522727,
                "pitch": 87,
                "velocity": 51,
                "duration": 0.3181818,
                "tempo": 120.0
            },
            {
                "start_time": 55.2681818,
                "end_time": 55.6022727,
                "pitch": 88,
                "velocity": 51,
                "duration": 0.3340909,
                "tempo": 120.0
            },
            {
                "start_time": 55.6181818,
                "end_time": 58.3727273,
                "pitch": 90,
                "velocity": 51,
                "duration": 2.7545455,
                "tempo": 120.0
            }
        ],
        "Acoustic Grand Piano": [
            {
                "start_time": 0.0090909,
                "end_time": 0.025,
                "pitch": 65,
                "velocity": 51,
                "duration": 0.0159091,
                "tempo": 120.0
            },
            {
                "start_time": 0.0409091,
                "end_time": 2.0727273,
                "pitch": 57,
                "velocity": 51,
                "duration": 2.0318182,
                "tempo": 120.0
            },
            {
                "start_time": 2.0886364,
                "end_time": 2.7590909,
                "pitch": 59,
                "velocity": 51,
                "duration": 0.6704545,
                "tempo": 120.0
            },
            {
                "start_time": 2.775,
                "end_time": 4.8613636,
                "pitch": 52,
                "velocity": 51,
                "duration": 2.0863636,
                "tempo": 120.0
            },
            {
                "start_time": 4.8772727,
                "end_time": 5.1954545,
                "pitch": 52,
                "velocity": 51,
                "duration": 0.3181818,
                "tempo": 120.0
            },
            {
                "start_time": 5.2136364,
                "end_time": 5.5477273,
                "pitch": 51,
                "velocity": 51,
                "duration": 0.3340909,
                "tempo": 120.0
            },
            {
                "start_time": 5.5659091,
                "end_time": 7.6431818,
                "pitch": 49,
                "velocity": 51,
                "duration": 2.0772727,
                "tempo": 120.0
            },
            {
                "start_time": 7.6590909,
                "end_time": 7.9931818,
                "pitch": 49,
                "velocity": 51,
                "duration": 0.3340909,
                "tempo": 120.0
            },
            {
                "start_time": 8.0090909,
                "end_time": 8.3272727,
                "pitch": 47,
                "velocity": 51,
                "duration": 0.3181818,
                "tempo": 120.0
            },
            {
                "start_time": 8.3613636,
                "end_time": 10.4159091,
                "pitch": 45,
                "velocity": 51,
                "duration": 2.0545455,
                "tempo": 120.0
            },
            {
                "start_time": 10.4340909,
                "end_time": 10.7613636,
                "pitch": 45,
                "velocity": 51,
                "duration": 0.3272727,
                "tempo": 120.0
            },
            {
                "start_time": 10.7977273,
                "end_time": 11.125,
                "pitch": 49,
                "velocity": 51,
                "duration": 0.3272727,
                "tempo": 120.0
            },
            {
                "start_time": 11.1409091,
                "end_time": 11.8090909,
                "pitch": 47,
                "velocity": 51,
                "duration": 0.6681818,
                "tempo": 120.0
            },
            {
                "start_time": 11.8272727,
                "end_time": 12.5113636,
                "pitch": 49,
                "velocity": 51,
                "duration": 0.6840909,
                "tempo": 120.0
            },
            {
                "start_time": 12.5272727,
                "end_time": 13.1954545,
                "pitch": 51,
                "velocity": 51,
                "duration": 0.6681818,
                "tempo": 120.0
            },
            {
                "start_time": 13.2295455,
                "end_time": 13.9136364,
                "pitch": 47,
                "velocity": 51,
                "duration": 0.6840909,
                "tempo": 120.0
            },
            {
                "start_time": 13.9295455,
                "end_time": 15.9931818,
                "pitch": 52,
                "velocity": 51,
                "duration": 2.0636364,
                "tempo": 120.0
            },
            {
                "start_time": 16.0090909,
                "end_time": 16.3431818,
                "pitch": 52,
                "velocity": 51,
                "duration": 0.3340909,
                "tempo": 120.0
            },
            {
                "start_time": 16.3613636,
                "end_time": 16.6795455,
                "pitch": 51,
                "velocity": 51,
                "duration": 0.3181818,
                "tempo": 120.0
            },
            {
                "start_time": 16.6954545,
                "end_time": 18.775,
                "pitch": 49,
                "velocity": 51,
                "duration": 2.0795455,
                "tempo": 120.0
            },
            {
                "start_time": 18.7931818,
                "end_time": 19.1159091,
                "pitch": 49,
                "velocity": 51,
                "duration": 0.3227273,
                "tempo": 120.0
            },
            {
                "start_time": 19.1340909,
                "end_time": 19.475,
                "pitch": 47,
                "velocity": 51,
                "duration": 0.3409091,
                "tempo": 120.0
            },
            {
                "start_time": 19.4909091,
                "end_time": 21.5477273,
                "pitch": 45,
                "velocity": 51,
                "duration": 2.0568182,
                "tempo": 120.0
            },
            {
                "start_time": 21.5636364,
                "end_time": 21.9113636,
                "pitch": 45,
                "velocity": 51,
                "duration": 0.3477273,
                "tempo": 120.0
            },
            {
                "start_time": 21.9272727,
                "end_time": 22.2568182,
                "pitch": 49,
                "velocity": 51,
                "duration": 0.3295455,
                "tempo": 120.0
            },
            {
                "start_time": 22.2727273,
                "end_time": 22.9568182,
                "pitch": 47,
                "velocity": 51,
                "duration": 0.6840909,
                "tempo": 120.0
            },
            {
                "start_time": 22.9886364,
                "end_time": 23.6522727,
                "pitch": 49,
                "velocity": 51,
                "duration": 0.6636364,
                "tempo": 120.0
            },
            {
                "start_time": 23.6681818,
                "end_time": 24.3522727,
                "pitch": 51,
                "velocity": 51,
                "duration": 0.6840909,
                "tempo": 120.0
            },
            {
                "start_time": 24.3681818,
                "end_time": 25.0386364,
                "pitch": 52,
                "velocity": 51,
                "duration": 0.6704545,
                "tempo": 120.0
            },
            {
                "start_time": 25.0545455,
                "end_time": 27.8159091,
                "pitch": 57,
                "velocity": 51,
                "duration": 2.7613636,
                "tempo": 120.0
            },
            {
                "start_time": 27.85,
                "end_time": 30.6136364,
                "pitch": 56,
                "velocity": 51,
                "duration": 2.7636364,
                "tempo": 120.0
            },
            {
                "start_time": 30.6318182,
                "end_time": 30.9659091,
                "pitch": 54,
                "velocity": 51,
                "duration": 0.3340909,
                "tempo": 120.0
            },
            {
                "start_time": 30.9818182,
                "end_time": 31.3,
                "pitch": 54,
                "velocity": 51,
                "duration": 0.3181818,
                "tempo": 120.0
            },
            {
                "start_time": 31.3181818,
                "end_time": 31.6590909,
                "pitch": 52,
                "velocity": 51,
                "duration": 0.3409091,
                "tempo": 120.0
            },
            {
                "start_time": 31.6772727,
                "end_time": 32.0,
                "pitch": 52,
                "velocity": 51,
                "duration": 0.3227273,
                "tempo": 120.0
            },
            {
                "start_time": 32.0181818,
                "end_time": 32.3522727,
                "pitch": 49,
                "velocity": 51,
                "duration": 0.3340909,
                "tempo": 120.0
            },
            {
                "start_time": 32.3681818,
                "end_time": 33.0454545,
                "pitch": 47,
                "velocity": 51,
                "duration": 0.6772727,
                "tempo": 120.0
            },
            {
                "start_time": 33.0613636,
                "end_time": 33.4022727,
                "pitch": 49,
                "velocity": 51,
                "duration": 0.3409091,
                "tempo": 120.0
            },
            {
                "start_time": 33.4204545,
                "end_time": 33.7386364,
                "pitch": 47,
                "velocity": 51,
                "duration": 0.3181818,
                "tempo": 120.0
            },
            {
                "start_time": 33.7545455,
                "end_time": 34.0886364,
                "pitch": 47,
                "velocity": 51,
                "duration": 0.3340909,
                "tempo": 120.0
            },
            {
                "start_time": 34.1045455,
                "end_time": 34.4227273,
                "pitch": 45,
                "velocity": 51,
                "duration": 0.3181818,
                "tempo": 120.0
            },
            {
                "start_time": 34.4386364,
                "end_time": 34.775,
                "pitch": 45,
                "velocity": 51,
                "duration": 0.3363636,
                "tempo": 120.0
            },
            {
                "start_time": 34.7909091,
                "end_time": 35.1204545,
                "pitch": 47,
                "velocity": 51,
                "duration": 0.3295455,
                "tempo": 120.0
            },
            {
                "start_time": 35.1545455,
                "end_time": 35.4818182,
                "pitch": 49,
                "velocity": 51,
                "duration": 0.3272727,
                "tempo": 120.0
            },
            {
                "start_time": 35.5,
                "end_time": 35.8340909,
                "pitch": 51,
                "velocity": 51,
                "duration": 0.3340909,
                "tempo": 120.0
            },
            {
                "start_time": 35.85,
                "end_time": 36.1681818,
                "pitch": 47,
                "velocity": 51,
                "duration": 0.3181818,
                "tempo": 120.0
            },
            {
                "start_time": 36.1863636,
                "end_time": 38.2568182,
                "pitch": 52,
                "velocity": 51,
                "duration": 2.0704545,
                "tempo": 120.0
            },
            {
                "start_time": 38.275,
                "end_time": 38.5977273,
                "pitch": 52,
                "velocity": 51,
                "duration": 0.3227273,
                "tempo": 120.0
            },
            {
                "start_time": 38.6159091,
                "end_time": 38.9568182,
                "pitch": 51,
                "velocity": 51,
                "duration": 0.3409091,
                "tempo": 120.0
            },
            {
                "start_time": 38.9727273,
                "end_time": 41.0363636,
                "pitch": 49,
                "velocity": 51,
                "duration": 2.0636364,
                "tempo": 120.0
            },
            {
                "start_time": 41.0545455,
                "end_time": 41.3954545,
                "pitch": 49,
                "velocity": 51,
                "duration": 0.3409091,
                "tempo": 120.0
            },
            {
                "start_time": 41.4136364,
                "end_time": 41.7363636,
                "pitch": 47,
                "velocity": 51,
                "duration": 0.3227273,
                "tempo": 120.0
            },
            {
                "start_time": 41.7545455,
                "end_time": 43.825,
                "pitch": 45,
                "velocity": 51,
                "duration": 2.0704545,
                "tempo": 120.0
            },
            {
                "start_time": 43.8409091,
                "end_time": 44.1590909,
                "pitch": 45,
                "velocity": 51,
                "duration": 0.3181818,
                "tempo": 120.0
            },
            {
                "start_time": 44.175,
                "end_time": 44.5113636,
                "pitch": 49,
                "velocity": 51,
                "duration": 0.3363636,
                "tempo": 120.0
            },
            {
                "start_time": 44.5295455,
                "end_time": 45.2204545,
                "pitch": 47,
                "velocity": 51,
                "duration": 0.6909091,
                "tempo": 120.0
            },
            {
                "start_time": 45.2363636,
                "end_time": 45.9045455,
                "pitch": 49,
                "velocity": 51,
                "duration": 0.6681818,
                "tempo": 120.0
            },
            {
                "start_time": 45.9227273,
                "end_time": 46.6068182,
                "pitch": 51,
                "velocity": 51,
                "duration": 0.6840909,
                "tempo": 120.0
            },
            {
                "start_time": 46.6227273,
                "end_time": 47.3068182,
                "pitch": 47,
                "velocity": 51,
                "duration": 0.6840909,
                "tempo": 120.0
            },
            {
                "start_time": 47.3409091,
                "end_time": 49.3636364,
                "pitch": 52,
                "velocity": 51,
                "duration": 2.0227273,
                "tempo": 120.0
            },
            {
                "start_time": 49.3818182,
                "end_time": 49.7181818,
                "pitch": 52,
                "velocity": 51,
                "duration": 0.3363636,
                "tempo": 120.0
            },
            {
                "start_time": 49.7545455,
                "end_time": 50.0909091,
                "pitch": 51,
                "velocity": 51,
                "duration": 0.3363636,
                "tempo": 120.0
            },
            {
                "start_time": 50.1068182,
                "end_time": 52.1613636,
                "pitch": 49,
                "velocity": 51,
                "duration": 2.0545455,
                "tempo": 120.0
            },
            {
                "start_time": 52.1977273,
                "end_time": 52.525,
                "pitch": 49,
                "velocity": 51,
                "duration": 0.3272727,
                "tempo": 120.0
            },
            {
                "start_time": 52.5431818,
                "end_time": 52.8863636,
                "pitch": 47,
                "velocity": 51,
                "duration": 0.3431818,
                "tempo": 120.0
            },
            {
                "start_time": 52.9045455,
                "end_time": 54.9681818,
                "pitch": 45,
                "velocity": 51,
                "duration": 2.0636364,
                "tempo": 120.0
            },
            {
                "start_time": 54.9840909,
                "end_time": 55.3181818,
                "pitch": 45,
                "velocity": 51,
                "duration": 0.3340909,
                "tempo": 120.0
            },
            {
                "start_time": 55.3340909,
                "end_time": 55.6522727,
                "pitch": 49,
                "velocity": 51,
                "duration": 0.3181818,
                "tempo": 120.0
            },
            {
                "start_time": 55.6704545,
                "end_time": 56.3522727,
                "pitch": 47,
                "velocity": 51,
                "duration": 0.6818182,
                "tempo": 120.0
            },
            {
                "start_time": 56.3704545,
                "end_time": 57.0386364,
                "pitch": 49,
                "velocity": 51,
                "duration": 0.6681818,
                "tempo": 120.0
            },
            {
                "start_time": 57.0727273,
                "end_time": 57.7409091,
                "pitch": 51,
                "velocity": 51,
                "duration": 0.6681818,
                "tempo": 120.0
            },
            {
                "start_time": 57.7590909,
                "end_time": 58.4409091,
                "pitch": 52,
                "velocity": 51,
                "duration": 0.6818182,
                "tempo": 120.0
            },
            {
                "start_time": 58.4568182,
                "end_time": 61.2068182,
                "pitch": 57,
                "velocity": 51,
                "duration": 2.75,
                "tempo": 120.0
            },
            {
                "start_time": 61.2227273,
                "end_time": 63.9795455,
                "pitch": 56,
                "velocity": 51,
                "duration": 2.7568182,
                "tempo": 120.0
            },
            {
                "start_time": 63.9977273,
                "end_time": 64.3295455,
                "pitch": 54,
                "velocity": 51,
                "duration": 0.3318182,
                "tempo": 120.0
            },
            {
                "start_time": 64.3659091,
                "end_time": 64.6954545,
                "pitch": 54,
                "velocity": 51,
                "duration": 0.3295455,
                "tempo": 120.0
            },
            {
                "start_time": 64.7136364,
                "end_time": 65.0477273,
                "pitch": 52,
                "velocity": 51,
                "duration": 0.3340909,
                "tempo": 120.0
            },
            {
                "start_time": 65.0636364,
                "end_time": 65.3818182,
                "pitch": 52,
                "velocity": 51,
                "duration": 0.3181818,
                "tempo": 120.0
            },
            {
                "start_time": 65.4,
                "end_time": 65.7409091,
                "pitch": 49,
                "velocity": 51,
                "duration": 0.3409091,
                "tempo": 120.0
            },
            {
                "start_time": 65.7590909,
                "end_time": 66.4340909,
                "pitch": 47,
                "velocity": 51,
                "duration": 0.675,
                "tempo": 120.0
            },
            {
                "start_time": 66.45,
                "end_time": 66.7681818,
                "pitch": 49,
                "velocity": 51,
                "duration": 0.3181818,
                "tempo": 120.0
            },
            {
                "start_time": 66.8022727,
                "end_time": 67.1272727,
                "pitch": 47,
                "velocity": 51,
                "duration": 0.325,
                "tempo": 120.0
            },
            {
                "start_time": 67.1431818,
                "end_time": 67.4863636,
                "pitch": 47,
                "velocity": 51,
                "duration": 0.3431818,
                "tempo": 120.0
            },
            {
                "start_time": 67.5022727,
                "end_time": 67.8204545,
                "pitch": 45,
                "velocity": 51,
                "duration": 0.3181818,
                "tempo": 120.0
            },
            {
                "start_time": 67.8363636,
                "end_time": 68.1704545,
                "pitch": 45,
                "velocity": 51,
                "duration": 0.3340909,
                "tempo": 120.0
            },
            {
                "start_time": 68.1863636,
                "end_time": 68.5045455,
                "pitch": 47,
                "velocity": 51,
                "duration": 0.3181818,
                "tempo": 120.0
            },
            {
                "start_time": 68.5204545,
                "end_time": 68.8568182,
                "pitch": 49,
                "velocity": 51,
                "duration": 0.3363636,
                "tempo": 120.0
            },
            {
                "start_time": 68.8727273,
                "end_time": 69.2022727,
                "pitch": 51,
                "velocity": 51,
                "duration": 0.3295455,
                "tempo": 120.0
            },
            {
                "start_time": 69.2363636,
                "end_time": 69.5636364,
                "pitch": 47,
                "velocity": 51,
                "duration": 0.3272727,
                "tempo": 120.0
            },
            {
                "start_time": 69.5818182,
                "end_time": 72.3318182,
                "pitch": 52,
                "velocity": 51,
                "duration": 2.75,
                "tempo": 120.0
            }
        ]
    }
}