{
    "mood": "relaxed",
    "instruments": {
        "Acoustic Guitar (nylon)": [
            {
                "start_time": 53.2863636,
                "end_time": 54.2590909,
                "pitch": 67,
                "velocity": 40,
                "duration": 0.9727273,
                "tempo": 120.0
            }
        ],
        "Acoustic Bass": [
            {
                "start_time": 0.1840909,
                "end_time": 0.4318182,
                "pitch": 39,
                "velocity": 51,
                "duration": 0.2477273,
                "tempo": 120.0
            },
            {
                "start_time": 0.4477273,
                "end_time": 0.6931818,
                "pitch": 44,
                "velocity": 51,
                "duration": 0.2454545,
                "tempo": 120.0
            },
            {
                "start_time": 0.7090909,
                "end_time": 0.9545455,
                "pitch": 51,
                "velocity": 51,
                "duration": 0.2454545,
                "tempo": 120.0
            },
            {
                "start_time": 0.9727273,
                "end_time": 1.2181818,
                "pitch": 56,
                "velocity": 51,
                "duration": 0.2454545,
                "tempo": 120.0
            },
            {
                "start_time": 1.2340909,
                "end_time": 2.275,
                "pitch": 40,
                "velocity": 51,
                "duration": 1.0409091,
                "tempo": 120.0
            },
            {
                "start_time": 2.2931818,
                "end_time": 2.5431818,
                "pitch": 44,
                "velocity": 51,
                "duration": 0.25,
                "tempo": 120.0
            },
            {
                "start_time": 2.5590909,
                "end_time": 2.8090909,
                "pitch": 47,
                "velocity": 51,
                "duration": 0.25,
                "tempo": 120.0
            },
            {
                "start_time": 2.825,
                "end_time": 3.4,
                "pitch": 54,
                "velocity": 51,
                "duration": 0.575,
                "tempo": 120.0
            },
            {
                "start_time": 3.4,
                "end_time": 3.4522727,
                "pitch": 51,
                "velocity": 51,
                "duration": 0.0522727,
                "tempo": 120.0
            },
            {
                "start_time": 3.4522727,
                "end_time": 3.4863636,
                "pitch": 48,
                "velocity": 51,
                "duration": 0.0340909,
                "tempo": 120.0
            },
            {
                "start_time": 3.4863636,
                "end_time": 3.5204545,
                "pitch": 46,
                "velocity": 51,
                "duration": 0.0340909,
                "tempo": 120.0
            },
            {
                "start_time": 3.5204545,
                "end_time": 3.5363636,
                "pitch": 44,
                "velocity": 51,
                "duration": 0.0159091,
                "tempo": 120.0
            },
            {
                "start_time": 3.5363636,
                "end_time": 3.5886364,
                "pitch": 42,
                "velocity": 51,
                "duration": 0.0522727,
                "tempo": 120.0
            },
            {
                "start_time": 3.5886364,
                "end_time": 3.6227273,
                "pitch": 40,
                "velocity": 51,
                "duration": 0.0340909,
                "tempo": 120.0
            },
            {
                "start_time": 3.8931818,
                "end_time": 4.3840909,
                "pitch": 51,
                "velocity": 51,
                "duration": 0.4909091,
                "tempo": 120.0
            },
            {
                "start_time": 4.4,
                "end_time": 5.9659091,
                "pitch": 49,
                "velocity": 51,
                "duration": 1.5659091,
                "tempo": 120.0
            },
            {
                "start_time": 5.9818182,
                "end_time": 6.7636364,
                "pitch": 47,
                "velocity": 51,
                "duration": 0.7818182,
                "tempo": 120.0
            },
            {
                "start_time": 6.7795455,
                "end_time": 7.55,
                "pitch": 46,
                "velocity": 51,
                "duration": 0.7704545,
                "tempo": 120.0
            },
            {
                "start_time": 7.5659091,
                "end_time": 9.1409091,
                "pitch": 42,
                "velocity": 51,
                "duration": 1.575,
                "tempo": 120.0
            },
            {
                "start_time": 9.1590909,
                "end_time": 10.2068182,
                "pitch": 51,
                "velocity": 51,
                "duration": 1.0477273,
                "tempo": 120.0
            },
            {
                "start_time": 10.2068182,
                "end_time": 10.7159091,
                "pitch": 49,
                "velocity": 51,
                "duration": 0.5090909,
                "tempo": 120.0
            },
            {
                "start_time": 10.7318182,
                "end_time": 11.5113636,
                "pitch": 48,
                "velocity": 51,
                "duration": 0.7795455,
                "tempo": 120.0
            },
            {
                "start_time": 11.5272727,
                "end_time": 11.7727273,
                "pitch": 48,
                "velocity": 51,
                "duration": 0.2454545,
                "tempo": 120.0
            },
            {
                "start_time": 11.7909091,
                "end_time": 12.0363636,
                "pitch": 48,
                "velocity": 51,
                "duration": 0.2454545,
                "tempo": 120.0
            },
            {
                "start_time": 12.0522727,
                "end_time": 12.2977273,
                "pitch": 45,
                "velocity": 51,
                "duration": 0.2454545,
                "tempo": 120.0
            },
            {
                "start_time": 12.3136364,
                "end_time": 12.8318182,
                "pitch": 44,
                "velocity": 51,
                "duration": 0.5181818,
                "tempo": 120.0
            },
            {
                "start_time": 12.8477273,
                "end_time": 13.3568182,
                "pitch": 42,
                "velocity": 51,
                "duration": 0.5090909,
                "tempo": 120.0
            },
            {
                "start_time": 13.3727273,
                "end_time": 13.8909091,
                "pitch": 39,
                "velocity": 51,
                "duration": 0.5181818,
                "tempo": 120.0
            },
            {
                "start_time": 13.9068182,
                "end_time": 14.4159091,
                "pitch": 37,
                "velocity": 51,
                "duration": 0.5090909,
                "tempo": 120.0
            },
            {
                "start_time": 14.4318182,
                "end_time": 16.2590909,
                "pitch": 40,
                "velocity": 51,
                "duration": 1.8272727,
                "tempo": 120.0
            },
            {
                "start_time": 16.2772727,
                "end_time": 16.5227273,
                "pitch": 39,
                "velocity": 51,
                "duration": 0.2454545,
                "tempo": 120.0
            },
            {
                "start_time": 16.5386364,
                "end_time": 16.7886364,
                "pitch": 40,
                "velocity": 51,
                "duration": 0.25,
                "tempo": 120.0
            },
            {
                "start_time": 16.8045455,
                "end_time": 17.0568182,
                "pitch": 42,
                "velocity": 51,
                "duration": 0.2522727,
                "tempo": 120.0
            },
            {
                "start_time": 17.0727273,
                "end_time": 17.5818182,
                "pitch": 43,
                "velocity": 51,
                "duration": 0.5090909,
                "tempo": 120.0
            },
            {
                "start_time": 17.5977273,
                "end_time": 18.1045455,
                "pitch": 45,
                "velocity": 51,
                "duration": 0.5068182,
                "tempo": 120.0
            },
            {
                "start_time": 18.1227273,
                "end_time": 18.6386364,
                "pitch": 52,
                "velocity": 51,
                "duration": 0.5159091,
                "tempo": 120.0
            },
            {
                "start_time": 18.6545455,
                "end_time": 19.1636364,
                "pitch": 51,
                "velocity": 51,
                "duration": 0.5090909,
                "tempo": 120.0
            },
            {
                "start_time": 19.1795455,
                "end_time": 19.6886364,
                "pitch": 48,
                "velocity": 51,
                "duration": 0.5090909,
                "tempo": 120.0
            },
            {
                "start_time": 19.7045455,
                "end_time": 20.2136364,
                "pitch": 49,
                "velocity": 51,
                "duration": 0.5090909,
                "tempo": 120.0
            },
            {
                "start_time": 20.2295455,
                "end_time": 20.7454545,
                "pitch": 51,
                "velocity": 51,
                "duration": 0.5159091,
                "tempo": 120.0
            },
            {
                "start_time": 20.7636364,
                "end_time": 21.2704545,
                "pitch": 45,
                "velocity": 51,
                "duration": 0.5068182,
                "tempo": 120.0
            },
            {
                "start_time": 21.2863636,
                "end_time": 21.8045455,
                "pitch": 42,
                "velocity": 51,
                "duration": 0.5181818,
                "tempo": 120.0
            },
            {
                "start_time": 21.8204545,
                "end_time": 23.3795455,
                "pitch": 37,
                "velocity": 51,
                "duration": 1.5590909,
                "tempo": 120.0
            },
            {
                "start_time": 23.3954545,
                "end_time": 24.4363636,
                "pitch": 39,
                "velocity": 51,
                "duration": 1.0409091,
                "tempo": 120.0
            },
            {
                "start_time": 24.4522727,
                "end_time": 24.7,
                "pitch": 51,
                "velocity": 51,
                "duration": 0.2477273,
                "tempo": 120.0
            },
            {
                "start_time": 24.7159091,
                "end_time": 24.9613636,
                "pitch": 49,
                "velocity": 51,
                "duration": 0.2454545,
                "tempo": 120.0
            },
            {
                "start_time": 24.9772727,
                "end_time": 26.0204545,
                "pitch": 42,
                "velocity": 51,
                "duration": 1.0431818,
                "tempo": 120.0
            },
            {
                "start_time": 26.0363636,
                "end_time": 26.5431818,
                "pitch": 44,
                "velocity": 51,
                "duration": 0.5068182,
                "tempo": 120.0
            },
            {
                "start_time": 26.5613636,
                "end_time": 27.6022727,
                "pitch": 39,
                "velocity": 51,
                "duration": 1.0409091,
                "tempo": 120.0
            },
            {
                "start_time": 27.6181818,
                "end_time": 27.8727273,
                "pitch": 42,
                "velocity": 51,
                "duration": 0.2545455,
                "tempo": 120.0
            },
            {
                "start_time": 27.8909091,
                "end_time": 28.1454545,
                "pitch": 49,
                "velocity": 51,
                "duration": 0.2545455,
                "tempo": 120.0
            },
            {
                "start_time": 28.1613636,
                "end_time": 28.6613636,
                "pitch": 47,
                "velocity": 51,
                "duration": 0.5,
                "tempo": 120.0
            },
            {
                "start_time": 28.6772727,
                "end_time": 29.1954545,
                "pitch": 46,
                "velocity": 51,
                "duration": 0.5181818,
                "tempo": 120.0
            },
            {
                "start_time": 29.2113636,
                "end_time": 29.7204545,
                "pitch": 42,
                "velocity": 51,
                "duration": 0.5090909,
                "tempo": 120.0
            },
            {
                "start_time": 29.7363636,
                "end_time": 31.2931818,
                "pitch": 44,
                "velocity": 51,
                "duration": 1.5568182,
                "tempo": 120.0
            },
            {
                "start_time": 31.3090909,
                "end_time": 31.8272727,
                "pitch": 44,
                "velocity": 51,
                "duration": 0.5181818,
                "tempo": 120.0
            },
            {
                "start_time": 31.8431818,
                "end_time": 32.3522727,
                "pitch": 42,
                "velocity": 51,
                "duration": 0.5090909,
                "tempo": 120.0
            },
            {
                "start_time": 32.3681818,
                "end_time": 32.8840909,
                "pitch": 34,
                "velocity": 51,
                "duration": 0.5159091,
                "tempo": 120.0
            },
            {
                "start_time": 32.9022727,
                "end_time": 33.9340909,
                "pitch": 37,
                "velocity": 51,
                "duration": 1.0318182,
                "tempo": 120.0
            },
            {
                "start_time": 33.95,
                "end_time": 34.2045455,
                "pitch": 32,
                "velocity": 51,
                "duration": 0.2545455,
                "tempo": 120.0
            },
            {
                "start_time": 34.2227273,
                "end_time": 34.4772727,
                "pitch": 37,
                "velocity": 51,
                "duration": 0.2545455,
                "tempo": 120.0
            },
            {
                "start_time": 34.4931818,
                "end_time": 34.7363636,
                "pitch": 59,
                "velocity": 51,
                "duration": 0.2431818,
                "tempo": 120.0
            },
            {
                "start_time": 34.7522727,
                "end_time": 35.2727273,
                "pitch": 54,
                "velocity": 51,
                "duration": 0.5204545,
                "tempo": 120.0
            },
            {
                "start_time": 35.2727273,
                "end_time": 35.8454545,
                "pitch": 49,
                "velocity": 51,
                "duration": 0.5727273,
                "tempo": 120.0
            },
            {
                "start_time": 35.8454545,
                "end_time": 35.8954545,
                "pitch": 47,
                "velocity": 51,
                "duration": 0.05,
                "tempo": 120.0
            },
            {
                "start_time": 35.8954545,
                "end_time": 35.9113636,
                "pitch": 44,
                "velocity": 51,
                "duration": 0.0159091,
                "tempo": 120.0
            },
            {
                "start_time": 35.9113636,
                "end_time": 35.9772727,
                "pitch": 43,
                "velocity": 51,
                "duration": 0.0659091,
                "tempo": 120.0
            },
            {
                "start_time": 35.9772727,
                "end_time": 36.0431818,
                "pitch": 40,
                "velocity": 51,
                "duration": 0.0659091,
                "tempo": 120.0
            },
            {
                "start_time": 36.0431818,
                "end_time": 36.0590909,
                "pitch": 38,
                "velocity": 51,
                "duration": 0.0159091,
                "tempo": 120.0
            },
            {
                "start_time": 36.0590909,
                "end_time": 36.8386364,
                "pitch": 44,
                "velocity": 51,
                "duration": 0.7795455,
                "tempo": 120.0
            },
            {
                "start_time": 36.8545455,
                "end_time": 37.1,
                "pitch": 39,
                "velocity": 51,
                "duration": 0.2454545,
                "tempo": 120.0
            },
            {
                "start_time": 37.1159091,
                "end_time": 37.3681818,
                "pitch": 44,
                "velocity": 51,
                "duration": 0.2522727,
                "tempo": 120.0
            },
            {
                "start_time": 37.3840909,
                "end_time": 37.6340909,
                "pitch": 51,
                "velocity": 51,
                "duration": 0.25,
                "tempo": 120.0
            },
            {
                "start_time": 37.65,
                "end_time": 38.1590909,
                "pitch": 48,
                "velocity": 51,
                "duration": 0.5090909,
                "tempo": 120.0
            },
            {
                "start_time": 38.175,
                "end_time": 38.6840909,
                "pitch": 44,
                "velocity": 51,
                "duration": 0.5090909,
                "tempo": 120.0
            },
            {
                "start_time": 38.7,
                "end_time": 39.2181818,
                "pitch": 39,
                "velocity": 51,
                "duration": 0.5181818,
                "tempo": 120.0
            },
            {
                "start_time": 39.2340909,
                "end_time": 40.0045455,
                "pitch": 43,
                "velocity": 51,
                "duration": 0.7704545,
                "tempo": 120.0
            },
            {
                "start_time": 40.0204545,
                "end_time": 40.2659091,
                "pitch": 43,
                "velocity": 51,
                "duration": 0.2454545,
                "tempo": 120.0
            },
            {
                "start_time": 40.2818182,
                "end_time": 40.5340909,
                "pitch": 42,
                "velocity": 51,
                "duration": 0.2522727,
                "tempo": 120.0
            },
            {
                "start_time": 40.55,
                "end_time": 40.8,
                "pitch": 40,
                "velocity": 51,
                "duration": 0.25,
                "tempo": 120.0
            },
            {
                "start_time": 40.8159091,
                "end_time": 41.6,
                "pitch": 35,
                "velocity": 51,
                "duration": 0.7840909,
                "tempo": 120.0
            },
            {
                "start_time": 41.6181818,
                "end_time": 42.7772727,
                "pitch": 37,
                "velocity": 51,
                "duration": 1.1590909,
                "tempo": 120.0
            },
            {
                "start_time": 42.8022727,
                "end_time": 44.3727273,
                "pitch": 39,
                "velocity": 51,
                "duration": 1.5704545,
                "tempo": 120.0
            },
            {
                "start_time": 44.3977273,
                "end_time": 44.7681818,
                "pitch": 43,
                "velocity": 51,
                "duration": 0.3704545,
                "tempo": 120.0
            },
            {
                "start_time": 44.7931818,
                "end_time": 45.1636364,
                "pitch": 46,
                "velocity": 51,
                "duration": 0.3704545,
                "tempo": 120.0
            },
            {
                "start_time": 45.1886364,
                "end_time": 45.9886364,
                "pitch": 50,
                "velocity": 51,
                "duration": 0.8,
                "tempo": 120.0
            },
            {
                "start_time": 45.9886364,
                "end_time": 46.7840909,
                "pitch": 54,
                "velocity": 51,
                "duration": 0.7954545,
                "tempo": 120.0
            },
            {
                "start_time": 46.7840909,
                "end_time": 47.575,
                "pitch": 51,
                "velocity": 51,
                "duration": 0.7909091,
                "tempo": 120.0
            },
            {
                "start_time": 47.575,
                "end_time": 49.1363636,
                "pitch": 37,
                "velocity": 51,
                "duration": 1.5613636,
                "tempo": 120.0
            },
            {
                "start_time": 49.1613636,
                "end_time": 49.5363636,
                "pitch": 41,
                "velocity": 51,
                "duration": 0.375,
                "tempo": 120.0
            },
            {
                "start_time": 49.5613636,
                "end_time": 49.9363636,
                "pitch": 44,
                "velocity": 51,
                "duration": 0.375,
                "tempo": 120.0
            },
            {
                "start_time": 49.9613636,
                "end_time": 51.5227273,
                "pitch": 47,
                "velocity": 51,
                "duration": 1.5613636,
                "tempo": 120.0
            },
            {
                "start_time": 51.5477273,
                "end_time": 51.9227273,
                "pitch": 47,
                "velocity": 51,
                "duration": 0.375,
                "tempo": 120.0
            },
            {
                "start_time": 51.9477273,
                "end_time": 52.3227273,
                "pitch": 44,
                "velocity": 51,
                "duration": 0.375,
                "tempo": 120.0
            },
            {
                "start_time": 52.3477273,
                "end_time": 53.5090909,
                "pitch": 40,
                "velocity": 51,
                "duration": 1.1613636,
                "tempo": 120.0
            },
            {
                "start_time": 53.5340909,
                "end_time": 53.8090909,
                "pitch": 63,
                "velocity": 51,
                "duration": 0.275,
                "tempo": 120.0
            },
            {
                "start_time": 53.8340909,
                "end_time": 54.1090909,
                "pitch": 59,
                "velocity": 51,
                "duration": 0.275,
                "tempo": 120.0
            },
            {
                "start_time": 54.1340909,
                "end_time": 54.4090909,
                "pitch": 55,
                "velocity": 51,
                "duration": 0.275,
                "tempo": 120.0
            },
            {
                "start_time": 54.4340909,
                "end_time": 54.7090909,
                "pitch": 52,
                "velocity": 51,
                "duration": 0.275,
                "tempo": 120.0
            },
            {
                "start_time": 54.7340909,
                "end_time": 55.5863636,
                "pitch": 48,
                "velocity": 51,
                "duration": 0.8522727,
                "tempo": 120.0
            },
            {
                "start_time": 55.6113636,
                "end_time": 56.4795455,
                "pitch": 43,
                "velocity": 51,
                "duration": 0.8681818,
                "tempo": 120.0
            },
            {
                "start_time": 56.5045455,
                "end_time": 57.0795455,
                "pitch": 40,
                "velocity": 51,
                "duration": 0.575,
                "tempo": 120.0
            },
            {
                "start_time": 57.1068182,
                "end_time": 61.8386364,
                "pitch": 46,
                "velocity": 51,
                "duration": 4.7318182,
                "tempo": 120.0
            },
            {
                "start_time": 61.8636364,
                "end_time": 63.0409091,
                "pitch": 37,
                "velocity": 51,
                "duration": 1.1772727,
                "tempo": 120.0
            },
            {
                "start_time": 63.0659091,
                "end_time": 64.2409091,
                "pitch": 35,
                "velocity": 51,
                "duration": 1.175,
                "tempo": 120.0
            },
            {
                "start_time": 64.2659091,
                "end_time": 65.1318182,
                "pitch": 32,
                "velocity": 51,
                "duration": 0.8659091,
                "tempo": 120.0
            },
            {
                "start_time": 65.1568182,
                "end_time": 66.6136364,
                "pitch": 30,
                "velocity": 51,
                "duration": 1.4568182,
                "tempo": 120.0
            },
            {
                "start_time": 66.6386364,
                "end_time": 67.8136364,
                "pitch": 36,
                "velocity": 51,
                "duration": 1.175,
                "tempo": 120.0
            },
            {
                "start_time": 67.8386364,
                "end_time": 68.1113636,
                "pitch": 67,
                "velocity": 51,
                "duration": 0.2727273,
                "tempo": 120.0
            },
            {
                "start_time": 68.1363636,
                "end_time": 68.4068182,
                "pitch": 64,
                "velocity": 51,
                "duration": 0.2704545,
                "tempo": 120.0
            },
            {
                "start_time": 68.4318182,
                "end_time": 68.7045455,
                "pitch": 60,
                "velocity": 51,
                "duration": 0.2727273,
                "tempo": 120.0
            },
            {
                "start_time": 68.7272727,
                "end_time": 69.0,
                "pitch": 59,
                "velocity": 51,
                "duration": 0.2727273,
                "tempo": 120.0
            },
            {
                "start_time": 69.025,
                "end_time": 69.8772727,
                "pitch": 57,
                "velocity": 51,
                "duration": 0.8522727,
                "tempo": 120.0
            },
            {
                "start_time": 69.9022727,
                "end_time": 70.7704545,
                "pitch": 55,
                "velocity": 51,
                "duration": 0.8681818,
                "tempo": 120.0
            },
            {
                "start_time": 70.7954545,
                "end_time": 71.3704545,
                "pitch": 52,
                "velocity": 51,
                "duration": 0.575,
                "tempo": 120.0
            },
            {
                "start_time": 71.3954545,
                "end_time": 71.6681818,
                "pitch": 36,
                "velocity": 51,
                "duration": 0.2727273,
                "tempo": 120.0
            },
            {
                "start_time": 71.6909091,
                "end_time": 71.9636364,
                "pitch": 38,
                "velocity": 51,
                "duration": 0.2727273,
                "tempo": 120.0
            },
            {
                "start_time": 71.9886364,
                "end_time": 73.7568182,
                "pitch": 43,
                "velocity": 51,
                "duration": 1.7681818,
                "tempo": 120.0
            }
        ],
        "Acoustic Grand Piano": [
            {
                "start_time": 1.3340909,
                "end_time": 1.85,
                "pitch": 75,
                "velocity": 40,
                "duration": 0.5159091,
                "tempo": 120.0
            },
            {
                "start_time": 1.8659091,
                "end_time": 4.4840909,
                "pitch": 68,
                "velocity": 40,
                "duration": 2.6181818,
                "tempo": 120.0
            },
            {
                "start_time": 6.0818182,
                "end_time": 6.5977273,
                "pitch": 68,
                "velocity": 40,
                "duration": 0.5159091,
                "tempo": 120.0
            },
            {
                "start_time": 6.6159091,
                "end_time": 7.1227273,
                "pitch": 70,
                "velocity": 40,
                "duration": 0.5068182,
                "tempo": 120.0
            },
            {
                "start_time": 7.1386364,
                "end_time": 7.3863636,
                "pitch": 71,
                "velocity": 40,
                "duration": 0.2477273,
                "tempo": 120.0
            },
            {
                "start_time": 7.4022727,
                "end_time": 7.65,
                "pitch": 73,
                "velocity": 40,
                "duration": 0.2477273,
                "tempo": 120.0
            },
            {
                "start_time": 7.6659091,
                "end_time": 8.1818182,
                "pitch": 75,
                "velocity": 40,
                "duration": 0.5159091,
                "tempo": 120.0
            },
            {
                "start_time": 8.1977273,
                "end_time": 10.8159091,
                "pitch": 66,
                "velocity": 40,
                "duration": 2.6181818,
                "tempo": 120.0
            },
            {
                "start_time": 12.15,
                "end_time": 12.3977273,
                "pitch": 66,
                "velocity": 40,
                "duration": 0.2477273,
                "tempo": 120.0
            },
            {
                "start_time": 12.4136364,
                "end_time": 12.9295455,
                "pitch": 78,
                "velocity": 40,
                "duration": 0.5159091,
                "tempo": 120.0
            },
            {
                "start_time": 12.9477273,
                "end_time": 13.4568182,
                "pitch": 76,
                "velocity": 40,
                "duration": 0.5090909,
                "tempo": 120.0
            },
            {
                "start_time": 13.4727273,
                "end_time": 13.7227273,
                "pitch": 75,
                "velocity": 40,
                "duration": 0.25,
                "tempo": 120.0
            },
            {
                "start_time": 13.7409091,
                "end_time": 13.9886364,
                "pitch": 76,
                "velocity": 40,
                "duration": 0.2477273,
                "tempo": 120.0
            },
            {
                "start_time": 14.0045455,
                "end_time": 14.5136364,
                "pitch": 75,
                "velocity": 40,
                "duration": 0.5090909,
                "tempo": 120.0
            },
            {
                "start_time": 14.5295455,
                "end_time": 17.1545455,
                "pitch": 71,
                "velocity": 40,
                "duration": 2.625,
                "tempo": 120.0
            },
            {
                "start_time": 18.4886364,
                "end_time": 18.7386364,
                "pitch": 70,
                "velocity": 40,
                "duration": 0.25,
                "tempo": 120.0
            },
            {
                "start_time": 18.7545455,
                "end_time": 19.2613636,
                "pitch": 70,
                "velocity": 40,
                "duration": 0.5068182,
                "tempo": 120.0
            },
            {
                "start_time": 19.2772727,
                "end_time": 19.7863636,
                "pitch": 71,
                "velocity": 40,
                "duration": 0.5090909,
                "tempo": 120.0
            },
            {
                "start_time": 19.8022727,
                "end_time": 20.3113636,
                "pitch": 73,
                "velocity": 40,
                "duration": 0.5090909,
                "tempo": 120.0
            },
            {
                "start_time": 20.3295455,
                "end_time": 21.9022727,
                "pitch": 75,
                "velocity": 40,
                "duration": 1.5727273,
                "tempo": 120.0
            },
            {
                "start_time": 21.9204545,
                "end_time": 22.4272727,
                "pitch": 78,
                "velocity": 40,
                "duration": 0.5068182,
                "tempo": 120.0
            },
            {
                "start_time": 22.4431818,
                "end_time": 22.9522727,
                "pitch": 76,
                "velocity": 40,
                "duration": 0.5090909,
                "tempo": 120.0
            },
            {
                "start_time": 22.9681818,
                "end_time": 23.4772727,
                "pitch": 78,
                "velocity": 40,
                "duration": 0.5090909,
                "tempo": 120.0
            },
            {
                "start_time": 23.4954545,
                "end_time": 24.2727273,
                "pitch": 75,
                "velocity": 40,
                "duration": 0.7772727,
                "tempo": 120.0
            },
            {
                "start_time": 24.2886364,
                "end_time": 24.5363636,
                "pitch": 75,
                "velocity": 40,
                "duration": 0.2477273,
                "tempo": 120.0
            },
            {
                "start_time": 24.5522727,
                "end_time": 24.6659091,
                "pitch": 88,
                "velocity": 40,
                "duration": 0.1136364,
                "tempo": 120.0
            },
            {
                "start_time": 24.6818182,
                "end_time": 24.7977273,
                "pitch": 90,
                "velocity": 40,
                "duration": 0.1159091,
                "tempo": 120.0
            },
            {
                "start_time": 24.8136364,
                "end_time": 25.0613636,
                "pitch": 88,
                "velocity": 40,
                "duration": 0.2477273,
                "tempo": 120.0
            },
            {
                "start_time": 25.0772727,
                "end_time": 25.5931818,
                "pitch": 87,
                "velocity": 40,
                "duration": 0.5159091,
                "tempo": 120.0
            },
            {
                "start_time": 25.6090909,
                "end_time": 26.1181818,
                "pitch": 84,
                "velocity": 40,
                "duration": 0.5090909,
                "tempo": 120.0
            },
            {
                "start_time": 26.1340909,
                "end_time": 26.6431818,
                "pitch": 80,
                "velocity": 40,
                "duration": 0.5090909,
                "tempo": 120.0
            },
            {
                "start_time": 26.6613636,
                "end_time": 27.1772727,
                "pitch": 75,
                "velocity": 40,
                "duration": 0.5159091,
                "tempo": 120.0
            },
            {
                "start_time": 27.1931818,
                "end_time": 29.8181818,
                "pitch": 68,
                "velocity": 40,
                "duration": 2.625,
                "tempo": 120.0
            },
            {
                "start_time": 31.1454545,
                "end_time": 31.3931818,
                "pitch": 68,
                "velocity": 40,
                "duration": 0.2477273,
                "tempo": 120.0
            },
            {
                "start_time": 31.4090909,
                "end_time": 31.925,
                "pitch": 70,
                "velocity": 40,
                "duration": 0.5159091,
                "tempo": 120.0
            },
            {
                "start_time": 31.9409091,
                "end_time": 32.4522727,
                "pitch": 71,
                "velocity": 40,
                "duration": 0.5113636,
                "tempo": 120.0
            },
            {
                "start_time": 32.4681818,
                "end_time": 32.7181818,
                "pitch": 78,
                "velocity": 40,
                "duration": 0.25,
                "tempo": 120.0
            },
            {
                "start_time": 32.7340909,
                "end_time": 32.9840909,
                "pitch": 75,
                "velocity": 40,
                "duration": 0.25,
                "tempo": 120.0
            },
            {
                "start_time": 33.0,
                "end_time": 33.5090909,
                "pitch": 76,
                "velocity": 40,
                "duration": 0.5090909,
                "tempo": 120.0
            },
            {
                "start_time": 33.525,
                "end_time": 35.3545455,
                "pitch": 75,
                "velocity": 40,
                "duration": 1.8295455,
                "tempo": 120.0
            },
            {
                "start_time": 35.3704545,
                "end_time": 35.6159091,
                "pitch": 73,
                "velocity": 40,
                "duration": 0.2454545,
                "tempo": 120.0
            },
            {
                "start_time": 35.6318182,
                "end_time": 35.8772727,
                "pitch": 75,
                "velocity": 40,
                "duration": 0.2454545,
                "tempo": 120.0
            },
            {
                "start_time": 35.8954545,
                "end_time": 36.1409091,
                "pitch": 73,
                "velocity": 40,
                "duration": 0.2454545,
                "tempo": 120.0
            },
            {
                "start_time": 36.1590909,
                "end_time": 37.4681818,
                "pitch": 72,
                "velocity": 40,
                "duration": 1.3090909,
                "tempo": 120.0
            },
            {
                "start_time": 37.4840909,
                "end_time": 37.7318182,
                "pitch": 73,
                "velocity": 40,
                "duration": 0.2477273,
                "tempo": 120.0
            },
            {
                "start_time": 37.75,
                "end_time": 38.2568182,
                "pitch": 75,
                "velocity": 40,
                "duration": 0.5068182,
                "tempo": 120.0
            },
            {
                "start_time": 38.2727273,
                "end_time": 38.7840909,
                "pitch": 81,
                "velocity": 40,
                "duration": 0.5113636,
                "tempo": 120.0
            },
            {
                "start_time": 38.8,
                "end_time": 39.05,
                "pitch": 80,
                "velocity": 40,
                "duration": 0.25,
                "tempo": 120.0
            },
            {
                "start_time": 39.0659091,
                "end_time": 39.3159091,
                "pitch": 78,
                "velocity": 40,
                "duration": 0.25,
                "tempo": 120.0
            },
            {
                "start_time": 39.3318182,
                "end_time": 39.8409091,
                "pitch": 78,
                "velocity": 40,
                "duration": 0.5090909,
                "tempo": 120.0
            },
            {
                "start_time": 39.8568182,
                "end_time": 40.9,
                "pitch": 76,
                "velocity": 40,
                "duration": 1.0431818,
                "tempo": 120.0
            },
            {
                "start_time": 40.9159091,
                "end_time": 42.9272727,
                "pitch": 75,
                "velocity": 40,
                "duration": 2.0113636,
                "tempo": 120.0
            },
            {
                "start_time": 42.9522727,
                "end_time": 43.7272727,
                "pitch": 70,
                "velocity": 40,
                "duration": 0.775,
                "tempo": 120.0
            },
            {
                "start_time": 43.7522727,
                "end_time": 44.5204545,
                "pitch": 73,
                "velocity": 40,
                "duration": 0.7681818,
                "tempo": 120.0
            },
            {
                "start_time": 44.5454545,
                "end_time": 45.3136364,
                "pitch": 78,
                "velocity": 40,
                "duration": 0.7681818,
                "tempo": 120.0
            },
            {
                "start_time": 45.3386364,
                "end_time": 46.1136364,
                "pitch": 79,
                "velocity": 40,
                "duration": 0.775,
                "tempo": 120.0
            },
            {
                "start_time": 46.1386364,
                "end_time": 46.9090909,
                "pitch": 82,
                "velocity": 40,
                "duration": 0.7704545,
                "tempo": 120.0
            },
            {
                "start_time": 46.9318182,
                "end_time": 47.6977273,
                "pitch": 88,
                "velocity": 40,
                "duration": 0.7659091,
                "tempo": 120.0
            },
            {
                "start_time": 47.7227273,
                "end_time": 48.4886364,
                "pitch": 87,
                "velocity": 40,
                "duration": 0.7659091,
                "tempo": 120.0
            },
            {
                "start_time": 48.5136364,
                "end_time": 51.6727273,
                "pitch": 80,
                "velocity": 40,
                "duration": 3.1590909,
                "tempo": 120.0
            },
            {
                "start_time": 51.6977273,
                "end_time": 52.0727273,
                "pitch": 68,
                "velocity": 40,
                "duration": 0.375,
                "tempo": 120.0
            },
            {
                "start_time": 52.0977273,
                "end_time": 52.4727273,
                "pitch": 75,
                "velocity": 40,
                "duration": 0.375,
                "tempo": 120.0
            },
            {
                "start_time": 52.4954545,
                "end_time": 54.5340909,
                "pitch": 73,
                "velocity": 40,
                "duration": 2.0386364,
                "tempo": 120.0
            },
            {
                "start_time": 54.5340909,
                "end_time": 54.5590909,
                "pitch": 52,
                "velocity": 40,
                "duration": 0.025,
                "tempo": 120.0
            },
            {
                "start_time": 54.5840909,
                "end_time": 54.9295455,
                "pitch": 57,
                "velocity": 40,
                "duration": 0.3454545,
                "tempo": 120.0
            },
            {
                "start_time": 54.9545455,
                "end_time": 55.6613636,
                "pitch": 65,
                "velocity": 40,
                "duration": 0.7068182,
                "tempo": 120.0
            },
            {
                "start_time": 55.6840909,
                "end_time": 56.4795455,
                "pitch": 70,
                "velocity": 40,
                "duration": 0.7954545,
                "tempo": 120.0
            },
            {
                "start_time": 56.5045455,
                "end_time": 57.3090909,
                "pitch": 77,
                "velocity": 40,
                "duration": 0.8045455,
                "tempo": 120.0
            },
            {
                "start_time": 57.3340909,
                "end_time": 58.0704545,
                "pitch": 82,
                "velocity": 40,
                "duration": 0.7363636,
                "tempo": 120.0
            },
            {
                "start_time": 58.0954545,
                "end_time": 59.5886364,
                "pitch": 87,
                "velocity": 40,
                "duration": 1.4931818,
                "tempo": 120.0
            },
            {
                "start_time": 59.6136364,
                "end_time": 61.9886364,
                "pitch": 87,
                "velocity": 40,
                "duration": 2.375,
                "tempo": 120.0
            },
            {
                "start_time": 62.0136364,
                "end_time": 63.1909091,
                "pitch": 73,
                "velocity": 40,
                "duration": 1.1772727,
                "tempo": 120.0
            },
            {
                "start_time": 63.2159091,
                "end_time": 64.3909091,
                "pitch": 75,
                "velocity": 40,
                "duration": 1.175,
                "tempo": 120.0
            },
            {
                "start_time": 64.4159091,
                "end_time": 65.2795455,
                "pitch": 76,
                "velocity": 40,
                "duration": 0.8636364,
                "tempo": 120.0
            },
            {
                "start_time": 65.3045455,
                "end_time": 66.7636364,
                "pitch": 78,
                "velocity": 40,
                "duration": 1.4590909,
                "tempo": 120.0
            },
            {
                "start_time": 66.7886364,
                "end_time": 67.6636364,
                "pitch": 78,
                "velocity": 40,
                "duration": 0.875,
                "tempo": 120.0
            },
            {
                "start_time": 67.6886364,
                "end_time": 68.5545455,
                "pitch": 81,
                "velocity": 40,
                "duration": 0.8659091,
                "tempo": 120.0
            },
            {
                "start_time": 68.5795455,
                "end_time": 69.1454545,
                "pitch": 78,
                "velocity": 40,
                "duration": 0.5659091,
                "tempo": 120.0
            },
            {
                "start_time": 69.1704545,
                "end_time": 70.0227273,
                "pitch": 74,
                "velocity": 40,
                "duration": 0.8522727,
                "tempo": 120.0
            },
            {
                "start_time": 70.0477273,
                "end_time": 70.9204545,
                "pitch": 78,
                "velocity": 40,
                "duration": 0.8727273,
                "tempo": 120.0
            },
            {
                "start_time": 70.9454545,
                "end_time": 71.8159091,
                "pitch": 78,
                "velocity": 40,
                "duration": 0.8704545,
                "tempo": 120.0
            },
            {
                "start_time": 71.8409091,
                "end_time": 72.1113636,
                "pitch": 78,
                "velocity": 40,
                "duration": 0.2704545,
                "tempo": 120.0
            },
            {
                "start_time": 72.1363636,
                "end_time": 73.9068182,
                "pitch": 78,
                "velocity": 40,
                "duration": 1.7704545,
                "tempo": 120.0
            },
            {
                "start_time": 73.9295455,
                "end_time": 77.8636364,
                "pitch": 86,
                "velocity": 40,
                "duration": 3.9340909,
                "tempo": 120.0
            }
        ]
    }
}