{
    "mood": "relaxed",
    "instruments": {
        "Acoustic Bass": [
            {
                "start_time": 0.1113636,
                "end_time": 0.6,
                "pitch": 50,
                "velocity": 64,
                "duration": 0.4886364,
                "tempo": 120.0
            },
            {
                "start_time": 0.6,
                "end_time": 1.0931818,
                "pitch": 50,
                "velocity": 64,
                "duration": 0.4931818,
                "tempo": 120.0
            },
            {
                "start_time": 1.0931818,
                "end_time": 1.5818182,
                "pitch": 50,
                "velocity": 64,
                "duration": 0.4886364,
                "tempo": 120.0
            },
            {
                "start_time": 1.5818182,
                "end_time": 2.0772727,
                "pitch": 50,
                "velocity": 64,
                "duration": 0.4954545,
                "tempo": 120.0
            },
            {
                "start_time": 2.0772727,
                "end_time": 2.5590909,
                "pitch": 50,
                "velocity": 64,
                "duration": 0.4818182,
                "tempo": 120.0
            },
            {
                "start_time": 2.5590909,
                "end_time": 3.0431818,
                "pitch": 50,
                "velocity": 64,
                "duration": 0.4840909,
                "tempo": 120.0
            },
            {
                "start_time": 3.0431818,
                "end_time": 3.5272727,
                "pitch": 50,
                "velocity": 64,
                "duration": 0.4840909,
                "tempo": 120.0
            },
            {
                "start_time": 3.5272727,
                "end_time": 4.0204545,
                "pitch": 50,
                "velocity": 64,
                "duration": 0.4931818,
                "tempo": 120.0
            },
            {
                "start_time": 4.0204545,
                "end_time": 4.5159091,
                "pitch": 52,
                "velocity": 64,
                "duration": 0.4954545,
                "tempo": 120.0
            },
            {
                "start_time": 4.5159091,
                "end_time": 5.0045455,
                "pitch": 52,
                "velocity": 64,
                "duration": 0.4886364,
                "tempo": 120.0
            },
            {
                "start_time": 5.0045455,
                "end_time": 5.4863636,
                "pitch": 52,
                "velocity": 64,
                "duration": 0.4818182,
                "tempo": 120.0
            },
            {
                "start_time": 5.4863636,
                "end_time": 5.975,
                "pitch": 52,
                "velocity": 64,
                "duration": 0.4886364,
                "tempo": 120.0
            },
            {
                "start_time": 5.975,
                "end_time": 6.4681818,
                "pitch": 52,
                "velocity": 64,
                "duration": 0.4931818,
                "tempo": 120.0
            },
            {
                "start_time": 6.4681818,
                "end_time": 6.9522727,
                "pitch": 52,
                "velocity": 64,
                "duration": 0.4840909,
                "tempo": 120.0
            },
            {
                "start_time": 6.9522727,
                "end_time": 7.4409091,
                "pitch": 52,
                "velocity": 64,
                "duration": 0.4886364,
                "tempo": 120.0
            },
            {
                "start_time": 7.4409091,
                "end_time": 7.9340909,
                "pitch": 52,
                "velocity": 64,
                "duration": 0.4931818,
                "tempo": 120.0
            },
            {
                "start_time": 7.9340909,
                "end_time": 8.4227273,
                "pitch": 55,
                "velocity": 64,
                "duration": 0.4886364,
                "tempo": 120.0
            },
            {
                "start_time": 8.4227273,
                "end_time": 8.9045455,
                "pitch": 55,
                "velocity": 64,
                "duration": 0.4818182,
                "tempo": 120.0
            },
            {
                "start_time": 8.9045455,
                "end_time": 9.3931818,
                "pitch": 55,
                "velocity": 64,
                "duration": 0.4886364,
                "tempo": 120.0
            },
            {
                "start_time": 9.3931818,
                "end_time": 9.8886364,
                "pitch": 55,
                "velocity": 64,
                "duration": 0.4954545,
                "tempo": 120.0
            },
            {
                "start_time": 9.8886364,
                "end_time": 10.375,
                "pitch": 55,
                "velocity": 64,
                "duration": 0.4863636,
                "tempo": 120.0
            },
            {
                "start_time": 10.375,
                "end_time": 10.8704545,
                "pitch": 55,
                "velocity": 64,
                "duration": 0.4954545,
                "tempo": 120.0
            },
            {
                "start_time": 10.8704545,
                "end_time": 11.3568182,
                "pitch": 55,
                "velocity": 64,
                "duration": 0.4863636,
                "tempo": 120.0
            },
            {
                "start_time": 11.3568182,
                "end_time": 11.8522727,
                "pitch": 55,
                "velocity": 64,
                "duration": 0.4954545,
                "tempo": 120.0
            },
            {
                "start_time": 11.8522727,
                "end_time": 12.3386364,
                "pitch": 58,
                "velocity": 64,
                "duration": 0.4863636,
                "tempo": 120.0
            },
            {
                "start_time": 12.3386364,
                "end_time": 12.8272727,
                "pitch": 58,
                "velocity": 64,
                "duration": 0.4886364,
                "tempo": 120.0
            },
            {
                "start_time": 12.8272727,
                "end_time": 13.3090909,
                "pitch": 58,
                "velocity": 64,
                "duration": 0.4818182,
                "tempo": 120.0
            },
            {
                "start_time": 13.3090909,
                "end_time": 13.8045455,
                "pitch": 58,
                "velocity": 64,
                "duration": 0.4954545,
                "tempo": 120.0
            },
            {
                "start_time": 13.8045455,
                "end_time": 14.2931818,
                "pitch": 58,
                "velocity": 64,
                "duration": 0.4886364,
                "tempo": 120.0
            },
            {
                "start_time": 14.2931818,
                "end_time": 14.7795455,
                "pitch": 58,
                "velocity": 64,
                "duration": 0.4863636,
                "tempo": 120.0
            },
            {
                "start_time": 14.7795455,
                "end_time": 15.2659091,
                "pitch": 58,
                "velocity": 64,
                "duration": 0.4863636,
                "tempo": 120.0
            },
            {
                "start_time": 15.2659091,
                "end_time": 15.7613636,
                "pitch": 58,
                "velocity": 64,
                "duration": 0.4954545,
                "tempo": 120.0
            },
            {
                "start_time": 15.7613636,
                "end_time": 16.25,
                "pitch": 58,
                "velocity": 64,
                "duration": 0.4886364,
                "tempo": 120.0
            },
            {
                "start_time": 16.25,
                "end_time": 16.7431818,
                "pitch": 57,
                "velocity": 64,
                "duration": 0.4931818,
                "tempo": 120.0
            },
            {
                "start_time": 16.7431818,
                "end_time": 17.2318182,
                "pitch": 57,
                "velocity": 64,
                "duration": 0.4886364,
                "tempo": 120.0
            },
            {
                "start_time": 17.2318182,
                "end_time": 17.7181818,
                "pitch": 57,
                "velocity": 64,
                "duration": 0.4863636,
                "tempo": 120.0
            },
            {
                "start_time": 17.7181818,
                "end_time": 18.2136364,
                "pitch": 57,
                "velocity": 64,
                "duration": 0.4954545,
                "tempo": 120.0
            },
            {
                "start_time": 18.2136364,
                "end_time": 18.7,
                "pitch": 57,
                "velocity": 64,
                "duration": 0.4863636,
                "tempo": 120.0
            },
            {
                "start_time": 18.7,
                "end_time": 19.1886364,
                "pitch": 57,
                "velocity": 64,
                "duration": 0.4886364,
                "tempo": 120.0
            },
            {
                "start_time": 19.1886364,
                "end_time": 19.6840909,
                "pitch": 57,
                "velocity": 64,
                "duration": 0.4954545,
                "tempo": 120.0
            },
            {
                "start_time": 19.6840909,
                "end_time": 20.1704545,
                "pitch": 57,
                "velocity": 64,
                "duration": 0.4863636,
                "tempo": 120.0
            },
            {
                "start_time": 20.1704545,
                "end_time": 20.6568182,
                "pitch": 58,
                "velocity": 64,
                "duration": 0.4863636,
                "tempo": 120.0
            },
            {
                "start_time": 20.6568182,
                "end_time": 21.1454545,
                "pitch": 58,
                "velocity": 64,
                "duration": 0.4886364,
                "tempo": 120.0
            },
            {
                "start_time": 21.1454545,
                "end_time": 21.6386364,
                "pitch": 58,
                "velocity": 64,
                "duration": 0.4931818,
                "tempo": 120.0
            },
            {
                "start_time": 21.6386364,
                "end_time": 22.1227273,
                "pitch": 58,
                "velocity": 64,
                "duration": 0.4840909,
                "tempo": 120.0
            },
            {
                "start_time": 22.1227273,
                "end_time": 22.6181818,
                "pitch": 58,
                "velocity": 64,
                "duration": 0.4954545,
                "tempo": 120.0
            },
            {
                "start_time": 22.6181818,
                "end_time": 23.1045455,
                "pitch": 58,
                "velocity": 64,
                "duration": 0.4863636,
                "tempo": 120.0
            },
            {
                "start_time": 23.1045455,
                "end_time": 23.5931818,
                "pitch": 58,
                "velocity": 64,
                "duration": 0.4886364,
                "tempo": 120.0
            },
            {
                "start_time": 23.5931818,
                "end_time": 24.0863636,
                "pitch": 55,
                "velocity": 64,
                "duration": 0.4931818,
                "tempo": 120.0
            },
            {
                "start_time": 24.0863636,
                "end_time": 24.575,
                "pitch": 55,
                "velocity": 64,
                "duration": 0.4886364,
                "tempo": 120.0
            },
            {
                "start_time": 24.575,
                "end_time": 25.0613636,
                "pitch": 55,
                "velocity": 64,
                "duration": 0.4863636,
                "tempo": 120.0
            },
            {
                "start_time": 25.0613636,
                "end_time": 25.5568182,
                "pitch": 55,
                "velocity": 64,
                "duration": 0.4954545,
                "tempo": 120.0
            },
            {
                "start_time": 25.5568182,
                "end_time": 26.0272727,
                "pitch": 55,
                "velocity": 64,
                "duration": 0.4704545,
                "tempo": 120.0
            },
            {
                "start_time": 26.0272727,
                "end_time": 26.5022727,
                "pitch": 55,
                "velocity": 64,
                "duration": 0.475,
                "tempo": 120.0
            },
            {
                "start_time": 26.5022727,
                "end_time": 26.9909091,
                "pitch": 55,
                "velocity": 64,
                "duration": 0.4886364,
                "tempo": 120.0
            },
            {
                "start_time": 26.9909091,
                "end_time": 27.4772727,
                "pitch": 55,
                "velocity": 64,
                "duration": 0.4863636,
                "tempo": 120.0
            },
            {
                "start_time": 27.4772727,
                "end_time": 27.9727273,
                "pitch": 55,
                "velocity": 64,
                "duration": 0.4954545,
                "tempo": 120.0
            },
            {
                "start_time": 27.9727273,
                "end_time": 28.4590909,
                "pitch": 57,
                "velocity": 64,
                "duration": 0.4863636,
                "tempo": 120.0
            },
            {
                "start_time": 28.4590909,
                "end_time": 28.9431818,
                "pitch": 57,
                "velocity": 64,
                "duration": 0.4840909,
                "tempo": 120.0
            },
            {
                "start_time": 28.9431818,
                "end_time": 29.4386364,
                "pitch": 57,
                "velocity": 64,
                "duration": 0.4954545,
                "tempo": 120.0
            },
            {
                "start_time": 29.4386364,
                "end_time": 29.925,
                "pitch": 57,
                "velocity": 64,
                "duration": 0.4863636,
                "tempo": 120.0
            },
            {
                "start_time": 29.925,
                "end_time": 30.4136364,
                "pitch": 57,
                "velocity": 64,
                "duration": 0.4886364,
                "tempo": 120.0
            },
            {
                "start_time": 30.4136364,
                "end_time": 30.8954545,
                "pitch": 57,
                "velocity": 64,
                "duration": 0.4818182,
                "tempo": 120.0
            },
            {
                "start_time": 30.8954545,
                "end_time": 31.3909091,
                "pitch": 57,
                "velocity": 64,
                "duration": 0.4954545,
                "tempo": 120.0
            },
            {
                "start_time": 31.3909091,
                "end_time": 31.8772727,
                "pitch": 50,
                "velocity": 64,
                "duration": 0.4863636,
                "tempo": 120.0
            },
            {
                "start_time": 31.8772727,
                "end_time": 32.2204545,
                "pitch": 50,
                "velocity": 64,
                "duration": 0.3431818,
                "tempo": 120.0
            }
        ]
    }
}