{
    "mood": "relaxed",
    "instruments": {
        "Acoustic Bass": [
            {
                "start_time": 0.0295455,
                "end_time": 0.1795455,
                "pitch": 31,
                "velocity": 4,
                "duration": 0.15,
                "tempo": 120.0
            },
            {
                "start_time": 0.1795455,
                "end_time": 0.3318182,
                "pitch": 31,
                "velocity": 4,
                "duration": 0.1522727,
                "tempo": 120.0
            },
            {
                "start_time": 0.3318182,
                "end_time": 0.4818182,
                "pitch": 31,
                "velocity": 4,
                "duration": 0.15,
                "tempo": 120.0
            },
            {
                "start_time": 0.4818182,
                "end_time": 0.9431818,
                "pitch": 31,
                "velocity": 4,
                "duration": 0.4613636,
                "tempo": 120.0
            },
            {
                "start_time": 0.9431818,
                "end_time": 1.3931818,
                "pitch": 31,
                "velocity": 4,
                "duration": 0.45,
                "tempo": 120.0
            },
            {
                "start_time": 1.3931818,
                "end_time": 1.6272727,
                "pitch": 31,
                "velocity": 4,
                "duration": 0.2340909,
                "tempo": 120.0
            },
            {
                "start_time": 1.6272727,
                "end_time": 1.8454545,
                "pitch": 31,
                "velocity": 5,
                "duration": 0.2181818,
                "tempo": 120.0
            },
            {
                "start_time": 1.8613636,
                "end_time": 1.9954545,
                "pitch": 26,
                "velocity": 5,
                "duration": 0.1340909,
                "tempo": 120.0
            },
            {
                "start_time": 1.9954545,
                "end_time": 2.1454545,
                "pitch": 26,
                "velocity": 5,
                "duration": 0.15,
                "tempo": 120.0
            },
            {
                "start_time": 2.1454545,
                "end_time": 2.2977273,
                "pitch": 26,
                "velocity": 5,
                "duration": 0.1522727,
                "tempo": 120.0
            },
            {
                "start_time": 2.2977273,
                "end_time": 2.775,
                "pitch": 26,
                "velocity": 5,
                "duration": 0.4772727,
                "tempo": 120.0
            },
            {
                "start_time": 2.775,
                "end_time": 3.2363636,
                "pitch": 26,
                "velocity": 5,
                "duration": 0.4613636,
                "tempo": 120.0
            },
            {
                "start_time": 3.2363636,
                "end_time": 3.6886364,
                "pitch": 26,
                "velocity": 6,
                "duration": 0.4522727,
                "tempo": 120.0
            },
            {
                "start_time": 3.6886364,
                "end_time": 3.8386364,
                "pitch": 24,
                "velocity": 6,
                "duration": 0.15,
                "tempo": 120.0
            },
            {
                "start_time": 3.8386364,
                "end_time": 3.9886364,
                "pitch": 24,
                "velocity": 6,
                "duration": 0.15,
                "tempo": 120.0
            },
            {
                "start_time": 3.9886364,
                "end_time": 4.1386364,
                "pitch": 24,
                "velocity": 6,
                "duration": 0.15,
                "tempo": 120.0
            },
            {
                "start_time": 4.1386364,
                "end_time": 4.5909091,
                "pitch": 24,
                "velocity": 6,
                "duration": 0.4522727,
                "tempo": 120.0
            },
            {
                "start_time": 4.5909091,
                "end_time": 5.0477273,
                "pitch": 24,
                "velocity": 8,
                "duration": 0.4568182,
                "tempo": 120.0
            },
            {
                "start_time": 5.0477273,
                "end_time": 5.2795455,
                "pitch": 24,
                "velocity": 8,
                "duration": 0.2318182,
                "tempo": 120.0
            },
            {
                "start_time": 5.2795455,
                "end_time": 5.5477273,
                "pitch": 24,
                "velocity": 8,
                "duration": 0.2681818,
                "tempo": 120.0
            },
            {
                "start_time": 5.5477273,
                "end_time": 5.9840909,
                "pitch": 24,
                "velocity": 8,
                "duration": 0.4363636,
                "tempo": 120.0
            },
            {
                "start_time": 5.9840909,
                "end_time": 6.2181818,
                "pitch": 23,
                "velocity": 10,
                "duration": 0.2340909,
                "tempo": 120.0
            },
            {
                "start_time": 6.2181818,
                "end_time": 6.6681818,
                "pitch": 23,
                "velocity": 10,
                "duration": 0.45,
                "tempo": 120.0
            },
            {
                "start_time": 6.6681818,
                "end_time": 6.8863636,
                "pitch": 23,
                "velocity": 10,
                "duration": 0.2181818,
                "tempo": 120.0
            },
            {
                "start_time": 6.8863636,
                "end_time": 7.1204545,
                "pitch": 35,
                "velocity": 10,
                "duration": 0.2340909,
                "tempo": 120.0
            },
            {
                "start_time": 7.1204545,
                "end_time": 7.3545455,
                "pitch": 23,
                "velocity": 10,
                "duration": 0.2340909,
                "tempo": 120.0
            },
            {
                "start_time": 7.3545455,
                "end_time": 7.8045455,
                "pitch": 31,
                "velocity": 13,
                "duration": 0.45,
                "tempo": 120.0
            },
            {
                "start_time": 7.8045455,
                "end_time": 8.0272727,
                "pitch": 43,
                "velocity": 13,
                "duration": 0.2227273,
                "tempo": 120.0
            },
            {
                "start_time": 8.0272727,
                "end_time": 8.2659091,
                "pitch": 31,
                "velocity": 13,
                "duration": 0.2386364,
                "tempo": 120.0
            },
            {
                "start_time": 8.2659091,
                "end_time": 8.4795455,
                "pitch": 31,
                "velocity": 13,
                "duration": 0.2136364,
                "tempo": 120.0
            },
            {
                "start_time": 8.4795455,
                "end_time": 8.7068182,
                "pitch": 43,
                "velocity": 13,
                "duration": 0.2272727,
                "tempo": 120.0
            },
            {
                "start_time": 8.7068182,
                "end_time": 9.1681818,
                "pitch": 31,
                "velocity": 16,
                "duration": 0.4613636,
                "tempo": 120.0
            },
            {
                "start_time": 9.1681818,
                "end_time": 9.6363636,
                "pitch": 29,
                "velocity": 16,
                "duration": 0.4681818,
                "tempo": 120.0
            },
            {
                "start_time": 9.6363636,
                "end_time": 9.8545455,
                "pitch": 41,
                "velocity": 16,
                "duration": 0.2181818,
                "tempo": 120.0
            },
            {
                "start_time": 9.8545455,
                "end_time": 10.3045455,
                "pitch": 29,
                "velocity": 16,
                "duration": 0.45,
                "tempo": 120.0
            },
            {
                "start_time": 10.3045455,
                "end_time": 10.5386364,
                "pitch": 29,
                "velocity": 20,
                "duration": 0.2340909,
                "tempo": 120.0
            },
            {
                "start_time": 10.5386364,
                "end_time": 10.7613636,
                "pitch": 41,
                "velocity": 20,
                "duration": 0.2227273,
                "tempo": 120.0
            },
            {
                "start_time": 10.7613636,
                "end_time": 11.0,
                "pitch": 29,
                "velocity": 20,
                "duration": 0.2386364,
                "tempo": 120.0
            },
            {
                "start_time": 11.0,
                "end_time": 11.2409091,
                "pitch": 29,
                "velocity": 20,
                "duration": 0.2409091,
                "tempo": 120.0
            },
            {
                "start_time": 11.2409091,
                "end_time": 11.4636364,
                "pitch": 40,
                "velocity": 20,
                "duration": 0.2227273,
                "tempo": 120.0
            },
            {
                "start_time": 11.4636364,
                "end_time": 11.6977273,
                "pitch": 28,
                "velocity": 20,
                "duration": 0.2340909,
                "tempo": 120.0
            },
            {
                "start_time": 11.6977273,
                "end_time": 11.9136364,
                "pitch": 40,
                "velocity": 20,
                "duration": 0.2159091,
                "tempo": 120.0
            },
            {
                "start_time": 11.9136364,
                "end_time": 12.1431818,
                "pitch": 28,
                "velocity": 20,
                "duration": 0.2295455,
                "tempo": 120.0
            },
            {
                "start_time": 12.1431818,
                "end_time": 12.3727273,
                "pitch": 40,
                "velocity": 20,
                "duration": 0.2295455,
                "tempo": 120.0
            },
            {
                "start_time": 12.3727273,
                "end_time": 12.6,
                "pitch": 28,
                "velocity": 20,
                "duration": 0.2272727,
                "tempo": 120.0
            },
            {
                "start_time": 12.6,
                "end_time": 12.8431818,
                "pitch": 40,
                "velocity": 20,
                "duration": 0.2431818,
                "tempo": 120.0
            },
            {
                "start_time": 12.8431818,
                "end_time": 13.0613636,
                "pitch": 28,
                "velocity": 20,
                "duration": 0.2181818,
                "tempo": 120.0
            },
            {
                "start_time": 13.0613636,
                "end_time": 13.2954545,
                "pitch": 40,
                "velocity": 20,
                "duration": 0.2340909,
                "tempo": 120.0
            },
            {
                "start_time": 13.2954545,
                "end_time": 13.5136364,
                "pitch": 28,
                "velocity": 20,
                "duration": 0.2181818,
                "tempo": 120.0
            },
            {
                "start_time": 13.5136364,
                "end_time": 13.7477273,
                "pitch": 40,
                "velocity": 20,
                "duration": 0.2340909,
                "tempo": 120.0
            },
            {
                "start_time": 13.7477273,
                "end_time": 13.9818182,
                "pitch": 28,
                "velocity": 20,
                "duration": 0.2340909,
                "tempo": 120.0
            },
            {
                "start_time": 13.9818182,
                "end_time": 14.1977273,
                "pitch": 40,
                "velocity": 20,
                "duration": 0.2159091,
                "tempo": 120.0
            },
            {
                "start_time": 14.1977273,
                "end_time": 14.4318182,
                "pitch": 47,
                "velocity": 20,
                "duration": 0.2340909,
                "tempo": 120.0
            },
            {
                "start_time": 14.4318182,
                "end_time": 14.65,
                "pitch": 40,
                "velocity": 20,
                "duration": 0.2181818,
                "tempo": 120.0
            },
            {
                "start_time": 14.65,
                "end_time": 14.8159091,
                "pitch": 24,
                "velocity": 20,
                "duration": 0.1659091,
                "tempo": 120.0
            },
            {
                "start_time": 14.8159091,
                "end_time": 14.9659091,
                "pitch": 24,
                "velocity": 20,
                "duration": 0.15,
                "tempo": 120.0
            },
            {
                "start_time": 14.9659091,
                "end_time": 15.1181818,
                "pitch": 24,
                "velocity": 20,
                "duration": 0.1522727,
                "tempo": 120.0
            },
            {
                "start_time": 15.1181818,
                "end_time": 15.5795455,
                "pitch": 24,
                "velocity": 20,
                "duration": 0.4613636,
                "tempo": 120.0
            },
            {
                "start_time": 15.5795455,
                "end_time": 15.7295455,
                "pitch": 36,
                "velocity": 20,
                "duration": 0.15,
                "tempo": 120.0
            },
            {
                "start_time": 15.7295455,
                "end_time": 15.8795455,
                "pitch": 36,
                "velocity": 20,
                "duration": 0.15,
                "tempo": 120.0
            },
            {
                "start_time": 15.8795455,
                "end_time": 16.0295455,
                "pitch": 36,
                "velocity": 20,
                "duration": 0.15,
                "tempo": 120.0
            },
            {
                "start_time": 16.0295455,
                "end_time": 16.4818182,
                "pitch": 36,
                "velocity": 20,
                "duration": 0.4522727,
                "tempo": 120.0
            },
            {
                "start_time": 16.4818182,
                "end_time": 16.6340909,
                "pitch": 26,
                "velocity": 20,
                "duration": 0.1522727,
                "tempo": 120.0
            },
            {
                "start_time": 16.6340909,
                "end_time": 16.7886364,
                "pitch": 26,
                "velocity": 20,
                "duration": 0.1545455,
                "tempo": 120.0
            },
            {
                "start_time": 16.7886364,
                "end_time": 16.9431818,
                "pitch": 26,
                "velocity": 20,
                "duration": 0.1545455,
                "tempo": 120.0
            },
            {
                "start_time": 16.9431818,
                "end_time": 17.4113636,
                "pitch": 26,
                "velocity": 20,
                "duration": 0.4681818,
                "tempo": 120.0
            },
            {
                "start_time": 17.4113636,
                "end_time": 17.5681818,
                "pitch": 38,
                "velocity": 20,
                "duration": 0.1568182,
                "tempo": 120.0
            },
            {
                "start_time": 17.5681818,
                "end_time": 17.725,
                "pitch": 38,
                "velocity": 20,
                "duration": 0.1568182,
                "tempo": 120.0
            },
            {
                "start_time": 17.725,
                "end_time": 17.8840909,
                "pitch": 38,
                "velocity": 20,
                "duration": 0.1590909,
                "tempo": 120.0
            },
            {
                "start_time": 17.8840909,
                "end_time": 18.325,
                "pitch": 38,
                "velocity": 20,
                "duration": 0.4409091,
                "tempo": 120.0
            },
            {
                "start_time": 18.325,
                "end_time": 18.4772727,
                "pitch": 23,
                "velocity": 20,
                "duration": 0.1522727,
                "tempo": 120.0
            },
            {
                "start_time": 18.4772727,
                "end_time": 18.6318182,
                "pitch": 23,
                "velocity": 20,
                "duration": 0.1545455,
                "tempo": 120.0
            },
            {
                "start_time": 18.6318182,
                "end_time": 18.7863636,
                "pitch": 23,
                "velocity": 20,
                "duration": 0.1545455,
                "tempo": 120.0
            },
            {
                "start_time": 18.7863636,
                "end_time": 19.2363636,
                "pitch": 23,
                "velocity": 20,
                "duration": 0.45,
                "tempo": 120.0
            },
            {
                "start_time": 19.2363636,
                "end_time": 19.3840909,
                "pitch": 35,
                "velocity": 20,
                "duration": 0.1477273,
                "tempo": 120.0
            },
            {
                "start_time": 19.3840909,
                "end_time": 19.5318182,
                "pitch": 35,
                "velocity": 20,
                "duration": 0.1477273,
                "tempo": 120.0
            },
            {
                "start_time": 19.5318182,
                "end_time": 19.6772727,
                "pitch": 35,
                "velocity": 20,
                "duration": 0.1454545,
                "tempo": 120.0
            },
            {
                "start_time": 19.6772727,
                "end_time": 20.1454545,
                "pitch": 35,
                "velocity": 20,
                "duration": 0.4681818,
                "tempo": 120.0
            },
            {
                "start_time": 20.1454545,
                "end_time": 20.3045455,
                "pitch": 23,
                "velocity": 20,
                "duration": 0.1590909,
                "tempo": 120.0
            },
            {
                "start_time": 20.3045455,
                "end_time": 20.4613636,
                "pitch": 23,
                "velocity": 20,
                "duration": 0.1568182,
                "tempo": 120.0
            },
            {
                "start_time": 20.4613636,
                "end_time": 20.6181818,
                "pitch": 23,
                "velocity": 20,
                "duration": 0.1568182,
                "tempo": 120.0
            },
            {
                "start_time": 20.6181818,
                "end_time": 21.0704545,
                "pitch": 23,
                "velocity": 20,
                "duration": 0.4522727,
                "tempo": 120.0
            },
            {
                "start_time": 21.0704545,
                "end_time": 21.2204545,
                "pitch": 47,
                "velocity": 20,
                "duration": 0.15,
                "tempo": 120.0
            },
            {
                "start_time": 21.2204545,
                "end_time": 21.3704545,
                "pitch": 47,
                "velocity": 20,
                "duration": 0.15,
                "tempo": 120.0
            },
            {
                "start_time": 21.3704545,
                "end_time": 21.5204545,
                "pitch": 47,
                "velocity": 20,
                "duration": 0.15,
                "tempo": 120.0
            },
            {
                "start_time": 21.5204545,
                "end_time": 21.9818182,
                "pitch": 47,
                "velocity": 20,
                "duration": 0.4613636,
                "tempo": 120.0
            },
            {
                "start_time": 21.9818182,
                "end_time": 22.1340909,
                "pitch": 23,
                "velocity": 20,
                "duration": 0.1522727,
                "tempo": 120.0
            },
            {
                "start_time": 22.1340909,
                "end_time": 22.3,
                "pitch": 24,
                "velocity": 20,
                "duration": 0.1659091,
                "tempo": 120.0
            },
            {
                "start_time": 22.3,
                "end_time": 22.45,
                "pitch": 24,
                "velocity": 20,
                "duration": 0.15,
                "tempo": 120.0
            },
            {
                "start_time": 22.45,
                "end_time": 22.9113636,
                "pitch": 24,
                "velocity": 20,
                "duration": 0.4613636,
                "tempo": 120.0
            },
            {
                "start_time": 22.9113636,
                "end_time": 23.0636364,
                "pitch": 36,
                "velocity": 20,
                "duration": 0.1522727,
                "tempo": 120.0
            },
            {
                "start_time": 23.0636364,
                "end_time": 23.2136364,
                "pitch": 36,
                "velocity": 20,
                "duration": 0.15,
                "tempo": 120.0
            },
            {
                "start_time": 23.2136364,
                "end_time": 23.3636364,
                "pitch": 36,
                "velocity": 20,
                "duration": 0.15,
                "tempo": 120.0
            },
            {
                "start_time": 23.3636364,
                "end_time": 23.8159091,
                "pitch": 36,
                "velocity": 20,
                "duration": 0.4522727,
                "tempo": 120.0
            },
            {
                "start_time": 23.8159091,
                "end_time": 23.9681818,
                "pitch": 26,
                "velocity": 20,
                "duration": 0.1522727,
                "tempo": 120.0
            },
            {
                "start_time": 23.9681818,
                "end_time": 24.1227273,
                "pitch": 26,
                "velocity": 20,
                "duration": 0.1545455,
                "tempo": 120.0
            },
            {
                "start_time": 24.1227273,
                "end_time": 24.2772727,
                "pitch": 26,
                "velocity": 20,
                "duration": 0.1545455,
                "tempo": 120.0
            },
            {
                "start_time": 24.2772727,
                "end_time": 24.7454545,
                "pitch": 26,
                "velocity": 20,
                "duration": 0.4681818,
                "tempo": 120.0
            },
            {
                "start_time": 24.7454545,
                "end_time": 24.8977273,
                "pitch": 38,
                "velocity": 20,
                "duration": 0.1522727,
                "tempo": 120.0
            },
            {
                "start_time": 24.8977273,
                "end_time": 25.0522727,
                "pitch": 38,
                "velocity": 20,
                "duration": 0.1545455,
                "tempo": 120.0
            },
            {
                "start_time": 25.0522727,
                "end_time": 25.2068182,
                "pitch": 38,
                "velocity": 20,
                "duration": 0.1545455,
                "tempo": 120.0
            },
            {
                "start_time": 25.2068182,
                "end_time": 25.6477273,
                "pitch": 38,
                "velocity": 20,
                "duration": 0.4409091,
                "tempo": 120.0
            },
            {
                "start_time": 25.6477273,
                "end_time": 25.8,
                "pitch": 28,
                "velocity": 20,
                "duration": 0.1522727,
                "tempo": 120.0
            },
            {
                "start_time": 25.8,
                "end_time": 25.9545455,
                "pitch": 28,
                "velocity": 20,
                "duration": 0.1545455,
                "tempo": 120.0
            },
            {
                "start_time": 25.9545455,
                "end_time": 26.1090909,
                "pitch": 28,
                "velocity": 20,
                "duration": 0.1545455,
                "tempo": 120.0
            },
            {
                "start_time": 26.1090909,
                "end_time": 26.5590909,
                "pitch": 28,
                "velocity": 20,
                "duration": 0.45,
                "tempo": 120.0
            },
            {
                "start_time": 26.5590909,
                "end_time": 26.7113636,
                "pitch": 40,
                "velocity": 20,
                "duration": 0.1522727,
                "tempo": 120.0
            },
            {
                "start_time": 26.7113636,
                "end_time": 26.8613636,
                "pitch": 40,
                "velocity": 20,
                "duration": 0.15,
                "tempo": 120.0
            },
            {
                "start_time": 26.8613636,
                "end_time": 27.0113636,
                "pitch": 40,
                "velocity": 20,
                "duration": 0.15,
                "tempo": 120.0
            },
            {
                "start_time": 27.0113636,
                "end_time": 27.4795455,
                "pitch": 40,
                "velocity": 20,
                "duration": 0.4681818,
                "tempo": 120.0
            },
            {
                "start_time": 27.4795455,
                "end_time": 27.6340909,
                "pitch": 28,
                "velocity": 20,
                "duration": 0.1545455,
                "tempo": 120.0
            },
            {
                "start_time": 27.6340909,
                "end_time": 27.7863636,
                "pitch": 28,
                "velocity": 20,
                "duration": 0.1522727,
                "tempo": 120.0
            },
            {
                "start_time": 27.7863636,
                "end_time": 27.9409091,
                "pitch": 28,
                "velocity": 20,
                "duration": 0.1545455,
                "tempo": 120.0
            },
            {
                "start_time": 27.9409091,
                "end_time": 28.0954545,
                "pitch": 28,
                "velocity": 20,
                "duration": 0.1545455,
                "tempo": 120.0
            },
            {
                "start_time": 28.0954545,
                "end_time": 28.2477273,
                "pitch": 28,
                "velocity": 20,
                "duration": 0.1522727,
                "tempo": 120.0
            },
            {
                "start_time": 28.2477273,
                "end_time": 28.4022727,
                "pitch": 28,
                "velocity": 20,
                "duration": 0.1545455,
                "tempo": 120.0
            },
            {
                "start_time": 28.4022727,
                "end_time": 28.55,
                "pitch": 40,
                "velocity": 20,
                "duration": 0.1477273,
                "tempo": 120.0
            },
            {
                "start_time": 28.55,
                "end_time": 28.6977273,
                "pitch": 40,
                "velocity": 20,
                "duration": 0.1477273,
                "tempo": 120.0
            },
            {
                "start_time": 28.6977273,
                "end_time": 28.8431818,
                "pitch": 40,
                "velocity": 20,
                "duration": 0.1454545,
                "tempo": 120.0
            },
            {
                "start_time": 28.8431818,
                "end_time": 28.9931818,
                "pitch": 40,
                "velocity": 20,
                "duration": 0.15,
                "tempo": 120.0
            },
            {
                "start_time": 28.9931818,
                "end_time": 29.1454545,
                "pitch": 40,
                "velocity": 20,
                "duration": 0.1522727,
                "tempo": 120.0
            },
            {
                "start_time": 29.1454545,
                "end_time": 29.2954545,
                "pitch": 40,
                "velocity": 20,
                "duration": 0.15,
                "tempo": 120.0
            },
            {
                "start_time": 29.2954545,
                "end_time": 29.4477273,
                "pitch": 31,
                "velocity": 20,
                "duration": 0.1522727,
                "tempo": 120.0
            },
            {
                "start_time": 29.4477273,
                "end_time": 29.6204545,
                "pitch": 31,
                "velocity": 20,
                "duration": 0.1727273,
                "tempo": 120.0
            },
            {
                "start_time": 29.6204545,
                "end_time": 29.7727273,
                "pitch": 31,
                "velocity": 20,
                "duration": 0.1522727,
                "tempo": 120.0
            },
            {
                "start_time": 29.7727273,
                "end_time": 30.2340909,
                "pitch": 31,
                "velocity": 20,
                "duration": 0.4613636,
                "tempo": 120.0
            },
            {
                "start_time": 30.2340909,
                "end_time": 30.6863636,
                "pitch": 31,
                "velocity": 20,
                "duration": 0.4522727,
                "tempo": 120.0
            },
            {
                "start_time": 30.6863636,
                "end_time": 30.925,
                "pitch": 31,
                "velocity": 20,
                "duration": 0.2386364,
                "tempo": 120.0
            },
            {
                "start_time": 30.925,
                "end_time": 31.1477273,
                "pitch": 31,
                "velocity": 20,
                "duration": 0.2227273,
                "tempo": 120.0
            },
            {
                "start_time": 31.1477273,
                "end_time": 31.2977273,
                "pitch": 26,
                "velocity": 20,
                "duration": 0.15,
                "tempo": 120.0
            },
            {
                "start_time": 31.2977273,
                "end_time": 31.45,
                "pitch": 26,
                "velocity": 20,
                "duration": 0.1522727,
                "tempo": 120.0
            },
            {
                "start_time": 31.45,
                "end_time": 31.6,
                "pitch": 26,
                "velocity": 20,
                "duration": 0.15,
                "tempo": 120.0
            },
            {
                "start_time": 31.6,
                "end_time": 32.0681818,
                "pitch": 26,
                "velocity": 20,
                "duration": 0.4681818,
                "tempo": 120.0
            },
            {
                "start_time": 32.0681818,
                "end_time": 32.5295455,
                "pitch": 26,
                "velocity": 20,
                "duration": 0.4613636,
                "tempo": 120.0
            },
            {
                "start_time": 32.5295455,
                "end_time": 32.9795455,
                "pitch": 26,
                "velocity": 20,
                "duration": 0.45,
                "tempo": 120.0
            },
            {
                "start_time": 32.9795455,
                "end_time": 33.1340909,
                "pitch": 24,
                "velocity": 20,
                "duration": 0.1545455,
                "tempo": 120.0
            },
            {
                "start_time": 33.1340909,
                "end_time": 33.2886364,
                "pitch": 24,
                "velocity": 20,
                "duration": 0.1545455,
                "tempo": 120.0
            },
            {
                "start_time": 33.2886364,
                "end_time": 33.4409091,
                "pitch": 24,
                "velocity": 20,
                "duration": 0.1522727,
                "tempo": 120.0
            },
            {
                "start_time": 33.4409091,
                "end_time": 33.8840909,
                "pitch": 24,
                "velocity": 20,
                "duration": 0.4431818,
                "tempo": 120.0
            },
            {
                "start_time": 33.8840909,
                "end_time": 34.325,
                "pitch": 24,
                "velocity": 20,
                "duration": 0.4409091,
                "tempo": 120.0
            },
            {
                "start_time": 34.325,
                "end_time": 34.5636364,
                "pitch": 24,
                "velocity": 20,
                "duration": 0.2386364,
                "tempo": 120.0
            },
            {
                "start_time": 34.5636364,
                "end_time": 34.8022727,
                "pitch": 24,
                "velocity": 20,
                "duration": 0.2386364,
                "tempo": 120.0
            },
            {
                "start_time": 34.8022727,
                "end_time": 35.275,
                "pitch": 24,
                "velocity": 20,
                "duration": 0.4727273,
                "tempo": 120.0
            },
            {
                "start_time": 35.275,
                "end_time": 35.4931818,
                "pitch": 23,
                "velocity": 20,
                "duration": 0.2181818,
                "tempo": 120.0
            },
            {
                "start_time": 35.4931818,
                "end_time": 35.9613636,
                "pitch": 23,
                "velocity": 20,
                "duration": 0.4681818,
                "tempo": 120.0
            },
            {
                "start_time": 35.9613636,
                "end_time": 36.1772727,
                "pitch": 23,
                "velocity": 20,
                "duration": 0.2159091,
                "tempo": 120.0
            },
            {
                "start_time": 36.1772727,
                "end_time": 36.4113636,
                "pitch": 35,
                "velocity": 20,
                "duration": 0.2340909,
                "tempo": 120.0
            },
            {
                "start_time": 36.4113636,
                "end_time": 36.6295455,
                "pitch": 23,
                "velocity": 20,
                "duration": 0.2181818,
                "tempo": 120.0
            },
            {
                "start_time": 36.6295455,
                "end_time": 37.0977273,
                "pitch": 31,
                "velocity": 20,
                "duration": 0.4681818,
                "tempo": 120.0
            },
            {
                "start_time": 37.0977273,
                "end_time": 37.3204545,
                "pitch": 43,
                "velocity": 20,
                "duration": 0.2227273,
                "tempo": 120.0
            },
            {
                "start_time": 37.3204545,
                "end_time": 37.5590909,
                "pitch": 31,
                "velocity": 20,
                "duration": 0.2386364,
                "tempo": 120.0
            },
            {
                "start_time": 37.5590909,
                "end_time": 37.7704545,
                "pitch": 31,
                "velocity": 20,
                "duration": 0.2113636,
                "tempo": 120.0
            },
            {
                "start_time": 37.7704545,
                "end_time": 38.0,
                "pitch": 43,
                "velocity": 20,
                "duration": 0.2295455,
                "tempo": 120.0
            },
            {
                "start_time": 38.0,
                "end_time": 38.4613636,
                "pitch": 31,
                "velocity": 20,
                "duration": 0.4613636,
                "tempo": 120.0
            },
            {
                "start_time": 38.4613636,
                "end_time": 38.9136364,
                "pitch": 29,
                "velocity": 20,
                "duration": 0.4522727,
                "tempo": 120.0
            },
            {
                "start_time": 38.9136364,
                "end_time": 39.1477273,
                "pitch": 41,
                "velocity": 20,
                "duration": 0.2340909,
                "tempo": 120.0
            },
            {
                "start_time": 39.1477273,
                "end_time": 39.5977273,
                "pitch": 29,
                "velocity": 20,
                "duration": 0.45,
                "tempo": 120.0
            },
            {
                "start_time": 39.5977273,
                "end_time": 39.8318182,
                "pitch": 29,
                "velocity": 20,
                "duration": 0.2340909,
                "tempo": 120.0
            },
            {
                "start_time": 39.8318182,
                "end_time": 40.0545455,
                "pitch": 41,
                "velocity": 20,
                "duration": 0.2227273,
                "tempo": 120.0
            },
            {
                "start_time": 40.0545455,
                "end_time": 40.2931818,
                "pitch": 29,
                "velocity": 20,
                "duration": 0.2386364,
                "tempo": 120.0
            },
            {
                "start_time": 40.2931818,
                "end_time": 40.5159091,
                "pitch": 29,
                "velocity": 20,
                "duration": 0.2227273,
                "tempo": 120.0
            },
            {
                "start_time": 40.5159091,
                "end_time": 40.7545455,
                "pitch": 40,
                "velocity": 20,
                "duration": 0.2386364,
                "tempo": 120.0
            },
            {
                "start_time": 40.7545455,
                "end_time": 40.9886364,
                "pitch": 28,
                "velocity": 20,
                "duration": 0.2340909,
                "tempo": 120.0
            },
            {
                "start_time": 40.9886364,
                "end_time": 41.2068182,
                "pitch": 40,
                "velocity": 20,
                "duration": 0.2181818,
                "tempo": 120.0
            },
            {
                "start_time": 41.2068182,
                "end_time": 41.4363636,
                "pitch": 28,
                "velocity": 20,
                "duration": 0.2295455,
                "tempo": 120.0
            },
            {
                "start_time": 41.4363636,
                "end_time": 41.6477273,
                "pitch": 40,
                "velocity": 20,
                "duration": 0.2113636,
                "tempo": 120.0
            },
            {
                "start_time": 41.6477273,
                "end_time": 41.8818182,
                "pitch": 28,
                "velocity": 20,
                "duration": 0.2340909,
                "tempo": 120.0
            },
            {
                "start_time": 41.8818182,
                "end_time": 42.1159091,
                "pitch": 40,
                "velocity": 20,
                "duration": 0.2340909,
                "tempo": 120.0
            },
            {
                "start_time": 42.1159091,
                "end_time": 42.3431818,
                "pitch": 28,
                "velocity": 20,
                "duration": 0.2272727,
                "tempo": 120.0
            },
            {
                "start_time": 42.3431818,
                "end_time": 42.5886364,
                "pitch": 40,
                "velocity": 20,
                "duration": 0.2454545,
                "tempo": 120.0
            },
            {
                "start_time": 42.5886364,
                "end_time": 42.8068182,
                "pitch": 28,
                "velocity": 20,
                "duration": 0.2181818,
                "tempo": 120.0
            },
            {
                "start_time": 42.8068182,
                "end_time": 43.0409091,
                "pitch": 40,
                "velocity": 20,
                "duration": 0.2340909,
                "tempo": 120.0
            },
            {
                "start_time": 43.0409091,
                "end_time": 43.2727273,
                "pitch": 28,
                "velocity": 20,
                "duration": 0.2318182,
                "tempo": 120.0
            },
            {
                "start_time": 43.2727273,
                "end_time": 43.4909091,
                "pitch": 40,
                "velocity": 20,
                "duration": 0.2181818,
                "tempo": 120.0
            },
            {
                "start_time": 43.4909091,
                "end_time": 43.725,
                "pitch": 47,
                "velocity": 20,
                "duration": 0.2340909,
                "tempo": 120.0
            },
            {
                "start_time": 43.725,
                "end_time": 43.9431818,
                "pitch": 40,
                "velocity": 20,
                "duration": 0.2181818,
                "tempo": 120.0
            },
            {
                "start_time": 43.9431818,
                "end_time": 44.0931818,
                "pitch": 24,
                "velocity": 20,
                "duration": 0.15,
                "tempo": 120.0
            },
            {
                "start_time": 44.0931818,
                "end_time": 44.2431818,
                "pitch": 24,
                "velocity": 20,
                "duration": 0.15,
                "tempo": 120.0
            },
            {
                "start_time": 44.2431818,
                "end_time": 44.4113636,
                "pitch": 24,
                "velocity": 20,
                "duration": 0.1681818,
                "tempo": 120.0
            },
            {
                "start_time": 44.4113636,
                "end_time": 44.8818182,
                "pitch": 24,
                "velocity": 20,
                "duration": 0.4704545,
                "tempo": 120.0
            },
            {
                "start_time": 44.8818182,
                "end_time": 45.0295455,
                "pitch": 36,
                "velocity": 20,
                "duration": 0.1477273,
                "tempo": 120.0
            },
            {
                "start_time": 45.0295455,
                "end_time": 45.1772727,
                "pitch": 36,
                "velocity": 20,
                "duration": 0.1477273,
                "tempo": 120.0
            },
            {
                "start_time": 45.1772727,
                "end_time": 45.3227273,
                "pitch": 36,
                "velocity": 20,
                "duration": 0.1454545,
                "tempo": 120.0
            },
            {
                "start_time": 45.3227273,
                "end_time": 45.7840909,
                "pitch": 36,
                "velocity": 20,
                "duration": 0.4613636,
                "tempo": 120.0
            },
            {
                "start_time": 45.7840909,
                "end_time": 45.9386364,
                "pitch": 26,
                "velocity": 20,
                "duration": 0.1545455,
                "tempo": 120.0
            },
            {
                "start_time": 45.9386364,
                "end_time": 46.0931818,
                "pitch": 26,
                "velocity": 20,
                "duration": 0.1545455,
                "tempo": 120.0
            },
            {
                "start_time": 46.0931818,
                "end_time": 46.2454545,
                "pitch": 26,
                "velocity": 20,
                "duration": 0.1522727,
                "tempo": 120.0
            },
            {
                "start_time": 46.2454545,
                "end_time": 46.6886364,
                "pitch": 26,
                "velocity": 20,
                "duration": 0.4431818,
                "tempo": 120.0
            },
            {
                "start_time": 46.6886364,
                "end_time": 46.8545455,
                "pitch": 38,
                "velocity": 20,
                "duration": 0.1659091,
                "tempo": 120.0
            },
            {
                "start_time": 46.8545455,
                "end_time": 47.0045455,
                "pitch": 38,
                "velocity": 20,
                "duration": 0.15,
                "tempo": 120.0
            },
            {
                "start_time": 47.0045455,
                "end_time": 47.1568182,
                "pitch": 38,
                "velocity": 20,
                "duration": 0.1522727,
                "tempo": 120.0
            },
            {
                "start_time": 47.1568182,
                "end_time": 47.6181818,
                "pitch": 38,
                "velocity": 20,
                "duration": 0.4613636,
                "tempo": 120.0
            },
            {
                "start_time": 47.6181818,
                "end_time": 47.7704545,
                "pitch": 23,
                "velocity": 20,
                "duration": 0.1522727,
                "tempo": 120.0
            },
            {
                "start_time": 47.7704545,
                "end_time": 47.925,
                "pitch": 23,
                "velocity": 20,
                "duration": 0.1545455,
                "tempo": 120.0
            },
            {
                "start_time": 47.925,
                "end_time": 48.0795455,
                "pitch": 23,
                "velocity": 20,
                "duration": 0.1545455,
                "tempo": 120.0
            },
            {
                "start_time": 48.0795455,
                "end_time": 48.5318182,
                "pitch": 23,
                "velocity": 20,
                "duration": 0.4522727,
                "tempo": 120.0
            },
            {
                "start_time": 48.5318182,
                "end_time": 48.6818182,
                "pitch": 35,
                "velocity": 20,
                "duration": 0.15,
                "tempo": 120.0
            },
            {
                "start_time": 48.6818182,
                "end_time": 48.8318182,
                "pitch": 35,
                "velocity": 20,
                "duration": 0.15,
                "tempo": 120.0
            },
            {
                "start_time": 48.8318182,
                "end_time": 48.9818182,
                "pitch": 35,
                "velocity": 20,
                "duration": 0.15,
                "tempo": 120.0
            },
            {
                "start_time": 48.9818182,
                "end_time": 49.45,
                "pitch": 35,
                "velocity": 20,
                "duration": 0.4681818,
                "tempo": 120.0
            },
            {
                "start_time": 49.45,
                "end_time": 49.6068182,
                "pitch": 23,
                "velocity": 20,
                "duration": 0.1568182,
                "tempo": 120.0
            },
            {
                "start_time": 49.6068182,
                "end_time": 49.7636364,
                "pitch": 23,
                "velocity": 20,
                "duration": 0.1568182,
                "tempo": 120.0
            },
            {
                "start_time": 49.7636364,
                "end_time": 49.9227273,
                "pitch": 23,
                "velocity": 20,
                "duration": 0.1590909,
                "tempo": 120.0
            },
            {
                "start_time": 49.9227273,
                "end_time": 50.3727273,
                "pitch": 23,
                "velocity": 20,
                "duration": 0.45,
                "tempo": 120.0
            },
            {
                "start_time": 50.3727273,
                "end_time": 50.5204545,
                "pitch": 47,
                "velocity": 20,
                "duration": 0.1477273,
                "tempo": 120.0
            },
            {
                "start_time": 50.5204545,
                "end_time": 50.6681818,
                "pitch": 47,
                "velocity": 20,
                "duration": 0.1477273,
                "tempo": 120.0
            },
            {
                "start_time": 50.6681818,
                "end_time": 50.8159091,
                "pitch": 47,
                "velocity": 20,
                "duration": 0.1477273,
                "tempo": 120.0
            },
            {
                "start_time": 50.8159091,
                "end_time": 51.2772727,
                "pitch": 47,
                "velocity": 20,
                "duration": 0.4613636,
                "tempo": 120.0
            },
            {
                "start_time": 51.2772727,
                "end_time": 51.4272727,
                "pitch": 23,
                "velocity": 20,
                "duration": 0.15,
                "tempo": 120.0
            },
            {
                "start_time": 51.4272727,
                "end_time": 51.5772727,
                "pitch": 24,
                "velocity": 20,
                "duration": 0.15,
                "tempo": 120.0
            },
            {
                "start_time": 51.5772727,
                "end_time": 51.7272727,
                "pitch": 24,
                "velocity": 20,
                "duration": 0.15,
                "tempo": 120.0
            },
            {
                "start_time": 51.7272727,
                "end_time": 52.1954545,
                "pitch": 24,
                "velocity": 20,
                "duration": 0.4681818,
                "tempo": 120.0
            },
            {
                "start_time": 52.1954545,
                "end_time": 52.35,
                "pitch": 36,
                "velocity": 20,
                "duration": 0.1545455,
                "tempo": 120.0
            },
            {
                "start_time": 52.35,
                "end_time": 52.5022727,
                "pitch": 36,
                "velocity": 20,
                "duration": 0.1522727,
                "tempo": 120.0
            },
            {
                "start_time": 52.5022727,
                "end_time": 52.6568182,
                "pitch": 36,
                "velocity": 20,
                "duration": 0.1545455,
                "tempo": 120.0
            },
            {
                "start_time": 52.6568182,
                "end_time": 53.1090909,
                "pitch": 36,
                "velocity": 20,
                "duration": 0.4522727,
                "tempo": 120.0
            },
            {
                "start_time": 53.1090909,
                "end_time": 53.2613636,
                "pitch": 26,
                "velocity": 20,
                "duration": 0.1522727,
                "tempo": 120.0
            },
            {
                "start_time": 53.2613636,
                "end_time": 53.4159091,
                "pitch": 26,
                "velocity": 20,
                "duration": 0.1545455,
                "tempo": 120.0
            },
            {
                "start_time": 53.4159091,
                "end_time": 53.5704545,
                "pitch": 26,
                "velocity": 20,
                "duration": 0.1545455,
                "tempo": 120.0
            },
            {
                "start_time": 53.5704545,
                "end_time": 54.0113636,
                "pitch": 26,
                "velocity": 20,
                "duration": 0.4409091,
                "tempo": 120.0
            },
            {
                "start_time": 54.0113636,
                "end_time": 54.1613636,
                "pitch": 38,
                "velocity": 20,
                "duration": 0.15,
                "tempo": 120.0
            },
            {
                "start_time": 54.1613636,
                "end_time": 54.3295455,
                "pitch": 38,
                "velocity": 20,
                "duration": 0.1681818,
                "tempo": 120.0
            },
            {
                "start_time": 54.3295455,
                "end_time": 54.4795455,
                "pitch": 38,
                "velocity": 20,
                "duration": 0.15,
                "tempo": 120.0
            },
            {
                "start_time": 54.4795455,
                "end_time": 54.9409091,
                "pitch": 38,
                "velocity": 20,
                "duration": 0.4613636,
                "tempo": 120.0
            },
            {
                "start_time": 54.9409091,
                "end_time": 55.0954545,
                "pitch": 28,
                "velocity": 20,
                "duration": 0.1545455,
                "tempo": 120.0
            },
            {
                "start_time": 55.0954545,
                "end_time": 55.2477273,
                "pitch": 28,
                "velocity": 20,
                "duration": 0.1522727,
                "tempo": 120.0
            },
            {
                "start_time": 55.2477273,
                "end_time": 55.4022727,
                "pitch": 28,
                "velocity": 20,
                "duration": 0.1545455,
                "tempo": 120.0
            },
            {
                "start_time": 55.4022727,
                "end_time": 55.8545455,
                "pitch": 28,
                "velocity": 20,
                "duration": 0.4522727,
                "tempo": 120.0
            },
            {
                "start_time": 55.8545455,
                "end_time": 56.0045455,
                "pitch": 40,
                "velocity": 20,
                "duration": 0.15,
                "tempo": 120.0
            },
            {
                "start_time": 56.0045455,
                "end_time": 56.1545455,
                "pitch": 40,
                "velocity": 20,
                "duration": 0.15,
                "tempo": 120.0
            },
            {
                "start_time": 56.1545455,
                "end_time": 56.3045455,
                "pitch": 40,
                "velocity": 20,
                "duration": 0.15,
                "tempo": 120.0
            },
            {
                "start_time": 56.3045455,
                "end_time": 56.7727273,
                "pitch": 40,
                "velocity": 20,
                "duration": 0.4681818,
                "tempo": 120.0
            },
            {
                "start_time": 56.7727273,
                "end_time": 56.9295455,
                "pitch": 28,
                "velocity": 20,
                "duration": 0.1568182,
                "tempo": 120.0
            },
            {
                "start_time": 56.9295455,
                "end_time": 57.0886364,
                "pitch": 28,
                "velocity": 20,
                "duration": 0.1590909,
                "tempo": 120.0
            },
            {
                "start_time": 57.0886364,
                "end_time": 57.2454545,
                "pitch": 28,
                "velocity": 20,
                "duration": 0.1568182,
                "tempo": 120.0
            },
            {
                "start_time": 57.2454545,
                "end_time": 57.3954545,
                "pitch": 28,
                "velocity": 20,
                "duration": 0.15,
                "tempo": 120.0
            },
            {
                "start_time": 57.3954545,
                "end_time": 57.5477273,
                "pitch": 28,
                "velocity": 20,
                "duration": 0.1522727,
                "tempo": 120.0
            },
            {
                "start_time": 57.5477273,
                "end_time": 57.6977273,
                "pitch": 28,
                "velocity": 20,
                "duration": 0.15,
                "tempo": 120.0
            },
            {
                "start_time": 57.6977273,
                "end_time": 57.8431818,
                "pitch": 40,
                "velocity": 20,
                "duration": 0.1454545,
                "tempo": 120.0
            },
            {
                "start_time": 57.8431818,
                "end_time": 57.9909091,
                "pitch": 40,
                "velocity": 20,
                "duration": 0.1477273,
                "tempo": 120.0
            },
            {
                "start_time": 57.9909091,
                "end_time": 58.1386364,
                "pitch": 40,
                "velocity": 20,
                "duration": 0.1477273,
                "tempo": 120.0
            },
            {
                "start_time": 58.1386364,
                "end_time": 58.2886364,
                "pitch": 40,
                "velocity": 20,
                "duration": 0.15,
                "tempo": 120.0
            },
            {
                "start_time": 58.2886364,
                "end_time": 58.4386364,
                "pitch": 40,
                "velocity": 20,
                "duration": 0.15,
                "tempo": 120.0
            },
            {
                "start_time": 58.4386364,
                "end_time": 58.6068182,
                "pitch": 40,
                "velocity": 20,
                "duration": 0.1681818,
                "tempo": 120.0
            },
            {
                "start_time": 58.6068182,
                "end_time": 58.7431818,
                "pitch": 28,
                "velocity": 20,
                "duration": 0.1363636,
                "tempo": 120.0
            },
            {
                "start_time": 58.7431818,
                "end_time": 58.8977273,
                "pitch": 29,
                "velocity": 20,
                "duration": 0.1545455,
                "tempo": 120.0
            },
            {
                "start_time": 58.8977273,
                "end_time": 59.05,
                "pitch": 29,
                "velocity": 20,
                "duration": 0.1522727,
                "tempo": 120.0
            },
            {
                "start_time": 59.05,
                "end_time": 59.2181818,
                "pitch": 41,
                "velocity": 20,
                "duration": 0.1681818,
                "tempo": 120.0
            },
            {
                "start_time": 59.2181818,
                "end_time": 59.3681818,
                "pitch": 41,
                "velocity": 20,
                "duration": 0.15,
                "tempo": 120.0
            },
            {
                "start_time": 59.3681818,
                "end_time": 59.5363636,
                "pitch": 41,
                "velocity": 20,
                "duration": 0.1681818,
                "tempo": 120.0
            },
            {
                "start_time": 59.5363636,
                "end_time": 59.675,
                "pitch": 29,
                "velocity": 20,
                "duration": 0.1386364,
                "tempo": 120.0
            },
            {
                "start_time": 59.675,
                "end_time": 59.8340909,
                "pitch": 29,
                "velocity": 20,
                "duration": 0.1590909,
                "tempo": 120.0
            },
            {
                "start_time": 59.8340909,
                "end_time": 59.9909091,
                "pitch": 29,
                "velocity": 20,
                "duration": 0.1568182,
                "tempo": 120.0
            },
            {
                "start_time": 59.9909091,
                "end_time": 60.1386364,
                "pitch": 41,
                "velocity": 20,
                "duration": 0.1477273,
                "tempo": 120.0
            },
            {
                "start_time": 60.1386364,
                "end_time": 60.2863636,
                "pitch": 41,
                "velocity": 20,
                "duration": 0.1477273,
                "tempo": 120.0
            },
            {
                "start_time": 60.2863636,
                "end_time": 60.45,
                "pitch": 41,
                "velocity": 20,
                "duration": 0.1636364,
                "tempo": 120.0
            },
            {
                "start_time": 60.45,
                "end_time": 60.5818182,
                "pitch": 29,
                "velocity": 20,
                "duration": 0.1318182,
                "tempo": 120.0
            },
            {
                "start_time": 60.5818182,
                "end_time": 60.7340909,
                "pitch": 29,
                "velocity": 20,
                "duration": 0.1522727,
                "tempo": 120.0
            },
            {
                "start_time": 60.7340909,
                "end_time": 60.8840909,
                "pitch": 29,
                "velocity": 20,
                "duration": 0.15,
                "tempo": 120.0
            },
            {
                "start_time": 60.8840909,
                "end_time": 61.0340909,
                "pitch": 41,
                "velocity": 20,
                "duration": 0.15,
                "tempo": 120.0
            },
            {
                "start_time": 61.0340909,
                "end_time": 61.1840909,
                "pitch": 41,
                "velocity": 20,
                "duration": 0.15,
                "tempo": 120.0
            },
            {
                "start_time": 61.1840909,
                "end_time": 61.3522727,
                "pitch": 41,
                "velocity": 20,
                "duration": 0.1681818,
                "tempo": 120.0
            },
            {
                "start_time": 61.3522727,
                "end_time": 61.4909091,
                "pitch": 29,
                "velocity": 20,
                "duration": 0.1386364,
                "tempo": 120.0
            },
            {
                "start_time": 61.4909091,
                "end_time": 61.6659091,
                "pitch": 29,
                "velocity": 20,
                "duration": 0.175,
                "tempo": 120.0
            },
            {
                "start_time": 61.6659091,
                "end_time": 61.8227273,
                "pitch": 29,
                "velocity": 20,
                "duration": 0.1568182,
                "tempo": 120.0
            },
            {
                "start_time": 61.8227273,
                "end_time": 61.975,
                "pitch": 41,
                "velocity": 20,
                "duration": 0.1522727,
                "tempo": 120.0
            },
            {
                "start_time": 61.975,
                "end_time": 62.125,
                "pitch": 41,
                "velocity": 20,
                "duration": 0.15,
                "tempo": 120.0
            },
            {
                "start_time": 62.125,
                "end_time": 62.275,
                "pitch": 41,
                "velocity": 20,
                "duration": 0.15,
                "tempo": 120.0
            },
            {
                "start_time": 62.275,
                "end_time": 62.425,
                "pitch": 29,
                "velocity": 20,
                "duration": 0.15,
                "tempo": 120.0
            },
            {
                "start_time": 62.425,
                "end_time": 62.5772727,
                "pitch": 28,
                "velocity": 20,
                "duration": 0.1522727,
                "tempo": 120.0
            },
            {
                "start_time": 62.5772727,
                "end_time": 62.7272727,
                "pitch": 28,
                "velocity": 20,
                "duration": 0.15,
                "tempo": 120.0
            },
            {
                "start_time": 62.7272727,
                "end_time": 62.8772727,
                "pitch": 40,
                "velocity": 20,
                "duration": 0.15,
                "tempo": 120.0
            },
            {
                "start_time": 62.8772727,
                "end_time": 63.0272727,
                "pitch": 40,
                "velocity": 20,
                "duration": 0.15,
                "tempo": 120.0
            },
            {
                "start_time": 63.0272727,
                "end_time": 63.1772727,
                "pitch": 40,
                "velocity": 20,
                "duration": 0.15,
                "tempo": 120.0
            },
            {
                "start_time": 63.1772727,
                "end_time": 63.3295455,
                "pitch": 28,
                "velocity": 20,
                "duration": 0.1522727,
                "tempo": 120.0
            },
            {
                "start_time": 63.3295455,
                "end_time": 63.4795455,
                "pitch": 28,
                "velocity": 20,
                "duration": 0.15,
                "tempo": 120.0
            },
            {
                "start_time": 63.4795455,
                "end_time": 63.6295455,
                "pitch": 28,
                "velocity": 20,
                "duration": 0.15,
                "tempo": 120.0
            },
            {
                "start_time": 63.6295455,
                "end_time": 63.7818182,
                "pitch": 40,
                "velocity": 20,
                "duration": 0.1522727,
                "tempo": 120.0
            },
            {
                "start_time": 63.7818182,
                "end_time": 63.9363636,
                "pitch": 40,
                "velocity": 20,
                "duration": 0.1545455,
                "tempo": 120.0
            },
            {
                "start_time": 63.9363636,
                "end_time": 64.125,
                "pitch": 40,
                "velocity": 20,
                "duration": 0.1886364,
                "tempo": 120.0
            },
            {
                "start_time": 64.125,
                "end_time": 64.2636364,
                "pitch": 28,
                "velocity": 20,
                "duration": 0.1386364,
                "tempo": 120.0
            },
            {
                "start_time": 64.2636364,
                "end_time": 64.4227273,
                "pitch": 28,
                "velocity": 20,
                "duration": 0.1590909,
                "tempo": 120.0
            },
            {
                "start_time": 64.4227273,
                "end_time": 64.5795455,
                "pitch": 28,
                "velocity": 20,
                "duration": 0.1568182,
                "tempo": 120.0
            },
            {
                "start_time": 64.5795455,
                "end_time": 64.7272727,
                "pitch": 40,
                "velocity": 20,
                "duration": 0.1477273,
                "tempo": 120.0
            },
            {
                "start_time": 64.7272727,
                "end_time": 64.875,
                "pitch": 40,
                "velocity": 20,
                "duration": 0.1477273,
                "tempo": 120.0
            },
            {
                "start_time": 64.875,
                "end_time": 65.0227273,
                "pitch": 40,
                "velocity": 20,
                "duration": 0.1477273,
                "tempo": 120.0
            },
            {
                "start_time": 65.0227273,
                "end_time": 65.1727273,
                "pitch": 28,
                "velocity": 20,
                "duration": 0.15,
                "tempo": 120.0
            },
            {
                "start_time": 65.1727273,
                "end_time": 65.3227273,
                "pitch": 28,
                "velocity": 20,
                "duration": 0.15,
                "tempo": 120.0
            },
            {
                "start_time": 65.3227273,
                "end_time": 65.4727273,
                "pitch": 28,
                "velocity": 20,
                "duration": 0.15,
                "tempo": 120.0
            },
            {
                "start_time": 65.4727273,
                "end_time": 65.6227273,
                "pitch": 40,
                "velocity": 20,
                "duration": 0.15,
                "tempo": 120.0
            },
            {
                "start_time": 65.6227273,
                "end_time": 65.7727273,
                "pitch": 40,
                "velocity": 20,
                "duration": 0.15,
                "tempo": 120.0
            },
            {
                "start_time": 65.7727273,
                "end_time": 65.9409091,
                "pitch": 40,
                "velocity": 20,
                "duration": 0.1681818,
                "tempo": 120.0
            },
            {
                "start_time": 65.9409091,
                "end_time": 66.0772727,
                "pitch": 31,
                "velocity": 20,
                "duration": 0.1363636,
                "tempo": 120.0
            },
            {
                "start_time": 66.0772727,
                "end_time": 66.2318182,
                "pitch": 31,
                "velocity": 20,
                "duration": 0.1545455,
                "tempo": 120.0
            },
            {
                "start_time": 66.2318182,
                "end_time": 66.3840909,
                "pitch": 31,
                "velocity": 20,
                "duration": 0.1522727,
                "tempo": 120.0
            },
            {
                "start_time": 66.3840909,
                "end_time": 66.5454545,
                "pitch": 43,
                "velocity": 20,
                "duration": 0.1613636,
                "tempo": 120.0
            },
            {
                "start_time": 66.5454545,
                "end_time": 66.6886364,
                "pitch": 43,
                "velocity": 20,
                "duration": 0.1431818,
                "tempo": 120.0
            },
            {
                "start_time": 66.6886364,
                "end_time": 66.85,
                "pitch": 43,
                "velocity": 20,
                "duration": 0.1613636,
                "tempo": 120.0
            },
            {
                "start_time": 66.85,
                "end_time": 66.9909091,
                "pitch": 31,
                "velocity": 20,
                "duration": 0.1409091,
                "tempo": 120.0
            },
            {
                "start_time": 66.9909091,
                "end_time": 67.1477273,
                "pitch": 31,
                "velocity": 20,
                "duration": 0.1568182,
                "tempo": 120.0
            },
            {
                "start_time": 67.1477273,
                "end_time": 67.3045455,
                "pitch": 31,
                "velocity": 20,
                "duration": 0.1568182,
                "tempo": 120.0
            },
            {
                "start_time": 67.3045455,
                "end_time": 67.4522727,
                "pitch": 43,
                "velocity": 20,
                "duration": 0.1477273,
                "tempo": 120.0
            },
            {
                "start_time": 67.4522727,
                "end_time": 67.6,
                "pitch": 43,
                "velocity": 20,
                "duration": 0.1477273,
                "tempo": 120.0
            },
            {
                "start_time": 67.6,
                "end_time": 67.7454545,
                "pitch": 43,
                "velocity": 20,
                "duration": 0.1454545,
                "tempo": 120.0
            },
            {
                "start_time": 67.7454545,
                "end_time": 67.9,
                "pitch": 31,
                "velocity": 20,
                "duration": 0.1545455,
                "tempo": 120.0
            },
            {
                "start_time": 67.9,
                "end_time": 68.0545455,
                "pitch": 31,
                "velocity": 20,
                "duration": 0.1545455,
                "tempo": 120.0
            },
            {
                "start_time": 68.0545455,
                "end_time": 68.2068182,
                "pitch": 31,
                "velocity": 20,
                "duration": 0.1522727,
                "tempo": 120.0
            },
            {
                "start_time": 68.2068182,
                "end_time": 68.3568182,
                "pitch": 43,
                "velocity": 20,
                "duration": 0.15,
                "tempo": 120.0
            },
            {
                "start_time": 68.3568182,
                "end_time": 68.5090909,
                "pitch": 43,
                "velocity": 20,
                "duration": 0.1522727,
                "tempo": 120.0
            },
            {
                "start_time": 68.5090909,
                "end_time": 68.6590909,
                "pitch": 43,
                "velocity": 20,
                "duration": 0.15,
                "tempo": 120.0
            },
            {
                "start_time": 68.6590909,
                "end_time": 68.8090909,
                "pitch": 31,
                "velocity": 20,
                "duration": 0.15,
                "tempo": 120.0
            },
            {
                "start_time": 68.8090909,
                "end_time": 68.9590909,
                "pitch": 31,
                "velocity": 20,
                "duration": 0.15,
                "tempo": 120.0
            },
            {
                "start_time": 68.9590909,
                "end_time": 69.1272727,
                "pitch": 31,
                "velocity": 20,
                "duration": 0.1681818,
                "tempo": 120.0
            },
            {
                "start_time": 69.1272727,
                "end_time": 69.2863636,
                "pitch": 43,
                "velocity": 20,
                "duration": 0.1590909,
                "tempo": 120.0
            },
            {
                "start_time": 69.2863636,
                "end_time": 69.4477273,
                "pitch": 43,
                "velocity": 20,
                "duration": 0.1613636,
                "tempo": 120.0
            },
            {
                "start_time": 69.4477273,
                "end_time": 69.6272727,
                "pitch": 43,
                "velocity": 20,
                "duration": 0.1795455,
                "tempo": 120.0
            },
            {
                "start_time": 69.6272727,
                "end_time": 69.7613636,
                "pitch": 29,
                "velocity": 20,
                "duration": 0.1340909,
                "tempo": 120.0
            },
            {
                "start_time": 69.7613636,
                "end_time": 69.9113636,
                "pitch": 29,
                "velocity": 20,
                "duration": 0.15,
                "tempo": 120.0
            },
            {
                "start_time": 69.9113636,
                "end_time": 70.0613636,
                "pitch": 29,
                "velocity": 20,
                "duration": 0.15,
                "tempo": 120.0
            },
            {
                "start_time": 70.0613636,
                "end_time": 70.2090909,
                "pitch": 41,
                "velocity": 20,
                "duration": 0.1477273,
                "tempo": 120.0
            },
            {
                "start_time": 70.2090909,
                "end_time": 70.3568182,
                "pitch": 41,
                "velocity": 20,
                "duration": 0.1477273,
                "tempo": 120.0
            },
            {
                "start_time": 70.3568182,
                "end_time": 70.5045455,
                "pitch": 41,
                "velocity": 20,
                "duration": 0.1477273,
                "tempo": 120.0
            },
            {
                "start_time": 70.5045455,
                "end_time": 70.6545455,
                "pitch": 29,
                "velocity": 20,
                "duration": 0.15,
                "tempo": 120.0
            },
            {
                "start_time": 70.6545455,
                "end_time": 70.8045455,
                "pitch": 29,
                "velocity": 20,
                "duration": 0.15,
                "tempo": 120.0
            },
            {
                "start_time": 70.8045455,
                "end_time": 70.9545455,
                "pitch": 29,
                "velocity": 20,
                "duration": 0.15,
                "tempo": 120.0
            },
            {
                "start_time": 70.9545455,
                "end_time": 71.1045455,
                "pitch": 41,
                "velocity": 20,
                "duration": 0.15,
                "tempo": 120.0
            },
            {
                "start_time": 71.1045455,
                "end_time": 71.2545455,
                "pitch": 41,
                "velocity": 20,
                "duration": 0.15,
                "tempo": 120.0
            },
            {
                "start_time": 71.2545455,
                "end_time": 71.4227273,
                "pitch": 41,
                "velocity": 20,
                "duration": 0.1681818,
                "tempo": 120.0
            },
            {
                "start_time": 71.4227273,
                "end_time": 71.5772727,
                "pitch": 29,
                "velocity": 20,
                "duration": 0.1545455,
                "tempo": 120.0
            },
            {
                "start_time": 71.5772727,
                "end_time": 71.7295455,
                "pitch": 29,
                "velocity": 20,
                "duration": 0.1522727,
                "tempo": 120.0
            },
            {
                "start_time": 71.7295455,
                "end_time": 71.8840909,
                "pitch": 29,
                "velocity": 20,
                "duration": 0.1545455,
                "tempo": 120.0
            },
            {
                "start_time": 71.8840909,
                "end_time": 72.0386364,
                "pitch": 41,
                "velocity": 20,
                "duration": 0.1545455,
                "tempo": 120.0
            },
            {
                "start_time": 72.0386364,
                "end_time": 72.1909091,
                "pitch": 41,
                "velocity": 20,
                "duration": 0.1522727,
                "tempo": 120.0
            },
            {
                "start_time": 72.1909091,
                "end_time": 72.3636364,
                "pitch": 41,
                "velocity": 20,
                "duration": 0.1727273,
                "tempo": 120.0
            },
            {
                "start_time": 72.3636364,
                "end_time": 72.4954545,
                "pitch": 29,
                "velocity": 20,
                "duration": 0.1318182,
                "tempo": 120.0
            },
            {
                "start_time": 72.4954545,
                "end_time": 72.6477273,
                "pitch": 29,
                "velocity": 20,
                "duration": 0.1522727,
                "tempo": 120.0
            },
            {
                "start_time": 72.6477273,
                "end_time": 72.7977273,
                "pitch": 29,
                "velocity": 20,
                "duration": 0.15,
                "tempo": 120.0
            },
            {
                "start_time": 72.7977273,
                "end_time": 72.9477273,
                "pitch": 41,
                "velocity": 20,
                "duration": 0.15,
                "tempo": 120.0
            },
            {
                "start_time": 72.9477273,
                "end_time": 73.0977273,
                "pitch": 41,
                "velocity": 20,
                "duration": 0.15,
                "tempo": 120.0
            },
            {
                "start_time": 73.0977273,
                "end_time": 73.2659091,
                "pitch": 41,
                "velocity": 20,
                "duration": 0.1681818,
                "tempo": 120.0
            },
            {
                "start_time": 73.2659091,
                "end_time": 73.4,
                "pitch": 24,
                "velocity": 20,
                "duration": 0.1340909,
                "tempo": 120.0
            },
            {
                "start_time": 73.4,
                "end_time": 73.55,
                "pitch": 24,
                "velocity": 20,
                "duration": 0.15,
                "tempo": 120.0
            },
            {
                "start_time": 73.55,
                "end_time": 73.7,
                "pitch": 24,
                "velocity": 20,
                "duration": 0.15,
                "tempo": 120.0
            },
            {
                "start_time": 73.7,
                "end_time": 73.8477273,
                "pitch": 36,
                "velocity": 20,
                "duration": 0.1477273,
                "tempo": 120.0
            },
            {
                "start_time": 73.8477273,
                "end_time": 74.0113636,
                "pitch": 36,
                "velocity": 20,
                "duration": 0.1636364,
                "tempo": 120.0
            },
            {
                "start_time": 74.0113636,
                "end_time": 74.1568182,
                "pitch": 36,
                "velocity": 20,
                "duration": 0.1454545,
                "tempo": 120.0
            },
            {
                "start_time": 74.1568182,
                "end_time": 74.3136364,
                "pitch": 24,
                "velocity": 20,
                "duration": 0.1568182,
                "tempo": 120.0
            },
            {
                "start_time": 74.3136364,
                "end_time": 74.4727273,
                "pitch": 24,
                "velocity": 20,
                "duration": 0.1590909,
                "tempo": 120.0
            },
            {
                "start_time": 74.4727273,
                "end_time": 74.6295455,
                "pitch": 24,
                "velocity": 20,
                "duration": 0.1568182,
                "tempo": 120.0
            },
            {
                "start_time": 74.6295455,
                "end_time": 74.7795455,
                "pitch": 36,
                "velocity": 20,
                "duration": 0.15,
                "tempo": 120.0
            },
            {
                "start_time": 74.7795455,
                "end_time": 74.9295455,
                "pitch": 36,
                "velocity": 20,
                "duration": 0.15,
                "tempo": 120.0
            },
            {
                "start_time": 74.9295455,
                "end_time": 75.0818182,
                "pitch": 36,
                "velocity": 20,
                "duration": 0.1522727,
                "tempo": 120.0
            },
            {
                "start_time": 75.0818182,
                "end_time": 75.2318182,
                "pitch": 24,
                "velocity": 20,
                "duration": 0.15,
                "tempo": 120.0
            },
            {
                "start_time": 75.2318182,
                "end_time": 75.3818182,
                "pitch": 24,
                "velocity": 20,
                "duration": 0.15,
                "tempo": 120.0
            },
            {
                "start_time": 75.3818182,
                "end_time": 75.5318182,
                "pitch": 24,
                "velocity": 20,
                "duration": 0.15,
                "tempo": 120.0
            },
            {
                "start_time": 75.5318182,
                "end_time": 75.6818182,
                "pitch": 36,
                "velocity": 20,
                "duration": 0.15,
                "tempo": 120.0
            },
            {
                "start_time": 75.6818182,
                "end_time": 75.8340909,
                "pitch": 36,
                "velocity": 20,
                "duration": 0.1522727,
                "tempo": 120.0
            },
            {
                "start_time": 75.8340909,
                "end_time": 75.9840909,
                "pitch": 36,
                "velocity": 20,
                "duration": 0.15,
                "tempo": 120.0
            },
            {
                "start_time": 75.9840909,
                "end_time": 76.1340909,
                "pitch": 24,
                "velocity": 20,
                "duration": 0.15,
                "tempo": 120.0
            },
            {
                "start_time": 76.1340909,
                "end_time": 76.2840909,
                "pitch": 24,
                "velocity": 20,
                "duration": 0.15,
                "tempo": 120.0
            },
            {
                "start_time": 76.2840909,
                "end_time": 76.4522727,
                "pitch": 24,
                "velocity": 20,
                "duration": 0.1681818,
                "tempo": 120.0
            },
            {
                "start_time": 76.4522727,
                "end_time": 76.6045455,
                "pitch": 36,
                "velocity": 20,
                "duration": 0.1522727,
                "tempo": 120.0
            },
            {
                "start_time": 76.6045455,
                "end_time": 76.7590909,
                "pitch": 36,
                "velocity": 20,
                "duration": 0.1545455,
                "tempo": 120.0
            },
            {
                "start_time": 76.7590909,
                "end_time": 76.9295455,
                "pitch": 36,
                "velocity": 20,
                "duration": 0.1704545,
                "tempo": 120.0
            },
            {
                "start_time": 76.9295455,
                "end_time": 77.0681818,
                "pitch": 24,
                "velocity": 20,
                "duration": 0.1386364,
                "tempo": 120.0
            },
            {
                "start_time": 77.0681818,
                "end_time": 77.2204545,
                "pitch": 23,
                "velocity": 20,
                "duration": 0.1522727,
                "tempo": 120.0
            },
            {
                "start_time": 77.2204545,
                "end_time": 77.375,
                "pitch": 23,
                "velocity": 20,
                "duration": 0.1545455,
                "tempo": 120.0
            },
            {
                "start_time": 77.375,
                "end_time": 77.8363636,
                "pitch": 23,
                "velocity": 20,
                "duration": 0.4613636,
                "tempo": 120.0
            },
            {
                "start_time": 77.8363636,
                "end_time": 77.9840909,
                "pitch": 35,
                "velocity": 20,
                "duration": 0.1477273,
                "tempo": 120.0
            },
            {
                "start_time": 77.9840909,
                "end_time": 78.1318182,
                "pitch": 35,
                "velocity": 20,
                "duration": 0.1477273,
                "tempo": 120.0
            },
            {
                "start_time": 78.1318182,
                "end_time": 78.2772727,
                "pitch": 35,
                "velocity": 20,
                "duration": 0.1454545,
                "tempo": 120.0
            },
            {
                "start_time": 78.2772727,
                "end_time": 78.7295455,
                "pitch": 35,
                "velocity": 20,
                "duration": 0.4522727,
                "tempo": 120.0
            },
            {
                "start_time": 78.7295455,
                "end_time": 78.8954545,
                "pitch": 23,
                "velocity": 20,
                "duration": 0.1659091,
                "tempo": 120.0
            },
            {
                "start_time": 78.8954545,
                "end_time": 79.0477273,
                "pitch": 23,
                "velocity": 20,
                "duration": 0.1522727,
                "tempo": 120.0
            },
            {
                "start_time": 79.0477273,
                "end_time": 79.1977273,
                "pitch": 23,
                "velocity": 20,
                "duration": 0.15,
                "tempo": 120.0
            },
            {
                "start_time": 79.1977273,
                "end_time": 79.6681818,
                "pitch": 23,
                "velocity": 20,
                "duration": 0.4704545,
                "tempo": 120.0
            },
            {
                "start_time": 79.6681818,
                "end_time": 79.8204545,
                "pitch": 35,
                "velocity": 20,
                "duration": 0.1522727,
                "tempo": 120.0
            },
            {
                "start_time": 79.8204545,
                "end_time": 79.9704545,
                "pitch": 35,
                "velocity": 20,
                "duration": 0.15,
                "tempo": 120.0
            },
            {
                "start_time": 79.9704545,
                "end_time": 80.1204545,
                "pitch": 35,
                "velocity": 20,
                "duration": 0.15,
                "tempo": 120.0
            },
            {
                "start_time": 80.1204545,
                "end_time": 80.5886364,
                "pitch": 35,
                "velocity": 20,
                "duration": 0.4681818,
                "tempo": 120.0
            },
            {
                "start_time": 80.5886364,
                "end_time": 80.725,
                "pitch": 28,
                "velocity": 20,
                "duration": 0.1363636,
                "tempo": 120.0
            },
            {
                "start_time": 80.725,
                "end_time": 80.8795455,
                "pitch": 28,
                "velocity": 20,
                "duration": 0.1545455,
                "tempo": 120.0
            },
            {
                "start_time": 80.8795455,
                "end_time": 81.0340909,
                "pitch": 28,
                "velocity": 20,
                "duration": 0.1545455,
                "tempo": 120.0
            },
            {
                "start_time": 81.0340909,
                "end_time": 81.4909091,
                "pitch": 28,
                "velocity": 20,
                "duration": 0.4568182,
                "tempo": 120.0
            },
            {
                "start_time": 81.4909091,
                "end_time": 81.6454545,
                "pitch": 40,
                "velocity": 20,
                "duration": 0.1545455,
                "tempo": 120.0
            },
            {
                "start_time": 81.6454545,
                "end_time": 81.8,
                "pitch": 40,
                "velocity": 20,
                "duration": 0.1545455,
                "tempo": 120.0
            },
            {
                "start_time": 81.8,
                "end_time": 81.9522727,
                "pitch": 40,
                "velocity": 20,
                "duration": 0.1522727,
                "tempo": 120.0
            },
            {
                "start_time": 81.9522727,
                "end_time": 82.4318182,
                "pitch": 40,
                "velocity": 20,
                "duration": 0.4795455,
                "tempo": 120.0
            },
            {
                "start_time": 82.4318182,
                "end_time": 82.5659091,
                "pitch": 28,
                "velocity": 20,
                "duration": 0.1340909,
                "tempo": 120.0
            },
            {
                "start_time": 82.5659091,
                "end_time": 82.7159091,
                "pitch": 28,
                "velocity": 20,
                "duration": 0.15,
                "tempo": 120.0
            },
            {
                "start_time": 82.7159091,
                "end_time": 82.8659091,
                "pitch": 28,
                "velocity": 20,
                "duration": 0.15,
                "tempo": 120.0
            },
            {
                "start_time": 82.8659091,
                "end_time": 83.3181818,
                "pitch": 28,
                "velocity": 20,
                "duration": 0.4522727,
                "tempo": 120.0
            },
            {
                "start_time": 83.3181818,
                "end_time": 83.4636364,
                "pitch": 40,
                "velocity": 20,
                "duration": 0.1454545,
                "tempo": 120.0
            },
            {
                "start_time": 83.4636364,
                "end_time": 83.6113636,
                "pitch": 40,
                "velocity": 20,
                "duration": 0.1477273,
                "tempo": 120.0
            },
            {
                "start_time": 83.6113636,
                "end_time": 83.775,
                "pitch": 40,
                "velocity": 20,
                "duration": 0.1636364,
                "tempo": 120.0
            },
            {
                "start_time": 83.775,
                "end_time": 84.2636364,
                "pitch": 40,
                "velocity": 20,
                "duration": 0.4886364,
                "tempo": 120.0
            },
            {
                "start_time": 84.2636364,
                "end_time": 84.4022727,
                "pitch": 25,
                "velocity": 20,
                "duration": 0.1386364,
                "tempo": 120.0
            },
            {
                "start_time": 84.4022727,
                "end_time": 84.5545455,
                "pitch": 25,
                "velocity": 20,
                "duration": 0.1522727,
                "tempo": 120.0
            },
            {
                "start_time": 84.5545455,
                "end_time": 84.7090909,
                "pitch": 25,
                "velocity": 20,
                "duration": 0.1545455,
                "tempo": 120.0
            },
            {
                "start_time": 84.7090909,
                "end_time": 85.15,
                "pitch": 25,
                "velocity": 20,
                "duration": 0.4409091,
                "tempo": 120.0
            },
            {
                "start_time": 85.15,
                "end_time": 85.3022727,
                "pitch": 37,
                "velocity": 20,
                "duration": 0.1522727,
                "tempo": 120.0
            },
            {
                "start_time": 85.3022727,
                "end_time": 85.4522727,
                "pitch": 37,
                "velocity": 20,
                "duration": 0.15,
                "tempo": 120.0
            },
            {
                "start_time": 85.4522727,
                "end_time": 85.6022727,
                "pitch": 37,
                "velocity": 20,
                "duration": 0.15,
                "tempo": 120.0
            },
            {
                "start_time": 85.6022727,
                "end_time": 86.0704545,
                "pitch": 37,
                "velocity": 20,
                "duration": 0.4681818,
                "tempo": 120.0
            },
            {
                "start_time": 86.0704545,
                "end_time": 86.2068182,
                "pitch": 25,
                "velocity": 20,
                "duration": 0.1363636,
                "tempo": 120.0
            },
            {
                "start_time": 86.2068182,
                "end_time": 86.3772727,
                "pitch": 25,
                "velocity": 20,
                "duration": 0.1704545,
                "tempo": 120.0
            },
            {
                "start_time": 86.3772727,
                "end_time": 86.5318182,
                "pitch": 25,
                "velocity": 20,
                "duration": 0.1545455,
                "tempo": 120.0
            },
            {
                "start_time": 86.5318182,
                "end_time": 86.9931818,
                "pitch": 25,
                "velocity": 20,
                "duration": 0.4613636,
                "tempo": 120.0
            },
            {
                "start_time": 86.9931818,
                "end_time": 87.1431818,
                "pitch": 37,
                "velocity": 20,
                "duration": 0.15,
                "tempo": 120.0
            },
            {
                "start_time": 87.1431818,
                "end_time": 87.2954545,
                "pitch": 37,
                "velocity": 20,
                "duration": 0.1522727,
                "tempo": 120.0
            },
            {
                "start_time": 87.2954545,
                "end_time": 87.4454545,
                "pitch": 37,
                "velocity": 20,
                "duration": 0.15,
                "tempo": 120.0
            },
            {
                "start_time": 87.4454545,
                "end_time": 87.9136364,
                "pitch": 37,
                "velocity": 20,
                "duration": 0.4681818,
                "tempo": 120.0
            },
            {
                "start_time": 87.9136364,
                "end_time": 88.0454545,
                "pitch": 25,
                "velocity": 20,
                "duration": 0.1318182,
                "tempo": 120.0
            },
            {
                "start_time": 88.0454545,
                "end_time": 88.1977273,
                "pitch": 27,
                "velocity": 20,
                "duration": 0.1522727,
                "tempo": 120.0
            },
            {
                "start_time": 88.1977273,
                "end_time": 88.3477273,
                "pitch": 27,
                "velocity": 20,
                "duration": 0.15,
                "tempo": 120.0
            },
            {
                "start_time": 88.3477273,
                "end_time": 88.8159091,
                "pitch": 27,
                "velocity": 20,
                "duration": 0.4681818,
                "tempo": 120.0
            },
            {
                "start_time": 88.8159091,
                "end_time": 88.9681818,
                "pitch": 39,
                "velocity": 20,
                "duration": 0.1522727,
                "tempo": 120.0
            },
            {
                "start_time": 88.9681818,
                "end_time": 89.1227273,
                "pitch": 39,
                "velocity": 20,
                "duration": 0.1545455,
                "tempo": 120.0
            },
            {
                "start_time": 89.1227273,
                "end_time": 89.2772727,
                "pitch": 39,
                "velocity": 20,
                "duration": 0.1545455,
                "tempo": 120.0
            },
            {
                "start_time": 89.2772727,
                "end_time": 89.7454545,
                "pitch": 39,
                "velocity": 20,
                "duration": 0.4681818,
                "tempo": 120.0
            },
            {
                "start_time": 89.7454545,
                "end_time": 89.8840909,
                "pitch": 27,
                "velocity": 20,
                "duration": 0.1386364,
                "tempo": 120.0
            },
            {
                "start_time": 89.8840909,
                "end_time": 90.0409091,
                "pitch": 27,
                "velocity": 20,
                "duration": 0.1568182,
                "tempo": 120.0
            },
            {
                "start_time": 90.0409091,
                "end_time": 90.2,
                "pitch": 27,
                "velocity": 20,
                "duration": 0.1590909,
                "tempo": 120.0
            },
            {
                "start_time": 90.2,
                "end_time": 90.6318182,
                "pitch": 27,
                "velocity": 20,
                "duration": 0.4318182,
                "tempo": 120.0
            },
            {
                "start_time": 90.6318182,
                "end_time": 90.7818182,
                "pitch": 39,
                "velocity": 20,
                "duration": 0.15,
                "tempo": 120.0
            },
            {
                "start_time": 90.7818182,
                "end_time": 90.9318182,
                "pitch": 39,
                "velocity": 20,
                "duration": 0.15,
                "tempo": 120.0
            },
            {
                "start_time": 90.9318182,
                "end_time": 91.0818182,
                "pitch": 39,
                "velocity": 20,
                "duration": 0.15,
                "tempo": 120.0
            },
            {
                "start_time": 91.0818182,
                "end_time": 91.5681818,
                "pitch": 39,
                "velocity": 20,
                "duration": 0.4863636,
                "tempo": 120.0
            },
            {
                "start_time": 91.5681818,
                "end_time": 91.7068182,
                "pitch": 29,
                "velocity": 20,
                "duration": 0.1386364,
                "tempo": 120.0
            },
            {
                "start_time": 91.7068182,
                "end_time": 91.8659091,
                "pitch": 29,
                "velocity": 20,
                "duration": 0.1590909,
                "tempo": 120.0
            },
            {
                "start_time": 91.8659091,
                "end_time": 92.0227273,
                "pitch": 29,
                "velocity": 20,
                "duration": 0.1568182,
                "tempo": 120.0
            },
            {
                "start_time": 92.0227273,
                "end_time": 92.475,
                "pitch": 29,
                "velocity": 20,
                "duration": 0.4522727,
                "tempo": 120.0
            },
            {
                "start_time": 92.475,
                "end_time": 92.9159091,
                "pitch": 29,
                "velocity": 20,
                "duration": 0.4409091,
                "tempo": 120.0
            },
            {
                "start_time": 92.9159091,
                "end_time": 93.1590909,
                "pitch": 29,
                "velocity": 20,
                "duration": 0.2431818,
                "tempo": 120.0
            },
            {
                "start_time": 93.1590909,
                "end_time": 93.3863636,
                "pitch": 29,
                "velocity": 20,
                "duration": 0.2272727,
                "tempo": 120.0
            },
            {
                "start_time": 93.3863636,
                "end_time": 93.5340909,
                "pitch": 24,
                "velocity": 20,
                "duration": 0.1477273,
                "tempo": 120.0
            },
            {
                "start_time": 93.5340909,
                "end_time": 93.6977273,
                "pitch": 24,
                "velocity": 20,
                "duration": 0.1636364,
                "tempo": 120.0
            },
            {
                "start_time": 93.6977273,
                "end_time": 93.8454545,
                "pitch": 24,
                "velocity": 20,
                "duration": 0.1477273,
                "tempo": 120.0
            },
            {
                "start_time": 93.8454545,
                "end_time": 94.3159091,
                "pitch": 24,
                "velocity": 20,
                "duration": 0.4704545,
                "tempo": 120.0
            },
            {
                "start_time": 94.3159091,
                "end_time": 94.7681818,
                "pitch": 24,
                "velocity": 20,
                "duration": 0.4522727,
                "tempo": 120.0
            },
            {
                "start_time": 94.7681818,
                "end_time": 95.2204545,
                "pitch": 24,
                "velocity": 20,
                "duration": 0.4522727,
                "tempo": 120.0
            },
            {
                "start_time": 95.2204545,
                "end_time": 95.3704545,
                "pitch": 24,
                "velocity": 20,
                "duration": 0.15,
                "tempo": 120.0
            },
            {
                "start_time": 95.3704545,
                "end_time": 95.5204545,
                "pitch": 22,
                "velocity": 20,
                "duration": 0.15,
                "tempo": 120.0
            },
            {
                "start_time": 95.5204545,
                "end_time": 95.6704545,
                "pitch": 22,
                "velocity": 20,
                "duration": 0.15,
                "tempo": 120.0
            },
            {
                "start_time": 95.6704545,
                "end_time": 96.1386364,
                "pitch": 22,
                "velocity": 20,
                "duration": 0.4681818,
                "tempo": 120.0
            },
            {
                "start_time": 96.1386364,
                "end_time": 96.5909091,
                "pitch": 22,
                "velocity": 20,
                "duration": 0.4522727,
                "tempo": 120.0
            },
            {
                "start_time": 96.5909091,
                "end_time": 96.8181818,
                "pitch": 22,
                "velocity": 20,
                "duration": 0.2272727,
                "tempo": 120.0
            },
            {
                "start_time": 96.8181818,
                "end_time": 97.0613636,
                "pitch": 22,
                "velocity": 20,
                "duration": 0.2431818,
                "tempo": 120.0
            },
            {
                "start_time": 97.0613636,
                "end_time": 97.5045455,
                "pitch": 22,
                "velocity": 20,
                "duration": 0.4431818,
                "tempo": 120.0
            },
            {
                "start_time": 97.5045455,
                "end_time": 97.7431818,
                "pitch": 21,
                "velocity": 20,
                "duration": 0.2386364,
                "tempo": 120.0
            },
            {
                "start_time": 97.7431818,
                "end_time": 98.2,
                "pitch": 21,
                "velocity": 20,
                "duration": 0.4568182,
                "tempo": 120.0
            },
            {
                "start_time": 98.2,
                "end_time": 98.4159091,
                "pitch": 21,
                "velocity": 20,
                "duration": 0.2159091,
                "tempo": 120.0
            },
            {
                "start_time": 98.4159091,
                "end_time": 98.6454545,
                "pitch": 33,
                "velocity": 20,
                "duration": 0.2295455,
                "tempo": 120.0
            },
            {
                "start_time": 98.6454545,
                "end_time": 98.875,
                "pitch": 21,
                "velocity": 20,
                "duration": 0.2295455,
                "tempo": 120.0
            },
            {
                "start_time": 98.875,
                "end_time": 99.3454545,
                "pitch": 29,
                "velocity": 20,
                "duration": 0.4704545,
                "tempo": 120.0
            },
            {
                "start_time": 99.3454545,
                "end_time": 99.5636364,
                "pitch": 41,
                "velocity": 20,
                "duration": 0.2181818,
                "tempo": 120.0
            },
            {
                "start_time": 99.5636364,
                "end_time": 99.7977273,
                "pitch": 29,
                "velocity": 20,
                "duration": 0.2340909,
                "tempo": 120.0
            },
            {
                "start_time": 99.7977273,
                "end_time": 100.0272727,
                "pitch": 29,
                "velocity": 20,
                "duration": 0.2295455,
                "tempo": 120.0
            },
            {
                "start_time": 100.0272727,
                "end_time": 100.2386364,
                "pitch": 41,
                "velocity": 20,
                "duration": 0.2113636,
                "tempo": 120.0
            },
            {
                "start_time": 100.2386364,
                "end_time": 100.7,
                "pitch": 29,
                "velocity": 20,
                "duration": 0.4613636,
                "tempo": 120.0
            },
            {
                "start_time": 100.7,
                "end_time": 101.1681818,
                "pitch": 27,
                "velocity": 20,
                "duration": 0.4681818,
                "tempo": 120.0
            },
            {
                "start_time": 101.1681818,
                "end_time": 101.3909091,
                "pitch": 39,
                "velocity": 20,
                "duration": 0.2227273,
                "tempo": 120.0
            },
            {
                "start_time": 101.3909091,
                "end_time": 101.8477273,
                "pitch": 27,
                "velocity": 20,
                "duration": 0.4568182,
                "tempo": 120.0
            },
            {
                "start_time": 101.8477273,
                "end_time": 102.0818182,
                "pitch": 27,
                "velocity": 20,
                "duration": 0.2340909,
                "tempo": 120.0
            },
            {
                "start_time": 102.0818182,
                "end_time": 102.3159091,
                "pitch": 39,
                "velocity": 20,
                "duration": 0.2340909,
                "tempo": 120.0
            },
            {
                "start_time": 102.3159091,
                "end_time": 102.5318182,
                "pitch": 27,
                "velocity": 20,
                "duration": 0.2159091,
                "tempo": 120.0
            },
            {
                "start_time": 102.5318182,
                "end_time": 102.7727273,
                "pitch": 27,
                "velocity": 20,
                "duration": 0.2409091,
                "tempo": 120.0
            },
            {
                "start_time": 102.7727273,
                "end_time": 102.9931818,
                "pitch": 38,
                "velocity": 20,
                "duration": 0.2204545,
                "tempo": 120.0
            },
            {
                "start_time": 102.9931818,
                "end_time": 103.2272727,
                "pitch": 26,
                "velocity": 20,
                "duration": 0.2340909,
                "tempo": 120.0
            },
            {
                "start_time": 103.2272727,
                "end_time": 103.4454545,
                "pitch": 38,
                "velocity": 20,
                "duration": 0.2181818,
                "tempo": 120.0
            },
            {
                "start_time": 103.4454545,
                "end_time": 103.675,
                "pitch": 26,
                "velocity": 20,
                "duration": 0.2295455,
                "tempo": 120.0
            },
            {
                "start_time": 103.675,
                "end_time": 103.9022727,
                "pitch": 38,
                "velocity": 20,
                "duration": 0.2272727,
                "tempo": 120.0
            },
            {
                "start_time": 103.9022727,
                "end_time": 104.125,
                "pitch": 26,
                "velocity": 20,
                "duration": 0.2227273,
                "tempo": 120.0
            },
            {
                "start_time": 104.125,
                "end_time": 104.3659091,
                "pitch": 38,
                "velocity": 20,
                "duration": 0.2409091,
                "tempo": 120.0
            },
            {
                "start_time": 104.3659091,
                "end_time": 104.5863636,
                "pitch": 26,
                "velocity": 20,
                "duration": 0.2204545,
                "tempo": 120.0
            },
            {
                "start_time": 104.5863636,
                "end_time": 104.8272727,
                "pitch": 38,
                "velocity": 20,
                "duration": 0.2409091,
                "tempo": 120.0
            },
            {
                "start_time": 104.8272727,
                "end_time": 105.0613636,
                "pitch": 26,
                "velocity": 20,
                "duration": 0.2340909,
                "tempo": 120.0
            },
            {
                "start_time": 105.0613636,
                "end_time": 105.2772727,
                "pitch": 38,
                "velocity": 20,
                "duration": 0.2159091,
                "tempo": 120.0
            },
            {
                "start_time": 105.2772727,
                "end_time": 105.5113636,
                "pitch": 26,
                "velocity": 20,
                "duration": 0.2340909,
                "tempo": 120.0
            },
            {
                "start_time": 105.5113636,
                "end_time": 105.7295455,
                "pitch": 38,
                "velocity": 20,
                "duration": 0.2181818,
                "tempo": 120.0
            },
            {
                "start_time": 105.7295455,
                "end_time": 105.9636364,
                "pitch": 45,
                "velocity": 20,
                "duration": 0.2340909,
                "tempo": 120.0
            },
            {
                "start_time": 105.9636364,
                "end_time": 106.1977273,
                "pitch": 38,
                "velocity": 20,
                "duration": 0.2340909,
                "tempo": 120.0
            },
            {
                "start_time": 106.1977273,
                "end_time": 106.3545455,
                "pitch": 22,
                "velocity": 20,
                "duration": 0.1568182,
                "tempo": 120.0
            },
            {
                "start_time": 106.3545455,
                "end_time": 106.5113636,
                "pitch": 22,
                "velocity": 20,
                "duration": 0.1568182,
                "tempo": 120.0
            },
            {
                "start_time": 106.5113636,
                "end_time": 106.6704545,
                "pitch": 22,
                "velocity": 20,
                "duration": 0.1590909,
                "tempo": 120.0
            },
            {
                "start_time": 106.6704545,
                "end_time": 107.1113636,
                "pitch": 22,
                "velocity": 20,
                "duration": 0.4409091,
                "tempo": 120.0
            },
            {
                "start_time": 107.1113636,
                "end_time": 107.2613636,
                "pitch": 34,
                "velocity": 20,
                "duration": 0.15,
                "tempo": 120.0
            },
            {
                "start_time": 107.2613636,
                "end_time": 107.4113636,
                "pitch": 34,
                "velocity": 20,
                "duration": 0.15,
                "tempo": 120.0
            },
            {
                "start_time": 107.4113636,
                "end_time": 107.5613636,
                "pitch": 34,
                "velocity": 20,
                "duration": 0.15,
                "tempo": 120.0
            },
            {
                "start_time": 107.5613636,
                "end_time": 108.0136364,
                "pitch": 34,
                "velocity": 20,
                "duration": 0.4522727,
                "tempo": 120.0
            },
            {
                "start_time": 108.0136364,
                "end_time": 108.1659091,
                "pitch": 22,
                "velocity": 20,
                "duration": 0.1522727,
                "tempo": 120.0
            },
            {
                "start_time": 108.1659091,
                "end_time": 108.3204545,
                "pitch": 24,
                "velocity": 20,
                "duration": 0.1545455,
                "tempo": 120.0
            },
            {
                "start_time": 108.3204545,
                "end_time": 108.4909091,
                "pitch": 24,
                "velocity": 20,
                "duration": 0.1704545,
                "tempo": 120.0
            },
            {
                "start_time": 108.4909091,
                "end_time": 108.9636364,
                "pitch": 24,
                "velocity": 20,
                "duration": 0.4727273,
                "tempo": 120.0
            },
            {
                "start_time": 108.9636364,
                "end_time": 109.1159091,
                "pitch": 36,
                "velocity": 20,
                "duration": 0.1522727,
                "tempo": 120.0
            },
            {
                "start_time": 109.1159091,
                "end_time": 109.2659091,
                "pitch": 36,
                "velocity": 20,
                "duration": 0.15,
                "tempo": 120.0
            },
            {
                "start_time": 109.2659091,
                "end_time": 109.4159091,
                "pitch": 36,
                "velocity": 20,
                "duration": 0.15,
                "tempo": 120.0
            },
            {
                "start_time": 109.4159091,
                "end_time": 109.8568182,
                "pitch": 36,
                "velocity": 20,
                "duration": 0.4409091,
                "tempo": 120.0
            },
            {
                "start_time": 109.8568182,
                "end_time": 110.0113636,
                "pitch": 21,
                "velocity": 20,
                "duration": 0.1545455,
                "tempo": 120.0
            },
            {
                "start_time": 110.0113636,
                "end_time": 110.1636364,
                "pitch": 21,
                "velocity": 20,
                "duration": 0.1522727,
                "tempo": 120.0
            },
            {
                "start_time": 110.1636364,
                "end_time": 110.3181818,
                "pitch": 21,
                "velocity": 20,
                "duration": 0.1545455,
                "tempo": 120.0
            },
            {
                "start_time": 110.3181818,
                "end_time": 110.7704545,
                "pitch": 21,
                "velocity": 20,
                "duration": 0.4522727,
                "tempo": 120.0
            },
            {
                "start_time": 110.7704545,
                "end_time": 110.9363636,
                "pitch": 33,
                "velocity": 20,
                "duration": 0.1659091,
                "tempo": 120.0
            },
            {
                "start_time": 110.9363636,
                "end_time": 111.0863636,
                "pitch": 33,
                "velocity": 20,
                "duration": 0.15,
                "tempo": 120.0
            },
            {
                "start_time": 111.0863636,
                "end_time": 111.2386364,
                "pitch": 33,
                "velocity": 20,
                "duration": 0.1522727,
                "tempo": 120.0
            },
            {
                "start_time": 111.2386364,
                "end_time": 111.7,
                "pitch": 33,
                "velocity": 20,
                "duration": 0.4613636,
                "tempo": 120.0
            },
            {
                "start_time": 111.7,
                "end_time": 111.8522727,
                "pitch": 21,
                "velocity": 20,
                "duration": 0.1522727,
                "tempo": 120.0
            },
            {
                "start_time": 111.8522727,
                "end_time": 112.025,
                "pitch": 21,
                "velocity": 20,
                "duration": 0.1727273,
                "tempo": 120.0
            },
            {
                "start_time": 112.025,
                "end_time": 112.1772727,
                "pitch": 21,
                "velocity": 20,
                "duration": 0.1522727,
                "tempo": 120.0
            },
            {
                "start_time": 112.1772727,
                "end_time": 112.675,
                "pitch": 21,
                "velocity": 20,
                "duration": 0.4977273,
                "tempo": 120.0
            },
            {
                "start_time": 112.675,
                "end_time": 112.8318182,
                "pitch": 45,
                "velocity": 20,
                "duration": 0.1568182,
                "tempo": 120.0
            },
            {
                "start_time": 112.8318182,
                "end_time": 113.0068182,
                "pitch": 45,
                "velocity": 20,
                "duration": 0.175,
                "tempo": 120.0
            },
            {
                "start_time": 113.0068182,
                "end_time": 113.1636364,
                "pitch": 45,
                "velocity": 20,
                "duration": 0.1568182,
                "tempo": 120.0
            },
            {
                "start_time": 113.1636364,
                "end_time": 113.6840909,
                "pitch": 45,
                "velocity": 20,
                "duration": 0.5204545,
                "tempo": 120.0
            },
            {
                "start_time": 113.6840909,
                "end_time": 113.8431818,
                "pitch": 21,
                "velocity": 20,
                "duration": 0.1590909,
                "tempo": 120.0
            },
            {
                "start_time": 113.8431818,
                "end_time": 114.0204545,
                "pitch": 22,
                "velocity": 20,
                "duration": 0.1772727,
                "tempo": 120.0
            },
            {
                "start_time": 114.0204545,
                "end_time": 114.1818182,
                "pitch": 22,
                "velocity": 20,
                "duration": 0.1613636,
                "tempo": 120.0
            },
            {
                "start_time": 114.1818182,
                "end_time": 114.6727273,
                "pitch": 22,
                "velocity": 20,
                "duration": 0.4909091,
                "tempo": 120.0
            },
            {
                "start_time": 114.6727273,
                "end_time": 114.8477273,
                "pitch": 34,
                "velocity": 20,
                "duration": 0.175,
                "tempo": 120.0
            },
            {
                "start_time": 114.8477273,
                "end_time": 115.0045455,
                "pitch": 34,
                "velocity": 20,
                "duration": 0.1568182,
                "tempo": 120.0
            },
            {
                "start_time": 115.0045455,
                "end_time": 115.1795455,
                "pitch": 34,
                "velocity": 20,
                "duration": 0.175,
                "tempo": 120.0
            },
            {
                "start_time": 115.1795455,
                "end_time": 115.6863636,
                "pitch": 34,
                "velocity": 20,
                "duration": 0.5068182,
                "tempo": 120.0
            },
            {
                "start_time": 115.6863636,
                "end_time": 115.8477273,
                "pitch": 22,
                "velocity": 20,
                "duration": 0.1613636,
                "tempo": 120.0
            },
            {
                "start_time": 115.8477273,
                "end_time": 116.025,
                "pitch": 24,
                "velocity": 20,
                "duration": 0.1772727,
                "tempo": 120.0
            },
            {
                "start_time": 116.025,
                "end_time": 116.2022727,
                "pitch": 24,
                "velocity": 20,
                "duration": 0.1772727,
                "tempo": 120.0
            },
            {
                "start_time": 116.2022727,
                "end_time": 116.7681818,
                "pitch": 24,
                "velocity": 20,
                "duration": 0.5659091,
                "tempo": 120.0
            },
            {
                "start_time": 116.7681818,
                "end_time": 116.9636364,
                "pitch": 36,
                "velocity": 20,
                "duration": 0.1954545,
                "tempo": 120.0
            },
            {
                "start_time": 116.9636364,
                "end_time": 117.1590909,
                "pitch": 36,
                "velocity": 20,
                "duration": 0.1954545,
                "tempo": 120.0
            },
            {
                "start_time": 117.1590909,
                "end_time": 117.3568182,
                "pitch": 36,
                "velocity": 20,
                "duration": 0.1977273,
                "tempo": 120.0
            },
            {
                "start_time": 117.3568182,
                "end_time": 117.9204545,
                "pitch": 36,
                "velocity": 20,
                "duration": 0.5636364,
                "tempo": 120.0
            }
        ]
    }
}