{
    "mood": "relaxed",
    "instruments": {
        "Vibraphone": [
            {
                "start_time": 0.0318182,
                "end_time": 0.8863636,
                "pitch": 72,
                "velocity": 32,
                "duration": 0.8545455,
                "tempo": 120.0
            },
            {
                "start_time": 0.8863636,
                "end_time": 1.7659091,
                "pitch": 84,
                "velocity": 32,
                "duration": 0.8795455,
                "tempo": 120.0
            },
            {
                "start_time": 1.7659091,
                "end_time": 2.6181818,
                "pitch": 81,
                "velocity": 32,
                "duration": 0.8522727,
                "tempo": 120.0
            },
            {
                "start_time": 2.6181818,
                "end_time": 3.4795455,
                "pitch": 81,
                "velocity": 32,
                "duration": 0.8613636,
                "tempo": 120.0
            },
            {
                "start_time": 3.4795455,
                "end_time": 4.3590909,
                "pitch": 79,
                "velocity": 32,
                "duration": 0.8795455,
                "tempo": 120.0
            },
            {
                "start_time": 4.3590909,
                "end_time": 5.2022727,
                "pitch": 82,
                "velocity": 32,
                "duration": 0.8431818,
                "tempo": 120.0
            },
            {
                "start_time": 5.2022727,
                "end_time": 6.0818182,
                "pitch": 82,
                "velocity": 32,
                "duration": 0.8795455,
                "tempo": 120.0
            },
            {
                "start_time": 6.0818182,
                "end_time": 6.9318182,
                "pitch": 77,
                "velocity": 32,
                "duration": 0.85,
                "tempo": 120.0
            },
            {
                "start_time": 6.9318182,
                "end_time": 7.7954545,
                "pitch": 72,
                "velocity": 32,
                "duration": 0.8636364,
                "tempo": 120.0
            },
            {
                "start_time": 7.7954545,
                "end_time": 8.675,
                "pitch": 84,
                "velocity": 32,
                "duration": 0.8795455,
                "tempo": 120.0
            },
            {
                "start_time": 8.675,
                "end_time": 9.5272727,
                "pitch": 81,
                "velocity": 32,
                "duration": 0.8522727,
                "tempo": 120.0
            },
            {
                "start_time": 9.5272727,
                "end_time": 10.3977273,
                "pitch": 81,
                "velocity": 32,
                "duration": 0.8704545,
                "tempo": 120.0
            },
            {
                "start_time": 10.3977273,
                "end_time": 11.2681818,
                "pitch": 79,
                "velocity": 32,
                "duration": 0.8704545,
                "tempo": 120.0
            },
            {
                "start_time": 11.2681818,
                "end_time": 12.1204545,
                "pitch": 88,
                "velocity": 32,
                "duration": 0.8522727,
                "tempo": 120.0
            }
        ],
        "Acoustic Guitar (nylon)": [
            {
                "start_time": 0.0159091,
                "end_time": 0.45,
                "pitch": 77,
                "velocity": 51,
                "duration": 0.4340909,
                "tempo": 120.0
            },
            {
                "start_time": 0.45,
                "end_time": 0.8863636,
                "pitch": 84,
                "velocity": 51,
                "duration": 0.4363636,
                "tempo": 120.0
            },
            {
                "start_time": 0.8863636,
                "end_time": 1.3295455,
                "pitch": 81,
                "velocity": 51,
                "duration": 0.4431818,
                "tempo": 120.0
            },
            {
                "start_time": 1.3295455,
                "end_time": 1.7659091,
                "pitch": 93,
                "velocity": 51,
                "duration": 0.4363636,
                "tempo": 120.0
            },
            {
                "start_time": 1.7659091,
                "end_time": 2.2,
                "pitch": 93,
                "velocity": 51,
                "duration": 0.4340909,
                "tempo": 120.0
            },
            {
                "start_time": 2.2,
                "end_time": 2.6181818,
                "pitch": 89,
                "velocity": 51,
                "duration": 0.4181818,
                "tempo": 120.0
            },
            {
                "start_time": 2.6181818,
                "end_time": 3.0454545,
                "pitch": 89,
                "velocity": 51,
                "duration": 0.4272727,
                "tempo": 120.0
            },
            {
                "start_time": 3.0454545,
                "end_time": 3.4795455,
                "pitch": 91,
                "velocity": 51,
                "duration": 0.4340909,
                "tempo": 120.0
            },
            {
                "start_time": 3.4795455,
                "end_time": 3.925,
                "pitch": 89,
                "velocity": 51,
                "duration": 0.4454545,
                "tempo": 120.0
            },
            {
                "start_time": 3.925,
                "end_time": 4.3590909,
                "pitch": 89,
                "velocity": 51,
                "duration": 0.4340909,
                "tempo": 120.0
            },
            {
                "start_time": 4.3590909,
                "end_time": 4.7772727,
                "pitch": 86,
                "velocity": 51,
                "duration": 0.4181818,
                "tempo": 120.0
            },
            {
                "start_time": 4.7772727,
                "end_time": 5.2022727,
                "pitch": 89,
                "velocity": 51,
                "duration": 0.425,
                "tempo": 120.0
            },
            {
                "start_time": 5.2022727,
                "end_time": 5.6477273,
                "pitch": 89,
                "velocity": 51,
                "duration": 0.4454545,
                "tempo": 120.0
            },
            {
                "start_time": 5.6477273,
                "end_time": 6.0818182,
                "pitch": 86,
                "velocity": 51,
                "duration": 0.4340909,
                "tempo": 120.0
            },
            {
                "start_time": 6.0818182,
                "end_time": 6.9318182,
                "pitch": 86,
                "velocity": 51,
                "duration": 0.85,
                "tempo": 120.0
            },
            {
                "start_time": 6.9318182,
                "end_time": 7.3681818,
                "pitch": 77,
                "velocity": 51,
                "duration": 0.4363636,
                "tempo": 120.0
            },
            {
                "start_time": 7.3681818,
                "end_time": 7.7954545,
                "pitch": 84,
                "velocity": 51,
                "duration": 0.4272727,
                "tempo": 120.0
            },
            {
                "start_time": 7.7954545,
                "end_time": 8.2386364,
                "pitch": 81,
                "velocity": 51,
                "duration": 0.4431818,
                "tempo": 120.0
            },
            {
                "start_time": 8.2386364,
                "end_time": 8.675,
                "pitch": 93,
                "velocity": 51,
                "duration": 0.4363636,
                "tempo": 120.0
            },
            {
                "start_time": 8.675,
                "end_time": 9.1090909,
                "pitch": 93,
                "velocity": 51,
                "duration": 0.4340909,
                "tempo": 120.0
            },
            {
                "start_time": 9.1090909,
                "end_time": 9.5272727,
                "pitch": 89,
                "velocity": 51,
                "duration": 0.4181818,
                "tempo": 120.0
            },
            {
                "start_time": 9.5272727,
                "end_time": 9.9636364,
                "pitch": 89,
                "velocity": 51,
                "duration": 0.4363636,
                "tempo": 120.0
            },
            {
                "start_time": 9.9636364,
                "end_time": 10.3977273,
                "pitch": 91,
                "velocity": 51,
                "duration": 0.4340909,
                "tempo": 120.0
            },
            {
                "start_time": 10.3977273,
                "end_time": 10.8318182,
                "pitch": 94,
                "velocity": 51,
                "duration": 0.4340909,
                "tempo": 120.0
            },
            {
                "start_time": 10.8318182,
                "end_time": 11.2681818,
                "pitch": 94,
                "velocity": 51,
                "duration": 0.4363636,
                "tempo": 120.0
            },
            {
                "start_time": 11.2681818,
                "end_time": 11.7022727,
                "pitch": 93,
                "velocity": 51,
                "duration": 0.4340909,
                "tempo": 120.0
            },
            {
                "start_time": 11.7022727,
                "end_time": 12.1204545,
                "pitch": 96,
                "velocity": 51,
                "duration": 0.4181818,
                "tempo": 120.0
            },
            {
                "start_time": 12.1204545,
                "end_time": 13.8409091,
                "pitch": 93,
                "velocity": 51,
                "duration": 1.7204545,
                "tempo": 120.0
            }
        ]
    }
}