{
    "mood": "relaxed",
    "instruments": {
        "Vibraphone": [
            {
                "start_time": 0.0,
                "end_time": 0.0295455,
                "pitch": 64,
                "velocity": 40,
                "duration": 0.0295455,
                "tempo": 120.0
            },
            {
                "start_time": 0.0454545,
                "end_time": 1.7954545,
                "pitch": 81,
                "velocity": 40,
                "duration": 1.75,
                "tempo": 120.0
            },
            {
                "start_time": 2.2477273,
                "end_time": 2.6909091,
                "pitch": 72,
                "velocity": 40,
                "duration": 0.4431818,
                "tempo": 120.0
            },
            {
                "start_time": 2.7068182,
                "end_time": 3.1409091,
                "pitch": 71,
                "velocity": 40,
                "duration": 0.4340909,
                "tempo": 120.0
            },
            {
                "start_time": 3.1590909,
                "end_time": 3.5931818,
                "pitch": 69,
                "velocity": 40,
                "duration": 0.4340909,
                "tempo": 120.0
            },
            {
                "start_time": 3.6113636,
                "end_time": 4.9386364,
                "pitch": 76,
                "velocity": 40,
                "duration": 1.3272727,
                "tempo": 120.0
            },
            {
                "start_time": 4.9545455,
                "end_time": 5.4,
                "pitch": 76,
                "velocity": 40,
                "duration": 0.4454545,
                "tempo": 120.0
            },
            {
                "start_time": 5.4159091,
                "end_time": 6.0772727,
                "pitch": 76,
                "velocity": 40,
                "duration": 0.6613636,
                "tempo": 120.0
            },
            {
                "start_time": 6.1113636,
                "end_time": 6.7545455,
                "pitch": 76,
                "velocity": 40,
                "duration": 0.6431818,
                "tempo": 120.0
            },
            {
                "start_time": 6.7704545,
                "end_time": 7.2045455,
                "pitch": 76,
                "velocity": 40,
                "duration": 0.4340909,
                "tempo": 120.0
            },
            {
                "start_time": 7.2227273,
                "end_time": 9.0181818,
                "pitch": 81,
                "velocity": 40,
                "duration": 1.7954545,
                "tempo": 120.0
            },
            {
                "start_time": 9.4772727,
                "end_time": 9.9136364,
                "pitch": 72,
                "velocity": 40,
                "duration": 0.4363636,
                "tempo": 120.0
            },
            {
                "start_time": 9.9295455,
                "end_time": 10.3636364,
                "pitch": 71,
                "velocity": 40,
                "duration": 0.4340909,
                "tempo": 120.0
            },
            {
                "start_time": 10.3818182,
                "end_time": 10.825,
                "pitch": 69,
                "velocity": 40,
                "duration": 0.4431818,
                "tempo": 120.0
            },
            {
                "start_time": 10.8431818,
                "end_time": 11.7181818,
                "pitch": 55,
                "velocity": 40,
                "duration": 0.875,
                "tempo": 120.0
            },
            {
                "start_time": 11.7340909,
                "end_time": 12.1704545,
                "pitch": 59,
                "velocity": 40,
                "duration": 0.4363636,
                "tempo": 120.0
            },
            {
                "start_time": 12.1863636,
                "end_time": 12.3931818,
                "pitch": 55,
                "velocity": 40,
                "duration": 0.2068182,
                "tempo": 120.0
            },
            {
                "start_time": 12.4272727,
                "end_time": 13.5227273,
                "pitch": 52,
                "velocity": 40,
                "duration": 1.0954545,
                "tempo": 120.0
            },
            {
                "start_time": 14.4340909,
                "end_time": 15.6363636,
                "pitch": 74,
                "velocity": 40,
                "duration": 1.2022727,
                "tempo": 120.0
            },
            {
                "start_time": 15.6545455,
                "end_time": 16.2318182,
                "pitch": 77,
                "velocity": 40,
                "duration": 0.5772727,
                "tempo": 120.0
            },
            {
                "start_time": 16.2477273,
                "end_time": 17.125,
                "pitch": 74,
                "velocity": 40,
                "duration": 0.8772727,
                "tempo": 120.0
            },
            {
                "start_time": 17.1409091,
                "end_time": 18.0363636,
                "pitch": 74,
                "velocity": 40,
                "duration": 0.8954545,
                "tempo": 120.0
            },
            {
                "start_time": 18.0545455,
                "end_time": 18.9386364,
                "pitch": 74,
                "velocity": 40,
                "duration": 0.8840909,
                "tempo": 120.0
            },
            {
                "start_time": 19.1840909,
                "end_time": 19.3818182,
                "pitch": 76,
                "velocity": 40,
                "duration": 0.1977273,
                "tempo": 120.0
            },
            {
                "start_time": 19.4,
                "end_time": 19.6090909,
                "pitch": 80,
                "velocity": 40,
                "duration": 0.2090909,
                "tempo": 120.0
            },
            {
                "start_time": 19.6431818,
                "end_time": 19.8522727,
                "pitch": 86,
                "velocity": 40,
                "duration": 0.2090909,
                "tempo": 120.0
            },
            {
                "start_time": 20.3204545,
                "end_time": 20.7545455,
                "pitch": 85,
                "velocity": 40,
                "duration": 0.4340909,
                "tempo": 120.0
            },
            {
                "start_time": 20.7727273,
                "end_time": 21.2068182,
                "pitch": 86,
                "velocity": 40,
                "duration": 0.4340909,
                "tempo": 120.0
            },
            {
                "start_time": 21.2227273,
                "end_time": 21.6568182,
                "pitch": 88,
                "velocity": 40,
                "duration": 0.4340909,
                "tempo": 120.0
            },
            {
                "start_time": 21.675,
                "end_time": 23.0113636,
                "pitch": 81,
                "velocity": 40,
                "duration": 1.3363636,
                "tempo": 120.0
            },
            {
                "start_time": 23.0272727,
                "end_time": 24.3659091,
                "pitch": 84,
                "velocity": 40,
                "duration": 1.3386364,
                "tempo": 120.0
            },
            {
                "start_time": 24.3818182,
                "end_time": 24.8159091,
                "pitch": 83,
                "velocity": 40,
                "duration": 0.4340909,
                "tempo": 120.0
            },
            {
                "start_time": 24.8318182,
                "end_time": 25.2590909,
                "pitch": 86,
                "velocity": 40,
                "duration": 0.4272727,
                "tempo": 120.0
            },
            {
                "start_time": 25.275,
                "end_time": 26.1704545,
                "pitch": 83,
                "velocity": 40,
                "duration": 0.8954545,
                "tempo": 120.0
            },
            {
                "start_time": 26.1886364,
                "end_time": 27.0636364,
                "pitch": 83,
                "velocity": 40,
                "duration": 0.875,
                "tempo": 120.0
            },
            {
                "start_time": 27.0818182,
                "end_time": 27.525,
                "pitch": 76,
                "velocity": 40,
                "duration": 0.4431818,
                "tempo": 120.0
            },
            {
                "start_time": 27.5409091,
                "end_time": 27.9772727,
                "pitch": 77,
                "velocity": 40,
                "duration": 0.4363636,
                "tempo": 120.0
            },
            {
                "start_time": 27.9931818,
                "end_time": 28.1931818,
                "pitch": 79,
                "velocity": 40,
                "duration": 0.2,
                "tempo": 120.0
            },
            {
                "start_time": 28.2272727,
                "end_time": 28.425,
                "pitch": 79,
                "velocity": 40,
                "duration": 0.1977273,
                "tempo": 120.0
            },
            {
                "start_time": 28.8772727,
                "end_time": 29.0818182,
                "pitch": 84,
                "velocity": 51,
                "duration": 0.2045455,
                "tempo": 120.0
            },
            {
                "start_time": 29.1159091,
                "end_time": 29.3204545,
                "pitch": 84,
                "velocity": 51,
                "duration": 0.2045455,
                "tempo": 120.0
            },
            {
                "start_time": 30.2386364,
                "end_time": 32.4704545,
                "pitch": 84,
                "velocity": 51,
                "duration": 2.2318182,
                "tempo": 120.0
            },
            {
                "start_time": 32.4863636,
                "end_time": 32.6931818,
                "pitch": 83,
                "velocity": 51,
                "duration": 0.2068182,
                "tempo": 120.0
            },
            {
                "start_time": 32.7272727,
                "end_time": 32.9295455,
                "pitch": 83,
                "velocity": 51,
                "duration": 0.2022727,
                "tempo": 120.0
            },
            {
                "start_time": 33.8409091,
                "end_time": 36.0795455,
                "pitch": 83,
                "velocity": 51,
                "duration": 2.2386364,
                "tempo": 120.0
            },
            {
                "start_time": 36.0977273,
                "end_time": 36.3022727,
                "pitch": 84,
                "velocity": 51,
                "duration": 0.2045455,
                "tempo": 120.0
            },
            {
                "start_time": 36.3363636,
                "end_time": 36.5409091,
                "pitch": 84,
                "velocity": 51,
                "duration": 0.2045455,
                "tempo": 120.0
            },
            {
                "start_time": 37.4613636,
                "end_time": 39.7,
                "pitch": 84,
                "velocity": 51,
                "duration": 2.2386364,
                "tempo": 120.0
            },
            {
                "start_time": 39.7181818,
                "end_time": 40.1522727,
                "pitch": 83,
                "velocity": 51,
                "duration": 0.4340909,
                "tempo": 120.0
            },
            {
                "start_time": 40.1681818,
                "end_time": 40.6136364,
                "pitch": 83,
                "velocity": 51,
                "duration": 0.4454545,
                "tempo": 120.0
            },
            {
                "start_time": 41.0795455,
                "end_time": 42.4090909,
                "pitch": 83,
                "velocity": 51,
                "duration": 1.3295455,
                "tempo": 120.0
            },
            {
                "start_time": 42.4272727,
                "end_time": 42.6318182,
                "pitch": 76,
                "velocity": 51,
                "duration": 0.2045455,
                "tempo": 120.0
            },
            {
                "start_time": 42.6659091,
                "end_time": 42.8704545,
                "pitch": 79,
                "velocity": 51,
                "duration": 0.2045455,
                "tempo": 120.0
            },
            {
                "start_time": 42.8863636,
                "end_time": 43.0818182,
                "pitch": 83,
                "velocity": 51,
                "duration": 0.1954545,
                "tempo": 120.0
            },
            {
                "start_time": 43.1159091,
                "end_time": 43.3113636,
                "pitch": 86,
                "velocity": 51,
                "duration": 0.1954545,
                "tempo": 120.0
            },
            {
                "start_time": 43.3295455,
                "end_time": 44.4363636,
                "pitch": 84,
                "velocity": 51,
                "duration": 1.1068182,
                "tempo": 120.0
            },
            {
                "start_time": 44.4681818,
                "end_time": 45.1181818,
                "pitch": 84,
                "velocity": 51,
                "duration": 0.65,
                "tempo": 120.0
            },
            {
                "start_time": 45.1340909,
                "end_time": 46.9227273,
                "pitch": 86,
                "velocity": 51,
                "duration": 1.7886364,
                "tempo": 120.0
            },
            {
                "start_time": 46.9386364,
                "end_time": 48.2772727,
                "pitch": 86,
                "velocity": 51,
                "duration": 1.3386364,
                "tempo": 120.0
            },
            {
                "start_time": 48.2931818,
                "end_time": 48.7272727,
                "pitch": 86,
                "velocity": 51,
                "duration": 0.4340909,
                "tempo": 120.0
            },
            {
                "start_time": 48.7454545,
                "end_time": 49.6295455,
                "pitch": 88,
                "velocity": 51,
                "duration": 0.8840909,
                "tempo": 120.0
            },
            {
                "start_time": 49.6477273,
                "end_time": 49.8477273,
                "pitch": 79,
                "velocity": 51,
                "duration": 0.2,
                "tempo": 120.0
            },
            {
                "start_time": 49.8818182,
                "end_time": 50.0818182,
                "pitch": 85,
                "velocity": 51,
                "duration": 0.2,
                "tempo": 120.0
            },
            {
                "start_time": 50.1,
                "end_time": 50.5431818,
                "pitch": 88,
                "velocity": 51,
                "duration": 0.4431818,
                "tempo": 120.0
            },
            {
                "start_time": 50.5590909,
                "end_time": 52.3477273,
                "pitch": 81,
                "velocity": 51,
                "duration": 1.7886364,
                "tempo": 120.0
            },
            {
                "start_time": 52.3636364,
                "end_time": 54.1431818,
                "pitch": 77,
                "velocity": 51,
                "duration": 1.7795455,
                "tempo": 120.0
            },
            {
                "start_time": 54.1613636,
                "end_time": 54.5954545,
                "pitch": 72,
                "velocity": 51,
                "duration": 0.4340909,
                "tempo": 120.0
            },
            {
                "start_time": 54.6136364,
                "end_time": 55.0568182,
                "pitch": 72,
                "velocity": 51,
                "duration": 0.4431818,
                "tempo": 120.0
            },
            {
                "start_time": 55.5227273,
                "end_time": 57.7136364,
                "pitch": 67,
                "velocity": 51,
                "duration": 2.1909091,
                "tempo": 120.0
            },
            {
                "start_time": 57.7318182,
                "end_time": 58.1568182,
                "pitch": 60,
                "velocity": 51,
                "duration": 0.425,
                "tempo": 120.0
            },
            {
                "start_time": 58.1727273,
                "end_time": 58.6159091,
                "pitch": 60,
                "velocity": 51,
                "duration": 0.4431818,
                "tempo": 120.0
            },
            {
                "start_time": 59.0636364,
                "end_time": 61.3045455,
                "pitch": 62,
                "velocity": 51,
                "duration": 2.2409091,
                "tempo": 120.0
            },
            {
                "start_time": 61.3204545,
                "end_time": 61.7659091,
                "pitch": 60,
                "velocity": 51,
                "duration": 0.4454545,
                "tempo": 120.0
            },
            {
                "start_time": 61.7840909,
                "end_time": 62.2272727,
                "pitch": 60,
                "velocity": 51,
                "duration": 0.4431818,
                "tempo": 120.0
            },
            {
                "start_time": 62.675,
                "end_time": 64.9181818,
                "pitch": 62,
                "velocity": 51,
                "duration": 2.2431818,
                "tempo": 120.0
            },
            {
                "start_time": 64.9340909,
                "end_time": 65.3772727,
                "pitch": 60,
                "velocity": 51,
                "duration": 0.4431818,
                "tempo": 120.0
            },
            {
                "start_time": 65.3954545,
                "end_time": 65.8295455,
                "pitch": 60,
                "velocity": 51,
                "duration": 0.4340909,
                "tempo": 120.0
            },
            {
                "start_time": 66.2863636,
                "end_time": 67.6454545,
                "pitch": 67,
                "velocity": 51,
                "duration": 1.3590909,
                "tempo": 120.0
            },
            {
                "start_time": 67.6613636,
                "end_time": 67.8909091,
                "pitch": 62,
                "velocity": 51,
                "duration": 0.2295455,
                "tempo": 120.0
            },
            {
                "start_time": 67.9068182,
                "end_time": 68.1022727,
                "pitch": 64,
                "velocity": 51,
                "duration": 0.1954545,
                "tempo": 120.0
            },
            {
                "start_time": 68.1363636,
                "end_time": 68.3363636,
                "pitch": 67,
                "velocity": 51,
                "duration": 0.2,
                "tempo": 120.0
            },
            {
                "start_time": 68.3545455,
                "end_time": 68.5545455,
                "pitch": 72,
                "velocity": 51,
                "duration": 0.2,
                "tempo": 120.0
            },
            {
                "start_time": 68.5886364,
                "end_time": 68.8545455,
                "pitch": 76,
                "velocity": 51,
                "duration": 0.2659091,
                "tempo": 120.0
            },
            {
                "start_time": 68.8886364,
                "end_time": 69.2340909,
                "pitch": 79,
                "velocity": 51,
                "duration": 0.3454545,
                "tempo": 120.0
            },
            {
                "start_time": 69.25,
                "end_time": 69.6863636,
                "pitch": 81,
                "velocity": 51,
                "duration": 0.4363636,
                "tempo": 120.0
            },
            {
                "start_time": 69.7022727,
                "end_time": 73.075,
                "pitch": 84,
                "velocity": 51,
                "duration": 3.3727273,
                "tempo": 120.0
            },
            {
                "start_time": 73.1295455,
                "end_time": 76.875,
                "pitch": 52,
                "velocity": 51,
                "duration": 3.7454545,
                "tempo": 120.0
            }
        ],
        "Acoustic Grand Piano": [
            {
                "start_time": 0.0,
                "end_time": 2.6409091,
                "pitch": 41,
                "velocity": 64,
                "duration": 2.6409091,
                "tempo": 120.0
            },
            {
                "start_time": 2.6568182,
                "end_time": 3.0909091,
                "pitch": 41,
                "velocity": 64,
                "duration": 0.4340909,
                "tempo": 120.0
            },
            {
                "start_time": 3.1090909,
                "end_time": 3.5431818,
                "pitch": 45,
                "velocity": 64,
                "duration": 0.4340909,
                "tempo": 120.0
            },
            {
                "start_time": 3.5590909,
                "end_time": 6.2613636,
                "pitch": 40,
                "velocity": 64,
                "duration": 2.7022727,
                "tempo": 120.0
            },
            {
                "start_time": 6.2795455,
                "end_time": 7.1545455,
                "pitch": 40,
                "velocity": 64,
                "duration": 0.875,
                "tempo": 120.0
            },
            {
                "start_time": 7.1704545,
                "end_time": 9.8613636,
                "pitch": 41,
                "velocity": 64,
                "duration": 2.6909091,
                "tempo": 120.0
            },
            {
                "start_time": 9.8795455,
                "end_time": 10.3136364,
                "pitch": 41,
                "velocity": 64,
                "duration": 0.4340909,
                "tempo": 120.0
            },
            {
                "start_time": 10.3295455,
                "end_time": 10.775,
                "pitch": 36,
                "velocity": 64,
                "duration": 0.4454545,
                "tempo": 120.0
            },
            {
                "start_time": 10.7909091,
                "end_time": 12.1181818,
                "pitch": 40,
                "velocity": 64,
                "duration": 1.3272727,
                "tempo": 120.0
            },
            {
                "start_time": 12.1363636,
                "end_time": 13.4727273,
                "pitch": 40,
                "velocity": 64,
                "duration": 1.3363636,
                "tempo": 120.0
            },
            {
                "start_time": 13.4909091,
                "end_time": 13.6909091,
                "pitch": 40,
                "velocity": 64,
                "duration": 0.2,
                "tempo": 120.0
            },
            {
                "start_time": 13.725,
                "end_time": 13.925,
                "pitch": 35,
                "velocity": 64,
                "duration": 0.2,
                "tempo": 120.0
            },
            {
                "start_time": 13.9409091,
                "end_time": 14.3659091,
                "pitch": 40,
                "velocity": 64,
                "duration": 0.425,
                "tempo": 120.0
            },
            {
                "start_time": 14.3818182,
                "end_time": 15.2795455,
                "pitch": 38,
                "velocity": 64,
                "duration": 0.8977273,
                "tempo": 120.0
            },
            {
                "start_time": 15.2954545,
                "end_time": 16.1818182,
                "pitch": 38,
                "velocity": 64,
                "duration": 0.8863636,
                "tempo": 120.0
            },
            {
                "start_time": 16.1977273,
                "end_time": 17.075,
                "pitch": 31,
                "velocity": 64,
                "duration": 0.8772727,
                "tempo": 120.0
            },
            {
                "start_time": 17.0909091,
                "end_time": 17.5454545,
                "pitch": 38,
                "velocity": 64,
                "duration": 0.4545455,
                "tempo": 120.0
            },
            {
                "start_time": 17.5613636,
                "end_time": 17.9863636,
                "pitch": 35,
                "velocity": 64,
                "duration": 0.425,
                "tempo": 120.0
            },
            {
                "start_time": 18.0022727,
                "end_time": 19.8022727,
                "pitch": 31,
                "velocity": 64,
                "duration": 1.8,
                "tempo": 120.0
            },
            {
                "start_time": 19.8181818,
                "end_time": 20.7045455,
                "pitch": 37,
                "velocity": 64,
                "duration": 0.8863636,
                "tempo": 120.0
            },
            {
                "start_time": 20.7227273,
                "end_time": 21.1568182,
                "pitch": 43,
                "velocity": 64,
                "duration": 0.4340909,
                "tempo": 120.0
            },
            {
                "start_time": 21.1727273,
                "end_time": 21.6068182,
                "pitch": 40,
                "velocity": 64,
                "duration": 0.4340909,
                "tempo": 120.0
            },
            {
                "start_time": 21.625,
                "end_time": 23.4022727,
                "pitch": 38,
                "velocity": 64,
                "duration": 1.7772727,
                "tempo": 120.0
            },
            {
                "start_time": 23.4204545,
                "end_time": 24.3159091,
                "pitch": 43,
                "velocity": 64,
                "duration": 0.8954545,
                "tempo": 120.0
            },
            {
                "start_time": 24.3318182,
                "end_time": 24.7659091,
                "pitch": 47,
                "velocity": 64,
                "duration": 0.4340909,
                "tempo": 120.0
            },
            {
                "start_time": 24.7840909,
                "end_time": 25.2090909,
                "pitch": 43,
                "velocity": 64,
                "duration": 0.425,
                "tempo": 120.0
            },
            {
                "start_time": 25.225,
                "end_time": 26.1204545,
                "pitch": 36,
                "velocity": 64,
                "duration": 0.8954545,
                "tempo": 120.0
            },
            {
                "start_time": 26.1386364,
                "end_time": 26.5727273,
                "pitch": 36,
                "velocity": 64,
                "duration": 0.4340909,
                "tempo": 120.0
            },
            {
                "start_time": 26.5886364,
                "end_time": 27.0136364,
                "pitch": 36,
                "velocity": 64,
                "duration": 0.425,
                "tempo": 120.0
            },
            {
                "start_time": 27.0295455,
                "end_time": 27.925,
                "pitch": 36,
                "velocity": 64,
                "duration": 0.8954545,
                "tempo": 120.0
            },
            {
                "start_time": 27.9431818,
                "end_time": 28.1431818,
                "pitch": 36,
                "velocity": 64,
                "duration": 0.2,
                "tempo": 120.0
            },
            {
                "start_time": 28.1772727,
                "end_time": 28.3772727,
                "pitch": 36,
                "velocity": 64,
                "duration": 0.2,
                "tempo": 120.0
            },
            {
                "start_time": 28.825,
                "end_time": 29.0295455,
                "pitch": 41,
                "velocity": 51,
                "duration": 0.2045455,
                "tempo": 120.0
            },
            {
                "start_time": 29.0636364,
                "end_time": 29.2704545,
                "pitch": 41,
                "velocity": 51,
                "duration": 0.2068182,
                "tempo": 120.0
            },
            {
                "start_time": 30.1886364,
                "end_time": 32.4204545,
                "pitch": 41,
                "velocity": 51,
                "duration": 2.2318182,
                "tempo": 120.0
            },
            {
                "start_time": 32.4363636,
                "end_time": 32.6409091,
                "pitch": 40,
                "velocity": 51,
                "duration": 0.2045455,
                "tempo": 120.0
            },
            {
                "start_time": 32.675,
                "end_time": 32.8795455,
                "pitch": 40,
                "velocity": 51,
                "duration": 0.2045455,
                "tempo": 120.0
            },
            {
                "start_time": 33.7886364,
                "end_time": 36.0295455,
                "pitch": 40,
                "velocity": 51,
                "duration": 2.2409091,
                "tempo": 120.0
            },
            {
                "start_time": 36.0454545,
                "end_time": 36.2522727,
                "pitch": 41,
                "velocity": 51,
                "duration": 0.2068182,
                "tempo": 120.0
            },
            {
                "start_time": 36.2863636,
                "end_time": 36.4909091,
                "pitch": 41,
                "velocity": 51,
                "duration": 0.2045455,
                "tempo": 120.0
            },
            {
                "start_time": 37.4113636,
                "end_time": 39.65,
                "pitch": 41,
                "velocity": 51,
                "duration": 2.2386364,
                "tempo": 120.0
            },
            {
                "start_time": 39.6659091,
                "end_time": 40.1022727,
                "pitch": 40,
                "velocity": 51,
                "duration": 0.4363636,
                "tempo": 120.0
            },
            {
                "start_time": 40.1181818,
                "end_time": 40.5636364,
                "pitch": 40,
                "velocity": 51,
                "duration": 0.4454545,
                "tempo": 120.0
            },
            {
                "start_time": 41.0318182,
                "end_time": 43.2613636,
                "pitch": 40,
                "velocity": 51,
                "duration": 2.2295455,
                "tempo": 120.0
            },
            {
                "start_time": 43.2772727,
                "end_time": 44.1727273,
                "pitch": 38,
                "velocity": 51,
                "duration": 0.8954545,
                "tempo": 120.0
            },
            {
                "start_time": 44.1909091,
                "end_time": 45.0659091,
                "pitch": 38,
                "velocity": 51,
                "duration": 0.875,
                "tempo": 120.0
            },
            {
                "start_time": 45.0840909,
                "end_time": 45.9704545,
                "pitch": 43,
                "velocity": 51,
                "duration": 0.8863636,
                "tempo": 120.0
            },
            {
                "start_time": 45.9863636,
                "end_time": 46.4113636,
                "pitch": 47,
                "velocity": 51,
                "duration": 0.425,
                "tempo": 120.0
            },
            {
                "start_time": 46.4272727,
                "end_time": 46.8727273,
                "pitch": 43,
                "velocity": 51,
                "duration": 0.4454545,
                "tempo": 120.0
            },
            {
                "start_time": 46.8886364,
                "end_time": 48.6772727,
                "pitch": 36,
                "velocity": 51,
                "duration": 1.7886364,
                "tempo": 120.0
            },
            {
                "start_time": 48.6954545,
                "end_time": 50.0318182,
                "pitch": 37,
                "velocity": 51,
                "duration": 1.3363636,
                "tempo": 120.0
            },
            {
                "start_time": 50.0477273,
                "end_time": 50.4931818,
                "pitch": 40,
                "velocity": 51,
                "duration": 0.4454545,
                "tempo": 120.0
            },
            {
                "start_time": 50.5090909,
                "end_time": 52.2977273,
                "pitch": 38,
                "velocity": 51,
                "duration": 1.7886364,
                "tempo": 120.0
            },
            {
                "start_time": 52.3159091,
                "end_time": 53.2,
                "pitch": 43,
                "velocity": 51,
                "duration": 0.8840909,
                "tempo": 120.0
            },
            {
                "start_time": 53.2181818,
                "end_time": 54.0931818,
                "pitch": 47,
                "velocity": 51,
                "duration": 0.875,
                "tempo": 120.0
            },
            {
                "start_time": 54.1113636,
                "end_time": 54.5454545,
                "pitch": 36,
                "velocity": 51,
                "duration": 0.4340909,
                "tempo": 120.0
            },
            {
                "start_time": 54.5613636,
                "end_time": 55.0068182,
                "pitch": 36,
                "velocity": 51,
                "duration": 0.4454545,
                "tempo": 120.0
            },
            {
                "start_time": 55.475,
                "end_time": 57.2545455,
                "pitch": 38,
                "velocity": 51,
                "duration": 1.7795455,
                "tempo": 120.0
            },
            {
                "start_time": 57.2704545,
                "end_time": 57.7136364,
                "pitch": 31,
                "velocity": 51,
                "duration": 0.4431818,
                "tempo": 120.0
            },
            {
                "start_time": 57.7318182,
                "end_time": 58.1568182,
                "pitch": 40,
                "velocity": 51,
                "duration": 0.425,
                "tempo": 120.0
            },
            {
                "start_time": 58.1727273,
                "end_time": 58.6159091,
                "pitch": 40,
                "velocity": 51,
                "duration": 0.4431818,
                "tempo": 120.0
            },
            {
                "start_time": 59.0636364,
                "end_time": 61.3045455,
                "pitch": 41,
                "velocity": 51,
                "duration": 2.2409091,
                "tempo": 120.0
            },
            {
                "start_time": 61.3204545,
                "end_time": 61.7659091,
                "pitch": 40,
                "velocity": 51,
                "duration": 0.4454545,
                "tempo": 120.0
            },
            {
                "start_time": 61.7840909,
                "end_time": 62.2272727,
                "pitch": 40,
                "velocity": 51,
                "duration": 0.4431818,
                "tempo": 120.0
            },
            {
                "start_time": 62.675,
                "end_time": 64.9181818,
                "pitch": 41,
                "velocity": 51,
                "duration": 2.2431818,
                "tempo": 120.0
            },
            {
                "start_time": 64.9340909,
                "end_time": 65.3772727,
                "pitch": 40,
                "velocity": 51,
                "duration": 0.4431818,
                "tempo": 120.0
            },
            {
                "start_time": 65.3954545,
                "end_time": 65.8295455,
                "pitch": 40,
                "velocity": 51,
                "duration": 0.4340909,
                "tempo": 120.0
            },
            {
                "start_time": 66.2863636,
                "end_time": 68.5386364,
                "pitch": 38,
                "velocity": 51,
                "duration": 2.2522727,
                "tempo": 120.0
            },
            {
                "start_time": 73.075,
                "end_time": 76.8227273,
                "pitch": 36,
                "velocity": 51,
                "duration": 3.7477273,
                "tempo": 120.0
            }
        ]
    }
}