{
    "mood": "relaxed",
    "instruments": {
        "Acoustic Grand Piano": [
            {
                "start_time": 0.0,
                "end_time": 0.3659091,
                "pitch": 67,
                "velocity": 80,
                "duration": 0.3659091,
                "tempo": 120.0
            },
            {
                "start_time": 0.4,
                "end_time": 0.5659091,
                "pitch": 65,
                "velocity": 80,
                "duration": 0.1659091,
                "tempo": 120.0
            },
            {
                "start_time": 0.6,
                "end_time": 2.3545455,
                "pitch": 67,
                "velocity": 80,
                "duration": 1.7545455,
                "tempo": 120.0
            },
            {
                "start_time": 2.4227273,
                "end_time": 3.1568182,
                "pitch": 0,
                "velocity": 80,
                "duration": 0.7340909,
                "tempo": 120.0
            },
            {
                "start_time": 3.2227273,
                "end_time": 3.9568182,
                "pitch": 67,
                "velocity": 80,
                "duration": 0.7340909,
                "tempo": 120.0
            },
            {
                "start_time": 4.0227273,
                "end_time": 4.7568182,
                "pitch": 65,
                "velocity": 80,
                "duration": 0.7340909,
                "tempo": 120.0
            },
            {
                "start_time": 4.8227273,
                "end_time": 5.5568182,
                "pitch": 67,
                "velocity": 80,
                "duration": 0.7340909,
                "tempo": 120.0
            },
            {
                "start_time": 5.6227273,
                "end_time": 7.975,
                "pitch": 70,
                "velocity": 80,
                "duration": 2.3522727,
                "tempo": 120.0
            },
            {
                "start_time": 8.0431818,
                "end_time": 8.3863636,
                "pitch": 65,
                "velocity": 80,
                "duration": 0.3431818,
                "tempo": 120.0
            },
            {
                "start_time": 8.4545455,
                "end_time": 10.4204545,
                "pitch": 67,
                "velocity": 80,
                "duration": 1.9659091,
                "tempo": 120.0
            },
            {
                "start_time": 10.4886364,
                "end_time": 10.8181818,
                "pitch": 58,
                "velocity": 80,
                "duration": 0.3295455,
                "tempo": 120.0
            },
            {
                "start_time": 10.8818182,
                "end_time": 11.2113636,
                "pitch": 60,
                "velocity": 80,
                "duration": 0.3295455,
                "tempo": 120.0
            },
            {
                "start_time": 11.2772727,
                "end_time": 11.6068182,
                "pitch": 63,
                "velocity": 80,
                "duration": 0.3295455,
                "tempo": 120.0
            },
            {
                "start_time": 11.6727273,
                "end_time": 12.0022727,
                "pitch": 65,
                "velocity": 80,
                "duration": 0.3295455,
                "tempo": 120.0
            },
            {
                "start_time": 12.0681818,
                "end_time": 12.8113636,
                "pitch": 67,
                "velocity": 80,
                "duration": 0.7431818,
                "tempo": 120.0
            },
            {
                "start_time": 12.8772727,
                "end_time": 13.2159091,
                "pitch": 65,
                "velocity": 80,
                "duration": 0.3386364,
                "tempo": 120.0
            },
            {
                "start_time": 13.2840909,
                "end_time": 15.2431818,
                "pitch": 67,
                "velocity": 80,
                "duration": 1.9590909,
                "tempo": 120.0
            },
            {
                "start_time": 15.3113636,
                "end_time": 16.0431818,
                "pitch": 0,
                "velocity": 80,
                "duration": 0.7318182,
                "tempo": 120.0
            },
            {
                "start_time": 16.1113636,
                "end_time": 16.8431818,
                "pitch": 67,
                "velocity": 80,
                "duration": 0.7318182,
                "tempo": 120.0
            },
            {
                "start_time": 16.9113636,
                "end_time": 17.6545455,
                "pitch": 65,
                "velocity": 80,
                "duration": 0.7431818,
                "tempo": 120.0
            },
            {
                "start_time": 17.7204545,
                "end_time": 18.4636364,
                "pitch": 63,
                "velocity": 80,
                "duration": 0.7431818,
                "tempo": 120.0
            },
            {
                "start_time": 18.5318182,
                "end_time": 20.0659091,
                "pitch": 62,
                "velocity": 80,
                "duration": 1.5340909,
                "tempo": 120.0
            },
            {
                "start_time": 20.1318182,
                "end_time": 20.8545455,
                "pitch": 0,
                "velocity": 80,
                "duration": 0.7227273,
                "tempo": 120.0
            },
            {
                "start_time": 20.9204545,
                "end_time": 21.25,
                "pitch": 58,
                "velocity": 80,
                "duration": 0.3295455,
                "tempo": 120.0
            },
            {
                "start_time": 21.3159091,
                "end_time": 23.3068182,
                "pitch": 55,
                "velocity": 80,
                "duration": 1.9909091,
                "tempo": 120.0
            },
            {
                "start_time": 23.375,
                "end_time": 24.9090909,
                "pitch": 0,
                "velocity": 80,
                "duration": 1.5340909,
                "tempo": 120.0
            },
            {
                "start_time": 24.9772727,
                "end_time": 26.1090909,
                "pitch": 62,
                "velocity": 80,
                "duration": 1.1318182,
                "tempo": 120.0
            },
            {
                "start_time": 26.1772727,
                "end_time": 28.1295455,
                "pitch": 65,
                "velocity": 80,
                "duration": 1.9522727,
                "tempo": 120.0
            },
            {
                "start_time": 28.1977273,
                "end_time": 28.9409091,
                "pitch": 0,
                "velocity": 80,
                "duration": 0.7431818,
                "tempo": 120.0
            },
            {
                "start_time": 29.0090909,
                "end_time": 29.7522727,
                "pitch": 58,
                "velocity": 80,
                "duration": 0.7431818,
                "tempo": 120.0
            },
            {
                "start_time": 29.8204545,
                "end_time": 30.2863636,
                "pitch": 60,
                "velocity": 80,
                "duration": 0.4659091,
                "tempo": 120.0
            },
            {
                "start_time": 30.3522727,
                "end_time": 30.8204545,
                "pitch": 63,
                "velocity": 80,
                "duration": 0.4681818,
                "tempo": 120.0
            },
            {
                "start_time": 30.8863636,
                "end_time": 31.3522727,
                "pitch": 65,
                "velocity": 80,
                "duration": 0.4659091,
                "tempo": 120.0
            },
            {
                "start_time": 31.4204545,
                "end_time": 32.5681818,
                "pitch": 65,
                "velocity": 80,
                "duration": 1.1477273,
                "tempo": 120.0
            },
            {
                "start_time": 32.6363636,
                "end_time": 34.5954545,
                "pitch": 67,
                "velocity": 80,
                "duration": 1.9590909,
                "tempo": 120.0
            },
            {
                "start_time": 34.6636364,
                "end_time": 35.3863636,
                "pitch": 0,
                "velocity": 80,
                "duration": 0.7227273,
                "tempo": 120.0
            },
            {
                "start_time": 35.4522727,
                "end_time": 35.7818182,
                "pitch": 61,
                "velocity": 80,
                "duration": 0.3295455,
                "tempo": 120.0
            },
            {
                "start_time": 35.8477273,
                "end_time": 36.175,
                "pitch": 64,
                "velocity": 80,
                "duration": 0.3272727,
                "tempo": 120.0
            },
            {
                "start_time": 36.2409091,
                "end_time": 36.575,
                "pitch": 67,
                "velocity": 80,
                "duration": 0.3340909,
                "tempo": 120.0
            },
            {
                "start_time": 36.6409091,
                "end_time": 36.975,
                "pitch": 73,
                "velocity": 80,
                "duration": 0.3340909,
                "tempo": 120.0
            },
            {
                "start_time": 37.0409091,
                "end_time": 37.375,
                "pitch": 72,
                "velocity": 80,
                "duration": 0.3340909,
                "tempo": 120.0
            },
            {
                "start_time": 37.4409091,
                "end_time": 37.775,
                "pitch": 70,
                "velocity": 80,
                "duration": 0.3340909,
                "tempo": 120.0
            },
            {
                "start_time": 37.8409091,
                "end_time": 40.2068182,
                "pitch": 68,
                "velocity": 80,
                "duration": 2.3659091,
                "tempo": 120.0
            },
            {
                "start_time": 40.275,
                "end_time": 40.6113636,
                "pitch": 67,
                "velocity": 80,
                "duration": 0.3363636,
                "tempo": 120.0
            },
            {
                "start_time": 40.6795455,
                "end_time": 42.6386364,
                "pitch": 68,
                "velocity": 80,
                "duration": 1.9590909,
                "tempo": 120.0
            },
            {
                "start_time": 42.7045455,
                "end_time": 43.0340909,
                "pitch": 0,
                "velocity": 80,
                "duration": 0.3295455,
                "tempo": 120.0
            },
            {
                "start_time": 43.1,
                "end_time": 43.825,
                "pitch": 70,
                "velocity": 80,
                "duration": 0.725,
                "tempo": 120.0
            },
            {
                "start_time": 43.8886364,
                "end_time": 44.2181818,
                "pitch": 69,
                "velocity": 80,
                "duration": 0.3295455,
                "tempo": 120.0
            },
            {
                "start_time": 44.2840909,
                "end_time": 46.2545455,
                "pitch": 70,
                "velocity": 80,
                "duration": 1.9704545,
                "tempo": 120.0
            },
            {
                "start_time": 46.3204545,
                "end_time": 47.0454545,
                "pitch": 72,
                "velocity": 80,
                "duration": 0.725,
                "tempo": 120.0
            },
            {
                "start_time": 47.1113636,
                "end_time": 47.4409091,
                "pitch": 70,
                "velocity": 80,
                "duration": 0.3295455,
                "tempo": 120.0
            },
            {
                "start_time": 47.5045455,
                "end_time": 47.8477273,
                "pitch": 72,
                "velocity": 80,
                "duration": 0.3431818,
                "tempo": 120.0
            },
            {
                "start_time": 47.9159091,
                "end_time": 48.6704545,
                "pitch": 73,
                "velocity": 80,
                "duration": 0.7545455,
                "tempo": 120.0
            },
            {
                "start_time": 48.7386364,
                "end_time": 49.4772727,
                "pitch": 75,
                "velocity": 80,
                "duration": 0.7386364,
                "tempo": 120.0
            },
            {
                "start_time": 49.5431818,
                "end_time": 50.2659091,
                "pitch": 77,
                "velocity": 80,
                "duration": 0.7227273,
                "tempo": 120.0
            },
            {
                "start_time": 50.3318182,
                "end_time": 50.6613636,
                "pitch": 79,
                "velocity": 80,
                "duration": 0.3295455,
                "tempo": 120.0
            },
            {
                "start_time": 50.7272727,
                "end_time": 51.0681818,
                "pitch": 79,
                "velocity": 80,
                "duration": 0.3409091,
                "tempo": 120.0
            },
            {
                "start_time": 51.1386364,
                "end_time": 51.4795455,
                "pitch": 79,
                "velocity": 80,
                "duration": 0.3409091,
                "tempo": 120.0
            },
            {
                "start_time": 51.5477273,
                "end_time": 51.8909091,
                "pitch": 77,
                "velocity": 80,
                "duration": 0.3431818,
                "tempo": 120.0
            },
            {
                "start_time": 51.9590909,
                "end_time": 53.9045455,
                "pitch": 79,
                "velocity": 80,
                "duration": 1.9454545,
                "tempo": 120.0
            },
            {
                "start_time": 53.9704545,
                "end_time": 54.7045455,
                "pitch": 0,
                "velocity": 80,
                "duration": 0.7340909,
                "tempo": 120.0
            },
            {
                "start_time": 54.7704545,
                "end_time": 55.5045455,
                "pitch": 67,
                "velocity": 80,
                "duration": 0.7340909,
                "tempo": 120.0
            },
            {
                "start_time": 55.5704545,
                "end_time": 56.3227273,
                "pitch": 65,
                "velocity": 80,
                "duration": 0.7522727,
                "tempo": 120.0
            },
            {
                "start_time": 56.3909091,
                "end_time": 57.1454545,
                "pitch": 63,
                "velocity": 80,
                "duration": 0.7545455,
                "tempo": 120.0
            },
            {
                "start_time": 57.2136364,
                "end_time": 58.7681818,
                "pitch": 70,
                "velocity": 80,
                "duration": 1.5545455,
                "tempo": 120.0
            },
            {
                "start_time": 58.8363636,
                "end_time": 59.5795455,
                "pitch": 0,
                "velocity": 80,
                "duration": 0.7431818,
                "tempo": 120.0
            },
            {
                "start_time": 59.6454545,
                "end_time": 59.9840909,
                "pitch": 65,
                "velocity": 80,
                "duration": 0.3386364,
                "tempo": 120.0
            },
            {
                "start_time": 60.0522727,
                "end_time": 62.0113636,
                "pitch": 67,
                "velocity": 80,
                "duration": 1.9590909,
                "tempo": 120.0
            },
            {
                "start_time": 62.0772727,
                "end_time": 62.4022727,
                "pitch": 0,
                "velocity": 80,
                "duration": 0.325,
                "tempo": 120.0
            },
            {
                "start_time": 62.4659091,
                "end_time": 62.7909091,
                "pitch": 72,
                "velocity": 80,
                "duration": 0.325,
                "tempo": 120.0
            },
            {
                "start_time": 62.8568182,
                "end_time": 63.1818182,
                "pitch": 75,
                "velocity": 80,
                "duration": 0.325,
                "tempo": 120.0
            },
            {
                "start_time": 63.2454545,
                "end_time": 63.5704545,
                "pitch": 77,
                "velocity": 80,
                "duration": 0.325,
                "tempo": 120.0
            },
            {
                "start_time": 63.6363636,
                "end_time": 63.9772727,
                "pitch": 79,
                "velocity": 80,
                "duration": 0.3409091,
                "tempo": 120.0
            },
            {
                "start_time": 64.0477273,
                "end_time": 64.3886364,
                "pitch": 79,
                "velocity": 80,
                "duration": 0.3409091,
                "tempo": 120.0
            },
            {
                "start_time": 64.4568182,
                "end_time": 64.8,
                "pitch": 77,
                "velocity": 80,
                "duration": 0.3431818,
                "tempo": 120.0
            },
            {
                "start_time": 64.8681818,
                "end_time": 66.8113636,
                "pitch": 79,
                "velocity": 80,
                "duration": 1.9431818,
                "tempo": 120.0
            },
            {
                "start_time": 66.8795455,
                "end_time": 67.6113636,
                "pitch": 0,
                "velocity": 80,
                "duration": 0.7318182,
                "tempo": 120.0
            },
            {
                "start_time": 67.6795455,
                "end_time": 68.4113636,
                "pitch": 67,
                "velocity": 80,
                "duration": 0.7318182,
                "tempo": 120.0
            },
            {
                "start_time": 68.4795455,
                "end_time": 69.2318182,
                "pitch": 65,
                "velocity": 80,
                "duration": 0.7522727,
                "tempo": 120.0
            },
            {
                "start_time": 69.3,
                "end_time": 70.0545455,
                "pitch": 63,
                "velocity": 80,
                "duration": 0.7545455,
                "tempo": 120.0
            },
            {
                "start_time": 70.1227273,
                "end_time": 70.8659091,
                "pitch": 70,
                "velocity": 80,
                "duration": 0.7431818,
                "tempo": 120.0
            },
            {
                "start_time": 70.9340909,
                "end_time": 71.6772727,
                "pitch": 70,
                "velocity": 80,
                "duration": 0.7431818,
                "tempo": 120.0
            },
            {
                "start_time": 71.7454545,
                "end_time": 72.4772727,
                "pitch": 0,
                "velocity": 80,
                "duration": 0.7318182,
                "tempo": 120.0
            },
            {
                "start_time": 72.5454545,
                "end_time": 73.2772727,
                "pitch": 74,
                "velocity": 80,
                "duration": 0.7318182,
                "tempo": 120.0
            },
            {
                "start_time": 73.3454545,
                "end_time": 73.6772727,
                "pitch": 74,
                "velocity": 80,
                "duration": 0.3318182,
                "tempo": 120.0
            },
            {
                "start_time": 73.7454545,
                "end_time": 76.4772727,
                "pitch": 70,
                "velocity": 80,
                "duration": 2.7318182,
                "tempo": 120.0
            },
            {
                "start_time": 76.5454545,
                "end_time": 77.2886364,
                "pitch": 67,
                "velocity": 80,
                "duration": 0.7431818,
                "tempo": 120.0
            },
            {
                "start_time": 77.3545455,
                "end_time": 77.6931818,
                "pitch": 65,
                "velocity": 80,
                "duration": 0.3386364,
                "tempo": 120.0
            },
            {
                "start_time": 77.7613636,
                "end_time": 78.9090909,
                "pitch": 65,
                "velocity": 80,
                "duration": 1.1477273,
                "tempo": 120.0
            },
            {
                "start_time": 78.9772727,
                "end_time": 79.3136364,
                "pitch": 63,
                "velocity": 80,
                "duration": 0.3363636,
                "tempo": 120.0
            },
            {
                "start_time": 79.3818182,
                "end_time": 80.5409091,
                "pitch": 63,
                "velocity": 80,
                "duration": 1.1590909,
                "tempo": 120.0
            },
            {
                "start_time": 80.6090909,
                "end_time": 80.9522727,
                "pitch": 62,
                "velocity": 80,
                "duration": 0.3431818,
                "tempo": 120.0
            },
            {
                "start_time": 81.0204545,
                "end_time": 81.7477273,
                "pitch": 62,
                "velocity": 80,
                "duration": 0.7272727,
                "tempo": 120.0
            },
            {
                "start_time": 81.8136364,
                "end_time": 82.1340909,
                "pitch": 58,
                "velocity": 80,
                "duration": 0.3204545,
                "tempo": 120.0
            },
            {
                "start_time": 82.1977273,
                "end_time": 82.5181818,
                "pitch": 59,
                "velocity": 80,
                "duration": 0.3204545,
                "tempo": 120.0
            },
            {
                "start_time": 82.5818182,
                "end_time": 82.9022727,
                "pitch": 60,
                "velocity": 80,
                "duration": 0.3204545,
                "tempo": 120.0
            },
            {
                "start_time": 82.9659091,
                "end_time": 84.1318182,
                "pitch": 72,
                "velocity": 80,
                "duration": 1.1659091,
                "tempo": 120.0
            },
            {
                "start_time": 84.2,
                "end_time": 86.1863636,
                "pitch": 70,
                "velocity": 80,
                "duration": 1.9863636,
                "tempo": 120.0
            },
            {
                "start_time": 86.2545455,
                "end_time": 86.7159091,
                "pitch": 67,
                "velocity": 80,
                "duration": 0.4613636,
                "tempo": 120.0
            },
            {
                "start_time": 86.7818182,
                "end_time": 87.2409091,
                "pitch": 73,
                "velocity": 80,
                "duration": 0.4590909,
                "tempo": 120.0
            },
            {
                "start_time": 87.3068182,
                "end_time": 87.7681818,
                "pitch": 72,
                "velocity": 80,
                "duration": 0.4613636,
                "tempo": 120.0
            },
            {
                "start_time": 87.8340909,
                "end_time": 88.3,
                "pitch": 70,
                "velocity": 80,
                "duration": 0.4659091,
                "tempo": 120.0
            },
            {
                "start_time": 88.3659091,
                "end_time": 88.8340909,
                "pitch": 68,
                "velocity": 80,
                "duration": 0.4681818,
                "tempo": 120.0
            },
            {
                "start_time": 88.9,
                "end_time": 89.3659091,
                "pitch": 67,
                "velocity": 80,
                "duration": 0.4659091,
                "tempo": 120.0
            },
            {
                "start_time": 89.4340909,
                "end_time": 90.9659091,
                "pitch": 67,
                "velocity": 80,
                "duration": 1.5318182,
                "tempo": 120.0
            },
            {
                "start_time": 91.0340909,
                "end_time": 91.3704545,
                "pitch": 0,
                "velocity": 80,
                "duration": 0.3363636,
                "tempo": 120.0
            },
            {
                "start_time": 91.4386364,
                "end_time": 92.1818182,
                "pitch": 79,
                "velocity": 80,
                "duration": 0.7431818,
                "tempo": 120.0
            },
            {
                "start_time": 92.25,
                "end_time": 92.5863636,
                "pitch": 79,
                "velocity": 80,
                "duration": 0.3363636,
                "tempo": 120.0
            },
            {
                "start_time": 92.6545455,
                "end_time": 95.0068182,
                "pitch": 77,
                "velocity": 80,
                "duration": 2.3522727,
                "tempo": 120.0
            },
            {
                "start_time": 95.075,
                "end_time": 95.4181818,
                "pitch": 75,
                "velocity": 80,
                "duration": 0.3431818,
                "tempo": 120.0
            },
            {
                "start_time": 95.4863636,
                "end_time": 98.2409091,
                "pitch": 75,
                "velocity": 80,
                "duration": 2.7545455,
                "tempo": 120.0
            },
            {
                "start_time": 98.3090909,
                "end_time": 101.4522727,
                "pitch": 79,
                "velocity": 80,
                "duration": 3.1431818,
                "tempo": 120.0
            },
            {
                "start_time": 101.5204545,
                "end_time": 101.8522727,
                "pitch": 72,
                "velocity": 80,
                "duration": 0.3318182,
                "tempo": 120.0
            },
            {
                "start_time": 101.9204545,
                "end_time": 102.2522727,
                "pitch": 74,
                "velocity": 80,
                "duration": 0.3318182,
                "tempo": 120.0
            },
            {
                "start_time": 102.3204545,
                "end_time": 107.0954545,
                "pitch": 70,
                "velocity": 80,
                "duration": 4.775,
                "tempo": 120.0
            },
            {
                "start_time": 107.1636364,
                "end_time": 107.8954545,
                "pitch": 0,
                "velocity": 80,
                "duration": 0.7318182,
                "tempo": 120.0
            },
            {
                "start_time": 107.9636364,
                "end_time": 108.2954545,
                "pitch": 72,
                "velocity": 80,
                "duration": 0.3318182,
                "tempo": 120.0
            },
            {
                "start_time": 108.3636364,
                "end_time": 108.6954545,
                "pitch": 74,
                "velocity": 80,
                "duration": 0.3318182,
                "tempo": 120.0
            },
            {
                "start_time": 108.7636364,
                "end_time": 113.5181818,
                "pitch": 70,
                "velocity": 80,
                "duration": 4.7545455,
                "tempo": 120.0
            },
            {
                "start_time": 113.5840909,
                "end_time": 114.3272727,
                "pitch": 0,
                "velocity": 80,
                "duration": 0.7431818,
                "tempo": 120.0
            },
            {
                "start_time": 114.3954545,
                "end_time": 114.7318182,
                "pitch": 72,
                "velocity": 80,
                "duration": 0.3363636,
                "tempo": 120.0
            },
            {
                "start_time": 114.8,
                "end_time": 115.1386364,
                "pitch": 74,
                "velocity": 80,
                "duration": 0.3386364,
                "tempo": 120.0
            },
            {
                "start_time": 115.2068182,
                "end_time": 117.5386364,
                "pitch": 72,
                "velocity": 80,
                "duration": 2.3318182,
                "tempo": 120.0
            },
            {
                "start_time": 117.6068182,
                "end_time": 121.5818182,
                "pitch": 79,
                "velocity": 80,
                "duration": 3.975,
                "tempo": 120.0
            },
            {
                "start_time": 121.65,
                "end_time": 122.3818182,
                "pitch": 60,
                "velocity": 80,
                "duration": 0.7318182,
                "tempo": 120.0
            },
            {
                "start_time": 122.45,
                "end_time": 123.1818182,
                "pitch": 65,
                "velocity": 80,
                "duration": 0.7318182,
                "tempo": 120.0
            },
            {
                "start_time": 123.25,
                "end_time": 123.9931818,
                "pitch": 67,
                "velocity": 80,
                "duration": 0.7431818,
                "tempo": 120.0
            },
            {
                "start_time": 124.0590909,
                "end_time": 124.8022727,
                "pitch": 72,
                "velocity": 80,
                "duration": 0.7431818,
                "tempo": 120.0
            },
            {
                "start_time": 124.8704545,
                "end_time": 125.6045455,
                "pitch": 77,
                "velocity": 80,
                "duration": 0.7340909,
                "tempo": 120.0
            },
            {
                "start_time": 125.6704545,
                "end_time": 126.4045455,
                "pitch": 79,
                "velocity": 80,
                "duration": 0.7340909,
                "tempo": 120.0
            },
            {
                "start_time": 126.4704545,
                "end_time": 128.025,
                "pitch": 84,
                "velocity": 80,
                "duration": 1.5545455,
                "tempo": 120.0
            },
            {
                "start_time": 128.0931818,
                "end_time": 134.5613636,
                "pitch": 58,
                "velocity": 80,
                "duration": 6.4681818,
                "tempo": 120.0
            }
        ],
        "Acoustic Bass": [
            {
                "start_time": 2.4227273,
                "end_time": 3.9568182,
                "pitch": 32,
                "velocity": 80,
                "duration": 1.5340909,
                "tempo": 120.0
            },
            {
                "start_time": 4.0227273,
                "end_time": 5.5568182,
                "pitch": 44,
                "velocity": 80,
                "duration": 1.5340909,
                "tempo": 120.0
            },
            {
                "start_time": 5.6227273,
                "end_time": 8.7977273,
                "pitch": 43,
                "velocity": 80,
                "duration": 3.175,
                "tempo": 120.0
            },
            {
                "start_time": 8.8659091,
                "end_time": 10.4204545,
                "pitch": 31,
                "velocity": 80,
                "duration": 1.5545455,
                "tempo": 120.0
            },
            {
                "start_time": 10.4886364,
                "end_time": 12.0022727,
                "pitch": 43,
                "velocity": 80,
                "duration": 1.5136364,
                "tempo": 120.0
            },
            {
                "start_time": 12.0681818,
                "end_time": 15.2431818,
                "pitch": 44,
                "velocity": 80,
                "duration": 3.175,
                "tempo": 120.0
            },
            {
                "start_time": 15.3113636,
                "end_time": 16.8431818,
                "pitch": 32,
                "velocity": 80,
                "duration": 1.5318182,
                "tempo": 120.0
            },
            {
                "start_time": 16.9113636,
                "end_time": 18.4636364,
                "pitch": 44,
                "velocity": 80,
                "duration": 1.5522727,
                "tempo": 120.0
            },
            {
                "start_time": 18.5318182,
                "end_time": 20.0659091,
                "pitch": 43,
                "velocity": 80,
                "duration": 1.5340909,
                "tempo": 120.0
            },
            {
                "start_time": 20.1318182,
                "end_time": 21.6454545,
                "pitch": 0,
                "velocity": 80,
                "duration": 1.5136364,
                "tempo": 120.0
            },
            {
                "start_time": 21.7113636,
                "end_time": 23.3068182,
                "pitch": 0,
                "velocity": 80,
                "duration": 1.5954545,
                "tempo": 120.0
            },
            {
                "start_time": 23.375,
                "end_time": 23.7090909,
                "pitch": 31,
                "velocity": 80,
                "duration": 0.3340909,
                "tempo": 120.0
            },
            {
                "start_time": 23.7772727,
                "end_time": 24.1090909,
                "pitch": 41,
                "velocity": 80,
                "duration": 0.3318182,
                "tempo": 120.0
            },
            {
                "start_time": 24.1772727,
                "end_time": 24.9090909,
                "pitch": 43,
                "velocity": 80,
                "duration": 0.7318182,
                "tempo": 120.0
            },
            {
                "start_time": 24.9772727,
                "end_time": 28.1295455,
                "pitch": 41,
                "velocity": 80,
                "duration": 3.1522727,
                "tempo": 120.0
            },
            {
                "start_time": 28.1977273,
                "end_time": 31.3522727,
                "pitch": 34,
                "velocity": 80,
                "duration": 3.1545455,
                "tempo": 120.0
            },
            {
                "start_time": 31.4204545,
                "end_time": 34.5954545,
                "pitch": 39,
                "velocity": 80,
                "duration": 3.175,
                "tempo": 120.0
            },
            {
                "start_time": 34.6636364,
                "end_time": 37.775,
                "pitch": 46,
                "velocity": 80,
                "duration": 3.1113636,
                "tempo": 120.0
            },
            {
                "start_time": 37.8409091,
                "end_time": 41.0181818,
                "pitch": 41,
                "velocity": 80,
                "duration": 3.1772727,
                "tempo": 120.0
            },
            {
                "start_time": 41.0840909,
                "end_time": 44.2181818,
                "pitch": 34,
                "velocity": 80,
                "duration": 3.1340909,
                "tempo": 120.0
            },
            {
                "start_time": 44.2840909,
                "end_time": 47.4409091,
                "pitch": 39,
                "velocity": 80,
                "duration": 3.1568182,
                "tempo": 120.0
            },
            {
                "start_time": 47.5045455,
                "end_time": 50.6613636,
                "pitch": 49,
                "velocity": 80,
                "duration": 3.1568182,
                "tempo": 120.0
            },
            {
                "start_time": 50.7272727,
                "end_time": 51.0681818,
                "pitch": 44,
                "velocity": 80,
                "duration": 0.3409091,
                "tempo": 120.0
            },
            {
                "start_time": 51.1386364,
                "end_time": 51.8909091,
                "pitch": 0,
                "velocity": 80,
                "duration": 0.7522727,
                "tempo": 120.0
            },
            {
                "start_time": 51.9590909,
                "end_time": 55.5045455,
                "pitch": 32,
                "velocity": 80,
                "duration": 3.5454545,
                "tempo": 120.0
            },
            {
                "start_time": 55.5704545,
                "end_time": 57.1454545,
                "pitch": 0,
                "velocity": 80,
                "duration": 1.575,
                "tempo": 120.0
            },
            {
                "start_time": 57.2136364,
                "end_time": 60.3886364,
                "pitch": 31,
                "velocity": 80,
                "duration": 3.175,
                "tempo": 120.0
            },
            {
                "start_time": 60.4568182,
                "end_time": 63.5704545,
                "pitch": 43,
                "velocity": 80,
                "duration": 3.1136364,
                "tempo": 120.0
            },
            {
                "start_time": 63.6363636,
                "end_time": 63.9772727,
                "pitch": 44,
                "velocity": 80,
                "duration": 0.3409091,
                "tempo": 120.0
            },
            {
                "start_time": 64.0477273,
                "end_time": 64.8,
                "pitch": 0,
                "velocity": 80,
                "duration": 0.7522727,
                "tempo": 120.0
            },
            {
                "start_time": 64.8681818,
                "end_time": 68.4113636,
                "pitch": 32,
                "velocity": 80,
                "duration": 3.5431818,
                "tempo": 120.0
            },
            {
                "start_time": 68.4795455,
                "end_time": 70.0545455,
                "pitch": 0,
                "velocity": 80,
                "duration": 1.575,
                "tempo": 120.0
            },
            {
                "start_time": 70.1227273,
                "end_time": 70.8659091,
                "pitch": 43,
                "velocity": 80,
                "duration": 0.7431818,
                "tempo": 120.0
            },
            {
                "start_time": 70.9340909,
                "end_time": 71.6772727,
                "pitch": 31,
                "velocity": 80,
                "duration": 0.7431818,
                "tempo": 120.0
            },
            {
                "start_time": 71.7454545,
                "end_time": 73.2772727,
                "pitch": 0,
                "velocity": 80,
                "duration": 1.5318182,
                "tempo": 120.0
            },
            {
                "start_time": 73.3454545,
                "end_time": 76.4772727,
                "pitch": 31,
                "velocity": 80,
                "duration": 3.1318182,
                "tempo": 120.0
            },
            {
                "start_time": 76.5454545,
                "end_time": 79.3136364,
                "pitch": 29,
                "velocity": 80,
                "duration": 2.7681818,
                "tempo": 120.0
            },
            {
                "start_time": 79.3818182,
                "end_time": 82.9022727,
                "pitch": 34,
                "velocity": 80,
                "duration": 3.5204545,
                "tempo": 120.0
            },
            {
                "start_time": 82.9659091,
                "end_time": 86.1863636,
                "pitch": 39,
                "velocity": 80,
                "duration": 3.2204545,
                "tempo": 120.0
            },
            {
                "start_time": 86.2545455,
                "end_time": 89.3659091,
                "pitch": 36,
                "velocity": 80,
                "duration": 3.1113636,
                "tempo": 120.0
            },
            {
                "start_time": 89.4340909,
                "end_time": 92.5863636,
                "pitch": 41,
                "velocity": 80,
                "duration": 3.1522727,
                "tempo": 120.0
            },
            {
                "start_time": 92.6545455,
                "end_time": 95.8295455,
                "pitch": 34,
                "velocity": 80,
                "duration": 3.175,
                "tempo": 120.0
            },
            {
                "start_time": 95.8977273,
                "end_time": 99.0522727,
                "pitch": 41,
                "velocity": 80,
                "duration": 3.1545455,
                "tempo": 120.0
            },
            {
                "start_time": 99.1204545,
                "end_time": 100.6522727,
                "pitch": 41,
                "velocity": 80,
                "duration": 1.5318182,
                "tempo": 120.0
            },
            {
                "start_time": 100.7204545,
                "end_time": 102.2522727,
                "pitch": 43,
                "velocity": 80,
                "duration": 1.5318182,
                "tempo": 120.0
            },
            {
                "start_time": 102.3204545,
                "end_time": 103.8522727,
                "pitch": 36,
                "velocity": 80,
                "duration": 1.5318182,
                "tempo": 120.0
            },
            {
                "start_time": 103.9204545,
                "end_time": 105.4727273,
                "pitch": 46,
                "velocity": 80,
                "duration": 1.5522727,
                "tempo": 120.0
            },
            {
                "start_time": 105.5409091,
                "end_time": 107.0954545,
                "pitch": 41,
                "velocity": 80,
                "duration": 1.5545455,
                "tempo": 120.0
            },
            {
                "start_time": 107.1636364,
                "end_time": 108.6954545,
                "pitch": 34,
                "velocity": 80,
                "duration": 1.5318182,
                "tempo": 120.0
            },
            {
                "start_time": 108.7636364,
                "end_time": 110.2954545,
                "pitch": 39,
                "velocity": 80,
                "duration": 1.5318182,
                "tempo": 120.0
            },
            {
                "start_time": 110.3636364,
                "end_time": 111.9159091,
                "pitch": 43,
                "velocity": 80,
                "duration": 1.5522727,
                "tempo": 120.0
            },
            {
                "start_time": 111.9840909,
                "end_time": 113.5181818,
                "pitch": 41,
                "velocity": 80,
                "duration": 1.5340909,
                "tempo": 120.0
            },
            {
                "start_time": 113.5840909,
                "end_time": 115.1386364,
                "pitch": 44,
                "velocity": 80,
                "duration": 1.5545455,
                "tempo": 120.0
            },
            {
                "start_time": 115.2068182,
                "end_time": 118.3386364,
                "pitch": 39,
                "velocity": 80,
                "duration": 3.1318182,
                "tempo": 120.0
            },
            {
                "start_time": 118.4068182,
                "end_time": 119.4318182,
                "pitch": 44,
                "velocity": 80,
                "duration": 1.025,
                "tempo": 120.0
            },
            {
                "start_time": 119.5022727,
                "end_time": 128.025,
                "pitch": 44,
                "velocity": 80,
                "duration": 8.5227273,
                "tempo": 120.0
            },
            {
                "start_time": 128.0931818,
                "end_time": 134.5613636,
                "pitch": 34,
                "velocity": 80,
                "duration": 6.4681818,
                "tempo": 120.0
            }
        ],
        "Vibraphone": [
            {
                "start_time": 2.4227273,
                "end_time": 3.1568182,
                "pitch": 0,
                "velocity": 80,
                "duration": 0.7340909,
                "tempo": 120.0
            },
            {
                "start_time": 3.2227273,
                "end_time": 5.5568182,
                "pitch": 72,
                "velocity": 80,
                "duration": 2.3340909,
                "tempo": 120.0
            },
            {
                "start_time": 5.6227273,
                "end_time": 8.3863636,
                "pitch": 65,
                "velocity": 80,
                "duration": 2.7636364,
                "tempo": 120.0
            },
            {
                "start_time": 8.4545455,
                "end_time": 10.4204545,
                "pitch": 62,
                "velocity": 80,
                "duration": 1.9659091,
                "tempo": 120.0
            },
            {
                "start_time": 10.4886364,
                "end_time": 10.8181818,
                "pitch": 58,
                "velocity": 80,
                "duration": 0.3295455,
                "tempo": 120.0
            },
            {
                "start_time": 10.8818182,
                "end_time": 11.2113636,
                "pitch": 60,
                "velocity": 80,
                "duration": 0.3295455,
                "tempo": 120.0
            },
            {
                "start_time": 11.2772727,
                "end_time": 11.6068182,
                "pitch": 63,
                "velocity": 80,
                "duration": 0.3295455,
                "tempo": 120.0
            },
            {
                "start_time": 11.6727273,
                "end_time": 12.0022727,
                "pitch": 65,
                "velocity": 80,
                "duration": 0.3295455,
                "tempo": 120.0
            },
            {
                "start_time": 12.0681818,
                "end_time": 15.2431818,
                "pitch": 60,
                "velocity": 80,
                "duration": 3.175,
                "tempo": 120.0
            },
            {
                "start_time": 15.3113636,
                "end_time": 16.0431818,
                "pitch": 0,
                "velocity": 80,
                "duration": 0.7318182,
                "tempo": 120.0
            },
            {
                "start_time": 16.1113636,
                "end_time": 18.4636364,
                "pitch": 60,
                "velocity": 80,
                "duration": 2.3522727,
                "tempo": 120.0
            },
            {
                "start_time": 18.5318182,
                "end_time": 20.0659091,
                "pitch": 58,
                "velocity": 80,
                "duration": 1.5340909,
                "tempo": 120.0
            },
            {
                "start_time": 20.1318182,
                "end_time": 20.8545455,
                "pitch": 0,
                "velocity": 80,
                "duration": 0.7227273,
                "tempo": 120.0
            },
            {
                "start_time": 20.9204545,
                "end_time": 21.25,
                "pitch": 58,
                "velocity": 80,
                "duration": 0.3295455,
                "tempo": 120.0
            },
            {
                "start_time": 21.3159091,
                "end_time": 23.3068182,
                "pitch": 55,
                "velocity": 80,
                "duration": 1.9909091,
                "tempo": 120.0
            },
            {
                "start_time": 23.375,
                "end_time": 24.9090909,
                "pitch": 0,
                "velocity": 80,
                "duration": 1.5340909,
                "tempo": 120.0
            },
            {
                "start_time": 24.9772727,
                "end_time": 26.1090909,
                "pitch": 62,
                "velocity": 80,
                "duration": 1.1318182,
                "tempo": 120.0
            },
            {
                "start_time": 26.1772727,
                "end_time": 28.1295455,
                "pitch": 60,
                "velocity": 80,
                "duration": 1.9522727,
                "tempo": 120.0
            },
            {
                "start_time": 28.1977273,
                "end_time": 28.9409091,
                "pitch": 0,
                "velocity": 80,
                "duration": 0.7431818,
                "tempo": 120.0
            },
            {
                "start_time": 29.0090909,
                "end_time": 29.7522727,
                "pitch": 58,
                "velocity": 80,
                "duration": 0.7431818,
                "tempo": 120.0
            },
            {
                "start_time": 29.8204545,
                "end_time": 30.2863636,
                "pitch": 60,
                "velocity": 80,
                "duration": 0.4659091,
                "tempo": 120.0
            },
            {
                "start_time": 30.3522727,
                "end_time": 30.8204545,
                "pitch": 63,
                "velocity": 80,
                "duration": 0.4681818,
                "tempo": 120.0
            },
            {
                "start_time": 30.8863636,
                "end_time": 31.3522727,
                "pitch": 65,
                "velocity": 80,
                "duration": 0.4659091,
                "tempo": 120.0
            },
            {
                "start_time": 31.4204545,
                "end_time": 32.5681818,
                "pitch": 62,
                "velocity": 80,
                "duration": 1.1477273,
                "tempo": 120.0
            },
            {
                "start_time": 32.6363636,
                "end_time": 34.5954545,
                "pitch": 63,
                "velocity": 80,
                "duration": 1.9590909,
                "tempo": 120.0
            },
            {
                "start_time": 34.6636364,
                "end_time": 37.775,
                "pitch": 58,
                "velocity": 80,
                "duration": 3.1113636,
                "tempo": 120.0
            },
            {
                "start_time": 37.8409091,
                "end_time": 41.0181818,
                "pitch": 63,
                "velocity": 80,
                "duration": 3.1772727,
                "tempo": 120.0
            },
            {
                "start_time": 41.0840909,
                "end_time": 42.6386364,
                "pitch": 62,
                "velocity": 80,
                "duration": 1.5545455,
                "tempo": 120.0
            },
            {
                "start_time": 42.7045455,
                "end_time": 43.0340909,
                "pitch": 0,
                "velocity": 80,
                "duration": 0.3295455,
                "tempo": 120.0
            },
            {
                "start_time": 43.1,
                "end_time": 43.825,
                "pitch": 70,
                "velocity": 80,
                "duration": 0.725,
                "tempo": 120.0
            },
            {
                "start_time": 43.8886364,
                "end_time": 44.2181818,
                "pitch": 69,
                "velocity": 80,
                "duration": 0.3295455,
                "tempo": 120.0
            },
            {
                "start_time": 44.2840909,
                "end_time": 47.4409091,
                "pitch": 67,
                "velocity": 80,
                "duration": 3.1568182,
                "tempo": 120.0
            },
            {
                "start_time": 47.5045455,
                "end_time": 50.6613636,
                "pitch": 67,
                "velocity": 80,
                "duration": 3.1568182,
                "tempo": 120.0
            },
            {
                "start_time": 50.7272727,
                "end_time": 51.0681818,
                "pitch": 70,
                "velocity": 80,
                "duration": 0.3409091,
                "tempo": 120.0
            },
            {
                "start_time": 51.1386364,
                "end_time": 51.4795455,
                "pitch": 79,
                "velocity": 80,
                "duration": 0.3409091,
                "tempo": 120.0
            },
            {
                "start_time": 51.5477273,
                "end_time": 51.8909091,
                "pitch": 77,
                "velocity": 80,
                "duration": 0.3431818,
                "tempo": 120.0
            },
            {
                "start_time": 51.9590909,
                "end_time": 53.9045455,
                "pitch": 70,
                "velocity": 80,
                "duration": 1.9454545,
                "tempo": 120.0
            },
            {
                "start_time": 53.9704545,
                "end_time": 54.7045455,
                "pitch": 0,
                "velocity": 80,
                "duration": 0.7340909,
                "tempo": 120.0
            },
            {
                "start_time": 54.7704545,
                "end_time": 55.5045455,
                "pitch": 63,
                "velocity": 80,
                "duration": 0.7340909,
                "tempo": 120.0
            },
            {
                "start_time": 55.5704545,
                "end_time": 56.3227273,
                "pitch": 65,
                "velocity": 80,
                "duration": 0.7522727,
                "tempo": 120.0
            },
            {
                "start_time": 56.3909091,
                "end_time": 57.1454545,
                "pitch": 63,
                "velocity": 80,
                "duration": 0.7545455,
                "tempo": 120.0
            },
            {
                "start_time": 57.2136364,
                "end_time": 58.7681818,
                "pitch": 65,
                "velocity": 80,
                "duration": 1.5545455,
                "tempo": 120.0
            },
            {
                "start_time": 58.8363636,
                "end_time": 59.9840909,
                "pitch": 0,
                "velocity": 80,
                "duration": 1.1477273,
                "tempo": 120.0
            },
            {
                "start_time": 60.0522727,
                "end_time": 62.0113636,
                "pitch": 50,
                "velocity": 80,
                "duration": 1.9590909,
                "tempo": 120.0
            },
            {
                "start_time": 62.0772727,
                "end_time": 62.4022727,
                "pitch": 0,
                "velocity": 80,
                "duration": 0.325,
                "tempo": 120.0
            },
            {
                "start_time": 62.4659091,
                "end_time": 62.7909091,
                "pitch": 72,
                "velocity": 80,
                "duration": 0.325,
                "tempo": 120.0
            },
            {
                "start_time": 62.8568182,
                "end_time": 63.1818182,
                "pitch": 75,
                "velocity": 80,
                "duration": 0.325,
                "tempo": 120.0
            },
            {
                "start_time": 63.2454545,
                "end_time": 63.5704545,
                "pitch": 77,
                "velocity": 80,
                "duration": 0.325,
                "tempo": 120.0
            },
            {
                "start_time": 63.6363636,
                "end_time": 63.9772727,
                "pitch": 70,
                "velocity": 80,
                "duration": 0.3409091,
                "tempo": 120.0
            },
            {
                "start_time": 64.0477273,
                "end_time": 64.3886364,
                "pitch": 79,
                "velocity": 80,
                "duration": 0.3409091,
                "tempo": 120.0
            },
            {
                "start_time": 64.4568182,
                "end_time": 64.8,
                "pitch": 77,
                "velocity": 80,
                "duration": 0.3431818,
                "tempo": 120.0
            },
            {
                "start_time": 64.8681818,
                "end_time": 66.8113636,
                "pitch": 70,
                "velocity": 80,
                "duration": 1.9431818,
                "tempo": 120.0
            },
            {
                "start_time": 66.8795455,
                "end_time": 67.6113636,
                "pitch": 0,
                "velocity": 80,
                "duration": 0.7318182,
                "tempo": 120.0
            },
            {
                "start_time": 67.6795455,
                "end_time": 68.4113636,
                "pitch": 63,
                "velocity": 80,
                "duration": 0.7318182,
                "tempo": 120.0
            },
            {
                "start_time": 68.4795455,
                "end_time": 69.2318182,
                "pitch": 65,
                "velocity": 80,
                "duration": 0.7522727,
                "tempo": 120.0
            },
            {
                "start_time": 69.3,
                "end_time": 70.0545455,
                "pitch": 63,
                "velocity": 80,
                "duration": 0.7545455,
                "tempo": 120.0
            },
            {
                "start_time": 70.1227273,
                "end_time": 70.8659091,
                "pitch": 65,
                "velocity": 80,
                "duration": 0.7431818,
                "tempo": 120.0
            },
            {
                "start_time": 70.9340909,
                "end_time": 71.6772727,
                "pitch": 65,
                "velocity": 80,
                "duration": 0.7431818,
                "tempo": 120.0
            },
            {
                "start_time": 71.7454545,
                "end_time": 72.4772727,
                "pitch": 0,
                "velocity": 80,
                "duration": 0.7318182,
                "tempo": 120.0
            },
            {
                "start_time": 72.5454545,
                "end_time": 73.2772727,
                "pitch": 74,
                "velocity": 80,
                "duration": 0.7318182,
                "tempo": 120.0
            },
            {
                "start_time": 73.3454545,
                "end_time": 73.6772727,
                "pitch": 70,
                "velocity": 80,
                "duration": 0.3318182,
                "tempo": 120.0
            },
            {
                "start_time": 73.7454545,
                "end_time": 76.4772727,
                "pitch": 65,
                "velocity": 80,
                "duration": 2.7318182,
                "tempo": 120.0
            },
            {
                "start_time": 76.5454545,
                "end_time": 77.2886364,
                "pitch": 56,
                "velocity": 80,
                "duration": 0.7431818,
                "tempo": 120.0
            },
            {
                "start_time": 77.3545455,
                "end_time": 79.3136364,
                "pitch": 0,
                "velocity": 80,
                "duration": 1.9590909,
                "tempo": 120.0
            },
            {
                "start_time": 79.3818182,
                "end_time": 80.5409091,
                "pitch": 56,
                "velocity": 80,
                "duration": 1.1590909,
                "tempo": 120.0
            },
            {
                "start_time": 80.6090909,
                "end_time": 82.9022727,
                "pitch": 0,
                "velocity": 80,
                "duration": 2.2931818,
                "tempo": 120.0
            },
            {
                "start_time": 82.9659091,
                "end_time": 84.1318182,
                "pitch": 72,
                "velocity": 80,
                "duration": 1.1659091,
                "tempo": 120.0
            },
            {
                "start_time": 84.2,
                "end_time": 86.1863636,
                "pitch": 67,
                "velocity": 80,
                "duration": 1.9863636,
                "tempo": 120.0
            },
            {
                "start_time": 86.2545455,
                "end_time": 86.7159091,
                "pitch": 67,
                "velocity": 80,
                "duration": 0.4613636,
                "tempo": 120.0
            },
            {
                "start_time": 86.7818182,
                "end_time": 89.3659091,
                "pitch": 64,
                "velocity": 80,
                "duration": 2.5840909,
                "tempo": 120.0
            },
            {
                "start_time": 89.4340909,
                "end_time": 90.9659091,
                "pitch": 63,
                "velocity": 80,
                "duration": 1.5318182,
                "tempo": 120.0
            },
            {
                "start_time": 91.0340909,
                "end_time": 91.3704545,
                "pitch": 0,
                "velocity": 80,
                "duration": 0.3363636,
                "tempo": 120.0
            },
            {
                "start_time": 91.4386364,
                "end_time": 92.1818182,
                "pitch": 77,
                "velocity": 80,
                "duration": 0.7431818,
                "tempo": 120.0
            },
            {
                "start_time": 92.25,
                "end_time": 92.5863636,
                "pitch": 79,
                "velocity": 80,
                "duration": 0.3363636,
                "tempo": 120.0
            },
            {
                "start_time": 92.6545455,
                "end_time": 95.0068182,
                "pitch": 72,
                "velocity": 80,
                "duration": 2.3522727,
                "tempo": 120.0
            },
            {
                "start_time": 95.075,
                "end_time": 95.8295455,
                "pitch": 0,
                "velocity": 80,
                "duration": 0.7545455,
                "tempo": 120.0
            },
            {
                "start_time": 95.8977273,
                "end_time": 98.2409091,
                "pitch": 67,
                "velocity": 80,
                "duration": 2.3431818,
                "tempo": 120.0
            },
            {
                "start_time": 98.3090909,
                "end_time": 101.4522727,
                "pitch": 68,
                "velocity": 80,
                "duration": 3.1431818,
                "tempo": 120.0
            },
            {
                "start_time": 101.5204545,
                "end_time": 101.8522727,
                "pitch": 72,
                "velocity": 80,
                "duration": 0.3318182,
                "tempo": 120.0
            },
            {
                "start_time": 101.9204545,
                "end_time": 102.2522727,
                "pitch": 74,
                "velocity": 80,
                "duration": 0.3318182,
                "tempo": 120.0
            },
            {
                "start_time": 102.3204545,
                "end_time": 107.0954545,
                "pitch": 67,
                "velocity": 80,
                "duration": 4.775,
                "tempo": 120.0
            },
            {
                "start_time": 107.1636364,
                "end_time": 107.8954545,
                "pitch": 0,
                "velocity": 80,
                "duration": 0.7318182,
                "tempo": 120.0
            },
            {
                "start_time": 107.9636364,
                "end_time": 108.2954545,
                "pitch": 72,
                "velocity": 80,
                "duration": 0.3318182,
                "tempo": 120.0
            },
            {
                "start_time": 108.3636364,
                "end_time": 108.6954545,
                "pitch": 74,
                "velocity": 80,
                "duration": 0.3318182,
                "tempo": 120.0
            },
            {
                "start_time": 108.7636364,
                "end_time": 113.5181818,
                "pitch": 67,
                "velocity": 80,
                "duration": 4.7545455,
                "tempo": 120.0
            },
            {
                "start_time": 113.5840909,
                "end_time": 114.3272727,
                "pitch": 0,
                "velocity": 80,
                "duration": 0.7431818,
                "tempo": 120.0
            },
            {
                "start_time": 114.3954545,
                "end_time": 114.7318182,
                "pitch": 72,
                "velocity": 80,
                "duration": 0.3363636,
                "tempo": 120.0
            },
            {
                "start_time": 114.8,
                "end_time": 115.1386364,
                "pitch": 74,
                "velocity": 80,
                "duration": 0.3386364,
                "tempo": 120.0
            },
            {
                "start_time": 115.2068182,
                "end_time": 117.5386364,
                "pitch": 67,
                "velocity": 80,
                "duration": 2.3318182,
                "tempo": 120.0
            },
            {
                "start_time": 117.6068182,
                "end_time": 121.5818182,
                "pitch": 67,
                "velocity": 80,
                "duration": 3.975,
                "tempo": 120.0
            },
            {
                "start_time": 121.65,
                "end_time": 122.3818182,
                "pitch": 60,
                "velocity": 80,
                "duration": 0.7318182,
                "tempo": 120.0
            },
            {
                "start_time": 122.45,
                "end_time": 123.1818182,
                "pitch": 65,
                "velocity": 80,
                "duration": 0.7318182,
                "tempo": 120.0
            },
            {
                "start_time": 123.25,
                "end_time": 123.9931818,
                "pitch": 67,
                "velocity": 80,
                "duration": 0.7431818,
                "tempo": 120.0
            },
            {
                "start_time": 124.0590909,
                "end_time": 124.8022727,
                "pitch": 72,
                "velocity": 80,
                "duration": 0.7431818,
                "tempo": 120.0
            },
            {
                "start_time": 124.8704545,
                "end_time": 125.6045455,
                "pitch": 77,
                "velocity": 80,
                "duration": 0.7340909,
                "tempo": 120.0
            },
            {
                "start_time": 125.6704545,
                "end_time": 126.4045455,
                "pitch": 79,
                "velocity": 80,
                "duration": 0.7340909,
                "tempo": 120.0
            },
            {
                "start_time": 126.4704545,
                "end_time": 128.025,
                "pitch": 84,
                "velocity": 80,
                "duration": 1.5545455,
                "tempo": 120.0
            },
            {
                "start_time": 128.0931818,
                "end_time": 134.5613636,
                "pitch": 53,
                "velocity": 80,
                "duration": 6.4681818,
                "tempo": 120.0
            }
        ]
    }
}