{
    "mood": "relaxed",
    "instruments": {
        "Trumpet": [
            {
                "start_time": 0.1545455,
                "end_time": 3.2545455,
                "pitch": 60,
                "velocity": 80,
                "duration": 3.1,
                "tempo": 120.0
            },
            {
                "start_time": 3.8818182,
                "end_time": 5.3886364,
                "pitch": 65,
                "velocity": 80,
                "duration": 1.5068182,
                "tempo": 120.0
            },
            {
                "start_time": 5.6909091,
                "end_time": 7.2204545,
                "pitch": 68,
                "velocity": 80,
                "duration": 1.5295455,
                "tempo": 120.0
            },
            {
                "start_time": 7.5386364,
                "end_time": 12.7727273,
                "pitch": 64,
                "velocity": 80,
                "duration": 5.2340909,
                "tempo": 120.0
            }
        ],
        "French Horn": [
            {
                "start_time": 0.0454545,
                "end_time": 2.3477273,
                "pitch": 60,
                "velocity": 127,
                "duration": 2.3022727,
                "tempo": 120.0
            },
            {
                "start_time": 2.5068182,
                "end_time": 2.9795455,
                "pitch": 55,
                "velocity": 127,
                "duration": 0.4727273,
                "tempo": 120.0
            },
            {
                "start_time": 0.0454545,
                "end_time": 3.1386364,
                "pitch": 0,
                "velocity": 127,
                "duration": 3.0931818,
                "tempo": 120.0
            },
            {
                "start_time": 3.1386364,
                "end_time": 3.6090909,
                "pitch": 60,
                "velocity": 127,
                "duration": 0.4704545,
                "tempo": 120.0
            },
            {
                "start_time": 3.7704545,
                "end_time": 5.275,
                "pitch": 62,
                "velocity": 127,
                "duration": 1.5045455,
                "tempo": 120.0
            },
            {
                "start_time": 5.5772727,
                "end_time": 7.1068182,
                "pitch": 56,
                "velocity": 127,
                "duration": 1.5295455,
                "tempo": 120.0
            },
            {
                "start_time": 7.4159091,
                "end_time": 12.6386364,
                "pitch": 56,
                "velocity": 127,
                "duration": 5.2227273,
                "tempo": 120.0
            }
        ],
        "Vibraphone": [
            {
                "start_time": 0.0477273,
                "end_time": 3.1386364,
                "pitch": 72,
                "velocity": 101,
                "duration": 3.0909091,
                "tempo": 120.0
            },
            {
                "start_time": 3.7727273,
                "end_time": 5.275,
                "pitch": 74,
                "velocity": 101,
                "duration": 1.5022727,
                "tempo": 120.0
            },
            {
                "start_time": 5.5795455,
                "end_time": 6.3795455,
                "pitch": 77,
                "velocity": 101,
                "duration": 0.8,
                "tempo": 120.0
            },
            {
                "start_time": 6.4954545,
                "end_time": 6.8772727,
                "pitch": 77,
                "velocity": 101,
                "duration": 0.3818182,
                "tempo": 120.0
            },
            {
                "start_time": 5.5795455,
                "end_time": 7.3340909,
                "pitch": 74,
                "velocity": 101,
                "duration": 1.7545455,
                "tempo": 120.0
            },
            {
                "start_time": 6.9522727,
                "end_time": 7.3340909,
                "pitch": 74,
                "velocity": 101,
                "duration": 0.3818182,
                "tempo": 120.0
            },
            {
                "start_time": 3.7727273,
                "end_time": 7.8522727,
                "pitch": 72,
                "velocity": 101,
                "duration": 4.0795455,
                "tempo": 120.0
            },
            {
                "start_time": 7.4159091,
                "end_time": 7.8522727,
                "pitch": 72,
                "velocity": 101,
                "duration": 0.4363636,
                "tempo": 120.0
            },
            {
                "start_time": 6.9522727,
                "end_time": 8.3863636,
                "pitch": 76,
                "velocity": 101,
                "duration": 1.4340909,
                "tempo": 120.0
            },
            {
                "start_time": 7.9409091,
                "end_time": 8.3863636,
                "pitch": 76,
                "velocity": 101,
                "duration": 0.4454545,
                "tempo": 120.0
            },
            {
                "start_time": 8.4772727,
                "end_time": 8.9227273,
                "pitch": 79,
                "velocity": 101,
                "duration": 0.4454545,
                "tempo": 120.0
            },
            {
                "start_time": 9.0113636,
                "end_time": 9.4613636,
                "pitch": 83,
                "velocity": 101,
                "duration": 0.45,
                "tempo": 120.0
            },
            {
                "start_time": 7.4159091,
                "end_time": 9.6909091,
                "pitch": 74,
                "velocity": 101,
                "duration": 2.275,
                "tempo": 120.0
            },
            {
                "start_time": 9.5545455,
                "end_time": 9.6909091,
                "pitch": 74,
                "velocity": 101,
                "duration": 0.1363636,
                "tempo": 120.0
            },
            {
                "start_time": 9.7386364,
                "end_time": 9.8772727,
                "pitch": 84,
                "velocity": 101,
                "duration": 0.1386364,
                "tempo": 120.0
            },
            {
                "start_time": 9.9227273,
                "end_time": 10.0613636,
                "pitch": 88,
                "velocity": 101,
                "duration": 0.1386364,
                "tempo": 120.0
            },
            {
                "start_time": 10.1068182,
                "end_time": 10.2454545,
                "pitch": 91,
                "velocity": 101,
                "duration": 0.1386364,
                "tempo": 120.0
            },
            {
                "start_time": 0.0477273,
                "end_time": 10.2909091,
                "pitch": 0,
                "velocity": 101,
                "duration": 10.2431818,
                "tempo": 120.0
            },
            {
                "start_time": 10.2909091,
                "end_time": 11.2113636,
                "pitch": 98,
                "velocity": 101,
                "duration": 0.9204545,
                "tempo": 120.0
            }
        ]
    }
}