{
    "mood": "relaxed",
    "instruments": {
        "Acoustic Grand Piano": [
            {
                "start_time": 29.2909091,
                "end_time": 29.4386364,
                "pitch": 70,
                "velocity": 64,
                "duration": 0.1477273,
                "tempo": 120.0
            },
            {
                "start_time": 29.4863636,
                "end_time": 29.8,
                "pitch": 72,
                "velocity": 64,
                "duration": 0.3136364,
                "tempo": 120.0
            },
            {
                "start_time": 30.4863636,
                "end_time": 30.8022727,
                "pitch": 69,
                "velocity": 64,
                "duration": 0.3159091,
                "tempo": 120.0
            },
            {
                "start_time": 30.8863636,
                "end_time": 31.0363636,
                "pitch": 70,
                "velocity": 64,
                "duration": 0.15,
                "tempo": 120.0
            },
            {
                "start_time": 31.0886364,
                "end_time": 31.4045455,
                "pitch": 72,
                "velocity": 64,
                "duration": 0.3159091,
                "tempo": 120.0
            },
            {
                "start_time": 32.0886364,
                "end_time": 32.4068182,
                "pitch": 74,
                "velocity": 64,
                "duration": 0.3181818,
                "tempo": 120.0
            },
            {
                "start_time": 32.4909091,
                "end_time": 32.8113636,
                "pitch": 76,
                "velocity": 64,
                "duration": 0.3204545,
                "tempo": 120.0
            },
            {
                "start_time": 32.8931818,
                "end_time": 33.2113636,
                "pitch": 77,
                "velocity": 64,
                "duration": 0.3181818,
                "tempo": 120.0
            },
            {
                "start_time": 33.2931818,
                "end_time": 33.4431818,
                "pitch": 79,
                "velocity": 64,
                "duration": 0.15,
                "tempo": 120.0
            },
            {
                "start_time": 33.4931818,
                "end_time": 33.8090909,
                "pitch": 81,
                "velocity": 64,
                "duration": 0.3159091,
                "tempo": 120.0
            },
            {
                "start_time": 33.8909091,
                "end_time": 34.2022727,
                "pitch": 79,
                "velocity": 64,
                "duration": 0.3113636,
                "tempo": 120.0
            },
            {
                "start_time": 34.2863636,
                "end_time": 34.4363636,
                "pitch": 77,
                "velocity": 64,
                "duration": 0.15,
                "tempo": 120.0
            },
            {
                "start_time": 34.4863636,
                "end_time": 34.8204545,
                "pitch": 76,
                "velocity": 64,
                "duration": 0.3340909,
                "tempo": 120.0
            },
            {
                "start_time": 34.9090909,
                "end_time": 35.2181818,
                "pitch": 74,
                "velocity": 64,
                "duration": 0.3090909,
                "tempo": 120.0
            },
            {
                "start_time": 35.3,
                "end_time": 35.6181818,
                "pitch": 69,
                "velocity": 64,
                "duration": 0.3181818,
                "tempo": 120.0
            },
            {
                "start_time": 35.7,
                "end_time": 35.85,
                "pitch": 70,
                "velocity": 64,
                "duration": 0.15,
                "tempo": 120.0
            },
            {
                "start_time": 35.9,
                "end_time": 36.2181818,
                "pitch": 72,
                "velocity": 64,
                "duration": 0.3181818,
                "tempo": 120.0
            },
            {
                "start_time": 36.9022727,
                "end_time": 37.2204545,
                "pitch": 69,
                "velocity": 64,
                "duration": 0.3181818,
                "tempo": 120.0
            },
            {
                "start_time": 37.3022727,
                "end_time": 37.4522727,
                "pitch": 70,
                "velocity": 64,
                "duration": 0.15,
                "tempo": 120.0
            },
            {
                "start_time": 37.5022727,
                "end_time": 37.8204545,
                "pitch": 72,
                "velocity": 64,
                "duration": 0.3181818,
                "tempo": 120.0
            },
            {
                "start_time": 38.5022727,
                "end_time": 38.8227273,
                "pitch": 74,
                "velocity": 64,
                "duration": 0.3204545,
                "tempo": 120.0
            },
            {
                "start_time": 38.9068182,
                "end_time": 39.2227273,
                "pitch": 76,
                "velocity": 64,
                "duration": 0.3159091,
                "tempo": 120.0
            },
            {
                "start_time": 39.3068182,
                "end_time": 39.6318182,
                "pitch": 77,
                "velocity": 64,
                "duration": 0.325,
                "tempo": 120.0
            },
            {
                "start_time": 39.7159091,
                "end_time": 39.8636364,
                "pitch": 79,
                "velocity": 64,
                "duration": 0.1477273,
                "tempo": 120.0
            },
            {
                "start_time": 39.9136364,
                "end_time": 40.2227273,
                "pitch": 81,
                "velocity": 64,
                "duration": 0.3090909,
                "tempo": 120.0
            },
            {
                "start_time": 40.3045455,
                "end_time": 40.6181818,
                "pitch": 79,
                "velocity": 64,
                "duration": 0.3136364,
                "tempo": 120.0
            },
            {
                "start_time": 40.7,
                "end_time": 40.85,
                "pitch": 77,
                "velocity": 64,
                "duration": 0.15,
                "tempo": 120.0
            },
            {
                "start_time": 40.9022727,
                "end_time": 41.2272727,
                "pitch": 81,
                "velocity": 64,
                "duration": 0.325,
                "tempo": 120.0
            },
            {
                "start_time": 41.3113636,
                "end_time": 41.6295455,
                "pitch": 79,
                "velocity": 64,
                "duration": 0.3181818,
                "tempo": 120.0
            },
            {
                "start_time": 41.7295455,
                "end_time": 42.0363636,
                "pitch": 82,
                "velocity": 64,
                "duration": 0.3068182,
                "tempo": 120.0
            },
            {
                "start_time": 42.3181818,
                "end_time": 42.4659091,
                "pitch": 81,
                "velocity": 64,
                "duration": 0.1477273,
                "tempo": 120.0
            },
            {
                "start_time": 42.5159091,
                "end_time": 43.1545455,
                "pitch": 81,
                "velocity": 64,
                "duration": 0.6386364,
                "tempo": 120.0
            },
            {
                "start_time": 43.3181818,
                "end_time": 43.6431818,
                "pitch": 79,
                "velocity": 64,
                "duration": 0.325,
                "tempo": 120.0
            },
            {
                "start_time": 43.925,
                "end_time": 44.0704545,
                "pitch": 77,
                "velocity": 64,
                "duration": 0.1454545,
                "tempo": 120.0
            },
            {
                "start_time": 44.1204545,
                "end_time": 44.7590909,
                "pitch": 77,
                "velocity": 64,
                "duration": 0.6386364,
                "tempo": 120.0
            },
            {
                "start_time": 44.9227273,
                "end_time": 45.2477273,
                "pitch": 82,
                "velocity": 64,
                "duration": 0.325,
                "tempo": 120.0
            },
            {
                "start_time": 45.5295455,
                "end_time": 45.6772727,
                "pitch": 84,
                "velocity": 64,
                "duration": 0.1477273,
                "tempo": 120.0
            },
            {
                "start_time": 45.725,
                "end_time": 46.3636364,
                "pitch": 84,
                "velocity": 64,
                "duration": 0.6386364,
                "tempo": 120.0
            },
            {
                "start_time": 48.15,
                "end_time": 48.45,
                "pitch": 82,
                "velocity": 64,
                "duration": 0.3,
                "tempo": 120.0
            },
            {
                "start_time": 48.7340909,
                "end_time": 48.8863636,
                "pitch": 81,
                "velocity": 64,
                "duration": 0.1522727,
                "tempo": 120.0
            },
            {
                "start_time": 48.9363636,
                "end_time": 49.575,
                "pitch": 81,
                "velocity": 64,
                "duration": 0.6386364,
                "tempo": 120.0
            },
            {
                "start_time": 49.7386364,
                "end_time": 50.0636364,
                "pitch": 79,
                "velocity": 64,
                "duration": 0.325,
                "tempo": 120.0
            },
            {
                "start_time": 50.3454545,
                "end_time": 50.4931818,
                "pitch": 77,
                "velocity": 64,
                "duration": 0.1477273,
                "tempo": 120.0
            },
            {
                "start_time": 50.5409091,
                "end_time": 51.1818182,
                "pitch": 77,
                "velocity": 64,
                "duration": 0.6409091,
                "tempo": 120.0
            },
            {
                "start_time": 51.3454545,
                "end_time": 51.6704545,
                "pitch": 82,
                "velocity": 64,
                "duration": 0.325,
                "tempo": 120.0
            },
            {
                "start_time": 51.95,
                "end_time": 52.0977273,
                "pitch": 84,
                "velocity": 64,
                "duration": 0.1477273,
                "tempo": 120.0
            },
            {
                "start_time": 52.1477273,
                "end_time": 52.7863636,
                "pitch": 84,
                "velocity": 64,
                "duration": 0.6386364,
                "tempo": 120.0
            },
            {
                "start_time": 54.5659091,
                "end_time": 55.1886364,
                "pitch": 74,
                "velocity": 64,
                "duration": 0.6227273,
                "tempo": 120.0
            },
            {
                "start_time": 55.7522727,
                "end_time": 56.0772727,
                "pitch": 74,
                "velocity": 64,
                "duration": 0.325,
                "tempo": 120.0
            },
            {
                "start_time": 56.1636364,
                "end_time": 56.4795455,
                "pitch": 76,
                "velocity": 64,
                "duration": 0.3159091,
                "tempo": 120.0
            },
            {
                "start_time": 56.7636364,
                "end_time": 57.0772727,
                "pitch": 72,
                "velocity": 64,
                "duration": 0.3136364,
                "tempo": 120.0
            },
            {
                "start_time": 57.3568182,
                "end_time": 57.6818182,
                "pitch": 76,
                "velocity": 64,
                "duration": 0.325,
                "tempo": 120.0
            },
            {
                "start_time": 57.7659091,
                "end_time": 57.9181818,
                "pitch": 81,
                "velocity": 64,
                "duration": 0.1522727,
                "tempo": 120.0
            },
            {
                "start_time": 57.9681818,
                "end_time": 58.1181818,
                "pitch": 79,
                "velocity": 64,
                "duration": 0.15,
                "tempo": 120.0
            },
            {
                "start_time": 58.1681818,
                "end_time": 58.3181818,
                "pitch": 77,
                "velocity": 64,
                "duration": 0.15,
                "tempo": 120.0
            },
            {
                "start_time": 58.3681818,
                "end_time": 58.5181818,
                "pitch": 79,
                "velocity": 64,
                "duration": 0.15,
                "tempo": 120.0
            },
            {
                "start_time": 58.5681818,
                "end_time": 58.7159091,
                "pitch": 77,
                "velocity": 64,
                "duration": 0.1477273,
                "tempo": 120.0
            },
            {
                "start_time": 58.7659091,
                "end_time": 58.9113636,
                "pitch": 76,
                "velocity": 64,
                "duration": 0.1454545,
                "tempo": 120.0
            },
            {
                "start_time": 58.9613636,
                "end_time": 59.1159091,
                "pitch": 77,
                "velocity": 64,
                "duration": 0.1545455,
                "tempo": 120.0
            },
            {
                "start_time": 59.1659091,
                "end_time": 59.3204545,
                "pitch": 76,
                "velocity": 64,
                "duration": 0.1545455,
                "tempo": 120.0
            },
            {
                "start_time": 59.3727273,
                "end_time": 60.0068182,
                "pitch": 74,
                "velocity": 64,
                "duration": 0.6340909,
                "tempo": 120.0
            },
            {
                "start_time": 60.9772727,
                "end_time": 61.1272727,
                "pitch": 70,
                "velocity": 64,
                "duration": 0.15,
                "tempo": 120.0
            },
            {
                "start_time": 61.1772727,
                "end_time": 61.3272727,
                "pitch": 72,
                "velocity": 64,
                "duration": 0.15,
                "tempo": 120.0
            },
            {
                "start_time": 61.3772727,
                "end_time": 61.5272727,
                "pitch": 74,
                "velocity": 64,
                "duration": 0.15,
                "tempo": 120.0
            },
            {
                "start_time": 61.5772727,
                "end_time": 61.7272727,
                "pitch": 76,
                "velocity": 64,
                "duration": 0.15,
                "tempo": 120.0
            },
            {
                "start_time": 61.7772727,
                "end_time": 61.925,
                "pitch": 77,
                "velocity": 64,
                "duration": 0.1477273,
                "tempo": 120.0
            },
            {
                "start_time": 61.9727273,
                "end_time": 62.1204545,
                "pitch": 76,
                "velocity": 64,
                "duration": 0.1477273,
                "tempo": 120.0
            },
            {
                "start_time": 62.1704545,
                "end_time": 62.3227273,
                "pitch": 74,
                "velocity": 64,
                "duration": 0.1522727,
                "tempo": 120.0
            },
            {
                "start_time": 62.375,
                "end_time": 62.5295455,
                "pitch": 76,
                "velocity": 64,
                "duration": 0.1545455,
                "tempo": 120.0
            },
            {
                "start_time": 62.5795455,
                "end_time": 62.7295455,
                "pitch": 81,
                "velocity": 64,
                "duration": 0.15,
                "tempo": 120.0
            },
            {
                "start_time": 62.7795455,
                "end_time": 62.9295455,
                "pitch": 79,
                "velocity": 64,
                "duration": 0.15,
                "tempo": 120.0
            },
            {
                "start_time": 62.9795455,
                "end_time": 63.1295455,
                "pitch": 77,
                "velocity": 64,
                "duration": 0.15,
                "tempo": 120.0
            },
            {
                "start_time": 63.1795455,
                "end_time": 63.3295455,
                "pitch": 79,
                "velocity": 64,
                "duration": 0.15,
                "tempo": 120.0
            },
            {
                "start_time": 63.3795455,
                "end_time": 63.5272727,
                "pitch": 77,
                "velocity": 64,
                "duration": 0.1477273,
                "tempo": 120.0
            },
            {
                "start_time": 63.5772727,
                "end_time": 63.7227273,
                "pitch": 76,
                "velocity": 64,
                "duration": 0.1454545,
                "tempo": 120.0
            },
            {
                "start_time": 63.7727273,
                "end_time": 63.9272727,
                "pitch": 74,
                "velocity": 64,
                "duration": 0.1545455,
                "tempo": 120.0
            },
            {
                "start_time": 63.9772727,
                "end_time": 64.1318182,
                "pitch": 76,
                "velocity": 64,
                "duration": 0.1545455,
                "tempo": 120.0
            },
            {
                "start_time": 64.1840909,
                "end_time": 64.3340909,
                "pitch": 74,
                "velocity": 64,
                "duration": 0.15,
                "tempo": 120.0
            },
            {
                "start_time": 64.3840909,
                "end_time": 64.5340909,
                "pitch": 76,
                "velocity": 64,
                "duration": 0.15,
                "tempo": 120.0
            },
            {
                "start_time": 64.5840909,
                "end_time": 64.7340909,
                "pitch": 77,
                "velocity": 64,
                "duration": 0.15,
                "tempo": 120.0
            },
            {
                "start_time": 64.7840909,
                "end_time": 64.9340909,
                "pitch": 79,
                "velocity": 64,
                "duration": 0.15,
                "tempo": 120.0
            },
            {
                "start_time": 64.9840909,
                "end_time": 65.2931818,
                "pitch": 81,
                "velocity": 64,
                "duration": 0.3090909,
                "tempo": 120.0
            },
            {
                "start_time": 65.375,
                "end_time": 65.6954545,
                "pitch": 82,
                "velocity": 64,
                "duration": 0.3204545,
                "tempo": 120.0
            },
            {
                "start_time": 65.7772727,
                "end_time": 66.4136364,
                "pitch": 84,
                "velocity": 64,
                "duration": 0.6363636,
                "tempo": 120.0
            },
            {
                "start_time": 66.5818182,
                "end_time": 67.2159091,
                "pitch": 81,
                "velocity": 64,
                "duration": 0.6340909,
                "tempo": 120.0
            },
            {
                "start_time": 67.3840909,
                "end_time": 68.6568182,
                "pitch": 77,
                "velocity": 64,
                "duration": 1.2727273,
                "tempo": 120.0
            },
            {
                "start_time": 71.0068182,
                "end_time": 71.3181818,
                "pitch": 82,
                "velocity": 64,
                "duration": 0.3113636,
                "tempo": 120.0
            },
            {
                "start_time": 71.4,
                "end_time": 71.7181818,
                "pitch": 81,
                "velocity": 64,
                "duration": 0.3181818,
                "tempo": 120.0
            },
            {
                "start_time": 71.8022727,
                "end_time": 72.1272727,
                "pitch": 79,
                "velocity": 64,
                "duration": 0.325,
                "tempo": 120.0
            },
            {
                "start_time": 72.2136364,
                "end_time": 72.525,
                "pitch": 77,
                "velocity": 64,
                "duration": 0.3113636,
                "tempo": 120.0
            },
            {
                "start_time": 72.6045455,
                "end_time": 72.9295455,
                "pitch": 76,
                "velocity": 64,
                "duration": 0.325,
                "tempo": 120.0
            },
            {
                "start_time": 73.0159091,
                "end_time": 73.1636364,
                "pitch": 74,
                "velocity": 64,
                "duration": 0.1477273,
                "tempo": 120.0
            },
            {
                "start_time": 73.2113636,
                "end_time": 73.525,
                "pitch": 76,
                "velocity": 64,
                "duration": 0.3136364,
                "tempo": 120.0
            },
            {
                "start_time": 73.6090909,
                "end_time": 73.9272727,
                "pitch": 77,
                "velocity": 64,
                "duration": 0.3181818,
                "tempo": 120.0
            },
            {
                "start_time": 77.425,
                "end_time": 77.7431818,
                "pitch": 74,
                "velocity": 64,
                "duration": 0.3181818,
                "tempo": 120.0
            },
            {
                "start_time": 77.8272727,
                "end_time": 77.9772727,
                "pitch": 82,
                "velocity": 64,
                "duration": 0.15,
                "tempo": 120.0
            },
            {
                "start_time": 78.0272727,
                "end_time": 78.3477273,
                "pitch": 81,
                "velocity": 64,
                "duration": 0.3204545,
                "tempo": 120.0
            },
            {
                "start_time": 78.4318182,
                "end_time": 78.7522727,
                "pitch": 79,
                "velocity": 64,
                "duration": 0.3204545,
                "tempo": 120.0
            },
            {
                "start_time": 79.0295455,
                "end_time": 79.3477273,
                "pitch": 77,
                "velocity": 64,
                "duration": 0.3181818,
                "tempo": 120.0
            },
            {
                "start_time": 79.4318182,
                "end_time": 79.5840909,
                "pitch": 76,
                "velocity": 64,
                "duration": 0.1522727,
                "tempo": 120.0
            },
            {
                "start_time": 79.6340909,
                "end_time": 79.9545455,
                "pitch": 77,
                "velocity": 64,
                "duration": 0.3204545,
                "tempo": 120.0
            },
            {
                "start_time": 80.0409091,
                "end_time": 80.3636364,
                "pitch": 84,
                "velocity": 64,
                "duration": 0.3227273,
                "tempo": 120.0
            },
            {
                "start_time": 83.8522727,
                "end_time": 84.1681818,
                "pitch": 74,
                "velocity": 64,
                "duration": 0.3159091,
                "tempo": 120.0
            },
            {
                "start_time": 84.2522727,
                "end_time": 84.5704545,
                "pitch": 76,
                "velocity": 64,
                "duration": 0.3181818,
                "tempo": 120.0
            },
            {
                "start_time": 84.6545455,
                "end_time": 84.9704545,
                "pitch": 77,
                "velocity": 64,
                "duration": 0.3159091,
                "tempo": 120.0
            },
            {
                "start_time": 85.0545455,
                "end_time": 85.3727273,
                "pitch": 79,
                "velocity": 64,
                "duration": 0.3181818,
                "tempo": 120.0
            },
            {
                "start_time": 85.4568182,
                "end_time": 85.7818182,
                "pitch": 77,
                "velocity": 64,
                "duration": 0.325,
                "tempo": 120.0
            },
            {
                "start_time": 85.8681818,
                "end_time": 86.0159091,
                "pitch": 76,
                "velocity": 64,
                "duration": 0.1477273,
                "tempo": 120.0
            },
            {
                "start_time": 86.0636364,
                "end_time": 86.3772727,
                "pitch": 77,
                "velocity": 64,
                "duration": 0.3136364,
                "tempo": 120.0
            },
            {
                "start_time": 86.6636364,
                "end_time": 86.9795455,
                "pitch": 81,
                "velocity": 64,
                "duration": 0.3159091,
                "tempo": 120.0
            },
            {
                "start_time": 87.2636364,
                "end_time": 87.5840909,
                "pitch": 82,
                "velocity": 64,
                "duration": 0.3204545,
                "tempo": 120.0
            },
            {
                "start_time": 87.8681818,
                "end_time": 88.1840909,
                "pitch": 81,
                "velocity": 64,
                "duration": 0.3159091,
                "tempo": 120.0
            },
            {
                "start_time": 88.2681818,
                "end_time": 88.5863636,
                "pitch": 79,
                "velocity": 64,
                "duration": 0.3181818,
                "tempo": 120.0
            },
            {
                "start_time": 88.8704545,
                "end_time": 89.1886364,
                "pitch": 77,
                "velocity": 64,
                "duration": 0.3181818,
                "tempo": 120.0
            },
            {
                "start_time": 90.2772727,
                "end_time": 90.5954545,
                "pitch": 86,
                "velocity": 64,
                "duration": 0.3181818,
                "tempo": 120.0
            },
            {
                "start_time": 90.6795455,
                "end_time": 90.9954545,
                "pitch": 84,
                "velocity": 64,
                "duration": 0.3159091,
                "tempo": 120.0
            },
            {
                "start_time": 91.0795455,
                "end_time": 91.3977273,
                "pitch": 82,
                "velocity": 64,
                "duration": 0.3181818,
                "tempo": 120.0
            },
            {
                "start_time": 91.4818182,
                "end_time": 91.8,
                "pitch": 81,
                "velocity": 64,
                "duration": 0.3181818,
                "tempo": 120.0
            },
            {
                "start_time": 91.8840909,
                "end_time": 92.2,
                "pitch": 79,
                "velocity": 64,
                "duration": 0.3159091,
                "tempo": 120.0
            },
            {
                "start_time": 92.2840909,
                "end_time": 92.4363636,
                "pitch": 81,
                "velocity": 64,
                "duration": 0.1522727,
                "tempo": 120.0
            },
            {
                "start_time": 92.4863636,
                "end_time": 92.8045455,
                "pitch": 82,
                "velocity": 64,
                "duration": 0.3181818,
                "tempo": 120.0
            },
            {
                "start_time": 93.8909091,
                "end_time": 94.0431818,
                "pitch": 79,
                "velocity": 64,
                "duration": 0.1522727,
                "tempo": 120.0
            },
            {
                "start_time": 94.0954545,
                "end_time": 94.25,
                "pitch": 81,
                "velocity": 64,
                "duration": 0.1545455,
                "tempo": 120.0
            },
            {
                "start_time": 94.3,
                "end_time": 94.4477273,
                "pitch": 82,
                "velocity": 64,
                "duration": 0.1477273,
                "tempo": 120.0
            },
            {
                "start_time": 94.4954545,
                "end_time": 94.6431818,
                "pitch": 84,
                "velocity": 64,
                "duration": 0.1477273,
                "tempo": 120.0
            },
            {
                "start_time": 96.9045455,
                "end_time": 97.0522727,
                "pitch": 81,
                "velocity": 64,
                "duration": 0.1477273,
                "tempo": 120.0
            },
            {
                "start_time": 97.1,
                "end_time": 97.7409091,
                "pitch": 81,
                "velocity": 64,
                "duration": 0.6409091,
                "tempo": 120.0
            },
            {
                "start_time": 97.9022727,
                "end_time": 98.2272727,
                "pitch": 79,
                "velocity": 64,
                "duration": 0.325,
                "tempo": 120.0
            },
            {
                "start_time": 98.5090909,
                "end_time": 98.6568182,
                "pitch": 77,
                "velocity": 64,
                "duration": 0.1477273,
                "tempo": 120.0
            },
            {
                "start_time": 98.7068182,
                "end_time": 99.3454545,
                "pitch": 77,
                "velocity": 64,
                "duration": 0.6386364,
                "tempo": 120.0
            },
            {
                "start_time": 99.5090909,
                "end_time": 99.8340909,
                "pitch": 82,
                "velocity": 64,
                "duration": 0.325,
                "tempo": 120.0
            },
            {
                "start_time": 100.1159091,
                "end_time": 100.2613636,
                "pitch": 84,
                "velocity": 64,
                "duration": 0.1454545,
                "tempo": 120.0
            },
            {
                "start_time": 100.3113636,
                "end_time": 100.95,
                "pitch": 84,
                "velocity": 64,
                "duration": 0.6386364,
                "tempo": 120.0
            },
            {
                "start_time": 102.7386364,
                "end_time": 103.0477273,
                "pitch": 82,
                "velocity": 64,
                "duration": 0.3090909,
                "tempo": 120.0
            },
            {
                "start_time": 103.3295455,
                "end_time": 103.475,
                "pitch": 81,
                "velocity": 64,
                "duration": 0.1454545,
                "tempo": 120.0
            },
            {
                "start_time": 103.525,
                "end_time": 104.1636364,
                "pitch": 81,
                "velocity": 64,
                "duration": 0.6386364,
                "tempo": 120.0
            },
            {
                "start_time": 104.3272727,
                "end_time": 104.6522727,
                "pitch": 79,
                "velocity": 64,
                "duration": 0.325,
                "tempo": 120.0
            },
            {
                "start_time": 104.9340909,
                "end_time": 105.0818182,
                "pitch": 77,
                "velocity": 64,
                "duration": 0.1477273,
                "tempo": 120.0
            },
            {
                "start_time": 105.1295455,
                "end_time": 105.7681818,
                "pitch": 77,
                "velocity": 64,
                "duration": 0.6386364,
                "tempo": 120.0
            },
            {
                "start_time": 105.9363636,
                "end_time": 106.2522727,
                "pitch": 82,
                "velocity": 64,
                "duration": 0.3159091,
                "tempo": 120.0
            },
            {
                "start_time": 106.5363636,
                "end_time": 106.6886364,
                "pitch": 84,
                "velocity": 64,
                "duration": 0.1522727,
                "tempo": 120.0
            },
            {
                "start_time": 106.7386364,
                "end_time": 107.3772727,
                "pitch": 84,
                "velocity": 64,
                "duration": 0.6386364,
                "tempo": 120.0
            },
            {
                "start_time": 109.1636364,
                "end_time": 109.7863636,
                "pitch": 74,
                "velocity": 64,
                "duration": 0.6227273,
                "tempo": 120.0
            },
            {
                "start_time": 110.35,
                "end_time": 110.6681818,
                "pitch": 74,
                "velocity": 64,
                "duration": 0.3181818,
                "tempo": 120.0
            },
            {
                "start_time": 110.7522727,
                "end_time": 111.0772727,
                "pitch": 76,
                "velocity": 64,
                "duration": 0.325,
                "tempo": 120.0
            },
            {
                "start_time": 111.3590909,
                "end_time": 111.6727273,
                "pitch": 72,
                "velocity": 64,
                "duration": 0.3136364,
                "tempo": 120.0
            },
            {
                "start_time": 111.9568182,
                "end_time": 112.2818182,
                "pitch": 76,
                "velocity": 64,
                "duration": 0.325,
                "tempo": 120.0
            },
            {
                "start_time": 112.3681818,
                "end_time": 112.5181818,
                "pitch": 81,
                "velocity": 64,
                "duration": 0.15,
                "tempo": 120.0
            },
            {
                "start_time": 112.5681818,
                "end_time": 112.7181818,
                "pitch": 79,
                "velocity": 64,
                "duration": 0.15,
                "tempo": 120.0
            },
            {
                "start_time": 112.7681818,
                "end_time": 112.9159091,
                "pitch": 77,
                "velocity": 64,
                "duration": 0.1477273,
                "tempo": 120.0
            },
            {
                "start_time": 112.9636364,
                "end_time": 113.1113636,
                "pitch": 79,
                "velocity": 64,
                "duration": 0.1477273,
                "tempo": 120.0
            },
            {
                "start_time": 113.1613636,
                "end_time": 113.3113636,
                "pitch": 77,
                "velocity": 64,
                "duration": 0.15,
                "tempo": 120.0
            },
            {
                "start_time": 113.3613636,
                "end_time": 113.5136364,
                "pitch": 76,
                "velocity": 64,
                "duration": 0.1522727,
                "tempo": 120.0
            },
            {
                "start_time": 113.5636364,
                "end_time": 113.7181818,
                "pitch": 77,
                "velocity": 64,
                "duration": 0.1545455,
                "tempo": 120.0
            },
            {
                "start_time": 113.7681818,
                "end_time": 113.9227273,
                "pitch": 76,
                "velocity": 64,
                "duration": 0.1545455,
                "tempo": 120.0
            },
            {
                "start_time": 113.975,
                "end_time": 114.6068182,
                "pitch": 74,
                "velocity": 64,
                "duration": 0.6318182,
                "tempo": 120.0
            },
            {
                "start_time": 115.5795455,
                "end_time": 115.7272727,
                "pitch": 70,
                "velocity": 64,
                "duration": 0.1477273,
                "tempo": 120.0
            },
            {
                "start_time": 115.775,
                "end_time": 115.9227273,
                "pitch": 72,
                "velocity": 64,
                "duration": 0.1477273,
                "tempo": 120.0
            },
            {
                "start_time": 115.9727273,
                "end_time": 116.125,
                "pitch": 74,
                "velocity": 64,
                "duration": 0.1522727,
                "tempo": 120.0
            },
            {
                "start_time": 116.1772727,
                "end_time": 116.3318182,
                "pitch": 76,
                "velocity": 64,
                "duration": 0.1545455,
                "tempo": 120.0
            },
            {
                "start_time": 116.3818182,
                "end_time": 116.5295455,
                "pitch": 77,
                "velocity": 64,
                "duration": 0.1477273,
                "tempo": 120.0
            },
            {
                "start_time": 116.5795455,
                "end_time": 116.725,
                "pitch": 76,
                "velocity": 64,
                "duration": 0.1454545,
                "tempo": 120.0
            },
            {
                "start_time": 116.775,
                "end_time": 116.9295455,
                "pitch": 74,
                "velocity": 64,
                "duration": 0.1545455,
                "tempo": 120.0
            },
            {
                "start_time": 116.9795455,
                "end_time": 117.1340909,
                "pitch": 76,
                "velocity": 64,
                "duration": 0.1545455,
                "tempo": 120.0
            },
            {
                "start_time": 117.1863636,
                "end_time": 117.3363636,
                "pitch": 81,
                "velocity": 64,
                "duration": 0.15,
                "tempo": 120.0
            },
            {
                "start_time": 117.3863636,
                "end_time": 117.5386364,
                "pitch": 79,
                "velocity": 64,
                "duration": 0.1522727,
                "tempo": 120.0
            },
            {
                "start_time": 117.5886364,
                "end_time": 117.7386364,
                "pitch": 77,
                "velocity": 64,
                "duration": 0.15,
                "tempo": 120.0
            },
            {
                "start_time": 117.7886364,
                "end_time": 117.9386364,
                "pitch": 79,
                "velocity": 64,
                "duration": 0.15,
                "tempo": 120.0
            },
            {
                "start_time": 117.9886364,
                "end_time": 118.1363636,
                "pitch": 77,
                "velocity": 64,
                "duration": 0.1477273,
                "tempo": 120.0
            },
            {
                "start_time": 118.1840909,
                "end_time": 118.3318182,
                "pitch": 76,
                "velocity": 64,
                "duration": 0.1477273,
                "tempo": 120.0
            },
            {
                "start_time": 118.3795455,
                "end_time": 118.5340909,
                "pitch": 74,
                "velocity": 64,
                "duration": 0.1545455,
                "tempo": 120.0
            },
            {
                "start_time": 118.5863636,
                "end_time": 118.7386364,
                "pitch": 76,
                "velocity": 64,
                "duration": 0.1522727,
                "tempo": 120.0
            },
            {
                "start_time": 118.7909091,
                "end_time": 118.9431818,
                "pitch": 74,
                "velocity": 64,
                "duration": 0.1522727,
                "tempo": 120.0
            },
            {
                "start_time": 118.9931818,
                "end_time": 119.1431818,
                "pitch": 76,
                "velocity": 64,
                "duration": 0.15,
                "tempo": 120.0
            },
            {
                "start_time": 119.1931818,
                "end_time": 119.3454545,
                "pitch": 77,
                "velocity": 64,
                "duration": 0.1522727,
                "tempo": 120.0
            },
            {
                "start_time": 119.3954545,
                "end_time": 119.5454545,
                "pitch": 79,
                "velocity": 64,
                "duration": 0.15,
                "tempo": 120.0
            },
            {
                "start_time": 119.5954545,
                "end_time": 119.9068182,
                "pitch": 81,
                "velocity": 64,
                "duration": 0.3113636,
                "tempo": 120.0
            },
            {
                "start_time": 119.9886364,
                "end_time": 120.3045455,
                "pitch": 82,
                "velocity": 64,
                "duration": 0.3159091,
                "tempo": 120.0
            },
            {
                "start_time": 120.3886364,
                "end_time": 121.025,
                "pitch": 84,
                "velocity": 64,
                "duration": 0.6363636,
                "tempo": 120.0
            },
            {
                "start_time": 121.1909091,
                "end_time": 121.8340909,
                "pitch": 81,
                "velocity": 64,
                "duration": 0.6431818,
                "tempo": 120.0
            },
            {
                "start_time": 122.0045455,
                "end_time": 123.2613636,
                "pitch": 77,
                "velocity": 64,
                "duration": 1.2568182,
                "tempo": 120.0
            }
        ],
        "Trumpet": [
            {
                "start_time": 123.1931818,
                "end_time": 123.3454545,
                "pitch": 70,
                "velocity": 51,
                "duration": 0.1522727,
                "tempo": 120.0
            },
            {
                "start_time": 123.3977273,
                "end_time": 123.5522727,
                "pitch": 70,
                "velocity": 51,
                "duration": 0.1545455,
                "tempo": 120.0
            },
            {
                "start_time": 123.6022727,
                "end_time": 124.2431818,
                "pitch": 70,
                "velocity": 51,
                "duration": 0.6409091,
                "tempo": 120.0
            },
            {
                "start_time": 124.8090909,
                "end_time": 124.9590909,
                "pitch": 70,
                "velocity": 51,
                "duration": 0.15,
                "tempo": 120.0
            },
            {
                "start_time": 125.0090909,
                "end_time": 125.1590909,
                "pitch": 70,
                "velocity": 51,
                "duration": 0.15,
                "tempo": 120.0
            },
            {
                "start_time": 125.2090909,
                "end_time": 126.4818182,
                "pitch": 69,
                "velocity": 51,
                "duration": 1.2727273,
                "tempo": 120.0
            }
        ],
        "Church Organ": [
            {
                "start_time": 71.4,
                "end_time": 71.7181818,
                "pitch": 74,
                "velocity": 32,
                "duration": 0.3181818,
                "tempo": 120.0
            },
            {
                "start_time": 71.8022727,
                "end_time": 71.9568182,
                "pitch": 74,
                "velocity": 25,
                "duration": 0.1545455,
                "tempo": 120.0
            },
            {
                "start_time": 72.0090909,
                "end_time": 73.2772727,
                "pitch": 72,
                "velocity": 40,
                "duration": 1.2681818,
                "tempo": 120.0
            },
            {
                "start_time": 73.8113636,
                "end_time": 76.3704545,
                "pitch": 72,
                "velocity": 40,
                "duration": 2.5590909,
                "tempo": 120.0
            },
            {
                "start_time": 77.0227273,
                "end_time": 77.6590909,
                "pitch": 74,
                "velocity": 40,
                "duration": 0.6363636,
                "tempo": 120.0
            },
            {
                "start_time": 77.8272727,
                "end_time": 78.1431818,
                "pitch": 74,
                "velocity": 32,
                "duration": 0.3159091,
                "tempo": 120.0
            },
            {
                "start_time": 78.2272727,
                "end_time": 78.3818182,
                "pitch": 74,
                "velocity": 25,
                "duration": 0.1545455,
                "tempo": 120.0
            },
            {
                "start_time": 78.4318182,
                "end_time": 79.7,
                "pitch": 72,
                "velocity": 40,
                "duration": 1.2681818,
                "tempo": 120.0
            },
            {
                "start_time": 80.2454545,
                "end_time": 82.7954545,
                "pitch": 72,
                "velocity": 40,
                "duration": 2.55,
                "tempo": 120.0
            },
            {
                "start_time": 83.45,
                "end_time": 84.0863636,
                "pitch": 74,
                "velocity": 40,
                "duration": 0.6363636,
                "tempo": 120.0
            },
            {
                "start_time": 84.2522727,
                "end_time": 84.5704545,
                "pitch": 74,
                "velocity": 32,
                "duration": 0.3181818,
                "tempo": 120.0
            },
            {
                "start_time": 84.6545455,
                "end_time": 84.8045455,
                "pitch": 74,
                "velocity": 25,
                "duration": 0.15,
                "tempo": 120.0
            },
            {
                "start_time": 84.8545455,
                "end_time": 86.1295455,
                "pitch": 72,
                "velocity": 40,
                "duration": 1.275,
                "tempo": 120.0
            },
            {
                "start_time": 86.6636364,
                "end_time": 87.9340909,
                "pitch": 72,
                "velocity": 40,
                "duration": 1.2704545,
                "tempo": 120.0
            },
            {
                "start_time": 88.2681818,
                "end_time": 89.5409091,
                "pitch": 72,
                "velocity": 40,
                "duration": 1.2727273,
                "tempo": 120.0
            },
            {
                "start_time": 89.8772727,
                "end_time": 92.4363636,
                "pitch": 77,
                "velocity": 40,
                "duration": 2.5590909,
                "tempo": 120.0
            }
        ],
        "Electric Guitar (clean)": [
            {
                "start_time": 0.0,
                "end_time": 0.3,
                "pitch": 41,
                "velocity": 64,
                "duration": 0.3,
                "tempo": 120.0
            },
            {
                "start_time": 5.7931818,
                "end_time": 5.9431818,
                "pitch": 36,
                "velocity": 64,
                "duration": 0.15,
                "tempo": 120.0
            },
            {
                "start_time": 5.9954545,
                "end_time": 6.1454545,
                "pitch": 38,
                "velocity": 64,
                "duration": 0.15,
                "tempo": 120.0
            },
            {
                "start_time": 6.1954545,
                "end_time": 6.3477273,
                "pitch": 40,
                "velocity": 64,
                "duration": 0.1522727,
                "tempo": 120.0
            },
            {
                "start_time": 6.3977273,
                "end_time": 6.5522727,
                "pitch": 41,
                "velocity": 64,
                "duration": 0.1545455,
                "tempo": 120.0
            },
            {
                "start_time": 6.6022727,
                "end_time": 6.7568182,
                "pitch": 41,
                "velocity": 64,
                "duration": 0.1545455,
                "tempo": 120.0
            },
            {
                "start_time": 6.8068182,
                "end_time": 6.9545455,
                "pitch": 41,
                "velocity": 64,
                "duration": 0.1477273,
                "tempo": 120.0
            },
            {
                "start_time": 7.0045455,
                "end_time": 7.15,
                "pitch": 41,
                "velocity": 64,
                "duration": 0.1454545,
                "tempo": 120.0
            },
            {
                "start_time": 7.2,
                "end_time": 7.35,
                "pitch": 41,
                "velocity": 64,
                "duration": 0.15,
                "tempo": 120.0
            },
            {
                "start_time": 7.4,
                "end_time": 7.55,
                "pitch": 41,
                "velocity": 64,
                "duration": 0.15,
                "tempo": 120.0
            },
            {
                "start_time": 7.6,
                "end_time": 7.75,
                "pitch": 41,
                "velocity": 64,
                "duration": 0.15,
                "tempo": 120.0
            },
            {
                "start_time": 7.8022727,
                "end_time": 7.9522727,
                "pitch": 41,
                "velocity": 64,
                "duration": 0.15,
                "tempo": 120.0
            },
            {
                "start_time": 8.0022727,
                "end_time": 8.1568182,
                "pitch": 41,
                "velocity": 64,
                "duration": 0.1545455,
                "tempo": 120.0
            },
            {
                "start_time": 8.2090909,
                "end_time": 8.3613636,
                "pitch": 41,
                "velocity": 64,
                "duration": 0.1522727,
                "tempo": 120.0
            },
            {
                "start_time": 8.4136364,
                "end_time": 8.5613636,
                "pitch": 41,
                "velocity": 64,
                "duration": 0.1477273,
                "tempo": 120.0
            },
            {
                "start_time": 8.6090909,
                "end_time": 8.7568182,
                "pitch": 41,
                "velocity": 64,
                "duration": 0.1477273,
                "tempo": 120.0
            },
            {
                "start_time": 8.8045455,
                "end_time": 8.9590909,
                "pitch": 41,
                "velocity": 64,
                "duration": 0.1545455,
                "tempo": 120.0
            },
            {
                "start_time": 9.0113636,
                "end_time": 9.1659091,
                "pitch": 41,
                "velocity": 64,
                "duration": 0.1545455,
                "tempo": 120.0
            },
            {
                "start_time": 9.2159091,
                "end_time": 9.3636364,
                "pitch": 40,
                "velocity": 64,
                "duration": 0.1477273,
                "tempo": 120.0
            },
            {
                "start_time": 9.4113636,
                "end_time": 9.5590909,
                "pitch": 38,
                "velocity": 64,
                "duration": 0.1477273,
                "tempo": 120.0
            },
            {
                "start_time": 9.6090909,
                "end_time": 9.7613636,
                "pitch": 34,
                "velocity": 64,
                "duration": 0.1522727,
                "tempo": 120.0
            },
            {
                "start_time": 9.8136364,
                "end_time": 9.9681818,
                "pitch": 34,
                "velocity": 64,
                "duration": 0.1545455,
                "tempo": 120.0
            },
            {
                "start_time": 10.0181818,
                "end_time": 10.1659091,
                "pitch": 34,
                "velocity": 64,
                "duration": 0.1477273,
                "tempo": 120.0
            },
            {
                "start_time": 10.2159091,
                "end_time": 10.3613636,
                "pitch": 35,
                "velocity": 64,
                "duration": 0.1454545,
                "tempo": 120.0
            },
            {
                "start_time": 10.4113636,
                "end_time": 10.5636364,
                "pitch": 36,
                "velocity": 64,
                "duration": 0.1522727,
                "tempo": 120.0
            },
            {
                "start_time": 10.6159091,
                "end_time": 10.7704545,
                "pitch": 36,
                "velocity": 64,
                "duration": 0.1545455,
                "tempo": 120.0
            },
            {
                "start_time": 10.8204545,
                "end_time": 10.9681818,
                "pitch": 36,
                "velocity": 64,
                "duration": 0.1477273,
                "tempo": 120.0
            },
            {
                "start_time": 11.0181818,
                "end_time": 11.1636364,
                "pitch": 36,
                "velocity": 64,
                "duration": 0.1454545,
                "tempo": 120.0
            },
            {
                "start_time": 11.2136364,
                "end_time": 11.3636364,
                "pitch": 36,
                "velocity": 64,
                "duration": 0.15,
                "tempo": 120.0
            },
            {
                "start_time": 11.4159091,
                "end_time": 11.5659091,
                "pitch": 36,
                "velocity": 64,
                "duration": 0.15,
                "tempo": 120.0
            },
            {
                "start_time": 11.6159091,
                "end_time": 11.7681818,
                "pitch": 36,
                "velocity": 64,
                "duration": 0.1522727,
                "tempo": 120.0
            },
            {
                "start_time": 11.8181818,
                "end_time": 11.9681818,
                "pitch": 36,
                "velocity": 64,
                "duration": 0.15,
                "tempo": 120.0
            },
            {
                "start_time": 12.0181818,
                "end_time": 12.1727273,
                "pitch": 36,
                "velocity": 64,
                "duration": 0.1545455,
                "tempo": 120.0
            },
            {
                "start_time": 12.225,
                "end_time": 12.3795455,
                "pitch": 36,
                "velocity": 64,
                "duration": 0.1545455,
                "tempo": 120.0
            },
            {
                "start_time": 12.4295455,
                "end_time": 12.5772727,
                "pitch": 38,
                "velocity": 64,
                "duration": 0.1477273,
                "tempo": 120.0
            },
            {
                "start_time": 12.625,
                "end_time": 12.7727273,
                "pitch": 40,
                "velocity": 64,
                "duration": 0.1477273,
                "tempo": 120.0
            },
            {
                "start_time": 12.8386364,
                "end_time": 13.4568182,
                "pitch": 38,
                "velocity": 64,
                "duration": 0.6181818,
                "tempo": 120.0
            },
            {
                "start_time": 13.625,
                "end_time": 13.775,
                "pitch": 38,
                "velocity": 64,
                "duration": 0.15,
                "tempo": 120.0
            },
            {
                "start_time": 13.825,
                "end_time": 13.9772727,
                "pitch": 29,
                "velocity": 64,
                "duration": 0.1522727,
                "tempo": 120.0
            },
            {
                "start_time": 14.0272727,
                "end_time": 14.1818182,
                "pitch": 34,
                "velocity": 64,
                "duration": 0.1545455,
                "tempo": 120.0
            },
            {
                "start_time": 14.2318182,
                "end_time": 14.3863636,
                "pitch": 38,
                "velocity": 64,
                "duration": 0.1545455,
                "tempo": 120.0
            },
            {
                "start_time": 14.4386364,
                "end_time": 14.7568182,
                "pitch": 40,
                "velocity": 64,
                "duration": 0.3181818,
                "tempo": 120.0
            },
            {
                "start_time": 15.0363636,
                "end_time": 15.35,
                "pitch": 36,
                "velocity": 64,
                "duration": 0.3136364,
                "tempo": 120.0
            },
            {
                "start_time": 15.6363636,
                "end_time": 15.9613636,
                "pitch": 31,
                "velocity": 64,
                "duration": 0.325,
                "tempo": 120.0
            },
            {
                "start_time": 16.0454545,
                "end_time": 16.6772727,
                "pitch": 40,
                "velocity": 64,
                "duration": 0.6318182,
                "tempo": 120.0
            },
            {
                "start_time": 17.0431818,
                "end_time": 17.1931818,
                "pitch": 33,
                "velocity": 64,
                "duration": 0.15,
                "tempo": 120.0
            },
            {
                "start_time": 17.2431818,
                "end_time": 17.3977273,
                "pitch": 36,
                "velocity": 64,
                "duration": 0.1545455,
                "tempo": 120.0
            },
            {
                "start_time": 17.45,
                "end_time": 17.6045455,
                "pitch": 40,
                "velocity": 64,
                "duration": 0.1545455,
                "tempo": 120.0
            },
            {
                "start_time": 17.6545455,
                "end_time": 17.9727273,
                "pitch": 43,
                "velocity": 64,
                "duration": 0.3181818,
                "tempo": 120.0
            },
            {
                "start_time": 18.2545455,
                "end_time": 18.5704545,
                "pitch": 41,
                "velocity": 64,
                "duration": 0.3159091,
                "tempo": 120.0
            },
            {
                "start_time": 18.8477273,
                "end_time": 19.1727273,
                "pitch": 40,
                "velocity": 64,
                "duration": 0.325,
                "tempo": 120.0
            },
            {
                "start_time": 19.2590909,
                "end_time": 19.8931818,
                "pitch": 46,
                "velocity": 64,
                "duration": 0.6340909,
                "tempo": 120.0
            },
            {
                "start_time": 20.0613636,
                "end_time": 20.3704545,
                "pitch": 38,
                "velocity": 64,
                "duration": 0.3090909,
                "tempo": 120.0
            },
            {
                "start_time": 20.4522727,
                "end_time": 20.6068182,
                "pitch": 45,
                "velocity": 64,
                "duration": 0.1545455,
                "tempo": 120.0
            },
            {
                "start_time": 20.6590909,
                "end_time": 20.8113636,
                "pitch": 43,
                "velocity": 64,
                "duration": 0.1522727,
                "tempo": 120.0
            },
            {
                "start_time": 20.8636364,
                "end_time": 21.1795455,
                "pitch": 41,
                "velocity": 64,
                "duration": 0.3159091,
                "tempo": 120.0
            },
            {
                "start_time": 21.2636364,
                "end_time": 21.5818182,
                "pitch": 41,
                "velocity": 64,
                "duration": 0.3181818,
                "tempo": 120.0
            },
            {
                "start_time": 21.6659091,
                "end_time": 21.9772727,
                "pitch": 40,
                "velocity": 64,
                "duration": 0.3113636,
                "tempo": 120.0
            },
            {
                "start_time": 22.0590909,
                "end_time": 22.3840909,
                "pitch": 40,
                "velocity": 64,
                "duration": 0.325,
                "tempo": 120.0
            },
            {
                "start_time": 22.4681818,
                "end_time": 22.7886364,
                "pitch": 41,
                "velocity": 64,
                "duration": 0.3204545,
                "tempo": 120.0
            },
            {
                "start_time": 22.8727273,
                "end_time": 23.1886364,
                "pitch": 38,
                "velocity": 64,
                "duration": 0.3159091,
                "tempo": 120.0
            },
            {
                "start_time": 23.2727273,
                "end_time": 23.5818182,
                "pitch": 34,
                "velocity": 64,
                "duration": 0.3090909,
                "tempo": 120.0
            },
            {
                "start_time": 23.6636364,
                "end_time": 23.8136364,
                "pitch": 38,
                "velocity": 64,
                "duration": 0.15,
                "tempo": 120.0
            },
            {
                "start_time": 23.8636364,
                "end_time": 24.0136364,
                "pitch": 41,
                "velocity": 64,
                "duration": 0.15,
                "tempo": 120.0
            },
            {
                "start_time": 24.0636364,
                "end_time": 24.3818182,
                "pitch": 44,
                "velocity": 64,
                "duration": 0.3181818,
                "tempo": 120.0
            },
            {
                "start_time": 24.4659091,
                "end_time": 24.7840909,
                "pitch": 46,
                "velocity": 64,
                "duration": 0.3181818,
                "tempo": 120.0
            },
            {
                "start_time": 24.8659091,
                "end_time": 25.0181818,
                "pitch": 48,
                "velocity": 64,
                "duration": 0.1522727,
                "tempo": 120.0
            },
            {
                "start_time": 25.0681818,
                "end_time": 25.3840909,
                "pitch": 45,
                "velocity": 64,
                "duration": 0.3159091,
                "tempo": 120.0
            },
            {
                "start_time": 25.6613636,
                "end_time": 25.9863636,
                "pitch": 41,
                "velocity": 64,
                "duration": 0.325,
                "tempo": 120.0
            },
            {
                "start_time": 26.0727273,
                "end_time": 26.2227273,
                "pitch": 41,
                "velocity": 64,
                "duration": 0.15,
                "tempo": 120.0
            },
            {
                "start_time": 26.2727273,
                "end_time": 26.425,
                "pitch": 41,
                "velocity": 64,
                "duration": 0.1522727,
                "tempo": 120.0
            },
            {
                "start_time": 26.475,
                "end_time": 26.7909091,
                "pitch": 41,
                "velocity": 64,
                "duration": 0.3159091,
                "tempo": 120.0
            },
            {
                "start_time": 26.875,
                "end_time": 27.025,
                "pitch": 41,
                "velocity": 64,
                "duration": 0.15,
                "tempo": 120.0
            },
            {
                "start_time": 27.0772727,
                "end_time": 27.2272727,
                "pitch": 41,
                "velocity": 64,
                "duration": 0.15,
                "tempo": 120.0
            },
            {
                "start_time": 27.4772727,
                "end_time": 27.6272727,
                "pitch": 41,
                "velocity": 64,
                "duration": 0.15,
                "tempo": 120.0
            },
            {
                "start_time": 27.8772727,
                "end_time": 28.0272727,
                "pitch": 41,
                "velocity": 64,
                "duration": 0.15,
                "tempo": 120.0
            },
            {
                "start_time": 28.0772727,
                "end_time": 28.4022727,
                "pitch": 38,
                "velocity": 64,
                "duration": 0.325,
                "tempo": 120.0
            },
            {
                "start_time": 28.4886364,
                "end_time": 28.8068182,
                "pitch": 36,
                "velocity": 64,
                "duration": 0.3181818,
                "tempo": 120.0
            },
            {
                "start_time": 28.9090909,
                "end_time": 29.0409091,
                "pitch": 33,
                "velocity": 64,
                "duration": 0.1318182,
                "tempo": 120.0
            },
            {
                "start_time": 29.0909091,
                "end_time": 29.2409091,
                "pitch": 33,
                "velocity": 64,
                "duration": 0.15,
                "tempo": 120.0
            },
            {
                "start_time": 29.2909091,
                "end_time": 29.4386364,
                "pitch": 34,
                "velocity": 64,
                "duration": 0.1477273,
                "tempo": 120.0
            },
            {
                "start_time": 29.4863636,
                "end_time": 29.8,
                "pitch": 36,
                "velocity": 64,
                "duration": 0.3136364,
                "tempo": 120.0
            },
            {
                "start_time": 29.8840909,
                "end_time": 30.0340909,
                "pitch": 36,
                "velocity": 64,
                "duration": 0.15,
                "tempo": 120.0
            },
            {
                "start_time": 30.0840909,
                "end_time": 30.2340909,
                "pitch": 33,
                "velocity": 64,
                "duration": 0.15,
                "tempo": 120.0
            },
            {
                "start_time": 30.2840909,
                "end_time": 30.4363636,
                "pitch": 36,
                "velocity": 64,
                "duration": 0.1522727,
                "tempo": 120.0
            },
            {
                "start_time": 30.4863636,
                "end_time": 30.6363636,
                "pitch": 33,
                "velocity": 64,
                "duration": 0.15,
                "tempo": 120.0
            },
            {
                "start_time": 30.6863636,
                "end_time": 30.8363636,
                "pitch": 33,
                "velocity": 64,
                "duration": 0.15,
                "tempo": 120.0
            },
            {
                "start_time": 30.8863636,
                "end_time": 31.0363636,
                "pitch": 34,
                "velocity": 64,
                "duration": 0.15,
                "tempo": 120.0
            },
            {
                "start_time": 31.0886364,
                "end_time": 31.4045455,
                "pitch": 36,
                "velocity": 64,
                "duration": 0.3159091,
                "tempo": 120.0
            },
            {
                "start_time": 31.4886364,
                "end_time": 31.6386364,
                "pitch": 36,
                "velocity": 64,
                "duration": 0.15,
                "tempo": 120.0
            },
            {
                "start_time": 31.6886364,
                "end_time": 31.8386364,
                "pitch": 33,
                "velocity": 64,
                "duration": 0.15,
                "tempo": 120.0
            },
            {
                "start_time": 31.8886364,
                "end_time": 32.0386364,
                "pitch": 36,
                "velocity": 64,
                "duration": 0.15,
                "tempo": 120.0
            },
            {
                "start_time": 32.0886364,
                "end_time": 32.4068182,
                "pitch": 38,
                "velocity": 64,
                "duration": 0.3181818,
                "tempo": 120.0
            },
            {
                "start_time": 32.4909091,
                "end_time": 32.8113636,
                "pitch": 38,
                "velocity": 64,
                "duration": 0.3204545,
                "tempo": 120.0
            },
            {
                "start_time": 32.8931818,
                "end_time": 33.2113636,
                "pitch": 34,
                "velocity": 64,
                "duration": 0.3181818,
                "tempo": 120.0
            },
            {
                "start_time": 33.2931818,
                "end_time": 33.4431818,
                "pitch": 38,
                "velocity": 64,
                "duration": 0.15,
                "tempo": 120.0
            },
            {
                "start_time": 33.4931818,
                "end_time": 33.8090909,
                "pitch": 40,
                "velocity": 64,
                "duration": 0.3159091,
                "tempo": 120.0
            },
            {
                "start_time": 33.8909091,
                "end_time": 34.2022727,
                "pitch": 40,
                "velocity": 64,
                "duration": 0.3113636,
                "tempo": 120.0
            },
            {
                "start_time": 34.2863636,
                "end_time": 34.4363636,
                "pitch": 40,
                "velocity": 64,
                "duration": 0.15,
                "tempo": 120.0
            },
            {
                "start_time": 34.4863636,
                "end_time": 34.8204545,
                "pitch": 40,
                "velocity": 64,
                "duration": 0.3340909,
                "tempo": 120.0
            },
            {
                "start_time": 34.9090909,
                "end_time": 35.2181818,
                "pitch": 38,
                "velocity": 64,
                "duration": 0.3090909,
                "tempo": 120.0
            },
            {
                "start_time": 35.3181818,
                "end_time": 35.45,
                "pitch": 33,
                "velocity": 64,
                "duration": 0.1318182,
                "tempo": 120.0
            },
            {
                "start_time": 35.5,
                "end_time": 35.65,
                "pitch": 33,
                "velocity": 64,
                "duration": 0.15,
                "tempo": 120.0
            },
            {
                "start_time": 35.7,
                "end_time": 35.85,
                "pitch": 34,
                "velocity": 64,
                "duration": 0.15,
                "tempo": 120.0
            },
            {
                "start_time": 35.9,
                "end_time": 36.2181818,
                "pitch": 36,
                "velocity": 64,
                "duration": 0.3181818,
                "tempo": 120.0
            },
            {
                "start_time": 36.3,
                "end_time": 36.45,
                "pitch": 36,
                "velocity": 64,
                "duration": 0.15,
                "tempo": 120.0
            },
            {
                "start_time": 36.5,
                "end_time": 36.6522727,
                "pitch": 33,
                "velocity": 64,
                "duration": 0.1522727,
                "tempo": 120.0
            },
            {
                "start_time": 36.7022727,
                "end_time": 36.8522727,
                "pitch": 36,
                "velocity": 64,
                "duration": 0.15,
                "tempo": 120.0
            },
            {
                "start_time": 36.9022727,
                "end_time": 37.0522727,
                "pitch": 33,
                "velocity": 64,
                "duration": 0.15,
                "tempo": 120.0
            },
            {
                "start_time": 37.1022727,
                "end_time": 37.2522727,
                "pitch": 33,
                "velocity": 64,
                "duration": 0.15,
                "tempo": 120.0
            },
            {
                "start_time": 37.3022727,
                "end_time": 37.4522727,
                "pitch": 34,
                "velocity": 64,
                "duration": 0.15,
                "tempo": 120.0
            },
            {
                "start_time": 37.5022727,
                "end_time": 37.8204545,
                "pitch": 36,
                "velocity": 64,
                "duration": 0.3181818,
                "tempo": 120.0
            },
            {
                "start_time": 37.9022727,
                "end_time": 38.0522727,
                "pitch": 36,
                "velocity": 64,
                "duration": 0.15,
                "tempo": 120.0
            },
            {
                "start_time": 38.1022727,
                "end_time": 38.2522727,
                "pitch": 33,
                "velocity": 64,
                "duration": 0.15,
                "tempo": 120.0
            },
            {
                "start_time": 38.3022727,
                "end_time": 38.4522727,
                "pitch": 36,
                "velocity": 64,
                "duration": 0.15,
                "tempo": 120.0
            },
            {
                "start_time": 38.5022727,
                "end_time": 38.8227273,
                "pitch": 38,
                "velocity": 64,
                "duration": 0.3204545,
                "tempo": 120.0
            },
            {
                "start_time": 38.9068182,
                "end_time": 39.2227273,
                "pitch": 38,
                "velocity": 64,
                "duration": 0.3159091,
                "tempo": 120.0
            },
            {
                "start_time": 39.3068182,
                "end_time": 39.6318182,
                "pitch": 34,
                "velocity": 64,
                "duration": 0.325,
                "tempo": 120.0
            },
            {
                "start_time": 39.7159091,
                "end_time": 39.8636364,
                "pitch": 38,
                "velocity": 64,
                "duration": 0.1477273,
                "tempo": 120.0
            },
            {
                "start_time": 39.9136364,
                "end_time": 40.2227273,
                "pitch": 40,
                "velocity": 64,
                "duration": 0.3090909,
                "tempo": 120.0
            },
            {
                "start_time": 40.3045455,
                "end_time": 40.6181818,
                "pitch": 40,
                "velocity": 64,
                "duration": 0.3136364,
                "tempo": 120.0
            },
            {
                "start_time": 40.7,
                "end_time": 40.85,
                "pitch": 40,
                "velocity": 64,
                "duration": 0.15,
                "tempo": 120.0
            },
            {
                "start_time": 40.9022727,
                "end_time": 41.2272727,
                "pitch": 38,
                "velocity": 64,
                "duration": 0.325,
                "tempo": 120.0
            },
            {
                "start_time": 41.3113636,
                "end_time": 41.6295455,
                "pitch": 40,
                "velocity": 64,
                "duration": 0.3181818,
                "tempo": 120.0
            },
            {
                "start_time": 41.7295455,
                "end_time": 41.8659091,
                "pitch": 41,
                "velocity": 64,
                "duration": 0.1363636,
                "tempo": 120.0
            },
            {
                "start_time": 41.9181818,
                "end_time": 42.0704545,
                "pitch": 41,
                "velocity": 64,
                "duration": 0.1522727,
                "tempo": 120.0
            },
            {
                "start_time": 42.1227273,
                "end_time": 42.2704545,
                "pitch": 41,
                "velocity": 64,
                "duration": 0.1477273,
                "tempo": 120.0
            },
            {
                "start_time": 42.3181818,
                "end_time": 42.4659091,
                "pitch": 41,
                "velocity": 64,
                "duration": 0.1477273,
                "tempo": 120.0
            },
            {
                "start_time": 42.5159091,
                "end_time": 42.6681818,
                "pitch": 41,
                "velocity": 64,
                "duration": 0.1522727,
                "tempo": 120.0
            },
            {
                "start_time": 42.7204545,
                "end_time": 42.875,
                "pitch": 41,
                "velocity": 64,
                "duration": 0.1545455,
                "tempo": 120.0
            },
            {
                "start_time": 42.925,
                "end_time": 43.0727273,
                "pitch": 41,
                "velocity": 64,
                "duration": 0.1477273,
                "tempo": 120.0
            },
            {
                "start_time": 43.1204545,
                "end_time": 43.2681818,
                "pitch": 41,
                "velocity": 64,
                "duration": 0.1477273,
                "tempo": 120.0
            },
            {
                "start_time": 43.3181818,
                "end_time": 43.4704545,
                "pitch": 41,
                "velocity": 64,
                "duration": 0.1522727,
                "tempo": 120.0
            },
            {
                "start_time": 43.5227273,
                "end_time": 43.6772727,
                "pitch": 41,
                "velocity": 64,
                "duration": 0.1545455,
                "tempo": 120.0
            },
            {
                "start_time": 43.7272727,
                "end_time": 43.875,
                "pitch": 41,
                "velocity": 64,
                "duration": 0.1477273,
                "tempo": 120.0
            },
            {
                "start_time": 43.925,
                "end_time": 44.0704545,
                "pitch": 41,
                "velocity": 64,
                "duration": 0.1454545,
                "tempo": 120.0
            },
            {
                "start_time": 44.1204545,
                "end_time": 44.275,
                "pitch": 41,
                "velocity": 64,
                "duration": 0.1545455,
                "tempo": 120.0
            },
            {
                "start_time": 44.325,
                "end_time": 44.4795455,
                "pitch": 41,
                "velocity": 64,
                "duration": 0.1545455,
                "tempo": 120.0
            },
            {
                "start_time": 44.5295455,
                "end_time": 44.6772727,
                "pitch": 40,
                "velocity": 64,
                "duration": 0.1477273,
                "tempo": 120.0
            },
            {
                "start_time": 44.7272727,
                "end_time": 44.8727273,
                "pitch": 38,
                "velocity": 64,
                "duration": 0.1454545,
                "tempo": 120.0
            },
            {
                "start_time": 44.9227273,
                "end_time": 45.0772727,
                "pitch": 34,
                "velocity": 64,
                "duration": 0.1545455,
                "tempo": 120.0
            },
            {
                "start_time": 45.1272727,
                "end_time": 45.2818182,
                "pitch": 34,
                "velocity": 64,
                "duration": 0.1545455,
                "tempo": 120.0
            },
            {
                "start_time": 45.3340909,
                "end_time": 45.4795455,
                "pitch": 34,
                "velocity": 64,
                "duration": 0.1454545,
                "tempo": 120.0
            },
            {
                "start_time": 45.5295455,
                "end_time": 45.6772727,
                "pitch": 35,
                "velocity": 64,
                "duration": 0.1477273,
                "tempo": 120.0
            },
            {
                "start_time": 45.725,
                "end_time": 45.8795455,
                "pitch": 36,
                "velocity": 64,
                "duration": 0.1545455,
                "tempo": 120.0
            },
            {
                "start_time": 45.9295455,
                "end_time": 46.0840909,
                "pitch": 36,
                "velocity": 64,
                "duration": 0.1545455,
                "tempo": 120.0
            },
            {
                "start_time": 46.1363636,
                "end_time": 46.2840909,
                "pitch": 36,
                "velocity": 64,
                "duration": 0.1477273,
                "tempo": 120.0
            },
            {
                "start_time": 46.3318182,
                "end_time": 46.4795455,
                "pitch": 36,
                "velocity": 64,
                "duration": 0.1477273,
                "tempo": 120.0
            },
            {
                "start_time": 46.5272727,
                "end_time": 46.6795455,
                "pitch": 36,
                "velocity": 64,
                "duration": 0.1522727,
                "tempo": 120.0
            },
            {
                "start_time": 46.7295455,
                "end_time": 46.8795455,
                "pitch": 36,
                "velocity": 64,
                "duration": 0.15,
                "tempo": 120.0
            },
            {
                "start_time": 46.9318182,
                "end_time": 47.0818182,
                "pitch": 36,
                "velocity": 64,
                "duration": 0.15,
                "tempo": 120.0
            },
            {
                "start_time": 47.1318182,
                "end_time": 47.2818182,
                "pitch": 36,
                "velocity": 64,
                "duration": 0.15,
                "tempo": 120.0
            },
            {
                "start_time": 47.3318182,
                "end_time": 47.4840909,
                "pitch": 36,
                "velocity": 64,
                "duration": 0.1522727,
                "tempo": 120.0
            },
            {
                "start_time": 47.5363636,
                "end_time": 47.6909091,
                "pitch": 36,
                "velocity": 64,
                "duration": 0.1545455,
                "tempo": 120.0
            },
            {
                "start_time": 47.7409091,
                "end_time": 47.8886364,
                "pitch": 38,
                "velocity": 64,
                "duration": 0.1477273,
                "tempo": 120.0
            },
            {
                "start_time": 47.9386364,
                "end_time": 48.0840909,
                "pitch": 40,
                "velocity": 64,
                "duration": 0.1454545,
                "tempo": 120.0
            },
            {
                "start_time": 48.15,
                "end_time": 48.2840909,
                "pitch": 41,
                "velocity": 64,
                "duration": 0.1340909,
                "tempo": 120.0
            },
            {
                "start_time": 48.3340909,
                "end_time": 48.4840909,
                "pitch": 41,
                "velocity": 64,
                "duration": 0.15,
                "tempo": 120.0
            },
            {
                "start_time": 48.5340909,
                "end_time": 48.6840909,
                "pitch": 41,
                "velocity": 64,
                "duration": 0.15,
                "tempo": 120.0
            },
            {
                "start_time": 48.7340909,
                "end_time": 48.8863636,
                "pitch": 41,
                "velocity": 64,
                "duration": 0.1522727,
                "tempo": 120.0
            },
            {
                "start_time": 48.9363636,
                "end_time": 49.0909091,
                "pitch": 41,
                "velocity": 64,
                "duration": 0.1545455,
                "tempo": 120.0
            },
            {
                "start_time": 49.1409091,
                "end_time": 49.2954545,
                "pitch": 41,
                "velocity": 64,
                "duration": 0.1545455,
                "tempo": 120.0
            },
            {
                "start_time": 49.3477273,
                "end_time": 49.4931818,
                "pitch": 41,
                "velocity": 64,
                "duration": 0.1454545,
                "tempo": 120.0
            },
            {
                "start_time": 49.5431818,
                "end_time": 49.6909091,
                "pitch": 41,
                "velocity": 64,
                "duration": 0.1477273,
                "tempo": 120.0
            },
            {
                "start_time": 49.7386364,
                "end_time": 49.8931818,
                "pitch": 41,
                "velocity": 64,
                "duration": 0.1545455,
                "tempo": 120.0
            },
            {
                "start_time": 49.9454545,
                "end_time": 50.0977273,
                "pitch": 41,
                "velocity": 64,
                "duration": 0.1522727,
                "tempo": 120.0
            },
            {
                "start_time": 50.15,
                "end_time": 50.2977273,
                "pitch": 41,
                "velocity": 64,
                "duration": 0.1477273,
                "tempo": 120.0
            },
            {
                "start_time": 50.3454545,
                "end_time": 50.4931818,
                "pitch": 41,
                "velocity": 64,
                "duration": 0.1477273,
                "tempo": 120.0
            },
            {
                "start_time": 50.5409091,
                "end_time": 50.6954545,
                "pitch": 41,
                "velocity": 64,
                "duration": 0.1545455,
                "tempo": 120.0
            },
            {
                "start_time": 50.7477273,
                "end_time": 50.9,
                "pitch": 41,
                "velocity": 64,
                "duration": 0.1522727,
                "tempo": 120.0
            },
            {
                "start_time": 50.9522727,
                "end_time": 51.1,
                "pitch": 40,
                "velocity": 64,
                "duration": 0.1477273,
                "tempo": 120.0
            },
            {
                "start_time": 51.1477273,
                "end_time": 51.2954545,
                "pitch": 38,
                "velocity": 64,
                "duration": 0.1477273,
                "tempo": 120.0
            },
            {
                "start_time": 51.3454545,
                "end_time": 51.4977273,
                "pitch": 34,
                "velocity": 64,
                "duration": 0.1522727,
                "tempo": 120.0
            },
            {
                "start_time": 51.55,
                "end_time": 51.7045455,
                "pitch": 34,
                "velocity": 64,
                "duration": 0.1545455,
                "tempo": 120.0
            },
            {
                "start_time": 51.7545455,
                "end_time": 51.9022727,
                "pitch": 34,
                "velocity": 64,
                "duration": 0.1477273,
                "tempo": 120.0
            },
            {
                "start_time": 51.95,
                "end_time": 52.0977273,
                "pitch": 35,
                "velocity": 64,
                "duration": 0.1477273,
                "tempo": 120.0
            },
            {
                "start_time": 52.1477273,
                "end_time": 52.3,
                "pitch": 36,
                "velocity": 64,
                "duration": 0.1522727,
                "tempo": 120.0
            },
            {
                "start_time": 52.3522727,
                "end_time": 52.5068182,
                "pitch": 36,
                "velocity": 64,
                "duration": 0.1545455,
                "tempo": 120.0
            },
            {
                "start_time": 52.5568182,
                "end_time": 52.7045455,
                "pitch": 36,
                "velocity": 64,
                "duration": 0.1477273,
                "tempo": 120.0
            },
            {
                "start_time": 52.7545455,
                "end_time": 52.9,
                "pitch": 36,
                "velocity": 64,
                "duration": 0.1454545,
                "tempo": 120.0
            },
            {
                "start_time": 52.95,
                "end_time": 53.1,
                "pitch": 36,
                "velocity": 64,
                "duration": 0.15,
                "tempo": 120.0
            },
            {
                "start_time": 53.15,
                "end_time": 53.3,
                "pitch": 36,
                "velocity": 64,
                "duration": 0.15,
                "tempo": 120.0
            },
            {
                "start_time": 53.35,
                "end_time": 53.5,
                "pitch": 36,
                "velocity": 64,
                "duration": 0.15,
                "tempo": 120.0
            },
            {
                "start_time": 53.55,
                "end_time": 53.7,
                "pitch": 36,
                "velocity": 64,
                "duration": 0.15,
                "tempo": 120.0
            },
            {
                "start_time": 53.75,
                "end_time": 53.9,
                "pitch": 36,
                "velocity": 64,
                "duration": 0.15,
                "tempo": 120.0
            },
            {
                "start_time": 53.95,
                "end_time": 54.1,
                "pitch": 36,
                "velocity": 64,
                "duration": 0.15,
                "tempo": 120.0
            },
            {
                "start_time": 54.15,
                "end_time": 54.3,
                "pitch": 38,
                "velocity": 64,
                "duration": 0.15,
                "tempo": 120.0
            },
            {
                "start_time": 54.35,
                "end_time": 54.5,
                "pitch": 36,
                "velocity": 64,
                "duration": 0.15,
                "tempo": 120.0
            },
            {
                "start_time": 54.5659091,
                "end_time": 55.1886364,
                "pitch": 38,
                "velocity": 64,
                "duration": 0.6227273,
                "tempo": 120.0
            },
            {
                "start_time": 55.3522727,
                "end_time": 55.5022727,
                "pitch": 38,
                "velocity": 64,
                "duration": 0.15,
                "tempo": 120.0
            },
            {
                "start_time": 55.5522727,
                "end_time": 55.7022727,
                "pitch": 29,
                "velocity": 64,
                "duration": 0.15,
                "tempo": 120.0
            },
            {
                "start_time": 55.7522727,
                "end_time": 55.9068182,
                "pitch": 34,
                "velocity": 64,
                "duration": 0.1545455,
                "tempo": 120.0
            },
            {
                "start_time": 55.9590909,
                "end_time": 56.1113636,
                "pitch": 38,
                "velocity": 64,
                "duration": 0.1522727,
                "tempo": 120.0
            },
            {
                "start_time": 56.1636364,
                "end_time": 56.4795455,
                "pitch": 40,
                "velocity": 64,
                "duration": 0.3159091,
                "tempo": 120.0
            },
            {
                "start_time": 56.7636364,
                "end_time": 57.0772727,
                "pitch": 36,
                "velocity": 64,
                "duration": 0.3136364,
                "tempo": 120.0
            },
            {
                "start_time": 57.3568182,
                "end_time": 57.6818182,
                "pitch": 31,
                "velocity": 64,
                "duration": 0.325,
                "tempo": 120.0
            },
            {
                "start_time": 57.7659091,
                "end_time": 58.4022727,
                "pitch": 40,
                "velocity": 64,
                "duration": 0.6363636,
                "tempo": 120.0
            },
            {
                "start_time": 58.7659091,
                "end_time": 58.9113636,
                "pitch": 33,
                "velocity": 64,
                "duration": 0.1454545,
                "tempo": 120.0
            },
            {
                "start_time": 58.9613636,
                "end_time": 59.1159091,
                "pitch": 36,
                "velocity": 64,
                "duration": 0.1545455,
                "tempo": 120.0
            },
            {
                "start_time": 59.1659091,
                "end_time": 59.3204545,
                "pitch": 40,
                "velocity": 64,
                "duration": 0.1545455,
                "tempo": 120.0
            },
            {
                "start_time": 59.3727273,
                "end_time": 59.6886364,
                "pitch": 43,
                "velocity": 64,
                "duration": 0.3159091,
                "tempo": 120.0
            },
            {
                "start_time": 59.9727273,
                "end_time": 60.2886364,
                "pitch": 41,
                "velocity": 64,
                "duration": 0.3159091,
                "tempo": 120.0
            },
            {
                "start_time": 60.5659091,
                "end_time": 60.8909091,
                "pitch": 40,
                "velocity": 64,
                "duration": 0.325,
                "tempo": 120.0
            },
            {
                "start_time": 60.9772727,
                "end_time": 61.2954545,
                "pitch": 38,
                "velocity": 64,
                "duration": 0.3181818,
                "tempo": 120.0
            },
            {
                "start_time": 61.5772727,
                "end_time": 61.8909091,
                "pitch": 34,
                "velocity": 64,
                "duration": 0.3136364,
                "tempo": 120.0
            },
            {
                "start_time": 62.1704545,
                "end_time": 62.4954545,
                "pitch": 38,
                "velocity": 64,
                "duration": 0.325,
                "tempo": 120.0
            },
            {
                "start_time": 62.5795455,
                "end_time": 62.8977273,
                "pitch": 40,
                "velocity": 64,
                "duration": 0.3181818,
                "tempo": 120.0
            },
            {
                "start_time": 63.1795455,
                "end_time": 63.4954545,
                "pitch": 36,
                "velocity": 64,
                "duration": 0.3159091,
                "tempo": 120.0
            },
            {
                "start_time": 63.7727273,
                "end_time": 64.0977273,
                "pitch": 40,
                "velocity": 64,
                "duration": 0.325,
                "tempo": 120.0
            },
            {
                "start_time": 64.1840909,
                "end_time": 64.5,
                "pitch": 41,
                "velocity": 64,
                "duration": 0.3159091,
                "tempo": 120.0
            },
            {
                "start_time": 64.5840909,
                "end_time": 64.7340909,
                "pitch": 41,
                "velocity": 64,
                "duration": 0.15,
                "tempo": 120.0
            },
            {
                "start_time": 64.7840909,
                "end_time": 65.0977273,
                "pitch": 41,
                "velocity": 64,
                "duration": 0.3136364,
                "tempo": 120.0
            },
            {
                "start_time": 65.375,
                "end_time": 65.6954545,
                "pitch": 34,
                "velocity": 64,
                "duration": 0.3204545,
                "tempo": 120.0
            },
            {
                "start_time": 65.7772727,
                "end_time": 66.0954545,
                "pitch": 44,
                "velocity": 64,
                "duration": 0.3181818,
                "tempo": 120.0
            },
            {
                "start_time": 66.1795455,
                "end_time": 66.4977273,
                "pitch": 46,
                "velocity": 64,
                "duration": 0.3181818,
                "tempo": 120.0
            },
            {
                "start_time": 66.5818182,
                "end_time": 66.7318182,
                "pitch": 48,
                "velocity": 64,
                "duration": 0.15,
                "tempo": 120.0
            },
            {
                "start_time": 66.7818182,
                "end_time": 67.0977273,
                "pitch": 45,
                "velocity": 64,
                "duration": 0.3159091,
                "tempo": 120.0
            },
            {
                "start_time": 67.3840909,
                "end_time": 67.7022727,
                "pitch": 41,
                "velocity": 64,
                "duration": 0.3181818,
                "tempo": 120.0
            },
            {
                "start_time": 67.9863636,
                "end_time": 68.1363636,
                "pitch": 41,
                "velocity": 64,
                "duration": 0.15,
                "tempo": 120.0
            },
            {
                "start_time": 68.1863636,
                "end_time": 68.5045455,
                "pitch": 41,
                "velocity": 64,
                "duration": 0.3181818,
                "tempo": 120.0
            },
            {
                "start_time": 68.7886364,
                "end_time": 68.9386364,
                "pitch": 41,
                "velocity": 64,
                "duration": 0.15,
                "tempo": 120.0
            },
            {
                "start_time": 69.1909091,
                "end_time": 69.3409091,
                "pitch": 41,
                "velocity": 64,
                "duration": 0.15,
                "tempo": 120.0
            },
            {
                "start_time": 69.5931818,
                "end_time": 69.7431818,
                "pitch": 41,
                "velocity": 64,
                "duration": 0.15,
                "tempo": 120.0
            },
            {
                "start_time": 69.7954545,
                "end_time": 70.1204545,
                "pitch": 41,
                "velocity": 64,
                "duration": 0.325,
                "tempo": 120.0
            },
            {
                "start_time": 70.2045455,
                "end_time": 70.5159091,
                "pitch": 36,
                "velocity": 64,
                "duration": 0.3113636,
                "tempo": 120.0
            },
            {
                "start_time": 70.6136364,
                "end_time": 70.9227273,
                "pitch": 38,
                "velocity": 64,
                "duration": 0.3090909,
                "tempo": 120.0
            },
            {
                "start_time": 71.2045455,
                "end_time": 71.35,
                "pitch": 38,
                "velocity": 64,
                "duration": 0.1454545,
                "tempo": 120.0
            },
            {
                "start_time": 71.4,
                "end_time": 71.7181818,
                "pitch": 38,
                "velocity": 64,
                "duration": 0.3181818,
                "tempo": 120.0
            },
            {
                "start_time": 71.8022727,
                "end_time": 71.9568182,
                "pitch": 34,
                "velocity": 64,
                "duration": 0.1545455,
                "tempo": 120.0
            },
            {
                "start_time": 72.0090909,
                "end_time": 72.1613636,
                "pitch": 40,
                "velocity": 64,
                "duration": 0.1522727,
                "tempo": 120.0
            },
            {
                "start_time": 72.4090909,
                "end_time": 72.5568182,
                "pitch": 40,
                "velocity": 64,
                "duration": 0.1477273,
                "tempo": 120.0
            },
            {
                "start_time": 72.8113636,
                "end_time": 72.9659091,
                "pitch": 40,
                "velocity": 64,
                "duration": 0.1545455,
                "tempo": 120.0
            },
            {
                "start_time": 73.0159091,
                "end_time": 73.3272727,
                "pitch": 38,
                "velocity": 64,
                "duration": 0.3113636,
                "tempo": 120.0
            },
            {
                "start_time": 73.4090909,
                "end_time": 73.7272727,
                "pitch": 40,
                "velocity": 64,
                "duration": 0.3181818,
                "tempo": 120.0
            },
            {
                "start_time": 73.8113636,
                "end_time": 74.1272727,
                "pitch": 41,
                "velocity": 64,
                "duration": 0.3159091,
                "tempo": 120.0
            },
            {
                "start_time": 74.4113636,
                "end_time": 74.5636364,
                "pitch": 41,
                "velocity": 64,
                "duration": 0.1522727,
                "tempo": 120.0
            },
            {
                "start_time": 74.6136364,
                "end_time": 74.9295455,
                "pitch": 41,
                "velocity": 64,
                "duration": 0.3159091,
                "tempo": 120.0
            },
            {
                "start_time": 75.2159091,
                "end_time": 75.3659091,
                "pitch": 41,
                "velocity": 64,
                "duration": 0.15,
                "tempo": 120.0
            },
            {
                "start_time": 75.6181818,
                "end_time": 75.7681818,
                "pitch": 41,
                "velocity": 64,
                "duration": 0.15,
                "tempo": 120.0
            },
            {
                "start_time": 76.0181818,
                "end_time": 76.1681818,
                "pitch": 41,
                "velocity": 64,
                "duration": 0.15,
                "tempo": 120.0
            },
            {
                "start_time": 76.2181818,
                "end_time": 76.5386364,
                "pitch": 41,
                "velocity": 64,
                "duration": 0.3204545,
                "tempo": 120.0
            },
            {
                "start_time": 76.6227273,
                "end_time": 76.9386364,
                "pitch": 36,
                "velocity": 64,
                "duration": 0.3159091,
                "tempo": 120.0
            },
            {
                "start_time": 77.0227273,
                "end_time": 77.3409091,
                "pitch": 38,
                "velocity": 64,
                "duration": 0.3181818,
                "tempo": 120.0
            },
            {
                "start_time": 77.625,
                "end_time": 77.7772727,
                "pitch": 38,
                "velocity": 64,
                "duration": 0.1522727,
                "tempo": 120.0
            },
            {
                "start_time": 77.8272727,
                "end_time": 78.1431818,
                "pitch": 38,
                "velocity": 64,
                "duration": 0.3159091,
                "tempo": 120.0
            },
            {
                "start_time": 78.2272727,
                "end_time": 78.3818182,
                "pitch": 34,
                "velocity": 64,
                "duration": 0.1545455,
                "tempo": 120.0
            },
            {
                "start_time": 78.4318182,
                "end_time": 78.5863636,
                "pitch": 40,
                "velocity": 64,
                "duration": 0.1545455,
                "tempo": 120.0
            },
            {
                "start_time": 78.8340909,
                "end_time": 78.9818182,
                "pitch": 40,
                "velocity": 64,
                "duration": 0.1477273,
                "tempo": 120.0
            },
            {
                "start_time": 79.2318182,
                "end_time": 79.3818182,
                "pitch": 40,
                "velocity": 64,
                "duration": 0.15,
                "tempo": 120.0
            },
            {
                "start_time": 79.4318182,
                "end_time": 79.7522727,
                "pitch": 38,
                "velocity": 64,
                "duration": 0.3204545,
                "tempo": 120.0
            },
            {
                "start_time": 79.8363636,
                "end_time": 80.1613636,
                "pitch": 40,
                "velocity": 64,
                "duration": 0.325,
                "tempo": 120.0
            },
            {
                "start_time": 80.2454545,
                "end_time": 80.5636364,
                "pitch": 41,
                "velocity": 64,
                "duration": 0.3181818,
                "tempo": 120.0
            },
            {
                "start_time": 80.8431818,
                "end_time": 80.9886364,
                "pitch": 41,
                "velocity": 64,
                "duration": 0.1454545,
                "tempo": 120.0
            },
            {
                "start_time": 81.0386364,
                "end_time": 81.3568182,
                "pitch": 41,
                "velocity": 64,
                "duration": 0.3181818,
                "tempo": 120.0
            },
            {
                "start_time": 81.6431818,
                "end_time": 81.7931818,
                "pitch": 41,
                "velocity": 64,
                "duration": 0.15,
                "tempo": 120.0
            },
            {
                "start_time": 82.0431818,
                "end_time": 82.1931818,
                "pitch": 41,
                "velocity": 64,
                "duration": 0.15,
                "tempo": 120.0
            },
            {
                "start_time": 82.4454545,
                "end_time": 82.5954545,
                "pitch": 41,
                "velocity": 64,
                "duration": 0.15,
                "tempo": 120.0
            },
            {
                "start_time": 82.6454545,
                "end_time": 82.9636364,
                "pitch": 41,
                "velocity": 64,
                "duration": 0.3181818,
                "tempo": 120.0
            },
            {
                "start_time": 83.0454545,
                "end_time": 83.3659091,
                "pitch": 40,
                "velocity": 64,
                "duration": 0.3204545,
                "tempo": 120.0
            },
            {
                "start_time": 83.45,
                "end_time": 83.7681818,
                "pitch": 38,
                "velocity": 64,
                "duration": 0.3181818,
                "tempo": 120.0
            },
            {
                "start_time": 84.0522727,
                "end_time": 84.2022727,
                "pitch": 38,
                "velocity": 64,
                "duration": 0.15,
                "tempo": 120.0
            },
            {
                "start_time": 84.2522727,
                "end_time": 84.5704545,
                "pitch": 38,
                "velocity": 64,
                "duration": 0.3181818,
                "tempo": 120.0
            },
            {
                "start_time": 84.6545455,
                "end_time": 84.8045455,
                "pitch": 34,
                "velocity": 64,
                "duration": 0.15,
                "tempo": 120.0
            },
            {
                "start_time": 84.8545455,
                "end_time": 85.0045455,
                "pitch": 40,
                "velocity": 64,
                "duration": 0.15,
                "tempo": 120.0
            },
            {
                "start_time": 85.2568182,
                "end_time": 85.4068182,
                "pitch": 40,
                "velocity": 64,
                "duration": 0.15,
                "tempo": 120.0
            },
            {
                "start_time": 85.6636364,
                "end_time": 85.8159091,
                "pitch": 40,
                "velocity": 64,
                "duration": 0.1522727,
                "tempo": 120.0
            },
            {
                "start_time": 85.8681818,
                "end_time": 86.1795455,
                "pitch": 40,
                "velocity": 64,
                "duration": 0.3113636,
                "tempo": 120.0
            },
            {
                "start_time": 86.2590909,
                "end_time": 86.5795455,
                "pitch": 36,
                "velocity": 64,
                "duration": 0.3204545,
                "tempo": 120.0
            },
            {
                "start_time": 86.6636364,
                "end_time": 86.9795455,
                "pitch": 45,
                "velocity": 64,
                "duration": 0.3159091,
                "tempo": 120.0
            },
            {
                "start_time": 87.2636364,
                "end_time": 87.4159091,
                "pitch": 45,
                "velocity": 64,
                "duration": 0.1522727,
                "tempo": 120.0
            },
            {
                "start_time": 87.4659091,
                "end_time": 87.7840909,
                "pitch": 45,
                "velocity": 64,
                "duration": 0.3181818,
                "tempo": 120.0
            },
            {
                "start_time": 87.8681818,
                "end_time": 88.0181818,
                "pitch": 36,
                "velocity": 64,
                "duration": 0.15,
                "tempo": 120.0
            },
            {
                "start_time": 88.0681818,
                "end_time": 88.2181818,
                "pitch": 41,
                "velocity": 64,
                "duration": 0.15,
                "tempo": 120.0
            },
            {
                "start_time": 88.4704545,
                "end_time": 88.6204545,
                "pitch": 41,
                "velocity": 64,
                "duration": 0.15,
                "tempo": 120.0
            },
            {
                "start_time": 88.8704545,
                "end_time": 89.0204545,
                "pitch": 41,
                "velocity": 64,
                "duration": 0.15,
                "tempo": 120.0
            },
            {
                "start_time": 89.0704545,
                "end_time": 89.3886364,
                "pitch": 41,
                "velocity": 64,
                "duration": 0.3181818,
                "tempo": 120.0
            },
            {
                "start_time": 89.4727273,
                "end_time": 89.7931818,
                "pitch": 36,
                "velocity": 64,
                "duration": 0.3204545,
                "tempo": 120.0
            },
            {
                "start_time": 89.8772727,
                "end_time": 90.1931818,
                "pitch": 46,
                "velocity": 64,
                "duration": 0.3159091,
                "tempo": 120.0
            },
            {
                "start_time": 90.2772727,
                "end_time": 90.5954545,
                "pitch": 45,
                "velocity": 64,
                "duration": 0.3181818,
                "tempo": 120.0
            },
            {
                "start_time": 90.6795455,
                "end_time": 90.9954545,
                "pitch": 43,
                "velocity": 64,
                "duration": 0.3159091,
                "tempo": 120.0
            },
            {
                "start_time": 91.0795455,
                "end_time": 91.3977273,
                "pitch": 46,
                "velocity": 64,
                "duration": 0.3181818,
                "tempo": 120.0
            },
            {
                "start_time": 91.4818182,
                "end_time": 91.8,
                "pitch": 45,
                "velocity": 64,
                "duration": 0.3181818,
                "tempo": 120.0
            },
            {
                "start_time": 91.8840909,
                "end_time": 92.2,
                "pitch": 43,
                "velocity": 64,
                "duration": 0.3159091,
                "tempo": 120.0
            },
            {
                "start_time": 92.2840909,
                "end_time": 92.6022727,
                "pitch": 46,
                "velocity": 64,
                "duration": 0.3181818,
                "tempo": 120.0
            },
            {
                "start_time": 92.6863636,
                "end_time": 93.0045455,
                "pitch": 38,
                "velocity": 64,
                "duration": 0.3181818,
                "tempo": 120.0
            },
            {
                "start_time": 93.0863636,
                "end_time": 93.4113636,
                "pitch": 36,
                "velocity": 64,
                "duration": 0.325,
                "tempo": 120.0
            },
            {
                "start_time": 93.4977273,
                "end_time": 93.8090909,
                "pitch": 36,
                "velocity": 64,
                "duration": 0.3113636,
                "tempo": 120.0
            },
            {
                "start_time": 93.8909091,
                "end_time": 94.0431818,
                "pitch": 36,
                "velocity": 64,
                "duration": 0.1522727,
                "tempo": 120.0
            },
            {
                "start_time": 94.0954545,
                "end_time": 94.25,
                "pitch": 38,
                "velocity": 64,
                "duration": 0.1545455,
                "tempo": 120.0
            },
            {
                "start_time": 94.3,
                "end_time": 94.4477273,
                "pitch": 39,
                "velocity": 64,
                "duration": 0.1477273,
                "tempo": 120.0
            },
            {
                "start_time": 94.4954545,
                "end_time": 94.6431818,
                "pitch": 40,
                "velocity": 64,
                "duration": 0.1477273,
                "tempo": 120.0
            },
            {
                "start_time": 94.6931818,
                "end_time": 95.0090909,
                "pitch": 36,
                "velocity": 64,
                "duration": 0.3159091,
                "tempo": 120.0
            },
            {
                "start_time": 95.0931818,
                "end_time": 95.4113636,
                "pitch": 36,
                "velocity": 64,
                "duration": 0.3181818,
                "tempo": 120.0
            },
            {
                "start_time": 95.4954545,
                "end_time": 95.8136364,
                "pitch": 38,
                "velocity": 64,
                "duration": 0.3181818,
                "tempo": 120.0
            },
            {
                "start_time": 95.8977273,
                "end_time": 96.2136364,
                "pitch": 41,
                "velocity": 64,
                "duration": 0.3159091,
                "tempo": 120.0
            },
            {
                "start_time": 96.3159091,
                "end_time": 96.4522727,
                "pitch": 41,
                "velocity": 64,
                "duration": 0.1363636,
                "tempo": 120.0
            },
            {
                "start_time": 96.5022727,
                "end_time": 96.6568182,
                "pitch": 41,
                "velocity": 64,
                "duration": 0.1545455,
                "tempo": 120.0
            },
            {
                "start_time": 96.7090909,
                "end_time": 96.8545455,
                "pitch": 41,
                "velocity": 64,
                "duration": 0.1454545,
                "tempo": 120.0
            },
            {
                "start_time": 96.9045455,
                "end_time": 97.0522727,
                "pitch": 41,
                "velocity": 64,
                "duration": 0.1477273,
                "tempo": 120.0
            },
            {
                "start_time": 97.1,
                "end_time": 97.2545455,
                "pitch": 41,
                "velocity": 64,
                "duration": 0.1545455,
                "tempo": 120.0
            },
            {
                "start_time": 97.3068182,
                "end_time": 97.4590909,
                "pitch": 41,
                "velocity": 64,
                "duration": 0.1522727,
                "tempo": 120.0
            },
            {
                "start_time": 97.5113636,
                "end_time": 97.6590909,
                "pitch": 41,
                "velocity": 64,
                "duration": 0.1477273,
                "tempo": 120.0
            },
            {
                "start_time": 97.7068182,
                "end_time": 97.8545455,
                "pitch": 41,
                "velocity": 64,
                "duration": 0.1477273,
                "tempo": 120.0
            },
            {
                "start_time": 97.9022727,
                "end_time": 98.0568182,
                "pitch": 41,
                "velocity": 64,
                "duration": 0.1545455,
                "tempo": 120.0
            },
            {
                "start_time": 98.1090909,
                "end_time": 98.2636364,
                "pitch": 41,
                "velocity": 64,
                "duration": 0.1545455,
                "tempo": 120.0
            },
            {
                "start_time": 98.3136364,
                "end_time": 98.4613636,
                "pitch": 41,
                "velocity": 64,
                "duration": 0.1477273,
                "tempo": 120.0
            },
            {
                "start_time": 98.5090909,
                "end_time": 98.6568182,
                "pitch": 41,
                "velocity": 64,
                "duration": 0.1477273,
                "tempo": 120.0
            },
            {
                "start_time": 98.7068182,
                "end_time": 98.8590909,
                "pitch": 41,
                "velocity": 64,
                "duration": 0.1522727,
                "tempo": 120.0
            },
            {
                "start_time": 98.9113636,
                "end_time": 99.0659091,
                "pitch": 41,
                "velocity": 64,
                "duration": 0.1545455,
                "tempo": 120.0
            },
            {
                "start_time": 99.1159091,
                "end_time": 99.2636364,
                "pitch": 40,
                "velocity": 64,
                "duration": 0.1477273,
                "tempo": 120.0
            },
            {
                "start_time": 99.3136364,
                "end_time": 99.4590909,
                "pitch": 38,
                "velocity": 64,
                "duration": 0.1454545,
                "tempo": 120.0
            },
            {
                "start_time": 99.5090909,
                "end_time": 99.6613636,
                "pitch": 34,
                "velocity": 64,
                "duration": 0.1522727,
                "tempo": 120.0
            },
            {
                "start_time": 99.7136364,
                "end_time": 99.8681818,
                "pitch": 34,
                "velocity": 64,
                "duration": 0.1545455,
                "tempo": 120.0
            },
            {
                "start_time": 99.9181818,
                "end_time": 100.0659091,
                "pitch": 34,
                "velocity": 64,
                "duration": 0.1477273,
                "tempo": 120.0
            },
            {
                "start_time": 100.1159091,
                "end_time": 100.2613636,
                "pitch": 35,
                "velocity": 64,
                "duration": 0.1454545,
                "tempo": 120.0
            },
            {
                "start_time": 100.3113636,
                "end_time": 100.4659091,
                "pitch": 36,
                "velocity": 64,
                "duration": 0.1545455,
                "tempo": 120.0
            },
            {
                "start_time": 100.5159091,
                "end_time": 100.6704545,
                "pitch": 36,
                "velocity": 64,
                "duration": 0.1545455,
                "tempo": 120.0
            },
            {
                "start_time": 100.7227273,
                "end_time": 100.8681818,
                "pitch": 36,
                "velocity": 64,
                "duration": 0.1454545,
                "tempo": 120.0
            },
            {
                "start_time": 100.9181818,
                "end_time": 101.0659091,
                "pitch": 36,
                "velocity": 64,
                "duration": 0.1477273,
                "tempo": 120.0
            },
            {
                "start_time": 101.1136364,
                "end_time": 101.2659091,
                "pitch": 36,
                "velocity": 64,
                "duration": 0.1522727,
                "tempo": 120.0
            },
            {
                "start_time": 101.3159091,
                "end_time": 101.4659091,
                "pitch": 36,
                "velocity": 64,
                "duration": 0.15,
                "tempo": 120.0
            },
            {
                "start_time": 101.5159091,
                "end_time": 101.6681818,
                "pitch": 36,
                "velocity": 64,
                "duration": 0.1522727,
                "tempo": 120.0
            },
            {
                "start_time": 101.7181818,
                "end_time": 101.8681818,
                "pitch": 36,
                "velocity": 64,
                "duration": 0.15,
                "tempo": 120.0
            },
            {
                "start_time": 101.9204545,
                "end_time": 102.0704545,
                "pitch": 36,
                "velocity": 64,
                "duration": 0.15,
                "tempo": 120.0
            },
            {
                "start_time": 102.1204545,
                "end_time": 102.2704545,
                "pitch": 36,
                "velocity": 64,
                "duration": 0.15,
                "tempo": 120.0
            },
            {
                "start_time": 102.3204545,
                "end_time": 102.4704545,
                "pitch": 38,
                "velocity": 64,
                "duration": 0.15,
                "tempo": 120.0
            },
            {
                "start_time": 102.5204545,
                "end_time": 102.6727273,
                "pitch": 40,
                "velocity": 64,
                "duration": 0.1522727,
                "tempo": 120.0
            },
            {
                "start_time": 102.7386364,
                "end_time": 102.875,
                "pitch": 41,
                "velocity": 64,
                "duration": 0.1363636,
                "tempo": 120.0
            },
            {
                "start_time": 102.9272727,
                "end_time": 103.0818182,
                "pitch": 41,
                "velocity": 64,
                "duration": 0.1545455,
                "tempo": 120.0
            },
            {
                "start_time": 103.1318182,
                "end_time": 103.2795455,
                "pitch": 41,
                "velocity": 64,
                "duration": 0.1477273,
                "tempo": 120.0
            },
            {
                "start_time": 103.3295455,
                "end_time": 103.475,
                "pitch": 41,
                "velocity": 64,
                "duration": 0.1454545,
                "tempo": 120.0
            },
            {
                "start_time": 103.525,
                "end_time": 103.6795455,
                "pitch": 41,
                "velocity": 64,
                "duration": 0.1545455,
                "tempo": 120.0
            },
            {
                "start_time": 103.7295455,
                "end_time": 103.8840909,
                "pitch": 41,
                "velocity": 64,
                "duration": 0.1545455,
                "tempo": 120.0
            },
            {
                "start_time": 103.9363636,
                "end_time": 104.0818182,
                "pitch": 41,
                "velocity": 64,
                "duration": 0.1454545,
                "tempo": 120.0
            },
            {
                "start_time": 104.1318182,
                "end_time": 104.2795455,
                "pitch": 41,
                "velocity": 64,
                "duration": 0.1477273,
                "tempo": 120.0
            },
            {
                "start_time": 104.3272727,
                "end_time": 104.4818182,
                "pitch": 41,
                "velocity": 64,
                "duration": 0.1545455,
                "tempo": 120.0
            },
            {
                "start_time": 104.5318182,
                "end_time": 104.6863636,
                "pitch": 41,
                "velocity": 64,
                "duration": 0.1545455,
                "tempo": 120.0
            },
            {
                "start_time": 104.7386364,
                "end_time": 104.8840909,
                "pitch": 41,
                "velocity": 64,
                "duration": 0.1454545,
                "tempo": 120.0
            },
            {
                "start_time": 104.9340909,
                "end_time": 105.0818182,
                "pitch": 41,
                "velocity": 64,
                "duration": 0.1477273,
                "tempo": 120.0
            },
            {
                "start_time": 105.1295455,
                "end_time": 105.2818182,
                "pitch": 41,
                "velocity": 64,
                "duration": 0.1522727,
                "tempo": 120.0
            },
            {
                "start_time": 105.3318182,
                "end_time": 105.4818182,
                "pitch": 41,
                "velocity": 64,
                "duration": 0.15,
                "tempo": 120.0
            },
            {
                "start_time": 105.5318182,
                "end_time": 105.6840909,
                "pitch": 40,
                "velocity": 64,
                "duration": 0.1522727,
                "tempo": 120.0
            },
            {
                "start_time": 105.7340909,
                "end_time": 105.8863636,
                "pitch": 38,
                "velocity": 64,
                "duration": 0.1522727,
                "tempo": 120.0
            },
            {
                "start_time": 105.9363636,
                "end_time": 106.0863636,
                "pitch": 34,
                "velocity": 64,
                "duration": 0.15,
                "tempo": 120.0
            },
            {
                "start_time": 106.1363636,
                "end_time": 106.2863636,
                "pitch": 34,
                "velocity": 64,
                "duration": 0.15,
                "tempo": 120.0
            },
            {
                "start_time": 106.3363636,
                "end_time": 106.4863636,
                "pitch": 34,
                "velocity": 64,
                "duration": 0.15,
                "tempo": 120.0
            },
            {
                "start_time": 106.5363636,
                "end_time": 106.6886364,
                "pitch": 35,
                "velocity": 64,
                "duration": 0.1522727,
                "tempo": 120.0
            },
            {
                "start_time": 106.7386364,
                "end_time": 106.8931818,
                "pitch": 36,
                "velocity": 64,
                "duration": 0.1545455,
                "tempo": 120.0
            },
            {
                "start_time": 106.9431818,
                "end_time": 107.0977273,
                "pitch": 36,
                "velocity": 64,
                "duration": 0.1545455,
                "tempo": 120.0
            },
            {
                "start_time": 107.15,
                "end_time": 107.2954545,
                "pitch": 36,
                "velocity": 64,
                "duration": 0.1454545,
                "tempo": 120.0
            },
            {
                "start_time": 107.3454545,
                "end_time": 107.4931818,
                "pitch": 36,
                "velocity": 64,
                "duration": 0.1477273,
                "tempo": 120.0
            },
            {
                "start_time": 107.5409091,
                "end_time": 107.6931818,
                "pitch": 36,
                "velocity": 64,
                "duration": 0.1522727,
                "tempo": 120.0
            },
            {
                "start_time": 107.7431818,
                "end_time": 107.8931818,
                "pitch": 36,
                "velocity": 64,
                "duration": 0.15,
                "tempo": 120.0
            },
            {
                "start_time": 107.9431818,
                "end_time": 108.0931818,
                "pitch": 36,
                "velocity": 64,
                "duration": 0.15,
                "tempo": 120.0
            },
            {
                "start_time": 108.1431818,
                "end_time": 108.2931818,
                "pitch": 36,
                "velocity": 64,
                "duration": 0.15,
                "tempo": 120.0
            },
            {
                "start_time": 108.3431818,
                "end_time": 108.4977273,
                "pitch": 36,
                "velocity": 64,
                "duration": 0.1545455,
                "tempo": 120.0
            },
            {
                "start_time": 108.55,
                "end_time": 108.7022727,
                "pitch": 36,
                "velocity": 64,
                "duration": 0.1522727,
                "tempo": 120.0
            },
            {
                "start_time": 108.7545455,
                "end_time": 108.9022727,
                "pitch": 38,
                "velocity": 64,
                "duration": 0.1477273,
                "tempo": 120.0
            },
            {
                "start_time": 108.95,
                "end_time": 109.0977273,
                "pitch": 36,
                "velocity": 64,
                "duration": 0.1477273,
                "tempo": 120.0
            },
            {
                "start_time": 109.1636364,
                "end_time": 109.7863636,
                "pitch": 38,
                "velocity": 64,
                "duration": 0.6227273,
                "tempo": 120.0
            },
            {
                "start_time": 109.95,
                "end_time": 110.1,
                "pitch": 38,
                "velocity": 64,
                "duration": 0.15,
                "tempo": 120.0
            },
            {
                "start_time": 110.15,
                "end_time": 110.3,
                "pitch": 29,
                "velocity": 64,
                "duration": 0.15,
                "tempo": 120.0
            },
            {
                "start_time": 110.35,
                "end_time": 110.5,
                "pitch": 34,
                "velocity": 64,
                "duration": 0.15,
                "tempo": 120.0
            },
            {
                "start_time": 110.55,
                "end_time": 110.7022727,
                "pitch": 38,
                "velocity": 64,
                "duration": 0.1522727,
                "tempo": 120.0
            },
            {
                "start_time": 110.7522727,
                "end_time": 111.0772727,
                "pitch": 40,
                "velocity": 64,
                "duration": 0.325,
                "tempo": 120.0
            },
            {
                "start_time": 111.3590909,
                "end_time": 111.6727273,
                "pitch": 36,
                "velocity": 64,
                "duration": 0.3136364,
                "tempo": 120.0
            },
            {
                "start_time": 111.9568182,
                "end_time": 112.2818182,
                "pitch": 31,
                "velocity": 64,
                "duration": 0.325,
                "tempo": 120.0
            },
            {
                "start_time": 112.3681818,
                "end_time": 112.9977273,
                "pitch": 40,
                "velocity": 64,
                "duration": 0.6295455,
                "tempo": 120.0
            },
            {
                "start_time": 113.3613636,
                "end_time": 113.5136364,
                "pitch": 33,
                "velocity": 64,
                "duration": 0.1522727,
                "tempo": 120.0
            },
            {
                "start_time": 113.5636364,
                "end_time": 113.7181818,
                "pitch": 36,
                "velocity": 64,
                "duration": 0.1545455,
                "tempo": 120.0
            },
            {
                "start_time": 113.7681818,
                "end_time": 113.9227273,
                "pitch": 40,
                "velocity": 64,
                "duration": 0.1545455,
                "tempo": 120.0
            },
            {
                "start_time": 113.975,
                "end_time": 114.2931818,
                "pitch": 43,
                "velocity": 64,
                "duration": 0.3181818,
                "tempo": 120.0
            },
            {
                "start_time": 114.5727273,
                "end_time": 114.8863636,
                "pitch": 41,
                "velocity": 64,
                "duration": 0.3136364,
                "tempo": 120.0
            },
            {
                "start_time": 115.1704545,
                "end_time": 115.4954545,
                "pitch": 40,
                "velocity": 64,
                "duration": 0.325,
                "tempo": 120.0
            },
            {
                "start_time": 115.5795455,
                "end_time": 115.8909091,
                "pitch": 38,
                "velocity": 64,
                "duration": 0.3113636,
                "tempo": 120.0
            },
            {
                "start_time": 116.1772727,
                "end_time": 116.4977273,
                "pitch": 34,
                "velocity": 64,
                "duration": 0.3204545,
                "tempo": 120.0
            },
            {
                "start_time": 116.775,
                "end_time": 117.1,
                "pitch": 38,
                "velocity": 64,
                "duration": 0.325,
                "tempo": 120.0
            },
            {
                "start_time": 117.1863636,
                "end_time": 117.5045455,
                "pitch": 40,
                "velocity": 64,
                "duration": 0.3181818,
                "tempo": 120.0
            },
            {
                "start_time": 117.7886364,
                "end_time": 118.1022727,
                "pitch": 36,
                "velocity": 64,
                "duration": 0.3136364,
                "tempo": 120.0
            },
            {
                "start_time": 118.3795455,
                "end_time": 118.7045455,
                "pitch": 40,
                "velocity": 64,
                "duration": 0.325,
                "tempo": 120.0
            },
            {
                "start_time": 118.7909091,
                "end_time": 119.1090909,
                "pitch": 41,
                "velocity": 64,
                "duration": 0.3181818,
                "tempo": 120.0
            },
            {
                "start_time": 119.1931818,
                "end_time": 119.3454545,
                "pitch": 41,
                "velocity": 64,
                "duration": 0.1522727,
                "tempo": 120.0
            },
            {
                "start_time": 119.3954545,
                "end_time": 119.7113636,
                "pitch": 41,
                "velocity": 64,
                "duration": 0.3159091,
                "tempo": 120.0
            },
            {
                "start_time": 119.9886364,
                "end_time": 120.3045455,
                "pitch": 34,
                "velocity": 64,
                "duration": 0.3159091,
                "tempo": 120.0
            },
            {
                "start_time": 120.3886364,
                "end_time": 120.7068182,
                "pitch": 44,
                "velocity": 64,
                "duration": 0.3181818,
                "tempo": 120.0
            },
            {
                "start_time": 120.7909091,
                "end_time": 121.1090909,
                "pitch": 37,
                "velocity": 64,
                "duration": 0.3181818,
                "tempo": 120.0
            },
            {
                "start_time": 121.1909091,
                "end_time": 121.5090909,
                "pitch": 43,
                "velocity": 64,
                "duration": 0.3181818,
                "tempo": 120.0
            },
            {
                "start_time": 121.5931818,
                "end_time": 121.9181818,
                "pitch": 36,
                "velocity": 64,
                "duration": 0.325,
                "tempo": 120.0
            },
            {
                "start_time": 122.0045455,
                "end_time": 122.6363636,
                "pitch": 34,
                "velocity": 64,
                "duration": 0.6318182,
                "tempo": 120.0
            },
            {
                "start_time": 122.9954545,
                "end_time": 123.1431818,
                "pitch": 29,
                "velocity": 64,
                "duration": 0.1477273,
                "tempo": 120.0
            },
            {
                "start_time": 123.1931818,
                "end_time": 123.3454545,
                "pitch": 34,
                "velocity": 64,
                "duration": 0.1522727,
                "tempo": 120.0
            },
            {
                "start_time": 123.3977273,
                "end_time": 123.5522727,
                "pitch": 38,
                "velocity": 64,
                "duration": 0.1545455,
                "tempo": 120.0
            },
            {
                "start_time": 123.6022727,
                "end_time": 124.2431818,
                "pitch": 37,
                "velocity": 64,
                "duration": 0.6409091,
                "tempo": 120.0
            },
            {
                "start_time": 124.6068182,
                "end_time": 124.7590909,
                "pitch": 32,
                "velocity": 64,
                "duration": 0.1522727,
                "tempo": 120.0
            },
            {
                "start_time": 124.8090909,
                "end_time": 124.9590909,
                "pitch": 37,
                "velocity": 64,
                "duration": 0.15,
                "tempo": 120.0
            },
            {
                "start_time": 125.0090909,
                "end_time": 125.1590909,
                "pitch": 39,
                "velocity": 64,
                "duration": 0.15,
                "tempo": 120.0
            },
            {
                "start_time": 125.2090909,
                "end_time": 125.5272727,
                "pitch": 29,
                "velocity": 64,
                "duration": 0.3181818,
                "tempo": 120.0
            },
            {
                "start_time": 125.6113636,
                "end_time": 125.9363636,
                "pitch": 29,
                "velocity": 64,
                "duration": 0.325,
                "tempo": 120.0
            },
            {
                "start_time": 126.0227273,
                "end_time": 126.3318182,
                "pitch": 29,
                "velocity": 64,
                "duration": 0.3090909,
                "tempo": 120.0
            },
            {
                "start_time": 126.4136364,
                "end_time": 126.7340909,
                "pitch": 29,
                "velocity": 64,
                "duration": 0.3204545,
                "tempo": 120.0
            },
            {
                "start_time": 126.8159091,
                "end_time": 126.9659091,
                "pitch": 29,
                "velocity": 64,
                "duration": 0.15,
                "tempo": 120.0
            },
            {
                "start_time": 127.0159091,
                "end_time": 127.1659091,
                "pitch": 29,
                "velocity": 64,
                "duration": 0.15,
                "tempo": 120.0
            },
            {
                "start_time": 127.2159091,
                "end_time": 127.3704545,
                "pitch": 29,
                "velocity": 64,
                "duration": 0.1545455,
                "tempo": 120.0
            },
            {
                "start_time": 127.4227273,
                "end_time": 127.5772727,
                "pitch": 29,
                "velocity": 64,
                "duration": 0.1545455,
                "tempo": 120.0
            },
            {
                "start_time": 127.6272727,
                "end_time": 127.9454545,
                "pitch": 29,
                "velocity": 64,
                "duration": 0.3181818,
                "tempo": 120.0
            }
        ],
        "Vibraphone": [
            {
                "start_time": 46.5272727,
                "end_time": 46.8477273,
                "pitch": 84,
                "velocity": 101,
                "duration": 0.3204545,
                "tempo": 120.0
            },
            {
                "start_time": 46.9318182,
                "end_time": 47.2477273,
                "pitch": 82,
                "velocity": 101,
                "duration": 0.3159091,
                "tempo": 120.0
            },
            {
                "start_time": 47.3318182,
                "end_time": 47.6568182,
                "pitch": 81,
                "velocity": 101,
                "duration": 0.325,
                "tempo": 120.0
            },
            {
                "start_time": 47.7409091,
                "end_time": 48.0522727,
                "pitch": 79,
                "velocity": 101,
                "duration": 0.3113636,
                "tempo": 120.0
            },
            {
                "start_time": 48.15,
                "end_time": 52.95,
                "pitch": 77,
                "velocity": 101,
                "duration": 4.8,
                "tempo": 120.0
            },
            {
                "start_time": 52.95,
                "end_time": 53.2659091,
                "pitch": 84,
                "velocity": 101,
                "duration": 0.3159091,
                "tempo": 120.0
            },
            {
                "start_time": 53.35,
                "end_time": 53.6659091,
                "pitch": 82,
                "velocity": 101,
                "duration": 0.3159091,
                "tempo": 120.0
            },
            {
                "start_time": 53.75,
                "end_time": 54.0659091,
                "pitch": 81,
                "velocity": 101,
                "duration": 0.3159091,
                "tempo": 120.0
            },
            {
                "start_time": 54.15,
                "end_time": 54.4659091,
                "pitch": 79,
                "velocity": 101,
                "duration": 0.3159091,
                "tempo": 120.0
            },
            {
                "start_time": 54.5659091,
                "end_time": 101.1136364,
                "pitch": 74,
                "velocity": 101,
                "duration": 46.5477273,
                "tempo": 120.0
            },
            {
                "start_time": 101.1136364,
                "end_time": 101.4318182,
                "pitch": 84,
                "velocity": 101,
                "duration": 0.3181818,
                "tempo": 120.0
            },
            {
                "start_time": 101.5159091,
                "end_time": 101.8363636,
                "pitch": 82,
                "velocity": 101,
                "duration": 0.3204545,
                "tempo": 120.0
            },
            {
                "start_time": 101.9204545,
                "end_time": 102.2363636,
                "pitch": 81,
                "velocity": 101,
                "duration": 0.3159091,
                "tempo": 120.0
            },
            {
                "start_time": 102.3204545,
                "end_time": 102.6386364,
                "pitch": 79,
                "velocity": 101,
                "duration": 0.3181818,
                "tempo": 120.0
            },
            {
                "start_time": 102.7386364,
                "end_time": 107.5409091,
                "pitch": 77,
                "velocity": 101,
                "duration": 4.8022727,
                "tempo": 120.0
            },
            {
                "start_time": 107.5409091,
                "end_time": 107.8590909,
                "pitch": 84,
                "velocity": 101,
                "duration": 0.3181818,
                "tempo": 120.0
            },
            {
                "start_time": 107.9431818,
                "end_time": 108.2613636,
                "pitch": 82,
                "velocity": 101,
                "duration": 0.3181818,
                "tempo": 120.0
            },
            {
                "start_time": 108.3431818,
                "end_time": 108.6681818,
                "pitch": 81,
                "velocity": 101,
                "duration": 0.325,
                "tempo": 120.0
            },
            {
                "start_time": 108.7545455,
                "end_time": 109.0659091,
                "pitch": 79,
                "velocity": 101,
                "duration": 0.3113636,
                "tempo": 120.0
            }
        ],
        "Electric Piano 1": [
            {
                "start_time": 12.8386364,
                "end_time": 13.4568182,
                "pitch": 74,
                "velocity": 32,
                "duration": 0.6181818,
                "tempo": 120.0
            },
            {
                "start_time": 14.2318182,
                "end_time": 14.3863636,
                "pitch": 77,
                "velocity": 32,
                "duration": 0.1545455,
                "tempo": 120.0
            },
            {
                "start_time": 14.4386364,
                "end_time": 15.7045455,
                "pitch": 76,
                "velocity": 32,
                "duration": 1.2659091,
                "tempo": 120.0
            },
            {
                "start_time": 16.0454545,
                "end_time": 16.6772727,
                "pitch": 76,
                "velocity": 32,
                "duration": 0.6318182,
                "tempo": 120.0
            },
            {
                "start_time": 17.45,
                "end_time": 17.6045455,
                "pitch": 79,
                "velocity": 32,
                "duration": 0.1545455,
                "tempo": 120.0
            },
            {
                "start_time": 17.6545455,
                "end_time": 18.9159091,
                "pitch": 77,
                "velocity": 32,
                "duration": 1.2613636,
                "tempo": 120.0
            },
            {
                "start_time": 19.2590909,
                "end_time": 19.8931818,
                "pitch": 74,
                "velocity": 32,
                "duration": 0.6340909,
                "tempo": 120.0
            },
            {
                "start_time": 20.6590909,
                "end_time": 20.8113636,
                "pitch": 77,
                "velocity": 32,
                "duration": 0.1522727,
                "tempo": 120.0
            },
            {
                "start_time": 20.8636364,
                "end_time": 21.4977273,
                "pitch": 76,
                "velocity": 32,
                "duration": 0.6340909,
                "tempo": 120.0
            },
            {
                "start_time": 22.2636364,
                "end_time": 22.4181818,
                "pitch": 79,
                "velocity": 32,
                "duration": 0.1545455,
                "tempo": 120.0
            },
            {
                "start_time": 22.4681818,
                "end_time": 23.7318182,
                "pitch": 77,
                "velocity": 32,
                "duration": 1.2636364,
                "tempo": 120.0
            },
            {
                "start_time": 24.0636364,
                "end_time": 24.7,
                "pitch": 80,
                "velocity": 32,
                "duration": 0.6363636,
                "tempo": 120.0
            },
            {
                "start_time": 24.8659091,
                "end_time": 25.4977273,
                "pitch": 79,
                "velocity": 32,
                "duration": 0.6318182,
                "tempo": 120.0
            },
            {
                "start_time": 25.6613636,
                "end_time": 28.2318182,
                "pitch": 77,
                "velocity": 32,
                "duration": 2.5704545,
                "tempo": 120.0
            },
            {
                "start_time": 41.7295455,
                "end_time": 42.9909091,
                "pitch": 77,
                "velocity": 32,
                "duration": 1.2613636,
                "tempo": 120.0
            },
            {
                "start_time": 43.3181818,
                "end_time": 43.9568182,
                "pitch": 72,
                "velocity": 20,
                "duration": 0.6386364,
                "tempo": 120.0
            },
            {
                "start_time": 44.1204545,
                "end_time": 44.4454545,
                "pitch": 74,
                "velocity": 20,
                "duration": 0.325,
                "tempo": 120.0
            },
            {
                "start_time": 44.5295455,
                "end_time": 44.8409091,
                "pitch": 76,
                "velocity": 20,
                "duration": 0.3113636,
                "tempo": 120.0
            },
            {
                "start_time": 44.9227273,
                "end_time": 45.5613636,
                "pitch": 74,
                "velocity": 20,
                "duration": 0.6386364,
                "tempo": 120.0
            },
            {
                "start_time": 45.725,
                "end_time": 46.3636364,
                "pitch": 76,
                "velocity": 20,
                "duration": 0.6386364,
                "tempo": 120.0
            },
            {
                "start_time": 46.5272727,
                "end_time": 49.4113636,
                "pitch": 84,
                "velocity": 20,
                "duration": 2.8840909,
                "tempo": 120.0
            },
            {
                "start_time": 49.7386364,
                "end_time": 50.3795455,
                "pitch": 72,
                "velocity": 20,
                "duration": 0.6409091,
                "tempo": 120.0
            },
            {
                "start_time": 50.5409091,
                "end_time": 50.8659091,
                "pitch": 74,
                "velocity": 20,
                "duration": 0.325,
                "tempo": 120.0
            },
            {
                "start_time": 50.9522727,
                "end_time": 51.2636364,
                "pitch": 76,
                "velocity": 20,
                "duration": 0.3113636,
                "tempo": 120.0
            },
            {
                "start_time": 51.3454545,
                "end_time": 51.9840909,
                "pitch": 74,
                "velocity": 20,
                "duration": 0.6386364,
                "tempo": 120.0
            },
            {
                "start_time": 52.1477273,
                "end_time": 52.7863636,
                "pitch": 76,
                "velocity": 20,
                "duration": 0.6386364,
                "tempo": 120.0
            },
            {
                "start_time": 52.95,
                "end_time": 55.1886364,
                "pitch": 84,
                "velocity": 20,
                "duration": 2.2386364,
                "tempo": 120.0
            },
            {
                "start_time": 55.9590909,
                "end_time": 56.1113636,
                "pitch": 77,
                "velocity": 32,
                "duration": 0.1522727,
                "tempo": 120.0
            },
            {
                "start_time": 56.1636364,
                "end_time": 57.425,
                "pitch": 76,
                "velocity": 32,
                "duration": 1.2613636,
                "tempo": 120.0
            },
            {
                "start_time": 57.7659091,
                "end_time": 58.4022727,
                "pitch": 76,
                "velocity": 32,
                "duration": 0.6363636,
                "tempo": 120.0
            },
            {
                "start_time": 59.1659091,
                "end_time": 59.3204545,
                "pitch": 79,
                "velocity": 32,
                "duration": 0.1545455,
                "tempo": 120.0
            },
            {
                "start_time": 59.3727273,
                "end_time": 60.6340909,
                "pitch": 77,
                "velocity": 32,
                "duration": 1.2613636,
                "tempo": 120.0
            },
            {
                "start_time": 60.9772727,
                "end_time": 61.6113636,
                "pitch": 74,
                "velocity": 32,
                "duration": 0.6340909,
                "tempo": 120.0
            },
            {
                "start_time": 62.375,
                "end_time": 62.5295455,
                "pitch": 77,
                "velocity": 32,
                "duration": 0.1545455,
                "tempo": 120.0
            },
            {
                "start_time": 62.5795455,
                "end_time": 63.2136364,
                "pitch": 76,
                "velocity": 32,
                "duration": 0.6340909,
                "tempo": 120.0
            },
            {
                "start_time": 63.9772727,
                "end_time": 64.1318182,
                "pitch": 79,
                "velocity": 32,
                "duration": 0.1545455,
                "tempo": 120.0
            },
            {
                "start_time": 64.1840909,
                "end_time": 65.4431818,
                "pitch": 77,
                "velocity": 32,
                "duration": 1.2590909,
                "tempo": 120.0
            },
            {
                "start_time": 65.7772727,
                "end_time": 66.4136364,
                "pitch": 80,
                "velocity": 20,
                "duration": 0.6363636,
                "tempo": 120.0
            },
            {
                "start_time": 66.5818182,
                "end_time": 67.2159091,
                "pitch": 79,
                "velocity": 20,
                "duration": 0.6340909,
                "tempo": 120.0
            },
            {
                "start_time": 67.4,
                "end_time": 69.9477273,
                "pitch": 77,
                "velocity": 20,
                "duration": 2.5477273,
                "tempo": 120.0
            },
            {
                "start_time": 70.6136364,
                "end_time": 70.7522727,
                "pitch": 74,
                "velocity": 20,
                "duration": 0.1386364,
                "tempo": 120.0
            },
            {
                "start_time": 70.8022727,
                "end_time": 70.9568182,
                "pitch": 70,
                "velocity": 20,
                "duration": 0.1545455,
                "tempo": 120.0
            },
            {
                "start_time": 71.0068182,
                "end_time": 71.1545455,
                "pitch": 69,
                "velocity": 20,
                "duration": 0.1477273,
                "tempo": 120.0
            },
            {
                "start_time": 71.2045455,
                "end_time": 71.35,
                "pitch": 67,
                "velocity": 20,
                "duration": 0.1454545,
                "tempo": 120.0
            },
            {
                "start_time": 71.4,
                "end_time": 71.55,
                "pitch": 74,
                "velocity": 20,
                "duration": 0.15,
                "tempo": 120.0
            },
            {
                "start_time": 71.6022727,
                "end_time": 71.7522727,
                "pitch": 70,
                "velocity": 20,
                "duration": 0.15,
                "tempo": 120.0
            },
            {
                "start_time": 71.8022727,
                "end_time": 71.9568182,
                "pitch": 69,
                "velocity": 20,
                "duration": 0.1545455,
                "tempo": 120.0
            },
            {
                "start_time": 72.0090909,
                "end_time": 72.1613636,
                "pitch": 67,
                "velocity": 20,
                "duration": 0.1522727,
                "tempo": 120.0
            },
            {
                "start_time": 72.2136364,
                "end_time": 72.3613636,
                "pitch": 76,
                "velocity": 20,
                "duration": 0.1477273,
                "tempo": 120.0
            },
            {
                "start_time": 72.4090909,
                "end_time": 72.5568182,
                "pitch": 72,
                "velocity": 20,
                "duration": 0.1477273,
                "tempo": 120.0
            },
            {
                "start_time": 72.6045455,
                "end_time": 72.7590909,
                "pitch": 70,
                "velocity": 20,
                "duration": 0.1545455,
                "tempo": 120.0
            },
            {
                "start_time": 72.8113636,
                "end_time": 72.9659091,
                "pitch": 69,
                "velocity": 20,
                "duration": 0.1545455,
                "tempo": 120.0
            },
            {
                "start_time": 73.0159091,
                "end_time": 73.1636364,
                "pitch": 76,
                "velocity": 20,
                "duration": 0.1477273,
                "tempo": 120.0
            },
            {
                "start_time": 73.2113636,
                "end_time": 73.3590909,
                "pitch": 72,
                "velocity": 20,
                "duration": 0.1477273,
                "tempo": 120.0
            },
            {
                "start_time": 73.4090909,
                "end_time": 73.5590909,
                "pitch": 70,
                "velocity": 20,
                "duration": 0.15,
                "tempo": 120.0
            },
            {
                "start_time": 73.6090909,
                "end_time": 73.7613636,
                "pitch": 69,
                "velocity": 20,
                "duration": 0.1522727,
                "tempo": 120.0
            },
            {
                "start_time": 73.8113636,
                "end_time": 73.9613636,
                "pitch": 77,
                "velocity": 20,
                "duration": 0.15,
                "tempo": 120.0
            },
            {
                "start_time": 74.0113636,
                "end_time": 74.1613636,
                "pitch": 72,
                "velocity": 20,
                "duration": 0.15,
                "tempo": 120.0
            },
            {
                "start_time": 74.2113636,
                "end_time": 74.3613636,
                "pitch": 70,
                "velocity": 20,
                "duration": 0.15,
                "tempo": 120.0
            },
            {
                "start_time": 74.4113636,
                "end_time": 74.5636364,
                "pitch": 69,
                "velocity": 20,
                "duration": 0.1522727,
                "tempo": 120.0
            },
            {
                "start_time": 74.6136364,
                "end_time": 74.7636364,
                "pitch": 77,
                "velocity": 20,
                "duration": 0.15,
                "tempo": 120.0
            },
            {
                "start_time": 74.8136364,
                "end_time": 74.9636364,
                "pitch": 72,
                "velocity": 20,
                "duration": 0.15,
                "tempo": 120.0
            },
            {
                "start_time": 75.0136364,
                "end_time": 75.1636364,
                "pitch": 70,
                "velocity": 20,
                "duration": 0.15,
                "tempo": 120.0
            },
            {
                "start_time": 75.2159091,
                "end_time": 75.3659091,
                "pitch": 69,
                "velocity": 20,
                "duration": 0.15,
                "tempo": 120.0
            },
            {
                "start_time": 75.4159091,
                "end_time": 75.7340909,
                "pitch": 67,
                "velocity": 20,
                "duration": 0.3181818,
                "tempo": 120.0
            },
            {
                "start_time": 76.0181818,
                "end_time": 76.1022727,
                "pitch": 69,
                "velocity": 20,
                "duration": 0.0840909,
                "tempo": 120.0
            },
            {
                "start_time": 76.1181818,
                "end_time": 76.2022727,
                "pitch": 67,
                "velocity": 20,
                "duration": 0.0840909,
                "tempo": 120.0
            },
            {
                "start_time": 76.2181818,
                "end_time": 76.8545455,
                "pitch": 65,
                "velocity": 20,
                "duration": 0.6363636,
                "tempo": 120.0
            },
            {
                "start_time": 77.0227273,
                "end_time": 77.1727273,
                "pitch": 74,
                "velocity": 20,
                "duration": 0.15,
                "tempo": 120.0
            },
            {
                "start_time": 77.2227273,
                "end_time": 77.375,
                "pitch": 70,
                "velocity": 20,
                "duration": 0.1522727,
                "tempo": 120.0
            },
            {
                "start_time": 77.425,
                "end_time": 77.575,
                "pitch": 69,
                "velocity": 20,
                "duration": 0.15,
                "tempo": 120.0
            },
            {
                "start_time": 77.625,
                "end_time": 77.7772727,
                "pitch": 67,
                "velocity": 20,
                "duration": 0.1522727,
                "tempo": 120.0
            },
            {
                "start_time": 77.8272727,
                "end_time": 77.9772727,
                "pitch": 74,
                "velocity": 20,
                "duration": 0.15,
                "tempo": 120.0
            },
            {
                "start_time": 78.0272727,
                "end_time": 78.1772727,
                "pitch": 70,
                "velocity": 20,
                "duration": 0.15,
                "tempo": 120.0
            },
            {
                "start_time": 78.2272727,
                "end_time": 78.3818182,
                "pitch": 69,
                "velocity": 20,
                "duration": 0.1545455,
                "tempo": 120.0
            },
            {
                "start_time": 78.4318182,
                "end_time": 78.5863636,
                "pitch": 67,
                "velocity": 20,
                "duration": 0.1545455,
                "tempo": 120.0
            },
            {
                "start_time": 78.6386364,
                "end_time": 78.7840909,
                "pitch": 76,
                "velocity": 20,
                "duration": 0.1454545,
                "tempo": 120.0
            },
            {
                "start_time": 78.8340909,
                "end_time": 78.9818182,
                "pitch": 72,
                "velocity": 20,
                "duration": 0.1477273,
                "tempo": 120.0
            },
            {
                "start_time": 79.0295455,
                "end_time": 79.1818182,
                "pitch": 70,
                "velocity": 20,
                "duration": 0.1522727,
                "tempo": 120.0
            },
            {
                "start_time": 79.2318182,
                "end_time": 79.3818182,
                "pitch": 69,
                "velocity": 20,
                "duration": 0.15,
                "tempo": 120.0
            },
            {
                "start_time": 79.4318182,
                "end_time": 79.5840909,
                "pitch": 76,
                "velocity": 20,
                "duration": 0.1522727,
                "tempo": 120.0
            },
            {
                "start_time": 79.6340909,
                "end_time": 79.7840909,
                "pitch": 72,
                "velocity": 20,
                "duration": 0.15,
                "tempo": 120.0
            },
            {
                "start_time": 79.8363636,
                "end_time": 79.9886364,
                "pitch": 70,
                "velocity": 20,
                "duration": 0.1522727,
                "tempo": 120.0
            },
            {
                "start_time": 80.0409091,
                "end_time": 80.1954545,
                "pitch": 69,
                "velocity": 20,
                "duration": 0.1545455,
                "tempo": 120.0
            },
            {
                "start_time": 80.2454545,
                "end_time": 80.3954545,
                "pitch": 77,
                "velocity": 20,
                "duration": 0.15,
                "tempo": 120.0
            },
            {
                "start_time": 80.4454545,
                "end_time": 80.5954545,
                "pitch": 72,
                "velocity": 20,
                "duration": 0.15,
                "tempo": 120.0
            },
            {
                "start_time": 80.6454545,
                "end_time": 80.7931818,
                "pitch": 70,
                "velocity": 20,
                "duration": 0.1477273,
                "tempo": 120.0
            },
            {
                "start_time": 80.8431818,
                "end_time": 80.9886364,
                "pitch": 69,
                "velocity": 20,
                "duration": 0.1454545,
                "tempo": 120.0
            },
            {
                "start_time": 81.0386364,
                "end_time": 81.1886364,
                "pitch": 77,
                "velocity": 20,
                "duration": 0.15,
                "tempo": 120.0
            },
            {
                "start_time": 81.2409091,
                "end_time": 81.3909091,
                "pitch": 72,
                "velocity": 20,
                "duration": 0.15,
                "tempo": 120.0
            },
            {
                "start_time": 81.4409091,
                "end_time": 81.5931818,
                "pitch": 77,
                "velocity": 20,
                "duration": 0.1522727,
                "tempo": 120.0
            },
            {
                "start_time": 81.6431818,
                "end_time": 81.7931818,
                "pitch": 79,
                "velocity": 20,
                "duration": 0.15,
                "tempo": 120.0
            },
            {
                "start_time": 81.8431818,
                "end_time": 81.9931818,
                "pitch": 81,
                "velocity": 20,
                "duration": 0.15,
                "tempo": 120.0
            },
            {
                "start_time": 82.0431818,
                "end_time": 82.1931818,
                "pitch": 77,
                "velocity": 20,
                "duration": 0.15,
                "tempo": 120.0
            },
            {
                "start_time": 82.2431818,
                "end_time": 82.3954545,
                "pitch": 81,
                "velocity": 20,
                "duration": 0.1522727,
                "tempo": 120.0
            },
            {
                "start_time": 82.4454545,
                "end_time": 82.5954545,
                "pitch": 82,
                "velocity": 20,
                "duration": 0.15,
                "tempo": 120.0
            },
            {
                "start_time": 82.6454545,
                "end_time": 82.7954545,
                "pitch": 84,
                "velocity": 20,
                "duration": 0.15,
                "tempo": 120.0
            },
            {
                "start_time": 82.8454545,
                "end_time": 82.9954545,
                "pitch": 81,
                "velocity": 20,
                "duration": 0.15,
                "tempo": 120.0
            },
            {
                "start_time": 83.0454545,
                "end_time": 83.1977273,
                "pitch": 84,
                "velocity": 20,
                "duration": 0.1522727,
                "tempo": 120.0
            },
            {
                "start_time": 83.2477273,
                "end_time": 83.4,
                "pitch": 88,
                "velocity": 20,
                "duration": 0.1522727,
                "tempo": 120.0
            },
            {
                "start_time": 83.45,
                "end_time": 83.6,
                "pitch": 74,
                "velocity": 20,
                "duration": 0.15,
                "tempo": 120.0
            },
            {
                "start_time": 83.65,
                "end_time": 83.8022727,
                "pitch": 70,
                "velocity": 20,
                "duration": 0.1522727,
                "tempo": 120.0
            },
            {
                "start_time": 83.8522727,
                "end_time": 84.0022727,
                "pitch": 69,
                "velocity": 20,
                "duration": 0.15,
                "tempo": 120.0
            },
            {
                "start_time": 84.0522727,
                "end_time": 84.2022727,
                "pitch": 67,
                "velocity": 20,
                "duration": 0.15,
                "tempo": 120.0
            },
            {
                "start_time": 84.2522727,
                "end_time": 84.4022727,
                "pitch": 74,
                "velocity": 20,
                "duration": 0.15,
                "tempo": 120.0
            },
            {
                "start_time": 84.4522727,
                "end_time": 84.6045455,
                "pitch": 70,
                "velocity": 20,
                "duration": 0.1522727,
                "tempo": 120.0
            },
            {
                "start_time": 84.6545455,
                "end_time": 84.8045455,
                "pitch": 69,
                "velocity": 20,
                "duration": 0.15,
                "tempo": 120.0
            },
            {
                "start_time": 84.8545455,
                "end_time": 85.0045455,
                "pitch": 67,
                "velocity": 20,
                "duration": 0.15,
                "tempo": 120.0
            },
            {
                "start_time": 85.0545455,
                "end_time": 85.2045455,
                "pitch": 76,
                "velocity": 20,
                "duration": 0.15,
                "tempo": 120.0
            },
            {
                "start_time": 85.2568182,
                "end_time": 85.4068182,
                "pitch": 72,
                "velocity": 20,
                "duration": 0.15,
                "tempo": 120.0
            },
            {
                "start_time": 85.4568182,
                "end_time": 85.6113636,
                "pitch": 70,
                "velocity": 20,
                "duration": 0.1545455,
                "tempo": 120.0
            },
            {
                "start_time": 85.6636364,
                "end_time": 85.8159091,
                "pitch": 69,
                "velocity": 20,
                "duration": 0.1522727,
                "tempo": 120.0
            },
            {
                "start_time": 85.8681818,
                "end_time": 86.0159091,
                "pitch": 76,
                "velocity": 20,
                "duration": 0.1477273,
                "tempo": 120.0
            },
            {
                "start_time": 86.0636364,
                "end_time": 86.2113636,
                "pitch": 72,
                "velocity": 20,
                "duration": 0.1477273,
                "tempo": 120.0
            },
            {
                "start_time": 86.2590909,
                "end_time": 86.4113636,
                "pitch": 70,
                "velocity": 20,
                "duration": 0.1522727,
                "tempo": 120.0
            },
            {
                "start_time": 86.4613636,
                "end_time": 86.6136364,
                "pitch": 69,
                "velocity": 20,
                "duration": 0.1522727,
                "tempo": 120.0
            },
            {
                "start_time": 86.6795455,
                "end_time": 86.8136364,
                "pitch": 77,
                "velocity": 20,
                "duration": 0.1340909,
                "tempo": 120.0
            },
            {
                "start_time": 86.8636364,
                "end_time": 87.0136364,
                "pitch": 72,
                "velocity": 20,
                "duration": 0.15,
                "tempo": 120.0
            },
            {
                "start_time": 87.0636364,
                "end_time": 87.2136364,
                "pitch": 70,
                "velocity": 20,
                "duration": 0.15,
                "tempo": 120.0
            },
            {
                "start_time": 87.2636364,
                "end_time": 87.4159091,
                "pitch": 69,
                "velocity": 20,
                "duration": 0.1522727,
                "tempo": 120.0
            },
            {
                "start_time": 87.4659091,
                "end_time": 87.6159091,
                "pitch": 77,
                "velocity": 20,
                "duration": 0.15,
                "tempo": 120.0
            },
            {
                "start_time": 87.6659091,
                "end_time": 87.8181818,
                "pitch": 72,
                "velocity": 20,
                "duration": 0.1522727,
                "tempo": 120.0
            },
            {
                "start_time": 87.8681818,
                "end_time": 88.0181818,
                "pitch": 70,
                "velocity": 20,
                "duration": 0.15,
                "tempo": 120.0
            },
            {
                "start_time": 88.0681818,
                "end_time": 88.2181818,
                "pitch": 69,
                "velocity": 20,
                "duration": 0.15,
                "tempo": 120.0
            },
            {
                "start_time": 88.2681818,
                "end_time": 88.5863636,
                "pitch": 67,
                "velocity": 20,
                "duration": 0.3181818,
                "tempo": 120.0
            },
            {
                "start_time": 88.8704545,
                "end_time": 88.9545455,
                "pitch": 69,
                "velocity": 20,
                "duration": 0.0840909,
                "tempo": 120.0
            },
            {
                "start_time": 88.9704545,
                "end_time": 89.0545455,
                "pitch": 67,
                "velocity": 20,
                "duration": 0.0840909,
                "tempo": 120.0
            },
            {
                "start_time": 89.0704545,
                "end_time": 89.7090909,
                "pitch": 65,
                "velocity": 20,
                "duration": 0.6386364,
                "tempo": 120.0
            },
            {
                "start_time": 89.8772727,
                "end_time": 91.1454545,
                "pitch": 74,
                "velocity": 32,
                "duration": 1.2681818,
                "tempo": 120.0
            },
            {
                "start_time": 91.4818182,
                "end_time": 92.1181818,
                "pitch": 76,
                "velocity": 32,
                "duration": 0.6363636,
                "tempo": 120.0
            },
            {
                "start_time": 92.2840909,
                "end_time": 92.6022727,
                "pitch": 77,
                "velocity": 32,
                "duration": 0.3181818,
                "tempo": 120.0
            },
            {
                "start_time": 92.6863636,
                "end_time": 93.0045455,
                "pitch": 79,
                "velocity": 32,
                "duration": 0.3181818,
                "tempo": 120.0
            },
            {
                "start_time": 93.0863636,
                "end_time": 93.2409091,
                "pitch": 70,
                "velocity": 40,
                "duration": 0.1545455,
                "tempo": 120.0
            },
            {
                "start_time": 93.2931818,
                "end_time": 93.4454545,
                "pitch": 69,
                "velocity": 40,
                "duration": 0.1522727,
                "tempo": 120.0
            },
            {
                "start_time": 93.4977273,
                "end_time": 93.6454545,
                "pitch": 67,
                "velocity": 40,
                "duration": 0.1477273,
                "tempo": 120.0
            },
            {
                "start_time": 93.6931818,
                "end_time": 93.8409091,
                "pitch": 65,
                "velocity": 40,
                "duration": 0.1477273,
                "tempo": 120.0
            },
            {
                "start_time": 93.8909091,
                "end_time": 94.0431818,
                "pitch": 74,
                "velocity": 40,
                "duration": 0.1522727,
                "tempo": 120.0
            },
            {
                "start_time": 94.0954545,
                "end_time": 94.25,
                "pitch": 72,
                "velocity": 40,
                "duration": 0.1545455,
                "tempo": 120.0
            },
            {
                "start_time": 94.3,
                "end_time": 94.4477273,
                "pitch": 70,
                "velocity": 40,
                "duration": 0.1477273,
                "tempo": 120.0
            },
            {
                "start_time": 94.4954545,
                "end_time": 94.6431818,
                "pitch": 69,
                "velocity": 40,
                "duration": 0.1477273,
                "tempo": 120.0
            },
            {
                "start_time": 94.6931818,
                "end_time": 94.8431818,
                "pitch": 76,
                "velocity": 40,
                "duration": 0.15,
                "tempo": 120.0
            },
            {
                "start_time": 94.8931818,
                "end_time": 95.0431818,
                "pitch": 74,
                "velocity": 40,
                "duration": 0.15,
                "tempo": 120.0
            },
            {
                "start_time": 95.0931818,
                "end_time": 95.2431818,
                "pitch": 72,
                "velocity": 40,
                "duration": 0.15,
                "tempo": 120.0
            },
            {
                "start_time": 95.2931818,
                "end_time": 95.4454545,
                "pitch": 76,
                "velocity": 40,
                "duration": 0.1522727,
                "tempo": 120.0
            },
            {
                "start_time": 95.4954545,
                "end_time": 95.8136364,
                "pitch": 77,
                "velocity": 40,
                "duration": 0.3181818,
                "tempo": 120.0
            },
            {
                "start_time": 95.8977273,
                "end_time": 96.2136364,
                "pitch": 79,
                "velocity": 40,
                "duration": 0.3159091,
                "tempo": 120.0
            },
            {
                "start_time": 96.3159091,
                "end_time": 97.5772727,
                "pitch": 77,
                "velocity": 20,
                "duration": 1.2613636,
                "tempo": 120.0
            },
            {
                "start_time": 97.9022727,
                "end_time": 98.5431818,
                "pitch": 72,
                "velocity": 20,
                "duration": 0.6409091,
                "tempo": 120.0
            },
            {
                "start_time": 98.7068182,
                "end_time": 99.0318182,
                "pitch": 74,
                "velocity": 20,
                "duration": 0.325,
                "tempo": 120.0
            },
            {
                "start_time": 99.1159091,
                "end_time": 99.4272727,
                "pitch": 76,
                "velocity": 20,
                "duration": 0.3113636,
                "tempo": 120.0
            },
            {
                "start_time": 99.5090909,
                "end_time": 100.1477273,
                "pitch": 74,
                "velocity": 20,
                "duration": 0.6386364,
                "tempo": 120.0
            },
            {
                "start_time": 100.3113636,
                "end_time": 100.95,
                "pitch": 76,
                "velocity": 20,
                "duration": 0.6386364,
                "tempo": 120.0
            },
            {
                "start_time": 101.1136364,
                "end_time": 104.0,
                "pitch": 84,
                "velocity": 20,
                "duration": 2.8863636,
                "tempo": 120.0
            },
            {
                "start_time": 104.3272727,
                "end_time": 104.9659091,
                "pitch": 72,
                "velocity": 20,
                "duration": 0.6386364,
                "tempo": 120.0
            },
            {
                "start_time": 105.1295455,
                "end_time": 105.45,
                "pitch": 74,
                "velocity": 20,
                "duration": 0.3204545,
                "tempo": 120.0
            },
            {
                "start_time": 105.5318182,
                "end_time": 105.8522727,
                "pitch": 76,
                "velocity": 20,
                "duration": 0.3204545,
                "tempo": 120.0
            },
            {
                "start_time": 105.9363636,
                "end_time": 106.5704545,
                "pitch": 74,
                "velocity": 20,
                "duration": 0.6340909,
                "tempo": 120.0
            },
            {
                "start_time": 106.7386364,
                "end_time": 107.3772727,
                "pitch": 76,
                "velocity": 20,
                "duration": 0.6386364,
                "tempo": 120.0
            },
            {
                "start_time": 107.5409091,
                "end_time": 109.7863636,
                "pitch": 84,
                "velocity": 20,
                "duration": 2.2454545,
                "tempo": 120.0
            },
            {
                "start_time": 110.55,
                "end_time": 110.7022727,
                "pitch": 77,
                "velocity": 32,
                "duration": 0.1522727,
                "tempo": 120.0
            },
            {
                "start_time": 110.7522727,
                "end_time": 112.025,
                "pitch": 76,
                "velocity": 32,
                "duration": 1.2727273,
                "tempo": 120.0
            },
            {
                "start_time": 112.3681818,
                "end_time": 112.9977273,
                "pitch": 76,
                "velocity": 32,
                "duration": 0.6295455,
                "tempo": 120.0
            },
            {
                "start_time": 113.7681818,
                "end_time": 113.9227273,
                "pitch": 79,
                "velocity": 32,
                "duration": 0.1545455,
                "tempo": 120.0
            },
            {
                "start_time": 113.975,
                "end_time": 115.2386364,
                "pitch": 77,
                "velocity": 32,
                "duration": 1.2636364,
                "tempo": 120.0
            },
            {
                "start_time": 115.5795455,
                "end_time": 116.2113636,
                "pitch": 74,
                "velocity": 32,
                "duration": 0.6318182,
                "tempo": 120.0
            },
            {
                "start_time": 116.9795455,
                "end_time": 117.1340909,
                "pitch": 77,
                "velocity": 32,
                "duration": 0.1545455,
                "tempo": 120.0
            },
            {
                "start_time": 117.1863636,
                "end_time": 117.8204545,
                "pitch": 76,
                "velocity": 32,
                "duration": 0.6340909,
                "tempo": 120.0
            },
            {
                "start_time": 118.5863636,
                "end_time": 118.7386364,
                "pitch": 79,
                "velocity": 32,
                "duration": 0.1522727,
                "tempo": 120.0
            },
            {
                "start_time": 118.7909091,
                "end_time": 120.0545455,
                "pitch": 77,
                "velocity": 32,
                "duration": 1.2636364,
                "tempo": 120.0
            },
            {
                "start_time": 120.4045455,
                "end_time": 121.025,
                "pitch": 80,
                "velocity": 32,
                "duration": 0.6204545,
                "tempo": 120.0
            },
            {
                "start_time": 121.1909091,
                "end_time": 121.8340909,
                "pitch": 79,
                "velocity": 20,
                "duration": 0.6431818,
                "tempo": 120.0
            }
        ]
    }
}