{
    "mood": "relaxed",
    "instruments": {
        "Violin": [
            {
                "start_time": 0.0,
                "end_time": 1.1863636,
                "pitch": 64,
                "velocity": 127,
                "duration": 1.1863636,
                "tempo": 120.0
            },
            {
                "start_time": 1.2204545,
                "end_time": 1.3863636,
                "pitch": 64,
                "velocity": 127,
                "duration": 0.1659091,
                "tempo": 120.0
            },
            {
                "start_time": 1.4204545,
                "end_time": 3.1886364,
                "pitch": 65,
                "velocity": 127,
                "duration": 1.7681818,
                "tempo": 120.0
            },
            {
                "start_time": 3.2227273,
                "end_time": 4.1909091,
                "pitch": 65,
                "velocity": 127,
                "duration": 0.9681818,
                "tempo": 120.0
            },
            {
                "start_time": 4.225,
                "end_time": 4.3909091,
                "pitch": 65,
                "velocity": 127,
                "duration": 0.1659091,
                "tempo": 120.0
            },
            {
                "start_time": 4.625,
                "end_time": 6.4,
                "pitch": 64,
                "velocity": 127,
                "duration": 1.775,
                "tempo": 120.0
            },
            {
                "start_time": 6.4318182,
                "end_time": 7.6022727,
                "pitch": 64,
                "velocity": 127,
                "duration": 1.1704545,
                "tempo": 120.0
            },
            {
                "start_time": 7.6363636,
                "end_time": 7.8068182,
                "pitch": 64,
                "velocity": 127,
                "duration": 0.1704545,
                "tempo": 120.0
            },
            {
                "start_time": 7.8409091,
                "end_time": 9.6113636,
                "pitch": 65,
                "velocity": 127,
                "duration": 1.7704545,
                "tempo": 120.0
            },
            {
                "start_time": 9.6431818,
                "end_time": 10.6181818,
                "pitch": 65,
                "velocity": 127,
                "duration": 0.975,
                "tempo": 120.0
            },
            {
                "start_time": 10.65,
                "end_time": 10.8181818,
                "pitch": 65,
                "velocity": 127,
                "duration": 0.1681818,
                "tempo": 120.0
            },
            {
                "start_time": 11.0522727,
                "end_time": 12.8295455,
                "pitch": 64,
                "velocity": 127,
                "duration": 1.7772727,
                "tempo": 120.0
            },
            {
                "start_time": 12.8613636,
                "end_time": 14.0318182,
                "pitch": 76,
                "velocity": 127,
                "duration": 1.1704545,
                "tempo": 120.0
            },
            {
                "start_time": 14.0659091,
                "end_time": 14.2363636,
                "pitch": 76,
                "velocity": 127,
                "duration": 0.1704545,
                "tempo": 120.0
            },
            {
                "start_time": 14.2704545,
                "end_time": 16.0477273,
                "pitch": 77,
                "velocity": 127,
                "duration": 1.7772727,
                "tempo": 120.0
            },
            {
                "start_time": 16.0795455,
                "end_time": 17.0454545,
                "pitch": 77,
                "velocity": 127,
                "duration": 0.9659091,
                "tempo": 120.0
            },
            {
                "start_time": 17.0795455,
                "end_time": 17.2431818,
                "pitch": 77,
                "velocity": 127,
                "duration": 0.1636364,
                "tempo": 120.0
            },
            {
                "start_time": 17.4818182,
                "end_time": 19.2590909,
                "pitch": 76,
                "velocity": 127,
                "duration": 1.7772727,
                "tempo": 120.0
            },
            {
                "start_time": 19.2909091,
                "end_time": 20.4522727,
                "pitch": 76,
                "velocity": 127,
                "duration": 1.1613636,
                "tempo": 120.0
            },
            {
                "start_time": 20.4863636,
                "end_time": 20.6522727,
                "pitch": 76,
                "velocity": 127,
                "duration": 0.1659091,
                "tempo": 120.0
            },
            {
                "start_time": 20.6863636,
                "end_time": 22.4590909,
                "pitch": 77,
                "velocity": 127,
                "duration": 1.7727273,
                "tempo": 120.0
            },
            {
                "start_time": 22.4931818,
                "end_time": 22.6636364,
                "pitch": 77,
                "velocity": 127,
                "duration": 0.1704545,
                "tempo": 120.0
            },
            {
                "start_time": 22.6977273,
                "end_time": 22.8681818,
                "pitch": 77,
                "velocity": 127,
                "duration": 0.1704545,
                "tempo": 120.0
            },
            {
                "start_time": 22.9022727,
                "end_time": 23.0659091,
                "pitch": 77,
                "velocity": 127,
                "duration": 0.1636364,
                "tempo": 120.0
            },
            {
                "start_time": 23.4954545,
                "end_time": 23.6613636,
                "pitch": 77,
                "velocity": 127,
                "duration": 0.1659091,
                "tempo": 120.0
            },
            {
                "start_time": 23.8954545,
                "end_time": 24.0613636,
                "pitch": 76,
                "velocity": 127,
                "duration": 0.1659091,
                "tempo": 120.0
            }
        ],
        "Church Organ": [
            {
                "start_time": 26.3022727,
                "end_time": 26.4704545,
                "pitch": 64,
                "velocity": 101,
                "duration": 0.1681818,
                "tempo": 120.0
            },
            {
                "start_time": 26.5045455,
                "end_time": 28.0727273,
                "pitch": 64,
                "velocity": 101,
                "duration": 1.5681818,
                "tempo": 120.0
            },
            {
                "start_time": 28.1068182,
                "end_time": 28.4840909,
                "pitch": 55,
                "velocity": 101,
                "duration": 0.3772727,
                "tempo": 120.0
            },
            {
                "start_time": 28.5159091,
                "end_time": 28.875,
                "pitch": 57,
                "velocity": 101,
                "duration": 0.3590909,
                "tempo": 120.0
            },
            {
                "start_time": 28.9090909,
                "end_time": 29.4772727,
                "pitch": 65,
                "velocity": 101,
                "duration": 0.5681818,
                "tempo": 120.0
            },
            {
                "start_time": 29.5113636,
                "end_time": 29.6772727,
                "pitch": 64,
                "velocity": 101,
                "duration": 0.1659091,
                "tempo": 120.0
            },
            {
                "start_time": 29.7113636,
                "end_time": 31.6931818,
                "pitch": 64,
                "velocity": 101,
                "duration": 1.9818182,
                "tempo": 120.0
            },
            {
                "start_time": 32.1204545,
                "end_time": 32.6909091,
                "pitch": 65,
                "velocity": 101,
                "duration": 0.5704545,
                "tempo": 120.0
            },
            {
                "start_time": 32.725,
                "end_time": 32.8909091,
                "pitch": 64,
                "velocity": 101,
                "duration": 0.1659091,
                "tempo": 120.0
            },
            {
                "start_time": 32.925,
                "end_time": 34.4954545,
                "pitch": 64,
                "velocity": 101,
                "duration": 1.5704545,
                "tempo": 120.0
            },
            {
                "start_time": 34.5272727,
                "end_time": 34.8977273,
                "pitch": 62,
                "velocity": 101,
                "duration": 0.3704545,
                "tempo": 120.0
            },
            {
                "start_time": 34.9318182,
                "end_time": 35.3090909,
                "pitch": 64,
                "velocity": 101,
                "duration": 0.3772727,
                "tempo": 120.0
            },
            {
                "start_time": 35.3409091,
                "end_time": 36.9022727,
                "pitch": 65,
                "velocity": 101,
                "duration": 1.5613636,
                "tempo": 120.0
            },
            {
                "start_time": 36.9363636,
                "end_time": 37.5022727,
                "pitch": 68,
                "velocity": 101,
                "duration": 0.5659091,
                "tempo": 120.0
            },
            {
                "start_time": 37.5363636,
                "end_time": 38.1022727,
                "pitch": 67,
                "velocity": 101,
                "duration": 0.5659091,
                "tempo": 120.0
            },
            {
                "start_time": 38.1363636,
                "end_time": 38.5022727,
                "pitch": 65,
                "velocity": 101,
                "duration": 0.3659091,
                "tempo": 120.0
            },
            {
                "start_time": 38.5363636,
                "end_time": 39.1045455,
                "pitch": 65,
                "velocity": 101,
                "duration": 0.5681818,
                "tempo": 120.0
            },
            {
                "start_time": 39.1386364,
                "end_time": 39.3045455,
                "pitch": 64,
                "velocity": 101,
                "duration": 0.1659091,
                "tempo": 120.0
            },
            {
                "start_time": 39.3386364,
                "end_time": 40.9181818,
                "pitch": 64,
                "velocity": 101,
                "duration": 1.5795455,
                "tempo": 120.0
            },
            {
                "start_time": 40.9522727,
                "end_time": 41.3204545,
                "pitch": 55,
                "velocity": 101,
                "duration": 0.3681818,
                "tempo": 120.0
            },
            {
                "start_time": 41.3522727,
                "end_time": 41.7113636,
                "pitch": 57,
                "velocity": 101,
                "duration": 0.3590909,
                "tempo": 120.0
            },
            {
                "start_time": 41.7454545,
                "end_time": 42.3113636,
                "pitch": 65,
                "velocity": 101,
                "duration": 0.5659091,
                "tempo": 120.0
            },
            {
                "start_time": 42.3454545,
                "end_time": 42.5113636,
                "pitch": 64,
                "velocity": 101,
                "duration": 0.1659091,
                "tempo": 120.0
            },
            {
                "start_time": 42.5454545,
                "end_time": 44.525,
                "pitch": 64,
                "velocity": 101,
                "duration": 1.9795455,
                "tempo": 120.0
            },
            {
                "start_time": 44.95,
                "end_time": 45.5181818,
                "pitch": 65,
                "velocity": 101,
                "duration": 0.5681818,
                "tempo": 120.0
            },
            {
                "start_time": 45.55,
                "end_time": 45.7181818,
                "pitch": 64,
                "velocity": 101,
                "duration": 0.1681818,
                "tempo": 120.0
            },
            {
                "start_time": 45.7522727,
                "end_time": 47.3227273,
                "pitch": 64,
                "velocity": 101,
                "duration": 1.5704545,
                "tempo": 120.0
            },
            {
                "start_time": 47.3568182,
                "end_time": 47.7227273,
                "pitch": 62,
                "velocity": 101,
                "duration": 0.3659091,
                "tempo": 120.0
            },
            {
                "start_time": 47.7568182,
                "end_time": 48.1340909,
                "pitch": 64,
                "velocity": 101,
                "duration": 0.3772727,
                "tempo": 120.0
            },
            {
                "start_time": 48.1659091,
                "end_time": 49.7272727,
                "pitch": 65,
                "velocity": 101,
                "duration": 1.5613636,
                "tempo": 120.0
            },
            {
                "start_time": 49.7613636,
                "end_time": 50.3272727,
                "pitch": 68,
                "velocity": 101,
                "duration": 0.5659091,
                "tempo": 120.0
            },
            {
                "start_time": 50.3613636,
                "end_time": 50.9318182,
                "pitch": 67,
                "velocity": 101,
                "duration": 0.5704545,
                "tempo": 120.0
            },
            {
                "start_time": 50.9636364,
                "end_time": 51.3318182,
                "pitch": 65,
                "velocity": 101,
                "duration": 0.3681818,
                "tempo": 120.0
            },
            {
                "start_time": 51.3636364,
                "end_time": 53.3340909,
                "pitch": 64,
                "velocity": 101,
                "duration": 1.9704545,
                "tempo": 120.0
            },
            {
                "start_time": 53.3681818,
                "end_time": 53.7431818,
                "pitch": 52,
                "velocity": 101,
                "duration": 0.375,
                "tempo": 120.0
            },
            {
                "start_time": 53.7772727,
                "end_time": 54.1363636,
                "pitch": 55,
                "velocity": 101,
                "duration": 0.3590909,
                "tempo": 120.0
            },
            {
                "start_time": 54.1704545,
                "end_time": 54.5477273,
                "pitch": 62,
                "velocity": 101,
                "duration": 0.3772727,
                "tempo": 120.0
            },
            {
                "start_time": 54.5795455,
                "end_time": 55.7386364,
                "pitch": 61,
                "velocity": 101,
                "duration": 1.1590909,
                "tempo": 120.0
            },
            {
                "start_time": 55.7727273,
                "end_time": 56.1386364,
                "pitch": 58,
                "velocity": 101,
                "duration": 0.3659091,
                "tempo": 120.0
            },
            {
                "start_time": 56.1727273,
                "end_time": 57.2090909,
                "pitch": 57,
                "velocity": 101,
                "duration": 1.0363636,
                "tempo": 120.0
            },
            {
                "start_time": 57.2409091,
                "end_time": 57.475,
                "pitch": 55,
                "velocity": 101,
                "duration": 0.2340909,
                "tempo": 120.0
            },
            {
                "start_time": 57.5090909,
                "end_time": 57.7409091,
                "pitch": 53,
                "velocity": 101,
                "duration": 0.2318182,
                "tempo": 120.0
            },
            {
                "start_time": 57.775,
                "end_time": 58.1522727,
                "pitch": 52,
                "velocity": 101,
                "duration": 0.3772727,
                "tempo": 120.0
            },
            {
                "start_time": 58.1840909,
                "end_time": 58.3477273,
                "pitch": 53,
                "velocity": 101,
                "duration": 0.1636364,
                "tempo": 120.0
            },
            {
                "start_time": 58.3818182,
                "end_time": 59.9477273,
                "pitch": 50,
                "velocity": 101,
                "duration": 1.5659091,
                "tempo": 120.0
            },
            {
                "start_time": 59.9795455,
                "end_time": 60.1477273,
                "pitch": 50,
                "velocity": 101,
                "duration": 0.1681818,
                "tempo": 120.0
            },
            {
                "start_time": 60.1795455,
                "end_time": 60.3477273,
                "pitch": 52,
                "velocity": 101,
                "duration": 0.1681818,
                "tempo": 120.0
            },
            {
                "start_time": 60.3795455,
                "end_time": 60.7477273,
                "pitch": 53,
                "velocity": 101,
                "duration": 0.3681818,
                "tempo": 120.0
            },
            {
                "start_time": 60.7818182,
                "end_time": 60.95,
                "pitch": 55,
                "velocity": 101,
                "duration": 0.1681818,
                "tempo": 120.0
            },
            {
                "start_time": 60.9840909,
                "end_time": 62.15,
                "pitch": 57,
                "velocity": 101,
                "duration": 1.1659091,
                "tempo": 120.0
            },
            {
                "start_time": 62.1840909,
                "end_time": 62.5613636,
                "pitch": 56,
                "velocity": 101,
                "duration": 0.3772727,
                "tempo": 120.0
            },
            {
                "start_time": 62.5931818,
                "end_time": 63.3522727,
                "pitch": 65,
                "velocity": 101,
                "duration": 0.7590909,
                "tempo": 120.0
            },
            {
                "start_time": 63.3863636,
                "end_time": 64.1636364,
                "pitch": 62,
                "velocity": 101,
                "duration": 0.7772727,
                "tempo": 120.0
            },
            {
                "start_time": 64.1954545,
                "end_time": 66.1613636,
                "pitch": 64,
                "velocity": 101,
                "duration": 1.9659091,
                "tempo": 120.0
            },
            {
                "start_time": 66.1954545,
                "end_time": 66.5636364,
                "pitch": 52,
                "velocity": 101,
                "duration": 0.3681818,
                "tempo": 120.0
            },
            {
                "start_time": 66.5977273,
                "end_time": 66.9636364,
                "pitch": 55,
                "velocity": 101,
                "duration": 0.3659091,
                "tempo": 120.0
            },
            {
                "start_time": 66.9977273,
                "end_time": 67.3659091,
                "pitch": 62,
                "velocity": 101,
                "duration": 0.3681818,
                "tempo": 120.0
            },
            {
                "start_time": 67.4,
                "end_time": 69.1727273,
                "pitch": 61,
                "velocity": 101,
                "duration": 1.7727273,
                "tempo": 120.0
            },
            {
                "start_time": 69.2068182,
                "end_time": 69.375,
                "pitch": 64,
                "velocity": 101,
                "duration": 0.1681818,
                "tempo": 120.0
            },
            {
                "start_time": 69.4090909,
                "end_time": 69.575,
                "pitch": 61,
                "velocity": 101,
                "duration": 0.1659091,
                "tempo": 120.0
            },
            {
                "start_time": 69.6090909,
                "end_time": 69.7772727,
                "pitch": 58,
                "velocity": 101,
                "duration": 0.1681818,
                "tempo": 120.0
            },
            {
                "start_time": 69.8113636,
                "end_time": 69.9772727,
                "pitch": 57,
                "velocity": 101,
                "duration": 0.1659091,
                "tempo": 120.0
            },
            {
                "start_time": 70.0113636,
                "end_time": 70.1772727,
                "pitch": 55,
                "velocity": 101,
                "duration": 0.1659091,
                "tempo": 120.0
            },
            {
                "start_time": 70.2113636,
                "end_time": 70.3818182,
                "pitch": 53,
                "velocity": 101,
                "duration": 0.1704545,
                "tempo": 120.0
            },
            {
                "start_time": 70.4159091,
                "end_time": 70.5886364,
                "pitch": 52,
                "velocity": 101,
                "duration": 0.1727273,
                "tempo": 120.0
            },
            {
                "start_time": 70.6227273,
                "end_time": 71.7863636,
                "pitch": 50,
                "velocity": 101,
                "duration": 1.1636364,
                "tempo": 120.0
            },
            {
                "start_time": 71.8204545,
                "end_time": 72.1954545,
                "pitch": 52,
                "velocity": 101,
                "duration": 0.375,
                "tempo": 120.0
            },
            {
                "start_time": 72.2295455,
                "end_time": 72.4568182,
                "pitch": 53,
                "velocity": 101,
                "duration": 0.2272727,
                "tempo": 120.0
            },
            {
                "start_time": 72.4909091,
                "end_time": 72.7204545,
                "pitch": 52,
                "velocity": 101,
                "duration": 0.2295455,
                "tempo": 120.0
            },
            {
                "start_time": 72.7545455,
                "end_time": 72.9886364,
                "pitch": 53,
                "velocity": 101,
                "duration": 0.2340909,
                "tempo": 120.0
            },
            {
                "start_time": 73.0227273,
                "end_time": 73.2568182,
                "pitch": 55,
                "velocity": 101,
                "duration": 0.2340909,
                "tempo": 120.0
            },
            {
                "start_time": 73.2909091,
                "end_time": 73.525,
                "pitch": 53,
                "velocity": 101,
                "duration": 0.2340909,
                "tempo": 120.0
            },
            {
                "start_time": 73.5590909,
                "end_time": 73.7931818,
                "pitch": 55,
                "velocity": 101,
                "duration": 0.2340909,
                "tempo": 120.0
            },
            {
                "start_time": 73.8272727,
                "end_time": 74.9954545,
                "pitch": 57,
                "velocity": 101,
                "duration": 1.1681818,
                "tempo": 120.0
            },
            {
                "start_time": 75.0295455,
                "end_time": 75.1977273,
                "pitch": 55,
                "velocity": 101,
                "duration": 0.1681818,
                "tempo": 120.0
            },
            {
                "start_time": 75.2318182,
                "end_time": 76.2022727,
                "pitch": 67,
                "velocity": 101,
                "duration": 0.9704545,
                "tempo": 120.0
            },
            {
                "start_time": 76.2363636,
                "end_time": 76.3181818,
                "pitch": 69,
                "velocity": 101,
                "duration": 0.0818182,
                "tempo": 120.0
            },
            {
                "start_time": 76.3181818,
                "end_time": 76.4022727,
                "pitch": 70,
                "velocity": 101,
                "duration": 0.0840909,
                "tempo": 120.0
            },
            {
                "start_time": 76.4363636,
                "end_time": 76.5204545,
                "pitch": 71,
                "velocity": 101,
                "duration": 0.0840909,
                "tempo": 120.0
            },
            {
                "start_time": 76.5204545,
                "end_time": 76.6045455,
                "pitch": 72,
                "velocity": 101,
                "duration": 0.0840909,
                "tempo": 120.0
            },
            {
                "start_time": 76.6386364,
                "end_time": 76.7204545,
                "pitch": 73,
                "velocity": 101,
                "duration": 0.0818182,
                "tempo": 120.0
            },
            {
                "start_time": 76.7204545,
                "end_time": 76.8045455,
                "pitch": 74,
                "velocity": 101,
                "duration": 0.0840909,
                "tempo": 120.0
            },
            {
                "start_time": 76.8386364,
                "end_time": 76.9204545,
                "pitch": 75,
                "velocity": 101,
                "duration": 0.0818182,
                "tempo": 120.0
            },
            {
                "start_time": 76.9204545,
                "end_time": 77.0045455,
                "pitch": 76,
                "velocity": 101,
                "duration": 0.0840909,
                "tempo": 120.0
            }
        ],
        "Trumpet": [
            {
                "start_time": 154.7568182,
                "end_time": 154.975,
                "pitch": 81,
                "velocity": 40,
                "duration": 0.2181818,
                "tempo": 120.0
            },
            {
                "start_time": 155.3681818,
                "end_time": 155.5795455,
                "pitch": 81,
                "velocity": 51,
                "duration": 0.2113636,
                "tempo": 120.0
            },
            {
                "start_time": 155.9613636,
                "end_time": 156.3636364,
                "pitch": 72,
                "velocity": 64,
                "duration": 0.4022727,
                "tempo": 120.0
            },
            {
                "start_time": 156.3636364,
                "end_time": 156.5659091,
                "pitch": 76,
                "velocity": 64,
                "duration": 0.2022727,
                "tempo": 120.0
            },
            {
                "start_time": 156.5659091,
                "end_time": 156.7727273,
                "pitch": 79,
                "velocity": 64,
                "duration": 0.2068182,
                "tempo": 120.0
            },
            {
                "start_time": 156.7727273,
                "end_time": 156.975,
                "pitch": 76,
                "velocity": 64,
                "duration": 0.2022727,
                "tempo": 120.0
            },
            {
                "start_time": 156.975,
                "end_time": 157.7045455,
                "pitch": 74,
                "velocity": 64,
                "duration": 0.7295455,
                "tempo": 120.0
            },
            {
                "start_time": 157.7045455,
                "end_time": 158.2,
                "pitch": 72,
                "velocity": 64,
                "duration": 0.4954545,
                "tempo": 120.0
            },
            {
                "start_time": 158.5840909,
                "end_time": 158.7977273,
                "pitch": 72,
                "velocity": 51,
                "duration": 0.2136364,
                "tempo": 120.0
            },
            {
                "start_time": 159.1795455,
                "end_time": 159.3818182,
                "pitch": 79,
                "velocity": 64,
                "duration": 0.2022727,
                "tempo": 120.0
            },
            {
                "start_time": 159.3818182,
                "end_time": 159.5863636,
                "pitch": 69,
                "velocity": 64,
                "duration": 0.2045455,
                "tempo": 120.0
            },
            {
                "start_time": 159.5863636,
                "end_time": 159.7909091,
                "pitch": 72,
                "velocity": 64,
                "duration": 0.2045455,
                "tempo": 120.0
            },
            {
                "start_time": 159.7909091,
                "end_time": 159.9931818,
                "pitch": 76,
                "velocity": 64,
                "duration": 0.2022727,
                "tempo": 120.0
            },
            {
                "start_time": 159.9931818,
                "end_time": 160.1931818,
                "pitch": 69,
                "velocity": 64,
                "duration": 0.2,
                "tempo": 120.0
            },
            {
                "start_time": 160.1931818,
                "end_time": 161.0568182,
                "pitch": 72,
                "velocity": 64,
                "duration": 0.8636364,
                "tempo": 120.0
            },
            {
                "start_time": 161.0568182,
                "end_time": 161.6181818,
                "pitch": 74,
                "velocity": 64,
                "duration": 0.5613636,
                "tempo": 120.0
            },
            {
                "start_time": 161.9977273,
                "end_time": 162.2113636,
                "pitch": 74,
                "velocity": 51,
                "duration": 0.2136364,
                "tempo": 120.0
            },
            {
                "start_time": 162.5977273,
                "end_time": 163.8909091,
                "pitch": 72,
                "velocity": 64,
                "duration": 1.2931818,
                "tempo": 120.0
            },
            {
                "start_time": 164.0045455,
                "end_time": 164.0863636,
                "pitch": 69,
                "velocity": 80,
                "duration": 0.0818182,
                "tempo": 120.0
            },
            {
                "start_time": 164.2022727,
                "end_time": 164.2863636,
                "pitch": 67,
                "velocity": 80,
                "duration": 0.0840909,
                "tempo": 120.0
            },
            {
                "start_time": 164.4045455,
                "end_time": 164.4886364,
                "pitch": 69,
                "velocity": 80,
                "duration": 0.0840909,
                "tempo": 120.0
            },
            {
                "start_time": 167.0159091,
                "end_time": 167.5909091,
                "pitch": 81,
                "velocity": 80,
                "duration": 0.575,
                "tempo": 120.0
            },
            {
                "start_time": 167.625,
                "end_time": 167.8477273,
                "pitch": 81,
                "velocity": 40,
                "duration": 0.2227273,
                "tempo": 120.0
            },
            {
                "start_time": 168.2318182,
                "end_time": 168.4431818,
                "pitch": 81,
                "velocity": 51,
                "duration": 0.2113636,
                "tempo": 120.0
            },
            {
                "start_time": 168.825,
                "end_time": 169.225,
                "pitch": 72,
                "velocity": 64,
                "duration": 0.4,
                "tempo": 120.0
            },
            {
                "start_time": 169.225,
                "end_time": 169.4272727,
                "pitch": 76,
                "velocity": 64,
                "duration": 0.2022727,
                "tempo": 120.0
            },
            {
                "start_time": 169.4272727,
                "end_time": 169.6340909,
                "pitch": 79,
                "velocity": 64,
                "duration": 0.2068182,
                "tempo": 120.0
            },
            {
                "start_time": 169.6340909,
                "end_time": 169.8363636,
                "pitch": 76,
                "velocity": 64,
                "duration": 0.2022727,
                "tempo": 120.0
            },
            {
                "start_time": 169.8363636,
                "end_time": 170.5659091,
                "pitch": 74,
                "velocity": 64,
                "duration": 0.7295455,
                "tempo": 120.0
            },
            {
                "start_time": 170.5659091,
                "end_time": 171.05,
                "pitch": 72,
                "velocity": 64,
                "duration": 0.4840909,
                "tempo": 120.0
            },
            {
                "start_time": 171.4431818,
                "end_time": 171.6545455,
                "pitch": 72,
                "velocity": 51,
                "duration": 0.2113636,
                "tempo": 120.0
            },
            {
                "start_time": 172.0363636,
                "end_time": 172.2386364,
                "pitch": 79,
                "velocity": 64,
                "duration": 0.2022727,
                "tempo": 120.0
            },
            {
                "start_time": 172.2386364,
                "end_time": 172.4409091,
                "pitch": 69,
                "velocity": 64,
                "duration": 0.2022727,
                "tempo": 120.0
            },
            {
                "start_time": 172.4409091,
                "end_time": 172.6409091,
                "pitch": 72,
                "velocity": 64,
                "duration": 0.2,
                "tempo": 120.0
            },
            {
                "start_time": 172.6409091,
                "end_time": 172.8477273,
                "pitch": 76,
                "velocity": 64,
                "duration": 0.2068182,
                "tempo": 120.0
            },
            {
                "start_time": 172.8477273,
                "end_time": 173.05,
                "pitch": 69,
                "velocity": 64,
                "duration": 0.2022727,
                "tempo": 120.0
            },
            {
                "start_time": 173.05,
                "end_time": 173.9136364,
                "pitch": 72,
                "velocity": 64,
                "duration": 0.8636364,
                "tempo": 120.0
            },
            {
                "start_time": 173.9136364,
                "end_time": 174.4727273,
                "pitch": 74,
                "velocity": 64,
                "duration": 0.5590909,
                "tempo": 120.0
            },
            {
                "start_time": 174.8545455,
                "end_time": 175.0681818,
                "pitch": 74,
                "velocity": 51,
                "duration": 0.2136364,
                "tempo": 120.0
            },
            {
                "start_time": 175.4545455,
                "end_time": 176.7522727,
                "pitch": 72,
                "velocity": 64,
                "duration": 1.2977273,
                "tempo": 120.0
            },
            {
                "start_time": 176.8659091,
                "end_time": 176.9477273,
                "pitch": 69,
                "velocity": 80,
                "duration": 0.0818182,
                "tempo": 120.0
            },
            {
                "start_time": 177.0636364,
                "end_time": 177.1477273,
                "pitch": 67,
                "velocity": 80,
                "duration": 0.0840909,
                "tempo": 120.0
            },
            {
                "start_time": 177.2659091,
                "end_time": 177.3477273,
                "pitch": 69,
                "velocity": 80,
                "duration": 0.0818182,
                "tempo": 120.0
            }
        ],
        "Acoustic Bass": [
            {
                "start_time": 0.0,
                "end_time": 0.2,
                "pitch": 24,
                "velocity": 51,
                "duration": 0.2,
                "tempo": 120.0
            },
            {
                "start_time": 0.2159091,
                "end_time": 0.3840909,
                "pitch": 36,
                "velocity": 51,
                "duration": 0.1681818,
                "tempo": 120.0
            },
            {
                "start_time": 0.4159091,
                "end_time": 0.5840909,
                "pitch": 24,
                "velocity": 51,
                "duration": 0.1681818,
                "tempo": 120.0
            },
            {
                "start_time": 0.6181818,
                "end_time": 0.7863636,
                "pitch": 36,
                "velocity": 51,
                "duration": 0.1681818,
                "tempo": 120.0
            },
            {
                "start_time": 0.8204545,
                "end_time": 0.9863636,
                "pitch": 24,
                "velocity": 51,
                "duration": 0.1659091,
                "tempo": 120.0
            },
            {
                "start_time": 1.0204545,
                "end_time": 1.1863636,
                "pitch": 36,
                "velocity": 51,
                "duration": 0.1659091,
                "tempo": 120.0
            },
            {
                "start_time": 1.2204545,
                "end_time": 1.3863636,
                "pitch": 24,
                "velocity": 51,
                "duration": 0.1659091,
                "tempo": 120.0
            },
            {
                "start_time": 1.4204545,
                "end_time": 1.5863636,
                "pitch": 36,
                "velocity": 51,
                "duration": 0.1659091,
                "tempo": 120.0
            },
            {
                "start_time": 1.6204545,
                "end_time": 1.7863636,
                "pitch": 24,
                "velocity": 51,
                "duration": 0.1659091,
                "tempo": 120.0
            },
            {
                "start_time": 1.8204545,
                "end_time": 1.9886364,
                "pitch": 36,
                "velocity": 51,
                "duration": 0.1681818,
                "tempo": 120.0
            },
            {
                "start_time": 2.0227273,
                "end_time": 2.1886364,
                "pitch": 24,
                "velocity": 51,
                "duration": 0.1659091,
                "tempo": 120.0
            },
            {
                "start_time": 2.2227273,
                "end_time": 2.3886364,
                "pitch": 36,
                "velocity": 51,
                "duration": 0.1659091,
                "tempo": 120.0
            },
            {
                "start_time": 2.4227273,
                "end_time": 2.5886364,
                "pitch": 24,
                "velocity": 51,
                "duration": 0.1659091,
                "tempo": 120.0
            },
            {
                "start_time": 2.6227273,
                "end_time": 2.7886364,
                "pitch": 36,
                "velocity": 51,
                "duration": 0.1659091,
                "tempo": 120.0
            },
            {
                "start_time": 2.8227273,
                "end_time": 2.9886364,
                "pitch": 24,
                "velocity": 51,
                "duration": 0.1659091,
                "tempo": 120.0
            },
            {
                "start_time": 3.0227273,
                "end_time": 3.1886364,
                "pitch": 36,
                "velocity": 51,
                "duration": 0.1659091,
                "tempo": 120.0
            },
            {
                "start_time": 3.2227273,
                "end_time": 3.3909091,
                "pitch": 24,
                "velocity": 51,
                "duration": 0.1681818,
                "tempo": 120.0
            },
            {
                "start_time": 3.4227273,
                "end_time": 3.5909091,
                "pitch": 36,
                "velocity": 51,
                "duration": 0.1681818,
                "tempo": 120.0
            },
            {
                "start_time": 3.625,
                "end_time": 3.7909091,
                "pitch": 24,
                "velocity": 51,
                "duration": 0.1659091,
                "tempo": 120.0
            },
            {
                "start_time": 3.825,
                "end_time": 3.9909091,
                "pitch": 36,
                "velocity": 51,
                "duration": 0.1659091,
                "tempo": 120.0
            },
            {
                "start_time": 4.025,
                "end_time": 4.1909091,
                "pitch": 24,
                "velocity": 51,
                "duration": 0.1659091,
                "tempo": 120.0
            },
            {
                "start_time": 4.225,
                "end_time": 4.3909091,
                "pitch": 36,
                "velocity": 51,
                "duration": 0.1659091,
                "tempo": 120.0
            },
            {
                "start_time": 4.425,
                "end_time": 4.5909091,
                "pitch": 24,
                "velocity": 51,
                "duration": 0.1659091,
                "tempo": 120.0
            },
            {
                "start_time": 4.625,
                "end_time": 4.7909091,
                "pitch": 36,
                "velocity": 51,
                "duration": 0.1659091,
                "tempo": 120.0
            },
            {
                "start_time": 4.825,
                "end_time": 4.9931818,
                "pitch": 24,
                "velocity": 51,
                "duration": 0.1681818,
                "tempo": 120.0
            },
            {
                "start_time": 5.0272727,
                "end_time": 5.1931818,
                "pitch": 36,
                "velocity": 51,
                "duration": 0.1659091,
                "tempo": 120.0
            },
            {
                "start_time": 5.2272727,
                "end_time": 5.3931818,
                "pitch": 24,
                "velocity": 51,
                "duration": 0.1659091,
                "tempo": 120.0
            },
            {
                "start_time": 5.4272727,
                "end_time": 5.5931818,
                "pitch": 36,
                "velocity": 51,
                "duration": 0.1659091,
                "tempo": 120.0
            },
            {
                "start_time": 5.6272727,
                "end_time": 5.7954545,
                "pitch": 24,
                "velocity": 51,
                "duration": 0.1681818,
                "tempo": 120.0
            },
            {
                "start_time": 5.8295455,
                "end_time": 5.9977273,
                "pitch": 36,
                "velocity": 51,
                "duration": 0.1681818,
                "tempo": 120.0
            },
            {
                "start_time": 6.0295455,
                "end_time": 6.1977273,
                "pitch": 24,
                "velocity": 51,
                "duration": 0.1681818,
                "tempo": 120.0
            },
            {
                "start_time": 6.2318182,
                "end_time": 6.4,
                "pitch": 36,
                "velocity": 51,
                "duration": 0.1681818,
                "tempo": 120.0
            },
            {
                "start_time": 6.4318182,
                "end_time": 6.6,
                "pitch": 24,
                "velocity": 51,
                "duration": 0.1681818,
                "tempo": 120.0
            },
            {
                "start_time": 6.6318182,
                "end_time": 6.8,
                "pitch": 36,
                "velocity": 51,
                "duration": 0.1681818,
                "tempo": 120.0
            },
            {
                "start_time": 6.8340909,
                "end_time": 7.0,
                "pitch": 24,
                "velocity": 51,
                "duration": 0.1659091,
                "tempo": 120.0
            },
            {
                "start_time": 7.0340909,
                "end_time": 7.2022727,
                "pitch": 36,
                "velocity": 51,
                "duration": 0.1681818,
                "tempo": 120.0
            },
            {
                "start_time": 7.2363636,
                "end_time": 7.4022727,
                "pitch": 24,
                "velocity": 51,
                "duration": 0.1659091,
                "tempo": 120.0
            },
            {
                "start_time": 7.4363636,
                "end_time": 7.6022727,
                "pitch": 36,
                "velocity": 51,
                "duration": 0.1659091,
                "tempo": 120.0
            },
            {
                "start_time": 7.6363636,
                "end_time": 7.8068182,
                "pitch": 24,
                "velocity": 51,
                "duration": 0.1704545,
                "tempo": 120.0
            },
            {
                "start_time": 7.8409091,
                "end_time": 8.0136364,
                "pitch": 36,
                "velocity": 51,
                "duration": 0.1727273,
                "tempo": 120.0
            },
            {
                "start_time": 8.0454545,
                "end_time": 8.2090909,
                "pitch": 24,
                "velocity": 51,
                "duration": 0.1636364,
                "tempo": 120.0
            },
            {
                "start_time": 8.2409091,
                "end_time": 8.4045455,
                "pitch": 36,
                "velocity": 51,
                "duration": 0.1636364,
                "tempo": 120.0
            },
            {
                "start_time": 8.4386364,
                "end_time": 8.6068182,
                "pitch": 24,
                "velocity": 51,
                "duration": 0.1681818,
                "tempo": 120.0
            },
            {
                "start_time": 8.6409091,
                "end_time": 8.8068182,
                "pitch": 36,
                "velocity": 51,
                "duration": 0.1659091,
                "tempo": 120.0
            },
            {
                "start_time": 8.8409091,
                "end_time": 9.0068182,
                "pitch": 24,
                "velocity": 51,
                "duration": 0.1659091,
                "tempo": 120.0
            },
            {
                "start_time": 9.0409091,
                "end_time": 9.2068182,
                "pitch": 36,
                "velocity": 51,
                "duration": 0.1659091,
                "tempo": 120.0
            },
            {
                "start_time": 9.2409091,
                "end_time": 9.4090909,
                "pitch": 24,
                "velocity": 51,
                "duration": 0.1681818,
                "tempo": 120.0
            },
            {
                "start_time": 9.4431818,
                "end_time": 9.6113636,
                "pitch": 36,
                "velocity": 51,
                "duration": 0.1681818,
                "tempo": 120.0
            },
            {
                "start_time": 9.6431818,
                "end_time": 9.8113636,
                "pitch": 24,
                "velocity": 51,
                "duration": 0.1681818,
                "tempo": 120.0
            },
            {
                "start_time": 9.8454545,
                "end_time": 10.0136364,
                "pitch": 36,
                "velocity": 51,
                "duration": 0.1681818,
                "tempo": 120.0
            },
            {
                "start_time": 10.0454545,
                "end_time": 10.2136364,
                "pitch": 24,
                "velocity": 51,
                "duration": 0.1681818,
                "tempo": 120.0
            },
            {
                "start_time": 10.2477273,
                "end_time": 10.4159091,
                "pitch": 36,
                "velocity": 51,
                "duration": 0.1681818,
                "tempo": 120.0
            },
            {
                "start_time": 10.45,
                "end_time": 10.6181818,
                "pitch": 24,
                "velocity": 51,
                "duration": 0.1681818,
                "tempo": 120.0
            },
            {
                "start_time": 10.65,
                "end_time": 10.8181818,
                "pitch": 36,
                "velocity": 51,
                "duration": 0.1681818,
                "tempo": 120.0
            },
            {
                "start_time": 10.8522727,
                "end_time": 11.0181818,
                "pitch": 24,
                "velocity": 51,
                "duration": 0.1659091,
                "tempo": 120.0
            },
            {
                "start_time": 11.0522727,
                "end_time": 11.2181818,
                "pitch": 36,
                "velocity": 51,
                "duration": 0.1659091,
                "tempo": 120.0
            },
            {
                "start_time": 11.2522727,
                "end_time": 11.4204545,
                "pitch": 24,
                "velocity": 51,
                "duration": 0.1681818,
                "tempo": 120.0
            },
            {
                "start_time": 11.4522727,
                "end_time": 11.6204545,
                "pitch": 36,
                "velocity": 51,
                "duration": 0.1681818,
                "tempo": 120.0
            },
            {
                "start_time": 11.6545455,
                "end_time": 11.8227273,
                "pitch": 24,
                "velocity": 51,
                "duration": 0.1681818,
                "tempo": 120.0
            },
            {
                "start_time": 11.8568182,
                "end_time": 12.0227273,
                "pitch": 36,
                "velocity": 51,
                "duration": 0.1659091,
                "tempo": 120.0
            },
            {
                "start_time": 12.0568182,
                "end_time": 12.225,
                "pitch": 24,
                "velocity": 51,
                "duration": 0.1681818,
                "tempo": 120.0
            },
            {
                "start_time": 12.2590909,
                "end_time": 12.4272727,
                "pitch": 36,
                "velocity": 51,
                "duration": 0.1681818,
                "tempo": 120.0
            },
            {
                "start_time": 12.4590909,
                "end_time": 12.6272727,
                "pitch": 24,
                "velocity": 51,
                "duration": 0.1681818,
                "tempo": 120.0
            },
            {
                "start_time": 12.6613636,
                "end_time": 12.8295455,
                "pitch": 36,
                "velocity": 51,
                "duration": 0.1681818,
                "tempo": 120.0
            },
            {
                "start_time": 12.8613636,
                "end_time": 13.0295455,
                "pitch": 24,
                "velocity": 51,
                "duration": 0.1681818,
                "tempo": 120.0
            },
            {
                "start_time": 13.0613636,
                "end_time": 13.2295455,
                "pitch": 36,
                "velocity": 51,
                "duration": 0.1681818,
                "tempo": 120.0
            },
            {
                "start_time": 13.2636364,
                "end_time": 13.4340909,
                "pitch": 24,
                "velocity": 51,
                "duration": 0.1704545,
                "tempo": 120.0
            },
            {
                "start_time": 13.4681818,
                "end_time": 13.6386364,
                "pitch": 36,
                "velocity": 51,
                "duration": 0.1704545,
                "tempo": 120.0
            },
            {
                "start_time": 13.6727273,
                "end_time": 13.8363636,
                "pitch": 24,
                "velocity": 51,
                "duration": 0.1636364,
                "tempo": 120.0
            },
            {
                "start_time": 13.8681818,
                "end_time": 14.0318182,
                "pitch": 36,
                "velocity": 51,
                "duration": 0.1636364,
                "tempo": 120.0
            },
            {
                "start_time": 14.0659091,
                "end_time": 14.2363636,
                "pitch": 24,
                "velocity": 51,
                "duration": 0.1704545,
                "tempo": 120.0
            },
            {
                "start_time": 14.2704545,
                "end_time": 14.4431818,
                "pitch": 36,
                "velocity": 51,
                "duration": 0.1727273,
                "tempo": 120.0
            },
            {
                "start_time": 14.475,
                "end_time": 14.6386364,
                "pitch": 24,
                "velocity": 51,
                "duration": 0.1636364,
                "tempo": 120.0
            },
            {
                "start_time": 14.6704545,
                "end_time": 14.8340909,
                "pitch": 36,
                "velocity": 51,
                "duration": 0.1636364,
                "tempo": 120.0
            },
            {
                "start_time": 14.8681818,
                "end_time": 15.0386364,
                "pitch": 24,
                "velocity": 51,
                "duration": 0.1704545,
                "tempo": 120.0
            },
            {
                "start_time": 15.075,
                "end_time": 15.2454545,
                "pitch": 36,
                "velocity": 51,
                "duration": 0.1704545,
                "tempo": 120.0
            },
            {
                "start_time": 15.2772727,
                "end_time": 15.4409091,
                "pitch": 24,
                "velocity": 51,
                "duration": 0.1636364,
                "tempo": 120.0
            },
            {
                "start_time": 15.4727273,
                "end_time": 15.6363636,
                "pitch": 36,
                "velocity": 51,
                "duration": 0.1636364,
                "tempo": 120.0
            },
            {
                "start_time": 15.6704545,
                "end_time": 15.8431818,
                "pitch": 24,
                "velocity": 51,
                "duration": 0.1727273,
                "tempo": 120.0
            },
            {
                "start_time": 15.8772727,
                "end_time": 16.0477273,
                "pitch": 36,
                "velocity": 51,
                "duration": 0.1704545,
                "tempo": 120.0
            },
            {
                "start_time": 16.0795455,
                "end_time": 16.2431818,
                "pitch": 24,
                "velocity": 51,
                "duration": 0.1636364,
                "tempo": 120.0
            },
            {
                "start_time": 16.2772727,
                "end_time": 16.4409091,
                "pitch": 36,
                "velocity": 51,
                "duration": 0.1636364,
                "tempo": 120.0
            },
            {
                "start_time": 16.4727273,
                "end_time": 16.6454545,
                "pitch": 24,
                "velocity": 51,
                "duration": 0.1727273,
                "tempo": 120.0
            },
            {
                "start_time": 16.6795455,
                "end_time": 16.85,
                "pitch": 36,
                "velocity": 51,
                "duration": 0.1704545,
                "tempo": 120.0
            },
            {
                "start_time": 16.8840909,
                "end_time": 17.0454545,
                "pitch": 24,
                "velocity": 51,
                "duration": 0.1613636,
                "tempo": 120.0
            },
            {
                "start_time": 17.0795455,
                "end_time": 17.2431818,
                "pitch": 36,
                "velocity": 51,
                "duration": 0.1636364,
                "tempo": 120.0
            },
            {
                "start_time": 17.2772727,
                "end_time": 17.4477273,
                "pitch": 24,
                "velocity": 51,
                "duration": 0.1704545,
                "tempo": 120.0
            },
            {
                "start_time": 17.4818182,
                "end_time": 17.6522727,
                "pitch": 36,
                "velocity": 51,
                "duration": 0.1704545,
                "tempo": 120.0
            },
            {
                "start_time": 17.6863636,
                "end_time": 17.85,
                "pitch": 24,
                "velocity": 51,
                "duration": 0.1636364,
                "tempo": 120.0
            },
            {
                "start_time": 17.8818182,
                "end_time": 18.0454545,
                "pitch": 36,
                "velocity": 51,
                "duration": 0.1636364,
                "tempo": 120.0
            },
            {
                "start_time": 18.0795455,
                "end_time": 18.25,
                "pitch": 24,
                "velocity": 51,
                "duration": 0.1704545,
                "tempo": 120.0
            },
            {
                "start_time": 18.2840909,
                "end_time": 18.4545455,
                "pitch": 36,
                "velocity": 51,
                "duration": 0.1704545,
                "tempo": 120.0
            },
            {
                "start_time": 18.4886364,
                "end_time": 18.6522727,
                "pitch": 24,
                "velocity": 51,
                "duration": 0.1636364,
                "tempo": 120.0
            },
            {
                "start_time": 18.6840909,
                "end_time": 18.8477273,
                "pitch": 36,
                "velocity": 51,
                "duration": 0.1636364,
                "tempo": 120.0
            },
            {
                "start_time": 18.8818182,
                "end_time": 19.0522727,
                "pitch": 24,
                "velocity": 51,
                "duration": 0.1704545,
                "tempo": 120.0
            },
            {
                "start_time": 19.0863636,
                "end_time": 19.2590909,
                "pitch": 36,
                "velocity": 51,
                "duration": 0.1727273,
                "tempo": 120.0
            },
            {
                "start_time": 19.2909091,
                "end_time": 19.4545455,
                "pitch": 24,
                "velocity": 51,
                "duration": 0.1636364,
                "tempo": 120.0
            },
            {
                "start_time": 19.4863636,
                "end_time": 19.65,
                "pitch": 36,
                "velocity": 51,
                "duration": 0.1636364,
                "tempo": 120.0
            },
            {
                "start_time": 19.6840909,
                "end_time": 19.85,
                "pitch": 24,
                "velocity": 51,
                "duration": 0.1659091,
                "tempo": 120.0
            },
            {
                "start_time": 19.8840909,
                "end_time": 20.05,
                "pitch": 36,
                "velocity": 51,
                "duration": 0.1659091,
                "tempo": 120.0
            },
            {
                "start_time": 20.0840909,
                "end_time": 20.2522727,
                "pitch": 24,
                "velocity": 51,
                "duration": 0.1681818,
                "tempo": 120.0
            },
            {
                "start_time": 20.2863636,
                "end_time": 20.4522727,
                "pitch": 36,
                "velocity": 51,
                "duration": 0.1659091,
                "tempo": 120.0
            },
            {
                "start_time": 20.4863636,
                "end_time": 20.6522727,
                "pitch": 24,
                "velocity": 51,
                "duration": 0.1659091,
                "tempo": 120.0
            },
            {
                "start_time": 20.6863636,
                "end_time": 20.8522727,
                "pitch": 36,
                "velocity": 51,
                "duration": 0.1659091,
                "tempo": 120.0
            },
            {
                "start_time": 20.8863636,
                "end_time": 21.0545455,
                "pitch": 24,
                "velocity": 51,
                "duration": 0.1681818,
                "tempo": 120.0
            },
            {
                "start_time": 21.0886364,
                "end_time": 21.2568182,
                "pitch": 36,
                "velocity": 51,
                "duration": 0.1681818,
                "tempo": 120.0
            },
            {
                "start_time": 21.2886364,
                "end_time": 21.4568182,
                "pitch": 24,
                "velocity": 51,
                "duration": 0.1681818,
                "tempo": 120.0
            },
            {
                "start_time": 21.4886364,
                "end_time": 21.6568182,
                "pitch": 36,
                "velocity": 51,
                "duration": 0.1681818,
                "tempo": 120.0
            },
            {
                "start_time": 21.6886364,
                "end_time": 21.8568182,
                "pitch": 24,
                "velocity": 51,
                "duration": 0.1681818,
                "tempo": 120.0
            },
            {
                "start_time": 21.8886364,
                "end_time": 22.0568182,
                "pitch": 36,
                "velocity": 51,
                "duration": 0.1681818,
                "tempo": 120.0
            },
            {
                "start_time": 22.0886364,
                "end_time": 22.2568182,
                "pitch": 24,
                "velocity": 51,
                "duration": 0.1681818,
                "tempo": 120.0
            },
            {
                "start_time": 22.2909091,
                "end_time": 22.4590909,
                "pitch": 36,
                "velocity": 51,
                "duration": 0.1681818,
                "tempo": 120.0
            },
            {
                "start_time": 22.4931818,
                "end_time": 22.6636364,
                "pitch": 24,
                "velocity": 51,
                "duration": 0.1704545,
                "tempo": 120.0
            },
            {
                "start_time": 22.6977273,
                "end_time": 22.8681818,
                "pitch": 24,
                "velocity": 51,
                "duration": 0.1704545,
                "tempo": 120.0
            },
            {
                "start_time": 22.9022727,
                "end_time": 23.0659091,
                "pitch": 24,
                "velocity": 51,
                "duration": 0.1636364,
                "tempo": 120.0
            },
            {
                "start_time": 23.4954545,
                "end_time": 23.6613636,
                "pitch": 24,
                "velocity": 51,
                "duration": 0.1659091,
                "tempo": 120.0
            },
            {
                "start_time": 23.8954545,
                "end_time": 24.0613636,
                "pitch": 24,
                "velocity": 51,
                "duration": 0.1659091,
                "tempo": 120.0
            },
            {
                "start_time": 25.7,
                "end_time": 25.8659091,
                "pitch": 24,
                "velocity": 51,
                "duration": 0.1659091,
                "tempo": 120.0
            },
            {
                "start_time": 25.9,
                "end_time": 26.0659091,
                "pitch": 36,
                "velocity": 51,
                "duration": 0.1659091,
                "tempo": 120.0
            },
            {
                "start_time": 26.1,
                "end_time": 26.2681818,
                "pitch": 24,
                "velocity": 51,
                "duration": 0.1681818,
                "tempo": 120.0
            },
            {
                "start_time": 26.3022727,
                "end_time": 26.4704545,
                "pitch": 36,
                "velocity": 51,
                "duration": 0.1681818,
                "tempo": 120.0
            },
            {
                "start_time": 26.5045455,
                "end_time": 26.675,
                "pitch": 24,
                "velocity": 51,
                "duration": 0.1704545,
                "tempo": 120.0
            },
            {
                "start_time": 26.7090909,
                "end_time": 26.8795455,
                "pitch": 36,
                "velocity": 51,
                "duration": 0.1704545,
                "tempo": 120.0
            },
            {
                "start_time": 26.9136364,
                "end_time": 27.0772727,
                "pitch": 24,
                "velocity": 51,
                "duration": 0.1636364,
                "tempo": 120.0
            },
            {
                "start_time": 27.1090909,
                "end_time": 27.2727273,
                "pitch": 36,
                "velocity": 51,
                "duration": 0.1636364,
                "tempo": 120.0
            },
            {
                "start_time": 27.3068182,
                "end_time": 27.4727273,
                "pitch": 24,
                "velocity": 51,
                "duration": 0.1659091,
                "tempo": 120.0
            },
            {
                "start_time": 27.5068182,
                "end_time": 27.6727273,
                "pitch": 36,
                "velocity": 51,
                "duration": 0.1659091,
                "tempo": 120.0
            },
            {
                "start_time": 27.7068182,
                "end_time": 27.8727273,
                "pitch": 24,
                "velocity": 51,
                "duration": 0.1659091,
                "tempo": 120.0
            },
            {
                "start_time": 27.9068182,
                "end_time": 28.0727273,
                "pitch": 36,
                "velocity": 51,
                "duration": 0.1659091,
                "tempo": 120.0
            },
            {
                "start_time": 28.1068182,
                "end_time": 28.2772727,
                "pitch": 24,
                "velocity": 51,
                "duration": 0.1704545,
                "tempo": 120.0
            },
            {
                "start_time": 28.3113636,
                "end_time": 28.4840909,
                "pitch": 36,
                "velocity": 51,
                "duration": 0.1727273,
                "tempo": 120.0
            },
            {
                "start_time": 28.5159091,
                "end_time": 28.6795455,
                "pitch": 24,
                "velocity": 51,
                "duration": 0.1636364,
                "tempo": 120.0
            },
            {
                "start_time": 28.7113636,
                "end_time": 28.875,
                "pitch": 36,
                "velocity": 51,
                "duration": 0.1636364,
                "tempo": 120.0
            },
            {
                "start_time": 28.9090909,
                "end_time": 29.0772727,
                "pitch": 34,
                "velocity": 51,
                "duration": 0.1681818,
                "tempo": 120.0
            },
            {
                "start_time": 29.1090909,
                "end_time": 29.2772727,
                "pitch": 46,
                "velocity": 51,
                "duration": 0.1681818,
                "tempo": 120.0
            },
            {
                "start_time": 29.3113636,
                "end_time": 29.4772727,
                "pitch": 34,
                "velocity": 51,
                "duration": 0.1659091,
                "tempo": 120.0
            },
            {
                "start_time": 29.5113636,
                "end_time": 29.6772727,
                "pitch": 46,
                "velocity": 51,
                "duration": 0.1659091,
                "tempo": 120.0
            },
            {
                "start_time": 29.7113636,
                "end_time": 29.8840909,
                "pitch": 34,
                "velocity": 51,
                "duration": 0.1727273,
                "tempo": 120.0
            },
            {
                "start_time": 29.9181818,
                "end_time": 30.0886364,
                "pitch": 46,
                "velocity": 51,
                "duration": 0.1704545,
                "tempo": 120.0
            },
            {
                "start_time": 30.1204545,
                "end_time": 30.2840909,
                "pitch": 34,
                "velocity": 51,
                "duration": 0.1636364,
                "tempo": 120.0
            },
            {
                "start_time": 30.3181818,
                "end_time": 30.4818182,
                "pitch": 46,
                "velocity": 51,
                "duration": 0.1636364,
                "tempo": 120.0
            },
            {
                "start_time": 30.5136364,
                "end_time": 30.6818182,
                "pitch": 34,
                "velocity": 51,
                "duration": 0.1681818,
                "tempo": 120.0
            },
            {
                "start_time": 30.7136364,
                "end_time": 30.8818182,
                "pitch": 46,
                "velocity": 51,
                "duration": 0.1681818,
                "tempo": 120.0
            },
            {
                "start_time": 30.9136364,
                "end_time": 31.0818182,
                "pitch": 34,
                "velocity": 51,
                "duration": 0.1681818,
                "tempo": 120.0
            },
            {
                "start_time": 31.1159091,
                "end_time": 31.2840909,
                "pitch": 46,
                "velocity": 51,
                "duration": 0.1681818,
                "tempo": 120.0
            },
            {
                "start_time": 31.3181818,
                "end_time": 31.4886364,
                "pitch": 34,
                "velocity": 51,
                "duration": 0.1704545,
                "tempo": 120.0
            },
            {
                "start_time": 31.5227273,
                "end_time": 31.6931818,
                "pitch": 46,
                "velocity": 51,
                "duration": 0.1704545,
                "tempo": 120.0
            },
            {
                "start_time": 31.7272727,
                "end_time": 31.8909091,
                "pitch": 34,
                "velocity": 51,
                "duration": 0.1636364,
                "tempo": 120.0
            },
            {
                "start_time": 31.9227273,
                "end_time": 32.0863636,
                "pitch": 46,
                "velocity": 51,
                "duration": 0.1636364,
                "tempo": 120.0
            },
            {
                "start_time": 32.1204545,
                "end_time": 32.2886364,
                "pitch": 33,
                "velocity": 51,
                "duration": 0.1681818,
                "tempo": 120.0
            },
            {
                "start_time": 32.3204545,
                "end_time": 32.4886364,
                "pitch": 45,
                "velocity": 51,
                "duration": 0.1681818,
                "tempo": 120.0
            },
            {
                "start_time": 32.5227273,
                "end_time": 32.6909091,
                "pitch": 33,
                "velocity": 51,
                "duration": 0.1681818,
                "tempo": 120.0
            },
            {
                "start_time": 32.725,
                "end_time": 32.8909091,
                "pitch": 45,
                "velocity": 51,
                "duration": 0.1659091,
                "tempo": 120.0
            },
            {
                "start_time": 32.925,
                "end_time": 33.0977273,
                "pitch": 33,
                "velocity": 51,
                "duration": 0.1727273,
                "tempo": 120.0
            },
            {
                "start_time": 33.1318182,
                "end_time": 33.3022727,
                "pitch": 45,
                "velocity": 51,
                "duration": 0.1704545,
                "tempo": 120.0
            },
            {
                "start_time": 33.3340909,
                "end_time": 33.4977273,
                "pitch": 33,
                "velocity": 51,
                "duration": 0.1636364,
                "tempo": 120.0
            },
            {
                "start_time": 33.5318182,
                "end_time": 33.6954545,
                "pitch": 45,
                "velocity": 51,
                "duration": 0.1636364,
                "tempo": 120.0
            },
            {
                "start_time": 33.7272727,
                "end_time": 33.8954545,
                "pitch": 33,
                "velocity": 51,
                "duration": 0.1681818,
                "tempo": 120.0
            },
            {
                "start_time": 33.9272727,
                "end_time": 34.0954545,
                "pitch": 45,
                "velocity": 51,
                "duration": 0.1681818,
                "tempo": 120.0
            },
            {
                "start_time": 34.1272727,
                "end_time": 34.2954545,
                "pitch": 33,
                "velocity": 51,
                "duration": 0.1681818,
                "tempo": 120.0
            },
            {
                "start_time": 34.3272727,
                "end_time": 34.4954545,
                "pitch": 45,
                "velocity": 51,
                "duration": 0.1681818,
                "tempo": 120.0
            },
            {
                "start_time": 34.5272727,
                "end_time": 34.6954545,
                "pitch": 33,
                "velocity": 51,
                "duration": 0.1681818,
                "tempo": 120.0
            },
            {
                "start_time": 34.7295455,
                "end_time": 34.8977273,
                "pitch": 45,
                "velocity": 51,
                "duration": 0.1681818,
                "tempo": 120.0
            },
            {
                "start_time": 34.9318182,
                "end_time": 35.1022727,
                "pitch": 33,
                "velocity": 51,
                "duration": 0.1704545,
                "tempo": 120.0
            },
            {
                "start_time": 35.1363636,
                "end_time": 35.3090909,
                "pitch": 45,
                "velocity": 51,
                "duration": 0.1727273,
                "tempo": 120.0
            },
            {
                "start_time": 35.3409091,
                "end_time": 35.5045455,
                "pitch": 29,
                "velocity": 51,
                "duration": 0.1636364,
                "tempo": 120.0
            },
            {
                "start_time": 35.5363636,
                "end_time": 35.7,
                "pitch": 41,
                "velocity": 51,
                "duration": 0.1636364,
                "tempo": 120.0
            },
            {
                "start_time": 35.7340909,
                "end_time": 35.9,
                "pitch": 29,
                "velocity": 51,
                "duration": 0.1659091,
                "tempo": 120.0
            },
            {
                "start_time": 35.9340909,
                "end_time": 36.1,
                "pitch": 41,
                "velocity": 51,
                "duration": 0.1659091,
                "tempo": 120.0
            },
            {
                "start_time": 36.1340909,
                "end_time": 36.3,
                "pitch": 29,
                "velocity": 51,
                "duration": 0.1659091,
                "tempo": 120.0
            },
            {
                "start_time": 36.3340909,
                "end_time": 36.5,
                "pitch": 41,
                "velocity": 51,
                "duration": 0.1659091,
                "tempo": 120.0
            },
            {
                "start_time": 36.5340909,
                "end_time": 36.7022727,
                "pitch": 29,
                "velocity": 51,
                "duration": 0.1681818,
                "tempo": 120.0
            },
            {
                "start_time": 36.7340909,
                "end_time": 36.9022727,
                "pitch": 41,
                "velocity": 51,
                "duration": 0.1681818,
                "tempo": 120.0
            },
            {
                "start_time": 36.9363636,
                "end_time": 37.1022727,
                "pitch": 29,
                "velocity": 51,
                "duration": 0.1659091,
                "tempo": 120.0
            },
            {
                "start_time": 37.1363636,
                "end_time": 37.3022727,
                "pitch": 41,
                "velocity": 51,
                "duration": 0.1659091,
                "tempo": 120.0
            },
            {
                "start_time": 37.3363636,
                "end_time": 37.5022727,
                "pitch": 29,
                "velocity": 51,
                "duration": 0.1659091,
                "tempo": 120.0
            },
            {
                "start_time": 37.5363636,
                "end_time": 37.7022727,
                "pitch": 41,
                "velocity": 51,
                "duration": 0.1659091,
                "tempo": 120.0
            },
            {
                "start_time": 37.7363636,
                "end_time": 37.9022727,
                "pitch": 29,
                "velocity": 51,
                "duration": 0.1659091,
                "tempo": 120.0
            },
            {
                "start_time": 37.9363636,
                "end_time": 38.1022727,
                "pitch": 41,
                "velocity": 51,
                "duration": 0.1659091,
                "tempo": 120.0
            },
            {
                "start_time": 38.1363636,
                "end_time": 38.3022727,
                "pitch": 29,
                "velocity": 51,
                "duration": 0.1659091,
                "tempo": 120.0
            },
            {
                "start_time": 38.3363636,
                "end_time": 38.5022727,
                "pitch": 41,
                "velocity": 51,
                "duration": 0.1659091,
                "tempo": 120.0
            },
            {
                "start_time": 38.5363636,
                "end_time": 38.7045455,
                "pitch": 24,
                "velocity": 51,
                "duration": 0.1681818,
                "tempo": 120.0
            },
            {
                "start_time": 38.7386364,
                "end_time": 38.9045455,
                "pitch": 36,
                "velocity": 51,
                "duration": 0.1659091,
                "tempo": 120.0
            },
            {
                "start_time": 38.9386364,
                "end_time": 39.1045455,
                "pitch": 24,
                "velocity": 51,
                "duration": 0.1659091,
                "tempo": 120.0
            },
            {
                "start_time": 39.1386364,
                "end_time": 39.3045455,
                "pitch": 36,
                "velocity": 51,
                "duration": 0.1659091,
                "tempo": 120.0
            },
            {
                "start_time": 39.3386364,
                "end_time": 39.5113636,
                "pitch": 24,
                "velocity": 51,
                "duration": 0.1727273,
                "tempo": 120.0
            },
            {
                "start_time": 39.5454545,
                "end_time": 39.7159091,
                "pitch": 36,
                "velocity": 51,
                "duration": 0.1704545,
                "tempo": 120.0
            },
            {
                "start_time": 39.75,
                "end_time": 39.9113636,
                "pitch": 24,
                "velocity": 51,
                "duration": 0.1613636,
                "tempo": 120.0
            },
            {
                "start_time": 39.9454545,
                "end_time": 40.1090909,
                "pitch": 36,
                "velocity": 51,
                "duration": 0.1636364,
                "tempo": 120.0
            },
            {
                "start_time": 40.1409091,
                "end_time": 40.3090909,
                "pitch": 24,
                "velocity": 51,
                "duration": 0.1681818,
                "tempo": 120.0
            },
            {
                "start_time": 40.3409091,
                "end_time": 40.5090909,
                "pitch": 36,
                "velocity": 51,
                "duration": 0.1681818,
                "tempo": 120.0
            },
            {
                "start_time": 40.5431818,
                "end_time": 40.7136364,
                "pitch": 24,
                "velocity": 51,
                "duration": 0.1704545,
                "tempo": 120.0
            },
            {
                "start_time": 40.7477273,
                "end_time": 40.9181818,
                "pitch": 36,
                "velocity": 51,
                "duration": 0.1704545,
                "tempo": 120.0
            },
            {
                "start_time": 40.9522727,
                "end_time": 41.1204545,
                "pitch": 24,
                "velocity": 51,
                "duration": 0.1681818,
                "tempo": 120.0
            },
            {
                "start_time": 41.1522727,
                "end_time": 41.3204545,
                "pitch": 36,
                "velocity": 51,
                "duration": 0.1681818,
                "tempo": 120.0
            },
            {
                "start_time": 41.3522727,
                "end_time": 41.5159091,
                "pitch": 24,
                "velocity": 51,
                "duration": 0.1636364,
                "tempo": 120.0
            },
            {
                "start_time": 41.5477273,
                "end_time": 41.7113636,
                "pitch": 36,
                "velocity": 51,
                "duration": 0.1636364,
                "tempo": 120.0
            },
            {
                "start_time": 41.7454545,
                "end_time": 41.9113636,
                "pitch": 34,
                "velocity": 51,
                "duration": 0.1659091,
                "tempo": 120.0
            },
            {
                "start_time": 41.9454545,
                "end_time": 42.1113636,
                "pitch": 46,
                "velocity": 51,
                "duration": 0.1659091,
                "tempo": 120.0
            },
            {
                "start_time": 42.1454545,
                "end_time": 42.3113636,
                "pitch": 34,
                "velocity": 51,
                "duration": 0.1659091,
                "tempo": 120.0
            },
            {
                "start_time": 42.3454545,
                "end_time": 42.5113636,
                "pitch": 46,
                "velocity": 51,
                "duration": 0.1659091,
                "tempo": 120.0
            },
            {
                "start_time": 42.5454545,
                "end_time": 42.7159091,
                "pitch": 34,
                "velocity": 51,
                "duration": 0.1704545,
                "tempo": 120.0
            },
            {
                "start_time": 42.75,
                "end_time": 42.9227273,
                "pitch": 46,
                "velocity": 51,
                "duration": 0.1727273,
                "tempo": 120.0
            },
            {
                "start_time": 42.9545455,
                "end_time": 43.1181818,
                "pitch": 34,
                "velocity": 51,
                "duration": 0.1636364,
                "tempo": 120.0
            },
            {
                "start_time": 43.15,
                "end_time": 43.3136364,
                "pitch": 46,
                "velocity": 51,
                "duration": 0.1636364,
                "tempo": 120.0
            },
            {
                "start_time": 43.3477273,
                "end_time": 43.5136364,
                "pitch": 34,
                "velocity": 51,
                "duration": 0.1659091,
                "tempo": 120.0
            },
            {
                "start_time": 43.5477273,
                "end_time": 43.7136364,
                "pitch": 46,
                "velocity": 51,
                "duration": 0.1659091,
                "tempo": 120.0
            },
            {
                "start_time": 43.7477273,
                "end_time": 43.9136364,
                "pitch": 34,
                "velocity": 51,
                "duration": 0.1659091,
                "tempo": 120.0
            },
            {
                "start_time": 43.9477273,
                "end_time": 44.1136364,
                "pitch": 46,
                "velocity": 51,
                "duration": 0.1659091,
                "tempo": 120.0
            },
            {
                "start_time": 44.1477273,
                "end_time": 44.3204545,
                "pitch": 34,
                "velocity": 51,
                "duration": 0.1727273,
                "tempo": 120.0
            },
            {
                "start_time": 44.3545455,
                "end_time": 44.525,
                "pitch": 46,
                "velocity": 51,
                "duration": 0.1704545,
                "tempo": 120.0
            },
            {
                "start_time": 44.5568182,
                "end_time": 44.7204545,
                "pitch": 34,
                "velocity": 51,
                "duration": 0.1636364,
                "tempo": 120.0
            },
            {
                "start_time": 44.7545455,
                "end_time": 44.9181818,
                "pitch": 46,
                "velocity": 51,
                "duration": 0.1636364,
                "tempo": 120.0
            },
            {
                "start_time": 44.95,
                "end_time": 45.1181818,
                "pitch": 33,
                "velocity": 51,
                "duration": 0.1681818,
                "tempo": 120.0
            },
            {
                "start_time": 45.15,
                "end_time": 45.3181818,
                "pitch": 45,
                "velocity": 51,
                "duration": 0.1681818,
                "tempo": 120.0
            },
            {
                "start_time": 45.35,
                "end_time": 45.5181818,
                "pitch": 33,
                "velocity": 51,
                "duration": 0.1681818,
                "tempo": 120.0
            },
            {
                "start_time": 45.55,
                "end_time": 45.7181818,
                "pitch": 45,
                "velocity": 51,
                "duration": 0.1681818,
                "tempo": 120.0
            },
            {
                "start_time": 45.7522727,
                "end_time": 45.9227273,
                "pitch": 33,
                "velocity": 51,
                "duration": 0.1704545,
                "tempo": 120.0
            },
            {
                "start_time": 45.9568182,
                "end_time": 46.1272727,
                "pitch": 45,
                "velocity": 51,
                "duration": 0.1704545,
                "tempo": 120.0
            },
            {
                "start_time": 46.1613636,
                "end_time": 46.325,
                "pitch": 33,
                "velocity": 51,
                "duration": 0.1636364,
                "tempo": 120.0
            },
            {
                "start_time": 46.3568182,
                "end_time": 46.5204545,
                "pitch": 45,
                "velocity": 51,
                "duration": 0.1636364,
                "tempo": 120.0
            },
            {
                "start_time": 46.5545455,
                "end_time": 46.7204545,
                "pitch": 33,
                "velocity": 51,
                "duration": 0.1659091,
                "tempo": 120.0
            },
            {
                "start_time": 46.7545455,
                "end_time": 46.9227273,
                "pitch": 45,
                "velocity": 51,
                "duration": 0.1681818,
                "tempo": 120.0
            },
            {
                "start_time": 46.9568182,
                "end_time": 47.1227273,
                "pitch": 33,
                "velocity": 51,
                "duration": 0.1659091,
                "tempo": 120.0
            },
            {
                "start_time": 47.1568182,
                "end_time": 47.3227273,
                "pitch": 45,
                "velocity": 51,
                "duration": 0.1659091,
                "tempo": 120.0
            },
            {
                "start_time": 47.3568182,
                "end_time": 47.5227273,
                "pitch": 33,
                "velocity": 51,
                "duration": 0.1659091,
                "tempo": 120.0
            },
            {
                "start_time": 47.5568182,
                "end_time": 47.7227273,
                "pitch": 45,
                "velocity": 51,
                "duration": 0.1659091,
                "tempo": 120.0
            },
            {
                "start_time": 47.7568182,
                "end_time": 47.9272727,
                "pitch": 33,
                "velocity": 51,
                "duration": 0.1704545,
                "tempo": 120.0
            },
            {
                "start_time": 47.9613636,
                "end_time": 48.1340909,
                "pitch": 45,
                "velocity": 51,
                "duration": 0.1727273,
                "tempo": 120.0
            },
            {
                "start_time": 48.1659091,
                "end_time": 48.3295455,
                "pitch": 29,
                "velocity": 51,
                "duration": 0.1636364,
                "tempo": 120.0
            },
            {
                "start_time": 48.3613636,
                "end_time": 48.525,
                "pitch": 41,
                "velocity": 51,
                "duration": 0.1636364,
                "tempo": 120.0
            },
            {
                "start_time": 48.5590909,
                "end_time": 48.7272727,
                "pitch": 29,
                "velocity": 51,
                "duration": 0.1681818,
                "tempo": 120.0
            },
            {
                "start_time": 48.7613636,
                "end_time": 48.9272727,
                "pitch": 41,
                "velocity": 51,
                "duration": 0.1659091,
                "tempo": 120.0
            },
            {
                "start_time": 48.9613636,
                "end_time": 49.1272727,
                "pitch": 29,
                "velocity": 51,
                "duration": 0.1659091,
                "tempo": 120.0
            },
            {
                "start_time": 49.1613636,
                "end_time": 49.3272727,
                "pitch": 41,
                "velocity": 51,
                "duration": 0.1659091,
                "tempo": 120.0
            },
            {
                "start_time": 49.3613636,
                "end_time": 49.5272727,
                "pitch": 29,
                "velocity": 51,
                "duration": 0.1659091,
                "tempo": 120.0
            },
            {
                "start_time": 49.5613636,
                "end_time": 49.7272727,
                "pitch": 41,
                "velocity": 51,
                "duration": 0.1659091,
                "tempo": 120.0
            },
            {
                "start_time": 49.7613636,
                "end_time": 49.9272727,
                "pitch": 29,
                "velocity": 51,
                "duration": 0.1659091,
                "tempo": 120.0
            },
            {
                "start_time": 49.9613636,
                "end_time": 50.1272727,
                "pitch": 41,
                "velocity": 51,
                "duration": 0.1659091,
                "tempo": 120.0
            },
            {
                "start_time": 50.1613636,
                "end_time": 50.3272727,
                "pitch": 29,
                "velocity": 51,
                "duration": 0.1659091,
                "tempo": 120.0
            },
            {
                "start_time": 50.3613636,
                "end_time": 50.5272727,
                "pitch": 41,
                "velocity": 51,
                "duration": 0.1659091,
                "tempo": 120.0
            },
            {
                "start_time": 50.5613636,
                "end_time": 50.7295455,
                "pitch": 29,
                "velocity": 51,
                "duration": 0.1681818,
                "tempo": 120.0
            },
            {
                "start_time": 50.7636364,
                "end_time": 50.9318182,
                "pitch": 41,
                "velocity": 51,
                "duration": 0.1681818,
                "tempo": 120.0
            },
            {
                "start_time": 50.9636364,
                "end_time": 51.1318182,
                "pitch": 29,
                "velocity": 51,
                "duration": 0.1681818,
                "tempo": 120.0
            },
            {
                "start_time": 51.1636364,
                "end_time": 51.3318182,
                "pitch": 41,
                "velocity": 51,
                "duration": 0.1681818,
                "tempo": 120.0
            },
            {
                "start_time": 51.3636364,
                "end_time": 51.5318182,
                "pitch": 28,
                "velocity": 51,
                "duration": 0.1681818,
                "tempo": 120.0
            },
            {
                "start_time": 51.5636364,
                "end_time": 51.7318182,
                "pitch": 40,
                "velocity": 51,
                "duration": 0.1681818,
                "tempo": 120.0
            },
            {
                "start_time": 51.7636364,
                "end_time": 51.9318182,
                "pitch": 28,
                "velocity": 51,
                "duration": 0.1681818,
                "tempo": 120.0
            },
            {
                "start_time": 51.9636364,
                "end_time": 52.1318182,
                "pitch": 40,
                "velocity": 51,
                "duration": 0.1681818,
                "tempo": 120.0
            },
            {
                "start_time": 52.1636364,
                "end_time": 52.3318182,
                "pitch": 28,
                "velocity": 51,
                "duration": 0.1681818,
                "tempo": 120.0
            },
            {
                "start_time": 52.3636364,
                "end_time": 52.5318182,
                "pitch": 40,
                "velocity": 51,
                "duration": 0.1681818,
                "tempo": 120.0
            },
            {
                "start_time": 52.5659091,
                "end_time": 52.7363636,
                "pitch": 28,
                "velocity": 51,
                "duration": 0.1704545,
                "tempo": 120.0
            },
            {
                "start_time": 52.7704545,
                "end_time": 52.9409091,
                "pitch": 40,
                "velocity": 51,
                "duration": 0.1704545,
                "tempo": 120.0
            },
            {
                "start_time": 52.975,
                "end_time": 53.1386364,
                "pitch": 28,
                "velocity": 51,
                "duration": 0.1636364,
                "tempo": 120.0
            },
            {
                "start_time": 53.1704545,
                "end_time": 53.3340909,
                "pitch": 40,
                "velocity": 51,
                "duration": 0.1636364,
                "tempo": 120.0
            },
            {
                "start_time": 53.3681818,
                "end_time": 53.5386364,
                "pitch": 28,
                "velocity": 51,
                "duration": 0.1704545,
                "tempo": 120.0
            },
            {
                "start_time": 53.5727273,
                "end_time": 53.7431818,
                "pitch": 40,
                "velocity": 51,
                "duration": 0.1704545,
                "tempo": 120.0
            },
            {
                "start_time": 53.7772727,
                "end_time": 53.9409091,
                "pitch": 28,
                "velocity": 51,
                "duration": 0.1636364,
                "tempo": 120.0
            },
            {
                "start_time": 53.9727273,
                "end_time": 54.1363636,
                "pitch": 40,
                "velocity": 51,
                "duration": 0.1636364,
                "tempo": 120.0
            },
            {
                "start_time": 54.1704545,
                "end_time": 54.3409091,
                "pitch": 28,
                "velocity": 51,
                "duration": 0.1704545,
                "tempo": 120.0
            },
            {
                "start_time": 54.375,
                "end_time": 54.5477273,
                "pitch": 40,
                "velocity": 51,
                "duration": 0.1727273,
                "tempo": 120.0
            },
            {
                "start_time": 54.5795455,
                "end_time": 54.7431818,
                "pitch": 33,
                "velocity": 51,
                "duration": 0.1636364,
                "tempo": 120.0
            },
            {
                "start_time": 54.775,
                "end_time": 54.9386364,
                "pitch": 45,
                "velocity": 51,
                "duration": 0.1636364,
                "tempo": 120.0
            },
            {
                "start_time": 54.9727273,
                "end_time": 55.1386364,
                "pitch": 33,
                "velocity": 51,
                "duration": 0.1659091,
                "tempo": 120.0
            },
            {
                "start_time": 55.1727273,
                "end_time": 55.3386364,
                "pitch": 45,
                "velocity": 51,
                "duration": 0.1659091,
                "tempo": 120.0
            },
            {
                "start_time": 55.3727273,
                "end_time": 55.5386364,
                "pitch": 33,
                "velocity": 51,
                "duration": 0.1659091,
                "tempo": 120.0
            },
            {
                "start_time": 55.5727273,
                "end_time": 55.7386364,
                "pitch": 45,
                "velocity": 51,
                "duration": 0.1659091,
                "tempo": 120.0
            },
            {
                "start_time": 55.7727273,
                "end_time": 55.9386364,
                "pitch": 33,
                "velocity": 51,
                "duration": 0.1659091,
                "tempo": 120.0
            },
            {
                "start_time": 55.9727273,
                "end_time": 56.1386364,
                "pitch": 45,
                "velocity": 51,
                "duration": 0.1659091,
                "tempo": 120.0
            },
            {
                "start_time": 56.1727273,
                "end_time": 56.3386364,
                "pitch": 33,
                "velocity": 51,
                "duration": 0.1659091,
                "tempo": 120.0
            },
            {
                "start_time": 56.3727273,
                "end_time": 56.5386364,
                "pitch": 45,
                "velocity": 51,
                "duration": 0.1659091,
                "tempo": 120.0
            },
            {
                "start_time": 56.5727273,
                "end_time": 56.7409091,
                "pitch": 33,
                "velocity": 51,
                "duration": 0.1681818,
                "tempo": 120.0
            },
            {
                "start_time": 56.775,
                "end_time": 56.9409091,
                "pitch": 45,
                "velocity": 51,
                "duration": 0.1659091,
                "tempo": 120.0
            },
            {
                "start_time": 56.975,
                "end_time": 57.1409091,
                "pitch": 33,
                "velocity": 51,
                "duration": 0.1659091,
                "tempo": 120.0
            },
            {
                "start_time": 57.175,
                "end_time": 57.3409091,
                "pitch": 45,
                "velocity": 51,
                "duration": 0.1659091,
                "tempo": 120.0
            },
            {
                "start_time": 57.375,
                "end_time": 57.5409091,
                "pitch": 33,
                "velocity": 51,
                "duration": 0.1659091,
                "tempo": 120.0
            },
            {
                "start_time": 57.575,
                "end_time": 57.7409091,
                "pitch": 45,
                "velocity": 51,
                "duration": 0.1659091,
                "tempo": 120.0
            },
            {
                "start_time": 57.775,
                "end_time": 57.9477273,
                "pitch": 26,
                "velocity": 51,
                "duration": 0.1727273,
                "tempo": 120.0
            },
            {
                "start_time": 57.9818182,
                "end_time": 58.0659091,
                "pitch": 38,
                "velocity": 51,
                "duration": 0.0840909,
                "tempo": 120.0
            },
            {
                "start_time": 58.0659091,
                "end_time": 58.1522727,
                "pitch": 38,
                "velocity": 51,
                "duration": 0.0863636,
                "tempo": 120.0
            },
            {
                "start_time": 58.1840909,
                "end_time": 58.3477273,
                "pitch": 26,
                "velocity": 51,
                "duration": 0.1636364,
                "tempo": 120.0
            },
            {
                "start_time": 58.3818182,
                "end_time": 58.4636364,
                "pitch": 38,
                "velocity": 51,
                "duration": 0.0818182,
                "tempo": 120.0
            },
            {
                "start_time": 58.4636364,
                "end_time": 58.5454545,
                "pitch": 38,
                "velocity": 51,
                "duration": 0.0818182,
                "tempo": 120.0
            },
            {
                "start_time": 58.5772727,
                "end_time": 58.7454545,
                "pitch": 26,
                "velocity": 51,
                "duration": 0.1681818,
                "tempo": 120.0
            },
            {
                "start_time": 58.7795455,
                "end_time": 58.8636364,
                "pitch": 38,
                "velocity": 51,
                "duration": 0.0840909,
                "tempo": 120.0
            },
            {
                "start_time": 58.8636364,
                "end_time": 58.9477273,
                "pitch": 38,
                "velocity": 51,
                "duration": 0.0840909,
                "tempo": 120.0
            },
            {
                "start_time": 58.9795455,
                "end_time": 59.1477273,
                "pitch": 26,
                "velocity": 51,
                "duration": 0.1681818,
                "tempo": 120.0
            },
            {
                "start_time": 59.1795455,
                "end_time": 59.2636364,
                "pitch": 38,
                "velocity": 51,
                "duration": 0.0840909,
                "tempo": 120.0
            },
            {
                "start_time": 59.2636364,
                "end_time": 59.3477273,
                "pitch": 38,
                "velocity": 51,
                "duration": 0.0840909,
                "tempo": 120.0
            },
            {
                "start_time": 59.3795455,
                "end_time": 59.5477273,
                "pitch": 26,
                "velocity": 51,
                "duration": 0.1681818,
                "tempo": 120.0
            },
            {
                "start_time": 59.5795455,
                "end_time": 59.6636364,
                "pitch": 38,
                "velocity": 51,
                "duration": 0.0840909,
                "tempo": 120.0
            },
            {
                "start_time": 59.6636364,
                "end_time": 59.7477273,
                "pitch": 38,
                "velocity": 51,
                "duration": 0.0840909,
                "tempo": 120.0
            },
            {
                "start_time": 59.7795455,
                "end_time": 59.9477273,
                "pitch": 26,
                "velocity": 51,
                "duration": 0.1681818,
                "tempo": 120.0
            },
            {
                "start_time": 59.9795455,
                "end_time": 60.0636364,
                "pitch": 38,
                "velocity": 51,
                "duration": 0.0840909,
                "tempo": 120.0
            },
            {
                "start_time": 60.0636364,
                "end_time": 60.1477273,
                "pitch": 38,
                "velocity": 51,
                "duration": 0.0840909,
                "tempo": 120.0
            },
            {
                "start_time": 60.1795455,
                "end_time": 60.3477273,
                "pitch": 26,
                "velocity": 51,
                "duration": 0.1681818,
                "tempo": 120.0
            },
            {
                "start_time": 60.3795455,
                "end_time": 60.4636364,
                "pitch": 38,
                "velocity": 51,
                "duration": 0.0840909,
                "tempo": 120.0
            },
            {
                "start_time": 60.4636364,
                "end_time": 60.5477273,
                "pitch": 38,
                "velocity": 51,
                "duration": 0.0840909,
                "tempo": 120.0
            },
            {
                "start_time": 60.5818182,
                "end_time": 60.7477273,
                "pitch": 26,
                "velocity": 51,
                "duration": 0.1659091,
                "tempo": 120.0
            },
            {
                "start_time": 60.7818182,
                "end_time": 60.8659091,
                "pitch": 38,
                "velocity": 51,
                "duration": 0.0840909,
                "tempo": 120.0
            },
            {
                "start_time": 60.8659091,
                "end_time": 60.95,
                "pitch": 38,
                "velocity": 51,
                "duration": 0.0840909,
                "tempo": 120.0
            },
            {
                "start_time": 60.9840909,
                "end_time": 61.15,
                "pitch": 29,
                "velocity": 51,
                "duration": 0.1659091,
                "tempo": 120.0
            },
            {
                "start_time": 61.1840909,
                "end_time": 61.35,
                "pitch": 41,
                "velocity": 51,
                "duration": 0.1659091,
                "tempo": 120.0
            },
            {
                "start_time": 61.3840909,
                "end_time": 61.55,
                "pitch": 29,
                "velocity": 51,
                "duration": 0.1659091,
                "tempo": 120.0
            },
            {
                "start_time": 61.5840909,
                "end_time": 61.75,
                "pitch": 41,
                "velocity": 51,
                "duration": 0.1659091,
                "tempo": 120.0
            },
            {
                "start_time": 61.7840909,
                "end_time": 61.95,
                "pitch": 29,
                "velocity": 51,
                "duration": 0.1659091,
                "tempo": 120.0
            },
            {
                "start_time": 61.9840909,
                "end_time": 62.15,
                "pitch": 41,
                "velocity": 51,
                "duration": 0.1659091,
                "tempo": 120.0
            },
            {
                "start_time": 62.1840909,
                "end_time": 62.3545455,
                "pitch": 29,
                "velocity": 51,
                "duration": 0.1704545,
                "tempo": 120.0
            },
            {
                "start_time": 62.3886364,
                "end_time": 62.5613636,
                "pitch": 41,
                "velocity": 51,
                "duration": 0.1727273,
                "tempo": 120.0
            },
            {
                "start_time": 62.5931818,
                "end_time": 62.7568182,
                "pitch": 29,
                "velocity": 51,
                "duration": 0.1636364,
                "tempo": 120.0
            },
            {
                "start_time": 62.7886364,
                "end_time": 62.9522727,
                "pitch": 41,
                "velocity": 51,
                "duration": 0.1636364,
                "tempo": 120.0
            },
            {
                "start_time": 62.9863636,
                "end_time": 63.1522727,
                "pitch": 29,
                "velocity": 51,
                "duration": 0.1659091,
                "tempo": 120.0
            },
            {
                "start_time": 63.1863636,
                "end_time": 63.3522727,
                "pitch": 41,
                "velocity": 51,
                "duration": 0.1659091,
                "tempo": 120.0
            },
            {
                "start_time": 63.3863636,
                "end_time": 63.5522727,
                "pitch": 29,
                "velocity": 51,
                "duration": 0.1659091,
                "tempo": 120.0
            },
            {
                "start_time": 63.5863636,
                "end_time": 63.7522727,
                "pitch": 41,
                "velocity": 51,
                "duration": 0.1659091,
                "tempo": 120.0
            },
            {
                "start_time": 63.7863636,
                "end_time": 63.9590909,
                "pitch": 29,
                "velocity": 51,
                "duration": 0.1727273,
                "tempo": 120.0
            },
            {
                "start_time": 63.9931818,
                "end_time": 64.1636364,
                "pitch": 41,
                "velocity": 51,
                "duration": 0.1704545,
                "tempo": 120.0
            },
            {
                "start_time": 64.1954545,
                "end_time": 64.3590909,
                "pitch": 28,
                "velocity": 51,
                "duration": 0.1636364,
                "tempo": 120.0
            },
            {
                "start_time": 64.3931818,
                "end_time": 64.5568182,
                "pitch": 40,
                "velocity": 51,
                "duration": 0.1636364,
                "tempo": 120.0
            },
            {
                "start_time": 64.5886364,
                "end_time": 64.7568182,
                "pitch": 28,
                "velocity": 51,
                "duration": 0.1681818,
                "tempo": 120.0
            },
            {
                "start_time": 64.7886364,
                "end_time": 64.9568182,
                "pitch": 40,
                "velocity": 51,
                "duration": 0.1681818,
                "tempo": 120.0
            },
            {
                "start_time": 64.9886364,
                "end_time": 65.1568182,
                "pitch": 28,
                "velocity": 51,
                "duration": 0.1681818,
                "tempo": 120.0
            },
            {
                "start_time": 65.1909091,
                "end_time": 65.3590909,
                "pitch": 40,
                "velocity": 51,
                "duration": 0.1681818,
                "tempo": 120.0
            },
            {
                "start_time": 65.3909091,
                "end_time": 65.5590909,
                "pitch": 28,
                "velocity": 51,
                "duration": 0.1681818,
                "tempo": 120.0
            },
            {
                "start_time": 65.5931818,
                "end_time": 65.7613636,
                "pitch": 40,
                "velocity": 51,
                "duration": 0.1681818,
                "tempo": 120.0
            },
            {
                "start_time": 65.7954545,
                "end_time": 65.9613636,
                "pitch": 28,
                "velocity": 51,
                "duration": 0.1659091,
                "tempo": 120.0
            },
            {
                "start_time": 65.9954545,
                "end_time": 66.1613636,
                "pitch": 40,
                "velocity": 51,
                "duration": 0.1659091,
                "tempo": 120.0
            },
            {
                "start_time": 66.1954545,
                "end_time": 66.3613636,
                "pitch": 28,
                "velocity": 51,
                "duration": 0.1659091,
                "tempo": 120.0
            },
            {
                "start_time": 66.3954545,
                "end_time": 66.5636364,
                "pitch": 40,
                "velocity": 51,
                "duration": 0.1681818,
                "tempo": 120.0
            },
            {
                "start_time": 66.5977273,
                "end_time": 66.7636364,
                "pitch": 28,
                "velocity": 51,
                "duration": 0.1659091,
                "tempo": 120.0
            },
            {
                "start_time": 66.7977273,
                "end_time": 66.9636364,
                "pitch": 40,
                "velocity": 51,
                "duration": 0.1659091,
                "tempo": 120.0
            },
            {
                "start_time": 66.9977273,
                "end_time": 67.1659091,
                "pitch": 28,
                "velocity": 51,
                "duration": 0.1681818,
                "tempo": 120.0
            },
            {
                "start_time": 67.1977273,
                "end_time": 67.3659091,
                "pitch": 40,
                "velocity": 51,
                "duration": 0.1681818,
                "tempo": 120.0
            },
            {
                "start_time": 67.4,
                "end_time": 67.5681818,
                "pitch": 33,
                "velocity": 51,
                "duration": 0.1681818,
                "tempo": 120.0
            },
            {
                "start_time": 67.6022727,
                "end_time": 67.7681818,
                "pitch": 45,
                "velocity": 51,
                "duration": 0.1659091,
                "tempo": 120.0
            },
            {
                "start_time": 67.8022727,
                "end_time": 67.9681818,
                "pitch": 33,
                "velocity": 51,
                "duration": 0.1659091,
                "tempo": 120.0
            },
            {
                "start_time": 68.0022727,
                "end_time": 68.1681818,
                "pitch": 45,
                "velocity": 51,
                "duration": 0.1659091,
                "tempo": 120.0
            },
            {
                "start_time": 68.2022727,
                "end_time": 68.3704545,
                "pitch": 33,
                "velocity": 51,
                "duration": 0.1681818,
                "tempo": 120.0
            },
            {
                "start_time": 68.4045455,
                "end_time": 68.5727273,
                "pitch": 45,
                "velocity": 51,
                "duration": 0.1681818,
                "tempo": 120.0
            },
            {
                "start_time": 68.6045455,
                "end_time": 68.7727273,
                "pitch": 33,
                "velocity": 51,
                "duration": 0.1681818,
                "tempo": 120.0
            },
            {
                "start_time": 68.8045455,
                "end_time": 68.9727273,
                "pitch": 45,
                "velocity": 51,
                "duration": 0.1681818,
                "tempo": 120.0
            },
            {
                "start_time": 69.0045455,
                "end_time": 69.1727273,
                "pitch": 33,
                "velocity": 51,
                "duration": 0.1681818,
                "tempo": 120.0
            },
            {
                "start_time": 69.2068182,
                "end_time": 69.375,
                "pitch": 45,
                "velocity": 51,
                "duration": 0.1681818,
                "tempo": 120.0
            },
            {
                "start_time": 69.4090909,
                "end_time": 69.575,
                "pitch": 33,
                "velocity": 51,
                "duration": 0.1659091,
                "tempo": 120.0
            },
            {
                "start_time": 69.6090909,
                "end_time": 69.7772727,
                "pitch": 45,
                "velocity": 51,
                "duration": 0.1681818,
                "tempo": 120.0
            },
            {
                "start_time": 69.8113636,
                "end_time": 69.9772727,
                "pitch": 33,
                "velocity": 51,
                "duration": 0.1659091,
                "tempo": 120.0
            },
            {
                "start_time": 70.0113636,
                "end_time": 70.1772727,
                "pitch": 45,
                "velocity": 51,
                "duration": 0.1659091,
                "tempo": 120.0
            },
            {
                "start_time": 70.2113636,
                "end_time": 70.3818182,
                "pitch": 33,
                "velocity": 51,
                "duration": 0.1704545,
                "tempo": 120.0
            },
            {
                "start_time": 70.4159091,
                "end_time": 70.5886364,
                "pitch": 45,
                "velocity": 51,
                "duration": 0.1727273,
                "tempo": 120.0
            },
            {
                "start_time": 70.6227273,
                "end_time": 70.7886364,
                "pitch": 26,
                "velocity": 51,
                "duration": 0.1659091,
                "tempo": 120.0
            },
            {
                "start_time": 70.8227273,
                "end_time": 70.9068182,
                "pitch": 38,
                "velocity": 51,
                "duration": 0.0840909,
                "tempo": 120.0
            },
            {
                "start_time": 70.9068182,
                "end_time": 70.9909091,
                "pitch": 38,
                "velocity": 51,
                "duration": 0.0840909,
                "tempo": 120.0
            },
            {
                "start_time": 71.025,
                "end_time": 71.1931818,
                "pitch": 26,
                "velocity": 51,
                "duration": 0.1681818,
                "tempo": 120.0
            },
            {
                "start_time": 71.225,
                "end_time": 71.3090909,
                "pitch": 38,
                "velocity": 51,
                "duration": 0.0840909,
                "tempo": 120.0
            },
            {
                "start_time": 71.3090909,
                "end_time": 71.3931818,
                "pitch": 38,
                "velocity": 51,
                "duration": 0.0840909,
                "tempo": 120.0
            },
            {
                "start_time": 71.425,
                "end_time": 71.5886364,
                "pitch": 26,
                "velocity": 51,
                "duration": 0.1636364,
                "tempo": 120.0
            },
            {
                "start_time": 71.6227273,
                "end_time": 71.7045455,
                "pitch": 38,
                "velocity": 51,
                "duration": 0.0818182,
                "tempo": 120.0
            },
            {
                "start_time": 71.7045455,
                "end_time": 71.7863636,
                "pitch": 38,
                "velocity": 51,
                "duration": 0.0818182,
                "tempo": 120.0
            },
            {
                "start_time": 71.8204545,
                "end_time": 71.9909091,
                "pitch": 26,
                "velocity": 51,
                "duration": 0.1704545,
                "tempo": 120.0
            },
            {
                "start_time": 72.025,
                "end_time": 72.1113636,
                "pitch": 38,
                "velocity": 51,
                "duration": 0.0863636,
                "tempo": 120.0
            },
            {
                "start_time": 72.1113636,
                "end_time": 72.1954545,
                "pitch": 38,
                "velocity": 51,
                "duration": 0.0840909,
                "tempo": 120.0
            },
            {
                "start_time": 72.2295455,
                "end_time": 72.3931818,
                "pitch": 26,
                "velocity": 51,
                "duration": 0.1636364,
                "tempo": 120.0
            },
            {
                "start_time": 72.425,
                "end_time": 72.5068182,
                "pitch": 38,
                "velocity": 51,
                "duration": 0.0818182,
                "tempo": 120.0
            },
            {
                "start_time": 72.5068182,
                "end_time": 72.5886364,
                "pitch": 38,
                "velocity": 51,
                "duration": 0.0818182,
                "tempo": 120.0
            },
            {
                "start_time": 72.6204545,
                "end_time": 72.7886364,
                "pitch": 26,
                "velocity": 51,
                "duration": 0.1681818,
                "tempo": 120.0
            },
            {
                "start_time": 72.8204545,
                "end_time": 72.9045455,
                "pitch": 38,
                "velocity": 51,
                "duration": 0.0840909,
                "tempo": 120.0
            },
            {
                "start_time": 72.9045455,
                "end_time": 72.9886364,
                "pitch": 38,
                "velocity": 51,
                "duration": 0.0840909,
                "tempo": 120.0
            },
            {
                "start_time": 73.0227273,
                "end_time": 73.1886364,
                "pitch": 26,
                "velocity": 51,
                "duration": 0.1659091,
                "tempo": 120.0
            },
            {
                "start_time": 73.2227273,
                "end_time": 73.3068182,
                "pitch": 38,
                "velocity": 51,
                "duration": 0.0840909,
                "tempo": 120.0
            },
            {
                "start_time": 73.3068182,
                "end_time": 73.3909091,
                "pitch": 38,
                "velocity": 51,
                "duration": 0.0840909,
                "tempo": 120.0
            },
            {
                "start_time": 73.425,
                "end_time": 73.5931818,
                "pitch": 26,
                "velocity": 51,
                "duration": 0.1681818,
                "tempo": 120.0
            },
            {
                "start_time": 73.625,
                "end_time": 73.7090909,
                "pitch": 38,
                "velocity": 51,
                "duration": 0.0840909,
                "tempo": 120.0
            },
            {
                "start_time": 73.7090909,
                "end_time": 73.7931818,
                "pitch": 38,
                "velocity": 51,
                "duration": 0.0840909,
                "tempo": 120.0
            },
            {
                "start_time": 73.8272727,
                "end_time": 73.9931818,
                "pitch": 29,
                "velocity": 51,
                "duration": 0.1659091,
                "tempo": 120.0
            },
            {
                "start_time": 74.0272727,
                "end_time": 74.1931818,
                "pitch": 41,
                "velocity": 51,
                "duration": 0.1659091,
                "tempo": 120.0
            },
            {
                "start_time": 74.2272727,
                "end_time": 74.3954545,
                "pitch": 29,
                "velocity": 51,
                "duration": 0.1681818,
                "tempo": 120.0
            },
            {
                "start_time": 74.4295455,
                "end_time": 74.5954545,
                "pitch": 41,
                "velocity": 51,
                "duration": 0.1659091,
                "tempo": 120.0
            },
            {
                "start_time": 74.6295455,
                "end_time": 74.7954545,
                "pitch": 29,
                "velocity": 51,
                "duration": 0.1659091,
                "tempo": 120.0
            },
            {
                "start_time": 74.8295455,
                "end_time": 74.9954545,
                "pitch": 41,
                "velocity": 51,
                "duration": 0.1659091,
                "tempo": 120.0
            },
            {
                "start_time": 75.0295455,
                "end_time": 75.1977273,
                "pitch": 29,
                "velocity": 51,
                "duration": 0.1681818,
                "tempo": 120.0
            },
            {
                "start_time": 75.2318182,
                "end_time": 75.4,
                "pitch": 41,
                "velocity": 51,
                "duration": 0.1681818,
                "tempo": 120.0
            },
            {
                "start_time": 75.4318182,
                "end_time": 75.6,
                "pitch": 31,
                "velocity": 51,
                "duration": 0.1681818,
                "tempo": 120.0
            },
            {
                "start_time": 75.6340909,
                "end_time": 75.8022727,
                "pitch": 43,
                "velocity": 51,
                "duration": 0.1681818,
                "tempo": 120.0
            },
            {
                "start_time": 75.8340909,
                "end_time": 76.0022727,
                "pitch": 32,
                "velocity": 51,
                "duration": 0.1681818,
                "tempo": 120.0
            },
            {
                "start_time": 76.0340909,
                "end_time": 76.2022727,
                "pitch": 44,
                "velocity": 51,
                "duration": 0.1681818,
                "tempo": 120.0
            },
            {
                "start_time": 76.2363636,
                "end_time": 76.4022727,
                "pitch": 33,
                "velocity": 51,
                "duration": 0.1659091,
                "tempo": 120.0
            },
            {
                "start_time": 76.4363636,
                "end_time": 76.6045455,
                "pitch": 45,
                "velocity": 51,
                "duration": 0.1681818,
                "tempo": 120.0
            },
            {
                "start_time": 76.6386364,
                "end_time": 76.8045455,
                "pitch": 35,
                "velocity": 51,
                "duration": 0.1659091,
                "tempo": 120.0
            },
            {
                "start_time": 76.8386364,
                "end_time": 77.0045455,
                "pitch": 47,
                "velocity": 51,
                "duration": 0.1659091,
                "tempo": 120.0
            },
            {
                "start_time": 77.0386364,
                "end_time": 77.2068182,
                "pitch": 24,
                "velocity": 51,
                "duration": 0.1681818,
                "tempo": 120.0
            },
            {
                "start_time": 77.2386364,
                "end_time": 77.4068182,
                "pitch": 36,
                "velocity": 51,
                "duration": 0.1681818,
                "tempo": 120.0
            },
            {
                "start_time": 77.4409091,
                "end_time": 77.6113636,
                "pitch": 24,
                "velocity": 51,
                "duration": 0.1704545,
                "tempo": 120.0
            },
            {
                "start_time": 77.6477273,
                "end_time": 77.8181818,
                "pitch": 36,
                "velocity": 51,
                "duration": 0.1704545,
                "tempo": 120.0
            },
            {
                "start_time": 77.8522727,
                "end_time": 78.0204545,
                "pitch": 24,
                "velocity": 51,
                "duration": 0.1681818,
                "tempo": 120.0
            },
            {
                "start_time": 78.0522727,
                "end_time": 78.2204545,
                "pitch": 36,
                "velocity": 51,
                "duration": 0.1681818,
                "tempo": 120.0
            },
            {
                "start_time": 78.2522727,
                "end_time": 78.4159091,
                "pitch": 24,
                "velocity": 51,
                "duration": 0.1636364,
                "tempo": 120.0
            },
            {
                "start_time": 78.45,
                "end_time": 78.6136364,
                "pitch": 36,
                "velocity": 51,
                "duration": 0.1636364,
                "tempo": 120.0
            },
            {
                "start_time": 78.6454545,
                "end_time": 78.8136364,
                "pitch": 24,
                "velocity": 51,
                "duration": 0.1681818,
                "tempo": 120.0
            },
            {
                "start_time": 78.8454545,
                "end_time": 79.0136364,
                "pitch": 36,
                "velocity": 51,
                "duration": 0.1681818,
                "tempo": 120.0
            },
            {
                "start_time": 79.0477273,
                "end_time": 79.2181818,
                "pitch": 24,
                "velocity": 51,
                "duration": 0.1704545,
                "tempo": 120.0
            },
            {
                "start_time": 79.2522727,
                "end_time": 79.4227273,
                "pitch": 36,
                "velocity": 51,
                "duration": 0.1704545,
                "tempo": 120.0
            },
            {
                "start_time": 79.4568182,
                "end_time": 79.6204545,
                "pitch": 24,
                "velocity": 51,
                "duration": 0.1636364,
                "tempo": 120.0
            },
            {
                "start_time": 79.6522727,
                "end_time": 79.8159091,
                "pitch": 36,
                "velocity": 51,
                "duration": 0.1636364,
                "tempo": 120.0
            },
            {
                "start_time": 79.85,
                "end_time": 80.0159091,
                "pitch": 24,
                "velocity": 51,
                "duration": 0.1659091,
                "tempo": 120.0
            },
            {
                "start_time": 80.05,
                "end_time": 80.2159091,
                "pitch": 36,
                "velocity": 51,
                "duration": 0.1659091,
                "tempo": 120.0
            },
            {
                "start_time": 80.25,
                "end_time": 80.4181818,
                "pitch": 34,
                "velocity": 51,
                "duration": 0.1681818,
                "tempo": 120.0
            },
            {
                "start_time": 80.45,
                "end_time": 80.6181818,
                "pitch": 46,
                "velocity": 51,
                "duration": 0.1681818,
                "tempo": 120.0
            },
            {
                "start_time": 80.6522727,
                "end_time": 80.8181818,
                "pitch": 34,
                "velocity": 51,
                "duration": 0.1659091,
                "tempo": 120.0
            },
            {
                "start_time": 80.8522727,
                "end_time": 81.0181818,
                "pitch": 46,
                "velocity": 51,
                "duration": 0.1659091,
                "tempo": 120.0
            },
            {
                "start_time": 81.0522727,
                "end_time": 81.2204545,
                "pitch": 34,
                "velocity": 51,
                "duration": 0.1681818,
                "tempo": 120.0
            },
            {
                "start_time": 81.2522727,
                "end_time": 81.4204545,
                "pitch": 46,
                "velocity": 51,
                "duration": 0.1681818,
                "tempo": 120.0
            },
            {
                "start_time": 81.4545455,
                "end_time": 81.6272727,
                "pitch": 34,
                "velocity": 51,
                "duration": 0.1727273,
                "tempo": 120.0
            },
            {
                "start_time": 81.6613636,
                "end_time": 81.8318182,
                "pitch": 46,
                "velocity": 51,
                "duration": 0.1704545,
                "tempo": 120.0
            },
            {
                "start_time": 81.8636364,
                "end_time": 82.0272727,
                "pitch": 34,
                "velocity": 51,
                "duration": 0.1636364,
                "tempo": 120.0
            },
            {
                "start_time": 82.0613636,
                "end_time": 82.225,
                "pitch": 46,
                "velocity": 51,
                "duration": 0.1636364,
                "tempo": 120.0
            },
            {
                "start_time": 82.2568182,
                "end_time": 82.425,
                "pitch": 34,
                "velocity": 51,
                "duration": 0.1681818,
                "tempo": 120.0
            },
            {
                "start_time": 82.4590909,
                "end_time": 82.6272727,
                "pitch": 46,
                "velocity": 51,
                "duration": 0.1681818,
                "tempo": 120.0
            },
            {
                "start_time": 82.6613636,
                "end_time": 82.8318182,
                "pitch": 34,
                "velocity": 51,
                "duration": 0.1704545,
                "tempo": 120.0
            },
            {
                "start_time": 82.8659091,
                "end_time": 83.0363636,
                "pitch": 46,
                "velocity": 51,
                "duration": 0.1704545,
                "tempo": 120.0
            },
            {
                "start_time": 83.0704545,
                "end_time": 83.2340909,
                "pitch": 34,
                "velocity": 51,
                "duration": 0.1636364,
                "tempo": 120.0
            },
            {
                "start_time": 83.2659091,
                "end_time": 83.4295455,
                "pitch": 46,
                "velocity": 51,
                "duration": 0.1636364,
                "tempo": 120.0
            },
            {
                "start_time": 83.4636364,
                "end_time": 83.6318182,
                "pitch": 33,
                "velocity": 51,
                "duration": 0.1681818,
                "tempo": 120.0
            },
            {
                "start_time": 83.6636364,
                "end_time": 83.8318182,
                "pitch": 45,
                "velocity": 51,
                "duration": 0.1681818,
                "tempo": 120.0
            },
            {
                "start_time": 83.8659091,
                "end_time": 84.0318182,
                "pitch": 33,
                "velocity": 51,
                "duration": 0.1659091,
                "tempo": 120.0
            },
            {
                "start_time": 84.0659091,
                "end_time": 84.2318182,
                "pitch": 45,
                "velocity": 51,
                "duration": 0.1659091,
                "tempo": 120.0
            },
            {
                "start_time": 84.2659091,
                "end_time": 84.4340909,
                "pitch": 33,
                "velocity": 51,
                "duration": 0.1681818,
                "tempo": 120.0
            },
            {
                "start_time": 84.4681818,
                "end_time": 84.6340909,
                "pitch": 45,
                "velocity": 51,
                "duration": 0.1659091,
                "tempo": 120.0
            },
            {
                "start_time": 84.6681818,
                "end_time": 84.8409091,
                "pitch": 33,
                "velocity": 51,
                "duration": 0.1727273,
                "tempo": 120.0
            },
            {
                "start_time": 84.875,
                "end_time": 85.0454545,
                "pitch": 45,
                "velocity": 51,
                "duration": 0.1704545,
                "tempo": 120.0
            },
            {
                "start_time": 85.0772727,
                "end_time": 85.2409091,
                "pitch": 33,
                "velocity": 51,
                "duration": 0.1636364,
                "tempo": 120.0
            },
            {
                "start_time": 85.275,
                "end_time": 85.4386364,
                "pitch": 45,
                "velocity": 51,
                "duration": 0.1636364,
                "tempo": 120.0
            },
            {
                "start_time": 85.4704545,
                "end_time": 85.6386364,
                "pitch": 33,
                "velocity": 51,
                "duration": 0.1681818,
                "tempo": 120.0
            },
            {
                "start_time": 85.6727273,
                "end_time": 85.8409091,
                "pitch": 45,
                "velocity": 51,
                "duration": 0.1681818,
                "tempo": 120.0
            },
            {
                "start_time": 85.8727273,
                "end_time": 86.0409091,
                "pitch": 33,
                "velocity": 51,
                "duration": 0.1681818,
                "tempo": 120.0
            },
            {
                "start_time": 86.0727273,
                "end_time": 86.2409091,
                "pitch": 45,
                "velocity": 51,
                "duration": 0.1681818,
                "tempo": 120.0
            },
            {
                "start_time": 86.275,
                "end_time": 86.4454545,
                "pitch": 33,
                "velocity": 51,
                "duration": 0.1704545,
                "tempo": 120.0
            },
            {
                "start_time": 86.4795455,
                "end_time": 86.6522727,
                "pitch": 45,
                "velocity": 51,
                "duration": 0.1727273,
                "tempo": 120.0
            },
            {
                "start_time": 86.6840909,
                "end_time": 86.8477273,
                "pitch": 29,
                "velocity": 51,
                "duration": 0.1636364,
                "tempo": 120.0
            },
            {
                "start_time": 86.8795455,
                "end_time": 87.0431818,
                "pitch": 41,
                "velocity": 51,
                "duration": 0.1636364,
                "tempo": 120.0
            },
            {
                "start_time": 87.0772727,
                "end_time": 87.2454545,
                "pitch": 29,
                "velocity": 51,
                "duration": 0.1681818,
                "tempo": 120.0
            },
            {
                "start_time": 87.2772727,
                "end_time": 87.4454545,
                "pitch": 41,
                "velocity": 51,
                "duration": 0.1681818,
                "tempo": 120.0
            },
            {
                "start_time": 87.4795455,
                "end_time": 87.6477273,
                "pitch": 29,
                "velocity": 51,
                "duration": 0.1681818,
                "tempo": 120.0
            },
            {
                "start_time": 87.6818182,
                "end_time": 87.8477273,
                "pitch": 41,
                "velocity": 51,
                "duration": 0.1659091,
                "tempo": 120.0
            },
            {
                "start_time": 87.8818182,
                "end_time": 88.0477273,
                "pitch": 29,
                "velocity": 51,
                "duration": 0.1659091,
                "tempo": 120.0
            },
            {
                "start_time": 88.0818182,
                "end_time": 88.2477273,
                "pitch": 41,
                "velocity": 51,
                "duration": 0.1659091,
                "tempo": 120.0
            },
            {
                "start_time": 88.2818182,
                "end_time": 88.45,
                "pitch": 29,
                "velocity": 51,
                "duration": 0.1681818,
                "tempo": 120.0
            },
            {
                "start_time": 88.4840909,
                "end_time": 88.6522727,
                "pitch": 41,
                "velocity": 51,
                "duration": 0.1681818,
                "tempo": 120.0
            },
            {
                "start_time": 88.6840909,
                "end_time": 88.8522727,
                "pitch": 29,
                "velocity": 51,
                "duration": 0.1681818,
                "tempo": 120.0
            },
            {
                "start_time": 88.8840909,
                "end_time": 89.0522727,
                "pitch": 41,
                "velocity": 51,
                "duration": 0.1681818,
                "tempo": 120.0
            },
            {
                "start_time": 89.0840909,
                "end_time": 89.2522727,
                "pitch": 29,
                "velocity": 51,
                "duration": 0.1681818,
                "tempo": 120.0
            },
            {
                "start_time": 89.2863636,
                "end_time": 89.4545455,
                "pitch": 41,
                "velocity": 51,
                "duration": 0.1681818,
                "tempo": 120.0
            },
            {
                "start_time": 89.4886364,
                "end_time": 89.6545455,
                "pitch": 29,
                "velocity": 51,
                "duration": 0.1659091,
                "tempo": 120.0
            },
            {
                "start_time": 89.6886364,
                "end_time": 89.8568182,
                "pitch": 41,
                "velocity": 51,
                "duration": 0.1681818,
                "tempo": 120.0
            },
            {
                "start_time": 89.8909091,
                "end_time": 90.0568182,
                "pitch": 24,
                "velocity": 51,
                "duration": 0.1659091,
                "tempo": 120.0
            },
            {
                "start_time": 90.0909091,
                "end_time": 90.2568182,
                "pitch": 36,
                "velocity": 51,
                "duration": 0.1659091,
                "tempo": 120.0
            },
            {
                "start_time": 90.2909091,
                "end_time": 90.4590909,
                "pitch": 24,
                "velocity": 51,
                "duration": 0.1681818,
                "tempo": 120.0
            },
            {
                "start_time": 90.4909091,
                "end_time": 90.6590909,
                "pitch": 36,
                "velocity": 51,
                "duration": 0.1681818,
                "tempo": 120.0
            },
            {
                "start_time": 90.6931818,
                "end_time": 90.8590909,
                "pitch": 24,
                "velocity": 51,
                "duration": 0.1659091,
                "tempo": 120.0
            },
            {
                "start_time": 90.8931818,
                "end_time": 91.0590909,
                "pitch": 36,
                "velocity": 51,
                "duration": 0.1659091,
                "tempo": 120.0
            },
            {
                "start_time": 91.0931818,
                "end_time": 91.2659091,
                "pitch": 24,
                "velocity": 51,
                "duration": 0.1727273,
                "tempo": 120.0
            },
            {
                "start_time": 91.3,
                "end_time": 91.4704545,
                "pitch": 36,
                "velocity": 51,
                "duration": 0.1704545,
                "tempo": 120.0
            },
            {
                "start_time": 91.5022727,
                "end_time": 91.6659091,
                "pitch": 24,
                "velocity": 51,
                "duration": 0.1636364,
                "tempo": 120.0
            },
            {
                "start_time": 91.6977273,
                "end_time": 91.8613636,
                "pitch": 36,
                "velocity": 51,
                "duration": 0.1636364,
                "tempo": 120.0
            },
            {
                "start_time": 91.8954545,
                "end_time": 92.0681818,
                "pitch": 24,
                "velocity": 51,
                "duration": 0.1727273,
                "tempo": 120.0
            },
            {
                "start_time": 92.1022727,
                "end_time": 92.2727273,
                "pitch": 36,
                "velocity": 51,
                "duration": 0.1704545,
                "tempo": 120.0
            },
            {
                "start_time": 92.3068182,
                "end_time": 92.4727273,
                "pitch": 24,
                "velocity": 51,
                "duration": 0.1659091,
                "tempo": 120.0
            },
            {
                "start_time": 92.5068182,
                "end_time": 92.6727273,
                "pitch": 36,
                "velocity": 51,
                "duration": 0.1659091,
                "tempo": 120.0
            },
            {
                "start_time": 92.7068182,
                "end_time": 92.8681818,
                "pitch": 24,
                "velocity": 51,
                "duration": 0.1613636,
                "tempo": 120.0
            },
            {
                "start_time": 92.9022727,
                "end_time": 93.0659091,
                "pitch": 36,
                "velocity": 51,
                "duration": 0.1636364,
                "tempo": 120.0
            },
            {
                "start_time": 93.0977273,
                "end_time": 93.2659091,
                "pitch": 34,
                "velocity": 51,
                "duration": 0.1681818,
                "tempo": 120.0
            },
            {
                "start_time": 93.3,
                "end_time": 93.4681818,
                "pitch": 46,
                "velocity": 51,
                "duration": 0.1681818,
                "tempo": 120.0
            },
            {
                "start_time": 93.5022727,
                "end_time": 93.6727273,
                "pitch": 34,
                "velocity": 51,
                "duration": 0.1704545,
                "tempo": 120.0
            },
            {
                "start_time": 93.7068182,
                "end_time": 93.8795455,
                "pitch": 46,
                "velocity": 51,
                "duration": 0.1727273,
                "tempo": 120.0
            },
            {
                "start_time": 93.9113636,
                "end_time": 94.0795455,
                "pitch": 34,
                "velocity": 51,
                "duration": 0.1681818,
                "tempo": 120.0
            },
            {
                "start_time": 94.1136364,
                "end_time": 94.2818182,
                "pitch": 46,
                "velocity": 51,
                "duration": 0.1681818,
                "tempo": 120.0
            },
            {
                "start_time": 94.3159091,
                "end_time": 94.4818182,
                "pitch": 34,
                "velocity": 51,
                "duration": 0.1659091,
                "tempo": 120.0
            },
            {
                "start_time": 94.5159091,
                "end_time": 94.6818182,
                "pitch": 46,
                "velocity": 51,
                "duration": 0.1659091,
                "tempo": 120.0
            },
            {
                "start_time": 94.7136364,
                "end_time": 94.8772727,
                "pitch": 34,
                "velocity": 51,
                "duration": 0.1636364,
                "tempo": 120.0
            },
            {
                "start_time": 94.9113636,
                "end_time": 95.0727273,
                "pitch": 46,
                "velocity": 51,
                "duration": 0.1613636,
                "tempo": 120.0
            },
            {
                "start_time": 95.1068182,
                "end_time": 95.275,
                "pitch": 34,
                "velocity": 51,
                "duration": 0.1681818,
                "tempo": 120.0
            },
            {
                "start_time": 95.3090909,
                "end_time": 95.4772727,
                "pitch": 46,
                "velocity": 51,
                "duration": 0.1681818,
                "tempo": 120.0
            },
            {
                "start_time": 95.5113636,
                "end_time": 95.6818182,
                "pitch": 34,
                "velocity": 51,
                "duration": 0.1704545,
                "tempo": 120.0
            },
            {
                "start_time": 95.7159091,
                "end_time": 95.8863636,
                "pitch": 46,
                "velocity": 51,
                "duration": 0.1704545,
                "tempo": 120.0
            },
            {
                "start_time": 95.9204545,
                "end_time": 96.0840909,
                "pitch": 34,
                "velocity": 51,
                "duration": 0.1636364,
                "tempo": 120.0
            },
            {
                "start_time": 96.1159091,
                "end_time": 96.2795455,
                "pitch": 46,
                "velocity": 51,
                "duration": 0.1636364,
                "tempo": 120.0
            },
            {
                "start_time": 96.3136364,
                "end_time": 96.4818182,
                "pitch": 33,
                "velocity": 51,
                "duration": 0.1681818,
                "tempo": 120.0
            },
            {
                "start_time": 96.5136364,
                "end_time": 96.6818182,
                "pitch": 45,
                "velocity": 51,
                "duration": 0.1681818,
                "tempo": 120.0
            },
            {
                "start_time": 96.7159091,
                "end_time": 96.8818182,
                "pitch": 33,
                "velocity": 51,
                "duration": 0.1659091,
                "tempo": 120.0
            },
            {
                "start_time": 96.9159091,
                "end_time": 97.0818182,
                "pitch": 45,
                "velocity": 51,
                "duration": 0.1659091,
                "tempo": 120.0
            },
            {
                "start_time": 97.1159091,
                "end_time": 97.2863636,
                "pitch": 33,
                "velocity": 51,
                "duration": 0.1704545,
                "tempo": 120.0
            },
            {
                "start_time": 97.3227273,
                "end_time": 97.4931818,
                "pitch": 45,
                "velocity": 51,
                "duration": 0.1704545,
                "tempo": 120.0
            },
            {
                "start_time": 97.5272727,
                "end_time": 97.6931818,
                "pitch": 33,
                "velocity": 51,
                "duration": 0.1659091,
                "tempo": 120.0
            },
            {
                "start_time": 97.7272727,
                "end_time": 97.8931818,
                "pitch": 45,
                "velocity": 51,
                "duration": 0.1659091,
                "tempo": 120.0
            },
            {
                "start_time": 97.925,
                "end_time": 98.0886364,
                "pitch": 33,
                "velocity": 51,
                "duration": 0.1636364,
                "tempo": 120.0
            },
            {
                "start_time": 98.1227273,
                "end_time": 98.2840909,
                "pitch": 45,
                "velocity": 51,
                "duration": 0.1613636,
                "tempo": 120.0
            },
            {
                "start_time": 98.3181818,
                "end_time": 98.4863636,
                "pitch": 33,
                "velocity": 51,
                "duration": 0.1681818,
                "tempo": 120.0
            },
            {
                "start_time": 98.5204545,
                "end_time": 98.6886364,
                "pitch": 45,
                "velocity": 51,
                "duration": 0.1681818,
                "tempo": 120.0
            },
            {
                "start_time": 98.7204545,
                "end_time": 98.8886364,
                "pitch": 33,
                "velocity": 51,
                "duration": 0.1681818,
                "tempo": 120.0
            },
            {
                "start_time": 98.9204545,
                "end_time": 99.0886364,
                "pitch": 45,
                "velocity": 51,
                "duration": 0.1681818,
                "tempo": 120.0
            },
            {
                "start_time": 99.1227273,
                "end_time": 99.2931818,
                "pitch": 33,
                "velocity": 51,
                "duration": 0.1704545,
                "tempo": 120.0
            },
            {
                "start_time": 99.3272727,
                "end_time": 99.4977273,
                "pitch": 45,
                "velocity": 51,
                "duration": 0.1704545,
                "tempo": 120.0
            },
            {
                "start_time": 99.5318182,
                "end_time": 99.6954545,
                "pitch": 29,
                "velocity": 51,
                "duration": 0.1636364,
                "tempo": 120.0
            },
            {
                "start_time": 99.7272727,
                "end_time": 99.8909091,
                "pitch": 41,
                "velocity": 51,
                "duration": 0.1636364,
                "tempo": 120.0
            },
            {
                "start_time": 99.925,
                "end_time": 100.0909091,
                "pitch": 29,
                "velocity": 51,
                "duration": 0.1659091,
                "tempo": 120.0
            },
            {
                "start_time": 100.125,
                "end_time": 100.2909091,
                "pitch": 41,
                "velocity": 51,
                "duration": 0.1659091,
                "tempo": 120.0
            },
            {
                "start_time": 100.325,
                "end_time": 100.4931818,
                "pitch": 29,
                "velocity": 51,
                "duration": 0.1681818,
                "tempo": 120.0
            },
            {
                "start_time": 100.525,
                "end_time": 100.6931818,
                "pitch": 41,
                "velocity": 51,
                "duration": 0.1681818,
                "tempo": 120.0
            },
            {
                "start_time": 100.7272727,
                "end_time": 100.8977273,
                "pitch": 29,
                "velocity": 51,
                "duration": 0.1704545,
                "tempo": 120.0
            },
            {
                "start_time": 100.9340909,
                "end_time": 101.1045455,
                "pitch": 41,
                "velocity": 51,
                "duration": 0.1704545,
                "tempo": 120.0
            },
            {
                "start_time": 101.1363636,
                "end_time": 101.3,
                "pitch": 29,
                "velocity": 51,
                "duration": 0.1636364,
                "tempo": 120.0
            },
            {
                "start_time": 101.3318182,
                "end_time": 101.4954545,
                "pitch": 41,
                "velocity": 51,
                "duration": 0.1636364,
                "tempo": 120.0
            },
            {
                "start_time": 101.5295455,
                "end_time": 101.7022727,
                "pitch": 29,
                "velocity": 51,
                "duration": 0.1727273,
                "tempo": 120.0
            },
            {
                "start_time": 101.7363636,
                "end_time": 101.9068182,
                "pitch": 41,
                "velocity": 51,
                "duration": 0.1704545,
                "tempo": 120.0
            },
            {
                "start_time": 101.9386364,
                "end_time": 102.1022727,
                "pitch": 29,
                "velocity": 51,
                "duration": 0.1636364,
                "tempo": 120.0
            },
            {
                "start_time": 102.1363636,
                "end_time": 102.3,
                "pitch": 41,
                "velocity": 51,
                "duration": 0.1636364,
                "tempo": 120.0
            },
            {
                "start_time": 102.3318182,
                "end_time": 102.5,
                "pitch": 29,
                "velocity": 51,
                "duration": 0.1681818,
                "tempo": 120.0
            },
            {
                "start_time": 102.5340909,
                "end_time": 102.7022727,
                "pitch": 41,
                "velocity": 51,
                "duration": 0.1681818,
                "tempo": 120.0
            },
            {
                "start_time": 102.7340909,
                "end_time": 102.9022727,
                "pitch": 28,
                "velocity": 51,
                "duration": 0.1681818,
                "tempo": 120.0
            },
            {
                "start_time": 102.9340909,
                "end_time": 103.1022727,
                "pitch": 40,
                "velocity": 51,
                "duration": 0.1681818,
                "tempo": 120.0
            },
            {
                "start_time": 103.1363636,
                "end_time": 103.3068182,
                "pitch": 28,
                "velocity": 51,
                "duration": 0.1704545,
                "tempo": 120.0
            },
            {
                "start_time": 103.3409091,
                "end_time": 103.5113636,
                "pitch": 40,
                "velocity": 51,
                "duration": 0.1704545,
                "tempo": 120.0
            },
            {
                "start_time": 103.5454545,
                "end_time": 103.7090909,
                "pitch": 28,
                "velocity": 51,
                "duration": 0.1636364,
                "tempo": 120.0
            },
            {
                "start_time": 103.7409091,
                "end_time": 103.9045455,
                "pitch": 40,
                "velocity": 51,
                "duration": 0.1636364,
                "tempo": 120.0
            },
            {
                "start_time": 103.9386364,
                "end_time": 104.1045455,
                "pitch": 28,
                "velocity": 51,
                "duration": 0.1659091,
                "tempo": 120.0
            },
            {
                "start_time": 104.1386364,
                "end_time": 104.3045455,
                "pitch": 40,
                "velocity": 51,
                "duration": 0.1659091,
                "tempo": 120.0
            },
            {
                "start_time": 104.3386364,
                "end_time": 104.5068182,
                "pitch": 28,
                "velocity": 51,
                "duration": 0.1681818,
                "tempo": 120.0
            },
            {
                "start_time": 104.5386364,
                "end_time": 104.7068182,
                "pitch": 40,
                "velocity": 51,
                "duration": 0.1681818,
                "tempo": 120.0
            },
            {
                "start_time": 104.7409091,
                "end_time": 104.9068182,
                "pitch": 28,
                "velocity": 51,
                "duration": 0.1659091,
                "tempo": 120.0
            },
            {
                "start_time": 104.9409091,
                "end_time": 105.1068182,
                "pitch": 40,
                "velocity": 51,
                "duration": 0.1659091,
                "tempo": 120.0
            },
            {
                "start_time": 105.1409091,
                "end_time": 105.3090909,
                "pitch": 28,
                "velocity": 51,
                "duration": 0.1681818,
                "tempo": 120.0
            },
            {
                "start_time": 105.3431818,
                "end_time": 105.5090909,
                "pitch": 40,
                "velocity": 51,
                "duration": 0.1659091,
                "tempo": 120.0
            },
            {
                "start_time": 105.5431818,
                "end_time": 105.7159091,
                "pitch": 28,
                "velocity": 51,
                "duration": 0.1727273,
                "tempo": 120.0
            },
            {
                "start_time": 105.75,
                "end_time": 105.9204545,
                "pitch": 40,
                "velocity": 51,
                "duration": 0.1704545,
                "tempo": 120.0
            },
            {
                "start_time": 105.9522727,
                "end_time": 106.1159091,
                "pitch": 33,
                "velocity": 51,
                "duration": 0.1636364,
                "tempo": 120.0
            },
            {
                "start_time": 106.15,
                "end_time": 106.3136364,
                "pitch": 45,
                "velocity": 51,
                "duration": 0.1636364,
                "tempo": 120.0
            },
            {
                "start_time": 106.3477273,
                "end_time": 106.5181818,
                "pitch": 33,
                "velocity": 51,
                "duration": 0.1704545,
                "tempo": 120.0
            },
            {
                "start_time": 106.5522727,
                "end_time": 106.7227273,
                "pitch": 45,
                "velocity": 51,
                "duration": 0.1704545,
                "tempo": 120.0
            },
            {
                "start_time": 106.7568182,
                "end_time": 106.9181818,
                "pitch": 33,
                "velocity": 51,
                "duration": 0.1613636,
                "tempo": 120.0
            },
            {
                "start_time": 106.9522727,
                "end_time": 107.1159091,
                "pitch": 45,
                "velocity": 51,
                "duration": 0.1636364,
                "tempo": 120.0
            },
            {
                "start_time": 107.15,
                "end_time": 107.3159091,
                "pitch": 33,
                "velocity": 51,
                "duration": 0.1659091,
                "tempo": 120.0
            },
            {
                "start_time": 107.35,
                "end_time": 107.5181818,
                "pitch": 45,
                "velocity": 51,
                "duration": 0.1681818,
                "tempo": 120.0
            },
            {
                "start_time": 107.5522727,
                "end_time": 107.7204545,
                "pitch": 33,
                "velocity": 51,
                "duration": 0.1681818,
                "tempo": 120.0
            },
            {
                "start_time": 107.7522727,
                "end_time": 107.9204545,
                "pitch": 45,
                "velocity": 51,
                "duration": 0.1681818,
                "tempo": 120.0
            },
            {
                "start_time": 107.9545455,
                "end_time": 108.1204545,
                "pitch": 33,
                "velocity": 51,
                "duration": 0.1659091,
                "tempo": 120.0
            },
            {
                "start_time": 108.1545455,
                "end_time": 108.3204545,
                "pitch": 45,
                "velocity": 51,
                "duration": 0.1659091,
                "tempo": 120.0
            },
            {
                "start_time": 108.3545455,
                "end_time": 108.5227273,
                "pitch": 33,
                "velocity": 51,
                "duration": 0.1681818,
                "tempo": 120.0
            },
            {
                "start_time": 108.5568182,
                "end_time": 108.7227273,
                "pitch": 45,
                "velocity": 51,
                "duration": 0.1659091,
                "tempo": 120.0
            },
            {
                "start_time": 108.7568182,
                "end_time": 108.9295455,
                "pitch": 33,
                "velocity": 51,
                "duration": 0.1727273,
                "tempo": 120.0
            },
            {
                "start_time": 108.9636364,
                "end_time": 109.1340909,
                "pitch": 45,
                "velocity": 51,
                "duration": 0.1704545,
                "tempo": 120.0
            },
            {
                "start_time": 109.1681818,
                "end_time": 109.3363636,
                "pitch": 26,
                "velocity": 51,
                "duration": 0.1681818,
                "tempo": 120.0
            },
            {
                "start_time": 109.3704545,
                "end_time": 109.4522727,
                "pitch": 38,
                "velocity": 51,
                "duration": 0.0818182,
                "tempo": 120.0
            },
            {
                "start_time": 109.4522727,
                "end_time": 109.5363636,
                "pitch": 38,
                "velocity": 51,
                "duration": 0.0840909,
                "tempo": 120.0
            },
            {
                "start_time": 109.5704545,
                "end_time": 109.7363636,
                "pitch": 26,
                "velocity": 51,
                "duration": 0.1659091,
                "tempo": 120.0
            },
            {
                "start_time": 109.7704545,
                "end_time": 109.8545455,
                "pitch": 38,
                "velocity": 51,
                "duration": 0.0840909,
                "tempo": 120.0
            },
            {
                "start_time": 109.8545455,
                "end_time": 109.9363636,
                "pitch": 38,
                "velocity": 51,
                "duration": 0.0818182,
                "tempo": 120.0
            },
            {
                "start_time": 109.9704545,
                "end_time": 110.1340909,
                "pitch": 26,
                "velocity": 51,
                "duration": 0.1636364,
                "tempo": 120.0
            },
            {
                "start_time": 110.1659091,
                "end_time": 110.2477273,
                "pitch": 38,
                "velocity": 51,
                "duration": 0.0818182,
                "tempo": 120.0
            },
            {
                "start_time": 110.2477273,
                "end_time": 110.3295455,
                "pitch": 38,
                "velocity": 51,
                "duration": 0.0818182,
                "tempo": 120.0
            },
            {
                "start_time": 110.3636364,
                "end_time": 110.5340909,
                "pitch": 26,
                "velocity": 51,
                "duration": 0.1704545,
                "tempo": 120.0
            },
            {
                "start_time": 110.5681818,
                "end_time": 110.6545455,
                "pitch": 38,
                "velocity": 51,
                "duration": 0.0863636,
                "tempo": 120.0
            },
            {
                "start_time": 110.6545455,
                "end_time": 110.7386364,
                "pitch": 38,
                "velocity": 51,
                "duration": 0.0840909,
                "tempo": 120.0
            },
            {
                "start_time": 110.7727273,
                "end_time": 110.9363636,
                "pitch": 26,
                "velocity": 51,
                "duration": 0.1636364,
                "tempo": 120.0
            },
            {
                "start_time": 110.9681818,
                "end_time": 111.05,
                "pitch": 38,
                "velocity": 51,
                "duration": 0.0818182,
                "tempo": 120.0
            },
            {
                "start_time": 111.05,
                "end_time": 111.1318182,
                "pitch": 38,
                "velocity": 51,
                "duration": 0.0818182,
                "tempo": 120.0
            },
            {
                "start_time": 111.1659091,
                "end_time": 111.3340909,
                "pitch": 26,
                "velocity": 51,
                "duration": 0.1681818,
                "tempo": 120.0
            },
            {
                "start_time": 111.3659091,
                "end_time": 111.45,
                "pitch": 38,
                "velocity": 51,
                "duration": 0.0840909,
                "tempo": 120.0
            },
            {
                "start_time": 111.45,
                "end_time": 111.5340909,
                "pitch": 38,
                "velocity": 51,
                "duration": 0.0840909,
                "tempo": 120.0
            },
            {
                "start_time": 111.5681818,
                "end_time": 111.7363636,
                "pitch": 26,
                "velocity": 51,
                "duration": 0.1681818,
                "tempo": 120.0
            },
            {
                "start_time": 111.7704545,
                "end_time": 111.8545455,
                "pitch": 38,
                "velocity": 51,
                "duration": 0.0840909,
                "tempo": 120.0
            },
            {
                "start_time": 111.8545455,
                "end_time": 111.9363636,
                "pitch": 38,
                "velocity": 51,
                "duration": 0.0818182,
                "tempo": 120.0
            },
            {
                "start_time": 111.9704545,
                "end_time": 112.1431818,
                "pitch": 26,
                "velocity": 51,
                "duration": 0.1727273,
                "tempo": 120.0
            },
            {
                "start_time": 112.1772727,
                "end_time": 112.2636364,
                "pitch": 38,
                "velocity": 51,
                "duration": 0.0863636,
                "tempo": 120.0
            },
            {
                "start_time": 112.2636364,
                "end_time": 112.3477273,
                "pitch": 38,
                "velocity": 51,
                "duration": 0.0840909,
                "tempo": 120.0
            },
            {
                "start_time": 112.3818182,
                "end_time": 112.5431818,
                "pitch": 29,
                "velocity": 51,
                "duration": 0.1613636,
                "tempo": 120.0
            },
            {
                "start_time": 112.5772727,
                "end_time": 112.7409091,
                "pitch": 41,
                "velocity": 51,
                "duration": 0.1636364,
                "tempo": 120.0
            },
            {
                "start_time": 112.775,
                "end_time": 112.9454545,
                "pitch": 29,
                "velocity": 51,
                "duration": 0.1704545,
                "tempo": 120.0
            },
            {
                "start_time": 112.9795455,
                "end_time": 113.15,
                "pitch": 41,
                "velocity": 51,
                "duration": 0.1704545,
                "tempo": 120.0
            },
            {
                "start_time": 113.1840909,
                "end_time": 113.3477273,
                "pitch": 29,
                "velocity": 51,
                "duration": 0.1636364,
                "tempo": 120.0
            },
            {
                "start_time": 113.3795455,
                "end_time": 113.5431818,
                "pitch": 41,
                "velocity": 51,
                "duration": 0.1636364,
                "tempo": 120.0
            },
            {
                "start_time": 113.5772727,
                "end_time": 113.7477273,
                "pitch": 29,
                "velocity": 51,
                "duration": 0.1704545,
                "tempo": 120.0
            },
            {
                "start_time": 113.7818182,
                "end_time": 113.9522727,
                "pitch": 41,
                "velocity": 51,
                "duration": 0.1704545,
                "tempo": 120.0
            },
            {
                "start_time": 113.9863636,
                "end_time": 114.15,
                "pitch": 29,
                "velocity": 51,
                "duration": 0.1636364,
                "tempo": 120.0
            },
            {
                "start_time": 114.1818182,
                "end_time": 114.3454545,
                "pitch": 41,
                "velocity": 51,
                "duration": 0.1636364,
                "tempo": 120.0
            },
            {
                "start_time": 114.3795455,
                "end_time": 114.55,
                "pitch": 29,
                "velocity": 51,
                "duration": 0.1704545,
                "tempo": 120.0
            },
            {
                "start_time": 114.5840909,
                "end_time": 114.7568182,
                "pitch": 41,
                "velocity": 51,
                "duration": 0.1727273,
                "tempo": 120.0
            },
            {
                "start_time": 114.7886364,
                "end_time": 114.9522727,
                "pitch": 29,
                "velocity": 51,
                "duration": 0.1636364,
                "tempo": 120.0
            },
            {
                "start_time": 114.9840909,
                "end_time": 115.1477273,
                "pitch": 41,
                "velocity": 51,
                "duration": 0.1636364,
                "tempo": 120.0
            },
            {
                "start_time": 115.1818182,
                "end_time": 115.35,
                "pitch": 29,
                "velocity": 51,
                "duration": 0.1681818,
                "tempo": 120.0
            },
            {
                "start_time": 115.3840909,
                "end_time": 115.55,
                "pitch": 41,
                "velocity": 51,
                "duration": 0.1659091,
                "tempo": 120.0
            },
            {
                "start_time": 115.5840909,
                "end_time": 115.7522727,
                "pitch": 28,
                "velocity": 51,
                "duration": 0.1681818,
                "tempo": 120.0
            },
            {
                "start_time": 115.7863636,
                "end_time": 115.9545455,
                "pitch": 40,
                "velocity": 51,
                "duration": 0.1681818,
                "tempo": 120.0
            },
            {
                "start_time": 115.9863636,
                "end_time": 116.1545455,
                "pitch": 28,
                "velocity": 51,
                "duration": 0.1681818,
                "tempo": 120.0
            },
            {
                "start_time": 116.1863636,
                "end_time": 116.3545455,
                "pitch": 40,
                "velocity": 51,
                "duration": 0.1681818,
                "tempo": 120.0
            },
            {
                "start_time": 116.3863636,
                "end_time": 116.5545455,
                "pitch": 28,
                "velocity": 51,
                "duration": 0.1681818,
                "tempo": 120.0
            },
            {
                "start_time": 116.5886364,
                "end_time": 116.7568182,
                "pitch": 40,
                "velocity": 51,
                "duration": 0.1681818,
                "tempo": 120.0
            },
            {
                "start_time": 116.7909091,
                "end_time": 116.9613636,
                "pitch": 28,
                "velocity": 51,
                "duration": 0.1704545,
                "tempo": 120.0
            },
            {
                "start_time": 116.9954545,
                "end_time": 117.1659091,
                "pitch": 40,
                "velocity": 51,
                "duration": 0.1704545,
                "tempo": 120.0
            },
            {
                "start_time": 117.2,
                "end_time": 117.3636364,
                "pitch": 28,
                "velocity": 51,
                "duration": 0.1636364,
                "tempo": 120.0
            },
            {
                "start_time": 117.3954545,
                "end_time": 117.5590909,
                "pitch": 40,
                "velocity": 51,
                "duration": 0.1636364,
                "tempo": 120.0
            },
            {
                "start_time": 117.5931818,
                "end_time": 117.7613636,
                "pitch": 28,
                "velocity": 51,
                "duration": 0.1681818,
                "tempo": 120.0
            },
            {
                "start_time": 117.7931818,
                "end_time": 117.9613636,
                "pitch": 40,
                "velocity": 51,
                "duration": 0.1681818,
                "tempo": 120.0
            },
            {
                "start_time": 117.9954545,
                "end_time": 118.1613636,
                "pitch": 28,
                "velocity": 51,
                "duration": 0.1659091,
                "tempo": 120.0
            },
            {
                "start_time": 118.1954545,
                "end_time": 118.3613636,
                "pitch": 40,
                "velocity": 51,
                "duration": 0.1659091,
                "tempo": 120.0
            },
            {
                "start_time": 118.3954545,
                "end_time": 118.5681818,
                "pitch": 28,
                "velocity": 51,
                "duration": 0.1727273,
                "tempo": 120.0
            },
            {
                "start_time": 118.6022727,
                "end_time": 118.7727273,
                "pitch": 40,
                "velocity": 51,
                "duration": 0.1704545,
                "tempo": 120.0
            },
            {
                "start_time": 118.8045455,
                "end_time": 118.9681818,
                "pitch": 33,
                "velocity": 51,
                "duration": 0.1636364,
                "tempo": 120.0
            },
            {
                "start_time": 119.0022727,
                "end_time": 119.1636364,
                "pitch": 45,
                "velocity": 51,
                "duration": 0.1613636,
                "tempo": 120.0
            },
            {
                "start_time": 119.1977273,
                "end_time": 119.3659091,
                "pitch": 33,
                "velocity": 51,
                "duration": 0.1681818,
                "tempo": 120.0
            },
            {
                "start_time": 119.4,
                "end_time": 119.5681818,
                "pitch": 45,
                "velocity": 51,
                "duration": 0.1681818,
                "tempo": 120.0
            },
            {
                "start_time": 119.6,
                "end_time": 119.7681818,
                "pitch": 33,
                "velocity": 51,
                "duration": 0.1681818,
                "tempo": 120.0
            },
            {
                "start_time": 119.8022727,
                "end_time": 119.9704545,
                "pitch": 45,
                "velocity": 51,
                "duration": 0.1681818,
                "tempo": 120.0
            },
            {
                "start_time": 120.0022727,
                "end_time": 120.1704545,
                "pitch": 33,
                "velocity": 51,
                "duration": 0.1681818,
                "tempo": 120.0
            },
            {
                "start_time": 120.2022727,
                "end_time": 120.3704545,
                "pitch": 45,
                "velocity": 51,
                "duration": 0.1681818,
                "tempo": 120.0
            },
            {
                "start_time": 120.4045455,
                "end_time": 120.5704545,
                "pitch": 33,
                "velocity": 51,
                "duration": 0.1659091,
                "tempo": 120.0
            },
            {
                "start_time": 120.6045455,
                "end_time": 120.7727273,
                "pitch": 45,
                "velocity": 51,
                "duration": 0.1681818,
                "tempo": 120.0
            },
            {
                "start_time": 120.8068182,
                "end_time": 120.9727273,
                "pitch": 33,
                "velocity": 51,
                "duration": 0.1659091,
                "tempo": 120.0
            },
            {
                "start_time": 121.0068182,
                "end_time": 121.1727273,
                "pitch": 45,
                "velocity": 51,
                "duration": 0.1659091,
                "tempo": 120.0
            },
            {
                "start_time": 121.2068182,
                "end_time": 121.375,
                "pitch": 33,
                "velocity": 51,
                "duration": 0.1681818,
                "tempo": 120.0
            },
            {
                "start_time": 121.4068182,
                "end_time": 121.575,
                "pitch": 45,
                "velocity": 51,
                "duration": 0.1681818,
                "tempo": 120.0
            },
            {
                "start_time": 121.6090909,
                "end_time": 121.7818182,
                "pitch": 33,
                "velocity": 51,
                "duration": 0.1727273,
                "tempo": 120.0
            },
            {
                "start_time": 121.8159091,
                "end_time": 121.9863636,
                "pitch": 45,
                "velocity": 51,
                "duration": 0.1704545,
                "tempo": 120.0
            },
            {
                "start_time": 122.0204545,
                "end_time": 122.1886364,
                "pitch": 26,
                "velocity": 51,
                "duration": 0.1681818,
                "tempo": 120.0
            },
            {
                "start_time": 122.2204545,
                "end_time": 122.3045455,
                "pitch": 38,
                "velocity": 51,
                "duration": 0.0840909,
                "tempo": 120.0
            },
            {
                "start_time": 122.3045455,
                "end_time": 122.3886364,
                "pitch": 38,
                "velocity": 51,
                "duration": 0.0840909,
                "tempo": 120.0
            },
            {
                "start_time": 122.4227273,
                "end_time": 122.5840909,
                "pitch": 26,
                "velocity": 51,
                "duration": 0.1613636,
                "tempo": 120.0
            },
            {
                "start_time": 122.6181818,
                "end_time": 122.7,
                "pitch": 38,
                "velocity": 51,
                "duration": 0.0818182,
                "tempo": 120.0
            },
            {
                "start_time": 122.7,
                "end_time": 122.7818182,
                "pitch": 38,
                "velocity": 51,
                "duration": 0.0818182,
                "tempo": 120.0
            },
            {
                "start_time": 122.8136364,
                "end_time": 122.9818182,
                "pitch": 26,
                "velocity": 51,
                "duration": 0.1681818,
                "tempo": 120.0
            },
            {
                "start_time": 123.0136364,
                "end_time": 123.0977273,
                "pitch": 38,
                "velocity": 51,
                "duration": 0.0840909,
                "tempo": 120.0
            },
            {
                "start_time": 123.0977273,
                "end_time": 123.1818182,
                "pitch": 38,
                "velocity": 51,
                "duration": 0.0840909,
                "tempo": 120.0
            },
            {
                "start_time": 123.2159091,
                "end_time": 123.3818182,
                "pitch": 26,
                "velocity": 51,
                "duration": 0.1659091,
                "tempo": 120.0
            },
            {
                "start_time": 123.4159091,
                "end_time": 123.5,
                "pitch": 38,
                "velocity": 51,
                "duration": 0.0840909,
                "tempo": 120.0
            },
            {
                "start_time": 123.5,
                "end_time": 123.5840909,
                "pitch": 38,
                "velocity": 51,
                "duration": 0.0840909,
                "tempo": 120.0
            },
            {
                "start_time": 123.6181818,
                "end_time": 123.7863636,
                "pitch": 26,
                "velocity": 51,
                "duration": 0.1681818,
                "tempo": 120.0
            },
            {
                "start_time": 123.8181818,
                "end_time": 123.9022727,
                "pitch": 38,
                "velocity": 51,
                "duration": 0.0840909,
                "tempo": 120.0
            },
            {
                "start_time": 123.9022727,
                "end_time": 123.9863636,
                "pitch": 38,
                "velocity": 51,
                "duration": 0.0840909,
                "tempo": 120.0
            },
            {
                "start_time": 124.0204545,
                "end_time": 124.1909091,
                "pitch": 26,
                "velocity": 51,
                "duration": 0.1704545,
                "tempo": 120.0
            },
            {
                "start_time": 124.2272727,
                "end_time": 124.3113636,
                "pitch": 38,
                "velocity": 51,
                "duration": 0.0840909,
                "tempo": 120.0
            },
            {
                "start_time": 124.3113636,
                "end_time": 124.3977273,
                "pitch": 38,
                "velocity": 51,
                "duration": 0.0863636,
                "tempo": 120.0
            },
            {
                "start_time": 124.4295455,
                "end_time": 124.5931818,
                "pitch": 26,
                "velocity": 51,
                "duration": 0.1636364,
                "tempo": 120.0
            },
            {
                "start_time": 124.625,
                "end_time": 124.7068182,
                "pitch": 38,
                "velocity": 51,
                "duration": 0.0818182,
                "tempo": 120.0
            },
            {
                "start_time": 124.7068182,
                "end_time": 124.7886364,
                "pitch": 38,
                "velocity": 51,
                "duration": 0.0818182,
                "tempo": 120.0
            },
            {
                "start_time": 124.8227273,
                "end_time": 124.9886364,
                "pitch": 26,
                "velocity": 51,
                "duration": 0.1659091,
                "tempo": 120.0
            },
            {
                "start_time": 125.0227273,
                "end_time": 125.1068182,
                "pitch": 38,
                "velocity": 51,
                "duration": 0.0840909,
                "tempo": 120.0
            },
            {
                "start_time": 125.1068182,
                "end_time": 125.1886364,
                "pitch": 38,
                "velocity": 51,
                "duration": 0.0818182,
                "tempo": 120.0
            },
            {
                "start_time": 125.2227273,
                "end_time": 125.3909091,
                "pitch": 29,
                "velocity": 51,
                "duration": 0.1681818,
                "tempo": 120.0
            },
            {
                "start_time": 125.425,
                "end_time": 125.5931818,
                "pitch": 41,
                "velocity": 51,
                "duration": 0.1681818,
                "tempo": 120.0
            },
            {
                "start_time": 125.625,
                "end_time": 125.7931818,
                "pitch": 29,
                "velocity": 51,
                "duration": 0.1681818,
                "tempo": 120.0
            },
            {
                "start_time": 125.8272727,
                "end_time": 125.9954545,
                "pitch": 41,
                "velocity": 51,
                "duration": 0.1681818,
                "tempo": 120.0
            },
            {
                "start_time": 126.0272727,
                "end_time": 126.1954545,
                "pitch": 29,
                "velocity": 51,
                "duration": 0.1681818,
                "tempo": 120.0
            },
            {
                "start_time": 126.2272727,
                "end_time": 126.3954545,
                "pitch": 41,
                "velocity": 51,
                "duration": 0.1681818,
                "tempo": 120.0
            },
            {
                "start_time": 126.4295455,
                "end_time": 126.6,
                "pitch": 29,
                "velocity": 51,
                "duration": 0.1704545,
                "tempo": 120.0
            },
            {
                "start_time": 126.6340909,
                "end_time": 126.8045455,
                "pitch": 41,
                "velocity": 51,
                "duration": 0.1704545,
                "tempo": 120.0
            },
            {
                "start_time": 126.8386364,
                "end_time": 127.0022727,
                "pitch": 31,
                "velocity": 51,
                "duration": 0.1636364,
                "tempo": 120.0
            },
            {
                "start_time": 127.0340909,
                "end_time": 127.1977273,
                "pitch": 43,
                "velocity": 51,
                "duration": 0.1636364,
                "tempo": 120.0
            },
            {
                "start_time": 127.2318182,
                "end_time": 127.4,
                "pitch": 31,
                "velocity": 51,
                "duration": 0.1681818,
                "tempo": 120.0
            },
            {
                "start_time": 127.4318182,
                "end_time": 127.6,
                "pitch": 43,
                "velocity": 51,
                "duration": 0.1681818,
                "tempo": 120.0
            },
            {
                "start_time": 127.6340909,
                "end_time": 127.8022727,
                "pitch": 31,
                "velocity": 51,
                "duration": 0.1681818,
                "tempo": 120.0
            },
            {
                "start_time": 127.8363636,
                "end_time": 128.0022727,
                "pitch": 43,
                "velocity": 51,
                "duration": 0.1659091,
                "tempo": 120.0
            },
            {
                "start_time": 128.0363636,
                "end_time": 128.2090909,
                "pitch": 31,
                "velocity": 51,
                "duration": 0.1727273,
                "tempo": 120.0
            },
            {
                "start_time": 128.2431818,
                "end_time": 128.4136364,
                "pitch": 43,
                "velocity": 51,
                "duration": 0.1704545,
                "tempo": 120.0
            },
            {
                "start_time": 128.4454545,
                "end_time": 128.6090909,
                "pitch": 33,
                "velocity": 51,
                "duration": 0.1636364,
                "tempo": 120.0
            },
            {
                "start_time": 128.6431818,
                "end_time": 128.725,
                "pitch": 45,
                "velocity": 51,
                "duration": 0.0818182,
                "tempo": 120.0
            },
            {
                "start_time": 128.725,
                "end_time": 128.8068182,
                "pitch": 45,
                "velocity": 51,
                "duration": 0.0818182,
                "tempo": 120.0
            },
            {
                "start_time": 128.8386364,
                "end_time": 129.0068182,
                "pitch": 33,
                "velocity": 51,
                "duration": 0.1681818,
                "tempo": 120.0
            },
            {
                "start_time": 129.0386364,
                "end_time": 129.1227273,
                "pitch": 45,
                "velocity": 51,
                "duration": 0.0840909,
                "tempo": 120.0
            },
            {
                "start_time": 129.1227273,
                "end_time": 129.2068182,
                "pitch": 45,
                "velocity": 51,
                "duration": 0.0840909,
                "tempo": 120.0
            },
            {
                "start_time": 129.2409091,
                "end_time": 129.4113636,
                "pitch": 33,
                "velocity": 51,
                "duration": 0.1704545,
                "tempo": 120.0
            },
            {
                "start_time": 129.4454545,
                "end_time": 129.5318182,
                "pitch": 45,
                "velocity": 51,
                "duration": 0.0863636,
                "tempo": 120.0
            },
            {
                "start_time": 129.5318182,
                "end_time": 129.6159091,
                "pitch": 45,
                "velocity": 51,
                "duration": 0.0840909,
                "tempo": 120.0
            },
            {
                "start_time": 129.65,
                "end_time": 129.8136364,
                "pitch": 33,
                "velocity": 51,
                "duration": 0.1636364,
                "tempo": 120.0
            },
            {
                "start_time": 129.8454545,
                "end_time": 129.9272727,
                "pitch": 45,
                "velocity": 51,
                "duration": 0.0818182,
                "tempo": 120.0
            },
            {
                "start_time": 129.9272727,
                "end_time": 130.0090909,
                "pitch": 45,
                "velocity": 51,
                "duration": 0.0818182,
                "tempo": 120.0
            },
            {
                "start_time": 130.0431818,
                "end_time": 130.2090909,
                "pitch": 33,
                "velocity": 51,
                "duration": 0.1659091,
                "tempo": 120.0
            },
            {
                "start_time": 130.2431818,
                "end_time": 130.3272727,
                "pitch": 45,
                "velocity": 51,
                "duration": 0.0840909,
                "tempo": 120.0
            },
            {
                "start_time": 130.3272727,
                "end_time": 130.4113636,
                "pitch": 45,
                "velocity": 51,
                "duration": 0.0840909,
                "tempo": 120.0
            },
            {
                "start_time": 130.4454545,
                "end_time": 130.6113636,
                "pitch": 33,
                "velocity": 51,
                "duration": 0.1659091,
                "tempo": 120.0
            },
            {
                "start_time": 130.6454545,
                "end_time": 130.7272727,
                "pitch": 45,
                "velocity": 51,
                "duration": 0.0818182,
                "tempo": 120.0
            },
            {
                "start_time": 130.7272727,
                "end_time": 130.8113636,
                "pitch": 45,
                "velocity": 51,
                "duration": 0.0840909,
                "tempo": 120.0
            },
            {
                "start_time": 130.8454545,
                "end_time": 131.0159091,
                "pitch": 33,
                "velocity": 51,
                "duration": 0.1704545,
                "tempo": 120.0
            },
            {
                "start_time": 131.05,
                "end_time": 131.1363636,
                "pitch": 45,
                "velocity": 51,
                "duration": 0.0863636,
                "tempo": 120.0
            },
            {
                "start_time": 131.1363636,
                "end_time": 131.2227273,
                "pitch": 45,
                "velocity": 51,
                "duration": 0.0863636,
                "tempo": 120.0
            },
            {
                "start_time": 131.2545455,
                "end_time": 131.4181818,
                "pitch": 33,
                "velocity": 51,
                "duration": 0.1636364,
                "tempo": 120.0
            },
            {
                "start_time": 131.45,
                "end_time": 131.5318182,
                "pitch": 45,
                "velocity": 51,
                "duration": 0.0818182,
                "tempo": 120.0
            },
            {
                "start_time": 131.5318182,
                "end_time": 131.6136364,
                "pitch": 45,
                "velocity": 51,
                "duration": 0.0818182,
                "tempo": 120.0
            },
            {
                "start_time": 131.6477273,
                "end_time": 131.8159091,
                "pitch": 29,
                "velocity": 51,
                "duration": 0.1681818,
                "tempo": 120.0
            },
            {
                "start_time": 131.85,
                "end_time": 131.9340909,
                "pitch": 41,
                "velocity": 51,
                "duration": 0.0840909,
                "tempo": 120.0
            },
            {
                "start_time": 131.9340909,
                "end_time": 132.0181818,
                "pitch": 41,
                "velocity": 51,
                "duration": 0.0840909,
                "tempo": 120.0
            },
            {
                "start_time": 132.05,
                "end_time": 132.2181818,
                "pitch": 29,
                "velocity": 51,
                "duration": 0.1681818,
                "tempo": 120.0
            },
            {
                "start_time": 132.2522727,
                "end_time": 132.3363636,
                "pitch": 41,
                "velocity": 51,
                "duration": 0.0840909,
                "tempo": 120.0
            },
            {
                "start_time": 132.3363636,
                "end_time": 132.4204545,
                "pitch": 41,
                "velocity": 51,
                "duration": 0.0840909,
                "tempo": 120.0
            },
            {
                "start_time": 132.4545455,
                "end_time": 132.625,
                "pitch": 29,
                "velocity": 51,
                "duration": 0.1704545,
                "tempo": 120.0
            },
            {
                "start_time": 132.6590909,
                "end_time": 132.7454545,
                "pitch": 41,
                "velocity": 51,
                "duration": 0.0863636,
                "tempo": 120.0
            },
            {
                "start_time": 132.7454545,
                "end_time": 132.8295455,
                "pitch": 41,
                "velocity": 51,
                "duration": 0.0840909,
                "tempo": 120.0
            },
            {
                "start_time": 132.8636364,
                "end_time": 133.0272727,
                "pitch": 29,
                "velocity": 51,
                "duration": 0.1636364,
                "tempo": 120.0
            },
            {
                "start_time": 133.0590909,
                "end_time": 133.1409091,
                "pitch": 41,
                "velocity": 51,
                "duration": 0.0818182,
                "tempo": 120.0
            },
            {
                "start_time": 133.1409091,
                "end_time": 133.2227273,
                "pitch": 41,
                "velocity": 51,
                "duration": 0.0818182,
                "tempo": 120.0
            },
            {
                "start_time": 133.2568182,
                "end_time": 133.425,
                "pitch": 29,
                "velocity": 51,
                "duration": 0.1681818,
                "tempo": 120.0
            },
            {
                "start_time": 133.4568182,
                "end_time": 133.5409091,
                "pitch": 41,
                "velocity": 51,
                "duration": 0.0840909,
                "tempo": 120.0
            },
            {
                "start_time": 133.5409091,
                "end_time": 133.625,
                "pitch": 41,
                "velocity": 51,
                "duration": 0.0840909,
                "tempo": 120.0
            },
            {
                "start_time": 133.6590909,
                "end_time": 133.8272727,
                "pitch": 29,
                "velocity": 51,
                "duration": 0.1681818,
                "tempo": 120.0
            },
            {
                "start_time": 133.8613636,
                "end_time": 133.9431818,
                "pitch": 41,
                "velocity": 51,
                "duration": 0.0818182,
                "tempo": 120.0
            },
            {
                "start_time": 133.9431818,
                "end_time": 134.0272727,
                "pitch": 41,
                "velocity": 51,
                "duration": 0.0840909,
                "tempo": 120.0
            },
            {
                "start_time": 134.0613636,
                "end_time": 134.2295455,
                "pitch": 29,
                "velocity": 51,
                "duration": 0.1681818,
                "tempo": 120.0
            },
            {
                "start_time": 134.2636364,
                "end_time": 134.3477273,
                "pitch": 41,
                "velocity": 51,
                "duration": 0.0840909,
                "tempo": 120.0
            },
            {
                "start_time": 134.3477273,
                "end_time": 134.4318182,
                "pitch": 41,
                "velocity": 51,
                "duration": 0.0840909,
                "tempo": 120.0
            },
            {
                "start_time": 134.4636364,
                "end_time": 134.6318182,
                "pitch": 29,
                "velocity": 51,
                "duration": 0.1681818,
                "tempo": 120.0
            },
            {
                "start_time": 134.6636364,
                "end_time": 134.7477273,
                "pitch": 41,
                "velocity": 51,
                "duration": 0.0840909,
                "tempo": 120.0
            },
            {
                "start_time": 134.7477273,
                "end_time": 134.8318182,
                "pitch": 41,
                "velocity": 51,
                "duration": 0.0840909,
                "tempo": 120.0
            },
            {
                "start_time": 134.8636364,
                "end_time": 135.0318182,
                "pitch": 31,
                "velocity": 51,
                "duration": 0.1681818,
                "tempo": 120.0
            },
            {
                "start_time": 135.0659091,
                "end_time": 135.15,
                "pitch": 43,
                "velocity": 51,
                "duration": 0.0840909,
                "tempo": 120.0
            },
            {
                "start_time": 135.15,
                "end_time": 135.2340909,
                "pitch": 43,
                "velocity": 51,
                "duration": 0.0840909,
                "tempo": 120.0
            },
            {
                "start_time": 135.2659091,
                "end_time": 135.4340909,
                "pitch": 31,
                "velocity": 51,
                "duration": 0.1681818,
                "tempo": 120.0
            },
            {
                "start_time": 135.4681818,
                "end_time": 135.5522727,
                "pitch": 43,
                "velocity": 51,
                "duration": 0.0840909,
                "tempo": 120.0
            },
            {
                "start_time": 135.5522727,
                "end_time": 135.6363636,
                "pitch": 43,
                "velocity": 51,
                "duration": 0.0840909,
                "tempo": 120.0
            },
            {
                "start_time": 135.6704545,
                "end_time": 135.8363636,
                "pitch": 31,
                "velocity": 51,
                "duration": 0.1659091,
                "tempo": 120.0
            },
            {
                "start_time": 135.8704545,
                "end_time": 135.9545455,
                "pitch": 43,
                "velocity": 51,
                "duration": 0.0840909,
                "tempo": 120.0
            },
            {
                "start_time": 135.9545455,
                "end_time": 136.0386364,
                "pitch": 43,
                "velocity": 51,
                "duration": 0.0840909,
                "tempo": 120.0
            },
            {
                "start_time": 136.0727273,
                "end_time": 136.2409091,
                "pitch": 31,
                "velocity": 51,
                "duration": 0.1681818,
                "tempo": 120.0
            },
            {
                "start_time": 136.2727273,
                "end_time": 136.3568182,
                "pitch": 43,
                "velocity": 51,
                "duration": 0.0840909,
                "tempo": 120.0
            },
            {
                "start_time": 136.3568182,
                "end_time": 136.4409091,
                "pitch": 43,
                "velocity": 51,
                "duration": 0.0840909,
                "tempo": 120.0
            },
            {
                "start_time": 136.475,
                "end_time": 136.6409091,
                "pitch": 31,
                "velocity": 51,
                "duration": 0.1659091,
                "tempo": 120.0
            },
            {
                "start_time": 136.675,
                "end_time": 136.7590909,
                "pitch": 43,
                "velocity": 51,
                "duration": 0.0840909,
                "tempo": 120.0
            },
            {
                "start_time": 136.7590909,
                "end_time": 136.8409091,
                "pitch": 43,
                "velocity": 51,
                "duration": 0.0818182,
                "tempo": 120.0
            },
            {
                "start_time": 136.875,
                "end_time": 137.0431818,
                "pitch": 31,
                "velocity": 51,
                "duration": 0.1681818,
                "tempo": 120.0
            },
            {
                "start_time": 137.0772727,
                "end_time": 137.1613636,
                "pitch": 43,
                "velocity": 51,
                "duration": 0.0840909,
                "tempo": 120.0
            },
            {
                "start_time": 137.1613636,
                "end_time": 137.2431818,
                "pitch": 43,
                "velocity": 51,
                "duration": 0.0818182,
                "tempo": 120.0
            },
            {
                "start_time": 137.2772727,
                "end_time": 137.45,
                "pitch": 31,
                "velocity": 51,
                "duration": 0.1727273,
                "tempo": 120.0
            },
            {
                "start_time": 137.4840909,
                "end_time": 137.5704545,
                "pitch": 43,
                "velocity": 51,
                "duration": 0.0863636,
                "tempo": 120.0
            },
            {
                "start_time": 137.5704545,
                "end_time": 137.6545455,
                "pitch": 43,
                "velocity": 51,
                "duration": 0.0840909,
                "tempo": 120.0
            },
            {
                "start_time": 137.6886364,
                "end_time": 137.8568182,
                "pitch": 31,
                "velocity": 51,
                "duration": 0.1681818,
                "tempo": 120.0
            },
            {
                "start_time": 137.8909091,
                "end_time": 137.975,
                "pitch": 43,
                "velocity": 51,
                "duration": 0.0840909,
                "tempo": 120.0
            },
            {
                "start_time": 137.975,
                "end_time": 138.0568182,
                "pitch": 43,
                "velocity": 51,
                "duration": 0.0818182,
                "tempo": 120.0
            },
            {
                "start_time": 138.0909091,
                "end_time": 138.2545455,
                "pitch": 33,
                "velocity": 51,
                "duration": 0.1636364,
                "tempo": 120.0
            },
            {
                "start_time": 138.2863636,
                "end_time": 138.3681818,
                "pitch": 45,
                "velocity": 51,
                "duration": 0.0818182,
                "tempo": 120.0
            },
            {
                "start_time": 138.3681818,
                "end_time": 138.45,
                "pitch": 45,
                "velocity": 51,
                "duration": 0.0818182,
                "tempo": 120.0
            },
            {
                "start_time": 138.4840909,
                "end_time": 138.65,
                "pitch": 33,
                "velocity": 51,
                "duration": 0.1659091,
                "tempo": 120.0
            },
            {
                "start_time": 138.6840909,
                "end_time": 138.7659091,
                "pitch": 45,
                "velocity": 51,
                "duration": 0.0818182,
                "tempo": 120.0
            },
            {
                "start_time": 138.7659091,
                "end_time": 138.85,
                "pitch": 45,
                "velocity": 51,
                "duration": 0.0840909,
                "tempo": 120.0
            },
            {
                "start_time": 138.8840909,
                "end_time": 139.0545455,
                "pitch": 33,
                "velocity": 51,
                "duration": 0.1704545,
                "tempo": 120.0
            },
            {
                "start_time": 139.0886364,
                "end_time": 139.175,
                "pitch": 45,
                "velocity": 51,
                "duration": 0.0863636,
                "tempo": 120.0
            },
            {
                "start_time": 139.175,
                "end_time": 139.2613636,
                "pitch": 45,
                "velocity": 51,
                "duration": 0.0863636,
                "tempo": 120.0
            },
            {
                "start_time": 139.2931818,
                "end_time": 139.4568182,
                "pitch": 33,
                "velocity": 51,
                "duration": 0.1636364,
                "tempo": 120.0
            },
            {
                "start_time": 139.4886364,
                "end_time": 139.5704545,
                "pitch": 45,
                "velocity": 51,
                "duration": 0.0818182,
                "tempo": 120.0
            },
            {
                "start_time": 139.5704545,
                "end_time": 139.6522727,
                "pitch": 45,
                "velocity": 51,
                "duration": 0.0818182,
                "tempo": 120.0
            },
            {
                "start_time": 139.6863636,
                "end_time": 139.8545455,
                "pitch": 33,
                "velocity": 51,
                "duration": 0.1681818,
                "tempo": 120.0
            },
            {
                "start_time": 139.8886364,
                "end_time": 139.9704545,
                "pitch": 45,
                "velocity": 51,
                "duration": 0.0818182,
                "tempo": 120.0
            },
            {
                "start_time": 139.9704545,
                "end_time": 140.0545455,
                "pitch": 45,
                "velocity": 51,
                "duration": 0.0840909,
                "tempo": 120.0
            },
            {
                "start_time": 140.0886364,
                "end_time": 140.2568182,
                "pitch": 33,
                "velocity": 51,
                "duration": 0.1681818,
                "tempo": 120.0
            },
            {
                "start_time": 140.2909091,
                "end_time": 140.375,
                "pitch": 45,
                "velocity": 51,
                "duration": 0.0840909,
                "tempo": 120.0
            },
            {
                "start_time": 140.375,
                "end_time": 140.4590909,
                "pitch": 45,
                "velocity": 51,
                "duration": 0.0840909,
                "tempo": 120.0
            },
            {
                "start_time": 140.4909091,
                "end_time": 140.6590909,
                "pitch": 33,
                "velocity": 51,
                "duration": 0.1681818,
                "tempo": 120.0
            },
            {
                "start_time": 140.6909091,
                "end_time": 140.775,
                "pitch": 45,
                "velocity": 51,
                "duration": 0.0840909,
                "tempo": 120.0
            },
            {
                "start_time": 140.775,
                "end_time": 140.8590909,
                "pitch": 45,
                "velocity": 51,
                "duration": 0.0840909,
                "tempo": 120.0
            },
            {
                "start_time": 140.8909091,
                "end_time": 141.0590909,
                "pitch": 33,
                "velocity": 51,
                "duration": 0.1681818,
                "tempo": 120.0
            },
            {
                "start_time": 141.0931818,
                "end_time": 141.1772727,
                "pitch": 45,
                "velocity": 51,
                "duration": 0.0840909,
                "tempo": 120.0
            },
            {
                "start_time": 141.1772727,
                "end_time": 141.2613636,
                "pitch": 45,
                "velocity": 51,
                "duration": 0.0840909,
                "tempo": 120.0
            },
            {
                "start_time": 141.2954545,
                "end_time": 141.4613636,
                "pitch": 33,
                "velocity": 51,
                "duration": 0.1659091,
                "tempo": 120.0
            },
            {
                "start_time": 141.4954545,
                "end_time": 141.5795455,
                "pitch": 45,
                "velocity": 51,
                "duration": 0.0840909,
                "tempo": 120.0
            },
            {
                "start_time": 141.5795455,
                "end_time": 141.6636364,
                "pitch": 45,
                "velocity": 51,
                "duration": 0.0840909,
                "tempo": 120.0
            },
            {
                "start_time": 141.6977273,
                "end_time": 141.8659091,
                "pitch": 33,
                "velocity": 51,
                "duration": 0.1681818,
                "tempo": 120.0
            },
            {
                "start_time": 141.8977273,
                "end_time": 141.9818182,
                "pitch": 45,
                "velocity": 51,
                "duration": 0.0840909,
                "tempo": 120.0
            },
            {
                "start_time": 141.9818182,
                "end_time": 142.0659091,
                "pitch": 45,
                "velocity": 51,
                "duration": 0.0840909,
                "tempo": 120.0
            },
            {
                "start_time": 142.1,
                "end_time": 142.2704545,
                "pitch": 33,
                "velocity": 51,
                "duration": 0.1704545,
                "tempo": 120.0
            },
            {
                "start_time": 142.3068182,
                "end_time": 142.3909091,
                "pitch": 45,
                "velocity": 51,
                "duration": 0.0840909,
                "tempo": 120.0
            },
            {
                "start_time": 142.3909091,
                "end_time": 142.4772727,
                "pitch": 45,
                "velocity": 51,
                "duration": 0.0863636,
                "tempo": 120.0
            },
            {
                "start_time": 142.5090909,
                "end_time": 142.6727273,
                "pitch": 33,
                "velocity": 51,
                "duration": 0.1636364,
                "tempo": 120.0
            },
            {
                "start_time": 142.7045455,
                "end_time": 142.7863636,
                "pitch": 45,
                "velocity": 51,
                "duration": 0.0818182,
                "tempo": 120.0
            },
            {
                "start_time": 142.7863636,
                "end_time": 142.8681818,
                "pitch": 45,
                "velocity": 51,
                "duration": 0.0818182,
                "tempo": 120.0
            },
            {
                "start_time": 142.9022727,
                "end_time": 143.0704545,
                "pitch": 33,
                "velocity": 51,
                "duration": 0.1681818,
                "tempo": 120.0
            },
            {
                "start_time": 143.1045455,
                "end_time": 143.1886364,
                "pitch": 45,
                "velocity": 51,
                "duration": 0.0840909,
                "tempo": 120.0
            },
            {
                "start_time": 143.1886364,
                "end_time": 143.2727273,
                "pitch": 45,
                "velocity": 51,
                "duration": 0.0840909,
                "tempo": 120.0
            },
            {
                "start_time": 143.3045455,
                "end_time": 143.4727273,
                "pitch": 33,
                "velocity": 51,
                "duration": 0.1681818,
                "tempo": 120.0
            },
            {
                "start_time": 143.5068182,
                "end_time": 143.5909091,
                "pitch": 45,
                "velocity": 51,
                "duration": 0.0840909,
                "tempo": 120.0
            },
            {
                "start_time": 143.5909091,
                "end_time": 143.675,
                "pitch": 45,
                "velocity": 51,
                "duration": 0.0840909,
                "tempo": 120.0
            },
            {
                "start_time": 143.7090909,
                "end_time": 143.8795455,
                "pitch": 33,
                "velocity": 51,
                "duration": 0.1704545,
                "tempo": 120.0
            },
            {
                "start_time": 143.9136364,
                "end_time": 144.0,
                "pitch": 45,
                "velocity": 51,
                "duration": 0.0863636,
                "tempo": 120.0
            },
            {
                "start_time": 144.0,
                "end_time": 144.0840909,
                "pitch": 45,
                "velocity": 51,
                "duration": 0.0840909,
                "tempo": 120.0
            },
            {
                "start_time": 144.1181818,
                "end_time": 144.2818182,
                "pitch": 33,
                "velocity": 51,
                "duration": 0.1636364,
                "tempo": 120.0
            },
            {
                "start_time": 144.3136364,
                "end_time": 144.3954545,
                "pitch": 45,
                "velocity": 51,
                "duration": 0.0818182,
                "tempo": 120.0
            },
            {
                "start_time": 144.3954545,
                "end_time": 144.4772727,
                "pitch": 45,
                "velocity": 51,
                "duration": 0.0818182,
                "tempo": 120.0
            },
            {
                "start_time": 144.5113636,
                "end_time": 144.6772727,
                "pitch": 29,
                "velocity": 51,
                "duration": 0.1659091,
                "tempo": 120.0
            },
            {
                "start_time": 144.7113636,
                "end_time": 144.7931818,
                "pitch": 41,
                "velocity": 51,
                "duration": 0.0818182,
                "tempo": 120.0
            },
            {
                "start_time": 144.7931818,
                "end_time": 144.8772727,
                "pitch": 41,
                "velocity": 51,
                "duration": 0.0840909,
                "tempo": 120.0
            },
            {
                "start_time": 144.9113636,
                "end_time": 145.0795455,
                "pitch": 29,
                "velocity": 51,
                "duration": 0.1681818,
                "tempo": 120.0
            },
            {
                "start_time": 145.1113636,
                "end_time": 145.1954545,
                "pitch": 41,
                "velocity": 51,
                "duration": 0.0840909,
                "tempo": 120.0
            },
            {
                "start_time": 145.1954545,
                "end_time": 145.2795455,
                "pitch": 41,
                "velocity": 51,
                "duration": 0.0840909,
                "tempo": 120.0
            },
            {
                "start_time": 145.3136364,
                "end_time": 145.4863636,
                "pitch": 29,
                "velocity": 51,
                "duration": 0.1727273,
                "tempo": 120.0
            },
            {
                "start_time": 145.5204545,
                "end_time": 145.6045455,
                "pitch": 41,
                "velocity": 51,
                "duration": 0.0840909,
                "tempo": 120.0
            },
            {
                "start_time": 145.6045455,
                "end_time": 145.6909091,
                "pitch": 41,
                "velocity": 51,
                "duration": 0.0863636,
                "tempo": 120.0
            },
            {
                "start_time": 145.7227273,
                "end_time": 145.8863636,
                "pitch": 29,
                "velocity": 51,
                "duration": 0.1636364,
                "tempo": 120.0
            },
            {
                "start_time": 145.9204545,
                "end_time": 146.0022727,
                "pitch": 41,
                "velocity": 51,
                "duration": 0.0818182,
                "tempo": 120.0
            },
            {
                "start_time": 146.0022727,
                "end_time": 146.0840909,
                "pitch": 41,
                "velocity": 51,
                "duration": 0.0818182,
                "tempo": 120.0
            },
            {
                "start_time": 146.1159091,
                "end_time": 146.2840909,
                "pitch": 29,
                "velocity": 51,
                "duration": 0.1681818,
                "tempo": 120.0
            },
            {
                "start_time": 146.3181818,
                "end_time": 146.4022727,
                "pitch": 41,
                "velocity": 51,
                "duration": 0.0840909,
                "tempo": 120.0
            },
            {
                "start_time": 146.4022727,
                "end_time": 146.4863636,
                "pitch": 41,
                "velocity": 51,
                "duration": 0.0840909,
                "tempo": 120.0
            },
            {
                "start_time": 146.5181818,
                "end_time": 146.6863636,
                "pitch": 29,
                "velocity": 51,
                "duration": 0.1681818,
                "tempo": 120.0
            },
            {
                "start_time": 146.7181818,
                "end_time": 146.8022727,
                "pitch": 41,
                "velocity": 51,
                "duration": 0.0840909,
                "tempo": 120.0
            },
            {
                "start_time": 146.8022727,
                "end_time": 146.8863636,
                "pitch": 41,
                "velocity": 51,
                "duration": 0.0840909,
                "tempo": 120.0
            },
            {
                "start_time": 146.9204545,
                "end_time": 147.0909091,
                "pitch": 29,
                "velocity": 51,
                "duration": 0.1704545,
                "tempo": 120.0
            },
            {
                "start_time": 147.125,
                "end_time": 147.2113636,
                "pitch": 41,
                "velocity": 51,
                "duration": 0.0863636,
                "tempo": 120.0
            },
            {
                "start_time": 147.2113636,
                "end_time": 147.2954545,
                "pitch": 41,
                "velocity": 51,
                "duration": 0.0840909,
                "tempo": 120.0
            },
            {
                "start_time": 147.3295455,
                "end_time": 147.4931818,
                "pitch": 29,
                "velocity": 51,
                "duration": 0.1636364,
                "tempo": 120.0
            },
            {
                "start_time": 147.525,
                "end_time": 147.6068182,
                "pitch": 41,
                "velocity": 51,
                "duration": 0.0818182,
                "tempo": 120.0
            },
            {
                "start_time": 147.6068182,
                "end_time": 147.6886364,
                "pitch": 41,
                "velocity": 51,
                "duration": 0.0818182,
                "tempo": 120.0
            },
            {
                "start_time": 147.7227273,
                "end_time": 147.8909091,
                "pitch": 31,
                "velocity": 51,
                "duration": 0.1681818,
                "tempo": 120.0
            },
            {
                "start_time": 147.9227273,
                "end_time": 148.0068182,
                "pitch": 43,
                "velocity": 51,
                "duration": 0.0840909,
                "tempo": 120.0
            },
            {
                "start_time": 148.0068182,
                "end_time": 148.0909091,
                "pitch": 43,
                "velocity": 51,
                "duration": 0.0840909,
                "tempo": 120.0
            },
            {
                "start_time": 148.125,
                "end_time": 148.2931818,
                "pitch": 31,
                "velocity": 51,
                "duration": 0.1681818,
                "tempo": 120.0
            },
            {
                "start_time": 148.325,
                "end_time": 148.4090909,
                "pitch": 43,
                "velocity": 51,
                "duration": 0.0840909,
                "tempo": 120.0
            },
            {
                "start_time": 148.4090909,
                "end_time": 148.4931818,
                "pitch": 43,
                "velocity": 51,
                "duration": 0.0840909,
                "tempo": 120.0
            },
            {
                "start_time": 148.5272727,
                "end_time": 148.7,
                "pitch": 31,
                "velocity": 51,
                "duration": 0.1727273,
                "tempo": 120.0
            },
            {
                "start_time": 148.7340909,
                "end_time": 148.8181818,
                "pitch": 43,
                "velocity": 51,
                "duration": 0.0840909,
                "tempo": 120.0
            },
            {
                "start_time": 148.8181818,
                "end_time": 148.9045455,
                "pitch": 43,
                "velocity": 51,
                "duration": 0.0863636,
                "tempo": 120.0
            },
            {
                "start_time": 148.9363636,
                "end_time": 149.1,
                "pitch": 31,
                "velocity": 51,
                "duration": 0.1636364,
                "tempo": 120.0
            },
            {
                "start_time": 149.1340909,
                "end_time": 149.2159091,
                "pitch": 43,
                "velocity": 51,
                "duration": 0.0818182,
                "tempo": 120.0
            },
            {
                "start_time": 149.2159091,
                "end_time": 149.2977273,
                "pitch": 43,
                "velocity": 51,
                "duration": 0.0818182,
                "tempo": 120.0
            },
            {
                "start_time": 149.3295455,
                "end_time": 149.4977273,
                "pitch": 31,
                "velocity": 51,
                "duration": 0.1681818,
                "tempo": 120.0
            },
            {
                "start_time": 149.5318182,
                "end_time": 149.6159091,
                "pitch": 43,
                "velocity": 51,
                "duration": 0.0840909,
                "tempo": 120.0
            },
            {
                "start_time": 149.6159091,
                "end_time": 149.7,
                "pitch": 43,
                "velocity": 51,
                "duration": 0.0840909,
                "tempo": 120.0
            },
            {
                "start_time": 149.7340909,
                "end_time": 149.9,
                "pitch": 31,
                "velocity": 51,
                "duration": 0.1659091,
                "tempo": 120.0
            },
            {
                "start_time": 149.9340909,
                "end_time": 150.0181818,
                "pitch": 43,
                "velocity": 51,
                "duration": 0.0840909,
                "tempo": 120.0
            },
            {
                "start_time": 150.0181818,
                "end_time": 150.1022727,
                "pitch": 43,
                "velocity": 51,
                "duration": 0.0840909,
                "tempo": 120.0
            },
            {
                "start_time": 150.1363636,
                "end_time": 150.3068182,
                "pitch": 31,
                "velocity": 51,
                "duration": 0.1704545,
                "tempo": 120.0
            },
            {
                "start_time": 150.3409091,
                "end_time": 150.4272727,
                "pitch": 43,
                "velocity": 51,
                "duration": 0.0863636,
                "tempo": 120.0
            },
            {
                "start_time": 150.4272727,
                "end_time": 150.5136364,
                "pitch": 43,
                "velocity": 51,
                "duration": 0.0863636,
                "tempo": 120.0
            },
            {
                "start_time": 150.5477273,
                "end_time": 150.7136364,
                "pitch": 31,
                "velocity": 51,
                "duration": 0.1659091,
                "tempo": 120.0
            },
            {
                "start_time": 150.7477273,
                "end_time": 150.8318182,
                "pitch": 43,
                "velocity": 51,
                "duration": 0.0840909,
                "tempo": 120.0
            },
            {
                "start_time": 150.8318182,
                "end_time": 150.9159091,
                "pitch": 43,
                "velocity": 51,
                "duration": 0.0840909,
                "tempo": 120.0
            },
            {
                "start_time": 150.9477273,
                "end_time": 151.1113636,
                "pitch": 33,
                "velocity": 51,
                "duration": 0.1636364,
                "tempo": 120.0
            },
            {
                "start_time": 151.1454545,
                "end_time": 151.2272727,
                "pitch": 45,
                "velocity": 51,
                "duration": 0.0818182,
                "tempo": 120.0
            },
            {
                "start_time": 151.2272727,
                "end_time": 151.3090909,
                "pitch": 45,
                "velocity": 51,
                "duration": 0.0818182,
                "tempo": 120.0
            },
            {
                "start_time": 151.3409091,
                "end_time": 151.5090909,
                "pitch": 33,
                "velocity": 51,
                "duration": 0.1681818,
                "tempo": 120.0
            },
            {
                "start_time": 151.5431818,
                "end_time": 151.6272727,
                "pitch": 45,
                "velocity": 51,
                "duration": 0.0840909,
                "tempo": 120.0
            },
            {
                "start_time": 151.6272727,
                "end_time": 151.7113636,
                "pitch": 45,
                "velocity": 51,
                "duration": 0.0840909,
                "tempo": 120.0
            },
            {
                "start_time": 151.7454545,
                "end_time": 151.9159091,
                "pitch": 33,
                "velocity": 51,
                "duration": 0.1704545,
                "tempo": 120.0
            },
            {
                "start_time": 151.95,
                "end_time": 152.0363636,
                "pitch": 45,
                "velocity": 51,
                "duration": 0.0863636,
                "tempo": 120.0
            },
            {
                "start_time": 152.0363636,
                "end_time": 152.1204545,
                "pitch": 45,
                "velocity": 51,
                "duration": 0.0840909,
                "tempo": 120.0
            },
            {
                "start_time": 152.1545455,
                "end_time": 152.3181818,
                "pitch": 33,
                "velocity": 51,
                "duration": 0.1636364,
                "tempo": 120.0
            },
            {
                "start_time": 152.35,
                "end_time": 152.4318182,
                "pitch": 45,
                "velocity": 51,
                "duration": 0.0818182,
                "tempo": 120.0
            },
            {
                "start_time": 152.4318182,
                "end_time": 152.5136364,
                "pitch": 45,
                "velocity": 51,
                "duration": 0.0818182,
                "tempo": 120.0
            },
            {
                "start_time": 152.5477273,
                "end_time": 152.7136364,
                "pitch": 33,
                "velocity": 51,
                "duration": 0.1659091,
                "tempo": 120.0
            },
            {
                "start_time": 152.7477273,
                "end_time": 152.8295455,
                "pitch": 45,
                "velocity": 51,
                "duration": 0.0818182,
                "tempo": 120.0
            },
            {
                "start_time": 152.8295455,
                "end_time": 152.9136364,
                "pitch": 45,
                "velocity": 51,
                "duration": 0.0840909,
                "tempo": 120.0
            },
            {
                "start_time": 152.9477273,
                "end_time": 153.1159091,
                "pitch": 33,
                "velocity": 51,
                "duration": 0.1681818,
                "tempo": 120.0
            },
            {
                "start_time": 153.1477273,
                "end_time": 153.2318182,
                "pitch": 45,
                "velocity": 51,
                "duration": 0.0840909,
                "tempo": 120.0
            },
            {
                "start_time": 153.2318182,
                "end_time": 153.3159091,
                "pitch": 45,
                "velocity": 51,
                "duration": 0.0840909,
                "tempo": 120.0
            },
            {
                "start_time": 153.35,
                "end_time": 153.5181818,
                "pitch": 33,
                "velocity": 51,
                "duration": 0.1681818,
                "tempo": 120.0
            },
            {
                "start_time": 153.5522727,
                "end_time": 153.6340909,
                "pitch": 45,
                "velocity": 51,
                "duration": 0.0818182,
                "tempo": 120.0
            },
            {
                "start_time": 153.6340909,
                "end_time": 153.7181818,
                "pitch": 45,
                "velocity": 51,
                "duration": 0.0840909,
                "tempo": 120.0
            },
            {
                "start_time": 153.7522727,
                "end_time": 153.9204545,
                "pitch": 33,
                "velocity": 51,
                "duration": 0.1681818,
                "tempo": 120.0
            },
            {
                "start_time": 153.9545455,
                "end_time": 154.0386364,
                "pitch": 45,
                "velocity": 51,
                "duration": 0.0840909,
                "tempo": 120.0
            },
            {
                "start_time": 154.0386364,
                "end_time": 154.1227273,
                "pitch": 45,
                "velocity": 51,
                "duration": 0.0840909,
                "tempo": 120.0
            },
            {
                "start_time": 154.1545455,
                "end_time": 154.3227273,
                "pitch": 33,
                "velocity": 51,
                "duration": 0.1681818,
                "tempo": 120.0
            },
            {
                "start_time": 154.3568182,
                "end_time": 154.4409091,
                "pitch": 45,
                "velocity": 51,
                "duration": 0.0840909,
                "tempo": 120.0
            },
            {
                "start_time": 154.4409091,
                "end_time": 154.525,
                "pitch": 45,
                "velocity": 51,
                "duration": 0.0840909,
                "tempo": 120.0
            },
            {
                "start_time": 154.5568182,
                "end_time": 154.725,
                "pitch": 33,
                "velocity": 51,
                "duration": 0.1681818,
                "tempo": 120.0
            },
            {
                "start_time": 154.7568182,
                "end_time": 154.8409091,
                "pitch": 45,
                "velocity": 51,
                "duration": 0.0840909,
                "tempo": 120.0
            },
            {
                "start_time": 154.8409091,
                "end_time": 154.925,
                "pitch": 45,
                "velocity": 51,
                "duration": 0.0840909,
                "tempo": 120.0
            },
            {
                "start_time": 154.9590909,
                "end_time": 155.1295455,
                "pitch": 33,
                "velocity": 51,
                "duration": 0.1704545,
                "tempo": 120.0
            },
            {
                "start_time": 155.1636364,
                "end_time": 155.25,
                "pitch": 45,
                "velocity": 51,
                "duration": 0.0863636,
                "tempo": 120.0
            },
            {
                "start_time": 155.25,
                "end_time": 155.3340909,
                "pitch": 45,
                "velocity": 51,
                "duration": 0.0840909,
                "tempo": 120.0
            },
            {
                "start_time": 155.3681818,
                "end_time": 155.5318182,
                "pitch": 33,
                "velocity": 51,
                "duration": 0.1636364,
                "tempo": 120.0
            },
            {
                "start_time": 155.5636364,
                "end_time": 155.6454545,
                "pitch": 45,
                "velocity": 51,
                "duration": 0.0818182,
                "tempo": 120.0
            },
            {
                "start_time": 155.6454545,
                "end_time": 155.7272727,
                "pitch": 45,
                "velocity": 51,
                "duration": 0.0818182,
                "tempo": 120.0
            },
            {
                "start_time": 155.7613636,
                "end_time": 155.9295455,
                "pitch": 33,
                "velocity": 51,
                "duration": 0.1681818,
                "tempo": 120.0
            },
            {
                "start_time": 155.9613636,
                "end_time": 156.0454545,
                "pitch": 45,
                "velocity": 51,
                "duration": 0.0840909,
                "tempo": 120.0
            },
            {
                "start_time": 156.0454545,
                "end_time": 156.1295455,
                "pitch": 45,
                "velocity": 51,
                "duration": 0.0840909,
                "tempo": 120.0
            },
            {
                "start_time": 156.1636364,
                "end_time": 156.3318182,
                "pitch": 33,
                "velocity": 51,
                "duration": 0.1681818,
                "tempo": 120.0
            },
            {
                "start_time": 156.3636364,
                "end_time": 156.4477273,
                "pitch": 45,
                "velocity": 51,
                "duration": 0.0840909,
                "tempo": 120.0
            },
            {
                "start_time": 156.4477273,
                "end_time": 156.5318182,
                "pitch": 45,
                "velocity": 51,
                "duration": 0.0840909,
                "tempo": 120.0
            },
            {
                "start_time": 156.5659091,
                "end_time": 156.7386364,
                "pitch": 33,
                "velocity": 51,
                "duration": 0.1727273,
                "tempo": 120.0
            },
            {
                "start_time": 156.7727273,
                "end_time": 156.8568182,
                "pitch": 45,
                "velocity": 51,
                "duration": 0.0840909,
                "tempo": 120.0
            },
            {
                "start_time": 156.8568182,
                "end_time": 156.9431818,
                "pitch": 45,
                "velocity": 51,
                "duration": 0.0863636,
                "tempo": 120.0
            },
            {
                "start_time": 156.975,
                "end_time": 157.1386364,
                "pitch": 33,
                "velocity": 51,
                "duration": 0.1636364,
                "tempo": 120.0
            },
            {
                "start_time": 157.1727273,
                "end_time": 157.2545455,
                "pitch": 45,
                "velocity": 51,
                "duration": 0.0818182,
                "tempo": 120.0
            },
            {
                "start_time": 157.2545455,
                "end_time": 157.3363636,
                "pitch": 45,
                "velocity": 51,
                "duration": 0.0818182,
                "tempo": 120.0
            },
            {
                "start_time": 157.3681818,
                "end_time": 157.5363636,
                "pitch": 29,
                "velocity": 51,
                "duration": 0.1681818,
                "tempo": 120.0
            },
            {
                "start_time": 157.5704545,
                "end_time": 157.6545455,
                "pitch": 41,
                "velocity": 51,
                "duration": 0.0840909,
                "tempo": 120.0
            },
            {
                "start_time": 157.6545455,
                "end_time": 157.7386364,
                "pitch": 41,
                "velocity": 51,
                "duration": 0.0840909,
                "tempo": 120.0
            },
            {
                "start_time": 157.7727273,
                "end_time": 157.9431818,
                "pitch": 29,
                "velocity": 51,
                "duration": 0.1704545,
                "tempo": 120.0
            },
            {
                "start_time": 157.9772727,
                "end_time": 158.0636364,
                "pitch": 41,
                "velocity": 51,
                "duration": 0.0863636,
                "tempo": 120.0
            },
            {
                "start_time": 158.0636364,
                "end_time": 158.15,
                "pitch": 41,
                "velocity": 51,
                "duration": 0.0863636,
                "tempo": 120.0
            },
            {
                "start_time": 158.1818182,
                "end_time": 158.35,
                "pitch": 29,
                "velocity": 51,
                "duration": 0.1681818,
                "tempo": 120.0
            },
            {
                "start_time": 158.3840909,
                "end_time": 158.4681818,
                "pitch": 41,
                "velocity": 51,
                "duration": 0.0840909,
                "tempo": 120.0
            },
            {
                "start_time": 158.4681818,
                "end_time": 158.5522727,
                "pitch": 41,
                "velocity": 51,
                "duration": 0.0840909,
                "tempo": 120.0
            },
            {
                "start_time": 158.5840909,
                "end_time": 158.7477273,
                "pitch": 29,
                "velocity": 51,
                "duration": 0.1636364,
                "tempo": 120.0
            },
            {
                "start_time": 158.7795455,
                "end_time": 158.8613636,
                "pitch": 41,
                "velocity": 51,
                "duration": 0.0818182,
                "tempo": 120.0
            },
            {
                "start_time": 158.8613636,
                "end_time": 158.9431818,
                "pitch": 41,
                "velocity": 51,
                "duration": 0.0818182,
                "tempo": 120.0
            },
            {
                "start_time": 158.9772727,
                "end_time": 159.1454545,
                "pitch": 29,
                "velocity": 51,
                "duration": 0.1681818,
                "tempo": 120.0
            },
            {
                "start_time": 159.1795455,
                "end_time": 159.2636364,
                "pitch": 41,
                "velocity": 51,
                "duration": 0.0840909,
                "tempo": 120.0
            },
            {
                "start_time": 159.2636364,
                "end_time": 159.3477273,
                "pitch": 41,
                "velocity": 51,
                "duration": 0.0840909,
                "tempo": 120.0
            },
            {
                "start_time": 159.3818182,
                "end_time": 159.5522727,
                "pitch": 29,
                "velocity": 51,
                "duration": 0.1704545,
                "tempo": 120.0
            },
            {
                "start_time": 159.5863636,
                "end_time": 159.6727273,
                "pitch": 41,
                "velocity": 51,
                "duration": 0.0863636,
                "tempo": 120.0
            },
            {
                "start_time": 159.6727273,
                "end_time": 159.7568182,
                "pitch": 41,
                "velocity": 51,
                "duration": 0.0840909,
                "tempo": 120.0
            },
            {
                "start_time": 159.7909091,
                "end_time": 159.9590909,
                "pitch": 29,
                "velocity": 51,
                "duration": 0.1681818,
                "tempo": 120.0
            },
            {
                "start_time": 159.9931818,
                "end_time": 160.0772727,
                "pitch": 41,
                "velocity": 51,
                "duration": 0.0840909,
                "tempo": 120.0
            },
            {
                "start_time": 160.0772727,
                "end_time": 160.1613636,
                "pitch": 41,
                "velocity": 51,
                "duration": 0.0840909,
                "tempo": 120.0
            },
            {
                "start_time": 160.1931818,
                "end_time": 160.3613636,
                "pitch": 29,
                "velocity": 51,
                "duration": 0.1681818,
                "tempo": 120.0
            },
            {
                "start_time": 160.3954545,
                "end_time": 160.4795455,
                "pitch": 41,
                "velocity": 51,
                "duration": 0.0840909,
                "tempo": 120.0
            },
            {
                "start_time": 160.4795455,
                "end_time": 160.5636364,
                "pitch": 41,
                "velocity": 51,
                "duration": 0.0840909,
                "tempo": 120.0
            },
            {
                "start_time": 160.5954545,
                "end_time": 160.7590909,
                "pitch": 31,
                "velocity": 51,
                "duration": 0.1636364,
                "tempo": 120.0
            },
            {
                "start_time": 160.7909091,
                "end_time": 160.8727273,
                "pitch": 43,
                "velocity": 51,
                "duration": 0.0818182,
                "tempo": 120.0
            },
            {
                "start_time": 160.8727273,
                "end_time": 160.9545455,
                "pitch": 43,
                "velocity": 51,
                "duration": 0.0818182,
                "tempo": 120.0
            },
            {
                "start_time": 160.9886364,
                "end_time": 161.1590909,
                "pitch": 31,
                "velocity": 51,
                "duration": 0.1704545,
                "tempo": 120.0
            },
            {
                "start_time": 161.1954545,
                "end_time": 161.2795455,
                "pitch": 43,
                "velocity": 51,
                "duration": 0.0840909,
                "tempo": 120.0
            },
            {
                "start_time": 161.2795455,
                "end_time": 161.3659091,
                "pitch": 43,
                "velocity": 51,
                "duration": 0.0863636,
                "tempo": 120.0
            },
            {
                "start_time": 161.4,
                "end_time": 161.5681818,
                "pitch": 31,
                "velocity": 51,
                "duration": 0.1681818,
                "tempo": 120.0
            },
            {
                "start_time": 161.6,
                "end_time": 161.6840909,
                "pitch": 43,
                "velocity": 51,
                "duration": 0.0840909,
                "tempo": 120.0
            },
            {
                "start_time": 161.6840909,
                "end_time": 161.7681818,
                "pitch": 43,
                "velocity": 51,
                "duration": 0.0840909,
                "tempo": 120.0
            },
            {
                "start_time": 161.8,
                "end_time": 161.9636364,
                "pitch": 31,
                "velocity": 51,
                "duration": 0.1636364,
                "tempo": 120.0
            },
            {
                "start_time": 161.9977273,
                "end_time": 162.0795455,
                "pitch": 43,
                "velocity": 51,
                "duration": 0.0818182,
                "tempo": 120.0
            },
            {
                "start_time": 162.0795455,
                "end_time": 162.1613636,
                "pitch": 43,
                "velocity": 51,
                "duration": 0.0818182,
                "tempo": 120.0
            },
            {
                "start_time": 162.1931818,
                "end_time": 162.3613636,
                "pitch": 31,
                "velocity": 51,
                "duration": 0.1681818,
                "tempo": 120.0
            },
            {
                "start_time": 162.3954545,
                "end_time": 162.4795455,
                "pitch": 43,
                "velocity": 51,
                "duration": 0.0840909,
                "tempo": 120.0
            },
            {
                "start_time": 162.4795455,
                "end_time": 162.5636364,
                "pitch": 43,
                "velocity": 51,
                "duration": 0.0840909,
                "tempo": 120.0
            },
            {
                "start_time": 162.5977273,
                "end_time": 162.7636364,
                "pitch": 31,
                "velocity": 51,
                "duration": 0.1659091,
                "tempo": 120.0
            },
            {
                "start_time": 162.7977273,
                "end_time": 162.8795455,
                "pitch": 43,
                "velocity": 51,
                "duration": 0.0818182,
                "tempo": 120.0
            },
            {
                "start_time": 162.8795455,
                "end_time": 162.9636364,
                "pitch": 43,
                "velocity": 51,
                "duration": 0.0840909,
                "tempo": 120.0
            },
            {
                "start_time": 162.9977273,
                "end_time": 163.1681818,
                "pitch": 31,
                "velocity": 51,
                "duration": 0.1704545,
                "tempo": 120.0
            },
            {
                "start_time": 163.2022727,
                "end_time": 163.2886364,
                "pitch": 43,
                "velocity": 51,
                "duration": 0.0863636,
                "tempo": 120.0
            },
            {
                "start_time": 163.2886364,
                "end_time": 163.375,
                "pitch": 43,
                "velocity": 51,
                "duration": 0.0863636,
                "tempo": 120.0
            },
            {
                "start_time": 163.4068182,
                "end_time": 163.575,
                "pitch": 31,
                "velocity": 51,
                "duration": 0.1681818,
                "tempo": 120.0
            },
            {
                "start_time": 163.6090909,
                "end_time": 163.6931818,
                "pitch": 43,
                "velocity": 51,
                "duration": 0.0840909,
                "tempo": 120.0
            },
            {
                "start_time": 163.6931818,
                "end_time": 163.7772727,
                "pitch": 43,
                "velocity": 51,
                "duration": 0.0840909,
                "tempo": 120.0
            },
            {
                "start_time": 163.8090909,
                "end_time": 163.9727273,
                "pitch": 33,
                "velocity": 51,
                "duration": 0.1636364,
                "tempo": 120.0
            },
            {
                "start_time": 164.0045455,
                "end_time": 164.0863636,
                "pitch": 45,
                "velocity": 51,
                "duration": 0.0818182,
                "tempo": 120.0
            },
            {
                "start_time": 164.0863636,
                "end_time": 164.1681818,
                "pitch": 45,
                "velocity": 51,
                "duration": 0.0818182,
                "tempo": 120.0
            },
            {
                "start_time": 164.2022727,
                "end_time": 164.3704545,
                "pitch": 33,
                "velocity": 51,
                "duration": 0.1681818,
                "tempo": 120.0
            },
            {
                "start_time": 164.4045455,
                "end_time": 164.4886364,
                "pitch": 45,
                "velocity": 51,
                "duration": 0.0840909,
                "tempo": 120.0
            },
            {
                "start_time": 164.4886364,
                "end_time": 164.5727273,
                "pitch": 45,
                "velocity": 51,
                "duration": 0.0840909,
                "tempo": 120.0
            },
            {
                "start_time": 164.6068182,
                "end_time": 164.7772727,
                "pitch": 33,
                "velocity": 51,
                "duration": 0.1704545,
                "tempo": 120.0
            },
            {
                "start_time": 164.8113636,
                "end_time": 164.8977273,
                "pitch": 45,
                "velocity": 51,
                "duration": 0.0863636,
                "tempo": 120.0
            },
            {
                "start_time": 164.8977273,
                "end_time": 164.9818182,
                "pitch": 45,
                "velocity": 51,
                "duration": 0.0840909,
                "tempo": 120.0
            },
            {
                "start_time": 165.0159091,
                "end_time": 165.1795455,
                "pitch": 33,
                "velocity": 51,
                "duration": 0.1636364,
                "tempo": 120.0
            },
            {
                "start_time": 165.2113636,
                "end_time": 165.2931818,
                "pitch": 45,
                "velocity": 51,
                "duration": 0.0818182,
                "tempo": 120.0
            },
            {
                "start_time": 165.2931818,
                "end_time": 165.375,
                "pitch": 45,
                "velocity": 51,
                "duration": 0.0818182,
                "tempo": 120.0
            },
            {
                "start_time": 165.4090909,
                "end_time": 165.575,
                "pitch": 33,
                "velocity": 51,
                "duration": 0.1659091,
                "tempo": 120.0
            },
            {
                "start_time": 165.6090909,
                "end_time": 165.6931818,
                "pitch": 45,
                "velocity": 51,
                "duration": 0.0840909,
                "tempo": 120.0
            },
            {
                "start_time": 165.6931818,
                "end_time": 165.7772727,
                "pitch": 45,
                "velocity": 51,
                "duration": 0.0840909,
                "tempo": 120.0
            },
            {
                "start_time": 165.8113636,
                "end_time": 165.9795455,
                "pitch": 33,
                "velocity": 51,
                "duration": 0.1681818,
                "tempo": 120.0
            },
            {
                "start_time": 166.0113636,
                "end_time": 166.0954545,
                "pitch": 45,
                "velocity": 51,
                "duration": 0.0840909,
                "tempo": 120.0
            },
            {
                "start_time": 166.0954545,
                "end_time": 166.1795455,
                "pitch": 45,
                "velocity": 51,
                "duration": 0.0840909,
                "tempo": 120.0
            },
            {
                "start_time": 166.2136364,
                "end_time": 166.3818182,
                "pitch": 33,
                "velocity": 51,
                "duration": 0.1681818,
                "tempo": 120.0
            },
            {
                "start_time": 166.4159091,
                "end_time": 166.4977273,
                "pitch": 45,
                "velocity": 51,
                "duration": 0.0818182,
                "tempo": 120.0
            },
            {
                "start_time": 166.4977273,
                "end_time": 166.5818182,
                "pitch": 45,
                "velocity": 51,
                "duration": 0.0840909,
                "tempo": 120.0
            },
            {
                "start_time": 166.6159091,
                "end_time": 166.7818182,
                "pitch": 33,
                "velocity": 51,
                "duration": 0.1659091,
                "tempo": 120.0
            },
            {
                "start_time": 166.8159091,
                "end_time": 166.9,
                "pitch": 45,
                "velocity": 51,
                "duration": 0.0840909,
                "tempo": 120.0
            },
            {
                "start_time": 166.9,
                "end_time": 166.9818182,
                "pitch": 45,
                "velocity": 51,
                "duration": 0.0818182,
                "tempo": 120.0
            },
            {
                "start_time": 167.0159091,
                "end_time": 167.1840909,
                "pitch": 33,
                "velocity": 51,
                "duration": 0.1681818,
                "tempo": 120.0
            },
            {
                "start_time": 167.2181818,
                "end_time": 167.3022727,
                "pitch": 45,
                "velocity": 51,
                "duration": 0.0840909,
                "tempo": 120.0
            },
            {
                "start_time": 167.3022727,
                "end_time": 167.3863636,
                "pitch": 45,
                "velocity": 51,
                "duration": 0.0840909,
                "tempo": 120.0
            },
            {
                "start_time": 167.4204545,
                "end_time": 167.5909091,
                "pitch": 33,
                "velocity": 51,
                "duration": 0.1704545,
                "tempo": 120.0
            },
            {
                "start_time": 167.625,
                "end_time": 167.7113636,
                "pitch": 45,
                "velocity": 51,
                "duration": 0.0863636,
                "tempo": 120.0
            },
            {
                "start_time": 167.7113636,
                "end_time": 167.7954545,
                "pitch": 45,
                "velocity": 51,
                "duration": 0.0840909,
                "tempo": 120.0
            },
            {
                "start_time": 167.8295455,
                "end_time": 167.9977273,
                "pitch": 33,
                "velocity": 51,
                "duration": 0.1681818,
                "tempo": 120.0
            },
            {
                "start_time": 168.0318182,
                "end_time": 168.1159091,
                "pitch": 45,
                "velocity": 51,
                "duration": 0.0840909,
                "tempo": 120.0
            },
            {
                "start_time": 168.1159091,
                "end_time": 168.2,
                "pitch": 45,
                "velocity": 51,
                "duration": 0.0840909,
                "tempo": 120.0
            },
            {
                "start_time": 168.2318182,
                "end_time": 168.3954545,
                "pitch": 33,
                "velocity": 51,
                "duration": 0.1636364,
                "tempo": 120.0
            },
            {
                "start_time": 168.4272727,
                "end_time": 168.5090909,
                "pitch": 45,
                "velocity": 51,
                "duration": 0.0818182,
                "tempo": 120.0
            },
            {
                "start_time": 168.5090909,
                "end_time": 168.5909091,
                "pitch": 45,
                "velocity": 51,
                "duration": 0.0818182,
                "tempo": 120.0
            },
            {
                "start_time": 168.625,
                "end_time": 168.7909091,
                "pitch": 33,
                "velocity": 51,
                "duration": 0.1659091,
                "tempo": 120.0
            },
            {
                "start_time": 168.825,
                "end_time": 168.9068182,
                "pitch": 45,
                "velocity": 51,
                "duration": 0.0818182,
                "tempo": 120.0
            },
            {
                "start_time": 168.9068182,
                "end_time": 168.9909091,
                "pitch": 45,
                "velocity": 51,
                "duration": 0.0840909,
                "tempo": 120.0
            },
            {
                "start_time": 169.025,
                "end_time": 169.1931818,
                "pitch": 33,
                "velocity": 51,
                "duration": 0.1681818,
                "tempo": 120.0
            },
            {
                "start_time": 169.225,
                "end_time": 169.3090909,
                "pitch": 45,
                "velocity": 51,
                "duration": 0.0840909,
                "tempo": 120.0
            },
            {
                "start_time": 169.3090909,
                "end_time": 169.3931818,
                "pitch": 45,
                "velocity": 51,
                "duration": 0.0840909,
                "tempo": 120.0
            },
            {
                "start_time": 169.4272727,
                "end_time": 169.6,
                "pitch": 33,
                "velocity": 51,
                "duration": 0.1727273,
                "tempo": 120.0
            },
            {
                "start_time": 169.6340909,
                "end_time": 169.7181818,
                "pitch": 45,
                "velocity": 51,
                "duration": 0.0840909,
                "tempo": 120.0
            },
            {
                "start_time": 169.7181818,
                "end_time": 169.8045455,
                "pitch": 45,
                "velocity": 51,
                "duration": 0.0863636,
                "tempo": 120.0
            },
            {
                "start_time": 169.8363636,
                "end_time": 170.0,
                "pitch": 33,
                "velocity": 51,
                "duration": 0.1636364,
                "tempo": 120.0
            },
            {
                "start_time": 170.0340909,
                "end_time": 170.1159091,
                "pitch": 45,
                "velocity": 51,
                "duration": 0.0818182,
                "tempo": 120.0
            },
            {
                "start_time": 170.1159091,
                "end_time": 170.1977273,
                "pitch": 45,
                "velocity": 51,
                "duration": 0.0818182,
                "tempo": 120.0
            },
            {
                "start_time": 170.2295455,
                "end_time": 170.3977273,
                "pitch": 29,
                "velocity": 51,
                "duration": 0.1681818,
                "tempo": 120.0
            },
            {
                "start_time": 170.4318182,
                "end_time": 170.5159091,
                "pitch": 41,
                "velocity": 51,
                "duration": 0.0840909,
                "tempo": 120.0
            },
            {
                "start_time": 170.5159091,
                "end_time": 170.6,
                "pitch": 41,
                "velocity": 51,
                "duration": 0.0840909,
                "tempo": 120.0
            },
            {
                "start_time": 170.6318182,
                "end_time": 170.8,
                "pitch": 29,
                "velocity": 51,
                "duration": 0.1681818,
                "tempo": 120.0
            },
            {
                "start_time": 170.8318182,
                "end_time": 170.9159091,
                "pitch": 41,
                "velocity": 51,
                "duration": 0.0840909,
                "tempo": 120.0
            },
            {
                "start_time": 170.9159091,
                "end_time": 171.0,
                "pitch": 41,
                "velocity": 51,
                "duration": 0.0840909,
                "tempo": 120.0
            },
            {
                "start_time": 171.0340909,
                "end_time": 171.2045455,
                "pitch": 29,
                "velocity": 51,
                "duration": 0.1704545,
                "tempo": 120.0
            },
            {
                "start_time": 171.2386364,
                "end_time": 171.325,
                "pitch": 41,
                "velocity": 51,
                "duration": 0.0863636,
                "tempo": 120.0
            },
            {
                "start_time": 171.325,
                "end_time": 171.4090909,
                "pitch": 41,
                "velocity": 51,
                "duration": 0.0840909,
                "tempo": 120.0
            },
            {
                "start_time": 171.4431818,
                "end_time": 171.6068182,
                "pitch": 29,
                "velocity": 51,
                "duration": 0.1636364,
                "tempo": 120.0
            },
            {
                "start_time": 171.6386364,
                "end_time": 171.7204545,
                "pitch": 41,
                "velocity": 51,
                "duration": 0.0818182,
                "tempo": 120.0
            },
            {
                "start_time": 171.7204545,
                "end_time": 171.8022727,
                "pitch": 41,
                "velocity": 51,
                "duration": 0.0818182,
                "tempo": 120.0
            },
            {
                "start_time": 171.8363636,
                "end_time": 172.0045455,
                "pitch": 29,
                "velocity": 51,
                "duration": 0.1681818,
                "tempo": 120.0
            },
            {
                "start_time": 172.0363636,
                "end_time": 172.1204545,
                "pitch": 41,
                "velocity": 51,
                "duration": 0.0840909,
                "tempo": 120.0
            },
            {
                "start_time": 172.1204545,
                "end_time": 172.2045455,
                "pitch": 41,
                "velocity": 51,
                "duration": 0.0840909,
                "tempo": 120.0
            },
            {
                "start_time": 172.2386364,
                "end_time": 172.4068182,
                "pitch": 29,
                "velocity": 51,
                "duration": 0.1681818,
                "tempo": 120.0
            },
            {
                "start_time": 172.4409091,
                "end_time": 172.5227273,
                "pitch": 41,
                "velocity": 51,
                "duration": 0.0818182,
                "tempo": 120.0
            },
            {
                "start_time": 172.5227273,
                "end_time": 172.6068182,
                "pitch": 41,
                "velocity": 51,
                "duration": 0.0840909,
                "tempo": 120.0
            },
            {
                "start_time": 172.6409091,
                "end_time": 172.8136364,
                "pitch": 29,
                "velocity": 51,
                "duration": 0.1727273,
                "tempo": 120.0
            },
            {
                "start_time": 172.8477273,
                "end_time": 172.9318182,
                "pitch": 41,
                "velocity": 51,
                "duration": 0.0840909,
                "tempo": 120.0
            },
            {
                "start_time": 172.9318182,
                "end_time": 173.0181818,
                "pitch": 41,
                "velocity": 51,
                "duration": 0.0863636,
                "tempo": 120.0
            },
            {
                "start_time": 173.05,
                "end_time": 173.2136364,
                "pitch": 29,
                "velocity": 51,
                "duration": 0.1636364,
                "tempo": 120.0
            },
            {
                "start_time": 173.2477273,
                "end_time": 173.3295455,
                "pitch": 41,
                "velocity": 51,
                "duration": 0.0818182,
                "tempo": 120.0
            },
            {
                "start_time": 173.3295455,
                "end_time": 173.4113636,
                "pitch": 41,
                "velocity": 51,
                "duration": 0.0818182,
                "tempo": 120.0
            },
            {
                "start_time": 173.4431818,
                "end_time": 173.6113636,
                "pitch": 31,
                "velocity": 51,
                "duration": 0.1681818,
                "tempo": 120.0
            },
            {
                "start_time": 173.6454545,
                "end_time": 173.7295455,
                "pitch": 43,
                "velocity": 51,
                "duration": 0.0840909,
                "tempo": 120.0
            },
            {
                "start_time": 173.7295455,
                "end_time": 173.8136364,
                "pitch": 43,
                "velocity": 51,
                "duration": 0.0840909,
                "tempo": 120.0
            },
            {
                "start_time": 173.8477273,
                "end_time": 174.0136364,
                "pitch": 31,
                "velocity": 51,
                "duration": 0.1659091,
                "tempo": 120.0
            },
            {
                "start_time": 174.0477273,
                "end_time": 174.1318182,
                "pitch": 43,
                "velocity": 51,
                "duration": 0.0840909,
                "tempo": 120.0
            },
            {
                "start_time": 174.1318182,
                "end_time": 174.2159091,
                "pitch": 43,
                "velocity": 51,
                "duration": 0.0840909,
                "tempo": 120.0
            },
            {
                "start_time": 174.25,
                "end_time": 174.4204545,
                "pitch": 31,
                "velocity": 51,
                "duration": 0.1704545,
                "tempo": 120.0
            },
            {
                "start_time": 174.4545455,
                "end_time": 174.5409091,
                "pitch": 43,
                "velocity": 51,
                "duration": 0.0863636,
                "tempo": 120.0
            },
            {
                "start_time": 174.5409091,
                "end_time": 174.6272727,
                "pitch": 43,
                "velocity": 51,
                "duration": 0.0863636,
                "tempo": 120.0
            },
            {
                "start_time": 174.6590909,
                "end_time": 174.8227273,
                "pitch": 31,
                "velocity": 51,
                "duration": 0.1636364,
                "tempo": 120.0
            },
            {
                "start_time": 174.8545455,
                "end_time": 174.9363636,
                "pitch": 43,
                "velocity": 51,
                "duration": 0.0818182,
                "tempo": 120.0
            },
            {
                "start_time": 174.9363636,
                "end_time": 175.0181818,
                "pitch": 43,
                "velocity": 51,
                "duration": 0.0818182,
                "tempo": 120.0
            },
            {
                "start_time": 175.0522727,
                "end_time": 175.2204545,
                "pitch": 31,
                "velocity": 51,
                "duration": 0.1681818,
                "tempo": 120.0
            },
            {
                "start_time": 175.2545455,
                "end_time": 175.3386364,
                "pitch": 43,
                "velocity": 51,
                "duration": 0.0840909,
                "tempo": 120.0
            },
            {
                "start_time": 175.3386364,
                "end_time": 175.4204545,
                "pitch": 43,
                "velocity": 51,
                "duration": 0.0818182,
                "tempo": 120.0
            },
            {
                "start_time": 175.4545455,
                "end_time": 175.6227273,
                "pitch": 31,
                "velocity": 51,
                "duration": 0.1681818,
                "tempo": 120.0
            },
            {
                "start_time": 175.6568182,
                "end_time": 175.7409091,
                "pitch": 43,
                "velocity": 51,
                "duration": 0.0840909,
                "tempo": 120.0
            },
            {
                "start_time": 175.7409091,
                "end_time": 175.825,
                "pitch": 43,
                "velocity": 51,
                "duration": 0.0840909,
                "tempo": 120.0
            },
            {
                "start_time": 175.8590909,
                "end_time": 176.0295455,
                "pitch": 31,
                "velocity": 51,
                "duration": 0.1704545,
                "tempo": 120.0
            },
            {
                "start_time": 176.0636364,
                "end_time": 176.15,
                "pitch": 43,
                "velocity": 51,
                "duration": 0.0863636,
                "tempo": 120.0
            },
            {
                "start_time": 176.15,
                "end_time": 176.2340909,
                "pitch": 43,
                "velocity": 51,
                "duration": 0.0840909,
                "tempo": 120.0
            },
            {
                "start_time": 176.2681818,
                "end_time": 176.4363636,
                "pitch": 31,
                "velocity": 51,
                "duration": 0.1681818,
                "tempo": 120.0
            },
            {
                "start_time": 176.4704545,
                "end_time": 176.5545455,
                "pitch": 43,
                "velocity": 51,
                "duration": 0.0840909,
                "tempo": 120.0
            },
            {
                "start_time": 176.5545455,
                "end_time": 176.6386364,
                "pitch": 43,
                "velocity": 51,
                "duration": 0.0840909,
                "tempo": 120.0
            },
            {
                "start_time": 176.6704545,
                "end_time": 176.8340909,
                "pitch": 33,
                "velocity": 51,
                "duration": 0.1636364,
                "tempo": 120.0
            },
            {
                "start_time": 176.8659091,
                "end_time": 177.0295455,
                "pitch": 45,
                "velocity": 51,
                "duration": 0.1636364,
                "tempo": 120.0
            },
            {
                "start_time": 177.0636364,
                "end_time": 177.2318182,
                "pitch": 33,
                "velocity": 51,
                "duration": 0.1681818,
                "tempo": 120.0
            },
            {
                "start_time": 177.2659091,
                "end_time": 177.4318182,
                "pitch": 45,
                "velocity": 51,
                "duration": 0.1659091,
                "tempo": 120.0
            },
            {
                "start_time": 177.4659091,
                "end_time": 177.6386364,
                "pitch": 33,
                "velocity": 51,
                "duration": 0.1727273,
                "tempo": 120.0
            },
            {
                "start_time": 177.6727273,
                "end_time": 177.8431818,
                "pitch": 45,
                "velocity": 51,
                "duration": 0.1704545,
                "tempo": 120.0
            },
            {
                "start_time": 177.875,
                "end_time": 178.0386364,
                "pitch": 33,
                "velocity": 51,
                "duration": 0.1636364,
                "tempo": 120.0
            },
            {
                "start_time": 178.0727273,
                "end_time": 178.2363636,
                "pitch": 45,
                "velocity": 51,
                "duration": 0.1636364,
                "tempo": 120.0
            },
            {
                "start_time": 178.4704545,
                "end_time": 178.6386364,
                "pitch": 29,
                "velocity": 51,
                "duration": 0.1681818,
                "tempo": 120.0
            },
            {
                "start_time": 178.6727273,
                "end_time": 178.8386364,
                "pitch": 29,
                "velocity": 51,
                "duration": 0.1659091,
                "tempo": 120.0
            },
            {
                "start_time": 179.0727273,
                "end_time": 179.2386364,
                "pitch": 31,
                "velocity": 51,
                "duration": 0.1659091,
                "tempo": 120.0
            },
            {
                "start_time": 179.2727273,
                "end_time": 179.4409091,
                "pitch": 31,
                "velocity": 51,
                "duration": 0.1681818,
                "tempo": 120.0
            }
        ],
        "Vibraphone": [
            {
                "start_time": 26.3022727,
                "end_time": 26.4704545,
                "pitch": 71,
                "velocity": 64,
                "duration": 0.1681818,
                "tempo": 120.0
            },
            {
                "start_time": 26.9136364,
                "end_time": 27.4727273,
                "pitch": 74,
                "velocity": 64,
                "duration": 0.5590909,
                "tempo": 120.0
            },
            {
                "start_time": 27.5068182,
                "end_time": 27.6727273,
                "pitch": 72,
                "velocity": 64,
                "duration": 0.1659091,
                "tempo": 120.0
            },
            {
                "start_time": 28.1068182,
                "end_time": 28.2772727,
                "pitch": 71,
                "velocity": 64,
                "duration": 0.1704545,
                "tempo": 120.0
            },
            {
                "start_time": 28.3113636,
                "end_time": 28.4840909,
                "pitch": 72,
                "velocity": 64,
                "duration": 0.1727273,
                "tempo": 120.0
            },
            {
                "start_time": 28.9090909,
                "end_time": 29.4772727,
                "pitch": 72,
                "velocity": 64,
                "duration": 0.5681818,
                "tempo": 120.0
            },
            {
                "start_time": 29.5113636,
                "end_time": 29.6772727,
                "pitch": 70,
                "velocity": 64,
                "duration": 0.1659091,
                "tempo": 120.0
            },
            {
                "start_time": 30.1204545,
                "end_time": 30.6818182,
                "pitch": 74,
                "velocity": 64,
                "duration": 0.5613636,
                "tempo": 120.0
            },
            {
                "start_time": 30.7136364,
                "end_time": 30.8818182,
                "pitch": 72,
                "velocity": 64,
                "duration": 0.1681818,
                "tempo": 120.0
            },
            {
                "start_time": 31.3181818,
                "end_time": 31.4886364,
                "pitch": 70,
                "velocity": 64,
                "duration": 0.1704545,
                "tempo": 120.0
            },
            {
                "start_time": 31.5227273,
                "end_time": 31.6931818,
                "pitch": 72,
                "velocity": 64,
                "duration": 0.1704545,
                "tempo": 120.0
            },
            {
                "start_time": 32.1204545,
                "end_time": 32.6909091,
                "pitch": 72,
                "velocity": 64,
                "duration": 0.5704545,
                "tempo": 120.0
            },
            {
                "start_time": 32.725,
                "end_time": 32.8909091,
                "pitch": 71,
                "velocity": 64,
                "duration": 0.1659091,
                "tempo": 120.0
            },
            {
                "start_time": 33.3340909,
                "end_time": 33.8954545,
                "pitch": 74,
                "velocity": 64,
                "duration": 0.5613636,
                "tempo": 120.0
            },
            {
                "start_time": 33.9272727,
                "end_time": 34.0954545,
                "pitch": 72,
                "velocity": 64,
                "duration": 0.1681818,
                "tempo": 120.0
            },
            {
                "start_time": 34.5272727,
                "end_time": 34.8977273,
                "pitch": 71,
                "velocity": 64,
                "duration": 0.3704545,
                "tempo": 120.0
            },
            {
                "start_time": 34.9318182,
                "end_time": 35.3090909,
                "pitch": 72,
                "velocity": 64,
                "duration": 0.3772727,
                "tempo": 120.0
            },
            {
                "start_time": 35.3409091,
                "end_time": 36.1,
                "pitch": 72,
                "velocity": 64,
                "duration": 0.7590909,
                "tempo": 120.0
            },
            {
                "start_time": 36.3340909,
                "end_time": 36.5,
                "pitch": 74,
                "velocity": 64,
                "duration": 0.1659091,
                "tempo": 120.0
            },
            {
                "start_time": 36.5340909,
                "end_time": 36.7022727,
                "pitch": 76,
                "velocity": 64,
                "duration": 0.1681818,
                "tempo": 120.0
            },
            {
                "start_time": 36.7340909,
                "end_time": 37.7022727,
                "pitch": 74,
                "velocity": 64,
                "duration": 0.9681818,
                "tempo": 120.0
            },
            {
                "start_time": 37.7363636,
                "end_time": 38.1022727,
                "pitch": 72,
                "velocity": 64,
                "duration": 0.3659091,
                "tempo": 120.0
            },
            {
                "start_time": 38.1363636,
                "end_time": 38.5022727,
                "pitch": 74,
                "velocity": 64,
                "duration": 0.3659091,
                "tempo": 120.0
            },
            {
                "start_time": 38.5363636,
                "end_time": 39.1045455,
                "pitch": 72,
                "velocity": 64,
                "duration": 0.5681818,
                "tempo": 120.0
            },
            {
                "start_time": 39.1386364,
                "end_time": 39.3045455,
                "pitch": 71,
                "velocity": 64,
                "duration": 0.1659091,
                "tempo": 120.0
            },
            {
                "start_time": 39.75,
                "end_time": 40.3090909,
                "pitch": 74,
                "velocity": 64,
                "duration": 0.5590909,
                "tempo": 120.0
            },
            {
                "start_time": 40.3409091,
                "end_time": 40.5090909,
                "pitch": 72,
                "velocity": 64,
                "duration": 0.1681818,
                "tempo": 120.0
            },
            {
                "start_time": 40.9522727,
                "end_time": 41.1204545,
                "pitch": 71,
                "velocity": 64,
                "duration": 0.1681818,
                "tempo": 120.0
            },
            {
                "start_time": 41.1522727,
                "end_time": 41.3204545,
                "pitch": 72,
                "velocity": 64,
                "duration": 0.1681818,
                "tempo": 120.0
            },
            {
                "start_time": 41.7454545,
                "end_time": 42.3113636,
                "pitch": 72,
                "velocity": 64,
                "duration": 0.5659091,
                "tempo": 120.0
            },
            {
                "start_time": 42.3454545,
                "end_time": 42.5113636,
                "pitch": 70,
                "velocity": 64,
                "duration": 0.1659091,
                "tempo": 120.0
            },
            {
                "start_time": 42.9545455,
                "end_time": 43.5136364,
                "pitch": 74,
                "velocity": 64,
                "duration": 0.5590909,
                "tempo": 120.0
            },
            {
                "start_time": 43.5477273,
                "end_time": 43.7136364,
                "pitch": 72,
                "velocity": 64,
                "duration": 0.1659091,
                "tempo": 120.0
            },
            {
                "start_time": 44.1477273,
                "end_time": 44.3204545,
                "pitch": 70,
                "velocity": 64,
                "duration": 0.1727273,
                "tempo": 120.0
            },
            {
                "start_time": 44.3545455,
                "end_time": 44.525,
                "pitch": 72,
                "velocity": 64,
                "duration": 0.1704545,
                "tempo": 120.0
            },
            {
                "start_time": 44.95,
                "end_time": 45.5181818,
                "pitch": 72,
                "velocity": 64,
                "duration": 0.5681818,
                "tempo": 120.0
            },
            {
                "start_time": 45.55,
                "end_time": 45.7181818,
                "pitch": 71,
                "velocity": 64,
                "duration": 0.1681818,
                "tempo": 120.0
            },
            {
                "start_time": 46.1613636,
                "end_time": 46.7204545,
                "pitch": 74,
                "velocity": 64,
                "duration": 0.5590909,
                "tempo": 120.0
            },
            {
                "start_time": 46.7545455,
                "end_time": 46.9227273,
                "pitch": 72,
                "velocity": 64,
                "duration": 0.1681818,
                "tempo": 120.0
            },
            {
                "start_time": 47.3568182,
                "end_time": 47.7227273,
                "pitch": 71,
                "velocity": 64,
                "duration": 0.3659091,
                "tempo": 120.0
            },
            {
                "start_time": 47.7568182,
                "end_time": 48.1340909,
                "pitch": 72,
                "velocity": 64,
                "duration": 0.3772727,
                "tempo": 120.0
            },
            {
                "start_time": 48.1659091,
                "end_time": 48.9272727,
                "pitch": 72,
                "velocity": 64,
                "duration": 0.7613636,
                "tempo": 120.0
            },
            {
                "start_time": 49.1613636,
                "end_time": 49.3272727,
                "pitch": 74,
                "velocity": 64,
                "duration": 0.1659091,
                "tempo": 120.0
            },
            {
                "start_time": 49.3613636,
                "end_time": 49.5272727,
                "pitch": 76,
                "velocity": 64,
                "duration": 0.1659091,
                "tempo": 120.0
            },
            {
                "start_time": 49.5613636,
                "end_time": 50.5272727,
                "pitch": 74,
                "velocity": 64,
                "duration": 0.9659091,
                "tempo": 120.0
            },
            {
                "start_time": 50.5613636,
                "end_time": 50.9318182,
                "pitch": 72,
                "velocity": 64,
                "duration": 0.3704545,
                "tempo": 120.0
            },
            {
                "start_time": 50.9636364,
                "end_time": 51.3318182,
                "pitch": 74,
                "velocity": 64,
                "duration": 0.3681818,
                "tempo": 120.0
            },
            {
                "start_time": 51.3636364,
                "end_time": 54.1363636,
                "pitch": 76,
                "velocity": 64,
                "duration": 2.7727273,
                "tempo": 120.0
            },
            {
                "start_time": 54.1704545,
                "end_time": 54.5477273,
                "pitch": 74,
                "velocity": 64,
                "duration": 0.3772727,
                "tempo": 120.0
            },
            {
                "start_time": 54.5795455,
                "end_time": 56.1386364,
                "pitch": 73,
                "velocity": 64,
                "duration": 1.5590909,
                "tempo": 120.0
            },
            {
                "start_time": 56.1727273,
                "end_time": 56.9409091,
                "pitch": 70,
                "velocity": 64,
                "duration": 0.7681818,
                "tempo": 120.0
            },
            {
                "start_time": 56.975,
                "end_time": 57.3409091,
                "pitch": 69,
                "velocity": 64,
                "duration": 0.3659091,
                "tempo": 120.0
            },
            {
                "start_time": 57.375,
                "end_time": 57.7409091,
                "pitch": 67,
                "velocity": 64,
                "duration": 0.3659091,
                "tempo": 120.0
            },
            {
                "start_time": 57.775,
                "end_time": 59.3477273,
                "pitch": 74,
                "velocity": 64,
                "duration": 1.5727273,
                "tempo": 120.0
            },
            {
                "start_time": 59.3795455,
                "end_time": 60.1477273,
                "pitch": 72,
                "velocity": 64,
                "duration": 0.7681818,
                "tempo": 120.0
            },
            {
                "start_time": 60.1795455,
                "end_time": 60.95,
                "pitch": 74,
                "velocity": 64,
                "duration": 0.7704545,
                "tempo": 120.0
            },
            {
                "start_time": 60.9840909,
                "end_time": 62.5613636,
                "pitch": 72,
                "velocity": 64,
                "duration": 1.5772727,
                "tempo": 120.0
            },
            {
                "start_time": 62.5931818,
                "end_time": 63.3522727,
                "pitch": 74,
                "velocity": 64,
                "duration": 0.7590909,
                "tempo": 120.0
            },
            {
                "start_time": 63.3863636,
                "end_time": 64.1636364,
                "pitch": 77,
                "velocity": 64,
                "duration": 0.7772727,
                "tempo": 120.0
            },
            {
                "start_time": 64.1954545,
                "end_time": 66.9636364,
                "pitch": 76,
                "velocity": 64,
                "duration": 2.7681818,
                "tempo": 120.0
            },
            {
                "start_time": 66.9977273,
                "end_time": 67.3659091,
                "pitch": 74,
                "velocity": 64,
                "duration": 0.3681818,
                "tempo": 120.0
            },
            {
                "start_time": 67.4,
                "end_time": 68.9727273,
                "pitch": 73,
                "velocity": 64,
                "duration": 1.5727273,
                "tempo": 120.0
            },
            {
                "start_time": 69.0045455,
                "end_time": 69.7772727,
                "pitch": 70,
                "velocity": 64,
                "duration": 0.7727273,
                "tempo": 120.0
            },
            {
                "start_time": 69.8113636,
                "end_time": 70.1772727,
                "pitch": 69,
                "velocity": 64,
                "duration": 0.3659091,
                "tempo": 120.0
            },
            {
                "start_time": 70.2113636,
                "end_time": 70.5886364,
                "pitch": 67,
                "velocity": 64,
                "duration": 0.3772727,
                "tempo": 120.0
            },
            {
                "start_time": 70.6227273,
                "end_time": 72.1954545,
                "pitch": 74,
                "velocity": 64,
                "duration": 1.5727273,
                "tempo": 120.0
            },
            {
                "start_time": 72.2295455,
                "end_time": 72.9886364,
                "pitch": 72,
                "velocity": 64,
                "duration": 0.7590909,
                "tempo": 120.0
            },
            {
                "start_time": 73.0227273,
                "end_time": 73.7931818,
                "pitch": 74,
                "velocity": 64,
                "duration": 0.7704545,
                "tempo": 120.0
            },
            {
                "start_time": 73.8272727,
                "end_time": 74.9954545,
                "pitch": 72,
                "velocity": 64,
                "duration": 1.1681818,
                "tempo": 120.0
            },
            {
                "start_time": 75.0295455,
                "end_time": 75.1977273,
                "pitch": 72,
                "velocity": 64,
                "duration": 0.1681818,
                "tempo": 120.0
            },
            {
                "start_time": 75.2318182,
                "end_time": 76.6045455,
                "pitch": 79,
                "velocity": 64,
                "duration": 1.3727273,
                "tempo": 120.0
            },
            {
                "start_time": 77.0386364,
                "end_time": 77.6113636,
                "pitch": 72,
                "velocity": 64,
                "duration": 0.5727273,
                "tempo": 120.0
            },
            {
                "start_time": 77.6477273,
                "end_time": 77.8181818,
                "pitch": 71,
                "velocity": 64,
                "duration": 0.1704545,
                "tempo": 120.0
            },
            {
                "start_time": 78.2522727,
                "end_time": 78.8136364,
                "pitch": 74,
                "velocity": 64,
                "duration": 0.5613636,
                "tempo": 120.0
            },
            {
                "start_time": 78.8454545,
                "end_time": 79.0136364,
                "pitch": 72,
                "velocity": 64,
                "duration": 0.1681818,
                "tempo": 120.0
            },
            {
                "start_time": 79.4568182,
                "end_time": 79.6204545,
                "pitch": 71,
                "velocity": 64,
                "duration": 0.1636364,
                "tempo": 120.0
            },
            {
                "start_time": 79.6522727,
                "end_time": 79.8159091,
                "pitch": 72,
                "velocity": 64,
                "duration": 0.1636364,
                "tempo": 120.0
            },
            {
                "start_time": 80.25,
                "end_time": 80.8181818,
                "pitch": 72,
                "velocity": 64,
                "duration": 0.5681818,
                "tempo": 120.0
            },
            {
                "start_time": 80.8522727,
                "end_time": 81.0181818,
                "pitch": 70,
                "velocity": 64,
                "duration": 0.1659091,
                "tempo": 120.0
            },
            {
                "start_time": 81.4545455,
                "end_time": 82.0272727,
                "pitch": 74,
                "velocity": 64,
                "duration": 0.5727273,
                "tempo": 120.0
            },
            {
                "start_time": 82.0613636,
                "end_time": 82.225,
                "pitch": 72,
                "velocity": 64,
                "duration": 0.1636364,
                "tempo": 120.0
            },
            {
                "start_time": 82.6613636,
                "end_time": 82.8318182,
                "pitch": 70,
                "velocity": 64,
                "duration": 0.1704545,
                "tempo": 120.0
            },
            {
                "start_time": 82.8659091,
                "end_time": 83.0363636,
                "pitch": 72,
                "velocity": 64,
                "duration": 0.1704545,
                "tempo": 120.0
            },
            {
                "start_time": 83.4636364,
                "end_time": 84.0318182,
                "pitch": 72,
                "velocity": 64,
                "duration": 0.5681818,
                "tempo": 120.0
            },
            {
                "start_time": 84.0659091,
                "end_time": 84.2318182,
                "pitch": 71,
                "velocity": 64,
                "duration": 0.1659091,
                "tempo": 120.0
            },
            {
                "start_time": 84.6681818,
                "end_time": 85.2409091,
                "pitch": 74,
                "velocity": 64,
                "duration": 0.5727273,
                "tempo": 120.0
            },
            {
                "start_time": 85.275,
                "end_time": 85.4386364,
                "pitch": 72,
                "velocity": 64,
                "duration": 0.1636364,
                "tempo": 120.0
            },
            {
                "start_time": 85.8727273,
                "end_time": 86.2409091,
                "pitch": 71,
                "velocity": 64,
                "duration": 0.3681818,
                "tempo": 120.0
            },
            {
                "start_time": 86.275,
                "end_time": 86.6522727,
                "pitch": 72,
                "velocity": 64,
                "duration": 0.3772727,
                "tempo": 120.0
            },
            {
                "start_time": 86.6840909,
                "end_time": 87.4454545,
                "pitch": 72,
                "velocity": 64,
                "duration": 0.7613636,
                "tempo": 120.0
            },
            {
                "start_time": 87.6818182,
                "end_time": 87.8477273,
                "pitch": 74,
                "velocity": 64,
                "duration": 0.1659091,
                "tempo": 120.0
            },
            {
                "start_time": 87.8818182,
                "end_time": 88.0477273,
                "pitch": 76,
                "velocity": 64,
                "duration": 0.1659091,
                "tempo": 120.0
            },
            {
                "start_time": 88.0818182,
                "end_time": 89.0522727,
                "pitch": 74,
                "velocity": 64,
                "duration": 0.9704545,
                "tempo": 120.0
            },
            {
                "start_time": 89.0840909,
                "end_time": 89.4545455,
                "pitch": 72,
                "velocity": 64,
                "duration": 0.3704545,
                "tempo": 120.0
            },
            {
                "start_time": 89.4886364,
                "end_time": 89.8568182,
                "pitch": 74,
                "velocity": 64,
                "duration": 0.3681818,
                "tempo": 120.0
            },
            {
                "start_time": 89.8909091,
                "end_time": 90.4590909,
                "pitch": 72,
                "velocity": 64,
                "duration": 0.5681818,
                "tempo": 120.0
            },
            {
                "start_time": 90.4909091,
                "end_time": 90.6590909,
                "pitch": 71,
                "velocity": 64,
                "duration": 0.1681818,
                "tempo": 120.0
            },
            {
                "start_time": 91.0931818,
                "end_time": 91.6659091,
                "pitch": 74,
                "velocity": 64,
                "duration": 0.5727273,
                "tempo": 120.0
            },
            {
                "start_time": 91.6977273,
                "end_time": 91.8613636,
                "pitch": 72,
                "velocity": 64,
                "duration": 0.1636364,
                "tempo": 120.0
            },
            {
                "start_time": 92.3068182,
                "end_time": 92.4727273,
                "pitch": 71,
                "velocity": 64,
                "duration": 0.1659091,
                "tempo": 120.0
            },
            {
                "start_time": 92.5068182,
                "end_time": 92.6727273,
                "pitch": 72,
                "velocity": 64,
                "duration": 0.1659091,
                "tempo": 120.0
            },
            {
                "start_time": 93.0977273,
                "end_time": 93.6727273,
                "pitch": 72,
                "velocity": 64,
                "duration": 0.575,
                "tempo": 120.0
            },
            {
                "start_time": 93.7068182,
                "end_time": 93.8795455,
                "pitch": 70,
                "velocity": 64,
                "duration": 0.1727273,
                "tempo": 120.0
            },
            {
                "start_time": 94.3159091,
                "end_time": 94.8772727,
                "pitch": 74,
                "velocity": 64,
                "duration": 0.5613636,
                "tempo": 120.0
            },
            {
                "start_time": 94.9113636,
                "end_time": 95.0727273,
                "pitch": 72,
                "velocity": 64,
                "duration": 0.1613636,
                "tempo": 120.0
            },
            {
                "start_time": 95.5113636,
                "end_time": 95.6818182,
                "pitch": 70,
                "velocity": 64,
                "duration": 0.1704545,
                "tempo": 120.0
            },
            {
                "start_time": 95.7159091,
                "end_time": 95.8863636,
                "pitch": 72,
                "velocity": 64,
                "duration": 0.1704545,
                "tempo": 120.0
            },
            {
                "start_time": 96.3136364,
                "end_time": 96.8818182,
                "pitch": 72,
                "velocity": 64,
                "duration": 0.5681818,
                "tempo": 120.0
            },
            {
                "start_time": 96.9159091,
                "end_time": 97.0818182,
                "pitch": 71,
                "velocity": 64,
                "duration": 0.1659091,
                "tempo": 120.0
            },
            {
                "start_time": 97.5272727,
                "end_time": 98.0886364,
                "pitch": 74,
                "velocity": 64,
                "duration": 0.5613636,
                "tempo": 120.0
            },
            {
                "start_time": 98.1227273,
                "end_time": 98.2840909,
                "pitch": 72,
                "velocity": 64,
                "duration": 0.1613636,
                "tempo": 120.0
            },
            {
                "start_time": 98.7204545,
                "end_time": 99.0886364,
                "pitch": 71,
                "velocity": 64,
                "duration": 0.3681818,
                "tempo": 120.0
            },
            {
                "start_time": 99.1227273,
                "end_time": 99.4977273,
                "pitch": 72,
                "velocity": 64,
                "duration": 0.375,
                "tempo": 120.0
            },
            {
                "start_time": 99.5318182,
                "end_time": 100.2909091,
                "pitch": 72,
                "velocity": 64,
                "duration": 0.7590909,
                "tempo": 120.0
            },
            {
                "start_time": 100.525,
                "end_time": 100.6931818,
                "pitch": 74,
                "velocity": 64,
                "duration": 0.1681818,
                "tempo": 120.0
            },
            {
                "start_time": 100.7272727,
                "end_time": 100.8977273,
                "pitch": 76,
                "velocity": 64,
                "duration": 0.1704545,
                "tempo": 120.0
            },
            {
                "start_time": 100.9340909,
                "end_time": 101.9068182,
                "pitch": 74,
                "velocity": 64,
                "duration": 0.9727273,
                "tempo": 120.0
            },
            {
                "start_time": 101.9386364,
                "end_time": 102.3,
                "pitch": 72,
                "velocity": 64,
                "duration": 0.3613636,
                "tempo": 120.0
            },
            {
                "start_time": 102.3318182,
                "end_time": 102.7022727,
                "pitch": 74,
                "velocity": 64,
                "duration": 0.3704545,
                "tempo": 120.0
            },
            {
                "start_time": 102.7340909,
                "end_time": 105.5090909,
                "pitch": 76,
                "velocity": 64,
                "duration": 2.775,
                "tempo": 120.0
            },
            {
                "start_time": 105.5431818,
                "end_time": 105.9204545,
                "pitch": 74,
                "velocity": 64,
                "duration": 0.3772727,
                "tempo": 120.0
            },
            {
                "start_time": 105.9522727,
                "end_time": 107.5181818,
                "pitch": 73,
                "velocity": 64,
                "duration": 1.5659091,
                "tempo": 120.0
            },
            {
                "start_time": 107.5522727,
                "end_time": 108.3204545,
                "pitch": 70,
                "velocity": 64,
                "duration": 0.7681818,
                "tempo": 120.0
            },
            {
                "start_time": 108.3545455,
                "end_time": 108.7227273,
                "pitch": 69,
                "velocity": 64,
                "duration": 0.3681818,
                "tempo": 120.0
            },
            {
                "start_time": 108.7568182,
                "end_time": 109.1340909,
                "pitch": 67,
                "velocity": 64,
                "duration": 0.3772727,
                "tempo": 120.0
            },
            {
                "start_time": 109.1681818,
                "end_time": 110.7386364,
                "pitch": 74,
                "velocity": 64,
                "duration": 1.5704545,
                "tempo": 120.0
            },
            {
                "start_time": 110.7727273,
                "end_time": 111.5340909,
                "pitch": 72,
                "velocity": 64,
                "duration": 0.7613636,
                "tempo": 120.0
            },
            {
                "start_time": 111.5681818,
                "end_time": 112.3477273,
                "pitch": 74,
                "velocity": 64,
                "duration": 0.7795455,
                "tempo": 120.0
            },
            {
                "start_time": 112.3818182,
                "end_time": 113.9522727,
                "pitch": 72,
                "velocity": 64,
                "duration": 1.5704545,
                "tempo": 120.0
            },
            {
                "start_time": 113.9863636,
                "end_time": 114.7568182,
                "pitch": 74,
                "velocity": 64,
                "duration": 0.7704545,
                "tempo": 120.0
            },
            {
                "start_time": 114.7886364,
                "end_time": 115.55,
                "pitch": 77,
                "velocity": 64,
                "duration": 0.7613636,
                "tempo": 120.0
            },
            {
                "start_time": 115.5840909,
                "end_time": 118.3613636,
                "pitch": 76,
                "velocity": 64,
                "duration": 2.7772727,
                "tempo": 120.0
            },
            {
                "start_time": 118.3954545,
                "end_time": 118.7727273,
                "pitch": 74,
                "velocity": 64,
                "duration": 0.3772727,
                "tempo": 120.0
            },
            {
                "start_time": 118.8045455,
                "end_time": 120.3704545,
                "pitch": 73,
                "velocity": 64,
                "duration": 1.5659091,
                "tempo": 120.0
            },
            {
                "start_time": 120.4045455,
                "end_time": 121.1727273,
                "pitch": 70,
                "velocity": 64,
                "duration": 0.7681818,
                "tempo": 120.0
            },
            {
                "start_time": 121.2068182,
                "end_time": 121.575,
                "pitch": 69,
                "velocity": 64,
                "duration": 0.3681818,
                "tempo": 120.0
            },
            {
                "start_time": 121.6090909,
                "end_time": 121.9863636,
                "pitch": 67,
                "velocity": 64,
                "duration": 0.3772727,
                "tempo": 120.0
            },
            {
                "start_time": 122.0204545,
                "end_time": 123.5840909,
                "pitch": 74,
                "velocity": 64,
                "duration": 1.5636364,
                "tempo": 120.0
            },
            {
                "start_time": 123.6181818,
                "end_time": 124.3977273,
                "pitch": 72,
                "velocity": 64,
                "duration": 0.7795455,
                "tempo": 120.0
            },
            {
                "start_time": 124.4295455,
                "end_time": 125.1886364,
                "pitch": 74,
                "velocity": 64,
                "duration": 0.7590909,
                "tempo": 120.0
            },
            {
                "start_time": 125.2227273,
                "end_time": 126.3954545,
                "pitch": 72,
                "velocity": 64,
                "duration": 1.1727273,
                "tempo": 120.0
            },
            {
                "start_time": 126.4295455,
                "end_time": 126.6,
                "pitch": 72,
                "velocity": 64,
                "duration": 0.1704545,
                "tempo": 120.0
            },
            {
                "start_time": 126.6340909,
                "end_time": 128.0022727,
                "pitch": 79,
                "velocity": 64,
                "duration": 1.3681818,
                "tempo": 120.0
            }
        ],
        "Oboe": [
            {
                "start_time": 128.6431818,
                "end_time": 128.725,
                "pitch": 76,
                "velocity": 64,
                "duration": 0.0818182,
                "tempo": 120.0
            },
            {
                "start_time": 128.8386364,
                "end_time": 128.9227273,
                "pitch": 74,
                "velocity": 64,
                "duration": 0.0840909,
                "tempo": 120.0
            },
            {
                "start_time": 129.0386364,
                "end_time": 129.1227273,
                "pitch": 76,
                "velocity": 64,
                "duration": 0.0840909,
                "tempo": 120.0
            },
            {
                "start_time": 130.6454545,
                "end_time": 130.7272727,
                "pitch": 76,
                "velocity": 64,
                "duration": 0.0818182,
                "tempo": 120.0
            },
            {
                "start_time": 130.8454545,
                "end_time": 130.9318182,
                "pitch": 76,
                "velocity": 64,
                "duration": 0.0863636,
                "tempo": 120.0
            },
            {
                "start_time": 131.05,
                "end_time": 131.2227273,
                "pitch": 76,
                "velocity": 64,
                "duration": 0.1727273,
                "tempo": 120.0
            },
            {
                "start_time": 131.6477273,
                "end_time": 131.7318182,
                "pitch": 77,
                "velocity": 64,
                "duration": 0.0840909,
                "tempo": 120.0
            },
            {
                "start_time": 131.85,
                "end_time": 131.9340909,
                "pitch": 77,
                "velocity": 64,
                "duration": 0.0840909,
                "tempo": 120.0
            },
            {
                "start_time": 132.05,
                "end_time": 132.1340909,
                "pitch": 76,
                "velocity": 64,
                "duration": 0.0840909,
                "tempo": 120.0
            },
            {
                "start_time": 132.2522727,
                "end_time": 132.3363636,
                "pitch": 77,
                "velocity": 64,
                "duration": 0.0840909,
                "tempo": 120.0
            },
            {
                "start_time": 133.8613636,
                "end_time": 133.9431818,
                "pitch": 77,
                "velocity": 64,
                "duration": 0.0818182,
                "tempo": 120.0
            },
            {
                "start_time": 134.0613636,
                "end_time": 134.1454545,
                "pitch": 77,
                "velocity": 64,
                "duration": 0.0840909,
                "tempo": 120.0
            },
            {
                "start_time": 134.2636364,
                "end_time": 134.4318182,
                "pitch": 77,
                "velocity": 64,
                "duration": 0.1681818,
                "tempo": 120.0
            },
            {
                "start_time": 134.8636364,
                "end_time": 134.9477273,
                "pitch": 79,
                "velocity": 64,
                "duration": 0.0840909,
                "tempo": 120.0
            },
            {
                "start_time": 135.0659091,
                "end_time": 135.15,
                "pitch": 79,
                "velocity": 64,
                "duration": 0.0840909,
                "tempo": 120.0
            },
            {
                "start_time": 135.2659091,
                "end_time": 135.35,
                "pitch": 77,
                "velocity": 64,
                "duration": 0.0840909,
                "tempo": 120.0
            },
            {
                "start_time": 135.4681818,
                "end_time": 135.5522727,
                "pitch": 79,
                "velocity": 64,
                "duration": 0.0840909,
                "tempo": 120.0
            },
            {
                "start_time": 137.0772727,
                "end_time": 137.1613636,
                "pitch": 79,
                "velocity": 64,
                "duration": 0.0840909,
                "tempo": 120.0
            },
            {
                "start_time": 137.2772727,
                "end_time": 137.3636364,
                "pitch": 79,
                "velocity": 64,
                "duration": 0.0863636,
                "tempo": 120.0
            },
            {
                "start_time": 137.4840909,
                "end_time": 137.6545455,
                "pitch": 79,
                "velocity": 64,
                "duration": 0.1704545,
                "tempo": 120.0
            },
            {
                "start_time": 138.0909091,
                "end_time": 138.1727273,
                "pitch": 76,
                "velocity": 64,
                "duration": 0.0818182,
                "tempo": 120.0
            },
            {
                "start_time": 138.2863636,
                "end_time": 138.3681818,
                "pitch": 76,
                "velocity": 64,
                "duration": 0.0818182,
                "tempo": 120.0
            },
            {
                "start_time": 138.4840909,
                "end_time": 138.5659091,
                "pitch": 74,
                "velocity": 64,
                "duration": 0.0818182,
                "tempo": 120.0
            },
            {
                "start_time": 138.6840909,
                "end_time": 138.7659091,
                "pitch": 76,
                "velocity": 64,
                "duration": 0.0818182,
                "tempo": 120.0
            },
            {
                "start_time": 141.2954545,
                "end_time": 141.3772727,
                "pitch": 76,
                "velocity": 64,
                "duration": 0.0818182,
                "tempo": 120.0
            },
            {
                "start_time": 141.4954545,
                "end_time": 141.5795455,
                "pitch": 76,
                "velocity": 64,
                "duration": 0.0840909,
                "tempo": 120.0
            },
            {
                "start_time": 141.6977273,
                "end_time": 141.7818182,
                "pitch": 74,
                "velocity": 64,
                "duration": 0.0840909,
                "tempo": 120.0
            },
            {
                "start_time": 141.8977273,
                "end_time": 141.9818182,
                "pitch": 76,
                "velocity": 64,
                "duration": 0.0840909,
                "tempo": 120.0
            },
            {
                "start_time": 143.5068182,
                "end_time": 143.5909091,
                "pitch": 76,
                "velocity": 64,
                "duration": 0.0840909,
                "tempo": 120.0
            },
            {
                "start_time": 143.7090909,
                "end_time": 143.7931818,
                "pitch": 76,
                "velocity": 64,
                "duration": 0.0840909,
                "tempo": 120.0
            },
            {
                "start_time": 143.9136364,
                "end_time": 144.0840909,
                "pitch": 76,
                "velocity": 64,
                "duration": 0.1704545,
                "tempo": 120.0
            },
            {
                "start_time": 144.5113636,
                "end_time": 144.5931818,
                "pitch": 77,
                "velocity": 64,
                "duration": 0.0818182,
                "tempo": 120.0
            },
            {
                "start_time": 144.7113636,
                "end_time": 144.7931818,
                "pitch": 77,
                "velocity": 64,
                "duration": 0.0818182,
                "tempo": 120.0
            },
            {
                "start_time": 144.9113636,
                "end_time": 144.9954545,
                "pitch": 76,
                "velocity": 64,
                "duration": 0.0840909,
                "tempo": 120.0
            },
            {
                "start_time": 145.1113636,
                "end_time": 145.1954545,
                "pitch": 77,
                "velocity": 64,
                "duration": 0.0840909,
                "tempo": 120.0
            },
            {
                "start_time": 146.7181818,
                "end_time": 146.8022727,
                "pitch": 77,
                "velocity": 64,
                "duration": 0.0840909,
                "tempo": 120.0
            },
            {
                "start_time": 146.9204545,
                "end_time": 147.0045455,
                "pitch": 77,
                "velocity": 64,
                "duration": 0.0840909,
                "tempo": 120.0
            },
            {
                "start_time": 147.125,
                "end_time": 147.2954545,
                "pitch": 77,
                "velocity": 64,
                "duration": 0.1704545,
                "tempo": 120.0
            },
            {
                "start_time": 147.7227273,
                "end_time": 147.8068182,
                "pitch": 79,
                "velocity": 64,
                "duration": 0.0840909,
                "tempo": 120.0
            },
            {
                "start_time": 147.9227273,
                "end_time": 148.0068182,
                "pitch": 79,
                "velocity": 64,
                "duration": 0.0840909,
                "tempo": 120.0
            },
            {
                "start_time": 148.125,
                "end_time": 148.2090909,
                "pitch": 77,
                "velocity": 64,
                "duration": 0.0840909,
                "tempo": 120.0
            },
            {
                "start_time": 148.325,
                "end_time": 148.4090909,
                "pitch": 79,
                "velocity": 64,
                "duration": 0.0840909,
                "tempo": 120.0
            },
            {
                "start_time": 149.9340909,
                "end_time": 150.0181818,
                "pitch": 79,
                "velocity": 64,
                "duration": 0.0840909,
                "tempo": 120.0
            },
            {
                "start_time": 150.1363636,
                "end_time": 150.2227273,
                "pitch": 79,
                "velocity": 64,
                "duration": 0.0863636,
                "tempo": 120.0
            },
            {
                "start_time": 150.3409091,
                "end_time": 150.5136364,
                "pitch": 79,
                "velocity": 64,
                "duration": 0.1727273,
                "tempo": 120.0
            },
            {
                "start_time": 150.9477273,
                "end_time": 151.0295455,
                "pitch": 76,
                "velocity": 64,
                "duration": 0.0818182,
                "tempo": 120.0
            },
            {
                "start_time": 151.1454545,
                "end_time": 151.2272727,
                "pitch": 76,
                "velocity": 64,
                "duration": 0.0818182,
                "tempo": 120.0
            },
            {
                "start_time": 151.3409091,
                "end_time": 151.425,
                "pitch": 74,
                "velocity": 64,
                "duration": 0.0840909,
                "tempo": 120.0
            },
            {
                "start_time": 151.5431818,
                "end_time": 151.6272727,
                "pitch": 76,
                "velocity": 64,
                "duration": 0.0840909,
                "tempo": 120.0
            },
            {
                "start_time": 154.1545455,
                "end_time": 154.2386364,
                "pitch": 81,
                "velocity": 64,
                "duration": 0.0840909,
                "tempo": 120.0
            },
            {
                "start_time": 154.3568182,
                "end_time": 154.4409091,
                "pitch": 81,
                "velocity": 64,
                "duration": 0.0840909,
                "tempo": 120.0
            },
            {
                "start_time": 154.5568182,
                "end_time": 154.6409091,
                "pitch": 79,
                "velocity": 64,
                "duration": 0.0840909,
                "tempo": 120.0
            },
            {
                "start_time": 154.7568182,
                "end_time": 154.8409091,
                "pitch": 81,
                "velocity": 64,
                "duration": 0.0840909,
                "tempo": 120.0
            },
            {
                "start_time": 157.3681818,
                "end_time": 157.4522727,
                "pitch": 81,
                "velocity": 64,
                "duration": 0.0840909,
                "tempo": 120.0
            },
            {
                "start_time": 157.5704545,
                "end_time": 157.6545455,
                "pitch": 81,
                "velocity": 64,
                "duration": 0.0840909,
                "tempo": 120.0
            },
            {
                "start_time": 157.7727273,
                "end_time": 157.8568182,
                "pitch": 79,
                "velocity": 64,
                "duration": 0.0840909,
                "tempo": 120.0
            },
            {
                "start_time": 157.9772727,
                "end_time": 158.0636364,
                "pitch": 81,
                "velocity": 64,
                "duration": 0.0863636,
                "tempo": 120.0
            },
            {
                "start_time": 160.5954545,
                "end_time": 160.6772727,
                "pitch": 79,
                "velocity": 64,
                "duration": 0.0818182,
                "tempo": 120.0
            },
            {
                "start_time": 160.7909091,
                "end_time": 160.8727273,
                "pitch": 79,
                "velocity": 64,
                "duration": 0.0818182,
                "tempo": 120.0
            },
            {
                "start_time": 160.9886364,
                "end_time": 161.075,
                "pitch": 77,
                "velocity": 64,
                "duration": 0.0863636,
                "tempo": 120.0
            },
            {
                "start_time": 161.1954545,
                "end_time": 161.2795455,
                "pitch": 79,
                "velocity": 64,
                "duration": 0.0840909,
                "tempo": 120.0
            },
            {
                "start_time": 162.5977273,
                "end_time": 162.9636364,
                "pitch": 79,
                "velocity": 64,
                "duration": 0.3659091,
                "tempo": 120.0
            },
            {
                "start_time": 162.9977273,
                "end_time": 163.375,
                "pitch": 79,
                "velocity": 64,
                "duration": 0.3772727,
                "tempo": 120.0
            },
            {
                "start_time": 163.4068182,
                "end_time": 163.7772727,
                "pitch": 79,
                "velocity": 64,
                "duration": 0.3704545,
                "tempo": 120.0
            },
            {
                "start_time": 163.8090909,
                "end_time": 163.8909091,
                "pitch": 76,
                "velocity": 64,
                "duration": 0.0818182,
                "tempo": 120.0
            },
            {
                "start_time": 164.0045455,
                "end_time": 164.0863636,
                "pitch": 76,
                "velocity": 64,
                "duration": 0.0818182,
                "tempo": 120.0
            },
            {
                "start_time": 164.2022727,
                "end_time": 164.2863636,
                "pitch": 74,
                "velocity": 64,
                "duration": 0.0840909,
                "tempo": 120.0
            },
            {
                "start_time": 164.4045455,
                "end_time": 164.4886364,
                "pitch": 76,
                "velocity": 64,
                "duration": 0.0840909,
                "tempo": 120.0
            },
            {
                "start_time": 167.0159091,
                "end_time": 167.1,
                "pitch": 81,
                "velocity": 64,
                "duration": 0.0840909,
                "tempo": 120.0
            },
            {
                "start_time": 167.2181818,
                "end_time": 167.3022727,
                "pitch": 81,
                "velocity": 64,
                "duration": 0.0840909,
                "tempo": 120.0
            },
            {
                "start_time": 167.4204545,
                "end_time": 167.5045455,
                "pitch": 79,
                "velocity": 64,
                "duration": 0.0840909,
                "tempo": 120.0
            },
            {
                "start_time": 167.625,
                "end_time": 167.7113636,
                "pitch": 81,
                "velocity": 64,
                "duration": 0.0863636,
                "tempo": 120.0
            },
            {
                "start_time": 170.2295455,
                "end_time": 170.3136364,
                "pitch": 81,
                "velocity": 64,
                "duration": 0.0840909,
                "tempo": 120.0
            },
            {
                "start_time": 170.4318182,
                "end_time": 170.5159091,
                "pitch": 81,
                "velocity": 64,
                "duration": 0.0840909,
                "tempo": 120.0
            },
            {
                "start_time": 170.6318182,
                "end_time": 170.7159091,
                "pitch": 79,
                "velocity": 64,
                "duration": 0.0840909,
                "tempo": 120.0
            },
            {
                "start_time": 170.8318182,
                "end_time": 170.9159091,
                "pitch": 81,
                "velocity": 64,
                "duration": 0.0840909,
                "tempo": 120.0
            },
            {
                "start_time": 173.4431818,
                "end_time": 173.5272727,
                "pitch": 79,
                "velocity": 64,
                "duration": 0.0840909,
                "tempo": 120.0
            },
            {
                "start_time": 173.6454545,
                "end_time": 173.7295455,
                "pitch": 79,
                "velocity": 64,
                "duration": 0.0840909,
                "tempo": 120.0
            },
            {
                "start_time": 173.8477273,
                "end_time": 173.9318182,
                "pitch": 77,
                "velocity": 64,
                "duration": 0.0840909,
                "tempo": 120.0
            },
            {
                "start_time": 174.0477273,
                "end_time": 174.1318182,
                "pitch": 79,
                "velocity": 64,
                "duration": 0.0840909,
                "tempo": 120.0
            },
            {
                "start_time": 175.4545455,
                "end_time": 175.825,
                "pitch": 79,
                "velocity": 64,
                "duration": 0.3704545,
                "tempo": 120.0
            },
            {
                "start_time": 175.8590909,
                "end_time": 176.2340909,
                "pitch": 79,
                "velocity": 64,
                "duration": 0.375,
                "tempo": 120.0
            },
            {
                "start_time": 176.2681818,
                "end_time": 176.6386364,
                "pitch": 79,
                "velocity": 64,
                "duration": 0.3704545,
                "tempo": 120.0
            },
            {
                "start_time": 176.6704545,
                "end_time": 176.7522727,
                "pitch": 76,
                "velocity": 64,
                "duration": 0.0818182,
                "tempo": 120.0
            },
            {
                "start_time": 176.8659091,
                "end_time": 176.9477273,
                "pitch": 76,
                "velocity": 64,
                "duration": 0.0818182,
                "tempo": 120.0
            },
            {
                "start_time": 177.0636364,
                "end_time": 177.1477273,
                "pitch": 74,
                "velocity": 64,
                "duration": 0.0840909,
                "tempo": 120.0
            },
            {
                "start_time": 177.2659091,
                "end_time": 177.3477273,
                "pitch": 76,
                "velocity": 64,
                "duration": 0.0818182,
                "tempo": 120.0
            },
            {
                "start_time": 178.4704545,
                "end_time": 178.5545455,
                "pitch": 77,
                "velocity": 64,
                "duration": 0.0840909,
                "tempo": 120.0
            },
            {
                "start_time": 178.6727273,
                "end_time": 178.7545455,
                "pitch": 77,
                "velocity": 64,
                "duration": 0.0818182,
                "tempo": 120.0
            },
            {
                "start_time": 179.0727273,
                "end_time": 179.1568182,
                "pitch": 79,
                "velocity": 64,
                "duration": 0.0840909,
                "tempo": 120.0
            },
            {
                "start_time": 179.2727273,
                "end_time": 179.4409091,
                "pitch": 79,
                "velocity": 64,
                "duration": 0.1681818,
                "tempo": 120.0
            }
        ]
    }
}