{
    "mood": "relaxed",
    "instruments": {
        "Trumpet": [
            {
                "start_time": 0.0113636,
                "end_time": 0.0545455,
                "pitch": 37,
                "velocity": 80,
                "duration": 0.0431818,
                "tempo": 120.0
            },
            {
                "start_time": 0.0659091,
                "end_time": 0.1340909,
                "pitch": 39,
                "velocity": 80,
                "duration": 0.0681818,
                "tempo": 120.0
            },
            {
                "start_time": 0.1454545,
                "end_time": 0.1886364,
                "pitch": 41,
                "velocity": 80,
                "duration": 0.0431818,
                "tempo": 120.0
            },
            {
                "start_time": 0.2,
                "end_time": 0.2659091,
                "pitch": 43,
                "velocity": 80,
                "duration": 0.0659091,
                "tempo": 120.0
            },
            {
                "start_time": 0.2772727,
                "end_time": 0.3227273,
                "pitch": 45,
                "velocity": 80,
                "duration": 0.0454545,
                "tempo": 120.0
            },
            {
                "start_time": 0.3340909,
                "end_time": 0.4,
                "pitch": 47,
                "velocity": 80,
                "duration": 0.0659091,
                "tempo": 120.0
            },
            {
                "start_time": 0.4159091,
                "end_time": 0.4840909,
                "pitch": 49,
                "velocity": 80,
                "duration": 0.0681818,
                "tempo": 120.0
            },
            {
                "start_time": 0.5,
                "end_time": 0.6,
                "pitch": 51,
                "velocity": 80,
                "duration": 0.1,
                "tempo": 120.0
            },
            {
                "start_time": 0.6159091,
                "end_time": 0.6840909,
                "pitch": 53,
                "velocity": 80,
                "duration": 0.0681818,
                "tempo": 120.0
            },
            {
                "start_time": 0.7,
                "end_time": 0.8,
                "pitch": 55,
                "velocity": 80,
                "duration": 0.1,
                "tempo": 120.0
            },
            {
                "start_time": 0.8159091,
                "end_time": 0.8840909,
                "pitch": 57,
                "velocity": 80,
                "duration": 0.0681818,
                "tempo": 120.0
            },
            {
                "start_time": 0.9,
                "end_time": 1.0,
                "pitch": 59,
                "velocity": 80,
                "duration": 0.1,
                "tempo": 120.0
            },
            {
                "start_time": 1.0159091,
                "end_time": 1.6,
                "pitch": 61,
                "velocity": 80,
                "duration": 0.5840909,
                "tempo": 120.0
            },
            {
                "start_time": 1.6159091,
                "end_time": 1.8863636,
                "pitch": 64,
                "velocity": 80,
                "duration": 0.2704545,
                "tempo": 120.0
            },
            {
                "start_time": 1.9022727,
                "end_time": 2.4886364,
                "pitch": 64,
                "velocity": 80,
                "duration": 0.5863636,
                "tempo": 120.0
            },
            {
                "start_time": 2.5068182,
                "end_time": 2.8068182,
                "pitch": 61,
                "velocity": 80,
                "duration": 0.3,
                "tempo": 120.0
            },
            {
                "start_time": 2.8227273,
                "end_time": 3.0931818,
                "pitch": 63,
                "velocity": 80,
                "duration": 0.2704545,
                "tempo": 120.0
            },
            {
                "start_time": 3.1090909,
                "end_time": 3.4113636,
                "pitch": 64,
                "velocity": 80,
                "duration": 0.3022727,
                "tempo": 120.0
            },
            {
                "start_time": 3.4295455,
                "end_time": 4.625,
                "pitch": 66,
                "velocity": 80,
                "duration": 1.1954545,
                "tempo": 120.0
            },
            {
                "start_time": 4.6409091,
                "end_time": 5.8295455,
                "pitch": 64,
                "velocity": 80,
                "duration": 1.1886364,
                "tempo": 120.0
            },
            {
                "start_time": 5.8477273,
                "end_time": 6.4295455,
                "pitch": 59,
                "velocity": 80,
                "duration": 0.5818182,
                "tempo": 120.0
            },
            {
                "start_time": 6.4477273,
                "end_time": 6.7136364,
                "pitch": 61,
                "velocity": 80,
                "duration": 0.2659091,
                "tempo": 120.0
            },
            {
                "start_time": 6.7295455,
                "end_time": 7.0295455,
                "pitch": 59,
                "velocity": 80,
                "duration": 0.3,
                "tempo": 120.0
            },
            {
                "start_time": 7.3340909,
                "end_time": 7.6363636,
                "pitch": 56,
                "velocity": 80,
                "duration": 0.3022727,
                "tempo": 120.0
            },
            {
                "start_time": 7.9363636,
                "end_time": 8.2363636,
                "pitch": 59,
                "velocity": 80,
                "duration": 0.3,
                "tempo": 120.0
            },
            {
                "start_time": 8.2522727,
                "end_time": 8.8431818,
                "pitch": 61,
                "velocity": 80,
                "duration": 0.5909091,
                "tempo": 120.0
            },
            {
                "start_time": 8.8590909,
                "end_time": 9.125,
                "pitch": 59,
                "velocity": 80,
                "duration": 0.2659091,
                "tempo": 120.0
            },
            {
                "start_time": 9.1431818,
                "end_time": 10.6431818,
                "pitch": 59,
                "velocity": 80,
                "duration": 1.5,
                "tempo": 120.0
            },
            {
                "start_time": 10.6590909,
                "end_time": 11.2477273,
                "pitch": 61,
                "velocity": 80,
                "duration": 0.5886364,
                "tempo": 120.0
            },
            {
                "start_time": 11.2659091,
                "end_time": 11.5318182,
                "pitch": 64,
                "velocity": 80,
                "duration": 0.2659091,
                "tempo": 120.0
            },
            {
                "start_time": 11.5477273,
                "end_time": 12.1318182,
                "pitch": 64,
                "velocity": 80,
                "duration": 0.5840909,
                "tempo": 120.0
            },
            {
                "start_time": 12.1477273,
                "end_time": 12.4477273,
                "pitch": 61,
                "velocity": 80,
                "duration": 0.3,
                "tempo": 120.0
            },
            {
                "start_time": 12.4659091,
                "end_time": 12.7318182,
                "pitch": 63,
                "velocity": 80,
                "duration": 0.2659091,
                "tempo": 120.0
            },
            {
                "start_time": 12.7477273,
                "end_time": 13.0477273,
                "pitch": 64,
                "velocity": 80,
                "duration": 0.3,
                "tempo": 120.0
            },
            {
                "start_time": 13.0659091,
                "end_time": 14.2545455,
                "pitch": 66,
                "velocity": 80,
                "duration": 1.1886364,
                "tempo": 120.0
            },
            {
                "start_time": 14.2704545,
                "end_time": 15.4545455,
                "pitch": 64,
                "velocity": 80,
                "duration": 1.1840909,
                "tempo": 120.0
            },
            {
                "start_time": 15.4704545,
                "end_time": 15.8545455,
                "pitch": 71,
                "velocity": 80,
                "duration": 0.3840909,
                "tempo": 120.0
            },
            {
                "start_time": 15.8704545,
                "end_time": 16.2545455,
                "pitch": 69,
                "velocity": 80,
                "duration": 0.3840909,
                "tempo": 120.0
            },
            {
                "start_time": 16.2704545,
                "end_time": 16.6545455,
                "pitch": 68,
                "velocity": 80,
                "duration": 0.3840909,
                "tempo": 120.0
            },
            {
                "start_time": 16.6704545,
                "end_time": 17.0590909,
                "pitch": 66,
                "velocity": 80,
                "duration": 0.3886364,
                "tempo": 120.0
            },
            {
                "start_time": 17.075,
                "end_time": 17.4613636,
                "pitch": 64,
                "velocity": 80,
                "duration": 0.3863636,
                "tempo": 120.0
            },
            {
                "start_time": 17.4772727,
                "end_time": 17.8613636,
                "pitch": 63,
                "velocity": 80,
                "duration": 0.3840909,
                "tempo": 120.0
            },
            {
                "start_time": 17.8772727,
                "end_time": 19.0727273,
                "pitch": 59,
                "velocity": 80,
                "duration": 1.1954545,
                "tempo": 120.0
            },
            {
                "start_time": 19.3727273,
                "end_time": 20.2795455,
                "pitch": 62,
                "velocity": 80,
                "duration": 0.9068182,
                "tempo": 120.0
            },
            {
                "start_time": 20.2954545,
                "end_time": 21.7704545,
                "pitch": 66,
                "velocity": 80,
                "duration": 1.475,
                "tempo": 120.0
            },
            {
                "start_time": 21.7886364,
                "end_time": 22.375,
                "pitch": 64,
                "velocity": 80,
                "duration": 0.5863636,
                "tempo": 120.0
            },
            {
                "start_time": 22.3909091,
                "end_time": 24.5022727,
                "pitch": 71,
                "velocity": 80,
                "duration": 2.1113636,
                "tempo": 120.0
            },
            {
                "start_time": 24.5204545,
                "end_time": 25.1090909,
                "pitch": 64,
                "velocity": 80,
                "duration": 0.5886364,
                "tempo": 120.0
            },
            {
                "start_time": 25.125,
                "end_time": 26.5977273,
                "pitch": 66,
                "velocity": 80,
                "duration": 1.4727273,
                "tempo": 120.0
            },
            {
                "start_time": 26.6159091,
                "end_time": 27.2022727,
                "pitch": 64,
                "velocity": 80,
                "duration": 0.5863636,
                "tempo": 120.0
            },
            {
                "start_time": 27.2181818,
                "end_time": 28.7272727,
                "pitch": 71,
                "velocity": 80,
                "duration": 1.5090909,
                "tempo": 120.0
            },
            {
                "start_time": 28.7431818,
                "end_time": 29.1318182,
                "pitch": 59,
                "velocity": 80,
                "duration": 0.3886364,
                "tempo": 120.0
            },
            {
                "start_time": 29.1477273,
                "end_time": 29.5340909,
                "pitch": 61,
                "velocity": 80,
                "duration": 0.3863636,
                "tempo": 120.0
            },
            {
                "start_time": 29.55,
                "end_time": 29.9340909,
                "pitch": 63,
                "velocity": 80,
                "duration": 0.3840909,
                "tempo": 120.0
            },
            {
                "start_time": 29.95,
                "end_time": 31.4295455,
                "pitch": 66,
                "velocity": 80,
                "duration": 1.4795455,
                "tempo": 120.0
            },
            {
                "start_time": 31.4454545,
                "end_time": 32.0318182,
                "pitch": 64,
                "velocity": 80,
                "duration": 0.5863636,
                "tempo": 120.0
            },
            {
                "start_time": 32.0477273,
                "end_time": 32.9522727,
                "pitch": 71,
                "velocity": 80,
                "duration": 0.9045455,
                "tempo": 120.0
            },
            {
                "start_time": 32.9681818,
                "end_time": 33.5568182,
                "pitch": 69,
                "velocity": 80,
                "duration": 0.5886364,
                "tempo": 120.0
            },
            {
                "start_time": 33.575,
                "end_time": 34.1636364,
                "pitch": 68,
                "velocity": 80,
                "duration": 0.5886364,
                "tempo": 120.0
            },
            {
                "start_time": 34.1795455,
                "end_time": 34.7704545,
                "pitch": 69,
                "velocity": 80,
                "duration": 0.5909091,
                "tempo": 120.0
            },
            {
                "start_time": 34.7863636,
                "end_time": 37.2727273,
                "pitch": 69,
                "velocity": 80,
                "duration": 2.4863636,
                "tempo": 120.0
            },
            {
                "start_time": 37.2886364,
                "end_time": 40.2295455,
                "pitch": 72,
                "velocity": 80,
                "duration": 2.9409091,
                "tempo": 120.0
            },
            {
                "start_time": 40.2977273,
                "end_time": 46.6659091,
                "pitch": 76,
                "velocity": 80,
                "duration": 6.3681818,
                "tempo": 120.0
            }
        ],
        "Acoustic Bass": [
            {
                "start_time": 1.0159091,
                "end_time": 5.8295455,
                "pitch": 45,
                "velocity": 51,
                "duration": 4.8136364,
                "tempo": 120.0
            },
            {
                "start_time": 5.8477273,
                "end_time": 10.6431818,
                "pitch": 44,
                "velocity": 51,
                "duration": 4.7954545,
                "tempo": 120.0
            },
            {
                "start_time": 10.6590909,
                "end_time": 15.4545455,
                "pitch": 45,
                "velocity": 51,
                "duration": 4.7954545,
                "tempo": 120.0
            },
            {
                "start_time": 15.4704545,
                "end_time": 19.0727273,
                "pitch": 44,
                "velocity": 51,
                "duration": 3.6022727,
                "tempo": 120.0
            },
            {
                "start_time": 19.0886364,
                "end_time": 19.3568182,
                "pitch": 44,
                "velocity": 51,
                "duration": 0.2681818,
                "tempo": 120.0
            },
            {
                "start_time": 19.3727273,
                "end_time": 20.2795455,
                "pitch": 43,
                "velocity": 51,
                "duration": 0.9068182,
                "tempo": 120.0
            },
            {
                "start_time": 20.2954545,
                "end_time": 25.1090909,
                "pitch": 42,
                "velocity": 51,
                "duration": 4.8136364,
                "tempo": 120.0
            },
            {
                "start_time": 25.125,
                "end_time": 29.9340909,
                "pitch": 40,
                "velocity": 51,
                "duration": 4.8090909,
                "tempo": 120.0
            },
            {
                "start_time": 29.95,
                "end_time": 34.7704545,
                "pitch": 42,
                "velocity": 51,
                "duration": 4.8204545,
                "tempo": 120.0
            },
            {
                "start_time": 34.7863636,
                "end_time": 37.2727273,
                "pitch": 45,
                "velocity": 51,
                "duration": 2.4863636,
                "tempo": 120.0
            },
            {
                "start_time": 37.2886364,
                "end_time": 40.2295455,
                "pitch": 45,
                "velocity": 51,
                "duration": 2.9409091,
                "tempo": 120.0
            },
            {
                "start_time": 40.2977273,
                "end_time": 46.6659091,
                "pitch": 40,
                "velocity": 51,
                "duration": 6.3681818,
                "tempo": 120.0
            }
        ],
        "Oboe": [
            {
                "start_time": 0.0113636,
                "end_time": 0.0545455,
                "pitch": 25,
                "velocity": 51,
                "duration": 0.0431818,
                "tempo": 120.0
            },
            {
                "start_time": 0.0659091,
                "end_time": 0.1340909,
                "pitch": 27,
                "velocity": 51,
                "duration": 0.0681818,
                "tempo": 120.0
            },
            {
                "start_time": 0.1454545,
                "end_time": 0.1886364,
                "pitch": 29,
                "velocity": 51,
                "duration": 0.0431818,
                "tempo": 120.0
            },
            {
                "start_time": 0.2,
                "end_time": 0.2659091,
                "pitch": 31,
                "velocity": 51,
                "duration": 0.0659091,
                "tempo": 120.0
            },
            {
                "start_time": 0.2772727,
                "end_time": 0.3227273,
                "pitch": 33,
                "velocity": 51,
                "duration": 0.0454545,
                "tempo": 120.0
            },
            {
                "start_time": 0.3340909,
                "end_time": 0.4,
                "pitch": 35,
                "velocity": 51,
                "duration": 0.0659091,
                "tempo": 120.0
            },
            {
                "start_time": 0.4159091,
                "end_time": 0.4840909,
                "pitch": 37,
                "velocity": 51,
                "duration": 0.0681818,
                "tempo": 120.0
            },
            {
                "start_time": 0.5,
                "end_time": 0.6,
                "pitch": 39,
                "velocity": 51,
                "duration": 0.1,
                "tempo": 120.0
            },
            {
                "start_time": 0.6159091,
                "end_time": 0.6840909,
                "pitch": 41,
                "velocity": 51,
                "duration": 0.0681818,
                "tempo": 120.0
            },
            {
                "start_time": 0.7,
                "end_time": 0.8,
                "pitch": 43,
                "velocity": 51,
                "duration": 0.1,
                "tempo": 120.0
            },
            {
                "start_time": 0.8159091,
                "end_time": 0.8840909,
                "pitch": 45,
                "velocity": 51,
                "duration": 0.0681818,
                "tempo": 120.0
            },
            {
                "start_time": 0.9,
                "end_time": 1.0,
                "pitch": 47,
                "velocity": 51,
                "duration": 0.1,
                "tempo": 120.0
            },
            {
                "start_time": 1.0159091,
                "end_time": 1.6,
                "pitch": 57,
                "velocity": 51,
                "duration": 0.5840909,
                "tempo": 120.0
            },
            {
                "start_time": 1.6159091,
                "end_time": 1.8863636,
                "pitch": 57,
                "velocity": 51,
                "duration": 0.2704545,
                "tempo": 120.0
            },
            {
                "start_time": 1.9022727,
                "end_time": 2.4886364,
                "pitch": 57,
                "velocity": 51,
                "duration": 0.5863636,
                "tempo": 120.0
            },
            {
                "start_time": 2.5068182,
                "end_time": 2.8068182,
                "pitch": 57,
                "velocity": 51,
                "duration": 0.3,
                "tempo": 120.0
            },
            {
                "start_time": 2.8227273,
                "end_time": 3.0931818,
                "pitch": 57,
                "velocity": 51,
                "duration": 0.2704545,
                "tempo": 120.0
            },
            {
                "start_time": 3.1090909,
                "end_time": 3.4113636,
                "pitch": 57,
                "velocity": 51,
                "duration": 0.3022727,
                "tempo": 120.0
            },
            {
                "start_time": 3.4295455,
                "end_time": 4.625,
                "pitch": 57,
                "velocity": 51,
                "duration": 1.1954545,
                "tempo": 120.0
            },
            {
                "start_time": 4.6409091,
                "end_time": 5.8295455,
                "pitch": 57,
                "velocity": 51,
                "duration": 1.1886364,
                "tempo": 120.0
            },
            {
                "start_time": 5.8477273,
                "end_time": 6.4295455,
                "pitch": 56,
                "velocity": 51,
                "duration": 0.5818182,
                "tempo": 120.0
            },
            {
                "start_time": 6.4477273,
                "end_time": 6.7136364,
                "pitch": 56,
                "velocity": 51,
                "duration": 0.2659091,
                "tempo": 120.0
            },
            {
                "start_time": 6.7295455,
                "end_time": 7.0295455,
                "pitch": 56,
                "velocity": 51,
                "duration": 0.3,
                "tempo": 120.0
            },
            {
                "start_time": 7.3340909,
                "end_time": 7.6363636,
                "pitch": 56,
                "velocity": 51,
                "duration": 0.3022727,
                "tempo": 120.0
            },
            {
                "start_time": 7.9363636,
                "end_time": 8.2363636,
                "pitch": 56,
                "velocity": 51,
                "duration": 0.3,
                "tempo": 120.0
            },
            {
                "start_time": 8.2522727,
                "end_time": 8.8431818,
                "pitch": 56,
                "velocity": 51,
                "duration": 0.5909091,
                "tempo": 120.0
            },
            {
                "start_time": 8.8590909,
                "end_time": 9.125,
                "pitch": 56,
                "velocity": 51,
                "duration": 0.2659091,
                "tempo": 120.0
            },
            {
                "start_time": 9.1431818,
                "end_time": 10.6431818,
                "pitch": 56,
                "velocity": 51,
                "duration": 1.5,
                "tempo": 120.0
            },
            {
                "start_time": 10.6590909,
                "end_time": 11.2477273,
                "pitch": 57,
                "velocity": 51,
                "duration": 0.5886364,
                "tempo": 120.0
            },
            {
                "start_time": 11.2659091,
                "end_time": 11.5318182,
                "pitch": 57,
                "velocity": 51,
                "duration": 0.2659091,
                "tempo": 120.0
            },
            {
                "start_time": 11.5477273,
                "end_time": 12.1318182,
                "pitch": 57,
                "velocity": 51,
                "duration": 0.5840909,
                "tempo": 120.0
            },
            {
                "start_time": 12.1477273,
                "end_time": 12.4477273,
                "pitch": 57,
                "velocity": 51,
                "duration": 0.3,
                "tempo": 120.0
            },
            {
                "start_time": 12.4659091,
                "end_time": 12.7318182,
                "pitch": 57,
                "velocity": 51,
                "duration": 0.2659091,
                "tempo": 120.0
            },
            {
                "start_time": 12.7477273,
                "end_time": 13.0477273,
                "pitch": 57,
                "velocity": 51,
                "duration": 0.3,
                "tempo": 120.0
            },
            {
                "start_time": 13.0659091,
                "end_time": 14.2545455,
                "pitch": 57,
                "velocity": 51,
                "duration": 1.1886364,
                "tempo": 120.0
            },
            {
                "start_time": 14.2704545,
                "end_time": 15.4545455,
                "pitch": 57,
                "velocity": 51,
                "duration": 1.1840909,
                "tempo": 120.0
            },
            {
                "start_time": 15.4704545,
                "end_time": 15.8545455,
                "pitch": 63,
                "velocity": 51,
                "duration": 0.3840909,
                "tempo": 120.0
            },
            {
                "start_time": 15.8704545,
                "end_time": 16.2545455,
                "pitch": 63,
                "velocity": 51,
                "duration": 0.3840909,
                "tempo": 120.0
            },
            {
                "start_time": 16.2704545,
                "end_time": 16.6545455,
                "pitch": 63,
                "velocity": 51,
                "duration": 0.3840909,
                "tempo": 120.0
            },
            {
                "start_time": 16.6704545,
                "end_time": 17.0590909,
                "pitch": 59,
                "velocity": 51,
                "duration": 0.3886364,
                "tempo": 120.0
            },
            {
                "start_time": 17.075,
                "end_time": 17.4613636,
                "pitch": 59,
                "velocity": 51,
                "duration": 0.3863636,
                "tempo": 120.0
            },
            {
                "start_time": 17.4772727,
                "end_time": 17.8613636,
                "pitch": 59,
                "velocity": 51,
                "duration": 0.3840909,
                "tempo": 120.0
            },
            {
                "start_time": 17.8772727,
                "end_time": 19.0727273,
                "pitch": 56,
                "velocity": 51,
                "duration": 1.1954545,
                "tempo": 120.0
            },
            {
                "start_time": 19.3727273,
                "end_time": 20.2795455,
                "pitch": 58,
                "velocity": 51,
                "duration": 0.9068182,
                "tempo": 120.0
            },
            {
                "start_time": 20.2954545,
                "end_time": 21.7704545,
                "pitch": 59,
                "velocity": 51,
                "duration": 1.475,
                "tempo": 120.0
            },
            {
                "start_time": 21.7886364,
                "end_time": 22.375,
                "pitch": 59,
                "velocity": 51,
                "duration": 0.5863636,
                "tempo": 120.0
            },
            {
                "start_time": 22.3909091,
                "end_time": 24.5022727,
                "pitch": 66,
                "velocity": 51,
                "duration": 2.1113636,
                "tempo": 120.0
            },
            {
                "start_time": 24.5204545,
                "end_time": 25.1090909,
                "pitch": 59,
                "velocity": 51,
                "duration": 0.5886364,
                "tempo": 120.0
            },
            {
                "start_time": 25.125,
                "end_time": 26.5977273,
                "pitch": 59,
                "velocity": 51,
                "duration": 1.4727273,
                "tempo": 120.0
            },
            {
                "start_time": 26.6159091,
                "end_time": 27.2022727,
                "pitch": 59,
                "velocity": 51,
                "duration": 0.5863636,
                "tempo": 120.0
            },
            {
                "start_time": 27.2181818,
                "end_time": 28.7272727,
                "pitch": 59,
                "velocity": 51,
                "duration": 1.5090909,
                "tempo": 120.0
            },
            {
                "start_time": 28.7431818,
                "end_time": 29.1318182,
                "pitch": 56,
                "velocity": 51,
                "duration": 0.3886364,
                "tempo": 120.0
            },
            {
                "start_time": 29.1477273,
                "end_time": 29.5340909,
                "pitch": 57,
                "velocity": 51,
                "duration": 0.3863636,
                "tempo": 120.0
            },
            {
                "start_time": 29.55,
                "end_time": 29.9340909,
                "pitch": 59,
                "velocity": 51,
                "duration": 0.3840909,
                "tempo": 120.0
            },
            {
                "start_time": 29.95,
                "end_time": 31.4295455,
                "pitch": 59,
                "velocity": 51,
                "duration": 1.4795455,
                "tempo": 120.0
            },
            {
                "start_time": 31.4454545,
                "end_time": 32.0318182,
                "pitch": 59,
                "velocity": 51,
                "duration": 0.5863636,
                "tempo": 120.0
            },
            {
                "start_time": 32.0477273,
                "end_time": 32.9522727,
                "pitch": 66,
                "velocity": 51,
                "duration": 0.9045455,
                "tempo": 120.0
            },
            {
                "start_time": 32.9681818,
                "end_time": 33.5568182,
                "pitch": 66,
                "velocity": 51,
                "duration": 0.5886364,
                "tempo": 120.0
            },
            {
                "start_time": 33.575,
                "end_time": 34.1636364,
                "pitch": 66,
                "velocity": 51,
                "duration": 0.5886364,
                "tempo": 120.0
            },
            {
                "start_time": 34.1795455,
                "end_time": 34.7704545,
                "pitch": 66,
                "velocity": 51,
                "duration": 0.5909091,
                "tempo": 120.0
            },
            {
                "start_time": 34.7863636,
                "end_time": 37.2727273,
                "pitch": 64,
                "velocity": 51,
                "duration": 2.4863636,
                "tempo": 120.0
            },
            {
                "start_time": 37.2886364,
                "end_time": 40.2295455,
                "pitch": 69,
                "velocity": 51,
                "duration": 2.9409091,
                "tempo": 120.0
            },
            {
                "start_time": 40.2977273,
                "end_time": 41.9568182,
                "pitch": 69,
                "velocity": 51,
                "duration": 1.6590909,
                "tempo": 120.0
            },
            {
                "start_time": 41.9909091,
                "end_time": 42.85,
                "pitch": 68,
                "velocity": 51,
                "duration": 0.8590909,
                "tempo": 120.0
            },
            {
                "start_time": 42.9159091,
                "end_time": 43.8431818,
                "pitch": 66,
                "velocity": 51,
                "duration": 0.9272727,
                "tempo": 120.0
            },
            {
                "start_time": 43.8590909,
                "end_time": 46.8659091,
                "pitch": 68,
                "velocity": 51,
                "duration": 3.0068182,
                "tempo": 120.0
            }
        ]
    }
}