{
    "mood": "relaxed",
    "instruments": {
        "Acoustic Bass": [
            {
                "start_time": 0.0,
                "end_time": 2.4340909,
                "pitch": 54,
                "velocity": 64,
                "duration": 2.4340909,
                "tempo": 120.0
            },
            {
                "start_time": 2.45,
                "end_time": 4.8386364,
                "pitch": 52,
                "velocity": 64,
                "duration": 2.3886364,
                "tempo": 120.0
            },
            {
                "start_time": 4.8545455,
                "end_time": 7.2431818,
                "pitch": 52,
                "velocity": 64,
                "duration": 2.3886364,
                "tempo": 120.0
            },
            {
                "start_time": 7.2590909,
                "end_time": 8.4477273,
                "pitch": 52,
                "velocity": 64,
                "duration": 1.1886364,
                "tempo": 120.0
            },
            {
                "start_time": 8.4636364,
                "end_time": 9.65,
                "pitch": 50,
                "velocity": 64,
                "duration": 1.1863636,
                "tempo": 120.0
            },
            {
                "start_time": 9.6659091,
                "end_time": 12.0568182,
                "pitch": 54,
                "velocity": 64,
                "duration": 2.3909091,
                "tempo": 120.0
            },
            {
                "start_time": 12.0727273,
                "end_time": 14.4636364,
                "pitch": 52,
                "velocity": 64,
                "duration": 2.3909091,
                "tempo": 120.0
            },
            {
                "start_time": 14.4795455,
                "end_time": 16.8727273,
                "pitch": 52,
                "velocity": 64,
                "duration": 2.3931818,
                "tempo": 120.0
            },
            {
                "start_time": 16.8886364,
                "end_time": 18.075,
                "pitch": 52,
                "velocity": 64,
                "duration": 1.1863636,
                "tempo": 120.0
            },
            {
                "start_time": 18.0909091,
                "end_time": 19.2795455,
                "pitch": 50,
                "velocity": 64,
                "duration": 1.1886364,
                "tempo": 120.0
            },
            {
                "start_time": 19.2954545,
                "end_time": 21.6863636,
                "pitch": 54,
                "velocity": 64,
                "duration": 2.3909091,
                "tempo": 120.0
            },
            {
                "start_time": 21.7045455,
                "end_time": 24.0931818,
                "pitch": 52,
                "velocity": 64,
                "duration": 2.3886364,
                "tempo": 120.0
            },
            {
                "start_time": 24.1090909,
                "end_time": 26.5022727,
                "pitch": 52,
                "velocity": 64,
                "duration": 2.3931818,
                "tempo": 120.0
            },
            {
                "start_time": 26.5181818,
                "end_time": 27.7045455,
                "pitch": 52,
                "velocity": 64,
                "duration": 1.1863636,
                "tempo": 120.0
            },
            {
                "start_time": 27.7204545,
                "end_time": 28.9068182,
                "pitch": 50,
                "velocity": 64,
                "duration": 1.1863636,
                "tempo": 120.0
            },
            {
                "start_time": 28.925,
                "end_time": 31.3136364,
                "pitch": 59,
                "velocity": 64,
                "duration": 2.3886364,
                "tempo": 120.0
            },
            {
                "start_time": 31.3295455,
                "end_time": 33.7181818,
                "pitch": 59,
                "velocity": 64,
                "duration": 2.3886364,
                "tempo": 120.0
            },
            {
                "start_time": 33.7340909,
                "end_time": 36.1227273,
                "pitch": 57,
                "velocity": 64,
                "duration": 2.3886364,
                "tempo": 120.0
            },
            {
                "start_time": 36.1386364,
                "end_time": 37.3272727,
                "pitch": 57,
                "velocity": 64,
                "duration": 1.1886364,
                "tempo": 120.0
            },
            {
                "start_time": 37.3431818,
                "end_time": 38.5295455,
                "pitch": 56,
                "velocity": 64,
                "duration": 1.1863636,
                "tempo": 120.0
            },
            {
                "start_time": 38.5454545,
                "end_time": 40.9363636,
                "pitch": 55,
                "velocity": 64,
                "duration": 2.3909091,
                "tempo": 120.0
            },
            {
                "start_time": 40.9522727,
                "end_time": 43.3409091,
                "pitch": 55,
                "velocity": 64,
                "duration": 2.3886364,
                "tempo": 120.0
            },
            {
                "start_time": 43.3590909,
                "end_time": 47.5522727,
                "pitch": 54,
                "velocity": 64,
                "duration": 4.1931818,
                "tempo": 120.0
            }
        ],
        "Acoustic Grand Piano": [
            {
                "start_time": 0.0,
                "end_time": 2.4340909,
                "pitch": 43,
                "velocity": 51,
                "duration": 2.4340909,
                "tempo": 120.0
            },
            {
                "start_time": 2.45,
                "end_time": 4.8386364,
                "pitch": 46,
                "velocity": 51,
                "duration": 2.3886364,
                "tempo": 120.0
            },
            {
                "start_time": 4.8545455,
                "end_time": 7.2431818,
                "pitch": 45,
                "velocity": 51,
                "duration": 2.3886364,
                "tempo": 120.0
            },
            {
                "start_time": 7.2590909,
                "end_time": 9.65,
                "pitch": 50,
                "velocity": 51,
                "duration": 2.3909091,
                "tempo": 120.0
            },
            {
                "start_time": 9.6659091,
                "end_time": 12.0568182,
                "pitch": 43,
                "velocity": 51,
                "duration": 2.3909091,
                "tempo": 120.0
            },
            {
                "start_time": 12.0727273,
                "end_time": 14.4636364,
                "pitch": 46,
                "velocity": 51,
                "duration": 2.3909091,
                "tempo": 120.0
            },
            {
                "start_time": 14.4795455,
                "end_time": 16.8727273,
                "pitch": 45,
                "velocity": 51,
                "duration": 2.3931818,
                "tempo": 120.0
            },
            {
                "start_time": 16.8886364,
                "end_time": 19.2795455,
                "pitch": 50,
                "velocity": 51,
                "duration": 2.3909091,
                "tempo": 120.0
            },
            {
                "start_time": 19.2954545,
                "end_time": 21.6863636,
                "pitch": 43,
                "velocity": 51,
                "duration": 2.3909091,
                "tempo": 120.0
            },
            {
                "start_time": 21.7045455,
                "end_time": 24.0931818,
                "pitch": 46,
                "velocity": 51,
                "duration": 2.3886364,
                "tempo": 120.0
            },
            {
                "start_time": 24.1090909,
                "end_time": 26.5022727,
                "pitch": 45,
                "velocity": 51,
                "duration": 2.3931818,
                "tempo": 120.0
            },
            {
                "start_time": 26.5181818,
                "end_time": 28.9068182,
                "pitch": 50,
                "velocity": 51,
                "duration": 2.3886364,
                "tempo": 120.0
            },
            {
                "start_time": 28.925,
                "end_time": 31.3136364,
                "pitch": 48,
                "velocity": 51,
                "duration": 2.3886364,
                "tempo": 120.0
            },
            {
                "start_time": 31.3295455,
                "end_time": 33.7181818,
                "pitch": 48,
                "velocity": 51,
                "duration": 2.3886364,
                "tempo": 120.0
            },
            {
                "start_time": 33.7340909,
                "end_time": 36.1227273,
                "pitch": 47,
                "velocity": 51,
                "duration": 2.3886364,
                "tempo": 120.0
            },
            {
                "start_time": 36.1386364,
                "end_time": 38.5295455,
                "pitch": 40,
                "velocity": 51,
                "duration": 2.3909091,
                "tempo": 120.0
            },
            {
                "start_time": 38.5454545,
                "end_time": 40.9363636,
                "pitch": 45,
                "velocity": 51,
                "duration": 2.3909091,
                "tempo": 120.0
            },
            {
                "start_time": 40.9522727,
                "end_time": 43.3409091,
                "pitch": 48,
                "velocity": 51,
                "duration": 2.3886364,
                "tempo": 120.0
            },
            {
                "start_time": 43.3590909,
                "end_time": 47.5522727,
                "pitch": 43,
                "velocity": 51,
                "duration": 4.1931818,
                "tempo": 120.0
            }
        ],
        "French Horn": [
            {
                "start_time": 0.0,
                "end_time": 0.0454545,
                "pitch": 76,
                "velocity": 32,
                "duration": 0.0454545,
                "tempo": 120.0
            },
            {
                "start_time": 0.0454545,
                "end_time": 1.5636364,
                "pitch": 69,
                "velocity": 32,
                "duration": 1.5181818,
                "tempo": 120.0
            },
            {
                "start_time": 1.6295455,
                "end_time": 1.8818182,
                "pitch": 67,
                "velocity": 32,
                "duration": 0.2522727,
                "tempo": 120.0
            },
            {
                "start_time": 1.9136364,
                "end_time": 2.0318182,
                "pitch": 69,
                "velocity": 32,
                "duration": 0.1181818,
                "tempo": 120.0
            },
            {
                "start_time": 2.0477273,
                "end_time": 2.4818182,
                "pitch": 71,
                "velocity": 32,
                "duration": 0.4340909,
                "tempo": 120.0
            },
            {
                "start_time": 2.5159091,
                "end_time": 3.3681818,
                "pitch": 66,
                "velocity": 32,
                "duration": 0.8522727,
                "tempo": 120.0
            },
            {
                "start_time": 3.4363636,
                "end_time": 3.5522727,
                "pitch": 64,
                "velocity": 32,
                "duration": 0.1159091,
                "tempo": 120.0
            },
            {
                "start_time": 3.5681818,
                "end_time": 4.8863636,
                "pitch": 64,
                "velocity": 32,
                "duration": 1.3181818,
                "tempo": 120.0
            },
            {
                "start_time": 4.9204545,
                "end_time": 6.375,
                "pitch": 67,
                "velocity": 32,
                "duration": 1.4545455,
                "tempo": 120.0
            },
            {
                "start_time": 6.4431818,
                "end_time": 6.6931818,
                "pitch": 66,
                "velocity": 32,
                "duration": 0.25,
                "tempo": 120.0
            },
            {
                "start_time": 6.725,
                "end_time": 6.8431818,
                "pitch": 67,
                "velocity": 32,
                "duration": 0.1181818,
                "tempo": 120.0
            },
            {
                "start_time": 6.8590909,
                "end_time": 7.2931818,
                "pitch": 69,
                "velocity": 32,
                "duration": 0.4340909,
                "tempo": 120.0
            },
            {
                "start_time": 7.325,
                "end_time": 8.0454545,
                "pitch": 64,
                "velocity": 32,
                "duration": 0.7204545,
                "tempo": 120.0
            },
            {
                "start_time": 8.0613636,
                "end_time": 8.1795455,
                "pitch": 66,
                "velocity": 32,
                "duration": 0.1181818,
                "tempo": 120.0
            },
            {
                "start_time": 8.2454545,
                "end_time": 8.3636364,
                "pitch": 64,
                "velocity": 32,
                "duration": 0.1181818,
                "tempo": 120.0
            },
            {
                "start_time": 8.3795455,
                "end_time": 9.6977273,
                "pitch": 62,
                "velocity": 32,
                "duration": 1.3181818,
                "tempo": 120.0
            },
            {
                "start_time": 9.7318182,
                "end_time": 11.1863636,
                "pitch": 69,
                "velocity": 32,
                "duration": 1.4545455,
                "tempo": 120.0
            },
            {
                "start_time": 11.2545455,
                "end_time": 11.5022727,
                "pitch": 67,
                "velocity": 32,
                "duration": 0.2477273,
                "tempo": 120.0
            },
            {
                "start_time": 11.5363636,
                "end_time": 11.6477273,
                "pitch": 69,
                "velocity": 32,
                "duration": 0.1113636,
                "tempo": 120.0
            },
            {
                "start_time": 11.6659091,
                "end_time": 12.1045455,
                "pitch": 71,
                "velocity": 32,
                "duration": 0.4386364,
                "tempo": 120.0
            },
            {
                "start_time": 12.1363636,
                "end_time": 12.9818182,
                "pitch": 66,
                "velocity": 32,
                "duration": 0.8454545,
                "tempo": 120.0
            },
            {
                "start_time": 13.0522727,
                "end_time": 13.1727273,
                "pitch": 64,
                "velocity": 32,
                "duration": 0.1204545,
                "tempo": 120.0
            },
            {
                "start_time": 13.1909091,
                "end_time": 14.5136364,
                "pitch": 64,
                "velocity": 32,
                "duration": 1.3227273,
                "tempo": 120.0
            },
            {
                "start_time": 14.5454545,
                "end_time": 15.9931818,
                "pitch": 67,
                "velocity": 32,
                "duration": 1.4477273,
                "tempo": 120.0
            },
            {
                "start_time": 16.0613636,
                "end_time": 16.3181818,
                "pitch": 66,
                "velocity": 32,
                "duration": 0.2568182,
                "tempo": 120.0
            },
            {
                "start_time": 16.3522727,
                "end_time": 16.4704545,
                "pitch": 67,
                "velocity": 32,
                "duration": 0.1181818,
                "tempo": 120.0
            },
            {
                "start_time": 16.4863636,
                "end_time": 16.9204545,
                "pitch": 69,
                "velocity": 32,
                "duration": 0.4340909,
                "tempo": 120.0
            },
            {
                "start_time": 16.9522727,
                "end_time": 17.6681818,
                "pitch": 76,
                "velocity": 32,
                "duration": 0.7159091,
                "tempo": 120.0
            },
            {
                "start_time": 17.6840909,
                "end_time": 17.7977273,
                "pitch": 78,
                "velocity": 32,
                "duration": 0.1136364,
                "tempo": 120.0
            },
            {
                "start_time": 17.8681818,
                "end_time": 17.9886364,
                "pitch": 76,
                "velocity": 32,
                "duration": 0.1204545,
                "tempo": 120.0
            },
            {
                "start_time": 18.0045455,
                "end_time": 19.3272727,
                "pitch": 74,
                "velocity": 32,
                "duration": 1.3227273,
                "tempo": 120.0
            },
            {
                "start_time": 19.3613636,
                "end_time": 20.8068182,
                "pitch": 81,
                "velocity": 32,
                "duration": 1.4454545,
                "tempo": 120.0
            },
            {
                "start_time": 20.8772727,
                "end_time": 21.1340909,
                "pitch": 79,
                "velocity": 32,
                "duration": 0.2568182,
                "tempo": 120.0
            },
            {
                "start_time": 21.1681818,
                "end_time": 21.2863636,
                "pitch": 81,
                "velocity": 32,
                "duration": 0.1181818,
                "tempo": 120.0
            },
            {
                "start_time": 21.3022727,
                "end_time": 21.7363636,
                "pitch": 83,
                "velocity": 32,
                "duration": 0.4340909,
                "tempo": 120.0
            },
            {
                "start_time": 21.7681818,
                "end_time": 22.6136364,
                "pitch": 82,
                "velocity": 32,
                "duration": 0.8454545,
                "tempo": 120.0
            },
            {
                "start_time": 22.6840909,
                "end_time": 22.8045455,
                "pitch": 90,
                "velocity": 32,
                "duration": 0.1204545,
                "tempo": 120.0
            },
            {
                "start_time": 22.8204545,
                "end_time": 24.1431818,
                "pitch": 88,
                "velocity": 32,
                "duration": 1.3227273,
                "tempo": 120.0
            },
            {
                "start_time": 24.175,
                "end_time": 25.6318182,
                "pitch": 86,
                "velocity": 32,
                "duration": 1.4568182,
                "tempo": 120.0
            },
            {
                "start_time": 25.7,
                "end_time": 25.9477273,
                "pitch": 72,
                "velocity": 32,
                "duration": 0.2477273,
                "tempo": 120.0
            },
            {
                "start_time": 25.9818182,
                "end_time": 26.0931818,
                "pitch": 76,
                "velocity": 32,
                "duration": 0.1113636,
                "tempo": 120.0
            },
            {
                "start_time": 26.1113636,
                "end_time": 26.55,
                "pitch": 83,
                "velocity": 32,
                "duration": 0.4386364,
                "tempo": 120.0
            },
            {
                "start_time": 26.5818182,
                "end_time": 27.4272727,
                "pitch": 81,
                "velocity": 32,
                "duration": 0.8454545,
                "tempo": 120.0
            },
            {
                "start_time": 27.4977273,
                "end_time": 27.7545455,
                "pitch": 79,
                "velocity": 32,
                "duration": 0.2568182,
                "tempo": 120.0
            },
            {
                "start_time": 27.7886364,
                "end_time": 28.6318182,
                "pitch": 78,
                "velocity": 32,
                "duration": 0.8431818,
                "tempo": 120.0
            },
            {
                "start_time": 28.9886364,
                "end_time": 29.8340909,
                "pitch": 76,
                "velocity": 32,
                "duration": 0.8454545,
                "tempo": 120.0
            },
            {
                "start_time": 29.9045455,
                "end_time": 30.7613636,
                "pitch": 88,
                "velocity": 32,
                "duration": 0.8568182,
                "tempo": 120.0
            },
            {
                "start_time": 30.7931818,
                "end_time": 31.3613636,
                "pitch": 76,
                "velocity": 32,
                "duration": 0.5681818,
                "tempo": 120.0
            },
            {
                "start_time": 31.3954545,
                "end_time": 32.2409091,
                "pitch": 75,
                "velocity": 32,
                "duration": 0.8454545,
                "tempo": 120.0
            },
            {
                "start_time": 32.3090909,
                "end_time": 33.4431818,
                "pitch": 87,
                "velocity": 32,
                "duration": 1.1340909,
                "tempo": 120.0
            },
            {
                "start_time": 33.5113636,
                "end_time": 33.6318182,
                "pitch": 86,
                "velocity": 32,
                "duration": 0.1204545,
                "tempo": 120.0
            },
            {
                "start_time": 33.65,
                "end_time": 33.7681818,
                "pitch": 84,
                "velocity": 32,
                "duration": 0.1181818,
                "tempo": 120.0
            },
            {
                "start_time": 33.8,
                "end_time": 34.6454545,
                "pitch": 86,
                "velocity": 32,
                "duration": 0.8454545,
                "tempo": 120.0
            },
            {
                "start_time": 34.7136364,
                "end_time": 34.9704545,
                "pitch": 84,
                "velocity": 32,
                "duration": 0.2568182,
                "tempo": 120.0
            },
            {
                "start_time": 35.0022727,
                "end_time": 35.5727273,
                "pitch": 83,
                "velocity": 32,
                "duration": 0.5704545,
                "tempo": 120.0
            },
            {
                "start_time": 35.6068182,
                "end_time": 36.1727273,
                "pitch": 74,
                "velocity": 32,
                "duration": 0.5659091,
                "tempo": 120.0
            },
            {
                "start_time": 36.2045455,
                "end_time": 37.375,
                "pitch": 81,
                "velocity": 32,
                "duration": 1.1704545,
                "tempo": 120.0
            },
            {
                "start_time": 37.4068182,
                "end_time": 38.2522727,
                "pitch": 80,
                "velocity": 32,
                "duration": 0.8454545,
                "tempo": 120.0
            },
            {
                "start_time": 38.3227273,
                "end_time": 38.5772727,
                "pitch": 76,
                "velocity": 32,
                "duration": 0.2545455,
                "tempo": 120.0
            },
            {
                "start_time": 38.6113636,
                "end_time": 39.4568182,
                "pitch": 79,
                "velocity": 32,
                "duration": 0.8454545,
                "tempo": 120.0
            },
            {
                "start_time": 39.525,
                "end_time": 40.3840909,
                "pitch": 78,
                "velocity": 32,
                "duration": 0.8590909,
                "tempo": 120.0
            },
            {
                "start_time": 40.4181818,
                "end_time": 40.9840909,
                "pitch": 76,
                "velocity": 32,
                "duration": 0.5659091,
                "tempo": 120.0
            },
            {
                "start_time": 41.0159091,
                "end_time": 42.1886364,
                "pitch": 75,
                "velocity": 32,
                "duration": 1.1727273,
                "tempo": 120.0
            },
            {
                "start_time": 42.2227273,
                "end_time": 43.3909091,
                "pitch": 84,
                "velocity": 32,
                "duration": 1.1681818,
                "tempo": 120.0
            },
            {
                "start_time": 43.4227273,
                "end_time": 45.7977273,
                "pitch": 86,
                "velocity": 32,
                "duration": 2.375,
                "tempo": 120.0
            }
        ]
    }
}