{
    "mood": "relaxed",
    "instruments": {
        "Electric Piano 1": [
            {
                "start_time": 64.3909091,
                "end_time": 64.7295455,
                "pitch": 66,
                "velocity": 101,
                "duration": 0.3386364,
                "tempo": 120.0
            },
            {
                "start_time": 64.7977273,
                "end_time": 65.1340909,
                "pitch": 64,
                "velocity": 101,
                "duration": 0.3363636,
                "tempo": 120.0
            },
            {
                "start_time": 65.2022727,
                "end_time": 65.5409091,
                "pitch": 66,
                "velocity": 101,
                "duration": 0.3386364,
                "tempo": 120.0
            },
            {
                "start_time": 65.6068182,
                "end_time": 65.9454545,
                "pitch": 71,
                "velocity": 101,
                "duration": 0.3386364,
                "tempo": 120.0
            },
            {
                "start_time": 66.0136364,
                "end_time": 69.1681818,
                "pitch": 66,
                "velocity": 101,
                "duration": 3.1545455,
                "tempo": 120.0
            },
            {
                "start_time": 69.2340909,
                "end_time": 70.7681818,
                "pitch": 64,
                "velocity": 101,
                "duration": 1.5340909,
                "tempo": 120.0
            },
            {
                "start_time": 70.8340909,
                "end_time": 71.1727273,
                "pitch": 66,
                "velocity": 101,
                "duration": 0.3386364,
                "tempo": 120.0
            },
            {
                "start_time": 71.2386364,
                "end_time": 71.5772727,
                "pitch": 64,
                "velocity": 101,
                "duration": 0.3386364,
                "tempo": 120.0
            },
            {
                "start_time": 71.6454545,
                "end_time": 71.9818182,
                "pitch": 66,
                "velocity": 101,
                "duration": 0.3363636,
                "tempo": 120.0
            },
            {
                "start_time": 72.05,
                "end_time": 72.3886364,
                "pitch": 71,
                "velocity": 101,
                "duration": 0.3386364,
                "tempo": 120.0
            },
            {
                "start_time": 72.4568182,
                "end_time": 75.6090909,
                "pitch": 66,
                "velocity": 101,
                "duration": 3.1522727,
                "tempo": 120.0
            },
            {
                "start_time": 75.6772727,
                "end_time": 77.2113636,
                "pitch": 62,
                "velocity": 101,
                "duration": 1.5340909,
                "tempo": 120.0
            },
            {
                "start_time": 77.2772727,
                "end_time": 78.8318182,
                "pitch": 64,
                "velocity": 101,
                "duration": 1.5545455,
                "tempo": 120.0
            },
            {
                "start_time": 78.8977273,
                "end_time": 85.2545455,
                "pitch": 69,
                "velocity": 101,
                "duration": 6.3568182,
                "tempo": 120.0
            },
            {
                "start_time": 90.1204545,
                "end_time": 90.4590909,
                "pitch": 66,
                "velocity": 101,
                "duration": 0.3386364,
                "tempo": 120.0
            },
            {
                "start_time": 90.525,
                "end_time": 90.8636364,
                "pitch": 64,
                "velocity": 101,
                "duration": 0.3386364,
                "tempo": 120.0
            },
            {
                "start_time": 90.9318182,
                "end_time": 91.2681818,
                "pitch": 66,
                "velocity": 101,
                "duration": 0.3363636,
                "tempo": 120.0
            },
            {
                "start_time": 91.3363636,
                "end_time": 91.675,
                "pitch": 71,
                "velocity": 101,
                "duration": 0.3386364,
                "tempo": 120.0
            },
            {
                "start_time": 91.7431818,
                "end_time": 94.875,
                "pitch": 66,
                "velocity": 101,
                "duration": 3.1318182,
                "tempo": 120.0
            },
            {
                "start_time": 94.9431818,
                "end_time": 96.4954545,
                "pitch": 64,
                "velocity": 101,
                "duration": 1.5522727,
                "tempo": 120.0
            },
            {
                "start_time": 96.5636364,
                "end_time": 96.8977273,
                "pitch": 66,
                "velocity": 101,
                "duration": 0.3340909,
                "tempo": 120.0
            },
            {
                "start_time": 96.9636364,
                "end_time": 97.2977273,
                "pitch": 64,
                "velocity": 101,
                "duration": 0.3340909,
                "tempo": 120.0
            },
            {
                "start_time": 97.3636364,
                "end_time": 97.6977273,
                "pitch": 66,
                "velocity": 101,
                "duration": 0.3340909,
                "tempo": 120.0
            },
            {
                "start_time": 97.7636364,
                "end_time": 98.0977273,
                "pitch": 71,
                "velocity": 101,
                "duration": 0.3340909,
                "tempo": 120.0
            },
            {
                "start_time": 98.1636364,
                "end_time": 101.3181818,
                "pitch": 66,
                "velocity": 101,
                "duration": 3.1545455,
                "tempo": 120.0
            },
            {
                "start_time": 101.3863636,
                "end_time": 102.9181818,
                "pitch": 62,
                "velocity": 101,
                "duration": 1.5318182,
                "tempo": 120.0
            },
            {
                "start_time": 102.9863636,
                "end_time": 104.5386364,
                "pitch": 64,
                "velocity": 101,
                "duration": 1.5522727,
                "tempo": 120.0
            },
            {
                "start_time": 104.6068182,
                "end_time": 107.7613636,
                "pitch": 57,
                "velocity": 101,
                "duration": 3.1545455,
                "tempo": 120.0
            },
            {
                "start_time": 107.8272727,
                "end_time": 109.3613636,
                "pitch": 60,
                "velocity": 101,
                "duration": 1.5340909,
                "tempo": 120.0
            },
            {
                "start_time": 109.4272727,
                "end_time": 110.9613636,
                "pitch": 64,
                "velocity": 101,
                "duration": 1.5340909,
                "tempo": 120.0
            },
            {
                "start_time": 111.0272727,
                "end_time": 114.1840909,
                "pitch": 57,
                "velocity": 101,
                "duration": 3.1568182,
                "tempo": 120.0
            },
            {
                "start_time": 114.25,
                "end_time": 115.8045455,
                "pitch": 62,
                "velocity": 101,
                "duration": 1.5545455,
                "tempo": 120.0
            },
            {
                "start_time": 115.8704545,
                "end_time": 128.6909091,
                "pitch": 59,
                "velocity": 101,
                "duration": 12.8204545,
                "tempo": 120.0
            },
            {
                "start_time": 141.6227273,
                "end_time": 141.9568182,
                "pitch": 64,
                "velocity": 101,
                "duration": 0.3340909,
                "tempo": 120.0
            },
            {
                "start_time": 142.0227273,
                "end_time": 142.3568182,
                "pitch": 62,
                "velocity": 101,
                "duration": 0.3340909,
                "tempo": 120.0
            },
            {
                "start_time": 142.4227273,
                "end_time": 144.7568182,
                "pitch": 64,
                "velocity": 101,
                "duration": 2.3340909,
                "tempo": 120.0
            },
            {
                "start_time": 144.8227273,
                "end_time": 145.5659091,
                "pitch": 57,
                "velocity": 101,
                "duration": 0.7431818,
                "tempo": 120.0
            },
            {
                "start_time": 145.6340909,
                "end_time": 146.3772727,
                "pitch": 59,
                "velocity": 101,
                "duration": 0.7431818,
                "tempo": 120.0
            },
            {
                "start_time": 146.4454545,
                "end_time": 147.1772727,
                "pitch": 60,
                "velocity": 101,
                "duration": 0.7318182,
                "tempo": 120.0
            },
            {
                "start_time": 147.2454545,
                "end_time": 147.9772727,
                "pitch": 62,
                "velocity": 101,
                "duration": 0.7318182,
                "tempo": 120.0
            },
            {
                "start_time": 148.0454545,
                "end_time": 148.3818182,
                "pitch": 64,
                "velocity": 101,
                "duration": 0.3363636,
                "tempo": 120.0
            },
            {
                "start_time": 148.45,
                "end_time": 148.7886364,
                "pitch": 62,
                "velocity": 101,
                "duration": 0.3386364,
                "tempo": 120.0
            },
            {
                "start_time": 148.8545455,
                "end_time": 151.1795455,
                "pitch": 64,
                "velocity": 101,
                "duration": 2.325,
                "tempo": 120.0
            },
            {
                "start_time": 151.2454545,
                "end_time": 151.9886364,
                "pitch": 57,
                "velocity": 101,
                "duration": 0.7431818,
                "tempo": 120.0
            },
            {
                "start_time": 152.0545455,
                "end_time": 152.7977273,
                "pitch": 59,
                "velocity": 101,
                "duration": 0.7431818,
                "tempo": 120.0
            },
            {
                "start_time": 152.8659091,
                "end_time": 153.6090909,
                "pitch": 60,
                "velocity": 101,
                "duration": 0.7431818,
                "tempo": 120.0
            },
            {
                "start_time": 153.6772727,
                "end_time": 154.4204545,
                "pitch": 64,
                "velocity": 101,
                "duration": 0.7431818,
                "tempo": 120.0
            },
            {
                "start_time": 154.4886364,
                "end_time": 154.825,
                "pitch": 62,
                "velocity": 101,
                "duration": 0.3363636,
                "tempo": 120.0
            },
            {
                "start_time": 154.8931818,
                "end_time": 155.2318182,
                "pitch": 60,
                "velocity": 101,
                "duration": 0.3386364,
                "tempo": 120.0
            },
            {
                "start_time": 155.2977273,
                "end_time": 157.6431818,
                "pitch": 62,
                "velocity": 101,
                "duration": 2.3454545,
                "tempo": 120.0
            },
            {
                "start_time": 157.7090909,
                "end_time": 158.4431818,
                "pitch": 55,
                "velocity": 101,
                "duration": 0.7340909,
                "tempo": 120.0
            },
            {
                "start_time": 158.5090909,
                "end_time": 159.2431818,
                "pitch": 57,
                "velocity": 101,
                "duration": 0.7340909,
                "tempo": 120.0
            },
            {
                "start_time": 159.3090909,
                "end_time": 160.0431818,
                "pitch": 59,
                "velocity": 101,
                "duration": 0.7340909,
                "tempo": 120.0
            },
            {
                "start_time": 160.1090909,
                "end_time": 160.8431818,
                "pitch": 60,
                "velocity": 101,
                "duration": 0.7340909,
                "tempo": 120.0
            },
            {
                "start_time": 160.9090909,
                "end_time": 161.2477273,
                "pitch": 62,
                "velocity": 101,
                "duration": 0.3386364,
                "tempo": 120.0
            },
            {
                "start_time": 161.3136364,
                "end_time": 161.6522727,
                "pitch": 60,
                "velocity": 101,
                "duration": 0.3386364,
                "tempo": 120.0
            },
            {
                "start_time": 161.7204545,
                "end_time": 164.0636364,
                "pitch": 62,
                "velocity": 101,
                "duration": 2.3431818,
                "tempo": 120.0
            },
            {
                "start_time": 164.1318182,
                "end_time": 164.8636364,
                "pitch": 55,
                "velocity": 101,
                "duration": 0.7318182,
                "tempo": 120.0
            },
            {
                "start_time": 164.9318182,
                "end_time": 165.6636364,
                "pitch": 57,
                "velocity": 101,
                "duration": 0.7318182,
                "tempo": 120.0
            },
            {
                "start_time": 165.7318182,
                "end_time": 166.4636364,
                "pitch": 59,
                "velocity": 101,
                "duration": 0.7318182,
                "tempo": 120.0
            },
            {
                "start_time": 166.5318182,
                "end_time": 167.2636364,
                "pitch": 62,
                "velocity": 101,
                "duration": 0.7318182,
                "tempo": 120.0
            },
            {
                "start_time": 167.3318182,
                "end_time": 167.6681818,
                "pitch": 64,
                "velocity": 101,
                "duration": 0.3363636,
                "tempo": 120.0
            },
            {
                "start_time": 167.7363636,
                "end_time": 168.0727273,
                "pitch": 62,
                "velocity": 101,
                "duration": 0.3363636,
                "tempo": 120.0
            },
            {
                "start_time": 168.1409091,
                "end_time": 170.4659091,
                "pitch": 64,
                "velocity": 101,
                "duration": 2.325,
                "tempo": 120.0
            },
            {
                "start_time": 170.5295455,
                "end_time": 171.2727273,
                "pitch": 57,
                "velocity": 101,
                "duration": 0.7431818,
                "tempo": 120.0
            },
            {
                "start_time": 171.3409091,
                "end_time": 172.0840909,
                "pitch": 59,
                "velocity": 101,
                "duration": 0.7431818,
                "tempo": 120.0
            },
            {
                "start_time": 172.1522727,
                "end_time": 172.8863636,
                "pitch": 60,
                "velocity": 101,
                "duration": 0.7340909,
                "tempo": 120.0
            },
            {
                "start_time": 172.9522727,
                "end_time": 173.6863636,
                "pitch": 62,
                "velocity": 101,
                "duration": 0.7340909,
                "tempo": 120.0
            },
            {
                "start_time": 173.7522727,
                "end_time": 174.0909091,
                "pitch": 64,
                "velocity": 101,
                "duration": 0.3386364,
                "tempo": 120.0
            },
            {
                "start_time": 174.1568182,
                "end_time": 174.4954545,
                "pitch": 62,
                "velocity": 101,
                "duration": 0.3386364,
                "tempo": 120.0
            },
            {
                "start_time": 174.5636364,
                "end_time": 176.8863636,
                "pitch": 64,
                "velocity": 101,
                "duration": 2.3227273,
                "tempo": 120.0
            },
            {
                "start_time": 176.9522727,
                "end_time": 177.6954545,
                "pitch": 57,
                "velocity": 101,
                "duration": 0.7431818,
                "tempo": 120.0
            },
            {
                "start_time": 177.7636364,
                "end_time": 178.5068182,
                "pitch": 59,
                "velocity": 101,
                "duration": 0.7431818,
                "tempo": 120.0
            },
            {
                "start_time": 178.5727273,
                "end_time": 179.3068182,
                "pitch": 60,
                "velocity": 101,
                "duration": 0.7340909,
                "tempo": 120.0
            }
        ],
        "Church Organ": [
            {
                "start_time": 0.0590909,
                "end_time": 0.325,
                "pitch": 66,
                "velocity": 51,
                "duration": 0.2659091,
                "tempo": 120.0
            },
            {
                "start_time": 0.3909091,
                "end_time": 1.925,
                "pitch": 71,
                "velocity": 51,
                "duration": 1.5340909,
                "tempo": 120.0
            },
            {
                "start_time": 1.9909091,
                "end_time": 3.5159091,
                "pitch": 69,
                "velocity": 51,
                "duration": 1.525,
                "tempo": 120.0
            },
            {
                "start_time": 3.5795455,
                "end_time": 5.0954545,
                "pitch": 68,
                "velocity": 51,
                "duration": 1.5159091,
                "tempo": 120.0
            },
            {
                "start_time": 5.1636364,
                "end_time": 6.7295455,
                "pitch": 66,
                "velocity": 51,
                "duration": 1.5659091,
                "tempo": 120.0
            },
            {
                "start_time": 6.7931818,
                "end_time": 8.2840909,
                "pitch": 69,
                "velocity": 51,
                "duration": 1.4909091,
                "tempo": 120.0
            },
            {
                "start_time": 8.35,
                "end_time": 9.8886364,
                "pitch": 68,
                "velocity": 51,
                "duration": 1.5386364,
                "tempo": 120.0
            },
            {
                "start_time": 9.9568182,
                "end_time": 11.5045455,
                "pitch": 66,
                "velocity": 51,
                "duration": 1.5477273,
                "tempo": 120.0
            },
            {
                "start_time": 11.5727273,
                "end_time": 13.1045455,
                "pitch": 64,
                "velocity": 51,
                "duration": 1.5318182,
                "tempo": 120.0
            },
            {
                "start_time": 13.1727273,
                "end_time": 14.7045455,
                "pitch": 71,
                "velocity": 51,
                "duration": 1.5318182,
                "tempo": 120.0
            },
            {
                "start_time": 14.7727273,
                "end_time": 16.3113636,
                "pitch": 69,
                "velocity": 51,
                "duration": 1.5386364,
                "tempo": 120.0
            },
            {
                "start_time": 16.3772727,
                "end_time": 17.9272727,
                "pitch": 68,
                "velocity": 51,
                "duration": 1.55,
                "tempo": 120.0
            },
            {
                "start_time": 17.9931818,
                "end_time": 19.5318182,
                "pitch": 66,
                "velocity": 51,
                "duration": 1.5386364,
                "tempo": 120.0
            },
            {
                "start_time": 19.6,
                "end_time": 21.1545455,
                "pitch": 69,
                "velocity": 51,
                "duration": 1.5545455,
                "tempo": 120.0
            },
            {
                "start_time": 21.2204545,
                "end_time": 22.7704545,
                "pitch": 68,
                "velocity": 51,
                "duration": 1.55,
                "tempo": 120.0
            },
            {
                "start_time": 22.8363636,
                "end_time": 24.375,
                "pitch": 66,
                "velocity": 51,
                "duration": 1.5386364,
                "tempo": 120.0
            },
            {
                "start_time": 24.4431818,
                "end_time": 25.9909091,
                "pitch": 64,
                "velocity": 51,
                "duration": 1.5477273,
                "tempo": 120.0
            },
            {
                "start_time": 26.0590909,
                "end_time": 29.2136364,
                "pitch": 64,
                "velocity": 51,
                "duration": 3.1545455,
                "tempo": 120.0
            },
            {
                "start_time": 29.2795455,
                "end_time": 32.4522727,
                "pitch": 63,
                "velocity": 51,
                "duration": 3.1727273,
                "tempo": 120.0
            },
            {
                "start_time": 32.5227273,
                "end_time": 35.6727273,
                "pitch": 61,
                "velocity": 51,
                "duration": 3.15,
                "tempo": 120.0
            },
            {
                "start_time": 35.7431818,
                "end_time": 38.9727273,
                "pitch": 63,
                "velocity": 51,
                "duration": 3.2295455,
                "tempo": 120.0
            },
            {
                "start_time": 39.0409091,
                "end_time": 42.1318182,
                "pitch": 64,
                "velocity": 51,
                "duration": 3.0909091,
                "tempo": 120.0
            },
            {
                "start_time": 42.2,
                "end_time": 45.4022727,
                "pitch": 63,
                "velocity": 51,
                "duration": 3.2022727,
                "tempo": 120.0
            },
            {
                "start_time": 45.4704545,
                "end_time": 48.6068182,
                "pitch": 61,
                "velocity": 51,
                "duration": 3.1363636,
                "tempo": 120.0
            },
            {
                "start_time": 48.675,
                "end_time": 51.8204545,
                "pitch": 63,
                "velocity": 51,
                "duration": 3.1454545,
                "tempo": 120.0
            }
        ],
        "Trumpet": [
            {
                "start_time": 51.4818182,
                "end_time": 57.9227273,
                "pitch": 40,
                "velocity": 64,
                "duration": 6.4409091,
                "tempo": 120.0
            },
            {
                "start_time": 57.9909091,
                "end_time": 64.325,
                "pitch": 40,
                "velocity": 64,
                "duration": 6.3340909,
                "tempo": 120.0
            },
            {
                "start_time": 64.3909091,
                "end_time": 70.7681818,
                "pitch": 40,
                "velocity": 64,
                "duration": 6.3772727,
                "tempo": 120.0
            },
            {
                "start_time": 70.8340909,
                "end_time": 77.2113636,
                "pitch": 40,
                "velocity": 64,
                "duration": 6.3772727,
                "tempo": 120.0
            },
            {
                "start_time": 77.2772727,
                "end_time": 83.6727273,
                "pitch": 41,
                "velocity": 64,
                "duration": 6.3954545,
                "tempo": 120.0
            },
            {
                "start_time": 83.7409091,
                "end_time": 90.0545455,
                "pitch": 41,
                "velocity": 64,
                "duration": 6.3136364,
                "tempo": 120.0
            },
            {
                "start_time": 90.1204545,
                "end_time": 96.4954545,
                "pitch": 40,
                "velocity": 64,
                "duration": 6.375,
                "tempo": 120.0
            },
            {
                "start_time": 96.5636364,
                "end_time": 102.9181818,
                "pitch": 40,
                "velocity": 64,
                "duration": 6.3545455,
                "tempo": 120.0
            },
            {
                "start_time": 102.9863636,
                "end_time": 109.3613636,
                "pitch": 41,
                "velocity": 64,
                "duration": 6.375,
                "tempo": 120.0
            },
            {
                "start_time": 109.4272727,
                "end_time": 115.8045455,
                "pitch": 41,
                "velocity": 64,
                "duration": 6.3772727,
                "tempo": 120.0
            },
            {
                "start_time": 115.8704545,
                "end_time": 122.2477273,
                "pitch": 40,
                "velocity": 64,
                "duration": 6.3772727,
                "tempo": 120.0
            },
            {
                "start_time": 122.3136364,
                "end_time": 128.6909091,
                "pitch": 40,
                "velocity": 51,
                "duration": 6.3772727,
                "tempo": 120.0
            },
            {
                "start_time": 128.7568182,
                "end_time": 135.1545455,
                "pitch": 40,
                "velocity": 40,
                "duration": 6.3977273,
                "tempo": 120.0
            },
            {
                "start_time": 135.2227273,
                "end_time": 141.5568182,
                "pitch": 40,
                "velocity": 32,
                "duration": 6.3340909,
                "tempo": 120.0
            },
            {
                "start_time": 141.6227273,
                "end_time": 147.9772727,
                "pitch": 41,
                "velocity": 64,
                "duration": 6.3545455,
                "tempo": 120.0
            },
            {
                "start_time": 148.0454545,
                "end_time": 154.4204545,
                "pitch": 41,
                "velocity": 64,
                "duration": 6.375,
                "tempo": 120.0
            },
            {
                "start_time": 154.4886364,
                "end_time": 160.8431818,
                "pitch": 40,
                "velocity": 64,
                "duration": 6.3545455,
                "tempo": 120.0
            },
            {
                "start_time": 160.9090909,
                "end_time": 167.2636364,
                "pitch": 40,
                "velocity": 64,
                "duration": 6.3545455,
                "tempo": 120.0
            },
            {
                "start_time": 167.3318182,
                "end_time": 173.6863636,
                "pitch": 41,
                "velocity": 64,
                "duration": 6.3545455,
                "tempo": 120.0
            }
        ],
        "Acoustic Grand Piano": [
            {
                "start_time": 53.1045455,
                "end_time": 53.4409091,
                "pitch": 55,
                "velocity": 51,
                "duration": 0.3363636,
                "tempo": 120.0
            },
            {
                "start_time": 53.5090909,
                "end_time": 54.2522727,
                "pitch": 55,
                "velocity": 51,
                "duration": 0.7431818,
                "tempo": 120.0
            },
            {
                "start_time": 54.3204545,
                "end_time": 57.9227273,
                "pitch": 55,
                "velocity": 51,
                "duration": 3.6022727,
                "tempo": 120.0
            },
            {
                "start_time": 59.5909091,
                "end_time": 59.9204545,
                "pitch": 55,
                "velocity": 51,
                "duration": 0.3295455,
                "tempo": 120.0
            },
            {
                "start_time": 59.9863636,
                "end_time": 60.7090909,
                "pitch": 55,
                "velocity": 51,
                "duration": 0.7227273,
                "tempo": 120.0
            },
            {
                "start_time": 60.775,
                "end_time": 64.325,
                "pitch": 55,
                "velocity": 51,
                "duration": 3.55,
                "tempo": 120.0
            },
            {
                "start_time": 66.0136364,
                "end_time": 66.35,
                "pitch": 55,
                "velocity": 51,
                "duration": 0.3363636,
                "tempo": 120.0
            },
            {
                "start_time": 66.4181818,
                "end_time": 67.1613636,
                "pitch": 55,
                "velocity": 51,
                "duration": 0.7431818,
                "tempo": 120.0
            },
            {
                "start_time": 67.2295455,
                "end_time": 70.7681818,
                "pitch": 55,
                "velocity": 51,
                "duration": 3.5386364,
                "tempo": 120.0
            },
            {
                "start_time": 72.4568182,
                "end_time": 72.7886364,
                "pitch": 55,
                "velocity": 51,
                "duration": 0.3318182,
                "tempo": 120.0
            },
            {
                "start_time": 72.8568182,
                "end_time": 73.5886364,
                "pitch": 55,
                "velocity": 51,
                "duration": 0.7318182,
                "tempo": 120.0
            },
            {
                "start_time": 73.6568182,
                "end_time": 77.2113636,
                "pitch": 55,
                "velocity": 51,
                "duration": 3.5545455,
                "tempo": 120.0
            },
            {
                "start_time": 78.8977273,
                "end_time": 79.2318182,
                "pitch": 55,
                "velocity": 51,
                "duration": 0.3340909,
                "tempo": 120.0
            },
            {
                "start_time": 79.2977273,
                "end_time": 80.0318182,
                "pitch": 55,
                "velocity": 51,
                "duration": 0.7340909,
                "tempo": 120.0
            },
            {
                "start_time": 80.0977273,
                "end_time": 83.6727273,
                "pitch": 55,
                "velocity": 51,
                "duration": 3.575,
                "tempo": 120.0
            },
            {
                "start_time": 85.3204545,
                "end_time": 85.6545455,
                "pitch": 55,
                "velocity": 51,
                "duration": 0.3340909,
                "tempo": 120.0
            },
            {
                "start_time": 85.7204545,
                "end_time": 86.4545455,
                "pitch": 55,
                "velocity": 51,
                "duration": 0.7340909,
                "tempo": 120.0
            },
            {
                "start_time": 86.5204545,
                "end_time": 90.0545455,
                "pitch": 55,
                "velocity": 51,
                "duration": 3.5340909,
                "tempo": 120.0
            },
            {
                "start_time": 91.7431818,
                "end_time": 92.075,
                "pitch": 55,
                "velocity": 51,
                "duration": 0.3318182,
                "tempo": 120.0
            },
            {
                "start_time": 92.1431818,
                "end_time": 92.875,
                "pitch": 55,
                "velocity": 51,
                "duration": 0.7318182,
                "tempo": 120.0
            },
            {
                "start_time": 92.9431818,
                "end_time": 96.4954545,
                "pitch": 55,
                "velocity": 51,
                "duration": 3.5522727,
                "tempo": 120.0
            },
            {
                "start_time": 98.1636364,
                "end_time": 98.5022727,
                "pitch": 55,
                "velocity": 51,
                "duration": 0.3386364,
                "tempo": 120.0
            },
            {
                "start_time": 98.5681818,
                "end_time": 99.3113636,
                "pitch": 55,
                "velocity": 51,
                "duration": 0.7431818,
                "tempo": 120.0
            },
            {
                "start_time": 99.3795455,
                "end_time": 102.9181818,
                "pitch": 55,
                "velocity": 51,
                "duration": 3.5386364,
                "tempo": 120.0
            },
            {
                "start_time": 104.6068182,
                "end_time": 104.9409091,
                "pitch": 55,
                "velocity": 51,
                "duration": 0.3340909,
                "tempo": 120.0
            },
            {
                "start_time": 105.0068182,
                "end_time": 105.7409091,
                "pitch": 55,
                "velocity": 51,
                "duration": 0.7340909,
                "tempo": 120.0
            },
            {
                "start_time": 105.8068182,
                "end_time": 109.3613636,
                "pitch": 55,
                "velocity": 51,
                "duration": 3.5545455,
                "tempo": 120.0
            },
            {
                "start_time": 111.0272727,
                "end_time": 111.3659091,
                "pitch": 55,
                "velocity": 51,
                "duration": 0.3386364,
                "tempo": 120.0
            },
            {
                "start_time": 111.4340909,
                "end_time": 112.1772727,
                "pitch": 55,
                "velocity": 51,
                "duration": 0.7431818,
                "tempo": 120.0
            },
            {
                "start_time": 112.2454545,
                "end_time": 115.8045455,
                "pitch": 55,
                "velocity": 51,
                "duration": 3.5590909,
                "tempo": 120.0
            },
            {
                "start_time": 115.8704545,
                "end_time": 122.2477273,
                "pitch": 54,
                "velocity": 51,
                "duration": 6.3772727,
                "tempo": 120.0
            },
            {
                "start_time": 122.3136364,
                "end_time": 128.6909091,
                "pitch": 54,
                "velocity": 40,
                "duration": 6.3772727,
                "tempo": 120.0
            },
            {
                "start_time": 128.7568182,
                "end_time": 135.1545455,
                "pitch": 54,
                "velocity": 32,
                "duration": 6.3977273,
                "tempo": 120.0
            },
            {
                "start_time": 135.2227273,
                "end_time": 141.5568182,
                "pitch": 54,
                "velocity": 25,
                "duration": 6.3340909,
                "tempo": 120.0
            }
        ],
        "Flute": [
            {
                "start_time": 0.0590909,
                "end_time": 6.3454545,
                "pitch": 64,
                "velocity": 51,
                "duration": 6.2863636,
                "tempo": 120.0
            },
            {
                "start_time": 6.4090909,
                "end_time": 12.7045455,
                "pitch": 64,
                "velocity": 51,
                "duration": 6.2954545,
                "tempo": 120.0
            },
            {
                "start_time": 12.7727273,
                "end_time": 19.1272727,
                "pitch": 64,
                "velocity": 51,
                "duration": 6.3545455,
                "tempo": 120.0
            },
            {
                "start_time": 19.1954545,
                "end_time": 25.5909091,
                "pitch": 64,
                "velocity": 51,
                "duration": 6.3954545,
                "tempo": 120.0
            },
            {
                "start_time": 25.6590909,
                "end_time": 32.0340909,
                "pitch": 66,
                "velocity": 51,
                "duration": 6.375,
                "tempo": 120.0
            },
            {
                "start_time": 32.1022727,
                "end_time": 38.5681818,
                "pitch": 66,
                "velocity": 51,
                "duration": 6.4659091,
                "tempo": 120.0
            },
            {
                "start_time": 38.6340909,
                "end_time": 44.9909091,
                "pitch": 66,
                "velocity": 51,
                "duration": 6.3568182,
                "tempo": 120.0
            },
            {
                "start_time": 45.0613636,
                "end_time": 51.4181818,
                "pitch": 66,
                "velocity": 51,
                "duration": 6.3568182,
                "tempo": 120.0
            }
        ],
        "Vibraphone": [
            {
                "start_time": 141.6227273,
                "end_time": 141.9568182,
                "pitch": 76,
                "velocity": 51,
                "duration": 0.3340909,
                "tempo": 120.0
            },
            {
                "start_time": 142.0227273,
                "end_time": 142.3568182,
                "pitch": 72,
                "velocity": 51,
                "duration": 0.3340909,
                "tempo": 120.0
            },
            {
                "start_time": 142.4227273,
                "end_time": 142.7568182,
                "pitch": 69,
                "velocity": 51,
                "duration": 0.3340909,
                "tempo": 120.0
            },
            {
                "start_time": 142.8227273,
                "end_time": 143.1568182,
                "pitch": 65,
                "velocity": 51,
                "duration": 0.3340909,
                "tempo": 120.0
            },
            {
                "start_time": 143.2227273,
                "end_time": 143.5568182,
                "pitch": 76,
                "velocity": 51,
                "duration": 0.3340909,
                "tempo": 120.0
            },
            {
                "start_time": 143.6227273,
                "end_time": 143.9568182,
                "pitch": 72,
                "velocity": 51,
                "duration": 0.3340909,
                "tempo": 120.0
            },
            {
                "start_time": 144.0227273,
                "end_time": 144.3568182,
                "pitch": 69,
                "velocity": 51,
                "duration": 0.3340909,
                "tempo": 120.0
            },
            {
                "start_time": 144.4227273,
                "end_time": 144.7568182,
                "pitch": 65,
                "velocity": 51,
                "duration": 0.3340909,
                "tempo": 120.0
            },
            {
                "start_time": 144.8227273,
                "end_time": 145.1613636,
                "pitch": 76,
                "velocity": 51,
                "duration": 0.3386364,
                "tempo": 120.0
            },
            {
                "start_time": 145.2295455,
                "end_time": 145.5659091,
                "pitch": 72,
                "velocity": 51,
                "duration": 0.3363636,
                "tempo": 120.0
            },
            {
                "start_time": 145.6340909,
                "end_time": 145.9727273,
                "pitch": 69,
                "velocity": 51,
                "duration": 0.3386364,
                "tempo": 120.0
            },
            {
                "start_time": 146.0386364,
                "end_time": 146.3772727,
                "pitch": 65,
                "velocity": 51,
                "duration": 0.3386364,
                "tempo": 120.0
            },
            {
                "start_time": 146.4454545,
                "end_time": 146.7772727,
                "pitch": 76,
                "velocity": 51,
                "duration": 0.3318182,
                "tempo": 120.0
            },
            {
                "start_time": 146.8454545,
                "end_time": 147.1772727,
                "pitch": 72,
                "velocity": 51,
                "duration": 0.3318182,
                "tempo": 120.0
            },
            {
                "start_time": 147.2454545,
                "end_time": 147.5772727,
                "pitch": 69,
                "velocity": 51,
                "duration": 0.3318182,
                "tempo": 120.0
            },
            {
                "start_time": 147.6454545,
                "end_time": 147.9772727,
                "pitch": 65,
                "velocity": 51,
                "duration": 0.3318182,
                "tempo": 120.0
            },
            {
                "start_time": 148.0454545,
                "end_time": 148.3818182,
                "pitch": 76,
                "velocity": 51,
                "duration": 0.3363636,
                "tempo": 120.0
            },
            {
                "start_time": 148.45,
                "end_time": 148.7886364,
                "pitch": 72,
                "velocity": 51,
                "duration": 0.3386364,
                "tempo": 120.0
            },
            {
                "start_time": 148.8545455,
                "end_time": 149.1931818,
                "pitch": 69,
                "velocity": 51,
                "duration": 0.3386364,
                "tempo": 120.0
            },
            {
                "start_time": 149.2613636,
                "end_time": 149.5977273,
                "pitch": 65,
                "velocity": 51,
                "duration": 0.3363636,
                "tempo": 120.0
            },
            {
                "start_time": 149.6659091,
                "end_time": 149.9954545,
                "pitch": 76,
                "velocity": 51,
                "duration": 0.3295455,
                "tempo": 120.0
            },
            {
                "start_time": 150.0613636,
                "end_time": 150.3886364,
                "pitch": 72,
                "velocity": 51,
                "duration": 0.3272727,
                "tempo": 120.0
            },
            {
                "start_time": 150.4545455,
                "end_time": 150.7840909,
                "pitch": 69,
                "velocity": 51,
                "duration": 0.3295455,
                "tempo": 120.0
            },
            {
                "start_time": 150.85,
                "end_time": 151.1795455,
                "pitch": 65,
                "velocity": 51,
                "duration": 0.3295455,
                "tempo": 120.0
            },
            {
                "start_time": 151.2454545,
                "end_time": 151.5818182,
                "pitch": 76,
                "velocity": 51,
                "duration": 0.3363636,
                "tempo": 120.0
            },
            {
                "start_time": 151.65,
                "end_time": 151.9886364,
                "pitch": 72,
                "velocity": 51,
                "duration": 0.3386364,
                "tempo": 120.0
            },
            {
                "start_time": 152.0545455,
                "end_time": 152.3931818,
                "pitch": 69,
                "velocity": 51,
                "duration": 0.3386364,
                "tempo": 120.0
            },
            {
                "start_time": 152.4613636,
                "end_time": 152.7977273,
                "pitch": 65,
                "velocity": 51,
                "duration": 0.3363636,
                "tempo": 120.0
            },
            {
                "start_time": 152.8659091,
                "end_time": 153.2045455,
                "pitch": 76,
                "velocity": 51,
                "duration": 0.3386364,
                "tempo": 120.0
            },
            {
                "start_time": 153.2727273,
                "end_time": 153.6090909,
                "pitch": 72,
                "velocity": 51,
                "duration": 0.3363636,
                "tempo": 120.0
            },
            {
                "start_time": 153.6772727,
                "end_time": 154.0159091,
                "pitch": 69,
                "velocity": 51,
                "duration": 0.3386364,
                "tempo": 120.0
            },
            {
                "start_time": 154.0818182,
                "end_time": 154.4204545,
                "pitch": 65,
                "velocity": 51,
                "duration": 0.3386364,
                "tempo": 120.0
            },
            {
                "start_time": 154.4886364,
                "end_time": 154.825,
                "pitch": 74,
                "velocity": 51,
                "duration": 0.3363636,
                "tempo": 120.0
            },
            {
                "start_time": 154.8931818,
                "end_time": 155.2318182,
                "pitch": 71,
                "velocity": 51,
                "duration": 0.3386364,
                "tempo": 120.0
            },
            {
                "start_time": 155.2977273,
                "end_time": 155.6363636,
                "pitch": 67,
                "velocity": 51,
                "duration": 0.3386364,
                "tempo": 120.0
            },
            {
                "start_time": 155.7045455,
                "end_time": 156.0409091,
                "pitch": 64,
                "velocity": 51,
                "duration": 0.3363636,
                "tempo": 120.0
            },
            {
                "start_time": 156.1090909,
                "end_time": 156.4431818,
                "pitch": 74,
                "velocity": 51,
                "duration": 0.3340909,
                "tempo": 120.0
            },
            {
                "start_time": 156.5090909,
                "end_time": 156.8431818,
                "pitch": 71,
                "velocity": 51,
                "duration": 0.3340909,
                "tempo": 120.0
            },
            {
                "start_time": 156.9090909,
                "end_time": 157.2431818,
                "pitch": 67,
                "velocity": 51,
                "duration": 0.3340909,
                "tempo": 120.0
            },
            {
                "start_time": 157.3090909,
                "end_time": 157.6431818,
                "pitch": 64,
                "velocity": 51,
                "duration": 0.3340909,
                "tempo": 120.0
            },
            {
                "start_time": 157.7090909,
                "end_time": 158.0431818,
                "pitch": 74,
                "velocity": 51,
                "duration": 0.3340909,
                "tempo": 120.0
            },
            {
                "start_time": 158.1090909,
                "end_time": 158.4431818,
                "pitch": 71,
                "velocity": 51,
                "duration": 0.3340909,
                "tempo": 120.0
            },
            {
                "start_time": 158.5090909,
                "end_time": 158.8431818,
                "pitch": 67,
                "velocity": 51,
                "duration": 0.3340909,
                "tempo": 120.0
            },
            {
                "start_time": 158.9090909,
                "end_time": 159.2431818,
                "pitch": 64,
                "velocity": 51,
                "duration": 0.3340909,
                "tempo": 120.0
            },
            {
                "start_time": 159.3090909,
                "end_time": 159.6431818,
                "pitch": 74,
                "velocity": 51,
                "duration": 0.3340909,
                "tempo": 120.0
            },
            {
                "start_time": 159.7090909,
                "end_time": 160.0431818,
                "pitch": 71,
                "velocity": 51,
                "duration": 0.3340909,
                "tempo": 120.0
            },
            {
                "start_time": 160.1090909,
                "end_time": 160.4431818,
                "pitch": 67,
                "velocity": 51,
                "duration": 0.3340909,
                "tempo": 120.0
            },
            {
                "start_time": 160.5090909,
                "end_time": 160.8431818,
                "pitch": 64,
                "velocity": 51,
                "duration": 0.3340909,
                "tempo": 120.0
            },
            {
                "start_time": 160.9090909,
                "end_time": 161.2477273,
                "pitch": 74,
                "velocity": 51,
                "duration": 0.3386364,
                "tempo": 120.0
            },
            {
                "start_time": 161.3136364,
                "end_time": 161.6522727,
                "pitch": 71,
                "velocity": 51,
                "duration": 0.3386364,
                "tempo": 120.0
            },
            {
                "start_time": 161.7204545,
                "end_time": 162.0568182,
                "pitch": 67,
                "velocity": 51,
                "duration": 0.3363636,
                "tempo": 120.0
            },
            {
                "start_time": 162.125,
                "end_time": 162.4636364,
                "pitch": 64,
                "velocity": 51,
                "duration": 0.3386364,
                "tempo": 120.0
            },
            {
                "start_time": 162.5318182,
                "end_time": 162.8636364,
                "pitch": 74,
                "velocity": 51,
                "duration": 0.3318182,
                "tempo": 120.0
            },
            {
                "start_time": 162.9318182,
                "end_time": 163.2636364,
                "pitch": 71,
                "velocity": 51,
                "duration": 0.3318182,
                "tempo": 120.0
            },
            {
                "start_time": 163.3318182,
                "end_time": 163.6636364,
                "pitch": 67,
                "velocity": 51,
                "duration": 0.3318182,
                "tempo": 120.0
            },
            {
                "start_time": 163.7318182,
                "end_time": 164.0636364,
                "pitch": 64,
                "velocity": 51,
                "duration": 0.3318182,
                "tempo": 120.0
            },
            {
                "start_time": 164.1318182,
                "end_time": 164.4636364,
                "pitch": 74,
                "velocity": 51,
                "duration": 0.3318182,
                "tempo": 120.0
            },
            {
                "start_time": 164.5318182,
                "end_time": 164.8636364,
                "pitch": 71,
                "velocity": 51,
                "duration": 0.3318182,
                "tempo": 120.0
            },
            {
                "start_time": 164.9318182,
                "end_time": 165.2636364,
                "pitch": 67,
                "velocity": 51,
                "duration": 0.3318182,
                "tempo": 120.0
            },
            {
                "start_time": 165.3318182,
                "end_time": 165.6636364,
                "pitch": 64,
                "velocity": 51,
                "duration": 0.3318182,
                "tempo": 120.0
            },
            {
                "start_time": 165.7318182,
                "end_time": 166.0636364,
                "pitch": 74,
                "velocity": 51,
                "duration": 0.3318182,
                "tempo": 120.0
            },
            {
                "start_time": 166.1318182,
                "end_time": 166.4636364,
                "pitch": 71,
                "velocity": 51,
                "duration": 0.3318182,
                "tempo": 120.0
            },
            {
                "start_time": 166.5318182,
                "end_time": 166.8636364,
                "pitch": 67,
                "velocity": 51,
                "duration": 0.3318182,
                "tempo": 120.0
            },
            {
                "start_time": 166.9318182,
                "end_time": 167.2636364,
                "pitch": 64,
                "velocity": 51,
                "duration": 0.3318182,
                "tempo": 120.0
            },
            {
                "start_time": 167.3318182,
                "end_time": 167.6681818,
                "pitch": 76,
                "velocity": 51,
                "duration": 0.3363636,
                "tempo": 120.0
            },
            {
                "start_time": 167.7363636,
                "end_time": 168.0727273,
                "pitch": 72,
                "velocity": 51,
                "duration": 0.3363636,
                "tempo": 120.0
            },
            {
                "start_time": 168.1409091,
                "end_time": 168.4795455,
                "pitch": 69,
                "velocity": 51,
                "duration": 0.3386364,
                "tempo": 120.0
            },
            {
                "start_time": 168.5477273,
                "end_time": 168.8840909,
                "pitch": 65,
                "velocity": 51,
                "duration": 0.3363636,
                "tempo": 120.0
            },
            {
                "start_time": 168.9522727,
                "end_time": 169.2795455,
                "pitch": 76,
                "velocity": 51,
                "duration": 0.3272727,
                "tempo": 120.0
            },
            {
                "start_time": 169.3454545,
                "end_time": 169.675,
                "pitch": 72,
                "velocity": 51,
                "duration": 0.3295455,
                "tempo": 120.0
            },
            {
                "start_time": 169.7409091,
                "end_time": 170.0704545,
                "pitch": 69,
                "velocity": 51,
                "duration": 0.3295455,
                "tempo": 120.0
            },
            {
                "start_time": 170.1363636,
                "end_time": 170.4659091,
                "pitch": 65,
                "velocity": 51,
                "duration": 0.3295455,
                "tempo": 120.0
            },
            {
                "start_time": 170.5295455,
                "end_time": 170.8681818,
                "pitch": 76,
                "velocity": 51,
                "duration": 0.3386364,
                "tempo": 120.0
            },
            {
                "start_time": 170.9363636,
                "end_time": 171.2727273,
                "pitch": 72,
                "velocity": 51,
                "duration": 0.3363636,
                "tempo": 120.0
            },
            {
                "start_time": 171.3409091,
                "end_time": 171.6795455,
                "pitch": 69,
                "velocity": 51,
                "duration": 0.3386364,
                "tempo": 120.0
            },
            {
                "start_time": 171.7477273,
                "end_time": 172.0840909,
                "pitch": 65,
                "velocity": 51,
                "duration": 0.3363636,
                "tempo": 120.0
            },
            {
                "start_time": 172.1522727,
                "end_time": 172.4863636,
                "pitch": 76,
                "velocity": 51,
                "duration": 0.3340909,
                "tempo": 120.0
            },
            {
                "start_time": 172.5522727,
                "end_time": 172.8863636,
                "pitch": 72,
                "velocity": 51,
                "duration": 0.3340909,
                "tempo": 120.0
            },
            {
                "start_time": 172.9522727,
                "end_time": 173.2863636,
                "pitch": 69,
                "velocity": 51,
                "duration": 0.3340909,
                "tempo": 120.0
            },
            {
                "start_time": 173.3522727,
                "end_time": 173.6863636,
                "pitch": 65,
                "velocity": 51,
                "duration": 0.3340909,
                "tempo": 120.0
            },
            {
                "start_time": 173.7522727,
                "end_time": 174.0909091,
                "pitch": 76,
                "velocity": 51,
                "duration": 0.3386364,
                "tempo": 120.0
            },
            {
                "start_time": 174.1568182,
                "end_time": 174.4954545,
                "pitch": 72,
                "velocity": 51,
                "duration": 0.3386364,
                "tempo": 120.0
            },
            {
                "start_time": 174.5636364,
                "end_time": 174.9,
                "pitch": 69,
                "velocity": 51,
                "duration": 0.3363636,
                "tempo": 120.0
            },
            {
                "start_time": 174.9681818,
                "end_time": 175.3068182,
                "pitch": 65,
                "velocity": 51,
                "duration": 0.3386364,
                "tempo": 120.0
            },
            {
                "start_time": 175.3727273,
                "end_time": 175.7022727,
                "pitch": 76,
                "velocity": 51,
                "duration": 0.3295455,
                "tempo": 120.0
            },
            {
                "start_time": 175.7681818,
                "end_time": 176.0977273,
                "pitch": 72,
                "velocity": 51,
                "duration": 0.3295455,
                "tempo": 120.0
            },
            {
                "start_time": 176.1613636,
                "end_time": 176.4909091,
                "pitch": 69,
                "velocity": 51,
                "duration": 0.3295455,
                "tempo": 120.0
            },
            {
                "start_time": 176.5568182,
                "end_time": 176.8863636,
                "pitch": 65,
                "velocity": 51,
                "duration": 0.3295455,
                "tempo": 120.0
            },
            {
                "start_time": 176.9522727,
                "end_time": 177.2909091,
                "pitch": 76,
                "velocity": 51,
                "duration": 0.3386364,
                "tempo": 120.0
            },
            {
                "start_time": 177.3568182,
                "end_time": 177.6954545,
                "pitch": 72,
                "velocity": 51,
                "duration": 0.3386364,
                "tempo": 120.0
            },
            {
                "start_time": 177.7636364,
                "end_time": 178.1,
                "pitch": 69,
                "velocity": 51,
                "duration": 0.3363636,
                "tempo": 120.0
            },
            {
                "start_time": 178.1681818,
                "end_time": 178.5068182,
                "pitch": 65,
                "velocity": 51,
                "duration": 0.3386364,
                "tempo": 120.0
            },
            {
                "start_time": 178.5727273,
                "end_time": 178.9068182,
                "pitch": 76,
                "velocity": 51,
                "duration": 0.3340909,
                "tempo": 120.0
            },
            {
                "start_time": 178.9727273,
                "end_time": 179.3068182,
                "pitch": 72,
                "velocity": 51,
                "duration": 0.3340909,
                "tempo": 120.0
            },
            {
                "start_time": 179.3727273,
                "end_time": 179.7068182,
                "pitch": 69,
                "velocity": 51,
                "duration": 0.3340909,
                "tempo": 120.0
            }
        ]
    }
}