{
    "track_id": "02 Opening 1_7",
    "mood": "relaxed",
    "instruments": {
        "Lead 1 (square)": [
            {
                "pitch": 38,
                "velocity": 10,
                "duration": 0.0841,
                "tempo": 120.0
            },
            {
                "pitch": 0,
                "velocity": 0,
                "duration": 0.5864,
                "tempo": 0
            },
            {
                "pitch": 38,
                "velocity": 10,
                "duration": 0.0841,
                "tempo": 120.0
            },
            {
                "pitch": 0,
                "velocity": 0,
                "duration": 0.5795,
                "tempo": 0
            },
            {
                "pitch": 38,
                "velocity": 10,
                "duration": 0.0841,
                "tempo": 120.0
            },
            {
                "pitch": 0,
                "velocity": 0,
                "duration": 0.5886,
                "tempo": 0
            },
            {
                "pitch": 38,
                "velocity": 10,
                "duration": 0.0841,
                "tempo": 120.0
            },
            {
                "pitch": 0,
                "velocity": 0,
                "duration": 0.5886,
                "tempo": 0
            },
            {
                "pitch": 38,
                "velocity": 10,
                "duration": 0.0818,
                "tempo": 120.0
            },
            {
                "pitch": 0,
                "velocity": 0,
                "duration": 0.5886,
                "tempo": 0
            },
            {
                "pitch": 38,
                "velocity": 10,
                "duration": 0.0818,
                "tempo": 120.0
            },
            {
                "pitch": 0,
                "velocity": 0,
                "duration": 0.5818,
                "tempo": 0
            },
            {
                "pitch": 38,
                "velocity": 10,
                "duration": 0.0841,
                "tempo": 120.0
            },
            {
                "pitch": 0,
                "velocity": 0,
                "duration": 0.5886,
                "tempo": 0
            },
            {
                "pitch": 38,
                "velocity": 10,
                "duration": 0.0818,
                "tempo": 120.0
            },
            {
                "pitch": 0,
                "velocity": 0,
                "duration": 0.5886,
                "tempo": 0
            },
            {
                "pitch": 38,
                "velocity": 10,
                "duration": 0.0841,
                "tempo": 120.0
            },
            {
                "pitch": 0,
                "velocity": 0,
                "duration": 0.5886,
                "tempo": 0
            },
            {
                "pitch": 38,
                "velocity": 10,
                "duration": 0.0818,
                "tempo": 120.0
            },
            {
                "pitch": 0,
                "velocity": 0,
                "duration": 0.5886,
                "tempo": 0
            },
            {
                "pitch": 38,
                "velocity": 10,
                "duration": 0.0841,
                "tempo": 120.0
            },
            {
                "pitch": 0,
                "velocity": 0,
                "duration": 0.5886,
                "tempo": 0
            },
            {
                "pitch": 38,
                "velocity": 10,
                "duration": 0.0818,
                "tempo": 120.0
            },
            {
                "pitch": 0,
                "velocity": 0,
                "duration": 0.5886,
                "tempo": 0
            },
            {
                "pitch": 38,
                "velocity": 10,
                "duration": 0.0841,
                "tempo": 120.0
            },
            {
                "pitch": 0,
                "velocity": 0,
                "duration": 0.5886,
                "tempo": 0
            },
            {
                "pitch": 38,
                "velocity": 10,
                "duration": 0.0818,
                "tempo": 120.0
            },
            {
                "pitch": 0,
                "velocity": 0,
                "duration": 0.5818,
                "tempo": 0
            },
            {
                "pitch": 38,
                "velocity": 10,
                "duration": 0.0841,
                "tempo": 120.0
            },
            {
                "pitch": 0,
                "velocity": 0,
                "duration": 0.5864,
                "tempo": 0
            },
            {
                "pitch": 38,
                "velocity": 10,
                "duration": 0.0841,
                "tempo": 120.0
            },
            {
                "pitch": 0,
                "velocity": 0,
                "duration": 0.5818,
                "tempo": 0
            },
            {
                "pitch": 38,
                "velocity": 10,
                "duration": 0.0818,
                "tempo": 120.0
            },
            {
                "pitch": 0,
                "velocity": 0,
                "duration": 0.5886,
                "tempo": 0
            },
            {
                "pitch": 38,
                "velocity": 10,
                "duration": 0.0841,
                "tempo": 120.0
            },
            {
                "pitch": 0,
                "velocity": 0,
                "duration": 0.5886,
                "tempo": 0
            },
            {
                "pitch": 38,
                "velocity": 10,
                "duration": 0.0818,
                "tempo": 120.0
            },
            {
                "pitch": 0,
                "velocity": 0,
                "duration": 0.5886,
                "tempo": 0
            },
            {
                "pitch": 38,
                "velocity": 10,
                "duration": 0.0841,
                "tempo": 120.0
            },
            {
                "pitch": 0,
                "velocity": 0,
                "duration": 0.5886,
                "tempo": 0
            },
            {
                "pitch": 38,
                "velocity": 10,
                "duration": 0.0818,
                "tempo": 120.0
            },
            {
                "pitch": 0,
                "velocity": 0,
                "duration": 0.5886,
                "tempo": 0
            },
            {
                "pitch": 38,
                "velocity": 10,
                "duration": 0.0841,
                "tempo": 120.0
            },
            {
                "pitch": 0,
                "velocity": 0,
                "duration": 0.5795,
                "tempo": 0
            },
            {
                "pitch": 38,
                "velocity": 10,
                "duration": 0.0841,
                "tempo": 120.0
            },
            {
                "pitch": 0,
                "velocity": 0,
                "duration": 0.5886,
                "tempo": 0
            },
            {
                "pitch": 38,
                "velocity": 10,
                "duration": 0.0818,
                "tempo": 120.0
            },
            {
                "pitch": 0,
                "velocity": 0,
                "duration": 0.5818,
                "tempo": 0
            },
            {
                "pitch": 40,
                "velocity": 10,
                "duration": 0.0841,
                "tempo": 120.0
            },
            {
                "pitch": 0,
                "velocity": 0,
                "duration": 0.5886,
                "tempo": 0
            },
            {
                "pitch": 45,
                "velocity": 10,
                "duration": 0.0818,
                "tempo": 120.0
            },
            {
                "pitch": 0,
                "velocity": 0,
                "duration": 0.5886,
                "tempo": 0
            },
            {
                "pitch": 33,
                "velocity": 10,
                "duration": 0.0841,
                "tempo": 120.0
            },
            {
                "pitch": 0,
                "velocity": 0,
                "duration": 0.5886,
                "tempo": 0
            },
            {
                "pitch": 33,
                "velocity": 10,
                "duration": 0.0818,
                "tempo": 120.0
            },
            {
                "pitch": 0,
                "velocity": 0,
                "duration": 0.5886,
                "tempo": 0
            },
            {
                "pitch": 40,
                "velocity": 10,
                "duration": 0.0818,
                "tempo": 120.0
            },
            {
                "pitch": 0,
                "velocity": 0,
                "duration": 0.25,
                "tempo": 0
            },
            {
                "pitch": 45,
                "velocity": 10,
                "duration": 0.0841,
                "tempo": 120.0
            },
            {
                "pitch": 0,
                "velocity": 0,
                "duration": 0.2477,
                "tempo": 0
            },
            {
                "pitch": 33,
                "velocity": 10,
                "duration": 0.0841,
                "tempo": 120.0
            },
            {
                "pitch": 0,
                "velocity": 0,
                "duration": 0.5886,
                "tempo": 0
            },
            {
                "pitch": 40,
                "velocity": 10,
                "duration": 0.0841,
                "tempo": 120.0
            },
            {
                "pitch": 0,
                "velocity": 0,
                "duration": 0.2523,
                "tempo": 0
            },
            {
                "pitch": 40,
                "velocity": 10,
                "duration": 0.0818,
                "tempo": 120.0
            },
            {
                "pitch": 0,
                "velocity": 0,
                "duration": 0.9182,
                "tempo": 0
            },
            {
                "pitch": 40,
                "velocity": 10,
                "duration": 0.0818,
                "tempo": 120.0
            },
            {
                "pitch": 0,
                "velocity": 0,
                "duration": 0.5886,
                "tempo": 0
            },
            {
                "pitch": 45,
                "velocity": 10,
                "duration": 0.0841,
                "tempo": 120.0
            },
            {
                "pitch": 0,
                "velocity": 0,
                "duration": 0.5886,
                "tempo": 0
            },
            {
                "pitch": 33,
                "velocity": 10,
                "duration": 0.0818,
                "tempo": 120.0
            },
            {
                "pitch": 0,
                "velocity": 0,
                "duration": 0.5886,
                "tempo": 0
            },
            {
                "pitch": 33,
                "velocity": 10,
                "duration": 0.0818,
                "tempo": 120.0
            }
        ],
        "Lead 2 (sawtooth)": [
            {
                "pitch": 0,
                "velocity": 0,
                "duration": 5.3909,
                "tempo": 0
            },
            {
                "pitch": 74,
                "velocity": 5,
                "duration": 0.3364,
                "tempo": 120.0
            },
            {
                "pitch": 76,
                "velocity": 5,
                "duration": 0.0318,
                "tempo": 120.0
            },
            {
                "pitch": 78,
                "velocity": 5,
                "duration": 0.0341,
                "tempo": 120.0
            },
            {
                "pitch": 79,
                "velocity": 5,
                "duration": 0.0341,
                "tempo": 120.0
            },
            {
                "pitch": 81,
                "velocity": 5,
                "duration": 0.0341,
                "tempo": 120.0
            },
            {
                "pitch": 83,
                "velocity": 5,
                "duration": 0.0318,
                "tempo": 120.0
            },
            {
                "pitch": 88,
                "velocity": 5,
                "duration": 0.0023,
                "tempo": 120.0
            },
            {
                "pitch": 85,
                "velocity": 5,
                "duration": 1.5091,
                "tempo": 120.0
            },
            {
                "pitch": 0,
                "velocity": 0,
                "duration": 0.0023,
                "tempo": 0
            },
            {
                "pitch": 83,
                "velocity": 5,
                "duration": 0.1659,
                "tempo": 120.0
            },
            {
                "pitch": 81,
                "velocity": 5,
                "duration": 0.1682,
                "tempo": 120.0
            },
            {
                "pitch": 79,
                "velocity": 5,
                "duration": 0.3364,
                "tempo": 120.0
            },
            {
                "pitch": 78,
                "velocity": 5,
                "duration": 0.1682,
                "tempo": 120.0
            },
            {
                "pitch": 79,
                "velocity": 5,
                "duration": 0.1682,
                "tempo": 120.0
            },
            {
                "pitch": 81,
                "velocity": 5,
                "duration": 0.05,
                "tempo": 120.0
            },
            {
                "pitch": 83,
                "velocity": 5,
                "duration": 0.05,
                "tempo": 120.0
            },
            {
                "pitch": 81,
                "velocity": 5,
                "duration": 1.2341,
                "tempo": 120.0
            },
            {
                "pitch": 0,
                "velocity": 0,
                "duration": 1.0023,
                "tempo": 0
            },
            {
                "pitch": 74,
                "velocity": 5,
                "duration": 0.3341,
                "tempo": 120.0
            },
            {
                "pitch": 76,
                "velocity": 5,
                "duration": 0.0341,
                "tempo": 120.0
            },
            {
                "pitch": 78,
                "velocity": 5,
                "duration": 0.0341,
                "tempo": 120.0
            },
            {
                "pitch": 79,
                "velocity": 5,
                "duration": 0.0318,
                "tempo": 120.0
            },
            {
                "pitch": 81,
                "velocity": 5,
                "duration": 0.0341,
                "tempo": 120.0
            },
            {
                "pitch": 83,
                "velocity": 5,
                "duration": 0.0341,
                "tempo": 120.0
            },
            {
                "pitch": 85,
                "velocity": 5,
                "duration": 1.5114,
                "tempo": 120.0
            },
            {
                "pitch": 83,
                "velocity": 5,
                "duration": 0.1682,
                "tempo": 120.0
            },
            {
                "pitch": 81,
                "velocity": 5,
                "duration": 0.1682,
                "tempo": 120.0
            },
            {
                "pitch": 79,
                "velocity": 5,
                "duration": 0.3341,
                "tempo": 120.0
            },
            {
                "pitch": 0,
                "velocity": 0,
                "duration": 0.0023,
                "tempo": 0
            },
            {
                "pitch": 78,
                "velocity": 5,
                "duration": 0.1659,
                "tempo": 120.0
            },
            {
                "pitch": 76,
                "velocity": 5,
                "duration": 0.1682,
                "tempo": 120.0
            },
            {
                "pitch": 74,
                "velocity": 5,
                "duration": 0.05,
                "tempo": 120.0
            },
            {
                "pitch": 76,
                "velocity": 5,
                "duration": 0.05,
                "tempo": 120.0
            },
            {
                "pitch": 74,
                "velocity": 5,
                "duration": 1.2364,
                "tempo": 120.0
            },
            {
                "pitch": 0,
                "velocity": 0,
                "duration": 17.075,
                "tempo": 0
            },
            {
                "pitch": 74,
                "velocity": 5,
                "duration": 0.3477,
                "tempo": 120.0
            },
            {
                "pitch": 76,
                "velocity": 5,
                "duration": 0.0341,
                "tempo": 120.0
            },
            {
                "pitch": 78,
                "velocity": 5,
                "duration": 0.0341,
                "tempo": 120.0
            },
            {
                "pitch": 79,
                "velocity": 5,
                "duration": 0.0341,
                "tempo": 120.0
            },
            {
                "pitch": 81,
                "velocity": 5,
                "duration": 0.0364,
                "tempo": 120.0
            },
            {
                "pitch": 83,
                "velocity": 5,
                "duration": 0.0341,
                "tempo": 120.0
            },
            {
                "pitch": 88,
                "velocity": 5,
                "duration": 21.45,
                "tempo": 120.0
            },
            {
                "pitch": 85,
                "velocity": 5,
                "duration": 1.4932,
                "tempo": 120.0
            },
            {
                "pitch": 83,
                "velocity": 5,
                "duration": 0.1682,
                "tempo": 120.0
            },
            {
                "pitch": 81,
                "velocity": 5,
                "duration": 0.1682,
                "tempo": 120.0
            },
            {
                "pitch": 79,
                "velocity": 5,
                "duration": 0.3364,
                "tempo": 120.0
            },
            {
                "pitch": 78,
                "velocity": 5,
                "duration": 0.1705,
                "tempo": 120.0
            },
            {
                "pitch": 79,
                "velocity": 5,
                "duration": 0.1682,
                "tempo": 120.0
            },
            {
                "pitch": 81,
                "velocity": 5,
                "duration": 0.0523,
                "tempo": 120.0
            },
            {
                "pitch": 83,
                "velocity": 5,
                "duration": 0.05,
                "tempo": 120.0
            },
            {
                "pitch": 81,
                "velocity": 5,
                "duration": 1.2227,
                "tempo": 120.0
            },
            {
                "pitch": 0,
                "velocity": 0,
                "duration": 1.0091,
                "tempo": 0
            },
            {
                "pitch": 74,
                "velocity": 5,
                "duration": 0.3386,
                "tempo": 120.0
            },
            {
                "pitch": 76,
                "velocity": 5,
                "duration": 0.0341,
                "tempo": 120.0
            },
            {
                "pitch": 78,
                "velocity": 5,
                "duration": 0.0341,
                "tempo": 120.0
            },
            {
                "pitch": 79,
                "velocity": 5,
                "duration": 0.0341,
                "tempo": 120.0
            },
            {
                "pitch": 81,
                "velocity": 5,
                "duration": 0.0341,
                "tempo": 120.0
            },
            {
                "pitch": 83,
                "velocity": 5,
                "duration": 0.0341,
                "tempo": 120.0
            },
            {
                "pitch": 88,
                "velocity": 5,
                "duration": 5.3477,
                "tempo": 120.0
            },
            {
                "pitch": 85,
                "velocity": 5,
                "duration": 1.4886,
                "tempo": 120.0
            },
            {
                "pitch": 0,
                "velocity": 0,
                "duration": 0.0023,
                "tempo": 0
            },
            {
                "pitch": 83,
                "velocity": 5,
                "duration": 0.1659,
                "tempo": 120.0
            },
            {
                "pitch": 81,
                "velocity": 5,
                "duration": 0.1682,
                "tempo": 120.0
            },
            {
                "pitch": 79,
                "velocity": 5,
                "duration": 0.3364,
                "tempo": 120.0
            },
            {
                "pitch": 78,
                "velocity": 5,
                "duration": 0.1705,
                "tempo": 120.0
            },
            {
                "pitch": 76,
                "velocity": 5,
                "duration": 0.1682,
                "tempo": 120.0
            },
            {
                "pitch": 0,
                "velocity": 0,
                "duration": 0.0023,
                "tempo": 0
            },
            {
                "pitch": 74,
                "velocity": 5,
                "duration": 0.05,
                "tempo": 120.0
            },
            {
                "pitch": 76,
                "velocity": 5,
                "duration": 0.05,
                "tempo": 120.0
            },
            {
                "pitch": 74,
                "velocity": 5,
                "duration": 1.2227,
                "tempo": 120.0
            },
            {
                "pitch": 0,
                "velocity": 0,
                "duration": 17.0818,
                "tempo": 0
            },
            {
                "pitch": 74,
                "velocity": 5,
                "duration": 0.3364,
                "tempo": 120.0
            },
            {
                "pitch": 76,
                "velocity": 5,
                "duration": 0.0341,
                "tempo": 120.0
            },
            {
                "pitch": 78,
                "velocity": 5,
                "duration": 0.0318,
                "tempo": 120.0
            },
            {
                "pitch": 79,
                "velocity": 5,
                "duration": 0.0341,
                "tempo": 120.0
            },
            {
                "pitch": 81,
                "velocity": 5,
                "duration": 0.0341,
                "tempo": 120.0
            },
            {
                "pitch": 83,
                "velocity": 5,
                "duration": 0.0341,
                "tempo": 120.0
            },
            {
                "pitch": 88,
                "velocity": 5,
                "duration": 21.4114,
                "tempo": 120.0
            },
            {
                "pitch": 85,
                "velocity": 5,
                "duration": 1.5023,
                "tempo": 120.0
            },
            {
                "pitch": 83,
                "velocity": 5,
                "duration": 0.1682,
                "tempo": 120.0
            },
            {
                "pitch": 81,
                "velocity": 5,
                "duration": 0.1682,
                "tempo": 120.0
            },
            {
                "pitch": 79,
                "velocity": 5,
                "duration": 0.3364,
                "tempo": 120.0
            },
            {
                "pitch": 78,
                "velocity": 5,
                "duration": 0.1659,
                "tempo": 120.0
            },
            {
                "pitch": 0,
                "velocity": 0,
                "duration": 0.0023,
                "tempo": 0
            },
            {
                "pitch": 79,
                "velocity": 5,
                "duration": 0.1659,
                "tempo": 120.0
            },
            {
                "pitch": 0,
                "velocity": 0,
                "duration": 0.0023,
                "tempo": 0
            },
            {
                "pitch": 81,
                "velocity": 5,
                "duration": 0.05,
                "tempo": 120.0
            },
            {
                "pitch": 83,
                "velocity": 5,
                "duration": 0.05,
                "tempo": 120.0
            },
            {
                "pitch": 81,
                "velocity": 5,
                "duration": 1.2386,
                "tempo": 120.0
            },
            {
                "pitch": 0,
                "velocity": 0,
                "duration": 1.0045,
                "tempo": 0
            },
            {
                "pitch": 74,
                "velocity": 5,
                "duration": 0.3341,
                "tempo": 120.0
            },
            {
                "pitch": 76,
                "velocity": 5,
                "duration": 0.0341,
                "tempo": 120.0
            },
            {
                "pitch": 78,
                "velocity": 5,
                "duration": 0.0341,
                "tempo": 120.0
            },
            {
                "pitch": 79,
                "velocity": 5,
                "duration": 0.0341,
                "tempo": 120.0
            },
            {
                "pitch": 81,
                "velocity": 5,
                "duration": 0.0318,
                "tempo": 120.0
            },
            {
                "pitch": 83,
                "velocity": 5,
                "duration": 0.0341,
                "tempo": 120.0
            },
            {
                "pitch": 88,
                "velocity": 5,
                "duration": 5.3568,
                "tempo": 120.0
            },
            {
                "pitch": 85,
                "velocity": 5,
                "duration": 1.5045,
                "tempo": 120.0
            },
            {
                "pitch": 83,
                "velocity": 5,
                "duration": 0.1659,
                "tempo": 120.0
            },
            {
                "pitch": 0,
                "velocity": 0,
                "duration": 0.0023,
                "tempo": 0
            },
            {
                "pitch": 81,
                "velocity": 5,
                "duration": 0.1659,
                "tempo": 120.0
            },
            {
                "pitch": 79,
                "velocity": 5,
                "duration": 0.3364,
                "tempo": 120.0
            },
            {
                "pitch": 78,
                "velocity": 5,
                "duration": 0.1682,
                "tempo": 120.0
            },
            {
                "pitch": 76,
                "velocity": 5,
                "duration": 0.1682,
                "tempo": 120.0
            },
            {
                "pitch": 74,
                "velocity": 5,
                "duration": 0.05,
                "tempo": 120.0
            },
            {
                "pitch": 76,
                "velocity": 5,
                "duration": 0.05,
                "tempo": 120.0
            },
            {
                "pitch": 74,
                "velocity": 5,
                "duration": 1.2386,
                "tempo": 120.0
            },
            {
                "pitch": 0,
                "velocity": 0,
                "duration": 17.0795,
                "tempo": 0
            },
            {
                "pitch": 74,
                "velocity": 5,
                "duration": 0.3386,
                "tempo": 120.0
            },
            {
                "pitch": 76,
                "velocity": 5,
                "duration": 0.0341,
                "tempo": 120.0
            },
            {
                "pitch": 78,
                "velocity": 5,
                "duration": 0.0341,
                "tempo": 120.0
            },
            {
                "pitch": 79,
                "velocity": 5,
                "duration": 0.0341,
                "tempo": 120.0
            },
            {
                "pitch": 81,
                "velocity": 5,
                "duration": 0.0318,
                "tempo": 120.0
            },
            {
                "pitch": 83,
                "velocity": 5,
                "duration": 0.0341,
                "tempo": 120.0
            },
            {
                "pitch": 88,
                "velocity": 5,
                "duration": 21.4364,
                "tempo": 120.0
            },
            {
                "pitch": 85,
                "velocity": 5,
                "duration": 1.4977,
                "tempo": 120.0
            },
            {
                "pitch": 0,
                "velocity": 0,
                "duration": 0.0023,
                "tempo": 0
            },
            {
                "pitch": 83,
                "velocity": 5,
                "duration": 0.1659,
                "tempo": 120.0
            },
            {
                "pitch": 0,
                "velocity": 0,
                "duration": 0.0023,
                "tempo": 0
            },
            {
                "pitch": 81,
                "velocity": 5,
                "duration": 0.1659,
                "tempo": 120.0
            },
            {
                "pitch": 79,
                "velocity": 5,
                "duration": 0.3364,
                "tempo": 120.0
            },
            {
                "pitch": 78,
                "velocity": 5,
                "duration": 0.1705,
                "tempo": 120.0
            },
            {
                "pitch": 79,
                "velocity": 5,
                "duration": 0.1682,
                "tempo": 120.0
            },
            {
                "pitch": 0,
                "velocity": 0,
                "duration": 0.0023,
                "tempo": 0
            },
            {
                "pitch": 81,
                "velocity": 5,
                "duration": 0.05,
                "tempo": 120.0
            },
            {
                "pitch": 83,
                "velocity": 5,
                "duration": 0.05,
                "tempo": 120.0
            },
            {
                "pitch": 81,
                "velocity": 5,
                "duration": 1.2341,
                "tempo": 120.0
            },
            {
                "pitch": 0,
                "velocity": 0,
                "duration": 1.0045,
                "tempo": 0
            },
            {
                "pitch": 74,
                "velocity": 5,
                "duration": 0.3386,
                "tempo": 120.0
            },
            {
                "pitch": 76,
                "velocity": 5,
                "duration": 0.0341,
                "tempo": 120.0
            },
            {
                "pitch": 78,
                "velocity": 5,
                "duration": 0.0341,
                "tempo": 120.0
            },
            {
                "pitch": 79,
                "velocity": 5,
                "duration": 0.0341,
                "tempo": 120.0
            },
            {
                "pitch": 81,
                "velocity": 5,
                "duration": 0.0341,
                "tempo": 120.0
            },
            {
                "pitch": 83,
                "velocity": 5,
                "duration": 0.0341,
                "tempo": 120.0
            },
            {
                "pitch": 88,
                "velocity": 5,
                "duration": 5.3591,
                "tempo": 120.0
            },
            {
                "pitch": 85,
                "velocity": 5,
                "duration": 1.4977,
                "tempo": 120.0
            },
            {
                "pitch": 83,
                "velocity": 5,
                "duration": 0.1682,
                "tempo": 120.0
            },
            {
                "pitch": 81,
                "velocity": 5,
                "duration": 0.1682,
                "tempo": 120.0
            },
            {
                "pitch": 79,
                "velocity": 5,
                "duration": 0.3364,
                "tempo": 120.0
            },
            {
                "pitch": 78,
                "velocity": 5,
                "duration": 0.1682,
                "tempo": 120.0
            },
            {
                "pitch": 0,
                "velocity": 0,
                "duration": 0.0023,
                "tempo": 0
            },
            {
                "pitch": 76,
                "velocity": 5,
                "duration": 0.1682,
                "tempo": 120.0
            },
            {
                "pitch": 74,
                "velocity": 5,
                "duration": 0.0523,
                "tempo": 120.0
            },
            {
                "pitch": 76,
                "velocity": 5,
                "duration": 0.05,
                "tempo": 120.0
            },
            {
                "pitch": 74,
                "velocity": 5,
                "duration": 1.2341,
                "tempo": 120.0
            }
        ],
        "Synth Bass 1": [
            {
                "pitch": 0,
                "velocity": 0,
                "duration": 16.075,
                "tempo": 0
            },
            {
                "pitch": 76,
                "velocity": 1,
                "duration": 0.1659,
                "tempo": 120.0
            },
            {
                "pitch": 75,
                "velocity": 1,
                "duration": 0.1682,
                "tempo": 120.0
            },
            {
                "pitch": 76,
                "velocity": 1,
                "duration": 0.1682,
                "tempo": 120.0
            },
            {
                "pitch": 75,
                "velocity": 1,
                "duration": 0.1682,
                "tempo": 120.0
            },
            {
                "pitch": 79,
                "velocity": 1,
                "duration": 0.1159,
                "tempo": 120.0
            },
            {
                "pitch": 79,
                "velocity": 1,
                "duration": 0.05,
                "tempo": 120.0
            },
            {
                "pitch": 0,
                "velocity": 0,
                "duration": 0.0023,
                "tempo": 0
            },
            {
                "pitch": 78,
                "velocity": 1,
                "duration": 0.1682,
                "tempo": 120.0
            },
            {
                "pitch": 79,
                "velocity": 1,
                "duration": 0.1159,
                "tempo": 120.0
            },
            {
                "pitch": 91,
                "velocity": 1,
                "duration": 0.3364,
                "tempo": 120.0
            },
            {
                "pitch": 79,
                "velocity": 1,
                "duration": 0.05,
                "tempo": 120.0
            },
            {
                "pitch": 80,
                "velocity": 1,
                "duration": 0.1682,
                "tempo": 120.0
            },
            {
                "pitch": 0,
                "velocity": 0,
                "duration": 0.3364,
                "tempo": 0
            },
            {
                "pitch": 81,
                "velocity": 1,
                "duration": 0.3364,
                "tempo": 120.0
            },
            {
                "pitch": 0,
                "velocity": 0,
                "duration": 0.3364,
                "tempo": 0
            },
            {
                "pitch": 81,
                "velocity": 1,
                "duration": 0.3341,
                "tempo": 120.0
            },
            {
                "pitch": 0,
                "velocity": 0,
                "duration": 0.0023,
                "tempo": 0
            },
            {
                "pitch": 76,
                "velocity": 1,
                "duration": 0.1636,
                "tempo": 120.0
            },
            {
                "pitch": 75,
                "velocity": 1,
                "duration": 0.1682,
                "tempo": 120.0
            },
            {
                "pitch": 76,
                "velocity": 1,
                "duration": 0.1636,
                "tempo": 120.0
            },
            {
                "pitch": 78,
                "velocity": 1,
                "duration": 0.1659,
                "tempo": 120.0
            },
            {
                "pitch": 0,
                "velocity": 0,
                "duration": 0.0023,
                "tempo": 0
            },
            {
                "pitch": 80,
                "velocity": 1,
                "duration": 0.6705,
                "tempo": 120.0
            },
            {
                "pitch": 68,
                "velocity": 1,
                "duration": 0.0841,
                "tempo": 120.0
            },
            {
                "pitch": 0,
                "velocity": 0,
                "duration": 0.2523,
                "tempo": 0
            },
            {
                "pitch": 80,
                "velocity": 1,
                "duration": 0.0818,
                "tempo": 120.0
            },
            {
                "pitch": 0,
                "velocity": 0,
                "duration": 0.9182,
                "tempo": 0
            },
            {
                "pitch": 76,
                "velocity": 1,
                "duration": 0.1659,
                "tempo": 120.0
            },
            {
                "pitch": 0,
                "velocity": 0,
                "duration": 0.0023,
                "tempo": 0
            },
            {
                "pitch": 75,
                "velocity": 1,
                "duration": 0.1682,
                "tempo": 120.0
            },
            {
                "pitch": 76,
                "velocity": 1,
                "duration": 0.1659,
                "tempo": 120.0
            },
            {
                "pitch": 75,
                "velocity": 1,
                "duration": 0.1682,
                "tempo": 120.0
            },
            {
                "pitch": 79,
                "velocity": 1,
                "duration": 0.1182,
                "tempo": 120.0
            },
            {
                "pitch": 91,
                "velocity": 1,
                "duration": 5.0227,
                "tempo": 120.0
            },
            {
                "pitch": 79,
                "velocity": 1,
                "duration": 0.05,
                "tempo": 120.0
            },
            {
                "pitch": 78,
                "velocity": 1,
                "duration": 0.1682,
                "tempo": 120.0
            },
            {
                "pitch": 79,
                "velocity": 1,
                "duration": 0.1159,
                "tempo": 120.0
            },
            {
                "pitch": 91,
                "velocity": 1,
                "duration": 0.3341,
                "tempo": 120.0
            },
            {
                "pitch": 79,
                "velocity": 1,
                "duration": 0.0523,
                "tempo": 120.0
            },
            {
                "pitch": 80,
                "velocity": 1,
                "duration": 0.1682,
                "tempo": 120.0
            },
            {
                "pitch": 68,
                "velocity": 1,
                "duration": 0.0818,
                "tempo": 120.0
            },
            {
                "pitch": 0,
                "velocity": 0,
                "duration": 0.5909,
                "tempo": 0
            },
            {
                "pitch": 80,
                "velocity": 1,
                "duration": 0.0818,
                "tempo": 120.0
            },
            {
                "pitch": 0,
                "velocity": 0,
                "duration": 0.5818,
                "tempo": 0
            },
            {
                "pitch": 68,
                "velocity": 1,
                "duration": 0.0841,
                "tempo": 120.0
            },
            {
                "pitch": 0,
                "velocity": 0,
                "duration": 0.5955,
                "tempo": 0
            },
            {
                "pitch": 80,
                "velocity": 1,
                "duration": 0.0818,
                "tempo": 120.0
            },
            {
                "pitch": 0,
                "velocity": 0,
                "duration": 0.5818,
                "tempo": 0
            },
            {
                "pitch": 68,
                "velocity": 1,
                "duration": 0.0818,
                "tempo": 120.0
            },
            {
                "pitch": 0,
                "velocity": 0,
                "duration": 0.5818,
                "tempo": 0
            },
            {
                "pitch": 80,
                "velocity": 1,
                "duration": 0.0841,
                "tempo": 120.0
            },
            {
                "pitch": 0,
                "velocity": 0,
                "duration": 16.65,
                "tempo": 0
            },
            {
                "pitch": 76,
                "velocity": 1,
                "duration": 0.1659,
                "tempo": 120.0
            },
            {
                "pitch": 75,
                "velocity": 1,
                "duration": 0.1682,
                "tempo": 120.0
            },
            {
                "pitch": 76,
                "velocity": 1,
                "duration": 0.1659,
                "tempo": 120.0
            },
            {
                "pitch": 0,
                "velocity": 0,
                "duration": 0.0023,
                "tempo": 0
            },
            {
                "pitch": 75,
                "velocity": 1,
                "duration": 0.1682,
                "tempo": 120.0
            },
            {
                "pitch": 79,
                "velocity": 1,
                "duration": 0.1136,
                "tempo": 120.0
            },
            {
                "pitch": 91,
                "velocity": 1,
                "duration": 21.0818,
                "tempo": 120.0
            },
            {
                "pitch": 79,
                "velocity": 1,
                "duration": 0.05,
                "tempo": 120.0
            },
            {
                "pitch": 0,
                "velocity": 0,
                "duration": 0.0023,
                "tempo": 0
            },
            {
                "pitch": 78,
                "velocity": 1,
                "duration": 0.1659,
                "tempo": 120.0
            },
            {
                "pitch": 79,
                "velocity": 1,
                "duration": 0.1159,
                "tempo": 120.0
            },
            {
                "pitch": 91,
                "velocity": 1,
                "duration": 0.3341,
                "tempo": 120.0
            },
            {
                "pitch": 79,
                "velocity": 1,
                "duration": 0.05,
                "tempo": 120.0
            },
            {
                "pitch": 80,
                "velocity": 1,
                "duration": 0.1659,
                "tempo": 120.0
            },
            {
                "pitch": 0,
                "velocity": 0,
                "duration": 0.3364,
                "tempo": 0
            },
            {
                "pitch": 81,
                "velocity": 1,
                "duration": 0.3341,
                "tempo": 120.0
            },
            {
                "pitch": 0,
                "velocity": 0,
                "duration": 0.3364,
                "tempo": 0
            },
            {
                "pitch": 81,
                "velocity": 1,
                "duration": 0.3364,
                "tempo": 120.0
            },
            {
                "pitch": 76,
                "velocity": 1,
                "duration": 0.1659,
                "tempo": 120.0
            },
            {
                "pitch": 0,
                "velocity": 0,
                "duration": 0.0023,
                "tempo": 0
            },
            {
                "pitch": 75,
                "velocity": 1,
                "duration": 0.1682,
                "tempo": 120.0
            },
            {
                "pitch": 76,
                "velocity": 1,
                "duration": 0.1659,
                "tempo": 120.0
            },
            {
                "pitch": 78,
                "velocity": 1,
                "duration": 0.1682,
                "tempo": 120.0
            },
            {
                "pitch": 0,
                "velocity": 0,
                "duration": 0.0023,
                "tempo": 0
            },
            {
                "pitch": 80,
                "velocity": 1,
                "duration": 0.6636,
                "tempo": 120.0
            },
            {
                "pitch": 68,
                "velocity": 1,
                "duration": 0.0818,
                "tempo": 120.0
            },
            {
                "pitch": 0,
                "velocity": 0,
                "duration": 0.2545,
                "tempo": 0
            },
            {
                "pitch": 80,
                "velocity": 1,
                "duration": 0.0818,
                "tempo": 120.0
            },
            {
                "pitch": 0,
                "velocity": 0,
                "duration": 0.925,
                "tempo": 0
            },
            {
                "pitch": 76,
                "velocity": 1,
                "duration": 0.1659,
                "tempo": 120.0
            },
            {
                "pitch": 75,
                "velocity": 1,
                "duration": 0.1682,
                "tempo": 120.0
            },
            {
                "pitch": 0,
                "velocity": 0,
                "duration": 0.0023,
                "tempo": 0
            },
            {
                "pitch": 76,
                "velocity": 1,
                "duration": 0.1659,
                "tempo": 120.0
            },
            {
                "pitch": 75,
                "velocity": 1,
                "duration": 0.1682,
                "tempo": 120.0
            },
            {
                "pitch": 79,
                "velocity": 1,
                "duration": 0.1159,
                "tempo": 120.0
            },
            {
                "pitch": 91,
                "velocity": 1,
                "duration": 5.025,
                "tempo": 120.0
            },
            {
                "pitch": 79,
                "velocity": 1,
                "duration": 0.05,
                "tempo": 120.0
            },
            {
                "pitch": 78,
                "velocity": 1,
                "duration": 0.1659,
                "tempo": 120.0
            },
            {
                "pitch": 0,
                "velocity": 0,
                "duration": 0.0023,
                "tempo": 0
            },
            {
                "pitch": 79,
                "velocity": 1,
                "duration": 0.1136,
                "tempo": 120.0
            },
            {
                "pitch": 91,
                "velocity": 1,
                "duration": 0.3318,
                "tempo": 120.0
            },
            {
                "pitch": 79,
                "velocity": 1,
                "duration": 0.05,
                "tempo": 120.0
            },
            {
                "pitch": 80,
                "velocity": 1,
                "duration": 0.1682,
                "tempo": 120.0
            },
            {
                "pitch": 68,
                "velocity": 1,
                "duration": 0.0818,
                "tempo": 120.0
            },
            {
                "pitch": 0,
                "velocity": 0,
                "duration": 0.5886,
                "tempo": 0
            },
            {
                "pitch": 80,
                "velocity": 1,
                "duration": 0.0818,
                "tempo": 120.0
            },
            {
                "pitch": 0,
                "velocity": 0,
                "duration": 0.5909,
                "tempo": 0
            },
            {
                "pitch": 68,
                "velocity": 1,
                "duration": 0.0818,
                "tempo": 120.0
            },
            {
                "pitch": 0,
                "velocity": 0,
                "duration": 0.5886,
                "tempo": 0
            },
            {
                "pitch": 80,
                "velocity": 1,
                "duration": 0.0818,
                "tempo": 120.0
            },
            {
                "pitch": 0,
                "velocity": 0,
                "duration": 0.5818,
                "tempo": 0
            },
            {
                "pitch": 68,
                "velocity": 1,
                "duration": 0.0841,
                "tempo": 120.0
            },
            {
                "pitch": 0,
                "velocity": 0,
                "duration": 0.5886,
                "tempo": 0
            },
            {
                "pitch": 80,
                "velocity": 1,
                "duration": 0.0818,
                "tempo": 120.0
            },
            {
                "pitch": 0,
                "velocity": 0,
                "duration": 16.6636,
                "tempo": 0
            },
            {
                "pitch": 76,
                "velocity": 1,
                "duration": 0.1659,
                "tempo": 120.0
            },
            {
                "pitch": 75,
                "velocity": 1,
                "duration": 0.1682,
                "tempo": 120.0
            },
            {
                "pitch": 76,
                "velocity": 1,
                "duration": 0.1682,
                "tempo": 120.0
            },
            {
                "pitch": 75,
                "velocity": 1,
                "duration": 0.1682,
                "tempo": 120.0
            },
            {
                "pitch": 79,
                "velocity": 1,
                "duration": 0.1159,
                "tempo": 120.0
            },
            {
                "pitch": 91,
                "velocity": 1,
                "duration": 21.1,
                "tempo": 120.0
            },
            {
                "pitch": 79,
                "velocity": 1,
                "duration": 0.05,
                "tempo": 120.0
            },
            {
                "pitch": 0,
                "velocity": 0,
                "duration": 0.0023,
                "tempo": 0
            },
            {
                "pitch": 78,
                "velocity": 1,
                "duration": 0.1682,
                "tempo": 120.0
            },
            {
                "pitch": 79,
                "velocity": 1,
                "duration": 0.1159,
                "tempo": 120.0
            },
            {
                "pitch": 91,
                "velocity": 1,
                "duration": 0.3364,
                "tempo": 120.0
            },
            {
                "pitch": 79,
                "velocity": 1,
                "duration": 0.05,
                "tempo": 120.0
            },
            {
                "pitch": 80,
                "velocity": 1,
                "duration": 0.1705,
                "tempo": 120.0
            },
            {
                "pitch": 0,
                "velocity": 0,
                "duration": 0.3318,
                "tempo": 0
            },
            {
                "pitch": 81,
                "velocity": 1,
                "duration": 0.3318,
                "tempo": 120.0
            },
            {
                "pitch": 0,
                "velocity": 0,
                "duration": 0.3341,
                "tempo": 0
            },
            {
                "pitch": 81,
                "velocity": 1,
                "duration": 0.3364,
                "tempo": 120.0
            },
            {
                "pitch": 76,
                "velocity": 1,
                "duration": 0.1682,
                "tempo": 120.0
            },
            {
                "pitch": 75,
                "velocity": 1,
                "duration": 0.1682,
                "tempo": 120.0
            },
            {
                "pitch": 76,
                "velocity": 1,
                "duration": 0.1659,
                "tempo": 120.0
            },
            {
                "pitch": 0,
                "velocity": 0,
                "duration": 0.0023,
                "tempo": 0
            },
            {
                "pitch": 78,
                "velocity": 1,
                "duration": 0.1682,
                "tempo": 120.0
            },
            {
                "pitch": 80,
                "velocity": 1,
                "duration": 0.6705,
                "tempo": 120.0
            },
            {
                "pitch": 0,
                "velocity": 0,
                "duration": 0.0023,
                "tempo": 0
            },
            {
                "pitch": 68,
                "velocity": 1,
                "duration": 0.0795,
                "tempo": 120.0
            },
            {
                "pitch": 0,
                "velocity": 0,
                "duration": 0.2523,
                "tempo": 0
            },
            {
                "pitch": 80,
                "velocity": 1,
                "duration": 0.0795,
                "tempo": 120.0
            },
            {
                "pitch": 0,
                "velocity": 0,
                "duration": 0.9227,
                "tempo": 0
            },
            {
                "pitch": 76,
                "velocity": 1,
                "duration": 0.1659,
                "tempo": 120.0
            },
            {
                "pitch": 0,
                "velocity": 0,
                "duration": 0.0023,
                "tempo": 0
            },
            {
                "pitch": 75,
                "velocity": 1,
                "duration": 0.1682,
                "tempo": 120.0
            },
            {
                "pitch": 76,
                "velocity": 1,
                "duration": 0.1659,
                "tempo": 120.0
            },
            {
                "pitch": 75,
                "velocity": 1,
                "duration": 0.1682,
                "tempo": 120.0
            },
            {
                "pitch": 0,
                "velocity": 0,
                "duration": 0.0023,
                "tempo": 0
            },
            {
                "pitch": 79,
                "velocity": 1,
                "duration": 0.1159,
                "tempo": 120.0
            },
            {
                "pitch": 91,
                "velocity": 1,
                "duration": 5.0227,
                "tempo": 120.0
            },
            {
                "pitch": 79,
                "velocity": 1,
                "duration": 0.05,
                "tempo": 120.0
            },
            {
                "pitch": 78,
                "velocity": 1,
                "duration": 0.1682,
                "tempo": 120.0
            },
            {
                "pitch": 79,
                "velocity": 1,
                "duration": 0.1159,
                "tempo": 120.0
            },
            {
                "pitch": 91,
                "velocity": 1,
                "duration": 0.3341,
                "tempo": 120.0
            },
            {
                "pitch": 79,
                "velocity": 1,
                "duration": 0.0523,
                "tempo": 120.0
            },
            {
                "pitch": 80,
                "velocity": 1,
                "duration": 0.1682,
                "tempo": 120.0
            },
            {
                "pitch": 68,
                "velocity": 1,
                "duration": 0.0818,
                "tempo": 120.0
            },
            {
                "pitch": 0,
                "velocity": 0,
                "duration": 0.5818,
                "tempo": 0
            },
            {
                "pitch": 80,
                "velocity": 1,
                "duration": 0.0841,
                "tempo": 120.0
            },
            {
                "pitch": 0,
                "velocity": 0,
                "duration": 0.5886,
                "tempo": 0
            },
            {
                "pitch": 68,
                "velocity": 1,
                "duration": 0.0818,
                "tempo": 120.0
            },
            {
                "pitch": 0,
                "velocity": 0,
                "duration": 0.5886,
                "tempo": 0
            },
            {
                "pitch": 80,
                "velocity": 1,
                "duration": 0.0841,
                "tempo": 120.0
            },
            {
                "pitch": 0,
                "velocity": 0,
                "duration": 0.5886,
                "tempo": 0
            },
            {
                "pitch": 68,
                "velocity": 1,
                "duration": 0.0818,
                "tempo": 120.0
            },
            {
                "pitch": 0,
                "velocity": 0,
                "duration": 0.5818,
                "tempo": 0
            },
            {
                "pitch": 80,
                "velocity": 1,
                "duration": 0.0818,
                "tempo": 120.0
            },
            {
                "pitch": 0,
                "velocity": 0,
                "duration": 16.6659,
                "tempo": 0
            },
            {
                "pitch": 76,
                "velocity": 1,
                "duration": 0.1659,
                "tempo": 120.0
            },
            {
                "pitch": 75,
                "velocity": 1,
                "duration": 0.1705,
                "tempo": 120.0
            },
            {
                "pitch": 0,
                "velocity": 0,
                "duration": 0.0023,
                "tempo": 0
            },
            {
                "pitch": 76,
                "velocity": 1,
                "duration": 0.1682,
                "tempo": 120.0
            },
            {
                "pitch": 75,
                "velocity": 1,
                "duration": 0.1705,
                "tempo": 120.0
            },
            {
                "pitch": 79,
                "velocity": 1,
                "duration": 0.1159,
                "tempo": 120.0
            },
            {
                "pitch": 91,
                "velocity": 1,
                "duration": 21.1045,
                "tempo": 120.0
            },
            {
                "pitch": 79,
                "velocity": 1,
                "duration": 0.05,
                "tempo": 120.0
            },
            {
                "pitch": 78,
                "velocity": 1,
                "duration": 0.1659,
                "tempo": 120.0
            },
            {
                "pitch": 79,
                "velocity": 1,
                "duration": 0.1159,
                "tempo": 120.0
            },
            {
                "pitch": 91,
                "velocity": 1,
                "duration": 0.3318,
                "tempo": 120.0
            },
            {
                "pitch": 79,
                "velocity": 1,
                "duration": 0.05,
                "tempo": 120.0
            },
            {
                "pitch": 80,
                "velocity": 1,
                "duration": 0.1659,
                "tempo": 120.0
            },
            {
                "pitch": 0,
                "velocity": 0,
                "duration": 0.3318,
                "tempo": 0
            },
            {
                "pitch": 81,
                "velocity": 1,
                "duration": 0.3318,
                "tempo": 120.0
            },
            {
                "pitch": 0,
                "velocity": 0,
                "duration": 0.3364,
                "tempo": 0
            },
            {
                "pitch": 81,
                "velocity": 1,
                "duration": 0.3364,
                "tempo": 120.0
            },
            {
                "pitch": 76,
                "velocity": 1,
                "duration": 0.1659,
                "tempo": 120.0
            },
            {
                "pitch": 0,
                "velocity": 0,
                "duration": 0.0023,
                "tempo": 0
            },
            {
                "pitch": 75,
                "velocity": 1,
                "duration": 0.1682,
                "tempo": 120.0
            },
            {
                "pitch": 76,
                "velocity": 1,
                "duration": 0.1659,
                "tempo": 120.0
            },
            {
                "pitch": 78,
                "velocity": 1,
                "duration": 0.1682,
                "tempo": 120.0
            },
            {
                "pitch": 80,
                "velocity": 1,
                "duration": 0.6727,
                "tempo": 120.0
            },
            {
                "pitch": 68,
                "velocity": 1,
                "duration": 0.0818,
                "tempo": 120.0
            },
            {
                "pitch": 0,
                "velocity": 0,
                "duration": 0.25,
                "tempo": 0
            },
            {
                "pitch": 80,
                "velocity": 1,
                "duration": 0.0818,
                "tempo": 120.0
            },
            {
                "pitch": 0,
                "velocity": 0,
                "duration": 0.9227,
                "tempo": 0
            },
            {
                "pitch": 76,
                "velocity": 1,
                "duration": 0.1659,
                "tempo": 120.0
            },
            {
                "pitch": 75,
                "velocity": 1,
                "duration": 0.1682,
                "tempo": 120.0
            },
            {
                "pitch": 76,
                "velocity": 1,
                "duration": 0.1682,
                "tempo": 120.0
            },
            {
                "pitch": 75,
                "velocity": 1,
                "duration": 0.1682,
                "tempo": 120.0
            },
            {
                "pitch": 79,
                "velocity": 1,
                "duration": 0.1159,
                "tempo": 120.0
            },
            {
                "pitch": 91,
                "velocity": 1,
                "duration": 5.0182,
                "tempo": 120.0
            },
            {
                "pitch": 79,
                "velocity": 1,
                "duration": 0.0523,
                "tempo": 120.0
            },
            {
                "pitch": 78,
                "velocity": 1,
                "duration": 0.1682,
                "tempo": 120.0
            },
            {
                "pitch": 79,
                "velocity": 1,
                "duration": 0.1159,
                "tempo": 120.0
            },
            {
                "pitch": 91,
                "velocity": 1,
                "duration": 0.3364,
                "tempo": 120.0
            },
            {
                "pitch": 79,
                "velocity": 1,
                "duration": 0.05,
                "tempo": 120.0
            },
            {
                "pitch": 80,
                "velocity": 1,
                "duration": 0.1705,
                "tempo": 120.0
            },
            {
                "pitch": 68,
                "velocity": 1,
                "duration": 0.0818,
                "tempo": 120.0
            },
            {
                "pitch": 0,
                "velocity": 0,
                "duration": 0.5818,
                "tempo": 0
            },
            {
                "pitch": 80,
                "velocity": 1,
                "duration": 0.0818,
                "tempo": 120.0
            },
            {
                "pitch": 0,
                "velocity": 0,
                "duration": 0.5909,
                "tempo": 0
            },
            {
                "pitch": 68,
                "velocity": 1,
                "duration": 0.0818,
                "tempo": 120.0
            },
            {
                "pitch": 0,
                "velocity": 0,
                "duration": 0.5886,
                "tempo": 0
            },
            {
                "pitch": 80,
                "velocity": 1,
                "duration": 0.0818,
                "tempo": 120.0
            },
            {
                "pitch": 0,
                "velocity": 0,
                "duration": 0.5886,
                "tempo": 0
            },
            {
                "pitch": 68,
                "velocity": 1,
                "duration": 0.0818,
                "tempo": 120.0
            },
            {
                "pitch": 0,
                "velocity": 0,
                "duration": 0.5841,
                "tempo": 0
            },
            {
                "pitch": 80,
                "velocity": 1,
                "duration": 0.0818,
                "tempo": 120.0
            }
        ],
        "Acoustic Grand Piano": [
            {
                "pitch": 0,
                "velocity": 0,
                "duration": 106.8182,
                "tempo": 0
            },
            {
                "pitch": 108,
                "velocity": 15,
                "duration": 0.1,
                "tempo": 120.0
            }
        ]
    }
}