{
    "track_id": "09 Change 3_3",
    "mood": "relaxed",
    "instruments": {
        "Lead 1 (square)": [
            {
                "pitch": 67,
                "velocity": 8,
                "duration": 0.0614,
                "tempo": 120.0
            },
            {
                "pitch": 69,
                "velocity": 8,
                "duration": 0.5568,
                "tempo": 120.0
            },
            {
                "pitch": 69,
                "velocity": 8,
                "duration": 0.2045,
                "tempo": 120.0
            },
            {
                "pitch": 69,
                "velocity": 8,
                "duration": 0.2045,
                "tempo": 120.0
            },
            {
                "pitch": 66,
                "velocity": 8,
                "duration": 0.2045,
                "tempo": 120.0
            },
            {
                "pitch": 69,
                "velocity": 8,
                "duration": 0.6,
                "tempo": 120.0
            },
            {
                "pitch": 69,
                "velocity": 8,
                "duration": 0.2023,
                "tempo": 120.0
            },
            {
                "pitch": 69,
                "velocity": 8,
                "duration": 0.0659,
                "tempo": 120.0
            },
            {
                "pitch": 71,
                "velocity": 8,
                "duration": 0.1364,
                "tempo": 120.0
            },
            {
                "pitch": 73,
                "velocity": 8,
                "duration": 0.2023,
                "tempo": 120.0
            },
            {
                "pitch": 73,
                "velocity": 8,
                "duration": 0.3045,
                "tempo": 120.0
            },
            {
                "pitch": 66,
                "velocity": 8,
                "duration": 0.3023,
                "tempo": 120.0
            },
            {
                "pitch": 78,
                "velocity": 8,
                "duration": 1.8136,
                "tempo": 120.0
            },
            {
                "pitch": 68,
                "velocity": 8,
                "duration": 0.2,
                "tempo": 120.0
            },
            {
                "pitch": 68,
                "velocity": 8,
                "duration": 0.2,
                "tempo": 120.0
            },
            {
                "pitch": 69,
                "velocity": 8,
                "duration": 0.0659,
                "tempo": 120.0
            },
            {
                "pitch": 71,
                "velocity": 8,
                "duration": 1.4114,
                "tempo": 120.0
            },
            {
                "pitch": 71,
                "velocity": 8,
                "duration": 0.1364,
                "tempo": 120.0
            }
        ],
        "Lead 2 (sawtooth)": [
            {
                "pitch": 45,
                "velocity": 7,
                "duration": 0.3136,
                "tempo": 120.0
            },
            {
                "pitch": 45,
                "velocity": 7,
                "duration": 0.3045,
                "tempo": 120.0
            },
            {
                "pitch": 45,
                "velocity": 7,
                "duration": 0.3068,
                "tempo": 120.0
            },
            {
                "pitch": 45,
                "velocity": 7,
                "duration": 0.3068,
                "tempo": 120.0
            },
            {
                "pitch": 42,
                "velocity": 7,
                "duration": 0.3,
                "tempo": 120.0
            },
            {
                "pitch": 42,
                "velocity": 7,
                "duration": 0.3,
                "tempo": 120.0
            },
            {
                "pitch": 42,
                "velocity": 7,
                "duration": 0.3023,
                "tempo": 120.0
            },
            {
                "pitch": 42,
                "velocity": 7,
                "duration": 0.3068,
                "tempo": 120.0
            },
            {
                "pitch": 38,
                "velocity": 7,
                "duration": 0.3023,
                "tempo": 120.0
            },
            {
                "pitch": 38,
                "velocity": 7,
                "duration": 0.3023,
                "tempo": 120.0
            },
            {
                "pitch": 40,
                "velocity": 7,
                "duration": 0.3,
                "tempo": 120.0
            },
            {
                "pitch": 40,
                "velocity": 7,
                "duration": 0.3023,
                "tempo": 120.0
            }
        ],
        "Synth Bass 1": [
            {
                "pitch": 79,
                "velocity": 1,
                "duration": 0.0614,
                "tempo": 120.0
            },
            {
                "pitch": 81,
                "velocity": 1,
                "duration": 0.5568,
                "tempo": 120.0
            },
            {
                "pitch": 81,
                "velocity": 1,
                "duration": 0.2045,
                "tempo": 120.0
            },
            {
                "pitch": 81,
                "velocity": 1,
                "duration": 0.2045,
                "tempo": 120.0
            },
            {
                "pitch": 78,
                "velocity": 1,
                "duration": 0.2045,
                "tempo": 120.0
            },
            {
                "pitch": 81,
                "velocity": 1,
                "duration": 0.6,
                "tempo": 120.0
            },
            {
                "pitch": 81,
                "velocity": 1,
                "duration": 0.2023,
                "tempo": 120.0
            },
            {
                "pitch": 83,
                "velocity": 1,
                "duration": 0.2023,
                "tempo": 120.0
            },
            {
                "pitch": 85,
                "velocity": 1,
                "duration": 0.2023,
                "tempo": 120.0
            },
            {
                "pitch": 85,
                "velocity": 1,
                "duration": 0.3045,
                "tempo": 120.0
            },
            {
                "pitch": 78,
                "velocity": 1,
                "duration": 0.3023,
                "tempo": 120.0
            },
            {
                "pitch": 90,
                "velocity": 1,
                "duration": 1.8136,
                "tempo": 120.0
            },
            {
                "pitch": 80,
                "velocity": 1,
                "duration": 0.2,
                "tempo": 120.0
            },
            {
                "pitch": 80,
                "velocity": 1,
                "duration": 0.2,
                "tempo": 120.0
            },
            {
                "pitch": 81,
                "velocity": 1,
                "duration": 1.4114,
                "tempo": 120.0
            },
            {
                "pitch": 83,
                "velocity": 1,
                "duration": 1.4114,
                "tempo": 120.0
            },
            {
                "pitch": 83,
                "velocity": 1,
                "duration": 0.2023,
                "tempo": 120.0
            }
        ],
        "Acoustic Grand Piano": [
            {
                "pitch": 0,
                "velocity": 0,
                "duration": 3.6477,
                "tempo": 0
            },
            {
                "pitch": 108,
                "velocity": 15,
                "duration": 0.1,
                "tempo": 120.0
            }
        ]
    }
}