{
    "track_id": "11 Calm Feeling_15",
    "mood": "relaxed",
    "instruments": {
        "Lead 1 (square)": [
            {
                "pitch": 0,
                "velocity": 0,
                "duration": 7.0864,
                "tempo": 0
            },
            {
                "pitch": 84,
                "velocity": 12,
                "duration": 0.3841,
                "tempo": 120.0
            },
            {
                "pitch": 0,
                "velocity": 0,
                "duration": 0.0545,
                "tempo": 0
            },
            {
                "pitch": 86,
                "velocity": 12,
                "duration": 0.1818,
                "tempo": 120.0
            },
            {
                "pitch": 0,
                "velocity": 0,
                "duration": 0.0432,
                "tempo": 0
            },
            {
                "pitch": 84,
                "velocity": 12,
                "duration": 0.1795,
                "tempo": 120.0
            },
            {
                "pitch": 0,
                "velocity": 0,
                "duration": 0.0386,
                "tempo": 0
            },
            {
                "pitch": 84,
                "velocity": 1,
                "duration": 0.2091,
                "tempo": 120.0
            },
            {
                "pitch": 81,
                "velocity": 1,
                "duration": 0.1727,
                "tempo": 120.0
            },
            {
                "pitch": 81,
                "velocity": 12,
                "duration": 0.1727,
                "tempo": 120.0
            },
            {
                "pitch": 0,
                "velocity": 0,
                "duration": 0.0341,
                "tempo": 0
            },
            {
                "pitch": 81,
                "velocity": 1,
                "duration": 0.2159,
                "tempo": 120.0
            },
            {
                "pitch": 77,
                "velocity": 12,
                "duration": 1.3182,
                "tempo": 120.0
            },
            {
                "pitch": 0,
                "velocity": 0,
                "duration": 0.1932,
                "tempo": 0
            },
            {
                "pitch": 84,
                "velocity": 12,
                "duration": 0.1795,
                "tempo": 120.0
            },
            {
                "pitch": 0,
                "velocity": 0,
                "duration": 0.0432,
                "tempo": 0
            },
            {
                "pitch": 86,
                "velocity": 12,
                "duration": 0.1795,
                "tempo": 120.0
            },
            {
                "pitch": 0,
                "velocity": 0,
                "duration": 0.0523,
                "tempo": 0
            },
            {
                "pitch": 84,
                "velocity": 12,
                "duration": 0.375,
                "tempo": 120.0
            },
            {
                "pitch": 0,
                "velocity": 0,
                "duration": 0.0545,
                "tempo": 0
            },
            {
                "pitch": 86,
                "velocity": 12,
                "duration": 0.1818,
                "tempo": 120.0
            },
            {
                "pitch": 0,
                "velocity": 0,
                "duration": 0.0432,
                "tempo": 0
            },
            {
                "pitch": 84,
                "velocity": 12,
                "duration": 0.1795,
                "tempo": 120.0
            },
            {
                "pitch": 0,
                "velocity": 0,
                "duration": 0.0386,
                "tempo": 0
            },
            {
                "pitch": 84,
                "velocity": 1,
                "duration": 0.2114,
                "tempo": 120.0
            },
            {
                "pitch": 83,
                "velocity": 12,
                "duration": 0.1705,
                "tempo": 120.0
            },
            {
                "pitch": 0,
                "velocity": 0,
                "duration": 0.0364,
                "tempo": 0
            },
            {
                "pitch": 83,
                "velocity": 1,
                "duration": 0.2205,
                "tempo": 120.0
            },
            {
                "pitch": 81,
                "velocity": 12,
                "duration": 0.9273,
                "tempo": 120.0
            },
            {
                "pitch": 0,
                "velocity": 0,
                "duration": 0.1432,
                "tempo": 0
            },
            {
                "pitch": 83,
                "velocity": 12,
                "duration": 0.7614,
                "tempo": 120.0
            },
            {
                "pitch": 0,
                "velocity": 0,
                "duration": 0.1136,
                "tempo": 0
            },
            {
                "pitch": 83,
                "velocity": 1,
                "duration": 0.2045,
                "tempo": 120.0
            },
            {
                "pitch": 0,
                "velocity": 0,
                "duration": 3.2318,
                "tempo": 0
            },
            {
                "pitch": 72,
                "velocity": 10,
                "duration": 1.5205,
                "tempo": 120.0
            },
            {
                "pitch": 0,
                "velocity": 0,
                "duration": 0.225,
                "tempo": 0
            },
            {
                "pitch": 71,
                "velocity": 10,
                "duration": 1.5205,
                "tempo": 120.0
            },
            {
                "pitch": 0,
                "velocity": 0,
                "duration": 0.2295,
                "tempo": 0
            },
            {
                "pitch": 70,
                "velocity": 10,
                "duration": 1.5182,
                "tempo": 120.0
            },
            {
                "pitch": 0,
                "velocity": 0,
                "duration": 0.2295,
                "tempo": 0
            },
            {
                "pitch": 69,
                "velocity": 10,
                "duration": 1.525,
                "tempo": 120.0
            },
            {
                "pitch": 0,
                "velocity": 0,
                "duration": 0.2364,
                "tempo": 0
            },
            {
                "pitch": 69,
                "velocity": 10,
                "duration": 3.0227,
                "tempo": 120.0
            },
            {
                "pitch": 0,
                "velocity": 0,
                "duration": 0.4341,
                "tempo": 0
            },
            {
                "pitch": 64,
                "velocity": 10,
                "duration": 1.3318,
                "tempo": 120.0
            },
            {
                "pitch": 0,
                "velocity": 0,
                "duration": 0.2,
                "tempo": 0
            },
            {
                "pitch": 64,
                "velocity": 10,
                "duration": 0.5773,
                "tempo": 120.0
            },
            {
                "pitch": 0,
                "velocity": 0,
                "duration": 22.1114,
                "tempo": 0
            },
            {
                "pitch": 84,
                "velocity": 12,
                "duration": 0.3841,
                "tempo": 120.0
            },
            {
                "pitch": 0,
                "velocity": 0,
                "duration": 0.0568,
                "tempo": 0
            },
            {
                "pitch": 86,
                "velocity": 12,
                "duration": 0.1818,
                "tempo": 120.0
            },
            {
                "pitch": 0,
                "velocity": 0,
                "duration": 0.0409,
                "tempo": 0
            },
            {
                "pitch": 84,
                "velocity": 12,
                "duration": 0.1818,
                "tempo": 120.0
            },
            {
                "pitch": 0,
                "velocity": 0,
                "duration": 0.0364,
                "tempo": 0
            },
            {
                "pitch": 84,
                "velocity": 1,
                "duration": 0.2114,
                "tempo": 120.0
            },
            {
                "pitch": 81,
                "velocity": 1,
                "duration": 0.1705,
                "tempo": 120.0
            },
            {
                "pitch": 81,
                "velocity": 12,
                "duration": 0.1705,
                "tempo": 120.0
            },
            {
                "pitch": 0,
                "velocity": 0,
                "duration": 0.0364,
                "tempo": 0
            },
            {
                "pitch": 81,
                "velocity": 1,
                "duration": 0.2182,
                "tempo": 120.0
            },
            {
                "pitch": 89,
                "velocity": 1,
                "duration": 45.0614,
                "tempo": 120.0
            },
            {
                "pitch": 89,
                "velocity": 1,
                "duration": 0.0023,
                "tempo": 120.0
            },
            {
                "pitch": 77,
                "velocity": 12,
                "duration": 1.3136,
                "tempo": 120.0
            },
            {
                "pitch": 0,
                "velocity": 0,
                "duration": 0.1886,
                "tempo": 0
            },
            {
                "pitch": 84,
                "velocity": 12,
                "duration": 0.1795,
                "tempo": 120.0
            },
            {
                "pitch": 0,
                "velocity": 0,
                "duration": 0.0409,
                "tempo": 0
            },
            {
                "pitch": 86,
                "velocity": 12,
                "duration": 0.1773,
                "tempo": 120.0
            },
            {
                "pitch": 0,
                "velocity": 0,
                "duration": 0.05,
                "tempo": 0
            },
            {
                "pitch": 84,
                "velocity": 12,
                "duration": 0.375,
                "tempo": 120.0
            },
            {
                "pitch": 0,
                "velocity": 0,
                "duration": 0.0545,
                "tempo": 0
            },
            {
                "pitch": 86,
                "velocity": 12,
                "duration": 0.1841,
                "tempo": 120.0
            },
            {
                "pitch": 0,
                "velocity": 0,
                "duration": 0.0409,
                "tempo": 0
            },
            {
                "pitch": 84,
                "velocity": 12,
                "duration": 0.1818,
                "tempo": 120.0
            },
            {
                "pitch": 0,
                "velocity": 0,
                "duration": 0.0364,
                "tempo": 0
            },
            {
                "pitch": 84,
                "velocity": 1,
                "duration": 0.2182,
                "tempo": 120.0
            },
            {
                "pitch": 83,
                "velocity": 12,
                "duration": 0.1727,
                "tempo": 120.0
            },
            {
                "pitch": 0,
                "velocity": 0,
                "duration": 0.0386,
                "tempo": 0
            },
            {
                "pitch": 83,
                "velocity": 1,
                "duration": 0.2159,
                "tempo": 120.0
            },
            {
                "pitch": 81,
                "velocity": 12,
                "duration": 0.95,
                "tempo": 120.0
            },
            {
                "pitch": 0,
                "velocity": 0,
                "duration": 0.1386,
                "tempo": 0
            },
            {
                "pitch": 83,
                "velocity": 12,
                "duration": 0.7477,
                "tempo": 120.0
            }
        ],
        "Lead 2 (sawtooth)": [
            {
                "pitch": 0,
                "velocity": 0,
                "duration": 43.7227,
                "tempo": 0
            },
            {
                "pitch": 71,
                "velocity": 10,
                "duration": 0.1682,
                "tempo": 120.0
            },
            {
                "pitch": 0,
                "velocity": 0,
                "duration": 0.0409,
                "tempo": 0
            },
            {
                "pitch": 72,
                "velocity": 10,
                "duration": 0.175,
                "tempo": 120.0
            },
            {
                "pitch": 0,
                "velocity": 0,
                "duration": 0.0432,
                "tempo": 0
            },
            {
                "pitch": 74,
                "velocity": 10,
                "duration": 0.175,
                "tempo": 120.0
            },
            {
                "pitch": 0,
                "velocity": 0,
                "duration": 0.0409,
                "tempo": 0
            },
            {
                "pitch": 76,
                "velocity": 10,
                "duration": 0.1727,
                "tempo": 120.0
            },
            {
                "pitch": 0,
                "velocity": 0,
                "duration": 0.0409,
                "tempo": 0
            },
            {
                "pitch": 77,
                "velocity": 10,
                "duration": 0.1727,
                "tempo": 120.0
            },
            {
                "pitch": 0,
                "velocity": 0,
                "duration": 0.0386,
                "tempo": 0
            },
            {
                "pitch": 79,
                "velocity": 10,
                "duration": 0.1773,
                "tempo": 120.0
            },
            {
                "pitch": 0,
                "velocity": 0,
                "duration": 0.0409,
                "tempo": 0
            },
            {
                "pitch": 81,
                "velocity": 10,
                "duration": 0.1773,
                "tempo": 120.0
            }
        ],
        "Synth Bass 1": [
            {
                "pitch": 0,
                "velocity": 0,
                "duration": 0.2023,
                "tempo": 0
            },
            {
                "pitch": 36,
                "velocity": 1,
                "duration": 0.55,
                "tempo": 120.0
            },
            {
                "pitch": 0,
                "velocity": 0,
                "duration": 0.0841,
                "tempo": 0
            },
            {
                "pitch": 43,
                "velocity": 1,
                "duration": 0.1727,
                "tempo": 120.0
            },
            {
                "pitch": 0,
                "velocity": 0,
                "duration": 0.0341,
                "tempo": 0
            },
            {
                "pitch": 50,
                "velocity": 1,
                "duration": 0.1818,
                "tempo": 120.0
            },
            {
                "pitch": 0,
                "velocity": 0,
                "duration": 0.0364,
                "tempo": 0
            },
            {
                "pitch": 48,
                "velocity": 1,
                "duration": 0.1818,
                "tempo": 120.0
            },
            {
                "pitch": 0,
                "velocity": 0,
                "duration": 0.0409,
                "tempo": 0
            },
            {
                "pitch": 50,
                "velocity": 1,
                "duration": 0.175,
                "tempo": 120.0
            },
            {
                "pitch": 0,
                "velocity": 0,
                "duration": 0.0409,
                "tempo": 0
            },
            {
                "pitch": 53,
                "velocity": 1,
                "duration": 0.9318,
                "tempo": 120.0
            },
            {
                "pitch": 0,
                "velocity": 0,
                "duration": 0.1341,
                "tempo": 0
            },
            {
                "pitch": 53,
                "velocity": 1,
                "duration": 0.2205,
                "tempo": 120.0
            },
            {
                "pitch": 36,
                "velocity": 1,
                "duration": 0.1705,
                "tempo": 120.0
            },
            {
                "pitch": 0,
                "velocity": 0,
                "duration": 0.0386,
                "tempo": 0
            },
            {
                "pitch": 35,
                "velocity": 1,
                "duration": 0.3955,
                "tempo": 120.0
            },
            {
                "pitch": 0,
                "velocity": 0,
                "duration": 0.0636,
                "tempo": 0
            },
            {
                "pitch": 33,
                "velocity": 1,
                "duration": 0.5386,
                "tempo": 120.0
            },
            {
                "pitch": 0,
                "velocity": 0,
                "duration": 0.0955,
                "tempo": 0
            },
            {
                "pitch": 40,
                "velocity": 1,
                "duration": 0.1727,
                "tempo": 120.0
            },
            {
                "pitch": 0,
                "velocity": 0,
                "duration": 0.0409,
                "tempo": 0
            },
            {
                "pitch": 47,
                "velocity": 1,
                "duration": 0.1727,
                "tempo": 120.0
            },
            {
                "pitch": 0,
                "velocity": 0,
                "duration": 0.0341,
                "tempo": 0
            },
            {
                "pitch": 45,
                "velocity": 1,
                "duration": 0.1795,
                "tempo": 120.0
            },
            {
                "pitch": 0,
                "velocity": 0,
                "duration": 0.0341,
                "tempo": 0
            },
            {
                "pitch": 47,
                "velocity": 1,
                "duration": 0.1773,
                "tempo": 120.0
            },
            {
                "pitch": 48,
                "velocity": 1,
                "duration": 3.0795,
                "tempo": 120.0
            },
            {
                "pitch": 48,
                "velocity": 1,
                "duration": 0.9295,
                "tempo": 120.0
            },
            {
                "pitch": 0,
                "velocity": 0,
                "duration": 0.1364,
                "tempo": 0
            },
            {
                "pitch": 48,
                "velocity": 1,
                "duration": 0.2227,
                "tempo": 120.0
            },
            {
                "pitch": 0,
                "velocity": 0,
                "duration": 0.0023,
                "tempo": 0
            },
            {
                "pitch": 33,
                "velocity": 1,
                "duration": 0.5568,
                "tempo": 120.0
            },
            {
                "pitch": 0,
                "velocity": 0,
                "duration": 0.1023,
                "tempo": 0
            },
            {
                "pitch": 29,
                "velocity": 1,
                "duration": 1.7045,
                "tempo": 120.0
            },
            {
                "pitch": 0,
                "velocity": 0,
                "duration": 0.2364,
                "tempo": 0
            },
            {
                "pitch": 29,
                "velocity": 1,
                "duration": 0.1818,
                "tempo": 120.0
            },
            {
                "pitch": 0,
                "velocity": 0,
                "duration": 0.0364,
                "tempo": 0
            },
            {
                "pitch": 36,
                "velocity": 1,
                "duration": 0.1773,
                "tempo": 120.0
            },
            {
                "pitch": 0,
                "velocity": 0,
                "duration": 0.0341,
                "tempo": 0
            },
            {
                "pitch": 41,
                "velocity": 1,
                "duration": 0.5636,
                "tempo": 120.0
            },
            {
                "pitch": 0,
                "velocity": 0,
                "duration": 0.0909,
                "tempo": 0
            },
            {
                "pitch": 29,
                "velocity": 1,
                "duration": 0.3841,
                "tempo": 120.0
            },
            {
                "pitch": 0,
                "velocity": 0,
                "duration": 0.0705,
                "tempo": 0
            },
            {
                "pitch": 31,
                "velocity": 1,
                "duration": 0.95,
                "tempo": 120.0
            },
            {
                "pitch": 0,
                "velocity": 0,
                "duration": 0.1364,
                "tempo": 0
            },
            {
                "pitch": 31,
                "velocity": 1,
                "duration": 0.1682,
                "tempo": 120.0
            },
            {
                "pitch": 0,
                "velocity": 0,
                "duration": 0.0364,
                "tempo": 0
            },
            {
                "pitch": 50,
                "velocity": 1,
                "duration": 0.1795,
                "tempo": 120.0
            },
            {
                "pitch": 0,
                "velocity": 0,
                "duration": 0.0409,
                "tempo": 0
            },
            {
                "pitch": 55,
                "velocity": 1,
                "duration": 0.9273,
                "tempo": 120.0
            },
            {
                "pitch": 0,
                "velocity": 0,
                "duration": 0.1432,
                "tempo": 0
            },
            {
                "pitch": 50,
                "velocity": 1,
                "duration": 0.375,
                "tempo": 120.0
            },
            {
                "pitch": 0,
                "velocity": 0,
                "duration": 0.0545,
                "tempo": 0
            },
            {
                "pitch": 38,
                "velocity": 1,
                "duration": 0.3818,
                "tempo": 120.0
            },
            {
                "pitch": 0,
                "velocity": 0,
                "duration": 0.0636,
                "tempo": 0
            },
            {
                "pitch": 36,
                "velocity": 1,
                "duration": 2.9932,
                "tempo": 120.0
            },
            {
                "pitch": 0,
                "velocity": 0,
                "duration": 0.4432,
                "tempo": 0
            },
            {
                "pitch": 36,
                "velocity": 1,
                "duration": 1.15,
                "tempo": 120.0
            },
            {
                "pitch": 0,
                "velocity": 0,
                "duration": 0.1545,
                "tempo": 0
            },
            {
                "pitch": 36,
                "velocity": 1,
                "duration": 0.3773,
                "tempo": 120.0
            },
            {
                "pitch": 0,
                "velocity": 0,
                "duration": 0.0636,
                "tempo": 0
            },
            {
                "pitch": 35,
                "velocity": 1,
                "duration": 1.1523,
                "tempo": 120.0
            },
            {
                "pitch": 0,
                "velocity": 0,
                "duration": 0.1523,
                "tempo": 0
            },
            {
                "pitch": 35,
                "velocity": 1,
                "duration": 0.3795,
                "tempo": 120.0
            },
            {
                "pitch": 0,
                "velocity": 0,
                "duration": 0.0659,
                "tempo": 0
            },
            {
                "pitch": 34,
                "velocity": 1,
                "duration": 1.15,
                "tempo": 120.0
            },
            {
                "pitch": 0,
                "velocity": 0,
                "duration": 0.1523,
                "tempo": 0
            },
            {
                "pitch": 34,
                "velocity": 1,
                "duration": 0.3795,
                "tempo": 120.0
            },
            {
                "pitch": 0,
                "velocity": 0,
                "duration": 0.0659,
                "tempo": 0
            },
            {
                "pitch": 33,
                "velocity": 1,
                "duration": 1.15,
                "tempo": 120.0
            },
            {
                "pitch": 0,
                "velocity": 0,
                "duration": 0.1545,
                "tempo": 0
            },
            {
                "pitch": 33,
                "velocity": 1,
                "duration": 0.3864,
                "tempo": 120.0
            },
            {
                "pitch": 0,
                "velocity": 0,
                "duration": 0.0705,
                "tempo": 0
            },
            {
                "pitch": 38,
                "velocity": 1,
                "duration": 1.1432,
                "tempo": 120.0
            },
            {
                "pitch": 0,
                "velocity": 0,
                "duration": 0.1568,
                "tempo": 0
            },
            {
                "pitch": 38,
                "velocity": 1,
                "duration": 0.3795,
                "tempo": 120.0
            },
            {
                "pitch": 0,
                "velocity": 0,
                "duration": 0.0545,
                "tempo": 0
            },
            {
                "pitch": 35,
                "velocity": 1,
                "duration": 1.125,
                "tempo": 120.0
            },
            {
                "pitch": 0,
                "velocity": 0,
                "duration": 0.1523,
                "tempo": 0
            },
            {
                "pitch": 35,
                "velocity": 1,
                "duration": 0.3795,
                "tempo": 120.0
            },
            {
                "pitch": 0,
                "velocity": 0,
                "duration": 0.0659,
                "tempo": 0
            },
            {
                "pitch": 40,
                "velocity": 1,
                "duration": 1.3318,
                "tempo": 120.0
            },
            {
                "pitch": 0,
                "velocity": 0,
                "duration": 0.2,
                "tempo": 0
            },
            {
                "pitch": 40,
                "velocity": 1,
                "duration": 0.5773,
                "tempo": 120.0
            },
            {
                "pitch": 0,
                "velocity": 0,
                "duration": 0.0977,
                "tempo": 0
            },
            {
                "pitch": 28,
                "velocity": 1,
                "duration": 0.3727,
                "tempo": 120.0
            },
            {
                "pitch": 0,
                "velocity": 0,
                "duration": 0.0614,
                "tempo": 0
            },
            {
                "pitch": 30,
                "velocity": 1,
                "duration": 0.3659,
                "tempo": 120.0
            },
            {
                "pitch": 0,
                "velocity": 0,
                "duration": 0.0591,
                "tempo": 0
            },
            {
                "pitch": 32,
                "velocity": 1,
                "duration": 0.375,
                "tempo": 120.0
            },
            {
                "pitch": 0,
                "velocity": 0,
                "duration": 0.0614,
                "tempo": 0
            },
            {
                "pitch": 33,
                "velocity": 1,
                "duration": 0.1682,
                "tempo": 120.0
            },
            {
                "pitch": 0,
                "velocity": 0,
                "duration": 0.0409,
                "tempo": 0
            },
            {
                "pitch": 40,
                "velocity": 1,
                "duration": 0.1727,
                "tempo": 120.0
            },
            {
                "pitch": 0,
                "velocity": 0,
                "duration": 0.0341,
                "tempo": 0
            },
            {
                "pitch": 47,
                "velocity": 1,
                "duration": 0.1818,
                "tempo": 120.0
            },
            {
                "pitch": 0,
                "velocity": 0,
                "duration": 0.0364,
                "tempo": 0
            },
            {
                "pitch": 48,
                "velocity": 1,
                "duration": 0.9386,
                "tempo": 120.0
            },
            {
                "pitch": 0,
                "velocity": 0,
                "duration": 0.1477,
                "tempo": 0
            },
            {
                "pitch": 29,
                "velocity": 1,
                "duration": 0.1705,
                "tempo": 120.0
            },
            {
                "pitch": 0,
                "velocity": 0,
                "duration": 0.0364,
                "tempo": 0
            },
            {
                "pitch": 36,
                "velocity": 1,
                "duration": 0.175,
                "tempo": 120.0
            },
            {
                "pitch": 0,
                "velocity": 0,
                "duration": 0.0364,
                "tempo": 0
            },
            {
                "pitch": 43,
                "velocity": 1,
                "duration": 0.1818,
                "tempo": 120.0
            },
            {
                "pitch": 45,
                "velocity": 1,
                "duration": 28.2864,
                "tempo": 120.0
            },
            {
                "pitch": 45,
                "velocity": 1,
                "duration": 0.9273,
                "tempo": 120.0
            },
            {
                "pitch": 0,
                "velocity": 0,
                "duration": 0.1455,
                "tempo": 0
            },
            {
                "pitch": 28,
                "velocity": 1,
                "duration": 0.1682,
                "tempo": 120.0
            },
            {
                "pitch": 0,
                "velocity": 0,
                "duration": 0.0409,
                "tempo": 0
            },
            {
                "pitch": 35,
                "velocity": 1,
                "duration": 0.1727,
                "tempo": 120.0
            },
            {
                "pitch": 0,
                "velocity": 0,
                "duration": 0.0409,
                "tempo": 0
            },
            {
                "pitch": 41,
                "velocity": 1,
                "duration": 0.175,
                "tempo": 120.0
            },
            {
                "pitch": 0,
                "velocity": 0,
                "duration": 0.0455,
                "tempo": 0
            },
            {
                "pitch": 43,
                "velocity": 1,
                "duration": 0.3705,
                "tempo": 120.0
            },
            {
                "pitch": 0,
                "velocity": 0,
                "duration": 0.0545,
                "tempo": 0
            },
            {
                "pitch": 28,
                "velocity": 1,
                "duration": 0.175,
                "tempo": 120.0
            },
            {
                "pitch": 0,
                "velocity": 0,
                "duration": 0.0432,
                "tempo": 0
            },
            {
                "pitch": 41,
                "velocity": 1,
                "duration": 0.1727,
                "tempo": 120.0
            },
            {
                "pitch": 0,
                "velocity": 0,
                "duration": 0.0409,
                "tempo": 0
            },
            {
                "pitch": 28,
                "velocity": 1,
                "duration": 0.1773,
                "tempo": 120.0
            },
            {
                "pitch": 0,
                "velocity": 0,
                "duration": 0.0432,
                "tempo": 0
            },
            {
                "pitch": 33,
                "velocity": 1,
                "duration": 0.1705,
                "tempo": 120.0
            },
            {
                "pitch": 0,
                "velocity": 0,
                "duration": 0.0409,
                "tempo": 0
            },
            {
                "pitch": 40,
                "velocity": 1,
                "duration": 0.1705,
                "tempo": 120.0
            },
            {
                "pitch": 0,
                "velocity": 0,
                "duration": 0.0432,
                "tempo": 0
            },
            {
                "pitch": 47,
                "velocity": 1,
                "duration": 0.175,
                "tempo": 120.0
            },
            {
                "pitch": 0,
                "velocity": 0,
                "duration": 0.0477,
                "tempo": 0
            },
            {
                "pitch": 48,
                "velocity": 1,
                "duration": 0.3864,
                "tempo": 120.0
            },
            {
                "pitch": 0,
                "velocity": 0,
                "duration": 0.0591,
                "tempo": 0
            },
            {
                "pitch": 36,
                "velocity": 1,
                "duration": 0.5614,
                "tempo": 120.0
            },
            {
                "pitch": 0,
                "velocity": 0,
                "duration": 0.0977,
                "tempo": 0
            },
            {
                "pitch": 29,
                "velocity": 1,
                "duration": 2.2705,
                "tempo": 120.0
            },
            {
                "pitch": 0,
                "velocity": 0,
                "duration": 0.3091,
                "tempo": 0
            },
            {
                "pitch": 29,
                "velocity": 1,
                "duration": 0.7659,
                "tempo": 120.0
            },
            {
                "pitch": 0,
                "velocity": 0,
                "duration": 0.1136,
                "tempo": 0
            },
            {
                "pitch": 31,
                "velocity": 1,
                "duration": 0.9318,
                "tempo": 120.0
            },
            {
                "pitch": 0,
                "velocity": 0,
                "duration": 0.1432,
                "tempo": 0
            },
            {
                "pitch": 31,
                "velocity": 1,
                "duration": 0.175,
                "tempo": 120.0
            },
            {
                "pitch": 0,
                "velocity": 0,
                "duration": 0.0409,
                "tempo": 0
            },
            {
                "pitch": 26,
                "velocity": 1,
                "duration": 0.1773,
                "tempo": 120.0
            },
            {
                "pitch": 0,
                "velocity": 0,
                "duration": 0.0455,
                "tempo": 0
            },
            {
                "pitch": 31,
                "velocity": 1,
                "duration": 1.6841,
                "tempo": 120.0
            },
            {
                "pitch": 0,
                "velocity": 0,
                "duration": 0.2477,
                "tempo": 0
            },
            {
                "pitch": 36,
                "velocity": 1,
                "duration": 0.5614,
                "tempo": 120.0
            },
            {
                "pitch": 0,
                "velocity": 0,
                "duration": 0.0864,
                "tempo": 0
            },
            {
                "pitch": 43,
                "velocity": 1,
                "duration": 0.1818,
                "tempo": 120.0
            },
            {
                "pitch": 0,
                "velocity": 0,
                "duration": 0.0364,
                "tempo": 0
            },
            {
                "pitch": 50,
                "velocity": 1,
                "duration": 0.1818,
                "tempo": 120.0
            },
            {
                "pitch": 0,
                "velocity": 0,
                "duration": 0.0364,
                "tempo": 0
            },
            {
                "pitch": 48,
                "velocity": 1,
                "duration": 0.1795,
                "tempo": 120.0
            },
            {
                "pitch": 0,
                "velocity": 0,
                "duration": 0.0432,
                "tempo": 0
            },
            {
                "pitch": 50,
                "velocity": 1,
                "duration": 0.175,
                "tempo": 120.0
            },
            {
                "pitch": 0,
                "velocity": 0,
                "duration": 0.0386,
                "tempo": 0
            },
            {
                "pitch": 53,
                "velocity": 1,
                "duration": 0.9341,
                "tempo": 120.0
            },
            {
                "pitch": 0,
                "velocity": 0,
                "duration": 0.1341,
                "tempo": 0
            },
            {
                "pitch": 53,
                "velocity": 1,
                "duration": 0.2205,
                "tempo": 120.0
            },
            {
                "pitch": 36,
                "velocity": 1,
                "duration": 0.1682,
                "tempo": 120.0
            },
            {
                "pitch": 0,
                "velocity": 0,
                "duration": 0.0409,
                "tempo": 0
            },
            {
                "pitch": 35,
                "velocity": 1,
                "duration": 0.3864,
                "tempo": 120.0
            },
            {
                "pitch": 0,
                "velocity": 0,
                "duration": 0.0614,
                "tempo": 0
            },
            {
                "pitch": 33,
                "velocity": 1,
                "duration": 0.5477,
                "tempo": 120.0
            },
            {
                "pitch": 0,
                "velocity": 0,
                "duration": 0.0932,
                "tempo": 0
            },
            {
                "pitch": 40,
                "velocity": 1,
                "duration": 0.1682,
                "tempo": 120.0
            },
            {
                "pitch": 0,
                "velocity": 0,
                "duration": 0.0409,
                "tempo": 0
            },
            {
                "pitch": 47,
                "velocity": 1,
                "duration": 0.1705,
                "tempo": 120.0
            },
            {
                "pitch": 0,
                "velocity": 0,
                "duration": 0.0364,
                "tempo": 0
            },
            {
                "pitch": 45,
                "velocity": 1,
                "duration": 0.1773,
                "tempo": 120.0
            },
            {
                "pitch": 0,
                "velocity": 0,
                "duration": 0.0364,
                "tempo": 0
            },
            {
                "pitch": 47,
                "velocity": 1,
                "duration": 0.1795,
                "tempo": 120.0
            },
            {
                "pitch": 48,
                "velocity": 1,
                "duration": 3.0795,
                "tempo": 120.0
            },
            {
                "pitch": 48,
                "velocity": 1,
                "duration": 0.9341,
                "tempo": 120.0
            },
            {
                "pitch": 0,
                "velocity": 0,
                "duration": 0.1364,
                "tempo": 0
            },
            {
                "pitch": 48,
                "velocity": 1,
                "duration": 0.2227,
                "tempo": 120.0
            },
            {
                "pitch": 33,
                "velocity": 1,
                "duration": 0.5591,
                "tempo": 120.0
            },
            {
                "pitch": 0,
                "velocity": 0,
                "duration": 0.1,
                "tempo": 0
            },
            {
                "pitch": 29,
                "velocity": 1,
                "duration": 1.7136,
                "tempo": 120.0
            },
            {
                "pitch": 0,
                "velocity": 0,
                "duration": 0.2341,
                "tempo": 0
            },
            {
                "pitch": 29,
                "velocity": 1,
                "duration": 0.1773,
                "tempo": 120.0
            },
            {
                "pitch": 0,
                "velocity": 0,
                "duration": 0.0341,
                "tempo": 0
            },
            {
                "pitch": 36,
                "velocity": 1,
                "duration": 0.1773,
                "tempo": 120.0
            },
            {
                "pitch": 0,
                "velocity": 0,
                "duration": 0.0364,
                "tempo": 0
            },
            {
                "pitch": 41,
                "velocity": 1,
                "duration": 0.9455,
                "tempo": 120.0
            },
            {
                "pitch": 0,
                "velocity": 0,
                "duration": 0.1523,
                "tempo": 0
            },
            {
                "pitch": 43,
                "velocity": 1,
                "duration": 0.9523,
                "tempo": 120.0
            },
            {
                "pitch": 0,
                "velocity": 0,
                "duration": 0.1386,
                "tempo": 0
            },
            {
                "pitch": 43,
                "velocity": 1,
                "duration": 0.1727,
                "tempo": 120.0
            },
            {
                "pitch": 0,
                "velocity": 0,
                "duration": 0.0386,
                "tempo": 0
            },
            {
                "pitch": 50,
                "velocity": 1,
                "duration": 0.1727,
                "tempo": 120.0
            },
            {
                "pitch": 0,
                "velocity": 0,
                "duration": 0.0432,
                "tempo": 0
            },
            {
                "pitch": 55,
                "velocity": 1,
                "duration": 1.7068,
                "tempo": 120.0
            },
            {
                "pitch": 0,
                "velocity": 0,
                "duration": 0.2364,
                "tempo": 0
            },
            {
                "pitch": 24,
                "velocity": 1,
                "duration": 0.1727,
                "tempo": 120.0
            },
            {
                "pitch": 0,
                "velocity": 0,
                "duration": 0.0386,
                "tempo": 0
            },
            {
                "pitch": 28,
                "velocity": 1,
                "duration": 0.175,
                "tempo": 120.0
            },
            {
                "pitch": 0,
                "velocity": 0,
                "duration": 0.0341,
                "tempo": 0
            },
            {
                "pitch": 31,
                "velocity": 1,
                "duration": 0.1841,
                "tempo": 120.0
            },
            {
                "pitch": 0,
                "velocity": 0,
                "duration": 0.0364,
                "tempo": 0
            },
            {
                "pitch": 35,
                "velocity": 1,
                "duration": 0.1864,
                "tempo": 120.0
            },
            {
                "pitch": 0,
                "velocity": 0,
                "duration": 0.0409,
                "tempo": 0
            },
            {
                "pitch": 36,
                "velocity": 1,
                "duration": 2.2409,
                "tempo": 120.0
            }
        ],
        "Acoustic Grand Piano": [
            {
                "pitch": 0,
                "velocity": 0,
                "duration": 63.3227,
                "tempo": 0
            },
            {
                "pitch": 108,
                "velocity": 15,
                "duration": 0.1,
                "tempo": 120.0
            }
        ]
    }
}