{
    "track_id": "Ys (FM) - 01 - Feena_13",
    "mood": "relaxed",
    "instruments": {
        "Lead 1 (square)": [
            {
                "pitch": 0,
                "velocity": 0,
                "duration": 12.9091,
                "tempo": 0
            },
            {
                "pitch": 66,
                "velocity": 12,
                "duration": 0.3364,
                "tempo": 120.0
            },
            {
                "pitch": 0,
                "velocity": 0,
                "duration": 0.0682,
                "tempo": 0
            },
            {
                "pitch": 64,
                "velocity": 12,
                "duration": 0.3386,
                "tempo": 120.0
            },
            {
                "pitch": 0,
                "velocity": 0,
                "duration": 0.0682,
                "tempo": 0
            },
            {
                "pitch": 66,
                "velocity": 12,
                "duration": 0.3364,
                "tempo": 120.0
            },
            {
                "pitch": 0,
                "velocity": 0,
                "duration": 0.0682,
                "tempo": 0
            },
            {
                "pitch": 71,
                "velocity": 12,
                "duration": 0.3386,
                "tempo": 120.0
            },
            {
                "pitch": 0,
                "velocity": 0,
                "duration": 0.0659,
                "tempo": 0
            },
            {
                "pitch": 66,
                "velocity": 12,
                "duration": 3.1568,
                "tempo": 120.0
            },
            {
                "pitch": 0,
                "velocity": 0,
                "duration": 0.0659,
                "tempo": 0
            },
            {
                "pitch": 64,
                "velocity": 12,
                "duration": 1.5341,
                "tempo": 120.0
            },
            {
                "pitch": 0,
                "velocity": 0,
                "duration": 0.0659,
                "tempo": 0
            },
            {
                "pitch": 66,
                "velocity": 12,
                "duration": 0.3364,
                "tempo": 120.0
            },
            {
                "pitch": 0,
                "velocity": 0,
                "duration": 0.0682,
                "tempo": 0
            },
            {
                "pitch": 64,
                "velocity": 12,
                "duration": 0.3386,
                "tempo": 120.0
            },
            {
                "pitch": 0,
                "velocity": 0,
                "duration": 0.0682,
                "tempo": 0
            },
            {
                "pitch": 66,
                "velocity": 12,
                "duration": 0.3364,
                "tempo": 120.0
            },
            {
                "pitch": 0,
                "velocity": 0,
                "duration": 0.0682,
                "tempo": 0
            },
            {
                "pitch": 71,
                "velocity": 12,
                "duration": 0.3386,
                "tempo": 120.0
            },
            {
                "pitch": 0,
                "velocity": 0,
                "duration": 0.0659,
                "tempo": 0
            },
            {
                "pitch": 66,
                "velocity": 12,
                "duration": 3.1545,
                "tempo": 120.0
            },
            {
                "pitch": 0,
                "velocity": 0,
                "duration": 0.0682,
                "tempo": 0
            },
            {
                "pitch": 62,
                "velocity": 12,
                "duration": 1.5318,
                "tempo": 120.0
            },
            {
                "pitch": 0,
                "velocity": 0,
                "duration": 0.0682,
                "tempo": 0
            },
            {
                "pitch": 64,
                "velocity": 12,
                "duration": 1.5523,
                "tempo": 120.0
            },
            {
                "pitch": 0,
                "velocity": 0,
                "duration": 0.0682,
                "tempo": 0
            },
            {
                "pitch": 69,
                "velocity": 12,
                "duration": 6.3568,
                "tempo": 120.0
            },
            {
                "pitch": 0,
                "velocity": 0,
                "duration": 4.8659,
                "tempo": 0
            },
            {
                "pitch": 66,
                "velocity": 12,
                "duration": 0.3364,
                "tempo": 120.0
            },
            {
                "pitch": 0,
                "velocity": 0,
                "duration": 0.0682,
                "tempo": 0
            },
            {
                "pitch": 64,
                "velocity": 12,
                "duration": 0.3386,
                "tempo": 120.0
            },
            {
                "pitch": 0,
                "velocity": 0,
                "duration": 0.0659,
                "tempo": 0
            },
            {
                "pitch": 66,
                "velocity": 12,
                "duration": 0.3386,
                "tempo": 120.0
            },
            {
                "pitch": 0,
                "velocity": 0,
                "duration": 0.0682,
                "tempo": 0
            },
            {
                "pitch": 71,
                "velocity": 12,
                "duration": 0.3364,
                "tempo": 120.0
            },
            {
                "pitch": 0,
                "velocity": 0,
                "duration": 0.0682,
                "tempo": 0
            },
            {
                "pitch": 66,
                "velocity": 12,
                "duration": 3.1341,
                "tempo": 120.0
            },
            {
                "pitch": 0,
                "velocity": 0,
                "duration": 0.0659,
                "tempo": 0
            },
            {
                "pitch": 64,
                "velocity": 12,
                "duration": 1.5545,
                "tempo": 120.0
            },
            {
                "pitch": 0,
                "velocity": 0,
                "duration": 0.0682,
                "tempo": 0
            },
            {
                "pitch": 66,
                "velocity": 12,
                "duration": 0.3318,
                "tempo": 120.0
            },
            {
                "pitch": 0,
                "velocity": 0,
                "duration": 0.0682,
                "tempo": 0
            },
            {
                "pitch": 64,
                "velocity": 12,
                "duration": 0.3318,
                "tempo": 120.0
            },
            {
                "pitch": 0,
                "velocity": 0,
                "duration": 0.0682,
                "tempo": 0
            },
            {
                "pitch": 66,
                "velocity": 12,
                "duration": 0.3318,
                "tempo": 120.0
            },
            {
                "pitch": 0,
                "velocity": 0,
                "duration": 0.0682,
                "tempo": 0
            },
            {
                "pitch": 71,
                "velocity": 12,
                "duration": 0.3318,
                "tempo": 120.0
            },
            {
                "pitch": 0,
                "velocity": 0,
                "duration": 0.0682,
                "tempo": 0
            },
            {
                "pitch": 66,
                "velocity": 12,
                "duration": 3.1545,
                "tempo": 120.0
            },
            {
                "pitch": 0,
                "velocity": 0,
                "duration": 0.0659,
                "tempo": 0
            },
            {
                "pitch": 62,
                "velocity": 12,
                "duration": 1.5341,
                "tempo": 120.0
            },
            {
                "pitch": 0,
                "velocity": 0,
                "duration": 0.0659,
                "tempo": 0
            },
            {
                "pitch": 64,
                "velocity": 12,
                "duration": 1.5545,
                "tempo": 120.0
            },
            {
                "pitch": 0,
                "velocity": 0,
                "duration": 0.0682,
                "tempo": 0
            },
            {
                "pitch": 57,
                "velocity": 12,
                "duration": 3.1523,
                "tempo": 120.0
            },
            {
                "pitch": 0,
                "velocity": 0,
                "duration": 0.0682,
                "tempo": 0
            },
            {
                "pitch": 60,
                "velocity": 12,
                "duration": 1.5341,
                "tempo": 120.0
            },
            {
                "pitch": 0,
                "velocity": 0,
                "duration": 0.0659,
                "tempo": 0
            },
            {
                "pitch": 64,
                "velocity": 12,
                "duration": 1.5341,
                "tempo": 120.0
            },
            {
                "pitch": 0,
                "velocity": 0,
                "duration": 0.0659,
                "tempo": 0
            },
            {
                "pitch": 57,
                "velocity": 12,
                "duration": 3.1545,
                "tempo": 120.0
            },
            {
                "pitch": 0,
                "velocity": 0,
                "duration": 0.0682,
                "tempo": 0
            },
            {
                "pitch": 62,
                "velocity": 12,
                "duration": 1.5523,
                "tempo": 120.0
            },
            {
                "pitch": 0,
                "velocity": 0,
                "duration": 0.0682,
                "tempo": 0
            },
            {
                "pitch": 59,
                "velocity": 12,
                "duration": 12.8182,
                "tempo": 120.0
            },
            {
                "pitch": 0,
                "velocity": 0,
                "duration": 12.9341,
                "tempo": 0
            },
            {
                "pitch": 64,
                "velocity": 12,
                "duration": 0.3341,
                "tempo": 120.0
            },
            {
                "pitch": 0,
                "velocity": 0,
                "duration": 0.0659,
                "tempo": 0
            },
            {
                "pitch": 62,
                "velocity": 12,
                "duration": 0.3341,
                "tempo": 120.0
            },
            {
                "pitch": 0,
                "velocity": 0,
                "duration": 0.0659,
                "tempo": 0
            },
            {
                "pitch": 64,
                "velocity": 12,
                "duration": 2.3341,
                "tempo": 120.0
            },
            {
                "pitch": 0,
                "velocity": 0,
                "duration": 0.0659,
                "tempo": 0
            },
            {
                "pitch": 57,
                "velocity": 12,
                "duration": 0.7432,
                "tempo": 120.0
            },
            {
                "pitch": 0,
                "velocity": 0,
                "duration": 0.0682,
                "tempo": 0
            },
            {
                "pitch": 59,
                "velocity": 12,
                "duration": 0.7432,
                "tempo": 120.0
            },
            {
                "pitch": 0,
                "velocity": 0,
                "duration": 0.0659,
                "tempo": 0
            },
            {
                "pitch": 60,
                "velocity": 12,
                "duration": 0.7341,
                "tempo": 120.0
            },
            {
                "pitch": 0,
                "velocity": 0,
                "duration": 0.0659,
                "tempo": 0
            },
            {
                "pitch": 62,
                "velocity": 12,
                "duration": 0.7341,
                "tempo": 120.0
            },
            {
                "pitch": 0,
                "velocity": 0,
                "duration": 0.0659,
                "tempo": 0
            },
            {
                "pitch": 64,
                "velocity": 12,
                "duration": 0.3386,
                "tempo": 120.0
            },
            {
                "pitch": 0,
                "velocity": 0,
                "duration": 0.0682,
                "tempo": 0
            },
            {
                "pitch": 62,
                "velocity": 12,
                "duration": 0.3364,
                "tempo": 120.0
            },
            {
                "pitch": 0,
                "velocity": 0,
                "duration": 0.0682,
                "tempo": 0
            },
            {
                "pitch": 64,
                "velocity": 12,
                "duration": 2.3227,
                "tempo": 120.0
            },
            {
                "pitch": 0,
                "velocity": 0,
                "duration": 0.0659,
                "tempo": 0
            },
            {
                "pitch": 57,
                "velocity": 12,
                "duration": 0.7432,
                "tempo": 120.0
            },
            {
                "pitch": 0,
                "velocity": 0,
                "duration": 0.0682,
                "tempo": 0
            },
            {
                "pitch": 59,
                "velocity": 12,
                "duration": 0.7432,
                "tempo": 120.0
            },
            {
                "pitch": 0,
                "velocity": 0,
                "duration": 0.0682,
                "tempo": 0
            },
            {
                "pitch": 60,
                "velocity": 12,
                "duration": 0.7432,
                "tempo": 120.0
            },
            {
                "pitch": 0,
                "velocity": 0,
                "duration": 0.0682,
                "tempo": 0
            },
            {
                "pitch": 64,
                "velocity": 12,
                "duration": 0.7432,
                "tempo": 120.0
            },
            {
                "pitch": 0,
                "velocity": 0,
                "duration": 0.0659,
                "tempo": 0
            },
            {
                "pitch": 62,
                "velocity": 12,
                "duration": 0.3386,
                "tempo": 120.0
            },
            {
                "pitch": 0,
                "velocity": 0,
                "duration": 0.0682,
                "tempo": 0
            },
            {
                "pitch": 60,
                "velocity": 12,
                "duration": 0.3364,
                "tempo": 120.0
            },
            {
                "pitch": 0,
                "velocity": 0,
                "duration": 0.0682,
                "tempo": 0
            },
            {
                "pitch": 62,
                "velocity": 12,
                "duration": 2.3455,
                "tempo": 120.0
            },
            {
                "pitch": 0,
                "velocity": 0,
                "duration": 0.0659,
                "tempo": 0
            },
            {
                "pitch": 55,
                "velocity": 12,
                "duration": 0.7341,
                "tempo": 120.0
            },
            {
                "pitch": 0,
                "velocity": 0,
                "duration": 0.0659,
                "tempo": 0
            },
            {
                "pitch": 57,
                "velocity": 12,
                "duration": 0.7341,
                "tempo": 120.0
            },
            {
                "pitch": 0,
                "velocity": 0,
                "duration": 0.0659,
                "tempo": 0
            },
            {
                "pitch": 59,
                "velocity": 12,
                "duration": 0.7341,
                "tempo": 120.0
            },
            {
                "pitch": 0,
                "velocity": 0,
                "duration": 0.0659,
                "tempo": 0
            },
            {
                "pitch": 60,
                "velocity": 12,
                "duration": 0.7341,
                "tempo": 120.0
            },
            {
                "pitch": 0,
                "velocity": 0,
                "duration": 0.0659,
                "tempo": 0
            },
            {
                "pitch": 62,
                "velocity": 12,
                "duration": 0.3364,
                "tempo": 120.0
            },
            {
                "pitch": 0,
                "velocity": 0,
                "duration": 0.0682,
                "tempo": 0
            },
            {
                "pitch": 60,
                "velocity": 12,
                "duration": 0.3386,
                "tempo": 120.0
            },
            {
                "pitch": 0,
                "velocity": 0,
                "duration": 0.0682,
                "tempo": 0
            },
            {
                "pitch": 62,
                "velocity": 12,
                "duration": 2.3432,
                "tempo": 120.0
            },
            {
                "pitch": 0,
                "velocity": 0,
                "duration": 0.0659,
                "tempo": 0
            },
            {
                "pitch": 55,
                "velocity": 12,
                "duration": 0.7341,
                "tempo": 120.0
            },
            {
                "pitch": 0,
                "velocity": 0,
                "duration": 0.0659,
                "tempo": 0
            },
            {
                "pitch": 57,
                "velocity": 12,
                "duration": 0.7341,
                "tempo": 120.0
            },
            {
                "pitch": 0,
                "velocity": 0,
                "duration": 0.0659,
                "tempo": 0
            },
            {
                "pitch": 59,
                "velocity": 12,
                "duration": 0.7341,
                "tempo": 120.0
            },
            {
                "pitch": 0,
                "velocity": 0,
                "duration": 0.0659,
                "tempo": 0
            },
            {
                "pitch": 62,
                "velocity": 12,
                "duration": 0.7341,
                "tempo": 120.0
            },
            {
                "pitch": 0,
                "velocity": 0,
                "duration": 0.0659,
                "tempo": 0
            },
            {
                "pitch": 64,
                "velocity": 12,
                "duration": 0.3386,
                "tempo": 120.0
            },
            {
                "pitch": 0,
                "velocity": 0,
                "duration": 0.0682,
                "tempo": 0
            },
            {
                "pitch": 62,
                "velocity": 12,
                "duration": 0.3364,
                "tempo": 120.0
            },
            {
                "pitch": 0,
                "velocity": 0,
                "duration": 0.0682,
                "tempo": 0
            },
            {
                "pitch": 64,
                "velocity": 12,
                "duration": 2.3227,
                "tempo": 120.0
            },
            {
                "pitch": 0,
                "velocity": 0,
                "duration": 0.0659,
                "tempo": 0
            },
            {
                "pitch": 57,
                "velocity": 12,
                "duration": 0.7432,
                "tempo": 120.0
            },
            {
                "pitch": 0,
                "velocity": 0,
                "duration": 0.0682,
                "tempo": 0
            },
            {
                "pitch": 59,
                "velocity": 12,
                "duration": 0.7432,
                "tempo": 120.0
            },
            {
                "pitch": 0,
                "velocity": 0,
                "duration": 0.0682,
                "tempo": 0
            },
            {
                "pitch": 60,
                "velocity": 12,
                "duration": 0.7318,
                "tempo": 120.0
            },
            {
                "pitch": 0,
                "velocity": 0,
                "duration": 0.0682,
                "tempo": 0
            },
            {
                "pitch": 62,
                "velocity": 12,
                "duration": 0.7318,
                "tempo": 120.0
            },
            {
                "pitch": 0,
                "velocity": 0,
                "duration": 0.0682,
                "tempo": 0
            },
            {
                "pitch": 64,
                "velocity": 12,
                "duration": 0.3364,
                "tempo": 120.0
            },
            {
                "pitch": 0,
                "velocity": 0,
                "duration": 0.0682,
                "tempo": 0
            },
            {
                "pitch": 62,
                "velocity": 12,
                "duration": 0.3386,
                "tempo": 120.0
            },
            {
                "pitch": 0,
                "velocity": 0,
                "duration": 0.0659,
                "tempo": 0
            },
            {
                "pitch": 64,
                "velocity": 12,
                "duration": 2.325,
                "tempo": 120.0
            },
            {
                "pitch": 0,
                "velocity": 0,
                "duration": 0.0659,
                "tempo": 0
            },
            {
                "pitch": 57,
                "velocity": 12,
                "duration": 0.7432,
                "tempo": 120.0
            },
            {
                "pitch": 0,
                "velocity": 0,
                "duration": 0.0659,
                "tempo": 0
            },
            {
                "pitch": 59,
                "velocity": 12,
                "duration": 0.7432,
                "tempo": 120.0
            },
            {
                "pitch": 0,
                "velocity": 0,
                "duration": 0.0682,
                "tempo": 0
            },
            {
                "pitch": 60,
                "velocity": 12,
                "duration": 0.7341,
                "tempo": 120.0
            },
            {
                "pitch": 0,
                "velocity": 0,
                "duration": 0.0659,
                "tempo": 0
            },
            {
                "pitch": 64,
                "velocity": 12,
                "duration": 0.7341,
                "tempo": 120.0
            },
            {
                "pitch": 0,
                "velocity": 0,
                "duration": 0.0659,
                "tempo": 0
            },
            {
                "pitch": 62,
                "velocity": 12,
                "duration": 0.3386,
                "tempo": 120.0
            },
            {
                "pitch": 0,
                "velocity": 0,
                "duration": 0.0659,
                "tempo": 0
            },
            {
                "pitch": 60,
                "velocity": 12,
                "duration": 0.3386,
                "tempo": 120.0
            },
            {
                "pitch": 0,
                "velocity": 0,
                "duration": 0.0682,
                "tempo": 0
            },
            {
                "pitch": 62,
                "velocity": 12,
                "duration": 2.3432,
                "tempo": 120.0
            },
            {
                "pitch": 0,
                "velocity": 0,
                "duration": 0.0659,
                "tempo": 0
            },
            {
                "pitch": 67,
                "velocity": 12,
                "duration": 0.7341,
                "tempo": 120.0
            },
            {
                "pitch": 0,
                "velocity": 0,
                "duration": 0.0659,
                "tempo": 0
            },
            {
                "pitch": 69,
                "velocity": 12,
                "duration": 0.7341,
                "tempo": 120.0
            },
            {
                "pitch": 0,
                "velocity": 0,
                "duration": 0.0659,
                "tempo": 0
            },
            {
                "pitch": 71,
                "velocity": 12,
                "duration": 0.7455,
                "tempo": 120.0
            },
            {
                "pitch": 0,
                "velocity": 0,
                "duration": 0.0659,
                "tempo": 0
            },
            {
                "pitch": 72,
                "velocity": 12,
                "duration": 0.7432,
                "tempo": 120.0
            },
            {
                "pitch": 0,
                "velocity": 0,
                "duration": 0.0682,
                "tempo": 0
            },
            {
                "pitch": 74,
                "velocity": 12,
                "duration": 1.5341,
                "tempo": 120.0
            },
            {
                "pitch": 0,
                "velocity": 0,
                "duration": 0.0659,
                "tempo": 0
            },
            {
                "pitch": 71,
                "velocity": 12,
                "duration": 1.5341,
                "tempo": 120.0
            },
            {
                "pitch": 0,
                "velocity": 0,
                "duration": 0.0659,
                "tempo": 0
            },
            {
                "pitch": 67,
                "velocity": 12,
                "duration": 0.8,
                "tempo": 120.0
            },
            {
                "pitch": 67,
                "velocity": 12,
                "duration": 0.1659,
                "tempo": 120.0
            },
            {
                "pitch": 67,
                "velocity": 12,
                "duration": 0.4341,
                "tempo": 120.0
            },
            {
                "pitch": 67,
                "velocity": 12,
                "duration": 0.1,
                "tempo": 120.0
            },
            {
                "pitch": 67,
                "velocity": 12,
                "duration": 0.0341,
                "tempo": 120.0
            },
            {
                "pitch": 0,
                "velocity": 0,
                "duration": 0.0659,
                "tempo": 0
            },
            {
                "pitch": 62,
                "velocity": 12,
                "duration": 4.7341,
                "tempo": 120.0
            }
        ],
        "Lead 2 (sawtooth)": [
            {
                "pitch": 0,
                "velocity": 0,
                "duration": 1.6227,
                "tempo": 0
            },
            {
                "pitch": 55,
                "velocity": 7,
                "duration": 0.3364,
                "tempo": 120.0
            },
            {
                "pitch": 0,
                "velocity": 0,
                "duration": 0.0682,
                "tempo": 0
            },
            {
                "pitch": 55,
                "velocity": 7,
                "duration": 0.7432,
                "tempo": 120.0
            },
            {
                "pitch": 0,
                "velocity": 0,
                "duration": 0.0682,
                "tempo": 0
            },
            {
                "pitch": 55,
                "velocity": 7,
                "duration": 3.6,
                "tempo": 120.0
            },
            {
                "pitch": 0,
                "velocity": 0,
                "duration": 1.6705,
                "tempo": 0
            },
            {
                "pitch": 55,
                "velocity": 7,
                "duration": 0.3273,
                "tempo": 120.0
            },
            {
                "pitch": 0,
                "velocity": 0,
                "duration": 0.0659,
                "tempo": 0
            },
            {
                "pitch": 55,
                "velocity": 7,
                "duration": 0.725,
                "tempo": 120.0
            },
            {
                "pitch": 0,
                "velocity": 0,
                "duration": 0.0659,
                "tempo": 0
            },
            {
                "pitch": 55,
                "velocity": 7,
                "duration": 3.5477,
                "tempo": 120.0
            },
            {
                "pitch": 0,
                "velocity": 0,
                "duration": 1.6886,
                "tempo": 0
            },
            {
                "pitch": 55,
                "velocity": 7,
                "duration": 0.3386,
                "tempo": 120.0
            },
            {
                "pitch": 0,
                "velocity": 0,
                "duration": 0.0682,
                "tempo": 0
            },
            {
                "pitch": 55,
                "velocity": 7,
                "duration": 0.7432,
                "tempo": 120.0
            },
            {
                "pitch": 0,
                "velocity": 0,
                "duration": 0.0659,
                "tempo": 0
            },
            {
                "pitch": 55,
                "velocity": 7,
                "duration": 3.5409,
                "tempo": 120.0
            },
            {
                "pitch": 0,
                "velocity": 0,
                "duration": 1.6864,
                "tempo": 0
            },
            {
                "pitch": 55,
                "velocity": 7,
                "duration": 0.3341,
                "tempo": 120.0
            },
            {
                "pitch": 0,
                "velocity": 0,
                "duration": 0.0659,
                "tempo": 0
            },
            {
                "pitch": 55,
                "velocity": 7,
                "duration": 0.7341,
                "tempo": 120.0
            },
            {
                "pitch": 0,
                "velocity": 0,
                "duration": 0.0659,
                "tempo": 0
            },
            {
                "pitch": 55,
                "velocity": 7,
                "duration": 3.5545,
                "tempo": 120.0
            },
            {
                "pitch": 0,
                "velocity": 0,
                "duration": 1.6886,
                "tempo": 0
            },
            {
                "pitch": 55,
                "velocity": 7,
                "duration": 0.3341,
                "tempo": 120.0
            },
            {
                "pitch": 0,
                "velocity": 0,
                "duration": 0.0659,
                "tempo": 0
            },
            {
                "pitch": 55,
                "velocity": 7,
                "duration": 0.7341,
                "tempo": 120.0
            },
            {
                "pitch": 0,
                "velocity": 0,
                "duration": 0.0659,
                "tempo": 0
            },
            {
                "pitch": 55,
                "velocity": 7,
                "duration": 3.575,
                "tempo": 120.0
            },
            {
                "pitch": 0,
                "velocity": 0,
                "duration": 1.6477,
                "tempo": 0
            },
            {
                "pitch": 55,
                "velocity": 7,
                "duration": 0.3318,
                "tempo": 120.0
            },
            {
                "pitch": 0,
                "velocity": 0,
                "duration": 0.0682,
                "tempo": 0
            },
            {
                "pitch": 55,
                "velocity": 7,
                "duration": 0.7318,
                "tempo": 120.0
            },
            {
                "pitch": 0,
                "velocity": 0,
                "duration": 0.0682,
                "tempo": 0
            },
            {
                "pitch": 55,
                "velocity": 7,
                "duration": 3.5318,
                "tempo": 120.0
            },
            {
                "pitch": 0,
                "velocity": 0,
                "duration": 1.6886,
                "tempo": 0
            },
            {
                "pitch": 55,
                "velocity": 7,
                "duration": 0.3341,
                "tempo": 120.0
            },
            {
                "pitch": 0,
                "velocity": 0,
                "duration": 0.0659,
                "tempo": 0
            },
            {
                "pitch": 55,
                "velocity": 7,
                "duration": 0.7341,
                "tempo": 120.0
            },
            {
                "pitch": 0,
                "velocity": 0,
                "duration": 0.0659,
                "tempo": 0
            },
            {
                "pitch": 55,
                "velocity": 7,
                "duration": 3.5545,
                "tempo": 120.0
            },
            {
                "pitch": 0,
                "velocity": 0,
                "duration": 1.6682,
                "tempo": 0
            },
            {
                "pitch": 55,
                "velocity": 7,
                "duration": 0.3364,
                "tempo": 120.0
            },
            {
                "pitch": 0,
                "velocity": 0,
                "duration": 0.0682,
                "tempo": 0
            },
            {
                "pitch": 55,
                "velocity": 7,
                "duration": 0.7432,
                "tempo": 120.0
            },
            {
                "pitch": 0,
                "velocity": 0,
                "duration": 0.0682,
                "tempo": 0
            },
            {
                "pitch": 55,
                "velocity": 7,
                "duration": 3.5386,
                "tempo": 120.0
            },
            {
                "pitch": 0,
                "velocity": 0,
                "duration": 1.6886,
                "tempo": 0
            },
            {
                "pitch": 55,
                "velocity": 7,
                "duration": 0.3318,
                "tempo": 120.0
            },
            {
                "pitch": 0,
                "velocity": 0,
                "duration": 0.0682,
                "tempo": 0
            },
            {
                "pitch": 55,
                "velocity": 7,
                "duration": 0.7318,
                "tempo": 120.0
            },
            {
                "pitch": 0,
                "velocity": 0,
                "duration": 0.0682,
                "tempo": 0
            },
            {
                "pitch": 55,
                "velocity": 7,
                "duration": 3.5545,
                "tempo": 120.0
            },
            {
                "pitch": 0,
                "velocity": 0,
                "duration": 1.6659,
                "tempo": 0
            },
            {
                "pitch": 55,
                "velocity": 7,
                "duration": 0.3386,
                "tempo": 120.0
            },
            {
                "pitch": 0,
                "velocity": 0,
                "duration": 0.0682,
                "tempo": 0
            },
            {
                "pitch": 55,
                "velocity": 7,
                "duration": 0.7432,
                "tempo": 120.0
            },
            {
                "pitch": 0,
                "velocity": 0,
                "duration": 0.0659,
                "tempo": 0
            },
            {
                "pitch": 55,
                "velocity": 7,
                "duration": 3.5591,
                "tempo": 120.0
            },
            {
                "pitch": 0,
                "velocity": 0,
                "duration": 0.0682,
                "tempo": 0
            },
            {
                "pitch": 54,
                "velocity": 7,
                "duration": 6.375,
                "tempo": 120.0
            },
            {
                "pitch": 0,
                "velocity": 0,
                "duration": 0.0682,
                "tempo": 0
            },
            {
                "pitch": 54,
                "velocity": 5,
                "duration": 6.375,
                "tempo": 120.0
            },
            {
                "pitch": 0,
                "velocity": 0,
                "duration": 0.0682,
                "tempo": 0
            },
            {
                "pitch": 54,
                "velocity": 5,
                "duration": 6.3955,
                "tempo": 120.0
            },
            {
                "pitch": 0,
                "velocity": 0,
                "duration": 0.0705,
                "tempo": 0
            },
            {
                "pitch": 54,
                "velocity": 4,
                "duration": 6.3341,
                "tempo": 120.0
            }
        ],
        "Synth Bass 1": [
            {
                "pitch": 0,
                "velocity": 0,
                "duration": 90.1409,
                "tempo": 0
            },
            {
                "pitch": 76,
                "velocity": 1,
                "duration": 0.3341,
                "tempo": 120.0
            },
            {
                "pitch": 0,
                "velocity": 0,
                "duration": 0.0659,
                "tempo": 0
            },
            {
                "pitch": 72,
                "velocity": 1,
                "duration": 0.3341,
                "tempo": 120.0
            },
            {
                "pitch": 0,
                "velocity": 0,
                "duration": 0.0659,
                "tempo": 0
            },
            {
                "pitch": 69,
                "velocity": 1,
                "duration": 0.3341,
                "tempo": 120.0
            },
            {
                "pitch": 0,
                "velocity": 0,
                "duration": 0.0659,
                "tempo": 0
            },
            {
                "pitch": 65,
                "velocity": 1,
                "duration": 0.3341,
                "tempo": 120.0
            },
            {
                "pitch": 0,
                "velocity": 0,
                "duration": 0.0659,
                "tempo": 0
            },
            {
                "pitch": 76,
                "velocity": 1,
                "duration": 0.3341,
                "tempo": 120.0
            },
            {
                "pitch": 0,
                "velocity": 0,
                "duration": 0.0659,
                "tempo": 0
            },
            {
                "pitch": 72,
                "velocity": 1,
                "duration": 0.3341,
                "tempo": 120.0
            },
            {
                "pitch": 0,
                "velocity": 0,
                "duration": 0.0659,
                "tempo": 0
            },
            {
                "pitch": 69,
                "velocity": 1,
                "duration": 0.3341,
                "tempo": 120.0
            },
            {
                "pitch": 0,
                "velocity": 0,
                "duration": 0.0659,
                "tempo": 0
            },
            {
                "pitch": 65,
                "velocity": 1,
                "duration": 0.3341,
                "tempo": 120.0
            },
            {
                "pitch": 0,
                "velocity": 0,
                "duration": 0.0659,
                "tempo": 0
            },
            {
                "pitch": 76,
                "velocity": 1,
                "duration": 0.3386,
                "tempo": 120.0
            },
            {
                "pitch": 0,
                "velocity": 0,
                "duration": 0.0659,
                "tempo": 0
            },
            {
                "pitch": 72,
                "velocity": 1,
                "duration": 0.3386,
                "tempo": 120.0
            },
            {
                "pitch": 0,
                "velocity": 0,
                "duration": 0.0682,
                "tempo": 0
            },
            {
                "pitch": 69,
                "velocity": 1,
                "duration": 0.3364,
                "tempo": 120.0
            },
            {
                "pitch": 0,
                "velocity": 0,
                "duration": 0.0682,
                "tempo": 0
            },
            {
                "pitch": 65,
                "velocity": 1,
                "duration": 0.3386,
                "tempo": 120.0
            },
            {
                "pitch": 0,
                "velocity": 0,
                "duration": 0.0659,
                "tempo": 0
            },
            {
                "pitch": 76,
                "velocity": 1,
                "duration": 0.3341,
                "tempo": 120.0
            },
            {
                "pitch": 0,
                "velocity": 0,
                "duration": 0.0659,
                "tempo": 0
            },
            {
                "pitch": 72,
                "velocity": 1,
                "duration": 0.3341,
                "tempo": 120.0
            },
            {
                "pitch": 0,
                "velocity": 0,
                "duration": 0.0659,
                "tempo": 0
            },
            {
                "pitch": 69,
                "velocity": 1,
                "duration": 0.3341,
                "tempo": 120.0
            },
            {
                "pitch": 0,
                "velocity": 0,
                "duration": 0.0659,
                "tempo": 0
            },
            {
                "pitch": 65,
                "velocity": 1,
                "duration": 0.3341,
                "tempo": 120.0
            },
            {
                "pitch": 0,
                "velocity": 0,
                "duration": 0.0659,
                "tempo": 0
            },
            {
                "pitch": 76,
                "velocity": 1,
                "duration": 0.3386,
                "tempo": 120.0
            },
            {
                "pitch": 0,
                "velocity": 0,
                "duration": 0.0682,
                "tempo": 0
            },
            {
                "pitch": 72,
                "velocity": 1,
                "duration": 0.3364,
                "tempo": 120.0
            },
            {
                "pitch": 0,
                "velocity": 0,
                "duration": 0.0682,
                "tempo": 0
            },
            {
                "pitch": 69,
                "velocity": 1,
                "duration": 0.3386,
                "tempo": 120.0
            },
            {
                "pitch": 0,
                "velocity": 0,
                "duration": 0.0659,
                "tempo": 0
            },
            {
                "pitch": 65,
                "velocity": 1,
                "duration": 0.3386,
                "tempo": 120.0
            },
            {
                "pitch": 0,
                "velocity": 0,
                "duration": 0.0682,
                "tempo": 0
            },
            {
                "pitch": 76,
                "velocity": 1,
                "duration": 0.3273,
                "tempo": 120.0
            },
            {
                "pitch": 0,
                "velocity": 0,
                "duration": 0.0659,
                "tempo": 0
            },
            {
                "pitch": 72,
                "velocity": 1,
                "duration": 0.3295,
                "tempo": 120.0
            },
            {
                "pitch": 0,
                "velocity": 0,
                "duration": 0.0659,
                "tempo": 0
            },
            {
                "pitch": 69,
                "velocity": 1,
                "duration": 0.3295,
                "tempo": 120.0
            },
            {
                "pitch": 0,
                "velocity": 0,
                "duration": 0.0659,
                "tempo": 0
            },
            {
                "pitch": 65,
                "velocity": 1,
                "duration": 0.3273,
                "tempo": 120.0
            },
            {
                "pitch": 0,
                "velocity": 0,
                "duration": 0.0659,
                "tempo": 0
            },
            {
                "pitch": 76,
                "velocity": 1,
                "duration": 0.3386,
                "tempo": 120.0
            },
            {
                "pitch": 0,
                "velocity": 0,
                "duration": 0.0682,
                "tempo": 0
            },
            {
                "pitch": 72,
                "velocity": 1,
                "duration": 0.3364,
                "tempo": 120.0
            },
            {
                "pitch": 0,
                "velocity": 0,
                "duration": 0.0682,
                "tempo": 0
            },
            {
                "pitch": 69,
                "velocity": 1,
                "duration": 0.3386,
                "tempo": 120.0
            },
            {
                "pitch": 0,
                "velocity": 0,
                "duration": 0.0659,
                "tempo": 0
            },
            {
                "pitch": 65,
                "velocity": 1,
                "duration": 0.3386,
                "tempo": 120.0
            },
            {
                "pitch": 0,
                "velocity": 0,
                "duration": 0.0682,
                "tempo": 0
            },
            {
                "pitch": 76,
                "velocity": 1,
                "duration": 0.3386,
                "tempo": 120.0
            },
            {
                "pitch": 0,
                "velocity": 0,
                "duration": 0.0659,
                "tempo": 0
            },
            {
                "pitch": 72,
                "velocity": 1,
                "duration": 0.3386,
                "tempo": 120.0
            },
            {
                "pitch": 0,
                "velocity": 0,
                "duration": 0.0682,
                "tempo": 0
            },
            {
                "pitch": 69,
                "velocity": 1,
                "duration": 0.3364,
                "tempo": 120.0
            },
            {
                "pitch": 0,
                "velocity": 0,
                "duration": 0.0682,
                "tempo": 0
            },
            {
                "pitch": 65,
                "velocity": 1,
                "duration": 0.3386,
                "tempo": 120.0
            },
            {
                "pitch": 0,
                "velocity": 0,
                "duration": 0.0659,
                "tempo": 0
            },
            {
                "pitch": 74,
                "velocity": 1,
                "duration": 0.3386,
                "tempo": 120.0
            },
            {
                "pitch": 0,
                "velocity": 0,
                "duration": 0.0682,
                "tempo": 0
            },
            {
                "pitch": 71,
                "velocity": 1,
                "duration": 0.3364,
                "tempo": 120.0
            },
            {
                "pitch": 0,
                "velocity": 0,
                "duration": 0.0682,
                "tempo": 0
            },
            {
                "pitch": 67,
                "velocity": 1,
                "duration": 0.3386,
                "tempo": 120.0
            },
            {
                "pitch": 0,
                "velocity": 0,
                "duration": 0.0682,
                "tempo": 0
            },
            {
                "pitch": 64,
                "velocity": 1,
                "duration": 0.3364,
                "tempo": 120.0
            },
            {
                "pitch": 0,
                "velocity": 0,
                "duration": 0.0682,
                "tempo": 0
            },
            {
                "pitch": 74,
                "velocity": 1,
                "duration": 0.3341,
                "tempo": 120.0
            },
            {
                "pitch": 0,
                "velocity": 0,
                "duration": 0.0659,
                "tempo": 0
            },
            {
                "pitch": 71,
                "velocity": 1,
                "duration": 0.3341,
                "tempo": 120.0
            },
            {
                "pitch": 0,
                "velocity": 0,
                "duration": 0.0659,
                "tempo": 0
            },
            {
                "pitch": 67,
                "velocity": 1,
                "duration": 0.3341,
                "tempo": 120.0
            },
            {
                "pitch": 0,
                "velocity": 0,
                "duration": 0.0659,
                "tempo": 0
            },
            {
                "pitch": 64,
                "velocity": 1,
                "duration": 0.3341,
                "tempo": 120.0
            },
            {
                "pitch": 0,
                "velocity": 0,
                "duration": 0.0659,
                "tempo": 0
            },
            {
                "pitch": 74,
                "velocity": 1,
                "duration": 0.3341,
                "tempo": 120.0
            },
            {
                "pitch": 0,
                "velocity": 0,
                "duration": 0.0659,
                "tempo": 0
            },
            {
                "pitch": 71,
                "velocity": 1,
                "duration": 0.3341,
                "tempo": 120.0
            },
            {
                "pitch": 0,
                "velocity": 0,
                "duration": 0.0659,
                "tempo": 0
            },
            {
                "pitch": 67,
                "velocity": 1,
                "duration": 0.3341,
                "tempo": 120.0
            },
            {
                "pitch": 0,
                "velocity": 0,
                "duration": 0.0659,
                "tempo": 0
            },
            {
                "pitch": 64,
                "velocity": 1,
                "duration": 0.3341,
                "tempo": 120.0
            },
            {
                "pitch": 0,
                "velocity": 0,
                "duration": 0.0659,
                "tempo": 0
            },
            {
                "pitch": 74,
                "velocity": 1,
                "duration": 0.3341,
                "tempo": 120.0
            },
            {
                "pitch": 0,
                "velocity": 0,
                "duration": 0.0659,
                "tempo": 0
            },
            {
                "pitch": 71,
                "velocity": 1,
                "duration": 0.3341,
                "tempo": 120.0
            },
            {
                "pitch": 0,
                "velocity": 0,
                "duration": 0.0659,
                "tempo": 0
            },
            {
                "pitch": 67,
                "velocity": 1,
                "duration": 0.3341,
                "tempo": 120.0
            },
            {
                "pitch": 0,
                "velocity": 0,
                "duration": 0.0659,
                "tempo": 0
            },
            {
                "pitch": 64,
                "velocity": 1,
                "duration": 0.3341,
                "tempo": 120.0
            },
            {
                "pitch": 0,
                "velocity": 0,
                "duration": 0.0659,
                "tempo": 0
            },
            {
                "pitch": 74,
                "velocity": 1,
                "duration": 0.3364,
                "tempo": 120.0
            },
            {
                "pitch": 0,
                "velocity": 0,
                "duration": 0.0682,
                "tempo": 0
            },
            {
                "pitch": 71,
                "velocity": 1,
                "duration": 0.3386,
                "tempo": 120.0
            },
            {
                "pitch": 0,
                "velocity": 0,
                "duration": 0.0682,
                "tempo": 0
            },
            {
                "pitch": 67,
                "velocity": 1,
                "duration": 0.3364,
                "tempo": 120.0
            },
            {
                "pitch": 0,
                "velocity": 0,
                "duration": 0.0682,
                "tempo": 0
            },
            {
                "pitch": 64,
                "velocity": 1,
                "duration": 0.3386,
                "tempo": 120.0
            },
            {
                "pitch": 0,
                "velocity": 0,
                "duration": 0.0659,
                "tempo": 0
            },
            {
                "pitch": 74,
                "velocity": 1,
                "duration": 0.3341,
                "tempo": 120.0
            },
            {
                "pitch": 0,
                "velocity": 0,
                "duration": 0.0659,
                "tempo": 0
            },
            {
                "pitch": 71,
                "velocity": 1,
                "duration": 0.3341,
                "tempo": 120.0
            },
            {
                "pitch": 0,
                "velocity": 0,
                "duration": 0.0659,
                "tempo": 0
            },
            {
                "pitch": 67,
                "velocity": 1,
                "duration": 0.3341,
                "tempo": 120.0
            },
            {
                "pitch": 0,
                "velocity": 0,
                "duration": 0.0659,
                "tempo": 0
            },
            {
                "pitch": 64,
                "velocity": 1,
                "duration": 0.3341,
                "tempo": 120.0
            },
            {
                "pitch": 0,
                "velocity": 0,
                "duration": 0.0659,
                "tempo": 0
            },
            {
                "pitch": 74,
                "velocity": 1,
                "duration": 0.3341,
                "tempo": 120.0
            },
            {
                "pitch": 0,
                "velocity": 0,
                "duration": 0.0659,
                "tempo": 0
            },
            {
                "pitch": 71,
                "velocity": 1,
                "duration": 0.3341,
                "tempo": 120.0
            },
            {
                "pitch": 0,
                "velocity": 0,
                "duration": 0.0659,
                "tempo": 0
            },
            {
                "pitch": 67,
                "velocity": 1,
                "duration": 0.3341,
                "tempo": 120.0
            },
            {
                "pitch": 0,
                "velocity": 0,
                "duration": 0.0659,
                "tempo": 0
            },
            {
                "pitch": 64,
                "velocity": 1,
                "duration": 0.3341,
                "tempo": 120.0
            },
            {
                "pitch": 0,
                "velocity": 0,
                "duration": 0.0659,
                "tempo": 0
            },
            {
                "pitch": 74,
                "velocity": 1,
                "duration": 0.3341,
                "tempo": 120.0
            },
            {
                "pitch": 0,
                "velocity": 0,
                "duration": 0.0659,
                "tempo": 0
            },
            {
                "pitch": 71,
                "velocity": 1,
                "duration": 0.3341,
                "tempo": 120.0
            },
            {
                "pitch": 0,
                "velocity": 0,
                "duration": 0.0659,
                "tempo": 0
            },
            {
                "pitch": 67,
                "velocity": 1,
                "duration": 0.3341,
                "tempo": 120.0
            },
            {
                "pitch": 0,
                "velocity": 0,
                "duration": 0.0659,
                "tempo": 0
            },
            {
                "pitch": 64,
                "velocity": 1,
                "duration": 0.3341,
                "tempo": 120.0
            },
            {
                "pitch": 0,
                "velocity": 0,
                "duration": 0.0659,
                "tempo": 0
            },
            {
                "pitch": 76,
                "velocity": 1,
                "duration": 0.3386,
                "tempo": 120.0
            },
            {
                "pitch": 0,
                "velocity": 0,
                "duration": 0.0682,
                "tempo": 0
            },
            {
                "pitch": 72,
                "velocity": 1,
                "duration": 0.3364,
                "tempo": 120.0
            },
            {
                "pitch": 0,
                "velocity": 0,
                "duration": 0.0682,
                "tempo": 0
            },
            {
                "pitch": 69,
                "velocity": 1,
                "duration": 0.3386,
                "tempo": 120.0
            },
            {
                "pitch": 0,
                "velocity": 0,
                "duration": 0.0659,
                "tempo": 0
            },
            {
                "pitch": 65,
                "velocity": 1,
                "duration": 0.3386,
                "tempo": 120.0
            },
            {
                "pitch": 0,
                "velocity": 0,
                "duration": 0.0659,
                "tempo": 0
            },
            {
                "pitch": 76,
                "velocity": 1,
                "duration": 0.3295,
                "tempo": 120.0
            },
            {
                "pitch": 0,
                "velocity": 0,
                "duration": 0.0659,
                "tempo": 0
            },
            {
                "pitch": 72,
                "velocity": 1,
                "duration": 0.3295,
                "tempo": 120.0
            },
            {
                "pitch": 0,
                "velocity": 0,
                "duration": 0.0659,
                "tempo": 0
            },
            {
                "pitch": 69,
                "velocity": 1,
                "duration": 0.3295,
                "tempo": 120.0
            },
            {
                "pitch": 0,
                "velocity": 0,
                "duration": 0.0636,
                "tempo": 0
            },
            {
                "pitch": 65,
                "velocity": 1,
                "duration": 0.3295,
                "tempo": 120.0
            },
            {
                "pitch": 0,
                "velocity": 0,
                "duration": 0.0659,
                "tempo": 0
            },
            {
                "pitch": 76,
                "velocity": 1,
                "duration": 0.3386,
                "tempo": 120.0
            },
            {
                "pitch": 0,
                "velocity": 0,
                "duration": 0.0682,
                "tempo": 0
            },
            {
                "pitch": 72,
                "velocity": 1,
                "duration": 0.3364,
                "tempo": 120.0
            },
            {
                "pitch": 0,
                "velocity": 0,
                "duration": 0.0682,
                "tempo": 0
            },
            {
                "pitch": 69,
                "velocity": 1,
                "duration": 0.3386,
                "tempo": 120.0
            },
            {
                "pitch": 0,
                "velocity": 0,
                "duration": 0.0659,
                "tempo": 0
            },
            {
                "pitch": 65,
                "velocity": 1,
                "duration": 0.3386,
                "tempo": 120.0
            },
            {
                "pitch": 0,
                "velocity": 0,
                "duration": 0.0682,
                "tempo": 0
            },
            {
                "pitch": 76,
                "velocity": 1,
                "duration": 0.3318,
                "tempo": 120.0
            },
            {
                "pitch": 0,
                "velocity": 0,
                "duration": 0.0682,
                "tempo": 0
            },
            {
                "pitch": 72,
                "velocity": 1,
                "duration": 0.3318,
                "tempo": 120.0
            },
            {
                "pitch": 0,
                "velocity": 0,
                "duration": 0.0682,
                "tempo": 0
            },
            {
                "pitch": 69,
                "velocity": 1,
                "duration": 0.3318,
                "tempo": 120.0
            },
            {
                "pitch": 0,
                "velocity": 0,
                "duration": 0.0682,
                "tempo": 0
            },
            {
                "pitch": 65,
                "velocity": 1,
                "duration": 0.3318,
                "tempo": 120.0
            },
            {
                "pitch": 0,
                "velocity": 0,
                "duration": 0.0682,
                "tempo": 0
            },
            {
                "pitch": 76,
                "velocity": 1,
                "duration": 0.3364,
                "tempo": 120.0
            },
            {
                "pitch": 0,
                "velocity": 0,
                "duration": 0.0682,
                "tempo": 0
            },
            {
                "pitch": 72,
                "velocity": 1,
                "duration": 0.3386,
                "tempo": 120.0
            },
            {
                "pitch": 0,
                "velocity": 0,
                "duration": 0.0659,
                "tempo": 0
            },
            {
                "pitch": 69,
                "velocity": 1,
                "duration": 0.3386,
                "tempo": 120.0
            },
            {
                "pitch": 0,
                "velocity": 0,
                "duration": 0.0682,
                "tempo": 0
            },
            {
                "pitch": 65,
                "velocity": 1,
                "duration": 0.3364,
                "tempo": 120.0
            },
            {
                "pitch": 0,
                "velocity": 0,
                "duration": 0.0682,
                "tempo": 0
            },
            {
                "pitch": 76,
                "velocity": 1,
                "duration": 0.3295,
                "tempo": 120.0
            },
            {
                "pitch": 0,
                "velocity": 0,
                "duration": 0.0659,
                "tempo": 0
            },
            {
                "pitch": 72,
                "velocity": 1,
                "duration": 0.3273,
                "tempo": 120.0
            },
            {
                "pitch": 0,
                "velocity": 0,
                "duration": 0.0659,
                "tempo": 0
            },
            {
                "pitch": 69,
                "velocity": 1,
                "duration": 0.3295,
                "tempo": 120.0
            },
            {
                "pitch": 0,
                "velocity": 0,
                "duration": 0.0659,
                "tempo": 0
            },
            {
                "pitch": 65,
                "velocity": 1,
                "duration": 0.3295,
                "tempo": 120.0
            },
            {
                "pitch": 0,
                "velocity": 0,
                "duration": 0.0659,
                "tempo": 0
            },
            {
                "pitch": 76,
                "velocity": 1,
                "duration": 0.3364,
                "tempo": 120.0
            },
            {
                "pitch": 0,
                "velocity": 0,
                "duration": 0.0682,
                "tempo": 0
            },
            {
                "pitch": 72,
                "velocity": 1,
                "duration": 0.3386,
                "tempo": 120.0
            },
            {
                "pitch": 0,
                "velocity": 0,
                "duration": 0.0659,
                "tempo": 0
            },
            {
                "pitch": 69,
                "velocity": 1,
                "duration": 0.3386,
                "tempo": 120.0
            },
            {
                "pitch": 0,
                "velocity": 0,
                "duration": 0.0682,
                "tempo": 0
            },
            {
                "pitch": 65,
                "velocity": 1,
                "duration": 0.3364,
                "tempo": 120.0
            },
            {
                "pitch": 0,
                "velocity": 0,
                "duration": 0.0682,
                "tempo": 0
            },
            {
                "pitch": 76,
                "velocity": 1,
                "duration": 0.3341,
                "tempo": 120.0
            },
            {
                "pitch": 0,
                "velocity": 0,
                "duration": 0.0659,
                "tempo": 0
            },
            {
                "pitch": 72,
                "velocity": 1,
                "duration": 0.3341,
                "tempo": 120.0
            },
            {
                "pitch": 0,
                "velocity": 0,
                "duration": 0.0659,
                "tempo": 0
            },
            {
                "pitch": 69,
                "velocity": 1,
                "duration": 0.3341,
                "tempo": 120.0
            },
            {
                "pitch": 0,
                "velocity": 0,
                "duration": 0.0659,
                "tempo": 0
            },
            {
                "pitch": 65,
                "velocity": 1,
                "duration": 0.3341,
                "tempo": 120.0
            },
            {
                "pitch": 0,
                "velocity": 0,
                "duration": 0.0659,
                "tempo": 0
            },
            {
                "pitch": 74,
                "velocity": 1,
                "duration": 0.3386,
                "tempo": 120.0
            },
            {
                "pitch": 0,
                "velocity": 0,
                "duration": 0.0659,
                "tempo": 0
            },
            {
                "pitch": 71,
                "velocity": 1,
                "duration": 0.3386,
                "tempo": 120.0
            },
            {
                "pitch": 0,
                "velocity": 0,
                "duration": 0.0682,
                "tempo": 0
            },
            {
                "pitch": 67,
                "velocity": 1,
                "duration": 0.3364,
                "tempo": 120.0
            },
            {
                "pitch": 0,
                "velocity": 0,
                "duration": 0.0682,
                "tempo": 0
            },
            {
                "pitch": 64,
                "velocity": 1,
                "duration": 0.3386,
                "tempo": 120.0
            },
            {
                "pitch": 0,
                "velocity": 0,
                "duration": 0.0659,
                "tempo": 0
            },
            {
                "pitch": 74,
                "velocity": 1,
                "duration": 0.3341,
                "tempo": 120.0
            },
            {
                "pitch": 0,
                "velocity": 0,
                "duration": 0.0659,
                "tempo": 0
            },
            {
                "pitch": 71,
                "velocity": 1,
                "duration": 0.3341,
                "tempo": 120.0
            },
            {
                "pitch": 0,
                "velocity": 0,
                "duration": 0.0659,
                "tempo": 0
            },
            {
                "pitch": 67,
                "velocity": 1,
                "duration": 0.3341,
                "tempo": 120.0
            },
            {
                "pitch": 0,
                "velocity": 0,
                "duration": 0.0659,
                "tempo": 0
            },
            {
                "pitch": 64,
                "velocity": 1,
                "duration": 0.3341,
                "tempo": 120.0
            },
            {
                "pitch": 0,
                "velocity": 0,
                "duration": 0.0659,
                "tempo": 0
            },
            {
                "pitch": 74,
                "velocity": 1,
                "duration": 0.3341,
                "tempo": 120.0
            },
            {
                "pitch": 0,
                "velocity": 0,
                "duration": 0.0659,
                "tempo": 0
            },
            {
                "pitch": 71,
                "velocity": 1,
                "duration": 0.3341,
                "tempo": 120.0
            },
            {
                "pitch": 0,
                "velocity": 0,
                "duration": 0.0659,
                "tempo": 0
            },
            {
                "pitch": 67,
                "velocity": 1,
                "duration": 0.3341,
                "tempo": 120.0
            },
            {
                "pitch": 0,
                "velocity": 0,
                "duration": 0.0659,
                "tempo": 0
            },
            {
                "pitch": 64,
                "velocity": 1,
                "duration": 0.3341,
                "tempo": 120.0
            },
            {
                "pitch": 0,
                "velocity": 0,
                "duration": 0.0659,
                "tempo": 0
            },
            {
                "pitch": 74,
                "velocity": 1,
                "duration": 0.3386,
                "tempo": 120.0
            },
            {
                "pitch": 0,
                "velocity": 0,
                "duration": 0.0682,
                "tempo": 0
            },
            {
                "pitch": 71,
                "velocity": 1,
                "duration": 0.3386,
                "tempo": 120.0
            },
            {
                "pitch": 0,
                "velocity": 0,
                "duration": 0.0659,
                "tempo": 0
            },
            {
                "pitch": 67,
                "velocity": 1,
                "duration": 0.3386,
                "tempo": 120.0
            },
            {
                "pitch": 0,
                "velocity": 0,
                "duration": 0.0682,
                "tempo": 0
            },
            {
                "pitch": 64,
                "velocity": 1,
                "duration": 0.3364,
                "tempo": 120.0
            }
        ],
        "Acoustic Grand Piano": [
            {
                "pitch": 0,
                "velocity": 0,
                "duration": 147.9818,
                "tempo": 0
            },
            {
                "pitch": 108,
                "velocity": 15,
                "duration": 0.1,
                "tempo": 120.0
            }
        ]
    }
}