{
    "mood": "happy",
    "instruments": {
        "Electric Piano 1": [
            {
                "start_time": 0.2659091,
                "end_time": 0.7568182,
                "pitch": 69,
                "velocity": 64,
                "duration": 0.4909091,
                "tempo": 120.0
            },
            {
                "start_time": 0.7568182,
                "end_time": 1.2363636,
                "pitch": 64,
                "velocity": 64,
                "duration": 0.4795455,
                "tempo": 120.0
            },
            {
                "start_time": 1.2363636,
                "end_time": 1.3954545,
                "pitch": 66,
                "velocity": 64,
                "duration": 0.1590909,
                "tempo": 120.0
            },
            {
                "start_time": 1.2363636,
                "end_time": 1.3954545,
                "pitch": 66,
                "velocity": 64,
                "duration": 0.1590909,
                "tempo": 120.0
            },
            {
                "start_time": 1.3954545,
                "end_time": 1.5522727,
                "pitch": 67,
                "velocity": 64,
                "duration": 0.1568182,
                "tempo": 120.0
            },
            {
                "start_time": 1.7068182,
                "end_time": 1.8659091,
                "pitch": 67,
                "velocity": 64,
                "duration": 0.1590909,
                "tempo": 120.0
            },
            {
                "start_time": 1.8659091,
                "end_time": 2.025,
                "pitch": 67,
                "velocity": 64,
                "duration": 0.1590909,
                "tempo": 120.0
            },
            {
                "start_time": 2.025,
                "end_time": 2.1863636,
                "pitch": 66,
                "velocity": 64,
                "duration": 0.1613636,
                "tempo": 120.0
            },
            {
                "start_time": 2.1863636,
                "end_time": 2.3454545,
                "pitch": 67,
                "velocity": 64,
                "duration": 0.1590909,
                "tempo": 120.0
            },
            {
                "start_time": 2.025,
                "end_time": 2.3454545,
                "pitch": 79,
                "velocity": 64,
                "duration": 0.3204545,
                "tempo": 120.0
            },
            {
                "start_time": 2.3454545,
                "end_time": 2.5068182,
                "pitch": 66,
                "velocity": 64,
                "duration": 0.1613636,
                "tempo": 120.0
            },
            {
                "start_time": 2.5068182,
                "end_time": 2.8295455,
                "pitch": 62,
                "velocity": 64,
                "duration": 0.3227273,
                "tempo": 120.0
            },
            {
                "start_time": 2.5068182,
                "end_time": 2.8295455,
                "pitch": 62,
                "velocity": 64,
                "duration": 0.3227273,
                "tempo": 120.0
            },
            {
                "start_time": 2.8295455,
                "end_time": 3.2954545,
                "pitch": 66,
                "velocity": 64,
                "duration": 0.4659091,
                "tempo": 120.0
            },
            {
                "start_time": 2.8295455,
                "end_time": 3.2954545,
                "pitch": 66,
                "velocity": 64,
                "duration": 0.4659091,
                "tempo": 120.0
            },
            {
                "start_time": 3.2954545,
                "end_time": 3.6159091,
                "pitch": 62,
                "velocity": 64,
                "duration": 0.3204545,
                "tempo": 120.0
            },
            {
                "start_time": 3.2954545,
                "end_time": 3.6159091,
                "pitch": 62,
                "velocity": 64,
                "duration": 0.3204545,
                "tempo": 120.0
            },
            {
                "start_time": 3.6159091,
                "end_time": 3.775,
                "pitch": 66,
                "velocity": 64,
                "duration": 0.1590909,
                "tempo": 120.0
            },
            {
                "start_time": 3.775,
                "end_time": 3.9363636,
                "pitch": 68,
                "velocity": 64,
                "duration": 0.1613636,
                "tempo": 120.0
            },
            {
                "start_time": 3.9363636,
                "end_time": 4.2568182,
                "pitch": 69,
                "velocity": 64,
                "duration": 0.3204545,
                "tempo": 120.0
            },
            {
                "start_time": 4.2568182,
                "end_time": 4.4159091,
                "pitch": 68,
                "velocity": 64,
                "duration": 0.1590909,
                "tempo": 120.0
            },
            {
                "start_time": 4.4159091,
                "end_time": 4.575,
                "pitch": 69,
                "velocity": 64,
                "duration": 0.1590909,
                "tempo": 120.0
            },
            {
                "start_time": 4.575,
                "end_time": 5.3704545,
                "pitch": 71,
                "velocity": 64,
                "duration": 0.7954545,
                "tempo": 120.0
            },
            {
                "start_time": 4.575,
                "end_time": 5.3704545,
                "pitch": 71,
                "velocity": 64,
                "duration": 0.7954545,
                "tempo": 120.0
            },
            {
                "start_time": 5.3704545,
                "end_time": 5.8454545,
                "pitch": 69,
                "velocity": 64,
                "duration": 0.475,
                "tempo": 120.0
            },
            {
                "start_time": 0.7568182,
                "end_time": 5.8454545,
                "pitch": 78,
                "velocity": 64,
                "duration": 5.0886364,
                "tempo": 120.0
            },
            {
                "start_time": 5.8454545,
                "end_time": 6.325,
                "pitch": 64,
                "velocity": 64,
                "duration": 0.4795455,
                "tempo": 120.0
            },
            {
                "start_time": 6.325,
                "end_time": 6.4863636,
                "pitch": 66,
                "velocity": 64,
                "duration": 0.1613636,
                "tempo": 120.0
            },
            {
                "start_time": 6.325,
                "end_time": 6.4863636,
                "pitch": 66,
                "velocity": 64,
                "duration": 0.1613636,
                "tempo": 120.0
            },
            {
                "start_time": 6.4863636,
                "end_time": 6.6454545,
                "pitch": 67,
                "velocity": 64,
                "duration": 0.1590909,
                "tempo": 120.0
            },
            {
                "start_time": 6.8045455,
                "end_time": 6.9659091,
                "pitch": 67,
                "velocity": 64,
                "duration": 0.1613636,
                "tempo": 120.0
            },
            {
                "start_time": 6.9659091,
                "end_time": 7.125,
                "pitch": 67,
                "velocity": 64,
                "duration": 0.1590909,
                "tempo": 120.0
            },
            {
                "start_time": 7.125,
                "end_time": 7.2840909,
                "pitch": 66,
                "velocity": 64,
                "duration": 0.1590909,
                "tempo": 120.0
            },
            {
                "start_time": 7.2840909,
                "end_time": 7.4454545,
                "pitch": 67,
                "velocity": 64,
                "duration": 0.1613636,
                "tempo": 120.0
            },
            {
                "start_time": 7.4454545,
                "end_time": 7.6090909,
                "pitch": 66,
                "velocity": 64,
                "duration": 0.1636364,
                "tempo": 120.0
            },
            {
                "start_time": 7.6090909,
                "end_time": 7.9295455,
                "pitch": 62,
                "velocity": 64,
                "duration": 0.3204545,
                "tempo": 120.0
            },
            {
                "start_time": 7.9295455,
                "end_time": 8.4045455,
                "pitch": 66,
                "velocity": 64,
                "duration": 0.475,
                "tempo": 120.0
            },
            {
                "start_time": 8.4045455,
                "end_time": 8.725,
                "pitch": 62,
                "velocity": 64,
                "duration": 0.3204545,
                "tempo": 120.0
            },
            {
                "start_time": 8.725,
                "end_time": 8.8840909,
                "pitch": 66,
                "velocity": 64,
                "duration": 0.1590909,
                "tempo": 120.0
            },
            {
                "start_time": 8.725,
                "end_time": 8.8840909,
                "pitch": 66,
                "velocity": 64,
                "duration": 0.1590909,
                "tempo": 120.0
            },
            {
                "start_time": 8.8840909,
                "end_time": 9.0454545,
                "pitch": 68,
                "velocity": 64,
                "duration": 0.1613636,
                "tempo": 120.0
            },
            {
                "start_time": 9.0454545,
                "end_time": 9.3636364,
                "pitch": 69,
                "velocity": 64,
                "duration": 0.3181818,
                "tempo": 120.0
            },
            {
                "start_time": 9.3636364,
                "end_time": 9.5204545,
                "pitch": 68,
                "velocity": 64,
                "duration": 0.1568182,
                "tempo": 120.0
            },
            {
                "start_time": 9.5204545,
                "end_time": 9.675,
                "pitch": 69,
                "velocity": 64,
                "duration": 0.1545455,
                "tempo": 120.0
            },
            {
                "start_time": 9.675,
                "end_time": 10.3159091,
                "pitch": 71,
                "velocity": 64,
                "duration": 0.6409091,
                "tempo": 120.0
            },
            {
                "start_time": 9.675,
                "end_time": 10.3159091,
                "pitch": 71,
                "velocity": 64,
                "duration": 0.6409091,
                "tempo": 120.0
            },
            {
                "start_time": 12.0636364,
                "end_time": 12.5454545,
                "pitch": 69,
                "velocity": 64,
                "duration": 0.4818182,
                "tempo": 120.0
            }
        ],
        "Acoustic Bass": [
            {
                "start_time": 0.1068182,
                "end_time": 0.2659091,
                "pitch": 33,
                "velocity": 127,
                "duration": 0.1590909,
                "tempo": 120.0
            },
            {
                "start_time": 0.2659091,
                "end_time": 0.425,
                "pitch": 33,
                "velocity": 127,
                "duration": 0.1590909,
                "tempo": 120.0
            },
            {
                "start_time": 0.425,
                "end_time": 0.5909091,
                "pitch": 45,
                "velocity": 127,
                "duration": 0.1659091,
                "tempo": 120.0
            },
            {
                "start_time": 0.5909091,
                "end_time": 0.7568182,
                "pitch": 33,
                "velocity": 127,
                "duration": 0.1659091,
                "tempo": 120.0
            },
            {
                "start_time": 0.7568182,
                "end_time": 0.9159091,
                "pitch": 33,
                "velocity": 127,
                "duration": 0.1590909,
                "tempo": 120.0
            },
            {
                "start_time": 0.9159091,
                "end_time": 1.0772727,
                "pitch": 33,
                "velocity": 127,
                "duration": 0.1613636,
                "tempo": 120.0
            },
            {
                "start_time": 1.0772727,
                "end_time": 1.2363636,
                "pitch": 45,
                "velocity": 127,
                "duration": 0.1590909,
                "tempo": 120.0
            },
            {
                "start_time": 1.2363636,
                "end_time": 1.55,
                "pitch": 31,
                "velocity": 127,
                "duration": 0.3136364,
                "tempo": 120.0
            },
            {
                "start_time": 1.55,
                "end_time": 1.7068182,
                "pitch": 31,
                "velocity": 127,
                "duration": 0.1568182,
                "tempo": 120.0
            },
            {
                "start_time": 1.7068182,
                "end_time": 1.8659091,
                "pitch": 43,
                "velocity": 127,
                "duration": 0.1590909,
                "tempo": 120.0
            },
            {
                "start_time": 1.8659091,
                "end_time": 2.025,
                "pitch": 31,
                "velocity": 127,
                "duration": 0.1590909,
                "tempo": 120.0
            },
            {
                "start_time": 2.025,
                "end_time": 2.1863636,
                "pitch": 31,
                "velocity": 127,
                "duration": 0.1613636,
                "tempo": 120.0
            },
            {
                "start_time": 2.1863636,
                "end_time": 2.3454545,
                "pitch": 31,
                "velocity": 127,
                "duration": 0.1590909,
                "tempo": 120.0
            },
            {
                "start_time": 2.3454545,
                "end_time": 2.5045455,
                "pitch": 43,
                "velocity": 127,
                "duration": 0.1590909,
                "tempo": 120.0
            },
            {
                "start_time": 2.5045455,
                "end_time": 2.8295455,
                "pitch": 26,
                "velocity": 127,
                "duration": 0.325,
                "tempo": 120.0
            },
            {
                "start_time": 2.8295455,
                "end_time": 2.9954545,
                "pitch": 26,
                "velocity": 127,
                "duration": 0.1659091,
                "tempo": 120.0
            },
            {
                "start_time": 2.9954545,
                "end_time": 3.1454545,
                "pitch": 38,
                "velocity": 127,
                "duration": 0.15,
                "tempo": 120.0
            },
            {
                "start_time": 3.1454545,
                "end_time": 3.2954545,
                "pitch": 26,
                "velocity": 127,
                "duration": 0.15,
                "tempo": 120.0
            },
            {
                "start_time": 3.2954545,
                "end_time": 3.4568182,
                "pitch": 26,
                "velocity": 127,
                "duration": 0.1613636,
                "tempo": 120.0
            },
            {
                "start_time": 3.4568182,
                "end_time": 3.6159091,
                "pitch": 26,
                "velocity": 127,
                "duration": 0.1590909,
                "tempo": 120.0
            },
            {
                "start_time": 3.6159091,
                "end_time": 3.775,
                "pitch": 38,
                "velocity": 127,
                "duration": 0.1590909,
                "tempo": 120.0
            },
            {
                "start_time": 3.775,
                "end_time": 4.0954545,
                "pitch": 29,
                "velocity": 127,
                "duration": 0.3204545,
                "tempo": 120.0
            },
            {
                "start_time": 4.0954545,
                "end_time": 4.2568182,
                "pitch": 29,
                "velocity": 127,
                "duration": 0.1613636,
                "tempo": 120.0
            },
            {
                "start_time": 3.775,
                "end_time": 4.4159091,
                "pitch": 41,
                "velocity": 127,
                "duration": 0.6409091,
                "tempo": 120.0
            },
            {
                "start_time": 4.2568182,
                "end_time": 4.4159091,
                "pitch": 41,
                "velocity": 127,
                "duration": 0.1590909,
                "tempo": 120.0
            },
            {
                "start_time": 4.4159091,
                "end_time": 4.7295455,
                "pitch": 31,
                "velocity": 127,
                "duration": 0.3136364,
                "tempo": 120.0
            },
            {
                "start_time": 4.7295455,
                "end_time": 4.8863636,
                "pitch": 31,
                "velocity": 127,
                "duration": 0.1568182,
                "tempo": 120.0
            },
            {
                "start_time": 4.8863636,
                "end_time": 5.0454545,
                "pitch": 43,
                "velocity": 127,
                "duration": 0.1590909,
                "tempo": 120.0
            },
            {
                "start_time": 5.0454545,
                "end_time": 5.2045455,
                "pitch": 31,
                "velocity": 127,
                "duration": 0.1590909,
                "tempo": 120.0
            },
            {
                "start_time": 5.2045455,
                "end_time": 5.3704545,
                "pitch": 33,
                "velocity": 127,
                "duration": 0.1659091,
                "tempo": 120.0
            },
            {
                "start_time": 5.3704545,
                "end_time": 5.5363636,
                "pitch": 33,
                "velocity": 127,
                "duration": 0.1659091,
                "tempo": 120.0
            },
            {
                "start_time": 5.5363636,
                "end_time": 5.6909091,
                "pitch": 45,
                "velocity": 127,
                "duration": 0.1545455,
                "tempo": 120.0
            },
            {
                "start_time": 5.6909091,
                "end_time": 5.8454545,
                "pitch": 33,
                "velocity": 127,
                "duration": 0.1545455,
                "tempo": 120.0
            },
            {
                "start_time": 5.8454545,
                "end_time": 6.0045455,
                "pitch": 33,
                "velocity": 127,
                "duration": 0.1590909,
                "tempo": 120.0
            },
            {
                "start_time": 6.0045455,
                "end_time": 6.1659091,
                "pitch": 33,
                "velocity": 127,
                "duration": 0.1613636,
                "tempo": 120.0
            },
            {
                "start_time": 6.1659091,
                "end_time": 6.325,
                "pitch": 45,
                "velocity": 127,
                "duration": 0.1590909,
                "tempo": 120.0
            },
            {
                "start_time": 6.325,
                "end_time": 6.6454545,
                "pitch": 31,
                "velocity": 127,
                "duration": 0.3204545,
                "tempo": 120.0
            },
            {
                "start_time": 6.6454545,
                "end_time": 6.8045455,
                "pitch": 31,
                "velocity": 127,
                "duration": 0.1590909,
                "tempo": 120.0
            },
            {
                "start_time": 6.8045455,
                "end_time": 6.9659091,
                "pitch": 43,
                "velocity": 127,
                "duration": 0.1613636,
                "tempo": 120.0
            },
            {
                "start_time": 6.9659091,
                "end_time": 7.125,
                "pitch": 31,
                "velocity": 127,
                "duration": 0.1590909,
                "tempo": 120.0
            },
            {
                "start_time": 7.125,
                "end_time": 7.2840909,
                "pitch": 31,
                "velocity": 127,
                "duration": 0.1590909,
                "tempo": 120.0
            },
            {
                "start_time": 7.2840909,
                "end_time": 7.4454545,
                "pitch": 31,
                "velocity": 127,
                "duration": 0.1613636,
                "tempo": 120.0
            },
            {
                "start_time": 7.4454545,
                "end_time": 7.6090909,
                "pitch": 43,
                "velocity": 127,
                "duration": 0.1636364,
                "tempo": 120.0
            },
            {
                "start_time": 7.6090909,
                "end_time": 7.9295455,
                "pitch": 26,
                "velocity": 127,
                "duration": 0.3204545,
                "tempo": 120.0
            },
            {
                "start_time": 7.9295455,
                "end_time": 8.0840909,
                "pitch": 26,
                "velocity": 127,
                "duration": 0.1545455,
                "tempo": 120.0
            },
            {
                "start_time": 8.0840909,
                "end_time": 8.2454545,
                "pitch": 38,
                "velocity": 127,
                "duration": 0.1613636,
                "tempo": 120.0
            },
            {
                "start_time": 8.2454545,
                "end_time": 8.4045455,
                "pitch": 26,
                "velocity": 127,
                "duration": 0.1590909,
                "tempo": 120.0
            },
            {
                "start_time": 8.4045455,
                "end_time": 8.5659091,
                "pitch": 26,
                "velocity": 127,
                "duration": 0.1613636,
                "tempo": 120.0
            },
            {
                "start_time": 8.5659091,
                "end_time": 8.725,
                "pitch": 26,
                "velocity": 127,
                "duration": 0.1590909,
                "tempo": 120.0
            },
            {
                "start_time": 8.725,
                "end_time": 8.8840909,
                "pitch": 38,
                "velocity": 127,
                "duration": 0.1590909,
                "tempo": 120.0
            },
            {
                "start_time": 8.8840909,
                "end_time": 9.2045455,
                "pitch": 29,
                "velocity": 127,
                "duration": 0.3204545,
                "tempo": 120.0
            },
            {
                "start_time": 9.2045455,
                "end_time": 9.3636364,
                "pitch": 29,
                "velocity": 127,
                "duration": 0.1590909,
                "tempo": 120.0
            },
            {
                "start_time": 8.8840909,
                "end_time": 9.5204545,
                "pitch": 41,
                "velocity": 127,
                "duration": 0.6363636,
                "tempo": 120.0
            },
            {
                "start_time": 9.3636364,
                "end_time": 9.5204545,
                "pitch": 41,
                "velocity": 127,
                "duration": 0.1568182,
                "tempo": 120.0
            },
            {
                "start_time": 9.5204545,
                "end_time": 9.675,
                "pitch": 29,
                "velocity": 127,
                "duration": 0.1545455,
                "tempo": 120.0
            },
            {
                "start_time": 9.675,
                "end_time": 9.8340909,
                "pitch": 31,
                "velocity": 127,
                "duration": 0.1590909,
                "tempo": 120.0
            },
            {
                "start_time": 9.8340909,
                "end_time": 9.9954545,
                "pitch": 31,
                "velocity": 127,
                "duration": 0.1613636,
                "tempo": 120.0
            },
            {
                "start_time": 9.9954545,
                "end_time": 10.1545455,
                "pitch": 43,
                "velocity": 127,
                "duration": 0.1590909,
                "tempo": 120.0
            },
            {
                "start_time": 10.1545455,
                "end_time": 10.3136364,
                "pitch": 31,
                "velocity": 127,
                "duration": 0.1590909,
                "tempo": 120.0
            },
            {
                "start_time": 11.9045455,
                "end_time": 12.5431818,
                "pitch": 33,
                "velocity": 127,
                "duration": 0.6386364,
                "tempo": 120.0
            }
        ],
        "French Horn": [
            {
                "start_time": 5.2068182,
                "end_time": 5.6909091,
                "pitch": 64,
                "velocity": 101,
                "duration": 0.4840909,
                "tempo": 120.0
            },
            {
                "start_time": 5.6909091,
                "end_time": 6.1659091,
                "pitch": 69,
                "velocity": 101,
                "duration": 0.475,
                "tempo": 120.0
            },
            {
                "start_time": 6.1659091,
                "end_time": 6.8045455,
                "pitch": 73,
                "velocity": 101,
                "duration": 0.6386364,
                "tempo": 120.0
            },
            {
                "start_time": 6.8045455,
                "end_time": 7.125,
                "pitch": 73,
                "velocity": 101,
                "duration": 0.3204545,
                "tempo": 120.0
            },
            {
                "start_time": 7.125,
                "end_time": 7.4454545,
                "pitch": 71,
                "velocity": 101,
                "duration": 0.3204545,
                "tempo": 120.0
            },
            {
                "start_time": 7.4454545,
                "end_time": 7.775,
                "pitch": 69,
                "velocity": 101,
                "duration": 0.3295455,
                "tempo": 120.0
            },
            {
                "start_time": 7.4454545,
                "end_time": 7.775,
                "pitch": 69,
                "velocity": 101,
                "duration": 0.3295455,
                "tempo": 120.0
            },
            {
                "start_time": 7.775,
                "end_time": 7.9295455,
                "pitch": 74,
                "velocity": 101,
                "duration": 0.1545455,
                "tempo": 120.0
            },
            {
                "start_time": 7.9295455,
                "end_time": 8.2454545,
                "pitch": 73,
                "velocity": 101,
                "duration": 0.3159091,
                "tempo": 120.0
            },
            {
                "start_time": 8.2454545,
                "end_time": 8.725,
                "pitch": 69,
                "velocity": 101,
                "duration": 0.4795455,
                "tempo": 120.0
            },
            {
                "start_time": 8.725,
                "end_time": 9.0454545,
                "pitch": 71,
                "velocity": 101,
                "duration": 0.3204545,
                "tempo": 120.0
            },
            {
                "start_time": 8.725,
                "end_time": 9.0454545,
                "pitch": 71,
                "velocity": 101,
                "duration": 0.3204545,
                "tempo": 120.0
            },
            {
                "start_time": 9.0454545,
                "end_time": 9.675,
                "pitch": 69,
                "velocity": 101,
                "duration": 0.6295455,
                "tempo": 120.0
            },
            {
                "start_time": 9.675,
                "end_time": 9.9931818,
                "pitch": 67,
                "velocity": 101,
                "duration": 0.3181818,
                "tempo": 120.0
            },
            {
                "start_time": 9.9931818,
                "end_time": 9.9954545,
                "pitch": 79,
                "velocity": 101,
                "duration": 0.0022727,
                "tempo": 120.0
            },
            {
                "start_time": 9.9954545,
                "end_time": 10.1931818,
                "pitch": 67,
                "velocity": 101,
                "duration": 0.1977273,
                "tempo": 120.0
            },
            {
                "start_time": 10.1931818,
                "end_time": 10.3159091,
                "pitch": 67,
                "velocity": 101,
                "duration": 0.1227273,
                "tempo": 120.0
            },
            {
                "start_time": 11.9045455,
                "end_time": 12.5454545,
                "pitch": 64,
                "velocity": 101,
                "duration": 0.6409091,
                "tempo": 120.0
            }
        ],
        "Vibraphone": [
            {
                "start_time": 0.1068182,
                "end_time": 1.2363636,
                "pitch": 64,
                "velocity": 127,
                "duration": 1.1295455,
                "tempo": 120.0
            },
            {
                "start_time": 1.2363636,
                "end_time": 2.6659091,
                "pitch": 62,
                "velocity": 127,
                "duration": 1.4295455,
                "tempo": 120.0
            },
            {
                "start_time": 2.6659091,
                "end_time": 3.7772727,
                "pitch": 66,
                "velocity": 127,
                "duration": 1.1113636,
                "tempo": 120.0
            },
            {
                "start_time": 3.7772727,
                "end_time": 4.575,
                "pitch": 69,
                "velocity": 127,
                "duration": 0.7977273,
                "tempo": 120.0
            },
            {
                "start_time": 4.575,
                "end_time": 4.8863636,
                "pitch": 71,
                "velocity": 127,
                "duration": 0.3113636,
                "tempo": 120.0
            },
            {
                "start_time": 4.8863636,
                "end_time": 5.2068182,
                "pitch": 72,
                "velocity": 127,
                "duration": 0.3204545,
                "tempo": 120.0
            },
            {
                "start_time": 5.2068182,
                "end_time": 6.325,
                "pitch": 64,
                "velocity": 127,
                "duration": 1.1181818,
                "tempo": 120.0
            },
            {
                "start_time": 6.325,
                "end_time": 7.775,
                "pitch": 62,
                "velocity": 127,
                "duration": 1.45,
                "tempo": 120.0
            },
            {
                "start_time": 3.7772727,
                "end_time": 8.8863636,
                "pitch": 32,
                "velocity": 127,
                "duration": 5.1090909,
                "tempo": 120.0
            },
            {
                "start_time": 7.775,
                "end_time": 8.8863636,
                "pitch": 66,
                "velocity": 127,
                "duration": 1.1113636,
                "tempo": 120.0
            },
            {
                "start_time": 8.8863636,
                "end_time": 9.675,
                "pitch": 69,
                "velocity": 127,
                "duration": 0.7886364,
                "tempo": 120.0
            },
            {
                "start_time": 9.675,
                "end_time": 9.9954545,
                "pitch": 71,
                "velocity": 127,
                "duration": 0.3204545,
                "tempo": 120.0
            },
            {
                "start_time": 9.675,
                "end_time": 9.9954545,
                "pitch": 71,
                "velocity": 127,
                "duration": 0.3204545,
                "tempo": 120.0
            },
            {
                "start_time": 4.8863636,
                "end_time": 9.9954545,
                "pitch": 76,
                "velocity": 127,
                "duration": 5.1090909,
                "tempo": 120.0
            },
            {
                "start_time": 9.9954545,
                "end_time": 10.3159091,
                "pitch": 72,
                "velocity": 127,
                "duration": 0.3204545,
                "tempo": 120.0
            },
            {
                "start_time": 11.9045455,
                "end_time": 12.5454545,
                "pitch": 69,
                "velocity": 127,
                "duration": 0.6409091,
                "tempo": 120.0
            }
        ]
    }
}