{
    "mood": "happy",
    "instruments": {
        "Trumpet": [
            {
                "start_time": 1.6045455,
                "end_time": 2.1636364,
                "pitch": 64,
                "velocity": 101,
                "duration": 0.5590909,
                "tempo": 120.0
            },
            {
                "start_time": 2.1636364,
                "end_time": 2.7477273,
                "pitch": 62,
                "velocity": 101,
                "duration": 0.5840909,
                "tempo": 120.0
            },
            {
                "start_time": 2.7477273,
                "end_time": 3.1477273,
                "pitch": 60,
                "velocity": 101,
                "duration": 0.4,
                "tempo": 120.0
            },
            {
                "start_time": 3.1477273,
                "end_time": 6.2590909,
                "pitch": 62,
                "velocity": 101,
                "duration": 3.1113636,
                "tempo": 120.0
            },
            {
                "start_time": 6.2590909,
                "end_time": 7.8318182,
                "pitch": 71,
                "velocity": 101,
                "duration": 1.5727273,
                "tempo": 120.0
            },
            {
                "start_time": 7.8318182,
                "end_time": 8.3795455,
                "pitch": 67,
                "velocity": 101,
                "duration": 0.5477273,
                "tempo": 120.0
            },
            {
                "start_time": 8.3795455,
                "end_time": 8.9681818,
                "pitch": 66,
                "velocity": 101,
                "duration": 0.5886364,
                "tempo": 120.0
            },
            {
                "start_time": 8.9681818,
                "end_time": 9.3704545,
                "pitch": 64,
                "velocity": 101,
                "duration": 0.4022727,
                "tempo": 120.0
            },
            {
                "start_time": 9.3704545,
                "end_time": 12.4931818,
                "pitch": 62,
                "velocity": 101,
                "duration": 3.1227273,
                "tempo": 120.0
            },
            {
                "start_time": 12.4931818,
                "end_time": 14.0727273,
                "pitch": 60,
                "velocity": 101,
                "duration": 1.5795455,
                "tempo": 120.0
            },
            {
                "start_time": 14.0727273,
                "end_time": 14.6090909,
                "pitch": 64,
                "velocity": 101,
                "duration": 0.5363636,
                "tempo": 120.0
            },
            {
                "start_time": 14.6090909,
                "end_time": 15.1977273,
                "pitch": 62,
                "velocity": 101,
                "duration": 0.5886364,
                "tempo": 120.0
            },
            {
                "start_time": 15.1977273,
                "end_time": 15.6090909,
                "pitch": 60,
                "velocity": 101,
                "duration": 0.4113636,
                "tempo": 120.0
            },
            {
                "start_time": 15.6090909,
                "end_time": 18.7159091,
                "pitch": 62,
                "velocity": 101,
                "duration": 3.1068182,
                "tempo": 120.0
            },
            {
                "start_time": 18.7159091,
                "end_time": 20.2886364,
                "pitch": 66,
                "velocity": 101,
                "duration": 1.5727273,
                "tempo": 120.0
            },
            {
                "start_time": 20.2886364,
                "end_time": 21.0522727,
                "pitch": 64,
                "velocity": 101,
                "duration": 0.7636364,
                "tempo": 120.0
            },
            {
                "start_time": 21.0522727,
                "end_time": 21.6227273,
                "pitch": 67,
                "velocity": 101,
                "duration": 0.5704545,
                "tempo": 120.0
            },
            {
                "start_time": 21.6227273,
                "end_time": 23.1727273,
                "pitch": 69,
                "velocity": 101,
                "duration": 1.55,
                "tempo": 120.0
            },
            {
                "start_time": 23.1727273,
                "end_time": 24.9340909,
                "pitch": 78,
                "velocity": 101,
                "duration": 1.7613636,
                "tempo": 120.0
            },
            {
                "start_time": 24.9340909,
                "end_time": 25.5045455,
                "pitch": 64,
                "velocity": 101,
                "duration": 0.5704545,
                "tempo": 120.0
            },
            {
                "start_time": 25.5045455,
                "end_time": 26.1068182,
                "pitch": 62,
                "velocity": 101,
                "duration": 0.6022727,
                "tempo": 120.0
            },
            {
                "start_time": 26.1068182,
                "end_time": 26.7090909,
                "pitch": 60,
                "velocity": 101,
                "duration": 0.6022727,
                "tempo": 120.0
            },
            {
                "start_time": 26.7090909,
                "end_time": 27.2795455,
                "pitch": 62,
                "velocity": 101,
                "duration": 0.5704545,
                "tempo": 120.0
            },
            {
                "start_time": 27.2795455,
                "end_time": 27.65,
                "pitch": 64,
                "velocity": 101,
                "duration": 0.3704545,
                "tempo": 120.0
            },
            {
                "start_time": 27.65,
                "end_time": 28.05,
                "pitch": 60,
                "velocity": 101,
                "duration": 0.4,
                "tempo": 120.0
            },
            {
                "start_time": 28.05,
                "end_time": 28.6522727,
                "pitch": 64,
                "velocity": 101,
                "duration": 0.6022727,
                "tempo": 120.0
            },
            {
                "start_time": 28.6522727,
                "end_time": 29.2045455,
                "pitch": 62,
                "velocity": 101,
                "duration": 0.5522727,
                "tempo": 120.0
            },
            {
                "start_time": 29.2045455,
                "end_time": 29.775,
                "pitch": 66,
                "velocity": 101,
                "duration": 0.5704545,
                "tempo": 120.0
            },
            {
                "start_time": 29.775,
                "end_time": 30.3772727,
                "pitch": 62,
                "velocity": 101,
                "duration": 0.6022727,
                "tempo": 120.0
            },
            {
                "start_time": 30.3772727,
                "end_time": 30.7772727,
                "pitch": 64,
                "velocity": 101,
                "duration": 0.4,
                "tempo": 120.0
            },
            {
                "start_time": 30.7772727,
                "end_time": 31.1772727,
                "pitch": 60,
                "velocity": 101,
                "duration": 0.4,
                "tempo": 120.0
            },
            {
                "start_time": 31.1772727,
                "end_time": 31.7363636,
                "pitch": 71,
                "velocity": 101,
                "duration": 0.5590909,
                "tempo": 120.0
            },
            {
                "start_time": 31.7363636,
                "end_time": 32.3204545,
                "pitch": 69,
                "velocity": 101,
                "duration": 0.5840909,
                "tempo": 120.0
            },
            {
                "start_time": 32.3204545,
                "end_time": 32.9204545,
                "pitch": 67,
                "velocity": 101,
                "duration": 0.6,
                "tempo": 120.0
            },
            {
                "start_time": 32.9204545,
                "end_time": 33.4931818,
                "pitch": 69,
                "velocity": 101,
                "duration": 0.5727273,
                "tempo": 120.0
            },
            {
                "start_time": 33.4931818,
                "end_time": 33.8636364,
                "pitch": 71,
                "velocity": 101,
                "duration": 0.3704545,
                "tempo": 120.0
            },
            {
                "start_time": 33.8636364,
                "end_time": 34.0636364,
                "pitch": 67,
                "velocity": 101,
                "duration": 0.2,
                "tempo": 120.0
            },
            {
                "start_time": 34.0636364,
                "end_time": 35.6227273,
                "pitch": 66,
                "velocity": 101,
                "duration": 1.5590909,
                "tempo": 120.0
            },
            {
                "start_time": 35.6227273,
                "end_time": 37.3931818,
                "pitch": 54,
                "velocity": 101,
                "duration": 1.7704545,
                "tempo": 120.0
            },
            {
                "start_time": 37.3931818,
                "end_time": 37.9477273,
                "pitch": 64,
                "velocity": 101,
                "duration": 0.5545455,
                "tempo": 120.0
            },
            {
                "start_time": 37.9477273,
                "end_time": 38.5318182,
                "pitch": 62,
                "velocity": 101,
                "duration": 0.5840909,
                "tempo": 120.0
            },
            {
                "start_time": 38.5318182,
                "end_time": 39.1363636,
                "pitch": 60,
                "velocity": 101,
                "duration": 0.6045455,
                "tempo": 120.0
            },
            {
                "start_time": 39.1363636,
                "end_time": 39.7045455,
                "pitch": 62,
                "velocity": 101,
                "duration": 0.5681818,
                "tempo": 120.0
            },
            {
                "start_time": 39.7045455,
                "end_time": 40.075,
                "pitch": 64,
                "velocity": 101,
                "duration": 0.3704545,
                "tempo": 120.0
            },
            {
                "start_time": 40.075,
                "end_time": 40.4772727,
                "pitch": 60,
                "velocity": 101,
                "duration": 0.4022727,
                "tempo": 120.0
            },
            {
                "start_time": 40.4772727,
                "end_time": 41.0772727,
                "pitch": 71,
                "velocity": 101,
                "duration": 0.6,
                "tempo": 120.0
            },
            {
                "start_time": 41.0772727,
                "end_time": 41.6772727,
                "pitch": 69,
                "velocity": 101,
                "duration": 0.6,
                "tempo": 120.0
            },
            {
                "start_time": 41.6772727,
                "end_time": 42.225,
                "pitch": 72,
                "velocity": 101,
                "duration": 0.5477273,
                "tempo": 120.0
            },
            {
                "start_time": 42.225,
                "end_time": 42.8090909,
                "pitch": 69,
                "velocity": 101,
                "duration": 0.5840909,
                "tempo": 120.0
            },
            {
                "start_time": 42.8090909,
                "end_time": 43.2090909,
                "pitch": 71,
                "velocity": 101,
                "duration": 0.4,
                "tempo": 120.0
            },
            {
                "start_time": 43.2090909,
                "end_time": 43.6090909,
                "pitch": 67,
                "velocity": 101,
                "duration": 0.4,
                "tempo": 120.0
            },
            {
                "start_time": 43.6181818,
                "end_time": 44.1568182,
                "pitch": 74,
                "velocity": 101,
                "duration": 0.5386364,
                "tempo": 120.0
            },
            {
                "start_time": 44.1568182,
                "end_time": 44.7409091,
                "pitch": 72,
                "velocity": 101,
                "duration": 0.5840909,
                "tempo": 120.0
            },
            {
                "start_time": 44.7409091,
                "end_time": 45.3409091,
                "pitch": 71,
                "velocity": 101,
                "duration": 0.6,
                "tempo": 120.0
            },
            {
                "start_time": 45.3409091,
                "end_time": 45.9409091,
                "pitch": 72,
                "velocity": 101,
                "duration": 0.6,
                "tempo": 120.0
            },
            {
                "start_time": 45.9409091,
                "end_time": 46.3136364,
                "pitch": 74,
                "velocity": 101,
                "duration": 0.3727273,
                "tempo": 120.0
            },
            {
                "start_time": 46.3136364,
                "end_time": 46.5,
                "pitch": 71,
                "velocity": 101,
                "duration": 0.1863636,
                "tempo": 120.0
            },
            {
                "start_time": 46.5,
                "end_time": 48.0863636,
                "pitch": 74,
                "velocity": 101,
                "duration": 1.5863636,
                "tempo": 120.0
            },
            {
                "start_time": 48.0863636,
                "end_time": 49.8295455,
                "pitch": 66,
                "velocity": 101,
                "duration": 1.7431818,
                "tempo": 120.0
            },
            {
                "start_time": 49.8295455,
                "end_time": 51.1522727,
                "pitch": 67,
                "velocity": 101,
                "duration": 1.3227273,
                "tempo": 120.0
            },
            {
                "start_time": 51.1522727,
                "end_time": 52.7090909,
                "pitch": 71,
                "velocity": 101,
                "duration": 1.5568182,
                "tempo": 120.0
            },
            {
                "start_time": 52.7090909,
                "end_time": 54.2977273,
                "pitch": 69,
                "velocity": 101,
                "duration": 1.5886364,
                "tempo": 120.0
            },
            {
                "start_time": 54.2977273,
                "end_time": 56.0409091,
                "pitch": 66,
                "velocity": 101,
                "duration": 1.7431818,
                "tempo": 120.0
            },
            {
                "start_time": 56.0409091,
                "end_time": 57.3704545,
                "pitch": 64,
                "velocity": 101,
                "duration": 1.3295455,
                "tempo": 120.0
            },
            {
                "start_time": 57.3704545,
                "end_time": 58.9181818,
                "pitch": 67,
                "velocity": 101,
                "duration": 1.5477273,
                "tempo": 120.0
            },
            {
                "start_time": 58.9181818,
                "end_time": 62.2477273,
                "pitch": 69,
                "velocity": 101,
                "duration": 3.3295455,
                "tempo": 120.0
            },
            {
                "start_time": 62.2477273,
                "end_time": 62.65,
                "pitch": 64,
                "velocity": 101,
                "duration": 0.4022727,
                "tempo": 120.0
            }
        ],
        "Electric Guitar (clean)": [
            {
                "start_time": 0.2090909,
                "end_time": 0.4090909,
                "pitch": 45,
                "velocity": 127,
                "duration": 0.2,
                "tempo": 120.0
            },
            {
                "start_time": 0.4090909,
                "end_time": 0.6068182,
                "pitch": 48,
                "velocity": 127,
                "duration": 0.1977273,
                "tempo": 120.0
            },
            {
                "start_time": 0.6068182,
                "end_time": 1.0045455,
                "pitch": 50,
                "velocity": 127,
                "duration": 0.3977273,
                "tempo": 120.0
            },
            {
                "start_time": 1.0045455,
                "end_time": 1.2045455,
                "pitch": 45,
                "velocity": 127,
                "duration": 0.2,
                "tempo": 120.0
            },
            {
                "start_time": 1.2045455,
                "end_time": 1.4045455,
                "pitch": 48,
                "velocity": 127,
                "duration": 0.2,
                "tempo": 120.0
            },
            {
                "start_time": 1.4045455,
                "end_time": 1.775,
                "pitch": 50,
                "velocity": 127,
                "duration": 0.3704545,
                "tempo": 120.0
            },
            {
                "start_time": 1.775,
                "end_time": 1.9772727,
                "pitch": 45,
                "velocity": 127,
                "duration": 0.2022727,
                "tempo": 120.0
            },
            {
                "start_time": 1.9772727,
                "end_time": 2.1636364,
                "pitch": 48,
                "velocity": 127,
                "duration": 0.1863636,
                "tempo": 120.0
            },
            {
                "start_time": 2.1636364,
                "end_time": 2.3477273,
                "pitch": 50,
                "velocity": 127,
                "duration": 0.1840909,
                "tempo": 120.0
            },
            {
                "start_time": 2.3477273,
                "end_time": 2.5477273,
                "pitch": 50,
                "velocity": 127,
                "duration": 0.2,
                "tempo": 120.0
            },
            {
                "start_time": 2.5477273,
                "end_time": 2.7477273,
                "pitch": 45,
                "velocity": 127,
                "duration": 0.2,
                "tempo": 120.0
            },
            {
                "start_time": 2.7477273,
                "end_time": 2.9477273,
                "pitch": 48,
                "velocity": 127,
                "duration": 0.2,
                "tempo": 120.0
            },
            {
                "start_time": 2.9477273,
                "end_time": 3.1477273,
                "pitch": 50,
                "velocity": 127,
                "duration": 0.2,
                "tempo": 120.0
            },
            {
                "start_time": 3.1477273,
                "end_time": 3.35,
                "pitch": 50,
                "velocity": 127,
                "duration": 0.2022727,
                "tempo": 120.0
            },
            {
                "start_time": 3.35,
                "end_time": 3.55,
                "pitch": 45,
                "velocity": 127,
                "duration": 0.2,
                "tempo": 120.0
            },
            {
                "start_time": 3.55,
                "end_time": 3.75,
                "pitch": 48,
                "velocity": 127,
                "duration": 0.2,
                "tempo": 120.0
            },
            {
                "start_time": 3.75,
                "end_time": 4.1045455,
                "pitch": 50,
                "velocity": 127,
                "duration": 0.3545455,
                "tempo": 120.0
            },
            {
                "start_time": 4.1045455,
                "end_time": 4.2909091,
                "pitch": 45,
                "velocity": 127,
                "duration": 0.1863636,
                "tempo": 120.0
            },
            {
                "start_time": 4.2909091,
                "end_time": 4.4909091,
                "pitch": 48,
                "velocity": 127,
                "duration": 0.2,
                "tempo": 120.0
            },
            {
                "start_time": 4.4909091,
                "end_time": 4.8931818,
                "pitch": 50,
                "velocity": 127,
                "duration": 0.4022727,
                "tempo": 120.0
            },
            {
                "start_time": 4.8931818,
                "end_time": 5.0931818,
                "pitch": 45,
                "velocity": 127,
                "duration": 0.2,
                "tempo": 120.0
            },
            {
                "start_time": 5.0931818,
                "end_time": 5.2954545,
                "pitch": 48,
                "velocity": 127,
                "duration": 0.2022727,
                "tempo": 120.0
            },
            {
                "start_time": 5.2954545,
                "end_time": 5.4954545,
                "pitch": 50,
                "velocity": 127,
                "duration": 0.2,
                "tempo": 120.0
            },
            {
                "start_time": 5.4954545,
                "end_time": 5.6954545,
                "pitch": 50,
                "velocity": 127,
                "duration": 0.2,
                "tempo": 120.0
            },
            {
                "start_time": 5.6954545,
                "end_time": 5.8954545,
                "pitch": 45,
                "velocity": 127,
                "duration": 0.2,
                "tempo": 120.0
            },
            {
                "start_time": 5.8954545,
                "end_time": 6.0568182,
                "pitch": 48,
                "velocity": 127,
                "duration": 0.1613636,
                "tempo": 120.0
            },
            {
                "start_time": 6.0568182,
                "end_time": 6.2681818,
                "pitch": 50,
                "velocity": 127,
                "duration": 0.2113636,
                "tempo": 120.0
            },
            {
                "start_time": 6.2681818,
                "end_time": 6.4454545,
                "pitch": 50,
                "velocity": 127,
                "duration": 0.1772727,
                "tempo": 120.0
            },
            {
                "start_time": 6.4454545,
                "end_time": 6.6295455,
                "pitch": 45,
                "velocity": 127,
                "duration": 0.1840909,
                "tempo": 120.0
            },
            {
                "start_time": 6.6295455,
                "end_time": 6.8295455,
                "pitch": 48,
                "velocity": 127,
                "duration": 0.2,
                "tempo": 120.0
            },
            {
                "start_time": 6.8295455,
                "end_time": 7.225,
                "pitch": 50,
                "velocity": 127,
                "duration": 0.3954545,
                "tempo": 120.0
            },
            {
                "start_time": 7.225,
                "end_time": 7.4204545,
                "pitch": 45,
                "velocity": 127,
                "duration": 0.1954545,
                "tempo": 120.0
            },
            {
                "start_time": 7.4204545,
                "end_time": 7.6272727,
                "pitch": 48,
                "velocity": 127,
                "duration": 0.2068182,
                "tempo": 120.0
            },
            {
                "start_time": 7.6272727,
                "end_time": 8.0272727,
                "pitch": 50,
                "velocity": 127,
                "duration": 0.4,
                "tempo": 120.0
            },
            {
                "start_time": 8.0272727,
                "end_time": 8.1954545,
                "pitch": 45,
                "velocity": 127,
                "duration": 0.1681818,
                "tempo": 120.0
            },
            {
                "start_time": 8.1954545,
                "end_time": 8.3795455,
                "pitch": 48,
                "velocity": 127,
                "duration": 0.1840909,
                "tempo": 120.0
            },
            {
                "start_time": 8.3795455,
                "end_time": 8.5636364,
                "pitch": 50,
                "velocity": 127,
                "duration": 0.1840909,
                "tempo": 120.0
            },
            {
                "start_time": 8.5636364,
                "end_time": 8.7659091,
                "pitch": 50,
                "velocity": 127,
                "duration": 0.2022727,
                "tempo": 120.0
            },
            {
                "start_time": 8.7659091,
                "end_time": 8.9681818,
                "pitch": 45,
                "velocity": 127,
                "duration": 0.2022727,
                "tempo": 120.0
            },
            {
                "start_time": 8.9681818,
                "end_time": 9.1681818,
                "pitch": 48,
                "velocity": 127,
                "duration": 0.2,
                "tempo": 120.0
            },
            {
                "start_time": 9.1681818,
                "end_time": 9.3704545,
                "pitch": 50,
                "velocity": 127,
                "duration": 0.2022727,
                "tempo": 120.0
            },
            {
                "start_time": 9.3704545,
                "end_time": 9.5704545,
                "pitch": 50,
                "velocity": 127,
                "duration": 0.2,
                "tempo": 120.0
            },
            {
                "start_time": 9.5704545,
                "end_time": 9.7727273,
                "pitch": 45,
                "velocity": 127,
                "duration": 0.2022727,
                "tempo": 120.0
            },
            {
                "start_time": 9.7727273,
                "end_time": 9.975,
                "pitch": 48,
                "velocity": 127,
                "duration": 0.2022727,
                "tempo": 120.0
            },
            {
                "start_time": 9.975,
                "end_time": 10.3454545,
                "pitch": 50,
                "velocity": 127,
                "duration": 0.3704545,
                "tempo": 120.0
            },
            {
                "start_time": 10.3454545,
                "end_time": 10.5454545,
                "pitch": 45,
                "velocity": 127,
                "duration": 0.2,
                "tempo": 120.0
            },
            {
                "start_time": 10.5454545,
                "end_time": 10.7295455,
                "pitch": 48,
                "velocity": 127,
                "duration": 0.1840909,
                "tempo": 120.0
            },
            {
                "start_time": 10.7295455,
                "end_time": 11.1181818,
                "pitch": 50,
                "velocity": 127,
                "duration": 0.3886364,
                "tempo": 120.0
            },
            {
                "start_time": 11.1181818,
                "end_time": 11.3181818,
                "pitch": 45,
                "velocity": 127,
                "duration": 0.2,
                "tempo": 120.0
            },
            {
                "start_time": 11.3181818,
                "end_time": 11.5181818,
                "pitch": 48,
                "velocity": 127,
                "duration": 0.2,
                "tempo": 120.0
            },
            {
                "start_time": 11.5181818,
                "end_time": 11.7181818,
                "pitch": 50,
                "velocity": 127,
                "duration": 0.2,
                "tempo": 120.0
            },
            {
                "start_time": 11.7181818,
                "end_time": 11.9204545,
                "pitch": 50,
                "velocity": 127,
                "duration": 0.2022727,
                "tempo": 120.0
            },
            {
                "start_time": 11.9204545,
                "end_time": 12.1204545,
                "pitch": 45,
                "velocity": 127,
                "duration": 0.2,
                "tempo": 120.0
            },
            {
                "start_time": 12.1204545,
                "end_time": 12.2931818,
                "pitch": 48,
                "velocity": 127,
                "duration": 0.1727273,
                "tempo": 120.0
            },
            {
                "start_time": 12.2931818,
                "end_time": 12.4931818,
                "pitch": 50,
                "velocity": 127,
                "duration": 0.2,
                "tempo": 120.0
            },
            {
                "start_time": 12.4931818,
                "end_time": 12.6795455,
                "pitch": 50,
                "velocity": 127,
                "duration": 0.1863636,
                "tempo": 120.0
            },
            {
                "start_time": 12.6795455,
                "end_time": 12.8636364,
                "pitch": 45,
                "velocity": 127,
                "duration": 0.1840909,
                "tempo": 120.0
            },
            {
                "start_time": 12.8636364,
                "end_time": 13.0659091,
                "pitch": 48,
                "velocity": 127,
                "duration": 0.2022727,
                "tempo": 120.0
            },
            {
                "start_time": 13.0659091,
                "end_time": 13.4681818,
                "pitch": 50,
                "velocity": 127,
                "duration": 0.4022727,
                "tempo": 120.0
            },
            {
                "start_time": 13.4681818,
                "end_time": 13.6704545,
                "pitch": 45,
                "velocity": 127,
                "duration": 0.2022727,
                "tempo": 120.0
            },
            {
                "start_time": 13.6704545,
                "end_time": 13.8704545,
                "pitch": 48,
                "velocity": 127,
                "duration": 0.2,
                "tempo": 120.0
            },
            {
                "start_time": 13.8704545,
                "end_time": 14.2681818,
                "pitch": 50,
                "velocity": 127,
                "duration": 0.3977273,
                "tempo": 120.0
            },
            {
                "start_time": 14.2681818,
                "end_time": 14.425,
                "pitch": 45,
                "velocity": 127,
                "duration": 0.1568182,
                "tempo": 120.0
            },
            {
                "start_time": 14.425,
                "end_time": 14.6090909,
                "pitch": 48,
                "velocity": 127,
                "duration": 0.1840909,
                "tempo": 120.0
            },
            {
                "start_time": 14.6090909,
                "end_time": 14.7954545,
                "pitch": 50,
                "velocity": 127,
                "duration": 0.1863636,
                "tempo": 120.0
            },
            {
                "start_time": 14.7954545,
                "end_time": 14.9954545,
                "pitch": 50,
                "velocity": 127,
                "duration": 0.2,
                "tempo": 120.0
            },
            {
                "start_time": 14.9954545,
                "end_time": 15.1977273,
                "pitch": 45,
                "velocity": 127,
                "duration": 0.2022727,
                "tempo": 120.0
            },
            {
                "start_time": 15.1977273,
                "end_time": 15.4022727,
                "pitch": 48,
                "velocity": 127,
                "duration": 0.2045455,
                "tempo": 120.0
            },
            {
                "start_time": 15.4022727,
                "end_time": 15.6090909,
                "pitch": 50,
                "velocity": 127,
                "duration": 0.2068182,
                "tempo": 120.0
            },
            {
                "start_time": 15.6090909,
                "end_time": 15.8090909,
                "pitch": 50,
                "velocity": 127,
                "duration": 0.2,
                "tempo": 120.0
            },
            {
                "start_time": 15.8090909,
                "end_time": 16.0090909,
                "pitch": 45,
                "velocity": 127,
                "duration": 0.2,
                "tempo": 120.0
            },
            {
                "start_time": 16.0090909,
                "end_time": 16.2045455,
                "pitch": 48,
                "velocity": 127,
                "duration": 0.1954545,
                "tempo": 120.0
            },
            {
                "start_time": 16.2045455,
                "end_time": 16.5704545,
                "pitch": 50,
                "velocity": 127,
                "duration": 0.3659091,
                "tempo": 120.0
            },
            {
                "start_time": 16.5704545,
                "end_time": 16.7704545,
                "pitch": 45,
                "velocity": 127,
                "duration": 0.2,
                "tempo": 120.0
            },
            {
                "start_time": 16.7704545,
                "end_time": 16.9568182,
                "pitch": 48,
                "velocity": 127,
                "duration": 0.1863636,
                "tempo": 120.0
            },
            {
                "start_time": 16.9568182,
                "end_time": 17.3431818,
                "pitch": 50,
                "velocity": 127,
                "duration": 0.3863636,
                "tempo": 120.0
            },
            {
                "start_time": 17.3431818,
                "end_time": 17.5431818,
                "pitch": 45,
                "velocity": 127,
                "duration": 0.2,
                "tempo": 120.0
            },
            {
                "start_time": 17.5431818,
                "end_time": 17.7431818,
                "pitch": 48,
                "velocity": 127,
                "duration": 0.2,
                "tempo": 120.0
            },
            {
                "start_time": 17.7431818,
                "end_time": 17.9431818,
                "pitch": 50,
                "velocity": 127,
                "duration": 0.2,
                "tempo": 120.0
            },
            {
                "start_time": 17.9431818,
                "end_time": 18.1431818,
                "pitch": 50,
                "velocity": 127,
                "duration": 0.2,
                "tempo": 120.0
            },
            {
                "start_time": 18.1431818,
                "end_time": 18.3431818,
                "pitch": 45,
                "velocity": 127,
                "duration": 0.2,
                "tempo": 120.0
            },
            {
                "start_time": 18.3431818,
                "end_time": 18.5454545,
                "pitch": 48,
                "velocity": 127,
                "duration": 0.2022727,
                "tempo": 120.0
            },
            {
                "start_time": 18.5454545,
                "end_time": 18.7159091,
                "pitch": 50,
                "velocity": 127,
                "duration": 0.1704545,
                "tempo": 120.0
            },
            {
                "start_time": 18.7159091,
                "end_time": 18.9022727,
                "pitch": 48,
                "velocity": 127,
                "duration": 0.1863636,
                "tempo": 120.0
            },
            {
                "start_time": 18.9022727,
                "end_time": 19.0863636,
                "pitch": 45,
                "velocity": 127,
                "duration": 0.1840909,
                "tempo": 120.0
            },
            {
                "start_time": 19.0863636,
                "end_time": 19.2863636,
                "pitch": 47,
                "velocity": 127,
                "duration": 0.2,
                "tempo": 120.0
            },
            {
                "start_time": 19.2863636,
                "end_time": 19.6863636,
                "pitch": 48,
                "velocity": 127,
                "duration": 0.4,
                "tempo": 120.0
            },
            {
                "start_time": 19.6863636,
                "end_time": 19.8863636,
                "pitch": 45,
                "velocity": 127,
                "duration": 0.2,
                "tempo": 120.0
            },
            {
                "start_time": 19.8863636,
                "end_time": 20.0886364,
                "pitch": 47,
                "velocity": 127,
                "duration": 0.2022727,
                "tempo": 120.0
            },
            {
                "start_time": 20.0886364,
                "end_time": 20.4886364,
                "pitch": 48,
                "velocity": 127,
                "duration": 0.4,
                "tempo": 120.0
            },
            {
                "start_time": 20.4886364,
                "end_time": 20.6886364,
                "pitch": 45,
                "velocity": 127,
                "duration": 0.2,
                "tempo": 120.0
            },
            {
                "start_time": 20.6886364,
                "end_time": 20.85,
                "pitch": 47,
                "velocity": 127,
                "duration": 0.1613636,
                "tempo": 120.0
            },
            {
                "start_time": 20.85,
                "end_time": 21.0613636,
                "pitch": 48,
                "velocity": 127,
                "duration": 0.2113636,
                "tempo": 120.0
            },
            {
                "start_time": 21.0613636,
                "end_time": 21.2386364,
                "pitch": 48,
                "velocity": 127,
                "duration": 0.1772727,
                "tempo": 120.0
            },
            {
                "start_time": 21.2386364,
                "end_time": 21.4227273,
                "pitch": 45,
                "velocity": 127,
                "duration": 0.1840909,
                "tempo": 120.0
            },
            {
                "start_time": 21.4227273,
                "end_time": 21.6340909,
                "pitch": 47,
                "velocity": 127,
                "duration": 0.2113636,
                "tempo": 120.0
            },
            {
                "start_time": 21.6340909,
                "end_time": 21.825,
                "pitch": 48,
                "velocity": 127,
                "duration": 0.1909091,
                "tempo": 120.0
            },
            {
                "start_time": 21.825,
                "end_time": 22.025,
                "pitch": 50,
                "velocity": 127,
                "duration": 0.2,
                "tempo": 120.0
            },
            {
                "start_time": 22.025,
                "end_time": 22.225,
                "pitch": 45,
                "velocity": 127,
                "duration": 0.2,
                "tempo": 120.0
            },
            {
                "start_time": 22.225,
                "end_time": 22.425,
                "pitch": 48,
                "velocity": 127,
                "duration": 0.2,
                "tempo": 120.0
            },
            {
                "start_time": 22.425,
                "end_time": 22.8204545,
                "pitch": 50,
                "velocity": 127,
                "duration": 0.3954545,
                "tempo": 120.0
            },
            {
                "start_time": 22.8204545,
                "end_time": 22.9886364,
                "pitch": 45,
                "velocity": 127,
                "duration": 0.1681818,
                "tempo": 120.0
            },
            {
                "start_time": 22.9886364,
                "end_time": 23.1727273,
                "pitch": 48,
                "velocity": 127,
                "duration": 0.1840909,
                "tempo": 120.0
            },
            {
                "start_time": 23.1727273,
                "end_time": 23.5590909,
                "pitch": 50,
                "velocity": 127,
                "duration": 0.3863636,
                "tempo": 120.0
            },
            {
                "start_time": 23.5590909,
                "end_time": 23.7590909,
                "pitch": 45,
                "velocity": 127,
                "duration": 0.2,
                "tempo": 120.0
            },
            {
                "start_time": 23.7590909,
                "end_time": 23.9590909,
                "pitch": 48,
                "velocity": 127,
                "duration": 0.2,
                "tempo": 120.0
            },
            {
                "start_time": 23.9590909,
                "end_time": 24.1613636,
                "pitch": 50,
                "velocity": 127,
                "duration": 0.2022727,
                "tempo": 120.0
            },
            {
                "start_time": 24.1613636,
                "end_time": 24.3613636,
                "pitch": 50,
                "velocity": 127,
                "duration": 0.2,
                "tempo": 120.0
            },
            {
                "start_time": 24.3613636,
                "end_time": 24.5613636,
                "pitch": 45,
                "velocity": 127,
                "duration": 0.2,
                "tempo": 120.0
            },
            {
                "start_time": 24.5613636,
                "end_time": 24.7613636,
                "pitch": 48,
                "velocity": 127,
                "duration": 0.2,
                "tempo": 120.0
            },
            {
                "start_time": 24.7613636,
                "end_time": 24.9340909,
                "pitch": 50,
                "velocity": 127,
                "duration": 0.1727273,
                "tempo": 120.0
            },
            {
                "start_time": 24.9340909,
                "end_time": 25.1181818,
                "pitch": 50,
                "velocity": 127,
                "duration": 0.1840909,
                "tempo": 120.0
            },
            {
                "start_time": 25.1181818,
                "end_time": 25.3045455,
                "pitch": 45,
                "velocity": 127,
                "duration": 0.1863636,
                "tempo": 120.0
            },
            {
                "start_time": 25.3045455,
                "end_time": 25.5045455,
                "pitch": 48,
                "velocity": 127,
                "duration": 0.2,
                "tempo": 120.0
            },
            {
                "start_time": 25.5045455,
                "end_time": 25.7068182,
                "pitch": 50,
                "velocity": 127,
                "duration": 0.2022727,
                "tempo": 120.0
            },
            {
                "start_time": 25.7068182,
                "end_time": 25.9068182,
                "pitch": 50,
                "velocity": 127,
                "duration": 0.2,
                "tempo": 120.0
            },
            {
                "start_time": 25.9068182,
                "end_time": 26.1068182,
                "pitch": 45,
                "velocity": 127,
                "duration": 0.2,
                "tempo": 120.0
            },
            {
                "start_time": 26.1068182,
                "end_time": 26.3068182,
                "pitch": 48,
                "velocity": 127,
                "duration": 0.2,
                "tempo": 120.0
            },
            {
                "start_time": 26.3068182,
                "end_time": 26.5090909,
                "pitch": 50,
                "velocity": 127,
                "duration": 0.2022727,
                "tempo": 120.0
            },
            {
                "start_time": 26.5090909,
                "end_time": 26.7090909,
                "pitch": 50,
                "velocity": 127,
                "duration": 0.2,
                "tempo": 120.0
            },
            {
                "start_time": 26.7090909,
                "end_time": 26.9090909,
                "pitch": 45,
                "velocity": 127,
                "duration": 0.2,
                "tempo": 120.0
            },
            {
                "start_time": 26.9090909,
                "end_time": 27.0681818,
                "pitch": 48,
                "velocity": 127,
                "duration": 0.1590909,
                "tempo": 120.0
            },
            {
                "start_time": 27.0681818,
                "end_time": 27.0795455,
                "pitch": 50,
                "velocity": 127,
                "duration": 0.0113636,
                "tempo": 120.0
            },
            {
                "start_time": 27.0795455,
                "end_time": 27.2795455,
                "pitch": 50,
                "velocity": 127,
                "duration": 0.2,
                "tempo": 120.0
            },
            {
                "start_time": 27.2795455,
                "end_time": 27.4636364,
                "pitch": 50,
                "velocity": 127,
                "duration": 0.1840909,
                "tempo": 120.0
            },
            {
                "start_time": 27.4636364,
                "end_time": 27.65,
                "pitch": 45,
                "velocity": 127,
                "duration": 0.1863636,
                "tempo": 120.0
            },
            {
                "start_time": 27.65,
                "end_time": 27.85,
                "pitch": 48,
                "velocity": 127,
                "duration": 0.2,
                "tempo": 120.0
            },
            {
                "start_time": 27.85,
                "end_time": 28.05,
                "pitch": 50,
                "velocity": 127,
                "duration": 0.2,
                "tempo": 120.0
            },
            {
                "start_time": 28.05,
                "end_time": 28.25,
                "pitch": 50,
                "velocity": 127,
                "duration": 0.2,
                "tempo": 120.0
            },
            {
                "start_time": 28.25,
                "end_time": 28.4522727,
                "pitch": 45,
                "velocity": 127,
                "duration": 0.2022727,
                "tempo": 120.0
            },
            {
                "start_time": 28.4522727,
                "end_time": 28.6522727,
                "pitch": 48,
                "velocity": 127,
                "duration": 0.2,
                "tempo": 120.0
            },
            {
                "start_time": 28.6522727,
                "end_time": 28.8522727,
                "pitch": 50,
                "velocity": 127,
                "duration": 0.2,
                "tempo": 120.0
            },
            {
                "start_time": 28.8522727,
                "end_time": 29.0477273,
                "pitch": 50,
                "velocity": 127,
                "duration": 0.1954545,
                "tempo": 120.0
            },
            {
                "start_time": 29.0477273,
                "end_time": 29.2045455,
                "pitch": 45,
                "velocity": 127,
                "duration": 0.1568182,
                "tempo": 120.0
            },
            {
                "start_time": 29.2045455,
                "end_time": 29.3909091,
                "pitch": 48,
                "velocity": 127,
                "duration": 0.1863636,
                "tempo": 120.0
            },
            {
                "start_time": 29.3909091,
                "end_time": 29.575,
                "pitch": 50,
                "velocity": 127,
                "duration": 0.1840909,
                "tempo": 120.0
            },
            {
                "start_time": 29.575,
                "end_time": 29.775,
                "pitch": 50,
                "velocity": 127,
                "duration": 0.2,
                "tempo": 120.0
            },
            {
                "start_time": 29.775,
                "end_time": 29.975,
                "pitch": 45,
                "velocity": 127,
                "duration": 0.2,
                "tempo": 120.0
            },
            {
                "start_time": 29.975,
                "end_time": 30.1772727,
                "pitch": 48,
                "velocity": 127,
                "duration": 0.2022727,
                "tempo": 120.0
            },
            {
                "start_time": 30.1772727,
                "end_time": 30.3772727,
                "pitch": 50,
                "velocity": 127,
                "duration": 0.2,
                "tempo": 120.0
            },
            {
                "start_time": 30.3772727,
                "end_time": 30.5772727,
                "pitch": 50,
                "velocity": 127,
                "duration": 0.2,
                "tempo": 120.0
            },
            {
                "start_time": 30.5772727,
                "end_time": 30.7772727,
                "pitch": 45,
                "velocity": 127,
                "duration": 0.2,
                "tempo": 120.0
            },
            {
                "start_time": 30.7772727,
                "end_time": 30.9772727,
                "pitch": 48,
                "velocity": 127,
                "duration": 0.2,
                "tempo": 120.0
            },
            {
                "start_time": 30.9772727,
                "end_time": 31.1772727,
                "pitch": 50,
                "velocity": 127,
                "duration": 0.2,
                "tempo": 120.0
            },
            {
                "start_time": 31.1772727,
                "end_time": 31.35,
                "pitch": 50,
                "velocity": 127,
                "duration": 0.1727273,
                "tempo": 120.0
            },
            {
                "start_time": 31.35,
                "end_time": 31.55,
                "pitch": 45,
                "velocity": 127,
                "duration": 0.2,
                "tempo": 120.0
            },
            {
                "start_time": 31.55,
                "end_time": 31.7363636,
                "pitch": 48,
                "velocity": 127,
                "duration": 0.1863636,
                "tempo": 120.0
            },
            {
                "start_time": 31.7363636,
                "end_time": 31.9204545,
                "pitch": 50,
                "velocity": 127,
                "duration": 0.1840909,
                "tempo": 120.0
            },
            {
                "start_time": 31.9204545,
                "end_time": 32.1204545,
                "pitch": 50,
                "velocity": 127,
                "duration": 0.2,
                "tempo": 120.0
            },
            {
                "start_time": 32.1204545,
                "end_time": 32.3204545,
                "pitch": 45,
                "velocity": 127,
                "duration": 0.2,
                "tempo": 120.0
            },
            {
                "start_time": 32.3204545,
                "end_time": 32.5204545,
                "pitch": 48,
                "velocity": 127,
                "duration": 0.2,
                "tempo": 120.0
            },
            {
                "start_time": 32.5204545,
                "end_time": 32.7204545,
                "pitch": 50,
                "velocity": 127,
                "duration": 0.2,
                "tempo": 120.0
            },
            {
                "start_time": 32.7204545,
                "end_time": 32.9204545,
                "pitch": 50,
                "velocity": 127,
                "duration": 0.2,
                "tempo": 120.0
            },
            {
                "start_time": 32.9204545,
                "end_time": 33.1204545,
                "pitch": 45,
                "velocity": 127,
                "duration": 0.2,
                "tempo": 120.0
            },
            {
                "start_time": 33.1204545,
                "end_time": 33.3227273,
                "pitch": 48,
                "velocity": 127,
                "duration": 0.2022727,
                "tempo": 120.0
            },
            {
                "start_time": 33.3227273,
                "end_time": 33.4931818,
                "pitch": 50,
                "velocity": 127,
                "duration": 0.1704545,
                "tempo": 120.0
            },
            {
                "start_time": 33.4931818,
                "end_time": 33.6795455,
                "pitch": 50,
                "velocity": 127,
                "duration": 0.1863636,
                "tempo": 120.0
            },
            {
                "start_time": 33.6795455,
                "end_time": 33.8636364,
                "pitch": 45,
                "velocity": 127,
                "duration": 0.1840909,
                "tempo": 120.0
            },
            {
                "start_time": 33.8636364,
                "end_time": 34.0636364,
                "pitch": 48,
                "velocity": 127,
                "duration": 0.2,
                "tempo": 120.0
            },
            {
                "start_time": 34.0636364,
                "end_time": 34.2636364,
                "pitch": 50,
                "velocity": 127,
                "duration": 0.2,
                "tempo": 120.0
            },
            {
                "start_time": 34.2636364,
                "end_time": 34.4636364,
                "pitch": 50,
                "velocity": 127,
                "duration": 0.2,
                "tempo": 120.0
            },
            {
                "start_time": 34.4636364,
                "end_time": 34.6636364,
                "pitch": 45,
                "velocity": 127,
                "duration": 0.2,
                "tempo": 120.0
            },
            {
                "start_time": 34.6636364,
                "end_time": 34.8659091,
                "pitch": 48,
                "velocity": 127,
                "duration": 0.2022727,
                "tempo": 120.0
            },
            {
                "start_time": 34.8659091,
                "end_time": 35.0659091,
                "pitch": 50,
                "velocity": 127,
                "duration": 0.2,
                "tempo": 120.0
            },
            {
                "start_time": 35.0659091,
                "end_time": 35.2659091,
                "pitch": 50,
                "velocity": 127,
                "duration": 0.2,
                "tempo": 120.0
            },
            {
                "start_time": 35.2659091,
                "end_time": 35.4659091,
                "pitch": 45,
                "velocity": 127,
                "duration": 0.2,
                "tempo": 120.0
            },
            {
                "start_time": 35.4659091,
                "end_time": 35.6227273,
                "pitch": 48,
                "velocity": 127,
                "duration": 0.1568182,
                "tempo": 120.0
            },
            {
                "start_time": 35.6227273,
                "end_time": 35.8181818,
                "pitch": 50,
                "velocity": 127,
                "duration": 0.1954545,
                "tempo": 120.0
            },
            {
                "start_time": 35.8181818,
                "end_time": 36.0045455,
                "pitch": 50,
                "velocity": 127,
                "duration": 0.1863636,
                "tempo": 120.0
            },
            {
                "start_time": 36.0045455,
                "end_time": 36.1886364,
                "pitch": 45,
                "velocity": 127,
                "duration": 0.1840909,
                "tempo": 120.0
            },
            {
                "start_time": 36.1886364,
                "end_time": 36.3886364,
                "pitch": 48,
                "velocity": 127,
                "duration": 0.2,
                "tempo": 120.0
            },
            {
                "start_time": 36.3886364,
                "end_time": 36.5886364,
                "pitch": 50,
                "velocity": 127,
                "duration": 0.2,
                "tempo": 120.0
            },
            {
                "start_time": 36.5886364,
                "end_time": 36.7886364,
                "pitch": 50,
                "velocity": 127,
                "duration": 0.2,
                "tempo": 120.0
            },
            {
                "start_time": 36.7886364,
                "end_time": 36.9886364,
                "pitch": 45,
                "velocity": 127,
                "duration": 0.2,
                "tempo": 120.0
            },
            {
                "start_time": 36.9886364,
                "end_time": 37.1909091,
                "pitch": 48,
                "velocity": 127,
                "duration": 0.2022727,
                "tempo": 120.0
            },
            {
                "start_time": 37.1909091,
                "end_time": 37.4022727,
                "pitch": 50,
                "velocity": 127,
                "duration": 0.2113636,
                "tempo": 120.0
            },
            {
                "start_time": 37.4022727,
                "end_time": 37.5613636,
                "pitch": 50,
                "velocity": 127,
                "duration": 0.1590909,
                "tempo": 120.0
            },
            {
                "start_time": 37.5613636,
                "end_time": 37.7613636,
                "pitch": 45,
                "velocity": 127,
                "duration": 0.2,
                "tempo": 120.0
            },
            {
                "start_time": 37.7613636,
                "end_time": 37.9477273,
                "pitch": 48,
                "velocity": 127,
                "duration": 0.1863636,
                "tempo": 120.0
            },
            {
                "start_time": 37.9477273,
                "end_time": 38.1318182,
                "pitch": 50,
                "velocity": 127,
                "duration": 0.1840909,
                "tempo": 120.0
            },
            {
                "start_time": 38.1318182,
                "end_time": 38.3318182,
                "pitch": 50,
                "velocity": 127,
                "duration": 0.2,
                "tempo": 120.0
            },
            {
                "start_time": 38.3318182,
                "end_time": 38.5318182,
                "pitch": 45,
                "velocity": 127,
                "duration": 0.2,
                "tempo": 120.0
            },
            {
                "start_time": 38.5318182,
                "end_time": 38.7340909,
                "pitch": 48,
                "velocity": 127,
                "duration": 0.2022727,
                "tempo": 120.0
            },
            {
                "start_time": 38.7340909,
                "end_time": 38.9363636,
                "pitch": 50,
                "velocity": 127,
                "duration": 0.2022727,
                "tempo": 120.0
            },
            {
                "start_time": 38.9363636,
                "end_time": 39.1363636,
                "pitch": 50,
                "velocity": 127,
                "duration": 0.2,
                "tempo": 120.0
            },
            {
                "start_time": 39.1363636,
                "end_time": 39.3363636,
                "pitch": 45,
                "velocity": 127,
                "duration": 0.2,
                "tempo": 120.0
            },
            {
                "start_time": 39.3363636,
                "end_time": 39.5363636,
                "pitch": 48,
                "velocity": 127,
                "duration": 0.2,
                "tempo": 120.0
            },
            {
                "start_time": 39.5363636,
                "end_time": 39.7045455,
                "pitch": 50,
                "velocity": 127,
                "duration": 0.1681818,
                "tempo": 120.0
            },
            {
                "start_time": 39.7045455,
                "end_time": 39.8909091,
                "pitch": 50,
                "velocity": 127,
                "duration": 0.1863636,
                "tempo": 120.0
            },
            {
                "start_time": 39.8909091,
                "end_time": 40.075,
                "pitch": 45,
                "velocity": 127,
                "duration": 0.1840909,
                "tempo": 120.0
            },
            {
                "start_time": 40.075,
                "end_time": 40.2772727,
                "pitch": 48,
                "velocity": 127,
                "duration": 0.2022727,
                "tempo": 120.0
            },
            {
                "start_time": 40.2772727,
                "end_time": 40.4772727,
                "pitch": 50,
                "velocity": 127,
                "duration": 0.2,
                "tempo": 120.0
            },
            {
                "start_time": 40.4772727,
                "end_time": 40.6772727,
                "pitch": 50,
                "velocity": 127,
                "duration": 0.2,
                "tempo": 120.0
            },
            {
                "start_time": 40.6772727,
                "end_time": 40.8772727,
                "pitch": 45,
                "velocity": 127,
                "duration": 0.2,
                "tempo": 120.0
            },
            {
                "start_time": 40.8772727,
                "end_time": 41.0772727,
                "pitch": 48,
                "velocity": 127,
                "duration": 0.2,
                "tempo": 120.0
            },
            {
                "start_time": 41.0772727,
                "end_time": 41.2772727,
                "pitch": 50,
                "velocity": 127,
                "duration": 0.2,
                "tempo": 120.0
            },
            {
                "start_time": 41.2772727,
                "end_time": 41.4772727,
                "pitch": 50,
                "velocity": 127,
                "duration": 0.2,
                "tempo": 120.0
            },
            {
                "start_time": 41.4772727,
                "end_time": 41.6772727,
                "pitch": 45,
                "velocity": 127,
                "duration": 0.2,
                "tempo": 120.0
            },
            {
                "start_time": 41.6772727,
                "end_time": 41.8386364,
                "pitch": 48,
                "velocity": 127,
                "duration": 0.1613636,
                "tempo": 120.0
            },
            {
                "start_time": 41.8386364,
                "end_time": 42.0386364,
                "pitch": 50,
                "velocity": 127,
                "duration": 0.2,
                "tempo": 120.0
            },
            {
                "start_time": 42.0386364,
                "end_time": 42.2340909,
                "pitch": 50,
                "velocity": 127,
                "duration": 0.1954545,
                "tempo": 120.0
            },
            {
                "start_time": 42.2340909,
                "end_time": 42.4090909,
                "pitch": 45,
                "velocity": 127,
                "duration": 0.175,
                "tempo": 120.0
            },
            {
                "start_time": 42.4090909,
                "end_time": 42.6090909,
                "pitch": 48,
                "velocity": 127,
                "duration": 0.2,
                "tempo": 120.0
            },
            {
                "start_time": 42.6090909,
                "end_time": 42.8181818,
                "pitch": 50,
                "velocity": 127,
                "duration": 0.2090909,
                "tempo": 120.0
            },
            {
                "start_time": 42.8181818,
                "end_time": 43.0090909,
                "pitch": 50,
                "velocity": 127,
                "duration": 0.1909091,
                "tempo": 120.0
            },
            {
                "start_time": 43.0090909,
                "end_time": 43.2181818,
                "pitch": 45,
                "velocity": 127,
                "duration": 0.2090909,
                "tempo": 120.0
            },
            {
                "start_time": 43.2181818,
                "end_time": 43.4090909,
                "pitch": 48,
                "velocity": 127,
                "duration": 0.1909091,
                "tempo": 120.0
            },
            {
                "start_time": 43.4090909,
                "end_time": 43.6181818,
                "pitch": 50,
                "velocity": 127,
                "duration": 0.2090909,
                "tempo": 120.0
            },
            {
                "start_time": 43.6181818,
                "end_time": 43.8045455,
                "pitch": 50,
                "velocity": 127,
                "duration": 0.1863636,
                "tempo": 120.0
            },
            {
                "start_time": 43.8136364,
                "end_time": 43.9704545,
                "pitch": 45,
                "velocity": 127,
                "duration": 0.1568182,
                "tempo": 120.0
            },
            {
                "start_time": 43.9704545,
                "end_time": 44.1568182,
                "pitch": 48,
                "velocity": 127,
                "duration": 0.1863636,
                "tempo": 120.0
            },
            {
                "start_time": 44.1568182,
                "end_time": 44.3409091,
                "pitch": 50,
                "velocity": 127,
                "duration": 0.1840909,
                "tempo": 120.0
            },
            {
                "start_time": 44.3409091,
                "end_time": 44.5409091,
                "pitch": 50,
                "velocity": 127,
                "duration": 0.2,
                "tempo": 120.0
            },
            {
                "start_time": 44.5409091,
                "end_time": 44.7409091,
                "pitch": 45,
                "velocity": 127,
                "duration": 0.2,
                "tempo": 120.0
            },
            {
                "start_time": 44.7409091,
                "end_time": 44.9409091,
                "pitch": 48,
                "velocity": 127,
                "duration": 0.2,
                "tempo": 120.0
            },
            {
                "start_time": 44.9409091,
                "end_time": 45.1409091,
                "pitch": 50,
                "velocity": 127,
                "duration": 0.2,
                "tempo": 120.0
            },
            {
                "start_time": 45.1409091,
                "end_time": 45.3409091,
                "pitch": 50,
                "velocity": 127,
                "duration": 0.2,
                "tempo": 120.0
            },
            {
                "start_time": 45.3409091,
                "end_time": 45.5409091,
                "pitch": 45,
                "velocity": 127,
                "duration": 0.2,
                "tempo": 120.0
            },
            {
                "start_time": 45.5409091,
                "end_time": 45.7409091,
                "pitch": 48,
                "velocity": 127,
                "duration": 0.2,
                "tempo": 120.0
            },
            {
                "start_time": 45.7409091,
                "end_time": 45.9409091,
                "pitch": 50,
                "velocity": 127,
                "duration": 0.2,
                "tempo": 120.0
            },
            {
                "start_time": 45.9409091,
                "end_time": 46.1136364,
                "pitch": 50,
                "velocity": 127,
                "duration": 0.1727273,
                "tempo": 120.0
            },
            {
                "start_time": 46.1136364,
                "end_time": 46.3136364,
                "pitch": 45,
                "velocity": 127,
                "duration": 0.2,
                "tempo": 120.0
            },
            {
                "start_time": 46.3136364,
                "end_time": 46.5,
                "pitch": 48,
                "velocity": 127,
                "duration": 0.1863636,
                "tempo": 120.0
            },
            {
                "start_time": 46.5,
                "end_time": 46.6840909,
                "pitch": 50,
                "velocity": 127,
                "duration": 0.1840909,
                "tempo": 120.0
            },
            {
                "start_time": 46.6840909,
                "end_time": 46.8840909,
                "pitch": 50,
                "velocity": 127,
                "duration": 0.2,
                "tempo": 120.0
            },
            {
                "start_time": 46.8840909,
                "end_time": 47.0840909,
                "pitch": 45,
                "velocity": 127,
                "duration": 0.2,
                "tempo": 120.0
            },
            {
                "start_time": 47.0840909,
                "end_time": 47.2840909,
                "pitch": 48,
                "velocity": 127,
                "duration": 0.2,
                "tempo": 120.0
            },
            {
                "start_time": 47.2840909,
                "end_time": 47.4840909,
                "pitch": 50,
                "velocity": 127,
                "duration": 0.2,
                "tempo": 120.0
            },
            {
                "start_time": 47.4840909,
                "end_time": 47.6863636,
                "pitch": 50,
                "velocity": 127,
                "duration": 0.2022727,
                "tempo": 120.0
            },
            {
                "start_time": 47.6863636,
                "end_time": 47.8863636,
                "pitch": 45,
                "velocity": 127,
                "duration": 0.2,
                "tempo": 120.0
            },
            {
                "start_time": 47.8863636,
                "end_time": 48.0863636,
                "pitch": 48,
                "velocity": 127,
                "duration": 0.2,
                "tempo": 120.0
            },
            {
                "start_time": 48.0863636,
                "end_time": 48.2568182,
                "pitch": 50,
                "velocity": 127,
                "duration": 0.1704545,
                "tempo": 120.0
            },
            {
                "start_time": 48.2568182,
                "end_time": 48.4431818,
                "pitch": 50,
                "velocity": 127,
                "duration": 0.1863636,
                "tempo": 120.0
            },
            {
                "start_time": 48.4431818,
                "end_time": 48.6272727,
                "pitch": 45,
                "velocity": 127,
                "duration": 0.1840909,
                "tempo": 120.0
            },
            {
                "start_time": 48.6272727,
                "end_time": 48.8272727,
                "pitch": 48,
                "velocity": 127,
                "duration": 0.2,
                "tempo": 120.0
            },
            {
                "start_time": 48.8272727,
                "end_time": 49.0272727,
                "pitch": 50,
                "velocity": 127,
                "duration": 0.2,
                "tempo": 120.0
            },
            {
                "start_time": 49.0272727,
                "end_time": 49.2272727,
                "pitch": 50,
                "velocity": 127,
                "duration": 0.2,
                "tempo": 120.0
            },
            {
                "start_time": 49.2272727,
                "end_time": 49.4272727,
                "pitch": 45,
                "velocity": 127,
                "duration": 0.2,
                "tempo": 120.0
            },
            {
                "start_time": 49.4272727,
                "end_time": 49.6295455,
                "pitch": 48,
                "velocity": 127,
                "duration": 0.2022727,
                "tempo": 120.0
            },
            {
                "start_time": 49.6295455,
                "end_time": 49.8295455,
                "pitch": 50,
                "velocity": 127,
                "duration": 0.2,
                "tempo": 120.0
            },
            {
                "start_time": 49.8295455,
                "end_time": 50.0295455,
                "pitch": 48,
                "velocity": 127,
                "duration": 0.2,
                "tempo": 120.0
            },
            {
                "start_time": 50.0295455,
                "end_time": 50.1909091,
                "pitch": 47,
                "velocity": 127,
                "duration": 0.1613636,
                "tempo": 120.0
            },
            {
                "start_time": 50.1909091,
                "end_time": 50.3704545,
                "pitch": 45,
                "velocity": 127,
                "duration": 0.1795455,
                "tempo": 120.0
            },
            {
                "start_time": 50.3704545,
                "end_time": 50.5522727,
                "pitch": 48,
                "velocity": 127,
                "duration": 0.1818182,
                "tempo": 120.0
            },
            {
                "start_time": 50.5522727,
                "end_time": 50.7522727,
                "pitch": 47,
                "velocity": 127,
                "duration": 0.2,
                "tempo": 120.0
            },
            {
                "start_time": 50.7522727,
                "end_time": 50.9522727,
                "pitch": 45,
                "velocity": 127,
                "duration": 0.2,
                "tempo": 120.0
            },
            {
                "start_time": 50.9522727,
                "end_time": 51.1522727,
                "pitch": 48,
                "velocity": 127,
                "duration": 0.2,
                "tempo": 120.0
            },
            {
                "start_time": 51.1522727,
                "end_time": 51.3522727,
                "pitch": 47,
                "velocity": 127,
                "duration": 0.2,
                "tempo": 120.0
            },
            {
                "start_time": 51.3522727,
                "end_time": 51.5522727,
                "pitch": 45,
                "velocity": 127,
                "duration": 0.2,
                "tempo": 120.0
            },
            {
                "start_time": 51.5522727,
                "end_time": 51.7545455,
                "pitch": 48,
                "velocity": 127,
                "duration": 0.2022727,
                "tempo": 120.0
            },
            {
                "start_time": 51.7545455,
                "end_time": 51.9545455,
                "pitch": 47,
                "velocity": 127,
                "duration": 0.2,
                "tempo": 120.0
            },
            {
                "start_time": 51.9545455,
                "end_time": 52.1545455,
                "pitch": 45,
                "velocity": 127,
                "duration": 0.2,
                "tempo": 120.0
            },
            {
                "start_time": 52.1545455,
                "end_time": 52.325,
                "pitch": 48,
                "velocity": 127,
                "duration": 0.1704545,
                "tempo": 120.0
            },
            {
                "start_time": 52.325,
                "end_time": 52.525,
                "pitch": 47,
                "velocity": 127,
                "duration": 0.2,
                "tempo": 120.0
            },
            {
                "start_time": 52.525,
                "end_time": 52.7090909,
                "pitch": 45,
                "velocity": 127,
                "duration": 0.1840909,
                "tempo": 120.0
            },
            {
                "start_time": 52.7090909,
                "end_time": 52.8954545,
                "pitch": 48,
                "velocity": 127,
                "duration": 0.1863636,
                "tempo": 120.0
            },
            {
                "start_time": 52.8954545,
                "end_time": 53.0954545,
                "pitch": 50,
                "velocity": 127,
                "duration": 0.2,
                "tempo": 120.0
            },
            {
                "start_time": 53.0954545,
                "end_time": 53.2977273,
                "pitch": 48,
                "velocity": 127,
                "duration": 0.2022727,
                "tempo": 120.0
            },
            {
                "start_time": 53.2977273,
                "end_time": 53.4977273,
                "pitch": 47,
                "velocity": 127,
                "duration": 0.2,
                "tempo": 120.0
            },
            {
                "start_time": 53.4977273,
                "end_time": 53.6977273,
                "pitch": 50,
                "velocity": 127,
                "duration": 0.2,
                "tempo": 120.0
            },
            {
                "start_time": 53.6977273,
                "end_time": 53.8977273,
                "pitch": 48,
                "velocity": 127,
                "duration": 0.2,
                "tempo": 120.0
            },
            {
                "start_time": 53.8977273,
                "end_time": 54.0977273,
                "pitch": 47,
                "velocity": 127,
                "duration": 0.2,
                "tempo": 120.0
            },
            {
                "start_time": 54.0977273,
                "end_time": 54.2977273,
                "pitch": 50,
                "velocity": 127,
                "duration": 0.2,
                "tempo": 120.0
            },
            {
                "start_time": 54.2977273,
                "end_time": 54.4681818,
                "pitch": 48,
                "velocity": 127,
                "duration": 0.1704545,
                "tempo": 120.0
            },
            {
                "start_time": 54.4681818,
                "end_time": 54.6522727,
                "pitch": 47,
                "velocity": 127,
                "duration": 0.1840909,
                "tempo": 120.0
            },
            {
                "start_time": 54.6522727,
                "end_time": 54.8386364,
                "pitch": 50,
                "velocity": 127,
                "duration": 0.1863636,
                "tempo": 120.0
            },
            {
                "start_time": 54.8386364,
                "end_time": 55.0386364,
                "pitch": 48,
                "velocity": 127,
                "duration": 0.2,
                "tempo": 120.0
            },
            {
                "start_time": 55.0386364,
                "end_time": 55.2409091,
                "pitch": 47,
                "velocity": 127,
                "duration": 0.2022727,
                "tempo": 120.0
            },
            {
                "start_time": 55.2409091,
                "end_time": 55.4409091,
                "pitch": 50,
                "velocity": 127,
                "duration": 0.2,
                "tempo": 120.0
            },
            {
                "start_time": 55.4409091,
                "end_time": 55.6409091,
                "pitch": 48,
                "velocity": 127,
                "duration": 0.2,
                "tempo": 120.0
            },
            {
                "start_time": 55.6409091,
                "end_time": 55.8409091,
                "pitch": 47,
                "velocity": 127,
                "duration": 0.2,
                "tempo": 120.0
            },
            {
                "start_time": 55.8409091,
                "end_time": 56.0409091,
                "pitch": 50,
                "velocity": 127,
                "duration": 0.2,
                "tempo": 120.0
            },
            {
                "start_time": 56.0409091,
                "end_time": 56.2409091,
                "pitch": 48,
                "velocity": 127,
                "duration": 0.2,
                "tempo": 120.0
            },
            {
                "start_time": 56.2409091,
                "end_time": 56.4409091,
                "pitch": 47,
                "velocity": 127,
                "duration": 0.2,
                "tempo": 120.0
            },
            {
                "start_time": 56.4409091,
                "end_time": 56.6,
                "pitch": 45,
                "velocity": 127,
                "duration": 0.1590909,
                "tempo": 120.0
            },
            {
                "start_time": 56.6,
                "end_time": 56.8,
                "pitch": 48,
                "velocity": 127,
                "duration": 0.2,
                "tempo": 120.0
            },
            {
                "start_time": 56.8,
                "end_time": 56.9863636,
                "pitch": 47,
                "velocity": 127,
                "duration": 0.1863636,
                "tempo": 120.0
            },
            {
                "start_time": 56.9863636,
                "end_time": 57.1727273,
                "pitch": 45,
                "velocity": 127,
                "duration": 0.1863636,
                "tempo": 120.0
            },
            {
                "start_time": 57.1727273,
                "end_time": 57.3818182,
                "pitch": 48,
                "velocity": 127,
                "duration": 0.2090909,
                "tempo": 120.0
            },
            {
                "start_time": 57.3818182,
                "end_time": 57.5704545,
                "pitch": 47,
                "velocity": 127,
                "duration": 0.1886364,
                "tempo": 120.0
            },
            {
                "start_time": 57.5704545,
                "end_time": 57.7704545,
                "pitch": 45,
                "velocity": 127,
                "duration": 0.2,
                "tempo": 120.0
            },
            {
                "start_time": 57.7704545,
                "end_time": 57.9704545,
                "pitch": 48,
                "velocity": 127,
                "duration": 0.2,
                "tempo": 120.0
            },
            {
                "start_time": 57.9704545,
                "end_time": 58.1704545,
                "pitch": 47,
                "velocity": 127,
                "duration": 0.2,
                "tempo": 120.0
            },
            {
                "start_time": 58.1704545,
                "end_time": 58.3704545,
                "pitch": 45,
                "velocity": 127,
                "duration": 0.2,
                "tempo": 120.0
            },
            {
                "start_time": 58.3704545,
                "end_time": 58.5681818,
                "pitch": 48,
                "velocity": 127,
                "duration": 0.1977273,
                "tempo": 120.0
            },
            {
                "start_time": 58.5681818,
                "end_time": 58.7340909,
                "pitch": 47,
                "velocity": 127,
                "duration": 0.1659091,
                "tempo": 120.0
            },
            {
                "start_time": 58.7340909,
                "end_time": 58.9181818,
                "pitch": 45,
                "velocity": 127,
                "duration": 0.1840909,
                "tempo": 120.0
            },
            {
                "start_time": 58.9181818,
                "end_time": 59.1045455,
                "pitch": 48,
                "velocity": 127,
                "duration": 0.1863636,
                "tempo": 120.0
            },
            {
                "start_time": 59.1045455,
                "end_time": 59.3045455,
                "pitch": 50,
                "velocity": 127,
                "duration": 0.2,
                "tempo": 120.0
            },
            {
                "start_time": 59.3045455,
                "end_time": 59.5045455,
                "pitch": 48,
                "velocity": 127,
                "duration": 0.2,
                "tempo": 120.0
            },
            {
                "start_time": 59.5045455,
                "end_time": 59.7045455,
                "pitch": 47,
                "velocity": 127,
                "duration": 0.2,
                "tempo": 120.0
            },
            {
                "start_time": 59.7045455,
                "end_time": 59.9045455,
                "pitch": 50,
                "velocity": 127,
                "duration": 0.2,
                "tempo": 120.0
            },
            {
                "start_time": 59.9045455,
                "end_time": 60.1045455,
                "pitch": 48,
                "velocity": 127,
                "duration": 0.2,
                "tempo": 120.0
            },
            {
                "start_time": 60.1045455,
                "end_time": 60.3045455,
                "pitch": 47,
                "velocity": 127,
                "duration": 0.2,
                "tempo": 120.0
            },
            {
                "start_time": 60.3045455,
                "end_time": 60.5045455,
                "pitch": 50,
                "velocity": 127,
                "duration": 0.2,
                "tempo": 120.0
            },
            {
                "start_time": 60.5045455,
                "end_time": 60.7068182,
                "pitch": 48,
                "velocity": 127,
                "duration": 0.2022727,
                "tempo": 120.0
            },
            {
                "start_time": 60.7068182,
                "end_time": 60.8772727,
                "pitch": 47,
                "velocity": 127,
                "duration": 0.1704545,
                "tempo": 120.0
            },
            {
                "start_time": 60.8772727,
                "end_time": 61.0772727,
                "pitch": 50,
                "velocity": 127,
                "duration": 0.2,
                "tempo": 120.0
            },
            {
                "start_time": 61.0772727,
                "end_time": 61.2613636,
                "pitch": 48,
                "velocity": 127,
                "duration": 0.1840909,
                "tempo": 120.0
            },
            {
                "start_time": 61.2613636,
                "end_time": 61.4477273,
                "pitch": 47,
                "velocity": 127,
                "duration": 0.1863636,
                "tempo": 120.0
            },
            {
                "start_time": 61.4477273,
                "end_time": 61.6477273,
                "pitch": 50,
                "velocity": 127,
                "duration": 0.2,
                "tempo": 120.0
            },
            {
                "start_time": 61.6477273,
                "end_time": 61.8477273,
                "pitch": 48,
                "velocity": 127,
                "duration": 0.2,
                "tempo": 120.0
            },
            {
                "start_time": 61.8477273,
                "end_time": 62.0477273,
                "pitch": 47,
                "velocity": 127,
                "duration": 0.2,
                "tempo": 120.0
            },
            {
                "start_time": 62.0477273,
                "end_time": 62.2477273,
                "pitch": 50,
                "velocity": 127,
                "duration": 0.2,
                "tempo": 120.0
            },
            {
                "start_time": 62.2477273,
                "end_time": 62.4477273,
                "pitch": 50,
                "velocity": 127,
                "duration": 0.2,
                "tempo": 120.0
            },
            {
                "start_time": 62.4477273,
                "end_time": 62.65,
                "pitch": 45,
                "velocity": 127,
                "duration": 0.2022727,
                "tempo": 120.0
            }
        ],
        "Vibraphone": [
            {
                "start_time": 0.1090909,
                "end_time": 0.2090909,
                "pitch": 78,
                "velocity": 101,
                "duration": 0.1,
                "tempo": 120.0
            },
            {
                "start_time": 0.2090909,
                "end_time": 0.3090909,
                "pitch": 76,
                "velocity": 101,
                "duration": 0.1,
                "tempo": 120.0
            },
            {
                "start_time": 0.3090909,
                "end_time": 0.4090909,
                "pitch": 78,
                "velocity": 101,
                "duration": 0.1,
                "tempo": 120.0
            },
            {
                "start_time": 0.4090909,
                "end_time": 0.5090909,
                "pitch": 79,
                "velocity": 101,
                "duration": 0.1,
                "tempo": 120.0
            },
            {
                "start_time": 0.5090909,
                "end_time": 0.6068182,
                "pitch": 78,
                "velocity": 101,
                "duration": 0.0977273,
                "tempo": 120.0
            },
            {
                "start_time": 0.6068182,
                "end_time": 0.7045455,
                "pitch": 76,
                "velocity": 101,
                "duration": 0.0977273,
                "tempo": 120.0
            },
            {
                "start_time": 0.7045455,
                "end_time": 0.8022727,
                "pitch": 78,
                "velocity": 101,
                "duration": 0.0977273,
                "tempo": 120.0
            },
            {
                "start_time": 0.8022727,
                "end_time": 0.9022727,
                "pitch": 79,
                "velocity": 101,
                "duration": 0.1,
                "tempo": 120.0
            },
            {
                "start_time": 0.9022727,
                "end_time": 1.0045455,
                "pitch": 78,
                "velocity": 101,
                "duration": 0.1022727,
                "tempo": 120.0
            },
            {
                "start_time": 1.0045455,
                "end_time": 1.1045455,
                "pitch": 76,
                "velocity": 101,
                "duration": 0.1,
                "tempo": 120.0
            },
            {
                "start_time": 1.1045455,
                "end_time": 1.2045455,
                "pitch": 78,
                "velocity": 101,
                "duration": 0.1,
                "tempo": 120.0
            },
            {
                "start_time": 1.2045455,
                "end_time": 1.3045455,
                "pitch": 79,
                "velocity": 101,
                "duration": 0.1,
                "tempo": 120.0
            },
            {
                "start_time": 1.3045455,
                "end_time": 1.4045455,
                "pitch": 78,
                "velocity": 101,
                "duration": 0.1,
                "tempo": 120.0
            },
            {
                "start_time": 1.4045455,
                "end_time": 1.5045455,
                "pitch": 76,
                "velocity": 101,
                "duration": 0.1,
                "tempo": 120.0
            },
            {
                "start_time": 1.5045455,
                "end_time": 1.6045455,
                "pitch": 78,
                "velocity": 101,
                "duration": 0.1,
                "tempo": 120.0
            },
            {
                "start_time": 1.6045455,
                "end_time": 1.7045455,
                "pitch": 79,
                "velocity": 101,
                "duration": 0.1,
                "tempo": 120.0
            },
            {
                "start_time": 1.7045455,
                "end_time": 1.775,
                "pitch": 78,
                "velocity": 101,
                "duration": 0.0704545,
                "tempo": 120.0
            },
            {
                "start_time": 1.775,
                "end_time": 1.8772727,
                "pitch": 76,
                "velocity": 101,
                "duration": 0.1022727,
                "tempo": 120.0
            },
            {
                "start_time": 1.8772727,
                "end_time": 1.9772727,
                "pitch": 78,
                "velocity": 101,
                "duration": 0.1,
                "tempo": 120.0
            },
            {
                "start_time": 1.9772727,
                "end_time": 2.0704545,
                "pitch": 79,
                "velocity": 101,
                "duration": 0.0931818,
                "tempo": 120.0
            },
            {
                "start_time": 2.0704545,
                "end_time": 2.1636364,
                "pitch": 78,
                "velocity": 101,
                "duration": 0.0931818,
                "tempo": 120.0
            },
            {
                "start_time": 2.1636364,
                "end_time": 2.2545455,
                "pitch": 76,
                "velocity": 101,
                "duration": 0.0909091,
                "tempo": 120.0
            },
            {
                "start_time": 2.2545455,
                "end_time": 2.3477273,
                "pitch": 78,
                "velocity": 101,
                "duration": 0.0931818,
                "tempo": 120.0
            },
            {
                "start_time": 2.3477273,
                "end_time": 2.4477273,
                "pitch": 79,
                "velocity": 101,
                "duration": 0.1,
                "tempo": 120.0
            },
            {
                "start_time": 2.4477273,
                "end_time": 2.5477273,
                "pitch": 78,
                "velocity": 101,
                "duration": 0.1,
                "tempo": 120.0
            },
            {
                "start_time": 2.5477273,
                "end_time": 2.6477273,
                "pitch": 76,
                "velocity": 101,
                "duration": 0.1,
                "tempo": 120.0
            },
            {
                "start_time": 2.6477273,
                "end_time": 2.7477273,
                "pitch": 78,
                "velocity": 101,
                "duration": 0.1,
                "tempo": 120.0
            },
            {
                "start_time": 2.7477273,
                "end_time": 2.8477273,
                "pitch": 79,
                "velocity": 101,
                "duration": 0.1,
                "tempo": 120.0
            },
            {
                "start_time": 2.8477273,
                "end_time": 2.9477273,
                "pitch": 78,
                "velocity": 101,
                "duration": 0.1,
                "tempo": 120.0
            },
            {
                "start_time": 2.9477273,
                "end_time": 3.0477273,
                "pitch": 76,
                "velocity": 101,
                "duration": 0.1,
                "tempo": 120.0
            },
            {
                "start_time": 3.0477273,
                "end_time": 3.1477273,
                "pitch": 78,
                "velocity": 101,
                "duration": 0.1,
                "tempo": 120.0
            },
            {
                "start_time": 3.1477273,
                "end_time": 3.2477273,
                "pitch": 81,
                "velocity": 101,
                "duration": 0.1,
                "tempo": 120.0
            },
            {
                "start_time": 3.2477273,
                "end_time": 3.35,
                "pitch": 79,
                "velocity": 101,
                "duration": 0.1022727,
                "tempo": 120.0
            },
            {
                "start_time": 3.35,
                "end_time": 3.45,
                "pitch": 78,
                "velocity": 101,
                "duration": 0.1,
                "tempo": 120.0
            },
            {
                "start_time": 3.45,
                "end_time": 3.55,
                "pitch": 79,
                "velocity": 101,
                "duration": 0.1,
                "tempo": 120.0
            },
            {
                "start_time": 3.55,
                "end_time": 3.65,
                "pitch": 81,
                "velocity": 101,
                "duration": 0.1,
                "tempo": 120.0
            },
            {
                "start_time": 3.65,
                "end_time": 3.75,
                "pitch": 79,
                "velocity": 101,
                "duration": 0.1,
                "tempo": 120.0
            },
            {
                "start_time": 3.75,
                "end_time": 3.85,
                "pitch": 78,
                "velocity": 101,
                "duration": 0.1,
                "tempo": 120.0
            },
            {
                "start_time": 3.85,
                "end_time": 3.9204545,
                "pitch": 79,
                "velocity": 101,
                "duration": 0.0704545,
                "tempo": 120.0
            },
            {
                "start_time": 3.9204545,
                "end_time": 4.0136364,
                "pitch": 81,
                "velocity": 101,
                "duration": 0.0931818,
                "tempo": 120.0
            },
            {
                "start_time": 4.0136364,
                "end_time": 4.1045455,
                "pitch": 79,
                "velocity": 101,
                "duration": 0.0909091,
                "tempo": 120.0
            },
            {
                "start_time": 4.1045455,
                "end_time": 4.1977273,
                "pitch": 78,
                "velocity": 101,
                "duration": 0.0931818,
                "tempo": 120.0
            },
            {
                "start_time": 4.1977273,
                "end_time": 4.2909091,
                "pitch": 79,
                "velocity": 101,
                "duration": 0.0931818,
                "tempo": 120.0
            },
            {
                "start_time": 4.2909091,
                "end_time": 4.3909091,
                "pitch": 81,
                "velocity": 101,
                "duration": 0.1,
                "tempo": 120.0
            },
            {
                "start_time": 4.3909091,
                "end_time": 4.4909091,
                "pitch": 79,
                "velocity": 101,
                "duration": 0.1,
                "tempo": 120.0
            },
            {
                "start_time": 4.4909091,
                "end_time": 4.5909091,
                "pitch": 78,
                "velocity": 101,
                "duration": 0.1,
                "tempo": 120.0
            },
            {
                "start_time": 4.5909091,
                "end_time": 4.6909091,
                "pitch": 79,
                "velocity": 101,
                "duration": 0.1,
                "tempo": 120.0
            },
            {
                "start_time": 4.6909091,
                "end_time": 4.7909091,
                "pitch": 81,
                "velocity": 101,
                "duration": 0.1,
                "tempo": 120.0
            },
            {
                "start_time": 4.7909091,
                "end_time": 4.8931818,
                "pitch": 79,
                "velocity": 101,
                "duration": 0.1022727,
                "tempo": 120.0
            },
            {
                "start_time": 4.8931818,
                "end_time": 4.9931818,
                "pitch": 78,
                "velocity": 101,
                "duration": 0.1,
                "tempo": 120.0
            },
            {
                "start_time": 4.9931818,
                "end_time": 5.0931818,
                "pitch": 79,
                "velocity": 101,
                "duration": 0.1,
                "tempo": 120.0
            },
            {
                "start_time": 5.0931818,
                "end_time": 5.1931818,
                "pitch": 81,
                "velocity": 101,
                "duration": 0.1,
                "tempo": 120.0
            },
            {
                "start_time": 5.1931818,
                "end_time": 5.2954545,
                "pitch": 79,
                "velocity": 101,
                "duration": 0.1022727,
                "tempo": 120.0
            },
            {
                "start_time": 5.2954545,
                "end_time": 5.3954545,
                "pitch": 78,
                "velocity": 101,
                "duration": 0.1,
                "tempo": 120.0
            },
            {
                "start_time": 5.3954545,
                "end_time": 5.4954545,
                "pitch": 79,
                "velocity": 101,
                "duration": 0.1,
                "tempo": 120.0
            },
            {
                "start_time": 5.4954545,
                "end_time": 5.5954545,
                "pitch": 81,
                "velocity": 101,
                "duration": 0.1,
                "tempo": 120.0
            },
            {
                "start_time": 5.5954545,
                "end_time": 5.6954545,
                "pitch": 79,
                "velocity": 101,
                "duration": 0.1,
                "tempo": 120.0
            },
            {
                "start_time": 5.6954545,
                "end_time": 5.7954545,
                "pitch": 78,
                "velocity": 101,
                "duration": 0.1,
                "tempo": 120.0
            },
            {
                "start_time": 5.7954545,
                "end_time": 5.8954545,
                "pitch": 79,
                "velocity": 101,
                "duration": 0.1,
                "tempo": 120.0
            },
            {
                "start_time": 5.8954545,
                "end_time": 5.9568182,
                "pitch": 81,
                "velocity": 101,
                "duration": 0.0613636,
                "tempo": 120.0
            },
            {
                "start_time": 5.9568182,
                "end_time": 6.0568182,
                "pitch": 79,
                "velocity": 101,
                "duration": 0.1,
                "tempo": 120.0
            },
            {
                "start_time": 6.0568182,
                "end_time": 6.1568182,
                "pitch": 78,
                "velocity": 101,
                "duration": 0.1,
                "tempo": 120.0
            },
            {
                "start_time": 6.1568182,
                "end_time": 6.2681818,
                "pitch": 79,
                "velocity": 101,
                "duration": 0.1113636,
                "tempo": 120.0
            },
            {
                "start_time": 6.2681818,
                "end_time": 6.3522727,
                "pitch": 79,
                "velocity": 101,
                "duration": 0.0840909,
                "tempo": 120.0
            },
            {
                "start_time": 6.3522727,
                "end_time": 6.4454545,
                "pitch": 78,
                "velocity": 101,
                "duration": 0.0931818,
                "tempo": 120.0
            },
            {
                "start_time": 6.4454545,
                "end_time": 6.5363636,
                "pitch": 76,
                "velocity": 101,
                "duration": 0.0909091,
                "tempo": 120.0
            },
            {
                "start_time": 6.5363636,
                "end_time": 6.6295455,
                "pitch": 78,
                "velocity": 101,
                "duration": 0.0931818,
                "tempo": 120.0
            },
            {
                "start_time": 6.6295455,
                "end_time": 6.7295455,
                "pitch": 79,
                "velocity": 101,
                "duration": 0.1,
                "tempo": 120.0
            },
            {
                "start_time": 6.7295455,
                "end_time": 6.8295455,
                "pitch": 78,
                "velocity": 101,
                "duration": 0.1,
                "tempo": 120.0
            },
            {
                "start_time": 6.8295455,
                "end_time": 6.9295455,
                "pitch": 76,
                "velocity": 101,
                "duration": 0.1,
                "tempo": 120.0
            },
            {
                "start_time": 6.9295455,
                "end_time": 7.0295455,
                "pitch": 78,
                "velocity": 101,
                "duration": 0.1,
                "tempo": 120.0
            },
            {
                "start_time": 7.0295455,
                "end_time": 7.1272727,
                "pitch": 79,
                "velocity": 101,
                "duration": 0.0977273,
                "tempo": 120.0
            },
            {
                "start_time": 7.1272727,
                "end_time": 7.225,
                "pitch": 78,
                "velocity": 101,
                "duration": 0.0977273,
                "tempo": 120.0
            },
            {
                "start_time": 7.225,
                "end_time": 7.3227273,
                "pitch": 76,
                "velocity": 101,
                "duration": 0.0977273,
                "tempo": 120.0
            },
            {
                "start_time": 7.3227273,
                "end_time": 7.4204545,
                "pitch": 78,
                "velocity": 101,
                "duration": 0.0977273,
                "tempo": 120.0
            },
            {
                "start_time": 7.4204545,
                "end_time": 7.5227273,
                "pitch": 79,
                "velocity": 101,
                "duration": 0.1022727,
                "tempo": 120.0
            },
            {
                "start_time": 7.5227273,
                "end_time": 7.6272727,
                "pitch": 78,
                "velocity": 101,
                "duration": 0.1045455,
                "tempo": 120.0
            },
            {
                "start_time": 7.6272727,
                "end_time": 7.7295455,
                "pitch": 76,
                "velocity": 101,
                "duration": 0.1022727,
                "tempo": 120.0
            },
            {
                "start_time": 7.7295455,
                "end_time": 7.8409091,
                "pitch": 78,
                "velocity": 101,
                "duration": 0.1113636,
                "tempo": 120.0
            },
            {
                "start_time": 7.8409091,
                "end_time": 7.9295455,
                "pitch": 79,
                "velocity": 101,
                "duration": 0.0886364,
                "tempo": 120.0
            },
            {
                "start_time": 7.9295455,
                "end_time": 8.0272727,
                "pitch": 78,
                "velocity": 101,
                "duration": 0.0977273,
                "tempo": 120.0
            },
            {
                "start_time": 8.0272727,
                "end_time": 8.0954545,
                "pitch": 76,
                "velocity": 101,
                "duration": 0.0681818,
                "tempo": 120.0
            },
            {
                "start_time": 8.0954545,
                "end_time": 8.1954545,
                "pitch": 78,
                "velocity": 101,
                "duration": 0.1,
                "tempo": 120.0
            },
            {
                "start_time": 8.1954545,
                "end_time": 8.2863636,
                "pitch": 79,
                "velocity": 101,
                "duration": 0.0909091,
                "tempo": 120.0
            },
            {
                "start_time": 8.2863636,
                "end_time": 8.3795455,
                "pitch": 78,
                "velocity": 101,
                "duration": 0.0931818,
                "tempo": 120.0
            },
            {
                "start_time": 8.3795455,
                "end_time": 8.4727273,
                "pitch": 76,
                "velocity": 101,
                "duration": 0.0931818,
                "tempo": 120.0
            },
            {
                "start_time": 8.4727273,
                "end_time": 8.5636364,
                "pitch": 78,
                "velocity": 101,
                "duration": 0.0909091,
                "tempo": 120.0
            },
            {
                "start_time": 8.5636364,
                "end_time": 8.6659091,
                "pitch": 79,
                "velocity": 101,
                "duration": 0.1022727,
                "tempo": 120.0
            },
            {
                "start_time": 8.6659091,
                "end_time": 8.7659091,
                "pitch": 78,
                "velocity": 101,
                "duration": 0.1,
                "tempo": 120.0
            },
            {
                "start_time": 8.7659091,
                "end_time": 8.8659091,
                "pitch": 76,
                "velocity": 101,
                "duration": 0.1,
                "tempo": 120.0
            },
            {
                "start_time": 8.8659091,
                "end_time": 8.9681818,
                "pitch": 78,
                "velocity": 101,
                "duration": 0.1022727,
                "tempo": 120.0
            },
            {
                "start_time": 8.9681818,
                "end_time": 9.0681818,
                "pitch": 79,
                "velocity": 101,
                "duration": 0.1,
                "tempo": 120.0
            },
            {
                "start_time": 9.0681818,
                "end_time": 9.1681818,
                "pitch": 78,
                "velocity": 101,
                "duration": 0.1,
                "tempo": 120.0
            },
            {
                "start_time": 9.1681818,
                "end_time": 9.2704545,
                "pitch": 76,
                "velocity": 101,
                "duration": 0.1022727,
                "tempo": 120.0
            },
            {
                "start_time": 9.2704545,
                "end_time": 9.3704545,
                "pitch": 78,
                "velocity": 101,
                "duration": 0.1,
                "tempo": 120.0
            },
            {
                "start_time": 9.3704545,
                "end_time": 9.4704545,
                "pitch": 81,
                "velocity": 101,
                "duration": 0.1,
                "tempo": 120.0
            },
            {
                "start_time": 9.4704545,
                "end_time": 9.5704545,
                "pitch": 79,
                "velocity": 101,
                "duration": 0.1,
                "tempo": 120.0
            },
            {
                "start_time": 9.5704545,
                "end_time": 9.6727273,
                "pitch": 78,
                "velocity": 101,
                "duration": 0.1022727,
                "tempo": 120.0
            },
            {
                "start_time": 9.6727273,
                "end_time": 9.7727273,
                "pitch": 79,
                "velocity": 101,
                "duration": 0.1,
                "tempo": 120.0
            },
            {
                "start_time": 9.7727273,
                "end_time": 9.8727273,
                "pitch": 81,
                "velocity": 101,
                "duration": 0.1,
                "tempo": 120.0
            },
            {
                "start_time": 9.8727273,
                "end_time": 9.975,
                "pitch": 79,
                "velocity": 101,
                "duration": 0.1022727,
                "tempo": 120.0
            },
            {
                "start_time": 9.975,
                "end_time": 10.075,
                "pitch": 78,
                "velocity": 101,
                "duration": 0.1,
                "tempo": 120.0
            },
            {
                "start_time": 10.075,
                "end_time": 10.175,
                "pitch": 79,
                "velocity": 101,
                "duration": 0.1,
                "tempo": 120.0
            },
            {
                "start_time": 10.175,
                "end_time": 10.2454545,
                "pitch": 81,
                "velocity": 101,
                "duration": 0.0704545,
                "tempo": 120.0
            },
            {
                "start_time": 10.2454545,
                "end_time": 10.3454545,
                "pitch": 79,
                "velocity": 101,
                "duration": 0.1,
                "tempo": 120.0
            },
            {
                "start_time": 10.3454545,
                "end_time": 10.4454545,
                "pitch": 78,
                "velocity": 101,
                "duration": 0.1,
                "tempo": 120.0
            },
            {
                "start_time": 10.4454545,
                "end_time": 10.5454545,
                "pitch": 79,
                "velocity": 101,
                "duration": 0.1,
                "tempo": 120.0
            },
            {
                "start_time": 10.5454545,
                "end_time": 10.6386364,
                "pitch": 81,
                "velocity": 101,
                "duration": 0.0931818,
                "tempo": 120.0
            },
            {
                "start_time": 10.6386364,
                "end_time": 10.7295455,
                "pitch": 79,
                "velocity": 101,
                "duration": 0.0909091,
                "tempo": 120.0
            },
            {
                "start_time": 10.7295455,
                "end_time": 10.8227273,
                "pitch": 78,
                "velocity": 101,
                "duration": 0.0931818,
                "tempo": 120.0
            },
            {
                "start_time": 10.8227273,
                "end_time": 10.9159091,
                "pitch": 79,
                "velocity": 101,
                "duration": 0.0931818,
                "tempo": 120.0
            },
            {
                "start_time": 10.9159091,
                "end_time": 11.0159091,
                "pitch": 81,
                "velocity": 101,
                "duration": 0.1,
                "tempo": 120.0
            },
            {
                "start_time": 11.0159091,
                "end_time": 11.1181818,
                "pitch": 79,
                "velocity": 101,
                "duration": 0.1022727,
                "tempo": 120.0
            },
            {
                "start_time": 11.1181818,
                "end_time": 11.2181818,
                "pitch": 78,
                "velocity": 101,
                "duration": 0.1,
                "tempo": 120.0
            },
            {
                "start_time": 11.2181818,
                "end_time": 11.3181818,
                "pitch": 79,
                "velocity": 101,
                "duration": 0.1,
                "tempo": 120.0
            },
            {
                "start_time": 11.3181818,
                "end_time": 11.4181818,
                "pitch": 81,
                "velocity": 101,
                "duration": 0.1,
                "tempo": 120.0
            },
            {
                "start_time": 11.4181818,
                "end_time": 11.5181818,
                "pitch": 79,
                "velocity": 101,
                "duration": 0.1,
                "tempo": 120.0
            },
            {
                "start_time": 11.5181818,
                "end_time": 11.6181818,
                "pitch": 78,
                "velocity": 101,
                "duration": 0.1,
                "tempo": 120.0
            },
            {
                "start_time": 11.6181818,
                "end_time": 11.7181818,
                "pitch": 79,
                "velocity": 101,
                "duration": 0.1,
                "tempo": 120.0
            },
            {
                "start_time": 11.7181818,
                "end_time": 11.8181818,
                "pitch": 81,
                "velocity": 101,
                "duration": 0.1,
                "tempo": 120.0
            },
            {
                "start_time": 11.8181818,
                "end_time": 11.9204545,
                "pitch": 79,
                "velocity": 101,
                "duration": 0.1022727,
                "tempo": 120.0
            },
            {
                "start_time": 11.9204545,
                "end_time": 12.0204545,
                "pitch": 78,
                "velocity": 101,
                "duration": 0.1,
                "tempo": 120.0
            },
            {
                "start_time": 12.0204545,
                "end_time": 12.1204545,
                "pitch": 79,
                "velocity": 101,
                "duration": 0.1,
                "tempo": 120.0
            },
            {
                "start_time": 12.1204545,
                "end_time": 12.2227273,
                "pitch": 81,
                "velocity": 101,
                "duration": 0.1022727,
                "tempo": 120.0
            },
            {
                "start_time": 12.2227273,
                "end_time": 12.2818182,
                "pitch": 79,
                "velocity": 101,
                "duration": 0.0590909,
                "tempo": 120.0
            },
            {
                "start_time": 12.2818182,
                "end_time": 12.3840909,
                "pitch": 78,
                "velocity": 101,
                "duration": 0.1022727,
                "tempo": 120.0
            },
            {
                "start_time": 12.3840909,
                "end_time": 12.4931818,
                "pitch": 79,
                "velocity": 101,
                "duration": 0.1090909,
                "tempo": 120.0
            },
            {
                "start_time": 12.4931818,
                "end_time": 12.5772727,
                "pitch": 79,
                "velocity": 101,
                "duration": 0.0840909,
                "tempo": 120.0
            },
            {
                "start_time": 12.5772727,
                "end_time": 12.6704545,
                "pitch": 78,
                "velocity": 101,
                "duration": 0.0931818,
                "tempo": 120.0
            },
            {
                "start_time": 12.6704545,
                "end_time": 12.7613636,
                "pitch": 76,
                "velocity": 101,
                "duration": 0.0909091,
                "tempo": 120.0
            },
            {
                "start_time": 12.7704545,
                "end_time": 12.8545455,
                "pitch": 78,
                "velocity": 101,
                "duration": 0.0840909,
                "tempo": 120.0
            },
            {
                "start_time": 12.8636364,
                "end_time": 12.9545455,
                "pitch": 79,
                "velocity": 101,
                "duration": 0.0909091,
                "tempo": 120.0
            },
            {
                "start_time": 12.9636364,
                "end_time": 13.0545455,
                "pitch": 78,
                "velocity": 101,
                "duration": 0.0909091,
                "tempo": 120.0
            },
            {
                "start_time": 13.0659091,
                "end_time": 13.1568182,
                "pitch": 76,
                "velocity": 101,
                "duration": 0.0909091,
                "tempo": 120.0
            },
            {
                "start_time": 13.1659091,
                "end_time": 13.2659091,
                "pitch": 78,
                "velocity": 101,
                "duration": 0.1,
                "tempo": 120.0
            },
            {
                "start_time": 13.2659091,
                "end_time": 13.3568182,
                "pitch": 79,
                "velocity": 101,
                "duration": 0.0909091,
                "tempo": 120.0
            },
            {
                "start_time": 13.3568182,
                "end_time": 13.3681818,
                "pitch": 90,
                "velocity": 101,
                "duration": 0.0113636,
                "tempo": 120.0
            },
            {
                "start_time": 13.3681818,
                "end_time": 13.4681818,
                "pitch": 78,
                "velocity": 101,
                "duration": 0.1,
                "tempo": 120.0
            },
            {
                "start_time": 13.4681818,
                "end_time": 13.5681818,
                "pitch": 76,
                "velocity": 101,
                "duration": 0.1,
                "tempo": 120.0
            },
            {
                "start_time": 13.5681818,
                "end_time": 13.6704545,
                "pitch": 78,
                "velocity": 101,
                "duration": 0.1022727,
                "tempo": 120.0
            },
            {
                "start_time": 13.6704545,
                "end_time": 13.7704545,
                "pitch": 79,
                "velocity": 101,
                "duration": 0.1,
                "tempo": 120.0
            },
            {
                "start_time": 13.7704545,
                "end_time": 13.8704545,
                "pitch": 78,
                "velocity": 101,
                "duration": 0.1,
                "tempo": 120.0
            },
            {
                "start_time": 13.8704545,
                "end_time": 13.9704545,
                "pitch": 76,
                "velocity": 101,
                "duration": 0.1,
                "tempo": 120.0
            },
            {
                "start_time": 13.9704545,
                "end_time": 14.0727273,
                "pitch": 78,
                "velocity": 101,
                "duration": 0.1022727,
                "tempo": 120.0
            },
            {
                "start_time": 14.0727273,
                "end_time": 14.1704545,
                "pitch": 79,
                "velocity": 101,
                "duration": 0.0977273,
                "tempo": 120.0
            },
            {
                "start_time": 14.1704545,
                "end_time": 14.2681818,
                "pitch": 78,
                "velocity": 101,
                "duration": 0.0977273,
                "tempo": 120.0
            },
            {
                "start_time": 14.2681818,
                "end_time": 14.3659091,
                "pitch": 76,
                "velocity": 101,
                "duration": 0.0977273,
                "tempo": 120.0
            },
            {
                "start_time": 14.3659091,
                "end_time": 14.425,
                "pitch": 78,
                "velocity": 101,
                "duration": 0.0590909,
                "tempo": 120.0
            },
            {
                "start_time": 14.425,
                "end_time": 14.5181818,
                "pitch": 79,
                "velocity": 101,
                "duration": 0.0931818,
                "tempo": 120.0
            },
            {
                "start_time": 14.5181818,
                "end_time": 14.6090909,
                "pitch": 78,
                "velocity": 101,
                "duration": 0.0909091,
                "tempo": 120.0
            },
            {
                "start_time": 14.6090909,
                "end_time": 14.7022727,
                "pitch": 76,
                "velocity": 101,
                "duration": 0.0931818,
                "tempo": 120.0
            },
            {
                "start_time": 14.7022727,
                "end_time": 14.7954545,
                "pitch": 78,
                "velocity": 101,
                "duration": 0.0931818,
                "tempo": 120.0
            },
            {
                "start_time": 14.7954545,
                "end_time": 14.8954545,
                "pitch": 79,
                "velocity": 101,
                "duration": 0.1,
                "tempo": 120.0
            },
            {
                "start_time": 14.8954545,
                "end_time": 14.9954545,
                "pitch": 78,
                "velocity": 101,
                "duration": 0.1,
                "tempo": 120.0
            },
            {
                "start_time": 14.9954545,
                "end_time": 15.0977273,
                "pitch": 76,
                "velocity": 101,
                "duration": 0.1022727,
                "tempo": 120.0
            },
            {
                "start_time": 15.0977273,
                "end_time": 15.1977273,
                "pitch": 78,
                "velocity": 101,
                "duration": 0.1,
                "tempo": 120.0
            },
            {
                "start_time": 15.1977273,
                "end_time": 15.3,
                "pitch": 79,
                "velocity": 101,
                "duration": 0.1022727,
                "tempo": 120.0
            },
            {
                "start_time": 15.3,
                "end_time": 15.4022727,
                "pitch": 78,
                "velocity": 101,
                "duration": 0.1022727,
                "tempo": 120.0
            },
            {
                "start_time": 15.4022727,
                "end_time": 15.5068182,
                "pitch": 76,
                "velocity": 101,
                "duration": 0.1045455,
                "tempo": 120.0
            },
            {
                "start_time": 15.5068182,
                "end_time": 15.6090909,
                "pitch": 78,
                "velocity": 101,
                "duration": 0.1022727,
                "tempo": 120.0
            },
            {
                "start_time": 15.6090909,
                "end_time": 15.7090909,
                "pitch": 81,
                "velocity": 101,
                "duration": 0.1,
                "tempo": 120.0
            },
            {
                "start_time": 15.7090909,
                "end_time": 15.8090909,
                "pitch": 79,
                "velocity": 101,
                "duration": 0.1,
                "tempo": 120.0
            },
            {
                "start_time": 15.8090909,
                "end_time": 15.9090909,
                "pitch": 78,
                "velocity": 101,
                "duration": 0.1,
                "tempo": 120.0
            },
            {
                "start_time": 15.9090909,
                "end_time": 16.0090909,
                "pitch": 79,
                "velocity": 101,
                "duration": 0.1,
                "tempo": 120.0
            },
            {
                "start_time": 16.0090909,
                "end_time": 16.1068182,
                "pitch": 81,
                "velocity": 101,
                "duration": 0.0977273,
                "tempo": 120.0
            },
            {
                "start_time": 16.1068182,
                "end_time": 16.2045455,
                "pitch": 79,
                "velocity": 101,
                "duration": 0.0977273,
                "tempo": 120.0
            },
            {
                "start_time": 16.2045455,
                "end_time": 16.3022727,
                "pitch": 78,
                "velocity": 101,
                "duration": 0.0977273,
                "tempo": 120.0
            },
            {
                "start_time": 16.3022727,
                "end_time": 16.4,
                "pitch": 79,
                "velocity": 101,
                "duration": 0.0977273,
                "tempo": 120.0
            },
            {
                "start_time": 16.4,
                "end_time": 16.5,
                "pitch": 81,
                "velocity": 101,
                "duration": 0.1,
                "tempo": 120.0
            },
            {
                "start_time": 16.5,
                "end_time": 16.5704545,
                "pitch": 79,
                "velocity": 101,
                "duration": 0.0704545,
                "tempo": 120.0
            },
            {
                "start_time": 16.5704545,
                "end_time": 16.6704545,
                "pitch": 78,
                "velocity": 101,
                "duration": 0.1,
                "tempo": 120.0
            },
            {
                "start_time": 16.6704545,
                "end_time": 16.7704545,
                "pitch": 79,
                "velocity": 101,
                "duration": 0.1,
                "tempo": 120.0
            },
            {
                "start_time": 16.7704545,
                "end_time": 16.8636364,
                "pitch": 81,
                "velocity": 101,
                "duration": 0.0931818,
                "tempo": 120.0
            },
            {
                "start_time": 16.8636364,
                "end_time": 16.9568182,
                "pitch": 79,
                "velocity": 101,
                "duration": 0.0931818,
                "tempo": 120.0
            },
            {
                "start_time": 16.9568182,
                "end_time": 17.0477273,
                "pitch": 78,
                "velocity": 101,
                "duration": 0.0909091,
                "tempo": 120.0
            },
            {
                "start_time": 17.0477273,
                "end_time": 17.1409091,
                "pitch": 79,
                "velocity": 101,
                "duration": 0.0931818,
                "tempo": 120.0
            },
            {
                "start_time": 17.1409091,
                "end_time": 17.2431818,
                "pitch": 81,
                "velocity": 101,
                "duration": 0.1022727,
                "tempo": 120.0
            },
            {
                "start_time": 17.2431818,
                "end_time": 17.3431818,
                "pitch": 79,
                "velocity": 101,
                "duration": 0.1,
                "tempo": 120.0
            },
            {
                "start_time": 17.3431818,
                "end_time": 17.4431818,
                "pitch": 78,
                "velocity": 101,
                "duration": 0.1,
                "tempo": 120.0
            },
            {
                "start_time": 17.4431818,
                "end_time": 17.5431818,
                "pitch": 79,
                "velocity": 101,
                "duration": 0.1,
                "tempo": 120.0
            },
            {
                "start_time": 17.5431818,
                "end_time": 17.6431818,
                "pitch": 81,
                "velocity": 101,
                "duration": 0.1,
                "tempo": 120.0
            },
            {
                "start_time": 17.6431818,
                "end_time": 17.7431818,
                "pitch": 79,
                "velocity": 101,
                "duration": 0.1,
                "tempo": 120.0
            },
            {
                "start_time": 17.7431818,
                "end_time": 17.8431818,
                "pitch": 78,
                "velocity": 101,
                "duration": 0.1,
                "tempo": 120.0
            },
            {
                "start_time": 17.8431818,
                "end_time": 17.9431818,
                "pitch": 79,
                "velocity": 101,
                "duration": 0.1,
                "tempo": 120.0
            },
            {
                "start_time": 17.9431818,
                "end_time": 18.0431818,
                "pitch": 81,
                "velocity": 101,
                "duration": 0.1,
                "tempo": 120.0
            },
            {
                "start_time": 18.0431818,
                "end_time": 18.1431818,
                "pitch": 79,
                "velocity": 101,
                "duration": 0.1,
                "tempo": 120.0
            },
            {
                "start_time": 18.1431818,
                "end_time": 18.2431818,
                "pitch": 78,
                "velocity": 101,
                "duration": 0.1,
                "tempo": 120.0
            },
            {
                "start_time": 18.2431818,
                "end_time": 18.3431818,
                "pitch": 79,
                "velocity": 101,
                "duration": 0.1,
                "tempo": 120.0
            },
            {
                "start_time": 18.3431818,
                "end_time": 18.4454545,
                "pitch": 81,
                "velocity": 101,
                "duration": 0.1022727,
                "tempo": 120.0
            },
            {
                "start_time": 18.4454545,
                "end_time": 18.5454545,
                "pitch": 79,
                "velocity": 101,
                "duration": 0.1,
                "tempo": 120.0
            },
            {
                "start_time": 18.5454545,
                "end_time": 18.6159091,
                "pitch": 78,
                "velocity": 101,
                "duration": 0.0704545,
                "tempo": 120.0
            },
            {
                "start_time": 18.6159091,
                "end_time": 18.7159091,
                "pitch": 79,
                "velocity": 101,
                "duration": 0.1,
                "tempo": 120.0
            },
            {
                "start_time": 18.7159091,
                "end_time": 18.8090909,
                "pitch": 79,
                "velocity": 101,
                "duration": 0.0931818,
                "tempo": 120.0
            },
            {
                "start_time": 18.8090909,
                "end_time": 18.9022727,
                "pitch": 78,
                "velocity": 101,
                "duration": 0.0931818,
                "tempo": 120.0
            },
            {
                "start_time": 18.9022727,
                "end_time": 18.9954545,
                "pitch": 76,
                "velocity": 101,
                "duration": 0.0931818,
                "tempo": 120.0
            },
            {
                "start_time": 18.9954545,
                "end_time": 19.0863636,
                "pitch": 78,
                "velocity": 101,
                "duration": 0.0909091,
                "tempo": 120.0
            },
            {
                "start_time": 19.0863636,
                "end_time": 19.1863636,
                "pitch": 79,
                "velocity": 101,
                "duration": 0.1,
                "tempo": 120.0
            },
            {
                "start_time": 19.1863636,
                "end_time": 19.2863636,
                "pitch": 78,
                "velocity": 101,
                "duration": 0.1,
                "tempo": 120.0
            },
            {
                "start_time": 19.2863636,
                "end_time": 19.3863636,
                "pitch": 76,
                "velocity": 101,
                "duration": 0.1,
                "tempo": 120.0
            },
            {
                "start_time": 19.3863636,
                "end_time": 19.4863636,
                "pitch": 78,
                "velocity": 101,
                "duration": 0.1,
                "tempo": 120.0
            },
            {
                "start_time": 19.4863636,
                "end_time": 19.5863636,
                "pitch": 79,
                "velocity": 101,
                "duration": 0.1,
                "tempo": 120.0
            },
            {
                "start_time": 19.5863636,
                "end_time": 19.6863636,
                "pitch": 78,
                "velocity": 101,
                "duration": 0.1,
                "tempo": 120.0
            },
            {
                "start_time": 19.6863636,
                "end_time": 19.7863636,
                "pitch": 76,
                "velocity": 101,
                "duration": 0.1,
                "tempo": 120.0
            },
            {
                "start_time": 19.7863636,
                "end_time": 19.8863636,
                "pitch": 78,
                "velocity": 101,
                "duration": 0.1,
                "tempo": 120.0
            },
            {
                "start_time": 19.8863636,
                "end_time": 19.9886364,
                "pitch": 79,
                "velocity": 101,
                "duration": 0.1022727,
                "tempo": 120.0
            },
            {
                "start_time": 19.9886364,
                "end_time": 20.0886364,
                "pitch": 78,
                "velocity": 101,
                "duration": 0.1,
                "tempo": 120.0
            },
            {
                "start_time": 20.0886364,
                "end_time": 20.1886364,
                "pitch": 76,
                "velocity": 101,
                "duration": 0.1,
                "tempo": 120.0
            },
            {
                "start_time": 20.1886364,
                "end_time": 20.2886364,
                "pitch": 78,
                "velocity": 101,
                "duration": 0.1,
                "tempo": 120.0
            },
            {
                "start_time": 20.2886364,
                "end_time": 20.3886364,
                "pitch": 79,
                "velocity": 101,
                "duration": 0.1,
                "tempo": 120.0
            },
            {
                "start_time": 20.3886364,
                "end_time": 20.4886364,
                "pitch": 78,
                "velocity": 101,
                "duration": 0.1,
                "tempo": 120.0
            },
            {
                "start_time": 20.4886364,
                "end_time": 20.5886364,
                "pitch": 76,
                "velocity": 101,
                "duration": 0.1,
                "tempo": 120.0
            },
            {
                "start_time": 20.5886364,
                "end_time": 20.6886364,
                "pitch": 78,
                "velocity": 101,
                "duration": 0.1,
                "tempo": 120.0
            },
            {
                "start_time": 20.6886364,
                "end_time": 20.75,
                "pitch": 79,
                "velocity": 101,
                "duration": 0.0613636,
                "tempo": 120.0
            },
            {
                "start_time": 20.75,
                "end_time": 20.85,
                "pitch": 78,
                "velocity": 101,
                "duration": 0.1,
                "tempo": 120.0
            },
            {
                "start_time": 20.85,
                "end_time": 20.9522727,
                "pitch": 76,
                "velocity": 101,
                "duration": 0.1022727,
                "tempo": 120.0
            },
            {
                "start_time": 20.9522727,
                "end_time": 21.0522727,
                "pitch": 78,
                "velocity": 101,
                "duration": 0.1,
                "tempo": 120.0
            },
            {
                "start_time": 21.0522727,
                "end_time": 21.1454545,
                "pitch": 79,
                "velocity": 101,
                "duration": 0.0931818,
                "tempo": 120.0
            },
            {
                "start_time": 21.1454545,
                "end_time": 21.2386364,
                "pitch": 78,
                "velocity": 101,
                "duration": 0.0931818,
                "tempo": 120.0
            },
            {
                "start_time": 21.2386364,
                "end_time": 21.3295455,
                "pitch": 76,
                "velocity": 101,
                "duration": 0.0909091,
                "tempo": 120.0
            },
            {
                "start_time": 21.3295455,
                "end_time": 21.4227273,
                "pitch": 78,
                "velocity": 101,
                "duration": 0.0931818,
                "tempo": 120.0
            },
            {
                "start_time": 21.4227273,
                "end_time": 21.5227273,
                "pitch": 79,
                "velocity": 101,
                "duration": 0.1,
                "tempo": 120.0
            },
            {
                "start_time": 21.5227273,
                "end_time": 21.6227273,
                "pitch": 78,
                "velocity": 101,
                "duration": 0.1,
                "tempo": 120.0
            },
            {
                "start_time": 21.6227273,
                "end_time": 21.725,
                "pitch": 76,
                "velocity": 101,
                "duration": 0.1022727,
                "tempo": 120.0
            },
            {
                "start_time": 21.725,
                "end_time": 21.825,
                "pitch": 78,
                "velocity": 101,
                "duration": 0.1,
                "tempo": 120.0
            },
            {
                "start_time": 21.825,
                "end_time": 21.925,
                "pitch": 81,
                "velocity": 101,
                "duration": 0.1,
                "tempo": 120.0
            },
            {
                "start_time": 21.925,
                "end_time": 22.025,
                "pitch": 79,
                "velocity": 101,
                "duration": 0.1,
                "tempo": 120.0
            },
            {
                "start_time": 22.025,
                "end_time": 22.125,
                "pitch": 78,
                "velocity": 101,
                "duration": 0.1,
                "tempo": 120.0
            },
            {
                "start_time": 22.125,
                "end_time": 22.225,
                "pitch": 79,
                "velocity": 101,
                "duration": 0.1,
                "tempo": 120.0
            },
            {
                "start_time": 22.225,
                "end_time": 22.325,
                "pitch": 81,
                "velocity": 101,
                "duration": 0.1,
                "tempo": 120.0
            },
            {
                "start_time": 22.325,
                "end_time": 22.425,
                "pitch": 79,
                "velocity": 101,
                "duration": 0.1,
                "tempo": 120.0
            },
            {
                "start_time": 22.425,
                "end_time": 22.525,
                "pitch": 78,
                "velocity": 101,
                "duration": 0.1,
                "tempo": 120.0
            },
            {
                "start_time": 22.525,
                "end_time": 22.625,
                "pitch": 79,
                "velocity": 101,
                "duration": 0.1,
                "tempo": 120.0
            },
            {
                "start_time": 22.625,
                "end_time": 22.7227273,
                "pitch": 81,
                "velocity": 101,
                "duration": 0.0977273,
                "tempo": 120.0
            },
            {
                "start_time": 22.7227273,
                "end_time": 22.8204545,
                "pitch": 79,
                "velocity": 101,
                "duration": 0.0977273,
                "tempo": 120.0
            },
            {
                "start_time": 22.8204545,
                "end_time": 22.8909091,
                "pitch": 78,
                "velocity": 101,
                "duration": 0.0704545,
                "tempo": 120.0
            },
            {
                "start_time": 22.8909091,
                "end_time": 22.9886364,
                "pitch": 79,
                "velocity": 101,
                "duration": 0.0977273,
                "tempo": 120.0
            },
            {
                "start_time": 22.9886364,
                "end_time": 23.0795455,
                "pitch": 81,
                "velocity": 101,
                "duration": 0.0909091,
                "tempo": 120.0
            },
            {
                "start_time": 23.0795455,
                "end_time": 23.1727273,
                "pitch": 79,
                "velocity": 101,
                "duration": 0.0931818,
                "tempo": 120.0
            },
            {
                "start_time": 23.1727273,
                "end_time": 23.2659091,
                "pitch": 78,
                "velocity": 101,
                "duration": 0.0931818,
                "tempo": 120.0
            },
            {
                "start_time": 23.2659091,
                "end_time": 23.3590909,
                "pitch": 79,
                "velocity": 101,
                "duration": 0.0931818,
                "tempo": 120.0
            },
            {
                "start_time": 23.3590909,
                "end_time": 23.4590909,
                "pitch": 81,
                "velocity": 101,
                "duration": 0.1,
                "tempo": 120.0
            },
            {
                "start_time": 23.4590909,
                "end_time": 23.5590909,
                "pitch": 79,
                "velocity": 101,
                "duration": 0.1,
                "tempo": 120.0
            },
            {
                "start_time": 23.5590909,
                "end_time": 23.6590909,
                "pitch": 78,
                "velocity": 101,
                "duration": 0.1,
                "tempo": 120.0
            },
            {
                "start_time": 23.6590909,
                "end_time": 23.7590909,
                "pitch": 79,
                "velocity": 101,
                "duration": 0.1,
                "tempo": 120.0
            },
            {
                "start_time": 23.7590909,
                "end_time": 23.8590909,
                "pitch": 81,
                "velocity": 101,
                "duration": 0.1,
                "tempo": 120.0
            },
            {
                "start_time": 23.8590909,
                "end_time": 23.9590909,
                "pitch": 79,
                "velocity": 101,
                "duration": 0.1,
                "tempo": 120.0
            },
            {
                "start_time": 23.9590909,
                "end_time": 24.0613636,
                "pitch": 78,
                "velocity": 101,
                "duration": 0.1022727,
                "tempo": 120.0
            },
            {
                "start_time": 24.0613636,
                "end_time": 24.1613636,
                "pitch": 79,
                "velocity": 101,
                "duration": 0.1,
                "tempo": 120.0
            },
            {
                "start_time": 24.1613636,
                "end_time": 24.2613636,
                "pitch": 81,
                "velocity": 101,
                "duration": 0.1,
                "tempo": 120.0
            },
            {
                "start_time": 24.2613636,
                "end_time": 24.3613636,
                "pitch": 79,
                "velocity": 101,
                "duration": 0.1,
                "tempo": 120.0
            },
            {
                "start_time": 24.3613636,
                "end_time": 24.4613636,
                "pitch": 78,
                "velocity": 101,
                "duration": 0.1,
                "tempo": 120.0
            },
            {
                "start_time": 24.4613636,
                "end_time": 24.5613636,
                "pitch": 79,
                "velocity": 101,
                "duration": 0.1,
                "tempo": 120.0
            },
            {
                "start_time": 24.5613636,
                "end_time": 24.6613636,
                "pitch": 81,
                "velocity": 101,
                "duration": 0.1,
                "tempo": 120.0
            },
            {
                "start_time": 24.6613636,
                "end_time": 24.7613636,
                "pitch": 79,
                "velocity": 101,
                "duration": 0.1,
                "tempo": 120.0
            },
            {
                "start_time": 24.7613636,
                "end_time": 24.8636364,
                "pitch": 78,
                "velocity": 101,
                "duration": 0.1022727,
                "tempo": 120.0
            },
            {
                "start_time": 24.8636364,
                "end_time": 24.9340909,
                "pitch": 79,
                "velocity": 101,
                "duration": 0.0704545,
                "tempo": 120.0
            },
            {
                "start_time": 24.9340909,
                "end_time": 25.025,
                "pitch": 79,
                "velocity": 101,
                "duration": 0.0909091,
                "tempo": 120.0
            },
            {
                "start_time": 25.025,
                "end_time": 25.1181818,
                "pitch": 78,
                "velocity": 101,
                "duration": 0.0931818,
                "tempo": 120.0
            },
            {
                "start_time": 25.1181818,
                "end_time": 25.2113636,
                "pitch": 76,
                "velocity": 101,
                "duration": 0.0931818,
                "tempo": 120.0
            },
            {
                "start_time": 25.2113636,
                "end_time": 25.3045455,
                "pitch": 78,
                "velocity": 101,
                "duration": 0.0931818,
                "tempo": 120.0
            },
            {
                "start_time": 25.3045455,
                "end_time": 25.4045455,
                "pitch": 79,
                "velocity": 101,
                "duration": 0.1,
                "tempo": 120.0
            },
            {
                "start_time": 25.4045455,
                "end_time": 25.5045455,
                "pitch": 78,
                "velocity": 101,
                "duration": 0.1,
                "tempo": 120.0
            },
            {
                "start_time": 25.5045455,
                "end_time": 25.6068182,
                "pitch": 76,
                "velocity": 101,
                "duration": 0.1022727,
                "tempo": 120.0
            },
            {
                "start_time": 25.6068182,
                "end_time": 25.7068182,
                "pitch": 78,
                "velocity": 101,
                "duration": 0.1,
                "tempo": 120.0
            },
            {
                "start_time": 25.7068182,
                "end_time": 25.8068182,
                "pitch": 79,
                "velocity": 101,
                "duration": 0.1,
                "tempo": 120.0
            },
            {
                "start_time": 25.8068182,
                "end_time": 25.9068182,
                "pitch": 78,
                "velocity": 101,
                "duration": 0.1,
                "tempo": 120.0
            },
            {
                "start_time": 25.9068182,
                "end_time": 26.0068182,
                "pitch": 76,
                "velocity": 101,
                "duration": 0.1,
                "tempo": 120.0
            },
            {
                "start_time": 26.0068182,
                "end_time": 26.1068182,
                "pitch": 78,
                "velocity": 101,
                "duration": 0.1,
                "tempo": 120.0
            },
            {
                "start_time": 26.1068182,
                "end_time": 26.2068182,
                "pitch": 79,
                "velocity": 101,
                "duration": 0.1,
                "tempo": 120.0
            },
            {
                "start_time": 26.2068182,
                "end_time": 26.3068182,
                "pitch": 78,
                "velocity": 101,
                "duration": 0.1,
                "tempo": 120.0
            },
            {
                "start_time": 26.3068182,
                "end_time": 26.4090909,
                "pitch": 76,
                "velocity": 101,
                "duration": 0.1022727,
                "tempo": 120.0
            },
            {
                "start_time": 26.4090909,
                "end_time": 26.5090909,
                "pitch": 78,
                "velocity": 101,
                "duration": 0.1,
                "tempo": 120.0
            },
            {
                "start_time": 26.5090909,
                "end_time": 26.6090909,
                "pitch": 79,
                "velocity": 101,
                "duration": 0.1,
                "tempo": 120.0
            },
            {
                "start_time": 26.6090909,
                "end_time": 26.7090909,
                "pitch": 78,
                "velocity": 101,
                "duration": 0.1,
                "tempo": 120.0
            },
            {
                "start_time": 26.7090909,
                "end_time": 26.8090909,
                "pitch": 76,
                "velocity": 101,
                "duration": 0.1,
                "tempo": 120.0
            },
            {
                "start_time": 26.8090909,
                "end_time": 26.9090909,
                "pitch": 78,
                "velocity": 101,
                "duration": 0.1,
                "tempo": 120.0
            },
            {
                "start_time": 26.9090909,
                "end_time": 27.0090909,
                "pitch": 79,
                "velocity": 101,
                "duration": 0.1,
                "tempo": 120.0
            },
            {
                "start_time": 27.0090909,
                "end_time": 27.0681818,
                "pitch": 78,
                "velocity": 101,
                "duration": 0.0590909,
                "tempo": 120.0
            },
            {
                "start_time": 27.0681818,
                "end_time": 27.1681818,
                "pitch": 76,
                "velocity": 101,
                "duration": 0.1,
                "tempo": 120.0
            },
            {
                "start_time": 27.1681818,
                "end_time": 27.2795455,
                "pitch": 78,
                "velocity": 101,
                "duration": 0.1113636,
                "tempo": 120.0
            },
            {
                "start_time": 27.2795455,
                "end_time": 27.3636364,
                "pitch": 79,
                "velocity": 101,
                "duration": 0.0840909,
                "tempo": 120.0
            },
            {
                "start_time": 27.3636364,
                "end_time": 27.4545455,
                "pitch": 78,
                "velocity": 101,
                "duration": 0.0909091,
                "tempo": 120.0
            },
            {
                "start_time": 27.4545455,
                "end_time": 27.5477273,
                "pitch": 76,
                "velocity": 101,
                "duration": 0.0931818,
                "tempo": 120.0
            },
            {
                "start_time": 27.5477273,
                "end_time": 27.65,
                "pitch": 78,
                "velocity": 101,
                "duration": 0.1022727,
                "tempo": 120.0
            },
            {
                "start_time": 27.65,
                "end_time": 27.7386364,
                "pitch": 79,
                "velocity": 101,
                "duration": 0.0886364,
                "tempo": 120.0
            },
            {
                "start_time": 27.7386364,
                "end_time": 27.8386364,
                "pitch": 78,
                "velocity": 101,
                "duration": 0.1,
                "tempo": 120.0
            },
            {
                "start_time": 27.8386364,
                "end_time": 27.9386364,
                "pitch": 76,
                "velocity": 101,
                "duration": 0.1,
                "tempo": 120.0
            },
            {
                "start_time": 27.9386364,
                "end_time": 28.05,
                "pitch": 78,
                "velocity": 101,
                "duration": 0.1113636,
                "tempo": 120.0
            },
            {
                "start_time": 28.05,
                "end_time": 28.1409091,
                "pitch": 79,
                "velocity": 101,
                "duration": 0.0909091,
                "tempo": 120.0
            },
            {
                "start_time": 28.1409091,
                "end_time": 28.2409091,
                "pitch": 78,
                "velocity": 101,
                "duration": 0.1,
                "tempo": 120.0
            },
            {
                "start_time": 28.2409091,
                "end_time": 28.3409091,
                "pitch": 76,
                "velocity": 101,
                "duration": 0.1,
                "tempo": 120.0
            },
            {
                "start_time": 28.3409091,
                "end_time": 28.4431818,
                "pitch": 78,
                "velocity": 101,
                "duration": 0.1022727,
                "tempo": 120.0
            },
            {
                "start_time": 28.4431818,
                "end_time": 28.5431818,
                "pitch": 79,
                "velocity": 101,
                "duration": 0.1,
                "tempo": 120.0
            },
            {
                "start_time": 28.5431818,
                "end_time": 28.6522727,
                "pitch": 78,
                "velocity": 101,
                "duration": 0.1090909,
                "tempo": 120.0
            },
            {
                "start_time": 28.6522727,
                "end_time": 28.7431818,
                "pitch": 76,
                "velocity": 101,
                "duration": 0.0909091,
                "tempo": 120.0
            },
            {
                "start_time": 28.7431818,
                "end_time": 28.8431818,
                "pitch": 78,
                "velocity": 101,
                "duration": 0.1,
                "tempo": 120.0
            },
            {
                "start_time": 28.8431818,
                "end_time": 28.9409091,
                "pitch": 79,
                "velocity": 101,
                "duration": 0.0977273,
                "tempo": 120.0
            },
            {
                "start_time": 28.9409091,
                "end_time": 29.0386364,
                "pitch": 78,
                "velocity": 101,
                "duration": 0.0977273,
                "tempo": 120.0
            },
            {
                "start_time": 29.0386364,
                "end_time": 29.1363636,
                "pitch": 76,
                "velocity": 101,
                "duration": 0.0977273,
                "tempo": 120.0
            },
            {
                "start_time": 29.1363636,
                "end_time": 29.2045455,
                "pitch": 78,
                "velocity": 101,
                "duration": 0.0681818,
                "tempo": 120.0
            },
            {
                "start_time": 29.2045455,
                "end_time": 29.2977273,
                "pitch": 79,
                "velocity": 101,
                "duration": 0.0931818,
                "tempo": 120.0
            },
            {
                "start_time": 29.2977273,
                "end_time": 29.3909091,
                "pitch": 78,
                "velocity": 101,
                "duration": 0.0931818,
                "tempo": 120.0
            },
            {
                "start_time": 29.3909091,
                "end_time": 29.4818182,
                "pitch": 76,
                "velocity": 101,
                "duration": 0.0909091,
                "tempo": 120.0
            },
            {
                "start_time": 29.4818182,
                "end_time": 29.575,
                "pitch": 78,
                "velocity": 101,
                "duration": 0.0931818,
                "tempo": 120.0
            },
            {
                "start_time": 29.575,
                "end_time": 29.675,
                "pitch": 79,
                "velocity": 101,
                "duration": 0.1,
                "tempo": 120.0
            },
            {
                "start_time": 29.675,
                "end_time": 29.775,
                "pitch": 78,
                "velocity": 101,
                "duration": 0.1,
                "tempo": 120.0
            },
            {
                "start_time": 29.775,
                "end_time": 29.875,
                "pitch": 76,
                "velocity": 101,
                "duration": 0.1,
                "tempo": 120.0
            },
            {
                "start_time": 29.875,
                "end_time": 29.975,
                "pitch": 78,
                "velocity": 101,
                "duration": 0.1,
                "tempo": 120.0
            },
            {
                "start_time": 29.975,
                "end_time": 30.075,
                "pitch": 79,
                "velocity": 101,
                "duration": 0.1,
                "tempo": 120.0
            },
            {
                "start_time": 30.075,
                "end_time": 30.1772727,
                "pitch": 78,
                "velocity": 101,
                "duration": 0.1022727,
                "tempo": 120.0
            },
            {
                "start_time": 30.1772727,
                "end_time": 30.2772727,
                "pitch": 76,
                "velocity": 101,
                "duration": 0.1,
                "tempo": 120.0
            },
            {
                "start_time": 30.2772727,
                "end_time": 30.3772727,
                "pitch": 78,
                "velocity": 101,
                "duration": 0.1,
                "tempo": 120.0
            },
            {
                "start_time": 30.3772727,
                "end_time": 30.4772727,
                "pitch": 79,
                "velocity": 101,
                "duration": 0.1,
                "tempo": 120.0
            },
            {
                "start_time": 30.4772727,
                "end_time": 30.5772727,
                "pitch": 78,
                "velocity": 101,
                "duration": 0.1,
                "tempo": 120.0
            },
            {
                "start_time": 30.5772727,
                "end_time": 30.6772727,
                "pitch": 76,
                "velocity": 101,
                "duration": 0.1,
                "tempo": 120.0
            },
            {
                "start_time": 30.6772727,
                "end_time": 30.7772727,
                "pitch": 78,
                "velocity": 101,
                "duration": 0.1,
                "tempo": 120.0
            },
            {
                "start_time": 30.7772727,
                "end_time": 30.8772727,
                "pitch": 79,
                "velocity": 101,
                "duration": 0.1,
                "tempo": 120.0
            },
            {
                "start_time": 30.8772727,
                "end_time": 30.9772727,
                "pitch": 78,
                "velocity": 101,
                "duration": 0.1,
                "tempo": 120.0
            },
            {
                "start_time": 30.9772727,
                "end_time": 31.0772727,
                "pitch": 76,
                "velocity": 101,
                "duration": 0.1,
                "tempo": 120.0
            },
            {
                "start_time": 31.0772727,
                "end_time": 31.1772727,
                "pitch": 78,
                "velocity": 101,
                "duration": 0.1,
                "tempo": 120.0
            },
            {
                "start_time": 31.1772727,
                "end_time": 31.2477273,
                "pitch": 79,
                "velocity": 101,
                "duration": 0.0704545,
                "tempo": 120.0
            },
            {
                "start_time": 31.2477273,
                "end_time": 31.35,
                "pitch": 78,
                "velocity": 101,
                "duration": 0.1022727,
                "tempo": 120.0
            },
            {
                "start_time": 31.35,
                "end_time": 31.45,
                "pitch": 76,
                "velocity": 101,
                "duration": 0.1,
                "tempo": 120.0
            },
            {
                "start_time": 31.45,
                "end_time": 31.55,
                "pitch": 78,
                "velocity": 101,
                "duration": 0.1,
                "tempo": 120.0
            },
            {
                "start_time": 31.55,
                "end_time": 31.6431818,
                "pitch": 79,
                "velocity": 101,
                "duration": 0.0931818,
                "tempo": 120.0
            },
            {
                "start_time": 31.6431818,
                "end_time": 31.7363636,
                "pitch": 78,
                "velocity": 101,
                "duration": 0.0931818,
                "tempo": 120.0
            },
            {
                "start_time": 31.7363636,
                "end_time": 31.8272727,
                "pitch": 76,
                "velocity": 101,
                "duration": 0.0909091,
                "tempo": 120.0
            },
            {
                "start_time": 31.8272727,
                "end_time": 31.9204545,
                "pitch": 78,
                "velocity": 101,
                "duration": 0.0931818,
                "tempo": 120.0
            },
            {
                "start_time": 31.9204545,
                "end_time": 32.0204545,
                "pitch": 79,
                "velocity": 101,
                "duration": 0.1,
                "tempo": 120.0
            },
            {
                "start_time": 32.0204545,
                "end_time": 32.1204545,
                "pitch": 78,
                "velocity": 101,
                "duration": 0.1,
                "tempo": 120.0
            },
            {
                "start_time": 32.1204545,
                "end_time": 32.2204545,
                "pitch": 76,
                "velocity": 101,
                "duration": 0.1,
                "tempo": 120.0
            },
            {
                "start_time": 32.2204545,
                "end_time": 32.3204545,
                "pitch": 78,
                "velocity": 101,
                "duration": 0.1,
                "tempo": 120.0
            },
            {
                "start_time": 32.3204545,
                "end_time": 32.4204545,
                "pitch": 79,
                "velocity": 101,
                "duration": 0.1,
                "tempo": 120.0
            },
            {
                "start_time": 32.4204545,
                "end_time": 32.5204545,
                "pitch": 78,
                "velocity": 101,
                "duration": 0.1,
                "tempo": 120.0
            },
            {
                "start_time": 32.5204545,
                "end_time": 32.6204545,
                "pitch": 76,
                "velocity": 101,
                "duration": 0.1,
                "tempo": 120.0
            },
            {
                "start_time": 32.6204545,
                "end_time": 32.7204545,
                "pitch": 78,
                "velocity": 101,
                "duration": 0.1,
                "tempo": 120.0
            },
            {
                "start_time": 32.7204545,
                "end_time": 32.8204545,
                "pitch": 79,
                "velocity": 101,
                "duration": 0.1,
                "tempo": 120.0
            },
            {
                "start_time": 32.8204545,
                "end_time": 32.9204545,
                "pitch": 78,
                "velocity": 101,
                "duration": 0.1,
                "tempo": 120.0
            },
            {
                "start_time": 32.9204545,
                "end_time": 33.0204545,
                "pitch": 76,
                "velocity": 101,
                "duration": 0.1,
                "tempo": 120.0
            },
            {
                "start_time": 33.0204545,
                "end_time": 33.1204545,
                "pitch": 78,
                "velocity": 101,
                "duration": 0.1,
                "tempo": 120.0
            },
            {
                "start_time": 33.1204545,
                "end_time": 33.2204545,
                "pitch": 79,
                "velocity": 101,
                "duration": 0.1,
                "tempo": 120.0
            },
            {
                "start_time": 33.2204545,
                "end_time": 33.3227273,
                "pitch": 78,
                "velocity": 101,
                "duration": 0.1022727,
                "tempo": 120.0
            },
            {
                "start_time": 33.3227273,
                "end_time": 33.3931818,
                "pitch": 76,
                "velocity": 101,
                "duration": 0.0704545,
                "tempo": 120.0
            },
            {
                "start_time": 33.3931818,
                "end_time": 33.4931818,
                "pitch": 78,
                "velocity": 101,
                "duration": 0.1,
                "tempo": 120.0
            },
            {
                "start_time": 33.4931818,
                "end_time": 33.5863636,
                "pitch": 79,
                "velocity": 101,
                "duration": 0.0931818,
                "tempo": 120.0
            },
            {
                "start_time": 33.5863636,
                "end_time": 33.6795455,
                "pitch": 78,
                "velocity": 101,
                "duration": 0.0931818,
                "tempo": 120.0
            },
            {
                "start_time": 33.6795455,
                "end_time": 33.7704545,
                "pitch": 76,
                "velocity": 101,
                "duration": 0.0909091,
                "tempo": 120.0
            },
            {
                "start_time": 33.7704545,
                "end_time": 33.8636364,
                "pitch": 78,
                "velocity": 101,
                "duration": 0.0931818,
                "tempo": 120.0
            },
            {
                "start_time": 33.8636364,
                "end_time": 33.9636364,
                "pitch": 79,
                "velocity": 101,
                "duration": 0.1,
                "tempo": 120.0
            },
            {
                "start_time": 33.9636364,
                "end_time": 34.0636364,
                "pitch": 78,
                "velocity": 101,
                "duration": 0.1,
                "tempo": 120.0
            },
            {
                "start_time": 34.0636364,
                "end_time": 34.1636364,
                "pitch": 76,
                "velocity": 101,
                "duration": 0.1,
                "tempo": 120.0
            },
            {
                "start_time": 34.1636364,
                "end_time": 34.2636364,
                "pitch": 78,
                "velocity": 101,
                "duration": 0.1,
                "tempo": 120.0
            },
            {
                "start_time": 34.2636364,
                "end_time": 34.3636364,
                "pitch": 81,
                "velocity": 101,
                "duration": 0.1,
                "tempo": 120.0
            },
            {
                "start_time": 34.3636364,
                "end_time": 34.4636364,
                "pitch": 79,
                "velocity": 101,
                "duration": 0.1,
                "tempo": 120.0
            },
            {
                "start_time": 34.4636364,
                "end_time": 34.5636364,
                "pitch": 78,
                "velocity": 101,
                "duration": 0.1,
                "tempo": 120.0
            },
            {
                "start_time": 34.5636364,
                "end_time": 34.6636364,
                "pitch": 79,
                "velocity": 101,
                "duration": 0.1,
                "tempo": 120.0
            },
            {
                "start_time": 34.6636364,
                "end_time": 34.7636364,
                "pitch": 81,
                "velocity": 101,
                "duration": 0.1,
                "tempo": 120.0
            },
            {
                "start_time": 34.7636364,
                "end_time": 34.8659091,
                "pitch": 79,
                "velocity": 101,
                "duration": 0.1022727,
                "tempo": 120.0
            },
            {
                "start_time": 34.8659091,
                "end_time": 34.9659091,
                "pitch": 78,
                "velocity": 101,
                "duration": 0.1,
                "tempo": 120.0
            },
            {
                "start_time": 34.9659091,
                "end_time": 35.0659091,
                "pitch": 79,
                "velocity": 101,
                "duration": 0.1,
                "tempo": 120.0
            },
            {
                "start_time": 35.0659091,
                "end_time": 35.1659091,
                "pitch": 81,
                "velocity": 101,
                "duration": 0.1,
                "tempo": 120.0
            },
            {
                "start_time": 35.1659091,
                "end_time": 35.2659091,
                "pitch": 79,
                "velocity": 101,
                "duration": 0.1,
                "tempo": 120.0
            },
            {
                "start_time": 35.2659091,
                "end_time": 35.3659091,
                "pitch": 78,
                "velocity": 101,
                "duration": 0.1,
                "tempo": 120.0
            },
            {
                "start_time": 35.3659091,
                "end_time": 35.4659091,
                "pitch": 79,
                "velocity": 101,
                "duration": 0.1,
                "tempo": 120.0
            },
            {
                "start_time": 35.4659091,
                "end_time": 35.525,
                "pitch": 81,
                "velocity": 101,
                "duration": 0.0590909,
                "tempo": 120.0
            },
            {
                "start_time": 35.525,
                "end_time": 35.6227273,
                "pitch": 79,
                "velocity": 101,
                "duration": 0.0977273,
                "tempo": 120.0
            },
            {
                "start_time": 35.6227273,
                "end_time": 35.7204545,
                "pitch": 78,
                "velocity": 101,
                "duration": 0.0977273,
                "tempo": 120.0
            },
            {
                "start_time": 35.7204545,
                "end_time": 35.8181818,
                "pitch": 79,
                "velocity": 101,
                "duration": 0.0977273,
                "tempo": 120.0
            },
            {
                "start_time": 35.8181818,
                "end_time": 35.9113636,
                "pitch": 81,
                "velocity": 101,
                "duration": 0.0931818,
                "tempo": 120.0
            },
            {
                "start_time": 35.9113636,
                "end_time": 36.0045455,
                "pitch": 79,
                "velocity": 101,
                "duration": 0.0931818,
                "tempo": 120.0
            },
            {
                "start_time": 36.0045455,
                "end_time": 36.0977273,
                "pitch": 78,
                "velocity": 101,
                "duration": 0.0931818,
                "tempo": 120.0
            },
            {
                "start_time": 36.0977273,
                "end_time": 36.1886364,
                "pitch": 79,
                "velocity": 101,
                "duration": 0.0909091,
                "tempo": 120.0
            },
            {
                "start_time": 36.1886364,
                "end_time": 36.2886364,
                "pitch": 81,
                "velocity": 101,
                "duration": 0.1,
                "tempo": 120.0
            },
            {
                "start_time": 36.2886364,
                "end_time": 36.3886364,
                "pitch": 79,
                "velocity": 101,
                "duration": 0.1,
                "tempo": 120.0
            },
            {
                "start_time": 36.3886364,
                "end_time": 36.4886364,
                "pitch": 78,
                "velocity": 101,
                "duration": 0.1,
                "tempo": 120.0
            },
            {
                "start_time": 36.4886364,
                "end_time": 36.5886364,
                "pitch": 79,
                "velocity": 101,
                "duration": 0.1,
                "tempo": 120.0
            },
            {
                "start_time": 36.5886364,
                "end_time": 36.6886364,
                "pitch": 81,
                "velocity": 101,
                "duration": 0.1,
                "tempo": 120.0
            },
            {
                "start_time": 36.6886364,
                "end_time": 36.7886364,
                "pitch": 79,
                "velocity": 101,
                "duration": 0.1,
                "tempo": 120.0
            },
            {
                "start_time": 36.7886364,
                "end_time": 36.8886364,
                "pitch": 78,
                "velocity": 101,
                "duration": 0.1,
                "tempo": 120.0
            },
            {
                "start_time": 36.8886364,
                "end_time": 36.9886364,
                "pitch": 79,
                "velocity": 101,
                "duration": 0.1,
                "tempo": 120.0
            },
            {
                "start_time": 36.9886364,
                "end_time": 37.0909091,
                "pitch": 81,
                "velocity": 101,
                "duration": 0.1022727,
                "tempo": 120.0
            },
            {
                "start_time": 37.0909091,
                "end_time": 37.1909091,
                "pitch": 79,
                "velocity": 101,
                "duration": 0.1,
                "tempo": 120.0
            },
            {
                "start_time": 37.1909091,
                "end_time": 37.2909091,
                "pitch": 78,
                "velocity": 101,
                "duration": 0.1,
                "tempo": 120.0
            },
            {
                "start_time": 37.2909091,
                "end_time": 37.3931818,
                "pitch": 79,
                "velocity": 101,
                "duration": 0.1022727,
                "tempo": 120.0
            },
            {
                "start_time": 37.3931818,
                "end_time": 37.4931818,
                "pitch": 79,
                "velocity": 101,
                "duration": 0.1,
                "tempo": 120.0
            },
            {
                "start_time": 37.4931818,
                "end_time": 37.5613636,
                "pitch": 78,
                "velocity": 101,
                "duration": 0.0681818,
                "tempo": 120.0
            },
            {
                "start_time": 37.5613636,
                "end_time": 37.6613636,
                "pitch": 76,
                "velocity": 101,
                "duration": 0.1,
                "tempo": 120.0
            },
            {
                "start_time": 37.6613636,
                "end_time": 37.7613636,
                "pitch": 78,
                "velocity": 101,
                "duration": 0.1,
                "tempo": 120.0
            },
            {
                "start_time": 37.7613636,
                "end_time": 37.8545455,
                "pitch": 79,
                "velocity": 101,
                "duration": 0.0931818,
                "tempo": 120.0
            },
            {
                "start_time": 37.8545455,
                "end_time": 37.9477273,
                "pitch": 78,
                "velocity": 101,
                "duration": 0.0931818,
                "tempo": 120.0
            },
            {
                "start_time": 37.9477273,
                "end_time": 38.0409091,
                "pitch": 76,
                "velocity": 101,
                "duration": 0.0931818,
                "tempo": 120.0
            },
            {
                "start_time": 38.0409091,
                "end_time": 38.1318182,
                "pitch": 78,
                "velocity": 101,
                "duration": 0.0909091,
                "tempo": 120.0
            },
            {
                "start_time": 38.1318182,
                "end_time": 38.2318182,
                "pitch": 79,
                "velocity": 101,
                "duration": 0.1,
                "tempo": 120.0
            },
            {
                "start_time": 38.2318182,
                "end_time": 38.3318182,
                "pitch": 78,
                "velocity": 101,
                "duration": 0.1,
                "tempo": 120.0
            },
            {
                "start_time": 38.3318182,
                "end_time": 38.4318182,
                "pitch": 76,
                "velocity": 101,
                "duration": 0.1,
                "tempo": 120.0
            },
            {
                "start_time": 38.4318182,
                "end_time": 38.5318182,
                "pitch": 78,
                "velocity": 101,
                "duration": 0.1,
                "tempo": 120.0
            },
            {
                "start_time": 38.5318182,
                "end_time": 38.6340909,
                "pitch": 79,
                "velocity": 101,
                "duration": 0.1022727,
                "tempo": 120.0
            },
            {
                "start_time": 38.6340909,
                "end_time": 38.7340909,
                "pitch": 78,
                "velocity": 101,
                "duration": 0.1,
                "tempo": 120.0
            },
            {
                "start_time": 38.7340909,
                "end_time": 38.8340909,
                "pitch": 76,
                "velocity": 101,
                "duration": 0.1,
                "tempo": 120.0
            },
            {
                "start_time": 38.8340909,
                "end_time": 38.9363636,
                "pitch": 78,
                "velocity": 101,
                "duration": 0.1022727,
                "tempo": 120.0
            },
            {
                "start_time": 38.9363636,
                "end_time": 39.0363636,
                "pitch": 79,
                "velocity": 101,
                "duration": 0.1,
                "tempo": 120.0
            },
            {
                "start_time": 39.0363636,
                "end_time": 39.1363636,
                "pitch": 78,
                "velocity": 101,
                "duration": 0.1,
                "tempo": 120.0
            },
            {
                "start_time": 39.1363636,
                "end_time": 39.2363636,
                "pitch": 76,
                "velocity": 101,
                "duration": 0.1,
                "tempo": 120.0
            },
            {
                "start_time": 39.2363636,
                "end_time": 39.3363636,
                "pitch": 78,
                "velocity": 101,
                "duration": 0.1,
                "tempo": 120.0
            },
            {
                "start_time": 39.3363636,
                "end_time": 39.4363636,
                "pitch": 79,
                "velocity": 101,
                "duration": 0.1,
                "tempo": 120.0
            },
            {
                "start_time": 39.4363636,
                "end_time": 39.5363636,
                "pitch": 78,
                "velocity": 101,
                "duration": 0.1,
                "tempo": 120.0
            },
            {
                "start_time": 39.5363636,
                "end_time": 39.6363636,
                "pitch": 76,
                "velocity": 101,
                "duration": 0.1,
                "tempo": 120.0
            },
            {
                "start_time": 39.6363636,
                "end_time": 39.7045455,
                "pitch": 78,
                "velocity": 101,
                "duration": 0.0681818,
                "tempo": 120.0
            },
            {
                "start_time": 39.7045455,
                "end_time": 39.7977273,
                "pitch": 79,
                "velocity": 101,
                "duration": 0.0931818,
                "tempo": 120.0
            },
            {
                "start_time": 39.7977273,
                "end_time": 39.8909091,
                "pitch": 78,
                "velocity": 101,
                "duration": 0.0931818,
                "tempo": 120.0
            },
            {
                "start_time": 39.8909091,
                "end_time": 39.9840909,
                "pitch": 76,
                "velocity": 101,
                "duration": 0.0931818,
                "tempo": 120.0
            },
            {
                "start_time": 39.9840909,
                "end_time": 40.075,
                "pitch": 78,
                "velocity": 101,
                "duration": 0.0909091,
                "tempo": 120.0
            },
            {
                "start_time": 40.075,
                "end_time": 40.1772727,
                "pitch": 79,
                "velocity": 101,
                "duration": 0.1022727,
                "tempo": 120.0
            },
            {
                "start_time": 40.1772727,
                "end_time": 40.2772727,
                "pitch": 78,
                "velocity": 101,
                "duration": 0.1,
                "tempo": 120.0
            },
            {
                "start_time": 40.2772727,
                "end_time": 40.3772727,
                "pitch": 76,
                "velocity": 101,
                "duration": 0.1,
                "tempo": 120.0
            },
            {
                "start_time": 40.3772727,
                "end_time": 40.4772727,
                "pitch": 78,
                "velocity": 101,
                "duration": 0.1,
                "tempo": 120.0
            },
            {
                "start_time": 40.4772727,
                "end_time": 40.5772727,
                "pitch": 79,
                "velocity": 101,
                "duration": 0.1,
                "tempo": 120.0
            },
            {
                "start_time": 40.5772727,
                "end_time": 40.6772727,
                "pitch": 78,
                "velocity": 101,
                "duration": 0.1,
                "tempo": 120.0
            },
            {
                "start_time": 40.6772727,
                "end_time": 40.7772727,
                "pitch": 76,
                "velocity": 101,
                "duration": 0.1,
                "tempo": 120.0
            },
            {
                "start_time": 40.7772727,
                "end_time": 40.8772727,
                "pitch": 78,
                "velocity": 101,
                "duration": 0.1,
                "tempo": 120.0
            },
            {
                "start_time": 40.8772727,
                "end_time": 40.9772727,
                "pitch": 79,
                "velocity": 101,
                "duration": 0.1,
                "tempo": 120.0
            },
            {
                "start_time": 40.9772727,
                "end_time": 41.0772727,
                "pitch": 78,
                "velocity": 101,
                "duration": 0.1,
                "tempo": 120.0
            },
            {
                "start_time": 41.0772727,
                "end_time": 41.1772727,
                "pitch": 76,
                "velocity": 101,
                "duration": 0.1,
                "tempo": 120.0
            },
            {
                "start_time": 41.1772727,
                "end_time": 41.2772727,
                "pitch": 78,
                "velocity": 101,
                "duration": 0.1,
                "tempo": 120.0
            },
            {
                "start_time": 41.2772727,
                "end_time": 41.3772727,
                "pitch": 79,
                "velocity": 101,
                "duration": 0.1,
                "tempo": 120.0
            },
            {
                "start_time": 41.3772727,
                "end_time": 41.4772727,
                "pitch": 78,
                "velocity": 101,
                "duration": 0.1,
                "tempo": 120.0
            },
            {
                "start_time": 41.4772727,
                "end_time": 41.5772727,
                "pitch": 76,
                "velocity": 101,
                "duration": 0.1,
                "tempo": 120.0
            },
            {
                "start_time": 41.5772727,
                "end_time": 41.6772727,
                "pitch": 78,
                "velocity": 101,
                "duration": 0.1,
                "tempo": 120.0
            },
            {
                "start_time": 41.6772727,
                "end_time": 41.7772727,
                "pitch": 79,
                "velocity": 101,
                "duration": 0.1,
                "tempo": 120.0
            },
            {
                "start_time": 41.7772727,
                "end_time": 41.8386364,
                "pitch": 78,
                "velocity": 101,
                "duration": 0.0613636,
                "tempo": 120.0
            },
            {
                "start_time": 41.8386364,
                "end_time": 41.9386364,
                "pitch": 76,
                "velocity": 101,
                "duration": 0.1,
                "tempo": 120.0
            },
            {
                "start_time": 41.9386364,
                "end_time": 42.0386364,
                "pitch": 78,
                "velocity": 101,
                "duration": 0.1,
                "tempo": 120.0
            },
            {
                "start_time": 42.0386364,
                "end_time": 42.1318182,
                "pitch": 79,
                "velocity": 101,
                "duration": 0.0931818,
                "tempo": 120.0
            },
            {
                "start_time": 42.1318182,
                "end_time": 42.2340909,
                "pitch": 78,
                "velocity": 101,
                "duration": 0.1022727,
                "tempo": 120.0
            },
            {
                "start_time": 42.2340909,
                "end_time": 42.3159091,
                "pitch": 76,
                "velocity": 101,
                "duration": 0.0818182,
                "tempo": 120.0
            },
            {
                "start_time": 42.3159091,
                "end_time": 42.4090909,
                "pitch": 78,
                "velocity": 101,
                "duration": 0.0931818,
                "tempo": 120.0
            },
            {
                "start_time": 42.4090909,
                "end_time": 42.5090909,
                "pitch": 79,
                "velocity": 101,
                "duration": 0.1,
                "tempo": 120.0
            },
            {
                "start_time": 42.5090909,
                "end_time": 42.6090909,
                "pitch": 78,
                "velocity": 101,
                "duration": 0.1,
                "tempo": 120.0
            },
            {
                "start_time": 42.6090909,
                "end_time": 42.7090909,
                "pitch": 76,
                "velocity": 101,
                "duration": 0.1,
                "tempo": 120.0
            },
            {
                "start_time": 42.7090909,
                "end_time": 42.8181818,
                "pitch": 78,
                "velocity": 101,
                "duration": 0.1090909,
                "tempo": 120.0
            },
            {
                "start_time": 42.8181818,
                "end_time": 42.9090909,
                "pitch": 79,
                "velocity": 101,
                "duration": 0.0909091,
                "tempo": 120.0
            },
            {
                "start_time": 42.9090909,
                "end_time": 43.0090909,
                "pitch": 78,
                "velocity": 101,
                "duration": 0.1,
                "tempo": 120.0
            },
            {
                "start_time": 43.0090909,
                "end_time": 43.1090909,
                "pitch": 76,
                "velocity": 101,
                "duration": 0.1,
                "tempo": 120.0
            },
            {
                "start_time": 43.1090909,
                "end_time": 43.2181818,
                "pitch": 78,
                "velocity": 101,
                "duration": 0.1090909,
                "tempo": 120.0
            },
            {
                "start_time": 43.2181818,
                "end_time": 43.3090909,
                "pitch": 79,
                "velocity": 101,
                "duration": 0.0909091,
                "tempo": 120.0
            },
            {
                "start_time": 43.3090909,
                "end_time": 43.4090909,
                "pitch": 78,
                "velocity": 101,
                "duration": 0.1,
                "tempo": 120.0
            },
            {
                "start_time": 43.4090909,
                "end_time": 43.5090909,
                "pitch": 76,
                "velocity": 101,
                "duration": 0.1,
                "tempo": 120.0
            },
            {
                "start_time": 43.5090909,
                "end_time": 43.6181818,
                "pitch": 78,
                "velocity": 101,
                "duration": 0.1090909,
                "tempo": 120.0
            },
            {
                "start_time": 43.6181818,
                "end_time": 43.7068182,
                "pitch": 79,
                "velocity": 101,
                "duration": 0.0886364,
                "tempo": 120.0
            },
            {
                "start_time": 43.7068182,
                "end_time": 43.8045455,
                "pitch": 78,
                "velocity": 101,
                "duration": 0.0977273,
                "tempo": 120.0
            },
            {
                "start_time": 43.8045455,
                "end_time": 43.8727273,
                "pitch": 76,
                "velocity": 101,
                "duration": 0.0681818,
                "tempo": 120.0
            },
            {
                "start_time": 43.8727273,
                "end_time": 43.9704545,
                "pitch": 78,
                "velocity": 101,
                "duration": 0.0977273,
                "tempo": 120.0
            },
            {
                "start_time": 43.9704545,
                "end_time": 44.0636364,
                "pitch": 79,
                "velocity": 101,
                "duration": 0.0931818,
                "tempo": 120.0
            },
            {
                "start_time": 44.0636364,
                "end_time": 44.1568182,
                "pitch": 78,
                "velocity": 101,
                "duration": 0.0931818,
                "tempo": 120.0
            },
            {
                "start_time": 44.1568182,
                "end_time": 44.25,
                "pitch": 76,
                "velocity": 101,
                "duration": 0.0931818,
                "tempo": 120.0
            },
            {
                "start_time": 44.25,
                "end_time": 44.3409091,
                "pitch": 78,
                "velocity": 101,
                "duration": 0.0909091,
                "tempo": 120.0
            },
            {
                "start_time": 44.3409091,
                "end_time": 44.4409091,
                "pitch": 79,
                "velocity": 101,
                "duration": 0.1,
                "tempo": 120.0
            },
            {
                "start_time": 44.4409091,
                "end_time": 44.5409091,
                "pitch": 78,
                "velocity": 101,
                "duration": 0.1,
                "tempo": 120.0
            },
            {
                "start_time": 44.5409091,
                "end_time": 44.6409091,
                "pitch": 76,
                "velocity": 101,
                "duration": 0.1,
                "tempo": 120.0
            },
            {
                "start_time": 44.6409091,
                "end_time": 44.7409091,
                "pitch": 78,
                "velocity": 101,
                "duration": 0.1,
                "tempo": 120.0
            },
            {
                "start_time": 44.7409091,
                "end_time": 44.8409091,
                "pitch": 79,
                "velocity": 101,
                "duration": 0.1,
                "tempo": 120.0
            },
            {
                "start_time": 44.8409091,
                "end_time": 44.9409091,
                "pitch": 78,
                "velocity": 101,
                "duration": 0.1,
                "tempo": 120.0
            },
            {
                "start_time": 44.9409091,
                "end_time": 45.0409091,
                "pitch": 76,
                "velocity": 101,
                "duration": 0.1,
                "tempo": 120.0
            },
            {
                "start_time": 45.0409091,
                "end_time": 45.1409091,
                "pitch": 78,
                "velocity": 101,
                "duration": 0.1,
                "tempo": 120.0
            },
            {
                "start_time": 45.1409091,
                "end_time": 45.2409091,
                "pitch": 79,
                "velocity": 101,
                "duration": 0.1,
                "tempo": 120.0
            },
            {
                "start_time": 45.2409091,
                "end_time": 45.3409091,
                "pitch": 78,
                "velocity": 101,
                "duration": 0.1,
                "tempo": 120.0
            },
            {
                "start_time": 45.3409091,
                "end_time": 45.4409091,
                "pitch": 76,
                "velocity": 101,
                "duration": 0.1,
                "tempo": 120.0
            },
            {
                "start_time": 45.4409091,
                "end_time": 45.5409091,
                "pitch": 78,
                "velocity": 101,
                "duration": 0.1,
                "tempo": 120.0
            },
            {
                "start_time": 45.5409091,
                "end_time": 45.6409091,
                "pitch": 79,
                "velocity": 101,
                "duration": 0.1,
                "tempo": 120.0
            },
            {
                "start_time": 45.6409091,
                "end_time": 45.7409091,
                "pitch": 78,
                "velocity": 101,
                "duration": 0.1,
                "tempo": 120.0
            },
            {
                "start_time": 45.7409091,
                "end_time": 45.8409091,
                "pitch": 76,
                "velocity": 101,
                "duration": 0.1,
                "tempo": 120.0
            },
            {
                "start_time": 45.8409091,
                "end_time": 45.9409091,
                "pitch": 78,
                "velocity": 101,
                "duration": 0.1,
                "tempo": 120.0
            },
            {
                "start_time": 45.9409091,
                "end_time": 46.0113636,
                "pitch": 79,
                "velocity": 101,
                "duration": 0.0704545,
                "tempo": 120.0
            },
            {
                "start_time": 46.0113636,
                "end_time": 46.1136364,
                "pitch": 78,
                "velocity": 101,
                "duration": 0.1022727,
                "tempo": 120.0
            },
            {
                "start_time": 46.1136364,
                "end_time": 46.2136364,
                "pitch": 76,
                "velocity": 101,
                "duration": 0.1,
                "tempo": 120.0
            },
            {
                "start_time": 46.2136364,
                "end_time": 46.3136364,
                "pitch": 78,
                "velocity": 101,
                "duration": 0.1,
                "tempo": 120.0
            },
            {
                "start_time": 46.3136364,
                "end_time": 46.4068182,
                "pitch": 79,
                "velocity": 101,
                "duration": 0.0931818,
                "tempo": 120.0
            },
            {
                "start_time": 46.4068182,
                "end_time": 46.5,
                "pitch": 78,
                "velocity": 101,
                "duration": 0.0931818,
                "tempo": 120.0
            },
            {
                "start_time": 46.5,
                "end_time": 46.5931818,
                "pitch": 76,
                "velocity": 101,
                "duration": 0.0931818,
                "tempo": 120.0
            },
            {
                "start_time": 46.5931818,
                "end_time": 46.6840909,
                "pitch": 78,
                "velocity": 101,
                "duration": 0.0909091,
                "tempo": 120.0
            },
            {
                "start_time": 46.6840909,
                "end_time": 46.7840909,
                "pitch": 81,
                "velocity": 101,
                "duration": 0.1,
                "tempo": 120.0
            },
            {
                "start_time": 46.7840909,
                "end_time": 46.8840909,
                "pitch": 79,
                "velocity": 101,
                "duration": 0.1,
                "tempo": 120.0
            },
            {
                "start_time": 46.8840909,
                "end_time": 46.9840909,
                "pitch": 78,
                "velocity": 101,
                "duration": 0.1,
                "tempo": 120.0
            },
            {
                "start_time": 46.9840909,
                "end_time": 47.0840909,
                "pitch": 79,
                "velocity": 101,
                "duration": 0.1,
                "tempo": 120.0
            },
            {
                "start_time": 47.0840909,
                "end_time": 47.1840909,
                "pitch": 81,
                "velocity": 101,
                "duration": 0.1,
                "tempo": 120.0
            },
            {
                "start_time": 47.1840909,
                "end_time": 47.2840909,
                "pitch": 79,
                "velocity": 101,
                "duration": 0.1,
                "tempo": 120.0
            },
            {
                "start_time": 47.2840909,
                "end_time": 47.3840909,
                "pitch": 78,
                "velocity": 101,
                "duration": 0.1,
                "tempo": 120.0
            },
            {
                "start_time": 47.3840909,
                "end_time": 47.4840909,
                "pitch": 79,
                "velocity": 101,
                "duration": 0.1,
                "tempo": 120.0
            },
            {
                "start_time": 47.4840909,
                "end_time": 47.5863636,
                "pitch": 81,
                "velocity": 101,
                "duration": 0.1022727,
                "tempo": 120.0
            },
            {
                "start_time": 47.5863636,
                "end_time": 47.6863636,
                "pitch": 79,
                "velocity": 101,
                "duration": 0.1,
                "tempo": 120.0
            },
            {
                "start_time": 47.6863636,
                "end_time": 47.7863636,
                "pitch": 78,
                "velocity": 101,
                "duration": 0.1,
                "tempo": 120.0
            },
            {
                "start_time": 47.7863636,
                "end_time": 47.8863636,
                "pitch": 79,
                "velocity": 101,
                "duration": 0.1,
                "tempo": 120.0
            },
            {
                "start_time": 47.8863636,
                "end_time": 47.9863636,
                "pitch": 81,
                "velocity": 101,
                "duration": 0.1,
                "tempo": 120.0
            },
            {
                "start_time": 47.9863636,
                "end_time": 48.0863636,
                "pitch": 79,
                "velocity": 101,
                "duration": 0.1,
                "tempo": 120.0
            },
            {
                "start_time": 48.0863636,
                "end_time": 48.1568182,
                "pitch": 78,
                "velocity": 101,
                "duration": 0.0704545,
                "tempo": 120.0
            },
            {
                "start_time": 48.1568182,
                "end_time": 48.2568182,
                "pitch": 79,
                "velocity": 101,
                "duration": 0.1,
                "tempo": 120.0
            },
            {
                "start_time": 48.2568182,
                "end_time": 48.35,
                "pitch": 81,
                "velocity": 101,
                "duration": 0.0931818,
                "tempo": 120.0
            },
            {
                "start_time": 48.35,
                "end_time": 48.4431818,
                "pitch": 79,
                "velocity": 101,
                "duration": 0.0931818,
                "tempo": 120.0
            },
            {
                "start_time": 48.4431818,
                "end_time": 48.5340909,
                "pitch": 78,
                "velocity": 101,
                "duration": 0.0909091,
                "tempo": 120.0
            },
            {
                "start_time": 48.5340909,
                "end_time": 48.6272727,
                "pitch": 79,
                "velocity": 101,
                "duration": 0.0931818,
                "tempo": 120.0
            },
            {
                "start_time": 48.6272727,
                "end_time": 48.7272727,
                "pitch": 81,
                "velocity": 101,
                "duration": 0.1,
                "tempo": 120.0
            },
            {
                "start_time": 48.7272727,
                "end_time": 48.8272727,
                "pitch": 79,
                "velocity": 101,
                "duration": 0.1,
                "tempo": 120.0
            },
            {
                "start_time": 48.8272727,
                "end_time": 48.9272727,
                "pitch": 78,
                "velocity": 101,
                "duration": 0.1,
                "tempo": 120.0
            },
            {
                "start_time": 48.9272727,
                "end_time": 49.0272727,
                "pitch": 79,
                "velocity": 101,
                "duration": 0.1,
                "tempo": 120.0
            },
            {
                "start_time": 49.0272727,
                "end_time": 49.1272727,
                "pitch": 81,
                "velocity": 101,
                "duration": 0.1,
                "tempo": 120.0
            },
            {
                "start_time": 49.1272727,
                "end_time": 49.2272727,
                "pitch": 79,
                "velocity": 101,
                "duration": 0.1,
                "tempo": 120.0
            },
            {
                "start_time": 49.2272727,
                "end_time": 49.3272727,
                "pitch": 78,
                "velocity": 101,
                "duration": 0.1,
                "tempo": 120.0
            },
            {
                "start_time": 49.3272727,
                "end_time": 49.4272727,
                "pitch": 79,
                "velocity": 101,
                "duration": 0.1,
                "tempo": 120.0
            },
            {
                "start_time": 49.4272727,
                "end_time": 49.5295455,
                "pitch": 81,
                "velocity": 101,
                "duration": 0.1022727,
                "tempo": 120.0
            },
            {
                "start_time": 49.5295455,
                "end_time": 49.6295455,
                "pitch": 79,
                "velocity": 101,
                "duration": 0.1,
                "tempo": 120.0
            },
            {
                "start_time": 49.6295455,
                "end_time": 49.7295455,
                "pitch": 78,
                "velocity": 101,
                "duration": 0.1,
                "tempo": 120.0
            },
            {
                "start_time": 49.7295455,
                "end_time": 49.8295455,
                "pitch": 79,
                "velocity": 101,
                "duration": 0.1,
                "tempo": 120.0
            },
            {
                "start_time": 49.8295455,
                "end_time": 49.9295455,
                "pitch": 79,
                "velocity": 101,
                "duration": 0.1,
                "tempo": 120.0
            },
            {
                "start_time": 49.9295455,
                "end_time": 50.0295455,
                "pitch": 79,
                "velocity": 101,
                "duration": 0.1,
                "tempo": 120.0
            },
            {
                "start_time": 50.0295455,
                "end_time": 50.1295455,
                "pitch": 78,
                "velocity": 101,
                "duration": 0.1,
                "tempo": 120.0
            },
            {
                "start_time": 50.1295455,
                "end_time": 50.1909091,
                "pitch": 78,
                "velocity": 101,
                "duration": 0.0613636,
                "tempo": 120.0
            },
            {
                "start_time": 50.1909091,
                "end_time": 50.2818182,
                "pitch": 76,
                "velocity": 101,
                "duration": 0.0909091,
                "tempo": 120.0
            },
            {
                "start_time": 50.2818182,
                "end_time": 50.3704545,
                "pitch": 76,
                "velocity": 101,
                "duration": 0.0886364,
                "tempo": 120.0
            },
            {
                "start_time": 50.3704545,
                "end_time": 50.4613636,
                "pitch": 78,
                "velocity": 101,
                "duration": 0.0909091,
                "tempo": 120.0
            },
            {
                "start_time": 50.4613636,
                "end_time": 50.5522727,
                "pitch": 78,
                "velocity": 101,
                "duration": 0.0909091,
                "tempo": 120.0
            },
            {
                "start_time": 50.5522727,
                "end_time": 50.6522727,
                "pitch": 79,
                "velocity": 101,
                "duration": 0.1,
                "tempo": 120.0
            },
            {
                "start_time": 50.6522727,
                "end_time": 50.7522727,
                "pitch": 79,
                "velocity": 101,
                "duration": 0.1,
                "tempo": 120.0
            },
            {
                "start_time": 50.7522727,
                "end_time": 50.8522727,
                "pitch": 78,
                "velocity": 101,
                "duration": 0.1,
                "tempo": 120.0
            },
            {
                "start_time": 50.8522727,
                "end_time": 50.9522727,
                "pitch": 78,
                "velocity": 101,
                "duration": 0.1,
                "tempo": 120.0
            },
            {
                "start_time": 50.9522727,
                "end_time": 51.0522727,
                "pitch": 76,
                "velocity": 101,
                "duration": 0.1,
                "tempo": 120.0
            },
            {
                "start_time": 51.0522727,
                "end_time": 51.1522727,
                "pitch": 76,
                "velocity": 101,
                "duration": 0.1,
                "tempo": 120.0
            },
            {
                "start_time": 51.1522727,
                "end_time": 51.2522727,
                "pitch": 78,
                "velocity": 101,
                "duration": 0.1,
                "tempo": 120.0
            },
            {
                "start_time": 51.2522727,
                "end_time": 51.3522727,
                "pitch": 78,
                "velocity": 101,
                "duration": 0.1,
                "tempo": 120.0
            },
            {
                "start_time": 51.3522727,
                "end_time": 51.4522727,
                "pitch": 79,
                "velocity": 101,
                "duration": 0.1,
                "tempo": 120.0
            },
            {
                "start_time": 51.4522727,
                "end_time": 51.5522727,
                "pitch": 79,
                "velocity": 101,
                "duration": 0.1,
                "tempo": 120.0
            },
            {
                "start_time": 51.5522727,
                "end_time": 51.6545455,
                "pitch": 78,
                "velocity": 101,
                "duration": 0.1022727,
                "tempo": 120.0
            },
            {
                "start_time": 51.6545455,
                "end_time": 51.7545455,
                "pitch": 78,
                "velocity": 101,
                "duration": 0.1,
                "tempo": 120.0
            },
            {
                "start_time": 51.7545455,
                "end_time": 51.8545455,
                "pitch": 76,
                "velocity": 101,
                "duration": 0.1,
                "tempo": 120.0
            },
            {
                "start_time": 51.8545455,
                "end_time": 51.9545455,
                "pitch": 76,
                "velocity": 101,
                "duration": 0.1,
                "tempo": 120.0
            },
            {
                "start_time": 51.9545455,
                "end_time": 52.0545455,
                "pitch": 78,
                "velocity": 101,
                "duration": 0.1,
                "tempo": 120.0
            },
            {
                "start_time": 52.0545455,
                "end_time": 52.1545455,
                "pitch": 78,
                "velocity": 101,
                "duration": 0.1,
                "tempo": 120.0
            },
            {
                "start_time": 52.1545455,
                "end_time": 52.2545455,
                "pitch": 79,
                "velocity": 101,
                "duration": 0.1,
                "tempo": 120.0
            },
            {
                "start_time": 52.2545455,
                "end_time": 52.325,
                "pitch": 79,
                "velocity": 101,
                "duration": 0.0704545,
                "tempo": 120.0
            },
            {
                "start_time": 52.325,
                "end_time": 52.425,
                "pitch": 78,
                "velocity": 101,
                "duration": 0.1,
                "tempo": 120.0
            },
            {
                "start_time": 52.425,
                "end_time": 52.525,
                "pitch": 78,
                "velocity": 101,
                "duration": 0.1,
                "tempo": 120.0
            },
            {
                "start_time": 52.525,
                "end_time": 52.6181818,
                "pitch": 76,
                "velocity": 101,
                "duration": 0.0931818,
                "tempo": 120.0
            },
            {
                "start_time": 52.6181818,
                "end_time": 52.7090909,
                "pitch": 76,
                "velocity": 101,
                "duration": 0.0909091,
                "tempo": 120.0
            },
            {
                "start_time": 52.7090909,
                "end_time": 52.8022727,
                "pitch": 78,
                "velocity": 101,
                "duration": 0.0931818,
                "tempo": 120.0
            },
            {
                "start_time": 52.8022727,
                "end_time": 52.8954545,
                "pitch": 78,
                "velocity": 101,
                "duration": 0.0931818,
                "tempo": 120.0
            },
            {
                "start_time": 52.8954545,
                "end_time": 52.9954545,
                "pitch": 81,
                "velocity": 101,
                "duration": 0.1,
                "tempo": 120.0
            },
            {
                "start_time": 52.9954545,
                "end_time": 53.0954545,
                "pitch": 81,
                "velocity": 101,
                "duration": 0.1,
                "tempo": 120.0
            },
            {
                "start_time": 53.0954545,
                "end_time": 53.1977273,
                "pitch": 79,
                "velocity": 101,
                "duration": 0.1022727,
                "tempo": 120.0
            },
            {
                "start_time": 53.1977273,
                "end_time": 53.2977273,
                "pitch": 79,
                "velocity": 101,
                "duration": 0.1,
                "tempo": 120.0
            },
            {
                "start_time": 53.2977273,
                "end_time": 53.3977273,
                "pitch": 78,
                "velocity": 101,
                "duration": 0.1,
                "tempo": 120.0
            },
            {
                "start_time": 53.3977273,
                "end_time": 53.4977273,
                "pitch": 78,
                "velocity": 101,
                "duration": 0.1,
                "tempo": 120.0
            },
            {
                "start_time": 53.4977273,
                "end_time": 53.5977273,
                "pitch": 74,
                "velocity": 101,
                "duration": 0.1,
                "tempo": 120.0
            },
            {
                "start_time": 53.5977273,
                "end_time": 53.6977273,
                "pitch": 74,
                "velocity": 101,
                "duration": 0.1,
                "tempo": 120.0
            },
            {
                "start_time": 53.6977273,
                "end_time": 53.7977273,
                "pitch": 81,
                "velocity": 101,
                "duration": 0.1,
                "tempo": 120.0
            },
            {
                "start_time": 53.7977273,
                "end_time": 53.8977273,
                "pitch": 81,
                "velocity": 101,
                "duration": 0.1,
                "tempo": 120.0
            },
            {
                "start_time": 53.8977273,
                "end_time": 53.9977273,
                "pitch": 79,
                "velocity": 101,
                "duration": 0.1,
                "tempo": 120.0
            },
            {
                "start_time": 53.9977273,
                "end_time": 54.0977273,
                "pitch": 79,
                "velocity": 101,
                "duration": 0.1,
                "tempo": 120.0
            },
            {
                "start_time": 54.0977273,
                "end_time": 54.1977273,
                "pitch": 78,
                "velocity": 101,
                "duration": 0.1,
                "tempo": 120.0
            },
            {
                "start_time": 54.1977273,
                "end_time": 54.2977273,
                "pitch": 78,
                "velocity": 101,
                "duration": 0.1,
                "tempo": 120.0
            },
            {
                "start_time": 54.2977273,
                "end_time": 54.3977273,
                "pitch": 74,
                "velocity": 101,
                "duration": 0.1,
                "tempo": 120.0
            },
            {
                "start_time": 54.3977273,
                "end_time": 54.4681818,
                "pitch": 74,
                "velocity": 101,
                "duration": 0.0704545,
                "tempo": 120.0
            },
            {
                "start_time": 54.4681818,
                "end_time": 54.5590909,
                "pitch": 81,
                "velocity": 101,
                "duration": 0.0909091,
                "tempo": 120.0
            },
            {
                "start_time": 54.5590909,
                "end_time": 54.6522727,
                "pitch": 81,
                "velocity": 101,
                "duration": 0.0931818,
                "tempo": 120.0
            },
            {
                "start_time": 54.6522727,
                "end_time": 54.7454545,
                "pitch": 79,
                "velocity": 101,
                "duration": 0.0931818,
                "tempo": 120.0
            },
            {
                "start_time": 54.7454545,
                "end_time": 54.8386364,
                "pitch": 79,
                "velocity": 101,
                "duration": 0.0931818,
                "tempo": 120.0
            },
            {
                "start_time": 54.8386364,
                "end_time": 54.9386364,
                "pitch": 78,
                "velocity": 101,
                "duration": 0.1,
                "tempo": 120.0
            },
            {
                "start_time": 54.9386364,
                "end_time": 55.0386364,
                "pitch": 78,
                "velocity": 101,
                "duration": 0.1,
                "tempo": 120.0
            },
            {
                "start_time": 55.0386364,
                "end_time": 55.1409091,
                "pitch": 74,
                "velocity": 101,
                "duration": 0.1022727,
                "tempo": 120.0
            },
            {
                "start_time": 55.1409091,
                "end_time": 55.2409091,
                "pitch": 74,
                "velocity": 101,
                "duration": 0.1,
                "tempo": 120.0
            },
            {
                "start_time": 55.2409091,
                "end_time": 55.3409091,
                "pitch": 81,
                "velocity": 101,
                "duration": 0.1,
                "tempo": 120.0
            },
            {
                "start_time": 55.3409091,
                "end_time": 55.4409091,
                "pitch": 81,
                "velocity": 101,
                "duration": 0.1,
                "tempo": 120.0
            },
            {
                "start_time": 55.4409091,
                "end_time": 55.5409091,
                "pitch": 79,
                "velocity": 101,
                "duration": 0.1,
                "tempo": 120.0
            },
            {
                "start_time": 55.5409091,
                "end_time": 55.6409091,
                "pitch": 79,
                "velocity": 101,
                "duration": 0.1,
                "tempo": 120.0
            },
            {
                "start_time": 55.6409091,
                "end_time": 55.7409091,
                "pitch": 78,
                "velocity": 101,
                "duration": 0.1,
                "tempo": 120.0
            },
            {
                "start_time": 55.7409091,
                "end_time": 55.8409091,
                "pitch": 78,
                "velocity": 101,
                "duration": 0.1,
                "tempo": 120.0
            },
            {
                "start_time": 55.8409091,
                "end_time": 55.9409091,
                "pitch": 74,
                "velocity": 101,
                "duration": 0.1,
                "tempo": 120.0
            },
            {
                "start_time": 55.9409091,
                "end_time": 56.0409091,
                "pitch": 74,
                "velocity": 101,
                "duration": 0.1,
                "tempo": 120.0
            },
            {
                "start_time": 56.0409091,
                "end_time": 56.1409091,
                "pitch": 79,
                "velocity": 101,
                "duration": 0.1,
                "tempo": 120.0
            },
            {
                "start_time": 56.1409091,
                "end_time": 56.2409091,
                "pitch": 79,
                "velocity": 101,
                "duration": 0.1,
                "tempo": 120.0
            },
            {
                "start_time": 56.2409091,
                "end_time": 56.3409091,
                "pitch": 78,
                "velocity": 101,
                "duration": 0.1,
                "tempo": 120.0
            },
            {
                "start_time": 56.3409091,
                "end_time": 56.4409091,
                "pitch": 78,
                "velocity": 101,
                "duration": 0.1,
                "tempo": 120.0
            },
            {
                "start_time": 56.4409091,
                "end_time": 56.5,
                "pitch": 76,
                "velocity": 101,
                "duration": 0.0590909,
                "tempo": 120.0
            },
            {
                "start_time": 56.5,
                "end_time": 56.6,
                "pitch": 76,
                "velocity": 101,
                "duration": 0.1,
                "tempo": 120.0
            },
            {
                "start_time": 56.6,
                "end_time": 56.7,
                "pitch": 78,
                "velocity": 101,
                "duration": 0.1,
                "tempo": 120.0
            },
            {
                "start_time": 56.7,
                "end_time": 56.8,
                "pitch": 78,
                "velocity": 101,
                "duration": 0.1,
                "tempo": 120.0
            },
            {
                "start_time": 56.8,
                "end_time": 56.8931818,
                "pitch": 79,
                "velocity": 101,
                "duration": 0.0931818,
                "tempo": 120.0
            },
            {
                "start_time": 56.8931818,
                "end_time": 56.9863636,
                "pitch": 79,
                "velocity": 101,
                "duration": 0.0931818,
                "tempo": 120.0
            },
            {
                "start_time": 56.9863636,
                "end_time": 57.0795455,
                "pitch": 78,
                "velocity": 101,
                "duration": 0.0931818,
                "tempo": 120.0
            },
            {
                "start_time": 57.0795455,
                "end_time": 57.1727273,
                "pitch": 78,
                "velocity": 101,
                "duration": 0.0931818,
                "tempo": 120.0
            },
            {
                "start_time": 57.1727273,
                "end_time": 57.2704545,
                "pitch": 76,
                "velocity": 101,
                "duration": 0.0977273,
                "tempo": 120.0
            },
            {
                "start_time": 57.2704545,
                "end_time": 57.3704545,
                "pitch": 76,
                "velocity": 101,
                "duration": 0.1,
                "tempo": 120.0
            },
            {
                "start_time": 57.3818182,
                "end_time": 57.4704545,
                "pitch": 78,
                "velocity": 101,
                "duration": 0.0886364,
                "tempo": 120.0
            },
            {
                "start_time": 57.4704545,
                "end_time": 57.5704545,
                "pitch": 78,
                "velocity": 101,
                "duration": 0.1,
                "tempo": 120.0
            },
            {
                "start_time": 57.5704545,
                "end_time": 57.6704545,
                "pitch": 79,
                "velocity": 101,
                "duration": 0.1,
                "tempo": 120.0
            },
            {
                "start_time": 57.6704545,
                "end_time": 57.7704545,
                "pitch": 79,
                "velocity": 101,
                "duration": 0.1,
                "tempo": 120.0
            },
            {
                "start_time": 57.7704545,
                "end_time": 57.8704545,
                "pitch": 78,
                "velocity": 101,
                "duration": 0.1,
                "tempo": 120.0
            },
            {
                "start_time": 57.8704545,
                "end_time": 57.9704545,
                "pitch": 78,
                "velocity": 101,
                "duration": 0.1,
                "tempo": 120.0
            },
            {
                "start_time": 57.9704545,
                "end_time": 58.0704545,
                "pitch": 76,
                "velocity": 101,
                "duration": 0.1,
                "tempo": 120.0
            },
            {
                "start_time": 58.0704545,
                "end_time": 58.1704545,
                "pitch": 76,
                "velocity": 101,
                "duration": 0.1,
                "tempo": 120.0
            },
            {
                "start_time": 58.1704545,
                "end_time": 58.2704545,
                "pitch": 78,
                "velocity": 101,
                "duration": 0.1,
                "tempo": 120.0
            },
            {
                "start_time": 58.2704545,
                "end_time": 58.3704545,
                "pitch": 78,
                "velocity": 101,
                "duration": 0.1,
                "tempo": 120.0
            },
            {
                "start_time": 58.3704545,
                "end_time": 58.4681818,
                "pitch": 79,
                "velocity": 101,
                "duration": 0.0977273,
                "tempo": 120.0
            },
            {
                "start_time": 58.4681818,
                "end_time": 58.5681818,
                "pitch": 79,
                "velocity": 101,
                "duration": 0.1,
                "tempo": 120.0
            },
            {
                "start_time": 58.5681818,
                "end_time": 58.6363636,
                "pitch": 78,
                "velocity": 101,
                "duration": 0.0681818,
                "tempo": 120.0
            },
            {
                "start_time": 58.6363636,
                "end_time": 58.7340909,
                "pitch": 78,
                "velocity": 101,
                "duration": 0.0977273,
                "tempo": 120.0
            },
            {
                "start_time": 58.7340909,
                "end_time": 58.8272727,
                "pitch": 76,
                "velocity": 101,
                "duration": 0.0931818,
                "tempo": 120.0
            },
            {
                "start_time": 58.8272727,
                "end_time": 58.9181818,
                "pitch": 76,
                "velocity": 101,
                "duration": 0.0909091,
                "tempo": 120.0
            },
            {
                "start_time": 58.9181818,
                "end_time": 59.0113636,
                "pitch": 78,
                "velocity": 101,
                "duration": 0.0931818,
                "tempo": 120.0
            },
            {
                "start_time": 59.0113636,
                "end_time": 59.1045455,
                "pitch": 78,
                "velocity": 101,
                "duration": 0.0931818,
                "tempo": 120.0
            },
            {
                "start_time": 59.1045455,
                "end_time": 59.2045455,
                "pitch": 81,
                "velocity": 101,
                "duration": 0.1,
                "tempo": 120.0
            },
            {
                "start_time": 59.2045455,
                "end_time": 59.3045455,
                "pitch": 81,
                "velocity": 101,
                "duration": 0.1,
                "tempo": 120.0
            },
            {
                "start_time": 59.3045455,
                "end_time": 59.4045455,
                "pitch": 79,
                "velocity": 101,
                "duration": 0.1,
                "tempo": 120.0
            },
            {
                "start_time": 59.4045455,
                "end_time": 59.5045455,
                "pitch": 79,
                "velocity": 101,
                "duration": 0.1,
                "tempo": 120.0
            },
            {
                "start_time": 59.5045455,
                "end_time": 59.6045455,
                "pitch": 78,
                "velocity": 101,
                "duration": 0.1,
                "tempo": 120.0
            },
            {
                "start_time": 59.6045455,
                "end_time": 59.7045455,
                "pitch": 78,
                "velocity": 101,
                "duration": 0.1,
                "tempo": 120.0
            },
            {
                "start_time": 59.7045455,
                "end_time": 59.8045455,
                "pitch": 74,
                "velocity": 101,
                "duration": 0.1,
                "tempo": 120.0
            },
            {
                "start_time": 59.8045455,
                "end_time": 59.9045455,
                "pitch": 74,
                "velocity": 101,
                "duration": 0.1,
                "tempo": 120.0
            },
            {
                "start_time": 59.9045455,
                "end_time": 60.0045455,
                "pitch": 81,
                "velocity": 101,
                "duration": 0.1,
                "tempo": 120.0
            },
            {
                "start_time": 60.0045455,
                "end_time": 60.1045455,
                "pitch": 81,
                "velocity": 101,
                "duration": 0.1,
                "tempo": 120.0
            },
            {
                "start_time": 60.1045455,
                "end_time": 60.2045455,
                "pitch": 79,
                "velocity": 101,
                "duration": 0.1,
                "tempo": 120.0
            },
            {
                "start_time": 60.2045455,
                "end_time": 60.3045455,
                "pitch": 79,
                "velocity": 101,
                "duration": 0.1,
                "tempo": 120.0
            },
            {
                "start_time": 60.3045455,
                "end_time": 60.4045455,
                "pitch": 78,
                "velocity": 101,
                "duration": 0.1,
                "tempo": 120.0
            },
            {
                "start_time": 60.4045455,
                "end_time": 60.5045455,
                "pitch": 78,
                "velocity": 101,
                "duration": 0.1,
                "tempo": 120.0
            },
            {
                "start_time": 60.5045455,
                "end_time": 60.6068182,
                "pitch": 74,
                "velocity": 101,
                "duration": 0.1022727,
                "tempo": 120.0
            },
            {
                "start_time": 60.6068182,
                "end_time": 60.7068182,
                "pitch": 74,
                "velocity": 101,
                "duration": 0.1,
                "tempo": 120.0
            },
            {
                "start_time": 60.7068182,
                "end_time": 60.7772727,
                "pitch": 81,
                "velocity": 101,
                "duration": 0.0704545,
                "tempo": 120.0
            },
            {
                "start_time": 60.7772727,
                "end_time": 60.8772727,
                "pitch": 81,
                "velocity": 101,
                "duration": 0.1,
                "tempo": 120.0
            },
            {
                "start_time": 60.8772727,
                "end_time": 60.9772727,
                "pitch": 79,
                "velocity": 101,
                "duration": 0.1,
                "tempo": 120.0
            },
            {
                "start_time": 60.9772727,
                "end_time": 61.0772727,
                "pitch": 79,
                "velocity": 101,
                "duration": 0.1,
                "tempo": 120.0
            },
            {
                "start_time": 61.0772727,
                "end_time": 61.1704545,
                "pitch": 78,
                "velocity": 101,
                "duration": 0.0931818,
                "tempo": 120.0
            },
            {
                "start_time": 61.1704545,
                "end_time": 61.2613636,
                "pitch": 78,
                "velocity": 101,
                "duration": 0.0909091,
                "tempo": 120.0
            },
            {
                "start_time": 61.2613636,
                "end_time": 61.3545455,
                "pitch": 74,
                "velocity": 101,
                "duration": 0.0931818,
                "tempo": 120.0
            },
            {
                "start_time": 61.3545455,
                "end_time": 61.4477273,
                "pitch": 74,
                "velocity": 101,
                "duration": 0.0931818,
                "tempo": 120.0
            },
            {
                "start_time": 61.4477273,
                "end_time": 61.5477273,
                "pitch": 81,
                "velocity": 101,
                "duration": 0.1,
                "tempo": 120.0
            },
            {
                "start_time": 61.5477273,
                "end_time": 61.6477273,
                "pitch": 81,
                "velocity": 101,
                "duration": 0.1,
                "tempo": 120.0
            },
            {
                "start_time": 61.6477273,
                "end_time": 61.7477273,
                "pitch": 79,
                "velocity": 101,
                "duration": 0.1,
                "tempo": 120.0
            },
            {
                "start_time": 61.7477273,
                "end_time": 61.8477273,
                "pitch": 79,
                "velocity": 101,
                "duration": 0.1,
                "tempo": 120.0
            },
            {
                "start_time": 61.8477273,
                "end_time": 61.9477273,
                "pitch": 78,
                "velocity": 101,
                "duration": 0.1,
                "tempo": 120.0
            },
            {
                "start_time": 61.9477273,
                "end_time": 62.0477273,
                "pitch": 78,
                "velocity": 101,
                "duration": 0.1,
                "tempo": 120.0
            },
            {
                "start_time": 62.0477273,
                "end_time": 62.1477273,
                "pitch": 74,
                "velocity": 101,
                "duration": 0.1,
                "tempo": 120.0
            },
            {
                "start_time": 62.1477273,
                "end_time": 62.2477273,
                "pitch": 74,
                "velocity": 101,
                "duration": 0.1,
                "tempo": 120.0
            },
            {
                "start_time": 62.2477273,
                "end_time": 62.3477273,
                "pitch": 79,
                "velocity": 101,
                "duration": 0.1,
                "tempo": 120.0
            },
            {
                "start_time": 62.3477273,
                "end_time": 62.4477273,
                "pitch": 78,
                "velocity": 101,
                "duration": 0.1,
                "tempo": 120.0
            },
            {
                "start_time": 62.4477273,
                "end_time": 62.55,
                "pitch": 76,
                "velocity": 101,
                "duration": 0.1022727,
                "tempo": 120.0
            },
            {
                "start_time": 62.55,
                "end_time": 62.65,
                "pitch": 78,
                "velocity": 101,
                "duration": 0.1,
                "tempo": 120.0
            }
        ]
    }
}