{
    "mood": "happy",
    "instruments": {
        "Vibraphone": [
            {
                "start_time": 26.4045455,
                "end_time": 26.4704545,
                "pitch": 55,
                "velocity": 51,
                "duration": 0.0659091,
                "tempo": 120.0
            },
            {
                "start_time": 26.4704545,
                "end_time": 26.4886364,
                "pitch": 55,
                "velocity": 51,
                "duration": 0.0181818,
                "tempo": 120.0
            },
            {
                "start_time": 26.4886364,
                "end_time": 26.5568182,
                "pitch": 55,
                "velocity": 51,
                "duration": 0.0681818,
                "tempo": 120.0
            },
            {
                "start_time": 26.5568182,
                "end_time": 26.575,
                "pitch": 55,
                "velocity": 51,
                "duration": 0.0181818,
                "tempo": 120.0
            },
            {
                "start_time": 26.575,
                "end_time": 26.6431818,
                "pitch": 55,
                "velocity": 51,
                "duration": 0.0681818,
                "tempo": 120.0
            },
            {
                "start_time": 26.4886364,
                "end_time": 26.6613636,
                "pitch": 0,
                "velocity": 51,
                "duration": 0.1727273,
                "tempo": 120.0
            },
            {
                "start_time": 26.6431818,
                "end_time": 26.6613636,
                "pitch": 55,
                "velocity": 51,
                "duration": 0.0181818,
                "tempo": 120.0
            },
            {
                "start_time": 26.6613636,
                "end_time": 26.7295455,
                "pitch": 55,
                "velocity": 51,
                "duration": 0.0681818,
                "tempo": 120.0
            },
            {
                "start_time": 26.7295455,
                "end_time": 26.7454545,
                "pitch": 55,
                "velocity": 51,
                "duration": 0.0159091,
                "tempo": 120.0
            },
            {
                "start_time": 26.7454545,
                "end_time": 26.8136364,
                "pitch": 55,
                "velocity": 51,
                "duration": 0.0681818,
                "tempo": 120.0
            },
            {
                "start_time": 26.6431818,
                "end_time": 26.8136364,
                "pitch": 67,
                "velocity": 51,
                "duration": 0.1704545,
                "tempo": 120.0
            },
            {
                "start_time": 26.6613636,
                "end_time": 26.8295455,
                "pitch": 0,
                "velocity": 51,
                "duration": 0.1681818,
                "tempo": 120.0
            },
            {
                "start_time": 26.8136364,
                "end_time": 26.8295455,
                "pitch": 55,
                "velocity": 51,
                "duration": 0.0159091,
                "tempo": 120.0
            },
            {
                "start_time": 26.8295455,
                "end_time": 26.8954545,
                "pitch": 55,
                "velocity": 51,
                "duration": 0.0659091,
                "tempo": 120.0
            },
            {
                "start_time": 26.8136364,
                "end_time": 26.8954545,
                "pitch": 67,
                "velocity": 51,
                "duration": 0.0818182,
                "tempo": 120.0
            },
            {
                "start_time": 26.8954545,
                "end_time": 26.9136364,
                "pitch": 55,
                "velocity": 51,
                "duration": 0.0181818,
                "tempo": 120.0
            },
            {
                "start_time": 26.9136364,
                "end_time": 26.9795455,
                "pitch": 55,
                "velocity": 51,
                "duration": 0.0659091,
                "tempo": 120.0
            },
            {
                "start_time": 26.8954545,
                "end_time": 26.9795455,
                "pitch": 67,
                "velocity": 51,
                "duration": 0.0840909,
                "tempo": 120.0
            },
            {
                "start_time": 26.8295455,
                "end_time": 26.9977273,
                "pitch": 0,
                "velocity": 51,
                "duration": 0.1681818,
                "tempo": 120.0
            },
            {
                "start_time": 26.9795455,
                "end_time": 26.9977273,
                "pitch": 55,
                "velocity": 51,
                "duration": 0.0181818,
                "tempo": 120.0
            },
            {
                "start_time": 26.9977273,
                "end_time": 27.0636364,
                "pitch": 55,
                "velocity": 51,
                "duration": 0.0659091,
                "tempo": 120.0
            },
            {
                "start_time": 27.0636364,
                "end_time": 27.0795455,
                "pitch": 55,
                "velocity": 51,
                "duration": 0.0159091,
                "tempo": 120.0
            },
            {
                "start_time": 27.0795455,
                "end_time": 27.1477273,
                "pitch": 55,
                "velocity": 51,
                "duration": 0.0681818,
                "tempo": 120.0
            },
            {
                "start_time": 26.9795455,
                "end_time": 27.1477273,
                "pitch": 67,
                "velocity": 51,
                "duration": 0.1681818,
                "tempo": 120.0
            },
            {
                "start_time": 27.1477273,
                "end_time": 27.1636364,
                "pitch": 55,
                "velocity": 51,
                "duration": 0.0159091,
                "tempo": 120.0
            },
            {
                "start_time": 27.1636364,
                "end_time": 27.2295455,
                "pitch": 55,
                "velocity": 51,
                "duration": 0.0659091,
                "tempo": 120.0
            },
            {
                "start_time": 27.1477273,
                "end_time": 27.2295455,
                "pitch": 67,
                "velocity": 51,
                "duration": 0.0818182,
                "tempo": 120.0
            },
            {
                "start_time": 27.2295455,
                "end_time": 27.2477273,
                "pitch": 55,
                "velocity": 51,
                "duration": 0.0181818,
                "tempo": 120.0
            },
            {
                "start_time": 27.2477273,
                "end_time": 27.3136364,
                "pitch": 55,
                "velocity": 51,
                "duration": 0.0659091,
                "tempo": 120.0
            },
            {
                "start_time": 27.2295455,
                "end_time": 27.3136364,
                "pitch": 67,
                "velocity": 51,
                "duration": 0.0840909,
                "tempo": 120.0
            },
            {
                "start_time": 26.9977273,
                "end_time": 27.3295455,
                "pitch": 0,
                "velocity": 51,
                "duration": 0.3318182,
                "tempo": 120.0
            },
            {
                "start_time": 27.3136364,
                "end_time": 27.3295455,
                "pitch": 55,
                "velocity": 51,
                "duration": 0.0159091,
                "tempo": 120.0
            },
            {
                "start_time": 27.3295455,
                "end_time": 27.3977273,
                "pitch": 55,
                "velocity": 51,
                "duration": 0.0681818,
                "tempo": 120.0
            },
            {
                "start_time": 27.3136364,
                "end_time": 27.3977273,
                "pitch": 67,
                "velocity": 51,
                "duration": 0.0840909,
                "tempo": 120.0
            },
            {
                "start_time": 27.3295455,
                "end_time": 27.4136364,
                "pitch": 0,
                "velocity": 51,
                "duration": 0.0840909,
                "tempo": 120.0
            },
            {
                "start_time": 27.3977273,
                "end_time": 27.4136364,
                "pitch": 55,
                "velocity": 51,
                "duration": 0.0159091,
                "tempo": 120.0
            },
            {
                "start_time": 27.4136364,
                "end_time": 27.4818182,
                "pitch": 55,
                "velocity": 51,
                "duration": 0.0681818,
                "tempo": 120.0
            },
            {
                "start_time": 27.4818182,
                "end_time": 27.5477273,
                "pitch": 55,
                "velocity": 51,
                "duration": 0.0659091,
                "tempo": 120.0
            },
            {
                "start_time": 27.3977273,
                "end_time": 27.5477273,
                "pitch": 67,
                "velocity": 51,
                "duration": 0.15,
                "tempo": 120.0
            },
            {
                "start_time": 27.5477273,
                "end_time": 27.5636364,
                "pitch": 55,
                "velocity": 51,
                "duration": 0.0159091,
                "tempo": 120.0
            },
            {
                "start_time": 27.5636364,
                "end_time": 27.6318182,
                "pitch": 55,
                "velocity": 51,
                "duration": 0.0681818,
                "tempo": 120.0
            },
            {
                "start_time": 27.5477273,
                "end_time": 27.6318182,
                "pitch": 67,
                "velocity": 51,
                "duration": 0.0840909,
                "tempo": 120.0
            },
            {
                "start_time": 27.4136364,
                "end_time": 27.6477273,
                "pitch": 0,
                "velocity": 51,
                "duration": 0.2340909,
                "tempo": 120.0
            },
            {
                "start_time": 27.6318182,
                "end_time": 27.6477273,
                "pitch": 55,
                "velocity": 51,
                "duration": 0.0159091,
                "tempo": 120.0
            },
            {
                "start_time": 27.6477273,
                "end_time": 27.7136364,
                "pitch": 55,
                "velocity": 51,
                "duration": 0.0659091,
                "tempo": 120.0
            },
            {
                "start_time": 27.6318182,
                "end_time": 27.7136364,
                "pitch": 67,
                "velocity": 51,
                "duration": 0.0818182,
                "tempo": 120.0
            },
            {
                "start_time": 27.7136364,
                "end_time": 27.7318182,
                "pitch": 55,
                "velocity": 51,
                "duration": 0.0181818,
                "tempo": 120.0
            },
            {
                "start_time": 27.7318182,
                "end_time": 27.7954545,
                "pitch": 55,
                "velocity": 51,
                "duration": 0.0636364,
                "tempo": 120.0
            },
            {
                "start_time": 27.7136364,
                "end_time": 27.7954545,
                "pitch": 67,
                "velocity": 51,
                "duration": 0.0818182,
                "tempo": 120.0
            },
            {
                "start_time": 27.6477273,
                "end_time": 27.8113636,
                "pitch": 0,
                "velocity": 51,
                "duration": 0.1636364,
                "tempo": 120.0
            },
            {
                "start_time": 27.7954545,
                "end_time": 27.8113636,
                "pitch": 55,
                "velocity": 51,
                "duration": 0.0159091,
                "tempo": 120.0
            },
            {
                "start_time": 27.8113636,
                "end_time": 27.8772727,
                "pitch": 55,
                "velocity": 51,
                "duration": 0.0659091,
                "tempo": 120.0
            },
            {
                "start_time": 27.7954545,
                "end_time": 27.8772727,
                "pitch": 67,
                "velocity": 51,
                "duration": 0.0818182,
                "tempo": 120.0
            },
            {
                "start_time": 27.8772727,
                "end_time": 27.8931818,
                "pitch": 55,
                "velocity": 51,
                "duration": 0.0159091,
                "tempo": 120.0
            },
            {
                "start_time": 27.8931818,
                "end_time": 27.9568182,
                "pitch": 55,
                "velocity": 51,
                "duration": 0.0636364,
                "tempo": 120.0
            },
            {
                "start_time": 27.8772727,
                "end_time": 27.9568182,
                "pitch": 67,
                "velocity": 51,
                "duration": 0.0795455,
                "tempo": 120.0
            },
            {
                "start_time": 27.9568182,
                "end_time": 27.9727273,
                "pitch": 55,
                "velocity": 51,
                "duration": 0.0159091,
                "tempo": 120.0
            },
            {
                "start_time": 27.9727273,
                "end_time": 28.0386364,
                "pitch": 55,
                "velocity": 51,
                "duration": 0.0659091,
                "tempo": 120.0
            },
            {
                "start_time": 28.0386364,
                "end_time": 28.0545455,
                "pitch": 55,
                "velocity": 51,
                "duration": 0.0159091,
                "tempo": 120.0
            },
            {
                "start_time": 28.0545455,
                "end_time": 28.1204545,
                "pitch": 55,
                "velocity": 51,
                "duration": 0.0659091,
                "tempo": 120.0
            },
            {
                "start_time": 27.9568182,
                "end_time": 28.1204545,
                "pitch": 67,
                "velocity": 51,
                "duration": 0.1636364,
                "tempo": 120.0
            },
            {
                "start_time": 27.8113636,
                "end_time": 28.1386364,
                "pitch": 0,
                "velocity": 51,
                "duration": 0.3272727,
                "tempo": 120.0
            },
            {
                "start_time": 28.1204545,
                "end_time": 28.1386364,
                "pitch": 55,
                "velocity": 51,
                "duration": 0.0181818,
                "tempo": 120.0
            },
            {
                "start_time": 28.1386364,
                "end_time": 28.2045455,
                "pitch": 55,
                "velocity": 51,
                "duration": 0.0659091,
                "tempo": 120.0
            },
            {
                "start_time": 28.1204545,
                "end_time": 28.2045455,
                "pitch": 67,
                "velocity": 51,
                "duration": 0.0840909,
                "tempo": 120.0
            },
            {
                "start_time": 28.2045455,
                "end_time": 28.2204545,
                "pitch": 55,
                "velocity": 51,
                "duration": 0.0159091,
                "tempo": 120.0
            },
            {
                "start_time": 28.2204545,
                "end_time": 28.2886364,
                "pitch": 55,
                "velocity": 51,
                "duration": 0.0681818,
                "tempo": 120.0
            },
            {
                "start_time": 28.2045455,
                "end_time": 28.2886364,
                "pitch": 67,
                "velocity": 51,
                "duration": 0.0840909,
                "tempo": 120.0
            },
            {
                "start_time": 28.1386364,
                "end_time": 28.3045455,
                "pitch": 0,
                "velocity": 51,
                "duration": 0.1659091,
                "tempo": 120.0
            },
            {
                "start_time": 28.2886364,
                "end_time": 28.3045455,
                "pitch": 55,
                "velocity": 51,
                "duration": 0.0159091,
                "tempo": 120.0
            },
            {
                "start_time": 28.3045455,
                "end_time": 28.3704545,
                "pitch": 55,
                "velocity": 51,
                "duration": 0.0659091,
                "tempo": 120.0
            },
            {
                "start_time": 28.3704545,
                "end_time": 28.3886364,
                "pitch": 55,
                "velocity": 51,
                "duration": 0.0181818,
                "tempo": 120.0
            },
            {
                "start_time": 28.3886364,
                "end_time": 28.4545455,
                "pitch": 55,
                "velocity": 51,
                "duration": 0.0659091,
                "tempo": 120.0
            },
            {
                "start_time": 28.2886364,
                "end_time": 28.4545455,
                "pitch": 67,
                "velocity": 51,
                "duration": 0.1659091,
                "tempo": 120.0
            },
            {
                "start_time": 28.4545455,
                "end_time": 28.4704545,
                "pitch": 55,
                "velocity": 51,
                "duration": 0.0159091,
                "tempo": 120.0
            },
            {
                "start_time": 28.4704545,
                "end_time": 28.5386364,
                "pitch": 55,
                "velocity": 51,
                "duration": 0.0681818,
                "tempo": 120.0
            },
            {
                "start_time": 28.4545455,
                "end_time": 28.5386364,
                "pitch": 67,
                "velocity": 51,
                "duration": 0.0840909,
                "tempo": 120.0
            },
            {
                "start_time": 26.4045455,
                "end_time": 28.5545455,
                "pitch": 43,
                "velocity": 51,
                "duration": 2.15,
                "tempo": 120.0
            },
            {
                "start_time": 28.5386364,
                "end_time": 28.5545455,
                "pitch": 55,
                "velocity": 51,
                "duration": 0.0159091,
                "tempo": 120.0
            },
            {
                "start_time": 28.5545455,
                "end_time": 28.6386364,
                "pitch": 48,
                "velocity": 51,
                "duration": 0.0840909,
                "tempo": 120.0
            },
            {
                "start_time": 28.6386364,
                "end_time": 28.7227273,
                "pitch": 48,
                "velocity": 51,
                "duration": 0.0840909,
                "tempo": 120.0
            },
            {
                "start_time": 28.7227273,
                "end_time": 28.8045455,
                "pitch": 48,
                "velocity": 51,
                "duration": 0.0818182,
                "tempo": 120.0
            },
            {
                "start_time": 28.8045455,
                "end_time": 28.8886364,
                "pitch": 49,
                "velocity": 51,
                "duration": 0.0840909,
                "tempo": 120.0
            },
            {
                "start_time": 28.8886364,
                "end_time": 28.9727273,
                "pitch": 49,
                "velocity": 51,
                "duration": 0.0840909,
                "tempo": 120.0
            },
            {
                "start_time": 28.9727273,
                "end_time": 29.0568182,
                "pitch": 50,
                "velocity": 51,
                "duration": 0.0840909,
                "tempo": 120.0
            },
            {
                "start_time": 29.0568182,
                "end_time": 29.1386364,
                "pitch": 50,
                "velocity": 51,
                "duration": 0.0818182,
                "tempo": 120.0
            },
            {
                "start_time": 29.1386364,
                "end_time": 29.2227273,
                "pitch": 51,
                "velocity": 51,
                "duration": 0.0840909,
                "tempo": 120.0
            },
            {
                "start_time": 29.2227273,
                "end_time": 29.2886364,
                "pitch": 51,
                "velocity": 51,
                "duration": 0.0659091,
                "tempo": 120.0
            },
            {
                "start_time": 29.2886364,
                "end_time": 29.3727273,
                "pitch": 51,
                "velocity": 51,
                "duration": 0.0840909,
                "tempo": 120.0
            },
            {
                "start_time": 29.3727273,
                "end_time": 29.4545455,
                "pitch": 51,
                "velocity": 51,
                "duration": 0.0818182,
                "tempo": 120.0
            },
            {
                "start_time": 29.4545455,
                "end_time": 29.5340909,
                "pitch": 51,
                "velocity": 51,
                "duration": 0.0795455,
                "tempo": 120.0
            },
            {
                "start_time": 29.5340909,
                "end_time": 29.6159091,
                "pitch": 51,
                "velocity": 51,
                "duration": 0.0818182,
                "tempo": 120.0
            },
            {
                "start_time": 29.6159091,
                "end_time": 29.6954545,
                "pitch": 51,
                "velocity": 51,
                "duration": 0.0795455,
                "tempo": 120.0
            },
            {
                "start_time": 29.6954545,
                "end_time": 29.7795455,
                "pitch": 51,
                "velocity": 51,
                "duration": 0.0840909,
                "tempo": 120.0
            },
            {
                "start_time": 29.7795455,
                "end_time": 29.8636364,
                "pitch": 51,
                "velocity": 51,
                "duration": 0.0840909,
                "tempo": 120.0
            },
            {
                "start_time": 29.8636364,
                "end_time": 29.9454545,
                "pitch": 51,
                "velocity": 51,
                "duration": 0.0818182,
                "tempo": 120.0
            },
            {
                "start_time": 29.9454545,
                "end_time": 30.0295455,
                "pitch": 51,
                "velocity": 51,
                "duration": 0.0840909,
                "tempo": 120.0
            },
            {
                "start_time": 30.0295455,
                "end_time": 30.1159091,
                "pitch": 51,
                "velocity": 51,
                "duration": 0.0863636,
                "tempo": 120.0
            },
            {
                "start_time": 30.1159091,
                "end_time": 30.2022727,
                "pitch": 51,
                "velocity": 51,
                "duration": 0.0863636,
                "tempo": 120.0
            },
            {
                "start_time": 30.2022727,
                "end_time": 30.2863636,
                "pitch": 51,
                "velocity": 51,
                "duration": 0.0840909,
                "tempo": 120.0
            },
            {
                "start_time": 30.2863636,
                "end_time": 30.3727273,
                "pitch": 51,
                "velocity": 51,
                "duration": 0.0863636,
                "tempo": 120.0
            },
            {
                "start_time": 30.3727273,
                "end_time": 30.4568182,
                "pitch": 51,
                "velocity": 51,
                "duration": 0.0840909,
                "tempo": 120.0
            },
            {
                "start_time": 30.4568182,
                "end_time": 30.5409091,
                "pitch": 51,
                "velocity": 51,
                "duration": 0.0840909,
                "tempo": 120.0
            },
            {
                "start_time": 30.5409091,
                "end_time": 30.6227273,
                "pitch": 51,
                "velocity": 51,
                "duration": 0.0818182,
                "tempo": 120.0
            },
            {
                "start_time": 30.6227273,
                "end_time": 30.7068182,
                "pitch": 51,
                "velocity": 51,
                "duration": 0.0840909,
                "tempo": 120.0
            },
            {
                "start_time": 30.7068182,
                "end_time": 30.7909091,
                "pitch": 51,
                "velocity": 51,
                "duration": 0.0840909,
                "tempo": 120.0
            },
            {
                "start_time": 30.7909091,
                "end_time": 30.875,
                "pitch": 51,
                "velocity": 51,
                "duration": 0.0840909,
                "tempo": 120.0
            },
            {
                "start_time": 30.875,
                "end_time": 30.9568182,
                "pitch": 51,
                "velocity": 51,
                "duration": 0.0818182,
                "tempo": 120.0
            },
            {
                "start_time": 30.9568182,
                "end_time": 31.0409091,
                "pitch": 51,
                "velocity": 51,
                "duration": 0.0840909,
                "tempo": 120.0
            },
            {
                "start_time": 31.0409091,
                "end_time": 31.1068182,
                "pitch": 51,
                "velocity": 51,
                "duration": 0.0659091,
                "tempo": 120.0
            },
            {
                "start_time": 31.1068182,
                "end_time": 31.1909091,
                "pitch": 51,
                "velocity": 51,
                "duration": 0.0840909,
                "tempo": 120.0
            },
            {
                "start_time": 31.1909091,
                "end_time": 31.275,
                "pitch": 51,
                "velocity": 51,
                "duration": 0.0840909,
                "tempo": 120.0
            },
            {
                "start_time": 31.275,
                "end_time": 31.3590909,
                "pitch": 50,
                "velocity": 51,
                "duration": 0.0840909,
                "tempo": 120.0
            },
            {
                "start_time": 31.3590909,
                "end_time": 31.4409091,
                "pitch": 50,
                "velocity": 51,
                "duration": 0.0818182,
                "tempo": 120.0
            },
            {
                "start_time": 31.4409091,
                "end_time": 31.525,
                "pitch": 51,
                "velocity": 51,
                "duration": 0.0840909,
                "tempo": 120.0
            },
            {
                "start_time": 31.525,
                "end_time": 31.6090909,
                "pitch": 51,
                "velocity": 51,
                "duration": 0.0840909,
                "tempo": 120.0
            }
        ],
        "Acoustic Bass": [
            {
                "start_time": 0.0227273,
                "end_time": 0.1886364,
                "pitch": 41,
                "velocity": 101,
                "duration": 0.1659091,
                "tempo": 120.0
            },
            {
                "start_time": 0.1886364,
                "end_time": 0.3568182,
                "pitch": 41,
                "velocity": 101,
                "duration": 0.1681818,
                "tempo": 120.0
            },
            {
                "start_time": 0.3568182,
                "end_time": 0.5272727,
                "pitch": 41,
                "velocity": 101,
                "duration": 0.1704545,
                "tempo": 120.0
            },
            {
                "start_time": 0.5272727,
                "end_time": 0.7,
                "pitch": 41,
                "velocity": 101,
                "duration": 0.1727273,
                "tempo": 120.0
            },
            {
                "start_time": 0.7,
                "end_time": 0.8659091,
                "pitch": 41,
                "velocity": 101,
                "duration": 0.1659091,
                "tempo": 120.0
            },
            {
                "start_time": 0.8659091,
                "end_time": 1.0340909,
                "pitch": 41,
                "velocity": 101,
                "duration": 0.1681818,
                "tempo": 120.0
            },
            {
                "start_time": 1.0340909,
                "end_time": 1.2,
                "pitch": 41,
                "velocity": 101,
                "duration": 0.1659091,
                "tempo": 120.0
            },
            {
                "start_time": 1.2,
                "end_time": 1.3659091,
                "pitch": 41,
                "velocity": 101,
                "duration": 0.1659091,
                "tempo": 120.0
            },
            {
                "start_time": 1.3659091,
                "end_time": 1.5340909,
                "pitch": 41,
                "velocity": 101,
                "duration": 0.1681818,
                "tempo": 120.0
            },
            {
                "start_time": 1.5340909,
                "end_time": 1.7,
                "pitch": 41,
                "velocity": 101,
                "duration": 0.1659091,
                "tempo": 120.0
            },
            {
                "start_time": 1.7,
                "end_time": 1.8681818,
                "pitch": 41,
                "velocity": 101,
                "duration": 0.1681818,
                "tempo": 120.0
            },
            {
                "start_time": 1.8681818,
                "end_time": 2.0181818,
                "pitch": 41,
                "velocity": 101,
                "duration": 0.15,
                "tempo": 120.0
            },
            {
                "start_time": 2.0181818,
                "end_time": 2.1840909,
                "pitch": 41,
                "velocity": 101,
                "duration": 0.1659091,
                "tempo": 120.0
            },
            {
                "start_time": 2.1840909,
                "end_time": 2.3522727,
                "pitch": 41,
                "velocity": 101,
                "duration": 0.1681818,
                "tempo": 120.0
            },
            {
                "start_time": 2.3522727,
                "end_time": 2.5136364,
                "pitch": 41,
                "velocity": 101,
                "duration": 0.1613636,
                "tempo": 120.0
            },
            {
                "start_time": 2.5136364,
                "end_time": 2.675,
                "pitch": 41,
                "velocity": 101,
                "duration": 0.1613636,
                "tempo": 120.0
            },
            {
                "start_time": 2.675,
                "end_time": 2.8409091,
                "pitch": 45,
                "velocity": 101,
                "duration": 0.1659091,
                "tempo": 120.0
            },
            {
                "start_time": 2.8409091,
                "end_time": 3.0090909,
                "pitch": 45,
                "velocity": 101,
                "duration": 0.1681818,
                "tempo": 120.0
            },
            {
                "start_time": 3.0090909,
                "end_time": 3.175,
                "pitch": 45,
                "velocity": 101,
                "duration": 0.1659091,
                "tempo": 120.0
            },
            {
                "start_time": 3.175,
                "end_time": 3.3431818,
                "pitch": 45,
                "velocity": 101,
                "duration": 0.1681818,
                "tempo": 120.0
            },
            {
                "start_time": 3.3431818,
                "end_time": 3.5136364,
                "pitch": 45,
                "velocity": 101,
                "duration": 0.1704545,
                "tempo": 120.0
            },
            {
                "start_time": 3.5136364,
                "end_time": 3.6863636,
                "pitch": 45,
                "velocity": 101,
                "duration": 0.1727273,
                "tempo": 120.0
            },
            {
                "start_time": 3.6863636,
                "end_time": 3.8363636,
                "pitch": 45,
                "velocity": 101,
                "duration": 0.15,
                "tempo": 120.0
            },
            {
                "start_time": 3.8363636,
                "end_time": 4.0022727,
                "pitch": 45,
                "velocity": 101,
                "duration": 0.1659091,
                "tempo": 120.0
            },
            {
                "start_time": 4.0022727,
                "end_time": 4.1636364,
                "pitch": 45,
                "velocity": 101,
                "duration": 0.1613636,
                "tempo": 120.0
            },
            {
                "start_time": 4.1636364,
                "end_time": 4.325,
                "pitch": 45,
                "velocity": 101,
                "duration": 0.1613636,
                "tempo": 120.0
            },
            {
                "start_time": 4.325,
                "end_time": 4.4931818,
                "pitch": 45,
                "velocity": 101,
                "duration": 0.1681818,
                "tempo": 120.0
            },
            {
                "start_time": 4.4931818,
                "end_time": 4.6590909,
                "pitch": 45,
                "velocity": 101,
                "duration": 0.1659091,
                "tempo": 120.0
            },
            {
                "start_time": 4.6590909,
                "end_time": 4.825,
                "pitch": 45,
                "velocity": 101,
                "duration": 0.1659091,
                "tempo": 120.0
            },
            {
                "start_time": 4.825,
                "end_time": 4.9931818,
                "pitch": 45,
                "velocity": 101,
                "duration": 0.1681818,
                "tempo": 120.0
            },
            {
                "start_time": 4.9931818,
                "end_time": 5.1590909,
                "pitch": 45,
                "velocity": 101,
                "duration": 0.1659091,
                "tempo": 120.0
            },
            {
                "start_time": 5.1590909,
                "end_time": 5.3272727,
                "pitch": 44,
                "velocity": 101,
                "duration": 0.1681818,
                "tempo": 120.0
            },
            {
                "start_time": 5.3272727,
                "end_time": 5.4977273,
                "pitch": 41,
                "velocity": 101,
                "duration": 0.1704545,
                "tempo": 120.0
            },
            {
                "start_time": 5.4977273,
                "end_time": 5.6522727,
                "pitch": 41,
                "velocity": 101,
                "duration": 0.1545455,
                "tempo": 120.0
            },
            {
                "start_time": 5.6522727,
                "end_time": 5.8090909,
                "pitch": 41,
                "velocity": 101,
                "duration": 0.1568182,
                "tempo": 120.0
            },
            {
                "start_time": 5.8090909,
                "end_time": 5.9659091,
                "pitch": 41,
                "velocity": 101,
                "duration": 0.1568182,
                "tempo": 120.0
            },
            {
                "start_time": 5.9659091,
                "end_time": 6.1363636,
                "pitch": 41,
                "velocity": 101,
                "duration": 0.1704545,
                "tempo": 120.0
            },
            {
                "start_time": 6.1363636,
                "end_time": 6.3090909,
                "pitch": 41,
                "velocity": 101,
                "duration": 0.1727273,
                "tempo": 120.0
            },
            {
                "start_time": 6.3090909,
                "end_time": 6.4704545,
                "pitch": 41,
                "velocity": 101,
                "duration": 0.1613636,
                "tempo": 120.0
            },
            {
                "start_time": 6.4704545,
                "end_time": 6.6318182,
                "pitch": 41,
                "velocity": 101,
                "duration": 0.1613636,
                "tempo": 120.0
            },
            {
                "start_time": 6.6318182,
                "end_time": 6.8022727,
                "pitch": 41,
                "velocity": 101,
                "duration": 0.1704545,
                "tempo": 120.0
            },
            {
                "start_time": 6.8022727,
                "end_time": 6.9727273,
                "pitch": 41,
                "velocity": 101,
                "duration": 0.1704545,
                "tempo": 120.0
            },
            {
                "start_time": 6.9727273,
                "end_time": 7.1409091,
                "pitch": 41,
                "velocity": 101,
                "duration": 0.1681818,
                "tempo": 120.0
            },
            {
                "start_time": 7.1409091,
                "end_time": 7.3068182,
                "pitch": 41,
                "velocity": 101,
                "duration": 0.1659091,
                "tempo": 120.0
            },
            {
                "start_time": 7.3068182,
                "end_time": 7.4568182,
                "pitch": 41,
                "velocity": 101,
                "duration": 0.15,
                "tempo": 120.0
            },
            {
                "start_time": 7.4568182,
                "end_time": 7.625,
                "pitch": 41,
                "velocity": 101,
                "duration": 0.1681818,
                "tempo": 120.0
            },
            {
                "start_time": 7.625,
                "end_time": 7.7863636,
                "pitch": 41,
                "velocity": 101,
                "duration": 0.1613636,
                "tempo": 120.0
            },
            {
                "start_time": 7.7863636,
                "end_time": 7.9477273,
                "pitch": 41,
                "velocity": 101,
                "duration": 0.1613636,
                "tempo": 120.0
            },
            {
                "start_time": 7.9477273,
                "end_time": 8.1181818,
                "pitch": 36,
                "velocity": 101,
                "duration": 0.1704545,
                "tempo": 120.0
            },
            {
                "start_time": 8.1181818,
                "end_time": 8.2909091,
                "pitch": 36,
                "velocity": 101,
                "duration": 0.1727273,
                "tempo": 120.0
            },
            {
                "start_time": 8.2909091,
                "end_time": 8.4522727,
                "pitch": 36,
                "velocity": 101,
                "duration": 0.1613636,
                "tempo": 120.0
            },
            {
                "start_time": 8.4522727,
                "end_time": 8.6136364,
                "pitch": 36,
                "velocity": 101,
                "duration": 0.1613636,
                "tempo": 120.0
            },
            {
                "start_time": 8.6136364,
                "end_time": 8.7795455,
                "pitch": 36,
                "velocity": 101,
                "duration": 0.1659091,
                "tempo": 120.0
            },
            {
                "start_time": 8.7795455,
                "end_time": 8.9477273,
                "pitch": 36,
                "velocity": 101,
                "duration": 0.1681818,
                "tempo": 120.0
            },
            {
                "start_time": 8.9477273,
                "end_time": 9.1136364,
                "pitch": 36,
                "velocity": 101,
                "duration": 0.1659091,
                "tempo": 120.0
            },
            {
                "start_time": 9.1136364,
                "end_time": 9.2636364,
                "pitch": 36,
                "velocity": 101,
                "duration": 0.15,
                "tempo": 120.0
            },
            {
                "start_time": 9.2636364,
                "end_time": 9.4318182,
                "pitch": 36,
                "velocity": 101,
                "duration": 0.1681818,
                "tempo": 120.0
            },
            {
                "start_time": 9.4318182,
                "end_time": 9.5977273,
                "pitch": 36,
                "velocity": 101,
                "duration": 0.1659091,
                "tempo": 120.0
            },
            {
                "start_time": 9.5977273,
                "end_time": 9.7590909,
                "pitch": 36,
                "velocity": 101,
                "duration": 0.1613636,
                "tempo": 120.0
            },
            {
                "start_time": 9.7590909,
                "end_time": 9.9204545,
                "pitch": 36,
                "velocity": 101,
                "duration": 0.1613636,
                "tempo": 120.0
            },
            {
                "start_time": 9.9204545,
                "end_time": 10.0909091,
                "pitch": 36,
                "velocity": 101,
                "duration": 0.1704545,
                "tempo": 120.0
            },
            {
                "start_time": 10.0909091,
                "end_time": 10.2636364,
                "pitch": 36,
                "velocity": 101,
                "duration": 0.1727273,
                "tempo": 120.0
            },
            {
                "start_time": 10.2636364,
                "end_time": 10.425,
                "pitch": 36,
                "velocity": 101,
                "duration": 0.1613636,
                "tempo": 120.0
            },
            {
                "start_time": 10.425,
                "end_time": 10.5863636,
                "pitch": 36,
                "velocity": 101,
                "duration": 0.1613636,
                "tempo": 120.0
            },
            {
                "start_time": 10.5863636,
                "end_time": 10.7568182,
                "pitch": 39,
                "velocity": 101,
                "duration": 0.1704545,
                "tempo": 120.0
            },
            {
                "start_time": 10.7568182,
                "end_time": 10.9295455,
                "pitch": 39,
                "velocity": 101,
                "duration": 0.1727273,
                "tempo": 120.0
            },
            {
                "start_time": 10.9295455,
                "end_time": 11.0795455,
                "pitch": 46,
                "velocity": 101,
                "duration": 0.15,
                "tempo": 120.0
            },
            {
                "start_time": 10.9295455,
                "end_time": 11.2477273,
                "pitch": 51,
                "velocity": 101,
                "duration": 0.3181818,
                "tempo": 120.0
            },
            {
                "start_time": 11.0795455,
                "end_time": 11.2477273,
                "pitch": 51,
                "velocity": 101,
                "duration": 0.1681818,
                "tempo": 120.0
            },
            {
                "start_time": 11.2477273,
                "end_time": 11.4090909,
                "pitch": 39,
                "velocity": 101,
                "duration": 0.1613636,
                "tempo": 120.0
            },
            {
                "start_time": 11.4090909,
                "end_time": 11.5704545,
                "pitch": 39,
                "velocity": 101,
                "duration": 0.1613636,
                "tempo": 120.0
            },
            {
                "start_time": 11.0795455,
                "end_time": 11.7363636,
                "pitch": 46,
                "velocity": 101,
                "duration": 0.6568182,
                "tempo": 120.0
            },
            {
                "start_time": 11.5704545,
                "end_time": 11.7363636,
                "pitch": 46,
                "velocity": 101,
                "duration": 0.1659091,
                "tempo": 120.0
            },
            {
                "start_time": 11.5704545,
                "end_time": 11.9045455,
                "pitch": 51,
                "velocity": 101,
                "duration": 0.3340909,
                "tempo": 120.0
            },
            {
                "start_time": 11.7363636,
                "end_time": 11.9045455,
                "pitch": 51,
                "velocity": 101,
                "duration": 0.1681818,
                "tempo": 120.0
            },
            {
                "start_time": 7.9477273,
                "end_time": 12.0704545,
                "pitch": 41,
                "velocity": 101,
                "duration": 4.1227273,
                "tempo": 120.0
            },
            {
                "start_time": 11.9045455,
                "end_time": 12.0704545,
                "pitch": 41,
                "velocity": 101,
                "duration": 0.1659091,
                "tempo": 120.0
            },
            {
                "start_time": 12.0704545,
                "end_time": 12.2363636,
                "pitch": 41,
                "velocity": 101,
                "duration": 0.1659091,
                "tempo": 120.0
            },
            {
                "start_time": 12.2363636,
                "end_time": 12.4045455,
                "pitch": 48,
                "velocity": 101,
                "duration": 0.1681818,
                "tempo": 120.0
            },
            {
                "start_time": 2.675,
                "end_time": 12.5704545,
                "pitch": 53,
                "velocity": 101,
                "duration": 9.8954545,
                "tempo": 120.0
            },
            {
                "start_time": 12.4045455,
                "end_time": 12.5704545,
                "pitch": 53,
                "velocity": 101,
                "duration": 0.1659091,
                "tempo": 120.0
            },
            {
                "start_time": 12.5704545,
                "end_time": 12.7386364,
                "pitch": 41,
                "velocity": 101,
                "duration": 0.1681818,
                "tempo": 120.0
            },
            {
                "start_time": 12.7386364,
                "end_time": 12.8886364,
                "pitch": 41,
                "velocity": 101,
                "duration": 0.15,
                "tempo": 120.0
            },
            {
                "start_time": 12.4045455,
                "end_time": 13.0545455,
                "pitch": 48,
                "velocity": 101,
                "duration": 0.65,
                "tempo": 120.0
            },
            {
                "start_time": 12.8886364,
                "end_time": 13.0545455,
                "pitch": 48,
                "velocity": 101,
                "duration": 0.1659091,
                "tempo": 120.0
            },
            {
                "start_time": 12.8886364,
                "end_time": 13.2227273,
                "pitch": 53,
                "velocity": 101,
                "duration": 0.3340909,
                "tempo": 120.0
            },
            {
                "start_time": 13.0545455,
                "end_time": 13.2227273,
                "pitch": 53,
                "velocity": 101,
                "duration": 0.1681818,
                "tempo": 120.0
            },
            {
                "start_time": 13.2227273,
                "end_time": 13.3840909,
                "pitch": 43,
                "velocity": 101,
                "duration": 0.1613636,
                "tempo": 120.0
            },
            {
                "start_time": 13.3840909,
                "end_time": 13.5454545,
                "pitch": 43,
                "velocity": 101,
                "duration": 0.1613636,
                "tempo": 120.0
            },
            {
                "start_time": 13.5454545,
                "end_time": 13.7113636,
                "pitch": 43,
                "velocity": 101,
                "duration": 0.1659091,
                "tempo": 120.0
            },
            {
                "start_time": 13.7113636,
                "end_time": 13.8795455,
                "pitch": 43,
                "velocity": 101,
                "duration": 0.1681818,
                "tempo": 120.0
            },
            {
                "start_time": 13.8795455,
                "end_time": 14.05,
                "pitch": 43,
                "velocity": 101,
                "duration": 0.1704545,
                "tempo": 120.0
            },
            {
                "start_time": 14.05,
                "end_time": 14.2227273,
                "pitch": 43,
                "velocity": 101,
                "duration": 0.1727273,
                "tempo": 120.0
            },
            {
                "start_time": 14.2227273,
                "end_time": 14.3886364,
                "pitch": 43,
                "velocity": 101,
                "duration": 0.1659091,
                "tempo": 120.0
            },
            {
                "start_time": 14.3886364,
                "end_time": 14.5568182,
                "pitch": 43,
                "velocity": 101,
                "duration": 0.1681818,
                "tempo": 120.0
            },
            {
                "start_time": 14.5568182,
                "end_time": 14.7068182,
                "pitch": 43,
                "velocity": 101,
                "duration": 0.15,
                "tempo": 120.0
            },
            {
                "start_time": 14.7068182,
                "end_time": 14.8727273,
                "pitch": 43,
                "velocity": 101,
                "duration": 0.1659091,
                "tempo": 120.0
            },
            {
                "start_time": 14.8727273,
                "end_time": 15.0340909,
                "pitch": 43,
                "velocity": 101,
                "duration": 0.1613636,
                "tempo": 120.0
            },
            {
                "start_time": 15.0340909,
                "end_time": 15.1954545,
                "pitch": 43,
                "velocity": 101,
                "duration": 0.1613636,
                "tempo": 120.0
            },
            {
                "start_time": 15.1954545,
                "end_time": 15.3636364,
                "pitch": 43,
                "velocity": 101,
                "duration": 0.1681818,
                "tempo": 120.0
            },
            {
                "start_time": 15.3636364,
                "end_time": 15.5295455,
                "pitch": 43,
                "velocity": 101,
                "duration": 0.1659091,
                "tempo": 120.0
            },
            {
                "start_time": 15.5295455,
                "end_time": 15.6954545,
                "pitch": 43,
                "velocity": 101,
                "duration": 0.1659091,
                "tempo": 120.0
            },
            {
                "start_time": 0.0227273,
                "end_time": 15.8636364,
                "pitch": 31,
                "velocity": 101,
                "duration": 15.8409091,
                "tempo": 120.0
            },
            {
                "start_time": 15.6954545,
                "end_time": 15.8636364,
                "pitch": 43,
                "velocity": 101,
                "duration": 0.1681818,
                "tempo": 120.0
            },
            {
                "start_time": 11.9045455,
                "end_time": 16.0340909,
                "pitch": 39,
                "velocity": 101,
                "duration": 4.1295455,
                "tempo": 120.0
            },
            {
                "start_time": 15.8636364,
                "end_time": 16.0340909,
                "pitch": 39,
                "velocity": 101,
                "duration": 0.1704545,
                "tempo": 120.0
            },
            {
                "start_time": 16.0340909,
                "end_time": 16.2068182,
                "pitch": 39,
                "velocity": 101,
                "duration": 0.1727273,
                "tempo": 120.0
            },
            {
                "start_time": 16.2068182,
                "end_time": 16.3681818,
                "pitch": 39,
                "velocity": 101,
                "duration": 0.1613636,
                "tempo": 120.0
            },
            {
                "start_time": 16.3681818,
                "end_time": 16.5136364,
                "pitch": 39,
                "velocity": 101,
                "duration": 0.1454545,
                "tempo": 120.0
            },
            {
                "start_time": 16.5136364,
                "end_time": 16.675,
                "pitch": 39,
                "velocity": 101,
                "duration": 0.1613636,
                "tempo": 120.0
            },
            {
                "start_time": 16.675,
                "end_time": 16.8363636,
                "pitch": 39,
                "velocity": 101,
                "duration": 0.1613636,
                "tempo": 120.0
            },
            {
                "start_time": 16.8363636,
                "end_time": 17.0022727,
                "pitch": 39,
                "velocity": 101,
                "duration": 0.1659091,
                "tempo": 120.0
            },
            {
                "start_time": 17.0022727,
                "end_time": 17.1704545,
                "pitch": 39,
                "velocity": 101,
                "duration": 0.1681818,
                "tempo": 120.0
            },
            {
                "start_time": 17.1704545,
                "end_time": 17.3409091,
                "pitch": 41,
                "velocity": 101,
                "duration": 0.1704545,
                "tempo": 120.0
            },
            {
                "start_time": 17.3409091,
                "end_time": 17.5136364,
                "pitch": 41,
                "velocity": 101,
                "duration": 0.1727273,
                "tempo": 120.0
            },
            {
                "start_time": 17.5136364,
                "end_time": 17.6795455,
                "pitch": 41,
                "velocity": 101,
                "duration": 0.1659091,
                "tempo": 120.0
            },
            {
                "start_time": 17.6795455,
                "end_time": 17.8477273,
                "pitch": 41,
                "velocity": 101,
                "duration": 0.1681818,
                "tempo": 120.0
            },
            {
                "start_time": 17.8477273,
                "end_time": 18.0136364,
                "pitch": 41,
                "velocity": 101,
                "duration": 0.1659091,
                "tempo": 120.0
            },
            {
                "start_time": 18.0136364,
                "end_time": 18.1818182,
                "pitch": 41,
                "velocity": 101,
                "duration": 0.1681818,
                "tempo": 120.0
            },
            {
                "start_time": 18.1818182,
                "end_time": 18.3318182,
                "pitch": 41,
                "velocity": 101,
                "duration": 0.15,
                "tempo": 120.0
            },
            {
                "start_time": 18.3318182,
                "end_time": 18.4977273,
                "pitch": 41,
                "velocity": 101,
                "duration": 0.1659091,
                "tempo": 120.0
            },
            {
                "start_time": 13.2227273,
                "end_time": 18.4977273,
                "pitch": 53,
                "velocity": 101,
                "duration": 5.275,
                "tempo": 120.0
            },
            {
                "start_time": 18.4977273,
                "end_time": 18.6590909,
                "pitch": 43,
                "velocity": 101,
                "duration": 0.1613636,
                "tempo": 120.0
            },
            {
                "start_time": 18.6590909,
                "end_time": 18.8204545,
                "pitch": 43,
                "velocity": 101,
                "duration": 0.1613636,
                "tempo": 120.0
            },
            {
                "start_time": 18.8204545,
                "end_time": 18.9909091,
                "pitch": 43,
                "velocity": 101,
                "duration": 0.1704545,
                "tempo": 120.0
            },
            {
                "start_time": 18.9909091,
                "end_time": 19.1636364,
                "pitch": 43,
                "velocity": 101,
                "duration": 0.1727273,
                "tempo": 120.0
            },
            {
                "start_time": 19.1636364,
                "end_time": 19.325,
                "pitch": 43,
                "velocity": 101,
                "duration": 0.1613636,
                "tempo": 120.0
            },
            {
                "start_time": 19.325,
                "end_time": 19.4863636,
                "pitch": 43,
                "velocity": 101,
                "duration": 0.1613636,
                "tempo": 120.0
            },
            {
                "start_time": 19.4863636,
                "end_time": 19.6568182,
                "pitch": 43,
                "velocity": 101,
                "duration": 0.1704545,
                "tempo": 120.0
            },
            {
                "start_time": 19.6568182,
                "end_time": 19.8295455,
                "pitch": 43,
                "velocity": 101,
                "duration": 0.1727273,
                "tempo": 120.0
            },
            {
                "start_time": 19.8295455,
                "end_time": 19.9954545,
                "pitch": 43,
                "velocity": 101,
                "duration": 0.1659091,
                "tempo": 120.0
            },
            {
                "start_time": 19.9954545,
                "end_time": 20.1454545,
                "pitch": 43,
                "velocity": 101,
                "duration": 0.15,
                "tempo": 120.0
            },
            {
                "start_time": 20.1454545,
                "end_time": 20.3090909,
                "pitch": 43,
                "velocity": 101,
                "duration": 0.1636364,
                "tempo": 120.0
            },
            {
                "start_time": 20.3090909,
                "end_time": 20.4704545,
                "pitch": 43,
                "velocity": 101,
                "duration": 0.1613636,
                "tempo": 120.0
            },
            {
                "start_time": 20.4704545,
                "end_time": 20.6318182,
                "pitch": 43,
                "velocity": 101,
                "duration": 0.1613636,
                "tempo": 120.0
            },
            {
                "start_time": 20.6318182,
                "end_time": 20.7931818,
                "pitch": 43,
                "velocity": 101,
                "duration": 0.1613636,
                "tempo": 120.0
            },
            {
                "start_time": 20.7931818,
                "end_time": 20.9590909,
                "pitch": 43,
                "velocity": 101,
                "duration": 0.1659091,
                "tempo": 120.0
            },
            {
                "start_time": 15.8636364,
                "end_time": 21.1272727,
                "pitch": 31,
                "velocity": 101,
                "duration": 5.2636364,
                "tempo": 120.0
            },
            {
                "start_time": 20.9590909,
                "end_time": 21.1272727,
                "pitch": 43,
                "velocity": 101,
                "duration": 0.1681818,
                "tempo": 120.0
            },
            {
                "start_time": 17.1704545,
                "end_time": 21.2977273,
                "pitch": 39,
                "velocity": 101,
                "duration": 4.1272727,
                "tempo": 120.0
            },
            {
                "start_time": 21.1272727,
                "end_time": 21.2977273,
                "pitch": 39,
                "velocity": 101,
                "duration": 0.1704545,
                "tempo": 120.0
            },
            {
                "start_time": 21.2977273,
                "end_time": 21.4704545,
                "pitch": 39,
                "velocity": 101,
                "duration": 0.1727273,
                "tempo": 120.0
            },
            {
                "start_time": 21.4704545,
                "end_time": 21.6363636,
                "pitch": 39,
                "velocity": 101,
                "duration": 0.1659091,
                "tempo": 120.0
            },
            {
                "start_time": 21.6363636,
                "end_time": 21.8045455,
                "pitch": 39,
                "velocity": 101,
                "duration": 0.1681818,
                "tempo": 120.0
            },
            {
                "start_time": 21.8045455,
                "end_time": 21.9545455,
                "pitch": 39,
                "velocity": 101,
                "duration": 0.15,
                "tempo": 120.0
            },
            {
                "start_time": 21.9545455,
                "end_time": 22.1204545,
                "pitch": 39,
                "velocity": 101,
                "duration": 0.1659091,
                "tempo": 120.0
            },
            {
                "start_time": 22.1204545,
                "end_time": 22.2886364,
                "pitch": 39,
                "velocity": 101,
                "duration": 0.1681818,
                "tempo": 120.0
            },
            {
                "start_time": 22.2886364,
                "end_time": 22.4545455,
                "pitch": 39,
                "velocity": 101,
                "duration": 0.1659091,
                "tempo": 120.0
            },
            {
                "start_time": 22.4545455,
                "end_time": 22.6159091,
                "pitch": 41,
                "velocity": 101,
                "duration": 0.1613636,
                "tempo": 120.0
            },
            {
                "start_time": 22.6159091,
                "end_time": 22.7772727,
                "pitch": 41,
                "velocity": 101,
                "duration": 0.1613636,
                "tempo": 120.0
            },
            {
                "start_time": 22.7772727,
                "end_time": 22.9454545,
                "pitch": 41,
                "velocity": 101,
                "duration": 0.1681818,
                "tempo": 120.0
            },
            {
                "start_time": 22.9454545,
                "end_time": 23.1113636,
                "pitch": 41,
                "velocity": 101,
                "duration": 0.1659091,
                "tempo": 120.0
            },
            {
                "start_time": 23.1113636,
                "end_time": 23.2795455,
                "pitch": 41,
                "velocity": 101,
                "duration": 0.1681818,
                "tempo": 120.0
            },
            {
                "start_time": 23.2795455,
                "end_time": 23.4454545,
                "pitch": 41,
                "velocity": 101,
                "duration": 0.1659091,
                "tempo": 120.0
            },
            {
                "start_time": 23.4454545,
                "end_time": 23.6159091,
                "pitch": 41,
                "velocity": 101,
                "duration": 0.1704545,
                "tempo": 120.0
            },
            {
                "start_time": 23.6159091,
                "end_time": 23.7704545,
                "pitch": 41,
                "velocity": 101,
                "duration": 0.1545455,
                "tempo": 120.0
            },
            {
                "start_time": 23.7704545,
                "end_time": 23.9340909,
                "pitch": 38,
                "velocity": 101,
                "duration": 0.1636364,
                "tempo": 120.0
            },
            {
                "start_time": 23.9340909,
                "end_time": 24.0954545,
                "pitch": 38,
                "velocity": 101,
                "duration": 0.1613636,
                "tempo": 120.0
            },
            {
                "start_time": 24.0954545,
                "end_time": 24.2613636,
                "pitch": 38,
                "velocity": 101,
                "duration": 0.1659091,
                "tempo": 120.0
            },
            {
                "start_time": 24.2613636,
                "end_time": 24.4272727,
                "pitch": 38,
                "velocity": 101,
                "duration": 0.1659091,
                "tempo": 120.0
            },
            {
                "start_time": 24.4272727,
                "end_time": 24.5954545,
                "pitch": 38,
                "velocity": 101,
                "duration": 0.1681818,
                "tempo": 120.0
            },
            {
                "start_time": 24.5954545,
                "end_time": 24.7613636,
                "pitch": 38,
                "velocity": 101,
                "duration": 0.1659091,
                "tempo": 120.0
            },
            {
                "start_time": 24.7613636,
                "end_time": 24.9295455,
                "pitch": 38,
                "velocity": 101,
                "duration": 0.1681818,
                "tempo": 120.0
            },
            {
                "start_time": 24.9295455,
                "end_time": 25.0954545,
                "pitch": 38,
                "velocity": 101,
                "duration": 0.1659091,
                "tempo": 120.0
            },
            {
                "start_time": 25.0954545,
                "end_time": 25.2636364,
                "pitch": 38,
                "velocity": 101,
                "duration": 0.1681818,
                "tempo": 120.0
            },
            {
                "start_time": 25.2636364,
                "end_time": 25.4295455,
                "pitch": 38,
                "velocity": 101,
                "duration": 0.1659091,
                "tempo": 120.0
            },
            {
                "start_time": 25.4295455,
                "end_time": 25.5795455,
                "pitch": 38,
                "velocity": 101,
                "duration": 0.15,
                "tempo": 120.0
            },
            {
                "start_time": 25.5795455,
                "end_time": 25.7454545,
                "pitch": 38,
                "velocity": 101,
                "duration": 0.1659091,
                "tempo": 120.0
            },
            {
                "start_time": 25.7454545,
                "end_time": 25.9090909,
                "pitch": 38,
                "velocity": 101,
                "duration": 0.1636364,
                "tempo": 120.0
            },
            {
                "start_time": 25.9090909,
                "end_time": 26.0704545,
                "pitch": 38,
                "velocity": 101,
                "duration": 0.1613636,
                "tempo": 120.0
            },
            {
                "start_time": 26.0704545,
                "end_time": 26.2363636,
                "pitch": 38,
                "velocity": 101,
                "duration": 0.1659091,
                "tempo": 120.0
            },
            {
                "start_time": 26.2363636,
                "end_time": 26.4045455,
                "pitch": 38,
                "velocity": 101,
                "duration": 0.1681818,
                "tempo": 120.0
            },
            {
                "start_time": 26.4045455,
                "end_time": 26.575,
                "pitch": 43,
                "velocity": 101,
                "duration": 0.1704545,
                "tempo": 120.0
            },
            {
                "start_time": 26.575,
                "end_time": 26.7454545,
                "pitch": 43,
                "velocity": 101,
                "duration": 0.1704545,
                "tempo": 120.0
            },
            {
                "start_time": 26.7454545,
                "end_time": 26.9136364,
                "pitch": 43,
                "velocity": 101,
                "duration": 0.1681818,
                "tempo": 120.0
            },
            {
                "start_time": 26.9136364,
                "end_time": 27.0795455,
                "pitch": 43,
                "velocity": 101,
                "duration": 0.1659091,
                "tempo": 120.0
            },
            {
                "start_time": 27.0795455,
                "end_time": 27.2477273,
                "pitch": 43,
                "velocity": 101,
                "duration": 0.1681818,
                "tempo": 120.0
            },
            {
                "start_time": 27.2477273,
                "end_time": 27.4136364,
                "pitch": 43,
                "velocity": 101,
                "duration": 0.1659091,
                "tempo": 120.0
            },
            {
                "start_time": 27.4136364,
                "end_time": 27.5636364,
                "pitch": 43,
                "velocity": 101,
                "duration": 0.15,
                "tempo": 120.0
            },
            {
                "start_time": 27.5636364,
                "end_time": 27.7318182,
                "pitch": 43,
                "velocity": 101,
                "duration": 0.1681818,
                "tempo": 120.0
            },
            {
                "start_time": 27.7318182,
                "end_time": 27.8931818,
                "pitch": 43,
                "velocity": 101,
                "duration": 0.1613636,
                "tempo": 120.0
            },
            {
                "start_time": 27.8931818,
                "end_time": 28.0545455,
                "pitch": 43,
                "velocity": 101,
                "duration": 0.1613636,
                "tempo": 120.0
            },
            {
                "start_time": 28.0545455,
                "end_time": 28.2204545,
                "pitch": 43,
                "velocity": 101,
                "duration": 0.1659091,
                "tempo": 120.0
            },
            {
                "start_time": 28.2204545,
                "end_time": 28.3886364,
                "pitch": 43,
                "velocity": 101,
                "duration": 0.1681818,
                "tempo": 120.0
            },
            {
                "start_time": 28.3886364,
                "end_time": 28.5545455,
                "pitch": 43,
                "velocity": 101,
                "duration": 0.1659091,
                "tempo": 120.0
            },
            {
                "start_time": 10.5863636,
                "end_time": 28.7227273,
                "pitch": 36,
                "velocity": 101,
                "duration": 18.1363636,
                "tempo": 120.0
            },
            {
                "start_time": 28.5545455,
                "end_time": 28.7227273,
                "pitch": 36,
                "velocity": 101,
                "duration": 0.1681818,
                "tempo": 120.0
            },
            {
                "start_time": 28.7227273,
                "end_time": 28.8886364,
                "pitch": 36,
                "velocity": 101,
                "duration": 0.1659091,
                "tempo": 120.0
            },
            {
                "start_time": 28.8886364,
                "end_time": 29.0568182,
                "pitch": 37,
                "velocity": 101,
                "duration": 0.1681818,
                "tempo": 120.0
            },
            {
                "start_time": 29.0568182,
                "end_time": 29.2227273,
                "pitch": 38,
                "velocity": 101,
                "duration": 0.1659091,
                "tempo": 120.0
            },
            {
                "start_time": 22.4545455,
                "end_time": 29.3727273,
                "pitch": 39,
                "velocity": 101,
                "duration": 6.9181818,
                "tempo": 120.0
            },
            {
                "start_time": 29.2227273,
                "end_time": 29.3727273,
                "pitch": 39,
                "velocity": 101,
                "duration": 0.15,
                "tempo": 120.0
            },
            {
                "start_time": 29.3727273,
                "end_time": 29.5340909,
                "pitch": 39,
                "velocity": 101,
                "duration": 0.1613636,
                "tempo": 120.0
            },
            {
                "start_time": 29.5340909,
                "end_time": 29.6954545,
                "pitch": 39,
                "velocity": 101,
                "duration": 0.1613636,
                "tempo": 120.0
            },
            {
                "start_time": 29.6954545,
                "end_time": 29.8636364,
                "pitch": 39,
                "velocity": 101,
                "duration": 0.1681818,
                "tempo": 120.0
            },
            {
                "start_time": 29.8636364,
                "end_time": 30.0295455,
                "pitch": 39,
                "velocity": 101,
                "duration": 0.1659091,
                "tempo": 120.0
            },
            {
                "start_time": 30.0295455,
                "end_time": 30.2022727,
                "pitch": 39,
                "velocity": 101,
                "duration": 0.1727273,
                "tempo": 120.0
            },
            {
                "start_time": 30.2022727,
                "end_time": 30.3727273,
                "pitch": 39,
                "velocity": 101,
                "duration": 0.1704545,
                "tempo": 120.0
            },
            {
                "start_time": 30.3727273,
                "end_time": 30.5409091,
                "pitch": 39,
                "velocity": 101,
                "duration": 0.1681818,
                "tempo": 120.0
            },
            {
                "start_time": 30.5409091,
                "end_time": 30.7068182,
                "pitch": 39,
                "velocity": 101,
                "duration": 0.1659091,
                "tempo": 120.0
            },
            {
                "start_time": 30.7068182,
                "end_time": 30.875,
                "pitch": 39,
                "velocity": 101,
                "duration": 0.1681818,
                "tempo": 120.0
            },
            {
                "start_time": 30.875,
                "end_time": 31.0409091,
                "pitch": 39,
                "velocity": 101,
                "duration": 0.1659091,
                "tempo": 120.0
            },
            {
                "start_time": 31.0409091,
                "end_time": 31.1909091,
                "pitch": 39,
                "velocity": 101,
                "duration": 0.15,
                "tempo": 120.0
            },
            {
                "start_time": 31.1909091,
                "end_time": 31.3590909,
                "pitch": 39,
                "velocity": 101,
                "duration": 0.1681818,
                "tempo": 120.0
            },
            {
                "start_time": 31.3590909,
                "end_time": 31.525,
                "pitch": 38,
                "velocity": 101,
                "duration": 0.1659091,
                "tempo": 120.0
            },
            {
                "start_time": 31.525,
                "end_time": 31.6931818,
                "pitch": 39,
                "velocity": 101,
                "duration": 0.1681818,
                "tempo": 120.0
            },
            {
                "start_time": 31.6931818,
                "end_time": 31.8590909,
                "pitch": 40,
                "velocity": 101,
                "duration": 0.1659091,
                "tempo": 120.0
            },
            {
                "start_time": 23.7704545,
                "end_time": 31.925,
                "pitch": 41,
                "velocity": 101,
                "duration": 8.1545455,
                "tempo": 120.0
            },
            {
                "start_time": 31.8590909,
                "end_time": 31.925,
                "pitch": 41,
                "velocity": 101,
                "duration": 0.0659091,
                "tempo": 120.0
            }
        ],
        "Harpsichord": [
            {
                "start_time": 0.0227273,
                "end_time": 0.1886364,
                "pitch": 41,
                "velocity": 64,
                "duration": 0.1659091,
                "tempo": 120.0
            },
            {
                "start_time": 0.1886364,
                "end_time": 0.3568182,
                "pitch": 41,
                "velocity": 64,
                "duration": 0.1681818,
                "tempo": 120.0
            },
            {
                "start_time": 0.3568182,
                "end_time": 0.5272727,
                "pitch": 41,
                "velocity": 64,
                "duration": 0.1704545,
                "tempo": 120.0
            },
            {
                "start_time": 0.5272727,
                "end_time": 0.7,
                "pitch": 41,
                "velocity": 64,
                "duration": 0.1727273,
                "tempo": 120.0
            },
            {
                "start_time": 0.7,
                "end_time": 0.8659091,
                "pitch": 41,
                "velocity": 64,
                "duration": 0.1659091,
                "tempo": 120.0
            },
            {
                "start_time": 0.8659091,
                "end_time": 1.0340909,
                "pitch": 41,
                "velocity": 64,
                "duration": 0.1681818,
                "tempo": 120.0
            },
            {
                "start_time": 1.0340909,
                "end_time": 1.2,
                "pitch": 41,
                "velocity": 64,
                "duration": 0.1659091,
                "tempo": 120.0
            },
            {
                "start_time": 1.2,
                "end_time": 1.3659091,
                "pitch": 41,
                "velocity": 64,
                "duration": 0.1659091,
                "tempo": 120.0
            },
            {
                "start_time": 1.3659091,
                "end_time": 1.5340909,
                "pitch": 41,
                "velocity": 64,
                "duration": 0.1681818,
                "tempo": 120.0
            },
            {
                "start_time": 1.5340909,
                "end_time": 1.7,
                "pitch": 41,
                "velocity": 64,
                "duration": 0.1659091,
                "tempo": 120.0
            },
            {
                "start_time": 1.7,
                "end_time": 1.8681818,
                "pitch": 41,
                "velocity": 64,
                "duration": 0.1681818,
                "tempo": 120.0
            },
            {
                "start_time": 1.8681818,
                "end_time": 2.0181818,
                "pitch": 41,
                "velocity": 64,
                "duration": 0.15,
                "tempo": 120.0
            },
            {
                "start_time": 2.0181818,
                "end_time": 2.1840909,
                "pitch": 41,
                "velocity": 64,
                "duration": 0.1659091,
                "tempo": 120.0
            },
            {
                "start_time": 2.1840909,
                "end_time": 2.3522727,
                "pitch": 41,
                "velocity": 64,
                "duration": 0.1681818,
                "tempo": 120.0
            },
            {
                "start_time": 2.3522727,
                "end_time": 2.5136364,
                "pitch": 41,
                "velocity": 64,
                "duration": 0.1613636,
                "tempo": 120.0
            },
            {
                "start_time": 2.5136364,
                "end_time": 2.675,
                "pitch": 41,
                "velocity": 64,
                "duration": 0.1613636,
                "tempo": 120.0
            },
            {
                "start_time": 2.675,
                "end_time": 2.8409091,
                "pitch": 45,
                "velocity": 64,
                "duration": 0.1659091,
                "tempo": 120.0
            },
            {
                "start_time": 2.8409091,
                "end_time": 3.0090909,
                "pitch": 45,
                "velocity": 64,
                "duration": 0.1681818,
                "tempo": 120.0
            },
            {
                "start_time": 3.0090909,
                "end_time": 3.175,
                "pitch": 45,
                "velocity": 64,
                "duration": 0.1659091,
                "tempo": 120.0
            },
            {
                "start_time": 3.175,
                "end_time": 3.3431818,
                "pitch": 45,
                "velocity": 64,
                "duration": 0.1681818,
                "tempo": 120.0
            },
            {
                "start_time": 3.3431818,
                "end_time": 3.5136364,
                "pitch": 45,
                "velocity": 64,
                "duration": 0.1704545,
                "tempo": 120.0
            },
            {
                "start_time": 3.5136364,
                "end_time": 3.6863636,
                "pitch": 45,
                "velocity": 64,
                "duration": 0.1727273,
                "tempo": 120.0
            },
            {
                "start_time": 3.6863636,
                "end_time": 3.8363636,
                "pitch": 45,
                "velocity": 64,
                "duration": 0.15,
                "tempo": 120.0
            },
            {
                "start_time": 3.8363636,
                "end_time": 4.0022727,
                "pitch": 45,
                "velocity": 64,
                "duration": 0.1659091,
                "tempo": 120.0
            },
            {
                "start_time": 4.0022727,
                "end_time": 4.1636364,
                "pitch": 45,
                "velocity": 64,
                "duration": 0.1613636,
                "tempo": 120.0
            },
            {
                "start_time": 4.1636364,
                "end_time": 4.325,
                "pitch": 45,
                "velocity": 64,
                "duration": 0.1613636,
                "tempo": 120.0
            },
            {
                "start_time": 4.325,
                "end_time": 4.4931818,
                "pitch": 45,
                "velocity": 64,
                "duration": 0.1681818,
                "tempo": 120.0
            },
            {
                "start_time": 4.4931818,
                "end_time": 4.6590909,
                "pitch": 45,
                "velocity": 64,
                "duration": 0.1659091,
                "tempo": 120.0
            },
            {
                "start_time": 4.6590909,
                "end_time": 4.825,
                "pitch": 45,
                "velocity": 64,
                "duration": 0.1659091,
                "tempo": 120.0
            },
            {
                "start_time": 4.825,
                "end_time": 4.9931818,
                "pitch": 45,
                "velocity": 64,
                "duration": 0.1681818,
                "tempo": 120.0
            },
            {
                "start_time": 4.9931818,
                "end_time": 5.1590909,
                "pitch": 45,
                "velocity": 64,
                "duration": 0.1659091,
                "tempo": 120.0
            },
            {
                "start_time": 5.1590909,
                "end_time": 5.3272727,
                "pitch": 44,
                "velocity": 64,
                "duration": 0.1681818,
                "tempo": 120.0
            },
            {
                "start_time": 5.3272727,
                "end_time": 5.4977273,
                "pitch": 41,
                "velocity": 64,
                "duration": 0.1704545,
                "tempo": 120.0
            },
            {
                "start_time": 5.4977273,
                "end_time": 5.6522727,
                "pitch": 41,
                "velocity": 64,
                "duration": 0.1545455,
                "tempo": 120.0
            },
            {
                "start_time": 5.6522727,
                "end_time": 5.8090909,
                "pitch": 41,
                "velocity": 64,
                "duration": 0.1568182,
                "tempo": 120.0
            },
            {
                "start_time": 5.8090909,
                "end_time": 5.9659091,
                "pitch": 41,
                "velocity": 64,
                "duration": 0.1568182,
                "tempo": 120.0
            },
            {
                "start_time": 5.9659091,
                "end_time": 6.1363636,
                "pitch": 41,
                "velocity": 64,
                "duration": 0.1704545,
                "tempo": 120.0
            },
            {
                "start_time": 6.1363636,
                "end_time": 6.3090909,
                "pitch": 41,
                "velocity": 64,
                "duration": 0.1727273,
                "tempo": 120.0
            },
            {
                "start_time": 6.3090909,
                "end_time": 6.4704545,
                "pitch": 41,
                "velocity": 64,
                "duration": 0.1613636,
                "tempo": 120.0
            },
            {
                "start_time": 6.4704545,
                "end_time": 6.6318182,
                "pitch": 41,
                "velocity": 64,
                "duration": 0.1613636,
                "tempo": 120.0
            },
            {
                "start_time": 6.6318182,
                "end_time": 6.8022727,
                "pitch": 41,
                "velocity": 64,
                "duration": 0.1704545,
                "tempo": 120.0
            },
            {
                "start_time": 6.8022727,
                "end_time": 6.9727273,
                "pitch": 41,
                "velocity": 64,
                "duration": 0.1704545,
                "tempo": 120.0
            },
            {
                "start_time": 6.9727273,
                "end_time": 7.1409091,
                "pitch": 41,
                "velocity": 64,
                "duration": 0.1681818,
                "tempo": 120.0
            },
            {
                "start_time": 7.1409091,
                "end_time": 7.3068182,
                "pitch": 41,
                "velocity": 64,
                "duration": 0.1659091,
                "tempo": 120.0
            },
            {
                "start_time": 7.3068182,
                "end_time": 7.4568182,
                "pitch": 41,
                "velocity": 64,
                "duration": 0.15,
                "tempo": 120.0
            },
            {
                "start_time": 7.4568182,
                "end_time": 7.625,
                "pitch": 41,
                "velocity": 64,
                "duration": 0.1681818,
                "tempo": 120.0
            },
            {
                "start_time": 7.625,
                "end_time": 7.7863636,
                "pitch": 41,
                "velocity": 64,
                "duration": 0.1613636,
                "tempo": 120.0
            },
            {
                "start_time": 7.7863636,
                "end_time": 7.9477273,
                "pitch": 41,
                "velocity": 64,
                "duration": 0.1613636,
                "tempo": 120.0
            },
            {
                "start_time": 7.9477273,
                "end_time": 8.1181818,
                "pitch": 36,
                "velocity": 64,
                "duration": 0.1704545,
                "tempo": 120.0
            },
            {
                "start_time": 8.1181818,
                "end_time": 8.2909091,
                "pitch": 36,
                "velocity": 64,
                "duration": 0.1727273,
                "tempo": 120.0
            },
            {
                "start_time": 8.2909091,
                "end_time": 8.4522727,
                "pitch": 36,
                "velocity": 64,
                "duration": 0.1613636,
                "tempo": 120.0
            },
            {
                "start_time": 8.4522727,
                "end_time": 8.6136364,
                "pitch": 36,
                "velocity": 64,
                "duration": 0.1613636,
                "tempo": 120.0
            },
            {
                "start_time": 8.6136364,
                "end_time": 8.7795455,
                "pitch": 36,
                "velocity": 64,
                "duration": 0.1659091,
                "tempo": 120.0
            },
            {
                "start_time": 8.7795455,
                "end_time": 8.9477273,
                "pitch": 36,
                "velocity": 64,
                "duration": 0.1681818,
                "tempo": 120.0
            },
            {
                "start_time": 8.9477273,
                "end_time": 9.1136364,
                "pitch": 36,
                "velocity": 64,
                "duration": 0.1659091,
                "tempo": 120.0
            },
            {
                "start_time": 9.1136364,
                "end_time": 9.2636364,
                "pitch": 36,
                "velocity": 64,
                "duration": 0.15,
                "tempo": 120.0
            },
            {
                "start_time": 9.2636364,
                "end_time": 9.4318182,
                "pitch": 36,
                "velocity": 64,
                "duration": 0.1681818,
                "tempo": 120.0
            },
            {
                "start_time": 9.4318182,
                "end_time": 9.5977273,
                "pitch": 36,
                "velocity": 64,
                "duration": 0.1659091,
                "tempo": 120.0
            },
            {
                "start_time": 9.5977273,
                "end_time": 9.7590909,
                "pitch": 36,
                "velocity": 64,
                "duration": 0.1613636,
                "tempo": 120.0
            },
            {
                "start_time": 9.7590909,
                "end_time": 9.9204545,
                "pitch": 36,
                "velocity": 64,
                "duration": 0.1613636,
                "tempo": 120.0
            },
            {
                "start_time": 9.9204545,
                "end_time": 10.0931818,
                "pitch": 36,
                "velocity": 64,
                "duration": 0.1727273,
                "tempo": 120.0
            },
            {
                "start_time": 10.0931818,
                "end_time": 10.2636364,
                "pitch": 36,
                "velocity": 64,
                "duration": 0.1704545,
                "tempo": 120.0
            },
            {
                "start_time": 10.2636364,
                "end_time": 10.425,
                "pitch": 36,
                "velocity": 64,
                "duration": 0.1613636,
                "tempo": 120.0
            },
            {
                "start_time": 10.425,
                "end_time": 10.5863636,
                "pitch": 36,
                "velocity": 64,
                "duration": 0.1613636,
                "tempo": 120.0
            },
            {
                "start_time": 10.5863636,
                "end_time": 10.7590909,
                "pitch": 39,
                "velocity": 64,
                "duration": 0.1727273,
                "tempo": 120.0
            },
            {
                "start_time": 10.7590909,
                "end_time": 10.9295455,
                "pitch": 39,
                "velocity": 64,
                "duration": 0.1704545,
                "tempo": 120.0
            },
            {
                "start_time": 10.9295455,
                "end_time": 11.0795455,
                "pitch": 46,
                "velocity": 64,
                "duration": 0.15,
                "tempo": 120.0
            },
            {
                "start_time": 11.0795455,
                "end_time": 11.2477273,
                "pitch": 51,
                "velocity": 64,
                "duration": 0.1681818,
                "tempo": 120.0
            },
            {
                "start_time": 11.2477273,
                "end_time": 11.4090909,
                "pitch": 39,
                "velocity": 64,
                "duration": 0.1613636,
                "tempo": 120.0
            },
            {
                "start_time": 11.4090909,
                "end_time": 11.5704545,
                "pitch": 39,
                "velocity": 64,
                "duration": 0.1613636,
                "tempo": 120.0
            },
            {
                "start_time": 11.5704545,
                "end_time": 11.7363636,
                "pitch": 46,
                "velocity": 64,
                "duration": 0.1659091,
                "tempo": 120.0
            },
            {
                "start_time": 11.7363636,
                "end_time": 11.9045455,
                "pitch": 51,
                "velocity": 64,
                "duration": 0.1681818,
                "tempo": 120.0
            },
            {
                "start_time": 11.9045455,
                "end_time": 12.0704545,
                "pitch": 41,
                "velocity": 64,
                "duration": 0.1659091,
                "tempo": 120.0
            },
            {
                "start_time": 12.0704545,
                "end_time": 12.2363636,
                "pitch": 41,
                "velocity": 64,
                "duration": 0.1659091,
                "tempo": 120.0
            },
            {
                "start_time": 12.2363636,
                "end_time": 12.4045455,
                "pitch": 48,
                "velocity": 64,
                "duration": 0.1681818,
                "tempo": 120.0
            },
            {
                "start_time": 12.2363636,
                "end_time": 12.5704545,
                "pitch": 53,
                "velocity": 64,
                "duration": 0.3340909,
                "tempo": 120.0
            },
            {
                "start_time": 12.4045455,
                "end_time": 12.5704545,
                "pitch": 53,
                "velocity": 64,
                "duration": 0.1659091,
                "tempo": 120.0
            },
            {
                "start_time": 12.5704545,
                "end_time": 12.7386364,
                "pitch": 41,
                "velocity": 64,
                "duration": 0.1681818,
                "tempo": 120.0
            },
            {
                "start_time": 12.7386364,
                "end_time": 12.8886364,
                "pitch": 41,
                "velocity": 64,
                "duration": 0.15,
                "tempo": 120.0
            },
            {
                "start_time": 12.8886364,
                "end_time": 13.0545455,
                "pitch": 48,
                "velocity": 64,
                "duration": 0.1659091,
                "tempo": 120.0
            },
            {
                "start_time": 13.0545455,
                "end_time": 13.2227273,
                "pitch": 53,
                "velocity": 64,
                "duration": 0.1681818,
                "tempo": 120.0
            },
            {
                "start_time": 13.2227273,
                "end_time": 13.3840909,
                "pitch": 43,
                "velocity": 64,
                "duration": 0.1613636,
                "tempo": 120.0
            },
            {
                "start_time": 13.3840909,
                "end_time": 13.5454545,
                "pitch": 43,
                "velocity": 64,
                "duration": 0.1613636,
                "tempo": 120.0
            },
            {
                "start_time": 13.5454545,
                "end_time": 13.7113636,
                "pitch": 43,
                "velocity": 64,
                "duration": 0.1659091,
                "tempo": 120.0
            },
            {
                "start_time": 13.7113636,
                "end_time": 13.8795455,
                "pitch": 43,
                "velocity": 64,
                "duration": 0.1681818,
                "tempo": 120.0
            },
            {
                "start_time": 13.8795455,
                "end_time": 14.05,
                "pitch": 43,
                "velocity": 64,
                "duration": 0.1704545,
                "tempo": 120.0
            },
            {
                "start_time": 14.05,
                "end_time": 14.2227273,
                "pitch": 43,
                "velocity": 64,
                "duration": 0.1727273,
                "tempo": 120.0
            },
            {
                "start_time": 14.2227273,
                "end_time": 14.3886364,
                "pitch": 43,
                "velocity": 64,
                "duration": 0.1659091,
                "tempo": 120.0
            },
            {
                "start_time": 14.3886364,
                "end_time": 14.5568182,
                "pitch": 43,
                "velocity": 64,
                "duration": 0.1681818,
                "tempo": 120.0
            },
            {
                "start_time": 14.5568182,
                "end_time": 14.7068182,
                "pitch": 43,
                "velocity": 64,
                "duration": 0.15,
                "tempo": 120.0
            },
            {
                "start_time": 14.7068182,
                "end_time": 14.8727273,
                "pitch": 43,
                "velocity": 64,
                "duration": 0.1659091,
                "tempo": 120.0
            },
            {
                "start_time": 14.8727273,
                "end_time": 15.0340909,
                "pitch": 43,
                "velocity": 64,
                "duration": 0.1613636,
                "tempo": 120.0
            },
            {
                "start_time": 15.0340909,
                "end_time": 15.1954545,
                "pitch": 43,
                "velocity": 64,
                "duration": 0.1613636,
                "tempo": 120.0
            },
            {
                "start_time": 15.1954545,
                "end_time": 15.3636364,
                "pitch": 43,
                "velocity": 64,
                "duration": 0.1681818,
                "tempo": 120.0
            },
            {
                "start_time": 15.3636364,
                "end_time": 15.5295455,
                "pitch": 43,
                "velocity": 64,
                "duration": 0.1659091,
                "tempo": 120.0
            },
            {
                "start_time": 15.5295455,
                "end_time": 15.6954545,
                "pitch": 43,
                "velocity": 64,
                "duration": 0.1659091,
                "tempo": 120.0
            },
            {
                "start_time": 0.0227273,
                "end_time": 15.8636364,
                "pitch": 31,
                "velocity": 64,
                "duration": 15.8409091,
                "tempo": 120.0
            },
            {
                "start_time": 15.6954545,
                "end_time": 15.8636364,
                "pitch": 43,
                "velocity": 64,
                "duration": 0.1681818,
                "tempo": 120.0
            },
            {
                "start_time": 11.9045455,
                "end_time": 16.0340909,
                "pitch": 39,
                "velocity": 64,
                "duration": 4.1295455,
                "tempo": 120.0
            },
            {
                "start_time": 15.8636364,
                "end_time": 16.0340909,
                "pitch": 39,
                "velocity": 64,
                "duration": 0.1704545,
                "tempo": 120.0
            },
            {
                "start_time": 16.0340909,
                "end_time": 16.2068182,
                "pitch": 39,
                "velocity": 64,
                "duration": 0.1727273,
                "tempo": 120.0
            },
            {
                "start_time": 16.2068182,
                "end_time": 16.3681818,
                "pitch": 39,
                "velocity": 64,
                "duration": 0.1613636,
                "tempo": 120.0
            },
            {
                "start_time": 16.3681818,
                "end_time": 16.5136364,
                "pitch": 39,
                "velocity": 64,
                "duration": 0.1454545,
                "tempo": 120.0
            },
            {
                "start_time": 16.5136364,
                "end_time": 16.675,
                "pitch": 39,
                "velocity": 64,
                "duration": 0.1613636,
                "tempo": 120.0
            },
            {
                "start_time": 16.675,
                "end_time": 16.8363636,
                "pitch": 39,
                "velocity": 64,
                "duration": 0.1613636,
                "tempo": 120.0
            },
            {
                "start_time": 16.8363636,
                "end_time": 17.0022727,
                "pitch": 39,
                "velocity": 64,
                "duration": 0.1659091,
                "tempo": 120.0
            },
            {
                "start_time": 17.0045455,
                "end_time": 17.1704545,
                "pitch": 39,
                "velocity": 64,
                "duration": 0.1659091,
                "tempo": 120.0
            },
            {
                "start_time": 17.1704545,
                "end_time": 17.3409091,
                "pitch": 41,
                "velocity": 64,
                "duration": 0.1704545,
                "tempo": 120.0
            },
            {
                "start_time": 17.3409091,
                "end_time": 17.5136364,
                "pitch": 41,
                "velocity": 64,
                "duration": 0.1727273,
                "tempo": 120.0
            },
            {
                "start_time": 17.5136364,
                "end_time": 17.6795455,
                "pitch": 41,
                "velocity": 64,
                "duration": 0.1659091,
                "tempo": 120.0
            },
            {
                "start_time": 17.6795455,
                "end_time": 17.8477273,
                "pitch": 41,
                "velocity": 64,
                "duration": 0.1681818,
                "tempo": 120.0
            },
            {
                "start_time": 17.8477273,
                "end_time": 18.0136364,
                "pitch": 41,
                "velocity": 64,
                "duration": 0.1659091,
                "tempo": 120.0
            },
            {
                "start_time": 18.0136364,
                "end_time": 18.1818182,
                "pitch": 41,
                "velocity": 64,
                "duration": 0.1681818,
                "tempo": 120.0
            },
            {
                "start_time": 18.1818182,
                "end_time": 18.3318182,
                "pitch": 41,
                "velocity": 64,
                "duration": 0.15,
                "tempo": 120.0
            },
            {
                "start_time": 18.3318182,
                "end_time": 18.4977273,
                "pitch": 41,
                "velocity": 64,
                "duration": 0.1659091,
                "tempo": 120.0
            },
            {
                "start_time": 13.2227273,
                "end_time": 18.4977273,
                "pitch": 53,
                "velocity": 64,
                "duration": 5.275,
                "tempo": 120.0
            },
            {
                "start_time": 18.4977273,
                "end_time": 18.6590909,
                "pitch": 43,
                "velocity": 64,
                "duration": 0.1613636,
                "tempo": 120.0
            },
            {
                "start_time": 18.6590909,
                "end_time": 18.8204545,
                "pitch": 43,
                "velocity": 64,
                "duration": 0.1613636,
                "tempo": 120.0
            },
            {
                "start_time": 18.8204545,
                "end_time": 18.9909091,
                "pitch": 43,
                "velocity": 64,
                "duration": 0.1704545,
                "tempo": 120.0
            },
            {
                "start_time": 18.9909091,
                "end_time": 19.1636364,
                "pitch": 43,
                "velocity": 64,
                "duration": 0.1727273,
                "tempo": 120.0
            },
            {
                "start_time": 19.1636364,
                "end_time": 19.325,
                "pitch": 43,
                "velocity": 64,
                "duration": 0.1613636,
                "tempo": 120.0
            },
            {
                "start_time": 19.325,
                "end_time": 19.4863636,
                "pitch": 43,
                "velocity": 64,
                "duration": 0.1613636,
                "tempo": 120.0
            },
            {
                "start_time": 19.4863636,
                "end_time": 19.6568182,
                "pitch": 43,
                "velocity": 64,
                "duration": 0.1704545,
                "tempo": 120.0
            },
            {
                "start_time": 19.6568182,
                "end_time": 19.8295455,
                "pitch": 43,
                "velocity": 64,
                "duration": 0.1727273,
                "tempo": 120.0
            },
            {
                "start_time": 19.8295455,
                "end_time": 19.9954545,
                "pitch": 43,
                "velocity": 64,
                "duration": 0.1659091,
                "tempo": 120.0
            },
            {
                "start_time": 19.9954545,
                "end_time": 20.1454545,
                "pitch": 43,
                "velocity": 64,
                "duration": 0.15,
                "tempo": 120.0
            },
            {
                "start_time": 20.1454545,
                "end_time": 20.3090909,
                "pitch": 43,
                "velocity": 64,
                "duration": 0.1636364,
                "tempo": 120.0
            },
            {
                "start_time": 20.3090909,
                "end_time": 20.4704545,
                "pitch": 43,
                "velocity": 64,
                "duration": 0.1613636,
                "tempo": 120.0
            },
            {
                "start_time": 20.4704545,
                "end_time": 20.6318182,
                "pitch": 43,
                "velocity": 64,
                "duration": 0.1613636,
                "tempo": 120.0
            },
            {
                "start_time": 20.6318182,
                "end_time": 20.7931818,
                "pitch": 43,
                "velocity": 64,
                "duration": 0.1613636,
                "tempo": 120.0
            },
            {
                "start_time": 20.7931818,
                "end_time": 20.9590909,
                "pitch": 43,
                "velocity": 64,
                "duration": 0.1659091,
                "tempo": 120.0
            },
            {
                "start_time": 15.8636364,
                "end_time": 21.1272727,
                "pitch": 31,
                "velocity": 64,
                "duration": 5.2636364,
                "tempo": 120.0
            },
            {
                "start_time": 20.9590909,
                "end_time": 21.1272727,
                "pitch": 43,
                "velocity": 64,
                "duration": 0.1681818,
                "tempo": 120.0
            },
            {
                "start_time": 17.1704545,
                "end_time": 21.2977273,
                "pitch": 39,
                "velocity": 64,
                "duration": 4.1272727,
                "tempo": 120.0
            },
            {
                "start_time": 21.1272727,
                "end_time": 21.2977273,
                "pitch": 39,
                "velocity": 64,
                "duration": 0.1704545,
                "tempo": 120.0
            },
            {
                "start_time": 21.2977273,
                "end_time": 21.4704545,
                "pitch": 39,
                "velocity": 64,
                "duration": 0.1727273,
                "tempo": 120.0
            },
            {
                "start_time": 21.4704545,
                "end_time": 21.6363636,
                "pitch": 39,
                "velocity": 64,
                "duration": 0.1659091,
                "tempo": 120.0
            },
            {
                "start_time": 21.6363636,
                "end_time": 21.8045455,
                "pitch": 39,
                "velocity": 64,
                "duration": 0.1681818,
                "tempo": 120.0
            },
            {
                "start_time": 21.8045455,
                "end_time": 21.9545455,
                "pitch": 39,
                "velocity": 64,
                "duration": 0.15,
                "tempo": 120.0
            },
            {
                "start_time": 21.9545455,
                "end_time": 22.1204545,
                "pitch": 39,
                "velocity": 64,
                "duration": 0.1659091,
                "tempo": 120.0
            },
            {
                "start_time": 22.1204545,
                "end_time": 22.2886364,
                "pitch": 39,
                "velocity": 64,
                "duration": 0.1681818,
                "tempo": 120.0
            },
            {
                "start_time": 22.2886364,
                "end_time": 22.4545455,
                "pitch": 39,
                "velocity": 64,
                "duration": 0.1659091,
                "tempo": 120.0
            },
            {
                "start_time": 22.4545455,
                "end_time": 22.6159091,
                "pitch": 41,
                "velocity": 64,
                "duration": 0.1613636,
                "tempo": 120.0
            },
            {
                "start_time": 22.6159091,
                "end_time": 22.7772727,
                "pitch": 41,
                "velocity": 64,
                "duration": 0.1613636,
                "tempo": 120.0
            },
            {
                "start_time": 22.7772727,
                "end_time": 22.9454545,
                "pitch": 41,
                "velocity": 64,
                "duration": 0.1681818,
                "tempo": 120.0
            },
            {
                "start_time": 22.9454545,
                "end_time": 23.1113636,
                "pitch": 41,
                "velocity": 64,
                "duration": 0.1659091,
                "tempo": 120.0
            },
            {
                "start_time": 23.1113636,
                "end_time": 23.2795455,
                "pitch": 41,
                "velocity": 64,
                "duration": 0.1681818,
                "tempo": 120.0
            },
            {
                "start_time": 23.2795455,
                "end_time": 23.4454545,
                "pitch": 41,
                "velocity": 64,
                "duration": 0.1659091,
                "tempo": 120.0
            },
            {
                "start_time": 23.4454545,
                "end_time": 23.6159091,
                "pitch": 41,
                "velocity": 64,
                "duration": 0.1704545,
                "tempo": 120.0
            },
            {
                "start_time": 23.6159091,
                "end_time": 23.7704545,
                "pitch": 41,
                "velocity": 64,
                "duration": 0.1545455,
                "tempo": 120.0
            },
            {
                "start_time": 23.7704545,
                "end_time": 23.9340909,
                "pitch": 38,
                "velocity": 64,
                "duration": 0.1636364,
                "tempo": 120.0
            },
            {
                "start_time": 23.9340909,
                "end_time": 24.0954545,
                "pitch": 38,
                "velocity": 64,
                "duration": 0.1613636,
                "tempo": 120.0
            },
            {
                "start_time": 24.0954545,
                "end_time": 24.2613636,
                "pitch": 38,
                "velocity": 64,
                "duration": 0.1659091,
                "tempo": 120.0
            },
            {
                "start_time": 24.2613636,
                "end_time": 24.4272727,
                "pitch": 38,
                "velocity": 64,
                "duration": 0.1659091,
                "tempo": 120.0
            },
            {
                "start_time": 24.4272727,
                "end_time": 24.5954545,
                "pitch": 38,
                "velocity": 64,
                "duration": 0.1681818,
                "tempo": 120.0
            },
            {
                "start_time": 24.5954545,
                "end_time": 24.7613636,
                "pitch": 38,
                "velocity": 64,
                "duration": 0.1659091,
                "tempo": 120.0
            },
            {
                "start_time": 24.7613636,
                "end_time": 24.9295455,
                "pitch": 38,
                "velocity": 64,
                "duration": 0.1681818,
                "tempo": 120.0
            },
            {
                "start_time": 24.9295455,
                "end_time": 25.0954545,
                "pitch": 38,
                "velocity": 64,
                "duration": 0.1659091,
                "tempo": 120.0
            },
            {
                "start_time": 25.0954545,
                "end_time": 25.2636364,
                "pitch": 38,
                "velocity": 64,
                "duration": 0.1681818,
                "tempo": 120.0
            },
            {
                "start_time": 25.2636364,
                "end_time": 25.4295455,
                "pitch": 38,
                "velocity": 64,
                "duration": 0.1659091,
                "tempo": 120.0
            },
            {
                "start_time": 25.4295455,
                "end_time": 25.5795455,
                "pitch": 38,
                "velocity": 64,
                "duration": 0.15,
                "tempo": 120.0
            },
            {
                "start_time": 25.5795455,
                "end_time": 25.7477273,
                "pitch": 38,
                "velocity": 64,
                "duration": 0.1681818,
                "tempo": 120.0
            },
            {
                "start_time": 25.7477273,
                "end_time": 25.9090909,
                "pitch": 38,
                "velocity": 64,
                "duration": 0.1613636,
                "tempo": 120.0
            },
            {
                "start_time": 25.9090909,
                "end_time": 26.0704545,
                "pitch": 38,
                "velocity": 64,
                "duration": 0.1613636,
                "tempo": 120.0
            },
            {
                "start_time": 26.0704545,
                "end_time": 26.2363636,
                "pitch": 38,
                "velocity": 64,
                "duration": 0.1659091,
                "tempo": 120.0
            },
            {
                "start_time": 26.2363636,
                "end_time": 26.4045455,
                "pitch": 38,
                "velocity": 64,
                "duration": 0.1681818,
                "tempo": 120.0
            },
            {
                "start_time": 26.4045455,
                "end_time": 26.575,
                "pitch": 43,
                "velocity": 64,
                "duration": 0.1704545,
                "tempo": 120.0
            },
            {
                "start_time": 26.575,
                "end_time": 26.7477273,
                "pitch": 43,
                "velocity": 64,
                "duration": 0.1727273,
                "tempo": 120.0
            },
            {
                "start_time": 26.7477273,
                "end_time": 26.9136364,
                "pitch": 43,
                "velocity": 64,
                "duration": 0.1659091,
                "tempo": 120.0
            },
            {
                "start_time": 26.9136364,
                "end_time": 27.0795455,
                "pitch": 43,
                "velocity": 64,
                "duration": 0.1659091,
                "tempo": 120.0
            },
            {
                "start_time": 27.0795455,
                "end_time": 27.2477273,
                "pitch": 43,
                "velocity": 64,
                "duration": 0.1681818,
                "tempo": 120.0
            },
            {
                "start_time": 27.2477273,
                "end_time": 27.4136364,
                "pitch": 43,
                "velocity": 64,
                "duration": 0.1659091,
                "tempo": 120.0
            },
            {
                "start_time": 27.4136364,
                "end_time": 27.5636364,
                "pitch": 43,
                "velocity": 64,
                "duration": 0.15,
                "tempo": 120.0
            },
            {
                "start_time": 27.5636364,
                "end_time": 27.7318182,
                "pitch": 43,
                "velocity": 64,
                "duration": 0.1681818,
                "tempo": 120.0
            },
            {
                "start_time": 27.7318182,
                "end_time": 27.8931818,
                "pitch": 43,
                "velocity": 64,
                "duration": 0.1613636,
                "tempo": 120.0
            },
            {
                "start_time": 27.8931818,
                "end_time": 28.0545455,
                "pitch": 43,
                "velocity": 64,
                "duration": 0.1613636,
                "tempo": 120.0
            },
            {
                "start_time": 28.0545455,
                "end_time": 28.2227273,
                "pitch": 43,
                "velocity": 64,
                "duration": 0.1681818,
                "tempo": 120.0
            },
            {
                "start_time": 28.2227273,
                "end_time": 28.3886364,
                "pitch": 43,
                "velocity": 64,
                "duration": 0.1659091,
                "tempo": 120.0
            },
            {
                "start_time": 21.1272727,
                "end_time": 28.5545455,
                "pitch": 31,
                "velocity": 64,
                "duration": 7.4272727,
                "tempo": 120.0
            },
            {
                "start_time": 28.3886364,
                "end_time": 28.5545455,
                "pitch": 43,
                "velocity": 64,
                "duration": 0.1659091,
                "tempo": 120.0
            },
            {
                "start_time": 28.5545455,
                "end_time": 28.7227273,
                "pitch": 36,
                "velocity": 64,
                "duration": 0.1681818,
                "tempo": 120.0
            },
            {
                "start_time": 28.7227273,
                "end_time": 28.8886364,
                "pitch": 36,
                "velocity": 64,
                "duration": 0.1659091,
                "tempo": 120.0
            },
            {
                "start_time": 28.8886364,
                "end_time": 29.0568182,
                "pitch": 37,
                "velocity": 64,
                "duration": 0.1681818,
                "tempo": 120.0
            },
            {
                "start_time": 29.0568182,
                "end_time": 29.2227273,
                "pitch": 38,
                "velocity": 64,
                "duration": 0.1659091,
                "tempo": 120.0
            },
            {
                "start_time": 22.4545455,
                "end_time": 29.3727273,
                "pitch": 39,
                "velocity": 64,
                "duration": 6.9181818,
                "tempo": 120.0
            },
            {
                "start_time": 29.2227273,
                "end_time": 29.3727273,
                "pitch": 39,
                "velocity": 64,
                "duration": 0.15,
                "tempo": 120.0
            },
            {
                "start_time": 29.3727273,
                "end_time": 29.5340909,
                "pitch": 39,
                "velocity": 64,
                "duration": 0.1613636,
                "tempo": 120.0
            },
            {
                "start_time": 29.5340909,
                "end_time": 29.6954545,
                "pitch": 39,
                "velocity": 64,
                "duration": 0.1613636,
                "tempo": 120.0
            },
            {
                "start_time": 29.6954545,
                "end_time": 29.8636364,
                "pitch": 39,
                "velocity": 64,
                "duration": 0.1681818,
                "tempo": 120.0
            },
            {
                "start_time": 29.8636364,
                "end_time": 30.0295455,
                "pitch": 39,
                "velocity": 64,
                "duration": 0.1659091,
                "tempo": 120.0
            },
            {
                "start_time": 30.0295455,
                "end_time": 30.2022727,
                "pitch": 39,
                "velocity": 64,
                "duration": 0.1727273,
                "tempo": 120.0
            },
            {
                "start_time": 30.2022727,
                "end_time": 30.3727273,
                "pitch": 39,
                "velocity": 64,
                "duration": 0.1704545,
                "tempo": 120.0
            },
            {
                "start_time": 30.3727273,
                "end_time": 30.5409091,
                "pitch": 39,
                "velocity": 64,
                "duration": 0.1681818,
                "tempo": 120.0
            },
            {
                "start_time": 30.5409091,
                "end_time": 30.7068182,
                "pitch": 39,
                "velocity": 64,
                "duration": 0.1659091,
                "tempo": 120.0
            },
            {
                "start_time": 30.7068182,
                "end_time": 30.875,
                "pitch": 39,
                "velocity": 64,
                "duration": 0.1681818,
                "tempo": 120.0
            },
            {
                "start_time": 30.875,
                "end_time": 31.0409091,
                "pitch": 39,
                "velocity": 64,
                "duration": 0.1659091,
                "tempo": 120.0
            },
            {
                "start_time": 31.0409091,
                "end_time": 31.1909091,
                "pitch": 39,
                "velocity": 64,
                "duration": 0.15,
                "tempo": 120.0
            },
            {
                "start_time": 31.1909091,
                "end_time": 31.3590909,
                "pitch": 39,
                "velocity": 64,
                "duration": 0.1681818,
                "tempo": 120.0
            },
            {
                "start_time": 31.3590909,
                "end_time": 31.525,
                "pitch": 38,
                "velocity": 64,
                "duration": 0.1659091,
                "tempo": 120.0
            },
            {
                "start_time": 31.525,
                "end_time": 31.6931818,
                "pitch": 39,
                "velocity": 64,
                "duration": 0.1681818,
                "tempo": 120.0
            },
            {
                "start_time": 31.6931818,
                "end_time": 31.8590909,
                "pitch": 40,
                "velocity": 64,
                "duration": 0.1659091,
                "tempo": 120.0
            },
            {
                "start_time": 31.8590909,
                "end_time": 31.925,
                "pitch": 41,
                "velocity": 64,
                "duration": 0.0659091,
                "tempo": 120.0
            }
        ]
    }
}