{
    "mood": "happy",
    "instruments": {
        "Electric Piano 1": [
            {
                "start_time": 6.825,
                "end_time": 6.875,
                "pitch": 72,
                "velocity": 80,
                "duration": 0.05,
                "tempo": 120.0
            },
            {
                "start_time": 7.0272727,
                "end_time": 7.0931818,
                "pitch": 72,
                "velocity": 80,
                "duration": 0.0659091,
                "tempo": 120.0
            },
            {
                "start_time": 7.1272727,
                "end_time": 7.1931818,
                "pitch": 72,
                "velocity": 80,
                "duration": 0.0659091,
                "tempo": 120.0
            },
            {
                "start_time": 7.3295455,
                "end_time": 8.2340909,
                "pitch": 72,
                "velocity": 80,
                "duration": 0.9045455,
                "tempo": 120.0
            },
            {
                "start_time": 8.4340909,
                "end_time": 8.4818182,
                "pitch": 72,
                "velocity": 80,
                "duration": 0.0477273,
                "tempo": 120.0
            },
            {
                "start_time": 8.6340909,
                "end_time": 8.7,
                "pitch": 72,
                "velocity": 80,
                "duration": 0.0659091,
                "tempo": 120.0
            },
            {
                "start_time": 8.7340909,
                "end_time": 8.8,
                "pitch": 72,
                "velocity": 80,
                "duration": 0.0659091,
                "tempo": 120.0
            },
            {
                "start_time": 8.9363636,
                "end_time": 9.0022727,
                "pitch": 72,
                "velocity": 80,
                "duration": 0.0659091,
                "tempo": 120.0
            },
            {
                "start_time": 10.0454545,
                "end_time": 10.0977273,
                "pitch": 72,
                "velocity": 80,
                "duration": 0.0522727,
                "tempo": 120.0
            },
            {
                "start_time": 10.2522727,
                "end_time": 10.3181818,
                "pitch": 72,
                "velocity": 80,
                "duration": 0.0659091,
                "tempo": 120.0
            },
            {
                "start_time": 10.3522727,
                "end_time": 10.4181818,
                "pitch": 72,
                "velocity": 80,
                "duration": 0.0659091,
                "tempo": 120.0
            },
            {
                "start_time": 10.5545455,
                "end_time": 11.4590909,
                "pitch": 72,
                "velocity": 80,
                "duration": 0.9045455,
                "tempo": 120.0
            },
            {
                "start_time": 13.2704545,
                "end_time": 13.3204545,
                "pitch": 70,
                "velocity": 80,
                "duration": 0.05,
                "tempo": 120.0
            },
            {
                "start_time": 13.4727273,
                "end_time": 13.5386364,
                "pitch": 70,
                "velocity": 80,
                "duration": 0.0659091,
                "tempo": 120.0
            },
            {
                "start_time": 13.5727273,
                "end_time": 13.6386364,
                "pitch": 70,
                "velocity": 80,
                "duration": 0.0659091,
                "tempo": 120.0
            },
            {
                "start_time": 13.775,
                "end_time": 14.6818182,
                "pitch": 70,
                "velocity": 80,
                "duration": 0.9068182,
                "tempo": 120.0
            },
            {
                "start_time": 14.8818182,
                "end_time": 14.9318182,
                "pitch": 70,
                "velocity": 80,
                "duration": 0.05,
                "tempo": 120.0
            },
            {
                "start_time": 15.0818182,
                "end_time": 15.15,
                "pitch": 70,
                "velocity": 80,
                "duration": 0.0681818,
                "tempo": 120.0
            },
            {
                "start_time": 15.1840909,
                "end_time": 15.25,
                "pitch": 70,
                "velocity": 80,
                "duration": 0.0659091,
                "tempo": 120.0
            },
            {
                "start_time": 15.3840909,
                "end_time": 15.4522727,
                "pitch": 70,
                "velocity": 80,
                "duration": 0.0681818,
                "tempo": 120.0
            },
            {
                "start_time": 16.2931818,
                "end_time": 16.5477273,
                "pitch": 70,
                "velocity": 80,
                "duration": 0.2545455,
                "tempo": 120.0
            },
            {
                "start_time": 16.7045455,
                "end_time": 16.7522727,
                "pitch": 70,
                "velocity": 80,
                "duration": 0.0477273,
                "tempo": 120.0
            },
            {
                "start_time": 16.9,
                "end_time": 17.3022727,
                "pitch": 72,
                "velocity": 80,
                "duration": 0.4022727,
                "tempo": 120.0
            },
            {
                "start_time": 17.3022727,
                "end_time": 17.5068182,
                "pitch": 72,
                "velocity": 80,
                "duration": 0.2045455,
                "tempo": 120.0
            },
            {
                "start_time": 17.5068182,
                "end_time": 17.5568182,
                "pitch": 65,
                "velocity": 80,
                "duration": 0.05,
                "tempo": 120.0
            },
            {
                "start_time": 17.5568182,
                "end_time": 17.6568182,
                "pitch": 67,
                "velocity": 80,
                "duration": 0.1,
                "tempo": 120.0
            },
            {
                "start_time": 17.6568182,
                "end_time": 17.7090909,
                "pitch": 70,
                "velocity": 80,
                "duration": 0.0522727,
                "tempo": 120.0
            },
            {
                "start_time": 17.7090909,
                "end_time": 17.8090909,
                "pitch": 72,
                "velocity": 80,
                "duration": 0.1,
                "tempo": 120.0
            },
            {
                "start_time": 17.7090909,
                "end_time": 17.9113636,
                "pitch": 76,
                "velocity": 80,
                "duration": 0.2022727,
                "tempo": 120.0
            },
            {
                "start_time": 17.8090909,
                "end_time": 17.9113636,
                "pitch": 76,
                "velocity": 80,
                "duration": 0.1022727,
                "tempo": 120.0
            },
            {
                "start_time": 17.9113636,
                "end_time": 18.3113636,
                "pitch": 78,
                "velocity": 80,
                "duration": 0.4,
                "tempo": 120.0
            },
            {
                "start_time": 18.3113636,
                "end_time": 18.3590909,
                "pitch": 79,
                "velocity": 80,
                "duration": 0.0477273,
                "tempo": 120.0
            },
            {
                "start_time": 19.7159091,
                "end_time": 19.7659091,
                "pitch": 72,
                "velocity": 80,
                "duration": 0.05,
                "tempo": 120.0
            },
            {
                "start_time": 19.9181818,
                "end_time": 19.9840909,
                "pitch": 72,
                "velocity": 80,
                "duration": 0.0659091,
                "tempo": 120.0
            },
            {
                "start_time": 20.0181818,
                "end_time": 20.0840909,
                "pitch": 72,
                "velocity": 80,
                "duration": 0.0659091,
                "tempo": 120.0
            },
            {
                "start_time": 20.2181818,
                "end_time": 21.1227273,
                "pitch": 72,
                "velocity": 80,
                "duration": 0.9045455,
                "tempo": 120.0
            },
            {
                "start_time": 21.3227273,
                "end_time": 21.3727273,
                "pitch": 72,
                "velocity": 80,
                "duration": 0.05,
                "tempo": 120.0
            },
            {
                "start_time": 21.5227273,
                "end_time": 21.5886364,
                "pitch": 72,
                "velocity": 80,
                "duration": 0.0659091,
                "tempo": 120.0
            },
            {
                "start_time": 21.625,
                "end_time": 21.6909091,
                "pitch": 72,
                "velocity": 80,
                "duration": 0.0659091,
                "tempo": 120.0
            },
            {
                "start_time": 21.825,
                "end_time": 21.8909091,
                "pitch": 72,
                "velocity": 80,
                "duration": 0.0659091,
                "tempo": 120.0
            },
            {
                "start_time": 22.9295455,
                "end_time": 22.9795455,
                "pitch": 72,
                "velocity": 80,
                "duration": 0.05,
                "tempo": 120.0
            },
            {
                "start_time": 23.1318182,
                "end_time": 23.1954545,
                "pitch": 72,
                "velocity": 80,
                "duration": 0.0636364,
                "tempo": 120.0
            },
            {
                "start_time": 23.2295455,
                "end_time": 23.2977273,
                "pitch": 72,
                "velocity": 80,
                "duration": 0.0681818,
                "tempo": 120.0
            },
            {
                "start_time": 23.4318182,
                "end_time": 24.3340909,
                "pitch": 72,
                "velocity": 80,
                "duration": 0.9022727,
                "tempo": 120.0
            },
            {
                "start_time": 26.1477273,
                "end_time": 26.1977273,
                "pitch": 70,
                "velocity": 80,
                "duration": 0.05,
                "tempo": 120.0
            },
            {
                "start_time": 26.3545455,
                "end_time": 26.4204545,
                "pitch": 70,
                "velocity": 80,
                "duration": 0.0659091,
                "tempo": 120.0
            },
            {
                "start_time": 26.4545455,
                "end_time": 26.5204545,
                "pitch": 70,
                "velocity": 80,
                "duration": 0.0659091,
                "tempo": 120.0
            },
            {
                "start_time": 26.6568182,
                "end_time": 27.5613636,
                "pitch": 70,
                "velocity": 80,
                "duration": 0.9045455,
                "tempo": 120.0
            },
            {
                "start_time": 27.7613636,
                "end_time": 27.8113636,
                "pitch": 70,
                "velocity": 80,
                "duration": 0.05,
                "tempo": 120.0
            },
            {
                "start_time": 27.9613636,
                "end_time": 28.0272727,
                "pitch": 70,
                "velocity": 80,
                "duration": 0.0659091,
                "tempo": 120.0
            },
            {
                "start_time": 28.0613636,
                "end_time": 28.1272727,
                "pitch": 70,
                "velocity": 80,
                "duration": 0.0659091,
                "tempo": 120.0
            },
            {
                "start_time": 28.2613636,
                "end_time": 28.3272727,
                "pitch": 70,
                "velocity": 80,
                "duration": 0.0659091,
                "tempo": 120.0
            },
            {
                "start_time": 29.1659091,
                "end_time": 29.4159091,
                "pitch": 70,
                "velocity": 80,
                "duration": 0.25,
                "tempo": 120.0
            },
            {
                "start_time": 29.5681818,
                "end_time": 29.6181818,
                "pitch": 70,
                "velocity": 80,
                "duration": 0.05,
                "tempo": 120.0
            },
            {
                "start_time": 29.7704545,
                "end_time": 30.1704545,
                "pitch": 72,
                "velocity": 80,
                "duration": 0.4,
                "tempo": 120.0
            },
            {
                "start_time": 30.1704545,
                "end_time": 30.3704545,
                "pitch": 72,
                "velocity": 80,
                "duration": 0.2,
                "tempo": 120.0
            },
            {
                "start_time": 30.3704545,
                "end_time": 30.4204545,
                "pitch": 65,
                "velocity": 80,
                "duration": 0.05,
                "tempo": 120.0
            },
            {
                "start_time": 30.4204545,
                "end_time": 30.5204545,
                "pitch": 67,
                "velocity": 80,
                "duration": 0.1,
                "tempo": 120.0
            },
            {
                "start_time": 30.5204545,
                "end_time": 30.5704545,
                "pitch": 70,
                "velocity": 80,
                "duration": 0.05,
                "tempo": 120.0
            },
            {
                "start_time": 30.5704545,
                "end_time": 30.6727273,
                "pitch": 72,
                "velocity": 80,
                "duration": 0.1022727,
                "tempo": 120.0
            },
            {
                "start_time": 30.5704545,
                "end_time": 30.7727273,
                "pitch": 76,
                "velocity": 80,
                "duration": 0.2022727,
                "tempo": 120.0
            },
            {
                "start_time": 30.6727273,
                "end_time": 30.7727273,
                "pitch": 76,
                "velocity": 80,
                "duration": 0.1,
                "tempo": 120.0
            },
            {
                "start_time": 30.7727273,
                "end_time": 31.1727273,
                "pitch": 78,
                "velocity": 80,
                "duration": 0.4,
                "tempo": 120.0
            },
            {
                "start_time": 31.175,
                "end_time": 31.2227273,
                "pitch": 79,
                "velocity": 80,
                "duration": 0.0477273,
                "tempo": 120.0
            },
            {
                "start_time": 32.3818182,
                "end_time": 32.7818182,
                "pitch": 78,
                "velocity": 80,
                "duration": 0.4,
                "tempo": 120.0
            },
            {
                "start_time": 32.7818182,
                "end_time": 32.8295455,
                "pitch": 79,
                "velocity": 80,
                "duration": 0.0477273,
                "tempo": 120.0
            },
            {
                "start_time": 33.9977273,
                "end_time": 34.4,
                "pitch": 78,
                "velocity": 80,
                "duration": 0.4022727,
                "tempo": 120.0
            },
            {
                "start_time": 34.4,
                "end_time": 34.4477273,
                "pitch": 79,
                "velocity": 80,
                "duration": 0.0477273,
                "tempo": 120.0
            },
            {
                "start_time": 37.2,
                "end_time": 37.6,
                "pitch": 78,
                "velocity": 80,
                "duration": 0.4,
                "tempo": 120.0
            },
            {
                "start_time": 37.6,
                "end_time": 37.65,
                "pitch": 79,
                "velocity": 80,
                "duration": 0.05,
                "tempo": 120.0
            }
        ],
        "Violin": [
            {
                "start_time": 44.8568182,
                "end_time": 45.0227273,
                "pitch": 91,
                "velocity": 40,
                "duration": 0.1659091,
                "tempo": 120.0
            },
            {
                "start_time": 44.8568182,
                "end_time": 45.0227273,
                "pitch": 103,
                "velocity": 40,
                "duration": 0.1659091,
                "tempo": 120.0
            },
            {
                "start_time": 45.0227273,
                "end_time": 45.1909091,
                "pitch": 91,
                "velocity": 40,
                "duration": 0.1681818,
                "tempo": 120.0
            },
            {
                "start_time": 45.0227273,
                "end_time": 45.1909091,
                "pitch": 103,
                "velocity": 40,
                "duration": 0.1681818,
                "tempo": 120.0
            },
            {
                "start_time": 45.1909091,
                "end_time": 45.2454545,
                "pitch": 91,
                "velocity": 40,
                "duration": 0.0545455,
                "tempo": 120.0
            }
        ],
        "Flute": [
            {
                "start_time": 3.4113636,
                "end_time": 3.8113636,
                "pitch": 79,
                "velocity": 80,
                "duration": 0.4,
                "tempo": 120.0
            },
            {
                "start_time": 3.8113636,
                "end_time": 4.2113636,
                "pitch": 78,
                "velocity": 80,
                "duration": 0.4,
                "tempo": 120.0
            },
            {
                "start_time": 4.2113636,
                "end_time": 4.3113636,
                "pitch": 77,
                "velocity": 80,
                "duration": 0.1,
                "tempo": 120.0
            },
            {
                "start_time": 4.3113636,
                "end_time": 4.4136364,
                "pitch": 77,
                "velocity": 40,
                "duration": 0.1022727,
                "tempo": 120.0
            },
            {
                "start_time": 4.4136364,
                "end_time": 4.5136364,
                "pitch": 76,
                "velocity": 80,
                "duration": 0.1,
                "tempo": 120.0
            },
            {
                "start_time": 4.5136364,
                "end_time": 4.6136364,
                "pitch": 76,
                "velocity": 40,
                "duration": 0.1,
                "tempo": 120.0
            },
            {
                "start_time": 4.6136364,
                "end_time": 4.6818182,
                "pitch": 74,
                "velocity": 80,
                "duration": 0.0681818,
                "tempo": 120.0
            },
            {
                "start_time": 4.6818182,
                "end_time": 4.7477273,
                "pitch": 74,
                "velocity": 40,
                "duration": 0.0659091,
                "tempo": 120.0
            },
            {
                "start_time": 4.7477273,
                "end_time": 4.8136364,
                "pitch": 72,
                "velocity": 80,
                "duration": 0.0659091,
                "tempo": 120.0
            },
            {
                "start_time": 4.8136364,
                "end_time": 4.8818182,
                "pitch": 72,
                "velocity": 40,
                "duration": 0.0681818,
                "tempo": 120.0
            },
            {
                "start_time": 4.8818182,
                "end_time": 4.9477273,
                "pitch": 69,
                "velocity": 80,
                "duration": 0.0659091,
                "tempo": 120.0
            },
            {
                "start_time": 4.9477273,
                "end_time": 5.0159091,
                "pitch": 69,
                "velocity": 40,
                "duration": 0.0681818,
                "tempo": 120.0
            },
            {
                "start_time": 5.0159091,
                "end_time": 5.8227273,
                "pitch": 67,
                "velocity": 64,
                "duration": 0.8068182,
                "tempo": 120.0
            },
            {
                "start_time": 42.0340909,
                "end_time": 42.4340909,
                "pitch": 79,
                "velocity": 80,
                "duration": 0.4,
                "tempo": 120.0
            },
            {
                "start_time": 42.4340909,
                "end_time": 42.8340909,
                "pitch": 78,
                "velocity": 80,
                "duration": 0.4,
                "tempo": 120.0
            },
            {
                "start_time": 42.8340909,
                "end_time": 42.9340909,
                "pitch": 77,
                "velocity": 80,
                "duration": 0.1,
                "tempo": 120.0
            },
            {
                "start_time": 42.9340909,
                "end_time": 43.0340909,
                "pitch": 77,
                "velocity": 40,
                "duration": 0.1,
                "tempo": 120.0
            },
            {
                "start_time": 43.0363636,
                "end_time": 43.1340909,
                "pitch": 76,
                "velocity": 80,
                "duration": 0.0977273,
                "tempo": 120.0
            },
            {
                "start_time": 43.1363636,
                "end_time": 43.2363636,
                "pitch": 76,
                "velocity": 40,
                "duration": 0.1,
                "tempo": 120.0
            },
            {
                "start_time": 43.2363636,
                "end_time": 43.3022727,
                "pitch": 74,
                "velocity": 80,
                "duration": 0.0659091,
                "tempo": 120.0
            },
            {
                "start_time": 43.3022727,
                "end_time": 43.3681818,
                "pitch": 74,
                "velocity": 40,
                "duration": 0.0659091,
                "tempo": 120.0
            },
            {
                "start_time": 43.3681818,
                "end_time": 43.4363636,
                "pitch": 72,
                "velocity": 80,
                "duration": 0.0681818,
                "tempo": 120.0
            },
            {
                "start_time": 43.4363636,
                "end_time": 43.5022727,
                "pitch": 72,
                "velocity": 40,
                "duration": 0.0659091,
                "tempo": 120.0
            },
            {
                "start_time": 43.5022727,
                "end_time": 43.5681818,
                "pitch": 69,
                "velocity": 80,
                "duration": 0.0659091,
                "tempo": 120.0
            },
            {
                "start_time": 43.5681818,
                "end_time": 43.6363636,
                "pitch": 69,
                "velocity": 40,
                "duration": 0.0681818,
                "tempo": 120.0
            },
            {
                "start_time": 43.6363636,
                "end_time": 44.4409091,
                "pitch": 67,
                "velocity": 64,
                "duration": 0.8045455,
                "tempo": 120.0
            }
        ],
        "Trumpet": [
            {
                "start_time": 38.8272727,
                "end_time": 42.0363636,
                "pitch": 31,
                "velocity": 80,
                "duration": 3.2090909,
                "tempo": 120.0
            },
            {
                "start_time": 42.0363636,
                "end_time": 42.4363636,
                "pitch": 43,
                "velocity": 80,
                "duration": 0.4,
                "tempo": 120.0
            },
            {
                "start_time": 42.4363636,
                "end_time": 42.8363636,
                "pitch": 42,
                "velocity": 80,
                "duration": 0.4,
                "tempo": 120.0
            },
            {
                "start_time": 42.8363636,
                "end_time": 42.9363636,
                "pitch": 41,
                "velocity": 80,
                "duration": 0.1,
                "tempo": 120.0
            },
            {
                "start_time": 42.9363636,
                "end_time": 43.0363636,
                "pitch": 41,
                "velocity": 40,
                "duration": 0.1,
                "tempo": 120.0
            },
            {
                "start_time": 43.0363636,
                "end_time": 43.1363636,
                "pitch": 40,
                "velocity": 80,
                "duration": 0.1,
                "tempo": 120.0
            },
            {
                "start_time": 43.1363636,
                "end_time": 43.2363636,
                "pitch": 40,
                "velocity": 40,
                "duration": 0.1,
                "tempo": 120.0
            },
            {
                "start_time": 43.2363636,
                "end_time": 43.3022727,
                "pitch": 38,
                "velocity": 80,
                "duration": 0.0659091,
                "tempo": 120.0
            },
            {
                "start_time": 43.3045455,
                "end_time": 43.3704545,
                "pitch": 38,
                "velocity": 40,
                "duration": 0.0659091,
                "tempo": 120.0
            },
            {
                "start_time": 43.3704545,
                "end_time": 43.4363636,
                "pitch": 36,
                "velocity": 80,
                "duration": 0.0659091,
                "tempo": 120.0
            },
            {
                "start_time": 43.4363636,
                "end_time": 43.5045455,
                "pitch": 36,
                "velocity": 40,
                "duration": 0.0681818,
                "tempo": 120.0
            },
            {
                "start_time": 43.5045455,
                "end_time": 43.5704545,
                "pitch": 33,
                "velocity": 80,
                "duration": 0.0659091,
                "tempo": 120.0
            },
            {
                "start_time": 43.5704545,
                "end_time": 43.6386364,
                "pitch": 33,
                "velocity": 40,
                "duration": 0.0681818,
                "tempo": 120.0
            },
            {
                "start_time": 43.6386364,
                "end_time": 45.2431818,
                "pitch": 31,
                "velocity": 64,
                "duration": 1.6045455,
                "tempo": 120.0
            }
        ],
        "Acoustic Bass": [
            {
                "start_time": 6.6272727,
                "end_time": 6.8272727,
                "pitch": 36,
                "velocity": 64,
                "duration": 0.2,
                "tempo": 120.0
            },
            {
                "start_time": 6.8272727,
                "end_time": 7.0272727,
                "pitch": 48,
                "velocity": 64,
                "duration": 0.2,
                "tempo": 120.0
            },
            {
                "start_time": 7.0272727,
                "end_time": 7.2272727,
                "pitch": 36,
                "velocity": 64,
                "duration": 0.2,
                "tempo": 120.0
            },
            {
                "start_time": 7.2272727,
                "end_time": 7.4295455,
                "pitch": 48,
                "velocity": 64,
                "duration": 0.2022727,
                "tempo": 120.0
            },
            {
                "start_time": 7.4295455,
                "end_time": 7.6295455,
                "pitch": 36,
                "velocity": 64,
                "duration": 0.2,
                "tempo": 120.0
            },
            {
                "start_time": 7.6318182,
                "end_time": 7.8318182,
                "pitch": 48,
                "velocity": 64,
                "duration": 0.2,
                "tempo": 120.0
            },
            {
                "start_time": 7.8340909,
                "end_time": 8.0318182,
                "pitch": 36,
                "velocity": 64,
                "duration": 0.1977273,
                "tempo": 120.0
            },
            {
                "start_time": 8.0318182,
                "end_time": 8.2340909,
                "pitch": 48,
                "velocity": 64,
                "duration": 0.2022727,
                "tempo": 120.0
            },
            {
                "start_time": 8.2340909,
                "end_time": 8.4340909,
                "pitch": 36,
                "velocity": 64,
                "duration": 0.2,
                "tempo": 120.0
            },
            {
                "start_time": 8.4340909,
                "end_time": 8.6340909,
                "pitch": 48,
                "velocity": 64,
                "duration": 0.2,
                "tempo": 120.0
            },
            {
                "start_time": 8.6340909,
                "end_time": 8.8363636,
                "pitch": 36,
                "velocity": 64,
                "duration": 0.2022727,
                "tempo": 120.0
            },
            {
                "start_time": 8.8363636,
                "end_time": 9.0363636,
                "pitch": 48,
                "velocity": 64,
                "duration": 0.2,
                "tempo": 120.0
            },
            {
                "start_time": 9.0386364,
                "end_time": 9.2409091,
                "pitch": 36,
                "velocity": 64,
                "duration": 0.2022727,
                "tempo": 120.0
            },
            {
                "start_time": 9.2431818,
                "end_time": 9.4477273,
                "pitch": 48,
                "velocity": 64,
                "duration": 0.2045455,
                "tempo": 120.0
            },
            {
                "start_time": 9.4477273,
                "end_time": 9.6431818,
                "pitch": 36,
                "velocity": 64,
                "duration": 0.1954545,
                "tempo": 120.0
            },
            {
                "start_time": 9.6431818,
                "end_time": 9.8409091,
                "pitch": 48,
                "velocity": 64,
                "duration": 0.1977273,
                "tempo": 120.0
            },
            {
                "start_time": 9.8409091,
                "end_time": 10.0454545,
                "pitch": 36,
                "velocity": 64,
                "duration": 0.2045455,
                "tempo": 120.0
            },
            {
                "start_time": 10.0477273,
                "end_time": 10.2522727,
                "pitch": 48,
                "velocity": 64,
                "duration": 0.2045455,
                "tempo": 120.0
            },
            {
                "start_time": 10.2522727,
                "end_time": 10.4545455,
                "pitch": 36,
                "velocity": 64,
                "duration": 0.2022727,
                "tempo": 120.0
            },
            {
                "start_time": 10.4545455,
                "end_time": 10.6545455,
                "pitch": 48,
                "velocity": 64,
                "duration": 0.2,
                "tempo": 120.0
            },
            {
                "start_time": 10.6568182,
                "end_time": 10.8545455,
                "pitch": 36,
                "velocity": 64,
                "duration": 0.1977273,
                "tempo": 120.0
            },
            {
                "start_time": 10.8545455,
                "end_time": 11.0545455,
                "pitch": 48,
                "velocity": 64,
                "duration": 0.2,
                "tempo": 120.0
            },
            {
                "start_time": 11.0545455,
                "end_time": 11.2568182,
                "pitch": 36,
                "velocity": 64,
                "duration": 0.2022727,
                "tempo": 120.0
            },
            {
                "start_time": 11.2568182,
                "end_time": 11.4590909,
                "pitch": 48,
                "velocity": 64,
                "duration": 0.2022727,
                "tempo": 120.0
            },
            {
                "start_time": 11.4590909,
                "end_time": 11.6590909,
                "pitch": 36,
                "velocity": 64,
                "duration": 0.2,
                "tempo": 120.0
            },
            {
                "start_time": 11.6613636,
                "end_time": 11.8636364,
                "pitch": 48,
                "velocity": 64,
                "duration": 0.2022727,
                "tempo": 120.0
            },
            {
                "start_time": 11.8636364,
                "end_time": 12.0636364,
                "pitch": 36,
                "velocity": 64,
                "duration": 0.2,
                "tempo": 120.0
            },
            {
                "start_time": 12.0636364,
                "end_time": 12.2659091,
                "pitch": 48,
                "velocity": 64,
                "duration": 0.2022727,
                "tempo": 120.0
            },
            {
                "start_time": 12.2659091,
                "end_time": 12.4659091,
                "pitch": 36,
                "velocity": 64,
                "duration": 0.2,
                "tempo": 120.0
            },
            {
                "start_time": 12.4659091,
                "end_time": 12.6681818,
                "pitch": 48,
                "velocity": 64,
                "duration": 0.2022727,
                "tempo": 120.0
            },
            {
                "start_time": 12.6681818,
                "end_time": 12.8681818,
                "pitch": 36,
                "velocity": 64,
                "duration": 0.2,
                "tempo": 120.0
            },
            {
                "start_time": 12.8681818,
                "end_time": 13.0704545,
                "pitch": 48,
                "velocity": 64,
                "duration": 0.2022727,
                "tempo": 120.0
            },
            {
                "start_time": 13.0704545,
                "end_time": 13.2704545,
                "pitch": 34,
                "velocity": 64,
                "duration": 0.2,
                "tempo": 120.0
            },
            {
                "start_time": 13.2704545,
                "end_time": 13.4727273,
                "pitch": 46,
                "velocity": 64,
                "duration": 0.2022727,
                "tempo": 120.0
            },
            {
                "start_time": 13.4727273,
                "end_time": 13.6727273,
                "pitch": 34,
                "velocity": 64,
                "duration": 0.2,
                "tempo": 120.0
            },
            {
                "start_time": 13.675,
                "end_time": 13.875,
                "pitch": 46,
                "velocity": 64,
                "duration": 0.2,
                "tempo": 120.0
            },
            {
                "start_time": 13.875,
                "end_time": 14.0772727,
                "pitch": 34,
                "velocity": 64,
                "duration": 0.2022727,
                "tempo": 120.0
            },
            {
                "start_time": 14.0772727,
                "end_time": 14.2795455,
                "pitch": 46,
                "velocity": 64,
                "duration": 0.2022727,
                "tempo": 120.0
            },
            {
                "start_time": 14.2795455,
                "end_time": 14.4795455,
                "pitch": 34,
                "velocity": 64,
                "duration": 0.2,
                "tempo": 120.0
            },
            {
                "start_time": 14.4795455,
                "end_time": 14.6818182,
                "pitch": 46,
                "velocity": 64,
                "duration": 0.2022727,
                "tempo": 120.0
            },
            {
                "start_time": 14.6818182,
                "end_time": 14.8818182,
                "pitch": 34,
                "velocity": 64,
                "duration": 0.2,
                "tempo": 120.0
            },
            {
                "start_time": 14.8818182,
                "end_time": 15.0840909,
                "pitch": 46,
                "velocity": 64,
                "duration": 0.2022727,
                "tempo": 120.0
            },
            {
                "start_time": 15.0840909,
                "end_time": 15.2840909,
                "pitch": 34,
                "velocity": 64,
                "duration": 0.2,
                "tempo": 120.0
            },
            {
                "start_time": 15.2840909,
                "end_time": 15.4863636,
                "pitch": 46,
                "velocity": 64,
                "duration": 0.2022727,
                "tempo": 120.0
            },
            {
                "start_time": 15.4863636,
                "end_time": 15.6863636,
                "pitch": 34,
                "velocity": 64,
                "duration": 0.2,
                "tempo": 120.0
            },
            {
                "start_time": 15.6863636,
                "end_time": 15.8886364,
                "pitch": 46,
                "velocity": 64,
                "duration": 0.2022727,
                "tempo": 120.0
            },
            {
                "start_time": 15.8886364,
                "end_time": 16.0909091,
                "pitch": 34,
                "velocity": 64,
                "duration": 0.2022727,
                "tempo": 120.0
            },
            {
                "start_time": 16.0909091,
                "end_time": 16.2931818,
                "pitch": 46,
                "velocity": 64,
                "duration": 0.2022727,
                "tempo": 120.0
            },
            {
                "start_time": 16.2931818,
                "end_time": 16.7045455,
                "pitch": 36,
                "velocity": 64,
                "duration": 0.4113636,
                "tempo": 120.0
            },
            {
                "start_time": 16.7045455,
                "end_time": 16.8,
                "pitch": 38,
                "velocity": 64,
                "duration": 0.0954545,
                "tempo": 120.0
            },
            {
                "start_time": 16.9,
                "end_time": 17.3022727,
                "pitch": 40,
                "velocity": 64,
                "duration": 0.4022727,
                "tempo": 120.0
            },
            {
                "start_time": 17.3022727,
                "end_time": 17.4045455,
                "pitch": 40,
                "velocity": 64,
                "duration": 0.1022727,
                "tempo": 120.0
            },
            {
                "start_time": 17.5090909,
                "end_time": 17.6068182,
                "pitch": 46,
                "velocity": 64,
                "duration": 0.0977273,
                "tempo": 120.0
            },
            {
                "start_time": 17.6068182,
                "end_time": 17.7090909,
                "pitch": 48,
                "velocity": 64,
                "duration": 0.1022727,
                "tempo": 120.0
            },
            {
                "start_time": 17.7090909,
                "end_time": 17.8090909,
                "pitch": 41,
                "velocity": 64,
                "duration": 0.1,
                "tempo": 120.0
            },
            {
                "start_time": 17.8090909,
                "end_time": 17.9113636,
                "pitch": 43,
                "velocity": 64,
                "duration": 0.1022727,
                "tempo": 120.0
            },
            {
                "start_time": 17.9113636,
                "end_time": 18.1090909,
                "pitch": 36,
                "velocity": 64,
                "duration": 0.1977273,
                "tempo": 120.0
            },
            {
                "start_time": 18.3113636,
                "end_time": 18.5113636,
                "pitch": 31,
                "velocity": 64,
                "duration": 0.2,
                "tempo": 120.0
            },
            {
                "start_time": 18.7136364,
                "end_time": 18.8113636,
                "pitch": 31,
                "velocity": 64,
                "duration": 0.0977273,
                "tempo": 120.0
            },
            {
                "start_time": 18.8113636,
                "end_time": 18.9136364,
                "pitch": 31,
                "velocity": 64,
                "duration": 0.1022727,
                "tempo": 120.0
            },
            {
                "start_time": 19.0136364,
                "end_time": 19.1136364,
                "pitch": 31,
                "velocity": 64,
                "duration": 0.1,
                "tempo": 120.0
            },
            {
                "start_time": 19.1159091,
                "end_time": 19.2136364,
                "pitch": 33,
                "velocity": 64,
                "duration": 0.0977273,
                "tempo": 120.0
            },
            {
                "start_time": 19.2159091,
                "end_time": 19.3136364,
                "pitch": 33,
                "velocity": 64,
                "duration": 0.0977273,
                "tempo": 120.0
            },
            {
                "start_time": 19.4159091,
                "end_time": 19.5181818,
                "pitch": 35,
                "velocity": 64,
                "duration": 0.1022727,
                "tempo": 120.0
            },
            {
                "start_time": 19.5181818,
                "end_time": 19.7181818,
                "pitch": 36,
                "velocity": 64,
                "duration": 0.2,
                "tempo": 120.0
            },
            {
                "start_time": 19.7181818,
                "end_time": 19.9181818,
                "pitch": 48,
                "velocity": 64,
                "duration": 0.2,
                "tempo": 120.0
            },
            {
                "start_time": 19.9204545,
                "end_time": 20.1181818,
                "pitch": 36,
                "velocity": 64,
                "duration": 0.1977273,
                "tempo": 120.0
            },
            {
                "start_time": 20.1181818,
                "end_time": 20.3181818,
                "pitch": 48,
                "velocity": 64,
                "duration": 0.2,
                "tempo": 120.0
            },
            {
                "start_time": 20.3181818,
                "end_time": 20.5181818,
                "pitch": 36,
                "velocity": 64,
                "duration": 0.2,
                "tempo": 120.0
            },
            {
                "start_time": 20.5181818,
                "end_time": 20.7204545,
                "pitch": 48,
                "velocity": 64,
                "duration": 0.2022727,
                "tempo": 120.0
            },
            {
                "start_time": 20.7204545,
                "end_time": 20.9204545,
                "pitch": 36,
                "velocity": 64,
                "duration": 0.2,
                "tempo": 120.0
            },
            {
                "start_time": 20.9204545,
                "end_time": 21.1227273,
                "pitch": 48,
                "velocity": 64,
                "duration": 0.2022727,
                "tempo": 120.0
            },
            {
                "start_time": 21.1227273,
                "end_time": 21.3227273,
                "pitch": 36,
                "velocity": 64,
                "duration": 0.2,
                "tempo": 120.0
            },
            {
                "start_time": 21.3227273,
                "end_time": 21.5227273,
                "pitch": 48,
                "velocity": 64,
                "duration": 0.2,
                "tempo": 120.0
            },
            {
                "start_time": 21.525,
                "end_time": 21.725,
                "pitch": 36,
                "velocity": 64,
                "duration": 0.2,
                "tempo": 120.0
            },
            {
                "start_time": 21.725,
                "end_time": 21.9272727,
                "pitch": 48,
                "velocity": 64,
                "duration": 0.2022727,
                "tempo": 120.0
            },
            {
                "start_time": 21.9272727,
                "end_time": 22.125,
                "pitch": 36,
                "velocity": 64,
                "duration": 0.1977273,
                "tempo": 120.0
            },
            {
                "start_time": 22.1272727,
                "end_time": 22.3272727,
                "pitch": 48,
                "velocity": 64,
                "duration": 0.2,
                "tempo": 120.0
            },
            {
                "start_time": 22.3272727,
                "end_time": 22.5272727,
                "pitch": 36,
                "velocity": 64,
                "duration": 0.2,
                "tempo": 120.0
            },
            {
                "start_time": 22.5272727,
                "end_time": 22.7272727,
                "pitch": 48,
                "velocity": 64,
                "duration": 0.2,
                "tempo": 120.0
            },
            {
                "start_time": 22.7272727,
                "end_time": 22.9295455,
                "pitch": 36,
                "velocity": 64,
                "duration": 0.2022727,
                "tempo": 120.0
            },
            {
                "start_time": 22.9295455,
                "end_time": 23.1318182,
                "pitch": 48,
                "velocity": 64,
                "duration": 0.2022727,
                "tempo": 120.0
            },
            {
                "start_time": 23.1318182,
                "end_time": 23.3318182,
                "pitch": 36,
                "velocity": 64,
                "duration": 0.2,
                "tempo": 120.0
            },
            {
                "start_time": 23.3318182,
                "end_time": 23.5318182,
                "pitch": 48,
                "velocity": 64,
                "duration": 0.2,
                "tempo": 120.0
            },
            {
                "start_time": 23.5318182,
                "end_time": 23.7318182,
                "pitch": 36,
                "velocity": 64,
                "duration": 0.2,
                "tempo": 120.0
            },
            {
                "start_time": 23.7318182,
                "end_time": 23.9340909,
                "pitch": 48,
                "velocity": 64,
                "duration": 0.2022727,
                "tempo": 120.0
            },
            {
                "start_time": 23.9340909,
                "end_time": 24.1340909,
                "pitch": 36,
                "velocity": 64,
                "duration": 0.2,
                "tempo": 120.0
            },
            {
                "start_time": 24.1340909,
                "end_time": 24.3340909,
                "pitch": 48,
                "velocity": 64,
                "duration": 0.2,
                "tempo": 120.0
            },
            {
                "start_time": 24.3363636,
                "end_time": 24.5340909,
                "pitch": 36,
                "velocity": 64,
                "duration": 0.1977273,
                "tempo": 120.0
            },
            {
                "start_time": 24.5340909,
                "end_time": 24.7340909,
                "pitch": 48,
                "velocity": 64,
                "duration": 0.2,
                "tempo": 120.0
            },
            {
                "start_time": 24.7340909,
                "end_time": 24.9363636,
                "pitch": 36,
                "velocity": 64,
                "duration": 0.2022727,
                "tempo": 120.0
            },
            {
                "start_time": 24.9363636,
                "end_time": 25.1386364,
                "pitch": 48,
                "velocity": 64,
                "duration": 0.2022727,
                "tempo": 120.0
            },
            {
                "start_time": 25.1386364,
                "end_time": 25.3431818,
                "pitch": 36,
                "velocity": 64,
                "duration": 0.2045455,
                "tempo": 120.0
            },
            {
                "start_time": 25.3431818,
                "end_time": 25.55,
                "pitch": 48,
                "velocity": 64,
                "duration": 0.2068182,
                "tempo": 120.0
            },
            {
                "start_time": 25.55,
                "end_time": 25.7454545,
                "pitch": 36,
                "velocity": 64,
                "duration": 0.1954545,
                "tempo": 120.0
            },
            {
                "start_time": 25.7454545,
                "end_time": 25.9431818,
                "pitch": 48,
                "velocity": 64,
                "duration": 0.1977273,
                "tempo": 120.0
            },
            {
                "start_time": 25.9431818,
                "end_time": 26.1477273,
                "pitch": 34,
                "velocity": 64,
                "duration": 0.2045455,
                "tempo": 120.0
            },
            {
                "start_time": 26.1477273,
                "end_time": 26.3545455,
                "pitch": 46,
                "velocity": 64,
                "duration": 0.2068182,
                "tempo": 120.0
            },
            {
                "start_time": 26.3545455,
                "end_time": 26.5545455,
                "pitch": 34,
                "velocity": 64,
                "duration": 0.2,
                "tempo": 120.0
            },
            {
                "start_time": 26.5545455,
                "end_time": 26.7568182,
                "pitch": 46,
                "velocity": 64,
                "duration": 0.2022727,
                "tempo": 120.0
            },
            {
                "start_time": 26.7568182,
                "end_time": 26.9568182,
                "pitch": 34,
                "velocity": 64,
                "duration": 0.2,
                "tempo": 120.0
            },
            {
                "start_time": 26.9568182,
                "end_time": 27.1568182,
                "pitch": 46,
                "velocity": 64,
                "duration": 0.2,
                "tempo": 120.0
            },
            {
                "start_time": 27.1568182,
                "end_time": 27.3590909,
                "pitch": 34,
                "velocity": 64,
                "duration": 0.2022727,
                "tempo": 120.0
            },
            {
                "start_time": 27.3590909,
                "end_time": 27.5613636,
                "pitch": 46,
                "velocity": 64,
                "duration": 0.2022727,
                "tempo": 120.0
            },
            {
                "start_time": 27.5613636,
                "end_time": 27.7613636,
                "pitch": 34,
                "velocity": 64,
                "duration": 0.2,
                "tempo": 120.0
            },
            {
                "start_time": 27.7613636,
                "end_time": 27.9613636,
                "pitch": 46,
                "velocity": 64,
                "duration": 0.2,
                "tempo": 120.0
            },
            {
                "start_time": 27.9613636,
                "end_time": 28.1613636,
                "pitch": 34,
                "velocity": 64,
                "duration": 0.2,
                "tempo": 120.0
            },
            {
                "start_time": 28.1613636,
                "end_time": 28.3613636,
                "pitch": 46,
                "velocity": 64,
                "duration": 0.2,
                "tempo": 120.0
            },
            {
                "start_time": 28.3613636,
                "end_time": 28.5636364,
                "pitch": 34,
                "velocity": 64,
                "duration": 0.2022727,
                "tempo": 120.0
            },
            {
                "start_time": 28.5636364,
                "end_time": 28.7659091,
                "pitch": 46,
                "velocity": 64,
                "duration": 0.2022727,
                "tempo": 120.0
            },
            {
                "start_time": 28.7659091,
                "end_time": 28.9636364,
                "pitch": 34,
                "velocity": 64,
                "duration": 0.1977273,
                "tempo": 120.0
            },
            {
                "start_time": 28.9659091,
                "end_time": 29.1659091,
                "pitch": 46,
                "velocity": 64,
                "duration": 0.2,
                "tempo": 120.0
            },
            {
                "start_time": 29.1681818,
                "end_time": 29.5704545,
                "pitch": 36,
                "velocity": 64,
                "duration": 0.4022727,
                "tempo": 120.0
            },
            {
                "start_time": 29.5704545,
                "end_time": 29.6681818,
                "pitch": 38,
                "velocity": 64,
                "duration": 0.0977273,
                "tempo": 120.0
            },
            {
                "start_time": 29.7704545,
                "end_time": 30.1704545,
                "pitch": 40,
                "velocity": 64,
                "duration": 0.4,
                "tempo": 120.0
            },
            {
                "start_time": 30.1704545,
                "end_time": 30.2681818,
                "pitch": 40,
                "velocity": 64,
                "duration": 0.0977273,
                "tempo": 120.0
            },
            {
                "start_time": 30.3704545,
                "end_time": 30.4704545,
                "pitch": 46,
                "velocity": 64,
                "duration": 0.1,
                "tempo": 120.0
            },
            {
                "start_time": 17.6068182,
                "end_time": 30.4704545,
                "pitch": 52,
                "velocity": 64,
                "duration": 12.8636364,
                "tempo": 120.0
            },
            {
                "start_time": 30.4704545,
                "end_time": 30.5704545,
                "pitch": 48,
                "velocity": 64,
                "duration": 0.1,
                "tempo": 120.0
            },
            {
                "start_time": 17.7090909,
                "end_time": 30.5704545,
                "pitch": 53,
                "velocity": 64,
                "duration": 12.8613636,
                "tempo": 120.0
            },
            {
                "start_time": 17.8090909,
                "end_time": 30.6727273,
                "pitch": 0,
                "velocity": 64,
                "duration": 12.8636364,
                "tempo": 120.0
            },
            {
                "start_time": 30.5704545,
                "end_time": 30.6727273,
                "pitch": 41,
                "velocity": 64,
                "duration": 0.1022727,
                "tempo": 120.0
            },
            {
                "start_time": 30.6727273,
                "end_time": 30.775,
                "pitch": 43,
                "velocity": 64,
                "duration": 0.1022727,
                "tempo": 120.0
            },
            {
                "start_time": 30.775,
                "end_time": 30.9727273,
                "pitch": 36,
                "velocity": 64,
                "duration": 0.1977273,
                "tempo": 120.0
            },
            {
                "start_time": 31.175,
                "end_time": 31.375,
                "pitch": 31,
                "velocity": 64,
                "duration": 0.2,
                "tempo": 120.0
            },
            {
                "start_time": 31.5772727,
                "end_time": 31.6795455,
                "pitch": 31,
                "velocity": 64,
                "duration": 0.1022727,
                "tempo": 120.0
            },
            {
                "start_time": 31.6795455,
                "end_time": 31.7818182,
                "pitch": 31,
                "velocity": 64,
                "duration": 0.1022727,
                "tempo": 120.0
            },
            {
                "start_time": 31.8840909,
                "end_time": 31.9886364,
                "pitch": 31,
                "velocity": 64,
                "duration": 0.1045455,
                "tempo": 120.0
            },
            {
                "start_time": 31.9886364,
                "end_time": 32.0863636,
                "pitch": 33,
                "velocity": 64,
                "duration": 0.0977273,
                "tempo": 120.0
            },
            {
                "start_time": 32.0863636,
                "end_time": 32.1840909,
                "pitch": 33,
                "velocity": 64,
                "duration": 0.0977273,
                "tempo": 120.0
            },
            {
                "start_time": 32.2818182,
                "end_time": 32.3818182,
                "pitch": 35,
                "velocity": 64,
                "duration": 0.1,
                "tempo": 120.0
            },
            {
                "start_time": 32.3840909,
                "end_time": 32.5795455,
                "pitch": 36,
                "velocity": 64,
                "duration": 0.1954545,
                "tempo": 120.0
            },
            {
                "start_time": 32.7818182,
                "end_time": 32.9818182,
                "pitch": 31,
                "velocity": 64,
                "duration": 0.2,
                "tempo": 120.0
            },
            {
                "start_time": 33.1863636,
                "end_time": 33.2863636,
                "pitch": 31,
                "velocity": 64,
                "duration": 0.1,
                "tempo": 120.0
            },
            {
                "start_time": 33.2863636,
                "end_time": 33.3886364,
                "pitch": 31,
                "velocity": 64,
                "duration": 0.1022727,
                "tempo": 120.0
            },
            {
                "start_time": 33.4931818,
                "end_time": 33.5954545,
                "pitch": 31,
                "velocity": 64,
                "duration": 0.1022727,
                "tempo": 120.0
            },
            {
                "start_time": 33.5954545,
                "end_time": 33.6954545,
                "pitch": 33,
                "velocity": 64,
                "duration": 0.1,
                "tempo": 120.0
            },
            {
                "start_time": 33.6954545,
                "end_time": 33.7954545,
                "pitch": 33,
                "velocity": 64,
                "duration": 0.1,
                "tempo": 120.0
            },
            {
                "start_time": 33.8954545,
                "end_time": 33.9977273,
                "pitch": 35,
                "velocity": 64,
                "duration": 0.1022727,
                "tempo": 120.0
            },
            {
                "start_time": 34.0,
                "end_time": 34.1977273,
                "pitch": 36,
                "velocity": 64,
                "duration": 0.1977273,
                "tempo": 120.0
            },
            {
                "start_time": 34.4,
                "end_time": 34.6,
                "pitch": 31,
                "velocity": 64,
                "duration": 0.2,
                "tempo": 120.0
            },
            {
                "start_time": 34.8022727,
                "end_time": 34.9,
                "pitch": 31,
                "velocity": 64,
                "duration": 0.0977273,
                "tempo": 120.0
            },
            {
                "start_time": 34.9,
                "end_time": 35.0,
                "pitch": 31,
                "velocity": 64,
                "duration": 0.1,
                "tempo": 120.0
            },
            {
                "start_time": 35.1,
                "end_time": 35.2,
                "pitch": 31,
                "velocity": 64,
                "duration": 0.1,
                "tempo": 120.0
            },
            {
                "start_time": 35.2,
                "end_time": 35.3,
                "pitch": 33,
                "velocity": 64,
                "duration": 0.1,
                "tempo": 120.0
            },
            {
                "start_time": 35.3,
                "end_time": 35.4,
                "pitch": 33,
                "velocity": 64,
                "duration": 0.1,
                "tempo": 120.0
            },
            {
                "start_time": 35.5,
                "end_time": 35.6022727,
                "pitch": 35,
                "velocity": 64,
                "duration": 0.1022727,
                "tempo": 120.0
            },
            {
                "start_time": 37.2,
                "end_time": 37.3977273,
                "pitch": 36,
                "velocity": 64,
                "duration": 0.1977273,
                "tempo": 120.0
            },
            {
                "start_time": 37.6,
                "end_time": 37.8045455,
                "pitch": 31,
                "velocity": 64,
                "duration": 0.2045455,
                "tempo": 120.0
            },
            {
                "start_time": 38.0113636,
                "end_time": 38.1113636,
                "pitch": 31,
                "velocity": 64,
                "duration": 0.1,
                "tempo": 120.0
            },
            {
                "start_time": 38.1113636,
                "end_time": 38.2113636,
                "pitch": 31,
                "velocity": 64,
                "duration": 0.1,
                "tempo": 120.0
            },
            {
                "start_time": 38.3136364,
                "end_time": 38.4136364,
                "pitch": 31,
                "velocity": 64,
                "duration": 0.1,
                "tempo": 120.0
            },
            {
                "start_time": 38.4136364,
                "end_time": 38.5159091,
                "pitch": 33,
                "velocity": 64,
                "duration": 0.1022727,
                "tempo": 120.0
            },
            {
                "start_time": 38.5159091,
                "end_time": 38.6181818,
                "pitch": 33,
                "velocity": 64,
                "duration": 0.1022727,
                "tempo": 120.0
            },
            {
                "start_time": 38.7227273,
                "end_time": 38.8272727,
                "pitch": 35,
                "velocity": 64,
                "duration": 0.1045455,
                "tempo": 120.0
            },
            {
                "start_time": 45.2431818,
                "end_time": 45.2454545,
                "pitch": 36,
                "velocity": 64,
                "duration": 0.0022727,
                "tempo": 120.0
            }
        ]
    }
}