{
    "mood": "happy",
    "instruments": {
        "French Horn": [
            {
                "start_time": 0.6,
                "end_time": 1.1931818,
                "pitch": 74,
                "velocity": 127,
                "duration": 0.5931818,
                "tempo": 120.0
            },
            {
                "start_time": 1.1931818,
                "end_time": 1.7636364,
                "pitch": 72,
                "velocity": 127,
                "duration": 0.5704545,
                "tempo": 120.0
            },
            {
                "start_time": 1.7636364,
                "end_time": 2.3340909,
                "pitch": 67,
                "velocity": 127,
                "duration": 0.5704545,
                "tempo": 120.0
            },
            {
                "start_time": 2.3340909,
                "end_time": 2.9386364,
                "pitch": 70,
                "velocity": 127,
                "duration": 0.6045455,
                "tempo": 120.0
            },
            {
                "start_time": 2.9386364,
                "end_time": 4.2772727,
                "pitch": 69,
                "velocity": 127,
                "duration": 1.3386364,
                "tempo": 120.0
            },
            {
                "start_time": 4.2772727,
                "end_time": 5.8840909,
                "pitch": 65,
                "velocity": 127,
                "duration": 1.6068182,
                "tempo": 120.0
            },
            {
                "start_time": 5.8840909,
                "end_time": 6.0454545,
                "pitch": 69,
                "velocity": 127,
                "duration": 0.1613636,
                "tempo": 120.0
            },
            {
                "start_time": 6.0454545,
                "end_time": 6.2454545,
                "pitch": 67,
                "velocity": 127,
                "duration": 0.2,
                "tempo": 120.0
            },
            {
                "start_time": 6.2454545,
                "end_time": 6.8181818,
                "pitch": 67,
                "velocity": 127,
                "duration": 0.5727273,
                "tempo": 120.0
            },
            {
                "start_time": 6.8181818,
                "end_time": 7.4227273,
                "pitch": 64,
                "velocity": 127,
                "duration": 0.6045455,
                "tempo": 120.0
            },
            {
                "start_time": 7.4227273,
                "end_time": 8.0181818,
                "pitch": 60,
                "velocity": 127,
                "duration": 0.5954545,
                "tempo": 120.0
            },
            {
                "start_time": 8.0181818,
                "end_time": 8.5545455,
                "pitch": 70,
                "velocity": 127,
                "duration": 0.5363636,
                "tempo": 120.0
            },
            {
                "start_time": 8.5545455,
                "end_time": 8.9568182,
                "pitch": 69,
                "velocity": 127,
                "duration": 0.4022727,
                "tempo": 120.0
            },
            {
                "start_time": 8.9568182,
                "end_time": 9.1590909,
                "pitch": 67,
                "velocity": 127,
                "duration": 0.2022727,
                "tempo": 120.0
            },
            {
                "start_time": 9.1590909,
                "end_time": 10.7204545,
                "pitch": 69,
                "velocity": 127,
                "duration": 1.5613636,
                "tempo": 120.0
            },
            {
                "start_time": 10.7204545,
                "end_time": 12.4727273,
                "pitch": 64,
                "velocity": 127,
                "duration": 1.7522727,
                "tempo": 120.0
            },
            {
                "start_time": 12.4727273,
                "end_time": 13.0454545,
                "pitch": 69,
                "velocity": 127,
                "duration": 0.5727273,
                "tempo": 120.0
            },
            {
                "start_time": 13.0454545,
                "end_time": 13.65,
                "pitch": 74,
                "velocity": 127,
                "duration": 0.6045455,
                "tempo": 120.0
            },
            {
                "start_time": 13.6590909,
                "end_time": 14.2522727,
                "pitch": 72,
                "velocity": 127,
                "duration": 0.5931818,
                "tempo": 120.0
            },
            {
                "start_time": 14.2522727,
                "end_time": 14.2636364,
                "pitch": 76,
                "velocity": 127,
                "duration": 0.0113636,
                "tempo": 120.0
            },
            {
                "start_time": 14.2636364,
                "end_time": 14.7954545,
                "pitch": 76,
                "velocity": 127,
                "duration": 0.5318182,
                "tempo": 120.0
            },
            {
                "start_time": 14.7954545,
                "end_time": 15.1977273,
                "pitch": 74,
                "velocity": 127,
                "duration": 0.4022727,
                "tempo": 120.0
            },
            {
                "start_time": 15.1977273,
                "end_time": 16.95,
                "pitch": 76,
                "velocity": 127,
                "duration": 1.7522727,
                "tempo": 120.0
            },
            {
                "start_time": 16.95,
                "end_time": 18.3386364,
                "pitch": 72,
                "velocity": 127,
                "duration": 1.3886364,
                "tempo": 120.0
            },
            {
                "start_time": 18.3386364,
                "end_time": 18.7090909,
                "pitch": 76,
                "velocity": 127,
                "duration": 0.3704545,
                "tempo": 120.0
            },
            {
                "start_time": 18.7090909,
                "end_time": 19.2772727,
                "pitch": 77,
                "velocity": 127,
                "duration": 0.5681818,
                "tempo": 120.0
            },
            {
                "start_time": 19.2772727,
                "end_time": 19.8818182,
                "pitch": 76,
                "velocity": 127,
                "duration": 0.6045455,
                "tempo": 120.0
            },
            {
                "start_time": 19.8818182,
                "end_time": 20.2818182,
                "pitch": 74,
                "velocity": 127,
                "duration": 0.4,
                "tempo": 120.0
            },
            {
                "start_time": 20.2818182,
                "end_time": 20.8431818,
                "pitch": 79,
                "velocity": 127,
                "duration": 0.5613636,
                "tempo": 120.0
            },
            {
                "start_time": 20.8431818,
                "end_time": 21.4159091,
                "pitch": 77,
                "velocity": 127,
                "duration": 0.5727273,
                "tempo": 120.0
            },
            {
                "start_time": 21.4159091,
                "end_time": 21.8068182,
                "pitch": 76,
                "velocity": 127,
                "duration": 0.3909091,
                "tempo": 120.0
            },
            {
                "start_time": 21.8068182,
                "end_time": 23.1659091,
                "pitch": 74,
                "velocity": 127,
                "duration": 1.3590909,
                "tempo": 120.0
            },
            {
                "start_time": 23.1659091,
                "end_time": 24.9272727,
                "pitch": 73,
                "velocity": 127,
                "duration": 1.7613636,
                "tempo": 120.0
            },
            {
                "start_time": 24.9272727,
                "end_time": 26.5,
                "pitch": 74,
                "velocity": 127,
                "duration": 1.5727273,
                "tempo": 120.0
            },
            {
                "start_time": 26.5,
                "end_time": 27.2613636,
                "pitch": 77,
                "velocity": 127,
                "duration": 0.7613636,
                "tempo": 120.0
            },
            {
                "start_time": 27.2613636,
                "end_time": 28.0340909,
                "pitch": 81,
                "velocity": 127,
                "duration": 0.7727273,
                "tempo": 120.0
            },
            {
                "start_time": 28.0340909,
                "end_time": 29.3886364,
                "pitch": 79,
                "velocity": 127,
                "duration": 1.3545455,
                "tempo": 120.0
            },
            {
                "start_time": 29.3886364,
                "end_time": 30.7727273,
                "pitch": 76,
                "velocity": 127,
                "duration": 1.3840909,
                "tempo": 120.0
            },
            {
                "start_time": 30.7727273,
                "end_time": 30.9727273,
                "pitch": 74,
                "velocity": 127,
                "duration": 0.2,
                "tempo": 120.0
            },
            {
                "start_time": 30.9727273,
                "end_time": 31.175,
                "pitch": 76,
                "velocity": 127,
                "duration": 0.2022727,
                "tempo": 120.0
            },
            {
                "start_time": 31.175,
                "end_time": 31.7295455,
                "pitch": 77,
                "velocity": 127,
                "duration": 0.5545455,
                "tempo": 120.0
            },
            {
                "start_time": 31.7295455,
                "end_time": 32.3181818,
                "pitch": 76,
                "velocity": 127,
                "duration": 0.5886364,
                "tempo": 120.0
            },
            {
                "start_time": 32.3181818,
                "end_time": 32.7181818,
                "pitch": 74,
                "velocity": 127,
                "duration": 0.4,
                "tempo": 120.0
            },
            {
                "start_time": 32.7181818,
                "end_time": 33.3181818,
                "pitch": 79,
                "velocity": 127,
                "duration": 0.6,
                "tempo": 120.0
            },
            {
                "start_time": 33.3181818,
                "end_time": 33.8568182,
                "pitch": 77,
                "velocity": 127,
                "duration": 0.5386364,
                "tempo": 120.0
            },
            {
                "start_time": 33.8568182,
                "end_time": 34.2568182,
                "pitch": 76,
                "velocity": 127,
                "duration": 0.4,
                "tempo": 120.0
            },
            {
                "start_time": 34.2568182,
                "end_time": 35.6181818,
                "pitch": 74,
                "velocity": 127,
                "duration": 1.3613636,
                "tempo": 120.0
            },
            {
                "start_time": 35.6181818,
                "end_time": 37.3818182,
                "pitch": 73,
                "velocity": 127,
                "duration": 1.7636364,
                "tempo": 120.0
            },
            {
                "start_time": 37.3818182,
                "end_time": 38.325,
                "pitch": 81,
                "velocity": 127,
                "duration": 0.9431818,
                "tempo": 120.0
            },
            {
                "start_time": 38.325,
                "end_time": 38.525,
                "pitch": 81,
                "velocity": 127,
                "duration": 0.2,
                "tempo": 120.0
            },
            {
                "start_time": 38.525,
                "end_time": 38.725,
                "pitch": 79,
                "velocity": 127,
                "duration": 0.2,
                "tempo": 120.0
            },
            {
                "start_time": 38.725,
                "end_time": 39.6977273,
                "pitch": 77,
                "velocity": 127,
                "duration": 0.9727273,
                "tempo": 120.0
            },
            {
                "start_time": 39.6977273,
                "end_time": 39.9386364,
                "pitch": 77,
                "velocity": 127,
                "duration": 0.2409091,
                "tempo": 120.0
            },
            {
                "start_time": 39.9386364,
                "end_time": 40.1977273,
                "pitch": 79,
                "velocity": 127,
                "duration": 0.2590909,
                "tempo": 120.0
            },
            {
                "start_time": 40.1977273,
                "end_time": 40.4681818,
                "pitch": 81,
                "velocity": 127,
                "duration": 0.2704545,
                "tempo": 120.0
            },
            {
                "start_time": 40.4681818,
                "end_time": 41.8295455,
                "pitch": 76,
                "velocity": 127,
                "duration": 1.3613636,
                "tempo": 120.0
            },
            {
                "start_time": 41.8295455,
                "end_time": 43.2022727,
                "pitch": 72,
                "velocity": 127,
                "duration": 1.3727273,
                "tempo": 120.0
            },
            {
                "start_time": 43.2022727,
                "end_time": 43.4022727,
                "pitch": 74,
                "velocity": 127,
                "duration": 0.2,
                "tempo": 120.0
            },
            {
                "start_time": 43.4022727,
                "end_time": 43.6022727,
                "pitch": 76,
                "velocity": 127,
                "duration": 0.2,
                "tempo": 120.0
            },
            {
                "start_time": 43.6022727,
                "end_time": 44.15,
                "pitch": 77,
                "velocity": 127,
                "duration": 0.5477273,
                "tempo": 120.0
            },
            {
                "start_time": 44.15,
                "end_time": 44.7363636,
                "pitch": 76,
                "velocity": 127,
                "duration": 0.5863636,
                "tempo": 120.0
            },
            {
                "start_time": 44.7363636,
                "end_time": 45.1386364,
                "pitch": 74,
                "velocity": 127,
                "duration": 0.4022727,
                "tempo": 120.0
            },
            {
                "start_time": 45.1386364,
                "end_time": 45.7386364,
                "pitch": 82,
                "velocity": 127,
                "duration": 0.6,
                "tempo": 120.0
            },
            {
                "start_time": 45.7386364,
                "end_time": 46.3090909,
                "pitch": 81,
                "velocity": 127,
                "duration": 0.5704545,
                "tempo": 120.0
            },
            {
                "start_time": 46.3090909,
                "end_time": 46.6795455,
                "pitch": 79,
                "velocity": 127,
                "duration": 0.3704545,
                "tempo": 120.0
            },
            {
                "start_time": 46.6795455,
                "end_time": 48.0795455,
                "pitch": 81,
                "velocity": 127,
                "duration": 1.4,
                "tempo": 120.0
            },
            {
                "start_time": 48.0795455,
                "end_time": 49.8204545,
                "pitch": 76,
                "velocity": 127,
                "duration": 1.7409091,
                "tempo": 120.0
            },
            {
                "start_time": 49.8204545,
                "end_time": 50.1818182,
                "pitch": 69,
                "velocity": 127,
                "duration": 0.3613636,
                "tempo": 120.0
            }
        ],
        "Harpsichord": [
            {
                "start_time": 0.4,
                "end_time": 0.8,
                "pitch": 60,
                "velocity": 101,
                "duration": 0.4,
                "tempo": 120.0
            },
            {
                "start_time": 0.8,
                "end_time": 0.9954545,
                "pitch": 60,
                "velocity": 101,
                "duration": 0.1954545,
                "tempo": 120.0
            },
            {
                "start_time": 0.9954545,
                "end_time": 1.3931818,
                "pitch": 62,
                "velocity": 101,
                "duration": 0.3977273,
                "tempo": 120.0
            },
            {
                "start_time": 1.3931818,
                "end_time": 1.7636364,
                "pitch": 62,
                "velocity": 101,
                "duration": 0.3704545,
                "tempo": 120.0
            },
            {
                "start_time": 1.7636364,
                "end_time": 1.9636364,
                "pitch": 62,
                "velocity": 101,
                "duration": 0.2,
                "tempo": 120.0
            },
            {
                "start_time": 1.9636364,
                "end_time": 2.3340909,
                "pitch": 60,
                "velocity": 101,
                "duration": 0.3704545,
                "tempo": 120.0
            },
            {
                "start_time": 2.3340909,
                "end_time": 2.5363636,
                "pitch": 60,
                "velocity": 101,
                "duration": 0.2022727,
                "tempo": 120.0
            },
            {
                "start_time": 2.5363636,
                "end_time": 2.9386364,
                "pitch": 62,
                "velocity": 101,
                "duration": 0.4022727,
                "tempo": 120.0
            },
            {
                "start_time": 2.9386364,
                "end_time": 3.5386364,
                "pitch": 64,
                "velocity": 101,
                "duration": 0.6,
                "tempo": 120.0
            },
            {
                "start_time": 3.5386364,
                "end_time": 3.9068182,
                "pitch": 62,
                "velocity": 101,
                "duration": 0.3681818,
                "tempo": 120.0
            },
            {
                "start_time": 3.9068182,
                "end_time": 4.0931818,
                "pitch": 62,
                "velocity": 101,
                "duration": 0.1863636,
                "tempo": 120.0
            },
            {
                "start_time": 4.0931818,
                "end_time": 4.4772727,
                "pitch": 64,
                "velocity": 101,
                "duration": 0.3840909,
                "tempo": 120.0
            },
            {
                "start_time": 4.4772727,
                "end_time": 4.8795455,
                "pitch": 64,
                "velocity": 101,
                "duration": 0.4022727,
                "tempo": 120.0
            },
            {
                "start_time": 4.8795455,
                "end_time": 5.0818182,
                "pitch": 64,
                "velocity": 101,
                "duration": 0.2022727,
                "tempo": 120.0
            },
            {
                "start_time": 5.0818182,
                "end_time": 5.4818182,
                "pitch": 62,
                "velocity": 101,
                "duration": 0.4,
                "tempo": 120.0
            },
            {
                "start_time": 5.4818182,
                "end_time": 5.6818182,
                "pitch": 62,
                "velocity": 101,
                "duration": 0.2,
                "tempo": 120.0
            },
            {
                "start_time": 5.6818182,
                "end_time": 6.0454545,
                "pitch": 64,
                "velocity": 101,
                "duration": 0.3636364,
                "tempo": 120.0
            },
            {
                "start_time": 6.0454545,
                "end_time": 6.6159091,
                "pitch": 62,
                "velocity": 101,
                "duration": 0.5704545,
                "tempo": 120.0
            },
            {
                "start_time": 6.6159091,
                "end_time": 7.0181818,
                "pitch": 60,
                "velocity": 101,
                "duration": 0.4022727,
                "tempo": 120.0
            },
            {
                "start_time": 7.0181818,
                "end_time": 7.2204545,
                "pitch": 60,
                "velocity": 101,
                "duration": 0.2022727,
                "tempo": 120.0
            },
            {
                "start_time": 7.2204545,
                "end_time": 7.6227273,
                "pitch": 62,
                "velocity": 101,
                "duration": 0.4022727,
                "tempo": 120.0
            },
            {
                "start_time": 7.6227273,
                "end_time": 8.0272727,
                "pitch": 62,
                "velocity": 101,
                "duration": 0.4045455,
                "tempo": 120.0
            },
            {
                "start_time": 8.0272727,
                "end_time": 8.1840909,
                "pitch": 62,
                "velocity": 101,
                "duration": 0.1568182,
                "tempo": 120.0
            },
            {
                "start_time": 8.1840909,
                "end_time": 8.5545455,
                "pitch": 60,
                "velocity": 101,
                "duration": 0.3704545,
                "tempo": 120.0
            },
            {
                "start_time": 8.5545455,
                "end_time": 8.7568182,
                "pitch": 60,
                "velocity": 101,
                "duration": 0.2022727,
                "tempo": 120.0
            },
            {
                "start_time": 8.7568182,
                "end_time": 9.1590909,
                "pitch": 62,
                "velocity": 101,
                "duration": 0.4022727,
                "tempo": 120.0
            },
            {
                "start_time": 9.3590909,
                "end_time": 9.5613636,
                "pitch": 64,
                "velocity": 101,
                "duration": 0.2022727,
                "tempo": 120.0
            },
            {
                "start_time": 9.5613636,
                "end_time": 9.7636364,
                "pitch": 64,
                "velocity": 101,
                "duration": 0.2022727,
                "tempo": 120.0
            },
            {
                "start_time": 9.9636364,
                "end_time": 10.1636364,
                "pitch": 64,
                "velocity": 101,
                "duration": 0.2,
                "tempo": 120.0
            },
            {
                "start_time": 10.1636364,
                "end_time": 10.3340909,
                "pitch": 64,
                "velocity": 101,
                "duration": 0.1704545,
                "tempo": 120.0
            },
            {
                "start_time": 10.5363636,
                "end_time": 10.7204545,
                "pitch": 64,
                "velocity": 101,
                "duration": 0.1840909,
                "tempo": 120.0
            },
            {
                "start_time": 10.7204545,
                "end_time": 10.9068182,
                "pitch": 64,
                "velocity": 101,
                "duration": 0.1863636,
                "tempo": 120.0
            },
            {
                "start_time": 11.1068182,
                "end_time": 11.3068182,
                "pitch": 64,
                "velocity": 101,
                "duration": 0.2,
                "tempo": 120.0
            },
            {
                "start_time": 11.3068182,
                "end_time": 11.5068182,
                "pitch": 64,
                "velocity": 101,
                "duration": 0.2,
                "tempo": 120.0
            },
            {
                "start_time": 11.7090909,
                "end_time": 11.9090909,
                "pitch": 70,
                "velocity": 101,
                "duration": 0.2,
                "tempo": 120.0
            },
            {
                "start_time": 11.9090909,
                "end_time": 12.1113636,
                "pitch": 69,
                "velocity": 101,
                "duration": 0.2022727,
                "tempo": 120.0
            },
            {
                "start_time": 12.1113636,
                "end_time": 12.2818182,
                "pitch": 67,
                "velocity": 101,
                "duration": 0.1704545,
                "tempo": 120.0
            },
            {
                "start_time": 12.2818182,
                "end_time": 12.4840909,
                "pitch": 64,
                "velocity": 101,
                "duration": 0.2022727,
                "tempo": 120.0
            },
            {
                "start_time": 12.4840909,
                "end_time": 12.8545455,
                "pitch": 62,
                "velocity": 101,
                "duration": 0.3704545,
                "tempo": 120.0
            },
            {
                "start_time": 12.8545455,
                "end_time": 13.2568182,
                "pitch": 60,
                "velocity": 101,
                "duration": 0.4022727,
                "tempo": 120.0
            },
            {
                "start_time": 13.2568182,
                "end_time": 13.4568182,
                "pitch": 60,
                "velocity": 101,
                "duration": 0.2,
                "tempo": 120.0
            },
            {
                "start_time": 13.4568182,
                "end_time": 13.8613636,
                "pitch": 62,
                "velocity": 101,
                "duration": 0.4045455,
                "tempo": 120.0
            },
            {
                "start_time": 13.8613636,
                "end_time": 14.2636364,
                "pitch": 62,
                "velocity": 101,
                "duration": 0.4022727,
                "tempo": 120.0
            },
            {
                "start_time": 14.2636364,
                "end_time": 14.425,
                "pitch": 62,
                "velocity": 101,
                "duration": 0.1613636,
                "tempo": 120.0
            },
            {
                "start_time": 14.425,
                "end_time": 14.7954545,
                "pitch": 60,
                "velocity": 101,
                "duration": 0.3704545,
                "tempo": 120.0
            },
            {
                "start_time": 14.7954545,
                "end_time": 14.9954545,
                "pitch": 60,
                "velocity": 101,
                "duration": 0.2,
                "tempo": 120.0
            },
            {
                "start_time": 14.9954545,
                "end_time": 15.3931818,
                "pitch": 62,
                "velocity": 101,
                "duration": 0.3977273,
                "tempo": 120.0
            },
            {
                "start_time": 15.3931818,
                "end_time": 15.9931818,
                "pitch": 65,
                "velocity": 101,
                "duration": 0.6,
                "tempo": 120.0
            },
            {
                "start_time": 15.9931818,
                "end_time": 16.3954545,
                "pitch": 64,
                "velocity": 101,
                "duration": 0.4022727,
                "tempo": 120.0
            },
            {
                "start_time": 16.3954545,
                "end_time": 16.5659091,
                "pitch": 64,
                "velocity": 101,
                "duration": 0.1704545,
                "tempo": 120.0
            },
            {
                "start_time": 16.5659091,
                "end_time": 16.95,
                "pitch": 65,
                "velocity": 101,
                "duration": 0.3840909,
                "tempo": 120.0
            },
            {
                "start_time": 16.95,
                "end_time": 17.3363636,
                "pitch": 65,
                "velocity": 101,
                "duration": 0.3863636,
                "tempo": 120.0
            },
            {
                "start_time": 17.3363636,
                "end_time": 17.5363636,
                "pitch": 65,
                "velocity": 101,
                "duration": 0.2,
                "tempo": 120.0
            },
            {
                "start_time": 17.5363636,
                "end_time": 17.9363636,
                "pitch": 64,
                "velocity": 101,
                "duration": 0.4,
                "tempo": 120.0
            },
            {
                "start_time": 17.9363636,
                "end_time": 18.1363636,
                "pitch": 64,
                "velocity": 101,
                "duration": 0.2,
                "tempo": 120.0
            },
            {
                "start_time": 18.1363636,
                "end_time": 18.5386364,
                "pitch": 65,
                "velocity": 101,
                "duration": 0.4022727,
                "tempo": 120.0
            },
            {
                "start_time": 18.5386364,
                "end_time": 19.0772727,
                "pitch": 64,
                "velocity": 101,
                "duration": 0.5386364,
                "tempo": 120.0
            },
            {
                "start_time": 19.0772727,
                "end_time": 19.4772727,
                "pitch": 62,
                "velocity": 101,
                "duration": 0.4,
                "tempo": 120.0
            },
            {
                "start_time": 19.4772727,
                "end_time": 19.6795455,
                "pitch": 62,
                "velocity": 101,
                "duration": 0.2022727,
                "tempo": 120.0
            },
            {
                "start_time": 19.6795455,
                "end_time": 20.0818182,
                "pitch": 64,
                "velocity": 101,
                "duration": 0.4022727,
                "tempo": 120.0
            },
            {
                "start_time": 20.0818182,
                "end_time": 20.4818182,
                "pitch": 64,
                "velocity": 101,
                "duration": 0.4,
                "tempo": 120.0
            },
            {
                "start_time": 20.4818182,
                "end_time": 20.6840909,
                "pitch": 64,
                "velocity": 101,
                "duration": 0.2022727,
                "tempo": 120.0
            },
            {
                "start_time": 20.6840909,
                "end_time": 21.0431818,
                "pitch": 62,
                "velocity": 101,
                "duration": 0.3590909,
                "tempo": 120.0
            },
            {
                "start_time": 21.0431818,
                "end_time": 21.2295455,
                "pitch": 62,
                "velocity": 101,
                "duration": 0.1863636,
                "tempo": 120.0
            },
            {
                "start_time": 21.2295455,
                "end_time": 21.6113636,
                "pitch": 64,
                "velocity": 101,
                "duration": 0.3818182,
                "tempo": 120.0
            },
            {
                "start_time": 21.8068182,
                "end_time": 22.0068182,
                "pitch": 65,
                "velocity": 101,
                "duration": 0.2,
                "tempo": 120.0
            },
            {
                "start_time": 22.0068182,
                "end_time": 22.2068182,
                "pitch": 64,
                "velocity": 101,
                "duration": 0.2,
                "tempo": 120.0
            },
            {
                "start_time": 22.2068182,
                "end_time": 22.4113636,
                "pitch": 62,
                "velocity": 101,
                "duration": 0.2045455,
                "tempo": 120.0
            },
            {
                "start_time": 22.4113636,
                "end_time": 22.6181818,
                "pitch": 61,
                "velocity": 101,
                "duration": 0.2068182,
                "tempo": 120.0
            },
            {
                "start_time": 22.6181818,
                "end_time": 22.8136364,
                "pitch": 58,
                "velocity": 101,
                "duration": 0.1954545,
                "tempo": 120.0
            },
            {
                "start_time": 22.8136364,
                "end_time": 22.9795455,
                "pitch": 57,
                "velocity": 101,
                "duration": 0.1659091,
                "tempo": 120.0
            },
            {
                "start_time": 22.9795455,
                "end_time": 23.1659091,
                "pitch": 55,
                "velocity": 101,
                "duration": 0.1863636,
                "tempo": 120.0
            },
            {
                "start_time": 23.1659091,
                "end_time": 23.35,
                "pitch": 52,
                "velocity": 101,
                "duration": 0.1840909,
                "tempo": 120.0
            },
            {
                "start_time": 23.35,
                "end_time": 23.5522727,
                "pitch": 65,
                "velocity": 101,
                "duration": 0.2022727,
                "tempo": 120.0
            },
            {
                "start_time": 23.5522727,
                "end_time": 23.7545455,
                "pitch": 64,
                "velocity": 101,
                "duration": 0.2022727,
                "tempo": 120.0
            },
            {
                "start_time": 23.7545455,
                "end_time": 23.9545455,
                "pitch": 62,
                "velocity": 101,
                "duration": 0.2,
                "tempo": 120.0
            },
            {
                "start_time": 23.9545455,
                "end_time": 24.1545455,
                "pitch": 61,
                "velocity": 101,
                "duration": 0.2,
                "tempo": 120.0
            },
            {
                "start_time": 24.1545455,
                "end_time": 24.3545455,
                "pitch": 58,
                "velocity": 101,
                "duration": 0.2,
                "tempo": 120.0
            },
            {
                "start_time": 24.3545455,
                "end_time": 24.5568182,
                "pitch": 57,
                "velocity": 101,
                "duration": 0.2022727,
                "tempo": 120.0
            },
            {
                "start_time": 24.5568182,
                "end_time": 24.7568182,
                "pitch": 55,
                "velocity": 101,
                "duration": 0.2,
                "tempo": 120.0
            },
            {
                "start_time": 24.7568182,
                "end_time": 24.9272727,
                "pitch": 52,
                "velocity": 101,
                "duration": 0.1704545,
                "tempo": 120.0
            },
            {
                "start_time": 24.9272727,
                "end_time": 26.5,
                "pitch": 53,
                "velocity": 101,
                "duration": 1.5727273,
                "tempo": 120.0
            },
            {
                "start_time": 26.5,
                "end_time": 28.0454545,
                "pitch": 50,
                "velocity": 101,
                "duration": 1.5454545,
                "tempo": 120.0
            },
            {
                "start_time": 28.0454545,
                "end_time": 29.5681818,
                "pitch": 52,
                "velocity": 101,
                "duration": 1.5227273,
                "tempo": 120.0
            },
            {
                "start_time": 29.5681818,
                "end_time": 31.175,
                "pitch": 55,
                "velocity": 101,
                "duration": 1.6068182,
                "tempo": 120.0
            },
            {
                "start_time": 31.175,
                "end_time": 32.7181818,
                "pitch": 57,
                "velocity": 101,
                "duration": 1.5431818,
                "tempo": 120.0
            },
            {
                "start_time": 32.7181818,
                "end_time": 34.2568182,
                "pitch": 55,
                "velocity": 101,
                "duration": 1.5386364,
                "tempo": 120.0
            },
            {
                "start_time": 34.2568182,
                "end_time": 35.6181818,
                "pitch": 53,
                "velocity": 101,
                "duration": 1.3613636,
                "tempo": 120.0
            },
            {
                "start_time": 35.6181818,
                "end_time": 37.3818182,
                "pitch": 52,
                "velocity": 101,
                "duration": 1.7636364,
                "tempo": 120.0
            },
            {
                "start_time": 37.3818182,
                "end_time": 38.925,
                "pitch": 53,
                "velocity": 101,
                "duration": 1.5431818,
                "tempo": 120.0
            },
            {
                "start_time": 38.925,
                "end_time": 39.8818182,
                "pitch": 57,
                "velocity": 101,
                "duration": 0.9568182,
                "tempo": 120.0
            },
            {
                "start_time": 39.8818182,
                "end_time": 40.0681818,
                "pitch": 57,
                "velocity": 101,
                "duration": 0.1863636,
                "tempo": 120.0
            },
            {
                "start_time": 40.0681818,
                "end_time": 40.2681818,
                "pitch": 55,
                "velocity": 101,
                "duration": 0.2,
                "tempo": 120.0
            },
            {
                "start_time": 40.2681818,
                "end_time": 40.4681818,
                "pitch": 53,
                "velocity": 101,
                "duration": 0.2,
                "tempo": 120.0
            },
            {
                "start_time": 40.4681818,
                "end_time": 42.0295455,
                "pitch": 48,
                "velocity": 101,
                "duration": 1.5613636,
                "tempo": 120.0
            },
            {
                "start_time": 42.0295455,
                "end_time": 42.8022727,
                "pitch": 52,
                "velocity": 101,
                "duration": 0.7727273,
                "tempo": 120.0
            },
            {
                "start_time": 42.8022727,
                "end_time": 43.6136364,
                "pitch": 55,
                "velocity": 101,
                "duration": 0.8113636,
                "tempo": 120.0
            },
            {
                "start_time": 43.6136364,
                "end_time": 43.8,
                "pitch": 50,
                "velocity": 101,
                "duration": 0.1863636,
                "tempo": 120.0
            },
            {
                "start_time": 43.8,
                "end_time": 43.9659091,
                "pitch": 50,
                "velocity": 101,
                "duration": 0.1659091,
                "tempo": 120.0
            },
            {
                "start_time": 43.9659091,
                "end_time": 44.15,
                "pitch": 52,
                "velocity": 101,
                "duration": 0.1840909,
                "tempo": 120.0
            },
            {
                "start_time": 44.15,
                "end_time": 44.3363636,
                "pitch": 52,
                "velocity": 101,
                "duration": 0.1863636,
                "tempo": 120.0
            },
            {
                "start_time": 44.3363636,
                "end_time": 44.5363636,
                "pitch": 53,
                "velocity": 101,
                "duration": 0.2,
                "tempo": 120.0
            },
            {
                "start_time": 44.5363636,
                "end_time": 44.7363636,
                "pitch": 53,
                "velocity": 101,
                "duration": 0.2,
                "tempo": 120.0
            },
            {
                "start_time": 44.7363636,
                "end_time": 44.9363636,
                "pitch": 50,
                "velocity": 101,
                "duration": 0.2,
                "tempo": 120.0
            },
            {
                "start_time": 44.9363636,
                "end_time": 45.1386364,
                "pitch": 50,
                "velocity": 101,
                "duration": 0.2022727,
                "tempo": 120.0
            },
            {
                "start_time": 45.1386364,
                "end_time": 45.3386364,
                "pitch": 55,
                "velocity": 101,
                "duration": 0.2,
                "tempo": 120.0
            },
            {
                "start_time": 45.3386364,
                "end_time": 45.5386364,
                "pitch": 55,
                "velocity": 101,
                "duration": 0.2,
                "tempo": 120.0
            },
            {
                "start_time": 45.5386364,
                "end_time": 45.7386364,
                "pitch": 53,
                "velocity": 101,
                "duration": 0.2,
                "tempo": 120.0
            },
            {
                "start_time": 45.7386364,
                "end_time": 45.9386364,
                "pitch": 53,
                "velocity": 101,
                "duration": 0.2,
                "tempo": 120.0
            },
            {
                "start_time": 45.9386364,
                "end_time": 46.1090909,
                "pitch": 52,
                "velocity": 101,
                "duration": 0.1704545,
                "tempo": 120.0
            },
            {
                "start_time": 46.1090909,
                "end_time": 46.3090909,
                "pitch": 52,
                "velocity": 101,
                "duration": 0.2,
                "tempo": 120.0
            },
            {
                "start_time": 46.3090909,
                "end_time": 46.4931818,
                "pitch": 50,
                "velocity": 101,
                "duration": 0.1840909,
                "tempo": 120.0
            },
            {
                "start_time": 46.4931818,
                "end_time": 46.6795455,
                "pitch": 50,
                "velocity": 101,
                "duration": 0.1863636,
                "tempo": 120.0
            },
            {
                "start_time": 46.6795455,
                "end_time": 46.8795455,
                "pitch": 61,
                "velocity": 101,
                "duration": 0.2,
                "tempo": 120.0
            },
            {
                "start_time": 46.8795455,
                "end_time": 47.0795455,
                "pitch": 58,
                "velocity": 101,
                "duration": 0.2,
                "tempo": 120.0
            },
            {
                "start_time": 47.0795455,
                "end_time": 47.2795455,
                "pitch": 57,
                "velocity": 101,
                "duration": 0.2,
                "tempo": 120.0
            },
            {
                "start_time": 47.2795455,
                "end_time": 47.4795455,
                "pitch": 64,
                "velocity": 101,
                "duration": 0.2,
                "tempo": 120.0
            },
            {
                "start_time": 47.4795455,
                "end_time": 47.6795455,
                "pitch": 62,
                "velocity": 101,
                "duration": 0.2,
                "tempo": 120.0
            },
            {
                "start_time": 47.6795455,
                "end_time": 47.8795455,
                "pitch": 61,
                "velocity": 101,
                "duration": 0.2,
                "tempo": 120.0
            },
            {
                "start_time": 47.8795455,
                "end_time": 48.0795455,
                "pitch": 61,
                "velocity": 101,
                "duration": 0.2,
                "tempo": 120.0
            },
            {
                "start_time": 48.0795455,
                "end_time": 48.25,
                "pitch": 58,
                "velocity": 101,
                "duration": 0.1704545,
                "tempo": 120.0
            },
            {
                "start_time": 48.25,
                "end_time": 48.4340909,
                "pitch": 57,
                "velocity": 101,
                "duration": 0.1840909,
                "tempo": 120.0
            },
            {
                "start_time": 48.4340909,
                "end_time": 48.6204545,
                "pitch": 64,
                "velocity": 101,
                "duration": 0.1863636,
                "tempo": 120.0
            },
            {
                "start_time": 48.6204545,
                "end_time": 48.8204545,
                "pitch": 62,
                "velocity": 101,
                "duration": 0.2,
                "tempo": 120.0
            },
            {
                "start_time": 48.8204545,
                "end_time": 49.0204545,
                "pitch": 61,
                "velocity": 101,
                "duration": 0.2,
                "tempo": 120.0
            },
            {
                "start_time": 49.0204545,
                "end_time": 49.2204545,
                "pitch": 67,
                "velocity": 101,
                "duration": 0.2,
                "tempo": 120.0
            },
            {
                "start_time": 49.2204545,
                "end_time": 49.4204545,
                "pitch": 65,
                "velocity": 101,
                "duration": 0.2,
                "tempo": 120.0
            },
            {
                "start_time": 49.4204545,
                "end_time": 49.6204545,
                "pitch": 64,
                "velocity": 101,
                "duration": 0.2,
                "tempo": 120.0
            },
            {
                "start_time": 49.6204545,
                "end_time": 49.8204545,
                "pitch": 61,
                "velocity": 101,
                "duration": 0.2,
                "tempo": 120.0
            },
            {
                "start_time": 49.8204545,
                "end_time": 50.1818182,
                "pitch": 62,
                "velocity": 101,
                "duration": 0.3613636,
                "tempo": 120.0
            }
        ],
        "Synth Bass 1": [
            {
                "start_time": 0.2,
                "end_time": 0.4,
                "pitch": 50,
                "velocity": 101,
                "duration": 0.2,
                "tempo": 120.0
            },
            {
                "start_time": 0.4,
                "end_time": 0.6,
                "pitch": 50,
                "velocity": 101,
                "duration": 0.2,
                "tempo": 120.0
            },
            {
                "start_time": 0.6,
                "end_time": 0.8,
                "pitch": 50,
                "velocity": 101,
                "duration": 0.2,
                "tempo": 120.0
            },
            {
                "start_time": 0.8,
                "end_time": 0.9954545,
                "pitch": 50,
                "velocity": 101,
                "duration": 0.1954545,
                "tempo": 120.0
            },
            {
                "start_time": 0.9954545,
                "end_time": 1.1931818,
                "pitch": 50,
                "velocity": 101,
                "duration": 0.1977273,
                "tempo": 120.0
            },
            {
                "start_time": 1.1931818,
                "end_time": 1.3931818,
                "pitch": 50,
                "velocity": 101,
                "duration": 0.2,
                "tempo": 120.0
            },
            {
                "start_time": 1.3931818,
                "end_time": 1.5931818,
                "pitch": 50,
                "velocity": 101,
                "duration": 0.2,
                "tempo": 120.0
            },
            {
                "start_time": 1.5931818,
                "end_time": 1.7636364,
                "pitch": 50,
                "velocity": 101,
                "duration": 0.1704545,
                "tempo": 120.0
            },
            {
                "start_time": 1.7636364,
                "end_time": 1.9636364,
                "pitch": 50,
                "velocity": 101,
                "duration": 0.2,
                "tempo": 120.0
            },
            {
                "start_time": 1.9636364,
                "end_time": 2.15,
                "pitch": 50,
                "velocity": 101,
                "duration": 0.1863636,
                "tempo": 120.0
            },
            {
                "start_time": 2.15,
                "end_time": 2.3340909,
                "pitch": 50,
                "velocity": 101,
                "duration": 0.1840909,
                "tempo": 120.0
            },
            {
                "start_time": 2.3340909,
                "end_time": 2.5363636,
                "pitch": 50,
                "velocity": 101,
                "duration": 0.2022727,
                "tempo": 120.0
            },
            {
                "start_time": 2.5363636,
                "end_time": 2.7386364,
                "pitch": 50,
                "velocity": 101,
                "duration": 0.2022727,
                "tempo": 120.0
            },
            {
                "start_time": 2.7386364,
                "end_time": 2.9386364,
                "pitch": 48,
                "velocity": 101,
                "duration": 0.2,
                "tempo": 120.0
            },
            {
                "start_time": 2.9386364,
                "end_time": 3.1386364,
                "pitch": 48,
                "velocity": 101,
                "duration": 0.2,
                "tempo": 120.0
            },
            {
                "start_time": 3.1386364,
                "end_time": 3.3386364,
                "pitch": 46,
                "velocity": 101,
                "duration": 0.2,
                "tempo": 120.0
            },
            {
                "start_time": 3.3386364,
                "end_time": 3.5386364,
                "pitch": 46,
                "velocity": 101,
                "duration": 0.2,
                "tempo": 120.0
            },
            {
                "start_time": 3.5386364,
                "end_time": 3.7386364,
                "pitch": 46,
                "velocity": 101,
                "duration": 0.2,
                "tempo": 120.0
            },
            {
                "start_time": 3.7386364,
                "end_time": 3.9068182,
                "pitch": 46,
                "velocity": 101,
                "duration": 0.1681818,
                "tempo": 120.0
            },
            {
                "start_time": 3.9068182,
                "end_time": 4.0931818,
                "pitch": 46,
                "velocity": 101,
                "duration": 0.1863636,
                "tempo": 120.0
            },
            {
                "start_time": 4.0931818,
                "end_time": 4.2772727,
                "pitch": 46,
                "velocity": 101,
                "duration": 0.1840909,
                "tempo": 120.0
            },
            {
                "start_time": 4.2772727,
                "end_time": 4.4772727,
                "pitch": 46,
                "velocity": 101,
                "duration": 0.2,
                "tempo": 120.0
            },
            {
                "start_time": 4.4772727,
                "end_time": 4.6772727,
                "pitch": 46,
                "velocity": 101,
                "duration": 0.2,
                "tempo": 120.0
            },
            {
                "start_time": 4.6772727,
                "end_time": 4.8795455,
                "pitch": 46,
                "velocity": 101,
                "duration": 0.2022727,
                "tempo": 120.0
            },
            {
                "start_time": 4.8795455,
                "end_time": 5.0818182,
                "pitch": 46,
                "velocity": 101,
                "duration": 0.2022727,
                "tempo": 120.0
            },
            {
                "start_time": 5.0818182,
                "end_time": 5.2818182,
                "pitch": 46,
                "velocity": 101,
                "duration": 0.2,
                "tempo": 120.0
            },
            {
                "start_time": 5.2818182,
                "end_time": 5.4818182,
                "pitch": 46,
                "velocity": 101,
                "duration": 0.2,
                "tempo": 120.0
            },
            {
                "start_time": 5.4818182,
                "end_time": 5.6818182,
                "pitch": 46,
                "velocity": 101,
                "duration": 0.2,
                "tempo": 120.0
            },
            {
                "start_time": 5.6818182,
                "end_time": 5.8840909,
                "pitch": 46,
                "velocity": 101,
                "duration": 0.2022727,
                "tempo": 120.0
            },
            {
                "start_time": 5.8840909,
                "end_time": 6.0545455,
                "pitch": 45,
                "velocity": 101,
                "duration": 0.1704545,
                "tempo": 120.0
            },
            {
                "start_time": 6.0545455,
                "end_time": 6.2454545,
                "pitch": 45,
                "velocity": 101,
                "duration": 0.1909091,
                "tempo": 120.0
            },
            {
                "start_time": 6.2454545,
                "end_time": 6.4318182,
                "pitch": 43,
                "velocity": 101,
                "duration": 0.1863636,
                "tempo": 120.0
            },
            {
                "start_time": 6.4318182,
                "end_time": 6.6159091,
                "pitch": 43,
                "velocity": 101,
                "duration": 0.1840909,
                "tempo": 120.0
            },
            {
                "start_time": 6.6272727,
                "end_time": 6.8181818,
                "pitch": 43,
                "velocity": 101,
                "duration": 0.1909091,
                "tempo": 120.0
            },
            {
                "start_time": 6.8181818,
                "end_time": 7.0295455,
                "pitch": 43,
                "velocity": 101,
                "duration": 0.2113636,
                "tempo": 120.0
            },
            {
                "start_time": 7.0295455,
                "end_time": 7.2295455,
                "pitch": 43,
                "velocity": 101,
                "duration": 0.2,
                "tempo": 120.0
            },
            {
                "start_time": 7.2295455,
                "end_time": 7.4227273,
                "pitch": 43,
                "velocity": 101,
                "duration": 0.1931818,
                "tempo": 120.0
            },
            {
                "start_time": 7.4227273,
                "end_time": 7.6318182,
                "pitch": 43,
                "velocity": 101,
                "duration": 0.2090909,
                "tempo": 120.0
            },
            {
                "start_time": 7.6318182,
                "end_time": 7.8227273,
                "pitch": 43,
                "velocity": 101,
                "duration": 0.1909091,
                "tempo": 120.0
            },
            {
                "start_time": 7.8227273,
                "end_time": 8.0272727,
                "pitch": 43,
                "velocity": 101,
                "duration": 0.2045455,
                "tempo": 120.0
            },
            {
                "start_time": 8.0272727,
                "end_time": 8.1840909,
                "pitch": 43,
                "velocity": 101,
                "duration": 0.1568182,
                "tempo": 120.0
            },
            {
                "start_time": 8.1840909,
                "end_time": 8.3704545,
                "pitch": 43,
                "velocity": 101,
                "duration": 0.1863636,
                "tempo": 120.0
            },
            {
                "start_time": 8.3704545,
                "end_time": 8.5545455,
                "pitch": 43,
                "velocity": 101,
                "duration": 0.1840909,
                "tempo": 120.0
            },
            {
                "start_time": 8.5545455,
                "end_time": 8.7568182,
                "pitch": 43,
                "velocity": 101,
                "duration": 0.2022727,
                "tempo": 120.0
            },
            {
                "start_time": 8.7568182,
                "end_time": 8.9568182,
                "pitch": 43,
                "velocity": 101,
                "duration": 0.2,
                "tempo": 120.0
            },
            {
                "start_time": 8.9568182,
                "end_time": 9.1590909,
                "pitch": 46,
                "velocity": 101,
                "duration": 0.2022727,
                "tempo": 120.0
            },
            {
                "start_time": 9.1590909,
                "end_time": 9.3590909,
                "pitch": 46,
                "velocity": 101,
                "duration": 0.2,
                "tempo": 120.0
            },
            {
                "start_time": 9.3590909,
                "end_time": 9.5613636,
                "pitch": 45,
                "velocity": 101,
                "duration": 0.2022727,
                "tempo": 120.0
            },
            {
                "start_time": 9.5613636,
                "end_time": 9.7636364,
                "pitch": 45,
                "velocity": 101,
                "duration": 0.2022727,
                "tempo": 120.0
            },
            {
                "start_time": 9.9636364,
                "end_time": 10.1636364,
                "pitch": 45,
                "velocity": 101,
                "duration": 0.2,
                "tempo": 120.0
            },
            {
                "start_time": 10.1636364,
                "end_time": 10.3340909,
                "pitch": 45,
                "velocity": 101,
                "duration": 0.1704545,
                "tempo": 120.0
            },
            {
                "start_time": 10.5363636,
                "end_time": 10.7204545,
                "pitch": 45,
                "velocity": 101,
                "duration": 0.1840909,
                "tempo": 120.0
            },
            {
                "start_time": 10.7204545,
                "end_time": 10.9068182,
                "pitch": 45,
                "velocity": 101,
                "duration": 0.1863636,
                "tempo": 120.0
            },
            {
                "start_time": 11.1068182,
                "end_time": 11.3068182,
                "pitch": 52,
                "velocity": 101,
                "duration": 0.2,
                "tempo": 120.0
            },
            {
                "start_time": 11.5068182,
                "end_time": 11.7090909,
                "pitch": 52,
                "velocity": 101,
                "duration": 0.2022727,
                "tempo": 120.0
            },
            {
                "start_time": 11.9090909,
                "end_time": 12.1113636,
                "pitch": 52,
                "velocity": 101,
                "duration": 0.2022727,
                "tempo": 120.0
            },
            {
                "start_time": 12.1113636,
                "end_time": 12.4840909,
                "pitch": 55,
                "velocity": 101,
                "duration": 0.3727273,
                "tempo": 120.0
            },
            {
                "start_time": 12.4840909,
                "end_time": 12.6590909,
                "pitch": 50,
                "velocity": 101,
                "duration": 0.175,
                "tempo": 120.0
            },
            {
                "start_time": 12.6590909,
                "end_time": 12.8545455,
                "pitch": 50,
                "velocity": 101,
                "duration": 0.1954545,
                "tempo": 120.0
            },
            {
                "start_time": 12.8545455,
                "end_time": 13.0545455,
                "pitch": 50,
                "velocity": 101,
                "duration": 0.2,
                "tempo": 120.0
            },
            {
                "start_time": 13.0545455,
                "end_time": 13.2568182,
                "pitch": 50,
                "velocity": 101,
                "duration": 0.2022727,
                "tempo": 120.0
            },
            {
                "start_time": 13.2568182,
                "end_time": 13.4568182,
                "pitch": 50,
                "velocity": 101,
                "duration": 0.2,
                "tempo": 120.0
            },
            {
                "start_time": 13.4568182,
                "end_time": 13.6590909,
                "pitch": 50,
                "velocity": 101,
                "duration": 0.2022727,
                "tempo": 120.0
            },
            {
                "start_time": 13.6590909,
                "end_time": 13.8613636,
                "pitch": 50,
                "velocity": 101,
                "duration": 0.2022727,
                "tempo": 120.0
            },
            {
                "start_time": 13.8613636,
                "end_time": 14.0613636,
                "pitch": 50,
                "velocity": 101,
                "duration": 0.2,
                "tempo": 120.0
            },
            {
                "start_time": 14.0613636,
                "end_time": 14.2636364,
                "pitch": 50,
                "velocity": 101,
                "duration": 0.2022727,
                "tempo": 120.0
            },
            {
                "start_time": 14.2636364,
                "end_time": 14.425,
                "pitch": 50,
                "velocity": 101,
                "duration": 0.1613636,
                "tempo": 120.0
            },
            {
                "start_time": 14.425,
                "end_time": 14.6113636,
                "pitch": 50,
                "velocity": 101,
                "duration": 0.1863636,
                "tempo": 120.0
            },
            {
                "start_time": 14.6113636,
                "end_time": 14.7954545,
                "pitch": 50,
                "velocity": 101,
                "duration": 0.1840909,
                "tempo": 120.0
            },
            {
                "start_time": 14.7954545,
                "end_time": 14.9954545,
                "pitch": 50,
                "velocity": 101,
                "duration": 0.2,
                "tempo": 120.0
            },
            {
                "start_time": 14.9954545,
                "end_time": 15.1977273,
                "pitch": 50,
                "velocity": 101,
                "duration": 0.2022727,
                "tempo": 120.0
            },
            {
                "start_time": 15.1977273,
                "end_time": 15.3931818,
                "pitch": 45,
                "velocity": 101,
                "duration": 0.1954545,
                "tempo": 120.0
            },
            {
                "start_time": 15.3931818,
                "end_time": 15.5886364,
                "pitch": 45,
                "velocity": 101,
                "duration": 0.1954545,
                "tempo": 120.0
            },
            {
                "start_time": 15.5886364,
                "end_time": 15.7909091,
                "pitch": 48,
                "velocity": 101,
                "duration": 0.2022727,
                "tempo": 120.0
            },
            {
                "start_time": 15.7909091,
                "end_time": 15.9931818,
                "pitch": 48,
                "velocity": 101,
                "duration": 0.2022727,
                "tempo": 120.0
            },
            {
                "start_time": 15.9931818,
                "end_time": 16.1931818,
                "pitch": 48,
                "velocity": 101,
                "duration": 0.2,
                "tempo": 120.0
            },
            {
                "start_time": 16.1931818,
                "end_time": 16.3954545,
                "pitch": 48,
                "velocity": 101,
                "duration": 0.2022727,
                "tempo": 120.0
            },
            {
                "start_time": 16.3954545,
                "end_time": 16.5659091,
                "pitch": 48,
                "velocity": 101,
                "duration": 0.1704545,
                "tempo": 120.0
            },
            {
                "start_time": 16.5659091,
                "end_time": 16.7659091,
                "pitch": 48,
                "velocity": 101,
                "duration": 0.2,
                "tempo": 120.0
            },
            {
                "start_time": 16.7659091,
                "end_time": 16.95,
                "pitch": 48,
                "velocity": 101,
                "duration": 0.1840909,
                "tempo": 120.0
            },
            {
                "start_time": 16.95,
                "end_time": 17.1363636,
                "pitch": 48,
                "velocity": 101,
                "duration": 0.1863636,
                "tempo": 120.0
            },
            {
                "start_time": 17.1363636,
                "end_time": 17.3363636,
                "pitch": 48,
                "velocity": 101,
                "duration": 0.2,
                "tempo": 120.0
            },
            {
                "start_time": 17.3363636,
                "end_time": 17.5363636,
                "pitch": 48,
                "velocity": 101,
                "duration": 0.2,
                "tempo": 120.0
            },
            {
                "start_time": 17.5363636,
                "end_time": 17.7363636,
                "pitch": 48,
                "velocity": 101,
                "duration": 0.2,
                "tempo": 120.0
            },
            {
                "start_time": 17.7363636,
                "end_time": 17.9363636,
                "pitch": 48,
                "velocity": 101,
                "duration": 0.2,
                "tempo": 120.0
            },
            {
                "start_time": 17.9363636,
                "end_time": 18.1363636,
                "pitch": 48,
                "velocity": 101,
                "duration": 0.2,
                "tempo": 120.0
            },
            {
                "start_time": 18.1363636,
                "end_time": 18.3386364,
                "pitch": 48,
                "velocity": 101,
                "duration": 0.2022727,
                "tempo": 120.0
            },
            {
                "start_time": 18.3386364,
                "end_time": 18.5386364,
                "pitch": 46,
                "velocity": 101,
                "duration": 0.2,
                "tempo": 120.0
            },
            {
                "start_time": 18.5386364,
                "end_time": 18.7090909,
                "pitch": 46,
                "velocity": 101,
                "duration": 0.1704545,
                "tempo": 120.0
            },
            {
                "start_time": 18.7090909,
                "end_time": 18.8931818,
                "pitch": 43,
                "velocity": 101,
                "duration": 0.1840909,
                "tempo": 120.0
            },
            {
                "start_time": 18.8931818,
                "end_time": 19.0772727,
                "pitch": 43,
                "velocity": 101,
                "duration": 0.1840909,
                "tempo": 120.0
            },
            {
                "start_time": 19.0772727,
                "end_time": 19.2772727,
                "pitch": 43,
                "velocity": 101,
                "duration": 0.2,
                "tempo": 120.0
            },
            {
                "start_time": 19.2772727,
                "end_time": 19.4772727,
                "pitch": 43,
                "velocity": 101,
                "duration": 0.2,
                "tempo": 120.0
            },
            {
                "start_time": 19.4772727,
                "end_time": 19.6795455,
                "pitch": 43,
                "velocity": 101,
                "duration": 0.2022727,
                "tempo": 120.0
            },
            {
                "start_time": 19.6795455,
                "end_time": 19.8818182,
                "pitch": 43,
                "velocity": 101,
                "duration": 0.2022727,
                "tempo": 120.0
            },
            {
                "start_time": 19.8818182,
                "end_time": 20.0818182,
                "pitch": 43,
                "velocity": 101,
                "duration": 0.2,
                "tempo": 120.0
            },
            {
                "start_time": 20.0818182,
                "end_time": 20.2818182,
                "pitch": 43,
                "velocity": 101,
                "duration": 0.2,
                "tempo": 120.0
            },
            {
                "start_time": 20.2818182,
                "end_time": 20.4818182,
                "pitch": 43,
                "velocity": 101,
                "duration": 0.2,
                "tempo": 120.0
            },
            {
                "start_time": 20.4818182,
                "end_time": 20.6840909,
                "pitch": 43,
                "velocity": 101,
                "duration": 0.2022727,
                "tempo": 120.0
            },
            {
                "start_time": 20.6840909,
                "end_time": 20.8431818,
                "pitch": 43,
                "velocity": 101,
                "duration": 0.1590909,
                "tempo": 120.0
            },
            {
                "start_time": 20.8431818,
                "end_time": 21.0431818,
                "pitch": 43,
                "velocity": 101,
                "duration": 0.2,
                "tempo": 120.0
            },
            {
                "start_time": 21.0431818,
                "end_time": 21.2295455,
                "pitch": 43,
                "velocity": 101,
                "duration": 0.1863636,
                "tempo": 120.0
            },
            {
                "start_time": 21.2295455,
                "end_time": 21.4159091,
                "pitch": 43,
                "velocity": 101,
                "duration": 0.1863636,
                "tempo": 120.0
            },
            {
                "start_time": 21.4159091,
                "end_time": 21.6113636,
                "pitch": 46,
                "velocity": 101,
                "duration": 0.1954545,
                "tempo": 120.0
            },
            {
                "start_time": 21.6113636,
                "end_time": 21.8159091,
                "pitch": 46,
                "velocity": 101,
                "duration": 0.2045455,
                "tempo": 120.0
            },
            {
                "start_time": 21.8159091,
                "end_time": 22.0068182,
                "pitch": 45,
                "velocity": 101,
                "duration": 0.1909091,
                "tempo": 120.0
            },
            {
                "start_time": 22.0068182,
                "end_time": 22.2068182,
                "pitch": 45,
                "velocity": 101,
                "duration": 0.2,
                "tempo": 120.0
            },
            {
                "start_time": 22.2068182,
                "end_time": 22.4113636,
                "pitch": 45,
                "velocity": 101,
                "duration": 0.2045455,
                "tempo": 120.0
            },
            {
                "start_time": 22.4113636,
                "end_time": 22.6181818,
                "pitch": 45,
                "velocity": 101,
                "duration": 0.2068182,
                "tempo": 120.0
            },
            {
                "start_time": 22.6181818,
                "end_time": 22.8136364,
                "pitch": 45,
                "velocity": 101,
                "duration": 0.1954545,
                "tempo": 120.0
            },
            {
                "start_time": 22.8136364,
                "end_time": 22.9795455,
                "pitch": 45,
                "velocity": 101,
                "duration": 0.1659091,
                "tempo": 120.0
            },
            {
                "start_time": 22.9795455,
                "end_time": 23.1659091,
                "pitch": 45,
                "velocity": 101,
                "duration": 0.1863636,
                "tempo": 120.0
            },
            {
                "start_time": 23.1659091,
                "end_time": 23.35,
                "pitch": 45,
                "velocity": 101,
                "duration": 0.1840909,
                "tempo": 120.0
            },
            {
                "start_time": 23.35,
                "end_time": 23.5522727,
                "pitch": 52,
                "velocity": 101,
                "duration": 0.2022727,
                "tempo": 120.0
            },
            {
                "start_time": 23.5522727,
                "end_time": 23.7545455,
                "pitch": 50,
                "velocity": 101,
                "duration": 0.2022727,
                "tempo": 120.0
            },
            {
                "start_time": 23.7545455,
                "end_time": 23.9545455,
                "pitch": 49,
                "velocity": 101,
                "duration": 0.2,
                "tempo": 120.0
            },
            {
                "start_time": 23.9545455,
                "end_time": 24.1545455,
                "pitch": 46,
                "velocity": 101,
                "duration": 0.2,
                "tempo": 120.0
            },
            {
                "start_time": 24.1545455,
                "end_time": 24.3545455,
                "pitch": 43,
                "velocity": 101,
                "duration": 0.2,
                "tempo": 120.0
            },
            {
                "start_time": 24.3545455,
                "end_time": 24.5568182,
                "pitch": 45,
                "velocity": 101,
                "duration": 0.2022727,
                "tempo": 120.0
            },
            {
                "start_time": 24.5568182,
                "end_time": 24.7568182,
                "pitch": 46,
                "velocity": 101,
                "duration": 0.2,
                "tempo": 120.0
            },
            {
                "start_time": 24.7568182,
                "end_time": 24.9272727,
                "pitch": 43,
                "velocity": 101,
                "duration": 0.1704545,
                "tempo": 120.0
            },
            {
                "start_time": 24.9272727,
                "end_time": 25.1113636,
                "pitch": 50,
                "velocity": 101,
                "duration": 0.1840909,
                "tempo": 120.0
            },
            {
                "start_time": 25.1113636,
                "end_time": 25.2954545,
                "pitch": 50,
                "velocity": 101,
                "duration": 0.1840909,
                "tempo": 120.0
            },
            {
                "start_time": 25.2954545,
                "end_time": 25.4954545,
                "pitch": 50,
                "velocity": 101,
                "duration": 0.2,
                "tempo": 120.0
            },
            {
                "start_time": 25.4954545,
                "end_time": 25.6954545,
                "pitch": 50,
                "velocity": 101,
                "duration": 0.2,
                "tempo": 120.0
            },
            {
                "start_time": 25.6954545,
                "end_time": 25.8977273,
                "pitch": 52,
                "velocity": 101,
                "duration": 0.2022727,
                "tempo": 120.0
            },
            {
                "start_time": 25.8977273,
                "end_time": 26.1,
                "pitch": 52,
                "velocity": 101,
                "duration": 0.2022727,
                "tempo": 120.0
            },
            {
                "start_time": 26.1,
                "end_time": 26.3,
                "pitch": 52,
                "velocity": 101,
                "duration": 0.2,
                "tempo": 120.0
            },
            {
                "start_time": 26.3,
                "end_time": 26.5,
                "pitch": 52,
                "velocity": 101,
                "duration": 0.2,
                "tempo": 120.0
            },
            {
                "start_time": 26.5,
                "end_time": 26.7,
                "pitch": 53,
                "velocity": 101,
                "duration": 0.2,
                "tempo": 120.0
            },
            {
                "start_time": 26.7,
                "end_time": 26.9,
                "pitch": 53,
                "velocity": 101,
                "duration": 0.2,
                "tempo": 120.0
            },
            {
                "start_time": 26.9,
                "end_time": 27.0613636,
                "pitch": 53,
                "velocity": 101,
                "duration": 0.1613636,
                "tempo": 120.0
            },
            {
                "start_time": 27.0613636,
                "end_time": 27.2727273,
                "pitch": 53,
                "velocity": 101,
                "duration": 0.2113636,
                "tempo": 120.0
            },
            {
                "start_time": 27.2727273,
                "end_time": 27.4477273,
                "pitch": 50,
                "velocity": 101,
                "duration": 0.175,
                "tempo": 120.0
            },
            {
                "start_time": 27.4568182,
                "end_time": 27.6431818,
                "pitch": 50,
                "velocity": 101,
                "duration": 0.1863636,
                "tempo": 120.0
            },
            {
                "start_time": 27.6431818,
                "end_time": 27.8431818,
                "pitch": 50,
                "velocity": 101,
                "duration": 0.2,
                "tempo": 120.0
            },
            {
                "start_time": 27.8431818,
                "end_time": 28.0454545,
                "pitch": 50,
                "velocity": 101,
                "duration": 0.2022727,
                "tempo": 120.0
            },
            {
                "start_time": 28.0454545,
                "end_time": 28.2454545,
                "pitch": 48,
                "velocity": 101,
                "duration": 0.2,
                "tempo": 120.0
            },
            {
                "start_time": 28.2454545,
                "end_time": 28.4454545,
                "pitch": 48,
                "velocity": 101,
                "duration": 0.2,
                "tempo": 120.0
            },
            {
                "start_time": 28.4454545,
                "end_time": 28.6454545,
                "pitch": 48,
                "velocity": 101,
                "duration": 0.2,
                "tempo": 120.0
            },
            {
                "start_time": 28.6454545,
                "end_time": 28.8477273,
                "pitch": 48,
                "velocity": 101,
                "duration": 0.2022727,
                "tempo": 120.0
            },
            {
                "start_time": 28.8477273,
                "end_time": 29.0477273,
                "pitch": 50,
                "velocity": 101,
                "duration": 0.2,
                "tempo": 120.0
            },
            {
                "start_time": 29.0477273,
                "end_time": 29.2068182,
                "pitch": 50,
                "velocity": 101,
                "duration": 0.1590909,
                "tempo": 120.0
            },
            {
                "start_time": 29.2068182,
                "end_time": 29.3886364,
                "pitch": 50,
                "velocity": 101,
                "duration": 0.1818182,
                "tempo": 120.0
            },
            {
                "start_time": 29.3886364,
                "end_time": 29.5681818,
                "pitch": 50,
                "velocity": 101,
                "duration": 0.1795455,
                "tempo": 120.0
            },
            {
                "start_time": 29.5681818,
                "end_time": 29.7704545,
                "pitch": 52,
                "velocity": 101,
                "duration": 0.2022727,
                "tempo": 120.0
            },
            {
                "start_time": 29.7704545,
                "end_time": 29.9727273,
                "pitch": 52,
                "velocity": 101,
                "duration": 0.2022727,
                "tempo": 120.0
            },
            {
                "start_time": 29.9727273,
                "end_time": 30.1727273,
                "pitch": 52,
                "velocity": 101,
                "duration": 0.2,
                "tempo": 120.0
            },
            {
                "start_time": 30.1727273,
                "end_time": 30.3727273,
                "pitch": 52,
                "velocity": 101,
                "duration": 0.2,
                "tempo": 120.0
            },
            {
                "start_time": 30.3727273,
                "end_time": 30.5727273,
                "pitch": 48,
                "velocity": 101,
                "duration": 0.2,
                "tempo": 120.0
            },
            {
                "start_time": 30.5727273,
                "end_time": 30.7727273,
                "pitch": 48,
                "velocity": 101,
                "duration": 0.2,
                "tempo": 120.0
            },
            {
                "start_time": 30.7727273,
                "end_time": 30.9727273,
                "pitch": 48,
                "velocity": 101,
                "duration": 0.2,
                "tempo": 120.0
            },
            {
                "start_time": 30.9727273,
                "end_time": 31.175,
                "pitch": 48,
                "velocity": 101,
                "duration": 0.2022727,
                "tempo": 120.0
            },
            {
                "start_time": 31.175,
                "end_time": 31.3431818,
                "pitch": 46,
                "velocity": 101,
                "duration": 0.1681818,
                "tempo": 120.0
            },
            {
                "start_time": 31.3431818,
                "end_time": 31.5431818,
                "pitch": 46,
                "velocity": 101,
                "duration": 0.2,
                "tempo": 120.0
            },
            {
                "start_time": 31.5431818,
                "end_time": 31.7295455,
                "pitch": 46,
                "velocity": 101,
                "duration": 0.1863636,
                "tempo": 120.0
            },
            {
                "start_time": 31.7295455,
                "end_time": 31.9136364,
                "pitch": 46,
                "velocity": 101,
                "duration": 0.1840909,
                "tempo": 120.0
            },
            {
                "start_time": 31.9136364,
                "end_time": 32.1159091,
                "pitch": 48,
                "velocity": 101,
                "duration": 0.2022727,
                "tempo": 120.0
            },
            {
                "start_time": 32.1159091,
                "end_time": 32.3181818,
                "pitch": 48,
                "velocity": 101,
                "duration": 0.2022727,
                "tempo": 120.0
            },
            {
                "start_time": 32.3181818,
                "end_time": 32.5181818,
                "pitch": 48,
                "velocity": 101,
                "duration": 0.2,
                "tempo": 120.0
            },
            {
                "start_time": 32.5181818,
                "end_time": 32.7181818,
                "pitch": 48,
                "velocity": 101,
                "duration": 0.2,
                "tempo": 120.0
            },
            {
                "start_time": 32.7181818,
                "end_time": 32.9181818,
                "pitch": 50,
                "velocity": 101,
                "duration": 0.2,
                "tempo": 120.0
            },
            {
                "start_time": 32.9181818,
                "end_time": 33.1181818,
                "pitch": 50,
                "velocity": 101,
                "duration": 0.2,
                "tempo": 120.0
            },
            {
                "start_time": 33.1181818,
                "end_time": 33.3181818,
                "pitch": 50,
                "velocity": 101,
                "duration": 0.2,
                "tempo": 120.0
            },
            {
                "start_time": 33.3181818,
                "end_time": 33.4863636,
                "pitch": 50,
                "velocity": 101,
                "duration": 0.1681818,
                "tempo": 120.0
            },
            {
                "start_time": 33.4863636,
                "end_time": 33.6727273,
                "pitch": 46,
                "velocity": 101,
                "duration": 0.1863636,
                "tempo": 120.0
            },
            {
                "start_time": 33.6727273,
                "end_time": 33.8568182,
                "pitch": 46,
                "velocity": 101,
                "duration": 0.1840909,
                "tempo": 120.0
            },
            {
                "start_time": 33.8568182,
                "end_time": 34.0568182,
                "pitch": 46,
                "velocity": 101,
                "duration": 0.2,
                "tempo": 120.0
            },
            {
                "start_time": 34.0568182,
                "end_time": 34.2568182,
                "pitch": 46,
                "velocity": 101,
                "duration": 0.2,
                "tempo": 120.0
            },
            {
                "start_time": 34.2568182,
                "end_time": 34.4568182,
                "pitch": 45,
                "velocity": 101,
                "duration": 0.2,
                "tempo": 120.0
            },
            {
                "start_time": 34.4568182,
                "end_time": 34.6568182,
                "pitch": 45,
                "velocity": 101,
                "duration": 0.2,
                "tempo": 120.0
            },
            {
                "start_time": 34.6568182,
                "end_time": 34.8568182,
                "pitch": 45,
                "velocity": 101,
                "duration": 0.2,
                "tempo": 120.0
            },
            {
                "start_time": 34.8568182,
                "end_time": 35.0568182,
                "pitch": 45,
                "velocity": 101,
                "duration": 0.2,
                "tempo": 120.0
            },
            {
                "start_time": 35.0568182,
                "end_time": 35.2568182,
                "pitch": 49,
                "velocity": 101,
                "duration": 0.2,
                "tempo": 120.0
            },
            {
                "start_time": 35.2568182,
                "end_time": 35.4568182,
                "pitch": 49,
                "velocity": 101,
                "duration": 0.2,
                "tempo": 120.0
            },
            {
                "start_time": 35.4568182,
                "end_time": 35.6181818,
                "pitch": 49,
                "velocity": 101,
                "duration": 0.1613636,
                "tempo": 120.0
            },
            {
                "start_time": 35.6181818,
                "end_time": 35.8204545,
                "pitch": 49,
                "velocity": 101,
                "duration": 0.2022727,
                "tempo": 120.0
            },
            {
                "start_time": 35.8204545,
                "end_time": 36.0,
                "pitch": 50,
                "velocity": 101,
                "duration": 0.1795455,
                "tempo": 120.0
            },
            {
                "start_time": 36.0,
                "end_time": 36.1818182,
                "pitch": 50,
                "velocity": 101,
                "duration": 0.1818182,
                "tempo": 120.0
            },
            {
                "start_time": 36.1818182,
                "end_time": 36.3818182,
                "pitch": 50,
                "velocity": 101,
                "duration": 0.2,
                "tempo": 120.0
            },
            {
                "start_time": 36.3818182,
                "end_time": 36.5818182,
                "pitch": 50,
                "velocity": 101,
                "duration": 0.2,
                "tempo": 120.0
            },
            {
                "start_time": 36.5818182,
                "end_time": 36.7818182,
                "pitch": 52,
                "velocity": 101,
                "duration": 0.2,
                "tempo": 120.0
            },
            {
                "start_time": 36.7818182,
                "end_time": 36.9818182,
                "pitch": 52,
                "velocity": 101,
                "duration": 0.2,
                "tempo": 120.0
            },
            {
                "start_time": 36.9818182,
                "end_time": 37.1818182,
                "pitch": 52,
                "velocity": 101,
                "duration": 0.2,
                "tempo": 120.0
            },
            {
                "start_time": 37.1818182,
                "end_time": 37.3818182,
                "pitch": 52,
                "velocity": 101,
                "duration": 0.2,
                "tempo": 120.0
            },
            {
                "start_time": 37.3909091,
                "end_time": 37.5522727,
                "pitch": 50,
                "velocity": 101,
                "duration": 0.1613636,
                "tempo": 120.0
            },
            {
                "start_time": 37.5522727,
                "end_time": 37.7545455,
                "pitch": 50,
                "velocity": 101,
                "duration": 0.2022727,
                "tempo": 120.0
            },
            {
                "start_time": 37.7545455,
                "end_time": 37.9386364,
                "pitch": 50,
                "velocity": 101,
                "duration": 0.1840909,
                "tempo": 120.0
            },
            {
                "start_time": 37.9386364,
                "end_time": 38.125,
                "pitch": 50,
                "velocity": 101,
                "duration": 0.1863636,
                "tempo": 120.0
            },
            {
                "start_time": 38.125,
                "end_time": 38.325,
                "pitch": 52,
                "velocity": 101,
                "duration": 0.2,
                "tempo": 120.0
            },
            {
                "start_time": 38.325,
                "end_time": 38.525,
                "pitch": 52,
                "velocity": 101,
                "duration": 0.2,
                "tempo": 120.0
            },
            {
                "start_time": 38.525,
                "end_time": 38.725,
                "pitch": 52,
                "velocity": 101,
                "duration": 0.2,
                "tempo": 120.0
            },
            {
                "start_time": 38.725,
                "end_time": 38.925,
                "pitch": 52,
                "velocity": 101,
                "duration": 0.2,
                "tempo": 120.0
            },
            {
                "start_time": 38.925,
                "end_time": 39.125,
                "pitch": 53,
                "velocity": 101,
                "duration": 0.2,
                "tempo": 120.0
            },
            {
                "start_time": 39.125,
                "end_time": 39.325,
                "pitch": 53,
                "velocity": 101,
                "duration": 0.2,
                "tempo": 120.0
            },
            {
                "start_time": 39.325,
                "end_time": 39.525,
                "pitch": 53,
                "velocity": 101,
                "duration": 0.2,
                "tempo": 120.0
            },
            {
                "start_time": 39.525,
                "end_time": 39.6977273,
                "pitch": 53,
                "velocity": 101,
                "duration": 0.1727273,
                "tempo": 120.0
            },
            {
                "start_time": 39.6977273,
                "end_time": 39.8818182,
                "pitch": 57,
                "velocity": 101,
                "duration": 0.1840909,
                "tempo": 120.0
            },
            {
                "start_time": 39.8818182,
                "end_time": 40.0681818,
                "pitch": 57,
                "velocity": 101,
                "duration": 0.1863636,
                "tempo": 120.0
            },
            {
                "start_time": 40.0681818,
                "end_time": 40.2681818,
                "pitch": 57,
                "velocity": 101,
                "duration": 0.2,
                "tempo": 120.0
            },
            {
                "start_time": 40.2681818,
                "end_time": 40.4681818,
                "pitch": 57,
                "velocity": 101,
                "duration": 0.2,
                "tempo": 120.0
            },
            {
                "start_time": 40.4681818,
                "end_time": 40.6681818,
                "pitch": 48,
                "velocity": 101,
                "duration": 0.2,
                "tempo": 120.0
            },
            {
                "start_time": 40.6681818,
                "end_time": 40.8681818,
                "pitch": 48,
                "velocity": 101,
                "duration": 0.2,
                "tempo": 120.0
            },
            {
                "start_time": 40.8681818,
                "end_time": 41.0681818,
                "pitch": 48,
                "velocity": 101,
                "duration": 0.2,
                "tempo": 120.0
            },
            {
                "start_time": 41.0681818,
                "end_time": 41.2704545,
                "pitch": 48,
                "velocity": 101,
                "duration": 0.2022727,
                "tempo": 120.0
            },
            {
                "start_time": 41.2704545,
                "end_time": 41.4704545,
                "pitch": 50,
                "velocity": 101,
                "duration": 0.2,
                "tempo": 120.0
            },
            {
                "start_time": 41.4704545,
                "end_time": 41.6704545,
                "pitch": 50,
                "velocity": 101,
                "duration": 0.2,
                "tempo": 120.0
            },
            {
                "start_time": 41.6704545,
                "end_time": 41.8409091,
                "pitch": 50,
                "velocity": 101,
                "duration": 0.1704545,
                "tempo": 120.0
            },
            {
                "start_time": 41.8409091,
                "end_time": 42.0409091,
                "pitch": 50,
                "velocity": 101,
                "duration": 0.2,
                "tempo": 120.0
            },
            {
                "start_time": 42.0409091,
                "end_time": 42.2159091,
                "pitch": 52,
                "velocity": 101,
                "duration": 0.175,
                "tempo": 120.0
            },
            {
                "start_time": 42.2159091,
                "end_time": 42.4,
                "pitch": 52,
                "velocity": 101,
                "duration": 0.1840909,
                "tempo": 120.0
            },
            {
                "start_time": 42.4,
                "end_time": 42.6022727,
                "pitch": 52,
                "velocity": 101,
                "duration": 0.2022727,
                "tempo": 120.0
            },
            {
                "start_time": 42.6022727,
                "end_time": 42.8136364,
                "pitch": 52,
                "velocity": 101,
                "duration": 0.2113636,
                "tempo": 120.0
            },
            {
                "start_time": 42.8136364,
                "end_time": 43.0022727,
                "pitch": 55,
                "velocity": 101,
                "duration": 0.1886364,
                "tempo": 120.0
            },
            {
                "start_time": 43.0022727,
                "end_time": 43.2136364,
                "pitch": 55,
                "velocity": 101,
                "duration": 0.2113636,
                "tempo": 120.0
            },
            {
                "start_time": 43.2136364,
                "end_time": 43.4136364,
                "pitch": 55,
                "velocity": 101,
                "duration": 0.2,
                "tempo": 120.0
            },
            {
                "start_time": 43.4136364,
                "end_time": 43.6136364,
                "pitch": 55,
                "velocity": 101,
                "duration": 0.2,
                "tempo": 120.0
            },
            {
                "start_time": 43.6136364,
                "end_time": 43.8090909,
                "pitch": 46,
                "velocity": 101,
                "duration": 0.1954545,
                "tempo": 120.0
            },
            {
                "start_time": 43.8090909,
                "end_time": 43.9659091,
                "pitch": 46,
                "velocity": 101,
                "duration": 0.1568182,
                "tempo": 120.0
            },
            {
                "start_time": 43.9659091,
                "end_time": 44.15,
                "pitch": 46,
                "velocity": 101,
                "duration": 0.1840909,
                "tempo": 120.0
            },
            {
                "start_time": 44.15,
                "end_time": 44.3363636,
                "pitch": 46,
                "velocity": 101,
                "duration": 0.1863636,
                "tempo": 120.0
            },
            {
                "start_time": 44.3363636,
                "end_time": 44.5363636,
                "pitch": 48,
                "velocity": 101,
                "duration": 0.2,
                "tempo": 120.0
            },
            {
                "start_time": 44.5363636,
                "end_time": 44.7363636,
                "pitch": 48,
                "velocity": 101,
                "duration": 0.2,
                "tempo": 120.0
            },
            {
                "start_time": 44.7363636,
                "end_time": 44.9363636,
                "pitch": 48,
                "velocity": 101,
                "duration": 0.2,
                "tempo": 120.0
            },
            {
                "start_time": 44.9363636,
                "end_time": 45.1386364,
                "pitch": 48,
                "velocity": 101,
                "duration": 0.2022727,
                "tempo": 120.0
            },
            {
                "start_time": 45.1386364,
                "end_time": 45.3386364,
                "pitch": 50,
                "velocity": 101,
                "duration": 0.2,
                "tempo": 120.0
            },
            {
                "start_time": 45.3386364,
                "end_time": 45.5386364,
                "pitch": 50,
                "velocity": 101,
                "duration": 0.2,
                "tempo": 120.0
            },
            {
                "start_time": 45.5386364,
                "end_time": 45.7386364,
                "pitch": 50,
                "velocity": 101,
                "duration": 0.2,
                "tempo": 120.0
            },
            {
                "start_time": 45.7386364,
                "end_time": 45.9386364,
                "pitch": 50,
                "velocity": 101,
                "duration": 0.2,
                "tempo": 120.0
            },
            {
                "start_time": 45.9386364,
                "end_time": 46.1090909,
                "pitch": 53,
                "velocity": 101,
                "duration": 0.1704545,
                "tempo": 120.0
            },
            {
                "start_time": 46.1090909,
                "end_time": 46.3090909,
                "pitch": 53,
                "velocity": 101,
                "duration": 0.2,
                "tempo": 120.0
            },
            {
                "start_time": 46.3090909,
                "end_time": 46.4931818,
                "pitch": 53,
                "velocity": 101,
                "duration": 0.1840909,
                "tempo": 120.0
            },
            {
                "start_time": 46.4931818,
                "end_time": 46.6795455,
                "pitch": 53,
                "velocity": 101,
                "duration": 0.1863636,
                "tempo": 120.0
            },
            {
                "start_time": 46.6795455,
                "end_time": 46.8795455,
                "pitch": 52,
                "velocity": 101,
                "duration": 0.2,
                "tempo": 120.0
            },
            {
                "start_time": 46.8795455,
                "end_time": 47.0795455,
                "pitch": 52,
                "velocity": 101,
                "duration": 0.2,
                "tempo": 120.0
            },
            {
                "start_time": 47.0795455,
                "end_time": 47.2795455,
                "pitch": 52,
                "velocity": 101,
                "duration": 0.2,
                "tempo": 120.0
            },
            {
                "start_time": 47.2795455,
                "end_time": 47.4795455,
                "pitch": 52,
                "velocity": 101,
                "duration": 0.2,
                "tempo": 120.0
            },
            {
                "start_time": 47.4795455,
                "end_time": 47.6795455,
                "pitch": 50,
                "velocity": 101,
                "duration": 0.2,
                "tempo": 120.0
            },
            {
                "start_time": 47.6795455,
                "end_time": 47.8795455,
                "pitch": 50,
                "velocity": 101,
                "duration": 0.2,
                "tempo": 120.0
            },
            {
                "start_time": 47.8795455,
                "end_time": 48.0795455,
                "pitch": 50,
                "velocity": 101,
                "duration": 0.2,
                "tempo": 120.0
            },
            {
                "start_time": 48.0795455,
                "end_time": 48.25,
                "pitch": 50,
                "velocity": 101,
                "duration": 0.1704545,
                "tempo": 120.0
            },
            {
                "start_time": 48.25,
                "end_time": 48.4340909,
                "pitch": 49,
                "velocity": 101,
                "duration": 0.1840909,
                "tempo": 120.0
            },
            {
                "start_time": 48.4340909,
                "end_time": 48.6204545,
                "pitch": 49,
                "velocity": 101,
                "duration": 0.1863636,
                "tempo": 120.0
            },
            {
                "start_time": 48.6204545,
                "end_time": 48.8204545,
                "pitch": 49,
                "velocity": 101,
                "duration": 0.2,
                "tempo": 120.0
            },
            {
                "start_time": 48.8204545,
                "end_time": 49.0204545,
                "pitch": 49,
                "velocity": 101,
                "duration": 0.2,
                "tempo": 120.0
            },
            {
                "start_time": 49.0204545,
                "end_time": 49.2204545,
                "pitch": 52,
                "velocity": 101,
                "duration": 0.2,
                "tempo": 120.0
            },
            {
                "start_time": 49.2204545,
                "end_time": 49.4204545,
                "pitch": 52,
                "velocity": 101,
                "duration": 0.2,
                "tempo": 120.0
            },
            {
                "start_time": 49.4204545,
                "end_time": 49.6204545,
                "pitch": 52,
                "velocity": 101,
                "duration": 0.2,
                "tempo": 120.0
            },
            {
                "start_time": 49.6204545,
                "end_time": 49.8204545,
                "pitch": 52,
                "velocity": 101,
                "duration": 0.2,
                "tempo": 120.0
            },
            {
                "start_time": 49.8204545,
                "end_time": 50.0204545,
                "pitch": 50,
                "velocity": 101,
                "duration": 0.2,
                "tempo": 120.0
            },
            {
                "start_time": 50.0204545,
                "end_time": 50.1818182,
                "pitch": 50,
                "velocity": 101,
                "duration": 0.1613636,
                "tempo": 120.0
            }
        ]
    }
}