{
    "mood": "happy",
    "instruments": {
        "Clarinet": [
            {
                "start_time": 86.5,
                "end_time": 87.8045455,
                "pitch": 64,
                "velocity": 40,
                "duration": 1.3045455,
                "tempo": 120.0
            },
            {
                "start_time": 87.8386364,
                "end_time": 88.0795455,
                "pitch": 62,
                "velocity": 40,
                "duration": 0.2409091,
                "tempo": 120.0
            },
            {
                "start_time": 86.5,
                "end_time": 88.3568182,
                "pitch": 60,
                "velocity": 40,
                "duration": 1.8568182,
                "tempo": 120.0
            },
            {
                "start_time": 88.1159091,
                "end_time": 88.3568182,
                "pitch": 60,
                "velocity": 40,
                "duration": 0.2409091,
                "tempo": 120.0
            },
            {
                "start_time": 87.8386364,
                "end_time": 88.3931818,
                "pitch": 64,
                "velocity": 40,
                "duration": 0.5545455,
                "tempo": 120.0
            },
            {
                "start_time": 88.3931818,
                "end_time": 89.6909091,
                "pitch": 57,
                "velocity": 40,
                "duration": 1.2977273,
                "tempo": 120.0
            },
            {
                "start_time": 89.7272727,
                "end_time": 90.2363636,
                "pitch": 60,
                "velocity": 40,
                "duration": 0.5090909,
                "tempo": 120.0
            },
            {
                "start_time": 88.3931818,
                "end_time": 92.1136364,
                "pitch": 64,
                "velocity": 40,
                "duration": 3.7204545,
                "tempo": 120.0
            },
            {
                "start_time": 90.2704545,
                "end_time": 92.1136364,
                "pitch": 64,
                "velocity": 40,
                "duration": 1.8431818,
                "tempo": 120.0
            },
            {
                "start_time": 88.1159091,
                "end_time": 92.3909091,
                "pitch": 62,
                "velocity": 40,
                "duration": 4.275,
                "tempo": 120.0
            },
            {
                "start_time": 92.15,
                "end_time": 92.3909091,
                "pitch": 62,
                "velocity": 40,
                "duration": 0.2409091,
                "tempo": 120.0
            },
            {
                "start_time": 90.2704545,
                "end_time": 92.6681818,
                "pitch": 60,
                "velocity": 40,
                "duration": 2.3977273,
                "tempo": 120.0
            },
            {
                "start_time": 92.4272727,
                "end_time": 92.6681818,
                "pitch": 60,
                "velocity": 40,
                "duration": 0.2409091,
                "tempo": 120.0
            },
            {
                "start_time": 92.15,
                "end_time": 92.7045455,
                "pitch": 64,
                "velocity": 40,
                "duration": 0.5545455,
                "tempo": 120.0
            },
            {
                "start_time": 92.7045455,
                "end_time": 93.7386364,
                "pitch": 57,
                "velocity": 40,
                "duration": 1.0340909,
                "tempo": 120.0
            },
            {
                "start_time": 93.775,
                "end_time": 94.275,
                "pitch": 69,
                "velocity": 40,
                "duration": 0.5,
                "tempo": 120.0
            },
            {
                "start_time": 94.3090909,
                "end_time": 95.0863636,
                "pitch": 69,
                "velocity": 40,
                "duration": 0.7772727,
                "tempo": 120.0
            },
            {
                "start_time": 92.4272727,
                "end_time": 96.4363636,
                "pitch": 62,
                "velocity": 40,
                "duration": 4.0090909,
                "tempo": 120.0
            },
            {
                "start_time": 95.1204545,
                "end_time": 96.4363636,
                "pitch": 62,
                "velocity": 40,
                "duration": 1.3159091,
                "tempo": 120.0
            },
            {
                "start_time": 92.7045455,
                "end_time": 96.7045455,
                "pitch": 64,
                "velocity": 40,
                "duration": 4.0,
                "tempo": 120.0
            },
            {
                "start_time": 96.4704545,
                "end_time": 96.7045455,
                "pitch": 64,
                "velocity": 40,
                "duration": 0.2340909,
                "tempo": 120.0
            },
            {
                "start_time": 96.7409091,
                "end_time": 96.9772727,
                "pitch": 64,
                "velocity": 40,
                "duration": 0.2363636,
                "tempo": 120.0
            },
            {
                "start_time": 97.0136364,
                "end_time": 98.5931818,
                "pitch": 69,
                "velocity": 40,
                "duration": 1.5795455,
                "tempo": 120.0
            },
            {
                "start_time": 98.6295455,
                "end_time": 98.8613636,
                "pitch": 69,
                "velocity": 40,
                "duration": 0.2318182,
                "tempo": 120.0
            },
            {
                "start_time": 95.1204545,
                "end_time": 98.8954545,
                "pitch": 0,
                "velocity": 40,
                "duration": 3.775,
                "tempo": 120.0
            },
            {
                "start_time": 98.8954545,
                "end_time": 99.1295455,
                "pitch": 65,
                "velocity": 40,
                "duration": 0.2340909,
                "tempo": 120.0
            },
            {
                "start_time": 96.4704545,
                "end_time": 100.7431818,
                "pitch": 62,
                "velocity": 40,
                "duration": 4.2727273,
                "tempo": 120.0
            },
            {
                "start_time": 99.1636364,
                "end_time": 100.7431818,
                "pitch": 62,
                "velocity": 40,
                "duration": 1.5795455,
                "tempo": 120.0
            },
            {
                "start_time": 100.7795455,
                "end_time": 101.0159091,
                "pitch": 64,
                "velocity": 40,
                "duration": 0.2363636,
                "tempo": 120.0
            },
            {
                "start_time": 101.0522727,
                "end_time": 101.2863636,
                "pitch": 64,
                "velocity": 40,
                "duration": 0.2340909,
                "tempo": 120.0
            },
            {
                "start_time": 97.0136364,
                "end_time": 101.3227273,
                "pitch": 78,
                "velocity": 40,
                "duration": 4.3090909,
                "tempo": 120.0
            },
            {
                "start_time": 101.3227273,
                "end_time": 102.9022727,
                "pitch": 69,
                "velocity": 40,
                "duration": 1.5795455,
                "tempo": 120.0
            },
            {
                "start_time": 102.9386364,
                "end_time": 103.175,
                "pitch": 57,
                "velocity": 40,
                "duration": 0.2363636,
                "tempo": 120.0
            },
            {
                "start_time": 103.2113636,
                "end_time": 103.4477273,
                "pitch": 57,
                "velocity": 40,
                "duration": 0.2363636,
                "tempo": 120.0
            },
            {
                "start_time": 103.4840909,
                "end_time": 103.7204545,
                "pitch": 60,
                "velocity": 40,
                "duration": 0.2363636,
                "tempo": 120.0
            },
            {
                "start_time": 103.7545455,
                "end_time": 104.5204545,
                "pitch": 58,
                "velocity": 40,
                "duration": 0.7659091,
                "tempo": 120.0
            },
            {
                "start_time": 104.5545455,
                "end_time": 105.325,
                "pitch": 70,
                "velocity": 40,
                "duration": 0.7704545,
                "tempo": 120.0
            },
            {
                "start_time": 105.3590909,
                "end_time": 105.8704545,
                "pitch": 70,
                "velocity": 40,
                "duration": 0.5113636,
                "tempo": 120.0
            },
            {
                "start_time": 105.9045455,
                "end_time": 106.6704545,
                "pitch": 69,
                "velocity": 40,
                "duration": 0.7659091,
                "tempo": 120.0
            },
            {
                "start_time": 98.8954545,
                "end_time": 106.7045455,
                "pitch": 0,
                "velocity": 40,
                "duration": 7.8090909,
                "tempo": 120.0
            },
            {
                "start_time": 99.1636364,
                "end_time": 107.4863636,
                "pitch": 65,
                "velocity": 40,
                "duration": 8.3227273,
                "tempo": 120.0
            },
            {
                "start_time": 106.7045455,
                "end_time": 107.4863636,
                "pitch": 65,
                "velocity": 40,
                "duration": 0.7818182,
                "tempo": 120.0
            },
            {
                "start_time": 100.7795455,
                "end_time": 108.0295455,
                "pitch": 62,
                "velocity": 40,
                "duration": 7.25,
                "tempo": 120.0
            },
            {
                "start_time": 107.5204545,
                "end_time": 108.0295455,
                "pitch": 62,
                "velocity": 40,
                "duration": 0.5090909,
                "tempo": 120.0
            },
            {
                "start_time": 108.0636364,
                "end_time": 108.0659091,
                "pitch": 62,
                "velocity": 40,
                "duration": 0.0022727,
                "tempo": 120.0
            },
            {
                "start_time": 103.7545455,
                "end_time": 108.8295455,
                "pitch": 64,
                "velocity": 40,
                "duration": 5.075,
                "tempo": 120.0
            },
            {
                "start_time": 108.0659091,
                "end_time": 108.8295455,
                "pitch": 64,
                "velocity": 40,
                "duration": 0.7636364,
                "tempo": 120.0
            },
            {
                "start_time": 108.8636364,
                "end_time": 109.6409091,
                "pitch": 74,
                "velocity": 40,
                "duration": 0.7772727,
                "tempo": 120.0
            },
            {
                "start_time": 109.675,
                "end_time": 110.1863636,
                "pitch": 72,
                "velocity": 40,
                "duration": 0.5113636,
                "tempo": 120.0
            },
            {
                "start_time": 108.8636364,
                "end_time": 110.2204545,
                "pitch": 76,
                "velocity": 40,
                "duration": 1.3568182,
                "tempo": 120.0
            },
            {
                "start_time": 110.2204545,
                "end_time": 110.9886364,
                "pitch": 70,
                "velocity": 40,
                "duration": 0.7681818,
                "tempo": 120.0
            },
            {
                "start_time": 111.0227273,
                "end_time": 111.7954545,
                "pitch": 70,
                "velocity": 40,
                "duration": 0.7727273,
                "tempo": 120.0
            },
            {
                "start_time": 111.8295455,
                "end_time": 112.3409091,
                "pitch": 69,
                "velocity": 40,
                "duration": 0.5113636,
                "tempo": 120.0
            },
            {
                "start_time": 112.375,
                "end_time": 113.675,
                "pitch": 67,
                "velocity": 40,
                "duration": 1.3,
                "tempo": 120.0
            },
            {
                "start_time": 109.675,
                "end_time": 113.95,
                "pitch": 74,
                "velocity": 40,
                "duration": 4.275,
                "tempo": 120.0
            },
            {
                "start_time": 113.7090909,
                "end_time": 113.95,
                "pitch": 74,
                "velocity": 40,
                "duration": 0.2409091,
                "tempo": 120.0
            },
            {
                "start_time": 110.2204545,
                "end_time": 114.2272727,
                "pitch": 76,
                "velocity": 40,
                "duration": 4.0068182,
                "tempo": 120.0
            },
            {
                "start_time": 113.9863636,
                "end_time": 114.2272727,
                "pitch": 76,
                "velocity": 40,
                "duration": 0.2409091,
                "tempo": 120.0
            },
            {
                "start_time": 114.2636364,
                "end_time": 116.3772727,
                "pitch": 76,
                "velocity": 40,
                "duration": 2.1136364,
                "tempo": 120.0
            },
            {
                "start_time": 116.4136364,
                "end_time": 117.4590909,
                "pitch": 81,
                "velocity": 40,
                "duration": 1.0454545,
                "tempo": 120.0
            },
            {
                "start_time": 113.7090909,
                "end_time": 117.4931818,
                "pitch": 42,
                "velocity": 40,
                "duration": 3.7840909,
                "tempo": 120.0
            },
            {
                "start_time": 113.9863636,
                "end_time": 118.2659091,
                "pitch": 74,
                "velocity": 40,
                "duration": 4.2795455,
                "tempo": 120.0
            },
            {
                "start_time": 117.4931818,
                "end_time": 118.2659091,
                "pitch": 74,
                "velocity": 40,
                "duration": 0.7727273,
                "tempo": 120.0
            },
            {
                "start_time": 118.3022727,
                "end_time": 118.5386364,
                "pitch": 76,
                "velocity": 40,
                "duration": 0.2363636,
                "tempo": 120.0
            },
            {
                "start_time": 107.5204545,
                "end_time": 120.4568182,
                "pitch": 65,
                "velocity": 40,
                "duration": 12.9363636,
                "tempo": 120.0
            },
            {
                "start_time": 118.5727273,
                "end_time": 120.4568182,
                "pitch": 76,
                "velocity": 40,
                "duration": 1.8840909,
                "tempo": 120.0
            },
            {
                "start_time": 120.4568182,
                "end_time": 120.6977273,
                "pitch": 62,
                "velocity": 40,
                "duration": 0.2409091,
                "tempo": 120.0
            },
            {
                "start_time": 120.7340909,
                "end_time": 122.3045455,
                "pitch": 70,
                "velocity": 40,
                "duration": 1.5704545,
                "tempo": 120.0
            },
            {
                "start_time": 122.3386364,
                "end_time": 122.5772727,
                "pitch": 70,
                "velocity": 40,
                "duration": 0.2386364,
                "tempo": 120.0
            },
            {
                "start_time": 122.6113636,
                "end_time": 122.8477273,
                "pitch": 69,
                "velocity": 40,
                "duration": 0.2363636,
                "tempo": 120.0
            },
            {
                "start_time": 106.7045455,
                "end_time": 122.8840909,
                "pitch": 0,
                "velocity": 40,
                "duration": 16.1795455,
                "tempo": 120.0
            },
            {
                "start_time": 122.8840909,
                "end_time": 123.9204545,
                "pitch": 62,
                "velocity": 40,
                "duration": 1.0363636,
                "tempo": 120.0
            },
            {
                "start_time": 120.4568182,
                "end_time": 124.7363636,
                "pitch": 65,
                "velocity": 40,
                "duration": 4.2795455,
                "tempo": 120.0
            },
            {
                "start_time": 123.9545455,
                "end_time": 124.7363636,
                "pitch": 65,
                "velocity": 40,
                "duration": 0.7818182,
                "tempo": 120.0
            },
            {
                "start_time": 124.7704545,
                "end_time": 125.2772727,
                "pitch": 65,
                "velocity": 40,
                "duration": 0.5068182,
                "tempo": 120.0
            },
            {
                "start_time": 125.3113636,
                "end_time": 126.0795455,
                "pitch": 60,
                "velocity": 40,
                "duration": 0.7681818,
                "tempo": 120.0
            },
            {
                "start_time": 125.3113636,
                "end_time": 126.8954545,
                "pitch": 64,
                "velocity": 40,
                "duration": 1.5840909,
                "tempo": 120.0
            },
            {
                "start_time": 126.1136364,
                "end_time": 126.8954545,
                "pitch": 64,
                "velocity": 40,
                "duration": 0.7818182,
                "tempo": 120.0
            },
            {
                "start_time": 123.9545455,
                "end_time": 127.4363636,
                "pitch": 62,
                "velocity": 40,
                "duration": 3.4818182,
                "tempo": 120.0
            },
            {
                "start_time": 126.9318182,
                "end_time": 127.4363636,
                "pitch": 62,
                "velocity": 40,
                "duration": 0.5045455,
                "tempo": 120.0
            },
            {
                "start_time": 126.1136364,
                "end_time": 128.2386364,
                "pitch": 60,
                "velocity": 40,
                "duration": 2.125,
                "tempo": 120.0
            },
            {
                "start_time": 127.4704545,
                "end_time": 128.2386364,
                "pitch": 60,
                "velocity": 25,
                "duration": 0.7681818,
                "tempo": 120.0
            },
            {
                "start_time": 126.9318182,
                "end_time": 129.0454545,
                "pitch": 64,
                "velocity": 40,
                "duration": 2.1136364,
                "tempo": 120.0
            },
            {
                "start_time": 128.2727273,
                "end_time": 129.0454545,
                "pitch": 64,
                "velocity": 25,
                "duration": 0.7727273,
                "tempo": 120.0
            },
            {
                "start_time": 127.4704545,
                "end_time": 129.3181818,
                "pitch": 62,
                "velocity": 25,
                "duration": 1.8477273,
                "tempo": 120.0
            },
            {
                "start_time": 129.0818182,
                "end_time": 129.3181818,
                "pitch": 62,
                "velocity": 25,
                "duration": 0.2363636,
                "tempo": 120.0
            }
        ],
        "Oboe": [
            {
                "start_time": 34.4840909,
                "end_time": 34.8681818,
                "pitch": 46,
                "velocity": 80,
                "duration": 0.3840909,
                "tempo": 120.0
            },
            {
                "start_time": 34.8840909,
                "end_time": 35.2681818,
                "pitch": 48,
                "velocity": 80,
                "duration": 0.3840909,
                "tempo": 120.0
            },
            {
                "start_time": 35.2863636,
                "end_time": 35.5363636,
                "pitch": 50,
                "velocity": 80,
                "duration": 0.25,
                "tempo": 120.0
            },
            {
                "start_time": 35.5522727,
                "end_time": 35.9431818,
                "pitch": 52,
                "velocity": 80,
                "duration": 0.3909091,
                "tempo": 120.0
            },
            {
                "start_time": 35.9613636,
                "end_time": 36.3477273,
                "pitch": 52,
                "velocity": 80,
                "duration": 0.3863636,
                "tempo": 120.0
            },
            {
                "start_time": 36.3659091,
                "end_time": 36.6159091,
                "pitch": 55,
                "velocity": 80,
                "duration": 0.25,
                "tempo": 120.0
            },
            {
                "start_time": 36.6318182,
                "end_time": 37.0227273,
                "pitch": 52,
                "velocity": 80,
                "duration": 0.3909091,
                "tempo": 120.0
            },
            {
                "start_time": 35.5522727,
                "end_time": 37.4272727,
                "pitch": 50,
                "velocity": 80,
                "duration": 1.875,
                "tempo": 120.0
            },
            {
                "start_time": 37.0409091,
                "end_time": 37.4272727,
                "pitch": 50,
                "velocity": 80,
                "duration": 0.3863636,
                "tempo": 120.0
            },
            {
                "start_time": 35.2863636,
                "end_time": 37.6954545,
                "pitch": 48,
                "velocity": 80,
                "duration": 2.4090909,
                "tempo": 120.0
            },
            {
                "start_time": 37.4454545,
                "end_time": 37.6954545,
                "pitch": 48,
                "velocity": 80,
                "duration": 0.25,
                "tempo": 120.0
            },
            {
                "start_time": 37.0409091,
                "end_time": 37.7136364,
                "pitch": 52,
                "velocity": 80,
                "duration": 0.6727273,
                "tempo": 120.0
            },
            {
                "start_time": 37.7136364,
                "end_time": 38.775,
                "pitch": 45,
                "velocity": 80,
                "duration": 1.0613636,
                "tempo": 120.0
            },
            {
                "start_time": 38.7931818,
                "end_time": 39.1772727,
                "pitch": 45,
                "velocity": 80,
                "duration": 0.3840909,
                "tempo": 120.0
            },
            {
                "start_time": 34.8840909,
                "end_time": 39.1931818,
                "pitch": 26,
                "velocity": 80,
                "duration": 4.3090909,
                "tempo": 120.0
            },
            {
                "start_time": 39.1931818,
                "end_time": 39.5772727,
                "pitch": 48,
                "velocity": 80,
                "duration": 0.3840909,
                "tempo": 120.0
            },
            {
                "start_time": 37.4454545,
                "end_time": 39.8454545,
                "pitch": 50,
                "velocity": 80,
                "duration": 2.4,
                "tempo": 120.0
            },
            {
                "start_time": 39.5954545,
                "end_time": 39.8454545,
                "pitch": 50,
                "velocity": 80,
                "duration": 0.25,
                "tempo": 120.0
            },
            {
                "start_time": 37.7136364,
                "end_time": 40.2545455,
                "pitch": 52,
                "velocity": 80,
                "duration": 2.5409091,
                "tempo": 120.0
            },
            {
                "start_time": 39.8636364,
                "end_time": 40.2545455,
                "pitch": 52,
                "velocity": 80,
                "duration": 0.3909091,
                "tempo": 120.0
            },
            {
                "start_time": 40.2704545,
                "end_time": 40.6613636,
                "pitch": 52,
                "velocity": 80,
                "duration": 0.3909091,
                "tempo": 120.0
            },
            {
                "start_time": 36.3659091,
                "end_time": 40.6795455,
                "pitch": 66,
                "velocity": 80,
                "duration": 4.3136364,
                "tempo": 120.0
            },
            {
                "start_time": 40.6795455,
                "end_time": 40.9340909,
                "pitch": 55,
                "velocity": 80,
                "duration": 0.2545455,
                "tempo": 120.0
            },
            {
                "start_time": 36.6318182,
                "end_time": 40.9522727,
                "pitch": 0,
                "velocity": 80,
                "duration": 4.3204545,
                "tempo": 120.0
            },
            {
                "start_time": 39.5954545,
                "end_time": 43.0840909,
                "pitch": 48,
                "velocity": 80,
                "duration": 3.4886364,
                "tempo": 120.0
            },
            {
                "start_time": 40.9522727,
                "end_time": 43.0840909,
                "pitch": 48,
                "velocity": 80,
                "duration": 2.1318182,
                "tempo": 120.0
            },
            {
                "start_time": 43.1022727,
                "end_time": 43.4931818,
                "pitch": 46,
                "velocity": 80,
                "duration": 0.3909091,
                "tempo": 120.0
            },
            {
                "start_time": 39.1931818,
                "end_time": 43.5113636,
                "pitch": 26,
                "velocity": 80,
                "duration": 4.3181818,
                "tempo": 120.0
            },
            {
                "start_time": 43.5113636,
                "end_time": 43.8931818,
                "pitch": 48,
                "velocity": 80,
                "duration": 0.3818182,
                "tempo": 120.0
            },
            {
                "start_time": 39.8636364,
                "end_time": 44.1568182,
                "pitch": 50,
                "velocity": 80,
                "duration": 4.2931818,
                "tempo": 120.0
            },
            {
                "start_time": 43.9090909,
                "end_time": 44.1568182,
                "pitch": 50,
                "velocity": 80,
                "duration": 0.2477273,
                "tempo": 120.0
            },
            {
                "start_time": 43.1022727,
                "end_time": 44.5636364,
                "pitch": 52,
                "velocity": 80,
                "duration": 1.4613636,
                "tempo": 120.0
            },
            {
                "start_time": 44.1727273,
                "end_time": 44.5636364,
                "pitch": 52,
                "velocity": 80,
                "duration": 0.3909091,
                "tempo": 120.0
            },
            {
                "start_time": 44.5818182,
                "end_time": 44.9681818,
                "pitch": 52,
                "velocity": 80,
                "duration": 0.3863636,
                "tempo": 120.0
            },
            {
                "start_time": 40.6795455,
                "end_time": 44.9840909,
                "pitch": 66,
                "velocity": 80,
                "duration": 4.3045455,
                "tempo": 120.0
            },
            {
                "start_time": 44.9840909,
                "end_time": 45.2363636,
                "pitch": 55,
                "velocity": 80,
                "duration": 0.2522727,
                "tempo": 120.0
            },
            {
                "start_time": 45.2522727,
                "end_time": 45.6431818,
                "pitch": 55,
                "velocity": 80,
                "duration": 0.3909091,
                "tempo": 120.0
            },
            {
                "start_time": 45.6613636,
                "end_time": 46.0477273,
                "pitch": 53,
                "velocity": 80,
                "duration": 0.3863636,
                "tempo": 120.0
            },
            {
                "start_time": 44.9840909,
                "end_time": 46.0636364,
                "pitch": 66,
                "velocity": 80,
                "duration": 1.0795455,
                "tempo": 120.0
            },
            {
                "start_time": 46.0636364,
                "end_time": 46.3159091,
                "pitch": 55,
                "velocity": 80,
                "duration": 0.2522727,
                "tempo": 120.0
            },
            {
                "start_time": 46.3318182,
                "end_time": 46.5863636,
                "pitch": 55,
                "velocity": 80,
                "duration": 0.2545455,
                "tempo": 120.0
            },
            {
                "start_time": 46.8772727,
                "end_time": 47.3954545,
                "pitch": 57,
                "velocity": 80,
                "duration": 0.5181818,
                "tempo": 120.0
            },
            {
                "start_time": 47.4113636,
                "end_time": 47.8022727,
                "pitch": 57,
                "velocity": 80,
                "duration": 0.3909091,
                "tempo": 120.0
            },
            {
                "start_time": 47.8204545,
                "end_time": 48.2068182,
                "pitch": 57,
                "velocity": 80,
                "duration": 0.3863636,
                "tempo": 120.0
            },
            {
                "start_time": 40.9522727,
                "end_time": 48.225,
                "pitch": 0,
                "velocity": 80,
                "duration": 7.2727273,
                "tempo": 120.0
            },
            {
                "start_time": 48.225,
                "end_time": 48.475,
                "pitch": 53,
                "velocity": 80,
                "duration": 0.25,
                "tempo": 120.0
            },
            {
                "start_time": 44.1727273,
                "end_time": 48.875,
                "pitch": 50,
                "velocity": 80,
                "duration": 4.7022727,
                "tempo": 120.0
            },
            {
                "start_time": 48.4909091,
                "end_time": 48.875,
                "pitch": 50,
                "velocity": 80,
                "duration": 0.3840909,
                "tempo": 120.0
            },
            {
                "start_time": 48.8931818,
                "end_time": 49.2818182,
                "pitch": 52,
                "velocity": 80,
                "duration": 0.3886364,
                "tempo": 120.0
            },
            {
                "start_time": 49.3,
                "end_time": 49.5545455,
                "pitch": 52,
                "velocity": 80,
                "duration": 0.2545455,
                "tempo": 120.0
            },
            {
                "start_time": 46.0636364,
                "end_time": 49.5704545,
                "pitch": 66,
                "velocity": 80,
                "duration": 3.5068182,
                "tempo": 120.0
            },
            {
                "start_time": 48.225,
                "end_time": 50.225,
                "pitch": 0,
                "velocity": 80,
                "duration": 2.0,
                "tempo": 120.0
            },
            {
                "start_time": 49.5704545,
                "end_time": 50.225,
                "pitch": 55,
                "velocity": 80,
                "duration": 0.6545455,
                "tempo": 120.0
            },
            {
                "start_time": 50.225,
                "end_time": 50.2431818,
                "pitch": 55,
                "velocity": 80,
                "duration": 0.0181818,
                "tempo": 120.0
            },
            {
                "start_time": 50.225,
                "end_time": 50.3613636,
                "pitch": 0,
                "velocity": 80,
                "duration": 0.1363636,
                "tempo": 120.0
            },
            {
                "start_time": 50.2431818,
                "end_time": 50.3613636,
                "pitch": 55,
                "velocity": 80,
                "duration": 0.1181818,
                "tempo": 120.0
            },
            {
                "start_time": 50.3613636,
                "end_time": 50.3795455,
                "pitch": 55,
                "velocity": 80,
                "duration": 0.0181818,
                "tempo": 120.0
            },
            {
                "start_time": 50.2431818,
                "end_time": 50.3795455,
                "pitch": 67,
                "velocity": 80,
                "duration": 0.1363636,
                "tempo": 120.0
            },
            {
                "start_time": 50.3613636,
                "end_time": 50.4977273,
                "pitch": 0,
                "velocity": 80,
                "duration": 0.1363636,
                "tempo": 120.0
            },
            {
                "start_time": 50.3795455,
                "end_time": 50.4977273,
                "pitch": 55,
                "velocity": 80,
                "duration": 0.1181818,
                "tempo": 120.0
            },
            {
                "start_time": 50.4977273,
                "end_time": 50.5136364,
                "pitch": 55,
                "velocity": 80,
                "duration": 0.0159091,
                "tempo": 120.0
            },
            {
                "start_time": 50.3795455,
                "end_time": 50.5136364,
                "pitch": 67,
                "velocity": 80,
                "duration": 0.1340909,
                "tempo": 120.0
            },
            {
                "start_time": 50.4977273,
                "end_time": 50.6340909,
                "pitch": 0,
                "velocity": 80,
                "duration": 0.1363636,
                "tempo": 120.0
            },
            {
                "start_time": 50.5136364,
                "end_time": 50.6340909,
                "pitch": 55,
                "velocity": 80,
                "duration": 0.1204545,
                "tempo": 120.0
            },
            {
                "start_time": 50.6340909,
                "end_time": 50.65,
                "pitch": 55,
                "velocity": 80,
                "duration": 0.0159091,
                "tempo": 120.0
            },
            {
                "start_time": 50.5136364,
                "end_time": 50.65,
                "pitch": 67,
                "velocity": 80,
                "duration": 0.1363636,
                "tempo": 120.0
            },
            {
                "start_time": 50.6340909,
                "end_time": 50.7681818,
                "pitch": 0,
                "velocity": 80,
                "duration": 0.1340909,
                "tempo": 120.0
            },
            {
                "start_time": 50.65,
                "end_time": 50.7681818,
                "pitch": 55,
                "velocity": 80,
                "duration": 0.1181818,
                "tempo": 120.0
            },
            {
                "start_time": 50.7681818,
                "end_time": 50.7840909,
                "pitch": 55,
                "velocity": 80,
                "duration": 0.0159091,
                "tempo": 120.0
            },
            {
                "start_time": 50.65,
                "end_time": 50.7840909,
                "pitch": 67,
                "velocity": 80,
                "duration": 0.1340909,
                "tempo": 120.0
            },
            {
                "start_time": 50.7681818,
                "end_time": 50.9022727,
                "pitch": 0,
                "velocity": 80,
                "duration": 0.1340909,
                "tempo": 120.0
            },
            {
                "start_time": 50.7840909,
                "end_time": 50.9022727,
                "pitch": 55,
                "velocity": 80,
                "duration": 0.1181818,
                "tempo": 120.0
            },
            {
                "start_time": 50.9022727,
                "end_time": 50.9181818,
                "pitch": 55,
                "velocity": 80,
                "duration": 0.0159091,
                "tempo": 120.0
            },
            {
                "start_time": 50.7840909,
                "end_time": 50.9181818,
                "pitch": 67,
                "velocity": 80,
                "duration": 0.1340909,
                "tempo": 120.0
            },
            {
                "start_time": 50.9022727,
                "end_time": 51.0363636,
                "pitch": 0,
                "velocity": 80,
                "duration": 0.1340909,
                "tempo": 120.0
            },
            {
                "start_time": 50.9181818,
                "end_time": 51.0363636,
                "pitch": 55,
                "velocity": 80,
                "duration": 0.1181818,
                "tempo": 120.0
            },
            {
                "start_time": 51.0363636,
                "end_time": 51.0522727,
                "pitch": 55,
                "velocity": 80,
                "duration": 0.0159091,
                "tempo": 120.0
            },
            {
                "start_time": 50.9181818,
                "end_time": 51.0522727,
                "pitch": 67,
                "velocity": 80,
                "duration": 0.1340909,
                "tempo": 120.0
            },
            {
                "start_time": 51.0363636,
                "end_time": 51.1704545,
                "pitch": 0,
                "velocity": 80,
                "duration": 0.1340909,
                "tempo": 120.0
            },
            {
                "start_time": 51.0522727,
                "end_time": 51.1704545,
                "pitch": 55,
                "velocity": 80,
                "duration": 0.1181818,
                "tempo": 120.0
            },
            {
                "start_time": 51.1704545,
                "end_time": 51.1863636,
                "pitch": 55,
                "velocity": 80,
                "duration": 0.0159091,
                "tempo": 120.0
            },
            {
                "start_time": 51.0522727,
                "end_time": 51.1863636,
                "pitch": 67,
                "velocity": 80,
                "duration": 0.1340909,
                "tempo": 120.0
            },
            {
                "start_time": 51.1704545,
                "end_time": 51.3022727,
                "pitch": 0,
                "velocity": 80,
                "duration": 0.1318182,
                "tempo": 120.0
            },
            {
                "start_time": 51.1863636,
                "end_time": 51.3022727,
                "pitch": 55,
                "velocity": 80,
                "duration": 0.1159091,
                "tempo": 120.0
            },
            {
                "start_time": 51.3022727,
                "end_time": 51.3204545,
                "pitch": 55,
                "velocity": 80,
                "duration": 0.0181818,
                "tempo": 120.0
            },
            {
                "start_time": 51.1863636,
                "end_time": 51.3204545,
                "pitch": 67,
                "velocity": 80,
                "duration": 0.1340909,
                "tempo": 120.0
            },
            {
                "start_time": 51.3022727,
                "end_time": 51.4363636,
                "pitch": 0,
                "velocity": 80,
                "duration": 0.1340909,
                "tempo": 120.0
            },
            {
                "start_time": 51.3204545,
                "end_time": 51.4363636,
                "pitch": 55,
                "velocity": 80,
                "duration": 0.1159091,
                "tempo": 120.0
            },
            {
                "start_time": 51.4363636,
                "end_time": 51.4545455,
                "pitch": 55,
                "velocity": 80,
                "duration": 0.0181818,
                "tempo": 120.0
            },
            {
                "start_time": 51.3204545,
                "end_time": 51.4545455,
                "pitch": 67,
                "velocity": 80,
                "duration": 0.1340909,
                "tempo": 120.0
            },
            {
                "start_time": 51.4363636,
                "end_time": 51.5704545,
                "pitch": 0,
                "velocity": 80,
                "duration": 0.1340909,
                "tempo": 120.0
            },
            {
                "start_time": 51.4545455,
                "end_time": 51.5704545,
                "pitch": 55,
                "velocity": 80,
                "duration": 0.1159091,
                "tempo": 120.0
            },
            {
                "start_time": 51.5704545,
                "end_time": 51.5863636,
                "pitch": 55,
                "velocity": 80,
                "duration": 0.0159091,
                "tempo": 120.0
            },
            {
                "start_time": 51.4545455,
                "end_time": 51.5886364,
                "pitch": 67,
                "velocity": 80,
                "duration": 0.1340909,
                "tempo": 120.0
            },
            {
                "start_time": 51.5863636,
                "end_time": 51.5886364,
                "pitch": 67,
                "velocity": 80,
                "duration": 0.0022727,
                "tempo": 120.0
            },
            {
                "start_time": 51.5886364,
                "end_time": 51.7045455,
                "pitch": 55,
                "velocity": 80,
                "duration": 0.1159091,
                "tempo": 120.0
            }
        ],
        "French Horn": [
            {
                "start_time": 68.9772727,
                "end_time": 72.2227273,
                "pitch": 48,
                "velocity": 64,
                "duration": 3.2454545,
                "tempo": 120.0
            },
            {
                "start_time": 72.5090909,
                "end_time": 72.7590909,
                "pitch": 46,
                "velocity": 64,
                "duration": 0.25,
                "tempo": 120.0
            },
            {
                "start_time": 72.9090909,
                "end_time": 73.2954545,
                "pitch": 46,
                "velocity": 64,
                "duration": 0.3863636,
                "tempo": 120.0
            },
            {
                "start_time": 73.3136364,
                "end_time": 76.5340909,
                "pitch": 48,
                "velocity": 64,
                "duration": 3.2204545,
                "tempo": 120.0
            },
            {
                "start_time": 76.8181818,
                "end_time": 77.0704545,
                "pitch": 48,
                "velocity": 64,
                "duration": 0.2522727,
                "tempo": 120.0
            },
            {
                "start_time": 77.2227273,
                "end_time": 77.6136364,
                "pitch": 48,
                "velocity": 64,
                "duration": 0.3909091,
                "tempo": 120.0
            },
            {
                "start_time": 77.6318182,
                "end_time": 80.8522727,
                "pitch": 48,
                "velocity": 64,
                "duration": 3.2204545,
                "tempo": 120.0
            },
            {
                "start_time": 72.5090909,
                "end_time": 81.1295455,
                "pitch": 52,
                "velocity": 64,
                "duration": 8.6204545,
                "tempo": 120.0
            },
            {
                "start_time": 81.1295455,
                "end_time": 81.3704545,
                "pitch": 46,
                "velocity": 64,
                "duration": 0.2409091,
                "tempo": 120.0
            },
            {
                "start_time": 81.525,
                "end_time": 81.9227273,
                "pitch": 46,
                "velocity": 64,
                "duration": 0.3977273,
                "tempo": 120.0
            },
            {
                "start_time": 73.3136364,
                "end_time": 81.9431818,
                "pitch": 26,
                "velocity": 64,
                "duration": 8.6295455,
                "tempo": 120.0
            },
            {
                "start_time": 81.9431818,
                "end_time": 85.1613636,
                "pitch": 48,
                "velocity": 64,
                "duration": 3.2181818,
                "tempo": 120.0
            },
            {
                "start_time": 85.4454545,
                "end_time": 85.6909091,
                "pitch": 48,
                "velocity": 64,
                "duration": 0.2454545,
                "tempo": 120.0
            },
            {
                "start_time": 85.8363636,
                "end_time": 86.2068182,
                "pitch": 48,
                "velocity": 64,
                "duration": 0.3704545,
                "tempo": 120.0
            }
        ],
        "Acoustic Bass": [
            {
                "start_time": 0.0022727,
                "end_time": 0.3795455,
                "pitch": 41,
                "velocity": 64,
                "duration": 0.3772727,
                "tempo": 120.0
            },
            {
                "start_time": 0.3977273,
                "end_time": 0.5136364,
                "pitch": 41,
                "velocity": 64,
                "duration": 0.1159091,
                "tempo": 120.0
            },
            {
                "start_time": 0.7954545,
                "end_time": 1.5840909,
                "pitch": 41,
                "velocity": 64,
                "duration": 0.7886364,
                "tempo": 120.0
            },
            {
                "start_time": 1.6022727,
                "end_time": 2.1204545,
                "pitch": 36,
                "velocity": 64,
                "duration": 0.5181818,
                "tempo": 120.0
            },
            {
                "start_time": 1.6022727,
                "end_time": 2.5272727,
                "pitch": 41,
                "velocity": 64,
                "duration": 0.925,
                "tempo": 120.0
            },
            {
                "start_time": 2.1386364,
                "end_time": 2.5272727,
                "pitch": 41,
                "velocity": 64,
                "duration": 0.3886364,
                "tempo": 120.0
            },
            {
                "start_time": 2.5454545,
                "end_time": 2.6636364,
                "pitch": 41,
                "velocity": 64,
                "duration": 0.1181818,
                "tempo": 120.0
            },
            {
                "start_time": 2.9477273,
                "end_time": 3.7340909,
                "pitch": 41,
                "velocity": 64,
                "duration": 0.7863636,
                "tempo": 120.0
            },
            {
                "start_time": 2.1386364,
                "end_time": 4.2795455,
                "pitch": 36,
                "velocity": 64,
                "duration": 2.1409091,
                "tempo": 120.0
            },
            {
                "start_time": 3.7522727,
                "end_time": 4.2795455,
                "pitch": 36,
                "velocity": 64,
                "duration": 0.5272727,
                "tempo": 120.0
            },
            {
                "start_time": 3.7522727,
                "end_time": 4.6795455,
                "pitch": 41,
                "velocity": 64,
                "duration": 0.9272727,
                "tempo": 120.0
            },
            {
                "start_time": 4.2954545,
                "end_time": 4.6795455,
                "pitch": 41,
                "velocity": 64,
                "duration": 0.3840909,
                "tempo": 120.0
            },
            {
                "start_time": 4.6977273,
                "end_time": 4.8136364,
                "pitch": 41,
                "velocity": 64,
                "duration": 0.1159091,
                "tempo": 120.0
            },
            {
                "start_time": 5.1045455,
                "end_time": 5.8931818,
                "pitch": 41,
                "velocity": 64,
                "duration": 0.7886364,
                "tempo": 120.0
            },
            {
                "start_time": 5.9113636,
                "end_time": 6.4295455,
                "pitch": 41,
                "velocity": 64,
                "duration": 0.5181818,
                "tempo": 120.0
            },
            {
                "start_time": 6.4477273,
                "end_time": 6.8363636,
                "pitch": 43,
                "velocity": 64,
                "duration": 0.3886364,
                "tempo": 120.0
            },
            {
                "start_time": 6.8545455,
                "end_time": 6.9727273,
                "pitch": 43,
                "velocity": 64,
                "duration": 0.1181818,
                "tempo": 120.0
            },
            {
                "start_time": 7.2590909,
                "end_time": 8.0431818,
                "pitch": 43,
                "velocity": 64,
                "duration": 0.7840909,
                "tempo": 120.0
            },
            {
                "start_time": 0.0022727,
                "end_time": 8.0613636,
                "pitch": 0,
                "velocity": 64,
                "duration": 8.0590909,
                "tempo": 120.0
            },
            {
                "start_time": 8.0613636,
                "end_time": 8.5886364,
                "pitch": 38,
                "velocity": 64,
                "duration": 0.5272727,
                "tempo": 120.0
            },
            {
                "start_time": 8.6068182,
                "end_time": 8.9909091,
                "pitch": 43,
                "velocity": 64,
                "duration": 0.3840909,
                "tempo": 120.0
            },
            {
                "start_time": 9.0068182,
                "end_time": 9.1227273,
                "pitch": 43,
                "velocity": 64,
                "duration": 0.1159091,
                "tempo": 120.0
            },
            {
                "start_time": 9.4136364,
                "end_time": 10.2136364,
                "pitch": 43,
                "velocity": 64,
                "duration": 0.8,
                "tempo": 120.0
            },
            {
                "start_time": 10.2295455,
                "end_time": 10.7386364,
                "pitch": 43,
                "velocity": 64,
                "duration": 0.5090909,
                "tempo": 120.0
            },
            {
                "start_time": 10.7568182,
                "end_time": 11.1477273,
                "pitch": 44,
                "velocity": 64,
                "duration": 0.3909091,
                "tempo": 120.0
            },
            {
                "start_time": 11.1636364,
                "end_time": 11.2840909,
                "pitch": 45,
                "velocity": 64,
                "duration": 0.1204545,
                "tempo": 120.0
            },
            {
                "start_time": 11.5727273,
                "end_time": 11.8272727,
                "pitch": 45,
                "velocity": 64,
                "duration": 0.2545455,
                "tempo": 120.0
            },
            {
                "start_time": 11.8454545,
                "end_time": 12.3636364,
                "pitch": 50,
                "velocity": 64,
                "duration": 0.5181818,
                "tempo": 120.0
            },
            {
                "start_time": 12.3818182,
                "end_time": 12.8977273,
                "pitch": 48,
                "velocity": 64,
                "duration": 0.5159091,
                "tempo": 120.0
            },
            {
                "start_time": 12.9159091,
                "end_time": 13.3068182,
                "pitch": 46,
                "velocity": 64,
                "duration": 0.3909091,
                "tempo": 120.0
            },
            {
                "start_time": 13.3227273,
                "end_time": 13.4431818,
                "pitch": 46,
                "velocity": 64,
                "duration": 0.1204545,
                "tempo": 120.0
            },
            {
                "start_time": 13.7272727,
                "end_time": 14.5136364,
                "pitch": 46,
                "velocity": 64,
                "duration": 0.7863636,
                "tempo": 120.0
            },
            {
                "start_time": 14.5318182,
                "end_time": 15.0568182,
                "pitch": 46,
                "velocity": 64,
                "duration": 0.525,
                "tempo": 120.0
            },
            {
                "start_time": 15.075,
                "end_time": 15.4590909,
                "pitch": 48,
                "velocity": 64,
                "duration": 0.3840909,
                "tempo": 120.0
            },
            {
                "start_time": 15.4772727,
                "end_time": 15.5931818,
                "pitch": 48,
                "velocity": 64,
                "duration": 0.1159091,
                "tempo": 120.0
            },
            {
                "start_time": 15.8772727,
                "end_time": 16.4,
                "pitch": 48,
                "velocity": 64,
                "duration": 0.5227273,
                "tempo": 120.0
            },
            {
                "start_time": 4.2954545,
                "end_time": 16.6727273,
                "pitch": 36,
                "velocity": 64,
                "duration": 12.3772727,
                "tempo": 120.0
            },
            {
                "start_time": 16.4181818,
                "end_time": 16.6727273,
                "pitch": 36,
                "velocity": 64,
                "duration": 0.2545455,
                "tempo": 120.0
            },
            {
                "start_time": 16.6909091,
                "end_time": 16.9409091,
                "pitch": 38,
                "velocity": 64,
                "duration": 0.25,
                "tempo": 120.0
            },
            {
                "start_time": 16.9568182,
                "end_time": 17.2090909,
                "pitch": 40,
                "velocity": 64,
                "duration": 0.2522727,
                "tempo": 120.0
            },
            {
                "start_time": 17.225,
                "end_time": 17.6159091,
                "pitch": 40,
                "velocity": 64,
                "duration": 0.3909091,
                "tempo": 120.0
            },
            {
                "start_time": 17.6340909,
                "end_time": 17.7522727,
                "pitch": 41,
                "velocity": 64,
                "duration": 0.1181818,
                "tempo": 120.0
            },
            {
                "start_time": 18.0431818,
                "end_time": 18.8318182,
                "pitch": 41,
                "velocity": 64,
                "duration": 0.7886364,
                "tempo": 120.0
            },
            {
                "start_time": 16.6909091,
                "end_time": 19.3681818,
                "pitch": 36,
                "velocity": 64,
                "duration": 2.6772727,
                "tempo": 120.0
            },
            {
                "start_time": 18.85,
                "end_time": 19.3681818,
                "pitch": 36,
                "velocity": 64,
                "duration": 0.5181818,
                "tempo": 120.0
            },
            {
                "start_time": 18.85,
                "end_time": 19.775,
                "pitch": 41,
                "velocity": 64,
                "duration": 0.925,
                "tempo": 120.0
            },
            {
                "start_time": 19.3863636,
                "end_time": 19.775,
                "pitch": 41,
                "velocity": 64,
                "duration": 0.3886364,
                "tempo": 120.0
            },
            {
                "start_time": 19.7931818,
                "end_time": 19.9113636,
                "pitch": 41,
                "velocity": 64,
                "duration": 0.1181818,
                "tempo": 120.0
            },
            {
                "start_time": 20.1977273,
                "end_time": 20.9818182,
                "pitch": 41,
                "velocity": 64,
                "duration": 0.7840909,
                "tempo": 120.0
            },
            {
                "start_time": 19.3863636,
                "end_time": 21.5272727,
                "pitch": 36,
                "velocity": 64,
                "duration": 2.1409091,
                "tempo": 120.0
            },
            {
                "start_time": 21.0,
                "end_time": 21.5272727,
                "pitch": 36,
                "velocity": 64,
                "duration": 0.5272727,
                "tempo": 120.0
            },
            {
                "start_time": 21.0,
                "end_time": 21.9295455,
                "pitch": 41,
                "velocity": 64,
                "duration": 0.9295455,
                "tempo": 120.0
            },
            {
                "start_time": 21.5454545,
                "end_time": 21.9295455,
                "pitch": 41,
                "velocity": 64,
                "duration": 0.3840909,
                "tempo": 120.0
            },
            {
                "start_time": 21.9454545,
                "end_time": 22.0636364,
                "pitch": 41,
                "velocity": 64,
                "duration": 0.1181818,
                "tempo": 120.0
            },
            {
                "start_time": 22.3522727,
                "end_time": 23.1431818,
                "pitch": 41,
                "velocity": 64,
                "duration": 0.7909091,
                "tempo": 120.0
            },
            {
                "start_time": 23.1590909,
                "end_time": 23.6772727,
                "pitch": 41,
                "velocity": 64,
                "duration": 0.5181818,
                "tempo": 120.0
            },
            {
                "start_time": 6.4477273,
                "end_time": 23.6954545,
                "pitch": 54,
                "velocity": 64,
                "duration": 17.2477273,
                "tempo": 120.0
            },
            {
                "start_time": 23.6954545,
                "end_time": 24.0863636,
                "pitch": 43,
                "velocity": 64,
                "duration": 0.3909091,
                "tempo": 120.0
            },
            {
                "start_time": 24.1022727,
                "end_time": 24.2204545,
                "pitch": 43,
                "velocity": 64,
                "duration": 0.1181818,
                "tempo": 120.0
            },
            {
                "start_time": 24.5068182,
                "end_time": 25.2931818,
                "pitch": 43,
                "velocity": 64,
                "duration": 0.7863636,
                "tempo": 120.0
            },
            {
                "start_time": 8.0613636,
                "end_time": 25.3090909,
                "pitch": 0,
                "velocity": 64,
                "duration": 17.2477273,
                "tempo": 120.0
            },
            {
                "start_time": 16.9568182,
                "end_time": 25.8363636,
                "pitch": 38,
                "velocity": 64,
                "duration": 8.8795455,
                "tempo": 120.0
            },
            {
                "start_time": 25.3090909,
                "end_time": 25.8363636,
                "pitch": 38,
                "velocity": 64,
                "duration": 0.5272727,
                "tempo": 120.0
            },
            {
                "start_time": 8.6068182,
                "end_time": 25.8545455,
                "pitch": 53,
                "velocity": 64,
                "duration": 17.2477273,
                "tempo": 120.0
            },
            {
                "start_time": 25.8545455,
                "end_time": 26.2386364,
                "pitch": 43,
                "velocity": 64,
                "duration": 0.3840909,
                "tempo": 120.0
            },
            {
                "start_time": 26.2545455,
                "end_time": 26.3727273,
                "pitch": 43,
                "velocity": 64,
                "duration": 0.1181818,
                "tempo": 120.0
            },
            {
                "start_time": 26.6613636,
                "end_time": 27.4613636,
                "pitch": 43,
                "velocity": 64,
                "duration": 0.8,
                "tempo": 120.0
            },
            {
                "start_time": 27.4795455,
                "end_time": 27.9977273,
                "pitch": 43,
                "velocity": 64,
                "duration": 0.5181818,
                "tempo": 120.0
            },
            {
                "start_time": 28.0136364,
                "end_time": 28.3977273,
                "pitch": 44,
                "velocity": 64,
                "duration": 0.3840909,
                "tempo": 120.0
            },
            {
                "start_time": 28.4159091,
                "end_time": 28.5318182,
                "pitch": 45,
                "velocity": 64,
                "duration": 0.1159091,
                "tempo": 120.0
            },
            {
                "start_time": 28.8181818,
                "end_time": 29.0659091,
                "pitch": 45,
                "velocity": 64,
                "duration": 0.2477273,
                "tempo": 120.0
            },
            {
                "start_time": 11.8454545,
                "end_time": 29.0840909,
                "pitch": 19,
                "velocity": 64,
                "duration": 17.2386364,
                "tempo": 120.0
            },
            {
                "start_time": 12.3818182,
                "end_time": 29.3386364,
                "pitch": 50,
                "velocity": 64,
                "duration": 16.9568182,
                "tempo": 120.0
            },
            {
                "start_time": 29.0840909,
                "end_time": 29.3386364,
                "pitch": 50,
                "velocity": 64,
                "duration": 0.2545455,
                "tempo": 120.0
            },
            {
                "start_time": 29.6295455,
                "end_time": 30.1477273,
                "pitch": 48,
                "velocity": 64,
                "duration": 0.5181818,
                "tempo": 120.0
            },
            {
                "start_time": 12.9159091,
                "end_time": 30.1636364,
                "pitch": 52,
                "velocity": 64,
                "duration": 17.2477273,
                "tempo": 120.0
            },
            {
                "start_time": 30.1636364,
                "end_time": 30.5545455,
                "pitch": 46,
                "velocity": 64,
                "duration": 0.3909091,
                "tempo": 120.0
            },
            {
                "start_time": 30.5727273,
                "end_time": 30.6909091,
                "pitch": 46,
                "velocity": 64,
                "duration": 0.1181818,
                "tempo": 120.0
            },
            {
                "start_time": 30.975,
                "end_time": 31.2272727,
                "pitch": 46,
                "velocity": 64,
                "duration": 0.2522727,
                "tempo": 120.0
            },
            {
                "start_time": 15.075,
                "end_time": 31.2431818,
                "pitch": 32,
                "velocity": 64,
                "duration": 16.1681818,
                "tempo": 120.0
            },
            {
                "start_time": 31.2431818,
                "end_time": 31.6272727,
                "pitch": 48,
                "velocity": 64,
                "duration": 0.3840909,
                "tempo": 120.0
            },
            {
                "start_time": 31.6454545,
                "end_time": 31.7613636,
                "pitch": 48,
                "velocity": 64,
                "duration": 0.1159091,
                "tempo": 120.0
            },
            {
                "start_time": 21.5454545,
                "end_time": 32.3068182,
                "pitch": 36,
                "velocity": 64,
                "duration": 10.7613636,
                "tempo": 120.0
            },
            {
                "start_time": 32.0522727,
                "end_time": 32.3068182,
                "pitch": 36,
                "velocity": 64,
                "duration": 0.2545455,
                "tempo": 120.0
            },
            {
                "start_time": 32.325,
                "end_time": 32.7068182,
                "pitch": 41,
                "velocity": 64,
                "duration": 0.3818182,
                "tempo": 120.0
            },
            {
                "start_time": 32.725,
                "end_time": 32.8409091,
                "pitch": 41,
                "velocity": 64,
                "duration": 0.1159091,
                "tempo": 120.0
            },
            {
                "start_time": 33.125,
                "end_time": 33.9204545,
                "pitch": 41,
                "velocity": 64,
                "duration": 0.7954545,
                "tempo": 120.0
            },
            {
                "start_time": 33.9386364,
                "end_time": 34.4659091,
                "pitch": 41,
                "velocity": 64,
                "duration": 0.5272727,
                "tempo": 120.0
            },
            {
                "start_time": 23.6954545,
                "end_time": 34.4840909,
                "pitch": 54,
                "velocity": 64,
                "duration": 10.7886364,
                "tempo": 120.0
            },
            {
                "start_time": 34.4840909,
                "end_time": 34.8681818,
                "pitch": 43,
                "velocity": 64,
                "duration": 0.3840909,
                "tempo": 120.0
            },
            {
                "start_time": 34.8840909,
                "end_time": 35.0,
                "pitch": 43,
                "velocity": 64,
                "duration": 0.1159091,
                "tempo": 120.0
            },
            {
                "start_time": 35.2863636,
                "end_time": 35.5363636,
                "pitch": 43,
                "velocity": 64,
                "duration": 0.25,
                "tempo": 120.0
            },
            {
                "start_time": 25.3090909,
                "end_time": 35.825,
                "pitch": 0,
                "velocity": 64,
                "duration": 10.5159091,
                "tempo": 120.0
            },
            {
                "start_time": 32.325,
                "end_time": 36.0795455,
                "pitch": 36,
                "velocity": 64,
                "duration": 3.7545455,
                "tempo": 120.0
            },
            {
                "start_time": 35.825,
                "end_time": 36.0795455,
                "pitch": 36,
                "velocity": 64,
                "duration": 0.2545455,
                "tempo": 120.0
            },
            {
                "start_time": 36.0977273,
                "end_time": 36.6159091,
                "pitch": 36,
                "velocity": 64,
                "duration": 0.5181818,
                "tempo": 120.0
            },
            {
                "start_time": 36.6340909,
                "end_time": 37.025,
                "pitch": 41,
                "velocity": 64,
                "duration": 0.3909091,
                "tempo": 120.0
            },
            {
                "start_time": 37.0409091,
                "end_time": 37.1590909,
                "pitch": 41,
                "velocity": 64,
                "duration": 0.1181818,
                "tempo": 120.0
            },
            {
                "start_time": 37.4454545,
                "end_time": 37.6954545,
                "pitch": 41,
                "velocity": 64,
                "duration": 0.25,
                "tempo": 120.0
            },
            {
                "start_time": 37.9818182,
                "end_time": 38.2318182,
                "pitch": 41,
                "velocity": 64,
                "duration": 0.25,
                "tempo": 120.0
            },
            {
                "start_time": 38.2477273,
                "end_time": 38.775,
                "pitch": 42,
                "velocity": 64,
                "duration": 0.5272727,
                "tempo": 120.0
            },
            {
                "start_time": 34.4840909,
                "end_time": 38.7931818,
                "pitch": 54,
                "velocity": 64,
                "duration": 4.3090909,
                "tempo": 120.0
            },
            {
                "start_time": 38.7931818,
                "end_time": 39.1772727,
                "pitch": 43,
                "velocity": 64,
                "duration": 0.3840909,
                "tempo": 120.0
            },
            {
                "start_time": 39.1954545,
                "end_time": 39.3113636,
                "pitch": 43,
                "velocity": 64,
                "duration": 0.1159091,
                "tempo": 120.0
            },
            {
                "start_time": 39.5954545,
                "end_time": 39.8454545,
                "pitch": 43,
                "velocity": 64,
                "duration": 0.25,
                "tempo": 120.0
            },
            {
                "start_time": 35.825,
                "end_time": 40.1363636,
                "pitch": 0,
                "velocity": 64,
                "duration": 4.3113636,
                "tempo": 120.0
            },
            {
                "start_time": 36.6340909,
                "end_time": 40.3909091,
                "pitch": 36,
                "velocity": 64,
                "duration": 3.7568182,
                "tempo": 120.0
            },
            {
                "start_time": 40.1363636,
                "end_time": 40.3909091,
                "pitch": 36,
                "velocity": 64,
                "duration": 0.2545455,
                "tempo": 120.0
            },
            {
                "start_time": 40.4068182,
                "end_time": 40.9340909,
                "pitch": 36,
                "velocity": 64,
                "duration": 0.5272727,
                "tempo": 120.0
            },
            {
                "start_time": 40.9522727,
                "end_time": 41.3363636,
                "pitch": 41,
                "velocity": 64,
                "duration": 0.3840909,
                "tempo": 120.0
            },
            {
                "start_time": 41.3545455,
                "end_time": 41.4704545,
                "pitch": 41,
                "velocity": 64,
                "duration": 0.1159091,
                "tempo": 120.0
            },
            {
                "start_time": 41.7545455,
                "end_time": 42.0068182,
                "pitch": 41,
                "velocity": 64,
                "duration": 0.2522727,
                "tempo": 120.0
            },
            {
                "start_time": 42.0227273,
                "end_time": 42.2727273,
                "pitch": 41,
                "velocity": 64,
                "duration": 0.25,
                "tempo": 120.0
            },
            {
                "start_time": 42.5568182,
                "end_time": 43.0863636,
                "pitch": 41,
                "velocity": 64,
                "duration": 0.5295455,
                "tempo": 120.0
            },
            {
                "start_time": 38.7931818,
                "end_time": 43.1022727,
                "pitch": 54,
                "velocity": 64,
                "duration": 4.3090909,
                "tempo": 120.0
            },
            {
                "start_time": 43.1022727,
                "end_time": 43.4931818,
                "pitch": 43,
                "velocity": 64,
                "duration": 0.3909091,
                "tempo": 120.0
            },
            {
                "start_time": 43.5113636,
                "end_time": 43.6295455,
                "pitch": 43,
                "velocity": 64,
                "duration": 0.1181818,
                "tempo": 120.0
            },
            {
                "start_time": 43.9113636,
                "end_time": 44.1568182,
                "pitch": 43,
                "velocity": 64,
                "duration": 0.2454545,
                "tempo": 120.0
            },
            {
                "start_time": 40.1363636,
                "end_time": 44.4454545,
                "pitch": 0,
                "velocity": 64,
                "duration": 4.3090909,
                "tempo": 120.0
            },
            {
                "start_time": 40.9522727,
                "end_time": 44.7,
                "pitch": 36,
                "velocity": 64,
                "duration": 3.7477273,
                "tempo": 120.0
            },
            {
                "start_time": 44.4454545,
                "end_time": 44.7,
                "pitch": 36,
                "velocity": 64,
                "duration": 0.2545455,
                "tempo": 120.0
            },
            {
                "start_time": 44.7181818,
                "end_time": 44.9681818,
                "pitch": 36,
                "velocity": 64,
                "duration": 0.25,
                "tempo": 120.0
            },
            {
                "start_time": 44.9863636,
                "end_time": 45.2363636,
                "pitch": 36,
                "velocity": 64,
                "duration": 0.25,
                "tempo": 120.0
            },
            {
                "start_time": 45.2545455,
                "end_time": 45.6431818,
                "pitch": 37,
                "velocity": 64,
                "duration": 0.3886364,
                "tempo": 120.0
            },
            {
                "start_time": 45.6613636,
                "end_time": 45.7795455,
                "pitch": 38,
                "velocity": 64,
                "duration": 0.1181818,
                "tempo": 120.0
            },
            {
                "start_time": 46.0659091,
                "end_time": 46.5863636,
                "pitch": 38,
                "velocity": 64,
                "duration": 0.5204545,
                "tempo": 120.0
            },
            {
                "start_time": 46.6045455,
                "end_time": 46.8590909,
                "pitch": 38,
                "velocity": 64,
                "duration": 0.2545455,
                "tempo": 120.0
            },
            {
                "start_time": 46.8772727,
                "end_time": 47.1272727,
                "pitch": 40,
                "velocity": 64,
                "duration": 0.25,
                "tempo": 120.0
            },
            {
                "start_time": 47.1454545,
                "end_time": 47.3954545,
                "pitch": 40,
                "velocity": 64,
                "duration": 0.25,
                "tempo": 120.0
            },
            {
                "start_time": 43.1022727,
                "end_time": 47.4136364,
                "pitch": 54,
                "velocity": 64,
                "duration": 4.3113636,
                "tempo": 120.0
            },
            {
                "start_time": 47.4136364,
                "end_time": 47.8022727,
                "pitch": 46,
                "velocity": 64,
                "duration": 0.3886364,
                "tempo": 120.0
            },
            {
                "start_time": 47.8204545,
                "end_time": 47.9386364,
                "pitch": 46,
                "velocity": 64,
                "duration": 0.1181818,
                "tempo": 120.0
            },
            {
                "start_time": 48.225,
                "end_time": 48.7431818,
                "pitch": 46,
                "velocity": 64,
                "duration": 0.5181818,
                "tempo": 120.0
            },
            {
                "start_time": 48.7590909,
                "end_time": 49.0090909,
                "pitch": 46,
                "velocity": 64,
                "duration": 0.25,
                "tempo": 120.0
            },
            {
                "start_time": 49.0272727,
                "end_time": 49.2818182,
                "pitch": 45,
                "velocity": 64,
                "duration": 0.2545455,
                "tempo": 120.0
            },
            {
                "start_time": 49.3,
                "end_time": 49.5545455,
                "pitch": 46,
                "velocity": 64,
                "duration": 0.2545455,
                "tempo": 120.0
            },
            {
                "start_time": 31.2431818,
                "end_time": 49.5727273,
                "pitch": 32,
                "velocity": 64,
                "duration": 18.3295455,
                "tempo": 120.0
            },
            {
                "start_time": 49.5727273,
                "end_time": 49.8227273,
                "pitch": 48,
                "velocity": 64,
                "duration": 0.25,
                "tempo": 120.0
            },
            {
                "start_time": 49.8386364,
                "end_time": 50.0886364,
                "pitch": 36,
                "velocity": 64,
                "duration": 0.25,
                "tempo": 120.0
            },
            {
                "start_time": 50.1068182,
                "end_time": 50.3613636,
                "pitch": 40,
                "velocity": 64,
                "duration": 0.2545455,
                "tempo": 120.0
            },
            {
                "start_time": 47.4136364,
                "end_time": 50.3795455,
                "pitch": 54,
                "velocity": 64,
                "duration": 2.9659091,
                "tempo": 120.0
            },
            {
                "start_time": 50.3795455,
                "end_time": 50.6340909,
                "pitch": 43,
                "velocity": 64,
                "duration": 0.2545455,
                "tempo": 120.0
            },
            {
                "start_time": 44.4454545,
                "end_time": 50.6522727,
                "pitch": 0,
                "velocity": 64,
                "duration": 6.2068182,
                "tempo": 120.0
            },
            {
                "start_time": 50.6522727,
                "end_time": 50.9022727,
                "pitch": 48,
                "velocity": 64,
                "duration": 0.25,
                "tempo": 120.0
            },
            {
                "start_time": 50.1068182,
                "end_time": 51.7045455,
                "pitch": 36,
                "velocity": 64,
                "duration": 1.5977273,
                "tempo": 120.0
            },
            {
                "start_time": 51.1863636,
                "end_time": 51.7045455,
                "pitch": 36,
                "velocity": 64,
                "duration": 0.5181818,
                "tempo": 120.0
            },
            {
                "start_time": 51.7227273,
                "end_time": 52.1136364,
                "pitch": 41,
                "velocity": 64,
                "duration": 0.3909091,
                "tempo": 120.0
            },
            {
                "start_time": 52.1295455,
                "end_time": 52.25,
                "pitch": 41,
                "velocity": 64,
                "duration": 0.1204545,
                "tempo": 120.0
            },
            {
                "start_time": 52.5386364,
                "end_time": 53.3295455,
                "pitch": 41,
                "velocity": 64,
                "duration": 0.7909091,
                "tempo": 120.0
            },
            {
                "start_time": 51.7227273,
                "end_time": 53.8636364,
                "pitch": 36,
                "velocity": 64,
                "duration": 2.1409091,
                "tempo": 120.0
            },
            {
                "start_time": 53.3454545,
                "end_time": 53.8636364,
                "pitch": 36,
                "velocity": 64,
                "duration": 0.5181818,
                "tempo": 120.0
            },
            {
                "start_time": 53.3454545,
                "end_time": 54.2727273,
                "pitch": 41,
                "velocity": 64,
                "duration": 0.9272727,
                "tempo": 120.0
            },
            {
                "start_time": 53.8818182,
                "end_time": 54.2727273,
                "pitch": 41,
                "velocity": 64,
                "duration": 0.3909091,
                "tempo": 120.0
            },
            {
                "start_time": 54.2886364,
                "end_time": 54.4090909,
                "pitch": 41,
                "velocity": 64,
                "duration": 0.1204545,
                "tempo": 120.0
            },
            {
                "start_time": 54.6931818,
                "end_time": 55.4795455,
                "pitch": 41,
                "velocity": 64,
                "duration": 0.7863636,
                "tempo": 120.0
            },
            {
                "start_time": 53.8818182,
                "end_time": 56.025,
                "pitch": 36,
                "velocity": 64,
                "duration": 2.1431818,
                "tempo": 120.0
            },
            {
                "start_time": 55.4954545,
                "end_time": 56.025,
                "pitch": 36,
                "velocity": 64,
                "duration": 0.5295455,
                "tempo": 120.0
            },
            {
                "start_time": 55.4954545,
                "end_time": 56.425,
                "pitch": 41,
                "velocity": 64,
                "duration": 0.9295455,
                "tempo": 120.0
            },
            {
                "start_time": 56.0409091,
                "end_time": 56.425,
                "pitch": 41,
                "velocity": 64,
                "duration": 0.3840909,
                "tempo": 120.0
            },
            {
                "start_time": 56.4431818,
                "end_time": 56.5590909,
                "pitch": 41,
                "velocity": 64,
                "duration": 0.1159091,
                "tempo": 120.0
            },
            {
                "start_time": 56.85,
                "end_time": 57.6386364,
                "pitch": 41,
                "velocity": 64,
                "duration": 0.7886364,
                "tempo": 120.0
            },
            {
                "start_time": 57.6568182,
                "end_time": 58.175,
                "pitch": 41,
                "velocity": 64,
                "duration": 0.5181818,
                "tempo": 120.0
            },
            {
                "start_time": 50.3795455,
                "end_time": 58.1931818,
                "pitch": 54,
                "velocity": 64,
                "duration": 7.8136364,
                "tempo": 120.0
            },
            {
                "start_time": 58.1931818,
                "end_time": 58.5818182,
                "pitch": 43,
                "velocity": 64,
                "duration": 0.3886364,
                "tempo": 120.0
            },
            {
                "start_time": 58.6,
                "end_time": 58.7181818,
                "pitch": 43,
                "velocity": 64,
                "duration": 0.1181818,
                "tempo": 120.0
            },
            {
                "start_time": 59.0022727,
                "end_time": 59.7886364,
                "pitch": 43,
                "velocity": 64,
                "duration": 0.7863636,
                "tempo": 120.0
            },
            {
                "start_time": 50.6522727,
                "end_time": 59.8068182,
                "pitch": 0,
                "velocity": 64,
                "duration": 9.1545455,
                "tempo": 120.0
            },
            {
                "start_time": 46.8772727,
                "end_time": 60.3340909,
                "pitch": 38,
                "velocity": 64,
                "duration": 13.4568182,
                "tempo": 120.0
            },
            {
                "start_time": 59.8068182,
                "end_time": 60.3340909,
                "pitch": 38,
                "velocity": 64,
                "duration": 0.5272727,
                "tempo": 120.0
            },
            {
                "start_time": 25.8545455,
                "end_time": 60.35,
                "pitch": 53,
                "velocity": 64,
                "duration": 34.4954545,
                "tempo": 120.0
            },
            {
                "start_time": 60.35,
                "end_time": 60.7340909,
                "pitch": 43,
                "velocity": 64,
                "duration": 0.3840909,
                "tempo": 120.0
            },
            {
                "start_time": 60.7522727,
                "end_time": 60.8681818,
                "pitch": 43,
                "velocity": 64,
                "duration": 0.1159091,
                "tempo": 120.0
            },
            {
                "start_time": 61.1590909,
                "end_time": 61.9568182,
                "pitch": 43,
                "velocity": 64,
                "duration": 0.7977273,
                "tempo": 120.0
            },
            {
                "start_time": 61.975,
                "end_time": 62.4931818,
                "pitch": 43,
                "velocity": 64,
                "duration": 0.5181818,
                "tempo": 120.0
            },
            {
                "start_time": 62.5113636,
                "end_time": 62.8954545,
                "pitch": 44,
                "velocity": 64,
                "duration": 0.3840909,
                "tempo": 120.0
            },
            {
                "start_time": 62.9113636,
                "end_time": 63.0295455,
                "pitch": 45,
                "velocity": 64,
                "duration": 0.1181818,
                "tempo": 120.0
            },
            {
                "start_time": 63.3136364,
                "end_time": 63.5636364,
                "pitch": 45,
                "velocity": 64,
                "duration": 0.25,
                "tempo": 120.0
            },
            {
                "start_time": 29.0840909,
                "end_time": 63.5818182,
                "pitch": 19,
                "velocity": 64,
                "duration": 34.4977273,
                "tempo": 120.0
            },
            {
                "start_time": 29.6295455,
                "end_time": 63.8363636,
                "pitch": 50,
                "velocity": 64,
                "duration": 34.2068182,
                "tempo": 120.0
            },
            {
                "start_time": 63.5818182,
                "end_time": 63.8363636,
                "pitch": 50,
                "velocity": 64,
                "duration": 0.2545455,
                "tempo": 120.0
            },
            {
                "start_time": 64.125,
                "end_time": 64.6431818,
                "pitch": 48,
                "velocity": 64,
                "duration": 0.5181818,
                "tempo": 120.0
            },
            {
                "start_time": 30.1636364,
                "end_time": 64.6613636,
                "pitch": 52,
                "velocity": 64,
                "duration": 34.4977273,
                "tempo": 120.0
            },
            {
                "start_time": 64.6613636,
                "end_time": 65.0522727,
                "pitch": 46,
                "velocity": 64,
                "duration": 0.3909091,
                "tempo": 120.0
            },
            {
                "start_time": 65.0681818,
                "end_time": 65.1863636,
                "pitch": 46,
                "velocity": 64,
                "duration": 0.1181818,
                "tempo": 120.0
            },
            {
                "start_time": 65.4727273,
                "end_time": 65.7227273,
                "pitch": 46,
                "velocity": 64,
                "duration": 0.25,
                "tempo": 120.0
            },
            {
                "start_time": 49.5727273,
                "end_time": 65.7409091,
                "pitch": 32,
                "velocity": 64,
                "duration": 16.1681818,
                "tempo": 120.0
            },
            {
                "start_time": 65.7409091,
                "end_time": 66.125,
                "pitch": 48,
                "velocity": 64,
                "duration": 0.3840909,
                "tempo": 120.0
            },
            {
                "start_time": 66.1409091,
                "end_time": 66.2590909,
                "pitch": 48,
                "velocity": 64,
                "duration": 0.1181818,
                "tempo": 120.0
            },
            {
                "start_time": 56.0409091,
                "end_time": 66.8022727,
                "pitch": 36,
                "velocity": 64,
                "duration": 10.7613636,
                "tempo": 120.0
            },
            {
                "start_time": 66.5477273,
                "end_time": 66.8022727,
                "pitch": 36,
                "velocity": 64,
                "duration": 0.2545455,
                "tempo": 120.0
            },
            {
                "start_time": 66.8204545,
                "end_time": 67.2045455,
                "pitch": 41,
                "velocity": 64,
                "duration": 0.3840909,
                "tempo": 120.0
            },
            {
                "start_time": 67.2204545,
                "end_time": 67.3386364,
                "pitch": 41,
                "velocity": 64,
                "duration": 0.1181818,
                "tempo": 120.0
            },
            {
                "start_time": 67.6272727,
                "end_time": 68.4181818,
                "pitch": 41,
                "velocity": 64,
                "duration": 0.7909091,
                "tempo": 120.0
            },
            {
                "start_time": 68.4340909,
                "end_time": 68.9522727,
                "pitch": 41,
                "velocity": 64,
                "duration": 0.5181818,
                "tempo": 120.0
            },
            {
                "start_time": 66.8204545,
                "end_time": 86.225,
                "pitch": 36,
                "velocity": 64,
                "duration": 19.4045455,
                "tempo": 120.0
            },
            {
                "start_time": 86.225,
                "end_time": 86.6204545,
                "pitch": 41,
                "velocity": 64,
                "duration": 0.3954545,
                "tempo": 120.0
            },
            {
                "start_time": 86.6386364,
                "end_time": 86.7590909,
                "pitch": 41,
                "velocity": 64,
                "duration": 0.1204545,
                "tempo": 120.0
            },
            {
                "start_time": 87.0409091,
                "end_time": 87.8204545,
                "pitch": 41,
                "velocity": 64,
                "duration": 0.7795455,
                "tempo": 120.0
            },
            {
                "start_time": 86.225,
                "end_time": 88.3727273,
                "pitch": 36,
                "velocity": 64,
                "duration": 2.1477273,
                "tempo": 120.0
            },
            {
                "start_time": 87.8386364,
                "end_time": 88.3727273,
                "pitch": 36,
                "velocity": 64,
                "duration": 0.5340909,
                "tempo": 120.0
            },
            {
                "start_time": 87.8386364,
                "end_time": 88.7704545,
                "pitch": 41,
                "velocity": 64,
                "duration": 0.9318182,
                "tempo": 120.0
            },
            {
                "start_time": 88.3909091,
                "end_time": 88.7704545,
                "pitch": 41,
                "velocity": 64,
                "duration": 0.3795455,
                "tempo": 120.0
            },
            {
                "start_time": 88.7863636,
                "end_time": 88.9,
                "pitch": 41,
                "velocity": 64,
                "duration": 0.1136364,
                "tempo": 120.0
            },
            {
                "start_time": 89.1863636,
                "end_time": 89.9795455,
                "pitch": 41,
                "velocity": 64,
                "duration": 0.7931818,
                "tempo": 120.0
            },
            {
                "start_time": 88.3909091,
                "end_time": 90.525,
                "pitch": 36,
                "velocity": 64,
                "duration": 2.1340909,
                "tempo": 120.0
            },
            {
                "start_time": 89.9977273,
                "end_time": 90.525,
                "pitch": 36,
                "velocity": 64,
                "duration": 0.5272727,
                "tempo": 120.0
            },
            {
                "start_time": 89.9977273,
                "end_time": 90.9340909,
                "pitch": 41,
                "velocity": 64,
                "duration": 0.9363636,
                "tempo": 120.0
            },
            {
                "start_time": 90.5431818,
                "end_time": 90.9340909,
                "pitch": 41,
                "velocity": 64,
                "duration": 0.3909091,
                "tempo": 120.0
            },
            {
                "start_time": 90.95,
                "end_time": 91.0704545,
                "pitch": 41,
                "velocity": 64,
                "duration": 0.1204545,
                "tempo": 120.0
            },
            {
                "start_time": 91.35,
                "end_time": 92.1318182,
                "pitch": 41,
                "velocity": 64,
                "duration": 0.7818182,
                "tempo": 120.0
            },
            {
                "start_time": 92.1477273,
                "end_time": 92.15,
                "pitch": 41,
                "velocity": 64,
                "duration": 0.0022727,
                "tempo": 120.0
            },
            {
                "start_time": 90.5431818,
                "end_time": 92.6840909,
                "pitch": 36,
                "velocity": 64,
                "duration": 2.1409091,
                "tempo": 120.0
            },
            {
                "start_time": 92.15,
                "end_time": 92.6840909,
                "pitch": 36,
                "velocity": 64,
                "duration": 0.5340909,
                "tempo": 120.0
            },
            {
                "start_time": 92.7022727,
                "end_time": 93.0863636,
                "pitch": 41,
                "velocity": 64,
                "duration": 0.3840909,
                "tempo": 120.0
            },
            {
                "start_time": 93.1045455,
                "end_time": 93.2204545,
                "pitch": 41,
                "velocity": 64,
                "duration": 0.1159091,
                "tempo": 120.0
            },
            {
                "start_time": 93.5068182,
                "end_time": 94.2909091,
                "pitch": 41,
                "velocity": 64,
                "duration": 0.7840909,
                "tempo": 120.0
            },
            {
                "start_time": 92.7022727,
                "end_time": 94.8363636,
                "pitch": 36,
                "velocity": 64,
                "duration": 2.1340909,
                "tempo": 120.0
            },
            {
                "start_time": 94.3068182,
                "end_time": 94.8363636,
                "pitch": 36,
                "velocity": 64,
                "duration": 0.5295455,
                "tempo": 120.0
            },
            {
                "start_time": 94.8522727,
                "end_time": 95.2363636,
                "pitch": 38,
                "velocity": 64,
                "duration": 0.3840909,
                "tempo": 120.0
            },
            {
                "start_time": 95.2545455,
                "end_time": 95.3704545,
                "pitch": 38,
                "velocity": 64,
                "duration": 0.1159091,
                "tempo": 120.0
            },
            {
                "start_time": 95.6636364,
                "end_time": 96.45,
                "pitch": 38,
                "velocity": 64,
                "duration": 0.7863636,
                "tempo": 120.0
            },
            {
                "start_time": 94.3068182,
                "end_time": 96.4681818,
                "pitch": 41,
                "velocity": 64,
                "duration": 2.1613636,
                "tempo": 120.0
            },
            {
                "start_time": 96.4681818,
                "end_time": 96.9954545,
                "pitch": 33,
                "velocity": 64,
                "duration": 0.5272727,
                "tempo": 120.0
            },
            {
                "start_time": 97.0113636,
                "end_time": 97.3977273,
                "pitch": 38,
                "velocity": 64,
                "duration": 0.3863636,
                "tempo": 120.0
            },
            {
                "start_time": 97.4136364,
                "end_time": 97.5295455,
                "pitch": 38,
                "velocity": 64,
                "duration": 0.1159091,
                "tempo": 120.0
            },
            {
                "start_time": 97.8159091,
                "end_time": 98.6090909,
                "pitch": 38,
                "velocity": 64,
                "duration": 0.7931818,
                "tempo": 120.0
            },
            {
                "start_time": 96.4681818,
                "end_time": 98.6272727,
                "pitch": 41,
                "velocity": 64,
                "duration": 2.1590909,
                "tempo": 120.0
            },
            {
                "start_time": 98.6272727,
                "end_time": 99.1454545,
                "pitch": 33,
                "velocity": 64,
                "duration": 0.5181818,
                "tempo": 120.0
            },
            {
                "start_time": 97.0113636,
                "end_time": 99.1613636,
                "pitch": 7,
                "velocity": 64,
                "duration": 2.15,
                "tempo": 120.0
            },
            {
                "start_time": 99.1613636,
                "end_time": 99.5545455,
                "pitch": 38,
                "velocity": 64,
                "duration": 0.3931818,
                "tempo": 120.0
            },
            {
                "start_time": 99.5704545,
                "end_time": 99.6886364,
                "pitch": 38,
                "velocity": 64,
                "duration": 0.1181818,
                "tempo": 120.0
            },
            {
                "start_time": 99.975,
                "end_time": 100.7590909,
                "pitch": 38,
                "velocity": 64,
                "duration": 0.7840909,
                "tempo": 120.0
            },
            {
                "start_time": 98.6272727,
                "end_time": 100.7772727,
                "pitch": 41,
                "velocity": 64,
                "duration": 2.15,
                "tempo": 120.0
            },
            {
                "start_time": 100.7772727,
                "end_time": 101.3045455,
                "pitch": 33,
                "velocity": 64,
                "duration": 0.5272727,
                "tempo": 120.0
            },
            {
                "start_time": 99.1613636,
                "end_time": 101.3227273,
                "pitch": 7,
                "velocity": 64,
                "duration": 2.1613636,
                "tempo": 120.0
            },
            {
                "start_time": 101.3227273,
                "end_time": 101.7136364,
                "pitch": 38,
                "velocity": 64,
                "duration": 0.3909091,
                "tempo": 120.0
            },
            {
                "start_time": 101.7295455,
                "end_time": 101.85,
                "pitch": 38,
                "velocity": 64,
                "duration": 0.1204545,
                "tempo": 120.0
            },
            {
                "start_time": 102.1295455,
                "end_time": 102.9204545,
                "pitch": 38,
                "velocity": 64,
                "duration": 0.7909091,
                "tempo": 120.0
            },
            {
                "start_time": 94.8522727,
                "end_time": 103.4636364,
                "pitch": 36,
                "velocity": 64,
                "duration": 8.6113636,
                "tempo": 120.0
            },
            {
                "start_time": 102.9386364,
                "end_time": 103.4636364,
                "pitch": 36,
                "velocity": 64,
                "duration": 0.525,
                "tempo": 120.0
            },
            {
                "start_time": 103.4818182,
                "end_time": 103.8727273,
                "pitch": 34,
                "velocity": 64,
                "duration": 0.3909091,
                "tempo": 120.0
            },
            {
                "start_time": 103.8909091,
                "end_time": 104.0090909,
                "pitch": 34,
                "velocity": 64,
                "duration": 0.1181818,
                "tempo": 120.0
            },
            {
                "start_time": 104.2909091,
                "end_time": 105.0704545,
                "pitch": 34,
                "velocity": 64,
                "duration": 0.7795455,
                "tempo": 120.0
            },
            {
                "start_time": 105.0886364,
                "end_time": 105.6159091,
                "pitch": 29,
                "velocity": 64,
                "duration": 0.5272727,
                "tempo": 120.0
            },
            {
                "start_time": 105.6340909,
                "end_time": 106.0227273,
                "pitch": 34,
                "velocity": 64,
                "duration": 0.3886364,
                "tempo": 120.0
            },
            {
                "start_time": 106.0409091,
                "end_time": 106.1590909,
                "pitch": 34,
                "velocity": 64,
                "duration": 0.1181818,
                "tempo": 120.0
            },
            {
                "start_time": 106.4409091,
                "end_time": 107.2295455,
                "pitch": 34,
                "velocity": 64,
                "duration": 0.7886364,
                "tempo": 120.0
            },
            {
                "start_time": 107.2477273,
                "end_time": 107.775,
                "pitch": 34,
                "velocity": 64,
                "duration": 0.5272727,
                "tempo": 120.0
            },
            {
                "start_time": 63.5818182,
                "end_time": 107.7931818,
                "pitch": 19,
                "velocity": 64,
                "duration": 44.2113636,
                "tempo": 120.0
            },
            {
                "start_time": 107.7931818,
                "end_time": 108.1818182,
                "pitch": 36,
                "velocity": 64,
                "duration": 0.3886364,
                "tempo": 120.0
            },
            {
                "start_time": 108.2,
                "end_time": 108.3204545,
                "pitch": 36,
                "velocity": 64,
                "duration": 0.1204545,
                "tempo": 120.0
            },
            {
                "start_time": 108.6,
                "end_time": 109.3818182,
                "pitch": 36,
                "velocity": 64,
                "duration": 0.7818182,
                "tempo": 120.0
            },
            {
                "start_time": 103.4818182,
                "end_time": 109.3977273,
                "pitch": 40,
                "velocity": 64,
                "duration": 5.9159091,
                "tempo": 120.0
            },
            {
                "start_time": 109.3977273,
                "end_time": 109.9340909,
                "pitch": 31,
                "velocity": 64,
                "duration": 0.5363636,
                "tempo": 120.0
            },
            {
                "start_time": 59.8068182,
                "end_time": 109.9522727,
                "pitch": 0,
                "velocity": 64,
                "duration": 50.1454545,
                "tempo": 120.0
            },
            {
                "start_time": 109.9522727,
                "end_time": 110.3363636,
                "pitch": 36,
                "velocity": 64,
                "duration": 0.3840909,
                "tempo": 120.0
            },
            {
                "start_time": 110.3545455,
                "end_time": 110.4704545,
                "pitch": 36,
                "velocity": 64,
                "duration": 0.1159091,
                "tempo": 120.0
            },
            {
                "start_time": 110.7568182,
                "end_time": 111.5409091,
                "pitch": 36,
                "velocity": 64,
                "duration": 0.7840909,
                "tempo": 120.0
            },
            {
                "start_time": 111.5590909,
                "end_time": 112.0840909,
                "pitch": 36,
                "velocity": 64,
                "duration": 0.525,
                "tempo": 120.0
            },
            {
                "start_time": 112.1022727,
                "end_time": 112.4931818,
                "pitch": 37,
                "velocity": 64,
                "duration": 0.3909091,
                "tempo": 120.0
            },
            {
                "start_time": 102.9386364,
                "end_time": 112.6295455,
                "pitch": 38,
                "velocity": 64,
                "duration": 9.6909091,
                "tempo": 120.0
            },
            {
                "start_time": 112.5113636,
                "end_time": 112.6295455,
                "pitch": 38,
                "velocity": 64,
                "duration": 0.1181818,
                "tempo": 120.0
            },
            {
                "start_time": 112.9090909,
                "end_time": 113.6909091,
                "pitch": 38,
                "velocity": 64,
                "duration": 0.7818182,
                "tempo": 120.0
            },
            {
                "start_time": 100.7772727,
                "end_time": 113.7090909,
                "pitch": 41,
                "velocity": 64,
                "duration": 12.9318182,
                "tempo": 120.0
            },
            {
                "start_time": 113.7090909,
                "end_time": 114.2454545,
                "pitch": 33,
                "velocity": 64,
                "duration": 0.5363636,
                "tempo": 120.0
            },
            {
                "start_time": 101.3227273,
                "end_time": 114.2613636,
                "pitch": 7,
                "velocity": 64,
                "duration": 12.9386364,
                "tempo": 120.0
            },
            {
                "start_time": 114.2613636,
                "end_time": 114.6477273,
                "pitch": 38,
                "velocity": 64,
                "duration": 0.3863636,
                "tempo": 120.0
            },
            {
                "start_time": 114.6636364,
                "end_time": 114.7818182,
                "pitch": 38,
                "velocity": 64,
                "duration": 0.1181818,
                "tempo": 120.0
            },
            {
                "start_time": 115.0659091,
                "end_time": 115.8522727,
                "pitch": 38,
                "velocity": 64,
                "duration": 0.7863636,
                "tempo": 120.0
            },
            {
                "start_time": 113.7090909,
                "end_time": 115.8681818,
                "pitch": 41,
                "velocity": 64,
                "duration": 2.1590909,
                "tempo": 120.0
            },
            {
                "start_time": 115.8681818,
                "end_time": 116.3954545,
                "pitch": 33,
                "velocity": 64,
                "duration": 0.5272727,
                "tempo": 120.0
            },
            {
                "start_time": 114.2613636,
                "end_time": 116.4113636,
                "pitch": 7,
                "velocity": 64,
                "duration": 2.15,
                "tempo": 120.0
            },
            {
                "start_time": 116.4113636,
                "end_time": 116.8045455,
                "pitch": 38,
                "velocity": 64,
                "duration": 0.3931818,
                "tempo": 120.0
            },
            {
                "start_time": 116.8204545,
                "end_time": 116.9409091,
                "pitch": 38,
                "velocity": 64,
                "duration": 0.1204545,
                "tempo": 120.0
            },
            {
                "start_time": 117.225,
                "end_time": 118.0113636,
                "pitch": 38,
                "velocity": 64,
                "duration": 0.7863636,
                "tempo": 120.0
            },
            {
                "start_time": 115.8681818,
                "end_time": 118.0295455,
                "pitch": 41,
                "velocity": 64,
                "duration": 2.1613636,
                "tempo": 120.0
            },
            {
                "start_time": 118.0295455,
                "end_time": 118.5545455,
                "pitch": 33,
                "velocity": 64,
                "duration": 0.525,
                "tempo": 120.0
            },
            {
                "start_time": 116.4113636,
                "end_time": 118.5727273,
                "pitch": 7,
                "velocity": 64,
                "duration": 2.1613636,
                "tempo": 120.0
            },
            {
                "start_time": 118.5727273,
                "end_time": 118.9568182,
                "pitch": 38,
                "velocity": 64,
                "duration": 0.3840909,
                "tempo": 120.0
            },
            {
                "start_time": 118.9727273,
                "end_time": 119.0909091,
                "pitch": 38,
                "velocity": 64,
                "duration": 0.1181818,
                "tempo": 120.0
            },
            {
                "start_time": 119.375,
                "end_time": 120.1613636,
                "pitch": 38,
                "velocity": 64,
                "duration": 0.7863636,
                "tempo": 120.0
            },
            {
                "start_time": 120.1795455,
                "end_time": 120.7136364,
                "pitch": 36,
                "velocity": 64,
                "duration": 0.5340909,
                "tempo": 120.0
            },
            {
                "start_time": 109.3977273,
                "end_time": 120.7318182,
                "pitch": 40,
                "velocity": 64,
                "duration": 11.3340909,
                "tempo": 120.0
            },
            {
                "start_time": 120.7318182,
                "end_time": 121.1227273,
                "pitch": 34,
                "velocity": 64,
                "duration": 0.3909091,
                "tempo": 120.0
            },
            {
                "start_time": 121.1409091,
                "end_time": 121.2590909,
                "pitch": 34,
                "velocity": 64,
                "duration": 0.1181818,
                "tempo": 120.0
            },
            {
                "start_time": 121.5409091,
                "end_time": 122.3204545,
                "pitch": 34,
                "velocity": 64,
                "duration": 0.7795455,
                "tempo": 120.0
            },
            {
                "start_time": 105.0886364,
                "end_time": 122.3386364,
                "pitch": 2,
                "velocity": 64,
                "duration": 17.25,
                "tempo": 120.0
            },
            {
                "start_time": 122.3386364,
                "end_time": 122.8659091,
                "pitch": 29,
                "velocity": 64,
                "duration": 0.5272727,
                "tempo": 120.0
            },
            {
                "start_time": 105.6340909,
                "end_time": 122.8818182,
                "pitch": 42,
                "velocity": 64,
                "duration": 17.2477273,
                "tempo": 120.0
            },
            {
                "start_time": 122.8818182,
                "end_time": 123.2681818,
                "pitch": 34,
                "velocity": 64,
                "duration": 0.3863636,
                "tempo": 120.0
            },
            {
                "start_time": 123.2840909,
                "end_time": 123.4,
                "pitch": 34,
                "velocity": 64,
                "duration": 0.1159091,
                "tempo": 120.0
            },
            {
                "start_time": 123.6863636,
                "end_time": 124.4795455,
                "pitch": 34,
                "velocity": 64,
                "duration": 0.7931818,
                "tempo": 120.0
            },
            {
                "start_time": 124.4977273,
                "end_time": 125.025,
                "pitch": 34,
                "velocity": 64,
                "duration": 0.5272727,
                "tempo": 120.0
            },
            {
                "start_time": 107.7931818,
                "end_time": 125.0431818,
                "pitch": 19,
                "velocity": 64,
                "duration": 17.25,
                "tempo": 120.0
            },
            {
                "start_time": 125.0431818,
                "end_time": 125.4272727,
                "pitch": 36,
                "velocity": 64,
                "duration": 0.3840909,
                "tempo": 120.0
            },
            {
                "start_time": 125.4431818,
                "end_time": 125.5613636,
                "pitch": 36,
                "velocity": 64,
                "duration": 0.1181818,
                "tempo": 120.0
            },
            {
                "start_time": 125.8454545,
                "end_time": 126.6409091,
                "pitch": 36,
                "velocity": 64,
                "duration": 0.7954545,
                "tempo": 120.0
            },
            {
                "start_time": 120.7318182,
                "end_time": 126.6590909,
                "pitch": 40,
                "velocity": 64,
                "duration": 5.9272727,
                "tempo": 120.0
            },
            {
                "start_time": 126.6590909,
                "end_time": 127.1840909,
                "pitch": 31,
                "velocity": 64,
                "duration": 0.525,
                "tempo": 120.0
            },
            {
                "start_time": 109.9522727,
                "end_time": 127.2045455,
                "pitch": 0,
                "velocity": 64,
                "duration": 17.2522727,
                "tempo": 120.0
            },
            {
                "start_time": 127.2045455,
                "end_time": 127.5863636,
                "pitch": 36,
                "velocity": 64,
                "duration": 0.3818182,
                "tempo": 120.0
            },
            {
                "start_time": 127.6045455,
                "end_time": 127.7204545,
                "pitch": 36,
                "velocity": 64,
                "duration": 0.1159091,
                "tempo": 120.0
            },
            {
                "start_time": 128.0068182,
                "end_time": 129.3340909,
                "pitch": 36,
                "velocity": 64,
                "duration": 1.3272727,
                "tempo": 120.0
            },
            {
                "start_time": 118.0295455,
                "end_time": 129.7431818,
                "pitch": 41,
                "velocity": 64,
                "duration": 11.7136364,
                "tempo": 120.0
            },
            {
                "start_time": 129.3568182,
                "end_time": 129.7431818,
                "pitch": 41,
                "velocity": 64,
                "duration": 0.3863636,
                "tempo": 120.0
            },
            {
                "start_time": 129.7613636,
                "end_time": 129.8795455,
                "pitch": 41,
                "velocity": 64,
                "duration": 0.1181818,
                "tempo": 120.0
            }
        ],
        "Church Organ": [
            {
                "start_time": 68.9727273,
                "end_time": 72.2045455,
                "pitch": 36,
                "velocity": 64,
                "duration": 3.2318182,
                "tempo": 120.0
            },
            {
                "start_time": 72.5068182,
                "end_time": 72.7409091,
                "pitch": 34,
                "velocity": 64,
                "duration": 0.2340909,
                "tempo": 120.0
            },
            {
                "start_time": 72.9090909,
                "end_time": 73.2772727,
                "pitch": 34,
                "velocity": 64,
                "duration": 0.3681818,
                "tempo": 120.0
            },
            {
                "start_time": 73.3113636,
                "end_time": 76.5159091,
                "pitch": 36,
                "velocity": 64,
                "duration": 3.2045455,
                "tempo": 120.0
            },
            {
                "start_time": 76.8181818,
                "end_time": 77.0522727,
                "pitch": 36,
                "velocity": 64,
                "duration": 0.2340909,
                "tempo": 120.0
            },
            {
                "start_time": 77.2204545,
                "end_time": 77.5954545,
                "pitch": 36,
                "velocity": 64,
                "duration": 0.375,
                "tempo": 120.0
            },
            {
                "start_time": 77.6295455,
                "end_time": 80.8340909,
                "pitch": 36,
                "velocity": 64,
                "duration": 3.2045455,
                "tempo": 120.0
            },
            {
                "start_time": 72.5068182,
                "end_time": 81.1295455,
                "pitch": 40,
                "velocity": 64,
                "duration": 8.6227273,
                "tempo": 120.0
            },
            {
                "start_time": 81.1295455,
                "end_time": 81.3545455,
                "pitch": 34,
                "velocity": 64,
                "duration": 0.225,
                "tempo": 120.0
            },
            {
                "start_time": 81.5227273,
                "end_time": 81.9045455,
                "pitch": 34,
                "velocity": 64,
                "duration": 0.3818182,
                "tempo": 120.0
            },
            {
                "start_time": 73.3113636,
                "end_time": 81.9409091,
                "pitch": 14,
                "velocity": 64,
                "duration": 8.6295455,
                "tempo": 120.0
            },
            {
                "start_time": 81.9409091,
                "end_time": 85.1454545,
                "pitch": 36,
                "velocity": 64,
                "duration": 3.2045455,
                "tempo": 120.0
            },
            {
                "start_time": 85.4431818,
                "end_time": 85.6727273,
                "pitch": 36,
                "velocity": 64,
                "duration": 0.2295455,
                "tempo": 120.0
            },
            {
                "start_time": 85.8363636,
                "end_time": 86.1909091,
                "pitch": 36,
                "velocity": 64,
                "duration": 0.3545455,
                "tempo": 120.0
            }
        ],
        "Acoustic Grand Piano": [
            {
                "start_time": 0.0068182,
                "end_time": 2.1204545,
                "pitch": 65,
                "velocity": 51,
                "duration": 2.1136364,
                "tempo": 120.0
            },
            {
                "start_time": 17.2272727,
                "end_time": 19.3681818,
                "pitch": 65,
                "velocity": 51,
                "duration": 2.1409091,
                "tempo": 120.0
            },
            {
                "start_time": 51.725,
                "end_time": 53.8659091,
                "pitch": 65,
                "velocity": 51,
                "duration": 2.1409091,
                "tempo": 120.0
            },
            {
                "start_time": 87.0409091,
                "end_time": 87.2863636,
                "pitch": 81,
                "velocity": 32,
                "duration": 0.2454545,
                "tempo": 120.0
            },
            {
                "start_time": 87.5727273,
                "end_time": 87.8204545,
                "pitch": 81,
                "velocity": 32,
                "duration": 0.2477273,
                "tempo": 120.0
            },
            {
                "start_time": 87.8409091,
                "end_time": 88.6386364,
                "pitch": 79,
                "velocity": 32,
                "duration": 0.7977273,
                "tempo": 120.0
            },
            {
                "start_time": 88.6568182,
                "end_time": 88.9022727,
                "pitch": 81,
                "velocity": 32,
                "duration": 0.2454545,
                "tempo": 120.0
            },
            {
                "start_time": 89.1863636,
                "end_time": 89.4363636,
                "pitch": 82,
                "velocity": 32,
                "duration": 0.25,
                "tempo": 120.0
            },
            {
                "start_time": 89.7272727,
                "end_time": 89.9818182,
                "pitch": 82,
                "velocity": 32,
                "duration": 0.2545455,
                "tempo": 120.0
            },
            {
                "start_time": 90.0,
                "end_time": 90.7977273,
                "pitch": 81,
                "velocity": 32,
                "duration": 0.7977273,
                "tempo": 120.0
            },
            {
                "start_time": 91.3522727,
                "end_time": 91.5977273,
                "pitch": 79,
                "velocity": 32,
                "duration": 0.2454545,
                "tempo": 120.0
            },
            {
                "start_time": 91.8818182,
                "end_time": 92.1318182,
                "pitch": 81,
                "velocity": 32,
                "duration": 0.25,
                "tempo": 120.0
            },
            {
                "start_time": 92.15,
                "end_time": 92.9545455,
                "pitch": 79,
                "velocity": 32,
                "duration": 0.8045455,
                "tempo": 120.0
            },
            {
                "start_time": 92.9704545,
                "end_time": 93.2227273,
                "pitch": 81,
                "velocity": 32,
                "duration": 0.2522727,
                "tempo": 120.0
            },
            {
                "start_time": 93.5068182,
                "end_time": 93.7568182,
                "pitch": 82,
                "velocity": 32,
                "duration": 0.25,
                "tempo": 120.0
            },
            {
                "start_time": 94.0431818,
                "end_time": 94.2909091,
                "pitch": 82,
                "velocity": 32,
                "duration": 0.2477273,
                "tempo": 120.0
            },
            {
                "start_time": 94.3090909,
                "end_time": 95.1022727,
                "pitch": 81,
                "velocity": 32,
                "duration": 0.7931818,
                "tempo": 120.0
            },
            {
                "start_time": 95.1204545,
                "end_time": 96.7227273,
                "pitch": 79,
                "velocity": 32,
                "duration": 1.6022727,
                "tempo": 120.0
            },
            {
                "start_time": 96.7431818,
                "end_time": 96.9954545,
                "pitch": 79,
                "velocity": 32,
                "duration": 0.2522727,
                "tempo": 120.0
            },
            {
                "start_time": 97.0136364,
                "end_time": 98.6090909,
                "pitch": 77,
                "velocity": 32,
                "duration": 1.5954545,
                "tempo": 120.0
            },
            {
                "start_time": 98.6295455,
                "end_time": 98.8772727,
                "pitch": 74,
                "velocity": 32,
                "duration": 0.2477273,
                "tempo": 120.0
            },
            {
                "start_time": 98.8977273,
                "end_time": 99.1454545,
                "pitch": 76,
                "velocity": 32,
                "duration": 0.2477273,
                "tempo": 120.0
            },
            {
                "start_time": 99.1636364,
                "end_time": 99.4181818,
                "pitch": 76,
                "velocity": 32,
                "duration": 0.2545455,
                "tempo": 120.0
            },
            {
                "start_time": 99.4340909,
                "end_time": 99.4363636,
                "pitch": 90,
                "velocity": 32,
                "duration": 0.0022727,
                "tempo": 120.0
            },
            {
                "start_time": 99.4363636,
                "end_time": 100.7613636,
                "pitch": 81,
                "velocity": 32,
                "duration": 1.325,
                "tempo": 120.0
            },
            {
                "start_time": 100.7795455,
                "end_time": 101.0318182,
                "pitch": 81,
                "velocity": 32,
                "duration": 0.2522727,
                "tempo": 120.0
            },
            {
                "start_time": 0.0068182,
                "end_time": 101.0522727,
                "pitch": 0,
                "velocity": 51,
                "duration": 101.0454545,
                "tempo": 120.0
            },
            {
                "start_time": 98.6295455,
                "end_time": 101.3045455,
                "pitch": 77,
                "velocity": 32,
                "duration": 2.675,
                "tempo": 120.0
            },
            {
                "start_time": 101.0522727,
                "end_time": 101.3045455,
                "pitch": 77,
                "velocity": 32,
                "duration": 0.2522727,
                "tempo": 120.0
            },
            {
                "start_time": 98.8977273,
                "end_time": 103.2113636,
                "pitch": 74,
                "velocity": 32,
                "duration": 4.3136364,
                "tempo": 120.0
            },
            {
                "start_time": 101.3227273,
                "end_time": 103.2113636,
                "pitch": 74,
                "velocity": 32,
                "duration": 1.8886364,
                "tempo": 120.0
            },
            {
                "start_time": 103.2113636,
                "end_time": 103.7363636,
                "pitch": 74,
                "velocity": 32,
                "duration": 0.525,
                "tempo": 120.0
            },
            {
                "start_time": 104.2909091,
                "end_time": 104.5363636,
                "pitch": 76,
                "velocity": 32,
                "duration": 0.2454545,
                "tempo": 120.0
            },
            {
                "start_time": 104.2909091,
                "end_time": 105.0704545,
                "pitch": 74,
                "velocity": 32,
                "duration": 0.7795455,
                "tempo": 120.0
            },
            {
                "start_time": 104.8204545,
                "end_time": 105.0704545,
                "pitch": 74,
                "velocity": 32,
                "duration": 0.25,
                "tempo": 120.0
            },
            {
                "start_time": 101.3227273,
                "end_time": 105.8863636,
                "pitch": 77,
                "velocity": 32,
                "duration": 4.5636364,
                "tempo": 120.0
            },
            {
                "start_time": 105.0886364,
                "end_time": 105.8863636,
                "pitch": 77,
                "velocity": 32,
                "duration": 0.7977273,
                "tempo": 120.0
            },
            {
                "start_time": 105.9045455,
                "end_time": 106.1613636,
                "pitch": 77,
                "velocity": 32,
                "duration": 0.2568182,
                "tempo": 120.0
            },
            {
                "start_time": 104.8204545,
                "end_time": 106.6863636,
                "pitch": 76,
                "velocity": 32,
                "duration": 1.8659091,
                "tempo": 120.0
            },
            {
                "start_time": 106.4409091,
                "end_time": 106.6863636,
                "pitch": 76,
                "velocity": 32,
                "duration": 0.2454545,
                "tempo": 120.0
            },
            {
                "start_time": 106.9772727,
                "end_time": 107.2295455,
                "pitch": 76,
                "velocity": 32,
                "duration": 0.2522727,
                "tempo": 120.0
            },
            {
                "start_time": 105.0886364,
                "end_time": 108.0477273,
                "pitch": 74,
                "velocity": 32,
                "duration": 2.9590909,
                "tempo": 120.0
            },
            {
                "start_time": 107.25,
                "end_time": 108.0477273,
                "pitch": 74,
                "velocity": 32,
                "duration": 0.7977273,
                "tempo": 120.0
            },
            {
                "start_time": 108.6022727,
                "end_time": 108.8454545,
                "pitch": 76,
                "velocity": 32,
                "duration": 0.2431818,
                "tempo": 120.0
            },
            {
                "start_time": 108.6022727,
                "end_time": 109.3818182,
                "pitch": 74,
                "velocity": 32,
                "duration": 0.7795455,
                "tempo": 120.0
            },
            {
                "start_time": 109.1318182,
                "end_time": 109.3818182,
                "pitch": 74,
                "velocity": 32,
                "duration": 0.25,
                "tempo": 120.0
            },
            {
                "start_time": 107.25,
                "end_time": 110.2022727,
                "pitch": 77,
                "velocity": 32,
                "duration": 2.9522727,
                "tempo": 120.0
            },
            {
                "start_time": 109.4,
                "end_time": 110.2022727,
                "pitch": 77,
                "velocity": 32,
                "duration": 0.8022727,
                "tempo": 120.0
            },
            {
                "start_time": 110.2204545,
                "end_time": 110.7386364,
                "pitch": 77,
                "velocity": 32,
                "duration": 0.5181818,
                "tempo": 120.0
            },
            {
                "start_time": 109.1318182,
                "end_time": 110.7568182,
                "pitch": 76,
                "velocity": 32,
                "duration": 1.625,
                "tempo": 120.0
            },
            {
                "start_time": 109.4,
                "end_time": 111.2727273,
                "pitch": 74,
                "velocity": 32,
                "duration": 1.8727273,
                "tempo": 120.0
            },
            {
                "start_time": 110.7568182,
                "end_time": 111.2727273,
                "pitch": 74,
                "velocity": 32,
                "duration": 0.5159091,
                "tempo": 120.0
            },
            {
                "start_time": 111.2909091,
                "end_time": 111.8136364,
                "pitch": 72,
                "velocity": 32,
                "duration": 0.5227273,
                "tempo": 120.0
            },
            {
                "start_time": 110.7568182,
                "end_time": 111.8295455,
                "pitch": 76,
                "velocity": 32,
                "duration": 1.0727273,
                "tempo": 120.0
            },
            {
                "start_time": 111.8295455,
                "end_time": 112.3568182,
                "pitch": 67,
                "velocity": 32,
                "duration": 0.5272727,
                "tempo": 120.0
            },
            {
                "start_time": 112.375,
                "end_time": 112.8931818,
                "pitch": 67,
                "velocity": 32,
                "duration": 0.5181818,
                "tempo": 120.0
            },
            {
                "start_time": 97.0136364,
                "end_time": 112.9113636,
                "pitch": 42,
                "velocity": 32,
                "duration": 15.8977273,
                "tempo": 120.0
            },
            {
                "start_time": 112.9113636,
                "end_time": 113.1568182,
                "pitch": 77,
                "velocity": 32,
                "duration": 0.2454545,
                "tempo": 120.0
            },
            {
                "start_time": 113.4431818,
                "end_time": 113.6909091,
                "pitch": 77,
                "velocity": 32,
                "duration": 0.2477273,
                "tempo": 120.0
            },
            {
                "start_time": 111.8295455,
                "end_time": 114.5136364,
                "pitch": 76,
                "velocity": 32,
                "duration": 2.6840909,
                "tempo": 120.0
            },
            {
                "start_time": 113.7090909,
                "end_time": 114.5136364,
                "pitch": 76,
                "velocity": 32,
                "duration": 0.8045455,
                "tempo": 120.0
            },
            {
                "start_time": 114.5318182,
                "end_time": 114.7818182,
                "pitch": 77,
                "velocity": 32,
                "duration": 0.25,
                "tempo": 120.0
            },
            {
                "start_time": 115.0659091,
                "end_time": 115.3159091,
                "pitch": 77,
                "velocity": 32,
                "duration": 0.25,
                "tempo": 120.0
            },
            {
                "start_time": 115.6022727,
                "end_time": 115.8522727,
                "pitch": 77,
                "velocity": 32,
                "duration": 0.25,
                "tempo": 120.0
            },
            {
                "start_time": 115.8704545,
                "end_time": 116.1227273,
                "pitch": 76,
                "velocity": 32,
                "duration": 0.2522727,
                "tempo": 120.0
            },
            {
                "start_time": 116.1431818,
                "end_time": 116.3954545,
                "pitch": 79,
                "velocity": 32,
                "duration": 0.2522727,
                "tempo": 120.0
            },
            {
                "start_time": 116.4136364,
                "end_time": 117.2090909,
                "pitch": 79,
                "velocity": 32,
                "duration": 0.7954545,
                "tempo": 120.0
            },
            {
                "start_time": 112.9113636,
                "end_time": 117.2272727,
                "pitch": 42,
                "velocity": 32,
                "duration": 4.3159091,
                "tempo": 120.0
            },
            {
                "start_time": 117.2272727,
                "end_time": 117.4772727,
                "pitch": 77,
                "velocity": 32,
                "duration": 0.25,
                "tempo": 120.0
            },
            {
                "start_time": 117.7613636,
                "end_time": 118.0113636,
                "pitch": 77,
                "velocity": 32,
                "duration": 0.25,
                "tempo": 120.0
            },
            {
                "start_time": 118.0295455,
                "end_time": 118.8227273,
                "pitch": 76,
                "velocity": 32,
                "duration": 0.7931818,
                "tempo": 120.0
            },
            {
                "start_time": 118.8409091,
                "end_time": 119.0909091,
                "pitch": 77,
                "velocity": 32,
                "duration": 0.25,
                "tempo": 120.0
            },
            {
                "start_time": 119.3772727,
                "end_time": 119.6272727,
                "pitch": 77,
                "velocity": 32,
                "duration": 0.25,
                "tempo": 120.0
            },
            {
                "start_time": 119.9113636,
                "end_time": 120.1613636,
                "pitch": 77,
                "velocity": 32,
                "duration": 0.25,
                "tempo": 120.0
            },
            {
                "start_time": 120.1795455,
                "end_time": 120.9886364,
                "pitch": 76,
                "velocity": 32,
                "duration": 0.8090909,
                "tempo": 120.0
            },
            {
                "start_time": 121.5409091,
                "end_time": 121.7863636,
                "pitch": 77,
                "velocity": 32,
                "duration": 0.2454545,
                "tempo": 120.0
            },
            {
                "start_time": 111.2909091,
                "end_time": 122.3204545,
                "pitch": 74,
                "velocity": 32,
                "duration": 11.0295455,
                "tempo": 120.0
            },
            {
                "start_time": 122.0727273,
                "end_time": 122.3204545,
                "pitch": 74,
                "velocity": 32,
                "duration": 0.2477273,
                "tempo": 120.0
            },
            {
                "start_time": 122.3409091,
                "end_time": 123.1340909,
                "pitch": 77,
                "velocity": 32,
                "duration": 0.7931818,
                "tempo": 120.0
            },
            {
                "start_time": 123.1522727,
                "end_time": 123.4022727,
                "pitch": 77,
                "velocity": 32,
                "duration": 0.25,
                "tempo": 120.0
            },
            {
                "start_time": 122.0727273,
                "end_time": 123.9363636,
                "pitch": 76,
                "velocity": 32,
                "duration": 1.8636364,
                "tempo": 120.0
            },
            {
                "start_time": 123.6886364,
                "end_time": 123.9363636,
                "pitch": 76,
                "velocity": 32,
                "duration": 0.2477273,
                "tempo": 120.0
            },
            {
                "start_time": 124.225,
                "end_time": 124.7522727,
                "pitch": 76,
                "velocity": 32,
                "duration": 0.5272727,
                "tempo": 120.0
            },
            {
                "start_time": 116.1431818,
                "end_time": 124.7704545,
                "pitch": 90,
                "velocity": 32,
                "duration": 8.6272727,
                "tempo": 120.0
            },
            {
                "start_time": 124.7704545,
                "end_time": 125.2931818,
                "pitch": 79,
                "velocity": 32,
                "duration": 0.5227273,
                "tempo": 120.0
            },
            {
                "start_time": 125.3113636,
                "end_time": 125.5613636,
                "pitch": 82,
                "velocity": 32,
                "duration": 0.25,
                "tempo": 120.0
            },
            {
                "start_time": 125.5795455,
                "end_time": 125.8295455,
                "pitch": 82,
                "velocity": 32,
                "duration": 0.25,
                "tempo": 120.0
            },
            {
                "start_time": 125.8477273,
                "end_time": 126.0954545,
                "pitch": 81,
                "velocity": 32,
                "duration": 0.2477273,
                "tempo": 120.0
            },
            {
                "start_time": 126.1136364,
                "end_time": 126.3681818,
                "pitch": 81,
                "velocity": 32,
                "duration": 0.2545455,
                "tempo": 120.0
            },
            {
                "start_time": 125.3113636,
                "end_time": 126.6409091,
                "pitch": 79,
                "velocity": 32,
                "duration": 1.3295455,
                "tempo": 120.0
            },
            {
                "start_time": 126.3863636,
                "end_time": 126.6409091,
                "pitch": 79,
                "velocity": 32,
                "duration": 0.2545455,
                "tempo": 120.0
            },
            {
                "start_time": 101.0522727,
                "end_time": 126.6590909,
                "pitch": 0,
                "velocity": 32,
                "duration": 25.6068182,
                "tempo": 120.0
            },
            {
                "start_time": 126.6590909,
                "end_time": 126.9136364,
                "pitch": 77,
                "velocity": 32,
                "duration": 0.2545455,
                "tempo": 120.0
            },
            {
                "start_time": 126.9318182,
                "end_time": 127.1863636,
                "pitch": 77,
                "velocity": 32,
                "duration": 0.2545455,
                "tempo": 120.0
            },
            {
                "start_time": 127.2045455,
                "end_time": 127.4522727,
                "pitch": 77,
                "velocity": 32,
                "duration": 0.2477273,
                "tempo": 120.0
            },
            {
                "start_time": 127.4727273,
                "end_time": 127.7204545,
                "pitch": 76,
                "velocity": 32,
                "duration": 0.2477273,
                "tempo": 120.0
            },
            {
                "start_time": 127.7386364,
                "end_time": 127.9886364,
                "pitch": 72,
                "velocity": 32,
                "duration": 0.25,
                "tempo": 120.0
            },
            {
                "start_time": 128.0068182,
                "end_time": 128.2568182,
                "pitch": 72,
                "velocity": 32,
                "duration": 0.25,
                "tempo": 120.0
            },
            {
                "start_time": 127.7386364,
                "end_time": 128.275,
                "pitch": 76,
                "velocity": 32,
                "duration": 0.5363636,
                "tempo": 120.0
            },
            {
                "start_time": 128.275,
                "end_time": 128.5227273,
                "pitch": 70,
                "velocity": 32,
                "duration": 0.2477273,
                "tempo": 120.0
            },
            {
                "start_time": 128.5409091,
                "end_time": 128.7909091,
                "pitch": 70,
                "velocity": 32,
                "duration": 0.25,
                "tempo": 120.0
            },
            {
                "start_time": 128.8090909,
                "end_time": 129.0636364,
                "pitch": 67,
                "velocity": 32,
                "duration": 0.2545455,
                "tempo": 120.0
            },
            {
                "start_time": 129.0818182,
                "end_time": 129.3363636,
                "pitch": 67,
                "velocity": 32,
                "duration": 0.2545455,
                "tempo": 120.0
            },
            {
                "start_time": 126.6590909,
                "end_time": 129.3613636,
                "pitch": 0,
                "velocity": 32,
                "duration": 2.7022727,
                "tempo": 120.0
            },
            {
                "start_time": 129.3613636,
                "end_time": 129.8954545,
                "pitch": 65,
                "velocity": 51,
                "duration": 0.5340909,
                "tempo": 120.0
            }
        ]
    }
}