{
    "mood": "happy",
    "instruments": {
        "Vibraphone": [
            {
                "start_time": 0.4136364,
                "end_time": 0.8931818,
                "pitch": 82,
                "velocity": 101,
                "duration": 0.4795455,
                "tempo": 120.0
            },
            {
                "start_time": 0.8931818,
                "end_time": 1.6931818,
                "pitch": 77,
                "velocity": 101,
                "duration": 0.8,
                "tempo": 120.0
            },
            {
                "start_time": 1.6931818,
                "end_time": 2.1727273,
                "pitch": 82,
                "velocity": 101,
                "duration": 0.4795455,
                "tempo": 120.0
            },
            {
                "start_time": 0.8931818,
                "end_time": 2.1727273,
                "pitch": 90,
                "velocity": 101,
                "duration": 1.2795455,
                "tempo": 120.0
            },
            {
                "start_time": 1.6931818,
                "end_time": 2.9727273,
                "pitch": 51,
                "velocity": 101,
                "duration": 1.2795455,
                "tempo": 120.0
            },
            {
                "start_time": 2.1727273,
                "end_time": 2.9727273,
                "pitch": 77,
                "velocity": 101,
                "duration": 0.8,
                "tempo": 120.0
            },
            {
                "start_time": 2.9727273,
                "end_time": 3.4477273,
                "pitch": 82,
                "velocity": 101,
                "duration": 0.475,
                "tempo": 120.0
            },
            {
                "start_time": 2.1727273,
                "end_time": 3.4477273,
                "pitch": 90,
                "velocity": 101,
                "duration": 1.275,
                "tempo": 120.0
            },
            {
                "start_time": 3.4477273,
                "end_time": 4.2431818,
                "pitch": 77,
                "velocity": 101,
                "duration": 0.7954545,
                "tempo": 120.0
            },
            {
                "start_time": 4.2431818,
                "end_time": 4.8818182,
                "pitch": 82,
                "velocity": 101,
                "duration": 0.6386364,
                "tempo": 120.0
            },
            {
                "start_time": 4.8818182,
                "end_time": 5.5227273,
                "pitch": 75,
                "velocity": 101,
                "duration": 0.6409091,
                "tempo": 120.0
            },
            {
                "start_time": 5.5227273,
                "end_time": 6.1636364,
                "pitch": 82,
                "velocity": 101,
                "duration": 0.6409091,
                "tempo": 120.0
            },
            {
                "start_time": 4.8818182,
                "end_time": 6.1636364,
                "pitch": 89,
                "velocity": 101,
                "duration": 1.2818182,
                "tempo": 120.0
            },
            {
                "start_time": 2.9727273,
                "end_time": 6.8022727,
                "pitch": 51,
                "velocity": 101,
                "duration": 3.8295455,
                "tempo": 120.0
            },
            {
                "start_time": 6.1636364,
                "end_time": 6.8022727,
                "pitch": 75,
                "velocity": 101,
                "duration": 0.6386364,
                "tempo": 120.0
            },
            {
                "start_time": 6.8022727,
                "end_time": 7.4318182,
                "pitch": 82,
                "velocity": 101,
                "duration": 0.6295455,
                "tempo": 120.0
            },
            {
                "start_time": 6.1636364,
                "end_time": 7.4318182,
                "pitch": 89,
                "velocity": 101,
                "duration": 1.2681818,
                "tempo": 120.0
            },
            {
                "start_time": 6.8022727,
                "end_time": 8.0727273,
                "pitch": 51,
                "velocity": 101,
                "duration": 1.2704545,
                "tempo": 120.0
            },
            {
                "start_time": 7.4318182,
                "end_time": 8.0727273,
                "pitch": 75,
                "velocity": 101,
                "duration": 0.6409091,
                "tempo": 120.0
            },
            {
                "start_time": 8.0727273,
                "end_time": 8.7113636,
                "pitch": 82,
                "velocity": 101,
                "duration": 0.6386364,
                "tempo": 120.0
            },
            {
                "start_time": 7.4318182,
                "end_time": 8.7113636,
                "pitch": 89,
                "velocity": 101,
                "duration": 1.2795455,
                "tempo": 120.0
            },
            {
                "start_time": 8.0727273,
                "end_time": 9.3522727,
                "pitch": 51,
                "velocity": 101,
                "duration": 1.2795455,
                "tempo": 120.0
            },
            {
                "start_time": 8.7113636,
                "end_time": 9.3522727,
                "pitch": 75,
                "velocity": 101,
                "duration": 0.6409091,
                "tempo": 120.0
            },
            {
                "start_time": 9.3522727,
                "end_time": 9.9909091,
                "pitch": 82,
                "velocity": 101,
                "duration": 0.6386364,
                "tempo": 120.0
            },
            {
                "start_time": 9.3522727,
                "end_time": 10.6318182,
                "pitch": 51,
                "velocity": 101,
                "duration": 1.2795455,
                "tempo": 120.0
            },
            {
                "start_time": 9.9909091,
                "end_time": 10.6318182,
                "pitch": 75,
                "velocity": 101,
                "duration": 0.6409091,
                "tempo": 120.0
            },
            {
                "start_time": 10.6318182,
                "end_time": 11.2613636,
                "pitch": 82,
                "velocity": 101,
                "duration": 0.6295455,
                "tempo": 120.0
            },
            {
                "start_time": 8.7113636,
                "end_time": 11.2613636,
                "pitch": 89,
                "velocity": 101,
                "duration": 2.55,
                "tempo": 120.0
            },
            {
                "start_time": 10.6318182,
                "end_time": 11.9,
                "pitch": 51,
                "velocity": 101,
                "duration": 1.2681818,
                "tempo": 120.0
            },
            {
                "start_time": 11.2613636,
                "end_time": 11.9,
                "pitch": 75,
                "velocity": 101,
                "duration": 0.6386364,
                "tempo": 120.0
            },
            {
                "start_time": 11.9,
                "end_time": 12.5409091,
                "pitch": 82,
                "velocity": 101,
                "duration": 0.6409091,
                "tempo": 120.0
            },
            {
                "start_time": 11.2613636,
                "end_time": 12.5409091,
                "pitch": 89,
                "velocity": 101,
                "duration": 1.2795455,
                "tempo": 120.0
            },
            {
                "start_time": 11.9,
                "end_time": 13.1795455,
                "pitch": 51,
                "velocity": 101,
                "duration": 1.2795455,
                "tempo": 120.0
            },
            {
                "start_time": 12.5409091,
                "end_time": 13.1795455,
                "pitch": 75,
                "velocity": 101,
                "duration": 0.6386364,
                "tempo": 120.0
            },
            {
                "start_time": 13.1795455,
                "end_time": 13.8090909,
                "pitch": 82,
                "velocity": 101,
                "duration": 0.6295455,
                "tempo": 120.0
            },
            {
                "start_time": 12.5409091,
                "end_time": 13.8090909,
                "pitch": 89,
                "velocity": 101,
                "duration": 1.2681818,
                "tempo": 120.0
            },
            {
                "start_time": 13.8090909,
                "end_time": 14.45,
                "pitch": 75,
                "velocity": 101,
                "duration": 0.6409091,
                "tempo": 120.0
            },
            {
                "start_time": 14.45,
                "end_time": 15.0886364,
                "pitch": 82,
                "velocity": 101,
                "duration": 0.6386364,
                "tempo": 120.0
            },
            {
                "start_time": 13.8090909,
                "end_time": 15.0886364,
                "pitch": 89,
                "velocity": 101,
                "duration": 1.2795455,
                "tempo": 120.0
            },
            {
                "start_time": 15.0886364,
                "end_time": 15.7295455,
                "pitch": 75,
                "velocity": 101,
                "duration": 0.6409091,
                "tempo": 120.0
            },
            {
                "start_time": 15.7295455,
                "end_time": 18.2772727,
                "pitch": 75,
                "velocity": 101,
                "duration": 2.5477273,
                "tempo": 120.0
            },
            {
                "start_time": 18.2772727,
                "end_time": 19.8772727,
                "pitch": 73,
                "velocity": 101,
                "duration": 1.6,
                "tempo": 120.0
            },
            {
                "start_time": 13.1795455,
                "end_time": 20.8272727,
                "pitch": 51,
                "velocity": 101,
                "duration": 7.6477273,
                "tempo": 120.0
            },
            {
                "start_time": 19.8772727,
                "end_time": 20.8272727,
                "pitch": 72,
                "velocity": 101,
                "duration": 0.95,
                "tempo": 120.0
            },
            {
                "start_time": 20.8272727,
                "end_time": 21.4681818,
                "pitch": 82,
                "velocity": 101,
                "duration": 0.6409091,
                "tempo": 120.0
            },
            {
                "start_time": 15.0886364,
                "end_time": 21.4681818,
                "pitch": 89,
                "velocity": 101,
                "duration": 6.3795455,
                "tempo": 120.0
            },
            {
                "start_time": 20.8272727,
                "end_time": 22.1068182,
                "pitch": 51,
                "velocity": 101,
                "duration": 1.2795455,
                "tempo": 120.0
            },
            {
                "start_time": 21.4681818,
                "end_time": 22.1068182,
                "pitch": 75,
                "velocity": 101,
                "duration": 0.6386364,
                "tempo": 120.0
            },
            {
                "start_time": 22.1068182,
                "end_time": 22.7363636,
                "pitch": 82,
                "velocity": 101,
                "duration": 0.6295455,
                "tempo": 120.0
            },
            {
                "start_time": 21.4681818,
                "end_time": 22.7363636,
                "pitch": 89,
                "velocity": 101,
                "duration": 1.2681818,
                "tempo": 120.0
            },
            {
                "start_time": 22.7363636,
                "end_time": 23.3772727,
                "pitch": 75,
                "velocity": 101,
                "duration": 0.6409091,
                "tempo": 120.0
            },
            {
                "start_time": 23.3772727,
                "end_time": 24.0159091,
                "pitch": 82,
                "velocity": 101,
                "duration": 0.6386364,
                "tempo": 120.0
            },
            {
                "start_time": 22.7363636,
                "end_time": 24.0159091,
                "pitch": 89,
                "velocity": 101,
                "duration": 1.2795455,
                "tempo": 120.0
            },
            {
                "start_time": 22.1068182,
                "end_time": 24.6568182,
                "pitch": 51,
                "velocity": 101,
                "duration": 2.55,
                "tempo": 120.0
            },
            {
                "start_time": 24.0159091,
                "end_time": 24.6568182,
                "pitch": 75,
                "velocity": 101,
                "duration": 0.6409091,
                "tempo": 120.0
            },
            {
                "start_time": 24.6568182,
                "end_time": 25.2954545,
                "pitch": 82,
                "velocity": 101,
                "duration": 0.6386364,
                "tempo": 120.0
            },
            {
                "start_time": 25.2954545,
                "end_time": 25.9363636,
                "pitch": 75,
                "velocity": 101,
                "duration": 0.6409091,
                "tempo": 120.0
            },
            {
                "start_time": 25.9363636,
                "end_time": 26.5659091,
                "pitch": 82,
                "velocity": 101,
                "duration": 0.6295455,
                "tempo": 120.0
            },
            {
                "start_time": 24.0159091,
                "end_time": 26.5659091,
                "pitch": 89,
                "velocity": 101,
                "duration": 2.55,
                "tempo": 120.0
            },
            {
                "start_time": 24.6568182,
                "end_time": 27.2045455,
                "pitch": 51,
                "velocity": 101,
                "duration": 2.5477273,
                "tempo": 120.0
            },
            {
                "start_time": 26.5659091,
                "end_time": 27.2045455,
                "pitch": 75,
                "velocity": 101,
                "duration": 0.6386364,
                "tempo": 120.0
            },
            {
                "start_time": 27.2045455,
                "end_time": 27.8454545,
                "pitch": 82,
                "velocity": 101,
                "duration": 0.6409091,
                "tempo": 120.0
            },
            {
                "start_time": 26.5659091,
                "end_time": 27.8454545,
                "pitch": 89,
                "velocity": 101,
                "duration": 1.2795455,
                "tempo": 120.0
            },
            {
                "start_time": 27.2045455,
                "end_time": 28.4840909,
                "pitch": 51,
                "velocity": 101,
                "duration": 1.2795455,
                "tempo": 120.0
            },
            {
                "start_time": 27.8454545,
                "end_time": 28.4840909,
                "pitch": 75,
                "velocity": 101,
                "duration": 0.6386364,
                "tempo": 120.0
            },
            {
                "start_time": 28.4840909,
                "end_time": 29.1136364,
                "pitch": 82,
                "velocity": 101,
                "duration": 0.6295455,
                "tempo": 120.0
            },
            {
                "start_time": 27.8454545,
                "end_time": 29.1136364,
                "pitch": 89,
                "velocity": 101,
                "duration": 1.2681818,
                "tempo": 120.0
            },
            {
                "start_time": 29.1136364,
                "end_time": 29.7545455,
                "pitch": 75,
                "velocity": 101,
                "duration": 0.6409091,
                "tempo": 120.0
            },
            {
                "start_time": 29.7545455,
                "end_time": 30.3931818,
                "pitch": 82,
                "velocity": 101,
                "duration": 0.6386364,
                "tempo": 120.0
            },
            {
                "start_time": 29.1136364,
                "end_time": 30.3931818,
                "pitch": 89,
                "velocity": 101,
                "duration": 1.2795455,
                "tempo": 120.0
            },
            {
                "start_time": 30.3931818,
                "end_time": 31.0340909,
                "pitch": 75,
                "velocity": 101,
                "duration": 0.6409091,
                "tempo": 120.0
            },
            {
                "start_time": 31.0340909,
                "end_time": 33.5840909,
                "pitch": 75,
                "velocity": 101,
                "duration": 2.55,
                "tempo": 120.0
            },
            {
                "start_time": 33.5840909,
                "end_time": 35.1818182,
                "pitch": 73,
                "velocity": 101,
                "duration": 1.5977273,
                "tempo": 120.0
            },
            {
                "start_time": 35.1818182,
                "end_time": 35.6613636,
                "pitch": 72,
                "velocity": 101,
                "duration": 0.4795455,
                "tempo": 120.0
            }
        ],
        "Electric Piano 1": [
            {
                "start_time": 0.0954545,
                "end_time": 0.2545455,
                "pitch": 34,
                "velocity": 127,
                "duration": 0.1590909,
                "tempo": 120.0
            },
            {
                "start_time": 0.2545455,
                "end_time": 0.4136364,
                "pitch": 34,
                "velocity": 127,
                "duration": 0.1590909,
                "tempo": 120.0
            },
            {
                "start_time": 0.4136364,
                "end_time": 0.575,
                "pitch": 34,
                "velocity": 127,
                "duration": 0.1613636,
                "tempo": 120.0
            },
            {
                "start_time": 0.575,
                "end_time": 0.7340909,
                "pitch": 34,
                "velocity": 127,
                "duration": 0.1590909,
                "tempo": 120.0
            },
            {
                "start_time": 0.7340909,
                "end_time": 0.8954545,
                "pitch": 34,
                "velocity": 127,
                "duration": 0.1613636,
                "tempo": 120.0
            },
            {
                "start_time": 0.8954545,
                "end_time": 1.0545455,
                "pitch": 34,
                "velocity": 127,
                "duration": 0.1590909,
                "tempo": 120.0
            },
            {
                "start_time": 1.0545455,
                "end_time": 1.2136364,
                "pitch": 34,
                "velocity": 127,
                "duration": 0.1590909,
                "tempo": 120.0
            },
            {
                "start_time": 1.2136364,
                "end_time": 1.375,
                "pitch": 34,
                "velocity": 127,
                "duration": 0.1613636,
                "tempo": 120.0
            },
            {
                "start_time": 1.375,
                "end_time": 1.5340909,
                "pitch": 34,
                "velocity": 127,
                "duration": 0.1590909,
                "tempo": 120.0
            },
            {
                "start_time": 1.5340909,
                "end_time": 1.6931818,
                "pitch": 34,
                "velocity": 127,
                "duration": 0.1590909,
                "tempo": 120.0
            },
            {
                "start_time": 1.6931818,
                "end_time": 1.8545455,
                "pitch": 34,
                "velocity": 127,
                "duration": 0.1613636,
                "tempo": 120.0
            },
            {
                "start_time": 1.8545455,
                "end_time": 2.0136364,
                "pitch": 34,
                "velocity": 127,
                "duration": 0.1590909,
                "tempo": 120.0
            },
            {
                "start_time": 2.0136364,
                "end_time": 2.175,
                "pitch": 34,
                "velocity": 127,
                "duration": 0.1613636,
                "tempo": 120.0
            },
            {
                "start_time": 2.175,
                "end_time": 2.3340909,
                "pitch": 34,
                "velocity": 127,
                "duration": 0.1590909,
                "tempo": 120.0
            },
            {
                "start_time": 2.3340909,
                "end_time": 2.4931818,
                "pitch": 34,
                "velocity": 127,
                "duration": 0.1590909,
                "tempo": 120.0
            },
            {
                "start_time": 2.4931818,
                "end_time": 2.6545455,
                "pitch": 34,
                "velocity": 127,
                "duration": 0.1613636,
                "tempo": 120.0
            },
            {
                "start_time": 2.6545455,
                "end_time": 2.8136364,
                "pitch": 34,
                "velocity": 127,
                "duration": 0.1590909,
                "tempo": 120.0
            },
            {
                "start_time": 2.8136364,
                "end_time": 2.9727273,
                "pitch": 34,
                "velocity": 127,
                "duration": 0.1590909,
                "tempo": 120.0
            },
            {
                "start_time": 2.9727273,
                "end_time": 3.1340909,
                "pitch": 34,
                "velocity": 127,
                "duration": 0.1613636,
                "tempo": 120.0
            },
            {
                "start_time": 3.1340909,
                "end_time": 3.2931818,
                "pitch": 34,
                "velocity": 127,
                "duration": 0.1590909,
                "tempo": 120.0
            },
            {
                "start_time": 3.2931818,
                "end_time": 3.4477273,
                "pitch": 34,
                "velocity": 127,
                "duration": 0.1545455,
                "tempo": 120.0
            },
            {
                "start_time": 3.4477273,
                "end_time": 3.6022727,
                "pitch": 34,
                "velocity": 127,
                "duration": 0.1545455,
                "tempo": 120.0
            },
            {
                "start_time": 3.6022727,
                "end_time": 3.7681818,
                "pitch": 34,
                "velocity": 127,
                "duration": 0.1659091,
                "tempo": 120.0
            },
            {
                "start_time": 3.7681818,
                "end_time": 3.9340909,
                "pitch": 34,
                "velocity": 127,
                "duration": 0.1659091,
                "tempo": 120.0
            },
            {
                "start_time": 3.9340909,
                "end_time": 4.0886364,
                "pitch": 34,
                "velocity": 127,
                "duration": 0.1545455,
                "tempo": 120.0
            },
            {
                "start_time": 4.0886364,
                "end_time": 4.2431818,
                "pitch": 34,
                "velocity": 127,
                "duration": 0.1545455,
                "tempo": 120.0
            },
            {
                "start_time": 4.2431818,
                "end_time": 4.4090909,
                "pitch": 34,
                "velocity": 127,
                "duration": 0.1659091,
                "tempo": 120.0
            },
            {
                "start_time": 4.4090909,
                "end_time": 4.5727273,
                "pitch": 34,
                "velocity": 127,
                "duration": 0.1636364,
                "tempo": 120.0
            },
            {
                "start_time": 4.5727273,
                "end_time": 4.7272727,
                "pitch": 34,
                "velocity": 127,
                "duration": 0.1545455,
                "tempo": 120.0
            },
            {
                "start_time": 4.7272727,
                "end_time": 4.8840909,
                "pitch": 34,
                "velocity": 127,
                "duration": 0.1568182,
                "tempo": 120.0
            },
            {
                "start_time": 4.8840909,
                "end_time": 5.0431818,
                "pitch": 34,
                "velocity": 127,
                "duration": 0.1590909,
                "tempo": 120.0
            },
            {
                "start_time": 5.0431818,
                "end_time": 5.2022727,
                "pitch": 34,
                "velocity": 127,
                "duration": 0.1590909,
                "tempo": 120.0
            },
            {
                "start_time": 5.2022727,
                "end_time": 5.3636364,
                "pitch": 34,
                "velocity": 127,
                "duration": 0.1613636,
                "tempo": 120.0
            },
            {
                "start_time": 5.3636364,
                "end_time": 5.5227273,
                "pitch": 34,
                "velocity": 127,
                "duration": 0.1590909,
                "tempo": 120.0
            },
            {
                "start_time": 5.5227273,
                "end_time": 5.6840909,
                "pitch": 46,
                "velocity": 127,
                "duration": 0.1613636,
                "tempo": 120.0
            },
            {
                "start_time": 5.6840909,
                "end_time": 5.8431818,
                "pitch": 34,
                "velocity": 127,
                "duration": 0.1590909,
                "tempo": 120.0
            },
            {
                "start_time": 5.8431818,
                "end_time": 6.0022727,
                "pitch": 34,
                "velocity": 127,
                "duration": 0.1590909,
                "tempo": 120.0
            },
            {
                "start_time": 6.0022727,
                "end_time": 6.1636364,
                "pitch": 34,
                "velocity": 127,
                "duration": 0.1613636,
                "tempo": 120.0
            },
            {
                "start_time": 6.1636364,
                "end_time": 6.3227273,
                "pitch": 46,
                "velocity": 127,
                "duration": 0.1590909,
                "tempo": 120.0
            },
            {
                "start_time": 6.3227273,
                "end_time": 6.4818182,
                "pitch": 34,
                "velocity": 127,
                "duration": 0.1590909,
                "tempo": 120.0
            },
            {
                "start_time": 6.4818182,
                "end_time": 6.6431818,
                "pitch": 34,
                "velocity": 127,
                "duration": 0.1613636,
                "tempo": 120.0
            },
            {
                "start_time": 6.6431818,
                "end_time": 6.8022727,
                "pitch": 34,
                "velocity": 127,
                "duration": 0.1590909,
                "tempo": 120.0
            },
            {
                "start_time": 6.8022727,
                "end_time": 6.9636364,
                "pitch": 46,
                "velocity": 127,
                "duration": 0.1613636,
                "tempo": 120.0
            },
            {
                "start_time": 6.9636364,
                "end_time": 7.1227273,
                "pitch": 34,
                "velocity": 127,
                "duration": 0.1590909,
                "tempo": 120.0
            },
            {
                "start_time": 7.1227273,
                "end_time": 7.2772727,
                "pitch": 34,
                "velocity": 127,
                "duration": 0.1545455,
                "tempo": 120.0
            },
            {
                "start_time": 7.2772727,
                "end_time": 7.4318182,
                "pitch": 34,
                "velocity": 127,
                "duration": 0.1545455,
                "tempo": 120.0
            },
            {
                "start_time": 7.4318182,
                "end_time": 7.5931818,
                "pitch": 46,
                "velocity": 127,
                "duration": 0.1613636,
                "tempo": 120.0
            },
            {
                "start_time": 7.5931818,
                "end_time": 7.7522727,
                "pitch": 34,
                "velocity": 127,
                "duration": 0.1590909,
                "tempo": 120.0
            },
            {
                "start_time": 7.7522727,
                "end_time": 7.9113636,
                "pitch": 34,
                "velocity": 127,
                "duration": 0.1590909,
                "tempo": 120.0
            },
            {
                "start_time": 7.9113636,
                "end_time": 8.0727273,
                "pitch": 34,
                "velocity": 127,
                "duration": 0.1613636,
                "tempo": 120.0
            },
            {
                "start_time": 8.0727273,
                "end_time": 8.2318182,
                "pitch": 46,
                "velocity": 127,
                "duration": 0.1590909,
                "tempo": 120.0
            },
            {
                "start_time": 8.2318182,
                "end_time": 8.3909091,
                "pitch": 34,
                "velocity": 127,
                "duration": 0.1590909,
                "tempo": 120.0
            },
            {
                "start_time": 8.3909091,
                "end_time": 8.5522727,
                "pitch": 34,
                "velocity": 127,
                "duration": 0.1613636,
                "tempo": 120.0
            },
            {
                "start_time": 8.5522727,
                "end_time": 8.7113636,
                "pitch": 34,
                "velocity": 127,
                "duration": 0.1590909,
                "tempo": 120.0
            },
            {
                "start_time": 8.7113636,
                "end_time": 8.8727273,
                "pitch": 46,
                "velocity": 127,
                "duration": 0.1613636,
                "tempo": 120.0
            },
            {
                "start_time": 8.8727273,
                "end_time": 9.0318182,
                "pitch": 34,
                "velocity": 127,
                "duration": 0.1590909,
                "tempo": 120.0
            },
            {
                "start_time": 9.0318182,
                "end_time": 9.1909091,
                "pitch": 34,
                "velocity": 127,
                "duration": 0.1590909,
                "tempo": 120.0
            },
            {
                "start_time": 9.1909091,
                "end_time": 9.3522727,
                "pitch": 34,
                "velocity": 127,
                "duration": 0.1613636,
                "tempo": 120.0
            },
            {
                "start_time": 9.3522727,
                "end_time": 9.5113636,
                "pitch": 46,
                "velocity": 127,
                "duration": 0.1590909,
                "tempo": 120.0
            },
            {
                "start_time": 9.5113636,
                "end_time": 9.6704545,
                "pitch": 34,
                "velocity": 127,
                "duration": 0.1590909,
                "tempo": 120.0
            },
            {
                "start_time": 9.6704545,
                "end_time": 9.8318182,
                "pitch": 34,
                "velocity": 127,
                "duration": 0.1613636,
                "tempo": 120.0
            },
            {
                "start_time": 9.8318182,
                "end_time": 9.9909091,
                "pitch": 34,
                "velocity": 127,
                "duration": 0.1590909,
                "tempo": 120.0
            },
            {
                "start_time": 9.9909091,
                "end_time": 10.1522727,
                "pitch": 46,
                "velocity": 127,
                "duration": 0.1613636,
                "tempo": 120.0
            },
            {
                "start_time": 10.1522727,
                "end_time": 10.3113636,
                "pitch": 34,
                "velocity": 127,
                "duration": 0.1590909,
                "tempo": 120.0
            },
            {
                "start_time": 10.3113636,
                "end_time": 10.4704545,
                "pitch": 34,
                "velocity": 127,
                "duration": 0.1590909,
                "tempo": 120.0
            },
            {
                "start_time": 10.4704545,
                "end_time": 10.6318182,
                "pitch": 34,
                "velocity": 127,
                "duration": 0.1613636,
                "tempo": 120.0
            },
            {
                "start_time": 10.6318182,
                "end_time": 10.7909091,
                "pitch": 46,
                "velocity": 127,
                "duration": 0.1590909,
                "tempo": 120.0
            },
            {
                "start_time": 10.7909091,
                "end_time": 10.95,
                "pitch": 34,
                "velocity": 127,
                "duration": 0.1590909,
                "tempo": 120.0
            },
            {
                "start_time": 10.95,
                "end_time": 11.1068182,
                "pitch": 34,
                "velocity": 127,
                "duration": 0.1568182,
                "tempo": 120.0
            },
            {
                "start_time": 11.1068182,
                "end_time": 11.2613636,
                "pitch": 34,
                "velocity": 127,
                "duration": 0.1545455,
                "tempo": 120.0
            },
            {
                "start_time": 11.2613636,
                "end_time": 11.4204545,
                "pitch": 46,
                "velocity": 127,
                "duration": 0.1590909,
                "tempo": 120.0
            },
            {
                "start_time": 11.4204545,
                "end_time": 11.5818182,
                "pitch": 34,
                "velocity": 127,
                "duration": 0.1613636,
                "tempo": 120.0
            },
            {
                "start_time": 11.5818182,
                "end_time": 11.7409091,
                "pitch": 34,
                "velocity": 127,
                "duration": 0.1590909,
                "tempo": 120.0
            },
            {
                "start_time": 11.7409091,
                "end_time": 11.9,
                "pitch": 34,
                "velocity": 127,
                "duration": 0.1590909,
                "tempo": 120.0
            },
            {
                "start_time": 11.9,
                "end_time": 12.0613636,
                "pitch": 46,
                "velocity": 127,
                "duration": 0.1613636,
                "tempo": 120.0
            },
            {
                "start_time": 12.0613636,
                "end_time": 12.2204545,
                "pitch": 34,
                "velocity": 127,
                "duration": 0.1590909,
                "tempo": 120.0
            },
            {
                "start_time": 12.2204545,
                "end_time": 12.3818182,
                "pitch": 34,
                "velocity": 127,
                "duration": 0.1613636,
                "tempo": 120.0
            },
            {
                "start_time": 12.3818182,
                "end_time": 12.5409091,
                "pitch": 34,
                "velocity": 127,
                "duration": 0.1590909,
                "tempo": 120.0
            },
            {
                "start_time": 12.5409091,
                "end_time": 12.7,
                "pitch": 46,
                "velocity": 127,
                "duration": 0.1590909,
                "tempo": 120.0
            },
            {
                "start_time": 12.7,
                "end_time": 12.8613636,
                "pitch": 34,
                "velocity": 127,
                "duration": 0.1613636,
                "tempo": 120.0
            },
            {
                "start_time": 12.8613636,
                "end_time": 13.0204545,
                "pitch": 34,
                "velocity": 127,
                "duration": 0.1590909,
                "tempo": 120.0
            },
            {
                "start_time": 13.0204545,
                "end_time": 13.1795455,
                "pitch": 34,
                "velocity": 127,
                "duration": 0.1590909,
                "tempo": 120.0
            },
            {
                "start_time": 13.1795455,
                "end_time": 13.3409091,
                "pitch": 46,
                "velocity": 127,
                "duration": 0.1613636,
                "tempo": 120.0
            },
            {
                "start_time": 13.3409091,
                "end_time": 13.5,
                "pitch": 34,
                "velocity": 127,
                "duration": 0.1590909,
                "tempo": 120.0
            },
            {
                "start_time": 13.5,
                "end_time": 13.6545455,
                "pitch": 34,
                "velocity": 127,
                "duration": 0.1545455,
                "tempo": 120.0
            },
            {
                "start_time": 13.6545455,
                "end_time": 13.8090909,
                "pitch": 34,
                "velocity": 127,
                "duration": 0.1545455,
                "tempo": 120.0
            },
            {
                "start_time": 13.8090909,
                "end_time": 13.9704545,
                "pitch": 46,
                "velocity": 127,
                "duration": 0.1613636,
                "tempo": 120.0
            },
            {
                "start_time": 13.9704545,
                "end_time": 14.1295455,
                "pitch": 34,
                "velocity": 127,
                "duration": 0.1590909,
                "tempo": 120.0
            },
            {
                "start_time": 14.1295455,
                "end_time": 14.2909091,
                "pitch": 34,
                "velocity": 127,
                "duration": 0.1613636,
                "tempo": 120.0
            },
            {
                "start_time": 14.2909091,
                "end_time": 14.45,
                "pitch": 34,
                "velocity": 127,
                "duration": 0.1590909,
                "tempo": 120.0
            },
            {
                "start_time": 14.45,
                "end_time": 14.6090909,
                "pitch": 46,
                "velocity": 127,
                "duration": 0.1590909,
                "tempo": 120.0
            },
            {
                "start_time": 14.6090909,
                "end_time": 14.7704545,
                "pitch": 34,
                "velocity": 127,
                "duration": 0.1613636,
                "tempo": 120.0
            },
            {
                "start_time": 14.7704545,
                "end_time": 14.9295455,
                "pitch": 34,
                "velocity": 127,
                "duration": 0.1590909,
                "tempo": 120.0
            },
            {
                "start_time": 14.9295455,
                "end_time": 15.0886364,
                "pitch": 34,
                "velocity": 127,
                "duration": 0.1590909,
                "tempo": 120.0
            },
            {
                "start_time": 15.0886364,
                "end_time": 15.25,
                "pitch": 46,
                "velocity": 127,
                "duration": 0.1613636,
                "tempo": 120.0
            },
            {
                "start_time": 15.25,
                "end_time": 15.4090909,
                "pitch": 34,
                "velocity": 127,
                "duration": 0.1590909,
                "tempo": 120.0
            },
            {
                "start_time": 15.4090909,
                "end_time": 15.5681818,
                "pitch": 32,
                "velocity": 127,
                "duration": 0.1590909,
                "tempo": 120.0
            },
            {
                "start_time": 15.5681818,
                "end_time": 15.7295455,
                "pitch": 32,
                "velocity": 127,
                "duration": 0.1613636,
                "tempo": 120.0
            },
            {
                "start_time": 15.7295455,
                "end_time": 15.8886364,
                "pitch": 32,
                "velocity": 127,
                "duration": 0.1590909,
                "tempo": 120.0
            },
            {
                "start_time": 15.8886364,
                "end_time": 16.05,
                "pitch": 32,
                "velocity": 127,
                "duration": 0.1613636,
                "tempo": 120.0
            },
            {
                "start_time": 16.05,
                "end_time": 16.2090909,
                "pitch": 32,
                "velocity": 127,
                "duration": 0.1590909,
                "tempo": 120.0
            },
            {
                "start_time": 16.2090909,
                "end_time": 16.3681818,
                "pitch": 32,
                "velocity": 127,
                "duration": 0.1590909,
                "tempo": 120.0
            },
            {
                "start_time": 16.3681818,
                "end_time": 16.5295455,
                "pitch": 32,
                "velocity": 127,
                "duration": 0.1613636,
                "tempo": 120.0
            },
            {
                "start_time": 16.5295455,
                "end_time": 16.6886364,
                "pitch": 32,
                "velocity": 127,
                "duration": 0.1590909,
                "tempo": 120.0
            },
            {
                "start_time": 16.6886364,
                "end_time": 16.8431818,
                "pitch": 32,
                "velocity": 127,
                "duration": 0.1545455,
                "tempo": 120.0
            },
            {
                "start_time": 16.8431818,
                "end_time": 16.9977273,
                "pitch": 32,
                "velocity": 127,
                "duration": 0.1545455,
                "tempo": 120.0
            },
            {
                "start_time": 16.9977273,
                "end_time": 17.1636364,
                "pitch": 32,
                "velocity": 127,
                "duration": 0.1659091,
                "tempo": 120.0
            },
            {
                "start_time": 17.1636364,
                "end_time": 17.3295455,
                "pitch": 32,
                "velocity": 127,
                "duration": 0.1659091,
                "tempo": 120.0
            },
            {
                "start_time": 17.3295455,
                "end_time": 17.4840909,
                "pitch": 32,
                "velocity": 127,
                "duration": 0.1545455,
                "tempo": 120.0
            },
            {
                "start_time": 17.4840909,
                "end_time": 17.6386364,
                "pitch": 32,
                "velocity": 127,
                "duration": 0.1545455,
                "tempo": 120.0
            },
            {
                "start_time": 17.6386364,
                "end_time": 17.7977273,
                "pitch": 44,
                "velocity": 127,
                "duration": 0.1590909,
                "tempo": 120.0
            },
            {
                "start_time": 17.7977273,
                "end_time": 17.9590909,
                "pitch": 32,
                "velocity": 127,
                "duration": 0.1613636,
                "tempo": 120.0
            },
            {
                "start_time": 17.9590909,
                "end_time": 18.1181818,
                "pitch": 30,
                "velocity": 127,
                "duration": 0.1590909,
                "tempo": 120.0
            },
            {
                "start_time": 18.1181818,
                "end_time": 18.2795455,
                "pitch": 30,
                "velocity": 127,
                "duration": 0.1613636,
                "tempo": 120.0
            },
            {
                "start_time": 18.2795455,
                "end_time": 18.4386364,
                "pitch": 30,
                "velocity": 127,
                "duration": 0.1590909,
                "tempo": 120.0
            },
            {
                "start_time": 18.4386364,
                "end_time": 18.5977273,
                "pitch": 30,
                "velocity": 127,
                "duration": 0.1590909,
                "tempo": 120.0
            },
            {
                "start_time": 18.5977273,
                "end_time": 18.7590909,
                "pitch": 30,
                "velocity": 127,
                "duration": 0.1613636,
                "tempo": 120.0
            },
            {
                "start_time": 18.7590909,
                "end_time": 18.9181818,
                "pitch": 30,
                "velocity": 127,
                "duration": 0.1590909,
                "tempo": 120.0
            },
            {
                "start_time": 17.9590909,
                "end_time": 19.0772727,
                "pitch": 42,
                "velocity": 127,
                "duration": 1.1181818,
                "tempo": 120.0
            },
            {
                "start_time": 18.9181818,
                "end_time": 19.0772727,
                "pitch": 42,
                "velocity": 127,
                "duration": 0.1590909,
                "tempo": 120.0
            },
            {
                "start_time": 19.0772727,
                "end_time": 19.2386364,
                "pitch": 30,
                "velocity": 127,
                "duration": 0.1613636,
                "tempo": 120.0
            },
            {
                "start_time": 19.2386364,
                "end_time": 19.3977273,
                "pitch": 32,
                "velocity": 127,
                "duration": 0.1590909,
                "tempo": 120.0
            },
            {
                "start_time": 19.3977273,
                "end_time": 19.5568182,
                "pitch": 32,
                "velocity": 127,
                "duration": 0.1590909,
                "tempo": 120.0
            },
            {
                "start_time": 19.5568182,
                "end_time": 19.7181818,
                "pitch": 32,
                "velocity": 127,
                "duration": 0.1613636,
                "tempo": 120.0
            },
            {
                "start_time": 19.7181818,
                "end_time": 19.8772727,
                "pitch": 32,
                "velocity": 127,
                "duration": 0.1590909,
                "tempo": 120.0
            },
            {
                "start_time": 19.8772727,
                "end_time": 20.0318182,
                "pitch": 32,
                "velocity": 127,
                "duration": 0.1545455,
                "tempo": 120.0
            },
            {
                "start_time": 20.0318182,
                "end_time": 20.1886364,
                "pitch": 32,
                "velocity": 127,
                "duration": 0.1568182,
                "tempo": 120.0
            },
            {
                "start_time": 20.1886364,
                "end_time": 20.3477273,
                "pitch": 44,
                "velocity": 127,
                "duration": 0.1590909,
                "tempo": 120.0
            },
            {
                "start_time": 20.3477273,
                "end_time": 20.5068182,
                "pitch": 32,
                "velocity": 127,
                "duration": 0.1590909,
                "tempo": 120.0
            },
            {
                "start_time": 20.5068182,
                "end_time": 20.6681818,
                "pitch": 34,
                "velocity": 127,
                "duration": 0.1613636,
                "tempo": 120.0
            },
            {
                "start_time": 20.6681818,
                "end_time": 20.8272727,
                "pitch": 34,
                "velocity": 127,
                "duration": 0.1590909,
                "tempo": 120.0
            },
            {
                "start_time": 20.8272727,
                "end_time": 20.9886364,
                "pitch": 46,
                "velocity": 127,
                "duration": 0.1613636,
                "tempo": 120.0
            },
            {
                "start_time": 20.9886364,
                "end_time": 21.1477273,
                "pitch": 34,
                "velocity": 127,
                "duration": 0.1590909,
                "tempo": 120.0
            },
            {
                "start_time": 21.1477273,
                "end_time": 21.3068182,
                "pitch": 34,
                "velocity": 127,
                "duration": 0.1590909,
                "tempo": 120.0
            },
            {
                "start_time": 21.3068182,
                "end_time": 21.4681818,
                "pitch": 34,
                "velocity": 127,
                "duration": 0.1613636,
                "tempo": 120.0
            },
            {
                "start_time": 21.4681818,
                "end_time": 21.6272727,
                "pitch": 46,
                "velocity": 127,
                "duration": 0.1590909,
                "tempo": 120.0
            },
            {
                "start_time": 21.6272727,
                "end_time": 21.7863636,
                "pitch": 34,
                "velocity": 127,
                "duration": 0.1590909,
                "tempo": 120.0
            },
            {
                "start_time": 21.7863636,
                "end_time": 21.9477273,
                "pitch": 34,
                "velocity": 127,
                "duration": 0.1613636,
                "tempo": 120.0
            },
            {
                "start_time": 21.9477273,
                "end_time": 22.1068182,
                "pitch": 34,
                "velocity": 127,
                "duration": 0.1590909,
                "tempo": 120.0
            },
            {
                "start_time": 22.1068182,
                "end_time": 22.2681818,
                "pitch": 46,
                "velocity": 127,
                "duration": 0.1613636,
                "tempo": 120.0
            },
            {
                "start_time": 22.2681818,
                "end_time": 22.4272727,
                "pitch": 34,
                "velocity": 127,
                "duration": 0.1590909,
                "tempo": 120.0
            },
            {
                "start_time": 22.4272727,
                "end_time": 22.5818182,
                "pitch": 34,
                "velocity": 127,
                "duration": 0.1545455,
                "tempo": 120.0
            },
            {
                "start_time": 22.5818182,
                "end_time": 22.7363636,
                "pitch": 34,
                "velocity": 127,
                "duration": 0.1545455,
                "tempo": 120.0
            },
            {
                "start_time": 22.7363636,
                "end_time": 22.9022727,
                "pitch": 46,
                "velocity": 127,
                "duration": 0.1659091,
                "tempo": 120.0
            },
            {
                "start_time": 22.9022727,
                "end_time": 23.0659091,
                "pitch": 34,
                "velocity": 127,
                "duration": 0.1636364,
                "tempo": 120.0
            },
            {
                "start_time": 23.0659091,
                "end_time": 23.2204545,
                "pitch": 34,
                "velocity": 127,
                "duration": 0.1545455,
                "tempo": 120.0
            },
            {
                "start_time": 23.2204545,
                "end_time": 23.3772727,
                "pitch": 34,
                "velocity": 127,
                "duration": 0.1568182,
                "tempo": 120.0
            },
            {
                "start_time": 23.3772727,
                "end_time": 23.5409091,
                "pitch": 46,
                "velocity": 127,
                "duration": 0.1636364,
                "tempo": 120.0
            },
            {
                "start_time": 23.5409091,
                "end_time": 23.7068182,
                "pitch": 34,
                "velocity": 127,
                "duration": 0.1659091,
                "tempo": 120.0
            },
            {
                "start_time": 23.7068182,
                "end_time": 23.8613636,
                "pitch": 34,
                "velocity": 127,
                "duration": 0.1545455,
                "tempo": 120.0
            },
            {
                "start_time": 23.8613636,
                "end_time": 24.0159091,
                "pitch": 34,
                "velocity": 127,
                "duration": 0.1545455,
                "tempo": 120.0
            },
            {
                "start_time": 24.0159091,
                "end_time": 24.1772727,
                "pitch": 46,
                "velocity": 127,
                "duration": 0.1613636,
                "tempo": 120.0
            },
            {
                "start_time": 24.1772727,
                "end_time": 24.3363636,
                "pitch": 34,
                "velocity": 127,
                "duration": 0.1590909,
                "tempo": 120.0
            },
            {
                "start_time": 24.3363636,
                "end_time": 24.4954545,
                "pitch": 34,
                "velocity": 127,
                "duration": 0.1590909,
                "tempo": 120.0
            },
            {
                "start_time": 24.4954545,
                "end_time": 24.6568182,
                "pitch": 34,
                "velocity": 127,
                "duration": 0.1613636,
                "tempo": 120.0
            },
            {
                "start_time": 24.6568182,
                "end_time": 24.8159091,
                "pitch": 46,
                "velocity": 127,
                "duration": 0.1590909,
                "tempo": 120.0
            },
            {
                "start_time": 24.8159091,
                "end_time": 24.9772727,
                "pitch": 34,
                "velocity": 127,
                "duration": 0.1613636,
                "tempo": 120.0
            },
            {
                "start_time": 24.9772727,
                "end_time": 25.1363636,
                "pitch": 34,
                "velocity": 127,
                "duration": 0.1590909,
                "tempo": 120.0
            },
            {
                "start_time": 25.1363636,
                "end_time": 25.2954545,
                "pitch": 34,
                "velocity": 127,
                "duration": 0.1590909,
                "tempo": 120.0
            },
            {
                "start_time": 25.2954545,
                "end_time": 25.4568182,
                "pitch": 46,
                "velocity": 127,
                "duration": 0.1613636,
                "tempo": 120.0
            },
            {
                "start_time": 25.4568182,
                "end_time": 25.6159091,
                "pitch": 34,
                "velocity": 127,
                "duration": 0.1590909,
                "tempo": 120.0
            },
            {
                "start_time": 25.6159091,
                "end_time": 25.775,
                "pitch": 34,
                "velocity": 127,
                "duration": 0.1590909,
                "tempo": 120.0
            },
            {
                "start_time": 25.775,
                "end_time": 25.9363636,
                "pitch": 34,
                "velocity": 127,
                "duration": 0.1613636,
                "tempo": 120.0
            },
            {
                "start_time": 25.9363636,
                "end_time": 26.0954545,
                "pitch": 46,
                "velocity": 127,
                "duration": 0.1590909,
                "tempo": 120.0
            },
            {
                "start_time": 26.0954545,
                "end_time": 26.2545455,
                "pitch": 34,
                "velocity": 127,
                "duration": 0.1590909,
                "tempo": 120.0
            },
            {
                "start_time": 26.2545455,
                "end_time": 26.4113636,
                "pitch": 34,
                "velocity": 127,
                "duration": 0.1568182,
                "tempo": 120.0
            },
            {
                "start_time": 26.4113636,
                "end_time": 26.5659091,
                "pitch": 34,
                "velocity": 127,
                "duration": 0.1545455,
                "tempo": 120.0
            },
            {
                "start_time": 26.5659091,
                "end_time": 26.725,
                "pitch": 46,
                "velocity": 127,
                "duration": 0.1590909,
                "tempo": 120.0
            },
            {
                "start_time": 26.725,
                "end_time": 26.8863636,
                "pitch": 34,
                "velocity": 127,
                "duration": 0.1613636,
                "tempo": 120.0
            },
            {
                "start_time": 26.8863636,
                "end_time": 27.0454545,
                "pitch": 34,
                "velocity": 127,
                "duration": 0.1590909,
                "tempo": 120.0
            },
            {
                "start_time": 27.0454545,
                "end_time": 27.2045455,
                "pitch": 34,
                "velocity": 127,
                "duration": 0.1590909,
                "tempo": 120.0
            },
            {
                "start_time": 27.2045455,
                "end_time": 27.3659091,
                "pitch": 46,
                "velocity": 127,
                "duration": 0.1613636,
                "tempo": 120.0
            },
            {
                "start_time": 27.3659091,
                "end_time": 27.525,
                "pitch": 34,
                "velocity": 127,
                "duration": 0.1590909,
                "tempo": 120.0
            },
            {
                "start_time": 27.525,
                "end_time": 27.6863636,
                "pitch": 34,
                "velocity": 127,
                "duration": 0.1613636,
                "tempo": 120.0
            },
            {
                "start_time": 27.6863636,
                "end_time": 27.8454545,
                "pitch": 34,
                "velocity": 127,
                "duration": 0.1590909,
                "tempo": 120.0
            },
            {
                "start_time": 27.8454545,
                "end_time": 28.0045455,
                "pitch": 46,
                "velocity": 127,
                "duration": 0.1590909,
                "tempo": 120.0
            },
            {
                "start_time": 28.0045455,
                "end_time": 28.1659091,
                "pitch": 34,
                "velocity": 127,
                "duration": 0.1613636,
                "tempo": 120.0
            },
            {
                "start_time": 28.1659091,
                "end_time": 28.325,
                "pitch": 34,
                "velocity": 127,
                "duration": 0.1590909,
                "tempo": 120.0
            },
            {
                "start_time": 28.325,
                "end_time": 28.4840909,
                "pitch": 34,
                "velocity": 127,
                "duration": 0.1590909,
                "tempo": 120.0
            },
            {
                "start_time": 28.4840909,
                "end_time": 28.6454545,
                "pitch": 46,
                "velocity": 127,
                "duration": 0.1613636,
                "tempo": 120.0
            },
            {
                "start_time": 28.6454545,
                "end_time": 28.8045455,
                "pitch": 34,
                "velocity": 127,
                "duration": 0.1590909,
                "tempo": 120.0
            },
            {
                "start_time": 28.8045455,
                "end_time": 28.9590909,
                "pitch": 34,
                "velocity": 127,
                "duration": 0.1545455,
                "tempo": 120.0
            },
            {
                "start_time": 28.9590909,
                "end_time": 29.1136364,
                "pitch": 34,
                "velocity": 127,
                "duration": 0.1545455,
                "tempo": 120.0
            },
            {
                "start_time": 29.1136364,
                "end_time": 29.2795455,
                "pitch": 46,
                "velocity": 127,
                "duration": 0.1659091,
                "tempo": 120.0
            },
            {
                "start_time": 29.2795455,
                "end_time": 29.4454545,
                "pitch": 34,
                "velocity": 127,
                "duration": 0.1659091,
                "tempo": 120.0
            },
            {
                "start_time": 29.4454545,
                "end_time": 29.6,
                "pitch": 34,
                "velocity": 127,
                "duration": 0.1545455,
                "tempo": 120.0
            },
            {
                "start_time": 29.6,
                "end_time": 29.7545455,
                "pitch": 34,
                "velocity": 127,
                "duration": 0.1545455,
                "tempo": 120.0
            },
            {
                "start_time": 29.7545455,
                "end_time": 29.9204545,
                "pitch": 46,
                "velocity": 127,
                "duration": 0.1659091,
                "tempo": 120.0
            },
            {
                "start_time": 29.9204545,
                "end_time": 30.0840909,
                "pitch": 34,
                "velocity": 127,
                "duration": 0.1636364,
                "tempo": 120.0
            },
            {
                "start_time": 30.0840909,
                "end_time": 30.2386364,
                "pitch": 34,
                "velocity": 127,
                "duration": 0.1545455,
                "tempo": 120.0
            },
            {
                "start_time": 30.2386364,
                "end_time": 30.3954545,
                "pitch": 34,
                "velocity": 127,
                "duration": 0.1568182,
                "tempo": 120.0
            },
            {
                "start_time": 30.3954545,
                "end_time": 30.5545455,
                "pitch": 46,
                "velocity": 127,
                "duration": 0.1590909,
                "tempo": 120.0
            },
            {
                "start_time": 30.5545455,
                "end_time": 30.7136364,
                "pitch": 34,
                "velocity": 127,
                "duration": 0.1590909,
                "tempo": 120.0
            },
            {
                "start_time": 30.7136364,
                "end_time": 30.875,
                "pitch": 32,
                "velocity": 127,
                "duration": 0.1613636,
                "tempo": 120.0
            },
            {
                "start_time": 30.875,
                "end_time": 31.0340909,
                "pitch": 32,
                "velocity": 127,
                "duration": 0.1590909,
                "tempo": 120.0
            },
            {
                "start_time": 31.0340909,
                "end_time": 31.1931818,
                "pitch": 32,
                "velocity": 127,
                "duration": 0.1590909,
                "tempo": 120.0
            },
            {
                "start_time": 31.1931818,
                "end_time": 31.3545455,
                "pitch": 32,
                "velocity": 127,
                "duration": 0.1613636,
                "tempo": 120.0
            },
            {
                "start_time": 31.3545455,
                "end_time": 31.5136364,
                "pitch": 32,
                "velocity": 127,
                "duration": 0.1590909,
                "tempo": 120.0
            },
            {
                "start_time": 31.5136364,
                "end_time": 31.6727273,
                "pitch": 32,
                "velocity": 127,
                "duration": 0.1590909,
                "tempo": 120.0
            },
            {
                "start_time": 31.6727273,
                "end_time": 31.8340909,
                "pitch": 32,
                "velocity": 127,
                "duration": 0.1613636,
                "tempo": 120.0
            },
            {
                "start_time": 31.8340909,
                "end_time": 31.9931818,
                "pitch": 32,
                "velocity": 127,
                "duration": 0.1590909,
                "tempo": 120.0
            },
            {
                "start_time": 31.9931818,
                "end_time": 32.1545455,
                "pitch": 32,
                "velocity": 127,
                "duration": 0.1613636,
                "tempo": 120.0
            },
            {
                "start_time": 32.1545455,
                "end_time": 32.3136364,
                "pitch": 32,
                "velocity": 127,
                "duration": 0.1590909,
                "tempo": 120.0
            },
            {
                "start_time": 32.3136364,
                "end_time": 32.4727273,
                "pitch": 32,
                "velocity": 127,
                "duration": 0.1590909,
                "tempo": 120.0
            },
            {
                "start_time": 32.4727273,
                "end_time": 32.6340909,
                "pitch": 32,
                "velocity": 127,
                "duration": 0.1613636,
                "tempo": 120.0
            },
            {
                "start_time": 32.6340909,
                "end_time": 32.7886364,
                "pitch": 32,
                "velocity": 127,
                "duration": 0.1545455,
                "tempo": 120.0
            },
            {
                "start_time": 32.7886364,
                "end_time": 32.9431818,
                "pitch": 32,
                "velocity": 127,
                "duration": 0.1545455,
                "tempo": 120.0
            },
            {
                "start_time": 32.9431818,
                "end_time": 33.1022727,
                "pitch": 44,
                "velocity": 127,
                "duration": 0.1590909,
                "tempo": 120.0
            },
            {
                "start_time": 33.1022727,
                "end_time": 33.2636364,
                "pitch": 32,
                "velocity": 127,
                "duration": 0.1613636,
                "tempo": 120.0
            },
            {
                "start_time": 33.2636364,
                "end_time": 33.4227273,
                "pitch": 30,
                "velocity": 127,
                "duration": 0.1590909,
                "tempo": 120.0
            },
            {
                "start_time": 33.4227273,
                "end_time": 33.5840909,
                "pitch": 30,
                "velocity": 127,
                "duration": 0.1613636,
                "tempo": 120.0
            },
            {
                "start_time": 33.5840909,
                "end_time": 33.7431818,
                "pitch": 30,
                "velocity": 127,
                "duration": 0.1590909,
                "tempo": 120.0
            },
            {
                "start_time": 33.7431818,
                "end_time": 33.9022727,
                "pitch": 30,
                "velocity": 127,
                "duration": 0.1590909,
                "tempo": 120.0
            },
            {
                "start_time": 33.9022727,
                "end_time": 34.0636364,
                "pitch": 30,
                "velocity": 127,
                "duration": 0.1613636,
                "tempo": 120.0
            },
            {
                "start_time": 34.0636364,
                "end_time": 34.2227273,
                "pitch": 30,
                "velocity": 127,
                "duration": 0.1590909,
                "tempo": 120.0
            },
            {
                "start_time": 33.2636364,
                "end_time": 34.3818182,
                "pitch": 42,
                "velocity": 127,
                "duration": 1.1181818,
                "tempo": 120.0
            },
            {
                "start_time": 34.2227273,
                "end_time": 34.3818182,
                "pitch": 42,
                "velocity": 127,
                "duration": 0.1590909,
                "tempo": 120.0
            },
            {
                "start_time": 34.3818182,
                "end_time": 34.5431818,
                "pitch": 30,
                "velocity": 127,
                "duration": 0.1613636,
                "tempo": 120.0
            },
            {
                "start_time": 34.5431818,
                "end_time": 34.7022727,
                "pitch": 32,
                "velocity": 127,
                "duration": 0.1590909,
                "tempo": 120.0
            },
            {
                "start_time": 34.7022727,
                "end_time": 34.8636364,
                "pitch": 32,
                "velocity": 127,
                "duration": 0.1613636,
                "tempo": 120.0
            },
            {
                "start_time": 34.8636364,
                "end_time": 35.0227273,
                "pitch": 32,
                "velocity": 127,
                "duration": 0.1590909,
                "tempo": 120.0
            },
            {
                "start_time": 35.0227273,
                "end_time": 35.1818182,
                "pitch": 32,
                "velocity": 127,
                "duration": 0.1590909,
                "tempo": 120.0
            },
            {
                "start_time": 35.1818182,
                "end_time": 35.3431818,
                "pitch": 32,
                "velocity": 127,
                "duration": 0.1613636,
                "tempo": 120.0
            },
            {
                "start_time": 35.3431818,
                "end_time": 35.5022727,
                "pitch": 32,
                "velocity": 127,
                "duration": 0.1590909,
                "tempo": 120.0
            },
            {
                "start_time": 35.5022727,
                "end_time": 35.6636364,
                "pitch": 44,
                "velocity": 127,
                "duration": 0.1613636,
                "tempo": 120.0
            },
            {
                "start_time": 35.6636364,
                "end_time": 35.8227273,
                "pitch": 32,
                "velocity": 127,
                "duration": 0.1590909,
                "tempo": 120.0
            },
            {
                "start_time": 35.8227273,
                "end_time": 35.9772727,
                "pitch": 34,
                "velocity": 127,
                "duration": 0.1545455,
                "tempo": 120.0
            },
            {
                "start_time": 35.9772727,
                "end_time": 36.1318182,
                "pitch": 34,
                "velocity": 127,
                "duration": 0.1545455,
                "tempo": 120.0
            },
            {
                "start_time": 36.1318182,
                "end_time": 36.2931818,
                "pitch": 34,
                "velocity": 127,
                "duration": 0.1613636,
                "tempo": 120.0
            },
            {
                "start_time": 36.2931818,
                "end_time": 36.4522727,
                "pitch": 34,
                "velocity": 127,
                "duration": 0.1590909,
                "tempo": 120.0
            },
            {
                "start_time": 36.4522727,
                "end_time": 36.6113636,
                "pitch": 34,
                "velocity": 127,
                "duration": 0.1590909,
                "tempo": 120.0
            },
            {
                "start_time": 36.6113636,
                "end_time": 36.7727273,
                "pitch": 34,
                "velocity": 127,
                "duration": 0.1613636,
                "tempo": 120.0
            },
            {
                "start_time": 36.7727273,
                "end_time": 36.9318182,
                "pitch": 34,
                "velocity": 127,
                "duration": 0.1590909,
                "tempo": 120.0
            },
            {
                "start_time": 36.9318182,
                "end_time": 37.0909091,
                "pitch": 34,
                "velocity": 127,
                "duration": 0.1590909,
                "tempo": 120.0
            },
            {
                "start_time": 37.0909091,
                "end_time": 37.2522727,
                "pitch": 34,
                "velocity": 127,
                "duration": 0.1613636,
                "tempo": 120.0
            },
            {
                "start_time": 37.2522727,
                "end_time": 37.4113636,
                "pitch": 34,
                "velocity": 127,
                "duration": 0.1590909,
                "tempo": 120.0
            },
            {
                "start_time": 37.4113636,
                "end_time": 37.5727273,
                "pitch": 34,
                "velocity": 127,
                "duration": 0.1613636,
                "tempo": 120.0
            },
            {
                "start_time": 37.5727273,
                "end_time": 37.7318182,
                "pitch": 34,
                "velocity": 127,
                "duration": 0.1590909,
                "tempo": 120.0
            },
            {
                "start_time": 37.7318182,
                "end_time": 37.8909091,
                "pitch": 46,
                "velocity": 127,
                "duration": 0.1590909,
                "tempo": 120.0
            },
            {
                "start_time": 37.8909091,
                "end_time": 38.0522727,
                "pitch": 34,
                "velocity": 127,
                "duration": 0.1613636,
                "tempo": 120.0
            },
            {
                "start_time": 38.0522727,
                "end_time": 38.2113636,
                "pitch": 46,
                "velocity": 127,
                "duration": 0.1590909,
                "tempo": 120.0
            },
            {
                "start_time": 38.2113636,
                "end_time": 38.3704545,
                "pitch": 34,
                "velocity": 127,
                "duration": 0.1590909,
                "tempo": 120.0
            },
            {
                "start_time": 38.3704545,
                "end_time": 38.5318182,
                "pitch": 32,
                "velocity": 127,
                "duration": 0.1613636,
                "tempo": 120.0
            },
            {
                "start_time": 38.5318182,
                "end_time": 38.6909091,
                "pitch": 32,
                "velocity": 127,
                "duration": 0.1590909,
                "tempo": 120.0
            },
            {
                "start_time": 38.6909091,
                "end_time": 38.8454545,
                "pitch": 32,
                "velocity": 127,
                "duration": 0.1545455,
                "tempo": 120.0
            },
            {
                "start_time": 38.8454545,
                "end_time": 39.0,
                "pitch": 32,
                "velocity": 127,
                "duration": 0.1545455,
                "tempo": 120.0
            },
            {
                "start_time": 39.0,
                "end_time": 39.1613636,
                "pitch": 32,
                "velocity": 127,
                "duration": 0.1613636,
                "tempo": 120.0
            },
            {
                "start_time": 39.1613636,
                "end_time": 39.3204545,
                "pitch": 32,
                "velocity": 127,
                "duration": 0.1590909,
                "tempo": 120.0
            },
            {
                "start_time": 39.3204545,
                "end_time": 39.4818182,
                "pitch": 32,
                "velocity": 127,
                "duration": 0.1613636,
                "tempo": 120.0
            },
            {
                "start_time": 39.4818182,
                "end_time": 39.6409091,
                "pitch": 32,
                "velocity": 127,
                "duration": 0.1590909,
                "tempo": 120.0
            },
            {
                "start_time": 39.6409091,
                "end_time": 39.8,
                "pitch": 32,
                "velocity": 127,
                "duration": 0.1590909,
                "tempo": 120.0
            },
            {
                "start_time": 39.8,
                "end_time": 39.9613636,
                "pitch": 32,
                "velocity": 127,
                "duration": 0.1613636,
                "tempo": 120.0
            },
            {
                "start_time": 39.9613636,
                "end_time": 40.1204545,
                "pitch": 32,
                "velocity": 127,
                "duration": 0.1590909,
                "tempo": 120.0
            },
            {
                "start_time": 40.1204545,
                "end_time": 40.2818182,
                "pitch": 32,
                "velocity": 127,
                "duration": 0.1613636,
                "tempo": 120.0
            },
            {
                "start_time": 40.2818182,
                "end_time": 40.4409091,
                "pitch": 32,
                "velocity": 127,
                "duration": 0.1590909,
                "tempo": 120.0
            },
            {
                "start_time": 40.4409091,
                "end_time": 40.6,
                "pitch": 32,
                "velocity": 127,
                "duration": 0.1590909,
                "tempo": 120.0
            },
            {
                "start_time": 40.6,
                "end_time": 40.7613636,
                "pitch": 44,
                "velocity": 127,
                "duration": 0.1613636,
                "tempo": 120.0
            },
            {
                "start_time": 40.7613636,
                "end_time": 40.9204545,
                "pitch": 32,
                "velocity": 127,
                "duration": 0.1590909,
                "tempo": 120.0
            },
            {
                "start_time": 40.9204545,
                "end_time": 41.0795455,
                "pitch": 34,
                "velocity": 127,
                "duration": 0.1590909,
                "tempo": 120.0
            },
            {
                "start_time": 41.0795455,
                "end_time": 41.2409091,
                "pitch": 34,
                "velocity": 127,
                "duration": 0.1613636,
                "tempo": 120.0
            },
            {
                "start_time": 41.2409091,
                "end_time": 41.4,
                "pitch": 34,
                "velocity": 127,
                "duration": 0.1590909,
                "tempo": 120.0
            },
            {
                "start_time": 41.4,
                "end_time": 41.5590909,
                "pitch": 34,
                "velocity": 127,
                "duration": 0.1590909,
                "tempo": 120.0
            },
            {
                "start_time": 41.5590909,
                "end_time": 41.7159091,
                "pitch": 34,
                "velocity": 127,
                "duration": 0.1568182,
                "tempo": 120.0
            },
            {
                "start_time": 41.7159091,
                "end_time": 41.8704545,
                "pitch": 34,
                "velocity": 127,
                "duration": 0.1545455,
                "tempo": 120.0
            },
            {
                "start_time": 41.8704545,
                "end_time": 42.0295455,
                "pitch": 34,
                "velocity": 127,
                "duration": 0.1590909,
                "tempo": 120.0
            },
            {
                "start_time": 42.0295455,
                "end_time": 42.1909091,
                "pitch": 34,
                "velocity": 127,
                "duration": 0.1613636,
                "tempo": 120.0
            },
            {
                "start_time": 42.1909091,
                "end_time": 42.35,
                "pitch": 34,
                "velocity": 127,
                "duration": 0.1590909,
                "tempo": 120.0
            },
            {
                "start_time": 42.35,
                "end_time": 42.5090909,
                "pitch": 34,
                "velocity": 127,
                "duration": 0.1590909,
                "tempo": 120.0
            },
            {
                "start_time": 42.5090909,
                "end_time": 42.6704545,
                "pitch": 34,
                "velocity": 127,
                "duration": 0.1613636,
                "tempo": 120.0
            },
            {
                "start_time": 42.6704545,
                "end_time": 42.8295455,
                "pitch": 34,
                "velocity": 127,
                "duration": 0.1590909,
                "tempo": 120.0
            },
            {
                "start_time": 42.8295455,
                "end_time": 42.9886364,
                "pitch": 46,
                "velocity": 127,
                "duration": 0.1590909,
                "tempo": 120.0
            },
            {
                "start_time": 42.9886364,
                "end_time": 43.15,
                "pitch": 34,
                "velocity": 127,
                "duration": 0.1613636,
                "tempo": 120.0
            },
            {
                "start_time": 43.15,
                "end_time": 43.3090909,
                "pitch": 46,
                "velocity": 127,
                "duration": 0.1590909,
                "tempo": 120.0
            },
            {
                "start_time": 43.3090909,
                "end_time": 43.4704545,
                "pitch": 34,
                "velocity": 127,
                "duration": 0.1613636,
                "tempo": 120.0
            },
            {
                "start_time": 43.4704545,
                "end_time": 43.6295455,
                "pitch": 32,
                "velocity": 127,
                "duration": 0.1590909,
                "tempo": 120.0
            },
            {
                "start_time": 43.6295455,
                "end_time": 43.7886364,
                "pitch": 32,
                "velocity": 127,
                "duration": 0.1590909,
                "tempo": 120.0
            },
            {
                "start_time": 43.7886364,
                "end_time": 43.95,
                "pitch": 32,
                "velocity": 127,
                "duration": 0.1613636,
                "tempo": 120.0
            },
            {
                "start_time": 43.95,
                "end_time": 44.1090909,
                "pitch": 32,
                "velocity": 127,
                "duration": 0.1590909,
                "tempo": 120.0
            },
            {
                "start_time": 44.1090909,
                "end_time": 44.2681818,
                "pitch": 32,
                "velocity": 127,
                "duration": 0.1590909,
                "tempo": 120.0
            },
            {
                "start_time": 44.2681818,
                "end_time": 44.4295455,
                "pitch": 32,
                "velocity": 127,
                "duration": 0.1613636,
                "tempo": 120.0
            },
            {
                "start_time": 44.4295455,
                "end_time": 44.5886364,
                "pitch": 32,
                "velocity": 127,
                "duration": 0.1590909,
                "tempo": 120.0
            },
            {
                "start_time": 44.5886364,
                "end_time": 44.75,
                "pitch": 32,
                "velocity": 127,
                "duration": 0.1613636,
                "tempo": 120.0
            },
            {
                "start_time": 44.75,
                "end_time": 44.9045455,
                "pitch": 32,
                "velocity": 127,
                "duration": 0.1545455,
                "tempo": 120.0
            },
            {
                "start_time": 44.9045455,
                "end_time": 45.0590909,
                "pitch": 32,
                "velocity": 127,
                "duration": 0.1545455,
                "tempo": 120.0
            },
            {
                "start_time": 45.0590909,
                "end_time": 45.2227273,
                "pitch": 32,
                "velocity": 127,
                "duration": 0.1636364,
                "tempo": 120.0
            },
            {
                "start_time": 45.225,
                "end_time": 45.3886364,
                "pitch": 32,
                "velocity": 127,
                "duration": 0.1636364,
                "tempo": 120.0
            },
            {
                "start_time": 45.3886364,
                "end_time": 45.5431818,
                "pitch": 32,
                "velocity": 127,
                "duration": 0.1545455,
                "tempo": 120.0
            },
            {
                "start_time": 45.5431818,
                "end_time": 45.7,
                "pitch": 32,
                "velocity": 127,
                "duration": 0.1568182,
                "tempo": 120.0
            },
            {
                "start_time": 45.7,
                "end_time": 45.8590909,
                "pitch": 44,
                "velocity": 127,
                "duration": 0.1590909,
                "tempo": 120.0
            },
            {
                "start_time": 45.8590909,
                "end_time": 46.0181818,
                "pitch": 32,
                "velocity": 127,
                "duration": 0.1590909,
                "tempo": 120.0
            },
            {
                "start_time": 46.0181818,
                "end_time": 46.1795455,
                "pitch": 34,
                "velocity": 127,
                "duration": 0.1613636,
                "tempo": 120.0
            },
            {
                "start_time": 46.1795455,
                "end_time": 46.3386364,
                "pitch": 34,
                "velocity": 127,
                "duration": 0.1590909,
                "tempo": 120.0
            },
            {
                "start_time": 46.3386364,
                "end_time": 46.4977273,
                "pitch": 34,
                "velocity": 127,
                "duration": 0.1590909,
                "tempo": 120.0
            },
            {
                "start_time": 46.4977273,
                "end_time": 46.6590909,
                "pitch": 34,
                "velocity": 127,
                "duration": 0.1613636,
                "tempo": 120.0
            },
            {
                "start_time": 46.6590909,
                "end_time": 46.8181818,
                "pitch": 34,
                "velocity": 127,
                "duration": 0.1590909,
                "tempo": 120.0
            },
            {
                "start_time": 46.8181818,
                "end_time": 46.9795455,
                "pitch": 34,
                "velocity": 127,
                "duration": 0.1613636,
                "tempo": 120.0
            },
            {
                "start_time": 46.9795455,
                "end_time": 47.1386364,
                "pitch": 46,
                "velocity": 127,
                "duration": 0.1590909,
                "tempo": 120.0
            },
            {
                "start_time": 47.1386364,
                "end_time": 47.2977273,
                "pitch": 34,
                "velocity": 127,
                "duration": 0.1590909,
                "tempo": 120.0
            },
            {
                "start_time": 47.2977273,
                "end_time": 47.4590909,
                "pitch": 34,
                "velocity": 127,
                "duration": 0.1613636,
                "tempo": 120.0
            },
            {
                "start_time": 47.4590909,
                "end_time": 47.6181818,
                "pitch": 34,
                "velocity": 127,
                "duration": 0.1590909,
                "tempo": 120.0
            },
            {
                "start_time": 47.6181818,
                "end_time": 47.7772727,
                "pitch": 34,
                "velocity": 127,
                "duration": 0.1590909,
                "tempo": 120.0
            },
            {
                "start_time": 47.7772727,
                "end_time": 47.9386364,
                "pitch": 34,
                "velocity": 127,
                "duration": 0.1613636,
                "tempo": 120.0
            },
            {
                "start_time": 47.9386364,
                "end_time": 48.0931818,
                "pitch": 34,
                "velocity": 127,
                "duration": 0.1545455,
                "tempo": 120.0
            },
            {
                "start_time": 48.0931818,
                "end_time": 48.2477273,
                "pitch": 34,
                "velocity": 127,
                "duration": 0.1545455,
                "tempo": 120.0
            },
            {
                "start_time": 48.2477273,
                "end_time": 48.4090909,
                "pitch": 46,
                "velocity": 127,
                "duration": 0.1613636,
                "tempo": 120.0
            },
            {
                "start_time": 48.4090909,
                "end_time": 48.5681818,
                "pitch": 34,
                "velocity": 127,
                "duration": 0.1590909,
                "tempo": 120.0
            }
        ],
        "Clarinet": [
            {
                "start_time": 5.3636364,
                "end_time": 6.0022727,
                "pitch": 70,
                "velocity": 64,
                "duration": 0.6386364,
                "tempo": 120.0
            },
            {
                "start_time": 6.0022727,
                "end_time": 7.9113636,
                "pitch": 77,
                "velocity": 64,
                "duration": 1.9090909,
                "tempo": 120.0
            },
            {
                "start_time": 7.9113636,
                "end_time": 8.0727273,
                "pitch": 70,
                "velocity": 64,
                "duration": 0.1613636,
                "tempo": 120.0
            },
            {
                "start_time": 8.0727273,
                "end_time": 8.2318182,
                "pitch": 74,
                "velocity": 64,
                "duration": 0.1590909,
                "tempo": 120.0
            },
            {
                "start_time": 7.9113636,
                "end_time": 10.4704545,
                "pitch": 52,
                "velocity": 64,
                "duration": 2.5590909,
                "tempo": 120.0
            },
            {
                "start_time": 8.2318182,
                "end_time": 10.4704545,
                "pitch": 75,
                "velocity": 64,
                "duration": 2.2386364,
                "tempo": 120.0
            },
            {
                "start_time": 10.4704545,
                "end_time": 11.1068182,
                "pitch": 70,
                "velocity": 64,
                "duration": 0.6363636,
                "tempo": 120.0
            },
            {
                "start_time": 6.0022727,
                "end_time": 11.1068182,
                "pitch": 78,
                "velocity": 64,
                "duration": 5.1045455,
                "tempo": 120.0
            },
            {
                "start_time": 10.4704545,
                "end_time": 13.0204545,
                "pitch": 52,
                "velocity": 64,
                "duration": 2.55,
                "tempo": 120.0
            },
            {
                "start_time": 8.0727273,
                "end_time": 13.0204545,
                "pitch": 77,
                "velocity": 64,
                "duration": 4.9477273,
                "tempo": 120.0
            },
            {
                "start_time": 11.1068182,
                "end_time": 13.0204545,
                "pitch": 77,
                "velocity": 64,
                "duration": 1.9136364,
                "tempo": 120.0
            },
            {
                "start_time": 13.0204545,
                "end_time": 13.1795455,
                "pitch": 70,
                "velocity": 64,
                "duration": 0.1590909,
                "tempo": 120.0
            },
            {
                "start_time": 13.1795455,
                "end_time": 13.3409091,
                "pitch": 74,
                "velocity": 64,
                "duration": 0.1613636,
                "tempo": 120.0
            },
            {
                "start_time": 13.3409091,
                "end_time": 15.5704545,
                "pitch": 75,
                "velocity": 64,
                "duration": 2.2295455,
                "tempo": 120.0
            },
            {
                "start_time": 15.5704545,
                "end_time": 16.2090909,
                "pitch": 74,
                "velocity": 64,
                "duration": 0.6386364,
                "tempo": 120.0
            },
            {
                "start_time": 16.2090909,
                "end_time": 17.6386364,
                "pitch": 75,
                "velocity": 64,
                "duration": 1.4295455,
                "tempo": 120.0
            },
            {
                "start_time": 13.1795455,
                "end_time": 17.7977273,
                "pitch": 77,
                "velocity": 64,
                "duration": 4.6181818,
                "tempo": 120.0
            },
            {
                "start_time": 17.6386364,
                "end_time": 17.7977273,
                "pitch": 77,
                "velocity": 64,
                "duration": 0.1590909,
                "tempo": 120.0
            },
            {
                "start_time": 17.7977273,
                "end_time": 17.9590909,
                "pitch": 75,
                "velocity": 64,
                "duration": 0.1613636,
                "tempo": 120.0
            },
            {
                "start_time": 17.9590909,
                "end_time": 18.1181818,
                "pitch": 74,
                "velocity": 64,
                "duration": 0.1590909,
                "tempo": 120.0
            },
            {
                "start_time": 18.1181818,
                "end_time": 18.7590909,
                "pitch": 70,
                "velocity": 64,
                "duration": 0.6409091,
                "tempo": 120.0
            },
            {
                "start_time": 18.7590909,
                "end_time": 19.3977273,
                "pitch": 68,
                "velocity": 64,
                "duration": 0.6386364,
                "tempo": 120.0
            },
            {
                "start_time": 18.7590909,
                "end_time": 19.3977273,
                "pitch": 68,
                "velocity": 64,
                "duration": 0.6386364,
                "tempo": 120.0
            },
            {
                "start_time": 19.3977273,
                "end_time": 19.7181818,
                "pitch": 70,
                "velocity": 64,
                "duration": 0.3204545,
                "tempo": 120.0
            },
            {
                "start_time": 19.3977273,
                "end_time": 19.7181818,
                "pitch": 70,
                "velocity": 64,
                "duration": 0.3204545,
                "tempo": 120.0
            },
            {
                "start_time": 19.7181818,
                "end_time": 20.0318182,
                "pitch": 72,
                "velocity": 64,
                "duration": 0.3136364,
                "tempo": 120.0
            },
            {
                "start_time": 20.0318182,
                "end_time": 20.3477273,
                "pitch": 73,
                "velocity": 64,
                "duration": 0.3159091,
                "tempo": 120.0
            },
            {
                "start_time": 20.3477273,
                "end_time": 20.6681818,
                "pitch": 80,
                "velocity": 64,
                "duration": 0.3204545,
                "tempo": 120.0
            },
            {
                "start_time": 20.6681818,
                "end_time": 21.3068182,
                "pitch": 70,
                "velocity": 64,
                "duration": 0.6386364,
                "tempo": 120.0
            },
            {
                "start_time": 21.3068182,
                "end_time": 23.2227273,
                "pitch": 77,
                "velocity": 64,
                "duration": 1.9159091,
                "tempo": 120.0
            },
            {
                "start_time": 23.2227273,
                "end_time": 23.3772727,
                "pitch": 70,
                "velocity": 64,
                "duration": 0.1545455,
                "tempo": 120.0
            },
            {
                "start_time": 23.3772727,
                "end_time": 23.5409091,
                "pitch": 74,
                "velocity": 64,
                "duration": 0.1636364,
                "tempo": 120.0
            },
            {
                "start_time": 13.0204545,
                "end_time": 25.775,
                "pitch": 52,
                "velocity": 64,
                "duration": 12.7545455,
                "tempo": 120.0
            },
            {
                "start_time": 23.5409091,
                "end_time": 25.775,
                "pitch": 75,
                "velocity": 64,
                "duration": 2.2340909,
                "tempo": 120.0
            },
            {
                "start_time": 25.775,
                "end_time": 26.4113636,
                "pitch": 70,
                "velocity": 64,
                "duration": 0.6363636,
                "tempo": 120.0
            },
            {
                "start_time": 11.1068182,
                "end_time": 26.4113636,
                "pitch": 78,
                "velocity": 64,
                "duration": 15.3045455,
                "tempo": 120.0
            },
            {
                "start_time": 25.775,
                "end_time": 28.325,
                "pitch": 52,
                "velocity": 64,
                "duration": 2.55,
                "tempo": 120.0
            },
            {
                "start_time": 23.3772727,
                "end_time": 28.325,
                "pitch": 77,
                "velocity": 64,
                "duration": 4.9477273,
                "tempo": 120.0
            },
            {
                "start_time": 26.4113636,
                "end_time": 28.325,
                "pitch": 77,
                "velocity": 64,
                "duration": 1.9136364,
                "tempo": 120.0
            },
            {
                "start_time": 28.325,
                "end_time": 28.4840909,
                "pitch": 70,
                "velocity": 64,
                "duration": 0.1590909,
                "tempo": 120.0
            },
            {
                "start_time": 28.4840909,
                "end_time": 28.6454545,
                "pitch": 74,
                "velocity": 64,
                "duration": 0.1613636,
                "tempo": 120.0
            },
            {
                "start_time": 28.6454545,
                "end_time": 30.875,
                "pitch": 75,
                "velocity": 64,
                "duration": 2.2295455,
                "tempo": 120.0
            },
            {
                "start_time": 30.875,
                "end_time": 31.5136364,
                "pitch": 74,
                "velocity": 64,
                "duration": 0.6386364,
                "tempo": 120.0
            },
            {
                "start_time": 31.5136364,
                "end_time": 32.9431818,
                "pitch": 75,
                "velocity": 64,
                "duration": 1.4295455,
                "tempo": 120.0
            },
            {
                "start_time": 32.9431818,
                "end_time": 33.1022727,
                "pitch": 77,
                "velocity": 64,
                "duration": 0.1590909,
                "tempo": 120.0
            },
            {
                "start_time": 33.1022727,
                "end_time": 33.2636364,
                "pitch": 75,
                "velocity": 64,
                "duration": 0.1613636,
                "tempo": 120.0
            },
            {
                "start_time": 28.325,
                "end_time": 33.4227273,
                "pitch": 52,
                "velocity": 64,
                "duration": 5.0977273,
                "tempo": 120.0
            },
            {
                "start_time": 33.2636364,
                "end_time": 33.4227273,
                "pitch": 74,
                "velocity": 64,
                "duration": 0.1590909,
                "tempo": 120.0
            },
            {
                "start_time": 33.4227273,
                "end_time": 34.0636364,
                "pitch": 70,
                "velocity": 64,
                "duration": 0.6409091,
                "tempo": 120.0
            },
            {
                "start_time": 34.0636364,
                "end_time": 34.7022727,
                "pitch": 68,
                "velocity": 64,
                "duration": 0.6386364,
                "tempo": 120.0
            },
            {
                "start_time": 34.7022727,
                "end_time": 35.3431818,
                "pitch": 70,
                "velocity": 64,
                "duration": 0.6409091,
                "tempo": 120.0
            },
            {
                "start_time": 19.7181818,
                "end_time": 35.3431818,
                "pitch": 76,
                "velocity": 64,
                "duration": 15.625,
                "tempo": 120.0
            },
            {
                "start_time": 35.3431818,
                "end_time": 35.6636364,
                "pitch": 72,
                "velocity": 64,
                "duration": 0.3204545,
                "tempo": 120.0
            }
        ],
        "Violin": [
            {
                "start_time": 35.8227273,
                "end_time": 36.4522727,
                "pitch": 89,
                "velocity": 127,
                "duration": 0.6295455,
                "tempo": 120.0
            },
            {
                "start_time": 36.4522727,
                "end_time": 37.7318182,
                "pitch": 87,
                "velocity": 127,
                "duration": 1.2795455,
                "tempo": 120.0
            },
            {
                "start_time": 37.7318182,
                "end_time": 38.3727273,
                "pitch": 85,
                "velocity": 127,
                "duration": 0.6409091,
                "tempo": 120.0
            },
            {
                "start_time": 38.3727273,
                "end_time": 39.0022727,
                "pitch": 85,
                "velocity": 127,
                "duration": 0.6295455,
                "tempo": 120.0
            },
            {
                "start_time": 39.0022727,
                "end_time": 40.9204545,
                "pitch": 84,
                "velocity": 127,
                "duration": 1.9181818,
                "tempo": 120.0
            },
            {
                "start_time": 40.9204545,
                "end_time": 41.5590909,
                "pitch": 89,
                "velocity": 127,
                "duration": 0.6386364,
                "tempo": 120.0
            },
            {
                "start_time": 41.5590909,
                "end_time": 42.8295455,
                "pitch": 87,
                "velocity": 127,
                "duration": 1.2704545,
                "tempo": 120.0
            },
            {
                "start_time": 42.8295455,
                "end_time": 43.4704545,
                "pitch": 85,
                "velocity": 127,
                "duration": 0.6409091,
                "tempo": 120.0
            },
            {
                "start_time": 43.4704545,
                "end_time": 44.1090909,
                "pitch": 85,
                "velocity": 127,
                "duration": 0.6386364,
                "tempo": 120.0
            },
            {
                "start_time": 44.1090909,
                "end_time": 46.0181818,
                "pitch": 84,
                "velocity": 127,
                "duration": 1.9090909,
                "tempo": 120.0
            },
            {
                "start_time": 46.0181818,
                "end_time": 48.2477273,
                "pitch": 82,
                "velocity": 127,
                "duration": 2.2295455,
                "tempo": 120.0
            }
        ]
    }
}