{
    "mood": "happy",
    "instruments": {
        "Electric Piano 1": [
            {
                "start_time": 14.1227273,
                "end_time": 14.3227273,
                "pitch": 74,
                "velocity": 51,
                "duration": 0.2,
                "tempo": 120.0
            },
            {
                "start_time": 14.3227273,
                "end_time": 14.525,
                "pitch": 72,
                "velocity": 51,
                "duration": 0.2022727,
                "tempo": 120.0
            },
            {
                "start_time": 14.525,
                "end_time": 14.9295455,
                "pitch": 70,
                "velocity": 51,
                "duration": 0.4045455,
                "tempo": 120.0
            },
            {
                "start_time": 14.9295455,
                "end_time": 15.3386364,
                "pitch": 70,
                "velocity": 51,
                "duration": 0.4090909,
                "tempo": 120.0
            },
            {
                "start_time": 15.3409091,
                "end_time": 15.7409091,
                "pitch": 70,
                "velocity": 51,
                "duration": 0.4,
                "tempo": 120.0
            },
            {
                "start_time": 15.7431818,
                "end_time": 15.7909091,
                "pitch": 82,
                "velocity": 16,
                "duration": 0.0477273,
                "tempo": 120.0
            },
            {
                "start_time": 15.7909091,
                "end_time": 15.8409091,
                "pitch": 82,
                "velocity": 20,
                "duration": 0.05,
                "tempo": 120.0
            },
            {
                "start_time": 15.8409091,
                "end_time": 15.8886364,
                "pitch": 82,
                "velocity": 25,
                "duration": 0.0477273,
                "tempo": 120.0
            },
            {
                "start_time": 15.8886364,
                "end_time": 15.9386364,
                "pitch": 82,
                "velocity": 32,
                "duration": 0.05,
                "tempo": 120.0
            },
            {
                "start_time": 15.9386364,
                "end_time": 15.9863636,
                "pitch": 82,
                "velocity": 40,
                "duration": 0.0477273,
                "tempo": 120.0
            },
            {
                "start_time": 15.9886364,
                "end_time": 16.0363636,
                "pitch": 82,
                "velocity": 51,
                "duration": 0.0477273,
                "tempo": 120.0
            },
            {
                "start_time": 16.0363636,
                "end_time": 16.0863636,
                "pitch": 82,
                "velocity": 64,
                "duration": 0.05,
                "tempo": 120.0
            },
            {
                "start_time": 16.0863636,
                "end_time": 16.1363636,
                "pitch": 82,
                "velocity": 80,
                "duration": 0.05,
                "tempo": 120.0
            },
            {
                "start_time": 16.1363636,
                "end_time": 16.1863636,
                "pitch": 82,
                "velocity": 80,
                "duration": 0.05,
                "tempo": 120.0
            },
            {
                "start_time": 16.1886364,
                "end_time": 16.2386364,
                "pitch": 82,
                "velocity": 64,
                "duration": 0.05,
                "tempo": 120.0
            },
            {
                "start_time": 16.2386364,
                "end_time": 16.2909091,
                "pitch": 82,
                "velocity": 51,
                "duration": 0.0522727,
                "tempo": 120.0
            },
            {
                "start_time": 16.2909091,
                "end_time": 16.3409091,
                "pitch": 82,
                "velocity": 40,
                "duration": 0.05,
                "tempo": 120.0
            },
            {
                "start_time": 16.3409091,
                "end_time": 16.3931818,
                "pitch": 82,
                "velocity": 32,
                "duration": 0.0522727,
                "tempo": 120.0
            },
            {
                "start_time": 16.3931818,
                "end_time": 16.4431818,
                "pitch": 82,
                "velocity": 25,
                "duration": 0.05,
                "tempo": 120.0
            },
            {
                "start_time": 16.4454545,
                "end_time": 16.4954545,
                "pitch": 82,
                "velocity": 20,
                "duration": 0.05,
                "tempo": 120.0
            },
            {
                "start_time": 16.4954545,
                "end_time": 16.5477273,
                "pitch": 82,
                "velocity": 16,
                "duration": 0.0522727,
                "tempo": 120.0
            },
            {
                "start_time": 16.5477273,
                "end_time": 16.7522727,
                "pitch": 82,
                "velocity": 40,
                "duration": 0.2045455,
                "tempo": 120.0
            },
            {
                "start_time": 16.7522727,
                "end_time": 16.9568182,
                "pitch": 70,
                "velocity": 51,
                "duration": 0.2045455,
                "tempo": 120.0
            },
            {
                "start_time": 16.9568182,
                "end_time": 17.1477273,
                "pitch": 75,
                "velocity": 51,
                "duration": 0.1909091,
                "tempo": 120.0
            },
            {
                "start_time": 17.1477273,
                "end_time": 17.3409091,
                "pitch": 74,
                "velocity": 51,
                "duration": 0.1931818,
                "tempo": 120.0
            },
            {
                "start_time": 17.3409091,
                "end_time": 17.7522727,
                "pitch": 72,
                "velocity": 51,
                "duration": 0.4113636,
                "tempo": 120.0
            },
            {
                "start_time": 17.7522727,
                "end_time": 18.1522727,
                "pitch": 72,
                "velocity": 51,
                "duration": 0.4,
                "tempo": 120.0
            },
            {
                "start_time": 18.1522727,
                "end_time": 18.2022727,
                "pitch": 84,
                "velocity": 16,
                "duration": 0.05,
                "tempo": 120.0
            },
            {
                "start_time": 18.2022727,
                "end_time": 18.2522727,
                "pitch": 84,
                "velocity": 20,
                "duration": 0.05,
                "tempo": 120.0
            },
            {
                "start_time": 18.2522727,
                "end_time": 18.3022727,
                "pitch": 84,
                "velocity": 25,
                "duration": 0.05,
                "tempo": 120.0
            },
            {
                "start_time": 18.3045455,
                "end_time": 18.3545455,
                "pitch": 84,
                "velocity": 32,
                "duration": 0.05,
                "tempo": 120.0
            },
            {
                "start_time": 18.3545455,
                "end_time": 18.4045455,
                "pitch": 84,
                "velocity": 40,
                "duration": 0.05,
                "tempo": 120.0
            },
            {
                "start_time": 18.4045455,
                "end_time": 18.4545455,
                "pitch": 84,
                "velocity": 51,
                "duration": 0.05,
                "tempo": 120.0
            },
            {
                "start_time": 18.4545455,
                "end_time": 18.5045455,
                "pitch": 84,
                "velocity": 64,
                "duration": 0.05,
                "tempo": 120.0
            },
            {
                "start_time": 18.5045455,
                "end_time": 18.5545455,
                "pitch": 84,
                "velocity": 64,
                "duration": 0.05,
                "tempo": 120.0
            },
            {
                "start_time": 18.5545455,
                "end_time": 18.7545455,
                "pitch": 84,
                "velocity": 32,
                "duration": 0.2,
                "tempo": 120.0
            },
            {
                "start_time": 18.7568182,
                "end_time": 18.9568182,
                "pitch": 74,
                "velocity": 51,
                "duration": 0.2,
                "tempo": 120.0
            },
            {
                "start_time": 18.9568182,
                "end_time": 19.1613636,
                "pitch": 75,
                "velocity": 51,
                "duration": 0.2045455,
                "tempo": 120.0
            },
            {
                "start_time": 19.1613636,
                "end_time": 19.3659091,
                "pitch": 76,
                "velocity": 51,
                "duration": 0.2045455,
                "tempo": 120.0
            },
            {
                "start_time": 19.3659091,
                "end_time": 19.4477273,
                "pitch": 79,
                "velocity": 51,
                "duration": 0.0818182,
                "tempo": 120.0
            },
            {
                "start_time": 19.4477273,
                "end_time": 19.6113636,
                "pitch": 79,
                "velocity": 51,
                "duration": 0.1636364,
                "tempo": 120.0
            },
            {
                "start_time": 19.4477273,
                "end_time": 19.6113636,
                "pitch": 91,
                "velocity": 51,
                "duration": 0.1636364,
                "tempo": 120.0
            },
            {
                "start_time": 19.6113636,
                "end_time": 19.7590909,
                "pitch": 79,
                "velocity": 51,
                "duration": 0.1477273,
                "tempo": 120.0
            },
            {
                "start_time": 19.7590909,
                "end_time": 20.1704545,
                "pitch": 77,
                "velocity": 51,
                "duration": 0.4113636,
                "tempo": 120.0
            },
            {
                "start_time": 20.1704545,
                "end_time": 20.5704545,
                "pitch": 75,
                "velocity": 51,
                "duration": 0.4,
                "tempo": 120.0
            },
            {
                "start_time": 20.5704545,
                "end_time": 20.6204545,
                "pitch": 74,
                "velocity": 16,
                "duration": 0.05,
                "tempo": 120.0
            },
            {
                "start_time": 20.6204545,
                "end_time": 20.6681818,
                "pitch": 74,
                "velocity": 20,
                "duration": 0.0477273,
                "tempo": 120.0
            },
            {
                "start_time": 20.6681818,
                "end_time": 20.7181818,
                "pitch": 74,
                "velocity": 25,
                "duration": 0.05,
                "tempo": 120.0
            },
            {
                "start_time": 20.7181818,
                "end_time": 20.7659091,
                "pitch": 74,
                "velocity": 32,
                "duration": 0.0477273,
                "tempo": 120.0
            },
            {
                "start_time": 20.7681818,
                "end_time": 20.8159091,
                "pitch": 74,
                "velocity": 40,
                "duration": 0.0477273,
                "tempo": 120.0
            },
            {
                "start_time": 20.8159091,
                "end_time": 20.8659091,
                "pitch": 74,
                "velocity": 51,
                "duration": 0.05,
                "tempo": 120.0
            },
            {
                "start_time": 20.8659091,
                "end_time": 20.9136364,
                "pitch": 74,
                "velocity": 64,
                "duration": 0.0477273,
                "tempo": 120.0
            },
            {
                "start_time": 20.9136364,
                "end_time": 20.9636364,
                "pitch": 74,
                "velocity": 64,
                "duration": 0.05,
                "tempo": 120.0
            },
            {
                "start_time": 20.9636364,
                "end_time": 21.1636364,
                "pitch": 74,
                "velocity": 40,
                "duration": 0.2,
                "tempo": 120.0
            },
            {
                "start_time": 21.1636364,
                "end_time": 21.3659091,
                "pitch": 75,
                "velocity": 51,
                "duration": 0.2022727,
                "tempo": 120.0
            },
            {
                "start_time": 21.3659091,
                "end_time": 21.5704545,
                "pitch": 74,
                "velocity": 51,
                "duration": 0.2045455,
                "tempo": 120.0
            },
            {
                "start_time": 21.5704545,
                "end_time": 21.775,
                "pitch": 72,
                "velocity": 51,
                "duration": 0.2045455,
                "tempo": 120.0
            },
            {
                "start_time": 21.775,
                "end_time": 22.1681818,
                "pitch": 70,
                "velocity": 51,
                "duration": 0.3931818,
                "tempo": 120.0
            },
            {
                "start_time": 24.1954545,
                "end_time": 24.5772727,
                "pitch": 58,
                "velocity": 51,
                "duration": 0.3818182,
                "tempo": 120.0
            },
            {
                "start_time": 24.5795455,
                "end_time": 25.1795455,
                "pitch": 65,
                "velocity": 51,
                "duration": 0.6,
                "tempo": 120.0
            },
            {
                "start_time": 25.1795455,
                "end_time": 25.3795455,
                "pitch": 58,
                "velocity": 51,
                "duration": 0.2,
                "tempo": 120.0
            },
            {
                "start_time": 25.3795455,
                "end_time": 25.7909091,
                "pitch": 58,
                "velocity": 51,
                "duration": 0.4113636,
                "tempo": 120.0
            },
            {
                "start_time": 25.7909091,
                "end_time": 26.1931818,
                "pitch": 65,
                "velocity": 51,
                "duration": 0.4022727,
                "tempo": 120.0
            },
            {
                "start_time": 26.1954545,
                "end_time": 26.3113636,
                "pitch": 67,
                "velocity": 51,
                "duration": 0.1159091,
                "tempo": 120.0
            },
            {
                "start_time": 26.3113636,
                "end_time": 26.3954545,
                "pitch": 67,
                "velocity": 51,
                "duration": 0.0840909,
                "tempo": 120.0
            },
            {
                "start_time": 26.3954545,
                "end_time": 26.5954545,
                "pitch": 57,
                "velocity": 51,
                "duration": 0.2,
                "tempo": 120.0
            },
            {
                "start_time": 26.5954545,
                "end_time": 26.7954545,
                "pitch": 58,
                "velocity": 51,
                "duration": 0.2,
                "tempo": 120.0
            },
            {
                "start_time": 26.7977273,
                "end_time": 26.9977273,
                "pitch": 62,
                "velocity": 51,
                "duration": 0.2,
                "tempo": 120.0
            },
            {
                "start_time": 26.9977273,
                "end_time": 27.1977273,
                "pitch": 63,
                "velocity": 51,
                "duration": 0.2,
                "tempo": 120.0
            },
            {
                "start_time": 27.1977273,
                "end_time": 27.3977273,
                "pitch": 65,
                "velocity": 51,
                "duration": 0.2,
                "tempo": 120.0
            },
            {
                "start_time": 27.3977273,
                "end_time": 27.8,
                "pitch": 70,
                "velocity": 51,
                "duration": 0.4022727,
                "tempo": 120.0
            },
            {
                "start_time": 27.8,
                "end_time": 27.85,
                "pitch": 70,
                "velocity": 51,
                "duration": 0.05,
                "tempo": 120.0
            },
            {
                "start_time": 27.85,
                "end_time": 27.9,
                "pitch": 72,
                "velocity": 51,
                "duration": 0.05,
                "tempo": 120.0
            },
            {
                "start_time": 27.9,
                "end_time": 27.95,
                "pitch": 70,
                "velocity": 51,
                "duration": 0.05,
                "tempo": 120.0
            },
            {
                "start_time": 27.95,
                "end_time": 28.0,
                "pitch": 72,
                "velocity": 51,
                "duration": 0.05,
                "tempo": 120.0
            },
            {
                "start_time": 28.0,
                "end_time": 28.05,
                "pitch": 70,
                "velocity": 40,
                "duration": 0.05,
                "tempo": 120.0
            },
            {
                "start_time": 28.0522727,
                "end_time": 28.1022727,
                "pitch": 72,
                "velocity": 40,
                "duration": 0.05,
                "tempo": 120.0
            },
            {
                "start_time": 28.1022727,
                "end_time": 28.1522727,
                "pitch": 70,
                "velocity": 40,
                "duration": 0.05,
                "tempo": 120.0
            },
            {
                "start_time": 28.1522727,
                "end_time": 28.2022727,
                "pitch": 72,
                "velocity": 40,
                "duration": 0.05,
                "tempo": 120.0
            },
            {
                "start_time": 28.2022727,
                "end_time": 28.2522727,
                "pitch": 70,
                "velocity": 32,
                "duration": 0.05,
                "tempo": 120.0
            },
            {
                "start_time": 28.2522727,
                "end_time": 28.3022727,
                "pitch": 72,
                "velocity": 32,
                "duration": 0.05,
                "tempo": 120.0
            },
            {
                "start_time": 28.3022727,
                "end_time": 28.3522727,
                "pitch": 70,
                "velocity": 32,
                "duration": 0.05,
                "tempo": 120.0
            },
            {
                "start_time": 28.3522727,
                "end_time": 28.4022727,
                "pitch": 72,
                "velocity": 32,
                "duration": 0.05,
                "tempo": 120.0
            },
            {
                "start_time": 28.4022727,
                "end_time": 28.4522727,
                "pitch": 70,
                "velocity": 25,
                "duration": 0.05,
                "tempo": 120.0
            },
            {
                "start_time": 28.4522727,
                "end_time": 28.5022727,
                "pitch": 72,
                "velocity": 25,
                "duration": 0.05,
                "tempo": 120.0
            },
            {
                "start_time": 28.5022727,
                "end_time": 28.5522727,
                "pitch": 70,
                "velocity": 25,
                "duration": 0.05,
                "tempo": 120.0
            },
            {
                "start_time": 28.5522727,
                "end_time": 28.6022727,
                "pitch": 72,
                "velocity": 25,
                "duration": 0.05,
                "tempo": 120.0
            },
            {
                "start_time": 28.6022727,
                "end_time": 29.0068182,
                "pitch": 70,
                "velocity": 51,
                "duration": 0.4045455,
                "tempo": 120.0
            },
            {
                "start_time": 29.0068182,
                "end_time": 29.6068182,
                "pitch": 72,
                "velocity": 51,
                "duration": 0.6,
                "tempo": 120.0
            },
            {
                "start_time": 29.6068182,
                "end_time": 29.8068182,
                "pitch": 65,
                "velocity": 51,
                "duration": 0.2,
                "tempo": 120.0
            },
            {
                "start_time": 29.8068182,
                "end_time": 30.2090909,
                "pitch": 65,
                "velocity": 51,
                "duration": 0.4022727,
                "tempo": 120.0
            },
            {
                "start_time": 30.2113636,
                "end_time": 30.8113636,
                "pitch": 72,
                "velocity": 51,
                "duration": 0.6,
                "tempo": 120.0
            },
            {
                "start_time": 30.8136364,
                "end_time": 31.0136364,
                "pitch": 74,
                "velocity": 51,
                "duration": 0.2,
                "tempo": 120.0
            },
            {
                "start_time": 31.0136364,
                "end_time": 31.2136364,
                "pitch": 72,
                "velocity": 51,
                "duration": 0.2,
                "tempo": 120.0
            },
            {
                "start_time": 31.2136364,
                "end_time": 31.4136364,
                "pitch": 70,
                "velocity": 51,
                "duration": 0.2,
                "tempo": 120.0
            },
            {
                "start_time": 31.4136364,
                "end_time": 31.6136364,
                "pitch": 69,
                "velocity": 51,
                "duration": 0.2,
                "tempo": 120.0
            },
            {
                "start_time": 31.6159091,
                "end_time": 31.8159091,
                "pitch": 70,
                "velocity": 51,
                "duration": 0.2,
                "tempo": 120.0
            },
            {
                "start_time": 31.8159091,
                "end_time": 32.0159091,
                "pitch": 69,
                "velocity": 51,
                "duration": 0.2,
                "tempo": 120.0
            },
            {
                "start_time": 26.3113636,
                "end_time": 32.0181818,
                "pitch": 79,
                "velocity": 51,
                "duration": 5.7068182,
                "tempo": 120.0
            },
            {
                "start_time": 32.0159091,
                "end_time": 32.0181818,
                "pitch": 79,
                "velocity": 51,
                "duration": 0.0022727,
                "tempo": 120.0
            },
            {
                "start_time": 32.0159091,
                "end_time": 32.1681818,
                "pitch": 67,
                "velocity": 51,
                "duration": 0.1522727,
                "tempo": 120.0
            },
            {
                "start_time": 32.0181818,
                "end_time": 32.1681818,
                "pitch": 67,
                "velocity": 51,
                "duration": 0.15,
                "tempo": 120.0
            },
            {
                "start_time": 32.1681818,
                "end_time": 32.2181818,
                "pitch": 67,
                "velocity": 51,
                "duration": 0.05,
                "tempo": 120.0
            },
            {
                "start_time": 32.2181818,
                "end_time": 32.425,
                "pitch": 65,
                "velocity": 51,
                "duration": 0.2068182,
                "tempo": 120.0
            },
            {
                "start_time": 32.425,
                "end_time": 32.6295455,
                "pitch": 64,
                "velocity": 51,
                "duration": 0.2045455,
                "tempo": 120.0
            },
            {
                "start_time": 32.6295455,
                "end_time": 32.6795455,
                "pitch": 64,
                "velocity": 51,
                "duration": 0.05,
                "tempo": 120.0
            },
            {
                "start_time": 32.6795455,
                "end_time": 32.7295455,
                "pitch": 65,
                "velocity": 51,
                "duration": 0.05,
                "tempo": 120.0
            },
            {
                "start_time": 32.7318182,
                "end_time": 32.7818182,
                "pitch": 64,
                "velocity": 51,
                "duration": 0.05,
                "tempo": 120.0
            },
            {
                "start_time": 32.7818182,
                "end_time": 32.8318182,
                "pitch": 65,
                "velocity": 51,
                "duration": 0.05,
                "tempo": 120.0
            },
            {
                "start_time": 32.8318182,
                "end_time": 32.8818182,
                "pitch": 64,
                "velocity": 40,
                "duration": 0.05,
                "tempo": 120.0
            },
            {
                "start_time": 32.8818182,
                "end_time": 32.9318182,
                "pitch": 65,
                "velocity": 40,
                "duration": 0.05,
                "tempo": 120.0
            },
            {
                "start_time": 32.9318182,
                "end_time": 32.9818182,
                "pitch": 64,
                "velocity": 40,
                "duration": 0.05,
                "tempo": 120.0
            },
            {
                "start_time": 32.9818182,
                "end_time": 33.0318182,
                "pitch": 65,
                "velocity": 40,
                "duration": 0.05,
                "tempo": 120.0
            },
            {
                "start_time": 33.0340909,
                "end_time": 33.0818182,
                "pitch": 64,
                "velocity": 32,
                "duration": 0.0477273,
                "tempo": 120.0
            },
            {
                "start_time": 33.0840909,
                "end_time": 33.1318182,
                "pitch": 65,
                "velocity": 32,
                "duration": 0.0477273,
                "tempo": 120.0
            },
            {
                "start_time": 33.1340909,
                "end_time": 33.1818182,
                "pitch": 64,
                "velocity": 32,
                "duration": 0.0477273,
                "tempo": 120.0
            },
            {
                "start_time": 33.1840909,
                "end_time": 33.2340909,
                "pitch": 65,
                "velocity": 32,
                "duration": 0.05,
                "tempo": 120.0
            },
            {
                "start_time": 33.2340909,
                "end_time": 33.2840909,
                "pitch": 64,
                "velocity": 25,
                "duration": 0.05,
                "tempo": 120.0
            },
            {
                "start_time": 33.2840909,
                "end_time": 33.3340909,
                "pitch": 65,
                "velocity": 25,
                "duration": 0.05,
                "tempo": 120.0
            },
            {
                "start_time": 33.3340909,
                "end_time": 33.3840909,
                "pitch": 64,
                "velocity": 25,
                "duration": 0.05,
                "tempo": 120.0
            },
            {
                "start_time": 33.3840909,
                "end_time": 33.4340909,
                "pitch": 65,
                "velocity": 25,
                "duration": 0.05,
                "tempo": 120.0
            },
            {
                "start_time": 33.4340909,
                "end_time": 33.8340909,
                "pitch": 65,
                "velocity": 51,
                "duration": 0.4,
                "tempo": 120.0
            },
            {
                "start_time": 33.8340909,
                "end_time": 34.2340909,
                "pitch": 70,
                "velocity": 51,
                "duration": 0.4,
                "tempo": 120.0
            },
            {
                "start_time": 34.2340909,
                "end_time": 34.8363636,
                "pitch": 77,
                "velocity": 51,
                "duration": 0.6022727,
                "tempo": 120.0
            },
            {
                "start_time": 34.8363636,
                "end_time": 35.0386364,
                "pitch": 70,
                "velocity": 51,
                "duration": 0.2022727,
                "tempo": 120.0
            },
            {
                "start_time": 35.0386364,
                "end_time": 35.4386364,
                "pitch": 70,
                "velocity": 51,
                "duration": 0.4,
                "tempo": 120.0
            },
            {
                "start_time": 35.4386364,
                "end_time": 35.8386364,
                "pitch": 77,
                "velocity": 51,
                "duration": 0.4,
                "tempo": 120.0
            },
            {
                "start_time": 32.1681818,
                "end_time": 35.8568182,
                "pitch": 79,
                "velocity": 51,
                "duration": 3.6886364,
                "tempo": 120.0
            },
            {
                "start_time": 35.8386364,
                "end_time": 35.8568182,
                "pitch": 79,
                "velocity": 51,
                "duration": 0.0181818,
                "tempo": 120.0
            },
            {
                "start_time": 19.6113636,
                "end_time": 35.8568182,
                "pitch": 91,
                "velocity": 51,
                "duration": 16.2454545,
                "tempo": 120.0
            },
            {
                "start_time": 35.8568182,
                "end_time": 36.0227273,
                "pitch": 79,
                "velocity": 51,
                "duration": 0.1659091,
                "tempo": 120.0
            },
            {
                "start_time": 35.8568182,
                "end_time": 36.0227273,
                "pitch": 91,
                "velocity": 51,
                "duration": 0.1659091,
                "tempo": 120.0
            },
            {
                "start_time": 36.0227273,
                "end_time": 36.0386364,
                "pitch": 79,
                "velocity": 51,
                "duration": 0.0159091,
                "tempo": 120.0
            },
            {
                "start_time": 36.0386364,
                "end_time": 36.2386364,
                "pitch": 69,
                "velocity": 51,
                "duration": 0.2,
                "tempo": 120.0
            },
            {
                "start_time": 36.2409091,
                "end_time": 36.4386364,
                "pitch": 70,
                "velocity": 51,
                "duration": 0.1977273,
                "tempo": 120.0
            },
            {
                "start_time": 36.4409091,
                "end_time": 36.6409091,
                "pitch": 74,
                "velocity": 51,
                "duration": 0.2,
                "tempo": 120.0
            },
            {
                "start_time": 36.6409091,
                "end_time": 36.8409091,
                "pitch": 75,
                "velocity": 51,
                "duration": 0.2,
                "tempo": 120.0
            },
            {
                "start_time": 36.8431818,
                "end_time": 37.0431818,
                "pitch": 77,
                "velocity": 51,
                "duration": 0.2,
                "tempo": 120.0
            },
            {
                "start_time": 37.0431818,
                "end_time": 37.4431818,
                "pitch": 82,
                "velocity": 51,
                "duration": 0.4,
                "tempo": 120.0
            },
            {
                "start_time": 37.4431818,
                "end_time": 37.4931818,
                "pitch": 82,
                "velocity": 51,
                "duration": 0.05,
                "tempo": 120.0
            },
            {
                "start_time": 37.4931818,
                "end_time": 37.5431818,
                "pitch": 84,
                "velocity": 51,
                "duration": 0.05,
                "tempo": 120.0
            },
            {
                "start_time": 37.5431818,
                "end_time": 37.5931818,
                "pitch": 82,
                "velocity": 51,
                "duration": 0.05,
                "tempo": 120.0
            },
            {
                "start_time": 37.5931818,
                "end_time": 37.6431818,
                "pitch": 84,
                "velocity": 51,
                "duration": 0.05,
                "tempo": 120.0
            },
            {
                "start_time": 37.6454545,
                "end_time": 37.6931818,
                "pitch": 82,
                "velocity": 40,
                "duration": 0.0477273,
                "tempo": 120.0
            },
            {
                "start_time": 37.6954545,
                "end_time": 37.7431818,
                "pitch": 84,
                "velocity": 40,
                "duration": 0.0477273,
                "tempo": 120.0
            },
            {
                "start_time": 37.7454545,
                "end_time": 37.7931818,
                "pitch": 82,
                "velocity": 40,
                "duration": 0.0477273,
                "tempo": 120.0
            },
            {
                "start_time": 37.7954545,
                "end_time": 37.8431818,
                "pitch": 84,
                "velocity": 40,
                "duration": 0.0477273,
                "tempo": 120.0
            },
            {
                "start_time": 37.8454545,
                "end_time": 37.8931818,
                "pitch": 82,
                "velocity": 32,
                "duration": 0.0477273,
                "tempo": 120.0
            },
            {
                "start_time": 37.8954545,
                "end_time": 37.9454545,
                "pitch": 84,
                "velocity": 32,
                "duration": 0.05,
                "tempo": 120.0
            },
            {
                "start_time": 37.9454545,
                "end_time": 37.9954545,
                "pitch": 82,
                "velocity": 32,
                "duration": 0.05,
                "tempo": 120.0
            },
            {
                "start_time": 37.9954545,
                "end_time": 38.0454545,
                "pitch": 84,
                "velocity": 32,
                "duration": 0.05,
                "tempo": 120.0
            },
            {
                "start_time": 38.0454545,
                "end_time": 38.0954545,
                "pitch": 82,
                "velocity": 25,
                "duration": 0.05,
                "tempo": 120.0
            },
            {
                "start_time": 38.0954545,
                "end_time": 38.1454545,
                "pitch": 84,
                "velocity": 25,
                "duration": 0.05,
                "tempo": 120.0
            },
            {
                "start_time": 38.1454545,
                "end_time": 38.1954545,
                "pitch": 82,
                "velocity": 25,
                "duration": 0.05,
                "tempo": 120.0
            },
            {
                "start_time": 38.1954545,
                "end_time": 38.2454545,
                "pitch": 84,
                "velocity": 25,
                "duration": 0.05,
                "tempo": 120.0
            },
            {
                "start_time": 38.2454545,
                "end_time": 38.6454545,
                "pitch": 82,
                "velocity": 51,
                "duration": 0.4,
                "tempo": 120.0
            },
            {
                "start_time": 38.6454545,
                "end_time": 39.2477273,
                "pitch": 84,
                "velocity": 51,
                "duration": 0.6022727,
                "tempo": 120.0
            },
            {
                "start_time": 39.25,
                "end_time": 39.45,
                "pitch": 77,
                "velocity": 51,
                "duration": 0.2,
                "tempo": 120.0
            },
            {
                "start_time": 39.45,
                "end_time": 39.85,
                "pitch": 77,
                "velocity": 51,
                "duration": 0.4,
                "tempo": 120.0
            },
            {
                "start_time": 39.85,
                "end_time": 40.45,
                "pitch": 84,
                "velocity": 51,
                "duration": 0.6,
                "tempo": 120.0
            },
            {
                "start_time": 40.45,
                "end_time": 40.65,
                "pitch": 86,
                "velocity": 51,
                "duration": 0.2,
                "tempo": 120.0
            },
            {
                "start_time": 40.6522727,
                "end_time": 40.8522727,
                "pitch": 84,
                "velocity": 51,
                "duration": 0.2,
                "tempo": 120.0
            },
            {
                "start_time": 40.8522727,
                "end_time": 41.0545455,
                "pitch": 82,
                "velocity": 51,
                "duration": 0.2022727,
                "tempo": 120.0
            },
            {
                "start_time": 41.0545455,
                "end_time": 41.875,
                "pitch": 81,
                "velocity": 51,
                "duration": 0.8204545,
                "tempo": 120.0
            },
            {
                "start_time": 41.875,
                "end_time": 42.2590909,
                "pitch": 77,
                "velocity": 51,
                "duration": 0.3840909,
                "tempo": 120.0
            },
            {
                "start_time": 42.2590909,
                "end_time": 42.6681818,
                "pitch": 82,
                "velocity": 51,
                "duration": 0.4090909,
                "tempo": 120.0
            },
            {
                "start_time": 57.5727273,
                "end_time": 57.7727273,
                "pitch": 74,
                "velocity": 51,
                "duration": 0.2,
                "tempo": 120.0
            },
            {
                "start_time": 57.7727273,
                "end_time": 57.9727273,
                "pitch": 72,
                "velocity": 51,
                "duration": 0.2,
                "tempo": 120.0
            },
            {
                "start_time": 57.9727273,
                "end_time": 58.3727273,
                "pitch": 70,
                "velocity": 51,
                "duration": 0.4,
                "tempo": 120.0
            },
            {
                "start_time": 58.3727273,
                "end_time": 58.7772727,
                "pitch": 70,
                "velocity": 51,
                "duration": 0.4045455,
                "tempo": 120.0
            },
            {
                "start_time": 58.7772727,
                "end_time": 59.1772727,
                "pitch": 70,
                "velocity": 51,
                "duration": 0.4,
                "tempo": 120.0
            },
            {
                "start_time": 59.1772727,
                "end_time": 59.2272727,
                "pitch": 82,
                "velocity": 16,
                "duration": 0.05,
                "tempo": 120.0
            },
            {
                "start_time": 59.2272727,
                "end_time": 59.2772727,
                "pitch": 82,
                "velocity": 20,
                "duration": 0.05,
                "tempo": 120.0
            },
            {
                "start_time": 59.2772727,
                "end_time": 59.3272727,
                "pitch": 82,
                "velocity": 25,
                "duration": 0.05,
                "tempo": 120.0
            },
            {
                "start_time": 59.3272727,
                "end_time": 59.3772727,
                "pitch": 82,
                "velocity": 32,
                "duration": 0.05,
                "tempo": 120.0
            },
            {
                "start_time": 59.3772727,
                "end_time": 59.4272727,
                "pitch": 82,
                "velocity": 40,
                "duration": 0.05,
                "tempo": 120.0
            },
            {
                "start_time": 59.4272727,
                "end_time": 59.4772727,
                "pitch": 82,
                "velocity": 51,
                "duration": 0.05,
                "tempo": 120.0
            },
            {
                "start_time": 59.4772727,
                "end_time": 59.5272727,
                "pitch": 82,
                "velocity": 64,
                "duration": 0.05,
                "tempo": 120.0
            },
            {
                "start_time": 59.5272727,
                "end_time": 59.5772727,
                "pitch": 82,
                "velocity": 80,
                "duration": 0.05,
                "tempo": 120.0
            },
            {
                "start_time": 59.5772727,
                "end_time": 59.6318182,
                "pitch": 82,
                "velocity": 80,
                "duration": 0.0545455,
                "tempo": 120.0
            },
            {
                "start_time": 59.6318182,
                "end_time": 59.6840909,
                "pitch": 82,
                "velocity": 64,
                "duration": 0.0522727,
                "tempo": 120.0
            },
            {
                "start_time": 59.6840909,
                "end_time": 59.7363636,
                "pitch": 82,
                "velocity": 51,
                "duration": 0.0522727,
                "tempo": 120.0
            },
            {
                "start_time": 59.7363636,
                "end_time": 59.7886364,
                "pitch": 82,
                "velocity": 40,
                "duration": 0.0522727,
                "tempo": 120.0
            },
            {
                "start_time": 59.7909091,
                "end_time": 59.8431818,
                "pitch": 82,
                "velocity": 32,
                "duration": 0.0522727,
                "tempo": 120.0
            },
            {
                "start_time": 59.8431818,
                "end_time": 59.8954545,
                "pitch": 82,
                "velocity": 25,
                "duration": 0.0522727,
                "tempo": 120.0
            },
            {
                "start_time": 59.8954545,
                "end_time": 59.9477273,
                "pitch": 82,
                "velocity": 20,
                "duration": 0.0522727,
                "tempo": 120.0
            },
            {
                "start_time": 59.9477273,
                "end_time": 60.0,
                "pitch": 82,
                "velocity": 16,
                "duration": 0.0522727,
                "tempo": 120.0
            },
            {
                "start_time": 60.0,
                "end_time": 60.2,
                "pitch": 82,
                "velocity": 40,
                "duration": 0.2,
                "tempo": 120.0
            },
            {
                "start_time": 60.2,
                "end_time": 60.4,
                "pitch": 70,
                "velocity": 51,
                "duration": 0.2,
                "tempo": 120.0
            },
            {
                "start_time": 60.4,
                "end_time": 60.5909091,
                "pitch": 75,
                "velocity": 51,
                "duration": 0.1909091,
                "tempo": 120.0
            },
            {
                "start_time": 60.5909091,
                "end_time": 60.7840909,
                "pitch": 74,
                "velocity": 51,
                "duration": 0.1931818,
                "tempo": 120.0
            },
            {
                "start_time": 60.7840909,
                "end_time": 61.1954545,
                "pitch": 72,
                "velocity": 51,
                "duration": 0.4113636,
                "tempo": 120.0
            },
            {
                "start_time": 61.1954545,
                "end_time": 61.5954545,
                "pitch": 72,
                "velocity": 51,
                "duration": 0.4,
                "tempo": 120.0
            },
            {
                "start_time": 61.5954545,
                "end_time": 61.6431818,
                "pitch": 84,
                "velocity": 16,
                "duration": 0.0477273,
                "tempo": 120.0
            },
            {
                "start_time": 61.6431818,
                "end_time": 61.6931818,
                "pitch": 84,
                "velocity": 20,
                "duration": 0.05,
                "tempo": 120.0
            },
            {
                "start_time": 61.6931818,
                "end_time": 61.7409091,
                "pitch": 84,
                "velocity": 25,
                "duration": 0.0477273,
                "tempo": 120.0
            },
            {
                "start_time": 61.7409091,
                "end_time": 61.7909091,
                "pitch": 84,
                "velocity": 32,
                "duration": 0.05,
                "tempo": 120.0
            },
            {
                "start_time": 61.7909091,
                "end_time": 61.8386364,
                "pitch": 84,
                "velocity": 40,
                "duration": 0.0477273,
                "tempo": 120.0
            },
            {
                "start_time": 61.8409091,
                "end_time": 61.8886364,
                "pitch": 84,
                "velocity": 51,
                "duration": 0.0477273,
                "tempo": 120.0
            },
            {
                "start_time": 61.8886364,
                "end_time": 61.9386364,
                "pitch": 84,
                "velocity": 64,
                "duration": 0.05,
                "tempo": 120.0
            },
            {
                "start_time": 61.9386364,
                "end_time": 61.9886364,
                "pitch": 84,
                "velocity": 64,
                "duration": 0.05,
                "tempo": 120.0
            },
            {
                "start_time": 61.9886364,
                "end_time": 62.1886364,
                "pitch": 84,
                "velocity": 32,
                "duration": 0.2,
                "tempo": 120.0
            },
            {
                "start_time": 62.1886364,
                "end_time": 62.3886364,
                "pitch": 74,
                "velocity": 51,
                "duration": 0.2,
                "tempo": 120.0
            },
            {
                "start_time": 62.3886364,
                "end_time": 62.6,
                "pitch": 75,
                "velocity": 51,
                "duration": 0.2113636,
                "tempo": 120.0
            },
            {
                "start_time": 62.6,
                "end_time": 62.8090909,
                "pitch": 76,
                "velocity": 51,
                "duration": 0.2090909,
                "tempo": 120.0
            },
            {
                "start_time": 62.8090909,
                "end_time": 62.8886364,
                "pitch": 79,
                "velocity": 51,
                "duration": 0.0795455,
                "tempo": 120.0
            },
            {
                "start_time": 36.0227273,
                "end_time": 62.8886364,
                "pitch": 91,
                "velocity": 51,
                "duration": 26.8659091,
                "tempo": 120.0
            },
            {
                "start_time": 62.8886364,
                "end_time": 63.0477273,
                "pitch": 79,
                "velocity": 51,
                "duration": 0.1590909,
                "tempo": 120.0
            },
            {
                "start_time": 62.8886364,
                "end_time": 63.0477273,
                "pitch": 91,
                "velocity": 51,
                "duration": 0.1590909,
                "tempo": 120.0
            },
            {
                "start_time": 63.0477273,
                "end_time": 63.1931818,
                "pitch": 79,
                "velocity": 51,
                "duration": 0.1454545,
                "tempo": 120.0
            },
            {
                "start_time": 63.1931818,
                "end_time": 63.6045455,
                "pitch": 77,
                "velocity": 51,
                "duration": 0.4113636,
                "tempo": 120.0
            },
            {
                "start_time": 63.6045455,
                "end_time": 64.0136364,
                "pitch": 75,
                "velocity": 51,
                "duration": 0.4090909,
                "tempo": 120.0
            },
            {
                "start_time": 64.0136364,
                "end_time": 64.0613636,
                "pitch": 74,
                "velocity": 16,
                "duration": 0.0477273,
                "tempo": 120.0
            },
            {
                "start_time": 64.0613636,
                "end_time": 64.1090909,
                "pitch": 74,
                "velocity": 20,
                "duration": 0.0477273,
                "tempo": 120.0
            },
            {
                "start_time": 64.1090909,
                "end_time": 64.1568182,
                "pitch": 74,
                "velocity": 25,
                "duration": 0.0477273,
                "tempo": 120.0
            },
            {
                "start_time": 64.1568182,
                "end_time": 64.2045455,
                "pitch": 74,
                "velocity": 32,
                "duration": 0.0477273,
                "tempo": 120.0
            },
            {
                "start_time": 64.2045455,
                "end_time": 64.2522727,
                "pitch": 74,
                "velocity": 40,
                "duration": 0.0477273,
                "tempo": 120.0
            },
            {
                "start_time": 64.2522727,
                "end_time": 64.3,
                "pitch": 74,
                "velocity": 51,
                "duration": 0.0477273,
                "tempo": 120.0
            },
            {
                "start_time": 64.3,
                "end_time": 64.3477273,
                "pitch": 74,
                "velocity": 64,
                "duration": 0.0477273,
                "tempo": 120.0
            },
            {
                "start_time": 64.3477273,
                "end_time": 64.3977273,
                "pitch": 74,
                "velocity": 64,
                "duration": 0.05,
                "tempo": 120.0
            },
            {
                "start_time": 64.3977273,
                "end_time": 64.6045455,
                "pitch": 74,
                "velocity": 40,
                "duration": 0.2068182,
                "tempo": 120.0
            },
            {
                "start_time": 64.6045455,
                "end_time": 64.8090909,
                "pitch": 75,
                "velocity": 51,
                "duration": 0.2045455,
                "tempo": 120.0
            },
            {
                "start_time": 64.8090909,
                "end_time": 65.0113636,
                "pitch": 74,
                "velocity": 51,
                "duration": 0.2022727,
                "tempo": 120.0
            },
            {
                "start_time": 65.0113636,
                "end_time": 65.2113636,
                "pitch": 72,
                "velocity": 51,
                "duration": 0.2,
                "tempo": 120.0
            },
            {
                "start_time": 65.2113636,
                "end_time": 65.6136364,
                "pitch": 70,
                "velocity": 51,
                "duration": 0.4022727,
                "tempo": 120.0
            },
            {
                "start_time": 67.6340909,
                "end_time": 68.0272727,
                "pitch": 58,
                "velocity": 51,
                "duration": 0.3931818,
                "tempo": 120.0
            },
            {
                "start_time": 68.0272727,
                "end_time": 68.6295455,
                "pitch": 65,
                "velocity": 51,
                "duration": 0.6022727,
                "tempo": 120.0
            },
            {
                "start_time": 68.6295455,
                "end_time": 68.8318182,
                "pitch": 58,
                "velocity": 51,
                "duration": 0.2022727,
                "tempo": 120.0
            },
            {
                "start_time": 68.8318182,
                "end_time": 69.2340909,
                "pitch": 58,
                "velocity": 51,
                "duration": 0.4022727,
                "tempo": 120.0
            },
            {
                "start_time": 69.2340909,
                "end_time": 69.6340909,
                "pitch": 65,
                "velocity": 51,
                "duration": 0.4,
                "tempo": 120.0
            },
            {
                "start_time": 69.6340909,
                "end_time": 69.7522727,
                "pitch": 67,
                "velocity": 51,
                "duration": 0.1181818,
                "tempo": 120.0
            },
            {
                "start_time": 69.7522727,
                "end_time": 69.8363636,
                "pitch": 67,
                "velocity": 51,
                "duration": 0.0840909,
                "tempo": 120.0
            },
            {
                "start_time": 69.8363636,
                "end_time": 70.0363636,
                "pitch": 57,
                "velocity": 51,
                "duration": 0.2,
                "tempo": 120.0
            },
            {
                "start_time": 70.0386364,
                "end_time": 70.2386364,
                "pitch": 58,
                "velocity": 51,
                "duration": 0.2,
                "tempo": 120.0
            },
            {
                "start_time": 70.2386364,
                "end_time": 70.4386364,
                "pitch": 62,
                "velocity": 51,
                "duration": 0.2,
                "tempo": 120.0
            },
            {
                "start_time": 70.4386364,
                "end_time": 70.6409091,
                "pitch": 63,
                "velocity": 51,
                "duration": 0.2022727,
                "tempo": 120.0
            },
            {
                "start_time": 70.6409091,
                "end_time": 70.8409091,
                "pitch": 65,
                "velocity": 51,
                "duration": 0.2,
                "tempo": 120.0
            },
            {
                "start_time": 70.8431818,
                "end_time": 71.2522727,
                "pitch": 70,
                "velocity": 51,
                "duration": 0.4090909,
                "tempo": 120.0
            },
            {
                "start_time": 71.2522727,
                "end_time": 71.3,
                "pitch": 70,
                "velocity": 51,
                "duration": 0.0477273,
                "tempo": 120.0
            },
            {
                "start_time": 71.3022727,
                "end_time": 71.35,
                "pitch": 72,
                "velocity": 51,
                "duration": 0.0477273,
                "tempo": 120.0
            },
            {
                "start_time": 71.35,
                "end_time": 71.4,
                "pitch": 70,
                "velocity": 51,
                "duration": 0.05,
                "tempo": 120.0
            },
            {
                "start_time": 71.4,
                "end_time": 71.4477273,
                "pitch": 72,
                "velocity": 51,
                "duration": 0.0477273,
                "tempo": 120.0
            },
            {
                "start_time": 71.4477273,
                "end_time": 71.4977273,
                "pitch": 70,
                "velocity": 40,
                "duration": 0.05,
                "tempo": 120.0
            },
            {
                "start_time": 71.4977273,
                "end_time": 71.5454545,
                "pitch": 72,
                "velocity": 40,
                "duration": 0.0477273,
                "tempo": 120.0
            },
            {
                "start_time": 71.5477273,
                "end_time": 71.5954545,
                "pitch": 70,
                "velocity": 40,
                "duration": 0.0477273,
                "tempo": 120.0
            },
            {
                "start_time": 71.5954545,
                "end_time": 71.6454545,
                "pitch": 72,
                "velocity": 40,
                "duration": 0.05,
                "tempo": 120.0
            },
            {
                "start_time": 71.6454545,
                "end_time": 71.6977273,
                "pitch": 70,
                "velocity": 32,
                "duration": 0.0522727,
                "tempo": 120.0
            },
            {
                "start_time": 71.6977273,
                "end_time": 71.7477273,
                "pitch": 72,
                "velocity": 32,
                "duration": 0.05,
                "tempo": 120.0
            },
            {
                "start_time": 71.75,
                "end_time": 71.8,
                "pitch": 70,
                "velocity": 32,
                "duration": 0.05,
                "tempo": 120.0
            },
            {
                "start_time": 71.8,
                "end_time": 71.8522727,
                "pitch": 72,
                "velocity": 32,
                "duration": 0.0522727,
                "tempo": 120.0
            },
            {
                "start_time": 71.8522727,
                "end_time": 71.9022727,
                "pitch": 70,
                "velocity": 25,
                "duration": 0.05,
                "tempo": 120.0
            },
            {
                "start_time": 71.9022727,
                "end_time": 71.9545455,
                "pitch": 72,
                "velocity": 25,
                "duration": 0.0522727,
                "tempo": 120.0
            },
            {
                "start_time": 71.9545455,
                "end_time": 72.0068182,
                "pitch": 70,
                "velocity": 25,
                "duration": 0.0522727,
                "tempo": 120.0
            },
            {
                "start_time": 72.0068182,
                "end_time": 72.0568182,
                "pitch": 72,
                "velocity": 25,
                "duration": 0.05,
                "tempo": 120.0
            },
            {
                "start_time": 72.0568182,
                "end_time": 72.4590909,
                "pitch": 70,
                "velocity": 51,
                "duration": 0.4022727,
                "tempo": 120.0
            },
            {
                "start_time": 72.4613636,
                "end_time": 73.0590909,
                "pitch": 72,
                "velocity": 51,
                "duration": 0.5977273,
                "tempo": 120.0
            },
            {
                "start_time": 73.0590909,
                "end_time": 73.2568182,
                "pitch": 65,
                "velocity": 51,
                "duration": 0.1977273,
                "tempo": 120.0
            },
            {
                "start_time": 73.2568182,
                "end_time": 73.6659091,
                "pitch": 65,
                "velocity": 51,
                "duration": 0.4090909,
                "tempo": 120.0
            },
            {
                "start_time": 73.6681818,
                "end_time": 74.2681818,
                "pitch": 72,
                "velocity": 51,
                "duration": 0.6,
                "tempo": 120.0
            },
            {
                "start_time": 74.2704545,
                "end_time": 74.4704545,
                "pitch": 74,
                "velocity": 51,
                "duration": 0.2,
                "tempo": 120.0
            },
            {
                "start_time": 74.4704545,
                "end_time": 74.6727273,
                "pitch": 72,
                "velocity": 51,
                "duration": 0.2022727,
                "tempo": 120.0
            },
            {
                "start_time": 74.6727273,
                "end_time": 74.8727273,
                "pitch": 70,
                "velocity": 51,
                "duration": 0.2,
                "tempo": 120.0
            },
            {
                "start_time": 74.875,
                "end_time": 75.075,
                "pitch": 69,
                "velocity": 51,
                "duration": 0.2,
                "tempo": 120.0
            },
            {
                "start_time": 75.075,
                "end_time": 75.275,
                "pitch": 70,
                "velocity": 51,
                "duration": 0.2,
                "tempo": 120.0
            },
            {
                "start_time": 75.275,
                "end_time": 75.475,
                "pitch": 69,
                "velocity": 51,
                "duration": 0.2,
                "tempo": 120.0
            },
            {
                "start_time": 69.7522727,
                "end_time": 75.4772727,
                "pitch": 79,
                "velocity": 51,
                "duration": 5.725,
                "tempo": 120.0
            },
            {
                "start_time": 75.4772727,
                "end_time": 75.6272727,
                "pitch": 67,
                "velocity": 51,
                "duration": 0.15,
                "tempo": 120.0
            },
            {
                "start_time": 75.4772727,
                "end_time": 75.6272727,
                "pitch": 67,
                "velocity": 51,
                "duration": 0.15,
                "tempo": 120.0
            },
            {
                "start_time": 75.4772727,
                "end_time": 75.6272727,
                "pitch": 79,
                "velocity": 51,
                "duration": 0.15,
                "tempo": 120.0
            },
            {
                "start_time": 75.6272727,
                "end_time": 75.6772727,
                "pitch": 67,
                "velocity": 51,
                "duration": 0.05,
                "tempo": 120.0
            },
            {
                "start_time": 75.6772727,
                "end_time": 75.8772727,
                "pitch": 65,
                "velocity": 51,
                "duration": 0.2,
                "tempo": 120.0
            },
            {
                "start_time": 75.8772727,
                "end_time": 76.0772727,
                "pitch": 64,
                "velocity": 51,
                "duration": 0.2,
                "tempo": 120.0
            },
            {
                "start_time": 76.0795455,
                "end_time": 76.1295455,
                "pitch": 64,
                "velocity": 51,
                "duration": 0.05,
                "tempo": 120.0
            },
            {
                "start_time": 76.1295455,
                "end_time": 76.1795455,
                "pitch": 65,
                "velocity": 51,
                "duration": 0.05,
                "tempo": 120.0
            },
            {
                "start_time": 76.1795455,
                "end_time": 76.2295455,
                "pitch": 64,
                "velocity": 51,
                "duration": 0.05,
                "tempo": 120.0
            },
            {
                "start_time": 76.2295455,
                "end_time": 76.2795455,
                "pitch": 65,
                "velocity": 51,
                "duration": 0.05,
                "tempo": 120.0
            },
            {
                "start_time": 76.2795455,
                "end_time": 76.3295455,
                "pitch": 64,
                "velocity": 40,
                "duration": 0.05,
                "tempo": 120.0
            },
            {
                "start_time": 76.3295455,
                "end_time": 76.3795455,
                "pitch": 65,
                "velocity": 40,
                "duration": 0.05,
                "tempo": 120.0
            },
            {
                "start_time": 76.3818182,
                "end_time": 76.4318182,
                "pitch": 64,
                "velocity": 40,
                "duration": 0.05,
                "tempo": 120.0
            },
            {
                "start_time": 76.4318182,
                "end_time": 76.4818182,
                "pitch": 65,
                "velocity": 40,
                "duration": 0.05,
                "tempo": 120.0
            },
            {
                "start_time": 76.4818182,
                "end_time": 76.5318182,
                "pitch": 64,
                "velocity": 32,
                "duration": 0.05,
                "tempo": 120.0
            },
            {
                "start_time": 76.5318182,
                "end_time": 76.5818182,
                "pitch": 65,
                "velocity": 32,
                "duration": 0.05,
                "tempo": 120.0
            },
            {
                "start_time": 76.5818182,
                "end_time": 76.6318182,
                "pitch": 64,
                "velocity": 32,
                "duration": 0.05,
                "tempo": 120.0
            },
            {
                "start_time": 76.6318182,
                "end_time": 76.6818182,
                "pitch": 65,
                "velocity": 32,
                "duration": 0.05,
                "tempo": 120.0
            },
            {
                "start_time": 76.6840909,
                "end_time": 76.7340909,
                "pitch": 64,
                "velocity": 25,
                "duration": 0.05,
                "tempo": 120.0
            },
            {
                "start_time": 76.7340909,
                "end_time": 76.7840909,
                "pitch": 65,
                "velocity": 25,
                "duration": 0.05,
                "tempo": 120.0
            },
            {
                "start_time": 76.7840909,
                "end_time": 76.8340909,
                "pitch": 64,
                "velocity": 25,
                "duration": 0.05,
                "tempo": 120.0
            },
            {
                "start_time": 76.8340909,
                "end_time": 76.8840909,
                "pitch": 65,
                "velocity": 25,
                "duration": 0.05,
                "tempo": 120.0
            },
            {
                "start_time": 76.8840909,
                "end_time": 77.2840909,
                "pitch": 65,
                "velocity": 51,
                "duration": 0.4,
                "tempo": 120.0
            },
            {
                "start_time": 77.2863636,
                "end_time": 77.6886364,
                "pitch": 70,
                "velocity": 51,
                "duration": 0.4022727,
                "tempo": 120.0
            },
            {
                "start_time": 77.6886364,
                "end_time": 78.2909091,
                "pitch": 77,
                "velocity": 51,
                "duration": 0.6022727,
                "tempo": 120.0
            },
            {
                "start_time": 78.2909091,
                "end_time": 78.4909091,
                "pitch": 70,
                "velocity": 51,
                "duration": 0.2,
                "tempo": 120.0
            },
            {
                "start_time": 78.4931818,
                "end_time": 78.8954545,
                "pitch": 70,
                "velocity": 51,
                "duration": 0.4022727,
                "tempo": 120.0
            },
            {
                "start_time": 78.8954545,
                "end_time": 79.2954545,
                "pitch": 77,
                "velocity": 51,
                "duration": 0.4,
                "tempo": 120.0
            },
            {
                "start_time": 75.6272727,
                "end_time": 79.3136364,
                "pitch": 79,
                "velocity": 51,
                "duration": 3.6863636,
                "tempo": 120.0
            },
            {
                "start_time": 79.2954545,
                "end_time": 79.3136364,
                "pitch": 79,
                "velocity": 51,
                "duration": 0.0181818,
                "tempo": 120.0
            },
            {
                "start_time": 63.0477273,
                "end_time": 79.3136364,
                "pitch": 91,
                "velocity": 51,
                "duration": 16.2659091,
                "tempo": 120.0
            },
            {
                "start_time": 79.3136364,
                "end_time": 79.4795455,
                "pitch": 79,
                "velocity": 51,
                "duration": 0.1659091,
                "tempo": 120.0
            },
            {
                "start_time": 79.3136364,
                "end_time": 79.4795455,
                "pitch": 91,
                "velocity": 51,
                "duration": 0.1659091,
                "tempo": 120.0
            },
            {
                "start_time": 79.4795455,
                "end_time": 79.4977273,
                "pitch": 79,
                "velocity": 51,
                "duration": 0.0181818,
                "tempo": 120.0
            },
            {
                "start_time": 79.4977273,
                "end_time": 79.7,
                "pitch": 69,
                "velocity": 51,
                "duration": 0.2022727,
                "tempo": 120.0
            },
            {
                "start_time": 79.7,
                "end_time": 79.9045455,
                "pitch": 70,
                "velocity": 51,
                "duration": 0.2045455,
                "tempo": 120.0
            },
            {
                "start_time": 79.9045455,
                "end_time": 80.1113636,
                "pitch": 74,
                "velocity": 51,
                "duration": 0.2068182,
                "tempo": 120.0
            },
            {
                "start_time": 80.1113636,
                "end_time": 80.3113636,
                "pitch": 75,
                "velocity": 51,
                "duration": 0.2,
                "tempo": 120.0
            },
            {
                "start_time": 80.3113636,
                "end_time": 80.5136364,
                "pitch": 77,
                "velocity": 51,
                "duration": 0.2022727,
                "tempo": 120.0
            },
            {
                "start_time": 80.5136364,
                "end_time": 80.9136364,
                "pitch": 82,
                "velocity": 51,
                "duration": 0.4,
                "tempo": 120.0
            },
            {
                "start_time": 80.9136364,
                "end_time": 80.9636364,
                "pitch": 82,
                "velocity": 51,
                "duration": 0.05,
                "tempo": 120.0
            },
            {
                "start_time": 80.9659091,
                "end_time": 81.0159091,
                "pitch": 84,
                "velocity": 51,
                "duration": 0.05,
                "tempo": 120.0
            },
            {
                "start_time": 81.0159091,
                "end_time": 81.0659091,
                "pitch": 82,
                "velocity": 51,
                "duration": 0.05,
                "tempo": 120.0
            },
            {
                "start_time": 81.0659091,
                "end_time": 81.1159091,
                "pitch": 84,
                "velocity": 51,
                "duration": 0.05,
                "tempo": 120.0
            },
            {
                "start_time": 81.1159091,
                "end_time": 81.1659091,
                "pitch": 82,
                "velocity": 40,
                "duration": 0.05,
                "tempo": 120.0
            },
            {
                "start_time": 81.1659091,
                "end_time": 81.2159091,
                "pitch": 84,
                "velocity": 40,
                "duration": 0.05,
                "tempo": 120.0
            },
            {
                "start_time": 81.2159091,
                "end_time": 81.2659091,
                "pitch": 82,
                "velocity": 40,
                "duration": 0.05,
                "tempo": 120.0
            },
            {
                "start_time": 81.2681818,
                "end_time": 81.3181818,
                "pitch": 84,
                "velocity": 40,
                "duration": 0.05,
                "tempo": 120.0
            },
            {
                "start_time": 81.3181818,
                "end_time": 81.3681818,
                "pitch": 82,
                "velocity": 32,
                "duration": 0.05,
                "tempo": 120.0
            },
            {
                "start_time": 81.3681818,
                "end_time": 81.4181818,
                "pitch": 84,
                "velocity": 32,
                "duration": 0.05,
                "tempo": 120.0
            },
            {
                "start_time": 81.4181818,
                "end_time": 81.4681818,
                "pitch": 82,
                "velocity": 32,
                "duration": 0.05,
                "tempo": 120.0
            },
            {
                "start_time": 81.4681818,
                "end_time": 81.5181818,
                "pitch": 84,
                "velocity": 32,
                "duration": 0.05,
                "tempo": 120.0
            },
            {
                "start_time": 81.5181818,
                "end_time": 81.5681818,
                "pitch": 82,
                "velocity": 25,
                "duration": 0.05,
                "tempo": 120.0
            },
            {
                "start_time": 81.5681818,
                "end_time": 81.6181818,
                "pitch": 84,
                "velocity": 25,
                "duration": 0.05,
                "tempo": 120.0
            },
            {
                "start_time": 81.6181818,
                "end_time": 81.6681818,
                "pitch": 82,
                "velocity": 25,
                "duration": 0.05,
                "tempo": 120.0
            },
            {
                "start_time": 81.6681818,
                "end_time": 81.7181818,
                "pitch": 84,
                "velocity": 25,
                "duration": 0.05,
                "tempo": 120.0
            },
            {
                "start_time": 81.7181818,
                "end_time": 82.1204545,
                "pitch": 82,
                "velocity": 51,
                "duration": 0.4022727,
                "tempo": 120.0
            },
            {
                "start_time": 82.1204545,
                "end_time": 82.725,
                "pitch": 84,
                "velocity": 51,
                "duration": 0.6045455,
                "tempo": 120.0
            },
            {
                "start_time": 82.725,
                "end_time": 82.925,
                "pitch": 77,
                "velocity": 51,
                "duration": 0.2,
                "tempo": 120.0
            },
            {
                "start_time": 82.925,
                "end_time": 83.3272727,
                "pitch": 77,
                "velocity": 51,
                "duration": 0.4022727,
                "tempo": 120.0
            },
            {
                "start_time": 83.3272727,
                "end_time": 83.9295455,
                "pitch": 84,
                "velocity": 51,
                "duration": 0.6022727,
                "tempo": 120.0
            },
            {
                "start_time": 83.9295455,
                "end_time": 84.1318182,
                "pitch": 86,
                "velocity": 51,
                "duration": 0.2022727,
                "tempo": 120.0
            },
            {
                "start_time": 84.1318182,
                "end_time": 84.3340909,
                "pitch": 84,
                "velocity": 51,
                "duration": 0.2022727,
                "tempo": 120.0
            },
            {
                "start_time": 84.3340909,
                "end_time": 84.5340909,
                "pitch": 82,
                "velocity": 51,
                "duration": 0.2,
                "tempo": 120.0
            },
            {
                "start_time": 84.5340909,
                "end_time": 85.3454545,
                "pitch": 81,
                "velocity": 51,
                "duration": 0.8113636,
                "tempo": 120.0
            },
            {
                "start_time": 85.3454545,
                "end_time": 85.7386364,
                "pitch": 77,
                "velocity": 51,
                "duration": 0.3931818,
                "tempo": 120.0
            },
            {
                "start_time": 85.7386364,
                "end_time": 86.1409091,
                "pitch": 82,
                "velocity": 51,
                "duration": 0.4022727,
                "tempo": 120.0
            }
        ],
        "Lead 2 (sawtooth)": [
            {
                "start_time": 12.9431818,
                "end_time": 13.0931818,
                "pitch": 84,
                "velocity": 64,
                "duration": 0.15,
                "tempo": 120.0
            },
            {
                "start_time": 13.2977273,
                "end_time": 14.0886364,
                "pitch": 84,
                "velocity": 64,
                "duration": 0.7909091,
                "tempo": 120.0
            },
            {
                "start_time": 56.3818182,
                "end_time": 56.5340909,
                "pitch": 84,
                "velocity": 64,
                "duration": 0.1522727,
                "tempo": 120.0
            },
            {
                "start_time": 56.7363636,
                "end_time": 57.5409091,
                "pitch": 84,
                "velocity": 64,
                "duration": 0.8045455,
                "tempo": 120.0
            }
        ],
        "Violin": [
            {
                "start_time": 0.2045455,
                "end_time": 0.2522727,
                "pitch": 82,
                "velocity": 101,
                "duration": 0.0477273,
                "tempo": 120.0
            },
            {
                "start_time": 0.2522727,
                "end_time": 0.4045455,
                "pitch": 82,
                "velocity": 64,
                "duration": 0.1522727,
                "tempo": 120.0
            },
            {
                "start_time": 0.4045455,
                "end_time": 0.4522727,
                "pitch": 86,
                "velocity": 101,
                "duration": 0.0477273,
                "tempo": 120.0
            },
            {
                "start_time": 0.4545455,
                "end_time": 0.6045455,
                "pitch": 86,
                "velocity": 64,
                "duration": 0.15,
                "tempo": 120.0
            },
            {
                "start_time": 0.6045455,
                "end_time": 0.6545455,
                "pitch": 89,
                "velocity": 101,
                "duration": 0.05,
                "tempo": 120.0
            },
            {
                "start_time": 0.6545455,
                "end_time": 1.0068182,
                "pitch": 89,
                "velocity": 51,
                "duration": 0.3522727,
                "tempo": 120.0
            },
            {
                "start_time": 1.0068182,
                "end_time": 1.0568182,
                "pitch": 94,
                "velocity": 101,
                "duration": 0.05,
                "tempo": 120.0
            },
            {
                "start_time": 1.0568182,
                "end_time": 1.4113636,
                "pitch": 94,
                "velocity": 51,
                "duration": 0.3545455,
                "tempo": 120.0
            },
            {
                "start_time": 1.4136364,
                "end_time": 1.5318182,
                "pitch": 91,
                "velocity": 64,
                "duration": 0.1181818,
                "tempo": 120.0
            },
            {
                "start_time": 1.5318182,
                "end_time": 1.6977273,
                "pitch": 91,
                "velocity": 64,
                "duration": 0.1659091,
                "tempo": 120.0
            },
            {
                "start_time": 1.5318182,
                "end_time": 1.6977273,
                "pitch": 103,
                "velocity": 64,
                "duration": 0.1659091,
                "tempo": 120.0
            },
            {
                "start_time": 1.6977273,
                "end_time": 1.7477273,
                "pitch": 91,
                "velocity": 64,
                "duration": 0.05,
                "tempo": 120.0
            },
            {
                "start_time": 1.75,
                "end_time": 1.8613636,
                "pitch": 91,
                "velocity": 51,
                "duration": 0.1113636,
                "tempo": 120.0
            },
            {
                "start_time": 1.6977273,
                "end_time": 1.8613636,
                "pitch": 103,
                "velocity": 64,
                "duration": 0.1636364,
                "tempo": 120.0
            },
            {
                "start_time": 1.8613636,
                "end_time": 1.9113636,
                "pitch": 91,
                "velocity": 51,
                "duration": 0.05,
                "tempo": 120.0
            },
            {
                "start_time": 1.9113636,
                "end_time": 2.0772727,
                "pitch": 89,
                "velocity": 80,
                "duration": 0.1659091,
                "tempo": 120.0
            },
            {
                "start_time": 2.0772727,
                "end_time": 2.2431818,
                "pitch": 86,
                "velocity": 80,
                "duration": 0.1659091,
                "tempo": 120.0
            },
            {
                "start_time": 2.2431818,
                "end_time": 2.4113636,
                "pitch": 84,
                "velocity": 80,
                "duration": 0.1681818,
                "tempo": 120.0
            },
            {
                "start_time": 2.7204545,
                "end_time": 2.9204545,
                "pitch": 70,
                "velocity": 127,
                "duration": 0.2,
                "tempo": 120.0
            },
            {
                "start_time": 3.2159091,
                "end_time": 3.4204545,
                "pitch": 70,
                "velocity": 127,
                "duration": 0.2045455,
                "tempo": 120.0
            },
            {
                "start_time": 3.9204545,
                "end_time": 4.1204545,
                "pitch": 70,
                "velocity": 127,
                "duration": 0.2,
                "tempo": 120.0
            },
            {
                "start_time": 4.4295455,
                "end_time": 4.6318182,
                "pitch": 70,
                "velocity": 127,
                "duration": 0.2022727,
                "tempo": 120.0
            },
            {
                "start_time": 5.1340909,
                "end_time": 5.3340909,
                "pitch": 70,
                "velocity": 127,
                "duration": 0.2,
                "tempo": 120.0
            },
            {
                "start_time": 5.6363636,
                "end_time": 5.8386364,
                "pitch": 70,
                "velocity": 127,
                "duration": 0.2022727,
                "tempo": 120.0
            },
            {
                "start_time": 6.3409091,
                "end_time": 6.5409091,
                "pitch": 70,
                "velocity": 127,
                "duration": 0.2,
                "tempo": 120.0
            },
            {
                "start_time": 6.8454545,
                "end_time": 7.05,
                "pitch": 70,
                "velocity": 127,
                "duration": 0.2045455,
                "tempo": 120.0
            },
            {
                "start_time": 7.55,
                "end_time": 7.5977273,
                "pitch": 72,
                "velocity": 127,
                "duration": 0.0477273,
                "tempo": 120.0
            },
            {
                "start_time": 7.5977273,
                "end_time": 7.75,
                "pitch": 72,
                "velocity": 64,
                "duration": 0.1522727,
                "tempo": 120.0
            },
            {
                "start_time": 8.0590909,
                "end_time": 8.1090909,
                "pitch": 72,
                "velocity": 127,
                "duration": 0.05,
                "tempo": 120.0
            },
            {
                "start_time": 8.1090909,
                "end_time": 8.2590909,
                "pitch": 72,
                "velocity": 64,
                "duration": 0.15,
                "tempo": 120.0
            },
            {
                "start_time": 8.7545455,
                "end_time": 8.8022727,
                "pitch": 72,
                "velocity": 127,
                "duration": 0.0477273,
                "tempo": 120.0
            },
            {
                "start_time": 8.8022727,
                "end_time": 8.9545455,
                "pitch": 72,
                "velocity": 64,
                "duration": 0.1522727,
                "tempo": 120.0
            },
            {
                "start_time": 9.2636364,
                "end_time": 9.3136364,
                "pitch": 72,
                "velocity": 127,
                "duration": 0.05,
                "tempo": 120.0
            },
            {
                "start_time": 9.3136364,
                "end_time": 9.4636364,
                "pitch": 72,
                "velocity": 64,
                "duration": 0.15,
                "tempo": 120.0
            },
            {
                "start_time": 9.9613636,
                "end_time": 10.0090909,
                "pitch": 70,
                "velocity": 127,
                "duration": 0.0477273,
                "tempo": 120.0
            },
            {
                "start_time": 10.0090909,
                "end_time": 10.1613636,
                "pitch": 70,
                "velocity": 64,
                "duration": 0.1522727,
                "tempo": 120.0
            },
            {
                "start_time": 10.4704545,
                "end_time": 10.5204545,
                "pitch": 70,
                "velocity": 127,
                "duration": 0.05,
                "tempo": 120.0
            },
            {
                "start_time": 10.5204545,
                "end_time": 10.6704545,
                "pitch": 70,
                "velocity": 64,
                "duration": 0.15,
                "tempo": 120.0
            },
            {
                "start_time": 11.1704545,
                "end_time": 11.2181818,
                "pitch": 70,
                "velocity": 127,
                "duration": 0.0477273,
                "tempo": 120.0
            },
            {
                "start_time": 11.2181818,
                "end_time": 11.3681818,
                "pitch": 70,
                "velocity": 64,
                "duration": 0.15,
                "tempo": 120.0
            },
            {
                "start_time": 11.6772727,
                "end_time": 11.7272727,
                "pitch": 70,
                "velocity": 127,
                "duration": 0.05,
                "tempo": 120.0
            },
            {
                "start_time": 11.7272727,
                "end_time": 11.8772727,
                "pitch": 70,
                "velocity": 64,
                "duration": 0.15,
                "tempo": 120.0
            },
            {
                "start_time": 12.3795455,
                "end_time": 12.4295455,
                "pitch": 72,
                "velocity": 127,
                "duration": 0.05,
                "tempo": 120.0
            },
            {
                "start_time": 12.4295455,
                "end_time": 12.5840909,
                "pitch": 72,
                "velocity": 64,
                "duration": 0.1545455,
                "tempo": 120.0
            },
            {
                "start_time": 12.8931818,
                "end_time": 12.9431818,
                "pitch": 72,
                "velocity": 127,
                "duration": 0.05,
                "tempo": 120.0
            },
            {
                "start_time": 43.4318182,
                "end_time": 43.4795455,
                "pitch": 82,
                "velocity": 101,
                "duration": 0.0477273,
                "tempo": 120.0
            },
            {
                "start_time": 43.4818182,
                "end_time": 43.6318182,
                "pitch": 82,
                "velocity": 64,
                "duration": 0.15,
                "tempo": 120.0
            },
            {
                "start_time": 43.6318182,
                "end_time": 43.6795455,
                "pitch": 86,
                "velocity": 101,
                "duration": 0.0477273,
                "tempo": 120.0
            },
            {
                "start_time": 43.6818182,
                "end_time": 43.8318182,
                "pitch": 86,
                "velocity": 64,
                "duration": 0.15,
                "tempo": 120.0
            },
            {
                "start_time": 43.8318182,
                "end_time": 43.8818182,
                "pitch": 89,
                "velocity": 101,
                "duration": 0.05,
                "tempo": 120.0
            },
            {
                "start_time": 43.8818182,
                "end_time": 44.2431818,
                "pitch": 89,
                "velocity": 51,
                "duration": 0.3613636,
                "tempo": 120.0
            },
            {
                "start_time": 44.2431818,
                "end_time": 44.2931818,
                "pitch": 94,
                "velocity": 101,
                "duration": 0.05,
                "tempo": 120.0
            },
            {
                "start_time": 44.2931818,
                "end_time": 44.6454545,
                "pitch": 94,
                "velocity": 51,
                "duration": 0.3522727,
                "tempo": 120.0
            },
            {
                "start_time": 44.6454545,
                "end_time": 44.7613636,
                "pitch": 91,
                "velocity": 64,
                "duration": 0.1159091,
                "tempo": 120.0
            },
            {
                "start_time": 1.8613636,
                "end_time": 44.7613636,
                "pitch": 103,
                "velocity": 51,
                "duration": 42.9,
                "tempo": 120.0
            },
            {
                "start_time": 44.7613636,
                "end_time": 44.9272727,
                "pitch": 91,
                "velocity": 64,
                "duration": 0.1659091,
                "tempo": 120.0
            },
            {
                "start_time": 44.7613636,
                "end_time": 44.9272727,
                "pitch": 103,
                "velocity": 64,
                "duration": 0.1659091,
                "tempo": 120.0
            },
            {
                "start_time": 44.9272727,
                "end_time": 44.9795455,
                "pitch": 91,
                "velocity": 64,
                "duration": 0.0522727,
                "tempo": 120.0
            },
            {
                "start_time": 44.9795455,
                "end_time": 45.0954545,
                "pitch": 91,
                "velocity": 51,
                "duration": 0.1159091,
                "tempo": 120.0
            },
            {
                "start_time": 44.9272727,
                "end_time": 45.0954545,
                "pitch": 103,
                "velocity": 64,
                "duration": 0.1681818,
                "tempo": 120.0
            },
            {
                "start_time": 45.0954545,
                "end_time": 45.1454545,
                "pitch": 91,
                "velocity": 51,
                "duration": 0.05,
                "tempo": 120.0
            },
            {
                "start_time": 45.1454545,
                "end_time": 45.3136364,
                "pitch": 89,
                "velocity": 80,
                "duration": 0.1681818,
                "tempo": 120.0
            },
            {
                "start_time": 45.3136364,
                "end_time": 45.4795455,
                "pitch": 86,
                "velocity": 80,
                "duration": 0.1659091,
                "tempo": 120.0
            },
            {
                "start_time": 45.4795455,
                "end_time": 45.6636364,
                "pitch": 84,
                "velocity": 80,
                "duration": 0.1840909,
                "tempo": 120.0
            },
            {
                "start_time": 45.9954545,
                "end_time": 46.2295455,
                "pitch": 70,
                "velocity": 127,
                "duration": 0.2340909,
                "tempo": 120.0
            },
            {
                "start_time": 46.5840909,
                "end_time": 46.8090909,
                "pitch": 70,
                "velocity": 127,
                "duration": 0.225,
                "tempo": 120.0
            },
            {
                "start_time": 47.3659091,
                "end_time": 47.5772727,
                "pitch": 70,
                "velocity": 127,
                "duration": 0.2113636,
                "tempo": 120.0
            },
            {
                "start_time": 47.8795455,
                "end_time": 48.0840909,
                "pitch": 70,
                "velocity": 127,
                "duration": 0.2045455,
                "tempo": 120.0
            },
            {
                "start_time": 48.5863636,
                "end_time": 48.7863636,
                "pitch": 70,
                "velocity": 127,
                "duration": 0.2,
                "tempo": 120.0
            },
            {
                "start_time": 49.0954545,
                "end_time": 49.2931818,
                "pitch": 70,
                "velocity": 127,
                "duration": 0.1977273,
                "tempo": 120.0
            },
            {
                "start_time": 49.7909091,
                "end_time": 49.9909091,
                "pitch": 70,
                "velocity": 127,
                "duration": 0.2,
                "tempo": 120.0
            },
            {
                "start_time": 50.3,
                "end_time": 50.5,
                "pitch": 70,
                "velocity": 127,
                "duration": 0.2,
                "tempo": 120.0
            },
            {
                "start_time": 50.9931818,
                "end_time": 51.0431818,
                "pitch": 72,
                "velocity": 127,
                "duration": 0.05,
                "tempo": 120.0
            },
            {
                "start_time": 51.0431818,
                "end_time": 51.1954545,
                "pitch": 72,
                "velocity": 64,
                "duration": 0.1522727,
                "tempo": 120.0
            },
            {
                "start_time": 51.5136364,
                "end_time": 51.5636364,
                "pitch": 72,
                "velocity": 127,
                "duration": 0.05,
                "tempo": 120.0
            },
            {
                "start_time": 51.5659091,
                "end_time": 51.7136364,
                "pitch": 72,
                "velocity": 64,
                "duration": 0.1477273,
                "tempo": 120.0
            },
            {
                "start_time": 52.2113636,
                "end_time": 52.2590909,
                "pitch": 72,
                "velocity": 127,
                "duration": 0.0477273,
                "tempo": 120.0
            },
            {
                "start_time": 52.2590909,
                "end_time": 52.4090909,
                "pitch": 72,
                "velocity": 64,
                "duration": 0.15,
                "tempo": 120.0
            },
            {
                "start_time": 52.7204545,
                "end_time": 52.7681818,
                "pitch": 72,
                "velocity": 127,
                "duration": 0.0477273,
                "tempo": 120.0
            },
            {
                "start_time": 52.7681818,
                "end_time": 52.9159091,
                "pitch": 72,
                "velocity": 64,
                "duration": 0.1477273,
                "tempo": 120.0
            },
            {
                "start_time": 53.4136364,
                "end_time": 53.4613636,
                "pitch": 70,
                "velocity": 127,
                "duration": 0.0477273,
                "tempo": 120.0
            },
            {
                "start_time": 53.4613636,
                "end_time": 53.6113636,
                "pitch": 70,
                "velocity": 64,
                "duration": 0.15,
                "tempo": 120.0
            },
            {
                "start_time": 53.9136364,
                "end_time": 53.9636364,
                "pitch": 70,
                "velocity": 127,
                "duration": 0.05,
                "tempo": 120.0
            },
            {
                "start_time": 53.9636364,
                "end_time": 54.1181818,
                "pitch": 70,
                "velocity": 64,
                "duration": 0.1545455,
                "tempo": 120.0
            },
            {
                "start_time": 54.6204545,
                "end_time": 54.6681818,
                "pitch": 70,
                "velocity": 127,
                "duration": 0.0477273,
                "tempo": 120.0
            },
            {
                "start_time": 54.6681818,
                "end_time": 54.8181818,
                "pitch": 70,
                "velocity": 64,
                "duration": 0.15,
                "tempo": 120.0
            },
            {
                "start_time": 55.1295455,
                "end_time": 55.1772727,
                "pitch": 70,
                "velocity": 127,
                "duration": 0.0477273,
                "tempo": 120.0
            },
            {
                "start_time": 55.1795455,
                "end_time": 55.3272727,
                "pitch": 70,
                "velocity": 64,
                "duration": 0.1477273,
                "tempo": 120.0
            },
            {
                "start_time": 55.8227273,
                "end_time": 55.8704545,
                "pitch": 72,
                "velocity": 127,
                "duration": 0.0477273,
                "tempo": 120.0
            },
            {
                "start_time": 55.8727273,
                "end_time": 56.0227273,
                "pitch": 72,
                "velocity": 64,
                "duration": 0.15,
                "tempo": 120.0
            },
            {
                "start_time": 56.3318182,
                "end_time": 56.3818182,
                "pitch": 72,
                "velocity": 127,
                "duration": 0.05,
                "tempo": 120.0
            },
            {
                "start_time": 86.9090909,
                "end_time": 86.9568182,
                "pitch": 82,
                "velocity": 101,
                "duration": 0.0477273,
                "tempo": 120.0
            },
            {
                "start_time": 86.9568182,
                "end_time": 87.1113636,
                "pitch": 82,
                "velocity": 64,
                "duration": 0.1545455,
                "tempo": 120.0
            },
            {
                "start_time": 87.1136364,
                "end_time": 87.1636364,
                "pitch": 86,
                "velocity": 101,
                "duration": 0.05,
                "tempo": 120.0
            },
            {
                "start_time": 87.1636364,
                "end_time": 87.3181818,
                "pitch": 86,
                "velocity": 64,
                "duration": 0.1545455,
                "tempo": 120.0
            },
            {
                "start_time": 87.3181818,
                "end_time": 87.3659091,
                "pitch": 89,
                "velocity": 101,
                "duration": 0.0477273,
                "tempo": 120.0
            },
            {
                "start_time": 87.3681818,
                "end_time": 87.7181818,
                "pitch": 89,
                "velocity": 51,
                "duration": 0.35,
                "tempo": 120.0
            },
            {
                "start_time": 87.7181818,
                "end_time": 87.7681818,
                "pitch": 94,
                "velocity": 101,
                "duration": 0.05,
                "tempo": 120.0
            },
            {
                "start_time": 87.7681818,
                "end_time": 88.1295455,
                "pitch": 94,
                "velocity": 51,
                "duration": 0.3613636,
                "tempo": 120.0
            },
            {
                "start_time": 88.1295455,
                "end_time": 88.2454545,
                "pitch": 91,
                "velocity": 64,
                "duration": 0.1159091,
                "tempo": 120.0
            },
            {
                "start_time": 45.0954545,
                "end_time": 88.2454545,
                "pitch": 103,
                "velocity": 51,
                "duration": 43.15,
                "tempo": 120.0
            },
            {
                "start_time": 88.2454545,
                "end_time": 88.3272727,
                "pitch": 91,
                "velocity": 64,
                "duration": 0.0818182,
                "tempo": 120.0
            }
        ],
        "Oboe": [
            {
                "start_time": 14.4931818,
                "end_time": 14.625,
                "pitch": 82,
                "velocity": 32,
                "duration": 0.1318182,
                "tempo": 120.0
            },
            {
                "start_time": 14.625,
                "end_time": 14.6931818,
                "pitch": 84,
                "velocity": 32,
                "duration": 0.0681818,
                "tempo": 120.0
            },
            {
                "start_time": 15.7113636,
                "end_time": 15.8409091,
                "pitch": 82,
                "velocity": 32,
                "duration": 0.1295455,
                "tempo": 120.0
            },
            {
                "start_time": 15.8409091,
                "end_time": 15.9068182,
                "pitch": 84,
                "velocity": 32,
                "duration": 0.0659091,
                "tempo": 120.0
            },
            {
                "start_time": 16.925,
                "end_time": 17.0045455,
                "pitch": 84,
                "velocity": 32,
                "duration": 0.0795455,
                "tempo": 120.0
            },
            {
                "start_time": 17.0045455,
                "end_time": 17.0840909,
                "pitch": 86,
                "velocity": 32,
                "duration": 0.0795455,
                "tempo": 120.0
            },
            {
                "start_time": 17.0840909,
                "end_time": 17.1159091,
                "pitch": 88,
                "velocity": 32,
                "duration": 0.0318182,
                "tempo": 120.0
            },
            {
                "start_time": 18.1204545,
                "end_time": 18.2022727,
                "pitch": 84,
                "velocity": 32,
                "duration": 0.0818182,
                "tempo": 120.0
            },
            {
                "start_time": 18.2022727,
                "end_time": 18.3045455,
                "pitch": 87,
                "velocity": 32,
                "duration": 0.1022727,
                "tempo": 120.0
            },
            {
                "start_time": 18.3045455,
                "end_time": 18.3204545,
                "pitch": 89,
                "velocity": 32,
                "duration": 0.0159091,
                "tempo": 120.0
            },
            {
                "start_time": 19.3340909,
                "end_time": 19.4636364,
                "pitch": 82,
                "velocity": 32,
                "duration": 0.1295455,
                "tempo": 120.0
            },
            {
                "start_time": 19.4636364,
                "end_time": 19.5295455,
                "pitch": 84,
                "velocity": 32,
                "duration": 0.0659091,
                "tempo": 120.0
            },
            {
                "start_time": 20.5386364,
                "end_time": 20.6704545,
                "pitch": 82,
                "velocity": 32,
                "duration": 0.1318182,
                "tempo": 120.0
            },
            {
                "start_time": 20.6704545,
                "end_time": 20.7363636,
                "pitch": 84,
                "velocity": 32,
                "duration": 0.0659091,
                "tempo": 120.0
            },
            {
                "start_time": 21.7431818,
                "end_time": 21.825,
                "pitch": 84,
                "velocity": 32,
                "duration": 0.0818182,
                "tempo": 120.0
            },
            {
                "start_time": 21.825,
                "end_time": 21.9068182,
                "pitch": 86,
                "velocity": 32,
                "duration": 0.0818182,
                "tempo": 120.0
            },
            {
                "start_time": 21.9068182,
                "end_time": 21.9386364,
                "pitch": 88,
                "velocity": 32,
                "duration": 0.0318182,
                "tempo": 120.0
            },
            {
                "start_time": 22.9590909,
                "end_time": 23.0363636,
                "pitch": 84,
                "velocity": 32,
                "duration": 0.0772727,
                "tempo": 120.0
            },
            {
                "start_time": 23.0363636,
                "end_time": 23.1159091,
                "pitch": 86,
                "velocity": 32,
                "duration": 0.0795455,
                "tempo": 120.0
            },
            {
                "start_time": 23.1159091,
                "end_time": 23.15,
                "pitch": 88,
                "velocity": 32,
                "duration": 0.0340909,
                "tempo": 120.0
            },
            {
                "start_time": 24.1636364,
                "end_time": 24.2909091,
                "pitch": 82,
                "velocity": 32,
                "duration": 0.1272727,
                "tempo": 120.0
            },
            {
                "start_time": 24.2909091,
                "end_time": 24.3545455,
                "pitch": 84,
                "velocity": 32,
                "duration": 0.0636364,
                "tempo": 120.0
            },
            {
                "start_time": 25.3477273,
                "end_time": 25.4840909,
                "pitch": 82,
                "velocity": 32,
                "duration": 0.1363636,
                "tempo": 120.0
            },
            {
                "start_time": 25.4840909,
                "end_time": 25.5522727,
                "pitch": 84,
                "velocity": 32,
                "duration": 0.0681818,
                "tempo": 120.0
            },
            {
                "start_time": 26.5636364,
                "end_time": 26.6454545,
                "pitch": 84,
                "velocity": 32,
                "duration": 0.0818182,
                "tempo": 120.0
            },
            {
                "start_time": 26.6454545,
                "end_time": 26.7295455,
                "pitch": 86,
                "velocity": 32,
                "duration": 0.0840909,
                "tempo": 120.0
            },
            {
                "start_time": 26.7295455,
                "end_time": 26.7636364,
                "pitch": 88,
                "velocity": 32,
                "duration": 0.0340909,
                "tempo": 120.0
            },
            {
                "start_time": 27.7659091,
                "end_time": 27.85,
                "pitch": 84,
                "velocity": 32,
                "duration": 0.0840909,
                "tempo": 120.0
            },
            {
                "start_time": 27.85,
                "end_time": 27.9340909,
                "pitch": 86,
                "velocity": 32,
                "duration": 0.0840909,
                "tempo": 120.0
            },
            {
                "start_time": 27.9340909,
                "end_time": 27.9681818,
                "pitch": 88,
                "velocity": 32,
                "duration": 0.0340909,
                "tempo": 120.0
            },
            {
                "start_time": 28.975,
                "end_time": 29.1068182,
                "pitch": 82,
                "velocity": 32,
                "duration": 0.1318182,
                "tempo": 120.0
            },
            {
                "start_time": 29.1068182,
                "end_time": 29.1727273,
                "pitch": 84,
                "velocity": 32,
                "duration": 0.0659091,
                "tempo": 120.0
            },
            {
                "start_time": 30.1772727,
                "end_time": 30.3113636,
                "pitch": 82,
                "velocity": 32,
                "duration": 0.1340909,
                "tempo": 120.0
            },
            {
                "start_time": 30.3113636,
                "end_time": 30.3772727,
                "pitch": 84,
                "velocity": 32,
                "duration": 0.0659091,
                "tempo": 120.0
            },
            {
                "start_time": 31.3818182,
                "end_time": 31.4636364,
                "pitch": 84,
                "velocity": 32,
                "duration": 0.0818182,
                "tempo": 120.0
            },
            {
                "start_time": 31.4636364,
                "end_time": 31.5477273,
                "pitch": 86,
                "velocity": 32,
                "duration": 0.0840909,
                "tempo": 120.0
            },
            {
                "start_time": 31.5477273,
                "end_time": 31.5818182,
                "pitch": 88,
                "velocity": 32,
                "duration": 0.0340909,
                "tempo": 120.0
            },
            {
                "start_time": 32.5977273,
                "end_time": 32.6818182,
                "pitch": 84,
                "velocity": 32,
                "duration": 0.0840909,
                "tempo": 120.0
            },
            {
                "start_time": 32.6818182,
                "end_time": 32.7636364,
                "pitch": 86,
                "velocity": 32,
                "duration": 0.0818182,
                "tempo": 120.0
            },
            {
                "start_time": 32.7636364,
                "end_time": 32.8,
                "pitch": 88,
                "velocity": 32,
                "duration": 0.0363636,
                "tempo": 120.0
            },
            {
                "start_time": 33.8022727,
                "end_time": 33.9340909,
                "pitch": 82,
                "velocity": 32,
                "duration": 0.1318182,
                "tempo": 120.0
            },
            {
                "start_time": 33.9340909,
                "end_time": 34.0,
                "pitch": 84,
                "velocity": 32,
                "duration": 0.0659091,
                "tempo": 120.0
            },
            {
                "start_time": 35.0068182,
                "end_time": 35.1386364,
                "pitch": 82,
                "velocity": 32,
                "duration": 0.1318182,
                "tempo": 120.0
            },
            {
                "start_time": 35.1386364,
                "end_time": 35.2045455,
                "pitch": 84,
                "velocity": 32,
                "duration": 0.0659091,
                "tempo": 120.0
            },
            {
                "start_time": 36.2068182,
                "end_time": 36.2886364,
                "pitch": 84,
                "velocity": 32,
                "duration": 0.0818182,
                "tempo": 120.0
            },
            {
                "start_time": 36.2886364,
                "end_time": 36.3909091,
                "pitch": 87,
                "velocity": 32,
                "duration": 0.1022727,
                "tempo": 120.0
            },
            {
                "start_time": 36.3909091,
                "end_time": 36.4068182,
                "pitch": 89,
                "velocity": 32,
                "duration": 0.0159091,
                "tempo": 120.0
            },
            {
                "start_time": 37.4113636,
                "end_time": 37.4954545,
                "pitch": 84,
                "velocity": 32,
                "duration": 0.0840909,
                "tempo": 120.0
            },
            {
                "start_time": 37.4954545,
                "end_time": 37.5772727,
                "pitch": 86,
                "velocity": 32,
                "duration": 0.0818182,
                "tempo": 120.0
            },
            {
                "start_time": 37.5772727,
                "end_time": 37.6113636,
                "pitch": 88,
                "velocity": 32,
                "duration": 0.0340909,
                "tempo": 120.0
            },
            {
                "start_time": 38.6136364,
                "end_time": 38.7454545,
                "pitch": 82,
                "velocity": 32,
                "duration": 0.1318182,
                "tempo": 120.0
            },
            {
                "start_time": 38.7454545,
                "end_time": 38.8136364,
                "pitch": 84,
                "velocity": 32,
                "duration": 0.0681818,
                "tempo": 120.0
            },
            {
                "start_time": 39.8181818,
                "end_time": 39.95,
                "pitch": 82,
                "velocity": 32,
                "duration": 0.1318182,
                "tempo": 120.0
            },
            {
                "start_time": 39.95,
                "end_time": 40.0159091,
                "pitch": 84,
                "velocity": 32,
                "duration": 0.0659091,
                "tempo": 120.0
            },
            {
                "start_time": 41.0227273,
                "end_time": 41.1045455,
                "pitch": 84,
                "velocity": 32,
                "duration": 0.0818182,
                "tempo": 120.0
            },
            {
                "start_time": 41.1045455,
                "end_time": 41.1863636,
                "pitch": 86,
                "velocity": 32,
                "duration": 0.0818182,
                "tempo": 120.0
            },
            {
                "start_time": 41.1863636,
                "end_time": 41.2204545,
                "pitch": 88,
                "velocity": 32,
                "duration": 0.0340909,
                "tempo": 120.0
            },
            {
                "start_time": 41.8431818,
                "end_time": 41.9227273,
                "pitch": 84,
                "velocity": 32,
                "duration": 0.0795455,
                "tempo": 120.0
            },
            {
                "start_time": 41.9227273,
                "end_time": 42.0022727,
                "pitch": 86,
                "velocity": 32,
                "duration": 0.0795455,
                "tempo": 120.0
            },
            {
                "start_time": 42.0022727,
                "end_time": 42.0340909,
                "pitch": 88,
                "velocity": 32,
                "duration": 0.0318182,
                "tempo": 120.0
            },
            {
                "start_time": 42.2272727,
                "end_time": 42.3113636,
                "pitch": 84,
                "velocity": 32,
                "duration": 0.0840909,
                "tempo": 120.0
            },
            {
                "start_time": 42.3113636,
                "end_time": 42.4136364,
                "pitch": 87,
                "velocity": 32,
                "duration": 0.1022727,
                "tempo": 120.0
            },
            {
                "start_time": 42.4136364,
                "end_time": 42.4318182,
                "pitch": 89,
                "velocity": 32,
                "duration": 0.0181818,
                "tempo": 120.0
            },
            {
                "start_time": 57.9409091,
                "end_time": 58.0727273,
                "pitch": 82,
                "velocity": 32,
                "duration": 0.1318182,
                "tempo": 120.0
            },
            {
                "start_time": 58.0727273,
                "end_time": 58.1386364,
                "pitch": 84,
                "velocity": 32,
                "duration": 0.0659091,
                "tempo": 120.0
            },
            {
                "start_time": 59.1454545,
                "end_time": 59.2772727,
                "pitch": 82,
                "velocity": 32,
                "duration": 0.1318182,
                "tempo": 120.0
            },
            {
                "start_time": 59.2772727,
                "end_time": 59.3454545,
                "pitch": 84,
                "velocity": 32,
                "duration": 0.0681818,
                "tempo": 120.0
            },
            {
                "start_time": 60.3681818,
                "end_time": 60.4477273,
                "pitch": 84,
                "velocity": 32,
                "duration": 0.0795455,
                "tempo": 120.0
            },
            {
                "start_time": 60.4477273,
                "end_time": 60.5272727,
                "pitch": 86,
                "velocity": 32,
                "duration": 0.0795455,
                "tempo": 120.0
            },
            {
                "start_time": 60.5272727,
                "end_time": 60.5590909,
                "pitch": 88,
                "velocity": 32,
                "duration": 0.0318182,
                "tempo": 120.0
            },
            {
                "start_time": 61.5636364,
                "end_time": 61.6431818,
                "pitch": 84,
                "velocity": 32,
                "duration": 0.0795455,
                "tempo": 120.0
            },
            {
                "start_time": 61.6431818,
                "end_time": 61.7431818,
                "pitch": 87,
                "velocity": 32,
                "duration": 0.1,
                "tempo": 120.0
            },
            {
                "start_time": 61.7431818,
                "end_time": 61.7590909,
                "pitch": 89,
                "velocity": 32,
                "duration": 0.0159091,
                "tempo": 120.0
            },
            {
                "start_time": 62.7772727,
                "end_time": 62.9045455,
                "pitch": 82,
                "velocity": 32,
                "duration": 0.1272727,
                "tempo": 120.0
            },
            {
                "start_time": 62.9045455,
                "end_time": 62.9681818,
                "pitch": 84,
                "velocity": 32,
                "duration": 0.0636364,
                "tempo": 120.0
            },
            {
                "start_time": 63.9840909,
                "end_time": 64.1090909,
                "pitch": 82,
                "velocity": 32,
                "duration": 0.125,
                "tempo": 120.0
            },
            {
                "start_time": 64.1090909,
                "end_time": 64.175,
                "pitch": 84,
                "velocity": 32,
                "duration": 0.0659091,
                "tempo": 120.0
            },
            {
                "start_time": 65.1795455,
                "end_time": 65.2613636,
                "pitch": 84,
                "velocity": 32,
                "duration": 0.0818182,
                "tempo": 120.0
            },
            {
                "start_time": 65.2613636,
                "end_time": 65.3454545,
                "pitch": 86,
                "velocity": 32,
                "duration": 0.0840909,
                "tempo": 120.0
            },
            {
                "start_time": 65.3454545,
                "end_time": 65.3795455,
                "pitch": 88,
                "velocity": 32,
                "duration": 0.0340909,
                "tempo": 120.0
            },
            {
                "start_time": 66.3954545,
                "end_time": 66.475,
                "pitch": 84,
                "velocity": 32,
                "duration": 0.0795455,
                "tempo": 120.0
            },
            {
                "start_time": 66.475,
                "end_time": 66.5568182,
                "pitch": 86,
                "velocity": 32,
                "duration": 0.0818182,
                "tempo": 120.0
            },
            {
                "start_time": 66.5568182,
                "end_time": 66.5909091,
                "pitch": 88,
                "velocity": 32,
                "duration": 0.0340909,
                "tempo": 120.0
            },
            {
                "start_time": 67.6022727,
                "end_time": 67.7318182,
                "pitch": 82,
                "velocity": 32,
                "duration": 0.1295455,
                "tempo": 120.0
            },
            {
                "start_time": 67.7318182,
                "end_time": 67.7977273,
                "pitch": 84,
                "velocity": 32,
                "duration": 0.0659091,
                "tempo": 120.0
            },
            {
                "start_time": 68.7977273,
                "end_time": 68.9318182,
                "pitch": 82,
                "velocity": 32,
                "duration": 0.1340909,
                "tempo": 120.0
            },
            {
                "start_time": 68.9318182,
                "end_time": 69.0,
                "pitch": 84,
                "velocity": 32,
                "duration": 0.0681818,
                "tempo": 120.0
            },
            {
                "start_time": 70.0045455,
                "end_time": 70.0886364,
                "pitch": 84,
                "velocity": 32,
                "duration": 0.0840909,
                "tempo": 120.0
            },
            {
                "start_time": 70.0886364,
                "end_time": 70.1704545,
                "pitch": 86,
                "velocity": 32,
                "duration": 0.0818182,
                "tempo": 120.0
            },
            {
                "start_time": 70.1704545,
                "end_time": 70.2045455,
                "pitch": 88,
                "velocity": 32,
                "duration": 0.0340909,
                "tempo": 120.0
            },
            {
                "start_time": 71.2204545,
                "end_time": 71.3022727,
                "pitch": 84,
                "velocity": 32,
                "duration": 0.0818182,
                "tempo": 120.0
            },
            {
                "start_time": 71.3022727,
                "end_time": 71.3818182,
                "pitch": 86,
                "velocity": 32,
                "duration": 0.0795455,
                "tempo": 120.0
            },
            {
                "start_time": 71.3818182,
                "end_time": 71.4159091,
                "pitch": 88,
                "velocity": 32,
                "duration": 0.0340909,
                "tempo": 120.0
            },
            {
                "start_time": 72.4272727,
                "end_time": 72.5613636,
                "pitch": 82,
                "velocity": 32,
                "duration": 0.1340909,
                "tempo": 120.0
            },
            {
                "start_time": 72.5613636,
                "end_time": 72.6272727,
                "pitch": 84,
                "velocity": 32,
                "duration": 0.0659091,
                "tempo": 120.0
            },
            {
                "start_time": 73.6340909,
                "end_time": 73.7659091,
                "pitch": 82,
                "velocity": 32,
                "duration": 0.1318182,
                "tempo": 120.0
            },
            {
                "start_time": 73.7659091,
                "end_time": 73.8340909,
                "pitch": 84,
                "velocity": 32,
                "duration": 0.0681818,
                "tempo": 120.0
            },
            {
                "start_time": 74.8409091,
                "end_time": 74.9227273,
                "pitch": 84,
                "velocity": 32,
                "duration": 0.0818182,
                "tempo": 120.0
            },
            {
                "start_time": 74.9227273,
                "end_time": 75.0068182,
                "pitch": 86,
                "velocity": 32,
                "duration": 0.0840909,
                "tempo": 120.0
            },
            {
                "start_time": 75.0068182,
                "end_time": 75.0409091,
                "pitch": 88,
                "velocity": 32,
                "duration": 0.0340909,
                "tempo": 120.0
            },
            {
                "start_time": 76.0454545,
                "end_time": 76.1295455,
                "pitch": 84,
                "velocity": 32,
                "duration": 0.0840909,
                "tempo": 120.0
            },
            {
                "start_time": 76.1295455,
                "end_time": 76.2136364,
                "pitch": 86,
                "velocity": 32,
                "duration": 0.0840909,
                "tempo": 120.0
            },
            {
                "start_time": 76.2136364,
                "end_time": 76.2477273,
                "pitch": 88,
                "velocity": 32,
                "duration": 0.0340909,
                "tempo": 120.0
            },
            {
                "start_time": 77.2522727,
                "end_time": 77.3863636,
                "pitch": 82,
                "velocity": 32,
                "duration": 0.1340909,
                "tempo": 120.0
            },
            {
                "start_time": 77.3863636,
                "end_time": 77.4522727,
                "pitch": 84,
                "velocity": 32,
                "duration": 0.0659091,
                "tempo": 120.0
            },
            {
                "start_time": 78.4590909,
                "end_time": 78.5931818,
                "pitch": 82,
                "velocity": 32,
                "duration": 0.1340909,
                "tempo": 120.0
            },
            {
                "start_time": 78.5931818,
                "end_time": 78.6613636,
                "pitch": 84,
                "velocity": 32,
                "duration": 0.0681818,
                "tempo": 120.0
            },
            {
                "start_time": 79.6659091,
                "end_time": 79.75,
                "pitch": 84,
                "velocity": 32,
                "duration": 0.0840909,
                "tempo": 120.0
            },
            {
                "start_time": 79.75,
                "end_time": 79.8545455,
                "pitch": 87,
                "velocity": 32,
                "duration": 0.1045455,
                "tempo": 120.0
            },
            {
                "start_time": 79.8545455,
                "end_time": 79.8727273,
                "pitch": 89,
                "velocity": 32,
                "duration": 0.0181818,
                "tempo": 120.0
            },
            {
                "start_time": 80.8818182,
                "end_time": 80.9659091,
                "pitch": 84,
                "velocity": 32,
                "duration": 0.0840909,
                "tempo": 120.0
            },
            {
                "start_time": 80.9659091,
                "end_time": 81.0477273,
                "pitch": 86,
                "velocity": 32,
                "duration": 0.0818182,
                "tempo": 120.0
            },
            {
                "start_time": 81.0477273,
                "end_time": 81.0840909,
                "pitch": 88,
                "velocity": 32,
                "duration": 0.0363636,
                "tempo": 120.0
            },
            {
                "start_time": 82.0886364,
                "end_time": 82.2227273,
                "pitch": 82,
                "velocity": 32,
                "duration": 0.1340909,
                "tempo": 120.0
            },
            {
                "start_time": 82.2227273,
                "end_time": 82.2886364,
                "pitch": 84,
                "velocity": 32,
                "duration": 0.0659091,
                "tempo": 120.0
            },
            {
                "start_time": 83.2954545,
                "end_time": 83.4272727,
                "pitch": 82,
                "velocity": 32,
                "duration": 0.1318182,
                "tempo": 120.0
            },
            {
                "start_time": 83.4272727,
                "end_time": 83.4954545,
                "pitch": 84,
                "velocity": 32,
                "duration": 0.0681818,
                "tempo": 120.0
            },
            {
                "start_time": 84.5022727,
                "end_time": 84.5840909,
                "pitch": 84,
                "velocity": 32,
                "duration": 0.0818182,
                "tempo": 120.0
            },
            {
                "start_time": 84.5840909,
                "end_time": 84.6681818,
                "pitch": 86,
                "velocity": 32,
                "duration": 0.0840909,
                "tempo": 120.0
            },
            {
                "start_time": 84.6681818,
                "end_time": 84.7022727,
                "pitch": 88,
                "velocity": 32,
                "duration": 0.0340909,
                "tempo": 120.0
            },
            {
                "start_time": 85.3136364,
                "end_time": 85.3954545,
                "pitch": 84,
                "velocity": 32,
                "duration": 0.0818182,
                "tempo": 120.0
            },
            {
                "start_time": 85.3954545,
                "end_time": 85.4772727,
                "pitch": 86,
                "velocity": 32,
                "duration": 0.0818182,
                "tempo": 120.0
            },
            {
                "start_time": 85.4772727,
                "end_time": 85.5090909,
                "pitch": 88,
                "velocity": 32,
                "duration": 0.0318182,
                "tempo": 120.0
            },
            {
                "start_time": 85.7068182,
                "end_time": 85.7886364,
                "pitch": 84,
                "velocity": 32,
                "duration": 0.0818182,
                "tempo": 120.0
            },
            {
                "start_time": 85.7886364,
                "end_time": 85.8909091,
                "pitch": 87,
                "velocity": 32,
                "duration": 0.1022727,
                "tempo": 120.0
            },
            {
                "start_time": 85.8909091,
                "end_time": 85.9068182,
                "pitch": 89,
                "velocity": 32,
                "duration": 0.0159091,
                "tempo": 120.0
            }
        ],
        "Acoustic Bass": [
            {
                "start_time": 0.2068182,
                "end_time": 1.0068182,
                "pitch": 46,
                "velocity": 80,
                "duration": 0.8,
                "tempo": 120.0
            },
            {
                "start_time": 1.0090909,
                "end_time": 1.2068182,
                "pitch": 41,
                "velocity": 80,
                "duration": 0.1977273,
                "tempo": 120.0
            },
            {
                "start_time": 1.2068182,
                "end_time": 1.4136364,
                "pitch": 41,
                "velocity": 40,
                "duration": 0.2068182,
                "tempo": 120.0
            },
            {
                "start_time": 1.4136364,
                "end_time": 2.2272727,
                "pitch": 41,
                "velocity": 80,
                "duration": 0.8136364,
                "tempo": 120.0
            },
            {
                "start_time": 2.2272727,
                "end_time": 2.4272727,
                "pitch": 41,
                "velocity": 80,
                "duration": 0.2,
                "tempo": 120.0
            },
            {
                "start_time": 2.4272727,
                "end_time": 3.6409091,
                "pitch": 34,
                "velocity": 80,
                "duration": 1.2136364,
                "tempo": 120.0
            },
            {
                "start_time": 3.6431818,
                "end_time": 4.85,
                "pitch": 34,
                "velocity": 80,
                "duration": 1.2068182,
                "tempo": 120.0
            },
            {
                "start_time": 4.85,
                "end_time": 6.0568182,
                "pitch": 34,
                "velocity": 80,
                "duration": 1.2068182,
                "tempo": 120.0
            },
            {
                "start_time": 6.0568182,
                "end_time": 7.2704545,
                "pitch": 34,
                "velocity": 80,
                "duration": 1.2136364,
                "tempo": 120.0
            },
            {
                "start_time": 7.2704545,
                "end_time": 8.475,
                "pitch": 41,
                "velocity": 80,
                "duration": 1.2045455,
                "tempo": 120.0
            },
            {
                "start_time": 8.475,
                "end_time": 9.6818182,
                "pitch": 29,
                "velocity": 80,
                "duration": 1.2068182,
                "tempo": 120.0
            },
            {
                "start_time": 9.6818182,
                "end_time": 10.8886364,
                "pitch": 46,
                "velocity": 80,
                "duration": 1.2068182,
                "tempo": 120.0
            },
            {
                "start_time": 10.8886364,
                "end_time": 12.0931818,
                "pitch": 34,
                "velocity": 80,
                "duration": 1.2045455,
                "tempo": 120.0
            },
            {
                "start_time": 12.0954545,
                "end_time": 13.3113636,
                "pitch": 29,
                "velocity": 80,
                "duration": 1.2159091,
                "tempo": 120.0
            },
            {
                "start_time": 13.3113636,
                "end_time": 14.5090909,
                "pitch": 41,
                "velocity": 80,
                "duration": 1.1977273,
                "tempo": 120.0
            },
            {
                "start_time": 14.5090909,
                "end_time": 14.9113636,
                "pitch": 34,
                "velocity": 80,
                "duration": 0.4022727,
                "tempo": 120.0
            },
            {
                "start_time": 14.9113636,
                "end_time": 15.1181818,
                "pitch": 34,
                "velocity": 25,
                "duration": 0.2068182,
                "tempo": 120.0
            },
            {
                "start_time": 15.1181818,
                "end_time": 15.3227273,
                "pitch": 29,
                "velocity": 80,
                "duration": 0.2045455,
                "tempo": 120.0
            },
            {
                "start_time": 15.3227273,
                "end_time": 15.525,
                "pitch": 31,
                "velocity": 80,
                "duration": 0.2022727,
                "tempo": 120.0
            },
            {
                "start_time": 15.525,
                "end_time": 15.725,
                "pitch": 33,
                "velocity": 80,
                "duration": 0.2,
                "tempo": 120.0
            },
            {
                "start_time": 15.7272727,
                "end_time": 16.1181818,
                "pitch": 34,
                "velocity": 80,
                "duration": 0.3909091,
                "tempo": 120.0
            },
            {
                "start_time": 16.1181818,
                "end_time": 16.325,
                "pitch": 29,
                "velocity": 80,
                "duration": 0.2068182,
                "tempo": 120.0
            },
            {
                "start_time": 16.325,
                "end_time": 16.5295455,
                "pitch": 29,
                "velocity": 25,
                "duration": 0.2045455,
                "tempo": 120.0
            },
            {
                "start_time": 16.5318182,
                "end_time": 16.7363636,
                "pitch": 29,
                "velocity": 80,
                "duration": 0.2045455,
                "tempo": 120.0
            },
            {
                "start_time": 16.7363636,
                "end_time": 16.9409091,
                "pitch": 29,
                "velocity": 25,
                "duration": 0.2045455,
                "tempo": 120.0
            },
            {
                "start_time": 16.9409091,
                "end_time": 17.3227273,
                "pitch": 36,
                "velocity": 80,
                "duration": 0.3818182,
                "tempo": 120.0
            },
            {
                "start_time": 17.325,
                "end_time": 17.5295455,
                "pitch": 36,
                "velocity": 25,
                "duration": 0.2045455,
                "tempo": 120.0
            },
            {
                "start_time": 17.5295455,
                "end_time": 17.7340909,
                "pitch": 31,
                "velocity": 80,
                "duration": 0.2045455,
                "tempo": 120.0
            },
            {
                "start_time": 17.7340909,
                "end_time": 17.9340909,
                "pitch": 33,
                "velocity": 80,
                "duration": 0.2,
                "tempo": 120.0
            },
            {
                "start_time": 17.9363636,
                "end_time": 18.1363636,
                "pitch": 34,
                "velocity": 80,
                "duration": 0.2,
                "tempo": 120.0
            },
            {
                "start_time": 18.1363636,
                "end_time": 18.5386364,
                "pitch": 36,
                "velocity": 80,
                "duration": 0.4022727,
                "tempo": 120.0
            },
            {
                "start_time": 18.5386364,
                "end_time": 18.7386364,
                "pitch": 31,
                "velocity": 80,
                "duration": 0.2,
                "tempo": 120.0
            },
            {
                "start_time": 18.7386364,
                "end_time": 18.9386364,
                "pitch": 31,
                "velocity": 25,
                "duration": 0.2,
                "tempo": 120.0
            },
            {
                "start_time": 18.9386364,
                "end_time": 19.1454545,
                "pitch": 31,
                "velocity": 80,
                "duration": 0.2068182,
                "tempo": 120.0
            },
            {
                "start_time": 19.1454545,
                "end_time": 19.35,
                "pitch": 31,
                "velocity": 25,
                "duration": 0.2045455,
                "tempo": 120.0
            },
            {
                "start_time": 19.35,
                "end_time": 19.7431818,
                "pitch": 41,
                "velocity": 80,
                "duration": 0.3931818,
                "tempo": 120.0
            },
            {
                "start_time": 19.7431818,
                "end_time": 19.9477273,
                "pitch": 41,
                "velocity": 25,
                "duration": 0.2045455,
                "tempo": 120.0
            },
            {
                "start_time": 19.95,
                "end_time": 20.1545455,
                "pitch": 38,
                "velocity": 80,
                "duration": 0.2045455,
                "tempo": 120.0
            },
            {
                "start_time": 20.1545455,
                "end_time": 20.3545455,
                "pitch": 39,
                "velocity": 80,
                "duration": 0.2,
                "tempo": 120.0
            },
            {
                "start_time": 20.3545455,
                "end_time": 20.5545455,
                "pitch": 40,
                "velocity": 80,
                "duration": 0.2,
                "tempo": 120.0
            },
            {
                "start_time": 20.5545455,
                "end_time": 20.9477273,
                "pitch": 41,
                "velocity": 80,
                "duration": 0.3931818,
                "tempo": 120.0
            },
            {
                "start_time": 20.9477273,
                "end_time": 21.1477273,
                "pitch": 41,
                "velocity": 25,
                "duration": 0.2,
                "tempo": 120.0
            },
            {
                "start_time": 21.1477273,
                "end_time": 21.3477273,
                "pitch": 41,
                "velocity": 80,
                "duration": 0.2,
                "tempo": 120.0
            },
            {
                "start_time": 21.3477273,
                "end_time": 21.5545455,
                "pitch": 43,
                "velocity": 80,
                "duration": 0.2068182,
                "tempo": 120.0
            },
            {
                "start_time": 21.5545455,
                "end_time": 21.7590909,
                "pitch": 45,
                "velocity": 80,
                "duration": 0.2045455,
                "tempo": 120.0
            },
            {
                "start_time": 21.7590909,
                "end_time": 21.9545455,
                "pitch": 46,
                "velocity": 80,
                "duration": 0.1954545,
                "tempo": 120.0
            },
            {
                "start_time": 21.9545455,
                "end_time": 22.1522727,
                "pitch": 46,
                "velocity": 25,
                "duration": 0.1977273,
                "tempo": 120.0
            },
            {
                "start_time": 22.1522727,
                "end_time": 22.3568182,
                "pitch": 46,
                "velocity": 16,
                "duration": 0.2045455,
                "tempo": 120.0
            },
            {
                "start_time": 22.3568182,
                "end_time": 22.5636364,
                "pitch": 46,
                "velocity": 16,
                "duration": 0.2068182,
                "tempo": 120.0
            },
            {
                "start_time": 22.5636364,
                "end_time": 22.7681818,
                "pitch": 29,
                "velocity": 80,
                "duration": 0.2045455,
                "tempo": 120.0
            },
            {
                "start_time": 22.7704545,
                "end_time": 22.9727273,
                "pitch": 29,
                "velocity": 25,
                "duration": 0.2022727,
                "tempo": 120.0
            },
            {
                "start_time": 22.975,
                "end_time": 23.1659091,
                "pitch": 34,
                "velocity": 80,
                "duration": 0.1909091,
                "tempo": 120.0
            },
            {
                "start_time": 23.1659091,
                "end_time": 23.3568182,
                "pitch": 34,
                "velocity": 25,
                "duration": 0.1909091,
                "tempo": 120.0
            },
            {
                "start_time": 23.3568182,
                "end_time": 23.7681818,
                "pitch": 34,
                "velocity": 25,
                "duration": 0.4113636,
                "tempo": 120.0
            },
            {
                "start_time": 23.7681818,
                "end_time": 24.1795455,
                "pitch": 34,
                "velocity": 25,
                "duration": 0.4113636,
                "tempo": 120.0
            },
            {
                "start_time": 24.1795455,
                "end_time": 24.5613636,
                "pitch": 34,
                "velocity": 80,
                "duration": 0.3818182,
                "tempo": 120.0
            },
            {
                "start_time": 24.5613636,
                "end_time": 24.7613636,
                "pitch": 34,
                "velocity": 25,
                "duration": 0.2,
                "tempo": 120.0
            },
            {
                "start_time": 24.7636364,
                "end_time": 25.1636364,
                "pitch": 33,
                "velocity": 80,
                "duration": 0.4,
                "tempo": 120.0
            },
            {
                "start_time": 25.1636364,
                "end_time": 25.2636364,
                "pitch": 29,
                "velocity": 80,
                "duration": 0.1,
                "tempo": 120.0
            },
            {
                "start_time": 25.2636364,
                "end_time": 25.3636364,
                "pitch": 29,
                "velocity": 25,
                "duration": 0.1,
                "tempo": 120.0
            },
            {
                "start_time": 25.3636364,
                "end_time": 25.5681818,
                "pitch": 34,
                "velocity": 80,
                "duration": 0.2045455,
                "tempo": 120.0
            },
            {
                "start_time": 25.5704545,
                "end_time": 25.775,
                "pitch": 34,
                "velocity": 40,
                "duration": 0.2045455,
                "tempo": 120.0
            },
            {
                "start_time": 25.775,
                "end_time": 26.1772727,
                "pitch": 33,
                "velocity": 80,
                "duration": 0.4022727,
                "tempo": 120.0
            },
            {
                "start_time": 26.1772727,
                "end_time": 26.3772727,
                "pitch": 29,
                "velocity": 80,
                "duration": 0.2,
                "tempo": 120.0
            },
            {
                "start_time": 26.3772727,
                "end_time": 26.5795455,
                "pitch": 29,
                "velocity": 40,
                "duration": 0.2022727,
                "tempo": 120.0
            },
            {
                "start_time": 26.5795455,
                "end_time": 26.9818182,
                "pitch": 34,
                "velocity": 80,
                "duration": 0.4022727,
                "tempo": 120.0
            },
            {
                "start_time": 26.9818182,
                "end_time": 27.1818182,
                "pitch": 34,
                "velocity": 25,
                "duration": 0.2,
                "tempo": 120.0
            },
            {
                "start_time": 27.1818182,
                "end_time": 27.5818182,
                "pitch": 33,
                "velocity": 80,
                "duration": 0.4,
                "tempo": 120.0
            },
            {
                "start_time": 27.5818182,
                "end_time": 27.6818182,
                "pitch": 29,
                "velocity": 80,
                "duration": 0.1,
                "tempo": 120.0
            },
            {
                "start_time": 27.6818182,
                "end_time": 27.7818182,
                "pitch": 29,
                "velocity": 25,
                "duration": 0.1,
                "tempo": 120.0
            },
            {
                "start_time": 27.7840909,
                "end_time": 27.9840909,
                "pitch": 34,
                "velocity": 80,
                "duration": 0.2,
                "tempo": 120.0
            },
            {
                "start_time": 27.9840909,
                "end_time": 28.1863636,
                "pitch": 34,
                "velocity": 40,
                "duration": 0.2022727,
                "tempo": 120.0
            },
            {
                "start_time": 28.1863636,
                "end_time": 28.5863636,
                "pitch": 33,
                "velocity": 80,
                "duration": 0.4,
                "tempo": 120.0
            },
            {
                "start_time": 28.5863636,
                "end_time": 28.7886364,
                "pitch": 29,
                "velocity": 80,
                "duration": 0.2022727,
                "tempo": 120.0
            },
            {
                "start_time": 28.7886364,
                "end_time": 28.9886364,
                "pitch": 29,
                "velocity": 40,
                "duration": 0.2,
                "tempo": 120.0
            },
            {
                "start_time": 28.9909091,
                "end_time": 29.3909091,
                "pitch": 36,
                "velocity": 80,
                "duration": 0.4,
                "tempo": 120.0
            },
            {
                "start_time": 29.3909091,
                "end_time": 29.5909091,
                "pitch": 36,
                "velocity": 25,
                "duration": 0.2,
                "tempo": 120.0
            },
            {
                "start_time": 29.5909091,
                "end_time": 29.7909091,
                "pitch": 35,
                "velocity": 80,
                "duration": 0.2,
                "tempo": 120.0
            },
            {
                "start_time": 29.7909091,
                "end_time": 29.9931818,
                "pitch": 36,
                "velocity": 80,
                "duration": 0.2022727,
                "tempo": 120.0
            },
            {
                "start_time": 29.9931818,
                "end_time": 30.0931818,
                "pitch": 29,
                "velocity": 80,
                "duration": 0.1,
                "tempo": 120.0
            },
            {
                "start_time": 30.0931818,
                "end_time": 30.1931818,
                "pitch": 29,
                "velocity": 25,
                "duration": 0.1,
                "tempo": 120.0
            },
            {
                "start_time": 30.1931818,
                "end_time": 30.3931818,
                "pitch": 36,
                "velocity": 80,
                "duration": 0.2,
                "tempo": 120.0
            },
            {
                "start_time": 30.3931818,
                "end_time": 30.5931818,
                "pitch": 36,
                "velocity": 40,
                "duration": 0.2,
                "tempo": 120.0
            },
            {
                "start_time": 30.5954545,
                "end_time": 30.7954545,
                "pitch": 35,
                "velocity": 80,
                "duration": 0.2,
                "tempo": 120.0
            },
            {
                "start_time": 29.7909091,
                "end_time": 30.7954545,
                "pitch": 40,
                "velocity": 80,
                "duration": 1.0045455,
                "tempo": 120.0
            },
            {
                "start_time": 30.7954545,
                "end_time": 30.9977273,
                "pitch": 36,
                "velocity": 80,
                "duration": 0.2022727,
                "tempo": 120.0
            },
            {
                "start_time": 30.9977273,
                "end_time": 31.0977273,
                "pitch": 29,
                "velocity": 80,
                "duration": 0.1,
                "tempo": 120.0
            },
            {
                "start_time": 31.0977273,
                "end_time": 31.1977273,
                "pitch": 29,
                "velocity": 25,
                "duration": 0.1,
                "tempo": 120.0
            },
            {
                "start_time": 31.1977273,
                "end_time": 31.2977273,
                "pitch": 29,
                "velocity": 80,
                "duration": 0.1,
                "tempo": 120.0
            },
            {
                "start_time": 31.2977273,
                "end_time": 31.3977273,
                "pitch": 29,
                "velocity": 25,
                "duration": 0.1,
                "tempo": 120.0
            },
            {
                "start_time": 31.3977273,
                "end_time": 31.5977273,
                "pitch": 36,
                "velocity": 80,
                "duration": 0.2,
                "tempo": 120.0
            },
            {
                "start_time": 31.5977273,
                "end_time": 31.7977273,
                "pitch": 38,
                "velocity": 80,
                "duration": 0.2,
                "tempo": 120.0
            },
            {
                "start_time": 31.7977273,
                "end_time": 32.0,
                "pitch": 36,
                "velocity": 80,
                "duration": 0.2022727,
                "tempo": 120.0
            },
            {
                "start_time": 32.0,
                "end_time": 32.2022727,
                "pitch": 34,
                "velocity": 80,
                "duration": 0.2022727,
                "tempo": 120.0
            },
            {
                "start_time": 32.2022727,
                "end_time": 32.4068182,
                "pitch": 33,
                "velocity": 80,
                "duration": 0.2045455,
                "tempo": 120.0
            },
            {
                "start_time": 32.4068182,
                "end_time": 32.6136364,
                "pitch": 31,
                "velocity": 80,
                "duration": 0.2068182,
                "tempo": 120.0
            },
            {
                "start_time": 32.6136364,
                "end_time": 33.4159091,
                "pitch": 28,
                "velocity": 80,
                "duration": 0.8022727,
                "tempo": 120.0
            },
            {
                "start_time": 33.4181818,
                "end_time": 33.5159091,
                "pitch": 29,
                "velocity": 80,
                "duration": 0.0977273,
                "tempo": 120.0
            },
            {
                "start_time": 33.5181818,
                "end_time": 33.6181818,
                "pitch": 29,
                "velocity": 40,
                "duration": 0.1,
                "tempo": 120.0
            },
            {
                "start_time": 33.6181818,
                "end_time": 33.7181818,
                "pitch": 29,
                "velocity": 80,
                "duration": 0.1,
                "tempo": 120.0
            },
            {
                "start_time": 33.7181818,
                "end_time": 33.8181818,
                "pitch": 29,
                "velocity": 40,
                "duration": 0.1,
                "tempo": 120.0
            },
            {
                "start_time": 33.8181818,
                "end_time": 34.2181818,
                "pitch": 34,
                "velocity": 80,
                "duration": 0.4,
                "tempo": 120.0
            },
            {
                "start_time": 34.2181818,
                "end_time": 34.4181818,
                "pitch": 34,
                "velocity": 25,
                "duration": 0.2,
                "tempo": 120.0
            },
            {
                "start_time": 34.4181818,
                "end_time": 34.8204545,
                "pitch": 33,
                "velocity": 80,
                "duration": 0.4022727,
                "tempo": 120.0
            },
            {
                "start_time": 34.8204545,
                "end_time": 34.9204545,
                "pitch": 29,
                "velocity": 80,
                "duration": 0.1,
                "tempo": 120.0
            },
            {
                "start_time": 34.9204545,
                "end_time": 35.0227273,
                "pitch": 29,
                "velocity": 25,
                "duration": 0.1022727,
                "tempo": 120.0
            },
            {
                "start_time": 35.0227273,
                "end_time": 35.2227273,
                "pitch": 34,
                "velocity": 80,
                "duration": 0.2,
                "tempo": 120.0
            },
            {
                "start_time": 35.2227273,
                "end_time": 35.4227273,
                "pitch": 34,
                "velocity": 40,
                "duration": 0.2,
                "tempo": 120.0
            },
            {
                "start_time": 35.4227273,
                "end_time": 35.8227273,
                "pitch": 33,
                "velocity": 80,
                "duration": 0.4,
                "tempo": 120.0
            },
            {
                "start_time": 35.8227273,
                "end_time": 36.0227273,
                "pitch": 29,
                "velocity": 80,
                "duration": 0.2,
                "tempo": 120.0
            },
            {
                "start_time": 36.0227273,
                "end_time": 36.2227273,
                "pitch": 29,
                "velocity": 40,
                "duration": 0.2,
                "tempo": 120.0
            },
            {
                "start_time": 36.2227273,
                "end_time": 36.6227273,
                "pitch": 34,
                "velocity": 80,
                "duration": 0.4,
                "tempo": 120.0
            },
            {
                "start_time": 36.625,
                "end_time": 36.825,
                "pitch": 34,
                "velocity": 25,
                "duration": 0.2,
                "tempo": 120.0
            },
            {
                "start_time": 36.825,
                "end_time": 37.2272727,
                "pitch": 33,
                "velocity": 80,
                "duration": 0.4022727,
                "tempo": 120.0
            },
            {
                "start_time": 37.2272727,
                "end_time": 37.3272727,
                "pitch": 29,
                "velocity": 80,
                "duration": 0.1,
                "tempo": 120.0
            },
            {
                "start_time": 37.3272727,
                "end_time": 37.4272727,
                "pitch": 29,
                "velocity": 25,
                "duration": 0.1,
                "tempo": 120.0
            },
            {
                "start_time": 37.4272727,
                "end_time": 37.6272727,
                "pitch": 34,
                "velocity": 80,
                "duration": 0.2,
                "tempo": 120.0
            },
            {
                "start_time": 37.6272727,
                "end_time": 37.8272727,
                "pitch": 34,
                "velocity": 40,
                "duration": 0.2,
                "tempo": 120.0
            },
            {
                "start_time": 37.8272727,
                "end_time": 38.2272727,
                "pitch": 33,
                "velocity": 80,
                "duration": 0.4,
                "tempo": 120.0
            },
            {
                "start_time": 38.2295455,
                "end_time": 38.4295455,
                "pitch": 29,
                "velocity": 80,
                "duration": 0.2,
                "tempo": 120.0
            },
            {
                "start_time": 38.4295455,
                "end_time": 38.6295455,
                "pitch": 29,
                "velocity": 40,
                "duration": 0.2,
                "tempo": 120.0
            },
            {
                "start_time": 38.6295455,
                "end_time": 39.0318182,
                "pitch": 36,
                "velocity": 80,
                "duration": 0.4022727,
                "tempo": 120.0
            },
            {
                "start_time": 39.0318182,
                "end_time": 39.2318182,
                "pitch": 36,
                "velocity": 25,
                "duration": 0.2,
                "tempo": 120.0
            },
            {
                "start_time": 39.2318182,
                "end_time": 39.4318182,
                "pitch": 35,
                "velocity": 80,
                "duration": 0.2,
                "tempo": 120.0
            },
            {
                "start_time": 30.7954545,
                "end_time": 39.4318182,
                "pitch": 40,
                "velocity": 80,
                "duration": 8.6363636,
                "tempo": 120.0
            },
            {
                "start_time": 39.4318182,
                "end_time": 39.6318182,
                "pitch": 36,
                "velocity": 80,
                "duration": 0.2,
                "tempo": 120.0
            },
            {
                "start_time": 39.6340909,
                "end_time": 39.7340909,
                "pitch": 29,
                "velocity": 80,
                "duration": 0.1,
                "tempo": 120.0
            },
            {
                "start_time": 39.7340909,
                "end_time": 39.8340909,
                "pitch": 29,
                "velocity": 25,
                "duration": 0.1,
                "tempo": 120.0
            },
            {
                "start_time": 39.8340909,
                "end_time": 40.0340909,
                "pitch": 36,
                "velocity": 80,
                "duration": 0.2,
                "tempo": 120.0
            },
            {
                "start_time": 40.0340909,
                "end_time": 40.2340909,
                "pitch": 36,
                "velocity": 40,
                "duration": 0.2,
                "tempo": 120.0
            },
            {
                "start_time": 40.2340909,
                "end_time": 40.4340909,
                "pitch": 35,
                "velocity": 80,
                "duration": 0.2,
                "tempo": 120.0
            },
            {
                "start_time": 39.4318182,
                "end_time": 40.4340909,
                "pitch": 40,
                "velocity": 80,
                "duration": 1.0022727,
                "tempo": 120.0
            },
            {
                "start_time": 40.4340909,
                "end_time": 40.6340909,
                "pitch": 36,
                "velocity": 80,
                "duration": 0.2,
                "tempo": 120.0
            },
            {
                "start_time": 40.6340909,
                "end_time": 40.7340909,
                "pitch": 29,
                "velocity": 80,
                "duration": 0.1,
                "tempo": 120.0
            },
            {
                "start_time": 40.7363636,
                "end_time": 40.8363636,
                "pitch": 29,
                "velocity": 25,
                "duration": 0.1,
                "tempo": 120.0
            },
            {
                "start_time": 40.8363636,
                "end_time": 40.9363636,
                "pitch": 29,
                "velocity": 80,
                "duration": 0.1,
                "tempo": 120.0
            },
            {
                "start_time": 40.9363636,
                "end_time": 41.0363636,
                "pitch": 29,
                "velocity": 25,
                "duration": 0.1,
                "tempo": 120.0
            },
            {
                "start_time": 41.0386364,
                "end_time": 41.4386364,
                "pitch": 29,
                "velocity": 80,
                "duration": 0.4,
                "tempo": 120.0
            },
            {
                "start_time": 41.4386364,
                "end_time": 41.8590909,
                "pitch": 29,
                "velocity": 32,
                "duration": 0.4204545,
                "tempo": 120.0
            },
            {
                "start_time": 41.8590909,
                "end_time": 42.2431818,
                "pitch": 33,
                "velocity": 80,
                "duration": 0.3840909,
                "tempo": 120.0
            },
            {
                "start_time": 42.2431818,
                "end_time": 42.6522727,
                "pitch": 34,
                "velocity": 80,
                "duration": 0.4090909,
                "tempo": 120.0
            },
            {
                "start_time": 43.4340909,
                "end_time": 44.2431818,
                "pitch": 46,
                "velocity": 80,
                "duration": 0.8090909,
                "tempo": 120.0
            },
            {
                "start_time": 44.2431818,
                "end_time": 44.4431818,
                "pitch": 41,
                "velocity": 80,
                "duration": 0.2,
                "tempo": 120.0
            },
            {
                "start_time": 44.4454545,
                "end_time": 44.6477273,
                "pitch": 41,
                "velocity": 40,
                "duration": 0.2022727,
                "tempo": 120.0
            },
            {
                "start_time": 44.6477273,
                "end_time": 45.4636364,
                "pitch": 41,
                "velocity": 80,
                "duration": 0.8159091,
                "tempo": 120.0
            },
            {
                "start_time": 45.4636364,
                "end_time": 45.6818182,
                "pitch": 41,
                "velocity": 80,
                "duration": 0.2181818,
                "tempo": 120.0
            },
            {
                "start_time": 45.6818182,
                "end_time": 47.0522727,
                "pitch": 34,
                "velocity": 80,
                "duration": 1.3704545,
                "tempo": 120.0
            },
            {
                "start_time": 47.0522727,
                "end_time": 48.3068182,
                "pitch": 34,
                "velocity": 80,
                "duration": 1.2545455,
                "tempo": 120.0
            },
            {
                "start_time": 48.3068182,
                "end_time": 49.5113636,
                "pitch": 34,
                "velocity": 80,
                "duration": 1.2045455,
                "tempo": 120.0
            },
            {
                "start_time": 49.5113636,
                "end_time": 50.7159091,
                "pitch": 34,
                "velocity": 80,
                "duration": 1.2045455,
                "tempo": 120.0
            },
            {
                "start_time": 50.7159091,
                "end_time": 51.9318182,
                "pitch": 41,
                "velocity": 80,
                "duration": 1.2159091,
                "tempo": 120.0
            },
            {
                "start_time": 51.9318182,
                "end_time": 53.1272727,
                "pitch": 29,
                "velocity": 80,
                "duration": 1.1954545,
                "tempo": 120.0
            },
            {
                "start_time": 53.1295455,
                "end_time": 54.3409091,
                "pitch": 46,
                "velocity": 80,
                "duration": 1.2113636,
                "tempo": 120.0
            },
            {
                "start_time": 54.3409091,
                "end_time": 55.5431818,
                "pitch": 34,
                "velocity": 80,
                "duration": 1.2022727,
                "tempo": 120.0
            },
            {
                "start_time": 55.5454545,
                "end_time": 56.7522727,
                "pitch": 29,
                "velocity": 80,
                "duration": 1.2068182,
                "tempo": 120.0
            },
            {
                "start_time": 56.7522727,
                "end_time": 57.9568182,
                "pitch": 41,
                "velocity": 80,
                "duration": 1.2045455,
                "tempo": 120.0
            },
            {
                "start_time": 57.9568182,
                "end_time": 58.3568182,
                "pitch": 34,
                "velocity": 80,
                "duration": 0.4,
                "tempo": 120.0
            },
            {
                "start_time": 58.3568182,
                "end_time": 58.5590909,
                "pitch": 34,
                "velocity": 25,
                "duration": 0.2022727,
                "tempo": 120.0
            },
            {
                "start_time": 58.5590909,
                "end_time": 58.7590909,
                "pitch": 29,
                "velocity": 80,
                "duration": 0.2,
                "tempo": 120.0
            },
            {
                "start_time": 58.7590909,
                "end_time": 58.9590909,
                "pitch": 31,
                "velocity": 80,
                "duration": 0.2,
                "tempo": 120.0
            },
            {
                "start_time": 58.9613636,
                "end_time": 59.1613636,
                "pitch": 33,
                "velocity": 80,
                "duration": 0.2,
                "tempo": 120.0
            },
            {
                "start_time": 59.1613636,
                "end_time": 59.5613636,
                "pitch": 34,
                "velocity": 80,
                "duration": 0.4,
                "tempo": 120.0
            },
            {
                "start_time": 59.5613636,
                "end_time": 59.7727273,
                "pitch": 29,
                "velocity": 80,
                "duration": 0.2113636,
                "tempo": 120.0
            },
            {
                "start_time": 59.7727273,
                "end_time": 59.9840909,
                "pitch": 29,
                "velocity": 25,
                "duration": 0.2113636,
                "tempo": 120.0
            },
            {
                "start_time": 59.9840909,
                "end_time": 60.1840909,
                "pitch": 29,
                "velocity": 80,
                "duration": 0.2,
                "tempo": 120.0
            },
            {
                "start_time": 60.1840909,
                "end_time": 60.3840909,
                "pitch": 29,
                "velocity": 25,
                "duration": 0.2,
                "tempo": 120.0
            },
            {
                "start_time": 60.3840909,
                "end_time": 60.7659091,
                "pitch": 36,
                "velocity": 80,
                "duration": 0.3818182,
                "tempo": 120.0
            },
            {
                "start_time": 60.7681818,
                "end_time": 60.9727273,
                "pitch": 36,
                "velocity": 25,
                "duration": 0.2045455,
                "tempo": 120.0
            },
            {
                "start_time": 60.9727273,
                "end_time": 61.1772727,
                "pitch": 31,
                "velocity": 80,
                "duration": 0.2045455,
                "tempo": 120.0
            },
            {
                "start_time": 61.1772727,
                "end_time": 61.3772727,
                "pitch": 33,
                "velocity": 80,
                "duration": 0.2,
                "tempo": 120.0
            },
            {
                "start_time": 61.3795455,
                "end_time": 61.5772727,
                "pitch": 34,
                "velocity": 80,
                "duration": 0.1977273,
                "tempo": 120.0
            },
            {
                "start_time": 61.5795455,
                "end_time": 61.9704545,
                "pitch": 36,
                "velocity": 80,
                "duration": 0.3909091,
                "tempo": 120.0
            },
            {
                "start_time": 61.9727273,
                "end_time": 62.1704545,
                "pitch": 31,
                "velocity": 80,
                "duration": 0.1977273,
                "tempo": 120.0
            },
            {
                "start_time": 62.1727273,
                "end_time": 62.3727273,
                "pitch": 31,
                "velocity": 25,
                "duration": 0.2,
                "tempo": 120.0
            },
            {
                "start_time": 62.3727273,
                "end_time": 62.5840909,
                "pitch": 31,
                "velocity": 80,
                "duration": 0.2113636,
                "tempo": 120.0
            },
            {
                "start_time": 62.5840909,
                "end_time": 62.7931818,
                "pitch": 31,
                "velocity": 25,
                "duration": 0.2090909,
                "tempo": 120.0
            },
            {
                "start_time": 62.7931818,
                "end_time": 63.1772727,
                "pitch": 41,
                "velocity": 80,
                "duration": 0.3840909,
                "tempo": 120.0
            },
            {
                "start_time": 63.1772727,
                "end_time": 63.3818182,
                "pitch": 41,
                "velocity": 25,
                "duration": 0.2045455,
                "tempo": 120.0
            },
            {
                "start_time": 63.3818182,
                "end_time": 63.5886364,
                "pitch": 38,
                "velocity": 80,
                "duration": 0.2068182,
                "tempo": 120.0
            },
            {
                "start_time": 63.5886364,
                "end_time": 63.7931818,
                "pitch": 39,
                "velocity": 80,
                "duration": 0.2045455,
                "tempo": 120.0
            },
            {
                "start_time": 40.4340909,
                "end_time": 63.9977273,
                "pitch": 40,
                "velocity": 80,
                "duration": 23.5636364,
                "tempo": 120.0
            },
            {
                "start_time": 63.7931818,
                "end_time": 63.9977273,
                "pitch": 40,
                "velocity": 80,
                "duration": 0.2045455,
                "tempo": 120.0
            },
            {
                "start_time": 63.9977273,
                "end_time": 64.3818182,
                "pitch": 41,
                "velocity": 80,
                "duration": 0.3840909,
                "tempo": 120.0
            },
            {
                "start_time": 64.3818182,
                "end_time": 64.5863636,
                "pitch": 41,
                "velocity": 25,
                "duration": 0.2045455,
                "tempo": 120.0
            },
            {
                "start_time": 64.5863636,
                "end_time": 64.7931818,
                "pitch": 41,
                "velocity": 80,
                "duration": 0.2068182,
                "tempo": 120.0
            },
            {
                "start_time": 64.7931818,
                "end_time": 64.9931818,
                "pitch": 43,
                "velocity": 80,
                "duration": 0.2,
                "tempo": 120.0
            },
            {
                "start_time": 64.9954545,
                "end_time": 65.1954545,
                "pitch": 45,
                "velocity": 80,
                "duration": 0.2,
                "tempo": 120.0
            },
            {
                "start_time": 65.1954545,
                "end_time": 65.3954545,
                "pitch": 46,
                "velocity": 80,
                "duration": 0.2,
                "tempo": 120.0
            },
            {
                "start_time": 65.3954545,
                "end_time": 65.5954545,
                "pitch": 46,
                "velocity": 25,
                "duration": 0.2,
                "tempo": 120.0
            },
            {
                "start_time": 65.5954545,
                "end_time": 65.8022727,
                "pitch": 46,
                "velocity": 16,
                "duration": 0.2068182,
                "tempo": 120.0
            },
            {
                "start_time": 65.8022727,
                "end_time": 66.0068182,
                "pitch": 46,
                "velocity": 16,
                "duration": 0.2045455,
                "tempo": 120.0
            },
            {
                "start_time": 66.0090909,
                "end_time": 66.2090909,
                "pitch": 29,
                "velocity": 80,
                "duration": 0.2,
                "tempo": 120.0
            },
            {
                "start_time": 66.2090909,
                "end_time": 66.4113636,
                "pitch": 29,
                "velocity": 25,
                "duration": 0.2022727,
                "tempo": 120.0
            },
            {
                "start_time": 66.4113636,
                "end_time": 66.6068182,
                "pitch": 34,
                "velocity": 80,
                "duration": 0.1954545,
                "tempo": 120.0
            },
            {
                "start_time": 66.6068182,
                "end_time": 66.8022727,
                "pitch": 34,
                "velocity": 25,
                "duration": 0.1954545,
                "tempo": 120.0
            },
            {
                "start_time": 66.8045455,
                "end_time": 67.2136364,
                "pitch": 34,
                "velocity": 25,
                "duration": 0.4090909,
                "tempo": 120.0
            },
            {
                "start_time": 67.2159091,
                "end_time": 67.6181818,
                "pitch": 34,
                "velocity": 25,
                "duration": 0.4022727,
                "tempo": 120.0
            },
            {
                "start_time": 67.6181818,
                "end_time": 68.0113636,
                "pitch": 34,
                "velocity": 80,
                "duration": 0.3931818,
                "tempo": 120.0
            },
            {
                "start_time": 68.0113636,
                "end_time": 68.2113636,
                "pitch": 34,
                "velocity": 25,
                "duration": 0.2,
                "tempo": 120.0
            },
            {
                "start_time": 68.2113636,
                "end_time": 68.6136364,
                "pitch": 33,
                "velocity": 80,
                "duration": 0.4022727,
                "tempo": 120.0
            },
            {
                "start_time": 68.6136364,
                "end_time": 68.7136364,
                "pitch": 29,
                "velocity": 80,
                "duration": 0.1,
                "tempo": 120.0
            },
            {
                "start_time": 68.7136364,
                "end_time": 68.8136364,
                "pitch": 29,
                "velocity": 25,
                "duration": 0.1,
                "tempo": 120.0
            },
            {
                "start_time": 68.8159091,
                "end_time": 69.0159091,
                "pitch": 34,
                "velocity": 80,
                "duration": 0.2,
                "tempo": 120.0
            },
            {
                "start_time": 69.0159091,
                "end_time": 69.2181818,
                "pitch": 34,
                "velocity": 40,
                "duration": 0.2022727,
                "tempo": 120.0
            },
            {
                "start_time": 69.2181818,
                "end_time": 69.6181818,
                "pitch": 33,
                "velocity": 80,
                "duration": 0.4,
                "tempo": 120.0
            },
            {
                "start_time": 69.6181818,
                "end_time": 69.8204545,
                "pitch": 29,
                "velocity": 80,
                "duration": 0.2022727,
                "tempo": 120.0
            },
            {
                "start_time": 69.8204545,
                "end_time": 70.0204545,
                "pitch": 29,
                "velocity": 40,
                "duration": 0.2,
                "tempo": 120.0
            },
            {
                "start_time": 70.0227273,
                "end_time": 70.4227273,
                "pitch": 34,
                "velocity": 80,
                "duration": 0.4,
                "tempo": 120.0
            },
            {
                "start_time": 70.4227273,
                "end_time": 70.6227273,
                "pitch": 34,
                "velocity": 25,
                "duration": 0.2,
                "tempo": 120.0
            },
            {
                "start_time": 70.6227273,
                "end_time": 71.0318182,
                "pitch": 33,
                "velocity": 80,
                "duration": 0.4090909,
                "tempo": 120.0
            },
            {
                "start_time": 71.0318182,
                "end_time": 71.1340909,
                "pitch": 29,
                "velocity": 80,
                "duration": 0.1022727,
                "tempo": 120.0
            },
            {
                "start_time": 71.1340909,
                "end_time": 71.2363636,
                "pitch": 29,
                "velocity": 25,
                "duration": 0.1022727,
                "tempo": 120.0
            },
            {
                "start_time": 71.2363636,
                "end_time": 71.4318182,
                "pitch": 34,
                "velocity": 80,
                "duration": 0.1954545,
                "tempo": 120.0
            },
            {
                "start_time": 71.4318182,
                "end_time": 71.6295455,
                "pitch": 34,
                "velocity": 40,
                "duration": 0.1977273,
                "tempo": 120.0
            },
            {
                "start_time": 71.6295455,
                "end_time": 72.0409091,
                "pitch": 33,
                "velocity": 80,
                "duration": 0.4113636,
                "tempo": 120.0
            },
            {
                "start_time": 72.0409091,
                "end_time": 72.2409091,
                "pitch": 29,
                "velocity": 80,
                "duration": 0.2,
                "tempo": 120.0
            },
            {
                "start_time": 72.2409091,
                "end_time": 72.4431818,
                "pitch": 29,
                "velocity": 40,
                "duration": 0.2022727,
                "tempo": 120.0
            },
            {
                "start_time": 72.4431818,
                "end_time": 72.8454545,
                "pitch": 36,
                "velocity": 80,
                "duration": 0.4022727,
                "tempo": 120.0
            },
            {
                "start_time": 72.8454545,
                "end_time": 73.0431818,
                "pitch": 36,
                "velocity": 25,
                "duration": 0.1977273,
                "tempo": 120.0
            },
            {
                "start_time": 73.0431818,
                "end_time": 73.2386364,
                "pitch": 35,
                "velocity": 80,
                "duration": 0.1954545,
                "tempo": 120.0
            },
            {
                "start_time": 73.2386364,
                "end_time": 73.4454545,
                "pitch": 36,
                "velocity": 80,
                "duration": 0.2068182,
                "tempo": 120.0
            },
            {
                "start_time": 73.4454545,
                "end_time": 73.5477273,
                "pitch": 29,
                "velocity": 80,
                "duration": 0.1022727,
                "tempo": 120.0
            },
            {
                "start_time": 73.5477273,
                "end_time": 73.65,
                "pitch": 29,
                "velocity": 25,
                "duration": 0.1022727,
                "tempo": 120.0
            },
            {
                "start_time": 73.65,
                "end_time": 73.85,
                "pitch": 36,
                "velocity": 80,
                "duration": 0.2,
                "tempo": 120.0
            },
            {
                "start_time": 73.85,
                "end_time": 74.05,
                "pitch": 36,
                "velocity": 40,
                "duration": 0.2,
                "tempo": 120.0
            },
            {
                "start_time": 74.0522727,
                "end_time": 74.2522727,
                "pitch": 35,
                "velocity": 80,
                "duration": 0.2,
                "tempo": 120.0
            },
            {
                "start_time": 73.2386364,
                "end_time": 74.2522727,
                "pitch": 40,
                "velocity": 80,
                "duration": 1.0136364,
                "tempo": 120.0
            },
            {
                "start_time": 74.2522727,
                "end_time": 74.4545455,
                "pitch": 36,
                "velocity": 80,
                "duration": 0.2022727,
                "tempo": 120.0
            },
            {
                "start_time": 74.4545455,
                "end_time": 74.5545455,
                "pitch": 29,
                "velocity": 80,
                "duration": 0.1,
                "tempo": 120.0
            },
            {
                "start_time": 74.5545455,
                "end_time": 74.6545455,
                "pitch": 29,
                "velocity": 25,
                "duration": 0.1,
                "tempo": 120.0
            },
            {
                "start_time": 74.6568182,
                "end_time": 74.7568182,
                "pitch": 29,
                "velocity": 80,
                "duration": 0.1,
                "tempo": 120.0
            },
            {
                "start_time": 74.7568182,
                "end_time": 74.8568182,
                "pitch": 29,
                "velocity": 25,
                "duration": 0.1,
                "tempo": 120.0
            },
            {
                "start_time": 74.8568182,
                "end_time": 75.0568182,
                "pitch": 36,
                "velocity": 80,
                "duration": 0.2,
                "tempo": 120.0
            },
            {
                "start_time": 75.0568182,
                "end_time": 75.2568182,
                "pitch": 38,
                "velocity": 80,
                "duration": 0.2,
                "tempo": 120.0
            },
            {
                "start_time": 75.2590909,
                "end_time": 75.4590909,
                "pitch": 36,
                "velocity": 80,
                "duration": 0.2,
                "tempo": 120.0
            },
            {
                "start_time": 75.4590909,
                "end_time": 75.6613636,
                "pitch": 34,
                "velocity": 80,
                "duration": 0.2022727,
                "tempo": 120.0
            },
            {
                "start_time": 75.6613636,
                "end_time": 75.8613636,
                "pitch": 33,
                "velocity": 80,
                "duration": 0.2,
                "tempo": 120.0
            },
            {
                "start_time": 75.8613636,
                "end_time": 76.0613636,
                "pitch": 31,
                "velocity": 80,
                "duration": 0.2,
                "tempo": 120.0
            },
            {
                "start_time": 76.0613636,
                "end_time": 76.8681818,
                "pitch": 28,
                "velocity": 80,
                "duration": 0.8068182,
                "tempo": 120.0
            },
            {
                "start_time": 76.8681818,
                "end_time": 76.9681818,
                "pitch": 29,
                "velocity": 80,
                "duration": 0.1,
                "tempo": 120.0
            },
            {
                "start_time": 76.9681818,
                "end_time": 77.0681818,
                "pitch": 29,
                "velocity": 40,
                "duration": 0.1,
                "tempo": 120.0
            },
            {
                "start_time": 77.0681818,
                "end_time": 77.1681818,
                "pitch": 29,
                "velocity": 80,
                "duration": 0.1,
                "tempo": 120.0
            },
            {
                "start_time": 77.1681818,
                "end_time": 77.2681818,
                "pitch": 29,
                "velocity": 40,
                "duration": 0.1,
                "tempo": 120.0
            },
            {
                "start_time": 77.2681818,
                "end_time": 77.6704545,
                "pitch": 34,
                "velocity": 80,
                "duration": 0.4022727,
                "tempo": 120.0
            },
            {
                "start_time": 77.6727273,
                "end_time": 77.8727273,
                "pitch": 34,
                "velocity": 25,
                "duration": 0.2,
                "tempo": 120.0
            },
            {
                "start_time": 77.8727273,
                "end_time": 78.2727273,
                "pitch": 33,
                "velocity": 80,
                "duration": 0.4,
                "tempo": 120.0
            },
            {
                "start_time": 78.275,
                "end_time": 78.375,
                "pitch": 29,
                "velocity": 80,
                "duration": 0.1,
                "tempo": 120.0
            },
            {
                "start_time": 78.375,
                "end_time": 78.475,
                "pitch": 29,
                "velocity": 25,
                "duration": 0.1,
                "tempo": 120.0
            },
            {
                "start_time": 78.475,
                "end_time": 78.6772727,
                "pitch": 34,
                "velocity": 80,
                "duration": 0.2022727,
                "tempo": 120.0
            },
            {
                "start_time": 78.6772727,
                "end_time": 78.8795455,
                "pitch": 34,
                "velocity": 40,
                "duration": 0.2022727,
                "tempo": 120.0
            },
            {
                "start_time": 78.8795455,
                "end_time": 79.2795455,
                "pitch": 33,
                "velocity": 80,
                "duration": 0.4,
                "tempo": 120.0
            },
            {
                "start_time": 79.2795455,
                "end_time": 79.4818182,
                "pitch": 29,
                "velocity": 80,
                "duration": 0.2022727,
                "tempo": 120.0
            },
            {
                "start_time": 79.4818182,
                "end_time": 79.6818182,
                "pitch": 29,
                "velocity": 40,
                "duration": 0.2,
                "tempo": 120.0
            },
            {
                "start_time": 79.6840909,
                "end_time": 80.0931818,
                "pitch": 34,
                "velocity": 80,
                "duration": 0.4090909,
                "tempo": 120.0
            },
            {
                "start_time": 80.0931818,
                "end_time": 80.2954545,
                "pitch": 34,
                "velocity": 25,
                "duration": 0.2022727,
                "tempo": 120.0
            },
            {
                "start_time": 80.2954545,
                "end_time": 80.6977273,
                "pitch": 33,
                "velocity": 80,
                "duration": 0.4022727,
                "tempo": 120.0
            },
            {
                "start_time": 80.6977273,
                "end_time": 80.7977273,
                "pitch": 29,
                "velocity": 80,
                "duration": 0.1,
                "tempo": 120.0
            },
            {
                "start_time": 80.7977273,
                "end_time": 80.8977273,
                "pitch": 29,
                "velocity": 25,
                "duration": 0.1,
                "tempo": 120.0
            },
            {
                "start_time": 80.8977273,
                "end_time": 81.1,
                "pitch": 34,
                "velocity": 80,
                "duration": 0.2022727,
                "tempo": 120.0
            },
            {
                "start_time": 81.1,
                "end_time": 81.3,
                "pitch": 34,
                "velocity": 40,
                "duration": 0.2,
                "tempo": 120.0
            },
            {
                "start_time": 81.3,
                "end_time": 81.7022727,
                "pitch": 33,
                "velocity": 80,
                "duration": 0.4022727,
                "tempo": 120.0
            },
            {
                "start_time": 81.7022727,
                "end_time": 81.9022727,
                "pitch": 29,
                "velocity": 80,
                "duration": 0.2,
                "tempo": 120.0
            },
            {
                "start_time": 81.9022727,
                "end_time": 82.1045455,
                "pitch": 29,
                "velocity": 40,
                "duration": 0.2022727,
                "tempo": 120.0
            },
            {
                "start_time": 82.1045455,
                "end_time": 82.5068182,
                "pitch": 36,
                "velocity": 80,
                "duration": 0.4022727,
                "tempo": 120.0
            },
            {
                "start_time": 82.5090909,
                "end_time": 82.7068182,
                "pitch": 36,
                "velocity": 25,
                "duration": 0.1977273,
                "tempo": 120.0
            },
            {
                "start_time": 82.7090909,
                "end_time": 82.9090909,
                "pitch": 35,
                "velocity": 80,
                "duration": 0.2,
                "tempo": 120.0
            },
            {
                "start_time": 74.2522727,
                "end_time": 82.9090909,
                "pitch": 40,
                "velocity": 80,
                "duration": 8.6568182,
                "tempo": 120.0
            },
            {
                "start_time": 82.9090909,
                "end_time": 83.1090909,
                "pitch": 36,
                "velocity": 80,
                "duration": 0.2,
                "tempo": 120.0
            },
            {
                "start_time": 83.1113636,
                "end_time": 83.2113636,
                "pitch": 29,
                "velocity": 80,
                "duration": 0.1,
                "tempo": 120.0
            },
            {
                "start_time": 83.2113636,
                "end_time": 83.3113636,
                "pitch": 29,
                "velocity": 25,
                "duration": 0.1,
                "tempo": 120.0
            },
            {
                "start_time": 83.3113636,
                "end_time": 83.5113636,
                "pitch": 36,
                "velocity": 80,
                "duration": 0.2,
                "tempo": 120.0
            },
            {
                "start_time": 83.5113636,
                "end_time": 83.7113636,
                "pitch": 36,
                "velocity": 40,
                "duration": 0.2,
                "tempo": 120.0
            },
            {
                "start_time": 83.7113636,
                "end_time": 83.9136364,
                "pitch": 35,
                "velocity": 80,
                "duration": 0.2022727,
                "tempo": 120.0
            },
            {
                "start_time": 82.9090909,
                "end_time": 83.9136364,
                "pitch": 40,
                "velocity": 80,
                "duration": 1.0045455,
                "tempo": 120.0
            },
            {
                "start_time": 83.9136364,
                "end_time": 84.1159091,
                "pitch": 36,
                "velocity": 80,
                "duration": 0.2022727,
                "tempo": 120.0
            },
            {
                "start_time": 84.1159091,
                "end_time": 84.2159091,
                "pitch": 29,
                "velocity": 80,
                "duration": 0.1,
                "tempo": 120.0
            },
            {
                "start_time": 84.2159091,
                "end_time": 84.3159091,
                "pitch": 29,
                "velocity": 25,
                "duration": 0.1,
                "tempo": 120.0
            },
            {
                "start_time": 84.3181818,
                "end_time": 84.4181818,
                "pitch": 29,
                "velocity": 80,
                "duration": 0.1,
                "tempo": 120.0
            },
            {
                "start_time": 84.4181818,
                "end_time": 84.5181818,
                "pitch": 29,
                "velocity": 25,
                "duration": 0.1,
                "tempo": 120.0
            },
            {
                "start_time": 84.5181818,
                "end_time": 84.9181818,
                "pitch": 29,
                "velocity": 80,
                "duration": 0.4,
                "tempo": 120.0
            },
            {
                "start_time": 84.9181818,
                "end_time": 85.3295455,
                "pitch": 29,
                "velocity": 32,
                "duration": 0.4113636,
                "tempo": 120.0
            },
            {
                "start_time": 85.3295455,
                "end_time": 85.7227273,
                "pitch": 33,
                "velocity": 80,
                "duration": 0.3931818,
                "tempo": 120.0
            },
            {
                "start_time": 85.7227273,
                "end_time": 86.125,
                "pitch": 34,
                "velocity": 80,
                "duration": 0.4022727,
                "tempo": 120.0
            },
            {
                "start_time": 86.9090909,
                "end_time": 87.7181818,
                "pitch": 46,
                "velocity": 80,
                "duration": 0.8090909,
                "tempo": 120.0
            },
            {
                "start_time": 87.7204545,
                "end_time": 87.9227273,
                "pitch": 41,
                "velocity": 80,
                "duration": 0.2022727,
                "tempo": 120.0
            },
            {
                "start_time": 87.9227273,
                "end_time": 88.1318182,
                "pitch": 41,
                "velocity": 40,
                "duration": 0.2090909,
                "tempo": 120.0
            },
            {
                "start_time": 88.1318182,
                "end_time": 88.3272727,
                "pitch": 41,
                "velocity": 80,
                "duration": 0.1954545,
                "tempo": 120.0
            }
        ]
    }
}