{
    "mood": "happy",
    "instruments": {
        "Vibraphone": [
            {
                "start_time": 0.0,
                "end_time": 0.1568182,
                "pitch": 70,
                "velocity": 80,
                "duration": 0.1568182,
                "tempo": 120.0
            },
            {
                "start_time": 0.1772727,
                "end_time": 0.7818182,
                "pitch": 75,
                "velocity": 80,
                "duration": 0.6045455,
                "tempo": 120.0
            },
            {
                "start_time": 0.8159091,
                "end_time": 1.0159091,
                "pitch": 75,
                "velocity": 80,
                "duration": 0.2,
                "tempo": 120.0
            },
            {
                "start_time": 1.05,
                "end_time": 1.4545455,
                "pitch": 75,
                "velocity": 80,
                "duration": 0.4045455,
                "tempo": 120.0
            },
            {
                "start_time": 1.4863636,
                "end_time": 1.8568182,
                "pitch": 70,
                "velocity": 80,
                "duration": 0.3704545,
                "tempo": 120.0
            },
            {
                "start_time": 1.8909091,
                "end_time": 2.5204545,
                "pitch": 75,
                "velocity": 80,
                "duration": 0.6295455,
                "tempo": 120.0
            },
            {
                "start_time": 2.5522727,
                "end_time": 2.7181818,
                "pitch": 75,
                "velocity": 80,
                "duration": 0.1659091,
                "tempo": 120.0
            },
            {
                "start_time": 2.7522727,
                "end_time": 3.15,
                "pitch": 75,
                "velocity": 80,
                "duration": 0.3977273,
                "tempo": 120.0
            },
            {
                "start_time": 3.1818182,
                "end_time": 3.5818182,
                "pitch": 70,
                "velocity": 80,
                "duration": 0.4,
                "tempo": 120.0
            },
            {
                "start_time": 3.6159091,
                "end_time": 3.9909091,
                "pitch": 75,
                "velocity": 80,
                "duration": 0.375,
                "tempo": 120.0
            },
            {
                "start_time": 4.025,
                "end_time": 4.4340909,
                "pitch": 79,
                "velocity": 80,
                "duration": 0.4090909,
                "tempo": 120.0
            },
            {
                "start_time": 4.4681818,
                "end_time": 4.8772727,
                "pitch": 77,
                "velocity": 80,
                "duration": 0.4090909,
                "tempo": 120.0
            },
            {
                "start_time": 4.9113636,
                "end_time": 5.3204545,
                "pitch": 75,
                "velocity": 80,
                "duration": 0.4090909,
                "tempo": 120.0
            },
            {
                "start_time": 5.3545455,
                "end_time": 6.6340909,
                "pitch": 82,
                "velocity": 80,
                "duration": 1.2795455,
                "tempo": 120.0
            },
            {
                "start_time": 6.6704545,
                "end_time": 7.0840909,
                "pitch": 82,
                "velocity": 80,
                "duration": 0.4136364,
                "tempo": 120.0
            },
            {
                "start_time": 7.1181818,
                "end_time": 7.725,
                "pitch": 84,
                "velocity": 80,
                "duration": 0.6068182,
                "tempo": 120.0
            },
            {
                "start_time": 7.7590909,
                "end_time": 7.9590909,
                "pitch": 82,
                "velocity": 80,
                "duration": 0.2,
                "tempo": 120.0
            },
            {
                "start_time": 7.9931818,
                "end_time": 8.3636364,
                "pitch": 80,
                "velocity": 80,
                "duration": 0.3704545,
                "tempo": 120.0
            },
            {
                "start_time": 8.3977273,
                "end_time": 8.8,
                "pitch": 84,
                "velocity": 80,
                "duration": 0.4022727,
                "tempo": 120.0
            },
            {
                "start_time": 8.8318182,
                "end_time": 9.4204545,
                "pitch": 82,
                "velocity": 80,
                "duration": 0.5886364,
                "tempo": 120.0
            },
            {
                "start_time": 9.4545455,
                "end_time": 9.65,
                "pitch": 80,
                "velocity": 80,
                "duration": 0.1954545,
                "tempo": 120.0
            },
            {
                "start_time": 9.6818182,
                "end_time": 10.075,
                "pitch": 79,
                "velocity": 80,
                "duration": 0.3931818,
                "tempo": 120.0
            },
            {
                "start_time": 10.1068182,
                "end_time": 10.4659091,
                "pitch": 79,
                "velocity": 80,
                "duration": 0.3590909,
                "tempo": 120.0
            },
            {
                "start_time": 10.5,
                "end_time": 11.1386364,
                "pitch": 80,
                "velocity": 80,
                "duration": 0.6386364,
                "tempo": 120.0
            },
            {
                "start_time": 11.1727273,
                "end_time": 11.3409091,
                "pitch": 74,
                "velocity": 80,
                "duration": 0.1681818,
                "tempo": 120.0
            },
            {
                "start_time": 11.375,
                "end_time": 11.7772727,
                "pitch": 74,
                "velocity": 80,
                "duration": 0.4022727,
                "tempo": 120.0
            },
            {
                "start_time": 11.8113636,
                "end_time": 12.2159091,
                "pitch": 74,
                "velocity": 80,
                "duration": 0.4045455,
                "tempo": 120.0
            },
            {
                "start_time": 12.25,
                "end_time": 13.5295455,
                "pitch": 82,
                "velocity": 80,
                "duration": 1.2795455,
                "tempo": 120.0
            },
            {
                "start_time": 13.5636364,
                "end_time": 13.9795455,
                "pitch": 82,
                "velocity": 80,
                "duration": 0.4159091,
                "tempo": 120.0
            },
            {
                "start_time": 14.0136364,
                "end_time": 14.6272727,
                "pitch": 84,
                "velocity": 80,
                "duration": 0.6136364,
                "tempo": 120.0
            },
            {
                "start_time": 14.6613636,
                "end_time": 14.8318182,
                "pitch": 82,
                "velocity": 80,
                "duration": 0.1704545,
                "tempo": 120.0
            },
            {
                "start_time": 14.8659091,
                "end_time": 15.275,
                "pitch": 80,
                "velocity": 80,
                "duration": 0.4090909,
                "tempo": 120.0
            },
            {
                "start_time": 15.3113636,
                "end_time": 15.7204545,
                "pitch": 84,
                "velocity": 80,
                "duration": 0.4090909,
                "tempo": 120.0
            },
            {
                "start_time": 15.7522727,
                "end_time": 16.35,
                "pitch": 82,
                "velocity": 80,
                "duration": 0.5977273,
                "tempo": 120.0
            },
            {
                "start_time": 16.3840909,
                "end_time": 16.5818182,
                "pitch": 80,
                "velocity": 80,
                "duration": 0.1977273,
                "tempo": 120.0
            },
            {
                "start_time": 16.6159091,
                "end_time": 16.9795455,
                "pitch": 79,
                "velocity": 80,
                "duration": 0.3636364,
                "tempo": 120.0
            },
            {
                "start_time": 17.0136364,
                "end_time": 17.4113636,
                "pitch": 79,
                "velocity": 80,
                "duration": 0.3977273,
                "tempo": 120.0
            },
            {
                "start_time": 17.4431818,
                "end_time": 18.0568182,
                "pitch": 80,
                "velocity": 80,
                "duration": 0.6136364,
                "tempo": 120.0
            },
            {
                "start_time": 18.0909091,
                "end_time": 18.2954545,
                "pitch": 74,
                "velocity": 80,
                "duration": 0.2045455,
                "tempo": 120.0
            },
            {
                "start_time": 18.3295455,
                "end_time": 18.7386364,
                "pitch": 74,
                "velocity": 80,
                "duration": 0.4090909,
                "tempo": 120.0
            },
            {
                "start_time": 18.7727273,
                "end_time": 19.1477273,
                "pitch": 74,
                "velocity": 80,
                "duration": 0.375,
                "tempo": 120.0
            },
            {
                "start_time": 19.1818182,
                "end_time": 20.8727273,
                "pitch": 75,
                "velocity": 80,
                "duration": 1.6909091,
                "tempo": 120.0
            },
            {
                "start_time": 20.9068182,
                "end_time": 22.6363636,
                "pitch": 87,
                "velocity": 80,
                "duration": 1.7295455,
                "tempo": 120.0
            },
            {
                "start_time": 22.6704545,
                "end_time": 24.3272727,
                "pitch": 86,
                "velocity": 80,
                "duration": 1.6568182,
                "tempo": 120.0
            },
            {
                "start_time": 24.3613636,
                "end_time": 24.9727273,
                "pitch": 84,
                "velocity": 80,
                "duration": 0.6113636,
                "tempo": 120.0
            },
            {
                "start_time": 25.0068182,
                "end_time": 25.2136364,
                "pitch": 80,
                "velocity": 80,
                "duration": 0.2068182,
                "tempo": 120.0
            },
            {
                "start_time": 25.2477273,
                "end_time": 25.6227273,
                "pitch": 80,
                "velocity": 80,
                "duration": 0.375,
                "tempo": 120.0
            },
            {
                "start_time": 25.6568182,
                "end_time": 26.0659091,
                "pitch": 80,
                "velocity": 80,
                "duration": 0.4090909,
                "tempo": 120.0
            },
            {
                "start_time": 26.1,
                "end_time": 26.9409091,
                "pitch": 80,
                "velocity": 80,
                "duration": 0.8409091,
                "tempo": 120.0
            },
            {
                "start_time": 26.9727273,
                "end_time": 27.3772727,
                "pitch": 86,
                "velocity": 80,
                "duration": 0.4045455,
                "tempo": 120.0
            },
            {
                "start_time": 27.4113636,
                "end_time": 27.7795455,
                "pitch": 84,
                "velocity": 80,
                "duration": 0.3681818,
                "tempo": 120.0
            },
            {
                "start_time": 27.8136364,
                "end_time": 28.4340909,
                "pitch": 82,
                "velocity": 80,
                "duration": 0.6204545,
                "tempo": 120.0
            },
            {
                "start_time": 28.4659091,
                "end_time": 28.6295455,
                "pitch": 79,
                "velocity": 80,
                "duration": 0.1636364,
                "tempo": 120.0
            },
            {
                "start_time": 28.6636364,
                "end_time": 29.0545455,
                "pitch": 79,
                "velocity": 80,
                "duration": 0.3909091,
                "tempo": 120.0
            },
            {
                "start_time": 29.0886364,
                "end_time": 29.4795455,
                "pitch": 79,
                "velocity": 80,
                "duration": 0.3909091,
                "tempo": 120.0
            },
            {
                "start_time": 29.5136364,
                "end_time": 30.3340909,
                "pitch": 79,
                "velocity": 80,
                "duration": 0.8204545,
                "tempo": 120.0
            },
            {
                "start_time": 30.3681818,
                "end_time": 30.7772727,
                "pitch": 70,
                "velocity": 80,
                "duration": 0.4090909,
                "tempo": 120.0
            },
            {
                "start_time": 30.8113636,
                "end_time": 31.2204545,
                "pitch": 72,
                "velocity": 80,
                "duration": 0.4090909,
                "tempo": 120.0
            },
            {
                "start_time": 31.2545455,
                "end_time": 31.8772727,
                "pitch": 70,
                "velocity": 80,
                "duration": 0.6227273,
                "tempo": 120.0
            },
            {
                "start_time": 31.9113636,
                "end_time": 32.0840909,
                "pitch": 80,
                "velocity": 80,
                "duration": 0.1727273,
                "tempo": 120.0
            },
            {
                "start_time": 32.1181818,
                "end_time": 32.5340909,
                "pitch": 80,
                "velocity": 80,
                "duration": 0.4159091,
                "tempo": 120.0
            },
            {
                "start_time": 32.5681818,
                "end_time": 32.9840909,
                "pitch": 80,
                "velocity": 80,
                "duration": 0.4159091,
                "tempo": 120.0
            },
            {
                "start_time": 33.0181818,
                "end_time": 33.8454545,
                "pitch": 80,
                "velocity": 80,
                "duration": 0.8272727,
                "tempo": 120.0
            },
            {
                "start_time": 33.8795455,
                "end_time": 34.2431818,
                "pitch": 70,
                "velocity": 80,
                "duration": 0.3636364,
                "tempo": 120.0
            },
            {
                "start_time": 34.2772727,
                "end_time": 34.675,
                "pitch": 72,
                "velocity": 80,
                "duration": 0.3977273,
                "tempo": 120.0
            },
            {
                "start_time": 34.7090909,
                "end_time": 35.3227273,
                "pitch": 70,
                "velocity": 80,
                "duration": 0.6136364,
                "tempo": 120.0
            },
            {
                "start_time": 35.3568182,
                "end_time": 35.5613636,
                "pitch": 79,
                "velocity": 80,
                "duration": 0.2045455,
                "tempo": 120.0
            },
            {
                "start_time": 35.5954545,
                "end_time": 36.0045455,
                "pitch": 79,
                "velocity": 80,
                "duration": 0.4090909,
                "tempo": 120.0
            },
            {
                "start_time": 36.0386364,
                "end_time": 36.4136364,
                "pitch": 79,
                "velocity": 80,
                "duration": 0.375,
                "tempo": 120.0
            },
            {
                "start_time": 36.4477273,
                "end_time": 37.2204545,
                "pitch": 79,
                "velocity": 80,
                "duration": 0.7727273,
                "tempo": 120.0
            },
            {
                "start_time": 38.1954545,
                "end_time": 39.925,
                "pitch": 87,
                "velocity": 80,
                "duration": 1.7295455,
                "tempo": 120.0
            },
            {
                "start_time": 39.9613636,
                "end_time": 41.6409091,
                "pitch": 86,
                "velocity": 80,
                "duration": 1.6795455,
                "tempo": 120.0
            },
            {
                "start_time": 41.675,
                "end_time": 42.2795455,
                "pitch": 84,
                "velocity": 80,
                "duration": 0.6045455,
                "tempo": 120.0
            },
            {
                "start_time": 42.3136364,
                "end_time": 42.5159091,
                "pitch": 80,
                "velocity": 80,
                "duration": 0.2022727,
                "tempo": 120.0
            },
            {
                "start_time": 42.55,
                "end_time": 42.9181818,
                "pitch": 80,
                "velocity": 80,
                "duration": 0.3681818,
                "tempo": 120.0
            },
            {
                "start_time": 42.9522727,
                "end_time": 43.3568182,
                "pitch": 80,
                "velocity": 80,
                "duration": 0.4045455,
                "tempo": 120.0
            },
            {
                "start_time": 43.3886364,
                "end_time": 44.2181818,
                "pitch": 80,
                "velocity": 80,
                "duration": 0.8295455,
                "tempo": 120.0
            },
            {
                "start_time": 44.2522727,
                "end_time": 44.65,
                "pitch": 86,
                "velocity": 80,
                "duration": 0.3977273,
                "tempo": 120.0
            },
            {
                "start_time": 44.6818182,
                "end_time": 45.0477273,
                "pitch": 84,
                "velocity": 80,
                "duration": 0.3659091,
                "tempo": 120.0
            },
            {
                "start_time": 45.0795455,
                "end_time": 45.7272727,
                "pitch": 82,
                "velocity": 80,
                "duration": 0.6477273,
                "tempo": 120.0
            },
            {
                "start_time": 45.7613636,
                "end_time": 45.9318182,
                "pitch": 79,
                "velocity": 80,
                "duration": 0.1704545,
                "tempo": 120.0
            },
            {
                "start_time": 45.9659091,
                "end_time": 46.375,
                "pitch": 79,
                "velocity": 80,
                "duration": 0.4090909,
                "tempo": 120.0
            },
            {
                "start_time": 46.4090909,
                "end_time": 46.8181818,
                "pitch": 79,
                "velocity": 80,
                "duration": 0.4090909,
                "tempo": 120.0
            },
            {
                "start_time": 46.8522727,
                "end_time": 47.6590909,
                "pitch": 79,
                "velocity": 80,
                "duration": 0.8068182,
                "tempo": 120.0
            },
            {
                "start_time": 47.6931818,
                "end_time": 48.0977273,
                "pitch": 70,
                "velocity": 80,
                "duration": 0.4045455,
                "tempo": 120.0
            },
            {
                "start_time": 48.1295455,
                "end_time": 48.5340909,
                "pitch": 72,
                "velocity": 80,
                "duration": 0.4045455,
                "tempo": 120.0
            },
            {
                "start_time": 48.5681818,
                "end_time": 49.375,
                "pitch": 70,
                "velocity": 80,
                "duration": 0.8068182,
                "tempo": 120.0
            },
            {
                "start_time": 49.4068182,
                "end_time": 50.2477273,
                "pitch": 80,
                "velocity": 80,
                "duration": 0.8409091,
                "tempo": 120.0
            },
            {
                "start_time": 50.2818182,
                "end_time": 51.1227273,
                "pitch": 79,
                "velocity": 80,
                "duration": 0.8409091,
                "tempo": 120.0
            },
            {
                "start_time": 51.1568182,
                "end_time": 51.9636364,
                "pitch": 77,
                "velocity": 80,
                "duration": 0.8068182,
                "tempo": 120.0
            },
            {
                "start_time": 51.9954545,
                "end_time": 52.8363636,
                "pitch": 75,
                "velocity": 80,
                "duration": 0.8409091,
                "tempo": 120.0
            },
            {
                "start_time": 52.8704545,
                "end_time": 53.2727273,
                "pitch": 82,
                "velocity": 80,
                "duration": 0.4022727,
                "tempo": 120.0
            },
            {
                "start_time": 53.3068182,
                "end_time": 53.6772727,
                "pitch": 79,
                "velocity": 80,
                "duration": 0.3704545,
                "tempo": 120.0
            },
            {
                "start_time": 53.7113636,
                "end_time": 54.0477273,
                "pitch": 75,
                "velocity": 80,
                "duration": 0.3363636,
                "tempo": 120.0
            }
        ],
        "Acoustic Bass": [
            {
                "start_time": 0.1772727,
                "end_time": 0.5795455,
                "pitch": 51,
                "velocity": 51,
                "duration": 0.4022727,
                "tempo": 120.0
            },
            {
                "start_time": 0.6136364,
                "end_time": 0.7818182,
                "pitch": 55,
                "velocity": 51,
                "duration": 0.1681818,
                "tempo": 120.0
            },
            {
                "start_time": 0.8159091,
                "end_time": 1.2181818,
                "pitch": 58,
                "velocity": 51,
                "duration": 0.4022727,
                "tempo": 120.0
            },
            {
                "start_time": 1.2522727,
                "end_time": 1.4545455,
                "pitch": 60,
                "velocity": 51,
                "duration": 0.2022727,
                "tempo": 120.0
            },
            {
                "start_time": 1.4863636,
                "end_time": 1.8568182,
                "pitch": 58,
                "velocity": 51,
                "duration": 0.3704545,
                "tempo": 120.0
            },
            {
                "start_time": 1.8909091,
                "end_time": 2.5204545,
                "pitch": 51,
                "velocity": 51,
                "duration": 0.6295455,
                "tempo": 120.0
            },
            {
                "start_time": 2.5522727,
                "end_time": 3.15,
                "pitch": 55,
                "velocity": 51,
                "duration": 0.5977273,
                "tempo": 120.0
            },
            {
                "start_time": 3.1818182,
                "end_time": 3.5818182,
                "pitch": 58,
                "velocity": 51,
                "duration": 0.4,
                "tempo": 120.0
            },
            {
                "start_time": 3.6159091,
                "end_time": 3.9909091,
                "pitch": 51,
                "velocity": 51,
                "duration": 0.375,
                "tempo": 120.0
            },
            {
                "start_time": 4.025,
                "end_time": 4.2295455,
                "pitch": 55,
                "velocity": 51,
                "duration": 0.2045455,
                "tempo": 120.0
            },
            {
                "start_time": 4.2636364,
                "end_time": 4.6727273,
                "pitch": 58,
                "velocity": 51,
                "duration": 0.4090909,
                "tempo": 120.0
            },
            {
                "start_time": 4.7068182,
                "end_time": 4.8772727,
                "pitch": 60,
                "velocity": 51,
                "duration": 0.1704545,
                "tempo": 120.0
            },
            {
                "start_time": 4.9113636,
                "end_time": 5.3204545,
                "pitch": 58,
                "velocity": 51,
                "duration": 0.4090909,
                "tempo": 120.0
            },
            {
                "start_time": 5.3545455,
                "end_time": 5.9772727,
                "pitch": 51,
                "velocity": 51,
                "duration": 0.6227273,
                "tempo": 120.0
            },
            {
                "start_time": 6.0113636,
                "end_time": 6.6340909,
                "pitch": 55,
                "velocity": 51,
                "duration": 0.6227273,
                "tempo": 120.0
            },
            {
                "start_time": 6.6704545,
                "end_time": 7.0840909,
                "pitch": 58,
                "velocity": 51,
                "duration": 0.4136364,
                "tempo": 120.0
            },
            {
                "start_time": 7.1181818,
                "end_time": 7.5227273,
                "pitch": 44,
                "velocity": 51,
                "duration": 0.4045455,
                "tempo": 120.0
            },
            {
                "start_time": 7.5568182,
                "end_time": 7.725,
                "pitch": 51,
                "velocity": 51,
                "duration": 0.1681818,
                "tempo": 120.0
            },
            {
                "start_time": 7.7590909,
                "end_time": 8.1613636,
                "pitch": 56,
                "velocity": 51,
                "duration": 0.4022727,
                "tempo": 120.0
            },
            {
                "start_time": 8.1954545,
                "end_time": 8.3636364,
                "pitch": 58,
                "velocity": 51,
                "duration": 0.1681818,
                "tempo": 120.0
            },
            {
                "start_time": 8.3977273,
                "end_time": 8.8,
                "pitch": 56,
                "velocity": 51,
                "duration": 0.4022727,
                "tempo": 120.0
            },
            {
                "start_time": 8.8318182,
                "end_time": 9.225,
                "pitch": 46,
                "velocity": 51,
                "duration": 0.3931818,
                "tempo": 120.0
            },
            {
                "start_time": 9.2568182,
                "end_time": 9.4204545,
                "pitch": 51,
                "velocity": 51,
                "duration": 0.1636364,
                "tempo": 120.0
            },
            {
                "start_time": 9.4545455,
                "end_time": 9.8454545,
                "pitch": 55,
                "velocity": 51,
                "duration": 0.3909091,
                "tempo": 120.0
            },
            {
                "start_time": 9.8795455,
                "end_time": 10.075,
                "pitch": 56,
                "velocity": 51,
                "duration": 0.1954545,
                "tempo": 120.0
            },
            {
                "start_time": 10.1068182,
                "end_time": 10.4659091,
                "pitch": 55,
                "velocity": 51,
                "duration": 0.3590909,
                "tempo": 120.0
            },
            {
                "start_time": 10.5,
                "end_time": 10.9045455,
                "pitch": 46,
                "velocity": 51,
                "duration": 0.4045455,
                "tempo": 120.0
            },
            {
                "start_time": 10.9386364,
                "end_time": 11.1386364,
                "pitch": 50,
                "velocity": 51,
                "duration": 0.2,
                "tempo": 120.0
            },
            {
                "start_time": 11.1727273,
                "end_time": 11.5431818,
                "pitch": 53,
                "velocity": 51,
                "duration": 0.3704545,
                "tempo": 120.0
            },
            {
                "start_time": 11.5772727,
                "end_time": 11.7772727,
                "pitch": 56,
                "velocity": 51,
                "duration": 0.2,
                "tempo": 120.0
            },
            {
                "start_time": 11.8113636,
                "end_time": 12.2159091,
                "pitch": 53,
                "velocity": 51,
                "duration": 0.4045455,
                "tempo": 120.0
            },
            {
                "start_time": 12.25,
                "end_time": 12.6295455,
                "pitch": 51,
                "velocity": 51,
                "duration": 0.3795455,
                "tempo": 120.0
            },
            {
                "start_time": 12.6636364,
                "end_time": 12.8727273,
                "pitch": 55,
                "velocity": 51,
                "duration": 0.2090909,
                "tempo": 120.0
            },
            {
                "start_time": 12.9068182,
                "end_time": 13.3227273,
                "pitch": 58,
                "velocity": 51,
                "duration": 0.4159091,
                "tempo": 120.0
            },
            {
                "start_time": 13.3568182,
                "end_time": 13.5295455,
                "pitch": 60,
                "velocity": 51,
                "duration": 0.1727273,
                "tempo": 120.0
            },
            {
                "start_time": 13.5636364,
                "end_time": 13.9795455,
                "pitch": 58,
                "velocity": 51,
                "duration": 0.4159091,
                "tempo": 120.0
            },
            {
                "start_time": 14.0136364,
                "end_time": 14.4227273,
                "pitch": 44,
                "velocity": 51,
                "duration": 0.4090909,
                "tempo": 120.0
            },
            {
                "start_time": 14.4568182,
                "end_time": 14.6272727,
                "pitch": 51,
                "velocity": 51,
                "duration": 0.1704545,
                "tempo": 120.0
            },
            {
                "start_time": 14.6613636,
                "end_time": 15.0704545,
                "pitch": 56,
                "velocity": 51,
                "duration": 0.4090909,
                "tempo": 120.0
            },
            {
                "start_time": 15.1045455,
                "end_time": 15.275,
                "pitch": 58,
                "velocity": 51,
                "duration": 0.1704545,
                "tempo": 120.0
            },
            {
                "start_time": 15.3113636,
                "end_time": 15.7204545,
                "pitch": 56,
                "velocity": 51,
                "duration": 0.4090909,
                "tempo": 120.0
            },
            {
                "start_time": 15.7522727,
                "end_time": 16.15,
                "pitch": 46,
                "velocity": 51,
                "duration": 0.3977273,
                "tempo": 120.0
            },
            {
                "start_time": 16.1840909,
                "end_time": 16.35,
                "pitch": 51,
                "velocity": 51,
                "duration": 0.1659091,
                "tempo": 120.0
            },
            {
                "start_time": 16.3840909,
                "end_time": 16.7818182,
                "pitch": 55,
                "velocity": 51,
                "duration": 0.3977273,
                "tempo": 120.0
            },
            {
                "start_time": 16.8136364,
                "end_time": 16.9795455,
                "pitch": 56,
                "velocity": 51,
                "duration": 0.1659091,
                "tempo": 120.0
            },
            {
                "start_time": 17.0136364,
                "end_time": 17.4113636,
                "pitch": 55,
                "velocity": 51,
                "duration": 0.3977273,
                "tempo": 120.0
            },
            {
                "start_time": 17.4431818,
                "end_time": 17.8522727,
                "pitch": 46,
                "velocity": 51,
                "duration": 0.4090909,
                "tempo": 120.0
            },
            {
                "start_time": 17.8863636,
                "end_time": 18.0568182,
                "pitch": 50,
                "velocity": 51,
                "duration": 0.1704545,
                "tempo": 120.0
            },
            {
                "start_time": 18.0909091,
                "end_time": 18.5,
                "pitch": 53,
                "velocity": 51,
                "duration": 0.4090909,
                "tempo": 120.0
            },
            {
                "start_time": 18.5340909,
                "end_time": 18.7386364,
                "pitch": 56,
                "velocity": 51,
                "duration": 0.2045455,
                "tempo": 120.0
            },
            {
                "start_time": 18.7727273,
                "end_time": 19.1477273,
                "pitch": 53,
                "velocity": 51,
                "duration": 0.375,
                "tempo": 120.0
            },
            {
                "start_time": 19.1818182,
                "end_time": 19.5795455,
                "pitch": 51,
                "velocity": 51,
                "duration": 0.3977273,
                "tempo": 120.0
            },
            {
                "start_time": 19.6136364,
                "end_time": 19.8113636,
                "pitch": 55,
                "velocity": 51,
                "duration": 0.1977273,
                "tempo": 120.0
            },
            {
                "start_time": 19.8454545,
                "end_time": 20.2090909,
                "pitch": 58,
                "velocity": 51,
                "duration": 0.3636364,
                "tempo": 120.0
            },
            {
                "start_time": 20.2431818,
                "end_time": 20.4409091,
                "pitch": 55,
                "velocity": 51,
                "duration": 0.1977273,
                "tempo": 120.0
            },
            {
                "start_time": 20.475,
                "end_time": 20.8727273,
                "pitch": 58,
                "velocity": 51,
                "duration": 0.3977273,
                "tempo": 120.0
            },
            {
                "start_time": 20.9068182,
                "end_time": 21.7363636,
                "pitch": 51,
                "velocity": 51,
                "duration": 0.8295455,
                "tempo": 120.0
            },
            {
                "start_time": 21.7704545,
                "end_time": 22.6363636,
                "pitch": 63,
                "velocity": 51,
                "duration": 0.8659091,
                "tempo": 120.0
            },
            {
                "start_time": 22.6704545,
                "end_time": 23.4659091,
                "pitch": 51,
                "velocity": 51,
                "duration": 0.7954545,
                "tempo": 120.0
            },
            {
                "start_time": 23.4977273,
                "end_time": 24.3272727,
                "pitch": 62,
                "velocity": 51,
                "duration": 0.8295455,
                "tempo": 120.0
            },
            {
                "start_time": 24.3613636,
                "end_time": 24.7681818,
                "pitch": 44,
                "velocity": 51,
                "duration": 0.4068182,
                "tempo": 120.0
            },
            {
                "start_time": 24.8022727,
                "end_time": 24.9727273,
                "pitch": 51,
                "velocity": 51,
                "duration": 0.1704545,
                "tempo": 120.0
            },
            {
                "start_time": 25.0068182,
                "end_time": 25.4181818,
                "pitch": 56,
                "velocity": 51,
                "duration": 0.4113636,
                "tempo": 120.0
            },
            {
                "start_time": 25.4522727,
                "end_time": 25.6227273,
                "pitch": 58,
                "velocity": 51,
                "duration": 0.1704545,
                "tempo": 120.0
            },
            {
                "start_time": 25.6568182,
                "end_time": 26.0659091,
                "pitch": 56,
                "velocity": 51,
                "duration": 0.4090909,
                "tempo": 120.0
            },
            {
                "start_time": 26.1,
                "end_time": 26.1340909,
                "pitch": 44,
                "velocity": 51,
                "duration": 0.0340909,
                "tempo": 120.0
            },
            {
                "start_time": 26.1659091,
                "end_time": 26.5022727,
                "pitch": 46,
                "velocity": 51,
                "duration": 0.3363636,
                "tempo": 120.0
            },
            {
                "start_time": 26.5363636,
                "end_time": 26.7045455,
                "pitch": 51,
                "velocity": 51,
                "duration": 0.1681818,
                "tempo": 120.0
            },
            {
                "start_time": 26.7386364,
                "end_time": 27.1409091,
                "pitch": 56,
                "velocity": 51,
                "duration": 0.4022727,
                "tempo": 120.0
            },
            {
                "start_time": 27.175,
                "end_time": 27.3772727,
                "pitch": 58,
                "velocity": 51,
                "duration": 0.2022727,
                "tempo": 120.0
            },
            {
                "start_time": 27.4113636,
                "end_time": 27.7795455,
                "pitch": 56,
                "velocity": 51,
                "duration": 0.3681818,
                "tempo": 120.0
            },
            {
                "start_time": 27.8136364,
                "end_time": 28.2045455,
                "pitch": 46,
                "velocity": 51,
                "duration": 0.3909091,
                "tempo": 120.0
            },
            {
                "start_time": 28.2386364,
                "end_time": 28.4340909,
                "pitch": 51,
                "velocity": 51,
                "duration": 0.1954545,
                "tempo": 120.0
            },
            {
                "start_time": 28.4659091,
                "end_time": 28.8272727,
                "pitch": 55,
                "velocity": 51,
                "duration": 0.3613636,
                "tempo": 120.0
            },
            {
                "start_time": 28.8590909,
                "end_time": 29.0545455,
                "pitch": 56,
                "velocity": 51,
                "duration": 0.1954545,
                "tempo": 120.0
            },
            {
                "start_time": 29.0886364,
                "end_time": 29.4795455,
                "pitch": 55,
                "velocity": 51,
                "duration": 0.3909091,
                "tempo": 120.0
            },
            {
                "start_time": 29.5136364,
                "end_time": 29.8886364,
                "pitch": 46,
                "velocity": 51,
                "duration": 0.375,
                "tempo": 120.0
            },
            {
                "start_time": 29.9227273,
                "end_time": 30.1295455,
                "pitch": 51,
                "velocity": 51,
                "duration": 0.2068182,
                "tempo": 120.0
            },
            {
                "start_time": 30.1636364,
                "end_time": 30.5727273,
                "pitch": 55,
                "velocity": 51,
                "duration": 0.4090909,
                "tempo": 120.0
            },
            {
                "start_time": 30.6068182,
                "end_time": 30.7772727,
                "pitch": 56,
                "velocity": 51,
                "duration": 0.1704545,
                "tempo": 120.0
            },
            {
                "start_time": 30.8113636,
                "end_time": 31.2204545,
                "pitch": 55,
                "velocity": 51,
                "duration": 0.4090909,
                "tempo": 120.0
            },
            {
                "start_time": 31.2545455,
                "end_time": 31.6681818,
                "pitch": 46,
                "velocity": 51,
                "duration": 0.4136364,
                "tempo": 120.0
            },
            {
                "start_time": 31.7045455,
                "end_time": 31.8772727,
                "pitch": 50,
                "velocity": 51,
                "duration": 0.1727273,
                "tempo": 120.0
            },
            {
                "start_time": 31.9113636,
                "end_time": 32.3272727,
                "pitch": 53,
                "velocity": 51,
                "duration": 0.4159091,
                "tempo": 120.0
            },
            {
                "start_time": 32.3613636,
                "end_time": 32.5340909,
                "pitch": 56,
                "velocity": 51,
                "duration": 0.1727273,
                "tempo": 120.0
            },
            {
                "start_time": 32.5681818,
                "end_time": 32.9840909,
                "pitch": 53,
                "velocity": 51,
                "duration": 0.4159091,
                "tempo": 120.0
            },
            {
                "start_time": 33.0181818,
                "end_time": 33.4159091,
                "pitch": 46,
                "velocity": 51,
                "duration": 0.3977273,
                "tempo": 120.0
            },
            {
                "start_time": 33.4477273,
                "end_time": 33.6136364,
                "pitch": 50,
                "velocity": 51,
                "duration": 0.1659091,
                "tempo": 120.0
            },
            {
                "start_time": 33.6477273,
                "end_time": 34.0454545,
                "pitch": 53,
                "velocity": 51,
                "duration": 0.3977273,
                "tempo": 120.0
            },
            {
                "start_time": 34.0795455,
                "end_time": 34.2431818,
                "pitch": 56,
                "velocity": 51,
                "duration": 0.1636364,
                "tempo": 120.0
            },
            {
                "start_time": 34.2772727,
                "end_time": 34.675,
                "pitch": 53,
                "velocity": 51,
                "duration": 0.3977273,
                "tempo": 120.0
            },
            {
                "start_time": 34.7090909,
                "end_time": 35.1181818,
                "pitch": 51,
                "velocity": 51,
                "duration": 0.4090909,
                "tempo": 120.0
            },
            {
                "start_time": 35.1522727,
                "end_time": 35.3227273,
                "pitch": 55,
                "velocity": 51,
                "duration": 0.1704545,
                "tempo": 120.0
            },
            {
                "start_time": 35.3568182,
                "end_time": 35.7659091,
                "pitch": 58,
                "velocity": 51,
                "duration": 0.4090909,
                "tempo": 120.0
            },
            {
                "start_time": 35.8,
                "end_time": 36.0045455,
                "pitch": 60,
                "velocity": 51,
                "duration": 0.2045455,
                "tempo": 120.0
            },
            {
                "start_time": 36.0386364,
                "end_time": 36.4136364,
                "pitch": 58,
                "velocity": 51,
                "duration": 0.375,
                "tempo": 120.0
            },
            {
                "start_time": 36.4477273,
                "end_time": 36.85,
                "pitch": 51,
                "velocity": 51,
                "duration": 0.4022727,
                "tempo": 120.0
            },
            {
                "start_time": 36.8840909,
                "end_time": 37.0863636,
                "pitch": 55,
                "velocity": 51,
                "duration": 0.2022727,
                "tempo": 120.0
            },
            {
                "start_time": 37.1204545,
                "end_time": 37.4909091,
                "pitch": 58,
                "velocity": 51,
                "duration": 0.3704545,
                "tempo": 120.0
            },
            {
                "start_time": 37.5227273,
                "end_time": 37.725,
                "pitch": 55,
                "velocity": 51,
                "duration": 0.2022727,
                "tempo": 120.0
            },
            {
                "start_time": 37.7590909,
                "end_time": 38.1613636,
                "pitch": 58,
                "velocity": 51,
                "duration": 0.4022727,
                "tempo": 120.0
            },
            {
                "start_time": 38.1954545,
                "end_time": 39.0272727,
                "pitch": 51,
                "velocity": 51,
                "duration": 0.8318182,
                "tempo": 120.0
            },
            {
                "start_time": 39.0613636,
                "end_time": 39.925,
                "pitch": 63,
                "velocity": 51,
                "duration": 0.8636364,
                "tempo": 120.0
            },
            {
                "start_time": 39.9613636,
                "end_time": 40.7681818,
                "pitch": 51,
                "velocity": 51,
                "duration": 0.8068182,
                "tempo": 120.0
            },
            {
                "start_time": 40.8022727,
                "end_time": 41.6409091,
                "pitch": 62,
                "velocity": 51,
                "duration": 0.8386364,
                "tempo": 120.0
            },
            {
                "start_time": 41.675,
                "end_time": 42.0795455,
                "pitch": 44,
                "velocity": 51,
                "duration": 0.4045455,
                "tempo": 120.0
            },
            {
                "start_time": 42.1113636,
                "end_time": 42.2795455,
                "pitch": 51,
                "velocity": 51,
                "duration": 0.1681818,
                "tempo": 120.0
            },
            {
                "start_time": 42.3136364,
                "end_time": 42.7181818,
                "pitch": 56,
                "velocity": 51,
                "duration": 0.4045455,
                "tempo": 120.0
            },
            {
                "start_time": 42.75,
                "end_time": 42.9181818,
                "pitch": 58,
                "velocity": 51,
                "duration": 0.1681818,
                "tempo": 120.0
            },
            {
                "start_time": 42.9522727,
                "end_time": 43.3568182,
                "pitch": 56,
                "velocity": 51,
                "duration": 0.4045455,
                "tempo": 120.0
            },
            {
                "start_time": 43.3886364,
                "end_time": 43.7863636,
                "pitch": 44,
                "velocity": 51,
                "duration": 0.3977273,
                "tempo": 120.0
            },
            {
                "start_time": 43.8204545,
                "end_time": 43.9863636,
                "pitch": 51,
                "velocity": 51,
                "duration": 0.1659091,
                "tempo": 120.0
            },
            {
                "start_time": 44.0204545,
                "end_time": 44.4181818,
                "pitch": 56,
                "velocity": 51,
                "duration": 0.3977273,
                "tempo": 120.0
            },
            {
                "start_time": 44.45,
                "end_time": 44.65,
                "pitch": 58,
                "velocity": 51,
                "duration": 0.2,
                "tempo": 120.0
            },
            {
                "start_time": 44.6818182,
                "end_time": 45.0477273,
                "pitch": 56,
                "velocity": 51,
                "duration": 0.3659091,
                "tempo": 120.0
            },
            {
                "start_time": 45.0795455,
                "end_time": 45.4886364,
                "pitch": 46,
                "velocity": 51,
                "duration": 0.4090909,
                "tempo": 120.0
            },
            {
                "start_time": 45.5227273,
                "end_time": 45.7272727,
                "pitch": 51,
                "velocity": 51,
                "duration": 0.2045455,
                "tempo": 120.0
            },
            {
                "start_time": 45.7613636,
                "end_time": 46.1363636,
                "pitch": 55,
                "velocity": 51,
                "duration": 0.375,
                "tempo": 120.0
            },
            {
                "start_time": 46.1704545,
                "end_time": 46.375,
                "pitch": 56,
                "velocity": 51,
                "duration": 0.2045455,
                "tempo": 120.0
            },
            {
                "start_time": 46.4090909,
                "end_time": 46.8181818,
                "pitch": 55,
                "velocity": 51,
                "duration": 0.4090909,
                "tempo": 120.0
            },
            {
                "start_time": 46.8522727,
                "end_time": 47.2227273,
                "pitch": 46,
                "velocity": 51,
                "duration": 0.3704545,
                "tempo": 120.0
            },
            {
                "start_time": 47.2568182,
                "end_time": 47.4590909,
                "pitch": 51,
                "velocity": 51,
                "duration": 0.2022727,
                "tempo": 120.0
            },
            {
                "start_time": 47.4909091,
                "end_time": 47.8954545,
                "pitch": 55,
                "velocity": 51,
                "duration": 0.4045455,
                "tempo": 120.0
            },
            {
                "start_time": 47.9295455,
                "end_time": 48.0977273,
                "pitch": 56,
                "velocity": 51,
                "duration": 0.1681818,
                "tempo": 120.0
            },
            {
                "start_time": 48.1295455,
                "end_time": 48.5340909,
                "pitch": 55,
                "velocity": 51,
                "duration": 0.4045455,
                "tempo": 120.0
            },
            {
                "start_time": 48.5681818,
                "end_time": 48.9704545,
                "pitch": 46,
                "velocity": 51,
                "duration": 0.4022727,
                "tempo": 120.0
            },
            {
                "start_time": 49.0045455,
                "end_time": 49.1727273,
                "pitch": 53,
                "velocity": 51,
                "duration": 0.1681818,
                "tempo": 120.0
            },
            {
                "start_time": 49.2068182,
                "end_time": 49.375,
                "pitch": 56,
                "velocity": 51,
                "duration": 0.1681818,
                "tempo": 120.0
            },
            {
                "start_time": 49.4068182,
                "end_time": 49.8113636,
                "pitch": 46,
                "velocity": 51,
                "duration": 0.4045455,
                "tempo": 120.0
            },
            {
                "start_time": 49.8454545,
                "end_time": 50.0454545,
                "pitch": 55,
                "velocity": 51,
                "duration": 0.2,
                "tempo": 120.0
            },
            {
                "start_time": 50.0795455,
                "end_time": 50.2477273,
                "pitch": 58,
                "velocity": 51,
                "duration": 0.1681818,
                "tempo": 120.0
            },
            {
                "start_time": 50.2818182,
                "end_time": 50.6863636,
                "pitch": 46,
                "velocity": 51,
                "duration": 0.4045455,
                "tempo": 120.0
            },
            {
                "start_time": 50.7181818,
                "end_time": 50.8863636,
                "pitch": 56,
                "velocity": 51,
                "duration": 0.1681818,
                "tempo": 120.0
            },
            {
                "start_time": 50.9204545,
                "end_time": 51.1227273,
                "pitch": 60,
                "velocity": 51,
                "duration": 0.2022727,
                "tempo": 120.0
            },
            {
                "start_time": 51.1568182,
                "end_time": 51.525,
                "pitch": 46,
                "velocity": 51,
                "duration": 0.3681818,
                "tempo": 120.0
            },
            {
                "start_time": 51.5590909,
                "end_time": 51.7613636,
                "pitch": 58,
                "velocity": 51,
                "duration": 0.2022727,
                "tempo": 120.0
            },
            {
                "start_time": 51.7954545,
                "end_time": 51.9636364,
                "pitch": 62,
                "velocity": 51,
                "duration": 0.1681818,
                "tempo": 120.0
            },
            {
                "start_time": 51.9954545,
                "end_time": 52.4,
                "pitch": 51,
                "velocity": 51,
                "duration": 0.4045455,
                "tempo": 120.0
            },
            {
                "start_time": 52.4340909,
                "end_time": 52.6022727,
                "pitch": 55,
                "velocity": 51,
                "duration": 0.1681818,
                "tempo": 120.0
            },
            {
                "start_time": 52.6340909,
                "end_time": 53.0386364,
                "pitch": 58,
                "velocity": 51,
                "duration": 0.4045455,
                "tempo": 120.0
            },
            {
                "start_time": 53.0727273,
                "end_time": 53.2727273,
                "pitch": 59,
                "velocity": 51,
                "duration": 0.2,
                "tempo": 120.0
            },
            {
                "start_time": 53.3068182,
                "end_time": 53.475,
                "pitch": 60,
                "velocity": 51,
                "duration": 0.1681818,
                "tempo": 120.0
            },
            {
                "start_time": 53.5090909,
                "end_time": 53.6772727,
                "pitch": 62,
                "velocity": 51,
                "duration": 0.1681818,
                "tempo": 120.0
            },
            {
                "start_time": 53.7113636,
                "end_time": 54.9886364,
                "pitch": 63,
                "velocity": 51,
                "duration": 1.2772727,
                "tempo": 120.0
            }
        ],
        "Clarinet": [
            {
                "start_time": 5.8045455,
                "end_time": 5.9772727,
                "pitch": 79,
                "velocity": 40,
                "duration": 0.1727273,
                "tempo": 120.0
            },
            {
                "start_time": 6.0113636,
                "end_time": 6.1840909,
                "pitch": 77,
                "velocity": 40,
                "duration": 0.1727273,
                "tempo": 120.0
            },
            {
                "start_time": 6.2204545,
                "end_time": 10.4659091,
                "pitch": 75,
                "velocity": 40,
                "duration": 4.2454545,
                "tempo": 120.0
            },
            {
                "start_time": 12.6636364,
                "end_time": 12.8727273,
                "pitch": 79,
                "velocity": 40,
                "duration": 0.2090909,
                "tempo": 120.0
            },
            {
                "start_time": 12.9068182,
                "end_time": 13.0795455,
                "pitch": 80,
                "velocity": 40,
                "duration": 0.1727273,
                "tempo": 120.0
            },
            {
                "start_time": 13.1136364,
                "end_time": 17.4113636,
                "pitch": 82,
                "velocity": 40,
                "duration": 4.2977273,
                "tempo": 120.0
            },
            {
                "start_time": 19.6136364,
                "end_time": 19.8113636,
                "pitch": 79,
                "velocity": 40,
                "duration": 0.1977273,
                "tempo": 120.0
            },
            {
                "start_time": 19.8454545,
                "end_time": 20.0113636,
                "pitch": 77,
                "velocity": 40,
                "duration": 0.1659091,
                "tempo": 120.0
            },
            {
                "start_time": 20.0431818,
                "end_time": 20.8727273,
                "pitch": 75,
                "velocity": 40,
                "duration": 0.8295455,
                "tempo": 120.0
            },
            {
                "start_time": 20.9068182,
                "end_time": 22.6363636,
                "pitch": 79,
                "velocity": 40,
                "duration": 1.7295455,
                "tempo": 120.0
            },
            {
                "start_time": 22.6704545,
                "end_time": 23.4659091,
                "pitch": 80,
                "velocity": 40,
                "duration": 0.7954545,
                "tempo": 120.0
            },
            {
                "start_time": 23.4977273,
                "end_time": 24.3272727,
                "pitch": 82,
                "velocity": 40,
                "duration": 0.8295455,
                "tempo": 120.0
            },
            {
                "start_time": 24.3613636,
                "end_time": 26.9409091,
                "pitch": 80,
                "velocity": 40,
                "duration": 2.5795455,
                "tempo": 120.0
            },
            {
                "start_time": 26.9727273,
                "end_time": 27.3772727,
                "pitch": 80,
                "velocity": 40,
                "duration": 0.4045455,
                "tempo": 120.0
            },
            {
                "start_time": 27.4113636,
                "end_time": 27.7795455,
                "pitch": 80,
                "velocity": 40,
                "duration": 0.3681818,
                "tempo": 120.0
            },
            {
                "start_time": 27.8136364,
                "end_time": 30.3340909,
                "pitch": 79,
                "velocity": 40,
                "duration": 2.5204545,
                "tempo": 120.0
            },
            {
                "start_time": 30.3681818,
                "end_time": 30.7772727,
                "pitch": 79,
                "velocity": 40,
                "duration": 0.4090909,
                "tempo": 120.0
            },
            {
                "start_time": 30.8113636,
                "end_time": 31.2204545,
                "pitch": 82,
                "velocity": 40,
                "duration": 0.4090909,
                "tempo": 120.0
            },
            {
                "start_time": 31.2545455,
                "end_time": 32.9840909,
                "pitch": 80,
                "velocity": 40,
                "duration": 1.7295455,
                "tempo": 120.0
            },
            {
                "start_time": 33.0181818,
                "end_time": 33.8454545,
                "pitch": 80,
                "velocity": 40,
                "duration": 0.8272727,
                "tempo": 120.0
            },
            {
                "start_time": 33.8795455,
                "end_time": 34.675,
                "pitch": 80,
                "velocity": 40,
                "duration": 0.7954545,
                "tempo": 120.0
            },
            {
                "start_time": 34.7090909,
                "end_time": 35.5613636,
                "pitch": 79,
                "velocity": 40,
                "duration": 0.8522727,
                "tempo": 120.0
            },
            {
                "start_time": 35.5954545,
                "end_time": 36.4136364,
                "pitch": 80,
                "velocity": 40,
                "duration": 0.8181818,
                "tempo": 120.0
            },
            {
                "start_time": 36.4477273,
                "end_time": 38.1613636,
                "pitch": 82,
                "velocity": 40,
                "duration": 1.7136364,
                "tempo": 120.0
            },
            {
                "start_time": 38.1954545,
                "end_time": 39.925,
                "pitch": 79,
                "velocity": 40,
                "duration": 1.7295455,
                "tempo": 120.0
            },
            {
                "start_time": 39.9613636,
                "end_time": 40.7681818,
                "pitch": 80,
                "velocity": 40,
                "duration": 0.8068182,
                "tempo": 120.0
            },
            {
                "start_time": 40.8022727,
                "end_time": 41.6409091,
                "pitch": 82,
                "velocity": 40,
                "duration": 0.8386364,
                "tempo": 120.0
            },
            {
                "start_time": 41.675,
                "end_time": 44.2181818,
                "pitch": 80,
                "velocity": 40,
                "duration": 2.5431818,
                "tempo": 120.0
            },
            {
                "start_time": 44.2522727,
                "end_time": 44.65,
                "pitch": 80,
                "velocity": 40,
                "duration": 0.3977273,
                "tempo": 120.0
            },
            {
                "start_time": 44.6818182,
                "end_time": 45.0477273,
                "pitch": 80,
                "velocity": 40,
                "duration": 0.3659091,
                "tempo": 120.0
            },
            {
                "start_time": 45.0795455,
                "end_time": 47.6590909,
                "pitch": 79,
                "velocity": 40,
                "duration": 2.5795455,
                "tempo": 120.0
            },
            {
                "start_time": 47.6931818,
                "end_time": 48.0977273,
                "pitch": 79,
                "velocity": 40,
                "duration": 0.4045455,
                "tempo": 120.0
            },
            {
                "start_time": 48.1295455,
                "end_time": 48.5340909,
                "pitch": 82,
                "velocity": 40,
                "duration": 0.4045455,
                "tempo": 120.0
            },
            {
                "start_time": 48.5681818,
                "end_time": 50.2477273,
                "pitch": 80,
                "velocity": 40,
                "duration": 1.6795455,
                "tempo": 120.0
            },
            {
                "start_time": 50.2818182,
                "end_time": 51.1227273,
                "pitch": 80,
                "velocity": 40,
                "duration": 0.8409091,
                "tempo": 120.0
            },
            {
                "start_time": 51.1568182,
                "end_time": 51.9636364,
                "pitch": 80,
                "velocity": 40,
                "duration": 0.8068182,
                "tempo": 120.0
            },
            {
                "start_time": 51.9954545,
                "end_time": 54.8545455,
                "pitch": 79,
                "velocity": 40,
                "duration": 2.8590909,
                "tempo": 120.0
            }
        ]
    }
}