{
    "mood": "happy",
    "instruments": {
        "Lead 2 (sawtooth)": [
            {
                "start_time": 62.675,
                "end_time": 62.8568182,
                "pitch": 79,
                "velocity": 101,
                "duration": 0.1818182,
                "tempo": 120.0
            },
            {
                "start_time": 62.8568182,
                "end_time": 63.0409091,
                "pitch": 74,
                "velocity": 101,
                "duration": 0.1840909,
                "tempo": 120.0
            },
            {
                "start_time": 63.0409091,
                "end_time": 63.225,
                "pitch": 81,
                "velocity": 101,
                "duration": 0.1840909,
                "tempo": 120.0
            },
            {
                "start_time": 63.225,
                "end_time": 63.425,
                "pitch": 74,
                "velocity": 101,
                "duration": 0.2,
                "tempo": 120.0
            },
            {
                "start_time": 63.425,
                "end_time": 63.6136364,
                "pitch": 83,
                "velocity": 101,
                "duration": 0.1886364,
                "tempo": 120.0
            },
            {
                "start_time": 63.6136364,
                "end_time": 63.8045455,
                "pitch": 74,
                "velocity": 101,
                "duration": 0.1909091,
                "tempo": 120.0
            },
            {
                "start_time": 63.8045455,
                "end_time": 63.9886364,
                "pitch": 79,
                "velocity": 101,
                "duration": 0.1840909,
                "tempo": 120.0
            },
            {
                "start_time": 63.9886364,
                "end_time": 64.1886364,
                "pitch": 74,
                "velocity": 101,
                "duration": 0.2,
                "tempo": 120.0
            },
            {
                "start_time": 64.1886364,
                "end_time": 64.3818182,
                "pitch": 76,
                "velocity": 101,
                "duration": 0.1931818,
                "tempo": 120.0
            },
            {
                "start_time": 64.3818182,
                "end_time": 64.5772727,
                "pitch": 71,
                "velocity": 101,
                "duration": 0.1954545,
                "tempo": 120.0
            },
            {
                "start_time": 64.5772727,
                "end_time": 64.7613636,
                "pitch": 78,
                "velocity": 101,
                "duration": 0.1840909,
                "tempo": 120.0
            },
            {
                "start_time": 64.7613636,
                "end_time": 64.9613636,
                "pitch": 71,
                "velocity": 101,
                "duration": 0.2,
                "tempo": 120.0
            },
            {
                "start_time": 64.9613636,
                "end_time": 65.15,
                "pitch": 79,
                "velocity": 101,
                "duration": 0.1886364,
                "tempo": 120.0
            },
            {
                "start_time": 65.15,
                "end_time": 65.3409091,
                "pitch": 71,
                "velocity": 101,
                "duration": 0.1909091,
                "tempo": 120.0
            },
            {
                "start_time": 65.3409091,
                "end_time": 65.525,
                "pitch": 76,
                "velocity": 101,
                "duration": 0.1840909,
                "tempo": 120.0
            },
            {
                "start_time": 65.525,
                "end_time": 65.7272727,
                "pitch": 71,
                "velocity": 101,
                "duration": 0.2022727,
                "tempo": 120.0
            },
            {
                "start_time": 65.7272727,
                "end_time": 65.9136364,
                "pitch": 72,
                "velocity": 101,
                "duration": 0.1863636,
                "tempo": 120.0
            },
            {
                "start_time": 65.9136364,
                "end_time": 66.1045455,
                "pitch": 67,
                "velocity": 101,
                "duration": 0.1909091,
                "tempo": 120.0
            },
            {
                "start_time": 66.1045455,
                "end_time": 66.2886364,
                "pitch": 74,
                "velocity": 101,
                "duration": 0.1840909,
                "tempo": 120.0
            },
            {
                "start_time": 66.2886364,
                "end_time": 66.4886364,
                "pitch": 67,
                "velocity": 101,
                "duration": 0.2,
                "tempo": 120.0
            },
            {
                "start_time": 66.4886364,
                "end_time": 66.6772727,
                "pitch": 76,
                "velocity": 101,
                "duration": 0.1886364,
                "tempo": 120.0
            },
            {
                "start_time": 66.6772727,
                "end_time": 66.8681818,
                "pitch": 67,
                "velocity": 101,
                "duration": 0.1909091,
                "tempo": 120.0
            },
            {
                "start_time": 66.8681818,
                "end_time": 67.0522727,
                "pitch": 72,
                "velocity": 101,
                "duration": 0.1840909,
                "tempo": 120.0
            },
            {
                "start_time": 67.0522727,
                "end_time": 67.2522727,
                "pitch": 67,
                "velocity": 101,
                "duration": 0.2,
                "tempo": 120.0
            },
            {
                "start_time": 67.2522727,
                "end_time": 67.4409091,
                "pitch": 71,
                "velocity": 101,
                "duration": 0.1886364,
                "tempo": 120.0
            },
            {
                "start_time": 67.4409091,
                "end_time": 67.6318182,
                "pitch": 62,
                "velocity": 101,
                "duration": 0.1909091,
                "tempo": 120.0
            },
            {
                "start_time": 67.6318182,
                "end_time": 67.8136364,
                "pitch": 69,
                "velocity": 101,
                "duration": 0.1818182,
                "tempo": 120.0
            },
            {
                "start_time": 67.8159091,
                "end_time": 68.0159091,
                "pitch": 62,
                "velocity": 101,
                "duration": 0.2,
                "tempo": 120.0
            },
            {
                "start_time": 68.0159091,
                "end_time": 68.2045455,
                "pitch": 67,
                "velocity": 101,
                "duration": 0.1886364,
                "tempo": 120.0
            },
            {
                "start_time": 68.2045455,
                "end_time": 68.3954545,
                "pitch": 62,
                "velocity": 101,
                "duration": 0.1909091,
                "tempo": 120.0
            },
            {
                "start_time": 68.3954545,
                "end_time": 68.5772727,
                "pitch": 66,
                "velocity": 101,
                "duration": 0.1818182,
                "tempo": 120.0
            },
            {
                "start_time": 68.5772727,
                "end_time": 68.7795455,
                "pitch": 62,
                "velocity": 101,
                "duration": 0.2022727,
                "tempo": 120.0
            },
            {
                "start_time": 68.7795455,
                "end_time": 68.9681818,
                "pitch": 79,
                "velocity": 101,
                "duration": 0.1886364,
                "tempo": 120.0
            },
            {
                "start_time": 68.9681818,
                "end_time": 69.1590909,
                "pitch": 74,
                "velocity": 101,
                "duration": 0.1909091,
                "tempo": 120.0
            },
            {
                "start_time": 69.1590909,
                "end_time": 69.3409091,
                "pitch": 81,
                "velocity": 101,
                "duration": 0.1818182,
                "tempo": 120.0
            },
            {
                "start_time": 69.3409091,
                "end_time": 69.5431818,
                "pitch": 74,
                "velocity": 101,
                "duration": 0.2022727,
                "tempo": 120.0
            },
            {
                "start_time": 69.5431818,
                "end_time": 69.7318182,
                "pitch": 83,
                "velocity": 101,
                "duration": 0.1886364,
                "tempo": 120.0
            },
            {
                "start_time": 69.7318182,
                "end_time": 69.9227273,
                "pitch": 74,
                "velocity": 101,
                "duration": 0.1909091,
                "tempo": 120.0
            },
            {
                "start_time": 69.9227273,
                "end_time": 70.1045455,
                "pitch": 79,
                "velocity": 101,
                "duration": 0.1818182,
                "tempo": 120.0
            },
            {
                "start_time": 70.1045455,
                "end_time": 70.3068182,
                "pitch": 74,
                "velocity": 101,
                "duration": 0.2022727,
                "tempo": 120.0
            },
            {
                "start_time": 70.3068182,
                "end_time": 70.5,
                "pitch": 76,
                "velocity": 101,
                "duration": 0.1931818,
                "tempo": 120.0
            },
            {
                "start_time": 70.5,
                "end_time": 70.6954545,
                "pitch": 71,
                "velocity": 101,
                "duration": 0.1954545,
                "tempo": 120.0
            },
            {
                "start_time": 70.6954545,
                "end_time": 70.8772727,
                "pitch": 78,
                "velocity": 101,
                "duration": 0.1818182,
                "tempo": 120.0
            },
            {
                "start_time": 70.8795455,
                "end_time": 71.0795455,
                "pitch": 71,
                "velocity": 101,
                "duration": 0.2,
                "tempo": 120.0
            },
            {
                "start_time": 71.0795455,
                "end_time": 71.2681818,
                "pitch": 79,
                "velocity": 101,
                "duration": 0.1886364,
                "tempo": 120.0
            },
            {
                "start_time": 71.2681818,
                "end_time": 71.4590909,
                "pitch": 71,
                "velocity": 101,
                "duration": 0.1909091,
                "tempo": 120.0
            },
            {
                "start_time": 71.4590909,
                "end_time": 71.6431818,
                "pitch": 76,
                "velocity": 101,
                "duration": 0.1840909,
                "tempo": 120.0
            },
            {
                "start_time": 71.6431818,
                "end_time": 71.8431818,
                "pitch": 71,
                "velocity": 101,
                "duration": 0.2,
                "tempo": 120.0
            },
            {
                "start_time": 71.8431818,
                "end_time": 72.0318182,
                "pitch": 72,
                "velocity": 101,
                "duration": 0.1886364,
                "tempo": 120.0
            },
            {
                "start_time": 72.0318182,
                "end_time": 72.2227273,
                "pitch": 67,
                "velocity": 101,
                "duration": 0.1909091,
                "tempo": 120.0
            },
            {
                "start_time": 72.2227273,
                "end_time": 72.4068182,
                "pitch": 74,
                "velocity": 101,
                "duration": 0.1840909,
                "tempo": 120.0
            },
            {
                "start_time": 72.4068182,
                "end_time": 72.6068182,
                "pitch": 67,
                "velocity": 101,
                "duration": 0.2,
                "tempo": 120.0
            },
            {
                "start_time": 72.6068182,
                "end_time": 72.7954545,
                "pitch": 76,
                "velocity": 101,
                "duration": 0.1886364,
                "tempo": 120.0
            },
            {
                "start_time": 72.7954545,
                "end_time": 72.9863636,
                "pitch": 67,
                "velocity": 101,
                "duration": 0.1909091,
                "tempo": 120.0
            },
            {
                "start_time": 72.9863636,
                "end_time": 73.1681818,
                "pitch": 72,
                "velocity": 101,
                "duration": 0.1818182,
                "tempo": 120.0
            },
            {
                "start_time": 73.1681818,
                "end_time": 73.3704545,
                "pitch": 67,
                "velocity": 101,
                "duration": 0.2022727,
                "tempo": 120.0
            },
            {
                "start_time": 73.3704545,
                "end_time": 73.5590909,
                "pitch": 71,
                "velocity": 101,
                "duration": 0.1886364,
                "tempo": 120.0
            },
            {
                "start_time": 73.5590909,
                "end_time": 73.7477273,
                "pitch": 62,
                "velocity": 101,
                "duration": 0.1886364,
                "tempo": 120.0
            },
            {
                "start_time": 73.75,
                "end_time": 73.9318182,
                "pitch": 69,
                "velocity": 101,
                "duration": 0.1818182,
                "tempo": 120.0
            },
            {
                "start_time": 73.9318182,
                "end_time": 74.1340909,
                "pitch": 62,
                "velocity": 101,
                "duration": 0.2022727,
                "tempo": 120.0
            },
            {
                "start_time": 74.1340909,
                "end_time": 74.3227273,
                "pitch": 67,
                "velocity": 101,
                "duration": 0.1886364,
                "tempo": 120.0
            },
            {
                "start_time": 74.3227273,
                "end_time": 74.5136364,
                "pitch": 62,
                "velocity": 101,
                "duration": 0.1909091,
                "tempo": 120.0
            },
            {
                "start_time": 74.5136364,
                "end_time": 74.6954545,
                "pitch": 66,
                "velocity": 101,
                "duration": 0.1818182,
                "tempo": 120.0
            },
            {
                "start_time": 74.6954545,
                "end_time": 74.8977273,
                "pitch": 62,
                "velocity": 101,
                "duration": 0.2022727,
                "tempo": 120.0
            }
        ],
        "Trumpet": [
            {
                "start_time": 25.9659091,
                "end_time": 27.4931818,
                "pitch": 28,
                "velocity": 80,
                "duration": 1.5272727,
                "tempo": 120.0
            },
            {
                "start_time": 27.4931818,
                "end_time": 29.0295455,
                "pitch": 27,
                "velocity": 80,
                "duration": 1.5363636,
                "tempo": 120.0
            },
            {
                "start_time": 29.0295455,
                "end_time": 30.5568182,
                "pitch": 28,
                "velocity": 80,
                "duration": 1.5272727,
                "tempo": 120.0
            },
            {
                "start_time": 30.5568182,
                "end_time": 32.0840909,
                "pitch": 24,
                "velocity": 80,
                "duration": 1.5272727,
                "tempo": 120.0
            },
            {
                "start_time": 32.0840909,
                "end_time": 33.6090909,
                "pitch": 28,
                "velocity": 80,
                "duration": 1.525,
                "tempo": 120.0
            },
            {
                "start_time": 33.6113636,
                "end_time": 35.1363636,
                "pitch": 27,
                "velocity": 80,
                "duration": 1.525,
                "tempo": 120.0
            },
            {
                "start_time": 35.1363636,
                "end_time": 36.6727273,
                "pitch": 28,
                "velocity": 80,
                "duration": 1.5363636,
                "tempo": 120.0
            },
            {
                "start_time": 36.675,
                "end_time": 38.2,
                "pitch": 24,
                "velocity": 80,
                "duration": 1.525,
                "tempo": 120.0
            }
        ],
        "Electric Piano 1": [
            {
                "start_time": 6.0886364,
                "end_time": 6.2840909,
                "pitch": 28,
                "velocity": 80,
                "duration": 0.1954545,
                "tempo": 120.0
            },
            {
                "start_time": 6.2840909,
                "end_time": 6.4772727,
                "pitch": 28,
                "velocity": 80,
                "duration": 0.1931818,
                "tempo": 120.0
            },
            {
                "start_time": 6.4772727,
                "end_time": 6.6613636,
                "pitch": 40,
                "velocity": 80,
                "duration": 0.1840909,
                "tempo": 120.0
            },
            {
                "start_time": 6.6613636,
                "end_time": 6.8613636,
                "pitch": 28,
                "velocity": 80,
                "duration": 0.2,
                "tempo": 120.0
            },
            {
                "start_time": 6.8613636,
                "end_time": 7.0522727,
                "pitch": 28,
                "velocity": 80,
                "duration": 0.1909091,
                "tempo": 120.0
            },
            {
                "start_time": 7.0522727,
                "end_time": 7.1386364,
                "pitch": 28,
                "velocity": 80,
                "duration": 0.0863636,
                "tempo": 120.0
            },
            {
                "start_time": 7.1386364,
                "end_time": 7.2409091,
                "pitch": 28,
                "velocity": 80,
                "duration": 0.1022727,
                "tempo": 120.0
            },
            {
                "start_time": 7.2409091,
                "end_time": 7.3409091,
                "pitch": 40,
                "velocity": 80,
                "duration": 0.1,
                "tempo": 120.0
            },
            {
                "start_time": 7.3409091,
                "end_time": 7.525,
                "pitch": 28,
                "velocity": 80,
                "duration": 0.1840909,
                "tempo": 120.0
            },
            {
                "start_time": 7.525,
                "end_time": 7.625,
                "pitch": 28,
                "velocity": 80,
                "duration": 0.1,
                "tempo": 120.0
            },
            {
                "start_time": 7.625,
                "end_time": 7.8159091,
                "pitch": 26,
                "velocity": 80,
                "duration": 0.1909091,
                "tempo": 120.0
            },
            {
                "start_time": 7.8159091,
                "end_time": 8.0045455,
                "pitch": 26,
                "velocity": 80,
                "duration": 0.1886364,
                "tempo": 120.0
            },
            {
                "start_time": 8.0045455,
                "end_time": 8.1886364,
                "pitch": 38,
                "velocity": 80,
                "duration": 0.1840909,
                "tempo": 120.0
            },
            {
                "start_time": 8.1886364,
                "end_time": 8.3886364,
                "pitch": 26,
                "velocity": 80,
                "duration": 0.2,
                "tempo": 120.0
            },
            {
                "start_time": 8.3886364,
                "end_time": 8.5795455,
                "pitch": 26,
                "velocity": 80,
                "duration": 0.1909091,
                "tempo": 120.0
            },
            {
                "start_time": 8.5795455,
                "end_time": 8.6636364,
                "pitch": 26,
                "velocity": 80,
                "duration": 0.0840909,
                "tempo": 120.0
            },
            {
                "start_time": 8.6659091,
                "end_time": 8.7681818,
                "pitch": 26,
                "velocity": 80,
                "duration": 0.1022727,
                "tempo": 120.0
            },
            {
                "start_time": 8.7681818,
                "end_time": 8.8681818,
                "pitch": 38,
                "velocity": 80,
                "duration": 0.1,
                "tempo": 120.0
            },
            {
                "start_time": 8.8681818,
                "end_time": 9.0522727,
                "pitch": 26,
                "velocity": 80,
                "duration": 0.1840909,
                "tempo": 120.0
            },
            {
                "start_time": 9.0522727,
                "end_time": 9.1522727,
                "pitch": 26,
                "velocity": 80,
                "duration": 0.1,
                "tempo": 120.0
            },
            {
                "start_time": 9.1522727,
                "end_time": 9.3409091,
                "pitch": 24,
                "velocity": 80,
                "duration": 0.1886364,
                "tempo": 120.0
            },
            {
                "start_time": 9.3431818,
                "end_time": 9.5318182,
                "pitch": 24,
                "velocity": 80,
                "duration": 0.1886364,
                "tempo": 120.0
            },
            {
                "start_time": 9.5318182,
                "end_time": 9.7159091,
                "pitch": 36,
                "velocity": 80,
                "duration": 0.1840909,
                "tempo": 120.0
            },
            {
                "start_time": 9.7159091,
                "end_time": 9.9159091,
                "pitch": 24,
                "velocity": 80,
                "duration": 0.2,
                "tempo": 120.0
            },
            {
                "start_time": 9.9159091,
                "end_time": 10.1090909,
                "pitch": 24,
                "velocity": 80,
                "duration": 0.1931818,
                "tempo": 120.0
            },
            {
                "start_time": 10.1090909,
                "end_time": 10.1977273,
                "pitch": 24,
                "velocity": 80,
                "duration": 0.0886364,
                "tempo": 120.0
            },
            {
                "start_time": 10.1977273,
                "end_time": 10.3045455,
                "pitch": 24,
                "velocity": 80,
                "duration": 0.1068182,
                "tempo": 120.0
            },
            {
                "start_time": 10.3045455,
                "end_time": 10.4045455,
                "pitch": 36,
                "velocity": 80,
                "duration": 0.1,
                "tempo": 120.0
            },
            {
                "start_time": 10.4045455,
                "end_time": 10.5886364,
                "pitch": 24,
                "velocity": 80,
                "duration": 0.1840909,
                "tempo": 120.0
            },
            {
                "start_time": 10.5886364,
                "end_time": 10.6886364,
                "pitch": 24,
                "velocity": 80,
                "duration": 0.1,
                "tempo": 120.0
            },
            {
                "start_time": 10.6886364,
                "end_time": 10.8795455,
                "pitch": 21,
                "velocity": 80,
                "duration": 0.1909091,
                "tempo": 120.0
            },
            {
                "start_time": 10.8795455,
                "end_time": 11.0681818,
                "pitch": 21,
                "velocity": 80,
                "duration": 0.1886364,
                "tempo": 120.0
            },
            {
                "start_time": 11.0681818,
                "end_time": 11.2522727,
                "pitch": 33,
                "velocity": 80,
                "duration": 0.1840909,
                "tempo": 120.0
            },
            {
                "start_time": 11.2522727,
                "end_time": 11.4522727,
                "pitch": 21,
                "velocity": 80,
                "duration": 0.2,
                "tempo": 120.0
            },
            {
                "start_time": 11.4522727,
                "end_time": 11.6431818,
                "pitch": 23,
                "velocity": 80,
                "duration": 0.1909091,
                "tempo": 120.0
            },
            {
                "start_time": 11.6431818,
                "end_time": 11.8318182,
                "pitch": 35,
                "velocity": 80,
                "duration": 0.1886364,
                "tempo": 120.0
            },
            {
                "start_time": 11.8318182,
                "end_time": 12.0159091,
                "pitch": 26,
                "velocity": 80,
                "duration": 0.1840909,
                "tempo": 120.0
            },
            {
                "start_time": 12.0159091,
                "end_time": 12.2159091,
                "pitch": 27,
                "velocity": 80,
                "duration": 0.2,
                "tempo": 120.0
            },
            {
                "start_time": 18.325,
                "end_time": 18.5136364,
                "pitch": 28,
                "velocity": 80,
                "duration": 0.1886364,
                "tempo": 120.0
            },
            {
                "start_time": 18.5136364,
                "end_time": 18.7022727,
                "pitch": 28,
                "velocity": 80,
                "duration": 0.1886364,
                "tempo": 120.0
            },
            {
                "start_time": 18.7022727,
                "end_time": 18.8863636,
                "pitch": 40,
                "velocity": 80,
                "duration": 0.1840909,
                "tempo": 120.0
            },
            {
                "start_time": 18.8863636,
                "end_time": 19.0863636,
                "pitch": 28,
                "velocity": 80,
                "duration": 0.2,
                "tempo": 120.0
            },
            {
                "start_time": 19.0863636,
                "end_time": 19.2818182,
                "pitch": 28,
                "velocity": 80,
                "duration": 0.1954545,
                "tempo": 120.0
            },
            {
                "start_time": 19.2818182,
                "end_time": 19.3704545,
                "pitch": 28,
                "velocity": 80,
                "duration": 0.0886364,
                "tempo": 120.0
            },
            {
                "start_time": 19.3704545,
                "end_time": 19.475,
                "pitch": 28,
                "velocity": 80,
                "duration": 0.1045455,
                "tempo": 120.0
            },
            {
                "start_time": 19.475,
                "end_time": 19.5772727,
                "pitch": 40,
                "velocity": 80,
                "duration": 0.1022727,
                "tempo": 120.0
            },
            {
                "start_time": 19.5772727,
                "end_time": 19.7590909,
                "pitch": 28,
                "velocity": 80,
                "duration": 0.1818182,
                "tempo": 120.0
            },
            {
                "start_time": 19.7613636,
                "end_time": 19.8613636,
                "pitch": 28,
                "velocity": 80,
                "duration": 0.1,
                "tempo": 120.0
            },
            {
                "start_time": 19.8613636,
                "end_time": 20.05,
                "pitch": 26,
                "velocity": 80,
                "duration": 0.1886364,
                "tempo": 120.0
            },
            {
                "start_time": 20.05,
                "end_time": 20.2386364,
                "pitch": 26,
                "velocity": 80,
                "duration": 0.1886364,
                "tempo": 120.0
            },
            {
                "start_time": 20.2386364,
                "end_time": 20.4227273,
                "pitch": 38,
                "velocity": 80,
                "duration": 0.1840909,
                "tempo": 120.0
            },
            {
                "start_time": 20.4227273,
                "end_time": 20.6227273,
                "pitch": 26,
                "velocity": 80,
                "duration": 0.2,
                "tempo": 120.0
            },
            {
                "start_time": 20.625,
                "end_time": 20.8136364,
                "pitch": 26,
                "velocity": 80,
                "duration": 0.1886364,
                "tempo": 120.0
            },
            {
                "start_time": 20.8136364,
                "end_time": 20.9,
                "pitch": 26,
                "velocity": 80,
                "duration": 0.0863636,
                "tempo": 120.0
            },
            {
                "start_time": 20.9,
                "end_time": 21.0022727,
                "pitch": 26,
                "velocity": 80,
                "duration": 0.1022727,
                "tempo": 120.0
            },
            {
                "start_time": 21.0022727,
                "end_time": 21.1022727,
                "pitch": 38,
                "velocity": 80,
                "duration": 0.1,
                "tempo": 120.0
            },
            {
                "start_time": 21.1022727,
                "end_time": 21.2863636,
                "pitch": 26,
                "velocity": 80,
                "duration": 0.1840909,
                "tempo": 120.0
            },
            {
                "start_time": 21.2863636,
                "end_time": 21.3863636,
                "pitch": 26,
                "velocity": 80,
                "duration": 0.1,
                "tempo": 120.0
            },
            {
                "start_time": 21.3863636,
                "end_time": 21.5772727,
                "pitch": 24,
                "velocity": 80,
                "duration": 0.1909091,
                "tempo": 120.0
            },
            {
                "start_time": 21.5772727,
                "end_time": 21.7659091,
                "pitch": 24,
                "velocity": 80,
                "duration": 0.1886364,
                "tempo": 120.0
            },
            {
                "start_time": 21.7659091,
                "end_time": 21.95,
                "pitch": 36,
                "velocity": 80,
                "duration": 0.1840909,
                "tempo": 120.0
            },
            {
                "start_time": 21.95,
                "end_time": 22.15,
                "pitch": 24,
                "velocity": 80,
                "duration": 0.2,
                "tempo": 120.0
            },
            {
                "start_time": 22.15,
                "end_time": 22.3409091,
                "pitch": 24,
                "velocity": 80,
                "duration": 0.1909091,
                "tempo": 120.0
            },
            {
                "start_time": 22.3409091,
                "end_time": 22.4272727,
                "pitch": 24,
                "velocity": 80,
                "duration": 0.0863636,
                "tempo": 120.0
            },
            {
                "start_time": 22.4272727,
                "end_time": 22.5295455,
                "pitch": 24,
                "velocity": 80,
                "duration": 0.1022727,
                "tempo": 120.0
            },
            {
                "start_time": 22.5295455,
                "end_time": 22.6295455,
                "pitch": 36,
                "velocity": 80,
                "duration": 0.1,
                "tempo": 120.0
            },
            {
                "start_time": 22.6295455,
                "end_time": 22.8136364,
                "pitch": 24,
                "velocity": 80,
                "duration": 0.1840909,
                "tempo": 120.0
            },
            {
                "start_time": 22.8136364,
                "end_time": 22.9136364,
                "pitch": 24,
                "velocity": 80,
                "duration": 0.1,
                "tempo": 120.0
            },
            {
                "start_time": 22.9136364,
                "end_time": 23.1045455,
                "pitch": 21,
                "velocity": 80,
                "duration": 0.1909091,
                "tempo": 120.0
            },
            {
                "start_time": 23.1045455,
                "end_time": 23.2931818,
                "pitch": 21,
                "velocity": 80,
                "duration": 0.1886364,
                "tempo": 120.0
            },
            {
                "start_time": 23.2931818,
                "end_time": 23.4772727,
                "pitch": 33,
                "velocity": 80,
                "duration": 0.1840909,
                "tempo": 120.0
            },
            {
                "start_time": 23.4772727,
                "end_time": 23.6772727,
                "pitch": 21,
                "velocity": 80,
                "duration": 0.2,
                "tempo": 120.0
            },
            {
                "start_time": 23.6772727,
                "end_time": 23.8681818,
                "pitch": 23,
                "velocity": 80,
                "duration": 0.1909091,
                "tempo": 120.0
            },
            {
                "start_time": 23.8681818,
                "end_time": 24.0568182,
                "pitch": 35,
                "velocity": 80,
                "duration": 0.1886364,
                "tempo": 120.0
            },
            {
                "start_time": 24.0568182,
                "end_time": 24.2409091,
                "pitch": 26,
                "velocity": 80,
                "duration": 0.1840909,
                "tempo": 120.0
            },
            {
                "start_time": 24.2409091,
                "end_time": 24.4409091,
                "pitch": 27,
                "velocity": 80,
                "duration": 0.2,
                "tempo": 120.0
            },
            {
                "start_time": 24.4409091,
                "end_time": 24.6340909,
                "pitch": 28,
                "velocity": 80,
                "duration": 0.1931818,
                "tempo": 120.0
            },
            {
                "start_time": 24.6363636,
                "end_time": 24.8295455,
                "pitch": 28,
                "velocity": 64,
                "duration": 0.1931818,
                "tempo": 120.0
            },
            {
                "start_time": 24.8295455,
                "end_time": 25.0136364,
                "pitch": 28,
                "velocity": 51,
                "duration": 0.1840909,
                "tempo": 120.0
            },
            {
                "start_time": 25.0136364,
                "end_time": 25.2136364,
                "pitch": 28,
                "velocity": 40,
                "duration": 0.2,
                "tempo": 120.0
            },
            {
                "start_time": 25.2136364,
                "end_time": 25.3977273,
                "pitch": 28,
                "velocity": 32,
                "duration": 0.1840909,
                "tempo": 120.0
            },
            {
                "start_time": 25.3977273,
                "end_time": 25.5818182,
                "pitch": 28,
                "velocity": 25,
                "duration": 0.1840909,
                "tempo": 120.0
            },
            {
                "start_time": 25.5818182,
                "end_time": 25.7659091,
                "pitch": 28,
                "velocity": 20,
                "duration": 0.1840909,
                "tempo": 120.0
            },
            {
                "start_time": 25.7659091,
                "end_time": 25.9659091,
                "pitch": 28,
                "velocity": 16,
                "duration": 0.2,
                "tempo": 120.0
            },
            {
                "start_time": 38.2022727,
                "end_time": 38.3909091,
                "pitch": 28,
                "velocity": 80,
                "duration": 0.1886364,
                "tempo": 120.0
            },
            {
                "start_time": 38.3909091,
                "end_time": 38.5795455,
                "pitch": 28,
                "velocity": 80,
                "duration": 0.1886364,
                "tempo": 120.0
            },
            {
                "start_time": 38.5795455,
                "end_time": 38.7636364,
                "pitch": 40,
                "velocity": 80,
                "duration": 0.1840909,
                "tempo": 120.0
            },
            {
                "start_time": 38.7636364,
                "end_time": 38.9636364,
                "pitch": 28,
                "velocity": 80,
                "duration": 0.2,
                "tempo": 120.0
            },
            {
                "start_time": 38.9636364,
                "end_time": 39.1590909,
                "pitch": 28,
                "velocity": 80,
                "duration": 0.1954545,
                "tempo": 120.0
            },
            {
                "start_time": 39.1590909,
                "end_time": 39.2477273,
                "pitch": 28,
                "velocity": 80,
                "duration": 0.0886364,
                "tempo": 120.0
            },
            {
                "start_time": 39.2477273,
                "end_time": 39.3522727,
                "pitch": 28,
                "velocity": 80,
                "duration": 0.1045455,
                "tempo": 120.0
            },
            {
                "start_time": 39.3522727,
                "end_time": 39.45,
                "pitch": 40,
                "velocity": 80,
                "duration": 0.0977273,
                "tempo": 120.0
            },
            {
                "start_time": 39.45,
                "end_time": 39.6295455,
                "pitch": 28,
                "velocity": 80,
                "duration": 0.1795455,
                "tempo": 120.0
            },
            {
                "start_time": 39.6295455,
                "end_time": 39.7272727,
                "pitch": 28,
                "velocity": 80,
                "duration": 0.0977273,
                "tempo": 120.0
            },
            {
                "start_time": 39.7272727,
                "end_time": 39.9227273,
                "pitch": 26,
                "velocity": 80,
                "duration": 0.1954545,
                "tempo": 120.0
            },
            {
                "start_time": 39.9227273,
                "end_time": 40.1159091,
                "pitch": 26,
                "velocity": 80,
                "duration": 0.1931818,
                "tempo": 120.0
            },
            {
                "start_time": 40.1159091,
                "end_time": 40.3,
                "pitch": 38,
                "velocity": 80,
                "duration": 0.1840909,
                "tempo": 120.0
            },
            {
                "start_time": 40.3,
                "end_time": 40.5,
                "pitch": 26,
                "velocity": 80,
                "duration": 0.2,
                "tempo": 120.0
            },
            {
                "start_time": 40.5022727,
                "end_time": 40.6909091,
                "pitch": 26,
                "velocity": 80,
                "duration": 0.1886364,
                "tempo": 120.0
            },
            {
                "start_time": 40.6909091,
                "end_time": 40.7772727,
                "pitch": 26,
                "velocity": 80,
                "duration": 0.0863636,
                "tempo": 120.0
            },
            {
                "start_time": 40.7772727,
                "end_time": 40.8795455,
                "pitch": 26,
                "velocity": 80,
                "duration": 0.1022727,
                "tempo": 120.0
            },
            {
                "start_time": 40.8795455,
                "end_time": 40.9772727,
                "pitch": 38,
                "velocity": 80,
                "duration": 0.0977273,
                "tempo": 120.0
            },
            {
                "start_time": 40.9772727,
                "end_time": 41.1568182,
                "pitch": 26,
                "velocity": 80,
                "duration": 0.1795455,
                "tempo": 120.0
            },
            {
                "start_time": 41.1568182,
                "end_time": 41.2545455,
                "pitch": 26,
                "velocity": 80,
                "duration": 0.0977273,
                "tempo": 120.0
            },
            {
                "start_time": 41.2545455,
                "end_time": 41.45,
                "pitch": 24,
                "velocity": 80,
                "duration": 0.1954545,
                "tempo": 120.0
            },
            {
                "start_time": 41.45,
                "end_time": 41.6431818,
                "pitch": 24,
                "velocity": 80,
                "duration": 0.1931818,
                "tempo": 120.0
            },
            {
                "start_time": 41.6431818,
                "end_time": 41.8272727,
                "pitch": 36,
                "velocity": 80,
                "duration": 0.1840909,
                "tempo": 120.0
            },
            {
                "start_time": 41.8272727,
                "end_time": 42.0272727,
                "pitch": 24,
                "velocity": 80,
                "duration": 0.2,
                "tempo": 120.0
            },
            {
                "start_time": 42.0272727,
                "end_time": 42.2181818,
                "pitch": 24,
                "velocity": 80,
                "duration": 0.1909091,
                "tempo": 120.0
            },
            {
                "start_time": 42.2181818,
                "end_time": 42.3045455,
                "pitch": 24,
                "velocity": 80,
                "duration": 0.0863636,
                "tempo": 120.0
            },
            {
                "start_time": 42.3045455,
                "end_time": 42.4068182,
                "pitch": 24,
                "velocity": 80,
                "duration": 0.1022727,
                "tempo": 120.0
            },
            {
                "start_time": 42.4068182,
                "end_time": 42.5068182,
                "pitch": 36,
                "velocity": 80,
                "duration": 0.1,
                "tempo": 120.0
            },
            {
                "start_time": 42.5068182,
                "end_time": 42.6909091,
                "pitch": 24,
                "velocity": 80,
                "duration": 0.1840909,
                "tempo": 120.0
            },
            {
                "start_time": 42.6909091,
                "end_time": 42.7909091,
                "pitch": 24,
                "velocity": 80,
                "duration": 0.1,
                "tempo": 120.0
            },
            {
                "start_time": 42.7909091,
                "end_time": 42.9818182,
                "pitch": 21,
                "velocity": 80,
                "duration": 0.1909091,
                "tempo": 120.0
            },
            {
                "start_time": 42.9818182,
                "end_time": 43.1704545,
                "pitch": 21,
                "velocity": 80,
                "duration": 0.1886364,
                "tempo": 120.0
            },
            {
                "start_time": 43.1704545,
                "end_time": 43.3545455,
                "pitch": 33,
                "velocity": 80,
                "duration": 0.1840909,
                "tempo": 120.0
            },
            {
                "start_time": 43.3545455,
                "end_time": 43.5545455,
                "pitch": 21,
                "velocity": 80,
                "duration": 0.2,
                "tempo": 120.0
            },
            {
                "start_time": 43.5545455,
                "end_time": 43.7454545,
                "pitch": 23,
                "velocity": 80,
                "duration": 0.1909091,
                "tempo": 120.0
            },
            {
                "start_time": 43.7454545,
                "end_time": 43.9340909,
                "pitch": 35,
                "velocity": 80,
                "duration": 0.1886364,
                "tempo": 120.0
            },
            {
                "start_time": 43.9340909,
                "end_time": 44.1181818,
                "pitch": 26,
                "velocity": 80,
                "duration": 0.1840909,
                "tempo": 120.0
            },
            {
                "start_time": 44.1181818,
                "end_time": 44.3181818,
                "pitch": 27,
                "velocity": 80,
                "duration": 0.2,
                "tempo": 120.0
            },
            {
                "start_time": 44.3181818,
                "end_time": 44.5068182,
                "pitch": 24,
                "velocity": 80,
                "duration": 0.1886364,
                "tempo": 120.0
            },
            {
                "start_time": 44.5090909,
                "end_time": 44.6977273,
                "pitch": 24,
                "velocity": 80,
                "duration": 0.1886364,
                "tempo": 120.0
            },
            {
                "start_time": 44.6977273,
                "end_time": 44.8818182,
                "pitch": 36,
                "velocity": 80,
                "duration": 0.1840909,
                "tempo": 120.0
            },
            {
                "start_time": 44.8818182,
                "end_time": 45.0818182,
                "pitch": 24,
                "velocity": 80,
                "duration": 0.2,
                "tempo": 120.0
            },
            {
                "start_time": 45.0818182,
                "end_time": 45.2704545,
                "pitch": 24,
                "velocity": 80,
                "duration": 0.1886364,
                "tempo": 120.0
            },
            {
                "start_time": 45.2727273,
                "end_time": 45.3568182,
                "pitch": 24,
                "velocity": 80,
                "duration": 0.0840909,
                "tempo": 120.0
            },
            {
                "start_time": 45.3568182,
                "end_time": 45.4613636,
                "pitch": 24,
                "velocity": 80,
                "duration": 0.1045455,
                "tempo": 120.0
            },
            {
                "start_time": 45.4613636,
                "end_time": 45.5613636,
                "pitch": 36,
                "velocity": 80,
                "duration": 0.1,
                "tempo": 120.0
            },
            {
                "start_time": 45.5613636,
                "end_time": 45.7454545,
                "pitch": 24,
                "velocity": 80,
                "duration": 0.1840909,
                "tempo": 120.0
            },
            {
                "start_time": 45.7454545,
                "end_time": 45.8454545,
                "pitch": 24,
                "velocity": 80,
                "duration": 0.1,
                "tempo": 120.0
            },
            {
                "start_time": 45.8454545,
                "end_time": 46.0340909,
                "pitch": 23,
                "velocity": 80,
                "duration": 0.1886364,
                "tempo": 120.0
            },
            {
                "start_time": 46.0340909,
                "end_time": 46.225,
                "pitch": 23,
                "velocity": 80,
                "duration": 0.1909091,
                "tempo": 120.0
            },
            {
                "start_time": 46.225,
                "end_time": 46.4090909,
                "pitch": 35,
                "velocity": 80,
                "duration": 0.1840909,
                "tempo": 120.0
            },
            {
                "start_time": 46.4090909,
                "end_time": 46.6090909,
                "pitch": 23,
                "velocity": 80,
                "duration": 0.2,
                "tempo": 120.0
            },
            {
                "start_time": 46.6090909,
                "end_time": 46.7977273,
                "pitch": 23,
                "velocity": 80,
                "duration": 0.1886364,
                "tempo": 120.0
            },
            {
                "start_time": 46.7977273,
                "end_time": 46.8840909,
                "pitch": 23,
                "velocity": 80,
                "duration": 0.0863636,
                "tempo": 120.0
            },
            {
                "start_time": 46.8840909,
                "end_time": 46.9886364,
                "pitch": 23,
                "velocity": 80,
                "duration": 0.1045455,
                "tempo": 120.0
            },
            {
                "start_time": 46.9886364,
                "end_time": 47.0909091,
                "pitch": 35,
                "velocity": 80,
                "duration": 0.1022727,
                "tempo": 120.0
            },
            {
                "start_time": 47.0909091,
                "end_time": 47.2818182,
                "pitch": 23,
                "velocity": 80,
                "duration": 0.1909091,
                "tempo": 120.0
            },
            {
                "start_time": 47.2818182,
                "end_time": 47.3840909,
                "pitch": 23,
                "velocity": 80,
                "duration": 0.1022727,
                "tempo": 120.0
            },
            {
                "start_time": 47.3840909,
                "end_time": 47.575,
                "pitch": 24,
                "velocity": 80,
                "duration": 0.1909091,
                "tempo": 120.0
            },
            {
                "start_time": 47.575,
                "end_time": 47.7636364,
                "pitch": 24,
                "velocity": 80,
                "duration": 0.1886364,
                "tempo": 120.0
            },
            {
                "start_time": 47.7636364,
                "end_time": 47.9477273,
                "pitch": 36,
                "velocity": 80,
                "duration": 0.1840909,
                "tempo": 120.0
            },
            {
                "start_time": 47.9477273,
                "end_time": 48.1477273,
                "pitch": 24,
                "velocity": 80,
                "duration": 0.2,
                "tempo": 120.0
            },
            {
                "start_time": 48.1477273,
                "end_time": 48.3363636,
                "pitch": 24,
                "velocity": 80,
                "duration": 0.1886364,
                "tempo": 120.0
            },
            {
                "start_time": 48.3386364,
                "end_time": 48.4227273,
                "pitch": 24,
                "velocity": 80,
                "duration": 0.0840909,
                "tempo": 120.0
            },
            {
                "start_time": 48.4227273,
                "end_time": 48.5272727,
                "pitch": 24,
                "velocity": 80,
                "duration": 0.1045455,
                "tempo": 120.0
            },
            {
                "start_time": 48.5272727,
                "end_time": 48.6272727,
                "pitch": 36,
                "velocity": 80,
                "duration": 0.1,
                "tempo": 120.0
            },
            {
                "start_time": 48.6272727,
                "end_time": 48.8113636,
                "pitch": 24,
                "velocity": 80,
                "duration": 0.1840909,
                "tempo": 120.0
            },
            {
                "start_time": 48.8113636,
                "end_time": 48.9113636,
                "pitch": 24,
                "velocity": 80,
                "duration": 0.1,
                "tempo": 120.0
            },
            {
                "start_time": 48.9113636,
                "end_time": 49.1,
                "pitch": 26,
                "velocity": 80,
                "duration": 0.1886364,
                "tempo": 120.0
            },
            {
                "start_time": 49.1,
                "end_time": 49.2909091,
                "pitch": 26,
                "velocity": 80,
                "duration": 0.1909091,
                "tempo": 120.0
            },
            {
                "start_time": 49.2909091,
                "end_time": 49.475,
                "pitch": 38,
                "velocity": 80,
                "duration": 0.1840909,
                "tempo": 120.0
            },
            {
                "start_time": 49.475,
                "end_time": 49.675,
                "pitch": 26,
                "velocity": 80,
                "duration": 0.2,
                "tempo": 120.0
            },
            {
                "start_time": 49.675,
                "end_time": 49.8636364,
                "pitch": 26,
                "velocity": 80,
                "duration": 0.1886364,
                "tempo": 120.0
            },
            {
                "start_time": 49.8636364,
                "end_time": 50.0545455,
                "pitch": 38,
                "velocity": 80,
                "duration": 0.1909091,
                "tempo": 120.0
            },
            {
                "start_time": 50.0545455,
                "end_time": 50.2386364,
                "pitch": 27,
                "velocity": 80,
                "duration": 0.1840909,
                "tempo": 120.0
            },
            {
                "start_time": 50.2386364,
                "end_time": 50.4386364,
                "pitch": 39,
                "velocity": 80,
                "duration": 0.2,
                "tempo": 120.0
            },
            {
                "start_time": 50.4386364,
                "end_time": 50.6272727,
                "pitch": 40,
                "velocity": 80,
                "duration": 0.1886364,
                "tempo": 120.0
            },
            {
                "start_time": 50.6272727,
                "end_time": 50.8159091,
                "pitch": 40,
                "velocity": 64,
                "duration": 0.1886364,
                "tempo": 120.0
            },
            {
                "start_time": 50.8159091,
                "end_time": 51.0,
                "pitch": 40,
                "velocity": 51,
                "duration": 0.1840909,
                "tempo": 120.0
            },
            {
                "start_time": 51.0,
                "end_time": 51.2,
                "pitch": 40,
                "velocity": 40,
                "duration": 0.2,
                "tempo": 120.0
            },
            {
                "start_time": 51.2022727,
                "end_time": 51.3909091,
                "pitch": 40,
                "velocity": 32,
                "duration": 0.1886364,
                "tempo": 120.0
            },
            {
                "start_time": 51.3909091,
                "end_time": 51.5795455,
                "pitch": 40,
                "velocity": 25,
                "duration": 0.1886364,
                "tempo": 120.0
            },
            {
                "start_time": 51.5795455,
                "end_time": 51.7636364,
                "pitch": 40,
                "velocity": 20,
                "duration": 0.1840909,
                "tempo": 120.0
            },
            {
                "start_time": 51.7636364,
                "end_time": 51.9636364,
                "pitch": 40,
                "velocity": 16,
                "duration": 0.2,
                "tempo": 120.0
            },
            {
                "start_time": 51.9636364,
                "end_time": 52.1590909,
                "pitch": 40,
                "velocity": 13,
                "duration": 0.1954545,
                "tempo": 120.0
            },
            {
                "start_time": 52.1590909,
                "end_time": 52.3522727,
                "pitch": 40,
                "velocity": 10,
                "duration": 0.1931818,
                "tempo": 120.0
            },
            {
                "start_time": 52.3522727,
                "end_time": 52.5318182,
                "pitch": 40,
                "velocity": 8,
                "duration": 0.1795455,
                "tempo": 120.0
            },
            {
                "start_time": 52.5318182,
                "end_time": 52.7272727,
                "pitch": 40,
                "velocity": 6,
                "duration": 0.1954545,
                "tempo": 120.0
            },
            {
                "start_time": 52.7272727,
                "end_time": 53.4909091,
                "pitch": 40,
                "velocity": 5,
                "duration": 0.7636364,
                "tempo": 120.0
            }
        ],
        "Violin": [
            {
                "start_time": 6.0886364,
                "end_time": 6.2840909,
                "pitch": 67,
                "velocity": 127,
                "duration": 0.1954545,
                "tempo": 120.0
            },
            {
                "start_time": 6.2840909,
                "end_time": 6.4772727,
                "pitch": 67,
                "velocity": 127,
                "duration": 0.1931818,
                "tempo": 120.0
            },
            {
                "start_time": 6.4795455,
                "end_time": 6.6613636,
                "pitch": 67,
                "velocity": 101,
                "duration": 0.1818182,
                "tempo": 120.0
            },
            {
                "start_time": 6.6613636,
                "end_time": 6.8636364,
                "pitch": 67,
                "velocity": 80,
                "duration": 0.2022727,
                "tempo": 120.0
            },
            {
                "start_time": 6.8636364,
                "end_time": 7.0522727,
                "pitch": 67,
                "velocity": 64,
                "duration": 0.1886364,
                "tempo": 120.0
            },
            {
                "start_time": 7.0522727,
                "end_time": 7.2409091,
                "pitch": 67,
                "velocity": 51,
                "duration": 0.1886364,
                "tempo": 120.0
            },
            {
                "start_time": 7.2409091,
                "end_time": 7.425,
                "pitch": 67,
                "velocity": 40,
                "duration": 0.1840909,
                "tempo": 120.0
            },
            {
                "start_time": 7.425,
                "end_time": 7.625,
                "pitch": 67,
                "velocity": 32,
                "duration": 0.2,
                "tempo": 120.0
            },
            {
                "start_time": 7.6272727,
                "end_time": 8.3886364,
                "pitch": 54,
                "velocity": 127,
                "duration": 0.7613636,
                "tempo": 120.0
            },
            {
                "start_time": 8.3886364,
                "end_time": 9.1522727,
                "pitch": 57,
                "velocity": 127,
                "duration": 0.7636364,
                "tempo": 120.0
            },
            {
                "start_time": 9.1522727,
                "end_time": 9.3431818,
                "pitch": 67,
                "velocity": 127,
                "duration": 0.1909091,
                "tempo": 120.0
            },
            {
                "start_time": 9.3431818,
                "end_time": 9.5318182,
                "pitch": 67,
                "velocity": 127,
                "duration": 0.1886364,
                "tempo": 120.0
            },
            {
                "start_time": 9.5318182,
                "end_time": 9.7159091,
                "pitch": 67,
                "velocity": 101,
                "duration": 0.1840909,
                "tempo": 120.0
            },
            {
                "start_time": 9.7159091,
                "end_time": 9.9159091,
                "pitch": 67,
                "velocity": 80,
                "duration": 0.2,
                "tempo": 120.0
            },
            {
                "start_time": 9.9159091,
                "end_time": 10.1113636,
                "pitch": 67,
                "velocity": 64,
                "duration": 0.1954545,
                "tempo": 120.0
            },
            {
                "start_time": 10.1113636,
                "end_time": 10.3045455,
                "pitch": 67,
                "velocity": 51,
                "duration": 0.1931818,
                "tempo": 120.0
            },
            {
                "start_time": 10.3045455,
                "end_time": 10.4886364,
                "pitch": 67,
                "velocity": 40,
                "duration": 0.1840909,
                "tempo": 120.0
            },
            {
                "start_time": 10.4886364,
                "end_time": 10.6886364,
                "pitch": 67,
                "velocity": 32,
                "duration": 0.2,
                "tempo": 120.0
            },
            {
                "start_time": 10.6909091,
                "end_time": 11.4522727,
                "pitch": 62,
                "velocity": 127,
                "duration": 0.7613636,
                "tempo": 120.0
            },
            {
                "start_time": 11.4522727,
                "end_time": 12.2159091,
                "pitch": 66,
                "velocity": 127,
                "duration": 0.7636364,
                "tempo": 120.0
            },
            {
                "start_time": 18.325,
                "end_time": 18.5136364,
                "pitch": 67,
                "velocity": 127,
                "duration": 0.1886364,
                "tempo": 120.0
            },
            {
                "start_time": 18.5136364,
                "end_time": 18.7022727,
                "pitch": 67,
                "velocity": 127,
                "duration": 0.1886364,
                "tempo": 120.0
            },
            {
                "start_time": 18.7045455,
                "end_time": 18.8863636,
                "pitch": 67,
                "velocity": 101,
                "duration": 0.1818182,
                "tempo": 120.0
            },
            {
                "start_time": 18.8863636,
                "end_time": 19.0863636,
                "pitch": 67,
                "velocity": 80,
                "duration": 0.2,
                "tempo": 120.0
            },
            {
                "start_time": 19.0886364,
                "end_time": 19.2818182,
                "pitch": 67,
                "velocity": 64,
                "duration": 0.1931818,
                "tempo": 120.0
            },
            {
                "start_time": 19.2818182,
                "end_time": 19.4772727,
                "pitch": 67,
                "velocity": 51,
                "duration": 0.1954545,
                "tempo": 120.0
            },
            {
                "start_time": 19.4772727,
                "end_time": 19.6590909,
                "pitch": 67,
                "velocity": 40,
                "duration": 0.1818182,
                "tempo": 120.0
            },
            {
                "start_time": 19.6590909,
                "end_time": 19.8613636,
                "pitch": 67,
                "velocity": 32,
                "duration": 0.2022727,
                "tempo": 120.0
            },
            {
                "start_time": 19.8613636,
                "end_time": 20.625,
                "pitch": 54,
                "velocity": 127,
                "duration": 0.7636364,
                "tempo": 120.0
            },
            {
                "start_time": 20.625,
                "end_time": 21.3886364,
                "pitch": 57,
                "velocity": 127,
                "duration": 0.7636364,
                "tempo": 120.0
            },
            {
                "start_time": 21.3886364,
                "end_time": 21.5772727,
                "pitch": 67,
                "velocity": 127,
                "duration": 0.1886364,
                "tempo": 120.0
            },
            {
                "start_time": 21.5772727,
                "end_time": 21.7659091,
                "pitch": 67,
                "velocity": 127,
                "duration": 0.1886364,
                "tempo": 120.0
            },
            {
                "start_time": 21.7681818,
                "end_time": 21.95,
                "pitch": 67,
                "velocity": 101,
                "duration": 0.1818182,
                "tempo": 120.0
            },
            {
                "start_time": 21.95,
                "end_time": 22.15,
                "pitch": 67,
                "velocity": 80,
                "duration": 0.2,
                "tempo": 120.0
            },
            {
                "start_time": 22.1522727,
                "end_time": 22.3409091,
                "pitch": 67,
                "velocity": 64,
                "duration": 0.1886364,
                "tempo": 120.0
            },
            {
                "start_time": 22.3409091,
                "end_time": 22.5295455,
                "pitch": 67,
                "velocity": 51,
                "duration": 0.1886364,
                "tempo": 120.0
            },
            {
                "start_time": 22.5295455,
                "end_time": 22.7136364,
                "pitch": 67,
                "velocity": 40,
                "duration": 0.1840909,
                "tempo": 120.0
            },
            {
                "start_time": 22.7136364,
                "end_time": 22.9136364,
                "pitch": 67,
                "velocity": 32,
                "duration": 0.2,
                "tempo": 120.0
            },
            {
                "start_time": 22.9159091,
                "end_time": 23.6772727,
                "pitch": 62,
                "velocity": 127,
                "duration": 0.7613636,
                "tempo": 120.0
            },
            {
                "start_time": 23.6772727,
                "end_time": 24.4409091,
                "pitch": 66,
                "velocity": 127,
                "duration": 0.7636364,
                "tempo": 120.0
            },
            {
                "start_time": 38.2022727,
                "end_time": 38.3909091,
                "pitch": 67,
                "velocity": 127,
                "duration": 0.1886364,
                "tempo": 120.0
            },
            {
                "start_time": 38.3909091,
                "end_time": 38.5795455,
                "pitch": 67,
                "velocity": 127,
                "duration": 0.1886364,
                "tempo": 120.0
            },
            {
                "start_time": 38.5795455,
                "end_time": 38.7636364,
                "pitch": 67,
                "velocity": 101,
                "duration": 0.1840909,
                "tempo": 120.0
            },
            {
                "start_time": 38.7636364,
                "end_time": 38.9636364,
                "pitch": 67,
                "velocity": 80,
                "duration": 0.2,
                "tempo": 120.0
            },
            {
                "start_time": 38.9659091,
                "end_time": 39.1590909,
                "pitch": 67,
                "velocity": 64,
                "duration": 0.1931818,
                "tempo": 120.0
            },
            {
                "start_time": 39.1590909,
                "end_time": 39.3522727,
                "pitch": 67,
                "velocity": 51,
                "duration": 0.1931818,
                "tempo": 120.0
            },
            {
                "start_time": 39.3545455,
                "end_time": 39.5318182,
                "pitch": 67,
                "velocity": 40,
                "duration": 0.1772727,
                "tempo": 120.0
            },
            {
                "start_time": 39.5318182,
                "end_time": 39.7272727,
                "pitch": 67,
                "velocity": 32,
                "duration": 0.1954545,
                "tempo": 120.0
            },
            {
                "start_time": 39.7272727,
                "end_time": 40.5022727,
                "pitch": 54,
                "velocity": 127,
                "duration": 0.775,
                "tempo": 120.0
            },
            {
                "start_time": 40.5022727,
                "end_time": 41.2545455,
                "pitch": 57,
                "velocity": 127,
                "duration": 0.7522727,
                "tempo": 120.0
            },
            {
                "start_time": 41.2545455,
                "end_time": 41.45,
                "pitch": 67,
                "velocity": 127,
                "duration": 0.1954545,
                "tempo": 120.0
            },
            {
                "start_time": 41.45,
                "end_time": 41.6431818,
                "pitch": 67,
                "velocity": 127,
                "duration": 0.1931818,
                "tempo": 120.0
            },
            {
                "start_time": 41.6431818,
                "end_time": 41.8272727,
                "pitch": 67,
                "velocity": 101,
                "duration": 0.1840909,
                "tempo": 120.0
            },
            {
                "start_time": 41.8272727,
                "end_time": 42.0295455,
                "pitch": 67,
                "velocity": 80,
                "duration": 0.2022727,
                "tempo": 120.0
            },
            {
                "start_time": 42.0295455,
                "end_time": 42.2181818,
                "pitch": 67,
                "velocity": 64,
                "duration": 0.1886364,
                "tempo": 120.0
            },
            {
                "start_time": 42.2181818,
                "end_time": 42.4068182,
                "pitch": 67,
                "velocity": 51,
                "duration": 0.1886364,
                "tempo": 120.0
            },
            {
                "start_time": 42.4068182,
                "end_time": 42.5909091,
                "pitch": 67,
                "velocity": 40,
                "duration": 0.1840909,
                "tempo": 120.0
            },
            {
                "start_time": 42.5909091,
                "end_time": 42.7909091,
                "pitch": 67,
                "velocity": 32,
                "duration": 0.2,
                "tempo": 120.0
            },
            {
                "start_time": 42.7931818,
                "end_time": 43.5545455,
                "pitch": 62,
                "velocity": 127,
                "duration": 0.7613636,
                "tempo": 120.0
            },
            {
                "start_time": 43.5545455,
                "end_time": 44.3181818,
                "pitch": 66,
                "velocity": 127,
                "duration": 0.7636364,
                "tempo": 120.0
            }
        ],
        "Acoustic Grand Piano": [
            {
                "start_time": 44.3181818,
                "end_time": 44.4045455,
                "pitch": 84,
                "velocity": 64,
                "duration": 0.0863636,
                "tempo": 120.0
            },
            {
                "start_time": 44.4045455,
                "end_time": 44.5090909,
                "pitch": 81,
                "velocity": 64,
                "duration": 0.1045455,
                "tempo": 120.0
            },
            {
                "start_time": 44.5090909,
                "end_time": 44.5931818,
                "pitch": 76,
                "velocity": 64,
                "duration": 0.0840909,
                "tempo": 120.0
            },
            {
                "start_time": 44.5931818,
                "end_time": 44.6977273,
                "pitch": 72,
                "velocity": 64,
                "duration": 0.1045455,
                "tempo": 120.0
            },
            {
                "start_time": 44.6977273,
                "end_time": 44.7977273,
                "pitch": 84,
                "velocity": 64,
                "duration": 0.1,
                "tempo": 120.0
            },
            {
                "start_time": 44.7977273,
                "end_time": 44.8818182,
                "pitch": 81,
                "velocity": 64,
                "duration": 0.0840909,
                "tempo": 120.0
            },
            {
                "start_time": 44.8818182,
                "end_time": 44.9818182,
                "pitch": 76,
                "velocity": 64,
                "duration": 0.1,
                "tempo": 120.0
            },
            {
                "start_time": 44.9818182,
                "end_time": 45.0818182,
                "pitch": 72,
                "velocity": 64,
                "duration": 0.1,
                "tempo": 120.0
            },
            {
                "start_time": 45.0818182,
                "end_time": 45.1681818,
                "pitch": 84,
                "velocity": 64,
                "duration": 0.0863636,
                "tempo": 120.0
            },
            {
                "start_time": 45.1681818,
                "end_time": 45.2727273,
                "pitch": 81,
                "velocity": 64,
                "duration": 0.1045455,
                "tempo": 120.0
            },
            {
                "start_time": 45.2727273,
                "end_time": 45.3590909,
                "pitch": 76,
                "velocity": 64,
                "duration": 0.0863636,
                "tempo": 120.0
            },
            {
                "start_time": 45.3590909,
                "end_time": 45.4613636,
                "pitch": 72,
                "velocity": 64,
                "duration": 0.1022727,
                "tempo": 120.0
            },
            {
                "start_time": 45.4613636,
                "end_time": 45.5613636,
                "pitch": 84,
                "velocity": 64,
                "duration": 0.1,
                "tempo": 120.0
            },
            {
                "start_time": 45.5613636,
                "end_time": 45.6431818,
                "pitch": 81,
                "velocity": 64,
                "duration": 0.0818182,
                "tempo": 120.0
            },
            {
                "start_time": 45.6454545,
                "end_time": 45.7454545,
                "pitch": 76,
                "velocity": 64,
                "duration": 0.1,
                "tempo": 120.0
            },
            {
                "start_time": 45.7454545,
                "end_time": 45.8454545,
                "pitch": 72,
                "velocity": 64,
                "duration": 0.1,
                "tempo": 120.0
            },
            {
                "start_time": 45.8454545,
                "end_time": 45.9318182,
                "pitch": 83,
                "velocity": 64,
                "duration": 0.0863636,
                "tempo": 120.0
            },
            {
                "start_time": 45.9318182,
                "end_time": 46.0363636,
                "pitch": 78,
                "velocity": 64,
                "duration": 0.1045455,
                "tempo": 120.0
            },
            {
                "start_time": 46.0363636,
                "end_time": 46.1204545,
                "pitch": 75,
                "velocity": 64,
                "duration": 0.0840909,
                "tempo": 120.0
            },
            {
                "start_time": 46.1204545,
                "end_time": 46.225,
                "pitch": 71,
                "velocity": 64,
                "duration": 0.1045455,
                "tempo": 120.0
            },
            {
                "start_time": 46.225,
                "end_time": 46.325,
                "pitch": 83,
                "velocity": 64,
                "duration": 0.1,
                "tempo": 120.0
            },
            {
                "start_time": 46.325,
                "end_time": 46.4090909,
                "pitch": 78,
                "velocity": 64,
                "duration": 0.0840909,
                "tempo": 120.0
            },
            {
                "start_time": 46.4090909,
                "end_time": 46.5068182,
                "pitch": 75,
                "velocity": 64,
                "duration": 0.0977273,
                "tempo": 120.0
            },
            {
                "start_time": 46.5090909,
                "end_time": 46.6090909,
                "pitch": 71,
                "velocity": 64,
                "duration": 0.1,
                "tempo": 120.0
            },
            {
                "start_time": 46.6090909,
                "end_time": 46.6954545,
                "pitch": 83,
                "velocity": 64,
                "duration": 0.0863636,
                "tempo": 120.0
            },
            {
                "start_time": 46.6954545,
                "end_time": 46.7977273,
                "pitch": 78,
                "velocity": 64,
                "duration": 0.1022727,
                "tempo": 120.0
            },
            {
                "start_time": 46.8,
                "end_time": 46.8840909,
                "pitch": 75,
                "velocity": 64,
                "duration": 0.0840909,
                "tempo": 120.0
            },
            {
                "start_time": 46.8863636,
                "end_time": 46.9886364,
                "pitch": 71,
                "velocity": 64,
                "duration": 0.1022727,
                "tempo": 120.0
            },
            {
                "start_time": 46.9886364,
                "end_time": 47.0909091,
                "pitch": 83,
                "velocity": 64,
                "duration": 0.1022727,
                "tempo": 120.0
            },
            {
                "start_time": 47.0931818,
                "end_time": 47.1772727,
                "pitch": 78,
                "velocity": 64,
                "duration": 0.0840909,
                "tempo": 120.0
            },
            {
                "start_time": 47.1772727,
                "end_time": 47.2818182,
                "pitch": 75,
                "velocity": 64,
                "duration": 0.1045455,
                "tempo": 120.0
            },
            {
                "start_time": 47.2818182,
                "end_time": 47.3840909,
                "pitch": 71,
                "velocity": 64,
                "duration": 0.1022727,
                "tempo": 120.0
            },
            {
                "start_time": 47.3840909,
                "end_time": 47.4704545,
                "pitch": 84,
                "velocity": 64,
                "duration": 0.0863636,
                "tempo": 120.0
            },
            {
                "start_time": 47.4704545,
                "end_time": 47.575,
                "pitch": 81,
                "velocity": 64,
                "duration": 0.1045455,
                "tempo": 120.0
            },
            {
                "start_time": 47.575,
                "end_time": 47.6590909,
                "pitch": 76,
                "velocity": 64,
                "duration": 0.0840909,
                "tempo": 120.0
            },
            {
                "start_time": 47.6590909,
                "end_time": 47.7636364,
                "pitch": 72,
                "velocity": 64,
                "duration": 0.1045455,
                "tempo": 120.0
            },
            {
                "start_time": 47.7636364,
                "end_time": 47.8636364,
                "pitch": 84,
                "velocity": 64,
                "duration": 0.1,
                "tempo": 120.0
            },
            {
                "start_time": 47.8636364,
                "end_time": 47.9477273,
                "pitch": 81,
                "velocity": 64,
                "duration": 0.0840909,
                "tempo": 120.0
            },
            {
                "start_time": 47.9477273,
                "end_time": 48.0477273,
                "pitch": 76,
                "velocity": 64,
                "duration": 0.1,
                "tempo": 120.0
            },
            {
                "start_time": 48.0477273,
                "end_time": 48.1477273,
                "pitch": 72,
                "velocity": 64,
                "duration": 0.1,
                "tempo": 120.0
            },
            {
                "start_time": 48.1477273,
                "end_time": 48.2340909,
                "pitch": 84,
                "velocity": 64,
                "duration": 0.0863636,
                "tempo": 120.0
            },
            {
                "start_time": 48.2340909,
                "end_time": 48.3386364,
                "pitch": 81,
                "velocity": 64,
                "duration": 0.1045455,
                "tempo": 120.0
            },
            {
                "start_time": 48.3386364,
                "end_time": 48.425,
                "pitch": 76,
                "velocity": 64,
                "duration": 0.0863636,
                "tempo": 120.0
            },
            {
                "start_time": 48.425,
                "end_time": 48.5272727,
                "pitch": 72,
                "velocity": 64,
                "duration": 0.1022727,
                "tempo": 120.0
            },
            {
                "start_time": 48.5272727,
                "end_time": 48.6272727,
                "pitch": 84,
                "velocity": 64,
                "duration": 0.1,
                "tempo": 120.0
            },
            {
                "start_time": 48.6272727,
                "end_time": 48.7113636,
                "pitch": 81,
                "velocity": 64,
                "duration": 0.0840909,
                "tempo": 120.0
            },
            {
                "start_time": 48.7113636,
                "end_time": 48.8113636,
                "pitch": 76,
                "velocity": 64,
                "duration": 0.1,
                "tempo": 120.0
            },
            {
                "start_time": 48.8113636,
                "end_time": 48.9113636,
                "pitch": 72,
                "velocity": 64,
                "duration": 0.1,
                "tempo": 120.0
            },
            {
                "start_time": 48.9113636,
                "end_time": 48.9977273,
                "pitch": 72,
                "velocity": 64,
                "duration": 0.0863636,
                "tempo": 120.0
            },
            {
                "start_time": 48.9977273,
                "end_time": 49.1022727,
                "pitch": 79,
                "velocity": 64,
                "duration": 0.1045455,
                "tempo": 120.0
            },
            {
                "start_time": 49.1022727,
                "end_time": 49.1863636,
                "pitch": 76,
                "velocity": 64,
                "duration": 0.0840909,
                "tempo": 120.0
            },
            {
                "start_time": 49.1863636,
                "end_time": 49.2909091,
                "pitch": 60,
                "velocity": 64,
                "duration": 0.1045455,
                "tempo": 120.0
            },
            {
                "start_time": 49.2909091,
                "end_time": 49.3909091,
                "pitch": 72,
                "velocity": 64,
                "duration": 0.1,
                "tempo": 120.0
            },
            {
                "start_time": 49.3909091,
                "end_time": 49.475,
                "pitch": 79,
                "velocity": 64,
                "duration": 0.0840909,
                "tempo": 120.0
            },
            {
                "start_time": 49.475,
                "end_time": 49.575,
                "pitch": 76,
                "velocity": 64,
                "duration": 0.1,
                "tempo": 120.0
            },
            {
                "start_time": 49.575,
                "end_time": 49.675,
                "pitch": 60,
                "velocity": 64,
                "duration": 0.1,
                "tempo": 120.0
            },
            {
                "start_time": 49.675,
                "end_time": 49.7613636,
                "pitch": 71,
                "velocity": 64,
                "duration": 0.0863636,
                "tempo": 120.0
            },
            {
                "start_time": 49.7613636,
                "end_time": 49.8659091,
                "pitch": 66,
                "velocity": 64,
                "duration": 0.1045455,
                "tempo": 120.0
            },
            {
                "start_time": 49.8659091,
                "end_time": 49.95,
                "pitch": 63,
                "velocity": 64,
                "duration": 0.0840909,
                "tempo": 120.0
            },
            {
                "start_time": 49.95,
                "end_time": 50.0545455,
                "pitch": 59,
                "velocity": 64,
                "duration": 0.1045455,
                "tempo": 120.0
            },
            {
                "start_time": 50.0545455,
                "end_time": 50.1545455,
                "pitch": 71,
                "velocity": 64,
                "duration": 0.1,
                "tempo": 120.0
            },
            {
                "start_time": 50.1545455,
                "end_time": 50.2386364,
                "pitch": 66,
                "velocity": 64,
                "duration": 0.0840909,
                "tempo": 120.0
            },
            {
                "start_time": 50.2386364,
                "end_time": 50.3386364,
                "pitch": 63,
                "velocity": 64,
                "duration": 0.1,
                "tempo": 120.0
            },
            {
                "start_time": 50.3386364,
                "end_time": 50.4386364,
                "pitch": 59,
                "velocity": 64,
                "duration": 0.1,
                "tempo": 120.0
            },
            {
                "start_time": 50.4386364,
                "end_time": 50.6272727,
                "pitch": 79,
                "velocity": 16,
                "duration": 0.1886364,
                "tempo": 120.0
            },
            {
                "start_time": 50.6272727,
                "end_time": 50.8181818,
                "pitch": 74,
                "velocity": 16,
                "duration": 0.1909091,
                "tempo": 120.0
            },
            {
                "start_time": 50.8181818,
                "end_time": 51.0,
                "pitch": 81,
                "velocity": 16,
                "duration": 0.1818182,
                "tempo": 120.0
            },
            {
                "start_time": 51.0022727,
                "end_time": 51.2022727,
                "pitch": 74,
                "velocity": 16,
                "duration": 0.2,
                "tempo": 120.0
            },
            {
                "start_time": 51.2022727,
                "end_time": 51.3909091,
                "pitch": 83,
                "velocity": 16,
                "duration": 0.1886364,
                "tempo": 120.0
            },
            {
                "start_time": 51.3909091,
                "end_time": 51.5795455,
                "pitch": 74,
                "velocity": 16,
                "duration": 0.1886364,
                "tempo": 120.0
            },
            {
                "start_time": 51.5818182,
                "end_time": 51.7636364,
                "pitch": 79,
                "velocity": 16,
                "duration": 0.1818182,
                "tempo": 120.0
            },
            {
                "start_time": 51.7636364,
                "end_time": 51.9659091,
                "pitch": 74,
                "velocity": 16,
                "duration": 0.2022727,
                "tempo": 120.0
            },
            {
                "start_time": 51.9659091,
                "end_time": 52.1590909,
                "pitch": 76,
                "velocity": 20,
                "duration": 0.1931818,
                "tempo": 120.0
            },
            {
                "start_time": 52.1590909,
                "end_time": 52.3545455,
                "pitch": 71,
                "velocity": 20,
                "duration": 0.1954545,
                "tempo": 120.0
            },
            {
                "start_time": 52.3545455,
                "end_time": 52.5318182,
                "pitch": 78,
                "velocity": 20,
                "duration": 0.1772727,
                "tempo": 120.0
            },
            {
                "start_time": 52.5340909,
                "end_time": 52.7295455,
                "pitch": 71,
                "velocity": 20,
                "duration": 0.1954545,
                "tempo": 120.0
            },
            {
                "start_time": 52.7295455,
                "end_time": 52.9181818,
                "pitch": 79,
                "velocity": 20,
                "duration": 0.1886364,
                "tempo": 120.0
            },
            {
                "start_time": 52.9181818,
                "end_time": 53.1068182,
                "pitch": 71,
                "velocity": 20,
                "duration": 0.1886364,
                "tempo": 120.0
            },
            {
                "start_time": 53.1068182,
                "end_time": 53.2909091,
                "pitch": 76,
                "velocity": 20,
                "duration": 0.1840909,
                "tempo": 120.0
            },
            {
                "start_time": 53.2909091,
                "end_time": 53.4909091,
                "pitch": 71,
                "velocity": 20,
                "duration": 0.2,
                "tempo": 120.0
            },
            {
                "start_time": 53.4931818,
                "end_time": 53.6818182,
                "pitch": 72,
                "velocity": 25,
                "duration": 0.1886364,
                "tempo": 120.0
            },
            {
                "start_time": 53.6818182,
                "end_time": 53.8704545,
                "pitch": 67,
                "velocity": 25,
                "duration": 0.1886364,
                "tempo": 120.0
            },
            {
                "start_time": 53.8704545,
                "end_time": 54.0545455,
                "pitch": 74,
                "velocity": 25,
                "duration": 0.1840909,
                "tempo": 120.0
            },
            {
                "start_time": 54.0545455,
                "end_time": 54.2545455,
                "pitch": 67,
                "velocity": 25,
                "duration": 0.2,
                "tempo": 120.0
            },
            {
                "start_time": 54.2545455,
                "end_time": 54.4454545,
                "pitch": 76,
                "velocity": 25,
                "duration": 0.1909091,
                "tempo": 120.0
            },
            {
                "start_time": 54.4454545,
                "end_time": 54.6340909,
                "pitch": 67,
                "velocity": 25,
                "duration": 0.1886364,
                "tempo": 120.0
            },
            {
                "start_time": 54.6340909,
                "end_time": 54.8181818,
                "pitch": 72,
                "velocity": 25,
                "duration": 0.1840909,
                "tempo": 120.0
            },
            {
                "start_time": 54.8181818,
                "end_time": 55.0181818,
                "pitch": 67,
                "velocity": 25,
                "duration": 0.2,
                "tempo": 120.0
            },
            {
                "start_time": 55.0181818,
                "end_time": 55.2090909,
                "pitch": 71,
                "velocity": 32,
                "duration": 0.1909091,
                "tempo": 120.0
            },
            {
                "start_time": 55.2090909,
                "end_time": 55.3977273,
                "pitch": 62,
                "velocity": 32,
                "duration": 0.1886364,
                "tempo": 120.0
            },
            {
                "start_time": 55.3977273,
                "end_time": 55.5818182,
                "pitch": 69,
                "velocity": 32,
                "duration": 0.1840909,
                "tempo": 120.0
            },
            {
                "start_time": 55.5818182,
                "end_time": 55.7818182,
                "pitch": 62,
                "velocity": 32,
                "duration": 0.2,
                "tempo": 120.0
            },
            {
                "start_time": 55.7818182,
                "end_time": 55.9772727,
                "pitch": 67,
                "velocity": 32,
                "duration": 0.1954545,
                "tempo": 120.0
            },
            {
                "start_time": 55.9772727,
                "end_time": 56.1704545,
                "pitch": 62,
                "velocity": 32,
                "duration": 0.1931818,
                "tempo": 120.0
            },
            {
                "start_time": 56.1704545,
                "end_time": 56.35,
                "pitch": 66,
                "velocity": 32,
                "duration": 0.1795455,
                "tempo": 120.0
            },
            {
                "start_time": 56.35,
                "end_time": 56.5454545,
                "pitch": 62,
                "velocity": 32,
                "duration": 0.1954545,
                "tempo": 120.0
            },
            {
                "start_time": 56.5454545,
                "end_time": 56.7386364,
                "pitch": 79,
                "velocity": 40,
                "duration": 0.1931818,
                "tempo": 120.0
            },
            {
                "start_time": 56.7409091,
                "end_time": 56.9340909,
                "pitch": 74,
                "velocity": 40,
                "duration": 0.1931818,
                "tempo": 120.0
            },
            {
                "start_time": 56.9340909,
                "end_time": 57.1181818,
                "pitch": 81,
                "velocity": 40,
                "duration": 0.1840909,
                "tempo": 120.0
            },
            {
                "start_time": 57.1181818,
                "end_time": 57.3181818,
                "pitch": 74,
                "velocity": 40,
                "duration": 0.2,
                "tempo": 120.0
            },
            {
                "start_time": 57.3181818,
                "end_time": 57.5090909,
                "pitch": 83,
                "velocity": 40,
                "duration": 0.1909091,
                "tempo": 120.0
            },
            {
                "start_time": 57.5090909,
                "end_time": 57.6977273,
                "pitch": 74,
                "velocity": 40,
                "duration": 0.1886364,
                "tempo": 120.0
            },
            {
                "start_time": 57.6977273,
                "end_time": 57.8818182,
                "pitch": 79,
                "velocity": 40,
                "duration": 0.1840909,
                "tempo": 120.0
            },
            {
                "start_time": 57.8818182,
                "end_time": 58.0818182,
                "pitch": 74,
                "velocity": 40,
                "duration": 0.2,
                "tempo": 120.0
            },
            {
                "start_time": 58.0818182,
                "end_time": 58.2727273,
                "pitch": 76,
                "velocity": 51,
                "duration": 0.1909091,
                "tempo": 120.0
            },
            {
                "start_time": 58.2727273,
                "end_time": 58.4613636,
                "pitch": 71,
                "velocity": 51,
                "duration": 0.1886364,
                "tempo": 120.0
            },
            {
                "start_time": 58.4613636,
                "end_time": 58.6454545,
                "pitch": 78,
                "velocity": 51,
                "duration": 0.1840909,
                "tempo": 120.0
            },
            {
                "start_time": 58.6454545,
                "end_time": 58.8454545,
                "pitch": 71,
                "velocity": 51,
                "duration": 0.2,
                "tempo": 120.0
            },
            {
                "start_time": 58.8454545,
                "end_time": 59.0340909,
                "pitch": 79,
                "velocity": 51,
                "duration": 0.1886364,
                "tempo": 120.0
            },
            {
                "start_time": 59.0363636,
                "end_time": 59.225,
                "pitch": 71,
                "velocity": 51,
                "duration": 0.1886364,
                "tempo": 120.0
            },
            {
                "start_time": 59.225,
                "end_time": 59.4090909,
                "pitch": 76,
                "velocity": 51,
                "duration": 0.1840909,
                "tempo": 120.0
            },
            {
                "start_time": 59.4090909,
                "end_time": 59.6090909,
                "pitch": 71,
                "velocity": 51,
                "duration": 0.2,
                "tempo": 120.0
            },
            {
                "start_time": 59.6090909,
                "end_time": 59.8022727,
                "pitch": 72,
                "velocity": 64,
                "duration": 0.1931818,
                "tempo": 120.0
            },
            {
                "start_time": 59.8022727,
                "end_time": 59.9977273,
                "pitch": 67,
                "velocity": 64,
                "duration": 0.1954545,
                "tempo": 120.0
            },
            {
                "start_time": 59.9977273,
                "end_time": 60.1818182,
                "pitch": 74,
                "velocity": 64,
                "duration": 0.1840909,
                "tempo": 120.0
            },
            {
                "start_time": 60.1818182,
                "end_time": 60.3818182,
                "pitch": 67,
                "velocity": 64,
                "duration": 0.2,
                "tempo": 120.0
            },
            {
                "start_time": 60.3818182,
                "end_time": 60.5727273,
                "pitch": 76,
                "velocity": 64,
                "duration": 0.1909091,
                "tempo": 120.0
            },
            {
                "start_time": 60.5727273,
                "end_time": 60.7613636,
                "pitch": 67,
                "velocity": 64,
                "duration": 0.1886364,
                "tempo": 120.0
            },
            {
                "start_time": 60.7613636,
                "end_time": 60.9454545,
                "pitch": 72,
                "velocity": 64,
                "duration": 0.1840909,
                "tempo": 120.0
            },
            {
                "start_time": 60.9454545,
                "end_time": 61.1454545,
                "pitch": 67,
                "velocity": 64,
                "duration": 0.2,
                "tempo": 120.0
            },
            {
                "start_time": 61.1454545,
                "end_time": 61.3340909,
                "pitch": 71,
                "velocity": 80,
                "duration": 0.1886364,
                "tempo": 120.0
            },
            {
                "start_time": 61.3363636,
                "end_time": 61.525,
                "pitch": 62,
                "velocity": 80,
                "duration": 0.1886364,
                "tempo": 120.0
            },
            {
                "start_time": 61.525,
                "end_time": 61.7090909,
                "pitch": 69,
                "velocity": 80,
                "duration": 0.1840909,
                "tempo": 120.0
            },
            {
                "start_time": 61.7090909,
                "end_time": 61.9090909,
                "pitch": 62,
                "velocity": 80,
                "duration": 0.2,
                "tempo": 120.0
            },
            {
                "start_time": 61.9090909,
                "end_time": 62.0977273,
                "pitch": 67,
                "velocity": 80,
                "duration": 0.1886364,
                "tempo": 120.0
            },
            {
                "start_time": 62.1,
                "end_time": 62.2886364,
                "pitch": 62,
                "velocity": 80,
                "duration": 0.1886364,
                "tempo": 120.0
            },
            {
                "start_time": 62.2886364,
                "end_time": 62.4727273,
                "pitch": 66,
                "velocity": 80,
                "duration": 0.1840909,
                "tempo": 120.0
            },
            {
                "start_time": 62.4727273,
                "end_time": 62.6727273,
                "pitch": 62,
                "velocity": 80,
                "duration": 0.2,
                "tempo": 120.0
            }
        ],
        "Electric Guitar (clean)": [
            {
                "start_time": 0.0022727,
                "end_time": 0.1863636,
                "pitch": 28,
                "velocity": 80,
                "duration": 0.1840909,
                "tempo": 120.0
            },
            {
                "start_time": 0.1863636,
                "end_time": 0.3681818,
                "pitch": 40,
                "velocity": 80,
                "duration": 0.1818182,
                "tempo": 120.0
            },
            {
                "start_time": 0.3704545,
                "end_time": 0.5477273,
                "pitch": 22,
                "velocity": 80,
                "duration": 0.1772727,
                "tempo": 120.0
            },
            {
                "start_time": 0.55,
                "end_time": 0.7454545,
                "pitch": 34,
                "velocity": 80,
                "duration": 0.1954545,
                "tempo": 120.0
            },
            {
                "start_time": 0.7454545,
                "end_time": 0.9340909,
                "pitch": 23,
                "velocity": 80,
                "duration": 0.1886364,
                "tempo": 120.0
            },
            {
                "start_time": 0.9340909,
                "end_time": 1.1227273,
                "pitch": 35,
                "velocity": 80,
                "duration": 0.1886364,
                "tempo": 120.0
            },
            {
                "start_time": 1.1227273,
                "end_time": 1.3068182,
                "pitch": 26,
                "velocity": 80,
                "duration": 0.1840909,
                "tempo": 120.0
            },
            {
                "start_time": 1.3068182,
                "end_time": 1.5068182,
                "pitch": 38,
                "velocity": 80,
                "duration": 0.2,
                "tempo": 120.0
            },
            {
                "start_time": 1.5090909,
                "end_time": 1.6977273,
                "pitch": 28,
                "velocity": 80,
                "duration": 0.1886364,
                "tempo": 120.0
            },
            {
                "start_time": 1.6977273,
                "end_time": 1.8863636,
                "pitch": 40,
                "velocity": 80,
                "duration": 0.1886364,
                "tempo": 120.0
            },
            {
                "start_time": 1.8863636,
                "end_time": 2.0704545,
                "pitch": 22,
                "velocity": 80,
                "duration": 0.1840909,
                "tempo": 120.0
            },
            {
                "start_time": 2.0704545,
                "end_time": 2.2704545,
                "pitch": 34,
                "velocity": 80,
                "duration": 0.2,
                "tempo": 120.0
            },
            {
                "start_time": 2.2704545,
                "end_time": 2.4613636,
                "pitch": 23,
                "velocity": 80,
                "duration": 0.1909091,
                "tempo": 120.0
            },
            {
                "start_time": 2.4613636,
                "end_time": 2.65,
                "pitch": 35,
                "velocity": 80,
                "duration": 0.1886364,
                "tempo": 120.0
            },
            {
                "start_time": 2.65,
                "end_time": 2.8340909,
                "pitch": 18,
                "velocity": 80,
                "duration": 0.1840909,
                "tempo": 120.0
            },
            {
                "start_time": 2.8340909,
                "end_time": 3.0340909,
                "pitch": 30,
                "velocity": 80,
                "duration": 0.2,
                "tempo": 120.0
            },
            {
                "start_time": 3.0340909,
                "end_time": 3.225,
                "pitch": 28,
                "velocity": 80,
                "duration": 0.1909091,
                "tempo": 120.0
            },
            {
                "start_time": 3.225,
                "end_time": 3.4136364,
                "pitch": 40,
                "velocity": 80,
                "duration": 0.1886364,
                "tempo": 120.0
            },
            {
                "start_time": 3.4136364,
                "end_time": 3.5977273,
                "pitch": 22,
                "velocity": 80,
                "duration": 0.1840909,
                "tempo": 120.0
            },
            {
                "start_time": 3.5977273,
                "end_time": 3.7977273,
                "pitch": 34,
                "velocity": 80,
                "duration": 0.2,
                "tempo": 120.0
            },
            {
                "start_time": 3.7977273,
                "end_time": 3.9886364,
                "pitch": 23,
                "velocity": 80,
                "duration": 0.1909091,
                "tempo": 120.0
            },
            {
                "start_time": 3.9886364,
                "end_time": 4.1772727,
                "pitch": 35,
                "velocity": 80,
                "duration": 0.1886364,
                "tempo": 120.0
            },
            {
                "start_time": 4.1772727,
                "end_time": 4.3659091,
                "pitch": 26,
                "velocity": 80,
                "duration": 0.1886364,
                "tempo": 120.0
            },
            {
                "start_time": 4.3681818,
                "end_time": 4.5727273,
                "pitch": 38,
                "velocity": 80,
                "duration": 0.2045455,
                "tempo": 120.0
            },
            {
                "start_time": 4.5727273,
                "end_time": 4.7568182,
                "pitch": 28,
                "velocity": 80,
                "duration": 0.1840909,
                "tempo": 120.0
            },
            {
                "start_time": 4.7568182,
                "end_time": 4.9409091,
                "pitch": 40,
                "velocity": 80,
                "duration": 0.1840909,
                "tempo": 120.0
            },
            {
                "start_time": 4.9409091,
                "end_time": 5.125,
                "pitch": 22,
                "velocity": 80,
                "duration": 0.1840909,
                "tempo": 120.0
            },
            {
                "start_time": 5.125,
                "end_time": 5.325,
                "pitch": 34,
                "velocity": 80,
                "duration": 0.2,
                "tempo": 120.0
            },
            {
                "start_time": 5.325,
                "end_time": 5.5204545,
                "pitch": 23,
                "velocity": 80,
                "duration": 0.1954545,
                "tempo": 120.0
            },
            {
                "start_time": 5.5204545,
                "end_time": 5.7136364,
                "pitch": 35,
                "velocity": 80,
                "duration": 0.1931818,
                "tempo": 120.0
            },
            {
                "start_time": 5.7136364,
                "end_time": 5.8931818,
                "pitch": 18,
                "velocity": 80,
                "duration": 0.1795455,
                "tempo": 120.0
            },
            {
                "start_time": 5.8931818,
                "end_time": 6.0886364,
                "pitch": 30,
                "velocity": 80,
                "duration": 0.1954545,
                "tempo": 120.0
            },
            {
                "start_time": 12.2159091,
                "end_time": 12.4045455,
                "pitch": 28,
                "velocity": 80,
                "duration": 0.1886364,
                "tempo": 120.0
            },
            {
                "start_time": 12.4068182,
                "end_time": 12.5954545,
                "pitch": 40,
                "velocity": 80,
                "duration": 0.1886364,
                "tempo": 120.0
            },
            {
                "start_time": 12.5954545,
                "end_time": 12.7795455,
                "pitch": 22,
                "velocity": 80,
                "duration": 0.1840909,
                "tempo": 120.0
            },
            {
                "start_time": 12.7795455,
                "end_time": 12.9795455,
                "pitch": 34,
                "velocity": 80,
                "duration": 0.2,
                "tempo": 120.0
            },
            {
                "start_time": 12.9795455,
                "end_time": 13.1681818,
                "pitch": 23,
                "velocity": 80,
                "duration": 0.1886364,
                "tempo": 120.0
            },
            {
                "start_time": 13.1681818,
                "end_time": 13.3590909,
                "pitch": 35,
                "velocity": 80,
                "duration": 0.1909091,
                "tempo": 120.0
            },
            {
                "start_time": 13.3590909,
                "end_time": 13.5431818,
                "pitch": 26,
                "velocity": 80,
                "duration": 0.1840909,
                "tempo": 120.0
            },
            {
                "start_time": 13.5431818,
                "end_time": 13.7431818,
                "pitch": 38,
                "velocity": 80,
                "duration": 0.2,
                "tempo": 120.0
            },
            {
                "start_time": 13.7431818,
                "end_time": 13.9318182,
                "pitch": 28,
                "velocity": 80,
                "duration": 0.1886364,
                "tempo": 120.0
            },
            {
                "start_time": 13.9318182,
                "end_time": 14.1227273,
                "pitch": 40,
                "velocity": 80,
                "duration": 0.1909091,
                "tempo": 120.0
            },
            {
                "start_time": 14.1227273,
                "end_time": 14.3068182,
                "pitch": 22,
                "velocity": 80,
                "duration": 0.1840909,
                "tempo": 120.0
            },
            {
                "start_time": 14.3068182,
                "end_time": 14.5068182,
                "pitch": 34,
                "velocity": 80,
                "duration": 0.2,
                "tempo": 120.0
            },
            {
                "start_time": 14.5068182,
                "end_time": 14.6954545,
                "pitch": 23,
                "velocity": 80,
                "duration": 0.1886364,
                "tempo": 120.0
            },
            {
                "start_time": 14.6954545,
                "end_time": 14.8863636,
                "pitch": 35,
                "velocity": 80,
                "duration": 0.1909091,
                "tempo": 120.0
            },
            {
                "start_time": 14.8863636,
                "end_time": 15.0681818,
                "pitch": 18,
                "velocity": 80,
                "duration": 0.1818182,
                "tempo": 120.0
            },
            {
                "start_time": 15.0704545,
                "end_time": 15.2704545,
                "pitch": 30,
                "velocity": 80,
                "duration": 0.2,
                "tempo": 120.0
            },
            {
                "start_time": 15.2704545,
                "end_time": 15.4590909,
                "pitch": 28,
                "velocity": 80,
                "duration": 0.1886364,
                "tempo": 120.0
            },
            {
                "start_time": 15.4590909,
                "end_time": 15.65,
                "pitch": 40,
                "velocity": 80,
                "duration": 0.1909091,
                "tempo": 120.0
            },
            {
                "start_time": 15.65,
                "end_time": 15.8318182,
                "pitch": 22,
                "velocity": 80,
                "duration": 0.1818182,
                "tempo": 120.0
            },
            {
                "start_time": 15.8318182,
                "end_time": 16.0340909,
                "pitch": 34,
                "velocity": 80,
                "duration": 0.2022727,
                "tempo": 120.0
            },
            {
                "start_time": 16.0340909,
                "end_time": 16.2227273,
                "pitch": 23,
                "velocity": 80,
                "duration": 0.1886364,
                "tempo": 120.0
            },
            {
                "start_time": 16.2227273,
                "end_time": 16.4113636,
                "pitch": 35,
                "velocity": 80,
                "duration": 0.1886364,
                "tempo": 120.0
            },
            {
                "start_time": 16.4136364,
                "end_time": 16.5954545,
                "pitch": 26,
                "velocity": 80,
                "duration": 0.1818182,
                "tempo": 120.0
            },
            {
                "start_time": 16.5954545,
                "end_time": 16.7977273,
                "pitch": 38,
                "velocity": 80,
                "duration": 0.2022727,
                "tempo": 120.0
            },
            {
                "start_time": 16.7977273,
                "end_time": 16.9863636,
                "pitch": 28,
                "velocity": 80,
                "duration": 0.1886364,
                "tempo": 120.0
            },
            {
                "start_time": 16.9863636,
                "end_time": 17.175,
                "pitch": 40,
                "velocity": 80,
                "duration": 0.1886364,
                "tempo": 120.0
            },
            {
                "start_time": 17.175,
                "end_time": 17.3590909,
                "pitch": 22,
                "velocity": 80,
                "duration": 0.1840909,
                "tempo": 120.0
            },
            {
                "start_time": 17.3590909,
                "end_time": 17.5590909,
                "pitch": 34,
                "velocity": 80,
                "duration": 0.2,
                "tempo": 120.0
            },
            {
                "start_time": 17.5613636,
                "end_time": 17.75,
                "pitch": 23,
                "velocity": 80,
                "duration": 0.1886364,
                "tempo": 120.0
            },
            {
                "start_time": 17.75,
                "end_time": 17.9386364,
                "pitch": 35,
                "velocity": 80,
                "duration": 0.1886364,
                "tempo": 120.0
            },
            {
                "start_time": 17.9386364,
                "end_time": 18.1227273,
                "pitch": 18,
                "velocity": 80,
                "duration": 0.1840909,
                "tempo": 120.0
            },
            {
                "start_time": 18.1227273,
                "end_time": 18.3227273,
                "pitch": 30,
                "velocity": 80,
                "duration": 0.2,
                "tempo": 120.0
            }
        ],
        "Oboe": [
            {
                "start_time": 62.6727273,
                "end_time": 63.8045455,
                "pitch": 40,
                "velocity": 101,
                "duration": 1.1318182,
                "tempo": 120.0
            },
            {
                "start_time": 63.8045455,
                "end_time": 63.9045455,
                "pitch": 40,
                "velocity": 101,
                "duration": 0.1,
                "tempo": 120.0
            },
            {
                "start_time": 63.9045455,
                "end_time": 63.9863636,
                "pitch": 39,
                "velocity": 101,
                "duration": 0.0818182,
                "tempo": 120.0
            },
            {
                "start_time": 63.9863636,
                "end_time": 64.1886364,
                "pitch": 38,
                "velocity": 101,
                "duration": 0.2022727,
                "tempo": 120.0
            },
            {
                "start_time": 64.1886364,
                "end_time": 65.3409091,
                "pitch": 36,
                "velocity": 101,
                "duration": 1.1522727,
                "tempo": 120.0
            },
            {
                "start_time": 65.3409091,
                "end_time": 65.4409091,
                "pitch": 36,
                "velocity": 101,
                "duration": 0.1,
                "tempo": 120.0
            },
            {
                "start_time": 65.4409091,
                "end_time": 65.525,
                "pitch": 35,
                "velocity": 101,
                "duration": 0.0840909,
                "tempo": 120.0
            },
            {
                "start_time": 65.525,
                "end_time": 65.725,
                "pitch": 34,
                "velocity": 101,
                "duration": 0.2,
                "tempo": 120.0
            },
            {
                "start_time": 65.725,
                "end_time": 66.8681818,
                "pitch": 33,
                "velocity": 101,
                "duration": 1.1431818,
                "tempo": 120.0
            },
            {
                "start_time": 66.8681818,
                "end_time": 66.9681818,
                "pitch": 33,
                "velocity": 101,
                "duration": 0.1,
                "tempo": 120.0
            },
            {
                "start_time": 66.9681818,
                "end_time": 67.05,
                "pitch": 32,
                "velocity": 101,
                "duration": 0.0818182,
                "tempo": 120.0
            },
            {
                "start_time": 67.05,
                "end_time": 67.2522727,
                "pitch": 31,
                "velocity": 101,
                "duration": 0.2022727,
                "tempo": 120.0
            },
            {
                "start_time": 67.2522727,
                "end_time": 68.0159091,
                "pitch": 30,
                "velocity": 101,
                "duration": 0.7636364,
                "tempo": 120.0
            },
            {
                "start_time": 68.0159091,
                "end_time": 68.3954545,
                "pitch": 35,
                "velocity": 101,
                "duration": 0.3795455,
                "tempo": 120.0
            },
            {
                "start_time": 68.3954545,
                "end_time": 68.7795455,
                "pitch": 38,
                "velocity": 101,
                "duration": 0.3840909,
                "tempo": 120.0
            },
            {
                "start_time": 68.7795455,
                "end_time": 69.9204545,
                "pitch": 40,
                "velocity": 101,
                "duration": 1.1409091,
                "tempo": 120.0
            },
            {
                "start_time": 69.9227273,
                "end_time": 70.0204545,
                "pitch": 40,
                "velocity": 101,
                "duration": 0.0977273,
                "tempo": 120.0
            },
            {
                "start_time": 70.0204545,
                "end_time": 70.1045455,
                "pitch": 39,
                "velocity": 101,
                "duration": 0.0840909,
                "tempo": 120.0
            },
            {
                "start_time": 70.1045455,
                "end_time": 70.3068182,
                "pitch": 38,
                "velocity": 101,
                "duration": 0.2022727,
                "tempo": 120.0
            },
            {
                "start_time": 70.3068182,
                "end_time": 71.4568182,
                "pitch": 36,
                "velocity": 101,
                "duration": 1.15,
                "tempo": 120.0
            },
            {
                "start_time": 71.4568182,
                "end_time": 71.5568182,
                "pitch": 36,
                "velocity": 101,
                "duration": 0.1,
                "tempo": 120.0
            },
            {
                "start_time": 71.5590909,
                "end_time": 71.6409091,
                "pitch": 35,
                "velocity": 101,
                "duration": 0.0818182,
                "tempo": 120.0
            },
            {
                "start_time": 71.6409091,
                "end_time": 71.8431818,
                "pitch": 34,
                "velocity": 101,
                "duration": 0.2022727,
                "tempo": 120.0
            },
            {
                "start_time": 71.8431818,
                "end_time": 72.9840909,
                "pitch": 33,
                "velocity": 101,
                "duration": 1.1409091,
                "tempo": 120.0
            },
            {
                "start_time": 72.9863636,
                "end_time": 73.0840909,
                "pitch": 33,
                "velocity": 101,
                "duration": 0.0977273,
                "tempo": 120.0
            },
            {
                "start_time": 73.0840909,
                "end_time": 73.1681818,
                "pitch": 32,
                "velocity": 101,
                "duration": 0.0840909,
                "tempo": 120.0
            },
            {
                "start_time": 73.1681818,
                "end_time": 73.3704545,
                "pitch": 31,
                "velocity": 101,
                "duration": 0.2022727,
                "tempo": 120.0
            },
            {
                "start_time": 73.3704545,
                "end_time": 74.1318182,
                "pitch": 30,
                "velocity": 101,
                "duration": 0.7613636,
                "tempo": 120.0
            },
            {
                "start_time": 74.1340909,
                "end_time": 74.5113636,
                "pitch": 35,
                "velocity": 101,
                "duration": 0.3772727,
                "tempo": 120.0
            },
            {
                "start_time": 74.5113636,
                "end_time": 74.8954545,
                "pitch": 38,
                "velocity": 101,
                "duration": 0.3840909,
                "tempo": 120.0
            },
            {
                "start_time": 75.275,
                "end_time": 75.6590909,
                "pitch": 40,
                "velocity": 101,
                "duration": 0.3840909,
                "tempo": 120.0
            },
            {
                "start_time": 75.6590909,
                "end_time": 75.85,
                "pitch": 38,
                "velocity": 101,
                "duration": 0.1909091,
                "tempo": 120.0
            },
            {
                "start_time": 75.85,
                "end_time": 76.2227273,
                "pitch": 40,
                "velocity": 101,
                "duration": 0.3727273,
                "tempo": 120.0
            },
            {
                "start_time": 76.2227273,
                "end_time": 76.4227273,
                "pitch": 40,
                "velocity": 101,
                "duration": 0.2,
                "tempo": 120.0
            },
            {
                "start_time": 76.4227273,
                "end_time": 76.6113636,
                "pitch": 40,
                "velocity": 40,
                "duration": 0.1886364,
                "tempo": 120.0
            },
            {
                "start_time": 76.6113636,
                "end_time": 76.8022727,
                "pitch": 40,
                "velocity": 32,
                "duration": 0.1909091,
                "tempo": 120.0
            },
            {
                "start_time": 76.8022727,
                "end_time": 76.9909091,
                "pitch": 40,
                "velocity": 25,
                "duration": 0.1886364,
                "tempo": 120.0
            },
            {
                "start_time": 76.9909091,
                "end_time": 77.1977273,
                "pitch": 40,
                "velocity": 20,
                "duration": 0.2068182,
                "tempo": 120.0
            },
            {
                "start_time": 77.1977273,
                "end_time": 77.3886364,
                "pitch": 40,
                "velocity": 16,
                "duration": 0.1909091,
                "tempo": 120.0
            },
            {
                "start_time": 77.3886364,
                "end_time": 77.5772727,
                "pitch": 40,
                "velocity": 13,
                "duration": 0.1886364,
                "tempo": 120.0
            },
            {
                "start_time": 77.5772727,
                "end_time": 77.7613636,
                "pitch": 40,
                "velocity": 10,
                "duration": 0.1840909,
                "tempo": 120.0
            },
            {
                "start_time": 77.7613636,
                "end_time": 77.9636364,
                "pitch": 40,
                "velocity": 8,
                "duration": 0.2022727,
                "tempo": 120.0
            }
        ]
    }
}