{
    "mood": "happy",
    "instruments": {
        "Church Organ": [
            {
                "start_time": 0.0,
                "end_time": 0.2340909,
                "pitch": 79,
                "velocity": 64,
                "duration": 0.2340909,
                "tempo": 120.0
            },
            {
                "start_time": 0.25,
                "end_time": 0.3659091,
                "pitch": 79,
                "velocity": 64,
                "duration": 0.1159091,
                "tempo": 120.0
            },
            {
                "start_time": 0.3840909,
                "end_time": 0.6340909,
                "pitch": 75,
                "velocity": 64,
                "duration": 0.25,
                "tempo": 120.0
            },
            {
                "start_time": 0.65,
                "end_time": 0.7659091,
                "pitch": 70,
                "velocity": 64,
                "duration": 0.1159091,
                "tempo": 120.0
            },
            {
                "start_time": 0.7840909,
                "end_time": 1.1659091,
                "pitch": 79,
                "velocity": 64,
                "duration": 0.3818182,
                "tempo": 120.0
            },
            {
                "start_time": 1.1840909,
                "end_time": 1.4340909,
                "pitch": 75,
                "velocity": 64,
                "duration": 0.25,
                "tempo": 120.0
            },
            {
                "start_time": 1.45,
                "end_time": 1.9590909,
                "pitch": 70,
                "velocity": 64,
                "duration": 0.5090909,
                "tempo": 120.0
            },
            {
                "start_time": 1.975,
                "end_time": 2.3795455,
                "pitch": 87,
                "velocity": 64,
                "duration": 0.4045455,
                "tempo": 120.0
            },
            {
                "start_time": 2.3977273,
                "end_time": 3.1818182,
                "pitch": 82,
                "velocity": 64,
                "duration": 0.7840909,
                "tempo": 120.0
            }
        ],
        "Acoustic Bass": [
            {
                "start_time": 0.0,
                "end_time": 0.2340909,
                "pitch": 63,
                "velocity": 51,
                "duration": 0.2340909,
                "tempo": 120.0
            },
            {
                "start_time": 0.25,
                "end_time": 0.3659091,
                "pitch": 63,
                "velocity": 51,
                "duration": 0.1159091,
                "tempo": 120.0
            },
            {
                "start_time": 0.3840909,
                "end_time": 0.6340909,
                "pitch": 58,
                "velocity": 51,
                "duration": 0.25,
                "tempo": 120.0
            },
            {
                "start_time": 0.65,
                "end_time": 0.7659091,
                "pitch": 63,
                "velocity": 51,
                "duration": 0.1159091,
                "tempo": 120.0
            },
            {
                "start_time": 0.7840909,
                "end_time": 1.0340909,
                "pitch": 67,
                "velocity": 51,
                "duration": 0.25,
                "tempo": 120.0
            },
            {
                "start_time": 1.05,
                "end_time": 1.1659091,
                "pitch": 67,
                "velocity": 51,
                "duration": 0.1159091,
                "tempo": 120.0
            },
            {
                "start_time": 1.1840909,
                "end_time": 1.4340909,
                "pitch": 70,
                "velocity": 51,
                "duration": 0.25,
                "tempo": 120.0
            },
            {
                "start_time": 1.45,
                "end_time": 1.5340909,
                "pitch": 67,
                "velocity": 51,
                "duration": 0.0840909,
                "tempo": 120.0
            },
            {
                "start_time": 1.975,
                "end_time": 2.3795455,
                "pitch": 63,
                "velocity": 51,
                "duration": 0.4045455,
                "tempo": 120.0
            },
            {
                "start_time": 2.3977273,
                "end_time": 3.1818182,
                "pitch": 63,
                "velocity": 51,
                "duration": 0.7840909,
                "tempo": 120.0
            }
        ],
        "Flute": [
            {
                "start_time": 0.0,
                "end_time": 0.2340909,
                "pitch": 82,
                "velocity": 40,
                "duration": 0.2340909,
                "tempo": 120.0
            },
            {
                "start_time": 0.25,
                "end_time": 0.3659091,
                "pitch": 82,
                "velocity": 40,
                "duration": 0.1159091,
                "tempo": 120.0
            },
            {
                "start_time": 0.3840909,
                "end_time": 0.6340909,
                "pitch": 79,
                "velocity": 40,
                "duration": 0.25,
                "tempo": 120.0
            },
            {
                "start_time": 0.65,
                "end_time": 0.7659091,
                "pitch": 79,
                "velocity": 40,
                "duration": 0.1159091,
                "tempo": 120.0
            },
            {
                "start_time": 0.7840909,
                "end_time": 1.1659091,
                "pitch": 75,
                "velocity": 40,
                "duration": 0.3818182,
                "tempo": 120.0
            },
            {
                "start_time": 1.1840909,
                "end_time": 1.4340909,
                "pitch": 74,
                "velocity": 40,
                "duration": 0.25,
                "tempo": 120.0
            },
            {
                "start_time": 1.45,
                "end_time": 1.9590909,
                "pitch": 75,
                "velocity": 40,
                "duration": 0.5090909,
                "tempo": 120.0
            },
            {
                "start_time": 1.975,
                "end_time": 2.3795455,
                "pitch": 70,
                "velocity": 40,
                "duration": 0.4045455,
                "tempo": 120.0
            },
            {
                "start_time": 2.3977273,
                "end_time": 3.2454545,
                "pitch": 75,
                "velocity": 40,
                "duration": 0.8477273,
                "tempo": 120.0
            }
        ],
        "Acoustic Grand Piano": [
            {
                "start_time": 0.0159091,
                "end_time": 0.2659091,
                "pitch": 79,
                "velocity": 40,
                "duration": 0.25,
                "tempo": 120.0
            },
            {
                "start_time": 0.2840909,
                "end_time": 0.4,
                "pitch": 79,
                "velocity": 40,
                "duration": 0.1159091,
                "tempo": 120.0
            },
            {
                "start_time": 0.4159091,
                "end_time": 0.6659091,
                "pitch": 75,
                "velocity": 40,
                "duration": 0.25,
                "tempo": 120.0
            },
            {
                "start_time": 0.6840909,
                "end_time": 0.8,
                "pitch": 70,
                "velocity": 40,
                "duration": 0.1159091,
                "tempo": 120.0
            },
            {
                "start_time": 0.8159091,
                "end_time": 1.2,
                "pitch": 79,
                "velocity": 40,
                "duration": 0.3840909,
                "tempo": 120.0
            },
            {
                "start_time": 1.2159091,
                "end_time": 1.4659091,
                "pitch": 75,
                "velocity": 40,
                "duration": 0.25,
                "tempo": 120.0
            },
            {
                "start_time": 1.4840909,
                "end_time": 1.9931818,
                "pitch": 70,
                "velocity": 40,
                "duration": 0.5090909,
                "tempo": 120.0
            },
            {
                "start_time": 2.0113636,
                "end_time": 2.4136364,
                "pitch": 87,
                "velocity": 40,
                "duration": 0.4022727,
                "tempo": 120.0
            },
            {
                "start_time": 2.4295455,
                "end_time": 3.2136364,
                "pitch": 82,
                "velocity": 40,
                "duration": 0.7840909,
                "tempo": 120.0
            }
        ]
    }
}