{
    "mood": "happy",
    "instruments": {
        "Electric Piano 1": [
            {
                "start_time": 0.05,
                "end_time": 0.8454545,
                "pitch": 39,
                "velocity": 80,
                "duration": 0.7954545,
                "tempo": 120.0
            },
            {
                "start_time": 0.8454545,
                "end_time": 1.0681818,
                "pitch": 36,
                "velocity": 80,
                "duration": 0.2227273,
                "tempo": 120.0
            },
            {
                "start_time": 1.0681818,
                "end_time": 1.1181818,
                "pitch": 36,
                "velocity": 80,
                "duration": 0.05,
                "tempo": 120.0
            },
            {
                "start_time": 1.0681818,
                "end_time": 1.2045455,
                "pitch": 24,
                "velocity": 80,
                "duration": 0.1363636,
                "tempo": 120.0
            },
            {
                "start_time": 1.1181818,
                "end_time": 1.2045455,
                "pitch": 36,
                "velocity": 80,
                "duration": 0.0863636,
                "tempo": 120.0
            },
            {
                "start_time": 1.2045455,
                "end_time": 1.2568182,
                "pitch": 36,
                "velocity": 80,
                "duration": 0.0522727,
                "tempo": 120.0
            },
            {
                "start_time": 1.1181818,
                "end_time": 1.2568182,
                "pitch": 40,
                "velocity": 80,
                "duration": 0.1386364,
                "tempo": 120.0
            },
            {
                "start_time": 1.2045455,
                "end_time": 1.3386364,
                "pitch": 24,
                "velocity": 80,
                "duration": 0.1340909,
                "tempo": 120.0
            },
            {
                "start_time": 1.2568182,
                "end_time": 1.3386364,
                "pitch": 36,
                "velocity": 80,
                "duration": 0.0818182,
                "tempo": 120.0
            },
            {
                "start_time": 1.3386364,
                "end_time": 1.3886364,
                "pitch": 36,
                "velocity": 80,
                "duration": 0.05,
                "tempo": 120.0
            },
            {
                "start_time": 1.2568182,
                "end_time": 1.3886364,
                "pitch": 40,
                "velocity": 80,
                "duration": 0.1318182,
                "tempo": 120.0
            },
            {
                "start_time": 1.3886364,
                "end_time": 1.4704545,
                "pitch": 36,
                "velocity": 80,
                "duration": 0.0818182,
                "tempo": 120.0
            },
            {
                "start_time": 1.4704545,
                "end_time": 1.5204545,
                "pitch": 36,
                "velocity": 80,
                "duration": 0.05,
                "tempo": 120.0
            },
            {
                "start_time": 1.3886364,
                "end_time": 1.5204545,
                "pitch": 40,
                "velocity": 80,
                "duration": 0.1318182,
                "tempo": 120.0
            },
            {
                "start_time": 1.3386364,
                "end_time": 1.6045455,
                "pitch": 24,
                "velocity": 80,
                "duration": 0.2659091,
                "tempo": 120.0
            },
            {
                "start_time": 1.5204545,
                "end_time": 1.6045455,
                "pitch": 36,
                "velocity": 80,
                "duration": 0.0840909,
                "tempo": 120.0
            },
            {
                "start_time": 1.6045455,
                "end_time": 1.6545455,
                "pitch": 36,
                "velocity": 80,
                "duration": 0.05,
                "tempo": 120.0
            },
            {
                "start_time": 1.6545455,
                "end_time": 2.4522727,
                "pitch": 34,
                "velocity": 80,
                "duration": 0.7977273,
                "tempo": 120.0
            },
            {
                "start_time": 2.4522727,
                "end_time": 3.2454545,
                "pitch": 39,
                "velocity": 80,
                "duration": 0.7931818,
                "tempo": 120.0
            },
            {
                "start_time": 3.2477273,
                "end_time": 3.4636364,
                "pitch": 36,
                "velocity": 80,
                "duration": 0.2159091,
                "tempo": 120.0
            },
            {
                "start_time": 3.4636364,
                "end_time": 3.5136364,
                "pitch": 36,
                "velocity": 80,
                "duration": 0.05,
                "tempo": 120.0
            },
            {
                "start_time": 1.5204545,
                "end_time": 3.5136364,
                "pitch": 40,
                "velocity": 80,
                "duration": 1.9931818,
                "tempo": 120.0
            },
            {
                "start_time": 3.5136364,
                "end_time": 3.5977273,
                "pitch": 36,
                "velocity": 80,
                "duration": 0.0840909,
                "tempo": 120.0
            },
            {
                "start_time": 3.5977273,
                "end_time": 3.6477273,
                "pitch": 36,
                "velocity": 80,
                "duration": 0.05,
                "tempo": 120.0
            },
            {
                "start_time": 3.5136364,
                "end_time": 3.6477273,
                "pitch": 40,
                "velocity": 80,
                "duration": 0.1340909,
                "tempo": 120.0
            },
            {
                "start_time": 1.6045455,
                "end_time": 3.7318182,
                "pitch": 24,
                "velocity": 80,
                "duration": 2.1272727,
                "tempo": 120.0
            },
            {
                "start_time": 3.6477273,
                "end_time": 3.7318182,
                "pitch": 36,
                "velocity": 80,
                "duration": 0.0840909,
                "tempo": 120.0
            },
            {
                "start_time": 3.7318182,
                "end_time": 3.7840909,
                "pitch": 36,
                "velocity": 80,
                "duration": 0.0522727,
                "tempo": 120.0
            },
            {
                "start_time": 3.6477273,
                "end_time": 3.7840909,
                "pitch": 40,
                "velocity": 80,
                "duration": 0.1363636,
                "tempo": 120.0
            },
            {
                "start_time": 3.7318182,
                "end_time": 3.8681818,
                "pitch": 24,
                "velocity": 80,
                "duration": 0.1363636,
                "tempo": 120.0
            },
            {
                "start_time": 3.7840909,
                "end_time": 3.8681818,
                "pitch": 36,
                "velocity": 80,
                "duration": 0.0840909,
                "tempo": 120.0
            },
            {
                "start_time": 3.8681818,
                "end_time": 3.9204545,
                "pitch": 36,
                "velocity": 80,
                "duration": 0.0522727,
                "tempo": 120.0
            },
            {
                "start_time": 3.7840909,
                "end_time": 3.9204545,
                "pitch": 40,
                "velocity": 80,
                "duration": 0.1363636,
                "tempo": 120.0
            },
            {
                "start_time": 3.9204545,
                "end_time": 4.0045455,
                "pitch": 36,
                "velocity": 80,
                "duration": 0.0840909,
                "tempo": 120.0
            },
            {
                "start_time": 4.0045455,
                "end_time": 4.0568182,
                "pitch": 36,
                "velocity": 80,
                "duration": 0.0522727,
                "tempo": 120.0
            },
            {
                "start_time": 4.0568182,
                "end_time": 5.6477273,
                "pitch": 39,
                "velocity": 80,
                "duration": 1.5909091,
                "tempo": 120.0
            },
            {
                "start_time": 5.6477273,
                "end_time": 6.4386364,
                "pitch": 38,
                "velocity": 80,
                "duration": 0.7909091,
                "tempo": 120.0
            },
            {
                "start_time": 6.4386364,
                "end_time": 6.6545455,
                "pitch": 43,
                "velocity": 80,
                "duration": 0.2159091,
                "tempo": 120.0
            },
            {
                "start_time": 6.6545455,
                "end_time": 6.7045455,
                "pitch": 43,
                "velocity": 80,
                "duration": 0.05,
                "tempo": 120.0
            },
            {
                "start_time": 6.7045455,
                "end_time": 6.7863636,
                "pitch": 43,
                "velocity": 80,
                "duration": 0.0818182,
                "tempo": 120.0
            },
            {
                "start_time": 6.6545455,
                "end_time": 6.7863636,
                "pitch": 55,
                "velocity": 80,
                "duration": 0.1318182,
                "tempo": 120.0
            },
            {
                "start_time": 6.7863636,
                "end_time": 6.8363636,
                "pitch": 43,
                "velocity": 80,
                "duration": 0.05,
                "tempo": 120.0
            },
            {
                "start_time": 6.8363636,
                "end_time": 6.9181818,
                "pitch": 43,
                "velocity": 80,
                "duration": 0.0818182,
                "tempo": 120.0
            },
            {
                "start_time": 6.7863636,
                "end_time": 6.9181818,
                "pitch": 55,
                "velocity": 80,
                "duration": 0.1318182,
                "tempo": 120.0
            },
            {
                "start_time": 6.8363636,
                "end_time": 6.9659091,
                "pitch": 0,
                "velocity": 80,
                "duration": 0.1295455,
                "tempo": 120.0
            },
            {
                "start_time": 6.9181818,
                "end_time": 6.9659091,
                "pitch": 43,
                "velocity": 80,
                "duration": 0.0477273,
                "tempo": 120.0
            },
            {
                "start_time": 6.9659091,
                "end_time": 7.0477273,
                "pitch": 43,
                "velocity": 80,
                "duration": 0.0818182,
                "tempo": 120.0
            },
            {
                "start_time": 6.9181818,
                "end_time": 7.0477273,
                "pitch": 55,
                "velocity": 80,
                "duration": 0.1295455,
                "tempo": 120.0
            },
            {
                "start_time": 6.9659091,
                "end_time": 7.0977273,
                "pitch": 0,
                "velocity": 80,
                "duration": 0.1318182,
                "tempo": 120.0
            },
            {
                "start_time": 7.0477273,
                "end_time": 7.0977273,
                "pitch": 43,
                "velocity": 80,
                "duration": 0.05,
                "tempo": 120.0
            },
            {
                "start_time": 7.0977273,
                "end_time": 7.1795455,
                "pitch": 43,
                "velocity": 80,
                "duration": 0.0818182,
                "tempo": 120.0
            },
            {
                "start_time": 7.0477273,
                "end_time": 7.1795455,
                "pitch": 55,
                "velocity": 80,
                "duration": 0.1318182,
                "tempo": 120.0
            },
            {
                "start_time": 7.1795455,
                "end_time": 7.2272727,
                "pitch": 43,
                "velocity": 80,
                "duration": 0.0477273,
                "tempo": 120.0
            },
            {
                "start_time": 7.6272727,
                "end_time": 7.8318182,
                "pitch": 43,
                "velocity": 80,
                "duration": 0.2045455,
                "tempo": 120.0
            },
            {
                "start_time": 7.8318182,
                "end_time": 8.0363636,
                "pitch": 45,
                "velocity": 80,
                "duration": 0.2045455,
                "tempo": 120.0
            },
            {
                "start_time": 8.0386364,
                "end_time": 8.2522727,
                "pitch": 43,
                "velocity": 80,
                "duration": 0.2136364,
                "tempo": 120.0
            },
            {
                "start_time": 7.1795455,
                "end_time": 8.2522727,
                "pitch": 55,
                "velocity": 80,
                "duration": 1.0727273,
                "tempo": 120.0
            },
            {
                "start_time": 7.0977273,
                "end_time": 8.3022727,
                "pitch": 0,
                "velocity": 80,
                "duration": 1.2045455,
                "tempo": 120.0
            },
            {
                "start_time": 8.2522727,
                "end_time": 8.3022727,
                "pitch": 43,
                "velocity": 80,
                "duration": 0.05,
                "tempo": 120.0
            },
            {
                "start_time": 8.3022727,
                "end_time": 8.3863636,
                "pitch": 43,
                "velocity": 80,
                "duration": 0.0840909,
                "tempo": 120.0
            },
            {
                "start_time": 8.2522727,
                "end_time": 8.3863636,
                "pitch": 55,
                "velocity": 80,
                "duration": 0.1340909,
                "tempo": 120.0
            },
            {
                "start_time": 8.3022727,
                "end_time": 8.4363636,
                "pitch": 0,
                "velocity": 80,
                "duration": 0.1340909,
                "tempo": 120.0
            },
            {
                "start_time": 8.3863636,
                "end_time": 8.4363636,
                "pitch": 43,
                "velocity": 80,
                "duration": 0.05,
                "tempo": 120.0
            },
            {
                "start_time": 8.4363636,
                "end_time": 8.5204545,
                "pitch": 43,
                "velocity": 80,
                "duration": 0.0840909,
                "tempo": 120.0
            },
            {
                "start_time": 8.3863636,
                "end_time": 8.5204545,
                "pitch": 55,
                "velocity": 80,
                "duration": 0.1340909,
                "tempo": 120.0
            },
            {
                "start_time": 8.4363636,
                "end_time": 8.5704545,
                "pitch": 0,
                "velocity": 80,
                "duration": 0.1340909,
                "tempo": 120.0
            },
            {
                "start_time": 8.5204545,
                "end_time": 8.5704545,
                "pitch": 43,
                "velocity": 80,
                "duration": 0.05,
                "tempo": 120.0
            },
            {
                "start_time": 8.5704545,
                "end_time": 8.6545455,
                "pitch": 43,
                "velocity": 80,
                "duration": 0.0840909,
                "tempo": 120.0
            },
            {
                "start_time": 8.5204545,
                "end_time": 8.6545455,
                "pitch": 55,
                "velocity": 80,
                "duration": 0.1340909,
                "tempo": 120.0
            },
            {
                "start_time": 8.5704545,
                "end_time": 8.7045455,
                "pitch": 0,
                "velocity": 80,
                "duration": 0.1340909,
                "tempo": 120.0
            },
            {
                "start_time": 8.6545455,
                "end_time": 8.7045455,
                "pitch": 43,
                "velocity": 80,
                "duration": 0.05,
                "tempo": 120.0
            },
            {
                "start_time": 8.7045455,
                "end_time": 8.7863636,
                "pitch": 43,
                "velocity": 80,
                "duration": 0.0818182,
                "tempo": 120.0
            },
            {
                "start_time": 8.6545455,
                "end_time": 8.7863636,
                "pitch": 55,
                "velocity": 80,
                "duration": 0.1318182,
                "tempo": 120.0
            },
            {
                "start_time": 8.7045455,
                "end_time": 8.8386364,
                "pitch": 0,
                "velocity": 80,
                "duration": 0.1340909,
                "tempo": 120.0
            },
            {
                "start_time": 8.7863636,
                "end_time": 8.8386364,
                "pitch": 43,
                "velocity": 80,
                "duration": 0.0522727,
                "tempo": 120.0
            },
            {
                "start_time": 8.8386364,
                "end_time": 8.9204545,
                "pitch": 43,
                "velocity": 80,
                "duration": 0.0818182,
                "tempo": 120.0
            },
            {
                "start_time": 8.7863636,
                "end_time": 8.9204545,
                "pitch": 55,
                "velocity": 80,
                "duration": 0.1340909,
                "tempo": 120.0
            },
            {
                "start_time": 8.8386364,
                "end_time": 8.9704545,
                "pitch": 0,
                "velocity": 80,
                "duration": 0.1318182,
                "tempo": 120.0
            },
            {
                "start_time": 8.9204545,
                "end_time": 8.9704545,
                "pitch": 43,
                "velocity": 80,
                "duration": 0.05,
                "tempo": 120.0
            },
            {
                "start_time": 8.9704545,
                "end_time": 9.0545455,
                "pitch": 43,
                "velocity": 80,
                "duration": 0.0840909,
                "tempo": 120.0
            },
            {
                "start_time": 8.9204545,
                "end_time": 9.0545455,
                "pitch": 55,
                "velocity": 80,
                "duration": 0.1340909,
                "tempo": 120.0
            },
            {
                "start_time": 8.9704545,
                "end_time": 9.1045455,
                "pitch": 0,
                "velocity": 80,
                "duration": 0.1340909,
                "tempo": 120.0
            },
            {
                "start_time": 9.0545455,
                "end_time": 9.1045455,
                "pitch": 43,
                "velocity": 80,
                "duration": 0.05,
                "tempo": 120.0
            },
            {
                "start_time": 9.1045455,
                "end_time": 9.1886364,
                "pitch": 43,
                "velocity": 80,
                "duration": 0.0840909,
                "tempo": 120.0
            },
            {
                "start_time": 9.0545455,
                "end_time": 9.1886364,
                "pitch": 55,
                "velocity": 80,
                "duration": 0.1340909,
                "tempo": 120.0
            },
            {
                "start_time": 9.1045455,
                "end_time": 9.2409091,
                "pitch": 0,
                "velocity": 80,
                "duration": 0.1363636,
                "tempo": 120.0
            },
            {
                "start_time": 9.1886364,
                "end_time": 9.2409091,
                "pitch": 43,
                "velocity": 80,
                "duration": 0.0522727,
                "tempo": 120.0
            },
            {
                "start_time": 9.2409091,
                "end_time": 9.3204545,
                "pitch": 43,
                "velocity": 80,
                "duration": 0.0795455,
                "tempo": 120.0
            },
            {
                "start_time": 9.2409091,
                "end_time": 9.3704545,
                "pitch": 0,
                "velocity": 80,
                "duration": 0.1295455,
                "tempo": 120.0
            },
            {
                "start_time": 9.3204545,
                "end_time": 9.3704545,
                "pitch": 43,
                "velocity": 80,
                "duration": 0.05,
                "tempo": 120.0
            },
            {
                "start_time": 9.3704545,
                "end_time": 9.45,
                "pitch": 43,
                "velocity": 80,
                "duration": 0.0795455,
                "tempo": 120.0
            },
            {
                "start_time": 9.1886364,
                "end_time": 9.45,
                "pitch": 55,
                "velocity": 80,
                "duration": 0.2613636,
                "tempo": 120.0
            },
            {
                "start_time": 9.3704545,
                "end_time": 9.5,
                "pitch": 0,
                "velocity": 80,
                "duration": 0.1295455,
                "tempo": 120.0
            },
            {
                "start_time": 9.45,
                "end_time": 9.5,
                "pitch": 43,
                "velocity": 80,
                "duration": 0.05,
                "tempo": 120.0
            },
            {
                "start_time": 9.5,
                "end_time": 9.5818182,
                "pitch": 43,
                "velocity": 80,
                "duration": 0.0818182,
                "tempo": 120.0
            },
            {
                "start_time": 9.45,
                "end_time": 9.5818182,
                "pitch": 55,
                "velocity": 80,
                "duration": 0.1318182,
                "tempo": 120.0
            },
            {
                "start_time": 9.5818182,
                "end_time": 9.6295455,
                "pitch": 43,
                "velocity": 80,
                "duration": 0.0477273,
                "tempo": 120.0
            },
            {
                "start_time": 9.6318182,
                "end_time": 11.2318182,
                "pitch": 41,
                "velocity": 80,
                "duration": 1.6,
                "tempo": 120.0
            },
            {
                "start_time": 11.2340909,
                "end_time": 11.4318182,
                "pitch": 41,
                "velocity": 80,
                "duration": 0.1977273,
                "tempo": 120.0
            },
            {
                "start_time": 11.4340909,
                "end_time": 11.6340909,
                "pitch": 43,
                "velocity": 80,
                "duration": 0.2,
                "tempo": 120.0
            },
            {
                "start_time": 11.6340909,
                "end_time": 12.825,
                "pitch": 41,
                "velocity": 80,
                "duration": 1.1909091,
                "tempo": 120.0
            },
            {
                "start_time": 12.825,
                "end_time": 13.0409091,
                "pitch": 43,
                "velocity": 80,
                "duration": 0.2159091,
                "tempo": 120.0
            },
            {
                "start_time": 9.5818182,
                "end_time": 13.0409091,
                "pitch": 55,
                "velocity": 80,
                "duration": 3.4590909,
                "tempo": 120.0
            },
            {
                "start_time": 13.0409091,
                "end_time": 13.0909091,
                "pitch": 43,
                "velocity": 80,
                "duration": 0.05,
                "tempo": 120.0
            },
            {
                "start_time": 13.0909091,
                "end_time": 13.175,
                "pitch": 43,
                "velocity": 80,
                "duration": 0.0840909,
                "tempo": 120.0
            },
            {
                "start_time": 13.175,
                "end_time": 13.225,
                "pitch": 43,
                "velocity": 80,
                "duration": 0.05,
                "tempo": 120.0
            },
            {
                "start_time": 13.225,
                "end_time": 13.3090909,
                "pitch": 43,
                "velocity": 80,
                "duration": 0.0840909,
                "tempo": 120.0
            },
            {
                "start_time": 13.0409091,
                "end_time": 13.3090909,
                "pitch": 55,
                "velocity": 80,
                "duration": 0.2681818,
                "tempo": 120.0
            },
            {
                "start_time": 13.3090909,
                "end_time": 13.3590909,
                "pitch": 43,
                "velocity": 80,
                "duration": 0.05,
                "tempo": 120.0
            },
            {
                "start_time": 13.3590909,
                "end_time": 13.4431818,
                "pitch": 43,
                "velocity": 80,
                "duration": 0.0840909,
                "tempo": 120.0
            },
            {
                "start_time": 13.4431818,
                "end_time": 13.4931818,
                "pitch": 43,
                "velocity": 80,
                "duration": 0.05,
                "tempo": 120.0
            },
            {
                "start_time": 13.4931818,
                "end_time": 13.5772727,
                "pitch": 43,
                "velocity": 80,
                "duration": 0.0840909,
                "tempo": 120.0
            },
            {
                "start_time": 13.5772727,
                "end_time": 13.6272727,
                "pitch": 43,
                "velocity": 80,
                "duration": 0.05,
                "tempo": 120.0
            },
            {
                "start_time": 14.0272727,
                "end_time": 14.2272727,
                "pitch": 43,
                "velocity": 80,
                "duration": 0.2,
                "tempo": 120.0
            },
            {
                "start_time": 14.2272727,
                "end_time": 14.4272727,
                "pitch": 45,
                "velocity": 80,
                "duration": 0.2,
                "tempo": 120.0
            },
            {
                "start_time": 14.4295455,
                "end_time": 14.6454545,
                "pitch": 43,
                "velocity": 80,
                "duration": 0.2159091,
                "tempo": 120.0
            },
            {
                "start_time": 13.3090909,
                "end_time": 14.6454545,
                "pitch": 55,
                "velocity": 80,
                "duration": 1.3363636,
                "tempo": 120.0
            },
            {
                "start_time": 9.5,
                "end_time": 14.6954545,
                "pitch": 0,
                "velocity": 80,
                "duration": 5.1954545,
                "tempo": 120.0
            },
            {
                "start_time": 14.6454545,
                "end_time": 14.6954545,
                "pitch": 43,
                "velocity": 80,
                "duration": 0.05,
                "tempo": 120.0
            },
            {
                "start_time": 14.6954545,
                "end_time": 14.7795455,
                "pitch": 43,
                "velocity": 80,
                "duration": 0.0840909,
                "tempo": 120.0
            },
            {
                "start_time": 14.6954545,
                "end_time": 14.8295455,
                "pitch": 0,
                "velocity": 80,
                "duration": 0.1340909,
                "tempo": 120.0
            },
            {
                "start_time": 14.7795455,
                "end_time": 14.8295455,
                "pitch": 43,
                "velocity": 80,
                "duration": 0.05,
                "tempo": 120.0
            },
            {
                "start_time": 14.8295455,
                "end_time": 14.9159091,
                "pitch": 43,
                "velocity": 80,
                "duration": 0.0863636,
                "tempo": 120.0
            },
            {
                "start_time": 14.6454545,
                "end_time": 14.9159091,
                "pitch": 55,
                "velocity": 80,
                "duration": 0.2704545,
                "tempo": 120.0
            },
            {
                "start_time": 14.9159091,
                "end_time": 14.9659091,
                "pitch": 43,
                "velocity": 80,
                "duration": 0.05,
                "tempo": 120.0
            },
            {
                "start_time": 14.9659091,
                "end_time": 15.0522727,
                "pitch": 43,
                "velocity": 80,
                "duration": 0.0863636,
                "tempo": 120.0
            },
            {
                "start_time": 14.9159091,
                "end_time": 15.0522727,
                "pitch": 55,
                "velocity": 80,
                "duration": 0.1363636,
                "tempo": 120.0
            },
            {
                "start_time": 14.8295455,
                "end_time": 15.1022727,
                "pitch": 0,
                "velocity": 80,
                "duration": 0.2727273,
                "tempo": 120.0
            },
            {
                "start_time": 15.0522727,
                "end_time": 15.1022727,
                "pitch": 43,
                "velocity": 80,
                "duration": 0.05,
                "tempo": 120.0
            },
            {
                "start_time": 15.1022727,
                "end_time": 15.1886364,
                "pitch": 43,
                "velocity": 80,
                "duration": 0.0863636,
                "tempo": 120.0
            },
            {
                "start_time": 15.0522727,
                "end_time": 15.1886364,
                "pitch": 55,
                "velocity": 80,
                "duration": 0.1363636,
                "tempo": 120.0
            },
            {
                "start_time": 15.1886364,
                "end_time": 15.2386364,
                "pitch": 43,
                "velocity": 80,
                "duration": 0.05,
                "tempo": 120.0
            },
            {
                "start_time": 15.2386364,
                "end_time": 15.3181818,
                "pitch": 43,
                "velocity": 80,
                "duration": 0.0795455,
                "tempo": 120.0
            },
            {
                "start_time": 15.3181818,
                "end_time": 15.3659091,
                "pitch": 43,
                "velocity": 80,
                "duration": 0.0477273,
                "tempo": 120.0
            },
            {
                "start_time": 15.3659091,
                "end_time": 15.4454545,
                "pitch": 43,
                "velocity": 80,
                "duration": 0.0795455,
                "tempo": 120.0
            },
            {
                "start_time": 15.1886364,
                "end_time": 15.4454545,
                "pitch": 55,
                "velocity": 80,
                "duration": 0.2568182,
                "tempo": 120.0
            },
            {
                "start_time": 15.1022727,
                "end_time": 15.4931818,
                "pitch": 0,
                "velocity": 80,
                "duration": 0.3909091,
                "tempo": 120.0
            },
            {
                "start_time": 15.4454545,
                "end_time": 15.4931818,
                "pitch": 43,
                "velocity": 80,
                "duration": 0.0477273,
                "tempo": 120.0
            },
            {
                "start_time": 15.4931818,
                "end_time": 15.5727273,
                "pitch": 43,
                "velocity": 80,
                "duration": 0.0795455,
                "tempo": 120.0
            },
            {
                "start_time": 15.4454545,
                "end_time": 15.5727273,
                "pitch": 55,
                "velocity": 80,
                "duration": 0.1272727,
                "tempo": 120.0
            },
            {
                "start_time": 15.4931818,
                "end_time": 15.6204545,
                "pitch": 0,
                "velocity": 80,
                "duration": 0.1272727,
                "tempo": 120.0
            },
            {
                "start_time": 15.5727273,
                "end_time": 15.6204545,
                "pitch": 43,
                "velocity": 80,
                "duration": 0.0477273,
                "tempo": 120.0
            },
            {
                "start_time": 15.6204545,
                "end_time": 15.7045455,
                "pitch": 43,
                "velocity": 80,
                "duration": 0.0840909,
                "tempo": 120.0
            },
            {
                "start_time": 15.5727273,
                "end_time": 15.7045455,
                "pitch": 55,
                "velocity": 80,
                "duration": 0.1318182,
                "tempo": 120.0
            },
            {
                "start_time": 15.6204545,
                "end_time": 15.7568182,
                "pitch": 0,
                "velocity": 80,
                "duration": 0.1363636,
                "tempo": 120.0
            },
            {
                "start_time": 15.7045455,
                "end_time": 15.7568182,
                "pitch": 43,
                "velocity": 80,
                "duration": 0.0522727,
                "tempo": 120.0
            },
            {
                "start_time": 15.7568182,
                "end_time": 15.8431818,
                "pitch": 43,
                "velocity": 80,
                "duration": 0.0863636,
                "tempo": 120.0
            },
            {
                "start_time": 15.7045455,
                "end_time": 15.8431818,
                "pitch": 55,
                "velocity": 80,
                "duration": 0.1386364,
                "tempo": 120.0
            },
            {
                "start_time": 15.8431818,
                "end_time": 15.8931818,
                "pitch": 43,
                "velocity": 80,
                "duration": 0.05,
                "tempo": 120.0
            },
            {
                "start_time": 15.8931818,
                "end_time": 15.9795455,
                "pitch": 43,
                "velocity": 80,
                "duration": 0.0863636,
                "tempo": 120.0
            },
            {
                "start_time": 15.8431818,
                "end_time": 15.9795455,
                "pitch": 55,
                "velocity": 80,
                "duration": 0.1363636,
                "tempo": 120.0
            },
            {
                "start_time": 15.9795455,
                "end_time": 16.0295455,
                "pitch": 43,
                "velocity": 80,
                "duration": 0.05,
                "tempo": 120.0
            },
            {
                "start_time": 16.0318182,
                "end_time": 16.8318182,
                "pitch": 41,
                "velocity": 80,
                "duration": 0.8,
                "tempo": 120.0
            },
            {
                "start_time": 17.2318182,
                "end_time": 17.4295455,
                "pitch": 41,
                "velocity": 80,
                "duration": 0.1977273,
                "tempo": 120.0
            },
            {
                "start_time": 17.4318182,
                "end_time": 17.6318182,
                "pitch": 43,
                "velocity": 80,
                "duration": 0.2,
                "tempo": 120.0
            },
            {
                "start_time": 17.6318182,
                "end_time": 19.2227273,
                "pitch": 41,
                "velocity": 80,
                "duration": 1.5909091,
                "tempo": 120.0
            },
            {
                "start_time": 20.8159091,
                "end_time": 21.6227273,
                "pitch": 39,
                "velocity": 80,
                "duration": 0.8068182,
                "tempo": 120.0
            },
            {
                "start_time": 22.025,
                "end_time": 22.2204545,
                "pitch": 38,
                "velocity": 80,
                "duration": 0.1954545,
                "tempo": 120.0
            },
            {
                "start_time": 22.2204545,
                "end_time": 24.0272727,
                "pitch": 39,
                "velocity": 80,
                "duration": 1.8068182,
                "tempo": 120.0
            },
            {
                "start_time": 24.0295455,
                "end_time": 24.8204545,
                "pitch": 39,
                "velocity": 80,
                "duration": 0.7909091,
                "tempo": 120.0
            },
            {
                "start_time": 25.2204545,
                "end_time": 25.4204545,
                "pitch": 38,
                "velocity": 80,
                "duration": 0.2,
                "tempo": 120.0
            },
            {
                "start_time": 25.4227273,
                "end_time": 27.2113636,
                "pitch": 39,
                "velocity": 80,
                "duration": 1.7886364,
                "tempo": 120.0
            },
            {
                "start_time": 27.2136364,
                "end_time": 28.0931818,
                "pitch": 39,
                "velocity": 80,
                "duration": 0.8795455,
                "tempo": 120.0
            },
            {
                "start_time": 28.55,
                "end_time": 28.7840909,
                "pitch": 38,
                "velocity": 80,
                "duration": 0.2340909,
                "tempo": 120.0
            },
            {
                "start_time": 28.7840909,
                "end_time": 31.4295455,
                "pitch": 39,
                "velocity": 80,
                "duration": 2.6454545,
                "tempo": 120.0
            },
            {
                "start_time": 31.4295455,
                "end_time": 34.3340909,
                "pitch": 41,
                "velocity": 80,
                "duration": 2.9045455,
                "tempo": 120.0
            },
            {
                "start_time": 3.9204545,
                "end_time": 35.8227273,
                "pitch": 40,
                "velocity": 80,
                "duration": 31.9022727,
                "tempo": 120.0
            },
            {
                "start_time": 34.3363636,
                "end_time": 35.8227273,
                "pitch": 40,
                "velocity": 80,
                "duration": 1.4863636,
                "tempo": 120.0
            }
        ]
    }
}