{
    "mood": "happy",
    "instruments": {
        "Electric Piano 1": [
            {
                "start_time": 5.9363636,
                "end_time": 6.2522727,
                "pitch": 38,
                "velocity": 80,
                "duration": 0.3159091,
                "tempo": 120.0
            },
            {
                "start_time": 6.2522727,
                "end_time": 6.4681818,
                "pitch": 39,
                "velocity": 80,
                "duration": 0.2159091,
                "tempo": 120.0
            },
            {
                "start_time": 6.4704545,
                "end_time": 6.5681818,
                "pitch": 40,
                "velocity": 80,
                "duration": 0.0977273,
                "tempo": 120.0
            },
            {
                "start_time": 6.5681818,
                "end_time": 6.6863636,
                "pitch": 42,
                "velocity": 80,
                "duration": 0.1181818,
                "tempo": 120.0
            },
            {
                "start_time": 6.6863636,
                "end_time": 6.7863636,
                "pitch": 43,
                "velocity": 80,
                "duration": 0.1,
                "tempo": 120.0
            },
            {
                "start_time": 6.7863636,
                "end_time": 6.8863636,
                "pitch": 40,
                "velocity": 80,
                "duration": 0.1,
                "tempo": 120.0
            },
            {
                "start_time": 6.8886364,
                "end_time": 7.0977273,
                "pitch": 24,
                "velocity": 80,
                "duration": 0.2090909,
                "tempo": 120.0
            },
            {
                "start_time": 7.1,
                "end_time": 7.2136364,
                "pitch": 24,
                "velocity": 80,
                "duration": 0.1136364,
                "tempo": 120.0
            },
            {
                "start_time": 7.2136364,
                "end_time": 7.3113636,
                "pitch": 36,
                "velocity": 80,
                "duration": 0.0977273,
                "tempo": 120.0
            },
            {
                "start_time": 7.3113636,
                "end_time": 7.4272727,
                "pitch": 24,
                "velocity": 80,
                "duration": 0.1159091,
                "tempo": 120.0
            },
            {
                "start_time": 7.4272727,
                "end_time": 7.5272727,
                "pitch": 24,
                "velocity": 80,
                "duration": 0.1,
                "tempo": 120.0
            },
            {
                "start_time": 7.5295455,
                "end_time": 7.7454545,
                "pitch": 36,
                "velocity": 80,
                "duration": 0.2159091,
                "tempo": 120.0
            },
            {
                "start_time": 7.7454545,
                "end_time": 7.9613636,
                "pitch": 24,
                "velocity": 80,
                "duration": 0.2159091,
                "tempo": 120.0
            },
            {
                "start_time": 7.9613636,
                "end_time": 8.0613636,
                "pitch": 24,
                "velocity": 80,
                "duration": 0.1,
                "tempo": 120.0
            },
            {
                "start_time": 8.0613636,
                "end_time": 8.1795455,
                "pitch": 36,
                "velocity": 80,
                "duration": 0.1181818,
                "tempo": 120.0
            },
            {
                "start_time": 8.1795455,
                "end_time": 8.3795455,
                "pitch": 23,
                "velocity": 80,
                "duration": 0.2,
                "tempo": 120.0
            },
            {
                "start_time": 8.3795455,
                "end_time": 8.5954545,
                "pitch": 23,
                "velocity": 80,
                "duration": 0.2159091,
                "tempo": 120.0
            },
            {
                "start_time": 8.5977273,
                "end_time": 8.8090909,
                "pitch": 21,
                "velocity": 80,
                "duration": 0.2113636,
                "tempo": 120.0
            },
            {
                "start_time": 8.8090909,
                "end_time": 8.9227273,
                "pitch": 21,
                "velocity": 80,
                "duration": 0.1136364,
                "tempo": 120.0
            },
            {
                "start_time": 8.925,
                "end_time": 9.0227273,
                "pitch": 33,
                "velocity": 80,
                "duration": 0.0977273,
                "tempo": 120.0
            },
            {
                "start_time": 9.0227273,
                "end_time": 9.1204545,
                "pitch": 23,
                "velocity": 80,
                "duration": 0.0977273,
                "tempo": 120.0
            },
            {
                "start_time": 9.1227273,
                "end_time": 9.2386364,
                "pitch": 23,
                "velocity": 80,
                "duration": 0.1159091,
                "tempo": 120.0
            },
            {
                "start_time": 9.2386364,
                "end_time": 9.4568182,
                "pitch": 35,
                "velocity": 80,
                "duration": 0.2181818,
                "tempo": 120.0
            },
            {
                "start_time": 9.4568182,
                "end_time": 9.6727273,
                "pitch": 36,
                "velocity": 80,
                "duration": 0.2159091,
                "tempo": 120.0
            },
            {
                "start_time": 9.6727273,
                "end_time": 9.7727273,
                "pitch": 35,
                "velocity": 80,
                "duration": 0.1,
                "tempo": 120.0
            },
            {
                "start_time": 9.7727273,
                "end_time": 9.8727273,
                "pitch": 33,
                "velocity": 80,
                "duration": 0.1,
                "tempo": 120.0
            },
            {
                "start_time": 9.875,
                "end_time": 9.9863636,
                "pitch": 26,
                "velocity": 80,
                "duration": 0.1113636,
                "tempo": 120.0
            },
            {
                "start_time": 9.9886364,
                "end_time": 10.0863636,
                "pitch": 38,
                "velocity": 80,
                "duration": 0.0977273,
                "tempo": 120.0
            },
            {
                "start_time": 10.0863636,
                "end_time": 10.2,
                "pitch": 36,
                "velocity": 80,
                "duration": 0.1136364,
                "tempo": 120.0
            },
            {
                "start_time": 10.2,
                "end_time": 10.2977273,
                "pitch": 35,
                "velocity": 80,
                "duration": 0.0977273,
                "tempo": 120.0
            },
            {
                "start_time": 10.3,
                "end_time": 10.5159091,
                "pitch": 24,
                "velocity": 80,
                "duration": 0.2159091,
                "tempo": 120.0
            },
            {
                "start_time": 10.5159091,
                "end_time": 10.6159091,
                "pitch": 24,
                "velocity": 80,
                "duration": 0.1,
                "tempo": 120.0
            },
            {
                "start_time": 10.6159091,
                "end_time": 10.7318182,
                "pitch": 36,
                "velocity": 80,
                "duration": 0.1159091,
                "tempo": 120.0
            },
            {
                "start_time": 10.7340909,
                "end_time": 10.8318182,
                "pitch": 24,
                "velocity": 80,
                "duration": 0.0977273,
                "tempo": 120.0
            },
            {
                "start_time": 10.8340909,
                "end_time": 10.95,
                "pitch": 24,
                "velocity": 80,
                "duration": 0.1159091,
                "tempo": 120.0
            },
            {
                "start_time": 10.95,
                "end_time": 11.1659091,
                "pitch": 36,
                "velocity": 80,
                "duration": 0.2159091,
                "tempo": 120.0
            },
            {
                "start_time": 11.1681818,
                "end_time": 11.3659091,
                "pitch": 24,
                "velocity": 80,
                "duration": 0.1977273,
                "tempo": 120.0
            },
            {
                "start_time": 11.3681818,
                "end_time": 11.4840909,
                "pitch": 24,
                "velocity": 80,
                "duration": 0.1159091,
                "tempo": 120.0
            },
            {
                "start_time": 11.4840909,
                "end_time": 11.5840909,
                "pitch": 36,
                "velocity": 80,
                "duration": 0.1,
                "tempo": 120.0
            },
            {
                "start_time": 11.5840909,
                "end_time": 11.7954545,
                "pitch": 23,
                "velocity": 80,
                "duration": 0.2113636,
                "tempo": 120.0
            },
            {
                "start_time": 11.7977273,
                "end_time": 12.0090909,
                "pitch": 23,
                "velocity": 80,
                "duration": 0.2113636,
                "tempo": 120.0
            },
            {
                "start_time": 12.0090909,
                "end_time": 12.2272727,
                "pitch": 21,
                "velocity": 80,
                "duration": 0.2181818,
                "tempo": 120.0
            },
            {
                "start_time": 12.2272727,
                "end_time": 12.3272727,
                "pitch": 21,
                "velocity": 80,
                "duration": 0.1,
                "tempo": 120.0
            },
            {
                "start_time": 12.3272727,
                "end_time": 12.4431818,
                "pitch": 33,
                "velocity": 80,
                "duration": 0.1159091,
                "tempo": 120.0
            },
            {
                "start_time": 12.4454545,
                "end_time": 12.5454545,
                "pitch": 23,
                "velocity": 80,
                "duration": 0.1,
                "tempo": 120.0
            },
            {
                "start_time": 12.5454545,
                "end_time": 12.6659091,
                "pitch": 23,
                "velocity": 80,
                "duration": 0.1204545,
                "tempo": 120.0
            },
            {
                "start_time": 12.6659091,
                "end_time": 12.8704545,
                "pitch": 35,
                "velocity": 80,
                "duration": 0.2045455,
                "tempo": 120.0
            },
            {
                "start_time": 12.8704545,
                "end_time": 13.075,
                "pitch": 36,
                "velocity": 80,
                "duration": 0.2045455,
                "tempo": 120.0
            },
            {
                "start_time": 13.0772727,
                "end_time": 13.1863636,
                "pitch": 35,
                "velocity": 80,
                "duration": 0.1090909,
                "tempo": 120.0
            },
            {
                "start_time": 13.1886364,
                "end_time": 13.2840909,
                "pitch": 33,
                "velocity": 80,
                "duration": 0.0954545,
                "tempo": 120.0
            },
            {
                "start_time": 13.2840909,
                "end_time": 13.4022727,
                "pitch": 26,
                "velocity": 80,
                "duration": 0.1181818,
                "tempo": 120.0
            },
            {
                "start_time": 13.4022727,
                "end_time": 13.5045455,
                "pitch": 38,
                "velocity": 80,
                "duration": 0.1022727,
                "tempo": 120.0
            },
            {
                "start_time": 13.5045455,
                "end_time": 13.6068182,
                "pitch": 36,
                "velocity": 80,
                "duration": 0.1022727,
                "tempo": 120.0
            },
            {
                "start_time": 13.6068182,
                "end_time": 13.7272727,
                "pitch": 35,
                "velocity": 80,
                "duration": 0.1204545,
                "tempo": 120.0
            },
            {
                "start_time": 13.7272727,
                "end_time": 13.9431818,
                "pitch": 28,
                "velocity": 80,
                "duration": 0.2159091,
                "tempo": 120.0
            },
            {
                "start_time": 13.9454545,
                "end_time": 14.1613636,
                "pitch": 40,
                "velocity": 80,
                "duration": 0.2159091,
                "tempo": 120.0
            },
            {
                "start_time": 14.1613636,
                "end_time": 14.2613636,
                "pitch": 28,
                "velocity": 80,
                "duration": 0.1,
                "tempo": 120.0
            },
            {
                "start_time": 14.2613636,
                "end_time": 14.3613636,
                "pitch": 28,
                "velocity": 80,
                "duration": 0.1,
                "tempo": 120.0
            },
            {
                "start_time": 14.3613636,
                "end_time": 14.4772727,
                "pitch": 40,
                "velocity": 80,
                "duration": 0.1159091,
                "tempo": 120.0
            },
            {
                "start_time": 14.5795455,
                "end_time": 14.7840909,
                "pitch": 28,
                "velocity": 80,
                "duration": 0.2045455,
                "tempo": 120.0
            },
            {
                "start_time": 14.7863636,
                "end_time": 14.9909091,
                "pitch": 40,
                "velocity": 80,
                "duration": 0.2045455,
                "tempo": 120.0
            },
            {
                "start_time": 14.9931818,
                "end_time": 15.2136364,
                "pitch": 28,
                "velocity": 80,
                "duration": 0.2204545,
                "tempo": 120.0
            },
            {
                "start_time": 15.2136364,
                "end_time": 15.3136364,
                "pitch": 28,
                "velocity": 80,
                "duration": 0.1,
                "tempo": 120.0
            },
            {
                "start_time": 15.3159091,
                "end_time": 15.4340909,
                "pitch": 28,
                "velocity": 80,
                "duration": 0.1181818,
                "tempo": 120.0
            },
            {
                "start_time": 15.4363636,
                "end_time": 15.6522727,
                "pitch": 28,
                "velocity": 80,
                "duration": 0.2159091,
                "tempo": 120.0
            },
            {
                "start_time": 15.6522727,
                "end_time": 15.7522727,
                "pitch": 40,
                "velocity": 80,
                "duration": 0.1,
                "tempo": 120.0
            },
            {
                "start_time": 15.7522727,
                "end_time": 15.8522727,
                "pitch": 28,
                "velocity": 80,
                "duration": 0.1,
                "tempo": 120.0
            },
            {
                "start_time": 15.8522727,
                "end_time": 15.9659091,
                "pitch": 28,
                "velocity": 80,
                "duration": 0.1136364,
                "tempo": 120.0
            },
            {
                "start_time": 15.9659091,
                "end_time": 16.0636364,
                "pitch": 28,
                "velocity": 80,
                "duration": 0.0977273,
                "tempo": 120.0
            },
            {
                "start_time": 16.0659091,
                "end_time": 16.1795455,
                "pitch": 40,
                "velocity": 80,
                "duration": 0.1136364,
                "tempo": 120.0
            },
            {
                "start_time": 16.2772727,
                "end_time": 16.3931818,
                "pitch": 28,
                "velocity": 80,
                "duration": 0.1159091,
                "tempo": 120.0
            },
            {
                "start_time": 16.3931818,
                "end_time": 16.4931818,
                "pitch": 40,
                "velocity": 80,
                "duration": 0.1,
                "tempo": 120.0
            },
            {
                "start_time": 16.4954545,
                "end_time": 16.5931818,
                "pitch": 28,
                "velocity": 80,
                "duration": 0.0977273,
                "tempo": 120.0
            },
            {
                "start_time": 16.7113636,
                "end_time": 16.9295455,
                "pitch": 28,
                "velocity": 80,
                "duration": 0.2181818,
                "tempo": 120.0
            },
            {
                "start_time": 16.9295455,
                "end_time": 17.0272727,
                "pitch": 28,
                "velocity": 80,
                "duration": 0.0977273,
                "tempo": 120.0
            },
            {
                "start_time": 17.0295455,
                "end_time": 17.1454545,
                "pitch": 28,
                "velocity": 80,
                "duration": 0.1159091,
                "tempo": 120.0
            },
            {
                "start_time": 17.1477273,
                "end_time": 17.3454545,
                "pitch": 28,
                "velocity": 80,
                "duration": 0.1977273,
                "tempo": 120.0
            },
            {
                "start_time": 17.3477273,
                "end_time": 17.5636364,
                "pitch": 40,
                "velocity": 80,
                "duration": 0.2159091,
                "tempo": 120.0
            },
            {
                "start_time": 17.5636364,
                "end_time": 17.6772727,
                "pitch": 28,
                "velocity": 80,
                "duration": 0.1136364,
                "tempo": 120.0
            },
            {
                "start_time": 17.6772727,
                "end_time": 17.775,
                "pitch": 28,
                "velocity": 80,
                "duration": 0.0977273,
                "tempo": 120.0
            },
            {
                "start_time": 17.7772727,
                "end_time": 17.8886364,
                "pitch": 40,
                "velocity": 80,
                "duration": 0.1113636,
                "tempo": 120.0
            },
            {
                "start_time": 17.9886364,
                "end_time": 18.2045455,
                "pitch": 28,
                "velocity": 80,
                "duration": 0.2159091,
                "tempo": 120.0
            },
            {
                "start_time": 18.2068182,
                "end_time": 18.4227273,
                "pitch": 40,
                "velocity": 80,
                "duration": 0.2159091,
                "tempo": 120.0
            },
            {
                "start_time": 18.4227273,
                "end_time": 18.6386364,
                "pitch": 28,
                "velocity": 80,
                "duration": 0.2159091,
                "tempo": 120.0
            },
            {
                "start_time": 18.6409091,
                "end_time": 18.7386364,
                "pitch": 28,
                "velocity": 80,
                "duration": 0.0977273,
                "tempo": 120.0
            },
            {
                "start_time": 18.7409091,
                "end_time": 18.8386364,
                "pitch": 28,
                "velocity": 80,
                "duration": 0.0977273,
                "tempo": 120.0
            },
            {
                "start_time": 18.8409091,
                "end_time": 19.0522727,
                "pitch": 31,
                "velocity": 80,
                "duration": 0.2113636,
                "tempo": 120.0
            },
            {
                "start_time": 19.0522727,
                "end_time": 19.1659091,
                "pitch": 19,
                "velocity": 80,
                "duration": 0.1136364,
                "tempo": 120.0
            },
            {
                "start_time": 19.1659091,
                "end_time": 19.2636364,
                "pitch": 31,
                "velocity": 80,
                "duration": 0.0977273,
                "tempo": 120.0
            },
            {
                "start_time": 19.2659091,
                "end_time": 19.3818182,
                "pitch": 30,
                "velocity": 80,
                "duration": 0.1159091,
                "tempo": 120.0
            },
            {
                "start_time": 19.3818182,
                "end_time": 19.4818182,
                "pitch": 30,
                "velocity": 80,
                "duration": 0.1,
                "tempo": 120.0
            },
            {
                "start_time": 19.4818182,
                "end_time": 19.5818182,
                "pitch": 18,
                "velocity": 80,
                "duration": 0.1,
                "tempo": 120.0
            },
            {
                "start_time": 19.7,
                "end_time": 19.9159091,
                "pitch": 29,
                "velocity": 80,
                "duration": 0.2159091,
                "tempo": 120.0
            },
            {
                "start_time": 19.9159091,
                "end_time": 20.0159091,
                "pitch": 16,
                "velocity": 80,
                "duration": 0.1,
                "tempo": 120.0
            },
            {
                "start_time": 20.0159091,
                "end_time": 20.1340909,
                "pitch": 29,
                "velocity": 80,
                "duration": 0.1181818,
                "tempo": 120.0
            },
            {
                "start_time": 20.1340909,
                "end_time": 20.2340909,
                "pitch": 23,
                "velocity": 80,
                "duration": 0.1,
                "tempo": 120.0
            },
            {
                "start_time": 20.2363636,
                "end_time": 20.3363636,
                "pitch": 23,
                "velocity": 80,
                "duration": 0.1,
                "tempo": 120.0
            },
            {
                "start_time": 20.3386364,
                "end_time": 20.4568182,
                "pitch": 35,
                "velocity": 80,
                "duration": 0.1181818,
                "tempo": 120.0
            },
            {
                "start_time": 20.4568182,
                "end_time": 20.5590909,
                "pitch": 23,
                "velocity": 80,
                "duration": 0.1022727,
                "tempo": 120.0
            },
            {
                "start_time": 20.5613636,
                "end_time": 20.7659091,
                "pitch": 28,
                "velocity": 80,
                "duration": 0.2045455,
                "tempo": 120.0
            },
            {
                "start_time": 20.7659091,
                "end_time": 20.9727273,
                "pitch": 40,
                "velocity": 80,
                "duration": 0.2068182,
                "tempo": 120.0
            },
            {
                "start_time": 20.9727273,
                "end_time": 21.0727273,
                "pitch": 28,
                "velocity": 80,
                "duration": 0.1,
                "tempo": 120.0
            },
            {
                "start_time": 21.0727273,
                "end_time": 21.1886364,
                "pitch": 28,
                "velocity": 80,
                "duration": 0.1159091,
                "tempo": 120.0
            },
            {
                "start_time": 21.1909091,
                "end_time": 21.2909091,
                "pitch": 40,
                "velocity": 80,
                "duration": 0.1,
                "tempo": 120.0
            },
            {
                "start_time": 21.4090909,
                "end_time": 21.6295455,
                "pitch": 28,
                "velocity": 80,
                "duration": 0.2204545,
                "tempo": 120.0
            },
            {
                "start_time": 21.6295455,
                "end_time": 21.8340909,
                "pitch": 40,
                "velocity": 80,
                "duration": 0.2045455,
                "tempo": 120.0
            },
            {
                "start_time": 21.8340909,
                "end_time": 22.0409091,
                "pitch": 28,
                "velocity": 80,
                "duration": 0.2068182,
                "tempo": 120.0
            },
            {
                "start_time": 22.0409091,
                "end_time": 22.15,
                "pitch": 28,
                "velocity": 80,
                "duration": 0.1090909,
                "tempo": 120.0
            },
            {
                "start_time": 22.1522727,
                "end_time": 22.2477273,
                "pitch": 28,
                "velocity": 80,
                "duration": 0.0954545,
                "tempo": 120.0
            },
            {
                "start_time": 22.2477273,
                "end_time": 22.4681818,
                "pitch": 28,
                "velocity": 80,
                "duration": 0.2204545,
                "tempo": 120.0
            },
            {
                "start_time": 22.4681818,
                "end_time": 22.5704545,
                "pitch": 40,
                "velocity": 80,
                "duration": 0.1022727,
                "tempo": 120.0
            },
            {
                "start_time": 22.5704545,
                "end_time": 22.6909091,
                "pitch": 28,
                "velocity": 80,
                "duration": 0.1204545,
                "tempo": 120.0
            },
            {
                "start_time": 22.6909091,
                "end_time": 22.7909091,
                "pitch": 28,
                "velocity": 80,
                "duration": 0.1,
                "tempo": 120.0
            },
            {
                "start_time": 22.7909091,
                "end_time": 22.9068182,
                "pitch": 28,
                "velocity": 80,
                "duration": 0.1159091,
                "tempo": 120.0
            },
            {
                "start_time": 22.9090909,
                "end_time": 23.0068182,
                "pitch": 40,
                "velocity": 80,
                "duration": 0.0977273,
                "tempo": 120.0
            },
            {
                "start_time": 23.125,
                "end_time": 23.225,
                "pitch": 28,
                "velocity": 80,
                "duration": 0.1,
                "tempo": 120.0
            },
            {
                "start_time": 23.225,
                "end_time": 23.325,
                "pitch": 40,
                "velocity": 80,
                "duration": 0.1,
                "tempo": 120.0
            },
            {
                "start_time": 23.325,
                "end_time": 23.4409091,
                "pitch": 28,
                "velocity": 80,
                "duration": 0.1159091,
                "tempo": 120.0
            },
            {
                "start_time": 23.5431818,
                "end_time": 23.7545455,
                "pitch": 28,
                "velocity": 80,
                "duration": 0.2113636,
                "tempo": 120.0
            },
            {
                "start_time": 23.7545455,
                "end_time": 23.8681818,
                "pitch": 28,
                "velocity": 80,
                "duration": 0.1136364,
                "tempo": 120.0
            },
            {
                "start_time": 23.8681818,
                "end_time": 23.9659091,
                "pitch": 28,
                "velocity": 80,
                "duration": 0.0977273,
                "tempo": 120.0
            },
            {
                "start_time": 23.9681818,
                "end_time": 24.1840909,
                "pitch": 28,
                "velocity": 80,
                "duration": 0.2159091,
                "tempo": 120.0
            },
            {
                "start_time": 24.1840909,
                "end_time": 24.4,
                "pitch": 40,
                "velocity": 80,
                "duration": 0.2159091,
                "tempo": 120.0
            },
            {
                "start_time": 24.4022727,
                "end_time": 24.5,
                "pitch": 28,
                "velocity": 80,
                "duration": 0.0977273,
                "tempo": 120.0
            },
            {
                "start_time": 24.5022727,
                "end_time": 24.6181818,
                "pitch": 28,
                "velocity": 80,
                "duration": 0.1159091,
                "tempo": 120.0
            },
            {
                "start_time": 24.6181818,
                "end_time": 24.7181818,
                "pitch": 40,
                "velocity": 80,
                "duration": 0.1,
                "tempo": 120.0
            },
            {
                "start_time": 24.8181818,
                "end_time": 25.025,
                "pitch": 28,
                "velocity": 80,
                "duration": 0.2068182,
                "tempo": 120.0
            },
            {
                "start_time": 25.025,
                "end_time": 25.2318182,
                "pitch": 40,
                "velocity": 80,
                "duration": 0.2068182,
                "tempo": 120.0
            },
            {
                "start_time": 25.2318182,
                "end_time": 25.4522727,
                "pitch": 28,
                "velocity": 80,
                "duration": 0.2204545,
                "tempo": 120.0
            },
            {
                "start_time": 25.4545455,
                "end_time": 25.5545455,
                "pitch": 28,
                "velocity": 80,
                "duration": 0.1,
                "tempo": 120.0
            },
            {
                "start_time": 25.5568182,
                "end_time": 25.675,
                "pitch": 28,
                "velocity": 80,
                "duration": 0.1181818,
                "tempo": 120.0
            },
            {
                "start_time": 25.675,
                "end_time": 25.8909091,
                "pitch": 31,
                "velocity": 80,
                "duration": 0.2159091,
                "tempo": 120.0
            },
            {
                "start_time": 25.8931818,
                "end_time": 25.9909091,
                "pitch": 19,
                "velocity": 80,
                "duration": 0.0977273,
                "tempo": 120.0
            },
            {
                "start_time": 25.9931818,
                "end_time": 26.1090909,
                "pitch": 31,
                "velocity": 80,
                "duration": 0.1159091,
                "tempo": 120.0
            },
            {
                "start_time": 26.1113636,
                "end_time": 26.2113636,
                "pitch": 30,
                "velocity": 80,
                "duration": 0.1,
                "tempo": 120.0
            },
            {
                "start_time": 26.2113636,
                "end_time": 26.3136364,
                "pitch": 30,
                "velocity": 80,
                "duration": 0.1022727,
                "tempo": 120.0
            },
            {
                "start_time": 26.3136364,
                "end_time": 26.4318182,
                "pitch": 18,
                "velocity": 80,
                "duration": 0.1181818,
                "tempo": 120.0
            },
            {
                "start_time": 26.5363636,
                "end_time": 26.7431818,
                "pitch": 29,
                "velocity": 80,
                "duration": 0.2068182,
                "tempo": 120.0
            },
            {
                "start_time": 26.7431818,
                "end_time": 26.8522727,
                "pitch": 16,
                "velocity": 80,
                "duration": 0.1090909,
                "tempo": 120.0
            },
            {
                "start_time": 26.8545455,
                "end_time": 26.95,
                "pitch": 29,
                "velocity": 80,
                "duration": 0.0954545,
                "tempo": 120.0
            },
            {
                "start_time": 26.95,
                "end_time": 27.0477273,
                "pitch": 23,
                "velocity": 80,
                "duration": 0.0977273,
                "tempo": 120.0
            },
            {
                "start_time": 27.05,
                "end_time": 27.1659091,
                "pitch": 23,
                "velocity": 80,
                "duration": 0.1159091,
                "tempo": 120.0
            },
            {
                "start_time": 27.1659091,
                "end_time": 27.2659091,
                "pitch": 35,
                "velocity": 80,
                "duration": 0.1,
                "tempo": 120.0
            },
            {
                "start_time": 27.2659091,
                "end_time": 27.3840909,
                "pitch": 23,
                "velocity": 80,
                "duration": 0.1181818,
                "tempo": 120.0
            },
            {
                "start_time": 27.3840909,
                "end_time": 27.6045455,
                "pitch": 24,
                "velocity": 80,
                "duration": 0.2204545,
                "tempo": 120.0
            },
            {
                "start_time": 27.6068182,
                "end_time": 27.8090909,
                "pitch": 24,
                "velocity": 80,
                "duration": 0.2022727,
                "tempo": 120.0
            },
            {
                "start_time": 27.8113636,
                "end_time": 27.9204545,
                "pitch": 24,
                "velocity": 80,
                "duration": 0.1090909,
                "tempo": 120.0
            },
            {
                "start_time": 27.9204545,
                "end_time": 28.0159091,
                "pitch": 24,
                "velocity": 80,
                "duration": 0.0954545,
                "tempo": 120.0
            },
            {
                "start_time": 28.0181818,
                "end_time": 28.1272727,
                "pitch": 36,
                "velocity": 80,
                "duration": 0.1090909,
                "tempo": 120.0
            },
            {
                "start_time": 28.1295455,
                "end_time": 28.2227273,
                "pitch": 24,
                "velocity": 80,
                "duration": 0.0931818,
                "tempo": 120.0
            },
            {
                "start_time": 28.225,
                "end_time": 28.4409091,
                "pitch": 24,
                "velocity": 80,
                "duration": 0.2159091,
                "tempo": 120.0
            },
            {
                "start_time": 28.4409091,
                "end_time": 28.6568182,
                "pitch": 24,
                "velocity": 80,
                "duration": 0.2159091,
                "tempo": 120.0
            },
            {
                "start_time": 28.6590909,
                "end_time": 28.8795455,
                "pitch": 28,
                "velocity": 80,
                "duration": 0.2204545,
                "tempo": 120.0
            },
            {
                "start_time": 28.8795455,
                "end_time": 28.9818182,
                "pitch": 28,
                "velocity": 80,
                "duration": 0.1022727,
                "tempo": 120.0
            },
            {
                "start_time": 28.9818182,
                "end_time": 29.0840909,
                "pitch": 28,
                "velocity": 80,
                "duration": 0.1022727,
                "tempo": 120.0
            },
            {
                "start_time": 29.0840909,
                "end_time": 29.2909091,
                "pitch": 26,
                "velocity": 80,
                "duration": 0.2068182,
                "tempo": 120.0
            },
            {
                "start_time": 29.2909091,
                "end_time": 29.4977273,
                "pitch": 26,
                "velocity": 80,
                "duration": 0.2068182,
                "tempo": 120.0
            },
            {
                "start_time": 29.4977273,
                "end_time": 29.6136364,
                "pitch": 26,
                "velocity": 80,
                "duration": 0.1159091,
                "tempo": 120.0
            },
            {
                "start_time": 29.6136364,
                "end_time": 29.7136364,
                "pitch": 26,
                "velocity": 80,
                "duration": 0.1,
                "tempo": 120.0
            },
            {
                "start_time": 29.7159091,
                "end_time": 29.8136364,
                "pitch": 38,
                "velocity": 80,
                "duration": 0.0977273,
                "tempo": 120.0
            },
            {
                "start_time": 29.8159091,
                "end_time": 29.9318182,
                "pitch": 26,
                "velocity": 80,
                "duration": 0.1159091,
                "tempo": 120.0
            },
            {
                "start_time": 29.9318182,
                "end_time": 30.1545455,
                "pitch": 26,
                "velocity": 80,
                "duration": 0.2227273,
                "tempo": 120.0
            },
            {
                "start_time": 30.1545455,
                "end_time": 30.375,
                "pitch": 26,
                "velocity": 80,
                "duration": 0.2204545,
                "tempo": 120.0
            },
            {
                "start_time": 30.3772727,
                "end_time": 30.575,
                "pitch": 30,
                "velocity": 80,
                "duration": 0.1977273,
                "tempo": 120.0
            },
            {
                "start_time": 30.5772727,
                "end_time": 30.6931818,
                "pitch": 30,
                "velocity": 80,
                "duration": 0.1159091,
                "tempo": 120.0
            },
            {
                "start_time": 30.6931818,
                "end_time": 30.7931818,
                "pitch": 30,
                "velocity": 80,
                "duration": 0.1,
                "tempo": 120.0
            },
            {
                "start_time": 30.7931818,
                "end_time": 31.0,
                "pitch": 28,
                "velocity": 80,
                "duration": 0.2068182,
                "tempo": 120.0
            },
            {
                "start_time": 31.0,
                "end_time": 31.2068182,
                "pitch": 28,
                "velocity": 80,
                "duration": 0.2068182,
                "tempo": 120.0
            },
            {
                "start_time": 31.2068182,
                "end_time": 31.3068182,
                "pitch": 28,
                "velocity": 80,
                "duration": 0.1,
                "tempo": 120.0
            },
            {
                "start_time": 31.3090909,
                "end_time": 31.4272727,
                "pitch": 28,
                "velocity": 80,
                "duration": 0.1181818,
                "tempo": 120.0
            },
            {
                "start_time": 31.4295455,
                "end_time": 31.5295455,
                "pitch": 40,
                "velocity": 80,
                "duration": 0.1,
                "tempo": 120.0
            },
            {
                "start_time": 31.5318182,
                "end_time": 31.65,
                "pitch": 28,
                "velocity": 80,
                "duration": 0.1181818,
                "tempo": 120.0
            },
            {
                "start_time": 31.65,
                "end_time": 31.8659091,
                "pitch": 28,
                "velocity": 80,
                "duration": 0.2159091,
                "tempo": 120.0
            },
            {
                "start_time": 31.8681818,
                "end_time": 32.0659091,
                "pitch": 28,
                "velocity": 80,
                "duration": 0.1977273,
                "tempo": 120.0
            },
            {
                "start_time": 32.0681818,
                "end_time": 32.2795455,
                "pitch": 28,
                "velocity": 80,
                "duration": 0.2113636,
                "tempo": 120.0
            },
            {
                "start_time": 32.2795455,
                "end_time": 32.3931818,
                "pitch": 28,
                "velocity": 80,
                "duration": 0.1136364,
                "tempo": 120.0
            },
            {
                "start_time": 32.3954545,
                "end_time": 32.4909091,
                "pitch": 28,
                "velocity": 80,
                "duration": 0.0954545,
                "tempo": 120.0
            },
            {
                "start_time": 32.4931818,
                "end_time": 32.7090909,
                "pitch": 31,
                "velocity": 80,
                "duration": 0.2159091,
                "tempo": 120.0
            },
            {
                "start_time": 32.7090909,
                "end_time": 32.8090909,
                "pitch": 31,
                "velocity": 80,
                "duration": 0.1,
                "tempo": 120.0
            },
            {
                "start_time": 32.8090909,
                "end_time": 32.9272727,
                "pitch": 43,
                "velocity": 80,
                "duration": 0.1181818,
                "tempo": 120.0
            },
            {
                "start_time": 32.9272727,
                "end_time": 33.025,
                "pitch": 31,
                "velocity": 80,
                "duration": 0.0977273,
                "tempo": 120.0
            },
            {
                "start_time": 33.0272727,
                "end_time": 33.1431818,
                "pitch": 31,
                "velocity": 80,
                "duration": 0.1159091,
                "tempo": 120.0
            },
            {
                "start_time": 33.1431818,
                "end_time": 33.2431818,
                "pitch": 43,
                "velocity": 80,
                "duration": 0.1,
                "tempo": 120.0
            },
            {
                "start_time": 33.2454545,
                "end_time": 33.3613636,
                "pitch": 31,
                "velocity": 80,
                "duration": 0.1159091,
                "tempo": 120.0
            },
            {
                "start_time": 33.3613636,
                "end_time": 33.5613636,
                "pitch": 31,
                "velocity": 80,
                "duration": 0.2,
                "tempo": 120.0
            },
            {
                "start_time": 33.5613636,
                "end_time": 33.7772727,
                "pitch": 31,
                "velocity": 80,
                "duration": 0.2159091,
                "tempo": 120.0
            },
            {
                "start_time": 33.7795455,
                "end_time": 33.9909091,
                "pitch": 31,
                "velocity": 80,
                "duration": 0.2113636,
                "tempo": 120.0
            },
            {
                "start_time": 33.9909091,
                "end_time": 34.1045455,
                "pitch": 31,
                "velocity": 80,
                "duration": 0.1136364,
                "tempo": 120.0
            },
            {
                "start_time": 34.1045455,
                "end_time": 34.2022727,
                "pitch": 31,
                "velocity": 80,
                "duration": 0.0977273,
                "tempo": 120.0
            },
            {
                "start_time": 34.2045455,
                "end_time": 34.4204545,
                "pitch": 21,
                "velocity": 80,
                "duration": 0.2159091,
                "tempo": 120.0
            },
            {
                "start_time": 34.4204545,
                "end_time": 34.6363636,
                "pitch": 21,
                "velocity": 80,
                "duration": 0.2159091,
                "tempo": 120.0
            },
            {
                "start_time": 34.6386364,
                "end_time": 34.7363636,
                "pitch": 21,
                "velocity": 80,
                "duration": 0.0977273,
                "tempo": 120.0
            },
            {
                "start_time": 34.7363636,
                "end_time": 34.8545455,
                "pitch": 21,
                "velocity": 80,
                "duration": 0.1181818,
                "tempo": 120.0
            },
            {
                "start_time": 34.8545455,
                "end_time": 34.9545455,
                "pitch": 33,
                "velocity": 80,
                "duration": 0.1,
                "tempo": 120.0
            },
            {
                "start_time": 34.9545455,
                "end_time": 35.0545455,
                "pitch": 21,
                "velocity": 80,
                "duration": 0.1,
                "tempo": 120.0
            },
            {
                "start_time": 35.0545455,
                "end_time": 35.2659091,
                "pitch": 21,
                "velocity": 80,
                "duration": 0.2113636,
                "tempo": 120.0
            },
            {
                "start_time": 35.2681818,
                "end_time": 35.4795455,
                "pitch": 21,
                "velocity": 80,
                "duration": 0.2113636,
                "tempo": 120.0
            },
            {
                "start_time": 35.4795455,
                "end_time": 35.6954545,
                "pitch": 21,
                "velocity": 80,
                "duration": 0.2159091,
                "tempo": 120.0
            },
            {
                "start_time": 35.6977273,
                "end_time": 35.7977273,
                "pitch": 21,
                "velocity": 80,
                "duration": 0.1,
                "tempo": 120.0
            },
            {
                "start_time": 35.7977273,
                "end_time": 35.9136364,
                "pitch": 21,
                "velocity": 80,
                "duration": 0.1159091,
                "tempo": 120.0
            },
            {
                "start_time": 35.9159091,
                "end_time": 36.1295455,
                "pitch": 23,
                "velocity": 80,
                "duration": 0.2136364,
                "tempo": 120.0
            },
            {
                "start_time": 36.1318182,
                "end_time": 36.2295455,
                "pitch": 23,
                "velocity": 80,
                "duration": 0.0977273,
                "tempo": 120.0
            },
            {
                "start_time": 36.2318182,
                "end_time": 36.3477273,
                "pitch": 35,
                "velocity": 80,
                "duration": 0.1159091,
                "tempo": 120.0
            },
            {
                "start_time": 36.35,
                "end_time": 36.45,
                "pitch": 23,
                "velocity": 80,
                "duration": 0.1,
                "tempo": 120.0
            },
            {
                "start_time": 36.45,
                "end_time": 36.5522727,
                "pitch": 23,
                "velocity": 80,
                "duration": 0.1022727,
                "tempo": 120.0
            },
            {
                "start_time": 36.5522727,
                "end_time": 36.6727273,
                "pitch": 35,
                "velocity": 80,
                "duration": 0.1204545,
                "tempo": 120.0
            },
            {
                "start_time": 36.6727273,
                "end_time": 36.775,
                "pitch": 26,
                "velocity": 80,
                "duration": 0.1022727,
                "tempo": 120.0
            },
            {
                "start_time": 36.775,
                "end_time": 36.9818182,
                "pitch": 26,
                "velocity": 80,
                "duration": 0.2068182,
                "tempo": 120.0
            },
            {
                "start_time": 36.9818182,
                "end_time": 37.1886364,
                "pitch": 27,
                "velocity": 80,
                "duration": 0.2068182,
                "tempo": 120.0
            },
            {
                "start_time": 37.1886364,
                "end_time": 37.2863636,
                "pitch": 40,
                "velocity": 80,
                "duration": 0.0977273,
                "tempo": 120.0
            },
            {
                "start_time": 37.2886364,
                "end_time": 37.4045455,
                "pitch": 42,
                "velocity": 80,
                "duration": 0.1159091,
                "tempo": 120.0
            },
            {
                "start_time": 37.4068182,
                "end_time": 37.5045455,
                "pitch": 43,
                "velocity": 80,
                "duration": 0.0977273,
                "tempo": 120.0
            },
            {
                "start_time": 37.5045455,
                "end_time": 37.6227273,
                "pitch": 40,
                "velocity": 80,
                "duration": 0.1181818,
                "tempo": 120.0
            },
            {
                "start_time": 37.6227273,
                "end_time": 37.8431818,
                "pitch": 24,
                "velocity": 80,
                "duration": 0.2204545,
                "tempo": 120.0
            },
            {
                "start_time": 37.8454545,
                "end_time": 37.9636364,
                "pitch": 24,
                "velocity": 80,
                "duration": 0.1181818,
                "tempo": 120.0
            },
            {
                "start_time": 37.9636364,
                "end_time": 38.0659091,
                "pitch": 36,
                "velocity": 80,
                "duration": 0.1022727,
                "tempo": 120.0
            },
            {
                "start_time": 38.0659091,
                "end_time": 38.1818182,
                "pitch": 24,
                "velocity": 80,
                "duration": 0.1159091,
                "tempo": 120.0
            },
            {
                "start_time": 38.1818182,
                "end_time": 38.2818182,
                "pitch": 24,
                "velocity": 80,
                "duration": 0.1,
                "tempo": 120.0
            },
            {
                "start_time": 38.2840909,
                "end_time": 38.5,
                "pitch": 36,
                "velocity": 80,
                "duration": 0.2159091,
                "tempo": 120.0
            },
            {
                "start_time": 38.5,
                "end_time": 38.7159091,
                "pitch": 24,
                "velocity": 80,
                "duration": 0.2159091,
                "tempo": 120.0
            },
            {
                "start_time": 38.7181818,
                "end_time": 38.8159091,
                "pitch": 24,
                "velocity": 80,
                "duration": 0.0977273,
                "tempo": 120.0
            },
            {
                "start_time": 38.8181818,
                "end_time": 38.9340909,
                "pitch": 36,
                "velocity": 80,
                "duration": 0.1159091,
                "tempo": 120.0
            },
            {
                "start_time": 38.9340909,
                "end_time": 39.1340909,
                "pitch": 23,
                "velocity": 80,
                "duration": 0.2,
                "tempo": 120.0
            },
            {
                "start_time": 39.1340909,
                "end_time": 39.3522727,
                "pitch": 23,
                "velocity": 80,
                "duration": 0.2181818,
                "tempo": 120.0
            },
            {
                "start_time": 39.3522727,
                "end_time": 39.5636364,
                "pitch": 21,
                "velocity": 80,
                "duration": 0.2113636,
                "tempo": 120.0
            },
            {
                "start_time": 39.5636364,
                "end_time": 39.6772727,
                "pitch": 21,
                "velocity": 80,
                "duration": 0.1136364,
                "tempo": 120.0
            },
            {
                "start_time": 39.6795455,
                "end_time": 39.7772727,
                "pitch": 33,
                "velocity": 80,
                "duration": 0.0977273,
                "tempo": 120.0
            },
            {
                "start_time": 39.7772727,
                "end_time": 39.875,
                "pitch": 23,
                "velocity": 80,
                "duration": 0.0977273,
                "tempo": 120.0
            },
            {
                "start_time": 39.8772727,
                "end_time": 39.9931818,
                "pitch": 23,
                "velocity": 80,
                "duration": 0.1159091,
                "tempo": 120.0
            },
            {
                "start_time": 39.9931818,
                "end_time": 40.2113636,
                "pitch": 35,
                "velocity": 80,
                "duration": 0.2181818,
                "tempo": 120.0
            },
            {
                "start_time": 40.2113636,
                "end_time": 40.4272727,
                "pitch": 36,
                "velocity": 80,
                "duration": 0.2159091,
                "tempo": 120.0
            },
            {
                "start_time": 40.4272727,
                "end_time": 40.5272727,
                "pitch": 35,
                "velocity": 80,
                "duration": 0.1,
                "tempo": 120.0
            },
            {
                "start_time": 40.5272727,
                "end_time": 40.6272727,
                "pitch": 33,
                "velocity": 80,
                "duration": 0.1,
                "tempo": 120.0
            },
            {
                "start_time": 40.6295455,
                "end_time": 40.7409091,
                "pitch": 26,
                "velocity": 80,
                "duration": 0.1113636,
                "tempo": 120.0
            },
            {
                "start_time": 40.7431818,
                "end_time": 40.8409091,
                "pitch": 38,
                "velocity": 80,
                "duration": 0.0977273,
                "tempo": 120.0
            },
            {
                "start_time": 40.8409091,
                "end_time": 40.9545455,
                "pitch": 36,
                "velocity": 80,
                "duration": 0.1136364,
                "tempo": 120.0
            },
            {
                "start_time": 40.9545455,
                "end_time": 41.0522727,
                "pitch": 35,
                "velocity": 80,
                "duration": 0.0977273,
                "tempo": 120.0
            },
            {
                "start_time": 41.0545455,
                "end_time": 41.2704545,
                "pitch": 24,
                "velocity": 80,
                "duration": 0.2159091,
                "tempo": 120.0
            },
            {
                "start_time": 41.2704545,
                "end_time": 41.3704545,
                "pitch": 24,
                "velocity": 80,
                "duration": 0.1,
                "tempo": 120.0
            },
            {
                "start_time": 41.3704545,
                "end_time": 41.4863636,
                "pitch": 36,
                "velocity": 80,
                "duration": 0.1159091,
                "tempo": 120.0
            },
            {
                "start_time": 41.4886364,
                "end_time": 41.5886364,
                "pitch": 24,
                "velocity": 80,
                "duration": 0.1,
                "tempo": 120.0
            },
            {
                "start_time": 41.5909091,
                "end_time": 41.7090909,
                "pitch": 24,
                "velocity": 80,
                "duration": 0.1181818,
                "tempo": 120.0
            },
            {
                "start_time": 41.7090909,
                "end_time": 41.9318182,
                "pitch": 36,
                "velocity": 80,
                "duration": 0.2227273,
                "tempo": 120.0
            },
            {
                "start_time": 41.9318182,
                "end_time": 42.1318182,
                "pitch": 24,
                "velocity": 80,
                "duration": 0.2,
                "tempo": 120.0
            },
            {
                "start_time": 42.1318182,
                "end_time": 42.2477273,
                "pitch": 24,
                "velocity": 80,
                "duration": 0.1159091,
                "tempo": 120.0
            },
            {
                "start_time": 42.2477273,
                "end_time": 42.3477273,
                "pitch": 36,
                "velocity": 80,
                "duration": 0.1,
                "tempo": 120.0
            },
            {
                "start_time": 42.35,
                "end_time": 42.5545455,
                "pitch": 23,
                "velocity": 80,
                "duration": 0.2045455,
                "tempo": 120.0
            },
            {
                "start_time": 42.5545455,
                "end_time": 42.7613636,
                "pitch": 23,
                "velocity": 80,
                "duration": 0.2068182,
                "tempo": 120.0
            },
            {
                "start_time": 42.7636364,
                "end_time": 42.9840909,
                "pitch": 21,
                "velocity": 80,
                "duration": 0.2204545,
                "tempo": 120.0
            },
            {
                "start_time": 42.9840909,
                "end_time": 43.0863636,
                "pitch": 21,
                "velocity": 80,
                "duration": 0.1022727,
                "tempo": 120.0
            },
            {
                "start_time": 43.0863636,
                "end_time": 43.2045455,
                "pitch": 33,
                "velocity": 80,
                "duration": 0.1181818,
                "tempo": 120.0
            },
            {
                "start_time": 43.2068182,
                "end_time": 43.3045455,
                "pitch": 23,
                "velocity": 80,
                "duration": 0.0977273,
                "tempo": 120.0
            },
            {
                "start_time": 43.3045455,
                "end_time": 43.4227273,
                "pitch": 23,
                "velocity": 80,
                "duration": 0.1181818,
                "tempo": 120.0
            },
            {
                "start_time": 43.4227273,
                "end_time": 43.6227273,
                "pitch": 35,
                "velocity": 80,
                "duration": 0.2,
                "tempo": 120.0
            },
            {
                "start_time": 43.6227273,
                "end_time": 43.8295455,
                "pitch": 36,
                "velocity": 80,
                "duration": 0.2068182,
                "tempo": 120.0
            },
            {
                "start_time": 43.8295455,
                "end_time": 43.9409091,
                "pitch": 35,
                "velocity": 80,
                "duration": 0.1113636,
                "tempo": 120.0
            },
            {
                "start_time": 43.9409091,
                "end_time": 44.0363636,
                "pitch": 33,
                "velocity": 80,
                "duration": 0.0954545,
                "tempo": 120.0
            },
            {
                "start_time": 44.0363636,
                "end_time": 44.1545455,
                "pitch": 26,
                "velocity": 80,
                "duration": 0.1181818,
                "tempo": 120.0
            },
            {
                "start_time": 44.1545455,
                "end_time": 44.2568182,
                "pitch": 38,
                "velocity": 80,
                "duration": 0.1022727,
                "tempo": 120.0
            },
            {
                "start_time": 44.2590909,
                "end_time": 44.3590909,
                "pitch": 36,
                "velocity": 80,
                "duration": 0.1,
                "tempo": 120.0
            },
            {
                "start_time": 44.3590909,
                "end_time": 44.4795455,
                "pitch": 35,
                "velocity": 80,
                "duration": 0.1204545,
                "tempo": 120.0
            },
            {
                "start_time": 44.4795455,
                "end_time": 44.6954545,
                "pitch": 28,
                "velocity": 80,
                "duration": 0.2159091,
                "tempo": 120.0
            },
            {
                "start_time": 44.6977273,
                "end_time": 44.9136364,
                "pitch": 40,
                "velocity": 80,
                "duration": 0.2159091,
                "tempo": 120.0
            },
            {
                "start_time": 44.9136364,
                "end_time": 45.0136364,
                "pitch": 28,
                "velocity": 80,
                "duration": 0.1,
                "tempo": 120.0
            },
            {
                "start_time": 45.0136364,
                "end_time": 45.1136364,
                "pitch": 28,
                "velocity": 80,
                "duration": 0.1,
                "tempo": 120.0
            },
            {
                "start_time": 45.1136364,
                "end_time": 45.2295455,
                "pitch": 40,
                "velocity": 80,
                "duration": 0.1159091,
                "tempo": 120.0
            },
            {
                "start_time": 45.3318182,
                "end_time": 45.5363636,
                "pitch": 28,
                "velocity": 80,
                "duration": 0.2045455,
                "tempo": 120.0
            },
            {
                "start_time": 45.5386364,
                "end_time": 45.7431818,
                "pitch": 40,
                "velocity": 80,
                "duration": 0.2045455,
                "tempo": 120.0
            },
            {
                "start_time": 45.7454545,
                "end_time": 45.9659091,
                "pitch": 28,
                "velocity": 80,
                "duration": 0.2204545,
                "tempo": 120.0
            },
            {
                "start_time": 45.9659091,
                "end_time": 46.0681818,
                "pitch": 28,
                "velocity": 80,
                "duration": 0.1022727,
                "tempo": 120.0
            },
            {
                "start_time": 46.0681818,
                "end_time": 46.1863636,
                "pitch": 28,
                "velocity": 80,
                "duration": 0.1181818,
                "tempo": 120.0
            },
            {
                "start_time": 46.1886364,
                "end_time": 46.4045455,
                "pitch": 28,
                "velocity": 80,
                "duration": 0.2159091,
                "tempo": 120.0
            },
            {
                "start_time": 46.4045455,
                "end_time": 46.5045455,
                "pitch": 40,
                "velocity": 80,
                "duration": 0.1,
                "tempo": 120.0
            },
            {
                "start_time": 46.5045455,
                "end_time": 46.6045455,
                "pitch": 28,
                "velocity": 80,
                "duration": 0.1,
                "tempo": 120.0
            },
            {
                "start_time": 46.6068182,
                "end_time": 46.7181818,
                "pitch": 28,
                "velocity": 80,
                "duration": 0.1113636,
                "tempo": 120.0
            },
            {
                "start_time": 46.7204545,
                "end_time": 46.8181818,
                "pitch": 28,
                "velocity": 80,
                "duration": 0.0977273,
                "tempo": 120.0
            },
            {
                "start_time": 46.8181818,
                "end_time": 46.9318182,
                "pitch": 40,
                "velocity": 80,
                "duration": 0.1136364,
                "tempo": 120.0
            },
            {
                "start_time": 47.0318182,
                "end_time": 47.1454545,
                "pitch": 28,
                "velocity": 80,
                "duration": 0.1136364,
                "tempo": 120.0
            },
            {
                "start_time": 47.1477273,
                "end_time": 47.2477273,
                "pitch": 40,
                "velocity": 80,
                "duration": 0.1,
                "tempo": 120.0
            },
            {
                "start_time": 47.2477273,
                "end_time": 47.3477273,
                "pitch": 28,
                "velocity": 80,
                "duration": 0.1,
                "tempo": 120.0
            },
            {
                "start_time": 47.4659091,
                "end_time": 47.6818182,
                "pitch": 28,
                "velocity": 80,
                "duration": 0.2159091,
                "tempo": 120.0
            },
            {
                "start_time": 47.6818182,
                "end_time": 47.7818182,
                "pitch": 28,
                "velocity": 80,
                "duration": 0.1,
                "tempo": 120.0
            },
            {
                "start_time": 47.7818182,
                "end_time": 47.8977273,
                "pitch": 28,
                "velocity": 80,
                "duration": 0.1159091,
                "tempo": 120.0
            },
            {
                "start_time": 47.9,
                "end_time": 48.0977273,
                "pitch": 28,
                "velocity": 80,
                "duration": 0.1977273,
                "tempo": 120.0
            },
            {
                "start_time": 48.1,
                "end_time": 48.3159091,
                "pitch": 40,
                "velocity": 80,
                "duration": 0.2159091,
                "tempo": 120.0
            },
            {
                "start_time": 48.3159091,
                "end_time": 48.4295455,
                "pitch": 28,
                "velocity": 80,
                "duration": 0.1136364,
                "tempo": 120.0
            },
            {
                "start_time": 48.4295455,
                "end_time": 48.5272727,
                "pitch": 28,
                "velocity": 80,
                "duration": 0.0977273,
                "tempo": 120.0
            },
            {
                "start_time": 48.5295455,
                "end_time": 48.6431818,
                "pitch": 40,
                "velocity": 80,
                "duration": 0.1136364,
                "tempo": 120.0
            },
            {
                "start_time": 48.7409091,
                "end_time": 48.9568182,
                "pitch": 28,
                "velocity": 80,
                "duration": 0.2159091,
                "tempo": 120.0
            },
            {
                "start_time": 48.9590909,
                "end_time": 49.175,
                "pitch": 40,
                "velocity": 80,
                "duration": 0.2159091,
                "tempo": 120.0
            },
            {
                "start_time": 49.175,
                "end_time": 49.3977273,
                "pitch": 28,
                "velocity": 80,
                "duration": 0.2227273,
                "tempo": 120.0
            },
            {
                "start_time": 49.3977273,
                "end_time": 49.4977273,
                "pitch": 28,
                "velocity": 80,
                "duration": 0.1,
                "tempo": 120.0
            },
            {
                "start_time": 49.5,
                "end_time": 49.6022727,
                "pitch": 28,
                "velocity": 80,
                "duration": 0.1022727,
                "tempo": 120.0
            },
            {
                "start_time": 49.6022727,
                "end_time": 49.8068182,
                "pitch": 31,
                "velocity": 80,
                "duration": 0.2045455,
                "tempo": 120.0
            },
            {
                "start_time": 49.8090909,
                "end_time": 49.9181818,
                "pitch": 19,
                "velocity": 80,
                "duration": 0.1090909,
                "tempo": 120.0
            },
            {
                "start_time": 49.9204545,
                "end_time": 50.0159091,
                "pitch": 31,
                "velocity": 80,
                "duration": 0.0954545,
                "tempo": 120.0
            },
            {
                "start_time": 50.0159091,
                "end_time": 50.1318182,
                "pitch": 30,
                "velocity": 80,
                "duration": 0.1159091,
                "tempo": 120.0
            },
            {
                "start_time": 50.1318182,
                "end_time": 50.2318182,
                "pitch": 30,
                "velocity": 80,
                "duration": 0.1,
                "tempo": 120.0
            },
            {
                "start_time": 50.2318182,
                "end_time": 50.3318182,
                "pitch": 18,
                "velocity": 80,
                "duration": 0.1,
                "tempo": 120.0
            },
            {
                "start_time": 50.45,
                "end_time": 50.6704545,
                "pitch": 29,
                "velocity": 80,
                "duration": 0.2204545,
                "tempo": 120.0
            },
            {
                "start_time": 50.6704545,
                "end_time": 50.7727273,
                "pitch": 16,
                "velocity": 80,
                "duration": 0.1022727,
                "tempo": 120.0
            },
            {
                "start_time": 50.7727273,
                "end_time": 50.8931818,
                "pitch": 29,
                "velocity": 80,
                "duration": 0.1204545,
                "tempo": 120.0
            },
            {
                "start_time": 50.8931818,
                "end_time": 50.9931818,
                "pitch": 23,
                "velocity": 80,
                "duration": 0.1,
                "tempo": 120.0
            },
            {
                "start_time": 50.9931818,
                "end_time": 51.0931818,
                "pitch": 23,
                "velocity": 80,
                "duration": 0.1,
                "tempo": 120.0
            },
            {
                "start_time": 51.0931818,
                "end_time": 51.2090909,
                "pitch": 35,
                "velocity": 80,
                "duration": 0.1159091,
                "tempo": 120.0
            },
            {
                "start_time": 51.2113636,
                "end_time": 51.3090909,
                "pitch": 23,
                "velocity": 80,
                "duration": 0.0977273,
                "tempo": 120.0
            },
            {
                "start_time": 51.3113636,
                "end_time": 51.5159091,
                "pitch": 28,
                "velocity": 80,
                "duration": 0.2045455,
                "tempo": 120.0
            },
            {
                "start_time": 51.5181818,
                "end_time": 51.7227273,
                "pitch": 40,
                "velocity": 80,
                "duration": 0.2045455,
                "tempo": 120.0
            },
            {
                "start_time": 51.725,
                "end_time": 51.825,
                "pitch": 28,
                "velocity": 80,
                "duration": 0.1,
                "tempo": 120.0
            },
            {
                "start_time": 51.825,
                "end_time": 51.9454545,
                "pitch": 28,
                "velocity": 80,
                "duration": 0.1204545,
                "tempo": 120.0
            },
            {
                "start_time": 51.9454545,
                "end_time": 52.0477273,
                "pitch": 40,
                "velocity": 80,
                "duration": 0.1022727,
                "tempo": 120.0
            },
            {
                "start_time": 52.1681818,
                "end_time": 52.3840909,
                "pitch": 28,
                "velocity": 80,
                "duration": 0.2159091,
                "tempo": 120.0
            },
            {
                "start_time": 52.3840909,
                "end_time": 52.5840909,
                "pitch": 40,
                "velocity": 80,
                "duration": 0.2,
                "tempo": 120.0
            },
            {
                "start_time": 52.5863636,
                "end_time": 52.7977273,
                "pitch": 28,
                "velocity": 80,
                "duration": 0.2113636,
                "tempo": 120.0
            },
            {
                "start_time": 52.7977273,
                "end_time": 52.9113636,
                "pitch": 28,
                "velocity": 80,
                "duration": 0.1136364,
                "tempo": 120.0
            },
            {
                "start_time": 52.9113636,
                "end_time": 53.0090909,
                "pitch": 28,
                "velocity": 80,
                "duration": 0.0977273,
                "tempo": 120.0
            },
            {
                "start_time": 53.0113636,
                "end_time": 53.225,
                "pitch": 28,
                "velocity": 80,
                "duration": 0.2136364,
                "tempo": 120.0
            },
            {
                "start_time": 53.2272727,
                "end_time": 53.325,
                "pitch": 40,
                "velocity": 80,
                "duration": 0.0977273,
                "tempo": 120.0
            },
            {
                "start_time": 53.3272727,
                "end_time": 53.4431818,
                "pitch": 28,
                "velocity": 80,
                "duration": 0.1159091,
                "tempo": 120.0
            },
            {
                "start_time": 53.4431818,
                "end_time": 53.5431818,
                "pitch": 28,
                "velocity": 80,
                "duration": 0.1,
                "tempo": 120.0
            },
            {
                "start_time": 53.5431818,
                "end_time": 53.6590909,
                "pitch": 28,
                "velocity": 80,
                "duration": 0.1159091,
                "tempo": 120.0
            },
            {
                "start_time": 53.6613636,
                "end_time": 53.7613636,
                "pitch": 40,
                "velocity": 80,
                "duration": 0.1,
                "tempo": 120.0
            },
            {
                "start_time": 53.8795455,
                "end_time": 53.9772727,
                "pitch": 28,
                "velocity": 80,
                "duration": 0.0977273,
                "tempo": 120.0
            },
            {
                "start_time": 53.9772727,
                "end_time": 54.0772727,
                "pitch": 40,
                "velocity": 80,
                "duration": 0.1,
                "tempo": 120.0
            },
            {
                "start_time": 54.0795455,
                "end_time": 54.1931818,
                "pitch": 28,
                "velocity": 80,
                "duration": 0.1136364,
                "tempo": 120.0
            },
            {
                "start_time": 54.2954545,
                "end_time": 54.5068182,
                "pitch": 28,
                "velocity": 80,
                "duration": 0.2113636,
                "tempo": 120.0
            },
            {
                "start_time": 54.5090909,
                "end_time": 54.6204545,
                "pitch": 28,
                "velocity": 80,
                "duration": 0.1113636,
                "tempo": 120.0
            },
            {
                "start_time": 54.6227273,
                "end_time": 54.7204545,
                "pitch": 28,
                "velocity": 80,
                "duration": 0.0977273,
                "tempo": 120.0
            },
            {
                "start_time": 54.7204545,
                "end_time": 54.9363636,
                "pitch": 28,
                "velocity": 80,
                "duration": 0.2159091,
                "tempo": 120.0
            },
            {
                "start_time": 54.9386364,
                "end_time": 55.1545455,
                "pitch": 40,
                "velocity": 80,
                "duration": 0.2159091,
                "tempo": 120.0
            },
            {
                "start_time": 55.1545455,
                "end_time": 55.2545455,
                "pitch": 28,
                "velocity": 80,
                "duration": 0.1,
                "tempo": 120.0
            },
            {
                "start_time": 55.2545455,
                "end_time": 55.3704545,
                "pitch": 28,
                "velocity": 80,
                "duration": 0.1159091,
                "tempo": 120.0
            },
            {
                "start_time": 55.3727273,
                "end_time": 55.4704545,
                "pitch": 40,
                "velocity": 80,
                "duration": 0.0977273,
                "tempo": 120.0
            },
            {
                "start_time": 55.5727273,
                "end_time": 55.7840909,
                "pitch": 28,
                "velocity": 80,
                "duration": 0.2113636,
                "tempo": 120.0
            },
            {
                "start_time": 55.7840909,
                "end_time": 55.9977273,
                "pitch": 40,
                "velocity": 80,
                "duration": 0.2136364,
                "tempo": 120.0
            },
            {
                "start_time": 55.9977273,
                "end_time": 56.2136364,
                "pitch": 28,
                "velocity": 80,
                "duration": 0.2159091,
                "tempo": 120.0
            },
            {
                "start_time": 56.2136364,
                "end_time": 56.3136364,
                "pitch": 28,
                "velocity": 80,
                "duration": 0.1,
                "tempo": 120.0
            },
            {
                "start_time": 56.3136364,
                "end_time": 56.4318182,
                "pitch": 28,
                "velocity": 80,
                "duration": 0.1181818,
                "tempo": 120.0
            },
            {
                "start_time": 56.4318182,
                "end_time": 56.6477273,
                "pitch": 31,
                "velocity": 80,
                "duration": 0.2159091,
                "tempo": 120.0
            },
            {
                "start_time": 56.6477273,
                "end_time": 56.7477273,
                "pitch": 19,
                "velocity": 80,
                "duration": 0.1,
                "tempo": 120.0
            },
            {
                "start_time": 56.7477273,
                "end_time": 56.8659091,
                "pitch": 31,
                "velocity": 80,
                "duration": 0.1181818,
                "tempo": 120.0
            },
            {
                "start_time": 56.8659091,
                "end_time": 56.9659091,
                "pitch": 30,
                "velocity": 80,
                "duration": 0.1,
                "tempo": 120.0
            },
            {
                "start_time": 56.9681818,
                "end_time": 57.0681818,
                "pitch": 30,
                "velocity": 80,
                "duration": 0.1,
                "tempo": 120.0
            },
            {
                "start_time": 57.0704545,
                "end_time": 57.1886364,
                "pitch": 18,
                "velocity": 80,
                "duration": 0.1181818,
                "tempo": 120.0
            },
            {
                "start_time": 57.2931818,
                "end_time": 57.4977273,
                "pitch": 29,
                "velocity": 80,
                "duration": 0.2045455,
                "tempo": 120.0
            },
            {
                "start_time": 57.4977273,
                "end_time": 57.6090909,
                "pitch": 16,
                "velocity": 80,
                "duration": 0.1113636,
                "tempo": 120.0
            },
            {
                "start_time": 57.6090909,
                "end_time": 57.7045455,
                "pitch": 29,
                "velocity": 80,
                "duration": 0.0954545,
                "tempo": 120.0
            },
            {
                "start_time": 57.7068182,
                "end_time": 57.8068182,
                "pitch": 23,
                "velocity": 80,
                "duration": 0.1,
                "tempo": 120.0
            },
            {
                "start_time": 57.8068182,
                "end_time": 57.925,
                "pitch": 23,
                "velocity": 80,
                "duration": 0.1181818,
                "tempo": 120.0
            },
            {
                "start_time": 57.9272727,
                "end_time": 58.0272727,
                "pitch": 35,
                "velocity": 80,
                "duration": 0.1,
                "tempo": 120.0
            },
            {
                "start_time": 58.0295455,
                "end_time": 58.1477273,
                "pitch": 23,
                "velocity": 80,
                "duration": 0.1181818,
                "tempo": 120.0
            },
            {
                "start_time": 58.15,
                "end_time": 58.3659091,
                "pitch": 24,
                "velocity": 80,
                "duration": 0.2159091,
                "tempo": 120.0
            },
            {
                "start_time": 58.3659091,
                "end_time": 58.5659091,
                "pitch": 24,
                "velocity": 80,
                "duration": 0.2,
                "tempo": 120.0
            },
            {
                "start_time": 58.5659091,
                "end_time": 58.6772727,
                "pitch": 24,
                "velocity": 80,
                "duration": 0.1113636,
                "tempo": 120.0
            },
            {
                "start_time": 58.6772727,
                "end_time": 58.7727273,
                "pitch": 24,
                "velocity": 80,
                "duration": 0.0954545,
                "tempo": 120.0
            },
            {
                "start_time": 58.7727273,
                "end_time": 58.8840909,
                "pitch": 36,
                "velocity": 80,
                "duration": 0.1113636,
                "tempo": 120.0
            },
            {
                "start_time": 58.8840909,
                "end_time": 58.9795455,
                "pitch": 24,
                "velocity": 80,
                "duration": 0.0954545,
                "tempo": 120.0
            },
            {
                "start_time": 58.9795455,
                "end_time": 59.1954545,
                "pitch": 24,
                "velocity": 80,
                "duration": 0.2159091,
                "tempo": 120.0
            },
            {
                "start_time": 59.1977273,
                "end_time": 59.4136364,
                "pitch": 24,
                "velocity": 80,
                "duration": 0.2159091,
                "tempo": 120.0
            },
            {
                "start_time": 59.4136364,
                "end_time": 59.6340909,
                "pitch": 28,
                "velocity": 80,
                "duration": 0.2204545,
                "tempo": 120.0
            },
            {
                "start_time": 59.6363636,
                "end_time": 59.7363636,
                "pitch": 28,
                "velocity": 80,
                "duration": 0.1,
                "tempo": 120.0
            },
            {
                "start_time": 59.7386364,
                "end_time": 59.8386364,
                "pitch": 28,
                "velocity": 80,
                "duration": 0.1,
                "tempo": 120.0
            },
            {
                "start_time": 59.8409091,
                "end_time": 60.0454545,
                "pitch": 26,
                "velocity": 80,
                "duration": 0.2045455,
                "tempo": 120.0
            },
            {
                "start_time": 60.0477273,
                "end_time": 60.2522727,
                "pitch": 26,
                "velocity": 80,
                "duration": 0.2045455,
                "tempo": 120.0
            },
            {
                "start_time": 60.2545455,
                "end_time": 60.3704545,
                "pitch": 26,
                "velocity": 80,
                "duration": 0.1159091,
                "tempo": 120.0
            },
            {
                "start_time": 60.3727273,
                "end_time": 60.475,
                "pitch": 26,
                "velocity": 80,
                "duration": 0.1022727,
                "tempo": 120.0
            },
            {
                "start_time": 60.475,
                "end_time": 60.5772727,
                "pitch": 38,
                "velocity": 80,
                "duration": 0.1022727,
                "tempo": 120.0
            },
            {
                "start_time": 60.5772727,
                "end_time": 60.6954545,
                "pitch": 26,
                "velocity": 80,
                "duration": 0.1181818,
                "tempo": 120.0
            },
            {
                "start_time": 60.6977273,
                "end_time": 60.9136364,
                "pitch": 26,
                "velocity": 80,
                "duration": 0.2159091,
                "tempo": 120.0
            },
            {
                "start_time": 60.9136364,
                "end_time": 61.1295455,
                "pitch": 26,
                "velocity": 80,
                "duration": 0.2159091,
                "tempo": 120.0
            },
            {
                "start_time": 61.1318182,
                "end_time": 61.3295455,
                "pitch": 30,
                "velocity": 80,
                "duration": 0.1977273,
                "tempo": 120.0
            },
            {
                "start_time": 61.3318182,
                "end_time": 61.4477273,
                "pitch": 30,
                "velocity": 80,
                "duration": 0.1159091,
                "tempo": 120.0
            },
            {
                "start_time": 61.4477273,
                "end_time": 61.5477273,
                "pitch": 30,
                "velocity": 80,
                "duration": 0.1,
                "tempo": 120.0
            },
            {
                "start_time": 61.55,
                "end_time": 61.7613636,
                "pitch": 28,
                "velocity": 80,
                "duration": 0.2113636,
                "tempo": 120.0
            },
            {
                "start_time": 61.7613636,
                "end_time": 61.9727273,
                "pitch": 28,
                "velocity": 80,
                "duration": 0.2113636,
                "tempo": 120.0
            },
            {
                "start_time": 61.975,
                "end_time": 62.0727273,
                "pitch": 28,
                "velocity": 80,
                "duration": 0.0977273,
                "tempo": 120.0
            },
            {
                "start_time": 62.0727273,
                "end_time": 62.1909091,
                "pitch": 28,
                "velocity": 80,
                "duration": 0.1181818,
                "tempo": 120.0
            },
            {
                "start_time": 62.1909091,
                "end_time": 62.2909091,
                "pitch": 40,
                "velocity": 80,
                "duration": 0.1,
                "tempo": 120.0
            },
            {
                "start_time": 62.2909091,
                "end_time": 62.4068182,
                "pitch": 28,
                "velocity": 80,
                "duration": 0.1159091,
                "tempo": 120.0
            },
            {
                "start_time": 62.4090909,
                "end_time": 62.625,
                "pitch": 28,
                "velocity": 80,
                "duration": 0.2159091,
                "tempo": 120.0
            },
            {
                "start_time": 62.625,
                "end_time": 62.825,
                "pitch": 28,
                "velocity": 80,
                "duration": 0.2,
                "tempo": 120.0
            },
            {
                "start_time": 62.825,
                "end_time": 63.0363636,
                "pitch": 28,
                "velocity": 80,
                "duration": 0.2113636,
                "tempo": 120.0
            },
            {
                "start_time": 63.0386364,
                "end_time": 63.1522727,
                "pitch": 28,
                "velocity": 80,
                "duration": 0.1136364,
                "tempo": 120.0
            },
            {
                "start_time": 63.1522727,
                "end_time": 63.25,
                "pitch": 28,
                "velocity": 80,
                "duration": 0.0977273,
                "tempo": 120.0
            },
            {
                "start_time": 63.25,
                "end_time": 63.4659091,
                "pitch": 31,
                "velocity": 80,
                "duration": 0.2159091,
                "tempo": 120.0
            },
            {
                "start_time": 63.4681818,
                "end_time": 63.5659091,
                "pitch": 31,
                "velocity": 80,
                "duration": 0.0977273,
                "tempo": 120.0
            },
            {
                "start_time": 63.5681818,
                "end_time": 63.6840909,
                "pitch": 43,
                "velocity": 80,
                "duration": 0.1159091,
                "tempo": 120.0
            },
            {
                "start_time": 63.6840909,
                "end_time": 63.7840909,
                "pitch": 31,
                "velocity": 80,
                "duration": 0.1,
                "tempo": 120.0
            },
            {
                "start_time": 63.7840909,
                "end_time": 63.9,
                "pitch": 31,
                "velocity": 80,
                "duration": 0.1159091,
                "tempo": 120.0
            },
            {
                "start_time": 63.9022727,
                "end_time": 64.0022727,
                "pitch": 43,
                "velocity": 80,
                "duration": 0.1,
                "tempo": 120.0
            },
            {
                "start_time": 64.0022727,
                "end_time": 64.1181818,
                "pitch": 31,
                "velocity": 80,
                "duration": 0.1159091,
                "tempo": 120.0
            },
            {
                "start_time": 64.1181818,
                "end_time": 64.3181818,
                "pitch": 31,
                "velocity": 80,
                "duration": 0.2,
                "tempo": 120.0
            },
            {
                "start_time": 64.3181818,
                "end_time": 64.5363636,
                "pitch": 31,
                "velocity": 80,
                "duration": 0.2181818,
                "tempo": 120.0
            },
            {
                "start_time": 64.5363636,
                "end_time": 64.7477273,
                "pitch": 31,
                "velocity": 80,
                "duration": 0.2113636,
                "tempo": 120.0
            },
            {
                "start_time": 64.75,
                "end_time": 64.8613636,
                "pitch": 31,
                "velocity": 80,
                "duration": 0.1113636,
                "tempo": 120.0
            },
            {
                "start_time": 64.8636364,
                "end_time": 64.9613636,
                "pitch": 31,
                "velocity": 80,
                "duration": 0.0977273,
                "tempo": 120.0
            },
            {
                "start_time": 64.9613636,
                "end_time": 65.1772727,
                "pitch": 21,
                "velocity": 80,
                "duration": 0.2159091,
                "tempo": 120.0
            },
            {
                "start_time": 65.1772727,
                "end_time": 65.3954545,
                "pitch": 21,
                "velocity": 80,
                "duration": 0.2181818,
                "tempo": 120.0
            },
            {
                "start_time": 65.3954545,
                "end_time": 65.4954545,
                "pitch": 21,
                "velocity": 80,
                "duration": 0.1,
                "tempo": 120.0
            },
            {
                "start_time": 65.4977273,
                "end_time": 65.6159091,
                "pitch": 21,
                "velocity": 80,
                "duration": 0.1181818,
                "tempo": 120.0
            },
            {
                "start_time": 65.6181818,
                "end_time": 65.7181818,
                "pitch": 33,
                "velocity": 80,
                "duration": 0.1,
                "tempo": 120.0
            },
            {
                "start_time": 65.7204545,
                "end_time": 65.8204545,
                "pitch": 21,
                "velocity": 80,
                "duration": 0.1,
                "tempo": 120.0
            },
            {
                "start_time": 65.8227273,
                "end_time": 66.0272727,
                "pitch": 21,
                "velocity": 80,
                "duration": 0.2045455,
                "tempo": 120.0
            },
            {
                "start_time": 66.0295455,
                "end_time": 66.2340909,
                "pitch": 21,
                "velocity": 80,
                "duration": 0.2045455,
                "tempo": 120.0
            },
            {
                "start_time": 66.2363636,
                "end_time": 66.4522727,
                "pitch": 21,
                "velocity": 80,
                "duration": 0.2159091,
                "tempo": 120.0
            },
            {
                "start_time": 66.4522727,
                "end_time": 66.5522727,
                "pitch": 21,
                "velocity": 80,
                "duration": 0.1,
                "tempo": 120.0
            },
            {
                "start_time": 66.5522727,
                "end_time": 66.6681818,
                "pitch": 21,
                "velocity": 80,
                "duration": 0.1159091,
                "tempo": 120.0
            },
            {
                "start_time": 66.6704545,
                "end_time": 66.8909091,
                "pitch": 23,
                "velocity": 80,
                "duration": 0.2204545,
                "tempo": 120.0
            },
            {
                "start_time": 66.8909091,
                "end_time": 66.9931818,
                "pitch": 23,
                "velocity": 80,
                "duration": 0.1022727,
                "tempo": 120.0
            },
            {
                "start_time": 66.9931818,
                "end_time": 67.1136364,
                "pitch": 35,
                "velocity": 80,
                "duration": 0.1204545,
                "tempo": 120.0
            },
            {
                "start_time": 67.1136364,
                "end_time": 67.2113636,
                "pitch": 23,
                "velocity": 80,
                "duration": 0.0977273,
                "tempo": 120.0
            },
            {
                "start_time": 67.2136364,
                "end_time": 67.3136364,
                "pitch": 23,
                "velocity": 80,
                "duration": 0.1,
                "tempo": 120.0
            },
            {
                "start_time": 67.3136364,
                "end_time": 67.4295455,
                "pitch": 35,
                "velocity": 80,
                "duration": 0.1159091,
                "tempo": 120.0
            },
            {
                "start_time": 67.4318182,
                "end_time": 67.5295455,
                "pitch": 26,
                "velocity": 80,
                "duration": 0.0977273,
                "tempo": 120.0
            },
            {
                "start_time": 67.5318182,
                "end_time": 67.7431818,
                "pitch": 26,
                "velocity": 80,
                "duration": 0.2113636,
                "tempo": 120.0
            },
            {
                "start_time": 67.7431818,
                "end_time": 67.9545455,
                "pitch": 27,
                "velocity": 80,
                "duration": 0.2113636,
                "tempo": 120.0
            },
            {
                "start_time": 67.9568182,
                "end_time": 68.0545455,
                "pitch": 40,
                "velocity": 80,
                "duration": 0.0977273,
                "tempo": 120.0
            },
            {
                "start_time": 68.0568182,
                "end_time": 68.1727273,
                "pitch": 42,
                "velocity": 80,
                "duration": 0.1159091,
                "tempo": 120.0
            },
            {
                "start_time": 68.1727273,
                "end_time": 68.2727273,
                "pitch": 43,
                "velocity": 80,
                "duration": 0.1,
                "tempo": 120.0
            },
            {
                "start_time": 68.2727273,
                "end_time": 68.3886364,
                "pitch": 40,
                "velocity": 80,
                "duration": 0.1159091,
                "tempo": 120.0
            },
            {
                "start_time": 68.3909091,
                "end_time": 68.6068182,
                "pitch": 24,
                "velocity": 80,
                "duration": 0.2159091,
                "tempo": 120.0
            },
            {
                "start_time": 68.6068182,
                "end_time": 68.7227273,
                "pitch": 24,
                "velocity": 80,
                "duration": 0.1159091,
                "tempo": 120.0
            },
            {
                "start_time": 68.7227273,
                "end_time": 68.8227273,
                "pitch": 36,
                "velocity": 80,
                "duration": 0.1,
                "tempo": 120.0
            },
            {
                "start_time": 68.825,
                "end_time": 68.9409091,
                "pitch": 24,
                "velocity": 80,
                "duration": 0.1159091,
                "tempo": 120.0
            },
            {
                "start_time": 68.9409091,
                "end_time": 69.0409091,
                "pitch": 24,
                "velocity": 80,
                "duration": 0.1,
                "tempo": 120.0
            },
            {
                "start_time": 69.0409091,
                "end_time": 69.2568182,
                "pitch": 36,
                "velocity": 80,
                "duration": 0.2159091,
                "tempo": 120.0
            },
            {
                "start_time": 69.2590909,
                "end_time": 69.475,
                "pitch": 24,
                "velocity": 80,
                "duration": 0.2159091,
                "tempo": 120.0
            },
            {
                "start_time": 69.475,
                "end_time": 69.575,
                "pitch": 24,
                "velocity": 80,
                "duration": 0.1,
                "tempo": 120.0
            },
            {
                "start_time": 69.575,
                "end_time": 69.6909091,
                "pitch": 36,
                "velocity": 80,
                "duration": 0.1159091,
                "tempo": 120.0
            },
            {
                "start_time": 69.6931818,
                "end_time": 69.8954545,
                "pitch": 23,
                "velocity": 80,
                "duration": 0.2022727,
                "tempo": 120.0
            },
            {
                "start_time": 69.8977273,
                "end_time": 70.1181818,
                "pitch": 23,
                "velocity": 80,
                "duration": 0.2204545,
                "tempo": 120.0
            },
            {
                "start_time": 70.1181818,
                "end_time": 70.325,
                "pitch": 21,
                "velocity": 80,
                "duration": 0.2068182,
                "tempo": 120.0
            },
            {
                "start_time": 70.325,
                "end_time": 70.4363636,
                "pitch": 21,
                "velocity": 80,
                "duration": 0.1113636,
                "tempo": 120.0
            },
            {
                "start_time": 70.4363636,
                "end_time": 70.5318182,
                "pitch": 33,
                "velocity": 80,
                "duration": 0.0954545,
                "tempo": 120.0
            },
            {
                "start_time": 70.5318182,
                "end_time": 70.6318182,
                "pitch": 23,
                "velocity": 80,
                "duration": 0.1,
                "tempo": 120.0
            },
            {
                "start_time": 70.6318182,
                "end_time": 70.7477273,
                "pitch": 23,
                "velocity": 80,
                "duration": 0.1159091,
                "tempo": 120.0
            },
            {
                "start_time": 70.75,
                "end_time": 70.9659091,
                "pitch": 35,
                "velocity": 80,
                "duration": 0.2159091,
                "tempo": 120.0
            },
            {
                "start_time": 70.9659091,
                "end_time": 71.1863636,
                "pitch": 36,
                "velocity": 80,
                "duration": 0.2204545,
                "tempo": 120.0
            },
            {
                "start_time": 71.1886364,
                "end_time": 71.2886364,
                "pitch": 35,
                "velocity": 80,
                "duration": 0.1,
                "tempo": 120.0
            },
            {
                "start_time": 71.2909091,
                "end_time": 71.3931818,
                "pitch": 33,
                "velocity": 80,
                "duration": 0.1022727,
                "tempo": 120.0
            },
            {
                "start_time": 71.3931818,
                "end_time": 71.5022727,
                "pitch": 26,
                "velocity": 80,
                "duration": 0.1090909,
                "tempo": 120.0
            },
            {
                "start_time": 71.5045455,
                "end_time": 71.5977273,
                "pitch": 38,
                "velocity": 80,
                "duration": 0.0931818,
                "tempo": 120.0
            },
            {
                "start_time": 71.6,
                "end_time": 71.7090909,
                "pitch": 36,
                "velocity": 80,
                "duration": 0.1090909,
                "tempo": 120.0
            },
            {
                "start_time": 71.7113636,
                "end_time": 71.8068182,
                "pitch": 35,
                "velocity": 80,
                "duration": 0.0954545,
                "tempo": 120.0
            },
            {
                "start_time": 71.8068182,
                "end_time": 72.0227273,
                "pitch": 24,
                "velocity": 80,
                "duration": 0.2159091,
                "tempo": 120.0
            },
            {
                "start_time": 72.0227273,
                "end_time": 72.1227273,
                "pitch": 24,
                "velocity": 80,
                "duration": 0.1,
                "tempo": 120.0
            },
            {
                "start_time": 72.1227273,
                "end_time": 72.2409091,
                "pitch": 36,
                "velocity": 80,
                "duration": 0.1181818,
                "tempo": 120.0
            },
            {
                "start_time": 72.2409091,
                "end_time": 72.3431818,
                "pitch": 24,
                "velocity": 80,
                "duration": 0.1022727,
                "tempo": 120.0
            },
            {
                "start_time": 72.3431818,
                "end_time": 72.4613636,
                "pitch": 24,
                "velocity": 80,
                "duration": 0.1181818,
                "tempo": 120.0
            },
            {
                "start_time": 72.4613636,
                "end_time": 72.6840909,
                "pitch": 36,
                "velocity": 80,
                "duration": 0.2227273,
                "tempo": 120.0
            },
            {
                "start_time": 72.6840909,
                "end_time": 72.8840909,
                "pitch": 24,
                "velocity": 80,
                "duration": 0.2,
                "tempo": 120.0
            },
            {
                "start_time": 72.8840909,
                "end_time": 73.0,
                "pitch": 24,
                "velocity": 80,
                "duration": 0.1159091,
                "tempo": 120.0
            },
            {
                "start_time": 73.0,
                "end_time": 73.1,
                "pitch": 36,
                "velocity": 80,
                "duration": 0.1,
                "tempo": 120.0
            },
            {
                "start_time": 73.1022727,
                "end_time": 73.3136364,
                "pitch": 23,
                "velocity": 80,
                "duration": 0.2113636,
                "tempo": 120.0
            },
            {
                "start_time": 73.3136364,
                "end_time": 73.5272727,
                "pitch": 23,
                "velocity": 80,
                "duration": 0.2136364,
                "tempo": 120.0
            },
            {
                "start_time": 73.5272727,
                "end_time": 73.7431818,
                "pitch": 21,
                "velocity": 80,
                "duration": 0.2159091,
                "tempo": 120.0
            },
            {
                "start_time": 73.7431818,
                "end_time": 73.8431818,
                "pitch": 21,
                "velocity": 80,
                "duration": 0.1,
                "tempo": 120.0
            },
            {
                "start_time": 73.8431818,
                "end_time": 73.9613636,
                "pitch": 33,
                "velocity": 80,
                "duration": 0.1181818,
                "tempo": 120.0
            },
            {
                "start_time": 73.9613636,
                "end_time": 74.0590909,
                "pitch": 23,
                "velocity": 80,
                "duration": 0.0977273,
                "tempo": 120.0
            },
            {
                "start_time": 74.0613636,
                "end_time": 74.1772727,
                "pitch": 23,
                "velocity": 80,
                "duration": 0.1159091,
                "tempo": 120.0
            },
            {
                "start_time": 74.1795455,
                "end_time": 74.3772727,
                "pitch": 35,
                "velocity": 80,
                "duration": 0.1977273,
                "tempo": 120.0
            },
            {
                "start_time": 74.3795455,
                "end_time": 74.5909091,
                "pitch": 36,
                "velocity": 80,
                "duration": 0.2113636,
                "tempo": 120.0
            },
            {
                "start_time": 74.5909091,
                "end_time": 74.7045455,
                "pitch": 35,
                "velocity": 80,
                "duration": 0.1136364,
                "tempo": 120.0
            },
            {
                "start_time": 74.7045455,
                "end_time": 74.8022727,
                "pitch": 33,
                "velocity": 80,
                "duration": 0.0977273,
                "tempo": 120.0
            },
            {
                "start_time": 74.8045455,
                "end_time": 74.9181818,
                "pitch": 26,
                "velocity": 80,
                "duration": 0.1136364,
                "tempo": 120.0
            },
            {
                "start_time": 74.9204545,
                "end_time": 75.0204545,
                "pitch": 38,
                "velocity": 80,
                "duration": 0.1,
                "tempo": 120.0
            },
            {
                "start_time": 75.0204545,
                "end_time": 75.1204545,
                "pitch": 36,
                "velocity": 80,
                "duration": 0.1,
                "tempo": 120.0
            },
            {
                "start_time": 75.1204545,
                "end_time": 75.2363636,
                "pitch": 35,
                "velocity": 80,
                "duration": 0.1159091,
                "tempo": 120.0
            },
            {
                "start_time": 75.2386364,
                "end_time": 75.4545455,
                "pitch": 28,
                "velocity": 80,
                "duration": 0.2159091,
                "tempo": 120.0
            },
            {
                "start_time": 75.4545455,
                "end_time": 75.6704545,
                "pitch": 40,
                "velocity": 80,
                "duration": 0.2159091,
                "tempo": 120.0
            },
            {
                "start_time": 75.6727273,
                "end_time": 75.7704545,
                "pitch": 28,
                "velocity": 80,
                "duration": 0.0977273,
                "tempo": 120.0
            },
            {
                "start_time": 75.7704545,
                "end_time": 75.8704545,
                "pitch": 28,
                "velocity": 80,
                "duration": 0.1,
                "tempo": 120.0
            },
            {
                "start_time": 75.8727273,
                "end_time": 75.9886364,
                "pitch": 40,
                "velocity": 80,
                "duration": 0.1159091,
                "tempo": 120.0
            },
            {
                "start_time": 76.0886364,
                "end_time": 76.3,
                "pitch": 28,
                "velocity": 80,
                "duration": 0.2113636,
                "tempo": 120.0
            },
            {
                "start_time": 76.3022727,
                "end_time": 76.5136364,
                "pitch": 40,
                "velocity": 80,
                "duration": 0.2113636,
                "tempo": 120.0
            },
            {
                "start_time": 76.5136364,
                "end_time": 76.7318182,
                "pitch": 28,
                "velocity": 80,
                "duration": 0.2181818,
                "tempo": 120.0
            },
            {
                "start_time": 76.7318182,
                "end_time": 76.8295455,
                "pitch": 28,
                "velocity": 80,
                "duration": 0.0977273,
                "tempo": 120.0
            },
            {
                "start_time": 76.8318182,
                "end_time": 76.9477273,
                "pitch": 28,
                "velocity": 80,
                "duration": 0.1159091,
                "tempo": 120.0
            },
            {
                "start_time": 76.9477273,
                "end_time": 77.1636364,
                "pitch": 28,
                "velocity": 80,
                "duration": 0.2159091,
                "tempo": 120.0
            },
            {
                "start_time": 77.1659091,
                "end_time": 77.2636364,
                "pitch": 40,
                "velocity": 80,
                "duration": 0.0977273,
                "tempo": 120.0
            },
            {
                "start_time": 77.2659091,
                "end_time": 77.3659091,
                "pitch": 28,
                "velocity": 80,
                "duration": 0.1,
                "tempo": 120.0
            },
            {
                "start_time": 77.3659091,
                "end_time": 77.4795455,
                "pitch": 28,
                "velocity": 80,
                "duration": 0.1136364,
                "tempo": 120.0
            },
            {
                "start_time": 77.4795455,
                "end_time": 77.5772727,
                "pitch": 28,
                "velocity": 80,
                "duration": 0.0977273,
                "tempo": 120.0
            },
            {
                "start_time": 77.5795455,
                "end_time": 77.6909091,
                "pitch": 40,
                "velocity": 80,
                "duration": 0.1113636,
                "tempo": 120.0
            },
            {
                "start_time": 77.7909091,
                "end_time": 77.9068182,
                "pitch": 28,
                "velocity": 80,
                "duration": 0.1159091,
                "tempo": 120.0
            },
            {
                "start_time": 77.9068182,
                "end_time": 78.0068182,
                "pitch": 40,
                "velocity": 80,
                "duration": 0.1,
                "tempo": 120.0
            },
            {
                "start_time": 78.0090909,
                "end_time": 78.1068182,
                "pitch": 28,
                "velocity": 80,
                "duration": 0.0977273,
                "tempo": 120.0
            },
            {
                "start_time": 78.225,
                "end_time": 78.4454545,
                "pitch": 28,
                "velocity": 80,
                "duration": 0.2204545,
                "tempo": 120.0
            },
            {
                "start_time": 78.4477273,
                "end_time": 78.5477273,
                "pitch": 28,
                "velocity": 80,
                "duration": 0.1,
                "tempo": 120.0
            },
            {
                "start_time": 78.55,
                "end_time": 78.6681818,
                "pitch": 28,
                "velocity": 80,
                "duration": 0.1181818,
                "tempo": 120.0
            },
            {
                "start_time": 78.6681818,
                "end_time": 78.8681818,
                "pitch": 28,
                "velocity": 80,
                "duration": 0.2,
                "tempo": 120.0
            },
            {
                "start_time": 78.8681818,
                "end_time": 79.0863636,
                "pitch": 40,
                "velocity": 80,
                "duration": 0.2181818,
                "tempo": 120.0
            },
            {
                "start_time": 79.0863636,
                "end_time": 79.1954545,
                "pitch": 28,
                "velocity": 80,
                "duration": 0.1090909,
                "tempo": 120.0
            },
            {
                "start_time": 79.1977273,
                "end_time": 79.2909091,
                "pitch": 28,
                "velocity": 80,
                "duration": 0.0931818,
                "tempo": 120.0
            },
            {
                "start_time": 79.2931818,
                "end_time": 79.4022727,
                "pitch": 40,
                "velocity": 80,
                "duration": 0.1090909,
                "tempo": 120.0
            },
            {
                "start_time": 79.5,
                "end_time": 79.7159091,
                "pitch": 28,
                "velocity": 80,
                "duration": 0.2159091,
                "tempo": 120.0
            },
            {
                "start_time": 79.7159091,
                "end_time": 79.9340909,
                "pitch": 40,
                "velocity": 80,
                "duration": 0.2181818,
                "tempo": 120.0
            },
            {
                "start_time": 79.9340909,
                "end_time": 80.1545455,
                "pitch": 28,
                "velocity": 80,
                "duration": 0.2204545,
                "tempo": 120.0
            },
            {
                "start_time": 80.1568182,
                "end_time": 80.2568182,
                "pitch": 28,
                "velocity": 80,
                "duration": 0.1,
                "tempo": 120.0
            },
            {
                "start_time": 80.2568182,
                "end_time": 80.3590909,
                "pitch": 28,
                "velocity": 80,
                "duration": 0.1022727,
                "tempo": 120.0
            },
            {
                "start_time": 80.3613636,
                "end_time": 80.5659091,
                "pitch": 31,
                "velocity": 80,
                "duration": 0.2045455,
                "tempo": 120.0
            },
            {
                "start_time": 80.5659091,
                "end_time": 80.6772727,
                "pitch": 19,
                "velocity": 80,
                "duration": 0.1113636,
                "tempo": 120.0
            },
            {
                "start_time": 80.6772727,
                "end_time": 80.7727273,
                "pitch": 31,
                "velocity": 80,
                "duration": 0.0954545,
                "tempo": 120.0
            },
            {
                "start_time": 80.775,
                "end_time": 80.8909091,
                "pitch": 30,
                "velocity": 80,
                "duration": 0.1159091,
                "tempo": 120.0
            },
            {
                "start_time": 80.8931818,
                "end_time": 80.9931818,
                "pitch": 30,
                "velocity": 80,
                "duration": 0.1,
                "tempo": 120.0
            },
            {
                "start_time": 80.9954545,
                "end_time": 81.0954545,
                "pitch": 18,
                "velocity": 80,
                "duration": 0.1,
                "tempo": 120.0
            },
            {
                "start_time": 81.2181818,
                "end_time": 81.4318182,
                "pitch": 29,
                "velocity": 80,
                "duration": 0.2136364,
                "tempo": 120.0
            },
            {
                "start_time": 81.4340909,
                "end_time": 81.5340909,
                "pitch": 16,
                "velocity": 80,
                "duration": 0.1,
                "tempo": 120.0
            },
            {
                "start_time": 81.5340909,
                "end_time": 81.65,
                "pitch": 29,
                "velocity": 80,
                "duration": 0.1159091,
                "tempo": 120.0
            },
            {
                "start_time": 81.6522727,
                "end_time": 81.75,
                "pitch": 23,
                "velocity": 80,
                "duration": 0.0977273,
                "tempo": 120.0
            },
            {
                "start_time": 81.75,
                "end_time": 81.85,
                "pitch": 23,
                "velocity": 80,
                "duration": 0.1,
                "tempo": 120.0
            },
            {
                "start_time": 81.8522727,
                "end_time": 81.9681818,
                "pitch": 35,
                "velocity": 80,
                "duration": 0.1159091,
                "tempo": 120.0
            },
            {
                "start_time": 81.9681818,
                "end_time": 82.0681818,
                "pitch": 23,
                "velocity": 80,
                "duration": 0.1,
                "tempo": 120.0
            },
            {
                "start_time": 82.0681818,
                "end_time": 82.2795455,
                "pitch": 28,
                "velocity": 80,
                "duration": 0.2113636,
                "tempo": 120.0
            },
            {
                "start_time": 82.2818182,
                "end_time": 82.4931818,
                "pitch": 40,
                "velocity": 80,
                "duration": 0.2113636,
                "tempo": 120.0
            },
            {
                "start_time": 82.4931818,
                "end_time": 82.5931818,
                "pitch": 28,
                "velocity": 80,
                "duration": 0.1,
                "tempo": 120.0
            },
            {
                "start_time": 82.5931818,
                "end_time": 82.7090909,
                "pitch": 28,
                "velocity": 80,
                "duration": 0.1159091,
                "tempo": 120.0
            },
            {
                "start_time": 82.7113636,
                "end_time": 82.8090909,
                "pitch": 40,
                "velocity": 80,
                "duration": 0.0977273,
                "tempo": 120.0
            },
            {
                "start_time": 82.9272727,
                "end_time": 83.1431818,
                "pitch": 28,
                "velocity": 80,
                "duration": 0.2159091,
                "tempo": 120.0
            },
            {
                "start_time": 83.1454545,
                "end_time": 83.3454545,
                "pitch": 40,
                "velocity": 80,
                "duration": 0.2,
                "tempo": 120.0
            },
            {
                "start_time": 83.3454545,
                "end_time": 83.5568182,
                "pitch": 28,
                "velocity": 80,
                "duration": 0.2113636,
                "tempo": 120.0
            },
            {
                "start_time": 83.5590909,
                "end_time": 83.6704545,
                "pitch": 28,
                "velocity": 80,
                "duration": 0.1113636,
                "tempo": 120.0
            },
            {
                "start_time": 83.6727273,
                "end_time": 83.7704545,
                "pitch": 28,
                "velocity": 80,
                "duration": 0.0977273,
                "tempo": 120.0
            },
            {
                "start_time": 83.7704545,
                "end_time": 83.9863636,
                "pitch": 28,
                "velocity": 80,
                "duration": 0.2159091,
                "tempo": 120.0
            },
            {
                "start_time": 83.9863636,
                "end_time": 84.0863636,
                "pitch": 40,
                "velocity": 80,
                "duration": 0.1,
                "tempo": 120.0
            },
            {
                "start_time": 84.0863636,
                "end_time": 84.2045455,
                "pitch": 28,
                "velocity": 80,
                "duration": 0.1181818,
                "tempo": 120.0
            },
            {
                "start_time": 84.2045455,
                "end_time": 84.3022727,
                "pitch": 28,
                "velocity": 80,
                "duration": 0.0977273,
                "tempo": 120.0
            },
            {
                "start_time": 84.3045455,
                "end_time": 84.4204545,
                "pitch": 28,
                "velocity": 80,
                "duration": 0.1159091,
                "tempo": 120.0
            },
            {
                "start_time": 84.4204545,
                "end_time": 84.5204545,
                "pitch": 40,
                "velocity": 80,
                "duration": 0.1,
                "tempo": 120.0
            },
            {
                "start_time": 84.6386364,
                "end_time": 84.7386364,
                "pitch": 28,
                "velocity": 80,
                "duration": 0.1,
                "tempo": 120.0
            },
            {
                "start_time": 84.7386364,
                "end_time": 84.8386364,
                "pitch": 40,
                "velocity": 80,
                "duration": 0.1,
                "tempo": 120.0
            },
            {
                "start_time": 84.8386364,
                "end_time": 84.9545455,
                "pitch": 28,
                "velocity": 80,
                "duration": 0.1159091,
                "tempo": 120.0
            },
            {
                "start_time": 85.0568182,
                "end_time": 85.2681818,
                "pitch": 28,
                "velocity": 80,
                "duration": 0.2113636,
                "tempo": 120.0
            },
            {
                "start_time": 85.2681818,
                "end_time": 85.3818182,
                "pitch": 28,
                "velocity": 80,
                "duration": 0.1136364,
                "tempo": 120.0
            },
            {
                "start_time": 85.3818182,
                "end_time": 85.4795455,
                "pitch": 28,
                "velocity": 80,
                "duration": 0.0977273,
                "tempo": 120.0
            },
            {
                "start_time": 85.4818182,
                "end_time": 85.6977273,
                "pitch": 28,
                "velocity": 80,
                "duration": 0.2159091,
                "tempo": 120.0
            },
            {
                "start_time": 85.6977273,
                "end_time": 85.9136364,
                "pitch": 40,
                "velocity": 80,
                "duration": 0.2159091,
                "tempo": 120.0
            },
            {
                "start_time": 85.9159091,
                "end_time": 86.0136364,
                "pitch": 28,
                "velocity": 80,
                "duration": 0.0977273,
                "tempo": 120.0
            },
            {
                "start_time": 86.0159091,
                "end_time": 86.1318182,
                "pitch": 28,
                "velocity": 80,
                "duration": 0.1159091,
                "tempo": 120.0
            },
            {
                "start_time": 86.1318182,
                "end_time": 86.2318182,
                "pitch": 40,
                "velocity": 80,
                "duration": 0.1,
                "tempo": 120.0
            },
            {
                "start_time": 86.3318182,
                "end_time": 86.5431818,
                "pitch": 28,
                "velocity": 80,
                "duration": 0.2113636,
                "tempo": 120.0
            },
            {
                "start_time": 86.5454545,
                "end_time": 86.7568182,
                "pitch": 40,
                "velocity": 80,
                "duration": 0.2113636,
                "tempo": 120.0
            },
            {
                "start_time": 86.7590909,
                "end_time": 86.975,
                "pitch": 28,
                "velocity": 80,
                "duration": 0.2159091,
                "tempo": 120.0
            },
            {
                "start_time": 86.975,
                "end_time": 87.0727273,
                "pitch": 28,
                "velocity": 80,
                "duration": 0.0977273,
                "tempo": 120.0
            },
            {
                "start_time": 87.075,
                "end_time": 87.1909091,
                "pitch": 28,
                "velocity": 80,
                "duration": 0.1159091,
                "tempo": 120.0
            },
            {
                "start_time": 87.1931818,
                "end_time": 87.4113636,
                "pitch": 31,
                "velocity": 80,
                "duration": 0.2181818,
                "tempo": 120.0
            },
            {
                "start_time": 87.4136364,
                "end_time": 87.5136364,
                "pitch": 19,
                "velocity": 80,
                "duration": 0.1,
                "tempo": 120.0
            },
            {
                "start_time": 87.5159091,
                "end_time": 87.6340909,
                "pitch": 31,
                "velocity": 80,
                "duration": 0.1181818,
                "tempo": 120.0
            },
            {
                "start_time": 87.6363636,
                "end_time": 87.7340909,
                "pitch": 30,
                "velocity": 80,
                "duration": 0.0977273,
                "tempo": 120.0
            },
            {
                "start_time": 87.7340909,
                "end_time": 87.8340909,
                "pitch": 30,
                "velocity": 80,
                "duration": 0.1,
                "tempo": 120.0
            },
            {
                "start_time": 87.8363636,
                "end_time": 87.9522727,
                "pitch": 18,
                "velocity": 80,
                "duration": 0.1159091,
                "tempo": 120.0
            },
            {
                "start_time": 88.0522727,
                "end_time": 88.2590909,
                "pitch": 29,
                "velocity": 80,
                "duration": 0.2068182,
                "tempo": 120.0
            },
            {
                "start_time": 88.2590909,
                "end_time": 88.3704545,
                "pitch": 16,
                "velocity": 80,
                "duration": 0.1113636,
                "tempo": 120.0
            },
            {
                "start_time": 88.3704545,
                "end_time": 88.4659091,
                "pitch": 29,
                "velocity": 80,
                "duration": 0.0954545,
                "tempo": 120.0
            },
            {
                "start_time": 88.4659091,
                "end_time": 88.5659091,
                "pitch": 23,
                "velocity": 80,
                "duration": 0.1,
                "tempo": 120.0
            },
            {
                "start_time": 88.5681818,
                "end_time": 88.6863636,
                "pitch": 23,
                "velocity": 80,
                "duration": 0.1181818,
                "tempo": 120.0
            },
            {
                "start_time": 88.6863636,
                "end_time": 88.7886364,
                "pitch": 35,
                "velocity": 80,
                "duration": 0.1022727,
                "tempo": 120.0
            },
            {
                "start_time": 88.7909091,
                "end_time": 88.9090909,
                "pitch": 23,
                "velocity": 80,
                "duration": 0.1181818,
                "tempo": 120.0
            },
            {
                "start_time": 88.9090909,
                "end_time": 89.125,
                "pitch": 24,
                "velocity": 80,
                "duration": 0.2159091,
                "tempo": 120.0
            },
            {
                "start_time": 89.1272727,
                "end_time": 89.325,
                "pitch": 24,
                "velocity": 80,
                "duration": 0.1977273,
                "tempo": 120.0
            },
            {
                "start_time": 89.3272727,
                "end_time": 89.4363636,
                "pitch": 24,
                "velocity": 80,
                "duration": 0.1090909,
                "tempo": 120.0
            },
            {
                "start_time": 89.4386364,
                "end_time": 89.5318182,
                "pitch": 24,
                "velocity": 80,
                "duration": 0.0931818,
                "tempo": 120.0
            },
            {
                "start_time": 89.5340909,
                "end_time": 89.6431818,
                "pitch": 36,
                "velocity": 80,
                "duration": 0.1090909,
                "tempo": 120.0
            },
            {
                "start_time": 89.6454545,
                "end_time": 89.7386364,
                "pitch": 24,
                "velocity": 80,
                "duration": 0.0931818,
                "tempo": 120.0
            },
            {
                "start_time": 89.7409091,
                "end_time": 89.9613636,
                "pitch": 24,
                "velocity": 80,
                "duration": 0.2204545,
                "tempo": 120.0
            },
            {
                "start_time": 89.9613636,
                "end_time": 90.1818182,
                "pitch": 24,
                "velocity": 80,
                "duration": 0.2204545,
                "tempo": 120.0
            },
            {
                "start_time": 90.1840909,
                "end_time": 90.4,
                "pitch": 28,
                "velocity": 80,
                "duration": 0.2159091,
                "tempo": 120.0
            },
            {
                "start_time": 90.4,
                "end_time": 90.5,
                "pitch": 28,
                "velocity": 80,
                "duration": 0.1,
                "tempo": 120.0
            },
            {
                "start_time": 90.5,
                "end_time": 90.6,
                "pitch": 28,
                "velocity": 80,
                "duration": 0.1,
                "tempo": 120.0
            },
            {
                "start_time": 90.6,
                "end_time": 90.8136364,
                "pitch": 26,
                "velocity": 80,
                "duration": 0.2136364,
                "tempo": 120.0
            },
            {
                "start_time": 90.8136364,
                "end_time": 91.025,
                "pitch": 26,
                "velocity": 80,
                "duration": 0.2113636,
                "tempo": 120.0
            },
            {
                "start_time": 91.0272727,
                "end_time": 91.1409091,
                "pitch": 26,
                "velocity": 80,
                "duration": 0.1136364,
                "tempo": 120.0
            },
            {
                "start_time": 91.1431818,
                "end_time": 91.2431818,
                "pitch": 26,
                "velocity": 80,
                "duration": 0.1,
                "tempo": 120.0
            },
            {
                "start_time": 91.2431818,
                "end_time": 91.3431818,
                "pitch": 38,
                "velocity": 80,
                "duration": 0.1,
                "tempo": 120.0
            },
            {
                "start_time": 91.3431818,
                "end_time": 91.4590909,
                "pitch": 26,
                "velocity": 80,
                "duration": 0.1159091,
                "tempo": 120.0
            },
            {
                "start_time": 91.4613636,
                "end_time": 91.6772727,
                "pitch": 26,
                "velocity": 80,
                "duration": 0.2159091,
                "tempo": 120.0
            },
            {
                "start_time": 91.6772727,
                "end_time": 91.8931818,
                "pitch": 26,
                "velocity": 80,
                "duration": 0.2159091,
                "tempo": 120.0
            },
            {
                "start_time": 91.8954545,
                "end_time": 92.0931818,
                "pitch": 30,
                "velocity": 80,
                "duration": 0.1977273,
                "tempo": 120.0
            },
            {
                "start_time": 92.0954545,
                "end_time": 92.2113636,
                "pitch": 30,
                "velocity": 80,
                "duration": 0.1159091,
                "tempo": 120.0
            },
            {
                "start_time": 92.2113636,
                "end_time": 92.3113636,
                "pitch": 30,
                "velocity": 80,
                "duration": 0.1,
                "tempo": 120.0
            },
            {
                "start_time": 92.3113636,
                "end_time": 92.5227273,
                "pitch": 28,
                "velocity": 80,
                "duration": 0.2113636,
                "tempo": 120.0
            },
            {
                "start_time": 92.525,
                "end_time": 92.7363636,
                "pitch": 28,
                "velocity": 80,
                "duration": 0.2113636,
                "tempo": 120.0
            },
            {
                "start_time": 92.7363636,
                "end_time": 92.8363636,
                "pitch": 28,
                "velocity": 80,
                "duration": 0.1,
                "tempo": 120.0
            },
            {
                "start_time": 92.8363636,
                "end_time": 92.9522727,
                "pitch": 28,
                "velocity": 80,
                "duration": 0.1159091,
                "tempo": 120.0
            },
            {
                "start_time": 92.9545455,
                "end_time": 93.0545455,
                "pitch": 40,
                "velocity": 80,
                "duration": 0.1,
                "tempo": 120.0
            },
            {
                "start_time": 93.0545455,
                "end_time": 93.1704545,
                "pitch": 28,
                "velocity": 80,
                "duration": 0.1159091,
                "tempo": 120.0
            },
            {
                "start_time": 93.1704545,
                "end_time": 93.3863636,
                "pitch": 28,
                "velocity": 80,
                "duration": 0.2159091,
                "tempo": 120.0
            },
            {
                "start_time": 93.3886364,
                "end_time": 93.5863636,
                "pitch": 28,
                "velocity": 80,
                "duration": 0.1977273,
                "tempo": 120.0
            },
            {
                "start_time": 93.5886364,
                "end_time": 93.8,
                "pitch": 28,
                "velocity": 80,
                "duration": 0.2113636,
                "tempo": 120.0
            },
            {
                "start_time": 93.8,
                "end_time": 93.9136364,
                "pitch": 28,
                "velocity": 80,
                "duration": 0.1136364,
                "tempo": 120.0
            },
            {
                "start_time": 93.9159091,
                "end_time": 94.0136364,
                "pitch": 28,
                "velocity": 80,
                "duration": 0.0977273,
                "tempo": 120.0
            },
            {
                "start_time": 94.0136364,
                "end_time": 94.2295455,
                "pitch": 31,
                "velocity": 80,
                "duration": 0.2159091,
                "tempo": 120.0
            },
            {
                "start_time": 94.2295455,
                "end_time": 94.3295455,
                "pitch": 31,
                "velocity": 80,
                "duration": 0.1,
                "tempo": 120.0
            },
            {
                "start_time": 94.3295455,
                "end_time": 94.4477273,
                "pitch": 43,
                "velocity": 80,
                "duration": 0.1181818,
                "tempo": 120.0
            },
            {
                "start_time": 94.4477273,
                "end_time": 94.5477273,
                "pitch": 31,
                "velocity": 80,
                "duration": 0.1,
                "tempo": 120.0
            },
            {
                "start_time": 94.5477273,
                "end_time": 94.6636364,
                "pitch": 31,
                "velocity": 80,
                "duration": 0.1159091,
                "tempo": 120.0
            },
            {
                "start_time": 94.6659091,
                "end_time": 94.7636364,
                "pitch": 43,
                "velocity": 80,
                "duration": 0.0977273,
                "tempo": 120.0
            },
            {
                "start_time": 94.7659091,
                "end_time": 94.8818182,
                "pitch": 31,
                "velocity": 80,
                "duration": 0.1159091,
                "tempo": 120.0
            },
            {
                "start_time": 94.8818182,
                "end_time": 95.0818182,
                "pitch": 31,
                "velocity": 80,
                "duration": 0.2,
                "tempo": 120.0
            },
            {
                "start_time": 95.0818182,
                "end_time": 95.2977273,
                "pitch": 31,
                "velocity": 80,
                "duration": 0.2159091,
                "tempo": 120.0
            },
            {
                "start_time": 95.3,
                "end_time": 95.5113636,
                "pitch": 31,
                "velocity": 80,
                "duration": 0.2113636,
                "tempo": 120.0
            },
            {
                "start_time": 95.5113636,
                "end_time": 95.625,
                "pitch": 31,
                "velocity": 80,
                "duration": 0.1136364,
                "tempo": 120.0
            },
            {
                "start_time": 95.6272727,
                "end_time": 95.7227273,
                "pitch": 31,
                "velocity": 80,
                "duration": 0.0954545,
                "tempo": 120.0
            },
            {
                "start_time": 95.725,
                "end_time": 95.9409091,
                "pitch": 21,
                "velocity": 80,
                "duration": 0.2159091,
                "tempo": 120.0
            },
            {
                "start_time": 95.9409091,
                "end_time": 96.1590909,
                "pitch": 21,
                "velocity": 80,
                "duration": 0.2181818,
                "tempo": 120.0
            },
            {
                "start_time": 96.1590909,
                "end_time": 96.2590909,
                "pitch": 21,
                "velocity": 80,
                "duration": 0.1,
                "tempo": 120.0
            },
            {
                "start_time": 96.2613636,
                "end_time": 96.3795455,
                "pitch": 21,
                "velocity": 80,
                "duration": 0.1181818,
                "tempo": 120.0
            },
            {
                "start_time": 96.3795455,
                "end_time": 96.4818182,
                "pitch": 33,
                "velocity": 80,
                "duration": 0.1022727,
                "tempo": 120.0
            },
            {
                "start_time": 96.4840909,
                "end_time": 96.5840909,
                "pitch": 21,
                "velocity": 80,
                "duration": 0.1,
                "tempo": 120.0
            },
            {
                "start_time": 96.5840909,
                "end_time": 96.7909091,
                "pitch": 21,
                "velocity": 80,
                "duration": 0.2068182,
                "tempo": 120.0
            },
            {
                "start_time": 96.7909091,
                "end_time": 96.9977273,
                "pitch": 21,
                "velocity": 80,
                "duration": 0.2068182,
                "tempo": 120.0
            },
            {
                "start_time": 96.9977273,
                "end_time": 97.2181818,
                "pitch": 21,
                "velocity": 80,
                "duration": 0.2204545,
                "tempo": 120.0
            },
            {
                "start_time": 97.2204545,
                "end_time": 97.3204545,
                "pitch": 21,
                "velocity": 80,
                "duration": 0.1,
                "tempo": 120.0
            },
            {
                "start_time": 97.3227273,
                "end_time": 97.4409091,
                "pitch": 21,
                "velocity": 80,
                "duration": 0.1181818,
                "tempo": 120.0
            },
            {
                "start_time": 97.4431818,
                "end_time": 97.6590909,
                "pitch": 23,
                "velocity": 80,
                "duration": 0.2159091,
                "tempo": 120.0
            },
            {
                "start_time": 97.6590909,
                "end_time": 97.7590909,
                "pitch": 23,
                "velocity": 80,
                "duration": 0.1,
                "tempo": 120.0
            },
            {
                "start_time": 97.7590909,
                "end_time": 97.875,
                "pitch": 35,
                "velocity": 80,
                "duration": 0.1159091,
                "tempo": 120.0
            },
            {
                "start_time": 97.8772727,
                "end_time": 97.975,
                "pitch": 23,
                "velocity": 80,
                "duration": 0.0977273,
                "tempo": 120.0
            },
            {
                "start_time": 97.975,
                "end_time": 98.075,
                "pitch": 23,
                "velocity": 80,
                "duration": 0.1,
                "tempo": 120.0
            },
            {
                "start_time": 98.0772727,
                "end_time": 98.1931818,
                "pitch": 35,
                "velocity": 80,
                "duration": 0.1159091,
                "tempo": 120.0
            },
            {
                "start_time": 98.1931818,
                "end_time": 98.2931818,
                "pitch": 26,
                "velocity": 80,
                "duration": 0.1,
                "tempo": 120.0
            },
            {
                "start_time": 98.2931818,
                "end_time": 98.5045455,
                "pitch": 26,
                "velocity": 80,
                "duration": 0.2113636,
                "tempo": 120.0
            },
            {
                "start_time": 98.5068182,
                "end_time": 98.7181818,
                "pitch": 27,
                "velocity": 80,
                "duration": 0.2113636,
                "tempo": 120.0
            },
            {
                "start_time": 98.7181818,
                "end_time": 98.8181818,
                "pitch": 40,
                "velocity": 80,
                "duration": 0.1,
                "tempo": 120.0
            },
            {
                "start_time": 98.8181818,
                "end_time": 98.9340909,
                "pitch": 42,
                "velocity": 80,
                "duration": 0.1159091,
                "tempo": 120.0
            },
            {
                "start_time": 98.9363636,
                "end_time": 99.0340909,
                "pitch": 43,
                "velocity": 80,
                "duration": 0.0977273,
                "tempo": 120.0
            },
            {
                "start_time": 99.0363636,
                "end_time": 99.1522727,
                "pitch": 40,
                "velocity": 80,
                "duration": 0.1159091,
                "tempo": 120.0
            },
            {
                "start_time": 99.1545455,
                "end_time": 99.3681818,
                "pitch": 24,
                "velocity": 80,
                "duration": 0.2136364,
                "tempo": 120.0
            },
            {
                "start_time": 99.3704545,
                "end_time": 99.4863636,
                "pitch": 24,
                "velocity": 80,
                "duration": 0.1159091,
                "tempo": 120.0
            },
            {
                "start_time": 99.4863636,
                "end_time": 99.5863636,
                "pitch": 36,
                "velocity": 80,
                "duration": 0.1,
                "tempo": 120.0
            },
            {
                "start_time": 99.5863636,
                "end_time": 99.7022727,
                "pitch": 24,
                "velocity": 80,
                "duration": 0.1159091,
                "tempo": 120.0
            },
            {
                "start_time": 99.7022727,
                "end_time": 99.8022727,
                "pitch": 24,
                "velocity": 80,
                "duration": 0.1,
                "tempo": 120.0
            },
            {
                "start_time": 99.8045455,
                "end_time": 100.0204545,
                "pitch": 36,
                "velocity": 80,
                "duration": 0.2159091,
                "tempo": 120.0
            },
            {
                "start_time": 100.0204545,
                "end_time": 100.2363636,
                "pitch": 24,
                "velocity": 80,
                "duration": 0.2159091,
                "tempo": 120.0
            },
            {
                "start_time": 100.2386364,
                "end_time": 100.3363636,
                "pitch": 24,
                "velocity": 80,
                "duration": 0.0977273,
                "tempo": 120.0
            },
            {
                "start_time": 100.3386364,
                "end_time": 100.4545455,
                "pitch": 36,
                "velocity": 80,
                "duration": 0.1159091,
                "tempo": 120.0
            },
            {
                "start_time": 100.4545455,
                "end_time": 100.6590909,
                "pitch": 23,
                "velocity": 80,
                "duration": 0.2045455,
                "tempo": 120.0
            },
            {
                "start_time": 100.6590909,
                "end_time": 100.8818182,
                "pitch": 23,
                "velocity": 80,
                "duration": 0.2227273,
                "tempo": 120.0
            },
            {
                "start_time": 100.8818182,
                "end_time": 101.0863636,
                "pitch": 21,
                "velocity": 80,
                "duration": 0.2045455,
                "tempo": 120.0
            },
            {
                "start_time": 101.0886364,
                "end_time": 101.1977273,
                "pitch": 21,
                "velocity": 80,
                "duration": 0.1090909,
                "tempo": 120.0
            },
            {
                "start_time": 101.2,
                "end_time": 101.2931818,
                "pitch": 33,
                "velocity": 80,
                "duration": 0.0931818,
                "tempo": 120.0
            },
            {
                "start_time": 101.2954545,
                "end_time": 101.3954545,
                "pitch": 23,
                "velocity": 80,
                "duration": 0.1,
                "tempo": 120.0
            },
            {
                "start_time": 101.3954545,
                "end_time": 101.5159091,
                "pitch": 23,
                "velocity": 80,
                "duration": 0.1204545,
                "tempo": 120.0
            },
            {
                "start_time": 101.5159091,
                "end_time": 101.7386364,
                "pitch": 35,
                "velocity": 80,
                "duration": 0.2227273,
                "tempo": 120.0
            },
            {
                "start_time": 101.7386364,
                "end_time": 101.9545455,
                "pitch": 36,
                "velocity": 80,
                "duration": 0.2159091,
                "tempo": 120.0
            },
            {
                "start_time": 101.9545455,
                "end_time": 102.0545455,
                "pitch": 35,
                "velocity": 80,
                "duration": 0.1,
                "tempo": 120.0
            },
            {
                "start_time": 102.0545455,
                "end_time": 102.1545455,
                "pitch": 33,
                "velocity": 80,
                "duration": 0.1,
                "tempo": 120.0
            },
            {
                "start_time": 102.1568182,
                "end_time": 102.2659091,
                "pitch": 26,
                "velocity": 80,
                "duration": 0.1090909,
                "tempo": 120.0
            },
            {
                "start_time": 102.2659091,
                "end_time": 102.3613636,
                "pitch": 38,
                "velocity": 80,
                "duration": 0.0954545,
                "tempo": 120.0
            },
            {
                "start_time": 102.3613636,
                "end_time": 102.4727273,
                "pitch": 36,
                "velocity": 80,
                "duration": 0.1113636,
                "tempo": 120.0
            },
            {
                "start_time": 102.4727273,
                "end_time": 102.5681818,
                "pitch": 35,
                "velocity": 80,
                "duration": 0.0954545,
                "tempo": 120.0
            },
            {
                "start_time": 102.5681818,
                "end_time": 102.7886364,
                "pitch": 24,
                "velocity": 80,
                "duration": 0.2204545,
                "tempo": 120.0
            },
            {
                "start_time": 102.7909091,
                "end_time": 102.8909091,
                "pitch": 24,
                "velocity": 80,
                "duration": 0.1,
                "tempo": 120.0
            },
            {
                "start_time": 102.8931818,
                "end_time": 103.0113636,
                "pitch": 36,
                "velocity": 80,
                "duration": 0.1181818,
                "tempo": 120.0
            },
            {
                "start_time": 103.0136364,
                "end_time": 103.1113636,
                "pitch": 24,
                "velocity": 80,
                "duration": 0.0977273,
                "tempo": 120.0
            },
            {
                "start_time": 103.1113636,
                "end_time": 103.2295455,
                "pitch": 24,
                "velocity": 80,
                "duration": 0.1181818,
                "tempo": 120.0
            },
            {
                "start_time": 103.2295455,
                "end_time": 103.4454545,
                "pitch": 36,
                "velocity": 80,
                "duration": 0.2159091,
                "tempo": 120.0
            },
            {
                "start_time": 103.4477273,
                "end_time": 103.6454545,
                "pitch": 24,
                "velocity": 80,
                "duration": 0.1977273,
                "tempo": 120.0
            },
            {
                "start_time": 103.6477273,
                "end_time": 103.7636364,
                "pitch": 24,
                "velocity": 80,
                "duration": 0.1159091,
                "tempo": 120.0
            },
            {
                "start_time": 103.7636364,
                "end_time": 103.8636364,
                "pitch": 36,
                "velocity": 80,
                "duration": 0.1,
                "tempo": 120.0
            },
            {
                "start_time": 103.8636364,
                "end_time": 104.075,
                "pitch": 23,
                "velocity": 80,
                "duration": 0.2113636,
                "tempo": 120.0
            },
            {
                "start_time": 104.0772727,
                "end_time": 104.2886364,
                "pitch": 23,
                "velocity": 80,
                "duration": 0.2113636,
                "tempo": 120.0
            },
            {
                "start_time": 104.2886364,
                "end_time": 104.5045455,
                "pitch": 21,
                "velocity": 80,
                "duration": 0.2159091,
                "tempo": 120.0
            },
            {
                "start_time": 104.5068182,
                "end_time": 104.6068182,
                "pitch": 21,
                "velocity": 80,
                "duration": 0.1,
                "tempo": 120.0
            },
            {
                "start_time": 104.6068182,
                "end_time": 104.7227273,
                "pitch": 33,
                "velocity": 80,
                "duration": 0.1159091,
                "tempo": 120.0
            },
            {
                "start_time": 104.7227273,
                "end_time": 104.8227273,
                "pitch": 23,
                "velocity": 80,
                "duration": 0.1,
                "tempo": 120.0
            },
            {
                "start_time": 104.8227273,
                "end_time": 104.9409091,
                "pitch": 23,
                "velocity": 80,
                "duration": 0.1181818,
                "tempo": 120.0
            },
            {
                "start_time": 104.9409091,
                "end_time": 105.1409091,
                "pitch": 35,
                "velocity": 80,
                "duration": 0.2,
                "tempo": 120.0
            },
            {
                "start_time": 105.1409091,
                "end_time": 105.3522727,
                "pitch": 36,
                "velocity": 80,
                "duration": 0.2113636,
                "tempo": 120.0
            },
            {
                "start_time": 105.3522727,
                "end_time": 105.4659091,
                "pitch": 35,
                "velocity": 80,
                "duration": 0.1136364,
                "tempo": 120.0
            },
            {
                "start_time": 105.4681818,
                "end_time": 105.5659091,
                "pitch": 33,
                "velocity": 80,
                "duration": 0.0977273,
                "tempo": 120.0
            },
            {
                "start_time": 105.5659091,
                "end_time": 105.6818182,
                "pitch": 26,
                "velocity": 80,
                "duration": 0.1159091,
                "tempo": 120.0
            },
            {
                "start_time": 105.6818182,
                "end_time": 105.7818182,
                "pitch": 38,
                "velocity": 80,
                "duration": 0.1,
                "tempo": 120.0
            },
            {
                "start_time": 105.7818182,
                "end_time": 105.8818182,
                "pitch": 36,
                "velocity": 80,
                "duration": 0.1,
                "tempo": 120.0
            },
            {
                "start_time": 105.8818182,
                "end_time": 106.0,
                "pitch": 35,
                "velocity": 80,
                "duration": 0.1181818,
                "tempo": 120.0
            },
            {
                "start_time": 106.0,
                "end_time": 106.2159091,
                "pitch": 28,
                "velocity": 80,
                "duration": 0.2159091,
                "tempo": 120.0
            },
            {
                "start_time": 106.2159091,
                "end_time": 106.4340909,
                "pitch": 40,
                "velocity": 80,
                "duration": 0.2181818,
                "tempo": 120.0
            },
            {
                "start_time": 106.4340909,
                "end_time": 106.5340909,
                "pitch": 28,
                "velocity": 80,
                "duration": 0.1,
                "tempo": 120.0
            },
            {
                "start_time": 106.5340909,
                "end_time": 106.6340909,
                "pitch": 28,
                "velocity": 80,
                "duration": 0.1,
                "tempo": 120.0
            },
            {
                "start_time": 106.6340909,
                "end_time": 106.75,
                "pitch": 40,
                "velocity": 80,
                "duration": 0.1159091,
                "tempo": 120.0
            },
            {
                "start_time": 106.8522727,
                "end_time": 107.0636364,
                "pitch": 28,
                "velocity": 80,
                "duration": 0.2113636,
                "tempo": 120.0
            },
            {
                "start_time": 107.0636364,
                "end_time": 107.275,
                "pitch": 40,
                "velocity": 80,
                "duration": 0.2113636,
                "tempo": 120.0
            },
            {
                "start_time": 107.2772727,
                "end_time": 107.4931818,
                "pitch": 28,
                "velocity": 80,
                "duration": 0.2159091,
                "tempo": 120.0
            },
            {
                "start_time": 107.4931818,
                "end_time": 107.5931818,
                "pitch": 28,
                "velocity": 80,
                "duration": 0.1,
                "tempo": 120.0
            },
            {
                "start_time": 107.5931818,
                "end_time": 107.7090909,
                "pitch": 28,
                "velocity": 80,
                "duration": 0.1159091,
                "tempo": 120.0
            },
            {
                "start_time": 107.7113636,
                "end_time": 107.9272727,
                "pitch": 28,
                "velocity": 80,
                "duration": 0.2159091,
                "tempo": 120.0
            },
            {
                "start_time": 107.9272727,
                "end_time": 108.0272727,
                "pitch": 40,
                "velocity": 80,
                "duration": 0.1,
                "tempo": 120.0
            },
            {
                "start_time": 108.0272727,
                "end_time": 108.1272727,
                "pitch": 28,
                "velocity": 80,
                "duration": 0.1,
                "tempo": 120.0
            },
            {
                "start_time": 108.1272727,
                "end_time": 108.2409091,
                "pitch": 28,
                "velocity": 80,
                "duration": 0.1136364,
                "tempo": 120.0
            },
            {
                "start_time": 108.2431818,
                "end_time": 108.3386364,
                "pitch": 28,
                "velocity": 80,
                "duration": 0.0954545,
                "tempo": 120.0
            },
            {
                "start_time": 108.3409091,
                "end_time": 108.4545455,
                "pitch": 40,
                "velocity": 80,
                "duration": 0.1136364,
                "tempo": 120.0
            },
            {
                "start_time": 108.5545455,
                "end_time": 108.6681818,
                "pitch": 28,
                "velocity": 80,
                "duration": 0.1136364,
                "tempo": 120.0
            },
            {
                "start_time": 108.6704545,
                "end_time": 108.7704545,
                "pitch": 40,
                "velocity": 80,
                "duration": 0.1,
                "tempo": 120.0
            },
            {
                "start_time": 108.7704545,
                "end_time": 108.8681818,
                "pitch": 28,
                "velocity": 80,
                "duration": 0.0977273,
                "tempo": 120.0
            },
            {
                "start_time": 108.9886364,
                "end_time": 109.2090909,
                "pitch": 28,
                "velocity": 80,
                "duration": 0.2204545,
                "tempo": 120.0
            },
            {
                "start_time": 109.2090909,
                "end_time": 109.3113636,
                "pitch": 28,
                "velocity": 80,
                "duration": 0.1022727,
                "tempo": 120.0
            },
            {
                "start_time": 109.3113636,
                "end_time": 109.4295455,
                "pitch": 28,
                "velocity": 80,
                "duration": 0.1181818,
                "tempo": 120.0
            },
            {
                "start_time": 109.4318182,
                "end_time": 109.6295455,
                "pitch": 28,
                "velocity": 80,
                "duration": 0.1977273,
                "tempo": 120.0
            },
            {
                "start_time": 109.6318182,
                "end_time": 109.8477273,
                "pitch": 40,
                "velocity": 80,
                "duration": 0.2159091,
                "tempo": 120.0
            },
            {
                "start_time": 109.8477273,
                "end_time": 109.9590909,
                "pitch": 28,
                "velocity": 80,
                "duration": 0.1113636,
                "tempo": 120.0
            },
            {
                "start_time": 109.9590909,
                "end_time": 110.0545455,
                "pitch": 28,
                "velocity": 80,
                "duration": 0.0954545,
                "tempo": 120.0
            },
            {
                "start_time": 110.0545455,
                "end_time": 110.1659091,
                "pitch": 40,
                "velocity": 80,
                "duration": 0.1113636,
                "tempo": 120.0
            },
            {
                "start_time": 110.2613636,
                "end_time": 110.4772727,
                "pitch": 28,
                "velocity": 80,
                "duration": 0.2159091,
                "tempo": 120.0
            },
            {
                "start_time": 110.4795455,
                "end_time": 110.6954545,
                "pitch": 40,
                "velocity": 80,
                "duration": 0.2159091,
                "tempo": 120.0
            },
            {
                "start_time": 110.6954545,
                "end_time": 110.9181818,
                "pitch": 28,
                "velocity": 80,
                "duration": 0.2227273,
                "tempo": 120.0
            },
            {
                "start_time": 110.9181818,
                "end_time": 111.0181818,
                "pitch": 28,
                "velocity": 80,
                "duration": 0.1,
                "tempo": 120.0
            },
            {
                "start_time": 111.0204545,
                "end_time": 111.1227273,
                "pitch": 28,
                "velocity": 80,
                "duration": 0.1022727,
                "tempo": 120.0
            },
            {
                "start_time": 111.1227273,
                "end_time": 111.3272727,
                "pitch": 31,
                "velocity": 80,
                "duration": 0.2045455,
                "tempo": 120.0
            },
            {
                "start_time": 111.3295455,
                "end_time": 111.4386364,
                "pitch": 19,
                "velocity": 80,
                "duration": 0.1090909,
                "tempo": 120.0
            },
            {
                "start_time": 111.4409091,
                "end_time": 111.5340909,
                "pitch": 31,
                "velocity": 80,
                "duration": 0.0931818,
                "tempo": 120.0
            },
            {
                "start_time": 111.5363636,
                "end_time": 111.6545455,
                "pitch": 30,
                "velocity": 80,
                "duration": 0.1181818,
                "tempo": 120.0
            },
            {
                "start_time": 111.6545455,
                "end_time": 111.7568182,
                "pitch": 30,
                "velocity": 80,
                "duration": 0.1022727,
                "tempo": 120.0
            },
            {
                "start_time": 111.7568182,
                "end_time": 111.8590909,
                "pitch": 18,
                "velocity": 80,
                "duration": 0.1022727,
                "tempo": 120.0
            },
            {
                "start_time": 111.9795455,
                "end_time": 112.1954545,
                "pitch": 29,
                "velocity": 80,
                "duration": 0.2159091,
                "tempo": 120.0
            },
            {
                "start_time": 112.1954545,
                "end_time": 112.2954545,
                "pitch": 16,
                "velocity": 80,
                "duration": 0.1,
                "tempo": 120.0
            },
            {
                "start_time": 112.2954545,
                "end_time": 112.4136364,
                "pitch": 29,
                "velocity": 80,
                "duration": 0.1181818,
                "tempo": 120.0
            },
            {
                "start_time": 112.4136364,
                "end_time": 112.5113636,
                "pitch": 23,
                "velocity": 80,
                "duration": 0.0977273,
                "tempo": 120.0
            },
            {
                "start_time": 112.5136364,
                "end_time": 112.6136364,
                "pitch": 23,
                "velocity": 80,
                "duration": 0.1,
                "tempo": 120.0
            },
            {
                "start_time": 112.6136364,
                "end_time": 112.7295455,
                "pitch": 35,
                "velocity": 80,
                "duration": 0.1159091,
                "tempo": 120.0
            },
            {
                "start_time": 112.7295455,
                "end_time": 112.8295455,
                "pitch": 23,
                "velocity": 80,
                "duration": 0.1,
                "tempo": 120.0
            },
            {
                "start_time": 112.8318182,
                "end_time": 113.0431818,
                "pitch": 28,
                "velocity": 80,
                "duration": 0.2113636,
                "tempo": 120.0
            },
            {
                "start_time": 113.0431818,
                "end_time": 113.2545455,
                "pitch": 40,
                "velocity": 80,
                "duration": 0.2113636,
                "tempo": 120.0
            },
            {
                "start_time": 113.2568182,
                "end_time": 113.3545455,
                "pitch": 28,
                "velocity": 80,
                "duration": 0.0977273,
                "tempo": 120.0
            },
            {
                "start_time": 113.3545455,
                "end_time": 113.4727273,
                "pitch": 28,
                "velocity": 80,
                "duration": 0.1181818,
                "tempo": 120.0
            },
            {
                "start_time": 113.4727273,
                "end_time": 113.5727273,
                "pitch": 40,
                "velocity": 80,
                "duration": 0.1,
                "tempo": 120.0
            },
            {
                "start_time": 113.6909091,
                "end_time": 113.9068182,
                "pitch": 28,
                "velocity": 80,
                "duration": 0.2159091,
                "tempo": 120.0
            },
            {
                "start_time": 113.9068182,
                "end_time": 114.1068182,
                "pitch": 40,
                "velocity": 80,
                "duration": 0.2,
                "tempo": 120.0
            },
            {
                "start_time": 114.1068182,
                "end_time": 114.3204545,
                "pitch": 28,
                "velocity": 80,
                "duration": 0.2136364,
                "tempo": 120.0
            },
            {
                "start_time": 114.3204545,
                "end_time": 114.4340909,
                "pitch": 28,
                "velocity": 80,
                "duration": 0.1136364,
                "tempo": 120.0
            },
            {
                "start_time": 114.4340909,
                "end_time": 114.5318182,
                "pitch": 28,
                "velocity": 80,
                "duration": 0.0977273,
                "tempo": 120.0
            },
            {
                "start_time": 114.5318182,
                "end_time": 114.7477273,
                "pitch": 28,
                "velocity": 80,
                "duration": 0.2159091,
                "tempo": 120.0
            },
            {
                "start_time": 114.75,
                "end_time": 114.8477273,
                "pitch": 40,
                "velocity": 80,
                "duration": 0.0977273,
                "tempo": 120.0
            },
            {
                "start_time": 114.85,
                "end_time": 114.9659091,
                "pitch": 28,
                "velocity": 80,
                "duration": 0.1159091,
                "tempo": 120.0
            },
            {
                "start_time": 114.9659091,
                "end_time": 115.0659091,
                "pitch": 28,
                "velocity": 80,
                "duration": 0.1,
                "tempo": 120.0
            },
            {
                "start_time": 115.0659091,
                "end_time": 115.1818182,
                "pitch": 28,
                "velocity": 80,
                "duration": 0.1159091,
                "tempo": 120.0
            },
            {
                "start_time": 115.1840909,
                "end_time": 115.2818182,
                "pitch": 40,
                "velocity": 80,
                "duration": 0.0977273,
                "tempo": 120.0
            },
            {
                "start_time": 115.4,
                "end_time": 115.5,
                "pitch": 28,
                "velocity": 80,
                "duration": 0.1,
                "tempo": 120.0
            },
            {
                "start_time": 115.5,
                "end_time": 115.6,
                "pitch": 40,
                "velocity": 80,
                "duration": 0.1,
                "tempo": 120.0
            },
            {
                "start_time": 115.6022727,
                "end_time": 115.7159091,
                "pitch": 28,
                "velocity": 80,
                "duration": 0.1136364,
                "tempo": 120.0
            },
            {
                "start_time": 115.8181818,
                "end_time": 116.0295455,
                "pitch": 28,
                "velocity": 80,
                "duration": 0.2113636,
                "tempo": 120.0
            },
            {
                "start_time": 116.0318182,
                "end_time": 116.1431818,
                "pitch": 28,
                "velocity": 80,
                "duration": 0.1113636,
                "tempo": 120.0
            },
            {
                "start_time": 116.1454545,
                "end_time": 116.2431818,
                "pitch": 28,
                "velocity": 80,
                "duration": 0.0977273,
                "tempo": 120.0
            },
            {
                "start_time": 116.2431818,
                "end_time": 116.4590909,
                "pitch": 28,
                "velocity": 80,
                "duration": 0.2159091,
                "tempo": 120.0
            },
            {
                "start_time": 116.4613636,
                "end_time": 116.6772727,
                "pitch": 40,
                "velocity": 80,
                "duration": 0.2159091,
                "tempo": 120.0
            },
            {
                "start_time": 116.6772727,
                "end_time": 116.7795455,
                "pitch": 28,
                "velocity": 80,
                "duration": 0.1022727,
                "tempo": 120.0
            },
            {
                "start_time": 116.7795455,
                "end_time": 116.8977273,
                "pitch": 28,
                "velocity": 80,
                "duration": 0.1181818,
                "tempo": 120.0
            },
            {
                "start_time": 116.9,
                "end_time": 117.0,
                "pitch": 40,
                "velocity": 80,
                "duration": 0.1,
                "tempo": 120.0
            },
            {
                "start_time": 117.1045455,
                "end_time": 117.3090909,
                "pitch": 28,
                "velocity": 80,
                "duration": 0.2045455,
                "tempo": 120.0
            },
            {
                "start_time": 117.3113636,
                "end_time": 117.5159091,
                "pitch": 40,
                "velocity": 80,
                "duration": 0.2045455,
                "tempo": 120.0
            },
            {
                "start_time": 117.5181818,
                "end_time": 117.7340909,
                "pitch": 28,
                "velocity": 80,
                "duration": 0.2159091,
                "tempo": 120.0
            },
            {
                "start_time": 117.7340909,
                "end_time": 117.8340909,
                "pitch": 28,
                "velocity": 80,
                "duration": 0.1,
                "tempo": 120.0
            },
            {
                "start_time": 117.8340909,
                "end_time": 117.95,
                "pitch": 28,
                "velocity": 80,
                "duration": 0.1159091,
                "tempo": 120.0
            },
            {
                "start_time": 117.9522727,
                "end_time": 118.1727273,
                "pitch": 31,
                "velocity": 80,
                "duration": 0.2204545,
                "tempo": 120.0
            },
            {
                "start_time": 118.1727273,
                "end_time": 118.275,
                "pitch": 19,
                "velocity": 80,
                "duration": 0.1022727,
                "tempo": 120.0
            },
            {
                "start_time": 118.275,
                "end_time": 118.3954545,
                "pitch": 31,
                "velocity": 80,
                "duration": 0.1204545,
                "tempo": 120.0
            },
            {
                "start_time": 118.3954545,
                "end_time": 118.4931818,
                "pitch": 30,
                "velocity": 80,
                "duration": 0.0977273,
                "tempo": 120.0
            },
            {
                "start_time": 118.4954545,
                "end_time": 118.5954545,
                "pitch": 30,
                "velocity": 80,
                "duration": 0.1,
                "tempo": 120.0
            },
            {
                "start_time": 118.5954545,
                "end_time": 118.7113636,
                "pitch": 18,
                "velocity": 80,
                "duration": 0.1159091,
                "tempo": 120.0
            },
            {
                "start_time": 118.8136364,
                "end_time": 119.025,
                "pitch": 29,
                "velocity": 80,
                "duration": 0.2113636,
                "tempo": 120.0
            },
            {
                "start_time": 119.025,
                "end_time": 119.1386364,
                "pitch": 16,
                "velocity": 80,
                "duration": 0.1136364,
                "tempo": 120.0
            },
            {
                "start_time": 119.1386364,
                "end_time": 119.2363636,
                "pitch": 29,
                "velocity": 80,
                "duration": 0.0977273,
                "tempo": 120.0
            },
            {
                "start_time": 119.2386364,
                "end_time": 119.3363636,
                "pitch": 23,
                "velocity": 80,
                "duration": 0.0977273,
                "tempo": 120.0
            },
            {
                "start_time": 119.3386364,
                "end_time": 119.4545455,
                "pitch": 23,
                "velocity": 80,
                "duration": 0.1159091,
                "tempo": 120.0
            },
            {
                "start_time": 119.4545455,
                "end_time": 119.5545455,
                "pitch": 35,
                "velocity": 80,
                "duration": 0.1,
                "tempo": 120.0
            },
            {
                "start_time": 119.5545455,
                "end_time": 119.6704545,
                "pitch": 23,
                "velocity": 80,
                "duration": 0.1159091,
                "tempo": 120.0
            },
            {
                "start_time": 119.6727273,
                "end_time": 119.8886364,
                "pitch": 24,
                "velocity": 80,
                "duration": 0.2159091,
                "tempo": 120.0
            },
            {
                "start_time": 119.8886364,
                "end_time": 120.0886364,
                "pitch": 24,
                "velocity": 80,
                "duration": 0.2,
                "tempo": 120.0
            },
            {
                "start_time": 120.0886364,
                "end_time": 120.2022727,
                "pitch": 24,
                "velocity": 80,
                "duration": 0.1136364,
                "tempo": 120.0
            },
            {
                "start_time": 120.2022727,
                "end_time": 120.3,
                "pitch": 24,
                "velocity": 80,
                "duration": 0.0977273,
                "tempo": 120.0
            },
            {
                "start_time": 120.3022727,
                "end_time": 120.4159091,
                "pitch": 36,
                "velocity": 80,
                "duration": 0.1136364,
                "tempo": 120.0
            },
            {
                "start_time": 120.4159091,
                "end_time": 120.5136364,
                "pitch": 24,
                "velocity": 80,
                "duration": 0.0977273,
                "tempo": 120.0
            },
            {
                "start_time": 120.5136364,
                "end_time": 120.7295455,
                "pitch": 24,
                "velocity": 80,
                "duration": 0.2159091,
                "tempo": 120.0
            },
            {
                "start_time": 120.7318182,
                "end_time": 120.9477273,
                "pitch": 24,
                "velocity": 80,
                "duration": 0.2159091,
                "tempo": 120.0
            },
            {
                "start_time": 120.9477273,
                "end_time": 121.1636364,
                "pitch": 28,
                "velocity": 80,
                "duration": 0.2159091,
                "tempo": 120.0
            },
            {
                "start_time": 121.1659091,
                "end_time": 121.2636364,
                "pitch": 28,
                "velocity": 80,
                "duration": 0.0977273,
                "tempo": 120.0
            },
            {
                "start_time": 121.2659091,
                "end_time": 121.3636364,
                "pitch": 28,
                "velocity": 80,
                "duration": 0.0977273,
                "tempo": 120.0
            },
            {
                "start_time": 121.3659091,
                "end_time": 121.5772727,
                "pitch": 26,
                "velocity": 80,
                "duration": 0.2113636,
                "tempo": 120.0
            },
            {
                "start_time": 121.5772727,
                "end_time": 121.7909091,
                "pitch": 26,
                "velocity": 80,
                "duration": 0.2136364,
                "tempo": 120.0
            },
            {
                "start_time": 121.7909091,
                "end_time": 121.9068182,
                "pitch": 26,
                "velocity": 80,
                "duration": 0.1159091,
                "tempo": 120.0
            },
            {
                "start_time": 121.9068182,
                "end_time": 122.0068182,
                "pitch": 26,
                "velocity": 80,
                "duration": 0.1,
                "tempo": 120.0
            },
            {
                "start_time": 122.0068182,
                "end_time": 122.1068182,
                "pitch": 38,
                "velocity": 80,
                "duration": 0.1,
                "tempo": 120.0
            },
            {
                "start_time": 122.1068182,
                "end_time": 122.225,
                "pitch": 26,
                "velocity": 80,
                "duration": 0.1181818,
                "tempo": 120.0
            },
            {
                "start_time": 122.225,
                "end_time": 122.4409091,
                "pitch": 26,
                "velocity": 80,
                "duration": 0.2159091,
                "tempo": 120.0
            },
            {
                "start_time": 122.4431818,
                "end_time": 122.6590909,
                "pitch": 26,
                "velocity": 80,
                "duration": 0.2159091,
                "tempo": 120.0
            },
            {
                "start_time": 122.6590909,
                "end_time": 122.8636364,
                "pitch": 30,
                "velocity": 80,
                "duration": 0.2045455,
                "tempo": 120.0
            },
            {
                "start_time": 122.8636364,
                "end_time": 122.9818182,
                "pitch": 30,
                "velocity": 80,
                "duration": 0.1181818,
                "tempo": 120.0
            },
            {
                "start_time": 122.9818182,
                "end_time": 123.0840909,
                "pitch": 30,
                "velocity": 80,
                "duration": 0.1022727,
                "tempo": 120.0
            },
            {
                "start_time": 123.0863636,
                "end_time": 123.2909091,
                "pitch": 28,
                "velocity": 80,
                "duration": 0.2045455,
                "tempo": 120.0
            },
            {
                "start_time": 123.2931818,
                "end_time": 123.4977273,
                "pitch": 28,
                "velocity": 80,
                "duration": 0.2045455,
                "tempo": 120.0
            },
            {
                "start_time": 123.5,
                "end_time": 123.5977273,
                "pitch": 28,
                "velocity": 80,
                "duration": 0.0977273,
                "tempo": 120.0
            },
            {
                "start_time": 123.6,
                "end_time": 123.7159091,
                "pitch": 28,
                "velocity": 80,
                "duration": 0.1159091,
                "tempo": 120.0
            },
            {
                "start_time": 123.7159091,
                "end_time": 123.8159091,
                "pitch": 40,
                "velocity": 80,
                "duration": 0.1,
                "tempo": 120.0
            },
            {
                "start_time": 123.8159091,
                "end_time": 123.9318182,
                "pitch": 28,
                "velocity": 80,
                "duration": 0.1159091,
                "tempo": 120.0
            },
            {
                "start_time": 123.9340909,
                "end_time": 124.15,
                "pitch": 28,
                "velocity": 80,
                "duration": 0.2159091,
                "tempo": 120.0
            },
            {
                "start_time": 124.15,
                "end_time": 124.35,
                "pitch": 28,
                "velocity": 80,
                "duration": 0.2,
                "tempo": 120.0
            },
            {
                "start_time": 124.35,
                "end_time": 124.5613636,
                "pitch": 28,
                "velocity": 80,
                "duration": 0.2113636,
                "tempo": 120.0
            },
            {
                "start_time": 124.5636364,
                "end_time": 124.6772727,
                "pitch": 28,
                "velocity": 80,
                "duration": 0.1136364,
                "tempo": 120.0
            },
            {
                "start_time": 124.6772727,
                "end_time": 124.775,
                "pitch": 28,
                "velocity": 80,
                "duration": 0.0977273,
                "tempo": 120.0
            },
            {
                "start_time": 124.7772727,
                "end_time": 124.9909091,
                "pitch": 31,
                "velocity": 80,
                "duration": 0.2136364,
                "tempo": 120.0
            },
            {
                "start_time": 124.9931818,
                "end_time": 125.0909091,
                "pitch": 31,
                "velocity": 80,
                "duration": 0.0977273,
                "tempo": 120.0
            },
            {
                "start_time": 125.0931818,
                "end_time": 125.2090909,
                "pitch": 43,
                "velocity": 80,
                "duration": 0.1159091,
                "tempo": 120.0
            },
            {
                "start_time": 125.2113636,
                "end_time": 125.3113636,
                "pitch": 31,
                "velocity": 80,
                "duration": 0.1,
                "tempo": 120.0
            },
            {
                "start_time": 125.3113636,
                "end_time": 125.4318182,
                "pitch": 31,
                "velocity": 80,
                "duration": 0.1204545,
                "tempo": 120.0
            },
            {
                "start_time": 125.4318182,
                "end_time": 125.5340909,
                "pitch": 43,
                "velocity": 80,
                "duration": 0.1022727,
                "tempo": 120.0
            },
            {
                "start_time": 125.5340909,
                "end_time": 125.6522727,
                "pitch": 31,
                "velocity": 80,
                "duration": 0.1181818,
                "tempo": 120.0
            },
            {
                "start_time": 125.6545455,
                "end_time": 125.8522727,
                "pitch": 31,
                "velocity": 80,
                "duration": 0.1977273,
                "tempo": 120.0
            },
            {
                "start_time": 125.8545455,
                "end_time": 126.0704545,
                "pitch": 31,
                "velocity": 80,
                "duration": 0.2159091,
                "tempo": 120.0
            },
            {
                "start_time": 126.0704545,
                "end_time": 126.2772727,
                "pitch": 31,
                "velocity": 80,
                "duration": 0.2068182,
                "tempo": 120.0
            },
            {
                "start_time": 126.2772727,
                "end_time": 126.3886364,
                "pitch": 31,
                "velocity": 80,
                "duration": 0.1113636,
                "tempo": 120.0
            },
            {
                "start_time": 126.3886364,
                "end_time": 126.4840909,
                "pitch": 31,
                "velocity": 80,
                "duration": 0.0954545,
                "tempo": 120.0
            },
            {
                "start_time": 126.4840909,
                "end_time": 126.7045455,
                "pitch": 21,
                "velocity": 80,
                "duration": 0.2204545,
                "tempo": 120.0
            },
            {
                "start_time": 126.7068182,
                "end_time": 126.9272727,
                "pitch": 21,
                "velocity": 80,
                "duration": 0.2204545,
                "tempo": 120.0
            },
            {
                "start_time": 126.9272727,
                "end_time": 127.0272727,
                "pitch": 21,
                "velocity": 80,
                "duration": 0.1,
                "tempo": 120.0
            },
            {
                "start_time": 127.0272727,
                "end_time": 127.1431818,
                "pitch": 21,
                "velocity": 80,
                "duration": 0.1159091,
                "tempo": 120.0
            },
            {
                "start_time": 127.1454545,
                "end_time": 127.2454545,
                "pitch": 33,
                "velocity": 80,
                "duration": 0.1,
                "tempo": 120.0
            },
            {
                "start_time": 127.2454545,
                "end_time": 127.3431818,
                "pitch": 21,
                "velocity": 80,
                "duration": 0.0977273,
                "tempo": 120.0
            },
            {
                "start_time": 127.3454545,
                "end_time": 127.55,
                "pitch": 21,
                "velocity": 80,
                "duration": 0.2045455,
                "tempo": 120.0
            },
            {
                "start_time": 127.5522727,
                "end_time": 127.7590909,
                "pitch": 21,
                "velocity": 80,
                "duration": 0.2068182,
                "tempo": 120.0
            },
            {
                "start_time": 127.7590909,
                "end_time": 127.9795455,
                "pitch": 21,
                "velocity": 80,
                "duration": 0.2204545,
                "tempo": 120.0
            },
            {
                "start_time": 127.9795455,
                "end_time": 128.0818182,
                "pitch": 21,
                "velocity": 80,
                "duration": 0.1022727,
                "tempo": 120.0
            },
            {
                "start_time": 128.0818182,
                "end_time": 128.2022727,
                "pitch": 21,
                "velocity": 80,
                "duration": 0.1204545,
                "tempo": 120.0
            },
            {
                "start_time": 128.2022727,
                "end_time": 128.4181818,
                "pitch": 23,
                "velocity": 80,
                "duration": 0.2159091,
                "tempo": 120.0
            },
            {
                "start_time": 128.4181818,
                "end_time": 128.5181818,
                "pitch": 23,
                "velocity": 80,
                "duration": 0.1,
                "tempo": 120.0
            },
            {
                "start_time": 128.5181818,
                "end_time": 128.6363636,
                "pitch": 35,
                "velocity": 80,
                "duration": 0.1181818,
                "tempo": 120.0
            },
            {
                "start_time": 128.6363636,
                "end_time": 128.7363636,
                "pitch": 23,
                "velocity": 80,
                "duration": 0.1,
                "tempo": 120.0
            },
            {
                "start_time": 128.7363636,
                "end_time": 128.8363636,
                "pitch": 23,
                "velocity": 80,
                "duration": 0.1,
                "tempo": 120.0
            },
            {
                "start_time": 128.8363636,
                "end_time": 128.9522727,
                "pitch": 35,
                "velocity": 80,
                "duration": 0.1159091,
                "tempo": 120.0
            },
            {
                "start_time": 128.9545455,
                "end_time": 129.0522727,
                "pitch": 26,
                "velocity": 80,
                "duration": 0.0977273,
                "tempo": 120.0
            },
            {
                "start_time": 129.0545455,
                "end_time": 129.2659091,
                "pitch": 26,
                "velocity": 80,
                "duration": 0.2113636,
                "tempo": 120.0
            },
            {
                "start_time": 129.2659091,
                "end_time": 129.4772727,
                "pitch": 27,
                "velocity": 80,
                "duration": 0.2113636,
                "tempo": 120.0
            },
            {
                "start_time": 129.4795455,
                "end_time": 129.5772727,
                "pitch": 40,
                "velocity": 80,
                "duration": 0.0977273,
                "tempo": 120.0
            },
            {
                "start_time": 129.5795455,
                "end_time": 129.6954545,
                "pitch": 42,
                "velocity": 80,
                "duration": 0.1159091,
                "tempo": 120.0
            },
            {
                "start_time": 129.6954545,
                "end_time": 129.7954545,
                "pitch": 43,
                "velocity": 80,
                "duration": 0.1,
                "tempo": 120.0
            },
            {
                "start_time": 129.7954545,
                "end_time": 129.9113636,
                "pitch": 40,
                "velocity": 80,
                "duration": 0.1159091,
                "tempo": 120.0
            },
            {
                "start_time": 129.9136364,
                "end_time": 130.2295455,
                "pitch": 28,
                "velocity": 80,
                "duration": 0.3159091,
                "tempo": 120.0
            },
            {
                "start_time": 130.2295455,
                "end_time": 130.3295455,
                "pitch": 28,
                "velocity": 80,
                "duration": 0.1,
                "tempo": 120.0
            },
            {
                "start_time": 130.3295455,
                "end_time": 130.7545455,
                "pitch": 40,
                "velocity": 80,
                "duration": 0.425,
                "tempo": 120.0
            },
            {
                "start_time": 130.7545455,
                "end_time": 130.8704545,
                "pitch": 38,
                "velocity": 80,
                "duration": 0.1159091,
                "tempo": 120.0
            },
            {
                "start_time": 130.8727273,
                "end_time": 130.9704545,
                "pitch": 40,
                "velocity": 80,
                "duration": 0.0977273,
                "tempo": 120.0
            },
            {
                "start_time": 130.9727273,
                "end_time": 131.0704545,
                "pitch": 38,
                "velocity": 80,
                "duration": 0.0977273,
                "tempo": 120.0
            },
            {
                "start_time": 131.0727273,
                "end_time": 131.1886364,
                "pitch": 35,
                "velocity": 80,
                "duration": 0.1159091,
                "tempo": 120.0
            },
            {
                "start_time": 131.1886364,
                "end_time": 131.2886364,
                "pitch": 38,
                "velocity": 80,
                "duration": 0.1,
                "tempo": 120.0
            },
            {
                "start_time": 131.2886364,
                "end_time": 131.4045455,
                "pitch": 35,
                "velocity": 80,
                "duration": 0.1159091,
                "tempo": 120.0
            },
            {
                "start_time": 131.4068182,
                "end_time": 131.5045455,
                "pitch": 33,
                "velocity": 80,
                "duration": 0.0977273,
                "tempo": 120.0
            },
            {
                "start_time": 131.5068182,
                "end_time": 131.6227273,
                "pitch": 31,
                "velocity": 80,
                "duration": 0.1159091,
                "tempo": 120.0
            },
            {
                "start_time": 131.625,
                "end_time": 131.8386364,
                "pitch": 24,
                "velocity": 80,
                "duration": 0.2136364,
                "tempo": 120.0
            },
            {
                "start_time": 131.8409091,
                "end_time": 131.9568182,
                "pitch": 24,
                "velocity": 80,
                "duration": 0.1159091,
                "tempo": 120.0
            },
            {
                "start_time": 131.9568182,
                "end_time": 132.0568182,
                "pitch": 36,
                "velocity": 80,
                "duration": 0.1,
                "tempo": 120.0
            },
            {
                "start_time": 132.0568182,
                "end_time": 132.175,
                "pitch": 24,
                "velocity": 80,
                "duration": 0.1181818,
                "tempo": 120.0
            },
            {
                "start_time": 132.1772727,
                "end_time": 132.2772727,
                "pitch": 24,
                "velocity": 80,
                "duration": 0.1,
                "tempo": 120.0
            },
            {
                "start_time": 132.2795455,
                "end_time": 132.5,
                "pitch": 36,
                "velocity": 80,
                "duration": 0.2204545,
                "tempo": 120.0
            },
            {
                "start_time": 132.5022727,
                "end_time": 132.7181818,
                "pitch": 24,
                "velocity": 80,
                "duration": 0.2159091,
                "tempo": 120.0
            },
            {
                "start_time": 132.7181818,
                "end_time": 132.8181818,
                "pitch": 24,
                "velocity": 80,
                "duration": 0.1,
                "tempo": 120.0
            },
            {
                "start_time": 132.8181818,
                "end_time": 132.9340909,
                "pitch": 36,
                "velocity": 80,
                "duration": 0.1159091,
                "tempo": 120.0
            },
            {
                "start_time": 132.9363636,
                "end_time": 133.1340909,
                "pitch": 23,
                "velocity": 80,
                "duration": 0.1977273,
                "tempo": 120.0
            },
            {
                "start_time": 133.1363636,
                "end_time": 133.3522727,
                "pitch": 23,
                "velocity": 80,
                "duration": 0.2159091,
                "tempo": 120.0
            },
            {
                "start_time": 133.3522727,
                "end_time": 133.5636364,
                "pitch": 21,
                "velocity": 80,
                "duration": 0.2113636,
                "tempo": 120.0
            },
            {
                "start_time": 133.5659091,
                "end_time": 133.6795455,
                "pitch": 21,
                "velocity": 80,
                "duration": 0.1136364,
                "tempo": 120.0
            },
            {
                "start_time": 133.6795455,
                "end_time": 133.7772727,
                "pitch": 33,
                "velocity": 80,
                "duration": 0.0977273,
                "tempo": 120.0
            },
            {
                "start_time": 133.7772727,
                "end_time": 133.8772727,
                "pitch": 23,
                "velocity": 80,
                "duration": 0.1,
                "tempo": 120.0
            },
            {
                "start_time": 133.8772727,
                "end_time": 133.9931818,
                "pitch": 23,
                "velocity": 80,
                "duration": 0.1159091,
                "tempo": 120.0
            },
            {
                "start_time": 133.9954545,
                "end_time": 134.2113636,
                "pitch": 35,
                "velocity": 80,
                "duration": 0.2159091,
                "tempo": 120.0
            },
            {
                "start_time": 134.2113636,
                "end_time": 134.4272727,
                "pitch": 36,
                "velocity": 80,
                "duration": 0.2159091,
                "tempo": 120.0
            },
            {
                "start_time": 134.4295455,
                "end_time": 134.5272727,
                "pitch": 35,
                "velocity": 80,
                "duration": 0.0977273,
                "tempo": 120.0
            },
            {
                "start_time": 134.5295455,
                "end_time": 134.6295455,
                "pitch": 33,
                "velocity": 80,
                "duration": 0.1,
                "tempo": 120.0
            },
            {
                "start_time": 134.6295455,
                "end_time": 134.7431818,
                "pitch": 26,
                "velocity": 80,
                "duration": 0.1136364,
                "tempo": 120.0
            },
            {
                "start_time": 134.7431818,
                "end_time": 134.8409091,
                "pitch": 38,
                "velocity": 80,
                "duration": 0.0977273,
                "tempo": 120.0
            },
            {
                "start_time": 134.8431818,
                "end_time": 134.9545455,
                "pitch": 36,
                "velocity": 80,
                "duration": 0.1113636,
                "tempo": 120.0
            },
            {
                "start_time": 134.9568182,
                "end_time": 135.0545455,
                "pitch": 35,
                "velocity": 80,
                "duration": 0.0977273,
                "tempo": 120.0
            },
            {
                "start_time": 135.0545455,
                "end_time": 135.2704545,
                "pitch": 24,
                "velocity": 80,
                "duration": 0.2159091,
                "tempo": 120.0
            },
            {
                "start_time": 135.2727273,
                "end_time": 135.3704545,
                "pitch": 24,
                "velocity": 80,
                "duration": 0.0977273,
                "tempo": 120.0
            },
            {
                "start_time": 135.3704545,
                "end_time": 135.4886364,
                "pitch": 36,
                "velocity": 80,
                "duration": 0.1181818,
                "tempo": 120.0
            },
            {
                "start_time": 135.4886364,
                "end_time": 135.5909091,
                "pitch": 24,
                "velocity": 80,
                "duration": 0.1022727,
                "tempo": 120.0
            },
            {
                "start_time": 135.5909091,
                "end_time": 135.7090909,
                "pitch": 24,
                "velocity": 80,
                "duration": 0.1181818,
                "tempo": 120.0
            },
            {
                "start_time": 135.7113636,
                "end_time": 135.9318182,
                "pitch": 36,
                "velocity": 80,
                "duration": 0.2204545,
                "tempo": 120.0
            },
            {
                "start_time": 135.9318182,
                "end_time": 136.1272727,
                "pitch": 24,
                "velocity": 80,
                "duration": 0.1954545,
                "tempo": 120.0
            },
            {
                "start_time": 136.1272727,
                "end_time": 136.2409091,
                "pitch": 24,
                "velocity": 80,
                "duration": 0.1136364,
                "tempo": 120.0
            },
            {
                "start_time": 136.2431818,
                "end_time": 136.3409091,
                "pitch": 36,
                "velocity": 80,
                "duration": 0.0977273,
                "tempo": 120.0
            },
            {
                "start_time": 136.3409091,
                "end_time": 136.5522727,
                "pitch": 23,
                "velocity": 80,
                "duration": 0.2113636,
                "tempo": 120.0
            },
            {
                "start_time": 136.5522727,
                "end_time": 136.7659091,
                "pitch": 23,
                "velocity": 80,
                "duration": 0.2136364,
                "tempo": 120.0
            },
            {
                "start_time": 136.7659091,
                "end_time": 136.9818182,
                "pitch": 21,
                "velocity": 80,
                "duration": 0.2159091,
                "tempo": 120.0
            },
            {
                "start_time": 136.9840909,
                "end_time": 137.0818182,
                "pitch": 21,
                "velocity": 80,
                "duration": 0.0977273,
                "tempo": 120.0
            },
            {
                "start_time": 137.0840909,
                "end_time": 137.2,
                "pitch": 33,
                "velocity": 80,
                "duration": 0.1159091,
                "tempo": 120.0
            },
            {
                "start_time": 137.2,
                "end_time": 137.3,
                "pitch": 23,
                "velocity": 80,
                "duration": 0.1,
                "tempo": 120.0
            },
            {
                "start_time": 137.3022727,
                "end_time": 137.4204545,
                "pitch": 23,
                "velocity": 80,
                "duration": 0.1181818,
                "tempo": 120.0
            },
            {
                "start_time": 137.4227273,
                "end_time": 137.625,
                "pitch": 35,
                "velocity": 80,
                "duration": 0.2022727,
                "tempo": 120.0
            },
            {
                "start_time": 137.6272727,
                "end_time": 137.8318182,
                "pitch": 36,
                "velocity": 80,
                "duration": 0.2045455,
                "tempo": 120.0
            },
            {
                "start_time": 137.8340909,
                "end_time": 137.9431818,
                "pitch": 35,
                "velocity": 80,
                "duration": 0.1090909,
                "tempo": 120.0
            },
            {
                "start_time": 137.9431818,
                "end_time": 138.0386364,
                "pitch": 33,
                "velocity": 80,
                "duration": 0.0954545,
                "tempo": 120.0
            },
            {
                "start_time": 138.0409091,
                "end_time": 138.1568182,
                "pitch": 26,
                "velocity": 80,
                "duration": 0.1159091,
                "tempo": 120.0
            },
            {
                "start_time": 138.1568182,
                "end_time": 138.2568182,
                "pitch": 38,
                "velocity": 80,
                "duration": 0.1,
                "tempo": 120.0
            },
            {
                "start_time": 138.2568182,
                "end_time": 138.3568182,
                "pitch": 36,
                "velocity": 80,
                "duration": 0.1,
                "tempo": 120.0
            },
            {
                "start_time": 138.3568182,
                "end_time": 138.4727273,
                "pitch": 35,
                "velocity": 80,
                "duration": 0.1159091,
                "tempo": 120.0
            },
            {
                "start_time": 138.475,
                "end_time": 138.6954545,
                "pitch": 28,
                "velocity": 80,
                "duration": 0.2204545,
                "tempo": 120.0
            },
            {
                "start_time": 138.6954545,
                "end_time": 138.9159091,
                "pitch": 40,
                "velocity": 80,
                "duration": 0.2204545,
                "tempo": 120.0
            },
            {
                "start_time": 138.9181818,
                "end_time": 139.0159091,
                "pitch": 28,
                "velocity": 80,
                "duration": 0.0977273,
                "tempo": 120.0
            },
            {
                "start_time": 139.0181818,
                "end_time": 139.1181818,
                "pitch": 28,
                "velocity": 80,
                "duration": 0.1,
                "tempo": 120.0
            },
            {
                "start_time": 139.1181818,
                "end_time": 139.2340909,
                "pitch": 40,
                "velocity": 80,
                "duration": 0.1159091,
                "tempo": 120.0
            },
            {
                "start_time": 139.3363636,
                "end_time": 139.5409091,
                "pitch": 28,
                "velocity": 80,
                "duration": 0.2045455,
                "tempo": 120.0
            },
            {
                "start_time": 139.5409091,
                "end_time": 139.7477273,
                "pitch": 40,
                "velocity": 80,
                "duration": 0.2068182,
                "tempo": 120.0
            },
            {
                "start_time": 139.7477273,
                "end_time": 139.9704545,
                "pitch": 28,
                "velocity": 80,
                "duration": 0.2227273,
                "tempo": 120.0
            },
            {
                "start_time": 139.9704545,
                "end_time": 140.0704545,
                "pitch": 28,
                "velocity": 80,
                "duration": 0.1,
                "tempo": 120.0
            },
            {
                "start_time": 140.0727273,
                "end_time": 140.1909091,
                "pitch": 28,
                "velocity": 80,
                "duration": 0.1181818,
                "tempo": 120.0
            },
            {
                "start_time": 140.1931818,
                "end_time": 140.4090909,
                "pitch": 28,
                "velocity": 80,
                "duration": 0.2159091,
                "tempo": 120.0
            },
            {
                "start_time": 140.4090909,
                "end_time": 140.5090909,
                "pitch": 40,
                "velocity": 80,
                "duration": 0.1,
                "tempo": 120.0
            },
            {
                "start_time": 140.5090909,
                "end_time": 140.6090909,
                "pitch": 28,
                "velocity": 80,
                "duration": 0.1,
                "tempo": 120.0
            },
            {
                "start_time": 140.6090909,
                "end_time": 140.7227273,
                "pitch": 28,
                "velocity": 80,
                "duration": 0.1136364,
                "tempo": 120.0
            },
            {
                "start_time": 140.7227273,
                "end_time": 140.8204545,
                "pitch": 28,
                "velocity": 80,
                "duration": 0.0977273,
                "tempo": 120.0
            },
            {
                "start_time": 140.8227273,
                "end_time": 140.9363636,
                "pitch": 40,
                "velocity": 80,
                "duration": 0.1136364,
                "tempo": 120.0
            },
            {
                "start_time": 141.0340909,
                "end_time": 141.15,
                "pitch": 28,
                "velocity": 80,
                "duration": 0.1159091,
                "tempo": 120.0
            },
            {
                "start_time": 141.15,
                "end_time": 141.25,
                "pitch": 40,
                "velocity": 80,
                "duration": 0.1,
                "tempo": 120.0
            },
            {
                "start_time": 141.2522727,
                "end_time": 141.35,
                "pitch": 28,
                "velocity": 80,
                "duration": 0.0977273,
                "tempo": 120.0
            },
            {
                "start_time": 141.4681818,
                "end_time": 141.6840909,
                "pitch": 28,
                "velocity": 80,
                "duration": 0.2159091,
                "tempo": 120.0
            },
            {
                "start_time": 141.6863636,
                "end_time": 141.7840909,
                "pitch": 28,
                "velocity": 80,
                "duration": 0.0977273,
                "tempo": 120.0
            },
            {
                "start_time": 141.7863636,
                "end_time": 141.9022727,
                "pitch": 28,
                "velocity": 80,
                "duration": 0.1159091,
                "tempo": 120.0
            },
            {
                "start_time": 141.9022727,
                "end_time": 142.1022727,
                "pitch": 28,
                "velocity": 80,
                "duration": 0.2,
                "tempo": 120.0
            },
            {
                "start_time": 142.1022727,
                "end_time": 142.3181818,
                "pitch": 40,
                "velocity": 80,
                "duration": 0.2159091,
                "tempo": 120.0
            },
            {
                "start_time": 142.3204545,
                "end_time": 142.4340909,
                "pitch": 28,
                "velocity": 80,
                "duration": 0.1136364,
                "tempo": 120.0
            },
            {
                "start_time": 142.4340909,
                "end_time": 142.5318182,
                "pitch": 28,
                "velocity": 80,
                "duration": 0.0977273,
                "tempo": 120.0
            },
            {
                "start_time": 142.5318182,
                "end_time": 142.6454545,
                "pitch": 40,
                "velocity": 80,
                "duration": 0.1136364,
                "tempo": 120.0
            },
            {
                "start_time": 142.7454545,
                "end_time": 142.9613636,
                "pitch": 28,
                "velocity": 80,
                "duration": 0.2159091,
                "tempo": 120.0
            },
            {
                "start_time": 142.9613636,
                "end_time": 143.1795455,
                "pitch": 40,
                "velocity": 80,
                "duration": 0.2181818,
                "tempo": 120.0
            },
            {
                "start_time": 143.1795455,
                "end_time": 143.3954545,
                "pitch": 28,
                "velocity": 80,
                "duration": 0.2159091,
                "tempo": 120.0
            },
            {
                "start_time": 143.3977273,
                "end_time": 143.4954545,
                "pitch": 28,
                "velocity": 80,
                "duration": 0.0977273,
                "tempo": 120.0
            },
            {
                "start_time": 143.4954545,
                "end_time": 143.5954545,
                "pitch": 28,
                "velocity": 80,
                "duration": 0.1,
                "tempo": 120.0
            },
            {
                "start_time": 143.5977273,
                "end_time": 143.8090909,
                "pitch": 31,
                "velocity": 80,
                "duration": 0.2113636,
                "tempo": 120.0
            },
            {
                "start_time": 143.8090909,
                "end_time": 143.9227273,
                "pitch": 19,
                "velocity": 80,
                "duration": 0.1136364,
                "tempo": 120.0
            },
            {
                "start_time": 143.9227273,
                "end_time": 144.0204545,
                "pitch": 31,
                "velocity": 80,
                "duration": 0.0977273,
                "tempo": 120.0
            },
            {
                "start_time": 144.0227273,
                "end_time": 144.1386364,
                "pitch": 30,
                "velocity": 80,
                "duration": 0.1159091,
                "tempo": 120.0
            },
            {
                "start_time": 144.1386364,
                "end_time": 144.2386364,
                "pitch": 30,
                "velocity": 80,
                "duration": 0.1,
                "tempo": 120.0
            },
            {
                "start_time": 144.2386364,
                "end_time": 144.3386364,
                "pitch": 18,
                "velocity": 80,
                "duration": 0.1,
                "tempo": 120.0
            },
            {
                "start_time": 144.4568182,
                "end_time": 144.6727273,
                "pitch": 29,
                "velocity": 80,
                "duration": 0.2159091,
                "tempo": 120.0
            },
            {
                "start_time": 144.6727273,
                "end_time": 144.7727273,
                "pitch": 16,
                "velocity": 80,
                "duration": 0.1,
                "tempo": 120.0
            },
            {
                "start_time": 144.7727273,
                "end_time": 144.8886364,
                "pitch": 29,
                "velocity": 80,
                "duration": 0.1159091,
                "tempo": 120.0
            },
            {
                "start_time": 144.8909091,
                "end_time": 144.9909091,
                "pitch": 23,
                "velocity": 80,
                "duration": 0.1,
                "tempo": 120.0
            },
            {
                "start_time": 144.9909091,
                "end_time": 145.0931818,
                "pitch": 23,
                "velocity": 80,
                "duration": 0.1022727,
                "tempo": 120.0
            },
            {
                "start_time": 145.0954545,
                "end_time": 145.2136364,
                "pitch": 35,
                "velocity": 80,
                "duration": 0.1181818,
                "tempo": 120.0
            },
            {
                "start_time": 145.2136364,
                "end_time": 145.3159091,
                "pitch": 23,
                "velocity": 80,
                "duration": 0.1022727,
                "tempo": 120.0
            },
            {
                "start_time": 145.3159091,
                "end_time": 145.5227273,
                "pitch": 28,
                "velocity": 80,
                "duration": 0.2068182,
                "tempo": 120.0
            },
            {
                "start_time": 145.5227273,
                "end_time": 145.7295455,
                "pitch": 40,
                "velocity": 80,
                "duration": 0.2068182,
                "tempo": 120.0
            },
            {
                "start_time": 145.7295455,
                "end_time": 145.8295455,
                "pitch": 28,
                "velocity": 80,
                "duration": 0.1,
                "tempo": 120.0
            },
            {
                "start_time": 145.8295455,
                "end_time": 145.9454545,
                "pitch": 28,
                "velocity": 80,
                "duration": 0.1159091,
                "tempo": 120.0
            },
            {
                "start_time": 145.9477273,
                "end_time": 146.0454545,
                "pitch": 40,
                "velocity": 80,
                "duration": 0.0977273,
                "tempo": 120.0
            },
            {
                "start_time": 146.1636364,
                "end_time": 146.3840909,
                "pitch": 28,
                "velocity": 80,
                "duration": 0.2204545,
                "tempo": 120.0
            },
            {
                "start_time": 146.3863636,
                "end_time": 146.5909091,
                "pitch": 40,
                "velocity": 80,
                "duration": 0.2045455,
                "tempo": 120.0
            },
            {
                "start_time": 146.5909091,
                "end_time": 146.7977273,
                "pitch": 28,
                "velocity": 80,
                "duration": 0.2068182,
                "tempo": 120.0
            },
            {
                "start_time": 146.7977273,
                "end_time": 146.9068182,
                "pitch": 28,
                "velocity": 80,
                "duration": 0.1090909,
                "tempo": 120.0
            },
            {
                "start_time": 146.9090909,
                "end_time": 147.0045455,
                "pitch": 28,
                "velocity": 80,
                "duration": 0.0954545,
                "tempo": 120.0
            },
            {
                "start_time": 147.0045455,
                "end_time": 147.225,
                "pitch": 28,
                "velocity": 80,
                "duration": 0.2204545,
                "tempo": 120.0
            },
            {
                "start_time": 147.225,
                "end_time": 147.3272727,
                "pitch": 40,
                "velocity": 80,
                "duration": 0.1022727,
                "tempo": 120.0
            },
            {
                "start_time": 147.3272727,
                "end_time": 147.4477273,
                "pitch": 28,
                "velocity": 80,
                "duration": 0.1204545,
                "tempo": 120.0
            },
            {
                "start_time": 147.4477273,
                "end_time": 147.5454545,
                "pitch": 28,
                "velocity": 80,
                "duration": 0.0977273,
                "tempo": 120.0
            },
            {
                "start_time": 147.5477273,
                "end_time": 147.6636364,
                "pitch": 28,
                "velocity": 80,
                "duration": 0.1159091,
                "tempo": 120.0
            },
            {
                "start_time": 147.6636364,
                "end_time": 147.7636364,
                "pitch": 40,
                "velocity": 80,
                "duration": 0.1,
                "tempo": 120.0
            },
            {
                "start_time": 147.8818182,
                "end_time": 147.9818182,
                "pitch": 28,
                "velocity": 80,
                "duration": 0.1,
                "tempo": 120.0
            },
            {
                "start_time": 147.9818182,
                "end_time": 148.0818182,
                "pitch": 40,
                "velocity": 80,
                "duration": 0.1,
                "tempo": 120.0
            },
            {
                "start_time": 148.0818182,
                "end_time": 148.1977273,
                "pitch": 28,
                "velocity": 80,
                "duration": 0.1159091,
                "tempo": 120.0
            },
            {
                "start_time": 148.3,
                "end_time": 148.5113636,
                "pitch": 28,
                "velocity": 80,
                "duration": 0.2113636,
                "tempo": 120.0
            },
            {
                "start_time": 148.5113636,
                "end_time": 148.625,
                "pitch": 28,
                "velocity": 80,
                "duration": 0.1136364,
                "tempo": 120.0
            },
            {
                "start_time": 148.625,
                "end_time": 148.7227273,
                "pitch": 28,
                "velocity": 80,
                "duration": 0.0977273,
                "tempo": 120.0
            },
            {
                "start_time": 148.725,
                "end_time": 148.9409091,
                "pitch": 28,
                "velocity": 80,
                "duration": 0.2159091,
                "tempo": 120.0
            },
            {
                "start_time": 148.9409091,
                "end_time": 149.1568182,
                "pitch": 40,
                "velocity": 80,
                "duration": 0.2159091,
                "tempo": 120.0
            },
            {
                "start_time": 149.1590909,
                "end_time": 149.2568182,
                "pitch": 28,
                "velocity": 80,
                "duration": 0.0977273,
                "tempo": 120.0
            },
            {
                "start_time": 149.2590909,
                "end_time": 149.375,
                "pitch": 28,
                "velocity": 80,
                "duration": 0.1159091,
                "tempo": 120.0
            },
            {
                "start_time": 149.375,
                "end_time": 149.475,
                "pitch": 40,
                "velocity": 80,
                "duration": 0.1,
                "tempo": 120.0
            },
            {
                "start_time": 149.575,
                "end_time": 149.7863636,
                "pitch": 28,
                "velocity": 80,
                "duration": 0.2113636,
                "tempo": 120.0
            },
            {
                "start_time": 149.7886364,
                "end_time": 150.0,
                "pitch": 40,
                "velocity": 80,
                "duration": 0.2113636,
                "tempo": 120.0
            },
            {
                "start_time": 150.0022727,
                "end_time": 150.2181818,
                "pitch": 28,
                "velocity": 80,
                "duration": 0.2159091,
                "tempo": 120.0
            },
            {
                "start_time": 150.2181818,
                "end_time": 150.3159091,
                "pitch": 28,
                "velocity": 80,
                "duration": 0.0977273,
                "tempo": 120.0
            },
            {
                "start_time": 150.3181818,
                "end_time": 150.4340909,
                "pitch": 28,
                "velocity": 80,
                "duration": 0.1159091,
                "tempo": 120.0
            },
            {
                "start_time": 150.4363636,
                "end_time": 150.65,
                "pitch": 31,
                "velocity": 80,
                "duration": 0.2136364,
                "tempo": 120.0
            },
            {
                "start_time": 150.6522727,
                "end_time": 150.75,
                "pitch": 19,
                "velocity": 80,
                "duration": 0.0977273,
                "tempo": 120.0
            },
            {
                "start_time": 150.7522727,
                "end_time": 150.8681818,
                "pitch": 31,
                "velocity": 80,
                "duration": 0.1159091,
                "tempo": 120.0
            },
            {
                "start_time": 150.8704545,
                "end_time": 150.9704545,
                "pitch": 30,
                "velocity": 80,
                "duration": 0.1,
                "tempo": 120.0
            },
            {
                "start_time": 150.9704545,
                "end_time": 151.0727273,
                "pitch": 30,
                "velocity": 80,
                "duration": 0.1022727,
                "tempo": 120.0
            },
            {
                "start_time": 151.0727273,
                "end_time": 151.1909091,
                "pitch": 18,
                "velocity": 80,
                "duration": 0.1181818,
                "tempo": 120.0
            },
            {
                "start_time": 151.2954545,
                "end_time": 151.5022727,
                "pitch": 29,
                "velocity": 80,
                "duration": 0.2068182,
                "tempo": 120.0
            },
            {
                "start_time": 151.5022727,
                "end_time": 151.6113636,
                "pitch": 16,
                "velocity": 80,
                "duration": 0.1090909,
                "tempo": 120.0
            },
            {
                "start_time": 151.6136364,
                "end_time": 151.7090909,
                "pitch": 29,
                "velocity": 80,
                "duration": 0.0954545,
                "tempo": 120.0
            },
            {
                "start_time": 151.7090909,
                "end_time": 151.8090909,
                "pitch": 23,
                "velocity": 80,
                "duration": 0.1,
                "tempo": 120.0
            },
            {
                "start_time": 151.8090909,
                "end_time": 151.925,
                "pitch": 23,
                "velocity": 80,
                "duration": 0.1159091,
                "tempo": 120.0
            },
            {
                "start_time": 151.925,
                "end_time": 152.025,
                "pitch": 35,
                "velocity": 80,
                "duration": 0.1,
                "tempo": 120.0
            },
            {
                "start_time": 152.0272727,
                "end_time": 152.1431818,
                "pitch": 23,
                "velocity": 80,
                "duration": 0.1159091,
                "tempo": 120.0
            },
            {
                "start_time": 152.1431818,
                "end_time": 152.3636364,
                "pitch": 24,
                "velocity": 80,
                "duration": 0.2204545,
                "tempo": 120.0
            },
            {
                "start_time": 152.3659091,
                "end_time": 152.5681818,
                "pitch": 24,
                "velocity": 80,
                "duration": 0.2022727,
                "tempo": 120.0
            },
            {
                "start_time": 152.5704545,
                "end_time": 152.6795455,
                "pitch": 24,
                "velocity": 80,
                "duration": 0.1090909,
                "tempo": 120.0
            },
            {
                "start_time": 152.6795455,
                "end_time": 152.775,
                "pitch": 24,
                "velocity": 80,
                "duration": 0.0954545,
                "tempo": 120.0
            },
            {
                "start_time": 152.7772727,
                "end_time": 152.8863636,
                "pitch": 36,
                "velocity": 80,
                "duration": 0.1090909,
                "tempo": 120.0
            },
            {
                "start_time": 152.8886364,
                "end_time": 152.9818182,
                "pitch": 24,
                "velocity": 80,
                "duration": 0.0931818,
                "tempo": 120.0
            },
            {
                "start_time": 152.9840909,
                "end_time": 153.2,
                "pitch": 24,
                "velocity": 80,
                "duration": 0.2159091,
                "tempo": 120.0
            },
            {
                "start_time": 153.2,
                "end_time": 153.4159091,
                "pitch": 24,
                "velocity": 80,
                "duration": 0.2159091,
                "tempo": 120.0
            },
            {
                "start_time": 153.4181818,
                "end_time": 153.6386364,
                "pitch": 28,
                "velocity": 80,
                "duration": 0.2204545,
                "tempo": 120.0
            },
            {
                "start_time": 153.6386364,
                "end_time": 153.7409091,
                "pitch": 28,
                "velocity": 80,
                "duration": 0.1022727,
                "tempo": 120.0
            },
            {
                "start_time": 153.7409091,
                "end_time": 153.8431818,
                "pitch": 28,
                "velocity": 80,
                "duration": 0.1022727,
                "tempo": 120.0
            },
            {
                "start_time": 153.8431818,
                "end_time": 154.05,
                "pitch": 26,
                "velocity": 80,
                "duration": 0.2068182,
                "tempo": 120.0
            },
            {
                "start_time": 154.05,
                "end_time": 154.2568182,
                "pitch": 26,
                "velocity": 80,
                "duration": 0.2068182,
                "tempo": 120.0
            },
            {
                "start_time": 154.2568182,
                "end_time": 154.3727273,
                "pitch": 26,
                "velocity": 80,
                "duration": 0.1159091,
                "tempo": 120.0
            },
            {
                "start_time": 154.3727273,
                "end_time": 154.4727273,
                "pitch": 26,
                "velocity": 80,
                "duration": 0.1,
                "tempo": 120.0
            },
            {
                "start_time": 154.475,
                "end_time": 154.5727273,
                "pitch": 38,
                "velocity": 80,
                "duration": 0.0977273,
                "tempo": 120.0
            },
            {
                "start_time": 154.575,
                "end_time": 154.6909091,
                "pitch": 26,
                "velocity": 80,
                "duration": 0.1159091,
                "tempo": 120.0
            },
            {
                "start_time": 154.6909091,
                "end_time": 154.9136364,
                "pitch": 26,
                "velocity": 80,
                "duration": 0.2227273,
                "tempo": 120.0
            },
            {
                "start_time": 154.9136364,
                "end_time": 155.1340909,
                "pitch": 26,
                "velocity": 80,
                "duration": 0.2204545,
                "tempo": 120.0
            },
            {
                "start_time": 155.1363636,
                "end_time": 155.3340909,
                "pitch": 30,
                "velocity": 80,
                "duration": 0.1977273,
                "tempo": 120.0
            },
            {
                "start_time": 155.3340909,
                "end_time": 155.45,
                "pitch": 30,
                "velocity": 80,
                "duration": 0.1159091,
                "tempo": 120.0
            },
            {
                "start_time": 155.4522727,
                "end_time": 155.5522727,
                "pitch": 30,
                "velocity": 80,
                "duration": 0.1,
                "tempo": 120.0
            },
            {
                "start_time": 155.5522727,
                "end_time": 155.7590909,
                "pitch": 28,
                "velocity": 80,
                "duration": 0.2068182,
                "tempo": 120.0
            },
            {
                "start_time": 155.7590909,
                "end_time": 155.9659091,
                "pitch": 28,
                "velocity": 80,
                "duration": 0.2068182,
                "tempo": 120.0
            },
            {
                "start_time": 155.9659091,
                "end_time": 156.0659091,
                "pitch": 28,
                "velocity": 80,
                "duration": 0.1,
                "tempo": 120.0
            },
            {
                "start_time": 156.0681818,
                "end_time": 156.1863636,
                "pitch": 28,
                "velocity": 80,
                "duration": 0.1181818,
                "tempo": 120.0
            },
            {
                "start_time": 156.1886364,
                "end_time": 156.2886364,
                "pitch": 40,
                "velocity": 80,
                "duration": 0.1,
                "tempo": 120.0
            },
            {
                "start_time": 156.2909091,
                "end_time": 156.4090909,
                "pitch": 28,
                "velocity": 80,
                "duration": 0.1181818,
                "tempo": 120.0
            },
            {
                "start_time": 156.4090909,
                "end_time": 156.625,
                "pitch": 28,
                "velocity": 80,
                "duration": 0.2159091,
                "tempo": 120.0
            },
            {
                "start_time": 156.6272727,
                "end_time": 156.825,
                "pitch": 28,
                "velocity": 80,
                "duration": 0.1977273,
                "tempo": 120.0
            },
            {
                "start_time": 156.8272727,
                "end_time": 157.0386364,
                "pitch": 28,
                "velocity": 80,
                "duration": 0.2113636,
                "tempo": 120.0
            },
            {
                "start_time": 157.0386364,
                "end_time": 157.1522727,
                "pitch": 28,
                "velocity": 80,
                "duration": 0.1136364,
                "tempo": 120.0
            },
            {
                "start_time": 157.1545455,
                "end_time": 157.25,
                "pitch": 28,
                "velocity": 80,
                "duration": 0.0954545,
                "tempo": 120.0
            },
            {
                "start_time": 157.2522727,
                "end_time": 157.4681818,
                "pitch": 31,
                "velocity": 80,
                "duration": 0.2159091,
                "tempo": 120.0
            },
            {
                "start_time": 157.4681818,
                "end_time": 157.5681818,
                "pitch": 31,
                "velocity": 80,
                "duration": 0.1,
                "tempo": 120.0
            },
            {
                "start_time": 157.5681818,
                "end_time": 157.6840909,
                "pitch": 43,
                "velocity": 80,
                "duration": 0.1159091,
                "tempo": 120.0
            },
            {
                "start_time": 157.6863636,
                "end_time": 157.7840909,
                "pitch": 31,
                "velocity": 80,
                "duration": 0.0977273,
                "tempo": 120.0
            },
            {
                "start_time": 157.7863636,
                "end_time": 157.9022727,
                "pitch": 31,
                "velocity": 80,
                "duration": 0.1159091,
                "tempo": 120.0
            },
            {
                "start_time": 157.9022727,
                "end_time": 158.0022727,
                "pitch": 43,
                "velocity": 80,
                "duration": 0.1,
                "tempo": 120.0
            },
            {
                "start_time": 158.0045455,
                "end_time": 158.1204545,
                "pitch": 31,
                "velocity": 80,
                "duration": 0.1159091,
                "tempo": 120.0
            },
            {
                "start_time": 158.1204545,
                "end_time": 158.3181818,
                "pitch": 31,
                "velocity": 80,
                "duration": 0.1977273,
                "tempo": 120.0
            },
            {
                "start_time": 158.3204545,
                "end_time": 158.5363636,
                "pitch": 31,
                "velocity": 80,
                "duration": 0.2159091,
                "tempo": 120.0
            },
            {
                "start_time": 158.5386364,
                "end_time": 158.75,
                "pitch": 31,
                "velocity": 80,
                "duration": 0.2113636,
                "tempo": 120.0
            },
            {
                "start_time": 158.75,
                "end_time": 158.8636364,
                "pitch": 31,
                "velocity": 80,
                "duration": 0.1136364,
                "tempo": 120.0
            },
            {
                "start_time": 158.8636364,
                "end_time": 158.9613636,
                "pitch": 31,
                "velocity": 80,
                "duration": 0.0977273,
                "tempo": 120.0
            },
            {
                "start_time": 158.9636364,
                "end_time": 159.1795455,
                "pitch": 21,
                "velocity": 80,
                "duration": 0.2159091,
                "tempo": 120.0
            },
            {
                "start_time": 159.1795455,
                "end_time": 159.3954545,
                "pitch": 21,
                "velocity": 80,
                "duration": 0.2159091,
                "tempo": 120.0
            },
            {
                "start_time": 159.3977273,
                "end_time": 159.4954545,
                "pitch": 21,
                "velocity": 80,
                "duration": 0.0977273,
                "tempo": 120.0
            },
            {
                "start_time": 159.4954545,
                "end_time": 159.6136364,
                "pitch": 21,
                "velocity": 80,
                "duration": 0.1181818,
                "tempo": 120.0
            },
            {
                "start_time": 159.6136364,
                "end_time": 159.7136364,
                "pitch": 33,
                "velocity": 80,
                "duration": 0.1,
                "tempo": 120.0
            },
            {
                "start_time": 159.7136364,
                "end_time": 159.8136364,
                "pitch": 21,
                "velocity": 80,
                "duration": 0.1,
                "tempo": 120.0
            },
            {
                "start_time": 159.8136364,
                "end_time": 160.025,
                "pitch": 21,
                "velocity": 80,
                "duration": 0.2113636,
                "tempo": 120.0
            },
            {
                "start_time": 160.0272727,
                "end_time": 160.2386364,
                "pitch": 21,
                "velocity": 80,
                "duration": 0.2113636,
                "tempo": 120.0
            },
            {
                "start_time": 160.2386364,
                "end_time": 160.4545455,
                "pitch": 21,
                "velocity": 80,
                "duration": 0.2159091,
                "tempo": 120.0
            },
            {
                "start_time": 160.4568182,
                "end_time": 160.5568182,
                "pitch": 21,
                "velocity": 80,
                "duration": 0.1,
                "tempo": 120.0
            },
            {
                "start_time": 160.5568182,
                "end_time": 160.6727273,
                "pitch": 21,
                "velocity": 80,
                "duration": 0.1159091,
                "tempo": 120.0
            },
            {
                "start_time": 160.675,
                "end_time": 160.8886364,
                "pitch": 23,
                "velocity": 80,
                "duration": 0.2136364,
                "tempo": 120.0
            },
            {
                "start_time": 160.8909091,
                "end_time": 160.9886364,
                "pitch": 23,
                "velocity": 80,
                "duration": 0.0977273,
                "tempo": 120.0
            },
            {
                "start_time": 160.9909091,
                "end_time": 161.1068182,
                "pitch": 35,
                "velocity": 80,
                "duration": 0.1159091,
                "tempo": 120.0
            },
            {
                "start_time": 161.1090909,
                "end_time": 161.2090909,
                "pitch": 23,
                "velocity": 80,
                "duration": 0.1,
                "tempo": 120.0
            },
            {
                "start_time": 161.2090909,
                "end_time": 161.3113636,
                "pitch": 23,
                "velocity": 80,
                "duration": 0.1022727,
                "tempo": 120.0
            },
            {
                "start_time": 161.3113636,
                "end_time": 161.4318182,
                "pitch": 35,
                "velocity": 80,
                "duration": 0.1204545,
                "tempo": 120.0
            },
            {
                "start_time": 161.4318182,
                "end_time": 161.5340909,
                "pitch": 26,
                "velocity": 80,
                "duration": 0.1022727,
                "tempo": 120.0
            },
            {
                "start_time": 161.5340909,
                "end_time": 161.7409091,
                "pitch": 26,
                "velocity": 80,
                "duration": 0.2068182,
                "tempo": 120.0
            },
            {
                "start_time": 161.7409091,
                "end_time": 161.9477273,
                "pitch": 27,
                "velocity": 80,
                "duration": 0.2068182,
                "tempo": 120.0
            },
            {
                "start_time": 161.9477273,
                "end_time": 162.0477273,
                "pitch": 40,
                "velocity": 80,
                "duration": 0.1,
                "tempo": 120.0
            },
            {
                "start_time": 162.05,
                "end_time": 162.1681818,
                "pitch": 42,
                "velocity": 80,
                "duration": 0.1181818,
                "tempo": 120.0
            },
            {
                "start_time": 162.1681818,
                "end_time": 162.2704545,
                "pitch": 43,
                "velocity": 80,
                "duration": 0.1022727,
                "tempo": 120.0
            },
            {
                "start_time": 162.2704545,
                "end_time": 162.3909091,
                "pitch": 40,
                "velocity": 80,
                "duration": 0.1204545,
                "tempo": 120.0
            },
            {
                "start_time": 162.3909091,
                "end_time": 162.6068182,
                "pitch": 24,
                "velocity": 80,
                "duration": 0.2159091,
                "tempo": 120.0
            },
            {
                "start_time": 162.6068182,
                "end_time": 162.7227273,
                "pitch": 24,
                "velocity": 80,
                "duration": 0.1159091,
                "tempo": 120.0
            },
            {
                "start_time": 162.725,
                "end_time": 162.825,
                "pitch": 36,
                "velocity": 80,
                "duration": 0.1,
                "tempo": 120.0
            },
            {
                "start_time": 162.825,
                "end_time": 162.9409091,
                "pitch": 24,
                "velocity": 80,
                "duration": 0.1159091,
                "tempo": 120.0
            },
            {
                "start_time": 162.9409091,
                "end_time": 163.0409091,
                "pitch": 24,
                "velocity": 80,
                "duration": 0.1,
                "tempo": 120.0
            },
            {
                "start_time": 163.0409091,
                "end_time": 163.2590909,
                "pitch": 36,
                "velocity": 80,
                "duration": 0.2181818,
                "tempo": 120.0
            },
            {
                "start_time": 163.2590909,
                "end_time": 163.475,
                "pitch": 24,
                "velocity": 80,
                "duration": 0.2159091,
                "tempo": 120.0
            },
            {
                "start_time": 163.475,
                "end_time": 163.575,
                "pitch": 24,
                "velocity": 80,
                "duration": 0.1,
                "tempo": 120.0
            },
            {
                "start_time": 163.575,
                "end_time": 163.6931818,
                "pitch": 36,
                "velocity": 80,
                "duration": 0.1181818,
                "tempo": 120.0
            },
            {
                "start_time": 163.6931818,
                "end_time": 163.8931818,
                "pitch": 23,
                "velocity": 80,
                "duration": 0.2,
                "tempo": 120.0
            },
            {
                "start_time": 163.8931818,
                "end_time": 164.1090909,
                "pitch": 23,
                "velocity": 80,
                "duration": 0.2159091,
                "tempo": 120.0
            },
            {
                "start_time": 164.1113636,
                "end_time": 164.3227273,
                "pitch": 21,
                "velocity": 80,
                "duration": 0.2113636,
                "tempo": 120.0
            },
            {
                "start_time": 164.3227273,
                "end_time": 164.4363636,
                "pitch": 21,
                "velocity": 80,
                "duration": 0.1136364,
                "tempo": 120.0
            },
            {
                "start_time": 164.4363636,
                "end_time": 164.5340909,
                "pitch": 33,
                "velocity": 80,
                "duration": 0.0977273,
                "tempo": 120.0
            },
            {
                "start_time": 164.5363636,
                "end_time": 164.6340909,
                "pitch": 23,
                "velocity": 80,
                "duration": 0.0977273,
                "tempo": 120.0
            },
            {
                "start_time": 164.6363636,
                "end_time": 164.7522727,
                "pitch": 23,
                "velocity": 80,
                "duration": 0.1159091,
                "tempo": 120.0
            },
            {
                "start_time": 164.7522727,
                "end_time": 164.9681818,
                "pitch": 35,
                "velocity": 80,
                "duration": 0.2159091,
                "tempo": 120.0
            },
            {
                "start_time": 164.9704545,
                "end_time": 165.1863636,
                "pitch": 36,
                "velocity": 80,
                "duration": 0.2159091,
                "tempo": 120.0
            },
            {
                "start_time": 165.1863636,
                "end_time": 165.2863636,
                "pitch": 35,
                "velocity": 80,
                "duration": 0.1,
                "tempo": 120.0
            },
            {
                "start_time": 165.2863636,
                "end_time": 165.3863636,
                "pitch": 33,
                "velocity": 80,
                "duration": 0.1,
                "tempo": 120.0
            },
            {
                "start_time": 165.3886364,
                "end_time": 165.5,
                "pitch": 26,
                "velocity": 80,
                "duration": 0.1113636,
                "tempo": 120.0
            },
            {
                "start_time": 165.5022727,
                "end_time": 165.5977273,
                "pitch": 38,
                "velocity": 80,
                "duration": 0.0954545,
                "tempo": 120.0
            },
            {
                "start_time": 165.6,
                "end_time": 165.7136364,
                "pitch": 36,
                "velocity": 80,
                "duration": 0.1136364,
                "tempo": 120.0
            },
            {
                "start_time": 165.7136364,
                "end_time": 165.8113636,
                "pitch": 35,
                "velocity": 80,
                "duration": 0.0977273,
                "tempo": 120.0
            },
            {
                "start_time": 165.8136364,
                "end_time": 166.0272727,
                "pitch": 24,
                "velocity": 80,
                "duration": 0.2136364,
                "tempo": 120.0
            },
            {
                "start_time": 166.0295455,
                "end_time": 166.1295455,
                "pitch": 24,
                "velocity": 80,
                "duration": 0.1,
                "tempo": 120.0
            },
            {
                "start_time": 166.1295455,
                "end_time": 166.2454545,
                "pitch": 36,
                "velocity": 80,
                "duration": 0.1159091,
                "tempo": 120.0
            },
            {
                "start_time": 166.2477273,
                "end_time": 166.3477273,
                "pitch": 24,
                "velocity": 80,
                "duration": 0.1,
                "tempo": 120.0
            },
            {
                "start_time": 166.3477273,
                "end_time": 166.4681818,
                "pitch": 24,
                "velocity": 80,
                "duration": 0.1204545,
                "tempo": 120.0
            },
            {
                "start_time": 166.4681818,
                "end_time": 166.6886364,
                "pitch": 36,
                "velocity": 80,
                "duration": 0.2204545,
                "tempo": 120.0
            },
            {
                "start_time": 166.6909091,
                "end_time": 166.8886364,
                "pitch": 24,
                "velocity": 80,
                "duration": 0.1977273,
                "tempo": 120.0
            },
            {
                "start_time": 166.8909091,
                "end_time": 167.0068182,
                "pitch": 24,
                "velocity": 80,
                "duration": 0.1159091,
                "tempo": 120.0
            },
            {
                "start_time": 167.0068182,
                "end_time": 167.1068182,
                "pitch": 36,
                "velocity": 80,
                "duration": 0.1,
                "tempo": 120.0
            },
            {
                "start_time": 167.1068182,
                "end_time": 167.3136364,
                "pitch": 23,
                "velocity": 80,
                "duration": 0.2068182,
                "tempo": 120.0
            },
            {
                "start_time": 167.3136364,
                "end_time": 167.5204545,
                "pitch": 23,
                "velocity": 80,
                "duration": 0.2068182,
                "tempo": 120.0
            },
            {
                "start_time": 167.5204545,
                "end_time": 167.7409091,
                "pitch": 21,
                "velocity": 80,
                "duration": 0.2204545,
                "tempo": 120.0
            },
            {
                "start_time": 167.7431818,
                "end_time": 167.8431818,
                "pitch": 21,
                "velocity": 80,
                "duration": 0.1,
                "tempo": 120.0
            },
            {
                "start_time": 167.8454545,
                "end_time": 167.9636364,
                "pitch": 33,
                "velocity": 80,
                "duration": 0.1181818,
                "tempo": 120.0
            },
            {
                "start_time": 167.9636364,
                "end_time": 168.0636364,
                "pitch": 23,
                "velocity": 80,
                "duration": 0.1,
                "tempo": 120.0
            },
            {
                "start_time": 168.0636364,
                "end_time": 168.1818182,
                "pitch": 23,
                "velocity": 80,
                "duration": 0.1181818,
                "tempo": 120.0
            },
            {
                "start_time": 168.1818182,
                "end_time": 168.3818182,
                "pitch": 35,
                "velocity": 80,
                "duration": 0.2,
                "tempo": 120.0
            },
            {
                "start_time": 168.3818182,
                "end_time": 168.5863636,
                "pitch": 36,
                "velocity": 80,
                "duration": 0.2045455,
                "tempo": 120.0
            },
            {
                "start_time": 168.5886364,
                "end_time": 168.6977273,
                "pitch": 35,
                "velocity": 80,
                "duration": 0.1090909,
                "tempo": 120.0
            },
            {
                "start_time": 168.7,
                "end_time": 168.7931818,
                "pitch": 33,
                "velocity": 80,
                "duration": 0.0931818,
                "tempo": 120.0
            },
            {
                "start_time": 168.7954545,
                "end_time": 168.9136364,
                "pitch": 26,
                "velocity": 80,
                "duration": 0.1181818,
                "tempo": 120.0
            },
            {
                "start_time": 168.9136364,
                "end_time": 169.0159091,
                "pitch": 38,
                "velocity": 80,
                "duration": 0.1022727,
                "tempo": 120.0
            },
            {
                "start_time": 169.0159091,
                "end_time": 169.1181818,
                "pitch": 36,
                "velocity": 80,
                "duration": 0.1022727,
                "tempo": 120.0
            },
            {
                "start_time": 169.1181818,
                "end_time": 169.2386364,
                "pitch": 35,
                "velocity": 80,
                "duration": 0.1204545,
                "tempo": 120.0
            },
            {
                "start_time": 169.2386364,
                "end_time": 169.4545455,
                "pitch": 28,
                "velocity": 80,
                "duration": 0.2159091,
                "tempo": 120.0
            },
            {
                "start_time": 169.4545455,
                "end_time": 169.6704545,
                "pitch": 40,
                "velocity": 80,
                "duration": 0.2159091,
                "tempo": 120.0
            },
            {
                "start_time": 169.6727273,
                "end_time": 169.7704545,
                "pitch": 28,
                "velocity": 80,
                "duration": 0.0977273,
                "tempo": 120.0
            },
            {
                "start_time": 169.7727273,
                "end_time": 169.8727273,
                "pitch": 28,
                "velocity": 80,
                "duration": 0.1,
                "tempo": 120.0
            },
            {
                "start_time": 169.8727273,
                "end_time": 169.9886364,
                "pitch": 40,
                "velocity": 80,
                "duration": 0.1159091,
                "tempo": 120.0
            },
            {
                "start_time": 170.0909091,
                "end_time": 170.2954545,
                "pitch": 28,
                "velocity": 80,
                "duration": 0.2045455,
                "tempo": 120.0
            },
            {
                "start_time": 170.2954545,
                "end_time": 170.5022727,
                "pitch": 40,
                "velocity": 80,
                "duration": 0.2068182,
                "tempo": 120.0
            },
            {
                "start_time": 170.5022727,
                "end_time": 170.725,
                "pitch": 28,
                "velocity": 80,
                "duration": 0.2227273,
                "tempo": 120.0
            },
            {
                "start_time": 170.725,
                "end_time": 170.825,
                "pitch": 28,
                "velocity": 80,
                "duration": 0.1,
                "tempo": 120.0
            },
            {
                "start_time": 170.8272727,
                "end_time": 170.9454545,
                "pitch": 28,
                "velocity": 80,
                "duration": 0.1181818,
                "tempo": 120.0
            },
            {
                "start_time": 170.9477273,
                "end_time": 171.1636364,
                "pitch": 28,
                "velocity": 80,
                "duration": 0.2159091,
                "tempo": 120.0
            },
            {
                "start_time": 171.1636364,
                "end_time": 171.2636364,
                "pitch": 40,
                "velocity": 80,
                "duration": 0.1,
                "tempo": 120.0
            },
            {
                "start_time": 171.2636364,
                "end_time": 171.3636364,
                "pitch": 28,
                "velocity": 80,
                "duration": 0.1,
                "tempo": 120.0
            },
            {
                "start_time": 171.3636364,
                "end_time": 171.4772727,
                "pitch": 28,
                "velocity": 80,
                "duration": 0.1136364,
                "tempo": 120.0
            },
            {
                "start_time": 171.4772727,
                "end_time": 171.575,
                "pitch": 28,
                "velocity": 80,
                "duration": 0.0977273,
                "tempo": 120.0
            },
            {
                "start_time": 171.5772727,
                "end_time": 171.6909091,
                "pitch": 40,
                "velocity": 80,
                "duration": 0.1136364,
                "tempo": 120.0
            },
            {
                "start_time": 171.7886364,
                "end_time": 171.9045455,
                "pitch": 28,
                "velocity": 80,
                "duration": 0.1159091,
                "tempo": 120.0
            },
            {
                "start_time": 171.9045455,
                "end_time": 172.0045455,
                "pitch": 40,
                "velocity": 80,
                "duration": 0.1,
                "tempo": 120.0
            },
            {
                "start_time": 172.0068182,
                "end_time": 172.1045455,
                "pitch": 28,
                "velocity": 80,
                "duration": 0.0977273,
                "tempo": 120.0
            },
            {
                "start_time": 172.2227273,
                "end_time": 172.4386364,
                "pitch": 28,
                "velocity": 80,
                "duration": 0.2159091,
                "tempo": 120.0
            },
            {
                "start_time": 172.4409091,
                "end_time": 172.5386364,
                "pitch": 28,
                "velocity": 80,
                "duration": 0.0977273,
                "tempo": 120.0
            },
            {
                "start_time": 172.5409091,
                "end_time": 172.6568182,
                "pitch": 28,
                "velocity": 80,
                "duration": 0.1159091,
                "tempo": 120.0
            },
            {
                "start_time": 172.6568182,
                "end_time": 172.8568182,
                "pitch": 28,
                "velocity": 80,
                "duration": 0.2,
                "tempo": 120.0
            },
            {
                "start_time": 172.8568182,
                "end_time": 173.075,
                "pitch": 40,
                "velocity": 80,
                "duration": 0.2181818,
                "tempo": 120.0
            },
            {
                "start_time": 173.075,
                "end_time": 173.1886364,
                "pitch": 28,
                "velocity": 80,
                "duration": 0.1136364,
                "tempo": 120.0
            },
            {
                "start_time": 173.1886364,
                "end_time": 173.2863636,
                "pitch": 28,
                "velocity": 80,
                "duration": 0.0977273,
                "tempo": 120.0
            },
            {
                "start_time": 173.2863636,
                "end_time": 173.4,
                "pitch": 40,
                "velocity": 80,
                "duration": 0.1136364,
                "tempo": 120.0
            },
            {
                "start_time": 173.5,
                "end_time": 173.7159091,
                "pitch": 28,
                "velocity": 80,
                "duration": 0.2159091,
                "tempo": 120.0
            },
            {
                "start_time": 173.7159091,
                "end_time": 173.9340909,
                "pitch": 40,
                "velocity": 80,
                "duration": 0.2181818,
                "tempo": 120.0
            },
            {
                "start_time": 173.9340909,
                "end_time": 174.15,
                "pitch": 28,
                "velocity": 80,
                "duration": 0.2159091,
                "tempo": 120.0
            },
            {
                "start_time": 174.1522727,
                "end_time": 174.25,
                "pitch": 28,
                "velocity": 80,
                "duration": 0.0977273,
                "tempo": 120.0
            },
            {
                "start_time": 174.25,
                "end_time": 174.35,
                "pitch": 28,
                "velocity": 80,
                "duration": 0.1,
                "tempo": 120.0
            },
            {
                "start_time": 174.3522727,
                "end_time": 174.5636364,
                "pitch": 31,
                "velocity": 80,
                "duration": 0.2113636,
                "tempo": 120.0
            },
            {
                "start_time": 174.5636364,
                "end_time": 174.6772727,
                "pitch": 19,
                "velocity": 80,
                "duration": 0.1136364,
                "tempo": 120.0
            },
            {
                "start_time": 174.6772727,
                "end_time": 174.775,
                "pitch": 31,
                "velocity": 80,
                "duration": 0.0977273,
                "tempo": 120.0
            },
            {
                "start_time": 174.7772727,
                "end_time": 174.8931818,
                "pitch": 30,
                "velocity": 80,
                "duration": 0.1159091,
                "tempo": 120.0
            },
            {
                "start_time": 174.8931818,
                "end_time": 174.9931818,
                "pitch": 30,
                "velocity": 80,
                "duration": 0.1,
                "tempo": 120.0
            },
            {
                "start_time": 174.9931818,
                "end_time": 175.0931818,
                "pitch": 18,
                "velocity": 80,
                "duration": 0.1,
                "tempo": 120.0
            },
            {
                "start_time": 175.2113636,
                "end_time": 175.4318182,
                "pitch": 29,
                "velocity": 80,
                "duration": 0.2204545,
                "tempo": 120.0
            },
            {
                "start_time": 175.4318182,
                "end_time": 175.5340909,
                "pitch": 16,
                "velocity": 80,
                "duration": 0.1022727,
                "tempo": 120.0
            },
            {
                "start_time": 175.5340909,
                "end_time": 175.6545455,
                "pitch": 29,
                "velocity": 80,
                "duration": 0.1204545,
                "tempo": 120.0
            },
            {
                "start_time": 175.6545455,
                "end_time": 175.7522727,
                "pitch": 23,
                "velocity": 80,
                "duration": 0.0977273,
                "tempo": 120.0
            },
            {
                "start_time": 175.7545455,
                "end_time": 175.8545455,
                "pitch": 23,
                "velocity": 80,
                "duration": 0.1,
                "tempo": 120.0
            },
            {
                "start_time": 175.8545455,
                "end_time": 175.9704545,
                "pitch": 35,
                "velocity": 80,
                "duration": 0.1159091,
                "tempo": 120.0
            },
            {
                "start_time": 175.9704545,
                "end_time": 176.0704545,
                "pitch": 23,
                "velocity": 80,
                "duration": 0.1,
                "tempo": 120.0
            },
            {
                "start_time": 176.0727273,
                "end_time": 176.2772727,
                "pitch": 28,
                "velocity": 80,
                "duration": 0.2045455,
                "tempo": 120.0
            },
            {
                "start_time": 176.2772727,
                "end_time": 176.4840909,
                "pitch": 40,
                "velocity": 80,
                "duration": 0.2068182,
                "tempo": 120.0
            },
            {
                "start_time": 176.4840909,
                "end_time": 176.5863636,
                "pitch": 28,
                "velocity": 80,
                "duration": 0.1022727,
                "tempo": 120.0
            },
            {
                "start_time": 176.5863636,
                "end_time": 176.7045455,
                "pitch": 28,
                "velocity": 80,
                "duration": 0.1181818,
                "tempo": 120.0
            },
            {
                "start_time": 176.7068182,
                "end_time": 176.8068182,
                "pitch": 40,
                "velocity": 80,
                "duration": 0.1,
                "tempo": 120.0
            },
            {
                "start_time": 176.9295455,
                "end_time": 177.1454545,
                "pitch": 28,
                "velocity": 80,
                "duration": 0.2159091,
                "tempo": 120.0
            },
            {
                "start_time": 177.1454545,
                "end_time": 177.3454545,
                "pitch": 40,
                "velocity": 80,
                "duration": 0.2,
                "tempo": 120.0
            },
            {
                "start_time": 177.3454545,
                "end_time": 177.5568182,
                "pitch": 28,
                "velocity": 80,
                "duration": 0.2113636,
                "tempo": 120.0
            },
            {
                "start_time": 177.5590909,
                "end_time": 177.6727273,
                "pitch": 28,
                "velocity": 80,
                "duration": 0.1136364,
                "tempo": 120.0
            },
            {
                "start_time": 177.6727273,
                "end_time": 177.7704545,
                "pitch": 28,
                "velocity": 80,
                "duration": 0.0977273,
                "tempo": 120.0
            },
            {
                "start_time": 177.7704545,
                "end_time": 177.9863636,
                "pitch": 28,
                "velocity": 80,
                "duration": 0.2159091,
                "tempo": 120.0
            },
            {
                "start_time": 177.9886364,
                "end_time": 178.0863636,
                "pitch": 40,
                "velocity": 80,
                "duration": 0.0977273,
                "tempo": 120.0
            },
            {
                "start_time": 178.0886364,
                "end_time": 178.2045455,
                "pitch": 28,
                "velocity": 80,
                "duration": 0.1159091,
                "tempo": 120.0
            },
            {
                "start_time": 178.2045455,
                "end_time": 178.3045455,
                "pitch": 28,
                "velocity": 80,
                "duration": 0.1,
                "tempo": 120.0
            },
            {
                "start_time": 178.3045455,
                "end_time": 178.4204545,
                "pitch": 28,
                "velocity": 80,
                "duration": 0.1159091,
                "tempo": 120.0
            },
            {
                "start_time": 178.4227273,
                "end_time": 178.5204545,
                "pitch": 40,
                "velocity": 80,
                "duration": 0.0977273,
                "tempo": 120.0
            },
            {
                "start_time": 178.6386364,
                "end_time": 178.7386364,
                "pitch": 28,
                "velocity": 80,
                "duration": 0.1,
                "tempo": 120.0
            },
            {
                "start_time": 178.7386364,
                "end_time": 178.8386364,
                "pitch": 40,
                "velocity": 80,
                "duration": 0.1,
                "tempo": 120.0
            },
            {
                "start_time": 178.8386364,
                "end_time": 178.9545455,
                "pitch": 28,
                "velocity": 80,
                "duration": 0.1159091,
                "tempo": 120.0
            },
            {
                "start_time": 179.0568182,
                "end_time": 179.2681818,
                "pitch": 28,
                "velocity": 80,
                "duration": 0.2113636,
                "tempo": 120.0
            },
            {
                "start_time": 179.2704545,
                "end_time": 179.3818182,
                "pitch": 28,
                "velocity": 80,
                "duration": 0.1113636,
                "tempo": 120.0
            },
            {
                "start_time": 179.3840909,
                "end_time": 179.4818182,
                "pitch": 28,
                "velocity": 80,
                "duration": 0.0977273,
                "tempo": 120.0
            },
            {
                "start_time": 179.4818182,
                "end_time": 179.6977273,
                "pitch": 28,
                "velocity": 80,
                "duration": 0.2159091,
                "tempo": 120.0
            },
            {
                "start_time": 179.6977273,
                "end_time": 179.9159091,
                "pitch": 40,
                "velocity": 80,
                "duration": 0.2181818,
                "tempo": 120.0
            }
        ]
    }
}