{
    "mood": "happy",
    "instruments": {
        "Trumpet": [
            {
                "start_time": 0.0454545,
                "end_time": 0.0977273,
                "pitch": 65,
                "velocity": 80,
                "duration": 0.0522727,
                "tempo": 120.0
            },
            {
                "start_time": 0.2613636,
                "end_time": 0.3431818,
                "pitch": 64,
                "velocity": 80,
                "duration": 0.0818182,
                "tempo": 120.0
            },
            {
                "start_time": 0.5590909,
                "end_time": 0.6409091,
                "pitch": 65,
                "velocity": 80,
                "duration": 0.0818182,
                "tempo": 120.0
            },
            {
                "start_time": 0.8545455,
                "end_time": 0.9363636,
                "pitch": 64,
                "velocity": 80,
                "duration": 0.0818182,
                "tempo": 120.0
            },
            {
                "start_time": 1.1522727,
                "end_time": 1.2340909,
                "pitch": 65,
                "velocity": 80,
                "duration": 0.0818182,
                "tempo": 120.0
            },
            {
                "start_time": 1.25,
                "end_time": 1.3318182,
                "pitch": 65,
                "velocity": 80,
                "duration": 0.0818182,
                "tempo": 120.0
            },
            {
                "start_time": 1.35,
                "end_time": 1.4318182,
                "pitch": 64,
                "velocity": 80,
                "duration": 0.0818182,
                "tempo": 120.0
            },
            {
                "start_time": 1.5568182,
                "end_time": 1.6454545,
                "pitch": 67,
                "velocity": 80,
                "duration": 0.0886364,
                "tempo": 120.0
            },
            {
                "start_time": 1.8840909,
                "end_time": 1.9727273,
                "pitch": 67,
                "velocity": 80,
                "duration": 0.0886364,
                "tempo": 120.0
            },
            {
                "start_time": 2.2045455,
                "end_time": 2.3886364,
                "pitch": 67,
                "velocity": 80,
                "duration": 0.1840909,
                "tempo": 120.0
            }
        ],
        "Lead 2 (sawtooth)": [
            {
                "start_time": 0.0022727,
                "end_time": 0.0545455,
                "pitch": 36,
                "velocity": 127,
                "duration": 0.0522727,
                "tempo": 120.0
            },
            {
                "start_time": 0.0659091,
                "end_time": 0.1181818,
                "pitch": 36,
                "velocity": 127,
                "duration": 0.0522727,
                "tempo": 120.0
            },
            {
                "start_time": 0.1295455,
                "end_time": 0.1840909,
                "pitch": 48,
                "velocity": 127,
                "duration": 0.0545455,
                "tempo": 120.0
            },
            {
                "start_time": 0.1954545,
                "end_time": 0.2772727,
                "pitch": 36,
                "velocity": 127,
                "duration": 0.0818182,
                "tempo": 120.0
            },
            {
                "start_time": 0.2931818,
                "end_time": 0.375,
                "pitch": 36,
                "velocity": 127,
                "duration": 0.0818182,
                "tempo": 120.0
            },
            {
                "start_time": 0.3931818,
                "end_time": 0.475,
                "pitch": 48,
                "velocity": 127,
                "duration": 0.0818182,
                "tempo": 120.0
            },
            {
                "start_time": 0.4931818,
                "end_time": 0.5727273,
                "pitch": 36,
                "velocity": 127,
                "duration": 0.0795455,
                "tempo": 120.0
            },
            {
                "start_time": 0.5909091,
                "end_time": 0.6727273,
                "pitch": 36,
                "velocity": 127,
                "duration": 0.0818182,
                "tempo": 120.0
            },
            {
                "start_time": 0.6886364,
                "end_time": 0.7704545,
                "pitch": 48,
                "velocity": 127,
                "duration": 0.0818182,
                "tempo": 120.0
            },
            {
                "start_time": 0.7886364,
                "end_time": 0.8704545,
                "pitch": 36,
                "velocity": 127,
                "duration": 0.0818182,
                "tempo": 120.0
            },
            {
                "start_time": 0.8863636,
                "end_time": 0.9681818,
                "pitch": 36,
                "velocity": 127,
                "duration": 0.0818182,
                "tempo": 120.0
            },
            {
                "start_time": 0.9863636,
                "end_time": 1.0681818,
                "pitch": 48,
                "velocity": 127,
                "duration": 0.0818182,
                "tempo": 120.0
            },
            {
                "start_time": 1.0863636,
                "end_time": 1.1659091,
                "pitch": 36,
                "velocity": 127,
                "duration": 0.0795455,
                "tempo": 120.0
            },
            {
                "start_time": 1.1840909,
                "end_time": 1.2659091,
                "pitch": 36,
                "velocity": 127,
                "duration": 0.0818182,
                "tempo": 120.0
            },
            {
                "start_time": 1.2840909,
                "end_time": 1.3636364,
                "pitch": 36,
                "velocity": 127,
                "duration": 0.0795455,
                "tempo": 120.0
            },
            {
                "start_time": 1.4840909,
                "end_time": 1.5727273,
                "pitch": 36,
                "velocity": 127,
                "duration": 0.0886364,
                "tempo": 120.0
            },
            {
                "start_time": 1.8090909,
                "end_time": 1.9,
                "pitch": 36,
                "velocity": 127,
                "duration": 0.0909091,
                "tempo": 120.0
            },
            {
                "start_time": 2.1363636,
                "end_time": 2.3204545,
                "pitch": 36,
                "velocity": 127,
                "duration": 0.1840909,
                "tempo": 120.0
            }
        ],
        "French Horn": [
            {
                "start_time": 0.0045455,
                "end_time": 0.0545455,
                "pitch": 77,
                "velocity": 80,
                "duration": 0.05,
                "tempo": 120.0
            },
            {
                "start_time": 0.1977273,
                "end_time": 0.2772727,
                "pitch": 76,
                "velocity": 80,
                "duration": 0.0795455,
                "tempo": 120.0
            },
            {
                "start_time": 0.4931818,
                "end_time": 0.5727273,
                "pitch": 77,
                "velocity": 80,
                "duration": 0.0795455,
                "tempo": 120.0
            },
            {
                "start_time": 0.7909091,
                "end_time": 0.8704545,
                "pitch": 76,
                "velocity": 80,
                "duration": 0.0795455,
                "tempo": 120.0
            },
            {
                "start_time": 1.0863636,
                "end_time": 1.1659091,
                "pitch": 77,
                "velocity": 80,
                "duration": 0.0795455,
                "tempo": 120.0
            },
            {
                "start_time": 1.1863636,
                "end_time": 1.2659091,
                "pitch": 77,
                "velocity": 80,
                "duration": 0.0795455,
                "tempo": 120.0
            },
            {
                "start_time": 1.2840909,
                "end_time": 1.3636364,
                "pitch": 76,
                "velocity": 80,
                "duration": 0.0795455,
                "tempo": 120.0
            },
            {
                "start_time": 1.4840909,
                "end_time": 1.5727273,
                "pitch": 79,
                "velocity": 80,
                "duration": 0.0886364,
                "tempo": 120.0
            },
            {
                "start_time": 1.8113636,
                "end_time": 1.9,
                "pitch": 79,
                "velocity": 80,
                "duration": 0.0886364,
                "tempo": 120.0
            },
            {
                "start_time": 2.1386364,
                "end_time": 2.3204545,
                "pitch": 79,
                "velocity": 80,
                "duration": 0.1818182,
                "tempo": 120.0
            }
        ]
    }
}