{
    "mood": "happy",
    "instruments": {
        "Electric Guitar (clean)": [
            {
                "start_time": 0.0477273,
                "end_time": 0.2409091,
                "pitch": 31,
                "velocity": 101,
                "duration": 0.1931818,
                "tempo": 120.0
            },
            {
                "start_time": 0.2863636,
                "end_time": 0.3613636,
                "pitch": 31,
                "velocity": 101,
                "duration": 0.075,
                "tempo": 120.0
            },
            {
                "start_time": 0.4068182,
                "end_time": 0.6022727,
                "pitch": 31,
                "velocity": 101,
                "duration": 0.1954545,
                "tempo": 120.0
            },
            {
                "start_time": 0.6477273,
                "end_time": 0.7204545,
                "pitch": 31,
                "velocity": 101,
                "duration": 0.0727273,
                "tempo": 120.0
            },
            {
                "start_time": 0.7659091,
                "end_time": 0.9613636,
                "pitch": 31,
                "velocity": 101,
                "duration": 0.1954545,
                "tempo": 120.0
            },
            {
                "start_time": 1.0068182,
                "end_time": 1.0818182,
                "pitch": 31,
                "velocity": 101,
                "duration": 0.075,
                "tempo": 120.0
            },
            {
                "start_time": 1.1272727,
                "end_time": 1.3204545,
                "pitch": 31,
                "velocity": 101,
                "duration": 0.1931818,
                "tempo": 120.0
            },
            {
                "start_time": 1.3659091,
                "end_time": 1.4409091,
                "pitch": 31,
                "velocity": 101,
                "duration": 0.075,
                "tempo": 120.0
            },
            {
                "start_time": 1.4863636,
                "end_time": 1.6818182,
                "pitch": 31,
                "velocity": 101,
                "duration": 0.1954545,
                "tempo": 120.0
            },
            {
                "start_time": 1.7272727,
                "end_time": 1.8022727,
                "pitch": 31,
                "velocity": 101,
                "duration": 0.075,
                "tempo": 120.0
            },
            {
                "start_time": 1.8477273,
                "end_time": 2.0409091,
                "pitch": 31,
                "velocity": 101,
                "duration": 0.1931818,
                "tempo": 120.0
            },
            {
                "start_time": 2.0863636,
                "end_time": 2.1613636,
                "pitch": 31,
                "velocity": 101,
                "duration": 0.075,
                "tempo": 120.0
            },
            {
                "start_time": 2.2068182,
                "end_time": 2.4022727,
                "pitch": 31,
                "velocity": 101,
                "duration": 0.1954545,
                "tempo": 120.0
            },
            {
                "start_time": 2.4454545,
                "end_time": 2.5204545,
                "pitch": 31,
                "velocity": 101,
                "duration": 0.075,
                "tempo": 120.0
            },
            {
                "start_time": 2.5659091,
                "end_time": 2.7613636,
                "pitch": 31,
                "velocity": 101,
                "duration": 0.1954545,
                "tempo": 120.0
            },
            {
                "start_time": 2.8068182,
                "end_time": 2.8818182,
                "pitch": 31,
                "velocity": 101,
                "duration": 0.075,
                "tempo": 120.0
            },
            {
                "start_time": 2.9272727,
                "end_time": 3.1204545,
                "pitch": 31,
                "velocity": 101,
                "duration": 0.1931818,
                "tempo": 120.0
            },
            {
                "start_time": 3.1659091,
                "end_time": 3.2409091,
                "pitch": 31,
                "velocity": 101,
                "duration": 0.075,
                "tempo": 120.0
            },
            {
                "start_time": 3.2863636,
                "end_time": 3.475,
                "pitch": 31,
                "velocity": 101,
                "duration": 0.1886364,
                "tempo": 120.0
            },
            {
                "start_time": 3.5181818,
                "end_time": 3.5909091,
                "pitch": 31,
                "velocity": 101,
                "duration": 0.0727273,
                "tempo": 120.0
            },
            {
                "start_time": 3.6363636,
                "end_time": 3.8295455,
                "pitch": 31,
                "velocity": 101,
                "duration": 0.1931818,
                "tempo": 120.0
            },
            {
                "start_time": 3.875,
                "end_time": 3.95,
                "pitch": 31,
                "velocity": 101,
                "duration": 0.075,
                "tempo": 120.0
            },
            {
                "start_time": 3.9954545,
                "end_time": 4.1909091,
                "pitch": 31,
                "velocity": 101,
                "duration": 0.1954545,
                "tempo": 120.0
            },
            {
                "start_time": 4.2363636,
                "end_time": 4.3113636,
                "pitch": 31,
                "velocity": 101,
                "duration": 0.075,
                "tempo": 120.0
            },
            {
                "start_time": 4.3568182,
                "end_time": 4.55,
                "pitch": 31,
                "velocity": 101,
                "duration": 0.1931818,
                "tempo": 120.0
            },
            {
                "start_time": 4.5954545,
                "end_time": 4.6704545,
                "pitch": 31,
                "velocity": 101,
                "duration": 0.075,
                "tempo": 120.0
            },
            {
                "start_time": 4.7159091,
                "end_time": 4.9090909,
                "pitch": 31,
                "velocity": 101,
                "duration": 0.1931818,
                "tempo": 120.0
            },
            {
                "start_time": 4.9545455,
                "end_time": 5.0295455,
                "pitch": 31,
                "velocity": 101,
                "duration": 0.075,
                "tempo": 120.0
            },
            {
                "start_time": 5.075,
                "end_time": 5.2704545,
                "pitch": 31,
                "velocity": 101,
                "duration": 0.1954545,
                "tempo": 120.0
            },
            {
                "start_time": 5.3159091,
                "end_time": 5.3909091,
                "pitch": 31,
                "velocity": 101,
                "duration": 0.075,
                "tempo": 120.0
            },
            {
                "start_time": 5.4363636,
                "end_time": 5.625,
                "pitch": 31,
                "velocity": 101,
                "duration": 0.1886364,
                "tempo": 120.0
            },
            {
                "start_time": 5.6681818,
                "end_time": 5.7409091,
                "pitch": 31,
                "velocity": 101,
                "duration": 0.0727273,
                "tempo": 120.0
            },
            {
                "start_time": 5.7840909,
                "end_time": 5.9840909,
                "pitch": 31,
                "velocity": 101,
                "duration": 0.2,
                "tempo": 120.0
            },
            {
                "start_time": 6.0295455,
                "end_time": 6.1068182,
                "pitch": 31,
                "velocity": 101,
                "duration": 0.0772727,
                "tempo": 120.0
            },
            {
                "start_time": 6.1522727,
                "end_time": 6.3431818,
                "pitch": 31,
                "velocity": 101,
                "duration": 0.1909091,
                "tempo": 120.0
            },
            {
                "start_time": 6.3863636,
                "end_time": 6.4590909,
                "pitch": 31,
                "velocity": 101,
                "duration": 0.0727273,
                "tempo": 120.0
            },
            {
                "start_time": 6.5022727,
                "end_time": 6.6977273,
                "pitch": 31,
                "velocity": 101,
                "duration": 0.1954545,
                "tempo": 120.0
            },
            {
                "start_time": 6.7431818,
                "end_time": 6.8181818,
                "pitch": 31,
                "velocity": 101,
                "duration": 0.075,
                "tempo": 120.0
            },
            {
                "start_time": 6.8636364,
                "end_time": 7.0568182,
                "pitch": 31,
                "velocity": 101,
                "duration": 0.1931818,
                "tempo": 120.0
            },
            {
                "start_time": 7.1022727,
                "end_time": 7.1772727,
                "pitch": 31,
                "velocity": 101,
                "duration": 0.075,
                "tempo": 120.0
            },
            {
                "start_time": 7.2227273,
                "end_time": 7.4159091,
                "pitch": 31,
                "velocity": 101,
                "duration": 0.1931818,
                "tempo": 120.0
            },
            {
                "start_time": 7.4613636,
                "end_time": 7.5363636,
                "pitch": 31,
                "velocity": 101,
                "duration": 0.075,
                "tempo": 120.0
            },
            {
                "start_time": 7.5818182,
                "end_time": 7.7704545,
                "pitch": 31,
                "velocity": 101,
                "duration": 0.1886364,
                "tempo": 120.0
            },
            {
                "start_time": 7.8159091,
                "end_time": 7.8886364,
                "pitch": 31,
                "velocity": 101,
                "duration": 0.0727273,
                "tempo": 120.0
            },
            {
                "start_time": 7.9318182,
                "end_time": 8.1272727,
                "pitch": 31,
                "velocity": 101,
                "duration": 0.1954545,
                "tempo": 120.0
            },
            {
                "start_time": 8.1704545,
                "end_time": 8.2454545,
                "pitch": 31,
                "velocity": 101,
                "duration": 0.075,
                "tempo": 120.0
            },
            {
                "start_time": 8.2909091,
                "end_time": 8.4863636,
                "pitch": 31,
                "velocity": 101,
                "duration": 0.1954545,
                "tempo": 120.0
            },
            {
                "start_time": 8.5318182,
                "end_time": 8.6068182,
                "pitch": 31,
                "velocity": 101,
                "duration": 0.075,
                "tempo": 120.0
            },
            {
                "start_time": 8.6522727,
                "end_time": 8.8454545,
                "pitch": 31,
                "velocity": 101,
                "duration": 0.1931818,
                "tempo": 120.0
            },
            {
                "start_time": 8.8909091,
                "end_time": 8.9659091,
                "pitch": 31,
                "velocity": 101,
                "duration": 0.075,
                "tempo": 120.0
            },
            {
                "start_time": 9.0113636,
                "end_time": 9.2068182,
                "pitch": 31,
                "velocity": 101,
                "duration": 0.1954545,
                "tempo": 120.0
            },
            {
                "start_time": 9.2522727,
                "end_time": 9.325,
                "pitch": 31,
                "velocity": 101,
                "duration": 0.0727273,
                "tempo": 120.0
            },
            {
                "start_time": 9.3727273,
                "end_time": 9.5659091,
                "pitch": 31,
                "velocity": 101,
                "duration": 0.1931818,
                "tempo": 120.0
            },
            {
                "start_time": 9.6113636,
                "end_time": 9.6863636,
                "pitch": 31,
                "velocity": 101,
                "duration": 0.075,
                "tempo": 120.0
            },
            {
                "start_time": 9.7318182,
                "end_time": 9.925,
                "pitch": 31,
                "velocity": 101,
                "duration": 0.1931818,
                "tempo": 120.0
            },
            {
                "start_time": 9.9704545,
                "end_time": 10.0454545,
                "pitch": 31,
                "velocity": 101,
                "duration": 0.075,
                "tempo": 120.0
            },
            {
                "start_time": 10.0909091,
                "end_time": 10.1659091,
                "pitch": 31,
                "velocity": 101,
                "duration": 0.075,
                "tempo": 120.0
            },
            {
                "start_time": 10.2113636,
                "end_time": 10.2863636,
                "pitch": 43,
                "velocity": 101,
                "duration": 0.075,
                "tempo": 120.0
            },
            {
                "start_time": 10.3318182,
                "end_time": 10.4068182,
                "pitch": 43,
                "velocity": 101,
                "duration": 0.075,
                "tempo": 120.0
            },
            {
                "start_time": 10.45,
                "end_time": 10.5227273,
                "pitch": 43,
                "velocity": 101,
                "duration": 0.0727273,
                "tempo": 120.0
            },
            {
                "start_time": 10.5681818,
                "end_time": 10.6409091,
                "pitch": 43,
                "velocity": 101,
                "duration": 0.0727273,
                "tempo": 120.0
            },
            {
                "start_time": 10.6840909,
                "end_time": 10.7568182,
                "pitch": 43,
                "velocity": 101,
                "duration": 0.0727273,
                "tempo": 120.0
            },
            {
                "start_time": 10.8,
                "end_time": 10.875,
                "pitch": 43,
                "velocity": 101,
                "duration": 0.075,
                "tempo": 120.0
            },
            {
                "start_time": 10.9204545,
                "end_time": 10.9954545,
                "pitch": 43,
                "velocity": 101,
                "duration": 0.075,
                "tempo": 120.0
            },
            {
                "start_time": 11.0409091,
                "end_time": 11.1159091,
                "pitch": 43,
                "velocity": 101,
                "duration": 0.075,
                "tempo": 120.0
            },
            {
                "start_time": 11.1613636,
                "end_time": 11.2340909,
                "pitch": 43,
                "velocity": 101,
                "duration": 0.0727273,
                "tempo": 120.0
            },
            {
                "start_time": 11.2795455,
                "end_time": 11.3545455,
                "pitch": 43,
                "velocity": 101,
                "duration": 0.075,
                "tempo": 120.0
            },
            {
                "start_time": 11.4,
                "end_time": 11.475,
                "pitch": 43,
                "velocity": 101,
                "duration": 0.075,
                "tempo": 120.0
            },
            {
                "start_time": 11.5204545,
                "end_time": 11.7159091,
                "pitch": 43,
                "velocity": 127,
                "duration": 0.1954545,
                "tempo": 120.0
            },
            {
                "start_time": 11.7613636,
                "end_time": 11.8340909,
                "pitch": 43,
                "velocity": 127,
                "duration": 0.0727273,
                "tempo": 120.0
            },
            {
                "start_time": 11.8795455,
                "end_time": 11.9545455,
                "pitch": 43,
                "velocity": 127,
                "duration": 0.075,
                "tempo": 120.0
            },
            {
                "start_time": 12.0,
                "end_time": 12.075,
                "pitch": 43,
                "velocity": 127,
                "duration": 0.075,
                "tempo": 120.0
            },
            {
                "start_time": 12.1204545,
                "end_time": 12.1954545,
                "pitch": 43,
                "velocity": 127,
                "duration": 0.075,
                "tempo": 120.0
            },
            {
                "start_time": 12.2409091,
                "end_time": 12.4340909,
                "pitch": 43,
                "velocity": 127,
                "duration": 0.1931818,
                "tempo": 120.0
            },
            {
                "start_time": 12.4795455,
                "end_time": 12.5545455,
                "pitch": 43,
                "velocity": 127,
                "duration": 0.075,
                "tempo": 120.0
            },
            {
                "start_time": 12.6,
                "end_time": 12.675,
                "pitch": 43,
                "velocity": 127,
                "duration": 0.075,
                "tempo": 120.0
            },
            {
                "start_time": 12.7204545,
                "end_time": 12.7954545,
                "pitch": 43,
                "velocity": 127,
                "duration": 0.075,
                "tempo": 120.0
            },
            {
                "start_time": 12.8409091,
                "end_time": 12.9159091,
                "pitch": 43,
                "velocity": 127,
                "duration": 0.075,
                "tempo": 120.0
            },
            {
                "start_time": 12.9613636,
                "end_time": 13.1545455,
                "pitch": 43,
                "velocity": 127,
                "duration": 0.1931818,
                "tempo": 120.0
            },
            {
                "start_time": 13.2,
                "end_time": 13.275,
                "pitch": 43,
                "velocity": 127,
                "duration": 0.075,
                "tempo": 120.0
            },
            {
                "start_time": 13.3204545,
                "end_time": 13.3931818,
                "pitch": 43,
                "velocity": 127,
                "duration": 0.0727273,
                "tempo": 120.0
            },
            {
                "start_time": 13.4363636,
                "end_time": 13.5090909,
                "pitch": 43,
                "velocity": 127,
                "duration": 0.0727273,
                "tempo": 120.0
            },
            {
                "start_time": 13.5522727,
                "end_time": 13.625,
                "pitch": 43,
                "velocity": 127,
                "duration": 0.0727273,
                "tempo": 120.0
            },
            {
                "start_time": 13.6704545,
                "end_time": 13.8636364,
                "pitch": 43,
                "velocity": 127,
                "duration": 0.1931818,
                "tempo": 120.0
            },
            {
                "start_time": 13.9090909,
                "end_time": 13.9840909,
                "pitch": 43,
                "velocity": 127,
                "duration": 0.075,
                "tempo": 120.0
            },
            {
                "start_time": 14.0295455,
                "end_time": 14.1045455,
                "pitch": 43,
                "velocity": 127,
                "duration": 0.075,
                "tempo": 120.0
            },
            {
                "start_time": 14.15,
                "end_time": 14.225,
                "pitch": 43,
                "velocity": 127,
                "duration": 0.075,
                "tempo": 120.0
            },
            {
                "start_time": 14.2681818,
                "end_time": 14.3431818,
                "pitch": 43,
                "velocity": 127,
                "duration": 0.075,
                "tempo": 120.0
            },
            {
                "start_time": 14.3886364,
                "end_time": 14.5840909,
                "pitch": 43,
                "velocity": 127,
                "duration": 0.1954545,
                "tempo": 120.0
            },
            {
                "start_time": 14.6295455,
                "end_time": 14.7045455,
                "pitch": 43,
                "velocity": 127,
                "duration": 0.075,
                "tempo": 120.0
            },
            {
                "start_time": 14.75,
                "end_time": 14.825,
                "pitch": 43,
                "velocity": 127,
                "duration": 0.075,
                "tempo": 120.0
            },
            {
                "start_time": 14.8681818,
                "end_time": 14.9431818,
                "pitch": 43,
                "velocity": 127,
                "duration": 0.075,
                "tempo": 120.0
            },
            {
                "start_time": 14.9886364,
                "end_time": 15.0636364,
                "pitch": 43,
                "velocity": 127,
                "duration": 0.075,
                "tempo": 120.0
            },
            {
                "start_time": 15.1090909,
                "end_time": 15.2977273,
                "pitch": 43,
                "velocity": 127,
                "duration": 0.1886364,
                "tempo": 120.0
            },
            {
                "start_time": 15.3409091,
                "end_time": 15.4136364,
                "pitch": 43,
                "velocity": 127,
                "duration": 0.0727273,
                "tempo": 120.0
            },
            {
                "start_time": 15.4590909,
                "end_time": 15.5340909,
                "pitch": 43,
                "velocity": 127,
                "duration": 0.075,
                "tempo": 120.0
            },
            {
                "start_time": 15.5795455,
                "end_time": 15.6522727,
                "pitch": 43,
                "velocity": 127,
                "duration": 0.0727273,
                "tempo": 120.0
            },
            {
                "start_time": 15.6977273,
                "end_time": 15.7727273,
                "pitch": 43,
                "velocity": 127,
                "duration": 0.075,
                "tempo": 120.0
            },
            {
                "start_time": 15.8181818,
                "end_time": 16.0136364,
                "pitch": 43,
                "velocity": 127,
                "duration": 0.1954545,
                "tempo": 120.0
            },
            {
                "start_time": 16.0590909,
                "end_time": 16.1340909,
                "pitch": 43,
                "velocity": 127,
                "duration": 0.075,
                "tempo": 120.0
            },
            {
                "start_time": 16.1772727,
                "end_time": 16.2522727,
                "pitch": 43,
                "velocity": 127,
                "duration": 0.075,
                "tempo": 120.0
            },
            {
                "start_time": 16.2977273,
                "end_time": 16.3727273,
                "pitch": 43,
                "velocity": 127,
                "duration": 0.075,
                "tempo": 120.0
            },
            {
                "start_time": 16.4181818,
                "end_time": 16.4931818,
                "pitch": 43,
                "velocity": 127,
                "duration": 0.075,
                "tempo": 120.0
            },
            {
                "start_time": 16.5386364,
                "end_time": 16.7340909,
                "pitch": 43,
                "velocity": 127,
                "duration": 0.1954545,
                "tempo": 120.0
            },
            {
                "start_time": 16.7772727,
                "end_time": 16.8522727,
                "pitch": 43,
                "velocity": 127,
                "duration": 0.075,
                "tempo": 120.0
            },
            {
                "start_time": 16.8977273,
                "end_time": 16.9727273,
                "pitch": 43,
                "velocity": 127,
                "duration": 0.075,
                "tempo": 120.0
            },
            {
                "start_time": 17.0181818,
                "end_time": 17.0931818,
                "pitch": 43,
                "velocity": 127,
                "duration": 0.075,
                "tempo": 120.0
            },
            {
                "start_time": 17.1386364,
                "end_time": 17.2136364,
                "pitch": 43,
                "velocity": 127,
                "duration": 0.075,
                "tempo": 120.0
            },
            {
                "start_time": 17.2590909,
                "end_time": 17.4522727,
                "pitch": 43,
                "velocity": 127,
                "duration": 0.1931818,
                "tempo": 120.0
            },
            {
                "start_time": 17.4977273,
                "end_time": 17.5727273,
                "pitch": 43,
                "velocity": 127,
                "duration": 0.075,
                "tempo": 120.0
            },
            {
                "start_time": 17.6181818,
                "end_time": 17.6909091,
                "pitch": 43,
                "velocity": 127,
                "duration": 0.0727273,
                "tempo": 120.0
            },
            {
                "start_time": 17.7340909,
                "end_time": 17.8068182,
                "pitch": 43,
                "velocity": 127,
                "duration": 0.0727273,
                "tempo": 120.0
            },
            {
                "start_time": 17.85,
                "end_time": 17.9227273,
                "pitch": 43,
                "velocity": 127,
                "duration": 0.0727273,
                "tempo": 120.0
            },
            {
                "start_time": 17.9681818,
                "end_time": 18.1613636,
                "pitch": 43,
                "velocity": 127,
                "duration": 0.1931818,
                "tempo": 120.0
            },
            {
                "start_time": 18.2068182,
                "end_time": 18.2818182,
                "pitch": 43,
                "velocity": 127,
                "duration": 0.075,
                "tempo": 120.0
            },
            {
                "start_time": 18.3272727,
                "end_time": 18.4022727,
                "pitch": 43,
                "velocity": 127,
                "duration": 0.075,
                "tempo": 120.0
            },
            {
                "start_time": 18.4477273,
                "end_time": 18.5227273,
                "pitch": 43,
                "velocity": 127,
                "duration": 0.075,
                "tempo": 120.0
            },
            {
                "start_time": 18.5681818,
                "end_time": 18.6431818,
                "pitch": 43,
                "velocity": 127,
                "duration": 0.075,
                "tempo": 120.0
            },
            {
                "start_time": 18.6886364,
                "end_time": 18.8818182,
                "pitch": 43,
                "velocity": 127,
                "duration": 0.1931818,
                "tempo": 120.0
            },
            {
                "start_time": 18.9272727,
                "end_time": 19.0022727,
                "pitch": 43,
                "velocity": 127,
                "duration": 0.075,
                "tempo": 120.0
            },
            {
                "start_time": 19.0477273,
                "end_time": 19.1227273,
                "pitch": 43,
                "velocity": 127,
                "duration": 0.075,
                "tempo": 120.0
            },
            {
                "start_time": 19.1681818,
                "end_time": 19.2431818,
                "pitch": 43,
                "velocity": 127,
                "duration": 0.075,
                "tempo": 120.0
            },
            {
                "start_time": 19.2863636,
                "end_time": 19.3613636,
                "pitch": 43,
                "velocity": 127,
                "duration": 0.075,
                "tempo": 120.0
            },
            {
                "start_time": 19.4068182,
                "end_time": 19.6022727,
                "pitch": 43,
                "velocity": 127,
                "duration": 0.1954545,
                "tempo": 120.0
            },
            {
                "start_time": 19.6477273,
                "end_time": 19.7227273,
                "pitch": 43,
                "velocity": 127,
                "duration": 0.075,
                "tempo": 120.0
            },
            {
                "start_time": 19.7681818,
                "end_time": 19.8409091,
                "pitch": 43,
                "velocity": 127,
                "duration": 0.0727273,
                "tempo": 120.0
            },
            {
                "start_time": 19.8863636,
                "end_time": 19.9613636,
                "pitch": 43,
                "velocity": 127,
                "duration": 0.075,
                "tempo": 120.0
            },
            {
                "start_time": 20.0068182,
                "end_time": 20.0818182,
                "pitch": 43,
                "velocity": 127,
                "duration": 0.075,
                "tempo": 120.0
            },
            {
                "start_time": 20.1272727,
                "end_time": 20.3227273,
                "pitch": 43,
                "velocity": 127,
                "duration": 0.1954545,
                "tempo": 120.0
            },
            {
                "start_time": 20.3681818,
                "end_time": 20.4409091,
                "pitch": 43,
                "velocity": 127,
                "duration": 0.0727273,
                "tempo": 120.0
            },
            {
                "start_time": 20.4863636,
                "end_time": 20.5613636,
                "pitch": 43,
                "velocity": 127,
                "duration": 0.075,
                "tempo": 120.0
            },
            {
                "start_time": 20.6068182,
                "end_time": 20.6818182,
                "pitch": 43,
                "velocity": 127,
                "duration": 0.075,
                "tempo": 120.0
            },
            {
                "start_time": 20.7272727,
                "end_time": 20.8022727,
                "pitch": 43,
                "velocity": 127,
                "duration": 0.075,
                "tempo": 120.0
            },
            {
                "start_time": 20.8477273,
                "end_time": 21.0363636,
                "pitch": 43,
                "velocity": 127,
                "duration": 0.1886364,
                "tempo": 120.0
            },
            {
                "start_time": 21.0795455,
                "end_time": 21.1522727,
                "pitch": 43,
                "velocity": 127,
                "duration": 0.0727273,
                "tempo": 120.0
            },
            {
                "start_time": 21.1954545,
                "end_time": 21.2704545,
                "pitch": 43,
                "velocity": 127,
                "duration": 0.075,
                "tempo": 120.0
            },
            {
                "start_time": 21.3159091,
                "end_time": 21.3909091,
                "pitch": 43,
                "velocity": 127,
                "duration": 0.075,
                "tempo": 120.0
            },
            {
                "start_time": 21.4363636,
                "end_time": 21.5113636,
                "pitch": 43,
                "velocity": 127,
                "duration": 0.075,
                "tempo": 120.0
            },
            {
                "start_time": 21.5568182,
                "end_time": 21.75,
                "pitch": 31,
                "velocity": 127,
                "duration": 0.1931818,
                "tempo": 120.0
            },
            {
                "start_time": 21.7954545,
                "end_time": 21.8704545,
                "pitch": 31,
                "velocity": 127,
                "duration": 0.075,
                "tempo": 120.0
            },
            {
                "start_time": 21.9159091,
                "end_time": 21.9909091,
                "pitch": 31,
                "velocity": 127,
                "duration": 0.075,
                "tempo": 120.0
            },
            {
                "start_time": 22.0363636,
                "end_time": 22.1113636,
                "pitch": 43,
                "velocity": 127,
                "duration": 0.075,
                "tempo": 120.0
            },
            {
                "start_time": 22.1568182,
                "end_time": 22.2318182,
                "pitch": 31,
                "velocity": 127,
                "duration": 0.075,
                "tempo": 120.0
            },
            {
                "start_time": 22.2772727,
                "end_time": 22.4704545,
                "pitch": 31,
                "velocity": 127,
                "duration": 0.1931818,
                "tempo": 120.0
            },
            {
                "start_time": 22.5159091,
                "end_time": 22.5909091,
                "pitch": 31,
                "velocity": 127,
                "duration": 0.075,
                "tempo": 120.0
            },
            {
                "start_time": 22.6363636,
                "end_time": 22.7113636,
                "pitch": 31,
                "velocity": 127,
                "duration": 0.075,
                "tempo": 120.0
            },
            {
                "start_time": 22.7568182,
                "end_time": 22.8318182,
                "pitch": 43,
                "velocity": 127,
                "duration": 0.075,
                "tempo": 120.0
            },
            {
                "start_time": 22.8772727,
                "end_time": 22.95,
                "pitch": 31,
                "velocity": 127,
                "duration": 0.0727273,
                "tempo": 120.0
            },
            {
                "start_time": 22.9954545,
                "end_time": 23.0113636,
                "pitch": 31,
                "velocity": 101,
                "duration": 0.0159091,
                "tempo": 120.0
            }
        ],
        "Acoustic Grand Piano": [
            {
                "start_time": 0.0477273,
                "end_time": 0.2568182,
                "pitch": 43,
                "velocity": 101,
                "duration": 0.2090909,
                "tempo": 120.0
            },
            {
                "start_time": 0.2863636,
                "end_time": 0.3772727,
                "pitch": 43,
                "velocity": 101,
                "duration": 0.0909091,
                "tempo": 120.0
            },
            {
                "start_time": 0.4068182,
                "end_time": 0.6159091,
                "pitch": 43,
                "velocity": 101,
                "duration": 0.2090909,
                "tempo": 120.0
            },
            {
                "start_time": 0.6477273,
                "end_time": 0.7363636,
                "pitch": 43,
                "velocity": 101,
                "duration": 0.0886364,
                "tempo": 120.0
            },
            {
                "start_time": 0.7681818,
                "end_time": 0.9772727,
                "pitch": 43,
                "velocity": 101,
                "duration": 0.2090909,
                "tempo": 120.0
            },
            {
                "start_time": 1.0068182,
                "end_time": 1.0954545,
                "pitch": 43,
                "velocity": 101,
                "duration": 0.0886364,
                "tempo": 120.0
            },
            {
                "start_time": 1.1272727,
                "end_time": 1.3363636,
                "pitch": 43,
                "velocity": 101,
                "duration": 0.2090909,
                "tempo": 120.0
            },
            {
                "start_time": 1.3659091,
                "end_time": 1.4568182,
                "pitch": 43,
                "velocity": 101,
                "duration": 0.0909091,
                "tempo": 120.0
            },
            {
                "start_time": 2.9272727,
                "end_time": 3.1363636,
                "pitch": 43,
                "velocity": 101,
                "duration": 0.2090909,
                "tempo": 120.0
            },
            {
                "start_time": 3.1659091,
                "end_time": 3.2568182,
                "pitch": 43,
                "velocity": 101,
                "duration": 0.0909091,
                "tempo": 120.0
            },
            {
                "start_time": 3.2863636,
                "end_time": 3.4909091,
                "pitch": 43,
                "velocity": 101,
                "duration": 0.2045455,
                "tempo": 120.0
            },
            {
                "start_time": 3.5204545,
                "end_time": 3.6068182,
                "pitch": 43,
                "velocity": 101,
                "duration": 0.0863636,
                "tempo": 120.0
            },
            {
                "start_time": 3.6363636,
                "end_time": 3.8454545,
                "pitch": 43,
                "velocity": 101,
                "duration": 0.2090909,
                "tempo": 120.0
            },
            {
                "start_time": 3.875,
                "end_time": 3.9659091,
                "pitch": 43,
                "velocity": 101,
                "duration": 0.0909091,
                "tempo": 120.0
            },
            {
                "start_time": 3.9954545,
                "end_time": 4.2045455,
                "pitch": 43,
                "velocity": 101,
                "duration": 0.2090909,
                "tempo": 120.0
            },
            {
                "start_time": 4.2363636,
                "end_time": 4.325,
                "pitch": 43,
                "velocity": 101,
                "duration": 0.0886364,
                "tempo": 120.0
            },
            {
                "start_time": 5.7863636,
                "end_time": 6.0,
                "pitch": 43,
                "velocity": 101,
                "duration": 0.2136364,
                "tempo": 120.0
            },
            {
                "start_time": 6.0295455,
                "end_time": 6.1227273,
                "pitch": 43,
                "velocity": 101,
                "duration": 0.0931818,
                "tempo": 120.0
            },
            {
                "start_time": 6.1545455,
                "end_time": 6.3568182,
                "pitch": 43,
                "velocity": 101,
                "duration": 0.2022727,
                "tempo": 120.0
            },
            {
                "start_time": 6.3863636,
                "end_time": 6.4727273,
                "pitch": 43,
                "velocity": 101,
                "duration": 0.0863636,
                "tempo": 120.0
            },
            {
                "start_time": 6.5022727,
                "end_time": 6.7113636,
                "pitch": 43,
                "velocity": 101,
                "duration": 0.2090909,
                "tempo": 120.0
            },
            {
                "start_time": 6.7431818,
                "end_time": 6.8318182,
                "pitch": 43,
                "velocity": 101,
                "duration": 0.0886364,
                "tempo": 120.0
            },
            {
                "start_time": 6.8636364,
                "end_time": 7.0727273,
                "pitch": 43,
                "velocity": 101,
                "duration": 0.2090909,
                "tempo": 120.0
            },
            {
                "start_time": 7.1022727,
                "end_time": 7.1931818,
                "pitch": 43,
                "velocity": 101,
                "duration": 0.0909091,
                "tempo": 120.0
            },
            {
                "start_time": 8.6522727,
                "end_time": 8.8613636,
                "pitch": 43,
                "velocity": 101,
                "duration": 0.2090909,
                "tempo": 120.0
            },
            {
                "start_time": 8.8909091,
                "end_time": 8.9818182,
                "pitch": 43,
                "velocity": 101,
                "duration": 0.0909091,
                "tempo": 120.0
            },
            {
                "start_time": 9.0113636,
                "end_time": 9.2204545,
                "pitch": 43,
                "velocity": 101,
                "duration": 0.2090909,
                "tempo": 120.0
            },
            {
                "start_time": 9.2522727,
                "end_time": 9.3409091,
                "pitch": 43,
                "velocity": 101,
                "duration": 0.0886364,
                "tempo": 120.0
            },
            {
                "start_time": 9.3727273,
                "end_time": 9.5818182,
                "pitch": 43,
                "velocity": 101,
                "duration": 0.2090909,
                "tempo": 120.0
            },
            {
                "start_time": 9.6113636,
                "end_time": 9.7022727,
                "pitch": 43,
                "velocity": 101,
                "duration": 0.0909091,
                "tempo": 120.0
            },
            {
                "start_time": 9.7318182,
                "end_time": 9.9409091,
                "pitch": 43,
                "velocity": 101,
                "duration": 0.2090909,
                "tempo": 120.0
            },
            {
                "start_time": 9.9727273,
                "end_time": 10.0613636,
                "pitch": 43,
                "velocity": 101,
                "duration": 0.0886364,
                "tempo": 120.0
            },
            {
                "start_time": 11.5227273,
                "end_time": 11.7295455,
                "pitch": 43,
                "velocity": 101,
                "duration": 0.2068182,
                "tempo": 120.0
            },
            {
                "start_time": 11.7613636,
                "end_time": 11.85,
                "pitch": 43,
                "velocity": 101,
                "duration": 0.0886364,
                "tempo": 120.0
            },
            {
                "start_time": 11.8818182,
                "end_time": 12.0909091,
                "pitch": 43,
                "velocity": 101,
                "duration": 0.2090909,
                "tempo": 120.0
            },
            {
                "start_time": 12.1204545,
                "end_time": 12.2090909,
                "pitch": 43,
                "velocity": 101,
                "duration": 0.0886364,
                "tempo": 120.0
            },
            {
                "start_time": 12.2409091,
                "end_time": 12.45,
                "pitch": 43,
                "velocity": 101,
                "duration": 0.2090909,
                "tempo": 120.0
            },
            {
                "start_time": 12.4795455,
                "end_time": 12.5704545,
                "pitch": 43,
                "velocity": 101,
                "duration": 0.0909091,
                "tempo": 120.0
            },
            {
                "start_time": 12.6,
                "end_time": 12.8090909,
                "pitch": 43,
                "velocity": 101,
                "duration": 0.2090909,
                "tempo": 120.0
            },
            {
                "start_time": 12.8409091,
                "end_time": 12.9295455,
                "pitch": 43,
                "velocity": 101,
                "duration": 0.0886364,
                "tempo": 120.0
            },
            {
                "start_time": 14.3909091,
                "end_time": 14.6,
                "pitch": 43,
                "velocity": 101,
                "duration": 0.2090909,
                "tempo": 120.0
            },
            {
                "start_time": 14.6295455,
                "end_time": 14.7181818,
                "pitch": 43,
                "velocity": 101,
                "duration": 0.0886364,
                "tempo": 120.0
            },
            {
                "start_time": 14.75,
                "end_time": 14.9590909,
                "pitch": 43,
                "velocity": 101,
                "duration": 0.2090909,
                "tempo": 120.0
            },
            {
                "start_time": 14.9886364,
                "end_time": 15.0795455,
                "pitch": 43,
                "velocity": 101,
                "duration": 0.0909091,
                "tempo": 120.0
            },
            {
                "start_time": 15.1090909,
                "end_time": 15.3136364,
                "pitch": 43,
                "velocity": 101,
                "duration": 0.2045455,
                "tempo": 120.0
            },
            {
                "start_time": 15.3431818,
                "end_time": 15.4295455,
                "pitch": 43,
                "velocity": 101,
                "duration": 0.0863636,
                "tempo": 120.0
            },
            {
                "start_time": 15.4590909,
                "end_time": 15.6681818,
                "pitch": 43,
                "velocity": 101,
                "duration": 0.2090909,
                "tempo": 120.0
            },
            {
                "start_time": 15.7,
                "end_time": 15.7886364,
                "pitch": 43,
                "velocity": 101,
                "duration": 0.0886364,
                "tempo": 120.0
            },
            {
                "start_time": 17.2590909,
                "end_time": 17.4681818,
                "pitch": 43,
                "velocity": 101,
                "duration": 0.2090909,
                "tempo": 120.0
            },
            {
                "start_time": 17.4977273,
                "end_time": 17.5886364,
                "pitch": 43,
                "velocity": 101,
                "duration": 0.0909091,
                "tempo": 120.0
            },
            {
                "start_time": 17.6181818,
                "end_time": 17.8227273,
                "pitch": 43,
                "velocity": 101,
                "duration": 0.2045455,
                "tempo": 120.0
            },
            {
                "start_time": 17.8522727,
                "end_time": 17.9386364,
                "pitch": 43,
                "velocity": 101,
                "duration": 0.0863636,
                "tempo": 120.0
            },
            {
                "start_time": 17.9681818,
                "end_time": 18.1772727,
                "pitch": 43,
                "velocity": 101,
                "duration": 0.2090909,
                "tempo": 120.0
            },
            {
                "start_time": 18.2068182,
                "end_time": 18.2977273,
                "pitch": 43,
                "velocity": 101,
                "duration": 0.0909091,
                "tempo": 120.0
            },
            {
                "start_time": 18.3272727,
                "end_time": 18.5363636,
                "pitch": 43,
                "velocity": 101,
                "duration": 0.2090909,
                "tempo": 120.0
            },
            {
                "start_time": 18.5681818,
                "end_time": 18.6568182,
                "pitch": 43,
                "velocity": 101,
                "duration": 0.0886364,
                "tempo": 120.0
            },
            {
                "start_time": 20.1272727,
                "end_time": 20.3363636,
                "pitch": 43,
                "velocity": 101,
                "duration": 0.2090909,
                "tempo": 120.0
            },
            {
                "start_time": 20.3681818,
                "end_time": 20.4568182,
                "pitch": 43,
                "velocity": 101,
                "duration": 0.0886364,
                "tempo": 120.0
            },
            {
                "start_time": 20.4886364,
                "end_time": 20.6977273,
                "pitch": 43,
                "velocity": 101,
                "duration": 0.2090909,
                "tempo": 120.0
            },
            {
                "start_time": 20.7272727,
                "end_time": 20.8159091,
                "pitch": 43,
                "velocity": 101,
                "duration": 0.0886364,
                "tempo": 120.0
            },
            {
                "start_time": 20.8477273,
                "end_time": 21.05,
                "pitch": 43,
                "velocity": 101,
                "duration": 0.2022727,
                "tempo": 120.0
            },
            {
                "start_time": 21.0795455,
                "end_time": 21.1681818,
                "pitch": 43,
                "velocity": 101,
                "duration": 0.0886364,
                "tempo": 120.0
            },
            {
                "start_time": 21.1977273,
                "end_time": 21.4068182,
                "pitch": 43,
                "velocity": 101,
                "duration": 0.2090909,
                "tempo": 120.0
            },
            {
                "start_time": 21.4363636,
                "end_time": 21.5272727,
                "pitch": 43,
                "velocity": 101,
                "duration": 0.0909091,
                "tempo": 120.0
            },
            {
                "start_time": 22.9977273,
                "end_time": 23.0113636,
                "pitch": 43,
                "velocity": 101,
                "duration": 0.0136364,
                "tempo": 120.0
            }
        ],
        "Trumpet": [
            {
                "start_time": 0.05,
                "end_time": 0.1522727,
                "pitch": 60,
                "velocity": 127,
                "duration": 0.1022727,
                "tempo": 120.0
            },
            {
                "start_time": 1.0090909,
                "end_time": 1.2159091,
                "pitch": 60,
                "velocity": 127,
                "duration": 0.2068182,
                "tempo": 120.0
            },
            {
                "start_time": 1.3681818,
                "end_time": 1.4727273,
                "pitch": 59,
                "velocity": 127,
                "duration": 0.1045455,
                "tempo": 120.0
            },
            {
                "start_time": 2.9295455,
                "end_time": 3.0318182,
                "pitch": 60,
                "velocity": 127,
                "duration": 0.1022727,
                "tempo": 120.0
            },
            {
                "start_time": 3.8772727,
                "end_time": 4.0863636,
                "pitch": 60,
                "velocity": 127,
                "duration": 0.2090909,
                "tempo": 120.0
            },
            {
                "start_time": 1.3681818,
                "end_time": 4.2363636,
                "pitch": 64,
                "velocity": 127,
                "duration": 2.8681818,
                "tempo": 120.0
            },
            {
                "start_time": 4.2363636,
                "end_time": 4.3409091,
                "pitch": 59,
                "velocity": 127,
                "duration": 0.1045455,
                "tempo": 120.0
            },
            {
                "start_time": 2.9295455,
                "end_time": 5.7886364,
                "pitch": 44,
                "velocity": 127,
                "duration": 2.8590909,
                "tempo": 120.0
            },
            {
                "start_time": 5.7886364,
                "end_time": 5.8909091,
                "pitch": 60,
                "velocity": 127,
                "duration": 0.1022727,
                "tempo": 120.0
            },
            {
                "start_time": 6.7431818,
                "end_time": 6.9522727,
                "pitch": 60,
                "velocity": 127,
                "duration": 0.2090909,
                "tempo": 120.0
            },
            {
                "start_time": 4.2363636,
                "end_time": 7.1045455,
                "pitch": 64,
                "velocity": 127,
                "duration": 2.8681818,
                "tempo": 120.0
            },
            {
                "start_time": 7.1045455,
                "end_time": 7.2068182,
                "pitch": 59,
                "velocity": 127,
                "duration": 0.1022727,
                "tempo": 120.0
            },
            {
                "start_time": 5.7886364,
                "end_time": 8.6545455,
                "pitch": 44,
                "velocity": 127,
                "duration": 2.8659091,
                "tempo": 120.0
            },
            {
                "start_time": 8.6545455,
                "end_time": 8.7568182,
                "pitch": 60,
                "velocity": 127,
                "duration": 0.1022727,
                "tempo": 120.0
            },
            {
                "start_time": 9.6136364,
                "end_time": 9.8204545,
                "pitch": 60,
                "velocity": 127,
                "duration": 0.2068182,
                "tempo": 120.0
            },
            {
                "start_time": 7.1045455,
                "end_time": 9.9727273,
                "pitch": 64,
                "velocity": 127,
                "duration": 2.8681818,
                "tempo": 120.0
            },
            {
                "start_time": 9.9727273,
                "end_time": 10.0772727,
                "pitch": 59,
                "velocity": 127,
                "duration": 0.1045455,
                "tempo": 120.0
            },
            {
                "start_time": 8.6545455,
                "end_time": 11.5227273,
                "pitch": 44,
                "velocity": 127,
                "duration": 2.8681818,
                "tempo": 120.0
            },
            {
                "start_time": 11.5227273,
                "end_time": 11.625,
                "pitch": 60,
                "velocity": 127,
                "duration": 0.1022727,
                "tempo": 120.0
            },
            {
                "start_time": 12.4818182,
                "end_time": 12.6909091,
                "pitch": 60,
                "velocity": 127,
                "duration": 0.2090909,
                "tempo": 120.0
            },
            {
                "start_time": 9.9727273,
                "end_time": 12.8409091,
                "pitch": 64,
                "velocity": 127,
                "duration": 2.8681818,
                "tempo": 120.0
            },
            {
                "start_time": 12.8409091,
                "end_time": 12.9454545,
                "pitch": 59,
                "velocity": 127,
                "duration": 0.1045455,
                "tempo": 120.0
            },
            {
                "start_time": 11.5227273,
                "end_time": 14.3931818,
                "pitch": 44,
                "velocity": 127,
                "duration": 2.8704545,
                "tempo": 120.0
            },
            {
                "start_time": 14.3931818,
                "end_time": 14.4954545,
                "pitch": 60,
                "velocity": 127,
                "duration": 0.1022727,
                "tempo": 120.0
            },
            {
                "start_time": 15.3431818,
                "end_time": 15.5477273,
                "pitch": 60,
                "velocity": 127,
                "duration": 0.2045455,
                "tempo": 120.0
            },
            {
                "start_time": 12.8409091,
                "end_time": 15.7,
                "pitch": 64,
                "velocity": 127,
                "duration": 2.8590909,
                "tempo": 120.0
            },
            {
                "start_time": 15.7,
                "end_time": 15.8045455,
                "pitch": 59,
                "velocity": 127,
                "duration": 0.1045455,
                "tempo": 120.0
            },
            {
                "start_time": 14.3931818,
                "end_time": 17.2613636,
                "pitch": 44,
                "velocity": 127,
                "duration": 2.8681818,
                "tempo": 120.0
            },
            {
                "start_time": 17.2613636,
                "end_time": 17.3636364,
                "pitch": 60,
                "velocity": 127,
                "duration": 0.1022727,
                "tempo": 120.0
            },
            {
                "start_time": 18.2090909,
                "end_time": 18.4181818,
                "pitch": 60,
                "velocity": 127,
                "duration": 0.2090909,
                "tempo": 120.0
            },
            {
                "start_time": 15.7,
                "end_time": 18.5681818,
                "pitch": 64,
                "velocity": 127,
                "duration": 2.8681818,
                "tempo": 120.0
            },
            {
                "start_time": 18.5681818,
                "end_time": 18.6727273,
                "pitch": 59,
                "velocity": 127,
                "duration": 0.1045455,
                "tempo": 120.0
            },
            {
                "start_time": 17.2613636,
                "end_time": 20.1295455,
                "pitch": 44,
                "velocity": 127,
                "duration": 2.8681818,
                "tempo": 120.0
            },
            {
                "start_time": 20.1295455,
                "end_time": 20.2318182,
                "pitch": 60,
                "velocity": 127,
                "duration": 0.1022727,
                "tempo": 120.0
            },
            {
                "start_time": 21.0818182,
                "end_time": 21.2863636,
                "pitch": 60,
                "velocity": 127,
                "duration": 0.2045455,
                "tempo": 120.0
            },
            {
                "start_time": 18.5681818,
                "end_time": 21.4386364,
                "pitch": 64,
                "velocity": 127,
                "duration": 2.8704545,
                "tempo": 120.0
            },
            {
                "start_time": 21.4386364,
                "end_time": 21.5409091,
                "pitch": 59,
                "velocity": 127,
                "duration": 0.1022727,
                "tempo": 120.0
            },
            {
                "start_time": 20.1295455,
                "end_time": 23.0,
                "pitch": 44,
                "velocity": 127,
                "duration": 2.8704545,
                "tempo": 120.0
            },
            {
                "start_time": 23.0,
                "end_time": 23.0113636,
                "pitch": 60,
                "velocity": 127,
                "duration": 0.0113636,
                "tempo": 120.0
            }
        ],
        "Lead 2 (sawtooth)": [
            {
                "start_time": 0.0522727,
                "end_time": 0.1363636,
                "pitch": 55,
                "velocity": 127,
                "duration": 0.0840909,
                "tempo": 120.0
            },
            {
                "start_time": 1.0090909,
                "end_time": 1.0977273,
                "pitch": 55,
                "velocity": 127,
                "duration": 0.0886364,
                "tempo": 120.0
            },
            {
                "start_time": 1.3681818,
                "end_time": 1.4568182,
                "pitch": 55,
                "velocity": 127,
                "duration": 0.0886364,
                "tempo": 120.0
            },
            {
                "start_time": 2.9295455,
                "end_time": 3.0159091,
                "pitch": 55,
                "velocity": 127,
                "duration": 0.0863636,
                "tempo": 120.0
            },
            {
                "start_time": 3.8772727,
                "end_time": 3.9659091,
                "pitch": 55,
                "velocity": 127,
                "duration": 0.0886364,
                "tempo": 120.0
            },
            {
                "start_time": 4.2386364,
                "end_time": 4.325,
                "pitch": 55,
                "velocity": 127,
                "duration": 0.0863636,
                "tempo": 120.0
            },
            {
                "start_time": 5.7886364,
                "end_time": 5.8772727,
                "pitch": 55,
                "velocity": 127,
                "duration": 0.0886364,
                "tempo": 120.0
            },
            {
                "start_time": 6.7454545,
                "end_time": 6.8318182,
                "pitch": 55,
                "velocity": 127,
                "duration": 0.0863636,
                "tempo": 120.0
            },
            {
                "start_time": 7.1045455,
                "end_time": 7.1931818,
                "pitch": 55,
                "velocity": 127,
                "duration": 0.0886364,
                "tempo": 120.0
            },
            {
                "start_time": 8.6568182,
                "end_time": 8.7409091,
                "pitch": 55,
                "velocity": 127,
                "duration": 0.0840909,
                "tempo": 120.0
            },
            {
                "start_time": 9.6136364,
                "end_time": 9.7022727,
                "pitch": 55,
                "velocity": 127,
                "duration": 0.0886364,
                "tempo": 120.0
            },
            {
                "start_time": 9.9727273,
                "end_time": 10.0613636,
                "pitch": 55,
                "velocity": 127,
                "duration": 0.0886364,
                "tempo": 120.0
            },
            {
                "start_time": 11.525,
                "end_time": 11.6113636,
                "pitch": 55,
                "velocity": 127,
                "duration": 0.0863636,
                "tempo": 120.0
            },
            {
                "start_time": 12.4818182,
                "end_time": 12.5704545,
                "pitch": 55,
                "velocity": 127,
                "duration": 0.0886364,
                "tempo": 120.0
            },
            {
                "start_time": 12.8431818,
                "end_time": 12.9295455,
                "pitch": 55,
                "velocity": 127,
                "duration": 0.0863636,
                "tempo": 120.0
            },
            {
                "start_time": 14.3931818,
                "end_time": 14.4795455,
                "pitch": 55,
                "velocity": 127,
                "duration": 0.0863636,
                "tempo": 120.0
            },
            {
                "start_time": 15.3431818,
                "end_time": 15.4295455,
                "pitch": 55,
                "velocity": 127,
                "duration": 0.0863636,
                "tempo": 120.0
            },
            {
                "start_time": 15.7,
                "end_time": 15.7886364,
                "pitch": 55,
                "velocity": 127,
                "duration": 0.0886364,
                "tempo": 120.0
            },
            {
                "start_time": 17.2636364,
                "end_time": 17.3477273,
                "pitch": 55,
                "velocity": 127,
                "duration": 0.0840909,
                "tempo": 120.0
            },
            {
                "start_time": 18.2090909,
                "end_time": 18.2977273,
                "pitch": 55,
                "velocity": 127,
                "duration": 0.0886364,
                "tempo": 120.0
            },
            {
                "start_time": 18.5704545,
                "end_time": 18.6568182,
                "pitch": 55,
                "velocity": 127,
                "duration": 0.0863636,
                "tempo": 120.0
            },
            {
                "start_time": 23.0,
                "end_time": 23.0113636,
                "pitch": 55,
                "velocity": 127,
                "duration": 0.0113636,
                "tempo": 120.0
            }
        ],
        "French Horn": [
            {
                "start_time": 20.1318182,
                "end_time": 20.2181818,
                "pitch": 72,
                "velocity": 127,
                "duration": 0.0863636,
                "tempo": 120.0
            },
            {
                "start_time": 20.2477273,
                "end_time": 20.3386364,
                "pitch": 71,
                "velocity": 127,
                "duration": 0.0909091,
                "tempo": 120.0
            },
            {
                "start_time": 20.3681818,
                "end_time": 20.4568182,
                "pitch": 71,
                "velocity": 127,
                "duration": 0.0886364,
                "tempo": 120.0
            },
            {
                "start_time": 20.4886364,
                "end_time": 20.5772727,
                "pitch": 69,
                "velocity": 127,
                "duration": 0.0886364,
                "tempo": 120.0
            },
            {
                "start_time": 20.6090909,
                "end_time": 20.6977273,
                "pitch": 72,
                "velocity": 127,
                "duration": 0.0886364,
                "tempo": 120.0
            },
            {
                "start_time": 20.7272727,
                "end_time": 20.8181818,
                "pitch": 74,
                "velocity": 127,
                "duration": 0.0909091,
                "tempo": 120.0
            },
            {
                "start_time": 20.2477273,
                "end_time": 20.9340909,
                "pitch": 76,
                "velocity": 127,
                "duration": 0.6863636,
                "tempo": 120.0
            },
            {
                "start_time": 20.8477273,
                "end_time": 20.9340909,
                "pitch": 76,
                "velocity": 127,
                "duration": 0.0863636,
                "tempo": 120.0
            },
            {
                "start_time": 20.8477273,
                "end_time": 21.0522727,
                "pitch": 74,
                "velocity": 127,
                "duration": 0.2045455,
                "tempo": 120.0
            },
            {
                "start_time": 20.9636364,
                "end_time": 21.0522727,
                "pitch": 74,
                "velocity": 127,
                "duration": 0.0886364,
                "tempo": 120.0
            },
            {
                "start_time": 20.7272727,
                "end_time": 21.1681818,
                "pitch": 72,
                "velocity": 127,
                "duration": 0.4409091,
                "tempo": 120.0
            },
            {
                "start_time": 21.0818182,
                "end_time": 21.1681818,
                "pitch": 72,
                "velocity": 127,
                "duration": 0.0863636,
                "tempo": 120.0
            },
            {
                "start_time": 21.0818182,
                "end_time": 21.2863636,
                "pitch": 74,
                "velocity": 127,
                "duration": 0.2045455,
                "tempo": 120.0
            },
            {
                "start_time": 21.1977273,
                "end_time": 21.2863636,
                "pitch": 74,
                "velocity": 127,
                "duration": 0.0886364,
                "tempo": 120.0
            },
            {
                "start_time": 20.9636364,
                "end_time": 21.4068182,
                "pitch": 76,
                "velocity": 127,
                "duration": 0.4431818,
                "tempo": 120.0
            },
            {
                "start_time": 21.3181818,
                "end_time": 21.4068182,
                "pitch": 76,
                "velocity": 127,
                "duration": 0.0886364,
                "tempo": 120.0
            },
            {
                "start_time": 21.4386364,
                "end_time": 21.5272727,
                "pitch": 76,
                "velocity": 127,
                "duration": 0.0886364,
                "tempo": 120.0
            },
            {
                "start_time": 21.5590909,
                "end_time": 21.6477273,
                "pitch": 79,
                "velocity": 127,
                "duration": 0.0886364,
                "tempo": 120.0
            },
            {
                "start_time": 20.1318182,
                "end_time": 21.6772727,
                "pitch": 0,
                "velocity": 127,
                "duration": 1.5454545,
                "tempo": 120.0
            },
            {
                "start_time": 21.6772727,
                "end_time": 21.7659091,
                "pitch": 77,
                "velocity": 127,
                "duration": 0.0886364,
                "tempo": 120.0
            },
            {
                "start_time": 21.7977273,
                "end_time": 21.8863636,
                "pitch": 77,
                "velocity": 127,
                "duration": 0.0886364,
                "tempo": 120.0
            },
            {
                "start_time": 21.9181818,
                "end_time": 22.0068182,
                "pitch": 76,
                "velocity": 127,
                "duration": 0.0886364,
                "tempo": 120.0
            },
            {
                "start_time": 22.0386364,
                "end_time": 22.1272727,
                "pitch": 77,
                "velocity": 127,
                "duration": 0.0886364,
                "tempo": 120.0
            },
            {
                "start_time": 21.3181818,
                "end_time": 22.2477273,
                "pitch": 74,
                "velocity": 127,
                "duration": 0.9295455,
                "tempo": 120.0
            },
            {
                "start_time": 22.1568182,
                "end_time": 22.2477273,
                "pitch": 74,
                "velocity": 127,
                "duration": 0.0909091,
                "tempo": 120.0
            },
            {
                "start_time": 22.1568182,
                "end_time": 22.3659091,
                "pitch": 76,
                "velocity": 127,
                "duration": 0.2090909,
                "tempo": 120.0
            },
            {
                "start_time": 22.2772727,
                "end_time": 22.3659091,
                "pitch": 76,
                "velocity": 127,
                "duration": 0.0886364,
                "tempo": 120.0
            },
            {
                "start_time": 22.2772727,
                "end_time": 22.4863636,
                "pitch": 74,
                "velocity": 127,
                "duration": 0.2090909,
                "tempo": 120.0
            },
            {
                "start_time": 22.3977273,
                "end_time": 22.4863636,
                "pitch": 74,
                "velocity": 127,
                "duration": 0.0886364,
                "tempo": 120.0
            },
            {
                "start_time": 21.1977273,
                "end_time": 22.6068182,
                "pitch": 72,
                "velocity": 127,
                "duration": 1.4090909,
                "tempo": 120.0
            },
            {
                "start_time": 22.5181818,
                "end_time": 22.6068182,
                "pitch": 72,
                "velocity": 127,
                "duration": 0.0886364,
                "tempo": 120.0
            },
            {
                "start_time": 22.5181818,
                "end_time": 22.7272727,
                "pitch": 74,
                "velocity": 127,
                "duration": 0.2090909,
                "tempo": 120.0
            },
            {
                "start_time": 22.6363636,
                "end_time": 22.7272727,
                "pitch": 74,
                "velocity": 127,
                "duration": 0.0909091,
                "tempo": 120.0
            },
            {
                "start_time": 22.6363636,
                "end_time": 22.8454545,
                "pitch": 72,
                "velocity": 127,
                "duration": 0.2090909,
                "tempo": 120.0
            },
            {
                "start_time": 22.7568182,
                "end_time": 22.8454545,
                "pitch": 72,
                "velocity": 127,
                "duration": 0.0886364,
                "tempo": 120.0
            },
            {
                "start_time": 22.3977273,
                "end_time": 22.8772727,
                "pitch": 76,
                "velocity": 127,
                "duration": 0.4795455,
                "tempo": 120.0
            },
            {
                "start_time": 22.8772727,
                "end_time": 22.9659091,
                "pitch": 71,
                "velocity": 127,
                "duration": 0.0886364,
                "tempo": 120.0
            }
        ],
        "Acoustic Bass": [
            {
                "start_time": 10.0931818,
                "end_time": 10.1818182,
                "pitch": 31,
                "velocity": 101,
                "duration": 0.0886364,
                "tempo": 120.0
            },
            {
                "start_time": 10.2113636,
                "end_time": 10.3022727,
                "pitch": 43,
                "velocity": 101,
                "duration": 0.0909091,
                "tempo": 120.0
            },
            {
                "start_time": 10.3318182,
                "end_time": 10.4204545,
                "pitch": 43,
                "velocity": 101,
                "duration": 0.0886364,
                "tempo": 120.0
            },
            {
                "start_time": 10.4522727,
                "end_time": 10.5386364,
                "pitch": 43,
                "velocity": 101,
                "duration": 0.0863636,
                "tempo": 120.0
            },
            {
                "start_time": 10.5681818,
                "end_time": 10.6545455,
                "pitch": 43,
                "velocity": 101,
                "duration": 0.0863636,
                "tempo": 120.0
            },
            {
                "start_time": 10.6863636,
                "end_time": 10.7727273,
                "pitch": 43,
                "velocity": 101,
                "duration": 0.0863636,
                "tempo": 120.0
            },
            {
                "start_time": 10.8022727,
                "end_time": 10.8909091,
                "pitch": 43,
                "velocity": 101,
                "duration": 0.0886364,
                "tempo": 120.0
            },
            {
                "start_time": 10.9227273,
                "end_time": 11.0113636,
                "pitch": 43,
                "velocity": 101,
                "duration": 0.0886364,
                "tempo": 120.0
            },
            {
                "start_time": 11.0409091,
                "end_time": 11.1318182,
                "pitch": 43,
                "velocity": 101,
                "duration": 0.0909091,
                "tempo": 120.0
            },
            {
                "start_time": 11.1613636,
                "end_time": 11.25,
                "pitch": 43,
                "velocity": 101,
                "duration": 0.0886364,
                "tempo": 120.0
            },
            {
                "start_time": 11.2818182,
                "end_time": 11.3704545,
                "pitch": 43,
                "velocity": 101,
                "duration": 0.0886364,
                "tempo": 120.0
            },
            {
                "start_time": 11.4022727,
                "end_time": 11.4909091,
                "pitch": 43,
                "velocity": 101,
                "duration": 0.0886364,
                "tempo": 120.0
            },
            {
                "start_time": 11.525,
                "end_time": 11.7318182,
                "pitch": 55,
                "velocity": 80,
                "duration": 0.2068182,
                "tempo": 120.0
            },
            {
                "start_time": 11.7613636,
                "end_time": 11.85,
                "pitch": 55,
                "velocity": 80,
                "duration": 0.0886364,
                "tempo": 120.0
            },
            {
                "start_time": 11.8818182,
                "end_time": 11.9704545,
                "pitch": 55,
                "velocity": 80,
                "duration": 0.0886364,
                "tempo": 120.0
            },
            {
                "start_time": 12.0022727,
                "end_time": 12.0909091,
                "pitch": 55,
                "velocity": 80,
                "duration": 0.0886364,
                "tempo": 120.0
            },
            {
                "start_time": 12.1227273,
                "end_time": 12.2113636,
                "pitch": 55,
                "velocity": 80,
                "duration": 0.0886364,
                "tempo": 120.0
            },
            {
                "start_time": 12.2409091,
                "end_time": 12.45,
                "pitch": 55,
                "velocity": 80,
                "duration": 0.2090909,
                "tempo": 120.0
            },
            {
                "start_time": 12.4818182,
                "end_time": 12.5704545,
                "pitch": 55,
                "velocity": 80,
                "duration": 0.0886364,
                "tempo": 120.0
            },
            {
                "start_time": 12.6022727,
                "end_time": 12.6909091,
                "pitch": 55,
                "velocity": 80,
                "duration": 0.0886364,
                "tempo": 120.0
            },
            {
                "start_time": 12.7204545,
                "end_time": 12.8113636,
                "pitch": 55,
                "velocity": 80,
                "duration": 0.0909091,
                "tempo": 120.0
            },
            {
                "start_time": 12.8431818,
                "end_time": 12.9318182,
                "pitch": 55,
                "velocity": 80,
                "duration": 0.0886364,
                "tempo": 120.0
            },
            {
                "start_time": 12.9636364,
                "end_time": 13.1704545,
                "pitch": 55,
                "velocity": 80,
                "duration": 0.2068182,
                "tempo": 120.0
            },
            {
                "start_time": 13.2,
                "end_time": 13.2909091,
                "pitch": 55,
                "velocity": 80,
                "duration": 0.0909091,
                "tempo": 120.0
            },
            {
                "start_time": 13.3204545,
                "end_time": 13.4068182,
                "pitch": 55,
                "velocity": 80,
                "duration": 0.0863636,
                "tempo": 120.0
            },
            {
                "start_time": 13.4386364,
                "end_time": 13.525,
                "pitch": 55,
                "velocity": 80,
                "duration": 0.0863636,
                "tempo": 120.0
            },
            {
                "start_time": 13.5545455,
                "end_time": 13.6409091,
                "pitch": 55,
                "velocity": 80,
                "duration": 0.0863636,
                "tempo": 120.0
            },
            {
                "start_time": 13.6704545,
                "end_time": 13.8795455,
                "pitch": 55,
                "velocity": 80,
                "duration": 0.2090909,
                "tempo": 120.0
            },
            {
                "start_time": 13.9113636,
                "end_time": 14.0,
                "pitch": 55,
                "velocity": 80,
                "duration": 0.0886364,
                "tempo": 120.0
            },
            {
                "start_time": 14.0295455,
                "end_time": 14.1204545,
                "pitch": 55,
                "velocity": 80,
                "duration": 0.0909091,
                "tempo": 120.0
            },
            {
                "start_time": 14.15,
                "end_time": 14.2386364,
                "pitch": 55,
                "velocity": 80,
                "duration": 0.0886364,
                "tempo": 120.0
            },
            {
                "start_time": 14.2704545,
                "end_time": 14.3590909,
                "pitch": 55,
                "velocity": 80,
                "duration": 0.0886364,
                "tempo": 120.0
            },
            {
                "start_time": 14.3931818,
                "end_time": 14.6,
                "pitch": 55,
                "velocity": 80,
                "duration": 0.2068182,
                "tempo": 120.0
            },
            {
                "start_time": 14.6318182,
                "end_time": 14.7204545,
                "pitch": 55,
                "velocity": 80,
                "duration": 0.0886364,
                "tempo": 120.0
            },
            {
                "start_time": 14.75,
                "end_time": 14.8386364,
                "pitch": 55,
                "velocity": 80,
                "duration": 0.0886364,
                "tempo": 120.0
            },
            {
                "start_time": 14.8704545,
                "end_time": 14.9590909,
                "pitch": 55,
                "velocity": 80,
                "duration": 0.0886364,
                "tempo": 120.0
            },
            {
                "start_time": 14.9909091,
                "end_time": 15.0795455,
                "pitch": 55,
                "velocity": 80,
                "duration": 0.0886364,
                "tempo": 120.0
            },
            {
                "start_time": 15.1113636,
                "end_time": 15.3136364,
                "pitch": 55,
                "velocity": 80,
                "duration": 0.2022727,
                "tempo": 120.0
            },
            {
                "start_time": 15.3454545,
                "end_time": 15.4295455,
                "pitch": 55,
                "velocity": 80,
                "duration": 0.0840909,
                "tempo": 120.0
            },
            {
                "start_time": 15.4613636,
                "end_time": 15.55,
                "pitch": 55,
                "velocity": 80,
                "duration": 0.0886364,
                "tempo": 120.0
            },
            {
                "start_time": 15.5795455,
                "end_time": 15.6681818,
                "pitch": 55,
                "velocity": 80,
                "duration": 0.0886364,
                "tempo": 120.0
            },
            {
                "start_time": 15.7,
                "end_time": 15.7886364,
                "pitch": 55,
                "velocity": 80,
                "duration": 0.0886364,
                "tempo": 120.0
            },
            {
                "start_time": 15.8204545,
                "end_time": 16.0295455,
                "pitch": 55,
                "velocity": 80,
                "duration": 0.2090909,
                "tempo": 120.0
            },
            {
                "start_time": 16.0590909,
                "end_time": 16.1477273,
                "pitch": 55,
                "velocity": 80,
                "duration": 0.0886364,
                "tempo": 120.0
            },
            {
                "start_time": 16.1795455,
                "end_time": 16.2681818,
                "pitch": 55,
                "velocity": 80,
                "duration": 0.0886364,
                "tempo": 120.0
            },
            {
                "start_time": 16.3,
                "end_time": 16.3886364,
                "pitch": 55,
                "velocity": 80,
                "duration": 0.0886364,
                "tempo": 120.0
            },
            {
                "start_time": 16.4204545,
                "end_time": 16.5090909,
                "pitch": 55,
                "velocity": 80,
                "duration": 0.0886364,
                "tempo": 120.0
            },
            {
                "start_time": 16.5409091,
                "end_time": 16.75,
                "pitch": 55,
                "velocity": 80,
                "duration": 0.2090909,
                "tempo": 120.0
            },
            {
                "start_time": 16.7795455,
                "end_time": 16.8681818,
                "pitch": 55,
                "velocity": 80,
                "duration": 0.0886364,
                "tempo": 120.0
            },
            {
                "start_time": 16.9,
                "end_time": 16.9886364,
                "pitch": 55,
                "velocity": 80,
                "duration": 0.0886364,
                "tempo": 120.0
            },
            {
                "start_time": 17.0204545,
                "end_time": 17.1090909,
                "pitch": 55,
                "velocity": 80,
                "duration": 0.0886364,
                "tempo": 120.0
            },
            {
                "start_time": 17.1386364,
                "end_time": 17.2295455,
                "pitch": 55,
                "velocity": 80,
                "duration": 0.0909091,
                "tempo": 120.0
            },
            {
                "start_time": 17.2636364,
                "end_time": 17.4681818,
                "pitch": 55,
                "velocity": 80,
                "duration": 0.2045455,
                "tempo": 120.0
            },
            {
                "start_time": 17.5,
                "end_time": 17.5886364,
                "pitch": 55,
                "velocity": 80,
                "duration": 0.0886364,
                "tempo": 120.0
            },
            {
                "start_time": 17.6204545,
                "end_time": 17.7068182,
                "pitch": 55,
                "velocity": 80,
                "duration": 0.0863636,
                "tempo": 120.0
            },
            {
                "start_time": 17.7363636,
                "end_time": 17.8227273,
                "pitch": 55,
                "velocity": 80,
                "duration": 0.0863636,
                "tempo": 120.0
            },
            {
                "start_time": 17.8522727,
                "end_time": 17.9386364,
                "pitch": 55,
                "velocity": 80,
                "duration": 0.0863636,
                "tempo": 120.0
            },
            {
                "start_time": 17.9681818,
                "end_time": 18.1772727,
                "pitch": 55,
                "velocity": 80,
                "duration": 0.2090909,
                "tempo": 120.0
            },
            {
                "start_time": 18.2090909,
                "end_time": 18.2977273,
                "pitch": 55,
                "velocity": 80,
                "duration": 0.0886364,
                "tempo": 120.0
            },
            {
                "start_time": 18.3295455,
                "end_time": 18.4181818,
                "pitch": 55,
                "velocity": 80,
                "duration": 0.0886364,
                "tempo": 120.0
            },
            {
                "start_time": 18.4477273,
                "end_time": 18.5386364,
                "pitch": 55,
                "velocity": 80,
                "duration": 0.0909091,
                "tempo": 120.0
            },
            {
                "start_time": 18.5704545,
                "end_time": 18.6590909,
                "pitch": 55,
                "velocity": 80,
                "duration": 0.0886364,
                "tempo": 120.0
            },
            {
                "start_time": 18.6909091,
                "end_time": 18.8977273,
                "pitch": 55,
                "velocity": 80,
                "duration": 0.2068182,
                "tempo": 120.0
            },
            {
                "start_time": 18.9272727,
                "end_time": 19.0181818,
                "pitch": 55,
                "velocity": 80,
                "duration": 0.0909091,
                "tempo": 120.0
            },
            {
                "start_time": 19.0477273,
                "end_time": 19.1386364,
                "pitch": 55,
                "velocity": 80,
                "duration": 0.0909091,
                "tempo": 120.0
            },
            {
                "start_time": 19.1681818,
                "end_time": 19.2568182,
                "pitch": 55,
                "velocity": 80,
                "duration": 0.0886364,
                "tempo": 120.0
            },
            {
                "start_time": 19.2886364,
                "end_time": 19.3772727,
                "pitch": 55,
                "velocity": 80,
                "duration": 0.0886364,
                "tempo": 120.0
            },
            {
                "start_time": 19.4090909,
                "end_time": 19.6181818,
                "pitch": 55,
                "velocity": 80,
                "duration": 0.2090909,
                "tempo": 120.0
            },
            {
                "start_time": 19.6477273,
                "end_time": 19.7386364,
                "pitch": 55,
                "velocity": 80,
                "duration": 0.0909091,
                "tempo": 120.0
            },
            {
                "start_time": 19.7681818,
                "end_time": 19.8568182,
                "pitch": 55,
                "velocity": 80,
                "duration": 0.0886364,
                "tempo": 120.0
            },
            {
                "start_time": 19.8886364,
                "end_time": 19.9772727,
                "pitch": 55,
                "velocity": 80,
                "duration": 0.0886364,
                "tempo": 120.0
            },
            {
                "start_time": 20.0090909,
                "end_time": 20.0977273,
                "pitch": 55,
                "velocity": 80,
                "duration": 0.0886364,
                "tempo": 120.0
            }
        ]
    }
}