{
    "mood": "happy",
    "instruments": {
        "Acoustic Guitar (nylon)": [
            {
                "start_time": 0.0068182,
                "end_time": 0.1,
                "pitch": 52,
                "velocity": 64,
                "duration": 0.0931818,
                "tempo": 120.0
            },
            {
                "start_time": 0.1022727,
                "end_time": 0.2022727,
                "pitch": 52,
                "velocity": 64,
                "duration": 0.1,
                "tempo": 120.0
            },
            {
                "start_time": 0.0068182,
                "end_time": 0.3022727,
                "pitch": 0,
                "velocity": 64,
                "duration": 0.2954545,
                "tempo": 120.0
            },
            {
                "start_time": 0.2022727,
                "end_time": 0.3022727,
                "pitch": 55,
                "velocity": 64,
                "duration": 0.1,
                "tempo": 120.0
            },
            {
                "start_time": 0.3022727,
                "end_time": 0.4022727,
                "pitch": 52,
                "velocity": 64,
                "duration": 0.1,
                "tempo": 120.0
            },
            {
                "start_time": 0.4022727,
                "end_time": 0.5045455,
                "pitch": 52,
                "velocity": 64,
                "duration": 0.1022727,
                "tempo": 120.0
            },
            {
                "start_time": 0.2022727,
                "end_time": 0.5045455,
                "pitch": 66,
                "velocity": 64,
                "duration": 0.3022727,
                "tempo": 120.0
            },
            {
                "start_time": 0.5045455,
                "end_time": 0.6068182,
                "pitch": 55,
                "velocity": 64,
                "duration": 0.1022727,
                "tempo": 120.0
            },
            {
                "start_time": 0.6068182,
                "end_time": 0.7090909,
                "pitch": 55,
                "velocity": 64,
                "duration": 0.1022727,
                "tempo": 120.0
            },
            {
                "start_time": 0.7090909,
                "end_time": 0.7113636,
                "pitch": 18,
                "velocity": 64,
                "duration": 0.0022727,
                "tempo": 120.0
            },
            {
                "start_time": 0.7113636,
                "end_time": 0.8136364,
                "pitch": 53,
                "velocity": 64,
                "duration": 0.1022727,
                "tempo": 120.0
            },
            {
                "start_time": 0.5045455,
                "end_time": 0.8136364,
                "pitch": 66,
                "velocity": 64,
                "duration": 0.3090909,
                "tempo": 120.0
            },
            {
                "start_time": 0.8136364,
                "end_time": 0.9113636,
                "pitch": 55,
                "velocity": 64,
                "duration": 0.0977273,
                "tempo": 120.0
            },
            {
                "start_time": 0.9113636,
                "end_time": 1.0090909,
                "pitch": 55,
                "velocity": 64,
                "duration": 0.0977273,
                "tempo": 120.0
            },
            {
                "start_time": 1.0090909,
                "end_time": 1.1068182,
                "pitch": 59,
                "velocity": 64,
                "duration": 0.0977273,
                "tempo": 120.0
            },
            {
                "start_time": 1.1068182,
                "end_time": 1.2068182,
                "pitch": 55,
                "velocity": 64,
                "duration": 0.1,
                "tempo": 120.0
            },
            {
                "start_time": 1.2068182,
                "end_time": 1.3068182,
                "pitch": 55,
                "velocity": 64,
                "duration": 0.1,
                "tempo": 120.0
            },
            {
                "start_time": 1.0090909,
                "end_time": 1.3068182,
                "pitch": 57,
                "velocity": 64,
                "duration": 0.2977273,
                "tempo": 120.0
            },
            {
                "start_time": 1.1068182,
                "end_time": 1.4068182,
                "pitch": 59,
                "velocity": 64,
                "duration": 0.3,
                "tempo": 120.0
            },
            {
                "start_time": 1.3068182,
                "end_time": 1.4068182,
                "pitch": 59,
                "velocity": 64,
                "duration": 0.1,
                "tempo": 120.0
            },
            {
                "start_time": 1.4068182,
                "end_time": 1.5068182,
                "pitch": 60,
                "velocity": 64,
                "duration": 0.1,
                "tempo": 120.0
            },
            {
                "start_time": 1.5068182,
                "end_time": 1.6068182,
                "pitch": 62,
                "velocity": 64,
                "duration": 0.1,
                "tempo": 120.0
            }
        ],
        "Trumpet": [
            {
                "start_time": 1.8136364,
                "end_time": 2.5022727,
                "pitch": 79,
                "velocity": 32,
                "duration": 0.6886364,
                "tempo": 120.0
            },
            {
                "start_time": 2.5022727,
                "end_time": 2.6363636,
                "pitch": 79,
                "velocity": 32,
                "duration": 0.1340909,
                "tempo": 120.0
            },
            {
                "start_time": 2.5022727,
                "end_time": 2.6363636,
                "pitch": 91,
                "velocity": 32,
                "duration": 0.1340909,
                "tempo": 120.0
            },
            {
                "start_time": 2.6363636,
                "end_time": 2.7727273,
                "pitch": 79,
                "velocity": 32,
                "duration": 0.1363636,
                "tempo": 120.0
            },
            {
                "start_time": 2.6363636,
                "end_time": 2.7727273,
                "pitch": 91,
                "velocity": 32,
                "duration": 0.1363636,
                "tempo": 120.0
            },
            {
                "start_time": 2.7727273,
                "end_time": 2.9045455,
                "pitch": 79,
                "velocity": 32,
                "duration": 0.1318182,
                "tempo": 120.0
            },
            {
                "start_time": 2.7727273,
                "end_time": 2.9045455,
                "pitch": 91,
                "velocity": 32,
                "duration": 0.1318182,
                "tempo": 120.0
            },
            {
                "start_time": 2.9045455,
                "end_time": 3.0386364,
                "pitch": 79,
                "velocity": 32,
                "duration": 0.1340909,
                "tempo": 120.0
            },
            {
                "start_time": 2.9045455,
                "end_time": 3.0386364,
                "pitch": 91,
                "velocity": 32,
                "duration": 0.1340909,
                "tempo": 120.0
            },
            {
                "start_time": 3.0386364,
                "end_time": 3.1727273,
                "pitch": 79,
                "velocity": 32,
                "duration": 0.1340909,
                "tempo": 120.0
            },
            {
                "start_time": 3.0386364,
                "end_time": 3.1727273,
                "pitch": 91,
                "velocity": 32,
                "duration": 0.1340909,
                "tempo": 120.0
            },
            {
                "start_time": 3.1727273,
                "end_time": 3.3045455,
                "pitch": 79,
                "velocity": 32,
                "duration": 0.1318182,
                "tempo": 120.0
            },
            {
                "start_time": 3.1727273,
                "end_time": 3.3045455,
                "pitch": 91,
                "velocity": 32,
                "duration": 0.1318182,
                "tempo": 120.0
            },
            {
                "start_time": 3.3045455,
                "end_time": 3.4227273,
                "pitch": 79,
                "velocity": 32,
                "duration": 0.1181818,
                "tempo": 120.0
            },
            {
                "start_time": 3.4227273,
                "end_time": 4.0727273,
                "pitch": 79,
                "velocity": 32,
                "duration": 0.65,
                "tempo": 120.0
            },
            {
                "start_time": 4.0727273,
                "end_time": 4.225,
                "pitch": 77,
                "velocity": 32,
                "duration": 0.1522727,
                "tempo": 120.0
            },
            {
                "start_time": 4.225,
                "end_time": 4.425,
                "pitch": 77,
                "velocity": 32,
                "duration": 0.2,
                "tempo": 120.0
            },
            {
                "start_time": 1.8136364,
                "end_time": 4.425,
                "pitch": 90,
                "velocity": 32,
                "duration": 2.6113636,
                "tempo": 120.0
            },
            {
                "start_time": 4.425,
                "end_time": 4.6272727,
                "pitch": 81,
                "velocity": 32,
                "duration": 0.2022727,
                "tempo": 120.0
            },
            {
                "start_time": 4.8295455,
                "end_time": 5.0295455,
                "pitch": 81,
                "velocity": 32,
                "duration": 0.2,
                "tempo": 120.0
            },
            {
                "start_time": 5.2295455,
                "end_time": 5.8704545,
                "pitch": 81,
                "velocity": 32,
                "duration": 0.6409091,
                "tempo": 120.0
            },
            {
                "start_time": 5.8704545,
                "end_time": 5.9227273,
                "pitch": 79,
                "velocity": 32,
                "duration": 0.0522727,
                "tempo": 120.0
            },
            {
                "start_time": 3.3045455,
                "end_time": 5.9227273,
                "pitch": 91,
                "velocity": 32,
                "duration": 2.6181818,
                "tempo": 120.0
            },
            {
                "start_time": 5.9227273,
                "end_time": 6.0590909,
                "pitch": 79,
                "velocity": 32,
                "duration": 0.1363636,
                "tempo": 120.0
            },
            {
                "start_time": 5.9227273,
                "end_time": 6.0590909,
                "pitch": 91,
                "velocity": 32,
                "duration": 0.1363636,
                "tempo": 120.0
            },
            {
                "start_time": 6.0590909,
                "end_time": 6.1931818,
                "pitch": 79,
                "velocity": 32,
                "duration": 0.1340909,
                "tempo": 120.0
            },
            {
                "start_time": 6.0590909,
                "end_time": 6.1931818,
                "pitch": 91,
                "velocity": 32,
                "duration": 0.1340909,
                "tempo": 120.0
            },
            {
                "start_time": 6.1931818,
                "end_time": 6.3272727,
                "pitch": 79,
                "velocity": 32,
                "duration": 0.1340909,
                "tempo": 120.0
            },
            {
                "start_time": 6.1931818,
                "end_time": 6.3272727,
                "pitch": 91,
                "velocity": 32,
                "duration": 0.1340909,
                "tempo": 120.0
            },
            {
                "start_time": 6.3272727,
                "end_time": 6.4590909,
                "pitch": 79,
                "velocity": 32,
                "duration": 0.1318182,
                "tempo": 120.0
            },
            {
                "start_time": 6.3272727,
                "end_time": 6.4590909,
                "pitch": 91,
                "velocity": 32,
                "duration": 0.1318182,
                "tempo": 120.0
            },
            {
                "start_time": 6.4590909,
                "end_time": 6.5954545,
                "pitch": 79,
                "velocity": 32,
                "duration": 0.1363636,
                "tempo": 120.0
            },
            {
                "start_time": 6.4590909,
                "end_time": 6.5954545,
                "pitch": 91,
                "velocity": 32,
                "duration": 0.1363636,
                "tempo": 120.0
            },
            {
                "start_time": 6.5954545,
                "end_time": 6.7295455,
                "pitch": 79,
                "velocity": 32,
                "duration": 0.1340909,
                "tempo": 120.0
            },
            {
                "start_time": 6.5954545,
                "end_time": 6.7295455,
                "pitch": 91,
                "velocity": 32,
                "duration": 0.1340909,
                "tempo": 120.0
            },
            {
                "start_time": 6.7295455,
                "end_time": 6.8636364,
                "pitch": 79,
                "velocity": 32,
                "duration": 0.1340909,
                "tempo": 120.0
            },
            {
                "start_time": 6.7295455,
                "end_time": 6.8636364,
                "pitch": 91,
                "velocity": 32,
                "duration": 0.1340909,
                "tempo": 120.0
            },
            {
                "start_time": 6.8636364,
                "end_time": 6.9977273,
                "pitch": 79,
                "velocity": 32,
                "duration": 0.1340909,
                "tempo": 120.0
            },
            {
                "start_time": 6.8636364,
                "end_time": 6.9977273,
                "pitch": 91,
                "velocity": 32,
                "duration": 0.1340909,
                "tempo": 120.0
            },
            {
                "start_time": 6.9977273,
                "end_time": 7.1318182,
                "pitch": 79,
                "velocity": 32,
                "duration": 0.1340909,
                "tempo": 120.0
            },
            {
                "start_time": 6.9977273,
                "end_time": 7.1318182,
                "pitch": 91,
                "velocity": 32,
                "duration": 0.1340909,
                "tempo": 120.0
            },
            {
                "start_time": 7.1318182,
                "end_time": 7.2659091,
                "pitch": 79,
                "velocity": 32,
                "duration": 0.1340909,
                "tempo": 120.0
            },
            {
                "start_time": 7.1318182,
                "end_time": 7.2659091,
                "pitch": 91,
                "velocity": 32,
                "duration": 0.1340909,
                "tempo": 120.0
            },
            {
                "start_time": 7.2659091,
                "end_time": 7.4,
                "pitch": 79,
                "velocity": 32,
                "duration": 0.1340909,
                "tempo": 120.0
            },
            {
                "start_time": 7.2659091,
                "end_time": 7.4,
                "pitch": 91,
                "velocity": 32,
                "duration": 0.1340909,
                "tempo": 120.0
            },
            {
                "start_time": 7.4,
                "end_time": 7.5340909,
                "pitch": 79,
                "velocity": 32,
                "duration": 0.1340909,
                "tempo": 120.0
            },
            {
                "start_time": 7.4,
                "end_time": 7.5340909,
                "pitch": 91,
                "velocity": 32,
                "duration": 0.1340909,
                "tempo": 120.0
            },
            {
                "start_time": 7.5340909,
                "end_time": 7.6659091,
                "pitch": 79,
                "velocity": 32,
                "duration": 0.1318182,
                "tempo": 120.0
            },
            {
                "start_time": 7.5340909,
                "end_time": 7.6659091,
                "pitch": 91,
                "velocity": 32,
                "duration": 0.1318182,
                "tempo": 120.0
            },
            {
                "start_time": 7.6659091,
                "end_time": 7.8022727,
                "pitch": 79,
                "velocity": 32,
                "duration": 0.1363636,
                "tempo": 120.0
            },
            {
                "start_time": 7.6659091,
                "end_time": 7.8022727,
                "pitch": 91,
                "velocity": 32,
                "duration": 0.1363636,
                "tempo": 120.0
            },
            {
                "start_time": 7.8022727,
                "end_time": 7.9363636,
                "pitch": 79,
                "velocity": 32,
                "duration": 0.1340909,
                "tempo": 120.0
            },
            {
                "start_time": 7.8022727,
                "end_time": 7.9363636,
                "pitch": 91,
                "velocity": 32,
                "duration": 0.1340909,
                "tempo": 120.0
            },
            {
                "start_time": 7.9363636,
                "end_time": 8.0704545,
                "pitch": 79,
                "velocity": 32,
                "duration": 0.1340909,
                "tempo": 120.0
            },
            {
                "start_time": 7.9363636,
                "end_time": 8.0704545,
                "pitch": 91,
                "velocity": 32,
                "duration": 0.1340909,
                "tempo": 120.0
            },
            {
                "start_time": 8.0704545,
                "end_time": 8.2022727,
                "pitch": 79,
                "velocity": 32,
                "duration": 0.1318182,
                "tempo": 120.0
            },
            {
                "start_time": 8.0704545,
                "end_time": 8.2022727,
                "pitch": 91,
                "velocity": 32,
                "duration": 0.1318182,
                "tempo": 120.0
            },
            {
                "start_time": 8.2022727,
                "end_time": 8.2545455,
                "pitch": 79,
                "velocity": 32,
                "duration": 0.0522727,
                "tempo": 120.0
            },
            {
                "start_time": 8.2545455,
                "end_time": 8.9409091,
                "pitch": 79,
                "velocity": 32,
                "duration": 0.6863636,
                "tempo": 120.0
            },
            {
                "start_time": 8.2022727,
                "end_time": 8.9409091,
                "pitch": 91,
                "velocity": 32,
                "duration": 0.7386364,
                "tempo": 120.0
            },
            {
                "start_time": 8.9409091,
                "end_time": 9.075,
                "pitch": 79,
                "velocity": 32,
                "duration": 0.1340909,
                "tempo": 120.0
            },
            {
                "start_time": 8.9409091,
                "end_time": 9.075,
                "pitch": 91,
                "velocity": 32,
                "duration": 0.1340909,
                "tempo": 120.0
            },
            {
                "start_time": 9.075,
                "end_time": 9.2090909,
                "pitch": 79,
                "velocity": 32,
                "duration": 0.1340909,
                "tempo": 120.0
            },
            {
                "start_time": 9.075,
                "end_time": 9.2090909,
                "pitch": 91,
                "velocity": 32,
                "duration": 0.1340909,
                "tempo": 120.0
            },
            {
                "start_time": 9.2090909,
                "end_time": 9.3454545,
                "pitch": 79,
                "velocity": 32,
                "duration": 0.1363636,
                "tempo": 120.0
            },
            {
                "start_time": 9.2090909,
                "end_time": 9.3454545,
                "pitch": 91,
                "velocity": 32,
                "duration": 0.1363636,
                "tempo": 120.0
            },
            {
                "start_time": 9.3454545,
                "end_time": 9.4795455,
                "pitch": 79,
                "velocity": 32,
                "duration": 0.1340909,
                "tempo": 120.0
            },
            {
                "start_time": 9.3454545,
                "end_time": 9.4795455,
                "pitch": 91,
                "velocity": 32,
                "duration": 0.1340909,
                "tempo": 120.0
            },
            {
                "start_time": 9.4795455,
                "end_time": 9.6136364,
                "pitch": 79,
                "velocity": 32,
                "duration": 0.1340909,
                "tempo": 120.0
            },
            {
                "start_time": 9.4795455,
                "end_time": 9.6136364,
                "pitch": 91,
                "velocity": 32,
                "duration": 0.1340909,
                "tempo": 120.0
            },
            {
                "start_time": 9.6136364,
                "end_time": 9.7454545,
                "pitch": 79,
                "velocity": 32,
                "duration": 0.1318182,
                "tempo": 120.0
            },
            {
                "start_time": 9.6136364,
                "end_time": 9.7477273,
                "pitch": 91,
                "velocity": 32,
                "duration": 0.1340909,
                "tempo": 120.0
            },
            {
                "start_time": 9.7454545,
                "end_time": 9.7477273,
                "pitch": 91,
                "velocity": 32,
                "duration": 0.0022727,
                "tempo": 120.0
            },
            {
                "start_time": 9.7477273,
                "end_time": 9.8636364,
                "pitch": 79,
                "velocity": 32,
                "duration": 0.1159091,
                "tempo": 120.0
            },
            {
                "start_time": 9.8659091,
                "end_time": 10.5181818,
                "pitch": 79,
                "velocity": 32,
                "duration": 0.6522727,
                "tempo": 120.0
            },
            {
                "start_time": 10.5181818,
                "end_time": 10.6704545,
                "pitch": 77,
                "velocity": 32,
                "duration": 0.1522727,
                "tempo": 120.0
            },
            {
                "start_time": 10.6704545,
                "end_time": 10.8704545,
                "pitch": 77,
                "velocity": 32,
                "duration": 0.2,
                "tempo": 120.0
            },
            {
                "start_time": 4.425,
                "end_time": 10.8704545,
                "pitch": 90,
                "velocity": 32,
                "duration": 6.4454545,
                "tempo": 120.0
            },
            {
                "start_time": 10.8704545,
                "end_time": 11.0727273,
                "pitch": 81,
                "velocity": 32,
                "duration": 0.2022727,
                "tempo": 120.0
            },
            {
                "start_time": 11.275,
                "end_time": 11.4772727,
                "pitch": 81,
                "velocity": 32,
                "duration": 0.2022727,
                "tempo": 120.0
            },
            {
                "start_time": 11.6772727,
                "end_time": 12.3113636,
                "pitch": 81,
                "velocity": 32,
                "duration": 0.6340909,
                "tempo": 120.0
            },
            {
                "start_time": 12.3113636,
                "end_time": 12.3636364,
                "pitch": 79,
                "velocity": 32,
                "duration": 0.0522727,
                "tempo": 120.0
            },
            {
                "start_time": 12.3636364,
                "end_time": 12.4977273,
                "pitch": 79,
                "velocity": 32,
                "duration": 0.1340909,
                "tempo": 120.0
            },
            {
                "start_time": 12.3636364,
                "end_time": 12.4977273,
                "pitch": 91,
                "velocity": 32,
                "duration": 0.1340909,
                "tempo": 120.0
            },
            {
                "start_time": 12.4977273,
                "end_time": 12.6318182,
                "pitch": 79,
                "velocity": 32,
                "duration": 0.1340909,
                "tempo": 120.0
            },
            {
                "start_time": 12.4977273,
                "end_time": 12.6318182,
                "pitch": 91,
                "velocity": 32,
                "duration": 0.1340909,
                "tempo": 120.0
            },
            {
                "start_time": 12.6318182,
                "end_time": 12.7659091,
                "pitch": 79,
                "velocity": 32,
                "duration": 0.1340909,
                "tempo": 120.0
            },
            {
                "start_time": 12.6318182,
                "end_time": 12.7659091,
                "pitch": 91,
                "velocity": 32,
                "duration": 0.1340909,
                "tempo": 120.0
            },
            {
                "start_time": 12.7659091,
                "end_time": 12.9,
                "pitch": 79,
                "velocity": 32,
                "duration": 0.1340909,
                "tempo": 120.0
            },
            {
                "start_time": 12.7659091,
                "end_time": 12.9,
                "pitch": 91,
                "velocity": 32,
                "duration": 0.1340909,
                "tempo": 120.0
            },
            {
                "start_time": 12.9,
                "end_time": 13.0363636,
                "pitch": 79,
                "velocity": 32,
                "duration": 0.1363636,
                "tempo": 120.0
            },
            {
                "start_time": 12.9,
                "end_time": 13.0363636,
                "pitch": 91,
                "velocity": 32,
                "duration": 0.1363636,
                "tempo": 120.0
            },
            {
                "start_time": 13.0363636,
                "end_time": 13.1704545,
                "pitch": 79,
                "velocity": 32,
                "duration": 0.1340909,
                "tempo": 120.0
            },
            {
                "start_time": 13.0363636,
                "end_time": 13.1704545,
                "pitch": 91,
                "velocity": 32,
                "duration": 0.1340909,
                "tempo": 120.0
            },
            {
                "start_time": 13.1704545,
                "end_time": 13.3045455,
                "pitch": 79,
                "velocity": 32,
                "duration": 0.1340909,
                "tempo": 120.0
            },
            {
                "start_time": 13.1704545,
                "end_time": 13.3045455,
                "pitch": 91,
                "velocity": 32,
                "duration": 0.1340909,
                "tempo": 120.0
            },
            {
                "start_time": 13.3045455,
                "end_time": 13.4409091,
                "pitch": 79,
                "velocity": 32,
                "duration": 0.1363636,
                "tempo": 120.0
            },
            {
                "start_time": 13.3045455,
                "end_time": 13.4409091,
                "pitch": 91,
                "velocity": 32,
                "duration": 0.1363636,
                "tempo": 120.0
            },
            {
                "start_time": 13.4409091,
                "end_time": 13.5772727,
                "pitch": 79,
                "velocity": 32,
                "duration": 0.1363636,
                "tempo": 120.0
            },
            {
                "start_time": 13.4409091,
                "end_time": 13.5772727,
                "pitch": 91,
                "velocity": 32,
                "duration": 0.1363636,
                "tempo": 120.0
            },
            {
                "start_time": 13.5772727,
                "end_time": 13.7136364,
                "pitch": 79,
                "velocity": 32,
                "duration": 0.1363636,
                "tempo": 120.0
            },
            {
                "start_time": 13.5772727,
                "end_time": 13.7136364,
                "pitch": 91,
                "velocity": 32,
                "duration": 0.1363636,
                "tempo": 120.0
            },
            {
                "start_time": 13.7136364,
                "end_time": 13.8454545,
                "pitch": 79,
                "velocity": 32,
                "duration": 0.1318182,
                "tempo": 120.0
            },
            {
                "start_time": 13.7136364,
                "end_time": 13.8454545,
                "pitch": 91,
                "velocity": 32,
                "duration": 0.1318182,
                "tempo": 120.0
            },
            {
                "start_time": 13.8454545,
                "end_time": 13.9772727,
                "pitch": 79,
                "velocity": 32,
                "duration": 0.1318182,
                "tempo": 120.0
            },
            {
                "start_time": 13.8454545,
                "end_time": 13.9772727,
                "pitch": 91,
                "velocity": 32,
                "duration": 0.1318182,
                "tempo": 120.0
            },
            {
                "start_time": 13.9772727,
                "end_time": 14.1090909,
                "pitch": 79,
                "velocity": 32,
                "duration": 0.1318182,
                "tempo": 120.0
            },
            {
                "start_time": 13.9772727,
                "end_time": 14.1090909,
                "pitch": 91,
                "velocity": 32,
                "duration": 0.1318182,
                "tempo": 120.0
            },
            {
                "start_time": 14.1090909,
                "end_time": 14.2454545,
                "pitch": 79,
                "velocity": 32,
                "duration": 0.1363636,
                "tempo": 120.0
            },
            {
                "start_time": 14.1090909,
                "end_time": 14.2454545,
                "pitch": 91,
                "velocity": 32,
                "duration": 0.1363636,
                "tempo": 120.0
            },
            {
                "start_time": 14.2454545,
                "end_time": 14.2977273,
                "pitch": 79,
                "velocity": 32,
                "duration": 0.0522727,
                "tempo": 120.0
            },
            {
                "start_time": 40.2295455,
                "end_time": 40.4295455,
                "pitch": 72,
                "velocity": 40,
                "duration": 0.2,
                "tempo": 120.0
            },
            {
                "start_time": 40.8318182,
                "end_time": 41.2318182,
                "pitch": 70,
                "velocity": 40,
                "duration": 0.4,
                "tempo": 120.0
            },
            {
                "start_time": 41.2318182,
                "end_time": 41.4318182,
                "pitch": 70,
                "velocity": 40,
                "duration": 0.2,
                "tempo": 120.0
            },
            {
                "start_time": 41.4318182,
                "end_time": 41.6318182,
                "pitch": 72,
                "velocity": 40,
                "duration": 0.2,
                "tempo": 120.0
            },
            {
                "start_time": 41.6318182,
                "end_time": 41.8318182,
                "pitch": 74,
                "velocity": 40,
                "duration": 0.2,
                "tempo": 120.0
            },
            {
                "start_time": 41.8318182,
                "end_time": 41.8340909,
                "pitch": 74,
                "velocity": 40,
                "duration": 0.0022727,
                "tempo": 120.0
            },
            {
                "start_time": 40.8318182,
                "end_time": 42.0318182,
                "pitch": 76,
                "velocity": 40,
                "duration": 1.2,
                "tempo": 120.0
            },
            {
                "start_time": 41.8340909,
                "end_time": 42.0318182,
                "pitch": 76,
                "velocity": 40,
                "duration": 0.1977273,
                "tempo": 120.0
            },
            {
                "start_time": 42.0340909,
                "end_time": 43.4454545,
                "pitch": 70,
                "velocity": 40,
                "duration": 1.4113636,
                "tempo": 120.0
            },
            {
                "start_time": 43.4454545,
                "end_time": 43.6477273,
                "pitch": 70,
                "velocity": 40,
                "duration": 0.2022727,
                "tempo": 120.0
            },
            {
                "start_time": 41.6318182,
                "end_time": 44.45,
                "pitch": 72,
                "velocity": 40,
                "duration": 2.8181818,
                "tempo": 120.0
            },
            {
                "start_time": 44.05,
                "end_time": 44.45,
                "pitch": 72,
                "velocity": 40,
                "duration": 0.4,
                "tempo": 120.0
            },
            {
                "start_time": 44.45,
                "end_time": 44.55,
                "pitch": 69,
                "velocity": 40,
                "duration": 0.1,
                "tempo": 120.0
            },
            {
                "start_time": 41.4318182,
                "end_time": 44.65,
                "pitch": 50,
                "velocity": 40,
                "duration": 3.2181818,
                "tempo": 120.0
            },
            {
                "start_time": 44.55,
                "end_time": 44.65,
                "pitch": 69,
                "velocity": 40,
                "duration": 0.1,
                "tempo": 120.0
            },
            {
                "start_time": 44.65,
                "end_time": 44.75,
                "pitch": 72,
                "velocity": 40,
                "duration": 0.1,
                "tempo": 120.0
            },
            {
                "start_time": 44.45,
                "end_time": 44.85,
                "pitch": 76,
                "velocity": 40,
                "duration": 0.4,
                "tempo": 120.0
            },
            {
                "start_time": 44.85,
                "end_time": 44.95,
                "pitch": 69,
                "velocity": 40,
                "duration": 0.1,
                "tempo": 120.0
            },
            {
                "start_time": 44.65,
                "end_time": 45.05,
                "pitch": 50,
                "velocity": 40,
                "duration": 0.4,
                "tempo": 120.0
            },
            {
                "start_time": 44.95,
                "end_time": 45.05,
                "pitch": 69,
                "velocity": 40,
                "duration": 0.1,
                "tempo": 120.0
            },
            {
                "start_time": 45.05,
                "end_time": 46.6568182,
                "pitch": 72,
                "velocity": 40,
                "duration": 1.6068182,
                "tempo": 120.0
            }
        ],
        "Clarinet": [
            {
                "start_time": 14.7,
                "end_time": 15.1,
                "pitch": 67,
                "velocity": 51,
                "duration": 0.4,
                "tempo": 120.0
            },
            {
                "start_time": 15.1,
                "end_time": 15.15,
                "pitch": 67,
                "velocity": 51,
                "duration": 0.05,
                "tempo": 120.0
            },
            {
                "start_time": 15.1,
                "end_time": 15.2363636,
                "pitch": 0,
                "velocity": 51,
                "duration": 0.1363636,
                "tempo": 120.0
            },
            {
                "start_time": 15.15,
                "end_time": 15.2363636,
                "pitch": 67,
                "velocity": 51,
                "duration": 0.0863636,
                "tempo": 120.0
            },
            {
                "start_time": 15.2363636,
                "end_time": 15.2886364,
                "pitch": 67,
                "velocity": 51,
                "duration": 0.0522727,
                "tempo": 120.0
            },
            {
                "start_time": 15.15,
                "end_time": 15.2886364,
                "pitch": 79,
                "velocity": 51,
                "duration": 0.1386364,
                "tempo": 120.0
            },
            {
                "start_time": 15.2363636,
                "end_time": 15.3727273,
                "pitch": 0,
                "velocity": 51,
                "duration": 0.1363636,
                "tempo": 120.0
            },
            {
                "start_time": 15.2886364,
                "end_time": 15.3727273,
                "pitch": 67,
                "velocity": 51,
                "duration": 0.0840909,
                "tempo": 120.0
            },
            {
                "start_time": 15.3727273,
                "end_time": 15.4227273,
                "pitch": 67,
                "velocity": 51,
                "duration": 0.05,
                "tempo": 120.0
            },
            {
                "start_time": 15.2886364,
                "end_time": 15.4227273,
                "pitch": 79,
                "velocity": 51,
                "duration": 0.1340909,
                "tempo": 120.0
            },
            {
                "start_time": 15.3727273,
                "end_time": 15.5068182,
                "pitch": 0,
                "velocity": 51,
                "duration": 0.1340909,
                "tempo": 120.0
            },
            {
                "start_time": 15.4227273,
                "end_time": 15.5068182,
                "pitch": 67,
                "velocity": 51,
                "duration": 0.0840909,
                "tempo": 120.0
            },
            {
                "start_time": 15.5068182,
                "end_time": 15.5568182,
                "pitch": 67,
                "velocity": 51,
                "duration": 0.05,
                "tempo": 120.0
            },
            {
                "start_time": 15.4227273,
                "end_time": 15.5568182,
                "pitch": 79,
                "velocity": 51,
                "duration": 0.1340909,
                "tempo": 120.0
            },
            {
                "start_time": 15.5068182,
                "end_time": 15.6409091,
                "pitch": 0,
                "velocity": 51,
                "duration": 0.1340909,
                "tempo": 120.0
            },
            {
                "start_time": 15.5568182,
                "end_time": 15.6409091,
                "pitch": 67,
                "velocity": 51,
                "duration": 0.0840909,
                "tempo": 120.0
            },
            {
                "start_time": 15.6409091,
                "end_time": 15.6909091,
                "pitch": 67,
                "velocity": 51,
                "duration": 0.05,
                "tempo": 120.0
            },
            {
                "start_time": 15.5568182,
                "end_time": 15.6909091,
                "pitch": 79,
                "velocity": 51,
                "duration": 0.1340909,
                "tempo": 120.0
            },
            {
                "start_time": 15.6409091,
                "end_time": 15.775,
                "pitch": 0,
                "velocity": 51,
                "duration": 0.1340909,
                "tempo": 120.0
            },
            {
                "start_time": 15.6909091,
                "end_time": 15.775,
                "pitch": 67,
                "velocity": 51,
                "duration": 0.0840909,
                "tempo": 120.0
            },
            {
                "start_time": 15.775,
                "end_time": 15.8272727,
                "pitch": 67,
                "velocity": 51,
                "duration": 0.0522727,
                "tempo": 120.0
            },
            {
                "start_time": 15.6909091,
                "end_time": 15.8272727,
                "pitch": 79,
                "velocity": 51,
                "duration": 0.1363636,
                "tempo": 120.0
            },
            {
                "start_time": 15.775,
                "end_time": 15.9113636,
                "pitch": 0,
                "velocity": 51,
                "duration": 0.1363636,
                "tempo": 120.0
            },
            {
                "start_time": 15.8272727,
                "end_time": 15.9113636,
                "pitch": 67,
                "velocity": 51,
                "duration": 0.0840909,
                "tempo": 120.0
            },
            {
                "start_time": 15.9113636,
                "end_time": 15.9613636,
                "pitch": 67,
                "velocity": 51,
                "duration": 0.05,
                "tempo": 120.0
            },
            {
                "start_time": 15.8272727,
                "end_time": 15.9613636,
                "pitch": 79,
                "velocity": 51,
                "duration": 0.1340909,
                "tempo": 120.0
            },
            {
                "start_time": 15.9113636,
                "end_time": 16.0454545,
                "pitch": 0,
                "velocity": 51,
                "duration": 0.1340909,
                "tempo": 120.0
            },
            {
                "start_time": 15.9613636,
                "end_time": 16.0454545,
                "pitch": 67,
                "velocity": 51,
                "duration": 0.0840909,
                "tempo": 120.0
            },
            {
                "start_time": 16.0454545,
                "end_time": 16.0954545,
                "pitch": 67,
                "velocity": 51,
                "duration": 0.05,
                "tempo": 120.0
            },
            {
                "start_time": 15.9613636,
                "end_time": 16.0954545,
                "pitch": 79,
                "velocity": 51,
                "duration": 0.1340909,
                "tempo": 120.0
            },
            {
                "start_time": 16.0454545,
                "end_time": 16.1795455,
                "pitch": 0,
                "velocity": 51,
                "duration": 0.1340909,
                "tempo": 120.0
            },
            {
                "start_time": 16.0954545,
                "end_time": 16.1795455,
                "pitch": 67,
                "velocity": 51,
                "duration": 0.0840909,
                "tempo": 120.0
            },
            {
                "start_time": 16.1795455,
                "end_time": 16.2295455,
                "pitch": 67,
                "velocity": 51,
                "duration": 0.05,
                "tempo": 120.0
            },
            {
                "start_time": 16.0954545,
                "end_time": 16.2295455,
                "pitch": 79,
                "velocity": 51,
                "duration": 0.1340909,
                "tempo": 120.0
            },
            {
                "start_time": 16.1795455,
                "end_time": 16.3136364,
                "pitch": 0,
                "velocity": 51,
                "duration": 0.1340909,
                "tempo": 120.0
            },
            {
                "start_time": 16.2295455,
                "end_time": 16.3136364,
                "pitch": 67,
                "velocity": 51,
                "duration": 0.0840909,
                "tempo": 120.0
            },
            {
                "start_time": 16.3136364,
                "end_time": 17.1159091,
                "pitch": 64,
                "velocity": 51,
                "duration": 0.8022727,
                "tempo": 120.0
            },
            {
                "start_time": 17.1159091,
                "end_time": 17.9204545,
                "pitch": 64,
                "velocity": 51,
                "duration": 0.8045455,
                "tempo": 120.0
            },
            {
                "start_time": 17.9204545,
                "end_time": 18.5227273,
                "pitch": 65,
                "velocity": 51,
                "duration": 0.6022727,
                "tempo": 120.0
            },
            {
                "start_time": 18.5227273,
                "end_time": 18.525,
                "pitch": 64,
                "velocity": 51,
                "duration": 0.0022727,
                "tempo": 120.0
            },
            {
                "start_time": 18.525,
                "end_time": 19.125,
                "pitch": 62,
                "velocity": 51,
                "duration": 0.6,
                "tempo": 120.0
            },
            {
                "start_time": 19.125,
                "end_time": 20.9318182,
                "pitch": 74,
                "velocity": 51,
                "duration": 1.8068182,
                "tempo": 120.0
            },
            {
                "start_time": 20.9340909,
                "end_time": 21.0340909,
                "pitch": 60,
                "velocity": 51,
                "duration": 0.1,
                "tempo": 120.0
            },
            {
                "start_time": 20.9340909,
                "end_time": 21.1386364,
                "pitch": 62,
                "velocity": 51,
                "duration": 0.2045455,
                "tempo": 120.0
            },
            {
                "start_time": 21.0340909,
                "end_time": 21.1386364,
                "pitch": 62,
                "velocity": 51,
                "duration": 0.1045455,
                "tempo": 120.0
            },
            {
                "start_time": 21.1386364,
                "end_time": 21.7363636,
                "pitch": 64,
                "velocity": 51,
                "duration": 0.5977273,
                "tempo": 120.0
            },
            {
                "start_time": 21.7363636,
                "end_time": 22.75,
                "pitch": 64,
                "velocity": 51,
                "duration": 1.0136364,
                "tempo": 120.0
            },
            {
                "start_time": 22.75,
                "end_time": 23.3522727,
                "pitch": 65,
                "velocity": 51,
                "duration": 0.6022727,
                "tempo": 120.0
            },
            {
                "start_time": 23.3522727,
                "end_time": 24.1568182,
                "pitch": 64,
                "velocity": 51,
                "duration": 0.8045455,
                "tempo": 120.0
            },
            {
                "start_time": 24.1568182,
                "end_time": 24.2545455,
                "pitch": 65,
                "velocity": 51,
                "duration": 0.0977273,
                "tempo": 120.0
            },
            {
                "start_time": 24.2545455,
                "end_time": 24.3568182,
                "pitch": 64,
                "velocity": 51,
                "duration": 0.1022727,
                "tempo": 120.0
            },
            {
                "start_time": 24.3568182,
                "end_time": 25.1590909,
                "pitch": 70,
                "velocity": 51,
                "duration": 0.8022727,
                "tempo": 120.0
            },
            {
                "start_time": 25.1590909,
                "end_time": 25.9613636,
                "pitch": 65,
                "velocity": 51,
                "duration": 0.8022727,
                "tempo": 120.0
            },
            {
                "start_time": 21.1386364,
                "end_time": 26.7659091,
                "pitch": 62,
                "velocity": 51,
                "duration": 5.6272727,
                "tempo": 120.0
            },
            {
                "start_time": 25.9613636,
                "end_time": 26.7659091,
                "pitch": 62,
                "velocity": 51,
                "duration": 0.8045455,
                "tempo": 120.0
            },
            {
                "start_time": 14.7,
                "end_time": 26.7659091,
                "pitch": 77,
                "velocity": 51,
                "duration": 12.0659091,
                "tempo": 120.0
            },
            {
                "start_time": 25.1590909,
                "end_time": 27.1681818,
                "pitch": 38,
                "velocity": 51,
                "duration": 2.0090909,
                "tempo": 120.0
            },
            {
                "start_time": 26.7659091,
                "end_time": 27.1681818,
                "pitch": 70,
                "velocity": 51,
                "duration": 0.4022727,
                "tempo": 120.0
            },
            {
                "start_time": 21.0340909,
                "end_time": 27.2681818,
                "pitch": 60,
                "velocity": 51,
                "duration": 6.2340909,
                "tempo": 120.0
            },
            {
                "start_time": 27.1681818,
                "end_time": 27.2681818,
                "pitch": 60,
                "velocity": 51,
                "duration": 0.1,
                "tempo": 120.0
            },
            {
                "start_time": 27.2681818,
                "end_time": 27.3681818,
                "pitch": 62,
                "velocity": 51,
                "duration": 0.1,
                "tempo": 120.0
            },
            {
                "start_time": 27.3681818,
                "end_time": 27.5681818,
                "pitch": 64,
                "velocity": 51,
                "duration": 0.2,
                "tempo": 120.0
            },
            {
                "start_time": 24.3568182,
                "end_time": 27.5681818,
                "pitch": 78,
                "velocity": 51,
                "duration": 3.2113636,
                "tempo": 120.0
            },
            {
                "start_time": 16.3136364,
                "end_time": 27.9704545,
                "pitch": 0,
                "velocity": 51,
                "duration": 11.6568182,
                "tempo": 120.0
            },
            {
                "start_time": 27.5681818,
                "end_time": 27.9704545,
                "pitch": 67,
                "velocity": 51,
                "duration": 0.4022727,
                "tempo": 120.0
            },
            {
                "start_time": 27.9704545,
                "end_time": 28.0204545,
                "pitch": 67,
                "velocity": 51,
                "duration": 0.05,
                "tempo": 120.0
            },
            {
                "start_time": 16.2295455,
                "end_time": 28.0204545,
                "pitch": 79,
                "velocity": 51,
                "duration": 11.7909091,
                "tempo": 120.0
            },
            {
                "start_time": 27.9704545,
                "end_time": 28.1045455,
                "pitch": 0,
                "velocity": 51,
                "duration": 0.1340909,
                "tempo": 120.0
            },
            {
                "start_time": 28.0204545,
                "end_time": 28.1045455,
                "pitch": 67,
                "velocity": 51,
                "duration": 0.0840909,
                "tempo": 120.0
            },
            {
                "start_time": 28.1045455,
                "end_time": 28.1545455,
                "pitch": 67,
                "velocity": 51,
                "duration": 0.05,
                "tempo": 120.0
            },
            {
                "start_time": 28.0204545,
                "end_time": 28.1545455,
                "pitch": 79,
                "velocity": 51,
                "duration": 0.1340909,
                "tempo": 120.0
            },
            {
                "start_time": 28.1045455,
                "end_time": 28.2409091,
                "pitch": 0,
                "velocity": 51,
                "duration": 0.1363636,
                "tempo": 120.0
            },
            {
                "start_time": 28.1545455,
                "end_time": 28.2409091,
                "pitch": 67,
                "velocity": 51,
                "duration": 0.0863636,
                "tempo": 120.0
            },
            {
                "start_time": 28.2409091,
                "end_time": 28.2909091,
                "pitch": 67,
                "velocity": 51,
                "duration": 0.05,
                "tempo": 120.0
            },
            {
                "start_time": 28.1545455,
                "end_time": 28.2909091,
                "pitch": 79,
                "velocity": 51,
                "duration": 0.1363636,
                "tempo": 120.0
            },
            {
                "start_time": 28.2409091,
                "end_time": 28.3772727,
                "pitch": 0,
                "velocity": 51,
                "duration": 0.1363636,
                "tempo": 120.0
            },
            {
                "start_time": 28.2909091,
                "end_time": 28.3772727,
                "pitch": 67,
                "velocity": 51,
                "duration": 0.0863636,
                "tempo": 120.0
            },
            {
                "start_time": 28.3772727,
                "end_time": 28.4295455,
                "pitch": 67,
                "velocity": 51,
                "duration": 0.0522727,
                "tempo": 120.0
            },
            {
                "start_time": 28.2909091,
                "end_time": 28.4295455,
                "pitch": 79,
                "velocity": 51,
                "duration": 0.1386364,
                "tempo": 120.0
            },
            {
                "start_time": 28.3772727,
                "end_time": 28.5136364,
                "pitch": 0,
                "velocity": 51,
                "duration": 0.1363636,
                "tempo": 120.0
            },
            {
                "start_time": 28.4295455,
                "end_time": 28.5136364,
                "pitch": 67,
                "velocity": 51,
                "duration": 0.0840909,
                "tempo": 120.0
            },
            {
                "start_time": 28.5136364,
                "end_time": 28.5659091,
                "pitch": 67,
                "velocity": 51,
                "duration": 0.0522727,
                "tempo": 120.0
            },
            {
                "start_time": 28.4295455,
                "end_time": 28.5659091,
                "pitch": 79,
                "velocity": 51,
                "duration": 0.1363636,
                "tempo": 120.0
            },
            {
                "start_time": 28.5136364,
                "end_time": 28.6477273,
                "pitch": 0,
                "velocity": 51,
                "duration": 0.1340909,
                "tempo": 120.0
            },
            {
                "start_time": 28.5659091,
                "end_time": 28.6477273,
                "pitch": 67,
                "velocity": 51,
                "duration": 0.0818182,
                "tempo": 120.0
            },
            {
                "start_time": 28.6477273,
                "end_time": 28.6977273,
                "pitch": 67,
                "velocity": 51,
                "duration": 0.05,
                "tempo": 120.0
            },
            {
                "start_time": 28.5659091,
                "end_time": 28.6977273,
                "pitch": 79,
                "velocity": 51,
                "duration": 0.1318182,
                "tempo": 120.0
            },
            {
                "start_time": 28.6477273,
                "end_time": 28.7795455,
                "pitch": 0,
                "velocity": 51,
                "duration": 0.1318182,
                "tempo": 120.0
            },
            {
                "start_time": 28.6977273,
                "end_time": 28.7795455,
                "pitch": 67,
                "velocity": 51,
                "duration": 0.0818182,
                "tempo": 120.0
            },
            {
                "start_time": 28.7795455,
                "end_time": 28.8272727,
                "pitch": 67,
                "velocity": 51,
                "duration": 0.0477273,
                "tempo": 120.0
            },
            {
                "start_time": 28.6977273,
                "end_time": 28.8272727,
                "pitch": 79,
                "velocity": 51,
                "duration": 0.1295455,
                "tempo": 120.0
            },
            {
                "start_time": 28.7795455,
                "end_time": 28.9090909,
                "pitch": 0,
                "velocity": 51,
                "duration": 0.1295455,
                "tempo": 120.0
            },
            {
                "start_time": 28.8272727,
                "end_time": 28.9090909,
                "pitch": 67,
                "velocity": 51,
                "duration": 0.0818182,
                "tempo": 120.0
            },
            {
                "start_time": 28.9090909,
                "end_time": 28.9590909,
                "pitch": 67,
                "velocity": 51,
                "duration": 0.05,
                "tempo": 120.0
            },
            {
                "start_time": 28.8272727,
                "end_time": 28.9590909,
                "pitch": 79,
                "velocity": 51,
                "duration": 0.1318182,
                "tempo": 120.0
            },
            {
                "start_time": 28.9090909,
                "end_time": 29.0431818,
                "pitch": 0,
                "velocity": 51,
                "duration": 0.1340909,
                "tempo": 120.0
            },
            {
                "start_time": 28.9590909,
                "end_time": 29.0431818,
                "pitch": 67,
                "velocity": 51,
                "duration": 0.0840909,
                "tempo": 120.0
            },
            {
                "start_time": 29.0431818,
                "end_time": 29.0954545,
                "pitch": 67,
                "velocity": 51,
                "duration": 0.0522727,
                "tempo": 120.0
            },
            {
                "start_time": 28.9590909,
                "end_time": 29.0954545,
                "pitch": 79,
                "velocity": 51,
                "duration": 0.1363636,
                "tempo": 120.0
            },
            {
                "start_time": 29.0431818,
                "end_time": 29.1818182,
                "pitch": 0,
                "velocity": 51,
                "duration": 0.1386364,
                "tempo": 120.0
            },
            {
                "start_time": 29.0954545,
                "end_time": 29.1818182,
                "pitch": 67,
                "velocity": 51,
                "duration": 0.0863636,
                "tempo": 120.0
            },
            {
                "start_time": 29.1818182,
                "end_time": 29.9886364,
                "pitch": 64,
                "velocity": 51,
                "duration": 0.8068182,
                "tempo": 120.0
            },
            {
                "start_time": 29.9886364,
                "end_time": 30.7909091,
                "pitch": 64,
                "velocity": 51,
                "duration": 0.8022727,
                "tempo": 120.0
            },
            {
                "start_time": 25.9613636,
                "end_time": 31.3954545,
                "pitch": 65,
                "velocity": 51,
                "duration": 5.4340909,
                "tempo": 120.0
            },
            {
                "start_time": 30.7909091,
                "end_time": 31.3954545,
                "pitch": 65,
                "velocity": 51,
                "duration": 0.6045455,
                "tempo": 120.0
            },
            {
                "start_time": 31.3954545,
                "end_time": 31.9954545,
                "pitch": 62,
                "velocity": 51,
                "duration": 0.6,
                "tempo": 120.0
            },
            {
                "start_time": 31.9954545,
                "end_time": 33.8022727,
                "pitch": 74,
                "velocity": 51,
                "duration": 1.8068182,
                "tempo": 120.0
            },
            {
                "start_time": 33.8022727,
                "end_time": 33.9,
                "pitch": 60,
                "velocity": 51,
                "duration": 0.0977273,
                "tempo": 120.0
            },
            {
                "start_time": 33.8022727,
                "end_time": 34.0022727,
                "pitch": 62,
                "velocity": 51,
                "duration": 0.2,
                "tempo": 120.0
            },
            {
                "start_time": 33.9,
                "end_time": 34.0022727,
                "pitch": 62,
                "velocity": 51,
                "duration": 0.1022727,
                "tempo": 120.0
            },
            {
                "start_time": 31.3954545,
                "end_time": 34.6022727,
                "pitch": 64,
                "velocity": 51,
                "duration": 3.2068182,
                "tempo": 120.0
            },
            {
                "start_time": 34.0022727,
                "end_time": 34.6022727,
                "pitch": 64,
                "velocity": 51,
                "duration": 0.6,
                "tempo": 120.0
            },
            {
                "start_time": 34.6022727,
                "end_time": 35.6068182,
                "pitch": 64,
                "velocity": 51,
                "duration": 1.0045455,
                "tempo": 120.0
            },
            {
                "start_time": 35.6068182,
                "end_time": 36.2068182,
                "pitch": 65,
                "velocity": 51,
                "duration": 0.6,
                "tempo": 120.0
            },
            {
                "start_time": 36.2068182,
                "end_time": 37.0204545,
                "pitch": 64,
                "velocity": 51,
                "duration": 0.8136364,
                "tempo": 120.0
            },
            {
                "start_time": 37.0204545,
                "end_time": 37.1181818,
                "pitch": 65,
                "velocity": 51,
                "duration": 0.0977273,
                "tempo": 120.0
            },
            {
                "start_time": 37.1181818,
                "end_time": 37.2204545,
                "pitch": 64,
                "velocity": 51,
                "duration": 0.1022727,
                "tempo": 120.0
            },
            {
                "start_time": 27.5681818,
                "end_time": 37.2204545,
                "pitch": 78,
                "velocity": 51,
                "duration": 9.6522727,
                "tempo": 120.0
            },
            {
                "start_time": 37.2204545,
                "end_time": 38.0204545,
                "pitch": 70,
                "velocity": 51,
                "duration": 0.8,
                "tempo": 120.0
            },
            {
                "start_time": 38.0204545,
                "end_time": 38.825,
                "pitch": 72,
                "velocity": 51,
                "duration": 0.8045455,
                "tempo": 120.0
            },
            {
                "start_time": 38.825,
                "end_time": 39.625,
                "pitch": 74,
                "velocity": 51,
                "duration": 0.8,
                "tempo": 120.0
            },
            {
                "start_time": 26.7659091,
                "end_time": 40.2272727,
                "pitch": 77,
                "velocity": 51,
                "duration": 13.4613636,
                "tempo": 120.0
            },
            {
                "start_time": 39.625,
                "end_time": 40.2272727,
                "pitch": 77,
                "velocity": 51,
                "duration": 0.6022727,
                "tempo": 120.0
            },
            {
                "start_time": 40.2272727,
                "end_time": 40.3272727,
                "pitch": 77,
                "velocity": 51,
                "duration": 0.1,
                "tempo": 120.0
            },
            {
                "start_time": 40.3272727,
                "end_time": 40.4272727,
                "pitch": 76,
                "velocity": 51,
                "duration": 0.1,
                "tempo": 120.0
            },
            {
                "start_time": 40.4272727,
                "end_time": 43.4454545,
                "pitch": 77,
                "velocity": 51,
                "duration": 3.0181818,
                "tempo": 120.0
            },
            {
                "start_time": 43.4454545,
                "end_time": 43.5431818,
                "pitch": 84,
                "velocity": 51,
                "duration": 0.0977273,
                "tempo": 120.0
            },
            {
                "start_time": 43.5454545,
                "end_time": 43.6454545,
                "pitch": 86,
                "velocity": 51,
                "duration": 0.1,
                "tempo": 120.0
            },
            {
                "start_time": 43.4454545,
                "end_time": 46.8545455,
                "pitch": 88,
                "velocity": 51,
                "duration": 3.4090909,
                "tempo": 120.0
            },
            {
                "start_time": 43.6454545,
                "end_time": 46.8545455,
                "pitch": 88,
                "velocity": 51,
                "duration": 3.2090909,
                "tempo": 120.0
            },
            {
                "start_time": 29.1818182,
                "end_time": 47.2545455,
                "pitch": 0,
                "velocity": 51,
                "duration": 18.0727273,
                "tempo": 120.0
            },
            {
                "start_time": 46.8545455,
                "end_time": 47.2545455,
                "pitch": 67,
                "velocity": 51,
                "duration": 0.4,
                "tempo": 120.0
            },
            {
                "start_time": 47.2545455,
                "end_time": 47.3045455,
                "pitch": 67,
                "velocity": 51,
                "duration": 0.05,
                "tempo": 120.0
            },
            {
                "start_time": 29.0954545,
                "end_time": 47.3045455,
                "pitch": 79,
                "velocity": 51,
                "duration": 18.2090909,
                "tempo": 120.0
            },
            {
                "start_time": 47.2545455,
                "end_time": 47.3886364,
                "pitch": 0,
                "velocity": 51,
                "duration": 0.1340909,
                "tempo": 120.0
            },
            {
                "start_time": 47.3045455,
                "end_time": 47.3886364,
                "pitch": 67,
                "velocity": 51,
                "duration": 0.0840909,
                "tempo": 120.0
            },
            {
                "start_time": 47.3886364,
                "end_time": 47.4386364,
                "pitch": 67,
                "velocity": 51,
                "duration": 0.05,
                "tempo": 120.0
            },
            {
                "start_time": 47.3045455,
                "end_time": 47.4386364,
                "pitch": 79,
                "velocity": 51,
                "duration": 0.1340909,
                "tempo": 120.0
            },
            {
                "start_time": 47.3886364,
                "end_time": 47.5227273,
                "pitch": 0,
                "velocity": 51,
                "duration": 0.1340909,
                "tempo": 120.0
            },
            {
                "start_time": 47.4386364,
                "end_time": 47.5227273,
                "pitch": 67,
                "velocity": 51,
                "duration": 0.0840909,
                "tempo": 120.0
            },
            {
                "start_time": 47.5227273,
                "end_time": 47.5727273,
                "pitch": 67,
                "velocity": 51,
                "duration": 0.05,
                "tempo": 120.0
            },
            {
                "start_time": 47.4386364,
                "end_time": 47.5727273,
                "pitch": 79,
                "velocity": 51,
                "duration": 0.1340909,
                "tempo": 120.0
            },
            {
                "start_time": 47.5227273,
                "end_time": 47.6568182,
                "pitch": 0,
                "velocity": 51,
                "duration": 0.1340909,
                "tempo": 120.0
            },
            {
                "start_time": 47.5727273,
                "end_time": 47.6568182,
                "pitch": 67,
                "velocity": 51,
                "duration": 0.0840909,
                "tempo": 120.0
            },
            {
                "start_time": 47.6568182,
                "end_time": 47.7068182,
                "pitch": 67,
                "velocity": 51,
                "duration": 0.05,
                "tempo": 120.0
            },
            {
                "start_time": 47.5727273,
                "end_time": 47.7068182,
                "pitch": 79,
                "velocity": 51,
                "duration": 0.1340909,
                "tempo": 120.0
            },
            {
                "start_time": 47.6568182,
                "end_time": 47.7909091,
                "pitch": 0,
                "velocity": 51,
                "duration": 0.1340909,
                "tempo": 120.0
            },
            {
                "start_time": 47.7068182,
                "end_time": 47.7909091,
                "pitch": 67,
                "velocity": 51,
                "duration": 0.0840909,
                "tempo": 120.0
            },
            {
                "start_time": 47.7909091,
                "end_time": 47.8409091,
                "pitch": 67,
                "velocity": 51,
                "duration": 0.05,
                "tempo": 120.0
            },
            {
                "start_time": 47.7068182,
                "end_time": 47.8409091,
                "pitch": 79,
                "velocity": 51,
                "duration": 0.1340909,
                "tempo": 120.0
            },
            {
                "start_time": 47.7909091,
                "end_time": 47.925,
                "pitch": 0,
                "velocity": 51,
                "duration": 0.1340909,
                "tempo": 120.0
            },
            {
                "start_time": 47.8409091,
                "end_time": 47.925,
                "pitch": 67,
                "velocity": 51,
                "duration": 0.0840909,
                "tempo": 120.0
            },
            {
                "start_time": 47.925,
                "end_time": 47.975,
                "pitch": 67,
                "velocity": 51,
                "duration": 0.05,
                "tempo": 120.0
            },
            {
                "start_time": 47.8409091,
                "end_time": 47.975,
                "pitch": 79,
                "velocity": 51,
                "duration": 0.1340909,
                "tempo": 120.0
            },
            {
                "start_time": 47.925,
                "end_time": 48.0590909,
                "pitch": 0,
                "velocity": 51,
                "duration": 0.1340909,
                "tempo": 120.0
            },
            {
                "start_time": 47.975,
                "end_time": 48.0590909,
                "pitch": 67,
                "velocity": 51,
                "duration": 0.0840909,
                "tempo": 120.0
            },
            {
                "start_time": 48.0590909,
                "end_time": 48.1090909,
                "pitch": 67,
                "velocity": 51,
                "duration": 0.05,
                "tempo": 120.0
            },
            {
                "start_time": 47.975,
                "end_time": 48.1090909,
                "pitch": 79,
                "velocity": 51,
                "duration": 0.1340909,
                "tempo": 120.0
            },
            {
                "start_time": 48.0590909,
                "end_time": 48.1909091,
                "pitch": 0,
                "velocity": 51,
                "duration": 0.1318182,
                "tempo": 120.0
            },
            {
                "start_time": 48.1090909,
                "end_time": 48.1909091,
                "pitch": 67,
                "velocity": 51,
                "duration": 0.0818182,
                "tempo": 120.0
            },
            {
                "start_time": 48.1909091,
                "end_time": 48.2409091,
                "pitch": 67,
                "velocity": 51,
                "duration": 0.05,
                "tempo": 120.0
            },
            {
                "start_time": 48.1090909,
                "end_time": 48.2409091,
                "pitch": 79,
                "velocity": 51,
                "duration": 0.1318182,
                "tempo": 120.0
            },
            {
                "start_time": 48.1909091,
                "end_time": 48.325,
                "pitch": 0,
                "velocity": 51,
                "duration": 0.1340909,
                "tempo": 120.0
            },
            {
                "start_time": 48.2409091,
                "end_time": 48.325,
                "pitch": 67,
                "velocity": 51,
                "duration": 0.0840909,
                "tempo": 120.0
            },
            {
                "start_time": 48.325,
                "end_time": 48.375,
                "pitch": 67,
                "velocity": 51,
                "duration": 0.05,
                "tempo": 120.0
            },
            {
                "start_time": 48.2409091,
                "end_time": 48.375,
                "pitch": 79,
                "velocity": 51,
                "duration": 0.1340909,
                "tempo": 120.0
            },
            {
                "start_time": 48.325,
                "end_time": 48.4590909,
                "pitch": 0,
                "velocity": 51,
                "duration": 0.1340909,
                "tempo": 120.0
            },
            {
                "start_time": 48.375,
                "end_time": 48.4590909,
                "pitch": 67,
                "velocity": 51,
                "duration": 0.0840909,
                "tempo": 120.0
            },
            {
                "start_time": 48.4590909,
                "end_time": 49.2590909,
                "pitch": 64,
                "velocity": 51,
                "duration": 0.8,
                "tempo": 120.0
            },
            {
                "start_time": 49.2613636,
                "end_time": 50.0681818,
                "pitch": 64,
                "velocity": 51,
                "duration": 0.8068182,
                "tempo": 120.0
            },
            {
                "start_time": 50.0704545,
                "end_time": 50.6681818,
                "pitch": 65,
                "velocity": 51,
                "duration": 0.5977273,
                "tempo": 120.0
            },
            {
                "start_time": 34.0022727,
                "end_time": 51.275,
                "pitch": 62,
                "velocity": 51,
                "duration": 17.2727273,
                "tempo": 120.0
            },
            {
                "start_time": 50.6681818,
                "end_time": 51.275,
                "pitch": 62,
                "velocity": 51,
                "duration": 0.6068182,
                "tempo": 120.0
            },
            {
                "start_time": 39.625,
                "end_time": 53.0840909,
                "pitch": 74,
                "velocity": 51,
                "duration": 13.4590909,
                "tempo": 120.0
            },
            {
                "start_time": 51.275,
                "end_time": 53.0840909,
                "pitch": 74,
                "velocity": 51,
                "duration": 1.8090909,
                "tempo": 120.0
            },
            {
                "start_time": 33.9,
                "end_time": 53.1840909,
                "pitch": 60,
                "velocity": 51,
                "duration": 19.2840909,
                "tempo": 120.0
            },
            {
                "start_time": 53.0840909,
                "end_time": 53.1840909,
                "pitch": 60,
                "velocity": 51,
                "duration": 0.1,
                "tempo": 120.0
            },
            {
                "start_time": 53.0840909,
                "end_time": 53.2863636,
                "pitch": 62,
                "velocity": 51,
                "duration": 0.2022727,
                "tempo": 120.0
            },
            {
                "start_time": 53.1840909,
                "end_time": 53.2863636,
                "pitch": 62,
                "velocity": 51,
                "duration": 0.1022727,
                "tempo": 120.0
            },
            {
                "start_time": 50.6681818,
                "end_time": 53.8886364,
                "pitch": 64,
                "velocity": 51,
                "duration": 3.2204545,
                "tempo": 120.0
            },
            {
                "start_time": 53.2863636,
                "end_time": 53.8886364,
                "pitch": 64,
                "velocity": 51,
                "duration": 0.6022727,
                "tempo": 120.0
            },
            {
                "start_time": 53.8886364,
                "end_time": 54.8886364,
                "pitch": 64,
                "velocity": 51,
                "duration": 1.0,
                "tempo": 120.0
            },
            {
                "start_time": 54.8886364,
                "end_time": 55.4931818,
                "pitch": 65,
                "velocity": 51,
                "duration": 0.6045455,
                "tempo": 120.0
            },
            {
                "start_time": 55.4931818,
                "end_time": 56.2954545,
                "pitch": 64,
                "velocity": 51,
                "duration": 0.8022727,
                "tempo": 120.0
            },
            {
                "start_time": 56.2954545,
                "end_time": 56.3931818,
                "pitch": 65,
                "velocity": 51,
                "duration": 0.0977273,
                "tempo": 120.0
            },
            {
                "start_time": 56.3931818,
                "end_time": 56.4931818,
                "pitch": 64,
                "velocity": 51,
                "duration": 0.1,
                "tempo": 120.0
            },
            {
                "start_time": 37.2204545,
                "end_time": 56.4954545,
                "pitch": 78,
                "velocity": 51,
                "duration": 19.275,
                "tempo": 120.0
            },
            {
                "start_time": 27.1681818,
                "end_time": 57.2977273,
                "pitch": 38,
                "velocity": 51,
                "duration": 30.1295455,
                "tempo": 120.0
            },
            {
                "start_time": 56.4954545,
                "end_time": 57.2977273,
                "pitch": 70,
                "velocity": 51,
                "duration": 0.8022727,
                "tempo": 120.0
            },
            {
                "start_time": 57.2977273,
                "end_time": 58.1045455,
                "pitch": 65,
                "velocity": 51,
                "duration": 0.8068182,
                "tempo": 120.0
            },
            {
                "start_time": 53.2863636,
                "end_time": 58.9090909,
                "pitch": 62,
                "velocity": 51,
                "duration": 5.6227273,
                "tempo": 120.0
            },
            {
                "start_time": 58.1045455,
                "end_time": 58.9090909,
                "pitch": 62,
                "velocity": 51,
                "duration": 0.8045455,
                "tempo": 120.0
            },
            {
                "start_time": 46.8545455,
                "end_time": 58.9090909,
                "pitch": 77,
                "velocity": 51,
                "duration": 12.0545455,
                "tempo": 120.0
            },
            {
                "start_time": 57.2977273,
                "end_time": 59.3113636,
                "pitch": 38,
                "velocity": 51,
                "duration": 2.0136364,
                "tempo": 120.0
            },
            {
                "start_time": 58.9090909,
                "end_time": 59.3113636,
                "pitch": 70,
                "velocity": 51,
                "duration": 0.4022727,
                "tempo": 120.0
            },
            {
                "start_time": 53.1840909,
                "end_time": 59.4159091,
                "pitch": 60,
                "velocity": 51,
                "duration": 6.2318182,
                "tempo": 120.0
            },
            {
                "start_time": 59.3113636,
                "end_time": 59.4159091,
                "pitch": 60,
                "velocity": 51,
                "duration": 0.1045455,
                "tempo": 120.0
            },
            {
                "start_time": 59.4159091,
                "end_time": 59.5181818,
                "pitch": 62,
                "velocity": 51,
                "duration": 0.1022727,
                "tempo": 120.0
            },
            {
                "start_time": 59.5181818,
                "end_time": 59.7181818,
                "pitch": 64,
                "velocity": 51,
                "duration": 0.2,
                "tempo": 120.0
            },
            {
                "start_time": 56.4954545,
                "end_time": 59.7181818,
                "pitch": 78,
                "velocity": 51,
                "duration": 3.2227273,
                "tempo": 120.0
            },
            {
                "start_time": 48.4590909,
                "end_time": 60.1181818,
                "pitch": 0,
                "velocity": 51,
                "duration": 11.6590909,
                "tempo": 120.0
            },
            {
                "start_time": 59.7181818,
                "end_time": 60.1181818,
                "pitch": 67,
                "velocity": 51,
                "duration": 0.4,
                "tempo": 120.0
            },
            {
                "start_time": 60.1181818,
                "end_time": 60.1681818,
                "pitch": 67,
                "velocity": 51,
                "duration": 0.05,
                "tempo": 120.0
            },
            {
                "start_time": 48.375,
                "end_time": 60.1681818,
                "pitch": 79,
                "velocity": 51,
                "duration": 11.7931818,
                "tempo": 120.0
            },
            {
                "start_time": 60.1181818,
                "end_time": 60.2522727,
                "pitch": 0,
                "velocity": 51,
                "duration": 0.1340909,
                "tempo": 120.0
            },
            {
                "start_time": 60.1681818,
                "end_time": 60.2522727,
                "pitch": 67,
                "velocity": 51,
                "duration": 0.0840909,
                "tempo": 120.0
            },
            {
                "start_time": 60.2522727,
                "end_time": 60.3022727,
                "pitch": 67,
                "velocity": 51,
                "duration": 0.05,
                "tempo": 120.0
            },
            {
                "start_time": 60.1681818,
                "end_time": 60.3022727,
                "pitch": 79,
                "velocity": 51,
                "duration": 0.1340909,
                "tempo": 120.0
            },
            {
                "start_time": 60.2522727,
                "end_time": 60.3863636,
                "pitch": 0,
                "velocity": 51,
                "duration": 0.1340909,
                "tempo": 120.0
            },
            {
                "start_time": 60.3022727,
                "end_time": 60.3863636,
                "pitch": 67,
                "velocity": 51,
                "duration": 0.0840909,
                "tempo": 120.0
            },
            {
                "start_time": 60.3863636,
                "end_time": 60.4363636,
                "pitch": 67,
                "velocity": 51,
                "duration": 0.05,
                "tempo": 120.0
            },
            {
                "start_time": 60.3022727,
                "end_time": 60.4363636,
                "pitch": 79,
                "velocity": 51,
                "duration": 0.1340909,
                "tempo": 120.0
            },
            {
                "start_time": 60.3863636,
                "end_time": 60.5204545,
                "pitch": 0,
                "velocity": 51,
                "duration": 0.1340909,
                "tempo": 120.0
            },
            {
                "start_time": 60.4363636,
                "end_time": 60.5204545,
                "pitch": 67,
                "velocity": 51,
                "duration": 0.0840909,
                "tempo": 120.0
            },
            {
                "start_time": 60.5204545,
                "end_time": 60.5704545,
                "pitch": 67,
                "velocity": 51,
                "duration": 0.05,
                "tempo": 120.0
            },
            {
                "start_time": 60.4363636,
                "end_time": 60.5704545,
                "pitch": 79,
                "velocity": 51,
                "duration": 0.1340909,
                "tempo": 120.0
            },
            {
                "start_time": 60.5204545,
                "end_time": 60.6545455,
                "pitch": 0,
                "velocity": 51,
                "duration": 0.1340909,
                "tempo": 120.0
            },
            {
                "start_time": 60.5704545,
                "end_time": 60.6545455,
                "pitch": 67,
                "velocity": 51,
                "duration": 0.0840909,
                "tempo": 120.0
            },
            {
                "start_time": 60.6545455,
                "end_time": 60.7045455,
                "pitch": 67,
                "velocity": 51,
                "duration": 0.05,
                "tempo": 120.0
            },
            {
                "start_time": 60.5704545,
                "end_time": 60.7045455,
                "pitch": 79,
                "velocity": 51,
                "duration": 0.1340909,
                "tempo": 120.0
            },
            {
                "start_time": 60.6545455,
                "end_time": 60.7886364,
                "pitch": 0,
                "velocity": 51,
                "duration": 0.1340909,
                "tempo": 120.0
            },
            {
                "start_time": 60.7045455,
                "end_time": 60.7886364,
                "pitch": 67,
                "velocity": 51,
                "duration": 0.0840909,
                "tempo": 120.0
            },
            {
                "start_time": 60.7886364,
                "end_time": 60.8386364,
                "pitch": 67,
                "velocity": 51,
                "duration": 0.05,
                "tempo": 120.0
            },
            {
                "start_time": 60.7045455,
                "end_time": 60.8386364,
                "pitch": 79,
                "velocity": 51,
                "duration": 0.1340909,
                "tempo": 120.0
            },
            {
                "start_time": 60.7886364,
                "end_time": 60.9227273,
                "pitch": 0,
                "velocity": 51,
                "duration": 0.1340909,
                "tempo": 120.0
            },
            {
                "start_time": 60.8386364,
                "end_time": 60.9227273,
                "pitch": 67,
                "velocity": 51,
                "duration": 0.0840909,
                "tempo": 120.0
            },
            {
                "start_time": 60.9227273,
                "end_time": 60.9727273,
                "pitch": 67,
                "velocity": 51,
                "duration": 0.05,
                "tempo": 120.0
            },
            {
                "start_time": 60.8386364,
                "end_time": 60.9727273,
                "pitch": 79,
                "velocity": 51,
                "duration": 0.1340909,
                "tempo": 120.0
            },
            {
                "start_time": 60.9227273,
                "end_time": 61.0545455,
                "pitch": 0,
                "velocity": 51,
                "duration": 0.1318182,
                "tempo": 120.0
            },
            {
                "start_time": 60.9727273,
                "end_time": 61.0545455,
                "pitch": 67,
                "velocity": 51,
                "duration": 0.0818182,
                "tempo": 120.0
            },
            {
                "start_time": 61.0545455,
                "end_time": 61.1045455,
                "pitch": 67,
                "velocity": 51,
                "duration": 0.05,
                "tempo": 120.0
            },
            {
                "start_time": 60.9727273,
                "end_time": 61.1045455,
                "pitch": 79,
                "velocity": 51,
                "duration": 0.1318182,
                "tempo": 120.0
            },
            {
                "start_time": 61.0545455,
                "end_time": 61.1886364,
                "pitch": 0,
                "velocity": 51,
                "duration": 0.1340909,
                "tempo": 120.0
            },
            {
                "start_time": 61.1045455,
                "end_time": 61.1886364,
                "pitch": 67,
                "velocity": 51,
                "duration": 0.0840909,
                "tempo": 120.0
            },
            {
                "start_time": 61.1886364,
                "end_time": 61.2386364,
                "pitch": 67,
                "velocity": 51,
                "duration": 0.05,
                "tempo": 120.0
            },
            {
                "start_time": 61.1045455,
                "end_time": 61.2386364,
                "pitch": 79,
                "velocity": 51,
                "duration": 0.1340909,
                "tempo": 120.0
            },
            {
                "start_time": 61.1886364,
                "end_time": 61.3227273,
                "pitch": 0,
                "velocity": 51,
                "duration": 0.1340909,
                "tempo": 120.0
            },
            {
                "start_time": 61.2386364,
                "end_time": 61.3227273,
                "pitch": 67,
                "velocity": 51,
                "duration": 0.0840909,
                "tempo": 120.0
            },
            {
                "start_time": 61.3227273,
                "end_time": 62.1227273,
                "pitch": 64,
                "velocity": 51,
                "duration": 0.8,
                "tempo": 120.0
            },
            {
                "start_time": 62.125,
                "end_time": 62.9272727,
                "pitch": 64,
                "velocity": 51,
                "duration": 0.8022727,
                "tempo": 120.0
            },
            {
                "start_time": 58.1045455,
                "end_time": 63.5272727,
                "pitch": 65,
                "velocity": 51,
                "duration": 5.4227273,
                "tempo": 120.0
            },
            {
                "start_time": 62.9272727,
                "end_time": 63.5272727,
                "pitch": 65,
                "velocity": 51,
                "duration": 0.6,
                "tempo": 120.0
            },
            {
                "start_time": 63.5295455,
                "end_time": 64.1295455,
                "pitch": 62,
                "velocity": 51,
                "duration": 0.6,
                "tempo": 120.0
            },
            {
                "start_time": 64.1295455,
                "end_time": 65.9409091,
                "pitch": 74,
                "velocity": 51,
                "duration": 1.8113636,
                "tempo": 120.0
            },
            {
                "start_time": 65.9409091,
                "end_time": 66.0409091,
                "pitch": 60,
                "velocity": 51,
                "duration": 0.1,
                "tempo": 120.0
            },
            {
                "start_time": 65.9409091,
                "end_time": 66.1454545,
                "pitch": 62,
                "velocity": 51,
                "duration": 0.2045455,
                "tempo": 120.0
            },
            {
                "start_time": 66.0431818,
                "end_time": 66.1454545,
                "pitch": 62,
                "velocity": 51,
                "duration": 0.1022727,
                "tempo": 120.0
            },
            {
                "start_time": 63.5295455,
                "end_time": 66.7522727,
                "pitch": 64,
                "velocity": 51,
                "duration": 3.2227273,
                "tempo": 120.0
            },
            {
                "start_time": 66.1454545,
                "end_time": 66.7522727,
                "pitch": 64,
                "velocity": 51,
                "duration": 0.6068182,
                "tempo": 120.0
            },
            {
                "start_time": 66.7522727,
                "end_time": 67.7590909,
                "pitch": 64,
                "velocity": 51,
                "duration": 1.0068182,
                "tempo": 120.0
            },
            {
                "start_time": 67.7590909,
                "end_time": 68.3613636,
                "pitch": 65,
                "velocity": 51,
                "duration": 0.6022727,
                "tempo": 120.0
            },
            {
                "start_time": 68.3636364,
                "end_time": 69.1659091,
                "pitch": 64,
                "velocity": 51,
                "duration": 0.8022727,
                "tempo": 120.0
            },
            {
                "start_time": 69.1659091,
                "end_time": 69.2659091,
                "pitch": 65,
                "velocity": 51,
                "duration": 0.1,
                "tempo": 120.0
            },
            {
                "start_time": 69.2659091,
                "end_time": 69.3681818,
                "pitch": 64,
                "velocity": 51,
                "duration": 0.1022727,
                "tempo": 120.0
            },
            {
                "start_time": 59.7181818,
                "end_time": 69.3681818,
                "pitch": 78,
                "velocity": 51,
                "duration": 9.65,
                "tempo": 120.0
            },
            {
                "start_time": 69.3681818,
                "end_time": 70.1704545,
                "pitch": 70,
                "velocity": 51,
                "duration": 0.8022727,
                "tempo": 120.0
            },
            {
                "start_time": 38.0204545,
                "end_time": 70.1727273,
                "pitch": 50,
                "velocity": 51,
                "duration": 32.1522727,
                "tempo": 120.0
            },
            {
                "start_time": 70.1704545,
                "end_time": 70.1727273,
                "pitch": 50,
                "velocity": 51,
                "duration": 0.0022727,
                "tempo": 120.0
            },
            {
                "start_time": 38.825,
                "end_time": 70.975,
                "pitch": 72,
                "velocity": 51,
                "duration": 32.15,
                "tempo": 120.0
            },
            {
                "start_time": 70.1727273,
                "end_time": 70.975,
                "pitch": 72,
                "velocity": 51,
                "duration": 0.8022727,
                "tempo": 120.0
            },
            {
                "start_time": 70.975,
                "end_time": 71.7795455,
                "pitch": 74,
                "velocity": 51,
                "duration": 0.8045455,
                "tempo": 120.0
            },
            {
                "start_time": 71.7795455,
                "end_time": 72.0818182,
                "pitch": 74,
                "velocity": 51,
                "duration": 0.3022727,
                "tempo": 120.0
            },
            {
                "start_time": 72.0818182,
                "end_time": 72.3840909,
                "pitch": 74,
                "velocity": 51,
                "duration": 0.3022727,
                "tempo": 120.0
            },
            {
                "start_time": 58.9090909,
                "end_time": 72.5886364,
                "pitch": 77,
                "velocity": 51,
                "duration": 13.6795455,
                "tempo": 120.0
            },
            {
                "start_time": 72.3840909,
                "end_time": 72.5886364,
                "pitch": 77,
                "velocity": 51,
                "duration": 0.2045455,
                "tempo": 120.0
            },
            {
                "start_time": 61.3227273,
                "end_time": 72.9909091,
                "pitch": 0,
                "velocity": 51,
                "duration": 11.6681818,
                "tempo": 120.0
            },
            {
                "start_time": 61.2386364,
                "end_time": 72.9909091,
                "pitch": 79,
                "velocity": 51,
                "duration": 11.7522727,
                "tempo": 120.0
            },
            {
                "start_time": 72.5886364,
                "end_time": 72.9909091,
                "pitch": 79,
                "velocity": 51,
                "duration": 0.4022727,
                "tempo": 120.0
            },
            {
                "start_time": 72.9909091,
                "end_time": 73.0409091,
                "pitch": 79,
                "velocity": 51,
                "duration": 0.05,
                "tempo": 120.0
            },
            {
                "start_time": 72.9909091,
                "end_time": 73.1227273,
                "pitch": 0,
                "velocity": 51,
                "duration": 0.1318182,
                "tempo": 120.0
            },
            {
                "start_time": 73.0409091,
                "end_time": 73.1227273,
                "pitch": 79,
                "velocity": 51,
                "duration": 0.0818182,
                "tempo": 120.0
            },
            {
                "start_time": 73.1227273,
                "end_time": 73.1704545,
                "pitch": 79,
                "velocity": 51,
                "duration": 0.0477273,
                "tempo": 120.0
            },
            {
                "start_time": 73.0409091,
                "end_time": 73.1704545,
                "pitch": 91,
                "velocity": 51,
                "duration": 0.1295455,
                "tempo": 120.0
            },
            {
                "start_time": 73.1227273,
                "end_time": 73.1886364,
                "pitch": 0,
                "velocity": 51,
                "duration": 0.0659091,
                "tempo": 120.0
            },
            {
                "start_time": 73.1704545,
                "end_time": 73.1886364,
                "pitch": 79,
                "velocity": 51,
                "duration": 0.0181818,
                "tempo": 120.0
            },
            {
                "start_time": 73.1886364,
                "end_time": 73.8,
                "pitch": 74,
                "velocity": 51,
                "duration": 0.6113636,
                "tempo": 120.0
            },
            {
                "start_time": 43.6454545,
                "end_time": 75.6113636,
                "pitch": 86,
                "velocity": 51,
                "duration": 31.9659091,
                "tempo": 120.0
            },
            {
                "start_time": 73.8,
                "end_time": 75.6113636,
                "pitch": 86,
                "velocity": 51,
                "duration": 1.8113636,
                "tempo": 120.0
            },
            {
                "start_time": 43.5454545,
                "end_time": 75.7090909,
                "pitch": 84,
                "velocity": 51,
                "duration": 32.1636364,
                "tempo": 120.0
            },
            {
                "start_time": 75.6113636,
                "end_time": 75.7090909,
                "pitch": 84,
                "velocity": 51,
                "duration": 0.0977273,
                "tempo": 120.0
            },
            {
                "start_time": 75.6113636,
                "end_time": 75.8113636,
                "pitch": 86,
                "velocity": 51,
                "duration": 0.2,
                "tempo": 120.0
            },
            {
                "start_time": 75.7113636,
                "end_time": 75.8113636,
                "pitch": 86,
                "velocity": 51,
                "duration": 0.1,
                "tempo": 120.0
            },
            {
                "start_time": 73.1886364,
                "end_time": 76.2136364,
                "pitch": 0,
                "velocity": 51,
                "duration": 3.025,
                "tempo": 120.0
            },
            {
                "start_time": 75.8113636,
                "end_time": 76.2136364,
                "pitch": 79,
                "velocity": 51,
                "duration": 0.4022727,
                "tempo": 120.0
            },
            {
                "start_time": 76.2136364,
                "end_time": 76.2636364,
                "pitch": 79,
                "velocity": 51,
                "duration": 0.05,
                "tempo": 120.0
            },
            {
                "start_time": 73.1704545,
                "end_time": 76.2636364,
                "pitch": 91,
                "velocity": 51,
                "duration": 3.0931818,
                "tempo": 120.0
            },
            {
                "start_time": 76.2136364,
                "end_time": 76.3454545,
                "pitch": 0,
                "velocity": 51,
                "duration": 0.1318182,
                "tempo": 120.0
            },
            {
                "start_time": 76.2636364,
                "end_time": 76.3454545,
                "pitch": 79,
                "velocity": 51,
                "duration": 0.0818182,
                "tempo": 120.0
            },
            {
                "start_time": 76.3454545,
                "end_time": 76.3954545,
                "pitch": 79,
                "velocity": 51,
                "duration": 0.05,
                "tempo": 120.0
            },
            {
                "start_time": 76.2636364,
                "end_time": 76.3954545,
                "pitch": 91,
                "velocity": 51,
                "duration": 0.1318182,
                "tempo": 120.0
            },
            {
                "start_time": 76.3454545,
                "end_time": 76.4136364,
                "pitch": 0,
                "velocity": 51,
                "duration": 0.0681818,
                "tempo": 120.0
            },
            {
                "start_time": 76.3954545,
                "end_time": 76.4136364,
                "pitch": 79,
                "velocity": 51,
                "duration": 0.0181818,
                "tempo": 120.0
            },
            {
                "start_time": 76.4136364,
                "end_time": 77.0181818,
                "pitch": 74,
                "velocity": 51,
                "duration": 0.6045455,
                "tempo": 120.0
            },
            {
                "start_time": 77.0181818,
                "end_time": 78.8272727,
                "pitch": 86,
                "velocity": 51,
                "duration": 1.8090909,
                "tempo": 120.0
            },
            {
                "start_time": 75.7113636,
                "end_time": 78.9295455,
                "pitch": 84,
                "velocity": 51,
                "duration": 3.2181818,
                "tempo": 120.0
            },
            {
                "start_time": 78.8295455,
                "end_time": 78.9295455,
                "pitch": 84,
                "velocity": 51,
                "duration": 0.1,
                "tempo": 120.0
            },
            {
                "start_time": 78.8295455,
                "end_time": 79.0340909,
                "pitch": 86,
                "velocity": 51,
                "duration": 0.2045455,
                "tempo": 120.0
            },
            {
                "start_time": 78.9295455,
                "end_time": 79.0340909,
                "pitch": 86,
                "velocity": 51,
                "duration": 0.1045455,
                "tempo": 120.0
            },
            {
                "start_time": 75.8113636,
                "end_time": 79.0340909,
                "pitch": 89,
                "velocity": 51,
                "duration": 3.2227273,
                "tempo": 120.0
            },
            {
                "start_time": 76.4136364,
                "end_time": 79.4363636,
                "pitch": 0,
                "velocity": 51,
                "duration": 3.0227273,
                "tempo": 120.0
            },
            {
                "start_time": 79.0340909,
                "end_time": 79.4363636,
                "pitch": 79,
                "velocity": 51,
                "duration": 0.4022727,
                "tempo": 120.0
            },
            {
                "start_time": 79.4363636,
                "end_time": 79.4840909,
                "pitch": 79,
                "velocity": 51,
                "duration": 0.0477273,
                "tempo": 120.0
            },
            {
                "start_time": 76.3954545,
                "end_time": 79.4840909,
                "pitch": 91,
                "velocity": 51,
                "duration": 3.0886364,
                "tempo": 120.0
            },
            {
                "start_time": 79.4363636,
                "end_time": 79.5659091,
                "pitch": 0,
                "velocity": 51,
                "duration": 0.1295455,
                "tempo": 120.0
            },
            {
                "start_time": 79.4840909,
                "end_time": 79.5659091,
                "pitch": 79,
                "velocity": 51,
                "duration": 0.0818182,
                "tempo": 120.0
            },
            {
                "start_time": 79.5659091,
                "end_time": 79.6136364,
                "pitch": 79,
                "velocity": 51,
                "duration": 0.0477273,
                "tempo": 120.0
            },
            {
                "start_time": 79.4840909,
                "end_time": 79.6136364,
                "pitch": 91,
                "velocity": 51,
                "duration": 0.1295455,
                "tempo": 120.0
            },
            {
                "start_time": 79.5659091,
                "end_time": 79.6318182,
                "pitch": 0,
                "velocity": 51,
                "duration": 0.0659091,
                "tempo": 120.0
            },
            {
                "start_time": 79.6136364,
                "end_time": 79.6318182,
                "pitch": 79,
                "velocity": 51,
                "duration": 0.0181818,
                "tempo": 120.0
            },
            {
                "start_time": 79.6318182,
                "end_time": 80.2340909,
                "pitch": 74,
                "velocity": 51,
                "duration": 0.6022727,
                "tempo": 120.0
            },
            {
                "start_time": 80.2363636,
                "end_time": 82.0522727,
                "pitch": 86,
                "velocity": 51,
                "duration": 1.8159091,
                "tempo": 120.0
            },
            {
                "start_time": 78.9295455,
                "end_time": 82.1522727,
                "pitch": 84,
                "velocity": 51,
                "duration": 3.2227273,
                "tempo": 120.0
            },
            {
                "start_time": 82.0522727,
                "end_time": 82.1522727,
                "pitch": 84,
                "velocity": 51,
                "duration": 0.1,
                "tempo": 120.0
            },
            {
                "start_time": 82.0522727,
                "end_time": 82.2522727,
                "pitch": 86,
                "velocity": 51,
                "duration": 0.2,
                "tempo": 120.0
            },
            {
                "start_time": 82.1522727,
                "end_time": 82.2522727,
                "pitch": 86,
                "velocity": 51,
                "duration": 0.1,
                "tempo": 120.0
            },
            {
                "start_time": 79.0340909,
                "end_time": 82.2522727,
                "pitch": 89,
                "velocity": 51,
                "duration": 3.2181818,
                "tempo": 120.0
            },
            {
                "start_time": 82.2522727,
                "end_time": 83.0590909,
                "pitch": 80,
                "velocity": 51,
                "duration": 0.8068182,
                "tempo": 120.0
            },
            {
                "start_time": 83.2590909,
                "end_time": 83.4590909,
                "pitch": 80,
                "velocity": 51,
                "duration": 0.2,
                "tempo": 120.0
            },
            {
                "start_time": 66.1454545,
                "end_time": 83.6613636,
                "pitch": 62,
                "velocity": 51,
                "duration": 17.5159091,
                "tempo": 120.0
            },
            {
                "start_time": 83.4613636,
                "end_time": 83.6613636,
                "pitch": 80,
                "velocity": 51,
                "duration": 0.2,
                "tempo": 120.0
            },
            {
                "start_time": 82.1522727,
                "end_time": 83.8613636,
                "pitch": 84,
                "velocity": 51,
                "duration": 1.7090909,
                "tempo": 120.0
            },
            {
                "start_time": 83.6613636,
                "end_time": 83.8613636,
                "pitch": 84,
                "velocity": 51,
                "duration": 0.2,
                "tempo": 120.0
            },
            {
                "start_time": 82.2522727,
                "end_time": 84.4659091,
                "pitch": 89,
                "velocity": 51,
                "duration": 2.2136364,
                "tempo": 120.0
            },
            {
                "start_time": 83.8613636,
                "end_time": 84.4659091,
                "pitch": 89,
                "velocity": 51,
                "duration": 0.6045455,
                "tempo": 120.0
            },
            {
                "start_time": 84.4659091,
                "end_time": 84.6659091,
                "pitch": 86,
                "velocity": 51,
                "duration": 0.2,
                "tempo": 120.0
            },
            {
                "start_time": 84.6659091,
                "end_time": 84.9681818,
                "pitch": 86,
                "velocity": 51,
                "duration": 0.3022727,
                "tempo": 120.0
            },
            {
                "start_time": 84.4659091,
                "end_time": 85.2704545,
                "pitch": 89,
                "velocity": 51,
                "duration": 0.8045455,
                "tempo": 120.0
            },
            {
                "start_time": 84.9681818,
                "end_time": 85.2704545,
                "pitch": 89,
                "velocity": 51,
                "duration": 0.3022727,
                "tempo": 120.0
            }
        ],
        "Acoustic Bass": [
            {
                "start_time": 0.0045455,
                "end_time": 0.1681818,
                "pitch": 31,
                "velocity": 51,
                "duration": 0.1636364,
                "tempo": 120.0
            },
            {
                "start_time": 0.2022727,
                "end_time": 0.3681818,
                "pitch": 31,
                "velocity": 51,
                "duration": 0.1659091,
                "tempo": 120.0
            },
            {
                "start_time": 0.4022727,
                "end_time": 0.5727273,
                "pitch": 31,
                "velocity": 51,
                "duration": 0.1704545,
                "tempo": 120.0
            },
            {
                "start_time": 0.6068182,
                "end_time": 0.7772727,
                "pitch": 31,
                "velocity": 51,
                "duration": 0.1704545,
                "tempo": 120.0
            },
            {
                "start_time": 0.8136364,
                "end_time": 0.975,
                "pitch": 31,
                "velocity": 51,
                "duration": 0.1613636,
                "tempo": 120.0
            },
            {
                "start_time": 1.0090909,
                "end_time": 1.1727273,
                "pitch": 31,
                "velocity": 51,
                "duration": 0.1636364,
                "tempo": 120.0
            },
            {
                "start_time": 1.2068182,
                "end_time": 1.2727273,
                "pitch": 31,
                "velocity": 51,
                "duration": 0.0659091,
                "tempo": 120.0
            },
            {
                "start_time": 1.3068182,
                "end_time": 1.3727273,
                "pitch": 35,
                "velocity": 51,
                "duration": 0.0659091,
                "tempo": 120.0
            },
            {
                "start_time": 1.4068182,
                "end_time": 1.4727273,
                "pitch": 36,
                "velocity": 51,
                "duration": 0.0659091,
                "tempo": 120.0
            },
            {
                "start_time": 1.5068182,
                "end_time": 1.5727273,
                "pitch": 38,
                "velocity": 51,
                "duration": 0.0659091,
                "tempo": 120.0
            },
            {
                "start_time": 1.5068182,
                "end_time": 1.7772727,
                "pitch": 36,
                "velocity": 51,
                "duration": 0.2704545,
                "tempo": 120.0
            },
            {
                "start_time": 1.6068182,
                "end_time": 1.7772727,
                "pitch": 36,
                "velocity": 51,
                "duration": 0.1704545,
                "tempo": 120.0
            },
            {
                "start_time": 1.8113636,
                "end_time": 1.9818182,
                "pitch": 36,
                "velocity": 51,
                "duration": 0.1704545,
                "tempo": 120.0
            },
            {
                "start_time": 2.0181818,
                "end_time": 2.1840909,
                "pitch": 36,
                "velocity": 51,
                "duration": 0.1659091,
                "tempo": 120.0
            },
            {
                "start_time": 2.2181818,
                "end_time": 2.3840909,
                "pitch": 36,
                "velocity": 51,
                "duration": 0.1659091,
                "tempo": 120.0
            },
            {
                "start_time": 2.4181818,
                "end_time": 2.5863636,
                "pitch": 36,
                "velocity": 51,
                "duration": 0.1681818,
                "tempo": 120.0
            },
            {
                "start_time": 2.6204545,
                "end_time": 2.7863636,
                "pitch": 36,
                "velocity": 51,
                "duration": 0.1659091,
                "tempo": 120.0
            },
            {
                "start_time": 2.8204545,
                "end_time": 2.9886364,
                "pitch": 36,
                "velocity": 51,
                "duration": 0.1681818,
                "tempo": 120.0
            },
            {
                "start_time": 3.0204545,
                "end_time": 3.1886364,
                "pitch": 36,
                "velocity": 51,
                "duration": 0.1681818,
                "tempo": 120.0
            },
            {
                "start_time": 3.2227273,
                "end_time": 3.3886364,
                "pitch": 36,
                "velocity": 51,
                "duration": 0.1659091,
                "tempo": 120.0
            },
            {
                "start_time": 3.4227273,
                "end_time": 3.5886364,
                "pitch": 36,
                "velocity": 51,
                "duration": 0.1659091,
                "tempo": 120.0
            },
            {
                "start_time": 3.6227273,
                "end_time": 3.7886364,
                "pitch": 36,
                "velocity": 51,
                "duration": 0.1659091,
                "tempo": 120.0
            },
            {
                "start_time": 3.8227273,
                "end_time": 3.9886364,
                "pitch": 36,
                "velocity": 51,
                "duration": 0.1659091,
                "tempo": 120.0
            },
            {
                "start_time": 4.0227273,
                "end_time": 4.1886364,
                "pitch": 36,
                "velocity": 51,
                "duration": 0.1659091,
                "tempo": 120.0
            },
            {
                "start_time": 4.2227273,
                "end_time": 4.3886364,
                "pitch": 36,
                "velocity": 51,
                "duration": 0.1659091,
                "tempo": 120.0
            },
            {
                "start_time": 4.4227273,
                "end_time": 4.5909091,
                "pitch": 36,
                "velocity": 51,
                "duration": 0.1681818,
                "tempo": 120.0
            },
            {
                "start_time": 4.625,
                "end_time": 4.7931818,
                "pitch": 36,
                "velocity": 51,
                "duration": 0.1681818,
                "tempo": 120.0
            },
            {
                "start_time": 4.8272727,
                "end_time": 4.9931818,
                "pitch": 36,
                "velocity": 51,
                "duration": 0.1659091,
                "tempo": 120.0
            },
            {
                "start_time": 5.0272727,
                "end_time": 5.1931818,
                "pitch": 36,
                "velocity": 51,
                "duration": 0.1659091,
                "tempo": 120.0
            },
            {
                "start_time": 5.2272727,
                "end_time": 5.3954545,
                "pitch": 36,
                "velocity": 51,
                "duration": 0.1681818,
                "tempo": 120.0
            },
            {
                "start_time": 5.4295455,
                "end_time": 5.5954545,
                "pitch": 36,
                "velocity": 51,
                "duration": 0.1659091,
                "tempo": 120.0
            },
            {
                "start_time": 5.6295455,
                "end_time": 5.8022727,
                "pitch": 36,
                "velocity": 51,
                "duration": 0.1727273,
                "tempo": 120.0
            },
            {
                "start_time": 5.8363636,
                "end_time": 6.0068182,
                "pitch": 36,
                "velocity": 51,
                "duration": 0.1704545,
                "tempo": 120.0
            },
            {
                "start_time": 6.0409091,
                "end_time": 6.2090909,
                "pitch": 36,
                "velocity": 51,
                "duration": 0.1681818,
                "tempo": 120.0
            },
            {
                "start_time": 6.2431818,
                "end_time": 6.4090909,
                "pitch": 36,
                "velocity": 51,
                "duration": 0.1659091,
                "tempo": 120.0
            },
            {
                "start_time": 6.4431818,
                "end_time": 6.6090909,
                "pitch": 36,
                "velocity": 51,
                "duration": 0.1659091,
                "tempo": 120.0
            },
            {
                "start_time": 6.6431818,
                "end_time": 6.8113636,
                "pitch": 36,
                "velocity": 51,
                "duration": 0.1681818,
                "tempo": 120.0
            },
            {
                "start_time": 6.8454545,
                "end_time": 7.0136364,
                "pitch": 36,
                "velocity": 51,
                "duration": 0.1681818,
                "tempo": 120.0
            },
            {
                "start_time": 7.0477273,
                "end_time": 7.2159091,
                "pitch": 36,
                "velocity": 51,
                "duration": 0.1681818,
                "tempo": 120.0
            },
            {
                "start_time": 7.25,
                "end_time": 7.4159091,
                "pitch": 36,
                "velocity": 51,
                "duration": 0.1659091,
                "tempo": 120.0
            },
            {
                "start_time": 7.45,
                "end_time": 7.6159091,
                "pitch": 36,
                "velocity": 51,
                "duration": 0.1659091,
                "tempo": 120.0
            },
            {
                "start_time": 7.65,
                "end_time": 7.8181818,
                "pitch": 36,
                "velocity": 51,
                "duration": 0.1681818,
                "tempo": 120.0
            },
            {
                "start_time": 7.85,
                "end_time": 7.9181818,
                "pitch": 36,
                "velocity": 51,
                "duration": 0.0681818,
                "tempo": 120.0
            },
            {
                "start_time": 7.9522727,
                "end_time": 8.0181818,
                "pitch": 36,
                "velocity": 51,
                "duration": 0.0659091,
                "tempo": 120.0
            },
            {
                "start_time": 8.0522727,
                "end_time": 8.2181818,
                "pitch": 36,
                "velocity": 51,
                "duration": 0.1659091,
                "tempo": 120.0
            },
            {
                "start_time": 8.2522727,
                "end_time": 8.4204545,
                "pitch": 36,
                "velocity": 51,
                "duration": 0.1681818,
                "tempo": 120.0
            },
            {
                "start_time": 8.4522727,
                "end_time": 8.6204545,
                "pitch": 36,
                "velocity": 51,
                "duration": 0.1681818,
                "tempo": 120.0
            },
            {
                "start_time": 8.6545455,
                "end_time": 8.8227273,
                "pitch": 36,
                "velocity": 51,
                "duration": 0.1681818,
                "tempo": 120.0
            },
            {
                "start_time": 8.8568182,
                "end_time": 9.025,
                "pitch": 36,
                "velocity": 51,
                "duration": 0.1681818,
                "tempo": 120.0
            },
            {
                "start_time": 9.0590909,
                "end_time": 9.225,
                "pitch": 36,
                "velocity": 51,
                "duration": 0.1659091,
                "tempo": 120.0
            },
            {
                "start_time": 9.2590909,
                "end_time": 9.4272727,
                "pitch": 36,
                "velocity": 51,
                "duration": 0.1681818,
                "tempo": 120.0
            },
            {
                "start_time": 9.4613636,
                "end_time": 9.6295455,
                "pitch": 36,
                "velocity": 51,
                "duration": 0.1681818,
                "tempo": 120.0
            },
            {
                "start_time": 9.6636364,
                "end_time": 9.8295455,
                "pitch": 36,
                "velocity": 51,
                "duration": 0.1659091,
                "tempo": 120.0
            },
            {
                "start_time": 9.8636364,
                "end_time": 10.0295455,
                "pitch": 36,
                "velocity": 51,
                "duration": 0.1659091,
                "tempo": 120.0
            },
            {
                "start_time": 10.0636364,
                "end_time": 10.2318182,
                "pitch": 36,
                "velocity": 51,
                "duration": 0.1681818,
                "tempo": 120.0
            },
            {
                "start_time": 10.2659091,
                "end_time": 10.4318182,
                "pitch": 36,
                "velocity": 51,
                "duration": 0.1659091,
                "tempo": 120.0
            },
            {
                "start_time": 10.4659091,
                "end_time": 10.6340909,
                "pitch": 36,
                "velocity": 51,
                "duration": 0.1681818,
                "tempo": 120.0
            },
            {
                "start_time": 10.6681818,
                "end_time": 10.8363636,
                "pitch": 36,
                "velocity": 51,
                "duration": 0.1681818,
                "tempo": 120.0
            },
            {
                "start_time": 10.8704545,
                "end_time": 11.0386364,
                "pitch": 36,
                "velocity": 51,
                "duration": 0.1681818,
                "tempo": 120.0
            },
            {
                "start_time": 11.0727273,
                "end_time": 11.2386364,
                "pitch": 36,
                "velocity": 51,
                "duration": 0.1659091,
                "tempo": 120.0
            },
            {
                "start_time": 11.2727273,
                "end_time": 11.4409091,
                "pitch": 36,
                "velocity": 51,
                "duration": 0.1681818,
                "tempo": 120.0
            },
            {
                "start_time": 11.475,
                "end_time": 11.6431818,
                "pitch": 36,
                "velocity": 51,
                "duration": 0.1681818,
                "tempo": 120.0
            },
            {
                "start_time": 11.6772727,
                "end_time": 11.8431818,
                "pitch": 36,
                "velocity": 51,
                "duration": 0.1659091,
                "tempo": 120.0
            },
            {
                "start_time": 11.8772727,
                "end_time": 12.0431818,
                "pitch": 36,
                "velocity": 51,
                "duration": 0.1659091,
                "tempo": 120.0
            },
            {
                "start_time": 12.0772727,
                "end_time": 12.2454545,
                "pitch": 36,
                "velocity": 51,
                "duration": 0.1681818,
                "tempo": 120.0
            },
            {
                "start_time": 12.2795455,
                "end_time": 12.4454545,
                "pitch": 36,
                "velocity": 51,
                "duration": 0.1659091,
                "tempo": 120.0
            },
            {
                "start_time": 12.4795455,
                "end_time": 12.6477273,
                "pitch": 36,
                "velocity": 51,
                "duration": 0.1681818,
                "tempo": 120.0
            },
            {
                "start_time": 12.6818182,
                "end_time": 12.85,
                "pitch": 36,
                "velocity": 51,
                "duration": 0.1681818,
                "tempo": 120.0
            },
            {
                "start_time": 12.8840909,
                "end_time": 13.05,
                "pitch": 36,
                "velocity": 51,
                "duration": 0.1659091,
                "tempo": 120.0
            },
            {
                "start_time": 13.0840909,
                "end_time": 13.2522727,
                "pitch": 36,
                "velocity": 51,
                "duration": 0.1681818,
                "tempo": 120.0
            },
            {
                "start_time": 13.2863636,
                "end_time": 13.4568182,
                "pitch": 36,
                "velocity": 51,
                "duration": 0.1704545,
                "tempo": 120.0
            },
            {
                "start_time": 13.4931818,
                "end_time": 13.6636364,
                "pitch": 36,
                "velocity": 51,
                "duration": 0.1704545,
                "tempo": 120.0
            },
            {
                "start_time": 13.6977273,
                "end_time": 13.8613636,
                "pitch": 36,
                "velocity": 51,
                "duration": 0.1636364,
                "tempo": 120.0
            },
            {
                "start_time": 13.8931818,
                "end_time": 14.0568182,
                "pitch": 36,
                "velocity": 51,
                "duration": 0.1636364,
                "tempo": 120.0
            },
            {
                "start_time": 14.0909091,
                "end_time": 14.1590909,
                "pitch": 36,
                "velocity": 51,
                "duration": 0.0681818,
                "tempo": 120.0
            },
            {
                "start_time": 14.1931818,
                "end_time": 14.2613636,
                "pitch": 41,
                "velocity": 51,
                "duration": 0.0681818,
                "tempo": 120.0
            },
            {
                "start_time": 14.2954545,
                "end_time": 14.3636364,
                "pitch": 43,
                "velocity": 51,
                "duration": 0.0681818,
                "tempo": 120.0
            },
            {
                "start_time": 14.3977273,
                "end_time": 14.4681818,
                "pitch": 48,
                "velocity": 51,
                "duration": 0.0704545,
                "tempo": 120.0
            },
            {
                "start_time": 14.1931818,
                "end_time": 14.6636364,
                "pitch": 36,
                "velocity": 51,
                "duration": 0.4704545,
                "tempo": 120.0
            },
            {
                "start_time": 14.5022727,
                "end_time": 14.6636364,
                "pitch": 36,
                "velocity": 51,
                "duration": 0.1613636,
                "tempo": 120.0
            },
            {
                "start_time": 14.6977273,
                "end_time": 14.8613636,
                "pitch": 36,
                "velocity": 51,
                "duration": 0.1636364,
                "tempo": 120.0
            },
            {
                "start_time": 14.8954545,
                "end_time": 15.0659091,
                "pitch": 36,
                "velocity": 51,
                "duration": 0.1704545,
                "tempo": 120.0
            },
            {
                "start_time": 15.1,
                "end_time": 15.2704545,
                "pitch": 36,
                "velocity": 51,
                "duration": 0.1704545,
                "tempo": 120.0
            },
            {
                "start_time": 15.3045455,
                "end_time": 15.4727273,
                "pitch": 36,
                "velocity": 51,
                "duration": 0.1681818,
                "tempo": 120.0
            },
            {
                "start_time": 15.5068182,
                "end_time": 15.675,
                "pitch": 36,
                "velocity": 51,
                "duration": 0.1681818,
                "tempo": 120.0
            },
            {
                "start_time": 15.7090909,
                "end_time": 15.8772727,
                "pitch": 36,
                "velocity": 51,
                "duration": 0.1681818,
                "tempo": 120.0
            },
            {
                "start_time": 15.9113636,
                "end_time": 16.0772727,
                "pitch": 36,
                "velocity": 51,
                "duration": 0.1659091,
                "tempo": 120.0
            },
            {
                "start_time": 16.1113636,
                "end_time": 16.2795455,
                "pitch": 36,
                "velocity": 51,
                "duration": 0.1681818,
                "tempo": 120.0
            },
            {
                "start_time": 16.3136364,
                "end_time": 16.4818182,
                "pitch": 36,
                "velocity": 51,
                "duration": 0.1681818,
                "tempo": 120.0
            },
            {
                "start_time": 16.5159091,
                "end_time": 16.6818182,
                "pitch": 36,
                "velocity": 51,
                "duration": 0.1659091,
                "tempo": 120.0
            },
            {
                "start_time": 16.7159091,
                "end_time": 16.8818182,
                "pitch": 36,
                "velocity": 51,
                "duration": 0.1659091,
                "tempo": 120.0
            },
            {
                "start_time": 16.9159091,
                "end_time": 17.0818182,
                "pitch": 36,
                "velocity": 51,
                "duration": 0.1659091,
                "tempo": 120.0
            },
            {
                "start_time": 17.1159091,
                "end_time": 17.2818182,
                "pitch": 36,
                "velocity": 51,
                "duration": 0.1659091,
                "tempo": 120.0
            },
            {
                "start_time": 17.3159091,
                "end_time": 17.4840909,
                "pitch": 36,
                "velocity": 51,
                "duration": 0.1681818,
                "tempo": 120.0
            },
            {
                "start_time": 17.5181818,
                "end_time": 17.5840909,
                "pitch": 36,
                "velocity": 51,
                "duration": 0.0659091,
                "tempo": 120.0
            },
            {
                "start_time": 17.6181818,
                "end_time": 17.6863636,
                "pitch": 36,
                "velocity": 51,
                "duration": 0.0681818,
                "tempo": 120.0
            },
            {
                "start_time": 17.7204545,
                "end_time": 17.8863636,
                "pitch": 34,
                "velocity": 51,
                "duration": 0.1659091,
                "tempo": 120.0
            },
            {
                "start_time": 17.9204545,
                "end_time": 18.0863636,
                "pitch": 34,
                "velocity": 51,
                "duration": 0.1659091,
                "tempo": 120.0
            },
            {
                "start_time": 18.1204545,
                "end_time": 18.2886364,
                "pitch": 34,
                "velocity": 51,
                "duration": 0.1681818,
                "tempo": 120.0
            },
            {
                "start_time": 18.3227273,
                "end_time": 18.4886364,
                "pitch": 34,
                "velocity": 51,
                "duration": 0.1659091,
                "tempo": 120.0
            },
            {
                "start_time": 18.5227273,
                "end_time": 18.6909091,
                "pitch": 34,
                "velocity": 51,
                "duration": 0.1681818,
                "tempo": 120.0
            },
            {
                "start_time": 18.7227273,
                "end_time": 18.8909091,
                "pitch": 34,
                "velocity": 51,
                "duration": 0.1681818,
                "tempo": 120.0
            },
            {
                "start_time": 18.925,
                "end_time": 19.0909091,
                "pitch": 34,
                "velocity": 51,
                "duration": 0.1659091,
                "tempo": 120.0
            },
            {
                "start_time": 19.125,
                "end_time": 19.2909091,
                "pitch": 34,
                "velocity": 51,
                "duration": 0.1659091,
                "tempo": 120.0
            },
            {
                "start_time": 19.325,
                "end_time": 19.4931818,
                "pitch": 34,
                "velocity": 51,
                "duration": 0.1681818,
                "tempo": 120.0
            },
            {
                "start_time": 19.5272727,
                "end_time": 19.6931818,
                "pitch": 34,
                "velocity": 51,
                "duration": 0.1659091,
                "tempo": 120.0
            },
            {
                "start_time": 19.7272727,
                "end_time": 19.8954545,
                "pitch": 34,
                "velocity": 51,
                "duration": 0.1681818,
                "tempo": 120.0
            },
            {
                "start_time": 19.9272727,
                "end_time": 20.0954545,
                "pitch": 34,
                "velocity": 51,
                "duration": 0.1681818,
                "tempo": 120.0
            },
            {
                "start_time": 20.1295455,
                "end_time": 20.2954545,
                "pitch": 34,
                "velocity": 51,
                "duration": 0.1659091,
                "tempo": 120.0
            },
            {
                "start_time": 20.3295455,
                "end_time": 20.4977273,
                "pitch": 34,
                "velocity": 51,
                "duration": 0.1681818,
                "tempo": 120.0
            },
            {
                "start_time": 20.5318182,
                "end_time": 20.5977273,
                "pitch": 34,
                "velocity": 51,
                "duration": 0.0659091,
                "tempo": 120.0
            },
            {
                "start_time": 1.6068182,
                "end_time": 20.6977273,
                "pitch": 38,
                "velocity": 51,
                "duration": 19.0909091,
                "tempo": 120.0
            },
            {
                "start_time": 20.6318182,
                "end_time": 20.6977273,
                "pitch": 38,
                "velocity": 51,
                "duration": 0.0659091,
                "tempo": 120.0
            },
            {
                "start_time": 20.7318182,
                "end_time": 20.7977273,
                "pitch": 41,
                "velocity": 51,
                "duration": 0.0659091,
                "tempo": 120.0
            },
            {
                "start_time": 14.2954545,
                "end_time": 20.8318182,
                "pitch": 54,
                "velocity": 51,
                "duration": 6.5363636,
                "tempo": 120.0
            },
            {
                "start_time": 20.8318182,
                "end_time": 20.8977273,
                "pitch": 46,
                "velocity": 51,
                "duration": 0.0659091,
                "tempo": 120.0
            },
            {
                "start_time": 20.6318182,
                "end_time": 20.9318182,
                "pitch": 14,
                "velocity": 51,
                "duration": 0.3,
                "tempo": 120.0
            },
            {
                "start_time": 20.9318182,
                "end_time": 21.1022727,
                "pitch": 36,
                "velocity": 51,
                "duration": 0.1704545,
                "tempo": 120.0
            },
            {
                "start_time": 21.1363636,
                "end_time": 21.3090909,
                "pitch": 36,
                "velocity": 51,
                "duration": 0.1727273,
                "tempo": 120.0
            },
            {
                "start_time": 21.3431818,
                "end_time": 21.5068182,
                "pitch": 36,
                "velocity": 51,
                "duration": 0.1636364,
                "tempo": 120.0
            },
            {
                "start_time": 21.5409091,
                "end_time": 21.7022727,
                "pitch": 36,
                "velocity": 51,
                "duration": 0.1613636,
                "tempo": 120.0
            },
            {
                "start_time": 21.7363636,
                "end_time": 21.9068182,
                "pitch": 36,
                "velocity": 51,
                "duration": 0.1704545,
                "tempo": 120.0
            },
            {
                "start_time": 21.9409091,
                "end_time": 22.1113636,
                "pitch": 36,
                "velocity": 51,
                "duration": 0.1704545,
                "tempo": 120.0
            },
            {
                "start_time": 22.1477273,
                "end_time": 22.3136364,
                "pitch": 36,
                "velocity": 51,
                "duration": 0.1659091,
                "tempo": 120.0
            },
            {
                "start_time": 22.3477273,
                "end_time": 22.5136364,
                "pitch": 36,
                "velocity": 51,
                "duration": 0.1659091,
                "tempo": 120.0
            },
            {
                "start_time": 22.5477273,
                "end_time": 22.7159091,
                "pitch": 36,
                "velocity": 51,
                "duration": 0.1681818,
                "tempo": 120.0
            },
            {
                "start_time": 22.75,
                "end_time": 22.9181818,
                "pitch": 36,
                "velocity": 51,
                "duration": 0.1681818,
                "tempo": 120.0
            },
            {
                "start_time": 22.95,
                "end_time": 23.1181818,
                "pitch": 36,
                "velocity": 51,
                "duration": 0.1681818,
                "tempo": 120.0
            },
            {
                "start_time": 23.1522727,
                "end_time": 23.3181818,
                "pitch": 36,
                "velocity": 51,
                "duration": 0.1659091,
                "tempo": 120.0
            },
            {
                "start_time": 23.3522727,
                "end_time": 23.5181818,
                "pitch": 36,
                "velocity": 51,
                "duration": 0.1659091,
                "tempo": 120.0
            },
            {
                "start_time": 23.5522727,
                "end_time": 23.7181818,
                "pitch": 36,
                "velocity": 51,
                "duration": 0.1659091,
                "tempo": 120.0
            },
            {
                "start_time": 23.7522727,
                "end_time": 23.9204545,
                "pitch": 36,
                "velocity": 51,
                "duration": 0.1681818,
                "tempo": 120.0
            },
            {
                "start_time": 23.9545455,
                "end_time": 24.0204545,
                "pitch": 36,
                "velocity": 51,
                "duration": 0.0659091,
                "tempo": 120.0
            },
            {
                "start_time": 24.0545455,
                "end_time": 24.1204545,
                "pitch": 36,
                "velocity": 51,
                "duration": 0.0659091,
                "tempo": 120.0
            },
            {
                "start_time": 17.7204545,
                "end_time": 24.1568182,
                "pitch": 40,
                "velocity": 51,
                "duration": 6.4363636,
                "tempo": 120.0
            },
            {
                "start_time": 24.1568182,
                "end_time": 24.3227273,
                "pitch": 34,
                "velocity": 51,
                "duration": 0.1659091,
                "tempo": 120.0
            },
            {
                "start_time": 24.3545455,
                "end_time": 24.5227273,
                "pitch": 34,
                "velocity": 51,
                "duration": 0.1681818,
                "tempo": 120.0
            },
            {
                "start_time": 24.5568182,
                "end_time": 24.7227273,
                "pitch": 34,
                "velocity": 51,
                "duration": 0.1659091,
                "tempo": 120.0
            },
            {
                "start_time": 24.7568182,
                "end_time": 24.925,
                "pitch": 34,
                "velocity": 51,
                "duration": 0.1681818,
                "tempo": 120.0
            },
            {
                "start_time": 24.9590909,
                "end_time": 25.125,
                "pitch": 34,
                "velocity": 51,
                "duration": 0.1659091,
                "tempo": 120.0
            },
            {
                "start_time": 25.1590909,
                "end_time": 25.325,
                "pitch": 34,
                "velocity": 51,
                "duration": 0.1659091,
                "tempo": 120.0
            },
            {
                "start_time": 25.3590909,
                "end_time": 25.5272727,
                "pitch": 34,
                "velocity": 51,
                "duration": 0.1681818,
                "tempo": 120.0
            },
            {
                "start_time": 25.5590909,
                "end_time": 25.7272727,
                "pitch": 34,
                "velocity": 51,
                "duration": 0.1681818,
                "tempo": 120.0
            },
            {
                "start_time": 25.7613636,
                "end_time": 25.9272727,
                "pitch": 34,
                "velocity": 51,
                "duration": 0.1659091,
                "tempo": 120.0
            },
            {
                "start_time": 25.9613636,
                "end_time": 26.1295455,
                "pitch": 34,
                "velocity": 51,
                "duration": 0.1681818,
                "tempo": 120.0
            },
            {
                "start_time": 26.1636364,
                "end_time": 26.3295455,
                "pitch": 34,
                "velocity": 51,
                "duration": 0.1659091,
                "tempo": 120.0
            },
            {
                "start_time": 26.3636364,
                "end_time": 26.5295455,
                "pitch": 34,
                "velocity": 51,
                "duration": 0.1659091,
                "tempo": 120.0
            },
            {
                "start_time": 26.5636364,
                "end_time": 26.7318182,
                "pitch": 34,
                "velocity": 51,
                "duration": 0.1681818,
                "tempo": 120.0
            },
            {
                "start_time": 26.7659091,
                "end_time": 26.9340909,
                "pitch": 34,
                "velocity": 51,
                "duration": 0.1681818,
                "tempo": 120.0
            },
            {
                "start_time": 26.9681818,
                "end_time": 27.0340909,
                "pitch": 34,
                "velocity": 51,
                "duration": 0.0659091,
                "tempo": 120.0
            },
            {
                "start_time": 20.9318182,
                "end_time": 27.0681818,
                "pitch": 14,
                "velocity": 51,
                "duration": 6.1363636,
                "tempo": 120.0
            },
            {
                "start_time": 20.7318182,
                "end_time": 27.1340909,
                "pitch": 38,
                "velocity": 51,
                "duration": 6.4022727,
                "tempo": 120.0
            },
            {
                "start_time": 27.0681818,
                "end_time": 27.1340909,
                "pitch": 38,
                "velocity": 51,
                "duration": 0.0659091,
                "tempo": 120.0
            },
            {
                "start_time": 27.1681818,
                "end_time": 27.2340909,
                "pitch": 41,
                "velocity": 51,
                "duration": 0.0659091,
                "tempo": 120.0
            },
            {
                "start_time": 20.8318182,
                "end_time": 27.2681818,
                "pitch": 54,
                "velocity": 51,
                "duration": 6.4363636,
                "tempo": 120.0
            },
            {
                "start_time": 27.2681818,
                "end_time": 27.3340909,
                "pitch": 46,
                "velocity": 51,
                "duration": 0.0659091,
                "tempo": 120.0
            },
            {
                "start_time": 27.0681818,
                "end_time": 27.3681818,
                "pitch": 14,
                "velocity": 51,
                "duration": 0.3,
                "tempo": 120.0
            },
            {
                "start_time": 27.3681818,
                "end_time": 27.5340909,
                "pitch": 36,
                "velocity": 51,
                "duration": 0.1659091,
                "tempo": 120.0
            },
            {
                "start_time": 27.5681818,
                "end_time": 27.7340909,
                "pitch": 36,
                "velocity": 51,
                "duration": 0.1659091,
                "tempo": 120.0
            },
            {
                "start_time": 27.7681818,
                "end_time": 27.9363636,
                "pitch": 36,
                "velocity": 51,
                "duration": 0.1681818,
                "tempo": 120.0
            },
            {
                "start_time": 27.9704545,
                "end_time": 28.1386364,
                "pitch": 36,
                "velocity": 51,
                "duration": 0.1681818,
                "tempo": 120.0
            },
            {
                "start_time": 28.1727273,
                "end_time": 28.3431818,
                "pitch": 36,
                "velocity": 51,
                "duration": 0.1704545,
                "tempo": 120.0
            },
            {
                "start_time": 28.3772727,
                "end_time": 28.5477273,
                "pitch": 36,
                "velocity": 51,
                "duration": 0.1704545,
                "tempo": 120.0
            },
            {
                "start_time": 28.5818182,
                "end_time": 28.7454545,
                "pitch": 36,
                "velocity": 51,
                "duration": 0.1636364,
                "tempo": 120.0
            },
            {
                "start_time": 28.7795455,
                "end_time": 28.9431818,
                "pitch": 36,
                "velocity": 51,
                "duration": 0.1636364,
                "tempo": 120.0
            },
            {
                "start_time": 28.975,
                "end_time": 29.1454545,
                "pitch": 36,
                "velocity": 51,
                "duration": 0.1704545,
                "tempo": 120.0
            },
            {
                "start_time": 29.1818182,
                "end_time": 29.3522727,
                "pitch": 36,
                "velocity": 51,
                "duration": 0.1704545,
                "tempo": 120.0
            },
            {
                "start_time": 29.3863636,
                "end_time": 29.5545455,
                "pitch": 36,
                "velocity": 51,
                "duration": 0.1681818,
                "tempo": 120.0
            },
            {
                "start_time": 29.5863636,
                "end_time": 29.7545455,
                "pitch": 36,
                "velocity": 51,
                "duration": 0.1681818,
                "tempo": 120.0
            },
            {
                "start_time": 29.7886364,
                "end_time": 29.9545455,
                "pitch": 36,
                "velocity": 51,
                "duration": 0.1659091,
                "tempo": 120.0
            },
            {
                "start_time": 29.9886364,
                "end_time": 30.1545455,
                "pitch": 36,
                "velocity": 51,
                "duration": 0.1659091,
                "tempo": 120.0
            },
            {
                "start_time": 30.1886364,
                "end_time": 30.3545455,
                "pitch": 36,
                "velocity": 51,
                "duration": 0.1659091,
                "tempo": 120.0
            },
            {
                "start_time": 30.3886364,
                "end_time": 30.4568182,
                "pitch": 36,
                "velocity": 51,
                "duration": 0.0681818,
                "tempo": 120.0
            },
            {
                "start_time": 30.4909091,
                "end_time": 30.5568182,
                "pitch": 36,
                "velocity": 51,
                "duration": 0.0659091,
                "tempo": 120.0
            },
            {
                "start_time": 24.1568182,
                "end_time": 30.5909091,
                "pitch": 40,
                "velocity": 51,
                "duration": 6.4340909,
                "tempo": 120.0
            },
            {
                "start_time": 30.5909091,
                "end_time": 30.7568182,
                "pitch": 34,
                "velocity": 51,
                "duration": 0.1659091,
                "tempo": 120.0
            },
            {
                "start_time": 30.7909091,
                "end_time": 30.9590909,
                "pitch": 34,
                "velocity": 51,
                "duration": 0.1681818,
                "tempo": 120.0
            },
            {
                "start_time": 30.9909091,
                "end_time": 31.1590909,
                "pitch": 34,
                "velocity": 51,
                "duration": 0.1681818,
                "tempo": 120.0
            },
            {
                "start_time": 31.1931818,
                "end_time": 31.3613636,
                "pitch": 34,
                "velocity": 51,
                "duration": 0.1681818,
                "tempo": 120.0
            },
            {
                "start_time": 31.3954545,
                "end_time": 31.5613636,
                "pitch": 34,
                "velocity": 51,
                "duration": 0.1659091,
                "tempo": 120.0
            },
            {
                "start_time": 31.5954545,
                "end_time": 31.7613636,
                "pitch": 34,
                "velocity": 51,
                "duration": 0.1659091,
                "tempo": 120.0
            },
            {
                "start_time": 31.7954545,
                "end_time": 31.9613636,
                "pitch": 34,
                "velocity": 51,
                "duration": 0.1659091,
                "tempo": 120.0
            },
            {
                "start_time": 31.9954545,
                "end_time": 32.1613636,
                "pitch": 34,
                "velocity": 51,
                "duration": 0.1659091,
                "tempo": 120.0
            },
            {
                "start_time": 32.1954545,
                "end_time": 32.3636364,
                "pitch": 34,
                "velocity": 51,
                "duration": 0.1681818,
                "tempo": 120.0
            },
            {
                "start_time": 32.3954545,
                "end_time": 32.5636364,
                "pitch": 34,
                "velocity": 51,
                "duration": 0.1681818,
                "tempo": 120.0
            },
            {
                "start_time": 32.5977273,
                "end_time": 32.7636364,
                "pitch": 34,
                "velocity": 51,
                "duration": 0.1659091,
                "tempo": 120.0
            },
            {
                "start_time": 32.7977273,
                "end_time": 32.9659091,
                "pitch": 34,
                "velocity": 51,
                "duration": 0.1681818,
                "tempo": 120.0
            },
            {
                "start_time": 33.0,
                "end_time": 33.1659091,
                "pitch": 34,
                "velocity": 51,
                "duration": 0.1659091,
                "tempo": 120.0
            },
            {
                "start_time": 33.2,
                "end_time": 33.3659091,
                "pitch": 34,
                "velocity": 51,
                "duration": 0.1659091,
                "tempo": 120.0
            },
            {
                "start_time": 33.4,
                "end_time": 33.4659091,
                "pitch": 34,
                "velocity": 51,
                "duration": 0.0659091,
                "tempo": 120.0
            },
            {
                "start_time": 27.3681818,
                "end_time": 33.5,
                "pitch": 14,
                "velocity": 51,
                "duration": 6.1318182,
                "tempo": 120.0
            },
            {
                "start_time": 27.1681818,
                "end_time": 33.5659091,
                "pitch": 38,
                "velocity": 51,
                "duration": 6.3977273,
                "tempo": 120.0
            },
            {
                "start_time": 33.5,
                "end_time": 33.5659091,
                "pitch": 38,
                "velocity": 51,
                "duration": 0.0659091,
                "tempo": 120.0
            },
            {
                "start_time": 33.6,
                "end_time": 33.6659091,
                "pitch": 41,
                "velocity": 51,
                "duration": 0.0659091,
                "tempo": 120.0
            },
            {
                "start_time": 27.2681818,
                "end_time": 33.7,
                "pitch": 54,
                "velocity": 51,
                "duration": 6.4318182,
                "tempo": 120.0
            },
            {
                "start_time": 33.7,
                "end_time": 33.7659091,
                "pitch": 46,
                "velocity": 51,
                "duration": 0.0659091,
                "tempo": 120.0
            },
            {
                "start_time": 33.5,
                "end_time": 33.8022727,
                "pitch": 14,
                "velocity": 51,
                "duration": 0.3022727,
                "tempo": 120.0
            },
            {
                "start_time": 33.8022727,
                "end_time": 33.9681818,
                "pitch": 36,
                "velocity": 51,
                "duration": 0.1659091,
                "tempo": 120.0
            },
            {
                "start_time": 34.0,
                "end_time": 34.1681818,
                "pitch": 36,
                "velocity": 51,
                "duration": 0.1681818,
                "tempo": 120.0
            },
            {
                "start_time": 34.2022727,
                "end_time": 34.3681818,
                "pitch": 36,
                "velocity": 51,
                "duration": 0.1659091,
                "tempo": 120.0
            },
            {
                "start_time": 34.4022727,
                "end_time": 34.5681818,
                "pitch": 36,
                "velocity": 51,
                "duration": 0.1659091,
                "tempo": 120.0
            },
            {
                "start_time": 34.6022727,
                "end_time": 34.7704545,
                "pitch": 36,
                "velocity": 51,
                "duration": 0.1681818,
                "tempo": 120.0
            },
            {
                "start_time": 34.8045455,
                "end_time": 34.9704545,
                "pitch": 36,
                "velocity": 51,
                "duration": 0.1659091,
                "tempo": 120.0
            },
            {
                "start_time": 35.0045455,
                "end_time": 35.1727273,
                "pitch": 36,
                "velocity": 51,
                "duration": 0.1681818,
                "tempo": 120.0
            },
            {
                "start_time": 35.2045455,
                "end_time": 35.3727273,
                "pitch": 36,
                "velocity": 51,
                "duration": 0.1681818,
                "tempo": 120.0
            },
            {
                "start_time": 35.4068182,
                "end_time": 35.5727273,
                "pitch": 36,
                "velocity": 51,
                "duration": 0.1659091,
                "tempo": 120.0
            },
            {
                "start_time": 35.6068182,
                "end_time": 35.7727273,
                "pitch": 36,
                "velocity": 51,
                "duration": 0.1659091,
                "tempo": 120.0
            },
            {
                "start_time": 35.8068182,
                "end_time": 35.9727273,
                "pitch": 36,
                "velocity": 51,
                "duration": 0.1659091,
                "tempo": 120.0
            },
            {
                "start_time": 36.0068182,
                "end_time": 36.1727273,
                "pitch": 36,
                "velocity": 51,
                "duration": 0.1659091,
                "tempo": 120.0
            },
            {
                "start_time": 36.2068182,
                "end_time": 36.3772727,
                "pitch": 36,
                "velocity": 51,
                "duration": 0.1704545,
                "tempo": 120.0
            },
            {
                "start_time": 36.4113636,
                "end_time": 36.5840909,
                "pitch": 36,
                "velocity": 51,
                "duration": 0.1727273,
                "tempo": 120.0
            },
            {
                "start_time": 36.6181818,
                "end_time": 36.7840909,
                "pitch": 36,
                "velocity": 51,
                "duration": 0.1659091,
                "tempo": 120.0
            },
            {
                "start_time": 36.8181818,
                "end_time": 36.8840909,
                "pitch": 36,
                "velocity": 51,
                "duration": 0.0659091,
                "tempo": 120.0
            },
            {
                "start_time": 36.9181818,
                "end_time": 36.9840909,
                "pitch": 36,
                "velocity": 51,
                "duration": 0.0659091,
                "tempo": 120.0
            },
            {
                "start_time": 30.5909091,
                "end_time": 37.0204545,
                "pitch": 40,
                "velocity": 51,
                "duration": 6.4295455,
                "tempo": 120.0
            },
            {
                "start_time": 37.0204545,
                "end_time": 37.1863636,
                "pitch": 34,
                "velocity": 51,
                "duration": 0.1659091,
                "tempo": 120.0
            },
            {
                "start_time": 37.2181818,
                "end_time": 37.3863636,
                "pitch": 34,
                "velocity": 51,
                "duration": 0.1681818,
                "tempo": 120.0
            },
            {
                "start_time": 37.4204545,
                "end_time": 37.5863636,
                "pitch": 34,
                "velocity": 51,
                "duration": 0.1659091,
                "tempo": 120.0
            },
            {
                "start_time": 37.6204545,
                "end_time": 37.7863636,
                "pitch": 34,
                "velocity": 51,
                "duration": 0.1659091,
                "tempo": 120.0
            },
            {
                "start_time": 37.8204545,
                "end_time": 37.9863636,
                "pitch": 34,
                "velocity": 51,
                "duration": 0.1659091,
                "tempo": 120.0
            },
            {
                "start_time": 38.0204545,
                "end_time": 38.1863636,
                "pitch": 34,
                "velocity": 51,
                "duration": 0.1659091,
                "tempo": 120.0
            },
            {
                "start_time": 38.2204545,
                "end_time": 38.3886364,
                "pitch": 34,
                "velocity": 51,
                "duration": 0.1681818,
                "tempo": 120.0
            },
            {
                "start_time": 38.4227273,
                "end_time": 38.5909091,
                "pitch": 34,
                "velocity": 51,
                "duration": 0.1681818,
                "tempo": 120.0
            },
            {
                "start_time": 38.625,
                "end_time": 38.7909091,
                "pitch": 34,
                "velocity": 51,
                "duration": 0.1659091,
                "tempo": 120.0
            },
            {
                "start_time": 38.825,
                "end_time": 38.9909091,
                "pitch": 34,
                "velocity": 51,
                "duration": 0.1659091,
                "tempo": 120.0
            },
            {
                "start_time": 39.025,
                "end_time": 39.1909091,
                "pitch": 34,
                "velocity": 51,
                "duration": 0.1659091,
                "tempo": 120.0
            },
            {
                "start_time": 39.225,
                "end_time": 39.3909091,
                "pitch": 34,
                "velocity": 51,
                "duration": 0.1659091,
                "tempo": 120.0
            },
            {
                "start_time": 39.425,
                "end_time": 39.5909091,
                "pitch": 34,
                "velocity": 51,
                "duration": 0.1659091,
                "tempo": 120.0
            },
            {
                "start_time": 39.625,
                "end_time": 39.7909091,
                "pitch": 34,
                "velocity": 51,
                "duration": 0.1659091,
                "tempo": 120.0
            },
            {
                "start_time": 39.825,
                "end_time": 39.8909091,
                "pitch": 34,
                "velocity": 51,
                "duration": 0.0659091,
                "tempo": 120.0
            },
            {
                "start_time": 33.8022727,
                "end_time": 39.925,
                "pitch": 14,
                "velocity": 51,
                "duration": 6.1227273,
                "tempo": 120.0
            },
            {
                "start_time": 33.6,
                "end_time": 39.9909091,
                "pitch": 38,
                "velocity": 51,
                "duration": 6.3909091,
                "tempo": 120.0
            },
            {
                "start_time": 39.925,
                "end_time": 39.9909091,
                "pitch": 38,
                "velocity": 51,
                "duration": 0.0659091,
                "tempo": 120.0
            },
            {
                "start_time": 40.025,
                "end_time": 40.0909091,
                "pitch": 41,
                "velocity": 51,
                "duration": 0.0659091,
                "tempo": 120.0
            },
            {
                "start_time": 33.7,
                "end_time": 40.1272727,
                "pitch": 54,
                "velocity": 51,
                "duration": 6.4272727,
                "tempo": 120.0
            },
            {
                "start_time": 40.125,
                "end_time": 40.1272727,
                "pitch": 54,
                "velocity": 51,
                "duration": 0.0022727,
                "tempo": 120.0
            },
            {
                "start_time": 40.1272727,
                "end_time": 40.1931818,
                "pitch": 46,
                "velocity": 51,
                "duration": 0.0659091,
                "tempo": 120.0
            },
            {
                "start_time": 39.925,
                "end_time": 40.2272727,
                "pitch": 14,
                "velocity": 51,
                "duration": 0.3022727,
                "tempo": 120.0
            },
            {
                "start_time": 40.2272727,
                "end_time": 40.3931818,
                "pitch": 36,
                "velocity": 51,
                "duration": 0.1659091,
                "tempo": 120.0
            },
            {
                "start_time": 40.4272727,
                "end_time": 40.5954545,
                "pitch": 36,
                "velocity": 51,
                "duration": 0.1681818,
                "tempo": 120.0
            },
            {
                "start_time": 40.6295455,
                "end_time": 40.7954545,
                "pitch": 36,
                "velocity": 51,
                "duration": 0.1659091,
                "tempo": 120.0
            },
            {
                "start_time": 40.8295455,
                "end_time": 40.9954545,
                "pitch": 36,
                "velocity": 51,
                "duration": 0.1659091,
                "tempo": 120.0
            },
            {
                "start_time": 41.0295455,
                "end_time": 41.1954545,
                "pitch": 36,
                "velocity": 51,
                "duration": 0.1659091,
                "tempo": 120.0
            },
            {
                "start_time": 41.2295455,
                "end_time": 41.3954545,
                "pitch": 36,
                "velocity": 51,
                "duration": 0.1659091,
                "tempo": 120.0
            },
            {
                "start_time": 41.4295455,
                "end_time": 41.5977273,
                "pitch": 36,
                "velocity": 51,
                "duration": 0.1681818,
                "tempo": 120.0
            },
            {
                "start_time": 41.6295455,
                "end_time": 41.7977273,
                "pitch": 36,
                "velocity": 51,
                "duration": 0.1681818,
                "tempo": 120.0
            },
            {
                "start_time": 41.8318182,
                "end_time": 41.9977273,
                "pitch": 36,
                "velocity": 51,
                "duration": 0.1659091,
                "tempo": 120.0
            },
            {
                "start_time": 42.0318182,
                "end_time": 42.1977273,
                "pitch": 36,
                "velocity": 51,
                "duration": 0.1659091,
                "tempo": 120.0
            },
            {
                "start_time": 42.2318182,
                "end_time": 42.4022727,
                "pitch": 36,
                "velocity": 51,
                "duration": 0.1704545,
                "tempo": 120.0
            },
            {
                "start_time": 42.4363636,
                "end_time": 42.6068182,
                "pitch": 36,
                "velocity": 51,
                "duration": 0.1704545,
                "tempo": 120.0
            },
            {
                "start_time": 42.6431818,
                "end_time": 42.8090909,
                "pitch": 36,
                "velocity": 51,
                "duration": 0.1659091,
                "tempo": 120.0
            },
            {
                "start_time": 42.8431818,
                "end_time": 43.0090909,
                "pitch": 36,
                "velocity": 51,
                "duration": 0.1659091,
                "tempo": 120.0
            },
            {
                "start_time": 43.0431818,
                "end_time": 43.2090909,
                "pitch": 36,
                "velocity": 51,
                "duration": 0.1659091,
                "tempo": 120.0
            },
            {
                "start_time": 43.2431818,
                "end_time": 43.4090909,
                "pitch": 36,
                "velocity": 51,
                "duration": 0.1659091,
                "tempo": 120.0
            },
            {
                "start_time": 43.4454545,
                "end_time": 43.6113636,
                "pitch": 36,
                "velocity": 51,
                "duration": 0.1659091,
                "tempo": 120.0
            },
            {
                "start_time": 43.6454545,
                "end_time": 43.8136364,
                "pitch": 36,
                "velocity": 51,
                "duration": 0.1681818,
                "tempo": 120.0
            },
            {
                "start_time": 43.8477273,
                "end_time": 44.0136364,
                "pitch": 36,
                "velocity": 51,
                "duration": 0.1659091,
                "tempo": 120.0
            },
            {
                "start_time": 44.0477273,
                "end_time": 44.2136364,
                "pitch": 36,
                "velocity": 51,
                "duration": 0.1659091,
                "tempo": 120.0
            },
            {
                "start_time": 44.2477273,
                "end_time": 44.4136364,
                "pitch": 36,
                "velocity": 51,
                "duration": 0.1659091,
                "tempo": 120.0
            },
            {
                "start_time": 44.4477273,
                "end_time": 44.6136364,
                "pitch": 36,
                "velocity": 51,
                "duration": 0.1659091,
                "tempo": 120.0
            },
            {
                "start_time": 44.6477273,
                "end_time": 44.8159091,
                "pitch": 36,
                "velocity": 51,
                "duration": 0.1681818,
                "tempo": 120.0
            },
            {
                "start_time": 44.8477273,
                "end_time": 45.0159091,
                "pitch": 36,
                "velocity": 51,
                "duration": 0.1681818,
                "tempo": 120.0
            },
            {
                "start_time": 45.05,
                "end_time": 45.2159091,
                "pitch": 36,
                "velocity": 51,
                "duration": 0.1659091,
                "tempo": 120.0
            },
            {
                "start_time": 45.25,
                "end_time": 45.4159091,
                "pitch": 36,
                "velocity": 51,
                "duration": 0.1659091,
                "tempo": 120.0
            },
            {
                "start_time": 45.45,
                "end_time": 45.6159091,
                "pitch": 36,
                "velocity": 51,
                "duration": 0.1659091,
                "tempo": 120.0
            },
            {
                "start_time": 45.65,
                "end_time": 45.8181818,
                "pitch": 36,
                "velocity": 51,
                "duration": 0.1681818,
                "tempo": 120.0
            },
            {
                "start_time": 45.8522727,
                "end_time": 46.0181818,
                "pitch": 36,
                "velocity": 51,
                "duration": 0.1659091,
                "tempo": 120.0
            },
            {
                "start_time": 46.0522727,
                "end_time": 46.2204545,
                "pitch": 36,
                "velocity": 51,
                "duration": 0.1681818,
                "tempo": 120.0
            },
            {
                "start_time": 46.2522727,
                "end_time": 46.3204545,
                "pitch": 36,
                "velocity": 51,
                "duration": 0.0681818,
                "tempo": 120.0
            },
            {
                "start_time": 46.3522727,
                "end_time": 46.4204545,
                "pitch": 41,
                "velocity": 51,
                "duration": 0.0681818,
                "tempo": 120.0
            },
            {
                "start_time": 46.4522727,
                "end_time": 46.4545455,
                "pitch": 54,
                "velocity": 51,
                "duration": 0.0022727,
                "tempo": 120.0
            },
            {
                "start_time": 46.4545455,
                "end_time": 46.5204545,
                "pitch": 43,
                "velocity": 51,
                "duration": 0.0659091,
                "tempo": 120.0
            },
            {
                "start_time": 14.3977273,
                "end_time": 46.5545455,
                "pitch": 0,
                "velocity": 51,
                "duration": 32.1568182,
                "tempo": 120.0
            },
            {
                "start_time": 46.5545455,
                "end_time": 46.6204545,
                "pitch": 48,
                "velocity": 51,
                "duration": 0.0659091,
                "tempo": 120.0
            },
            {
                "start_time": 46.3522727,
                "end_time": 46.8204545,
                "pitch": 36,
                "velocity": 51,
                "duration": 0.4681818,
                "tempo": 120.0
            },
            {
                "start_time": 46.6545455,
                "end_time": 46.8204545,
                "pitch": 36,
                "velocity": 51,
                "duration": 0.1659091,
                "tempo": 120.0
            },
            {
                "start_time": 46.8545455,
                "end_time": 47.0204545,
                "pitch": 36,
                "velocity": 51,
                "duration": 0.1659091,
                "tempo": 120.0
            },
            {
                "start_time": 47.0545455,
                "end_time": 47.2204545,
                "pitch": 36,
                "velocity": 51,
                "duration": 0.1659091,
                "tempo": 120.0
            },
            {
                "start_time": 47.2545455,
                "end_time": 47.4204545,
                "pitch": 36,
                "velocity": 51,
                "duration": 0.1659091,
                "tempo": 120.0
            },
            {
                "start_time": 47.4545455,
                "end_time": 47.6227273,
                "pitch": 36,
                "velocity": 51,
                "duration": 0.1681818,
                "tempo": 120.0
            },
            {
                "start_time": 47.6568182,
                "end_time": 47.825,
                "pitch": 36,
                "velocity": 51,
                "duration": 0.1681818,
                "tempo": 120.0
            },
            {
                "start_time": 47.8590909,
                "end_time": 48.025,
                "pitch": 36,
                "velocity": 51,
                "duration": 0.1659091,
                "tempo": 120.0
            },
            {
                "start_time": 48.0590909,
                "end_time": 48.225,
                "pitch": 36,
                "velocity": 51,
                "duration": 0.1659091,
                "tempo": 120.0
            },
            {
                "start_time": 48.2590909,
                "end_time": 48.425,
                "pitch": 36,
                "velocity": 51,
                "duration": 0.1659091,
                "tempo": 120.0
            },
            {
                "start_time": 48.4590909,
                "end_time": 48.625,
                "pitch": 36,
                "velocity": 51,
                "duration": 0.1659091,
                "tempo": 120.0
            },
            {
                "start_time": 48.6590909,
                "end_time": 48.825,
                "pitch": 36,
                "velocity": 51,
                "duration": 0.1659091,
                "tempo": 120.0
            },
            {
                "start_time": 48.8590909,
                "end_time": 49.025,
                "pitch": 36,
                "velocity": 51,
                "duration": 0.1659091,
                "tempo": 120.0
            },
            {
                "start_time": 49.0590909,
                "end_time": 49.225,
                "pitch": 36,
                "velocity": 51,
                "duration": 0.1659091,
                "tempo": 120.0
            },
            {
                "start_time": 49.2590909,
                "end_time": 49.4272727,
                "pitch": 36,
                "velocity": 51,
                "duration": 0.1681818,
                "tempo": 120.0
            },
            {
                "start_time": 49.4613636,
                "end_time": 49.6272727,
                "pitch": 36,
                "velocity": 51,
                "duration": 0.1659091,
                "tempo": 120.0
            },
            {
                "start_time": 49.6613636,
                "end_time": 49.7295455,
                "pitch": 36,
                "velocity": 51,
                "duration": 0.0681818,
                "tempo": 120.0
            },
            {
                "start_time": 49.7636364,
                "end_time": 49.8295455,
                "pitch": 36,
                "velocity": 51,
                "duration": 0.0659091,
                "tempo": 120.0
            },
            {
                "start_time": 37.0204545,
                "end_time": 49.8636364,
                "pitch": 40,
                "velocity": 51,
                "duration": 12.8431818,
                "tempo": 120.0
            },
            {
                "start_time": 49.8636364,
                "end_time": 50.0340909,
                "pitch": 34,
                "velocity": 51,
                "duration": 0.1704545,
                "tempo": 120.0
            },
            {
                "start_time": 50.0681818,
                "end_time": 50.2409091,
                "pitch": 34,
                "velocity": 51,
                "duration": 0.1727273,
                "tempo": 120.0
            },
            {
                "start_time": 50.275,
                "end_time": 50.4386364,
                "pitch": 34,
                "velocity": 51,
                "duration": 0.1636364,
                "tempo": 120.0
            },
            {
                "start_time": 50.4704545,
                "end_time": 50.6340909,
                "pitch": 34,
                "velocity": 51,
                "duration": 0.1636364,
                "tempo": 120.0
            },
            {
                "start_time": 50.6681818,
                "end_time": 50.8386364,
                "pitch": 34,
                "velocity": 51,
                "duration": 0.1704545,
                "tempo": 120.0
            },
            {
                "start_time": 50.8727273,
                "end_time": 51.0431818,
                "pitch": 34,
                "velocity": 51,
                "duration": 0.1704545,
                "tempo": 120.0
            },
            {
                "start_time": 51.0795455,
                "end_time": 51.2409091,
                "pitch": 34,
                "velocity": 51,
                "duration": 0.1613636,
                "tempo": 120.0
            },
            {
                "start_time": 51.275,
                "end_time": 51.4386364,
                "pitch": 34,
                "velocity": 51,
                "duration": 0.1636364,
                "tempo": 120.0
            },
            {
                "start_time": 51.4704545,
                "end_time": 51.6409091,
                "pitch": 34,
                "velocity": 51,
                "duration": 0.1704545,
                "tempo": 120.0
            },
            {
                "start_time": 51.6772727,
                "end_time": 51.8477273,
                "pitch": 34,
                "velocity": 51,
                "duration": 0.1704545,
                "tempo": 120.0
            },
            {
                "start_time": 51.8818182,
                "end_time": 52.05,
                "pitch": 34,
                "velocity": 51,
                "duration": 0.1681818,
                "tempo": 120.0
            },
            {
                "start_time": 52.0818182,
                "end_time": 52.25,
                "pitch": 34,
                "velocity": 51,
                "duration": 0.1681818,
                "tempo": 120.0
            },
            {
                "start_time": 52.2840909,
                "end_time": 52.45,
                "pitch": 34,
                "velocity": 51,
                "duration": 0.1659091,
                "tempo": 120.0
            },
            {
                "start_time": 52.4840909,
                "end_time": 52.65,
                "pitch": 34,
                "velocity": 51,
                "duration": 0.1659091,
                "tempo": 120.0
            },
            {
                "start_time": 52.6840909,
                "end_time": 52.75,
                "pitch": 34,
                "velocity": 51,
                "duration": 0.0659091,
                "tempo": 120.0
            },
            {
                "start_time": 40.2272727,
                "end_time": 52.7840909,
                "pitch": 14,
                "velocity": 51,
                "duration": 12.5568182,
                "tempo": 120.0
            },
            {
                "start_time": 40.025,
                "end_time": 52.85,
                "pitch": 38,
                "velocity": 51,
                "duration": 12.825,
                "tempo": 120.0
            },
            {
                "start_time": 52.7840909,
                "end_time": 52.85,
                "pitch": 38,
                "velocity": 51,
                "duration": 0.0659091,
                "tempo": 120.0
            },
            {
                "start_time": 52.8840909,
                "end_time": 52.95,
                "pitch": 41,
                "velocity": 51,
                "duration": 0.0659091,
                "tempo": 120.0
            },
            {
                "start_time": 52.9840909,
                "end_time": 53.05,
                "pitch": 46,
                "velocity": 51,
                "duration": 0.0659091,
                "tempo": 120.0
            },
            {
                "start_time": 52.7840909,
                "end_time": 53.0840909,
                "pitch": 14,
                "velocity": 51,
                "duration": 0.3,
                "tempo": 120.0
            },
            {
                "start_time": 53.0840909,
                "end_time": 53.2522727,
                "pitch": 36,
                "velocity": 51,
                "duration": 0.1681818,
                "tempo": 120.0
            },
            {
                "start_time": 53.2863636,
                "end_time": 53.4522727,
                "pitch": 36,
                "velocity": 51,
                "duration": 0.1659091,
                "tempo": 120.0
            },
            {
                "start_time": 53.4863636,
                "end_time": 53.6545455,
                "pitch": 36,
                "velocity": 51,
                "duration": 0.1681818,
                "tempo": 120.0
            },
            {
                "start_time": 53.6886364,
                "end_time": 53.8545455,
                "pitch": 36,
                "velocity": 51,
                "duration": 0.1659091,
                "tempo": 120.0
            },
            {
                "start_time": 53.8886364,
                "end_time": 54.0545455,
                "pitch": 36,
                "velocity": 51,
                "duration": 0.1659091,
                "tempo": 120.0
            },
            {
                "start_time": 54.0886364,
                "end_time": 54.2545455,
                "pitch": 36,
                "velocity": 51,
                "duration": 0.1659091,
                "tempo": 120.0
            },
            {
                "start_time": 54.2886364,
                "end_time": 54.4545455,
                "pitch": 36,
                "velocity": 51,
                "duration": 0.1659091,
                "tempo": 120.0
            },
            {
                "start_time": 54.4886364,
                "end_time": 54.6545455,
                "pitch": 36,
                "velocity": 51,
                "duration": 0.1659091,
                "tempo": 120.0
            },
            {
                "start_time": 54.6886364,
                "end_time": 54.8545455,
                "pitch": 36,
                "velocity": 51,
                "duration": 0.1659091,
                "tempo": 120.0
            },
            {
                "start_time": 54.8886364,
                "end_time": 55.0568182,
                "pitch": 36,
                "velocity": 51,
                "duration": 0.1681818,
                "tempo": 120.0
            },
            {
                "start_time": 55.0886364,
                "end_time": 55.2568182,
                "pitch": 36,
                "velocity": 51,
                "duration": 0.1681818,
                "tempo": 120.0
            },
            {
                "start_time": 55.2909091,
                "end_time": 55.4590909,
                "pitch": 36,
                "velocity": 51,
                "duration": 0.1681818,
                "tempo": 120.0
            },
            {
                "start_time": 55.4931818,
                "end_time": 55.6590909,
                "pitch": 36,
                "velocity": 51,
                "duration": 0.1659091,
                "tempo": 120.0
            },
            {
                "start_time": 55.6931818,
                "end_time": 55.8590909,
                "pitch": 36,
                "velocity": 51,
                "duration": 0.1659091,
                "tempo": 120.0
            },
            {
                "start_time": 55.8931818,
                "end_time": 56.0590909,
                "pitch": 36,
                "velocity": 51,
                "duration": 0.1659091,
                "tempo": 120.0
            },
            {
                "start_time": 56.0931818,
                "end_time": 56.1590909,
                "pitch": 36,
                "velocity": 51,
                "duration": 0.0659091,
                "tempo": 120.0
            },
            {
                "start_time": 56.1931818,
                "end_time": 56.2590909,
                "pitch": 36,
                "velocity": 51,
                "duration": 0.0659091,
                "tempo": 120.0
            },
            {
                "start_time": 49.8636364,
                "end_time": 56.2931818,
                "pitch": 40,
                "velocity": 51,
                "duration": 6.4295455,
                "tempo": 120.0
            },
            {
                "start_time": 56.2931818,
                "end_time": 56.4590909,
                "pitch": 34,
                "velocity": 51,
                "duration": 0.1659091,
                "tempo": 120.0
            },
            {
                "start_time": 56.4931818,
                "end_time": 56.6613636,
                "pitch": 34,
                "velocity": 51,
                "duration": 0.1681818,
                "tempo": 120.0
            },
            {
                "start_time": 56.6954545,
                "end_time": 56.8613636,
                "pitch": 34,
                "velocity": 51,
                "duration": 0.1659091,
                "tempo": 120.0
            },
            {
                "start_time": 56.8954545,
                "end_time": 57.0613636,
                "pitch": 34,
                "velocity": 51,
                "duration": 0.1659091,
                "tempo": 120.0
            },
            {
                "start_time": 57.0954545,
                "end_time": 57.2613636,
                "pitch": 34,
                "velocity": 51,
                "duration": 0.1659091,
                "tempo": 120.0
            },
            {
                "start_time": 57.2954545,
                "end_time": 57.4636364,
                "pitch": 34,
                "velocity": 51,
                "duration": 0.1681818,
                "tempo": 120.0
            },
            {
                "start_time": 57.4977273,
                "end_time": 57.6636364,
                "pitch": 34,
                "velocity": 51,
                "duration": 0.1659091,
                "tempo": 120.0
            },
            {
                "start_time": 57.6977273,
                "end_time": 57.8659091,
                "pitch": 34,
                "velocity": 51,
                "duration": 0.1681818,
                "tempo": 120.0
            },
            {
                "start_time": 57.9,
                "end_time": 58.0681818,
                "pitch": 34,
                "velocity": 51,
                "duration": 0.1681818,
                "tempo": 120.0
            },
            {
                "start_time": 58.1045455,
                "end_time": 58.275,
                "pitch": 34,
                "velocity": 51,
                "duration": 0.1704545,
                "tempo": 120.0
            },
            {
                "start_time": 58.3090909,
                "end_time": 58.4772727,
                "pitch": 34,
                "velocity": 51,
                "duration": 0.1681818,
                "tempo": 120.0
            },
            {
                "start_time": 58.5113636,
                "end_time": 58.6795455,
                "pitch": 34,
                "velocity": 51,
                "duration": 0.1681818,
                "tempo": 120.0
            },
            {
                "start_time": 58.7136364,
                "end_time": 58.8772727,
                "pitch": 34,
                "velocity": 51,
                "duration": 0.1636364,
                "tempo": 120.0
            },
            {
                "start_time": 58.9090909,
                "end_time": 59.0727273,
                "pitch": 34,
                "velocity": 51,
                "duration": 0.1636364,
                "tempo": 120.0
            },
            {
                "start_time": 59.1068182,
                "end_time": 59.1727273,
                "pitch": 34,
                "velocity": 51,
                "duration": 0.0659091,
                "tempo": 120.0
            },
            {
                "start_time": 53.0840909,
                "end_time": 59.2090909,
                "pitch": 14,
                "velocity": 51,
                "duration": 6.125,
                "tempo": 120.0
            },
            {
                "start_time": 52.8840909,
                "end_time": 59.2772727,
                "pitch": 38,
                "velocity": 51,
                "duration": 6.3931818,
                "tempo": 120.0
            },
            {
                "start_time": 59.2090909,
                "end_time": 59.2772727,
                "pitch": 38,
                "velocity": 51,
                "duration": 0.0681818,
                "tempo": 120.0
            },
            {
                "start_time": 59.3113636,
                "end_time": 59.3795455,
                "pitch": 41,
                "velocity": 51,
                "duration": 0.0681818,
                "tempo": 120.0
            },
            {
                "start_time": 52.9840909,
                "end_time": 59.4136364,
                "pitch": 54,
                "velocity": 51,
                "duration": 6.4295455,
                "tempo": 120.0
            },
            {
                "start_time": 59.4136364,
                "end_time": 59.4818182,
                "pitch": 46,
                "velocity": 51,
                "duration": 0.0681818,
                "tempo": 120.0
            },
            {
                "start_time": 59.2090909,
                "end_time": 59.5181818,
                "pitch": 14,
                "velocity": 51,
                "duration": 0.3090909,
                "tempo": 120.0
            },
            {
                "start_time": 59.5181818,
                "end_time": 59.6840909,
                "pitch": 36,
                "velocity": 51,
                "duration": 0.1659091,
                "tempo": 120.0
            },
            {
                "start_time": 59.7181818,
                "end_time": 59.8840909,
                "pitch": 36,
                "velocity": 51,
                "duration": 0.1659091,
                "tempo": 120.0
            },
            {
                "start_time": 59.9181818,
                "end_time": 60.0840909,
                "pitch": 36,
                "velocity": 51,
                "duration": 0.1659091,
                "tempo": 120.0
            },
            {
                "start_time": 60.1181818,
                "end_time": 60.2840909,
                "pitch": 36,
                "velocity": 51,
                "duration": 0.1659091,
                "tempo": 120.0
            },
            {
                "start_time": 60.3181818,
                "end_time": 60.4863636,
                "pitch": 36,
                "velocity": 51,
                "duration": 0.1681818,
                "tempo": 120.0
            },
            {
                "start_time": 60.5204545,
                "end_time": 60.6886364,
                "pitch": 36,
                "velocity": 51,
                "duration": 0.1681818,
                "tempo": 120.0
            },
            {
                "start_time": 60.7227273,
                "end_time": 60.8886364,
                "pitch": 36,
                "velocity": 51,
                "duration": 0.1659091,
                "tempo": 120.0
            },
            {
                "start_time": 60.9227273,
                "end_time": 61.0886364,
                "pitch": 36,
                "velocity": 51,
                "duration": 0.1659091,
                "tempo": 120.0
            },
            {
                "start_time": 61.1227273,
                "end_time": 61.2886364,
                "pitch": 36,
                "velocity": 51,
                "duration": 0.1659091,
                "tempo": 120.0
            },
            {
                "start_time": 61.3227273,
                "end_time": 61.4886364,
                "pitch": 36,
                "velocity": 51,
                "duration": 0.1659091,
                "tempo": 120.0
            },
            {
                "start_time": 61.5227273,
                "end_time": 61.6886364,
                "pitch": 36,
                "velocity": 51,
                "duration": 0.1659091,
                "tempo": 120.0
            },
            {
                "start_time": 61.7227273,
                "end_time": 61.8886364,
                "pitch": 36,
                "velocity": 51,
                "duration": 0.1659091,
                "tempo": 120.0
            },
            {
                "start_time": 61.9227273,
                "end_time": 62.0886364,
                "pitch": 36,
                "velocity": 51,
                "duration": 0.1659091,
                "tempo": 120.0
            },
            {
                "start_time": 62.1227273,
                "end_time": 62.2909091,
                "pitch": 36,
                "velocity": 51,
                "duration": 0.1681818,
                "tempo": 120.0
            },
            {
                "start_time": 62.325,
                "end_time": 62.4909091,
                "pitch": 36,
                "velocity": 51,
                "duration": 0.1659091,
                "tempo": 120.0
            },
            {
                "start_time": 62.525,
                "end_time": 62.5931818,
                "pitch": 36,
                "velocity": 51,
                "duration": 0.0681818,
                "tempo": 120.0
            },
            {
                "start_time": 62.6272727,
                "end_time": 62.6931818,
                "pitch": 36,
                "velocity": 51,
                "duration": 0.0659091,
                "tempo": 120.0
            },
            {
                "start_time": 56.2931818,
                "end_time": 62.7272727,
                "pitch": 40,
                "velocity": 51,
                "duration": 6.4340909,
                "tempo": 120.0
            },
            {
                "start_time": 62.7272727,
                "end_time": 62.8931818,
                "pitch": 34,
                "velocity": 51,
                "duration": 0.1659091,
                "tempo": 120.0
            },
            {
                "start_time": 62.9272727,
                "end_time": 63.0931818,
                "pitch": 34,
                "velocity": 51,
                "duration": 0.1659091,
                "tempo": 120.0
            },
            {
                "start_time": 63.1272727,
                "end_time": 63.2931818,
                "pitch": 34,
                "velocity": 51,
                "duration": 0.1659091,
                "tempo": 120.0
            },
            {
                "start_time": 63.3272727,
                "end_time": 63.4931818,
                "pitch": 34,
                "velocity": 51,
                "duration": 0.1659091,
                "tempo": 120.0
            },
            {
                "start_time": 63.5272727,
                "end_time": 63.6954545,
                "pitch": 34,
                "velocity": 51,
                "duration": 0.1681818,
                "tempo": 120.0
            },
            {
                "start_time": 63.7295455,
                "end_time": 63.8954545,
                "pitch": 34,
                "velocity": 51,
                "duration": 0.1659091,
                "tempo": 120.0
            },
            {
                "start_time": 63.9295455,
                "end_time": 64.0954545,
                "pitch": 34,
                "velocity": 51,
                "duration": 0.1659091,
                "tempo": 120.0
            },
            {
                "start_time": 64.1295455,
                "end_time": 64.2954545,
                "pitch": 34,
                "velocity": 51,
                "duration": 0.1659091,
                "tempo": 120.0
            },
            {
                "start_time": 64.3295455,
                "end_time": 64.4977273,
                "pitch": 34,
                "velocity": 51,
                "duration": 0.1681818,
                "tempo": 120.0
            },
            {
                "start_time": 64.5318182,
                "end_time": 64.6977273,
                "pitch": 34,
                "velocity": 51,
                "duration": 0.1659091,
                "tempo": 120.0
            },
            {
                "start_time": 64.7318182,
                "end_time": 64.9022727,
                "pitch": 34,
                "velocity": 51,
                "duration": 0.1704545,
                "tempo": 120.0
            },
            {
                "start_time": 64.9386364,
                "end_time": 65.1090909,
                "pitch": 34,
                "velocity": 51,
                "duration": 0.1704545,
                "tempo": 120.0
            },
            {
                "start_time": 65.1431818,
                "end_time": 65.3113636,
                "pitch": 34,
                "velocity": 51,
                "duration": 0.1681818,
                "tempo": 120.0
            },
            {
                "start_time": 65.3454545,
                "end_time": 65.5136364,
                "pitch": 34,
                "velocity": 51,
                "duration": 0.1681818,
                "tempo": 120.0
            },
            {
                "start_time": 65.5477273,
                "end_time": 65.6113636,
                "pitch": 34,
                "velocity": 51,
                "duration": 0.0636364,
                "tempo": 120.0
            },
            {
                "start_time": 59.5181818,
                "end_time": 65.6454545,
                "pitch": 14,
                "velocity": 51,
                "duration": 6.1272727,
                "tempo": 120.0
            },
            {
                "start_time": 59.3113636,
                "end_time": 65.7113636,
                "pitch": 38,
                "velocity": 51,
                "duration": 6.4,
                "tempo": 120.0
            },
            {
                "start_time": 65.6454545,
                "end_time": 65.7113636,
                "pitch": 38,
                "velocity": 51,
                "duration": 0.0659091,
                "tempo": 120.0
            },
            {
                "start_time": 65.7431818,
                "end_time": 65.8090909,
                "pitch": 41,
                "velocity": 51,
                "duration": 0.0659091,
                "tempo": 120.0
            },
            {
                "start_time": 59.4136364,
                "end_time": 65.8431818,
                "pitch": 54,
                "velocity": 51,
                "duration": 6.4295455,
                "tempo": 120.0
            },
            {
                "start_time": 65.8409091,
                "end_time": 65.8431818,
                "pitch": 54,
                "velocity": 51,
                "duration": 0.0022727,
                "tempo": 120.0
            },
            {
                "start_time": 65.8431818,
                "end_time": 65.9068182,
                "pitch": 46,
                "velocity": 51,
                "duration": 0.0636364,
                "tempo": 120.0
            },
            {
                "start_time": 65.6454545,
                "end_time": 65.9409091,
                "pitch": 14,
                "velocity": 51,
                "duration": 0.2954545,
                "tempo": 120.0
            },
            {
                "start_time": 65.9409091,
                "end_time": 66.1113636,
                "pitch": 36,
                "velocity": 51,
                "duration": 0.1704545,
                "tempo": 120.0
            },
            {
                "start_time": 66.1454545,
                "end_time": 66.3159091,
                "pitch": 36,
                "velocity": 51,
                "duration": 0.1704545,
                "tempo": 120.0
            },
            {
                "start_time": 66.35,
                "end_time": 66.5181818,
                "pitch": 36,
                "velocity": 51,
                "duration": 0.1681818,
                "tempo": 120.0
            },
            {
                "start_time": 66.5522727,
                "end_time": 66.7181818,
                "pitch": 36,
                "velocity": 51,
                "duration": 0.1659091,
                "tempo": 120.0
            },
            {
                "start_time": 66.7522727,
                "end_time": 66.9204545,
                "pitch": 36,
                "velocity": 51,
                "duration": 0.1681818,
                "tempo": 120.0
            },
            {
                "start_time": 66.9522727,
                "end_time": 67.1204545,
                "pitch": 36,
                "velocity": 51,
                "duration": 0.1681818,
                "tempo": 120.0
            },
            {
                "start_time": 67.1545455,
                "end_time": 67.3227273,
                "pitch": 36,
                "velocity": 51,
                "duration": 0.1681818,
                "tempo": 120.0
            },
            {
                "start_time": 67.3568182,
                "end_time": 67.525,
                "pitch": 36,
                "velocity": 51,
                "duration": 0.1681818,
                "tempo": 120.0
            },
            {
                "start_time": 67.5590909,
                "end_time": 67.725,
                "pitch": 36,
                "velocity": 51,
                "duration": 0.1659091,
                "tempo": 120.0
            },
            {
                "start_time": 67.7590909,
                "end_time": 67.925,
                "pitch": 36,
                "velocity": 51,
                "duration": 0.1659091,
                "tempo": 120.0
            },
            {
                "start_time": 67.9590909,
                "end_time": 68.1272727,
                "pitch": 36,
                "velocity": 51,
                "duration": 0.1681818,
                "tempo": 120.0
            },
            {
                "start_time": 68.1613636,
                "end_time": 68.3272727,
                "pitch": 36,
                "velocity": 51,
                "duration": 0.1659091,
                "tempo": 120.0
            },
            {
                "start_time": 68.3613636,
                "end_time": 68.5295455,
                "pitch": 36,
                "velocity": 51,
                "duration": 0.1681818,
                "tempo": 120.0
            },
            {
                "start_time": 68.5613636,
                "end_time": 68.7295455,
                "pitch": 36,
                "velocity": 51,
                "duration": 0.1681818,
                "tempo": 120.0
            },
            {
                "start_time": 68.7636364,
                "end_time": 68.9295455,
                "pitch": 36,
                "velocity": 51,
                "duration": 0.1659091,
                "tempo": 120.0
            },
            {
                "start_time": 68.9636364,
                "end_time": 69.0318182,
                "pitch": 36,
                "velocity": 51,
                "duration": 0.0681818,
                "tempo": 120.0
            },
            {
                "start_time": 69.0659091,
                "end_time": 69.1318182,
                "pitch": 36,
                "velocity": 51,
                "duration": 0.0659091,
                "tempo": 120.0
            },
            {
                "start_time": 62.7272727,
                "end_time": 69.1659091,
                "pitch": 40,
                "velocity": 51,
                "duration": 6.4386364,
                "tempo": 120.0
            },
            {
                "start_time": 69.1659091,
                "end_time": 69.3340909,
                "pitch": 34,
                "velocity": 51,
                "duration": 0.1681818,
                "tempo": 120.0
            },
            {
                "start_time": 69.3681818,
                "end_time": 69.5340909,
                "pitch": 34,
                "velocity": 51,
                "duration": 0.1659091,
                "tempo": 120.0
            },
            {
                "start_time": 69.5681818,
                "end_time": 69.7363636,
                "pitch": 34,
                "velocity": 51,
                "duration": 0.1681818,
                "tempo": 120.0
            },
            {
                "start_time": 69.7704545,
                "end_time": 69.9363636,
                "pitch": 34,
                "velocity": 51,
                "duration": 0.1659091,
                "tempo": 120.0
            },
            {
                "start_time": 69.9704545,
                "end_time": 70.1363636,
                "pitch": 34,
                "velocity": 51,
                "duration": 0.1659091,
                "tempo": 120.0
            },
            {
                "start_time": 70.1704545,
                "end_time": 70.3386364,
                "pitch": 34,
                "velocity": 51,
                "duration": 0.1681818,
                "tempo": 120.0
            },
            {
                "start_time": 70.3727273,
                "end_time": 70.5386364,
                "pitch": 34,
                "velocity": 51,
                "duration": 0.1659091,
                "tempo": 120.0
            },
            {
                "start_time": 70.5727273,
                "end_time": 70.7386364,
                "pitch": 34,
                "velocity": 51,
                "duration": 0.1659091,
                "tempo": 120.0
            },
            {
                "start_time": 70.7727273,
                "end_time": 70.9409091,
                "pitch": 34,
                "velocity": 51,
                "duration": 0.1681818,
                "tempo": 120.0
            },
            {
                "start_time": 70.975,
                "end_time": 71.1431818,
                "pitch": 34,
                "velocity": 51,
                "duration": 0.1681818,
                "tempo": 120.0
            },
            {
                "start_time": 71.1772727,
                "end_time": 71.3431818,
                "pitch": 34,
                "velocity": 51,
                "duration": 0.1659091,
                "tempo": 120.0
            },
            {
                "start_time": 71.3772727,
                "end_time": 71.5454545,
                "pitch": 34,
                "velocity": 51,
                "duration": 0.1681818,
                "tempo": 120.0
            },
            {
                "start_time": 65.9409091,
                "end_time": 71.5795455,
                "pitch": 14,
                "velocity": 51,
                "duration": 5.6386364,
                "tempo": 120.0
            },
            {
                "start_time": 71.5795455,
                "end_time": 71.7454545,
                "pitch": 41,
                "velocity": 51,
                "duration": 0.1659091,
                "tempo": 120.0
            },
            {
                "start_time": 71.7795455,
                "end_time": 71.9454545,
                "pitch": 41,
                "velocity": 51,
                "duration": 0.1659091,
                "tempo": 120.0
            },
            {
                "start_time": 71.9795455,
                "end_time": 72.1477273,
                "pitch": 41,
                "velocity": 51,
                "duration": 0.1681818,
                "tempo": 120.0
            },
            {
                "start_time": 72.1818182,
                "end_time": 72.2477273,
                "pitch": 41,
                "velocity": 51,
                "duration": 0.0659091,
                "tempo": 120.0
            },
            {
                "start_time": 72.2818182,
                "end_time": 72.35,
                "pitch": 41,
                "velocity": 51,
                "duration": 0.0681818,
                "tempo": 120.0
            },
            {
                "start_time": 72.3840909,
                "end_time": 72.5545455,
                "pitch": 39,
                "velocity": 51,
                "duration": 0.1704545,
                "tempo": 120.0
            },
            {
                "start_time": 72.5886364,
                "end_time": 72.7590909,
                "pitch": 39,
                "velocity": 51,
                "duration": 0.1704545,
                "tempo": 120.0
            },
            {
                "start_time": 72.7954545,
                "end_time": 72.9590909,
                "pitch": 39,
                "velocity": 51,
                "duration": 0.1636364,
                "tempo": 120.0
            },
            {
                "start_time": 72.9909091,
                "end_time": 73.1545455,
                "pitch": 39,
                "velocity": 51,
                "duration": 0.1636364,
                "tempo": 120.0
            },
            {
                "start_time": 73.1863636,
                "end_time": 73.3590909,
                "pitch": 39,
                "velocity": 51,
                "duration": 0.1727273,
                "tempo": 120.0
            },
            {
                "start_time": 73.3931818,
                "end_time": 73.5636364,
                "pitch": 39,
                "velocity": 51,
                "duration": 0.1704545,
                "tempo": 120.0
            },
            {
                "start_time": 73.6,
                "end_time": 73.7659091,
                "pitch": 39,
                "velocity": 51,
                "duration": 0.1659091,
                "tempo": 120.0
            },
            {
                "start_time": 73.8,
                "end_time": 73.9681818,
                "pitch": 39,
                "velocity": 51,
                "duration": 0.1681818,
                "tempo": 120.0
            },
            {
                "start_time": 74.0022727,
                "end_time": 74.1681818,
                "pitch": 39,
                "velocity": 51,
                "duration": 0.1659091,
                "tempo": 120.0
            },
            {
                "start_time": 74.2022727,
                "end_time": 74.3681818,
                "pitch": 39,
                "velocity": 51,
                "duration": 0.1659091,
                "tempo": 120.0
            },
            {
                "start_time": 74.4022727,
                "end_time": 74.5704545,
                "pitch": 39,
                "velocity": 51,
                "duration": 0.1681818,
                "tempo": 120.0
            },
            {
                "start_time": 74.6045455,
                "end_time": 74.7727273,
                "pitch": 39,
                "velocity": 51,
                "duration": 0.1681818,
                "tempo": 120.0
            },
            {
                "start_time": 74.8068182,
                "end_time": 74.9727273,
                "pitch": 39,
                "velocity": 51,
                "duration": 0.1659091,
                "tempo": 120.0
            },
            {
                "start_time": 75.0068182,
                "end_time": 75.175,
                "pitch": 39,
                "velocity": 51,
                "duration": 0.1681818,
                "tempo": 120.0
            },
            {
                "start_time": 75.2090909,
                "end_time": 75.375,
                "pitch": 39,
                "velocity": 51,
                "duration": 0.1659091,
                "tempo": 120.0
            },
            {
                "start_time": 75.4090909,
                "end_time": 75.475,
                "pitch": 39,
                "velocity": 51,
                "duration": 0.0659091,
                "tempo": 120.0
            },
            {
                "start_time": 75.5090909,
                "end_time": 75.575,
                "pitch": 39,
                "velocity": 51,
                "duration": 0.0659091,
                "tempo": 120.0
            },
            {
                "start_time": 75.6090909,
                "end_time": 75.7772727,
                "pitch": 39,
                "velocity": 51,
                "duration": 0.1681818,
                "tempo": 120.0
            },
            {
                "start_time": 65.7431818,
                "end_time": 75.9795455,
                "pitch": 38,
                "velocity": 51,
                "duration": 10.2363636,
                "tempo": 120.0
            },
            {
                "start_time": 75.8113636,
                "end_time": 75.9795455,
                "pitch": 38,
                "velocity": 51,
                "duration": 0.1681818,
                "tempo": 120.0
            },
            {
                "start_time": 76.0136364,
                "end_time": 76.1795455,
                "pitch": 38,
                "velocity": 51,
                "duration": 0.1659091,
                "tempo": 120.0
            },
            {
                "start_time": 76.2136364,
                "end_time": 76.3795455,
                "pitch": 38,
                "velocity": 51,
                "duration": 0.1659091,
                "tempo": 120.0
            },
            {
                "start_time": 76.4136364,
                "end_time": 76.5818182,
                "pitch": 38,
                "velocity": 51,
                "duration": 0.1681818,
                "tempo": 120.0
            },
            {
                "start_time": 76.6159091,
                "end_time": 76.7818182,
                "pitch": 38,
                "velocity": 51,
                "duration": 0.1659091,
                "tempo": 120.0
            },
            {
                "start_time": 76.8159091,
                "end_time": 76.9840909,
                "pitch": 38,
                "velocity": 51,
                "duration": 0.1681818,
                "tempo": 120.0
            },
            {
                "start_time": 77.0181818,
                "end_time": 77.1863636,
                "pitch": 38,
                "velocity": 51,
                "duration": 0.1681818,
                "tempo": 120.0
            },
            {
                "start_time": 77.2204545,
                "end_time": 77.3863636,
                "pitch": 38,
                "velocity": 51,
                "duration": 0.1659091,
                "tempo": 120.0
            },
            {
                "start_time": 77.4204545,
                "end_time": 77.5863636,
                "pitch": 38,
                "velocity": 51,
                "duration": 0.1659091,
                "tempo": 120.0
            },
            {
                "start_time": 77.6204545,
                "end_time": 77.7886364,
                "pitch": 38,
                "velocity": 51,
                "duration": 0.1681818,
                "tempo": 120.0
            },
            {
                "start_time": 77.8227273,
                "end_time": 77.9886364,
                "pitch": 38,
                "velocity": 51,
                "duration": 0.1659091,
                "tempo": 120.0
            },
            {
                "start_time": 78.0227273,
                "end_time": 78.1954545,
                "pitch": 38,
                "velocity": 51,
                "duration": 0.1727273,
                "tempo": 120.0
            },
            {
                "start_time": 78.2295455,
                "end_time": 78.4,
                "pitch": 38,
                "velocity": 51,
                "duration": 0.1704545,
                "tempo": 120.0
            },
            {
                "start_time": 78.4340909,
                "end_time": 78.5977273,
                "pitch": 38,
                "velocity": 51,
                "duration": 0.1636364,
                "tempo": 120.0
            },
            {
                "start_time": 78.6318182,
                "end_time": 78.6954545,
                "pitch": 38,
                "velocity": 51,
                "duration": 0.0636364,
                "tempo": 120.0
            },
            {
                "start_time": 78.7295455,
                "end_time": 78.7954545,
                "pitch": 38,
                "velocity": 51,
                "duration": 0.0659091,
                "tempo": 120.0
            },
            {
                "start_time": 78.8272727,
                "end_time": 78.9977273,
                "pitch": 36,
                "velocity": 51,
                "duration": 0.1704545,
                "tempo": 120.0
            },
            {
                "start_time": 79.0318182,
                "end_time": 79.2045455,
                "pitch": 36,
                "velocity": 51,
                "duration": 0.1727273,
                "tempo": 120.0
            },
            {
                "start_time": 79.2386364,
                "end_time": 79.4022727,
                "pitch": 36,
                "velocity": 51,
                "duration": 0.1636364,
                "tempo": 120.0
            },
            {
                "start_time": 79.4363636,
                "end_time": 79.5977273,
                "pitch": 36,
                "velocity": 51,
                "duration": 0.1613636,
                "tempo": 120.0
            },
            {
                "start_time": 79.6318182,
                "end_time": 79.8,
                "pitch": 36,
                "velocity": 51,
                "duration": 0.1681818,
                "tempo": 120.0
            },
            {
                "start_time": 79.8340909,
                "end_time": 80.0,
                "pitch": 36,
                "velocity": 51,
                "duration": 0.1659091,
                "tempo": 120.0
            },
            {
                "start_time": 80.0340909,
                "end_time": 80.2,
                "pitch": 36,
                "velocity": 51,
                "duration": 0.1659091,
                "tempo": 120.0
            },
            {
                "start_time": 80.2340909,
                "end_time": 80.4022727,
                "pitch": 36,
                "velocity": 51,
                "duration": 0.1681818,
                "tempo": 120.0
            },
            {
                "start_time": 80.4340909,
                "end_time": 80.6068182,
                "pitch": 36,
                "velocity": 51,
                "duration": 0.1727273,
                "tempo": 120.0
            },
            {
                "start_time": 80.6409091,
                "end_time": 80.8113636,
                "pitch": 36,
                "velocity": 51,
                "duration": 0.1704545,
                "tempo": 120.0
            },
            {
                "start_time": 80.8454545,
                "end_time": 81.0136364,
                "pitch": 36,
                "velocity": 51,
                "duration": 0.1681818,
                "tempo": 120.0
            },
            {
                "start_time": 81.0477273,
                "end_time": 81.2136364,
                "pitch": 36,
                "velocity": 51,
                "duration": 0.1659091,
                "tempo": 120.0
            },
            {
                "start_time": 81.2477273,
                "end_time": 81.4159091,
                "pitch": 36,
                "velocity": 51,
                "duration": 0.1681818,
                "tempo": 120.0
            },
            {
                "start_time": 81.4477273,
                "end_time": 81.6159091,
                "pitch": 36,
                "velocity": 51,
                "duration": 0.1681818,
                "tempo": 120.0
            },
            {
                "start_time": 81.65,
                "end_time": 81.8159091,
                "pitch": 36,
                "velocity": 51,
                "duration": 0.1659091,
                "tempo": 120.0
            },
            {
                "start_time": 69.1659091,
                "end_time": 81.85,
                "pitch": 40,
                "velocity": 51,
                "duration": 12.6840909,
                "tempo": 120.0
            },
            {
                "start_time": 81.85,
                "end_time": 81.9159091,
                "pitch": 34,
                "velocity": 51,
                "duration": 0.0659091,
                "tempo": 120.0
            },
            {
                "start_time": 81.95,
                "end_time": 82.0181818,
                "pitch": 34,
                "velocity": 51,
                "duration": 0.0681818,
                "tempo": 120.0
            },
            {
                "start_time": 82.0522727,
                "end_time": 82.2181818,
                "pitch": 32,
                "velocity": 51,
                "duration": 0.1659091,
                "tempo": 120.0
            },
            {
                "start_time": 82.2522727,
                "end_time": 82.4204545,
                "pitch": 32,
                "velocity": 51,
                "duration": 0.1681818,
                "tempo": 120.0
            },
            {
                "start_time": 82.4545455,
                "end_time": 82.6227273,
                "pitch": 32,
                "velocity": 51,
                "duration": 0.1681818,
                "tempo": 120.0
            },
            {
                "start_time": 82.6568182,
                "end_time": 82.7227273,
                "pitch": 32,
                "velocity": 51,
                "duration": 0.0659091,
                "tempo": 120.0
            },
            {
                "start_time": 82.7568182,
                "end_time": 82.8227273,
                "pitch": 32,
                "velocity": 51,
                "duration": 0.0659091,
                "tempo": 120.0
            },
            {
                "start_time": 82.8568182,
                "end_time": 83.025,
                "pitch": 32,
                "velocity": 51,
                "duration": 0.1681818,
                "tempo": 120.0
            },
            {
                "start_time": 83.0590909,
                "end_time": 83.225,
                "pitch": 32,
                "velocity": 51,
                "duration": 0.1659091,
                "tempo": 120.0
            },
            {
                "start_time": 83.2590909,
                "end_time": 83.425,
                "pitch": 32,
                "velocity": 51,
                "duration": 0.1659091,
                "tempo": 120.0
            },
            {
                "start_time": 83.4590909,
                "end_time": 83.5272727,
                "pitch": 32,
                "velocity": 51,
                "duration": 0.0681818,
                "tempo": 120.0
            },
            {
                "start_time": 83.5590909,
                "end_time": 83.6272727,
                "pitch": 32,
                "velocity": 51,
                "duration": 0.0681818,
                "tempo": 120.0
            },
            {
                "start_time": 82.0522727,
                "end_time": 83.8272727,
                "pitch": 34,
                "velocity": 51,
                "duration": 1.775,
                "tempo": 120.0
            },
            {
                "start_time": 83.6613636,
                "end_time": 83.8272727,
                "pitch": 34,
                "velocity": 51,
                "duration": 0.1659091,
                "tempo": 120.0
            },
            {
                "start_time": 83.8613636,
                "end_time": 83.9272727,
                "pitch": 34,
                "velocity": 51,
                "duration": 0.0659091,
                "tempo": 120.0
            },
            {
                "start_time": 83.9613636,
                "end_time": 84.0272727,
                "pitch": 34,
                "velocity": 51,
                "duration": 0.0659091,
                "tempo": 120.0
            },
            {
                "start_time": 71.5795455,
                "end_time": 84.0613636,
                "pitch": 14,
                "velocity": 51,
                "duration": 12.4818182,
                "tempo": 120.0
            },
            {
                "start_time": 84.0613636,
                "end_time": 84.2295455,
                "pitch": 36,
                "velocity": 51,
                "duration": 0.1681818,
                "tempo": 120.0
            },
            {
                "start_time": 84.2636364,
                "end_time": 84.3295455,
                "pitch": 36,
                "velocity": 51,
                "duration": 0.0659091,
                "tempo": 120.0
            },
            {
                "start_time": 84.3636364,
                "end_time": 84.4318182,
                "pitch": 36,
                "velocity": 51,
                "duration": 0.0681818,
                "tempo": 120.0
            },
            {
                "start_time": 78.8272727,
                "end_time": 84.6318182,
                "pitch": 38,
                "velocity": 51,
                "duration": 5.8045455,
                "tempo": 120.0
            },
            {
                "start_time": 84.4659091,
                "end_time": 84.6318182,
                "pitch": 38,
                "velocity": 51,
                "duration": 0.1659091,
                "tempo": 120.0
            },
            {
                "start_time": 84.6659091,
                "end_time": 84.7340909,
                "pitch": 38,
                "velocity": 51,
                "duration": 0.0681818,
                "tempo": 120.0
            },
            {
                "start_time": 84.7681818,
                "end_time": 84.8340909,
                "pitch": 38,
                "velocity": 51,
                "duration": 0.0659091,
                "tempo": 120.0
            },
            {
                "start_time": 72.3840909,
                "end_time": 85.0340909,
                "pitch": 41,
                "velocity": 51,
                "duration": 12.65,
                "tempo": 120.0
            },
            {
                "start_time": 84.8681818,
                "end_time": 85.0340909,
                "pitch": 41,
                "velocity": 51,
                "duration": 0.1659091,
                "tempo": 120.0
            },
            {
                "start_time": 85.0681818,
                "end_time": 85.1340909,
                "pitch": 41,
                "velocity": 51,
                "duration": 0.0659091,
                "tempo": 120.0
            },
            {
                "start_time": 85.1681818,
                "end_time": 85.2340909,
                "pitch": 41,
                "velocity": 51,
                "duration": 0.0659091,
                "tempo": 120.0
            },
            {
                "start_time": 84.4659091,
                "end_time": 85.4386364,
                "pitch": 36,
                "velocity": 51,
                "duration": 0.9727273,
                "tempo": 120.0
            },
            {
                "start_time": 85.2704545,
                "end_time": 85.4386364,
                "pitch": 36,
                "velocity": 51,
                "duration": 0.1681818,
                "tempo": 120.0
            }
        ],
        "Acoustic Grand Piano": [
            {
                "start_time": 14.7,
                "end_time": 14.8954545,
                "pitch": 77,
                "velocity": 40,
                "duration": 0.1954545,
                "tempo": 120.0
            },
            {
                "start_time": 14.8954545,
                "end_time": 15.1,
                "pitch": 79,
                "velocity": 40,
                "duration": 0.2045455,
                "tempo": 120.0
            },
            {
                "start_time": 15.5090909,
                "end_time": 15.7090909,
                "pitch": 79,
                "velocity": 40,
                "duration": 0.2,
                "tempo": 120.0
            },
            {
                "start_time": 14.7,
                "end_time": 16.3136364,
                "pitch": 72,
                "velocity": 40,
                "duration": 1.6136364,
                "tempo": 120.0
            },
            {
                "start_time": 16.1136364,
                "end_time": 16.3136364,
                "pitch": 72,
                "velocity": 40,
                "duration": 0.2,
                "tempo": 120.0
            },
            {
                "start_time": 16.3136364,
                "end_time": 16.3159091,
                "pitch": 72,
                "velocity": 40,
                "duration": 0.0022727,
                "tempo": 120.0
            },
            {
                "start_time": 16.1136364,
                "end_time": 16.5159091,
                "pitch": 77,
                "velocity": 40,
                "duration": 0.4022727,
                "tempo": 120.0
            },
            {
                "start_time": 16.3159091,
                "end_time": 16.5159091,
                "pitch": 77,
                "velocity": 40,
                "duration": 0.2,
                "tempo": 120.0
            },
            {
                "start_time": 14.8954545,
                "end_time": 16.5159091,
                "pitch": 90,
                "velocity": 40,
                "duration": 1.6204545,
                "tempo": 120.0
            },
            {
                "start_time": 16.5159091,
                "end_time": 16.7159091,
                "pitch": 79,
                "velocity": 40,
                "duration": 0.2,
                "tempo": 120.0
            },
            {
                "start_time": 15.5090909,
                "end_time": 17.1181818,
                "pitch": 88,
                "velocity": 40,
                "duration": 1.6090909,
                "tempo": 120.0
            },
            {
                "start_time": 17.1181818,
                "end_time": 17.3159091,
                "pitch": 79,
                "velocity": 40,
                "duration": 0.1977273,
                "tempo": 120.0
            },
            {
                "start_time": 17.7204545,
                "end_time": 17.9204545,
                "pitch": 72,
                "velocity": 40,
                "duration": 0.2,
                "tempo": 120.0
            },
            {
                "start_time": 17.7204545,
                "end_time": 18.1204545,
                "pitch": 77,
                "velocity": 40,
                "duration": 0.4,
                "tempo": 120.0
            },
            {
                "start_time": 17.9204545,
                "end_time": 18.1204545,
                "pitch": 77,
                "velocity": 40,
                "duration": 0.2,
                "tempo": 120.0
            },
            {
                "start_time": 16.5159091,
                "end_time": 18.1204545,
                "pitch": 90,
                "velocity": 40,
                "duration": 1.6045455,
                "tempo": 120.0
            },
            {
                "start_time": 18.1204545,
                "end_time": 18.3227273,
                "pitch": 79,
                "velocity": 40,
                "duration": 0.2022727,
                "tempo": 120.0
            },
            {
                "start_time": 17.1181818,
                "end_time": 18.725,
                "pitch": 88,
                "velocity": 40,
                "duration": 1.6068182,
                "tempo": 120.0
            },
            {
                "start_time": 18.725,
                "end_time": 18.925,
                "pitch": 79,
                "velocity": 40,
                "duration": 0.2,
                "tempo": 120.0
            },
            {
                "start_time": 17.9204545,
                "end_time": 19.5272727,
                "pitch": 72,
                "velocity": 40,
                "duration": 1.6068182,
                "tempo": 120.0
            },
            {
                "start_time": 19.325,
                "end_time": 19.5272727,
                "pitch": 72,
                "velocity": 40,
                "duration": 0.2022727,
                "tempo": 120.0
            },
            {
                "start_time": 19.325,
                "end_time": 19.7295455,
                "pitch": 77,
                "velocity": 40,
                "duration": 0.4045455,
                "tempo": 120.0
            },
            {
                "start_time": 19.5272727,
                "end_time": 19.7295455,
                "pitch": 77,
                "velocity": 40,
                "duration": 0.2022727,
                "tempo": 120.0
            },
            {
                "start_time": 18.1204545,
                "end_time": 19.7295455,
                "pitch": 90,
                "velocity": 40,
                "duration": 1.6090909,
                "tempo": 120.0
            },
            {
                "start_time": 19.7295455,
                "end_time": 19.9295455,
                "pitch": 79,
                "velocity": 40,
                "duration": 0.2,
                "tempo": 120.0
            },
            {
                "start_time": 18.725,
                "end_time": 20.3318182,
                "pitch": 88,
                "velocity": 40,
                "duration": 1.6068182,
                "tempo": 120.0
            },
            {
                "start_time": 20.3318182,
                "end_time": 20.5318182,
                "pitch": 79,
                "velocity": 40,
                "duration": 0.2,
                "tempo": 120.0
            },
            {
                "start_time": 19.5272727,
                "end_time": 21.1386364,
                "pitch": 72,
                "velocity": 40,
                "duration": 1.6113636,
                "tempo": 120.0
            },
            {
                "start_time": 20.9340909,
                "end_time": 21.1386364,
                "pitch": 72,
                "velocity": 40,
                "duration": 0.2045455,
                "tempo": 120.0
            },
            {
                "start_time": 20.9340909,
                "end_time": 21.3431818,
                "pitch": 77,
                "velocity": 40,
                "duration": 0.4090909,
                "tempo": 120.0
            },
            {
                "start_time": 21.1386364,
                "end_time": 21.3431818,
                "pitch": 77,
                "velocity": 40,
                "duration": 0.2045455,
                "tempo": 120.0
            },
            {
                "start_time": 19.7295455,
                "end_time": 21.3431818,
                "pitch": 90,
                "velocity": 40,
                "duration": 1.6136364,
                "tempo": 120.0
            },
            {
                "start_time": 21.3431818,
                "end_time": 21.5409091,
                "pitch": 79,
                "velocity": 40,
                "duration": 0.1977273,
                "tempo": 120.0
            },
            {
                "start_time": 20.3318182,
                "end_time": 21.9431818,
                "pitch": 88,
                "velocity": 40,
                "duration": 1.6113636,
                "tempo": 120.0
            },
            {
                "start_time": 21.9431818,
                "end_time": 22.1477273,
                "pitch": 79,
                "velocity": 40,
                "duration": 0.2045455,
                "tempo": 120.0
            },
            {
                "start_time": 21.1386364,
                "end_time": 22.75,
                "pitch": 72,
                "velocity": 40,
                "duration": 1.6113636,
                "tempo": 120.0
            },
            {
                "start_time": 22.55,
                "end_time": 22.75,
                "pitch": 72,
                "velocity": 40,
                "duration": 0.2,
                "tempo": 120.0
            },
            {
                "start_time": 22.55,
                "end_time": 22.9522727,
                "pitch": 77,
                "velocity": 40,
                "duration": 0.4022727,
                "tempo": 120.0
            },
            {
                "start_time": 22.75,
                "end_time": 22.9522727,
                "pitch": 77,
                "velocity": 40,
                "duration": 0.2022727,
                "tempo": 120.0
            },
            {
                "start_time": 21.3431818,
                "end_time": 22.9522727,
                "pitch": 90,
                "velocity": 40,
                "duration": 1.6090909,
                "tempo": 120.0
            },
            {
                "start_time": 22.9522727,
                "end_time": 23.1522727,
                "pitch": 79,
                "velocity": 40,
                "duration": 0.2,
                "tempo": 120.0
            },
            {
                "start_time": 21.9431818,
                "end_time": 23.5522727,
                "pitch": 88,
                "velocity": 40,
                "duration": 1.6090909,
                "tempo": 120.0
            },
            {
                "start_time": 23.5522727,
                "end_time": 23.7522727,
                "pitch": 79,
                "velocity": 40,
                "duration": 0.2,
                "tempo": 120.0
            },
            {
                "start_time": 22.75,
                "end_time": 24.3568182,
                "pitch": 72,
                "velocity": 40,
                "duration": 1.6068182,
                "tempo": 120.0
            },
            {
                "start_time": 24.1568182,
                "end_time": 24.3568182,
                "pitch": 72,
                "velocity": 40,
                "duration": 0.2,
                "tempo": 120.0
            },
            {
                "start_time": 24.1568182,
                "end_time": 24.5568182,
                "pitch": 77,
                "velocity": 40,
                "duration": 0.4,
                "tempo": 120.0
            },
            {
                "start_time": 24.3568182,
                "end_time": 24.5568182,
                "pitch": 77,
                "velocity": 40,
                "duration": 0.2,
                "tempo": 120.0
            },
            {
                "start_time": 22.9522727,
                "end_time": 24.5568182,
                "pitch": 90,
                "velocity": 40,
                "duration": 1.6045455,
                "tempo": 120.0
            },
            {
                "start_time": 24.5568182,
                "end_time": 24.7590909,
                "pitch": 79,
                "velocity": 40,
                "duration": 0.2022727,
                "tempo": 120.0
            },
            {
                "start_time": 23.5522727,
                "end_time": 25.1613636,
                "pitch": 88,
                "velocity": 40,
                "duration": 1.6090909,
                "tempo": 120.0
            },
            {
                "start_time": 25.1613636,
                "end_time": 25.3590909,
                "pitch": 79,
                "velocity": 40,
                "duration": 0.1977273,
                "tempo": 120.0
            },
            {
                "start_time": 24.3568182,
                "end_time": 25.9636364,
                "pitch": 72,
                "velocity": 40,
                "duration": 1.6068182,
                "tempo": 120.0
            },
            {
                "start_time": 25.7613636,
                "end_time": 25.9636364,
                "pitch": 72,
                "velocity": 40,
                "duration": 0.2022727,
                "tempo": 120.0
            },
            {
                "start_time": 25.7613636,
                "end_time": 26.1636364,
                "pitch": 77,
                "velocity": 40,
                "duration": 0.4022727,
                "tempo": 120.0
            },
            {
                "start_time": 25.9636364,
                "end_time": 26.1636364,
                "pitch": 77,
                "velocity": 40,
                "duration": 0.2,
                "tempo": 120.0
            },
            {
                "start_time": 24.5568182,
                "end_time": 26.1636364,
                "pitch": 90,
                "velocity": 40,
                "duration": 1.6068182,
                "tempo": 120.0
            },
            {
                "start_time": 26.1636364,
                "end_time": 26.3636364,
                "pitch": 79,
                "velocity": 40,
                "duration": 0.2,
                "tempo": 120.0
            },
            {
                "start_time": 25.1613636,
                "end_time": 26.7659091,
                "pitch": 88,
                "velocity": 40,
                "duration": 1.6045455,
                "tempo": 120.0
            },
            {
                "start_time": 26.7659091,
                "end_time": 26.9681818,
                "pitch": 79,
                "velocity": 40,
                "duration": 0.2022727,
                "tempo": 120.0
            },
            {
                "start_time": 25.9636364,
                "end_time": 27.5681818,
                "pitch": 72,
                "velocity": 40,
                "duration": 1.6045455,
                "tempo": 120.0
            },
            {
                "start_time": 27.3704545,
                "end_time": 27.5681818,
                "pitch": 72,
                "velocity": 40,
                "duration": 0.1977273,
                "tempo": 120.0
            },
            {
                "start_time": 27.3704545,
                "end_time": 27.7681818,
                "pitch": 77,
                "velocity": 40,
                "duration": 0.3977273,
                "tempo": 120.0
            },
            {
                "start_time": 27.5681818,
                "end_time": 27.7681818,
                "pitch": 77,
                "velocity": 40,
                "duration": 0.2,
                "tempo": 120.0
            },
            {
                "start_time": 26.1636364,
                "end_time": 27.7681818,
                "pitch": 90,
                "velocity": 40,
                "duration": 1.6045455,
                "tempo": 120.0
            },
            {
                "start_time": 27.7681818,
                "end_time": 27.9704545,
                "pitch": 79,
                "velocity": 40,
                "duration": 0.2022727,
                "tempo": 120.0
            },
            {
                "start_time": 26.7659091,
                "end_time": 28.3772727,
                "pitch": 88,
                "velocity": 40,
                "duration": 1.6113636,
                "tempo": 120.0
            },
            {
                "start_time": 28.3772727,
                "end_time": 28.5840909,
                "pitch": 79,
                "velocity": 40,
                "duration": 0.2068182,
                "tempo": 120.0
            },
            {
                "start_time": 27.5681818,
                "end_time": 29.1818182,
                "pitch": 72,
                "velocity": 40,
                "duration": 1.6136364,
                "tempo": 120.0
            },
            {
                "start_time": 28.9772727,
                "end_time": 29.1818182,
                "pitch": 72,
                "velocity": 40,
                "duration": 0.2045455,
                "tempo": 120.0
            },
            {
                "start_time": 28.9772727,
                "end_time": 29.3863636,
                "pitch": 77,
                "velocity": 40,
                "duration": 0.4090909,
                "tempo": 120.0
            },
            {
                "start_time": 29.1818182,
                "end_time": 29.3863636,
                "pitch": 77,
                "velocity": 40,
                "duration": 0.2045455,
                "tempo": 120.0
            },
            {
                "start_time": 27.7681818,
                "end_time": 29.3863636,
                "pitch": 90,
                "velocity": 40,
                "duration": 1.6181818,
                "tempo": 120.0
            },
            {
                "start_time": 29.3863636,
                "end_time": 29.5886364,
                "pitch": 79,
                "velocity": 40,
                "duration": 0.2022727,
                "tempo": 120.0
            },
            {
                "start_time": 28.3772727,
                "end_time": 29.9886364,
                "pitch": 88,
                "velocity": 40,
                "duration": 1.6113636,
                "tempo": 120.0
            },
            {
                "start_time": 29.9886364,
                "end_time": 30.1886364,
                "pitch": 79,
                "velocity": 40,
                "duration": 0.2,
                "tempo": 120.0
            },
            {
                "start_time": 29.1818182,
                "end_time": 30.7931818,
                "pitch": 72,
                "velocity": 40,
                "duration": 1.6113636,
                "tempo": 120.0
            },
            {
                "start_time": 30.5931818,
                "end_time": 30.7931818,
                "pitch": 72,
                "velocity": 40,
                "duration": 0.2,
                "tempo": 120.0
            },
            {
                "start_time": 30.5931818,
                "end_time": 30.9931818,
                "pitch": 77,
                "velocity": 40,
                "duration": 0.4,
                "tempo": 120.0
            },
            {
                "start_time": 30.7931818,
                "end_time": 30.9931818,
                "pitch": 77,
                "velocity": 40,
                "duration": 0.2,
                "tempo": 120.0
            },
            {
                "start_time": 29.3863636,
                "end_time": 30.9931818,
                "pitch": 90,
                "velocity": 40,
                "duration": 1.6068182,
                "tempo": 120.0
            },
            {
                "start_time": 30.9931818,
                "end_time": 31.1931818,
                "pitch": 79,
                "velocity": 40,
                "duration": 0.2,
                "tempo": 120.0
            },
            {
                "start_time": 29.9886364,
                "end_time": 31.5954545,
                "pitch": 88,
                "velocity": 40,
                "duration": 1.6068182,
                "tempo": 120.0
            },
            {
                "start_time": 31.5954545,
                "end_time": 31.7954545,
                "pitch": 79,
                "velocity": 40,
                "duration": 0.2,
                "tempo": 120.0
            },
            {
                "start_time": 30.7931818,
                "end_time": 32.3977273,
                "pitch": 72,
                "velocity": 40,
                "duration": 1.6045455,
                "tempo": 120.0
            },
            {
                "start_time": 32.1977273,
                "end_time": 32.3977273,
                "pitch": 72,
                "velocity": 40,
                "duration": 0.2,
                "tempo": 120.0
            },
            {
                "start_time": 32.1977273,
                "end_time": 32.5977273,
                "pitch": 77,
                "velocity": 40,
                "duration": 0.4,
                "tempo": 120.0
            },
            {
                "start_time": 32.3977273,
                "end_time": 32.5977273,
                "pitch": 77,
                "velocity": 40,
                "duration": 0.2,
                "tempo": 120.0
            },
            {
                "start_time": 30.9931818,
                "end_time": 32.5977273,
                "pitch": 90,
                "velocity": 40,
                "duration": 1.6045455,
                "tempo": 120.0
            },
            {
                "start_time": 32.5977273,
                "end_time": 32.8,
                "pitch": 79,
                "velocity": 40,
                "duration": 0.2022727,
                "tempo": 120.0
            },
            {
                "start_time": 31.5954545,
                "end_time": 33.2,
                "pitch": 88,
                "velocity": 40,
                "duration": 1.6045455,
                "tempo": 120.0
            },
            {
                "start_time": 33.2,
                "end_time": 33.4,
                "pitch": 79,
                "velocity": 40,
                "duration": 0.2,
                "tempo": 120.0
            },
            {
                "start_time": 32.3977273,
                "end_time": 34.0022727,
                "pitch": 72,
                "velocity": 40,
                "duration": 1.6045455,
                "tempo": 120.0
            },
            {
                "start_time": 33.8022727,
                "end_time": 34.0022727,
                "pitch": 72,
                "velocity": 40,
                "duration": 0.2,
                "tempo": 120.0
            },
            {
                "start_time": 33.8022727,
                "end_time": 34.2022727,
                "pitch": 77,
                "velocity": 40,
                "duration": 0.4,
                "tempo": 120.0
            },
            {
                "start_time": 34.0022727,
                "end_time": 34.2022727,
                "pitch": 77,
                "velocity": 40,
                "duration": 0.2,
                "tempo": 120.0
            },
            {
                "start_time": 32.5977273,
                "end_time": 34.2022727,
                "pitch": 90,
                "velocity": 40,
                "duration": 1.6045455,
                "tempo": 120.0
            },
            {
                "start_time": 34.2022727,
                "end_time": 34.4022727,
                "pitch": 79,
                "velocity": 40,
                "duration": 0.2,
                "tempo": 120.0
            },
            {
                "start_time": 33.2,
                "end_time": 34.8045455,
                "pitch": 88,
                "velocity": 40,
                "duration": 1.6045455,
                "tempo": 120.0
            },
            {
                "start_time": 34.8045455,
                "end_time": 35.0068182,
                "pitch": 79,
                "velocity": 40,
                "duration": 0.2022727,
                "tempo": 120.0
            },
            {
                "start_time": 34.0022727,
                "end_time": 35.6068182,
                "pitch": 72,
                "velocity": 40,
                "duration": 1.6045455,
                "tempo": 120.0
            },
            {
                "start_time": 35.4068182,
                "end_time": 35.6068182,
                "pitch": 72,
                "velocity": 40,
                "duration": 0.2,
                "tempo": 120.0
            },
            {
                "start_time": 35.4068182,
                "end_time": 35.8068182,
                "pitch": 77,
                "velocity": 40,
                "duration": 0.4,
                "tempo": 120.0
            },
            {
                "start_time": 35.6068182,
                "end_time": 35.8068182,
                "pitch": 77,
                "velocity": 40,
                "duration": 0.2,
                "tempo": 120.0
            },
            {
                "start_time": 34.2022727,
                "end_time": 35.8068182,
                "pitch": 90,
                "velocity": 40,
                "duration": 1.6045455,
                "tempo": 120.0
            },
            {
                "start_time": 35.8068182,
                "end_time": 36.0068182,
                "pitch": 79,
                "velocity": 40,
                "duration": 0.2,
                "tempo": 120.0
            },
            {
                "start_time": 34.8045455,
                "end_time": 36.4136364,
                "pitch": 88,
                "velocity": 40,
                "duration": 1.6090909,
                "tempo": 120.0
            },
            {
                "start_time": 36.4136364,
                "end_time": 36.6181818,
                "pitch": 79,
                "velocity": 40,
                "duration": 0.2045455,
                "tempo": 120.0
            },
            {
                "start_time": 35.6068182,
                "end_time": 37.2204545,
                "pitch": 72,
                "velocity": 40,
                "duration": 1.6136364,
                "tempo": 120.0
            },
            {
                "start_time": 37.0204545,
                "end_time": 37.2204545,
                "pitch": 72,
                "velocity": 40,
                "duration": 0.2,
                "tempo": 120.0
            },
            {
                "start_time": 37.0204545,
                "end_time": 37.4204545,
                "pitch": 77,
                "velocity": 40,
                "duration": 0.4,
                "tempo": 120.0
            },
            {
                "start_time": 37.2204545,
                "end_time": 37.4204545,
                "pitch": 77,
                "velocity": 40,
                "duration": 0.2,
                "tempo": 120.0
            },
            {
                "start_time": 35.8068182,
                "end_time": 37.4204545,
                "pitch": 90,
                "velocity": 40,
                "duration": 1.6136364,
                "tempo": 120.0
            },
            {
                "start_time": 37.4204545,
                "end_time": 37.6204545,
                "pitch": 79,
                "velocity": 40,
                "duration": 0.2,
                "tempo": 120.0
            },
            {
                "start_time": 36.4136364,
                "end_time": 38.0204545,
                "pitch": 88,
                "velocity": 40,
                "duration": 1.6068182,
                "tempo": 120.0
            },
            {
                "start_time": 38.0204545,
                "end_time": 38.2204545,
                "pitch": 79,
                "velocity": 40,
                "duration": 0.2,
                "tempo": 120.0
            },
            {
                "start_time": 37.2204545,
                "end_time": 38.825,
                "pitch": 72,
                "velocity": 40,
                "duration": 1.6045455,
                "tempo": 120.0
            },
            {
                "start_time": 38.625,
                "end_time": 38.825,
                "pitch": 72,
                "velocity": 40,
                "duration": 0.2,
                "tempo": 120.0
            },
            {
                "start_time": 38.625,
                "end_time": 39.025,
                "pitch": 77,
                "velocity": 40,
                "duration": 0.4,
                "tempo": 120.0
            },
            {
                "start_time": 38.825,
                "end_time": 39.025,
                "pitch": 77,
                "velocity": 40,
                "duration": 0.2,
                "tempo": 120.0
            },
            {
                "start_time": 37.4204545,
                "end_time": 39.025,
                "pitch": 90,
                "velocity": 40,
                "duration": 1.6045455,
                "tempo": 120.0
            },
            {
                "start_time": 39.025,
                "end_time": 39.225,
                "pitch": 79,
                "velocity": 40,
                "duration": 0.2,
                "tempo": 120.0
            },
            {
                "start_time": 38.0204545,
                "end_time": 39.6272727,
                "pitch": 88,
                "velocity": 40,
                "duration": 1.6068182,
                "tempo": 120.0
            },
            {
                "start_time": 39.6272727,
                "end_time": 39.825,
                "pitch": 79,
                "velocity": 40,
                "duration": 0.1977273,
                "tempo": 120.0
            },
            {
                "start_time": 38.825,
                "end_time": 46.8545455,
                "pitch": 72,
                "velocity": 40,
                "duration": 8.0295455,
                "tempo": 120.0
            },
            {
                "start_time": 46.6568182,
                "end_time": 46.8545455,
                "pitch": 72,
                "velocity": 40,
                "duration": 0.1977273,
                "tempo": 120.0
            },
            {
                "start_time": 46.8545455,
                "end_time": 46.8568182,
                "pitch": 72,
                "velocity": 40,
                "duration": 0.0022727,
                "tempo": 120.0
            },
            {
                "start_time": 46.8568182,
                "end_time": 47.0545455,
                "pitch": 77,
                "velocity": 40,
                "duration": 0.1977273,
                "tempo": 120.0
            },
            {
                "start_time": 39.025,
                "end_time": 47.0545455,
                "pitch": 90,
                "velocity": 40,
                "duration": 8.0295455,
                "tempo": 120.0
            },
            {
                "start_time": 47.0545455,
                "end_time": 47.2545455,
                "pitch": 79,
                "velocity": 40,
                "duration": 0.2,
                "tempo": 120.0
            },
            {
                "start_time": 39.6272727,
                "end_time": 47.6568182,
                "pitch": 88,
                "velocity": 40,
                "duration": 8.0295455,
                "tempo": 120.0
            },
            {
                "start_time": 47.6568182,
                "end_time": 47.8590909,
                "pitch": 79,
                "velocity": 40,
                "duration": 0.2022727,
                "tempo": 120.0
            },
            {
                "start_time": 48.2590909,
                "end_time": 48.4590909,
                "pitch": 72,
                "velocity": 40,
                "duration": 0.2,
                "tempo": 120.0
            },
            {
                "start_time": 48.2590909,
                "end_time": 48.6590909,
                "pitch": 77,
                "velocity": 40,
                "duration": 0.4,
                "tempo": 120.0
            },
            {
                "start_time": 48.4590909,
                "end_time": 48.6590909,
                "pitch": 77,
                "velocity": 40,
                "duration": 0.2,
                "tempo": 120.0
            },
            {
                "start_time": 47.0545455,
                "end_time": 48.6590909,
                "pitch": 90,
                "velocity": 40,
                "duration": 1.6045455,
                "tempo": 120.0
            },
            {
                "start_time": 48.6590909,
                "end_time": 48.8590909,
                "pitch": 79,
                "velocity": 40,
                "duration": 0.2,
                "tempo": 120.0
            },
            {
                "start_time": 47.6568182,
                "end_time": 49.2613636,
                "pitch": 88,
                "velocity": 40,
                "duration": 1.6045455,
                "tempo": 120.0
            },
            {
                "start_time": 49.2613636,
                "end_time": 49.4613636,
                "pitch": 79,
                "velocity": 40,
                "duration": 0.2,
                "tempo": 120.0
            },
            {
                "start_time": 48.4590909,
                "end_time": 50.0704545,
                "pitch": 72,
                "velocity": 40,
                "duration": 1.6113636,
                "tempo": 120.0
            },
            {
                "start_time": 49.8636364,
                "end_time": 50.0704545,
                "pitch": 72,
                "velocity": 40,
                "duration": 0.2068182,
                "tempo": 120.0
            },
            {
                "start_time": 49.8636364,
                "end_time": 50.275,
                "pitch": 77,
                "velocity": 40,
                "duration": 0.4113636,
                "tempo": 120.0
            },
            {
                "start_time": 50.0704545,
                "end_time": 50.275,
                "pitch": 77,
                "velocity": 40,
                "duration": 0.2045455,
                "tempo": 120.0
            },
            {
                "start_time": 48.6590909,
                "end_time": 50.275,
                "pitch": 90,
                "velocity": 40,
                "duration": 1.6159091,
                "tempo": 120.0
            },
            {
                "start_time": 50.275,
                "end_time": 50.4727273,
                "pitch": 79,
                "velocity": 40,
                "duration": 0.1977273,
                "tempo": 120.0
            },
            {
                "start_time": 49.2613636,
                "end_time": 50.8727273,
                "pitch": 88,
                "velocity": 40,
                "duration": 1.6113636,
                "tempo": 120.0
            },
            {
                "start_time": 50.8727273,
                "end_time": 51.0795455,
                "pitch": 79,
                "velocity": 40,
                "duration": 0.2068182,
                "tempo": 120.0
            },
            {
                "start_time": 50.0704545,
                "end_time": 51.6772727,
                "pitch": 72,
                "velocity": 40,
                "duration": 1.6068182,
                "tempo": 120.0
            },
            {
                "start_time": 51.4727273,
                "end_time": 51.6772727,
                "pitch": 72,
                "velocity": 40,
                "duration": 0.2045455,
                "tempo": 120.0
            },
            {
                "start_time": 51.4727273,
                "end_time": 51.8818182,
                "pitch": 77,
                "velocity": 40,
                "duration": 0.4090909,
                "tempo": 120.0
            },
            {
                "start_time": 51.6772727,
                "end_time": 51.8818182,
                "pitch": 77,
                "velocity": 40,
                "duration": 0.2045455,
                "tempo": 120.0
            },
            {
                "start_time": 50.275,
                "end_time": 51.8840909,
                "pitch": 90,
                "velocity": 40,
                "duration": 1.6090909,
                "tempo": 120.0
            },
            {
                "start_time": 51.8840909,
                "end_time": 52.0840909,
                "pitch": 79,
                "velocity": 40,
                "duration": 0.2,
                "tempo": 120.0
            },
            {
                "start_time": 50.8727273,
                "end_time": 52.4840909,
                "pitch": 88,
                "velocity": 40,
                "duration": 1.6113636,
                "tempo": 120.0
            },
            {
                "start_time": 52.4840909,
                "end_time": 52.6840909,
                "pitch": 79,
                "velocity": 40,
                "duration": 0.2,
                "tempo": 120.0
            },
            {
                "start_time": 51.6772727,
                "end_time": 53.2863636,
                "pitch": 72,
                "velocity": 40,
                "duration": 1.6090909,
                "tempo": 120.0
            },
            {
                "start_time": 53.0863636,
                "end_time": 53.2863636,
                "pitch": 72,
                "velocity": 40,
                "duration": 0.2,
                "tempo": 120.0
            },
            {
                "start_time": 53.0863636,
                "end_time": 53.4886364,
                "pitch": 77,
                "velocity": 40,
                "duration": 0.4022727,
                "tempo": 120.0
            },
            {
                "start_time": 53.2863636,
                "end_time": 53.4886364,
                "pitch": 77,
                "velocity": 40,
                "duration": 0.2022727,
                "tempo": 120.0
            },
            {
                "start_time": 51.8840909,
                "end_time": 53.4886364,
                "pitch": 90,
                "velocity": 40,
                "duration": 1.6045455,
                "tempo": 120.0
            },
            {
                "start_time": 53.4886364,
                "end_time": 53.6886364,
                "pitch": 79,
                "velocity": 40,
                "duration": 0.2,
                "tempo": 120.0
            },
            {
                "start_time": 52.4840909,
                "end_time": 54.0886364,
                "pitch": 88,
                "velocity": 40,
                "duration": 1.6045455,
                "tempo": 120.0
            },
            {
                "start_time": 54.0886364,
                "end_time": 54.2886364,
                "pitch": 79,
                "velocity": 40,
                "duration": 0.2,
                "tempo": 120.0
            },
            {
                "start_time": 53.2863636,
                "end_time": 54.8909091,
                "pitch": 72,
                "velocity": 40,
                "duration": 1.6045455,
                "tempo": 120.0
            },
            {
                "start_time": 54.6909091,
                "end_time": 54.8909091,
                "pitch": 72,
                "velocity": 40,
                "duration": 0.2,
                "tempo": 120.0
            },
            {
                "start_time": 54.6909091,
                "end_time": 55.0909091,
                "pitch": 77,
                "velocity": 40,
                "duration": 0.4,
                "tempo": 120.0
            },
            {
                "start_time": 54.8909091,
                "end_time": 55.0909091,
                "pitch": 77,
                "velocity": 40,
                "duration": 0.2,
                "tempo": 120.0
            },
            {
                "start_time": 53.4886364,
                "end_time": 55.0909091,
                "pitch": 90,
                "velocity": 40,
                "duration": 1.6022727,
                "tempo": 120.0
            },
            {
                "start_time": 55.0909091,
                "end_time": 55.2909091,
                "pitch": 79,
                "velocity": 40,
                "duration": 0.2,
                "tempo": 120.0
            },
            {
                "start_time": 54.0886364,
                "end_time": 55.6931818,
                "pitch": 88,
                "velocity": 40,
                "duration": 1.6045455,
                "tempo": 120.0
            },
            {
                "start_time": 55.6931818,
                "end_time": 55.8931818,
                "pitch": 79,
                "velocity": 40,
                "duration": 0.2,
                "tempo": 120.0
            },
            {
                "start_time": 54.8909091,
                "end_time": 56.4954545,
                "pitch": 72,
                "velocity": 40,
                "duration": 1.6045455,
                "tempo": 120.0
            },
            {
                "start_time": 56.2954545,
                "end_time": 56.4954545,
                "pitch": 72,
                "velocity": 40,
                "duration": 0.2,
                "tempo": 120.0
            },
            {
                "start_time": 56.2954545,
                "end_time": 56.6954545,
                "pitch": 77,
                "velocity": 40,
                "duration": 0.4,
                "tempo": 120.0
            },
            {
                "start_time": 56.4954545,
                "end_time": 56.6954545,
                "pitch": 77,
                "velocity": 40,
                "duration": 0.2,
                "tempo": 120.0
            },
            {
                "start_time": 55.0909091,
                "end_time": 56.6954545,
                "pitch": 90,
                "velocity": 40,
                "duration": 1.6045455,
                "tempo": 120.0
            },
            {
                "start_time": 56.6954545,
                "end_time": 56.8954545,
                "pitch": 79,
                "velocity": 40,
                "duration": 0.2,
                "tempo": 120.0
            },
            {
                "start_time": 55.6931818,
                "end_time": 57.2977273,
                "pitch": 88,
                "velocity": 40,
                "duration": 1.6045455,
                "tempo": 120.0
            },
            {
                "start_time": 57.2977273,
                "end_time": 57.4977273,
                "pitch": 79,
                "velocity": 40,
                "duration": 0.2,
                "tempo": 120.0
            },
            {
                "start_time": 56.4954545,
                "end_time": 58.1045455,
                "pitch": 72,
                "velocity": 40,
                "duration": 1.6090909,
                "tempo": 120.0
            },
            {
                "start_time": 57.9,
                "end_time": 58.1045455,
                "pitch": 72,
                "velocity": 40,
                "duration": 0.2045455,
                "tempo": 120.0
            },
            {
                "start_time": 57.9,
                "end_time": 58.3113636,
                "pitch": 77,
                "velocity": 40,
                "duration": 0.4113636,
                "tempo": 120.0
            },
            {
                "start_time": 58.1045455,
                "end_time": 58.3113636,
                "pitch": 77,
                "velocity": 40,
                "duration": 0.2068182,
                "tempo": 120.0
            },
            {
                "start_time": 56.6954545,
                "end_time": 58.3113636,
                "pitch": 90,
                "velocity": 40,
                "duration": 1.6159091,
                "tempo": 120.0
            },
            {
                "start_time": 58.3113636,
                "end_time": 58.5113636,
                "pitch": 79,
                "velocity": 40,
                "duration": 0.2,
                "tempo": 120.0
            },
            {
                "start_time": 57.2977273,
                "end_time": 58.9113636,
                "pitch": 88,
                "velocity": 40,
                "duration": 1.6136364,
                "tempo": 120.0
            },
            {
                "start_time": 58.9113636,
                "end_time": 59.1068182,
                "pitch": 79,
                "velocity": 40,
                "duration": 0.1954545,
                "tempo": 120.0
            },
            {
                "start_time": 58.1045455,
                "end_time": 59.7181818,
                "pitch": 72,
                "velocity": 40,
                "duration": 1.6136364,
                "tempo": 120.0
            },
            {
                "start_time": 59.5181818,
                "end_time": 59.7181818,
                "pitch": 72,
                "velocity": 40,
                "duration": 0.2,
                "tempo": 120.0
            },
            {
                "start_time": 59.5181818,
                "end_time": 59.9181818,
                "pitch": 77,
                "velocity": 40,
                "duration": 0.4,
                "tempo": 120.0
            },
            {
                "start_time": 59.7181818,
                "end_time": 59.9181818,
                "pitch": 77,
                "velocity": 40,
                "duration": 0.2,
                "tempo": 120.0
            },
            {
                "start_time": 58.3113636,
                "end_time": 59.9181818,
                "pitch": 90,
                "velocity": 40,
                "duration": 1.6068182,
                "tempo": 120.0
            },
            {
                "start_time": 59.9181818,
                "end_time": 60.1181818,
                "pitch": 79,
                "velocity": 40,
                "duration": 0.2,
                "tempo": 120.0
            },
            {
                "start_time": 58.9113636,
                "end_time": 60.5204545,
                "pitch": 88,
                "velocity": 40,
                "duration": 1.6090909,
                "tempo": 120.0
            },
            {
                "start_time": 60.5204545,
                "end_time": 60.7227273,
                "pitch": 79,
                "velocity": 40,
                "duration": 0.2022727,
                "tempo": 120.0
            },
            {
                "start_time": 59.7181818,
                "end_time": 61.3227273,
                "pitch": 72,
                "velocity": 40,
                "duration": 1.6045455,
                "tempo": 120.0
            },
            {
                "start_time": 61.1227273,
                "end_time": 61.3227273,
                "pitch": 72,
                "velocity": 40,
                "duration": 0.2,
                "tempo": 120.0
            },
            {
                "start_time": 61.1227273,
                "end_time": 61.5227273,
                "pitch": 77,
                "velocity": 40,
                "duration": 0.4,
                "tempo": 120.0
            },
            {
                "start_time": 61.3227273,
                "end_time": 61.5227273,
                "pitch": 77,
                "velocity": 40,
                "duration": 0.2,
                "tempo": 120.0
            },
            {
                "start_time": 59.9181818,
                "end_time": 61.5227273,
                "pitch": 90,
                "velocity": 40,
                "duration": 1.6045455,
                "tempo": 120.0
            },
            {
                "start_time": 61.5227273,
                "end_time": 61.7227273,
                "pitch": 79,
                "velocity": 40,
                "duration": 0.2,
                "tempo": 120.0
            },
            {
                "start_time": 60.5204545,
                "end_time": 62.125,
                "pitch": 88,
                "velocity": 40,
                "duration": 1.6045455,
                "tempo": 120.0
            },
            {
                "start_time": 62.125,
                "end_time": 62.325,
                "pitch": 79,
                "velocity": 40,
                "duration": 0.2,
                "tempo": 120.0
            },
            {
                "start_time": 61.3227273,
                "end_time": 62.9272727,
                "pitch": 72,
                "velocity": 40,
                "duration": 1.6045455,
                "tempo": 120.0
            },
            {
                "start_time": 62.7272727,
                "end_time": 62.9272727,
                "pitch": 72,
                "velocity": 40,
                "duration": 0.2,
                "tempo": 120.0
            },
            {
                "start_time": 62.9272727,
                "end_time": 62.9295455,
                "pitch": 72,
                "velocity": 40,
                "duration": 0.0022727,
                "tempo": 120.0
            },
            {
                "start_time": 62.7272727,
                "end_time": 63.1272727,
                "pitch": 77,
                "velocity": 40,
                "duration": 0.4,
                "tempo": 120.0
            },
            {
                "start_time": 62.9295455,
                "end_time": 63.1272727,
                "pitch": 77,
                "velocity": 40,
                "duration": 0.1977273,
                "tempo": 120.0
            },
            {
                "start_time": 61.5227273,
                "end_time": 63.1295455,
                "pitch": 90,
                "velocity": 40,
                "duration": 1.6068182,
                "tempo": 120.0
            },
            {
                "start_time": 63.1272727,
                "end_time": 63.1295455,
                "pitch": 90,
                "velocity": 40,
                "duration": 0.0022727,
                "tempo": 120.0
            },
            {
                "start_time": 63.1295455,
                "end_time": 63.3295455,
                "pitch": 79,
                "velocity": 40,
                "duration": 0.2,
                "tempo": 120.0
            },
            {
                "start_time": 62.125,
                "end_time": 63.7295455,
                "pitch": 88,
                "velocity": 40,
                "duration": 1.6045455,
                "tempo": 120.0
            },
            {
                "start_time": 63.7295455,
                "end_time": 63.9295455,
                "pitch": 79,
                "velocity": 40,
                "duration": 0.2,
                "tempo": 120.0
            },
            {
                "start_time": 64.3295455,
                "end_time": 64.5318182,
                "pitch": 72,
                "velocity": 40,
                "duration": 0.2022727,
                "tempo": 120.0
            },
            {
                "start_time": 64.3295455,
                "end_time": 64.7340909,
                "pitch": 77,
                "velocity": 40,
                "duration": 0.4045455,
                "tempo": 120.0
            },
            {
                "start_time": 64.5318182,
                "end_time": 64.7340909,
                "pitch": 77,
                "velocity": 40,
                "duration": 0.2022727,
                "tempo": 120.0
            },
            {
                "start_time": 64.7340909,
                "end_time": 64.9386364,
                "pitch": 79,
                "velocity": 40,
                "duration": 0.2045455,
                "tempo": 120.0
            },
            {
                "start_time": 63.7295455,
                "end_time": 65.3454545,
                "pitch": 88,
                "velocity": 40,
                "duration": 1.6159091,
                "tempo": 120.0
            },
            {
                "start_time": 65.3454545,
                "end_time": 65.5477273,
                "pitch": 79,
                "velocity": 40,
                "duration": 0.2022727,
                "tempo": 120.0
            },
            {
                "start_time": 64.5318182,
                "end_time": 66.1454545,
                "pitch": 72,
                "velocity": 40,
                "duration": 1.6136364,
                "tempo": 120.0
            },
            {
                "start_time": 65.9409091,
                "end_time": 66.1454545,
                "pitch": 72,
                "velocity": 40,
                "duration": 0.2045455,
                "tempo": 120.0
            },
            {
                "start_time": 65.9409091,
                "end_time": 66.3522727,
                "pitch": 77,
                "velocity": 40,
                "duration": 0.4113636,
                "tempo": 120.0
            },
            {
                "start_time": 66.1454545,
                "end_time": 66.3522727,
                "pitch": 77,
                "velocity": 40,
                "duration": 0.2068182,
                "tempo": 120.0
            },
            {
                "start_time": 64.7340909,
                "end_time": 66.3522727,
                "pitch": 90,
                "velocity": 40,
                "duration": 1.6181818,
                "tempo": 120.0
            },
            {
                "start_time": 66.3522727,
                "end_time": 66.5522727,
                "pitch": 79,
                "velocity": 40,
                "duration": 0.2,
                "tempo": 120.0
            },
            {
                "start_time": 65.3454545,
                "end_time": 66.9545455,
                "pitch": 88,
                "velocity": 40,
                "duration": 1.6090909,
                "tempo": 120.0
            },
            {
                "start_time": 66.9545455,
                "end_time": 67.1545455,
                "pitch": 79,
                "velocity": 40,
                "duration": 0.2,
                "tempo": 120.0
            },
            {
                "start_time": 66.1454545,
                "end_time": 67.7590909,
                "pitch": 72,
                "velocity": 40,
                "duration": 1.6136364,
                "tempo": 120.0
            },
            {
                "start_time": 67.5590909,
                "end_time": 67.7590909,
                "pitch": 72,
                "velocity": 40,
                "duration": 0.2,
                "tempo": 120.0
            },
            {
                "start_time": 67.5590909,
                "end_time": 67.9590909,
                "pitch": 77,
                "velocity": 40,
                "duration": 0.4,
                "tempo": 120.0
            },
            {
                "start_time": 67.7590909,
                "end_time": 67.9590909,
                "pitch": 77,
                "velocity": 40,
                "duration": 0.2,
                "tempo": 120.0
            },
            {
                "start_time": 66.3522727,
                "end_time": 67.9590909,
                "pitch": 90,
                "velocity": 40,
                "duration": 1.6068182,
                "tempo": 120.0
            },
            {
                "start_time": 67.9590909,
                "end_time": 68.1613636,
                "pitch": 79,
                "velocity": 40,
                "duration": 0.2022727,
                "tempo": 120.0
            },
            {
                "start_time": 66.9545455,
                "end_time": 68.5636364,
                "pitch": 88,
                "velocity": 40,
                "duration": 1.6090909,
                "tempo": 120.0
            },
            {
                "start_time": 68.5636364,
                "end_time": 68.7636364,
                "pitch": 79,
                "velocity": 40,
                "duration": 0.2,
                "tempo": 120.0
            },
            {
                "start_time": 67.7590909,
                "end_time": 69.3681818,
                "pitch": 72,
                "velocity": 40,
                "duration": 1.6090909,
                "tempo": 120.0
            },
            {
                "start_time": 69.1681818,
                "end_time": 69.3681818,
                "pitch": 72,
                "velocity": 40,
                "duration": 0.2,
                "tempo": 120.0
            },
            {
                "start_time": 69.1681818,
                "end_time": 69.5704545,
                "pitch": 77,
                "velocity": 40,
                "duration": 0.4022727,
                "tempo": 120.0
            },
            {
                "start_time": 69.3681818,
                "end_time": 69.5704545,
                "pitch": 77,
                "velocity": 40,
                "duration": 0.2022727,
                "tempo": 120.0
            },
            {
                "start_time": 67.9590909,
                "end_time": 69.5704545,
                "pitch": 90,
                "velocity": 40,
                "duration": 1.6113636,
                "tempo": 120.0
            },
            {
                "start_time": 69.5704545,
                "end_time": 69.7704545,
                "pitch": 79,
                "velocity": 40,
                "duration": 0.2,
                "tempo": 120.0
            },
            {
                "start_time": 68.5636364,
                "end_time": 70.1727273,
                "pitch": 88,
                "velocity": 40,
                "duration": 1.6090909,
                "tempo": 120.0
            },
            {
                "start_time": 70.1727273,
                "end_time": 70.3727273,
                "pitch": 79,
                "velocity": 40,
                "duration": 0.2,
                "tempo": 120.0
            },
            {
                "start_time": 69.3681818,
                "end_time": 70.975,
                "pitch": 72,
                "velocity": 40,
                "duration": 1.6068182,
                "tempo": 120.0
            },
            {
                "start_time": 70.775,
                "end_time": 70.975,
                "pitch": 72,
                "velocity": 40,
                "duration": 0.2,
                "tempo": 120.0
            },
            {
                "start_time": 70.775,
                "end_time": 71.1772727,
                "pitch": 77,
                "velocity": 40,
                "duration": 0.4022727,
                "tempo": 120.0
            },
            {
                "start_time": 70.975,
                "end_time": 71.1772727,
                "pitch": 77,
                "velocity": 40,
                "duration": 0.2022727,
                "tempo": 120.0
            },
            {
                "start_time": 69.5704545,
                "end_time": 71.1772727,
                "pitch": 90,
                "velocity": 40,
                "duration": 1.6068182,
                "tempo": 120.0
            },
            {
                "start_time": 71.1772727,
                "end_time": 71.3795455,
                "pitch": 79,
                "velocity": 40,
                "duration": 0.2022727,
                "tempo": 120.0
            }
        ],
        "French Horn": [
            {
                "start_time": 0.0090909,
                "end_time": 1.6090909,
                "pitch": 59,
                "velocity": 25,
                "duration": 1.6,
                "tempo": 120.0
            }
        ],
        "Church Organ": [
            {
                "start_time": 1.8136364,
                "end_time": 2.0181818,
                "pitch": 64,
                "velocity": 32,
                "duration": 0.2045455,
                "tempo": 120.0
            },
            {
                "start_time": 2.0181818,
                "end_time": 2.2181818,
                "pitch": 55,
                "velocity": 32,
                "duration": 0.2,
                "tempo": 120.0
            },
            {
                "start_time": 2.2181818,
                "end_time": 2.4181818,
                "pitch": 60,
                "velocity": 32,
                "duration": 0.2,
                "tempo": 120.0
            },
            {
                "start_time": 2.4181818,
                "end_time": 3.4227273,
                "pitch": 64,
                "velocity": 32,
                "duration": 1.0045455,
                "tempo": 120.0
            },
            {
                "start_time": 3.4227273,
                "end_time": 3.6227273,
                "pitch": 64,
                "velocity": 32,
                "duration": 0.2,
                "tempo": 120.0
            },
            {
                "start_time": 3.6227273,
                "end_time": 3.8227273,
                "pitch": 57,
                "velocity": 32,
                "duration": 0.2,
                "tempo": 120.0
            },
            {
                "start_time": 2.4181818,
                "end_time": 4.025,
                "pitch": 60,
                "velocity": 32,
                "duration": 1.6068182,
                "tempo": 120.0
            },
            {
                "start_time": 3.825,
                "end_time": 4.025,
                "pitch": 60,
                "velocity": 32,
                "duration": 0.2,
                "tempo": 120.0
            },
            {
                "start_time": 2.0181818,
                "end_time": 5.0295455,
                "pitch": 65,
                "velocity": 32,
                "duration": 3.0113636,
                "tempo": 120.0
            },
            {
                "start_time": 4.025,
                "end_time": 5.0295455,
                "pitch": 65,
                "velocity": 32,
                "duration": 1.0045455,
                "tempo": 120.0
            },
            {
                "start_time": 5.2272727,
                "end_time": 5.3272727,
                "pitch": 65,
                "velocity": 32,
                "duration": 0.1,
                "tempo": 120.0
            },
            {
                "start_time": 5.3272727,
                "end_time": 5.4295455,
                "pitch": 64,
                "velocity": 32,
                "duration": 0.1022727,
                "tempo": 120.0
            },
            {
                "start_time": 5.4295455,
                "end_time": 5.5295455,
                "pitch": 67,
                "velocity": 32,
                "duration": 0.1,
                "tempo": 120.0
            },
            {
                "start_time": 2.2181818,
                "end_time": 5.6318182,
                "pitch": 0,
                "velocity": 32,
                "duration": 3.4136364,
                "tempo": 120.0
            },
            {
                "start_time": 5.6318182,
                "end_time": 5.7340909,
                "pitch": 64,
                "velocity": 32,
                "duration": 0.1022727,
                "tempo": 120.0
            },
            {
                "start_time": 5.7340909,
                "end_time": 5.8363636,
                "pitch": 64,
                "velocity": 32,
                "duration": 0.1022727,
                "tempo": 120.0
            },
            {
                "start_time": 5.4295455,
                "end_time": 5.8363636,
                "pitch": 78,
                "velocity": 32,
                "duration": 0.4068182,
                "tempo": 120.0
            },
            {
                "start_time": 5.6318182,
                "end_time": 6.2431818,
                "pitch": 0,
                "velocity": 32,
                "duration": 0.6113636,
                "tempo": 120.0
            },
            {
                "start_time": 5.8363636,
                "end_time": 6.2431818,
                "pitch": 67,
                "velocity": 32,
                "duration": 0.4068182,
                "tempo": 120.0
            },
            {
                "start_time": 6.2431818,
                "end_time": 6.2931818,
                "pitch": 67,
                "velocity": 32,
                "duration": 0.05,
                "tempo": 120.0
            },
            {
                "start_time": 6.2931818,
                "end_time": 6.375,
                "pitch": 67,
                "velocity": 32,
                "duration": 0.0818182,
                "tempo": 120.0
            },
            {
                "start_time": 6.2431818,
                "end_time": 6.3772727,
                "pitch": 0,
                "velocity": 32,
                "duration": 0.1340909,
                "tempo": 120.0
            },
            {
                "start_time": 6.375,
                "end_time": 6.3772727,
                "pitch": 0,
                "velocity": 32,
                "duration": 0.0022727,
                "tempo": 120.0
            },
            {
                "start_time": 6.3772727,
                "end_time": 6.4272727,
                "pitch": 67,
                "velocity": 32,
                "duration": 0.05,
                "tempo": 120.0
            },
            {
                "start_time": 6.2931818,
                "end_time": 6.4272727,
                "pitch": 79,
                "velocity": 32,
                "duration": 0.1340909,
                "tempo": 120.0
            },
            {
                "start_time": 6.4272727,
                "end_time": 6.5090909,
                "pitch": 67,
                "velocity": 32,
                "duration": 0.0818182,
                "tempo": 120.0
            },
            {
                "start_time": 6.5090909,
                "end_time": 6.5613636,
                "pitch": 67,
                "velocity": 32,
                "duration": 0.0522727,
                "tempo": 120.0
            },
            {
                "start_time": 6.4272727,
                "end_time": 6.5613636,
                "pitch": 79,
                "velocity": 32,
                "duration": 0.1340909,
                "tempo": 120.0
            },
            {
                "start_time": 6.5613636,
                "end_time": 6.6454545,
                "pitch": 67,
                "velocity": 32,
                "duration": 0.0840909,
                "tempo": 120.0
            },
            {
                "start_time": 6.5090909,
                "end_time": 6.8477273,
                "pitch": 0,
                "velocity": 32,
                "duration": 0.3386364,
                "tempo": 120.0
            },
            {
                "start_time": 6.8477273,
                "end_time": 6.9477273,
                "pitch": 76,
                "velocity": 32,
                "duration": 0.1,
                "tempo": 120.0
            },
            {
                "start_time": 6.9477273,
                "end_time": 7.0477273,
                "pitch": 76,
                "velocity": 32,
                "duration": 0.1,
                "tempo": 120.0
            },
            {
                "start_time": 6.5613636,
                "end_time": 7.1477273,
                "pitch": 79,
                "velocity": 32,
                "duration": 0.5863636,
                "tempo": 120.0
            },
            {
                "start_time": 7.0477273,
                "end_time": 7.1477273,
                "pitch": 79,
                "velocity": 32,
                "duration": 0.1,
                "tempo": 120.0
            },
            {
                "start_time": 6.8477273,
                "end_time": 7.25,
                "pitch": 0,
                "velocity": 32,
                "duration": 0.4022727,
                "tempo": 120.0
            },
            {
                "start_time": 7.25,
                "end_time": 7.35,
                "pitch": 76,
                "velocity": 32,
                "duration": 0.1,
                "tempo": 120.0
            },
            {
                "start_time": 7.35,
                "end_time": 7.45,
                "pitch": 76,
                "velocity": 32,
                "duration": 0.1,
                "tempo": 120.0
            },
            {
                "start_time": 7.0477273,
                "end_time": 7.45,
                "pitch": 90,
                "velocity": 32,
                "duration": 0.4022727,
                "tempo": 120.0
            },
            {
                "start_time": 7.25,
                "end_time": 7.8522727,
                "pitch": 0,
                "velocity": 32,
                "duration": 0.6022727,
                "tempo": 120.0
            },
            {
                "start_time": 7.45,
                "end_time": 7.8522727,
                "pitch": 79,
                "velocity": 32,
                "duration": 0.4022727,
                "tempo": 120.0
            },
            {
                "start_time": 7.8522727,
                "end_time": 7.9022727,
                "pitch": 79,
                "velocity": 32,
                "duration": 0.05,
                "tempo": 120.0
            },
            {
                "start_time": 7.8522727,
                "end_time": 7.9863636,
                "pitch": 0,
                "velocity": 32,
                "duration": 0.1340909,
                "tempo": 120.0
            },
            {
                "start_time": 7.9022727,
                "end_time": 7.9863636,
                "pitch": 79,
                "velocity": 32,
                "duration": 0.0840909,
                "tempo": 120.0
            },
            {
                "start_time": 7.9863636,
                "end_time": 8.0363636,
                "pitch": 79,
                "velocity": 32,
                "duration": 0.05,
                "tempo": 120.0
            },
            {
                "start_time": 7.9022727,
                "end_time": 8.0363636,
                "pitch": 91,
                "velocity": 32,
                "duration": 0.1340909,
                "tempo": 120.0
            },
            {
                "start_time": 8.0363636,
                "end_time": 8.1181818,
                "pitch": 79,
                "velocity": 32,
                "duration": 0.0818182,
                "tempo": 120.0
            },
            {
                "start_time": 7.9863636,
                "end_time": 8.1204545,
                "pitch": 0,
                "velocity": 32,
                "duration": 0.1340909,
                "tempo": 120.0
            },
            {
                "start_time": 8.1181818,
                "end_time": 8.1204545,
                "pitch": 0,
                "velocity": 32,
                "duration": 0.0022727,
                "tempo": 120.0
            },
            {
                "start_time": 8.1204545,
                "end_time": 8.1704545,
                "pitch": 79,
                "velocity": 32,
                "duration": 0.05,
                "tempo": 120.0
            },
            {
                "start_time": 8.0363636,
                "end_time": 8.1704545,
                "pitch": 91,
                "velocity": 32,
                "duration": 0.1340909,
                "tempo": 120.0
            },
            {
                "start_time": 8.1704545,
                "end_time": 8.2545455,
                "pitch": 79,
                "velocity": 32,
                "duration": 0.0840909,
                "tempo": 120.0
            },
            {
                "start_time": 8.2545455,
                "end_time": 8.4545455,
                "pitch": 64,
                "velocity": 32,
                "duration": 0.2,
                "tempo": 120.0
            },
            {
                "start_time": 8.2545455,
                "end_time": 8.6568182,
                "pitch": 0,
                "velocity": 32,
                "duration": 0.4022727,
                "tempo": 120.0
            },
            {
                "start_time": 8.4545455,
                "end_time": 8.6568182,
                "pitch": 55,
                "velocity": 32,
                "duration": 0.2022727,
                "tempo": 120.0
            },
            {
                "start_time": 4.025,
                "end_time": 8.8568182,
                "pitch": 60,
                "velocity": 32,
                "duration": 4.8318182,
                "tempo": 120.0
            },
            {
                "start_time": 8.6568182,
                "end_time": 8.8568182,
                "pitch": 60,
                "velocity": 32,
                "duration": 0.2,
                "tempo": 120.0
            },
            {
                "start_time": 8.8568182,
                "end_time": 9.8636364,
                "pitch": 64,
                "velocity": 32,
                "duration": 1.0068182,
                "tempo": 120.0
            },
            {
                "start_time": 9.8636364,
                "end_time": 10.0636364,
                "pitch": 64,
                "velocity": 32,
                "duration": 0.2,
                "tempo": 120.0
            },
            {
                "start_time": 3.6227273,
                "end_time": 10.0659091,
                "pitch": 66,
                "velocity": 32,
                "duration": 6.4431818,
                "tempo": 120.0
            },
            {
                "start_time": 3.825,
                "end_time": 10.2659091,
                "pitch": 30,
                "velocity": 32,
                "duration": 6.4409091,
                "tempo": 120.0
            },
            {
                "start_time": 10.0659091,
                "end_time": 10.2659091,
                "pitch": 57,
                "velocity": 32,
                "duration": 0.2,
                "tempo": 120.0
            },
            {
                "start_time": 8.8568182,
                "end_time": 10.4681818,
                "pitch": 60,
                "velocity": 32,
                "duration": 1.6113636,
                "tempo": 120.0
            },
            {
                "start_time": 10.2659091,
                "end_time": 10.4681818,
                "pitch": 60,
                "velocity": 32,
                "duration": 0.2022727,
                "tempo": 120.0
            },
            {
                "start_time": 8.4545455,
                "end_time": 11.4772727,
                "pitch": 65,
                "velocity": 32,
                "duration": 3.0227273,
                "tempo": 120.0
            },
            {
                "start_time": 10.4681818,
                "end_time": 11.4772727,
                "pitch": 65,
                "velocity": 32,
                "duration": 1.0090909,
                "tempo": 120.0
            },
            {
                "start_time": 11.6772727,
                "end_time": 11.7772727,
                "pitch": 65,
                "velocity": 32,
                "duration": 0.1,
                "tempo": 120.0
            },
            {
                "start_time": 11.7772727,
                "end_time": 11.8772727,
                "pitch": 64,
                "velocity": 32,
                "duration": 0.1,
                "tempo": 120.0
            },
            {
                "start_time": 5.8363636,
                "end_time": 11.8772727,
                "pitch": 78,
                "velocity": 32,
                "duration": 6.0409091,
                "tempo": 120.0
            },
            {
                "start_time": 11.8772727,
                "end_time": 11.9772727,
                "pitch": 67,
                "velocity": 32,
                "duration": 0.1,
                "tempo": 120.0
            },
            {
                "start_time": 8.6568182,
                "end_time": 12.0795455,
                "pitch": 0,
                "velocity": 32,
                "duration": 3.4227273,
                "tempo": 120.0
            },
            {
                "start_time": 12.0795455,
                "end_time": 12.1772727,
                "pitch": 64,
                "velocity": 32,
                "duration": 0.0977273,
                "tempo": 120.0
            },
            {
                "start_time": 12.1772727,
                "end_time": 12.2795455,
                "pitch": 64,
                "velocity": 32,
                "duration": 0.1022727,
                "tempo": 120.0
            },
            {
                "start_time": 11.8772727,
                "end_time": 12.2795455,
                "pitch": 78,
                "velocity": 32,
                "duration": 0.4022727,
                "tempo": 120.0
            },
            {
                "start_time": 12.0795455,
                "end_time": 12.6818182,
                "pitch": 0,
                "velocity": 32,
                "duration": 0.6022727,
                "tempo": 120.0
            },
            {
                "start_time": 12.2795455,
                "end_time": 12.6818182,
                "pitch": 67,
                "velocity": 32,
                "duration": 0.4022727,
                "tempo": 120.0
            },
            {
                "start_time": 12.6818182,
                "end_time": 12.7318182,
                "pitch": 67,
                "velocity": 32,
                "duration": 0.05,
                "tempo": 120.0
            },
            {
                "start_time": 12.6818182,
                "end_time": 12.8159091,
                "pitch": 0,
                "velocity": 32,
                "duration": 0.1340909,
                "tempo": 120.0
            },
            {
                "start_time": 12.7318182,
                "end_time": 12.8159091,
                "pitch": 67,
                "velocity": 32,
                "duration": 0.0840909,
                "tempo": 120.0
            },
            {
                "start_time": 12.8159091,
                "end_time": 12.8659091,
                "pitch": 67,
                "velocity": 32,
                "duration": 0.05,
                "tempo": 120.0
            },
            {
                "start_time": 12.7318182,
                "end_time": 12.8659091,
                "pitch": 79,
                "velocity": 32,
                "duration": 0.1340909,
                "tempo": 120.0
            },
            {
                "start_time": 12.8159091,
                "end_time": 12.95,
                "pitch": 0,
                "velocity": 32,
                "duration": 0.1340909,
                "tempo": 120.0
            },
            {
                "start_time": 12.8659091,
                "end_time": 12.95,
                "pitch": 67,
                "velocity": 32,
                "duration": 0.0840909,
                "tempo": 120.0
            },
            {
                "start_time": 12.95,
                "end_time": 13.0022727,
                "pitch": 67,
                "velocity": 32,
                "duration": 0.0522727,
                "tempo": 120.0
            },
            {
                "start_time": 12.8659091,
                "end_time": 13.0022727,
                "pitch": 79,
                "velocity": 32,
                "duration": 0.1363636,
                "tempo": 120.0
            },
            {
                "start_time": 13.0022727,
                "end_time": 13.0863636,
                "pitch": 67,
                "velocity": 32,
                "duration": 0.0840909,
                "tempo": 120.0
            },
            {
                "start_time": 12.95,
                "end_time": 13.2886364,
                "pitch": 0,
                "velocity": 32,
                "duration": 0.3386364,
                "tempo": 120.0
            },
            {
                "start_time": 13.2886364,
                "end_time": 13.3886364,
                "pitch": 76,
                "velocity": 32,
                "duration": 0.1,
                "tempo": 120.0
            },
            {
                "start_time": 13.3909091,
                "end_time": 13.4931818,
                "pitch": 76,
                "velocity": 32,
                "duration": 0.1022727,
                "tempo": 120.0
            },
            {
                "start_time": 7.45,
                "end_time": 13.4931818,
                "pitch": 90,
                "velocity": 32,
                "duration": 6.0431818,
                "tempo": 120.0
            },
            {
                "start_time": 13.0022727,
                "end_time": 13.5954545,
                "pitch": 79,
                "velocity": 32,
                "duration": 0.5931818,
                "tempo": 120.0
            },
            {
                "start_time": 13.4931818,
                "end_time": 13.5954545,
                "pitch": 79,
                "velocity": 32,
                "duration": 0.1022727,
                "tempo": 120.0
            },
            {
                "start_time": 13.2886364,
                "end_time": 13.7,
                "pitch": 0,
                "velocity": 32,
                "duration": 0.4113636,
                "tempo": 120.0
            },
            {
                "start_time": 13.7,
                "end_time": 13.7954545,
                "pitch": 76,
                "velocity": 32,
                "duration": 0.0954545,
                "tempo": 120.0
            },
            {
                "start_time": 13.7954545,
                "end_time": 13.8954545,
                "pitch": 76,
                "velocity": 32,
                "duration": 0.1,
                "tempo": 120.0
            },
            {
                "start_time": 13.4931818,
                "end_time": 13.8954545,
                "pitch": 90,
                "velocity": 32,
                "duration": 0.4022727,
                "tempo": 120.0
            },
            {
                "start_time": 13.7,
                "end_time": 14.2977273,
                "pitch": 0,
                "velocity": 32,
                "duration": 0.5977273,
                "tempo": 120.0
            },
            {
                "start_time": 13.8954545,
                "end_time": 14.2977273,
                "pitch": 79,
                "velocity": 32,
                "duration": 0.4022727,
                "tempo": 120.0
            },
            {
                "start_time": 14.2977273,
                "end_time": 14.3477273,
                "pitch": 79,
                "velocity": 32,
                "duration": 0.05,
                "tempo": 120.0
            },
            {
                "start_time": 8.1704545,
                "end_time": 14.3477273,
                "pitch": 91,
                "velocity": 32,
                "duration": 6.1772727,
                "tempo": 120.0
            },
            {
                "start_time": 14.2977273,
                "end_time": 14.4340909,
                "pitch": 0,
                "velocity": 32,
                "duration": 0.1363636,
                "tempo": 120.0
            },
            {
                "start_time": 14.3477273,
                "end_time": 14.4340909,
                "pitch": 79,
                "velocity": 32,
                "duration": 0.0863636,
                "tempo": 120.0
            },
            {
                "start_time": 14.4340909,
                "end_time": 14.4840909,
                "pitch": 79,
                "velocity": 32,
                "duration": 0.05,
                "tempo": 120.0
            },
            {
                "start_time": 14.3477273,
                "end_time": 14.4840909,
                "pitch": 91,
                "velocity": 32,
                "duration": 0.1363636,
                "tempo": 120.0
            },
            {
                "start_time": 14.4340909,
                "end_time": 14.5681818,
                "pitch": 0,
                "velocity": 32,
                "duration": 0.1340909,
                "tempo": 120.0
            },
            {
                "start_time": 14.4840909,
                "end_time": 14.5681818,
                "pitch": 79,
                "velocity": 32,
                "duration": 0.0840909,
                "tempo": 120.0
            },
            {
                "start_time": 14.5681818,
                "end_time": 14.6159091,
                "pitch": 79,
                "velocity": 32,
                "duration": 0.0477273,
                "tempo": 120.0
            },
            {
                "start_time": 14.4840909,
                "end_time": 14.6159091,
                "pitch": 91,
                "velocity": 32,
                "duration": 0.1318182,
                "tempo": 120.0
            },
            {
                "start_time": 14.6159091,
                "end_time": 14.7,
                "pitch": 79,
                "velocity": 32,
                "duration": 0.0840909,
                "tempo": 120.0
            }
        ],
        "Violin": [
            {
                "start_time": 46.6568182,
                "end_time": 48.6613636,
                "pitch": 71,
                "velocity": 80,
                "duration": 2.0045455,
                "tempo": 120.0
            },
            {
                "start_time": 48.6613636,
                "end_time": 49.0613636,
                "pitch": 74,
                "velocity": 80,
                "duration": 0.4,
                "tempo": 120.0
            },
            {
                "start_time": 49.0613636,
                "end_time": 49.4613636,
                "pitch": 76,
                "velocity": 80,
                "duration": 0.4,
                "tempo": 120.0
            },
            {
                "start_time": 49.4613636,
                "end_time": 49.8659091,
                "pitch": 83,
                "velocity": 80,
                "duration": 0.4045455,
                "tempo": 120.0
            },
            {
                "start_time": 49.8659091,
                "end_time": 51.2772727,
                "pitch": 77,
                "velocity": 80,
                "duration": 1.4113636,
                "tempo": 120.0
            },
            {
                "start_time": 51.2772727,
                "end_time": 53.0863636,
                "pitch": 89,
                "velocity": 80,
                "duration": 1.8090909,
                "tempo": 120.0
            },
            {
                "start_time": 53.0863636,
                "end_time": 53.8886364,
                "pitch": 77,
                "velocity": 80,
                "duration": 0.8022727,
                "tempo": 120.0
            },
            {
                "start_time": 53.8886364,
                "end_time": 54.6909091,
                "pitch": 76,
                "velocity": 80,
                "duration": 0.8022727,
                "tempo": 120.0
            },
            {
                "start_time": 49.4613636,
                "end_time": 54.6909091,
                "pitch": 90,
                "velocity": 80,
                "duration": 5.2295455,
                "tempo": 120.0
            },
            {
                "start_time": 54.6909091,
                "end_time": 55.375,
                "pitch": 79,
                "velocity": 80,
                "duration": 0.6840909,
                "tempo": 120.0
            },
            {
                "start_time": 55.375,
                "end_time": 55.4954545,
                "pitch": 79,
                "velocity": 80,
                "duration": 0.1204545,
                "tempo": 120.0
            },
            {
                "start_time": 55.375,
                "end_time": 55.4954545,
                "pitch": 91,
                "velocity": 80,
                "duration": 0.1204545,
                "tempo": 120.0
            },
            {
                "start_time": 55.4954545,
                "end_time": 56.2954545,
                "pitch": 82,
                "velocity": 80,
                "duration": 0.8,
                "tempo": 120.0
            },
            {
                "start_time": 56.2954545,
                "end_time": 57.5,
                "pitch": 86,
                "velocity": 80,
                "duration": 1.2045455,
                "tempo": 120.0
            },
            {
                "start_time": 57.5,
                "end_time": 57.7,
                "pitch": 82,
                "velocity": 80,
                "duration": 0.2,
                "tempo": 120.0
            },
            {
                "start_time": 57.7,
                "end_time": 59.5204545,
                "pitch": 77,
                "velocity": 80,
                "duration": 1.8204545,
                "tempo": 120.0
            },
            {
                "start_time": 59.5204545,
                "end_time": 61.125,
                "pitch": 77,
                "velocity": 80,
                "duration": 1.6045455,
                "tempo": 120.0
            },
            {
                "start_time": 61.125,
                "end_time": 61.8068182,
                "pitch": 79,
                "velocity": 80,
                "duration": 0.6818182,
                "tempo": 120.0
            },
            {
                "start_time": 55.4954545,
                "end_time": 61.8068182,
                "pitch": 91,
                "velocity": 80,
                "duration": 6.3113636,
                "tempo": 120.0
            },
            {
                "start_time": 61.8068182,
                "end_time": 61.925,
                "pitch": 79,
                "velocity": 80,
                "duration": 0.1181818,
                "tempo": 120.0
            },
            {
                "start_time": 61.8068182,
                "end_time": 61.925,
                "pitch": 91,
                "velocity": 80,
                "duration": 0.1181818,
                "tempo": 120.0
            },
            {
                "start_time": 61.925,
                "end_time": 62.7295455,
                "pitch": 83,
                "velocity": 80,
                "duration": 0.8045455,
                "tempo": 120.0
            },
            {
                "start_time": 62.7295455,
                "end_time": 64.1318182,
                "pitch": 83,
                "velocity": 80,
                "duration": 1.4022727,
                "tempo": 120.0
            },
            {
                "start_time": 61.125,
                "end_time": 65.9431818,
                "pitch": 89,
                "velocity": 80,
                "duration": 4.8181818,
                "tempo": 120.0
            },
            {
                "start_time": 64.1318182,
                "end_time": 65.9431818,
                "pitch": 89,
                "velocity": 80,
                "duration": 1.8113636,
                "tempo": 120.0
            },
            {
                "start_time": 65.9431818,
                "end_time": 66.7522727,
                "pitch": 77,
                "velocity": 80,
                "duration": 0.8090909,
                "tempo": 120.0
            },
            {
                "start_time": 66.7545455,
                "end_time": 67.5590909,
                "pitch": 76,
                "velocity": 80,
                "duration": 0.8045455,
                "tempo": 120.0
            },
            {
                "start_time": 54.6909091,
                "end_time": 67.5613636,
                "pitch": 90,
                "velocity": 80,
                "duration": 12.8704545,
                "tempo": 120.0
            },
            {
                "start_time": 67.5613636,
                "end_time": 68.2454545,
                "pitch": 79,
                "velocity": 80,
                "duration": 0.6840909,
                "tempo": 120.0
            },
            {
                "start_time": 61.925,
                "end_time": 68.2454545,
                "pitch": 91,
                "velocity": 80,
                "duration": 6.3204545,
                "tempo": 120.0
            },
            {
                "start_time": 68.2454545,
                "end_time": 68.3636364,
                "pitch": 79,
                "velocity": 80,
                "duration": 0.1181818,
                "tempo": 120.0
            },
            {
                "start_time": 68.2454545,
                "end_time": 68.3636364,
                "pitch": 91,
                "velocity": 80,
                "duration": 0.1181818,
                "tempo": 120.0
            },
            {
                "start_time": 56.2954545,
                "end_time": 69.1681818,
                "pitch": 61,
                "velocity": 80,
                "duration": 12.8727273,
                "tempo": 120.0
            },
            {
                "start_time": 68.3636364,
                "end_time": 69.1681818,
                "pitch": 82,
                "velocity": 80,
                "duration": 0.8045455,
                "tempo": 120.0
            },
            {
                "start_time": 69.1681818,
                "end_time": 69.9704545,
                "pitch": 86,
                "velocity": 80,
                "duration": 0.8022727,
                "tempo": 120.0
            },
            {
                "start_time": 57.5,
                "end_time": 70.775,
                "pitch": 88,
                "velocity": 80,
                "duration": 13.275,
                "tempo": 120.0
            },
            {
                "start_time": 69.9704545,
                "end_time": 70.775,
                "pitch": 88,
                "velocity": 80,
                "duration": 0.8045455,
                "tempo": 120.0
            },
            {
                "start_time": 70.775,
                "end_time": 71.5818182,
                "pitch": 88,
                "velocity": 80,
                "duration": 0.8068182,
                "tempo": 120.0
            }
        ],
        "Flute": [
            {
                "start_time": 71.5840909,
                "end_time": 71.8818182,
                "pitch": 77,
                "velocity": 51,
                "duration": 0.2977273,
                "tempo": 120.0
            },
            {
                "start_time": 71.8818182,
                "end_time": 72.1840909,
                "pitch": 80,
                "velocity": 51,
                "duration": 0.3022727,
                "tempo": 120.0
            },
            {
                "start_time": 72.1840909,
                "end_time": 72.3863636,
                "pitch": 80,
                "velocity": 51,
                "duration": 0.2022727,
                "tempo": 120.0
            },
            {
                "start_time": 72.3863636,
                "end_time": 72.9931818,
                "pitch": 67,
                "velocity": 51,
                "duration": 0.6068182,
                "tempo": 120.0
            },
            {
                "start_time": 73.6,
                "end_time": 75.4113636,
                "pitch": 74,
                "velocity": 51,
                "duration": 1.8113636,
                "tempo": 120.0
            },
            {
                "start_time": 75.4113636,
                "end_time": 75.5113636,
                "pitch": 72,
                "velocity": 51,
                "duration": 0.1,
                "tempo": 120.0
            },
            {
                "start_time": 75.4113636,
                "end_time": 75.6113636,
                "pitch": 74,
                "velocity": 51,
                "duration": 0.2,
                "tempo": 120.0
            },
            {
                "start_time": 75.5113636,
                "end_time": 75.6113636,
                "pitch": 74,
                "velocity": 51,
                "duration": 0.1,
                "tempo": 120.0
            },
            {
                "start_time": 75.6113636,
                "end_time": 76.2159091,
                "pitch": 67,
                "velocity": 51,
                "duration": 0.6045455,
                "tempo": 120.0
            },
            {
                "start_time": 76.8181818,
                "end_time": 78.6318182,
                "pitch": 74,
                "velocity": 51,
                "duration": 1.8136364,
                "tempo": 120.0
            },
            {
                "start_time": 75.5113636,
                "end_time": 78.7295455,
                "pitch": 72,
                "velocity": 51,
                "duration": 3.2181818,
                "tempo": 120.0
            },
            {
                "start_time": 78.6340909,
                "end_time": 78.7295455,
                "pitch": 72,
                "velocity": 51,
                "duration": 0.0954545,
                "tempo": 120.0
            },
            {
                "start_time": 78.6340909,
                "end_time": 78.8295455,
                "pitch": 74,
                "velocity": 51,
                "duration": 0.1954545,
                "tempo": 120.0
            },
            {
                "start_time": 78.7318182,
                "end_time": 78.8295455,
                "pitch": 74,
                "velocity": 51,
                "duration": 0.0977273,
                "tempo": 120.0
            },
            {
                "start_time": 75.6113636,
                "end_time": 78.8295455,
                "pitch": 77,
                "velocity": 51,
                "duration": 3.2181818,
                "tempo": 120.0
            },
            {
                "start_time": 78.8295455,
                "end_time": 79.4363636,
                "pitch": 67,
                "velocity": 51,
                "duration": 0.6068182,
                "tempo": 120.0
            },
            {
                "start_time": 80.0363636,
                "end_time": 81.8522727,
                "pitch": 74,
                "velocity": 51,
                "duration": 1.8159091,
                "tempo": 120.0
            },
            {
                "start_time": 78.7318182,
                "end_time": 81.9522727,
                "pitch": 72,
                "velocity": 51,
                "duration": 3.2204545,
                "tempo": 120.0
            },
            {
                "start_time": 81.8522727,
                "end_time": 81.9522727,
                "pitch": 72,
                "velocity": 51,
                "duration": 0.1,
                "tempo": 120.0
            },
            {
                "start_time": 81.8522727,
                "end_time": 82.0522727,
                "pitch": 74,
                "velocity": 51,
                "duration": 0.2,
                "tempo": 120.0
            },
            {
                "start_time": 81.9522727,
                "end_time": 82.0522727,
                "pitch": 74,
                "velocity": 51,
                "duration": 0.1,
                "tempo": 120.0
            },
            {
                "start_time": 78.8295455,
                "end_time": 82.0522727,
                "pitch": 77,
                "velocity": 51,
                "duration": 3.2227273,
                "tempo": 120.0
            },
            {
                "start_time": 82.0522727,
                "end_time": 82.8590909,
                "pitch": 68,
                "velocity": 51,
                "duration": 0.8068182,
                "tempo": 120.0
            },
            {
                "start_time": 83.0590909,
                "end_time": 83.2613636,
                "pitch": 68,
                "velocity": 51,
                "duration": 0.2022727,
                "tempo": 120.0
            },
            {
                "start_time": 83.2613636,
                "end_time": 83.4613636,
                "pitch": 68,
                "velocity": 51,
                "duration": 0.2,
                "tempo": 120.0
            },
            {
                "start_time": 81.9522727,
                "end_time": 83.6636364,
                "pitch": 72,
                "velocity": 51,
                "duration": 1.7113636,
                "tempo": 120.0
            },
            {
                "start_time": 83.4613636,
                "end_time": 83.6636364,
                "pitch": 72,
                "velocity": 51,
                "duration": 0.2022727,
                "tempo": 120.0
            },
            {
                "start_time": 82.0522727,
                "end_time": 84.2659091,
                "pitch": 77,
                "velocity": 51,
                "duration": 2.2136364,
                "tempo": 120.0
            },
            {
                "start_time": 83.6636364,
                "end_time": 84.2659091,
                "pitch": 77,
                "velocity": 51,
                "duration": 0.6022727,
                "tempo": 120.0
            },
            {
                "start_time": 84.2659091,
                "end_time": 84.4681818,
                "pitch": 74,
                "velocity": 51,
                "duration": 0.2022727,
                "tempo": 120.0
            },
            {
                "start_time": 84.4681818,
                "end_time": 84.7681818,
                "pitch": 74,
                "velocity": 51,
                "duration": 0.3,
                "tempo": 120.0
            },
            {
                "start_time": 84.7681818,
                "end_time": 85.0704545,
                "pitch": 75,
                "velocity": 51,
                "duration": 0.3022727,
                "tempo": 120.0
            },
            {
                "start_time": 71.8818182,
                "end_time": 85.0704545,
                "pitch": 90,
                "velocity": 51,
                "duration": 13.1886364,
                "tempo": 120.0
            },
            {
                "start_time": 85.0704545,
                "end_time": 85.2727273,
                "pitch": 79,
                "velocity": 51,
                "duration": 0.2022727,
                "tempo": 120.0
            }
        ]
    }
}