{
    "mood": "happy",
    "instruments": {
        "Trumpet": [
            {
                "start_time": 0.2727273,
                "end_time": 0.7045455,
                "pitch": 67,
                "velocity": 51,
                "duration": 0.4318182,
                "tempo": 120.0
            },
            {
                "start_time": 0.7545455,
                "end_time": 1.0931818,
                "pitch": 74,
                "velocity": 51,
                "duration": 0.3386364,
                "tempo": 120.0
            },
            {
                "start_time": 1.1431818,
                "end_time": 2.2727273,
                "pitch": 77,
                "velocity": 51,
                "duration": 1.1295455,
                "tempo": 120.0
            },
            {
                "start_time": 2.3227273,
                "end_time": 2.4681818,
                "pitch": 77,
                "velocity": 51,
                "duration": 0.1454545,
                "tempo": 120.0
            },
            {
                "start_time": 2.5181818,
                "end_time": 2.6636364,
                "pitch": 76,
                "velocity": 51,
                "duration": 0.1454545,
                "tempo": 120.0
            },
            {
                "start_time": 2.7136364,
                "end_time": 2.8590909,
                "pitch": 77,
                "velocity": 51,
                "duration": 0.1454545,
                "tempo": 120.0
            },
            {
                "start_time": 3.1045455,
                "end_time": 3.25,
                "pitch": 72,
                "velocity": 51,
                "duration": 0.1454545,
                "tempo": 120.0
            },
            {
                "start_time": 1.1431818,
                "end_time": 6.5954545,
                "pitch": 74,
                "velocity": 51,
                "duration": 5.4522727,
                "tempo": 120.0
            },
            {
                "start_time": 3.4954545,
                "end_time": 6.5954545,
                "pitch": 74,
                "velocity": 51,
                "duration": 3.1,
                "tempo": 120.0
            },
            {
                "start_time": 6.6454545,
                "end_time": 6.9863636,
                "pitch": 67,
                "velocity": 51,
                "duration": 0.3409091,
                "tempo": 120.0
            },
            {
                "start_time": 0.7545455,
                "end_time": 7.0363636,
                "pitch": 2,
                "velocity": 51,
                "duration": 6.2818182,
                "tempo": 120.0
            },
            {
                "start_time": 7.0363636,
                "end_time": 7.3772727,
                "pitch": 74,
                "velocity": 51,
                "duration": 0.3409091,
                "tempo": 120.0
            },
            {
                "start_time": 6.6454545,
                "end_time": 8.55,
                "pitch": 77,
                "velocity": 51,
                "duration": 1.9045455,
                "tempo": 120.0
            },
            {
                "start_time": 7.425,
                "end_time": 8.55,
                "pitch": 77,
                "velocity": 51,
                "duration": 1.125,
                "tempo": 120.0
            },
            {
                "start_time": 8.6022727,
                "end_time": 8.7522727,
                "pitch": 77,
                "velocity": 51,
                "duration": 0.15,
                "tempo": 120.0
            },
            {
                "start_time": 3.1045455,
                "end_time": 8.95,
                "pitch": 76,
                "velocity": 51,
                "duration": 5.8454545,
                "tempo": 120.0
            },
            {
                "start_time": 8.8045455,
                "end_time": 8.95,
                "pitch": 76,
                "velocity": 51,
                "duration": 0.1454545,
                "tempo": 120.0
            },
            {
                "start_time": 9.0,
                "end_time": 9.1454545,
                "pitch": 77,
                "velocity": 51,
                "duration": 0.1454545,
                "tempo": 120.0
            },
            {
                "start_time": 3.4954545,
                "end_time": 9.5409091,
                "pitch": 72,
                "velocity": 51,
                "duration": 6.0454545,
                "tempo": 120.0
            },
            {
                "start_time": 9.3931818,
                "end_time": 9.5409091,
                "pitch": 72,
                "velocity": 51,
                "duration": 0.1477273,
                "tempo": 120.0
            },
            {
                "start_time": 7.425,
                "end_time": 10.1295455,
                "pitch": 74,
                "velocity": 51,
                "duration": 2.7045455,
                "tempo": 120.0
            },
            {
                "start_time": 9.7863636,
                "end_time": 10.1295455,
                "pitch": 74,
                "velocity": 51,
                "duration": 0.3431818,
                "tempo": 120.0
            },
            {
                "start_time": 10.375,
                "end_time": 10.5204545,
                "pitch": 79,
                "velocity": 51,
                "duration": 0.1454545,
                "tempo": 120.0
            },
            {
                "start_time": 10.5704545,
                "end_time": 12.4931818,
                "pitch": 79,
                "velocity": 51,
                "duration": 1.9227273,
                "tempo": 120.0
            },
            {
                "start_time": 12.5431818,
                "end_time": 12.8863636,
                "pitch": 55,
                "velocity": 32,
                "duration": 0.3431818,
                "tempo": 120.0
            },
            {
                "start_time": 12.9363636,
                "end_time": 13.1477273,
                "pitch": 55,
                "velocity": 32,
                "duration": 0.2113636,
                "tempo": 120.0
            },
            {
                "start_time": 13.1977273,
                "end_time": 13.4522727,
                "pitch": 56,
                "velocity": 32,
                "duration": 0.2545455,
                "tempo": 120.0
            },
            {
                "start_time": 13.5181818,
                "end_time": 13.7977273,
                "pitch": 67,
                "velocity": 32,
                "duration": 0.2795455,
                "tempo": 120.0
            },
            {
                "start_time": 14.2136364,
                "end_time": 14.5,
                "pitch": 65,
                "velocity": 32,
                "duration": 0.2863636,
                "tempo": 120.0
            },
            {
                "start_time": 14.5659091,
                "end_time": 14.8477273,
                "pitch": 63,
                "velocity": 32,
                "duration": 0.2818182,
                "tempo": 120.0
            },
            {
                "start_time": 14.9136364,
                "end_time": 15.1931818,
                "pitch": 62,
                "velocity": 32,
                "duration": 0.2795455,
                "tempo": 120.0
            },
            {
                "start_time": 15.2590909,
                "end_time": 15.5409091,
                "pitch": 63,
                "velocity": 32,
                "duration": 0.2818182,
                "tempo": 120.0
            },
            {
                "start_time": 15.6045455,
                "end_time": 15.8863636,
                "pitch": 67,
                "velocity": 32,
                "duration": 0.2818182,
                "tempo": 120.0
            },
            {
                "start_time": 15.95,
                "end_time": 16.2340909,
                "pitch": 67,
                "velocity": 32,
                "duration": 0.2840909,
                "tempo": 120.0
            },
            {
                "start_time": 16.3022727,
                "end_time": 16.5863636,
                "pitch": 68,
                "velocity": 32,
                "duration": 0.2840909,
                "tempo": 120.0
            },
            {
                "start_time": 9.7863636,
                "end_time": 16.9363636,
                "pitch": 72,
                "velocity": 51,
                "duration": 7.15,
                "tempo": 120.0
            },
            {
                "start_time": 16.6545455,
                "end_time": 16.9363636,
                "pitch": 72,
                "velocity": 32,
                "duration": 0.2818182,
                "tempo": 120.0
            },
            {
                "start_time": 17.0,
                "end_time": 17.0022727,
                "pitch": 72,
                "velocity": 32,
                "duration": 0.0022727,
                "tempo": 120.0
            },
            {
                "start_time": 17.0022727,
                "end_time": 17.2818182,
                "pitch": 75,
                "velocity": 32,
                "duration": 0.2795455,
                "tempo": 120.0
            },
            {
                "start_time": 17.3454545,
                "end_time": 17.6272727,
                "pitch": 75,
                "velocity": 32,
                "duration": 0.2818182,
                "tempo": 120.0
            },
            {
                "start_time": 17.6931818,
                "end_time": 17.9727273,
                "pitch": 74,
                "velocity": 32,
                "duration": 0.2795455,
                "tempo": 120.0
            },
            {
                "start_time": 18.0386364,
                "end_time": 18.3227273,
                "pitch": 74,
                "velocity": 32,
                "duration": 0.2840909,
                "tempo": 120.0
            },
            {
                "start_time": 18.3886364,
                "end_time": 18.675,
                "pitch": 72,
                "velocity": 32,
                "duration": 0.2863636,
                "tempo": 120.0
            },
            {
                "start_time": 18.7409091,
                "end_time": 19.0227273,
                "pitch": 72,
                "velocity": 32,
                "duration": 0.2818182,
                "tempo": 120.0
            },
            {
                "start_time": 19.0886364,
                "end_time": 19.3681818,
                "pitch": 72,
                "velocity": 32,
                "duration": 0.2795455,
                "tempo": 120.0
            },
            {
                "start_time": 9.3931818,
                "end_time": 19.4340909,
                "pitch": 76,
                "velocity": 51,
                "duration": 10.0409091,
                "tempo": 120.0
            },
            {
                "start_time": 13.5181818,
                "end_time": 19.7181818,
                "pitch": 70,
                "velocity": 32,
                "duration": 6.2,
                "tempo": 120.0
            },
            {
                "start_time": 19.4340909,
                "end_time": 19.7181818,
                "pitch": 70,
                "velocity": 32,
                "duration": 0.2840909,
                "tempo": 120.0
            },
            {
                "start_time": 19.7840909,
                "end_time": 20.0704545,
                "pitch": 70,
                "velocity": 32,
                "duration": 0.2863636,
                "tempo": 120.0
            },
            {
                "start_time": 20.1363636,
                "end_time": 20.4181818,
                "pitch": 70,
                "velocity": 32,
                "duration": 0.2818182,
                "tempo": 120.0
            },
            {
                "start_time": 16.6545455,
                "end_time": 20.4840909,
                "pitch": 51,
                "velocity": 32,
                "duration": 3.8295455,
                "tempo": 120.0
            },
            {
                "start_time": 20.4840909,
                "end_time": 20.7636364,
                "pitch": 72,
                "velocity": 32,
                "duration": 0.2795455,
                "tempo": 120.0
            },
            {
                "start_time": 18.3886364,
                "end_time": 21.1136364,
                "pitch": 74,
                "velocity": 32,
                "duration": 2.725,
                "tempo": 120.0
            },
            {
                "start_time": 20.8295455,
                "end_time": 21.1136364,
                "pitch": 74,
                "velocity": 32,
                "duration": 0.2840909,
                "tempo": 120.0
            },
            {
                "start_time": 21.1795455,
                "end_time": 27.3022727,
                "pitch": 74,
                "velocity": 32,
                "duration": 6.1227273,
                "tempo": 120.0
            }
        ],
        "Flute": [
            {
                "start_time": 77.6204545,
                "end_time": 79.525,
                "pitch": 84,
                "velocity": 64,
                "duration": 1.9045455,
                "tempo": 120.0
            },
            {
                "start_time": 79.5772727,
                "end_time": 79.9204545,
                "pitch": 80,
                "velocity": 64,
                "duration": 0.3431818,
                "tempo": 120.0
            },
            {
                "start_time": 79.9704545,
                "end_time": 80.3113636,
                "pitch": 80,
                "velocity": 64,
                "duration": 0.3409091,
                "tempo": 120.0
            },
            {
                "start_time": 80.3613636,
                "end_time": 80.7045455,
                "pitch": 79,
                "velocity": 64,
                "duration": 0.3431818,
                "tempo": 120.0
            },
            {
                "start_time": 80.7568182,
                "end_time": 82.6727273,
                "pitch": 77,
                "velocity": 64,
                "duration": 1.9159091,
                "tempo": 120.0
            },
            {
                "start_time": 82.7227273,
                "end_time": 83.0568182,
                "pitch": 79,
                "velocity": 64,
                "duration": 0.3340909,
                "tempo": 120.0
            },
            {
                "start_time": 83.1068182,
                "end_time": 83.4477273,
                "pitch": 79,
                "velocity": 64,
                "duration": 0.3409091,
                "tempo": 120.0
            },
            {
                "start_time": 83.5,
                "end_time": 83.8431818,
                "pitch": 80,
                "velocity": 64,
                "duration": 0.3431818,
                "tempo": 120.0
            },
            {
                "start_time": 83.8931818,
                "end_time": 89.4045455,
                "pitch": 84,
                "velocity": 64,
                "duration": 5.5113636,
                "tempo": 120.0
            },
            {
                "start_time": 89.4045455,
                "end_time": 90.1386364,
                "pitch": 72,
                "velocity": 64,
                "duration": 0.7340909,
                "tempo": 120.0
            },
            {
                "start_time": 90.1909091,
                "end_time": 92.0954545,
                "pitch": 84,
                "velocity": 64,
                "duration": 1.9045455,
                "tempo": 120.0
            },
            {
                "start_time": 79.5772727,
                "end_time": 92.1431818,
                "pitch": 88,
                "velocity": 64,
                "duration": 12.5659091,
                "tempo": 120.0
            },
            {
                "start_time": 92.1431818,
                "end_time": 92.4840909,
                "pitch": 80,
                "velocity": 64,
                "duration": 0.3409091,
                "tempo": 120.0
            },
            {
                "start_time": 92.5340909,
                "end_time": 92.8840909,
                "pitch": 80,
                "velocity": 64,
                "duration": 0.35,
                "tempo": 120.0
            },
            {
                "start_time": 92.9363636,
                "end_time": 93.2772727,
                "pitch": 79,
                "velocity": 64,
                "duration": 0.3409091,
                "tempo": 120.0
            },
            {
                "start_time": 80.7568182,
                "end_time": 93.3272727,
                "pitch": 31,
                "velocity": 64,
                "duration": 12.5704545,
                "tempo": 120.0
            },
            {
                "start_time": 93.3272727,
                "end_time": 95.25,
                "pitch": 77,
                "velocity": 64,
                "duration": 1.9227273,
                "tempo": 120.0
            },
            {
                "start_time": 82.7227273,
                "end_time": 95.3,
                "pitch": 90,
                "velocity": 64,
                "duration": 12.5772727,
                "tempo": 120.0
            },
            {
                "start_time": 95.3,
                "end_time": 95.6340909,
                "pitch": 79,
                "velocity": 64,
                "duration": 0.3340909,
                "tempo": 120.0
            },
            {
                "start_time": 95.6840909,
                "end_time": 96.0227273,
                "pitch": 79,
                "velocity": 64,
                "duration": 0.3386364,
                "tempo": 120.0
            },
            {
                "start_time": 96.0727273,
                "end_time": 96.4159091,
                "pitch": 80,
                "velocity": 64,
                "duration": 0.3431818,
                "tempo": 120.0
            },
            {
                "start_time": 96.4681818,
                "end_time": 99.6181818,
                "pitch": 82,
                "velocity": 64,
                "duration": 3.15,
                "tempo": 120.0
            },
            {
                "start_time": 99.6181818,
                "end_time": 101.1477273,
                "pitch": 75,
                "velocity": 64,
                "duration": 1.5295455,
                "tempo": 120.0
            },
            {
                "start_time": 102.7681818,
                "end_time": 105.4636364,
                "pitch": 63,
                "velocity": 64,
                "duration": 2.6954545,
                "tempo": 120.0
            },
            {
                "start_time": 105.5159091,
                "end_time": 105.8568182,
                "pitch": 67,
                "velocity": 64,
                "duration": 0.3409091,
                "tempo": 120.0
            },
            {
                "start_time": 105.9090909,
                "end_time": 107.0409091,
                "pitch": 70,
                "velocity": 64,
                "duration": 1.1318182,
                "tempo": 120.0
            },
            {
                "start_time": 107.0909091,
                "end_time": 108.2181818,
                "pitch": 70,
                "velocity": 64,
                "duration": 1.1272727,
                "tempo": 120.0
            },
            {
                "start_time": 99.6181818,
                "end_time": 108.2681818,
                "pitch": 50,
                "velocity": 64,
                "duration": 8.65,
                "tempo": 120.0
            },
            {
                "start_time": 108.2681818,
                "end_time": 109.0022727,
                "pitch": 74,
                "velocity": 64,
                "duration": 0.7340909,
                "tempo": 120.0
            },
            {
                "start_time": 109.0522727,
                "end_time": 110.9727273,
                "pitch": 72,
                "velocity": 64,
                "duration": 1.9204545,
                "tempo": 120.0
            },
            {
                "start_time": 111.025,
                "end_time": 111.3613636,
                "pitch": 63,
                "velocity": 64,
                "duration": 0.3363636,
                "tempo": 120.0
            },
            {
                "start_time": 111.4090909,
                "end_time": 111.75,
                "pitch": 63,
                "velocity": 64,
                "duration": 0.3409091,
                "tempo": 120.0
            },
            {
                "start_time": 105.9090909,
                "end_time": 114.1159091,
                "pitch": 67,
                "velocity": 64,
                "duration": 8.2068182,
                "tempo": 120.0
            },
            {
                "start_time": 111.8,
                "end_time": 114.1159091,
                "pitch": 67,
                "velocity": 64,
                "duration": 2.3159091,
                "tempo": 120.0
            },
            {
                "start_time": 114.55,
                "end_time": 114.8977273,
                "pitch": 63,
                "velocity": 64,
                "duration": 0.3477273,
                "tempo": 120.0
            },
            {
                "start_time": 111.8,
                "end_time": 114.95,
                "pitch": 78,
                "velocity": 64,
                "duration": 3.15,
                "tempo": 120.0
            },
            {
                "start_time": 114.95,
                "end_time": 115.2840909,
                "pitch": 67,
                "velocity": 64,
                "duration": 0.3340909,
                "tempo": 120.0
            },
            {
                "start_time": 111.025,
                "end_time": 117.3113636,
                "pitch": 60,
                "velocity": 64,
                "duration": 6.2863636,
                "tempo": 120.0
            },
            {
                "start_time": 117.3113636,
                "end_time": 117.6477273,
                "pitch": 63,
                "velocity": 64,
                "duration": 0.3363636,
                "tempo": 120.0
            },
            {
                "start_time": 117.6977273,
                "end_time": 118.0386364,
                "pitch": 63,
                "velocity": 64,
                "duration": 0.3409091,
                "tempo": 120.0
            },
            {
                "start_time": 114.95,
                "end_time": 118.0909091,
                "pitch": 78,
                "velocity": 64,
                "duration": 3.1409091,
                "tempo": 120.0
            },
            {
                "start_time": 118.0909091,
                "end_time": 118.4318182,
                "pitch": 68,
                "velocity": 64,
                "duration": 0.3409091,
                "tempo": 120.0
            },
            {
                "start_time": 118.4818182,
                "end_time": 119.6181818,
                "pitch": 68,
                "velocity": 64,
                "duration": 1.1363636,
                "tempo": 120.0
            },
            {
                "start_time": 119.6681818,
                "end_time": 120.7931818,
                "pitch": 68,
                "velocity": 64,
                "duration": 1.125,
                "tempo": 120.0
            },
            {
                "start_time": 120.8431818,
                "end_time": 121.5772727,
                "pitch": 67,
                "velocity": 64,
                "duration": 0.7340909,
                "tempo": 120.0
            },
            {
                "start_time": 121.6295455,
                "end_time": 125.9022727,
                "pitch": 65,
                "velocity": 64,
                "duration": 4.2727273,
                "tempo": 120.0
            },
            {
                "start_time": 126.3477273,
                "end_time": 127.0772727,
                "pitch": 65,
                "velocity": 64,
                "duration": 0.7295455,
                "tempo": 120.0
            },
            {
                "start_time": 83.8931818,
                "end_time": 127.8522727,
                "pitch": 62,
                "velocity": 64,
                "duration": 43.9590909,
                "tempo": 120.0
            },
            {
                "start_time": 127.1295455,
                "end_time": 127.8522727,
                "pitch": 62,
                "velocity": 64,
                "duration": 0.7227273,
                "tempo": 120.0
            },
            {
                "start_time": 127.9022727,
                "end_time": 129.8181818,
                "pitch": 62,
                "velocity": 64,
                "duration": 1.9159091,
                "tempo": 120.0
            },
            {
                "start_time": 129.8681818,
                "end_time": 130.2159091,
                "pitch": 62,
                "velocity": 64,
                "duration": 0.3477273,
                "tempo": 120.0
            },
            {
                "start_time": 105.5159091,
                "end_time": 130.2681818,
                "pitch": 77,
                "velocity": 64,
                "duration": 24.7522727,
                "tempo": 120.0
            },
            {
                "start_time": 130.2681818,
                "end_time": 130.6022727,
                "pitch": 67,
                "velocity": 64,
                "duration": 0.3340909,
                "tempo": 120.0
            },
            {
                "start_time": 130.6522727,
                "end_time": 130.9954545,
                "pitch": 71,
                "velocity": 64,
                "duration": 0.3431818,
                "tempo": 120.0
            },
            {
                "start_time": 131.0454545,
                "end_time": 133.3590909,
                "pitch": 71,
                "velocity": 64,
                "duration": 2.3136364,
                "tempo": 120.0
            },
            {
                "start_time": 133.4090909,
                "end_time": 133.7522727,
                "pitch": 72,
                "velocity": 64,
                "duration": 0.3431818,
                "tempo": 120.0
            },
            {
                "start_time": 133.8022727,
                "end_time": 134.1454545,
                "pitch": 71,
                "velocity": 64,
                "duration": 0.3431818,
                "tempo": 120.0
            },
            {
                "start_time": 133.4090909,
                "end_time": 134.1977273,
                "pitch": 56,
                "velocity": 64,
                "duration": 0.7886364,
                "tempo": 120.0
            },
            {
                "start_time": 130.2681818,
                "end_time": 136.8931818,
                "pitch": 77,
                "velocity": 64,
                "duration": 6.625,
                "tempo": 120.0
            },
            {
                "start_time": 134.1977273,
                "end_time": 136.8931818,
                "pitch": 77,
                "velocity": 64,
                "duration": 2.6954545,
                "tempo": 120.0
            },
            {
                "start_time": 95.3,
                "end_time": 136.9431818,
                "pitch": 90,
                "velocity": 64,
                "duration": 41.6431818,
                "tempo": 120.0
            },
            {
                "start_time": 136.9431818,
                "end_time": 139.2522727,
                "pitch": 79,
                "velocity": 64,
                "duration": 2.3090909,
                "tempo": 120.0
            },
            {
                "start_time": 139.3022727,
                "end_time": 139.45,
                "pitch": 83,
                "velocity": 64,
                "duration": 0.1477273,
                "tempo": 120.0
            },
            {
                "start_time": 139.3022727,
                "end_time": 139.65,
                "pitch": 79,
                "velocity": 64,
                "duration": 0.3477273,
                "tempo": 120.0
            },
            {
                "start_time": 139.5,
                "end_time": 139.65,
                "pitch": 79,
                "velocity": 64,
                "duration": 0.15,
                "tempo": 120.0
            },
            {
                "start_time": 130.6522727,
                "end_time": 140.0454545,
                "pitch": 67,
                "velocity": 64,
                "duration": 9.3931818,
                "tempo": 120.0
            },
            {
                "start_time": 139.8977273,
                "end_time": 140.0454545,
                "pitch": 67,
                "velocity": 64,
                "duration": 0.1477273,
                "tempo": 120.0
            },
            {
                "start_time": 140.2931818,
                "end_time": 140.4386364,
                "pitch": 75,
                "velocity": 64,
                "duration": 0.1454545,
                "tempo": 120.0
            },
            {
                "start_time": 140.4886364,
                "end_time": 142.2068182,
                "pitch": 80,
                "velocity": 64,
                "duration": 1.7181818,
                "tempo": 120.0
            },
            {
                "start_time": 93.3272727,
                "end_time": 142.2568182,
                "pitch": 31,
                "velocity": 64,
                "duration": 48.9295455,
                "tempo": 120.0
            },
            {
                "start_time": 140.2931818,
                "end_time": 142.4022727,
                "pitch": 72,
                "velocity": 64,
                "duration": 2.1090909,
                "tempo": 120.0
            },
            {
                "start_time": 142.2568182,
                "end_time": 142.4022727,
                "pitch": 72,
                "velocity": 64,
                "duration": 0.1454545,
                "tempo": 120.0
            },
            {
                "start_time": 109.0522727,
                "end_time": 142.6,
                "pitch": 74,
                "velocity": 64,
                "duration": 33.5477273,
                "tempo": 120.0
            },
            {
                "start_time": 142.4545455,
                "end_time": 142.6,
                "pitch": 74,
                "velocity": 64,
                "duration": 0.1454545,
                "tempo": 120.0
            },
            {
                "start_time": 142.65,
                "end_time": 142.7954545,
                "pitch": 74,
                "velocity": 64,
                "duration": 0.1454545,
                "tempo": 120.0
            },
            {
                "start_time": 142.8477273,
                "end_time": 142.9931818,
                "pitch": 75,
                "velocity": 64,
                "duration": 0.1454545,
                "tempo": 120.0
            },
            {
                "start_time": 136.9431818,
                "end_time": 143.0431818,
                "pitch": 90,
                "velocity": 64,
                "duration": 6.1,
                "tempo": 120.0
            },
            {
                "start_time": 143.0431818,
                "end_time": 143.1886364,
                "pitch": 79,
                "velocity": 64,
                "duration": 0.1454545,
                "tempo": 120.0
            },
            {
                "start_time": 143.2386364,
                "end_time": 143.3840909,
                "pitch": 79,
                "velocity": 64,
                "duration": 0.1454545,
                "tempo": 120.0
            },
            {
                "start_time": 139.5,
                "end_time": 143.5795455,
                "pitch": 83,
                "velocity": 64,
                "duration": 4.0795455,
                "tempo": 120.0
            },
            {
                "start_time": 143.4340909,
                "end_time": 143.5795455,
                "pitch": 83,
                "velocity": 64,
                "duration": 0.1454545,
                "tempo": 120.0
            },
            {
                "start_time": 143.6318182,
                "end_time": 144.7613636,
                "pitch": 83,
                "velocity": 64,
                "duration": 1.1295455,
                "tempo": 120.0
            },
            {
                "start_time": 144.8113636,
                "end_time": 146.725,
                "pitch": 83,
                "velocity": 64,
                "duration": 1.9136364,
                "tempo": 120.0
            },
            {
                "start_time": 146.775,
                "end_time": 148.3022727,
                "pitch": 82,
                "velocity": 64,
                "duration": 1.5272727,
                "tempo": 120.0
            }
        ],
        "Oboe": [
            {
                "start_time": 13.9522727,
                "end_time": 14.2568182,
                "pitch": 58,
                "velocity": 101,
                "duration": 0.3045455,
                "tempo": 120.0
            },
            {
                "start_time": 14.3022727,
                "end_time": 14.6090909,
                "pitch": 60,
                "velocity": 101,
                "duration": 0.3068182,
                "tempo": 120.0
            },
            {
                "start_time": 13.9522727,
                "end_time": 14.6545455,
                "pitch": 64,
                "velocity": 101,
                "duration": 0.7022727,
                "tempo": 120.0
            },
            {
                "start_time": 14.6545455,
                "end_time": 15.9931818,
                "pitch": 56,
                "velocity": 101,
                "duration": 1.3386364,
                "tempo": 120.0
            },
            {
                "start_time": 16.0386364,
                "end_time": 16.3454545,
                "pitch": 56,
                "velocity": 101,
                "duration": 0.3068182,
                "tempo": 120.0
            },
            {
                "start_time": 14.3022727,
                "end_time": 16.3909091,
                "pitch": 39,
                "velocity": 101,
                "duration": 2.0886364,
                "tempo": 120.0
            },
            {
                "start_time": 16.3909091,
                "end_time": 16.6954545,
                "pitch": 60,
                "velocity": 101,
                "duration": 0.3045455,
                "tempo": 120.0
            },
            {
                "start_time": 16.7431818,
                "end_time": 18.0818182,
                "pitch": 70,
                "velocity": 101,
                "duration": 1.3386364,
                "tempo": 120.0
            },
            {
                "start_time": 18.1272727,
                "end_time": 18.4318182,
                "pitch": 70,
                "velocity": 101,
                "duration": 0.3045455,
                "tempo": 120.0
            },
            {
                "start_time": 18.4772727,
                "end_time": 18.7840909,
                "pitch": 68,
                "velocity": 101,
                "duration": 0.3068182,
                "tempo": 120.0
            },
            {
                "start_time": 20.225,
                "end_time": 20.5272727,
                "pitch": 67,
                "velocity": 101,
                "duration": 0.3022727,
                "tempo": 120.0
            },
            {
                "start_time": 20.5727273,
                "end_time": 20.8727273,
                "pitch": 67,
                "velocity": 101,
                "duration": 0.3,
                "tempo": 120.0
            },
            {
                "start_time": 20.9181818,
                "end_time": 27.3181818,
                "pitch": 68,
                "velocity": 101,
                "duration": 6.4,
                "tempo": 120.0
            },
            {
                "start_time": 127.3159091,
                "end_time": 128.0477273,
                "pitch": 63,
                "velocity": 32,
                "duration": 0.7318182,
                "tempo": 120.0
            },
            {
                "start_time": 128.0977273,
                "end_time": 128.4386364,
                "pitch": 59,
                "velocity": 32,
                "duration": 0.3409091,
                "tempo": 120.0
            },
            {
                "start_time": 128.4886364,
                "end_time": 128.8340909,
                "pitch": 60,
                "velocity": 32,
                "duration": 0.3454545,
                "tempo": 120.0
            },
            {
                "start_time": 128.8818182,
                "end_time": 129.2272727,
                "pitch": 62,
                "velocity": 32,
                "duration": 0.3454545,
                "tempo": 120.0
            },
            {
                "start_time": 129.2772727,
                "end_time": 129.6204545,
                "pitch": 62,
                "velocity": 32,
                "duration": 0.3431818,
                "tempo": 120.0
            },
            {
                "start_time": 129.6704545,
                "end_time": 131.9840909,
                "pitch": 63,
                "velocity": 32,
                "duration": 2.3136364,
                "tempo": 120.0
            },
            {
                "start_time": 20.225,
                "end_time": 132.0318182,
                "pitch": 78,
                "velocity": 101,
                "duration": 111.8068182,
                "tempo": 120.0
            },
            {
                "start_time": 132.0318182,
                "end_time": 132.7704545,
                "pitch": 68,
                "velocity": 32,
                "duration": 0.7386364,
                "tempo": 120.0
            },
            {
                "start_time": 132.8204545,
                "end_time": 133.5545455,
                "pitch": 68,
                "velocity": 32,
                "duration": 0.7340909,
                "tempo": 120.0
            },
            {
                "start_time": 133.6045455,
                "end_time": 134.3409091,
                "pitch": 59,
                "velocity": 32,
                "duration": 0.7363636,
                "tempo": 120.0
            },
            {
                "start_time": 128.4886364,
                "end_time": 134.3909091,
                "pitch": 44,
                "velocity": 32,
                "duration": 5.9022727,
                "tempo": 120.0
            },
            {
                "start_time": 128.8818182,
                "end_time": 135.525,
                "pitch": 60,
                "velocity": 32,
                "duration": 6.6431818,
                "tempo": 120.0
            },
            {
                "start_time": 134.3909091,
                "end_time": 135.525,
                "pitch": 60,
                "velocity": 32,
                "duration": 1.1340909,
                "tempo": 120.0
            },
            {
                "start_time": 14.6545455,
                "end_time": 135.5727273,
                "pitch": 64,
                "velocity": 101,
                "duration": 120.9181818,
                "tempo": 120.0
            },
            {
                "start_time": 133.6045455,
                "end_time": 135.9113636,
                "pitch": 55,
                "velocity": 32,
                "duration": 2.3068182,
                "tempo": 120.0
            },
            {
                "start_time": 135.5727273,
                "end_time": 135.9113636,
                "pitch": 55,
                "velocity": 32,
                "duration": 0.3386364,
                "tempo": 120.0
            },
            {
                "start_time": 135.5727273,
                "end_time": 136.3545455,
                "pitch": 64,
                "velocity": 32,
                "duration": 0.7818182,
                "tempo": 120.0
            },
            {
                "start_time": 136.3545455,
                "end_time": 136.6977273,
                "pitch": 59,
                "velocity": 32,
                "duration": 0.3431818,
                "tempo": 120.0
            },
            {
                "start_time": 134.3909091,
                "end_time": 136.7454545,
                "pitch": 44,
                "velocity": 32,
                "duration": 2.3545455,
                "tempo": 120.0
            },
            {
                "start_time": 136.7454545,
                "end_time": 137.0886364,
                "pitch": 60,
                "velocity": 32,
                "duration": 0.3431818,
                "tempo": 120.0
            },
            {
                "start_time": 137.1386364,
                "end_time": 137.4840909,
                "pitch": 62,
                "velocity": 32,
                "duration": 0.3454545,
                "tempo": 120.0
            },
            {
                "start_time": 137.5340909,
                "end_time": 138.6704545,
                "pitch": 62,
                "velocity": 32,
                "duration": 1.1363636,
                "tempo": 120.0
            },
            {
                "start_time": 138.7204545,
                "end_time": 139.0613636,
                "pitch": 59,
                "velocity": 32,
                "duration": 0.3409091,
                "tempo": 120.0
            },
            {
                "start_time": 136.7454545,
                "end_time": 139.1090909,
                "pitch": 44,
                "velocity": 32,
                "duration": 2.3636364,
                "tempo": 120.0
            },
            {
                "start_time": 139.1090909,
                "end_time": 139.45,
                "pitch": 62,
                "velocity": 32,
                "duration": 0.3409091,
                "tempo": 120.0
            },
            {
                "start_time": 137.1386364,
                "end_time": 140.2409091,
                "pitch": 60,
                "velocity": 32,
                "duration": 3.1022727,
                "tempo": 120.0
            },
            {
                "start_time": 139.5,
                "end_time": 140.2409091,
                "pitch": 60,
                "velocity": 32,
                "duration": 0.7409091,
                "tempo": 120.0
            },
            {
                "start_time": 140.2909091,
                "end_time": 140.7340909,
                "pitch": 63,
                "velocity": 32,
                "duration": 0.4431818,
                "tempo": 120.0
            },
            {
                "start_time": 140.7818182,
                "end_time": 140.9295455,
                "pitch": 52,
                "velocity": 32,
                "duration": 0.1477273,
                "tempo": 120.0
            },
            {
                "start_time": 140.9795455,
                "end_time": 141.125,
                "pitch": 51,
                "velocity": 32,
                "duration": 0.1454545,
                "tempo": 120.0
            },
            {
                "start_time": 128.0977273,
                "end_time": 141.175,
                "pitch": 66,
                "velocity": 32,
                "duration": 13.0772727,
                "tempo": 120.0
            },
            {
                "start_time": 141.175,
                "end_time": 141.3204545,
                "pitch": 56,
                "velocity": 32,
                "duration": 0.1454545,
                "tempo": 120.0
            },
            {
                "start_time": 141.3704545,
                "end_time": 141.5181818,
                "pitch": 48,
                "velocity": 32,
                "duration": 0.1477273,
                "tempo": 120.0
            },
            {
                "start_time": 141.5659091,
                "end_time": 141.7136364,
                "pitch": 51,
                "velocity": 32,
                "duration": 0.1477273,
                "tempo": 120.0
            },
            {
                "start_time": 141.7636364,
                "end_time": 141.9113636,
                "pitch": 51,
                "velocity": 32,
                "duration": 0.1477273,
                "tempo": 120.0
            },
            {
                "start_time": 141.175,
                "end_time": 141.9613636,
                "pitch": 66,
                "velocity": 32,
                "duration": 0.7863636,
                "tempo": 120.0
            },
            {
                "start_time": 141.9613636,
                "end_time": 142.1068182,
                "pitch": 56,
                "velocity": 32,
                "duration": 0.1454545,
                "tempo": 120.0
            },
            {
                "start_time": 140.2909091,
                "end_time": 142.3045455,
                "pitch": 60,
                "velocity": 32,
                "duration": 2.0136364,
                "tempo": 120.0
            },
            {
                "start_time": 142.1568182,
                "end_time": 142.3045455,
                "pitch": 60,
                "velocity": 32,
                "duration": 0.1477273,
                "tempo": 120.0
            },
            {
                "start_time": 141.5659091,
                "end_time": 142.3545455,
                "pitch": 48,
                "velocity": 32,
                "duration": 0.7886364,
                "tempo": 120.0
            },
            {
                "start_time": 142.3545455,
                "end_time": 142.5,
                "pitch": 51,
                "velocity": 32,
                "duration": 0.1454545,
                "tempo": 120.0
            },
            {
                "start_time": 142.55,
                "end_time": 142.6977273,
                "pitch": 51,
                "velocity": 32,
                "duration": 0.1477273,
                "tempo": 120.0
            },
            {
                "start_time": 141.9613636,
                "end_time": 142.7477273,
                "pitch": 66,
                "velocity": 32,
                "duration": 0.7863636,
                "tempo": 120.0
            },
            {
                "start_time": 142.7477273,
                "end_time": 142.8931818,
                "pitch": 55,
                "velocity": 32,
                "duration": 0.1454545,
                "tempo": 120.0
            },
            {
                "start_time": 142.9431818,
                "end_time": 143.0886364,
                "pitch": 55,
                "velocity": 32,
                "duration": 0.1454545,
                "tempo": 120.0
            },
            {
                "start_time": 143.1386364,
                "end_time": 143.2840909,
                "pitch": 56,
                "velocity": 32,
                "duration": 0.1454545,
                "tempo": 120.0
            },
            {
                "start_time": 16.3909091,
                "end_time": 143.3340909,
                "pitch": 39,
                "velocity": 101,
                "duration": 126.9431818,
                "tempo": 120.0
            },
            {
                "start_time": 143.3340909,
                "end_time": 143.4818182,
                "pitch": 60,
                "velocity": 32,
                "duration": 0.1477273,
                "tempo": 120.0
            },
            {
                "start_time": 139.5,
                "end_time": 143.6772727,
                "pitch": 62,
                "velocity": 32,
                "duration": 4.1772727,
                "tempo": 120.0
            },
            {
                "start_time": 143.5318182,
                "end_time": 143.6772727,
                "pitch": 62,
                "velocity": 32,
                "duration": 0.1454545,
                "tempo": 120.0
            },
            {
                "start_time": 143.7272727,
                "end_time": 143.875,
                "pitch": 62,
                "velocity": 32,
                "duration": 0.1477273,
                "tempo": 120.0
            },
            {
                "start_time": 143.925,
                "end_time": 144.0727273,
                "pitch": 51,
                "velocity": 32,
                "duration": 0.1477273,
                "tempo": 120.0
            },
            {
                "start_time": 138.7204545,
                "end_time": 144.1204545,
                "pitch": 65,
                "velocity": 32,
                "duration": 5.4,
                "tempo": 120.0
            },
            {
                "start_time": 144.1204545,
                "end_time": 144.2681818,
                "pitch": 56,
                "velocity": 32,
                "duration": 0.1477273,
                "tempo": 120.0
            },
            {
                "start_time": 144.3181818,
                "end_time": 144.4659091,
                "pitch": 59,
                "velocity": 32,
                "duration": 0.1477273,
                "tempo": 120.0
            },
            {
                "start_time": 139.1090909,
                "end_time": 144.5159091,
                "pitch": 44,
                "velocity": 32,
                "duration": 5.4068182,
                "tempo": 120.0
            },
            {
                "start_time": 144.5159091,
                "end_time": 144.6613636,
                "pitch": 63,
                "velocity": 32,
                "duration": 0.1454545,
                "tempo": 120.0
            },
            {
                "start_time": 144.7113636,
                "end_time": 144.8590909,
                "pitch": 51,
                "velocity": 32,
                "duration": 0.1477273,
                "tempo": 120.0
            },
            {
                "start_time": 142.7477273,
                "end_time": 144.9068182,
                "pitch": 66,
                "velocity": 32,
                "duration": 2.1590909,
                "tempo": 120.0
            },
            {
                "start_time": 144.3181818,
                "end_time": 145.0545455,
                "pitch": 56,
                "velocity": 32,
                "duration": 0.7363636,
                "tempo": 120.0
            },
            {
                "start_time": 144.9068182,
                "end_time": 145.0545455,
                "pitch": 56,
                "velocity": 32,
                "duration": 0.1477273,
                "tempo": 120.0
            },
            {
                "start_time": 145.1022727,
                "end_time": 145.25,
                "pitch": 59,
                "velocity": 32,
                "duration": 0.1477273,
                "tempo": 120.0
            },
            {
                "start_time": 145.3,
                "end_time": 145.4454545,
                "pitch": 59,
                "velocity": 32,
                "duration": 0.1454545,
                "tempo": 120.0
            },
            {
                "start_time": 145.4954545,
                "end_time": 145.6431818,
                "pitch": 50,
                "velocity": 32,
                "duration": 0.1477273,
                "tempo": 120.0
            },
            {
                "start_time": 145.6931818,
                "end_time": 145.8409091,
                "pitch": 53,
                "velocity": 32,
                "duration": 0.1477273,
                "tempo": 120.0
            },
            {
                "start_time": 144.9068182,
                "end_time": 145.8886364,
                "pitch": 66,
                "velocity": 32,
                "duration": 0.9818182,
                "tempo": 120.0
            },
            {
                "start_time": 145.1022727,
                "end_time": 146.0363636,
                "pitch": 56,
                "velocity": 32,
                "duration": 0.9340909,
                "tempo": 120.0
            },
            {
                "start_time": 145.8886364,
                "end_time": 146.0363636,
                "pitch": 56,
                "velocity": 32,
                "duration": 0.1477273,
                "tempo": 120.0
            },
            {
                "start_time": 146.0863636,
                "end_time": 146.2386364,
                "pitch": 56,
                "velocity": 32,
                "duration": 0.1522727,
                "tempo": 120.0
            },
            {
                "start_time": 143.3340909,
                "end_time": 146.2886364,
                "pitch": 39,
                "velocity": 32,
                "duration": 2.9545455,
                "tempo": 120.0
            },
            {
                "start_time": 146.2886364,
                "end_time": 146.4363636,
                "pitch": 62,
                "velocity": 32,
                "duration": 0.1477273,
                "tempo": 120.0
            },
            {
                "start_time": 144.1204545,
                "end_time": 146.6295455,
                "pitch": 65,
                "velocity": 32,
                "duration": 2.5090909,
                "tempo": 120.0
            },
            {
                "start_time": 146.4840909,
                "end_time": 146.6295455,
                "pitch": 65,
                "velocity": 32,
                "duration": 0.1454545,
                "tempo": 120.0
            },
            {
                "start_time": 132.0318182,
                "end_time": 146.6772727,
                "pitch": 78,
                "velocity": 32,
                "duration": 14.6454545,
                "tempo": 120.0
            },
            {
                "start_time": 146.6772727,
                "end_time": 146.8204545,
                "pitch": 68,
                "velocity": 32,
                "duration": 0.1431818,
                "tempo": 120.0
            }
        ],
        "French Horn": [
            {
                "start_time": 149.1272727,
                "end_time": 149.7204545,
                "pitch": 58,
                "velocity": 101,
                "duration": 0.5931818,
                "tempo": 120.0
            },
            {
                "start_time": 149.7204545,
                "end_time": 149.8522727,
                "pitch": 51,
                "velocity": 101,
                "duration": 0.1318182,
                "tempo": 120.0
            },
            {
                "start_time": 149.9227273,
                "end_time": 150.6477273,
                "pitch": 57,
                "velocity": 101,
                "duration": 0.725,
                "tempo": 120.0
            },
            {
                "start_time": 150.7159091,
                "end_time": 151.425,
                "pitch": 53,
                "velocity": 101,
                "duration": 0.7090909,
                "tempo": 120.0
            },
            {
                "start_time": 151.4931818,
                "end_time": 151.825,
                "pitch": 57,
                "velocity": 101,
                "duration": 0.3318182,
                "tempo": 120.0
            },
            {
                "start_time": 150.7159091,
                "end_time": 151.8931818,
                "pitch": 19,
                "velocity": 101,
                "duration": 1.1772727,
                "tempo": 120.0
            },
            {
                "start_time": 151.8931818,
                "end_time": 152.0227273,
                "pitch": 51,
                "velocity": 101,
                "duration": 0.1295455,
                "tempo": 120.0
            },
            {
                "start_time": 152.0886364,
                "end_time": 152.2181818,
                "pitch": 53,
                "velocity": 101,
                "duration": 0.1295455,
                "tempo": 120.0
            },
            {
                "start_time": 149.9227273,
                "end_time": 152.2863636,
                "pitch": 65,
                "velocity": 101,
                "duration": 2.3636364,
                "tempo": 120.0
            },
            {
                "start_time": 152.2863636,
                "end_time": 152.4113636,
                "pitch": 60,
                "velocity": 101,
                "duration": 0.125,
                "tempo": 120.0
            },
            {
                "start_time": 152.0886364,
                "end_time": 152.7977273,
                "pitch": 51,
                "velocity": 101,
                "duration": 0.7090909,
                "tempo": 120.0
            },
            {
                "start_time": 152.6704545,
                "end_time": 152.7977273,
                "pitch": 51,
                "velocity": 101,
                "duration": 0.1272727,
                "tempo": 120.0
            },
            {
                "start_time": 152.8659091,
                "end_time": 152.9954545,
                "pitch": 53,
                "velocity": 101,
                "duration": 0.1295455,
                "tempo": 120.0
            },
            {
                "start_time": 151.4931818,
                "end_time": 153.0636364,
                "pitch": 66,
                "velocity": 101,
                "duration": 1.5704545,
                "tempo": 120.0
            },
            {
                "start_time": 153.0636364,
                "end_time": 153.7886364,
                "pitch": 58,
                "velocity": 101,
                "duration": 0.725,
                "tempo": 120.0
            },
            {
                "start_time": 153.8545455,
                "end_time": 154.5659091,
                "pitch": 55,
                "velocity": 101,
                "duration": 0.7113636,
                "tempo": 120.0
            },
            {
                "start_time": 152.8659091,
                "end_time": 155.1613636,
                "pitch": 51,
                "velocity": 101,
                "duration": 2.2954545,
                "tempo": 120.0
            },
            {
                "start_time": 155.0318182,
                "end_time": 155.1613636,
                "pitch": 51,
                "velocity": 101,
                "duration": 0.1295455,
                "tempo": 120.0
            },
            {
                "start_time": 155.2272727,
                "end_time": 155.3590909,
                "pitch": 50,
                "velocity": 101,
                "duration": 0.1318182,
                "tempo": 120.0
            },
            {
                "start_time": 152.2863636,
                "end_time": 155.425,
                "pitch": 65,
                "velocity": 101,
                "duration": 3.1386364,
                "tempo": 120.0
            },
            {
                "start_time": 153.8545455,
                "end_time": 155.5522727,
                "pitch": 58,
                "velocity": 101,
                "duration": 1.6977273,
                "tempo": 120.0
            },
            {
                "start_time": 155.425,
                "end_time": 155.5522727,
                "pitch": 58,
                "velocity": 101,
                "duration": 0.1272727,
                "tempo": 120.0
            },
            {
                "start_time": 149.7204545,
                "end_time": 155.8090909,
                "pitch": 26,
                "velocity": 101,
                "duration": 6.0886364,
                "tempo": 120.0
            },
            {
                "start_time": 155.8090909,
                "end_time": 155.9386364,
                "pitch": 50,
                "velocity": 101,
                "duration": 0.1295455,
                "tempo": 120.0
            },
            {
                "start_time": 156.0068182,
                "end_time": 156.1340909,
                "pitch": 50,
                "velocity": 101,
                "duration": 0.1272727,
                "tempo": 120.0
            },
            {
                "start_time": 156.2022727,
                "end_time": 156.5272727,
                "pitch": 60,
                "velocity": 101,
                "duration": 0.325,
                "tempo": 120.0
            },
            {
                "start_time": 152.6704545,
                "end_time": 156.5954545,
                "pitch": 48,
                "velocity": 101,
                "duration": 3.925,
                "tempo": 120.0
            },
            {
                "start_time": 156.5954545,
                "end_time": 156.7272727,
                "pitch": 53,
                "velocity": 101,
                "duration": 0.1318182,
                "tempo": 120.0
            },
            {
                "start_time": 153.0636364,
                "end_time": 156.7954545,
                "pitch": 66,
                "velocity": 101,
                "duration": 3.7318182,
                "tempo": 120.0
            },
            {
                "start_time": 156.7954545,
                "end_time": 156.9272727,
                "pitch": 55,
                "velocity": 101,
                "duration": 0.1318182,
                "tempo": 120.0
            },
            {
                "start_time": 156.9954545,
                "end_time": 157.1272727,
                "pitch": 55,
                "velocity": 101,
                "duration": 0.1318182,
                "tempo": 120.0
            },
            {
                "start_time": 157.3886364,
                "end_time": 157.5204545,
                "pitch": 53,
                "velocity": 101,
                "duration": 0.1318182,
                "tempo": 120.0
            },
            {
                "start_time": 156.7954545,
                "end_time": 157.5863636,
                "pitch": 66,
                "velocity": 101,
                "duration": 0.7909091,
                "tempo": 120.0
            },
            {
                "start_time": 157.5863636,
                "end_time": 157.7159091,
                "pitch": 55,
                "velocity": 101,
                "duration": 0.1295455,
                "tempo": 120.0
            },
            {
                "start_time": 157.7840909,
                "end_time": 157.9113636,
                "pitch": 55,
                "velocity": 101,
                "duration": 0.1272727,
                "tempo": 120.0
            },
            {
                "start_time": 157.3886364,
                "end_time": 158.1659091,
                "pitch": 7,
                "velocity": 101,
                "duration": 0.7772727,
                "tempo": 120.0
            },
            {
                "start_time": 158.1659091,
                "end_time": 158.2977273,
                "pitch": 53,
                "velocity": 101,
                "duration": 0.1318182,
                "tempo": 120.0
            },
            {
                "start_time": 157.5863636,
                "end_time": 158.5681818,
                "pitch": 66,
                "velocity": 101,
                "duration": 0.9818182,
                "tempo": 120.0
            },
            {
                "start_time": 158.5681818,
                "end_time": 158.6977273,
                "pitch": 57,
                "velocity": 101,
                "duration": 0.1295455,
                "tempo": 120.0
            },
            {
                "start_time": 158.9613636,
                "end_time": 159.0931818,
                "pitch": 60,
                "velocity": 101,
                "duration": 0.1318182,
                "tempo": 120.0
            },
            {
                "start_time": 159.3636364,
                "end_time": 160.8590909,
                "pitch": 62,
                "velocity": 101,
                "duration": 1.4954545,
                "tempo": 120.0
            },
            {
                "start_time": 160.925,
                "end_time": 164.475,
                "pitch": 64,
                "velocity": 101,
                "duration": 3.55,
                "tempo": 120.0
            }
        ],
        "Acoustic Bass": [
            {
                "start_time": 164.9977273,
                "end_time": 165.3704545,
                "pitch": 45,
                "velocity": 64,
                "duration": 0.3727273,
                "tempo": 120.0
            },
            {
                "start_time": 165.4204545,
                "end_time": 165.4227273,
                "pitch": 19,
                "velocity": 64,
                "duration": 0.0022727,
                "tempo": 120.0
            },
            {
                "start_time": 165.4227273,
                "end_time": 165.7931818,
                "pitch": 52,
                "velocity": 64,
                "duration": 0.3704545,
                "tempo": 120.0
            },
            {
                "start_time": 165.8454545,
                "end_time": 166.1931818,
                "pitch": 57,
                "velocity": 64,
                "duration": 0.3477273,
                "tempo": 120.0
            },
            {
                "start_time": 166.2409091,
                "end_time": 166.5886364,
                "pitch": 52,
                "velocity": 64,
                "duration": 0.3477273,
                "tempo": 120.0
            },
            {
                "start_time": 166.6363636,
                "end_time": 166.9840909,
                "pitch": 43,
                "velocity": 64,
                "duration": 0.3477273,
                "tempo": 120.0
            },
            {
                "start_time": 167.0318182,
                "end_time": 167.3795455,
                "pitch": 50,
                "velocity": 64,
                "duration": 0.3477273,
                "tempo": 120.0
            },
            {
                "start_time": 167.4272727,
                "end_time": 168.1704545,
                "pitch": 59,
                "velocity": 64,
                "duration": 0.7431818,
                "tempo": 120.0
            },
            {
                "start_time": 168.2181818,
                "end_time": 168.5659091,
                "pitch": 43,
                "velocity": 64,
                "duration": 0.3477273,
                "tempo": 120.0
            },
            {
                "start_time": 167.0318182,
                "end_time": 168.6136364,
                "pitch": 0,
                "velocity": 64,
                "duration": 1.5818182,
                "tempo": 120.0
            },
            {
                "start_time": 168.6136364,
                "end_time": 168.9613636,
                "pitch": 50,
                "velocity": 64,
                "duration": 0.3477273,
                "tempo": 120.0
            },
            {
                "start_time": 167.4272727,
                "end_time": 169.0090909,
                "pitch": 65,
                "velocity": 64,
                "duration": 1.5818182,
                "tempo": 120.0
            },
            {
                "start_time": 169.0090909,
                "end_time": 169.35,
                "pitch": 59,
                "velocity": 64,
                "duration": 0.3409091,
                "tempo": 120.0
            },
            {
                "start_time": 169.3977273,
                "end_time": 169.7386364,
                "pitch": 50,
                "velocity": 64,
                "duration": 0.3409091,
                "tempo": 120.0
            },
            {
                "start_time": 169.7863636,
                "end_time": 170.1340909,
                "pitch": 41,
                "velocity": 64,
                "duration": 0.3477273,
                "tempo": 120.0
            },
            {
                "start_time": 164.9977273,
                "end_time": 170.1795455,
                "pitch": 53,
                "velocity": 64,
                "duration": 5.1818182,
                "tempo": 120.0
            },
            {
                "start_time": 170.1795455,
                "end_time": 170.5295455,
                "pitch": 48,
                "velocity": 64,
                "duration": 0.35,
                "tempo": 120.0
            },
            {
                "start_time": 170.575,
                "end_time": 170.5772727,
                "pitch": 64,
                "velocity": 64,
                "duration": 0.0022727,
                "tempo": 120.0
            },
            {
                "start_time": 170.5772727,
                "end_time": 171.3204545,
                "pitch": 57,
                "velocity": 64,
                "duration": 0.7431818,
                "tempo": 120.0
            },
            {
                "start_time": 171.3681818,
                "end_time": 171.7159091,
                "pitch": 41,
                "velocity": 64,
                "duration": 0.3477273,
                "tempo": 120.0
            },
            {
                "start_time": 170.1795455,
                "end_time": 171.7636364,
                "pitch": 53,
                "velocity": 64,
                "duration": 1.5840909,
                "tempo": 120.0
            },
            {
                "start_time": 171.7636364,
                "end_time": 172.1113636,
                "pitch": 48,
                "velocity": 64,
                "duration": 0.3477273,
                "tempo": 120.0
            },
            {
                "start_time": 172.1590909,
                "end_time": 172.5,
                "pitch": 57,
                "velocity": 64,
                "duration": 0.3409091,
                "tempo": 120.0
            },
            {
                "start_time": 166.2409091,
                "end_time": 172.5477273,
                "pitch": 19,
                "velocity": 64,
                "duration": 6.3068182,
                "tempo": 120.0
            },
            {
                "start_time": 172.5477273,
                "end_time": 172.8863636,
                "pitch": 48,
                "velocity": 64,
                "duration": 0.3386364,
                "tempo": 120.0
            },
            {
                "start_time": 172.9340909,
                "end_time": 173.2818182,
                "pitch": 40,
                "velocity": 64,
                "duration": 0.3477273,
                "tempo": 120.0
            },
            {
                "start_time": 166.6363636,
                "end_time": 173.3295455,
                "pitch": 54,
                "velocity": 64,
                "duration": 6.6931818,
                "tempo": 120.0
            },
            {
                "start_time": 168.2181818,
                "end_time": 173.6772727,
                "pitch": 47,
                "velocity": 64,
                "duration": 5.4590909,
                "tempo": 120.0
            },
            {
                "start_time": 173.3295455,
                "end_time": 173.6772727,
                "pitch": 47,
                "velocity": 64,
                "duration": 0.3477273,
                "tempo": 120.0
            },
            {
                "start_time": 173.725,
                "end_time": 174.0727273,
                "pitch": 55,
                "velocity": 64,
                "duration": 0.3477273,
                "tempo": 120.0
            },
            {
                "start_time": 168.6136364,
                "end_time": 174.1204545,
                "pitch": 0,
                "velocity": 64,
                "duration": 5.5068182,
                "tempo": 120.0
            },
            {
                "start_time": 174.1204545,
                "end_time": 174.4681818,
                "pitch": 50,
                "velocity": 64,
                "duration": 0.3477273,
                "tempo": 120.0
            },
            {
                "start_time": 171.7636364,
                "end_time": 174.5159091,
                "pitch": 53,
                "velocity": 64,
                "duration": 2.7522727,
                "tempo": 120.0
            },
            {
                "start_time": 174.5159091,
                "end_time": 174.8636364,
                "pitch": 45,
                "velocity": 64,
                "duration": 0.3477273,
                "tempo": 120.0
            },
            {
                "start_time": 172.5477273,
                "end_time": 174.9113636,
                "pitch": 19,
                "velocity": 64,
                "duration": 2.3636364,
                "tempo": 120.0
            },
            {
                "start_time": 174.9113636,
                "end_time": 175.2590909,
                "pitch": 52,
                "velocity": 64,
                "duration": 0.3477273,
                "tempo": 120.0
            },
            {
                "start_time": 172.1590909,
                "end_time": 175.3068182,
                "pitch": 64,
                "velocity": 64,
                "duration": 3.1477273,
                "tempo": 120.0
            },
            {
                "start_time": 175.3068182,
                "end_time": 175.6477273,
                "pitch": 60,
                "velocity": 64,
                "duration": 0.3409091,
                "tempo": 120.0
            },
            {
                "start_time": 175.6954545,
                "end_time": 176.0363636,
                "pitch": 52,
                "velocity": 64,
                "duration": 0.3409091,
                "tempo": 120.0
            },
            {
                "start_time": 165.8454545,
                "end_time": 176.0818182,
                "pitch": 66,
                "velocity": 64,
                "duration": 10.2363636,
                "tempo": 120.0
            },
            {
                "start_time": 173.725,
                "end_time": 176.4318182,
                "pitch": 59,
                "velocity": 64,
                "duration": 2.7068182,
                "tempo": 120.0
            },
            {
                "start_time": 176.0818182,
                "end_time": 176.4318182,
                "pitch": 59,
                "velocity": 64,
                "duration": 0.35,
                "tempo": 120.0
            },
            {
                "start_time": 169.3977273,
                "end_time": 176.4772727,
                "pitch": 32,
                "velocity": 64,
                "duration": 7.0795455,
                "tempo": 120.0
            },
            {
                "start_time": 176.4772727,
                "end_time": 176.8272727,
                "pitch": 52,
                "velocity": 64,
                "duration": 0.35,
                "tempo": 120.0
            },
            {
                "start_time": 176.875,
                "end_time": 177.2204545,
                "pitch": 50,
                "velocity": 64,
                "duration": 0.3454545,
                "tempo": 120.0
            },
            {
                "start_time": 176.875,
                "end_time": 177.6159091,
                "pitch": 52,
                "velocity": 64,
                "duration": 0.7409091,
                "tempo": 120.0
            },
            {
                "start_time": 177.2704545,
                "end_time": 177.6159091,
                "pitch": 52,
                "velocity": 64,
                "duration": 0.3454545,
                "tempo": 120.0
            },
            {
                "start_time": 177.6659091,
                "end_time": 178.0113636,
                "pitch": 40,
                "velocity": 64,
                "duration": 0.3454545,
                "tempo": 120.0
            },
            {
                "start_time": 174.5159091,
                "end_time": 178.0590909,
                "pitch": 53,
                "velocity": 64,
                "duration": 3.5431818,
                "tempo": 120.0
            },
            {
                "start_time": 175.6954545,
                "end_time": 178.4068182,
                "pitch": 48,
                "velocity": 64,
                "duration": 2.7113636,
                "tempo": 120.0
            },
            {
                "start_time": 178.0590909,
                "end_time": 178.4068182,
                "pitch": 48,
                "velocity": 64,
                "duration": 0.3477273,
                "tempo": 120.0
            },
            {
                "start_time": 175.3068182,
                "end_time": 178.4545455,
                "pitch": 64,
                "velocity": 64,
                "duration": 3.1477273,
                "tempo": 120.0
            },
            {
                "start_time": 178.4545455,
                "end_time": 178.8022727,
                "pitch": 55,
                "velocity": 64,
                "duration": 0.3477273,
                "tempo": 120.0
            },
            {
                "start_time": 174.1204545,
                "end_time": 178.8522727,
                "pitch": 0,
                "velocity": 64,
                "duration": 4.7318182,
                "tempo": 120.0
            },
            {
                "start_time": 178.8522727,
                "end_time": 179.1977273,
                "pitch": 48,
                "velocity": 64,
                "duration": 0.3454545,
                "tempo": 120.0
            },
            {
                "start_time": 172.9340909,
                "end_time": 179.2477273,
                "pitch": 36,
                "velocity": 64,
                "duration": 6.3136364,
                "tempo": 120.0
            },
            {
                "start_time": 169.7863636,
                "end_time": 179.5886364,
                "pitch": 38,
                "velocity": 64,
                "duration": 9.8022727,
                "tempo": 120.0
            },
            {
                "start_time": 179.2477273,
                "end_time": 179.5886364,
                "pitch": 38,
                "velocity": 64,
                "duration": 0.3409091,
                "tempo": 120.0
            },
            {
                "start_time": 178.0590909,
                "end_time": 179.6340909,
                "pitch": 53,
                "velocity": 64,
                "duration": 1.575,
                "tempo": 120.0
            },
            {
                "start_time": 179.6340909,
                "end_time": 179.975,
                "pitch": 45,
                "velocity": 64,
                "duration": 0.3409091,
                "tempo": 120.0
            }
        ],
        "Acoustic Grand Piano": [
            {
                "start_time": 28.4159091,
                "end_time": 28.5568182,
                "pitch": 58,
                "velocity": 32,
                "duration": 0.1409091,
                "tempo": 120.0
            },
            {
                "start_time": 28.6068182,
                "end_time": 30.1386364,
                "pitch": 60,
                "velocity": 32,
                "duration": 1.5318182,
                "tempo": 120.0
            },
            {
                "start_time": 28.4159091,
                "end_time": 30.1886364,
                "pitch": 64,
                "velocity": 32,
                "duration": 1.7727273,
                "tempo": 120.0
            },
            {
                "start_time": 30.1886364,
                "end_time": 30.3318182,
                "pitch": 55,
                "velocity": 32,
                "duration": 0.1431818,
                "tempo": 120.0
            },
            {
                "start_time": 30.5727273,
                "end_time": 31.3272727,
                "pitch": 55,
                "velocity": 32,
                "duration": 0.7545455,
                "tempo": 120.0
            },
            {
                "start_time": 32.1590909,
                "end_time": 32.8954545,
                "pitch": 62,
                "velocity": 32,
                "duration": 0.7363636,
                "tempo": 120.0
            },
            {
                "start_time": 32.9431818,
                "end_time": 33.6795455,
                "pitch": 63,
                "velocity": 32,
                "duration": 0.7363636,
                "tempo": 120.0
            },
            {
                "start_time": 33.7272727,
                "end_time": 33.8659091,
                "pitch": 60,
                "velocity": 32,
                "duration": 0.1386364,
                "tempo": 120.0
            },
            {
                "start_time": 30.1886364,
                "end_time": 33.9136364,
                "pitch": 64,
                "velocity": 32,
                "duration": 3.725,
                "tempo": 120.0
            },
            {
                "start_time": 33.9136364,
                "end_time": 34.0545455,
                "pitch": 58,
                "velocity": 32,
                "duration": 0.1409091,
                "tempo": 120.0
            },
            {
                "start_time": 28.6068182,
                "end_time": 34.1068182,
                "pitch": 39,
                "velocity": 32,
                "duration": 5.5,
                "tempo": 120.0
            },
            {
                "start_time": 34.1068182,
                "end_time": 35.25,
                "pitch": 60,
                "velocity": 32,
                "duration": 1.1431818,
                "tempo": 120.0
            },
            {
                "start_time": 33.9136364,
                "end_time": 35.2954545,
                "pitch": 64,
                "velocity": 32,
                "duration": 1.3818182,
                "tempo": 120.0
            },
            {
                "start_time": 35.2954545,
                "end_time": 35.4363636,
                "pitch": 55,
                "velocity": 32,
                "duration": 0.1409091,
                "tempo": 120.0
            },
            {
                "start_time": 30.5727273,
                "end_time": 35.675,
                "pitch": 66,
                "velocity": 32,
                "duration": 5.1022727,
                "tempo": 120.0
            },
            {
                "start_time": 35.675,
                "end_time": 36.8181818,
                "pitch": 55,
                "velocity": 32,
                "duration": 1.1431818,
                "tempo": 120.0
            },
            {
                "start_time": 33.7272727,
                "end_time": 37.25,
                "pitch": 65,
                "velocity": 32,
                "duration": 3.5227273,
                "tempo": 120.0
            },
            {
                "start_time": 37.25,
                "end_time": 37.5909091,
                "pitch": 55,
                "velocity": 32,
                "duration": 0.3409091,
                "tempo": 120.0
            },
            {
                "start_time": 37.6409091,
                "end_time": 37.9840909,
                "pitch": 58,
                "velocity": 32,
                "duration": 0.3431818,
                "tempo": 120.0
            },
            {
                "start_time": 38.0340909,
                "end_time": 38.7772727,
                "pitch": 67,
                "velocity": 32,
                "duration": 0.7431818,
                "tempo": 120.0
            },
            {
                "start_time": 37.25,
                "end_time": 39.5522727,
                "pitch": 65,
                "velocity": 32,
                "duration": 2.3022727,
                "tempo": 120.0
            },
            {
                "start_time": 39.2090909,
                "end_time": 39.5522727,
                "pitch": 65,
                "velocity": 32,
                "duration": 0.3431818,
                "tempo": 120.0
            },
            {
                "start_time": 39.6,
                "end_time": 40.75,
                "pitch": 63,
                "velocity": 32,
                "duration": 1.15,
                "tempo": 120.0
            },
            {
                "start_time": 40.7977273,
                "end_time": 41.0045455,
                "pitch": 53,
                "velocity": 32,
                "duration": 0.2068182,
                "tempo": 120.0
            },
            {
                "start_time": 35.675,
                "end_time": 41.0545455,
                "pitch": 66,
                "velocity": 32,
                "duration": 5.3795455,
                "tempo": 120.0
            },
            {
                "start_time": 37.6409091,
                "end_time": 41.2727273,
                "pitch": 55,
                "velocity": 32,
                "duration": 3.6318182,
                "tempo": 120.0
            },
            {
                "start_time": 41.0545455,
                "end_time": 41.2727273,
                "pitch": 55,
                "velocity": 32,
                "duration": 0.2181818,
                "tempo": 120.0
            },
            {
                "start_time": 41.3227273,
                "end_time": 41.325,
                "pitch": 55,
                "velocity": 32,
                "duration": 0.0022727,
                "tempo": 120.0
            },
            {
                "start_time": 41.325,
                "end_time": 41.5431818,
                "pitch": 58,
                "velocity": 32,
                "duration": 0.2181818,
                "tempo": 120.0
            },
            {
                "start_time": 34.1068182,
                "end_time": 41.5909091,
                "pitch": 39,
                "velocity": 32,
                "duration": 7.4840909,
                "tempo": 120.0
            },
            {
                "start_time": 41.5909091,
                "end_time": 42.3181818,
                "pitch": 60,
                "velocity": 32,
                "duration": 0.7272727,
                "tempo": 120.0
            },
            {
                "start_time": 42.3681818,
                "end_time": 42.575,
                "pitch": 65,
                "velocity": 32,
                "duration": 0.2068182,
                "tempo": 120.0
            },
            {
                "start_time": 42.6227273,
                "end_time": 42.8363636,
                "pitch": 67,
                "velocity": 32,
                "duration": 0.2136364,
                "tempo": 120.0
            },
            {
                "start_time": 38.0340909,
                "end_time": 43.1022727,
                "pitch": 70,
                "velocity": 32,
                "duration": 5.0681818,
                "tempo": 120.0
            },
            {
                "start_time": 42.8886364,
                "end_time": 43.1022727,
                "pitch": 70,
                "velocity": 32,
                "duration": 0.2136364,
                "tempo": 120.0
            },
            {
                "start_time": 43.1522727,
                "end_time": 43.8977273,
                "pitch": 72,
                "velocity": 32,
                "duration": 0.7454545,
                "tempo": 120.0
            },
            {
                "start_time": 42.3681818,
                "end_time": 43.9431818,
                "pitch": 60,
                "velocity": 32,
                "duration": 1.575,
                "tempo": 120.0
            },
            {
                "start_time": 43.9431818,
                "end_time": 44.6704545,
                "pitch": 63,
                "velocity": 32,
                "duration": 0.7272727,
                "tempo": 120.0
            },
            {
                "start_time": 44.7204545,
                "end_time": 45.4659091,
                "pitch": 63,
                "velocity": 32,
                "duration": 0.7454545,
                "tempo": 120.0
            },
            {
                "start_time": 41.0545455,
                "end_time": 45.5113636,
                "pitch": 66,
                "velocity": 32,
                "duration": 4.4568182,
                "tempo": 120.0
            },
            {
                "start_time": 45.5113636,
                "end_time": 46.25,
                "pitch": 58,
                "velocity": 32,
                "duration": 0.7386364,
                "tempo": 120.0
            },
            {
                "start_time": 41.5909091,
                "end_time": 46.2954545,
                "pitch": 39,
                "velocity": 32,
                "duration": 4.7045455,
                "tempo": 120.0
            },
            {
                "start_time": 43.9431818,
                "end_time": 46.4363636,
                "pitch": 60,
                "velocity": 32,
                "duration": 2.4931818,
                "tempo": 120.0
            },
            {
                "start_time": 46.2954545,
                "end_time": 46.4363636,
                "pitch": 60,
                "velocity": 32,
                "duration": 0.1409091,
                "tempo": 120.0
            },
            {
                "start_time": 35.2954545,
                "end_time": 46.4818182,
                "pitch": 64,
                "velocity": 32,
                "duration": 11.1863636,
                "tempo": 120.0
            },
            {
                "start_time": 46.4818182,
                "end_time": 46.625,
                "pitch": 58,
                "velocity": 32,
                "duration": 0.1431818,
                "tempo": 120.0
            },
            {
                "start_time": 46.2954545,
                "end_time": 46.675,
                "pitch": 39,
                "velocity": 32,
                "duration": 0.3795455,
                "tempo": 120.0
            },
            {
                "start_time": 46.675,
                "end_time": 47.8181818,
                "pitch": 60,
                "velocity": 32,
                "duration": 1.1431818,
                "tempo": 120.0
            },
            {
                "start_time": 46.4818182,
                "end_time": 47.8659091,
                "pitch": 64,
                "velocity": 32,
                "duration": 1.3840909,
                "tempo": 120.0
            },
            {
                "start_time": 47.8659091,
                "end_time": 48.0045455,
                "pitch": 55,
                "velocity": 32,
                "duration": 0.1386364,
                "tempo": 120.0
            },
            {
                "start_time": 45.5113636,
                "end_time": 48.2431818,
                "pitch": 66,
                "velocity": 32,
                "duration": 2.7318182,
                "tempo": 120.0
            },
            {
                "start_time": 48.2431818,
                "end_time": 48.9954545,
                "pitch": 55,
                "velocity": 32,
                "duration": 0.7522727,
                "tempo": 120.0
            },
            {
                "start_time": 49.0409091,
                "end_time": 49.1818182,
                "pitch": 72,
                "velocity": 32,
                "duration": 0.1409091,
                "tempo": 120.0
            },
            {
                "start_time": 49.2272727,
                "end_time": 49.3704545,
                "pitch": 70,
                "velocity": 32,
                "duration": 0.1431818,
                "tempo": 120.0
            },
            {
                "start_time": 43.1522727,
                "end_time": 49.4204545,
                "pitch": 51,
                "velocity": 32,
                "duration": 6.2681818,
                "tempo": 120.0
            },
            {
                "start_time": 49.4204545,
                "end_time": 50.5613636,
                "pitch": 72,
                "velocity": 32,
                "duration": 1.1409091,
                "tempo": 120.0
            },
            {
                "start_time": 50.6090909,
                "end_time": 50.7477273,
                "pitch": 60,
                "velocity": 32,
                "duration": 0.1386364,
                "tempo": 120.0
            },
            {
                "start_time": 47.8659091,
                "end_time": 50.7954545,
                "pitch": 64,
                "velocity": 32,
                "duration": 2.9295455,
                "tempo": 120.0
            },
            {
                "start_time": 50.7954545,
                "end_time": 50.9363636,
                "pitch": 58,
                "velocity": 32,
                "duration": 0.1409091,
                "tempo": 120.0
            },
            {
                "start_time": 46.675,
                "end_time": 50.9886364,
                "pitch": 39,
                "velocity": 32,
                "duration": 4.3136364,
                "tempo": 120.0
            },
            {
                "start_time": 50.9886364,
                "end_time": 52.525,
                "pitch": 60,
                "velocity": 32,
                "duration": 1.5363636,
                "tempo": 120.0
            },
            {
                "start_time": 53.3681818,
                "end_time": 53.5113636,
                "pitch": 60,
                "velocity": 32,
                "duration": 0.1431818,
                "tempo": 120.0
            },
            {
                "start_time": 50.7954545,
                "end_time": 53.5590909,
                "pitch": 64,
                "velocity": 32,
                "duration": 2.7636364,
                "tempo": 120.0
            },
            {
                "start_time": 53.5590909,
                "end_time": 53.7022727,
                "pitch": 58,
                "velocity": 32,
                "duration": 0.1431818,
                "tempo": 120.0
            },
            {
                "start_time": 50.9886364,
                "end_time": 53.7522727,
                "pitch": 39,
                "velocity": 32,
                "duration": 2.7636364,
                "tempo": 120.0
            },
            {
                "start_time": 53.7522727,
                "end_time": 55.2795455,
                "pitch": 60,
                "velocity": 32,
                "duration": 1.5272727,
                "tempo": 120.0
            },
            {
                "start_time": 53.5590909,
                "end_time": 55.3272727,
                "pitch": 64,
                "velocity": 32,
                "duration": 1.7681818,
                "tempo": 120.0
            },
            {
                "start_time": 55.3272727,
                "end_time": 55.4704545,
                "pitch": 55,
                "velocity": 32,
                "duration": 0.1431818,
                "tempo": 120.0
            },
            {
                "start_time": 48.2431818,
                "end_time": 55.7136364,
                "pitch": 66,
                "velocity": 32,
                "duration": 7.4704545,
                "tempo": 120.0
            },
            {
                "start_time": 55.7136364,
                "end_time": 56.4545455,
                "pitch": 55,
                "velocity": 32,
                "duration": 0.7409091,
                "tempo": 120.0
            },
            {
                "start_time": 57.2954545,
                "end_time": 58.0318182,
                "pitch": 62,
                "velocity": 32,
                "duration": 0.7363636,
                "tempo": 120.0
            },
            {
                "start_time": 58.0795455,
                "end_time": 58.8068182,
                "pitch": 63,
                "velocity": 32,
                "duration": 0.7272727,
                "tempo": 120.0
            },
            {
                "start_time": 58.8568182,
                "end_time": 59.0,
                "pitch": 60,
                "velocity": 32,
                "duration": 0.1431818,
                "tempo": 120.0
            },
            {
                "start_time": 55.3272727,
                "end_time": 59.0477273,
                "pitch": 64,
                "velocity": 32,
                "duration": 3.7204545,
                "tempo": 120.0
            },
            {
                "start_time": 59.0477273,
                "end_time": 59.1909091,
                "pitch": 58,
                "velocity": 32,
                "duration": 0.1431818,
                "tempo": 120.0
            },
            {
                "start_time": 53.7522727,
                "end_time": 59.2409091,
                "pitch": 39,
                "velocity": 32,
                "duration": 5.4886364,
                "tempo": 120.0
            },
            {
                "start_time": 59.2409091,
                "end_time": 60.3863636,
                "pitch": 60,
                "velocity": 32,
                "duration": 1.1454545,
                "tempo": 120.0
            },
            {
                "start_time": 59.0477273,
                "end_time": 60.4340909,
                "pitch": 64,
                "velocity": 32,
                "duration": 1.3863636,
                "tempo": 120.0
            },
            {
                "start_time": 60.4340909,
                "end_time": 60.5727273,
                "pitch": 55,
                "velocity": 32,
                "duration": 0.1386364,
                "tempo": 120.0
            },
            {
                "start_time": 55.7136364,
                "end_time": 60.8113636,
                "pitch": 66,
                "velocity": 32,
                "duration": 5.0977273,
                "tempo": 120.0
            },
            {
                "start_time": 60.8113636,
                "end_time": 61.9568182,
                "pitch": 55,
                "velocity": 32,
                "duration": 1.1454545,
                "tempo": 120.0
            },
            {
                "start_time": 58.8568182,
                "end_time": 62.3863636,
                "pitch": 65,
                "velocity": 32,
                "duration": 3.5295455,
                "tempo": 120.0
            },
            {
                "start_time": 62.3863636,
                "end_time": 62.7227273,
                "pitch": 55,
                "velocity": 32,
                "duration": 0.3363636,
                "tempo": 120.0
            },
            {
                "start_time": 62.775,
                "end_time": 63.1227273,
                "pitch": 58,
                "velocity": 32,
                "duration": 0.3477273,
                "tempo": 120.0
            },
            {
                "start_time": 42.8886364,
                "end_time": 63.9159091,
                "pitch": 67,
                "velocity": 32,
                "duration": 21.0272727,
                "tempo": 120.0
            },
            {
                "start_time": 63.1704545,
                "end_time": 63.9159091,
                "pitch": 67,
                "velocity": 32,
                "duration": 0.7454545,
                "tempo": 120.0
            },
            {
                "start_time": 62.3863636,
                "end_time": 64.6840909,
                "pitch": 65,
                "velocity": 32,
                "duration": 2.2977273,
                "tempo": 120.0
            },
            {
                "start_time": 64.3409091,
                "end_time": 64.6840909,
                "pitch": 65,
                "velocity": 32,
                "duration": 0.3431818,
                "tempo": 120.0
            },
            {
                "start_time": 64.7340909,
                "end_time": 65.8795455,
                "pitch": 63,
                "velocity": 32,
                "duration": 1.1454545,
                "tempo": 120.0
            },
            {
                "start_time": 40.7977273,
                "end_time": 65.9272727,
                "pitch": 50,
                "velocity": 32,
                "duration": 25.1295455,
                "tempo": 120.0
            },
            {
                "start_time": 65.9272727,
                "end_time": 66.1340909,
                "pitch": 53,
                "velocity": 32,
                "duration": 0.2068182,
                "tempo": 120.0
            },
            {
                "start_time": 60.8113636,
                "end_time": 66.1840909,
                "pitch": 66,
                "velocity": 32,
                "duration": 5.3727273,
                "tempo": 120.0
            },
            {
                "start_time": 62.775,
                "end_time": 66.4022727,
                "pitch": 55,
                "velocity": 32,
                "duration": 3.6272727,
                "tempo": 120.0
            },
            {
                "start_time": 66.1840909,
                "end_time": 66.4022727,
                "pitch": 55,
                "velocity": 32,
                "duration": 0.2181818,
                "tempo": 120.0
            },
            {
                "start_time": 66.4545455,
                "end_time": 66.6727273,
                "pitch": 58,
                "velocity": 32,
                "duration": 0.2181818,
                "tempo": 120.0
            },
            {
                "start_time": 59.2409091,
                "end_time": 66.7204545,
                "pitch": 39,
                "velocity": 32,
                "duration": 7.4795455,
                "tempo": 120.0
            },
            {
                "start_time": 66.7204545,
                "end_time": 67.4568182,
                "pitch": 60,
                "velocity": 32,
                "duration": 0.7363636,
                "tempo": 120.0
            },
            {
                "start_time": 67.5045455,
                "end_time": 67.7068182,
                "pitch": 65,
                "velocity": 32,
                "duration": 0.2022727,
                "tempo": 120.0
            },
            {
                "start_time": 42.6227273,
                "end_time": 67.7522727,
                "pitch": 78,
                "velocity": 32,
                "duration": 25.1295455,
                "tempo": 120.0
            },
            {
                "start_time": 67.7522727,
                "end_time": 67.9704545,
                "pitch": 67,
                "velocity": 32,
                "duration": 0.2181818,
                "tempo": 120.0
            },
            {
                "start_time": 63.1704545,
                "end_time": 68.2409091,
                "pitch": 70,
                "velocity": 32,
                "duration": 5.0704545,
                "tempo": 120.0
            },
            {
                "start_time": 68.0227273,
                "end_time": 68.2409091,
                "pitch": 70,
                "velocity": 32,
                "duration": 0.2181818,
                "tempo": 120.0
            },
            {
                "start_time": 49.4204545,
                "end_time": 68.2886364,
                "pitch": 51,
                "velocity": 32,
                "duration": 18.8681818,
                "tempo": 120.0
            },
            {
                "start_time": 68.2886364,
                "end_time": 69.025,
                "pitch": 72,
                "velocity": 32,
                "duration": 0.7363636,
                "tempo": 120.0
            },
            {
                "start_time": 67.5045455,
                "end_time": 69.0727273,
                "pitch": 60,
                "velocity": 32,
                "duration": 1.5681818,
                "tempo": 120.0
            },
            {
                "start_time": 69.0727273,
                "end_time": 69.8,
                "pitch": 63,
                "velocity": 32,
                "duration": 0.7272727,
                "tempo": 120.0
            },
            {
                "start_time": 69.8477273,
                "end_time": 70.5931818,
                "pitch": 63,
                "velocity": 32,
                "duration": 0.7454545,
                "tempo": 120.0
            },
            {
                "start_time": 66.1840909,
                "end_time": 70.6409091,
                "pitch": 66,
                "velocity": 32,
                "duration": 4.4568182,
                "tempo": 120.0
            },
            {
                "start_time": 70.6409091,
                "end_time": 71.3795455,
                "pitch": 58,
                "velocity": 32,
                "duration": 0.7386364,
                "tempo": 120.0
            },
            {
                "start_time": 66.7204545,
                "end_time": 71.4272727,
                "pitch": 39,
                "velocity": 32,
                "duration": 4.7068182,
                "tempo": 120.0
            },
            {
                "start_time": 69.0727273,
                "end_time": 71.5704545,
                "pitch": 60,
                "velocity": 32,
                "duration": 2.4977273,
                "tempo": 120.0
            },
            {
                "start_time": 71.4272727,
                "end_time": 71.5704545,
                "pitch": 60,
                "velocity": 32,
                "duration": 0.1431818,
                "tempo": 120.0
            },
            {
                "start_time": 60.4340909,
                "end_time": 71.6204545,
                "pitch": 64,
                "velocity": 32,
                "duration": 11.1863636,
                "tempo": 120.0
            },
            {
                "start_time": 71.6204545,
                "end_time": 71.7636364,
                "pitch": 58,
                "velocity": 32,
                "duration": 0.1431818,
                "tempo": 120.0
            },
            {
                "start_time": 71.4272727,
                "end_time": 71.8136364,
                "pitch": 39,
                "velocity": 32,
                "duration": 0.3863636,
                "tempo": 120.0
            },
            {
                "start_time": 71.8136364,
                "end_time": 72.9477273,
                "pitch": 60,
                "velocity": 32,
                "duration": 1.1340909,
                "tempo": 120.0
            },
            {
                "start_time": 71.6204545,
                "end_time": 72.9954545,
                "pitch": 64,
                "velocity": 32,
                "duration": 1.375,
                "tempo": 120.0
            },
            {
                "start_time": 66.4545455,
                "end_time": 73.1340909,
                "pitch": 55,
                "velocity": 32,
                "duration": 6.6795455,
                "tempo": 120.0
            },
            {
                "start_time": 72.9954545,
                "end_time": 73.1340909,
                "pitch": 55,
                "velocity": 32,
                "duration": 0.1386364,
                "tempo": 120.0
            },
            {
                "start_time": 70.6409091,
                "end_time": 73.375,
                "pitch": 66,
                "velocity": 32,
                "duration": 2.7340909,
                "tempo": 120.0
            },
            {
                "start_time": 73.375,
                "end_time": 74.125,
                "pitch": 55,
                "velocity": 32,
                "duration": 0.75,
                "tempo": 120.0
            },
            {
                "start_time": 49.0409091,
                "end_time": 74.1727273,
                "pitch": 2,
                "velocity": 32,
                "duration": 25.1318182,
                "tempo": 120.0
            },
            {
                "start_time": 74.1727273,
                "end_time": 74.3159091,
                "pitch": 72,
                "velocity": 32,
                "duration": 0.1431818,
                "tempo": 120.0
            },
            {
                "start_time": 49.2272727,
                "end_time": 74.3636364,
                "pitch": 76,
                "velocity": 32,
                "duration": 25.1363636,
                "tempo": 120.0
            },
            {
                "start_time": 74.3636364,
                "end_time": 74.5090909,
                "pitch": 70,
                "velocity": 32,
                "duration": 0.1454545,
                "tempo": 120.0
            },
            {
                "start_time": 68.2886364,
                "end_time": 74.5568182,
                "pitch": 51,
                "velocity": 32,
                "duration": 6.2681818,
                "tempo": 120.0
            },
            {
                "start_time": 74.5568182,
                "end_time": 75.6909091,
                "pitch": 72,
                "velocity": 32,
                "duration": 1.1340909,
                "tempo": 120.0
            },
            {
                "start_time": 75.7386364,
                "end_time": 75.8818182,
                "pitch": 60,
                "velocity": 32,
                "duration": 0.1431818,
                "tempo": 120.0
            },
            {
                "start_time": 72.9954545,
                "end_time": 75.9318182,
                "pitch": 64,
                "velocity": 32,
                "duration": 2.9363636,
                "tempo": 120.0
            },
            {
                "start_time": 75.9295455,
                "end_time": 75.9318182,
                "pitch": 64,
                "velocity": 32,
                "duration": 0.0022727,
                "tempo": 120.0
            },
            {
                "start_time": 75.9318182,
                "end_time": 76.075,
                "pitch": 58,
                "velocity": 32,
                "duration": 0.1431818,
                "tempo": 120.0
            },
            {
                "start_time": 71.8136364,
                "end_time": 76.125,
                "pitch": 39,
                "velocity": 32,
                "duration": 4.3113636,
                "tempo": 120.0
            },
            {
                "start_time": 76.125,
                "end_time": 76.2727273,
                "pitch": 60,
                "velocity": 32,
                "duration": 0.1477273,
                "tempo": 120.0
            }
        ],
        "Church Organ": [
            {
                "start_time": 76.225,
                "end_time": 76.3704545,
                "pitch": 48,
                "velocity": 40,
                "duration": 0.1454545,
                "tempo": 120.0
            },
            {
                "start_time": 76.4227273,
                "end_time": 76.5704545,
                "pitch": 50,
                "velocity": 40,
                "duration": 0.1477273,
                "tempo": 120.0
            },
            {
                "start_time": 76.6204545,
                "end_time": 76.7704545,
                "pitch": 50,
                "velocity": 40,
                "duration": 0.15,
                "tempo": 120.0
            },
            {
                "start_time": 76.8227273,
                "end_time": 76.9704545,
                "pitch": 53,
                "velocity": 40,
                "duration": 0.1477273,
                "tempo": 120.0
            },
            {
                "start_time": 77.0227273,
                "end_time": 77.1727273,
                "pitch": 55,
                "velocity": 40,
                "duration": 0.15,
                "tempo": 120.0
            },
            {
                "start_time": 77.225,
                "end_time": 77.3704545,
                "pitch": 55,
                "velocity": 40,
                "duration": 0.1454545,
                "tempo": 120.0
            },
            {
                "start_time": 77.4204545,
                "end_time": 77.5659091,
                "pitch": 56,
                "velocity": 40,
                "duration": 0.1454545,
                "tempo": 120.0
            },
            {
                "start_time": 77.6181818,
                "end_time": 80.7045455,
                "pitch": 60,
                "velocity": 40,
                "duration": 3.0863636,
                "tempo": 120.0
            },
            {
                "start_time": 80.7568182,
                "end_time": 83.8431818,
                "pitch": 60,
                "velocity": 40,
                "duration": 3.0863636,
                "tempo": 120.0
            },
            {
                "start_time": 83.8931818,
                "end_time": 86.9909091,
                "pitch": 55,
                "velocity": 40,
                "duration": 3.0977273,
                "tempo": 120.0
            },
            {
                "start_time": 76.225,
                "end_time": 87.0409091,
                "pitch": 0,
                "velocity": 40,
                "duration": 10.8159091,
                "tempo": 120.0
            },
            {
                "start_time": 76.8227273,
                "end_time": 90.1363636,
                "pitch": 51,
                "velocity": 40,
                "duration": 13.3136364,
                "tempo": 120.0
            },
            {
                "start_time": 87.0409091,
                "end_time": 90.1363636,
                "pitch": 51,
                "velocity": 40,
                "duration": 3.0954545,
                "tempo": 120.0
            },
            {
                "start_time": 90.1886364,
                "end_time": 93.2772727,
                "pitch": 60,
                "velocity": 40,
                "duration": 3.0886364,
                "tempo": 120.0
            },
            {
                "start_time": 93.3272727,
                "end_time": 96.4159091,
                "pitch": 60,
                "velocity": 40,
                "duration": 3.0886364,
                "tempo": 120.0
            },
            {
                "start_time": 83.8931818,
                "end_time": 96.4681818,
                "pitch": 64,
                "velocity": 40,
                "duration": 12.575,
                "tempo": 120.0
            },
            {
                "start_time": 96.4681818,
                "end_time": 99.5681818,
                "pitch": 58,
                "velocity": 40,
                "duration": 3.1,
                "tempo": 120.0
            },
            {
                "start_time": 99.6181818,
                "end_time": 104.2931818,
                "pitch": 70,
                "velocity": 40,
                "duration": 4.675,
                "tempo": 120.0
            }
        ],
        "Acoustic Guitar (nylon)": [
            {
                "start_time": 165.0022727,
                "end_time": 165.3704545,
                "pitch": 64,
                "velocity": 40,
                "duration": 0.3681818,
                "tempo": 120.0
            },
            {
                "start_time": 165.425,
                "end_time": 165.7954545,
                "pitch": 64,
                "velocity": 40,
                "duration": 0.3704545,
                "tempo": 120.0
            },
            {
                "start_time": 166.2431818,
                "end_time": 166.5886364,
                "pitch": 64,
                "velocity": 40,
                "duration": 0.3454545,
                "tempo": 120.0
            },
            {
                "start_time": 166.6386364,
                "end_time": 167.775,
                "pitch": 67,
                "velocity": 40,
                "duration": 1.1363636,
                "tempo": 120.0
            },
            {
                "start_time": 167.825,
                "end_time": 168.5659091,
                "pitch": 59,
                "velocity": 40,
                "duration": 0.7409091,
                "tempo": 120.0
            },
            {
                "start_time": 168.6159091,
                "end_time": 168.9613636,
                "pitch": 59,
                "velocity": 40,
                "duration": 0.3454545,
                "tempo": 120.0
            },
            {
                "start_time": 169.0113636,
                "end_time": 169.3522727,
                "pitch": 62,
                "velocity": 40,
                "duration": 0.3409091,
                "tempo": 120.0
            },
            {
                "start_time": 169.4,
                "end_time": 169.7386364,
                "pitch": 67,
                "velocity": 40,
                "duration": 0.3386364,
                "tempo": 120.0
            },
            {
                "start_time": 171.3704545,
                "end_time": 171.7159091,
                "pitch": 57,
                "velocity": 40,
                "duration": 0.3454545,
                "tempo": 120.0
            },
            {
                "start_time": 171.7659091,
                "end_time": 172.1113636,
                "pitch": 57,
                "velocity": 40,
                "duration": 0.3454545,
                "tempo": 120.0
            },
            {
                "start_time": 172.1613636,
                "end_time": 172.8886364,
                "pitch": 60,
                "velocity": 40,
                "duration": 0.7272727,
                "tempo": 120.0
            },
            {
                "start_time": 172.9363636,
                "end_time": 173.2818182,
                "pitch": 62,
                "velocity": 40,
                "duration": 0.3454545,
                "tempo": 120.0
            },
            {
                "start_time": 173.3318182,
                "end_time": 173.6772727,
                "pitch": 62,
                "velocity": 40,
                "duration": 0.3454545,
                "tempo": 120.0
            },
            {
                "start_time": 169.4,
                "end_time": 174.1227273,
                "pitch": 77,
                "velocity": 40,
                "duration": 4.7227273,
                "tempo": 120.0
            },
            {
                "start_time": 174.1227273,
                "end_time": 174.8636364,
                "pitch": 67,
                "velocity": 40,
                "duration": 0.7409091,
                "tempo": 120.0
            },
            {
                "start_time": 174.9136364,
                "end_time": 175.2590909,
                "pitch": 67,
                "velocity": 40,
                "duration": 0.3454545,
                "tempo": 120.0
            },
            {
                "start_time": 175.3090909,
                "end_time": 176.8272727,
                "pitch": 69,
                "velocity": 40,
                "duration": 1.5181818,
                "tempo": 120.0
            },
            {
                "start_time": 176.8772727,
                "end_time": 177.6181818,
                "pitch": 69,
                "velocity": 40,
                "duration": 0.7409091,
                "tempo": 120.0
            },
            {
                "start_time": 171.3704545,
                "end_time": 179.25,
                "pitch": 64,
                "velocity": 40,
                "duration": 7.8795455,
                "tempo": 120.0
            },
            {
                "start_time": 179.25,
                "end_time": 179.9772727,
                "pitch": 57,
                "velocity": 40,
                "duration": 0.7272727,
                "tempo": 120.0
            }
        ]
    }
}