{
    "mood": "happy",
    "instruments": {
        "Electric Piano 1": [
            {
                "start_time": 0.1590909,
                "end_time": 0.2227273,
                "pitch": 59,
                "velocity": 127,
                "duration": 0.0636364,
                "tempo": 120.0
            },
            {
                "start_time": 0.2227273,
                "end_time": 0.2409091,
                "pitch": 57,
                "velocity": 127,
                "duration": 0.0181818,
                "tempo": 120.0
            },
            {
                "start_time": 0.2409091,
                "end_time": 0.3068182,
                "pitch": 57,
                "velocity": 127,
                "duration": 0.0659091,
                "tempo": 120.0
            },
            {
                "start_time": 0.3068182,
                "end_time": 0.3227273,
                "pitch": 54,
                "velocity": 127,
                "duration": 0.0159091,
                "tempo": 120.0
            },
            {
                "start_time": 0.325,
                "end_time": 0.3409091,
                "pitch": 55,
                "velocity": 127,
                "duration": 0.0159091,
                "tempo": 120.0
            },
            {
                "start_time": 0.3068182,
                "end_time": 0.3409091,
                "pitch": 67,
                "velocity": 127,
                "duration": 0.0340909,
                "tempo": 120.0
            },
            {
                "start_time": 0.3409091,
                "end_time": 0.3909091,
                "pitch": 54,
                "velocity": 127,
                "duration": 0.05,
                "tempo": 120.0
            },
            {
                "start_time": 0.3909091,
                "end_time": 0.4068182,
                "pitch": 52,
                "velocity": 127,
                "duration": 0.0159091,
                "tempo": 120.0
            },
            {
                "start_time": 0.4068182,
                "end_time": 0.475,
                "pitch": 47,
                "velocity": 127,
                "duration": 0.0681818,
                "tempo": 120.0
            },
            {
                "start_time": 0.475,
                "end_time": 0.4909091,
                "pitch": 45,
                "velocity": 127,
                "duration": 0.0159091,
                "tempo": 120.0
            },
            {
                "start_time": 0.4909091,
                "end_time": 0.5409091,
                "pitch": 41,
                "velocity": 127,
                "duration": 0.05,
                "tempo": 120.0
            },
            {
                "start_time": 0.5409091,
                "end_time": 0.575,
                "pitch": 38,
                "velocity": 127,
                "duration": 0.0340909,
                "tempo": 120.0
            },
            {
                "start_time": 0.575,
                "end_time": 0.5909091,
                "pitch": 43,
                "velocity": 127,
                "duration": 0.0159091,
                "tempo": 120.0
            },
            {
                "start_time": 0.5909091,
                "end_time": 0.6409091,
                "pitch": 42,
                "velocity": 127,
                "duration": 0.05,
                "tempo": 120.0
            },
            {
                "start_time": 0.6409091,
                "end_time": 0.6568182,
                "pitch": 40,
                "velocity": 127,
                "duration": 0.0159091,
                "tempo": 120.0
            },
            {
                "start_time": 0.6568182,
                "end_time": 0.725,
                "pitch": 47,
                "velocity": 127,
                "duration": 0.0681818,
                "tempo": 120.0
            },
            {
                "start_time": 0.725,
                "end_time": 0.7431818,
                "pitch": 45,
                "velocity": 127,
                "duration": 0.0181818,
                "tempo": 120.0
            },
            {
                "start_time": 0.7431818,
                "end_time": 0.7931818,
                "pitch": 41,
                "velocity": 127,
                "duration": 0.05,
                "tempo": 120.0
            },
            {
                "start_time": 0.7931818,
                "end_time": 0.8295455,
                "pitch": 38,
                "velocity": 127,
                "duration": 0.0363636,
                "tempo": 120.0
            },
            {
                "start_time": 0.8295455,
                "end_time": 0.8454545,
                "pitch": 43,
                "velocity": 127,
                "duration": 0.0159091,
                "tempo": 120.0
            },
            {
                "start_time": 0.5909091,
                "end_time": 0.8454545,
                "pitch": 55,
                "velocity": 127,
                "duration": 0.2545455,
                "tempo": 120.0
            },
            {
                "start_time": 0.8454545,
                "end_time": 0.8977273,
                "pitch": 42,
                "velocity": 127,
                "duration": 0.0522727,
                "tempo": 120.0
            },
            {
                "start_time": 0.8977273,
                "end_time": 0.9136364,
                "pitch": 40,
                "velocity": 127,
                "duration": 0.0159091,
                "tempo": 120.0
            },
            {
                "start_time": 0.9136364,
                "end_time": 0.9818182,
                "pitch": 47,
                "velocity": 127,
                "duration": 0.0681818,
                "tempo": 120.0
            },
            {
                "start_time": 0.9818182,
                "end_time": 1.0,
                "pitch": 45,
                "velocity": 127,
                "duration": 0.0181818,
                "tempo": 120.0
            },
            {
                "start_time": 1.0,
                "end_time": 1.05,
                "pitch": 41,
                "velocity": 127,
                "duration": 0.05,
                "tempo": 120.0
            },
            {
                "start_time": 1.05,
                "end_time": 1.0840909,
                "pitch": 38,
                "velocity": 127,
                "duration": 0.0340909,
                "tempo": 120.0
            },
            {
                "start_time": 1.0863636,
                "end_time": 1.1022727,
                "pitch": 43,
                "velocity": 127,
                "duration": 0.0159091,
                "tempo": 120.0
            },
            {
                "start_time": 0.8454545,
                "end_time": 1.1022727,
                "pitch": 55,
                "velocity": 127,
                "duration": 0.2568182,
                "tempo": 120.0
            },
            {
                "start_time": 1.1022727,
                "end_time": 1.1545455,
                "pitch": 42,
                "velocity": 127,
                "duration": 0.0522727,
                "tempo": 120.0
            },
            {
                "start_time": 1.1545455,
                "end_time": 1.1704545,
                "pitch": 40,
                "velocity": 127,
                "duration": 0.0159091,
                "tempo": 120.0
            },
            {
                "start_time": 1.1704545,
                "end_time": 1.2386364,
                "pitch": 47,
                "velocity": 127,
                "duration": 0.0681818,
                "tempo": 120.0
            },
            {
                "start_time": 1.2386364,
                "end_time": 1.2545455,
                "pitch": 45,
                "velocity": 127,
                "duration": 0.0159091,
                "tempo": 120.0
            },
            {
                "start_time": 1.2545455,
                "end_time": 1.3045455,
                "pitch": 41,
                "velocity": 127,
                "duration": 0.05,
                "tempo": 120.0
            },
            {
                "start_time": 1.3045455,
                "end_time": 1.3386364,
                "pitch": 38,
                "velocity": 127,
                "duration": 0.0340909,
                "tempo": 120.0
            },
            {
                "start_time": 1.3386364,
                "end_time": 1.3545455,
                "pitch": 43,
                "velocity": 127,
                "duration": 0.0159091,
                "tempo": 120.0
            },
            {
                "start_time": 1.1022727,
                "end_time": 1.3545455,
                "pitch": 55,
                "velocity": 127,
                "duration": 0.2522727,
                "tempo": 120.0
            },
            {
                "start_time": 1.3545455,
                "end_time": 1.4045455,
                "pitch": 42,
                "velocity": 127,
                "duration": 0.05,
                "tempo": 120.0
            },
            {
                "start_time": 1.4045455,
                "end_time": 1.4204545,
                "pitch": 40,
                "velocity": 127,
                "duration": 0.0159091,
                "tempo": 120.0
            },
            {
                "start_time": 1.4227273,
                "end_time": 1.4886364,
                "pitch": 47,
                "velocity": 127,
                "duration": 0.0659091,
                "tempo": 120.0
            },
            {
                "start_time": 1.4886364,
                "end_time": 1.5045455,
                "pitch": 45,
                "velocity": 127,
                "duration": 0.0159091,
                "tempo": 120.0
            },
            {
                "start_time": 1.5045455,
                "end_time": 1.5545455,
                "pitch": 41,
                "velocity": 127,
                "duration": 0.05,
                "tempo": 120.0
            },
            {
                "start_time": 1.5545455,
                "end_time": 1.5886364,
                "pitch": 38,
                "velocity": 127,
                "duration": 0.0340909,
                "tempo": 120.0
            },
            {
                "start_time": 1.5886364,
                "end_time": 1.6045455,
                "pitch": 43,
                "velocity": 127,
                "duration": 0.0159091,
                "tempo": 120.0
            },
            {
                "start_time": 1.3545455,
                "end_time": 1.6045455,
                "pitch": 55,
                "velocity": 127,
                "duration": 0.25,
                "tempo": 120.0
            },
            {
                "start_time": 1.6045455,
                "end_time": 1.6545455,
                "pitch": 42,
                "velocity": 127,
                "duration": 0.05,
                "tempo": 120.0
            },
            {
                "start_time": 1.6545455,
                "end_time": 1.6704545,
                "pitch": 40,
                "velocity": 127,
                "duration": 0.0159091,
                "tempo": 120.0
            },
            {
                "start_time": 1.6727273,
                "end_time": 1.7386364,
                "pitch": 47,
                "velocity": 127,
                "duration": 0.0659091,
                "tempo": 120.0
            },
            {
                "start_time": 1.7386364,
                "end_time": 1.7545455,
                "pitch": 45,
                "velocity": 127,
                "duration": 0.0159091,
                "tempo": 120.0
            },
            {
                "start_time": 1.7545455,
                "end_time": 1.8045455,
                "pitch": 41,
                "velocity": 127,
                "duration": 0.05,
                "tempo": 120.0
            },
            {
                "start_time": 1.8045455,
                "end_time": 1.8386364,
                "pitch": 38,
                "velocity": 127,
                "duration": 0.0340909,
                "tempo": 120.0
            },
            {
                "start_time": 1.8386364,
                "end_time": 1.8545455,
                "pitch": 43,
                "velocity": 127,
                "duration": 0.0159091,
                "tempo": 120.0
            },
            {
                "start_time": 1.6045455,
                "end_time": 1.8545455,
                "pitch": 55,
                "velocity": 127,
                "duration": 0.25,
                "tempo": 120.0
            },
            {
                "start_time": 1.8545455,
                "end_time": 1.9045455,
                "pitch": 42,
                "velocity": 127,
                "duration": 0.05,
                "tempo": 120.0
            },
            {
                "start_time": 1.9045455,
                "end_time": 1.9227273,
                "pitch": 40,
                "velocity": 127,
                "duration": 0.0181818,
                "tempo": 120.0
            },
            {
                "start_time": 1.9227273,
                "end_time": 1.9886364,
                "pitch": 47,
                "velocity": 127,
                "duration": 0.0659091,
                "tempo": 120.0
            },
            {
                "start_time": 1.9886364,
                "end_time": 2.0045455,
                "pitch": 45,
                "velocity": 127,
                "duration": 0.0159091,
                "tempo": 120.0
            },
            {
                "start_time": 2.0068182,
                "end_time": 2.0545455,
                "pitch": 41,
                "velocity": 127,
                "duration": 0.0477273,
                "tempo": 120.0
            },
            {
                "start_time": 2.0545455,
                "end_time": 2.0886364,
                "pitch": 38,
                "velocity": 127,
                "duration": 0.0340909,
                "tempo": 120.0
            },
            {
                "start_time": 2.0886364,
                "end_time": 2.1045455,
                "pitch": 43,
                "velocity": 127,
                "duration": 0.0159091,
                "tempo": 120.0
            },
            {
                "start_time": 1.8545455,
                "end_time": 2.1045455,
                "pitch": 55,
                "velocity": 127,
                "duration": 0.25,
                "tempo": 120.0
            },
            {
                "start_time": 2.1045455,
                "end_time": 2.1545455,
                "pitch": 42,
                "velocity": 127,
                "duration": 0.05,
                "tempo": 120.0
            },
            {
                "start_time": 2.1545455,
                "end_time": 2.1727273,
                "pitch": 40,
                "velocity": 127,
                "duration": 0.0181818,
                "tempo": 120.0
            },
            {
                "start_time": 2.1727273,
                "end_time": 2.2386364,
                "pitch": 59,
                "velocity": 127,
                "duration": 0.0659091,
                "tempo": 120.0
            },
            {
                "start_time": 2.2386364,
                "end_time": 2.2568182,
                "pitch": 57,
                "velocity": 127,
                "duration": 0.0181818,
                "tempo": 120.0
            },
            {
                "start_time": 2.2568182,
                "end_time": 2.3227273,
                "pitch": 57,
                "velocity": 127,
                "duration": 0.0659091,
                "tempo": 120.0
            },
            {
                "start_time": 0.3409091,
                "end_time": 2.3227273,
                "pitch": 67,
                "velocity": 127,
                "duration": 1.9818182,
                "tempo": 120.0
            },
            {
                "start_time": 2.3227273,
                "end_time": 2.3409091,
                "pitch": 54,
                "velocity": 127,
                "duration": 0.0181818,
                "tempo": 120.0
            },
            {
                "start_time": 2.1045455,
                "end_time": 2.3568182,
                "pitch": 55,
                "velocity": 127,
                "duration": 0.2522727,
                "tempo": 120.0
            },
            {
                "start_time": 2.3409091,
                "end_time": 2.3568182,
                "pitch": 55,
                "velocity": 127,
                "duration": 0.0159091,
                "tempo": 120.0
            },
            {
                "start_time": 2.3227273,
                "end_time": 2.3568182,
                "pitch": 67,
                "velocity": 127,
                "duration": 0.0340909,
                "tempo": 120.0
            },
            {
                "start_time": 2.3568182,
                "end_time": 2.4068182,
                "pitch": 54,
                "velocity": 127,
                "duration": 0.05,
                "tempo": 120.0
            },
            {
                "start_time": 2.4068182,
                "end_time": 2.425,
                "pitch": 52,
                "velocity": 127,
                "duration": 0.0181818,
                "tempo": 120.0
            },
            {
                "start_time": 2.425,
                "end_time": 2.4909091,
                "pitch": 47,
                "velocity": 127,
                "duration": 0.0659091,
                "tempo": 120.0
            },
            {
                "start_time": 2.4909091,
                "end_time": 2.5090909,
                "pitch": 45,
                "velocity": 127,
                "duration": 0.0181818,
                "tempo": 120.0
            },
            {
                "start_time": 2.5090909,
                "end_time": 2.5590909,
                "pitch": 41,
                "velocity": 127,
                "duration": 0.05,
                "tempo": 120.0
            },
            {
                "start_time": 2.5590909,
                "end_time": 2.5931818,
                "pitch": 38,
                "velocity": 127,
                "duration": 0.0340909,
                "tempo": 120.0
            },
            {
                "start_time": 2.5931818,
                "end_time": 2.6090909,
                "pitch": 43,
                "velocity": 127,
                "duration": 0.0159091,
                "tempo": 120.0
            },
            {
                "start_time": 2.6090909,
                "end_time": 2.6613636,
                "pitch": 42,
                "velocity": 127,
                "duration": 0.0522727,
                "tempo": 120.0
            },
            {
                "start_time": 2.6613636,
                "end_time": 2.6772727,
                "pitch": 40,
                "velocity": 127,
                "duration": 0.0159091,
                "tempo": 120.0
            },
            {
                "start_time": 2.6772727,
                "end_time": 2.7431818,
                "pitch": 47,
                "velocity": 127,
                "duration": 0.0659091,
                "tempo": 120.0
            },
            {
                "start_time": 2.7431818,
                "end_time": 2.7613636,
                "pitch": 45,
                "velocity": 127,
                "duration": 0.0181818,
                "tempo": 120.0
            },
            {
                "start_time": 2.7613636,
                "end_time": 2.8113636,
                "pitch": 41,
                "velocity": 127,
                "duration": 0.05,
                "tempo": 120.0
            },
            {
                "start_time": 2.8113636,
                "end_time": 2.8431818,
                "pitch": 38,
                "velocity": 127,
                "duration": 0.0318182,
                "tempo": 120.0
            },
            {
                "start_time": 2.8454545,
                "end_time": 2.8613636,
                "pitch": 43,
                "velocity": 127,
                "duration": 0.0159091,
                "tempo": 120.0
            },
            {
                "start_time": 2.6090909,
                "end_time": 2.8613636,
                "pitch": 55,
                "velocity": 127,
                "duration": 0.2522727,
                "tempo": 120.0
            },
            {
                "start_time": 2.8613636,
                "end_time": 2.9113636,
                "pitch": 42,
                "velocity": 127,
                "duration": 0.05,
                "tempo": 120.0
            },
            {
                "start_time": 2.9113636,
                "end_time": 2.9272727,
                "pitch": 40,
                "velocity": 127,
                "duration": 0.0159091,
                "tempo": 120.0
            },
            {
                "start_time": 2.9272727,
                "end_time": 2.9931818,
                "pitch": 47,
                "velocity": 127,
                "duration": 0.0659091,
                "tempo": 120.0
            },
            {
                "start_time": 2.9931818,
                "end_time": 3.0113636,
                "pitch": 45,
                "velocity": 127,
                "duration": 0.0181818,
                "tempo": 120.0
            },
            {
                "start_time": 3.0113636,
                "end_time": 3.0613636,
                "pitch": 41,
                "velocity": 127,
                "duration": 0.05,
                "tempo": 120.0
            },
            {
                "start_time": 3.0613636,
                "end_time": 3.0931818,
                "pitch": 38,
                "velocity": 127,
                "duration": 0.0318182,
                "tempo": 120.0
            },
            {
                "start_time": 3.0954545,
                "end_time": 3.1113636,
                "pitch": 43,
                "velocity": 127,
                "duration": 0.0159091,
                "tempo": 120.0
            },
            {
                "start_time": 2.8613636,
                "end_time": 3.1113636,
                "pitch": 55,
                "velocity": 127,
                "duration": 0.25,
                "tempo": 120.0
            },
            {
                "start_time": 3.1113636,
                "end_time": 3.1613636,
                "pitch": 42,
                "velocity": 127,
                "duration": 0.05,
                "tempo": 120.0
            },
            {
                "start_time": 3.1613636,
                "end_time": 3.1772727,
                "pitch": 40,
                "velocity": 127,
                "duration": 0.0159091,
                "tempo": 120.0
            },
            {
                "start_time": 3.1772727,
                "end_time": 3.2454545,
                "pitch": 47,
                "velocity": 127,
                "duration": 0.0681818,
                "tempo": 120.0
            },
            {
                "start_time": 3.2454545,
                "end_time": 3.2613636,
                "pitch": 45,
                "velocity": 127,
                "duration": 0.0159091,
                "tempo": 120.0
            },
            {
                "start_time": 3.2613636,
                "end_time": 3.3113636,
                "pitch": 41,
                "velocity": 127,
                "duration": 0.05,
                "tempo": 120.0
            },
            {
                "start_time": 3.3113636,
                "end_time": 3.3454545,
                "pitch": 38,
                "velocity": 127,
                "duration": 0.0340909,
                "tempo": 120.0
            },
            {
                "start_time": 3.3454545,
                "end_time": 3.3613636,
                "pitch": 43,
                "velocity": 127,
                "duration": 0.0159091,
                "tempo": 120.0
            },
            {
                "start_time": 3.1113636,
                "end_time": 3.3613636,
                "pitch": 55,
                "velocity": 127,
                "duration": 0.25,
                "tempo": 120.0
            },
            {
                "start_time": 3.3613636,
                "end_time": 3.4113636,
                "pitch": 42,
                "velocity": 127,
                "duration": 0.05,
                "tempo": 120.0
            },
            {
                "start_time": 3.4113636,
                "end_time": 3.4272727,
                "pitch": 40,
                "velocity": 127,
                "duration": 0.0159091,
                "tempo": 120.0
            },
            {
                "start_time": 3.4295455,
                "end_time": 3.4954545,
                "pitch": 47,
                "velocity": 127,
                "duration": 0.0659091,
                "tempo": 120.0
            },
            {
                "start_time": 3.4954545,
                "end_time": 3.5113636,
                "pitch": 45,
                "velocity": 127,
                "duration": 0.0159091,
                "tempo": 120.0
            },
            {
                "start_time": 3.5113636,
                "end_time": 3.5613636,
                "pitch": 41,
                "velocity": 127,
                "duration": 0.05,
                "tempo": 120.0
            },
            {
                "start_time": 3.5613636,
                "end_time": 3.5954545,
                "pitch": 38,
                "velocity": 127,
                "duration": 0.0340909,
                "tempo": 120.0
            },
            {
                "start_time": 3.5954545,
                "end_time": 3.6113636,
                "pitch": 43,
                "velocity": 127,
                "duration": 0.0159091,
                "tempo": 120.0
            },
            {
                "start_time": 3.3613636,
                "end_time": 3.6113636,
                "pitch": 55,
                "velocity": 127,
                "duration": 0.25,
                "tempo": 120.0
            },
            {
                "start_time": 3.6113636,
                "end_time": 3.6613636,
                "pitch": 42,
                "velocity": 127,
                "duration": 0.05,
                "tempo": 120.0
            },
            {
                "start_time": 3.6613636,
                "end_time": 3.6772727,
                "pitch": 40,
                "velocity": 127,
                "duration": 0.0159091,
                "tempo": 120.0
            },
            {
                "start_time": 3.6795455,
                "end_time": 3.7454545,
                "pitch": 47,
                "velocity": 127,
                "duration": 0.0659091,
                "tempo": 120.0
            },
            {
                "start_time": 3.7454545,
                "end_time": 3.7613636,
                "pitch": 45,
                "velocity": 127,
                "duration": 0.0159091,
                "tempo": 120.0
            },
            {
                "start_time": 3.7613636,
                "end_time": 3.8113636,
                "pitch": 41,
                "velocity": 127,
                "duration": 0.05,
                "tempo": 120.0
            },
            {
                "start_time": 3.8113636,
                "end_time": 3.8454545,
                "pitch": 38,
                "velocity": 127,
                "duration": 0.0340909,
                "tempo": 120.0
            },
            {
                "start_time": 3.8454545,
                "end_time": 3.8613636,
                "pitch": 43,
                "velocity": 127,
                "duration": 0.0159091,
                "tempo": 120.0
            },
            {
                "start_time": 3.6113636,
                "end_time": 3.8613636,
                "pitch": 55,
                "velocity": 127,
                "duration": 0.25,
                "tempo": 120.0
            },
            {
                "start_time": 3.8613636,
                "end_time": 3.9113636,
                "pitch": 42,
                "velocity": 127,
                "duration": 0.05,
                "tempo": 120.0
            },
            {
                "start_time": 3.9113636,
                "end_time": 3.9295455,
                "pitch": 40,
                "velocity": 127,
                "duration": 0.0181818,
                "tempo": 120.0
            },
            {
                "start_time": 3.9295455,
                "end_time": 3.9954545,
                "pitch": 47,
                "velocity": 127,
                "duration": 0.0659091,
                "tempo": 120.0
            },
            {
                "start_time": 3.9954545,
                "end_time": 4.0113636,
                "pitch": 45,
                "velocity": 127,
                "duration": 0.0159091,
                "tempo": 120.0
            },
            {
                "start_time": 4.0113636,
                "end_time": 4.0613636,
                "pitch": 41,
                "velocity": 127,
                "duration": 0.05,
                "tempo": 120.0
            },
            {
                "start_time": 4.0613636,
                "end_time": 4.0954545,
                "pitch": 38,
                "velocity": 127,
                "duration": 0.0340909,
                "tempo": 120.0
            },
            {
                "start_time": 4.0954545,
                "end_time": 4.1113636,
                "pitch": 43,
                "velocity": 127,
                "duration": 0.0159091,
                "tempo": 120.0
            },
            {
                "start_time": 3.8613636,
                "end_time": 4.1113636,
                "pitch": 55,
                "velocity": 127,
                "duration": 0.25,
                "tempo": 120.0
            },
            {
                "start_time": 4.1113636,
                "end_time": 4.1613636,
                "pitch": 42,
                "velocity": 127,
                "duration": 0.05,
                "tempo": 120.0
            },
            {
                "start_time": 4.1613636,
                "end_time": 4.1795455,
                "pitch": 40,
                "velocity": 127,
                "duration": 0.0181818,
                "tempo": 120.0
            },
            {
                "start_time": 4.1795455,
                "end_time": 4.1954545,
                "pitch": 50,
                "velocity": 127,
                "duration": 0.0159091,
                "tempo": 120.0
            },
            {
                "start_time": 4.1954545,
                "end_time": 4.2454545,
                "pitch": 50,
                "velocity": 127,
                "duration": 0.05,
                "tempo": 120.0
            },
            {
                "start_time": 4.2454545,
                "end_time": 4.2795455,
                "pitch": 47,
                "velocity": 127,
                "duration": 0.0340909,
                "tempo": 120.0
            },
            {
                "start_time": 4.2795455,
                "end_time": 4.3113636,
                "pitch": 45,
                "velocity": 127,
                "duration": 0.0318182,
                "tempo": 120.0
            },
            {
                "start_time": 4.3113636,
                "end_time": 4.3454545,
                "pitch": 42,
                "velocity": 127,
                "duration": 0.0340909,
                "tempo": 120.0
            },
            {
                "start_time": 4.3454545,
                "end_time": 4.3795455,
                "pitch": 39,
                "velocity": 127,
                "duration": 0.0340909,
                "tempo": 120.0
            },
            {
                "start_time": 4.3795455,
                "end_time": 4.3954545,
                "pitch": 35,
                "velocity": 127,
                "duration": 0.0159091,
                "tempo": 120.0
            },
            {
                "start_time": 4.3954545,
                "end_time": 4.4136364,
                "pitch": 33,
                "velocity": 127,
                "duration": 0.0181818,
                "tempo": 120.0
            },
            {
                "start_time": 4.4136364,
                "end_time": 4.4295455,
                "pitch": 30,
                "velocity": 127,
                "duration": 0.0159091,
                "tempo": 120.0
            },
            {
                "start_time": 4.4295455,
                "end_time": 4.4454545,
                "pitch": 27,
                "velocity": 127,
                "duration": 0.0159091,
                "tempo": 120.0
            },
            {
                "start_time": 4.4454545,
                "end_time": 4.4636364,
                "pitch": 24,
                "velocity": 127,
                "duration": 0.0181818,
                "tempo": 120.0
            },
            {
                "start_time": 4.4636364,
                "end_time": 4.4795455,
                "pitch": 19,
                "velocity": 127,
                "duration": 0.0159091,
                "tempo": 120.0
            },
            {
                "start_time": 4.4795455,
                "end_time": 4.4954545,
                "pitch": 12,
                "velocity": 127,
                "duration": 0.0159091,
                "tempo": 120.0
            },
            {
                "start_time": 4.4954545,
                "end_time": 4.5636364,
                "pitch": 2,
                "velocity": 127,
                "duration": 0.0681818,
                "tempo": 120.0
            },
            {
                "start_time": 4.5636364,
                "end_time": 4.5795455,
                "pitch": 47,
                "velocity": 127,
                "duration": 0.0159091,
                "tempo": 120.0
            },
            {
                "start_time": 4.5795455,
                "end_time": 4.6454545,
                "pitch": 47,
                "velocity": 127,
                "duration": 0.0659091,
                "tempo": 120.0
            },
            {
                "start_time": 4.6454545,
                "end_time": 4.6954545,
                "pitch": 45,
                "velocity": 127,
                "duration": 0.05,
                "tempo": 120.0
            },
            {
                "start_time": 4.1113636,
                "end_time": 4.6954545,
                "pitch": 55,
                "velocity": 127,
                "duration": 0.5840909,
                "tempo": 120.0
            },
            {
                "start_time": 4.6954545,
                "end_time": 4.7477273,
                "pitch": 43,
                "velocity": 127,
                "duration": 0.0522727,
                "tempo": 120.0
            },
            {
                "start_time": 4.7477273,
                "end_time": 4.8,
                "pitch": 41,
                "velocity": 127,
                "duration": 0.0522727,
                "tempo": 120.0
            },
            {
                "start_time": 4.8,
                "end_time": 4.85,
                "pitch": 38,
                "velocity": 127,
                "duration": 0.05,
                "tempo": 120.0
            },
            {
                "start_time": 4.85,
                "end_time": 4.8840909,
                "pitch": 35,
                "velocity": 127,
                "duration": 0.0340909,
                "tempo": 120.0
            },
            {
                "start_time": 4.8840909,
                "end_time": 4.9181818,
                "pitch": 33,
                "velocity": 127,
                "duration": 0.0340909,
                "tempo": 120.0
            },
            {
                "start_time": 4.9181818,
                "end_time": 4.9363636,
                "pitch": 30,
                "velocity": 127,
                "duration": 0.0181818,
                "tempo": 120.0
            },
            {
                "start_time": 4.9363636,
                "end_time": 4.9522727,
                "pitch": 50,
                "velocity": 127,
                "duration": 0.0159091,
                "tempo": 120.0
            },
            {
                "start_time": 4.9545455,
                "end_time": 5.0045455,
                "pitch": 50,
                "velocity": 127,
                "duration": 0.05,
                "tempo": 120.0
            },
            {
                "start_time": 5.0045455,
                "end_time": 5.0386364,
                "pitch": 47,
                "velocity": 127,
                "duration": 0.0340909,
                "tempo": 120.0
            },
            {
                "start_time": 5.0386364,
                "end_time": 5.0727273,
                "pitch": 45,
                "velocity": 127,
                "duration": 0.0340909,
                "tempo": 120.0
            },
            {
                "start_time": 5.0727273,
                "end_time": 5.1068182,
                "pitch": 42,
                "velocity": 127,
                "duration": 0.0340909,
                "tempo": 120.0
            },
            {
                "start_time": 5.1068182,
                "end_time": 5.1409091,
                "pitch": 39,
                "velocity": 127,
                "duration": 0.0340909,
                "tempo": 120.0
            },
            {
                "start_time": 5.1409091,
                "end_time": 5.1590909,
                "pitch": 35,
                "velocity": 127,
                "duration": 0.0181818,
                "tempo": 120.0
            },
            {
                "start_time": 5.1590909,
                "end_time": 5.175,
                "pitch": 33,
                "velocity": 127,
                "duration": 0.0159091,
                "tempo": 120.0
            },
            {
                "start_time": 5.175,
                "end_time": 5.1931818,
                "pitch": 30,
                "velocity": 127,
                "duration": 0.0181818,
                "tempo": 120.0
            },
            {
                "start_time": 5.1931818,
                "end_time": 5.2090909,
                "pitch": 27,
                "velocity": 127,
                "duration": 0.0159091,
                "tempo": 120.0
            },
            {
                "start_time": 5.2090909,
                "end_time": 5.2272727,
                "pitch": 24,
                "velocity": 127,
                "duration": 0.0181818,
                "tempo": 120.0
            },
            {
                "start_time": 5.2272727,
                "end_time": 5.2431818,
                "pitch": 19,
                "velocity": 127,
                "duration": 0.0159091,
                "tempo": 120.0
            },
            {
                "start_time": 5.2431818,
                "end_time": 5.2590909,
                "pitch": 12,
                "velocity": 127,
                "duration": 0.0159091,
                "tempo": 120.0
            },
            {
                "start_time": 5.2590909,
                "end_time": 5.3272727,
                "pitch": 2,
                "velocity": 127,
                "duration": 0.0681818,
                "tempo": 120.0
            },
            {
                "start_time": 5.3272727,
                "end_time": 5.3431818,
                "pitch": 47,
                "velocity": 127,
                "duration": 0.0159091,
                "tempo": 120.0
            },
            {
                "start_time": 5.3431818,
                "end_time": 5.4090909,
                "pitch": 47,
                "velocity": 127,
                "duration": 0.0659091,
                "tempo": 120.0
            },
            {
                "start_time": 5.4090909,
                "end_time": 5.4590909,
                "pitch": 45,
                "velocity": 127,
                "duration": 0.05,
                "tempo": 120.0
            },
            {
                "start_time": 4.6954545,
                "end_time": 5.4590909,
                "pitch": 55,
                "velocity": 127,
                "duration": 0.7636364,
                "tempo": 120.0
            },
            {
                "start_time": 5.4590909,
                "end_time": 5.5090909,
                "pitch": 43,
                "velocity": 127,
                "duration": 0.05,
                "tempo": 120.0
            },
            {
                "start_time": 5.5090909,
                "end_time": 5.5613636,
                "pitch": 41,
                "velocity": 127,
                "duration": 0.0522727,
                "tempo": 120.0
            },
            {
                "start_time": 5.5613636,
                "end_time": 5.6113636,
                "pitch": 38,
                "velocity": 127,
                "duration": 0.05,
                "tempo": 120.0
            },
            {
                "start_time": 5.6113636,
                "end_time": 5.6431818,
                "pitch": 35,
                "velocity": 127,
                "duration": 0.0318182,
                "tempo": 120.0
            },
            {
                "start_time": 5.6431818,
                "end_time": 5.6772727,
                "pitch": 33,
                "velocity": 127,
                "duration": 0.0340909,
                "tempo": 120.0
            },
            {
                "start_time": 5.6772727,
                "end_time": 5.6931818,
                "pitch": 30,
                "velocity": 127,
                "duration": 0.0159091,
                "tempo": 120.0
            },
            {
                "start_time": 5.6954545,
                "end_time": 5.7613636,
                "pitch": 59,
                "velocity": 127,
                "duration": 0.0659091,
                "tempo": 120.0
            },
            {
                "start_time": 5.7613636,
                "end_time": 5.7772727,
                "pitch": 57,
                "velocity": 127,
                "duration": 0.0159091,
                "tempo": 120.0
            },
            {
                "start_time": 5.7772727,
                "end_time": 5.8431818,
                "pitch": 57,
                "velocity": 127,
                "duration": 0.0659091,
                "tempo": 120.0
            },
            {
                "start_time": 2.3568182,
                "end_time": 5.8431818,
                "pitch": 67,
                "velocity": 127,
                "duration": 3.4863636,
                "tempo": 120.0
            },
            {
                "start_time": 5.8431818,
                "end_time": 5.8613636,
                "pitch": 54,
                "velocity": 127,
                "duration": 0.0181818,
                "tempo": 120.0
            },
            {
                "start_time": 5.4590909,
                "end_time": 5.8772727,
                "pitch": 55,
                "velocity": 127,
                "duration": 0.4181818,
                "tempo": 120.0
            },
            {
                "start_time": 5.8613636,
                "end_time": 5.8772727,
                "pitch": 55,
                "velocity": 127,
                "duration": 0.0159091,
                "tempo": 120.0
            },
            {
                "start_time": 5.8431818,
                "end_time": 5.8772727,
                "pitch": 67,
                "velocity": 127,
                "duration": 0.0340909,
                "tempo": 120.0
            },
            {
                "start_time": 5.8772727,
                "end_time": 5.9272727,
                "pitch": 54,
                "velocity": 127,
                "duration": 0.05,
                "tempo": 120.0
            },
            {
                "start_time": 5.9272727,
                "end_time": 5.9431818,
                "pitch": 52,
                "velocity": 127,
                "duration": 0.0159091,
                "tempo": 120.0
            },
            {
                "start_time": 5.9454545,
                "end_time": 5.9931818,
                "pitch": 53,
                "velocity": 127,
                "duration": 0.0477273,
                "tempo": 120.0
            },
            {
                "start_time": 5.9931818,
                "end_time": 6.0272727,
                "pitch": 50,
                "velocity": 127,
                "duration": 0.0340909,
                "tempo": 120.0
            },
            {
                "start_time": 6.0272727,
                "end_time": 6.0772727,
                "pitch": 52,
                "velocity": 127,
                "duration": 0.05,
                "tempo": 120.0
            },
            {
                "start_time": 6.0772727,
                "end_time": 6.1113636,
                "pitch": 49,
                "velocity": 127,
                "duration": 0.0340909,
                "tempo": 120.0
            },
            {
                "start_time": 6.1113636,
                "end_time": 6.1613636,
                "pitch": 50,
                "velocity": 127,
                "duration": 0.05,
                "tempo": 120.0
            },
            {
                "start_time": 6.1613636,
                "end_time": 6.1954545,
                "pitch": 47,
                "velocity": 127,
                "duration": 0.0340909,
                "tempo": 120.0
            },
            {
                "start_time": 6.1954545,
                "end_time": 6.2613636,
                "pitch": 47,
                "velocity": 127,
                "duration": 0.0659091,
                "tempo": 120.0
            },
            {
                "start_time": 6.2613636,
                "end_time": 6.3113636,
                "pitch": 45,
                "velocity": 127,
                "duration": 0.05,
                "tempo": 120.0
            },
            {
                "start_time": 6.3113636,
                "end_time": 6.3613636,
                "pitch": 43,
                "velocity": 127,
                "duration": 0.05,
                "tempo": 120.0
            },
            {
                "start_time": 6.3613636,
                "end_time": 6.4113636,
                "pitch": 41,
                "velocity": 127,
                "duration": 0.05,
                "tempo": 120.0
            },
            {
                "start_time": 6.4113636,
                "end_time": 6.4454545,
                "pitch": 38,
                "velocity": 127,
                "duration": 0.0340909,
                "tempo": 120.0
            },
            {
                "start_time": 6.4454545,
                "end_time": 6.4954545,
                "pitch": 53,
                "velocity": 127,
                "duration": 0.05,
                "tempo": 120.0
            },
            {
                "start_time": 6.4954545,
                "end_time": 6.5454545,
                "pitch": 50,
                "velocity": 127,
                "duration": 0.05,
                "tempo": 120.0
            },
            {
                "start_time": 6.5454545,
                "end_time": 6.5772727,
                "pitch": 48,
                "velocity": 127,
                "duration": 0.0318182,
                "tempo": 120.0
            },
            {
                "start_time": 6.5772727,
                "end_time": 6.6113636,
                "pitch": 45,
                "velocity": 127,
                "duration": 0.0340909,
                "tempo": 120.0
            },
            {
                "start_time": 6.6113636,
                "end_time": 6.6454545,
                "pitch": 43,
                "velocity": 127,
                "duration": 0.0340909,
                "tempo": 120.0
            },
            {
                "start_time": 6.6454545,
                "end_time": 6.6772727,
                "pitch": 40,
                "velocity": 127,
                "duration": 0.0318182,
                "tempo": 120.0
            },
            {
                "start_time": 6.6772727,
                "end_time": 6.6954545,
                "pitch": 36,
                "velocity": 127,
                "duration": 0.0181818,
                "tempo": 120.0
            },
            {
                "start_time": 6.6954545,
                "end_time": 6.7613636,
                "pitch": 47,
                "velocity": 127,
                "duration": 0.0659091,
                "tempo": 120.0
            },
            {
                "start_time": 6.7613636,
                "end_time": 6.8113636,
                "pitch": 45,
                "velocity": 127,
                "duration": 0.05,
                "tempo": 120.0
            },
            {
                "start_time": 6.3113636,
                "end_time": 6.8113636,
                "pitch": 55,
                "velocity": 127,
                "duration": 0.5,
                "tempo": 120.0
            },
            {
                "start_time": 6.8113636,
                "end_time": 6.8613636,
                "pitch": 43,
                "velocity": 127,
                "duration": 0.05,
                "tempo": 120.0
            },
            {
                "start_time": 6.8613636,
                "end_time": 6.9113636,
                "pitch": 41,
                "velocity": 127,
                "duration": 0.05,
                "tempo": 120.0
            },
            {
                "start_time": 6.9113636,
                "end_time": 6.9454545,
                "pitch": 38,
                "velocity": 127,
                "duration": 0.0340909,
                "tempo": 120.0
            },
            {
                "start_time": 6.9454545,
                "end_time": 6.9954545,
                "pitch": 53,
                "velocity": 127,
                "duration": 0.05,
                "tempo": 120.0
            },
            {
                "start_time": 6.9954545,
                "end_time": 7.0454545,
                "pitch": 50,
                "velocity": 127,
                "duration": 0.05,
                "tempo": 120.0
            },
            {
                "start_time": 7.0454545,
                "end_time": 7.0795455,
                "pitch": 48,
                "velocity": 127,
                "duration": 0.0340909,
                "tempo": 120.0
            },
            {
                "start_time": 7.0795455,
                "end_time": 7.1113636,
                "pitch": 45,
                "velocity": 127,
                "duration": 0.0318182,
                "tempo": 120.0
            },
            {
                "start_time": 7.1113636,
                "end_time": 7.1454545,
                "pitch": 43,
                "velocity": 127,
                "duration": 0.0340909,
                "tempo": 120.0
            },
            {
                "start_time": 7.1454545,
                "end_time": 7.1795455,
                "pitch": 40,
                "velocity": 127,
                "duration": 0.0340909,
                "tempo": 120.0
            },
            {
                "start_time": 7.1795455,
                "end_time": 7.1954545,
                "pitch": 36,
                "velocity": 127,
                "duration": 0.0159091,
                "tempo": 120.0
            },
            {
                "start_time": 7.1954545,
                "end_time": 7.2613636,
                "pitch": 47,
                "velocity": 127,
                "duration": 0.0659091,
                "tempo": 120.0
            },
            {
                "start_time": 7.2613636,
                "end_time": 7.3136364,
                "pitch": 45,
                "velocity": 127,
                "duration": 0.0522727,
                "tempo": 120.0
            },
            {
                "start_time": 6.8113636,
                "end_time": 7.3136364,
                "pitch": 55,
                "velocity": 127,
                "duration": 0.5022727,
                "tempo": 120.0
            },
            {
                "start_time": 7.3136364,
                "end_time": 7.3636364,
                "pitch": 43,
                "velocity": 127,
                "duration": 0.05,
                "tempo": 120.0
            },
            {
                "start_time": 7.3636364,
                "end_time": 7.4136364,
                "pitch": 41,
                "velocity": 127,
                "duration": 0.05,
                "tempo": 120.0
            },
            {
                "start_time": 7.4136364,
                "end_time": 7.4454545,
                "pitch": 38,
                "velocity": 127,
                "duration": 0.0318182,
                "tempo": 120.0
            },
            {
                "start_time": 7.4454545,
                "end_time": 7.4954545,
                "pitch": 53,
                "velocity": 127,
                "duration": 0.05,
                "tempo": 120.0
            },
            {
                "start_time": 7.4954545,
                "end_time": 7.5454545,
                "pitch": 50,
                "velocity": 127,
                "duration": 0.05,
                "tempo": 120.0
            },
            {
                "start_time": 7.5454545,
                "end_time": 7.5795455,
                "pitch": 48,
                "velocity": 127,
                "duration": 0.0340909,
                "tempo": 120.0
            },
            {
                "start_time": 7.5795455,
                "end_time": 7.6136364,
                "pitch": 45,
                "velocity": 127,
                "duration": 0.0340909,
                "tempo": 120.0
            },
            {
                "start_time": 7.6136364,
                "end_time": 7.6454545,
                "pitch": 43,
                "velocity": 127,
                "duration": 0.0318182,
                "tempo": 120.0
            },
            {
                "start_time": 7.6454545,
                "end_time": 7.6795455,
                "pitch": 40,
                "velocity": 127,
                "duration": 0.0340909,
                "tempo": 120.0
            },
            {
                "start_time": 7.6795455,
                "end_time": 7.6954545,
                "pitch": 36,
                "velocity": 127,
                "duration": 0.0159091,
                "tempo": 120.0
            },
            {
                "start_time": 7.6977273,
                "end_time": 7.7636364,
                "pitch": 47,
                "velocity": 127,
                "duration": 0.0659091,
                "tempo": 120.0
            },
            {
                "start_time": 7.7636364,
                "end_time": 7.8136364,
                "pitch": 45,
                "velocity": 127,
                "duration": 0.05,
                "tempo": 120.0
            },
            {
                "start_time": 7.3136364,
                "end_time": 7.8136364,
                "pitch": 55,
                "velocity": 127,
                "duration": 0.5,
                "tempo": 120.0
            },
            {
                "start_time": 7.8136364,
                "end_time": 7.8636364,
                "pitch": 43,
                "velocity": 127,
                "duration": 0.05,
                "tempo": 120.0
            },
            {
                "start_time": 7.8636364,
                "end_time": 7.9136364,
                "pitch": 41,
                "velocity": 127,
                "duration": 0.05,
                "tempo": 120.0
            },
            {
                "start_time": 7.9136364,
                "end_time": 7.9477273,
                "pitch": 38,
                "velocity": 127,
                "duration": 0.0340909,
                "tempo": 120.0
            },
            {
                "start_time": 7.9477273,
                "end_time": 7.9977273,
                "pitch": 53,
                "velocity": 127,
                "duration": 0.05,
                "tempo": 120.0
            },
            {
                "start_time": 7.9977273,
                "end_time": 8.0477273,
                "pitch": 50,
                "velocity": 127,
                "duration": 0.05,
                "tempo": 120.0
            },
            {
                "start_time": 8.0477273,
                "end_time": 8.0795455,
                "pitch": 48,
                "velocity": 127,
                "duration": 0.0318182,
                "tempo": 120.0
            },
            {
                "start_time": 8.0795455,
                "end_time": 8.1136364,
                "pitch": 45,
                "velocity": 127,
                "duration": 0.0340909,
                "tempo": 120.0
            },
            {
                "start_time": 8.1136364,
                "end_time": 8.1477273,
                "pitch": 43,
                "velocity": 127,
                "duration": 0.0340909,
                "tempo": 120.0
            },
            {
                "start_time": 8.1477273,
                "end_time": 8.1795455,
                "pitch": 40,
                "velocity": 127,
                "duration": 0.0318182,
                "tempo": 120.0
            },
            {
                "start_time": 8.1795455,
                "end_time": 8.1977273,
                "pitch": 36,
                "velocity": 127,
                "duration": 0.0181818,
                "tempo": 120.0
            },
            {
                "start_time": 8.1977273,
                "end_time": 8.2636364,
                "pitch": 47,
                "velocity": 127,
                "duration": 0.0659091,
                "tempo": 120.0
            },
            {
                "start_time": 8.2636364,
                "end_time": 8.3136364,
                "pitch": 45,
                "velocity": 127,
                "duration": 0.05,
                "tempo": 120.0
            },
            {
                "start_time": 7.8136364,
                "end_time": 8.3159091,
                "pitch": 55,
                "velocity": 127,
                "duration": 0.5022727,
                "tempo": 120.0
            },
            {
                "start_time": 8.3136364,
                "end_time": 8.3159091,
                "pitch": 55,
                "velocity": 127,
                "duration": 0.0022727,
                "tempo": 120.0
            },
            {
                "start_time": 8.3159091,
                "end_time": 8.3659091,
                "pitch": 43,
                "velocity": 127,
                "duration": 0.05,
                "tempo": 120.0
            },
            {
                "start_time": 8.3659091,
                "end_time": 8.4159091,
                "pitch": 41,
                "velocity": 127,
                "duration": 0.05,
                "tempo": 120.0
            },
            {
                "start_time": 8.4159091,
                "end_time": 8.45,
                "pitch": 38,
                "velocity": 127,
                "duration": 0.0340909,
                "tempo": 120.0
            },
            {
                "start_time": 8.45,
                "end_time": 8.5,
                "pitch": 53,
                "velocity": 127,
                "duration": 0.05,
                "tempo": 120.0
            },
            {
                "start_time": 8.5,
                "end_time": 8.55,
                "pitch": 50,
                "velocity": 127,
                "duration": 0.05,
                "tempo": 120.0
            },
            {
                "start_time": 8.55,
                "end_time": 8.5840909,
                "pitch": 48,
                "velocity": 127,
                "duration": 0.0340909,
                "tempo": 120.0
            },
            {
                "start_time": 8.5840909,
                "end_time": 8.6181818,
                "pitch": 45,
                "velocity": 127,
                "duration": 0.0340909,
                "tempo": 120.0
            },
            {
                "start_time": 8.6181818,
                "end_time": 8.6522727,
                "pitch": 43,
                "velocity": 127,
                "duration": 0.0340909,
                "tempo": 120.0
            },
            {
                "start_time": 8.6522727,
                "end_time": 8.6840909,
                "pitch": 40,
                "velocity": 127,
                "duration": 0.0318182,
                "tempo": 120.0
            },
            {
                "start_time": 8.6840909,
                "end_time": 8.7022727,
                "pitch": 36,
                "velocity": 127,
                "duration": 0.0181818,
                "tempo": 120.0
            },
            {
                "start_time": 8.7022727,
                "end_time": 8.7681818,
                "pitch": 47,
                "velocity": 127,
                "duration": 0.0659091,
                "tempo": 120.0
            },
            {
                "start_time": 8.7681818,
                "end_time": 8.8181818,
                "pitch": 45,
                "velocity": 127,
                "duration": 0.05,
                "tempo": 120.0
            },
            {
                "start_time": 8.8181818,
                "end_time": 8.8681818,
                "pitch": 43,
                "velocity": 127,
                "duration": 0.05,
                "tempo": 120.0
            },
            {
                "start_time": 8.8681818,
                "end_time": 8.9181818,
                "pitch": 41,
                "velocity": 127,
                "duration": 0.05,
                "tempo": 120.0
            },
            {
                "start_time": 8.9181818,
                "end_time": 8.9522727,
                "pitch": 38,
                "velocity": 127,
                "duration": 0.0340909,
                "tempo": 120.0
            },
            {
                "start_time": 8.9522727,
                "end_time": 9.0022727,
                "pitch": 53,
                "velocity": 127,
                "duration": 0.05,
                "tempo": 120.0
            },
            {
                "start_time": 9.0022727,
                "end_time": 9.0522727,
                "pitch": 50,
                "velocity": 127,
                "duration": 0.05,
                "tempo": 120.0
            },
            {
                "start_time": 9.0522727,
                "end_time": 9.0863636,
                "pitch": 48,
                "velocity": 127,
                "duration": 0.0340909,
                "tempo": 120.0
            },
            {
                "start_time": 9.0863636,
                "end_time": 9.1181818,
                "pitch": 45,
                "velocity": 127,
                "duration": 0.0318182,
                "tempo": 120.0
            },
            {
                "start_time": 9.1181818,
                "end_time": 9.1522727,
                "pitch": 43,
                "velocity": 127,
                "duration": 0.0340909,
                "tempo": 120.0
            },
            {
                "start_time": 9.1522727,
                "end_time": 9.1863636,
                "pitch": 40,
                "velocity": 127,
                "duration": 0.0340909,
                "tempo": 120.0
            },
            {
                "start_time": 9.1863636,
                "end_time": 9.2022727,
                "pitch": 36,
                "velocity": 127,
                "duration": 0.0159091,
                "tempo": 120.0
            },
            {
                "start_time": 9.2022727,
                "end_time": 9.2522727,
                "pitch": 50,
                "velocity": 127,
                "duration": 0.05,
                "tempo": 120.0
            },
            {
                "start_time": 9.2522727,
                "end_time": 9.2863636,
                "pitch": 47,
                "velocity": 127,
                "duration": 0.0340909,
                "tempo": 120.0
            },
            {
                "start_time": 9.2863636,
                "end_time": 9.3181818,
                "pitch": 45,
                "velocity": 127,
                "duration": 0.0318182,
                "tempo": 120.0
            },
            {
                "start_time": 9.3181818,
                "end_time": 9.3522727,
                "pitch": 42,
                "velocity": 127,
                "duration": 0.0340909,
                "tempo": 120.0
            },
            {
                "start_time": 9.3522727,
                "end_time": 9.3863636,
                "pitch": 39,
                "velocity": 127,
                "duration": 0.0340909,
                "tempo": 120.0
            },
            {
                "start_time": 9.3863636,
                "end_time": 9.4022727,
                "pitch": 35,
                "velocity": 127,
                "duration": 0.0159091,
                "tempo": 120.0
            },
            {
                "start_time": 9.4022727,
                "end_time": 9.4204545,
                "pitch": 33,
                "velocity": 127,
                "duration": 0.0181818,
                "tempo": 120.0
            },
            {
                "start_time": 9.4204545,
                "end_time": 9.4363636,
                "pitch": 30,
                "velocity": 127,
                "duration": 0.0159091,
                "tempo": 120.0
            },
            {
                "start_time": 9.4363636,
                "end_time": 9.4522727,
                "pitch": 27,
                "velocity": 127,
                "duration": 0.0159091,
                "tempo": 120.0
            },
            {
                "start_time": 9.4522727,
                "end_time": 9.5022727,
                "pitch": 50,
                "velocity": 127,
                "duration": 0.05,
                "tempo": 120.0
            },
            {
                "start_time": 9.5022727,
                "end_time": 9.5363636,
                "pitch": 47,
                "velocity": 127,
                "duration": 0.0340909,
                "tempo": 120.0
            },
            {
                "start_time": 9.5363636,
                "end_time": 9.5704545,
                "pitch": 45,
                "velocity": 127,
                "duration": 0.0340909,
                "tempo": 120.0
            },
            {
                "start_time": 9.5704545,
                "end_time": 9.6022727,
                "pitch": 42,
                "velocity": 127,
                "duration": 0.0318182,
                "tempo": 120.0
            },
            {
                "start_time": 9.6022727,
                "end_time": 9.6363636,
                "pitch": 39,
                "velocity": 127,
                "duration": 0.0340909,
                "tempo": 120.0
            },
            {
                "start_time": 9.6363636,
                "end_time": 9.6522727,
                "pitch": 35,
                "velocity": 127,
                "duration": 0.0159091,
                "tempo": 120.0
            },
            {
                "start_time": 9.6522727,
                "end_time": 9.6704545,
                "pitch": 33,
                "velocity": 127,
                "duration": 0.0181818,
                "tempo": 120.0
            },
            {
                "start_time": 9.6704545,
                "end_time": 9.6863636,
                "pitch": 30,
                "velocity": 127,
                "duration": 0.0159091,
                "tempo": 120.0
            },
            {
                "start_time": 9.6863636,
                "end_time": 9.7022727,
                "pitch": 27,
                "velocity": 127,
                "duration": 0.0159091,
                "tempo": 120.0
            },
            {
                "start_time": 9.7045455,
                "end_time": 9.7522727,
                "pitch": 50,
                "velocity": 127,
                "duration": 0.0477273,
                "tempo": 120.0
            },
            {
                "start_time": 9.7522727,
                "end_time": 9.7863636,
                "pitch": 47,
                "velocity": 127,
                "duration": 0.0340909,
                "tempo": 120.0
            },
            {
                "start_time": 9.7863636,
                "end_time": 9.8204545,
                "pitch": 45,
                "velocity": 127,
                "duration": 0.0340909,
                "tempo": 120.0
            },
            {
                "start_time": 9.8204545,
                "end_time": 9.8522727,
                "pitch": 42,
                "velocity": 127,
                "duration": 0.0318182,
                "tempo": 120.0
            },
            {
                "start_time": 9.8522727,
                "end_time": 9.8863636,
                "pitch": 39,
                "velocity": 127,
                "duration": 0.0340909,
                "tempo": 120.0
            },
            {
                "start_time": 9.8863636,
                "end_time": 9.9022727,
                "pitch": 35,
                "velocity": 127,
                "duration": 0.0159091,
                "tempo": 120.0
            },
            {
                "start_time": 9.9022727,
                "end_time": 9.9204545,
                "pitch": 33,
                "velocity": 127,
                "duration": 0.0181818,
                "tempo": 120.0
            },
            {
                "start_time": 9.9204545,
                "end_time": 9.9363636,
                "pitch": 30,
                "velocity": 127,
                "duration": 0.0159091,
                "tempo": 120.0
            },
            {
                "start_time": 9.9363636,
                "end_time": 9.9545455,
                "pitch": 27,
                "velocity": 127,
                "duration": 0.0181818,
                "tempo": 120.0
            },
            {
                "start_time": 9.9545455,
                "end_time": 10.0045455,
                "pitch": 50,
                "velocity": 127,
                "duration": 0.05,
                "tempo": 120.0
            },
            {
                "start_time": 10.0045455,
                "end_time": 10.0363636,
                "pitch": 47,
                "velocity": 127,
                "duration": 0.0318182,
                "tempo": 120.0
            },
            {
                "start_time": 10.0363636,
                "end_time": 10.0704545,
                "pitch": 45,
                "velocity": 127,
                "duration": 0.0340909,
                "tempo": 120.0
            },
            {
                "start_time": 10.0704545,
                "end_time": 10.1045455,
                "pitch": 42,
                "velocity": 127,
                "duration": 0.0340909,
                "tempo": 120.0
            },
            {
                "start_time": 10.1045455,
                "end_time": 10.1363636,
                "pitch": 39,
                "velocity": 127,
                "duration": 0.0318182,
                "tempo": 120.0
            },
            {
                "start_time": 10.1363636,
                "end_time": 10.1545455,
                "pitch": 35,
                "velocity": 127,
                "duration": 0.0181818,
                "tempo": 120.0
            },
            {
                "start_time": 10.1545455,
                "end_time": 10.1704545,
                "pitch": 33,
                "velocity": 127,
                "duration": 0.0159091,
                "tempo": 120.0
            },
            {
                "start_time": 10.1704545,
                "end_time": 10.1863636,
                "pitch": 30,
                "velocity": 127,
                "duration": 0.0159091,
                "tempo": 120.0
            },
            {
                "start_time": 10.1863636,
                "end_time": 10.2045455,
                "pitch": 27,
                "velocity": 127,
                "duration": 0.0181818,
                "tempo": 120.0
            },
            {
                "start_time": 10.2045455,
                "end_time": 10.2704545,
                "pitch": 47,
                "velocity": 127,
                "duration": 0.0659091,
                "tempo": 120.0
            },
            {
                "start_time": 10.2704545,
                "end_time": 10.3204545,
                "pitch": 45,
                "velocity": 127,
                "duration": 0.05,
                "tempo": 120.0
            },
            {
                "start_time": 8.8181818,
                "end_time": 10.3204545,
                "pitch": 55,
                "velocity": 127,
                "duration": 1.5022727,
                "tempo": 120.0
            },
            {
                "start_time": 10.3204545,
                "end_time": 10.3704545,
                "pitch": 43,
                "velocity": 127,
                "duration": 0.05,
                "tempo": 120.0
            },
            {
                "start_time": 10.3704545,
                "end_time": 10.4204545,
                "pitch": 41,
                "velocity": 127,
                "duration": 0.05,
                "tempo": 120.0
            },
            {
                "start_time": 10.4204545,
                "end_time": 10.4545455,
                "pitch": 38,
                "velocity": 127,
                "duration": 0.0340909,
                "tempo": 120.0
            },
            {
                "start_time": 10.4545455,
                "end_time": 10.5045455,
                "pitch": 53,
                "velocity": 127,
                "duration": 0.05,
                "tempo": 120.0
            },
            {
                "start_time": 10.5045455,
                "end_time": 10.5545455,
                "pitch": 50,
                "velocity": 127,
                "duration": 0.05,
                "tempo": 120.0
            },
            {
                "start_time": 10.5545455,
                "end_time": 10.5886364,
                "pitch": 48,
                "velocity": 127,
                "duration": 0.0340909,
                "tempo": 120.0
            },
            {
                "start_time": 10.5886364,
                "end_time": 10.6204545,
                "pitch": 45,
                "velocity": 127,
                "duration": 0.0318182,
                "tempo": 120.0
            },
            {
                "start_time": 10.6204545,
                "end_time": 10.6545455,
                "pitch": 43,
                "velocity": 127,
                "duration": 0.0340909,
                "tempo": 120.0
            },
            {
                "start_time": 10.6545455,
                "end_time": 10.6886364,
                "pitch": 40,
                "velocity": 127,
                "duration": 0.0340909,
                "tempo": 120.0
            },
            {
                "start_time": 10.6886364,
                "end_time": 10.7045455,
                "pitch": 36,
                "velocity": 127,
                "duration": 0.0159091,
                "tempo": 120.0
            },
            {
                "start_time": 10.7045455,
                "end_time": 10.7704545,
                "pitch": 47,
                "velocity": 127,
                "duration": 0.0659091,
                "tempo": 120.0
            },
            {
                "start_time": 10.7704545,
                "end_time": 10.8204545,
                "pitch": 45,
                "velocity": 127,
                "duration": 0.05,
                "tempo": 120.0
            },
            {
                "start_time": 10.3204545,
                "end_time": 10.8204545,
                "pitch": 55,
                "velocity": 127,
                "duration": 0.5,
                "tempo": 120.0
            },
            {
                "start_time": 10.8204545,
                "end_time": 10.8704545,
                "pitch": 43,
                "velocity": 127,
                "duration": 0.05,
                "tempo": 120.0
            },
            {
                "start_time": 10.8704545,
                "end_time": 10.9204545,
                "pitch": 41,
                "velocity": 127,
                "duration": 0.05,
                "tempo": 120.0
            },
            {
                "start_time": 10.9204545,
                "end_time": 10.9545455,
                "pitch": 38,
                "velocity": 127,
                "duration": 0.0340909,
                "tempo": 120.0
            },
            {
                "start_time": 10.9545455,
                "end_time": 11.0045455,
                "pitch": 53,
                "velocity": 127,
                "duration": 0.05,
                "tempo": 120.0
            },
            {
                "start_time": 11.0045455,
                "end_time": 11.0545455,
                "pitch": 50,
                "velocity": 127,
                "duration": 0.05,
                "tempo": 120.0
            },
            {
                "start_time": 11.0545455,
                "end_time": 11.0886364,
                "pitch": 48,
                "velocity": 127,
                "duration": 0.0340909,
                "tempo": 120.0
            },
            {
                "start_time": 11.0886364,
                "end_time": 11.1227273,
                "pitch": 45,
                "velocity": 127,
                "duration": 0.0340909,
                "tempo": 120.0
            },
            {
                "start_time": 11.1227273,
                "end_time": 11.1545455,
                "pitch": 43,
                "velocity": 127,
                "duration": 0.0318182,
                "tempo": 120.0
            },
            {
                "start_time": 11.1545455,
                "end_time": 11.1886364,
                "pitch": 40,
                "velocity": 127,
                "duration": 0.0340909,
                "tempo": 120.0
            },
            {
                "start_time": 11.1886364,
                "end_time": 11.2045455,
                "pitch": 36,
                "velocity": 127,
                "duration": 0.0159091,
                "tempo": 120.0
            },
            {
                "start_time": 11.2068182,
                "end_time": 11.2727273,
                "pitch": 47,
                "velocity": 127,
                "duration": 0.0659091,
                "tempo": 120.0
            },
            {
                "start_time": 11.2727273,
                "end_time": 11.3227273,
                "pitch": 45,
                "velocity": 127,
                "duration": 0.05,
                "tempo": 120.0
            },
            {
                "start_time": 10.8204545,
                "end_time": 11.3227273,
                "pitch": 55,
                "velocity": 127,
                "duration": 0.5022727,
                "tempo": 120.0
            },
            {
                "start_time": 11.3227273,
                "end_time": 11.3727273,
                "pitch": 43,
                "velocity": 127,
                "duration": 0.05,
                "tempo": 120.0
            },
            {
                "start_time": 11.3727273,
                "end_time": 11.4227273,
                "pitch": 41,
                "velocity": 127,
                "duration": 0.05,
                "tempo": 120.0
            },
            {
                "start_time": 11.4227273,
                "end_time": 11.4545455,
                "pitch": 38,
                "velocity": 127,
                "duration": 0.0318182,
                "tempo": 120.0
            },
            {
                "start_time": 11.4568182,
                "end_time": 11.5045455,
                "pitch": 53,
                "velocity": 127,
                "duration": 0.0477273,
                "tempo": 120.0
            },
            {
                "start_time": 11.5045455,
                "end_time": 11.5545455,
                "pitch": 50,
                "velocity": 127,
                "duration": 0.05,
                "tempo": 120.0
            },
            {
                "start_time": 11.5545455,
                "end_time": 11.5886364,
                "pitch": 48,
                "velocity": 127,
                "duration": 0.0340909,
                "tempo": 120.0
            },
            {
                "start_time": 11.5886364,
                "end_time": 11.6227273,
                "pitch": 45,
                "velocity": 127,
                "duration": 0.0340909,
                "tempo": 120.0
            },
            {
                "start_time": 11.6227273,
                "end_time": 11.6545455,
                "pitch": 43,
                "velocity": 127,
                "duration": 0.0318182,
                "tempo": 120.0
            },
            {
                "start_time": 11.6545455,
                "end_time": 11.6886364,
                "pitch": 40,
                "velocity": 127,
                "duration": 0.0340909,
                "tempo": 120.0
            },
            {
                "start_time": 11.6886364,
                "end_time": 11.7068182,
                "pitch": 36,
                "velocity": 127,
                "duration": 0.0181818,
                "tempo": 120.0
            },
            {
                "start_time": 11.7068182,
                "end_time": 11.775,
                "pitch": 47,
                "velocity": 127,
                "duration": 0.0681818,
                "tempo": 120.0
            },
            {
                "start_time": 11.775,
                "end_time": 11.825,
                "pitch": 45,
                "velocity": 127,
                "duration": 0.05,
                "tempo": 120.0
            },
            {
                "start_time": 11.3227273,
                "end_time": 11.825,
                "pitch": 55,
                "velocity": 127,
                "duration": 0.5022727,
                "tempo": 120.0
            },
            {
                "start_time": 11.825,
                "end_time": 11.8772727,
                "pitch": 43,
                "velocity": 127,
                "duration": 0.0522727,
                "tempo": 120.0
            },
            {
                "start_time": 11.8772727,
                "end_time": 11.9272727,
                "pitch": 41,
                "velocity": 127,
                "duration": 0.05,
                "tempo": 120.0
            },
            {
                "start_time": 11.9272727,
                "end_time": 11.9613636,
                "pitch": 38,
                "velocity": 127,
                "duration": 0.0340909,
                "tempo": 120.0
            },
            {
                "start_time": 11.9636364,
                "end_time": 12.0136364,
                "pitch": 53,
                "velocity": 127,
                "duration": 0.05,
                "tempo": 120.0
            },
            {
                "start_time": 12.0136364,
                "end_time": 12.0659091,
                "pitch": 50,
                "velocity": 127,
                "duration": 0.0522727,
                "tempo": 120.0
            },
            {
                "start_time": 12.0659091,
                "end_time": 12.1,
                "pitch": 48,
                "velocity": 127,
                "duration": 0.0340909,
                "tempo": 120.0
            },
            {
                "start_time": 12.1,
                "end_time": 12.1340909,
                "pitch": 45,
                "velocity": 127,
                "duration": 0.0340909,
                "tempo": 120.0
            },
            {
                "start_time": 12.1340909,
                "end_time": 12.1681818,
                "pitch": 43,
                "velocity": 127,
                "duration": 0.0340909,
                "tempo": 120.0
            },
            {
                "start_time": 12.1681818,
                "end_time": 12.2022727,
                "pitch": 40,
                "velocity": 127,
                "duration": 0.0340909,
                "tempo": 120.0
            },
            {
                "start_time": 12.2022727,
                "end_time": 12.2181818,
                "pitch": 36,
                "velocity": 127,
                "duration": 0.0159091,
                "tempo": 120.0
            },
            {
                "start_time": 12.2204545,
                "end_time": 12.2863636,
                "pitch": 47,
                "velocity": 127,
                "duration": 0.0659091,
                "tempo": 120.0
            },
            {
                "start_time": 12.2863636,
                "end_time": 12.3363636,
                "pitch": 45,
                "velocity": 127,
                "duration": 0.05,
                "tempo": 120.0
            },
            {
                "start_time": 11.825,
                "end_time": 12.3363636,
                "pitch": 55,
                "velocity": 127,
                "duration": 0.5113636,
                "tempo": 120.0
            },
            {
                "start_time": 12.3363636,
                "end_time": 12.3863636,
                "pitch": 43,
                "velocity": 127,
                "duration": 0.05,
                "tempo": 120.0
            },
            {
                "start_time": 12.3863636,
                "end_time": 12.4363636,
                "pitch": 41,
                "velocity": 127,
                "duration": 0.05,
                "tempo": 120.0
            },
            {
                "start_time": 12.4363636,
                "end_time": 12.4704545,
                "pitch": 38,
                "velocity": 127,
                "duration": 0.0340909,
                "tempo": 120.0
            },
            {
                "start_time": 12.4704545,
                "end_time": 12.5204545,
                "pitch": 53,
                "velocity": 127,
                "duration": 0.05,
                "tempo": 120.0
            },
            {
                "start_time": 12.5204545,
                "end_time": 12.5704545,
                "pitch": 50,
                "velocity": 127,
                "duration": 0.05,
                "tempo": 120.0
            },
            {
                "start_time": 12.5704545,
                "end_time": 12.6022727,
                "pitch": 48,
                "velocity": 127,
                "duration": 0.0318182,
                "tempo": 120.0
            },
            {
                "start_time": 12.6022727,
                "end_time": 12.6363636,
                "pitch": 45,
                "velocity": 127,
                "duration": 0.0340909,
                "tempo": 120.0
            },
            {
                "start_time": 12.6363636,
                "end_time": 12.6704545,
                "pitch": 43,
                "velocity": 127,
                "duration": 0.0340909,
                "tempo": 120.0
            },
            {
                "start_time": 12.6704545,
                "end_time": 12.7022727,
                "pitch": 40,
                "velocity": 127,
                "duration": 0.0318182,
                "tempo": 120.0
            },
            {
                "start_time": 12.7022727,
                "end_time": 12.7204545,
                "pitch": 36,
                "velocity": 127,
                "duration": 0.0181818,
                "tempo": 120.0
            },
            {
                "start_time": 12.7204545,
                "end_time": 12.7863636,
                "pitch": 47,
                "velocity": 127,
                "duration": 0.0659091,
                "tempo": 120.0
            },
            {
                "start_time": 12.7863636,
                "end_time": 12.8363636,
                "pitch": 45,
                "velocity": 127,
                "duration": 0.05,
                "tempo": 120.0
            },
            {
                "start_time": 12.3363636,
                "end_time": 12.8363636,
                "pitch": 55,
                "velocity": 127,
                "duration": 0.5,
                "tempo": 120.0
            },
            {
                "start_time": 12.8363636,
                "end_time": 12.8863636,
                "pitch": 43,
                "velocity": 127,
                "duration": 0.05,
                "tempo": 120.0
            },
            {
                "start_time": 12.8863636,
                "end_time": 12.9363636,
                "pitch": 41,
                "velocity": 127,
                "duration": 0.05,
                "tempo": 120.0
            },
            {
                "start_time": 12.9363636,
                "end_time": 12.9704545,
                "pitch": 38,
                "velocity": 127,
                "duration": 0.0340909,
                "tempo": 120.0
            },
            {
                "start_time": 12.9704545,
                "end_time": 13.0204545,
                "pitch": 53,
                "velocity": 127,
                "duration": 0.05,
                "tempo": 120.0
            },
            {
                "start_time": 13.0204545,
                "end_time": 13.0704545,
                "pitch": 50,
                "velocity": 127,
                "duration": 0.05,
                "tempo": 120.0
            },
            {
                "start_time": 13.0704545,
                "end_time": 13.1045455,
                "pitch": 48,
                "velocity": 127,
                "duration": 0.0340909,
                "tempo": 120.0
            },
            {
                "start_time": 13.1045455,
                "end_time": 13.1363636,
                "pitch": 45,
                "velocity": 127,
                "duration": 0.0318182,
                "tempo": 120.0
            },
            {
                "start_time": 13.1363636,
                "end_time": 13.1704545,
                "pitch": 43,
                "velocity": 127,
                "duration": 0.0340909,
                "tempo": 120.0
            },
            {
                "start_time": 13.1704545,
                "end_time": 13.2045455,
                "pitch": 40,
                "velocity": 127,
                "duration": 0.0340909,
                "tempo": 120.0
            },
            {
                "start_time": 13.2045455,
                "end_time": 13.2204545,
                "pitch": 36,
                "velocity": 127,
                "duration": 0.0159091,
                "tempo": 120.0
            },
            {
                "start_time": 13.2204545,
                "end_time": 13.2704545,
                "pitch": 50,
                "velocity": 127,
                "duration": 0.05,
                "tempo": 120.0
            },
            {
                "start_time": 13.2704545,
                "end_time": 13.3045455,
                "pitch": 47,
                "velocity": 127,
                "duration": 0.0340909,
                "tempo": 120.0
            },
            {
                "start_time": 13.3045455,
                "end_time": 13.3363636,
                "pitch": 45,
                "velocity": 127,
                "duration": 0.0318182,
                "tempo": 120.0
            },
            {
                "start_time": 13.3363636,
                "end_time": 13.3704545,
                "pitch": 42,
                "velocity": 127,
                "duration": 0.0340909,
                "tempo": 120.0
            },
            {
                "start_time": 13.3704545,
                "end_time": 13.4045455,
                "pitch": 39,
                "velocity": 127,
                "duration": 0.0340909,
                "tempo": 120.0
            },
            {
                "start_time": 13.4045455,
                "end_time": 13.4204545,
                "pitch": 35,
                "velocity": 127,
                "duration": 0.0159091,
                "tempo": 120.0
            },
            {
                "start_time": 13.4204545,
                "end_time": 13.4363636,
                "pitch": 33,
                "velocity": 127,
                "duration": 0.0159091,
                "tempo": 120.0
            },
            {
                "start_time": 13.4363636,
                "end_time": 13.4545455,
                "pitch": 30,
                "velocity": 127,
                "duration": 0.0181818,
                "tempo": 120.0
            },
            {
                "start_time": 13.4545455,
                "end_time": 13.4704545,
                "pitch": 27,
                "velocity": 127,
                "duration": 0.0159091,
                "tempo": 120.0
            },
            {
                "start_time": 13.4704545,
                "end_time": 13.5204545,
                "pitch": 50,
                "velocity": 127,
                "duration": 0.05,
                "tempo": 120.0
            },
            {
                "start_time": 13.5204545,
                "end_time": 13.5545455,
                "pitch": 47,
                "velocity": 127,
                "duration": 0.0340909,
                "tempo": 120.0
            },
            {
                "start_time": 13.5545455,
                "end_time": 13.5886364,
                "pitch": 45,
                "velocity": 127,
                "duration": 0.0340909,
                "tempo": 120.0
            },
            {
                "start_time": 13.5886364,
                "end_time": 13.6204545,
                "pitch": 42,
                "velocity": 127,
                "duration": 0.0318182,
                "tempo": 120.0
            },
            {
                "start_time": 13.6204545,
                "end_time": 13.6545455,
                "pitch": 39,
                "velocity": 127,
                "duration": 0.0340909,
                "tempo": 120.0
            },
            {
                "start_time": 13.6545455,
                "end_time": 13.6704545,
                "pitch": 35,
                "velocity": 127,
                "duration": 0.0159091,
                "tempo": 120.0
            },
            {
                "start_time": 13.6704545,
                "end_time": 13.6886364,
                "pitch": 33,
                "velocity": 127,
                "duration": 0.0181818,
                "tempo": 120.0
            },
            {
                "start_time": 13.6886364,
                "end_time": 13.7045455,
                "pitch": 30,
                "velocity": 127,
                "duration": 0.0159091,
                "tempo": 120.0
            },
            {
                "start_time": 13.7045455,
                "end_time": 13.7204545,
                "pitch": 27,
                "velocity": 127,
                "duration": 0.0159091,
                "tempo": 120.0
            },
            {
                "start_time": 13.7204545,
                "end_time": 13.7704545,
                "pitch": 50,
                "velocity": 127,
                "duration": 0.05,
                "tempo": 120.0
            },
            {
                "start_time": 13.7704545,
                "end_time": 13.8045455,
                "pitch": 47,
                "velocity": 127,
                "duration": 0.0340909,
                "tempo": 120.0
            },
            {
                "start_time": 13.8045455,
                "end_time": 13.8386364,
                "pitch": 45,
                "velocity": 127,
                "duration": 0.0340909,
                "tempo": 120.0
            },
            {
                "start_time": 13.8386364,
                "end_time": 13.8704545,
                "pitch": 42,
                "velocity": 127,
                "duration": 0.0318182,
                "tempo": 120.0
            },
            {
                "start_time": 13.8704545,
                "end_time": 13.9045455,
                "pitch": 39,
                "velocity": 127,
                "duration": 0.0340909,
                "tempo": 120.0
            },
            {
                "start_time": 13.9045455,
                "end_time": 13.9204545,
                "pitch": 35,
                "velocity": 127,
                "duration": 0.0159091,
                "tempo": 120.0
            },
            {
                "start_time": 13.9204545,
                "end_time": 13.9386364,
                "pitch": 33,
                "velocity": 127,
                "duration": 0.0181818,
                "tempo": 120.0
            },
            {
                "start_time": 13.9386364,
                "end_time": 13.9545455,
                "pitch": 30,
                "velocity": 127,
                "duration": 0.0159091,
                "tempo": 120.0
            },
            {
                "start_time": 13.9545455,
                "end_time": 13.9704545,
                "pitch": 27,
                "velocity": 127,
                "duration": 0.0159091,
                "tempo": 120.0
            },
            {
                "start_time": 13.9727273,
                "end_time": 14.0204545,
                "pitch": 50,
                "velocity": 127,
                "duration": 0.0477273,
                "tempo": 120.0
            },
            {
                "start_time": 14.0204545,
                "end_time": 14.0545455,
                "pitch": 47,
                "velocity": 127,
                "duration": 0.0340909,
                "tempo": 120.0
            },
            {
                "start_time": 14.0545455,
                "end_time": 14.0886364,
                "pitch": 45,
                "velocity": 127,
                "duration": 0.0340909,
                "tempo": 120.0
            },
            {
                "start_time": 14.0886364,
                "end_time": 14.1227273,
                "pitch": 42,
                "velocity": 127,
                "duration": 0.0340909,
                "tempo": 120.0
            },
            {
                "start_time": 14.1227273,
                "end_time": 14.1545455,
                "pitch": 39,
                "velocity": 127,
                "duration": 0.0318182,
                "tempo": 120.0
            },
            {
                "start_time": 14.1545455,
                "end_time": 14.1727273,
                "pitch": 35,
                "velocity": 127,
                "duration": 0.0181818,
                "tempo": 120.0
            },
            {
                "start_time": 14.1727273,
                "end_time": 14.1886364,
                "pitch": 33,
                "velocity": 127,
                "duration": 0.0159091,
                "tempo": 120.0
            },
            {
                "start_time": 14.1886364,
                "end_time": 14.2045455,
                "pitch": 30,
                "velocity": 127,
                "duration": 0.0159091,
                "tempo": 120.0
            },
            {
                "start_time": 14.2045455,
                "end_time": 14.2227273,
                "pitch": 27,
                "velocity": 127,
                "duration": 0.0181818,
                "tempo": 120.0
            },
            {
                "start_time": 14.2227273,
                "end_time": 14.2886364,
                "pitch": 47,
                "velocity": 127,
                "duration": 0.0659091,
                "tempo": 120.0
            },
            {
                "start_time": 14.2886364,
                "end_time": 14.3386364,
                "pitch": 45,
                "velocity": 127,
                "duration": 0.05,
                "tempo": 120.0
            },
            {
                "start_time": 12.8363636,
                "end_time": 14.3386364,
                "pitch": 55,
                "velocity": 127,
                "duration": 1.5022727,
                "tempo": 120.0
            },
            {
                "start_time": 14.3386364,
                "end_time": 14.3886364,
                "pitch": 43,
                "velocity": 127,
                "duration": 0.05,
                "tempo": 120.0
            },
            {
                "start_time": 14.3886364,
                "end_time": 14.4386364,
                "pitch": 41,
                "velocity": 127,
                "duration": 0.05,
                "tempo": 120.0
            },
            {
                "start_time": 14.4386364,
                "end_time": 14.4727273,
                "pitch": 38,
                "velocity": 127,
                "duration": 0.0340909,
                "tempo": 120.0
            },
            {
                "start_time": 14.4727273,
                "end_time": 14.5227273,
                "pitch": 53,
                "velocity": 127,
                "duration": 0.05,
                "tempo": 120.0
            },
            {
                "start_time": 14.5227273,
                "end_time": 14.5727273,
                "pitch": 50,
                "velocity": 127,
                "duration": 0.05,
                "tempo": 120.0
            },
            {
                "start_time": 14.5727273,
                "end_time": 14.6045455,
                "pitch": 48,
                "velocity": 127,
                "duration": 0.0318182,
                "tempo": 120.0
            },
            {
                "start_time": 14.6045455,
                "end_time": 14.6386364,
                "pitch": 45,
                "velocity": 127,
                "duration": 0.0340909,
                "tempo": 120.0
            },
            {
                "start_time": 14.6386364,
                "end_time": 14.6727273,
                "pitch": 43,
                "velocity": 127,
                "duration": 0.0340909,
                "tempo": 120.0
            },
            {
                "start_time": 14.6727273,
                "end_time": 14.7068182,
                "pitch": 40,
                "velocity": 127,
                "duration": 0.0340909,
                "tempo": 120.0
            },
            {
                "start_time": 14.7068182,
                "end_time": 14.7227273,
                "pitch": 36,
                "velocity": 127,
                "duration": 0.0159091,
                "tempo": 120.0
            },
            {
                "start_time": 14.7227273,
                "end_time": 14.7886364,
                "pitch": 47,
                "velocity": 127,
                "duration": 0.0659091,
                "tempo": 120.0
            },
            {
                "start_time": 14.7886364,
                "end_time": 14.8386364,
                "pitch": 45,
                "velocity": 127,
                "duration": 0.05,
                "tempo": 120.0
            },
            {
                "start_time": 14.3386364,
                "end_time": 14.8386364,
                "pitch": 55,
                "velocity": 127,
                "duration": 0.5,
                "tempo": 120.0
            },
            {
                "start_time": 14.8386364,
                "end_time": 14.8886364,
                "pitch": 43,
                "velocity": 127,
                "duration": 0.05,
                "tempo": 120.0
            },
            {
                "start_time": 14.8886364,
                "end_time": 14.9386364,
                "pitch": 41,
                "velocity": 127,
                "duration": 0.05,
                "tempo": 120.0
            },
            {
                "start_time": 14.9386364,
                "end_time": 14.9727273,
                "pitch": 38,
                "velocity": 127,
                "duration": 0.0340909,
                "tempo": 120.0
            },
            {
                "start_time": 14.9727273,
                "end_time": 15.0227273,
                "pitch": 53,
                "velocity": 127,
                "duration": 0.05,
                "tempo": 120.0
            },
            {
                "start_time": 15.0227273,
                "end_time": 15.0727273,
                "pitch": 50,
                "velocity": 127,
                "duration": 0.05,
                "tempo": 120.0
            },
            {
                "start_time": 15.0727273,
                "end_time": 15.1068182,
                "pitch": 48,
                "velocity": 127,
                "duration": 0.0340909,
                "tempo": 120.0
            },
            {
                "start_time": 15.1068182,
                "end_time": 15.1386364,
                "pitch": 45,
                "velocity": 127,
                "duration": 0.0318182,
                "tempo": 120.0
            },
            {
                "start_time": 15.1386364,
                "end_time": 15.1727273,
                "pitch": 43,
                "velocity": 127,
                "duration": 0.0340909,
                "tempo": 120.0
            },
            {
                "start_time": 15.1727273,
                "end_time": 15.2068182,
                "pitch": 40,
                "velocity": 127,
                "duration": 0.0340909,
                "tempo": 120.0
            },
            {
                "start_time": 15.2068182,
                "end_time": 15.2227273,
                "pitch": 36,
                "velocity": 127,
                "duration": 0.0159091,
                "tempo": 120.0
            },
            {
                "start_time": 15.2227273,
                "end_time": 15.2909091,
                "pitch": 47,
                "velocity": 127,
                "duration": 0.0681818,
                "tempo": 120.0
            },
            {
                "start_time": 15.2909091,
                "end_time": 15.3409091,
                "pitch": 45,
                "velocity": 127,
                "duration": 0.05,
                "tempo": 120.0
            },
            {
                "start_time": 14.8386364,
                "end_time": 15.3409091,
                "pitch": 55,
                "velocity": 127,
                "duration": 0.5022727,
                "tempo": 120.0
            },
            {
                "start_time": 15.3409091,
                "end_time": 15.3909091,
                "pitch": 43,
                "velocity": 127,
                "duration": 0.05,
                "tempo": 120.0
            },
            {
                "start_time": 15.3909091,
                "end_time": 15.4409091,
                "pitch": 41,
                "velocity": 127,
                "duration": 0.05,
                "tempo": 120.0
            },
            {
                "start_time": 15.4409091,
                "end_time": 15.4727273,
                "pitch": 38,
                "velocity": 127,
                "duration": 0.0318182,
                "tempo": 120.0
            },
            {
                "start_time": 15.475,
                "end_time": 15.5227273,
                "pitch": 53,
                "velocity": 127,
                "duration": 0.0477273,
                "tempo": 120.0
            },
            {
                "start_time": 15.5227273,
                "end_time": 15.5727273,
                "pitch": 50,
                "velocity": 127,
                "duration": 0.05,
                "tempo": 120.0
            },
            {
                "start_time": 15.5727273,
                "end_time": 15.6068182,
                "pitch": 48,
                "velocity": 127,
                "duration": 0.0340909,
                "tempo": 120.0
            },
            {
                "start_time": 15.6068182,
                "end_time": 15.6409091,
                "pitch": 45,
                "velocity": 127,
                "duration": 0.0340909,
                "tempo": 120.0
            },
            {
                "start_time": 15.6409091,
                "end_time": 15.6727273,
                "pitch": 43,
                "velocity": 127,
                "duration": 0.0318182,
                "tempo": 120.0
            },
            {
                "start_time": 15.6727273,
                "end_time": 15.7068182,
                "pitch": 40,
                "velocity": 127,
                "duration": 0.0340909,
                "tempo": 120.0
            },
            {
                "start_time": 15.7068182,
                "end_time": 15.7227273,
                "pitch": 36,
                "velocity": 127,
                "duration": 0.0159091,
                "tempo": 120.0
            },
            {
                "start_time": 15.725,
                "end_time": 15.7909091,
                "pitch": 47,
                "velocity": 127,
                "duration": 0.0659091,
                "tempo": 120.0
            },
            {
                "start_time": 15.7909091,
                "end_time": 15.8409091,
                "pitch": 45,
                "velocity": 127,
                "duration": 0.05,
                "tempo": 120.0
            },
            {
                "start_time": 15.3409091,
                "end_time": 15.8409091,
                "pitch": 55,
                "velocity": 127,
                "duration": 0.5,
                "tempo": 120.0
            },
            {
                "start_time": 15.8409091,
                "end_time": 15.8909091,
                "pitch": 43,
                "velocity": 127,
                "duration": 0.05,
                "tempo": 120.0
            },
            {
                "start_time": 15.8909091,
                "end_time": 15.9409091,
                "pitch": 41,
                "velocity": 127,
                "duration": 0.05,
                "tempo": 120.0
            },
            {
                "start_time": 15.9409091,
                "end_time": 15.975,
                "pitch": 38,
                "velocity": 127,
                "duration": 0.0340909,
                "tempo": 120.0
            },
            {
                "start_time": 15.975,
                "end_time": 16.025,
                "pitch": 53,
                "velocity": 127,
                "duration": 0.05,
                "tempo": 120.0
            },
            {
                "start_time": 16.025,
                "end_time": 16.075,
                "pitch": 50,
                "velocity": 127,
                "duration": 0.05,
                "tempo": 120.0
            },
            {
                "start_time": 16.075,
                "end_time": 16.1068182,
                "pitch": 48,
                "velocity": 127,
                "duration": 0.0318182,
                "tempo": 120.0
            },
            {
                "start_time": 16.1068182,
                "end_time": 16.1409091,
                "pitch": 45,
                "velocity": 127,
                "duration": 0.0340909,
                "tempo": 120.0
            },
            {
                "start_time": 16.1409091,
                "end_time": 16.175,
                "pitch": 43,
                "velocity": 127,
                "duration": 0.0340909,
                "tempo": 120.0
            },
            {
                "start_time": 16.175,
                "end_time": 16.2068182,
                "pitch": 40,
                "velocity": 127,
                "duration": 0.0318182,
                "tempo": 120.0
            },
            {
                "start_time": 16.2068182,
                "end_time": 16.225,
                "pitch": 36,
                "velocity": 127,
                "duration": 0.0181818,
                "tempo": 120.0
            },
            {
                "start_time": 16.225,
                "end_time": 16.2909091,
                "pitch": 47,
                "velocity": 127,
                "duration": 0.0659091,
                "tempo": 120.0
            },
            {
                "start_time": 16.2909091,
                "end_time": 16.3409091,
                "pitch": 45,
                "velocity": 127,
                "duration": 0.05,
                "tempo": 120.0
            },
            {
                "start_time": 15.8409091,
                "end_time": 16.3409091,
                "pitch": 55,
                "velocity": 127,
                "duration": 0.5,
                "tempo": 120.0
            },
            {
                "start_time": 16.3409091,
                "end_time": 16.3909091,
                "pitch": 43,
                "velocity": 127,
                "duration": 0.05,
                "tempo": 120.0
            },
            {
                "start_time": 16.3909091,
                "end_time": 16.4409091,
                "pitch": 41,
                "velocity": 127,
                "duration": 0.05,
                "tempo": 120.0
            },
            {
                "start_time": 16.4409091,
                "end_time": 16.475,
                "pitch": 38,
                "velocity": 127,
                "duration": 0.0340909,
                "tempo": 120.0
            },
            {
                "start_time": 16.475,
                "end_time": 16.525,
                "pitch": 53,
                "velocity": 127,
                "duration": 0.05,
                "tempo": 120.0
            },
            {
                "start_time": 16.525,
                "end_time": 16.575,
                "pitch": 50,
                "velocity": 127,
                "duration": 0.05,
                "tempo": 120.0
            },
            {
                "start_time": 16.575,
                "end_time": 16.6090909,
                "pitch": 48,
                "velocity": 127,
                "duration": 0.0340909,
                "tempo": 120.0
            },
            {
                "start_time": 16.6090909,
                "end_time": 16.6409091,
                "pitch": 45,
                "velocity": 127,
                "duration": 0.0318182,
                "tempo": 120.0
            },
            {
                "start_time": 16.6409091,
                "end_time": 16.675,
                "pitch": 43,
                "velocity": 127,
                "duration": 0.0340909,
                "tempo": 120.0
            },
            {
                "start_time": 16.675,
                "end_time": 16.7090909,
                "pitch": 40,
                "velocity": 127,
                "duration": 0.0340909,
                "tempo": 120.0
            },
            {
                "start_time": 16.7090909,
                "end_time": 16.725,
                "pitch": 36,
                "velocity": 127,
                "duration": 0.0159091,
                "tempo": 120.0
            },
            {
                "start_time": 16.725,
                "end_time": 16.7909091,
                "pitch": 47,
                "velocity": 127,
                "duration": 0.0659091,
                "tempo": 120.0
            },
            {
                "start_time": 16.7909091,
                "end_time": 16.8409091,
                "pitch": 45,
                "velocity": 127,
                "duration": 0.05,
                "tempo": 120.0
            },
            {
                "start_time": 16.3409091,
                "end_time": 16.8409091,
                "pitch": 55,
                "velocity": 127,
                "duration": 0.5,
                "tempo": 120.0
            },
            {
                "start_time": 16.8409091,
                "end_time": 16.8909091,
                "pitch": 43,
                "velocity": 127,
                "duration": 0.05,
                "tempo": 120.0
            },
            {
                "start_time": 16.8909091,
                "end_time": 16.9409091,
                "pitch": 41,
                "velocity": 127,
                "duration": 0.05,
                "tempo": 120.0
            },
            {
                "start_time": 16.9409091,
                "end_time": 16.975,
                "pitch": 38,
                "velocity": 127,
                "duration": 0.0340909,
                "tempo": 120.0
            },
            {
                "start_time": 16.975,
                "end_time": 17.025,
                "pitch": 53,
                "velocity": 127,
                "duration": 0.05,
                "tempo": 120.0
            },
            {
                "start_time": 17.025,
                "end_time": 17.075,
                "pitch": 50,
                "velocity": 127,
                "duration": 0.05,
                "tempo": 120.0
            },
            {
                "start_time": 17.075,
                "end_time": 17.1090909,
                "pitch": 48,
                "velocity": 127,
                "duration": 0.0340909,
                "tempo": 120.0
            },
            {
                "start_time": 17.1090909,
                "end_time": 17.1431818,
                "pitch": 45,
                "velocity": 127,
                "duration": 0.0340909,
                "tempo": 120.0
            },
            {
                "start_time": 17.1431818,
                "end_time": 17.175,
                "pitch": 43,
                "velocity": 127,
                "duration": 0.0318182,
                "tempo": 120.0
            },
            {
                "start_time": 17.175,
                "end_time": 17.2090909,
                "pitch": 40,
                "velocity": 127,
                "duration": 0.0340909,
                "tempo": 120.0
            },
            {
                "start_time": 17.2090909,
                "end_time": 17.225,
                "pitch": 36,
                "velocity": 127,
                "duration": 0.0159091,
                "tempo": 120.0
            },
            {
                "start_time": 17.2272727,
                "end_time": 17.275,
                "pitch": 50,
                "velocity": 127,
                "duration": 0.0477273,
                "tempo": 120.0
            },
            {
                "start_time": 17.275,
                "end_time": 17.3090909,
                "pitch": 47,
                "velocity": 127,
                "duration": 0.0340909,
                "tempo": 120.0
            },
            {
                "start_time": 17.3090909,
                "end_time": 17.3431818,
                "pitch": 45,
                "velocity": 127,
                "duration": 0.0340909,
                "tempo": 120.0
            },
            {
                "start_time": 17.3431818,
                "end_time": 17.375,
                "pitch": 42,
                "velocity": 127,
                "duration": 0.0318182,
                "tempo": 120.0
            },
            {
                "start_time": 17.375,
                "end_time": 17.4090909,
                "pitch": 39,
                "velocity": 127,
                "duration": 0.0340909,
                "tempo": 120.0
            },
            {
                "start_time": 17.4090909,
                "end_time": 17.425,
                "pitch": 35,
                "velocity": 127,
                "duration": 0.0159091,
                "tempo": 120.0
            },
            {
                "start_time": 17.425,
                "end_time": 17.4431818,
                "pitch": 33,
                "velocity": 127,
                "duration": 0.0181818,
                "tempo": 120.0
            },
            {
                "start_time": 17.4431818,
                "end_time": 17.4590909,
                "pitch": 30,
                "velocity": 127,
                "duration": 0.0159091,
                "tempo": 120.0
            },
            {
                "start_time": 17.4590909,
                "end_time": 17.475,
                "pitch": 27,
                "velocity": 127,
                "duration": 0.0159091,
                "tempo": 120.0
            },
            {
                "start_time": 17.4772727,
                "end_time": 17.525,
                "pitch": 50,
                "velocity": 127,
                "duration": 0.0477273,
                "tempo": 120.0
            },
            {
                "start_time": 17.525,
                "end_time": 17.5590909,
                "pitch": 47,
                "velocity": 127,
                "duration": 0.0340909,
                "tempo": 120.0
            },
            {
                "start_time": 17.5590909,
                "end_time": 17.5931818,
                "pitch": 45,
                "velocity": 127,
                "duration": 0.0340909,
                "tempo": 120.0
            },
            {
                "start_time": 17.5931818,
                "end_time": 17.6272727,
                "pitch": 42,
                "velocity": 127,
                "duration": 0.0340909,
                "tempo": 120.0
            },
            {
                "start_time": 17.6272727,
                "end_time": 17.6590909,
                "pitch": 39,
                "velocity": 127,
                "duration": 0.0318182,
                "tempo": 120.0
            },
            {
                "start_time": 17.6590909,
                "end_time": 17.6772727,
                "pitch": 35,
                "velocity": 127,
                "duration": 0.0181818,
                "tempo": 120.0
            },
            {
                "start_time": 17.6772727,
                "end_time": 17.6931818,
                "pitch": 33,
                "velocity": 127,
                "duration": 0.0159091,
                "tempo": 120.0
            },
            {
                "start_time": 17.6931818,
                "end_time": 17.7090909,
                "pitch": 30,
                "velocity": 127,
                "duration": 0.0159091,
                "tempo": 120.0
            },
            {
                "start_time": 17.7090909,
                "end_time": 17.7272727,
                "pitch": 27,
                "velocity": 127,
                "duration": 0.0181818,
                "tempo": 120.0
            },
            {
                "start_time": 17.7272727,
                "end_time": 17.7772727,
                "pitch": 50,
                "velocity": 127,
                "duration": 0.05,
                "tempo": 120.0
            },
            {
                "start_time": 17.7772727,
                "end_time": 17.8090909,
                "pitch": 47,
                "velocity": 127,
                "duration": 0.0318182,
                "tempo": 120.0
            },
            {
                "start_time": 17.8090909,
                "end_time": 17.8431818,
                "pitch": 45,
                "velocity": 127,
                "duration": 0.0340909,
                "tempo": 120.0
            },
            {
                "start_time": 17.8431818,
                "end_time": 17.8772727,
                "pitch": 42,
                "velocity": 127,
                "duration": 0.0340909,
                "tempo": 120.0
            },
            {
                "start_time": 17.8772727,
                "end_time": 17.9090909,
                "pitch": 39,
                "velocity": 127,
                "duration": 0.0318182,
                "tempo": 120.0
            },
            {
                "start_time": 17.9090909,
                "end_time": 17.9272727,
                "pitch": 35,
                "velocity": 127,
                "duration": 0.0181818,
                "tempo": 120.0
            },
            {
                "start_time": 17.9272727,
                "end_time": 17.9431818,
                "pitch": 33,
                "velocity": 127,
                "duration": 0.0159091,
                "tempo": 120.0
            },
            {
                "start_time": 17.9431818,
                "end_time": 17.9590909,
                "pitch": 30,
                "velocity": 127,
                "duration": 0.0159091,
                "tempo": 120.0
            },
            {
                "start_time": 17.9590909,
                "end_time": 17.9772727,
                "pitch": 27,
                "velocity": 127,
                "duration": 0.0181818,
                "tempo": 120.0
            },
            {
                "start_time": 17.9772727,
                "end_time": 18.0272727,
                "pitch": 50,
                "velocity": 127,
                "duration": 0.05,
                "tempo": 120.0
            },
            {
                "start_time": 18.0272727,
                "end_time": 18.0590909,
                "pitch": 47,
                "velocity": 127,
                "duration": 0.0318182,
                "tempo": 120.0
            },
            {
                "start_time": 18.0590909,
                "end_time": 18.0931818,
                "pitch": 45,
                "velocity": 127,
                "duration": 0.0340909,
                "tempo": 120.0
            },
            {
                "start_time": 18.0931818,
                "end_time": 18.1272727,
                "pitch": 42,
                "velocity": 127,
                "duration": 0.0340909,
                "tempo": 120.0
            },
            {
                "start_time": 18.1272727,
                "end_time": 18.1590909,
                "pitch": 39,
                "velocity": 127,
                "duration": 0.0318182,
                "tempo": 120.0
            },
            {
                "start_time": 18.1590909,
                "end_time": 18.1772727,
                "pitch": 35,
                "velocity": 127,
                "duration": 0.0181818,
                "tempo": 120.0
            },
            {
                "start_time": 18.1772727,
                "end_time": 18.1931818,
                "pitch": 33,
                "velocity": 127,
                "duration": 0.0159091,
                "tempo": 120.0
            },
            {
                "start_time": 18.1931818,
                "end_time": 18.2090909,
                "pitch": 30,
                "velocity": 127,
                "duration": 0.0159091,
                "tempo": 120.0
            },
            {
                "start_time": 18.2090909,
                "end_time": 18.2272727,
                "pitch": 27,
                "velocity": 127,
                "duration": 0.0181818,
                "tempo": 120.0
            },
            {
                "start_time": 18.2272727,
                "end_time": 18.2931818,
                "pitch": 47,
                "velocity": 127,
                "duration": 0.0659091,
                "tempo": 120.0
            },
            {
                "start_time": 18.2931818,
                "end_time": 18.3431818,
                "pitch": 45,
                "velocity": 127,
                "duration": 0.05,
                "tempo": 120.0
            },
            {
                "start_time": 16.8409091,
                "end_time": 18.3431818,
                "pitch": 55,
                "velocity": 127,
                "duration": 1.5022727,
                "tempo": 120.0
            },
            {
                "start_time": 18.3431818,
                "end_time": 18.3931818,
                "pitch": 43,
                "velocity": 127,
                "duration": 0.05,
                "tempo": 120.0
            },
            {
                "start_time": 18.3931818,
                "end_time": 18.4431818,
                "pitch": 41,
                "velocity": 127,
                "duration": 0.05,
                "tempo": 120.0
            },
            {
                "start_time": 18.4431818,
                "end_time": 18.4772727,
                "pitch": 38,
                "velocity": 127,
                "duration": 0.0340909,
                "tempo": 120.0
            },
            {
                "start_time": 18.4772727,
                "end_time": 18.5272727,
                "pitch": 53,
                "velocity": 127,
                "duration": 0.05,
                "tempo": 120.0
            },
            {
                "start_time": 18.5272727,
                "end_time": 18.5772727,
                "pitch": 50,
                "velocity": 127,
                "duration": 0.05,
                "tempo": 120.0
            },
            {
                "start_time": 18.5772727,
                "end_time": 18.6113636,
                "pitch": 48,
                "velocity": 127,
                "duration": 0.0340909,
                "tempo": 120.0
            },
            {
                "start_time": 18.6113636,
                "end_time": 18.6431818,
                "pitch": 45,
                "velocity": 127,
                "duration": 0.0318182,
                "tempo": 120.0
            },
            {
                "start_time": 18.6431818,
                "end_time": 18.6772727,
                "pitch": 43,
                "velocity": 127,
                "duration": 0.0340909,
                "tempo": 120.0
            },
            {
                "start_time": 18.6772727,
                "end_time": 18.7113636,
                "pitch": 40,
                "velocity": 127,
                "duration": 0.0340909,
                "tempo": 120.0
            },
            {
                "start_time": 18.7113636,
                "end_time": 18.7272727,
                "pitch": 36,
                "velocity": 127,
                "duration": 0.0159091,
                "tempo": 120.0
            },
            {
                "start_time": 18.7272727,
                "end_time": 18.7931818,
                "pitch": 47,
                "velocity": 127,
                "duration": 0.0659091,
                "tempo": 120.0
            },
            {
                "start_time": 18.7931818,
                "end_time": 18.8454545,
                "pitch": 45,
                "velocity": 127,
                "duration": 0.0522727,
                "tempo": 120.0
            },
            {
                "start_time": 18.3431818,
                "end_time": 18.8454545,
                "pitch": 55,
                "velocity": 127,
                "duration": 0.5022727,
                "tempo": 120.0
            },
            {
                "start_time": 18.8454545,
                "end_time": 18.8954545,
                "pitch": 43,
                "velocity": 127,
                "duration": 0.05,
                "tempo": 120.0
            },
            {
                "start_time": 18.8954545,
                "end_time": 18.9454545,
                "pitch": 41,
                "velocity": 127,
                "duration": 0.05,
                "tempo": 120.0
            },
            {
                "start_time": 18.9454545,
                "end_time": 18.9772727,
                "pitch": 38,
                "velocity": 127,
                "duration": 0.0318182,
                "tempo": 120.0
            },
            {
                "start_time": 18.9795455,
                "end_time": 19.0272727,
                "pitch": 53,
                "velocity": 127,
                "duration": 0.0477273,
                "tempo": 120.0
            },
            {
                "start_time": 19.0272727,
                "end_time": 19.0772727,
                "pitch": 50,
                "velocity": 127,
                "duration": 0.05,
                "tempo": 120.0
            },
            {
                "start_time": 19.0772727,
                "end_time": 19.1113636,
                "pitch": 48,
                "velocity": 127,
                "duration": 0.0340909,
                "tempo": 120.0
            },
            {
                "start_time": 19.1113636,
                "end_time": 19.1454545,
                "pitch": 45,
                "velocity": 127,
                "duration": 0.0340909,
                "tempo": 120.0
            },
            {
                "start_time": 19.1454545,
                "end_time": 19.1772727,
                "pitch": 43,
                "velocity": 127,
                "duration": 0.0318182,
                "tempo": 120.0
            },
            {
                "start_time": 19.1772727,
                "end_time": 19.2113636,
                "pitch": 40,
                "velocity": 127,
                "duration": 0.0340909,
                "tempo": 120.0
            },
            {
                "start_time": 19.2113636,
                "end_time": 19.2272727,
                "pitch": 36,
                "velocity": 127,
                "duration": 0.0159091,
                "tempo": 120.0
            },
            {
                "start_time": 19.2295455,
                "end_time": 19.2954545,
                "pitch": 47,
                "velocity": 127,
                "duration": 0.0659091,
                "tempo": 120.0
            },
            {
                "start_time": 19.2954545,
                "end_time": 19.3454545,
                "pitch": 45,
                "velocity": 127,
                "duration": 0.05,
                "tempo": 120.0
            },
            {
                "start_time": 18.8454545,
                "end_time": 19.3454545,
                "pitch": 55,
                "velocity": 127,
                "duration": 0.5,
                "tempo": 120.0
            },
            {
                "start_time": 19.3454545,
                "end_time": 19.3954545,
                "pitch": 43,
                "velocity": 127,
                "duration": 0.05,
                "tempo": 120.0
            },
            {
                "start_time": 19.3954545,
                "end_time": 19.4454545,
                "pitch": 41,
                "velocity": 127,
                "duration": 0.05,
                "tempo": 120.0
            },
            {
                "start_time": 19.4454545,
                "end_time": 19.4795455,
                "pitch": 38,
                "velocity": 127,
                "duration": 0.0340909,
                "tempo": 120.0
            },
            {
                "start_time": 19.4795455,
                "end_time": 19.5295455,
                "pitch": 53,
                "velocity": 127,
                "duration": 0.05,
                "tempo": 120.0
            },
            {
                "start_time": 19.5295455,
                "end_time": 19.5795455,
                "pitch": 50,
                "velocity": 127,
                "duration": 0.05,
                "tempo": 120.0
            },
            {
                "start_time": 19.5795455,
                "end_time": 19.6113636,
                "pitch": 48,
                "velocity": 127,
                "duration": 0.0318182,
                "tempo": 120.0
            },
            {
                "start_time": 19.6113636,
                "end_time": 19.6454545,
                "pitch": 45,
                "velocity": 127,
                "duration": 0.0340909,
                "tempo": 120.0
            },
            {
                "start_time": 19.6454545,
                "end_time": 19.6795455,
                "pitch": 43,
                "velocity": 127,
                "duration": 0.0340909,
                "tempo": 120.0
            },
            {
                "start_time": 19.6795455,
                "end_time": 19.7113636,
                "pitch": 40,
                "velocity": 127,
                "duration": 0.0318182,
                "tempo": 120.0
            },
            {
                "start_time": 19.7113636,
                "end_time": 19.7295455,
                "pitch": 36,
                "velocity": 127,
                "duration": 0.0181818,
                "tempo": 120.0
            },
            {
                "start_time": 19.7295455,
                "end_time": 19.7977273,
                "pitch": 47,
                "velocity": 127,
                "duration": 0.0681818,
                "tempo": 120.0
            },
            {
                "start_time": 19.7977273,
                "end_time": 19.8477273,
                "pitch": 45,
                "velocity": 127,
                "duration": 0.05,
                "tempo": 120.0
            },
            {
                "start_time": 19.3454545,
                "end_time": 19.8477273,
                "pitch": 55,
                "velocity": 127,
                "duration": 0.5022727,
                "tempo": 120.0
            },
            {
                "start_time": 19.8477273,
                "end_time": 19.9,
                "pitch": 43,
                "velocity": 127,
                "duration": 0.0522727,
                "tempo": 120.0
            },
            {
                "start_time": 19.9,
                "end_time": 19.95,
                "pitch": 41,
                "velocity": 127,
                "duration": 0.05,
                "tempo": 120.0
            },
            {
                "start_time": 19.95,
                "end_time": 19.9863636,
                "pitch": 38,
                "velocity": 127,
                "duration": 0.0363636,
                "tempo": 120.0
            },
            {
                "start_time": 19.9863636,
                "end_time": 20.0363636,
                "pitch": 53,
                "velocity": 127,
                "duration": 0.05,
                "tempo": 120.0
            },
            {
                "start_time": 20.0363636,
                "end_time": 20.0886364,
                "pitch": 50,
                "velocity": 127,
                "duration": 0.0522727,
                "tempo": 120.0
            },
            {
                "start_time": 20.0886364,
                "end_time": 20.1227273,
                "pitch": 48,
                "velocity": 127,
                "duration": 0.0340909,
                "tempo": 120.0
            },
            {
                "start_time": 20.1227273,
                "end_time": 20.1568182,
                "pitch": 45,
                "velocity": 127,
                "duration": 0.0340909,
                "tempo": 120.0
            },
            {
                "start_time": 20.1568182,
                "end_time": 20.1909091,
                "pitch": 43,
                "velocity": 127,
                "duration": 0.0340909,
                "tempo": 120.0
            },
            {
                "start_time": 20.1909091,
                "end_time": 20.225,
                "pitch": 40,
                "velocity": 127,
                "duration": 0.0340909,
                "tempo": 120.0
            },
            {
                "start_time": 20.225,
                "end_time": 20.2431818,
                "pitch": 36,
                "velocity": 127,
                "duration": 0.0181818,
                "tempo": 120.0
            },
            {
                "start_time": 20.2431818,
                "end_time": 20.3090909,
                "pitch": 47,
                "velocity": 127,
                "duration": 0.0659091,
                "tempo": 120.0
            },
            {
                "start_time": 20.3090909,
                "end_time": 20.3590909,
                "pitch": 45,
                "velocity": 127,
                "duration": 0.05,
                "tempo": 120.0
            },
            {
                "start_time": 19.8477273,
                "end_time": 20.3590909,
                "pitch": 55,
                "velocity": 127,
                "duration": 0.5113636,
                "tempo": 120.0
            },
            {
                "start_time": 20.3590909,
                "end_time": 20.4090909,
                "pitch": 43,
                "velocity": 127,
                "duration": 0.05,
                "tempo": 120.0
            },
            {
                "start_time": 20.4090909,
                "end_time": 20.4590909,
                "pitch": 41,
                "velocity": 127,
                "duration": 0.05,
                "tempo": 120.0
            },
            {
                "start_time": 20.4590909,
                "end_time": 20.4931818,
                "pitch": 38,
                "velocity": 127,
                "duration": 0.0340909,
                "tempo": 120.0
            },
            {
                "start_time": 20.4931818,
                "end_time": 20.5431818,
                "pitch": 53,
                "velocity": 127,
                "duration": 0.05,
                "tempo": 120.0
            },
            {
                "start_time": 20.5431818,
                "end_time": 20.5931818,
                "pitch": 50,
                "velocity": 127,
                "duration": 0.05,
                "tempo": 120.0
            },
            {
                "start_time": 20.5931818,
                "end_time": 20.625,
                "pitch": 48,
                "velocity": 127,
                "duration": 0.0318182,
                "tempo": 120.0
            },
            {
                "start_time": 20.625,
                "end_time": 20.6590909,
                "pitch": 45,
                "velocity": 127,
                "duration": 0.0340909,
                "tempo": 120.0
            },
            {
                "start_time": 20.6590909,
                "end_time": 20.6931818,
                "pitch": 43,
                "velocity": 127,
                "duration": 0.0340909,
                "tempo": 120.0
            },
            {
                "start_time": 20.6931818,
                "end_time": 20.7272727,
                "pitch": 40,
                "velocity": 127,
                "duration": 0.0340909,
                "tempo": 120.0
            },
            {
                "start_time": 20.7272727,
                "end_time": 20.7431818,
                "pitch": 36,
                "velocity": 127,
                "duration": 0.0159091,
                "tempo": 120.0
            },
            {
                "start_time": 20.7431818,
                "end_time": 20.8090909,
                "pitch": 47,
                "velocity": 127,
                "duration": 0.0659091,
                "tempo": 120.0
            },
            {
                "start_time": 20.8090909,
                "end_time": 20.8590909,
                "pitch": 45,
                "velocity": 127,
                "duration": 0.05,
                "tempo": 120.0
            },
            {
                "start_time": 20.3590909,
                "end_time": 20.8590909,
                "pitch": 55,
                "velocity": 127,
                "duration": 0.5,
                "tempo": 120.0
            },
            {
                "start_time": 20.8590909,
                "end_time": 20.9090909,
                "pitch": 43,
                "velocity": 127,
                "duration": 0.05,
                "tempo": 120.0
            },
            {
                "start_time": 20.9090909,
                "end_time": 20.9590909,
                "pitch": 41,
                "velocity": 127,
                "duration": 0.05,
                "tempo": 120.0
            },
            {
                "start_time": 20.9590909,
                "end_time": 20.9931818,
                "pitch": 38,
                "velocity": 127,
                "duration": 0.0340909,
                "tempo": 120.0
            },
            {
                "start_time": 20.9931818,
                "end_time": 21.0431818,
                "pitch": 53,
                "velocity": 127,
                "duration": 0.05,
                "tempo": 120.0
            },
            {
                "start_time": 21.0431818,
                "end_time": 21.0931818,
                "pitch": 50,
                "velocity": 127,
                "duration": 0.05,
                "tempo": 120.0
            },
            {
                "start_time": 21.0931818,
                "end_time": 21.1272727,
                "pitch": 48,
                "velocity": 127,
                "duration": 0.0340909,
                "tempo": 120.0
            },
            {
                "start_time": 21.1272727,
                "end_time": 21.1590909,
                "pitch": 45,
                "velocity": 127,
                "duration": 0.0318182,
                "tempo": 120.0
            },
            {
                "start_time": 21.1590909,
                "end_time": 21.1931818,
                "pitch": 43,
                "velocity": 127,
                "duration": 0.0340909,
                "tempo": 120.0
            },
            {
                "start_time": 21.1931818,
                "end_time": 21.2272727,
                "pitch": 40,
                "velocity": 127,
                "duration": 0.0340909,
                "tempo": 120.0
            },
            {
                "start_time": 21.2272727,
                "end_time": 21.2431818,
                "pitch": 36,
                "velocity": 127,
                "duration": 0.0159091,
                "tempo": 120.0
            },
            {
                "start_time": 21.2454545,
                "end_time": 21.2613636,
                "pitch": 59,
                "velocity": 127,
                "duration": 0.0159091,
                "tempo": 120.0
            },
            {
                "start_time": 21.2613636,
                "end_time": 21.3272727,
                "pitch": 59,
                "velocity": 127,
                "duration": 0.0659091,
                "tempo": 120.0
            },
            {
                "start_time": 21.3272727,
                "end_time": 21.3772727,
                "pitch": 57,
                "velocity": 127,
                "duration": 0.05,
                "tempo": 120.0
            },
            {
                "start_time": 5.8772727,
                "end_time": 21.3772727,
                "pitch": 67,
                "velocity": 127,
                "duration": 15.5,
                "tempo": 120.0
            },
            {
                "start_time": 20.8590909,
                "end_time": 21.4113636,
                "pitch": 55,
                "velocity": 127,
                "duration": 0.5522727,
                "tempo": 120.0
            },
            {
                "start_time": 21.3772727,
                "end_time": 21.4113636,
                "pitch": 55,
                "velocity": 127,
                "duration": 0.0340909,
                "tempo": 120.0
            },
            {
                "start_time": 21.4113636,
                "end_time": 21.4272727,
                "pitch": 57,
                "velocity": 127,
                "duration": 0.0159091,
                "tempo": 120.0
            },
            {
                "start_time": 21.4272727,
                "end_time": 21.4931818,
                "pitch": 57,
                "velocity": 127,
                "duration": 0.0659091,
                "tempo": 120.0
            },
            {
                "start_time": 21.4954545,
                "end_time": 21.5113636,
                "pitch": 55,
                "velocity": 127,
                "duration": 0.0159091,
                "tempo": 120.0
            },
            {
                "start_time": 21.5113636,
                "end_time": 21.5272727,
                "pitch": 55,
                "velocity": 127,
                "duration": 0.0159091,
                "tempo": 120.0
            },
            {
                "start_time": 21.3772727,
                "end_time": 21.5272727,
                "pitch": 67,
                "velocity": 127,
                "duration": 0.15,
                "tempo": 120.0
            },
            {
                "start_time": 21.5272727,
                "end_time": 21.5772727,
                "pitch": 54,
                "velocity": 127,
                "duration": 0.05,
                "tempo": 120.0
            },
            {
                "start_time": 21.5772727,
                "end_time": 21.6272727,
                "pitch": 52,
                "velocity": 127,
                "duration": 0.05,
                "tempo": 120.0
            },
            {
                "start_time": 21.6272727,
                "end_time": 21.6613636,
                "pitch": 49,
                "velocity": 127,
                "duration": 0.0340909,
                "tempo": 120.0
            },
            {
                "start_time": 21.6613636,
                "end_time": 21.6772727,
                "pitch": 53,
                "velocity": 127,
                "duration": 0.0159091,
                "tempo": 120.0
            },
            {
                "start_time": 21.6772727,
                "end_time": 21.7272727,
                "pitch": 53,
                "velocity": 127,
                "duration": 0.05,
                "tempo": 120.0
            },
            {
                "start_time": 21.7272727,
                "end_time": 21.7454545,
                "pitch": 50,
                "velocity": 127,
                "duration": 0.0181818,
                "tempo": 120.0
            },
            {
                "start_time": 21.7454545,
                "end_time": 21.7613636,
                "pitch": 41,
                "velocity": 101,
                "duration": 0.0159091,
                "tempo": 120.0
            },
            {
                "start_time": 21.7613636,
                "end_time": 21.8113636,
                "pitch": 41,
                "velocity": 101,
                "duration": 0.05,
                "tempo": 120.0
            },
            {
                "start_time": 21.8113636,
                "end_time": 21.8613636,
                "pitch": 38,
                "velocity": 101,
                "duration": 0.05,
                "tempo": 120.0
            },
            {
                "start_time": 21.8613636,
                "end_time": 21.8954545,
                "pitch": 36,
                "velocity": 101,
                "duration": 0.0340909,
                "tempo": 120.0
            },
            {
                "start_time": 21.8954545,
                "end_time": 21.9113636,
                "pitch": 33,
                "velocity": 101,
                "duration": 0.0159091,
                "tempo": 120.0
            },
            {
                "start_time": 21.9113636,
                "end_time": 21.9613636,
                "pitch": 41,
                "velocity": 101,
                "duration": 0.05,
                "tempo": 120.0
            },
            {
                "start_time": 21.9613636,
                "end_time": 21.9954545,
                "pitch": 38,
                "velocity": 101,
                "duration": 0.0340909,
                "tempo": 120.0
            },
            {
                "start_time": 21.9954545,
                "end_time": 22.0113636,
                "pitch": 41,
                "velocity": 101,
                "duration": 0.0159091,
                "tempo": 120.0
            },
            {
                "start_time": 22.0113636,
                "end_time": 22.0613636,
                "pitch": 41,
                "velocity": 101,
                "duration": 0.05,
                "tempo": 120.0
            },
            {
                "start_time": 22.0613636,
                "end_time": 22.1113636,
                "pitch": 38,
                "velocity": 101,
                "duration": 0.05,
                "tempo": 120.0
            },
            {
                "start_time": 22.1113636,
                "end_time": 22.1454545,
                "pitch": 36,
                "velocity": 101,
                "duration": 0.0340909,
                "tempo": 120.0
            },
            {
                "start_time": 22.1454545,
                "end_time": 22.1613636,
                "pitch": 33,
                "velocity": 101,
                "duration": 0.0159091,
                "tempo": 120.0
            },
            {
                "start_time": 22.1613636,
                "end_time": 22.2113636,
                "pitch": 41,
                "velocity": 101,
                "duration": 0.05,
                "tempo": 120.0
            },
            {
                "start_time": 22.2113636,
                "end_time": 22.2454545,
                "pitch": 38,
                "velocity": 101,
                "duration": 0.0340909,
                "tempo": 120.0
            },
            {
                "start_time": 22.2454545,
                "end_time": 22.2613636,
                "pitch": 59,
                "velocity": 127,
                "duration": 0.0159091,
                "tempo": 120.0
            },
            {
                "start_time": 22.2613636,
                "end_time": 22.3272727,
                "pitch": 59,
                "velocity": 127,
                "duration": 0.0659091,
                "tempo": 120.0
            },
            {
                "start_time": 22.3272727,
                "end_time": 22.3772727,
                "pitch": 57,
                "velocity": 127,
                "duration": 0.05,
                "tempo": 120.0
            },
            {
                "start_time": 21.5272727,
                "end_time": 22.3795455,
                "pitch": 67,
                "velocity": 127,
                "duration": 0.8522727,
                "tempo": 120.0
            },
            {
                "start_time": 22.3772727,
                "end_time": 22.3795455,
                "pitch": 67,
                "velocity": 127,
                "duration": 0.0022727,
                "tempo": 120.0
            },
            {
                "start_time": 22.3795455,
                "end_time": 22.4113636,
                "pitch": 55,
                "velocity": 127,
                "duration": 0.0318182,
                "tempo": 120.0
            },
            {
                "start_time": 22.4113636,
                "end_time": 22.4295455,
                "pitch": 57,
                "velocity": 127,
                "duration": 0.0181818,
                "tempo": 120.0
            },
            {
                "start_time": 22.4295455,
                "end_time": 22.4954545,
                "pitch": 57,
                "velocity": 127,
                "duration": 0.0659091,
                "tempo": 120.0
            },
            {
                "start_time": 22.4954545,
                "end_time": 22.5113636,
                "pitch": 55,
                "velocity": 127,
                "duration": 0.0159091,
                "tempo": 120.0
            },
            {
                "start_time": 22.5113636,
                "end_time": 22.5295455,
                "pitch": 55,
                "velocity": 127,
                "duration": 0.0181818,
                "tempo": 120.0
            },
            {
                "start_time": 22.5295455,
                "end_time": 22.5795455,
                "pitch": 54,
                "velocity": 127,
                "duration": 0.05,
                "tempo": 120.0
            },
            {
                "start_time": 22.5795455,
                "end_time": 22.6295455,
                "pitch": 52,
                "velocity": 127,
                "duration": 0.05,
                "tempo": 120.0
            },
            {
                "start_time": 22.6295455,
                "end_time": 22.6613636,
                "pitch": 49,
                "velocity": 127,
                "duration": 0.0318182,
                "tempo": 120.0
            },
            {
                "start_time": 22.6636364,
                "end_time": 22.6795455,
                "pitch": 53,
                "velocity": 127,
                "duration": 0.0159091,
                "tempo": 120.0
            },
            {
                "start_time": 22.6795455,
                "end_time": 22.7295455,
                "pitch": 53,
                "velocity": 127,
                "duration": 0.05,
                "tempo": 120.0
            },
            {
                "start_time": 22.7295455,
                "end_time": 22.7454545,
                "pitch": 50,
                "velocity": 127,
                "duration": 0.0159091,
                "tempo": 120.0
            },
            {
                "start_time": 22.7477273,
                "end_time": 22.7613636,
                "pitch": 41,
                "velocity": 101,
                "duration": 0.0136364,
                "tempo": 120.0
            },
            {
                "start_time": 22.7636364,
                "end_time": 22.8113636,
                "pitch": 41,
                "velocity": 101,
                "duration": 0.0477273,
                "tempo": 120.0
            },
            {
                "start_time": 22.8113636,
                "end_time": 22.8613636,
                "pitch": 38,
                "velocity": 101,
                "duration": 0.05,
                "tempo": 120.0
            },
            {
                "start_time": 22.8613636,
                "end_time": 22.8954545,
                "pitch": 36,
                "velocity": 101,
                "duration": 0.0340909,
                "tempo": 120.0
            },
            {
                "start_time": 22.8954545,
                "end_time": 22.9136364,
                "pitch": 33,
                "velocity": 101,
                "duration": 0.0181818,
                "tempo": 120.0
            },
            {
                "start_time": 22.9136364,
                "end_time": 22.9613636,
                "pitch": 41,
                "velocity": 101,
                "duration": 0.0477273,
                "tempo": 120.0
            },
            {
                "start_time": 22.9613636,
                "end_time": 22.9954545,
                "pitch": 38,
                "velocity": 101,
                "duration": 0.0340909,
                "tempo": 120.0
            },
            {
                "start_time": 22.9954545,
                "end_time": 23.0136364,
                "pitch": 41,
                "velocity": 101,
                "duration": 0.0181818,
                "tempo": 120.0
            },
            {
                "start_time": 23.0136364,
                "end_time": 23.0636364,
                "pitch": 41,
                "velocity": 101,
                "duration": 0.05,
                "tempo": 120.0
            },
            {
                "start_time": 23.0636364,
                "end_time": 23.1136364,
                "pitch": 38,
                "velocity": 101,
                "duration": 0.05,
                "tempo": 120.0
            },
            {
                "start_time": 23.1136364,
                "end_time": 23.1454545,
                "pitch": 36,
                "velocity": 101,
                "duration": 0.0318182,
                "tempo": 120.0
            },
            {
                "start_time": 23.1454545,
                "end_time": 23.1636364,
                "pitch": 33,
                "velocity": 101,
                "duration": 0.0181818,
                "tempo": 120.0
            },
            {
                "start_time": 23.1636364,
                "end_time": 23.2136364,
                "pitch": 41,
                "velocity": 101,
                "duration": 0.05,
                "tempo": 120.0
            },
            {
                "start_time": 23.2136364,
                "end_time": 23.2454545,
                "pitch": 38,
                "velocity": 101,
                "duration": 0.0318182,
                "tempo": 120.0
            },
            {
                "start_time": 23.2477273,
                "end_time": 23.2636364,
                "pitch": 59,
                "velocity": 127,
                "duration": 0.0159091,
                "tempo": 120.0
            },
            {
                "start_time": 23.2636364,
                "end_time": 23.3295455,
                "pitch": 59,
                "velocity": 127,
                "duration": 0.0659091,
                "tempo": 120.0
            },
            {
                "start_time": 23.3295455,
                "end_time": 23.3795455,
                "pitch": 57,
                "velocity": 127,
                "duration": 0.05,
                "tempo": 120.0
            },
            {
                "start_time": 22.5295455,
                "end_time": 23.3795455,
                "pitch": 67,
                "velocity": 127,
                "duration": 0.85,
                "tempo": 120.0
            },
            {
                "start_time": 23.3795455,
                "end_time": 23.4136364,
                "pitch": 55,
                "velocity": 127,
                "duration": 0.0340909,
                "tempo": 120.0
            },
            {
                "start_time": 23.4136364,
                "end_time": 23.4295455,
                "pitch": 57,
                "velocity": 127,
                "duration": 0.0159091,
                "tempo": 120.0
            },
            {
                "start_time": 23.4295455,
                "end_time": 23.4977273,
                "pitch": 57,
                "velocity": 127,
                "duration": 0.0681818,
                "tempo": 120.0
            },
            {
                "start_time": 23.4977273,
                "end_time": 23.5136364,
                "pitch": 55,
                "velocity": 127,
                "duration": 0.0159091,
                "tempo": 120.0
            },
            {
                "start_time": 23.5136364,
                "end_time": 23.5295455,
                "pitch": 55,
                "velocity": 127,
                "duration": 0.0159091,
                "tempo": 120.0
            },
            {
                "start_time": 23.3795455,
                "end_time": 23.5295455,
                "pitch": 67,
                "velocity": 127,
                "duration": 0.15,
                "tempo": 120.0
            },
            {
                "start_time": 23.5295455,
                "end_time": 23.5795455,
                "pitch": 54,
                "velocity": 127,
                "duration": 0.05,
                "tempo": 120.0
            },
            {
                "start_time": 23.5795455,
                "end_time": 23.6295455,
                "pitch": 52,
                "velocity": 127,
                "duration": 0.05,
                "tempo": 120.0
            },
            {
                "start_time": 23.6295455,
                "end_time": 23.6636364,
                "pitch": 49,
                "velocity": 127,
                "duration": 0.0340909,
                "tempo": 120.0
            },
            {
                "start_time": 23.6636364,
                "end_time": 23.6795455,
                "pitch": 53,
                "velocity": 127,
                "duration": 0.0159091,
                "tempo": 120.0
            },
            {
                "start_time": 23.6795455,
                "end_time": 23.7295455,
                "pitch": 53,
                "velocity": 127,
                "duration": 0.05,
                "tempo": 120.0
            },
            {
                "start_time": 23.7295455,
                "end_time": 23.7477273,
                "pitch": 50,
                "velocity": 127,
                "duration": 0.0181818,
                "tempo": 120.0
            },
            {
                "start_time": 23.7477273,
                "end_time": 23.7636364,
                "pitch": 41,
                "velocity": 101,
                "duration": 0.0159091,
                "tempo": 120.0
            },
            {
                "start_time": 23.7636364,
                "end_time": 23.8136364,
                "pitch": 41,
                "velocity": 101,
                "duration": 0.05,
                "tempo": 120.0
            },
            {
                "start_time": 23.8136364,
                "end_time": 23.8636364,
                "pitch": 38,
                "velocity": 101,
                "duration": 0.05,
                "tempo": 120.0
            },
            {
                "start_time": 23.8636364,
                "end_time": 23.8977273,
                "pitch": 36,
                "velocity": 101,
                "duration": 0.0340909,
                "tempo": 120.0
            },
            {
                "start_time": 23.8977273,
                "end_time": 23.9136364,
                "pitch": 33,
                "velocity": 101,
                "duration": 0.0159091,
                "tempo": 120.0
            },
            {
                "start_time": 23.9136364,
                "end_time": 23.9636364,
                "pitch": 41,
                "velocity": 101,
                "duration": 0.05,
                "tempo": 120.0
            },
            {
                "start_time": 23.9636364,
                "end_time": 23.9977273,
                "pitch": 38,
                "velocity": 101,
                "duration": 0.0340909,
                "tempo": 120.0
            },
            {
                "start_time": 23.9977273,
                "end_time": 24.0136364,
                "pitch": 41,
                "velocity": 101,
                "duration": 0.0159091,
                "tempo": 120.0
            },
            {
                "start_time": 24.0136364,
                "end_time": 24.0636364,
                "pitch": 41,
                "velocity": 101,
                "duration": 0.05,
                "tempo": 120.0
            },
            {
                "start_time": 24.0636364,
                "end_time": 24.1136364,
                "pitch": 38,
                "velocity": 101,
                "duration": 0.05,
                "tempo": 120.0
            },
            {
                "start_time": 24.1136364,
                "end_time": 24.1477273,
                "pitch": 36,
                "velocity": 101,
                "duration": 0.0340909,
                "tempo": 120.0
            },
            {
                "start_time": 24.1477273,
                "end_time": 24.1636364,
                "pitch": 33,
                "velocity": 101,
                "duration": 0.0159091,
                "tempo": 120.0
            },
            {
                "start_time": 24.1636364,
                "end_time": 24.2136364,
                "pitch": 41,
                "velocity": 101,
                "duration": 0.05,
                "tempo": 120.0
            },
            {
                "start_time": 24.2136364,
                "end_time": 24.2477273,
                "pitch": 38,
                "velocity": 101,
                "duration": 0.0340909,
                "tempo": 120.0
            },
            {
                "start_time": 24.2477273,
                "end_time": 24.2636364,
                "pitch": 59,
                "velocity": 127,
                "duration": 0.0159091,
                "tempo": 120.0
            },
            {
                "start_time": 24.2636364,
                "end_time": 24.3318182,
                "pitch": 59,
                "velocity": 127,
                "duration": 0.0681818,
                "tempo": 120.0
            },
            {
                "start_time": 24.3318182,
                "end_time": 24.3818182,
                "pitch": 57,
                "velocity": 127,
                "duration": 0.05,
                "tempo": 120.0
            },
            {
                "start_time": 23.5295455,
                "end_time": 24.3818182,
                "pitch": 67,
                "velocity": 127,
                "duration": 0.8522727,
                "tempo": 120.0
            },
            {
                "start_time": 24.3818182,
                "end_time": 24.4136364,
                "pitch": 55,
                "velocity": 127,
                "duration": 0.0318182,
                "tempo": 120.0
            },
            {
                "start_time": 24.4159091,
                "end_time": 24.4318182,
                "pitch": 57,
                "velocity": 127,
                "duration": 0.0159091,
                "tempo": 120.0
            },
            {
                "start_time": 24.4318182,
                "end_time": 24.4977273,
                "pitch": 57,
                "velocity": 127,
                "duration": 0.0659091,
                "tempo": 120.0
            },
            {
                "start_time": 24.4977273,
                "end_time": 24.5136364,
                "pitch": 55,
                "velocity": 127,
                "duration": 0.0159091,
                "tempo": 120.0
            },
            {
                "start_time": 24.5159091,
                "end_time": 24.5318182,
                "pitch": 55,
                "velocity": 127,
                "duration": 0.0159091,
                "tempo": 120.0
            },
            {
                "start_time": 24.3818182,
                "end_time": 24.5318182,
                "pitch": 67,
                "velocity": 127,
                "duration": 0.15,
                "tempo": 120.0
            },
            {
                "start_time": 24.5318182,
                "end_time": 24.5818182,
                "pitch": 54,
                "velocity": 127,
                "duration": 0.05,
                "tempo": 120.0
            },
            {
                "start_time": 24.5818182,
                "end_time": 24.6318182,
                "pitch": 52,
                "velocity": 127,
                "duration": 0.05,
                "tempo": 120.0
            },
            {
                "start_time": 24.6318182,
                "end_time": 24.6659091,
                "pitch": 49,
                "velocity": 127,
                "duration": 0.0340909,
                "tempo": 120.0
            },
            {
                "start_time": 24.6659091,
                "end_time": 24.6818182,
                "pitch": 53,
                "velocity": 127,
                "duration": 0.0159091,
                "tempo": 120.0
            },
            {
                "start_time": 24.6818182,
                "end_time": 24.7318182,
                "pitch": 53,
                "velocity": 127,
                "duration": 0.05,
                "tempo": 120.0
            },
            {
                "start_time": 24.7318182,
                "end_time": 24.7477273,
                "pitch": 50,
                "velocity": 127,
                "duration": 0.0159091,
                "tempo": 120.0
            },
            {
                "start_time": 24.75,
                "end_time": 24.7636364,
                "pitch": 41,
                "velocity": 101,
                "duration": 0.0136364,
                "tempo": 120.0
            },
            {
                "start_time": 24.7659091,
                "end_time": 24.8159091,
                "pitch": 41,
                "velocity": 101,
                "duration": 0.05,
                "tempo": 120.0
            },
            {
                "start_time": 24.8159091,
                "end_time": 24.8659091,
                "pitch": 38,
                "velocity": 101,
                "duration": 0.05,
                "tempo": 120.0
            },
            {
                "start_time": 24.8659091,
                "end_time": 24.8977273,
                "pitch": 36,
                "velocity": 101,
                "duration": 0.0318182,
                "tempo": 120.0
            },
            {
                "start_time": 24.8977273,
                "end_time": 24.9159091,
                "pitch": 33,
                "velocity": 101,
                "duration": 0.0181818,
                "tempo": 120.0
            },
            {
                "start_time": 24.9159091,
                "end_time": 24.9659091,
                "pitch": 41,
                "velocity": 101,
                "duration": 0.05,
                "tempo": 120.0
            },
            {
                "start_time": 24.9659091,
                "end_time": 24.9977273,
                "pitch": 38,
                "velocity": 101,
                "duration": 0.0318182,
                "tempo": 120.0
            },
            {
                "start_time": 25.0,
                "end_time": 25.0159091,
                "pitch": 41,
                "velocity": 101,
                "duration": 0.0159091,
                "tempo": 120.0
            },
            {
                "start_time": 25.0159091,
                "end_time": 25.0659091,
                "pitch": 41,
                "velocity": 101,
                "duration": 0.05,
                "tempo": 120.0
            },
            {
                "start_time": 25.0659091,
                "end_time": 25.1159091,
                "pitch": 38,
                "velocity": 101,
                "duration": 0.05,
                "tempo": 120.0
            },
            {
                "start_time": 25.1159091,
                "end_time": 25.1477273,
                "pitch": 36,
                "velocity": 101,
                "duration": 0.0318182,
                "tempo": 120.0
            },
            {
                "start_time": 25.1477273,
                "end_time": 25.1659091,
                "pitch": 33,
                "velocity": 101,
                "duration": 0.0181818,
                "tempo": 120.0
            },
            {
                "start_time": 25.1659091,
                "end_time": 25.2159091,
                "pitch": 41,
                "velocity": 101,
                "duration": 0.05,
                "tempo": 120.0
            },
            {
                "start_time": 25.2159091,
                "end_time": 25.25,
                "pitch": 38,
                "velocity": 101,
                "duration": 0.0340909,
                "tempo": 120.0
            },
            {
                "start_time": 25.25,
                "end_time": 25.2659091,
                "pitch": 59,
                "velocity": 127,
                "duration": 0.0159091,
                "tempo": 120.0
            },
            {
                "start_time": 25.2659091,
                "end_time": 25.3318182,
                "pitch": 59,
                "velocity": 127,
                "duration": 0.0659091,
                "tempo": 120.0
            },
            {
                "start_time": 25.3318182,
                "end_time": 25.3818182,
                "pitch": 57,
                "velocity": 127,
                "duration": 0.05,
                "tempo": 120.0
            },
            {
                "start_time": 24.5318182,
                "end_time": 25.3818182,
                "pitch": 67,
                "velocity": 127,
                "duration": 0.85,
                "tempo": 120.0
            },
            {
                "start_time": 25.3818182,
                "end_time": 25.4159091,
                "pitch": 55,
                "velocity": 127,
                "duration": 0.0340909,
                "tempo": 120.0
            },
            {
                "start_time": 25.4159091,
                "end_time": 25.4318182,
                "pitch": 57,
                "velocity": 127,
                "duration": 0.0159091,
                "tempo": 120.0
            },
            {
                "start_time": 25.4318182,
                "end_time": 25.5,
                "pitch": 57,
                "velocity": 127,
                "duration": 0.0681818,
                "tempo": 120.0
            },
            {
                "start_time": 25.5,
                "end_time": 25.5159091,
                "pitch": 55,
                "velocity": 127,
                "duration": 0.0159091,
                "tempo": 120.0
            },
            {
                "start_time": 25.5159091,
                "end_time": 25.5318182,
                "pitch": 55,
                "velocity": 127,
                "duration": 0.0159091,
                "tempo": 120.0
            },
            {
                "start_time": 25.3818182,
                "end_time": 25.5318182,
                "pitch": 67,
                "velocity": 127,
                "duration": 0.15,
                "tempo": 120.0
            },
            {
                "start_time": 25.5318182,
                "end_time": 25.5818182,
                "pitch": 54,
                "velocity": 127,
                "duration": 0.05,
                "tempo": 120.0
            },
            {
                "start_time": 25.5818182,
                "end_time": 25.6318182,
                "pitch": 52,
                "velocity": 127,
                "duration": 0.05,
                "tempo": 120.0
            },
            {
                "start_time": 25.6318182,
                "end_time": 25.6659091,
                "pitch": 49,
                "velocity": 127,
                "duration": 0.0340909,
                "tempo": 120.0
            },
            {
                "start_time": 25.6659091,
                "end_time": 25.6818182,
                "pitch": 53,
                "velocity": 127,
                "duration": 0.0159091,
                "tempo": 120.0
            },
            {
                "start_time": 25.6840909,
                "end_time": 25.7318182,
                "pitch": 53,
                "velocity": 127,
                "duration": 0.0477273,
                "tempo": 120.0
            },
            {
                "start_time": 25.7318182,
                "end_time": 25.75,
                "pitch": 50,
                "velocity": 127,
                "duration": 0.0181818,
                "tempo": 120.0
            },
            {
                "start_time": 25.75,
                "end_time": 25.7659091,
                "pitch": 41,
                "velocity": 101,
                "duration": 0.0159091,
                "tempo": 120.0
            },
            {
                "start_time": 25.7659091,
                "end_time": 25.8159091,
                "pitch": 41,
                "velocity": 101,
                "duration": 0.05,
                "tempo": 120.0
            },
            {
                "start_time": 25.8159091,
                "end_time": 25.8659091,
                "pitch": 38,
                "velocity": 101,
                "duration": 0.05,
                "tempo": 120.0
            },
            {
                "start_time": 25.8659091,
                "end_time": 25.9,
                "pitch": 36,
                "velocity": 101,
                "duration": 0.0340909,
                "tempo": 120.0
            },
            {
                "start_time": 25.9,
                "end_time": 25.9159091,
                "pitch": 33,
                "velocity": 101,
                "duration": 0.0159091,
                "tempo": 120.0
            },
            {
                "start_time": 25.9159091,
                "end_time": 25.9659091,
                "pitch": 41,
                "velocity": 101,
                "duration": 0.05,
                "tempo": 120.0
            },
            {
                "start_time": 25.9659091,
                "end_time": 26.0,
                "pitch": 38,
                "velocity": 101,
                "duration": 0.0340909,
                "tempo": 120.0
            },
            {
                "start_time": 26.0,
                "end_time": 26.0159091,
                "pitch": 41,
                "velocity": 101,
                "duration": 0.0159091,
                "tempo": 120.0
            },
            {
                "start_time": 26.0159091,
                "end_time": 26.0659091,
                "pitch": 41,
                "velocity": 101,
                "duration": 0.05,
                "tempo": 120.0
            },
            {
                "start_time": 26.0659091,
                "end_time": 26.1159091,
                "pitch": 38,
                "velocity": 101,
                "duration": 0.05,
                "tempo": 120.0
            },
            {
                "start_time": 26.1159091,
                "end_time": 26.15,
                "pitch": 36,
                "velocity": 101,
                "duration": 0.0340909,
                "tempo": 120.0
            },
            {
                "start_time": 26.15,
                "end_time": 26.1659091,
                "pitch": 33,
                "velocity": 101,
                "duration": 0.0159091,
                "tempo": 120.0
            },
            {
                "start_time": 26.1681818,
                "end_time": 26.2159091,
                "pitch": 41,
                "velocity": 101,
                "duration": 0.0477273,
                "tempo": 120.0
            },
            {
                "start_time": 26.2159091,
                "end_time": 26.25,
                "pitch": 38,
                "velocity": 101,
                "duration": 0.0340909,
                "tempo": 120.0
            },
            {
                "start_time": 26.2522727,
                "end_time": 26.3159091,
                "pitch": 47,
                "velocity": 127,
                "duration": 0.0636364,
                "tempo": 120.0
            },
            {
                "start_time": 26.3159091,
                "end_time": 26.3659091,
                "pitch": 45,
                "velocity": 127,
                "duration": 0.05,
                "tempo": 120.0
            },
            {
                "start_time": 26.3659091,
                "end_time": 26.4159091,
                "pitch": 43,
                "velocity": 127,
                "duration": 0.05,
                "tempo": 120.0
            },
            {
                "start_time": 26.4159091,
                "end_time": 26.4659091,
                "pitch": 41,
                "velocity": 127,
                "duration": 0.05,
                "tempo": 120.0
            },
            {
                "start_time": 26.4659091,
                "end_time": 26.5,
                "pitch": 38,
                "velocity": 127,
                "duration": 0.0340909,
                "tempo": 120.0
            },
            {
                "start_time": 26.5,
                "end_time": 26.55,
                "pitch": 53,
                "velocity": 127,
                "duration": 0.05,
                "tempo": 120.0
            },
            {
                "start_time": 26.55,
                "end_time": 26.6,
                "pitch": 50,
                "velocity": 127,
                "duration": 0.05,
                "tempo": 120.0
            },
            {
                "start_time": 26.6,
                "end_time": 26.6340909,
                "pitch": 48,
                "velocity": 127,
                "duration": 0.0340909,
                "tempo": 120.0
            },
            {
                "start_time": 26.6340909,
                "end_time": 26.6681818,
                "pitch": 45,
                "velocity": 127,
                "duration": 0.0340909,
                "tempo": 120.0
            },
            {
                "start_time": 26.6681818,
                "end_time": 26.7,
                "pitch": 43,
                "velocity": 127,
                "duration": 0.0318182,
                "tempo": 120.0
            },
            {
                "start_time": 26.7,
                "end_time": 26.7340909,
                "pitch": 40,
                "velocity": 127,
                "duration": 0.0340909,
                "tempo": 120.0
            },
            {
                "start_time": 26.7340909,
                "end_time": 26.75,
                "pitch": 36,
                "velocity": 127,
                "duration": 0.0159091,
                "tempo": 120.0
            },
            {
                "start_time": 26.7522727,
                "end_time": 26.8181818,
                "pitch": 47,
                "velocity": 127,
                "duration": 0.0659091,
                "tempo": 120.0
            },
            {
                "start_time": 26.8181818,
                "end_time": 26.8681818,
                "pitch": 45,
                "velocity": 127,
                "duration": 0.05,
                "tempo": 120.0
            },
            {
                "start_time": 26.3659091,
                "end_time": 26.8681818,
                "pitch": 55,
                "velocity": 127,
                "duration": 0.5022727,
                "tempo": 120.0
            },
            {
                "start_time": 26.8681818,
                "end_time": 26.9181818,
                "pitch": 43,
                "velocity": 127,
                "duration": 0.05,
                "tempo": 120.0
            },
            {
                "start_time": 26.9181818,
                "end_time": 26.9681818,
                "pitch": 41,
                "velocity": 127,
                "duration": 0.05,
                "tempo": 120.0
            },
            {
                "start_time": 26.9681818,
                "end_time": 27.0022727,
                "pitch": 38,
                "velocity": 127,
                "duration": 0.0340909,
                "tempo": 120.0
            },
            {
                "start_time": 27.0022727,
                "end_time": 27.05,
                "pitch": 53,
                "velocity": 127,
                "duration": 0.0477273,
                "tempo": 120.0
            },
            {
                "start_time": 27.05,
                "end_time": 27.1022727,
                "pitch": 50,
                "velocity": 127,
                "duration": 0.0522727,
                "tempo": 120.0
            },
            {
                "start_time": 27.1022727,
                "end_time": 27.1340909,
                "pitch": 48,
                "velocity": 127,
                "duration": 0.0318182,
                "tempo": 120.0
            },
            {
                "start_time": 27.1340909,
                "end_time": 27.1681818,
                "pitch": 45,
                "velocity": 127,
                "duration": 0.0340909,
                "tempo": 120.0
            },
            {
                "start_time": 27.1681818,
                "end_time": 27.2022727,
                "pitch": 43,
                "velocity": 127,
                "duration": 0.0340909,
                "tempo": 120.0
            },
            {
                "start_time": 27.2022727,
                "end_time": 27.2340909,
                "pitch": 40,
                "velocity": 127,
                "duration": 0.0318182,
                "tempo": 120.0
            },
            {
                "start_time": 27.2340909,
                "end_time": 27.2522727,
                "pitch": 36,
                "velocity": 127,
                "duration": 0.0181818,
                "tempo": 120.0
            },
            {
                "start_time": 27.2522727,
                "end_time": 27.3181818,
                "pitch": 47,
                "velocity": 127,
                "duration": 0.0659091,
                "tempo": 120.0
            },
            {
                "start_time": 27.3181818,
                "end_time": 27.3681818,
                "pitch": 45,
                "velocity": 127,
                "duration": 0.05,
                "tempo": 120.0
            },
            {
                "start_time": 26.8681818,
                "end_time": 27.3681818,
                "pitch": 55,
                "velocity": 127,
                "duration": 0.5,
                "tempo": 120.0
            },
            {
                "start_time": 27.3681818,
                "end_time": 27.4181818,
                "pitch": 43,
                "velocity": 127,
                "duration": 0.05,
                "tempo": 120.0
            },
            {
                "start_time": 27.4181818,
                "end_time": 27.4681818,
                "pitch": 41,
                "velocity": 127,
                "duration": 0.05,
                "tempo": 120.0
            },
            {
                "start_time": 27.4681818,
                "end_time": 27.5022727,
                "pitch": 38,
                "velocity": 127,
                "duration": 0.0340909,
                "tempo": 120.0
            },
            {
                "start_time": 27.5022727,
                "end_time": 27.5522727,
                "pitch": 53,
                "velocity": 127,
                "duration": 0.05,
                "tempo": 120.0
            },
            {
                "start_time": 27.5522727,
                "end_time": 27.6022727,
                "pitch": 50,
                "velocity": 127,
                "duration": 0.05,
                "tempo": 120.0
            },
            {
                "start_time": 27.6022727,
                "end_time": 27.6340909,
                "pitch": 48,
                "velocity": 127,
                "duration": 0.0318182,
                "tempo": 120.0
            },
            {
                "start_time": 27.6340909,
                "end_time": 27.6681818,
                "pitch": 45,
                "velocity": 127,
                "duration": 0.0340909,
                "tempo": 120.0
            },
            {
                "start_time": 27.6681818,
                "end_time": 27.7022727,
                "pitch": 43,
                "velocity": 127,
                "duration": 0.0340909,
                "tempo": 120.0
            },
            {
                "start_time": 27.7022727,
                "end_time": 27.7363636,
                "pitch": 40,
                "velocity": 127,
                "duration": 0.0340909,
                "tempo": 120.0
            },
            {
                "start_time": 27.7363636,
                "end_time": 27.7522727,
                "pitch": 36,
                "velocity": 127,
                "duration": 0.0159091,
                "tempo": 120.0
            },
            {
                "start_time": 27.7522727,
                "end_time": 27.8204545,
                "pitch": 47,
                "velocity": 127,
                "duration": 0.0681818,
                "tempo": 120.0
            },
            {
                "start_time": 27.8204545,
                "end_time": 27.8704545,
                "pitch": 45,
                "velocity": 127,
                "duration": 0.05,
                "tempo": 120.0
            },
            {
                "start_time": 27.3681818,
                "end_time": 27.8704545,
                "pitch": 55,
                "velocity": 127,
                "duration": 0.5022727,
                "tempo": 120.0
            },
            {
                "start_time": 27.8704545,
                "end_time": 27.9227273,
                "pitch": 43,
                "velocity": 127,
                "duration": 0.0522727,
                "tempo": 120.0
            },
            {
                "start_time": 27.9227273,
                "end_time": 27.975,
                "pitch": 41,
                "velocity": 127,
                "duration": 0.0522727,
                "tempo": 120.0
            },
            {
                "start_time": 27.975,
                "end_time": 28.0090909,
                "pitch": 38,
                "velocity": 127,
                "duration": 0.0340909,
                "tempo": 120.0
            },
            {
                "start_time": 28.0090909,
                "end_time": 28.0590909,
                "pitch": 53,
                "velocity": 127,
                "duration": 0.05,
                "tempo": 120.0
            },
            {
                "start_time": 28.0590909,
                "end_time": 28.1113636,
                "pitch": 50,
                "velocity": 127,
                "duration": 0.0522727,
                "tempo": 120.0
            },
            {
                "start_time": 28.1113636,
                "end_time": 28.1454545,
                "pitch": 48,
                "velocity": 127,
                "duration": 0.0340909,
                "tempo": 120.0
            },
            {
                "start_time": 28.1454545,
                "end_time": 28.1795455,
                "pitch": 45,
                "velocity": 127,
                "duration": 0.0340909,
                "tempo": 120.0
            },
            {
                "start_time": 28.1795455,
                "end_time": 28.2136364,
                "pitch": 43,
                "velocity": 127,
                "duration": 0.0340909,
                "tempo": 120.0
            },
            {
                "start_time": 28.2136364,
                "end_time": 28.2477273,
                "pitch": 40,
                "velocity": 127,
                "duration": 0.0340909,
                "tempo": 120.0
            },
            {
                "start_time": 28.2477273,
                "end_time": 28.2659091,
                "pitch": 36,
                "velocity": 127,
                "duration": 0.0181818,
                "tempo": 120.0
            },
            {
                "start_time": 28.2659091,
                "end_time": 28.3318182,
                "pitch": 47,
                "velocity": 127,
                "duration": 0.0659091,
                "tempo": 120.0
            },
            {
                "start_time": 28.3318182,
                "end_time": 28.3818182,
                "pitch": 45,
                "velocity": 127,
                "duration": 0.05,
                "tempo": 120.0
            },
            {
                "start_time": 27.8704545,
                "end_time": 28.3818182,
                "pitch": 55,
                "velocity": 127,
                "duration": 0.5113636,
                "tempo": 120.0
            },
            {
                "start_time": 28.3818182,
                "end_time": 28.4318182,
                "pitch": 43,
                "velocity": 127,
                "duration": 0.05,
                "tempo": 120.0
            },
            {
                "start_time": 28.4318182,
                "end_time": 28.4818182,
                "pitch": 41,
                "velocity": 127,
                "duration": 0.05,
                "tempo": 120.0
            },
            {
                "start_time": 28.4818182,
                "end_time": 28.5159091,
                "pitch": 38,
                "velocity": 127,
                "duration": 0.0340909,
                "tempo": 120.0
            },
            {
                "start_time": 28.5159091,
                "end_time": 28.5659091,
                "pitch": 53,
                "velocity": 127,
                "duration": 0.05,
                "tempo": 120.0
            },
            {
                "start_time": 28.5659091,
                "end_time": 28.6159091,
                "pitch": 50,
                "velocity": 127,
                "duration": 0.05,
                "tempo": 120.0
            },
            {
                "start_time": 28.6159091,
                "end_time": 28.65,
                "pitch": 48,
                "velocity": 127,
                "duration": 0.0340909,
                "tempo": 120.0
            },
            {
                "start_time": 28.65,
                "end_time": 28.6818182,
                "pitch": 45,
                "velocity": 127,
                "duration": 0.0318182,
                "tempo": 120.0
            },
            {
                "start_time": 28.6818182,
                "end_time": 28.7159091,
                "pitch": 43,
                "velocity": 127,
                "duration": 0.0340909,
                "tempo": 120.0
            },
            {
                "start_time": 28.7159091,
                "end_time": 28.75,
                "pitch": 40,
                "velocity": 127,
                "duration": 0.0340909,
                "tempo": 120.0
            },
            {
                "start_time": 28.75,
                "end_time": 28.7659091,
                "pitch": 36,
                "velocity": 127,
                "duration": 0.0159091,
                "tempo": 120.0
            },
            {
                "start_time": 28.7659091,
                "end_time": 28.8318182,
                "pitch": 47,
                "velocity": 127,
                "duration": 0.0659091,
                "tempo": 120.0
            },
            {
                "start_time": 28.8318182,
                "end_time": 28.8818182,
                "pitch": 45,
                "velocity": 127,
                "duration": 0.05,
                "tempo": 120.0
            },
            {
                "start_time": 28.3818182,
                "end_time": 28.8818182,
                "pitch": 55,
                "velocity": 127,
                "duration": 0.5,
                "tempo": 120.0
            },
            {
                "start_time": 28.8818182,
                "end_time": 28.9318182,
                "pitch": 43,
                "velocity": 127,
                "duration": 0.05,
                "tempo": 120.0
            },
            {
                "start_time": 28.9318182,
                "end_time": 28.9840909,
                "pitch": 41,
                "velocity": 127,
                "duration": 0.0522727,
                "tempo": 120.0
            },
            {
                "start_time": 28.9840909,
                "end_time": 29.0159091,
                "pitch": 38,
                "velocity": 127,
                "duration": 0.0318182,
                "tempo": 120.0
            },
            {
                "start_time": 29.0159091,
                "end_time": 29.0659091,
                "pitch": 53,
                "velocity": 127,
                "duration": 0.05,
                "tempo": 120.0
            },
            {
                "start_time": 29.0659091,
                "end_time": 29.1159091,
                "pitch": 50,
                "velocity": 127,
                "duration": 0.05,
                "tempo": 120.0
            },
            {
                "start_time": 29.1159091,
                "end_time": 29.15,
                "pitch": 48,
                "velocity": 127,
                "duration": 0.0340909,
                "tempo": 120.0
            },
            {
                "start_time": 29.15,
                "end_time": 29.1840909,
                "pitch": 45,
                "velocity": 127,
                "duration": 0.0340909,
                "tempo": 120.0
            },
            {
                "start_time": 29.1840909,
                "end_time": 29.2159091,
                "pitch": 43,
                "velocity": 127,
                "duration": 0.0318182,
                "tempo": 120.0
            },
            {
                "start_time": 29.2159091,
                "end_time": 29.25,
                "pitch": 40,
                "velocity": 127,
                "duration": 0.0340909,
                "tempo": 120.0
            },
            {
                "start_time": 29.25,
                "end_time": 29.2659091,
                "pitch": 36,
                "velocity": 127,
                "duration": 0.0159091,
                "tempo": 120.0
            },
            {
                "start_time": 29.2681818,
                "end_time": 29.3340909,
                "pitch": 47,
                "velocity": 127,
                "duration": 0.0659091,
                "tempo": 120.0
            },
            {
                "start_time": 29.3340909,
                "end_time": 29.3840909,
                "pitch": 45,
                "velocity": 127,
                "duration": 0.05,
                "tempo": 120.0
            },
            {
                "start_time": 28.8818182,
                "end_time": 29.3840909,
                "pitch": 55,
                "velocity": 127,
                "duration": 0.5022727,
                "tempo": 120.0
            },
            {
                "start_time": 29.3840909,
                "end_time": 29.4340909,
                "pitch": 43,
                "velocity": 127,
                "duration": 0.05,
                "tempo": 120.0
            },
            {
                "start_time": 29.4340909,
                "end_time": 29.4840909,
                "pitch": 41,
                "velocity": 127,
                "duration": 0.05,
                "tempo": 120.0
            },
            {
                "start_time": 29.4840909,
                "end_time": 29.5181818,
                "pitch": 38,
                "velocity": 127,
                "duration": 0.0340909,
                "tempo": 120.0
            },
            {
                "start_time": 29.5181818,
                "end_time": 29.5681818,
                "pitch": 53,
                "velocity": 127,
                "duration": 0.05,
                "tempo": 120.0
            },
            {
                "start_time": 29.5681818,
                "end_time": 29.6181818,
                "pitch": 50,
                "velocity": 127,
                "duration": 0.05,
                "tempo": 120.0
            },
            {
                "start_time": 29.6181818,
                "end_time": 29.65,
                "pitch": 48,
                "velocity": 127,
                "duration": 0.0318182,
                "tempo": 120.0
            },
            {
                "start_time": 29.65,
                "end_time": 29.6840909,
                "pitch": 45,
                "velocity": 127,
                "duration": 0.0340909,
                "tempo": 120.0
            },
            {
                "start_time": 29.6840909,
                "end_time": 29.7181818,
                "pitch": 43,
                "velocity": 127,
                "duration": 0.0340909,
                "tempo": 120.0
            },
            {
                "start_time": 29.7181818,
                "end_time": 29.75,
                "pitch": 40,
                "velocity": 127,
                "duration": 0.0318182,
                "tempo": 120.0
            },
            {
                "start_time": 29.75,
                "end_time": 29.7681818,
                "pitch": 36,
                "velocity": 127,
                "duration": 0.0181818,
                "tempo": 120.0
            },
            {
                "start_time": 29.7681818,
                "end_time": 29.8340909,
                "pitch": 47,
                "velocity": 127,
                "duration": 0.0659091,
                "tempo": 120.0
            },
            {
                "start_time": 29.8340909,
                "end_time": 29.8840909,
                "pitch": 45,
                "velocity": 127,
                "duration": 0.05,
                "tempo": 120.0
            },
            {
                "start_time": 29.3840909,
                "end_time": 29.8840909,
                "pitch": 55,
                "velocity": 127,
                "duration": 0.5,
                "tempo": 120.0
            },
            {
                "start_time": 29.8840909,
                "end_time": 29.9340909,
                "pitch": 43,
                "velocity": 127,
                "duration": 0.05,
                "tempo": 120.0
            },
            {
                "start_time": 29.9340909,
                "end_time": 29.9840909,
                "pitch": 41,
                "velocity": 127,
                "duration": 0.05,
                "tempo": 120.0
            },
            {
                "start_time": 29.9840909,
                "end_time": 30.0181818,
                "pitch": 38,
                "velocity": 127,
                "duration": 0.0340909,
                "tempo": 120.0
            },
            {
                "start_time": 30.0181818,
                "end_time": 30.0681818,
                "pitch": 53,
                "velocity": 127,
                "duration": 0.05,
                "tempo": 120.0
            },
            {
                "start_time": 30.0681818,
                "end_time": 30.1181818,
                "pitch": 50,
                "velocity": 127,
                "duration": 0.05,
                "tempo": 120.0
            },
            {
                "start_time": 30.1181818,
                "end_time": 30.1522727,
                "pitch": 48,
                "velocity": 127,
                "duration": 0.0340909,
                "tempo": 120.0
            },
            {
                "start_time": 30.1522727,
                "end_time": 30.1840909,
                "pitch": 45,
                "velocity": 127,
                "duration": 0.0318182,
                "tempo": 120.0
            },
            {
                "start_time": 30.1840909,
                "end_time": 30.2181818,
                "pitch": 43,
                "velocity": 127,
                "duration": 0.0340909,
                "tempo": 120.0
            },
            {
                "start_time": 30.2181818,
                "end_time": 30.2522727,
                "pitch": 40,
                "velocity": 127,
                "duration": 0.0340909,
                "tempo": 120.0
            },
            {
                "start_time": 30.2522727,
                "end_time": 30.2681818,
                "pitch": 36,
                "velocity": 127,
                "duration": 0.0159091,
                "tempo": 120.0
            },
            {
                "start_time": 30.2681818,
                "end_time": 30.3340909,
                "pitch": 47,
                "velocity": 127,
                "duration": 0.0659091,
                "tempo": 120.0
            },
            {
                "start_time": 30.3340909,
                "end_time": 30.3840909,
                "pitch": 45,
                "velocity": 127,
                "duration": 0.05,
                "tempo": 120.0
            },
            {
                "start_time": 29.8840909,
                "end_time": 30.3840909,
                "pitch": 55,
                "velocity": 127,
                "duration": 0.5,
                "tempo": 120.0
            },
            {
                "start_time": 30.3840909,
                "end_time": 30.4340909,
                "pitch": 43,
                "velocity": 127,
                "duration": 0.05,
                "tempo": 120.0
            },
            {
                "start_time": 30.4340909,
                "end_time": 30.4840909,
                "pitch": 41,
                "velocity": 127,
                "duration": 0.05,
                "tempo": 120.0
            },
            {
                "start_time": 30.4840909,
                "end_time": 30.5181818,
                "pitch": 38,
                "velocity": 127,
                "duration": 0.0340909,
                "tempo": 120.0
            },
            {
                "start_time": 30.5181818,
                "end_time": 30.5681818,
                "pitch": 53,
                "velocity": 127,
                "duration": 0.05,
                "tempo": 120.0
            },
            {
                "start_time": 30.5681818,
                "end_time": 30.6181818,
                "pitch": 50,
                "velocity": 127,
                "duration": 0.05,
                "tempo": 120.0
            },
            {
                "start_time": 30.6181818,
                "end_time": 30.6522727,
                "pitch": 48,
                "velocity": 127,
                "duration": 0.0340909,
                "tempo": 120.0
            },
            {
                "start_time": 30.6522727,
                "end_time": 30.6840909,
                "pitch": 45,
                "velocity": 127,
                "duration": 0.0318182,
                "tempo": 120.0
            },
            {
                "start_time": 30.6840909,
                "end_time": 30.7181818,
                "pitch": 43,
                "velocity": 127,
                "duration": 0.0340909,
                "tempo": 120.0
            },
            {
                "start_time": 30.7181818,
                "end_time": 30.7522727,
                "pitch": 40,
                "velocity": 127,
                "duration": 0.0340909,
                "tempo": 120.0
            },
            {
                "start_time": 30.7522727,
                "end_time": 30.7681818,
                "pitch": 36,
                "velocity": 127,
                "duration": 0.0159091,
                "tempo": 120.0
            },
            {
                "start_time": 30.7681818,
                "end_time": 30.8363636,
                "pitch": 47,
                "velocity": 127,
                "duration": 0.0681818,
                "tempo": 120.0
            },
            {
                "start_time": 30.8363636,
                "end_time": 30.8863636,
                "pitch": 45,
                "velocity": 127,
                "duration": 0.05,
                "tempo": 120.0
            },
            {
                "start_time": 30.3840909,
                "end_time": 30.8863636,
                "pitch": 55,
                "velocity": 127,
                "duration": 0.5022727,
                "tempo": 120.0
            },
            {
                "start_time": 30.8863636,
                "end_time": 30.9363636,
                "pitch": 43,
                "velocity": 127,
                "duration": 0.05,
                "tempo": 120.0
            },
            {
                "start_time": 30.9363636,
                "end_time": 30.9863636,
                "pitch": 41,
                "velocity": 127,
                "duration": 0.05,
                "tempo": 120.0
            },
            {
                "start_time": 30.9863636,
                "end_time": 31.0181818,
                "pitch": 38,
                "velocity": 127,
                "duration": 0.0318182,
                "tempo": 120.0
            },
            {
                "start_time": 31.0204545,
                "end_time": 31.0681818,
                "pitch": 53,
                "velocity": 127,
                "duration": 0.0477273,
                "tempo": 120.0
            },
            {
                "start_time": 31.0681818,
                "end_time": 31.1181818,
                "pitch": 50,
                "velocity": 127,
                "duration": 0.05,
                "tempo": 120.0
            },
            {
                "start_time": 31.1181818,
                "end_time": 31.1522727,
                "pitch": 48,
                "velocity": 127,
                "duration": 0.0340909,
                "tempo": 120.0
            },
            {
                "start_time": 31.1522727,
                "end_time": 31.1863636,
                "pitch": 45,
                "velocity": 127,
                "duration": 0.0340909,
                "tempo": 120.0
            },
            {
                "start_time": 31.1863636,
                "end_time": 31.2181818,
                "pitch": 43,
                "velocity": 127,
                "duration": 0.0318182,
                "tempo": 120.0
            },
            {
                "start_time": 31.2181818,
                "end_time": 31.2522727,
                "pitch": 40,
                "velocity": 127,
                "duration": 0.0340909,
                "tempo": 120.0
            },
            {
                "start_time": 31.2522727,
                "end_time": 31.2704545,
                "pitch": 36,
                "velocity": 127,
                "duration": 0.0181818,
                "tempo": 120.0
            },
            {
                "start_time": 31.2704545,
                "end_time": 31.3363636,
                "pitch": 47,
                "velocity": 127,
                "duration": 0.0659091,
                "tempo": 120.0
            },
            {
                "start_time": 31.3363636,
                "end_time": 31.3863636,
                "pitch": 45,
                "velocity": 127,
                "duration": 0.05,
                "tempo": 120.0
            },
            {
                "start_time": 30.8863636,
                "end_time": 31.3863636,
                "pitch": 55,
                "velocity": 127,
                "duration": 0.5,
                "tempo": 120.0
            },
            {
                "start_time": 31.3863636,
                "end_time": 31.4363636,
                "pitch": 43,
                "velocity": 127,
                "duration": 0.05,
                "tempo": 120.0
            },
            {
                "start_time": 31.4363636,
                "end_time": 31.4863636,
                "pitch": 41,
                "velocity": 127,
                "duration": 0.05,
                "tempo": 120.0
            },
            {
                "start_time": 31.4863636,
                "end_time": 31.5204545,
                "pitch": 38,
                "velocity": 127,
                "duration": 0.0340909,
                "tempo": 120.0
            },
            {
                "start_time": 31.5204545,
                "end_time": 31.5704545,
                "pitch": 53,
                "velocity": 127,
                "duration": 0.05,
                "tempo": 120.0
            },
            {
                "start_time": 31.5704545,
                "end_time": 31.6204545,
                "pitch": 50,
                "velocity": 127,
                "duration": 0.05,
                "tempo": 120.0
            },
            {
                "start_time": 31.6204545,
                "end_time": 31.6522727,
                "pitch": 48,
                "velocity": 127,
                "duration": 0.0318182,
                "tempo": 120.0
            },
            {
                "start_time": 31.6522727,
                "end_time": 31.6863636,
                "pitch": 45,
                "velocity": 127,
                "duration": 0.0340909,
                "tempo": 120.0
            },
            {
                "start_time": 31.6863636,
                "end_time": 31.7204545,
                "pitch": 43,
                "velocity": 127,
                "duration": 0.0340909,
                "tempo": 120.0
            },
            {
                "start_time": 31.7204545,
                "end_time": 31.7522727,
                "pitch": 40,
                "velocity": 127,
                "duration": 0.0318182,
                "tempo": 120.0
            },
            {
                "start_time": 31.7522727,
                "end_time": 31.7704545,
                "pitch": 36,
                "velocity": 127,
                "duration": 0.0181818,
                "tempo": 120.0
            },
            {
                "start_time": 31.7704545,
                "end_time": 31.8363636,
                "pitch": 47,
                "velocity": 127,
                "duration": 0.0659091,
                "tempo": 120.0
            },
            {
                "start_time": 31.8363636,
                "end_time": 31.8863636,
                "pitch": 45,
                "velocity": 127,
                "duration": 0.05,
                "tempo": 120.0
            },
            {
                "start_time": 31.3863636,
                "end_time": 31.8863636,
                "pitch": 55,
                "velocity": 127,
                "duration": 0.5,
                "tempo": 120.0
            },
            {
                "start_time": 31.8863636,
                "end_time": 31.9363636,
                "pitch": 43,
                "velocity": 127,
                "duration": 0.05,
                "tempo": 120.0
            },
            {
                "start_time": 31.9363636,
                "end_time": 31.9863636,
                "pitch": 41,
                "velocity": 127,
                "duration": 0.05,
                "tempo": 120.0
            },
            {
                "start_time": 31.9863636,
                "end_time": 32.0204545,
                "pitch": 38,
                "velocity": 127,
                "duration": 0.0340909,
                "tempo": 120.0
            },
            {
                "start_time": 32.0204545,
                "end_time": 32.0704545,
                "pitch": 53,
                "velocity": 127,
                "duration": 0.05,
                "tempo": 120.0
            },
            {
                "start_time": 32.0704545,
                "end_time": 32.1204545,
                "pitch": 50,
                "velocity": 127,
                "duration": 0.05,
                "tempo": 120.0
            },
            {
                "start_time": 32.1204545,
                "end_time": 32.1545455,
                "pitch": 48,
                "velocity": 127,
                "duration": 0.0340909,
                "tempo": 120.0
            },
            {
                "start_time": 32.1545455,
                "end_time": 32.1863636,
                "pitch": 45,
                "velocity": 127,
                "duration": 0.0318182,
                "tempo": 120.0
            },
            {
                "start_time": 32.1863636,
                "end_time": 32.2204545,
                "pitch": 43,
                "velocity": 127,
                "duration": 0.0340909,
                "tempo": 120.0
            },
            {
                "start_time": 32.2204545,
                "end_time": 32.2545455,
                "pitch": 40,
                "velocity": 127,
                "duration": 0.0340909,
                "tempo": 120.0
            },
            {
                "start_time": 32.2545455,
                "end_time": 32.2704545,
                "pitch": 36,
                "velocity": 127,
                "duration": 0.0159091,
                "tempo": 120.0
            },
            {
                "start_time": 32.2704545,
                "end_time": 32.3386364,
                "pitch": 47,
                "velocity": 127,
                "duration": 0.0681818,
                "tempo": 120.0
            },
            {
                "start_time": 32.3386364,
                "end_time": 32.3886364,
                "pitch": 45,
                "velocity": 127,
                "duration": 0.05,
                "tempo": 120.0
            },
            {
                "start_time": 31.8863636,
                "end_time": 32.3886364,
                "pitch": 55,
                "velocity": 127,
                "duration": 0.5022727,
                "tempo": 120.0
            },
            {
                "start_time": 32.3886364,
                "end_time": 32.4386364,
                "pitch": 43,
                "velocity": 127,
                "duration": 0.05,
                "tempo": 120.0
            },
            {
                "start_time": 32.4386364,
                "end_time": 32.4886364,
                "pitch": 41,
                "velocity": 127,
                "duration": 0.05,
                "tempo": 120.0
            },
            {
                "start_time": 32.4886364,
                "end_time": 32.5227273,
                "pitch": 38,
                "velocity": 127,
                "duration": 0.0340909,
                "tempo": 120.0
            },
            {
                "start_time": 32.5227273,
                "end_time": 32.5727273,
                "pitch": 53,
                "velocity": 127,
                "duration": 0.05,
                "tempo": 120.0
            },
            {
                "start_time": 32.5727273,
                "end_time": 32.625,
                "pitch": 50,
                "velocity": 127,
                "duration": 0.0522727,
                "tempo": 120.0
            },
            {
                "start_time": 32.625,
                "end_time": 32.6568182,
                "pitch": 48,
                "velocity": 127,
                "duration": 0.0318182,
                "tempo": 120.0
            },
            {
                "start_time": 32.6568182,
                "end_time": 32.6909091,
                "pitch": 45,
                "velocity": 127,
                "duration": 0.0340909,
                "tempo": 120.0
            },
            {
                "start_time": 32.6909091,
                "end_time": 32.725,
                "pitch": 43,
                "velocity": 127,
                "duration": 0.0340909,
                "tempo": 120.0
            },
            {
                "start_time": 32.725,
                "end_time": 32.7590909,
                "pitch": 40,
                "velocity": 127,
                "duration": 0.0340909,
                "tempo": 120.0
            },
            {
                "start_time": 32.7590909,
                "end_time": 32.775,
                "pitch": 36,
                "velocity": 127,
                "duration": 0.0159091,
                "tempo": 120.0
            },
            {
                "start_time": 32.775,
                "end_time": 32.8431818,
                "pitch": 47,
                "velocity": 127,
                "duration": 0.0681818,
                "tempo": 120.0
            },
            {
                "start_time": 32.8431818,
                "end_time": 32.8931818,
                "pitch": 45,
                "velocity": 127,
                "duration": 0.05,
                "tempo": 120.0
            },
            {
                "start_time": 32.3886364,
                "end_time": 32.8931818,
                "pitch": 55,
                "velocity": 127,
                "duration": 0.5045455,
                "tempo": 120.0
            },
            {
                "start_time": 32.8931818,
                "end_time": 32.9431818,
                "pitch": 43,
                "velocity": 127,
                "duration": 0.05,
                "tempo": 120.0
            },
            {
                "start_time": 32.9431818,
                "end_time": 32.9931818,
                "pitch": 41,
                "velocity": 127,
                "duration": 0.05,
                "tempo": 120.0
            },
            {
                "start_time": 32.9931818,
                "end_time": 33.025,
                "pitch": 38,
                "velocity": 127,
                "duration": 0.0318182,
                "tempo": 120.0
            },
            {
                "start_time": 33.0272727,
                "end_time": 33.075,
                "pitch": 53,
                "velocity": 127,
                "duration": 0.0477273,
                "tempo": 120.0
            },
            {
                "start_time": 33.075,
                "end_time": 33.125,
                "pitch": 50,
                "velocity": 127,
                "duration": 0.05,
                "tempo": 120.0
            },
            {
                "start_time": 33.125,
                "end_time": 33.1590909,
                "pitch": 48,
                "velocity": 127,
                "duration": 0.0340909,
                "tempo": 120.0
            },
            {
                "start_time": 33.1590909,
                "end_time": 33.1931818,
                "pitch": 45,
                "velocity": 127,
                "duration": 0.0340909,
                "tempo": 120.0
            },
            {
                "start_time": 33.1931818,
                "end_time": 33.225,
                "pitch": 43,
                "velocity": 127,
                "duration": 0.0318182,
                "tempo": 120.0
            },
            {
                "start_time": 33.225,
                "end_time": 33.2590909,
                "pitch": 40,
                "velocity": 127,
                "duration": 0.0340909,
                "tempo": 120.0
            },
            {
                "start_time": 33.2590909,
                "end_time": 33.2772727,
                "pitch": 36,
                "velocity": 127,
                "duration": 0.0181818,
                "tempo": 120.0
            },
            {
                "start_time": 33.2772727,
                "end_time": 33.3431818,
                "pitch": 47,
                "velocity": 127,
                "duration": 0.0659091,
                "tempo": 120.0
            },
            {
                "start_time": 33.3431818,
                "end_time": 33.3931818,
                "pitch": 45,
                "velocity": 127,
                "duration": 0.05,
                "tempo": 120.0
            },
            {
                "start_time": 32.8931818,
                "end_time": 33.3931818,
                "pitch": 55,
                "velocity": 127,
                "duration": 0.5,
                "tempo": 120.0
            },
            {
                "start_time": 33.3931818,
                "end_time": 33.4431818,
                "pitch": 43,
                "velocity": 127,
                "duration": 0.05,
                "tempo": 120.0
            },
            {
                "start_time": 33.4431818,
                "end_time": 33.4931818,
                "pitch": 41,
                "velocity": 127,
                "duration": 0.05,
                "tempo": 120.0
            },
            {
                "start_time": 33.4931818,
                "end_time": 33.5272727,
                "pitch": 38,
                "velocity": 127,
                "duration": 0.0340909,
                "tempo": 120.0
            },
            {
                "start_time": 33.5272727,
                "end_time": 33.5772727,
                "pitch": 53,
                "velocity": 127,
                "duration": 0.05,
                "tempo": 120.0
            },
            {
                "start_time": 33.5772727,
                "end_time": 33.6272727,
                "pitch": 50,
                "velocity": 127,
                "duration": 0.05,
                "tempo": 120.0
            },
            {
                "start_time": 33.6272727,
                "end_time": 33.6590909,
                "pitch": 48,
                "velocity": 127,
                "duration": 0.0318182,
                "tempo": 120.0
            },
            {
                "start_time": 33.6590909,
                "end_time": 33.6931818,
                "pitch": 45,
                "velocity": 127,
                "duration": 0.0340909,
                "tempo": 120.0
            },
            {
                "start_time": 33.6931818,
                "end_time": 33.7272727,
                "pitch": 43,
                "velocity": 127,
                "duration": 0.0340909,
                "tempo": 120.0
            },
            {
                "start_time": 33.7272727,
                "end_time": 33.7590909,
                "pitch": 40,
                "velocity": 127,
                "duration": 0.0318182,
                "tempo": 120.0
            },
            {
                "start_time": 33.7590909,
                "end_time": 33.7772727,
                "pitch": 36,
                "velocity": 127,
                "duration": 0.0181818,
                "tempo": 120.0
            },
            {
                "start_time": 33.7772727,
                "end_time": 33.8431818,
                "pitch": 47,
                "velocity": 127,
                "duration": 0.0659091,
                "tempo": 120.0
            },
            {
                "start_time": 33.8431818,
                "end_time": 33.8931818,
                "pitch": 45,
                "velocity": 127,
                "duration": 0.05,
                "tempo": 120.0
            },
            {
                "start_time": 33.3931818,
                "end_time": 33.8931818,
                "pitch": 55,
                "velocity": 127,
                "duration": 0.5,
                "tempo": 120.0
            },
            {
                "start_time": 33.8931818,
                "end_time": 33.9431818,
                "pitch": 43,
                "velocity": 127,
                "duration": 0.05,
                "tempo": 120.0
            },
            {
                "start_time": 33.9431818,
                "end_time": 33.9931818,
                "pitch": 41,
                "velocity": 127,
                "duration": 0.05,
                "tempo": 120.0
            },
            {
                "start_time": 33.9931818,
                "end_time": 34.0272727,
                "pitch": 38,
                "velocity": 127,
                "duration": 0.0340909,
                "tempo": 120.0
            },
            {
                "start_time": 34.0272727,
                "end_time": 34.0772727,
                "pitch": 53,
                "velocity": 127,
                "duration": 0.05,
                "tempo": 120.0
            },
            {
                "start_time": 34.0772727,
                "end_time": 34.1272727,
                "pitch": 50,
                "velocity": 127,
                "duration": 0.05,
                "tempo": 120.0
            },
            {
                "start_time": 34.1272727,
                "end_time": 34.1613636,
                "pitch": 48,
                "velocity": 127,
                "duration": 0.0340909,
                "tempo": 120.0
            },
            {
                "start_time": 34.1613636,
                "end_time": 34.1931818,
                "pitch": 45,
                "velocity": 127,
                "duration": 0.0318182,
                "tempo": 120.0
            },
            {
                "start_time": 34.1931818,
                "end_time": 34.2272727,
                "pitch": 43,
                "velocity": 127,
                "duration": 0.0340909,
                "tempo": 120.0
            },
            {
                "start_time": 34.2272727,
                "end_time": 34.2613636,
                "pitch": 40,
                "velocity": 127,
                "duration": 0.0340909,
                "tempo": 120.0
            },
            {
                "start_time": 34.2613636,
                "end_time": 34.2772727,
                "pitch": 36,
                "velocity": 127,
                "duration": 0.0159091,
                "tempo": 120.0
            },
            {
                "start_time": 34.2772727,
                "end_time": 34.3431818,
                "pitch": 47,
                "velocity": 127,
                "duration": 0.0659091,
                "tempo": 120.0
            },
            {
                "start_time": 34.3431818,
                "end_time": 34.3931818,
                "pitch": 45,
                "velocity": 127,
                "duration": 0.05,
                "tempo": 120.0
            },
            {
                "start_time": 33.8931818,
                "end_time": 34.3931818,
                "pitch": 55,
                "velocity": 127,
                "duration": 0.5,
                "tempo": 120.0
            },
            {
                "start_time": 34.3931818,
                "end_time": 34.4431818,
                "pitch": 43,
                "velocity": 127,
                "duration": 0.05,
                "tempo": 120.0
            },
            {
                "start_time": 34.4431818,
                "end_time": 34.4931818,
                "pitch": 41,
                "velocity": 127,
                "duration": 0.05,
                "tempo": 120.0
            },
            {
                "start_time": 34.4931818,
                "end_time": 34.5272727,
                "pitch": 38,
                "velocity": 127,
                "duration": 0.0340909,
                "tempo": 120.0
            },
            {
                "start_time": 36.2931818,
                "end_time": 36.3590909,
                "pitch": 47,
                "velocity": 127,
                "duration": 0.0659091,
                "tempo": 120.0
            },
            {
                "start_time": 36.3590909,
                "end_time": 36.4068182,
                "pitch": 45,
                "velocity": 127,
                "duration": 0.0477273,
                "tempo": 120.0
            },
            {
                "start_time": 34.3931818,
                "end_time": 36.4068182,
                "pitch": 55,
                "velocity": 127,
                "duration": 2.0136364,
                "tempo": 120.0
            },
            {
                "start_time": 36.4068182,
                "end_time": 36.4568182,
                "pitch": 43,
                "velocity": 127,
                "duration": 0.05,
                "tempo": 120.0
            },
            {
                "start_time": 36.4568182,
                "end_time": 36.5068182,
                "pitch": 41,
                "velocity": 127,
                "duration": 0.05,
                "tempo": 120.0
            },
            {
                "start_time": 36.5068182,
                "end_time": 36.5386364,
                "pitch": 38,
                "velocity": 127,
                "duration": 0.0318182,
                "tempo": 120.0
            },
            {
                "start_time": 36.5386364,
                "end_time": 36.5886364,
                "pitch": 53,
                "velocity": 127,
                "duration": 0.05,
                "tempo": 120.0
            },
            {
                "start_time": 36.5886364,
                "end_time": 36.6363636,
                "pitch": 50,
                "velocity": 127,
                "duration": 0.0477273,
                "tempo": 120.0
            },
            {
                "start_time": 36.6363636,
                "end_time": 36.6704545,
                "pitch": 48,
                "velocity": 127,
                "duration": 0.0340909,
                "tempo": 120.0
            },
            {
                "start_time": 36.6704545,
                "end_time": 36.7022727,
                "pitch": 45,
                "velocity": 127,
                "duration": 0.0318182,
                "tempo": 120.0
            },
            {
                "start_time": 36.7022727,
                "end_time": 36.7363636,
                "pitch": 43,
                "velocity": 127,
                "duration": 0.0340909,
                "tempo": 120.0
            },
            {
                "start_time": 36.7363636,
                "end_time": 36.7681818,
                "pitch": 40,
                "velocity": 127,
                "duration": 0.0318182,
                "tempo": 120.0
            },
            {
                "start_time": 36.7681818,
                "end_time": 36.7840909,
                "pitch": 36,
                "velocity": 127,
                "duration": 0.0159091,
                "tempo": 120.0
            },
            {
                "start_time": 36.7863636,
                "end_time": 36.8522727,
                "pitch": 47,
                "velocity": 127,
                "duration": 0.0659091,
                "tempo": 120.0
            },
            {
                "start_time": 36.8522727,
                "end_time": 36.9045455,
                "pitch": 45,
                "velocity": 127,
                "duration": 0.0522727,
                "tempo": 120.0
            },
            {
                "start_time": 36.4068182,
                "end_time": 36.9045455,
                "pitch": 55,
                "velocity": 127,
                "duration": 0.4977273,
                "tempo": 120.0
            },
            {
                "start_time": 36.9045455,
                "end_time": 36.9568182,
                "pitch": 43,
                "velocity": 127,
                "duration": 0.0522727,
                "tempo": 120.0
            },
            {
                "start_time": 36.9568182,
                "end_time": 37.0068182,
                "pitch": 41,
                "velocity": 127,
                "duration": 0.05,
                "tempo": 120.0
            },
            {
                "start_time": 37.0068182,
                "end_time": 37.0409091,
                "pitch": 38,
                "velocity": 127,
                "duration": 0.0340909,
                "tempo": 120.0
            },
            {
                "start_time": 37.0409091,
                "end_time": 37.0931818,
                "pitch": 53,
                "velocity": 127,
                "duration": 0.0522727,
                "tempo": 120.0
            },
            {
                "start_time": 37.0931818,
                "end_time": 37.1431818,
                "pitch": 50,
                "velocity": 127,
                "duration": 0.05,
                "tempo": 120.0
            },
            {
                "start_time": 37.1431818,
                "end_time": 37.1772727,
                "pitch": 48,
                "velocity": 127,
                "duration": 0.0340909,
                "tempo": 120.0
            },
            {
                "start_time": 37.1772727,
                "end_time": 37.2113636,
                "pitch": 45,
                "velocity": 127,
                "duration": 0.0340909,
                "tempo": 120.0
            },
            {
                "start_time": 37.2113636,
                "end_time": 37.2477273,
                "pitch": 43,
                "velocity": 127,
                "duration": 0.0363636,
                "tempo": 120.0
            },
            {
                "start_time": 37.2477273,
                "end_time": 37.2818182,
                "pitch": 40,
                "velocity": 127,
                "duration": 0.0340909,
                "tempo": 120.0
            },
            {
                "start_time": 37.2818182,
                "end_time": 37.2977273,
                "pitch": 36,
                "velocity": 127,
                "duration": 0.0159091,
                "tempo": 120.0
            },
            {
                "start_time": 37.3,
                "end_time": 37.3659091,
                "pitch": 59,
                "velocity": 127,
                "duration": 0.0659091,
                "tempo": 120.0
            },
            {
                "start_time": 37.3659091,
                "end_time": 37.3818182,
                "pitch": 57,
                "velocity": 127,
                "duration": 0.0159091,
                "tempo": 120.0
            },
            {
                "start_time": 37.3818182,
                "end_time": 37.4477273,
                "pitch": 57,
                "velocity": 127,
                "duration": 0.0659091,
                "tempo": 120.0
            },
            {
                "start_time": 25.5318182,
                "end_time": 37.4477273,
                "pitch": 67,
                "velocity": 127,
                "duration": 11.9159091,
                "tempo": 120.0
            },
            {
                "start_time": 37.4477273,
                "end_time": 37.4659091,
                "pitch": 54,
                "velocity": 127,
                "duration": 0.0181818,
                "tempo": 120.0
            },
            {
                "start_time": 36.9045455,
                "end_time": 37.4818182,
                "pitch": 55,
                "velocity": 127,
                "duration": 0.5772727,
                "tempo": 120.0
            },
            {
                "start_time": 37.4659091,
                "end_time": 37.4818182,
                "pitch": 55,
                "velocity": 127,
                "duration": 0.0159091,
                "tempo": 120.0
            },
            {
                "start_time": 37.4477273,
                "end_time": 37.4818182,
                "pitch": 67,
                "velocity": 127,
                "duration": 0.0340909,
                "tempo": 120.0
            },
            {
                "start_time": 37.4818182,
                "end_time": 37.5318182,
                "pitch": 54,
                "velocity": 127,
                "duration": 0.05,
                "tempo": 120.0
            },
            {
                "start_time": 37.5318182,
                "end_time": 37.5477273,
                "pitch": 52,
                "velocity": 127,
                "duration": 0.0159091,
                "tempo": 120.0
            },
            {
                "start_time": 37.55,
                "end_time": 37.5977273,
                "pitch": 53,
                "velocity": 127,
                "duration": 0.0477273,
                "tempo": 120.0
            },
            {
                "start_time": 37.5977273,
                "end_time": 37.6318182,
                "pitch": 50,
                "velocity": 127,
                "duration": 0.0340909,
                "tempo": 120.0
            },
            {
                "start_time": 37.6318182,
                "end_time": 37.6818182,
                "pitch": 52,
                "velocity": 127,
                "duration": 0.05,
                "tempo": 120.0
            },
            {
                "start_time": 37.6818182,
                "end_time": 37.7159091,
                "pitch": 49,
                "velocity": 127,
                "duration": 0.0340909,
                "tempo": 120.0
            },
            {
                "start_time": 37.7159091,
                "end_time": 37.7659091,
                "pitch": 50,
                "velocity": 127,
                "duration": 0.05,
                "tempo": 120.0
            },
            {
                "start_time": 37.7659091,
                "end_time": 37.8,
                "pitch": 47,
                "velocity": 127,
                "duration": 0.0340909,
                "tempo": 120.0
            },
            {
                "start_time": 37.8,
                "end_time": 37.85,
                "pitch": 50,
                "velocity": 127,
                "duration": 0.05,
                "tempo": 120.0
            },
            {
                "start_time": 37.85,
                "end_time": 37.8818182,
                "pitch": 47,
                "velocity": 127,
                "duration": 0.0318182,
                "tempo": 120.0
            },
            {
                "start_time": 37.8818182,
                "end_time": 37.9318182,
                "pitch": 50,
                "velocity": 127,
                "duration": 0.05,
                "tempo": 120.0
            },
            {
                "start_time": 37.9318182,
                "end_time": 37.9659091,
                "pitch": 47,
                "velocity": 127,
                "duration": 0.0340909,
                "tempo": 120.0
            },
            {
                "start_time": 37.9659091,
                "end_time": 38.0159091,
                "pitch": 50,
                "velocity": 127,
                "duration": 0.05,
                "tempo": 120.0
            },
            {
                "start_time": 38.0159091,
                "end_time": 38.05,
                "pitch": 47,
                "velocity": 127,
                "duration": 0.0340909,
                "tempo": 120.0
            },
            {
                "start_time": 38.05,
                "end_time": 38.1,
                "pitch": 50,
                "velocity": 127,
                "duration": 0.05,
                "tempo": 120.0
            },
            {
                "start_time": 38.1,
                "end_time": 38.1318182,
                "pitch": 47,
                "velocity": 127,
                "duration": 0.0318182,
                "tempo": 120.0
            },
            {
                "start_time": 38.1340909,
                "end_time": 38.1818182,
                "pitch": 50,
                "velocity": 127,
                "duration": 0.0477273,
                "tempo": 120.0
            },
            {
                "start_time": 38.1818182,
                "end_time": 38.2159091,
                "pitch": 47,
                "velocity": 127,
                "duration": 0.0340909,
                "tempo": 120.0
            },
            {
                "start_time": 38.2159091,
                "end_time": 38.2659091,
                "pitch": 50,
                "velocity": 127,
                "duration": 0.05,
                "tempo": 120.0
            },
            {
                "start_time": 38.2659091,
                "end_time": 38.3,
                "pitch": 47,
                "velocity": 127,
                "duration": 0.0340909,
                "tempo": 120.0
            },
            {
                "start_time": 38.3,
                "end_time": 38.3659091,
                "pitch": 47,
                "velocity": 127,
                "duration": 0.0659091,
                "tempo": 120.0
            },
            {
                "start_time": 38.3659091,
                "end_time": 38.4159091,
                "pitch": 45,
                "velocity": 127,
                "duration": 0.05,
                "tempo": 120.0
            },
            {
                "start_time": 38.4159091,
                "end_time": 38.4659091,
                "pitch": 43,
                "velocity": 127,
                "duration": 0.05,
                "tempo": 120.0
            },
            {
                "start_time": 38.4659091,
                "end_time": 38.5159091,
                "pitch": 41,
                "velocity": 127,
                "duration": 0.05,
                "tempo": 120.0
            },
            {
                "start_time": 38.5159091,
                "end_time": 38.55,
                "pitch": 38,
                "velocity": 127,
                "duration": 0.0340909,
                "tempo": 120.0
            },
            {
                "start_time": 38.55,
                "end_time": 38.6,
                "pitch": 53,
                "velocity": 127,
                "duration": 0.05,
                "tempo": 120.0
            },
            {
                "start_time": 38.6,
                "end_time": 38.65,
                "pitch": 50,
                "velocity": 127,
                "duration": 0.05,
                "tempo": 120.0
            },
            {
                "start_time": 38.65,
                "end_time": 38.6840909,
                "pitch": 48,
                "velocity": 127,
                "duration": 0.0340909,
                "tempo": 120.0
            },
            {
                "start_time": 38.6840909,
                "end_time": 38.7159091,
                "pitch": 45,
                "velocity": 127,
                "duration": 0.0318182,
                "tempo": 120.0
            },
            {
                "start_time": 38.7159091,
                "end_time": 38.75,
                "pitch": 43,
                "velocity": 127,
                "duration": 0.0340909,
                "tempo": 120.0
            },
            {
                "start_time": 38.75,
                "end_time": 38.7840909,
                "pitch": 40,
                "velocity": 127,
                "duration": 0.0340909,
                "tempo": 120.0
            },
            {
                "start_time": 38.7840909,
                "end_time": 38.8,
                "pitch": 36,
                "velocity": 127,
                "duration": 0.0159091,
                "tempo": 120.0
            },
            {
                "start_time": 38.8,
                "end_time": 38.8659091,
                "pitch": 47,
                "velocity": 127,
                "duration": 0.0659091,
                "tempo": 120.0
            },
            {
                "start_time": 38.8659091,
                "end_time": 38.9159091,
                "pitch": 45,
                "velocity": 127,
                "duration": 0.05,
                "tempo": 120.0
            },
            {
                "start_time": 38.4159091,
                "end_time": 38.9181818,
                "pitch": 55,
                "velocity": 127,
                "duration": 0.5022727,
                "tempo": 120.0
            },
            {
                "start_time": 38.9159091,
                "end_time": 38.9181818,
                "pitch": 55,
                "velocity": 127,
                "duration": 0.0022727,
                "tempo": 120.0
            },
            {
                "start_time": 38.9181818,
                "end_time": 38.9681818,
                "pitch": 43,
                "velocity": 127,
                "duration": 0.05,
                "tempo": 120.0
            },
            {
                "start_time": 38.9681818,
                "end_time": 39.0181818,
                "pitch": 41,
                "velocity": 127,
                "duration": 0.05,
                "tempo": 120.0
            },
            {
                "start_time": 39.0181818,
                "end_time": 39.05,
                "pitch": 38,
                "velocity": 127,
                "duration": 0.0318182,
                "tempo": 120.0
            },
            {
                "start_time": 39.05,
                "end_time": 39.1,
                "pitch": 53,
                "velocity": 127,
                "duration": 0.05,
                "tempo": 120.0
            },
            {
                "start_time": 39.1,
                "end_time": 39.15,
                "pitch": 50,
                "velocity": 127,
                "duration": 0.05,
                "tempo": 120.0
            },
            {
                "start_time": 39.15,
                "end_time": 39.1840909,
                "pitch": 48,
                "velocity": 127,
                "duration": 0.0340909,
                "tempo": 120.0
            },
            {
                "start_time": 39.1840909,
                "end_time": 39.2181818,
                "pitch": 45,
                "velocity": 127,
                "duration": 0.0340909,
                "tempo": 120.0
            },
            {
                "start_time": 39.2181818,
                "end_time": 39.25,
                "pitch": 43,
                "velocity": 127,
                "duration": 0.0318182,
                "tempo": 120.0
            },
            {
                "start_time": 39.25,
                "end_time": 39.2840909,
                "pitch": 40,
                "velocity": 127,
                "duration": 0.0340909,
                "tempo": 120.0
            },
            {
                "start_time": 39.2840909,
                "end_time": 39.3,
                "pitch": 36,
                "velocity": 127,
                "duration": 0.0159091,
                "tempo": 120.0
            },
            {
                "start_time": 39.3022727,
                "end_time": 39.3681818,
                "pitch": 47,
                "velocity": 127,
                "duration": 0.0659091,
                "tempo": 120.0
            },
            {
                "start_time": 39.3681818,
                "end_time": 39.4181818,
                "pitch": 45,
                "velocity": 127,
                "duration": 0.05,
                "tempo": 120.0
            },
            {
                "start_time": 39.4181818,
                "end_time": 39.4681818,
                "pitch": 43,
                "velocity": 127,
                "duration": 0.05,
                "tempo": 120.0
            },
            {
                "start_time": 39.4681818,
                "end_time": 39.5181818,
                "pitch": 41,
                "velocity": 127,
                "duration": 0.05,
                "tempo": 120.0
            },
            {
                "start_time": 39.5181818,
                "end_time": 39.5522727,
                "pitch": 38,
                "velocity": 127,
                "duration": 0.0340909,
                "tempo": 120.0
            },
            {
                "start_time": 39.5522727,
                "end_time": 39.6022727,
                "pitch": 53,
                "velocity": 127,
                "duration": 0.05,
                "tempo": 120.0
            },
            {
                "start_time": 39.6022727,
                "end_time": 39.6522727,
                "pitch": 50,
                "velocity": 127,
                "duration": 0.05,
                "tempo": 120.0
            },
            {
                "start_time": 39.6522727,
                "end_time": 39.6840909,
                "pitch": 48,
                "velocity": 127,
                "duration": 0.0318182,
                "tempo": 120.0
            },
            {
                "start_time": 39.6840909,
                "end_time": 39.7181818,
                "pitch": 45,
                "velocity": 127,
                "duration": 0.0340909,
                "tempo": 120.0
            },
            {
                "start_time": 39.7181818,
                "end_time": 39.7522727,
                "pitch": 43,
                "velocity": 127,
                "duration": 0.0340909,
                "tempo": 120.0
            },
            {
                "start_time": 39.7522727,
                "end_time": 39.7840909,
                "pitch": 40,
                "velocity": 127,
                "duration": 0.0318182,
                "tempo": 120.0
            },
            {
                "start_time": 39.7840909,
                "end_time": 39.8022727,
                "pitch": 36,
                "velocity": 127,
                "duration": 0.0181818,
                "tempo": 120.0
            },
            {
                "start_time": 39.8022727,
                "end_time": 39.8681818,
                "pitch": 47,
                "velocity": 127,
                "duration": 0.0659091,
                "tempo": 120.0
            },
            {
                "start_time": 39.8681818,
                "end_time": 39.9181818,
                "pitch": 45,
                "velocity": 127,
                "duration": 0.05,
                "tempo": 120.0
            },
            {
                "start_time": 39.4181818,
                "end_time": 39.9181818,
                "pitch": 55,
                "velocity": 127,
                "duration": 0.5,
                "tempo": 120.0
            },
            {
                "start_time": 39.9181818,
                "end_time": 39.9681818,
                "pitch": 43,
                "velocity": 127,
                "duration": 0.05,
                "tempo": 120.0
            },
            {
                "start_time": 39.9681818,
                "end_time": 40.0181818,
                "pitch": 41,
                "velocity": 127,
                "duration": 0.05,
                "tempo": 120.0
            },
            {
                "start_time": 40.0181818,
                "end_time": 40.0522727,
                "pitch": 38,
                "velocity": 127,
                "duration": 0.0340909,
                "tempo": 120.0
            },
            {
                "start_time": 40.0522727,
                "end_time": 40.1022727,
                "pitch": 53,
                "velocity": 127,
                "duration": 0.05,
                "tempo": 120.0
            },
            {
                "start_time": 40.1022727,
                "end_time": 40.1522727,
                "pitch": 50,
                "velocity": 127,
                "duration": 0.05,
                "tempo": 120.0
            },
            {
                "start_time": 40.1522727,
                "end_time": 40.1863636,
                "pitch": 48,
                "velocity": 127,
                "duration": 0.0340909,
                "tempo": 120.0
            },
            {
                "start_time": 40.1863636,
                "end_time": 40.2181818,
                "pitch": 45,
                "velocity": 127,
                "duration": 0.0318182,
                "tempo": 120.0
            },
            {
                "start_time": 40.2181818,
                "end_time": 40.2522727,
                "pitch": 43,
                "velocity": 127,
                "duration": 0.0340909,
                "tempo": 120.0
            },
            {
                "start_time": 40.2522727,
                "end_time": 40.2863636,
                "pitch": 40,
                "velocity": 127,
                "duration": 0.0340909,
                "tempo": 120.0
            },
            {
                "start_time": 40.2863636,
                "end_time": 40.3022727,
                "pitch": 36,
                "velocity": 127,
                "duration": 0.0159091,
                "tempo": 120.0
            },
            {
                "start_time": 40.3022727,
                "end_time": 40.3681818,
                "pitch": 47,
                "velocity": 127,
                "duration": 0.0659091,
                "tempo": 120.0
            },
            {
                "start_time": 40.3681818,
                "end_time": 40.4181818,
                "pitch": 45,
                "velocity": 127,
                "duration": 0.05,
                "tempo": 120.0
            },
            {
                "start_time": 39.9181818,
                "end_time": 40.4181818,
                "pitch": 55,
                "velocity": 127,
                "duration": 0.5,
                "tempo": 120.0
            },
            {
                "start_time": 40.4181818,
                "end_time": 40.4681818,
                "pitch": 43,
                "velocity": 127,
                "duration": 0.05,
                "tempo": 120.0
            },
            {
                "start_time": 40.4681818,
                "end_time": 40.5181818,
                "pitch": 41,
                "velocity": 127,
                "duration": 0.05,
                "tempo": 120.0
            },
            {
                "start_time": 40.5181818,
                "end_time": 40.5522727,
                "pitch": 38,
                "velocity": 127,
                "duration": 0.0340909,
                "tempo": 120.0
            },
            {
                "start_time": 40.5522727,
                "end_time": 40.6022727,
                "pitch": 53,
                "velocity": 127,
                "duration": 0.05,
                "tempo": 120.0
            },
            {
                "start_time": 40.6022727,
                "end_time": 40.6522727,
                "pitch": 50,
                "velocity": 127,
                "duration": 0.05,
                "tempo": 120.0
            },
            {
                "start_time": 40.6522727,
                "end_time": 40.6863636,
                "pitch": 48,
                "velocity": 127,
                "duration": 0.0340909,
                "tempo": 120.0
            },
            {
                "start_time": 40.6863636,
                "end_time": 40.7204545,
                "pitch": 45,
                "velocity": 127,
                "duration": 0.0340909,
                "tempo": 120.0
            },
            {
                "start_time": 40.7204545,
                "end_time": 40.7522727,
                "pitch": 43,
                "velocity": 127,
                "duration": 0.0318182,
                "tempo": 120.0
            },
            {
                "start_time": 40.7522727,
                "end_time": 40.7863636,
                "pitch": 40,
                "velocity": 127,
                "duration": 0.0340909,
                "tempo": 120.0
            },
            {
                "start_time": 40.7863636,
                "end_time": 40.8022727,
                "pitch": 36,
                "velocity": 127,
                "duration": 0.0159091,
                "tempo": 120.0
            },
            {
                "start_time": 40.8045455,
                "end_time": 40.8704545,
                "pitch": 47,
                "velocity": 127,
                "duration": 0.0659091,
                "tempo": 120.0
            },
            {
                "start_time": 40.8704545,
                "end_time": 40.9204545,
                "pitch": 45,
                "velocity": 127,
                "duration": 0.05,
                "tempo": 120.0
            },
            {
                "start_time": 40.4181818,
                "end_time": 40.9204545,
                "pitch": 55,
                "velocity": 127,
                "duration": 0.5022727,
                "tempo": 120.0
            },
            {
                "start_time": 40.9204545,
                "end_time": 40.9704545,
                "pitch": 43,
                "velocity": 127,
                "duration": 0.05,
                "tempo": 120.0
            },
            {
                "start_time": 40.9704545,
                "end_time": 41.0204545,
                "pitch": 41,
                "velocity": 127,
                "duration": 0.05,
                "tempo": 120.0
            },
            {
                "start_time": 41.0204545,
                "end_time": 41.0522727,
                "pitch": 38,
                "velocity": 127,
                "duration": 0.0318182,
                "tempo": 120.0
            },
            {
                "start_time": 41.0545455,
                "end_time": 41.1022727,
                "pitch": 53,
                "velocity": 127,
                "duration": 0.0477273,
                "tempo": 120.0
            },
            {
                "start_time": 41.1022727,
                "end_time": 41.1522727,
                "pitch": 50,
                "velocity": 127,
                "duration": 0.05,
                "tempo": 120.0
            },
            {
                "start_time": 41.1522727,
                "end_time": 41.1863636,
                "pitch": 48,
                "velocity": 127,
                "duration": 0.0340909,
                "tempo": 120.0
            },
            {
                "start_time": 41.1863636,
                "end_time": 41.2204545,
                "pitch": 45,
                "velocity": 127,
                "duration": 0.0340909,
                "tempo": 120.0
            },
            {
                "start_time": 41.2204545,
                "end_time": 41.2522727,
                "pitch": 43,
                "velocity": 127,
                "duration": 0.0318182,
                "tempo": 120.0
            },
            {
                "start_time": 41.2522727,
                "end_time": 41.2863636,
                "pitch": 40,
                "velocity": 127,
                "duration": 0.0340909,
                "tempo": 120.0
            },
            {
                "start_time": 41.2863636,
                "end_time": 41.3045455,
                "pitch": 36,
                "velocity": 127,
                "duration": 0.0181818,
                "tempo": 120.0
            },
            {
                "start_time": 41.3045455,
                "end_time": 41.3545455,
                "pitch": 50,
                "velocity": 127,
                "duration": 0.05,
                "tempo": 120.0
            },
            {
                "start_time": 41.3545455,
                "end_time": 41.3863636,
                "pitch": 47,
                "velocity": 127,
                "duration": 0.0318182,
                "tempo": 120.0
            },
            {
                "start_time": 41.3863636,
                "end_time": 41.4204545,
                "pitch": 45,
                "velocity": 127,
                "duration": 0.0340909,
                "tempo": 120.0
            },
            {
                "start_time": 41.4204545,
                "end_time": 41.4545455,
                "pitch": 42,
                "velocity": 127,
                "duration": 0.0340909,
                "tempo": 120.0
            },
            {
                "start_time": 41.4545455,
                "end_time": 41.4863636,
                "pitch": 39,
                "velocity": 127,
                "duration": 0.0318182,
                "tempo": 120.0
            },
            {
                "start_time": 41.4863636,
                "end_time": 41.5045455,
                "pitch": 35,
                "velocity": 127,
                "duration": 0.0181818,
                "tempo": 120.0
            },
            {
                "start_time": 41.5045455,
                "end_time": 41.5204545,
                "pitch": 33,
                "velocity": 127,
                "duration": 0.0159091,
                "tempo": 120.0
            },
            {
                "start_time": 41.5204545,
                "end_time": 41.5363636,
                "pitch": 30,
                "velocity": 127,
                "duration": 0.0159091,
                "tempo": 120.0
            },
            {
                "start_time": 41.5363636,
                "end_time": 41.5545455,
                "pitch": 27,
                "velocity": 127,
                "duration": 0.0181818,
                "tempo": 120.0
            },
            {
                "start_time": 41.5545455,
                "end_time": 41.6045455,
                "pitch": 50,
                "velocity": 127,
                "duration": 0.05,
                "tempo": 120.0
            },
            {
                "start_time": 41.6045455,
                "end_time": 41.6363636,
                "pitch": 47,
                "velocity": 127,
                "duration": 0.0318182,
                "tempo": 120.0
            },
            {
                "start_time": 41.6363636,
                "end_time": 41.6704545,
                "pitch": 45,
                "velocity": 127,
                "duration": 0.0340909,
                "tempo": 120.0
            },
            {
                "start_time": 41.6704545,
                "end_time": 41.7045455,
                "pitch": 42,
                "velocity": 127,
                "duration": 0.0340909,
                "tempo": 120.0
            },
            {
                "start_time": 41.7045455,
                "end_time": 41.7363636,
                "pitch": 39,
                "velocity": 127,
                "duration": 0.0318182,
                "tempo": 120.0
            },
            {
                "start_time": 41.7363636,
                "end_time": 41.7545455,
                "pitch": 35,
                "velocity": 127,
                "duration": 0.0181818,
                "tempo": 120.0
            },
            {
                "start_time": 41.7545455,
                "end_time": 41.7704545,
                "pitch": 33,
                "velocity": 127,
                "duration": 0.0159091,
                "tempo": 120.0
            },
            {
                "start_time": 41.7704545,
                "end_time": 41.7863636,
                "pitch": 30,
                "velocity": 127,
                "duration": 0.0159091,
                "tempo": 120.0
            },
            {
                "start_time": 41.7863636,
                "end_time": 41.8045455,
                "pitch": 27,
                "velocity": 127,
                "duration": 0.0181818,
                "tempo": 120.0
            },
            {
                "start_time": 41.8045455,
                "end_time": 41.8545455,
                "pitch": 50,
                "velocity": 127,
                "duration": 0.05,
                "tempo": 120.0
            },
            {
                "start_time": 41.8545455,
                "end_time": 41.8886364,
                "pitch": 47,
                "velocity": 127,
                "duration": 0.0340909,
                "tempo": 120.0
            },
            {
                "start_time": 41.8886364,
                "end_time": 41.9204545,
                "pitch": 45,
                "velocity": 127,
                "duration": 0.0318182,
                "tempo": 120.0
            },
            {
                "start_time": 41.9204545,
                "end_time": 41.9545455,
                "pitch": 42,
                "velocity": 127,
                "duration": 0.0340909,
                "tempo": 120.0
            },
            {
                "start_time": 41.9545455,
                "end_time": 41.9886364,
                "pitch": 39,
                "velocity": 127,
                "duration": 0.0340909,
                "tempo": 120.0
            },
            {
                "start_time": 41.9886364,
                "end_time": 42.0045455,
                "pitch": 35,
                "velocity": 127,
                "duration": 0.0159091,
                "tempo": 120.0
            },
            {
                "start_time": 42.0045455,
                "end_time": 42.0204545,
                "pitch": 33,
                "velocity": 127,
                "duration": 0.0159091,
                "tempo": 120.0
            },
            {
                "start_time": 42.0204545,
                "end_time": 42.0386364,
                "pitch": 30,
                "velocity": 127,
                "duration": 0.0181818,
                "tempo": 120.0
            },
            {
                "start_time": 42.0386364,
                "end_time": 42.0545455,
                "pitch": 27,
                "velocity": 127,
                "duration": 0.0159091,
                "tempo": 120.0
            },
            {
                "start_time": 42.0545455,
                "end_time": 42.1045455,
                "pitch": 50,
                "velocity": 127,
                "duration": 0.05,
                "tempo": 120.0
            },
            {
                "start_time": 42.1045455,
                "end_time": 42.1386364,
                "pitch": 47,
                "velocity": 127,
                "duration": 0.0340909,
                "tempo": 120.0
            },
            {
                "start_time": 42.1386364,
                "end_time": 42.1704545,
                "pitch": 45,
                "velocity": 127,
                "duration": 0.0318182,
                "tempo": 120.0
            },
            {
                "start_time": 42.1704545,
                "end_time": 42.2045455,
                "pitch": 42,
                "velocity": 127,
                "duration": 0.0340909,
                "tempo": 120.0
            },
            {
                "start_time": 42.2045455,
                "end_time": 42.2386364,
                "pitch": 39,
                "velocity": 127,
                "duration": 0.0340909,
                "tempo": 120.0
            },
            {
                "start_time": 42.2386364,
                "end_time": 42.2545455,
                "pitch": 35,
                "velocity": 127,
                "duration": 0.0159091,
                "tempo": 120.0
            },
            {
                "start_time": 42.2545455,
                "end_time": 42.2704545,
                "pitch": 33,
                "velocity": 127,
                "duration": 0.0159091,
                "tempo": 120.0
            },
            {
                "start_time": 42.2704545,
                "end_time": 42.2886364,
                "pitch": 30,
                "velocity": 127,
                "duration": 0.0181818,
                "tempo": 120.0
            },
            {
                "start_time": 42.2886364,
                "end_time": 42.3045455,
                "pitch": 27,
                "velocity": 127,
                "duration": 0.0159091,
                "tempo": 120.0
            },
            {
                "start_time": 42.3045455,
                "end_time": 42.3704545,
                "pitch": 47,
                "velocity": 127,
                "duration": 0.0659091,
                "tempo": 120.0
            },
            {
                "start_time": 42.3704545,
                "end_time": 42.4204545,
                "pitch": 45,
                "velocity": 127,
                "duration": 0.05,
                "tempo": 120.0
            },
            {
                "start_time": 40.9204545,
                "end_time": 42.4204545,
                "pitch": 55,
                "velocity": 127,
                "duration": 1.5,
                "tempo": 120.0
            },
            {
                "start_time": 42.4204545,
                "end_time": 42.4704545,
                "pitch": 43,
                "velocity": 127,
                "duration": 0.05,
                "tempo": 120.0
            },
            {
                "start_time": 42.4704545,
                "end_time": 42.5227273,
                "pitch": 41,
                "velocity": 127,
                "duration": 0.0522727,
                "tempo": 120.0
            },
            {
                "start_time": 42.5227273,
                "end_time": 42.5545455,
                "pitch": 38,
                "velocity": 127,
                "duration": 0.0318182,
                "tempo": 120.0
            },
            {
                "start_time": 42.5545455,
                "end_time": 42.6045455,
                "pitch": 53,
                "velocity": 127,
                "duration": 0.05,
                "tempo": 120.0
            },
            {
                "start_time": 42.6045455,
                "end_time": 42.6545455,
                "pitch": 50,
                "velocity": 127,
                "duration": 0.05,
                "tempo": 120.0
            },
            {
                "start_time": 42.6545455,
                "end_time": 42.6886364,
                "pitch": 48,
                "velocity": 127,
                "duration": 0.0340909,
                "tempo": 120.0
            },
            {
                "start_time": 42.6886364,
                "end_time": 42.7227273,
                "pitch": 45,
                "velocity": 127,
                "duration": 0.0340909,
                "tempo": 120.0
            },
            {
                "start_time": 42.7227273,
                "end_time": 42.7545455,
                "pitch": 43,
                "velocity": 127,
                "duration": 0.0318182,
                "tempo": 120.0
            },
            {
                "start_time": 42.7545455,
                "end_time": 42.7886364,
                "pitch": 40,
                "velocity": 127,
                "duration": 0.0340909,
                "tempo": 120.0
            },
            {
                "start_time": 42.7886364,
                "end_time": 42.8045455,
                "pitch": 36,
                "velocity": 127,
                "duration": 0.0159091,
                "tempo": 120.0
            },
            {
                "start_time": 42.8068182,
                "end_time": 42.8727273,
                "pitch": 47,
                "velocity": 127,
                "duration": 0.0659091,
                "tempo": 120.0
            },
            {
                "start_time": 42.8727273,
                "end_time": 42.925,
                "pitch": 45,
                "velocity": 127,
                "duration": 0.0522727,
                "tempo": 120.0
            },
            {
                "start_time": 42.4204545,
                "end_time": 42.925,
                "pitch": 55,
                "velocity": 127,
                "duration": 0.5045455,
                "tempo": 120.0
            },
            {
                "start_time": 42.925,
                "end_time": 42.9772727,
                "pitch": 43,
                "velocity": 127,
                "duration": 0.0522727,
                "tempo": 120.0
            },
            {
                "start_time": 42.9772727,
                "end_time": 43.0272727,
                "pitch": 41,
                "velocity": 127,
                "duration": 0.05,
                "tempo": 120.0
            },
            {
                "start_time": 43.0272727,
                "end_time": 43.0613636,
                "pitch": 38,
                "velocity": 127,
                "duration": 0.0340909,
                "tempo": 120.0
            },
            {
                "start_time": 43.0613636,
                "end_time": 43.1136364,
                "pitch": 53,
                "velocity": 127,
                "duration": 0.0522727,
                "tempo": 120.0
            },
            {
                "start_time": 43.1136364,
                "end_time": 43.1636364,
                "pitch": 50,
                "velocity": 127,
                "duration": 0.05,
                "tempo": 120.0
            },
            {
                "start_time": 43.1636364,
                "end_time": 43.1977273,
                "pitch": 48,
                "velocity": 127,
                "duration": 0.0340909,
                "tempo": 120.0
            },
            {
                "start_time": 43.1977273,
                "end_time": 43.2340909,
                "pitch": 45,
                "velocity": 127,
                "duration": 0.0363636,
                "tempo": 120.0
            },
            {
                "start_time": 43.2340909,
                "end_time": 43.2681818,
                "pitch": 43,
                "velocity": 127,
                "duration": 0.0340909,
                "tempo": 120.0
            },
            {
                "start_time": 43.2681818,
                "end_time": 43.3022727,
                "pitch": 40,
                "velocity": 127,
                "duration": 0.0340909,
                "tempo": 120.0
            },
            {
                "start_time": 43.3022727,
                "end_time": 43.3181818,
                "pitch": 36,
                "velocity": 127,
                "duration": 0.0159091,
                "tempo": 120.0
            },
            {
                "start_time": 43.3181818,
                "end_time": 43.3840909,
                "pitch": 47,
                "velocity": 127,
                "duration": 0.0659091,
                "tempo": 120.0
            },
            {
                "start_time": 43.3840909,
                "end_time": 43.4340909,
                "pitch": 45,
                "velocity": 127,
                "duration": 0.05,
                "tempo": 120.0
            },
            {
                "start_time": 42.925,
                "end_time": 43.4340909,
                "pitch": 55,
                "velocity": 127,
                "duration": 0.5090909,
                "tempo": 120.0
            },
            {
                "start_time": 43.4340909,
                "end_time": 43.4818182,
                "pitch": 43,
                "velocity": 127,
                "duration": 0.0477273,
                "tempo": 120.0
            },
            {
                "start_time": 43.4818182,
                "end_time": 43.5318182,
                "pitch": 41,
                "velocity": 127,
                "duration": 0.05,
                "tempo": 120.0
            },
            {
                "start_time": 43.5318182,
                "end_time": 43.5659091,
                "pitch": 38,
                "velocity": 127,
                "duration": 0.0340909,
                "tempo": 120.0
            },
            {
                "start_time": 43.5659091,
                "end_time": 43.6136364,
                "pitch": 53,
                "velocity": 127,
                "duration": 0.0477273,
                "tempo": 120.0
            },
            {
                "start_time": 43.6136364,
                "end_time": 43.6636364,
                "pitch": 50,
                "velocity": 127,
                "duration": 0.05,
                "tempo": 120.0
            },
            {
                "start_time": 43.6636364,
                "end_time": 43.6954545,
                "pitch": 48,
                "velocity": 127,
                "duration": 0.0318182,
                "tempo": 120.0
            },
            {
                "start_time": 43.6954545,
                "end_time": 43.7295455,
                "pitch": 45,
                "velocity": 127,
                "duration": 0.0340909,
                "tempo": 120.0
            },
            {
                "start_time": 43.7295455,
                "end_time": 43.7613636,
                "pitch": 43,
                "velocity": 127,
                "duration": 0.0318182,
                "tempo": 120.0
            },
            {
                "start_time": 43.7613636,
                "end_time": 43.7954545,
                "pitch": 40,
                "velocity": 127,
                "duration": 0.0340909,
                "tempo": 120.0
            },
            {
                "start_time": 43.7954545,
                "end_time": 43.8113636,
                "pitch": 36,
                "velocity": 127,
                "duration": 0.0159091,
                "tempo": 120.0
            },
            {
                "start_time": 43.8113636,
                "end_time": 43.8795455,
                "pitch": 47,
                "velocity": 127,
                "duration": 0.0681818,
                "tempo": 120.0
            },
            {
                "start_time": 43.8795455,
                "end_time": 43.9295455,
                "pitch": 45,
                "velocity": 127,
                "duration": 0.05,
                "tempo": 120.0
            },
            {
                "start_time": 43.4340909,
                "end_time": 43.9295455,
                "pitch": 55,
                "velocity": 127,
                "duration": 0.4954545,
                "tempo": 120.0
            },
            {
                "start_time": 43.9295455,
                "end_time": 43.9818182,
                "pitch": 43,
                "velocity": 127,
                "duration": 0.0522727,
                "tempo": 120.0
            },
            {
                "start_time": 43.9818182,
                "end_time": 44.0340909,
                "pitch": 41,
                "velocity": 127,
                "duration": 0.0522727,
                "tempo": 120.0
            },
            {
                "start_time": 44.0340909,
                "end_time": 44.0681818,
                "pitch": 38,
                "velocity": 127,
                "duration": 0.0340909,
                "tempo": 120.0
            },
            {
                "start_time": 44.0681818,
                "end_time": 44.1181818,
                "pitch": 53,
                "velocity": 127,
                "duration": 0.05,
                "tempo": 120.0
            },
            {
                "start_time": 44.1181818,
                "end_time": 44.1704545,
                "pitch": 50,
                "velocity": 127,
                "duration": 0.0522727,
                "tempo": 120.0
            },
            {
                "start_time": 44.1704545,
                "end_time": 44.2045455,
                "pitch": 48,
                "velocity": 127,
                "duration": 0.0340909,
                "tempo": 120.0
            },
            {
                "start_time": 44.2045455,
                "end_time": 44.2386364,
                "pitch": 45,
                "velocity": 127,
                "duration": 0.0340909,
                "tempo": 120.0
            },
            {
                "start_time": 44.2386364,
                "end_time": 44.2727273,
                "pitch": 43,
                "velocity": 127,
                "duration": 0.0340909,
                "tempo": 120.0
            },
            {
                "start_time": 44.2727273,
                "end_time": 44.3068182,
                "pitch": 40,
                "velocity": 127,
                "duration": 0.0340909,
                "tempo": 120.0
            },
            {
                "start_time": 44.3068182,
                "end_time": 44.325,
                "pitch": 36,
                "velocity": 127,
                "duration": 0.0181818,
                "tempo": 120.0
            },
            {
                "start_time": 44.325,
                "end_time": 44.3909091,
                "pitch": 47,
                "velocity": 127,
                "duration": 0.0659091,
                "tempo": 120.0
            },
            {
                "start_time": 44.3909091,
                "end_time": 44.4409091,
                "pitch": 45,
                "velocity": 127,
                "duration": 0.05,
                "tempo": 120.0
            },
            {
                "start_time": 43.9295455,
                "end_time": 44.4409091,
                "pitch": 55,
                "velocity": 127,
                "duration": 0.5113636,
                "tempo": 120.0
            },
            {
                "start_time": 44.4409091,
                "end_time": 44.4909091,
                "pitch": 43,
                "velocity": 127,
                "duration": 0.05,
                "tempo": 120.0
            },
            {
                "start_time": 44.4909091,
                "end_time": 44.5409091,
                "pitch": 41,
                "velocity": 127,
                "duration": 0.05,
                "tempo": 120.0
            },
            {
                "start_time": 44.5409091,
                "end_time": 44.575,
                "pitch": 38,
                "velocity": 127,
                "duration": 0.0340909,
                "tempo": 120.0
            },
            {
                "start_time": 44.575,
                "end_time": 44.625,
                "pitch": 53,
                "velocity": 127,
                "duration": 0.05,
                "tempo": 120.0
            },
            {
                "start_time": 44.625,
                "end_time": 44.675,
                "pitch": 50,
                "velocity": 127,
                "duration": 0.05,
                "tempo": 120.0
            },
            {
                "start_time": 44.675,
                "end_time": 44.7090909,
                "pitch": 48,
                "velocity": 127,
                "duration": 0.0340909,
                "tempo": 120.0
            },
            {
                "start_time": 44.7090909,
                "end_time": 44.7409091,
                "pitch": 45,
                "velocity": 127,
                "duration": 0.0318182,
                "tempo": 120.0
            },
            {
                "start_time": 44.7409091,
                "end_time": 44.775,
                "pitch": 43,
                "velocity": 127,
                "duration": 0.0340909,
                "tempo": 120.0
            },
            {
                "start_time": 44.775,
                "end_time": 44.8090909,
                "pitch": 40,
                "velocity": 127,
                "duration": 0.0340909,
                "tempo": 120.0
            },
            {
                "start_time": 44.8090909,
                "end_time": 44.825,
                "pitch": 36,
                "velocity": 127,
                "duration": 0.0159091,
                "tempo": 120.0
            },
            {
                "start_time": 44.825,
                "end_time": 44.8909091,
                "pitch": 47,
                "velocity": 127,
                "duration": 0.0659091,
                "tempo": 120.0
            },
            {
                "start_time": 44.8909091,
                "end_time": 44.9409091,
                "pitch": 45,
                "velocity": 127,
                "duration": 0.05,
                "tempo": 120.0
            },
            {
                "start_time": 44.4409091,
                "end_time": 44.9409091,
                "pitch": 55,
                "velocity": 127,
                "duration": 0.5,
                "tempo": 120.0
            },
            {
                "start_time": 44.9409091,
                "end_time": 44.9909091,
                "pitch": 43,
                "velocity": 127,
                "duration": 0.05,
                "tempo": 120.0
            },
            {
                "start_time": 44.9909091,
                "end_time": 45.0409091,
                "pitch": 41,
                "velocity": 127,
                "duration": 0.05,
                "tempo": 120.0
            },
            {
                "start_time": 45.0409091,
                "end_time": 45.075,
                "pitch": 38,
                "velocity": 127,
                "duration": 0.0340909,
                "tempo": 120.0
            },
            {
                "start_time": 45.075,
                "end_time": 45.125,
                "pitch": 53,
                "velocity": 127,
                "duration": 0.05,
                "tempo": 120.0
            },
            {
                "start_time": 45.125,
                "end_time": 45.175,
                "pitch": 50,
                "velocity": 127,
                "duration": 0.05,
                "tempo": 120.0
            },
            {
                "start_time": 45.175,
                "end_time": 45.2090909,
                "pitch": 48,
                "velocity": 127,
                "duration": 0.0340909,
                "tempo": 120.0
            },
            {
                "start_time": 45.2090909,
                "end_time": 45.2431818,
                "pitch": 45,
                "velocity": 127,
                "duration": 0.0340909,
                "tempo": 120.0
            },
            {
                "start_time": 45.2431818,
                "end_time": 45.275,
                "pitch": 43,
                "velocity": 127,
                "duration": 0.0318182,
                "tempo": 120.0
            },
            {
                "start_time": 45.275,
                "end_time": 45.3090909,
                "pitch": 40,
                "velocity": 127,
                "duration": 0.0340909,
                "tempo": 120.0
            },
            {
                "start_time": 45.3090909,
                "end_time": 45.325,
                "pitch": 36,
                "velocity": 127,
                "duration": 0.0159091,
                "tempo": 120.0
            },
            {
                "start_time": 45.3272727,
                "end_time": 45.375,
                "pitch": 50,
                "velocity": 127,
                "duration": 0.0477273,
                "tempo": 120.0
            },
            {
                "start_time": 45.375,
                "end_time": 45.4090909,
                "pitch": 47,
                "velocity": 127,
                "duration": 0.0340909,
                "tempo": 120.0
            },
            {
                "start_time": 45.4090909,
                "end_time": 45.4431818,
                "pitch": 45,
                "velocity": 127,
                "duration": 0.0340909,
                "tempo": 120.0
            },
            {
                "start_time": 45.4431818,
                "end_time": 45.475,
                "pitch": 42,
                "velocity": 127,
                "duration": 0.0318182,
                "tempo": 120.0
            },
            {
                "start_time": 45.475,
                "end_time": 45.5090909,
                "pitch": 39,
                "velocity": 127,
                "duration": 0.0340909,
                "tempo": 120.0
            },
            {
                "start_time": 45.5090909,
                "end_time": 45.525,
                "pitch": 35,
                "velocity": 127,
                "duration": 0.0159091,
                "tempo": 120.0
            },
            {
                "start_time": 45.525,
                "end_time": 45.5431818,
                "pitch": 33,
                "velocity": 127,
                "duration": 0.0181818,
                "tempo": 120.0
            },
            {
                "start_time": 45.5431818,
                "end_time": 45.5590909,
                "pitch": 30,
                "velocity": 127,
                "duration": 0.0159091,
                "tempo": 120.0
            },
            {
                "start_time": 45.5590909,
                "end_time": 45.575,
                "pitch": 27,
                "velocity": 127,
                "duration": 0.0159091,
                "tempo": 120.0
            },
            {
                "start_time": 45.5772727,
                "end_time": 45.625,
                "pitch": 50,
                "velocity": 127,
                "duration": 0.0477273,
                "tempo": 120.0
            },
            {
                "start_time": 45.625,
                "end_time": 45.6590909,
                "pitch": 47,
                "velocity": 127,
                "duration": 0.0340909,
                "tempo": 120.0
            },
            {
                "start_time": 45.6590909,
                "end_time": 45.6931818,
                "pitch": 45,
                "velocity": 127,
                "duration": 0.0340909,
                "tempo": 120.0
            },
            {
                "start_time": 45.6931818,
                "end_time": 45.7272727,
                "pitch": 42,
                "velocity": 127,
                "duration": 0.0340909,
                "tempo": 120.0
            },
            {
                "start_time": 45.7272727,
                "end_time": 45.7590909,
                "pitch": 39,
                "velocity": 127,
                "duration": 0.0318182,
                "tempo": 120.0
            },
            {
                "start_time": 45.7590909,
                "end_time": 45.7772727,
                "pitch": 35,
                "velocity": 127,
                "duration": 0.0181818,
                "tempo": 120.0
            },
            {
                "start_time": 45.7772727,
                "end_time": 45.7931818,
                "pitch": 33,
                "velocity": 127,
                "duration": 0.0159091,
                "tempo": 120.0
            },
            {
                "start_time": 45.7931818,
                "end_time": 45.8090909,
                "pitch": 30,
                "velocity": 127,
                "duration": 0.0159091,
                "tempo": 120.0
            },
            {
                "start_time": 45.8090909,
                "end_time": 45.8272727,
                "pitch": 27,
                "velocity": 127,
                "duration": 0.0181818,
                "tempo": 120.0
            },
            {
                "start_time": 45.8272727,
                "end_time": 45.8772727,
                "pitch": 50,
                "velocity": 127,
                "duration": 0.05,
                "tempo": 120.0
            },
            {
                "start_time": 45.8772727,
                "end_time": 45.9090909,
                "pitch": 47,
                "velocity": 127,
                "duration": 0.0318182,
                "tempo": 120.0
            },
            {
                "start_time": 45.9090909,
                "end_time": 45.9431818,
                "pitch": 45,
                "velocity": 127,
                "duration": 0.0340909,
                "tempo": 120.0
            },
            {
                "start_time": 45.9431818,
                "end_time": 45.9772727,
                "pitch": 42,
                "velocity": 127,
                "duration": 0.0340909,
                "tempo": 120.0
            },
            {
                "start_time": 45.9772727,
                "end_time": 46.0090909,
                "pitch": 39,
                "velocity": 127,
                "duration": 0.0318182,
                "tempo": 120.0
            },
            {
                "start_time": 46.0090909,
                "end_time": 46.0272727,
                "pitch": 35,
                "velocity": 127,
                "duration": 0.0181818,
                "tempo": 120.0
            },
            {
                "start_time": 46.0272727,
                "end_time": 46.0431818,
                "pitch": 33,
                "velocity": 127,
                "duration": 0.0159091,
                "tempo": 120.0
            },
            {
                "start_time": 46.0431818,
                "end_time": 46.0590909,
                "pitch": 30,
                "velocity": 127,
                "duration": 0.0159091,
                "tempo": 120.0
            },
            {
                "start_time": 46.0590909,
                "end_time": 46.0772727,
                "pitch": 27,
                "velocity": 127,
                "duration": 0.0181818,
                "tempo": 120.0
            },
            {
                "start_time": 46.0772727,
                "end_time": 46.1272727,
                "pitch": 50,
                "velocity": 127,
                "duration": 0.05,
                "tempo": 120.0
            },
            {
                "start_time": 46.1272727,
                "end_time": 46.1590909,
                "pitch": 47,
                "velocity": 127,
                "duration": 0.0318182,
                "tempo": 120.0
            },
            {
                "start_time": 46.1590909,
                "end_time": 46.1931818,
                "pitch": 45,
                "velocity": 127,
                "duration": 0.0340909,
                "tempo": 120.0
            },
            {
                "start_time": 46.1931818,
                "end_time": 46.2272727,
                "pitch": 42,
                "velocity": 127,
                "duration": 0.0340909,
                "tempo": 120.0
            },
            {
                "start_time": 46.2272727,
                "end_time": 46.2590909,
                "pitch": 39,
                "velocity": 127,
                "duration": 0.0318182,
                "tempo": 120.0
            },
            {
                "start_time": 46.2590909,
                "end_time": 46.2772727,
                "pitch": 35,
                "velocity": 127,
                "duration": 0.0181818,
                "tempo": 120.0
            },
            {
                "start_time": 46.2772727,
                "end_time": 46.2931818,
                "pitch": 33,
                "velocity": 127,
                "duration": 0.0159091,
                "tempo": 120.0
            },
            {
                "start_time": 46.2931818,
                "end_time": 46.3090909,
                "pitch": 30,
                "velocity": 127,
                "duration": 0.0159091,
                "tempo": 120.0
            },
            {
                "start_time": 46.3090909,
                "end_time": 46.3272727,
                "pitch": 27,
                "velocity": 127,
                "duration": 0.0181818,
                "tempo": 120.0
            },
            {
                "start_time": 46.3272727,
                "end_time": 46.3931818,
                "pitch": 47,
                "velocity": 127,
                "duration": 0.0659091,
                "tempo": 120.0
            },
            {
                "start_time": 46.3931818,
                "end_time": 46.4431818,
                "pitch": 45,
                "velocity": 127,
                "duration": 0.05,
                "tempo": 120.0
            },
            {
                "start_time": 44.9409091,
                "end_time": 46.4431818,
                "pitch": 55,
                "velocity": 127,
                "duration": 1.5022727,
                "tempo": 120.0
            },
            {
                "start_time": 46.4431818,
                "end_time": 46.4931818,
                "pitch": 43,
                "velocity": 127,
                "duration": 0.05,
                "tempo": 120.0
            },
            {
                "start_time": 46.4931818,
                "end_time": 46.5431818,
                "pitch": 41,
                "velocity": 127,
                "duration": 0.05,
                "tempo": 120.0
            },
            {
                "start_time": 46.5431818,
                "end_time": 46.5772727,
                "pitch": 38,
                "velocity": 127,
                "duration": 0.0340909,
                "tempo": 120.0
            },
            {
                "start_time": 46.5772727,
                "end_time": 46.6272727,
                "pitch": 53,
                "velocity": 127,
                "duration": 0.05,
                "tempo": 120.0
            },
            {
                "start_time": 46.6272727,
                "end_time": 46.6772727,
                "pitch": 50,
                "velocity": 127,
                "duration": 0.05,
                "tempo": 120.0
            },
            {
                "start_time": 46.6772727,
                "end_time": 46.7113636,
                "pitch": 48,
                "velocity": 127,
                "duration": 0.0340909,
                "tempo": 120.0
            },
            {
                "start_time": 46.7113636,
                "end_time": 46.7431818,
                "pitch": 45,
                "velocity": 127,
                "duration": 0.0318182,
                "tempo": 120.0
            },
            {
                "start_time": 46.7431818,
                "end_time": 46.7772727,
                "pitch": 43,
                "velocity": 127,
                "duration": 0.0340909,
                "tempo": 120.0
            },
            {
                "start_time": 46.7772727,
                "end_time": 46.8113636,
                "pitch": 40,
                "velocity": 127,
                "duration": 0.0340909,
                "tempo": 120.0
            },
            {
                "start_time": 46.8113636,
                "end_time": 46.8272727,
                "pitch": 36,
                "velocity": 127,
                "duration": 0.0159091,
                "tempo": 120.0
            },
            {
                "start_time": 46.8272727,
                "end_time": 46.8931818,
                "pitch": 47,
                "velocity": 127,
                "duration": 0.0659091,
                "tempo": 120.0
            },
            {
                "start_time": 46.8931818,
                "end_time": 46.9454545,
                "pitch": 45,
                "velocity": 127,
                "duration": 0.0522727,
                "tempo": 120.0
            },
            {
                "start_time": 46.4431818,
                "end_time": 46.9454545,
                "pitch": 55,
                "velocity": 127,
                "duration": 0.5022727,
                "tempo": 120.0
            },
            {
                "start_time": 46.9454545,
                "end_time": 46.9954545,
                "pitch": 43,
                "velocity": 127,
                "duration": 0.05,
                "tempo": 120.0
            },
            {
                "start_time": 46.9954545,
                "end_time": 47.0454545,
                "pitch": 41,
                "velocity": 127,
                "duration": 0.05,
                "tempo": 120.0
            },
            {
                "start_time": 47.0454545,
                "end_time": 47.0772727,
                "pitch": 38,
                "velocity": 127,
                "duration": 0.0318182,
                "tempo": 120.0
            },
            {
                "start_time": 47.0795455,
                "end_time": 47.1272727,
                "pitch": 53,
                "velocity": 127,
                "duration": 0.0477273,
                "tempo": 120.0
            },
            {
                "start_time": 47.1272727,
                "end_time": 47.1772727,
                "pitch": 50,
                "velocity": 127,
                "duration": 0.05,
                "tempo": 120.0
            },
            {
                "start_time": 47.1772727,
                "end_time": 47.2113636,
                "pitch": 48,
                "velocity": 127,
                "duration": 0.0340909,
                "tempo": 120.0
            },
            {
                "start_time": 47.2113636,
                "end_time": 47.2454545,
                "pitch": 45,
                "velocity": 127,
                "duration": 0.0340909,
                "tempo": 120.0
            },
            {
                "start_time": 47.2454545,
                "end_time": 47.2772727,
                "pitch": 43,
                "velocity": 127,
                "duration": 0.0318182,
                "tempo": 120.0
            },
            {
                "start_time": 47.2772727,
                "end_time": 47.3113636,
                "pitch": 40,
                "velocity": 127,
                "duration": 0.0340909,
                "tempo": 120.0
            },
            {
                "start_time": 47.3113636,
                "end_time": 47.3272727,
                "pitch": 36,
                "velocity": 127,
                "duration": 0.0159091,
                "tempo": 120.0
            },
            {
                "start_time": 47.3295455,
                "end_time": 47.3954545,
                "pitch": 47,
                "velocity": 127,
                "duration": 0.0659091,
                "tempo": 120.0
            },
            {
                "start_time": 47.3954545,
                "end_time": 47.4454545,
                "pitch": 45,
                "velocity": 127,
                "duration": 0.05,
                "tempo": 120.0
            },
            {
                "start_time": 46.9454545,
                "end_time": 47.4454545,
                "pitch": 55,
                "velocity": 127,
                "duration": 0.5,
                "tempo": 120.0
            },
            {
                "start_time": 47.4454545,
                "end_time": 47.4954545,
                "pitch": 43,
                "velocity": 127,
                "duration": 0.05,
                "tempo": 120.0
            },
            {
                "start_time": 47.4954545,
                "end_time": 47.5454545,
                "pitch": 41,
                "velocity": 127,
                "duration": 0.05,
                "tempo": 120.0
            },
            {
                "start_time": 47.5454545,
                "end_time": 47.5795455,
                "pitch": 38,
                "velocity": 127,
                "duration": 0.0340909,
                "tempo": 120.0
            },
            {
                "start_time": 47.5795455,
                "end_time": 47.6295455,
                "pitch": 53,
                "velocity": 127,
                "duration": 0.05,
                "tempo": 120.0
            },
            {
                "start_time": 47.6295455,
                "end_time": 47.6795455,
                "pitch": 50,
                "velocity": 127,
                "duration": 0.05,
                "tempo": 120.0
            },
            {
                "start_time": 47.6795455,
                "end_time": 47.7113636,
                "pitch": 48,
                "velocity": 127,
                "duration": 0.0318182,
                "tempo": 120.0
            },
            {
                "start_time": 47.7113636,
                "end_time": 47.7454545,
                "pitch": 45,
                "velocity": 127,
                "duration": 0.0340909,
                "tempo": 120.0
            },
            {
                "start_time": 47.7454545,
                "end_time": 47.7795455,
                "pitch": 43,
                "velocity": 127,
                "duration": 0.0340909,
                "tempo": 120.0
            },
            {
                "start_time": 47.7795455,
                "end_time": 47.8113636,
                "pitch": 40,
                "velocity": 127,
                "duration": 0.0318182,
                "tempo": 120.0
            },
            {
                "start_time": 47.8113636,
                "end_time": 47.8295455,
                "pitch": 36,
                "velocity": 127,
                "duration": 0.0181818,
                "tempo": 120.0
            },
            {
                "start_time": 47.8295455,
                "end_time": 47.8954545,
                "pitch": 47,
                "velocity": 127,
                "duration": 0.0659091,
                "tempo": 120.0
            },
            {
                "start_time": 47.8954545,
                "end_time": 47.9454545,
                "pitch": 45,
                "velocity": 127,
                "duration": 0.05,
                "tempo": 120.0
            },
            {
                "start_time": 47.4454545,
                "end_time": 47.9454545,
                "pitch": 55,
                "velocity": 127,
                "duration": 0.5,
                "tempo": 120.0
            },
            {
                "start_time": 47.9454545,
                "end_time": 47.9954545,
                "pitch": 43,
                "velocity": 127,
                "duration": 0.05,
                "tempo": 120.0
            },
            {
                "start_time": 47.9954545,
                "end_time": 48.0454545,
                "pitch": 41,
                "velocity": 127,
                "duration": 0.05,
                "tempo": 120.0
            },
            {
                "start_time": 48.0454545,
                "end_time": 48.0795455,
                "pitch": 38,
                "velocity": 127,
                "duration": 0.0340909,
                "tempo": 120.0
            },
            {
                "start_time": 48.0795455,
                "end_time": 48.1295455,
                "pitch": 53,
                "velocity": 127,
                "duration": 0.05,
                "tempo": 120.0
            },
            {
                "start_time": 48.1295455,
                "end_time": 48.1795455,
                "pitch": 50,
                "velocity": 127,
                "duration": 0.05,
                "tempo": 120.0
            },
            {
                "start_time": 48.1795455,
                "end_time": 48.2136364,
                "pitch": 48,
                "velocity": 127,
                "duration": 0.0340909,
                "tempo": 120.0
            },
            {
                "start_time": 48.2136364,
                "end_time": 48.2454545,
                "pitch": 45,
                "velocity": 127,
                "duration": 0.0318182,
                "tempo": 120.0
            },
            {
                "start_time": 48.2454545,
                "end_time": 48.2795455,
                "pitch": 43,
                "velocity": 127,
                "duration": 0.0340909,
                "tempo": 120.0
            },
            {
                "start_time": 48.2795455,
                "end_time": 48.3136364,
                "pitch": 40,
                "velocity": 127,
                "duration": 0.0340909,
                "tempo": 120.0
            },
            {
                "start_time": 48.3136364,
                "end_time": 48.3295455,
                "pitch": 36,
                "velocity": 127,
                "duration": 0.0159091,
                "tempo": 120.0
            },
            {
                "start_time": 48.3295455,
                "end_time": 48.3954545,
                "pitch": 47,
                "velocity": 127,
                "duration": 0.0659091,
                "tempo": 120.0
            },
            {
                "start_time": 48.3954545,
                "end_time": 48.4454545,
                "pitch": 45,
                "velocity": 127,
                "duration": 0.05,
                "tempo": 120.0
            },
            {
                "start_time": 47.9454545,
                "end_time": 48.4454545,
                "pitch": 55,
                "velocity": 127,
                "duration": 0.5,
                "tempo": 120.0
            },
            {
                "start_time": 48.4454545,
                "end_time": 48.4954545,
                "pitch": 43,
                "velocity": 127,
                "duration": 0.05,
                "tempo": 120.0
            },
            {
                "start_time": 48.4954545,
                "end_time": 48.5454545,
                "pitch": 41,
                "velocity": 127,
                "duration": 0.05,
                "tempo": 120.0
            },
            {
                "start_time": 48.5454545,
                "end_time": 48.5795455,
                "pitch": 38,
                "velocity": 127,
                "duration": 0.0340909,
                "tempo": 120.0
            },
            {
                "start_time": 48.5795455,
                "end_time": 48.6295455,
                "pitch": 53,
                "velocity": 127,
                "duration": 0.05,
                "tempo": 120.0
            },
            {
                "start_time": 48.6295455,
                "end_time": 48.6795455,
                "pitch": 50,
                "velocity": 127,
                "duration": 0.05,
                "tempo": 120.0
            },
            {
                "start_time": 48.6795455,
                "end_time": 48.7136364,
                "pitch": 48,
                "velocity": 127,
                "duration": 0.0340909,
                "tempo": 120.0
            },
            {
                "start_time": 48.7136364,
                "end_time": 48.7477273,
                "pitch": 45,
                "velocity": 127,
                "duration": 0.0340909,
                "tempo": 120.0
            },
            {
                "start_time": 48.7477273,
                "end_time": 48.7795455,
                "pitch": 43,
                "velocity": 127,
                "duration": 0.0318182,
                "tempo": 120.0
            },
            {
                "start_time": 48.7795455,
                "end_time": 48.8136364,
                "pitch": 40,
                "velocity": 127,
                "duration": 0.0340909,
                "tempo": 120.0
            },
            {
                "start_time": 48.8136364,
                "end_time": 48.8295455,
                "pitch": 36,
                "velocity": 127,
                "duration": 0.0159091,
                "tempo": 120.0
            },
            {
                "start_time": 48.8318182,
                "end_time": 48.8977273,
                "pitch": 47,
                "velocity": 127,
                "duration": 0.0659091,
                "tempo": 120.0
            },
            {
                "start_time": 48.8977273,
                "end_time": 48.9477273,
                "pitch": 45,
                "velocity": 127,
                "duration": 0.05,
                "tempo": 120.0
            },
            {
                "start_time": 48.4454545,
                "end_time": 48.9477273,
                "pitch": 55,
                "velocity": 127,
                "duration": 0.5022727,
                "tempo": 120.0
            },
            {
                "start_time": 48.9477273,
                "end_time": 48.9977273,
                "pitch": 43,
                "velocity": 127,
                "duration": 0.05,
                "tempo": 120.0
            },
            {
                "start_time": 48.9977273,
                "end_time": 49.0477273,
                "pitch": 41,
                "velocity": 127,
                "duration": 0.05,
                "tempo": 120.0
            },
            {
                "start_time": 49.0477273,
                "end_time": 49.0795455,
                "pitch": 38,
                "velocity": 127,
                "duration": 0.0318182,
                "tempo": 120.0
            },
            {
                "start_time": 49.0818182,
                "end_time": 49.1295455,
                "pitch": 53,
                "velocity": 127,
                "duration": 0.0477273,
                "tempo": 120.0
            },
            {
                "start_time": 49.1295455,
                "end_time": 49.1795455,
                "pitch": 50,
                "velocity": 127,
                "duration": 0.05,
                "tempo": 120.0
            },
            {
                "start_time": 49.1795455,
                "end_time": 49.2136364,
                "pitch": 48,
                "velocity": 127,
                "duration": 0.0340909,
                "tempo": 120.0
            },
            {
                "start_time": 49.2136364,
                "end_time": 49.2477273,
                "pitch": 45,
                "velocity": 127,
                "duration": 0.0340909,
                "tempo": 120.0
            },
            {
                "start_time": 49.2477273,
                "end_time": 49.2795455,
                "pitch": 43,
                "velocity": 127,
                "duration": 0.0318182,
                "tempo": 120.0
            },
            {
                "start_time": 49.2795455,
                "end_time": 49.3136364,
                "pitch": 40,
                "velocity": 127,
                "duration": 0.0340909,
                "tempo": 120.0
            },
            {
                "start_time": 49.3136364,
                "end_time": 49.3318182,
                "pitch": 36,
                "velocity": 127,
                "duration": 0.0181818,
                "tempo": 120.0
            },
            {
                "start_time": 49.3318182,
                "end_time": 49.3818182,
                "pitch": 50,
                "velocity": 127,
                "duration": 0.05,
                "tempo": 120.0
            },
            {
                "start_time": 49.3818182,
                "end_time": 49.4136364,
                "pitch": 47,
                "velocity": 127,
                "duration": 0.0318182,
                "tempo": 120.0
            },
            {
                "start_time": 49.4136364,
                "end_time": 49.4477273,
                "pitch": 45,
                "velocity": 127,
                "duration": 0.0340909,
                "tempo": 120.0
            },
            {
                "start_time": 49.4477273,
                "end_time": 49.4818182,
                "pitch": 42,
                "velocity": 127,
                "duration": 0.0340909,
                "tempo": 120.0
            },
            {
                "start_time": 49.4818182,
                "end_time": 49.5136364,
                "pitch": 39,
                "velocity": 127,
                "duration": 0.0318182,
                "tempo": 120.0
            },
            {
                "start_time": 49.5136364,
                "end_time": 49.5318182,
                "pitch": 35,
                "velocity": 127,
                "duration": 0.0181818,
                "tempo": 120.0
            },
            {
                "start_time": 49.5318182,
                "end_time": 49.5477273,
                "pitch": 33,
                "velocity": 127,
                "duration": 0.0159091,
                "tempo": 120.0
            },
            {
                "start_time": 49.5477273,
                "end_time": 49.5636364,
                "pitch": 30,
                "velocity": 127,
                "duration": 0.0159091,
                "tempo": 120.0
            },
            {
                "start_time": 49.5636364,
                "end_time": 49.5818182,
                "pitch": 27,
                "velocity": 127,
                "duration": 0.0181818,
                "tempo": 120.0
            },
            {
                "start_time": 49.5818182,
                "end_time": 49.6318182,
                "pitch": 50,
                "velocity": 127,
                "duration": 0.05,
                "tempo": 120.0
            },
            {
                "start_time": 49.6318182,
                "end_time": 49.6636364,
                "pitch": 47,
                "velocity": 127,
                "duration": 0.0318182,
                "tempo": 120.0
            },
            {
                "start_time": 49.6636364,
                "end_time": 49.6977273,
                "pitch": 45,
                "velocity": 127,
                "duration": 0.0340909,
                "tempo": 120.0
            },
            {
                "start_time": 49.6977273,
                "end_time": 49.7318182,
                "pitch": 42,
                "velocity": 127,
                "duration": 0.0340909,
                "tempo": 120.0
            },
            {
                "start_time": 49.7318182,
                "end_time": 49.7636364,
                "pitch": 39,
                "velocity": 127,
                "duration": 0.0318182,
                "tempo": 120.0
            },
            {
                "start_time": 49.7636364,
                "end_time": 49.7818182,
                "pitch": 35,
                "velocity": 127,
                "duration": 0.0181818,
                "tempo": 120.0
            },
            {
                "start_time": 49.7818182,
                "end_time": 49.7977273,
                "pitch": 33,
                "velocity": 127,
                "duration": 0.0159091,
                "tempo": 120.0
            },
            {
                "start_time": 49.7977273,
                "end_time": 49.8136364,
                "pitch": 30,
                "velocity": 127,
                "duration": 0.0159091,
                "tempo": 120.0
            },
            {
                "start_time": 49.8136364,
                "end_time": 49.8318182,
                "pitch": 27,
                "velocity": 127,
                "duration": 0.0181818,
                "tempo": 120.0
            },
            {
                "start_time": 49.8318182,
                "end_time": 49.8818182,
                "pitch": 50,
                "velocity": 127,
                "duration": 0.05,
                "tempo": 120.0
            },
            {
                "start_time": 49.8818182,
                "end_time": 49.9159091,
                "pitch": 47,
                "velocity": 127,
                "duration": 0.0340909,
                "tempo": 120.0
            },
            {
                "start_time": 49.9159091,
                "end_time": 49.9477273,
                "pitch": 45,
                "velocity": 127,
                "duration": 0.0318182,
                "tempo": 120.0
            },
            {
                "start_time": 49.9477273,
                "end_time": 49.9818182,
                "pitch": 42,
                "velocity": 127,
                "duration": 0.0340909,
                "tempo": 120.0
            },
            {
                "start_time": 49.9818182,
                "end_time": 50.0159091,
                "pitch": 39,
                "velocity": 127,
                "duration": 0.0340909,
                "tempo": 120.0
            },
            {
                "start_time": 50.0159091,
                "end_time": 50.0318182,
                "pitch": 35,
                "velocity": 127,
                "duration": 0.0159091,
                "tempo": 120.0
            },
            {
                "start_time": 50.0318182,
                "end_time": 50.0477273,
                "pitch": 33,
                "velocity": 127,
                "duration": 0.0159091,
                "tempo": 120.0
            },
            {
                "start_time": 50.0477273,
                "end_time": 50.0659091,
                "pitch": 30,
                "velocity": 127,
                "duration": 0.0181818,
                "tempo": 120.0
            },
            {
                "start_time": 50.0659091,
                "end_time": 50.0818182,
                "pitch": 27,
                "velocity": 127,
                "duration": 0.0159091,
                "tempo": 120.0
            },
            {
                "start_time": 50.0818182,
                "end_time": 50.1318182,
                "pitch": 50,
                "velocity": 127,
                "duration": 0.05,
                "tempo": 120.0
            },
            {
                "start_time": 50.1318182,
                "end_time": 50.1659091,
                "pitch": 47,
                "velocity": 127,
                "duration": 0.0340909,
                "tempo": 120.0
            },
            {
                "start_time": 50.1659091,
                "end_time": 50.1977273,
                "pitch": 45,
                "velocity": 127,
                "duration": 0.0318182,
                "tempo": 120.0
            },
            {
                "start_time": 50.1977273,
                "end_time": 50.2318182,
                "pitch": 42,
                "velocity": 127,
                "duration": 0.0340909,
                "tempo": 120.0
            },
            {
                "start_time": 50.2318182,
                "end_time": 50.2659091,
                "pitch": 39,
                "velocity": 127,
                "duration": 0.0340909,
                "tempo": 120.0
            },
            {
                "start_time": 50.2659091,
                "end_time": 50.2818182,
                "pitch": 35,
                "velocity": 127,
                "duration": 0.0159091,
                "tempo": 120.0
            },
            {
                "start_time": 50.2818182,
                "end_time": 50.2977273,
                "pitch": 33,
                "velocity": 127,
                "duration": 0.0159091,
                "tempo": 120.0
            },
            {
                "start_time": 50.2977273,
                "end_time": 50.3159091,
                "pitch": 30,
                "velocity": 127,
                "duration": 0.0181818,
                "tempo": 120.0
            },
            {
                "start_time": 50.3159091,
                "end_time": 50.3318182,
                "pitch": 27,
                "velocity": 127,
                "duration": 0.0159091,
                "tempo": 120.0
            },
            {
                "start_time": 50.3318182,
                "end_time": 50.3977273,
                "pitch": 47,
                "velocity": 127,
                "duration": 0.0659091,
                "tempo": 120.0
            },
            {
                "start_time": 50.3977273,
                "end_time": 50.4477273,
                "pitch": 45,
                "velocity": 127,
                "duration": 0.05,
                "tempo": 120.0
            },
            {
                "start_time": 48.9477273,
                "end_time": 50.45,
                "pitch": 55,
                "velocity": 127,
                "duration": 1.5022727,
                "tempo": 120.0
            },
            {
                "start_time": 50.4477273,
                "end_time": 50.45,
                "pitch": 55,
                "velocity": 127,
                "duration": 0.0022727,
                "tempo": 120.0
            },
            {
                "start_time": 50.45,
                "end_time": 50.5,
                "pitch": 43,
                "velocity": 127,
                "duration": 0.05,
                "tempo": 120.0
            },
            {
                "start_time": 50.5,
                "end_time": 50.55,
                "pitch": 41,
                "velocity": 127,
                "duration": 0.05,
                "tempo": 120.0
            },
            {
                "start_time": 50.55,
                "end_time": 50.5818182,
                "pitch": 38,
                "velocity": 127,
                "duration": 0.0318182,
                "tempo": 120.0
            },
            {
                "start_time": 50.5818182,
                "end_time": 50.6318182,
                "pitch": 53,
                "velocity": 127,
                "duration": 0.05,
                "tempo": 120.0
            },
            {
                "start_time": 50.6318182,
                "end_time": 50.6818182,
                "pitch": 50,
                "velocity": 127,
                "duration": 0.05,
                "tempo": 120.0
            },
            {
                "start_time": 50.6818182,
                "end_time": 50.7159091,
                "pitch": 48,
                "velocity": 127,
                "duration": 0.0340909,
                "tempo": 120.0
            },
            {
                "start_time": 50.7159091,
                "end_time": 50.75,
                "pitch": 45,
                "velocity": 127,
                "duration": 0.0340909,
                "tempo": 120.0
            },
            {
                "start_time": 50.75,
                "end_time": 50.7818182,
                "pitch": 43,
                "velocity": 127,
                "duration": 0.0318182,
                "tempo": 120.0
            },
            {
                "start_time": 50.7818182,
                "end_time": 50.8159091,
                "pitch": 40,
                "velocity": 127,
                "duration": 0.0340909,
                "tempo": 120.0
            },
            {
                "start_time": 50.8159091,
                "end_time": 50.8318182,
                "pitch": 36,
                "velocity": 127,
                "duration": 0.0159091,
                "tempo": 120.0
            },
            {
                "start_time": 50.8340909,
                "end_time": 50.9,
                "pitch": 47,
                "velocity": 127,
                "duration": 0.0659091,
                "tempo": 120.0
            },
            {
                "start_time": 50.9,
                "end_time": 50.9522727,
                "pitch": 45,
                "velocity": 127,
                "duration": 0.0522727,
                "tempo": 120.0
            },
            {
                "start_time": 50.9522727,
                "end_time": 51.0045455,
                "pitch": 43,
                "velocity": 127,
                "duration": 0.0522727,
                "tempo": 120.0
            },
            {
                "start_time": 51.0045455,
                "end_time": 51.0545455,
                "pitch": 41,
                "velocity": 127,
                "duration": 0.05,
                "tempo": 120.0
            },
            {
                "start_time": 51.0545455,
                "end_time": 51.0886364,
                "pitch": 38,
                "velocity": 127,
                "duration": 0.0340909,
                "tempo": 120.0
            },
            {
                "start_time": 51.0886364,
                "end_time": 51.1409091,
                "pitch": 53,
                "velocity": 127,
                "duration": 0.0522727,
                "tempo": 120.0
            },
            {
                "start_time": 51.1409091,
                "end_time": 51.1909091,
                "pitch": 50,
                "velocity": 127,
                "duration": 0.05,
                "tempo": 120.0
            },
            {
                "start_time": 51.1909091,
                "end_time": 51.225,
                "pitch": 48,
                "velocity": 127,
                "duration": 0.0340909,
                "tempo": 120.0
            },
            {
                "start_time": 51.225,
                "end_time": 51.2613636,
                "pitch": 45,
                "velocity": 127,
                "duration": 0.0363636,
                "tempo": 120.0
            },
            {
                "start_time": 51.2613636,
                "end_time": 51.2954545,
                "pitch": 43,
                "velocity": 127,
                "duration": 0.0340909,
                "tempo": 120.0
            },
            {
                "start_time": 51.2954545,
                "end_time": 51.3295455,
                "pitch": 40,
                "velocity": 127,
                "duration": 0.0340909,
                "tempo": 120.0
            },
            {
                "start_time": 51.3295455,
                "end_time": 51.3454545,
                "pitch": 36,
                "velocity": 127,
                "duration": 0.0159091,
                "tempo": 120.0
            },
            {
                "start_time": 51.3477273,
                "end_time": 51.4136364,
                "pitch": 47,
                "velocity": 127,
                "duration": 0.0659091,
                "tempo": 120.0
            },
            {
                "start_time": 51.4136364,
                "end_time": 51.4636364,
                "pitch": 45,
                "velocity": 127,
                "duration": 0.05,
                "tempo": 120.0
            },
            {
                "start_time": 50.9522727,
                "end_time": 51.4636364,
                "pitch": 55,
                "velocity": 127,
                "duration": 0.5113636,
                "tempo": 120.0
            },
            {
                "start_time": 51.4636364,
                "end_time": 51.5136364,
                "pitch": 43,
                "velocity": 127,
                "duration": 0.05,
                "tempo": 120.0
            },
            {
                "start_time": 51.5136364,
                "end_time": 51.5636364,
                "pitch": 41,
                "velocity": 127,
                "duration": 0.05,
                "tempo": 120.0
            },
            {
                "start_time": 51.5636364,
                "end_time": 51.5977273,
                "pitch": 38,
                "velocity": 127,
                "duration": 0.0340909,
                "tempo": 120.0
            },
            {
                "start_time": 51.5977273,
                "end_time": 51.6454545,
                "pitch": 53,
                "velocity": 127,
                "duration": 0.0477273,
                "tempo": 120.0
            },
            {
                "start_time": 51.6454545,
                "end_time": 51.6977273,
                "pitch": 50,
                "velocity": 127,
                "duration": 0.0522727,
                "tempo": 120.0
            },
            {
                "start_time": 51.6977273,
                "end_time": 51.7295455,
                "pitch": 48,
                "velocity": 127,
                "duration": 0.0318182,
                "tempo": 120.0
            },
            {
                "start_time": 51.7295455,
                "end_time": 51.7636364,
                "pitch": 45,
                "velocity": 127,
                "duration": 0.0340909,
                "tempo": 120.0
            },
            {
                "start_time": 51.7636364,
                "end_time": 51.7977273,
                "pitch": 43,
                "velocity": 127,
                "duration": 0.0340909,
                "tempo": 120.0
            },
            {
                "start_time": 51.7977273,
                "end_time": 51.8295455,
                "pitch": 40,
                "velocity": 127,
                "duration": 0.0318182,
                "tempo": 120.0
            },
            {
                "start_time": 51.8295455,
                "end_time": 51.8477273,
                "pitch": 36,
                "velocity": 127,
                "duration": 0.0181818,
                "tempo": 120.0
            },
            {
                "start_time": 51.8477273,
                "end_time": 51.9136364,
                "pitch": 47,
                "velocity": 127,
                "duration": 0.0659091,
                "tempo": 120.0
            },
            {
                "start_time": 51.9136364,
                "end_time": 51.9636364,
                "pitch": 45,
                "velocity": 127,
                "duration": 0.05,
                "tempo": 120.0
            },
            {
                "start_time": 51.4636364,
                "end_time": 51.9636364,
                "pitch": 55,
                "velocity": 127,
                "duration": 0.5,
                "tempo": 120.0
            },
            {
                "start_time": 51.9636364,
                "end_time": 52.0136364,
                "pitch": 43,
                "velocity": 127,
                "duration": 0.05,
                "tempo": 120.0
            },
            {
                "start_time": 52.0136364,
                "end_time": 52.0636364,
                "pitch": 41,
                "velocity": 127,
                "duration": 0.05,
                "tempo": 120.0
            },
            {
                "start_time": 52.0636364,
                "end_time": 52.0977273,
                "pitch": 38,
                "velocity": 127,
                "duration": 0.0340909,
                "tempo": 120.0
            },
            {
                "start_time": 52.0977273,
                "end_time": 52.1477273,
                "pitch": 53,
                "velocity": 127,
                "duration": 0.05,
                "tempo": 120.0
            },
            {
                "start_time": 52.1477273,
                "end_time": 52.1977273,
                "pitch": 50,
                "velocity": 127,
                "duration": 0.05,
                "tempo": 120.0
            },
            {
                "start_time": 52.1977273,
                "end_time": 52.2295455,
                "pitch": 48,
                "velocity": 127,
                "duration": 0.0318182,
                "tempo": 120.0
            },
            {
                "start_time": 52.2295455,
                "end_time": 52.2636364,
                "pitch": 45,
                "velocity": 127,
                "duration": 0.0340909,
                "tempo": 120.0
            },
            {
                "start_time": 52.2636364,
                "end_time": 52.2977273,
                "pitch": 43,
                "velocity": 127,
                "duration": 0.0340909,
                "tempo": 120.0
            },
            {
                "start_time": 52.2977273,
                "end_time": 52.3318182,
                "pitch": 40,
                "velocity": 127,
                "duration": 0.0340909,
                "tempo": 120.0
            },
            {
                "start_time": 52.3318182,
                "end_time": 52.3477273,
                "pitch": 36,
                "velocity": 127,
                "duration": 0.0159091,
                "tempo": 120.0
            },
            {
                "start_time": 52.3477273,
                "end_time": 52.4136364,
                "pitch": 47,
                "velocity": 127,
                "duration": 0.0659091,
                "tempo": 120.0
            },
            {
                "start_time": 52.4136364,
                "end_time": 52.4636364,
                "pitch": 45,
                "velocity": 127,
                "duration": 0.05,
                "tempo": 120.0
            },
            {
                "start_time": 51.9636364,
                "end_time": 52.4636364,
                "pitch": 55,
                "velocity": 127,
                "duration": 0.5,
                "tempo": 120.0
            },
            {
                "start_time": 52.4636364,
                "end_time": 52.5136364,
                "pitch": 43,
                "velocity": 127,
                "duration": 0.05,
                "tempo": 120.0
            },
            {
                "start_time": 52.5136364,
                "end_time": 52.5636364,
                "pitch": 41,
                "velocity": 127,
                "duration": 0.05,
                "tempo": 120.0
            },
            {
                "start_time": 52.5636364,
                "end_time": 52.5977273,
                "pitch": 38,
                "velocity": 127,
                "duration": 0.0340909,
                "tempo": 120.0
            },
            {
                "start_time": 52.5977273,
                "end_time": 52.6477273,
                "pitch": 53,
                "velocity": 127,
                "duration": 0.05,
                "tempo": 120.0
            },
            {
                "start_time": 52.6477273,
                "end_time": 52.6977273,
                "pitch": 50,
                "velocity": 127,
                "duration": 0.05,
                "tempo": 120.0
            },
            {
                "start_time": 52.6977273,
                "end_time": 52.7318182,
                "pitch": 48,
                "velocity": 127,
                "duration": 0.0340909,
                "tempo": 120.0
            },
            {
                "start_time": 52.7318182,
                "end_time": 52.7636364,
                "pitch": 45,
                "velocity": 127,
                "duration": 0.0318182,
                "tempo": 120.0
            },
            {
                "start_time": 52.7636364,
                "end_time": 52.7977273,
                "pitch": 43,
                "velocity": 127,
                "duration": 0.0340909,
                "tempo": 120.0
            },
            {
                "start_time": 52.7977273,
                "end_time": 52.8318182,
                "pitch": 40,
                "velocity": 127,
                "duration": 0.0340909,
                "tempo": 120.0
            },
            {
                "start_time": 52.8318182,
                "end_time": 52.8477273,
                "pitch": 36,
                "velocity": 127,
                "duration": 0.0159091,
                "tempo": 120.0
            },
            {
                "start_time": 52.8477273,
                "end_time": 52.9159091,
                "pitch": 47,
                "velocity": 127,
                "duration": 0.0681818,
                "tempo": 120.0
            },
            {
                "start_time": 52.9159091,
                "end_time": 52.9659091,
                "pitch": 45,
                "velocity": 127,
                "duration": 0.05,
                "tempo": 120.0
            },
            {
                "start_time": 52.4636364,
                "end_time": 52.9659091,
                "pitch": 55,
                "velocity": 127,
                "duration": 0.5022727,
                "tempo": 120.0
            },
            {
                "start_time": 52.9659091,
                "end_time": 53.0159091,
                "pitch": 43,
                "velocity": 127,
                "duration": 0.05,
                "tempo": 120.0
            },
            {
                "start_time": 53.0159091,
                "end_time": 53.0659091,
                "pitch": 41,
                "velocity": 127,
                "duration": 0.05,
                "tempo": 120.0
            },
            {
                "start_time": 53.0659091,
                "end_time": 53.0977273,
                "pitch": 38,
                "velocity": 127,
                "duration": 0.0318182,
                "tempo": 120.0
            },
            {
                "start_time": 53.1,
                "end_time": 53.1477273,
                "pitch": 53,
                "velocity": 127,
                "duration": 0.0477273,
                "tempo": 120.0
            },
            {
                "start_time": 53.1477273,
                "end_time": 53.1977273,
                "pitch": 50,
                "velocity": 127,
                "duration": 0.05,
                "tempo": 120.0
            },
            {
                "start_time": 53.1977273,
                "end_time": 53.2318182,
                "pitch": 48,
                "velocity": 127,
                "duration": 0.0340909,
                "tempo": 120.0
            },
            {
                "start_time": 53.2318182,
                "end_time": 53.2659091,
                "pitch": 45,
                "velocity": 127,
                "duration": 0.0340909,
                "tempo": 120.0
            },
            {
                "start_time": 53.2659091,
                "end_time": 53.2977273,
                "pitch": 43,
                "velocity": 127,
                "duration": 0.0318182,
                "tempo": 120.0
            },
            {
                "start_time": 53.2977273,
                "end_time": 53.3318182,
                "pitch": 40,
                "velocity": 127,
                "duration": 0.0340909,
                "tempo": 120.0
            },
            {
                "start_time": 53.3318182,
                "end_time": 53.35,
                "pitch": 36,
                "velocity": 127,
                "duration": 0.0181818,
                "tempo": 120.0
            },
            {
                "start_time": 53.35,
                "end_time": 53.3659091,
                "pitch": 59,
                "velocity": 127,
                "duration": 0.0159091,
                "tempo": 120.0
            },
            {
                "start_time": 53.3659091,
                "end_time": 53.4318182,
                "pitch": 59,
                "velocity": 127,
                "duration": 0.0659091,
                "tempo": 120.0
            },
            {
                "start_time": 53.4318182,
                "end_time": 53.4818182,
                "pitch": 57,
                "velocity": 127,
                "duration": 0.05,
                "tempo": 120.0
            },
            {
                "start_time": 37.4818182,
                "end_time": 53.4818182,
                "pitch": 67,
                "velocity": 127,
                "duration": 16.0,
                "tempo": 120.0
            },
            {
                "start_time": 52.9659091,
                "end_time": 53.5159091,
                "pitch": 55,
                "velocity": 127,
                "duration": 0.55,
                "tempo": 120.0
            },
            {
                "start_time": 53.4818182,
                "end_time": 53.5159091,
                "pitch": 55,
                "velocity": 127,
                "duration": 0.0340909,
                "tempo": 120.0
            },
            {
                "start_time": 53.5159091,
                "end_time": 53.5318182,
                "pitch": 57,
                "velocity": 127,
                "duration": 0.0159091,
                "tempo": 120.0
            },
            {
                "start_time": 53.5318182,
                "end_time": 53.6,
                "pitch": 57,
                "velocity": 127,
                "duration": 0.0681818,
                "tempo": 120.0
            },
            {
                "start_time": 53.6,
                "end_time": 53.6159091,
                "pitch": 55,
                "velocity": 127,
                "duration": 0.0159091,
                "tempo": 120.0
            },
            {
                "start_time": 53.6159091,
                "end_time": 53.6318182,
                "pitch": 55,
                "velocity": 127,
                "duration": 0.0159091,
                "tempo": 120.0
            },
            {
                "start_time": 53.4818182,
                "end_time": 53.6318182,
                "pitch": 67,
                "velocity": 127,
                "duration": 0.15,
                "tempo": 120.0
            },
            {
                "start_time": 53.6318182,
                "end_time": 53.6818182,
                "pitch": 54,
                "velocity": 127,
                "duration": 0.05,
                "tempo": 120.0
            },
            {
                "start_time": 53.6818182,
                "end_time": 53.7318182,
                "pitch": 52,
                "velocity": 127,
                "duration": 0.05,
                "tempo": 120.0
            },
            {
                "start_time": 53.7318182,
                "end_time": 53.7659091,
                "pitch": 49,
                "velocity": 127,
                "duration": 0.0340909,
                "tempo": 120.0
            },
            {
                "start_time": 53.7659091,
                "end_time": 53.7818182,
                "pitch": 53,
                "velocity": 127,
                "duration": 0.0159091,
                "tempo": 120.0
            },
            {
                "start_time": 53.7840909,
                "end_time": 53.8318182,
                "pitch": 53,
                "velocity": 127,
                "duration": 0.0477273,
                "tempo": 120.0
            },
            {
                "start_time": 53.8318182,
                "end_time": 53.85,
                "pitch": 50,
                "velocity": 127,
                "duration": 0.0181818,
                "tempo": 120.0
            },
            {
                "start_time": 53.85,
                "end_time": 53.8659091,
                "pitch": 41,
                "velocity": 101,
                "duration": 0.0159091,
                "tempo": 120.0
            },
            {
                "start_time": 53.8659091,
                "end_time": 53.9159091,
                "pitch": 41,
                "velocity": 101,
                "duration": 0.05,
                "tempo": 120.0
            },
            {
                "start_time": 53.9159091,
                "end_time": 53.9659091,
                "pitch": 38,
                "velocity": 101,
                "duration": 0.05,
                "tempo": 120.0
            },
            {
                "start_time": 53.9659091,
                "end_time": 54.0,
                "pitch": 36,
                "velocity": 101,
                "duration": 0.0340909,
                "tempo": 120.0
            },
            {
                "start_time": 54.0,
                "end_time": 54.0159091,
                "pitch": 33,
                "velocity": 101,
                "duration": 0.0159091,
                "tempo": 120.0
            },
            {
                "start_time": 54.0159091,
                "end_time": 54.0659091,
                "pitch": 41,
                "velocity": 101,
                "duration": 0.05,
                "tempo": 120.0
            },
            {
                "start_time": 54.0659091,
                "end_time": 54.1,
                "pitch": 38,
                "velocity": 101,
                "duration": 0.0340909,
                "tempo": 120.0
            },
            {
                "start_time": 54.1,
                "end_time": 54.1159091,
                "pitch": 41,
                "velocity": 101,
                "duration": 0.0159091,
                "tempo": 120.0
            },
            {
                "start_time": 54.1159091,
                "end_time": 54.1659091,
                "pitch": 41,
                "velocity": 101,
                "duration": 0.05,
                "tempo": 120.0
            },
            {
                "start_time": 54.1659091,
                "end_time": 54.2159091,
                "pitch": 38,
                "velocity": 101,
                "duration": 0.05,
                "tempo": 120.0
            },
            {
                "start_time": 54.2159091,
                "end_time": 54.25,
                "pitch": 36,
                "velocity": 101,
                "duration": 0.0340909,
                "tempo": 120.0
            },
            {
                "start_time": 54.25,
                "end_time": 54.2659091,
                "pitch": 33,
                "velocity": 101,
                "duration": 0.0159091,
                "tempo": 120.0
            },
            {
                "start_time": 54.2659091,
                "end_time": 54.3159091,
                "pitch": 41,
                "velocity": 101,
                "duration": 0.05,
                "tempo": 120.0
            },
            {
                "start_time": 54.3159091,
                "end_time": 54.35,
                "pitch": 38,
                "velocity": 101,
                "duration": 0.0340909,
                "tempo": 120.0
            }
        ],
        "Violin": [
            {
                "start_time": 0.4590909,
                "end_time": 0.5068182,
                "pitch": 103,
                "velocity": 64,
                "duration": 0.0477273,
                "tempo": 120.0
            },
            {
                "start_time": 0.5068182,
                "end_time": 1.2204545,
                "pitch": 103,
                "velocity": 64,
                "duration": 0.7136364,
                "tempo": 120.0
            },
            {
                "start_time": 1.2204545,
                "end_time": 1.8727273,
                "pitch": 101,
                "velocity": 64,
                "duration": 0.6522727,
                "tempo": 120.0
            },
            {
                "start_time": 1.8727273,
                "end_time": 2.425,
                "pitch": 99,
                "velocity": 64,
                "duration": 0.5522727,
                "tempo": 120.0
            },
            {
                "start_time": 2.425,
                "end_time": 2.9272727,
                "pitch": 97,
                "velocity": 64,
                "duration": 0.5022727,
                "tempo": 120.0
            },
            {
                "start_time": 2.9272727,
                "end_time": 3.3772727,
                "pitch": 95,
                "velocity": 64,
                "duration": 0.45,
                "tempo": 120.0
            },
            {
                "start_time": 3.3772727,
                "end_time": 3.7795455,
                "pitch": 93,
                "velocity": 64,
                "duration": 0.4022727,
                "tempo": 120.0
            },
            {
                "start_time": 3.7795455,
                "end_time": 4.1295455,
                "pitch": 91,
                "velocity": 64,
                "duration": 0.35,
                "tempo": 120.0
            },
            {
                "start_time": 4.1295455,
                "end_time": 4.4795455,
                "pitch": 88,
                "velocity": 64,
                "duration": 0.35,
                "tempo": 120.0
            },
            {
                "start_time": 4.4795455,
                "end_time": 4.7318182,
                "pitch": 92,
                "velocity": 64,
                "duration": 0.2522727,
                "tempo": 120.0
            },
            {
                "start_time": 4.7318182,
                "end_time": 4.9886364,
                "pitch": 94,
                "velocity": 64,
                "duration": 0.2568182,
                "tempo": 120.0
            },
            {
                "start_time": 4.9886364,
                "end_time": 5.2431818,
                "pitch": 92,
                "velocity": 64,
                "duration": 0.2545455,
                "tempo": 120.0
            },
            {
                "start_time": 5.2431818,
                "end_time": 5.4931818,
                "pitch": 91,
                "velocity": 64,
                "duration": 0.25,
                "tempo": 120.0
            },
            {
                "start_time": 5.4954545,
                "end_time": 6.4954545,
                "pitch": 90,
                "velocity": 64,
                "duration": 1.0,
                "tempo": 120.0
            },
            {
                "start_time": 6.7454545,
                "end_time": 6.9954545,
                "pitch": 91,
                "velocity": 64,
                "duration": 0.25,
                "tempo": 120.0
            },
            {
                "start_time": 6.9954545,
                "end_time": 7.2454545,
                "pitch": 103,
                "velocity": 64,
                "duration": 0.25,
                "tempo": 120.0
            },
            {
                "start_time": 7.4977273,
                "end_time": 7.7477273,
                "pitch": 91,
                "velocity": 64,
                "duration": 0.25,
                "tempo": 120.0
            },
            {
                "start_time": 7.7477273,
                "end_time": 7.9977273,
                "pitch": 103,
                "velocity": 64,
                "duration": 0.25,
                "tempo": 120.0
            },
            {
                "start_time": 8.2477273,
                "end_time": 8.5,
                "pitch": 91,
                "velocity": 64,
                "duration": 0.2522727,
                "tempo": 120.0
            },
            {
                "start_time": 8.5,
                "end_time": 8.7522727,
                "pitch": 103,
                "velocity": 64,
                "duration": 0.2522727,
                "tempo": 120.0
            },
            {
                "start_time": 9.0022727,
                "end_time": 9.2522727,
                "pitch": 91,
                "velocity": 64,
                "duration": 0.25,
                "tempo": 120.0
            },
            {
                "start_time": 9.2522727,
                "end_time": 9.5022727,
                "pitch": 103,
                "velocity": 64,
                "duration": 0.25,
                "tempo": 120.0
            },
            {
                "start_time": 10.7545455,
                "end_time": 11.0045455,
                "pitch": 91,
                "velocity": 64,
                "duration": 0.25,
                "tempo": 120.0
            },
            {
                "start_time": 11.0045455,
                "end_time": 11.2545455,
                "pitch": 103,
                "velocity": 64,
                "duration": 0.25,
                "tempo": 120.0
            },
            {
                "start_time": 11.5068182,
                "end_time": 11.7568182,
                "pitch": 91,
                "velocity": 64,
                "duration": 0.25,
                "tempo": 120.0
            },
            {
                "start_time": 11.7568182,
                "end_time": 12.0136364,
                "pitch": 103,
                "velocity": 64,
                "duration": 0.2568182,
                "tempo": 120.0
            },
            {
                "start_time": 12.2704545,
                "end_time": 12.5204545,
                "pitch": 91,
                "velocity": 64,
                "duration": 0.25,
                "tempo": 120.0
            },
            {
                "start_time": 12.5204545,
                "end_time": 12.7704545,
                "pitch": 103,
                "velocity": 64,
                "duration": 0.25,
                "tempo": 120.0
            },
            {
                "start_time": 13.0204545,
                "end_time": 13.2704545,
                "pitch": 91,
                "velocity": 64,
                "duration": 0.25,
                "tempo": 120.0
            },
            {
                "start_time": 13.2704545,
                "end_time": 13.5204545,
                "pitch": 103,
                "velocity": 64,
                "duration": 0.25,
                "tempo": 120.0
            },
            {
                "start_time": 14.5227273,
                "end_time": 14.7727273,
                "pitch": 79,
                "velocity": 80,
                "duration": 0.25,
                "tempo": 120.0
            },
            {
                "start_time": 14.7727273,
                "end_time": 15.0227273,
                "pitch": 91,
                "velocity": 80,
                "duration": 0.25,
                "tempo": 120.0
            },
            {
                "start_time": 15.0227273,
                "end_time": 15.2727273,
                "pitch": 79,
                "velocity": 80,
                "duration": 0.25,
                "tempo": 120.0
            },
            {
                "start_time": 15.275,
                "end_time": 15.5227273,
                "pitch": 91,
                "velocity": 80,
                "duration": 0.2477273,
                "tempo": 120.0
            },
            {
                "start_time": 15.6909091,
                "end_time": 15.775,
                "pitch": 91,
                "velocity": 80,
                "duration": 0.0840909,
                "tempo": 120.0
            },
            {
                "start_time": 15.775,
                "end_time": 15.9409091,
                "pitch": 94,
                "velocity": 80,
                "duration": 0.1659091,
                "tempo": 120.0
            },
            {
                "start_time": 15.9409091,
                "end_time": 16.025,
                "pitch": 96,
                "velocity": 80,
                "duration": 0.0840909,
                "tempo": 120.0
            },
            {
                "start_time": 16.025,
                "end_time": 16.275,
                "pitch": 97,
                "velocity": 80,
                "duration": 0.25,
                "tempo": 120.0
            },
            {
                "start_time": 16.275,
                "end_time": 16.4409091,
                "pitch": 96,
                "velocity": 80,
                "duration": 0.1659091,
                "tempo": 120.0
            },
            {
                "start_time": 16.4409091,
                "end_time": 16.525,
                "pitch": 94,
                "velocity": 80,
                "duration": 0.0840909,
                "tempo": 120.0
            },
            {
                "start_time": 16.525,
                "end_time": 16.775,
                "pitch": 89,
                "velocity": 80,
                "duration": 0.25,
                "tempo": 120.0
            },
            {
                "start_time": 16.775,
                "end_time": 17.025,
                "pitch": 91,
                "velocity": 80,
                "duration": 0.25,
                "tempo": 120.0
            },
            {
                "start_time": 18.5272727,
                "end_time": 18.7772727,
                "pitch": 79,
                "velocity": 80,
                "duration": 0.25,
                "tempo": 120.0
            },
            {
                "start_time": 18.7772727,
                "end_time": 19.0272727,
                "pitch": 91,
                "velocity": 80,
                "duration": 0.25,
                "tempo": 120.0
            },
            {
                "start_time": 19.0295455,
                "end_time": 19.2795455,
                "pitch": 79,
                "velocity": 80,
                "duration": 0.25,
                "tempo": 120.0
            },
            {
                "start_time": 19.2795455,
                "end_time": 19.5295455,
                "pitch": 91,
                "velocity": 80,
                "duration": 0.25,
                "tempo": 120.0
            },
            {
                "start_time": 19.6954545,
                "end_time": 19.7795455,
                "pitch": 91,
                "velocity": 80,
                "duration": 0.0840909,
                "tempo": 120.0
            },
            {
                "start_time": 19.7795455,
                "end_time": 19.9522727,
                "pitch": 94,
                "velocity": 80,
                "duration": 0.1727273,
                "tempo": 120.0
            },
            {
                "start_time": 19.9522727,
                "end_time": 20.0363636,
                "pitch": 96,
                "velocity": 80,
                "duration": 0.0840909,
                "tempo": 120.0
            },
            {
                "start_time": 20.0363636,
                "end_time": 20.2931818,
                "pitch": 97,
                "velocity": 80,
                "duration": 0.2568182,
                "tempo": 120.0
            },
            {
                "start_time": 20.2931818,
                "end_time": 20.4590909,
                "pitch": 96,
                "velocity": 80,
                "duration": 0.1659091,
                "tempo": 120.0
            },
            {
                "start_time": 20.4590909,
                "end_time": 20.5431818,
                "pitch": 89,
                "velocity": 80,
                "duration": 0.0840909,
                "tempo": 120.0
            },
            {
                "start_time": 20.5431818,
                "end_time": 20.8431818,
                "pitch": 91,
                "velocity": 80,
                "duration": 0.3,
                "tempo": 120.0
            },
            {
                "start_time": 20.8431818,
                "end_time": 20.8590909,
                "pitch": 91,
                "velocity": 80,
                "duration": 0.0159091,
                "tempo": 120.0
            },
            {
                "start_time": 20.8431818,
                "end_time": 20.8590909,
                "pitch": 103,
                "velocity": 80,
                "duration": 0.0159091,
                "tempo": 120.0
            },
            {
                "start_time": 20.8590909,
                "end_time": 20.8931818,
                "pitch": 91,
                "velocity": 80,
                "duration": 0.0340909,
                "tempo": 120.0
            },
            {
                "start_time": 20.8590909,
                "end_time": 20.8931818,
                "pitch": 103,
                "velocity": 80,
                "duration": 0.0340909,
                "tempo": 120.0
            },
            {
                "start_time": 20.8931818,
                "end_time": 20.9090909,
                "pitch": 91,
                "velocity": 80,
                "duration": 0.0159091,
                "tempo": 120.0
            },
            {
                "start_time": 20.9090909,
                "end_time": 20.9431818,
                "pitch": 91,
                "velocity": 80,
                "duration": 0.0340909,
                "tempo": 120.0
            },
            {
                "start_time": 20.8931818,
                "end_time": 20.9431818,
                "pitch": 103,
                "velocity": 80,
                "duration": 0.05,
                "tempo": 120.0
            },
            {
                "start_time": 20.9431818,
                "end_time": 21.0931818,
                "pitch": 91,
                "velocity": 80,
                "duration": 0.15,
                "tempo": 120.0
            },
            {
                "start_time": 20.9431818,
                "end_time": 21.0931818,
                "pitch": 103,
                "velocity": 80,
                "duration": 0.15,
                "tempo": 120.0
            },
            {
                "start_time": 21.0931818,
                "end_time": 21.5454545,
                "pitch": 90,
                "velocity": 80,
                "duration": 0.4522727,
                "tempo": 120.0
            },
            {
                "start_time": 21.0931818,
                "end_time": 21.6272727,
                "pitch": 91,
                "velocity": 80,
                "duration": 0.5340909,
                "tempo": 120.0
            },
            {
                "start_time": 21.5454545,
                "end_time": 21.6272727,
                "pitch": 91,
                "velocity": 80,
                "duration": 0.0818182,
                "tempo": 120.0
            },
            {
                "start_time": 21.6272727,
                "end_time": 21.7113636,
                "pitch": 89,
                "velocity": 80,
                "duration": 0.0840909,
                "tempo": 120.0
            },
            {
                "start_time": 21.7113636,
                "end_time": 21.7954545,
                "pitch": 86,
                "velocity": 80,
                "duration": 0.0840909,
                "tempo": 120.0
            },
            {
                "start_time": 21.7954545,
                "end_time": 21.8772727,
                "pitch": 89,
                "velocity": 80,
                "duration": 0.0818182,
                "tempo": 120.0
            },
            {
                "start_time": 21.8772727,
                "end_time": 21.9613636,
                "pitch": 88,
                "velocity": 80,
                "duration": 0.0840909,
                "tempo": 120.0
            },
            {
                "start_time": 21.9613636,
                "end_time": 22.0454545,
                "pitch": 84,
                "velocity": 80,
                "duration": 0.0840909,
                "tempo": 120.0
            },
            {
                "start_time": 22.0454545,
                "end_time": 22.1272727,
                "pitch": 87,
                "velocity": 80,
                "duration": 0.0818182,
                "tempo": 120.0
            },
            {
                "start_time": 22.1295455,
                "end_time": 22.2113636,
                "pitch": 86,
                "velocity": 80,
                "duration": 0.0818182,
                "tempo": 120.0
            },
            {
                "start_time": 22.2113636,
                "end_time": 22.2954545,
                "pitch": 82,
                "velocity": 80,
                "duration": 0.0840909,
                "tempo": 120.0
            },
            {
                "start_time": 22.2954545,
                "end_time": 22.5454545,
                "pitch": 84,
                "velocity": 80,
                "duration": 0.25,
                "tempo": 120.0
            },
            {
                "start_time": 26.5522727,
                "end_time": 26.6340909,
                "pitch": 91,
                "velocity": 80,
                "duration": 0.0818182,
                "tempo": 120.0
            },
            {
                "start_time": 26.6340909,
                "end_time": 26.7181818,
                "pitch": 90,
                "velocity": 80,
                "duration": 0.0840909,
                "tempo": 120.0
            },
            {
                "start_time": 26.7181818,
                "end_time": 26.8,
                "pitch": 86,
                "velocity": 80,
                "duration": 0.0818182,
                "tempo": 120.0
            },
            {
                "start_time": 26.8022727,
                "end_time": 26.8840909,
                "pitch": 89,
                "velocity": 80,
                "duration": 0.0818182,
                "tempo": 120.0
            },
            {
                "start_time": 26.8840909,
                "end_time": 26.9681818,
                "pitch": 88,
                "velocity": 80,
                "duration": 0.0840909,
                "tempo": 120.0
            },
            {
                "start_time": 26.9681818,
                "end_time": 27.0522727,
                "pitch": 84,
                "velocity": 80,
                "duration": 0.0840909,
                "tempo": 120.0
            },
            {
                "start_time": 27.0522727,
                "end_time": 27.1340909,
                "pitch": 87,
                "velocity": 80,
                "duration": 0.0818182,
                "tempo": 120.0
            },
            {
                "start_time": 27.1340909,
                "end_time": 27.2181818,
                "pitch": 86,
                "velocity": 80,
                "duration": 0.0840909,
                "tempo": 120.0
            },
            {
                "start_time": 27.2181818,
                "end_time": 27.3022727,
                "pitch": 82,
                "velocity": 80,
                "duration": 0.0840909,
                "tempo": 120.0
            },
            {
                "start_time": 27.3022727,
                "end_time": 27.3840909,
                "pitch": 84,
                "velocity": 80,
                "duration": 0.0818182,
                "tempo": 120.0
            },
            {
                "start_time": 27.3863636,
                "end_time": 27.4681818,
                "pitch": 86,
                "velocity": 80,
                "duration": 0.0818182,
                "tempo": 120.0
            },
            {
                "start_time": 27.4681818,
                "end_time": 27.5522727,
                "pitch": 84,
                "velocity": 80,
                "duration": 0.0840909,
                "tempo": 120.0
            },
            {
                "start_time": 27.5522727,
                "end_time": 27.6363636,
                "pitch": 89,
                "velocity": 80,
                "duration": 0.0840909,
                "tempo": 120.0
            },
            {
                "start_time": 27.6363636,
                "end_time": 27.7181818,
                "pitch": 88,
                "velocity": 80,
                "duration": 0.0818182,
                "tempo": 120.0
            },
            {
                "start_time": 27.7181818,
                "end_time": 27.8022727,
                "pitch": 84,
                "velocity": 80,
                "duration": 0.0840909,
                "tempo": 120.0
            },
            {
                "start_time": 27.8045455,
                "end_time": 27.8886364,
                "pitch": 87,
                "velocity": 80,
                "duration": 0.0840909,
                "tempo": 120.0
            },
            {
                "start_time": 27.8886364,
                "end_time": 27.975,
                "pitch": 86,
                "velocity": 80,
                "duration": 0.0863636,
                "tempo": 120.0
            },
            {
                "start_time": 27.975,
                "end_time": 28.0590909,
                "pitch": 82,
                "velocity": 80,
                "duration": 0.0840909,
                "tempo": 120.0
            },
            {
                "start_time": 28.0613636,
                "end_time": 28.1454545,
                "pitch": 85,
                "velocity": 80,
                "duration": 0.0840909,
                "tempo": 120.0
            },
            {
                "start_time": 28.1454545,
                "end_time": 28.2318182,
                "pitch": 84,
                "velocity": 80,
                "duration": 0.0863636,
                "tempo": 120.0
            },
            {
                "start_time": 28.2318182,
                "end_time": 28.3159091,
                "pitch": 80,
                "velocity": 80,
                "duration": 0.0840909,
                "tempo": 120.0
            },
            {
                "start_time": 28.3159091,
                "end_time": 28.4,
                "pitch": 82,
                "velocity": 80,
                "duration": 0.0840909,
                "tempo": 120.0
            },
            {
                "start_time": 28.4,
                "end_time": 28.4818182,
                "pitch": 84,
                "velocity": 80,
                "duration": 0.0818182,
                "tempo": 120.0
            },
            {
                "start_time": 28.4818182,
                "end_time": 28.5659091,
                "pitch": 82,
                "velocity": 80,
                "duration": 0.0840909,
                "tempo": 120.0
            },
            {
                "start_time": 28.5659091,
                "end_time": 28.65,
                "pitch": 79,
                "velocity": 80,
                "duration": 0.0840909,
                "tempo": 120.0
            },
            {
                "start_time": 28.65,
                "end_time": 28.7318182,
                "pitch": 78,
                "velocity": 80,
                "duration": 0.0818182,
                "tempo": 120.0
            },
            {
                "start_time": 28.7340909,
                "end_time": 28.8159091,
                "pitch": 74,
                "velocity": 80,
                "duration": 0.0818182,
                "tempo": 120.0
            },
            {
                "start_time": 28.8159091,
                "end_time": 28.9,
                "pitch": 77,
                "velocity": 80,
                "duration": 0.0840909,
                "tempo": 120.0
            },
            {
                "start_time": 28.9,
                "end_time": 28.9840909,
                "pitch": 76,
                "velocity": 80,
                "duration": 0.0840909,
                "tempo": 120.0
            },
            {
                "start_time": 28.9840909,
                "end_time": 29.0659091,
                "pitch": 72,
                "velocity": 80,
                "duration": 0.0818182,
                "tempo": 120.0
            },
            {
                "start_time": 29.0659091,
                "end_time": 29.15,
                "pitch": 75,
                "velocity": 80,
                "duration": 0.0840909,
                "tempo": 120.0
            },
            {
                "start_time": 29.15,
                "end_time": 29.2340909,
                "pitch": 74,
                "velocity": 80,
                "duration": 0.0840909,
                "tempo": 120.0
            },
            {
                "start_time": 29.2340909,
                "end_time": 29.3159091,
                "pitch": 70,
                "velocity": 80,
                "duration": 0.0818182,
                "tempo": 120.0
            },
            {
                "start_time": 29.3181818,
                "end_time": 29.4,
                "pitch": 72,
                "velocity": 80,
                "duration": 0.0818182,
                "tempo": 120.0
            },
            {
                "start_time": 29.4,
                "end_time": 29.4840909,
                "pitch": 74,
                "velocity": 80,
                "duration": 0.0840909,
                "tempo": 120.0
            },
            {
                "start_time": 29.4840909,
                "end_time": 29.5681818,
                "pitch": 72,
                "velocity": 80,
                "duration": 0.0840909,
                "tempo": 120.0
            },
            {
                "start_time": 29.5681818,
                "end_time": 29.65,
                "pitch": 77,
                "velocity": 80,
                "duration": 0.0818182,
                "tempo": 120.0
            },
            {
                "start_time": 29.65,
                "end_time": 29.7340909,
                "pitch": 76,
                "velocity": 80,
                "duration": 0.0840909,
                "tempo": 120.0
            },
            {
                "start_time": 29.7340909,
                "end_time": 29.8181818,
                "pitch": 72,
                "velocity": 80,
                "duration": 0.0840909,
                "tempo": 120.0
            },
            {
                "start_time": 29.8181818,
                "end_time": 29.9,
                "pitch": 75,
                "velocity": 80,
                "duration": 0.0818182,
                "tempo": 120.0
            },
            {
                "start_time": 29.9022727,
                "end_time": 29.9840909,
                "pitch": 74,
                "velocity": 80,
                "duration": 0.0818182,
                "tempo": 120.0
            },
            {
                "start_time": 29.9840909,
                "end_time": 30.0681818,
                "pitch": 70,
                "velocity": 80,
                "duration": 0.0840909,
                "tempo": 120.0
            },
            {
                "start_time": 30.0681818,
                "end_time": 30.1522727,
                "pitch": 73,
                "velocity": 80,
                "duration": 0.0840909,
                "tempo": 120.0
            },
            {
                "start_time": 30.1522727,
                "end_time": 30.2340909,
                "pitch": 72,
                "velocity": 80,
                "duration": 0.0818182,
                "tempo": 120.0
            },
            {
                "start_time": 30.2340909,
                "end_time": 30.3181818,
                "pitch": 68,
                "velocity": 80,
                "duration": 0.0840909,
                "tempo": 120.0
            },
            {
                "start_time": 30.3181818,
                "end_time": 30.4022727,
                "pitch": 70,
                "velocity": 80,
                "duration": 0.0840909,
                "tempo": 120.0
            },
            {
                "start_time": 30.4022727,
                "end_time": 30.4840909,
                "pitch": 72,
                "velocity": 80,
                "duration": 0.0818182,
                "tempo": 120.0
            },
            {
                "start_time": 30.4863636,
                "end_time": 30.5681818,
                "pitch": 70,
                "velocity": 80,
                "duration": 0.0818182,
                "tempo": 120.0
            },
            {
                "start_time": 30.5681818,
                "end_time": 30.6863636,
                "pitch": 67,
                "velocity": 80,
                "duration": 0.1181818,
                "tempo": 120.0
            },
            {
                "start_time": 30.7363636,
                "end_time": 30.8022727,
                "pitch": 69,
                "velocity": 80,
                "duration": 0.0659091,
                "tempo": 120.0
            },
            {
                "start_time": 30.8181818,
                "end_time": 30.9363636,
                "pitch": 69,
                "velocity": 80,
                "duration": 0.1181818,
                "tempo": 120.0
            },
            {
                "start_time": 30.9863636,
                "end_time": 31.0522727,
                "pitch": 67,
                "velocity": 80,
                "duration": 0.0659091,
                "tempo": 120.0
            },
            {
                "start_time": 31.0704545,
                "end_time": 31.1863636,
                "pitch": 68,
                "velocity": 80,
                "duration": 0.1159091,
                "tempo": 120.0
            },
            {
                "start_time": 31.2363636,
                "end_time": 31.3022727,
                "pitch": 70,
                "velocity": 80,
                "duration": 0.0659091,
                "tempo": 120.0
            },
            {
                "start_time": 31.3204545,
                "end_time": 31.4363636,
                "pitch": 70,
                "velocity": 80,
                "duration": 0.1159091,
                "tempo": 120.0
            },
            {
                "start_time": 31.4863636,
                "end_time": 31.5522727,
                "pitch": 68,
                "velocity": 80,
                "duration": 0.0659091,
                "tempo": 120.0
            },
            {
                "start_time": 31.5704545,
                "end_time": 31.6863636,
                "pitch": 69,
                "velocity": 80,
                "duration": 0.1159091,
                "tempo": 120.0
            },
            {
                "start_time": 31.7363636,
                "end_time": 31.8045455,
                "pitch": 71,
                "velocity": 80,
                "duration": 0.0681818,
                "tempo": 120.0
            },
            {
                "start_time": 31.8204545,
                "end_time": 31.9363636,
                "pitch": 71,
                "velocity": 80,
                "duration": 0.1159091,
                "tempo": 120.0
            },
            {
                "start_time": 31.9863636,
                "end_time": 32.0545455,
                "pitch": 69,
                "velocity": 80,
                "duration": 0.0681818,
                "tempo": 120.0
            },
            {
                "start_time": 32.0704545,
                "end_time": 32.1886364,
                "pitch": 70,
                "velocity": 80,
                "duration": 0.1181818,
                "tempo": 120.0
            },
            {
                "start_time": 32.2386364,
                "end_time": 32.3045455,
                "pitch": 72,
                "velocity": 80,
                "duration": 0.0659091,
                "tempo": 120.0
            },
            {
                "start_time": 32.3204545,
                "end_time": 32.4386364,
                "pitch": 72,
                "velocity": 80,
                "duration": 0.1181818,
                "tempo": 120.0
            },
            {
                "start_time": 32.4909091,
                "end_time": 32.5568182,
                "pitch": 70,
                "velocity": 80,
                "duration": 0.0659091,
                "tempo": 120.0
            },
            {
                "start_time": 32.575,
                "end_time": 32.6568182,
                "pitch": 71,
                "velocity": 80,
                "duration": 0.0818182,
                "tempo": 120.0
            },
            {
                "start_time": 32.7431818,
                "end_time": 32.7931818,
                "pitch": 73,
                "velocity": 80,
                "duration": 0.05,
                "tempo": 120.0
            },
            {
                "start_time": 32.825,
                "end_time": 32.9090909,
                "pitch": 73,
                "velocity": 80,
                "duration": 0.0840909,
                "tempo": 120.0
            },
            {
                "start_time": 32.9931818,
                "end_time": 33.0431818,
                "pitch": 71,
                "velocity": 80,
                "duration": 0.05,
                "tempo": 120.0
            },
            {
                "start_time": 33.0772727,
                "end_time": 33.1590909,
                "pitch": 72,
                "velocity": 80,
                "duration": 0.0818182,
                "tempo": 120.0
            },
            {
                "start_time": 33.2431818,
                "end_time": 33.2931818,
                "pitch": 74,
                "velocity": 80,
                "duration": 0.05,
                "tempo": 120.0
            },
            {
                "start_time": 33.3272727,
                "end_time": 33.4090909,
                "pitch": 74,
                "velocity": 80,
                "duration": 0.0818182,
                "tempo": 120.0
            },
            {
                "start_time": 33.4931818,
                "end_time": 33.5431818,
                "pitch": 72,
                "velocity": 80,
                "duration": 0.05,
                "tempo": 120.0
            },
            {
                "start_time": 33.5772727,
                "end_time": 33.6590909,
                "pitch": 73,
                "velocity": 80,
                "duration": 0.0818182,
                "tempo": 120.0
            },
            {
                "start_time": 33.7431818,
                "end_time": 33.7931818,
                "pitch": 75,
                "velocity": 80,
                "duration": 0.05,
                "tempo": 120.0
            },
            {
                "start_time": 33.8272727,
                "end_time": 33.9113636,
                "pitch": 75,
                "velocity": 80,
                "duration": 0.0840909,
                "tempo": 120.0
            },
            {
                "start_time": 33.9931818,
                "end_time": 34.0431818,
                "pitch": 73,
                "velocity": 80,
                "duration": 0.05,
                "tempo": 120.0
            },
            {
                "start_time": 34.0772727,
                "end_time": 34.1613636,
                "pitch": 74,
                "velocity": 80,
                "duration": 0.0840909,
                "tempo": 120.0
            },
            {
                "start_time": 34.2454545,
                "end_time": 34.2931818,
                "pitch": 76,
                "velocity": 80,
                "duration": 0.0477273,
                "tempo": 120.0
            },
            {
                "start_time": 34.3272727,
                "end_time": 34.4113636,
                "pitch": 76,
                "velocity": 80,
                "duration": 0.0840909,
                "tempo": 120.0
            },
            {
                "start_time": 34.4954545,
                "end_time": 34.5454545,
                "pitch": 74,
                "velocity": 80,
                "duration": 0.05,
                "tempo": 120.0
            },
            {
                "start_time": 34.5772727,
                "end_time": 34.7113636,
                "pitch": 75,
                "velocity": 80,
                "duration": 0.1340909,
                "tempo": 120.0
            },
            {
                "start_time": 36.5886364,
                "end_time": 36.7204545,
                "pitch": 68,
                "velocity": 80,
                "duration": 0.1318182,
                "tempo": 120.0
            },
            {
                "start_time": 36.8363636,
                "end_time": 36.9727273,
                "pitch": 70,
                "velocity": 80,
                "duration": 0.1363636,
                "tempo": 120.0
            },
            {
                "start_time": 37.0931818,
                "end_time": 37.2295455,
                "pitch": 68,
                "velocity": 80,
                "duration": 0.1363636,
                "tempo": 120.0
            },
            {
                "start_time": 37.35,
                "end_time": 37.4818182,
                "pitch": 67,
                "velocity": 80,
                "duration": 0.1318182,
                "tempo": 120.0
            },
            {
                "start_time": 37.6,
                "end_time": 38.1,
                "pitch": 66,
                "velocity": 80,
                "duration": 0.5,
                "tempo": 120.0
            },
            {
                "start_time": 38.85,
                "end_time": 39.1,
                "pitch": 91,
                "velocity": 80,
                "duration": 0.25,
                "tempo": 120.0
            },
            {
                "start_time": 21.0931818,
                "end_time": 39.3522727,
                "pitch": 103,
                "velocity": 80,
                "duration": 18.2590909,
                "tempo": 120.0
            },
            {
                "start_time": 39.1022727,
                "end_time": 39.3522727,
                "pitch": 103,
                "velocity": 80,
                "duration": 0.25,
                "tempo": 120.0
            },
            {
                "start_time": 39.6022727,
                "end_time": 39.8522727,
                "pitch": 91,
                "velocity": 80,
                "duration": 0.25,
                "tempo": 120.0
            },
            {
                "start_time": 39.8522727,
                "end_time": 40.1022727,
                "pitch": 103,
                "velocity": 80,
                "duration": 0.25,
                "tempo": 120.0
            },
            {
                "start_time": 40.3522727,
                "end_time": 40.6022727,
                "pitch": 91,
                "velocity": 80,
                "duration": 0.25,
                "tempo": 120.0
            },
            {
                "start_time": 40.6022727,
                "end_time": 40.8522727,
                "pitch": 103,
                "velocity": 80,
                "duration": 0.25,
                "tempo": 120.0
            },
            {
                "start_time": 41.1045455,
                "end_time": 41.3545455,
                "pitch": 91,
                "velocity": 80,
                "duration": 0.25,
                "tempo": 120.0
            },
            {
                "start_time": 41.3545455,
                "end_time": 41.6045455,
                "pitch": 103,
                "velocity": 80,
                "duration": 0.25,
                "tempo": 120.0
            },
            {
                "start_time": 42.8568182,
                "end_time": 43.1136364,
                "pitch": 91,
                "velocity": 80,
                "duration": 0.2568182,
                "tempo": 120.0
            },
            {
                "start_time": 43.1136364,
                "end_time": 43.3681818,
                "pitch": 103,
                "velocity": 80,
                "duration": 0.2545455,
                "tempo": 120.0
            },
            {
                "start_time": 43.6136364,
                "end_time": 43.8613636,
                "pitch": 91,
                "velocity": 80,
                "duration": 0.2477273,
                "tempo": 120.0
            },
            {
                "start_time": 43.8636364,
                "end_time": 44.1181818,
                "pitch": 103,
                "velocity": 80,
                "duration": 0.2545455,
                "tempo": 120.0
            },
            {
                "start_time": 44.375,
                "end_time": 44.625,
                "pitch": 91,
                "velocity": 80,
                "duration": 0.25,
                "tempo": 120.0
            },
            {
                "start_time": 44.625,
                "end_time": 44.875,
                "pitch": 103,
                "velocity": 80,
                "duration": 0.25,
                "tempo": 120.0
            },
            {
                "start_time": 45.125,
                "end_time": 45.375,
                "pitch": 91,
                "velocity": 80,
                "duration": 0.25,
                "tempo": 120.0
            },
            {
                "start_time": 45.3772727,
                "end_time": 45.6272727,
                "pitch": 103,
                "velocity": 80,
                "duration": 0.25,
                "tempo": 120.0
            },
            {
                "start_time": 46.6272727,
                "end_time": 46.8772727,
                "pitch": 79,
                "velocity": 80,
                "duration": 0.25,
                "tempo": 120.0
            },
            {
                "start_time": 46.8772727,
                "end_time": 47.1272727,
                "pitch": 91,
                "velocity": 80,
                "duration": 0.25,
                "tempo": 120.0
            },
            {
                "start_time": 47.1295455,
                "end_time": 47.3795455,
                "pitch": 79,
                "velocity": 80,
                "duration": 0.25,
                "tempo": 120.0
            },
            {
                "start_time": 47.3795455,
                "end_time": 47.6295455,
                "pitch": 91,
                "velocity": 80,
                "duration": 0.25,
                "tempo": 120.0
            },
            {
                "start_time": 47.7954545,
                "end_time": 47.8795455,
                "pitch": 91,
                "velocity": 80,
                "duration": 0.0840909,
                "tempo": 120.0
            },
            {
                "start_time": 47.8795455,
                "end_time": 48.0454545,
                "pitch": 94,
                "velocity": 80,
                "duration": 0.1659091,
                "tempo": 120.0
            },
            {
                "start_time": 48.0454545,
                "end_time": 48.1295455,
                "pitch": 96,
                "velocity": 80,
                "duration": 0.0840909,
                "tempo": 120.0
            },
            {
                "start_time": 48.1295455,
                "end_time": 48.3795455,
                "pitch": 97,
                "velocity": 80,
                "duration": 0.25,
                "tempo": 120.0
            },
            {
                "start_time": 48.3795455,
                "end_time": 48.5477273,
                "pitch": 96,
                "velocity": 80,
                "duration": 0.1681818,
                "tempo": 120.0
            },
            {
                "start_time": 48.5477273,
                "end_time": 48.6295455,
                "pitch": 94,
                "velocity": 80,
                "duration": 0.0818182,
                "tempo": 120.0
            },
            {
                "start_time": 48.6295455,
                "end_time": 48.8795455,
                "pitch": 89,
                "velocity": 80,
                "duration": 0.25,
                "tempo": 120.0
            },
            {
                "start_time": 48.8818182,
                "end_time": 49.1318182,
                "pitch": 91,
                "velocity": 80,
                "duration": 0.25,
                "tempo": 120.0
            },
            {
                "start_time": 50.6340909,
                "end_time": 50.8840909,
                "pitch": 79,
                "velocity": 80,
                "duration": 0.25,
                "tempo": 120.0
            },
            {
                "start_time": 50.8840909,
                "end_time": 51.1409091,
                "pitch": 91,
                "velocity": 80,
                "duration": 0.2568182,
                "tempo": 120.0
            },
            {
                "start_time": 51.1409091,
                "end_time": 51.3977273,
                "pitch": 79,
                "velocity": 80,
                "duration": 0.2568182,
                "tempo": 120.0
            },
            {
                "start_time": 51.3977273,
                "end_time": 51.6477273,
                "pitch": 91,
                "velocity": 80,
                "duration": 0.25,
                "tempo": 120.0
            },
            {
                "start_time": 51.8136364,
                "end_time": 51.8977273,
                "pitch": 91,
                "velocity": 80,
                "duration": 0.0840909,
                "tempo": 120.0
            },
            {
                "start_time": 51.8977273,
                "end_time": 52.0636364,
                "pitch": 94,
                "velocity": 80,
                "duration": 0.1659091,
                "tempo": 120.0
            },
            {
                "start_time": 52.0636364,
                "end_time": 52.1477273,
                "pitch": 96,
                "velocity": 80,
                "duration": 0.0840909,
                "tempo": 120.0
            },
            {
                "start_time": 52.1477273,
                "end_time": 52.3977273,
                "pitch": 97,
                "velocity": 80,
                "duration": 0.25,
                "tempo": 120.0
            },
            {
                "start_time": 52.3977273,
                "end_time": 52.5636364,
                "pitch": 96,
                "velocity": 80,
                "duration": 0.1659091,
                "tempo": 120.0
            },
            {
                "start_time": 52.5659091,
                "end_time": 52.6477273,
                "pitch": 89,
                "velocity": 80,
                "duration": 0.0818182,
                "tempo": 120.0
            },
            {
                "start_time": 52.6477273,
                "end_time": 52.9477273,
                "pitch": 91,
                "velocity": 80,
                "duration": 0.3,
                "tempo": 120.0
            },
            {
                "start_time": 52.9477273,
                "end_time": 52.9659091,
                "pitch": 91,
                "velocity": 80,
                "duration": 0.0181818,
                "tempo": 120.0
            },
            {
                "start_time": 52.9477273,
                "end_time": 52.9659091,
                "pitch": 103,
                "velocity": 80,
                "duration": 0.0181818,
                "tempo": 120.0
            },
            {
                "start_time": 52.9659091,
                "end_time": 52.9977273,
                "pitch": 91,
                "velocity": 80,
                "duration": 0.0318182,
                "tempo": 120.0
            },
            {
                "start_time": 52.9659091,
                "end_time": 53.0,
                "pitch": 103,
                "velocity": 80,
                "duration": 0.0340909,
                "tempo": 120.0
            },
            {
                "start_time": 52.9977273,
                "end_time": 53.0,
                "pitch": 103,
                "velocity": 80,
                "duration": 0.0022727,
                "tempo": 120.0
            },
            {
                "start_time": 20.9090909,
                "end_time": 53.0159091,
                "pitch": 14,
                "velocity": 80,
                "duration": 32.1068182,
                "tempo": 120.0
            },
            {
                "start_time": 53.0,
                "end_time": 53.0159091,
                "pitch": 91,
                "velocity": 80,
                "duration": 0.0159091,
                "tempo": 120.0
            },
            {
                "start_time": 53.0159091,
                "end_time": 53.05,
                "pitch": 91,
                "velocity": 80,
                "duration": 0.0340909,
                "tempo": 120.0
            },
            {
                "start_time": 21.0931818,
                "end_time": 53.2,
                "pitch": 0,
                "velocity": 80,
                "duration": 32.1068182,
                "tempo": 120.0
            },
            {
                "start_time": 53.05,
                "end_time": 53.2,
                "pitch": 91,
                "velocity": 80,
                "duration": 0.15,
                "tempo": 120.0
            },
            {
                "start_time": 53.05,
                "end_time": 53.2,
                "pitch": 103,
                "velocity": 80,
                "duration": 0.15,
                "tempo": 120.0
            },
            {
                "start_time": 53.2,
                "end_time": 53.65,
                "pitch": 90,
                "velocity": 80,
                "duration": 0.45,
                "tempo": 120.0
            },
            {
                "start_time": 53.2,
                "end_time": 53.7318182,
                "pitch": 91,
                "velocity": 80,
                "duration": 0.5318182,
                "tempo": 120.0
            },
            {
                "start_time": 53.65,
                "end_time": 53.7318182,
                "pitch": 91,
                "velocity": 80,
                "duration": 0.0818182,
                "tempo": 120.0
            },
            {
                "start_time": 53.7340909,
                "end_time": 53.8159091,
                "pitch": 89,
                "velocity": 80,
                "duration": 0.0818182,
                "tempo": 120.0
            },
            {
                "start_time": 53.8159091,
                "end_time": 53.9,
                "pitch": 86,
                "velocity": 80,
                "duration": 0.0840909,
                "tempo": 120.0
            },
            {
                "start_time": 53.9,
                "end_time": 53.9840909,
                "pitch": 89,
                "velocity": 80,
                "duration": 0.0840909,
                "tempo": 120.0
            },
            {
                "start_time": 53.9840909,
                "end_time": 54.0659091,
                "pitch": 88,
                "velocity": 80,
                "duration": 0.0818182,
                "tempo": 120.0
            },
            {
                "start_time": 54.0659091,
                "end_time": 54.15,
                "pitch": 84,
                "velocity": 80,
                "duration": 0.0840909,
                "tempo": 120.0
            },
            {
                "start_time": 54.15,
                "end_time": 54.2340909,
                "pitch": 87,
                "velocity": 80,
                "duration": 0.0840909,
                "tempo": 120.0
            },
            {
                "start_time": 54.2340909,
                "end_time": 54.3159091,
                "pitch": 86,
                "velocity": 80,
                "duration": 0.0818182,
                "tempo": 120.0
            },
            {
                "start_time": 54.3181818,
                "end_time": 54.3522727,
                "pitch": 82,
                "velocity": 80,
                "duration": 0.0340909,
                "tempo": 120.0
            }
        ],
        "Lead 2 (sawtooth)": [
            {
                "start_time": 0.1613636,
                "end_time": 2.1727273,
                "pitch": 43,
                "velocity": 80,
                "duration": 2.0113636,
                "tempo": 120.0
            },
            {
                "start_time": 2.175,
                "end_time": 4.1818182,
                "pitch": 44,
                "velocity": 80,
                "duration": 2.0068182,
                "tempo": 120.0
            },
            {
                "start_time": 4.1818182,
                "end_time": 4.4295455,
                "pitch": 44,
                "velocity": 80,
                "duration": 0.2477273,
                "tempo": 120.0
            },
            {
                "start_time": 4.4318182,
                "end_time": 4.6818182,
                "pitch": 46,
                "velocity": 80,
                "duration": 0.25,
                "tempo": 120.0
            },
            {
                "start_time": 4.6818182,
                "end_time": 4.9386364,
                "pitch": 44,
                "velocity": 80,
                "duration": 0.2568182,
                "tempo": 120.0
            },
            {
                "start_time": 4.9386364,
                "end_time": 5.1954545,
                "pitch": 43,
                "velocity": 80,
                "duration": 0.2568182,
                "tempo": 120.0
            },
            {
                "start_time": 5.1954545,
                "end_time": 5.4431818,
                "pitch": 42,
                "velocity": 80,
                "duration": 0.2477273,
                "tempo": 120.0
            },
            {
                "start_time": 5.4454545,
                "end_time": 5.6113636,
                "pitch": 42,
                "velocity": 80,
                "duration": 0.1659091,
                "tempo": 120.0
            },
            {
                "start_time": 5.6113636,
                "end_time": 5.6613636,
                "pitch": 43,
                "velocity": 80,
                "duration": 0.05,
                "tempo": 120.0
            },
            {
                "start_time": 5.6613636,
                "end_time": 5.6954545,
                "pitch": 46,
                "velocity": 80,
                "duration": 0.0340909,
                "tempo": 120.0
            },
            {
                "start_time": 5.6954545,
                "end_time": 5.7454545,
                "pitch": 48,
                "velocity": 80,
                "duration": 0.05,
                "tempo": 120.0
            },
            {
                "start_time": 5.7454545,
                "end_time": 5.7772727,
                "pitch": 51,
                "velocity": 80,
                "duration": 0.0318182,
                "tempo": 120.0
            },
            {
                "start_time": 5.7772727,
                "end_time": 5.8613636,
                "pitch": 53,
                "velocity": 80,
                "duration": 0.0840909,
                "tempo": 120.0
            },
            {
                "start_time": 5.8613636,
                "end_time": 5.9272727,
                "pitch": 51,
                "velocity": 80,
                "duration": 0.0659091,
                "tempo": 120.0
            },
            {
                "start_time": 5.9272727,
                "end_time": 5.9954545,
                "pitch": 49,
                "velocity": 80,
                "duration": 0.0681818,
                "tempo": 120.0
            },
            {
                "start_time": 5.9954545,
                "end_time": 6.0613636,
                "pitch": 47,
                "velocity": 80,
                "duration": 0.0659091,
                "tempo": 120.0
            },
            {
                "start_time": 6.0613636,
                "end_time": 6.1613636,
                "pitch": 45,
                "velocity": 80,
                "duration": 0.1,
                "tempo": 120.0
            },
            {
                "start_time": 6.1613636,
                "end_time": 6.1977273,
                "pitch": 41,
                "velocity": 80,
                "duration": 0.0363636,
                "tempo": 120.0
            },
            {
                "start_time": 6.1977273,
                "end_time": 6.4477273,
                "pitch": 43,
                "velocity": 51,
                "duration": 0.25,
                "tempo": 120.0
            },
            {
                "start_time": 6.4477273,
                "end_time": 6.6977273,
                "pitch": 55,
                "velocity": 51,
                "duration": 0.25,
                "tempo": 120.0
            },
            {
                "start_time": 6.6977273,
                "end_time": 6.8613636,
                "pitch": 53,
                "velocity": 51,
                "duration": 0.1636364,
                "tempo": 120.0
            },
            {
                "start_time": 6.8636364,
                "end_time": 6.9477273,
                "pitch": 50,
                "velocity": 51,
                "duration": 0.0840909,
                "tempo": 120.0
            },
            {
                "start_time": 6.9477273,
                "end_time": 7.1136364,
                "pitch": 49,
                "velocity": 51,
                "duration": 0.1659091,
                "tempo": 120.0
            },
            {
                "start_time": 7.1136364,
                "end_time": 7.3636364,
                "pitch": 50,
                "velocity": 51,
                "duration": 0.25,
                "tempo": 120.0
            },
            {
                "start_time": 7.3636364,
                "end_time": 7.4477273,
                "pitch": 50,
                "velocity": 51,
                "duration": 0.0840909,
                "tempo": 120.0
            },
            {
                "start_time": 7.4477273,
                "end_time": 7.6977273,
                "pitch": 50,
                "velocity": 51,
                "duration": 0.25,
                "tempo": 120.0
            },
            {
                "start_time": 7.6977273,
                "end_time": 7.9477273,
                "pitch": 49,
                "velocity": 51,
                "duration": 0.25,
                "tempo": 120.0
            },
            {
                "start_time": 7.9477273,
                "end_time": 8.1136364,
                "pitch": 48,
                "velocity": 51,
                "duration": 0.1659091,
                "tempo": 120.0
            },
            {
                "start_time": 8.1136364,
                "end_time": 8.2,
                "pitch": 46,
                "velocity": 51,
                "duration": 0.0863636,
                "tempo": 120.0
            },
            {
                "start_time": 8.2,
                "end_time": 8.4522727,
                "pitch": 43,
                "velocity": 51,
                "duration": 0.2522727,
                "tempo": 120.0
            },
            {
                "start_time": 8.4522727,
                "end_time": 8.7045455,
                "pitch": 55,
                "velocity": 51,
                "duration": 0.2522727,
                "tempo": 120.0
            },
            {
                "start_time": 8.7045455,
                "end_time": 8.8681818,
                "pitch": 53,
                "velocity": 51,
                "duration": 0.1636364,
                "tempo": 120.0
            },
            {
                "start_time": 8.8704545,
                "end_time": 8.9545455,
                "pitch": 50,
                "velocity": 51,
                "duration": 0.0840909,
                "tempo": 120.0
            },
            {
                "start_time": 8.9545455,
                "end_time": 9.1181818,
                "pitch": 49,
                "velocity": 51,
                "duration": 0.1636364,
                "tempo": 120.0
            },
            {
                "start_time": 5.9954545,
                "end_time": 9.5045455,
                "pitch": 32,
                "velocity": 80,
                "duration": 3.5090909,
                "tempo": 120.0
            },
            {
                "start_time": 9.1204545,
                "end_time": 9.5045455,
                "pitch": 50,
                "velocity": 51,
                "duration": 0.3840909,
                "tempo": 120.0
            },
            {
                "start_time": 9.5045455,
                "end_time": 9.6363636,
                "pitch": 47,
                "velocity": 51,
                "duration": 0.1318182,
                "tempo": 120.0
            },
            {
                "start_time": 10.2068182,
                "end_time": 10.4568182,
                "pitch": 43,
                "velocity": 51,
                "duration": 0.25,
                "tempo": 120.0
            },
            {
                "start_time": 10.4568182,
                "end_time": 10.7068182,
                "pitch": 55,
                "velocity": 51,
                "duration": 0.25,
                "tempo": 120.0
            },
            {
                "start_time": 10.7068182,
                "end_time": 10.8704545,
                "pitch": 53,
                "velocity": 51,
                "duration": 0.1636364,
                "tempo": 120.0
            },
            {
                "start_time": 10.8727273,
                "end_time": 10.9568182,
                "pitch": 50,
                "velocity": 51,
                "duration": 0.0840909,
                "tempo": 120.0
            },
            {
                "start_time": 10.9568182,
                "end_time": 11.1227273,
                "pitch": 49,
                "velocity": 51,
                "duration": 0.1659091,
                "tempo": 120.0
            },
            {
                "start_time": 11.1227273,
                "end_time": 11.3727273,
                "pitch": 50,
                "velocity": 51,
                "duration": 0.25,
                "tempo": 120.0
            },
            {
                "start_time": 11.3727273,
                "end_time": 11.4568182,
                "pitch": 50,
                "velocity": 51,
                "duration": 0.0840909,
                "tempo": 120.0
            },
            {
                "start_time": 11.4568182,
                "end_time": 11.7068182,
                "pitch": 53,
                "velocity": 51,
                "duration": 0.25,
                "tempo": 120.0
            },
            {
                "start_time": 11.7068182,
                "end_time": 11.9636364,
                "pitch": 55,
                "velocity": 51,
                "duration": 0.2568182,
                "tempo": 120.0
            },
            {
                "start_time": 11.9636364,
                "end_time": 12.1340909,
                "pitch": 58,
                "velocity": 51,
                "duration": 0.1704545,
                "tempo": 120.0
            },
            {
                "start_time": 12.1340909,
                "end_time": 12.2204545,
                "pitch": 60,
                "velocity": 51,
                "duration": 0.0863636,
                "tempo": 120.0
            },
            {
                "start_time": 12.2227273,
                "end_time": 12.3863636,
                "pitch": 61,
                "velocity": 51,
                "duration": 0.1636364,
                "tempo": 120.0
            },
            {
                "start_time": 12.3863636,
                "end_time": 12.4704545,
                "pitch": 60,
                "velocity": 51,
                "duration": 0.0840909,
                "tempo": 120.0
            },
            {
                "start_time": 12.4727273,
                "end_time": 12.6363636,
                "pitch": 58,
                "velocity": 51,
                "duration": 0.1636364,
                "tempo": 120.0
            },
            {
                "start_time": 12.6363636,
                "end_time": 12.7227273,
                "pitch": 61,
                "velocity": 51,
                "duration": 0.0863636,
                "tempo": 120.0
            },
            {
                "start_time": 12.7227273,
                "end_time": 12.8863636,
                "pitch": 60,
                "velocity": 51,
                "duration": 0.1636364,
                "tempo": 120.0
            },
            {
                "start_time": 12.8863636,
                "end_time": 12.9727273,
                "pitch": 58,
                "velocity": 51,
                "duration": 0.0863636,
                "tempo": 120.0
            },
            {
                "start_time": 12.9727273,
                "end_time": 13.1363636,
                "pitch": 55,
                "velocity": 51,
                "duration": 0.1636364,
                "tempo": 120.0
            },
            {
                "start_time": 13.1386364,
                "end_time": 13.4545455,
                "pitch": 53,
                "velocity": 51,
                "duration": 0.3159091,
                "tempo": 120.0
            },
            {
                "start_time": 13.4545455,
                "end_time": 13.5886364,
                "pitch": 51,
                "velocity": 51,
                "duration": 0.1340909,
                "tempo": 120.0
            },
            {
                "start_time": 13.5886364,
                "end_time": 13.6545455,
                "pitch": 48,
                "velocity": 51,
                "duration": 0.0659091,
                "tempo": 120.0
            },
            {
                "start_time": 14.225,
                "end_time": 14.4727273,
                "pitch": 43,
                "velocity": 51,
                "duration": 0.2477273,
                "tempo": 120.0
            },
            {
                "start_time": 14.475,
                "end_time": 14.725,
                "pitch": 55,
                "velocity": 51,
                "duration": 0.25,
                "tempo": 120.0
            },
            {
                "start_time": 14.725,
                "end_time": 14.8886364,
                "pitch": 53,
                "velocity": 51,
                "duration": 0.1636364,
                "tempo": 120.0
            },
            {
                "start_time": 14.8909091,
                "end_time": 14.975,
                "pitch": 50,
                "velocity": 51,
                "duration": 0.0840909,
                "tempo": 120.0
            },
            {
                "start_time": 14.975,
                "end_time": 15.1409091,
                "pitch": 49,
                "velocity": 51,
                "duration": 0.1659091,
                "tempo": 120.0
            },
            {
                "start_time": 15.1409091,
                "end_time": 15.3909091,
                "pitch": 50,
                "velocity": 51,
                "duration": 0.25,
                "tempo": 120.0
            },
            {
                "start_time": 15.3909091,
                "end_time": 15.475,
                "pitch": 50,
                "velocity": 51,
                "duration": 0.0840909,
                "tempo": 120.0
            },
            {
                "start_time": 15.475,
                "end_time": 15.725,
                "pitch": 50,
                "velocity": 51,
                "duration": 0.25,
                "tempo": 120.0
            },
            {
                "start_time": 15.725,
                "end_time": 15.975,
                "pitch": 49,
                "velocity": 51,
                "duration": 0.25,
                "tempo": 120.0
            },
            {
                "start_time": 15.975,
                "end_time": 16.1409091,
                "pitch": 48,
                "velocity": 51,
                "duration": 0.1659091,
                "tempo": 120.0
            },
            {
                "start_time": 16.1409091,
                "end_time": 16.2272727,
                "pitch": 46,
                "velocity": 51,
                "duration": 0.0863636,
                "tempo": 120.0
            },
            {
                "start_time": 16.2272727,
                "end_time": 16.4772727,
                "pitch": 43,
                "velocity": 51,
                "duration": 0.25,
                "tempo": 120.0
            },
            {
                "start_time": 16.4772727,
                "end_time": 16.7272727,
                "pitch": 55,
                "velocity": 51,
                "duration": 0.25,
                "tempo": 120.0
            },
            {
                "start_time": 16.7272727,
                "end_time": 16.8931818,
                "pitch": 53,
                "velocity": 51,
                "duration": 0.1659091,
                "tempo": 120.0
            },
            {
                "start_time": 16.8931818,
                "end_time": 16.9772727,
                "pitch": 50,
                "velocity": 51,
                "duration": 0.0840909,
                "tempo": 120.0
            },
            {
                "start_time": 16.9772727,
                "end_time": 17.1431818,
                "pitch": 49,
                "velocity": 51,
                "duration": 0.1659091,
                "tempo": 120.0
            },
            {
                "start_time": 9.5045455,
                "end_time": 17.5272727,
                "pitch": 32,
                "velocity": 51,
                "duration": 8.0227273,
                "tempo": 120.0
            },
            {
                "start_time": 17.1431818,
                "end_time": 17.5272727,
                "pitch": 50,
                "velocity": 51,
                "duration": 0.3840909,
                "tempo": 120.0
            },
            {
                "start_time": 17.5272727,
                "end_time": 17.6590909,
                "pitch": 47,
                "velocity": 51,
                "duration": 0.1318182,
                "tempo": 120.0
            },
            {
                "start_time": 18.2295455,
                "end_time": 18.4795455,
                "pitch": 43,
                "velocity": 51,
                "duration": 0.25,
                "tempo": 120.0
            },
            {
                "start_time": 18.4795455,
                "end_time": 18.7295455,
                "pitch": 55,
                "velocity": 51,
                "duration": 0.25,
                "tempo": 120.0
            },
            {
                "start_time": 18.7295455,
                "end_time": 18.8954545,
                "pitch": 53,
                "velocity": 51,
                "duration": 0.1659091,
                "tempo": 120.0
            },
            {
                "start_time": 18.8954545,
                "end_time": 18.9795455,
                "pitch": 50,
                "velocity": 51,
                "duration": 0.0840909,
                "tempo": 120.0
            },
            {
                "start_time": 18.9795455,
                "end_time": 19.1454545,
                "pitch": 49,
                "velocity": 51,
                "duration": 0.1659091,
                "tempo": 120.0
            },
            {
                "start_time": 19.1454545,
                "end_time": 19.3954545,
                "pitch": 50,
                "velocity": 51,
                "duration": 0.25,
                "tempo": 120.0
            },
            {
                "start_time": 19.3954545,
                "end_time": 19.4795455,
                "pitch": 50,
                "velocity": 51,
                "duration": 0.0840909,
                "tempo": 120.0
            },
            {
                "start_time": 19.4818182,
                "end_time": 19.7318182,
                "pitch": 53,
                "velocity": 51,
                "duration": 0.25,
                "tempo": 120.0
            },
            {
                "start_time": 19.7318182,
                "end_time": 19.9863636,
                "pitch": 55,
                "velocity": 51,
                "duration": 0.2545455,
                "tempo": 120.0
            },
            {
                "start_time": 19.9863636,
                "end_time": 20.1568182,
                "pitch": 58,
                "velocity": 51,
                "duration": 0.1704545,
                "tempo": 120.0
            },
            {
                "start_time": 12.1340909,
                "end_time": 20.1568182,
                "pitch": 64,
                "velocity": 51,
                "duration": 8.0227273,
                "tempo": 120.0
            },
            {
                "start_time": 20.1568182,
                "end_time": 20.2454545,
                "pitch": 60,
                "velocity": 51,
                "duration": 0.0886364,
                "tempo": 120.0
            },
            {
                "start_time": 20.2454545,
                "end_time": 20.4090909,
                "pitch": 61,
                "velocity": 51,
                "duration": 0.1636364,
                "tempo": 120.0
            },
            {
                "start_time": 20.4090909,
                "end_time": 20.4954545,
                "pitch": 60,
                "velocity": 51,
                "duration": 0.0863636,
                "tempo": 120.0
            },
            {
                "start_time": 20.4954545,
                "end_time": 20.6590909,
                "pitch": 58,
                "velocity": 51,
                "duration": 0.1636364,
                "tempo": 120.0
            },
            {
                "start_time": 20.6613636,
                "end_time": 20.7454545,
                "pitch": 61,
                "velocity": 51,
                "duration": 0.0840909,
                "tempo": 120.0
            },
            {
                "start_time": 20.7454545,
                "end_time": 20.9113636,
                "pitch": 60,
                "velocity": 51,
                "duration": 0.1659091,
                "tempo": 120.0
            },
            {
                "start_time": 20.9113636,
                "end_time": 20.9954545,
                "pitch": 58,
                "velocity": 51,
                "duration": 0.0840909,
                "tempo": 120.0
            },
            {
                "start_time": 20.9954545,
                "end_time": 21.1613636,
                "pitch": 55,
                "velocity": 51,
                "duration": 0.1659091,
                "tempo": 120.0
            },
            {
                "start_time": 21.1613636,
                "end_time": 21.4772727,
                "pitch": 53,
                "velocity": 51,
                "duration": 0.3159091,
                "tempo": 120.0
            },
            {
                "start_time": 21.4772727,
                "end_time": 21.6113636,
                "pitch": 51,
                "velocity": 51,
                "duration": 0.1340909,
                "tempo": 120.0
            },
            {
                "start_time": 21.6113636,
                "end_time": 21.6772727,
                "pitch": 48,
                "velocity": 51,
                "duration": 0.0659091,
                "tempo": 120.0
            },
            {
                "start_time": 23.2477273,
                "end_time": 23.4136364,
                "pitch": 44,
                "velocity": 51,
                "duration": 0.1659091,
                "tempo": 120.0
            },
            {
                "start_time": 23.4136364,
                "end_time": 23.4977273,
                "pitch": 46,
                "velocity": 51,
                "duration": 0.0840909,
                "tempo": 120.0
            },
            {
                "start_time": 23.4977273,
                "end_time": 23.6636364,
                "pitch": 46,
                "velocity": 51,
                "duration": 0.1659091,
                "tempo": 120.0
            },
            {
                "start_time": 23.6659091,
                "end_time": 23.9136364,
                "pitch": 46,
                "velocity": 51,
                "duration": 0.2477273,
                "tempo": 120.0
            },
            {
                "start_time": 23.9159091,
                "end_time": 23.9977273,
                "pitch": 46,
                "velocity": 51,
                "duration": 0.0818182,
                "tempo": 120.0
            },
            {
                "start_time": 24.0,
                "end_time": 24.25,
                "pitch": 44,
                "velocity": 51,
                "duration": 0.25,
                "tempo": 120.0
            },
            {
                "start_time": 24.25,
                "end_time": 24.5,
                "pitch": 43,
                "velocity": 51,
                "duration": 0.25,
                "tempo": 120.0
            },
            {
                "start_time": 6.1613636,
                "end_time": 24.5,
                "pitch": 54,
                "velocity": 80,
                "duration": 18.3386364,
                "tempo": 120.0
            },
            {
                "start_time": 24.5,
                "end_time": 24.6977273,
                "pitch": 42,
                "velocity": 51,
                "duration": 0.1977273,
                "tempo": 120.0
            },
            {
                "start_time": 24.6977273,
                "end_time": 24.75,
                "pitch": 39,
                "velocity": 51,
                "duration": 0.0522727,
                "tempo": 120.0
            },
            {
                "start_time": 17.5272727,
                "end_time": 25.4159091,
                "pitch": 32,
                "velocity": 51,
                "duration": 7.8886364,
                "tempo": 120.0
            },
            {
                "start_time": 25.2522727,
                "end_time": 25.4159091,
                "pitch": 32,
                "velocity": 51,
                "duration": 0.1636364,
                "tempo": 120.0
            },
            {
                "start_time": 25.4181818,
                "end_time": 25.5,
                "pitch": 34,
                "velocity": 51,
                "duration": 0.0818182,
                "tempo": 120.0
            },
            {
                "start_time": 25.5,
                "end_time": 25.6659091,
                "pitch": 34,
                "velocity": 51,
                "duration": 0.1659091,
                "tempo": 120.0
            },
            {
                "start_time": 25.6681818,
                "end_time": 25.9181818,
                "pitch": 34,
                "velocity": 51,
                "duration": 0.25,
                "tempo": 120.0
            },
            {
                "start_time": 25.9181818,
                "end_time": 26.0022727,
                "pitch": 34,
                "velocity": 51,
                "duration": 0.0840909,
                "tempo": 120.0
            },
            {
                "start_time": 26.0022727,
                "end_time": 26.2522727,
                "pitch": 32,
                "velocity": 51,
                "duration": 0.25,
                "tempo": 120.0
            },
            {
                "start_time": 5.6113636,
                "end_time": 26.4181818,
                "pitch": 0,
                "velocity": 80,
                "duration": 20.8068182,
                "tempo": 120.0
            },
            {
                "start_time": 26.2545455,
                "end_time": 26.4181818,
                "pitch": 42,
                "velocity": 51,
                "duration": 0.1636364,
                "tempo": 120.0
            },
            {
                "start_time": 26.4181818,
                "end_time": 26.5022727,
                "pitch": 43,
                "velocity": 51,
                "duration": 0.0840909,
                "tempo": 120.0
            },
            {
                "start_time": 26.5022727,
                "end_time": 26.6681818,
                "pitch": 43,
                "velocity": 51,
                "duration": 0.1659091,
                "tempo": 120.0
            },
            {
                "start_time": 26.6681818,
                "end_time": 26.7522727,
                "pitch": 43,
                "velocity": 51,
                "duration": 0.0840909,
                "tempo": 120.0
            },
            {
                "start_time": 26.4181818,
                "end_time": 26.9181818,
                "pitch": 0,
                "velocity": 51,
                "duration": 0.5,
                "tempo": 120.0
            },
            {
                "start_time": 26.7522727,
                "end_time": 26.9181818,
                "pitch": 42,
                "velocity": 51,
                "duration": 0.1659091,
                "tempo": 120.0
            },
            {
                "start_time": 26.9181818,
                "end_time": 27.0022727,
                "pitch": 43,
                "velocity": 51,
                "duration": 0.0840909,
                "tempo": 120.0
            },
            {
                "start_time": 27.0022727,
                "end_time": 27.1681818,
                "pitch": 43,
                "velocity": 51,
                "duration": 0.1659091,
                "tempo": 120.0
            },
            {
                "start_time": 27.1681818,
                "end_time": 27.2522727,
                "pitch": 43,
                "velocity": 51,
                "duration": 0.0840909,
                "tempo": 120.0
            },
            {
                "start_time": 26.9181818,
                "end_time": 27.4181818,
                "pitch": 0,
                "velocity": 51,
                "duration": 0.5,
                "tempo": 120.0
            },
            {
                "start_time": 27.2545455,
                "end_time": 27.4181818,
                "pitch": 42,
                "velocity": 51,
                "duration": 0.1636364,
                "tempo": 120.0
            },
            {
                "start_time": 27.4181818,
                "end_time": 27.5022727,
                "pitch": 43,
                "velocity": 51,
                "duration": 0.0840909,
                "tempo": 120.0
            },
            {
                "start_time": 27.5045455,
                "end_time": 27.6681818,
                "pitch": 43,
                "velocity": 51,
                "duration": 0.1636364,
                "tempo": 120.0
            },
            {
                "start_time": 27.6704545,
                "end_time": 27.7545455,
                "pitch": 43,
                "velocity": 51,
                "duration": 0.0840909,
                "tempo": 120.0
            },
            {
                "start_time": 27.4181818,
                "end_time": 27.9227273,
                "pitch": 0,
                "velocity": 51,
                "duration": 0.5045455,
                "tempo": 120.0
            },
            {
                "start_time": 27.7545455,
                "end_time": 27.9227273,
                "pitch": 42,
                "velocity": 51,
                "duration": 0.1681818,
                "tempo": 120.0
            },
            {
                "start_time": 27.9227273,
                "end_time": 28.0113636,
                "pitch": 43,
                "velocity": 51,
                "duration": 0.0886364,
                "tempo": 120.0
            },
            {
                "start_time": 28.0113636,
                "end_time": 28.1795455,
                "pitch": 43,
                "velocity": 51,
                "duration": 0.1681818,
                "tempo": 120.0
            },
            {
                "start_time": 28.1818182,
                "end_time": 28.2659091,
                "pitch": 43,
                "velocity": 51,
                "duration": 0.0840909,
                "tempo": 120.0
            },
            {
                "start_time": 28.2681818,
                "end_time": 28.4340909,
                "pitch": 44,
                "velocity": 51,
                "duration": 0.1659091,
                "tempo": 120.0
            },
            {
                "start_time": 28.4340909,
                "end_time": 28.5181818,
                "pitch": 46,
                "velocity": 51,
                "duration": 0.0840909,
                "tempo": 120.0
            },
            {
                "start_time": 28.5181818,
                "end_time": 28.6840909,
                "pitch": 46,
                "velocity": 51,
                "duration": 0.1659091,
                "tempo": 120.0
            },
            {
                "start_time": 28.6840909,
                "end_time": 28.7681818,
                "pitch": 46,
                "velocity": 51,
                "duration": 0.0840909,
                "tempo": 120.0
            },
            {
                "start_time": 28.7681818,
                "end_time": 28.9340909,
                "pitch": 44,
                "velocity": 51,
                "duration": 0.1659091,
                "tempo": 120.0
            },
            {
                "start_time": 28.9340909,
                "end_time": 29.0181818,
                "pitch": 46,
                "velocity": 51,
                "duration": 0.0840909,
                "tempo": 120.0
            },
            {
                "start_time": 29.0181818,
                "end_time": 29.1840909,
                "pitch": 46,
                "velocity": 51,
                "duration": 0.1659091,
                "tempo": 120.0
            },
            {
                "start_time": 29.1840909,
                "end_time": 29.2681818,
                "pitch": 46,
                "velocity": 51,
                "duration": 0.0840909,
                "tempo": 120.0
            },
            {
                "start_time": 29.2681818,
                "end_time": 29.4340909,
                "pitch": 44,
                "velocity": 51,
                "duration": 0.1659091,
                "tempo": 120.0
            },
            {
                "start_time": 29.4340909,
                "end_time": 29.5181818,
                "pitch": 46,
                "velocity": 51,
                "duration": 0.0840909,
                "tempo": 120.0
            },
            {
                "start_time": 29.5181818,
                "end_time": 29.6840909,
                "pitch": 46,
                "velocity": 51,
                "duration": 0.1659091,
                "tempo": 120.0
            },
            {
                "start_time": 29.6840909,
                "end_time": 29.7681818,
                "pitch": 46,
                "velocity": 51,
                "duration": 0.0840909,
                "tempo": 120.0
            },
            {
                "start_time": 29.7704545,
                "end_time": 29.9340909,
                "pitch": 44,
                "velocity": 51,
                "duration": 0.1636364,
                "tempo": 120.0
            },
            {
                "start_time": 29.9340909,
                "end_time": 30.0204545,
                "pitch": 46,
                "velocity": 51,
                "duration": 0.0863636,
                "tempo": 120.0
            },
            {
                "start_time": 30.0204545,
                "end_time": 30.1863636,
                "pitch": 46,
                "velocity": 51,
                "duration": 0.1659091,
                "tempo": 120.0
            },
            {
                "start_time": 30.1863636,
                "end_time": 30.2704545,
                "pitch": 46,
                "velocity": 51,
                "duration": 0.0840909,
                "tempo": 120.0
            },
            {
                "start_time": 30.2704545,
                "end_time": 30.4363636,
                "pitch": 47,
                "velocity": 51,
                "duration": 0.1659091,
                "tempo": 120.0
            },
            {
                "start_time": 5.6954545,
                "end_time": 30.4363636,
                "pitch": 52,
                "velocity": 80,
                "duration": 24.7409091,
                "tempo": 120.0
            },
            {
                "start_time": 30.4363636,
                "end_time": 30.5204545,
                "pitch": 48,
                "velocity": 51,
                "duration": 0.0840909,
                "tempo": 120.0
            },
            {
                "start_time": 30.5204545,
                "end_time": 30.6863636,
                "pitch": 48,
                "velocity": 51,
                "duration": 0.1659091,
                "tempo": 120.0
            },
            {
                "start_time": 30.6863636,
                "end_time": 30.7704545,
                "pitch": 48,
                "velocity": 51,
                "duration": 0.0840909,
                "tempo": 120.0
            },
            {
                "start_time": 30.7704545,
                "end_time": 30.9363636,
                "pitch": 47,
                "velocity": 51,
                "duration": 0.1659091,
                "tempo": 120.0
            },
            {
                "start_time": 30.4363636,
                "end_time": 30.9363636,
                "pitch": 52,
                "velocity": 51,
                "duration": 0.5,
                "tempo": 120.0
            },
            {
                "start_time": 30.9363636,
                "end_time": 31.0204545,
                "pitch": 48,
                "velocity": 51,
                "duration": 0.0840909,
                "tempo": 120.0
            },
            {
                "start_time": 31.0204545,
                "end_time": 31.1863636,
                "pitch": 48,
                "velocity": 51,
                "duration": 0.1659091,
                "tempo": 120.0
            },
            {
                "start_time": 31.1863636,
                "end_time": 31.2704545,
                "pitch": 48,
                "velocity": 51,
                "duration": 0.0840909,
                "tempo": 120.0
            },
            {
                "start_time": 31.2727273,
                "end_time": 31.5204545,
                "pitch": 49,
                "velocity": 51,
                "duration": 0.2477273,
                "tempo": 120.0
            },
            {
                "start_time": 31.5227273,
                "end_time": 31.6863636,
                "pitch": 50,
                "velocity": 51,
                "duration": 0.1636364,
                "tempo": 120.0
            },
            {
                "start_time": 31.6886364,
                "end_time": 31.7727273,
                "pitch": 50,
                "velocity": 51,
                "duration": 0.0840909,
                "tempo": 120.0
            },
            {
                "start_time": 31.7727273,
                "end_time": 32.0227273,
                "pitch": 49,
                "velocity": 51,
                "duration": 0.25,
                "tempo": 120.0
            },
            {
                "start_time": 32.0227273,
                "end_time": 32.1886364,
                "pitch": 50,
                "velocity": 51,
                "duration": 0.1659091,
                "tempo": 120.0
            },
            {
                "start_time": 32.1886364,
                "end_time": 32.2727273,
                "pitch": 50,
                "velocity": 51,
                "duration": 0.0840909,
                "tempo": 120.0
            },
            {
                "start_time": 32.2727273,
                "end_time": 32.525,
                "pitch": 51,
                "velocity": 51,
                "duration": 0.2522727,
                "tempo": 120.0
            },
            {
                "start_time": 30.9363636,
                "end_time": 32.6909091,
                "pitch": 52,
                "velocity": 51,
                "duration": 1.7545455,
                "tempo": 120.0
            },
            {
                "start_time": 32.525,
                "end_time": 32.6909091,
                "pitch": 52,
                "velocity": 51,
                "duration": 0.1659091,
                "tempo": 120.0
            },
            {
                "start_time": 32.6931818,
                "end_time": 32.7772727,
                "pitch": 52,
                "velocity": 51,
                "duration": 0.0840909,
                "tempo": 120.0
            },
            {
                "start_time": 32.7772727,
                "end_time": 33.0272727,
                "pitch": 51,
                "velocity": 51,
                "duration": 0.25,
                "tempo": 120.0
            },
            {
                "start_time": 33.0272727,
                "end_time": 33.1931818,
                "pitch": 52,
                "velocity": 51,
                "duration": 0.1659091,
                "tempo": 120.0
            },
            {
                "start_time": 33.1931818,
                "end_time": 33.2772727,
                "pitch": 52,
                "velocity": 51,
                "duration": 0.0840909,
                "tempo": 120.0
            },
            {
                "start_time": 33.2795455,
                "end_time": 33.5272727,
                "pitch": 53,
                "velocity": 51,
                "duration": 0.2477273,
                "tempo": 120.0
            },
            {
                "start_time": 24.5,
                "end_time": 33.6931818,
                "pitch": 54,
                "velocity": 51,
                "duration": 9.1931818,
                "tempo": 120.0
            },
            {
                "start_time": 33.5295455,
                "end_time": 33.6931818,
                "pitch": 54,
                "velocity": 51,
                "duration": 0.1636364,
                "tempo": 120.0
            },
            {
                "start_time": 33.6954545,
                "end_time": 33.7795455,
                "pitch": 54,
                "velocity": 51,
                "duration": 0.0840909,
                "tempo": 120.0
            },
            {
                "start_time": 33.7795455,
                "end_time": 34.0295455,
                "pitch": 53,
                "velocity": 51,
                "duration": 0.25,
                "tempo": 120.0
            },
            {
                "start_time": 34.0295455,
                "end_time": 34.1954545,
                "pitch": 54,
                "velocity": 51,
                "duration": 0.1659091,
                "tempo": 120.0
            },
            {
                "start_time": 34.1954545,
                "end_time": 34.2795455,
                "pitch": 54,
                "velocity": 51,
                "duration": 0.0840909,
                "tempo": 120.0
            },
            {
                "start_time": 36.2954545,
                "end_time": 36.5409091,
                "pitch": 44,
                "velocity": 80,
                "duration": 0.2454545,
                "tempo": 120.0
            },
            {
                "start_time": 36.5409091,
                "end_time": 36.7863636,
                "pitch": 46,
                "velocity": 80,
                "duration": 0.2454545,
                "tempo": 120.0
            },
            {
                "start_time": 36.7863636,
                "end_time": 37.0431818,
                "pitch": 44,
                "velocity": 80,
                "duration": 0.2568182,
                "tempo": 120.0
            },
            {
                "start_time": 37.0431818,
                "end_time": 37.3,
                "pitch": 43,
                "velocity": 80,
                "duration": 0.2568182,
                "tempo": 120.0
            },
            {
                "start_time": 37.3,
                "end_time": 37.55,
                "pitch": 42,
                "velocity": 80,
                "duration": 0.25,
                "tempo": 120.0
            },
            {
                "start_time": 27.9227273,
                "end_time": 37.7159091,
                "pitch": 0,
                "velocity": 51,
                "duration": 9.7931818,
                "tempo": 120.0
            },
            {
                "start_time": 37.55,
                "end_time": 37.7159091,
                "pitch": 42,
                "velocity": 80,
                "duration": 0.1659091,
                "tempo": 120.0
            },
            {
                "start_time": 37.7159091,
                "end_time": 37.7659091,
                "pitch": 43,
                "velocity": 80,
                "duration": 0.05,
                "tempo": 120.0
            },
            {
                "start_time": 37.7659091,
                "end_time": 37.8,
                "pitch": 46,
                "velocity": 80,
                "duration": 0.0340909,
                "tempo": 120.0
            },
            {
                "start_time": 37.8,
                "end_time": 37.85,
                "pitch": 48,
                "velocity": 80,
                "duration": 0.05,
                "tempo": 120.0
            },
            {
                "start_time": 37.85,
                "end_time": 37.8840909,
                "pitch": 51,
                "velocity": 80,
                "duration": 0.0340909,
                "tempo": 120.0
            },
            {
                "start_time": 37.8840909,
                "end_time": 37.9659091,
                "pitch": 53,
                "velocity": 80,
                "duration": 0.0818182,
                "tempo": 120.0
            },
            {
                "start_time": 37.9659091,
                "end_time": 38.0340909,
                "pitch": 51,
                "velocity": 80,
                "duration": 0.0681818,
                "tempo": 120.0
            },
            {
                "start_time": 38.0340909,
                "end_time": 38.1,
                "pitch": 49,
                "velocity": 80,
                "duration": 0.0659091,
                "tempo": 120.0
            },
            {
                "start_time": 38.1,
                "end_time": 38.1659091,
                "pitch": 47,
                "velocity": 80,
                "duration": 0.0659091,
                "tempo": 120.0
            },
            {
                "start_time": 38.1659091,
                "end_time": 38.2659091,
                "pitch": 45,
                "velocity": 80,
                "duration": 0.1,
                "tempo": 120.0
            },
            {
                "start_time": 38.2659091,
                "end_time": 38.3022727,
                "pitch": 41,
                "velocity": 80,
                "duration": 0.0363636,
                "tempo": 120.0
            },
            {
                "start_time": 38.3045455,
                "end_time": 38.5522727,
                "pitch": 43,
                "velocity": 51,
                "duration": 0.2477273,
                "tempo": 120.0
            },
            {
                "start_time": 38.5522727,
                "end_time": 38.8022727,
                "pitch": 55,
                "velocity": 51,
                "duration": 0.25,
                "tempo": 120.0
            },
            {
                "start_time": 38.8022727,
                "end_time": 38.9681818,
                "pitch": 53,
                "velocity": 51,
                "duration": 0.1659091,
                "tempo": 120.0
            },
            {
                "start_time": 38.9681818,
                "end_time": 39.0522727,
                "pitch": 50,
                "velocity": 51,
                "duration": 0.0840909,
                "tempo": 120.0
            },
            {
                "start_time": 39.0522727,
                "end_time": 39.2181818,
                "pitch": 49,
                "velocity": 51,
                "duration": 0.1659091,
                "tempo": 120.0
            },
            {
                "start_time": 39.2181818,
                "end_time": 39.4681818,
                "pitch": 50,
                "velocity": 51,
                "duration": 0.25,
                "tempo": 120.0
            },
            {
                "start_time": 39.4681818,
                "end_time": 39.5522727,
                "pitch": 50,
                "velocity": 51,
                "duration": 0.0840909,
                "tempo": 120.0
            },
            {
                "start_time": 39.5545455,
                "end_time": 39.8022727,
                "pitch": 50,
                "velocity": 51,
                "duration": 0.2477273,
                "tempo": 120.0
            },
            {
                "start_time": 39.8045455,
                "end_time": 40.0545455,
                "pitch": 49,
                "velocity": 51,
                "duration": 0.25,
                "tempo": 120.0
            },
            {
                "start_time": 40.0545455,
                "end_time": 40.2181818,
                "pitch": 48,
                "velocity": 51,
                "duration": 0.1636364,
                "tempo": 120.0
            },
            {
                "start_time": 40.2204545,
                "end_time": 40.3045455,
                "pitch": 46,
                "velocity": 51,
                "duration": 0.0840909,
                "tempo": 120.0
            },
            {
                "start_time": 40.3045455,
                "end_time": 40.5545455,
                "pitch": 43,
                "velocity": 51,
                "duration": 0.25,
                "tempo": 120.0
            },
            {
                "start_time": 40.5545455,
                "end_time": 40.8045455,
                "pitch": 55,
                "velocity": 51,
                "duration": 0.25,
                "tempo": 120.0
            },
            {
                "start_time": 40.8045455,
                "end_time": 40.9704545,
                "pitch": 53,
                "velocity": 51,
                "duration": 0.1659091,
                "tempo": 120.0
            },
            {
                "start_time": 40.9704545,
                "end_time": 41.0545455,
                "pitch": 50,
                "velocity": 51,
                "duration": 0.0840909,
                "tempo": 120.0
            },
            {
                "start_time": 41.0545455,
                "end_time": 41.2204545,
                "pitch": 49,
                "velocity": 51,
                "duration": 0.1659091,
                "tempo": 120.0
            },
            {
                "start_time": 38.1,
                "end_time": 41.6045455,
                "pitch": 32,
                "velocity": 80,
                "duration": 3.5045455,
                "tempo": 120.0
            },
            {
                "start_time": 41.2204545,
                "end_time": 41.6045455,
                "pitch": 50,
                "velocity": 51,
                "duration": 0.3840909,
                "tempo": 120.0
            },
            {
                "start_time": 41.6045455,
                "end_time": 41.7386364,
                "pitch": 47,
                "velocity": 51,
                "duration": 0.1340909,
                "tempo": 120.0
            },
            {
                "start_time": 42.3068182,
                "end_time": 42.5568182,
                "pitch": 43,
                "velocity": 51,
                "duration": 0.25,
                "tempo": 120.0
            },
            {
                "start_time": 42.5568182,
                "end_time": 42.8068182,
                "pitch": 55,
                "velocity": 51,
                "duration": 0.25,
                "tempo": 120.0
            },
            {
                "start_time": 42.8068182,
                "end_time": 42.9772727,
                "pitch": 53,
                "velocity": 51,
                "duration": 0.1704545,
                "tempo": 120.0
            },
            {
                "start_time": 42.9772727,
                "end_time": 43.0636364,
                "pitch": 50,
                "velocity": 51,
                "duration": 0.0863636,
                "tempo": 120.0
            },
            {
                "start_time": 43.0636364,
                "end_time": 43.2340909,
                "pitch": 49,
                "velocity": 51,
                "duration": 0.1704545,
                "tempo": 120.0
            },
            {
                "start_time": 43.2340909,
                "end_time": 43.4840909,
                "pitch": 50,
                "velocity": 51,
                "duration": 0.25,
                "tempo": 120.0
            },
            {
                "start_time": 43.4840909,
                "end_time": 43.5659091,
                "pitch": 50,
                "velocity": 51,
                "duration": 0.0818182,
                "tempo": 120.0
            },
            {
                "start_time": 43.5681818,
                "end_time": 43.8136364,
                "pitch": 53,
                "velocity": 51,
                "duration": 0.2454545,
                "tempo": 120.0
            },
            {
                "start_time": 43.8136364,
                "end_time": 44.0681818,
                "pitch": 55,
                "velocity": 51,
                "duration": 0.2545455,
                "tempo": 120.0
            },
            {
                "start_time": 44.0704545,
                "end_time": 44.2386364,
                "pitch": 58,
                "velocity": 51,
                "duration": 0.1681818,
                "tempo": 120.0
            },
            {
                "start_time": 20.1568182,
                "end_time": 44.2386364,
                "pitch": 64,
                "velocity": 51,
                "duration": 24.0818182,
                "tempo": 120.0
            },
            {
                "start_time": 44.2386364,
                "end_time": 44.3272727,
                "pitch": 60,
                "velocity": 51,
                "duration": 0.0886364,
                "tempo": 120.0
            },
            {
                "start_time": 44.3272727,
                "end_time": 44.4909091,
                "pitch": 61,
                "velocity": 51,
                "duration": 0.1636364,
                "tempo": 120.0
            },
            {
                "start_time": 44.4909091,
                "end_time": 44.5772727,
                "pitch": 60,
                "velocity": 51,
                "duration": 0.0863636,
                "tempo": 120.0
            },
            {
                "start_time": 44.5772727,
                "end_time": 44.7409091,
                "pitch": 58,
                "velocity": 51,
                "duration": 0.1636364,
                "tempo": 120.0
            },
            {
                "start_time": 44.7431818,
                "end_time": 44.8272727,
                "pitch": 61,
                "velocity": 51,
                "duration": 0.0840909,
                "tempo": 120.0
            },
            {
                "start_time": 44.8272727,
                "end_time": 44.9931818,
                "pitch": 60,
                "velocity": 51,
                "duration": 0.1659091,
                "tempo": 120.0
            },
            {
                "start_time": 44.9931818,
                "end_time": 45.0772727,
                "pitch": 58,
                "velocity": 51,
                "duration": 0.0840909,
                "tempo": 120.0
            },
            {
                "start_time": 45.0772727,
                "end_time": 45.2431818,
                "pitch": 55,
                "velocity": 51,
                "duration": 0.1659091,
                "tempo": 120.0
            },
            {
                "start_time": 45.2431818,
                "end_time": 45.5590909,
                "pitch": 53,
                "velocity": 51,
                "duration": 0.3159091,
                "tempo": 120.0
            },
            {
                "start_time": 45.5590909,
                "end_time": 45.6931818,
                "pitch": 51,
                "velocity": 51,
                "duration": 0.1340909,
                "tempo": 120.0
            },
            {
                "start_time": 45.6931818,
                "end_time": 45.7590909,
                "pitch": 48,
                "velocity": 51,
                "duration": 0.0659091,
                "tempo": 120.0
            },
            {
                "start_time": 46.3295455,
                "end_time": 46.5795455,
                "pitch": 43,
                "velocity": 51,
                "duration": 0.25,
                "tempo": 120.0
            },
            {
                "start_time": 46.5795455,
                "end_time": 46.8295455,
                "pitch": 55,
                "velocity": 51,
                "duration": 0.25,
                "tempo": 120.0
            },
            {
                "start_time": 46.8295455,
                "end_time": 46.9954545,
                "pitch": 53,
                "velocity": 51,
                "duration": 0.1659091,
                "tempo": 120.0
            },
            {
                "start_time": 46.9954545,
                "end_time": 47.0795455,
                "pitch": 50,
                "velocity": 51,
                "duration": 0.0840909,
                "tempo": 120.0
            },
            {
                "start_time": 47.0795455,
                "end_time": 47.2454545,
                "pitch": 49,
                "velocity": 51,
                "duration": 0.1659091,
                "tempo": 120.0
            },
            {
                "start_time": 47.2454545,
                "end_time": 47.4954545,
                "pitch": 50,
                "velocity": 51,
                "duration": 0.25,
                "tempo": 120.0
            },
            {
                "start_time": 47.4954545,
                "end_time": 47.5795455,
                "pitch": 50,
                "velocity": 51,
                "duration": 0.0840909,
                "tempo": 120.0
            },
            {
                "start_time": 47.5818182,
                "end_time": 47.8318182,
                "pitch": 50,
                "velocity": 51,
                "duration": 0.25,
                "tempo": 120.0
            },
            {
                "start_time": 47.8318182,
                "end_time": 48.0818182,
                "pitch": 49,
                "velocity": 51,
                "duration": 0.25,
                "tempo": 120.0
            },
            {
                "start_time": 48.0818182,
                "end_time": 48.2477273,
                "pitch": 48,
                "velocity": 51,
                "duration": 0.1659091,
                "tempo": 120.0
            },
            {
                "start_time": 48.2477273,
                "end_time": 48.3318182,
                "pitch": 46,
                "velocity": 51,
                "duration": 0.0840909,
                "tempo": 120.0
            },
            {
                "start_time": 48.3318182,
                "end_time": 48.5818182,
                "pitch": 43,
                "velocity": 51,
                "duration": 0.25,
                "tempo": 120.0
            },
            {
                "start_time": 48.5818182,
                "end_time": 48.8318182,
                "pitch": 55,
                "velocity": 51,
                "duration": 0.25,
                "tempo": 120.0
            },
            {
                "start_time": 48.8318182,
                "end_time": 48.9977273,
                "pitch": 53,
                "velocity": 51,
                "duration": 0.1659091,
                "tempo": 120.0
            },
            {
                "start_time": 48.9977273,
                "end_time": 49.0818182,
                "pitch": 50,
                "velocity": 51,
                "duration": 0.0840909,
                "tempo": 120.0
            },
            {
                "start_time": 49.0818182,
                "end_time": 49.2477273,
                "pitch": 49,
                "velocity": 51,
                "duration": 0.1659091,
                "tempo": 120.0
            },
            {
                "start_time": 41.6045455,
                "end_time": 49.6318182,
                "pitch": 32,
                "velocity": 51,
                "duration": 8.0272727,
                "tempo": 120.0
            },
            {
                "start_time": 49.2477273,
                "end_time": 49.6318182,
                "pitch": 50,
                "velocity": 51,
                "duration": 0.3840909,
                "tempo": 120.0
            },
            {
                "start_time": 49.6318182,
                "end_time": 49.7659091,
                "pitch": 47,
                "velocity": 51,
                "duration": 0.1340909,
                "tempo": 120.0
            },
            {
                "start_time": 50.3340909,
                "end_time": 50.5840909,
                "pitch": 43,
                "velocity": 51,
                "duration": 0.25,
                "tempo": 120.0
            },
            {
                "start_time": 50.5840909,
                "end_time": 50.8340909,
                "pitch": 55,
                "velocity": 51,
                "duration": 0.25,
                "tempo": 120.0
            },
            {
                "start_time": 50.8340909,
                "end_time": 51.0045455,
                "pitch": 53,
                "velocity": 51,
                "duration": 0.1704545,
                "tempo": 120.0
            },
            {
                "start_time": 51.0045455,
                "end_time": 51.0909091,
                "pitch": 50,
                "velocity": 51,
                "duration": 0.0863636,
                "tempo": 120.0
            },
            {
                "start_time": 51.0909091,
                "end_time": 51.2613636,
                "pitch": 49,
                "velocity": 51,
                "duration": 0.1704545,
                "tempo": 120.0
            },
            {
                "start_time": 51.2613636,
                "end_time": 51.5136364,
                "pitch": 50,
                "velocity": 51,
                "duration": 0.2522727,
                "tempo": 120.0
            },
            {
                "start_time": 51.5136364,
                "end_time": 51.5977273,
                "pitch": 50,
                "velocity": 51,
                "duration": 0.0840909,
                "tempo": 120.0
            },
            {
                "start_time": 51.5977273,
                "end_time": 51.8477273,
                "pitch": 53,
                "velocity": 51,
                "duration": 0.25,
                "tempo": 120.0
            },
            {
                "start_time": 51.85,
                "end_time": 52.0977273,
                "pitch": 55,
                "velocity": 51,
                "duration": 0.2477273,
                "tempo": 120.0
            },
            {
                "start_time": 52.1,
                "end_time": 52.2659091,
                "pitch": 58,
                "velocity": 51,
                "duration": 0.1659091,
                "tempo": 120.0
            },
            {
                "start_time": 44.2386364,
                "end_time": 52.2659091,
                "pitch": 64,
                "velocity": 51,
                "duration": 8.0272727,
                "tempo": 120.0
            },
            {
                "start_time": 52.2659091,
                "end_time": 52.35,
                "pitch": 60,
                "velocity": 51,
                "duration": 0.0840909,
                "tempo": 120.0
            },
            {
                "start_time": 52.35,
                "end_time": 52.5136364,
                "pitch": 61,
                "velocity": 51,
                "duration": 0.1636364,
                "tempo": 120.0
            },
            {
                "start_time": 52.5159091,
                "end_time": 52.6,
                "pitch": 60,
                "velocity": 51,
                "duration": 0.0840909,
                "tempo": 120.0
            },
            {
                "start_time": 52.6,
                "end_time": 52.7659091,
                "pitch": 58,
                "velocity": 51,
                "duration": 0.1659091,
                "tempo": 120.0
            },
            {
                "start_time": 52.7659091,
                "end_time": 52.85,
                "pitch": 61,
                "velocity": 51,
                "duration": 0.0840909,
                "tempo": 120.0
            },
            {
                "start_time": 52.85,
                "end_time": 53.0159091,
                "pitch": 60,
                "velocity": 51,
                "duration": 0.1659091,
                "tempo": 120.0
            },
            {
                "start_time": 53.0159091,
                "end_time": 53.1,
                "pitch": 58,
                "velocity": 51,
                "duration": 0.0840909,
                "tempo": 120.0
            },
            {
                "start_time": 53.1,
                "end_time": 53.2659091,
                "pitch": 55,
                "velocity": 51,
                "duration": 0.1659091,
                "tempo": 120.0
            },
            {
                "start_time": 53.2659091,
                "end_time": 53.5818182,
                "pitch": 53,
                "velocity": 51,
                "duration": 0.3159091,
                "tempo": 120.0
            },
            {
                "start_time": 53.5818182,
                "end_time": 53.7159091,
                "pitch": 51,
                "velocity": 51,
                "duration": 0.1340909,
                "tempo": 120.0
            },
            {
                "start_time": 53.7159091,
                "end_time": 53.7840909,
                "pitch": 48,
                "velocity": 51,
                "duration": 0.0681818,
                "tempo": 120.0
            }
        ],
        "Clarinet": [
            {
                "start_time": 34.2795455,
                "end_time": 35.1613636,
                "pitch": 103,
                "velocity": 64,
                "duration": 0.8818182,
                "tempo": 120.0
            },
            {
                "start_time": 35.1613636,
                "end_time": 35.2136364,
                "pitch": 106,
                "velocity": 64,
                "duration": 0.0522727,
                "tempo": 120.0
            }
        ],
        "Synth Bass 1": [
            {
                "start_time": 22.2477273,
                "end_time": 22.3454545,
                "pitch": 79,
                "velocity": 80,
                "duration": 0.0977273,
                "tempo": 120.0
            },
            {
                "start_time": 22.4295455,
                "end_time": 22.4613636,
                "pitch": 77,
                "velocity": 80,
                "duration": 0.0318182,
                "tempo": 120.0
            },
            {
                "start_time": 22.4954545,
                "end_time": 22.5954545,
                "pitch": 74,
                "velocity": 80,
                "duration": 0.1,
                "tempo": 120.0
            },
            {
                "start_time": 22.6795455,
                "end_time": 22.7136364,
                "pitch": 72,
                "velocity": 80,
                "duration": 0.0340909,
                "tempo": 120.0
            },
            {
                "start_time": 22.7477273,
                "end_time": 22.8454545,
                "pitch": 71,
                "velocity": 80,
                "duration": 0.0977273,
                "tempo": 120.0
            },
            {
                "start_time": 22.9295455,
                "end_time": 22.9636364,
                "pitch": 72,
                "velocity": 80,
                "duration": 0.0340909,
                "tempo": 120.0
            },
            {
                "start_time": 22.9977273,
                "end_time": 23.0954545,
                "pitch": 79,
                "velocity": 80,
                "duration": 0.0977273,
                "tempo": 120.0
            },
            {
                "start_time": 23.1795455,
                "end_time": 23.2136364,
                "pitch": 77,
                "velocity": 80,
                "duration": 0.0340909,
                "tempo": 120.0
            },
            {
                "start_time": 23.2477273,
                "end_time": 23.3477273,
                "pitch": 74,
                "velocity": 80,
                "duration": 0.1,
                "tempo": 120.0
            },
            {
                "start_time": 23.4318182,
                "end_time": 23.4636364,
                "pitch": 72,
                "velocity": 80,
                "duration": 0.0318182,
                "tempo": 120.0
            },
            {
                "start_time": 23.4977273,
                "end_time": 23.5977273,
                "pitch": 71,
                "velocity": 80,
                "duration": 0.1,
                "tempo": 120.0
            },
            {
                "start_time": 23.6818182,
                "end_time": 23.7136364,
                "pitch": 72,
                "velocity": 80,
                "duration": 0.0318182,
                "tempo": 120.0
            },
            {
                "start_time": 23.7477273,
                "end_time": 23.8477273,
                "pitch": 79,
                "velocity": 80,
                "duration": 0.1,
                "tempo": 120.0
            },
            {
                "start_time": 23.9318182,
                "end_time": 23.9636364,
                "pitch": 77,
                "velocity": 80,
                "duration": 0.0318182,
                "tempo": 120.0
            },
            {
                "start_time": 23.9977273,
                "end_time": 24.0977273,
                "pitch": 74,
                "velocity": 80,
                "duration": 0.1,
                "tempo": 120.0
            },
            {
                "start_time": 24.1818182,
                "end_time": 24.2136364,
                "pitch": 72,
                "velocity": 80,
                "duration": 0.0318182,
                "tempo": 120.0
            },
            {
                "start_time": 24.25,
                "end_time": 24.3477273,
                "pitch": 71,
                "velocity": 80,
                "duration": 0.0977273,
                "tempo": 120.0
            },
            {
                "start_time": 24.4318182,
                "end_time": 24.4659091,
                "pitch": 72,
                "velocity": 80,
                "duration": 0.0340909,
                "tempo": 120.0
            },
            {
                "start_time": 24.5,
                "end_time": 24.5977273,
                "pitch": 79,
                "velocity": 80,
                "duration": 0.0977273,
                "tempo": 120.0
            },
            {
                "start_time": 24.6818182,
                "end_time": 24.7159091,
                "pitch": 77,
                "velocity": 80,
                "duration": 0.0340909,
                "tempo": 120.0
            },
            {
                "start_time": 24.75,
                "end_time": 24.8477273,
                "pitch": 74,
                "velocity": 80,
                "duration": 0.0977273,
                "tempo": 120.0
            },
            {
                "start_time": 24.9318182,
                "end_time": 24.9659091,
                "pitch": 72,
                "velocity": 80,
                "duration": 0.0340909,
                "tempo": 120.0
            },
            {
                "start_time": 25.0,
                "end_time": 25.1,
                "pitch": 71,
                "velocity": 80,
                "duration": 0.1,
                "tempo": 120.0
            },
            {
                "start_time": 25.1818182,
                "end_time": 25.2159091,
                "pitch": 72,
                "velocity": 80,
                "duration": 0.0340909,
                "tempo": 120.0
            },
            {
                "start_time": 25.25,
                "end_time": 25.35,
                "pitch": 79,
                "velocity": 80,
                "duration": 0.1,
                "tempo": 120.0
            },
            {
                "start_time": 25.4340909,
                "end_time": 25.4659091,
                "pitch": 77,
                "velocity": 80,
                "duration": 0.0318182,
                "tempo": 120.0
            },
            {
                "start_time": 25.5,
                "end_time": 25.6,
                "pitch": 74,
                "velocity": 80,
                "duration": 0.1,
                "tempo": 120.0
            },
            {
                "start_time": 25.6840909,
                "end_time": 25.7159091,
                "pitch": 72,
                "velocity": 80,
                "duration": 0.0318182,
                "tempo": 120.0
            },
            {
                "start_time": 25.7522727,
                "end_time": 25.85,
                "pitch": 71,
                "velocity": 80,
                "duration": 0.0977273,
                "tempo": 120.0
            },
            {
                "start_time": 25.9340909,
                "end_time": 25.9659091,
                "pitch": 72,
                "velocity": 80,
                "duration": 0.0318182,
                "tempo": 120.0
            },
            {
                "start_time": 26.0022727,
                "end_time": 26.1,
                "pitch": 79,
                "velocity": 80,
                "duration": 0.0977273,
                "tempo": 120.0
            },
            {
                "start_time": 26.1840909,
                "end_time": 26.2181818,
                "pitch": 77,
                "velocity": 80,
                "duration": 0.0340909,
                "tempo": 120.0
            },
            {
                "start_time": 26.2522727,
                "end_time": 26.35,
                "pitch": 74,
                "velocity": 80,
                "duration": 0.0977273,
                "tempo": 120.0
            },
            {
                "start_time": 26.4340909,
                "end_time": 26.4681818,
                "pitch": 72,
                "velocity": 80,
                "duration": 0.0340909,
                "tempo": 120.0
            },
            {
                "start_time": 26.5022727,
                "end_time": 26.6,
                "pitch": 71,
                "velocity": 80,
                "duration": 0.0977273,
                "tempo": 120.0
            },
            {
                "start_time": 26.6840909,
                "end_time": 26.7181818,
                "pitch": 72,
                "velocity": 80,
                "duration": 0.0340909,
                "tempo": 120.0
            },
            {
                "start_time": 26.7522727,
                "end_time": 26.85,
                "pitch": 79,
                "velocity": 80,
                "duration": 0.0977273,
                "tempo": 120.0
            },
            {
                "start_time": 26.9340909,
                "end_time": 26.9681818,
                "pitch": 77,
                "velocity": 80,
                "duration": 0.0340909,
                "tempo": 120.0
            },
            {
                "start_time": 27.0022727,
                "end_time": 27.1022727,
                "pitch": 74,
                "velocity": 80,
                "duration": 0.1,
                "tempo": 120.0
            },
            {
                "start_time": 27.1840909,
                "end_time": 27.2181818,
                "pitch": 72,
                "velocity": 80,
                "duration": 0.0340909,
                "tempo": 120.0
            },
            {
                "start_time": 27.2522727,
                "end_time": 27.3522727,
                "pitch": 71,
                "velocity": 80,
                "duration": 0.1,
                "tempo": 120.0
            },
            {
                "start_time": 27.4363636,
                "end_time": 27.4681818,
                "pitch": 72,
                "velocity": 80,
                "duration": 0.0318182,
                "tempo": 120.0
            },
            {
                "start_time": 27.5022727,
                "end_time": 27.6022727,
                "pitch": 79,
                "velocity": 80,
                "duration": 0.1,
                "tempo": 120.0
            },
            {
                "start_time": 27.6863636,
                "end_time": 27.7181818,
                "pitch": 77,
                "velocity": 80,
                "duration": 0.0318182,
                "tempo": 120.0
            },
            {
                "start_time": 27.7545455,
                "end_time": 27.8545455,
                "pitch": 74,
                "velocity": 80,
                "duration": 0.1,
                "tempo": 120.0
            },
            {
                "start_time": 27.9409091,
                "end_time": 27.975,
                "pitch": 72,
                "velocity": 80,
                "duration": 0.0340909,
                "tempo": 120.0
            },
            {
                "start_time": 28.0090909,
                "end_time": 28.1113636,
                "pitch": 71,
                "velocity": 80,
                "duration": 0.1022727,
                "tempo": 120.0
            },
            {
                "start_time": 28.1977273,
                "end_time": 28.2318182,
                "pitch": 72,
                "velocity": 80,
                "duration": 0.0340909,
                "tempo": 120.0
            },
            {
                "start_time": 28.2659091,
                "end_time": 28.3659091,
                "pitch": 79,
                "velocity": 80,
                "duration": 0.1,
                "tempo": 120.0
            },
            {
                "start_time": 28.45,
                "end_time": 28.4840909,
                "pitch": 77,
                "velocity": 80,
                "duration": 0.0340909,
                "tempo": 120.0
            },
            {
                "start_time": 28.5181818,
                "end_time": 28.6159091,
                "pitch": 74,
                "velocity": 80,
                "duration": 0.0977273,
                "tempo": 120.0
            },
            {
                "start_time": 28.7,
                "end_time": 28.7340909,
                "pitch": 72,
                "velocity": 80,
                "duration": 0.0340909,
                "tempo": 120.0
            },
            {
                "start_time": 28.7681818,
                "end_time": 28.8659091,
                "pitch": 71,
                "velocity": 80,
                "duration": 0.0977273,
                "tempo": 120.0
            },
            {
                "start_time": 28.95,
                "end_time": 28.9840909,
                "pitch": 72,
                "velocity": 80,
                "duration": 0.0340909,
                "tempo": 120.0
            },
            {
                "start_time": 34.2795455,
                "end_time": 34.3772727,
                "pitch": 63,
                "velocity": 101,
                "duration": 0.0977273,
                "tempo": 120.0
            },
            {
                "start_time": 34.3772727,
                "end_time": 34.4613636,
                "pitch": 65,
                "velocity": 101,
                "duration": 0.0840909,
                "tempo": 120.0
            },
            {
                "start_time": 34.6454545,
                "end_time": 34.7113636,
                "pitch": 75,
                "velocity": 101,
                "duration": 0.0659091,
                "tempo": 120.0
            },
            {
                "start_time": 34.7795455,
                "end_time": 34.8454545,
                "pitch": 83,
                "velocity": 101,
                "duration": 0.0659091,
                "tempo": 120.0
            },
            {
                "start_time": 34.9113636,
                "end_time": 34.9795455,
                "pitch": 77,
                "velocity": 101,
                "duration": 0.0681818,
                "tempo": 120.0
            },
            {
                "start_time": 35.0454545,
                "end_time": 35.1113636,
                "pitch": 83,
                "velocity": 101,
                "duration": 0.0659091,
                "tempo": 120.0
            },
            {
                "start_time": 35.1795455,
                "end_time": 35.2613636,
                "pitch": 72,
                "velocity": 101,
                "duration": 0.0818182,
                "tempo": 120.0
            },
            {
                "start_time": 35.2613636,
                "end_time": 35.3295455,
                "pitch": 74,
                "velocity": 101,
                "duration": 0.0681818,
                "tempo": 120.0
            },
            {
                "start_time": 35.4636364,
                "end_time": 35.5454545,
                "pitch": 76,
                "velocity": 101,
                "duration": 0.0818182,
                "tempo": 120.0
            },
            {
                "start_time": 35.6295455,
                "end_time": 35.7136364,
                "pitch": 77,
                "velocity": 101,
                "duration": 0.0840909,
                "tempo": 120.0
            },
            {
                "start_time": 35.7977273,
                "end_time": 35.8818182,
                "pitch": 74,
                "velocity": 101,
                "duration": 0.0840909,
                "tempo": 120.0
            },
            {
                "start_time": 35.9681818,
                "end_time": 36.0363636,
                "pitch": 72,
                "velocity": 101,
                "duration": 0.0681818,
                "tempo": 120.0
            },
            {
                "start_time": 36.0363636,
                "end_time": 36.1045455,
                "pitch": 70,
                "velocity": 101,
                "duration": 0.0681818,
                "tempo": 120.0
            },
            {
                "start_time": 36.1045455,
                "end_time": 36.1568182,
                "pitch": 67,
                "velocity": 101,
                "duration": 0.0522727,
                "tempo": 120.0
            },
            {
                "start_time": 36.3431818,
                "end_time": 36.3590909,
                "pitch": 67,
                "velocity": 101,
                "duration": 0.0159091,
                "tempo": 120.0
            },
            {
                "start_time": 36.3590909,
                "end_time": 36.4568182,
                "pitch": 67,
                "velocity": 101,
                "duration": 0.0977273,
                "tempo": 120.0
            },
            {
                "start_time": 36.4568182,
                "end_time": 36.5227273,
                "pitch": 64,
                "velocity": 101,
                "duration": 0.0659091,
                "tempo": 120.0
            },
            {
                "start_time": 36.7045455,
                "end_time": 36.7863636,
                "pitch": 71,
                "velocity": 101,
                "duration": 0.0818182,
                "tempo": 120.0
            },
            {
                "start_time": 36.8545455,
                "end_time": 36.9386364,
                "pitch": 83,
                "velocity": 127,
                "duration": 0.0840909,
                "tempo": 120.0
            },
            {
                "start_time": 36.3590909,
                "end_time": 37.025,
                "pitch": 79,
                "velocity": 101,
                "duration": 0.6659091,
                "tempo": 120.0
            },
            {
                "start_time": 37.0068182,
                "end_time": 37.025,
                "pitch": 79,
                "velocity": 127,
                "duration": 0.0181818,
                "tempo": 120.0
            },
            {
                "start_time": 37.025,
                "end_time": 37.0931818,
                "pitch": 79,
                "velocity": 127,
                "duration": 0.0681818,
                "tempo": 120.0
            },
            {
                "start_time": 37.1613636,
                "end_time": 37.2477273,
                "pitch": 89,
                "velocity": 127,
                "duration": 0.0863636,
                "tempo": 120.0
            },
            {
                "start_time": 37.025,
                "end_time": 37.3318182,
                "pitch": 91,
                "velocity": 127,
                "duration": 0.3068182,
                "tempo": 120.0
            },
            {
                "start_time": 37.3159091,
                "end_time": 37.3318182,
                "pitch": 91,
                "velocity": 127,
                "duration": 0.0159091,
                "tempo": 120.0
            },
            {
                "start_time": 37.3318182,
                "end_time": 37.3977273,
                "pitch": 91,
                "velocity": 127,
                "duration": 0.0659091,
                "tempo": 120.0
            },
            {
                "start_time": 37.4659091,
                "end_time": 37.55,
                "pitch": 95,
                "velocity": 127,
                "duration": 0.0840909,
                "tempo": 120.0
            }
        ],
        "Trumpet": [
            {
                "start_time": 29.0181818,
                "end_time": 29.1,
                "pitch": 103,
                "velocity": 64,
                "duration": 0.0818182,
                "tempo": 120.0
            },
            {
                "start_time": 29.2681818,
                "end_time": 29.35,
                "pitch": 103,
                "velocity": 64,
                "duration": 0.0818182,
                "tempo": 120.0
            },
            {
                "start_time": 29.5181818,
                "end_time": 29.6022727,
                "pitch": 103,
                "velocity": 64,
                "duration": 0.0840909,
                "tempo": 120.0
            },
            {
                "start_time": 29.7681818,
                "end_time": 29.8522727,
                "pitch": 103,
                "velocity": 64,
                "duration": 0.0840909,
                "tempo": 120.0
            },
            {
                "start_time": 30.0204545,
                "end_time": 30.1022727,
                "pitch": 103,
                "velocity": 64,
                "duration": 0.0818182,
                "tempo": 120.0
            },
            {
                "start_time": 30.2704545,
                "end_time": 30.3522727,
                "pitch": 103,
                "velocity": 64,
                "duration": 0.0818182,
                "tempo": 120.0
            },
            {
                "start_time": 30.5204545,
                "end_time": 30.6022727,
                "pitch": 103,
                "velocity": 64,
                "duration": 0.0818182,
                "tempo": 120.0
            },
            {
                "start_time": 30.7704545,
                "end_time": 30.8522727,
                "pitch": 103,
                "velocity": 64,
                "duration": 0.0818182,
                "tempo": 120.0
            },
            {
                "start_time": 31.0204545,
                "end_time": 31.1022727,
                "pitch": 103,
                "velocity": 64,
                "duration": 0.0818182,
                "tempo": 120.0
            },
            {
                "start_time": 31.2704545,
                "end_time": 31.3522727,
                "pitch": 103,
                "velocity": 64,
                "duration": 0.0818182,
                "tempo": 120.0
            },
            {
                "start_time": 31.5204545,
                "end_time": 31.6022727,
                "pitch": 103,
                "velocity": 64,
                "duration": 0.0818182,
                "tempo": 120.0
            },
            {
                "start_time": 31.7727273,
                "end_time": 31.8545455,
                "pitch": 103,
                "velocity": 64,
                "duration": 0.0818182,
                "tempo": 120.0
            },
            {
                "start_time": 32.0227273,
                "end_time": 32.1045455,
                "pitch": 103,
                "velocity": 64,
                "duration": 0.0818182,
                "tempo": 120.0
            },
            {
                "start_time": 32.2727273,
                "end_time": 32.3545455,
                "pitch": 103,
                "velocity": 64,
                "duration": 0.0818182,
                "tempo": 120.0
            },
            {
                "start_time": 32.525,
                "end_time": 32.6068182,
                "pitch": 103,
                "velocity": 64,
                "duration": 0.0818182,
                "tempo": 120.0
            },
            {
                "start_time": 32.7772727,
                "end_time": 32.8590909,
                "pitch": 103,
                "velocity": 64,
                "duration": 0.0818182,
                "tempo": 120.0
            },
            {
                "start_time": 33.0272727,
                "end_time": 33.1090909,
                "pitch": 103,
                "velocity": 64,
                "duration": 0.0818182,
                "tempo": 120.0
            },
            {
                "start_time": 33.2772727,
                "end_time": 33.3590909,
                "pitch": 103,
                "velocity": 64,
                "duration": 0.0818182,
                "tempo": 120.0
            },
            {
                "start_time": 33.5272727,
                "end_time": 33.6090909,
                "pitch": 103,
                "velocity": 64,
                "duration": 0.0818182,
                "tempo": 120.0
            },
            {
                "start_time": 33.7795455,
                "end_time": 33.8613636,
                "pitch": 103,
                "velocity": 64,
                "duration": 0.0818182,
                "tempo": 120.0
            },
            {
                "start_time": 34.0295455,
                "end_time": 34.1113636,
                "pitch": 103,
                "velocity": 64,
                "duration": 0.0818182,
                "tempo": 120.0
            }
        ],
        "Acoustic Bass": [
            {
                "start_time": 0.1613636,
                "end_time": 1.0,
                "pitch": 31,
                "velocity": 80,
                "duration": 0.8386364,
                "tempo": 120.0
            },
            {
                "start_time": 1.0,
                "end_time": 1.0863636,
                "pitch": 31,
                "velocity": 80,
                "duration": 0.0863636,
                "tempo": 120.0
            },
            {
                "start_time": 1.0863636,
                "end_time": 1.1727273,
                "pitch": 31,
                "velocity": 80,
                "duration": 0.0863636,
                "tempo": 120.0
            },
            {
                "start_time": 1.1727273,
                "end_time": 2.0068182,
                "pitch": 31,
                "velocity": 80,
                "duration": 0.8340909,
                "tempo": 120.0
            },
            {
                "start_time": 2.0068182,
                "end_time": 2.0886364,
                "pitch": 31,
                "velocity": 80,
                "duration": 0.0818182,
                "tempo": 120.0
            },
            {
                "start_time": 2.0886364,
                "end_time": 2.175,
                "pitch": 31,
                "velocity": 80,
                "duration": 0.0863636,
                "tempo": 120.0
            },
            {
                "start_time": 2.175,
                "end_time": 3.0113636,
                "pitch": 32,
                "velocity": 80,
                "duration": 0.8363636,
                "tempo": 120.0
            },
            {
                "start_time": 3.0113636,
                "end_time": 3.0954545,
                "pitch": 32,
                "velocity": 80,
                "duration": 0.0840909,
                "tempo": 120.0
            },
            {
                "start_time": 3.0954545,
                "end_time": 3.1795455,
                "pitch": 32,
                "velocity": 80,
                "duration": 0.0840909,
                "tempo": 120.0
            },
            {
                "start_time": 3.1795455,
                "end_time": 4.0136364,
                "pitch": 32,
                "velocity": 80,
                "duration": 0.8340909,
                "tempo": 120.0
            },
            {
                "start_time": 4.0136364,
                "end_time": 4.0954545,
                "pitch": 32,
                "velocity": 80,
                "duration": 0.0818182,
                "tempo": 120.0
            },
            {
                "start_time": 4.0954545,
                "end_time": 4.1818182,
                "pitch": 32,
                "velocity": 80,
                "duration": 0.0863636,
                "tempo": 120.0
            },
            {
                "start_time": 4.1818182,
                "end_time": 4.4318182,
                "pitch": 32,
                "velocity": 80,
                "duration": 0.25,
                "tempo": 120.0
            },
            {
                "start_time": 4.4318182,
                "end_time": 4.6818182,
                "pitch": 34,
                "velocity": 80,
                "duration": 0.25,
                "tempo": 120.0
            },
            {
                "start_time": 4.6818182,
                "end_time": 4.9386364,
                "pitch": 32,
                "velocity": 80,
                "duration": 0.2568182,
                "tempo": 120.0
            },
            {
                "start_time": 4.9386364,
                "end_time": 5.1954545,
                "pitch": 31,
                "velocity": 80,
                "duration": 0.2568182,
                "tempo": 120.0
            },
            {
                "start_time": 5.1954545,
                "end_time": 5.4454545,
                "pitch": 30,
                "velocity": 80,
                "duration": 0.25,
                "tempo": 120.0
            },
            {
                "start_time": 5.4454545,
                "end_time": 5.6113636,
                "pitch": 30,
                "velocity": 80,
                "duration": 0.1659091,
                "tempo": 120.0
            },
            {
                "start_time": 5.6113636,
                "end_time": 5.6613636,
                "pitch": 31,
                "velocity": 80,
                "duration": 0.05,
                "tempo": 120.0
            },
            {
                "start_time": 5.6613636,
                "end_time": 5.6954545,
                "pitch": 34,
                "velocity": 80,
                "duration": 0.0340909,
                "tempo": 120.0
            },
            {
                "start_time": 5.6954545,
                "end_time": 5.7272727,
                "pitch": 36,
                "velocity": 80,
                "duration": 0.0318182,
                "tempo": 120.0
            },
            {
                "start_time": 5.7272727,
                "end_time": 5.7613636,
                "pitch": 38,
                "velocity": 80,
                "duration": 0.0340909,
                "tempo": 120.0
            },
            {
                "start_time": 5.6954545,
                "end_time": 5.8954545,
                "pitch": 40,
                "velocity": 80,
                "duration": 0.2,
                "tempo": 120.0
            },
            {
                "start_time": 5.7613636,
                "end_time": 5.8954545,
                "pitch": 40,
                "velocity": 80,
                "duration": 0.1340909,
                "tempo": 120.0
            },
            {
                "start_time": 5.8954545,
                "end_time": 5.9613636,
                "pitch": 38,
                "velocity": 80,
                "duration": 0.0659091,
                "tempo": 120.0
            },
            {
                "start_time": 5.9613636,
                "end_time": 5.9954545,
                "pitch": 36,
                "velocity": 80,
                "duration": 0.0340909,
                "tempo": 120.0
            },
            {
                "start_time": 5.9954545,
                "end_time": 6.0613636,
                "pitch": 35,
                "velocity": 80,
                "duration": 0.0659091,
                "tempo": 120.0
            },
            {
                "start_time": 6.0613636,
                "end_time": 6.1613636,
                "pitch": 33,
                "velocity": 80,
                "duration": 0.1,
                "tempo": 120.0
            },
            {
                "start_time": 6.1613636,
                "end_time": 6.1977273,
                "pitch": 29,
                "velocity": 80,
                "duration": 0.0363636,
                "tempo": 120.0
            },
            {
                "start_time": 6.2,
                "end_time": 6.4477273,
                "pitch": 31,
                "velocity": 80,
                "duration": 0.2477273,
                "tempo": 120.0
            },
            {
                "start_time": 6.4477273,
                "end_time": 6.6977273,
                "pitch": 43,
                "velocity": 80,
                "duration": 0.25,
                "tempo": 120.0
            },
            {
                "start_time": 6.6977273,
                "end_time": 6.8636364,
                "pitch": 41,
                "velocity": 80,
                "duration": 0.1659091,
                "tempo": 120.0
            },
            {
                "start_time": 6.8636364,
                "end_time": 6.9477273,
                "pitch": 38,
                "velocity": 80,
                "duration": 0.0840909,
                "tempo": 120.0
            },
            {
                "start_time": 6.9477273,
                "end_time": 7.1136364,
                "pitch": 37,
                "velocity": 80,
                "duration": 0.1659091,
                "tempo": 120.0
            },
            {
                "start_time": 7.1136364,
                "end_time": 7.3636364,
                "pitch": 38,
                "velocity": 80,
                "duration": 0.25,
                "tempo": 120.0
            },
            {
                "start_time": 7.3636364,
                "end_time": 7.4477273,
                "pitch": 38,
                "velocity": 80,
                "duration": 0.0840909,
                "tempo": 120.0
            },
            {
                "start_time": 7.45,
                "end_time": 7.6977273,
                "pitch": 38,
                "velocity": 80,
                "duration": 0.2477273,
                "tempo": 120.0
            },
            {
                "start_time": 7.7,
                "end_time": 7.95,
                "pitch": 37,
                "velocity": 80,
                "duration": 0.25,
                "tempo": 120.0
            },
            {
                "start_time": 7.95,
                "end_time": 8.1136364,
                "pitch": 36,
                "velocity": 80,
                "duration": 0.1636364,
                "tempo": 120.0
            },
            {
                "start_time": 8.1159091,
                "end_time": 8.2,
                "pitch": 34,
                "velocity": 80,
                "duration": 0.0840909,
                "tempo": 120.0
            },
            {
                "start_time": 8.2,
                "end_time": 8.4522727,
                "pitch": 31,
                "velocity": 80,
                "duration": 0.2522727,
                "tempo": 120.0
            },
            {
                "start_time": 8.4522727,
                "end_time": 8.7045455,
                "pitch": 43,
                "velocity": 80,
                "duration": 0.2522727,
                "tempo": 120.0
            },
            {
                "start_time": 8.7045455,
                "end_time": 8.8704545,
                "pitch": 41,
                "velocity": 80,
                "duration": 0.1659091,
                "tempo": 120.0
            },
            {
                "start_time": 8.8704545,
                "end_time": 8.9545455,
                "pitch": 38,
                "velocity": 80,
                "duration": 0.0840909,
                "tempo": 120.0
            },
            {
                "start_time": 8.9545455,
                "end_time": 9.1204545,
                "pitch": 37,
                "velocity": 80,
                "duration": 0.1659091,
                "tempo": 120.0
            },
            {
                "start_time": 9.1204545,
                "end_time": 9.4363636,
                "pitch": 38,
                "velocity": 80,
                "duration": 0.3159091,
                "tempo": 120.0
            },
            {
                "start_time": 5.9954545,
                "end_time": 9.5045455,
                "pitch": 19,
                "velocity": 80,
                "duration": 3.5090909,
                "tempo": 120.0
            },
            {
                "start_time": 9.4363636,
                "end_time": 9.5045455,
                "pitch": 36,
                "velocity": 80,
                "duration": 0.0681818,
                "tempo": 120.0
            },
            {
                "start_time": 9.5045455,
                "end_time": 9.6363636,
                "pitch": 35,
                "velocity": 80,
                "duration": 0.1318182,
                "tempo": 120.0
            },
            {
                "start_time": 10.2068182,
                "end_time": 10.4568182,
                "pitch": 31,
                "velocity": 80,
                "duration": 0.25,
                "tempo": 120.0
            },
            {
                "start_time": 10.4568182,
                "end_time": 10.7068182,
                "pitch": 43,
                "velocity": 80,
                "duration": 0.25,
                "tempo": 120.0
            },
            {
                "start_time": 10.7068182,
                "end_time": 10.8727273,
                "pitch": 41,
                "velocity": 80,
                "duration": 0.1659091,
                "tempo": 120.0
            },
            {
                "start_time": 10.8727273,
                "end_time": 10.9568182,
                "pitch": 38,
                "velocity": 80,
                "duration": 0.0840909,
                "tempo": 120.0
            },
            {
                "start_time": 10.9568182,
                "end_time": 11.1227273,
                "pitch": 37,
                "velocity": 80,
                "duration": 0.1659091,
                "tempo": 120.0
            },
            {
                "start_time": 11.1227273,
                "end_time": 11.3727273,
                "pitch": 38,
                "velocity": 80,
                "duration": 0.25,
                "tempo": 120.0
            },
            {
                "start_time": 11.3727273,
                "end_time": 11.4568182,
                "pitch": 38,
                "velocity": 80,
                "duration": 0.0840909,
                "tempo": 120.0
            },
            {
                "start_time": 11.4590909,
                "end_time": 11.7090909,
                "pitch": 41,
                "velocity": 80,
                "duration": 0.25,
                "tempo": 120.0
            },
            {
                "start_time": 11.7090909,
                "end_time": 11.9636364,
                "pitch": 43,
                "velocity": 80,
                "duration": 0.2545455,
                "tempo": 120.0
            },
            {
                "start_time": 11.9659091,
                "end_time": 12.1340909,
                "pitch": 46,
                "velocity": 80,
                "duration": 0.1681818,
                "tempo": 120.0
            },
            {
                "start_time": 12.1340909,
                "end_time": 12.2227273,
                "pitch": 48,
                "velocity": 80,
                "duration": 0.0886364,
                "tempo": 120.0
            },
            {
                "start_time": 12.2227273,
                "end_time": 12.3863636,
                "pitch": 49,
                "velocity": 80,
                "duration": 0.1636364,
                "tempo": 120.0
            },
            {
                "start_time": 12.3863636,
                "end_time": 12.4727273,
                "pitch": 48,
                "velocity": 80,
                "duration": 0.0863636,
                "tempo": 120.0
            },
            {
                "start_time": 12.4727273,
                "end_time": 12.6363636,
                "pitch": 46,
                "velocity": 80,
                "duration": 0.1636364,
                "tempo": 120.0
            },
            {
                "start_time": 12.6386364,
                "end_time": 12.7227273,
                "pitch": 49,
                "velocity": 80,
                "duration": 0.0840909,
                "tempo": 120.0
            },
            {
                "start_time": 12.7227273,
                "end_time": 12.8886364,
                "pitch": 48,
                "velocity": 80,
                "duration": 0.1659091,
                "tempo": 120.0
            },
            {
                "start_time": 12.8886364,
                "end_time": 12.9727273,
                "pitch": 46,
                "velocity": 80,
                "duration": 0.0840909,
                "tempo": 120.0
            },
            {
                "start_time": 12.9727273,
                "end_time": 13.1386364,
                "pitch": 43,
                "velocity": 80,
                "duration": 0.1659091,
                "tempo": 120.0
            },
            {
                "start_time": 13.1386364,
                "end_time": 13.4545455,
                "pitch": 41,
                "velocity": 80,
                "duration": 0.3159091,
                "tempo": 120.0
            },
            {
                "start_time": 13.4545455,
                "end_time": 13.5886364,
                "pitch": 39,
                "velocity": 80,
                "duration": 0.1340909,
                "tempo": 120.0
            },
            {
                "start_time": 13.5886364,
                "end_time": 13.6545455,
                "pitch": 36,
                "velocity": 80,
                "duration": 0.0659091,
                "tempo": 120.0
            },
            {
                "start_time": 14.225,
                "end_time": 14.475,
                "pitch": 31,
                "velocity": 80,
                "duration": 0.25,
                "tempo": 120.0
            },
            {
                "start_time": 14.475,
                "end_time": 14.725,
                "pitch": 43,
                "velocity": 80,
                "duration": 0.25,
                "tempo": 120.0
            },
            {
                "start_time": 14.725,
                "end_time": 14.8909091,
                "pitch": 41,
                "velocity": 80,
                "duration": 0.1659091,
                "tempo": 120.0
            },
            {
                "start_time": 14.8909091,
                "end_time": 14.975,
                "pitch": 38,
                "velocity": 80,
                "duration": 0.0840909,
                "tempo": 120.0
            },
            {
                "start_time": 14.975,
                "end_time": 15.1409091,
                "pitch": 37,
                "velocity": 80,
                "duration": 0.1659091,
                "tempo": 120.0
            },
            {
                "start_time": 15.1409091,
                "end_time": 15.3909091,
                "pitch": 38,
                "velocity": 80,
                "duration": 0.25,
                "tempo": 120.0
            },
            {
                "start_time": 15.3909091,
                "end_time": 15.475,
                "pitch": 38,
                "velocity": 80,
                "duration": 0.0840909,
                "tempo": 120.0
            },
            {
                "start_time": 15.4772727,
                "end_time": 15.725,
                "pitch": 38,
                "velocity": 80,
                "duration": 0.2477273,
                "tempo": 120.0
            },
            {
                "start_time": 15.7272727,
                "end_time": 15.975,
                "pitch": 37,
                "velocity": 80,
                "duration": 0.2477273,
                "tempo": 120.0
            },
            {
                "start_time": 15.9772727,
                "end_time": 16.1431818,
                "pitch": 36,
                "velocity": 80,
                "duration": 0.1659091,
                "tempo": 120.0
            },
            {
                "start_time": 16.1431818,
                "end_time": 16.2272727,
                "pitch": 34,
                "velocity": 80,
                "duration": 0.0840909,
                "tempo": 120.0
            },
            {
                "start_time": 16.2272727,
                "end_time": 16.4772727,
                "pitch": 31,
                "velocity": 80,
                "duration": 0.25,
                "tempo": 120.0
            },
            {
                "start_time": 16.4772727,
                "end_time": 16.7272727,
                "pitch": 43,
                "velocity": 80,
                "duration": 0.25,
                "tempo": 120.0
            },
            {
                "start_time": 16.7272727,
                "end_time": 16.8931818,
                "pitch": 41,
                "velocity": 80,
                "duration": 0.1659091,
                "tempo": 120.0
            },
            {
                "start_time": 16.8931818,
                "end_time": 16.9772727,
                "pitch": 38,
                "velocity": 80,
                "duration": 0.0840909,
                "tempo": 120.0
            },
            {
                "start_time": 16.9772727,
                "end_time": 17.1431818,
                "pitch": 37,
                "velocity": 80,
                "duration": 0.1659091,
                "tempo": 120.0
            },
            {
                "start_time": 17.1431818,
                "end_time": 17.4590909,
                "pitch": 38,
                "velocity": 80,
                "duration": 0.3159091,
                "tempo": 120.0
            },
            {
                "start_time": 9.5045455,
                "end_time": 17.5272727,
                "pitch": 19,
                "velocity": 80,
                "duration": 8.0227273,
                "tempo": 120.0
            },
            {
                "start_time": 17.4590909,
                "end_time": 17.5272727,
                "pitch": 36,
                "velocity": 80,
                "duration": 0.0681818,
                "tempo": 120.0
            },
            {
                "start_time": 17.5272727,
                "end_time": 17.6613636,
                "pitch": 35,
                "velocity": 80,
                "duration": 0.1340909,
                "tempo": 120.0
            },
            {
                "start_time": 18.2295455,
                "end_time": 18.4795455,
                "pitch": 31,
                "velocity": 80,
                "duration": 0.25,
                "tempo": 120.0
            },
            {
                "start_time": 18.4795455,
                "end_time": 18.7295455,
                "pitch": 43,
                "velocity": 80,
                "duration": 0.25,
                "tempo": 120.0
            },
            {
                "start_time": 18.7295455,
                "end_time": 18.8954545,
                "pitch": 41,
                "velocity": 80,
                "duration": 0.1659091,
                "tempo": 120.0
            },
            {
                "start_time": 18.8954545,
                "end_time": 18.9795455,
                "pitch": 38,
                "velocity": 80,
                "duration": 0.0840909,
                "tempo": 120.0
            },
            {
                "start_time": 18.9795455,
                "end_time": 19.1454545,
                "pitch": 37,
                "velocity": 80,
                "duration": 0.1659091,
                "tempo": 120.0
            },
            {
                "start_time": 19.1454545,
                "end_time": 19.3954545,
                "pitch": 38,
                "velocity": 80,
                "duration": 0.25,
                "tempo": 120.0
            },
            {
                "start_time": 19.3977273,
                "end_time": 19.4818182,
                "pitch": 38,
                "velocity": 80,
                "duration": 0.0840909,
                "tempo": 120.0
            },
            {
                "start_time": 19.4818182,
                "end_time": 19.7318182,
                "pitch": 41,
                "velocity": 80,
                "duration": 0.25,
                "tempo": 120.0
            },
            {
                "start_time": 19.7318182,
                "end_time": 19.9886364,
                "pitch": 43,
                "velocity": 80,
                "duration": 0.2568182,
                "tempo": 120.0
            },
            {
                "start_time": 19.9886364,
                "end_time": 20.1568182,
                "pitch": 46,
                "velocity": 80,
                "duration": 0.1681818,
                "tempo": 120.0
            },
            {
                "start_time": 12.1340909,
                "end_time": 20.1568182,
                "pitch": 52,
                "velocity": 80,
                "duration": 8.0227273,
                "tempo": 120.0
            },
            {
                "start_time": 20.1568182,
                "end_time": 20.2454545,
                "pitch": 48,
                "velocity": 80,
                "duration": 0.0886364,
                "tempo": 120.0
            },
            {
                "start_time": 20.2454545,
                "end_time": 20.4090909,
                "pitch": 49,
                "velocity": 80,
                "duration": 0.1636364,
                "tempo": 120.0
            },
            {
                "start_time": 20.4113636,
                "end_time": 20.4954545,
                "pitch": 48,
                "velocity": 80,
                "duration": 0.0840909,
                "tempo": 120.0
            },
            {
                "start_time": 20.4954545,
                "end_time": 20.6613636,
                "pitch": 46,
                "velocity": 80,
                "duration": 0.1659091,
                "tempo": 120.0
            },
            {
                "start_time": 20.6613636,
                "end_time": 20.7454545,
                "pitch": 49,
                "velocity": 80,
                "duration": 0.0840909,
                "tempo": 120.0
            },
            {
                "start_time": 20.7454545,
                "end_time": 20.9113636,
                "pitch": 48,
                "velocity": 80,
                "duration": 0.1659091,
                "tempo": 120.0
            },
            {
                "start_time": 20.9113636,
                "end_time": 20.9954545,
                "pitch": 46,
                "velocity": 80,
                "duration": 0.0840909,
                "tempo": 120.0
            },
            {
                "start_time": 20.9954545,
                "end_time": 21.1613636,
                "pitch": 43,
                "velocity": 80,
                "duration": 0.1659091,
                "tempo": 120.0
            },
            {
                "start_time": 21.1613636,
                "end_time": 21.4772727,
                "pitch": 41,
                "velocity": 80,
                "duration": 0.3159091,
                "tempo": 120.0
            },
            {
                "start_time": 21.4772727,
                "end_time": 21.6113636,
                "pitch": 39,
                "velocity": 80,
                "duration": 0.1340909,
                "tempo": 120.0
            },
            {
                "start_time": 21.6113636,
                "end_time": 21.6795455,
                "pitch": 36,
                "velocity": 80,
                "duration": 0.0681818,
                "tempo": 120.0
            },
            {
                "start_time": 23.25,
                "end_time": 23.4136364,
                "pitch": 44,
                "velocity": 80,
                "duration": 0.1636364,
                "tempo": 120.0
            },
            {
                "start_time": 23.4159091,
                "end_time": 23.4977273,
                "pitch": 46,
                "velocity": 80,
                "duration": 0.0818182,
                "tempo": 120.0
            },
            {
                "start_time": 23.5,
                "end_time": 23.6659091,
                "pitch": 46,
                "velocity": 80,
                "duration": 0.1659091,
                "tempo": 120.0
            },
            {
                "start_time": 23.6659091,
                "end_time": 23.9159091,
                "pitch": 46,
                "velocity": 80,
                "duration": 0.25,
                "tempo": 120.0
            },
            {
                "start_time": 23.9159091,
                "end_time": 24.0,
                "pitch": 46,
                "velocity": 80,
                "duration": 0.0840909,
                "tempo": 120.0
            },
            {
                "start_time": 24.0,
                "end_time": 24.25,
                "pitch": 44,
                "velocity": 80,
                "duration": 0.25,
                "tempo": 120.0
            },
            {
                "start_time": 24.25,
                "end_time": 24.5,
                "pitch": 43,
                "velocity": 80,
                "duration": 0.25,
                "tempo": 120.0
            },
            {
                "start_time": 6.1613636,
                "end_time": 24.7,
                "pitch": 42,
                "velocity": 80,
                "duration": 18.5386364,
                "tempo": 120.0
            },
            {
                "start_time": 24.5,
                "end_time": 24.7,
                "pitch": 42,
                "velocity": 80,
                "duration": 0.2,
                "tempo": 120.0
            },
            {
                "start_time": 24.7,
                "end_time": 24.75,
                "pitch": 39,
                "velocity": 80,
                "duration": 0.05,
                "tempo": 120.0
            },
            {
                "start_time": 25.2522727,
                "end_time": 25.4181818,
                "pitch": 32,
                "velocity": 80,
                "duration": 0.1659091,
                "tempo": 120.0
            },
            {
                "start_time": 25.4181818,
                "end_time": 25.5,
                "pitch": 34,
                "velocity": 80,
                "duration": 0.0818182,
                "tempo": 120.0
            },
            {
                "start_time": 25.5022727,
                "end_time": 25.6681818,
                "pitch": 34,
                "velocity": 80,
                "duration": 0.1659091,
                "tempo": 120.0
            },
            {
                "start_time": 25.6681818,
                "end_time": 25.9181818,
                "pitch": 34,
                "velocity": 80,
                "duration": 0.25,
                "tempo": 120.0
            },
            {
                "start_time": 25.9181818,
                "end_time": 26.0022727,
                "pitch": 34,
                "velocity": 80,
                "duration": 0.0840909,
                "tempo": 120.0
            },
            {
                "start_time": 26.0022727,
                "end_time": 26.2545455,
                "pitch": 32,
                "velocity": 80,
                "duration": 0.2522727,
                "tempo": 120.0
            },
            {
                "start_time": 5.6113636,
                "end_time": 26.4181818,
                "pitch": 0,
                "velocity": 80,
                "duration": 20.8068182,
                "tempo": 120.0
            },
            {
                "start_time": 26.2545455,
                "end_time": 26.4181818,
                "pitch": 30,
                "velocity": 80,
                "duration": 0.1636364,
                "tempo": 120.0
            },
            {
                "start_time": 26.4181818,
                "end_time": 26.5022727,
                "pitch": 31,
                "velocity": 80,
                "duration": 0.0840909,
                "tempo": 120.0
            },
            {
                "start_time": 26.5022727,
                "end_time": 26.6681818,
                "pitch": 31,
                "velocity": 80,
                "duration": 0.1659091,
                "tempo": 120.0
            },
            {
                "start_time": 26.6681818,
                "end_time": 26.7522727,
                "pitch": 31,
                "velocity": 80,
                "duration": 0.0840909,
                "tempo": 120.0
            },
            {
                "start_time": 26.4181818,
                "end_time": 26.9181818,
                "pitch": 0,
                "velocity": 80,
                "duration": 0.5,
                "tempo": 120.0
            },
            {
                "start_time": 26.7545455,
                "end_time": 26.9181818,
                "pitch": 30,
                "velocity": 80,
                "duration": 0.1636364,
                "tempo": 120.0
            },
            {
                "start_time": 26.9181818,
                "end_time": 27.0022727,
                "pitch": 31,
                "velocity": 80,
                "duration": 0.0840909,
                "tempo": 120.0
            },
            {
                "start_time": 27.0045455,
                "end_time": 27.1681818,
                "pitch": 31,
                "velocity": 80,
                "duration": 0.1636364,
                "tempo": 120.0
            },
            {
                "start_time": 27.1704545,
                "end_time": 27.2545455,
                "pitch": 31,
                "velocity": 80,
                "duration": 0.0840909,
                "tempo": 120.0
            },
            {
                "start_time": 26.9181818,
                "end_time": 27.4181818,
                "pitch": 0,
                "velocity": 80,
                "duration": 0.5,
                "tempo": 120.0
            },
            {
                "start_time": 27.2545455,
                "end_time": 27.4181818,
                "pitch": 30,
                "velocity": 80,
                "duration": 0.1636364,
                "tempo": 120.0
            },
            {
                "start_time": 27.4181818,
                "end_time": 27.5045455,
                "pitch": 31,
                "velocity": 80,
                "duration": 0.0863636,
                "tempo": 120.0
            },
            {
                "start_time": 27.5045455,
                "end_time": 27.6704545,
                "pitch": 31,
                "velocity": 80,
                "duration": 0.1659091,
                "tempo": 120.0
            },
            {
                "start_time": 27.6704545,
                "end_time": 27.7545455,
                "pitch": 31,
                "velocity": 80,
                "duration": 0.0840909,
                "tempo": 120.0
            },
            {
                "start_time": 27.4181818,
                "end_time": 27.925,
                "pitch": 0,
                "velocity": 80,
                "duration": 0.5068182,
                "tempo": 120.0
            },
            {
                "start_time": 27.7545455,
                "end_time": 27.925,
                "pitch": 30,
                "velocity": 80,
                "duration": 0.1704545,
                "tempo": 120.0
            },
            {
                "start_time": 27.925,
                "end_time": 28.0113636,
                "pitch": 31,
                "velocity": 80,
                "duration": 0.0863636,
                "tempo": 120.0
            },
            {
                "start_time": 28.0113636,
                "end_time": 28.1818182,
                "pitch": 31,
                "velocity": 80,
                "duration": 0.1704545,
                "tempo": 120.0
            },
            {
                "start_time": 28.1818182,
                "end_time": 28.2681818,
                "pitch": 31,
                "velocity": 80,
                "duration": 0.0863636,
                "tempo": 120.0
            },
            {
                "start_time": 28.2681818,
                "end_time": 28.4340909,
                "pitch": 32,
                "velocity": 80,
                "duration": 0.1659091,
                "tempo": 120.0
            },
            {
                "start_time": 28.4340909,
                "end_time": 28.5181818,
                "pitch": 34,
                "velocity": 80,
                "duration": 0.0840909,
                "tempo": 120.0
            },
            {
                "start_time": 28.5181818,
                "end_time": 28.6840909,
                "pitch": 34,
                "velocity": 80,
                "duration": 0.1659091,
                "tempo": 120.0
            },
            {
                "start_time": 28.6840909,
                "end_time": 28.7681818,
                "pitch": 34,
                "velocity": 80,
                "duration": 0.0840909,
                "tempo": 120.0
            },
            {
                "start_time": 28.7681818,
                "end_time": 28.9340909,
                "pitch": 32,
                "velocity": 80,
                "duration": 0.1659091,
                "tempo": 120.0
            },
            {
                "start_time": 28.9340909,
                "end_time": 29.0181818,
                "pitch": 34,
                "velocity": 80,
                "duration": 0.0840909,
                "tempo": 120.0
            },
            {
                "start_time": 29.0204545,
                "end_time": 29.1840909,
                "pitch": 34,
                "velocity": 80,
                "duration": 0.1636364,
                "tempo": 120.0
            },
            {
                "start_time": 29.1840909,
                "end_time": 29.2681818,
                "pitch": 34,
                "velocity": 80,
                "duration": 0.0840909,
                "tempo": 120.0
            },
            {
                "start_time": 29.2704545,
                "end_time": 29.4340909,
                "pitch": 32,
                "velocity": 80,
                "duration": 0.1636364,
                "tempo": 120.0
            },
            {
                "start_time": 29.4340909,
                "end_time": 29.5204545,
                "pitch": 34,
                "velocity": 80,
                "duration": 0.0863636,
                "tempo": 120.0
            },
            {
                "start_time": 29.5204545,
                "end_time": 29.6840909,
                "pitch": 34,
                "velocity": 80,
                "duration": 0.1636364,
                "tempo": 120.0
            },
            {
                "start_time": 29.6863636,
                "end_time": 29.7704545,
                "pitch": 34,
                "velocity": 80,
                "duration": 0.0840909,
                "tempo": 120.0
            },
            {
                "start_time": 29.7704545,
                "end_time": 29.9363636,
                "pitch": 32,
                "velocity": 80,
                "duration": 0.1659091,
                "tempo": 120.0
            },
            {
                "start_time": 29.9363636,
                "end_time": 30.0204545,
                "pitch": 34,
                "velocity": 80,
                "duration": 0.0840909,
                "tempo": 120.0
            },
            {
                "start_time": 30.0204545,
                "end_time": 30.1863636,
                "pitch": 34,
                "velocity": 80,
                "duration": 0.1659091,
                "tempo": 120.0
            },
            {
                "start_time": 30.1863636,
                "end_time": 30.2704545,
                "pitch": 34,
                "velocity": 80,
                "duration": 0.0840909,
                "tempo": 120.0
            },
            {
                "start_time": 30.2704545,
                "end_time": 30.4363636,
                "pitch": 35,
                "velocity": 80,
                "duration": 0.1659091,
                "tempo": 120.0
            },
            {
                "start_time": 30.4363636,
                "end_time": 30.5204545,
                "pitch": 36,
                "velocity": 80,
                "duration": 0.0840909,
                "tempo": 120.0
            },
            {
                "start_time": 30.5204545,
                "end_time": 30.6863636,
                "pitch": 36,
                "velocity": 80,
                "duration": 0.1659091,
                "tempo": 120.0
            },
            {
                "start_time": 30.6863636,
                "end_time": 30.7704545,
                "pitch": 36,
                "velocity": 80,
                "duration": 0.0840909,
                "tempo": 120.0
            },
            {
                "start_time": 30.7727273,
                "end_time": 30.9363636,
                "pitch": 35,
                "velocity": 80,
                "duration": 0.1636364,
                "tempo": 120.0
            },
            {
                "start_time": 30.4363636,
                "end_time": 30.9363636,
                "pitch": 40,
                "velocity": 80,
                "duration": 0.5,
                "tempo": 120.0
            },
            {
                "start_time": 30.9363636,
                "end_time": 31.0204545,
                "pitch": 36,
                "velocity": 80,
                "duration": 0.0840909,
                "tempo": 120.0
            },
            {
                "start_time": 31.0227273,
                "end_time": 31.1863636,
                "pitch": 36,
                "velocity": 80,
                "duration": 0.1636364,
                "tempo": 120.0
            },
            {
                "start_time": 31.1886364,
                "end_time": 31.2727273,
                "pitch": 36,
                "velocity": 80,
                "duration": 0.0840909,
                "tempo": 120.0
            },
            {
                "start_time": 31.2727273,
                "end_time": 31.5227273,
                "pitch": 37,
                "velocity": 80,
                "duration": 0.25,
                "tempo": 120.0
            },
            {
                "start_time": 31.5227273,
                "end_time": 31.6886364,
                "pitch": 38,
                "velocity": 80,
                "duration": 0.1659091,
                "tempo": 120.0
            },
            {
                "start_time": 31.6886364,
                "end_time": 31.7727273,
                "pitch": 38,
                "velocity": 80,
                "duration": 0.0840909,
                "tempo": 120.0
            },
            {
                "start_time": 31.7727273,
                "end_time": 32.0227273,
                "pitch": 37,
                "velocity": 80,
                "duration": 0.25,
                "tempo": 120.0
            },
            {
                "start_time": 32.0227273,
                "end_time": 32.1886364,
                "pitch": 38,
                "velocity": 80,
                "duration": 0.1659091,
                "tempo": 120.0
            },
            {
                "start_time": 32.1886364,
                "end_time": 32.2727273,
                "pitch": 38,
                "velocity": 80,
                "duration": 0.0840909,
                "tempo": 120.0
            },
            {
                "start_time": 32.2727273,
                "end_time": 32.525,
                "pitch": 39,
                "velocity": 80,
                "duration": 0.2522727,
                "tempo": 120.0
            },
            {
                "start_time": 30.9363636,
                "end_time": 32.6931818,
                "pitch": 40,
                "velocity": 80,
                "duration": 1.7568182,
                "tempo": 120.0
            },
            {
                "start_time": 32.525,
                "end_time": 32.6931818,
                "pitch": 40,
                "velocity": 80,
                "duration": 0.1681818,
                "tempo": 120.0
            },
            {
                "start_time": 32.6931818,
                "end_time": 32.7772727,
                "pitch": 40,
                "velocity": 80,
                "duration": 0.0840909,
                "tempo": 120.0
            },
            {
                "start_time": 32.7795455,
                "end_time": 33.0272727,
                "pitch": 39,
                "velocity": 80,
                "duration": 0.2477273,
                "tempo": 120.0
            },
            {
                "start_time": 33.0295455,
                "end_time": 33.1931818,
                "pitch": 40,
                "velocity": 80,
                "duration": 0.1636364,
                "tempo": 120.0
            },
            {
                "start_time": 33.1931818,
                "end_time": 33.2795455,
                "pitch": 40,
                "velocity": 80,
                "duration": 0.0863636,
                "tempo": 120.0
            },
            {
                "start_time": 33.2795455,
                "end_time": 33.5295455,
                "pitch": 41,
                "velocity": 80,
                "duration": 0.25,
                "tempo": 120.0
            },
            {
                "start_time": 33.5295455,
                "end_time": 33.6954545,
                "pitch": 42,
                "velocity": 80,
                "duration": 0.1659091,
                "tempo": 120.0
            },
            {
                "start_time": 33.6954545,
                "end_time": 33.7795455,
                "pitch": 42,
                "velocity": 80,
                "duration": 0.0840909,
                "tempo": 120.0
            },
            {
                "start_time": 33.7795455,
                "end_time": 34.0295455,
                "pitch": 41,
                "velocity": 80,
                "duration": 0.25,
                "tempo": 120.0
            },
            {
                "start_time": 34.0295455,
                "end_time": 34.1954545,
                "pitch": 42,
                "velocity": 80,
                "duration": 0.1659091,
                "tempo": 120.0
            },
            {
                "start_time": 34.1954545,
                "end_time": 34.2795455,
                "pitch": 42,
                "velocity": 80,
                "duration": 0.0840909,
                "tempo": 120.0
            },
            {
                "start_time": 34.2818182,
                "end_time": 34.6613636,
                "pitch": 39,
                "velocity": 80,
                "duration": 0.3795455,
                "tempo": 120.0
            },
            {
                "start_time": 17.5272727,
                "end_time": 34.7295455,
                "pitch": 19,
                "velocity": 80,
                "duration": 17.2022727,
                "tempo": 120.0
            },
            {
                "start_time": 34.6613636,
                "end_time": 34.7295455,
                "pitch": 36,
                "velocity": 80,
                "duration": 0.0681818,
                "tempo": 120.0
            },
            {
                "start_time": 34.7295455,
                "end_time": 34.7795455,
                "pitch": 35,
                "velocity": 80,
                "duration": 0.05,
                "tempo": 120.0
            },
            {
                "start_time": 36.2954545,
                "end_time": 36.5409091,
                "pitch": 32,
                "velocity": 80,
                "duration": 0.2454545,
                "tempo": 120.0
            },
            {
                "start_time": 36.5409091,
                "end_time": 36.7863636,
                "pitch": 34,
                "velocity": 80,
                "duration": 0.2454545,
                "tempo": 120.0
            },
            {
                "start_time": 36.7863636,
                "end_time": 37.0431818,
                "pitch": 32,
                "velocity": 80,
                "duration": 0.2568182,
                "tempo": 120.0
            },
            {
                "start_time": 37.0431818,
                "end_time": 37.3,
                "pitch": 31,
                "velocity": 80,
                "duration": 0.2568182,
                "tempo": 120.0
            },
            {
                "start_time": 37.3,
                "end_time": 37.55,
                "pitch": 30,
                "velocity": 80,
                "duration": 0.25,
                "tempo": 120.0
            },
            {
                "start_time": 27.925,
                "end_time": 37.7159091,
                "pitch": 0,
                "velocity": 80,
                "duration": 9.7909091,
                "tempo": 120.0
            },
            {
                "start_time": 37.55,
                "end_time": 37.7159091,
                "pitch": 30,
                "velocity": 80,
                "duration": 0.1659091,
                "tempo": 120.0
            },
            {
                "start_time": 37.7159091,
                "end_time": 37.7659091,
                "pitch": 31,
                "velocity": 80,
                "duration": 0.05,
                "tempo": 120.0
            },
            {
                "start_time": 37.7659091,
                "end_time": 37.8,
                "pitch": 34,
                "velocity": 80,
                "duration": 0.0340909,
                "tempo": 120.0
            },
            {
                "start_time": 37.8,
                "end_time": 37.8340909,
                "pitch": 36,
                "velocity": 80,
                "duration": 0.0340909,
                "tempo": 120.0
            },
            {
                "start_time": 37.8340909,
                "end_time": 37.8659091,
                "pitch": 38,
                "velocity": 80,
                "duration": 0.0318182,
                "tempo": 120.0
            },
            {
                "start_time": 37.8,
                "end_time": 38.0,
                "pitch": 40,
                "velocity": 80,
                "duration": 0.2,
                "tempo": 120.0
            },
            {
                "start_time": 37.8659091,
                "end_time": 38.0,
                "pitch": 40,
                "velocity": 80,
                "duration": 0.1340909,
                "tempo": 120.0
            },
            {
                "start_time": 38.0,
                "end_time": 38.0659091,
                "pitch": 38,
                "velocity": 80,
                "duration": 0.0659091,
                "tempo": 120.0
            },
            {
                "start_time": 34.7295455,
                "end_time": 38.1,
                "pitch": 19,
                "velocity": 80,
                "duration": 3.3704545,
                "tempo": 120.0
            },
            {
                "start_time": 38.0659091,
                "end_time": 38.1,
                "pitch": 36,
                "velocity": 80,
                "duration": 0.0340909,
                "tempo": 120.0
            },
            {
                "start_time": 38.1,
                "end_time": 38.1659091,
                "pitch": 35,
                "velocity": 80,
                "duration": 0.0659091,
                "tempo": 120.0
            },
            {
                "start_time": 38.1659091,
                "end_time": 38.2681818,
                "pitch": 33,
                "velocity": 80,
                "duration": 0.1022727,
                "tempo": 120.0
            },
            {
                "start_time": 38.2681818,
                "end_time": 38.3045455,
                "pitch": 29,
                "velocity": 80,
                "duration": 0.0363636,
                "tempo": 120.0
            },
            {
                "start_time": 38.3045455,
                "end_time": 38.5522727,
                "pitch": 31,
                "velocity": 80,
                "duration": 0.2477273,
                "tempo": 120.0
            },
            {
                "start_time": 38.5522727,
                "end_time": 38.8022727,
                "pitch": 43,
                "velocity": 80,
                "duration": 0.25,
                "tempo": 120.0
            },
            {
                "start_time": 38.8022727,
                "end_time": 38.9681818,
                "pitch": 41,
                "velocity": 80,
                "duration": 0.1659091,
                "tempo": 120.0
            },
            {
                "start_time": 38.9681818,
                "end_time": 39.0522727,
                "pitch": 38,
                "velocity": 80,
                "duration": 0.0840909,
                "tempo": 120.0
            },
            {
                "start_time": 39.0522727,
                "end_time": 39.2181818,
                "pitch": 37,
                "velocity": 80,
                "duration": 0.1659091,
                "tempo": 120.0
            },
            {
                "start_time": 39.2181818,
                "end_time": 39.4681818,
                "pitch": 38,
                "velocity": 80,
                "duration": 0.25,
                "tempo": 120.0
            },
            {
                "start_time": 39.4681818,
                "end_time": 39.5545455,
                "pitch": 38,
                "velocity": 80,
                "duration": 0.0863636,
                "tempo": 120.0
            },
            {
                "start_time": 39.5545455,
                "end_time": 39.8045455,
                "pitch": 38,
                "velocity": 80,
                "duration": 0.25,
                "tempo": 120.0
            },
            {
                "start_time": 39.8045455,
                "end_time": 40.0545455,
                "pitch": 37,
                "velocity": 80,
                "duration": 0.25,
                "tempo": 120.0
            },
            {
                "start_time": 40.0545455,
                "end_time": 40.2204545,
                "pitch": 36,
                "velocity": 80,
                "duration": 0.1659091,
                "tempo": 120.0
            },
            {
                "start_time": 40.2204545,
                "end_time": 40.3045455,
                "pitch": 34,
                "velocity": 80,
                "duration": 0.0840909,
                "tempo": 120.0
            },
            {
                "start_time": 40.3045455,
                "end_time": 40.5545455,
                "pitch": 31,
                "velocity": 80,
                "duration": 0.25,
                "tempo": 120.0
            },
            {
                "start_time": 40.5545455,
                "end_time": 40.8045455,
                "pitch": 43,
                "velocity": 80,
                "duration": 0.25,
                "tempo": 120.0
            },
            {
                "start_time": 40.8068182,
                "end_time": 40.9704545,
                "pitch": 41,
                "velocity": 80,
                "duration": 0.1636364,
                "tempo": 120.0
            },
            {
                "start_time": 40.9704545,
                "end_time": 41.0545455,
                "pitch": 38,
                "velocity": 80,
                "duration": 0.0840909,
                "tempo": 120.0
            },
            {
                "start_time": 41.0568182,
                "end_time": 41.2204545,
                "pitch": 37,
                "velocity": 80,
                "duration": 0.1636364,
                "tempo": 120.0
            },
            {
                "start_time": 41.2204545,
                "end_time": 41.5386364,
                "pitch": 38,
                "velocity": 80,
                "duration": 0.3181818,
                "tempo": 120.0
            },
            {
                "start_time": 38.1,
                "end_time": 41.6045455,
                "pitch": 19,
                "velocity": 80,
                "duration": 3.5045455,
                "tempo": 120.0
            },
            {
                "start_time": 41.5386364,
                "end_time": 41.6045455,
                "pitch": 36,
                "velocity": 80,
                "duration": 0.0659091,
                "tempo": 120.0
            },
            {
                "start_time": 41.6045455,
                "end_time": 41.7386364,
                "pitch": 35,
                "velocity": 80,
                "duration": 0.1340909,
                "tempo": 120.0
            },
            {
                "start_time": 42.3068182,
                "end_time": 42.5568182,
                "pitch": 31,
                "velocity": 80,
                "duration": 0.25,
                "tempo": 120.0
            },
            {
                "start_time": 42.5568182,
                "end_time": 42.8068182,
                "pitch": 43,
                "velocity": 80,
                "duration": 0.25,
                "tempo": 120.0
            },
            {
                "start_time": 42.8090909,
                "end_time": 42.9772727,
                "pitch": 41,
                "velocity": 80,
                "duration": 0.1681818,
                "tempo": 120.0
            },
            {
                "start_time": 42.9772727,
                "end_time": 43.0636364,
                "pitch": 38,
                "velocity": 80,
                "duration": 0.0863636,
                "tempo": 120.0
            },
            {
                "start_time": 43.0636364,
                "end_time": 43.2340909,
                "pitch": 37,
                "velocity": 80,
                "duration": 0.1704545,
                "tempo": 120.0
            },
            {
                "start_time": 43.2340909,
                "end_time": 43.4840909,
                "pitch": 38,
                "velocity": 80,
                "duration": 0.25,
                "tempo": 120.0
            },
            {
                "start_time": 43.4840909,
                "end_time": 43.5681818,
                "pitch": 38,
                "velocity": 80,
                "duration": 0.0840909,
                "tempo": 120.0
            },
            {
                "start_time": 43.5681818,
                "end_time": 43.8136364,
                "pitch": 41,
                "velocity": 80,
                "duration": 0.2454545,
                "tempo": 120.0
            },
            {
                "start_time": 43.8136364,
                "end_time": 44.0704545,
                "pitch": 43,
                "velocity": 80,
                "duration": 0.2568182,
                "tempo": 120.0
            },
            {
                "start_time": 44.0704545,
                "end_time": 44.2386364,
                "pitch": 46,
                "velocity": 80,
                "duration": 0.1681818,
                "tempo": 120.0
            },
            {
                "start_time": 20.1568182,
                "end_time": 44.2386364,
                "pitch": 52,
                "velocity": 80,
                "duration": 24.0818182,
                "tempo": 120.0
            },
            {
                "start_time": 44.2386364,
                "end_time": 44.3272727,
                "pitch": 48,
                "velocity": 80,
                "duration": 0.0886364,
                "tempo": 120.0
            },
            {
                "start_time": 44.3272727,
                "end_time": 44.4909091,
                "pitch": 49,
                "velocity": 80,
                "duration": 0.1636364,
                "tempo": 120.0
            },
            {
                "start_time": 44.4931818,
                "end_time": 44.5772727,
                "pitch": 48,
                "velocity": 80,
                "duration": 0.0840909,
                "tempo": 120.0
            },
            {
                "start_time": 44.5772727,
                "end_time": 44.7431818,
                "pitch": 46,
                "velocity": 80,
                "duration": 0.1659091,
                "tempo": 120.0
            },
            {
                "start_time": 44.7431818,
                "end_time": 44.8272727,
                "pitch": 49,
                "velocity": 80,
                "duration": 0.0840909,
                "tempo": 120.0
            },
            {
                "start_time": 44.8272727,
                "end_time": 44.9931818,
                "pitch": 48,
                "velocity": 80,
                "duration": 0.1659091,
                "tempo": 120.0
            },
            {
                "start_time": 44.9931818,
                "end_time": 45.0772727,
                "pitch": 46,
                "velocity": 80,
                "duration": 0.0840909,
                "tempo": 120.0
            },
            {
                "start_time": 45.0772727,
                "end_time": 45.2431818,
                "pitch": 43,
                "velocity": 80,
                "duration": 0.1659091,
                "tempo": 120.0
            },
            {
                "start_time": 45.2431818,
                "end_time": 45.5590909,
                "pitch": 41,
                "velocity": 80,
                "duration": 0.3159091,
                "tempo": 120.0
            },
            {
                "start_time": 45.5590909,
                "end_time": 45.6931818,
                "pitch": 39,
                "velocity": 80,
                "duration": 0.1340909,
                "tempo": 120.0
            },
            {
                "start_time": 45.6931818,
                "end_time": 45.7613636,
                "pitch": 36,
                "velocity": 80,
                "duration": 0.0681818,
                "tempo": 120.0
            },
            {
                "start_time": 46.3295455,
                "end_time": 46.5795455,
                "pitch": 31,
                "velocity": 80,
                "duration": 0.25,
                "tempo": 120.0
            },
            {
                "start_time": 46.5795455,
                "end_time": 46.8295455,
                "pitch": 43,
                "velocity": 80,
                "duration": 0.25,
                "tempo": 120.0
            },
            {
                "start_time": 46.8295455,
                "end_time": 46.9954545,
                "pitch": 41,
                "velocity": 80,
                "duration": 0.1659091,
                "tempo": 120.0
            },
            {
                "start_time": 46.9954545,
                "end_time": 47.0795455,
                "pitch": 38,
                "velocity": 80,
                "duration": 0.0840909,
                "tempo": 120.0
            },
            {
                "start_time": 47.0795455,
                "end_time": 47.2454545,
                "pitch": 37,
                "velocity": 80,
                "duration": 0.1659091,
                "tempo": 120.0
            },
            {
                "start_time": 47.2454545,
                "end_time": 47.4954545,
                "pitch": 38,
                "velocity": 80,
                "duration": 0.25,
                "tempo": 120.0
            },
            {
                "start_time": 47.4977273,
                "end_time": 47.5818182,
                "pitch": 38,
                "velocity": 80,
                "duration": 0.0840909,
                "tempo": 120.0
            },
            {
                "start_time": 47.5818182,
                "end_time": 47.8318182,
                "pitch": 38,
                "velocity": 80,
                "duration": 0.25,
                "tempo": 120.0
            },
            {
                "start_time": 47.8318182,
                "end_time": 48.0818182,
                "pitch": 37,
                "velocity": 80,
                "duration": 0.25,
                "tempo": 120.0
            },
            {
                "start_time": 48.0818182,
                "end_time": 48.2477273,
                "pitch": 36,
                "velocity": 80,
                "duration": 0.1659091,
                "tempo": 120.0
            },
            {
                "start_time": 48.2477273,
                "end_time": 48.3318182,
                "pitch": 34,
                "velocity": 80,
                "duration": 0.0840909,
                "tempo": 120.0
            },
            {
                "start_time": 48.3318182,
                "end_time": 48.5818182,
                "pitch": 31,
                "velocity": 80,
                "duration": 0.25,
                "tempo": 120.0
            },
            {
                "start_time": 48.5818182,
                "end_time": 48.8318182,
                "pitch": 43,
                "velocity": 80,
                "duration": 0.25,
                "tempo": 120.0
            },
            {
                "start_time": 48.8318182,
                "end_time": 48.9977273,
                "pitch": 41,
                "velocity": 80,
                "duration": 0.1659091,
                "tempo": 120.0
            },
            {
                "start_time": 48.9977273,
                "end_time": 49.0818182,
                "pitch": 38,
                "velocity": 80,
                "duration": 0.0840909,
                "tempo": 120.0
            },
            {
                "start_time": 49.0818182,
                "end_time": 49.2477273,
                "pitch": 37,
                "velocity": 80,
                "duration": 0.1659091,
                "tempo": 120.0
            },
            {
                "start_time": 49.25,
                "end_time": 49.5659091,
                "pitch": 38,
                "velocity": 80,
                "duration": 0.3159091,
                "tempo": 120.0
            },
            {
                "start_time": 41.6045455,
                "end_time": 49.6318182,
                "pitch": 19,
                "velocity": 80,
                "duration": 8.0272727,
                "tempo": 120.0
            },
            {
                "start_time": 49.5659091,
                "end_time": 49.6318182,
                "pitch": 36,
                "velocity": 80,
                "duration": 0.0659091,
                "tempo": 120.0
            },
            {
                "start_time": 49.6318182,
                "end_time": 49.7659091,
                "pitch": 35,
                "velocity": 80,
                "duration": 0.1340909,
                "tempo": 120.0
            },
            {
                "start_time": 50.3363636,
                "end_time": 50.5840909,
                "pitch": 31,
                "velocity": 80,
                "duration": 0.2477273,
                "tempo": 120.0
            },
            {
                "start_time": 50.5840909,
                "end_time": 50.8363636,
                "pitch": 43,
                "velocity": 80,
                "duration": 0.2522727,
                "tempo": 120.0
            },
            {
                "start_time": 50.8363636,
                "end_time": 51.0045455,
                "pitch": 41,
                "velocity": 80,
                "duration": 0.1681818,
                "tempo": 120.0
            },
            {
                "start_time": 51.0045455,
                "end_time": 51.0909091,
                "pitch": 38,
                "velocity": 80,
                "duration": 0.0863636,
                "tempo": 120.0
            },
            {
                "start_time": 51.0909091,
                "end_time": 51.2613636,
                "pitch": 37,
                "velocity": 80,
                "duration": 0.1704545,
                "tempo": 120.0
            },
            {
                "start_time": 51.2613636,
                "end_time": 51.5136364,
                "pitch": 38,
                "velocity": 80,
                "duration": 0.2522727,
                "tempo": 120.0
            },
            {
                "start_time": 51.5159091,
                "end_time": 51.6,
                "pitch": 38,
                "velocity": 80,
                "duration": 0.0840909,
                "tempo": 120.0
            },
            {
                "start_time": 51.6,
                "end_time": 51.85,
                "pitch": 41,
                "velocity": 80,
                "duration": 0.25,
                "tempo": 120.0
            },
            {
                "start_time": 51.85,
                "end_time": 52.1,
                "pitch": 43,
                "velocity": 80,
                "duration": 0.25,
                "tempo": 120.0
            },
            {
                "start_time": 52.1,
                "end_time": 52.2659091,
                "pitch": 46,
                "velocity": 80,
                "duration": 0.1659091,
                "tempo": 120.0
            },
            {
                "start_time": 44.2386364,
                "end_time": 52.2659091,
                "pitch": 52,
                "velocity": 80,
                "duration": 8.0272727,
                "tempo": 120.0
            },
            {
                "start_time": 52.2659091,
                "end_time": 52.35,
                "pitch": 48,
                "velocity": 80,
                "duration": 0.0840909,
                "tempo": 120.0
            },
            {
                "start_time": 52.35,
                "end_time": 52.5159091,
                "pitch": 49,
                "velocity": 80,
                "duration": 0.1659091,
                "tempo": 120.0
            },
            {
                "start_time": 52.5159091,
                "end_time": 52.6,
                "pitch": 48,
                "velocity": 80,
                "duration": 0.0840909,
                "tempo": 120.0
            },
            {
                "start_time": 52.6,
                "end_time": 52.7659091,
                "pitch": 46,
                "velocity": 80,
                "duration": 0.1659091,
                "tempo": 120.0
            },
            {
                "start_time": 52.7659091,
                "end_time": 52.85,
                "pitch": 49,
                "velocity": 80,
                "duration": 0.0840909,
                "tempo": 120.0
            },
            {
                "start_time": 52.85,
                "end_time": 53.0159091,
                "pitch": 48,
                "velocity": 80,
                "duration": 0.1659091,
                "tempo": 120.0
            },
            {
                "start_time": 53.0159091,
                "end_time": 53.1,
                "pitch": 46,
                "velocity": 80,
                "duration": 0.0840909,
                "tempo": 120.0
            },
            {
                "start_time": 53.1022727,
                "end_time": 53.2659091,
                "pitch": 43,
                "velocity": 80,
                "duration": 0.1636364,
                "tempo": 120.0
            },
            {
                "start_time": 53.2659091,
                "end_time": 53.5840909,
                "pitch": 41,
                "velocity": 80,
                "duration": 0.3181818,
                "tempo": 120.0
            },
            {
                "start_time": 53.5840909,
                "end_time": 53.7159091,
                "pitch": 39,
                "velocity": 80,
                "duration": 0.1318182,
                "tempo": 120.0
            },
            {
                "start_time": 53.7159091,
                "end_time": 53.7840909,
                "pitch": 36,
                "velocity": 80,
                "duration": 0.0681818,
                "tempo": 120.0
            }
        ]
    }
}