{
    "mood": "happy",
    "instruments": {
        "Electric Piano 1": [
            {
                "start_time": 0.0159091,
                "end_time": 0.6886364,
                "pitch": 65,
                "velocity": 64,
                "duration": 0.6727273,
                "tempo": 120.0
            },
            {
                "start_time": 0.6909091,
                "end_time": 1.3704545,
                "pitch": 65,
                "velocity": 64,
                "duration": 0.6795455,
                "tempo": 120.0
            },
            {
                "start_time": 1.3704545,
                "end_time": 2.0431818,
                "pitch": 69,
                "velocity": 64,
                "duration": 0.6727273,
                "tempo": 120.0
            },
            {
                "start_time": 2.0431818,
                "end_time": 2.3863636,
                "pitch": 69,
                "velocity": 64,
                "duration": 0.3431818,
                "tempo": 120.0
            },
            {
                "start_time": 2.3886364,
                "end_time": 2.5545455,
                "pitch": 69,
                "velocity": 64,
                "duration": 0.1659091,
                "tempo": 120.0
            },
            {
                "start_time": 2.5545455,
                "end_time": 2.7227273,
                "pitch": 70,
                "velocity": 64,
                "duration": 0.1681818,
                "tempo": 120.0
            },
            {
                "start_time": 2.725,
                "end_time": 2.8954545,
                "pitch": 72,
                "velocity": 64,
                "duration": 0.1704545,
                "tempo": 120.0
            },
            {
                "start_time": 2.8977273,
                "end_time": 3.0704545,
                "pitch": 72,
                "velocity": 25,
                "duration": 0.1727273,
                "tempo": 120.0
            },
            {
                "start_time": 3.0704545,
                "end_time": 3.2431818,
                "pitch": 69,
                "velocity": 51,
                "duration": 0.1727273,
                "tempo": 120.0
            },
            {
                "start_time": 3.2431818,
                "end_time": 3.4181818,
                "pitch": 69,
                "velocity": 25,
                "duration": 0.175,
                "tempo": 120.0
            },
            {
                "start_time": 3.4181818,
                "end_time": 3.5840909,
                "pitch": 69,
                "velocity": 51,
                "duration": 0.1659091,
                "tempo": 120.0
            },
            {
                "start_time": 3.5840909,
                "end_time": 3.75,
                "pitch": 69,
                "velocity": 25,
                "duration": 0.1659091,
                "tempo": 120.0
            },
            {
                "start_time": 3.7522727,
                "end_time": 3.9159091,
                "pitch": 65,
                "velocity": 51,
                "duration": 0.1636364,
                "tempo": 120.0
            },
            {
                "start_time": 3.9159091,
                "end_time": 4.0840909,
                "pitch": 65,
                "velocity": 25,
                "duration": 0.1681818,
                "tempo": 120.0
            },
            {
                "start_time": 4.0840909,
                "end_time": 4.6477273,
                "pitch": 60,
                "velocity": 51,
                "duration": 0.5636364,
                "tempo": 120.0
            },
            {
                "start_time": 4.65,
                "end_time": 5.2068182,
                "pitch": 60,
                "velocity": 40,
                "duration": 0.5568182,
                "tempo": 120.0
            },
            {
                "start_time": 5.2090909,
                "end_time": 5.7772727,
                "pitch": 60,
                "velocity": 32,
                "duration": 0.5681818,
                "tempo": 120.0
            }
        ],
        "Vibraphone": [
            {
                "start_time": 0.2409091,
                "end_time": 0.2886364,
                "pitch": 95,
                "velocity": 40,
                "duration": 0.0477273,
                "tempo": 120.0
            },
            {
                "start_time": 0.2909091,
                "end_time": 0.3568182,
                "pitch": 93,
                "velocity": 40,
                "duration": 0.0659091,
                "tempo": 120.0
            },
            {
                "start_time": 0.3590909,
                "end_time": 0.4045455,
                "pitch": 91,
                "velocity": 40,
                "duration": 0.0454545,
                "tempo": 120.0
            },
            {
                "start_time": 0.4045455,
                "end_time": 0.4545455,
                "pitch": 89,
                "velocity": 40,
                "duration": 0.05,
                "tempo": 120.0
            },
            {
                "start_time": 0.4568182,
                "end_time": 0.5227273,
                "pitch": 88,
                "velocity": 40,
                "duration": 0.0659091,
                "tempo": 120.0
            },
            {
                "start_time": 0.5227273,
                "end_time": 0.5704545,
                "pitch": 86,
                "velocity": 40,
                "duration": 0.0477273,
                "tempo": 120.0
            },
            {
                "start_time": 0.5727273,
                "end_time": 0.6204545,
                "pitch": 84,
                "velocity": 40,
                "duration": 0.0477273,
                "tempo": 120.0
            },
            {
                "start_time": 0.6227273,
                "end_time": 0.6909091,
                "pitch": 83,
                "velocity": 40,
                "duration": 0.0681818,
                "tempo": 120.0
            },
            {
                "start_time": 0.6909091,
                "end_time": 0.7386364,
                "pitch": 93,
                "velocity": 40,
                "duration": 0.0477273,
                "tempo": 120.0
            },
            {
                "start_time": 0.7386364,
                "end_time": 0.8068182,
                "pitch": 91,
                "velocity": 40,
                "duration": 0.0681818,
                "tempo": 120.0
            },
            {
                "start_time": 0.8068182,
                "end_time": 0.8568182,
                "pitch": 89,
                "velocity": 40,
                "duration": 0.05,
                "tempo": 120.0
            },
            {
                "start_time": 0.8590909,
                "end_time": 0.9090909,
                "pitch": 88,
                "velocity": 40,
                "duration": 0.05,
                "tempo": 120.0
            },
            {
                "start_time": 0.9090909,
                "end_time": 0.975,
                "pitch": 86,
                "velocity": 40,
                "duration": 0.0659091,
                "tempo": 120.0
            },
            {
                "start_time": 0.9772727,
                "end_time": 1.0318182,
                "pitch": 84,
                "velocity": 40,
                "duration": 0.0545455,
                "tempo": 120.0
            },
            {
                "start_time": 1.0318182,
                "end_time": 1.0772727,
                "pitch": 83,
                "velocity": 40,
                "duration": 0.0454545,
                "tempo": 120.0
            },
            {
                "start_time": 1.0795455,
                "end_time": 1.1454545,
                "pitch": 81,
                "velocity": 40,
                "duration": 0.0659091,
                "tempo": 120.0
            },
            {
                "start_time": 1.1477273,
                "end_time": 1.1977273,
                "pitch": 91,
                "velocity": 40,
                "duration": 0.05,
                "tempo": 120.0
            },
            {
                "start_time": 1.1977273,
                "end_time": 1.2477273,
                "pitch": 89,
                "velocity": 40,
                "duration": 0.05,
                "tempo": 120.0
            },
            {
                "start_time": 1.2477273,
                "end_time": 1.3159091,
                "pitch": 88,
                "velocity": 40,
                "duration": 0.0681818,
                "tempo": 120.0
            },
            {
                "start_time": 1.3159091,
                "end_time": 1.3727273,
                "pitch": 86,
                "velocity": 40,
                "duration": 0.0568182,
                "tempo": 120.0
            },
            {
                "start_time": 1.3727273,
                "end_time": 1.4181818,
                "pitch": 84,
                "velocity": 40,
                "duration": 0.0454545,
                "tempo": 120.0
            },
            {
                "start_time": 1.4181818,
                "end_time": 1.4840909,
                "pitch": 83,
                "velocity": 40,
                "duration": 0.0659091,
                "tempo": 120.0
            },
            {
                "start_time": 1.4863636,
                "end_time": 1.5340909,
                "pitch": 81,
                "velocity": 40,
                "duration": 0.0477273,
                "tempo": 120.0
            },
            {
                "start_time": 1.5340909,
                "end_time": 1.6022727,
                "pitch": 79,
                "velocity": 40,
                "duration": 0.0681818,
                "tempo": 120.0
            },
            {
                "start_time": 1.6022727,
                "end_time": 1.6522727,
                "pitch": 89,
                "velocity": 40,
                "duration": 0.05,
                "tempo": 120.0
            },
            {
                "start_time": 1.6522727,
                "end_time": 1.7045455,
                "pitch": 88,
                "velocity": 40,
                "duration": 0.0522727,
                "tempo": 120.0
            },
            {
                "start_time": 1.7045455,
                "end_time": 1.7704545,
                "pitch": 86,
                "velocity": 40,
                "duration": 0.0659091,
                "tempo": 120.0
            },
            {
                "start_time": 1.7704545,
                "end_time": 1.8204545,
                "pitch": 84,
                "velocity": 40,
                "duration": 0.05,
                "tempo": 120.0
            },
            {
                "start_time": 1.8204545,
                "end_time": 1.8704545,
                "pitch": 83,
                "velocity": 40,
                "duration": 0.05,
                "tempo": 120.0
            },
            {
                "start_time": 1.8704545,
                "end_time": 1.9386364,
                "pitch": 81,
                "velocity": 40,
                "duration": 0.0681818,
                "tempo": 120.0
            },
            {
                "start_time": 1.9386364,
                "end_time": 1.9886364,
                "pitch": 79,
                "velocity": 40,
                "duration": 0.05,
                "tempo": 120.0
            },
            {
                "start_time": 1.9886364,
                "end_time": 2.0454545,
                "pitch": 77,
                "velocity": 40,
                "duration": 0.0568182,
                "tempo": 120.0
            },
            {
                "start_time": 2.0454545,
                "end_time": 2.1045455,
                "pitch": 89,
                "velocity": 40,
                "duration": 0.0590909,
                "tempo": 120.0
            },
            {
                "start_time": 2.1045455,
                "end_time": 2.1545455,
                "pitch": 88,
                "velocity": 40,
                "duration": 0.05,
                "tempo": 120.0
            },
            {
                "start_time": 2.1568182,
                "end_time": 2.2045455,
                "pitch": 86,
                "velocity": 40,
                "duration": 0.0477273,
                "tempo": 120.0
            },
            {
                "start_time": 2.2045455,
                "end_time": 2.2704545,
                "pitch": 84,
                "velocity": 40,
                "duration": 0.0659091,
                "tempo": 120.0
            },
            {
                "start_time": 2.2727273,
                "end_time": 2.3204545,
                "pitch": 83,
                "velocity": 40,
                "duration": 0.0477273,
                "tempo": 120.0
            },
            {
                "start_time": 2.3227273,
                "end_time": 2.3886364,
                "pitch": 81,
                "velocity": 40,
                "duration": 0.0659091,
                "tempo": 120.0
            },
            {
                "start_time": 2.3886364,
                "end_time": 2.4363636,
                "pitch": 79,
                "velocity": 40,
                "duration": 0.0477273,
                "tempo": 120.0
            },
            {
                "start_time": 2.4386364,
                "end_time": 2.4863636,
                "pitch": 77,
                "velocity": 40,
                "duration": 0.0477273,
                "tempo": 120.0
            },
            {
                "start_time": 2.4886364,
                "end_time": 2.5545455,
                "pitch": 79,
                "velocity": 40,
                "duration": 0.0659091,
                "tempo": 120.0
            },
            {
                "start_time": 2.5568182,
                "end_time": 2.6022727,
                "pitch": 81,
                "velocity": 40,
                "duration": 0.0454545,
                "tempo": 120.0
            },
            {
                "start_time": 2.6045455,
                "end_time": 2.6522727,
                "pitch": 83,
                "velocity": 40,
                "duration": 0.0477273,
                "tempo": 120.0
            },
            {
                "start_time": 2.6522727,
                "end_time": 2.725,
                "pitch": 84,
                "velocity": 40,
                "duration": 0.0727273,
                "tempo": 120.0
            },
            {
                "start_time": 2.7272727,
                "end_time": 2.7704545,
                "pitch": 86,
                "velocity": 40,
                "duration": 0.0431818,
                "tempo": 120.0
            },
            {
                "start_time": 2.7727273,
                "end_time": 2.825,
                "pitch": 88,
                "velocity": 40,
                "duration": 0.0522727,
                "tempo": 120.0
            },
            {
                "start_time": 2.825,
                "end_time": 2.8977273,
                "pitch": 89,
                "velocity": 40,
                "duration": 0.0727273,
                "tempo": 120.0
            },
            {
                "start_time": 2.8977273,
                "end_time": 2.9454545,
                "pitch": 91,
                "velocity": 40,
                "duration": 0.0477273,
                "tempo": 120.0
            },
            {
                "start_time": 2.9454545,
                "end_time": 2.9977273,
                "pitch": 81,
                "velocity": 40,
                "duration": 0.0522727,
                "tempo": 120.0
            },
            {
                "start_time": 2.9977273,
                "end_time": 3.0727273,
                "pitch": 83,
                "velocity": 40,
                "duration": 0.075,
                "tempo": 120.0
            },
            {
                "start_time": 3.0727273,
                "end_time": 3.1181818,
                "pitch": 84,
                "velocity": 40,
                "duration": 0.0454545,
                "tempo": 120.0
            },
            {
                "start_time": 3.1204545,
                "end_time": 3.1886364,
                "pitch": 86,
                "velocity": 40,
                "duration": 0.0681818,
                "tempo": 120.0
            },
            {
                "start_time": 3.1886364,
                "end_time": 3.2454545,
                "pitch": 88,
                "velocity": 40,
                "duration": 0.0568182,
                "tempo": 120.0
            },
            {
                "start_time": 3.2454545,
                "end_time": 3.2931818,
                "pitch": 89,
                "velocity": 40,
                "duration": 0.0477273,
                "tempo": 120.0
            },
            {
                "start_time": 3.2931818,
                "end_time": 3.3613636,
                "pitch": 91,
                "velocity": 40,
                "duration": 0.0681818,
                "tempo": 120.0
            },
            {
                "start_time": 3.3636364,
                "end_time": 3.4204545,
                "pitch": 93,
                "velocity": 40,
                "duration": 0.0568182,
                "tempo": 120.0
            },
            {
                "start_time": 3.4204545,
                "end_time": 3.4636364,
                "pitch": 83,
                "velocity": 40,
                "duration": 0.0431818,
                "tempo": 120.0
            },
            {
                "start_time": 3.4636364,
                "end_time": 3.5295455,
                "pitch": 84,
                "velocity": 40,
                "duration": 0.0659091,
                "tempo": 120.0
            },
            {
                "start_time": 3.5295455,
                "end_time": 3.5863636,
                "pitch": 86,
                "velocity": 40,
                "duration": 0.0568182,
                "tempo": 120.0
            },
            {
                "start_time": 3.5863636,
                "end_time": 3.6295455,
                "pitch": 88,
                "velocity": 40,
                "duration": 0.0431818,
                "tempo": 120.0
            },
            {
                "start_time": 3.6295455,
                "end_time": 3.6954545,
                "pitch": 89,
                "velocity": 40,
                "duration": 0.0659091,
                "tempo": 120.0
            },
            {
                "start_time": 3.6977273,
                "end_time": 3.7522727,
                "pitch": 91,
                "velocity": 40,
                "duration": 0.0545455,
                "tempo": 120.0
            },
            {
                "start_time": 3.7545455,
                "end_time": 3.7954545,
                "pitch": 93,
                "velocity": 40,
                "duration": 0.0409091,
                "tempo": 120.0
            },
            {
                "start_time": 3.7954545,
                "end_time": 3.8636364,
                "pitch": 95,
                "velocity": 40,
                "duration": 0.0681818,
                "tempo": 120.0
            },
            {
                "start_time": 3.8636364,
                "end_time": 3.9181818,
                "pitch": 84,
                "velocity": 40,
                "duration": 0.0545455,
                "tempo": 120.0
            },
            {
                "start_time": 3.9181818,
                "end_time": 3.9795455,
                "pitch": 86,
                "velocity": 40,
                "duration": 0.0613636,
                "tempo": 120.0
            },
            {
                "start_time": 3.9795455,
                "end_time": 4.0295455,
                "pitch": 88,
                "velocity": 40,
                "duration": 0.05,
                "tempo": 120.0
            },
            {
                "start_time": 4.0295455,
                "end_time": 4.0863636,
                "pitch": 89,
                "velocity": 40,
                "duration": 0.0568182,
                "tempo": 120.0
            },
            {
                "start_time": 4.0886364,
                "end_time": 4.1454545,
                "pitch": 91,
                "velocity": 40,
                "duration": 0.0568182,
                "tempo": 120.0
            },
            {
                "start_time": 4.1454545,
                "end_time": 4.1954545,
                "pitch": 93,
                "velocity": 40,
                "duration": 0.05,
                "tempo": 120.0
            },
            {
                "start_time": 4.1977273,
                "end_time": 4.2454545,
                "pitch": 95,
                "velocity": 40,
                "duration": 0.0477273,
                "tempo": 120.0
            },
            {
                "start_time": 4.2477273,
                "end_time": 4.3136364,
                "pitch": 100,
                "velocity": 40,
                "duration": 0.0659091,
                "tempo": 120.0
            },
            {
                "start_time": 4.3136364,
                "end_time": 4.3636364,
                "pitch": 101,
                "velocity": 40,
                "duration": 0.05,
                "tempo": 120.0
            },
            {
                "start_time": 4.3636364,
                "end_time": 4.4136364,
                "pitch": 100,
                "velocity": 40,
                "duration": 0.05,
                "tempo": 120.0
            },
            {
                "start_time": 4.4136364,
                "end_time": 4.4818182,
                "pitch": 101,
                "velocity": 40,
                "duration": 0.0681818,
                "tempo": 120.0
            },
            {
                "start_time": 4.4818182,
                "end_time": 4.5318182,
                "pitch": 100,
                "velocity": 40,
                "duration": 0.05,
                "tempo": 120.0
            },
            {
                "start_time": 4.5318182,
                "end_time": 4.6,
                "pitch": 101,
                "velocity": 40,
                "duration": 0.0681818,
                "tempo": 120.0
            },
            {
                "start_time": 4.6,
                "end_time": 4.6522727,
                "pitch": 100,
                "velocity": 32,
                "duration": 0.0522727,
                "tempo": 120.0
            },
            {
                "start_time": 4.6522727,
                "end_time": 4.7,
                "pitch": 101,
                "velocity": 32,
                "duration": 0.0477273,
                "tempo": 120.0
            },
            {
                "start_time": 4.7,
                "end_time": 4.7659091,
                "pitch": 100,
                "velocity": 32,
                "duration": 0.0659091,
                "tempo": 120.0
            },
            {
                "start_time": 4.7681818,
                "end_time": 4.8181818,
                "pitch": 101,
                "velocity": 32,
                "duration": 0.05,
                "tempo": 120.0
            },
            {
                "start_time": 4.8181818,
                "end_time": 4.8681818,
                "pitch": 100,
                "velocity": 32,
                "duration": 0.05,
                "tempo": 120.0
            },
            {
                "start_time": 4.8704545,
                "end_time": 4.9363636,
                "pitch": 101,
                "velocity": 32,
                "duration": 0.0659091,
                "tempo": 120.0
            },
            {
                "start_time": 4.9363636,
                "end_time": 4.9863636,
                "pitch": 100,
                "velocity": 25,
                "duration": 0.05,
                "tempo": 120.0
            },
            {
                "start_time": 4.9886364,
                "end_time": 5.0386364,
                "pitch": 101,
                "velocity": 25,
                "duration": 0.05,
                "tempo": 120.0
            },
            {
                "start_time": 5.0386364,
                "end_time": 5.1090909,
                "pitch": 100,
                "velocity": 25,
                "duration": 0.0704545,
                "tempo": 120.0
            },
            {
                "start_time": 5.1113636,
                "end_time": 5.1568182,
                "pitch": 101,
                "velocity": 25,
                "duration": 0.0454545,
                "tempo": 120.0
            },
            {
                "start_time": 5.1590909,
                "end_time": 5.2113636,
                "pitch": 100,
                "velocity": 25,
                "duration": 0.0522727,
                "tempo": 120.0
            },
            {
                "start_time": 5.2113636,
                "end_time": 5.2795455,
                "pitch": 101,
                "velocity": 25,
                "duration": 0.0681818,
                "tempo": 120.0
            },
            {
                "start_time": 5.2795455,
                "end_time": 5.3272727,
                "pitch": 100,
                "velocity": 20,
                "duration": 0.0477273,
                "tempo": 120.0
            },
            {
                "start_time": 5.3272727,
                "end_time": 5.3954545,
                "pitch": 101,
                "velocity": 20,
                "duration": 0.0681818,
                "tempo": 120.0
            },
            {
                "start_time": 5.3954545,
                "end_time": 5.45,
                "pitch": 100,
                "velocity": 20,
                "duration": 0.0545455,
                "tempo": 120.0
            },
            {
                "start_time": 5.45,
                "end_time": 5.4954545,
                "pitch": 101,
                "velocity": 20,
                "duration": 0.0454545,
                "tempo": 120.0
            },
            {
                "start_time": 5.4954545,
                "end_time": 5.5613636,
                "pitch": 100,
                "velocity": 20,
                "duration": 0.0659091,
                "tempo": 120.0
            },
            {
                "start_time": 5.5613636,
                "end_time": 5.6136364,
                "pitch": 101,
                "velocity": 20,
                "duration": 0.0522727,
                "tempo": 120.0
            },
            {
                "start_time": 5.6159091,
                "end_time": 5.6613636,
                "pitch": 100,
                "velocity": 16,
                "duration": 0.0454545,
                "tempo": 120.0
            },
            {
                "start_time": 5.6613636,
                "end_time": 5.7272727,
                "pitch": 101,
                "velocity": 16,
                "duration": 0.0659091,
                "tempo": 120.0
            },
            {
                "start_time": 5.7272727,
                "end_time": 5.7795455,
                "pitch": 100,
                "velocity": 16,
                "duration": 0.0522727,
                "tempo": 120.0
            },
            {
                "start_time": 5.7795455,
                "end_time": 5.825,
                "pitch": 101,
                "velocity": 16,
                "duration": 0.0454545,
                "tempo": 120.0
            },
            {
                "start_time": 5.825,
                "end_time": 5.8909091,
                "pitch": 100,
                "velocity": 16,
                "duration": 0.0659091,
                "tempo": 120.0
            },
            {
                "start_time": 5.8931818,
                "end_time": 5.9409091,
                "pitch": 101,
                "velocity": 16,
                "duration": 0.0477273,
                "tempo": 120.0
            }
        ],
        "Trumpet": [
            {
                "start_time": 0.0181818,
                "end_time": 1.0295455,
                "pitch": 41,
                "velocity": 80,
                "duration": 1.0113636,
                "tempo": 120.0
            },
            {
                "start_time": 1.0318182,
                "end_time": 1.3727273,
                "pitch": 41,
                "velocity": 80,
                "duration": 0.3409091,
                "tempo": 120.0
            },
            {
                "start_time": 1.3727273,
                "end_time": 2.0431818,
                "pitch": 36,
                "velocity": 80,
                "duration": 0.6704545,
                "tempo": 120.0
            },
            {
                "start_time": 2.0454545,
                "end_time": 2.725,
                "pitch": 40,
                "velocity": 80,
                "duration": 0.6795455,
                "tempo": 120.0
            },
            {
                "start_time": 2.725,
                "end_time": 3.4204545,
                "pitch": 41,
                "velocity": 80,
                "duration": 0.6954545,
                "tempo": 120.0
            },
            {
                "start_time": 3.4204545,
                "end_time": 3.5840909,
                "pitch": 41,
                "velocity": 80,
                "duration": 0.1636364,
                "tempo": 120.0
            },
            {
                "start_time": 3.5863636,
                "end_time": 3.7522727,
                "pitch": 41,
                "velocity": 32,
                "duration": 0.1659091,
                "tempo": 120.0
            },
            {
                "start_time": 3.7522727,
                "end_time": 3.9159091,
                "pitch": 36,
                "velocity": 80,
                "duration": 0.1636364,
                "tempo": 120.0
            },
            {
                "start_time": 3.9181818,
                "end_time": 4.0863636,
                "pitch": 36,
                "velocity": 32,
                "duration": 0.1681818,
                "tempo": 120.0
            },
            {
                "start_time": 4.0863636,
                "end_time": 5.7795455,
                "pitch": 41,
                "velocity": 80,
                "duration": 1.6931818,
                "tempo": 120.0
            }
        ]
    }
}