{
    "mood": "happy",
    "instruments": {
        "Trumpet": [
            {
                "start_time": 1.1590909,
                "end_time": 1.4090909,
                "pitch": 84,
                "velocity": 80,
                "duration": 0.25,
                "tempo": 120.0
            },
            {
                "start_time": 1.4272727,
                "end_time": 2.7590909,
                "pitch": 86,
                "velocity": 80,
                "duration": 1.3318182,
                "tempo": 120.0
            },
            {
                "start_time": 2.7772727,
                "end_time": 3.0272727,
                "pitch": 89,
                "velocity": 80,
                "duration": 0.25,
                "tempo": 120.0
            },
            {
                "start_time": 3.0431818,
                "end_time": 4.3545455,
                "pitch": 88,
                "velocity": 80,
                "duration": 1.3113636,
                "tempo": 120.0
            },
            {
                "start_time": 4.3727273,
                "end_time": 4.6272727,
                "pitch": 84,
                "velocity": 80,
                "duration": 0.2545455,
                "tempo": 120.0
            },
            {
                "start_time": 4.6454545,
                "end_time": 5.9613636,
                "pitch": 86,
                "velocity": 80,
                "duration": 1.3159091,
                "tempo": 120.0
            },
            {
                "start_time": 6.3886364,
                "end_time": 7.5659091,
                "pitch": 88,
                "velocity": 80,
                "duration": 1.1772727,
                "tempo": 120.0
            },
            {
                "start_time": 7.5840909,
                "end_time": 7.8409091,
                "pitch": 84,
                "velocity": 80,
                "duration": 0.2568182,
                "tempo": 120.0
            },
            {
                "start_time": 7.8568182,
                "end_time": 8.7795455,
                "pitch": 86,
                "velocity": 80,
                "duration": 0.9227273,
                "tempo": 120.0
            },
            {
                "start_time": 8.7954545,
                "end_time": 9.0522727,
                "pitch": 89,
                "velocity": 80,
                "duration": 0.2568182,
                "tempo": 120.0
            },
            {
                "start_time": 9.0704545,
                "end_time": 9.3227273,
                "pitch": 89,
                "velocity": 80,
                "duration": 0.2522727,
                "tempo": 120.0
            },
            {
                "start_time": 9.3386364,
                "end_time": 9.5840909,
                "pitch": 89,
                "velocity": 80,
                "duration": 0.2454545,
                "tempo": 120.0
            },
            {
                "start_time": 9.6,
                "end_time": 10.7795455,
                "pitch": 88,
                "velocity": 80,
                "duration": 1.1795455,
                "tempo": 120.0
            },
            {
                "start_time": 10.7954545,
                "end_time": 11.0522727,
                "pitch": 84,
                "velocity": 80,
                "duration": 0.2568182,
                "tempo": 120.0
            },
            {
                "start_time": 11.0681818,
                "end_time": 12.3840909,
                "pitch": 86,
                "velocity": 80,
                "duration": 1.3159091,
                "tempo": 120.0
            },
            {
                "start_time": 12.8113636,
                "end_time": 13.8590909,
                "pitch": 87,
                "velocity": 80,
                "duration": 1.0477273,
                "tempo": 120.0
            },
            {
                "start_time": 13.875,
                "end_time": 13.9909091,
                "pitch": 89,
                "velocity": 80,
                "duration": 0.1159091,
                "tempo": 120.0
            },
            {
                "start_time": 14.0068182,
                "end_time": 14.2636364,
                "pitch": 91,
                "velocity": 80,
                "duration": 0.2568182,
                "tempo": 120.0
            },
            {
                "start_time": 14.2795455,
                "end_time": 14.7931818,
                "pitch": 89,
                "velocity": 80,
                "duration": 0.5136364,
                "tempo": 120.0
            },
            {
                "start_time": 14.8090909,
                "end_time": 15.2022727,
                "pitch": 86,
                "velocity": 80,
                "duration": 0.3931818,
                "tempo": 120.0
            },
            {
                "start_time": 15.2204545,
                "end_time": 15.4772727,
                "pitch": 84,
                "velocity": 80,
                "duration": 0.2568182,
                "tempo": 120.0
            },
            {
                "start_time": 15.4931818,
                "end_time": 15.875,
                "pitch": 82,
                "velocity": 80,
                "duration": 0.3818182,
                "tempo": 120.0
            },
            {
                "start_time": 15.8931818,
                "end_time": 16.8090909,
                "pitch": 87,
                "velocity": 80,
                "duration": 0.9159091,
                "tempo": 120.0
            },
            {
                "start_time": 16.825,
                "end_time": 17.0818182,
                "pitch": 87,
                "velocity": 80,
                "duration": 0.2568182,
                "tempo": 120.0
            },
            {
                "start_time": 17.0977273,
                "end_time": 17.2181818,
                "pitch": 89,
                "velocity": 80,
                "duration": 0.1204545,
                "tempo": 120.0
            },
            {
                "start_time": 17.2363636,
                "end_time": 17.4818182,
                "pitch": 91,
                "velocity": 80,
                "duration": 0.2454545,
                "tempo": 120.0
            },
            {
                "start_time": 17.4977273,
                "end_time": 18.825,
                "pitch": 89,
                "velocity": 80,
                "duration": 1.3272727,
                "tempo": 120.0
            },
            {
                "start_time": 19.2340909,
                "end_time": 20.2818182,
                "pitch": 87,
                "velocity": 80,
                "duration": 1.0477273,
                "tempo": 120.0
            },
            {
                "start_time": 20.2977273,
                "end_time": 20.4136364,
                "pitch": 89,
                "velocity": 80,
                "duration": 0.1159091,
                "tempo": 120.0
            },
            {
                "start_time": 20.4295455,
                "end_time": 20.6863636,
                "pitch": 91,
                "velocity": 80,
                "duration": 0.2568182,
                "tempo": 120.0
            },
            {
                "start_time": 20.7022727,
                "end_time": 21.2159091,
                "pitch": 89,
                "velocity": 80,
                "duration": 0.5136364,
                "tempo": 120.0
            },
            {
                "start_time": 21.2318182,
                "end_time": 21.625,
                "pitch": 86,
                "velocity": 80,
                "duration": 0.3931818,
                "tempo": 120.0
            },
            {
                "start_time": 21.6431818,
                "end_time": 21.9,
                "pitch": 84,
                "velocity": 80,
                "duration": 0.2568182,
                "tempo": 120.0
            },
            {
                "start_time": 21.9159091,
                "end_time": 22.3,
                "pitch": 82,
                "velocity": 80,
                "duration": 0.3840909,
                "tempo": 120.0
            },
            {
                "start_time": 22.3159091,
                "end_time": 24.0340909,
                "pitch": 88,
                "velocity": 80,
                "duration": 1.7181818,
                "tempo": 120.0
            }
        ],
        "Acoustic Bass": [
            {
                "start_time": 0.1136364,
                "end_time": 0.2295455,
                "pitch": 79,
                "velocity": 51,
                "duration": 0.1159091,
                "tempo": 120.0
            },
            {
                "start_time": 0.2454545,
                "end_time": 0.3590909,
                "pitch": 79,
                "velocity": 51,
                "duration": 0.1136364,
                "tempo": 120.0
            },
            {
                "start_time": 0.375,
                "end_time": 0.4909091,
                "pitch": 79,
                "velocity": 51,
                "duration": 0.1159091,
                "tempo": 120.0
            },
            {
                "start_time": 0.5068182,
                "end_time": 0.6204545,
                "pitch": 79,
                "velocity": 51,
                "duration": 0.1136364,
                "tempo": 120.0
            },
            {
                "start_time": 0.6363636,
                "end_time": 0.7522727,
                "pitch": 79,
                "velocity": 51,
                "duration": 0.1159091,
                "tempo": 120.0
            },
            {
                "start_time": 0.7681818,
                "end_time": 0.8818182,
                "pitch": 79,
                "velocity": 51,
                "duration": 0.1136364,
                "tempo": 120.0
            },
            {
                "start_time": 0.8977273,
                "end_time": 1.0136364,
                "pitch": 79,
                "velocity": 51,
                "duration": 0.1159091,
                "tempo": 120.0
            },
            {
                "start_time": 1.0295455,
                "end_time": 1.1431818,
                "pitch": 79,
                "velocity": 51,
                "duration": 0.1136364,
                "tempo": 120.0
            },
            {
                "start_time": 1.1590909,
                "end_time": 1.2772727,
                "pitch": 79,
                "velocity": 51,
                "duration": 0.1181818,
                "tempo": 120.0
            },
            {
                "start_time": 1.2931818,
                "end_time": 1.4090909,
                "pitch": 79,
                "velocity": 51,
                "duration": 0.1159091,
                "tempo": 120.0
            },
            {
                "start_time": 1.4272727,
                "end_time": 1.5431818,
                "pitch": 79,
                "velocity": 51,
                "duration": 0.1159091,
                "tempo": 120.0
            },
            {
                "start_time": 1.5590909,
                "end_time": 1.6772727,
                "pitch": 77,
                "velocity": 51,
                "duration": 0.1181818,
                "tempo": 120.0
            },
            {
                "start_time": 1.6954545,
                "end_time": 1.8113636,
                "pitch": 77,
                "velocity": 51,
                "duration": 0.1159091,
                "tempo": 120.0
            },
            {
                "start_time": 1.8295455,
                "end_time": 1.9454545,
                "pitch": 77,
                "velocity": 51,
                "duration": 0.1159091,
                "tempo": 120.0
            },
            {
                "start_time": 1.9636364,
                "end_time": 2.0818182,
                "pitch": 77,
                "velocity": 51,
                "duration": 0.1181818,
                "tempo": 120.0
            },
            {
                "start_time": 2.1,
                "end_time": 2.2204545,
                "pitch": 77,
                "velocity": 51,
                "duration": 0.1204545,
                "tempo": 120.0
            },
            {
                "start_time": 2.2363636,
                "end_time": 2.3568182,
                "pitch": 77,
                "velocity": 51,
                "duration": 0.1204545,
                "tempo": 120.0
            },
            {
                "start_time": 2.3727273,
                "end_time": 2.4909091,
                "pitch": 77,
                "velocity": 51,
                "duration": 0.1181818,
                "tempo": 120.0
            },
            {
                "start_time": 2.5090909,
                "end_time": 2.625,
                "pitch": 77,
                "velocity": 51,
                "duration": 0.1159091,
                "tempo": 120.0
            },
            {
                "start_time": 2.6431818,
                "end_time": 2.7590909,
                "pitch": 77,
                "velocity": 51,
                "duration": 0.1159091,
                "tempo": 120.0
            },
            {
                "start_time": 2.7772727,
                "end_time": 2.8931818,
                "pitch": 77,
                "velocity": 51,
                "duration": 0.1159091,
                "tempo": 120.0
            },
            {
                "start_time": 2.9090909,
                "end_time": 3.0272727,
                "pitch": 77,
                "velocity": 51,
                "duration": 0.1181818,
                "tempo": 120.0
            },
            {
                "start_time": 3.0431818,
                "end_time": 3.1590909,
                "pitch": 77,
                "velocity": 51,
                "duration": 0.1159091,
                "tempo": 120.0
            },
            {
                "start_time": 3.1772727,
                "end_time": 3.2954545,
                "pitch": 79,
                "velocity": 51,
                "duration": 0.1181818,
                "tempo": 120.0
            },
            {
                "start_time": 3.3136364,
                "end_time": 3.4340909,
                "pitch": 79,
                "velocity": 51,
                "duration": 0.1204545,
                "tempo": 120.0
            },
            {
                "start_time": 3.45,
                "end_time": 3.5704545,
                "pitch": 79,
                "velocity": 51,
                "duration": 0.1204545,
                "tempo": 120.0
            },
            {
                "start_time": 3.5863636,
                "end_time": 3.7022727,
                "pitch": 79,
                "velocity": 51,
                "duration": 0.1159091,
                "tempo": 120.0
            },
            {
                "start_time": 3.7181818,
                "end_time": 3.8318182,
                "pitch": 79,
                "velocity": 51,
                "duration": 0.1136364,
                "tempo": 120.0
            },
            {
                "start_time": 3.8477273,
                "end_time": 3.9636364,
                "pitch": 79,
                "velocity": 51,
                "duration": 0.1159091,
                "tempo": 120.0
            },
            {
                "start_time": 3.9795455,
                "end_time": 4.0931818,
                "pitch": 79,
                "velocity": 51,
                "duration": 0.1136364,
                "tempo": 120.0
            },
            {
                "start_time": 4.1113636,
                "end_time": 4.225,
                "pitch": 79,
                "velocity": 51,
                "duration": 0.1136364,
                "tempo": 120.0
            },
            {
                "start_time": 4.2409091,
                "end_time": 4.3545455,
                "pitch": 79,
                "velocity": 51,
                "duration": 0.1136364,
                "tempo": 120.0
            },
            {
                "start_time": 4.3727273,
                "end_time": 4.4909091,
                "pitch": 79,
                "velocity": 51,
                "duration": 0.1181818,
                "tempo": 120.0
            },
            {
                "start_time": 4.5090909,
                "end_time": 4.6272727,
                "pitch": 79,
                "velocity": 51,
                "duration": 0.1181818,
                "tempo": 120.0
            },
            {
                "start_time": 4.6454545,
                "end_time": 4.7659091,
                "pitch": 79,
                "velocity": 51,
                "duration": 0.1204545,
                "tempo": 120.0
            },
            {
                "start_time": 4.7818182,
                "end_time": 4.8954545,
                "pitch": 77,
                "velocity": 51,
                "duration": 0.1136364,
                "tempo": 120.0
            },
            {
                "start_time": 4.9136364,
                "end_time": 5.0272727,
                "pitch": 77,
                "velocity": 51,
                "duration": 0.1136364,
                "tempo": 120.0
            },
            {
                "start_time": 5.0431818,
                "end_time": 5.1590909,
                "pitch": 77,
                "velocity": 51,
                "duration": 0.1159091,
                "tempo": 120.0
            },
            {
                "start_time": 5.175,
                "end_time": 5.2931818,
                "pitch": 77,
                "velocity": 51,
                "duration": 0.1181818,
                "tempo": 120.0
            },
            {
                "start_time": 5.3113636,
                "end_time": 5.4318182,
                "pitch": 77,
                "velocity": 51,
                "duration": 0.1204545,
                "tempo": 120.0
            },
            {
                "start_time": 5.4477273,
                "end_time": 5.5681818,
                "pitch": 77,
                "velocity": 51,
                "duration": 0.1204545,
                "tempo": 120.0
            },
            {
                "start_time": 5.5840909,
                "end_time": 5.7,
                "pitch": 77,
                "velocity": 51,
                "duration": 0.1159091,
                "tempo": 120.0
            },
            {
                "start_time": 5.7159091,
                "end_time": 5.8295455,
                "pitch": 77,
                "velocity": 51,
                "duration": 0.1136364,
                "tempo": 120.0
            },
            {
                "start_time": 5.8454545,
                "end_time": 5.9613636,
                "pitch": 77,
                "velocity": 51,
                "duration": 0.1159091,
                "tempo": 120.0
            },
            {
                "start_time": 5.9772727,
                "end_time": 6.0954545,
                "pitch": 77,
                "velocity": 51,
                "duration": 0.1181818,
                "tempo": 120.0
            },
            {
                "start_time": 6.1136364,
                "end_time": 6.2340909,
                "pitch": 77,
                "velocity": 51,
                "duration": 0.1204545,
                "tempo": 120.0
            },
            {
                "start_time": 6.25,
                "end_time": 6.3704545,
                "pitch": 77,
                "velocity": 51,
                "duration": 0.1204545,
                "tempo": 120.0
            },
            {
                "start_time": 6.4045455,
                "end_time": 6.5068182,
                "pitch": 79,
                "velocity": 51,
                "duration": 0.1022727,
                "tempo": 120.0
            },
            {
                "start_time": 6.525,
                "end_time": 6.6454545,
                "pitch": 79,
                "velocity": 51,
                "duration": 0.1204545,
                "tempo": 120.0
            },
            {
                "start_time": 6.6613636,
                "end_time": 6.7818182,
                "pitch": 79,
                "velocity": 51,
                "duration": 0.1204545,
                "tempo": 120.0
            },
            {
                "start_time": 6.7977273,
                "end_time": 6.9136364,
                "pitch": 79,
                "velocity": 51,
                "duration": 0.1159091,
                "tempo": 120.0
            },
            {
                "start_time": 6.9295455,
                "end_time": 7.0431818,
                "pitch": 79,
                "velocity": 51,
                "duration": 0.1136364,
                "tempo": 120.0
            },
            {
                "start_time": 7.0613636,
                "end_time": 7.175,
                "pitch": 79,
                "velocity": 51,
                "duration": 0.1136364,
                "tempo": 120.0
            },
            {
                "start_time": 7.1909091,
                "end_time": 7.3045455,
                "pitch": 79,
                "velocity": 51,
                "duration": 0.1136364,
                "tempo": 120.0
            },
            {
                "start_time": 7.3227273,
                "end_time": 7.4363636,
                "pitch": 79,
                "velocity": 51,
                "duration": 0.1136364,
                "tempo": 120.0
            },
            {
                "start_time": 7.4522727,
                "end_time": 7.5659091,
                "pitch": 79,
                "velocity": 51,
                "duration": 0.1136364,
                "tempo": 120.0
            },
            {
                "start_time": 7.5840909,
                "end_time": 7.7022727,
                "pitch": 79,
                "velocity": 51,
                "duration": 0.1181818,
                "tempo": 120.0
            },
            {
                "start_time": 7.7204545,
                "end_time": 7.8409091,
                "pitch": 79,
                "velocity": 51,
                "duration": 0.1204545,
                "tempo": 120.0
            },
            {
                "start_time": 7.8568182,
                "end_time": 7.9772727,
                "pitch": 79,
                "velocity": 51,
                "duration": 0.1204545,
                "tempo": 120.0
            },
            {
                "start_time": 7.9931818,
                "end_time": 8.1090909,
                "pitch": 77,
                "velocity": 51,
                "duration": 0.1159091,
                "tempo": 120.0
            },
            {
                "start_time": 8.125,
                "end_time": 8.2386364,
                "pitch": 77,
                "velocity": 51,
                "duration": 0.1136364,
                "tempo": 120.0
            },
            {
                "start_time": 8.2545455,
                "end_time": 8.3704545,
                "pitch": 77,
                "velocity": 51,
                "duration": 0.1159091,
                "tempo": 120.0
            },
            {
                "start_time": 8.3863636,
                "end_time": 8.5045455,
                "pitch": 77,
                "velocity": 51,
                "duration": 0.1181818,
                "tempo": 120.0
            },
            {
                "start_time": 8.5227273,
                "end_time": 8.6431818,
                "pitch": 77,
                "velocity": 51,
                "duration": 0.1204545,
                "tempo": 120.0
            },
            {
                "start_time": 8.6590909,
                "end_time": 8.7795455,
                "pitch": 77,
                "velocity": 51,
                "duration": 0.1204545,
                "tempo": 120.0
            },
            {
                "start_time": 8.7954545,
                "end_time": 8.9159091,
                "pitch": 77,
                "velocity": 51,
                "duration": 0.1204545,
                "tempo": 120.0
            },
            {
                "start_time": 8.9340909,
                "end_time": 9.0522727,
                "pitch": 77,
                "velocity": 51,
                "duration": 0.1181818,
                "tempo": 120.0
            },
            {
                "start_time": 9.0704545,
                "end_time": 9.1909091,
                "pitch": 77,
                "velocity": 51,
                "duration": 0.1204545,
                "tempo": 120.0
            },
            {
                "start_time": 9.2068182,
                "end_time": 9.3227273,
                "pitch": 77,
                "velocity": 51,
                "duration": 0.1159091,
                "tempo": 120.0
            },
            {
                "start_time": 9.3386364,
                "end_time": 9.4522727,
                "pitch": 77,
                "velocity": 51,
                "duration": 0.1136364,
                "tempo": 120.0
            },
            {
                "start_time": 9.4681818,
                "end_time": 9.5840909,
                "pitch": 77,
                "velocity": 51,
                "duration": 0.1159091,
                "tempo": 120.0
            },
            {
                "start_time": 9.6159091,
                "end_time": 9.7181818,
                "pitch": 79,
                "velocity": 51,
                "duration": 0.1022727,
                "tempo": 120.0
            },
            {
                "start_time": 9.7363636,
                "end_time": 9.8568182,
                "pitch": 79,
                "velocity": 51,
                "duration": 0.1204545,
                "tempo": 120.0
            },
            {
                "start_time": 9.8727273,
                "end_time": 9.9931818,
                "pitch": 79,
                "velocity": 51,
                "duration": 0.1204545,
                "tempo": 120.0
            },
            {
                "start_time": 10.0090909,
                "end_time": 10.125,
                "pitch": 79,
                "velocity": 51,
                "duration": 0.1159091,
                "tempo": 120.0
            },
            {
                "start_time": 10.1409091,
                "end_time": 10.2545455,
                "pitch": 79,
                "velocity": 51,
                "duration": 0.1136364,
                "tempo": 120.0
            },
            {
                "start_time": 10.2727273,
                "end_time": 10.3863636,
                "pitch": 79,
                "velocity": 51,
                "duration": 0.1136364,
                "tempo": 120.0
            },
            {
                "start_time": 10.4022727,
                "end_time": 10.5159091,
                "pitch": 79,
                "velocity": 51,
                "duration": 0.1136364,
                "tempo": 120.0
            },
            {
                "start_time": 10.5340909,
                "end_time": 10.6477273,
                "pitch": 79,
                "velocity": 51,
                "duration": 0.1136364,
                "tempo": 120.0
            },
            {
                "start_time": 10.6636364,
                "end_time": 10.7795455,
                "pitch": 79,
                "velocity": 51,
                "duration": 0.1159091,
                "tempo": 120.0
            },
            {
                "start_time": 10.7954545,
                "end_time": 10.9136364,
                "pitch": 79,
                "velocity": 51,
                "duration": 0.1181818,
                "tempo": 120.0
            },
            {
                "start_time": 10.9318182,
                "end_time": 11.0522727,
                "pitch": 79,
                "velocity": 51,
                "duration": 0.1204545,
                "tempo": 120.0
            },
            {
                "start_time": 11.0681818,
                "end_time": 11.1886364,
                "pitch": 79,
                "velocity": 51,
                "duration": 0.1204545,
                "tempo": 120.0
            },
            {
                "start_time": 11.2045455,
                "end_time": 11.3204545,
                "pitch": 77,
                "velocity": 51,
                "duration": 0.1159091,
                "tempo": 120.0
            },
            {
                "start_time": 11.3363636,
                "end_time": 11.45,
                "pitch": 77,
                "velocity": 51,
                "duration": 0.1136364,
                "tempo": 120.0
            },
            {
                "start_time": 11.4659091,
                "end_time": 11.5818182,
                "pitch": 77,
                "velocity": 51,
                "duration": 0.1159091,
                "tempo": 120.0
            },
            {
                "start_time": 11.5977273,
                "end_time": 11.7159091,
                "pitch": 77,
                "velocity": 51,
                "duration": 0.1181818,
                "tempo": 120.0
            },
            {
                "start_time": 11.7340909,
                "end_time": 11.8545455,
                "pitch": 77,
                "velocity": 51,
                "duration": 0.1204545,
                "tempo": 120.0
            },
            {
                "start_time": 11.8704545,
                "end_time": 11.9909091,
                "pitch": 77,
                "velocity": 51,
                "duration": 0.1204545,
                "tempo": 120.0
            },
            {
                "start_time": 12.0068182,
                "end_time": 12.1227273,
                "pitch": 77,
                "velocity": 51,
                "duration": 0.1159091,
                "tempo": 120.0
            },
            {
                "start_time": 12.1386364,
                "end_time": 12.2522727,
                "pitch": 77,
                "velocity": 51,
                "duration": 0.1136364,
                "tempo": 120.0
            },
            {
                "start_time": 12.2704545,
                "end_time": 12.3840909,
                "pitch": 77,
                "velocity": 51,
                "duration": 0.1136364,
                "tempo": 120.0
            },
            {
                "start_time": 12.4,
                "end_time": 12.5204545,
                "pitch": 77,
                "velocity": 51,
                "duration": 0.1204545,
                "tempo": 120.0
            },
            {
                "start_time": 12.5363636,
                "end_time": 12.6568182,
                "pitch": 77,
                "velocity": 51,
                "duration": 0.1204545,
                "tempo": 120.0
            },
            {
                "start_time": 12.6727273,
                "end_time": 12.7931818,
                "pitch": 77,
                "velocity": 51,
                "duration": 0.1204545,
                "tempo": 120.0
            },
            {
                "start_time": 12.8272727,
                "end_time": 12.9295455,
                "pitch": 80,
                "velocity": 51,
                "duration": 0.1022727,
                "tempo": 120.0
            },
            {
                "start_time": 12.9477273,
                "end_time": 13.0681818,
                "pitch": 80,
                "velocity": 51,
                "duration": 0.1204545,
                "tempo": 120.0
            },
            {
                "start_time": 13.0840909,
                "end_time": 13.2045455,
                "pitch": 80,
                "velocity": 51,
                "duration": 0.1204545,
                "tempo": 120.0
            },
            {
                "start_time": 13.2227273,
                "end_time": 13.3363636,
                "pitch": 80,
                "velocity": 51,
                "duration": 0.1136364,
                "tempo": 120.0
            },
            {
                "start_time": 13.3522727,
                "end_time": 13.4681818,
                "pitch": 80,
                "velocity": 51,
                "duration": 0.1159091,
                "tempo": 120.0
            },
            {
                "start_time": 13.4840909,
                "end_time": 13.5977273,
                "pitch": 80,
                "velocity": 51,
                "duration": 0.1136364,
                "tempo": 120.0
            },
            {
                "start_time": 13.6136364,
                "end_time": 13.7295455,
                "pitch": 80,
                "velocity": 51,
                "duration": 0.1159091,
                "tempo": 120.0
            },
            {
                "start_time": 13.7454545,
                "end_time": 13.8590909,
                "pitch": 80,
                "velocity": 51,
                "duration": 0.1136364,
                "tempo": 120.0
            },
            {
                "start_time": 13.875,
                "end_time": 13.9909091,
                "pitch": 80,
                "velocity": 51,
                "duration": 0.1159091,
                "tempo": 120.0
            },
            {
                "start_time": 14.0068182,
                "end_time": 14.125,
                "pitch": 80,
                "velocity": 51,
                "duration": 0.1181818,
                "tempo": 120.0
            },
            {
                "start_time": 14.1431818,
                "end_time": 14.2636364,
                "pitch": 80,
                "velocity": 51,
                "duration": 0.1204545,
                "tempo": 120.0
            },
            {
                "start_time": 14.2795455,
                "end_time": 14.4,
                "pitch": 80,
                "velocity": 51,
                "duration": 0.1204545,
                "tempo": 120.0
            },
            {
                "start_time": 14.4159091,
                "end_time": 14.5318182,
                "pitch": 77,
                "velocity": 51,
                "duration": 0.1159091,
                "tempo": 120.0
            },
            {
                "start_time": 14.5477273,
                "end_time": 14.6613636,
                "pitch": 77,
                "velocity": 51,
                "duration": 0.1136364,
                "tempo": 120.0
            },
            {
                "start_time": 14.6772727,
                "end_time": 14.7931818,
                "pitch": 77,
                "velocity": 51,
                "duration": 0.1159091,
                "tempo": 120.0
            },
            {
                "start_time": 14.8090909,
                "end_time": 14.9295455,
                "pitch": 77,
                "velocity": 51,
                "duration": 0.1204545,
                "tempo": 120.0
            },
            {
                "start_time": 14.9454545,
                "end_time": 15.0659091,
                "pitch": 77,
                "velocity": 51,
                "duration": 0.1204545,
                "tempo": 120.0
            },
            {
                "start_time": 15.0818182,
                "end_time": 15.2022727,
                "pitch": 77,
                "velocity": 51,
                "duration": 0.1204545,
                "tempo": 120.0
            },
            {
                "start_time": 15.2204545,
                "end_time": 15.3386364,
                "pitch": 77,
                "velocity": 51,
                "duration": 0.1181818,
                "tempo": 120.0
            },
            {
                "start_time": 15.3568182,
                "end_time": 15.4772727,
                "pitch": 77,
                "velocity": 51,
                "duration": 0.1204545,
                "tempo": 120.0
            },
            {
                "start_time": 15.4931818,
                "end_time": 15.6136364,
                "pitch": 77,
                "velocity": 51,
                "duration": 0.1204545,
                "tempo": 120.0
            },
            {
                "start_time": 15.6295455,
                "end_time": 15.7454545,
                "pitch": 77,
                "velocity": 51,
                "duration": 0.1159091,
                "tempo": 120.0
            },
            {
                "start_time": 15.7613636,
                "end_time": 15.875,
                "pitch": 77,
                "velocity": 51,
                "duration": 0.1136364,
                "tempo": 120.0
            },
            {
                "start_time": 15.8931818,
                "end_time": 16.0068182,
                "pitch": 77,
                "velocity": 51,
                "duration": 0.1136364,
                "tempo": 120.0
            },
            {
                "start_time": 16.0227273,
                "end_time": 16.1431818,
                "pitch": 80,
                "velocity": 51,
                "duration": 0.1204545,
                "tempo": 120.0
            },
            {
                "start_time": 16.1590909,
                "end_time": 16.2795455,
                "pitch": 80,
                "velocity": 51,
                "duration": 0.1204545,
                "tempo": 120.0
            },
            {
                "start_time": 16.2954545,
                "end_time": 16.4159091,
                "pitch": 80,
                "velocity": 51,
                "duration": 0.1204545,
                "tempo": 120.0
            },
            {
                "start_time": 16.4340909,
                "end_time": 16.5477273,
                "pitch": 80,
                "velocity": 51,
                "duration": 0.1136364,
                "tempo": 120.0
            },
            {
                "start_time": 16.5636364,
                "end_time": 16.6795455,
                "pitch": 80,
                "velocity": 51,
                "duration": 0.1159091,
                "tempo": 120.0
            },
            {
                "start_time": 16.6954545,
                "end_time": 16.8090909,
                "pitch": 80,
                "velocity": 51,
                "duration": 0.1136364,
                "tempo": 120.0
            },
            {
                "start_time": 16.825,
                "end_time": 16.9454545,
                "pitch": 80,
                "velocity": 51,
                "duration": 0.1204545,
                "tempo": 120.0
            },
            {
                "start_time": 16.9613636,
                "end_time": 17.0818182,
                "pitch": 80,
                "velocity": 51,
                "duration": 0.1204545,
                "tempo": 120.0
            },
            {
                "start_time": 17.0977273,
                "end_time": 17.2181818,
                "pitch": 80,
                "velocity": 51,
                "duration": 0.1204545,
                "tempo": 120.0
            },
            {
                "start_time": 17.2363636,
                "end_time": 17.35,
                "pitch": 80,
                "velocity": 51,
                "duration": 0.1136364,
                "tempo": 120.0
            },
            {
                "start_time": 17.3659091,
                "end_time": 17.4818182,
                "pitch": 80,
                "velocity": 51,
                "duration": 0.1159091,
                "tempo": 120.0
            },
            {
                "start_time": 17.4977273,
                "end_time": 17.6113636,
                "pitch": 80,
                "velocity": 51,
                "duration": 0.1136364,
                "tempo": 120.0
            },
            {
                "start_time": 17.6272727,
                "end_time": 17.7431818,
                "pitch": 77,
                "velocity": 51,
                "duration": 0.1159091,
                "tempo": 120.0
            },
            {
                "start_time": 17.7590909,
                "end_time": 17.8727273,
                "pitch": 77,
                "velocity": 51,
                "duration": 0.1136364,
                "tempo": 120.0
            },
            {
                "start_time": 17.8886364,
                "end_time": 18.0045455,
                "pitch": 77,
                "velocity": 51,
                "duration": 0.1159091,
                "tempo": 120.0
            },
            {
                "start_time": 18.0204545,
                "end_time": 18.1409091,
                "pitch": 77,
                "velocity": 51,
                "duration": 0.1204545,
                "tempo": 120.0
            },
            {
                "start_time": 18.1568182,
                "end_time": 18.2772727,
                "pitch": 77,
                "velocity": 51,
                "duration": 0.1204545,
                "tempo": 120.0
            },
            {
                "start_time": 18.2931818,
                "end_time": 18.4136364,
                "pitch": 77,
                "velocity": 51,
                "duration": 0.1204545,
                "tempo": 120.0
            },
            {
                "start_time": 18.4318182,
                "end_time": 18.55,
                "pitch": 77,
                "velocity": 51,
                "duration": 0.1181818,
                "tempo": 120.0
            },
            {
                "start_time": 18.5681818,
                "end_time": 18.6886364,
                "pitch": 77,
                "velocity": 51,
                "duration": 0.1204545,
                "tempo": 120.0
            },
            {
                "start_time": 18.7045455,
                "end_time": 18.825,
                "pitch": 77,
                "velocity": 51,
                "duration": 0.1204545,
                "tempo": 120.0
            },
            {
                "start_time": 18.8431818,
                "end_time": 18.9568182,
                "pitch": 77,
                "velocity": 51,
                "duration": 0.1136364,
                "tempo": 120.0
            },
            {
                "start_time": 18.9727273,
                "end_time": 19.0863636,
                "pitch": 77,
                "velocity": 51,
                "duration": 0.1136364,
                "tempo": 120.0
            },
            {
                "start_time": 19.1045455,
                "end_time": 19.2181818,
                "pitch": 77,
                "velocity": 51,
                "duration": 0.1136364,
                "tempo": 120.0
            },
            {
                "start_time": 19.25,
                "end_time": 19.3545455,
                "pitch": 80,
                "velocity": 51,
                "duration": 0.1045455,
                "tempo": 120.0
            },
            {
                "start_time": 19.3704545,
                "end_time": 19.4909091,
                "pitch": 80,
                "velocity": 51,
                "duration": 0.1204545,
                "tempo": 120.0
            },
            {
                "start_time": 19.5068182,
                "end_time": 19.6272727,
                "pitch": 80,
                "velocity": 51,
                "duration": 0.1204545,
                "tempo": 120.0
            },
            {
                "start_time": 19.6454545,
                "end_time": 19.7590909,
                "pitch": 80,
                "velocity": 51,
                "duration": 0.1136364,
                "tempo": 120.0
            },
            {
                "start_time": 19.775,
                "end_time": 19.8909091,
                "pitch": 80,
                "velocity": 51,
                "duration": 0.1159091,
                "tempo": 120.0
            },
            {
                "start_time": 19.9068182,
                "end_time": 20.0204545,
                "pitch": 80,
                "velocity": 51,
                "duration": 0.1136364,
                "tempo": 120.0
            },
            {
                "start_time": 20.0363636,
                "end_time": 20.1522727,
                "pitch": 80,
                "velocity": 51,
                "duration": 0.1159091,
                "tempo": 120.0
            },
            {
                "start_time": 20.1681818,
                "end_time": 20.2818182,
                "pitch": 80,
                "velocity": 51,
                "duration": 0.1136364,
                "tempo": 120.0
            },
            {
                "start_time": 20.2977273,
                "end_time": 20.4136364,
                "pitch": 80,
                "velocity": 51,
                "duration": 0.1159091,
                "tempo": 120.0
            },
            {
                "start_time": 20.4295455,
                "end_time": 20.55,
                "pitch": 80,
                "velocity": 51,
                "duration": 0.1204545,
                "tempo": 120.0
            },
            {
                "start_time": 20.5659091,
                "end_time": 20.6863636,
                "pitch": 80,
                "velocity": 51,
                "duration": 0.1204545,
                "tempo": 120.0
            },
            {
                "start_time": 20.7022727,
                "end_time": 20.8227273,
                "pitch": 80,
                "velocity": 51,
                "duration": 0.1204545,
                "tempo": 120.0
            },
            {
                "start_time": 20.8409091,
                "end_time": 20.9545455,
                "pitch": 77,
                "velocity": 51,
                "duration": 0.1136364,
                "tempo": 120.0
            },
            {
                "start_time": 20.9704545,
                "end_time": 21.0840909,
                "pitch": 77,
                "velocity": 51,
                "duration": 0.1136364,
                "tempo": 120.0
            },
            {
                "start_time": 21.1022727,
                "end_time": 21.2159091,
                "pitch": 77,
                "velocity": 51,
                "duration": 0.1136364,
                "tempo": 120.0
            },
            {
                "start_time": 21.2318182,
                "end_time": 21.3522727,
                "pitch": 77,
                "velocity": 51,
                "duration": 0.1204545,
                "tempo": 120.0
            },
            {
                "start_time": 21.3681818,
                "end_time": 21.4886364,
                "pitch": 77,
                "velocity": 51,
                "duration": 0.1204545,
                "tempo": 120.0
            },
            {
                "start_time": 21.5045455,
                "end_time": 21.625,
                "pitch": 77,
                "velocity": 51,
                "duration": 0.1204545,
                "tempo": 120.0
            },
            {
                "start_time": 21.6431818,
                "end_time": 21.7613636,
                "pitch": 77,
                "velocity": 51,
                "duration": 0.1181818,
                "tempo": 120.0
            },
            {
                "start_time": 21.7795455,
                "end_time": 21.9,
                "pitch": 77,
                "velocity": 51,
                "duration": 0.1204545,
                "tempo": 120.0
            },
            {
                "start_time": 21.9159091,
                "end_time": 22.0363636,
                "pitch": 77,
                "velocity": 51,
                "duration": 0.1204545,
                "tempo": 120.0
            },
            {
                "start_time": 22.0545455,
                "end_time": 22.1681818,
                "pitch": 77,
                "velocity": 51,
                "duration": 0.1136364,
                "tempo": 120.0
            },
            {
                "start_time": 22.1840909,
                "end_time": 22.3,
                "pitch": 77,
                "velocity": 51,
                "duration": 0.1159091,
                "tempo": 120.0
            },
            {
                "start_time": 22.3159091,
                "end_time": 22.4295455,
                "pitch": 77,
                "velocity": 51,
                "duration": 0.1136364,
                "tempo": 120.0
            },
            {
                "start_time": 22.4613636,
                "end_time": 22.5659091,
                "pitch": 67,
                "velocity": 51,
                "duration": 0.1045455,
                "tempo": 120.0
            },
            {
                "start_time": 22.5818182,
                "end_time": 22.7022727,
                "pitch": 67,
                "velocity": 51,
                "duration": 0.1204545,
                "tempo": 120.0
            },
            {
                "start_time": 22.7181818,
                "end_time": 22.8386364,
                "pitch": 67,
                "velocity": 51,
                "duration": 0.1204545,
                "tempo": 120.0
            },
            {
                "start_time": 22.8568182,
                "end_time": 22.9704545,
                "pitch": 67,
                "velocity": 51,
                "duration": 0.1136364,
                "tempo": 120.0
            },
            {
                "start_time": 22.9863636,
                "end_time": 23.1022727,
                "pitch": 67,
                "velocity": 51,
                "duration": 0.1159091,
                "tempo": 120.0
            },
            {
                "start_time": 23.1181818,
                "end_time": 23.2318182,
                "pitch": 67,
                "velocity": 51,
                "duration": 0.1136364,
                "tempo": 120.0
            },
            {
                "start_time": 23.2477273,
                "end_time": 23.3636364,
                "pitch": 67,
                "velocity": 51,
                "duration": 0.1159091,
                "tempo": 120.0
            },
            {
                "start_time": 23.3795455,
                "end_time": 23.4931818,
                "pitch": 67,
                "velocity": 51,
                "duration": 0.1136364,
                "tempo": 120.0
            },
            {
                "start_time": 23.5090909,
                "end_time": 23.625,
                "pitch": 67,
                "velocity": 51,
                "duration": 0.1159091,
                "tempo": 120.0
            },
            {
                "start_time": 23.6409091,
                "end_time": 23.7613636,
                "pitch": 67,
                "velocity": 51,
                "duration": 0.1204545,
                "tempo": 120.0
            },
            {
                "start_time": 23.7772727,
                "end_time": 23.8977273,
                "pitch": 67,
                "velocity": 51,
                "duration": 0.1204545,
                "tempo": 120.0
            },
            {
                "start_time": 23.9136364,
                "end_time": 24.0340909,
                "pitch": 67,
                "velocity": 51,
                "duration": 0.1204545,
                "tempo": 120.0
            },
            {
                "start_time": 24.0522727,
                "end_time": 24.1704545,
                "pitch": 84,
                "velocity": 51,
                "duration": 0.1181818,
                "tempo": 120.0
            },
            {
                "start_time": 24.1886364,
                "end_time": 24.3090909,
                "pitch": 84,
                "velocity": 51,
                "duration": 0.1204545,
                "tempo": 120.0
            },
            {
                "start_time": 24.325,
                "end_time": 24.4454545,
                "pitch": 84,
                "velocity": 51,
                "duration": 0.1204545,
                "tempo": 120.0
            },
            {
                "start_time": 24.4613636,
                "end_time": 24.5727273,
                "pitch": 84,
                "velocity": 51,
                "duration": 0.1113636,
                "tempo": 120.0
            },
            {
                "start_time": 24.5886364,
                "end_time": 24.7,
                "pitch": 84,
                "velocity": 51,
                "duration": 0.1113636,
                "tempo": 120.0
            },
            {
                "start_time": 24.7159091,
                "end_time": 24.8295455,
                "pitch": 84,
                "velocity": 51,
                "duration": 0.1136364,
                "tempo": 120.0
            },
            {
                "start_time": 24.8454545,
                "end_time": 24.9613636,
                "pitch": 84,
                "velocity": 51,
                "duration": 0.1159091,
                "tempo": 120.0
            }
        ]
    }
}