{
    "mood": "happy",
    "instruments": {
        "Acoustic Grand Piano": [
            {
                "start_time": 65.9909091,
                "end_time": 66.175,
                "pitch": 69,
                "velocity": 40,
                "duration": 0.1840909,
                "tempo": 120.0
            },
            {
                "start_time": 66.1909091,
                "end_time": 66.375,
                "pitch": 69,
                "velocity": 40,
                "duration": 0.1840909,
                "tempo": 120.0
            },
            {
                "start_time": 66.3909091,
                "end_time": 66.575,
                "pitch": 69,
                "velocity": 40,
                "duration": 0.1840909,
                "tempo": 120.0
            },
            {
                "start_time": 66.7886364,
                "end_time": 67.1727273,
                "pitch": 69,
                "velocity": 40,
                "duration": 0.3840909,
                "tempo": 120.0
            },
            {
                "start_time": 67.1886364,
                "end_time": 67.7704545,
                "pitch": 69,
                "velocity": 40,
                "duration": 0.5818182,
                "tempo": 120.0
            },
            {
                "start_time": 67.7863636,
                "end_time": 67.9704545,
                "pitch": 69,
                "velocity": 40,
                "duration": 0.1840909,
                "tempo": 120.0
            },
            {
                "start_time": 67.9863636,
                "end_time": 68.1704545,
                "pitch": 69,
                "velocity": 40,
                "duration": 0.1840909,
                "tempo": 120.0
            },
            {
                "start_time": 68.1863636,
                "end_time": 68.5727273,
                "pitch": 69,
                "velocity": 40,
                "duration": 0.3863636,
                "tempo": 120.0
            },
            {
                "start_time": 68.5886364,
                "end_time": 68.9727273,
                "pitch": 69,
                "velocity": 40,
                "duration": 0.3840909,
                "tempo": 120.0
            },
            {
                "start_time": 69.1909091,
                "end_time": 69.375,
                "pitch": 71,
                "velocity": 40,
                "duration": 0.1840909,
                "tempo": 120.0
            },
            {
                "start_time": 69.3909091,
                "end_time": 69.5772727,
                "pitch": 71,
                "velocity": 40,
                "duration": 0.1863636,
                "tempo": 120.0
            },
            {
                "start_time": 69.5931818,
                "end_time": 69.7772727,
                "pitch": 71,
                "velocity": 40,
                "duration": 0.1840909,
                "tempo": 120.0
            },
            {
                "start_time": 69.7954545,
                "end_time": 69.9772727,
                "pitch": 71,
                "velocity": 40,
                "duration": 0.1818182,
                "tempo": 120.0
            },
            {
                "start_time": 69.9954545,
                "end_time": 70.1772727,
                "pitch": 71,
                "velocity": 40,
                "duration": 0.1818182,
                "tempo": 120.0
            },
            {
                "start_time": 70.5977273,
                "end_time": 71.1818182,
                "pitch": 66,
                "velocity": 40,
                "duration": 0.5840909,
                "tempo": 120.0
            },
            {
                "start_time": 71.1977273,
                "end_time": 71.3840909,
                "pitch": 66,
                "velocity": 40,
                "duration": 0.1863636,
                "tempo": 120.0
            },
            {
                "start_time": 71.4,
                "end_time": 71.7863636,
                "pitch": 66,
                "velocity": 40,
                "duration": 0.3863636,
                "tempo": 120.0
            },
            {
                "start_time": 71.8022727,
                "end_time": 72.1954545,
                "pitch": 66,
                "velocity": 40,
                "duration": 0.3931818,
                "tempo": 120.0
            },
            {
                "start_time": 72.2136364,
                "end_time": 72.5886364,
                "pitch": 71,
                "velocity": 40,
                "duration": 0.375,
                "tempo": 120.0
            },
            {
                "start_time": 72.6045455,
                "end_time": 72.7886364,
                "pitch": 71,
                "velocity": 40,
                "duration": 0.1840909,
                "tempo": 120.0
            },
            {
                "start_time": 72.8045455,
                "end_time": 73.3909091,
                "pitch": 71,
                "velocity": 40,
                "duration": 0.5863636,
                "tempo": 120.0
            },
            {
                "start_time": 73.4090909,
                "end_time": 73.5931818,
                "pitch": 62,
                "velocity": 40,
                "duration": 0.1840909,
                "tempo": 120.0
            },
            {
                "start_time": 73.6090909,
                "end_time": 73.7931818,
                "pitch": 62,
                "velocity": 40,
                "duration": 0.1840909,
                "tempo": 120.0
            },
            {
                "start_time": 73.8113636,
                "end_time": 73.9931818,
                "pitch": 64,
                "velocity": 40,
                "duration": 0.1818182,
                "tempo": 120.0
            },
            {
                "start_time": 74.0113636,
                "end_time": 74.1931818,
                "pitch": 64,
                "velocity": 40,
                "duration": 0.1818182,
                "tempo": 120.0
            },
            {
                "start_time": 74.2113636,
                "end_time": 74.4,
                "pitch": 64,
                "velocity": 40,
                "duration": 0.1886364,
                "tempo": 120.0
            },
            {
                "start_time": 74.4159091,
                "end_time": 74.8022727,
                "pitch": 64,
                "velocity": 40,
                "duration": 0.3863636,
                "tempo": 120.0
            },
            {
                "start_time": 74.8181818,
                "end_time": 74.9977273,
                "pitch": 64,
                "velocity": 40,
                "duration": 0.1795455,
                "tempo": 120.0
            },
            {
                "start_time": 75.0136364,
                "end_time": 75.2022727,
                "pitch": 64,
                "velocity": 40,
                "duration": 0.1886364,
                "tempo": 120.0
            },
            {
                "start_time": 75.2181818,
                "end_time": 75.4068182,
                "pitch": 64,
                "velocity": 40,
                "duration": 0.1886364,
                "tempo": 120.0
            },
            {
                "start_time": 75.425,
                "end_time": 75.6045455,
                "pitch": 64,
                "velocity": 40,
                "duration": 0.1795455,
                "tempo": 120.0
            },
            {
                "start_time": 75.6204545,
                "end_time": 75.8,
                "pitch": 64,
                "velocity": 40,
                "duration": 0.1795455,
                "tempo": 120.0
            },
            {
                "start_time": 75.8159091,
                "end_time": 76.0045455,
                "pitch": 64,
                "velocity": 40,
                "duration": 0.1886364,
                "tempo": 120.0
            },
            {
                "start_time": 76.0204545,
                "end_time": 76.6022727,
                "pitch": 64,
                "velocity": 40,
                "duration": 0.5818182,
                "tempo": 120.0
            },
            {
                "start_time": 76.6181818,
                "end_time": 76.8022727,
                "pitch": 64,
                "velocity": 40,
                "duration": 0.1840909,
                "tempo": 120.0
            },
            {
                "start_time": 76.8181818,
                "end_time": 77.0022727,
                "pitch": 64,
                "velocity": 40,
                "duration": 0.1840909,
                "tempo": 120.0
            },
            {
                "start_time": 77.2204545,
                "end_time": 77.6068182,
                "pitch": 64,
                "velocity": 40,
                "duration": 0.3863636,
                "tempo": 120.0
            },
            {
                "start_time": 77.6227273,
                "end_time": 77.8068182,
                "pitch": 64,
                "velocity": 40,
                "duration": 0.1840909,
                "tempo": 120.0
            },
            {
                "start_time": 77.825,
                "end_time": 78.0068182,
                "pitch": 69,
                "velocity": 40,
                "duration": 0.1818182,
                "tempo": 120.0
            },
            {
                "start_time": 78.025,
                "end_time": 78.2068182,
                "pitch": 71,
                "velocity": 40,
                "duration": 0.1818182,
                "tempo": 120.0
            },
            {
                "start_time": 78.225,
                "end_time": 78.4136364,
                "pitch": 73,
                "velocity": 40,
                "duration": 0.1886364,
                "tempo": 120.0
            },
            {
                "start_time": 78.4295455,
                "end_time": 78.6181818,
                "pitch": 74,
                "velocity": 40,
                "duration": 0.1886364,
                "tempo": 120.0
            }
        ],
        "French Horn": [
            {
                "start_time": 0.7863636,
                "end_time": 0.9704545,
                "pitch": 62,
                "velocity": 40,
                "duration": 0.1840909,
                "tempo": 120.0
            },
            {
                "start_time": 1.1863636,
                "end_time": 1.3704545,
                "pitch": 62,
                "velocity": 40,
                "duration": 0.1840909,
                "tempo": 120.0
            },
            {
                "start_time": 1.5863636,
                "end_time": 2.1772727,
                "pitch": 62,
                "velocity": 40,
                "duration": 0.5909091,
                "tempo": 120.0
            },
            {
                "start_time": 2.1931818,
                "end_time": 3.175,
                "pitch": 61,
                "velocity": 40,
                "duration": 0.9818182,
                "tempo": 120.0
            },
            {
                "start_time": 3.1909091,
                "end_time": 3.7818182,
                "pitch": 59,
                "velocity": 40,
                "duration": 0.5909091,
                "tempo": 120.0
            },
            {
                "start_time": 3.8,
                "end_time": 4.7818182,
                "pitch": 61,
                "velocity": 40,
                "duration": 0.9818182,
                "tempo": 120.0
            },
            {
                "start_time": 4.7977273,
                "end_time": 5.1840909,
                "pitch": 59,
                "velocity": 40,
                "duration": 0.3863636,
                "tempo": 120.0
            },
            {
                "start_time": 5.2,
                "end_time": 5.5840909,
                "pitch": 61,
                "velocity": 40,
                "duration": 0.3840909,
                "tempo": 120.0
            },
            {
                "start_time": 5.6,
                "end_time": 5.9863636,
                "pitch": 64,
                "velocity": 40,
                "duration": 0.3863636,
                "tempo": 120.0
            },
            {
                "start_time": 6.0022727,
                "end_time": 6.3954545,
                "pitch": 67,
                "velocity": 40,
                "duration": 0.3931818,
                "tempo": 120.0
            },
            {
                "start_time": 6.4136364,
                "end_time": 6.7886364,
                "pitch": 62,
                "velocity": 40,
                "duration": 0.375,
                "tempo": 120.0
            },
            {
                "start_time": 6.8045455,
                "end_time": 7.2,
                "pitch": 62,
                "velocity": 40,
                "duration": 0.3954545,
                "tempo": 120.0
            },
            {
                "start_time": 7.2159091,
                "end_time": 7.5909091,
                "pitch": 62,
                "velocity": 40,
                "duration": 0.375,
                "tempo": 120.0
            },
            {
                "start_time": 7.6090909,
                "end_time": 7.9931818,
                "pitch": 64,
                "velocity": 40,
                "duration": 0.3840909,
                "tempo": 120.0
            },
            {
                "start_time": 104.7272727,
                "end_time": 104.8090909,
                "pitch": 50,
                "velocity": 40,
                "duration": 0.0818182,
                "tempo": 120.0
            },
            {
                "start_time": 104.8272727,
                "end_time": 104.9068182,
                "pitch": 52,
                "velocity": 40,
                "duration": 0.0795455,
                "tempo": 120.0
            },
            {
                "start_time": 105.0227273,
                "end_time": 105.1045455,
                "pitch": 54,
                "velocity": 40,
                "duration": 0.0818182,
                "tempo": 120.0
            },
            {
                "start_time": 105.1204545,
                "end_time": 105.2045455,
                "pitch": 57,
                "velocity": 40,
                "duration": 0.0840909,
                "tempo": 120.0
            },
            {
                "start_time": 105.3227273,
                "end_time": 105.7113636,
                "pitch": 55,
                "velocity": 40,
                "duration": 0.3886364,
                "tempo": 120.0
            },
            {
                "start_time": 105.7295455,
                "end_time": 105.9159091,
                "pitch": 54,
                "velocity": 40,
                "duration": 0.1863636,
                "tempo": 120.0
            },
            {
                "start_time": 105.9340909,
                "end_time": 106.2113636,
                "pitch": 64,
                "velocity": 40,
                "duration": 0.2772727,
                "tempo": 120.0
            },
            {
                "start_time": 106.2272727,
                "end_time": 106.3090909,
                "pitch": 64,
                "velocity": 40,
                "duration": 0.0818182,
                "tempo": 120.0
            },
            {
                "start_time": 106.5318182,
                "end_time": 106.6159091,
                "pitch": 67,
                "velocity": 40,
                "duration": 0.0840909,
                "tempo": 120.0
            },
            {
                "start_time": 106.6340909,
                "end_time": 106.7204545,
                "pitch": 67,
                "velocity": 40,
                "duration": 0.0863636,
                "tempo": 120.0
            },
            {
                "start_time": 107.3295455,
                "end_time": 107.4136364,
                "pitch": 67,
                "velocity": 40,
                "duration": 0.0840909,
                "tempo": 120.0
            },
            {
                "start_time": 107.7318182,
                "end_time": 107.8159091,
                "pitch": 57,
                "velocity": 40,
                "duration": 0.0840909,
                "tempo": 120.0
            },
            {
                "start_time": 107.8340909,
                "end_time": 107.9181818,
                "pitch": 55,
                "velocity": 40,
                "duration": 0.0840909,
                "tempo": 120.0
            },
            {
                "start_time": 107.9340909,
                "end_time": 108.0204545,
                "pitch": 57,
                "velocity": 40,
                "duration": 0.0863636,
                "tempo": 120.0
            },
            {
                "start_time": 108.1386364,
                "end_time": 108.225,
                "pitch": 54,
                "velocity": 40,
                "duration": 0.0863636,
                "tempo": 120.0
            },
            {
                "start_time": 108.3454545,
                "end_time": 108.6227273,
                "pitch": 55,
                "velocity": 40,
                "duration": 0.2772727,
                "tempo": 120.0
            },
            {
                "start_time": 108.6386364,
                "end_time": 108.925,
                "pitch": 54,
                "velocity": 40,
                "duration": 0.2863636,
                "tempo": 120.0
            },
            {
                "start_time": 108.9409091,
                "end_time": 109.1295455,
                "pitch": 52,
                "velocity": 40,
                "duration": 0.1886364,
                "tempo": 120.0
            },
            {
                "start_time": 109.3431818,
                "end_time": 109.425,
                "pitch": 57,
                "velocity": 40,
                "duration": 0.0818182,
                "tempo": 120.0
            },
            {
                "start_time": 109.4409091,
                "end_time": 109.5227273,
                "pitch": 55,
                "velocity": 40,
                "duration": 0.0818182,
                "tempo": 120.0
            },
            {
                "start_time": 109.5386364,
                "end_time": 109.625,
                "pitch": 57,
                "velocity": 40,
                "duration": 0.0863636,
                "tempo": 120.0
            },
            {
                "start_time": 109.7454545,
                "end_time": 109.8295455,
                "pitch": 54,
                "velocity": 40,
                "duration": 0.0840909,
                "tempo": 120.0
            },
            {
                "start_time": 109.95,
                "end_time": 110.2272727,
                "pitch": 55,
                "velocity": 40,
                "duration": 0.2772727,
                "tempo": 120.0
            },
            {
                "start_time": 110.2431818,
                "end_time": 110.5295455,
                "pitch": 57,
                "velocity": 40,
                "duration": 0.2863636,
                "tempo": 120.0
            },
            {
                "start_time": 110.5477273,
                "end_time": 110.7363636,
                "pitch": 59,
                "velocity": 40,
                "duration": 0.1886364,
                "tempo": 120.0
            },
            {
                "start_time": 110.9477273,
                "end_time": 111.0295455,
                "pitch": 57,
                "velocity": 40,
                "duration": 0.0818182,
                "tempo": 120.0
            },
            {
                "start_time": 111.0477273,
                "end_time": 111.1295455,
                "pitch": 55,
                "velocity": 40,
                "duration": 0.0818182,
                "tempo": 120.0
            },
            {
                "start_time": 111.1454545,
                "end_time": 111.2295455,
                "pitch": 57,
                "velocity": 40,
                "duration": 0.0840909,
                "tempo": 120.0
            },
            {
                "start_time": 111.35,
                "end_time": 111.4363636,
                "pitch": 59,
                "velocity": 40,
                "duration": 0.0863636,
                "tempo": 120.0
            },
            {
                "start_time": 111.5545455,
                "end_time": 111.8340909,
                "pitch": 55,
                "velocity": 40,
                "duration": 0.2795455,
                "tempo": 120.0
            },
            {
                "start_time": 111.85,
                "end_time": 112.1363636,
                "pitch": 54,
                "velocity": 40,
                "duration": 0.2863636,
                "tempo": 120.0
            },
            {
                "start_time": 112.1522727,
                "end_time": 112.3409091,
                "pitch": 52,
                "velocity": 40,
                "duration": 0.1886364,
                "tempo": 120.0
            },
            {
                "start_time": 112.5545455,
                "end_time": 112.6363636,
                "pitch": 64,
                "velocity": 40,
                "duration": 0.0818182,
                "tempo": 120.0
            },
            {
                "start_time": 112.6522727,
                "end_time": 112.7340909,
                "pitch": 64,
                "velocity": 40,
                "duration": 0.0818182,
                "tempo": 120.0
            },
            {
                "start_time": 112.9545455,
                "end_time": 113.0409091,
                "pitch": 67,
                "velocity": 40,
                "duration": 0.0863636,
                "tempo": 120.0
            },
            {
                "start_time": 113.0590909,
                "end_time": 113.1431818,
                "pitch": 67,
                "velocity": 40,
                "duration": 0.0840909,
                "tempo": 120.0
            },
            {
                "start_time": 113.3568182,
                "end_time": 113.4386364,
                "pitch": 69,
                "velocity": 40,
                "duration": 0.0818182,
                "tempo": 120.0
            },
            {
                "start_time": 113.4545455,
                "end_time": 113.5363636,
                "pitch": 69,
                "velocity": 40,
                "duration": 0.0818182,
                "tempo": 120.0
            },
            {
                "start_time": 114.1590909,
                "end_time": 114.2409091,
                "pitch": 67,
                "velocity": 40,
                "duration": 0.0818182,
                "tempo": 120.0
            },
            {
                "start_time": 114.2568182,
                "end_time": 114.3386364,
                "pitch": 67,
                "velocity": 40,
                "duration": 0.0818182,
                "tempo": 120.0
            },
            {
                "start_time": 114.3545455,
                "end_time": 114.4409091,
                "pitch": 60,
                "velocity": 40,
                "duration": 0.0863636,
                "tempo": 120.0
            },
            {
                "start_time": 114.4568182,
                "end_time": 114.5431818,
                "pitch": 59,
                "velocity": 40,
                "duration": 0.0863636,
                "tempo": 120.0
            },
            {
                "start_time": 114.5613636,
                "end_time": 114.6454545,
                "pitch": 55,
                "velocity": 40,
                "duration": 0.0840909,
                "tempo": 120.0
            },
            {
                "start_time": 114.6636364,
                "end_time": 114.75,
                "pitch": 57,
                "velocity": 40,
                "duration": 0.0863636,
                "tempo": 120.0
            },
            {
                "start_time": 114.9613636,
                "end_time": 115.1409091,
                "pitch": 60,
                "velocity": 40,
                "duration": 0.1795455,
                "tempo": 120.0
            },
            {
                "start_time": 115.1590909,
                "end_time": 115.2409091,
                "pitch": 60,
                "velocity": 40,
                "duration": 0.0818182,
                "tempo": 120.0
            },
            {
                "start_time": 115.2590909,
                "end_time": 115.3431818,
                "pitch": 59,
                "velocity": 40,
                "duration": 0.0840909,
                "tempo": 120.0
            },
            {
                "start_time": 115.3590909,
                "end_time": 115.4431818,
                "pitch": 67,
                "velocity": 40,
                "duration": 0.0840909,
                "tempo": 120.0
            },
            {
                "start_time": 115.4590909,
                "end_time": 115.5431818,
                "pitch": 57,
                "velocity": 40,
                "duration": 0.0840909,
                "tempo": 120.0
            },
            {
                "start_time": 115.5613636,
                "end_time": 115.8454545,
                "pitch": 50,
                "velocity": 40,
                "duration": 0.2840909,
                "tempo": 120.0
            },
            {
                "start_time": 115.8636364,
                "end_time": 116.1522727,
                "pitch": 52,
                "velocity": 40,
                "duration": 0.2886364,
                "tempo": 120.0
            },
            {
                "start_time": 116.1681818,
                "end_time": 116.3568182,
                "pitch": 54,
                "velocity": 40,
                "duration": 0.1886364,
                "tempo": 120.0
            },
            {
                "start_time": 116.375,
                "end_time": 116.6522727,
                "pitch": 55,
                "velocity": 40,
                "duration": 0.2772727,
                "tempo": 120.0
            },
            {
                "start_time": 116.6681818,
                "end_time": 116.75,
                "pitch": 54,
                "velocity": 40,
                "duration": 0.0818182,
                "tempo": 120.0
            },
            {
                "start_time": 116.9704545,
                "end_time": 117.0568182,
                "pitch": 66,
                "velocity": 40,
                "duration": 0.0863636,
                "tempo": 120.0
            },
            {
                "start_time": 117.075,
                "end_time": 117.1590909,
                "pitch": 66,
                "velocity": 40,
                "duration": 0.0840909,
                "tempo": 120.0
            }
        ],
        "Clarinet": [
            {
                "start_time": 17.8590909,
                "end_time": 18.0431818,
                "pitch": 72,
                "velocity": 40,
                "duration": 0.1840909,
                "tempo": 120.0
            },
            {
                "start_time": 18.0590909,
                "end_time": 18.2477273,
                "pitch": 72,
                "velocity": 40,
                "duration": 0.1886364,
                "tempo": 120.0
            },
            {
                "start_time": 18.2659091,
                "end_time": 18.4545455,
                "pitch": 72,
                "velocity": 40,
                "duration": 0.1886364,
                "tempo": 120.0
            },
            {
                "start_time": 18.4704545,
                "end_time": 18.65,
                "pitch": 72,
                "velocity": 40,
                "duration": 0.1795455,
                "tempo": 120.0
            },
            {
                "start_time": 18.6659091,
                "end_time": 18.8454545,
                "pitch": 72,
                "velocity": 40,
                "duration": 0.1795455,
                "tempo": 120.0
            },
            {
                "start_time": 18.8636364,
                "end_time": 19.05,
                "pitch": 72,
                "velocity": 40,
                "duration": 0.1863636,
                "tempo": 120.0
            },
            {
                "start_time": 19.0681818,
                "end_time": 20.8613636,
                "pitch": 74,
                "velocity": 40,
                "duration": 1.7931818,
                "tempo": 120.0
            },
            {
                "start_time": 30.7,
                "end_time": 30.8840909,
                "pitch": 72,
                "velocity": 40,
                "duration": 0.1840909,
                "tempo": 120.0
            },
            {
                "start_time": 30.9,
                "end_time": 31.0886364,
                "pitch": 72,
                "velocity": 40,
                "duration": 0.1886364,
                "tempo": 120.0
            },
            {
                "start_time": 31.1068182,
                "end_time": 31.2954545,
                "pitch": 72,
                "velocity": 40,
                "duration": 0.1886364,
                "tempo": 120.0
            },
            {
                "start_time": 31.3113636,
                "end_time": 31.4909091,
                "pitch": 72,
                "velocity": 40,
                "duration": 0.1795455,
                "tempo": 120.0
            },
            {
                "start_time": 31.5068182,
                "end_time": 31.6863636,
                "pitch": 72,
                "velocity": 40,
                "duration": 0.1795455,
                "tempo": 120.0
            },
            {
                "start_time": 31.7045455,
                "end_time": 31.8909091,
                "pitch": 72,
                "velocity": 40,
                "duration": 0.1863636,
                "tempo": 120.0
            },
            {
                "start_time": 31.9090909,
                "end_time": 33.7022727,
                "pitch": 74,
                "velocity": 40,
                "duration": 1.7931818,
                "tempo": 120.0
            },
            {
                "start_time": 34.1227273,
                "end_time": 34.3022727,
                "pitch": 74,
                "velocity": 40,
                "duration": 0.1795455,
                "tempo": 120.0
            },
            {
                "start_time": 34.3181818,
                "end_time": 34.4977273,
                "pitch": 74,
                "velocity": 40,
                "duration": 0.1795455,
                "tempo": 120.0
            },
            {
                "start_time": 34.5159091,
                "end_time": 34.9,
                "pitch": 74,
                "velocity": 40,
                "duration": 0.3840909,
                "tempo": 120.0
            },
            {
                "start_time": 34.9181818,
                "end_time": 35.3,
                "pitch": 74,
                "velocity": 40,
                "duration": 0.3818182,
                "tempo": 120.0
            },
            {
                "start_time": 35.3181818,
                "end_time": 35.7,
                "pitch": 74,
                "velocity": 40,
                "duration": 0.3818182,
                "tempo": 120.0
            },
            {
                "start_time": 35.7181818,
                "end_time": 36.1,
                "pitch": 74,
                "velocity": 40,
                "duration": 0.3818182,
                "tempo": 120.0
            },
            {
                "start_time": 36.1181818,
                "end_time": 36.5,
                "pitch": 71,
                "velocity": 40,
                "duration": 0.3818182,
                "tempo": 120.0
            },
            {
                "start_time": 36.5181818,
                "end_time": 36.7022727,
                "pitch": 74,
                "velocity": 40,
                "duration": 0.1840909,
                "tempo": 120.0
            },
            {
                "start_time": 36.7181818,
                "end_time": 37.7045455,
                "pitch": 67,
                "velocity": 40,
                "duration": 0.9863636,
                "tempo": 120.0
            },
            {
                "start_time": 37.7204545,
                "end_time": 37.9045455,
                "pitch": 71,
                "velocity": 40,
                "duration": 0.1840909,
                "tempo": 120.0
            },
            {
                "start_time": 37.9204545,
                "end_time": 38.1045455,
                "pitch": 71,
                "velocity": 40,
                "duration": 0.1840909,
                "tempo": 120.0
            },
            {
                "start_time": 38.1204545,
                "end_time": 38.3045455,
                "pitch": 69,
                "velocity": 40,
                "duration": 0.1840909,
                "tempo": 120.0
            },
            {
                "start_time": 38.3204545,
                "end_time": 38.5045455,
                "pitch": 71,
                "velocity": 40,
                "duration": 0.1840909,
                "tempo": 120.0
            },
            {
                "start_time": 38.9227273,
                "end_time": 39.1068182,
                "pitch": 66,
                "velocity": 40,
                "duration": 0.1840909,
                "tempo": 120.0
            },
            {
                "start_time": 39.3227273,
                "end_time": 39.5068182,
                "pitch": 66,
                "velocity": 40,
                "duration": 0.1840909,
                "tempo": 120.0
            },
            {
                "start_time": 39.7227273,
                "end_time": 39.9068182,
                "pitch": 69,
                "velocity": 40,
                "duration": 0.1840909,
                "tempo": 120.0
            },
            {
                "start_time": 39.9227273,
                "end_time": 40.1068182,
                "pitch": 71,
                "velocity": 40,
                "duration": 0.1840909,
                "tempo": 120.0
            },
            {
                "start_time": 40.5227273,
                "end_time": 40.9090909,
                "pitch": 74,
                "velocity": 40,
                "duration": 0.3863636,
                "tempo": 120.0
            },
            {
                "start_time": 40.925,
                "end_time": 41.3090909,
                "pitch": 74,
                "velocity": 40,
                "duration": 0.3840909,
                "tempo": 120.0
            },
            {
                "start_time": 41.325,
                "end_time": 41.5090909,
                "pitch": 74,
                "velocity": 40,
                "duration": 0.1840909,
                "tempo": 120.0
            },
            {
                "start_time": 41.525,
                "end_time": 42.1090909,
                "pitch": 71,
                "velocity": 40,
                "duration": 0.5840909,
                "tempo": 120.0
            },
            {
                "start_time": 42.125,
                "end_time": 42.5090909,
                "pitch": 74,
                "velocity": 40,
                "duration": 0.3840909,
                "tempo": 120.0
            },
            {
                "start_time": 42.525,
                "end_time": 42.9113636,
                "pitch": 71,
                "velocity": 40,
                "duration": 0.3863636,
                "tempo": 120.0
            },
            {
                "start_time": 42.9272727,
                "end_time": 43.1113636,
                "pitch": 71,
                "velocity": 40,
                "duration": 0.1840909,
                "tempo": 120.0
            },
            {
                "start_time": 43.1272727,
                "end_time": 44.9136364,
                "pitch": 67,
                "velocity": 40,
                "duration": 1.7863636,
                "tempo": 120.0
            },
            {
                "start_time": 45.3318182,
                "end_time": 45.5136364,
                "pitch": 66,
                "velocity": 40,
                "duration": 0.1818182,
                "tempo": 120.0
            },
            {
                "start_time": 45.7318182,
                "end_time": 45.9136364,
                "pitch": 66,
                "velocity": 40,
                "duration": 0.1818182,
                "tempo": 120.0
            },
            {
                "start_time": 46.1318182,
                "end_time": 46.3181818,
                "pitch": 74,
                "velocity": 40,
                "duration": 0.1863636,
                "tempo": 120.0
            },
            {
                "start_time": 46.3363636,
                "end_time": 46.525,
                "pitch": 74,
                "velocity": 40,
                "duration": 0.1886364,
                "tempo": 120.0
            },
            {
                "start_time": 59.3681818,
                "end_time": 59.75,
                "pitch": 76,
                "velocity": 40,
                "duration": 0.3818182,
                "tempo": 120.0
            },
            {
                "start_time": 59.7681818,
                "end_time": 59.8522727,
                "pitch": 76,
                "velocity": 40,
                "duration": 0.0840909,
                "tempo": 120.0
            },
            {
                "start_time": 59.9681818,
                "end_time": 60.35,
                "pitch": 76,
                "velocity": 40,
                "duration": 0.3818182,
                "tempo": 120.0
            },
            {
                "start_time": 60.3659091,
                "end_time": 60.5454545,
                "pitch": 76,
                "velocity": 40,
                "duration": 0.1795455,
                "tempo": 120.0
            },
            {
                "start_time": 60.5613636,
                "end_time": 60.75,
                "pitch": 73,
                "velocity": 40,
                "duration": 0.1886364,
                "tempo": 120.0
            },
            {
                "start_time": 60.7681818,
                "end_time": 60.9545455,
                "pitch": 69,
                "velocity": 40,
                "duration": 0.1863636,
                "tempo": 120.0
            },
            {
                "start_time": 60.9727273,
                "end_time": 61.3477273,
                "pitch": 76,
                "velocity": 40,
                "duration": 0.375,
                "tempo": 120.0
            },
            {
                "start_time": 61.3636364,
                "end_time": 61.45,
                "pitch": 76,
                "velocity": 40,
                "duration": 0.0863636,
                "tempo": 120.0
            },
            {
                "start_time": 61.5704545,
                "end_time": 61.9545455,
                "pitch": 76,
                "velocity": 40,
                "duration": 0.3840909,
                "tempo": 120.0
            },
            {
                "start_time": 61.9704545,
                "end_time": 62.15,
                "pitch": 76,
                "velocity": 40,
                "duration": 0.1795455,
                "tempo": 120.0
            },
            {
                "start_time": 62.1681818,
                "end_time": 62.3545455,
                "pitch": 76,
                "velocity": 40,
                "duration": 0.1863636,
                "tempo": 120.0
            },
            {
                "start_time": 62.3727273,
                "end_time": 62.5613636,
                "pitch": 76,
                "velocity": 40,
                "duration": 0.1886364,
                "tempo": 120.0
            },
            {
                "start_time": 62.5772727,
                "end_time": 62.9545455,
                "pitch": 74,
                "velocity": 40,
                "duration": 0.3772727,
                "tempo": 120.0
            },
            {
                "start_time": 62.9704545,
                "end_time": 63.0545455,
                "pitch": 74,
                "velocity": 40,
                "duration": 0.0840909,
                "tempo": 120.0
            },
            {
                "start_time": 63.175,
                "end_time": 63.5590909,
                "pitch": 74,
                "velocity": 40,
                "duration": 0.3840909,
                "tempo": 120.0
            },
            {
                "start_time": 63.5772727,
                "end_time": 63.7568182,
                "pitch": 74,
                "velocity": 40,
                "duration": 0.1795455,
                "tempo": 120.0
            },
            {
                "start_time": 63.7727273,
                "end_time": 63.9613636,
                "pitch": 74,
                "velocity": 40,
                "duration": 0.1886364,
                "tempo": 120.0
            },
            {
                "start_time": 63.9772727,
                "end_time": 64.1659091,
                "pitch": 73,
                "velocity": 40,
                "duration": 0.1886364,
                "tempo": 120.0
            },
            {
                "start_time": 64.1840909,
                "end_time": 64.4613636,
                "pitch": 74,
                "velocity": 40,
                "duration": 0.2772727,
                "tempo": 120.0
            },
            {
                "start_time": 64.4772727,
                "end_time": 64.7590909,
                "pitch": 74,
                "velocity": 40,
                "duration": 0.2818182,
                "tempo": 120.0
            },
            {
                "start_time": 64.775,
                "end_time": 65.7727273,
                "pitch": 78,
                "velocity": 40,
                "duration": 0.9977273,
                "tempo": 120.0
            },
            {
                "start_time": 88.4659091,
                "end_time": 88.6454545,
                "pitch": 72,
                "velocity": 40,
                "duration": 0.1795455,
                "tempo": 120.0
            },
            {
                "start_time": 88.6636364,
                "end_time": 88.85,
                "pitch": 72,
                "velocity": 40,
                "duration": 0.1863636,
                "tempo": 120.0
            },
            {
                "start_time": 88.8681818,
                "end_time": 89.0568182,
                "pitch": 72,
                "velocity": 40,
                "duration": 0.1886364,
                "tempo": 120.0
            },
            {
                "start_time": 89.0727273,
                "end_time": 89.2522727,
                "pitch": 72,
                "velocity": 40,
                "duration": 0.1795455,
                "tempo": 120.0
            },
            {
                "start_time": 89.2704545,
                "end_time": 89.45,
                "pitch": 72,
                "velocity": 40,
                "duration": 0.1795455,
                "tempo": 120.0
            },
            {
                "start_time": 89.4659091,
                "end_time": 89.6545455,
                "pitch": 72,
                "velocity": 40,
                "duration": 0.1886364,
                "tempo": 120.0
            },
            {
                "start_time": 89.6704545,
                "end_time": 91.4636364,
                "pitch": 74,
                "velocity": 40,
                "duration": 1.7931818,
                "tempo": 120.0
            },
            {
                "start_time": 91.6818182,
                "end_time": 91.8659091,
                "pitch": 78,
                "velocity": 40,
                "duration": 0.1840909,
                "tempo": 120.0
            },
            {
                "start_time": 91.8818182,
                "end_time": 92.0613636,
                "pitch": 78,
                "velocity": 40,
                "duration": 0.1795455,
                "tempo": 120.0
            },
            {
                "start_time": 92.0772727,
                "end_time": 92.2568182,
                "pitch": 78,
                "velocity": 40,
                "duration": 0.1795455,
                "tempo": 120.0
            },
            {
                "start_time": 92.275,
                "end_time": 92.5590909,
                "pitch": 78,
                "velocity": 40,
                "duration": 0.2840909,
                "tempo": 120.0
            },
            {
                "start_time": 92.575,
                "end_time": 92.6590909,
                "pitch": 78,
                "velocity": 40,
                "duration": 0.0840909,
                "tempo": 120.0
            },
            {
                "start_time": 92.6772727,
                "end_time": 92.7613636,
                "pitch": 79,
                "velocity": 40,
                "duration": 0.0840909,
                "tempo": 120.0
            },
            {
                "start_time": 92.7795455,
                "end_time": 92.8659091,
                "pitch": 81,
                "velocity": 40,
                "duration": 0.0863636,
                "tempo": 120.0
            },
            {
                "start_time": 92.8818182,
                "end_time": 92.9681818,
                "pitch": 79,
                "velocity": 40,
                "duration": 0.0863636,
                "tempo": 120.0
            },
            {
                "start_time": 92.9840909,
                "end_time": 93.0704545,
                "pitch": 78,
                "velocity": 40,
                "duration": 0.0863636,
                "tempo": 120.0
            },
            {
                "start_time": 93.0863636,
                "end_time": 93.6636364,
                "pitch": 81,
                "velocity": 40,
                "duration": 0.5772727,
                "tempo": 120.0
            },
            {
                "start_time": 93.6818182,
                "end_time": 93.8659091,
                "pitch": 79,
                "velocity": 40,
                "duration": 0.1840909,
                "tempo": 120.0
            },
            {
                "start_time": 93.8818182,
                "end_time": 94.2659091,
                "pitch": 78,
                "velocity": 40,
                "duration": 0.3840909,
                "tempo": 120.0
            },
            {
                "start_time": 94.2818182,
                "end_time": 94.675,
                "pitch": 76,
                "velocity": 40,
                "duration": 0.3931818,
                "tempo": 120.0
            },
            {
                "start_time": 94.8886364,
                "end_time": 95.0681818,
                "pitch": 74,
                "velocity": 40,
                "duration": 0.1795455,
                "tempo": 120.0
            },
            {
                "start_time": 95.0840909,
                "end_time": 95.2727273,
                "pitch": 74,
                "velocity": 40,
                "duration": 0.1886364,
                "tempo": 120.0
            },
            {
                "start_time": 95.2909091,
                "end_time": 95.4795455,
                "pitch": 74,
                "velocity": 40,
                "duration": 0.1886364,
                "tempo": 120.0
            },
            {
                "start_time": 95.4954545,
                "end_time": 95.7727273,
                "pitch": 74,
                "velocity": 40,
                "duration": 0.2772727,
                "tempo": 120.0
            },
            {
                "start_time": 95.7886364,
                "end_time": 95.8704545,
                "pitch": 74,
                "velocity": 40,
                "duration": 0.0818182,
                "tempo": 120.0
            },
            {
                "start_time": 95.8886364,
                "end_time": 95.9727273,
                "pitch": 79,
                "velocity": 40,
                "duration": 0.0840909,
                "tempo": 120.0
            },
            {
                "start_time": 95.9909091,
                "end_time": 96.075,
                "pitch": 78,
                "velocity": 40,
                "duration": 0.0840909,
                "tempo": 120.0
            },
            {
                "start_time": 96.0931818,
                "end_time": 96.1795455,
                "pitch": 76,
                "velocity": 40,
                "duration": 0.0863636,
                "tempo": 120.0
            },
            {
                "start_time": 96.1954545,
                "end_time": 96.2818182,
                "pitch": 74,
                "velocity": 40,
                "duration": 0.0863636,
                "tempo": 120.0
            },
            {
                "start_time": 96.2977273,
                "end_time": 96.8727273,
                "pitch": 78,
                "velocity": 40,
                "duration": 0.575,
                "tempo": 120.0
            },
            {
                "start_time": 96.8909091,
                "end_time": 97.0727273,
                "pitch": 79,
                "velocity": 40,
                "duration": 0.1818182,
                "tempo": 120.0
            },
            {
                "start_time": 97.0909091,
                "end_time": 97.4772727,
                "pitch": 76,
                "velocity": 40,
                "duration": 0.3863636,
                "tempo": 120.0
            },
            {
                "start_time": 97.4931818,
                "end_time": 97.8863636,
                "pitch": 74,
                "velocity": 40,
                "duration": 0.3931818,
                "tempo": 120.0
            },
            {
                "start_time": 97.9045455,
                "end_time": 97.9863636,
                "pitch": 79,
                "velocity": 40,
                "duration": 0.0818182,
                "tempo": 120.0
            },
            {
                "start_time": 98.0022727,
                "end_time": 98.0840909,
                "pitch": 78,
                "velocity": 40,
                "duration": 0.0818182,
                "tempo": 120.0
            },
            {
                "start_time": 98.1,
                "end_time": 98.1818182,
                "pitch": 76,
                "velocity": 40,
                "duration": 0.0818182,
                "tempo": 120.0
            },
            {
                "start_time": 98.1977273,
                "end_time": 98.2795455,
                "pitch": 78,
                "velocity": 40,
                "duration": 0.0818182,
                "tempo": 120.0
            },
            {
                "start_time": 98.2954545,
                "end_time": 98.3818182,
                "pitch": 81,
                "velocity": 40,
                "duration": 0.0863636,
                "tempo": 120.0
            },
            {
                "start_time": 98.3977273,
                "end_time": 98.4840909,
                "pitch": 78,
                "velocity": 40,
                "duration": 0.0863636,
                "tempo": 120.0
            },
            {
                "start_time": 98.5,
                "end_time": 98.5863636,
                "pitch": 76,
                "velocity": 40,
                "duration": 0.0863636,
                "tempo": 120.0
            },
            {
                "start_time": 98.6045455,
                "end_time": 98.6886364,
                "pitch": 78,
                "velocity": 40,
                "duration": 0.0840909,
                "tempo": 120.0
            },
            {
                "start_time": 98.7068182,
                "end_time": 98.7886364,
                "pitch": 79,
                "velocity": 40,
                "duration": 0.0818182,
                "tempo": 120.0
            },
            {
                "start_time": 98.8045455,
                "end_time": 98.8863636,
                "pitch": 78,
                "velocity": 40,
                "duration": 0.0818182,
                "tempo": 120.0
            },
            {
                "start_time": 98.9022727,
                "end_time": 98.9840909,
                "pitch": 76,
                "velocity": 40,
                "duration": 0.0818182,
                "tempo": 120.0
            },
            {
                "start_time": 99.0,
                "end_time": 99.0818182,
                "pitch": 78,
                "velocity": 40,
                "duration": 0.0818182,
                "tempo": 120.0
            },
            {
                "start_time": 99.0977273,
                "end_time": 99.2863636,
                "pitch": 79,
                "velocity": 40,
                "duration": 0.1886364,
                "tempo": 120.0
            },
            {
                "start_time": 99.3045455,
                "end_time": 99.4931818,
                "pitch": 81,
                "velocity": 40,
                "duration": 0.1886364,
                "tempo": 120.0
            },
            {
                "start_time": 99.5090909,
                "end_time": 99.5909091,
                "pitch": 81,
                "velocity": 40,
                "duration": 0.0818182,
                "tempo": 120.0
            },
            {
                "start_time": 99.6068182,
                "end_time": 99.6886364,
                "pitch": 79,
                "velocity": 40,
                "duration": 0.0818182,
                "tempo": 120.0
            },
            {
                "start_time": 99.7045455,
                "end_time": 99.7863636,
                "pitch": 78,
                "velocity": 40,
                "duration": 0.0818182,
                "tempo": 120.0
            },
            {
                "start_time": 99.8022727,
                "end_time": 99.8840909,
                "pitch": 79,
                "velocity": 40,
                "duration": 0.0818182,
                "tempo": 120.0
            },
            {
                "start_time": 99.9022727,
                "end_time": 99.9863636,
                "pitch": 81,
                "velocity": 40,
                "duration": 0.0840909,
                "tempo": 120.0
            },
            {
                "start_time": 100.0045455,
                "end_time": 100.0886364,
                "pitch": 79,
                "velocity": 40,
                "duration": 0.0840909,
                "tempo": 120.0
            },
            {
                "start_time": 100.1068182,
                "end_time": 100.1909091,
                "pitch": 78,
                "velocity": 40,
                "duration": 0.0840909,
                "tempo": 120.0
            },
            {
                "start_time": 100.2090909,
                "end_time": 100.2954545,
                "pitch": 79,
                "velocity": 40,
                "duration": 0.0863636,
                "tempo": 120.0
            },
            {
                "start_time": 100.3113636,
                "end_time": 100.3931818,
                "pitch": 81,
                "velocity": 40,
                "duration": 0.0818182,
                "tempo": 120.0
            },
            {
                "start_time": 100.4090909,
                "end_time": 100.4909091,
                "pitch": 79,
                "velocity": 40,
                "duration": 0.0818182,
                "tempo": 120.0
            },
            {
                "start_time": 100.5068182,
                "end_time": 100.5886364,
                "pitch": 78,
                "velocity": 40,
                "duration": 0.0818182,
                "tempo": 120.0
            },
            {
                "start_time": 100.6068182,
                "end_time": 100.6863636,
                "pitch": 79,
                "velocity": 40,
                "duration": 0.0795455,
                "tempo": 120.0
            },
            {
                "start_time": 100.7045455,
                "end_time": 100.8909091,
                "pitch": 81,
                "velocity": 40,
                "duration": 0.1863636,
                "tempo": 120.0
            },
            {
                "start_time": 100.9090909,
                "end_time": 101.0977273,
                "pitch": 83,
                "velocity": 40,
                "duration": 0.1886364,
                "tempo": 120.0
            },
            {
                "start_time": 101.3113636,
                "end_time": 101.4909091,
                "pitch": 81,
                "velocity": 40,
                "duration": 0.1795455,
                "tempo": 120.0
            },
            {
                "start_time": 101.5068182,
                "end_time": 101.6954545,
                "pitch": 79,
                "velocity": 40,
                "duration": 0.1886364,
                "tempo": 120.0
            },
            {
                "start_time": 101.7113636,
                "end_time": 101.9,
                "pitch": 78,
                "velocity": 40,
                "duration": 0.1886364,
                "tempo": 120.0
            },
            {
                "start_time": 101.9159091,
                "end_time": 102.0977273,
                "pitch": 79,
                "velocity": 40,
                "duration": 0.1818182,
                "tempo": 120.0
            },
            {
                "start_time": 102.1136364,
                "end_time": 102.2931818,
                "pitch": 78,
                "velocity": 40,
                "duration": 0.1795455,
                "tempo": 120.0
            },
            {
                "start_time": 102.3090909,
                "end_time": 102.4931818,
                "pitch": 79,
                "velocity": 40,
                "duration": 0.1840909,
                "tempo": 120.0
            },
            {
                "start_time": 102.5113636,
                "end_time": 104.3113636,
                "pitch": 81,
                "velocity": 40,
                "duration": 1.8,
                "tempo": 120.0
            },
            {
                "start_time": 127.0113636,
                "end_time": 127.1909091,
                "pitch": 72,
                "velocity": 40,
                "duration": 0.1795455,
                "tempo": 120.0
            },
            {
                "start_time": 127.2068182,
                "end_time": 127.3954545,
                "pitch": 72,
                "velocity": 40,
                "duration": 0.1886364,
                "tempo": 120.0
            },
            {
                "start_time": 127.4136364,
                "end_time": 127.6,
                "pitch": 72,
                "velocity": 40,
                "duration": 0.1863636,
                "tempo": 120.0
            },
            {
                "start_time": 127.6181818,
                "end_time": 127.7977273,
                "pitch": 72,
                "velocity": 40,
                "duration": 0.1795455,
                "tempo": 120.0
            },
            {
                "start_time": 127.8136364,
                "end_time": 127.9931818,
                "pitch": 72,
                "velocity": 40,
                "duration": 0.1795455,
                "tempo": 120.0
            },
            {
                "start_time": 128.0090909,
                "end_time": 128.1977273,
                "pitch": 72,
                "velocity": 40,
                "duration": 0.1886364,
                "tempo": 120.0
            },
            {
                "start_time": 128.2159091,
                "end_time": 130.0090909,
                "pitch": 74,
                "velocity": 40,
                "duration": 1.7931818,
                "tempo": 120.0
            },
            {
                "start_time": 139.8681818,
                "end_time": 140.0477273,
                "pitch": 72,
                "velocity": 40,
                "duration": 0.1795455,
                "tempo": 120.0
            },
            {
                "start_time": 140.0636364,
                "end_time": 140.2522727,
                "pitch": 72,
                "velocity": 40,
                "duration": 0.1886364,
                "tempo": 120.0
            },
            {
                "start_time": 140.2704545,
                "end_time": 140.4568182,
                "pitch": 72,
                "velocity": 40,
                "duration": 0.1863636,
                "tempo": 120.0
            },
            {
                "start_time": 140.475,
                "end_time": 140.6545455,
                "pitch": 72,
                "velocity": 40,
                "duration": 0.1795455,
                "tempo": 120.0
            },
            {
                "start_time": 140.6704545,
                "end_time": 140.85,
                "pitch": 72,
                "velocity": 40,
                "duration": 0.1795455,
                "tempo": 120.0
            },
            {
                "start_time": 140.8681818,
                "end_time": 141.0545455,
                "pitch": 72,
                "velocity": 40,
                "duration": 0.1863636,
                "tempo": 120.0
            },
            {
                "start_time": 141.0727273,
                "end_time": 142.8681818,
                "pitch": 74,
                "velocity": 40,
                "duration": 1.7954545,
                "tempo": 120.0
            }
        ],
        "Acoustic Bass": [
            {
                "start_time": 0.7863636,
                "end_time": 0.9704545,
                "pitch": 33,
                "velocity": 40,
                "duration": 0.1840909,
                "tempo": 120.0
            },
            {
                "start_time": 0.9863636,
                "end_time": 1.1704545,
                "pitch": 38,
                "velocity": 40,
                "duration": 0.1840909,
                "tempo": 120.0
            },
            {
                "start_time": 1.1863636,
                "end_time": 1.3704545,
                "pitch": 31,
                "velocity": 40,
                "duration": 0.1840909,
                "tempo": 120.0
            },
            {
                "start_time": 1.3863636,
                "end_time": 1.5704545,
                "pitch": 38,
                "velocity": 40,
                "duration": 0.1840909,
                "tempo": 120.0
            },
            {
                "start_time": 1.5863636,
                "end_time": 1.7704545,
                "pitch": 38,
                "velocity": 40,
                "duration": 0.1840909,
                "tempo": 120.0
            },
            {
                "start_time": 1.7886364,
                "end_time": 1.9727273,
                "pitch": 38,
                "velocity": 40,
                "duration": 0.1840909,
                "tempo": 120.0
            },
            {
                "start_time": 1.9886364,
                "end_time": 2.1772727,
                "pitch": 38,
                "velocity": 40,
                "duration": 0.1886364,
                "tempo": 120.0
            },
            {
                "start_time": 2.1931818,
                "end_time": 2.3818182,
                "pitch": 33,
                "velocity": 40,
                "duration": 0.1886364,
                "tempo": 120.0
            },
            {
                "start_time": 2.4,
                "end_time": 2.975,
                "pitch": 33,
                "velocity": 40,
                "duration": 0.575,
                "tempo": 120.0
            },
            {
                "start_time": 2.9909091,
                "end_time": 3.175,
                "pitch": 33,
                "velocity": 40,
                "duration": 0.1840909,
                "tempo": 120.0
            },
            {
                "start_time": 3.1909091,
                "end_time": 3.3772727,
                "pitch": 31,
                "velocity": 40,
                "duration": 0.1863636,
                "tempo": 120.0
            },
            {
                "start_time": 3.3931818,
                "end_time": 3.5772727,
                "pitch": 31,
                "velocity": 40,
                "duration": 0.1840909,
                "tempo": 120.0
            },
            {
                "start_time": 3.5954545,
                "end_time": 3.7818182,
                "pitch": 31,
                "velocity": 40,
                "duration": 0.1863636,
                "tempo": 120.0
            },
            {
                "start_time": 3.8,
                "end_time": 3.9886364,
                "pitch": 33,
                "velocity": 40,
                "duration": 0.1886364,
                "tempo": 120.0
            },
            {
                "start_time": 4.0045455,
                "end_time": 4.5818182,
                "pitch": 33,
                "velocity": 40,
                "duration": 0.5772727,
                "tempo": 120.0
            },
            {
                "start_time": 4.5977273,
                "end_time": 4.7818182,
                "pitch": 33,
                "velocity": 40,
                "duration": 0.1840909,
                "tempo": 120.0
            },
            {
                "start_time": 4.7977273,
                "end_time": 5.1840909,
                "pitch": 31,
                "velocity": 40,
                "duration": 0.3863636,
                "tempo": 120.0
            },
            {
                "start_time": 5.2,
                "end_time": 5.5840909,
                "pitch": 33,
                "velocity": 40,
                "duration": 0.3840909,
                "tempo": 120.0
            },
            {
                "start_time": 5.6,
                "end_time": 5.9863636,
                "pitch": 36,
                "velocity": 40,
                "duration": 0.3863636,
                "tempo": 120.0
            },
            {
                "start_time": 6.0022727,
                "end_time": 6.3954545,
                "pitch": 31,
                "velocity": 40,
                "duration": 0.3931818,
                "tempo": 120.0
            },
            {
                "start_time": 6.4136364,
                "end_time": 6.7886364,
                "pitch": 38,
                "velocity": 40,
                "duration": 0.375,
                "tempo": 120.0
            },
            {
                "start_time": 6.8045455,
                "end_time": 7.2,
                "pitch": 38,
                "velocity": 40,
                "duration": 0.3954545,
                "tempo": 120.0
            },
            {
                "start_time": 7.2159091,
                "end_time": 7.5909091,
                "pitch": 31,
                "velocity": 40,
                "duration": 0.375,
                "tempo": 120.0
            },
            {
                "start_time": 7.6090909,
                "end_time": 7.9931818,
                "pitch": 33,
                "velocity": 40,
                "duration": 0.3840909,
                "tempo": 120.0
            },
            {
                "start_time": 8.0113636,
                "end_time": 8.1954545,
                "pitch": 38,
                "velocity": 40,
                "duration": 0.1840909,
                "tempo": 120.0
            },
            {
                "start_time": 8.2113636,
                "end_time": 8.3977273,
                "pitch": 38,
                "velocity": 40,
                "duration": 0.1863636,
                "tempo": 120.0
            },
            {
                "start_time": 8.4136364,
                "end_time": 8.6022727,
                "pitch": 38,
                "velocity": 40,
                "duration": 0.1886364,
                "tempo": 120.0
            },
            {
                "start_time": 8.6181818,
                "end_time": 9.0045455,
                "pitch": 38,
                "velocity": 40,
                "duration": 0.3863636,
                "tempo": 120.0
            },
            {
                "start_time": 9.0204545,
                "end_time": 9.2,
                "pitch": 38,
                "velocity": 40,
                "duration": 0.1795455,
                "tempo": 120.0
            },
            {
                "start_time": 9.2159091,
                "end_time": 9.4022727,
                "pitch": 38,
                "velocity": 40,
                "duration": 0.1863636,
                "tempo": 120.0
            },
            {
                "start_time": 9.4181818,
                "end_time": 9.6022727,
                "pitch": 38,
                "velocity": 40,
                "duration": 0.1840909,
                "tempo": 120.0
            },
            {
                "start_time": 9.6181818,
                "end_time": 10.2068182,
                "pitch": 35,
                "velocity": 40,
                "duration": 0.5886364,
                "tempo": 120.0
            },
            {
                "start_time": 10.2227273,
                "end_time": 10.4068182,
                "pitch": 35,
                "velocity": 40,
                "duration": 0.1840909,
                "tempo": 120.0
            },
            {
                "start_time": 10.425,
                "end_time": 10.8113636,
                "pitch": 35,
                "velocity": 40,
                "duration": 0.3863636,
                "tempo": 120.0
            },
            {
                "start_time": 10.8272727,
                "end_time": 11.2113636,
                "pitch": 37,
                "velocity": 40,
                "duration": 0.3840909,
                "tempo": 120.0
            },
            {
                "start_time": 11.2272727,
                "end_time": 11.4113636,
                "pitch": 35,
                "velocity": 40,
                "duration": 0.1840909,
                "tempo": 120.0
            },
            {
                "start_time": 11.4295455,
                "end_time": 11.6136364,
                "pitch": 35,
                "velocity": 40,
                "duration": 0.1840909,
                "tempo": 120.0
            },
            {
                "start_time": 11.6295455,
                "end_time": 11.8136364,
                "pitch": 35,
                "velocity": 40,
                "duration": 0.1840909,
                "tempo": 120.0
            },
            {
                "start_time": 11.8318182,
                "end_time": 12.2181818,
                "pitch": 35,
                "velocity": 40,
                "duration": 0.3863636,
                "tempo": 120.0
            },
            {
                "start_time": 12.2340909,
                "end_time": 12.4181818,
                "pitch": 35,
                "velocity": 40,
                "duration": 0.1840909,
                "tempo": 120.0
            },
            {
                "start_time": 12.4363636,
                "end_time": 12.6204545,
                "pitch": 35,
                "velocity": 40,
                "duration": 0.1840909,
                "tempo": 120.0
            },
            {
                "start_time": 12.6363636,
                "end_time": 12.8204545,
                "pitch": 35,
                "velocity": 40,
                "duration": 0.1840909,
                "tempo": 120.0
            },
            {
                "start_time": 12.8386364,
                "end_time": 13.4227273,
                "pitch": 35,
                "velocity": 40,
                "duration": 0.5840909,
                "tempo": 120.0
            },
            {
                "start_time": 13.4386364,
                "end_time": 13.625,
                "pitch": 35,
                "velocity": 40,
                "duration": 0.1863636,
                "tempo": 120.0
            },
            {
                "start_time": 13.6409091,
                "end_time": 14.0272727,
                "pitch": 37,
                "velocity": 40,
                "duration": 0.3863636,
                "tempo": 120.0
            },
            {
                "start_time": 14.0431818,
                "end_time": 14.4295455,
                "pitch": 38,
                "velocity": 40,
                "duration": 0.3863636,
                "tempo": 120.0
            },
            {
                "start_time": 14.4454545,
                "end_time": 14.6318182,
                "pitch": 31,
                "velocity": 40,
                "duration": 0.1863636,
                "tempo": 120.0
            },
            {
                "start_time": 14.6477273,
                "end_time": 14.8318182,
                "pitch": 31,
                "velocity": 40,
                "duration": 0.1840909,
                "tempo": 120.0
            },
            {
                "start_time": 14.8477273,
                "end_time": 15.0318182,
                "pitch": 31,
                "velocity": 40,
                "duration": 0.1840909,
                "tempo": 120.0
            },
            {
                "start_time": 15.0477273,
                "end_time": 15.4340909,
                "pitch": 31,
                "velocity": 40,
                "duration": 0.3863636,
                "tempo": 120.0
            },
            {
                "start_time": 15.45,
                "end_time": 15.6340909,
                "pitch": 31,
                "velocity": 40,
                "duration": 0.1840909,
                "tempo": 120.0
            },
            {
                "start_time": 15.6522727,
                "end_time": 15.8363636,
                "pitch": 31,
                "velocity": 40,
                "duration": 0.1840909,
                "tempo": 120.0
            },
            {
                "start_time": 15.8522727,
                "end_time": 16.0363636,
                "pitch": 31,
                "velocity": 40,
                "duration": 0.1840909,
                "tempo": 120.0
            },
            {
                "start_time": 16.0545455,
                "end_time": 16.2386364,
                "pitch": 33,
                "velocity": 40,
                "duration": 0.1840909,
                "tempo": 120.0
            },
            {
                "start_time": 16.2545455,
                "end_time": 16.4409091,
                "pitch": 33,
                "velocity": 40,
                "duration": 0.1863636,
                "tempo": 120.0
            },
            {
                "start_time": 16.4568182,
                "end_time": 16.6454545,
                "pitch": 33,
                "velocity": 40,
                "duration": 0.1886364,
                "tempo": 120.0
            },
            {
                "start_time": 16.6613636,
                "end_time": 17.0477273,
                "pitch": 33,
                "velocity": 40,
                "duration": 0.3863636,
                "tempo": 120.0
            },
            {
                "start_time": 17.0636364,
                "end_time": 17.2431818,
                "pitch": 33,
                "velocity": 40,
                "duration": 0.1795455,
                "tempo": 120.0
            },
            {
                "start_time": 17.2590909,
                "end_time": 17.4431818,
                "pitch": 33,
                "velocity": 40,
                "duration": 0.1840909,
                "tempo": 120.0
            },
            {
                "start_time": 17.4590909,
                "end_time": 17.6431818,
                "pitch": 35,
                "velocity": 40,
                "duration": 0.1840909,
                "tempo": 120.0
            },
            {
                "start_time": 17.6590909,
                "end_time": 17.8431818,
                "pitch": 36,
                "velocity": 40,
                "duration": 0.1840909,
                "tempo": 120.0
            },
            {
                "start_time": 17.8590909,
                "end_time": 18.0431818,
                "pitch": 36,
                "velocity": 40,
                "duration": 0.1840909,
                "tempo": 120.0
            },
            {
                "start_time": 18.0590909,
                "end_time": 18.2477273,
                "pitch": 36,
                "velocity": 40,
                "duration": 0.1886364,
                "tempo": 120.0
            },
            {
                "start_time": 18.2659091,
                "end_time": 18.65,
                "pitch": 36,
                "velocity": 40,
                "duration": 0.3840909,
                "tempo": 120.0
            },
            {
                "start_time": 18.6659091,
                "end_time": 18.8454545,
                "pitch": 36,
                "velocity": 40,
                "duration": 0.1795455,
                "tempo": 120.0
            },
            {
                "start_time": 18.8636364,
                "end_time": 19.05,
                "pitch": 35,
                "velocity": 40,
                "duration": 0.1863636,
                "tempo": 120.0
            },
            {
                "start_time": 19.0681818,
                "end_time": 19.2568182,
                "pitch": 36,
                "velocity": 40,
                "duration": 0.1886364,
                "tempo": 120.0
            },
            {
                "start_time": 19.4681818,
                "end_time": 19.6477273,
                "pitch": 38,
                "velocity": 40,
                "duration": 0.1795455,
                "tempo": 120.0
            },
            {
                "start_time": 19.8659091,
                "end_time": 20.0477273,
                "pitch": 37,
                "velocity": 40,
                "duration": 0.1818182,
                "tempo": 120.0
            },
            {
                "start_time": 20.0659091,
                "end_time": 20.25,
                "pitch": 38,
                "velocity": 40,
                "duration": 0.1840909,
                "tempo": 120.0
            },
            {
                "start_time": 20.2659091,
                "end_time": 20.4522727,
                "pitch": 40,
                "velocity": 40,
                "duration": 0.1863636,
                "tempo": 120.0
            },
            {
                "start_time": 20.4681818,
                "end_time": 20.6568182,
                "pitch": 42,
                "velocity": 40,
                "duration": 0.1886364,
                "tempo": 120.0
            },
            {
                "start_time": 20.6727273,
                "end_time": 20.8613636,
                "pitch": 42,
                "velocity": 40,
                "duration": 0.1886364,
                "tempo": 120.0
            },
            {
                "start_time": 20.8795455,
                "end_time": 21.0613636,
                "pitch": 38,
                "velocity": 40,
                "duration": 0.1818182,
                "tempo": 120.0
            },
            {
                "start_time": 21.0795455,
                "end_time": 21.2613636,
                "pitch": 38,
                "velocity": 40,
                "duration": 0.1818182,
                "tempo": 120.0
            },
            {
                "start_time": 21.2795455,
                "end_time": 21.4636364,
                "pitch": 38,
                "velocity": 40,
                "duration": 0.1840909,
                "tempo": 120.0
            },
            {
                "start_time": 21.4795455,
                "end_time": 21.8613636,
                "pitch": 38,
                "velocity": 40,
                "duration": 0.3818182,
                "tempo": 120.0
            },
            {
                "start_time": 21.8772727,
                "end_time": 22.0568182,
                "pitch": 38,
                "velocity": 40,
                "duration": 0.1795455,
                "tempo": 120.0
            },
            {
                "start_time": 22.0727273,
                "end_time": 22.2613636,
                "pitch": 38,
                "velocity": 40,
                "duration": 0.1886364,
                "tempo": 120.0
            },
            {
                "start_time": 22.2795455,
                "end_time": 22.4681818,
                "pitch": 38,
                "velocity": 40,
                "duration": 0.1886364,
                "tempo": 120.0
            },
            {
                "start_time": 22.4840909,
                "end_time": 23.0613636,
                "pitch": 35,
                "velocity": 40,
                "duration": 0.5772727,
                "tempo": 120.0
            },
            {
                "start_time": 23.0772727,
                "end_time": 23.2613636,
                "pitch": 35,
                "velocity": 40,
                "duration": 0.1840909,
                "tempo": 120.0
            },
            {
                "start_time": 23.2795455,
                "end_time": 23.6613636,
                "pitch": 35,
                "velocity": 40,
                "duration": 0.3818182,
                "tempo": 120.0
            },
            {
                "start_time": 23.6795455,
                "end_time": 24.0613636,
                "pitch": 37,
                "velocity": 40,
                "duration": 0.3818182,
                "tempo": 120.0
            },
            {
                "start_time": 24.0795455,
                "end_time": 24.2636364,
                "pitch": 35,
                "velocity": 40,
                "duration": 0.1840909,
                "tempo": 120.0
            },
            {
                "start_time": 24.2795455,
                "end_time": 24.4659091,
                "pitch": 35,
                "velocity": 40,
                "duration": 0.1863636,
                "tempo": 120.0
            },
            {
                "start_time": 24.4818182,
                "end_time": 24.6659091,
                "pitch": 35,
                "velocity": 40,
                "duration": 0.1840909,
                "tempo": 120.0
            },
            {
                "start_time": 24.6818182,
                "end_time": 25.0659091,
                "pitch": 35,
                "velocity": 40,
                "duration": 0.3840909,
                "tempo": 120.0
            },
            {
                "start_time": 25.0840909,
                "end_time": 25.2681818,
                "pitch": 35,
                "velocity": 40,
                "duration": 0.1840909,
                "tempo": 120.0
            },
            {
                "start_time": 25.2840909,
                "end_time": 25.4727273,
                "pitch": 35,
                "velocity": 40,
                "duration": 0.1886364,
                "tempo": 120.0
            },
            {
                "start_time": 25.4909091,
                "end_time": 25.6772727,
                "pitch": 35,
                "velocity": 40,
                "duration": 0.1863636,
                "tempo": 120.0
            },
            {
                "start_time": 25.6954545,
                "end_time": 26.275,
                "pitch": 35,
                "velocity": 40,
                "duration": 0.5795455,
                "tempo": 120.0
            },
            {
                "start_time": 26.2931818,
                "end_time": 26.4818182,
                "pitch": 35,
                "velocity": 40,
                "duration": 0.1886364,
                "tempo": 120.0
            },
            {
                "start_time": 26.4977273,
                "end_time": 26.8727273,
                "pitch": 37,
                "velocity": 40,
                "duration": 0.375,
                "tempo": 120.0
            },
            {
                "start_time": 26.8909091,
                "end_time": 27.275,
                "pitch": 38,
                "velocity": 40,
                "duration": 0.3840909,
                "tempo": 120.0
            },
            {
                "start_time": 27.2931818,
                "end_time": 27.475,
                "pitch": 31,
                "velocity": 40,
                "duration": 0.1818182,
                "tempo": 120.0
            },
            {
                "start_time": 27.4931818,
                "end_time": 27.675,
                "pitch": 31,
                "velocity": 40,
                "duration": 0.1818182,
                "tempo": 120.0
            },
            {
                "start_time": 27.6931818,
                "end_time": 27.875,
                "pitch": 31,
                "velocity": 40,
                "duration": 0.1818182,
                "tempo": 120.0
            },
            {
                "start_time": 27.8931818,
                "end_time": 28.2772727,
                "pitch": 31,
                "velocity": 40,
                "duration": 0.3840909,
                "tempo": 120.0
            },
            {
                "start_time": 28.2931818,
                "end_time": 28.4795455,
                "pitch": 31,
                "velocity": 40,
                "duration": 0.1863636,
                "tempo": 120.0
            },
            {
                "start_time": 28.4954545,
                "end_time": 28.6840909,
                "pitch": 31,
                "velocity": 40,
                "duration": 0.1886364,
                "tempo": 120.0
            },
            {
                "start_time": 28.7,
                "end_time": 28.8886364,
                "pitch": 31,
                "velocity": 40,
                "duration": 0.1886364,
                "tempo": 120.0
            },
            {
                "start_time": 28.9068182,
                "end_time": 29.0863636,
                "pitch": 33,
                "velocity": 40,
                "duration": 0.1795455,
                "tempo": 120.0
            },
            {
                "start_time": 29.1022727,
                "end_time": 29.2818182,
                "pitch": 33,
                "velocity": 40,
                "duration": 0.1795455,
                "tempo": 120.0
            },
            {
                "start_time": 29.2977273,
                "end_time": 29.4818182,
                "pitch": 33,
                "velocity": 40,
                "duration": 0.1840909,
                "tempo": 120.0
            },
            {
                "start_time": 29.4977273,
                "end_time": 29.8818182,
                "pitch": 33,
                "velocity": 40,
                "duration": 0.3840909,
                "tempo": 120.0
            },
            {
                "start_time": 29.8977273,
                "end_time": 30.0818182,
                "pitch": 33,
                "velocity": 40,
                "duration": 0.1840909,
                "tempo": 120.0
            },
            {
                "start_time": 30.0977273,
                "end_time": 30.2818182,
                "pitch": 33,
                "velocity": 40,
                "duration": 0.1840909,
                "tempo": 120.0
            },
            {
                "start_time": 30.3,
                "end_time": 30.4840909,
                "pitch": 35,
                "velocity": 40,
                "duration": 0.1840909,
                "tempo": 120.0
            },
            {
                "start_time": 30.5,
                "end_time": 30.6840909,
                "pitch": 36,
                "velocity": 40,
                "duration": 0.1840909,
                "tempo": 120.0
            },
            {
                "start_time": 30.7,
                "end_time": 30.8840909,
                "pitch": 36,
                "velocity": 40,
                "duration": 0.1840909,
                "tempo": 120.0
            },
            {
                "start_time": 30.9,
                "end_time": 31.0886364,
                "pitch": 36,
                "velocity": 40,
                "duration": 0.1886364,
                "tempo": 120.0
            },
            {
                "start_time": 31.1068182,
                "end_time": 31.4909091,
                "pitch": 36,
                "velocity": 40,
                "duration": 0.3840909,
                "tempo": 120.0
            },
            {
                "start_time": 31.5068182,
                "end_time": 31.6863636,
                "pitch": 36,
                "velocity": 40,
                "duration": 0.1795455,
                "tempo": 120.0
            },
            {
                "start_time": 31.7045455,
                "end_time": 31.8909091,
                "pitch": 35,
                "velocity": 40,
                "duration": 0.1863636,
                "tempo": 120.0
            },
            {
                "start_time": 31.9090909,
                "end_time": 32.0977273,
                "pitch": 36,
                "velocity": 40,
                "duration": 0.1886364,
                "tempo": 120.0
            },
            {
                "start_time": 32.3113636,
                "end_time": 32.4909091,
                "pitch": 38,
                "velocity": 40,
                "duration": 0.1795455,
                "tempo": 120.0
            },
            {
                "start_time": 32.7068182,
                "end_time": 32.8931818,
                "pitch": 37,
                "velocity": 40,
                "duration": 0.1863636,
                "tempo": 120.0
            },
            {
                "start_time": 32.9090909,
                "end_time": 33.0931818,
                "pitch": 38,
                "velocity": 40,
                "duration": 0.1840909,
                "tempo": 120.0
            },
            {
                "start_time": 33.1090909,
                "end_time": 33.2931818,
                "pitch": 40,
                "velocity": 40,
                "duration": 0.1840909,
                "tempo": 120.0
            },
            {
                "start_time": 33.3090909,
                "end_time": 33.4977273,
                "pitch": 42,
                "velocity": 40,
                "duration": 0.1886364,
                "tempo": 120.0
            },
            {
                "start_time": 33.5136364,
                "end_time": 33.7022727,
                "pitch": 42,
                "velocity": 40,
                "duration": 0.1886364,
                "tempo": 120.0
            },
            {
                "start_time": 33.7204545,
                "end_time": 33.9045455,
                "pitch": 26,
                "velocity": 40,
                "duration": 0.1840909,
                "tempo": 120.0
            },
            {
                "start_time": 33.9204545,
                "end_time": 34.1068182,
                "pitch": 38,
                "velocity": 40,
                "duration": 0.1863636,
                "tempo": 120.0
            },
            {
                "start_time": 34.1227273,
                "end_time": 34.3022727,
                "pitch": 26,
                "velocity": 40,
                "duration": 0.1795455,
                "tempo": 120.0
            },
            {
                "start_time": 34.3181818,
                "end_time": 34.4977273,
                "pitch": 38,
                "velocity": 40,
                "duration": 0.1795455,
                "tempo": 120.0
            },
            {
                "start_time": 34.5159091,
                "end_time": 34.7,
                "pitch": 37,
                "velocity": 40,
                "duration": 0.1840909,
                "tempo": 120.0
            },
            {
                "start_time": 34.9181818,
                "end_time": 35.1,
                "pitch": 35,
                "velocity": 40,
                "duration": 0.1818182,
                "tempo": 120.0
            },
            {
                "start_time": 35.3181818,
                "end_time": 35.5,
                "pitch": 31,
                "velocity": 40,
                "duration": 0.1818182,
                "tempo": 120.0
            },
            {
                "start_time": 35.5181818,
                "end_time": 35.7,
                "pitch": 31,
                "velocity": 40,
                "duration": 0.1818182,
                "tempo": 120.0
            },
            {
                "start_time": 35.7181818,
                "end_time": 35.9,
                "pitch": 31,
                "velocity": 40,
                "duration": 0.1818182,
                "tempo": 120.0
            },
            {
                "start_time": 36.1181818,
                "end_time": 36.3,
                "pitch": 31,
                "velocity": 40,
                "duration": 0.1818182,
                "tempo": 120.0
            },
            {
                "start_time": 36.5181818,
                "end_time": 36.7022727,
                "pitch": 33,
                "velocity": 40,
                "duration": 0.1840909,
                "tempo": 120.0
            },
            {
                "start_time": 36.7181818,
                "end_time": 36.9045455,
                "pitch": 35,
                "velocity": 40,
                "duration": 0.1863636,
                "tempo": 120.0
            },
            {
                "start_time": 36.9204545,
                "end_time": 37.1045455,
                "pitch": 31,
                "velocity": 40,
                "duration": 0.1840909,
                "tempo": 120.0
            },
            {
                "start_time": 37.1204545,
                "end_time": 37.3045455,
                "pitch": 31,
                "velocity": 40,
                "duration": 0.1840909,
                "tempo": 120.0
            },
            {
                "start_time": 37.3204545,
                "end_time": 37.5045455,
                "pitch": 31,
                "velocity": 40,
                "duration": 0.1840909,
                "tempo": 120.0
            },
            {
                "start_time": 37.7204545,
                "end_time": 37.9045455,
                "pitch": 31,
                "velocity": 40,
                "duration": 0.1840909,
                "tempo": 120.0
            },
            {
                "start_time": 38.1204545,
                "end_time": 38.3045455,
                "pitch": 33,
                "velocity": 40,
                "duration": 0.1840909,
                "tempo": 120.0
            },
            {
                "start_time": 38.3204545,
                "end_time": 38.5045455,
                "pitch": 35,
                "velocity": 40,
                "duration": 0.1840909,
                "tempo": 120.0
            },
            {
                "start_time": 38.5204545,
                "end_time": 38.7045455,
                "pitch": 33,
                "velocity": 40,
                "duration": 0.1840909,
                "tempo": 120.0
            },
            {
                "start_time": 38.7227273,
                "end_time": 38.9068182,
                "pitch": 33,
                "velocity": 40,
                "duration": 0.1840909,
                "tempo": 120.0
            },
            {
                "start_time": 38.9227273,
                "end_time": 39.1068182,
                "pitch": 35,
                "velocity": 40,
                "duration": 0.1840909,
                "tempo": 120.0
            },
            {
                "start_time": 39.3227273,
                "end_time": 39.5068182,
                "pitch": 35,
                "velocity": 40,
                "duration": 0.1840909,
                "tempo": 120.0
            },
            {
                "start_time": 39.5227273,
                "end_time": 39.7068182,
                "pitch": 37,
                "velocity": 40,
                "duration": 0.1840909,
                "tempo": 120.0
            },
            {
                "start_time": 39.7227273,
                "end_time": 39.9068182,
                "pitch": 38,
                "velocity": 40,
                "duration": 0.1840909,
                "tempo": 120.0
            },
            {
                "start_time": 39.9227273,
                "end_time": 40.1068182,
                "pitch": 40,
                "velocity": 40,
                "duration": 0.1840909,
                "tempo": 120.0
            },
            {
                "start_time": 40.1227273,
                "end_time": 40.3068182,
                "pitch": 26,
                "velocity": 40,
                "duration": 0.1840909,
                "tempo": 120.0
            },
            {
                "start_time": 40.3227273,
                "end_time": 40.5068182,
                "pitch": 38,
                "velocity": 40,
                "duration": 0.1840909,
                "tempo": 120.0
            },
            {
                "start_time": 40.5227273,
                "end_time": 40.7068182,
                "pitch": 26,
                "velocity": 40,
                "duration": 0.1840909,
                "tempo": 120.0
            },
            {
                "start_time": 40.725,
                "end_time": 40.9090909,
                "pitch": 38,
                "velocity": 40,
                "duration": 0.1840909,
                "tempo": 120.0
            },
            {
                "start_time": 40.925,
                "end_time": 41.1090909,
                "pitch": 37,
                "velocity": 40,
                "duration": 0.1840909,
                "tempo": 120.0
            },
            {
                "start_time": 41.325,
                "end_time": 41.5090909,
                "pitch": 35,
                "velocity": 40,
                "duration": 0.1840909,
                "tempo": 120.0
            },
            {
                "start_time": 41.725,
                "end_time": 41.9090909,
                "pitch": 31,
                "velocity": 40,
                "duration": 0.1840909,
                "tempo": 120.0
            },
            {
                "start_time": 41.925,
                "end_time": 42.1090909,
                "pitch": 31,
                "velocity": 40,
                "duration": 0.1840909,
                "tempo": 120.0
            },
            {
                "start_time": 42.125,
                "end_time": 42.3090909,
                "pitch": 31,
                "velocity": 40,
                "duration": 0.1840909,
                "tempo": 120.0
            },
            {
                "start_time": 42.525,
                "end_time": 42.7090909,
                "pitch": 31,
                "velocity": 40,
                "duration": 0.1840909,
                "tempo": 120.0
            },
            {
                "start_time": 42.9272727,
                "end_time": 43.1113636,
                "pitch": 33,
                "velocity": 40,
                "duration": 0.1840909,
                "tempo": 120.0
            },
            {
                "start_time": 43.1272727,
                "end_time": 43.3113636,
                "pitch": 35,
                "velocity": 40,
                "duration": 0.1840909,
                "tempo": 120.0
            },
            {
                "start_time": 43.3272727,
                "end_time": 43.5113636,
                "pitch": 31,
                "velocity": 40,
                "duration": 0.1840909,
                "tempo": 120.0
            },
            {
                "start_time": 43.5272727,
                "end_time": 43.7113636,
                "pitch": 31,
                "velocity": 40,
                "duration": 0.1840909,
                "tempo": 120.0
            },
            {
                "start_time": 43.7272727,
                "end_time": 43.9113636,
                "pitch": 31,
                "velocity": 40,
                "duration": 0.1840909,
                "tempo": 120.0
            },
            {
                "start_time": 44.1272727,
                "end_time": 44.3113636,
                "pitch": 31,
                "velocity": 40,
                "duration": 0.1840909,
                "tempo": 120.0
            },
            {
                "start_time": 44.5272727,
                "end_time": 44.7136364,
                "pitch": 33,
                "velocity": 40,
                "duration": 0.1863636,
                "tempo": 120.0
            },
            {
                "start_time": 44.7295455,
                "end_time": 44.9136364,
                "pitch": 35,
                "velocity": 40,
                "duration": 0.1840909,
                "tempo": 120.0
            },
            {
                "start_time": 44.9318182,
                "end_time": 45.1136364,
                "pitch": 33,
                "velocity": 40,
                "duration": 0.1818182,
                "tempo": 120.0
            },
            {
                "start_time": 45.1318182,
                "end_time": 45.3136364,
                "pitch": 33,
                "velocity": 40,
                "duration": 0.1818182,
                "tempo": 120.0
            },
            {
                "start_time": 45.3318182,
                "end_time": 45.5136364,
                "pitch": 35,
                "velocity": 40,
                "duration": 0.1818182,
                "tempo": 120.0
            },
            {
                "start_time": 45.7318182,
                "end_time": 45.9136364,
                "pitch": 35,
                "velocity": 40,
                "duration": 0.1818182,
                "tempo": 120.0
            },
            {
                "start_time": 45.9318182,
                "end_time": 46.1136364,
                "pitch": 37,
                "velocity": 40,
                "duration": 0.1818182,
                "tempo": 120.0
            },
            {
                "start_time": 46.1318182,
                "end_time": 46.3181818,
                "pitch": 38,
                "velocity": 40,
                "duration": 0.1863636,
                "tempo": 120.0
            },
            {
                "start_time": 46.3363636,
                "end_time": 46.525,
                "pitch": 40,
                "velocity": 40,
                "duration": 0.1886364,
                "tempo": 120.0
            },
            {
                "start_time": 46.5409091,
                "end_time": 46.925,
                "pitch": 38,
                "velocity": 40,
                "duration": 0.3840909,
                "tempo": 120.0
            },
            {
                "start_time": 46.9409091,
                "end_time": 47.125,
                "pitch": 38,
                "velocity": 40,
                "duration": 0.1840909,
                "tempo": 120.0
            },
            {
                "start_time": 47.1409091,
                "end_time": 47.325,
                "pitch": 38,
                "velocity": 40,
                "duration": 0.1840909,
                "tempo": 120.0
            },
            {
                "start_time": 47.5386364,
                "end_time": 47.7181818,
                "pitch": 38,
                "velocity": 40,
                "duration": 0.1795455,
                "tempo": 120.0
            },
            {
                "start_time": 47.7340909,
                "end_time": 47.9181818,
                "pitch": 38,
                "velocity": 40,
                "duration": 0.1840909,
                "tempo": 120.0
            },
            {
                "start_time": 47.9340909,
                "end_time": 48.1181818,
                "pitch": 38,
                "velocity": 40,
                "duration": 0.1840909,
                "tempo": 120.0
            },
            {
                "start_time": 48.1340909,
                "end_time": 48.3181818,
                "pitch": 38,
                "velocity": 40,
                "duration": 0.1840909,
                "tempo": 120.0
            },
            {
                "start_time": 48.3340909,
                "end_time": 48.7181818,
                "pitch": 38,
                "velocity": 40,
                "duration": 0.3840909,
                "tempo": 120.0
            },
            {
                "start_time": 48.7363636,
                "end_time": 49.3204545,
                "pitch": 38,
                "velocity": 40,
                "duration": 0.5840909,
                "tempo": 120.0
            },
            {
                "start_time": 49.3363636,
                "end_time": 49.5204545,
                "pitch": 40,
                "velocity": 40,
                "duration": 0.1840909,
                "tempo": 120.0
            },
            {
                "start_time": 49.5363636,
                "end_time": 49.7204545,
                "pitch": 42,
                "velocity": 40,
                "duration": 0.1840909,
                "tempo": 120.0
            },
            {
                "start_time": 49.7363636,
                "end_time": 50.1204545,
                "pitch": 43,
                "velocity": 40,
                "duration": 0.3840909,
                "tempo": 120.0
            },
            {
                "start_time": 50.1363636,
                "end_time": 50.3204545,
                "pitch": 43,
                "velocity": 40,
                "duration": 0.1840909,
                "tempo": 120.0
            },
            {
                "start_time": 50.3363636,
                "end_time": 50.5204545,
                "pitch": 43,
                "velocity": 40,
                "duration": 0.1840909,
                "tempo": 120.0
            },
            {
                "start_time": 50.5363636,
                "end_time": 50.7204545,
                "pitch": 40,
                "velocity": 40,
                "duration": 0.1840909,
                "tempo": 120.0
            },
            {
                "start_time": 50.7386364,
                "end_time": 50.9227273,
                "pitch": 38,
                "velocity": 40,
                "duration": 0.1840909,
                "tempo": 120.0
            },
            {
                "start_time": 50.9386364,
                "end_time": 51.1227273,
                "pitch": 40,
                "velocity": 40,
                "duration": 0.1840909,
                "tempo": 120.0
            },
            {
                "start_time": 51.1386364,
                "end_time": 51.3227273,
                "pitch": 43,
                "velocity": 40,
                "duration": 0.1840909,
                "tempo": 120.0
            },
            {
                "start_time": 51.3386364,
                "end_time": 51.5227273,
                "pitch": 43,
                "velocity": 40,
                "duration": 0.1840909,
                "tempo": 120.0
            },
            {
                "start_time": 51.5386364,
                "end_time": 51.9227273,
                "pitch": 43,
                "velocity": 40,
                "duration": 0.3840909,
                "tempo": 120.0
            },
            {
                "start_time": 51.9386364,
                "end_time": 52.5227273,
                "pitch": 43,
                "velocity": 40,
                "duration": 0.5840909,
                "tempo": 120.0
            },
            {
                "start_time": 52.5386364,
                "end_time": 52.7272727,
                "pitch": 40,
                "velocity": 40,
                "duration": 0.1886364,
                "tempo": 120.0
            },
            {
                "start_time": 52.7454545,
                "end_time": 52.9340909,
                "pitch": 38,
                "velocity": 40,
                "duration": 0.1886364,
                "tempo": 120.0
            },
            {
                "start_time": 52.95,
                "end_time": 53.3340909,
                "pitch": 38,
                "velocity": 40,
                "duration": 0.3840909,
                "tempo": 120.0
            },
            {
                "start_time": 53.35,
                "end_time": 53.5295455,
                "pitch": 38,
                "velocity": 40,
                "duration": 0.1795455,
                "tempo": 120.0
            },
            {
                "start_time": 53.5454545,
                "end_time": 53.7272727,
                "pitch": 38,
                "velocity": 40,
                "duration": 0.1818182,
                "tempo": 120.0
            },
            {
                "start_time": 53.7431818,
                "end_time": 53.925,
                "pitch": 37,
                "velocity": 40,
                "duration": 0.1818182,
                "tempo": 120.0
            },
            {
                "start_time": 53.9431818,
                "end_time": 54.325,
                "pitch": 35,
                "velocity": 40,
                "duration": 0.3818182,
                "tempo": 120.0
            },
            {
                "start_time": 54.3431818,
                "end_time": 54.525,
                "pitch": 33,
                "velocity": 40,
                "duration": 0.1818182,
                "tempo": 120.0
            },
            {
                "start_time": 54.5431818,
                "end_time": 55.1295455,
                "pitch": 33,
                "velocity": 40,
                "duration": 0.5863636,
                "tempo": 120.0
            },
            {
                "start_time": 55.1454545,
                "end_time": 55.3295455,
                "pitch": 33,
                "velocity": 40,
                "duration": 0.1840909,
                "tempo": 120.0
            },
            {
                "start_time": 55.3454545,
                "end_time": 55.5295455,
                "pitch": 33,
                "velocity": 40,
                "duration": 0.1840909,
                "tempo": 120.0
            },
            {
                "start_time": 55.5454545,
                "end_time": 55.7295455,
                "pitch": 33,
                "velocity": 40,
                "duration": 0.1840909,
                "tempo": 120.0
            },
            {
                "start_time": 55.7454545,
                "end_time": 55.9340909,
                "pitch": 33,
                "velocity": 40,
                "duration": 0.1886364,
                "tempo": 120.0
            },
            {
                "start_time": 55.95,
                "end_time": 56.1386364,
                "pitch": 33,
                "velocity": 40,
                "duration": 0.1886364,
                "tempo": 120.0
            },
            {
                "start_time": 56.1568182,
                "end_time": 56.3363636,
                "pitch": 33,
                "velocity": 40,
                "duration": 0.1795455,
                "tempo": 120.0
            },
            {
                "start_time": 56.3522727,
                "end_time": 56.5318182,
                "pitch": 33,
                "velocity": 40,
                "duration": 0.1795455,
                "tempo": 120.0
            },
            {
                "start_time": 56.5477273,
                "end_time": 56.7318182,
                "pitch": 33,
                "velocity": 40,
                "duration": 0.1840909,
                "tempo": 120.0
            },
            {
                "start_time": 56.75,
                "end_time": 56.9340909,
                "pitch": 33,
                "velocity": 40,
                "duration": 0.1840909,
                "tempo": 120.0
            },
            {
                "start_time": 56.95,
                "end_time": 57.1340909,
                "pitch": 33,
                "velocity": 40,
                "duration": 0.1840909,
                "tempo": 120.0
            },
            {
                "start_time": 57.15,
                "end_time": 57.3340909,
                "pitch": 33,
                "velocity": 40,
                "duration": 0.1840909,
                "tempo": 120.0
            },
            {
                "start_time": 57.35,
                "end_time": 57.5386364,
                "pitch": 31,
                "velocity": 40,
                "duration": 0.1886364,
                "tempo": 120.0
            },
            {
                "start_time": 57.5568182,
                "end_time": 57.7454545,
                "pitch": 30,
                "velocity": 40,
                "duration": 0.1886364,
                "tempo": 120.0
            },
            {
                "start_time": 57.7613636,
                "end_time": 57.9409091,
                "pitch": 43,
                "velocity": 40,
                "duration": 0.1795455,
                "tempo": 120.0
            },
            {
                "start_time": 57.9568182,
                "end_time": 58.3363636,
                "pitch": 43,
                "velocity": 40,
                "duration": 0.3795455,
                "tempo": 120.0
            },
            {
                "start_time": 58.3545455,
                "end_time": 58.9386364,
                "pitch": 43,
                "velocity": 40,
                "duration": 0.5840909,
                "tempo": 120.0
            },
            {
                "start_time": 58.9568182,
                "end_time": 59.1454545,
                "pitch": 40,
                "velocity": 40,
                "duration": 0.1886364,
                "tempo": 120.0
            },
            {
                "start_time": 59.1613636,
                "end_time": 59.35,
                "pitch": 38,
                "velocity": 40,
                "duration": 0.1886364,
                "tempo": 120.0
            },
            {
                "start_time": 59.3681818,
                "end_time": 59.55,
                "pitch": 40,
                "velocity": 40,
                "duration": 0.1818182,
                "tempo": 120.0
            },
            {
                "start_time": 59.5681818,
                "end_time": 59.9522727,
                "pitch": 40,
                "velocity": 40,
                "duration": 0.3840909,
                "tempo": 120.0
            },
            {
                "start_time": 59.9681818,
                "end_time": 60.1522727,
                "pitch": 40,
                "velocity": 40,
                "duration": 0.1840909,
                "tempo": 120.0
            },
            {
                "start_time": 60.1704545,
                "end_time": 60.35,
                "pitch": 33,
                "velocity": 40,
                "duration": 0.1795455,
                "tempo": 120.0
            },
            {
                "start_time": 60.3659091,
                "end_time": 60.75,
                "pitch": 33,
                "velocity": 40,
                "duration": 0.3840909,
                "tempo": 120.0
            },
            {
                "start_time": 60.7681818,
                "end_time": 60.9545455,
                "pitch": 33,
                "velocity": 40,
                "duration": 0.1863636,
                "tempo": 120.0
            },
            {
                "start_time": 60.9727273,
                "end_time": 61.1522727,
                "pitch": 33,
                "velocity": 40,
                "duration": 0.1795455,
                "tempo": 120.0
            },
            {
                "start_time": 61.1681818,
                "end_time": 61.3477273,
                "pitch": 33,
                "velocity": 40,
                "duration": 0.1795455,
                "tempo": 120.0
            },
            {
                "start_time": 61.3636364,
                "end_time": 61.5522727,
                "pitch": 33,
                "velocity": 40,
                "duration": 0.1886364,
                "tempo": 120.0
            },
            {
                "start_time": 61.5704545,
                "end_time": 61.7590909,
                "pitch": 33,
                "velocity": 40,
                "duration": 0.1886364,
                "tempo": 120.0
            },
            {
                "start_time": 61.775,
                "end_time": 61.9545455,
                "pitch": 33,
                "velocity": 40,
                "duration": 0.1795455,
                "tempo": 120.0
            },
            {
                "start_time": 61.9704545,
                "end_time": 62.15,
                "pitch": 33,
                "velocity": 40,
                "duration": 0.1795455,
                "tempo": 120.0
            },
            {
                "start_time": 62.1681818,
                "end_time": 62.3545455,
                "pitch": 40,
                "velocity": 40,
                "duration": 0.1863636,
                "tempo": 120.0
            },
            {
                "start_time": 62.3727273,
                "end_time": 62.5613636,
                "pitch": 38,
                "velocity": 40,
                "duration": 0.1886364,
                "tempo": 120.0
            },
            {
                "start_time": 62.5772727,
                "end_time": 62.7568182,
                "pitch": 43,
                "velocity": 40,
                "duration": 0.1795455,
                "tempo": 120.0
            },
            {
                "start_time": 62.775,
                "end_time": 63.1590909,
                "pitch": 43,
                "velocity": 40,
                "duration": 0.3840909,
                "tempo": 120.0
            },
            {
                "start_time": 63.175,
                "end_time": 63.3636364,
                "pitch": 42,
                "velocity": 40,
                "duration": 0.1886364,
                "tempo": 120.0
            },
            {
                "start_time": 63.3795455,
                "end_time": 63.5590909,
                "pitch": 38,
                "velocity": 40,
                "duration": 0.1795455,
                "tempo": 120.0
            },
            {
                "start_time": 63.5772727,
                "end_time": 63.7568182,
                "pitch": 38,
                "velocity": 40,
                "duration": 0.1795455,
                "tempo": 120.0
            },
            {
                "start_time": 63.7727273,
                "end_time": 63.9613636,
                "pitch": 38,
                "velocity": 40,
                "duration": 0.1886364,
                "tempo": 120.0
            },
            {
                "start_time": 63.9772727,
                "end_time": 64.1659091,
                "pitch": 38,
                "velocity": 40,
                "duration": 0.1886364,
                "tempo": 120.0
            },
            {
                "start_time": 64.1840909,
                "end_time": 64.3636364,
                "pitch": 38,
                "velocity": 40,
                "duration": 0.1795455,
                "tempo": 120.0
            },
            {
                "start_time": 64.3795455,
                "end_time": 64.7590909,
                "pitch": 38,
                "velocity": 40,
                "duration": 0.3795455,
                "tempo": 120.0
            },
            {
                "start_time": 64.775,
                "end_time": 64.9590909,
                "pitch": 38,
                "velocity": 40,
                "duration": 0.1840909,
                "tempo": 120.0
            },
            {
                "start_time": 64.975,
                "end_time": 65.1590909,
                "pitch": 38,
                "velocity": 40,
                "duration": 0.1840909,
                "tempo": 120.0
            },
            {
                "start_time": 65.1772727,
                "end_time": 65.3613636,
                "pitch": 37,
                "velocity": 40,
                "duration": 0.1840909,
                "tempo": 120.0
            },
            {
                "start_time": 65.3772727,
                "end_time": 65.5659091,
                "pitch": 35,
                "velocity": 40,
                "duration": 0.1886364,
                "tempo": 120.0
            },
            {
                "start_time": 65.5840909,
                "end_time": 65.7727273,
                "pitch": 33,
                "velocity": 40,
                "duration": 0.1886364,
                "tempo": 120.0
            },
            {
                "start_time": 65.7886364,
                "end_time": 65.9727273,
                "pitch": 38,
                "velocity": 40,
                "duration": 0.1840909,
                "tempo": 120.0
            },
            {
                "start_time": 65.9909091,
                "end_time": 66.175,
                "pitch": 38,
                "velocity": 40,
                "duration": 0.1840909,
                "tempo": 120.0
            },
            {
                "start_time": 66.1909091,
                "end_time": 66.375,
                "pitch": 38,
                "velocity": 40,
                "duration": 0.1840909,
                "tempo": 120.0
            },
            {
                "start_time": 66.3909091,
                "end_time": 66.7704545,
                "pitch": 38,
                "velocity": 40,
                "duration": 0.3795455,
                "tempo": 120.0
            },
            {
                "start_time": 66.7886364,
                "end_time": 66.9681818,
                "pitch": 38,
                "velocity": 40,
                "duration": 0.1795455,
                "tempo": 120.0
            },
            {
                "start_time": 66.9840909,
                "end_time": 67.1727273,
                "pitch": 38,
                "velocity": 40,
                "duration": 0.1886364,
                "tempo": 120.0
            },
            {
                "start_time": 67.1886364,
                "end_time": 67.3772727,
                "pitch": 38,
                "velocity": 40,
                "duration": 0.1886364,
                "tempo": 120.0
            },
            {
                "start_time": 67.3931818,
                "end_time": 67.9704545,
                "pitch": 35,
                "velocity": 40,
                "duration": 0.5772727,
                "tempo": 120.0
            },
            {
                "start_time": 67.9863636,
                "end_time": 68.1704545,
                "pitch": 35,
                "velocity": 40,
                "duration": 0.1840909,
                "tempo": 120.0
            },
            {
                "start_time": 68.1863636,
                "end_time": 68.5727273,
                "pitch": 35,
                "velocity": 40,
                "duration": 0.3863636,
                "tempo": 120.0
            },
            {
                "start_time": 68.5886364,
                "end_time": 68.9727273,
                "pitch": 37,
                "velocity": 40,
                "duration": 0.3840909,
                "tempo": 120.0
            },
            {
                "start_time": 68.9886364,
                "end_time": 69.1727273,
                "pitch": 35,
                "velocity": 40,
                "duration": 0.1840909,
                "tempo": 120.0
            },
            {
                "start_time": 69.1909091,
                "end_time": 69.375,
                "pitch": 35,
                "velocity": 40,
                "duration": 0.1840909,
                "tempo": 120.0
            },
            {
                "start_time": 69.3909091,
                "end_time": 69.5772727,
                "pitch": 35,
                "velocity": 40,
                "duration": 0.1863636,
                "tempo": 120.0
            },
            {
                "start_time": 69.5931818,
                "end_time": 69.9772727,
                "pitch": 35,
                "velocity": 40,
                "duration": 0.3840909,
                "tempo": 120.0
            },
            {
                "start_time": 69.9954545,
                "end_time": 70.1772727,
                "pitch": 35,
                "velocity": 40,
                "duration": 0.1818182,
                "tempo": 120.0
            },
            {
                "start_time": 70.1954545,
                "end_time": 70.3795455,
                "pitch": 35,
                "velocity": 40,
                "duration": 0.1840909,
                "tempo": 120.0
            },
            {
                "start_time": 70.3954545,
                "end_time": 70.5795455,
                "pitch": 35,
                "velocity": 40,
                "duration": 0.1840909,
                "tempo": 120.0
            },
            {
                "start_time": 70.5977273,
                "end_time": 71.1818182,
                "pitch": 35,
                "velocity": 40,
                "duration": 0.5840909,
                "tempo": 120.0
            },
            {
                "start_time": 71.1977273,
                "end_time": 71.3840909,
                "pitch": 35,
                "velocity": 40,
                "duration": 0.1863636,
                "tempo": 120.0
            },
            {
                "start_time": 71.4,
                "end_time": 71.7863636,
                "pitch": 37,
                "velocity": 40,
                "duration": 0.3863636,
                "tempo": 120.0
            },
            {
                "start_time": 71.8022727,
                "end_time": 72.1954545,
                "pitch": 38,
                "velocity": 40,
                "duration": 0.3931818,
                "tempo": 120.0
            },
            {
                "start_time": 72.2136364,
                "end_time": 72.3931818,
                "pitch": 31,
                "velocity": 40,
                "duration": 0.1795455,
                "tempo": 120.0
            },
            {
                "start_time": 72.4090909,
                "end_time": 72.5886364,
                "pitch": 31,
                "velocity": 40,
                "duration": 0.1795455,
                "tempo": 120.0
            },
            {
                "start_time": 72.6045455,
                "end_time": 72.7886364,
                "pitch": 31,
                "velocity": 40,
                "duration": 0.1840909,
                "tempo": 120.0
            },
            {
                "start_time": 72.8045455,
                "end_time": 73.1909091,
                "pitch": 31,
                "velocity": 40,
                "duration": 0.3863636,
                "tempo": 120.0
            },
            {
                "start_time": 73.2068182,
                "end_time": 73.3909091,
                "pitch": 31,
                "velocity": 40,
                "duration": 0.1840909,
                "tempo": 120.0
            },
            {
                "start_time": 73.4090909,
                "end_time": 73.5931818,
                "pitch": 31,
                "velocity": 40,
                "duration": 0.1840909,
                "tempo": 120.0
            },
            {
                "start_time": 73.6090909,
                "end_time": 73.7931818,
                "pitch": 31,
                "velocity": 40,
                "duration": 0.1840909,
                "tempo": 120.0
            },
            {
                "start_time": 73.8113636,
                "end_time": 73.9931818,
                "pitch": 33,
                "velocity": 40,
                "duration": 0.1818182,
                "tempo": 120.0
            },
            {
                "start_time": 74.0113636,
                "end_time": 74.1931818,
                "pitch": 33,
                "velocity": 40,
                "duration": 0.1818182,
                "tempo": 120.0
            },
            {
                "start_time": 74.2113636,
                "end_time": 74.4,
                "pitch": 33,
                "velocity": 40,
                "duration": 0.1886364,
                "tempo": 120.0
            },
            {
                "start_time": 74.4159091,
                "end_time": 74.8022727,
                "pitch": 33,
                "velocity": 40,
                "duration": 0.3863636,
                "tempo": 120.0
            },
            {
                "start_time": 74.8181818,
                "end_time": 74.9977273,
                "pitch": 33,
                "velocity": 40,
                "duration": 0.1795455,
                "tempo": 120.0
            },
            {
                "start_time": 75.0136364,
                "end_time": 75.2022727,
                "pitch": 33,
                "velocity": 40,
                "duration": 0.1886364,
                "tempo": 120.0
            },
            {
                "start_time": 75.2181818,
                "end_time": 75.4068182,
                "pitch": 35,
                "velocity": 40,
                "duration": 0.1886364,
                "tempo": 120.0
            },
            {
                "start_time": 75.425,
                "end_time": 75.6045455,
                "pitch": 36,
                "velocity": 40,
                "duration": 0.1795455,
                "tempo": 120.0
            },
            {
                "start_time": 75.6204545,
                "end_time": 75.8,
                "pitch": 36,
                "velocity": 40,
                "duration": 0.1795455,
                "tempo": 120.0
            },
            {
                "start_time": 75.8159091,
                "end_time": 76.0045455,
                "pitch": 36,
                "velocity": 40,
                "duration": 0.1886364,
                "tempo": 120.0
            },
            {
                "start_time": 76.0204545,
                "end_time": 76.4068182,
                "pitch": 36,
                "velocity": 40,
                "duration": 0.3863636,
                "tempo": 120.0
            },
            {
                "start_time": 76.4227273,
                "end_time": 76.6022727,
                "pitch": 36,
                "velocity": 40,
                "duration": 0.1795455,
                "tempo": 120.0
            },
            {
                "start_time": 76.6181818,
                "end_time": 76.8022727,
                "pitch": 35,
                "velocity": 40,
                "duration": 0.1840909,
                "tempo": 120.0
            },
            {
                "start_time": 76.8181818,
                "end_time": 77.0022727,
                "pitch": 36,
                "velocity": 40,
                "duration": 0.1840909,
                "tempo": 120.0
            },
            {
                "start_time": 77.2204545,
                "end_time": 77.4045455,
                "pitch": 38,
                "velocity": 40,
                "duration": 0.1840909,
                "tempo": 120.0
            },
            {
                "start_time": 77.6227273,
                "end_time": 77.8068182,
                "pitch": 37,
                "velocity": 40,
                "duration": 0.1840909,
                "tempo": 120.0
            },
            {
                "start_time": 77.825,
                "end_time": 78.0068182,
                "pitch": 38,
                "velocity": 40,
                "duration": 0.1818182,
                "tempo": 120.0
            },
            {
                "start_time": 78.025,
                "end_time": 78.2068182,
                "pitch": 40,
                "velocity": 40,
                "duration": 0.1818182,
                "tempo": 120.0
            },
            {
                "start_time": 78.225,
                "end_time": 78.4136364,
                "pitch": 42,
                "velocity": 40,
                "duration": 0.1886364,
                "tempo": 120.0
            },
            {
                "start_time": 78.4295455,
                "end_time": 78.6181818,
                "pitch": 42,
                "velocity": 40,
                "duration": 0.1886364,
                "tempo": 120.0
            },
            {
                "start_time": 78.6340909,
                "end_time": 78.8204545,
                "pitch": 38,
                "velocity": 40,
                "duration": 0.1863636,
                "tempo": 120.0
            },
            {
                "start_time": 78.8363636,
                "end_time": 79.0204545,
                "pitch": 38,
                "velocity": 40,
                "duration": 0.1840909,
                "tempo": 120.0
            },
            {
                "start_time": 79.0386364,
                "end_time": 79.2227273,
                "pitch": 38,
                "velocity": 40,
                "duration": 0.1840909,
                "tempo": 120.0
            },
            {
                "start_time": 79.2386364,
                "end_time": 79.6204545,
                "pitch": 38,
                "velocity": 40,
                "duration": 0.3818182,
                "tempo": 120.0
            },
            {
                "start_time": 79.6363636,
                "end_time": 79.8159091,
                "pitch": 38,
                "velocity": 40,
                "duration": 0.1795455,
                "tempo": 120.0
            },
            {
                "start_time": 79.8318182,
                "end_time": 80.0159091,
                "pitch": 38,
                "velocity": 40,
                "duration": 0.1840909,
                "tempo": 120.0
            },
            {
                "start_time": 80.0318182,
                "end_time": 80.2159091,
                "pitch": 38,
                "velocity": 40,
                "duration": 0.1840909,
                "tempo": 120.0
            },
            {
                "start_time": 80.2318182,
                "end_time": 80.8181818,
                "pitch": 35,
                "velocity": 40,
                "duration": 0.5863636,
                "tempo": 120.0
            },
            {
                "start_time": 80.8363636,
                "end_time": 81.0181818,
                "pitch": 35,
                "velocity": 40,
                "duration": 0.1818182,
                "tempo": 120.0
            },
            {
                "start_time": 81.0363636,
                "end_time": 81.4204545,
                "pitch": 35,
                "velocity": 40,
                "duration": 0.3840909,
                "tempo": 120.0
            },
            {
                "start_time": 81.4386364,
                "end_time": 81.8318182,
                "pitch": 37,
                "velocity": 40,
                "duration": 0.3931818,
                "tempo": 120.0
            },
            {
                "start_time": 81.85,
                "end_time": 82.0295455,
                "pitch": 35,
                "velocity": 40,
                "duration": 0.1795455,
                "tempo": 120.0
            },
            {
                "start_time": 82.0454545,
                "end_time": 82.225,
                "pitch": 35,
                "velocity": 40,
                "duration": 0.1795455,
                "tempo": 120.0
            },
            {
                "start_time": 82.2409091,
                "end_time": 82.425,
                "pitch": 35,
                "velocity": 40,
                "duration": 0.1840909,
                "tempo": 120.0
            },
            {
                "start_time": 82.4431818,
                "end_time": 82.8272727,
                "pitch": 35,
                "velocity": 40,
                "duration": 0.3840909,
                "tempo": 120.0
            },
            {
                "start_time": 82.8431818,
                "end_time": 83.0272727,
                "pitch": 35,
                "velocity": 40,
                "duration": 0.1840909,
                "tempo": 120.0
            },
            {
                "start_time": 83.0431818,
                "end_time": 83.2318182,
                "pitch": 35,
                "velocity": 40,
                "duration": 0.1886364,
                "tempo": 120.0
            },
            {
                "start_time": 83.25,
                "end_time": 83.4363636,
                "pitch": 35,
                "velocity": 40,
                "duration": 0.1863636,
                "tempo": 120.0
            },
            {
                "start_time": 83.4545455,
                "end_time": 84.0295455,
                "pitch": 35,
                "velocity": 40,
                "duration": 0.575,
                "tempo": 120.0
            },
            {
                "start_time": 84.0477273,
                "end_time": 84.2295455,
                "pitch": 35,
                "velocity": 40,
                "duration": 0.1818182,
                "tempo": 120.0
            },
            {
                "start_time": 84.2477273,
                "end_time": 84.6318182,
                "pitch": 37,
                "velocity": 40,
                "duration": 0.3840909,
                "tempo": 120.0
            },
            {
                "start_time": 84.65,
                "end_time": 85.0318182,
                "pitch": 38,
                "velocity": 40,
                "duration": 0.3818182,
                "tempo": 120.0
            },
            {
                "start_time": 85.05,
                "end_time": 85.2340909,
                "pitch": 31,
                "velocity": 40,
                "duration": 0.1840909,
                "tempo": 120.0
            },
            {
                "start_time": 85.25,
                "end_time": 85.4363636,
                "pitch": 31,
                "velocity": 40,
                "duration": 0.1863636,
                "tempo": 120.0
            },
            {
                "start_time": 85.4522727,
                "end_time": 85.6363636,
                "pitch": 31,
                "velocity": 40,
                "duration": 0.1840909,
                "tempo": 120.0
            },
            {
                "start_time": 85.6522727,
                "end_time": 86.0386364,
                "pitch": 31,
                "velocity": 40,
                "duration": 0.3863636,
                "tempo": 120.0
            },
            {
                "start_time": 86.0545455,
                "end_time": 86.2386364,
                "pitch": 31,
                "velocity": 40,
                "duration": 0.1840909,
                "tempo": 120.0
            },
            {
                "start_time": 86.2545455,
                "end_time": 86.4431818,
                "pitch": 31,
                "velocity": 40,
                "duration": 0.1886364,
                "tempo": 120.0
            },
            {
                "start_time": 86.4590909,
                "end_time": 86.6477273,
                "pitch": 31,
                "velocity": 40,
                "duration": 0.1886364,
                "tempo": 120.0
            },
            {
                "start_time": 86.6659091,
                "end_time": 86.8454545,
                "pitch": 33,
                "velocity": 40,
                "duration": 0.1795455,
                "tempo": 120.0
            },
            {
                "start_time": 86.8613636,
                "end_time": 87.0409091,
                "pitch": 33,
                "velocity": 40,
                "duration": 0.1795455,
                "tempo": 120.0
            },
            {
                "start_time": 87.0568182,
                "end_time": 87.2454545,
                "pitch": 33,
                "velocity": 40,
                "duration": 0.1886364,
                "tempo": 120.0
            },
            {
                "start_time": 87.2636364,
                "end_time": 87.6477273,
                "pitch": 33,
                "velocity": 40,
                "duration": 0.3840909,
                "tempo": 120.0
            },
            {
                "start_time": 87.6636364,
                "end_time": 87.8431818,
                "pitch": 33,
                "velocity": 40,
                "duration": 0.1795455,
                "tempo": 120.0
            },
            {
                "start_time": 87.8590909,
                "end_time": 88.0477273,
                "pitch": 33,
                "velocity": 40,
                "duration": 0.1886364,
                "tempo": 120.0
            },
            {
                "start_time": 88.0659091,
                "end_time": 88.2545455,
                "pitch": 35,
                "velocity": 40,
                "duration": 0.1886364,
                "tempo": 120.0
            },
            {
                "start_time": 88.2704545,
                "end_time": 88.45,
                "pitch": 36,
                "velocity": 40,
                "duration": 0.1795455,
                "tempo": 120.0
            },
            {
                "start_time": 88.4659091,
                "end_time": 88.6454545,
                "pitch": 36,
                "velocity": 40,
                "duration": 0.1795455,
                "tempo": 120.0
            },
            {
                "start_time": 88.6636364,
                "end_time": 88.85,
                "pitch": 36,
                "velocity": 40,
                "duration": 0.1863636,
                "tempo": 120.0
            },
            {
                "start_time": 88.8681818,
                "end_time": 89.2522727,
                "pitch": 36,
                "velocity": 40,
                "duration": 0.3840909,
                "tempo": 120.0
            },
            {
                "start_time": 89.2704545,
                "end_time": 89.45,
                "pitch": 36,
                "velocity": 40,
                "duration": 0.1795455,
                "tempo": 120.0
            },
            {
                "start_time": 89.4659091,
                "end_time": 89.6545455,
                "pitch": 35,
                "velocity": 40,
                "duration": 0.1886364,
                "tempo": 120.0
            },
            {
                "start_time": 89.6704545,
                "end_time": 89.8590909,
                "pitch": 36,
                "velocity": 40,
                "duration": 0.1886364,
                "tempo": 120.0
            },
            {
                "start_time": 90.0727273,
                "end_time": 90.2522727,
                "pitch": 38,
                "velocity": 40,
                "duration": 0.1795455,
                "tempo": 120.0
            },
            {
                "start_time": 90.4704545,
                "end_time": 90.6545455,
                "pitch": 37,
                "velocity": 40,
                "duration": 0.1840909,
                "tempo": 120.0
            },
            {
                "start_time": 90.6704545,
                "end_time": 90.8545455,
                "pitch": 38,
                "velocity": 40,
                "duration": 0.1840909,
                "tempo": 120.0
            },
            {
                "start_time": 90.8704545,
                "end_time": 91.0545455,
                "pitch": 40,
                "velocity": 40,
                "duration": 0.1840909,
                "tempo": 120.0
            },
            {
                "start_time": 91.0704545,
                "end_time": 91.2590909,
                "pitch": 42,
                "velocity": 40,
                "duration": 0.1886364,
                "tempo": 120.0
            },
            {
                "start_time": 91.275,
                "end_time": 91.4636364,
                "pitch": 42,
                "velocity": 40,
                "duration": 0.1886364,
                "tempo": 120.0
            },
            {
                "start_time": 91.4818182,
                "end_time": 91.6659091,
                "pitch": 38,
                "velocity": 40,
                "duration": 0.1840909,
                "tempo": 120.0
            },
            {
                "start_time": 91.6818182,
                "end_time": 91.8659091,
                "pitch": 38,
                "velocity": 40,
                "duration": 0.1840909,
                "tempo": 120.0
            },
            {
                "start_time": 91.8818182,
                "end_time": 92.0613636,
                "pitch": 38,
                "velocity": 40,
                "duration": 0.1795455,
                "tempo": 120.0
            },
            {
                "start_time": 92.0772727,
                "end_time": 92.4590909,
                "pitch": 38,
                "velocity": 40,
                "duration": 0.3818182,
                "tempo": 120.0
            },
            {
                "start_time": 92.475,
                "end_time": 92.6590909,
                "pitch": 38,
                "velocity": 40,
                "duration": 0.1840909,
                "tempo": 120.0
            },
            {
                "start_time": 92.6772727,
                "end_time": 92.8659091,
                "pitch": 38,
                "velocity": 40,
                "duration": 0.1886364,
                "tempo": 120.0
            },
            {
                "start_time": 92.8818182,
                "end_time": 93.0704545,
                "pitch": 38,
                "velocity": 40,
                "duration": 0.1886364,
                "tempo": 120.0
            },
            {
                "start_time": 93.0863636,
                "end_time": 93.6636364,
                "pitch": 35,
                "velocity": 40,
                "duration": 0.5772727,
                "tempo": 120.0
            },
            {
                "start_time": 93.6818182,
                "end_time": 93.8659091,
                "pitch": 35,
                "velocity": 40,
                "duration": 0.1840909,
                "tempo": 120.0
            },
            {
                "start_time": 93.8818182,
                "end_time": 94.2659091,
                "pitch": 35,
                "velocity": 40,
                "duration": 0.3840909,
                "tempo": 120.0
            },
            {
                "start_time": 94.2818182,
                "end_time": 94.675,
                "pitch": 37,
                "velocity": 40,
                "duration": 0.3931818,
                "tempo": 120.0
            },
            {
                "start_time": 94.6931818,
                "end_time": 94.8727273,
                "pitch": 35,
                "velocity": 40,
                "duration": 0.1795455,
                "tempo": 120.0
            },
            {
                "start_time": 94.8886364,
                "end_time": 95.0681818,
                "pitch": 35,
                "velocity": 40,
                "duration": 0.1795455,
                "tempo": 120.0
            },
            {
                "start_time": 95.0840909,
                "end_time": 95.2727273,
                "pitch": 35,
                "velocity": 40,
                "duration": 0.1886364,
                "tempo": 120.0
            },
            {
                "start_time": 95.2909091,
                "end_time": 95.675,
                "pitch": 35,
                "velocity": 40,
                "duration": 0.3840909,
                "tempo": 120.0
            },
            {
                "start_time": 95.6909091,
                "end_time": 95.8704545,
                "pitch": 35,
                "velocity": 40,
                "duration": 0.1795455,
                "tempo": 120.0
            },
            {
                "start_time": 95.8886364,
                "end_time": 96.075,
                "pitch": 35,
                "velocity": 40,
                "duration": 0.1863636,
                "tempo": 120.0
            },
            {
                "start_time": 96.0931818,
                "end_time": 96.2818182,
                "pitch": 35,
                "velocity": 40,
                "duration": 0.1886364,
                "tempo": 120.0
            },
            {
                "start_time": 96.2977273,
                "end_time": 96.8727273,
                "pitch": 35,
                "velocity": 40,
                "duration": 0.575,
                "tempo": 120.0
            },
            {
                "start_time": 96.8909091,
                "end_time": 97.0727273,
                "pitch": 35,
                "velocity": 40,
                "duration": 0.1818182,
                "tempo": 120.0
            },
            {
                "start_time": 97.0909091,
                "end_time": 97.4772727,
                "pitch": 37,
                "velocity": 40,
                "duration": 0.3863636,
                "tempo": 120.0
            },
            {
                "start_time": 97.4931818,
                "end_time": 97.8863636,
                "pitch": 38,
                "velocity": 40,
                "duration": 0.3931818,
                "tempo": 120.0
            },
            {
                "start_time": 97.9045455,
                "end_time": 98.0840909,
                "pitch": 31,
                "velocity": 40,
                "duration": 0.1795455,
                "tempo": 120.0
            },
            {
                "start_time": 98.1,
                "end_time": 98.2795455,
                "pitch": 31,
                "velocity": 40,
                "duration": 0.1795455,
                "tempo": 120.0
            },
            {
                "start_time": 98.2954545,
                "end_time": 98.4840909,
                "pitch": 31,
                "velocity": 40,
                "duration": 0.1886364,
                "tempo": 120.0
            },
            {
                "start_time": 98.5,
                "end_time": 98.8863636,
                "pitch": 31,
                "velocity": 40,
                "duration": 0.3863636,
                "tempo": 120.0
            },
            {
                "start_time": 98.9022727,
                "end_time": 99.0818182,
                "pitch": 31,
                "velocity": 40,
                "duration": 0.1795455,
                "tempo": 120.0
            },
            {
                "start_time": 99.0977273,
                "end_time": 99.2863636,
                "pitch": 31,
                "velocity": 40,
                "duration": 0.1886364,
                "tempo": 120.0
            },
            {
                "start_time": 99.3045455,
                "end_time": 99.4931818,
                "pitch": 31,
                "velocity": 40,
                "duration": 0.1886364,
                "tempo": 120.0
            },
            {
                "start_time": 99.5090909,
                "end_time": 99.6886364,
                "pitch": 33,
                "velocity": 40,
                "duration": 0.1795455,
                "tempo": 120.0
            },
            {
                "start_time": 99.7045455,
                "end_time": 99.8840909,
                "pitch": 33,
                "velocity": 40,
                "duration": 0.1795455,
                "tempo": 120.0
            },
            {
                "start_time": 99.9022727,
                "end_time": 100.0886364,
                "pitch": 33,
                "velocity": 40,
                "duration": 0.1863636,
                "tempo": 120.0
            },
            {
                "start_time": 100.1068182,
                "end_time": 100.4909091,
                "pitch": 33,
                "velocity": 40,
                "duration": 0.3840909,
                "tempo": 120.0
            },
            {
                "start_time": 100.5068182,
                "end_time": 100.6863636,
                "pitch": 33,
                "velocity": 40,
                "duration": 0.1795455,
                "tempo": 120.0
            },
            {
                "start_time": 100.7045455,
                "end_time": 100.8909091,
                "pitch": 33,
                "velocity": 40,
                "duration": 0.1863636,
                "tempo": 120.0
            },
            {
                "start_time": 100.9090909,
                "end_time": 101.0977273,
                "pitch": 35,
                "velocity": 40,
                "duration": 0.1886364,
                "tempo": 120.0
            },
            {
                "start_time": 101.1136364,
                "end_time": 101.2931818,
                "pitch": 36,
                "velocity": 40,
                "duration": 0.1795455,
                "tempo": 120.0
            },
            {
                "start_time": 101.3113636,
                "end_time": 101.4909091,
                "pitch": 36,
                "velocity": 40,
                "duration": 0.1795455,
                "tempo": 120.0
            },
            {
                "start_time": 101.5068182,
                "end_time": 101.6954545,
                "pitch": 36,
                "velocity": 40,
                "duration": 0.1886364,
                "tempo": 120.0
            },
            {
                "start_time": 101.7113636,
                "end_time": 102.0977273,
                "pitch": 36,
                "velocity": 40,
                "duration": 0.3863636,
                "tempo": 120.0
            },
            {
                "start_time": 102.1136364,
                "end_time": 102.2931818,
                "pitch": 36,
                "velocity": 40,
                "duration": 0.1795455,
                "tempo": 120.0
            },
            {
                "start_time": 102.3090909,
                "end_time": 102.4931818,
                "pitch": 35,
                "velocity": 40,
                "duration": 0.1840909,
                "tempo": 120.0
            },
            {
                "start_time": 102.5113636,
                "end_time": 102.6954545,
                "pitch": 36,
                "velocity": 40,
                "duration": 0.1840909,
                "tempo": 120.0
            },
            {
                "start_time": 102.9113636,
                "end_time": 103.0954545,
                "pitch": 38,
                "velocity": 40,
                "duration": 0.1840909,
                "tempo": 120.0
            },
            {
                "start_time": 103.3136364,
                "end_time": 103.4977273,
                "pitch": 37,
                "velocity": 40,
                "duration": 0.1840909,
                "tempo": 120.0
            },
            {
                "start_time": 103.5136364,
                "end_time": 103.7,
                "pitch": 38,
                "velocity": 40,
                "duration": 0.1863636,
                "tempo": 120.0
            },
            {
                "start_time": 103.7159091,
                "end_time": 103.9,
                "pitch": 40,
                "velocity": 40,
                "duration": 0.1840909,
                "tempo": 120.0
            },
            {
                "start_time": 103.9181818,
                "end_time": 104.1045455,
                "pitch": 42,
                "velocity": 40,
                "duration": 0.1863636,
                "tempo": 120.0
            },
            {
                "start_time": 104.1227273,
                "end_time": 104.3113636,
                "pitch": 42,
                "velocity": 40,
                "duration": 0.1886364,
                "tempo": 120.0
            },
            {
                "start_time": 104.3272727,
                "end_time": 104.5113636,
                "pitch": 38,
                "velocity": 40,
                "duration": 0.1840909,
                "tempo": 120.0
            },
            {
                "start_time": 104.5272727,
                "end_time": 104.6113636,
                "pitch": 38,
                "velocity": 40,
                "duration": 0.0840909,
                "tempo": 120.0
            },
            {
                "start_time": 104.6272727,
                "end_time": 104.7113636,
                "pitch": 38,
                "velocity": 40,
                "duration": 0.0840909,
                "tempo": 120.0
            },
            {
                "start_time": 104.7272727,
                "end_time": 104.9068182,
                "pitch": 38,
                "velocity": 40,
                "duration": 0.1795455,
                "tempo": 120.0
            },
            {
                "start_time": 104.925,
                "end_time": 105.0068182,
                "pitch": 38,
                "velocity": 40,
                "duration": 0.0818182,
                "tempo": 120.0
            },
            {
                "start_time": 105.0227273,
                "end_time": 105.1045455,
                "pitch": 38,
                "velocity": 40,
                "duration": 0.0818182,
                "tempo": 120.0
            },
            {
                "start_time": 105.1204545,
                "end_time": 105.3045455,
                "pitch": 38,
                "velocity": 40,
                "duration": 0.1840909,
                "tempo": 120.0
            },
            {
                "start_time": 105.3227273,
                "end_time": 105.4045455,
                "pitch": 38,
                "velocity": 40,
                "duration": 0.0818182,
                "tempo": 120.0
            },
            {
                "start_time": 105.4227273,
                "end_time": 105.5068182,
                "pitch": 38,
                "velocity": 40,
                "duration": 0.0840909,
                "tempo": 120.0
            },
            {
                "start_time": 105.5227273,
                "end_time": 105.7113636,
                "pitch": 38,
                "velocity": 40,
                "duration": 0.1886364,
                "tempo": 120.0
            },
            {
                "start_time": 105.7295455,
                "end_time": 105.8136364,
                "pitch": 38,
                "velocity": 40,
                "duration": 0.0840909,
                "tempo": 120.0
            },
            {
                "start_time": 105.8318182,
                "end_time": 105.9159091,
                "pitch": 38,
                "velocity": 40,
                "duration": 0.0840909,
                "tempo": 120.0
            },
            {
                "start_time": 105.9340909,
                "end_time": 106.1136364,
                "pitch": 38,
                "velocity": 40,
                "duration": 0.1795455,
                "tempo": 120.0
            },
            {
                "start_time": 106.1295455,
                "end_time": 106.3090909,
                "pitch": 38,
                "velocity": 40,
                "duration": 0.1795455,
                "tempo": 120.0
            },
            {
                "start_time": 106.325,
                "end_time": 106.5136364,
                "pitch": 38,
                "velocity": 40,
                "duration": 0.1886364,
                "tempo": 120.0
            },
            {
                "start_time": 106.5318182,
                "end_time": 106.7204545,
                "pitch": 38,
                "velocity": 40,
                "duration": 0.1886364,
                "tempo": 120.0
            },
            {
                "start_time": 106.7363636,
                "end_time": 106.9159091,
                "pitch": 38,
                "velocity": 40,
                "duration": 0.1795455,
                "tempo": 120.0
            },
            {
                "start_time": 106.9318182,
                "end_time": 107.1113636,
                "pitch": 38,
                "velocity": 40,
                "duration": 0.1795455,
                "tempo": 120.0
            },
            {
                "start_time": 107.1295455,
                "end_time": 107.3136364,
                "pitch": 38,
                "velocity": 40,
                "duration": 0.1840909,
                "tempo": 120.0
            },
            {
                "start_time": 107.3295455,
                "end_time": 107.5136364,
                "pitch": 38,
                "velocity": 40,
                "duration": 0.1840909,
                "tempo": 120.0
            },
            {
                "start_time": 107.5318182,
                "end_time": 107.7159091,
                "pitch": 31,
                "velocity": 40,
                "duration": 0.1840909,
                "tempo": 120.0
            },
            {
                "start_time": 107.7318182,
                "end_time": 107.8159091,
                "pitch": 31,
                "velocity": 40,
                "duration": 0.0840909,
                "tempo": 120.0
            },
            {
                "start_time": 107.8340909,
                "end_time": 107.9181818,
                "pitch": 31,
                "velocity": 40,
                "duration": 0.0840909,
                "tempo": 120.0
            },
            {
                "start_time": 107.9340909,
                "end_time": 108.1227273,
                "pitch": 31,
                "velocity": 40,
                "duration": 0.1886364,
                "tempo": 120.0
            },
            {
                "start_time": 108.1386364,
                "end_time": 108.225,
                "pitch": 31,
                "velocity": 40,
                "duration": 0.0863636,
                "tempo": 120.0
            },
            {
                "start_time": 108.2431818,
                "end_time": 108.3272727,
                "pitch": 31,
                "velocity": 40,
                "duration": 0.0840909,
                "tempo": 120.0
            },
            {
                "start_time": 108.3454545,
                "end_time": 108.525,
                "pitch": 31,
                "velocity": 40,
                "duration": 0.1795455,
                "tempo": 120.0
            },
            {
                "start_time": 108.5409091,
                "end_time": 108.6227273,
                "pitch": 31,
                "velocity": 40,
                "duration": 0.0818182,
                "tempo": 120.0
            },
            {
                "start_time": 108.6386364,
                "end_time": 108.7204545,
                "pitch": 31,
                "velocity": 40,
                "duration": 0.0818182,
                "tempo": 120.0
            },
            {
                "start_time": 108.7363636,
                "end_time": 108.925,
                "pitch": 31,
                "velocity": 40,
                "duration": 0.1886364,
                "tempo": 120.0
            },
            {
                "start_time": 108.9409091,
                "end_time": 109.0272727,
                "pitch": 31,
                "velocity": 40,
                "duration": 0.0863636,
                "tempo": 120.0
            },
            {
                "start_time": 109.0454545,
                "end_time": 109.1295455,
                "pitch": 31,
                "velocity": 40,
                "duration": 0.0840909,
                "tempo": 120.0
            },
            {
                "start_time": 109.1477273,
                "end_time": 109.3272727,
                "pitch": 31,
                "velocity": 40,
                "duration": 0.1795455,
                "tempo": 120.0
            },
            {
                "start_time": 109.3431818,
                "end_time": 109.5227273,
                "pitch": 31,
                "velocity": 40,
                "duration": 0.1795455,
                "tempo": 120.0
            },
            {
                "start_time": 109.5386364,
                "end_time": 109.7272727,
                "pitch": 31,
                "velocity": 40,
                "duration": 0.1886364,
                "tempo": 120.0
            },
            {
                "start_time": 109.7454545,
                "end_time": 109.9340909,
                "pitch": 31,
                "velocity": 40,
                "duration": 0.1886364,
                "tempo": 120.0
            },
            {
                "start_time": 109.95,
                "end_time": 110.1295455,
                "pitch": 31,
                "velocity": 40,
                "duration": 0.1795455,
                "tempo": 120.0
            },
            {
                "start_time": 110.1454545,
                "end_time": 110.325,
                "pitch": 31,
                "velocity": 40,
                "duration": 0.1795455,
                "tempo": 120.0
            },
            {
                "start_time": 110.3431818,
                "end_time": 110.5295455,
                "pitch": 31,
                "velocity": 40,
                "duration": 0.1863636,
                "tempo": 120.0
            },
            {
                "start_time": 110.5477273,
                "end_time": 110.7363636,
                "pitch": 31,
                "velocity": 40,
                "duration": 0.1886364,
                "tempo": 120.0
            },
            {
                "start_time": 110.7522727,
                "end_time": 110.9318182,
                "pitch": 35,
                "velocity": 40,
                "duration": 0.1795455,
                "tempo": 120.0
            },
            {
                "start_time": 110.9477273,
                "end_time": 111.0295455,
                "pitch": 35,
                "velocity": 40,
                "duration": 0.0818182,
                "tempo": 120.0
            },
            {
                "start_time": 111.0477273,
                "end_time": 111.1295455,
                "pitch": 35,
                "velocity": 40,
                "duration": 0.0818182,
                "tempo": 120.0
            },
            {
                "start_time": 111.1454545,
                "end_time": 111.3318182,
                "pitch": 35,
                "velocity": 40,
                "duration": 0.1863636,
                "tempo": 120.0
            },
            {
                "start_time": 111.35,
                "end_time": 111.4363636,
                "pitch": 35,
                "velocity": 40,
                "duration": 0.0863636,
                "tempo": 120.0
            },
            {
                "start_time": 111.4522727,
                "end_time": 111.5386364,
                "pitch": 35,
                "velocity": 40,
                "duration": 0.0863636,
                "tempo": 120.0
            },
            {
                "start_time": 111.5545455,
                "end_time": 111.7340909,
                "pitch": 35,
                "velocity": 40,
                "duration": 0.1795455,
                "tempo": 120.0
            },
            {
                "start_time": 111.7522727,
                "end_time": 111.8340909,
                "pitch": 35,
                "velocity": 40,
                "duration": 0.0818182,
                "tempo": 120.0
            },
            {
                "start_time": 111.85,
                "end_time": 111.9318182,
                "pitch": 35,
                "velocity": 40,
                "duration": 0.0818182,
                "tempo": 120.0
            },
            {
                "start_time": 111.9477273,
                "end_time": 112.1363636,
                "pitch": 35,
                "velocity": 40,
                "duration": 0.1886364,
                "tempo": 120.0
            },
            {
                "start_time": 112.1522727,
                "end_time": 112.2386364,
                "pitch": 35,
                "velocity": 40,
                "duration": 0.0863636,
                "tempo": 120.0
            },
            {
                "start_time": 112.2545455,
                "end_time": 112.3409091,
                "pitch": 35,
                "velocity": 40,
                "duration": 0.0863636,
                "tempo": 120.0
            },
            {
                "start_time": 112.3568182,
                "end_time": 112.5386364,
                "pitch": 35,
                "velocity": 40,
                "duration": 0.1818182,
                "tempo": 120.0
            },
            {
                "start_time": 112.5545455,
                "end_time": 112.7340909,
                "pitch": 35,
                "velocity": 40,
                "duration": 0.1795455,
                "tempo": 120.0
            },
            {
                "start_time": 112.75,
                "end_time": 112.9386364,
                "pitch": 35,
                "velocity": 40,
                "duration": 0.1886364,
                "tempo": 120.0
            },
            {
                "start_time": 112.9545455,
                "end_time": 113.1431818,
                "pitch": 35,
                "velocity": 40,
                "duration": 0.1886364,
                "tempo": 120.0
            },
            {
                "start_time": 113.1613636,
                "end_time": 113.3409091,
                "pitch": 35,
                "velocity": 40,
                "duration": 0.1795455,
                "tempo": 120.0
            },
            {
                "start_time": 113.3568182,
                "end_time": 113.5363636,
                "pitch": 35,
                "velocity": 40,
                "duration": 0.1795455,
                "tempo": 120.0
            },
            {
                "start_time": 113.5522727,
                "end_time": 113.7409091,
                "pitch": 35,
                "velocity": 40,
                "duration": 0.1886364,
                "tempo": 120.0
            },
            {
                "start_time": 113.7568182,
                "end_time": 113.9454545,
                "pitch": 35,
                "velocity": 40,
                "duration": 0.1886364,
                "tempo": 120.0
            },
            {
                "start_time": 113.9636364,
                "end_time": 114.1431818,
                "pitch": 36,
                "velocity": 40,
                "duration": 0.1795455,
                "tempo": 120.0
            },
            {
                "start_time": 114.1590909,
                "end_time": 114.2409091,
                "pitch": 36,
                "velocity": 40,
                "duration": 0.0818182,
                "tempo": 120.0
            },
            {
                "start_time": 114.2568182,
                "end_time": 114.3386364,
                "pitch": 36,
                "velocity": 40,
                "duration": 0.0818182,
                "tempo": 120.0
            },
            {
                "start_time": 114.3545455,
                "end_time": 114.5431818,
                "pitch": 36,
                "velocity": 40,
                "duration": 0.1886364,
                "tempo": 120.0
            },
            {
                "start_time": 114.5613636,
                "end_time": 114.6454545,
                "pitch": 36,
                "velocity": 40,
                "duration": 0.0840909,
                "tempo": 120.0
            },
            {
                "start_time": 114.6636364,
                "end_time": 114.75,
                "pitch": 36,
                "velocity": 40,
                "duration": 0.0863636,
                "tempo": 120.0
            },
            {
                "start_time": 114.7659091,
                "end_time": 114.9454545,
                "pitch": 36,
                "velocity": 40,
                "duration": 0.1795455,
                "tempo": 120.0
            },
            {
                "start_time": 114.9613636,
                "end_time": 115.0431818,
                "pitch": 36,
                "velocity": 40,
                "duration": 0.0818182,
                "tempo": 120.0
            },
            {
                "start_time": 115.0590909,
                "end_time": 115.1409091,
                "pitch": 36,
                "velocity": 40,
                "duration": 0.0818182,
                "tempo": 120.0
            },
            {
                "start_time": 115.1590909,
                "end_time": 115.3431818,
                "pitch": 36,
                "velocity": 40,
                "duration": 0.1840909,
                "tempo": 120.0
            },
            {
                "start_time": 115.3590909,
                "end_time": 115.4431818,
                "pitch": 36,
                "velocity": 40,
                "duration": 0.0840909,
                "tempo": 120.0
            },
            {
                "start_time": 115.4590909,
                "end_time": 115.5431818,
                "pitch": 36,
                "velocity": 40,
                "duration": 0.0840909,
                "tempo": 120.0
            },
            {
                "start_time": 115.5613636,
                "end_time": 115.7454545,
                "pitch": 38,
                "velocity": 40,
                "duration": 0.1840909,
                "tempo": 120.0
            },
            {
                "start_time": 115.7613636,
                "end_time": 115.9477273,
                "pitch": 38,
                "velocity": 40,
                "duration": 0.1863636,
                "tempo": 120.0
            },
            {
                "start_time": 115.9636364,
                "end_time": 116.1522727,
                "pitch": 38,
                "velocity": 40,
                "duration": 0.1886364,
                "tempo": 120.0
            },
            {
                "start_time": 116.1681818,
                "end_time": 116.3568182,
                "pitch": 38,
                "velocity": 40,
                "duration": 0.1886364,
                "tempo": 120.0
            },
            {
                "start_time": 116.375,
                "end_time": 116.5545455,
                "pitch": 38,
                "velocity": 40,
                "duration": 0.1795455,
                "tempo": 120.0
            },
            {
                "start_time": 116.5704545,
                "end_time": 116.75,
                "pitch": 38,
                "velocity": 40,
                "duration": 0.1795455,
                "tempo": 120.0
            },
            {
                "start_time": 116.7659091,
                "end_time": 116.9545455,
                "pitch": 38,
                "velocity": 40,
                "duration": 0.1886364,
                "tempo": 120.0
            },
            {
                "start_time": 116.9704545,
                "end_time": 117.0568182,
                "pitch": 38,
                "velocity": 40,
                "duration": 0.0863636,
                "tempo": 120.0
            },
            {
                "start_time": 117.075,
                "end_time": 117.1590909,
                "pitch": 38,
                "velocity": 40,
                "duration": 0.0840909,
                "tempo": 120.0
            },
            {
                "start_time": 117.1772727,
                "end_time": 117.3613636,
                "pitch": 38,
                "velocity": 40,
                "duration": 0.1840909,
                "tempo": 120.0
            },
            {
                "start_time": 117.3795455,
                "end_time": 117.5636364,
                "pitch": 38,
                "velocity": 40,
                "duration": 0.1840909,
                "tempo": 120.0
            },
            {
                "start_time": 117.5795455,
                "end_time": 117.7636364,
                "pitch": 38,
                "velocity": 40,
                "duration": 0.1840909,
                "tempo": 120.0
            },
            {
                "start_time": 117.7795455,
                "end_time": 118.1590909,
                "pitch": 38,
                "velocity": 40,
                "duration": 0.3795455,
                "tempo": 120.0
            },
            {
                "start_time": 118.175,
                "end_time": 118.3545455,
                "pitch": 38,
                "velocity": 40,
                "duration": 0.1795455,
                "tempo": 120.0
            },
            {
                "start_time": 118.3727273,
                "end_time": 118.5590909,
                "pitch": 38,
                "velocity": 40,
                "duration": 0.1863636,
                "tempo": 120.0
            },
            {
                "start_time": 118.5772727,
                "end_time": 118.7659091,
                "pitch": 38,
                "velocity": 40,
                "duration": 0.1886364,
                "tempo": 120.0
            },
            {
                "start_time": 118.7818182,
                "end_time": 119.3590909,
                "pitch": 35,
                "velocity": 40,
                "duration": 0.5772727,
                "tempo": 120.0
            },
            {
                "start_time": 119.375,
                "end_time": 119.5613636,
                "pitch": 35,
                "velocity": 40,
                "duration": 0.1863636,
                "tempo": 120.0
            },
            {
                "start_time": 119.5772727,
                "end_time": 119.9636364,
                "pitch": 35,
                "velocity": 40,
                "duration": 0.3863636,
                "tempo": 120.0
            },
            {
                "start_time": 119.9795455,
                "end_time": 120.3636364,
                "pitch": 37,
                "velocity": 40,
                "duration": 0.3840909,
                "tempo": 120.0
            },
            {
                "start_time": 120.3795455,
                "end_time": 120.5636364,
                "pitch": 35,
                "velocity": 40,
                "duration": 0.1840909,
                "tempo": 120.0
            },
            {
                "start_time": 120.5818182,
                "end_time": 120.7659091,
                "pitch": 35,
                "velocity": 40,
                "duration": 0.1840909,
                "tempo": 120.0
            },
            {
                "start_time": 120.7818182,
                "end_time": 120.9659091,
                "pitch": 35,
                "velocity": 40,
                "duration": 0.1840909,
                "tempo": 120.0
            },
            {
                "start_time": 120.9818182,
                "end_time": 121.3681818,
                "pitch": 35,
                "velocity": 40,
                "duration": 0.3863636,
                "tempo": 120.0
            },
            {
                "start_time": 121.3840909,
                "end_time": 121.5681818,
                "pitch": 35,
                "velocity": 40,
                "duration": 0.1840909,
                "tempo": 120.0
            },
            {
                "start_time": 121.5863636,
                "end_time": 121.7727273,
                "pitch": 35,
                "velocity": 40,
                "duration": 0.1863636,
                "tempo": 120.0
            },
            {
                "start_time": 121.7909091,
                "end_time": 121.9795455,
                "pitch": 35,
                "velocity": 40,
                "duration": 0.1886364,
                "tempo": 120.0
            },
            {
                "start_time": 121.9954545,
                "end_time": 122.5772727,
                "pitch": 35,
                "velocity": 40,
                "duration": 0.5818182,
                "tempo": 120.0
            },
            {
                "start_time": 122.5931818,
                "end_time": 122.7818182,
                "pitch": 35,
                "velocity": 40,
                "duration": 0.1886364,
                "tempo": 120.0
            },
            {
                "start_time": 122.7977273,
                "end_time": 123.175,
                "pitch": 37,
                "velocity": 40,
                "duration": 0.3772727,
                "tempo": 120.0
            },
            {
                "start_time": 123.1909091,
                "end_time": 123.5772727,
                "pitch": 38,
                "velocity": 40,
                "duration": 0.3863636,
                "tempo": 120.0
            },
            {
                "start_time": 123.5931818,
                "end_time": 123.7772727,
                "pitch": 31,
                "velocity": 40,
                "duration": 0.1840909,
                "tempo": 120.0
            },
            {
                "start_time": 123.7954545,
                "end_time": 123.9795455,
                "pitch": 31,
                "velocity": 40,
                "duration": 0.1840909,
                "tempo": 120.0
            },
            {
                "start_time": 123.9954545,
                "end_time": 124.1840909,
                "pitch": 31,
                "velocity": 40,
                "duration": 0.1886364,
                "tempo": 120.0
            },
            {
                "start_time": 124.2022727,
                "end_time": 124.5863636,
                "pitch": 31,
                "velocity": 40,
                "duration": 0.3840909,
                "tempo": 120.0
            },
            {
                "start_time": 124.6022727,
                "end_time": 124.7818182,
                "pitch": 31,
                "velocity": 40,
                "duration": 0.1795455,
                "tempo": 120.0
            },
            {
                "start_time": 124.8,
                "end_time": 124.9818182,
                "pitch": 31,
                "velocity": 40,
                "duration": 0.1818182,
                "tempo": 120.0
            },
            {
                "start_time": 125.0,
                "end_time": 125.1818182,
                "pitch": 31,
                "velocity": 40,
                "duration": 0.1818182,
                "tempo": 120.0
            },
            {
                "start_time": 125.2,
                "end_time": 125.3840909,
                "pitch": 33,
                "velocity": 40,
                "duration": 0.1840909,
                "tempo": 120.0
            },
            {
                "start_time": 125.4,
                "end_time": 125.5840909,
                "pitch": 33,
                "velocity": 40,
                "duration": 0.1840909,
                "tempo": 120.0
            },
            {
                "start_time": 125.6022727,
                "end_time": 125.7863636,
                "pitch": 33,
                "velocity": 40,
                "duration": 0.1840909,
                "tempo": 120.0
            },
            {
                "start_time": 125.8022727,
                "end_time": 126.1886364,
                "pitch": 33,
                "velocity": 40,
                "duration": 0.3863636,
                "tempo": 120.0
            },
            {
                "start_time": 126.2045455,
                "end_time": 126.3886364,
                "pitch": 33,
                "velocity": 40,
                "duration": 0.1840909,
                "tempo": 120.0
            },
            {
                "start_time": 126.4045455,
                "end_time": 126.5931818,
                "pitch": 33,
                "velocity": 40,
                "duration": 0.1886364,
                "tempo": 120.0
            },
            {
                "start_time": 126.6090909,
                "end_time": 126.7977273,
                "pitch": 35,
                "velocity": 40,
                "duration": 0.1886364,
                "tempo": 120.0
            },
            {
                "start_time": 126.8159091,
                "end_time": 126.9954545,
                "pitch": 36,
                "velocity": 40,
                "duration": 0.1795455,
                "tempo": 120.0
            },
            {
                "start_time": 127.0113636,
                "end_time": 127.1909091,
                "pitch": 36,
                "velocity": 40,
                "duration": 0.1795455,
                "tempo": 120.0
            },
            {
                "start_time": 127.2068182,
                "end_time": 127.3954545,
                "pitch": 36,
                "velocity": 40,
                "duration": 0.1886364,
                "tempo": 120.0
            },
            {
                "start_time": 127.4136364,
                "end_time": 127.7977273,
                "pitch": 36,
                "velocity": 40,
                "duration": 0.3840909,
                "tempo": 120.0
            },
            {
                "start_time": 127.8136364,
                "end_time": 127.9931818,
                "pitch": 36,
                "velocity": 40,
                "duration": 0.1795455,
                "tempo": 120.0
            },
            {
                "start_time": 128.0090909,
                "end_time": 128.1977273,
                "pitch": 35,
                "velocity": 40,
                "duration": 0.1886364,
                "tempo": 120.0
            },
            {
                "start_time": 128.2159091,
                "end_time": 128.4045455,
                "pitch": 36,
                "velocity": 40,
                "duration": 0.1886364,
                "tempo": 120.0
            },
            {
                "start_time": 128.6159091,
                "end_time": 128.7954545,
                "pitch": 38,
                "velocity": 40,
                "duration": 0.1795455,
                "tempo": 120.0
            },
            {
                "start_time": 129.0136364,
                "end_time": 129.1954545,
                "pitch": 37,
                "velocity": 40,
                "duration": 0.1818182,
                "tempo": 120.0
            },
            {
                "start_time": 129.2136364,
                "end_time": 129.3977273,
                "pitch": 38,
                "velocity": 40,
                "duration": 0.1840909,
                "tempo": 120.0
            },
            {
                "start_time": 129.4136364,
                "end_time": 129.5977273,
                "pitch": 40,
                "velocity": 40,
                "duration": 0.1840909,
                "tempo": 120.0
            },
            {
                "start_time": 129.6159091,
                "end_time": 129.8045455,
                "pitch": 42,
                "velocity": 40,
                "duration": 0.1886364,
                "tempo": 120.0
            },
            {
                "start_time": 129.8204545,
                "end_time": 130.0090909,
                "pitch": 42,
                "velocity": 40,
                "duration": 0.1886364,
                "tempo": 120.0
            },
            {
                "start_time": 130.0272727,
                "end_time": 130.2113636,
                "pitch": 38,
                "velocity": 40,
                "duration": 0.1840909,
                "tempo": 120.0
            },
            {
                "start_time": 130.2272727,
                "end_time": 130.4113636,
                "pitch": 38,
                "velocity": 40,
                "duration": 0.1840909,
                "tempo": 120.0
            },
            {
                "start_time": 130.4295455,
                "end_time": 130.6090909,
                "pitch": 38,
                "velocity": 40,
                "duration": 0.1795455,
                "tempo": 120.0
            },
            {
                "start_time": 130.625,
                "end_time": 131.0068182,
                "pitch": 38,
                "velocity": 40,
                "duration": 0.3818182,
                "tempo": 120.0
            },
            {
                "start_time": 131.0227273,
                "end_time": 131.2068182,
                "pitch": 38,
                "velocity": 40,
                "duration": 0.1840909,
                "tempo": 120.0
            },
            {
                "start_time": 131.225,
                "end_time": 131.4090909,
                "pitch": 38,
                "velocity": 40,
                "duration": 0.1840909,
                "tempo": 120.0
            },
            {
                "start_time": 131.425,
                "end_time": 131.6090909,
                "pitch": 38,
                "velocity": 40,
                "duration": 0.1840909,
                "tempo": 120.0
            },
            {
                "start_time": 131.6272727,
                "end_time": 132.2136364,
                "pitch": 35,
                "velocity": 40,
                "duration": 0.5863636,
                "tempo": 120.0
            },
            {
                "start_time": 132.2295455,
                "end_time": 132.4159091,
                "pitch": 35,
                "velocity": 40,
                "duration": 0.1863636,
                "tempo": 120.0
            },
            {
                "start_time": 132.4318182,
                "end_time": 132.8159091,
                "pitch": 35,
                "velocity": 40,
                "duration": 0.3840909,
                "tempo": 120.0
            },
            {
                "start_time": 132.8318182,
                "end_time": 133.2181818,
                "pitch": 37,
                "velocity": 40,
                "duration": 0.3863636,
                "tempo": 120.0
            },
            {
                "start_time": 133.2340909,
                "end_time": 133.4181818,
                "pitch": 35,
                "velocity": 40,
                "duration": 0.1840909,
                "tempo": 120.0
            },
            {
                "start_time": 133.4363636,
                "end_time": 133.6204545,
                "pitch": 35,
                "velocity": 40,
                "duration": 0.1840909,
                "tempo": 120.0
            },
            {
                "start_time": 133.6363636,
                "end_time": 133.825,
                "pitch": 35,
                "velocity": 40,
                "duration": 0.1886364,
                "tempo": 120.0
            },
            {
                "start_time": 133.8431818,
                "end_time": 134.2272727,
                "pitch": 35,
                "velocity": 40,
                "duration": 0.3840909,
                "tempo": 120.0
            },
            {
                "start_time": 134.2431818,
                "end_time": 134.4227273,
                "pitch": 35,
                "velocity": 40,
                "duration": 0.1795455,
                "tempo": 120.0
            },
            {
                "start_time": 134.4409091,
                "end_time": 134.6272727,
                "pitch": 35,
                "velocity": 40,
                "duration": 0.1863636,
                "tempo": 120.0
            },
            {
                "start_time": 134.6454545,
                "end_time": 134.8340909,
                "pitch": 35,
                "velocity": 40,
                "duration": 0.1886364,
                "tempo": 120.0
            },
            {
                "start_time": 134.85,
                "end_time": 135.4272727,
                "pitch": 35,
                "velocity": 40,
                "duration": 0.5772727,
                "tempo": 120.0
            },
            {
                "start_time": 135.4431818,
                "end_time": 135.6295455,
                "pitch": 35,
                "velocity": 40,
                "duration": 0.1863636,
                "tempo": 120.0
            },
            {
                "start_time": 135.6454545,
                "end_time": 136.0318182,
                "pitch": 37,
                "velocity": 40,
                "duration": 0.3863636,
                "tempo": 120.0
            },
            {
                "start_time": 136.0477273,
                "end_time": 136.4340909,
                "pitch": 38,
                "velocity": 40,
                "duration": 0.3863636,
                "tempo": 120.0
            },
            {
                "start_time": 136.45,
                "end_time": 136.6340909,
                "pitch": 31,
                "velocity": 40,
                "duration": 0.1840909,
                "tempo": 120.0
            },
            {
                "start_time": 136.65,
                "end_time": 136.8340909,
                "pitch": 31,
                "velocity": 40,
                "duration": 0.1840909,
                "tempo": 120.0
            },
            {
                "start_time": 136.85,
                "end_time": 137.0363636,
                "pitch": 31,
                "velocity": 40,
                "duration": 0.1863636,
                "tempo": 120.0
            },
            {
                "start_time": 137.0522727,
                "end_time": 137.4386364,
                "pitch": 31,
                "velocity": 40,
                "duration": 0.3863636,
                "tempo": 120.0
            },
            {
                "start_time": 137.4545455,
                "end_time": 137.6386364,
                "pitch": 31,
                "velocity": 40,
                "duration": 0.1840909,
                "tempo": 120.0
            },
            {
                "start_time": 137.6568182,
                "end_time": 137.8454545,
                "pitch": 31,
                "velocity": 40,
                "duration": 0.1886364,
                "tempo": 120.0
            },
            {
                "start_time": 137.8613636,
                "end_time": 138.05,
                "pitch": 31,
                "velocity": 40,
                "duration": 0.1886364,
                "tempo": 120.0
            },
            {
                "start_time": 138.0659091,
                "end_time": 138.2477273,
                "pitch": 33,
                "velocity": 40,
                "duration": 0.1818182,
                "tempo": 120.0
            },
            {
                "start_time": 138.2636364,
                "end_time": 138.4431818,
                "pitch": 33,
                "velocity": 40,
                "duration": 0.1795455,
                "tempo": 120.0
            },
            {
                "start_time": 138.4590909,
                "end_time": 138.6477273,
                "pitch": 33,
                "velocity": 40,
                "duration": 0.1886364,
                "tempo": 120.0
            },
            {
                "start_time": 138.6636364,
                "end_time": 139.05,
                "pitch": 33,
                "velocity": 40,
                "duration": 0.3863636,
                "tempo": 120.0
            },
            {
                "start_time": 139.0659091,
                "end_time": 139.2454545,
                "pitch": 33,
                "velocity": 40,
                "duration": 0.1795455,
                "tempo": 120.0
            },
            {
                "start_time": 139.2613636,
                "end_time": 139.45,
                "pitch": 33,
                "velocity": 40,
                "duration": 0.1886364,
                "tempo": 120.0
            },
            {
                "start_time": 139.4659091,
                "end_time": 139.6545455,
                "pitch": 35,
                "velocity": 40,
                "duration": 0.1886364,
                "tempo": 120.0
            },
            {
                "start_time": 139.6727273,
                "end_time": 139.8522727,
                "pitch": 36,
                "velocity": 40,
                "duration": 0.1795455,
                "tempo": 120.0
            },
            {
                "start_time": 139.8681818,
                "end_time": 140.0477273,
                "pitch": 36,
                "velocity": 40,
                "duration": 0.1795455,
                "tempo": 120.0
            },
            {
                "start_time": 140.0636364,
                "end_time": 140.2522727,
                "pitch": 36,
                "velocity": 40,
                "duration": 0.1886364,
                "tempo": 120.0
            },
            {
                "start_time": 140.2704545,
                "end_time": 140.6545455,
                "pitch": 36,
                "velocity": 40,
                "duration": 0.3840909,
                "tempo": 120.0
            },
            {
                "start_time": 140.6704545,
                "end_time": 140.85,
                "pitch": 36,
                "velocity": 40,
                "duration": 0.1795455,
                "tempo": 120.0
            },
            {
                "start_time": 140.8681818,
                "end_time": 141.0545455,
                "pitch": 35,
                "velocity": 40,
                "duration": 0.1863636,
                "tempo": 120.0
            },
            {
                "start_time": 141.0727273,
                "end_time": 141.2613636,
                "pitch": 36,
                "velocity": 40,
                "duration": 0.1886364,
                "tempo": 120.0
            },
            {
                "start_time": 141.4727273,
                "end_time": 141.6522727,
                "pitch": 38,
                "velocity": 40,
                "duration": 0.1795455,
                "tempo": 120.0
            },
            {
                "start_time": 141.8704545,
                "end_time": 142.0568182,
                "pitch": 37,
                "velocity": 40,
                "duration": 0.1863636,
                "tempo": 120.0
            },
            {
                "start_time": 142.0727273,
                "end_time": 142.2568182,
                "pitch": 38,
                "velocity": 40,
                "duration": 0.1840909,
                "tempo": 120.0
            },
            {
                "start_time": 142.2727273,
                "end_time": 142.4590909,
                "pitch": 40,
                "velocity": 40,
                "duration": 0.1863636,
                "tempo": 120.0
            },
            {
                "start_time": 142.475,
                "end_time": 142.6636364,
                "pitch": 42,
                "velocity": 40,
                "duration": 0.1886364,
                "tempo": 120.0
            },
            {
                "start_time": 142.6795455,
                "end_time": 142.8681818,
                "pitch": 42,
                "velocity": 40,
                "duration": 0.1886364,
                "tempo": 120.0
            }
        ]
    }
}