{
    "mood": "happy",
    "instruments": {
        "Church Organ": [
            {
                "start_time": 0.0,
                "end_time": 0.2840909,
                "pitch": 60,
                "velocity": 64,
                "duration": 0.2840909,
                "tempo": 120.0
            },
            {
                "start_time": 0.2977273,
                "end_time": 0.3818182,
                "pitch": 60,
                "velocity": 64,
                "duration": 0.0840909,
                "tempo": 120.0
            },
            {
                "start_time": 0.4,
                "end_time": 1.0795455,
                "pitch": 67,
                "velocity": 64,
                "duration": 0.6795455,
                "tempo": 120.0
            },
            {
                "start_time": 1.0977273,
                "end_time": 1.3090909,
                "pitch": 65,
                "velocity": 64,
                "duration": 0.2113636,
                "tempo": 120.0
            },
            {
                "start_time": 1.3272727,
                "end_time": 1.5431818,
                "pitch": 67,
                "velocity": 64,
                "duration": 0.2159091,
                "tempo": 120.0
            },
            {
                "start_time": 1.5613636,
                "end_time": 1.7795455,
                "pitch": 72,
                "velocity": 64,
                "duration": 0.2181818,
                "tempo": 120.0
            },
            {
                "start_time": 1.7954545,
                "end_time": 3.4090909,
                "pitch": 70,
                "velocity": 64,
                "duration": 1.6136364,
                "tempo": 120.0
            },
            {
                "start_time": 3.4272727,
                "end_time": 3.6431818,
                "pitch": 65,
                "velocity": 64,
                "duration": 0.2159091,
                "tempo": 120.0
            },
            {
                "start_time": 3.6613636,
                "end_time": 7.3954545,
                "pitch": 67,
                "velocity": 64,
                "duration": 3.7340909,
                "tempo": 120.0
            },
            {
                "start_time": 7.8522727,
                "end_time": 8.1886364,
                "pitch": 48,
                "velocity": 64,
                "duration": 0.3363636,
                "tempo": 120.0
            },
            {
                "start_time": 8.2045455,
                "end_time": 8.3045455,
                "pitch": 48,
                "velocity": 64,
                "duration": 0.1,
                "tempo": 120.0
            },
            {
                "start_time": 8.3227273,
                "end_time": 9.0159091,
                "pitch": 55,
                "velocity": 64,
                "duration": 0.6931818,
                "tempo": 120.0
            },
            {
                "start_time": 9.0318182,
                "end_time": 9.2431818,
                "pitch": 60,
                "velocity": 64,
                "duration": 0.2113636,
                "tempo": 120.0
            },
            {
                "start_time": 9.2613636,
                "end_time": 10.3954545,
                "pitch": 67,
                "velocity": 64,
                "duration": 1.1340909,
                "tempo": 120.0
            },
            {
                "start_time": 10.4113636,
                "end_time": 10.6181818,
                "pitch": 65,
                "velocity": 64,
                "duration": 0.2068182,
                "tempo": 120.0
            },
            {
                "start_time": 10.6363636,
                "end_time": 10.8590909,
                "pitch": 67,
                "velocity": 64,
                "duration": 0.2227273,
                "tempo": 120.0
            },
            {
                "start_time": 10.875,
                "end_time": 11.0977273,
                "pitch": 72,
                "velocity": 64,
                "duration": 0.2227273,
                "tempo": 120.0
            },
            {
                "start_time": 11.1159091,
                "end_time": 12.0363636,
                "pitch": 70,
                "velocity": 64,
                "duration": 0.9204545,
                "tempo": 120.0
            },
            {
                "start_time": 12.0522727,
                "end_time": 12.7227273,
                "pitch": 68,
                "velocity": 64,
                "duration": 0.6704545,
                "tempo": 120.0
            },
            {
                "start_time": 12.7409091,
                "end_time": 12.9636364,
                "pitch": 65,
                "velocity": 64,
                "duration": 0.2227273,
                "tempo": 120.0
            },
            {
                "start_time": 12.9818182,
                "end_time": 14.8409091,
                "pitch": 67,
                "velocity": 64,
                "duration": 1.8590909,
                "tempo": 120.0
            },
            {
                "start_time": 14.8568182,
                "end_time": 15.9818182,
                "pitch": 75,
                "velocity": 64,
                "duration": 1.125,
                "tempo": 120.0
            },
            {
                "start_time": 15.9977273,
                "end_time": 16.2068182,
                "pitch": 74,
                "velocity": 64,
                "duration": 0.2090909,
                "tempo": 120.0
            },
            {
                "start_time": 16.2227273,
                "end_time": 16.4409091,
                "pitch": 75,
                "velocity": 64,
                "duration": 0.2181818,
                "tempo": 120.0
            },
            {
                "start_time": 16.4568182,
                "end_time": 16.675,
                "pitch": 79,
                "velocity": 64,
                "duration": 0.2181818,
                "tempo": 120.0
            },
            {
                "start_time": 16.6909091,
                "end_time": 17.3772727,
                "pitch": 77,
                "velocity": 64,
                "duration": 0.6863636,
                "tempo": 120.0
            },
            {
                "start_time": 17.3931818,
                "end_time": 18.0681818,
                "pitch": 74,
                "velocity": 64,
                "duration": 0.675,
                "tempo": 120.0
            },
            {
                "start_time": 18.0840909,
                "end_time": 18.5363636,
                "pitch": 70,
                "velocity": 64,
                "duration": 0.4522727,
                "tempo": 120.0
            },
            {
                "start_time": 18.5545455,
                "end_time": 19.7113636,
                "pitch": 75,
                "velocity": 64,
                "duration": 1.1568182,
                "tempo": 120.0
            },
            {
                "start_time": 19.7272727,
                "end_time": 19.9340909,
                "pitch": 74,
                "velocity": 64,
                "duration": 0.2068182,
                "tempo": 120.0
            },
            {
                "start_time": 19.95,
                "end_time": 20.1636364,
                "pitch": 72,
                "velocity": 64,
                "duration": 0.2136364,
                "tempo": 120.0
            },
            {
                "start_time": 20.1795455,
                "end_time": 20.3931818,
                "pitch": 70,
                "velocity": 64,
                "duration": 0.2136364,
                "tempo": 120.0
            },
            {
                "start_time": 20.4090909,
                "end_time": 22.2795455,
                "pitch": 72,
                "velocity": 64,
                "duration": 1.8704545,
                "tempo": 120.0
            },
            {
                "start_time": 22.2977273,
                "end_time": 22.7386364,
                "pitch": 67,
                "velocity": 64,
                "duration": 0.4409091,
                "tempo": 120.0
            },
            {
                "start_time": 22.7545455,
                "end_time": 23.4363636,
                "pitch": 68,
                "velocity": 64,
                "duration": 0.6818182,
                "tempo": 120.0
            },
            {
                "start_time": 23.4522727,
                "end_time": 23.6659091,
                "pitch": 67,
                "velocity": 64,
                "duration": 0.2136364,
                "tempo": 120.0
            },
            {
                "start_time": 23.6818182,
                "end_time": 23.9,
                "pitch": 65,
                "velocity": 64,
                "duration": 0.2181818,
                "tempo": 120.0
            },
            {
                "start_time": 23.9159091,
                "end_time": 24.3636364,
                "pitch": 63,
                "velocity": 64,
                "duration": 0.4477273,
                "tempo": 120.0
            },
            {
                "start_time": 24.3795455,
                "end_time": 26.0,
                "pitch": 67,
                "velocity": 64,
                "duration": 1.6204545,
                "tempo": 120.0
            },
            {
                "start_time": 26.0159091,
                "end_time": 26.4568182,
                "pitch": 65,
                "velocity": 64,
                "duration": 0.4409091,
                "tempo": 120.0
            },
            {
                "start_time": 26.475,
                "end_time": 27.1568182,
                "pitch": 67,
                "velocity": 64,
                "duration": 0.6818182,
                "tempo": 120.0
            },
            {
                "start_time": 27.1727273,
                "end_time": 27.3840909,
                "pitch": 65,
                "velocity": 64,
                "duration": 0.2113636,
                "tempo": 120.0
            },
            {
                "start_time": 27.4022727,
                "end_time": 27.6181818,
                "pitch": 63,
                "velocity": 64,
                "duration": 0.2159091,
                "tempo": 120.0
            },
            {
                "start_time": 27.6363636,
                "end_time": 28.0886364,
                "pitch": 62,
                "velocity": 64,
                "duration": 0.4522727,
                "tempo": 120.0
            },
            {
                "start_time": 28.1045455,
                "end_time": 29.7181818,
                "pitch": 65,
                "velocity": 64,
                "duration": 1.6136364,
                "tempo": 120.0
            },
            {
                "start_time": 29.7363636,
                "end_time": 30.1772727,
                "pitch": 67,
                "velocity": 64,
                "duration": 0.4409091,
                "tempo": 120.0
            },
            {
                "start_time": 30.1931818,
                "end_time": 30.8795455,
                "pitch": 58,
                "velocity": 64,
                "duration": 0.6863636,
                "tempo": 120.0
            },
            {
                "start_time": 30.8977273,
                "end_time": 31.1159091,
                "pitch": 60,
                "velocity": 64,
                "duration": 0.2181818,
                "tempo": 120.0
            },
            {
                "start_time": 31.1318182,
                "end_time": 31.5840909,
                "pitch": 62,
                "velocity": 64,
                "duration": 0.4522727,
                "tempo": 120.0
            },
            {
                "start_time": 31.6,
                "end_time": 32.0431818,
                "pitch": 65,
                "velocity": 64,
                "duration": 0.4431818,
                "tempo": 120.0
            },
            {
                "start_time": 32.0590909,
                "end_time": 32.7409091,
                "pitch": 56,
                "velocity": 64,
                "duration": 0.6818182,
                "tempo": 120.0
            },
            {
                "start_time": 32.7568182,
                "end_time": 32.9704545,
                "pitch": 58,
                "velocity": 64,
                "duration": 0.2136364,
                "tempo": 120.0
            },
            {
                "start_time": 32.9863636,
                "end_time": 33.4386364,
                "pitch": 60,
                "velocity": 64,
                "duration": 0.4522727,
                "tempo": 120.0
            },
            {
                "start_time": 33.4545455,
                "end_time": 33.9068182,
                "pitch": 58,
                "velocity": 64,
                "duration": 0.4522727,
                "tempo": 120.0
            },
            {
                "start_time": 33.925,
                "end_time": 34.6068182,
                "pitch": 50,
                "velocity": 64,
                "duration": 0.6818182,
                "tempo": 120.0
            },
            {
                "start_time": 34.6227273,
                "end_time": 34.8340909,
                "pitch": 51,
                "velocity": 64,
                "duration": 0.2113636,
                "tempo": 120.0
            },
            {
                "start_time": 34.8522727,
                "end_time": 35.3045455,
                "pitch": 53,
                "velocity": 64,
                "duration": 0.4522727,
                "tempo": 120.0
            },
            {
                "start_time": 35.3204545,
                "end_time": 37.1681818,
                "pitch": 55,
                "velocity": 64,
                "duration": 1.8477273,
                "tempo": 120.0
            },
            {
                "start_time": 37.1863636,
                "end_time": 37.8613636,
                "pitch": 56,
                "velocity": 64,
                "duration": 0.675,
                "tempo": 120.0
            },
            {
                "start_time": 37.8772727,
                "end_time": 38.5545455,
                "pitch": 60,
                "velocity": 64,
                "duration": 0.6772727,
                "tempo": 120.0
            },
            {
                "start_time": 38.5704545,
                "end_time": 39.0340909,
                "pitch": 63,
                "velocity": 64,
                "duration": 0.4636364,
                "tempo": 120.0
            },
            {
                "start_time": 39.05,
                "end_time": 39.7272727,
                "pitch": 62,
                "velocity": 64,
                "duration": 0.6772727,
                "tempo": 120.0
            },
            {
                "start_time": 39.7431818,
                "end_time": 39.9613636,
                "pitch": 60,
                "velocity": 64,
                "duration": 0.2181818,
                "tempo": 120.0
            },
            {
                "start_time": 39.9772727,
                "end_time": 40.1909091,
                "pitch": 58,
                "velocity": 64,
                "duration": 0.2136364,
                "tempo": 120.0
            },
            {
                "start_time": 40.2068182,
                "end_time": 40.4204545,
                "pitch": 57,
                "velocity": 64,
                "duration": 0.2136364,
                "tempo": 120.0
            },
            {
                "start_time": 40.4363636,
                "end_time": 40.6545455,
                "pitch": 58,
                "velocity": 64,
                "duration": 0.2181818,
                "tempo": 120.0
            },
            {
                "start_time": 40.6704545,
                "end_time": 40.8886364,
                "pitch": 55,
                "velocity": 64,
                "duration": 0.2181818,
                "tempo": 120.0
            },
            {
                "start_time": 40.9045455,
                "end_time": 41.5818182,
                "pitch": 68,
                "velocity": 64,
                "duration": 0.6772727,
                "tempo": 120.0
            },
            {
                "start_time": 41.5977273,
                "end_time": 42.2840909,
                "pitch": 72,
                "velocity": 64,
                "duration": 0.6863636,
                "tempo": 120.0
            },
            {
                "start_time": 42.3022727,
                "end_time": 42.7545455,
                "pitch": 75,
                "velocity": 64,
                "duration": 0.4522727,
                "tempo": 120.0
            },
            {
                "start_time": 42.7704545,
                "end_time": 44.6068182,
                "pitch": 74,
                "velocity": 64,
                "duration": 1.8363636,
                "tempo": 120.0
            },
            {
                "start_time": 44.625,
                "end_time": 45.3113636,
                "pitch": 56,
                "velocity": 64,
                "duration": 0.6863636,
                "tempo": 120.0
            },
            {
                "start_time": 45.3272727,
                "end_time": 46.0045455,
                "pitch": 60,
                "velocity": 64,
                "duration": 0.6772727,
                "tempo": 120.0
            },
            {
                "start_time": 46.0204545,
                "end_time": 46.4727273,
                "pitch": 63,
                "velocity": 64,
                "duration": 0.4522727,
                "tempo": 120.0
            },
            {
                "start_time": 46.4886364,
                "end_time": 47.1659091,
                "pitch": 62,
                "velocity": 64,
                "duration": 0.6772727,
                "tempo": 120.0
            },
            {
                "start_time": 47.1818182,
                "end_time": 47.4,
                "pitch": 60,
                "velocity": 64,
                "duration": 0.2181818,
                "tempo": 120.0
            },
            {
                "start_time": 47.4159091,
                "end_time": 47.6340909,
                "pitch": 58,
                "velocity": 64,
                "duration": 0.2181818,
                "tempo": 120.0
            },
            {
                "start_time": 47.6522727,
                "end_time": 47.8681818,
                "pitch": 57,
                "velocity": 64,
                "duration": 0.2159091,
                "tempo": 120.0
            },
            {
                "start_time": 47.8863636,
                "end_time": 48.1045455,
                "pitch": 58,
                "velocity": 64,
                "duration": 0.2181818,
                "tempo": 120.0
            },
            {
                "start_time": 48.1204545,
                "end_time": 48.3386364,
                "pitch": 55,
                "velocity": 64,
                "duration": 0.2181818,
                "tempo": 120.0
            },
            {
                "start_time": 48.3545455,
                "end_time": 49.0318182,
                "pitch": 68,
                "velocity": 64,
                "duration": 0.6772727,
                "tempo": 120.0
            },
            {
                "start_time": 49.0477273,
                "end_time": 49.7227273,
                "pitch": 72,
                "velocity": 64,
                "duration": 0.675,
                "tempo": 120.0
            },
            {
                "start_time": 49.7409091,
                "end_time": 50.1931818,
                "pitch": 75,
                "velocity": 64,
                "duration": 0.4522727,
                "tempo": 120.0
            },
            {
                "start_time": 50.2090909,
                "end_time": 52.0568182,
                "pitch": 79,
                "velocity": 64,
                "duration": 1.8477273,
                "tempo": 120.0
            },
            {
                "start_time": 52.075,
                "end_time": 52.2863636,
                "pitch": 55,
                "velocity": 64,
                "duration": 0.2113636,
                "tempo": 120.0
            },
            {
                "start_time": 52.3022727,
                "end_time": 52.5159091,
                "pitch": 53,
                "velocity": 64,
                "duration": 0.2136364,
                "tempo": 120.0
            },
            {
                "start_time": 52.5318182,
                "end_time": 52.75,
                "pitch": 55,
                "velocity": 64,
                "duration": 0.2181818,
                "tempo": 120.0
            },
            {
                "start_time": 52.7659091,
                "end_time": 53.2181818,
                "pitch": 48,
                "velocity": 64,
                "duration": 0.4522727,
                "tempo": 120.0
            },
            {
                "start_time": 53.2363636,
                "end_time": 53.4545455,
                "pitch": 50,
                "velocity": 64,
                "duration": 0.2181818,
                "tempo": 120.0
            },
            {
                "start_time": 53.4704545,
                "end_time": 53.6886364,
                "pitch": 51,
                "velocity": 64,
                "duration": 0.2181818,
                "tempo": 120.0
            },
            {
                "start_time": 53.7045455,
                "end_time": 53.9227273,
                "pitch": 53,
                "velocity": 64,
                "duration": 0.2181818,
                "tempo": 120.0
            },
            {
                "start_time": 53.9386364,
                "end_time": 54.1522727,
                "pitch": 53,
                "velocity": 64,
                "duration": 0.2136364,
                "tempo": 120.0
            },
            {
                "start_time": 54.1681818,
                "end_time": 54.3818182,
                "pitch": 51,
                "velocity": 64,
                "duration": 0.2136364,
                "tempo": 120.0
            },
            {
                "start_time": 54.3977273,
                "end_time": 54.6159091,
                "pitch": 53,
                "velocity": 64,
                "duration": 0.2181818,
                "tempo": 120.0
            },
            {
                "start_time": 54.6318182,
                "end_time": 55.0795455,
                "pitch": 46,
                "velocity": 64,
                "duration": 0.4477273,
                "tempo": 120.0
            },
            {
                "start_time": 55.0954545,
                "end_time": 55.3090909,
                "pitch": 48,
                "velocity": 64,
                "duration": 0.2136364,
                "tempo": 120.0
            },
            {
                "start_time": 55.325,
                "end_time": 55.5431818,
                "pitch": 50,
                "velocity": 64,
                "duration": 0.2181818,
                "tempo": 120.0
            },
            {
                "start_time": 55.5590909,
                "end_time": 55.7772727,
                "pitch": 51,
                "velocity": 64,
                "duration": 0.2181818,
                "tempo": 120.0
            },
            {
                "start_time": 55.7931818,
                "end_time": 56.0113636,
                "pitch": 55,
                "velocity": 64,
                "duration": 0.2181818,
                "tempo": 120.0
            },
            {
                "start_time": 56.0272727,
                "end_time": 56.2454545,
                "pitch": 53,
                "velocity": 64,
                "duration": 0.2181818,
                "tempo": 120.0
            },
            {
                "start_time": 56.2636364,
                "end_time": 56.4795455,
                "pitch": 55,
                "velocity": 64,
                "duration": 0.2159091,
                "tempo": 120.0
            },
            {
                "start_time": 56.4977273,
                "end_time": 56.9454545,
                "pitch": 48,
                "velocity": 64,
                "duration": 0.4477273,
                "tempo": 120.0
            },
            {
                "start_time": 56.9613636,
                "end_time": 57.1727273,
                "pitch": 50,
                "velocity": 64,
                "duration": 0.2113636,
                "tempo": 120.0
            },
            {
                "start_time": 57.1909091,
                "end_time": 57.4068182,
                "pitch": 51,
                "velocity": 64,
                "duration": 0.2159091,
                "tempo": 120.0
            },
            {
                "start_time": 57.425,
                "end_time": 57.6431818,
                "pitch": 53,
                "velocity": 64,
                "duration": 0.2181818,
                "tempo": 120.0
            },
            {
                "start_time": 57.6590909,
                "end_time": 57.8704545,
                "pitch": 53,
                "velocity": 64,
                "duration": 0.2113636,
                "tempo": 120.0
            },
            {
                "start_time": 57.8886364,
                "end_time": 58.1,
                "pitch": 51,
                "velocity": 64,
                "duration": 0.2113636,
                "tempo": 120.0
            },
            {
                "start_time": 58.1181818,
                "end_time": 58.3340909,
                "pitch": 53,
                "velocity": 64,
                "duration": 0.2159091,
                "tempo": 120.0
            },
            {
                "start_time": 58.3522727,
                "end_time": 58.8045455,
                "pitch": 46,
                "velocity": 64,
                "duration": 0.4522727,
                "tempo": 120.0
            },
            {
                "start_time": 58.8204545,
                "end_time": 59.0386364,
                "pitch": 48,
                "velocity": 64,
                "duration": 0.2181818,
                "tempo": 120.0
            },
            {
                "start_time": 59.0545455,
                "end_time": 59.2727273,
                "pitch": 50,
                "velocity": 64,
                "duration": 0.2181818,
                "tempo": 120.0
            },
            {
                "start_time": 59.2886364,
                "end_time": 59.5068182,
                "pitch": 51,
                "velocity": 64,
                "duration": 0.2181818,
                "tempo": 120.0
            },
            {
                "start_time": 59.525,
                "end_time": 59.7363636,
                "pitch": 55,
                "velocity": 64,
                "duration": 0.2113636,
                "tempo": 120.0
            },
            {
                "start_time": 59.7522727,
                "end_time": 59.9659091,
                "pitch": 53,
                "velocity": 64,
                "duration": 0.2136364,
                "tempo": 120.0
            },
            {
                "start_time": 59.9818182,
                "end_time": 60.2,
                "pitch": 55,
                "velocity": 64,
                "duration": 0.2181818,
                "tempo": 120.0
            },
            {
                "start_time": 60.2159091,
                "end_time": 60.6636364,
                "pitch": 60,
                "velocity": 64,
                "duration": 0.4477273,
                "tempo": 120.0
            },
            {
                "start_time": 60.6795455,
                "end_time": 60.8931818,
                "pitch": 58,
                "velocity": 64,
                "duration": 0.2136364,
                "tempo": 120.0
            },
            {
                "start_time": 60.9090909,
                "end_time": 61.1272727,
                "pitch": 56,
                "velocity": 64,
                "duration": 0.2181818,
                "tempo": 120.0
            },
            {
                "start_time": 61.1431818,
                "end_time": 61.3613636,
                "pitch": 55,
                "velocity": 64,
                "duration": 0.2181818,
                "tempo": 120.0
            },
            {
                "start_time": 61.3795455,
                "end_time": 61.5954545,
                "pitch": 53,
                "velocity": 64,
                "duration": 0.2159091,
                "tempo": 120.0
            },
            {
                "start_time": 61.6136364,
                "end_time": 61.8318182,
                "pitch": 51,
                "velocity": 64,
                "duration": 0.2181818,
                "tempo": 120.0
            },
            {
                "start_time": 61.8477273,
                "end_time": 62.0659091,
                "pitch": 53,
                "velocity": 64,
                "duration": 0.2181818,
                "tempo": 120.0
            },
            {
                "start_time": 62.0818182,
                "end_time": 62.5295455,
                "pitch": 55,
                "velocity": 64,
                "duration": 0.4477273,
                "tempo": 120.0
            },
            {
                "start_time": 62.5454545,
                "end_time": 62.7590909,
                "pitch": 50,
                "velocity": 64,
                "duration": 0.2136364,
                "tempo": 120.0
            },
            {
                "start_time": 62.775,
                "end_time": 62.9931818,
                "pitch": 48,
                "velocity": 64,
                "duration": 0.2181818,
                "tempo": 120.0
            },
            {
                "start_time": 63.0090909,
                "end_time": 63.2272727,
                "pitch": 46,
                "velocity": 64,
                "duration": 0.2181818,
                "tempo": 120.0
            },
            {
                "start_time": 63.2431818,
                "end_time": 64.8568182,
                "pitch": 48,
                "velocity": 64,
                "duration": 1.6136364,
                "tempo": 120.0
            },
            {
                "start_time": 64.875,
                "end_time": 66.9704545,
                "pitch": 60,
                "velocity": 64,
                "duration": 2.0954545,
                "tempo": 120.0
            },
            {
                "start_time": 66.9704545,
                "end_time": 67.1840909,
                "pitch": 55,
                "velocity": 64,
                "duration": 0.2136364,
                "tempo": 120.0
            },
            {
                "start_time": 67.2,
                "end_time": 67.4113636,
                "pitch": 53,
                "velocity": 64,
                "duration": 0.2113636,
                "tempo": 120.0
            },
            {
                "start_time": 67.4295455,
                "end_time": 67.6454545,
                "pitch": 55,
                "velocity": 64,
                "duration": 0.2159091,
                "tempo": 120.0
            },
            {
                "start_time": 67.6636364,
                "end_time": 68.1090909,
                "pitch": 48,
                "velocity": 64,
                "duration": 0.4454545,
                "tempo": 120.0
            },
            {
                "start_time": 68.1272727,
                "end_time": 68.3386364,
                "pitch": 50,
                "velocity": 64,
                "duration": 0.2113636,
                "tempo": 120.0
            },
            {
                "start_time": 68.3545455,
                "end_time": 68.5727273,
                "pitch": 51,
                "velocity": 64,
                "duration": 0.2181818,
                "tempo": 120.0
            },
            {
                "start_time": 68.5909091,
                "end_time": 68.8068182,
                "pitch": 53,
                "velocity": 64,
                "duration": 0.2159091,
                "tempo": 120.0
            },
            {
                "start_time": 68.825,
                "end_time": 69.0363636,
                "pitch": 53,
                "velocity": 64,
                "duration": 0.2113636,
                "tempo": 120.0
            },
            {
                "start_time": 69.0545455,
                "end_time": 69.2659091,
                "pitch": 51,
                "velocity": 64,
                "duration": 0.2113636,
                "tempo": 120.0
            },
            {
                "start_time": 69.2818182,
                "end_time": 69.5,
                "pitch": 53,
                "velocity": 64,
                "duration": 0.2181818,
                "tempo": 120.0
            },
            {
                "start_time": 69.5181818,
                "end_time": 69.9704545,
                "pitch": 46,
                "velocity": 64,
                "duration": 0.4522727,
                "tempo": 120.0
            },
            {
                "start_time": 69.9863636,
                "end_time": 70.2045455,
                "pitch": 48,
                "velocity": 64,
                "duration": 0.2181818,
                "tempo": 120.0
            },
            {
                "start_time": 70.2204545,
                "end_time": 70.4386364,
                "pitch": 50,
                "velocity": 64,
                "duration": 0.2181818,
                "tempo": 120.0
            },
            {
                "start_time": 70.4545455,
                "end_time": 70.6727273,
                "pitch": 51,
                "velocity": 64,
                "duration": 0.2181818,
                "tempo": 120.0
            },
            {
                "start_time": 70.6886364,
                "end_time": 70.9022727,
                "pitch": 55,
                "velocity": 64,
                "duration": 0.2136364,
                "tempo": 120.0
            },
            {
                "start_time": 70.9181818,
                "end_time": 71.1318182,
                "pitch": 53,
                "velocity": 64,
                "duration": 0.2136364,
                "tempo": 120.0
            },
            {
                "start_time": 71.1477273,
                "end_time": 71.3659091,
                "pitch": 55,
                "velocity": 64,
                "duration": 0.2181818,
                "tempo": 120.0
            },
            {
                "start_time": 71.3818182,
                "end_time": 71.8295455,
                "pitch": 48,
                "velocity": 64,
                "duration": 0.4477273,
                "tempo": 120.0
            },
            {
                "start_time": 71.8454545,
                "end_time": 72.0590909,
                "pitch": 50,
                "velocity": 64,
                "duration": 0.2136364,
                "tempo": 120.0
            },
            {
                "start_time": 72.075,
                "end_time": 72.2931818,
                "pitch": 51,
                "velocity": 64,
                "duration": 0.2181818,
                "tempo": 120.0
            },
            {
                "start_time": 72.3090909,
                "end_time": 72.5272727,
                "pitch": 53,
                "velocity": 64,
                "duration": 0.2181818,
                "tempo": 120.0
            },
            {
                "start_time": 72.5431818,
                "end_time": 72.7613636,
                "pitch": 53,
                "velocity": 64,
                "duration": 0.2181818,
                "tempo": 120.0
            },
            {
                "start_time": 72.7795455,
                "end_time": 72.9954545,
                "pitch": 51,
                "velocity": 64,
                "duration": 0.2159091,
                "tempo": 120.0
            },
            {
                "start_time": 73.0136364,
                "end_time": 73.2318182,
                "pitch": 53,
                "velocity": 64,
                "duration": 0.2181818,
                "tempo": 120.0
            },
            {
                "start_time": 73.2477273,
                "end_time": 73.6954545,
                "pitch": 46,
                "velocity": 64,
                "duration": 0.4477273,
                "tempo": 120.0
            },
            {
                "start_time": 73.7113636,
                "end_time": 73.9227273,
                "pitch": 48,
                "velocity": 64,
                "duration": 0.2113636,
                "tempo": 120.0
            },
            {
                "start_time": 73.9409091,
                "end_time": 74.1590909,
                "pitch": 50,
                "velocity": 64,
                "duration": 0.2181818,
                "tempo": 120.0
            },
            {
                "start_time": 74.175,
                "end_time": 74.3931818,
                "pitch": 51,
                "velocity": 64,
                "duration": 0.2181818,
                "tempo": 120.0
            },
            {
                "start_time": 74.4090909,
                "end_time": 74.6272727,
                "pitch": 55,
                "velocity": 64,
                "duration": 0.2181818,
                "tempo": 120.0
            },
            {
                "start_time": 74.6431818,
                "end_time": 74.8613636,
                "pitch": 53,
                "velocity": 64,
                "duration": 0.2181818,
                "tempo": 120.0
            },
            {
                "start_time": 74.8772727,
                "end_time": 75.0909091,
                "pitch": 55,
                "velocity": 64,
                "duration": 0.2136364,
                "tempo": 120.0
            },
            {
                "start_time": 75.1068182,
                "end_time": 75.5545455,
                "pitch": 60,
                "velocity": 64,
                "duration": 0.4477273,
                "tempo": 120.0
            },
            {
                "start_time": 75.5704545,
                "end_time": 75.7886364,
                "pitch": 58,
                "velocity": 64,
                "duration": 0.2181818,
                "tempo": 120.0
            },
            {
                "start_time": 75.8045455,
                "end_time": 76.0227273,
                "pitch": 56,
                "velocity": 64,
                "duration": 0.2181818,
                "tempo": 120.0
            },
            {
                "start_time": 76.0409091,
                "end_time": 76.2568182,
                "pitch": 55,
                "velocity": 64,
                "duration": 0.2159091,
                "tempo": 120.0
            },
            {
                "start_time": 76.275,
                "end_time": 76.4863636,
                "pitch": 53,
                "velocity": 64,
                "duration": 0.2113636,
                "tempo": 120.0
            },
            {
                "start_time": 76.5045455,
                "end_time": 76.7159091,
                "pitch": 51,
                "velocity": 64,
                "duration": 0.2113636,
                "tempo": 120.0
            },
            {
                "start_time": 76.7318182,
                "end_time": 76.95,
                "pitch": 53,
                "velocity": 64,
                "duration": 0.2181818,
                "tempo": 120.0
            },
            {
                "start_time": 76.9681818,
                "end_time": 77.4136364,
                "pitch": 55,
                "velocity": 64,
                "duration": 0.4454545,
                "tempo": 120.0
            },
            {
                "start_time": 77.4295455,
                "end_time": 77.6431818,
                "pitch": 50,
                "velocity": 64,
                "duration": 0.2136364,
                "tempo": 120.0
            },
            {
                "start_time": 77.6590909,
                "end_time": 77.8772727,
                "pitch": 48,
                "velocity": 64,
                "duration": 0.2181818,
                "tempo": 120.0
            },
            {
                "start_time": 77.8931818,
                "end_time": 78.1113636,
                "pitch": 46,
                "velocity": 64,
                "duration": 0.2181818,
                "tempo": 120.0
            },
            {
                "start_time": 78.1295455,
                "end_time": 79.7431818,
                "pitch": 48,
                "velocity": 64,
                "duration": 1.6136364,
                "tempo": 120.0
            },
            {
                "start_time": 79.7590909,
                "end_time": 81.8590909,
                "pitch": 60,
                "velocity": 64,
                "duration": 2.1,
                "tempo": 120.0
            },
            {
                "start_time": 81.8590909,
                "end_time": 82.0727273,
                "pitch": 53,
                "velocity": 64,
                "duration": 0.2136364,
                "tempo": 120.0
            },
            {
                "start_time": 82.0886364,
                "end_time": 82.3,
                "pitch": 51,
                "velocity": 64,
                "duration": 0.2113636,
                "tempo": 120.0
            },
            {
                "start_time": 82.3181818,
                "end_time": 82.5340909,
                "pitch": 53,
                "velocity": 64,
                "duration": 0.2159091,
                "tempo": 120.0
            },
            {
                "start_time": 82.5522727,
                "end_time": 82.7704545,
                "pitch": 51,
                "velocity": 64,
                "duration": 0.2181818,
                "tempo": 120.0
            },
            {
                "start_time": 82.7863636,
                "end_time": 82.9977273,
                "pitch": 50,
                "velocity": 64,
                "duration": 0.2113636,
                "tempo": 120.0
            },
            {
                "start_time": 83.0159091,
                "end_time": 83.2272727,
                "pitch": 51,
                "velocity": 64,
                "duration": 0.2113636,
                "tempo": 120.0
            },
            {
                "start_time": 83.2454545,
                "end_time": 83.4613636,
                "pitch": 50,
                "velocity": 64,
                "duration": 0.2159091,
                "tempo": 120.0
            },
            {
                "start_time": 83.4795455,
                "end_time": 83.6977273,
                "pitch": 51,
                "velocity": 64,
                "duration": 0.2181818,
                "tempo": 120.0
            },
            {
                "start_time": 83.7136364,
                "end_time": 83.9318182,
                "pitch": 55,
                "velocity": 64,
                "duration": 0.2181818,
                "tempo": 120.0
            },
            {
                "start_time": 83.9477273,
                "end_time": 84.1659091,
                "pitch": 53,
                "velocity": 64,
                "duration": 0.2181818,
                "tempo": 120.0
            },
            {
                "start_time": 84.1818182,
                "end_time": 84.4,
                "pitch": 55,
                "velocity": 64,
                "duration": 0.2181818,
                "tempo": 120.0
            },
            {
                "start_time": 84.4159091,
                "end_time": 84.6340909,
                "pitch": 53,
                "velocity": 64,
                "duration": 0.2181818,
                "tempo": 120.0
            },
            {
                "start_time": 84.6522727,
                "end_time": 84.8636364,
                "pitch": 51,
                "velocity": 64,
                "duration": 0.2113636,
                "tempo": 120.0
            },
            {
                "start_time": 84.8795455,
                "end_time": 85.0931818,
                "pitch": 53,
                "velocity": 64,
                "duration": 0.2136364,
                "tempo": 120.0
            },
            {
                "start_time": 85.1090909,
                "end_time": 85.3272727,
                "pitch": 51,
                "velocity": 64,
                "duration": 0.2181818,
                "tempo": 120.0
            },
            {
                "start_time": 85.3431818,
                "end_time": 85.5613636,
                "pitch": 53,
                "velocity": 64,
                "duration": 0.2181818,
                "tempo": 120.0
            },
            {
                "start_time": 85.5795455,
                "end_time": 85.7909091,
                "pitch": 56,
                "velocity": 64,
                "duration": 0.2113636,
                "tempo": 120.0
            },
            {
                "start_time": 85.8068182,
                "end_time": 86.0204545,
                "pitch": 55,
                "velocity": 64,
                "duration": 0.2136364,
                "tempo": 120.0
            },
            {
                "start_time": 86.0363636,
                "end_time": 86.2545455,
                "pitch": 56,
                "velocity": 64,
                "duration": 0.2181818,
                "tempo": 120.0
            },
            {
                "start_time": 86.2704545,
                "end_time": 86.4886364,
                "pitch": 55,
                "velocity": 64,
                "duration": 0.2181818,
                "tempo": 120.0
            },
            {
                "start_time": 86.5068182,
                "end_time": 86.7227273,
                "pitch": 53,
                "velocity": 64,
                "duration": 0.2159091,
                "tempo": 120.0
            },
            {
                "start_time": 86.7409091,
                "end_time": 86.9590909,
                "pitch": 55,
                "velocity": 64,
                "duration": 0.2181818,
                "tempo": 120.0
            },
            {
                "start_time": 86.975,
                "end_time": 87.1931818,
                "pitch": 53,
                "velocity": 64,
                "duration": 0.2181818,
                "tempo": 120.0
            },
            {
                "start_time": 87.2090909,
                "end_time": 87.4272727,
                "pitch": 55,
                "velocity": 64,
                "duration": 0.2181818,
                "tempo": 120.0
            },
            {
                "start_time": 87.4431818,
                "end_time": 87.6568182,
                "pitch": 58,
                "velocity": 64,
                "duration": 0.2136364,
                "tempo": 120.0
            },
            {
                "start_time": 87.6727273,
                "end_time": 87.8863636,
                "pitch": 56,
                "velocity": 64,
                "duration": 0.2136364,
                "tempo": 120.0
            },
            {
                "start_time": 87.9022727,
                "end_time": 88.1204545,
                "pitch": 58,
                "velocity": 64,
                "duration": 0.2181818,
                "tempo": 120.0
            },
            {
                "start_time": 88.1363636,
                "end_time": 88.3545455,
                "pitch": 56,
                "velocity": 64,
                "duration": 0.2181818,
                "tempo": 120.0
            },
            {
                "start_time": 88.3704545,
                "end_time": 88.5840909,
                "pitch": 55,
                "velocity": 64,
                "duration": 0.2136364,
                "tempo": 120.0
            },
            {
                "start_time": 88.6,
                "end_time": 88.8136364,
                "pitch": 56,
                "velocity": 64,
                "duration": 0.2136364,
                "tempo": 120.0
            },
            {
                "start_time": 88.8295455,
                "end_time": 89.0522727,
                "pitch": 55,
                "velocity": 64,
                "duration": 0.2227273,
                "tempo": 120.0
            },
            {
                "start_time": 89.0681818,
                "end_time": 89.2909091,
                "pitch": 56,
                "velocity": 64,
                "duration": 0.2227273,
                "tempo": 120.0
            },
            {
                "start_time": 89.3090909,
                "end_time": 89.5227273,
                "pitch": 53,
                "velocity": 64,
                "duration": 0.2136364,
                "tempo": 120.0
            },
            {
                "start_time": 89.5386364,
                "end_time": 89.75,
                "pitch": 51,
                "velocity": 64,
                "duration": 0.2113636,
                "tempo": 120.0
            },
            {
                "start_time": 89.7681818,
                "end_time": 89.9840909,
                "pitch": 53,
                "velocity": 64,
                "duration": 0.2159091,
                "tempo": 120.0
            },
            {
                "start_time": 90.0022727,
                "end_time": 90.2204545,
                "pitch": 51,
                "velocity": 64,
                "duration": 0.2181818,
                "tempo": 120.0
            },
            {
                "start_time": 90.2363636,
                "end_time": 90.4477273,
                "pitch": 50,
                "velocity": 64,
                "duration": 0.2113636,
                "tempo": 120.0
            },
            {
                "start_time": 90.4659091,
                "end_time": 90.6772727,
                "pitch": 51,
                "velocity": 64,
                "duration": 0.2113636,
                "tempo": 120.0
            },
            {
                "start_time": 90.6931818,
                "end_time": 90.9113636,
                "pitch": 50,
                "velocity": 64,
                "duration": 0.2181818,
                "tempo": 120.0
            },
            {
                "start_time": 90.9295455,
                "end_time": 91.1454545,
                "pitch": 51,
                "velocity": 64,
                "duration": 0.2159091,
                "tempo": 120.0
            },
            {
                "start_time": 91.1636364,
                "end_time": 91.375,
                "pitch": 55,
                "velocity": 64,
                "duration": 0.2113636,
                "tempo": 120.0
            },
            {
                "start_time": 91.3931818,
                "end_time": 91.6045455,
                "pitch": 53,
                "velocity": 64,
                "duration": 0.2113636,
                "tempo": 120.0
            },
            {
                "start_time": 91.6204545,
                "end_time": 91.8386364,
                "pitch": 55,
                "velocity": 64,
                "duration": 0.2181818,
                "tempo": 120.0
            },
            {
                "start_time": 91.8568182,
                "end_time": 92.0727273,
                "pitch": 53,
                "velocity": 64,
                "duration": 0.2159091,
                "tempo": 120.0
            },
            {
                "start_time": 92.0909091,
                "end_time": 92.3090909,
                "pitch": 51,
                "velocity": 64,
                "duration": 0.2181818,
                "tempo": 120.0
            },
            {
                "start_time": 92.325,
                "end_time": 92.5431818,
                "pitch": 53,
                "velocity": 64,
                "duration": 0.2181818,
                "tempo": 120.0
            },
            {
                "start_time": 92.5590909,
                "end_time": 92.7772727,
                "pitch": 51,
                "velocity": 64,
                "duration": 0.2181818,
                "tempo": 120.0
            },
            {
                "start_time": 92.7931818,
                "end_time": 93.0113636,
                "pitch": 53,
                "velocity": 64,
                "duration": 0.2181818,
                "tempo": 120.0
            },
            {
                "start_time": 93.0272727,
                "end_time": 93.2409091,
                "pitch": 56,
                "velocity": 64,
                "duration": 0.2136364,
                "tempo": 120.0
            },
            {
                "start_time": 93.2568182,
                "end_time": 93.4704545,
                "pitch": 55,
                "velocity": 64,
                "duration": 0.2136364,
                "tempo": 120.0
            },
            {
                "start_time": 93.4863636,
                "end_time": 93.7045455,
                "pitch": 56,
                "velocity": 64,
                "duration": 0.2181818,
                "tempo": 120.0
            },
            {
                "start_time": 93.7204545,
                "end_time": 93.9386364,
                "pitch": 55,
                "velocity": 64,
                "duration": 0.2181818,
                "tempo": 120.0
            },
            {
                "start_time": 93.9545455,
                "end_time": 94.1681818,
                "pitch": 53,
                "velocity": 64,
                "duration": 0.2136364,
                "tempo": 120.0
            },
            {
                "start_time": 94.1840909,
                "end_time": 94.3977273,
                "pitch": 55,
                "velocity": 64,
                "duration": 0.2136364,
                "tempo": 120.0
            },
            {
                "start_time": 94.4136364,
                "end_time": 94.6318182,
                "pitch": 53,
                "velocity": 64,
                "duration": 0.2181818,
                "tempo": 120.0
            },
            {
                "start_time": 94.6477273,
                "end_time": 94.8659091,
                "pitch": 55,
                "velocity": 64,
                "duration": 0.2181818,
                "tempo": 120.0
            },
            {
                "start_time": 94.8818182,
                "end_time": 95.1,
                "pitch": 58,
                "velocity": 64,
                "duration": 0.2181818,
                "tempo": 120.0
            },
            {
                "start_time": 95.1181818,
                "end_time": 95.3340909,
                "pitch": 56,
                "velocity": 64,
                "duration": 0.2159091,
                "tempo": 120.0
            },
            {
                "start_time": 95.3522727,
                "end_time": 95.5704545,
                "pitch": 58,
                "velocity": 64,
                "duration": 0.2181818,
                "tempo": 120.0
            },
            {
                "start_time": 95.5863636,
                "end_time": 95.8045455,
                "pitch": 56,
                "velocity": 64,
                "duration": 0.2181818,
                "tempo": 120.0
            },
            {
                "start_time": 95.8204545,
                "end_time": 96.0340909,
                "pitch": 63,
                "velocity": 64,
                "duration": 0.2136364,
                "tempo": 120.0
            },
            {
                "start_time": 96.05,
                "end_time": 96.2636364,
                "pitch": 62,
                "velocity": 64,
                "duration": 0.2136364,
                "tempo": 120.0
            },
            {
                "start_time": 96.2795455,
                "end_time": 96.5022727,
                "pitch": 60,
                "velocity": 64,
                "duration": 0.2227273,
                "tempo": 120.0
            },
            {
                "start_time": 96.5181818,
                "end_time": 96.7409091,
                "pitch": 55,
                "velocity": 64,
                "duration": 0.2227273,
                "tempo": 120.0
            },
            {
                "start_time": 96.7590909,
                "end_time": 96.9727273,
                "pitch": 55,
                "velocity": 64,
                "duration": 0.2136364,
                "tempo": 120.0
            },
            {
                "start_time": 96.9886364,
                "end_time": 97.2,
                "pitch": 53,
                "velocity": 64,
                "duration": 0.2113636,
                "tempo": 120.0
            },
            {
                "start_time": 97.2181818,
                "end_time": 97.4295455,
                "pitch": 55,
                "velocity": 64,
                "duration": 0.2113636,
                "tempo": 120.0
            },
            {
                "start_time": 97.4454545,
                "end_time": 97.8931818,
                "pitch": 48,
                "velocity": 64,
                "duration": 0.4477273,
                "tempo": 120.0
            },
            {
                "start_time": 97.9090909,
                "end_time": 98.1272727,
                "pitch": 50,
                "velocity": 64,
                "duration": 0.2181818,
                "tempo": 120.0
            },
            {
                "start_time": 98.1454545,
                "end_time": 98.3613636,
                "pitch": 51,
                "velocity": 64,
                "duration": 0.2159091,
                "tempo": 120.0
            },
            {
                "start_time": 98.3795455,
                "end_time": 98.5977273,
                "pitch": 53,
                "velocity": 64,
                "duration": 0.2181818,
                "tempo": 120.0
            },
            {
                "start_time": 98.6136364,
                "end_time": 98.825,
                "pitch": 53,
                "velocity": 64,
                "duration": 0.2113636,
                "tempo": 120.0
            },
            {
                "start_time": 98.8431818,
                "end_time": 99.0545455,
                "pitch": 51,
                "velocity": 64,
                "duration": 0.2113636,
                "tempo": 120.0
            },
            {
                "start_time": 99.0704545,
                "end_time": 99.2886364,
                "pitch": 53,
                "velocity": 64,
                "duration": 0.2181818,
                "tempo": 120.0
            },
            {
                "start_time": 99.3068182,
                "end_time": 99.7522727,
                "pitch": 46,
                "velocity": 64,
                "duration": 0.4454545,
                "tempo": 120.0
            },
            {
                "start_time": 99.7704545,
                "end_time": 99.9818182,
                "pitch": 48,
                "velocity": 64,
                "duration": 0.2113636,
                "tempo": 120.0
            },
            {
                "start_time": 99.9977273,
                "end_time": 100.2159091,
                "pitch": 50,
                "velocity": 64,
                "duration": 0.2181818,
                "tempo": 120.0
            },
            {
                "start_time": 100.2340909,
                "end_time": 100.45,
                "pitch": 51,
                "velocity": 64,
                "duration": 0.2159091,
                "tempo": 120.0
            },
            {
                "start_time": 100.4681818,
                "end_time": 100.6863636,
                "pitch": 55,
                "velocity": 64,
                "duration": 0.2181818,
                "tempo": 120.0
            },
            {
                "start_time": 100.7022727,
                "end_time": 100.9204545,
                "pitch": 53,
                "velocity": 64,
                "duration": 0.2181818,
                "tempo": 120.0
            },
            {
                "start_time": 100.9363636,
                "end_time": 101.1545455,
                "pitch": 55,
                "velocity": 64,
                "duration": 0.2181818,
                "tempo": 120.0
            },
            {
                "start_time": 101.1704545,
                "end_time": 101.6181818,
                "pitch": 48,
                "velocity": 64,
                "duration": 0.4477273,
                "tempo": 120.0
            },
            {
                "start_time": 101.6340909,
                "end_time": 101.8477273,
                "pitch": 50,
                "velocity": 64,
                "duration": 0.2136364,
                "tempo": 120.0
            },
            {
                "start_time": 101.8636364,
                "end_time": 102.0818182,
                "pitch": 51,
                "velocity": 64,
                "duration": 0.2181818,
                "tempo": 120.0
            },
            {
                "start_time": 102.0977273,
                "end_time": 102.3159091,
                "pitch": 53,
                "velocity": 64,
                "duration": 0.2181818,
                "tempo": 120.0
            },
            {
                "start_time": 102.3318182,
                "end_time": 102.5454545,
                "pitch": 53,
                "velocity": 64,
                "duration": 0.2136364,
                "tempo": 120.0
            },
            {
                "start_time": 102.5613636,
                "end_time": 102.775,
                "pitch": 51,
                "velocity": 64,
                "duration": 0.2136364,
                "tempo": 120.0
            },
            {
                "start_time": 102.7909091,
                "end_time": 103.0090909,
                "pitch": 53,
                "velocity": 64,
                "duration": 0.2181818,
                "tempo": 120.0
            },
            {
                "start_time": 103.025,
                "end_time": 103.4772727,
                "pitch": 46,
                "velocity": 64,
                "duration": 0.4522727,
                "tempo": 120.0
            },
            {
                "start_time": 103.4954545,
                "end_time": 103.7113636,
                "pitch": 48,
                "velocity": 64,
                "duration": 0.2159091,
                "tempo": 120.0
            },
            {
                "start_time": 103.7295455,
                "end_time": 103.9477273,
                "pitch": 50,
                "velocity": 64,
                "duration": 0.2181818,
                "tempo": 120.0
            },
            {
                "start_time": 103.9636364,
                "end_time": 104.1818182,
                "pitch": 51,
                "velocity": 64,
                "duration": 0.2181818,
                "tempo": 120.0
            },
            {
                "start_time": 104.1977273,
                "end_time": 104.4113636,
                "pitch": 55,
                "velocity": 64,
                "duration": 0.2136364,
                "tempo": 120.0
            },
            {
                "start_time": 104.4272727,
                "end_time": 104.6409091,
                "pitch": 53,
                "velocity": 64,
                "duration": 0.2136364,
                "tempo": 120.0
            },
            {
                "start_time": 104.6568182,
                "end_time": 104.875,
                "pitch": 55,
                "velocity": 64,
                "duration": 0.2181818,
                "tempo": 120.0
            },
            {
                "start_time": 104.8909091,
                "end_time": 105.3386364,
                "pitch": 60,
                "velocity": 64,
                "duration": 0.4477273,
                "tempo": 120.0
            },
            {
                "start_time": 105.3545455,
                "end_time": 105.5659091,
                "pitch": 58,
                "velocity": 64,
                "duration": 0.2113636,
                "tempo": 120.0
            },
            {
                "start_time": 105.5840909,
                "end_time": 105.8,
                "pitch": 56,
                "velocity": 64,
                "duration": 0.2159091,
                "tempo": 120.0
            },
            {
                "start_time": 105.8181818,
                "end_time": 106.0363636,
                "pitch": 55,
                "velocity": 64,
                "duration": 0.2181818,
                "tempo": 120.0
            },
            {
                "start_time": 106.0522727,
                "end_time": 106.2704545,
                "pitch": 53,
                "velocity": 64,
                "duration": 0.2181818,
                "tempo": 120.0
            },
            {
                "start_time": 106.2863636,
                "end_time": 106.5045455,
                "pitch": 51,
                "velocity": 64,
                "duration": 0.2181818,
                "tempo": 120.0
            },
            {
                "start_time": 106.5204545,
                "end_time": 106.7386364,
                "pitch": 53,
                "velocity": 64,
                "duration": 0.2181818,
                "tempo": 120.0
            },
            {
                "start_time": 106.7568182,
                "end_time": 107.2022727,
                "pitch": 55,
                "velocity": 64,
                "duration": 0.4454545,
                "tempo": 120.0
            },
            {
                "start_time": 107.2204545,
                "end_time": 107.4318182,
                "pitch": 50,
                "velocity": 64,
                "duration": 0.2113636,
                "tempo": 120.0
            },
            {
                "start_time": 107.4477273,
                "end_time": 107.6659091,
                "pitch": 48,
                "velocity": 64,
                "duration": 0.2181818,
                "tempo": 120.0
            },
            {
                "start_time": 107.6840909,
                "end_time": 107.9,
                "pitch": 46,
                "velocity": 64,
                "duration": 0.2159091,
                "tempo": 120.0
            },
            {
                "start_time": 107.9181818,
                "end_time": 109.5318182,
                "pitch": 48,
                "velocity": 64,
                "duration": 1.6136364,
                "tempo": 120.0
            },
            {
                "start_time": 109.5477273,
                "end_time": 111.6477273,
                "pitch": 60,
                "velocity": 64,
                "duration": 2.1,
                "tempo": 120.0
            },
            {
                "start_time": 112.1068182,
                "end_time": 112.4340909,
                "pitch": 48,
                "velocity": 64,
                "duration": 0.3272727,
                "tempo": 120.0
            },
            {
                "start_time": 112.45,
                "end_time": 112.5477273,
                "pitch": 48,
                "velocity": 64,
                "duration": 0.0977273,
                "tempo": 120.0
            },
            {
                "start_time": 112.5636364,
                "end_time": 113.2522727,
                "pitch": 55,
                "velocity": 64,
                "duration": 0.6886364,
                "tempo": 120.0
            },
            {
                "start_time": 113.2681818,
                "end_time": 113.4863636,
                "pitch": 60,
                "velocity": 64,
                "duration": 0.2181818,
                "tempo": 120.0
            },
            {
                "start_time": 113.5022727,
                "end_time": 114.6477273,
                "pitch": 67,
                "velocity": 64,
                "duration": 1.1454545,
                "tempo": 120.0
            },
            {
                "start_time": 114.6636364,
                "end_time": 114.8818182,
                "pitch": 65,
                "velocity": 64,
                "duration": 0.2181818,
                "tempo": 120.0
            },
            {
                "start_time": 114.8977273,
                "end_time": 115.1159091,
                "pitch": 67,
                "velocity": 64,
                "duration": 0.2181818,
                "tempo": 120.0
            },
            {
                "start_time": 115.1340909,
                "end_time": 115.35,
                "pitch": 72,
                "velocity": 64,
                "duration": 0.2159091,
                "tempo": 120.0
            },
            {
                "start_time": 115.3681818,
                "end_time": 116.2772727,
                "pitch": 70,
                "velocity": 64,
                "duration": 0.9090909,
                "tempo": 120.0
            },
            {
                "start_time": 116.2954545,
                "end_time": 116.9704545,
                "pitch": 68,
                "velocity": 64,
                "duration": 0.675,
                "tempo": 120.0
            },
            {
                "start_time": 116.9863636,
                "end_time": 117.2045455,
                "pitch": 65,
                "velocity": 64,
                "duration": 0.2181818,
                "tempo": 120.0
            },
            {
                "start_time": 117.2227273,
                "end_time": 119.0818182,
                "pitch": 67,
                "velocity": 64,
                "duration": 1.8590909,
                "tempo": 120.0
            },
            {
                "start_time": 119.0977273,
                "end_time": 120.2318182,
                "pitch": 75,
                "velocity": 64,
                "duration": 1.1340909,
                "tempo": 120.0
            },
            {
                "start_time": 120.25,
                "end_time": 120.4659091,
                "pitch": 74,
                "velocity": 64,
                "duration": 0.2159091,
                "tempo": 120.0
            },
            {
                "start_time": 120.4840909,
                "end_time": 120.7022727,
                "pitch": 75,
                "velocity": 64,
                "duration": 0.2181818,
                "tempo": 120.0
            },
            {
                "start_time": 120.7181818,
                "end_time": 120.9363636,
                "pitch": 79,
                "velocity": 64,
                "duration": 0.2181818,
                "tempo": 120.0
            },
            {
                "start_time": 120.9522727,
                "end_time": 121.6295455,
                "pitch": 77,
                "velocity": 64,
                "duration": 0.6772727,
                "tempo": 120.0
            },
            {
                "start_time": 121.6454545,
                "end_time": 122.3204545,
                "pitch": 74,
                "velocity": 64,
                "duration": 0.675,
                "tempo": 120.0
            },
            {
                "start_time": 122.3386364,
                "end_time": 122.7909091,
                "pitch": 70,
                "velocity": 64,
                "duration": 0.4522727,
                "tempo": 120.0
            },
            {
                "start_time": 122.8068182,
                "end_time": 123.9568182,
                "pitch": 75,
                "velocity": 64,
                "duration": 1.15,
                "tempo": 120.0
            },
            {
                "start_time": 123.975,
                "end_time": 124.1863636,
                "pitch": 74,
                "velocity": 64,
                "duration": 0.2113636,
                "tempo": 120.0
            },
            {
                "start_time": 124.2022727,
                "end_time": 124.4204545,
                "pitch": 72,
                "velocity": 64,
                "duration": 0.2181818,
                "tempo": 120.0
            },
            {
                "start_time": 124.4386364,
                "end_time": 124.6545455,
                "pitch": 70,
                "velocity": 64,
                "duration": 0.2159091,
                "tempo": 120.0
            },
            {
                "start_time": 124.6727273,
                "end_time": 126.5204545,
                "pitch": 72,
                "velocity": 64,
                "duration": 1.8477273,
                "tempo": 120.0
            }
        ],
        "Flute": [
            {
                "start_time": 4.1295455,
                "end_time": 4.2818182,
                "pitch": 60,
                "velocity": 40,
                "duration": 0.1522727,
                "tempo": 120.0
            },
            {
                "start_time": 4.3,
                "end_time": 4.4363636,
                "pitch": 60,
                "velocity": 40,
                "duration": 0.1363636,
                "tempo": 120.0
            },
            {
                "start_time": 4.4522727,
                "end_time": 4.5886364,
                "pitch": 60,
                "velocity": 40,
                "duration": 0.1363636,
                "tempo": 120.0
            },
            {
                "start_time": 4.6068182,
                "end_time": 4.8181818,
                "pitch": 60,
                "velocity": 40,
                "duration": 0.2113636,
                "tempo": 120.0
            },
            {
                "start_time": 5.0636364,
                "end_time": 5.2840909,
                "pitch": 60,
                "velocity": 40,
                "duration": 0.2204545,
                "tempo": 120.0
            },
            {
                "start_time": 5.5409091,
                "end_time": 5.7522727,
                "pitch": 60,
                "velocity": 40,
                "duration": 0.2113636,
                "tempo": 120.0
            },
            {
                "start_time": 5.9977273,
                "end_time": 6.15,
                "pitch": 60,
                "velocity": 40,
                "duration": 0.1522727,
                "tempo": 120.0
            },
            {
                "start_time": 6.1659091,
                "end_time": 6.3,
                "pitch": 60,
                "velocity": 40,
                "duration": 0.1340909,
                "tempo": 120.0
            },
            {
                "start_time": 6.3159091,
                "end_time": 6.45,
                "pitch": 60,
                "velocity": 40,
                "duration": 0.1340909,
                "tempo": 120.0
            },
            {
                "start_time": 6.4659091,
                "end_time": 6.675,
                "pitch": 60,
                "velocity": 40,
                "duration": 0.2090909,
                "tempo": 120.0
            },
            {
                "start_time": 6.9159091,
                "end_time": 7.1386364,
                "pitch": 60,
                "velocity": 40,
                "duration": 0.2227273,
                "tempo": 120.0
            },
            {
                "start_time": 7.3954545,
                "end_time": 7.6068182,
                "pitch": 60,
                "velocity": 40,
                "duration": 0.2113636,
                "tempo": 120.0
            },
            {
                "start_time": 7.8522727,
                "end_time": 8.0045455,
                "pitch": 60,
                "velocity": 40,
                "duration": 0.1522727,
                "tempo": 120.0
            },
            {
                "start_time": 8.0204545,
                "end_time": 8.1545455,
                "pitch": 60,
                "velocity": 40,
                "duration": 0.1340909,
                "tempo": 120.0
            },
            {
                "start_time": 8.1704545,
                "end_time": 8.3045455,
                "pitch": 60,
                "velocity": 40,
                "duration": 0.1340909,
                "tempo": 120.0
            },
            {
                "start_time": 8.3227273,
                "end_time": 8.5454545,
                "pitch": 60,
                "velocity": 40,
                "duration": 0.2227273,
                "tempo": 120.0
            },
            {
                "start_time": 8.8022727,
                "end_time": 9.0159091,
                "pitch": 60,
                "velocity": 40,
                "duration": 0.2136364,
                "tempo": 120.0
            },
            {
                "start_time": 9.2613636,
                "end_time": 9.4772727,
                "pitch": 60,
                "velocity": 40,
                "duration": 0.2159091,
                "tempo": 120.0
            },
            {
                "start_time": 9.7295455,
                "end_time": 9.8772727,
                "pitch": 60,
                "velocity": 40,
                "duration": 0.1477273,
                "tempo": 120.0
            },
            {
                "start_time": 9.8931818,
                "end_time": 10.025,
                "pitch": 60,
                "velocity": 40,
                "duration": 0.1318182,
                "tempo": 120.0
            },
            {
                "start_time": 10.0409091,
                "end_time": 10.1704545,
                "pitch": 60,
                "velocity": 40,
                "duration": 0.1295455,
                "tempo": 120.0
            },
            {
                "start_time": 10.1863636,
                "end_time": 10.3954545,
                "pitch": 60,
                "velocity": 40,
                "duration": 0.2090909,
                "tempo": 120.0
            },
            {
                "start_time": 10.6363636,
                "end_time": 10.8590909,
                "pitch": 60,
                "velocity": 40,
                "duration": 0.2227273,
                "tempo": 120.0
            },
            {
                "start_time": 11.1159091,
                "end_time": 11.3272727,
                "pitch": 58,
                "velocity": 40,
                "duration": 0.2113636,
                "tempo": 120.0
            },
            {
                "start_time": 11.5727273,
                "end_time": 11.7272727,
                "pitch": 58,
                "velocity": 40,
                "duration": 0.1545455,
                "tempo": 120.0
            },
            {
                "start_time": 11.7454545,
                "end_time": 11.8818182,
                "pitch": 58,
                "velocity": 40,
                "duration": 0.1363636,
                "tempo": 120.0
            },
            {
                "start_time": 11.9,
                "end_time": 12.0363636,
                "pitch": 58,
                "velocity": 40,
                "duration": 0.1363636,
                "tempo": 120.0
            },
            {
                "start_time": 12.0522727,
                "end_time": 12.2613636,
                "pitch": 58,
                "velocity": 40,
                "duration": 0.2090909,
                "tempo": 120.0
            },
            {
                "start_time": 12.5,
                "end_time": 12.7227273,
                "pitch": 58,
                "velocity": 40,
                "duration": 0.2227273,
                "tempo": 120.0
            },
            {
                "start_time": 12.9818182,
                "end_time": 13.2045455,
                "pitch": 55,
                "velocity": 40,
                "duration": 0.2227273,
                "tempo": 120.0
            },
            {
                "start_time": 13.4613636,
                "end_time": 13.6090909,
                "pitch": 55,
                "velocity": 40,
                "duration": 0.1477273,
                "tempo": 120.0
            },
            {
                "start_time": 13.625,
                "end_time": 13.7568182,
                "pitch": 55,
                "velocity": 40,
                "duration": 0.1318182,
                "tempo": 120.0
            },
            {
                "start_time": 13.7727273,
                "end_time": 13.9045455,
                "pitch": 55,
                "velocity": 40,
                "duration": 0.1318182,
                "tempo": 120.0
            },
            {
                "start_time": 13.9204545,
                "end_time": 14.1363636,
                "pitch": 55,
                "velocity": 40,
                "duration": 0.2159091,
                "tempo": 120.0
            },
            {
                "start_time": 14.3886364,
                "end_time": 14.6068182,
                "pitch": 55,
                "velocity": 40,
                "duration": 0.2181818,
                "tempo": 120.0
            },
            {
                "start_time": 14.8568182,
                "end_time": 15.075,
                "pitch": 60,
                "velocity": 40,
                "duration": 0.2181818,
                "tempo": 120.0
            },
            {
                "start_time": 15.3272727,
                "end_time": 15.4704545,
                "pitch": 60,
                "velocity": 40,
                "duration": 0.1431818,
                "tempo": 120.0
            },
            {
                "start_time": 15.4863636,
                "end_time": 15.6136364,
                "pitch": 60,
                "velocity": 40,
                "duration": 0.1272727,
                "tempo": 120.0
            },
            {
                "start_time": 15.6318182,
                "end_time": 15.7590909,
                "pitch": 60,
                "velocity": 40,
                "duration": 0.1272727,
                "tempo": 120.0
            },
            {
                "start_time": 15.775,
                "end_time": 15.9818182,
                "pitch": 60,
                "velocity": 40,
                "duration": 0.2068182,
                "tempo": 120.0
            },
            {
                "start_time": 16.2227273,
                "end_time": 16.4409091,
                "pitch": 60,
                "velocity": 40,
                "duration": 0.2181818,
                "tempo": 120.0
            },
            {
                "start_time": 16.6909091,
                "end_time": 16.9045455,
                "pitch": 58,
                "velocity": 40,
                "duration": 0.2136364,
                "tempo": 120.0
            },
            {
                "start_time": 17.15,
                "end_time": 17.3068182,
                "pitch": 58,
                "velocity": 40,
                "duration": 0.1568182,
                "tempo": 120.0
            },
            {
                "start_time": 17.325,
                "end_time": 17.4636364,
                "pitch": 58,
                "velocity": 40,
                "duration": 0.1386364,
                "tempo": 120.0
            },
            {
                "start_time": 17.4818182,
                "end_time": 17.6204545,
                "pitch": 58,
                "velocity": 40,
                "duration": 0.1386364,
                "tempo": 120.0
            },
            {
                "start_time": 17.6363636,
                "end_time": 17.8454545,
                "pitch": 58,
                "velocity": 40,
                "duration": 0.2090909,
                "tempo": 120.0
            },
            {
                "start_time": 18.0840909,
                "end_time": 18.3022727,
                "pitch": 58,
                "velocity": 40,
                "duration": 0.2181818,
                "tempo": 120.0
            },
            {
                "start_time": 18.5545455,
                "end_time": 18.7727273,
                "pitch": 60,
                "velocity": 40,
                "duration": 0.2181818,
                "tempo": 120.0
            },
            {
                "start_time": 19.0227273,
                "end_time": 19.1772727,
                "pitch": 60,
                "velocity": 40,
                "duration": 0.1545455,
                "tempo": 120.0
            },
            {
                "start_time": 19.1954545,
                "end_time": 19.3318182,
                "pitch": 60,
                "velocity": 40,
                "duration": 0.1363636,
                "tempo": 120.0
            },
            {
                "start_time": 19.35,
                "end_time": 19.4863636,
                "pitch": 60,
                "velocity": 40,
                "duration": 0.1363636,
                "tempo": 120.0
            },
            {
                "start_time": 19.5022727,
                "end_time": 19.7113636,
                "pitch": 58,
                "velocity": 40,
                "duration": 0.2090909,
                "tempo": 120.0
            },
            {
                "start_time": 19.95,
                "end_time": 20.1636364,
                "pitch": 56,
                "velocity": 40,
                "duration": 0.2136364,
                "tempo": 120.0
            },
            {
                "start_time": 20.4090909,
                "end_time": 20.6318182,
                "pitch": 55,
                "velocity": 40,
                "duration": 0.2227273,
                "tempo": 120.0
            },
            {
                "start_time": 20.8886364,
                "end_time": 21.0409091,
                "pitch": 55,
                "velocity": 40,
                "duration": 0.1522727,
                "tempo": 120.0
            },
            {
                "start_time": 21.0568182,
                "end_time": 21.1909091,
                "pitch": 55,
                "velocity": 40,
                "duration": 0.1340909,
                "tempo": 120.0
            },
            {
                "start_time": 21.2068182,
                "end_time": 21.3409091,
                "pitch": 55,
                "velocity": 40,
                "duration": 0.1340909,
                "tempo": 120.0
            },
            {
                "start_time": 21.3590909,
                "end_time": 21.5090909,
                "pitch": 55,
                "velocity": 40,
                "duration": 0.15,
                "tempo": 120.0
            },
            {
                "start_time": 21.525,
                "end_time": 21.6590909,
                "pitch": 55,
                "velocity": 40,
                "duration": 0.1340909,
                "tempo": 120.0
            },
            {
                "start_time": 21.6772727,
                "end_time": 21.8113636,
                "pitch": 55,
                "velocity": 40,
                "duration": 0.1340909,
                "tempo": 120.0
            },
            {
                "start_time": 21.8272727,
                "end_time": 21.9772727,
                "pitch": 55,
                "velocity": 40,
                "duration": 0.15,
                "tempo": 120.0
            },
            {
                "start_time": 21.9954545,
                "end_time": 22.1295455,
                "pitch": 55,
                "velocity": 40,
                "duration": 0.1340909,
                "tempo": 120.0
            },
            {
                "start_time": 22.1454545,
                "end_time": 22.2795455,
                "pitch": 55,
                "velocity": 40,
                "duration": 0.1340909,
                "tempo": 120.0
            },
            {
                "start_time": 22.2977273,
                "end_time": 22.3954545,
                "pitch": 55,
                "velocity": 40,
                "duration": 0.0977273,
                "tempo": 120.0
            },
            {
                "start_time": 22.525,
                "end_time": 22.625,
                "pitch": 55,
                "velocity": 40,
                "duration": 0.1,
                "tempo": 120.0
            },
            {
                "start_time": 22.7545455,
                "end_time": 22.8545455,
                "pitch": 55,
                "velocity": 40,
                "duration": 0.1,
                "tempo": 120.0
            },
            {
                "start_time": 22.9886364,
                "end_time": 23.0909091,
                "pitch": 55,
                "velocity": 40,
                "duration": 0.1022727,
                "tempo": 120.0
            },
            {
                "start_time": 23.2227273,
                "end_time": 23.3227273,
                "pitch": 55,
                "velocity": 40,
                "duration": 0.1,
                "tempo": 120.0
            },
            {
                "start_time": 23.4522727,
                "end_time": 23.55,
                "pitch": 55,
                "velocity": 40,
                "duration": 0.0977273,
                "tempo": 120.0
            },
            {
                "start_time": 23.6818182,
                "end_time": 23.7818182,
                "pitch": 55,
                "velocity": 40,
                "duration": 0.1,
                "tempo": 120.0
            },
            {
                "start_time": 23.9159091,
                "end_time": 24.0159091,
                "pitch": 55,
                "velocity": 40,
                "duration": 0.1,
                "tempo": 120.0
            },
            {
                "start_time": 24.15,
                "end_time": 24.25,
                "pitch": 55,
                "velocity": 40,
                "duration": 0.1,
                "tempo": 120.0
            },
            {
                "start_time": 24.3795455,
                "end_time": 24.4772727,
                "pitch": 55,
                "velocity": 40,
                "duration": 0.0977273,
                "tempo": 120.0
            },
            {
                "start_time": 24.6090909,
                "end_time": 24.7090909,
                "pitch": 55,
                "velocity": 40,
                "duration": 0.1,
                "tempo": 120.0
            },
            {
                "start_time": 24.8431818,
                "end_time": 24.9431818,
                "pitch": 55,
                "velocity": 40,
                "duration": 0.1,
                "tempo": 120.0
            },
            {
                "start_time": 25.0772727,
                "end_time": 25.1795455,
                "pitch": 55,
                "velocity": 40,
                "duration": 0.1022727,
                "tempo": 120.0
            },
            {
                "start_time": 25.3136364,
                "end_time": 25.4136364,
                "pitch": 55,
                "velocity": 40,
                "duration": 0.1,
                "tempo": 120.0
            },
            {
                "start_time": 25.5477273,
                "end_time": 25.6477273,
                "pitch": 55,
                "velocity": 40,
                "duration": 0.1,
                "tempo": 120.0
            },
            {
                "start_time": 25.7818182,
                "end_time": 25.8818182,
                "pitch": 55,
                "velocity": 40,
                "duration": 0.1,
                "tempo": 120.0
            },
            {
                "start_time": 26.0159091,
                "end_time": 26.1136364,
                "pitch": 53,
                "velocity": 40,
                "duration": 0.0977273,
                "tempo": 120.0
            },
            {
                "start_time": 26.2454545,
                "end_time": 26.3431818,
                "pitch": 53,
                "velocity": 40,
                "duration": 0.0977273,
                "tempo": 120.0
            },
            {
                "start_time": 26.475,
                "end_time": 26.575,
                "pitch": 53,
                "velocity": 40,
                "duration": 0.1,
                "tempo": 120.0
            },
            {
                "start_time": 26.7090909,
                "end_time": 26.8090909,
                "pitch": 53,
                "velocity": 40,
                "duration": 0.1,
                "tempo": 120.0
            },
            {
                "start_time": 26.9431818,
                "end_time": 27.0409091,
                "pitch": 53,
                "velocity": 40,
                "duration": 0.0977273,
                "tempo": 120.0
            },
            {
                "start_time": 27.1727273,
                "end_time": 27.2704545,
                "pitch": 53,
                "velocity": 40,
                "duration": 0.0977273,
                "tempo": 120.0
            },
            {
                "start_time": 27.4022727,
                "end_time": 27.5022727,
                "pitch": 53,
                "velocity": 40,
                "duration": 0.1,
                "tempo": 120.0
            },
            {
                "start_time": 27.6363636,
                "end_time": 27.7363636,
                "pitch": 53,
                "velocity": 40,
                "duration": 0.1,
                "tempo": 120.0
            },
            {
                "start_time": 27.8704545,
                "end_time": 27.9704545,
                "pitch": 53,
                "velocity": 40,
                "duration": 0.1,
                "tempo": 120.0
            },
            {
                "start_time": 28.1045455,
                "end_time": 28.2045455,
                "pitch": 53,
                "velocity": 40,
                "duration": 0.1,
                "tempo": 120.0
            },
            {
                "start_time": 28.3386364,
                "end_time": 28.4409091,
                "pitch": 53,
                "velocity": 40,
                "duration": 0.1022727,
                "tempo": 120.0
            },
            {
                "start_time": 28.575,
                "end_time": 28.675,
                "pitch": 53,
                "velocity": 40,
                "duration": 0.1,
                "tempo": 120.0
            },
            {
                "start_time": 28.8090909,
                "end_time": 28.9068182,
                "pitch": 53,
                "velocity": 40,
                "duration": 0.0977273,
                "tempo": 120.0
            },
            {
                "start_time": 29.0363636,
                "end_time": 29.1363636,
                "pitch": 53,
                "velocity": 40,
                "duration": 0.1,
                "tempo": 120.0
            },
            {
                "start_time": 29.2659091,
                "end_time": 29.3681818,
                "pitch": 53,
                "velocity": 40,
                "duration": 0.1022727,
                "tempo": 120.0
            },
            {
                "start_time": 29.5,
                "end_time": 29.6022727,
                "pitch": 53,
                "velocity": 40,
                "duration": 0.1022727,
                "tempo": 120.0
            },
            {
                "start_time": 29.7363636,
                "end_time": 29.8340909,
                "pitch": 55,
                "velocity": 40,
                "duration": 0.0977273,
                "tempo": 120.0
            },
            {
                "start_time": 29.9636364,
                "end_time": 30.0636364,
                "pitch": 55,
                "velocity": 40,
                "duration": 0.1,
                "tempo": 120.0
            },
            {
                "start_time": 30.1931818,
                "end_time": 30.2931818,
                "pitch": 55,
                "velocity": 40,
                "duration": 0.1,
                "tempo": 120.0
            },
            {
                "start_time": 30.4272727,
                "end_time": 30.5295455,
                "pitch": 55,
                "velocity": 40,
                "duration": 0.1022727,
                "tempo": 120.0
            },
            {
                "start_time": 30.6636364,
                "end_time": 30.7636364,
                "pitch": 55,
                "velocity": 40,
                "duration": 0.1,
                "tempo": 120.0
            },
            {
                "start_time": 30.8977273,
                "end_time": 30.9977273,
                "pitch": 55,
                "velocity": 40,
                "duration": 0.1,
                "tempo": 120.0
            },
            {
                "start_time": 31.1318182,
                "end_time": 31.2318182,
                "pitch": 55,
                "velocity": 40,
                "duration": 0.1,
                "tempo": 120.0
            },
            {
                "start_time": 31.3659091,
                "end_time": 31.4659091,
                "pitch": 55,
                "velocity": 40,
                "duration": 0.1,
                "tempo": 120.0
            },
            {
                "start_time": 31.6,
                "end_time": 31.7,
                "pitch": 53,
                "velocity": 40,
                "duration": 0.1,
                "tempo": 120.0
            },
            {
                "start_time": 31.8295455,
                "end_time": 31.9272727,
                "pitch": 53,
                "velocity": 40,
                "duration": 0.0977273,
                "tempo": 120.0
            },
            {
                "start_time": 32.0590909,
                "end_time": 32.1590909,
                "pitch": 53,
                "velocity": 40,
                "duration": 0.1,
                "tempo": 120.0
            },
            {
                "start_time": 32.2931818,
                "end_time": 32.3931818,
                "pitch": 53,
                "velocity": 40,
                "duration": 0.1,
                "tempo": 120.0
            },
            {
                "start_time": 32.5272727,
                "end_time": 32.625,
                "pitch": 53,
                "velocity": 40,
                "duration": 0.0977273,
                "tempo": 120.0
            },
            {
                "start_time": 32.7568182,
                "end_time": 32.8545455,
                "pitch": 53,
                "velocity": 40,
                "duration": 0.0977273,
                "tempo": 120.0
            },
            {
                "start_time": 32.9863636,
                "end_time": 33.0863636,
                "pitch": 53,
                "velocity": 40,
                "duration": 0.1,
                "tempo": 120.0
            },
            {
                "start_time": 33.2204545,
                "end_time": 33.3204545,
                "pitch": 53,
                "velocity": 40,
                "duration": 0.1,
                "tempo": 120.0
            },
            {
                "start_time": 33.4545455,
                "end_time": 33.5545455,
                "pitch": 55,
                "velocity": 40,
                "duration": 0.1,
                "tempo": 120.0
            },
            {
                "start_time": 33.6886364,
                "end_time": 33.7909091,
                "pitch": 55,
                "velocity": 40,
                "duration": 0.1022727,
                "tempo": 120.0
            },
            {
                "start_time": 33.925,
                "end_time": 34.025,
                "pitch": 55,
                "velocity": 40,
                "duration": 0.1,
                "tempo": 120.0
            },
            {
                "start_time": 34.1590909,
                "end_time": 34.2590909,
                "pitch": 55,
                "velocity": 40,
                "duration": 0.1,
                "tempo": 120.0
            },
            {
                "start_time": 34.3931818,
                "end_time": 34.4909091,
                "pitch": 55,
                "velocity": 40,
                "duration": 0.0977273,
                "tempo": 120.0
            },
            {
                "start_time": 34.6227273,
                "end_time": 34.7204545,
                "pitch": 55,
                "velocity": 40,
                "duration": 0.0977273,
                "tempo": 120.0
            },
            {
                "start_time": 34.8522727,
                "end_time": 34.9522727,
                "pitch": 55,
                "velocity": 40,
                "duration": 0.1,
                "tempo": 120.0
            },
            {
                "start_time": 35.0863636,
                "end_time": 35.1863636,
                "pitch": 55,
                "velocity": 40,
                "duration": 0.1,
                "tempo": 120.0
            },
            {
                "start_time": 35.3204545,
                "end_time": 35.4181818,
                "pitch": 60,
                "velocity": 40,
                "duration": 0.0977273,
                "tempo": 120.0
            },
            {
                "start_time": 35.55,
                "end_time": 35.6477273,
                "pitch": 60,
                "velocity": 40,
                "duration": 0.0977273,
                "tempo": 120.0
            },
            {
                "start_time": 35.7772727,
                "end_time": 35.8795455,
                "pitch": 60,
                "velocity": 40,
                "duration": 0.1022727,
                "tempo": 120.0
            },
            {
                "start_time": 36.0136364,
                "end_time": 36.1136364,
                "pitch": 60,
                "velocity": 40,
                "duration": 0.1,
                "tempo": 120.0
            },
            {
                "start_time": 36.2477273,
                "end_time": 36.3477273,
                "pitch": 60,
                "velocity": 40,
                "duration": 0.1,
                "tempo": 120.0
            },
            {
                "start_time": 36.4818182,
                "end_time": 36.5818182,
                "pitch": 60,
                "velocity": 40,
                "duration": 0.1,
                "tempo": 120.0
            },
            {
                "start_time": 36.7159091,
                "end_time": 36.8159091,
                "pitch": 60,
                "velocity": 40,
                "duration": 0.1,
                "tempo": 120.0
            },
            {
                "start_time": 36.95,
                "end_time": 37.0522727,
                "pitch": 60,
                "velocity": 40,
                "duration": 0.1022727,
                "tempo": 120.0
            },
            {
                "start_time": 37.1863636,
                "end_time": 37.2840909,
                "pitch": 56,
                "velocity": 40,
                "duration": 0.0977273,
                "tempo": 120.0
            },
            {
                "start_time": 37.4136364,
                "end_time": 37.5136364,
                "pitch": 56,
                "velocity": 40,
                "duration": 0.1,
                "tempo": 120.0
            },
            {
                "start_time": 37.6431818,
                "end_time": 37.7431818,
                "pitch": 56,
                "velocity": 40,
                "duration": 0.1,
                "tempo": 120.0
            },
            {
                "start_time": 37.8772727,
                "end_time": 37.9795455,
                "pitch": 56,
                "velocity": 40,
                "duration": 0.1022727,
                "tempo": 120.0
            },
            {
                "start_time": 38.1113636,
                "end_time": 38.2113636,
                "pitch": 56,
                "velocity": 40,
                "duration": 0.1,
                "tempo": 120.0
            },
            {
                "start_time": 38.3409091,
                "end_time": 38.4386364,
                "pitch": 56,
                "velocity": 40,
                "duration": 0.0977273,
                "tempo": 120.0
            },
            {
                "start_time": 38.5704545,
                "end_time": 38.6727273,
                "pitch": 56,
                "velocity": 40,
                "duration": 0.1022727,
                "tempo": 120.0
            },
            {
                "start_time": 38.8113636,
                "end_time": 38.9136364,
                "pitch": 56,
                "velocity": 40,
                "duration": 0.1022727,
                "tempo": 120.0
            },
            {
                "start_time": 39.05,
                "end_time": 39.15,
                "pitch": 55,
                "velocity": 40,
                "duration": 0.1,
                "tempo": 120.0
            },
            {
                "start_time": 39.2795455,
                "end_time": 39.3772727,
                "pitch": 55,
                "velocity": 40,
                "duration": 0.0977273,
                "tempo": 120.0
            },
            {
                "start_time": 39.5090909,
                "end_time": 39.6090909,
                "pitch": 55,
                "velocity": 40,
                "duration": 0.1,
                "tempo": 120.0
            },
            {
                "start_time": 39.7431818,
                "end_time": 39.8431818,
                "pitch": 55,
                "velocity": 40,
                "duration": 0.1,
                "tempo": 120.0
            },
            {
                "start_time": 39.9772727,
                "end_time": 40.075,
                "pitch": 55,
                "velocity": 40,
                "duration": 0.0977273,
                "tempo": 120.0
            },
            {
                "start_time": 40.2068182,
                "end_time": 40.3045455,
                "pitch": 55,
                "velocity": 40,
                "duration": 0.0977273,
                "tempo": 120.0
            },
            {
                "start_time": 40.4363636,
                "end_time": 40.5363636,
                "pitch": 55,
                "velocity": 40,
                "duration": 0.1,
                "tempo": 120.0
            },
            {
                "start_time": 40.6704545,
                "end_time": 40.7704545,
                "pitch": 55,
                "velocity": 40,
                "duration": 0.1,
                "tempo": 120.0
            },
            {
                "start_time": 40.9045455,
                "end_time": 41.0022727,
                "pitch": 53,
                "velocity": 40,
                "duration": 0.0977273,
                "tempo": 120.0
            },
            {
                "start_time": 41.1340909,
                "end_time": 41.2318182,
                "pitch": 53,
                "velocity": 40,
                "duration": 0.0977273,
                "tempo": 120.0
            },
            {
                "start_time": 41.3636364,
                "end_time": 41.4636364,
                "pitch": 53,
                "velocity": 40,
                "duration": 0.1,
                "tempo": 120.0
            },
            {
                "start_time": 41.5977273,
                "end_time": 41.6977273,
                "pitch": 53,
                "velocity": 40,
                "duration": 0.1,
                "tempo": 120.0
            },
            {
                "start_time": 41.8318182,
                "end_time": 41.9318182,
                "pitch": 53,
                "velocity": 40,
                "duration": 0.1,
                "tempo": 120.0
            },
            {
                "start_time": 42.0659091,
                "end_time": 42.1681818,
                "pitch": 53,
                "velocity": 40,
                "duration": 0.1022727,
                "tempo": 120.0
            },
            {
                "start_time": 42.3022727,
                "end_time": 42.4022727,
                "pitch": 53,
                "velocity": 40,
                "duration": 0.1,
                "tempo": 120.0
            },
            {
                "start_time": 42.5363636,
                "end_time": 42.6363636,
                "pitch": 53,
                "velocity": 40,
                "duration": 0.1,
                "tempo": 120.0
            },
            {
                "start_time": 42.7704545,
                "end_time": 42.8681818,
                "pitch": 55,
                "velocity": 40,
                "duration": 0.0977273,
                "tempo": 120.0
            },
            {
                "start_time": 43.0,
                "end_time": 43.0977273,
                "pitch": 55,
                "velocity": 40,
                "duration": 0.0977273,
                "tempo": 120.0
            },
            {
                "start_time": 43.2272727,
                "end_time": 43.3295455,
                "pitch": 55,
                "velocity": 40,
                "duration": 0.1022727,
                "tempo": 120.0
            },
            {
                "start_time": 43.4636364,
                "end_time": 43.5636364,
                "pitch": 55,
                "velocity": 40,
                "duration": 0.1,
                "tempo": 120.0
            },
            {
                "start_time": 43.6977273,
                "end_time": 43.7954545,
                "pitch": 55,
                "velocity": 40,
                "duration": 0.0977273,
                "tempo": 120.0
            },
            {
                "start_time": 43.9272727,
                "end_time": 44.025,
                "pitch": 55,
                "velocity": 40,
                "duration": 0.0977273,
                "tempo": 120.0
            },
            {
                "start_time": 44.1545455,
                "end_time": 44.2568182,
                "pitch": 55,
                "velocity": 40,
                "duration": 0.1022727,
                "tempo": 120.0
            },
            {
                "start_time": 44.3909091,
                "end_time": 44.4909091,
                "pitch": 55,
                "velocity": 40,
                "duration": 0.1,
                "tempo": 120.0
            },
            {
                "start_time": 44.625,
                "end_time": 44.725,
                "pitch": 56,
                "velocity": 40,
                "duration": 0.1,
                "tempo": 120.0
            },
            {
                "start_time": 44.8590909,
                "end_time": 44.9590909,
                "pitch": 56,
                "velocity": 40,
                "duration": 0.1,
                "tempo": 120.0
            },
            {
                "start_time": 45.0931818,
                "end_time": 45.1931818,
                "pitch": 56,
                "velocity": 40,
                "duration": 0.1,
                "tempo": 120.0
            },
            {
                "start_time": 45.3272727,
                "end_time": 45.4295455,
                "pitch": 56,
                "velocity": 40,
                "duration": 0.1022727,
                "tempo": 120.0
            },
            {
                "start_time": 45.5613636,
                "end_time": 45.6613636,
                "pitch": 56,
                "velocity": 40,
                "duration": 0.1,
                "tempo": 120.0
            },
            {
                "start_time": 45.7909091,
                "end_time": 45.8886364,
                "pitch": 56,
                "velocity": 40,
                "duration": 0.0977273,
                "tempo": 120.0
            },
            {
                "start_time": 46.0204545,
                "end_time": 46.1204545,
                "pitch": 56,
                "velocity": 40,
                "duration": 0.1,
                "tempo": 120.0
            },
            {
                "start_time": 46.2545455,
                "end_time": 46.3545455,
                "pitch": 56,
                "velocity": 40,
                "duration": 0.1,
                "tempo": 120.0
            },
            {
                "start_time": 46.4886364,
                "end_time": 46.5886364,
                "pitch": 55,
                "velocity": 40,
                "duration": 0.1,
                "tempo": 120.0
            },
            {
                "start_time": 46.7181818,
                "end_time": 46.8159091,
                "pitch": 55,
                "velocity": 40,
                "duration": 0.0977273,
                "tempo": 120.0
            },
            {
                "start_time": 46.9477273,
                "end_time": 47.0477273,
                "pitch": 55,
                "velocity": 40,
                "duration": 0.1,
                "tempo": 120.0
            },
            {
                "start_time": 47.1818182,
                "end_time": 47.2818182,
                "pitch": 55,
                "velocity": 40,
                "duration": 0.1,
                "tempo": 120.0
            },
            {
                "start_time": 47.4159091,
                "end_time": 47.5181818,
                "pitch": 55,
                "velocity": 40,
                "duration": 0.1022727,
                "tempo": 120.0
            },
            {
                "start_time": 47.6522727,
                "end_time": 47.7522727,
                "pitch": 55,
                "velocity": 40,
                "duration": 0.1,
                "tempo": 120.0
            },
            {
                "start_time": 47.8863636,
                "end_time": 47.9863636,
                "pitch": 55,
                "velocity": 40,
                "duration": 0.1,
                "tempo": 120.0
            },
            {
                "start_time": 48.1204545,
                "end_time": 48.2204545,
                "pitch": 55,
                "velocity": 40,
                "duration": 0.1,
                "tempo": 120.0
            },
            {
                "start_time": 48.3545455,
                "end_time": 48.4522727,
                "pitch": 53,
                "velocity": 40,
                "duration": 0.0977273,
                "tempo": 120.0
            },
            {
                "start_time": 48.5840909,
                "end_time": 48.6818182,
                "pitch": 53,
                "velocity": 40,
                "duration": 0.0977273,
                "tempo": 120.0
            },
            {
                "start_time": 48.8136364,
                "end_time": 48.9136364,
                "pitch": 53,
                "velocity": 40,
                "duration": 0.1,
                "tempo": 120.0
            },
            {
                "start_time": 49.0477273,
                "end_time": 49.1477273,
                "pitch": 53,
                "velocity": 40,
                "duration": 0.1,
                "tempo": 120.0
            },
            {
                "start_time": 49.2818182,
                "end_time": 49.3795455,
                "pitch": 53,
                "velocity": 40,
                "duration": 0.0977273,
                "tempo": 120.0
            },
            {
                "start_time": 49.5113636,
                "end_time": 49.6090909,
                "pitch": 53,
                "velocity": 40,
                "duration": 0.0977273,
                "tempo": 120.0
            },
            {
                "start_time": 49.7409091,
                "end_time": 49.8409091,
                "pitch": 53,
                "velocity": 40,
                "duration": 0.1,
                "tempo": 120.0
            },
            {
                "start_time": 49.975,
                "end_time": 50.075,
                "pitch": 53,
                "velocity": 40,
                "duration": 0.1,
                "tempo": 120.0
            },
            {
                "start_time": 50.2090909,
                "end_time": 50.3090909,
                "pitch": 55,
                "velocity": 40,
                "duration": 0.1,
                "tempo": 120.0
            },
            {
                "start_time": 50.4431818,
                "end_time": 50.5431818,
                "pitch": 55,
                "velocity": 40,
                "duration": 0.1,
                "tempo": 120.0
            },
            {
                "start_time": 50.6772727,
                "end_time": 50.7795455,
                "pitch": 55,
                "velocity": 40,
                "duration": 0.1022727,
                "tempo": 120.0
            },
            {
                "start_time": 50.9136364,
                "end_time": 51.0136364,
                "pitch": 55,
                "velocity": 40,
                "duration": 0.1,
                "tempo": 120.0
            },
            {
                "start_time": 51.1477273,
                "end_time": 51.2454545,
                "pitch": 55,
                "velocity": 40,
                "duration": 0.0977273,
                "tempo": 120.0
            },
            {
                "start_time": 51.3772727,
                "end_time": 51.475,
                "pitch": 55,
                "velocity": 40,
                "duration": 0.0977273,
                "tempo": 120.0
            },
            {
                "start_time": 51.6045455,
                "end_time": 51.7068182,
                "pitch": 55,
                "velocity": 40,
                "duration": 0.1022727,
                "tempo": 120.0
            },
            {
                "start_time": 51.8409091,
                "end_time": 51.9409091,
                "pitch": 55,
                "velocity": 40,
                "duration": 0.1,
                "tempo": 120.0
            },
            {
                "start_time": 52.075,
                "end_time": 52.1727273,
                "pitch": 56,
                "velocity": 40,
                "duration": 0.0977273,
                "tempo": 120.0
            },
            {
                "start_time": 52.3022727,
                "end_time": 52.4022727,
                "pitch": 56,
                "velocity": 40,
                "duration": 0.1,
                "tempo": 120.0
            },
            {
                "start_time": 52.5318182,
                "end_time": 52.6318182,
                "pitch": 56,
                "velocity": 40,
                "duration": 0.1,
                "tempo": 120.0
            },
            {
                "start_time": 52.7659091,
                "end_time": 52.8681818,
                "pitch": 56,
                "velocity": 40,
                "duration": 0.1022727,
                "tempo": 120.0
            },
            {
                "start_time": 53.0022727,
                "end_time": 53.1022727,
                "pitch": 56,
                "velocity": 40,
                "duration": 0.1,
                "tempo": 120.0
            },
            {
                "start_time": 53.2363636,
                "end_time": 53.3363636,
                "pitch": 56,
                "velocity": 40,
                "duration": 0.1,
                "tempo": 120.0
            },
            {
                "start_time": 53.4704545,
                "end_time": 53.5704545,
                "pitch": 56,
                "velocity": 40,
                "duration": 0.1,
                "tempo": 120.0
            },
            {
                "start_time": 53.7045455,
                "end_time": 53.8045455,
                "pitch": 56,
                "velocity": 40,
                "duration": 0.1,
                "tempo": 120.0
            },
            {
                "start_time": 53.9386364,
                "end_time": 54.0386364,
                "pitch": 55,
                "velocity": 40,
                "duration": 0.1,
                "tempo": 120.0
            },
            {
                "start_time": 54.1681818,
                "end_time": 54.2659091,
                "pitch": 55,
                "velocity": 40,
                "duration": 0.0977273,
                "tempo": 120.0
            },
            {
                "start_time": 54.3977273,
                "end_time": 54.4977273,
                "pitch": 55,
                "velocity": 40,
                "duration": 0.1,
                "tempo": 120.0
            },
            {
                "start_time": 54.6318182,
                "end_time": 54.7318182,
                "pitch": 55,
                "velocity": 40,
                "duration": 0.1,
                "tempo": 120.0
            },
            {
                "start_time": 54.8659091,
                "end_time": 54.9636364,
                "pitch": 55,
                "velocity": 40,
                "duration": 0.0977273,
                "tempo": 120.0
            },
            {
                "start_time": 55.0954545,
                "end_time": 55.1931818,
                "pitch": 55,
                "velocity": 40,
                "duration": 0.0977273,
                "tempo": 120.0
            },
            {
                "start_time": 55.325,
                "end_time": 55.425,
                "pitch": 55,
                "velocity": 40,
                "duration": 0.1,
                "tempo": 120.0
            },
            {
                "start_time": 55.5590909,
                "end_time": 55.6590909,
                "pitch": 55,
                "velocity": 40,
                "duration": 0.1,
                "tempo": 120.0
            },
            {
                "start_time": 55.7931818,
                "end_time": 55.8931818,
                "pitch": 56,
                "velocity": 40,
                "duration": 0.1,
                "tempo": 120.0
            },
            {
                "start_time": 56.0272727,
                "end_time": 56.1295455,
                "pitch": 56,
                "velocity": 40,
                "duration": 0.1022727,
                "tempo": 120.0
            },
            {
                "start_time": 56.2636364,
                "end_time": 56.3636364,
                "pitch": 56,
                "velocity": 40,
                "duration": 0.1,
                "tempo": 120.0
            },
            {
                "start_time": 56.4977273,
                "end_time": 56.5977273,
                "pitch": 56,
                "velocity": 40,
                "duration": 0.1,
                "tempo": 120.0
            },
            {
                "start_time": 56.7318182,
                "end_time": 56.8295455,
                "pitch": 56,
                "velocity": 40,
                "duration": 0.0977273,
                "tempo": 120.0
            },
            {
                "start_time": 56.9613636,
                "end_time": 57.0590909,
                "pitch": 56,
                "velocity": 40,
                "duration": 0.0977273,
                "tempo": 120.0
            },
            {
                "start_time": 57.1909091,
                "end_time": 57.2909091,
                "pitch": 56,
                "velocity": 40,
                "duration": 0.1,
                "tempo": 120.0
            },
            {
                "start_time": 57.425,
                "end_time": 57.525,
                "pitch": 56,
                "velocity": 40,
                "duration": 0.1,
                "tempo": 120.0
            },
            {
                "start_time": 57.6590909,
                "end_time": 57.7568182,
                "pitch": 55,
                "velocity": 40,
                "duration": 0.0977273,
                "tempo": 120.0
            },
            {
                "start_time": 57.8886364,
                "end_time": 57.9863636,
                "pitch": 55,
                "velocity": 40,
                "duration": 0.0977273,
                "tempo": 120.0
            },
            {
                "start_time": 58.1181818,
                "end_time": 58.2181818,
                "pitch": 55,
                "velocity": 40,
                "duration": 0.1,
                "tempo": 120.0
            },
            {
                "start_time": 58.3522727,
                "end_time": 58.4522727,
                "pitch": 55,
                "velocity": 40,
                "duration": 0.1,
                "tempo": 120.0
            },
            {
                "start_time": 58.5863636,
                "end_time": 58.6863636,
                "pitch": 55,
                "velocity": 40,
                "duration": 0.1,
                "tempo": 120.0
            },
            {
                "start_time": 58.8204545,
                "end_time": 58.9204545,
                "pitch": 55,
                "velocity": 40,
                "duration": 0.1,
                "tempo": 120.0
            },
            {
                "start_time": 59.0545455,
                "end_time": 59.1545455,
                "pitch": 55,
                "velocity": 40,
                "duration": 0.1,
                "tempo": 120.0
            },
            {
                "start_time": 59.2886364,
                "end_time": 59.3909091,
                "pitch": 55,
                "velocity": 40,
                "duration": 0.1022727,
                "tempo": 120.0
            },
            {
                "start_time": 59.525,
                "end_time": 59.6227273,
                "pitch": 56,
                "velocity": 40,
                "duration": 0.0977273,
                "tempo": 120.0
            },
            {
                "start_time": 59.7522727,
                "end_time": 59.8522727,
                "pitch": 56,
                "velocity": 40,
                "duration": 0.1,
                "tempo": 120.0
            },
            {
                "start_time": 59.9818182,
                "end_time": 60.0818182,
                "pitch": 56,
                "velocity": 40,
                "duration": 0.1,
                "tempo": 120.0
            },
            {
                "start_time": 60.2159091,
                "end_time": 60.3181818,
                "pitch": 56,
                "velocity": 40,
                "duration": 0.1022727,
                "tempo": 120.0
            },
            {
                "start_time": 60.4522727,
                "end_time": 60.55,
                "pitch": 56,
                "velocity": 40,
                "duration": 0.0977273,
                "tempo": 120.0
            },
            {
                "start_time": 60.6795455,
                "end_time": 60.7795455,
                "pitch": 56,
                "velocity": 40,
                "duration": 0.1,
                "tempo": 120.0
            },
            {
                "start_time": 60.9090909,
                "end_time": 61.0090909,
                "pitch": 56,
                "velocity": 40,
                "duration": 0.1,
                "tempo": 120.0
            },
            {
                "start_time": 61.1431818,
                "end_time": 61.2454545,
                "pitch": 56,
                "velocity": 40,
                "duration": 0.1022727,
                "tempo": 120.0
            },
            {
                "start_time": 61.3795455,
                "end_time": 61.4795455,
                "pitch": 55,
                "velocity": 40,
                "duration": 0.1,
                "tempo": 120.0
            },
            {
                "start_time": 61.6136364,
                "end_time": 61.7136364,
                "pitch": 55,
                "velocity": 40,
                "duration": 0.1,
                "tempo": 120.0
            },
            {
                "start_time": 61.8477273,
                "end_time": 61.9477273,
                "pitch": 55,
                "velocity": 40,
                "duration": 0.1,
                "tempo": 120.0
            },
            {
                "start_time": 62.0818182,
                "end_time": 62.1818182,
                "pitch": 55,
                "velocity": 40,
                "duration": 0.1,
                "tempo": 120.0
            },
            {
                "start_time": 62.3159091,
                "end_time": 62.4136364,
                "pitch": 55,
                "velocity": 40,
                "duration": 0.0977273,
                "tempo": 120.0
            },
            {
                "start_time": 62.5454545,
                "end_time": 62.6431818,
                "pitch": 55,
                "velocity": 40,
                "duration": 0.0977273,
                "tempo": 120.0
            },
            {
                "start_time": 62.775,
                "end_time": 62.875,
                "pitch": 55,
                "velocity": 40,
                "duration": 0.1,
                "tempo": 120.0
            },
            {
                "start_time": 63.0090909,
                "end_time": 63.1090909,
                "pitch": 55,
                "velocity": 40,
                "duration": 0.1,
                "tempo": 120.0
            },
            {
                "start_time": 63.2431818,
                "end_time": 63.3409091,
                "pitch": 60,
                "velocity": 40,
                "duration": 0.0977273,
                "tempo": 120.0
            },
            {
                "start_time": 63.4727273,
                "end_time": 63.5704545,
                "pitch": 60,
                "velocity": 40,
                "duration": 0.0977273,
                "tempo": 120.0
            },
            {
                "start_time": 63.7022727,
                "end_time": 63.8022727,
                "pitch": 60,
                "velocity": 40,
                "duration": 0.1,
                "tempo": 120.0
            },
            {
                "start_time": 63.9363636,
                "end_time": 64.0363636,
                "pitch": 60,
                "velocity": 40,
                "duration": 0.1,
                "tempo": 120.0
            },
            {
                "start_time": 64.1704545,
                "end_time": 64.2704545,
                "pitch": 60,
                "velocity": 40,
                "duration": 0.1,
                "tempo": 120.0
            },
            {
                "start_time": 64.4045455,
                "end_time": 64.5068182,
                "pitch": 60,
                "velocity": 40,
                "duration": 0.1022727,
                "tempo": 120.0
            },
            {
                "start_time": 64.6409091,
                "end_time": 64.7409091,
                "pitch": 60,
                "velocity": 40,
                "duration": 0.1,
                "tempo": 120.0
            },
            {
                "start_time": 64.875,
                "end_time": 64.975,
                "pitch": 60,
                "velocity": 40,
                "duration": 0.1,
                "tempo": 120.0
            },
            {
                "start_time": 65.1090909,
                "end_time": 65.2068182,
                "pitch": 60,
                "velocity": 40,
                "duration": 0.0977273,
                "tempo": 120.0
            },
            {
                "start_time": 65.3386364,
                "end_time": 65.4363636,
                "pitch": 60,
                "velocity": 40,
                "duration": 0.0977273,
                "tempo": 120.0
            },
            {
                "start_time": 65.5659091,
                "end_time": 65.6681818,
                "pitch": 60,
                "velocity": 40,
                "duration": 0.1022727,
                "tempo": 120.0
            },
            {
                "start_time": 65.8022727,
                "end_time": 65.9022727,
                "pitch": 60,
                "velocity": 40,
                "duration": 0.1,
                "tempo": 120.0
            },
            {
                "start_time": 66.0363636,
                "end_time": 66.1340909,
                "pitch": 60,
                "velocity": 40,
                "duration": 0.0977273,
                "tempo": 120.0
            },
            {
                "start_time": 66.2659091,
                "end_time": 66.3636364,
                "pitch": 60,
                "velocity": 40,
                "duration": 0.0977273,
                "tempo": 120.0
            },
            {
                "start_time": 66.4931818,
                "end_time": 66.5954545,
                "pitch": 60,
                "velocity": 40,
                "duration": 0.1022727,
                "tempo": 120.0
            },
            {
                "start_time": 66.7318182,
                "end_time": 66.8340909,
                "pitch": 60,
                "velocity": 40,
                "duration": 0.1022727,
                "tempo": 120.0
            },
            {
                "start_time": 66.9704545,
                "end_time": 67.0681818,
                "pitch": 56,
                "velocity": 40,
                "duration": 0.0977273,
                "tempo": 120.0
            },
            {
                "start_time": 67.2,
                "end_time": 67.2977273,
                "pitch": 56,
                "velocity": 40,
                "duration": 0.0977273,
                "tempo": 120.0
            },
            {
                "start_time": 67.4295455,
                "end_time": 67.5295455,
                "pitch": 56,
                "velocity": 40,
                "duration": 0.1,
                "tempo": 120.0
            },
            {
                "start_time": 67.6636364,
                "end_time": 67.7636364,
                "pitch": 56,
                "velocity": 40,
                "duration": 0.1,
                "tempo": 120.0
            },
            {
                "start_time": 67.8977273,
                "end_time": 67.9954545,
                "pitch": 56,
                "velocity": 40,
                "duration": 0.0977273,
                "tempo": 120.0
            },
            {
                "start_time": 68.1272727,
                "end_time": 68.225,
                "pitch": 56,
                "velocity": 40,
                "duration": 0.0977273,
                "tempo": 120.0
            },
            {
                "start_time": 68.3545455,
                "end_time": 68.4568182,
                "pitch": 56,
                "velocity": 40,
                "duration": 0.1022727,
                "tempo": 120.0
            },
            {
                "start_time": 68.5909091,
                "end_time": 68.6909091,
                "pitch": 56,
                "velocity": 40,
                "duration": 0.1,
                "tempo": 120.0
            },
            {
                "start_time": 68.825,
                "end_time": 68.9227273,
                "pitch": 55,
                "velocity": 40,
                "duration": 0.0977273,
                "tempo": 120.0
            },
            {
                "start_time": 69.0545455,
                "end_time": 69.1522727,
                "pitch": 55,
                "velocity": 40,
                "duration": 0.0977273,
                "tempo": 120.0
            },
            {
                "start_time": 69.2818182,
                "end_time": 69.3840909,
                "pitch": 55,
                "velocity": 40,
                "duration": 0.1022727,
                "tempo": 120.0
            },
            {
                "start_time": 69.5181818,
                "end_time": 69.6181818,
                "pitch": 55,
                "velocity": 40,
                "duration": 0.1,
                "tempo": 120.0
            },
            {
                "start_time": 69.7522727,
                "end_time": 69.8522727,
                "pitch": 55,
                "velocity": 40,
                "duration": 0.1,
                "tempo": 120.0
            },
            {
                "start_time": 69.9863636,
                "end_time": 70.0863636,
                "pitch": 55,
                "velocity": 40,
                "duration": 0.1,
                "tempo": 120.0
            },
            {
                "start_time": 70.2204545,
                "end_time": 70.3204545,
                "pitch": 55,
                "velocity": 40,
                "duration": 0.1,
                "tempo": 120.0
            },
            {
                "start_time": 70.4545455,
                "end_time": 70.5568182,
                "pitch": 55,
                "velocity": 40,
                "duration": 0.1022727,
                "tempo": 120.0
            },
            {
                "start_time": 70.6886364,
                "end_time": 70.7886364,
                "pitch": 56,
                "velocity": 40,
                "duration": 0.1,
                "tempo": 120.0
            },
            {
                "start_time": 70.9181818,
                "end_time": 71.0159091,
                "pitch": 56,
                "velocity": 40,
                "duration": 0.0977273,
                "tempo": 120.0
            },
            {
                "start_time": 71.1477273,
                "end_time": 71.2477273,
                "pitch": 56,
                "velocity": 40,
                "duration": 0.1,
                "tempo": 120.0
            },
            {
                "start_time": 71.3818182,
                "end_time": 71.4818182,
                "pitch": 56,
                "velocity": 40,
                "duration": 0.1,
                "tempo": 120.0
            },
            {
                "start_time": 71.6159091,
                "end_time": 71.7159091,
                "pitch": 56,
                "velocity": 40,
                "duration": 0.1,
                "tempo": 120.0
            },
            {
                "start_time": 71.8454545,
                "end_time": 71.9431818,
                "pitch": 56,
                "velocity": 40,
                "duration": 0.0977273,
                "tempo": 120.0
            },
            {
                "start_time": 72.075,
                "end_time": 72.175,
                "pitch": 56,
                "velocity": 40,
                "duration": 0.1,
                "tempo": 120.0
            },
            {
                "start_time": 72.3090909,
                "end_time": 72.4090909,
                "pitch": 56,
                "velocity": 40,
                "duration": 0.1,
                "tempo": 120.0
            },
            {
                "start_time": 72.5431818,
                "end_time": 72.6454545,
                "pitch": 55,
                "velocity": 40,
                "duration": 0.1022727,
                "tempo": 120.0
            },
            {
                "start_time": 72.7795455,
                "end_time": 72.8795455,
                "pitch": 55,
                "velocity": 40,
                "duration": 0.1,
                "tempo": 120.0
            },
            {
                "start_time": 73.0136364,
                "end_time": 73.1136364,
                "pitch": 55,
                "velocity": 40,
                "duration": 0.1,
                "tempo": 120.0
            },
            {
                "start_time": 73.2477273,
                "end_time": 73.3477273,
                "pitch": 55,
                "velocity": 40,
                "duration": 0.1,
                "tempo": 120.0
            },
            {
                "start_time": 73.4818182,
                "end_time": 73.5795455,
                "pitch": 55,
                "velocity": 40,
                "duration": 0.0977273,
                "tempo": 120.0
            },
            {
                "start_time": 73.7113636,
                "end_time": 73.8090909,
                "pitch": 55,
                "velocity": 40,
                "duration": 0.0977273,
                "tempo": 120.0
            },
            {
                "start_time": 73.9409091,
                "end_time": 74.0409091,
                "pitch": 55,
                "velocity": 40,
                "duration": 0.1,
                "tempo": 120.0
            },
            {
                "start_time": 74.175,
                "end_time": 74.275,
                "pitch": 55,
                "velocity": 40,
                "duration": 0.1,
                "tempo": 120.0
            },
            {
                "start_time": 74.4090909,
                "end_time": 74.5090909,
                "pitch": 56,
                "velocity": 40,
                "duration": 0.1,
                "tempo": 120.0
            },
            {
                "start_time": 74.6431818,
                "end_time": 74.7431818,
                "pitch": 56,
                "velocity": 40,
                "duration": 0.1,
                "tempo": 120.0
            },
            {
                "start_time": 74.8772727,
                "end_time": 74.9772727,
                "pitch": 56,
                "velocity": 40,
                "duration": 0.1,
                "tempo": 120.0
            },
            {
                "start_time": 75.1068182,
                "end_time": 75.2045455,
                "pitch": 56,
                "velocity": 40,
                "duration": 0.0977273,
                "tempo": 120.0
            },
            {
                "start_time": 75.3363636,
                "end_time": 75.4363636,
                "pitch": 56,
                "velocity": 40,
                "duration": 0.1,
                "tempo": 120.0
            },
            {
                "start_time": 75.5704545,
                "end_time": 75.6704545,
                "pitch": 56,
                "velocity": 40,
                "duration": 0.1,
                "tempo": 120.0
            },
            {
                "start_time": 75.8045455,
                "end_time": 75.9068182,
                "pitch": 56,
                "velocity": 40,
                "duration": 0.1022727,
                "tempo": 120.0
            },
            {
                "start_time": 76.0409091,
                "end_time": 76.1409091,
                "pitch": 56,
                "velocity": 40,
                "duration": 0.1,
                "tempo": 120.0
            },
            {
                "start_time": 76.275,
                "end_time": 76.3727273,
                "pitch": 55,
                "velocity": 40,
                "duration": 0.0977273,
                "tempo": 120.0
            },
            {
                "start_time": 76.5045455,
                "end_time": 76.6022727,
                "pitch": 55,
                "velocity": 40,
                "duration": 0.0977273,
                "tempo": 120.0
            },
            {
                "start_time": 76.7318182,
                "end_time": 76.8340909,
                "pitch": 55,
                "velocity": 40,
                "duration": 0.1022727,
                "tempo": 120.0
            },
            {
                "start_time": 76.9681818,
                "end_time": 77.0681818,
                "pitch": 55,
                "velocity": 40,
                "duration": 0.1,
                "tempo": 120.0
            },
            {
                "start_time": 77.2022727,
                "end_time": 77.3,
                "pitch": 55,
                "velocity": 40,
                "duration": 0.0977273,
                "tempo": 120.0
            },
            {
                "start_time": 77.4295455,
                "end_time": 77.5295455,
                "pitch": 55,
                "velocity": 40,
                "duration": 0.1,
                "tempo": 120.0
            },
            {
                "start_time": 77.6590909,
                "end_time": 77.7590909,
                "pitch": 55,
                "velocity": 40,
                "duration": 0.1,
                "tempo": 120.0
            },
            {
                "start_time": 77.8931818,
                "end_time": 77.9954545,
                "pitch": 55,
                "velocity": 40,
                "duration": 0.1022727,
                "tempo": 120.0
            },
            {
                "start_time": 78.1295455,
                "end_time": 78.2295455,
                "pitch": 60,
                "velocity": 40,
                "duration": 0.1,
                "tempo": 120.0
            },
            {
                "start_time": 78.3636364,
                "end_time": 78.4636364,
                "pitch": 60,
                "velocity": 40,
                "duration": 0.1,
                "tempo": 120.0
            },
            {
                "start_time": 78.5977273,
                "end_time": 78.6977273,
                "pitch": 60,
                "velocity": 40,
                "duration": 0.1,
                "tempo": 120.0
            },
            {
                "start_time": 78.8318182,
                "end_time": 78.9318182,
                "pitch": 60,
                "velocity": 40,
                "duration": 0.1,
                "tempo": 120.0
            },
            {
                "start_time": 79.0659091,
                "end_time": 79.1659091,
                "pitch": 60,
                "velocity": 40,
                "duration": 0.1,
                "tempo": 120.0
            },
            {
                "start_time": 79.2954545,
                "end_time": 79.3931818,
                "pitch": 60,
                "velocity": 40,
                "duration": 0.0977273,
                "tempo": 120.0
            },
            {
                "start_time": 79.525,
                "end_time": 79.625,
                "pitch": 60,
                "velocity": 40,
                "duration": 0.1,
                "tempo": 120.0
            },
            {
                "start_time": 79.7590909,
                "end_time": 79.8590909,
                "pitch": 60,
                "velocity": 40,
                "duration": 0.1,
                "tempo": 120.0
            },
            {
                "start_time": 79.9931818,
                "end_time": 80.0909091,
                "pitch": 60,
                "velocity": 40,
                "duration": 0.0977273,
                "tempo": 120.0
            },
            {
                "start_time": 80.2227273,
                "end_time": 80.3204545,
                "pitch": 60,
                "velocity": 40,
                "duration": 0.0977273,
                "tempo": 120.0
            },
            {
                "start_time": 80.4522727,
                "end_time": 80.5522727,
                "pitch": 60,
                "velocity": 40,
                "duration": 0.1,
                "tempo": 120.0
            },
            {
                "start_time": 80.6863636,
                "end_time": 80.7863636,
                "pitch": 60,
                "velocity": 40,
                "duration": 0.1,
                "tempo": 120.0
            },
            {
                "start_time": 80.9204545,
                "end_time": 81.0204545,
                "pitch": 60,
                "velocity": 40,
                "duration": 0.1,
                "tempo": 120.0
            },
            {
                "start_time": 81.1545455,
                "end_time": 81.2568182,
                "pitch": 60,
                "velocity": 40,
                "duration": 0.1022727,
                "tempo": 120.0
            },
            {
                "start_time": 81.3909091,
                "end_time": 81.4909091,
                "pitch": 60,
                "velocity": 40,
                "duration": 0.1,
                "tempo": 120.0
            },
            {
                "start_time": 81.625,
                "end_time": 81.725,
                "pitch": 60,
                "velocity": 40,
                "duration": 0.1,
                "tempo": 120.0
            },
            {
                "start_time": 81.8590909,
                "end_time": 81.9568182,
                "pitch": 55,
                "velocity": 40,
                "duration": 0.0977273,
                "tempo": 120.0
            },
            {
                "start_time": 82.0886364,
                "end_time": 82.1863636,
                "pitch": 55,
                "velocity": 40,
                "duration": 0.0977273,
                "tempo": 120.0
            },
            {
                "start_time": 82.3181818,
                "end_time": 82.4181818,
                "pitch": 55,
                "velocity": 40,
                "duration": 0.1,
                "tempo": 120.0
            },
            {
                "start_time": 82.5522727,
                "end_time": 82.6522727,
                "pitch": 55,
                "velocity": 40,
                "duration": 0.1,
                "tempo": 120.0
            },
            {
                "start_time": 82.7863636,
                "end_time": 82.8840909,
                "pitch": 55,
                "velocity": 40,
                "duration": 0.0977273,
                "tempo": 120.0
            },
            {
                "start_time": 83.0159091,
                "end_time": 83.1136364,
                "pitch": 55,
                "velocity": 40,
                "duration": 0.0977273,
                "tempo": 120.0
            },
            {
                "start_time": 83.2454545,
                "end_time": 83.3454545,
                "pitch": 55,
                "velocity": 40,
                "duration": 0.1,
                "tempo": 120.0
            },
            {
                "start_time": 83.4795455,
                "end_time": 83.5795455,
                "pitch": 55,
                "velocity": 40,
                "duration": 0.1,
                "tempo": 120.0
            },
            {
                "start_time": 83.7136364,
                "end_time": 83.8136364,
                "pitch": 56,
                "velocity": 40,
                "duration": 0.1,
                "tempo": 120.0
            },
            {
                "start_time": 83.9477273,
                "end_time": 84.0477273,
                "pitch": 56,
                "velocity": 40,
                "duration": 0.1,
                "tempo": 120.0
            },
            {
                "start_time": 84.1818182,
                "end_time": 84.2818182,
                "pitch": 56,
                "velocity": 40,
                "duration": 0.1,
                "tempo": 120.0
            },
            {
                "start_time": 84.4159091,
                "end_time": 84.5181818,
                "pitch": 56,
                "velocity": 40,
                "duration": 0.1022727,
                "tempo": 120.0
            },
            {
                "start_time": 84.6522727,
                "end_time": 84.75,
                "pitch": 56,
                "velocity": 40,
                "duration": 0.0977273,
                "tempo": 120.0
            },
            {
                "start_time": 84.8795455,
                "end_time": 84.9795455,
                "pitch": 56,
                "velocity": 40,
                "duration": 0.1,
                "tempo": 120.0
            },
            {
                "start_time": 85.1090909,
                "end_time": 85.2090909,
                "pitch": 56,
                "velocity": 40,
                "duration": 0.1,
                "tempo": 120.0
            },
            {
                "start_time": 85.3431818,
                "end_time": 85.4454545,
                "pitch": 56,
                "velocity": 40,
                "duration": 0.1022727,
                "tempo": 120.0
            },
            {
                "start_time": 85.5795455,
                "end_time": 85.6772727,
                "pitch": 58,
                "velocity": 40,
                "duration": 0.0977273,
                "tempo": 120.0
            },
            {
                "start_time": 85.8068182,
                "end_time": 85.9068182,
                "pitch": 58,
                "velocity": 40,
                "duration": 0.1,
                "tempo": 120.0
            },
            {
                "start_time": 86.0363636,
                "end_time": 86.1363636,
                "pitch": 58,
                "velocity": 40,
                "duration": 0.1,
                "tempo": 120.0
            },
            {
                "start_time": 86.2704545,
                "end_time": 86.3727273,
                "pitch": 58,
                "velocity": 40,
                "duration": 0.1022727,
                "tempo": 120.0
            },
            {
                "start_time": 86.5068182,
                "end_time": 86.6068182,
                "pitch": 58,
                "velocity": 40,
                "duration": 0.1,
                "tempo": 120.0
            },
            {
                "start_time": 86.7409091,
                "end_time": 86.8409091,
                "pitch": 58,
                "velocity": 40,
                "duration": 0.1,
                "tempo": 120.0
            },
            {
                "start_time": 86.975,
                "end_time": 87.075,
                "pitch": 58,
                "velocity": 40,
                "duration": 0.1,
                "tempo": 120.0
            },
            {
                "start_time": 87.2090909,
                "end_time": 87.3090909,
                "pitch": 58,
                "velocity": 40,
                "duration": 0.1,
                "tempo": 120.0
            },
            {
                "start_time": 87.4431818,
                "end_time": 87.5409091,
                "pitch": 60,
                "velocity": 40,
                "duration": 0.0977273,
                "tempo": 120.0
            },
            {
                "start_time": 87.6727273,
                "end_time": 87.7704545,
                "pitch": 60,
                "velocity": 40,
                "duration": 0.0977273,
                "tempo": 120.0
            },
            {
                "start_time": 87.9022727,
                "end_time": 88.0022727,
                "pitch": 60,
                "velocity": 40,
                "duration": 0.1,
                "tempo": 120.0
            },
            {
                "start_time": 88.1363636,
                "end_time": 88.2363636,
                "pitch": 60,
                "velocity": 40,
                "duration": 0.1,
                "tempo": 120.0
            },
            {
                "start_time": 88.3704545,
                "end_time": 88.4681818,
                "pitch": 60,
                "velocity": 40,
                "duration": 0.0977273,
                "tempo": 120.0
            },
            {
                "start_time": 88.6,
                "end_time": 88.6977273,
                "pitch": 60,
                "velocity": 40,
                "duration": 0.0977273,
                "tempo": 120.0
            },
            {
                "start_time": 88.8295455,
                "end_time": 88.9318182,
                "pitch": 60,
                "velocity": 40,
                "duration": 0.1022727,
                "tempo": 120.0
            },
            {
                "start_time": 89.0681818,
                "end_time": 89.1727273,
                "pitch": 60,
                "velocity": 40,
                "duration": 0.1045455,
                "tempo": 120.0
            },
            {
                "start_time": 89.3090909,
                "end_time": 89.4068182,
                "pitch": 55,
                "velocity": 40,
                "duration": 0.0977273,
                "tempo": 120.0
            },
            {
                "start_time": 89.5386364,
                "end_time": 89.6363636,
                "pitch": 55,
                "velocity": 40,
                "duration": 0.0977273,
                "tempo": 120.0
            },
            {
                "start_time": 89.7681818,
                "end_time": 89.8681818,
                "pitch": 55,
                "velocity": 40,
                "duration": 0.1,
                "tempo": 120.0
            },
            {
                "start_time": 90.0022727,
                "end_time": 90.1022727,
                "pitch": 55,
                "velocity": 40,
                "duration": 0.1,
                "tempo": 120.0
            },
            {
                "start_time": 90.2363636,
                "end_time": 90.3340909,
                "pitch": 55,
                "velocity": 40,
                "duration": 0.0977273,
                "tempo": 120.0
            },
            {
                "start_time": 90.4659091,
                "end_time": 90.5636364,
                "pitch": 55,
                "velocity": 40,
                "duration": 0.0977273,
                "tempo": 120.0
            },
            {
                "start_time": 90.6931818,
                "end_time": 90.7954545,
                "pitch": 55,
                "velocity": 40,
                "duration": 0.1022727,
                "tempo": 120.0
            },
            {
                "start_time": 90.9295455,
                "end_time": 91.0295455,
                "pitch": 55,
                "velocity": 40,
                "duration": 0.1,
                "tempo": 120.0
            },
            {
                "start_time": 91.1636364,
                "end_time": 91.2613636,
                "pitch": 56,
                "velocity": 40,
                "duration": 0.0977273,
                "tempo": 120.0
            },
            {
                "start_time": 91.3931818,
                "end_time": 91.4909091,
                "pitch": 56,
                "velocity": 40,
                "duration": 0.0977273,
                "tempo": 120.0
            },
            {
                "start_time": 91.6204545,
                "end_time": 91.7227273,
                "pitch": 56,
                "velocity": 40,
                "duration": 0.1022727,
                "tempo": 120.0
            },
            {
                "start_time": 91.8568182,
                "end_time": 91.9568182,
                "pitch": 56,
                "velocity": 40,
                "duration": 0.1,
                "tempo": 120.0
            },
            {
                "start_time": 92.0909091,
                "end_time": 92.1909091,
                "pitch": 56,
                "velocity": 40,
                "duration": 0.1,
                "tempo": 120.0
            },
            {
                "start_time": 92.325,
                "end_time": 92.425,
                "pitch": 56,
                "velocity": 40,
                "duration": 0.1,
                "tempo": 120.0
            },
            {
                "start_time": 92.5590909,
                "end_time": 92.6590909,
                "pitch": 56,
                "velocity": 40,
                "duration": 0.1,
                "tempo": 120.0
            },
            {
                "start_time": 92.7931818,
                "end_time": 92.8954545,
                "pitch": 56,
                "velocity": 40,
                "duration": 0.1022727,
                "tempo": 120.0
            },
            {
                "start_time": 93.0272727,
                "end_time": 93.1272727,
                "pitch": 58,
                "velocity": 40,
                "duration": 0.1,
                "tempo": 120.0
            },
            {
                "start_time": 93.2568182,
                "end_time": 93.3568182,
                "pitch": 58,
                "velocity": 40,
                "duration": 0.1,
                "tempo": 120.0
            },
            {
                "start_time": 93.4863636,
                "end_time": 93.5863636,
                "pitch": 58,
                "velocity": 40,
                "duration": 0.1,
                "tempo": 120.0
            },
            {
                "start_time": 93.7204545,
                "end_time": 93.8227273,
                "pitch": 58,
                "velocity": 40,
                "duration": 0.1022727,
                "tempo": 120.0
            },
            {
                "start_time": 93.9545455,
                "end_time": 94.0545455,
                "pitch": 58,
                "velocity": 40,
                "duration": 0.1,
                "tempo": 120.0
            },
            {
                "start_time": 94.1840909,
                "end_time": 94.2818182,
                "pitch": 58,
                "velocity": 40,
                "duration": 0.0977273,
                "tempo": 120.0
            },
            {
                "start_time": 94.4136364,
                "end_time": 94.5136364,
                "pitch": 58,
                "velocity": 40,
                "duration": 0.1,
                "tempo": 120.0
            },
            {
                "start_time": 94.6477273,
                "end_time": 94.7477273,
                "pitch": 58,
                "velocity": 40,
                "duration": 0.1,
                "tempo": 120.0
            },
            {
                "start_time": 94.8818182,
                "end_time": 94.9840909,
                "pitch": 60,
                "velocity": 40,
                "duration": 0.1022727,
                "tempo": 120.0
            },
            {
                "start_time": 95.1181818,
                "end_time": 95.2181818,
                "pitch": 60,
                "velocity": 40,
                "duration": 0.1,
                "tempo": 120.0
            },
            {
                "start_time": 95.3522727,
                "end_time": 95.4522727,
                "pitch": 60,
                "velocity": 40,
                "duration": 0.1,
                "tempo": 120.0
            },
            {
                "start_time": 95.5863636,
                "end_time": 95.6863636,
                "pitch": 60,
                "velocity": 40,
                "duration": 0.1,
                "tempo": 120.0
            },
            {
                "start_time": 95.8204545,
                "end_time": 95.9181818,
                "pitch": 60,
                "velocity": 40,
                "duration": 0.0977273,
                "tempo": 120.0
            },
            {
                "start_time": 96.05,
                "end_time": 96.1477273,
                "pitch": 60,
                "velocity": 40,
                "duration": 0.0977273,
                "tempo": 120.0
            },
            {
                "start_time": 96.2795455,
                "end_time": 96.3818182,
                "pitch": 60,
                "velocity": 40,
                "duration": 0.1022727,
                "tempo": 120.0
            },
            {
                "start_time": 96.5181818,
                "end_time": 96.6204545,
                "pitch": 60,
                "velocity": 40,
                "duration": 0.1022727,
                "tempo": 120.0
            },
            {
                "start_time": 96.7590909,
                "end_time": 96.8568182,
                "pitch": 56,
                "velocity": 40,
                "duration": 0.0977273,
                "tempo": 120.0
            },
            {
                "start_time": 96.9886364,
                "end_time": 97.0863636,
                "pitch": 56,
                "velocity": 40,
                "duration": 0.0977273,
                "tempo": 120.0
            },
            {
                "start_time": 97.2181818,
                "end_time": 97.3159091,
                "pitch": 56,
                "velocity": 40,
                "duration": 0.0977273,
                "tempo": 120.0
            },
            {
                "start_time": 97.4454545,
                "end_time": 97.5454545,
                "pitch": 56,
                "velocity": 40,
                "duration": 0.1,
                "tempo": 120.0
            },
            {
                "start_time": 97.675,
                "end_time": 97.775,
                "pitch": 56,
                "velocity": 40,
                "duration": 0.1,
                "tempo": 120.0
            },
            {
                "start_time": 97.9090909,
                "end_time": 98.0113636,
                "pitch": 56,
                "velocity": 40,
                "duration": 0.1022727,
                "tempo": 120.0
            },
            {
                "start_time": 98.1454545,
                "end_time": 98.2454545,
                "pitch": 56,
                "velocity": 40,
                "duration": 0.1,
                "tempo": 120.0
            },
            {
                "start_time": 98.3795455,
                "end_time": 98.4795455,
                "pitch": 56,
                "velocity": 40,
                "duration": 0.1,
                "tempo": 120.0
            },
            {
                "start_time": 98.6136364,
                "end_time": 98.7113636,
                "pitch": 55,
                "velocity": 40,
                "duration": 0.0977273,
                "tempo": 120.0
            },
            {
                "start_time": 98.8431818,
                "end_time": 98.9409091,
                "pitch": 55,
                "velocity": 40,
                "duration": 0.0977273,
                "tempo": 120.0
            },
            {
                "start_time": 99.0704545,
                "end_time": 99.1727273,
                "pitch": 55,
                "velocity": 40,
                "duration": 0.1022727,
                "tempo": 120.0
            },
            {
                "start_time": 99.3068182,
                "end_time": 99.4068182,
                "pitch": 55,
                "velocity": 40,
                "duration": 0.1,
                "tempo": 120.0
            },
            {
                "start_time": 99.5409091,
                "end_time": 99.6386364,
                "pitch": 55,
                "velocity": 40,
                "duration": 0.0977273,
                "tempo": 120.0
            },
            {
                "start_time": 99.7704545,
                "end_time": 99.8681818,
                "pitch": 55,
                "velocity": 40,
                "duration": 0.0977273,
                "tempo": 120.0
            },
            {
                "start_time": 99.9977273,
                "end_time": 100.1,
                "pitch": 55,
                "velocity": 40,
                "duration": 0.1022727,
                "tempo": 120.0
            },
            {
                "start_time": 100.2340909,
                "end_time": 100.3340909,
                "pitch": 55,
                "velocity": 40,
                "duration": 0.1,
                "tempo": 120.0
            },
            {
                "start_time": 100.4681818,
                "end_time": 100.5681818,
                "pitch": 56,
                "velocity": 40,
                "duration": 0.1,
                "tempo": 120.0
            },
            {
                "start_time": 100.7022727,
                "end_time": 100.8022727,
                "pitch": 56,
                "velocity": 40,
                "duration": 0.1,
                "tempo": 120.0
            },
            {
                "start_time": 100.9363636,
                "end_time": 101.0363636,
                "pitch": 56,
                "velocity": 40,
                "duration": 0.1,
                "tempo": 120.0
            },
            {
                "start_time": 101.1704545,
                "end_time": 101.2727273,
                "pitch": 56,
                "velocity": 40,
                "duration": 0.1022727,
                "tempo": 120.0
            },
            {
                "start_time": 101.4045455,
                "end_time": 101.5045455,
                "pitch": 56,
                "velocity": 40,
                "duration": 0.1,
                "tempo": 120.0
            },
            {
                "start_time": 101.6340909,
                "end_time": 101.7340909,
                "pitch": 56,
                "velocity": 40,
                "duration": 0.1,
                "tempo": 120.0
            },
            {
                "start_time": 101.8636364,
                "end_time": 101.9636364,
                "pitch": 56,
                "velocity": 40,
                "duration": 0.1,
                "tempo": 120.0
            },
            {
                "start_time": 102.0977273,
                "end_time": 102.2,
                "pitch": 56,
                "velocity": 40,
                "duration": 0.1022727,
                "tempo": 120.0
            },
            {
                "start_time": 102.3318182,
                "end_time": 102.4318182,
                "pitch": 55,
                "velocity": 40,
                "duration": 0.1,
                "tempo": 120.0
            },
            {
                "start_time": 102.5613636,
                "end_time": 102.6590909,
                "pitch": 55,
                "velocity": 40,
                "duration": 0.0977273,
                "tempo": 120.0
            },
            {
                "start_time": 102.7909091,
                "end_time": 102.8909091,
                "pitch": 55,
                "velocity": 40,
                "duration": 0.1,
                "tempo": 120.0
            },
            {
                "start_time": 103.025,
                "end_time": 103.125,
                "pitch": 55,
                "velocity": 40,
                "duration": 0.1,
                "tempo": 120.0
            },
            {
                "start_time": 103.2590909,
                "end_time": 103.3613636,
                "pitch": 55,
                "velocity": 40,
                "duration": 0.1022727,
                "tempo": 120.0
            },
            {
                "start_time": 103.4954545,
                "end_time": 103.5954545,
                "pitch": 55,
                "velocity": 40,
                "duration": 0.1,
                "tempo": 120.0
            },
            {
                "start_time": 103.7295455,
                "end_time": 103.8295455,
                "pitch": 55,
                "velocity": 40,
                "duration": 0.1,
                "tempo": 120.0
            },
            {
                "start_time": 103.9636364,
                "end_time": 104.0636364,
                "pitch": 55,
                "velocity": 40,
                "duration": 0.1,
                "tempo": 120.0
            },
            {
                "start_time": 104.1977273,
                "end_time": 104.2954545,
                "pitch": 56,
                "velocity": 40,
                "duration": 0.0977273,
                "tempo": 120.0
            },
            {
                "start_time": 104.4272727,
                "end_time": 104.525,
                "pitch": 56,
                "velocity": 40,
                "duration": 0.0977273,
                "tempo": 120.0
            },
            {
                "start_time": 104.6568182,
                "end_time": 104.7568182,
                "pitch": 56,
                "velocity": 40,
                "duration": 0.1,
                "tempo": 120.0
            },
            {
                "start_time": 104.8909091,
                "end_time": 104.9909091,
                "pitch": 56,
                "velocity": 40,
                "duration": 0.1,
                "tempo": 120.0
            },
            {
                "start_time": 105.125,
                "end_time": 105.2227273,
                "pitch": 56,
                "velocity": 40,
                "duration": 0.0977273,
                "tempo": 120.0
            },
            {
                "start_time": 105.3545455,
                "end_time": 105.4522727,
                "pitch": 56,
                "velocity": 40,
                "duration": 0.0977273,
                "tempo": 120.0
            },
            {
                "start_time": 105.5840909,
                "end_time": 105.6840909,
                "pitch": 56,
                "velocity": 40,
                "duration": 0.1,
                "tempo": 120.0
            },
            {
                "start_time": 105.8181818,
                "end_time": 105.9181818,
                "pitch": 56,
                "velocity": 40,
                "duration": 0.1,
                "tempo": 120.0
            },
            {
                "start_time": 106.0522727,
                "end_time": 106.1522727,
                "pitch": 55,
                "velocity": 40,
                "duration": 0.1,
                "tempo": 120.0
            },
            {
                "start_time": 106.2863636,
                "end_time": 106.3863636,
                "pitch": 55,
                "velocity": 40,
                "duration": 0.1,
                "tempo": 120.0
            },
            {
                "start_time": 106.5204545,
                "end_time": 106.6227273,
                "pitch": 55,
                "velocity": 40,
                "duration": 0.1022727,
                "tempo": 120.0
            },
            {
                "start_time": 106.7568182,
                "end_time": 106.8568182,
                "pitch": 55,
                "velocity": 40,
                "duration": 0.1,
                "tempo": 120.0
            },
            {
                "start_time": 106.9909091,
                "end_time": 107.0886364,
                "pitch": 55,
                "velocity": 40,
                "duration": 0.0977273,
                "tempo": 120.0
            },
            {
                "start_time": 107.2204545,
                "end_time": 107.3181818,
                "pitch": 55,
                "velocity": 40,
                "duration": 0.0977273,
                "tempo": 120.0
            },
            {
                "start_time": 107.4477273,
                "end_time": 107.55,
                "pitch": 55,
                "velocity": 40,
                "duration": 0.1022727,
                "tempo": 120.0
            },
            {
                "start_time": 107.6840909,
                "end_time": 107.7840909,
                "pitch": 55,
                "velocity": 40,
                "duration": 0.1,
                "tempo": 120.0
            },
            {
                "start_time": 107.9181818,
                "end_time": 108.0159091,
                "pitch": 60,
                "velocity": 40,
                "duration": 0.0977273,
                "tempo": 120.0
            },
            {
                "start_time": 108.1454545,
                "end_time": 108.2454545,
                "pitch": 60,
                "velocity": 40,
                "duration": 0.1,
                "tempo": 120.0
            },
            {
                "start_time": 108.375,
                "end_time": 108.4772727,
                "pitch": 60,
                "velocity": 40,
                "duration": 0.1022727,
                "tempo": 120.0
            },
            {
                "start_time": 108.6090909,
                "end_time": 108.7113636,
                "pitch": 60,
                "velocity": 40,
                "duration": 0.1022727,
                "tempo": 120.0
            },
            {
                "start_time": 108.8454545,
                "end_time": 108.9454545,
                "pitch": 60,
                "velocity": 40,
                "duration": 0.1,
                "tempo": 120.0
            },
            {
                "start_time": 109.0795455,
                "end_time": 109.1795455,
                "pitch": 60,
                "velocity": 40,
                "duration": 0.1,
                "tempo": 120.0
            },
            {
                "start_time": 109.3136364,
                "end_time": 109.4136364,
                "pitch": 60,
                "velocity": 40,
                "duration": 0.1,
                "tempo": 120.0
            },
            {
                "start_time": 109.5477273,
                "end_time": 109.6477273,
                "pitch": 60,
                "velocity": 40,
                "duration": 0.1,
                "tempo": 120.0
            },
            {
                "start_time": 109.7818182,
                "end_time": 109.8818182,
                "pitch": 60,
                "velocity": 40,
                "duration": 0.1,
                "tempo": 120.0
            },
            {
                "start_time": 110.0113636,
                "end_time": 110.1090909,
                "pitch": 60,
                "velocity": 40,
                "duration": 0.0977273,
                "tempo": 120.0
            },
            {
                "start_time": 110.2409091,
                "end_time": 110.3409091,
                "pitch": 60,
                "velocity": 40,
                "duration": 0.1,
                "tempo": 120.0
            },
            {
                "start_time": 110.475,
                "end_time": 110.575,
                "pitch": 60,
                "velocity": 40,
                "duration": 0.1,
                "tempo": 120.0
            },
            {
                "start_time": 110.7090909,
                "end_time": 110.8613636,
                "pitch": 60,
                "velocity": 40,
                "duration": 0.1522727,
                "tempo": 120.0
            },
            {
                "start_time": 110.8772727,
                "end_time": 111.0113636,
                "pitch": 60,
                "velocity": 40,
                "duration": 0.1340909,
                "tempo": 120.0
            },
            {
                "start_time": 111.0272727,
                "end_time": 111.1613636,
                "pitch": 60,
                "velocity": 40,
                "duration": 0.1340909,
                "tempo": 120.0
            },
            {
                "start_time": 111.1795455,
                "end_time": 111.3295455,
                "pitch": 60,
                "velocity": 40,
                "duration": 0.15,
                "tempo": 120.0
            },
            {
                "start_time": 111.3454545,
                "end_time": 111.4795455,
                "pitch": 60,
                "velocity": 40,
                "duration": 0.1340909,
                "tempo": 120.0
            },
            {
                "start_time": 111.4977273,
                "end_time": 111.6318182,
                "pitch": 60,
                "velocity": 40,
                "duration": 0.1340909,
                "tempo": 120.0
            },
            {
                "start_time": 111.6477273,
                "end_time": 111.8613636,
                "pitch": 60,
                "velocity": 40,
                "duration": 0.2136364,
                "tempo": 120.0
            },
            {
                "start_time": 112.1068182,
                "end_time": 112.2545455,
                "pitch": 60,
                "velocity": 40,
                "duration": 0.1477273,
                "tempo": 120.0
            },
            {
                "start_time": 112.2704545,
                "end_time": 112.4,
                "pitch": 60,
                "velocity": 40,
                "duration": 0.1295455,
                "tempo": 120.0
            },
            {
                "start_time": 112.4181818,
                "end_time": 112.5477273,
                "pitch": 60,
                "velocity": 40,
                "duration": 0.1295455,
                "tempo": 120.0
            },
            {
                "start_time": 112.5636364,
                "end_time": 112.7818182,
                "pitch": 60,
                "velocity": 40,
                "duration": 0.2181818,
                "tempo": 120.0
            },
            {
                "start_time": 113.0340909,
                "end_time": 113.2522727,
                "pitch": 60,
                "velocity": 40,
                "duration": 0.2181818,
                "tempo": 120.0
            },
            {
                "start_time": 113.5022727,
                "end_time": 113.7159091,
                "pitch": 60,
                "velocity": 40,
                "duration": 0.2136364,
                "tempo": 120.0
            },
            {
                "start_time": 113.9613636,
                "end_time": 114.1113636,
                "pitch": 60,
                "velocity": 40,
                "duration": 0.15,
                "tempo": 120.0
            },
            {
                "start_time": 114.1272727,
                "end_time": 114.2613636,
                "pitch": 60,
                "velocity": 40,
                "duration": 0.1340909,
                "tempo": 120.0
            },
            {
                "start_time": 114.2795455,
                "end_time": 114.4136364,
                "pitch": 60,
                "velocity": 40,
                "duration": 0.1340909,
                "tempo": 120.0
            },
            {
                "start_time": 114.4295455,
                "end_time": 114.6477273,
                "pitch": 60,
                "velocity": 40,
                "duration": 0.2181818,
                "tempo": 120.0
            },
            {
                "start_time": 114.8977273,
                "end_time": 115.1159091,
                "pitch": 60,
                "velocity": 40,
                "duration": 0.2181818,
                "tempo": 120.0
            },
            {
                "start_time": 115.3681818,
                "end_time": 115.5795455,
                "pitch": 58,
                "velocity": 40,
                "duration": 0.2113636,
                "tempo": 120.0
            },
            {
                "start_time": 115.825,
                "end_time": 115.9772727,
                "pitch": 58,
                "velocity": 40,
                "duration": 0.1522727,
                "tempo": 120.0
            },
            {
                "start_time": 115.9931818,
                "end_time": 116.1272727,
                "pitch": 58,
                "velocity": 40,
                "duration": 0.1340909,
                "tempo": 120.0
            },
            {
                "start_time": 116.1431818,
                "end_time": 116.2772727,
                "pitch": 58,
                "velocity": 40,
                "duration": 0.1340909,
                "tempo": 120.0
            },
            {
                "start_time": 116.2954545,
                "end_time": 116.5068182,
                "pitch": 58,
                "velocity": 40,
                "duration": 0.2113636,
                "tempo": 120.0
            },
            {
                "start_time": 116.7522727,
                "end_time": 116.9704545,
                "pitch": 58,
                "velocity": 40,
                "duration": 0.2181818,
                "tempo": 120.0
            },
            {
                "start_time": 117.2227273,
                "end_time": 117.4386364,
                "pitch": 55,
                "velocity": 40,
                "duration": 0.2159091,
                "tempo": 120.0
            },
            {
                "start_time": 117.6909091,
                "end_time": 117.8409091,
                "pitch": 55,
                "velocity": 40,
                "duration": 0.15,
                "tempo": 120.0
            },
            {
                "start_time": 117.8590909,
                "end_time": 117.9931818,
                "pitch": 55,
                "velocity": 40,
                "duration": 0.1340909,
                "tempo": 120.0
            },
            {
                "start_time": 118.0090909,
                "end_time": 118.1431818,
                "pitch": 55,
                "velocity": 40,
                "duration": 0.1340909,
                "tempo": 120.0
            },
            {
                "start_time": 118.1590909,
                "end_time": 118.3727273,
                "pitch": 55,
                "velocity": 40,
                "duration": 0.2136364,
                "tempo": 120.0
            },
            {
                "start_time": 118.6181818,
                "end_time": 118.8409091,
                "pitch": 55,
                "velocity": 40,
                "duration": 0.2227273,
                "tempo": 120.0
            },
            {
                "start_time": 119.0977273,
                "end_time": 119.3113636,
                "pitch": 60,
                "velocity": 40,
                "duration": 0.2136364,
                "tempo": 120.0
            },
            {
                "start_time": 119.5568182,
                "end_time": 119.7045455,
                "pitch": 60,
                "velocity": 40,
                "duration": 0.1477273,
                "tempo": 120.0
            },
            {
                "start_time": 119.7204545,
                "end_time": 119.85,
                "pitch": 60,
                "velocity": 40,
                "duration": 0.1295455,
                "tempo": 120.0
            },
            {
                "start_time": 119.8681818,
                "end_time": 119.9977273,
                "pitch": 60,
                "velocity": 40,
                "duration": 0.1295455,
                "tempo": 120.0
            },
            {
                "start_time": 120.0136364,
                "end_time": 120.2318182,
                "pitch": 60,
                "velocity": 40,
                "duration": 0.2181818,
                "tempo": 120.0
            },
            {
                "start_time": 120.4840909,
                "end_time": 120.7022727,
                "pitch": 60,
                "velocity": 40,
                "duration": 0.2181818,
                "tempo": 120.0
            },
            {
                "start_time": 120.9522727,
                "end_time": 121.1659091,
                "pitch": 58,
                "velocity": 40,
                "duration": 0.2136364,
                "tempo": 120.0
            },
            {
                "start_time": 121.4113636,
                "end_time": 121.5613636,
                "pitch": 58,
                "velocity": 40,
                "duration": 0.15,
                "tempo": 120.0
            },
            {
                "start_time": 121.5772727,
                "end_time": 121.7113636,
                "pitch": 58,
                "velocity": 40,
                "duration": 0.1340909,
                "tempo": 120.0
            },
            {
                "start_time": 121.7295455,
                "end_time": 121.8636364,
                "pitch": 58,
                "velocity": 40,
                "duration": 0.1340909,
                "tempo": 120.0
            },
            {
                "start_time": 121.8795455,
                "end_time": 122.0931818,
                "pitch": 58,
                "velocity": 40,
                "duration": 0.2136364,
                "tempo": 120.0
            },
            {
                "start_time": 122.3386364,
                "end_time": 122.5545455,
                "pitch": 58,
                "velocity": 40,
                "duration": 0.2159091,
                "tempo": 120.0
            },
            {
                "start_time": 122.8068182,
                "end_time": 123.025,
                "pitch": 60,
                "velocity": 40,
                "duration": 0.2181818,
                "tempo": 120.0
            },
            {
                "start_time": 123.275,
                "end_time": 123.4272727,
                "pitch": 60,
                "velocity": 40,
                "duration": 0.1522727,
                "tempo": 120.0
            },
            {
                "start_time": 123.4431818,
                "end_time": 123.5772727,
                "pitch": 60,
                "velocity": 40,
                "duration": 0.1340909,
                "tempo": 120.0
            },
            {
                "start_time": 123.5931818,
                "end_time": 123.7272727,
                "pitch": 60,
                "velocity": 40,
                "duration": 0.1340909,
                "tempo": 120.0
            },
            {
                "start_time": 123.7454545,
                "end_time": 123.9568182,
                "pitch": 58,
                "velocity": 40,
                "duration": 0.2113636,
                "tempo": 120.0
            },
            {
                "start_time": 124.2022727,
                "end_time": 124.4204545,
                "pitch": 56,
                "velocity": 40,
                "duration": 0.2181818,
                "tempo": 120.0
            },
            {
                "start_time": 124.6727273,
                "end_time": 124.8840909,
                "pitch": 55,
                "velocity": 40,
                "duration": 0.2113636,
                "tempo": 120.0
            },
            {
                "start_time": 125.1295455,
                "end_time": 125.2818182,
                "pitch": 55,
                "velocity": 40,
                "duration": 0.1522727,
                "tempo": 120.0
            },
            {
                "start_time": 125.2977273,
                "end_time": 125.4318182,
                "pitch": 55,
                "velocity": 40,
                "duration": 0.1340909,
                "tempo": 120.0
            },
            {
                "start_time": 125.4477273,
                "end_time": 125.5818182,
                "pitch": 55,
                "velocity": 40,
                "duration": 0.1340909,
                "tempo": 120.0
            },
            {
                "start_time": 125.6,
                "end_time": 125.75,
                "pitch": 55,
                "velocity": 40,
                "duration": 0.15,
                "tempo": 120.0
            },
            {
                "start_time": 125.7659091,
                "end_time": 125.9,
                "pitch": 55,
                "velocity": 40,
                "duration": 0.1340909,
                "tempo": 120.0
            },
            {
                "start_time": 125.9181818,
                "end_time": 126.0522727,
                "pitch": 55,
                "velocity": 40,
                "duration": 0.1340909,
                "tempo": 120.0
            },
            {
                "start_time": 126.0681818,
                "end_time": 126.2181818,
                "pitch": 55,
                "velocity": 40,
                "duration": 0.15,
                "tempo": 120.0
            },
            {
                "start_time": 126.2363636,
                "end_time": 126.3704545,
                "pitch": 55,
                "velocity": 40,
                "duration": 0.1340909,
                "tempo": 120.0
            },
            {
                "start_time": 126.3863636,
                "end_time": 126.5204545,
                "pitch": 55,
                "velocity": 40,
                "duration": 0.1340909,
                "tempo": 120.0
            }
        ],
        "Acoustic Bass": [
            {
                "start_time": 4.1295455,
                "end_time": 4.1477273,
                "pitch": 48,
                "velocity": 32,
                "duration": 0.0181818,
                "tempo": 120.0
            },
            {
                "start_time": 4.1477273,
                "end_time": 4.1636364,
                "pitch": 52,
                "velocity": 32,
                "duration": 0.0159091,
                "tempo": 120.0
            },
            {
                "start_time": 4.1636364,
                "end_time": 4.2818182,
                "pitch": 48,
                "velocity": 32,
                "duration": 0.1181818,
                "tempo": 120.0
            },
            {
                "start_time": 4.3,
                "end_time": 4.3159091,
                "pitch": 48,
                "velocity": 32,
                "duration": 0.0159091,
                "tempo": 120.0
            },
            {
                "start_time": 4.3159091,
                "end_time": 4.3340909,
                "pitch": 52,
                "velocity": 32,
                "duration": 0.0181818,
                "tempo": 120.0
            },
            {
                "start_time": 4.3340909,
                "end_time": 4.4363636,
                "pitch": 48,
                "velocity": 32,
                "duration": 0.1022727,
                "tempo": 120.0
            },
            {
                "start_time": 4.4522727,
                "end_time": 4.4704545,
                "pitch": 48,
                "velocity": 32,
                "duration": 0.0181818,
                "tempo": 120.0
            },
            {
                "start_time": 4.4704545,
                "end_time": 4.4863636,
                "pitch": 52,
                "velocity": 32,
                "duration": 0.0159091,
                "tempo": 120.0
            },
            {
                "start_time": 4.4863636,
                "end_time": 4.5886364,
                "pitch": 48,
                "velocity": 32,
                "duration": 0.1022727,
                "tempo": 120.0
            },
            {
                "start_time": 4.6068182,
                "end_time": 4.6227273,
                "pitch": 48,
                "velocity": 32,
                "duration": 0.0159091,
                "tempo": 120.0
            },
            {
                "start_time": 4.6227273,
                "end_time": 4.6386364,
                "pitch": 52,
                "velocity": 32,
                "duration": 0.0159091,
                "tempo": 120.0
            },
            {
                "start_time": 4.6386364,
                "end_time": 4.8181818,
                "pitch": 48,
                "velocity": 32,
                "duration": 0.1795455,
                "tempo": 120.0
            },
            {
                "start_time": 5.0636364,
                "end_time": 5.0818182,
                "pitch": 48,
                "velocity": 32,
                "duration": 0.0181818,
                "tempo": 120.0
            },
            {
                "start_time": 5.0818182,
                "end_time": 5.0977273,
                "pitch": 52,
                "velocity": 32,
                "duration": 0.0159091,
                "tempo": 120.0
            },
            {
                "start_time": 5.0977273,
                "end_time": 5.2840909,
                "pitch": 48,
                "velocity": 32,
                "duration": 0.1863636,
                "tempo": 120.0
            },
            {
                "start_time": 5.5409091,
                "end_time": 5.5568182,
                "pitch": 48,
                "velocity": 32,
                "duration": 0.0159091,
                "tempo": 120.0
            },
            {
                "start_time": 5.5568182,
                "end_time": 5.5727273,
                "pitch": 52,
                "velocity": 32,
                "duration": 0.0159091,
                "tempo": 120.0
            },
            {
                "start_time": 5.5727273,
                "end_time": 5.7522727,
                "pitch": 48,
                "velocity": 32,
                "duration": 0.1795455,
                "tempo": 120.0
            },
            {
                "start_time": 5.9977273,
                "end_time": 6.0159091,
                "pitch": 48,
                "velocity": 32,
                "duration": 0.0181818,
                "tempo": 120.0
            },
            {
                "start_time": 6.0159091,
                "end_time": 6.0318182,
                "pitch": 52,
                "velocity": 32,
                "duration": 0.0159091,
                "tempo": 120.0
            },
            {
                "start_time": 6.0318182,
                "end_time": 6.15,
                "pitch": 48,
                "velocity": 32,
                "duration": 0.1181818,
                "tempo": 120.0
            },
            {
                "start_time": 6.1659091,
                "end_time": 6.1818182,
                "pitch": 48,
                "velocity": 32,
                "duration": 0.0159091,
                "tempo": 120.0
            },
            {
                "start_time": 6.1818182,
                "end_time": 6.2,
                "pitch": 52,
                "velocity": 32,
                "duration": 0.0181818,
                "tempo": 120.0
            },
            {
                "start_time": 6.2,
                "end_time": 6.3,
                "pitch": 48,
                "velocity": 32,
                "duration": 0.1,
                "tempo": 120.0
            },
            {
                "start_time": 6.3159091,
                "end_time": 6.3340909,
                "pitch": 48,
                "velocity": 32,
                "duration": 0.0181818,
                "tempo": 120.0
            },
            {
                "start_time": 6.3340909,
                "end_time": 6.35,
                "pitch": 52,
                "velocity": 32,
                "duration": 0.0159091,
                "tempo": 120.0
            },
            {
                "start_time": 6.35,
                "end_time": 6.45,
                "pitch": 48,
                "velocity": 32,
                "duration": 0.1,
                "tempo": 120.0
            },
            {
                "start_time": 6.4659091,
                "end_time": 6.4840909,
                "pitch": 48,
                "velocity": 32,
                "duration": 0.0181818,
                "tempo": 120.0
            },
            {
                "start_time": 6.4840909,
                "end_time": 6.5,
                "pitch": 52,
                "velocity": 32,
                "duration": 0.0159091,
                "tempo": 120.0
            },
            {
                "start_time": 6.5,
                "end_time": 6.675,
                "pitch": 48,
                "velocity": 32,
                "duration": 0.175,
                "tempo": 120.0
            },
            {
                "start_time": 6.9159091,
                "end_time": 6.9318182,
                "pitch": 48,
                "velocity": 32,
                "duration": 0.0159091,
                "tempo": 120.0
            },
            {
                "start_time": 6.9318182,
                "end_time": 6.95,
                "pitch": 52,
                "velocity": 32,
                "duration": 0.0181818,
                "tempo": 120.0
            },
            {
                "start_time": 6.95,
                "end_time": 7.1386364,
                "pitch": 48,
                "velocity": 32,
                "duration": 0.1886364,
                "tempo": 120.0
            },
            {
                "start_time": 7.3954545,
                "end_time": 7.4113636,
                "pitch": 48,
                "velocity": 32,
                "duration": 0.0159091,
                "tempo": 120.0
            },
            {
                "start_time": 7.4113636,
                "end_time": 7.4272727,
                "pitch": 52,
                "velocity": 32,
                "duration": 0.0159091,
                "tempo": 120.0
            },
            {
                "start_time": 7.4272727,
                "end_time": 7.6068182,
                "pitch": 48,
                "velocity": 32,
                "duration": 0.1795455,
                "tempo": 120.0
            },
            {
                "start_time": 7.8522727,
                "end_time": 7.8704545,
                "pitch": 48,
                "velocity": 32,
                "duration": 0.0181818,
                "tempo": 120.0
            },
            {
                "start_time": 7.8704545,
                "end_time": 7.8863636,
                "pitch": 52,
                "velocity": 32,
                "duration": 0.0159091,
                "tempo": 120.0
            },
            {
                "start_time": 7.8863636,
                "end_time": 8.0045455,
                "pitch": 48,
                "velocity": 32,
                "duration": 0.1181818,
                "tempo": 120.0
            },
            {
                "start_time": 8.0204545,
                "end_time": 8.0363636,
                "pitch": 48,
                "velocity": 32,
                "duration": 0.0159091,
                "tempo": 120.0
            },
            {
                "start_time": 8.0363636,
                "end_time": 8.0545455,
                "pitch": 52,
                "velocity": 32,
                "duration": 0.0181818,
                "tempo": 120.0
            },
            {
                "start_time": 8.0545455,
                "end_time": 8.1545455,
                "pitch": 48,
                "velocity": 32,
                "duration": 0.1,
                "tempo": 120.0
            },
            {
                "start_time": 8.1704545,
                "end_time": 8.1886364,
                "pitch": 48,
                "velocity": 32,
                "duration": 0.0181818,
                "tempo": 120.0
            },
            {
                "start_time": 8.1886364,
                "end_time": 8.2045455,
                "pitch": 52,
                "velocity": 32,
                "duration": 0.0159091,
                "tempo": 120.0
            },
            {
                "start_time": 8.2045455,
                "end_time": 8.3045455,
                "pitch": 48,
                "velocity": 32,
                "duration": 0.1,
                "tempo": 120.0
            },
            {
                "start_time": 8.3227273,
                "end_time": 8.3386364,
                "pitch": 48,
                "velocity": 32,
                "duration": 0.0159091,
                "tempo": 120.0
            },
            {
                "start_time": 8.3386364,
                "end_time": 8.3568182,
                "pitch": 52,
                "velocity": 32,
                "duration": 0.0181818,
                "tempo": 120.0
            },
            {
                "start_time": 8.3568182,
                "end_time": 8.5454545,
                "pitch": 48,
                "velocity": 32,
                "duration": 0.1886364,
                "tempo": 120.0
            },
            {
                "start_time": 8.8022727,
                "end_time": 8.8181818,
                "pitch": 48,
                "velocity": 32,
                "duration": 0.0159091,
                "tempo": 120.0
            },
            {
                "start_time": 8.8181818,
                "end_time": 8.8340909,
                "pitch": 52,
                "velocity": 32,
                "duration": 0.0159091,
                "tempo": 120.0
            },
            {
                "start_time": 8.8340909,
                "end_time": 9.0159091,
                "pitch": 48,
                "velocity": 32,
                "duration": 0.1818182,
                "tempo": 120.0
            },
            {
                "start_time": 9.2613636,
                "end_time": 9.2772727,
                "pitch": 48,
                "velocity": 32,
                "duration": 0.0159091,
                "tempo": 120.0
            },
            {
                "start_time": 9.2772727,
                "end_time": 9.2931818,
                "pitch": 52,
                "velocity": 32,
                "duration": 0.0159091,
                "tempo": 120.0
            },
            {
                "start_time": 9.2931818,
                "end_time": 9.4772727,
                "pitch": 48,
                "velocity": 32,
                "duration": 0.1840909,
                "tempo": 120.0
            },
            {
                "start_time": 9.7295455,
                "end_time": 9.7454545,
                "pitch": 48,
                "velocity": 32,
                "duration": 0.0159091,
                "tempo": 120.0
            },
            {
                "start_time": 9.7454545,
                "end_time": 9.7613636,
                "pitch": 52,
                "velocity": 32,
                "duration": 0.0159091,
                "tempo": 120.0
            },
            {
                "start_time": 9.7613636,
                "end_time": 9.8772727,
                "pitch": 48,
                "velocity": 32,
                "duration": 0.1159091,
                "tempo": 120.0
            },
            {
                "start_time": 9.8931818,
                "end_time": 9.9090909,
                "pitch": 48,
                "velocity": 32,
                "duration": 0.0159091,
                "tempo": 120.0
            },
            {
                "start_time": 9.9090909,
                "end_time": 9.925,
                "pitch": 52,
                "velocity": 32,
                "duration": 0.0159091,
                "tempo": 120.0
            },
            {
                "start_time": 9.925,
                "end_time": 10.025,
                "pitch": 48,
                "velocity": 32,
                "duration": 0.1,
                "tempo": 120.0
            },
            {
                "start_time": 10.0409091,
                "end_time": 10.0568182,
                "pitch": 48,
                "velocity": 32,
                "duration": 0.0159091,
                "tempo": 120.0
            },
            {
                "start_time": 10.0568182,
                "end_time": 10.0727273,
                "pitch": 52,
                "velocity": 32,
                "duration": 0.0159091,
                "tempo": 120.0
            },
            {
                "start_time": 10.0727273,
                "end_time": 10.1704545,
                "pitch": 48,
                "velocity": 32,
                "duration": 0.0977273,
                "tempo": 120.0
            },
            {
                "start_time": 10.1863636,
                "end_time": 10.2022727,
                "pitch": 48,
                "velocity": 32,
                "duration": 0.0159091,
                "tempo": 120.0
            },
            {
                "start_time": 10.2022727,
                "end_time": 10.2204545,
                "pitch": 52,
                "velocity": 32,
                "duration": 0.0181818,
                "tempo": 120.0
            },
            {
                "start_time": 10.2204545,
                "end_time": 10.3954545,
                "pitch": 48,
                "velocity": 32,
                "duration": 0.175,
                "tempo": 120.0
            },
            {
                "start_time": 10.6363636,
                "end_time": 10.6522727,
                "pitch": 48,
                "velocity": 32,
                "duration": 0.0159091,
                "tempo": 120.0
            },
            {
                "start_time": 10.6522727,
                "end_time": 10.6704545,
                "pitch": 52,
                "velocity": 32,
                "duration": 0.0181818,
                "tempo": 120.0
            },
            {
                "start_time": 10.6704545,
                "end_time": 10.8590909,
                "pitch": 48,
                "velocity": 32,
                "duration": 0.1886364,
                "tempo": 120.0
            },
            {
                "start_time": 11.1159091,
                "end_time": 11.1318182,
                "pitch": 46,
                "velocity": 32,
                "duration": 0.0159091,
                "tempo": 120.0
            },
            {
                "start_time": 11.1318182,
                "end_time": 11.1477273,
                "pitch": 50,
                "velocity": 32,
                "duration": 0.0159091,
                "tempo": 120.0
            },
            {
                "start_time": 11.1477273,
                "end_time": 11.3272727,
                "pitch": 46,
                "velocity": 32,
                "duration": 0.1795455,
                "tempo": 120.0
            },
            {
                "start_time": 11.5727273,
                "end_time": 11.5909091,
                "pitch": 46,
                "velocity": 32,
                "duration": 0.0181818,
                "tempo": 120.0
            },
            {
                "start_time": 11.5909091,
                "end_time": 11.6068182,
                "pitch": 50,
                "velocity": 32,
                "duration": 0.0159091,
                "tempo": 120.0
            },
            {
                "start_time": 11.6068182,
                "end_time": 11.7272727,
                "pitch": 46,
                "velocity": 32,
                "duration": 0.1204545,
                "tempo": 120.0
            },
            {
                "start_time": 11.7454545,
                "end_time": 11.7613636,
                "pitch": 46,
                "velocity": 32,
                "duration": 0.0159091,
                "tempo": 120.0
            },
            {
                "start_time": 11.7613636,
                "end_time": 11.7795455,
                "pitch": 50,
                "velocity": 32,
                "duration": 0.0181818,
                "tempo": 120.0
            },
            {
                "start_time": 11.7795455,
                "end_time": 11.8818182,
                "pitch": 46,
                "velocity": 32,
                "duration": 0.1022727,
                "tempo": 120.0
            },
            {
                "start_time": 11.9,
                "end_time": 11.9159091,
                "pitch": 46,
                "velocity": 32,
                "duration": 0.0159091,
                "tempo": 120.0
            },
            {
                "start_time": 11.9159091,
                "end_time": 11.9340909,
                "pitch": 50,
                "velocity": 32,
                "duration": 0.0181818,
                "tempo": 120.0
            },
            {
                "start_time": 11.9340909,
                "end_time": 12.0363636,
                "pitch": 46,
                "velocity": 32,
                "duration": 0.1022727,
                "tempo": 120.0
            },
            {
                "start_time": 12.0522727,
                "end_time": 12.0681818,
                "pitch": 46,
                "velocity": 32,
                "duration": 0.0159091,
                "tempo": 120.0
            },
            {
                "start_time": 12.0681818,
                "end_time": 12.0840909,
                "pitch": 50,
                "velocity": 32,
                "duration": 0.0159091,
                "tempo": 120.0
            },
            {
                "start_time": 12.0840909,
                "end_time": 12.2613636,
                "pitch": 46,
                "velocity": 32,
                "duration": 0.1772727,
                "tempo": 120.0
            },
            {
                "start_time": 12.5,
                "end_time": 12.5181818,
                "pitch": 46,
                "velocity": 32,
                "duration": 0.0181818,
                "tempo": 120.0
            },
            {
                "start_time": 12.5181818,
                "end_time": 12.5340909,
                "pitch": 50,
                "velocity": 32,
                "duration": 0.0159091,
                "tempo": 120.0
            },
            {
                "start_time": 12.5340909,
                "end_time": 12.7227273,
                "pitch": 46,
                "velocity": 32,
                "duration": 0.1886364,
                "tempo": 120.0
            },
            {
                "start_time": 12.9818182,
                "end_time": 12.9977273,
                "pitch": 43,
                "velocity": 32,
                "duration": 0.0159091,
                "tempo": 120.0
            },
            {
                "start_time": 12.9977273,
                "end_time": 13.0159091,
                "pitch": 48,
                "velocity": 32,
                "duration": 0.0181818,
                "tempo": 120.0
            },
            {
                "start_time": 13.0159091,
                "end_time": 13.2045455,
                "pitch": 43,
                "velocity": 32,
                "duration": 0.1886364,
                "tempo": 120.0
            },
            {
                "start_time": 13.4613636,
                "end_time": 13.4772727,
                "pitch": 43,
                "velocity": 32,
                "duration": 0.0159091,
                "tempo": 120.0
            },
            {
                "start_time": 13.4772727,
                "end_time": 13.4954545,
                "pitch": 48,
                "velocity": 32,
                "duration": 0.0181818,
                "tempo": 120.0
            },
            {
                "start_time": 13.4954545,
                "end_time": 13.6090909,
                "pitch": 43,
                "velocity": 32,
                "duration": 0.1136364,
                "tempo": 120.0
            },
            {
                "start_time": 13.625,
                "end_time": 13.6409091,
                "pitch": 43,
                "velocity": 32,
                "duration": 0.0159091,
                "tempo": 120.0
            },
            {
                "start_time": 13.6409091,
                "end_time": 13.6590909,
                "pitch": 48,
                "velocity": 32,
                "duration": 0.0181818,
                "tempo": 120.0
            },
            {
                "start_time": 13.6590909,
                "end_time": 13.7568182,
                "pitch": 43,
                "velocity": 32,
                "duration": 0.0977273,
                "tempo": 120.0
            },
            {
                "start_time": 13.7727273,
                "end_time": 13.7886364,
                "pitch": 43,
                "velocity": 32,
                "duration": 0.0159091,
                "tempo": 120.0
            },
            {
                "start_time": 13.7886364,
                "end_time": 13.8045455,
                "pitch": 48,
                "velocity": 32,
                "duration": 0.0159091,
                "tempo": 120.0
            },
            {
                "start_time": 13.8045455,
                "end_time": 13.9045455,
                "pitch": 43,
                "velocity": 32,
                "duration": 0.1,
                "tempo": 120.0
            },
            {
                "start_time": 13.9204545,
                "end_time": 13.9363636,
                "pitch": 43,
                "velocity": 32,
                "duration": 0.0159091,
                "tempo": 120.0
            },
            {
                "start_time": 13.9363636,
                "end_time": 13.9522727,
                "pitch": 48,
                "velocity": 32,
                "duration": 0.0159091,
                "tempo": 120.0
            },
            {
                "start_time": 13.9522727,
                "end_time": 14.0704545,
                "pitch": 43,
                "velocity": 32,
                "duration": 0.1181818,
                "tempo": 120.0
            },
            {
                "start_time": 14.0863636,
                "end_time": 14.1045455,
                "pitch": 43,
                "velocity": 32,
                "duration": 0.0181818,
                "tempo": 120.0
            },
            {
                "start_time": 14.1045455,
                "end_time": 14.1204545,
                "pitch": 48,
                "velocity": 32,
                "duration": 0.0159091,
                "tempo": 120.0
            },
            {
                "start_time": 14.1204545,
                "end_time": 14.2204545,
                "pitch": 43,
                "velocity": 32,
                "duration": 0.1,
                "tempo": 120.0
            },
            {
                "start_time": 14.2386364,
                "end_time": 14.2545455,
                "pitch": 43,
                "velocity": 32,
                "duration": 0.0159091,
                "tempo": 120.0
            },
            {
                "start_time": 14.2545455,
                "end_time": 14.2704545,
                "pitch": 48,
                "velocity": 32,
                "duration": 0.0159091,
                "tempo": 120.0
            },
            {
                "start_time": 14.2704545,
                "end_time": 14.3727273,
                "pitch": 43,
                "velocity": 32,
                "duration": 0.1022727,
                "tempo": 120.0
            },
            {
                "start_time": 14.3886364,
                "end_time": 14.4045455,
                "pitch": 43,
                "velocity": 32,
                "duration": 0.0159091,
                "tempo": 120.0
            },
            {
                "start_time": 14.4045455,
                "end_time": 14.4227273,
                "pitch": 48,
                "velocity": 32,
                "duration": 0.0181818,
                "tempo": 120.0
            },
            {
                "start_time": 14.4227273,
                "end_time": 14.5386364,
                "pitch": 43,
                "velocity": 32,
                "duration": 0.1159091,
                "tempo": 120.0
            },
            {
                "start_time": 14.5568182,
                "end_time": 14.5727273,
                "pitch": 43,
                "velocity": 32,
                "duration": 0.0159091,
                "tempo": 120.0
            },
            {
                "start_time": 14.5727273,
                "end_time": 14.5886364,
                "pitch": 48,
                "velocity": 32,
                "duration": 0.0159091,
                "tempo": 120.0
            },
            {
                "start_time": 14.5886364,
                "end_time": 14.6909091,
                "pitch": 43,
                "velocity": 32,
                "duration": 0.1022727,
                "tempo": 120.0
            },
            {
                "start_time": 14.7068182,
                "end_time": 14.7227273,
                "pitch": 43,
                "velocity": 32,
                "duration": 0.0159091,
                "tempo": 120.0
            },
            {
                "start_time": 14.7227273,
                "end_time": 14.7409091,
                "pitch": 48,
                "velocity": 32,
                "duration": 0.0181818,
                "tempo": 120.0
            },
            {
                "start_time": 14.7409091,
                "end_time": 14.8409091,
                "pitch": 43,
                "velocity": 32,
                "duration": 0.1,
                "tempo": 120.0
            },
            {
                "start_time": 14.8568182,
                "end_time": 14.875,
                "pitch": 48,
                "velocity": 32,
                "duration": 0.0181818,
                "tempo": 120.0
            },
            {
                "start_time": 14.875,
                "end_time": 14.8909091,
                "pitch": 52,
                "velocity": 32,
                "duration": 0.0159091,
                "tempo": 120.0
            },
            {
                "start_time": 14.8909091,
                "end_time": 15.075,
                "pitch": 48,
                "velocity": 32,
                "duration": 0.1840909,
                "tempo": 120.0
            },
            {
                "start_time": 15.3272727,
                "end_time": 15.3431818,
                "pitch": 48,
                "velocity": 32,
                "duration": 0.0159091,
                "tempo": 120.0
            },
            {
                "start_time": 15.3431818,
                "end_time": 15.3590909,
                "pitch": 52,
                "velocity": 32,
                "duration": 0.0159091,
                "tempo": 120.0
            },
            {
                "start_time": 15.3590909,
                "end_time": 15.4704545,
                "pitch": 48,
                "velocity": 32,
                "duration": 0.1113636,
                "tempo": 120.0
            },
            {
                "start_time": 15.4863636,
                "end_time": 15.5022727,
                "pitch": 48,
                "velocity": 32,
                "duration": 0.0159091,
                "tempo": 120.0
            },
            {
                "start_time": 15.5022727,
                "end_time": 15.5181818,
                "pitch": 52,
                "velocity": 32,
                "duration": 0.0159091,
                "tempo": 120.0
            },
            {
                "start_time": 15.5181818,
                "end_time": 15.6136364,
                "pitch": 48,
                "velocity": 32,
                "duration": 0.0954545,
                "tempo": 120.0
            },
            {
                "start_time": 15.6318182,
                "end_time": 15.6477273,
                "pitch": 48,
                "velocity": 32,
                "duration": 0.0159091,
                "tempo": 120.0
            },
            {
                "start_time": 15.6477273,
                "end_time": 15.6636364,
                "pitch": 52,
                "velocity": 32,
                "duration": 0.0159091,
                "tempo": 120.0
            },
            {
                "start_time": 15.6636364,
                "end_time": 15.7590909,
                "pitch": 48,
                "velocity": 32,
                "duration": 0.0954545,
                "tempo": 120.0
            },
            {
                "start_time": 15.775,
                "end_time": 15.7909091,
                "pitch": 48,
                "velocity": 32,
                "duration": 0.0159091,
                "tempo": 120.0
            },
            {
                "start_time": 15.7909091,
                "end_time": 15.8068182,
                "pitch": 52,
                "velocity": 32,
                "duration": 0.0159091,
                "tempo": 120.0
            },
            {
                "start_time": 15.8068182,
                "end_time": 15.9818182,
                "pitch": 48,
                "velocity": 32,
                "duration": 0.175,
                "tempo": 120.0
            },
            {
                "start_time": 16.2227273,
                "end_time": 16.2409091,
                "pitch": 48,
                "velocity": 32,
                "duration": 0.0181818,
                "tempo": 120.0
            },
            {
                "start_time": 16.2409091,
                "end_time": 16.2568182,
                "pitch": 52,
                "velocity": 32,
                "duration": 0.0159091,
                "tempo": 120.0
            },
            {
                "start_time": 16.2568182,
                "end_time": 16.4409091,
                "pitch": 48,
                "velocity": 32,
                "duration": 0.1840909,
                "tempo": 120.0
            },
            {
                "start_time": 16.6909091,
                "end_time": 16.7090909,
                "pitch": 46,
                "velocity": 32,
                "duration": 0.0181818,
                "tempo": 120.0
            },
            {
                "start_time": 16.7090909,
                "end_time": 16.725,
                "pitch": 50,
                "velocity": 32,
                "duration": 0.0159091,
                "tempo": 120.0
            },
            {
                "start_time": 16.725,
                "end_time": 16.9045455,
                "pitch": 46,
                "velocity": 32,
                "duration": 0.1795455,
                "tempo": 120.0
            },
            {
                "start_time": 17.15,
                "end_time": 17.1681818,
                "pitch": 46,
                "velocity": 32,
                "duration": 0.0181818,
                "tempo": 120.0
            },
            {
                "start_time": 17.1681818,
                "end_time": 17.1840909,
                "pitch": 50,
                "velocity": 32,
                "duration": 0.0159091,
                "tempo": 120.0
            },
            {
                "start_time": 17.1840909,
                "end_time": 17.3068182,
                "pitch": 46,
                "velocity": 32,
                "duration": 0.1227273,
                "tempo": 120.0
            },
            {
                "start_time": 17.325,
                "end_time": 17.3409091,
                "pitch": 46,
                "velocity": 32,
                "duration": 0.0159091,
                "tempo": 120.0
            },
            {
                "start_time": 17.3409091,
                "end_time": 17.3590909,
                "pitch": 50,
                "velocity": 32,
                "duration": 0.0181818,
                "tempo": 120.0
            },
            {
                "start_time": 17.3590909,
                "end_time": 17.4636364,
                "pitch": 46,
                "velocity": 32,
                "duration": 0.1045455,
                "tempo": 120.0
            },
            {
                "start_time": 17.4818182,
                "end_time": 17.4977273,
                "pitch": 46,
                "velocity": 32,
                "duration": 0.0159091,
                "tempo": 120.0
            },
            {
                "start_time": 17.4977273,
                "end_time": 17.5159091,
                "pitch": 50,
                "velocity": 32,
                "duration": 0.0181818,
                "tempo": 120.0
            },
            {
                "start_time": 17.5159091,
                "end_time": 17.6204545,
                "pitch": 46,
                "velocity": 32,
                "duration": 0.1045455,
                "tempo": 120.0
            },
            {
                "start_time": 17.6363636,
                "end_time": 17.6522727,
                "pitch": 46,
                "velocity": 32,
                "duration": 0.0159091,
                "tempo": 120.0
            },
            {
                "start_time": 17.6522727,
                "end_time": 17.6681818,
                "pitch": 50,
                "velocity": 32,
                "duration": 0.0159091,
                "tempo": 120.0
            },
            {
                "start_time": 17.6681818,
                "end_time": 17.8454545,
                "pitch": 46,
                "velocity": 32,
                "duration": 0.1772727,
                "tempo": 120.0
            },
            {
                "start_time": 18.0840909,
                "end_time": 18.1022727,
                "pitch": 46,
                "velocity": 32,
                "duration": 0.0181818,
                "tempo": 120.0
            },
            {
                "start_time": 18.1022727,
                "end_time": 18.1181818,
                "pitch": 50,
                "velocity": 32,
                "duration": 0.0159091,
                "tempo": 120.0
            },
            {
                "start_time": 18.1181818,
                "end_time": 18.3022727,
                "pitch": 46,
                "velocity": 32,
                "duration": 0.1840909,
                "tempo": 120.0
            },
            {
                "start_time": 18.5545455,
                "end_time": 18.5704545,
                "pitch": 48,
                "velocity": 32,
                "duration": 0.0159091,
                "tempo": 120.0
            },
            {
                "start_time": 18.5704545,
                "end_time": 18.5886364,
                "pitch": 52,
                "velocity": 32,
                "duration": 0.0181818,
                "tempo": 120.0
            },
            {
                "start_time": 18.5886364,
                "end_time": 18.7727273,
                "pitch": 48,
                "velocity": 32,
                "duration": 0.1840909,
                "tempo": 120.0
            },
            {
                "start_time": 19.0227273,
                "end_time": 19.0409091,
                "pitch": 48,
                "velocity": 32,
                "duration": 0.0181818,
                "tempo": 120.0
            },
            {
                "start_time": 19.0409091,
                "end_time": 19.0568182,
                "pitch": 52,
                "velocity": 32,
                "duration": 0.0159091,
                "tempo": 120.0
            },
            {
                "start_time": 19.0568182,
                "end_time": 19.1772727,
                "pitch": 48,
                "velocity": 32,
                "duration": 0.1204545,
                "tempo": 120.0
            },
            {
                "start_time": 19.1954545,
                "end_time": 19.2113636,
                "pitch": 48,
                "velocity": 32,
                "duration": 0.0159091,
                "tempo": 120.0
            },
            {
                "start_time": 19.2113636,
                "end_time": 19.2295455,
                "pitch": 52,
                "velocity": 32,
                "duration": 0.0181818,
                "tempo": 120.0
            },
            {
                "start_time": 19.2295455,
                "end_time": 19.3318182,
                "pitch": 48,
                "velocity": 32,
                "duration": 0.1022727,
                "tempo": 120.0
            },
            {
                "start_time": 19.35,
                "end_time": 19.3659091,
                "pitch": 48,
                "velocity": 32,
                "duration": 0.0159091,
                "tempo": 120.0
            },
            {
                "start_time": 19.3659091,
                "end_time": 19.3840909,
                "pitch": 52,
                "velocity": 32,
                "duration": 0.0181818,
                "tempo": 120.0
            },
            {
                "start_time": 19.3840909,
                "end_time": 19.4863636,
                "pitch": 48,
                "velocity": 32,
                "duration": 0.1022727,
                "tempo": 120.0
            },
            {
                "start_time": 19.5022727,
                "end_time": 19.5181818,
                "pitch": 46,
                "velocity": 32,
                "duration": 0.0159091,
                "tempo": 120.0
            },
            {
                "start_time": 19.5181818,
                "end_time": 19.5340909,
                "pitch": 50,
                "velocity": 32,
                "duration": 0.0159091,
                "tempo": 120.0
            },
            {
                "start_time": 19.5340909,
                "end_time": 19.7113636,
                "pitch": 46,
                "velocity": 32,
                "duration": 0.1772727,
                "tempo": 120.0
            },
            {
                "start_time": 19.95,
                "end_time": 19.9681818,
                "pitch": 44,
                "velocity": 32,
                "duration": 0.0181818,
                "tempo": 120.0
            },
            {
                "start_time": 19.9681818,
                "end_time": 19.9840909,
                "pitch": 48,
                "velocity": 32,
                "duration": 0.0159091,
                "tempo": 120.0
            },
            {
                "start_time": 19.9840909,
                "end_time": 20.1636364,
                "pitch": 44,
                "velocity": 32,
                "duration": 0.1795455,
                "tempo": 120.0
            },
            {
                "start_time": 20.4090909,
                "end_time": 20.4272727,
                "pitch": 48,
                "velocity": 32,
                "duration": 0.0181818,
                "tempo": 120.0
            },
            {
                "start_time": 20.4272727,
                "end_time": 20.4431818,
                "pitch": 52,
                "velocity": 32,
                "duration": 0.0159091,
                "tempo": 120.0
            },
            {
                "start_time": 20.4431818,
                "end_time": 20.6318182,
                "pitch": 48,
                "velocity": 32,
                "duration": 0.1886364,
                "tempo": 120.0
            },
            {
                "start_time": 20.8886364,
                "end_time": 20.9068182,
                "pitch": 48,
                "velocity": 32,
                "duration": 0.0181818,
                "tempo": 120.0
            },
            {
                "start_time": 20.9068182,
                "end_time": 20.9227273,
                "pitch": 52,
                "velocity": 32,
                "duration": 0.0159091,
                "tempo": 120.0
            },
            {
                "start_time": 20.9227273,
                "end_time": 21.0409091,
                "pitch": 48,
                "velocity": 32,
                "duration": 0.1181818,
                "tempo": 120.0
            },
            {
                "start_time": 21.0568182,
                "end_time": 21.0727273,
                "pitch": 48,
                "velocity": 32,
                "duration": 0.0159091,
                "tempo": 120.0
            },
            {
                "start_time": 21.0727273,
                "end_time": 21.0909091,
                "pitch": 52,
                "velocity": 32,
                "duration": 0.0181818,
                "tempo": 120.0
            },
            {
                "start_time": 21.0909091,
                "end_time": 21.1909091,
                "pitch": 48,
                "velocity": 32,
                "duration": 0.1,
                "tempo": 120.0
            },
            {
                "start_time": 21.2068182,
                "end_time": 21.225,
                "pitch": 48,
                "velocity": 32,
                "duration": 0.0181818,
                "tempo": 120.0
            },
            {
                "start_time": 21.225,
                "end_time": 21.2409091,
                "pitch": 52,
                "velocity": 32,
                "duration": 0.0159091,
                "tempo": 120.0
            },
            {
                "start_time": 21.2409091,
                "end_time": 21.3409091,
                "pitch": 48,
                "velocity": 32,
                "duration": 0.1,
                "tempo": 120.0
            },
            {
                "start_time": 21.3590909,
                "end_time": 21.375,
                "pitch": 48,
                "velocity": 32,
                "duration": 0.0159091,
                "tempo": 120.0
            },
            {
                "start_time": 21.375,
                "end_time": 21.3931818,
                "pitch": 52,
                "velocity": 32,
                "duration": 0.0181818,
                "tempo": 120.0
            },
            {
                "start_time": 21.3931818,
                "end_time": 21.5090909,
                "pitch": 48,
                "velocity": 32,
                "duration": 0.1159091,
                "tempo": 120.0
            },
            {
                "start_time": 21.525,
                "end_time": 21.5431818,
                "pitch": 48,
                "velocity": 32,
                "duration": 0.0181818,
                "tempo": 120.0
            },
            {
                "start_time": 21.5431818,
                "end_time": 21.5590909,
                "pitch": 52,
                "velocity": 32,
                "duration": 0.0159091,
                "tempo": 120.0
            },
            {
                "start_time": 21.5590909,
                "end_time": 21.6590909,
                "pitch": 48,
                "velocity": 32,
                "duration": 0.1,
                "tempo": 120.0
            },
            {
                "start_time": 21.6772727,
                "end_time": 21.6931818,
                "pitch": 48,
                "velocity": 32,
                "duration": 0.0159091,
                "tempo": 120.0
            },
            {
                "start_time": 21.6931818,
                "end_time": 21.7113636,
                "pitch": 52,
                "velocity": 32,
                "duration": 0.0181818,
                "tempo": 120.0
            },
            {
                "start_time": 21.7113636,
                "end_time": 21.8113636,
                "pitch": 48,
                "velocity": 32,
                "duration": 0.1,
                "tempo": 120.0
            },
            {
                "start_time": 21.8272727,
                "end_time": 21.8454545,
                "pitch": 48,
                "velocity": 32,
                "duration": 0.0181818,
                "tempo": 120.0
            },
            {
                "start_time": 21.8454545,
                "end_time": 21.8613636,
                "pitch": 52,
                "velocity": 32,
                "duration": 0.0159091,
                "tempo": 120.0
            },
            {
                "start_time": 21.8613636,
                "end_time": 21.9772727,
                "pitch": 48,
                "velocity": 32,
                "duration": 0.1159091,
                "tempo": 120.0
            },
            {
                "start_time": 21.9954545,
                "end_time": 22.0113636,
                "pitch": 48,
                "velocity": 32,
                "duration": 0.0159091,
                "tempo": 120.0
            },
            {
                "start_time": 22.0113636,
                "end_time": 22.0295455,
                "pitch": 52,
                "velocity": 32,
                "duration": 0.0181818,
                "tempo": 120.0
            },
            {
                "start_time": 22.0295455,
                "end_time": 22.1295455,
                "pitch": 48,
                "velocity": 32,
                "duration": 0.1,
                "tempo": 120.0
            },
            {
                "start_time": 22.1454545,
                "end_time": 22.1636364,
                "pitch": 48,
                "velocity": 32,
                "duration": 0.0181818,
                "tempo": 120.0
            },
            {
                "start_time": 22.1636364,
                "end_time": 22.1795455,
                "pitch": 52,
                "velocity": 32,
                "duration": 0.0159091,
                "tempo": 120.0
            },
            {
                "start_time": 22.1795455,
                "end_time": 22.2795455,
                "pitch": 48,
                "velocity": 32,
                "duration": 0.1,
                "tempo": 120.0
            },
            {
                "start_time": 22.2977273,
                "end_time": 22.3136364,
                "pitch": 43,
                "velocity": 32,
                "duration": 0.0159091,
                "tempo": 120.0
            },
            {
                "start_time": 22.3136364,
                "end_time": 22.3295455,
                "pitch": 48,
                "velocity": 32,
                "duration": 0.0159091,
                "tempo": 120.0
            },
            {
                "start_time": 22.3295455,
                "end_time": 22.5090909,
                "pitch": 43,
                "velocity": 32,
                "duration": 0.1795455,
                "tempo": 120.0
            },
            {
                "start_time": 23.2227273,
                "end_time": 23.2409091,
                "pitch": 55,
                "velocity": 32,
                "duration": 0.0181818,
                "tempo": 120.0
            },
            {
                "start_time": 23.2409091,
                "end_time": 23.2568182,
                "pitch": 60,
                "velocity": 32,
                "duration": 0.0159091,
                "tempo": 120.0
            },
            {
                "start_time": 23.2568182,
                "end_time": 23.4363636,
                "pitch": 55,
                "velocity": 32,
                "duration": 0.1795455,
                "tempo": 120.0
            },
            {
                "start_time": 23.4522727,
                "end_time": 23.4681818,
                "pitch": 43,
                "velocity": 32,
                "duration": 0.0159091,
                "tempo": 120.0
            },
            {
                "start_time": 23.4681818,
                "end_time": 23.4863636,
                "pitch": 48,
                "velocity": 32,
                "duration": 0.0181818,
                "tempo": 120.0
            },
            {
                "start_time": 23.4863636,
                "end_time": 23.6659091,
                "pitch": 43,
                "velocity": 32,
                "duration": 0.1795455,
                "tempo": 120.0
            },
            {
                "start_time": 24.15,
                "end_time": 24.1681818,
                "pitch": 43,
                "velocity": 32,
                "duration": 0.0181818,
                "tempo": 120.0
            },
            {
                "start_time": 24.1681818,
                "end_time": 24.1840909,
                "pitch": 48,
                "velocity": 32,
                "duration": 0.0159091,
                "tempo": 120.0
            },
            {
                "start_time": 24.1840909,
                "end_time": 24.3636364,
                "pitch": 43,
                "velocity": 32,
                "duration": 0.1795455,
                "tempo": 120.0
            },
            {
                "start_time": 25.0772727,
                "end_time": 25.0954545,
                "pitch": 55,
                "velocity": 32,
                "duration": 0.0181818,
                "tempo": 120.0
            },
            {
                "start_time": 25.0954545,
                "end_time": 25.1113636,
                "pitch": 60,
                "velocity": 32,
                "duration": 0.0159091,
                "tempo": 120.0
            },
            {
                "start_time": 25.1113636,
                "end_time": 25.2954545,
                "pitch": 55,
                "velocity": 32,
                "duration": 0.1840909,
                "tempo": 120.0
            },
            {
                "start_time": 25.3136364,
                "end_time": 25.3295455,
                "pitch": 43,
                "velocity": 32,
                "duration": 0.0159091,
                "tempo": 120.0
            },
            {
                "start_time": 25.3295455,
                "end_time": 25.3454545,
                "pitch": 48,
                "velocity": 32,
                "duration": 0.0159091,
                "tempo": 120.0
            },
            {
                "start_time": 25.3454545,
                "end_time": 25.5295455,
                "pitch": 43,
                "velocity": 32,
                "duration": 0.1840909,
                "tempo": 120.0
            },
            {
                "start_time": 26.0159091,
                "end_time": 26.0318182,
                "pitch": 41,
                "velocity": 32,
                "duration": 0.0159091,
                "tempo": 120.0
            },
            {
                "start_time": 26.0318182,
                "end_time": 26.0477273,
                "pitch": 2,
                "velocity": 32,
                "duration": 0.0159091,
                "tempo": 120.0
            },
            {
                "start_time": 26.0477273,
                "end_time": 26.2295455,
                "pitch": 41,
                "velocity": 32,
                "duration": 0.1818182,
                "tempo": 120.0
            },
            {
                "start_time": 26.9431818,
                "end_time": 26.9590909,
                "pitch": 53,
                "velocity": 32,
                "duration": 0.0159091,
                "tempo": 120.0
            },
            {
                "start_time": 26.9590909,
                "end_time": 26.975,
                "pitch": 15,
                "velocity": 32,
                "duration": 0.0159091,
                "tempo": 120.0
            },
            {
                "start_time": 26.975,
                "end_time": 27.1568182,
                "pitch": 53,
                "velocity": 32,
                "duration": 0.1818182,
                "tempo": 120.0
            },
            {
                "start_time": 27.1727273,
                "end_time": 27.1886364,
                "pitch": 41,
                "velocity": 32,
                "duration": 0.0159091,
                "tempo": 120.0
            },
            {
                "start_time": 27.1886364,
                "end_time": 27.2045455,
                "pitch": 2,
                "velocity": 32,
                "duration": 0.0159091,
                "tempo": 120.0
            },
            {
                "start_time": 27.2045455,
                "end_time": 27.3840909,
                "pitch": 41,
                "velocity": 32,
                "duration": 0.1795455,
                "tempo": 120.0
            },
            {
                "start_time": 27.8704545,
                "end_time": 27.8863636,
                "pitch": 41,
                "velocity": 32,
                "duration": 0.0159091,
                "tempo": 120.0
            },
            {
                "start_time": 27.8863636,
                "end_time": 27.9045455,
                "pitch": 2,
                "velocity": 32,
                "duration": 0.0181818,
                "tempo": 120.0
            },
            {
                "start_time": 27.9045455,
                "end_time": 28.0886364,
                "pitch": 41,
                "velocity": 32,
                "duration": 0.1840909,
                "tempo": 120.0
            },
            {
                "start_time": 28.8090909,
                "end_time": 28.825,
                "pitch": 53,
                "velocity": 32,
                "duration": 0.0159091,
                "tempo": 120.0
            },
            {
                "start_time": 28.825,
                "end_time": 28.8409091,
                "pitch": 15,
                "velocity": 32,
                "duration": 0.0159091,
                "tempo": 120.0
            },
            {
                "start_time": 28.8409091,
                "end_time": 29.0204545,
                "pitch": 53,
                "velocity": 32,
                "duration": 0.1795455,
                "tempo": 120.0
            },
            {
                "start_time": 29.0363636,
                "end_time": 29.0545455,
                "pitch": 41,
                "velocity": 32,
                "duration": 0.0181818,
                "tempo": 120.0
            },
            {
                "start_time": 29.0545455,
                "end_time": 29.0704545,
                "pitch": 2,
                "velocity": 32,
                "duration": 0.0159091,
                "tempo": 120.0
            },
            {
                "start_time": 29.0704545,
                "end_time": 29.25,
                "pitch": 41,
                "velocity": 32,
                "duration": 0.1795455,
                "tempo": 120.0
            },
            {
                "start_time": 29.7363636,
                "end_time": 29.7522727,
                "pitch": 43,
                "velocity": 32,
                "duration": 0.0159091,
                "tempo": 120.0
            },
            {
                "start_time": 29.7522727,
                "end_time": 29.7681818,
                "pitch": 48,
                "velocity": 32,
                "duration": 0.0159091,
                "tempo": 120.0
            },
            {
                "start_time": 29.7681818,
                "end_time": 29.9477273,
                "pitch": 43,
                "velocity": 32,
                "duration": 0.1795455,
                "tempo": 120.0
            },
            {
                "start_time": 30.6636364,
                "end_time": 30.6795455,
                "pitch": 55,
                "velocity": 32,
                "duration": 0.0159091,
                "tempo": 120.0
            },
            {
                "start_time": 30.6795455,
                "end_time": 30.6954545,
                "pitch": 60,
                "velocity": 32,
                "duration": 0.0159091,
                "tempo": 120.0
            },
            {
                "start_time": 30.6954545,
                "end_time": 30.8795455,
                "pitch": 55,
                "velocity": 32,
                "duration": 0.1840909,
                "tempo": 120.0
            },
            {
                "start_time": 30.8977273,
                "end_time": 30.9136364,
                "pitch": 43,
                "velocity": 32,
                "duration": 0.0159091,
                "tempo": 120.0
            },
            {
                "start_time": 30.9136364,
                "end_time": 30.9318182,
                "pitch": 48,
                "velocity": 32,
                "duration": 0.0181818,
                "tempo": 120.0
            },
            {
                "start_time": 30.9318182,
                "end_time": 31.1159091,
                "pitch": 43,
                "velocity": 32,
                "duration": 0.1840909,
                "tempo": 120.0
            },
            {
                "start_time": 31.6,
                "end_time": 31.6181818,
                "pitch": 41,
                "velocity": 32,
                "duration": 0.0181818,
                "tempo": 120.0
            },
            {
                "start_time": 31.6181818,
                "end_time": 31.6340909,
                "pitch": 2,
                "velocity": 32,
                "duration": 0.0159091,
                "tempo": 120.0
            },
            {
                "start_time": 31.6340909,
                "end_time": 31.8136364,
                "pitch": 41,
                "velocity": 32,
                "duration": 0.1795455,
                "tempo": 120.0
            },
            {
                "start_time": 32.5272727,
                "end_time": 32.5431818,
                "pitch": 53,
                "velocity": 32,
                "duration": 0.0159091,
                "tempo": 120.0
            },
            {
                "start_time": 32.5431818,
                "end_time": 32.5613636,
                "pitch": 15,
                "velocity": 32,
                "duration": 0.0181818,
                "tempo": 120.0
            },
            {
                "start_time": 32.5613636,
                "end_time": 32.7409091,
                "pitch": 53,
                "velocity": 32,
                "duration": 0.1795455,
                "tempo": 120.0
            },
            {
                "start_time": 32.7568182,
                "end_time": 32.7727273,
                "pitch": 41,
                "velocity": 32,
                "duration": 0.0159091,
                "tempo": 120.0
            },
            {
                "start_time": 32.7727273,
                "end_time": 32.7886364,
                "pitch": 2,
                "velocity": 32,
                "duration": 0.0159091,
                "tempo": 120.0
            },
            {
                "start_time": 32.7886364,
                "end_time": 32.9704545,
                "pitch": 41,
                "velocity": 32,
                "duration": 0.1818182,
                "tempo": 120.0
            },
            {
                "start_time": 33.4545455,
                "end_time": 33.4727273,
                "pitch": 43,
                "velocity": 32,
                "duration": 0.0181818,
                "tempo": 120.0
            },
            {
                "start_time": 33.4727273,
                "end_time": 33.4886364,
                "pitch": 48,
                "velocity": 32,
                "duration": 0.0159091,
                "tempo": 120.0
            },
            {
                "start_time": 33.4886364,
                "end_time": 33.6727273,
                "pitch": 43,
                "velocity": 32,
                "duration": 0.1840909,
                "tempo": 120.0
            },
            {
                "start_time": 34.3931818,
                "end_time": 34.4090909,
                "pitch": 55,
                "velocity": 32,
                "duration": 0.0159091,
                "tempo": 120.0
            },
            {
                "start_time": 34.4090909,
                "end_time": 34.425,
                "pitch": 60,
                "velocity": 32,
                "duration": 0.0159091,
                "tempo": 120.0
            },
            {
                "start_time": 34.425,
                "end_time": 34.6068182,
                "pitch": 55,
                "velocity": 32,
                "duration": 0.1818182,
                "tempo": 120.0
            },
            {
                "start_time": 34.6227273,
                "end_time": 34.6386364,
                "pitch": 43,
                "velocity": 32,
                "duration": 0.0159091,
                "tempo": 120.0
            },
            {
                "start_time": 34.6386364,
                "end_time": 34.6545455,
                "pitch": 48,
                "velocity": 32,
                "duration": 0.0159091,
                "tempo": 120.0
            },
            {
                "start_time": 34.6545455,
                "end_time": 34.8340909,
                "pitch": 43,
                "velocity": 32,
                "duration": 0.1795455,
                "tempo": 120.0
            },
            {
                "start_time": 35.3204545,
                "end_time": 35.3363636,
                "pitch": 48,
                "velocity": 32,
                "duration": 0.0159091,
                "tempo": 120.0
            },
            {
                "start_time": 35.3363636,
                "end_time": 35.3522727,
                "pitch": 52,
                "velocity": 32,
                "duration": 0.0159091,
                "tempo": 120.0
            },
            {
                "start_time": 35.3522727,
                "end_time": 35.5318182,
                "pitch": 48,
                "velocity": 32,
                "duration": 0.1795455,
                "tempo": 120.0
            },
            {
                "start_time": 36.2477273,
                "end_time": 36.2636364,
                "pitch": 60,
                "velocity": 32,
                "duration": 0.0159091,
                "tempo": 120.0
            },
            {
                "start_time": 36.2636364,
                "end_time": 36.2818182,
                "pitch": 64,
                "velocity": 32,
                "duration": 0.0181818,
                "tempo": 120.0
            },
            {
                "start_time": 36.2818182,
                "end_time": 36.4659091,
                "pitch": 60,
                "velocity": 32,
                "duration": 0.1840909,
                "tempo": 120.0
            },
            {
                "start_time": 36.4818182,
                "end_time": 36.4977273,
                "pitch": 48,
                "velocity": 32,
                "duration": 0.0159091,
                "tempo": 120.0
            },
            {
                "start_time": 36.4977273,
                "end_time": 36.5159091,
                "pitch": 52,
                "velocity": 32,
                "duration": 0.0181818,
                "tempo": 120.0
            },
            {
                "start_time": 36.5159091,
                "end_time": 36.7,
                "pitch": 48,
                "velocity": 32,
                "duration": 0.1840909,
                "tempo": 120.0
            },
            {
                "start_time": 37.1863636,
                "end_time": 37.2022727,
                "pitch": 44,
                "velocity": 32,
                "duration": 0.0159091,
                "tempo": 120.0
            },
            {
                "start_time": 37.2022727,
                "end_time": 37.2181818,
                "pitch": 48,
                "velocity": 32,
                "duration": 0.0159091,
                "tempo": 120.0
            },
            {
                "start_time": 37.2181818,
                "end_time": 37.3977273,
                "pitch": 44,
                "velocity": 32,
                "duration": 0.1795455,
                "tempo": 120.0
            },
            {
                "start_time": 38.1113636,
                "end_time": 38.1295455,
                "pitch": 56,
                "velocity": 32,
                "duration": 0.0181818,
                "tempo": 120.0
            },
            {
                "start_time": 38.1295455,
                "end_time": 38.1454545,
                "pitch": 60,
                "velocity": 32,
                "duration": 0.0159091,
                "tempo": 120.0
            },
            {
                "start_time": 38.1454545,
                "end_time": 38.325,
                "pitch": 56,
                "velocity": 32,
                "duration": 0.1795455,
                "tempo": 120.0
            },
            {
                "start_time": 38.3409091,
                "end_time": 38.3568182,
                "pitch": 44,
                "velocity": 32,
                "duration": 0.0159091,
                "tempo": 120.0
            },
            {
                "start_time": 38.3568182,
                "end_time": 38.375,
                "pitch": 48,
                "velocity": 32,
                "duration": 0.0181818,
                "tempo": 120.0
            },
            {
                "start_time": 38.375,
                "end_time": 38.5545455,
                "pitch": 44,
                "velocity": 32,
                "duration": 0.1795455,
                "tempo": 120.0
            },
            {
                "start_time": 39.05,
                "end_time": 39.0681818,
                "pitch": 43,
                "velocity": 32,
                "duration": 0.0181818,
                "tempo": 120.0
            },
            {
                "start_time": 39.0681818,
                "end_time": 39.0840909,
                "pitch": 48,
                "velocity": 32,
                "duration": 0.0159091,
                "tempo": 120.0
            },
            {
                "start_time": 39.0840909,
                "end_time": 39.2636364,
                "pitch": 43,
                "velocity": 32,
                "duration": 0.1795455,
                "tempo": 120.0
            },
            {
                "start_time": 39.9772727,
                "end_time": 39.9931818,
                "pitch": 55,
                "velocity": 32,
                "duration": 0.0159091,
                "tempo": 120.0
            },
            {
                "start_time": 39.9931818,
                "end_time": 40.0113636,
                "pitch": 60,
                "velocity": 32,
                "duration": 0.0181818,
                "tempo": 120.0
            },
            {
                "start_time": 40.0113636,
                "end_time": 40.1909091,
                "pitch": 55,
                "velocity": 32,
                "duration": 0.1795455,
                "tempo": 120.0
            },
            {
                "start_time": 40.2068182,
                "end_time": 40.2227273,
                "pitch": 43,
                "velocity": 32,
                "duration": 0.0159091,
                "tempo": 120.0
            },
            {
                "start_time": 40.2227273,
                "end_time": 40.2386364,
                "pitch": 48,
                "velocity": 32,
                "duration": 0.0159091,
                "tempo": 120.0
            },
            {
                "start_time": 40.2386364,
                "end_time": 40.4204545,
                "pitch": 43,
                "velocity": 32,
                "duration": 0.1818182,
                "tempo": 120.0
            },
            {
                "start_time": 40.9045455,
                "end_time": 40.9204545,
                "pitch": 41,
                "velocity": 32,
                "duration": 0.0159091,
                "tempo": 120.0
            },
            {
                "start_time": 40.9204545,
                "end_time": 40.9386364,
                "pitch": 2,
                "velocity": 32,
                "duration": 0.0181818,
                "tempo": 120.0
            },
            {
                "start_time": 40.9386364,
                "end_time": 41.1181818,
                "pitch": 41,
                "velocity": 32,
                "duration": 0.1795455,
                "tempo": 120.0
            },
            {
                "start_time": 41.8318182,
                "end_time": 41.85,
                "pitch": 53,
                "velocity": 32,
                "duration": 0.0181818,
                "tempo": 120.0
            },
            {
                "start_time": 41.85,
                "end_time": 41.8659091,
                "pitch": 15,
                "velocity": 32,
                "duration": 0.0159091,
                "tempo": 120.0
            },
            {
                "start_time": 41.8659091,
                "end_time": 42.05,
                "pitch": 53,
                "velocity": 32,
                "duration": 0.1840909,
                "tempo": 120.0
            },
            {
                "start_time": 42.0659091,
                "end_time": 42.0840909,
                "pitch": 41,
                "velocity": 32,
                "duration": 0.0181818,
                "tempo": 120.0
            },
            {
                "start_time": 42.0840909,
                "end_time": 42.1,
                "pitch": 2,
                "velocity": 32,
                "duration": 0.0159091,
                "tempo": 120.0
            },
            {
                "start_time": 42.1,
                "end_time": 42.2840909,
                "pitch": 41,
                "velocity": 32,
                "duration": 0.1840909,
                "tempo": 120.0
            },
            {
                "start_time": 42.7704545,
                "end_time": 42.7863636,
                "pitch": 43,
                "velocity": 32,
                "duration": 0.0159091,
                "tempo": 120.0
            },
            {
                "start_time": 42.7863636,
                "end_time": 42.8022727,
                "pitch": 48,
                "velocity": 32,
                "duration": 0.0159091,
                "tempo": 120.0
            },
            {
                "start_time": 42.8022727,
                "end_time": 42.9818182,
                "pitch": 43,
                "velocity": 32,
                "duration": 0.1795455,
                "tempo": 120.0
            },
            {
                "start_time": 43.6977273,
                "end_time": 43.7136364,
                "pitch": 55,
                "velocity": 32,
                "duration": 0.0159091,
                "tempo": 120.0
            },
            {
                "start_time": 43.7136364,
                "end_time": 43.7295455,
                "pitch": 60,
                "velocity": 32,
                "duration": 0.0159091,
                "tempo": 120.0
            },
            {
                "start_time": 43.7295455,
                "end_time": 43.9090909,
                "pitch": 55,
                "velocity": 32,
                "duration": 0.1795455,
                "tempo": 120.0
            },
            {
                "start_time": 43.9272727,
                "end_time": 43.9431818,
                "pitch": 43,
                "velocity": 32,
                "duration": 0.0159091,
                "tempo": 120.0
            },
            {
                "start_time": 43.9431818,
                "end_time": 43.9590909,
                "pitch": 48,
                "velocity": 32,
                "duration": 0.0159091,
                "tempo": 120.0
            },
            {
                "start_time": 43.9590909,
                "end_time": 44.1386364,
                "pitch": 43,
                "velocity": 32,
                "duration": 0.1795455,
                "tempo": 120.0
            },
            {
                "start_time": 44.625,
                "end_time": 44.6409091,
                "pitch": 44,
                "velocity": 32,
                "duration": 0.0159091,
                "tempo": 120.0
            },
            {
                "start_time": 44.6409091,
                "end_time": 44.6590909,
                "pitch": 48,
                "velocity": 32,
                "duration": 0.0181818,
                "tempo": 120.0
            },
            {
                "start_time": 44.6590909,
                "end_time": 44.8431818,
                "pitch": 44,
                "velocity": 32,
                "duration": 0.1840909,
                "tempo": 120.0
            },
            {
                "start_time": 45.5613636,
                "end_time": 45.5795455,
                "pitch": 56,
                "velocity": 32,
                "duration": 0.0181818,
                "tempo": 120.0
            },
            {
                "start_time": 45.5795455,
                "end_time": 45.5954545,
                "pitch": 60,
                "velocity": 32,
                "duration": 0.0159091,
                "tempo": 120.0
            },
            {
                "start_time": 45.5954545,
                "end_time": 45.775,
                "pitch": 56,
                "velocity": 32,
                "duration": 0.1795455,
                "tempo": 120.0
            },
            {
                "start_time": 45.7909091,
                "end_time": 45.8068182,
                "pitch": 44,
                "velocity": 32,
                "duration": 0.0159091,
                "tempo": 120.0
            },
            {
                "start_time": 45.8068182,
                "end_time": 45.825,
                "pitch": 48,
                "velocity": 32,
                "duration": 0.0181818,
                "tempo": 120.0
            },
            {
                "start_time": 45.825,
                "end_time": 46.0045455,
                "pitch": 44,
                "velocity": 32,
                "duration": 0.1795455,
                "tempo": 120.0
            },
            {
                "start_time": 46.4886364,
                "end_time": 46.5068182,
                "pitch": 43,
                "velocity": 32,
                "duration": 0.0181818,
                "tempo": 120.0
            },
            {
                "start_time": 46.5068182,
                "end_time": 46.5227273,
                "pitch": 48,
                "velocity": 32,
                "duration": 0.0159091,
                "tempo": 120.0
            },
            {
                "start_time": 46.5227273,
                "end_time": 46.7022727,
                "pitch": 43,
                "velocity": 32,
                "duration": 0.1795455,
                "tempo": 120.0
            },
            {
                "start_time": 47.4159091,
                "end_time": 47.4340909,
                "pitch": 55,
                "velocity": 32,
                "duration": 0.0181818,
                "tempo": 120.0
            },
            {
                "start_time": 47.4340909,
                "end_time": 47.45,
                "pitch": 60,
                "velocity": 32,
                "duration": 0.0159091,
                "tempo": 120.0
            },
            {
                "start_time": 47.45,
                "end_time": 47.6340909,
                "pitch": 55,
                "velocity": 32,
                "duration": 0.1840909,
                "tempo": 120.0
            },
            {
                "start_time": 47.6522727,
                "end_time": 47.6681818,
                "pitch": 43,
                "velocity": 32,
                "duration": 0.0159091,
                "tempo": 120.0
            },
            {
                "start_time": 47.6681818,
                "end_time": 47.6840909,
                "pitch": 48,
                "velocity": 32,
                "duration": 0.0159091,
                "tempo": 120.0
            },
            {
                "start_time": 47.6840909,
                "end_time": 47.8681818,
                "pitch": 43,
                "velocity": 32,
                "duration": 0.1840909,
                "tempo": 120.0
            },
            {
                "start_time": 48.3545455,
                "end_time": 48.3704545,
                "pitch": 41,
                "velocity": 32,
                "duration": 0.0159091,
                "tempo": 120.0
            },
            {
                "start_time": 48.3704545,
                "end_time": 48.3863636,
                "pitch": 2,
                "velocity": 32,
                "duration": 0.0159091,
                "tempo": 120.0
            },
            {
                "start_time": 48.3863636,
                "end_time": 48.5681818,
                "pitch": 41,
                "velocity": 32,
                "duration": 0.1818182,
                "tempo": 120.0
            },
            {
                "start_time": 49.2818182,
                "end_time": 49.2977273,
                "pitch": 53,
                "velocity": 32,
                "duration": 0.0159091,
                "tempo": 120.0
            },
            {
                "start_time": 49.2977273,
                "end_time": 49.3136364,
                "pitch": 15,
                "velocity": 32,
                "duration": 0.0159091,
                "tempo": 120.0
            },
            {
                "start_time": 49.3136364,
                "end_time": 49.4954545,
                "pitch": 53,
                "velocity": 32,
                "duration": 0.1818182,
                "tempo": 120.0
            },
            {
                "start_time": 49.5113636,
                "end_time": 49.5272727,
                "pitch": 41,
                "velocity": 32,
                "duration": 0.0159091,
                "tempo": 120.0
            },
            {
                "start_time": 49.5272727,
                "end_time": 49.5431818,
                "pitch": 2,
                "velocity": 32,
                "duration": 0.0159091,
                "tempo": 120.0
            },
            {
                "start_time": 49.5431818,
                "end_time": 49.7227273,
                "pitch": 41,
                "velocity": 32,
                "duration": 0.1795455,
                "tempo": 120.0
            },
            {
                "start_time": 50.2090909,
                "end_time": 50.225,
                "pitch": 43,
                "velocity": 32,
                "duration": 0.0159091,
                "tempo": 120.0
            },
            {
                "start_time": 50.225,
                "end_time": 50.2431818,
                "pitch": 48,
                "velocity": 32,
                "duration": 0.0181818,
                "tempo": 120.0
            },
            {
                "start_time": 50.2431818,
                "end_time": 50.4272727,
                "pitch": 43,
                "velocity": 32,
                "duration": 0.1840909,
                "tempo": 120.0
            },
            {
                "start_time": 51.1477273,
                "end_time": 51.1636364,
                "pitch": 55,
                "velocity": 32,
                "duration": 0.0159091,
                "tempo": 120.0
            },
            {
                "start_time": 51.1636364,
                "end_time": 51.1795455,
                "pitch": 60,
                "velocity": 32,
                "duration": 0.0159091,
                "tempo": 120.0
            },
            {
                "start_time": 51.1795455,
                "end_time": 51.3590909,
                "pitch": 55,
                "velocity": 32,
                "duration": 0.1795455,
                "tempo": 120.0
            },
            {
                "start_time": 51.3772727,
                "end_time": 51.3931818,
                "pitch": 43,
                "velocity": 32,
                "duration": 0.0159091,
                "tempo": 120.0
            },
            {
                "start_time": 51.3931818,
                "end_time": 51.4090909,
                "pitch": 48,
                "velocity": 32,
                "duration": 0.0159091,
                "tempo": 120.0
            },
            {
                "start_time": 51.4090909,
                "end_time": 51.5886364,
                "pitch": 43,
                "velocity": 32,
                "duration": 0.1795455,
                "tempo": 120.0
            },
            {
                "start_time": 52.075,
                "end_time": 52.0909091,
                "pitch": 44,
                "velocity": 32,
                "duration": 0.0159091,
                "tempo": 120.0
            },
            {
                "start_time": 52.0909091,
                "end_time": 52.1068182,
                "pitch": 48,
                "velocity": 32,
                "duration": 0.0159091,
                "tempo": 120.0
            },
            {
                "start_time": 52.1068182,
                "end_time": 52.2863636,
                "pitch": 44,
                "velocity": 32,
                "duration": 0.1795455,
                "tempo": 120.0
            },
            {
                "start_time": 53.0022727,
                "end_time": 53.0181818,
                "pitch": 56,
                "velocity": 32,
                "duration": 0.0159091,
                "tempo": 120.0
            },
            {
                "start_time": 53.0181818,
                "end_time": 53.0340909,
                "pitch": 60,
                "velocity": 32,
                "duration": 0.0159091,
                "tempo": 120.0
            },
            {
                "start_time": 53.0340909,
                "end_time": 53.2181818,
                "pitch": 56,
                "velocity": 32,
                "duration": 0.1840909,
                "tempo": 120.0
            },
            {
                "start_time": 53.2363636,
                "end_time": 53.2522727,
                "pitch": 44,
                "velocity": 32,
                "duration": 0.0159091,
                "tempo": 120.0
            },
            {
                "start_time": 53.2522727,
                "end_time": 53.2704545,
                "pitch": 48,
                "velocity": 32,
                "duration": 0.0181818,
                "tempo": 120.0
            },
            {
                "start_time": 53.2704545,
                "end_time": 53.4545455,
                "pitch": 44,
                "velocity": 32,
                "duration": 0.1840909,
                "tempo": 120.0
            },
            {
                "start_time": 53.9386364,
                "end_time": 53.9568182,
                "pitch": 43,
                "velocity": 32,
                "duration": 0.0181818,
                "tempo": 120.0
            },
            {
                "start_time": 53.9568182,
                "end_time": 53.9727273,
                "pitch": 48,
                "velocity": 32,
                "duration": 0.0159091,
                "tempo": 120.0
            },
            {
                "start_time": 53.9727273,
                "end_time": 54.1522727,
                "pitch": 43,
                "velocity": 32,
                "duration": 0.1795455,
                "tempo": 120.0
            },
            {
                "start_time": 54.8659091,
                "end_time": 54.8818182,
                "pitch": 55,
                "velocity": 32,
                "duration": 0.0159091,
                "tempo": 120.0
            },
            {
                "start_time": 54.8818182,
                "end_time": 54.9,
                "pitch": 60,
                "velocity": 32,
                "duration": 0.0181818,
                "tempo": 120.0
            },
            {
                "start_time": 54.9,
                "end_time": 55.0795455,
                "pitch": 55,
                "velocity": 32,
                "duration": 0.1795455,
                "tempo": 120.0
            },
            {
                "start_time": 55.0954545,
                "end_time": 55.1113636,
                "pitch": 43,
                "velocity": 32,
                "duration": 0.0159091,
                "tempo": 120.0
            },
            {
                "start_time": 55.1113636,
                "end_time": 55.1272727,
                "pitch": 48,
                "velocity": 32,
                "duration": 0.0159091,
                "tempo": 120.0
            },
            {
                "start_time": 55.1272727,
                "end_time": 55.3090909,
                "pitch": 43,
                "velocity": 32,
                "duration": 0.1818182,
                "tempo": 120.0
            },
            {
                "start_time": 55.7931818,
                "end_time": 55.8113636,
                "pitch": 44,
                "velocity": 32,
                "duration": 0.0181818,
                "tempo": 120.0
            },
            {
                "start_time": 55.8113636,
                "end_time": 55.8272727,
                "pitch": 48,
                "velocity": 32,
                "duration": 0.0159091,
                "tempo": 120.0
            },
            {
                "start_time": 55.8272727,
                "end_time": 56.0113636,
                "pitch": 44,
                "velocity": 32,
                "duration": 0.1840909,
                "tempo": 120.0
            },
            {
                "start_time": 56.7318182,
                "end_time": 56.7477273,
                "pitch": 56,
                "velocity": 32,
                "duration": 0.0159091,
                "tempo": 120.0
            },
            {
                "start_time": 56.7477273,
                "end_time": 56.7636364,
                "pitch": 60,
                "velocity": 32,
                "duration": 0.0159091,
                "tempo": 120.0
            },
            {
                "start_time": 56.7636364,
                "end_time": 56.9454545,
                "pitch": 56,
                "velocity": 32,
                "duration": 0.1818182,
                "tempo": 120.0
            },
            {
                "start_time": 56.9613636,
                "end_time": 56.9772727,
                "pitch": 44,
                "velocity": 32,
                "duration": 0.0159091,
                "tempo": 120.0
            },
            {
                "start_time": 56.9772727,
                "end_time": 56.9931818,
                "pitch": 48,
                "velocity": 32,
                "duration": 0.0159091,
                "tempo": 120.0
            },
            {
                "start_time": 56.9931818,
                "end_time": 57.1727273,
                "pitch": 44,
                "velocity": 32,
                "duration": 0.1795455,
                "tempo": 120.0
            },
            {
                "start_time": 57.6590909,
                "end_time": 57.675,
                "pitch": 43,
                "velocity": 32,
                "duration": 0.0159091,
                "tempo": 120.0
            },
            {
                "start_time": 57.675,
                "end_time": 57.6909091,
                "pitch": 48,
                "velocity": 32,
                "duration": 0.0159091,
                "tempo": 120.0
            },
            {
                "start_time": 57.6909091,
                "end_time": 57.8704545,
                "pitch": 43,
                "velocity": 32,
                "duration": 0.1795455,
                "tempo": 120.0
            },
            {
                "start_time": 58.5863636,
                "end_time": 58.6022727,
                "pitch": 55,
                "velocity": 32,
                "duration": 0.0159091,
                "tempo": 120.0
            },
            {
                "start_time": 58.6022727,
                "end_time": 58.6204545,
                "pitch": 60,
                "velocity": 32,
                "duration": 0.0181818,
                "tempo": 120.0
            },
            {
                "start_time": 58.6204545,
                "end_time": 58.8045455,
                "pitch": 55,
                "velocity": 32,
                "duration": 0.1840909,
                "tempo": 120.0
            },
            {
                "start_time": 58.8204545,
                "end_time": 58.8363636,
                "pitch": 43,
                "velocity": 32,
                "duration": 0.0159091,
                "tempo": 120.0
            },
            {
                "start_time": 58.8363636,
                "end_time": 58.8545455,
                "pitch": 48,
                "velocity": 32,
                "duration": 0.0181818,
                "tempo": 120.0
            },
            {
                "start_time": 58.8545455,
                "end_time": 59.0386364,
                "pitch": 43,
                "velocity": 32,
                "duration": 0.1840909,
                "tempo": 120.0
            },
            {
                "start_time": 59.525,
                "end_time": 59.5409091,
                "pitch": 44,
                "velocity": 32,
                "duration": 0.0159091,
                "tempo": 120.0
            },
            {
                "start_time": 59.5409091,
                "end_time": 59.5568182,
                "pitch": 48,
                "velocity": 32,
                "duration": 0.0159091,
                "tempo": 120.0
            },
            {
                "start_time": 59.5568182,
                "end_time": 59.7363636,
                "pitch": 44,
                "velocity": 32,
                "duration": 0.1795455,
                "tempo": 120.0
            },
            {
                "start_time": 60.4522727,
                "end_time": 60.4681818,
                "pitch": 56,
                "velocity": 32,
                "duration": 0.0159091,
                "tempo": 120.0
            },
            {
                "start_time": 60.4681818,
                "end_time": 60.4840909,
                "pitch": 60,
                "velocity": 32,
                "duration": 0.0159091,
                "tempo": 120.0
            },
            {
                "start_time": 60.4840909,
                "end_time": 60.6636364,
                "pitch": 56,
                "velocity": 32,
                "duration": 0.1795455,
                "tempo": 120.0
            },
            {
                "start_time": 60.6795455,
                "end_time": 60.6977273,
                "pitch": 44,
                "velocity": 32,
                "duration": 0.0181818,
                "tempo": 120.0
            },
            {
                "start_time": 60.6977273,
                "end_time": 60.7136364,
                "pitch": 48,
                "velocity": 32,
                "duration": 0.0159091,
                "tempo": 120.0
            },
            {
                "start_time": 60.7136364,
                "end_time": 60.8931818,
                "pitch": 44,
                "velocity": 32,
                "duration": 0.1795455,
                "tempo": 120.0
            },
            {
                "start_time": 61.3795455,
                "end_time": 61.3954545,
                "pitch": 43,
                "velocity": 32,
                "duration": 0.0159091,
                "tempo": 120.0
            },
            {
                "start_time": 61.3954545,
                "end_time": 61.4113636,
                "pitch": 48,
                "velocity": 32,
                "duration": 0.0159091,
                "tempo": 120.0
            },
            {
                "start_time": 61.4113636,
                "end_time": 61.5954545,
                "pitch": 43,
                "velocity": 32,
                "duration": 0.1840909,
                "tempo": 120.0
            },
            {
                "start_time": 62.3159091,
                "end_time": 62.3318182,
                "pitch": 55,
                "velocity": 32,
                "duration": 0.0159091,
                "tempo": 120.0
            },
            {
                "start_time": 62.3318182,
                "end_time": 62.35,
                "pitch": 60,
                "velocity": 32,
                "duration": 0.0181818,
                "tempo": 120.0
            },
            {
                "start_time": 62.35,
                "end_time": 62.5295455,
                "pitch": 55,
                "velocity": 32,
                "duration": 0.1795455,
                "tempo": 120.0
            },
            {
                "start_time": 62.5454545,
                "end_time": 62.5613636,
                "pitch": 43,
                "velocity": 32,
                "duration": 0.0159091,
                "tempo": 120.0
            },
            {
                "start_time": 62.5613636,
                "end_time": 62.5772727,
                "pitch": 48,
                "velocity": 32,
                "duration": 0.0159091,
                "tempo": 120.0
            },
            {
                "start_time": 62.5772727,
                "end_time": 62.7590909,
                "pitch": 43,
                "velocity": 32,
                "duration": 0.1818182,
                "tempo": 120.0
            },
            {
                "start_time": 63.2431818,
                "end_time": 63.2590909,
                "pitch": 48,
                "velocity": 32,
                "duration": 0.0159091,
                "tempo": 120.0
            },
            {
                "start_time": 63.2590909,
                "end_time": 63.2772727,
                "pitch": 52,
                "velocity": 32,
                "duration": 0.0181818,
                "tempo": 120.0
            },
            {
                "start_time": 63.2772727,
                "end_time": 63.4568182,
                "pitch": 48,
                "velocity": 32,
                "duration": 0.1795455,
                "tempo": 120.0
            },
            {
                "start_time": 64.1704545,
                "end_time": 64.1886364,
                "pitch": 60,
                "velocity": 32,
                "duration": 0.0181818,
                "tempo": 120.0
            },
            {
                "start_time": 64.1886364,
                "end_time": 64.2045455,
                "pitch": 64,
                "velocity": 32,
                "duration": 0.0159091,
                "tempo": 120.0
            },
            {
                "start_time": 64.2045455,
                "end_time": 64.3886364,
                "pitch": 60,
                "velocity": 32,
                "duration": 0.1840909,
                "tempo": 120.0
            },
            {
                "start_time": 64.4045455,
                "end_time": 64.4227273,
                "pitch": 48,
                "velocity": 32,
                "duration": 0.0181818,
                "tempo": 120.0
            },
            {
                "start_time": 64.4227273,
                "end_time": 64.4386364,
                "pitch": 52,
                "velocity": 32,
                "duration": 0.0159091,
                "tempo": 120.0
            },
            {
                "start_time": 64.4386364,
                "end_time": 64.6227273,
                "pitch": 48,
                "velocity": 32,
                "duration": 0.1840909,
                "tempo": 120.0
            },
            {
                "start_time": 65.1090909,
                "end_time": 65.125,
                "pitch": 48,
                "velocity": 32,
                "duration": 0.0159091,
                "tempo": 120.0
            },
            {
                "start_time": 65.125,
                "end_time": 65.1409091,
                "pitch": 52,
                "velocity": 32,
                "duration": 0.0159091,
                "tempo": 120.0
            },
            {
                "start_time": 65.1409091,
                "end_time": 65.3204545,
                "pitch": 48,
                "velocity": 32,
                "duration": 0.1795455,
                "tempo": 120.0
            },
            {
                "start_time": 66.0363636,
                "end_time": 66.0522727,
                "pitch": 60,
                "velocity": 32,
                "duration": 0.0159091,
                "tempo": 120.0
            },
            {
                "start_time": 66.0522727,
                "end_time": 66.0681818,
                "pitch": 64,
                "velocity": 32,
                "duration": 0.0159091,
                "tempo": 120.0
            },
            {
                "start_time": 66.0681818,
                "end_time": 66.2477273,
                "pitch": 60,
                "velocity": 32,
                "duration": 0.1795455,
                "tempo": 120.0
            },
            {
                "start_time": 66.2659091,
                "end_time": 66.2818182,
                "pitch": 48,
                "velocity": 32,
                "duration": 0.0159091,
                "tempo": 120.0
            },
            {
                "start_time": 66.2818182,
                "end_time": 66.2977273,
                "pitch": 52,
                "velocity": 32,
                "duration": 0.0159091,
                "tempo": 120.0
            },
            {
                "start_time": 66.2977273,
                "end_time": 66.4772727,
                "pitch": 48,
                "velocity": 32,
                "duration": 0.1795455,
                "tempo": 120.0
            },
            {
                "start_time": 66.9704545,
                "end_time": 66.9863636,
                "pitch": 44,
                "velocity": 32,
                "duration": 0.0159091,
                "tempo": 120.0
            },
            {
                "start_time": 66.9863636,
                "end_time": 67.0022727,
                "pitch": 48,
                "velocity": 32,
                "duration": 0.0159091,
                "tempo": 120.0
            },
            {
                "start_time": 67.0022727,
                "end_time": 67.1840909,
                "pitch": 44,
                "velocity": 32,
                "duration": 0.1818182,
                "tempo": 120.0
            },
            {
                "start_time": 67.8977273,
                "end_time": 67.9136364,
                "pitch": 56,
                "velocity": 32,
                "duration": 0.0159091,
                "tempo": 120.0
            },
            {
                "start_time": 67.9136364,
                "end_time": 67.9295455,
                "pitch": 60,
                "velocity": 32,
                "duration": 0.0159091,
                "tempo": 120.0
            },
            {
                "start_time": 67.9295455,
                "end_time": 68.1090909,
                "pitch": 56,
                "velocity": 32,
                "duration": 0.1795455,
                "tempo": 120.0
            },
            {
                "start_time": 68.1272727,
                "end_time": 68.1431818,
                "pitch": 44,
                "velocity": 32,
                "duration": 0.0159091,
                "tempo": 120.0
            },
            {
                "start_time": 68.1431818,
                "end_time": 68.1590909,
                "pitch": 48,
                "velocity": 32,
                "duration": 0.0159091,
                "tempo": 120.0
            },
            {
                "start_time": 68.1590909,
                "end_time": 68.3386364,
                "pitch": 44,
                "velocity": 32,
                "duration": 0.1795455,
                "tempo": 120.0
            },
            {
                "start_time": 68.825,
                "end_time": 68.8409091,
                "pitch": 43,
                "velocity": 32,
                "duration": 0.0159091,
                "tempo": 120.0
            },
            {
                "start_time": 68.8409091,
                "end_time": 68.8568182,
                "pitch": 48,
                "velocity": 32,
                "duration": 0.0159091,
                "tempo": 120.0
            },
            {
                "start_time": 68.8568182,
                "end_time": 69.0363636,
                "pitch": 43,
                "velocity": 32,
                "duration": 0.1795455,
                "tempo": 120.0
            },
            {
                "start_time": 69.7522727,
                "end_time": 69.7681818,
                "pitch": 55,
                "velocity": 32,
                "duration": 0.0159091,
                "tempo": 120.0
            },
            {
                "start_time": 69.7681818,
                "end_time": 69.7840909,
                "pitch": 60,
                "velocity": 32,
                "duration": 0.0159091,
                "tempo": 120.0
            },
            {
                "start_time": 69.7840909,
                "end_time": 69.9704545,
                "pitch": 55,
                "velocity": 32,
                "duration": 0.1863636,
                "tempo": 120.0
            },
            {
                "start_time": 69.9863636,
                "end_time": 70.0022727,
                "pitch": 43,
                "velocity": 32,
                "duration": 0.0159091,
                "tempo": 120.0
            },
            {
                "start_time": 70.0022727,
                "end_time": 70.0204545,
                "pitch": 48,
                "velocity": 32,
                "duration": 0.0181818,
                "tempo": 120.0
            },
            {
                "start_time": 70.0204545,
                "end_time": 70.2045455,
                "pitch": 43,
                "velocity": 32,
                "duration": 0.1840909,
                "tempo": 120.0
            },
            {
                "start_time": 70.6886364,
                "end_time": 70.7068182,
                "pitch": 44,
                "velocity": 32,
                "duration": 0.0181818,
                "tempo": 120.0
            },
            {
                "start_time": 70.7068182,
                "end_time": 70.7227273,
                "pitch": 48,
                "velocity": 32,
                "duration": 0.0159091,
                "tempo": 120.0
            },
            {
                "start_time": 70.7227273,
                "end_time": 70.9022727,
                "pitch": 44,
                "velocity": 32,
                "duration": 0.1795455,
                "tempo": 120.0
            },
            {
                "start_time": 71.6159091,
                "end_time": 71.6340909,
                "pitch": 56,
                "velocity": 32,
                "duration": 0.0181818,
                "tempo": 120.0
            },
            {
                "start_time": 71.6340909,
                "end_time": 71.65,
                "pitch": 60,
                "velocity": 32,
                "duration": 0.0159091,
                "tempo": 120.0
            },
            {
                "start_time": 71.65,
                "end_time": 71.8295455,
                "pitch": 56,
                "velocity": 32,
                "duration": 0.1795455,
                "tempo": 120.0
            },
            {
                "start_time": 71.8454545,
                "end_time": 71.8613636,
                "pitch": 44,
                "velocity": 32,
                "duration": 0.0159091,
                "tempo": 120.0
            },
            {
                "start_time": 71.8613636,
                "end_time": 71.8795455,
                "pitch": 48,
                "velocity": 32,
                "duration": 0.0181818,
                "tempo": 120.0
            },
            {
                "start_time": 71.8795455,
                "end_time": 72.0590909,
                "pitch": 44,
                "velocity": 32,
                "duration": 0.1795455,
                "tempo": 120.0
            },
            {
                "start_time": 72.5431818,
                "end_time": 72.5613636,
                "pitch": 43,
                "velocity": 32,
                "duration": 0.0181818,
                "tempo": 120.0
            },
            {
                "start_time": 72.5613636,
                "end_time": 72.5772727,
                "pitch": 48,
                "velocity": 32,
                "duration": 0.0159091,
                "tempo": 120.0
            },
            {
                "start_time": 72.5772727,
                "end_time": 72.7613636,
                "pitch": 43,
                "velocity": 32,
                "duration": 0.1840909,
                "tempo": 120.0
            },
            {
                "start_time": 73.4818182,
                "end_time": 73.4977273,
                "pitch": 55,
                "velocity": 32,
                "duration": 0.0159091,
                "tempo": 120.0
            },
            {
                "start_time": 73.4977273,
                "end_time": 73.5136364,
                "pitch": 60,
                "velocity": 32,
                "duration": 0.0159091,
                "tempo": 120.0
            },
            {
                "start_time": 73.5136364,
                "end_time": 73.6954545,
                "pitch": 55,
                "velocity": 32,
                "duration": 0.1818182,
                "tempo": 120.0
            },
            {
                "start_time": 73.7113636,
                "end_time": 73.7272727,
                "pitch": 43,
                "velocity": 32,
                "duration": 0.0159091,
                "tempo": 120.0
            },
            {
                "start_time": 73.7272727,
                "end_time": 73.7431818,
                "pitch": 48,
                "velocity": 32,
                "duration": 0.0159091,
                "tempo": 120.0
            },
            {
                "start_time": 73.7431818,
                "end_time": 73.9227273,
                "pitch": 43,
                "velocity": 32,
                "duration": 0.1795455,
                "tempo": 120.0
            },
            {
                "start_time": 74.4090909,
                "end_time": 74.425,
                "pitch": 44,
                "velocity": 32,
                "duration": 0.0159091,
                "tempo": 120.0
            },
            {
                "start_time": 74.425,
                "end_time": 74.4431818,
                "pitch": 48,
                "velocity": 32,
                "duration": 0.0181818,
                "tempo": 120.0
            },
            {
                "start_time": 74.4431818,
                "end_time": 74.6272727,
                "pitch": 44,
                "velocity": 32,
                "duration": 0.1840909,
                "tempo": 120.0
            },
            {
                "start_time": 75.3363636,
                "end_time": 75.3522727,
                "pitch": 56,
                "velocity": 32,
                "duration": 0.0159091,
                "tempo": 120.0
            },
            {
                "start_time": 75.3522727,
                "end_time": 75.3704545,
                "pitch": 60,
                "velocity": 32,
                "duration": 0.0181818,
                "tempo": 120.0
            },
            {
                "start_time": 75.3704545,
                "end_time": 75.5545455,
                "pitch": 56,
                "velocity": 32,
                "duration": 0.1840909,
                "tempo": 120.0
            },
            {
                "start_time": 75.5704545,
                "end_time": 75.5886364,
                "pitch": 44,
                "velocity": 32,
                "duration": 0.0181818,
                "tempo": 120.0
            },
            {
                "start_time": 75.5886364,
                "end_time": 75.6045455,
                "pitch": 48,
                "velocity": 32,
                "duration": 0.0159091,
                "tempo": 120.0
            },
            {
                "start_time": 75.6045455,
                "end_time": 75.7886364,
                "pitch": 44,
                "velocity": 32,
                "duration": 0.1840909,
                "tempo": 120.0
            },
            {
                "start_time": 76.275,
                "end_time": 76.2909091,
                "pitch": 43,
                "velocity": 32,
                "duration": 0.0159091,
                "tempo": 120.0
            },
            {
                "start_time": 76.2909091,
                "end_time": 76.3068182,
                "pitch": 48,
                "velocity": 32,
                "duration": 0.0159091,
                "tempo": 120.0
            },
            {
                "start_time": 76.3068182,
                "end_time": 76.4863636,
                "pitch": 43,
                "velocity": 32,
                "duration": 0.1795455,
                "tempo": 120.0
            },
            {
                "start_time": 77.2022727,
                "end_time": 77.2181818,
                "pitch": 55,
                "velocity": 32,
                "duration": 0.0159091,
                "tempo": 120.0
            },
            {
                "start_time": 77.2181818,
                "end_time": 77.2340909,
                "pitch": 60,
                "velocity": 32,
                "duration": 0.0159091,
                "tempo": 120.0
            },
            {
                "start_time": 77.2340909,
                "end_time": 77.4136364,
                "pitch": 55,
                "velocity": 32,
                "duration": 0.1795455,
                "tempo": 120.0
            },
            {
                "start_time": 77.4295455,
                "end_time": 77.4477273,
                "pitch": 43,
                "velocity": 32,
                "duration": 0.0181818,
                "tempo": 120.0
            },
            {
                "start_time": 77.4477273,
                "end_time": 77.4636364,
                "pitch": 48,
                "velocity": 32,
                "duration": 0.0159091,
                "tempo": 120.0
            },
            {
                "start_time": 77.4636364,
                "end_time": 77.6431818,
                "pitch": 43,
                "velocity": 32,
                "duration": 0.1795455,
                "tempo": 120.0
            },
            {
                "start_time": 78.1295455,
                "end_time": 78.1454545,
                "pitch": 48,
                "velocity": 32,
                "duration": 0.0159091,
                "tempo": 120.0
            },
            {
                "start_time": 78.1454545,
                "end_time": 78.1613636,
                "pitch": 52,
                "velocity": 32,
                "duration": 0.0159091,
                "tempo": 120.0
            },
            {
                "start_time": 78.1613636,
                "end_time": 78.3454545,
                "pitch": 48,
                "velocity": 32,
                "duration": 0.1840909,
                "tempo": 120.0
            },
            {
                "start_time": 79.0659091,
                "end_time": 79.0840909,
                "pitch": 60,
                "velocity": 32,
                "duration": 0.0181818,
                "tempo": 120.0
            },
            {
                "start_time": 79.0840909,
                "end_time": 79.1,
                "pitch": 64,
                "velocity": 32,
                "duration": 0.0159091,
                "tempo": 120.0
            },
            {
                "start_time": 79.1,
                "end_time": 79.2795455,
                "pitch": 60,
                "velocity": 32,
                "duration": 0.1795455,
                "tempo": 120.0
            },
            {
                "start_time": 79.2954545,
                "end_time": 79.3113636,
                "pitch": 48,
                "velocity": 32,
                "duration": 0.0159091,
                "tempo": 120.0
            },
            {
                "start_time": 79.3113636,
                "end_time": 79.3295455,
                "pitch": 52,
                "velocity": 32,
                "duration": 0.0181818,
                "tempo": 120.0
            },
            {
                "start_time": 79.3295455,
                "end_time": 79.5090909,
                "pitch": 48,
                "velocity": 32,
                "duration": 0.1795455,
                "tempo": 120.0
            },
            {
                "start_time": 79.9931818,
                "end_time": 80.0090909,
                "pitch": 48,
                "velocity": 32,
                "duration": 0.0159091,
                "tempo": 120.0
            },
            {
                "start_time": 80.0090909,
                "end_time": 80.0272727,
                "pitch": 52,
                "velocity": 32,
                "duration": 0.0181818,
                "tempo": 120.0
            },
            {
                "start_time": 80.0272727,
                "end_time": 80.2068182,
                "pitch": 48,
                "velocity": 32,
                "duration": 0.1795455,
                "tempo": 120.0
            },
            {
                "start_time": 80.9204545,
                "end_time": 80.9386364,
                "pitch": 60,
                "velocity": 32,
                "duration": 0.0181818,
                "tempo": 120.0
            },
            {
                "start_time": 80.9386364,
                "end_time": 80.9545455,
                "pitch": 64,
                "velocity": 32,
                "duration": 0.0159091,
                "tempo": 120.0
            },
            {
                "start_time": 80.9545455,
                "end_time": 81.1386364,
                "pitch": 60,
                "velocity": 32,
                "duration": 0.1840909,
                "tempo": 120.0
            },
            {
                "start_time": 81.1545455,
                "end_time": 81.1727273,
                "pitch": 48,
                "velocity": 32,
                "duration": 0.0181818,
                "tempo": 120.0
            },
            {
                "start_time": 81.1727273,
                "end_time": 81.1886364,
                "pitch": 52,
                "velocity": 32,
                "duration": 0.0159091,
                "tempo": 120.0
            },
            {
                "start_time": 81.1886364,
                "end_time": 81.3727273,
                "pitch": 48,
                "velocity": 32,
                "duration": 0.1840909,
                "tempo": 120.0
            },
            {
                "start_time": 81.8590909,
                "end_time": 81.875,
                "pitch": 43,
                "velocity": 32,
                "duration": 0.0159091,
                "tempo": 120.0
            },
            {
                "start_time": 81.875,
                "end_time": 81.8909091,
                "pitch": 48,
                "velocity": 32,
                "duration": 0.0159091,
                "tempo": 120.0
            },
            {
                "start_time": 81.8909091,
                "end_time": 82.0727273,
                "pitch": 43,
                "velocity": 32,
                "duration": 0.1818182,
                "tempo": 120.0
            },
            {
                "start_time": 82.7863636,
                "end_time": 82.8022727,
                "pitch": 55,
                "velocity": 32,
                "duration": 0.0159091,
                "tempo": 120.0
            },
            {
                "start_time": 82.8022727,
                "end_time": 82.8181818,
                "pitch": 60,
                "velocity": 32,
                "duration": 0.0159091,
                "tempo": 120.0
            },
            {
                "start_time": 82.8181818,
                "end_time": 82.9977273,
                "pitch": 55,
                "velocity": 32,
                "duration": 0.1795455,
                "tempo": 120.0
            },
            {
                "start_time": 83.0159091,
                "end_time": 83.0318182,
                "pitch": 43,
                "velocity": 32,
                "duration": 0.0159091,
                "tempo": 120.0
            },
            {
                "start_time": 83.0318182,
                "end_time": 83.0477273,
                "pitch": 48,
                "velocity": 32,
                "duration": 0.0159091,
                "tempo": 120.0
            },
            {
                "start_time": 83.0477273,
                "end_time": 83.2272727,
                "pitch": 43,
                "velocity": 32,
                "duration": 0.1795455,
                "tempo": 120.0
            },
            {
                "start_time": 83.7136364,
                "end_time": 83.7295455,
                "pitch": 44,
                "velocity": 32,
                "duration": 0.0159091,
                "tempo": 120.0
            },
            {
                "start_time": 83.7295455,
                "end_time": 83.7477273,
                "pitch": 48,
                "velocity": 32,
                "duration": 0.0181818,
                "tempo": 120.0
            },
            {
                "start_time": 83.7477273,
                "end_time": 83.9318182,
                "pitch": 44,
                "velocity": 32,
                "duration": 0.1840909,
                "tempo": 120.0
            },
            {
                "start_time": 84.6522727,
                "end_time": 84.6681818,
                "pitch": 56,
                "velocity": 32,
                "duration": 0.0159091,
                "tempo": 120.0
            },
            {
                "start_time": 84.6681818,
                "end_time": 84.6840909,
                "pitch": 60,
                "velocity": 32,
                "duration": 0.0159091,
                "tempo": 120.0
            },
            {
                "start_time": 84.6840909,
                "end_time": 84.8636364,
                "pitch": 56,
                "velocity": 32,
                "duration": 0.1795455,
                "tempo": 120.0
            },
            {
                "start_time": 84.8795455,
                "end_time": 84.8977273,
                "pitch": 44,
                "velocity": 32,
                "duration": 0.0181818,
                "tempo": 120.0
            },
            {
                "start_time": 84.8977273,
                "end_time": 84.9136364,
                "pitch": 48,
                "velocity": 32,
                "duration": 0.0159091,
                "tempo": 120.0
            },
            {
                "start_time": 84.9136364,
                "end_time": 85.0931818,
                "pitch": 44,
                "velocity": 32,
                "duration": 0.1795455,
                "tempo": 120.0
            },
            {
                "start_time": 85.5795455,
                "end_time": 85.5954545,
                "pitch": 46,
                "velocity": 32,
                "duration": 0.0159091,
                "tempo": 120.0
            },
            {
                "start_time": 85.5954545,
                "end_time": 85.6113636,
                "pitch": 50,
                "velocity": 32,
                "duration": 0.0159091,
                "tempo": 120.0
            },
            {
                "start_time": 85.6113636,
                "end_time": 85.7909091,
                "pitch": 46,
                "velocity": 32,
                "duration": 0.1795455,
                "tempo": 120.0
            },
            {
                "start_time": 86.5068182,
                "end_time": 86.5227273,
                "pitch": 58,
                "velocity": 32,
                "duration": 0.0159091,
                "tempo": 120.0
            },
            {
                "start_time": 86.5227273,
                "end_time": 86.5386364,
                "pitch": 62,
                "velocity": 32,
                "duration": 0.0159091,
                "tempo": 120.0
            },
            {
                "start_time": 86.5386364,
                "end_time": 86.7227273,
                "pitch": 58,
                "velocity": 32,
                "duration": 0.1840909,
                "tempo": 120.0
            },
            {
                "start_time": 86.7409091,
                "end_time": 86.7568182,
                "pitch": 46,
                "velocity": 32,
                "duration": 0.0159091,
                "tempo": 120.0
            },
            {
                "start_time": 86.7568182,
                "end_time": 86.7727273,
                "pitch": 50,
                "velocity": 32,
                "duration": 0.0159091,
                "tempo": 120.0
            },
            {
                "start_time": 86.7727273,
                "end_time": 86.9590909,
                "pitch": 46,
                "velocity": 32,
                "duration": 0.1863636,
                "tempo": 120.0
            },
            {
                "start_time": 87.4431818,
                "end_time": 87.4590909,
                "pitch": 48,
                "velocity": 32,
                "duration": 0.0159091,
                "tempo": 120.0
            },
            {
                "start_time": 87.4590909,
                "end_time": 87.4772727,
                "pitch": 52,
                "velocity": 32,
                "duration": 0.0181818,
                "tempo": 120.0
            },
            {
                "start_time": 87.4772727,
                "end_time": 87.6568182,
                "pitch": 48,
                "velocity": 32,
                "duration": 0.1795455,
                "tempo": 120.0
            },
            {
                "start_time": 88.3704545,
                "end_time": 88.3863636,
                "pitch": 60,
                "velocity": 32,
                "duration": 0.0159091,
                "tempo": 120.0
            },
            {
                "start_time": 88.3863636,
                "end_time": 88.4045455,
                "pitch": 64,
                "velocity": 32,
                "duration": 0.0181818,
                "tempo": 120.0
            },
            {
                "start_time": 88.4045455,
                "end_time": 88.5840909,
                "pitch": 60,
                "velocity": 32,
                "duration": 0.1795455,
                "tempo": 120.0
            },
            {
                "start_time": 88.6,
                "end_time": 88.6159091,
                "pitch": 48,
                "velocity": 32,
                "duration": 0.0159091,
                "tempo": 120.0
            },
            {
                "start_time": 88.6159091,
                "end_time": 88.6318182,
                "pitch": 52,
                "velocity": 32,
                "duration": 0.0159091,
                "tempo": 120.0
            },
            {
                "start_time": 88.6318182,
                "end_time": 88.8136364,
                "pitch": 48,
                "velocity": 32,
                "duration": 0.1818182,
                "tempo": 120.0
            },
            {
                "start_time": 89.3090909,
                "end_time": 89.325,
                "pitch": 43,
                "velocity": 32,
                "duration": 0.0159091,
                "tempo": 120.0
            },
            {
                "start_time": 89.325,
                "end_time": 89.3409091,
                "pitch": 48,
                "velocity": 32,
                "duration": 0.0159091,
                "tempo": 120.0
            },
            {
                "start_time": 89.3409091,
                "end_time": 89.5227273,
                "pitch": 43,
                "velocity": 32,
                "duration": 0.1818182,
                "tempo": 120.0
            },
            {
                "start_time": 90.2363636,
                "end_time": 90.2522727,
                "pitch": 55,
                "velocity": 32,
                "duration": 0.0159091,
                "tempo": 120.0
            },
            {
                "start_time": 90.2522727,
                "end_time": 90.2681818,
                "pitch": 60,
                "velocity": 32,
                "duration": 0.0159091,
                "tempo": 120.0
            },
            {
                "start_time": 90.2681818,
                "end_time": 90.4477273,
                "pitch": 55,
                "velocity": 32,
                "duration": 0.1795455,
                "tempo": 120.0
            },
            {
                "start_time": 90.4659091,
                "end_time": 90.4818182,
                "pitch": 43,
                "velocity": 32,
                "duration": 0.0159091,
                "tempo": 120.0
            },
            {
                "start_time": 90.4818182,
                "end_time": 90.4977273,
                "pitch": 48,
                "velocity": 32,
                "duration": 0.0159091,
                "tempo": 120.0
            },
            {
                "start_time": 90.4977273,
                "end_time": 90.6772727,
                "pitch": 43,
                "velocity": 32,
                "duration": 0.1795455,
                "tempo": 120.0
            },
            {
                "start_time": 91.1636364,
                "end_time": 91.1795455,
                "pitch": 44,
                "velocity": 32,
                "duration": 0.0159091,
                "tempo": 120.0
            },
            {
                "start_time": 91.1795455,
                "end_time": 91.1954545,
                "pitch": 48,
                "velocity": 32,
                "duration": 0.0159091,
                "tempo": 120.0
            },
            {
                "start_time": 91.1954545,
                "end_time": 91.375,
                "pitch": 44,
                "velocity": 32,
                "duration": 0.1795455,
                "tempo": 120.0
            },
            {
                "start_time": 92.0909091,
                "end_time": 92.1068182,
                "pitch": 56,
                "velocity": 32,
                "duration": 0.0159091,
                "tempo": 120.0
            },
            {
                "start_time": 92.1068182,
                "end_time": 92.125,
                "pitch": 60,
                "velocity": 32,
                "duration": 0.0181818,
                "tempo": 120.0
            },
            {
                "start_time": 92.125,
                "end_time": 92.3090909,
                "pitch": 56,
                "velocity": 32,
                "duration": 0.1840909,
                "tempo": 120.0
            },
            {
                "start_time": 92.325,
                "end_time": 92.3409091,
                "pitch": 44,
                "velocity": 32,
                "duration": 0.0159091,
                "tempo": 120.0
            },
            {
                "start_time": 92.3409091,
                "end_time": 92.3590909,
                "pitch": 48,
                "velocity": 32,
                "duration": 0.0181818,
                "tempo": 120.0
            },
            {
                "start_time": 92.3590909,
                "end_time": 92.5431818,
                "pitch": 44,
                "velocity": 32,
                "duration": 0.1840909,
                "tempo": 120.0
            },
            {
                "start_time": 93.0272727,
                "end_time": 93.0454545,
                "pitch": 46,
                "velocity": 32,
                "duration": 0.0181818,
                "tempo": 120.0
            },
            {
                "start_time": 93.0454545,
                "end_time": 93.0613636,
                "pitch": 50,
                "velocity": 32,
                "duration": 0.0159091,
                "tempo": 120.0
            },
            {
                "start_time": 93.0613636,
                "end_time": 93.2409091,
                "pitch": 46,
                "velocity": 32,
                "duration": 0.1795455,
                "tempo": 120.0
            },
            {
                "start_time": 93.9545455,
                "end_time": 93.9727273,
                "pitch": 58,
                "velocity": 32,
                "duration": 0.0181818,
                "tempo": 120.0
            },
            {
                "start_time": 93.9727273,
                "end_time": 93.9886364,
                "pitch": 62,
                "velocity": 32,
                "duration": 0.0159091,
                "tempo": 120.0
            },
            {
                "start_time": 93.9886364,
                "end_time": 94.1681818,
                "pitch": 58,
                "velocity": 32,
                "duration": 0.1795455,
                "tempo": 120.0
            },
            {
                "start_time": 94.1840909,
                "end_time": 94.2,
                "pitch": 46,
                "velocity": 32,
                "duration": 0.0159091,
                "tempo": 120.0
            },
            {
                "start_time": 94.2,
                "end_time": 94.2181818,
                "pitch": 50,
                "velocity": 32,
                "duration": 0.0181818,
                "tempo": 120.0
            },
            {
                "start_time": 94.2181818,
                "end_time": 94.3977273,
                "pitch": 46,
                "velocity": 32,
                "duration": 0.1795455,
                "tempo": 120.0
            },
            {
                "start_time": 94.8818182,
                "end_time": 94.9,
                "pitch": 48,
                "velocity": 32,
                "duration": 0.0181818,
                "tempo": 120.0
            },
            {
                "start_time": 94.9,
                "end_time": 94.9159091,
                "pitch": 52,
                "velocity": 32,
                "duration": 0.0159091,
                "tempo": 120.0
            },
            {
                "start_time": 94.9159091,
                "end_time": 95.1,
                "pitch": 48,
                "velocity": 32,
                "duration": 0.1840909,
                "tempo": 120.0
            },
            {
                "start_time": 95.8204545,
                "end_time": 95.8363636,
                "pitch": 60,
                "velocity": 32,
                "duration": 0.0159091,
                "tempo": 120.0
            },
            {
                "start_time": 95.8363636,
                "end_time": 95.8545455,
                "pitch": 64,
                "velocity": 32,
                "duration": 0.0181818,
                "tempo": 120.0
            },
            {
                "start_time": 95.8545455,
                "end_time": 96.0340909,
                "pitch": 60,
                "velocity": 32,
                "duration": 0.1795455,
                "tempo": 120.0
            },
            {
                "start_time": 96.05,
                "end_time": 96.0659091,
                "pitch": 48,
                "velocity": 32,
                "duration": 0.0159091,
                "tempo": 120.0
            },
            {
                "start_time": 96.0659091,
                "end_time": 96.0818182,
                "pitch": 52,
                "velocity": 32,
                "duration": 0.0159091,
                "tempo": 120.0
            },
            {
                "start_time": 96.0818182,
                "end_time": 96.2636364,
                "pitch": 48,
                "velocity": 32,
                "duration": 0.1818182,
                "tempo": 120.0
            },
            {
                "start_time": 96.7590909,
                "end_time": 96.775,
                "pitch": 44,
                "velocity": 32,
                "duration": 0.0159091,
                "tempo": 120.0
            },
            {
                "start_time": 96.775,
                "end_time": 96.7909091,
                "pitch": 48,
                "velocity": 32,
                "duration": 0.0159091,
                "tempo": 120.0
            },
            {
                "start_time": 96.7909091,
                "end_time": 96.9727273,
                "pitch": 44,
                "velocity": 32,
                "duration": 0.1818182,
                "tempo": 120.0
            },
            {
                "start_time": 97.675,
                "end_time": 97.6931818,
                "pitch": 56,
                "velocity": 32,
                "duration": 0.0181818,
                "tempo": 120.0
            },
            {
                "start_time": 97.6931818,
                "end_time": 97.7090909,
                "pitch": 60,
                "velocity": 32,
                "duration": 0.0159091,
                "tempo": 120.0
            },
            {
                "start_time": 97.7090909,
                "end_time": 97.8931818,
                "pitch": 56,
                "velocity": 32,
                "duration": 0.1840909,
                "tempo": 120.0
            },
            {
                "start_time": 97.9090909,
                "end_time": 97.9272727,
                "pitch": 44,
                "velocity": 32,
                "duration": 0.0181818,
                "tempo": 120.0
            },
            {
                "start_time": 97.9272727,
                "end_time": 97.9431818,
                "pitch": 48,
                "velocity": 32,
                "duration": 0.0159091,
                "tempo": 120.0
            },
            {
                "start_time": 97.9431818,
                "end_time": 98.1272727,
                "pitch": 44,
                "velocity": 32,
                "duration": 0.1840909,
                "tempo": 120.0
            },
            {
                "start_time": 98.6136364,
                "end_time": 98.6295455,
                "pitch": 43,
                "velocity": 32,
                "duration": 0.0159091,
                "tempo": 120.0
            },
            {
                "start_time": 98.6295455,
                "end_time": 98.6454545,
                "pitch": 48,
                "velocity": 32,
                "duration": 0.0159091,
                "tempo": 120.0
            },
            {
                "start_time": 98.6454545,
                "end_time": 98.825,
                "pitch": 43,
                "velocity": 32,
                "duration": 0.1795455,
                "tempo": 120.0
            },
            {
                "start_time": 99.5409091,
                "end_time": 99.5568182,
                "pitch": 55,
                "velocity": 32,
                "duration": 0.0159091,
                "tempo": 120.0
            },
            {
                "start_time": 99.5568182,
                "end_time": 99.5727273,
                "pitch": 60,
                "velocity": 32,
                "duration": 0.0159091,
                "tempo": 120.0
            },
            {
                "start_time": 99.5727273,
                "end_time": 99.7522727,
                "pitch": 55,
                "velocity": 32,
                "duration": 0.1795455,
                "tempo": 120.0
            },
            {
                "start_time": 99.7704545,
                "end_time": 99.7863636,
                "pitch": 43,
                "velocity": 32,
                "duration": 0.0159091,
                "tempo": 120.0
            },
            {
                "start_time": 99.7863636,
                "end_time": 99.8022727,
                "pitch": 48,
                "velocity": 32,
                "duration": 0.0159091,
                "tempo": 120.0
            },
            {
                "start_time": 99.8022727,
                "end_time": 99.9818182,
                "pitch": 43,
                "velocity": 32,
                "duration": 0.1795455,
                "tempo": 120.0
            },
            {
                "start_time": 100.4681818,
                "end_time": 100.4840909,
                "pitch": 44,
                "velocity": 32,
                "duration": 0.0159091,
                "tempo": 120.0
            },
            {
                "start_time": 100.4840909,
                "end_time": 100.5022727,
                "pitch": 48,
                "velocity": 32,
                "duration": 0.0181818,
                "tempo": 120.0
            },
            {
                "start_time": 100.5022727,
                "end_time": 100.6863636,
                "pitch": 44,
                "velocity": 32,
                "duration": 0.1840909,
                "tempo": 120.0
            },
            {
                "start_time": 101.4045455,
                "end_time": 101.4227273,
                "pitch": 56,
                "velocity": 32,
                "duration": 0.0181818,
                "tempo": 120.0
            },
            {
                "start_time": 101.4227273,
                "end_time": 101.4386364,
                "pitch": 60,
                "velocity": 32,
                "duration": 0.0159091,
                "tempo": 120.0
            },
            {
                "start_time": 101.4386364,
                "end_time": 101.6181818,
                "pitch": 56,
                "velocity": 32,
                "duration": 0.1795455,
                "tempo": 120.0
            },
            {
                "start_time": 101.6340909,
                "end_time": 101.6522727,
                "pitch": 44,
                "velocity": 32,
                "duration": 0.0181818,
                "tempo": 120.0
            },
            {
                "start_time": 101.6522727,
                "end_time": 101.6681818,
                "pitch": 48,
                "velocity": 32,
                "duration": 0.0159091,
                "tempo": 120.0
            },
            {
                "start_time": 101.6681818,
                "end_time": 101.8477273,
                "pitch": 44,
                "velocity": 32,
                "duration": 0.1795455,
                "tempo": 120.0
            },
            {
                "start_time": 102.3318182,
                "end_time": 102.35,
                "pitch": 43,
                "velocity": 32,
                "duration": 0.0181818,
                "tempo": 120.0
            },
            {
                "start_time": 102.35,
                "end_time": 102.3659091,
                "pitch": 48,
                "velocity": 32,
                "duration": 0.0159091,
                "tempo": 120.0
            },
            {
                "start_time": 102.3659091,
                "end_time": 102.5454545,
                "pitch": 43,
                "velocity": 32,
                "duration": 0.1795455,
                "tempo": 120.0
            },
            {
                "start_time": 103.2590909,
                "end_time": 103.2772727,
                "pitch": 55,
                "velocity": 32,
                "duration": 0.0181818,
                "tempo": 120.0
            },
            {
                "start_time": 103.2772727,
                "end_time": 103.2931818,
                "pitch": 60,
                "velocity": 32,
                "duration": 0.0159091,
                "tempo": 120.0
            },
            {
                "start_time": 103.2931818,
                "end_time": 103.4772727,
                "pitch": 55,
                "velocity": 32,
                "duration": 0.1840909,
                "tempo": 120.0
            },
            {
                "start_time": 103.4954545,
                "end_time": 103.5113636,
                "pitch": 43,
                "velocity": 32,
                "duration": 0.0159091,
                "tempo": 120.0
            },
            {
                "start_time": 103.5113636,
                "end_time": 103.5272727,
                "pitch": 48,
                "velocity": 32,
                "duration": 0.0159091,
                "tempo": 120.0
            },
            {
                "start_time": 103.5272727,
                "end_time": 103.7113636,
                "pitch": 43,
                "velocity": 32,
                "duration": 0.1840909,
                "tempo": 120.0
            },
            {
                "start_time": 104.1977273,
                "end_time": 104.2136364,
                "pitch": 44,
                "velocity": 32,
                "duration": 0.0159091,
                "tempo": 120.0
            },
            {
                "start_time": 104.2136364,
                "end_time": 104.2318182,
                "pitch": 48,
                "velocity": 32,
                "duration": 0.0181818,
                "tempo": 120.0
            },
            {
                "start_time": 104.2318182,
                "end_time": 104.4113636,
                "pitch": 44,
                "velocity": 32,
                "duration": 0.1795455,
                "tempo": 120.0
            },
            {
                "start_time": 105.125,
                "end_time": 105.1409091,
                "pitch": 56,
                "velocity": 32,
                "duration": 0.0159091,
                "tempo": 120.0
            },
            {
                "start_time": 105.1409091,
                "end_time": 105.1568182,
                "pitch": 60,
                "velocity": 32,
                "duration": 0.0159091,
                "tempo": 120.0
            },
            {
                "start_time": 105.1568182,
                "end_time": 105.3386364,
                "pitch": 56,
                "velocity": 32,
                "duration": 0.1818182,
                "tempo": 120.0
            },
            {
                "start_time": 105.3545455,
                "end_time": 105.3704545,
                "pitch": 44,
                "velocity": 32,
                "duration": 0.0159091,
                "tempo": 120.0
            },
            {
                "start_time": 105.3704545,
                "end_time": 105.3863636,
                "pitch": 48,
                "velocity": 32,
                "duration": 0.0159091,
                "tempo": 120.0
            },
            {
                "start_time": 105.3863636,
                "end_time": 105.5659091,
                "pitch": 44,
                "velocity": 32,
                "duration": 0.1795455,
                "tempo": 120.0
            },
            {
                "start_time": 106.0522727,
                "end_time": 106.0681818,
                "pitch": 43,
                "velocity": 32,
                "duration": 0.0159091,
                "tempo": 120.0
            },
            {
                "start_time": 106.0681818,
                "end_time": 106.0863636,
                "pitch": 48,
                "velocity": 32,
                "duration": 0.0181818,
                "tempo": 120.0
            },
            {
                "start_time": 106.0863636,
                "end_time": 106.2704545,
                "pitch": 43,
                "velocity": 32,
                "duration": 0.1840909,
                "tempo": 120.0
            },
            {
                "start_time": 106.9909091,
                "end_time": 107.0068182,
                "pitch": 55,
                "velocity": 32,
                "duration": 0.0159091,
                "tempo": 120.0
            },
            {
                "start_time": 107.0068182,
                "end_time": 107.0227273,
                "pitch": 60,
                "velocity": 32,
                "duration": 0.0159091,
                "tempo": 120.0
            },
            {
                "start_time": 107.0227273,
                "end_time": 107.2022727,
                "pitch": 55,
                "velocity": 32,
                "duration": 0.1795455,
                "tempo": 120.0
            },
            {
                "start_time": 107.2204545,
                "end_time": 107.2363636,
                "pitch": 43,
                "velocity": 32,
                "duration": 0.0159091,
                "tempo": 120.0
            },
            {
                "start_time": 107.2363636,
                "end_time": 107.2522727,
                "pitch": 48,
                "velocity": 32,
                "duration": 0.0159091,
                "tempo": 120.0
            },
            {
                "start_time": 107.2522727,
                "end_time": 107.4318182,
                "pitch": 43,
                "velocity": 32,
                "duration": 0.1795455,
                "tempo": 120.0
            },
            {
                "start_time": 107.9181818,
                "end_time": 107.9340909,
                "pitch": 48,
                "velocity": 32,
                "duration": 0.0159091,
                "tempo": 120.0
            },
            {
                "start_time": 107.9340909,
                "end_time": 107.95,
                "pitch": 52,
                "velocity": 32,
                "duration": 0.0159091,
                "tempo": 120.0
            },
            {
                "start_time": 107.95,
                "end_time": 108.1295455,
                "pitch": 48,
                "velocity": 32,
                "duration": 0.1795455,
                "tempo": 120.0
            },
            {
                "start_time": 108.8454545,
                "end_time": 108.8613636,
                "pitch": 60,
                "velocity": 32,
                "duration": 0.0159091,
                "tempo": 120.0
            },
            {
                "start_time": 108.8613636,
                "end_time": 108.8772727,
                "pitch": 64,
                "velocity": 32,
                "duration": 0.0159091,
                "tempo": 120.0
            },
            {
                "start_time": 108.8772727,
                "end_time": 109.0613636,
                "pitch": 60,
                "velocity": 32,
                "duration": 0.1840909,
                "tempo": 120.0
            },
            {
                "start_time": 109.0795455,
                "end_time": 109.0954545,
                "pitch": 48,
                "velocity": 32,
                "duration": 0.0159091,
                "tempo": 120.0
            },
            {
                "start_time": 109.0954545,
                "end_time": 109.1136364,
                "pitch": 52,
                "velocity": 32,
                "duration": 0.0181818,
                "tempo": 120.0
            },
            {
                "start_time": 109.1136364,
                "end_time": 109.2977273,
                "pitch": 48,
                "velocity": 32,
                "duration": 0.1840909,
                "tempo": 120.0
            },
            {
                "start_time": 109.7818182,
                "end_time": 109.8,
                "pitch": 48,
                "velocity": 32,
                "duration": 0.0181818,
                "tempo": 120.0
            },
            {
                "start_time": 109.8,
                "end_time": 109.8159091,
                "pitch": 52,
                "velocity": 32,
                "duration": 0.0159091,
                "tempo": 120.0
            },
            {
                "start_time": 109.8159091,
                "end_time": 109.9954545,
                "pitch": 48,
                "velocity": 32,
                "duration": 0.1795455,
                "tempo": 120.0
            },
            {
                "start_time": 110.7090909,
                "end_time": 110.7272727,
                "pitch": 48,
                "velocity": 32,
                "duration": 0.0181818,
                "tempo": 120.0
            },
            {
                "start_time": 110.7272727,
                "end_time": 110.7431818,
                "pitch": 52,
                "velocity": 32,
                "duration": 0.0159091,
                "tempo": 120.0
            },
            {
                "start_time": 110.7431818,
                "end_time": 110.8613636,
                "pitch": 48,
                "velocity": 32,
                "duration": 0.1181818,
                "tempo": 120.0
            },
            {
                "start_time": 110.8772727,
                "end_time": 110.8931818,
                "pitch": 48,
                "velocity": 32,
                "duration": 0.0159091,
                "tempo": 120.0
            },
            {
                "start_time": 110.8931818,
                "end_time": 110.9113636,
                "pitch": 52,
                "velocity": 32,
                "duration": 0.0181818,
                "tempo": 120.0
            },
            {
                "start_time": 110.9113636,
                "end_time": 111.0113636,
                "pitch": 48,
                "velocity": 32,
                "duration": 0.1,
                "tempo": 120.0
            },
            {
                "start_time": 111.0272727,
                "end_time": 111.0454545,
                "pitch": 48,
                "velocity": 32,
                "duration": 0.0181818,
                "tempo": 120.0
            },
            {
                "start_time": 111.0454545,
                "end_time": 111.0613636,
                "pitch": 52,
                "velocity": 32,
                "duration": 0.0159091,
                "tempo": 120.0
            },
            {
                "start_time": 111.0613636,
                "end_time": 111.1613636,
                "pitch": 48,
                "velocity": 32,
                "duration": 0.1,
                "tempo": 120.0
            },
            {
                "start_time": 111.1795455,
                "end_time": 111.1954545,
                "pitch": 48,
                "velocity": 32,
                "duration": 0.0159091,
                "tempo": 120.0
            },
            {
                "start_time": 111.1954545,
                "end_time": 111.2113636,
                "pitch": 52,
                "velocity": 32,
                "duration": 0.0159091,
                "tempo": 120.0
            },
            {
                "start_time": 111.2113636,
                "end_time": 111.3295455,
                "pitch": 48,
                "velocity": 32,
                "duration": 0.1181818,
                "tempo": 120.0
            },
            {
                "start_time": 111.3454545,
                "end_time": 111.3636364,
                "pitch": 48,
                "velocity": 32,
                "duration": 0.0181818,
                "tempo": 120.0
            },
            {
                "start_time": 111.3636364,
                "end_time": 111.3795455,
                "pitch": 52,
                "velocity": 32,
                "duration": 0.0159091,
                "tempo": 120.0
            },
            {
                "start_time": 111.3795455,
                "end_time": 111.4795455,
                "pitch": 48,
                "velocity": 32,
                "duration": 0.1,
                "tempo": 120.0
            },
            {
                "start_time": 111.4977273,
                "end_time": 111.5136364,
                "pitch": 48,
                "velocity": 32,
                "duration": 0.0159091,
                "tempo": 120.0
            },
            {
                "start_time": 111.5136364,
                "end_time": 111.5295455,
                "pitch": 52,
                "velocity": 32,
                "duration": 0.0159091,
                "tempo": 120.0
            },
            {
                "start_time": 111.5295455,
                "end_time": 111.6318182,
                "pitch": 48,
                "velocity": 32,
                "duration": 0.1022727,
                "tempo": 120.0
            },
            {
                "start_time": 111.6477273,
                "end_time": 111.6636364,
                "pitch": 48,
                "velocity": 32,
                "duration": 0.0159091,
                "tempo": 120.0
            },
            {
                "start_time": 111.6636364,
                "end_time": 111.6795455,
                "pitch": 52,
                "velocity": 32,
                "duration": 0.0159091,
                "tempo": 120.0
            },
            {
                "start_time": 111.6795455,
                "end_time": 111.8613636,
                "pitch": 48,
                "velocity": 32,
                "duration": 0.1818182,
                "tempo": 120.0
            },
            {
                "start_time": 112.1068182,
                "end_time": 112.1227273,
                "pitch": 48,
                "velocity": 32,
                "duration": 0.0159091,
                "tempo": 120.0
            },
            {
                "start_time": 112.1227273,
                "end_time": 112.1386364,
                "pitch": 52,
                "velocity": 32,
                "duration": 0.0159091,
                "tempo": 120.0
            },
            {
                "start_time": 112.1386364,
                "end_time": 112.2545455,
                "pitch": 48,
                "velocity": 32,
                "duration": 0.1159091,
                "tempo": 120.0
            },
            {
                "start_time": 112.2704545,
                "end_time": 112.2863636,
                "pitch": 48,
                "velocity": 32,
                "duration": 0.0159091,
                "tempo": 120.0
            },
            {
                "start_time": 112.2863636,
                "end_time": 112.3022727,
                "pitch": 52,
                "velocity": 32,
                "duration": 0.0159091,
                "tempo": 120.0
            },
            {
                "start_time": 112.3022727,
                "end_time": 112.4,
                "pitch": 48,
                "velocity": 32,
                "duration": 0.0977273,
                "tempo": 120.0
            },
            {
                "start_time": 112.4181818,
                "end_time": 112.4340909,
                "pitch": 48,
                "velocity": 32,
                "duration": 0.0159091,
                "tempo": 120.0
            },
            {
                "start_time": 112.4340909,
                "end_time": 112.45,
                "pitch": 52,
                "velocity": 32,
                "duration": 0.0159091,
                "tempo": 120.0
            },
            {
                "start_time": 112.45,
                "end_time": 112.5477273,
                "pitch": 48,
                "velocity": 32,
                "duration": 0.0977273,
                "tempo": 120.0
            },
            {
                "start_time": 112.5636364,
                "end_time": 112.5818182,
                "pitch": 48,
                "velocity": 32,
                "duration": 0.0181818,
                "tempo": 120.0
            },
            {
                "start_time": 112.5818182,
                "end_time": 112.5977273,
                "pitch": 52,
                "velocity": 32,
                "duration": 0.0159091,
                "tempo": 120.0
            },
            {
                "start_time": 112.5977273,
                "end_time": 112.7818182,
                "pitch": 48,
                "velocity": 32,
                "duration": 0.1840909,
                "tempo": 120.0
            },
            {
                "start_time": 113.0340909,
                "end_time": 113.05,
                "pitch": 48,
                "velocity": 32,
                "duration": 0.0159091,
                "tempo": 120.0
            },
            {
                "start_time": 113.05,
                "end_time": 113.0659091,
                "pitch": 52,
                "velocity": 32,
                "duration": 0.0159091,
                "tempo": 120.0
            },
            {
                "start_time": 113.0659091,
                "end_time": 113.2522727,
                "pitch": 48,
                "velocity": 32,
                "duration": 0.1863636,
                "tempo": 120.0
            },
            {
                "start_time": 113.5022727,
                "end_time": 113.5181818,
                "pitch": 48,
                "velocity": 32,
                "duration": 0.0159091,
                "tempo": 120.0
            },
            {
                "start_time": 113.5181818,
                "end_time": 113.5340909,
                "pitch": 52,
                "velocity": 32,
                "duration": 0.0159091,
                "tempo": 120.0
            },
            {
                "start_time": 113.5340909,
                "end_time": 113.7159091,
                "pitch": 48,
                "velocity": 32,
                "duration": 0.1818182,
                "tempo": 120.0
            },
            {
                "start_time": 113.9613636,
                "end_time": 113.9772727,
                "pitch": 48,
                "velocity": 32,
                "duration": 0.0159091,
                "tempo": 120.0
            },
            {
                "start_time": 113.9772727,
                "end_time": 113.9931818,
                "pitch": 52,
                "velocity": 32,
                "duration": 0.0159091,
                "tempo": 120.0
            },
            {
                "start_time": 113.9931818,
                "end_time": 114.1113636,
                "pitch": 48,
                "velocity": 32,
                "duration": 0.1181818,
                "tempo": 120.0
            },
            {
                "start_time": 114.1272727,
                "end_time": 114.1454545,
                "pitch": 48,
                "velocity": 32,
                "duration": 0.0181818,
                "tempo": 120.0
            },
            {
                "start_time": 114.1454545,
                "end_time": 114.1613636,
                "pitch": 52,
                "velocity": 32,
                "duration": 0.0159091,
                "tempo": 120.0
            },
            {
                "start_time": 114.1613636,
                "end_time": 114.2613636,
                "pitch": 48,
                "velocity": 32,
                "duration": 0.1,
                "tempo": 120.0
            },
            {
                "start_time": 114.2795455,
                "end_time": 114.2954545,
                "pitch": 48,
                "velocity": 32,
                "duration": 0.0159091,
                "tempo": 120.0
            },
            {
                "start_time": 114.2954545,
                "end_time": 114.3113636,
                "pitch": 52,
                "velocity": 32,
                "duration": 0.0159091,
                "tempo": 120.0
            },
            {
                "start_time": 114.3113636,
                "end_time": 114.4136364,
                "pitch": 48,
                "velocity": 32,
                "duration": 0.1022727,
                "tempo": 120.0
            },
            {
                "start_time": 114.4295455,
                "end_time": 114.4454545,
                "pitch": 48,
                "velocity": 32,
                "duration": 0.0159091,
                "tempo": 120.0
            },
            {
                "start_time": 114.4454545,
                "end_time": 114.4636364,
                "pitch": 52,
                "velocity": 32,
                "duration": 0.0181818,
                "tempo": 120.0
            },
            {
                "start_time": 114.4636364,
                "end_time": 114.6477273,
                "pitch": 48,
                "velocity": 32,
                "duration": 0.1840909,
                "tempo": 120.0
            },
            {
                "start_time": 114.8977273,
                "end_time": 114.9159091,
                "pitch": 48,
                "velocity": 32,
                "duration": 0.0181818,
                "tempo": 120.0
            },
            {
                "start_time": 114.9159091,
                "end_time": 114.9318182,
                "pitch": 52,
                "velocity": 32,
                "duration": 0.0159091,
                "tempo": 120.0
            },
            {
                "start_time": 114.9318182,
                "end_time": 115.1159091,
                "pitch": 48,
                "velocity": 32,
                "duration": 0.1840909,
                "tempo": 120.0
            },
            {
                "start_time": 115.3681818,
                "end_time": 115.3840909,
                "pitch": 46,
                "velocity": 32,
                "duration": 0.0159091,
                "tempo": 120.0
            },
            {
                "start_time": 115.3840909,
                "end_time": 115.4,
                "pitch": 50,
                "velocity": 32,
                "duration": 0.0159091,
                "tempo": 120.0
            },
            {
                "start_time": 115.4,
                "end_time": 115.5795455,
                "pitch": 46,
                "velocity": 32,
                "duration": 0.1795455,
                "tempo": 120.0
            },
            {
                "start_time": 115.825,
                "end_time": 115.8431818,
                "pitch": 46,
                "velocity": 32,
                "duration": 0.0181818,
                "tempo": 120.0
            },
            {
                "start_time": 115.8431818,
                "end_time": 115.8590909,
                "pitch": 50,
                "velocity": 32,
                "duration": 0.0159091,
                "tempo": 120.0
            },
            {
                "start_time": 115.8590909,
                "end_time": 115.9772727,
                "pitch": 46,
                "velocity": 32,
                "duration": 0.1181818,
                "tempo": 120.0
            },
            {
                "start_time": 115.9931818,
                "end_time": 116.0090909,
                "pitch": 46,
                "velocity": 32,
                "duration": 0.0159091,
                "tempo": 120.0
            },
            {
                "start_time": 116.0090909,
                "end_time": 116.0272727,
                "pitch": 50,
                "velocity": 32,
                "duration": 0.0181818,
                "tempo": 120.0
            },
            {
                "start_time": 116.0272727,
                "end_time": 116.1272727,
                "pitch": 46,
                "velocity": 32,
                "duration": 0.1,
                "tempo": 120.0
            },
            {
                "start_time": 116.1431818,
                "end_time": 116.1613636,
                "pitch": 46,
                "velocity": 32,
                "duration": 0.0181818,
                "tempo": 120.0
            },
            {
                "start_time": 116.1613636,
                "end_time": 116.1772727,
                "pitch": 50,
                "velocity": 32,
                "duration": 0.0159091,
                "tempo": 120.0
            },
            {
                "start_time": 116.1772727,
                "end_time": 116.2772727,
                "pitch": 46,
                "velocity": 32,
                "duration": 0.1,
                "tempo": 120.0
            },
            {
                "start_time": 116.2954545,
                "end_time": 116.3113636,
                "pitch": 46,
                "velocity": 32,
                "duration": 0.0159091,
                "tempo": 120.0
            },
            {
                "start_time": 116.3113636,
                "end_time": 116.3272727,
                "pitch": 50,
                "velocity": 32,
                "duration": 0.0159091,
                "tempo": 120.0
            },
            {
                "start_time": 116.3272727,
                "end_time": 116.5068182,
                "pitch": 46,
                "velocity": 32,
                "duration": 0.1795455,
                "tempo": 120.0
            },
            {
                "start_time": 116.7522727,
                "end_time": 116.7704545,
                "pitch": 46,
                "velocity": 32,
                "duration": 0.0181818,
                "tempo": 120.0
            },
            {
                "start_time": 116.7704545,
                "end_time": 116.7863636,
                "pitch": 50,
                "velocity": 32,
                "duration": 0.0159091,
                "tempo": 120.0
            },
            {
                "start_time": 116.7863636,
                "end_time": 116.9704545,
                "pitch": 46,
                "velocity": 32,
                "duration": 0.1840909,
                "tempo": 120.0
            },
            {
                "start_time": 117.2227273,
                "end_time": 117.2386364,
                "pitch": 43,
                "velocity": 32,
                "duration": 0.0159091,
                "tempo": 120.0
            },
            {
                "start_time": 117.2386364,
                "end_time": 117.2545455,
                "pitch": 48,
                "velocity": 32,
                "duration": 0.0159091,
                "tempo": 120.0
            },
            {
                "start_time": 117.2545455,
                "end_time": 117.4386364,
                "pitch": 43,
                "velocity": 32,
                "duration": 0.1840909,
                "tempo": 120.0
            },
            {
                "start_time": 117.6909091,
                "end_time": 117.7068182,
                "pitch": 43,
                "velocity": 32,
                "duration": 0.0159091,
                "tempo": 120.0
            },
            {
                "start_time": 117.7068182,
                "end_time": 117.725,
                "pitch": 48,
                "velocity": 32,
                "duration": 0.0181818,
                "tempo": 120.0
            },
            {
                "start_time": 117.725,
                "end_time": 117.8409091,
                "pitch": 43,
                "velocity": 32,
                "duration": 0.1159091,
                "tempo": 120.0
            },
            {
                "start_time": 117.8590909,
                "end_time": 117.875,
                "pitch": 43,
                "velocity": 32,
                "duration": 0.0159091,
                "tempo": 120.0
            },
            {
                "start_time": 117.875,
                "end_time": 117.8909091,
                "pitch": 48,
                "velocity": 32,
                "duration": 0.0159091,
                "tempo": 120.0
            },
            {
                "start_time": 117.8909091,
                "end_time": 117.9931818,
                "pitch": 43,
                "velocity": 32,
                "duration": 0.1022727,
                "tempo": 120.0
            },
            {
                "start_time": 118.0090909,
                "end_time": 118.025,
                "pitch": 43,
                "velocity": 32,
                "duration": 0.0159091,
                "tempo": 120.0
            },
            {
                "start_time": 118.025,
                "end_time": 118.0431818,
                "pitch": 48,
                "velocity": 32,
                "duration": 0.0181818,
                "tempo": 120.0
            },
            {
                "start_time": 118.0431818,
                "end_time": 118.1431818,
                "pitch": 43,
                "velocity": 32,
                "duration": 0.1,
                "tempo": 120.0
            },
            {
                "start_time": 118.1590909,
                "end_time": 118.1772727,
                "pitch": 43,
                "velocity": 32,
                "duration": 0.0181818,
                "tempo": 120.0
            },
            {
                "start_time": 118.1772727,
                "end_time": 118.1931818,
                "pitch": 48,
                "velocity": 32,
                "duration": 0.0159091,
                "tempo": 120.0
            },
            {
                "start_time": 118.1931818,
                "end_time": 118.3068182,
                "pitch": 43,
                "velocity": 32,
                "duration": 0.1136364,
                "tempo": 120.0
            },
            {
                "start_time": 118.3227273,
                "end_time": 118.3409091,
                "pitch": 43,
                "velocity": 32,
                "duration": 0.0181818,
                "tempo": 120.0
            },
            {
                "start_time": 118.3409091,
                "end_time": 118.3568182,
                "pitch": 48,
                "velocity": 32,
                "duration": 0.0159091,
                "tempo": 120.0
            },
            {
                "start_time": 118.3568182,
                "end_time": 118.4545455,
                "pitch": 43,
                "velocity": 32,
                "duration": 0.0977273,
                "tempo": 120.0
            },
            {
                "start_time": 118.4704545,
                "end_time": 118.4863636,
                "pitch": 43,
                "velocity": 32,
                "duration": 0.0159091,
                "tempo": 120.0
            },
            {
                "start_time": 118.4863636,
                "end_time": 118.5045455,
                "pitch": 48,
                "velocity": 32,
                "duration": 0.0181818,
                "tempo": 120.0
            },
            {
                "start_time": 118.5045455,
                "end_time": 118.6022727,
                "pitch": 43,
                "velocity": 32,
                "duration": 0.0977273,
                "tempo": 120.0
            },
            {
                "start_time": 118.6181818,
                "end_time": 118.6340909,
                "pitch": 43,
                "velocity": 32,
                "duration": 0.0159091,
                "tempo": 120.0
            },
            {
                "start_time": 118.6340909,
                "end_time": 118.6522727,
                "pitch": 48,
                "velocity": 32,
                "duration": 0.0181818,
                "tempo": 120.0
            },
            {
                "start_time": 118.6522727,
                "end_time": 118.7727273,
                "pitch": 43,
                "velocity": 32,
                "duration": 0.1204545,
                "tempo": 120.0
            },
            {
                "start_time": 118.7886364,
                "end_time": 118.8068182,
                "pitch": 43,
                "velocity": 32,
                "duration": 0.0181818,
                "tempo": 120.0
            },
            {
                "start_time": 118.8068182,
                "end_time": 118.8227273,
                "pitch": 48,
                "velocity": 32,
                "duration": 0.0159091,
                "tempo": 120.0
            },
            {
                "start_time": 118.8227273,
                "end_time": 118.9272727,
                "pitch": 43,
                "velocity": 32,
                "duration": 0.1045455,
                "tempo": 120.0
            },
            {
                "start_time": 118.9431818,
                "end_time": 118.9613636,
                "pitch": 43,
                "velocity": 32,
                "duration": 0.0181818,
                "tempo": 120.0
            },
            {
                "start_time": 118.9613636,
                "end_time": 118.9772727,
                "pitch": 48,
                "velocity": 32,
                "duration": 0.0159091,
                "tempo": 120.0
            },
            {
                "start_time": 118.9772727,
                "end_time": 119.0818182,
                "pitch": 43,
                "velocity": 32,
                "duration": 0.1045455,
                "tempo": 120.0
            },
            {
                "start_time": 119.0977273,
                "end_time": 119.1136364,
                "pitch": 48,
                "velocity": 32,
                "duration": 0.0159091,
                "tempo": 120.0
            },
            {
                "start_time": 119.1136364,
                "end_time": 119.1318182,
                "pitch": 52,
                "velocity": 32,
                "duration": 0.0181818,
                "tempo": 120.0
            },
            {
                "start_time": 119.1318182,
                "end_time": 119.3113636,
                "pitch": 48,
                "velocity": 32,
                "duration": 0.1795455,
                "tempo": 120.0
            },
            {
                "start_time": 119.5568182,
                "end_time": 119.5727273,
                "pitch": 48,
                "velocity": 32,
                "duration": 0.0159091,
                "tempo": 120.0
            },
            {
                "start_time": 119.5727273,
                "end_time": 119.5886364,
                "pitch": 52,
                "velocity": 32,
                "duration": 0.0159091,
                "tempo": 120.0
            },
            {
                "start_time": 119.5886364,
                "end_time": 119.7045455,
                "pitch": 48,
                "velocity": 32,
                "duration": 0.1159091,
                "tempo": 120.0
            },
            {
                "start_time": 119.7204545,
                "end_time": 119.7363636,
                "pitch": 48,
                "velocity": 32,
                "duration": 0.0159091,
                "tempo": 120.0
            },
            {
                "start_time": 119.7363636,
                "end_time": 119.7522727,
                "pitch": 52,
                "velocity": 32,
                "duration": 0.0159091,
                "tempo": 120.0
            },
            {
                "start_time": 119.7522727,
                "end_time": 119.85,
                "pitch": 48,
                "velocity": 32,
                "duration": 0.0977273,
                "tempo": 120.0
            },
            {
                "start_time": 119.8681818,
                "end_time": 119.8840909,
                "pitch": 48,
                "velocity": 32,
                "duration": 0.0159091,
                "tempo": 120.0
            },
            {
                "start_time": 119.8840909,
                "end_time": 119.9,
                "pitch": 52,
                "velocity": 32,
                "duration": 0.0159091,
                "tempo": 120.0
            },
            {
                "start_time": 119.9,
                "end_time": 119.9977273,
                "pitch": 48,
                "velocity": 32,
                "duration": 0.0977273,
                "tempo": 120.0
            },
            {
                "start_time": 120.0136364,
                "end_time": 120.0318182,
                "pitch": 48,
                "velocity": 32,
                "duration": 0.0181818,
                "tempo": 120.0
            },
            {
                "start_time": 120.0318182,
                "end_time": 120.0477273,
                "pitch": 52,
                "velocity": 32,
                "duration": 0.0159091,
                "tempo": 120.0
            },
            {
                "start_time": 120.0477273,
                "end_time": 120.2318182,
                "pitch": 48,
                "velocity": 32,
                "duration": 0.1840909,
                "tempo": 120.0
            },
            {
                "start_time": 120.4840909,
                "end_time": 120.5,
                "pitch": 48,
                "velocity": 32,
                "duration": 0.0159091,
                "tempo": 120.0
            },
            {
                "start_time": 120.5,
                "end_time": 120.5181818,
                "pitch": 52,
                "velocity": 32,
                "duration": 0.0181818,
                "tempo": 120.0
            },
            {
                "start_time": 120.5181818,
                "end_time": 120.7022727,
                "pitch": 48,
                "velocity": 32,
                "duration": 0.1840909,
                "tempo": 120.0
            },
            {
                "start_time": 120.9522727,
                "end_time": 120.9681818,
                "pitch": 46,
                "velocity": 32,
                "duration": 0.0159091,
                "tempo": 120.0
            },
            {
                "start_time": 120.9681818,
                "end_time": 120.9863636,
                "pitch": 50,
                "velocity": 32,
                "duration": 0.0181818,
                "tempo": 120.0
            },
            {
                "start_time": 120.9863636,
                "end_time": 121.1659091,
                "pitch": 46,
                "velocity": 32,
                "duration": 0.1795455,
                "tempo": 120.0
            },
            {
                "start_time": 121.4113636,
                "end_time": 121.4272727,
                "pitch": 46,
                "velocity": 32,
                "duration": 0.0159091,
                "tempo": 120.0
            },
            {
                "start_time": 121.4272727,
                "end_time": 121.4431818,
                "pitch": 50,
                "velocity": 32,
                "duration": 0.0159091,
                "tempo": 120.0
            },
            {
                "start_time": 121.4431818,
                "end_time": 121.5613636,
                "pitch": 46,
                "velocity": 32,
                "duration": 0.1181818,
                "tempo": 120.0
            },
            {
                "start_time": 121.5772727,
                "end_time": 121.5954545,
                "pitch": 46,
                "velocity": 32,
                "duration": 0.0181818,
                "tempo": 120.0
            },
            {
                "start_time": 121.5954545,
                "end_time": 121.6113636,
                "pitch": 50,
                "velocity": 32,
                "duration": 0.0159091,
                "tempo": 120.0
            },
            {
                "start_time": 121.6113636,
                "end_time": 121.7113636,
                "pitch": 46,
                "velocity": 32,
                "duration": 0.1,
                "tempo": 120.0
            },
            {
                "start_time": 121.7295455,
                "end_time": 121.7454545,
                "pitch": 46,
                "velocity": 32,
                "duration": 0.0159091,
                "tempo": 120.0
            },
            {
                "start_time": 121.7454545,
                "end_time": 121.7613636,
                "pitch": 50,
                "velocity": 32,
                "duration": 0.0159091,
                "tempo": 120.0
            },
            {
                "start_time": 121.7613636,
                "end_time": 121.8636364,
                "pitch": 46,
                "velocity": 32,
                "duration": 0.1022727,
                "tempo": 120.0
            },
            {
                "start_time": 121.8795455,
                "end_time": 121.8954545,
                "pitch": 46,
                "velocity": 32,
                "duration": 0.0159091,
                "tempo": 120.0
            },
            {
                "start_time": 121.8954545,
                "end_time": 121.9113636,
                "pitch": 50,
                "velocity": 32,
                "duration": 0.0159091,
                "tempo": 120.0
            },
            {
                "start_time": 121.9113636,
                "end_time": 122.0931818,
                "pitch": 46,
                "velocity": 32,
                "duration": 0.1818182,
                "tempo": 120.0
            },
            {
                "start_time": 122.3386364,
                "end_time": 122.3545455,
                "pitch": 46,
                "velocity": 32,
                "duration": 0.0159091,
                "tempo": 120.0
            },
            {
                "start_time": 122.3545455,
                "end_time": 122.3704545,
                "pitch": 50,
                "velocity": 32,
                "duration": 0.0159091,
                "tempo": 120.0
            },
            {
                "start_time": 122.3704545,
                "end_time": 122.5545455,
                "pitch": 46,
                "velocity": 32,
                "duration": 0.1840909,
                "tempo": 120.0
            },
            {
                "start_time": 122.8068182,
                "end_time": 122.8227273,
                "pitch": 48,
                "velocity": 32,
                "duration": 0.0159091,
                "tempo": 120.0
            },
            {
                "start_time": 122.8227273,
                "end_time": 122.8409091,
                "pitch": 52,
                "velocity": 32,
                "duration": 0.0181818,
                "tempo": 120.0
            },
            {
                "start_time": 122.8409091,
                "end_time": 123.025,
                "pitch": 48,
                "velocity": 32,
                "duration": 0.1840909,
                "tempo": 120.0
            },
            {
                "start_time": 123.275,
                "end_time": 123.2931818,
                "pitch": 48,
                "velocity": 32,
                "duration": 0.0181818,
                "tempo": 120.0
            },
            {
                "start_time": 123.2931818,
                "end_time": 123.3090909,
                "pitch": 52,
                "velocity": 32,
                "duration": 0.0159091,
                "tempo": 120.0
            },
            {
                "start_time": 123.3090909,
                "end_time": 123.4272727,
                "pitch": 48,
                "velocity": 32,
                "duration": 0.1181818,
                "tempo": 120.0
            },
            {
                "start_time": 123.4431818,
                "end_time": 123.4590909,
                "pitch": 48,
                "velocity": 32,
                "duration": 0.0159091,
                "tempo": 120.0
            },
            {
                "start_time": 123.4590909,
                "end_time": 123.4772727,
                "pitch": 52,
                "velocity": 32,
                "duration": 0.0181818,
                "tempo": 120.0
            },
            {
                "start_time": 123.4772727,
                "end_time": 123.5772727,
                "pitch": 48,
                "velocity": 32,
                "duration": 0.1,
                "tempo": 120.0
            },
            {
                "start_time": 123.5931818,
                "end_time": 123.6113636,
                "pitch": 48,
                "velocity": 32,
                "duration": 0.0181818,
                "tempo": 120.0
            },
            {
                "start_time": 123.6113636,
                "end_time": 123.6272727,
                "pitch": 52,
                "velocity": 32,
                "duration": 0.0159091,
                "tempo": 120.0
            },
            {
                "start_time": 123.6272727,
                "end_time": 123.7272727,
                "pitch": 48,
                "velocity": 32,
                "duration": 0.1,
                "tempo": 120.0
            },
            {
                "start_time": 123.7454545,
                "end_time": 123.7613636,
                "pitch": 46,
                "velocity": 32,
                "duration": 0.0159091,
                "tempo": 120.0
            },
            {
                "start_time": 123.7613636,
                "end_time": 123.7772727,
                "pitch": 50,
                "velocity": 32,
                "duration": 0.0159091,
                "tempo": 120.0
            },
            {
                "start_time": 123.7772727,
                "end_time": 123.9568182,
                "pitch": 46,
                "velocity": 32,
                "duration": 0.1795455,
                "tempo": 120.0
            },
            {
                "start_time": 124.2022727,
                "end_time": 124.2204545,
                "pitch": 44,
                "velocity": 32,
                "duration": 0.0181818,
                "tempo": 120.0
            },
            {
                "start_time": 124.2204545,
                "end_time": 124.2363636,
                "pitch": 48,
                "velocity": 32,
                "duration": 0.0159091,
                "tempo": 120.0
            },
            {
                "start_time": 124.2363636,
                "end_time": 124.4204545,
                "pitch": 44,
                "velocity": 32,
                "duration": 0.1840909,
                "tempo": 120.0
            },
            {
                "start_time": 124.6727273,
                "end_time": 124.6886364,
                "pitch": 48,
                "velocity": 32,
                "duration": 0.0159091,
                "tempo": 120.0
            },
            {
                "start_time": 124.6886364,
                "end_time": 124.7045455,
                "pitch": 52,
                "velocity": 32,
                "duration": 0.0159091,
                "tempo": 120.0
            },
            {
                "start_time": 124.7045455,
                "end_time": 124.8840909,
                "pitch": 48,
                "velocity": 32,
                "duration": 0.1795455,
                "tempo": 120.0
            },
            {
                "start_time": 125.1295455,
                "end_time": 125.1477273,
                "pitch": 48,
                "velocity": 32,
                "duration": 0.0181818,
                "tempo": 120.0
            },
            {
                "start_time": 125.1477273,
                "end_time": 125.1636364,
                "pitch": 52,
                "velocity": 32,
                "duration": 0.0159091,
                "tempo": 120.0
            },
            {
                "start_time": 125.1636364,
                "end_time": 125.2818182,
                "pitch": 48,
                "velocity": 32,
                "duration": 0.1181818,
                "tempo": 120.0
            },
            {
                "start_time": 125.2977273,
                "end_time": 125.3136364,
                "pitch": 48,
                "velocity": 32,
                "duration": 0.0159091,
                "tempo": 120.0
            },
            {
                "start_time": 125.3136364,
                "end_time": 125.3318182,
                "pitch": 52,
                "velocity": 32,
                "duration": 0.0181818,
                "tempo": 120.0
            },
            {
                "start_time": 125.3318182,
                "end_time": 125.4318182,
                "pitch": 48,
                "velocity": 32,
                "duration": 0.1,
                "tempo": 120.0
            },
            {
                "start_time": 125.4477273,
                "end_time": 125.4659091,
                "pitch": 48,
                "velocity": 32,
                "duration": 0.0181818,
                "tempo": 120.0
            },
            {
                "start_time": 125.4659091,
                "end_time": 125.4818182,
                "pitch": 52,
                "velocity": 32,
                "duration": 0.0159091,
                "tempo": 120.0
            },
            {
                "start_time": 125.4818182,
                "end_time": 125.5818182,
                "pitch": 48,
                "velocity": 32,
                "duration": 0.1,
                "tempo": 120.0
            },
            {
                "start_time": 125.6,
                "end_time": 125.6159091,
                "pitch": 48,
                "velocity": 32,
                "duration": 0.0159091,
                "tempo": 120.0
            },
            {
                "start_time": 125.6159091,
                "end_time": 125.6318182,
                "pitch": 52,
                "velocity": 32,
                "duration": 0.0159091,
                "tempo": 120.0
            },
            {
                "start_time": 125.6318182,
                "end_time": 125.75,
                "pitch": 48,
                "velocity": 32,
                "duration": 0.1181818,
                "tempo": 120.0
            },
            {
                "start_time": 125.7659091,
                "end_time": 125.7840909,
                "pitch": 48,
                "velocity": 32,
                "duration": 0.0181818,
                "tempo": 120.0
            },
            {
                "start_time": 125.7840909,
                "end_time": 125.8,
                "pitch": 52,
                "velocity": 32,
                "duration": 0.0159091,
                "tempo": 120.0
            },
            {
                "start_time": 125.8,
                "end_time": 125.9,
                "pitch": 48,
                "velocity": 32,
                "duration": 0.1,
                "tempo": 120.0
            },
            {
                "start_time": 125.9181818,
                "end_time": 125.9340909,
                "pitch": 48,
                "velocity": 32,
                "duration": 0.0159091,
                "tempo": 120.0
            },
            {
                "start_time": 125.9340909,
                "end_time": 125.95,
                "pitch": 52,
                "velocity": 32,
                "duration": 0.0159091,
                "tempo": 120.0
            },
            {
                "start_time": 125.95,
                "end_time": 126.0522727,
                "pitch": 48,
                "velocity": 32,
                "duration": 0.1022727,
                "tempo": 120.0
            },
            {
                "start_time": 126.0681818,
                "end_time": 126.0840909,
                "pitch": 48,
                "velocity": 32,
                "duration": 0.0159091,
                "tempo": 120.0
            },
            {
                "start_time": 126.0840909,
                "end_time": 126.1022727,
                "pitch": 52,
                "velocity": 32,
                "duration": 0.0181818,
                "tempo": 120.0
            },
            {
                "start_time": 126.1022727,
                "end_time": 126.2181818,
                "pitch": 48,
                "velocity": 32,
                "duration": 0.1159091,
                "tempo": 120.0
            },
            {
                "start_time": 126.2363636,
                "end_time": 126.2522727,
                "pitch": 48,
                "velocity": 32,
                "duration": 0.0159091,
                "tempo": 120.0
            },
            {
                "start_time": 126.2522727,
                "end_time": 126.2681818,
                "pitch": 52,
                "velocity": 32,
                "duration": 0.0159091,
                "tempo": 120.0
            },
            {
                "start_time": 126.2681818,
                "end_time": 126.3704545,
                "pitch": 48,
                "velocity": 32,
                "duration": 0.1022727,
                "tempo": 120.0
            },
            {
                "start_time": 126.3863636,
                "end_time": 126.4022727,
                "pitch": 48,
                "velocity": 32,
                "duration": 0.0159091,
                "tempo": 120.0
            },
            {
                "start_time": 126.4022727,
                "end_time": 126.4204545,
                "pitch": 52,
                "velocity": 32,
                "duration": 0.0181818,
                "tempo": 120.0
            },
            {
                "start_time": 126.4204545,
                "end_time": 126.5204545,
                "pitch": 48,
                "velocity": 32,
                "duration": 0.1,
                "tempo": 120.0
            }
        ]
    }
}