{
    "mood": "happy",
    "instruments": {
        "French Horn": [
            {
                "start_time": 0.0113636,
                "end_time": 0.0772727,
                "pitch": 83,
                "velocity": 80,
                "duration": 0.0659091,
                "tempo": 120.0
            },
            {
                "start_time": 0.0886364,
                "end_time": 0.2772727,
                "pitch": 83,
                "velocity": 80,
                "duration": 0.1886364,
                "tempo": 120.0
            },
            {
                "start_time": 0.2886364,
                "end_time": 0.3772727,
                "pitch": 81,
                "velocity": 80,
                "duration": 0.0886364,
                "tempo": 120.0
            },
            {
                "start_time": 0.3886364,
                "end_time": 0.5840909,
                "pitch": 79,
                "velocity": 80,
                "duration": 0.1954545,
                "tempo": 120.0
            },
            {
                "start_time": 0.6181818,
                "end_time": 0.6681818,
                "pitch": 79,
                "velocity": 80,
                "duration": 0.05,
                "tempo": 120.0
            },
            {
                "start_time": 0.6840909,
                "end_time": 0.8159091,
                "pitch": 81,
                "velocity": 80,
                "duration": 0.1318182,
                "tempo": 120.0
            },
            {
                "start_time": 0.8318182,
                "end_time": 0.9636364,
                "pitch": 83,
                "velocity": 80,
                "duration": 0.1318182,
                "tempo": 120.0
            },
            {
                "start_time": 0.9818182,
                "end_time": 1.2613636,
                "pitch": 84,
                "velocity": 80,
                "duration": 0.2795455,
                "tempo": 120.0
            },
            {
                "start_time": 1.2772727,
                "end_time": 1.475,
                "pitch": 84,
                "velocity": 80,
                "duration": 0.1977273,
                "tempo": 120.0
            },
            {
                "start_time": 1.5090909,
                "end_time": 1.5590909,
                "pitch": 84,
                "velocity": 80,
                "duration": 0.05,
                "tempo": 120.0
            },
            {
                "start_time": 1.575,
                "end_time": 1.8636364,
                "pitch": 84,
                "velocity": 80,
                "duration": 0.2886364,
                "tempo": 120.0
            }
        ],
        "Acoustic Bass": [
            {
                "start_time": 0.0113636,
                "end_time": 0.0772727,
                "pitch": 47,
                "velocity": 51,
                "duration": 0.0659091,
                "tempo": 120.0
            },
            {
                "start_time": 0.0886364,
                "end_time": 0.2772727,
                "pitch": 47,
                "velocity": 51,
                "duration": 0.1886364,
                "tempo": 120.0
            },
            {
                "start_time": 0.2886364,
                "end_time": 0.3772727,
                "pitch": 47,
                "velocity": 51,
                "duration": 0.0886364,
                "tempo": 120.0
            },
            {
                "start_time": 0.3886364,
                "end_time": 0.6681818,
                "pitch": 43,
                "velocity": 51,
                "duration": 0.2795455,
                "tempo": 120.0
            },
            {
                "start_time": 0.6840909,
                "end_time": 0.9636364,
                "pitch": 43,
                "velocity": 51,
                "duration": 0.2795455,
                "tempo": 120.0
            },
            {
                "start_time": 0.9818182,
                "end_time": 1.2613636,
                "pitch": 48,
                "velocity": 51,
                "duration": 0.2795455,
                "tempo": 120.0
            },
            {
                "start_time": 1.2772727,
                "end_time": 1.475,
                "pitch": 48,
                "velocity": 51,
                "duration": 0.1977273,
                "tempo": 120.0
            },
            {
                "start_time": 1.5090909,
                "end_time": 1.5590909,
                "pitch": 48,
                "velocity": 51,
                "duration": 0.05,
                "tempo": 120.0
            },
            {
                "start_time": 1.575,
                "end_time": 1.8636364,
                "pitch": 48,
                "velocity": 51,
                "duration": 0.2886364,
                "tempo": 120.0
            }
        ],
        "Flute": [
            {
                "start_time": 0.0113636,
                "end_time": 0.0772727,
                "pitch": 79,
                "velocity": 51,
                "duration": 0.0659091,
                "tempo": 120.0
            },
            {
                "start_time": 0.0886364,
                "end_time": 0.2772727,
                "pitch": 79,
                "velocity": 51,
                "duration": 0.1886364,
                "tempo": 120.0
            },
            {
                "start_time": 0.2886364,
                "end_time": 0.3772727,
                "pitch": 77,
                "velocity": 51,
                "duration": 0.0886364,
                "tempo": 120.0
            },
            {
                "start_time": 0.3886364,
                "end_time": 0.5840909,
                "pitch": 76,
                "velocity": 51,
                "duration": 0.1954545,
                "tempo": 120.0
            },
            {
                "start_time": 0.6181818,
                "end_time": 0.6681818,
                "pitch": 76,
                "velocity": 51,
                "duration": 0.05,
                "tempo": 120.0
            },
            {
                "start_time": 0.6840909,
                "end_time": 0.8159091,
                "pitch": 77,
                "velocity": 51,
                "duration": 0.1318182,
                "tempo": 120.0
            },
            {
                "start_time": 0.8318182,
                "end_time": 0.9636364,
                "pitch": 79,
                "velocity": 51,
                "duration": 0.1318182,
                "tempo": 120.0
            },
            {
                "start_time": 0.9818182,
                "end_time": 1.2613636,
                "pitch": 81,
                "velocity": 51,
                "duration": 0.2795455,
                "tempo": 120.0
            },
            {
                "start_time": 1.2772727,
                "end_time": 1.475,
                "pitch": 81,
                "velocity": 51,
                "duration": 0.1977273,
                "tempo": 120.0
            },
            {
                "start_time": 1.5090909,
                "end_time": 1.5590909,
                "pitch": 81,
                "velocity": 51,
                "duration": 0.05,
                "tempo": 120.0
            },
            {
                "start_time": 1.575,
                "end_time": 1.8636364,
                "pitch": 81,
                "velocity": 51,
                "duration": 0.2886364,
                "tempo": 120.0
            }
        ]
    }
}