{
    "mood": "happy",
    "instruments": {
        "Violin": [
            {
                "start_time": 0.0659091,
                "end_time": 0.2340909,
                "pitch": 69,
                "velocity": 80,
                "duration": 0.1681818,
                "tempo": 120.0
            },
            {
                "start_time": 0.2659091,
                "end_time": 0.4340909,
                "pitch": 69,
                "velocity": 80,
                "duration": 0.1681818,
                "tempo": 120.0
            },
            {
                "start_time": 0.4681818,
                "end_time": 0.6340909,
                "pitch": 73,
                "velocity": 80,
                "duration": 0.1659091,
                "tempo": 120.0
            },
            {
                "start_time": 0.6681818,
                "end_time": 0.8363636,
                "pitch": 76,
                "velocity": 80,
                "duration": 0.1681818,
                "tempo": 120.0
            },
            {
                "start_time": 0.8704545,
                "end_time": 1.0363636,
                "pitch": 74,
                "velocity": 80,
                "duration": 0.1659091,
                "tempo": 120.0
            },
            {
                "start_time": 1.0704545,
                "end_time": 1.2363636,
                "pitch": 74,
                "velocity": 80,
                "duration": 0.1659091,
                "tempo": 120.0
            },
            {
                "start_time": 1.2704545,
                "end_time": 1.4363636,
                "pitch": 78,
                "velocity": 80,
                "duration": 0.1659091,
                "tempo": 120.0
            },
            {
                "start_time": 1.4704545,
                "end_time": 1.6363636,
                "pitch": 81,
                "velocity": 80,
                "duration": 0.1659091,
                "tempo": 120.0
            },
            {
                "start_time": 1.6704545,
                "end_time": 1.8386364,
                "pitch": 69,
                "velocity": 80,
                "duration": 0.1681818,
                "tempo": 120.0
            },
            {
                "start_time": 1.8704545,
                "end_time": 2.0386364,
                "pitch": 69,
                "velocity": 80,
                "duration": 0.1681818,
                "tempo": 120.0
            },
            {
                "start_time": 2.0727273,
                "end_time": 2.2386364,
                "pitch": 73,
                "velocity": 80,
                "duration": 0.1659091,
                "tempo": 120.0
            },
            {
                "start_time": 2.2727273,
                "end_time": 2.6386364,
                "pitch": 76,
                "velocity": 80,
                "duration": 0.3659091,
                "tempo": 120.0
            },
            {
                "start_time": 2.6727273,
                "end_time": 2.8386364,
                "pitch": 78,
                "velocity": 80,
                "duration": 0.1659091,
                "tempo": 120.0
            },
            {
                "start_time": 2.8727273,
                "end_time": 3.0386364,
                "pitch": 76,
                "velocity": 80,
                "duration": 0.1659091,
                "tempo": 120.0
            },
            {
                "start_time": 3.0727273,
                "end_time": 3.2386364,
                "pitch": 74,
                "velocity": 80,
                "duration": 0.1659091,
                "tempo": 120.0
            },
            {
                "start_time": 3.2727273,
                "end_time": 3.4409091,
                "pitch": 69,
                "velocity": 80,
                "duration": 0.1681818,
                "tempo": 120.0
            },
            {
                "start_time": 3.475,
                "end_time": 3.6409091,
                "pitch": 69,
                "velocity": 80,
                "duration": 0.1659091,
                "tempo": 120.0
            },
            {
                "start_time": 3.675,
                "end_time": 3.8409091,
                "pitch": 73,
                "velocity": 80,
                "duration": 0.1659091,
                "tempo": 120.0
            },
            {
                "start_time": 3.875,
                "end_time": 4.0409091,
                "pitch": 76,
                "velocity": 80,
                "duration": 0.1659091,
                "tempo": 120.0
            },
            {
                "start_time": 4.075,
                "end_time": 4.2409091,
                "pitch": 74,
                "velocity": 80,
                "duration": 0.1659091,
                "tempo": 120.0
            },
            {
                "start_time": 4.275,
                "end_time": 4.4409091,
                "pitch": 74,
                "velocity": 80,
                "duration": 0.1659091,
                "tempo": 120.0
            },
            {
                "start_time": 4.475,
                "end_time": 4.6409091,
                "pitch": 78,
                "velocity": 80,
                "duration": 0.1659091,
                "tempo": 120.0
            },
            {
                "start_time": 4.675,
                "end_time": 5.0431818,
                "pitch": 81,
                "velocity": 80,
                "duration": 0.3681818,
                "tempo": 120.0
            },
            {
                "start_time": 5.0772727,
                "end_time": 6.5022727,
                "pitch": 81,
                "velocity": 80,
                "duration": 1.425,
                "tempo": 120.0
            },
            {
                "start_time": 6.5022727,
                "end_time": 6.6568182,
                "pitch": 69,
                "velocity": 80,
                "duration": 0.1545455,
                "tempo": 120.0
            },
            {
                "start_time": 6.6909091,
                "end_time": 6.8590909,
                "pitch": 69,
                "velocity": 80,
                "duration": 0.1681818,
                "tempo": 120.0
            },
            {
                "start_time": 6.8909091,
                "end_time": 7.0545455,
                "pitch": 73,
                "velocity": 80,
                "duration": 0.1636364,
                "tempo": 120.0
            },
            {
                "start_time": 7.0886364,
                "end_time": 7.2522727,
                "pitch": 76,
                "velocity": 80,
                "duration": 0.1636364,
                "tempo": 120.0
            },
            {
                "start_time": 7.2863636,
                "end_time": 7.4522727,
                "pitch": 74,
                "velocity": 80,
                "duration": 0.1659091,
                "tempo": 120.0
            },
            {
                "start_time": 7.4863636,
                "end_time": 7.6522727,
                "pitch": 74,
                "velocity": 80,
                "duration": 0.1659091,
                "tempo": 120.0
            },
            {
                "start_time": 7.6863636,
                "end_time": 7.8545455,
                "pitch": 78,
                "velocity": 80,
                "duration": 0.1681818,
                "tempo": 120.0
            },
            {
                "start_time": 7.8886364,
                "end_time": 8.0545455,
                "pitch": 81,
                "velocity": 80,
                "duration": 0.1659091,
                "tempo": 120.0
            },
            {
                "start_time": 8.0886364,
                "end_time": 8.2568182,
                "pitch": 69,
                "velocity": 80,
                "duration": 0.1681818,
                "tempo": 120.0
            },
            {
                "start_time": 8.2909091,
                "end_time": 8.4590909,
                "pitch": 69,
                "velocity": 80,
                "duration": 0.1681818,
                "tempo": 120.0
            },
            {
                "start_time": 8.4909091,
                "end_time": 8.6590909,
                "pitch": 73,
                "velocity": 80,
                "duration": 0.1681818,
                "tempo": 120.0
            },
            {
                "start_time": 8.6931818,
                "end_time": 9.0613636,
                "pitch": 76,
                "velocity": 80,
                "duration": 0.3681818,
                "tempo": 120.0
            },
            {
                "start_time": 9.0931818,
                "end_time": 9.2613636,
                "pitch": 78,
                "velocity": 80,
                "duration": 0.1681818,
                "tempo": 120.0
            },
            {
                "start_time": 9.2954545,
                "end_time": 9.4613636,
                "pitch": 76,
                "velocity": 80,
                "duration": 0.1659091,
                "tempo": 120.0
            },
            {
                "start_time": 9.4954545,
                "end_time": 9.6636364,
                "pitch": 74,
                "velocity": 80,
                "duration": 0.1681818,
                "tempo": 120.0
            },
            {
                "start_time": 9.6977273,
                "end_time": 9.8659091,
                "pitch": 69,
                "velocity": 80,
                "duration": 0.1681818,
                "tempo": 120.0
            },
            {
                "start_time": 9.8977273,
                "end_time": 10.0659091,
                "pitch": 69,
                "velocity": 80,
                "duration": 0.1681818,
                "tempo": 120.0
            },
            {
                "start_time": 10.1,
                "end_time": 10.2681818,
                "pitch": 73,
                "velocity": 80,
                "duration": 0.1681818,
                "tempo": 120.0
            },
            {
                "start_time": 10.3,
                "end_time": 10.4681818,
                "pitch": 76,
                "velocity": 80,
                "duration": 0.1681818,
                "tempo": 120.0
            },
            {
                "start_time": 10.5022727,
                "end_time": 10.6704545,
                "pitch": 74,
                "velocity": 80,
                "duration": 0.1681818,
                "tempo": 120.0
            },
            {
                "start_time": 10.7045455,
                "end_time": 10.8704545,
                "pitch": 74,
                "velocity": 80,
                "duration": 0.1659091,
                "tempo": 120.0
            },
            {
                "start_time": 10.9045455,
                "end_time": 11.0704545,
                "pitch": 78,
                "velocity": 80,
                "duration": 0.1659091,
                "tempo": 120.0
            },
            {
                "start_time": 11.1045455,
                "end_time": 11.4727273,
                "pitch": 81,
                "velocity": 80,
                "duration": 0.3681818,
                "tempo": 120.0
            }
        ],
        "Acoustic Bass": [
            {
                "start_time": 0.2,
                "end_time": 0.3659091,
                "pitch": 45,
                "velocity": 51,
                "duration": 0.1659091,
                "tempo": 120.0
            },
            {
                "start_time": 0.8022727,
                "end_time": 0.9704545,
                "pitch": 38,
                "velocity": 51,
                "duration": 0.1681818,
                "tempo": 120.0
            },
            {
                "start_time": 1.0022727,
                "end_time": 1.1704545,
                "pitch": 38,
                "velocity": 51,
                "duration": 0.1681818,
                "tempo": 120.0
            },
            {
                "start_time": 1.6022727,
                "end_time": 1.7704545,
                "pitch": 45,
                "velocity": 51,
                "duration": 0.1681818,
                "tempo": 120.0
            },
            {
                "start_time": 1.8045455,
                "end_time": 1.9727273,
                "pitch": 45,
                "velocity": 51,
                "duration": 0.1681818,
                "tempo": 120.0
            },
            {
                "start_time": 2.4045455,
                "end_time": 2.5727273,
                "pitch": 50,
                "velocity": 51,
                "duration": 0.1681818,
                "tempo": 120.0
            },
            {
                "start_time": 2.6045455,
                "end_time": 2.7727273,
                "pitch": 50,
                "velocity": 51,
                "duration": 0.1681818,
                "tempo": 120.0
            },
            {
                "start_time": 3.2045455,
                "end_time": 3.3727273,
                "pitch": 45,
                "velocity": 51,
                "duration": 0.1681818,
                "tempo": 120.0
            },
            {
                "start_time": 3.4068182,
                "end_time": 3.575,
                "pitch": 45,
                "velocity": 51,
                "duration": 0.1681818,
                "tempo": 120.0
            },
            {
                "start_time": 4.0090909,
                "end_time": 4.175,
                "pitch": 38,
                "velocity": 51,
                "duration": 0.1659091,
                "tempo": 120.0
            },
            {
                "start_time": 4.2090909,
                "end_time": 4.375,
                "pitch": 38,
                "velocity": 51,
                "duration": 0.1659091,
                "tempo": 120.0
            },
            {
                "start_time": 5.0090909,
                "end_time": 5.1772727,
                "pitch": 41,
                "velocity": 51,
                "duration": 0.1681818,
                "tempo": 120.0
            },
            {
                "start_time": 5.2113636,
                "end_time": 5.3772727,
                "pitch": 41,
                "velocity": 51,
                "duration": 0.1659091,
                "tempo": 120.0
            },
            {
                "start_time": 5.4113636,
                "end_time": 5.7795455,
                "pitch": 43,
                "velocity": 51,
                "duration": 0.3681818,
                "tempo": 120.0
            },
            {
                "start_time": 5.8113636,
                "end_time": 5.9795455,
                "pitch": 43,
                "velocity": 51,
                "duration": 0.1681818,
                "tempo": 120.0
            },
            {
                "start_time": 6.0136364,
                "end_time": 6.1818182,
                "pitch": 45,
                "velocity": 51,
                "duration": 0.1681818,
                "tempo": 120.0
            },
            {
                "start_time": 6.2159091,
                "end_time": 6.3818182,
                "pitch": 45,
                "velocity": 51,
                "duration": 0.1659091,
                "tempo": 120.0
            },
            {
                "start_time": 6.4159091,
                "end_time": 6.5886364,
                "pitch": 45,
                "velocity": 51,
                "duration": 0.1727273,
                "tempo": 120.0
            },
            {
                "start_time": 6.6227273,
                "end_time": 6.7931818,
                "pitch": 45,
                "velocity": 51,
                "duration": 0.1704545,
                "tempo": 120.0
            },
            {
                "start_time": 7.2181818,
                "end_time": 7.3863636,
                "pitch": 38,
                "velocity": 51,
                "duration": 0.1681818,
                "tempo": 120.0
            },
            {
                "start_time": 7.4181818,
                "end_time": 7.5863636,
                "pitch": 38,
                "velocity": 51,
                "duration": 0.1681818,
                "tempo": 120.0
            },
            {
                "start_time": 8.0227273,
                "end_time": 8.1886364,
                "pitch": 45,
                "velocity": 51,
                "duration": 0.1659091,
                "tempo": 120.0
            },
            {
                "start_time": 8.2227273,
                "end_time": 8.3909091,
                "pitch": 45,
                "velocity": 51,
                "duration": 0.1681818,
                "tempo": 120.0
            },
            {
                "start_time": 8.8272727,
                "end_time": 8.9931818,
                "pitch": 50,
                "velocity": 51,
                "duration": 0.1659091,
                "tempo": 120.0
            },
            {
                "start_time": 9.0272727,
                "end_time": 9.1931818,
                "pitch": 50,
                "velocity": 51,
                "duration": 0.1659091,
                "tempo": 120.0
            },
            {
                "start_time": 9.6295455,
                "end_time": 9.7977273,
                "pitch": 45,
                "velocity": 51,
                "duration": 0.1681818,
                "tempo": 120.0
            },
            {
                "start_time": 9.8318182,
                "end_time": 10.0,
                "pitch": 45,
                "velocity": 51,
                "duration": 0.1681818,
                "tempo": 120.0
            },
            {
                "start_time": 10.4363636,
                "end_time": 10.6022727,
                "pitch": 38,
                "velocity": 51,
                "duration": 0.1659091,
                "tempo": 120.0
            },
            {
                "start_time": 10.6363636,
                "end_time": 10.8045455,
                "pitch": 38,
                "velocity": 51,
                "duration": 0.1681818,
                "tempo": 120.0
            },
            {
                "start_time": 11.4386364,
                "end_time": 11.6068182,
                "pitch": 41,
                "velocity": 51,
                "duration": 0.1681818,
                "tempo": 120.0
            },
            {
                "start_time": 11.6409091,
                "end_time": 11.8090909,
                "pitch": 41,
                "velocity": 51,
                "duration": 0.1681818,
                "tempo": 120.0
            },
            {
                "start_time": 11.8409091,
                "end_time": 12.2113636,
                "pitch": 43,
                "velocity": 51,
                "duration": 0.3704545,
                "tempo": 120.0
            },
            {
                "start_time": 12.2454545,
                "end_time": 12.4113636,
                "pitch": 43,
                "velocity": 51,
                "duration": 0.1659091,
                "tempo": 120.0
            },
            {
                "start_time": 12.4454545,
                "end_time": 12.6136364,
                "pitch": 45,
                "velocity": 51,
                "duration": 0.1681818,
                "tempo": 120.0
            },
            {
                "start_time": 12.6477273,
                "end_time": 12.8159091,
                "pitch": 45,
                "velocity": 51,
                "duration": 0.1681818,
                "tempo": 120.0
            }
        ],
        "Trumpet": [
            {
                "start_time": 0.2,
                "end_time": 0.3659091,
                "pitch": 69,
                "velocity": 51,
                "duration": 0.1659091,
                "tempo": 120.0
            },
            {
                "start_time": 0.4,
                "end_time": 0.5681818,
                "pitch": 73,
                "velocity": 51,
                "duration": 0.1681818,
                "tempo": 120.0
            },
            {
                "start_time": 0.6022727,
                "end_time": 0.7681818,
                "pitch": 76,
                "velocity": 51,
                "duration": 0.1659091,
                "tempo": 120.0
            },
            {
                "start_time": 0.8022727,
                "end_time": 0.9704545,
                "pitch": 74,
                "velocity": 51,
                "duration": 0.1681818,
                "tempo": 120.0
            },
            {
                "start_time": 1.0022727,
                "end_time": 1.1704545,
                "pitch": 74,
                "velocity": 51,
                "duration": 0.1681818,
                "tempo": 120.0
            },
            {
                "start_time": 1.2022727,
                "end_time": 1.3704545,
                "pitch": 78,
                "velocity": 51,
                "duration": 0.1681818,
                "tempo": 120.0
            },
            {
                "start_time": 1.4022727,
                "end_time": 1.5704545,
                "pitch": 81,
                "velocity": 51,
                "duration": 0.1681818,
                "tempo": 120.0
            },
            {
                "start_time": 1.6022727,
                "end_time": 1.7704545,
                "pitch": 69,
                "velocity": 51,
                "duration": 0.1681818,
                "tempo": 120.0
            },
            {
                "start_time": 1.8045455,
                "end_time": 1.9727273,
                "pitch": 69,
                "velocity": 51,
                "duration": 0.1681818,
                "tempo": 120.0
            },
            {
                "start_time": 2.0045455,
                "end_time": 2.1727273,
                "pitch": 73,
                "velocity": 51,
                "duration": 0.1681818,
                "tempo": 120.0
            },
            {
                "start_time": 2.2045455,
                "end_time": 2.5727273,
                "pitch": 76,
                "velocity": 51,
                "duration": 0.3681818,
                "tempo": 120.0
            },
            {
                "start_time": 2.6045455,
                "end_time": 2.7727273,
                "pitch": 78,
                "velocity": 51,
                "duration": 0.1681818,
                "tempo": 120.0
            },
            {
                "start_time": 2.8045455,
                "end_time": 2.9727273,
                "pitch": 76,
                "velocity": 51,
                "duration": 0.1681818,
                "tempo": 120.0
            },
            {
                "start_time": 3.0045455,
                "end_time": 3.1727273,
                "pitch": 74,
                "velocity": 51,
                "duration": 0.1681818,
                "tempo": 120.0
            },
            {
                "start_time": 3.2045455,
                "end_time": 3.3727273,
                "pitch": 69,
                "velocity": 51,
                "duration": 0.1681818,
                "tempo": 120.0
            },
            {
                "start_time": 3.4068182,
                "end_time": 3.575,
                "pitch": 69,
                "velocity": 51,
                "duration": 0.1681818,
                "tempo": 120.0
            },
            {
                "start_time": 3.6090909,
                "end_time": 3.775,
                "pitch": 73,
                "velocity": 51,
                "duration": 0.1659091,
                "tempo": 120.0
            },
            {
                "start_time": 3.8090909,
                "end_time": 3.975,
                "pitch": 76,
                "velocity": 51,
                "duration": 0.1659091,
                "tempo": 120.0
            },
            {
                "start_time": 4.0090909,
                "end_time": 4.175,
                "pitch": 74,
                "velocity": 51,
                "duration": 0.1659091,
                "tempo": 120.0
            },
            {
                "start_time": 4.2090909,
                "end_time": 4.375,
                "pitch": 74,
                "velocity": 51,
                "duration": 0.1659091,
                "tempo": 120.0
            },
            {
                "start_time": 4.4090909,
                "end_time": 4.575,
                "pitch": 78,
                "velocity": 51,
                "duration": 0.1659091,
                "tempo": 120.0
            },
            {
                "start_time": 4.6090909,
                "end_time": 4.975,
                "pitch": 81,
                "velocity": 51,
                "duration": 0.3659091,
                "tempo": 120.0
            },
            {
                "start_time": 5.0090909,
                "end_time": 5.1772727,
                "pitch": 84,
                "velocity": 51,
                "duration": 0.1681818,
                "tempo": 120.0
            },
            {
                "start_time": 5.2113636,
                "end_time": 5.3772727,
                "pitch": 86,
                "velocity": 51,
                "duration": 0.1659091,
                "tempo": 120.0
            },
            {
                "start_time": 5.4113636,
                "end_time": 5.7795455,
                "pitch": 88,
                "velocity": 51,
                "duration": 0.3681818,
                "tempo": 120.0
            },
            {
                "start_time": 5.8113636,
                "end_time": 5.9795455,
                "pitch": 86,
                "velocity": 51,
                "duration": 0.1681818,
                "tempo": 120.0
            },
            {
                "start_time": 6.0136364,
                "end_time": 6.1818182,
                "pitch": 84,
                "velocity": 51,
                "duration": 0.1681818,
                "tempo": 120.0
            },
            {
                "start_time": 6.2159091,
                "end_time": 6.3818182,
                "pitch": 83,
                "velocity": 51,
                "duration": 0.1659091,
                "tempo": 120.0
            },
            {
                "start_time": 6.4159091,
                "end_time": 6.5886364,
                "pitch": 69,
                "velocity": 51,
                "duration": 0.1727273,
                "tempo": 120.0
            },
            {
                "start_time": 6.6227273,
                "end_time": 6.7931818,
                "pitch": 69,
                "velocity": 51,
                "duration": 0.1704545,
                "tempo": 120.0
            },
            {
                "start_time": 6.8272727,
                "end_time": 6.9909091,
                "pitch": 73,
                "velocity": 51,
                "duration": 0.1636364,
                "tempo": 120.0
            },
            {
                "start_time": 7.0227273,
                "end_time": 7.1863636,
                "pitch": 76,
                "velocity": 51,
                "duration": 0.1636364,
                "tempo": 120.0
            },
            {
                "start_time": 7.2181818,
                "end_time": 7.3863636,
                "pitch": 74,
                "velocity": 51,
                "duration": 0.1681818,
                "tempo": 120.0
            },
            {
                "start_time": 7.4181818,
                "end_time": 7.5863636,
                "pitch": 74,
                "velocity": 51,
                "duration": 0.1681818,
                "tempo": 120.0
            },
            {
                "start_time": 7.6181818,
                "end_time": 7.7863636,
                "pitch": 78,
                "velocity": 51,
                "duration": 0.1681818,
                "tempo": 120.0
            },
            {
                "start_time": 7.8204545,
                "end_time": 7.9886364,
                "pitch": 81,
                "velocity": 51,
                "duration": 0.1681818,
                "tempo": 120.0
            },
            {
                "start_time": 8.0227273,
                "end_time": 8.1886364,
                "pitch": 69,
                "velocity": 51,
                "duration": 0.1659091,
                "tempo": 120.0
            },
            {
                "start_time": 8.2227273,
                "end_time": 8.3909091,
                "pitch": 69,
                "velocity": 51,
                "duration": 0.1681818,
                "tempo": 120.0
            },
            {
                "start_time": 8.425,
                "end_time": 8.5931818,
                "pitch": 73,
                "velocity": 51,
                "duration": 0.1681818,
                "tempo": 120.0
            },
            {
                "start_time": 8.625,
                "end_time": 8.9931818,
                "pitch": 76,
                "velocity": 51,
                "duration": 0.3681818,
                "tempo": 120.0
            },
            {
                "start_time": 9.0272727,
                "end_time": 9.1931818,
                "pitch": 78,
                "velocity": 51,
                "duration": 0.1659091,
                "tempo": 120.0
            },
            {
                "start_time": 9.2272727,
                "end_time": 9.3954545,
                "pitch": 76,
                "velocity": 51,
                "duration": 0.1681818,
                "tempo": 120.0
            },
            {
                "start_time": 9.4295455,
                "end_time": 9.5954545,
                "pitch": 74,
                "velocity": 51,
                "duration": 0.1659091,
                "tempo": 120.0
            },
            {
                "start_time": 9.6295455,
                "end_time": 9.7977273,
                "pitch": 69,
                "velocity": 51,
                "duration": 0.1681818,
                "tempo": 120.0
            },
            {
                "start_time": 9.8318182,
                "end_time": 10.0,
                "pitch": 69,
                "velocity": 51,
                "duration": 0.1681818,
                "tempo": 120.0
            },
            {
                "start_time": 10.0318182,
                "end_time": 10.2,
                "pitch": 73,
                "velocity": 51,
                "duration": 0.1681818,
                "tempo": 120.0
            },
            {
                "start_time": 10.2340909,
                "end_time": 10.4022727,
                "pitch": 76,
                "velocity": 51,
                "duration": 0.1681818,
                "tempo": 120.0
            },
            {
                "start_time": 10.4363636,
                "end_time": 10.6022727,
                "pitch": 74,
                "velocity": 51,
                "duration": 0.1659091,
                "tempo": 120.0
            },
            {
                "start_time": 10.6363636,
                "end_time": 10.8045455,
                "pitch": 74,
                "velocity": 51,
                "duration": 0.1681818,
                "tempo": 120.0
            },
            {
                "start_time": 10.8386364,
                "end_time": 11.0045455,
                "pitch": 78,
                "velocity": 51,
                "duration": 0.1659091,
                "tempo": 120.0
            },
            {
                "start_time": 11.0386364,
                "end_time": 11.4068182,
                "pitch": 81,
                "velocity": 51,
                "duration": 0.3681818,
                "tempo": 120.0
            },
            {
                "start_time": 11.4386364,
                "end_time": 11.6068182,
                "pitch": 86,
                "velocity": 51,
                "duration": 0.1681818,
                "tempo": 120.0
            },
            {
                "start_time": 11.6409091,
                "end_time": 11.8090909,
                "pitch": 84,
                "velocity": 51,
                "duration": 0.1681818,
                "tempo": 120.0
            },
            {
                "start_time": 11.8409091,
                "end_time": 12.0090909,
                "pitch": 88,
                "velocity": 51,
                "duration": 0.1681818,
                "tempo": 120.0
            },
            {
                "start_time": 12.0431818,
                "end_time": 12.2113636,
                "pitch": 86,
                "velocity": 51,
                "duration": 0.1681818,
                "tempo": 120.0
            },
            {
                "start_time": 12.2454545,
                "end_time": 12.4113636,
                "pitch": 84,
                "velocity": 51,
                "duration": 0.1659091,
                "tempo": 120.0
            },
            {
                "start_time": 12.4454545,
                "end_time": 12.6136364,
                "pitch": 84,
                "velocity": 51,
                "duration": 0.1681818,
                "tempo": 120.0
            },
            {
                "start_time": 12.6477273,
                "end_time": 12.8159091,
                "pitch": 84,
                "velocity": 51,
                "duration": 0.1681818,
                "tempo": 120.0
            }
        ],
        "Vibraphone": [
            {
                "start_time": 5.2772727,
                "end_time": 5.4431818,
                "pitch": 83,
                "velocity": 80,
                "duration": 0.1659091,
                "tempo": 120.0
            },
            {
                "start_time": 5.4772727,
                "end_time": 5.8454545,
                "pitch": 84,
                "velocity": 80,
                "duration": 0.3681818,
                "tempo": 120.0
            },
            {
                "start_time": 5.8795455,
                "end_time": 6.0477273,
                "pitch": 83,
                "velocity": 80,
                "duration": 0.1681818,
                "tempo": 120.0
            },
            {
                "start_time": 6.0795455,
                "end_time": 6.2477273,
                "pitch": 81,
                "velocity": 80,
                "duration": 0.1681818,
                "tempo": 120.0
            },
            {
                "start_time": 6.2818182,
                "end_time": 6.45,
                "pitch": 79,
                "velocity": 80,
                "duration": 0.1681818,
                "tempo": 120.0
            },
            {
                "start_time": 6.4840909,
                "end_time": 11.5227273,
                "pitch": 69,
                "velocity": 80,
                "duration": 5.0386364,
                "tempo": 120.0
            },
            {
                "start_time": 11.5227273,
                "end_time": 11.675,
                "pitch": 84,
                "velocity": 80,
                "duration": 0.1522727,
                "tempo": 120.0
            },
            {
                "start_time": 11.7068182,
                "end_time": 11.9090909,
                "pitch": 83,
                "velocity": 80,
                "duration": 0.2022727,
                "tempo": 120.0
            },
            {
                "start_time": 11.9431818,
                "end_time": 12.0772727,
                "pitch": 81,
                "velocity": 80,
                "duration": 0.1340909,
                "tempo": 120.0
            },
            {
                "start_time": 12.1113636,
                "end_time": 12.2772727,
                "pitch": 84,
                "velocity": 80,
                "duration": 0.1659091,
                "tempo": 120.0
            },
            {
                "start_time": 12.3113636,
                "end_time": 12.5136364,
                "pitch": 83,
                "velocity": 80,
                "duration": 0.2022727,
                "tempo": 120.0
            },
            {
                "start_time": 12.5477273,
                "end_time": 12.7136364,
                "pitch": 81,
                "velocity": 80,
                "duration": 0.1659091,
                "tempo": 120.0
            },
            {
                "start_time": 12.7477273,
                "end_time": 12.85,
                "pitch": 81,
                "velocity": 80,
                "duration": 0.1022727,
                "tempo": 120.0
            }
        ]
    }
}