{
    "mood": "happy",
    "instruments": {
        "Acoustic Grand Piano": [
            {
                "start_time": 19.3045455,
                "end_time": 19.5886364,
                "pitch": 92,
                "velocity": 64,
                "duration": 0.2840909,
                "tempo": 120.0
            },
            {
                "start_time": 19.6068182,
                "end_time": 19.7409091,
                "pitch": 91,
                "velocity": 64,
                "duration": 0.1340909,
                "tempo": 120.0
            },
            {
                "start_time": 19.7568182,
                "end_time": 20.0431818,
                "pitch": 92,
                "velocity": 64,
                "duration": 0.2863636,
                "tempo": 120.0
            },
            {
                "start_time": 20.0613636,
                "end_time": 20.1931818,
                "pitch": 91,
                "velocity": 64,
                "duration": 0.1318182,
                "tempo": 120.0
            },
            {
                "start_time": 20.2113636,
                "end_time": 20.4931818,
                "pitch": 92,
                "velocity": 64,
                "duration": 0.2818182,
                "tempo": 120.0
            },
            {
                "start_time": 20.5113636,
                "end_time": 20.6431818,
                "pitch": 92,
                "velocity": 64,
                "duration": 0.1318182,
                "tempo": 120.0
            },
            {
                "start_time": 20.6613636,
                "end_time": 20.9477273,
                "pitch": 92,
                "velocity": 64,
                "duration": 0.2863636,
                "tempo": 120.0
            },
            {
                "start_time": 20.9636364,
                "end_time": 21.0977273,
                "pitch": 92,
                "velocity": 64,
                "duration": 0.1340909,
                "tempo": 120.0
            },
            {
                "start_time": 21.1159091,
                "end_time": 21.4022727,
                "pitch": 91,
                "velocity": 64,
                "duration": 0.2863636,
                "tempo": 120.0
            },
            {
                "start_time": 21.4181818,
                "end_time": 21.8568182,
                "pitch": 89,
                "velocity": 64,
                "duration": 0.4386364,
                "tempo": 120.0
            },
            {
                "start_time": 21.8727273,
                "end_time": 22.1568182,
                "pitch": 87,
                "velocity": 64,
                "duration": 0.2840909,
                "tempo": 120.0
            },
            {
                "start_time": 22.1727273,
                "end_time": 22.4568182,
                "pitch": 87,
                "velocity": 64,
                "duration": 0.2840909,
                "tempo": 120.0
            },
            {
                "start_time": 22.4727273,
                "end_time": 22.6068182,
                "pitch": 86,
                "velocity": 64,
                "duration": 0.1340909,
                "tempo": 120.0
            },
            {
                "start_time": 22.625,
                "end_time": 23.5113636,
                "pitch": 87,
                "velocity": 64,
                "duration": 0.8863636,
                "tempo": 120.0
            },
            {
                "start_time": 23.5295455,
                "end_time": 23.6613636,
                "pitch": 87,
                "velocity": 64,
                "duration": 0.1318182,
                "tempo": 120.0
            },
            {
                "start_time": 23.6795455,
                "end_time": 23.8136364,
                "pitch": 86,
                "velocity": 64,
                "duration": 0.1340909,
                "tempo": 120.0
            },
            {
                "start_time": 23.8295455,
                "end_time": 23.9659091,
                "pitch": 84,
                "velocity": 64,
                "duration": 0.1363636,
                "tempo": 120.0
            },
            {
                "start_time": 23.9818182,
                "end_time": 24.4204545,
                "pitch": 86,
                "velocity": 64,
                "duration": 0.4386364,
                "tempo": 120.0
            },
            {
                "start_time": 24.4363636,
                "end_time": 24.5704545,
                "pitch": 84,
                "velocity": 64,
                "duration": 0.1340909,
                "tempo": 120.0
            },
            {
                "start_time": 24.5886364,
                "end_time": 25.175,
                "pitch": 84,
                "velocity": 64,
                "duration": 0.5863636,
                "tempo": 120.0
            },
            {
                "start_time": 25.1909091,
                "end_time": 25.325,
                "pitch": 89,
                "velocity": 64,
                "duration": 0.1340909,
                "tempo": 120.0
            },
            {
                "start_time": 25.3409091,
                "end_time": 25.625,
                "pitch": 87,
                "velocity": 64,
                "duration": 0.2840909,
                "tempo": 120.0
            },
            {
                "start_time": 25.6431818,
                "end_time": 26.2795455,
                "pitch": 89,
                "velocity": 64,
                "duration": 0.6363636,
                "tempo": 120.0
            },
            {
                "start_time": 26.6977273,
                "end_time": 26.9772727,
                "pitch": 91,
                "velocity": 64,
                "duration": 0.2795455,
                "tempo": 120.0
            },
            {
                "start_time": 26.9931818,
                "end_time": 27.275,
                "pitch": 91,
                "velocity": 64,
                "duration": 0.2818182,
                "tempo": 120.0
            },
            {
                "start_time": 27.2909091,
                "end_time": 27.5795455,
                "pitch": 91,
                "velocity": 64,
                "duration": 0.2886364,
                "tempo": 120.0
            },
            {
                "start_time": 27.5977273,
                "end_time": 28.0363636,
                "pitch": 95,
                "velocity": 64,
                "duration": 0.4386364,
                "tempo": 120.0
            },
            {
                "start_time": 28.0522727,
                "end_time": 28.7886364,
                "pitch": 91,
                "velocity": 64,
                "duration": 0.7363636,
                "tempo": 120.0
            },
            {
                "start_time": 28.8068182,
                "end_time": 28.9409091,
                "pitch": 91,
                "velocity": 64,
                "duration": 0.1340909,
                "tempo": 120.0
            },
            {
                "start_time": 28.9568182,
                "end_time": 29.2431818,
                "pitch": 92,
                "velocity": 64,
                "duration": 0.2863636,
                "tempo": 120.0
            },
            {
                "start_time": 29.2590909,
                "end_time": 29.3931818,
                "pitch": 91,
                "velocity": 64,
                "duration": 0.1340909,
                "tempo": 120.0
            },
            {
                "start_time": 29.4090909,
                "end_time": 29.6931818,
                "pitch": 92,
                "velocity": 64,
                "duration": 0.2840909,
                "tempo": 120.0
            },
            {
                "start_time": 29.7090909,
                "end_time": 29.8431818,
                "pitch": 91,
                "velocity": 64,
                "duration": 0.1340909,
                "tempo": 120.0
            },
            {
                "start_time": 29.8613636,
                "end_time": 30.1477273,
                "pitch": 92,
                "velocity": 64,
                "duration": 0.2863636,
                "tempo": 120.0
            },
            {
                "start_time": 30.1636364,
                "end_time": 30.2977273,
                "pitch": 92,
                "velocity": 64,
                "duration": 0.1340909,
                "tempo": 120.0
            },
            {
                "start_time": 30.3159091,
                "end_time": 30.6022727,
                "pitch": 92,
                "velocity": 64,
                "duration": 0.2863636,
                "tempo": 120.0
            },
            {
                "start_time": 30.6181818,
                "end_time": 30.7522727,
                "pitch": 92,
                "velocity": 64,
                "duration": 0.1340909,
                "tempo": 120.0
            },
            {
                "start_time": 30.7704545,
                "end_time": 31.0545455,
                "pitch": 91,
                "velocity": 64,
                "duration": 0.2840909,
                "tempo": 120.0
            },
            {
                "start_time": 31.0704545,
                "end_time": 31.5045455,
                "pitch": 89,
                "velocity": 64,
                "duration": 0.4340909,
                "tempo": 120.0
            },
            {
                "start_time": 31.5204545,
                "end_time": 31.8068182,
                "pitch": 87,
                "velocity": 64,
                "duration": 0.2863636,
                "tempo": 120.0
            },
            {
                "start_time": 31.825,
                "end_time": 32.1113636,
                "pitch": 87,
                "velocity": 64,
                "duration": 0.2863636,
                "tempo": 120.0
            },
            {
                "start_time": 32.1272727,
                "end_time": 32.2613636,
                "pitch": 86,
                "velocity": 64,
                "duration": 0.1340909,
                "tempo": 120.0
            },
            {
                "start_time": 32.2772727,
                "end_time": 33.1659091,
                "pitch": 87,
                "velocity": 64,
                "duration": 0.8886364,
                "tempo": 120.0
            },
            {
                "start_time": 33.1818182,
                "end_time": 33.3159091,
                "pitch": 87,
                "velocity": 64,
                "duration": 0.1340909,
                "tempo": 120.0
            },
            {
                "start_time": 33.3340909,
                "end_time": 33.4681818,
                "pitch": 86,
                "velocity": 64,
                "duration": 0.1340909,
                "tempo": 120.0
            },
            {
                "start_time": 33.4840909,
                "end_time": 33.6204545,
                "pitch": 84,
                "velocity": 64,
                "duration": 0.1363636,
                "tempo": 120.0
            },
            {
                "start_time": 33.6363636,
                "end_time": 34.075,
                "pitch": 86,
                "velocity": 64,
                "duration": 0.4386364,
                "tempo": 120.0
            },
            {
                "start_time": 34.0909091,
                "end_time": 34.225,
                "pitch": 84,
                "velocity": 64,
                "duration": 0.1340909,
                "tempo": 120.0
            },
            {
                "start_time": 34.2431818,
                "end_time": 34.8295455,
                "pitch": 84,
                "velocity": 64,
                "duration": 0.5863636,
                "tempo": 120.0
            },
            {
                "start_time": 34.8454545,
                "end_time": 34.9795455,
                "pitch": 89,
                "velocity": 64,
                "duration": 0.1340909,
                "tempo": 120.0
            },
            {
                "start_time": 34.9954545,
                "end_time": 35.2795455,
                "pitch": 87,
                "velocity": 64,
                "duration": 0.2840909,
                "tempo": 120.0
            },
            {
                "start_time": 35.2977273,
                "end_time": 35.9363636,
                "pitch": 89,
                "velocity": 64,
                "duration": 0.6386364,
                "tempo": 120.0
            },
            {
                "start_time": 36.3568182,
                "end_time": 36.6386364,
                "pitch": 91,
                "velocity": 64,
                "duration": 0.2818182,
                "tempo": 120.0
            },
            {
                "start_time": 36.6545455,
                "end_time": 36.9340909,
                "pitch": 91,
                "velocity": 64,
                "duration": 0.2795455,
                "tempo": 120.0
            },
            {
                "start_time": 36.9522727,
                "end_time": 37.2409091,
                "pitch": 91,
                "velocity": 64,
                "duration": 0.2886364,
                "tempo": 120.0
            },
            {
                "start_time": 37.2568182,
                "end_time": 37.5477273,
                "pitch": 95,
                "velocity": 64,
                "duration": 0.2909091,
                "tempo": 120.0
            },
            {
                "start_time": 37.5636364,
                "end_time": 37.6977273,
                "pitch": 95,
                "velocity": 64,
                "duration": 0.1340909,
                "tempo": 120.0
            },
            {
                "start_time": 37.7136364,
                "end_time": 38.0636364,
                "pitch": 95,
                "velocity": 64,
                "duration": 0.35,
                "tempo": 120.0
            },
            {
                "start_time": 38.0977273,
                "end_time": 38.1477273,
                "pitch": 95,
                "velocity": 64,
                "duration": 0.05,
                "tempo": 120.0
            },
            {
                "start_time": 38.1636364,
                "end_time": 38.3613636,
                "pitch": 95,
                "velocity": 64,
                "duration": 0.1977273,
                "tempo": 120.0
            }
        ],
        "Church Organ": [
            {
                "start_time": 0.1840909,
                "end_time": 0.7704545,
                "pitch": 84,
                "velocity": 64,
                "duration": 0.5863636,
                "tempo": 120.0
            },
            {
                "start_time": 0.7886364,
                "end_time": 1.0704545,
                "pitch": 86,
                "velocity": 64,
                "duration": 0.2818182,
                "tempo": 120.0
            },
            {
                "start_time": 1.0886364,
                "end_time": 1.2204545,
                "pitch": 87,
                "velocity": 64,
                "duration": 0.1318182,
                "tempo": 120.0
            },
            {
                "start_time": 1.2386364,
                "end_time": 1.2886364,
                "pitch": 87,
                "velocity": 64,
                "duration": 0.05,
                "tempo": 120.0
            },
            {
                "start_time": 1.6886364,
                "end_time": 1.9704545,
                "pitch": 87,
                "velocity": 64,
                "duration": 0.2818182,
                "tempo": 120.0
            },
            {
                "start_time": 1.9886364,
                "end_time": 2.1227273,
                "pitch": 86,
                "velocity": 64,
                "duration": 0.1340909,
                "tempo": 120.0
            },
            {
                "start_time": 2.1386364,
                "end_time": 2.5772727,
                "pitch": 84,
                "velocity": 64,
                "duration": 0.4386364,
                "tempo": 120.0
            },
            {
                "start_time": 2.5931818,
                "end_time": 2.8795455,
                "pitch": 82,
                "velocity": 64,
                "duration": 0.2863636,
                "tempo": 120.0
            },
            {
                "start_time": 2.8977273,
                "end_time": 3.1840909,
                "pitch": 82,
                "velocity": 64,
                "duration": 0.2863636,
                "tempo": 120.0
            },
            {
                "start_time": 3.2,
                "end_time": 3.3340909,
                "pitch": 81,
                "velocity": 64,
                "duration": 0.1340909,
                "tempo": 120.0
            },
            {
                "start_time": 3.35,
                "end_time": 4.3886364,
                "pitch": 82,
                "velocity": 64,
                "duration": 1.0386364,
                "tempo": 120.0
            },
            {
                "start_time": 4.4068182,
                "end_time": 4.5409091,
                "pitch": 81,
                "velocity": 64,
                "duration": 0.1340909,
                "tempo": 120.0
            },
            {
                "start_time": 4.5568182,
                "end_time": 4.9954545,
                "pitch": 82,
                "velocity": 64,
                "duration": 0.4386364,
                "tempo": 120.0
            },
            {
                "start_time": 5.0113636,
                "end_time": 5.5954545,
                "pitch": 84,
                "velocity": 64,
                "duration": 0.5840909,
                "tempo": 120.0
            },
            {
                "start_time": 5.6113636,
                "end_time": 5.8954545,
                "pitch": 86,
                "velocity": 64,
                "duration": 0.2840909,
                "tempo": 120.0
            },
            {
                "start_time": 5.9113636,
                "end_time": 6.0454545,
                "pitch": 87,
                "velocity": 64,
                "duration": 0.1340909,
                "tempo": 120.0
            },
            {
                "start_time": 6.0613636,
                "end_time": 6.1454545,
                "pitch": 87,
                "velocity": 64,
                "duration": 0.0840909,
                "tempo": 120.0
            },
            {
                "start_time": 6.5159091,
                "end_time": 6.8022727,
                "pitch": 87,
                "velocity": 64,
                "duration": 0.2863636,
                "tempo": 120.0
            },
            {
                "start_time": 6.8181818,
                "end_time": 6.9522727,
                "pitch": 86,
                "velocity": 64,
                "duration": 0.1340909,
                "tempo": 120.0
            },
            {
                "start_time": 6.9681818,
                "end_time": 7.4022727,
                "pitch": 84,
                "velocity": 64,
                "duration": 0.4340909,
                "tempo": 120.0
            },
            {
                "start_time": 7.4181818,
                "end_time": 7.7045455,
                "pitch": 91,
                "velocity": 64,
                "duration": 0.2863636,
                "tempo": 120.0
            },
            {
                "start_time": 7.7204545,
                "end_time": 8.0068182,
                "pitch": 91,
                "velocity": 64,
                "duration": 0.2863636,
                "tempo": 120.0
            },
            {
                "start_time": 8.025,
                "end_time": 8.3068182,
                "pitch": 91,
                "velocity": 64,
                "duration": 0.2818182,
                "tempo": 120.0
            },
            {
                "start_time": 8.325,
                "end_time": 8.4568182,
                "pitch": 91,
                "velocity": 64,
                "duration": 0.1318182,
                "tempo": 120.0
            },
            {
                "start_time": 8.475,
                "end_time": 8.6068182,
                "pitch": 89,
                "velocity": 64,
                "duration": 0.1318182,
                "tempo": 120.0
            },
            {
                "start_time": 8.625,
                "end_time": 8.7568182,
                "pitch": 87,
                "velocity": 64,
                "duration": 0.1318182,
                "tempo": 120.0
            },
            {
                "start_time": 8.775,
                "end_time": 9.5068182,
                "pitch": 86,
                "velocity": 64,
                "duration": 0.7318182,
                "tempo": 120.0
            },
            {
                "start_time": 9.825,
                "end_time": 10.4136364,
                "pitch": 84,
                "velocity": 64,
                "duration": 0.5886364,
                "tempo": 120.0
            },
            {
                "start_time": 10.4295455,
                "end_time": 10.7136364,
                "pitch": 86,
                "velocity": 64,
                "duration": 0.2840909,
                "tempo": 120.0
            },
            {
                "start_time": 10.7295455,
                "end_time": 10.8636364,
                "pitch": 87,
                "velocity": 64,
                "duration": 0.1340909,
                "tempo": 120.0
            },
            {
                "start_time": 10.8795455,
                "end_time": 10.9295455,
                "pitch": 87,
                "velocity": 64,
                "duration": 0.05,
                "tempo": 120.0
            },
            {
                "start_time": 11.3295455,
                "end_time": 11.6136364,
                "pitch": 87,
                "velocity": 64,
                "duration": 0.2840909,
                "tempo": 120.0
            },
            {
                "start_time": 11.6295455,
                "end_time": 11.7636364,
                "pitch": 86,
                "velocity": 64,
                "duration": 0.1340909,
                "tempo": 120.0
            },
            {
                "start_time": 11.7795455,
                "end_time": 12.2136364,
                "pitch": 84,
                "velocity": 64,
                "duration": 0.4340909,
                "tempo": 120.0
            },
            {
                "start_time": 12.2295455,
                "end_time": 12.5136364,
                "pitch": 82,
                "velocity": 64,
                "duration": 0.2840909,
                "tempo": 120.0
            },
            {
                "start_time": 12.5295455,
                "end_time": 12.8136364,
                "pitch": 82,
                "velocity": 64,
                "duration": 0.2840909,
                "tempo": 120.0
            },
            {
                "start_time": 12.8295455,
                "end_time": 12.9659091,
                "pitch": 81,
                "velocity": 64,
                "duration": 0.1363636,
                "tempo": 120.0
            },
            {
                "start_time": 12.9818182,
                "end_time": 14.0204545,
                "pitch": 82,
                "velocity": 64,
                "duration": 1.0386364,
                "tempo": 120.0
            },
            {
                "start_time": 14.0363636,
                "end_time": 14.1704545,
                "pitch": 81,
                "velocity": 64,
                "duration": 0.1340909,
                "tempo": 120.0
            },
            {
                "start_time": 14.1863636,
                "end_time": 14.6204545,
                "pitch": 82,
                "velocity": 64,
                "duration": 0.4340909,
                "tempo": 120.0
            },
            {
                "start_time": 14.6363636,
                "end_time": 15.2204545,
                "pitch": 84,
                "velocity": 64,
                "duration": 0.5840909,
                "tempo": 120.0
            },
            {
                "start_time": 15.2363636,
                "end_time": 15.5204545,
                "pitch": 86,
                "velocity": 64,
                "duration": 0.2840909,
                "tempo": 120.0
            },
            {
                "start_time": 15.5363636,
                "end_time": 15.6704545,
                "pitch": 87,
                "velocity": 64,
                "duration": 0.1340909,
                "tempo": 120.0
            },
            {
                "start_time": 15.6863636,
                "end_time": 15.7863636,
                "pitch": 87,
                "velocity": 64,
                "duration": 0.1,
                "tempo": 120.0
            },
            {
                "start_time": 16.1386364,
                "end_time": 16.425,
                "pitch": 87,
                "velocity": 64,
                "duration": 0.2863636,
                "tempo": 120.0
            },
            {
                "start_time": 16.4431818,
                "end_time": 16.575,
                "pitch": 86,
                "velocity": 64,
                "duration": 0.1318182,
                "tempo": 120.0
            },
            {
                "start_time": 16.5931818,
                "end_time": 17.025,
                "pitch": 84,
                "velocity": 64,
                "duration": 0.4318182,
                "tempo": 120.0
            },
            {
                "start_time": 17.0431818,
                "end_time": 17.325,
                "pitch": 91,
                "velocity": 64,
                "duration": 0.2818182,
                "tempo": 120.0
            },
            {
                "start_time": 17.3431818,
                "end_time": 17.625,
                "pitch": 91,
                "velocity": 64,
                "duration": 0.2818182,
                "tempo": 120.0
            },
            {
                "start_time": 17.6431818,
                "end_time": 19.1386364,
                "pitch": 91,
                "velocity": 64,
                "duration": 1.4954545,
                "tempo": 120.0
            }
        ],
        "Acoustic Bass": [
            {
                "start_time": 0.0045455,
                "end_time": 0.0727273,
                "pitch": 41,
                "velocity": 40,
                "duration": 0.0681818,
                "tempo": 120.0
            },
            {
                "start_time": 0.0840909,
                "end_time": 0.1727273,
                "pitch": 53,
                "velocity": 40,
                "duration": 0.0886364,
                "tempo": 120.0
            },
            {
                "start_time": 0.1840909,
                "end_time": 0.3159091,
                "pitch": 41,
                "velocity": 40,
                "duration": 0.1318182,
                "tempo": 120.0
            },
            {
                "start_time": 0.3340909,
                "end_time": 0.4681818,
                "pitch": 53,
                "velocity": 40,
                "duration": 0.1340909,
                "tempo": 120.0
            },
            {
                "start_time": 0.4840909,
                "end_time": 0.6204545,
                "pitch": 41,
                "velocity": 40,
                "duration": 0.1363636,
                "tempo": 120.0
            },
            {
                "start_time": 0.6363636,
                "end_time": 0.7704545,
                "pitch": 53,
                "velocity": 40,
                "duration": 0.1340909,
                "tempo": 120.0
            },
            {
                "start_time": 0.7886364,
                "end_time": 0.9204545,
                "pitch": 41,
                "velocity": 40,
                "duration": 0.1318182,
                "tempo": 120.0
            },
            {
                "start_time": 0.9386364,
                "end_time": 1.0704545,
                "pitch": 53,
                "velocity": 40,
                "duration": 0.1318182,
                "tempo": 120.0
            },
            {
                "start_time": 1.0886364,
                "end_time": 1.2204545,
                "pitch": 41,
                "velocity": 40,
                "duration": 0.1318182,
                "tempo": 120.0
            },
            {
                "start_time": 1.2386364,
                "end_time": 1.2886364,
                "pitch": 41,
                "velocity": 40,
                "duration": 0.05,
                "tempo": 120.0
            },
            {
                "start_time": 1.3204545,
                "end_time": 1.3704545,
                "pitch": 41,
                "velocity": 40,
                "duration": 0.05,
                "tempo": 120.0
            },
            {
                "start_time": 1.3886364,
                "end_time": 1.5204545,
                "pitch": 41,
                "velocity": 40,
                "duration": 0.1318182,
                "tempo": 120.0
            },
            {
                "start_time": 1.5386364,
                "end_time": 1.6704545,
                "pitch": 53,
                "velocity": 40,
                "duration": 0.1318182,
                "tempo": 120.0
            },
            {
                "start_time": 1.6886364,
                "end_time": 1.8204545,
                "pitch": 41,
                "velocity": 40,
                "duration": 0.1318182,
                "tempo": 120.0
            },
            {
                "start_time": 1.8386364,
                "end_time": 1.9704545,
                "pitch": 53,
                "velocity": 40,
                "duration": 0.1318182,
                "tempo": 120.0
            },
            {
                "start_time": 1.9886364,
                "end_time": 2.1227273,
                "pitch": 41,
                "velocity": 40,
                "duration": 0.1340909,
                "tempo": 120.0
            },
            {
                "start_time": 2.1386364,
                "end_time": 2.275,
                "pitch": 53,
                "velocity": 40,
                "duration": 0.1363636,
                "tempo": 120.0
            },
            {
                "start_time": 2.2909091,
                "end_time": 2.425,
                "pitch": 39,
                "velocity": 40,
                "duration": 0.1340909,
                "tempo": 120.0
            },
            {
                "start_time": 2.4431818,
                "end_time": 2.5772727,
                "pitch": 51,
                "velocity": 40,
                "duration": 0.1340909,
                "tempo": 120.0
            },
            {
                "start_time": 2.5931818,
                "end_time": 2.7295455,
                "pitch": 39,
                "velocity": 40,
                "duration": 0.1363636,
                "tempo": 120.0
            },
            {
                "start_time": 2.7454545,
                "end_time": 2.8795455,
                "pitch": 51,
                "velocity": 40,
                "duration": 0.1340909,
                "tempo": 120.0
            },
            {
                "start_time": 2.8977273,
                "end_time": 3.0318182,
                "pitch": 39,
                "velocity": 40,
                "duration": 0.1340909,
                "tempo": 120.0
            },
            {
                "start_time": 3.0477273,
                "end_time": 3.1840909,
                "pitch": 51,
                "velocity": 40,
                "duration": 0.1363636,
                "tempo": 120.0
            },
            {
                "start_time": 3.2,
                "end_time": 3.3340909,
                "pitch": 39,
                "velocity": 40,
                "duration": 0.1340909,
                "tempo": 120.0
            },
            {
                "start_time": 3.35,
                "end_time": 3.4840909,
                "pitch": 51,
                "velocity": 40,
                "duration": 0.1340909,
                "tempo": 120.0
            },
            {
                "start_time": 3.5,
                "end_time": 3.6340909,
                "pitch": 39,
                "velocity": 40,
                "duration": 0.1340909,
                "tempo": 120.0
            },
            {
                "start_time": 3.65,
                "end_time": 3.7840909,
                "pitch": 51,
                "velocity": 40,
                "duration": 0.1340909,
                "tempo": 120.0
            },
            {
                "start_time": 3.8,
                "end_time": 3.9340909,
                "pitch": 39,
                "velocity": 40,
                "duration": 0.1340909,
                "tempo": 120.0
            },
            {
                "start_time": 3.9522727,
                "end_time": 4.0863636,
                "pitch": 51,
                "velocity": 40,
                "duration": 0.1340909,
                "tempo": 120.0
            },
            {
                "start_time": 4.1022727,
                "end_time": 4.2386364,
                "pitch": 43,
                "velocity": 40,
                "duration": 0.1363636,
                "tempo": 120.0
            },
            {
                "start_time": 4.2545455,
                "end_time": 4.3886364,
                "pitch": 46,
                "velocity": 40,
                "duration": 0.1340909,
                "tempo": 120.0
            },
            {
                "start_time": 4.4068182,
                "end_time": 4.5409091,
                "pitch": 39,
                "velocity": 40,
                "duration": 0.1340909,
                "tempo": 120.0
            },
            {
                "start_time": 4.5568182,
                "end_time": 4.6931818,
                "pitch": 51,
                "velocity": 40,
                "duration": 0.1363636,
                "tempo": 120.0
            },
            {
                "start_time": 4.7090909,
                "end_time": 4.8431818,
                "pitch": 53,
                "velocity": 40,
                "duration": 0.1340909,
                "tempo": 120.0
            },
            {
                "start_time": 4.8613636,
                "end_time": 4.9954545,
                "pitch": 41,
                "velocity": 40,
                "duration": 0.1340909,
                "tempo": 120.0
            },
            {
                "start_time": 5.0113636,
                "end_time": 5.1454545,
                "pitch": 41,
                "velocity": 40,
                "duration": 0.1340909,
                "tempo": 120.0
            },
            {
                "start_time": 5.1613636,
                "end_time": 5.2954545,
                "pitch": 53,
                "velocity": 40,
                "duration": 0.1340909,
                "tempo": 120.0
            },
            {
                "start_time": 5.3113636,
                "end_time": 5.4454545,
                "pitch": 41,
                "velocity": 40,
                "duration": 0.1340909,
                "tempo": 120.0
            },
            {
                "start_time": 5.4613636,
                "end_time": 5.5954545,
                "pitch": 41,
                "velocity": 40,
                "duration": 0.1340909,
                "tempo": 120.0
            },
            {
                "start_time": 5.6113636,
                "end_time": 5.7454545,
                "pitch": 53,
                "velocity": 40,
                "duration": 0.1340909,
                "tempo": 120.0
            },
            {
                "start_time": 5.7613636,
                "end_time": 5.8954545,
                "pitch": 41,
                "velocity": 40,
                "duration": 0.1340909,
                "tempo": 120.0
            },
            {
                "start_time": 5.9113636,
                "end_time": 6.0454545,
                "pitch": 41,
                "velocity": 40,
                "duration": 0.1340909,
                "tempo": 120.0
            },
            {
                "start_time": 6.0613636,
                "end_time": 6.1954545,
                "pitch": 53,
                "velocity": 40,
                "duration": 0.1340909,
                "tempo": 120.0
            },
            {
                "start_time": 6.2113636,
                "end_time": 6.3477273,
                "pitch": 41,
                "velocity": 40,
                "duration": 0.1363636,
                "tempo": 120.0
            },
            {
                "start_time": 6.3636364,
                "end_time": 6.4977273,
                "pitch": 53,
                "velocity": 40,
                "duration": 0.1340909,
                "tempo": 120.0
            },
            {
                "start_time": 6.5159091,
                "end_time": 6.65,
                "pitch": 41,
                "velocity": 40,
                "duration": 0.1340909,
                "tempo": 120.0
            },
            {
                "start_time": 6.6659091,
                "end_time": 6.7181818,
                "pitch": 41,
                "velocity": 40,
                "duration": 0.0522727,
                "tempo": 120.0
            },
            {
                "start_time": 6.75,
                "end_time": 6.8022727,
                "pitch": 41,
                "velocity": 40,
                "duration": 0.0522727,
                "tempo": 120.0
            },
            {
                "start_time": 6.8181818,
                "end_time": 6.9522727,
                "pitch": 53,
                "velocity": 40,
                "duration": 0.1340909,
                "tempo": 120.0
            },
            {
                "start_time": 6.9681818,
                "end_time": 7.1022727,
                "pitch": 53,
                "velocity": 40,
                "duration": 0.1340909,
                "tempo": 120.0
            },
            {
                "start_time": 7.1181818,
                "end_time": 7.2522727,
                "pitch": 39,
                "velocity": 40,
                "duration": 0.1340909,
                "tempo": 120.0
            },
            {
                "start_time": 7.2681818,
                "end_time": 7.4022727,
                "pitch": 51,
                "velocity": 40,
                "duration": 0.1340909,
                "tempo": 120.0
            },
            {
                "start_time": 7.4181818,
                "end_time": 7.5522727,
                "pitch": 39,
                "velocity": 40,
                "duration": 0.1340909,
                "tempo": 120.0
            },
            {
                "start_time": 7.5704545,
                "end_time": 7.7045455,
                "pitch": 51,
                "velocity": 40,
                "duration": 0.1340909,
                "tempo": 120.0
            },
            {
                "start_time": 7.7204545,
                "end_time": 7.8568182,
                "pitch": 39,
                "velocity": 40,
                "duration": 0.1363636,
                "tempo": 120.0
            },
            {
                "start_time": 7.8727273,
                "end_time": 8.0068182,
                "pitch": 51,
                "velocity": 40,
                "duration": 0.1340909,
                "tempo": 120.0
            },
            {
                "start_time": 8.025,
                "end_time": 8.1568182,
                "pitch": 39,
                "velocity": 40,
                "duration": 0.1318182,
                "tempo": 120.0
            },
            {
                "start_time": 8.175,
                "end_time": 8.3068182,
                "pitch": 51,
                "velocity": 40,
                "duration": 0.1318182,
                "tempo": 120.0
            },
            {
                "start_time": 8.325,
                "end_time": 8.4568182,
                "pitch": 39,
                "velocity": 40,
                "duration": 0.1318182,
                "tempo": 120.0
            },
            {
                "start_time": 8.475,
                "end_time": 8.6068182,
                "pitch": 39,
                "velocity": 40,
                "duration": 0.1318182,
                "tempo": 120.0
            },
            {
                "start_time": 8.625,
                "end_time": 8.7568182,
                "pitch": 51,
                "velocity": 40,
                "duration": 0.1318182,
                "tempo": 120.0
            },
            {
                "start_time": 8.775,
                "end_time": 8.9068182,
                "pitch": 39,
                "velocity": 40,
                "duration": 0.1318182,
                "tempo": 120.0
            },
            {
                "start_time": 8.925,
                "end_time": 9.0568182,
                "pitch": 51,
                "velocity": 40,
                "duration": 0.1318182,
                "tempo": 120.0
            },
            {
                "start_time": 9.075,
                "end_time": 9.125,
                "pitch": 48,
                "velocity": 40,
                "duration": 0.05,
                "tempo": 120.0
            },
            {
                "start_time": 9.1568182,
                "end_time": 9.2068182,
                "pitch": 50,
                "velocity": 40,
                "duration": 0.05,
                "tempo": 120.0
            },
            {
                "start_time": 9.225,
                "end_time": 9.3568182,
                "pitch": 39,
                "velocity": 40,
                "duration": 0.1318182,
                "tempo": 120.0
            },
            {
                "start_time": 9.375,
                "end_time": 9.5068182,
                "pitch": 51,
                "velocity": 40,
                "duration": 0.1318182,
                "tempo": 120.0
            },
            {
                "start_time": 9.525,
                "end_time": 9.6568182,
                "pitch": 41,
                "velocity": 40,
                "duration": 0.1318182,
                "tempo": 120.0
            },
            {
                "start_time": 9.675,
                "end_time": 9.8068182,
                "pitch": 53,
                "velocity": 40,
                "duration": 0.1318182,
                "tempo": 120.0
            },
            {
                "start_time": 9.825,
                "end_time": 9.9590909,
                "pitch": 41,
                "velocity": 40,
                "duration": 0.1340909,
                "tempo": 120.0
            },
            {
                "start_time": 9.975,
                "end_time": 10.1113636,
                "pitch": 53,
                "velocity": 40,
                "duration": 0.1363636,
                "tempo": 120.0
            },
            {
                "start_time": 10.1272727,
                "end_time": 10.2613636,
                "pitch": 41,
                "velocity": 40,
                "duration": 0.1340909,
                "tempo": 120.0
            },
            {
                "start_time": 10.2795455,
                "end_time": 10.4136364,
                "pitch": 53,
                "velocity": 40,
                "duration": 0.1340909,
                "tempo": 120.0
            },
            {
                "start_time": 10.4295455,
                "end_time": 10.5636364,
                "pitch": 41,
                "velocity": 40,
                "duration": 0.1340909,
                "tempo": 120.0
            },
            {
                "start_time": 10.5795455,
                "end_time": 10.7136364,
                "pitch": 53,
                "velocity": 40,
                "duration": 0.1340909,
                "tempo": 120.0
            },
            {
                "start_time": 10.7295455,
                "end_time": 10.8636364,
                "pitch": 41,
                "velocity": 40,
                "duration": 0.1340909,
                "tempo": 120.0
            },
            {
                "start_time": 10.8795455,
                "end_time": 10.9295455,
                "pitch": 41,
                "velocity": 40,
                "duration": 0.05,
                "tempo": 120.0
            },
            {
                "start_time": 10.9636364,
                "end_time": 11.0136364,
                "pitch": 41,
                "velocity": 40,
                "duration": 0.05,
                "tempo": 120.0
            },
            {
                "start_time": 11.0295455,
                "end_time": 11.1636364,
                "pitch": 41,
                "velocity": 40,
                "duration": 0.1340909,
                "tempo": 120.0
            },
            {
                "start_time": 11.1795455,
                "end_time": 11.3136364,
                "pitch": 53,
                "velocity": 40,
                "duration": 0.1340909,
                "tempo": 120.0
            },
            {
                "start_time": 11.3295455,
                "end_time": 11.4636364,
                "pitch": 41,
                "velocity": 40,
                "duration": 0.1340909,
                "tempo": 120.0
            },
            {
                "start_time": 11.4795455,
                "end_time": 11.6136364,
                "pitch": 53,
                "velocity": 40,
                "duration": 0.1340909,
                "tempo": 120.0
            },
            {
                "start_time": 11.6295455,
                "end_time": 11.7636364,
                "pitch": 41,
                "velocity": 40,
                "duration": 0.1340909,
                "tempo": 120.0
            },
            {
                "start_time": 11.7795455,
                "end_time": 11.9136364,
                "pitch": 53,
                "velocity": 40,
                "duration": 0.1340909,
                "tempo": 120.0
            },
            {
                "start_time": 11.9295455,
                "end_time": 12.0636364,
                "pitch": 39,
                "velocity": 40,
                "duration": 0.1340909,
                "tempo": 120.0
            },
            {
                "start_time": 12.0795455,
                "end_time": 12.2136364,
                "pitch": 51,
                "velocity": 40,
                "duration": 0.1340909,
                "tempo": 120.0
            },
            {
                "start_time": 12.2295455,
                "end_time": 12.3636364,
                "pitch": 39,
                "velocity": 40,
                "duration": 0.1340909,
                "tempo": 120.0
            },
            {
                "start_time": 12.3795455,
                "end_time": 12.5136364,
                "pitch": 51,
                "velocity": 40,
                "duration": 0.1340909,
                "tempo": 120.0
            },
            {
                "start_time": 12.5295455,
                "end_time": 12.6636364,
                "pitch": 39,
                "velocity": 40,
                "duration": 0.1340909,
                "tempo": 120.0
            },
            {
                "start_time": 12.6795455,
                "end_time": 12.8136364,
                "pitch": 51,
                "velocity": 40,
                "duration": 0.1340909,
                "tempo": 120.0
            },
            {
                "start_time": 12.8295455,
                "end_time": 12.9659091,
                "pitch": 39,
                "velocity": 40,
                "duration": 0.1363636,
                "tempo": 120.0
            },
            {
                "start_time": 12.9818182,
                "end_time": 13.1159091,
                "pitch": 51,
                "velocity": 40,
                "duration": 0.1340909,
                "tempo": 120.0
            },
            {
                "start_time": 13.1340909,
                "end_time": 13.2681818,
                "pitch": 39,
                "velocity": 40,
                "duration": 0.1340909,
                "tempo": 120.0
            },
            {
                "start_time": 13.2840909,
                "end_time": 13.4204545,
                "pitch": 51,
                "velocity": 40,
                "duration": 0.1363636,
                "tempo": 120.0
            },
            {
                "start_time": 13.4363636,
                "end_time": 13.5704545,
                "pitch": 39,
                "velocity": 40,
                "duration": 0.1340909,
                "tempo": 120.0
            },
            {
                "start_time": 13.5863636,
                "end_time": 13.7204545,
                "pitch": 51,
                "velocity": 40,
                "duration": 0.1340909,
                "tempo": 120.0
            },
            {
                "start_time": 13.7363636,
                "end_time": 13.8704545,
                "pitch": 43,
                "velocity": 40,
                "duration": 0.1340909,
                "tempo": 120.0
            },
            {
                "start_time": 13.8863636,
                "end_time": 14.0204545,
                "pitch": 46,
                "velocity": 40,
                "duration": 0.1340909,
                "tempo": 120.0
            },
            {
                "start_time": 14.0363636,
                "end_time": 14.1704545,
                "pitch": 39,
                "velocity": 40,
                "duration": 0.1340909,
                "tempo": 120.0
            },
            {
                "start_time": 14.1863636,
                "end_time": 14.3204545,
                "pitch": 51,
                "velocity": 40,
                "duration": 0.1340909,
                "tempo": 120.0
            },
            {
                "start_time": 14.3363636,
                "end_time": 14.4704545,
                "pitch": 53,
                "velocity": 40,
                "duration": 0.1340909,
                "tempo": 120.0
            },
            {
                "start_time": 14.4863636,
                "end_time": 14.6204545,
                "pitch": 41,
                "velocity": 40,
                "duration": 0.1340909,
                "tempo": 120.0
            },
            {
                "start_time": 14.6363636,
                "end_time": 14.7704545,
                "pitch": 41,
                "velocity": 40,
                "duration": 0.1340909,
                "tempo": 120.0
            },
            {
                "start_time": 14.7863636,
                "end_time": 14.9204545,
                "pitch": 53,
                "velocity": 40,
                "duration": 0.1340909,
                "tempo": 120.0
            },
            {
                "start_time": 14.9363636,
                "end_time": 15.0704545,
                "pitch": 41,
                "velocity": 40,
                "duration": 0.1340909,
                "tempo": 120.0
            },
            {
                "start_time": 15.0863636,
                "end_time": 15.2204545,
                "pitch": 53,
                "velocity": 40,
                "duration": 0.1340909,
                "tempo": 120.0
            },
            {
                "start_time": 15.2363636,
                "end_time": 15.3704545,
                "pitch": 41,
                "velocity": 40,
                "duration": 0.1340909,
                "tempo": 120.0
            },
            {
                "start_time": 15.3863636,
                "end_time": 15.5204545,
                "pitch": 53,
                "velocity": 40,
                "duration": 0.1340909,
                "tempo": 120.0
            },
            {
                "start_time": 15.5363636,
                "end_time": 15.6704545,
                "pitch": 41,
                "velocity": 40,
                "duration": 0.1340909,
                "tempo": 120.0
            },
            {
                "start_time": 15.6863636,
                "end_time": 15.8204545,
                "pitch": 53,
                "velocity": 40,
                "duration": 0.1340909,
                "tempo": 120.0
            },
            {
                "start_time": 15.8363636,
                "end_time": 16.0386364,
                "pitch": 41,
                "velocity": 40,
                "duration": 0.2022727,
                "tempo": 120.0
            },
            {
                "start_time": 16.0727273,
                "end_time": 16.1227273,
                "pitch": 53,
                "velocity": 40,
                "duration": 0.05,
                "tempo": 120.0
            },
            {
                "start_time": 16.1386364,
                "end_time": 16.275,
                "pitch": 41,
                "velocity": 40,
                "duration": 0.1363636,
                "tempo": 120.0
            },
            {
                "start_time": 16.2909091,
                "end_time": 16.3409091,
                "pitch": 41,
                "velocity": 40,
                "duration": 0.05,
                "tempo": 120.0
            },
            {
                "start_time": 16.375,
                "end_time": 16.425,
                "pitch": 53,
                "velocity": 40,
                "duration": 0.05,
                "tempo": 120.0
            },
            {
                "start_time": 16.4431818,
                "end_time": 16.575,
                "pitch": 41,
                "velocity": 40,
                "duration": 0.1318182,
                "tempo": 120.0
            },
            {
                "start_time": 16.5931818,
                "end_time": 16.725,
                "pitch": 41,
                "velocity": 40,
                "duration": 0.1318182,
                "tempo": 120.0
            },
            {
                "start_time": 16.7431818,
                "end_time": 16.875,
                "pitch": 43,
                "velocity": 40,
                "duration": 0.1318182,
                "tempo": 120.0
            },
            {
                "start_time": 16.8931818,
                "end_time": 17.025,
                "pitch": 55,
                "velocity": 40,
                "duration": 0.1318182,
                "tempo": 120.0
            },
            {
                "start_time": 17.0431818,
                "end_time": 17.175,
                "pitch": 43,
                "velocity": 40,
                "duration": 0.1318182,
                "tempo": 120.0
            },
            {
                "start_time": 17.1931818,
                "end_time": 17.325,
                "pitch": 55,
                "velocity": 40,
                "duration": 0.1318182,
                "tempo": 120.0
            },
            {
                "start_time": 17.3431818,
                "end_time": 17.475,
                "pitch": 43,
                "velocity": 40,
                "duration": 0.1318182,
                "tempo": 120.0
            },
            {
                "start_time": 17.4931818,
                "end_time": 17.625,
                "pitch": 55,
                "velocity": 40,
                "duration": 0.1318182,
                "tempo": 120.0
            },
            {
                "start_time": 17.6431818,
                "end_time": 17.7772727,
                "pitch": 43,
                "velocity": 40,
                "duration": 0.1340909,
                "tempo": 120.0
            },
            {
                "start_time": 17.7931818,
                "end_time": 17.9295455,
                "pitch": 55,
                "velocity": 40,
                "duration": 0.1363636,
                "tempo": 120.0
            },
            {
                "start_time": 17.9454545,
                "end_time": 18.0795455,
                "pitch": 43,
                "velocity": 40,
                "duration": 0.1340909,
                "tempo": 120.0
            },
            {
                "start_time": 18.0977273,
                "end_time": 18.2318182,
                "pitch": 55,
                "velocity": 40,
                "duration": 0.1340909,
                "tempo": 120.0
            },
            {
                "start_time": 18.2477273,
                "end_time": 18.3840909,
                "pitch": 43,
                "velocity": 40,
                "duration": 0.1363636,
                "tempo": 120.0
            },
            {
                "start_time": 18.4,
                "end_time": 18.5340909,
                "pitch": 55,
                "velocity": 40,
                "duration": 0.1340909,
                "tempo": 120.0
            },
            {
                "start_time": 18.5522727,
                "end_time": 18.6863636,
                "pitch": 43,
                "velocity": 40,
                "duration": 0.1340909,
                "tempo": 120.0
            },
            {
                "start_time": 18.7022727,
                "end_time": 18.8386364,
                "pitch": 50,
                "velocity": 40,
                "duration": 0.1363636,
                "tempo": 120.0
            },
            {
                "start_time": 18.8545455,
                "end_time": 18.9886364,
                "pitch": 46,
                "velocity": 40,
                "duration": 0.1340909,
                "tempo": 120.0
            },
            {
                "start_time": 19.0045455,
                "end_time": 19.1386364,
                "pitch": 43,
                "velocity": 40,
                "duration": 0.1340909,
                "tempo": 120.0
            },
            {
                "start_time": 19.1545455,
                "end_time": 19.2886364,
                "pitch": 56,
                "velocity": 40,
                "duration": 0.1340909,
                "tempo": 120.0
            },
            {
                "start_time": 19.3045455,
                "end_time": 19.4386364,
                "pitch": 56,
                "velocity": 40,
                "duration": 0.1340909,
                "tempo": 120.0
            },
            {
                "start_time": 19.4545455,
                "end_time": 19.5886364,
                "pitch": 56,
                "velocity": 40,
                "duration": 0.1340909,
                "tempo": 120.0
            },
            {
                "start_time": 19.6068182,
                "end_time": 19.7409091,
                "pitch": 44,
                "velocity": 40,
                "duration": 0.1340909,
                "tempo": 120.0
            },
            {
                "start_time": 19.7568182,
                "end_time": 19.8931818,
                "pitch": 44,
                "velocity": 40,
                "duration": 0.1363636,
                "tempo": 120.0
            },
            {
                "start_time": 19.9090909,
                "end_time": 20.0431818,
                "pitch": 56,
                "velocity": 40,
                "duration": 0.1340909,
                "tempo": 120.0
            },
            {
                "start_time": 20.0613636,
                "end_time": 20.1931818,
                "pitch": 44,
                "velocity": 40,
                "duration": 0.1318182,
                "tempo": 120.0
            },
            {
                "start_time": 20.2113636,
                "end_time": 20.3431818,
                "pitch": 44,
                "velocity": 40,
                "duration": 0.1318182,
                "tempo": 120.0
            },
            {
                "start_time": 20.3613636,
                "end_time": 20.4931818,
                "pitch": 44,
                "velocity": 40,
                "duration": 0.1318182,
                "tempo": 120.0
            },
            {
                "start_time": 20.5113636,
                "end_time": 20.5613636,
                "pitch": 44,
                "velocity": 40,
                "duration": 0.05,
                "tempo": 120.0
            },
            {
                "start_time": 20.5931818,
                "end_time": 20.6431818,
                "pitch": 44,
                "velocity": 40,
                "duration": 0.05,
                "tempo": 120.0
            },
            {
                "start_time": 20.6613636,
                "end_time": 20.7954545,
                "pitch": 56,
                "velocity": 40,
                "duration": 0.1340909,
                "tempo": 120.0
            },
            {
                "start_time": 20.8113636,
                "end_time": 20.9477273,
                "pitch": 56,
                "velocity": 40,
                "duration": 0.1363636,
                "tempo": 120.0
            },
            {
                "start_time": 20.9636364,
                "end_time": 21.0977273,
                "pitch": 56,
                "velocity": 40,
                "duration": 0.1340909,
                "tempo": 120.0
            },
            {
                "start_time": 21.1159091,
                "end_time": 21.1659091,
                "pitch": 56,
                "velocity": 40,
                "duration": 0.05,
                "tempo": 120.0
            },
            {
                "start_time": 21.2,
                "end_time": 21.25,
                "pitch": 56,
                "velocity": 40,
                "duration": 0.05,
                "tempo": 120.0
            },
            {
                "start_time": 21.2659091,
                "end_time": 21.4022727,
                "pitch": 56,
                "velocity": 40,
                "duration": 0.1363636,
                "tempo": 120.0
            },
            {
                "start_time": 21.4181818,
                "end_time": 21.5522727,
                "pitch": 44,
                "velocity": 40,
                "duration": 0.1340909,
                "tempo": 120.0
            },
            {
                "start_time": 21.5704545,
                "end_time": 21.7045455,
                "pitch": 39,
                "velocity": 40,
                "duration": 0.1340909,
                "tempo": 120.0
            },
            {
                "start_time": 21.7204545,
                "end_time": 21.8568182,
                "pitch": 39,
                "velocity": 40,
                "duration": 0.1363636,
                "tempo": 120.0
            },
            {
                "start_time": 21.8727273,
                "end_time": 22.0068182,
                "pitch": 51,
                "velocity": 40,
                "duration": 0.1340909,
                "tempo": 120.0
            },
            {
                "start_time": 22.0227273,
                "end_time": 22.1568182,
                "pitch": 39,
                "velocity": 40,
                "duration": 0.1340909,
                "tempo": 120.0
            },
            {
                "start_time": 22.1727273,
                "end_time": 22.3068182,
                "pitch": 39,
                "velocity": 40,
                "duration": 0.1340909,
                "tempo": 120.0
            },
            {
                "start_time": 22.3227273,
                "end_time": 22.3727273,
                "pitch": 39,
                "velocity": 40,
                "duration": 0.05,
                "tempo": 120.0
            },
            {
                "start_time": 22.4068182,
                "end_time": 22.4568182,
                "pitch": 39,
                "velocity": 40,
                "duration": 0.05,
                "tempo": 120.0
            },
            {
                "start_time": 22.4727273,
                "end_time": 22.6068182,
                "pitch": 51,
                "velocity": 40,
                "duration": 0.1340909,
                "tempo": 120.0
            },
            {
                "start_time": 22.625,
                "end_time": 22.7590909,
                "pitch": 51,
                "velocity": 40,
                "duration": 0.1340909,
                "tempo": 120.0
            },
            {
                "start_time": 22.775,
                "end_time": 22.9113636,
                "pitch": 51,
                "velocity": 40,
                "duration": 0.1363636,
                "tempo": 120.0
            },
            {
                "start_time": 22.9272727,
                "end_time": 22.9772727,
                "pitch": 51,
                "velocity": 40,
                "duration": 0.05,
                "tempo": 120.0
            },
            {
                "start_time": 23.0113636,
                "end_time": 23.0613636,
                "pitch": 51,
                "velocity": 40,
                "duration": 0.05,
                "tempo": 120.0
            },
            {
                "start_time": 23.0795455,
                "end_time": 23.2113636,
                "pitch": 51,
                "velocity": 40,
                "duration": 0.1318182,
                "tempo": 120.0
            },
            {
                "start_time": 23.2295455,
                "end_time": 23.3613636,
                "pitch": 39,
                "velocity": 40,
                "duration": 0.1318182,
                "tempo": 120.0
            },
            {
                "start_time": 23.3795455,
                "end_time": 23.4295455,
                "pitch": 51,
                "velocity": 40,
                "duration": 0.05,
                "tempo": 120.0
            },
            {
                "start_time": 23.4613636,
                "end_time": 23.5113636,
                "pitch": 51,
                "velocity": 40,
                "duration": 0.05,
                "tempo": 120.0
            },
            {
                "start_time": 23.5295455,
                "end_time": 23.6613636,
                "pitch": 51,
                "velocity": 40,
                "duration": 0.1318182,
                "tempo": 120.0
            },
            {
                "start_time": 23.6795455,
                "end_time": 23.8136364,
                "pitch": 39,
                "velocity": 40,
                "duration": 0.1340909,
                "tempo": 120.0
            },
            {
                "start_time": 23.8295455,
                "end_time": 23.9659091,
                "pitch": 51,
                "velocity": 40,
                "duration": 0.1363636,
                "tempo": 120.0
            },
            {
                "start_time": 23.9818182,
                "end_time": 24.1159091,
                "pitch": 41,
                "velocity": 40,
                "duration": 0.1340909,
                "tempo": 120.0
            },
            {
                "start_time": 24.1340909,
                "end_time": 24.1840909,
                "pitch": 41,
                "velocity": 40,
                "duration": 0.05,
                "tempo": 120.0
            },
            {
                "start_time": 24.2181818,
                "end_time": 24.2681818,
                "pitch": 41,
                "velocity": 40,
                "duration": 0.05,
                "tempo": 120.0
            },
            {
                "start_time": 24.2840909,
                "end_time": 24.4204545,
                "pitch": 53,
                "velocity": 40,
                "duration": 0.1363636,
                "tempo": 120.0
            },
            {
                "start_time": 24.4363636,
                "end_time": 24.5704545,
                "pitch": 53,
                "velocity": 40,
                "duration": 0.1340909,
                "tempo": 120.0
            },
            {
                "start_time": 24.5886364,
                "end_time": 24.7227273,
                "pitch": 53,
                "velocity": 40,
                "duration": 0.1340909,
                "tempo": 120.0
            },
            {
                "start_time": 24.7386364,
                "end_time": 24.7909091,
                "pitch": 53,
                "velocity": 40,
                "duration": 0.0522727,
                "tempo": 120.0
            },
            {
                "start_time": 24.8227273,
                "end_time": 24.875,
                "pitch": 53,
                "velocity": 40,
                "duration": 0.0522727,
                "tempo": 120.0
            },
            {
                "start_time": 24.8909091,
                "end_time": 25.025,
                "pitch": 53,
                "velocity": 40,
                "duration": 0.1340909,
                "tempo": 120.0
            },
            {
                "start_time": 25.0409091,
                "end_time": 25.175,
                "pitch": 41,
                "velocity": 40,
                "duration": 0.1340909,
                "tempo": 120.0
            },
            {
                "start_time": 25.1909091,
                "end_time": 25.325,
                "pitch": 41,
                "velocity": 40,
                "duration": 0.1340909,
                "tempo": 120.0
            },
            {
                "start_time": 25.3409091,
                "end_time": 25.3909091,
                "pitch": 41,
                "velocity": 40,
                "duration": 0.05,
                "tempo": 120.0
            },
            {
                "start_time": 25.425,
                "end_time": 25.475,
                "pitch": 41,
                "velocity": 40,
                "duration": 0.05,
                "tempo": 120.0
            },
            {
                "start_time": 25.4909091,
                "end_time": 25.625,
                "pitch": 53,
                "velocity": 40,
                "duration": 0.1340909,
                "tempo": 120.0
            },
            {
                "start_time": 25.6431818,
                "end_time": 25.7772727,
                "pitch": 41,
                "velocity": 40,
                "duration": 0.1340909,
                "tempo": 120.0
            },
            {
                "start_time": 25.7931818,
                "end_time": 25.9295455,
                "pitch": 41,
                "velocity": 40,
                "duration": 0.1363636,
                "tempo": 120.0
            },
            {
                "start_time": 25.9454545,
                "end_time": 26.0795455,
                "pitch": 41,
                "velocity": 40,
                "duration": 0.1340909,
                "tempo": 120.0
            },
            {
                "start_time": 26.0977273,
                "end_time": 26.2295455,
                "pitch": 53,
                "velocity": 40,
                "duration": 0.1318182,
                "tempo": 120.0
            },
            {
                "start_time": 26.2477273,
                "end_time": 26.3795455,
                "pitch": 41,
                "velocity": 40,
                "duration": 0.1318182,
                "tempo": 120.0
            },
            {
                "start_time": 26.3977273,
                "end_time": 26.5295455,
                "pitch": 43,
                "velocity": 40,
                "duration": 0.1318182,
                "tempo": 120.0
            },
            {
                "start_time": 26.5477273,
                "end_time": 26.5977273,
                "pitch": 43,
                "velocity": 40,
                "duration": 0.05,
                "tempo": 120.0
            },
            {
                "start_time": 26.6295455,
                "end_time": 26.6795455,
                "pitch": 43,
                "velocity": 40,
                "duration": 0.05,
                "tempo": 120.0
            },
            {
                "start_time": 26.6977273,
                "end_time": 26.8295455,
                "pitch": 55,
                "velocity": 40,
                "duration": 0.1318182,
                "tempo": 120.0
            },
            {
                "start_time": 26.8454545,
                "end_time": 26.9772727,
                "pitch": 55,
                "velocity": 40,
                "duration": 0.1318182,
                "tempo": 120.0
            },
            {
                "start_time": 26.9931818,
                "end_time": 27.125,
                "pitch": 55,
                "velocity": 40,
                "duration": 0.1318182,
                "tempo": 120.0
            },
            {
                "start_time": 27.1431818,
                "end_time": 27.1909091,
                "pitch": 55,
                "velocity": 40,
                "duration": 0.0477273,
                "tempo": 120.0
            },
            {
                "start_time": 27.225,
                "end_time": 27.275,
                "pitch": 55,
                "velocity": 40,
                "duration": 0.05,
                "tempo": 120.0
            },
            {
                "start_time": 27.2909091,
                "end_time": 27.4272727,
                "pitch": 55,
                "velocity": 40,
                "duration": 0.1363636,
                "tempo": 120.0
            },
            {
                "start_time": 27.4431818,
                "end_time": 27.5795455,
                "pitch": 43,
                "velocity": 40,
                "duration": 0.1363636,
                "tempo": 120.0
            },
            {
                "start_time": 27.5977273,
                "end_time": 27.7318182,
                "pitch": 43,
                "velocity": 40,
                "duration": 0.1340909,
                "tempo": 120.0
            },
            {
                "start_time": 27.75,
                "end_time": 27.8863636,
                "pitch": 43,
                "velocity": 40,
                "duration": 0.1363636,
                "tempo": 120.0
            },
            {
                "start_time": 27.9022727,
                "end_time": 28.0363636,
                "pitch": 46,
                "velocity": 40,
                "duration": 0.1340909,
                "tempo": 120.0
            },
            {
                "start_time": 28.0522727,
                "end_time": 28.1863636,
                "pitch": 50,
                "velocity": 40,
                "duration": 0.1340909,
                "tempo": 120.0
            },
            {
                "start_time": 28.2022727,
                "end_time": 28.3363636,
                "pitch": 43,
                "velocity": 40,
                "duration": 0.1340909,
                "tempo": 120.0
            },
            {
                "start_time": 28.3522727,
                "end_time": 28.4863636,
                "pitch": 55,
                "velocity": 40,
                "duration": 0.1340909,
                "tempo": 120.0
            },
            {
                "start_time": 28.5022727,
                "end_time": 28.7886364,
                "pitch": 43,
                "velocity": 40,
                "duration": 0.2863636,
                "tempo": 120.0
            },
            {
                "start_time": 28.8068182,
                "end_time": 28.9409091,
                "pitch": 44,
                "velocity": 40,
                "duration": 0.1340909,
                "tempo": 120.0
            },
            {
                "start_time": 28.9568182,
                "end_time": 29.0090909,
                "pitch": 44,
                "velocity": 40,
                "duration": 0.0522727,
                "tempo": 120.0
            },
            {
                "start_time": 29.0409091,
                "end_time": 29.0931818,
                "pitch": 44,
                "velocity": 40,
                "duration": 0.0522727,
                "tempo": 120.0
            },
            {
                "start_time": 29.1090909,
                "end_time": 29.2431818,
                "pitch": 56,
                "velocity": 40,
                "duration": 0.1340909,
                "tempo": 120.0
            },
            {
                "start_time": 29.2590909,
                "end_time": 29.3931818,
                "pitch": 44,
                "velocity": 40,
                "duration": 0.1340909,
                "tempo": 120.0
            },
            {
                "start_time": 29.4090909,
                "end_time": 29.5431818,
                "pitch": 44,
                "velocity": 40,
                "duration": 0.1340909,
                "tempo": 120.0
            },
            {
                "start_time": 29.5590909,
                "end_time": 29.6090909,
                "pitch": 44,
                "velocity": 40,
                "duration": 0.05,
                "tempo": 120.0
            },
            {
                "start_time": 29.6431818,
                "end_time": 29.6931818,
                "pitch": 44,
                "velocity": 40,
                "duration": 0.05,
                "tempo": 120.0
            },
            {
                "start_time": 29.7090909,
                "end_time": 29.8431818,
                "pitch": 56,
                "velocity": 40,
                "duration": 0.1340909,
                "tempo": 120.0
            },
            {
                "start_time": 29.8613636,
                "end_time": 29.9954545,
                "pitch": 44,
                "velocity": 40,
                "duration": 0.1340909,
                "tempo": 120.0
            },
            {
                "start_time": 30.0113636,
                "end_time": 30.1477273,
                "pitch": 44,
                "velocity": 40,
                "duration": 0.1363636,
                "tempo": 120.0
            },
            {
                "start_time": 30.1636364,
                "end_time": 30.2136364,
                "pitch": 44,
                "velocity": 40,
                "duration": 0.05,
                "tempo": 120.0
            },
            {
                "start_time": 30.2477273,
                "end_time": 30.2977273,
                "pitch": 44,
                "velocity": 40,
                "duration": 0.05,
                "tempo": 120.0
            },
            {
                "start_time": 30.3159091,
                "end_time": 30.45,
                "pitch": 56,
                "velocity": 40,
                "duration": 0.1340909,
                "tempo": 120.0
            },
            {
                "start_time": 30.4659091,
                "end_time": 30.6022727,
                "pitch": 44,
                "velocity": 40,
                "duration": 0.1363636,
                "tempo": 120.0
            },
            {
                "start_time": 30.6181818,
                "end_time": 30.7522727,
                "pitch": 44,
                "velocity": 40,
                "duration": 0.1340909,
                "tempo": 120.0
            },
            {
                "start_time": 30.7704545,
                "end_time": 30.9045455,
                "pitch": 56,
                "velocity": 40,
                "duration": 0.1340909,
                "tempo": 120.0
            },
            {
                "start_time": 30.9204545,
                "end_time": 31.0545455,
                "pitch": 44,
                "velocity": 40,
                "duration": 0.1340909,
                "tempo": 120.0
            },
            {
                "start_time": 31.0704545,
                "end_time": 31.2045455,
                "pitch": 56,
                "velocity": 40,
                "duration": 0.1340909,
                "tempo": 120.0
            },
            {
                "start_time": 31.2204545,
                "end_time": 31.3545455,
                "pitch": 39,
                "velocity": 40,
                "duration": 0.1340909,
                "tempo": 120.0
            },
            {
                "start_time": 31.3704545,
                "end_time": 31.4204545,
                "pitch": 39,
                "velocity": 40,
                "duration": 0.05,
                "tempo": 120.0
            },
            {
                "start_time": 31.4545455,
                "end_time": 31.5045455,
                "pitch": 39,
                "velocity": 40,
                "duration": 0.05,
                "tempo": 120.0
            },
            {
                "start_time": 31.5204545,
                "end_time": 31.6568182,
                "pitch": 51,
                "velocity": 40,
                "duration": 0.1363636,
                "tempo": 120.0
            },
            {
                "start_time": 31.6727273,
                "end_time": 31.8068182,
                "pitch": 51,
                "velocity": 40,
                "duration": 0.1340909,
                "tempo": 120.0
            },
            {
                "start_time": 31.825,
                "end_time": 31.9590909,
                "pitch": 51,
                "velocity": 40,
                "duration": 0.1340909,
                "tempo": 120.0
            },
            {
                "start_time": 31.975,
                "end_time": 32.0272727,
                "pitch": 51,
                "velocity": 40,
                "duration": 0.0522727,
                "tempo": 120.0
            },
            {
                "start_time": 32.0590909,
                "end_time": 32.1772727,
                "pitch": 51,
                "velocity": 40,
                "duration": 0.1181818,
                "tempo": 120.0
            },
            {
                "start_time": 32.2113636,
                "end_time": 32.2613636,
                "pitch": 51,
                "velocity": 40,
                "duration": 0.05,
                "tempo": 120.0
            },
            {
                "start_time": 32.2772727,
                "end_time": 32.2931818,
                "pitch": 39,
                "velocity": 40,
                "duration": 0.0159091,
                "tempo": 120.0
            },
            {
                "start_time": 32.3113636,
                "end_time": 32.4113636,
                "pitch": 41,
                "velocity": 40,
                "duration": 0.1,
                "tempo": 120.0
            },
            {
                "start_time": 32.4272727,
                "end_time": 32.5613636,
                "pitch": 39,
                "velocity": 40,
                "duration": 0.1340909,
                "tempo": 120.0
            },
            {
                "start_time": 32.5772727,
                "end_time": 32.7113636,
                "pitch": 39,
                "velocity": 40,
                "duration": 0.1340909,
                "tempo": 120.0
            },
            {
                "start_time": 32.7272727,
                "end_time": 32.8613636,
                "pitch": 51,
                "velocity": 40,
                "duration": 0.1340909,
                "tempo": 120.0
            },
            {
                "start_time": 32.8795455,
                "end_time": 33.0136364,
                "pitch": 39,
                "velocity": 40,
                "duration": 0.1340909,
                "tempo": 120.0
            },
            {
                "start_time": 33.0295455,
                "end_time": 33.1659091,
                "pitch": 39,
                "velocity": 40,
                "duration": 0.1363636,
                "tempo": 120.0
            },
            {
                "start_time": 33.1818182,
                "end_time": 33.3159091,
                "pitch": 43,
                "velocity": 40,
                "duration": 0.1340909,
                "tempo": 120.0
            },
            {
                "start_time": 33.3340909,
                "end_time": 33.4681818,
                "pitch": 46,
                "velocity": 40,
                "duration": 0.1340909,
                "tempo": 120.0
            },
            {
                "start_time": 33.4840909,
                "end_time": 33.6204545,
                "pitch": 39,
                "velocity": 40,
                "duration": 0.1363636,
                "tempo": 120.0
            },
            {
                "start_time": 33.6363636,
                "end_time": 33.7704545,
                "pitch": 41,
                "velocity": 40,
                "duration": 0.1340909,
                "tempo": 120.0
            },
            {
                "start_time": 33.7886364,
                "end_time": 33.9227273,
                "pitch": 41,
                "velocity": 40,
                "duration": 0.1340909,
                "tempo": 120.0
            },
            {
                "start_time": 33.9386364,
                "end_time": 34.075,
                "pitch": 53,
                "velocity": 40,
                "duration": 0.1363636,
                "tempo": 120.0
            },
            {
                "start_time": 34.0909091,
                "end_time": 34.225,
                "pitch": 41,
                "velocity": 40,
                "duration": 0.1340909,
                "tempo": 120.0
            },
            {
                "start_time": 34.2431818,
                "end_time": 34.3772727,
                "pitch": 41,
                "velocity": 40,
                "duration": 0.1340909,
                "tempo": 120.0
            },
            {
                "start_time": 34.3931818,
                "end_time": 34.4454545,
                "pitch": 41,
                "velocity": 40,
                "duration": 0.0522727,
                "tempo": 120.0
            },
            {
                "start_time": 34.4772727,
                "end_time": 34.5295455,
                "pitch": 41,
                "velocity": 40,
                "duration": 0.0522727,
                "tempo": 120.0
            },
            {
                "start_time": 34.5454545,
                "end_time": 34.6795455,
                "pitch": 53,
                "velocity": 40,
                "duration": 0.1340909,
                "tempo": 120.0
            },
            {
                "start_time": 34.6954545,
                "end_time": 34.8295455,
                "pitch": 53,
                "velocity": 40,
                "duration": 0.1340909,
                "tempo": 120.0
            },
            {
                "start_time": 34.8454545,
                "end_time": 34.9795455,
                "pitch": 53,
                "velocity": 40,
                "duration": 0.1340909,
                "tempo": 120.0
            },
            {
                "start_time": 34.9954545,
                "end_time": 35.0454545,
                "pitch": 53,
                "velocity": 40,
                "duration": 0.05,
                "tempo": 120.0
            },
            {
                "start_time": 35.0795455,
                "end_time": 35.1295455,
                "pitch": 53,
                "velocity": 40,
                "duration": 0.05,
                "tempo": 120.0
            },
            {
                "start_time": 35.1454545,
                "end_time": 35.2795455,
                "pitch": 53,
                "velocity": 40,
                "duration": 0.1340909,
                "tempo": 120.0
            },
            {
                "start_time": 35.2977273,
                "end_time": 35.4318182,
                "pitch": 41,
                "velocity": 40,
                "duration": 0.1340909,
                "tempo": 120.0
            },
            {
                "start_time": 35.4477273,
                "end_time": 35.5840909,
                "pitch": 41,
                "velocity": 40,
                "duration": 0.1363636,
                "tempo": 120.0
            },
            {
                "start_time": 35.6,
                "end_time": 35.65,
                "pitch": 41,
                "velocity": 40,
                "duration": 0.05,
                "tempo": 120.0
            },
            {
                "start_time": 35.6840909,
                "end_time": 35.7340909,
                "pitch": 41,
                "velocity": 40,
                "duration": 0.05,
                "tempo": 120.0
            },
            {
                "start_time": 35.7522727,
                "end_time": 35.8863636,
                "pitch": 53,
                "velocity": 40,
                "duration": 0.1340909,
                "tempo": 120.0
            },
            {
                "start_time": 35.9022727,
                "end_time": 36.0386364,
                "pitch": 41,
                "velocity": 40,
                "duration": 0.1363636,
                "tempo": 120.0
            },
            {
                "start_time": 36.0545455,
                "end_time": 36.1886364,
                "pitch": 43,
                "velocity": 40,
                "duration": 0.1340909,
                "tempo": 120.0
            },
            {
                "start_time": 36.2068182,
                "end_time": 36.3068182,
                "pitch": 43,
                "velocity": 40,
                "duration": 0.1,
                "tempo": 120.0
            },
            {
                "start_time": 36.6545455,
                "end_time": 36.7863636,
                "pitch": 43,
                "velocity": 40,
                "duration": 0.1318182,
                "tempo": 120.0
            },
            {
                "start_time": 36.8022727,
                "end_time": 37.2409091,
                "pitch": 43,
                "velocity": 40,
                "duration": 0.4386364,
                "tempo": 120.0
            },
            {
                "start_time": 37.2568182,
                "end_time": 37.5477273,
                "pitch": 44,
                "velocity": 40,
                "duration": 0.2909091,
                "tempo": 120.0
            },
            {
                "start_time": 37.5636364,
                "end_time": 37.8477273,
                "pitch": 43,
                "velocity": 40,
                "duration": 0.2840909,
                "tempo": 120.0
            },
            {
                "start_time": 37.8636364,
                "end_time": 38.1477273,
                "pitch": 43,
                "velocity": 40,
                "duration": 0.2840909,
                "tempo": 120.0
            },
            {
                "start_time": 38.1636364,
                "end_time": 38.3613636,
                "pitch": 43,
                "velocity": 40,
                "duration": 0.1977273,
                "tempo": 120.0
            }
        ],
        "Flute": [
            {
                "start_time": 0.1840909,
                "end_time": 0.7704545,
                "pitch": 81,
                "velocity": 51,
                "duration": 0.5863636,
                "tempo": 120.0
            },
            {
                "start_time": 0.7886364,
                "end_time": 1.0704545,
                "pitch": 82,
                "velocity": 51,
                "duration": 0.2818182,
                "tempo": 120.0
            },
            {
                "start_time": 1.0886364,
                "end_time": 1.2204545,
                "pitch": 84,
                "velocity": 51,
                "duration": 0.1318182,
                "tempo": 120.0
            },
            {
                "start_time": 1.2386364,
                "end_time": 1.2886364,
                "pitch": 84,
                "velocity": 51,
                "duration": 0.05,
                "tempo": 120.0
            },
            {
                "start_time": 1.6886364,
                "end_time": 1.9704545,
                "pitch": 84,
                "velocity": 51,
                "duration": 0.2818182,
                "tempo": 120.0
            },
            {
                "start_time": 1.9886364,
                "end_time": 2.1227273,
                "pitch": 82,
                "velocity": 51,
                "duration": 0.1340909,
                "tempo": 120.0
            },
            {
                "start_time": 2.1386364,
                "end_time": 2.5772727,
                "pitch": 81,
                "velocity": 51,
                "duration": 0.4386364,
                "tempo": 120.0
            },
            {
                "start_time": 2.5931818,
                "end_time": 2.8795455,
                "pitch": 79,
                "velocity": 51,
                "duration": 0.2863636,
                "tempo": 120.0
            },
            {
                "start_time": 2.8977273,
                "end_time": 3.1840909,
                "pitch": 79,
                "velocity": 51,
                "duration": 0.2863636,
                "tempo": 120.0
            },
            {
                "start_time": 3.2,
                "end_time": 3.3340909,
                "pitch": 77,
                "velocity": 51,
                "duration": 0.1340909,
                "tempo": 120.0
            },
            {
                "start_time": 3.35,
                "end_time": 4.1545455,
                "pitch": 79,
                "velocity": 51,
                "duration": 0.8045455,
                "tempo": 120.0
            },
            {
                "start_time": 5.0113636,
                "end_time": 5.5954545,
                "pitch": 81,
                "velocity": 51,
                "duration": 0.5840909,
                "tempo": 120.0
            },
            {
                "start_time": 5.6113636,
                "end_time": 5.8954545,
                "pitch": 82,
                "velocity": 51,
                "duration": 0.2840909,
                "tempo": 120.0
            },
            {
                "start_time": 5.9113636,
                "end_time": 6.0454545,
                "pitch": 84,
                "velocity": 51,
                "duration": 0.1340909,
                "tempo": 120.0
            },
            {
                "start_time": 6.0613636,
                "end_time": 6.1613636,
                "pitch": 84,
                "velocity": 51,
                "duration": 0.1,
                "tempo": 120.0
            },
            {
                "start_time": 6.5159091,
                "end_time": 6.8022727,
                "pitch": 84,
                "velocity": 51,
                "duration": 0.2863636,
                "tempo": 120.0
            },
            {
                "start_time": 6.8181818,
                "end_time": 6.9522727,
                "pitch": 82,
                "velocity": 51,
                "duration": 0.1340909,
                "tempo": 120.0
            },
            {
                "start_time": 6.9681818,
                "end_time": 7.4022727,
                "pitch": 81,
                "velocity": 51,
                "duration": 0.4340909,
                "tempo": 120.0
            },
            {
                "start_time": 7.4181818,
                "end_time": 7.7045455,
                "pitch": 87,
                "velocity": 51,
                "duration": 0.2863636,
                "tempo": 120.0
            },
            {
                "start_time": 7.7204545,
                "end_time": 8.0068182,
                "pitch": 87,
                "velocity": 51,
                "duration": 0.2863636,
                "tempo": 120.0
            },
            {
                "start_time": 8.025,
                "end_time": 8.3068182,
                "pitch": 87,
                "velocity": 51,
                "duration": 0.2818182,
                "tempo": 120.0
            },
            {
                "start_time": 8.325,
                "end_time": 8.4568182,
                "pitch": 87,
                "velocity": 51,
                "duration": 0.1318182,
                "tempo": 120.0
            },
            {
                "start_time": 8.475,
                "end_time": 8.6068182,
                "pitch": 86,
                "velocity": 51,
                "duration": 0.1318182,
                "tempo": 120.0
            },
            {
                "start_time": 8.625,
                "end_time": 8.7568182,
                "pitch": 84,
                "velocity": 51,
                "duration": 0.1318182,
                "tempo": 120.0
            },
            {
                "start_time": 8.775,
                "end_time": 9.8068182,
                "pitch": 82,
                "velocity": 51,
                "duration": 1.0318182,
                "tempo": 120.0
            },
            {
                "start_time": 9.825,
                "end_time": 10.4136364,
                "pitch": 81,
                "velocity": 51,
                "duration": 0.5886364,
                "tempo": 120.0
            },
            {
                "start_time": 10.4295455,
                "end_time": 10.7136364,
                "pitch": 82,
                "velocity": 51,
                "duration": 0.2840909,
                "tempo": 120.0
            },
            {
                "start_time": 10.7295455,
                "end_time": 10.8636364,
                "pitch": 84,
                "velocity": 51,
                "duration": 0.1340909,
                "tempo": 120.0
            },
            {
                "start_time": 10.8795455,
                "end_time": 10.9636364,
                "pitch": 84,
                "velocity": 51,
                "duration": 0.0840909,
                "tempo": 120.0
            },
            {
                "start_time": 11.3295455,
                "end_time": 11.6136364,
                "pitch": 84,
                "velocity": 51,
                "duration": 0.2840909,
                "tempo": 120.0
            },
            {
                "start_time": 11.6295455,
                "end_time": 11.7636364,
                "pitch": 82,
                "velocity": 51,
                "duration": 0.1340909,
                "tempo": 120.0
            },
            {
                "start_time": 11.7795455,
                "end_time": 12.2136364,
                "pitch": 81,
                "velocity": 51,
                "duration": 0.4340909,
                "tempo": 120.0
            },
            {
                "start_time": 12.2295455,
                "end_time": 12.5136364,
                "pitch": 79,
                "velocity": 51,
                "duration": 0.2840909,
                "tempo": 120.0
            },
            {
                "start_time": 12.5295455,
                "end_time": 12.8136364,
                "pitch": 79,
                "velocity": 51,
                "duration": 0.2840909,
                "tempo": 120.0
            },
            {
                "start_time": 12.8295455,
                "end_time": 12.9659091,
                "pitch": 77,
                "velocity": 51,
                "duration": 0.1363636,
                "tempo": 120.0
            },
            {
                "start_time": 12.9818182,
                "end_time": 14.1704545,
                "pitch": 79,
                "velocity": 51,
                "duration": 1.1886364,
                "tempo": 120.0
            },
            {
                "start_time": 14.6363636,
                "end_time": 15.2204545,
                "pitch": 81,
                "velocity": 51,
                "duration": 0.5840909,
                "tempo": 120.0
            },
            {
                "start_time": 15.2363636,
                "end_time": 15.5204545,
                "pitch": 82,
                "velocity": 51,
                "duration": 0.2840909,
                "tempo": 120.0
            },
            {
                "start_time": 15.5363636,
                "end_time": 15.6704545,
                "pitch": 84,
                "velocity": 51,
                "duration": 0.1340909,
                "tempo": 120.0
            },
            {
                "start_time": 15.6863636,
                "end_time": 15.7863636,
                "pitch": 84,
                "velocity": 51,
                "duration": 0.1,
                "tempo": 120.0
            },
            {
                "start_time": 16.1386364,
                "end_time": 16.425,
                "pitch": 84,
                "velocity": 51,
                "duration": 0.2863636,
                "tempo": 120.0
            },
            {
                "start_time": 16.4431818,
                "end_time": 16.575,
                "pitch": 82,
                "velocity": 51,
                "duration": 0.1318182,
                "tempo": 120.0
            },
            {
                "start_time": 16.5931818,
                "end_time": 17.025,
                "pitch": 81,
                "velocity": 51,
                "duration": 0.4318182,
                "tempo": 120.0
            },
            {
                "start_time": 17.0431818,
                "end_time": 17.325,
                "pitch": 86,
                "velocity": 51,
                "duration": 0.2818182,
                "tempo": 120.0
            },
            {
                "start_time": 17.3431818,
                "end_time": 17.3590909,
                "pitch": 86,
                "velocity": 51,
                "duration": 0.0159091,
                "tempo": 120.0
            },
            {
                "start_time": 17.375,
                "end_time": 17.625,
                "pitch": 87,
                "velocity": 51,
                "duration": 0.25,
                "tempo": 120.0
            },
            {
                "start_time": 17.6431818,
                "end_time": 17.6590909,
                "pitch": 86,
                "velocity": 51,
                "duration": 0.0159091,
                "tempo": 120.0
            },
            {
                "start_time": 17.675,
                "end_time": 17.7772727,
                "pitch": 87,
                "velocity": 51,
                "duration": 0.1022727,
                "tempo": 120.0
            },
            {
                "start_time": 17.7931818,
                "end_time": 19.1386364,
                "pitch": 86,
                "velocity": 51,
                "duration": 1.3454545,
                "tempo": 120.0
            },
            {
                "start_time": 19.1545455,
                "end_time": 19.2886364,
                "pitch": 87,
                "velocity": 51,
                "duration": 0.1340909,
                "tempo": 120.0
            },
            {
                "start_time": 19.3045455,
                "end_time": 19.5886364,
                "pitch": 87,
                "velocity": 51,
                "duration": 0.2840909,
                "tempo": 120.0
            },
            {
                "start_time": 19.6068182,
                "end_time": 19.7409091,
                "pitch": 87,
                "velocity": 51,
                "duration": 0.1340909,
                "tempo": 120.0
            },
            {
                "start_time": 19.7568182,
                "end_time": 20.0431818,
                "pitch": 87,
                "velocity": 51,
                "duration": 0.2863636,
                "tempo": 120.0
            },
            {
                "start_time": 20.0613636,
                "end_time": 20.1931818,
                "pitch": 87,
                "velocity": 51,
                "duration": 0.1318182,
                "tempo": 120.0
            },
            {
                "start_time": 20.2113636,
                "end_time": 20.4931818,
                "pitch": 87,
                "velocity": 51,
                "duration": 0.2818182,
                "tempo": 120.0
            },
            {
                "start_time": 20.5113636,
                "end_time": 20.6431818,
                "pitch": 87,
                "velocity": 51,
                "duration": 0.1318182,
                "tempo": 120.0
            },
            {
                "start_time": 20.6613636,
                "end_time": 20.9477273,
                "pitch": 87,
                "velocity": 51,
                "duration": 0.2863636,
                "tempo": 120.0
            },
            {
                "start_time": 20.9636364,
                "end_time": 21.0977273,
                "pitch": 87,
                "velocity": 51,
                "duration": 0.1340909,
                "tempo": 120.0
            },
            {
                "start_time": 21.1159091,
                "end_time": 21.4022727,
                "pitch": 86,
                "velocity": 51,
                "duration": 0.2863636,
                "tempo": 120.0
            },
            {
                "start_time": 21.4181818,
                "end_time": 21.8568182,
                "pitch": 84,
                "velocity": 51,
                "duration": 0.4386364,
                "tempo": 120.0
            },
            {
                "start_time": 21.8727273,
                "end_time": 22.1568182,
                "pitch": 84,
                "velocity": 51,
                "duration": 0.2840909,
                "tempo": 120.0
            },
            {
                "start_time": 22.1727273,
                "end_time": 22.4568182,
                "pitch": 84,
                "velocity": 51,
                "duration": 0.2840909,
                "tempo": 120.0
            },
            {
                "start_time": 22.4727273,
                "end_time": 22.6068182,
                "pitch": 82,
                "velocity": 51,
                "duration": 0.1340909,
                "tempo": 120.0
            },
            {
                "start_time": 22.625,
                "end_time": 23.5113636,
                "pitch": 84,
                "velocity": 51,
                "duration": 0.8863636,
                "tempo": 120.0
            },
            {
                "start_time": 23.5295455,
                "end_time": 23.6613636,
                "pitch": 84,
                "velocity": 51,
                "duration": 0.1318182,
                "tempo": 120.0
            },
            {
                "start_time": 23.6795455,
                "end_time": 23.8136364,
                "pitch": 82,
                "velocity": 51,
                "duration": 0.1340909,
                "tempo": 120.0
            },
            {
                "start_time": 23.8295455,
                "end_time": 23.9659091,
                "pitch": 81,
                "velocity": 51,
                "duration": 0.1363636,
                "tempo": 120.0
            },
            {
                "start_time": 23.9818182,
                "end_time": 24.4204545,
                "pitch": 82,
                "velocity": 51,
                "duration": 0.4386364,
                "tempo": 120.0
            },
            {
                "start_time": 24.4363636,
                "end_time": 24.5704545,
                "pitch": 81,
                "velocity": 51,
                "duration": 0.1340909,
                "tempo": 120.0
            },
            {
                "start_time": 24.5886364,
                "end_time": 25.175,
                "pitch": 81,
                "velocity": 51,
                "duration": 0.5863636,
                "tempo": 120.0
            },
            {
                "start_time": 25.1909091,
                "end_time": 25.325,
                "pitch": 84,
                "velocity": 51,
                "duration": 0.1340909,
                "tempo": 120.0
            },
            {
                "start_time": 25.3409091,
                "end_time": 25.375,
                "pitch": 82,
                "velocity": 51,
                "duration": 0.0340909,
                "tempo": 120.0
            },
            {
                "start_time": 25.7272727,
                "end_time": 25.8272727,
                "pitch": 84,
                "velocity": 51,
                "duration": 0.1,
                "tempo": 120.0
            },
            {
                "start_time": 26.6977273,
                "end_time": 26.9772727,
                "pitch": 86,
                "velocity": 51,
                "duration": 0.2795455,
                "tempo": 120.0
            },
            {
                "start_time": 26.9931818,
                "end_time": 27.275,
                "pitch": 86,
                "velocity": 51,
                "duration": 0.2818182,
                "tempo": 120.0
            },
            {
                "start_time": 27.2909091,
                "end_time": 27.5795455,
                "pitch": 86,
                "velocity": 51,
                "duration": 0.2886364,
                "tempo": 120.0
            },
            {
                "start_time": 27.5977273,
                "end_time": 27.8863636,
                "pitch": 91,
                "velocity": 51,
                "duration": 0.2886364,
                "tempo": 120.0
            },
            {
                "start_time": 27.9022727,
                "end_time": 28.7886364,
                "pitch": 91,
                "velocity": 51,
                "duration": 0.8863636,
                "tempo": 120.0
            },
            {
                "start_time": 28.8068182,
                "end_time": 28.9409091,
                "pitch": 87,
                "velocity": 51,
                "duration": 0.1340909,
                "tempo": 120.0
            },
            {
                "start_time": 28.9568182,
                "end_time": 29.2431818,
                "pitch": 87,
                "velocity": 51,
                "duration": 0.2863636,
                "tempo": 120.0
            },
            {
                "start_time": 29.2590909,
                "end_time": 29.3931818,
                "pitch": 87,
                "velocity": 51,
                "duration": 0.1340909,
                "tempo": 120.0
            },
            {
                "start_time": 29.4090909,
                "end_time": 29.6931818,
                "pitch": 87,
                "velocity": 51,
                "duration": 0.2840909,
                "tempo": 120.0
            },
            {
                "start_time": 29.7090909,
                "end_time": 29.8431818,
                "pitch": 87,
                "velocity": 51,
                "duration": 0.1340909,
                "tempo": 120.0
            },
            {
                "start_time": 29.8613636,
                "end_time": 30.1477273,
                "pitch": 87,
                "velocity": 51,
                "duration": 0.2863636,
                "tempo": 120.0
            },
            {
                "start_time": 30.1636364,
                "end_time": 30.2977273,
                "pitch": 87,
                "velocity": 51,
                "duration": 0.1340909,
                "tempo": 120.0
            },
            {
                "start_time": 30.3159091,
                "end_time": 30.6022727,
                "pitch": 87,
                "velocity": 51,
                "duration": 0.2863636,
                "tempo": 120.0
            },
            {
                "start_time": 30.6181818,
                "end_time": 30.7522727,
                "pitch": 87,
                "velocity": 51,
                "duration": 0.1340909,
                "tempo": 120.0
            },
            {
                "start_time": 30.7704545,
                "end_time": 31.0545455,
                "pitch": 86,
                "velocity": 51,
                "duration": 0.2840909,
                "tempo": 120.0
            },
            {
                "start_time": 31.0704545,
                "end_time": 31.5045455,
                "pitch": 84,
                "velocity": 51,
                "duration": 0.4340909,
                "tempo": 120.0
            },
            {
                "start_time": 31.5204545,
                "end_time": 31.8068182,
                "pitch": 84,
                "velocity": 51,
                "duration": 0.2863636,
                "tempo": 120.0
            },
            {
                "start_time": 31.825,
                "end_time": 32.1113636,
                "pitch": 84,
                "velocity": 51,
                "duration": 0.2863636,
                "tempo": 120.0
            },
            {
                "start_time": 32.1272727,
                "end_time": 32.2613636,
                "pitch": 82,
                "velocity": 51,
                "duration": 0.1340909,
                "tempo": 120.0
            },
            {
                "start_time": 32.2772727,
                "end_time": 33.1659091,
                "pitch": 84,
                "velocity": 51,
                "duration": 0.8886364,
                "tempo": 120.0
            },
            {
                "start_time": 33.1818182,
                "end_time": 33.3159091,
                "pitch": 84,
                "velocity": 51,
                "duration": 0.1340909,
                "tempo": 120.0
            },
            {
                "start_time": 33.3340909,
                "end_time": 33.4681818,
                "pitch": 82,
                "velocity": 51,
                "duration": 0.1340909,
                "tempo": 120.0
            },
            {
                "start_time": 33.4840909,
                "end_time": 33.6204545,
                "pitch": 81,
                "velocity": 51,
                "duration": 0.1363636,
                "tempo": 120.0
            },
            {
                "start_time": 33.6363636,
                "end_time": 34.075,
                "pitch": 82,
                "velocity": 51,
                "duration": 0.4386364,
                "tempo": 120.0
            },
            {
                "start_time": 34.0909091,
                "end_time": 34.225,
                "pitch": 81,
                "velocity": 51,
                "duration": 0.1340909,
                "tempo": 120.0
            },
            {
                "start_time": 34.2431818,
                "end_time": 34.8295455,
                "pitch": 81,
                "velocity": 51,
                "duration": 0.5863636,
                "tempo": 120.0
            },
            {
                "start_time": 34.8454545,
                "end_time": 34.9795455,
                "pitch": 84,
                "velocity": 51,
                "duration": 0.1340909,
                "tempo": 120.0
            },
            {
                "start_time": 34.9954545,
                "end_time": 35.0295455,
                "pitch": 82,
                "velocity": 51,
                "duration": 0.0340909,
                "tempo": 120.0
            },
            {
                "start_time": 35.3818182,
                "end_time": 35.4818182,
                "pitch": 84,
                "velocity": 51,
                "duration": 0.1,
                "tempo": 120.0
            },
            {
                "start_time": 36.3568182,
                "end_time": 36.6386364,
                "pitch": 86,
                "velocity": 51,
                "duration": 0.2818182,
                "tempo": 120.0
            },
            {
                "start_time": 36.6545455,
                "end_time": 36.9340909,
                "pitch": 86,
                "velocity": 51,
                "duration": 0.2795455,
                "tempo": 120.0
            },
            {
                "start_time": 36.9522727,
                "end_time": 37.2409091,
                "pitch": 86,
                "velocity": 51,
                "duration": 0.2886364,
                "tempo": 120.0
            },
            {
                "start_time": 37.2568182,
                "end_time": 37.5477273,
                "pitch": 91,
                "velocity": 51,
                "duration": 0.2909091,
                "tempo": 120.0
            },
            {
                "start_time": 37.5636364,
                "end_time": 38.1636364,
                "pitch": 91,
                "velocity": 51,
                "duration": 0.6,
                "tempo": 120.0
            }
        ],
        "Vibraphone": [
            {
                "start_time": 0.0045455,
                "end_time": 0.0727273,
                "pitch": 93,
                "velocity": 40,
                "duration": 0.0681818,
                "tempo": 120.0
            },
            {
                "start_time": 0.0840909,
                "end_time": 0.1159091,
                "pitch": 89,
                "velocity": 40,
                "duration": 0.0318182,
                "tempo": 120.0
            },
            {
                "start_time": 0.1386364,
                "end_time": 0.1727273,
                "pitch": 84,
                "velocity": 40,
                "duration": 0.0340909,
                "tempo": 120.0
            },
            {
                "start_time": 0.1840909,
                "end_time": 0.3159091,
                "pitch": 93,
                "velocity": 40,
                "duration": 0.1318182,
                "tempo": 120.0
            },
            {
                "start_time": 0.3340909,
                "end_time": 0.3840909,
                "pitch": 89,
                "velocity": 40,
                "duration": 0.05,
                "tempo": 120.0
            },
            {
                "start_time": 0.4181818,
                "end_time": 0.4681818,
                "pitch": 84,
                "velocity": 40,
                "duration": 0.05,
                "tempo": 120.0
            },
            {
                "start_time": 0.4840909,
                "end_time": 0.6204545,
                "pitch": 93,
                "velocity": 40,
                "duration": 0.1363636,
                "tempo": 120.0
            },
            {
                "start_time": 0.6363636,
                "end_time": 0.6863636,
                "pitch": 89,
                "velocity": 40,
                "duration": 0.05,
                "tempo": 120.0
            },
            {
                "start_time": 0.7204545,
                "end_time": 0.7363636,
                "pitch": 84,
                "velocity": 40,
                "duration": 0.0159091,
                "tempo": 120.0
            },
            {
                "start_time": 0.7704545,
                "end_time": 0.8886364,
                "pitch": 93,
                "velocity": 40,
                "duration": 0.1181818,
                "tempo": 120.0
            },
            {
                "start_time": 0.9204545,
                "end_time": 0.9704545,
                "pitch": 89,
                "velocity": 40,
                "duration": 0.05,
                "tempo": 120.0
            },
            {
                "start_time": 0.9886364,
                "end_time": 1.0704545,
                "pitch": 84,
                "velocity": 40,
                "duration": 0.0818182,
                "tempo": 120.0
            },
            {
                "start_time": 1.0886364,
                "end_time": 1.1886364,
                "pitch": 93,
                "velocity": 40,
                "duration": 0.1,
                "tempo": 120.0
            },
            {
                "start_time": 1.2204545,
                "end_time": 1.2886364,
                "pitch": 89,
                "velocity": 40,
                "duration": 0.0681818,
                "tempo": 120.0
            },
            {
                "start_time": 1.3204545,
                "end_time": 1.3704545,
                "pitch": 84,
                "velocity": 40,
                "duration": 0.05,
                "tempo": 120.0
            },
            {
                "start_time": 1.3886364,
                "end_time": 1.5204545,
                "pitch": 93,
                "velocity": 40,
                "duration": 0.1318182,
                "tempo": 120.0
            },
            {
                "start_time": 1.5386364,
                "end_time": 1.5886364,
                "pitch": 89,
                "velocity": 40,
                "duration": 0.05,
                "tempo": 120.0
            },
            {
                "start_time": 1.6204545,
                "end_time": 1.6704545,
                "pitch": 84,
                "velocity": 40,
                "duration": 0.05,
                "tempo": 120.0
            },
            {
                "start_time": 1.6886364,
                "end_time": 1.8204545,
                "pitch": 93,
                "velocity": 40,
                "duration": 0.1318182,
                "tempo": 120.0
            },
            {
                "start_time": 1.8386364,
                "end_time": 1.8886364,
                "pitch": 89,
                "velocity": 40,
                "duration": 0.05,
                "tempo": 120.0
            },
            {
                "start_time": 1.9204545,
                "end_time": 1.9704545,
                "pitch": 84,
                "velocity": 40,
                "duration": 0.05,
                "tempo": 120.0
            },
            {
                "start_time": 1.9886364,
                "end_time": 2.1227273,
                "pitch": 93,
                "velocity": 40,
                "duration": 0.1340909,
                "tempo": 120.0
            },
            {
                "start_time": 2.1386364,
                "end_time": 2.1909091,
                "pitch": 89,
                "velocity": 40,
                "duration": 0.0522727,
                "tempo": 120.0
            },
            {
                "start_time": 2.2227273,
                "end_time": 2.275,
                "pitch": 84,
                "velocity": 40,
                "duration": 0.0522727,
                "tempo": 120.0
            },
            {
                "start_time": 2.2909091,
                "end_time": 2.425,
                "pitch": 91,
                "velocity": 40,
                "duration": 0.1340909,
                "tempo": 120.0
            },
            {
                "start_time": 2.4431818,
                "end_time": 2.475,
                "pitch": 87,
                "velocity": 40,
                "duration": 0.0318182,
                "tempo": 120.0
            },
            {
                "start_time": 2.4931818,
                "end_time": 2.5772727,
                "pitch": 82,
                "velocity": 40,
                "duration": 0.0840909,
                "tempo": 120.0
            },
            {
                "start_time": 2.5931818,
                "end_time": 2.7295455,
                "pitch": 91,
                "velocity": 40,
                "duration": 0.1363636,
                "tempo": 120.0
            },
            {
                "start_time": 2.7454545,
                "end_time": 2.7954545,
                "pitch": 87,
                "velocity": 40,
                "duration": 0.05,
                "tempo": 120.0
            },
            {
                "start_time": 2.8295455,
                "end_time": 2.8795455,
                "pitch": 82,
                "velocity": 40,
                "duration": 0.05,
                "tempo": 120.0
            },
            {
                "start_time": 2.8977273,
                "end_time": 3.0318182,
                "pitch": 91,
                "velocity": 40,
                "duration": 0.1340909,
                "tempo": 120.0
            },
            {
                "start_time": 3.0477273,
                "end_time": 3.0818182,
                "pitch": 87,
                "velocity": 40,
                "duration": 0.0340909,
                "tempo": 120.0
            },
            {
                "start_time": 3.1,
                "end_time": 3.1840909,
                "pitch": 82,
                "velocity": 40,
                "duration": 0.0840909,
                "tempo": 120.0
            },
            {
                "start_time": 3.2,
                "end_time": 3.3340909,
                "pitch": 91,
                "velocity": 40,
                "duration": 0.1340909,
                "tempo": 120.0
            },
            {
                "start_time": 3.35,
                "end_time": 3.4,
                "pitch": 87,
                "velocity": 40,
                "duration": 0.05,
                "tempo": 120.0
            },
            {
                "start_time": 3.4340909,
                "end_time": 3.4840909,
                "pitch": 82,
                "velocity": 40,
                "duration": 0.05,
                "tempo": 120.0
            },
            {
                "start_time": 3.5,
                "end_time": 3.6,
                "pitch": 91,
                "velocity": 40,
                "duration": 0.1,
                "tempo": 120.0
            },
            {
                "start_time": 3.6340909,
                "end_time": 3.7,
                "pitch": 87,
                "velocity": 40,
                "duration": 0.0659091,
                "tempo": 120.0
            },
            {
                "start_time": 3.7340909,
                "end_time": 3.75,
                "pitch": 82,
                "velocity": 40,
                "duration": 0.0159091,
                "tempo": 120.0
            },
            {
                "start_time": 3.7840909,
                "end_time": 3.9,
                "pitch": 91,
                "velocity": 40,
                "duration": 0.1159091,
                "tempo": 120.0
            },
            {
                "start_time": 3.9340909,
                "end_time": 4.0022727,
                "pitch": 87,
                "velocity": 40,
                "duration": 0.0681818,
                "tempo": 120.0
            },
            {
                "start_time": 4.0363636,
                "end_time": 4.0522727,
                "pitch": 82,
                "velocity": 40,
                "duration": 0.0159091,
                "tempo": 120.0
            },
            {
                "start_time": 4.0863636,
                "end_time": 4.2045455,
                "pitch": 91,
                "velocity": 40,
                "duration": 0.1181818,
                "tempo": 120.0
            },
            {
                "start_time": 4.2386364,
                "end_time": 4.3045455,
                "pitch": 87,
                "velocity": 40,
                "duration": 0.0659091,
                "tempo": 120.0
            },
            {
                "start_time": 4.3386364,
                "end_time": 4.3545455,
                "pitch": 82,
                "velocity": 40,
                "duration": 0.0159091,
                "tempo": 120.0
            },
            {
                "start_time": 4.3886364,
                "end_time": 4.5068182,
                "pitch": 87,
                "velocity": 40,
                "duration": 0.1181818,
                "tempo": 120.0
            },
            {
                "start_time": 4.5409091,
                "end_time": 4.6931818,
                "pitch": 91,
                "velocity": 40,
                "duration": 0.1522727,
                "tempo": 120.0
            },
            {
                "start_time": 4.7090909,
                "end_time": 4.8431818,
                "pitch": 93,
                "velocity": 40,
                "duration": 0.1340909,
                "tempo": 120.0
            },
            {
                "start_time": 4.8613636,
                "end_time": 4.9113636,
                "pitch": 89,
                "velocity": 40,
                "duration": 0.05,
                "tempo": 120.0
            },
            {
                "start_time": 4.9454545,
                "end_time": 4.9954545,
                "pitch": 84,
                "velocity": 40,
                "duration": 0.05,
                "tempo": 120.0
            },
            {
                "start_time": 5.0113636,
                "end_time": 5.1454545,
                "pitch": 93,
                "velocity": 40,
                "duration": 0.1340909,
                "tempo": 120.0
            },
            {
                "start_time": 5.1613636,
                "end_time": 5.2113636,
                "pitch": 89,
                "velocity": 40,
                "duration": 0.05,
                "tempo": 120.0
            },
            {
                "start_time": 5.2454545,
                "end_time": 5.2954545,
                "pitch": 84,
                "velocity": 40,
                "duration": 0.05,
                "tempo": 120.0
            },
            {
                "start_time": 5.3113636,
                "end_time": 5.4454545,
                "pitch": 93,
                "velocity": 40,
                "duration": 0.1340909,
                "tempo": 120.0
            },
            {
                "start_time": 5.4613636,
                "end_time": 5.5113636,
                "pitch": 89,
                "velocity": 40,
                "duration": 0.05,
                "tempo": 120.0
            },
            {
                "start_time": 5.5454545,
                "end_time": 5.6113636,
                "pitch": 84,
                "velocity": 40,
                "duration": 0.0659091,
                "tempo": 120.0
            },
            {
                "start_time": 5.6454545,
                "end_time": 5.7454545,
                "pitch": 93,
                "velocity": 40,
                "duration": 0.1,
                "tempo": 120.0
            },
            {
                "start_time": 5.7613636,
                "end_time": 5.8113636,
                "pitch": 89,
                "velocity": 40,
                "duration": 0.05,
                "tempo": 120.0
            },
            {
                "start_time": 5.8454545,
                "end_time": 5.8954545,
                "pitch": 84,
                "velocity": 40,
                "duration": 0.05,
                "tempo": 120.0
            },
            {
                "start_time": 5.9113636,
                "end_time": 6.0613636,
                "pitch": 93,
                "velocity": 40,
                "duration": 0.15,
                "tempo": 120.0
            },
            {
                "start_time": 6.0954545,
                "end_time": 6.1454545,
                "pitch": 89,
                "velocity": 40,
                "duration": 0.05,
                "tempo": 120.0
            },
            {
                "start_time": 6.1613636,
                "end_time": 6.1954545,
                "pitch": 84,
                "velocity": 40,
                "duration": 0.0340909,
                "tempo": 120.0
            },
            {
                "start_time": 6.2113636,
                "end_time": 6.3477273,
                "pitch": 93,
                "velocity": 40,
                "duration": 0.1363636,
                "tempo": 120.0
            },
            {
                "start_time": 6.3636364,
                "end_time": 6.4136364,
                "pitch": 89,
                "velocity": 40,
                "duration": 0.05,
                "tempo": 120.0
            },
            {
                "start_time": 6.4477273,
                "end_time": 6.4977273,
                "pitch": 84,
                "velocity": 40,
                "duration": 0.05,
                "tempo": 120.0
            },
            {
                "start_time": 6.5159091,
                "end_time": 6.65,
                "pitch": 93,
                "velocity": 40,
                "duration": 0.1340909,
                "tempo": 120.0
            },
            {
                "start_time": 6.6659091,
                "end_time": 6.7181818,
                "pitch": 89,
                "velocity": 40,
                "duration": 0.0522727,
                "tempo": 120.0
            },
            {
                "start_time": 6.75,
                "end_time": 6.8022727,
                "pitch": 84,
                "velocity": 40,
                "duration": 0.0522727,
                "tempo": 120.0
            },
            {
                "start_time": 6.8181818,
                "end_time": 6.9522727,
                "pitch": 93,
                "velocity": 40,
                "duration": 0.1340909,
                "tempo": 120.0
            },
            {
                "start_time": 6.9681818,
                "end_time": 7.0181818,
                "pitch": 89,
                "velocity": 40,
                "duration": 0.05,
                "tempo": 120.0
            },
            {
                "start_time": 7.0522727,
                "end_time": 7.1022727,
                "pitch": 84,
                "velocity": 40,
                "duration": 0.05,
                "tempo": 120.0
            },
            {
                "start_time": 7.1181818,
                "end_time": 7.2522727,
                "pitch": 91,
                "velocity": 40,
                "duration": 0.1340909,
                "tempo": 120.0
            },
            {
                "start_time": 7.2681818,
                "end_time": 7.3022727,
                "pitch": 87,
                "velocity": 40,
                "duration": 0.0340909,
                "tempo": 120.0
            },
            {
                "start_time": 7.3181818,
                "end_time": 7.4022727,
                "pitch": 82,
                "velocity": 40,
                "duration": 0.0840909,
                "tempo": 120.0
            },
            {
                "start_time": 7.4181818,
                "end_time": 7.5522727,
                "pitch": 91,
                "velocity": 40,
                "duration": 0.1340909,
                "tempo": 120.0
            },
            {
                "start_time": 7.5704545,
                "end_time": 7.6204545,
                "pitch": 87,
                "velocity": 40,
                "duration": 0.05,
                "tempo": 120.0
            },
            {
                "start_time": 7.6545455,
                "end_time": 7.7045455,
                "pitch": 82,
                "velocity": 40,
                "duration": 0.05,
                "tempo": 120.0
            },
            {
                "start_time": 7.7204545,
                "end_time": 7.8727273,
                "pitch": 91,
                "velocity": 40,
                "duration": 0.1522727,
                "tempo": 120.0
            },
            {
                "start_time": 7.9068182,
                "end_time": 7.9227273,
                "pitch": 87,
                "velocity": 40,
                "duration": 0.0159091,
                "tempo": 120.0
            },
            {
                "start_time": 7.9227273,
                "end_time": 8.0068182,
                "pitch": 82,
                "velocity": 40,
                "duration": 0.0840909,
                "tempo": 120.0
            },
            {
                "start_time": 8.025,
                "end_time": 8.1568182,
                "pitch": 91,
                "velocity": 40,
                "duration": 0.1318182,
                "tempo": 120.0
            },
            {
                "start_time": 8.175,
                "end_time": 8.225,
                "pitch": 87,
                "velocity": 40,
                "duration": 0.05,
                "tempo": 120.0
            },
            {
                "start_time": 8.2568182,
                "end_time": 8.3068182,
                "pitch": 82,
                "velocity": 40,
                "duration": 0.05,
                "tempo": 120.0
            },
            {
                "start_time": 8.325,
                "end_time": 8.425,
                "pitch": 91,
                "velocity": 40,
                "duration": 0.1,
                "tempo": 120.0
            },
            {
                "start_time": 8.4568182,
                "end_time": 8.575,
                "pitch": 87,
                "velocity": 40,
                "duration": 0.1181818,
                "tempo": 120.0
            },
            {
                "start_time": 8.6068182,
                "end_time": 8.725,
                "pitch": 82,
                "velocity": 40,
                "duration": 0.1181818,
                "tempo": 120.0
            },
            {
                "start_time": 8.7568182,
                "end_time": 8.8568182,
                "pitch": 87,
                "velocity": 40,
                "duration": 0.1,
                "tempo": 120.0
            },
            {
                "start_time": 8.875,
                "end_time": 9.0068182,
                "pitch": 91,
                "velocity": 40,
                "duration": 0.1318182,
                "tempo": 120.0
            },
            {
                "start_time": 9.025,
                "end_time": 9.175,
                "pitch": 87,
                "velocity": 40,
                "duration": 0.15,
                "tempo": 120.0
            },
            {
                "start_time": 9.2068182,
                "end_time": 9.325,
                "pitch": 82,
                "velocity": 40,
                "duration": 0.1181818,
                "tempo": 120.0
            },
            {
                "start_time": 9.3568182,
                "end_time": 9.475,
                "pitch": 91,
                "velocity": 40,
                "duration": 0.1181818,
                "tempo": 120.0
            },
            {
                "start_time": 9.5068182,
                "end_time": 9.625,
                "pitch": 93,
                "velocity": 40,
                "duration": 0.1181818,
                "tempo": 120.0
            },
            {
                "start_time": 9.6568182,
                "end_time": 9.7068182,
                "pitch": 89,
                "velocity": 40,
                "duration": 0.05,
                "tempo": 120.0
            },
            {
                "start_time": 9.725,
                "end_time": 9.775,
                "pitch": 84,
                "velocity": 40,
                "duration": 0.05,
                "tempo": 120.0
            },
            {
                "start_time": 9.8068182,
                "end_time": 9.9590909,
                "pitch": 93,
                "velocity": 40,
                "duration": 0.1522727,
                "tempo": 120.0
            },
            {
                "start_time": 9.975,
                "end_time": 10.0272727,
                "pitch": 89,
                "velocity": 40,
                "duration": 0.0522727,
                "tempo": 120.0
            },
            {
                "start_time": 10.0590909,
                "end_time": 10.1113636,
                "pitch": 84,
                "velocity": 40,
                "duration": 0.0522727,
                "tempo": 120.0
            },
            {
                "start_time": 10.1272727,
                "end_time": 10.2613636,
                "pitch": 93,
                "velocity": 40,
                "duration": 0.1340909,
                "tempo": 120.0
            },
            {
                "start_time": 10.2795455,
                "end_time": 10.3295455,
                "pitch": 89,
                "velocity": 40,
                "duration": 0.05,
                "tempo": 120.0
            },
            {
                "start_time": 10.3636364,
                "end_time": 10.4295455,
                "pitch": 84,
                "velocity": 40,
                "duration": 0.0659091,
                "tempo": 120.0
            },
            {
                "start_time": 10.4636364,
                "end_time": 10.5636364,
                "pitch": 93,
                "velocity": 40,
                "duration": 0.1,
                "tempo": 120.0
            },
            {
                "start_time": 10.5795455,
                "end_time": 10.6295455,
                "pitch": 89,
                "velocity": 40,
                "duration": 0.05,
                "tempo": 120.0
            },
            {
                "start_time": 10.6636364,
                "end_time": 10.7136364,
                "pitch": 84,
                "velocity": 40,
                "duration": 0.05,
                "tempo": 120.0
            },
            {
                "start_time": 10.7295455,
                "end_time": 10.8636364,
                "pitch": 93,
                "velocity": 40,
                "duration": 0.1340909,
                "tempo": 120.0
            },
            {
                "start_time": 10.8795455,
                "end_time": 10.9295455,
                "pitch": 89,
                "velocity": 40,
                "duration": 0.05,
                "tempo": 120.0
            },
            {
                "start_time": 10.9636364,
                "end_time": 11.0295455,
                "pitch": 84,
                "velocity": 40,
                "duration": 0.0659091,
                "tempo": 120.0
            },
            {
                "start_time": 11.0636364,
                "end_time": 11.1636364,
                "pitch": 93,
                "velocity": 40,
                "duration": 0.1,
                "tempo": 120.0
            },
            {
                "start_time": 11.1795455,
                "end_time": 11.2295455,
                "pitch": 89,
                "velocity": 40,
                "duration": 0.05,
                "tempo": 120.0
            },
            {
                "start_time": 11.2636364,
                "end_time": 11.2795455,
                "pitch": 84,
                "velocity": 40,
                "duration": 0.0159091,
                "tempo": 120.0
            },
            {
                "start_time": 11.3136364,
                "end_time": 11.4295455,
                "pitch": 93,
                "velocity": 40,
                "duration": 0.1159091,
                "tempo": 120.0
            },
            {
                "start_time": 11.4636364,
                "end_time": 11.5295455,
                "pitch": 89,
                "velocity": 40,
                "duration": 0.0659091,
                "tempo": 120.0
            },
            {
                "start_time": 11.5636364,
                "end_time": 11.5795455,
                "pitch": 84,
                "velocity": 40,
                "duration": 0.0159091,
                "tempo": 120.0
            },
            {
                "start_time": 11.6136364,
                "end_time": 11.7636364,
                "pitch": 93,
                "velocity": 40,
                "duration": 0.15,
                "tempo": 120.0
            },
            {
                "start_time": 11.7795455,
                "end_time": 11.8295455,
                "pitch": 89,
                "velocity": 40,
                "duration": 0.05,
                "tempo": 120.0
            },
            {
                "start_time": 11.8636364,
                "end_time": 11.8795455,
                "pitch": 84,
                "velocity": 40,
                "duration": 0.0159091,
                "tempo": 120.0
            },
            {
                "start_time": 11.9136364,
                "end_time": 12.0636364,
                "pitch": 91,
                "velocity": 40,
                "duration": 0.15,
                "tempo": 120.0
            },
            {
                "start_time": 12.0795455,
                "end_time": 12.1136364,
                "pitch": 87,
                "velocity": 40,
                "duration": 0.0340909,
                "tempo": 120.0
            },
            {
                "start_time": 12.1295455,
                "end_time": 12.2136364,
                "pitch": 82,
                "velocity": 40,
                "duration": 0.0840909,
                "tempo": 120.0
            },
            {
                "start_time": 12.2295455,
                "end_time": 12.3636364,
                "pitch": 91,
                "velocity": 40,
                "duration": 0.1340909,
                "tempo": 120.0
            },
            {
                "start_time": 12.3795455,
                "end_time": 12.4295455,
                "pitch": 87,
                "velocity": 40,
                "duration": 0.05,
                "tempo": 120.0
            },
            {
                "start_time": 12.4636364,
                "end_time": 12.5136364,
                "pitch": 82,
                "velocity": 40,
                "duration": 0.05,
                "tempo": 120.0
            },
            {
                "start_time": 12.5295455,
                "end_time": 12.6636364,
                "pitch": 91,
                "velocity": 40,
                "duration": 0.1340909,
                "tempo": 120.0
            },
            {
                "start_time": 12.6795455,
                "end_time": 12.7295455,
                "pitch": 87,
                "velocity": 40,
                "duration": 0.05,
                "tempo": 120.0
            },
            {
                "start_time": 12.7636364,
                "end_time": 12.8136364,
                "pitch": 82,
                "velocity": 40,
                "duration": 0.05,
                "tempo": 120.0
            },
            {
                "start_time": 12.8295455,
                "end_time": 12.9659091,
                "pitch": 91,
                "velocity": 40,
                "duration": 0.1363636,
                "tempo": 120.0
            },
            {
                "start_time": 12.9818182,
                "end_time": 13.0318182,
                "pitch": 87,
                "velocity": 40,
                "duration": 0.05,
                "tempo": 120.0
            },
            {
                "start_time": 13.0659091,
                "end_time": 13.1159091,
                "pitch": 82,
                "velocity": 40,
                "duration": 0.05,
                "tempo": 120.0
            },
            {
                "start_time": 13.1340909,
                "end_time": 13.2681818,
                "pitch": 91,
                "velocity": 40,
                "duration": 0.1340909,
                "tempo": 120.0
            },
            {
                "start_time": 13.2840909,
                "end_time": 13.3363636,
                "pitch": 87,
                "velocity": 40,
                "duration": 0.0522727,
                "tempo": 120.0
            },
            {
                "start_time": 13.3681818,
                "end_time": 13.3863636,
                "pitch": 82,
                "velocity": 40,
                "duration": 0.0181818,
                "tempo": 120.0
            },
            {
                "start_time": 13.4204545,
                "end_time": 13.5704545,
                "pitch": 91,
                "velocity": 40,
                "duration": 0.15,
                "tempo": 120.0
            },
            {
                "start_time": 13.5863636,
                "end_time": 13.6363636,
                "pitch": 87,
                "velocity": 40,
                "duration": 0.05,
                "tempo": 120.0
            },
            {
                "start_time": 13.6704545,
                "end_time": 13.7204545,
                "pitch": 82,
                "velocity": 40,
                "duration": 0.05,
                "tempo": 120.0
            },
            {
                "start_time": 13.7363636,
                "end_time": 13.8363636,
                "pitch": 91,
                "velocity": 40,
                "duration": 0.1,
                "tempo": 120.0
            },
            {
                "start_time": 13.8704545,
                "end_time": 13.9863636,
                "pitch": 87,
                "velocity": 40,
                "duration": 0.1159091,
                "tempo": 120.0
            },
            {
                "start_time": 14.0204545,
                "end_time": 14.1363636,
                "pitch": 82,
                "velocity": 40,
                "duration": 0.1159091,
                "tempo": 120.0
            },
            {
                "start_time": 14.1704545,
                "end_time": 14.2863636,
                "pitch": 91,
                "velocity": 40,
                "duration": 0.1159091,
                "tempo": 120.0
            },
            {
                "start_time": 14.3204545,
                "end_time": 14.4363636,
                "pitch": 93,
                "velocity": 40,
                "duration": 0.1159091,
                "tempo": 120.0
            },
            {
                "start_time": 14.4704545,
                "end_time": 14.5204545,
                "pitch": 89,
                "velocity": 40,
                "duration": 0.05,
                "tempo": 120.0
            },
            {
                "start_time": 14.5363636,
                "end_time": 14.5863636,
                "pitch": 84,
                "velocity": 40,
                "duration": 0.05,
                "tempo": 120.0
            },
            {
                "start_time": 14.6204545,
                "end_time": 14.7704545,
                "pitch": 93,
                "velocity": 40,
                "duration": 0.15,
                "tempo": 120.0
            },
            {
                "start_time": 14.7863636,
                "end_time": 14.8363636,
                "pitch": 89,
                "velocity": 40,
                "duration": 0.05,
                "tempo": 120.0
            },
            {
                "start_time": 14.8704545,
                "end_time": 14.9204545,
                "pitch": 84,
                "velocity": 40,
                "duration": 0.05,
                "tempo": 120.0
            },
            {
                "start_time": 14.9363636,
                "end_time": 15.0704545,
                "pitch": 93,
                "velocity": 40,
                "duration": 0.1340909,
                "tempo": 120.0
            },
            {
                "start_time": 15.0863636,
                "end_time": 15.1363636,
                "pitch": 89,
                "velocity": 40,
                "duration": 0.05,
                "tempo": 120.0
            },
            {
                "start_time": 15.1704545,
                "end_time": 15.2204545,
                "pitch": 84,
                "velocity": 40,
                "duration": 0.05,
                "tempo": 120.0
            },
            {
                "start_time": 15.2363636,
                "end_time": 15.3704545,
                "pitch": 93,
                "velocity": 40,
                "duration": 0.1340909,
                "tempo": 120.0
            },
            {
                "start_time": 15.3863636,
                "end_time": 15.4363636,
                "pitch": 89,
                "velocity": 40,
                "duration": 0.05,
                "tempo": 120.0
            },
            {
                "start_time": 15.4704545,
                "end_time": 15.5204545,
                "pitch": 84,
                "velocity": 40,
                "duration": 0.05,
                "tempo": 120.0
            },
            {
                "start_time": 15.5363636,
                "end_time": 15.6704545,
                "pitch": 93,
                "velocity": 40,
                "duration": 0.1340909,
                "tempo": 120.0
            },
            {
                "start_time": 15.6863636,
                "end_time": 15.7363636,
                "pitch": 89,
                "velocity": 40,
                "duration": 0.05,
                "tempo": 120.0
            },
            {
                "start_time": 15.7704545,
                "end_time": 15.8204545,
                "pitch": 84,
                "velocity": 40,
                "duration": 0.05,
                "tempo": 120.0
            },
            {
                "start_time": 15.8363636,
                "end_time": 15.9704545,
                "pitch": 93,
                "velocity": 40,
                "duration": 0.1340909,
                "tempo": 120.0
            },
            {
                "start_time": 15.9886364,
                "end_time": 16.0386364,
                "pitch": 89,
                "velocity": 40,
                "duration": 0.05,
                "tempo": 120.0
            },
            {
                "start_time": 16.0727273,
                "end_time": 16.1227273,
                "pitch": 84,
                "velocity": 40,
                "duration": 0.05,
                "tempo": 120.0
            },
            {
                "start_time": 16.1386364,
                "end_time": 16.275,
                "pitch": 93,
                "velocity": 40,
                "duration": 0.1363636,
                "tempo": 120.0
            },
            {
                "start_time": 16.2909091,
                "end_time": 16.3409091,
                "pitch": 89,
                "velocity": 40,
                "duration": 0.05,
                "tempo": 120.0
            },
            {
                "start_time": 16.375,
                "end_time": 16.3909091,
                "pitch": 84,
                "velocity": 40,
                "duration": 0.0159091,
                "tempo": 120.0
            },
            {
                "start_time": 16.425,
                "end_time": 16.575,
                "pitch": 93,
                "velocity": 40,
                "duration": 0.15,
                "tempo": 120.0
            },
            {
                "start_time": 16.5931818,
                "end_time": 16.625,
                "pitch": 89,
                "velocity": 40,
                "duration": 0.0318182,
                "tempo": 120.0
            },
            {
                "start_time": 16.6431818,
                "end_time": 16.725,
                "pitch": 84,
                "velocity": 40,
                "duration": 0.0818182,
                "tempo": 120.0
            },
            {
                "start_time": 16.7431818,
                "end_time": 16.875,
                "pitch": 95,
                "velocity": 40,
                "duration": 0.1318182,
                "tempo": 120.0
            },
            {
                "start_time": 16.8931818,
                "end_time": 16.9431818,
                "pitch": 91,
                "velocity": 40,
                "duration": 0.05,
                "tempo": 120.0
            },
            {
                "start_time": 16.975,
                "end_time": 17.025,
                "pitch": 86,
                "velocity": 40,
                "duration": 0.05,
                "tempo": 120.0
            },
            {
                "start_time": 17.0431818,
                "end_time": 17.175,
                "pitch": 95,
                "velocity": 40,
                "duration": 0.1318182,
                "tempo": 120.0
            },
            {
                "start_time": 17.1931818,
                "end_time": 17.2431818,
                "pitch": 91,
                "velocity": 40,
                "duration": 0.05,
                "tempo": 120.0
            },
            {
                "start_time": 17.275,
                "end_time": 17.325,
                "pitch": 86,
                "velocity": 40,
                "duration": 0.05,
                "tempo": 120.0
            },
            {
                "start_time": 17.3431818,
                "end_time": 17.475,
                "pitch": 95,
                "velocity": 40,
                "duration": 0.1318182,
                "tempo": 120.0
            },
            {
                "start_time": 17.4931818,
                "end_time": 17.5431818,
                "pitch": 91,
                "velocity": 40,
                "duration": 0.05,
                "tempo": 120.0
            },
            {
                "start_time": 17.575,
                "end_time": 17.625,
                "pitch": 86,
                "velocity": 40,
                "duration": 0.05,
                "tempo": 120.0
            },
            {
                "start_time": 17.6431818,
                "end_time": 17.7772727,
                "pitch": 95,
                "velocity": 40,
                "duration": 0.1340909,
                "tempo": 120.0
            },
            {
                "start_time": 17.7931818,
                "end_time": 17.8772727,
                "pitch": 91,
                "velocity": 40,
                "duration": 0.0840909,
                "tempo": 120.0
            },
            {
                "start_time": 17.8954545,
                "end_time": 17.9295455,
                "pitch": 86,
                "velocity": 40,
                "duration": 0.0340909,
                "tempo": 120.0
            },
            {
                "start_time": 17.9454545,
                "end_time": 18.0795455,
                "pitch": 95,
                "velocity": 40,
                "duration": 0.1340909,
                "tempo": 120.0
            },
            {
                "start_time": 18.0977273,
                "end_time": 18.2318182,
                "pitch": 91,
                "velocity": 40,
                "duration": 0.1340909,
                "tempo": 120.0
            },
            {
                "start_time": 18.2477273,
                "end_time": 18.2659091,
                "pitch": 95,
                "velocity": 40,
                "duration": 0.0181818,
                "tempo": 120.0
            },
            {
                "start_time": 18.2818182,
                "end_time": 18.3840909,
                "pitch": 86,
                "velocity": 40,
                "duration": 0.1022727,
                "tempo": 120.0
            },
            {
                "start_time": 18.4,
                "end_time": 18.5,
                "pitch": 91,
                "velocity": 40,
                "duration": 0.1,
                "tempo": 120.0
            },
            {
                "start_time": 18.5340909,
                "end_time": 18.6863636,
                "pitch": 95,
                "velocity": 40,
                "duration": 0.1522727,
                "tempo": 120.0
            },
            {
                "start_time": 18.7022727,
                "end_time": 18.8386364,
                "pitch": 95,
                "velocity": 40,
                "duration": 0.1363636,
                "tempo": 120.0
            },
            {
                "start_time": 18.8545455,
                "end_time": 18.9545455,
                "pitch": 86,
                "velocity": 40,
                "duration": 0.1,
                "tempo": 120.0
            },
            {
                "start_time": 18.9886364,
                "end_time": 19.1386364,
                "pitch": 95,
                "velocity": 40,
                "duration": 0.15,
                "tempo": 120.0
            },
            {
                "start_time": 19.1545455,
                "end_time": 19.6068182,
                "pitch": 92,
                "velocity": 40,
                "duration": 0.4522727,
                "tempo": 120.0
            },
            {
                "start_time": 19.6386364,
                "end_time": 20.0431818,
                "pitch": 87,
                "velocity": 40,
                "duration": 0.4045455,
                "tempo": 120.0
            },
            {
                "start_time": 20.0613636,
                "end_time": 21.5522727,
                "pitch": 84,
                "velocity": 40,
                "duration": 1.4909091,
                "tempo": 120.0
            },
            {
                "start_time": 22.9272727,
                "end_time": 23.0613636,
                "pitch": 75,
                "velocity": 40,
                "duration": 0.1340909,
                "tempo": 120.0
            },
            {
                "start_time": 23.0795455,
                "end_time": 23.2113636,
                "pitch": 79,
                "velocity": 40,
                "duration": 0.1318182,
                "tempo": 120.0
            },
            {
                "start_time": 23.2295455,
                "end_time": 23.6113636,
                "pitch": 82,
                "velocity": 40,
                "duration": 0.3818182,
                "tempo": 120.0
            },
            {
                "start_time": 25.1909091,
                "end_time": 25.325,
                "pitch": 86,
                "velocity": 40,
                "duration": 0.1340909,
                "tempo": 120.0
            },
            {
                "start_time": 25.3409091,
                "end_time": 25.4409091,
                "pitch": 84,
                "velocity": 40,
                "duration": 0.1,
                "tempo": 120.0
            },
            {
                "start_time": 25.475,
                "end_time": 25.6431818,
                "pitch": 81,
                "velocity": 40,
                "duration": 0.1681818,
                "tempo": 120.0
            },
            {
                "start_time": 25.675,
                "end_time": 26.1977273,
                "pitch": 77,
                "velocity": 40,
                "duration": 0.5227273,
                "tempo": 120.0
            },
            {
                "start_time": 27.6318182,
                "end_time": 27.7318182,
                "pitch": 87,
                "velocity": 40,
                "duration": 0.1,
                "tempo": 120.0
            },
            {
                "start_time": 27.75,
                "end_time": 27.8863636,
                "pitch": 86,
                "velocity": 40,
                "duration": 0.1363636,
                "tempo": 120.0
            },
            {
                "start_time": 27.9022727,
                "end_time": 28.0363636,
                "pitch": 83,
                "velocity": 40,
                "duration": 0.1340909,
                "tempo": 120.0
            },
            {
                "start_time": 28.0522727,
                "end_time": 28.2022727,
                "pitch": 86,
                "velocity": 40,
                "duration": 0.15,
                "tempo": 120.0
            },
            {
                "start_time": 28.2363636,
                "end_time": 28.3522727,
                "pitch": 87,
                "velocity": 40,
                "duration": 0.1159091,
                "tempo": 120.0
            },
            {
                "start_time": 28.3863636,
                "end_time": 28.5022727,
                "pitch": 89,
                "velocity": 40,
                "duration": 0.1159091,
                "tempo": 120.0
            },
            {
                "start_time": 28.5363636,
                "end_time": 28.7045455,
                "pitch": 91,
                "velocity": 40,
                "duration": 0.1681818,
                "tempo": 120.0
            },
            {
                "start_time": 33.2318182,
                "end_time": 33.4840909,
                "pitch": 87,
                "velocity": 40,
                "duration": 0.2522727,
                "tempo": 120.0
            },
            {
                "start_time": 33.5181818,
                "end_time": 34.8295455,
                "pitch": 84,
                "velocity": 40,
                "duration": 1.3113636,
                "tempo": 120.0
            },
            {
                "start_time": 37.2568182,
                "end_time": 37.3590909,
                "pitch": 79,
                "velocity": 40,
                "duration": 0.1022727,
                "tempo": 120.0
            },
            {
                "start_time": 37.3931818,
                "end_time": 37.5477273,
                "pitch": 83,
                "velocity": 40,
                "duration": 0.1545455,
                "tempo": 120.0
            },
            {
                "start_time": 37.5636364,
                "end_time": 37.6977273,
                "pitch": 86,
                "velocity": 40,
                "duration": 0.1340909,
                "tempo": 120.0
            },
            {
                "start_time": 37.7136364,
                "end_time": 37.8636364,
                "pitch": 87,
                "velocity": 40,
                "duration": 0.15,
                "tempo": 120.0
            },
            {
                "start_time": 37.8977273,
                "end_time": 38.1136364,
                "pitch": 89,
                "velocity": 40,
                "duration": 0.2159091,
                "tempo": 120.0
            },
            {
                "start_time": 38.1477273,
                "end_time": 38.3613636,
                "pitch": 91,
                "velocity": 40,
                "duration": 0.2136364,
                "tempo": 120.0
            }
        ]
    }
}