{
    "mood": "happy",
    "instruments": {
        "Acoustic Grand Piano": [
            {
                "start_time": 0.0113636,
                "end_time": 0.0795455,
                "pitch": 69,
                "velocity": 80,
                "duration": 0.0681818,
                "tempo": 120.0
            },
            {
                "start_time": 0.1954545,
                "end_time": 0.2795455,
                "pitch": 69,
                "velocity": 80,
                "duration": 0.0840909,
                "tempo": 120.0
            },
            {
                "start_time": 0.2954545,
                "end_time": 0.3795455,
                "pitch": 69,
                "velocity": 80,
                "duration": 0.0840909,
                "tempo": 120.0
            },
            {
                "start_time": 0.3954545,
                "end_time": 0.475,
                "pitch": 69,
                "velocity": 80,
                "duration": 0.0795455,
                "tempo": 120.0
            },
            {
                "start_time": 0.5863636,
                "end_time": 0.6659091,
                "pitch": 69,
                "velocity": 80,
                "duration": 0.0795455,
                "tempo": 120.0
            },
            {
                "start_time": 0.7772727,
                "end_time": 1.1704545,
                "pitch": 69,
                "velocity": 80,
                "duration": 0.3931818,
                "tempo": 120.0
            },
            {
                "start_time": 1.1886364,
                "end_time": 1.5727273,
                "pitch": 69,
                "velocity": 80,
                "duration": 0.3840909,
                "tempo": 120.0
            },
            {
                "start_time": 1.5886364,
                "end_time": 1.7727273,
                "pitch": 66,
                "velocity": 80,
                "duration": 0.1840909,
                "tempo": 120.0
            },
            {
                "start_time": 1.7909091,
                "end_time": 1.8727273,
                "pitch": 66,
                "velocity": 80,
                "duration": 0.0818182,
                "tempo": 120.0
            },
            {
                "start_time": 1.9909091,
                "end_time": 2.175,
                "pitch": 66,
                "velocity": 80,
                "duration": 0.1840909,
                "tempo": 120.0
            },
            {
                "start_time": 2.1909091,
                "end_time": 2.275,
                "pitch": 66,
                "velocity": 80,
                "duration": 0.0840909,
                "tempo": 120.0
            },
            {
                "start_time": 2.3909091,
                "end_time": 2.7772727,
                "pitch": 69,
                "velocity": 80,
                "duration": 0.3863636,
                "tempo": 120.0
            },
            {
                "start_time": 2.7931818,
                "end_time": 3.1772727,
                "pitch": 68,
                "velocity": 80,
                "duration": 0.3840909,
                "tempo": 120.0
            },
            {
                "start_time": 3.1931818,
                "end_time": 3.2772727,
                "pitch": 69,
                "velocity": 80,
                "duration": 0.0840909,
                "tempo": 120.0
            },
            {
                "start_time": 3.3931818,
                "end_time": 3.4772727,
                "pitch": 69,
                "velocity": 80,
                "duration": 0.0840909,
                "tempo": 120.0
            },
            {
                "start_time": 3.4931818,
                "end_time": 3.5772727,
                "pitch": 69,
                "velocity": 80,
                "duration": 0.0840909,
                "tempo": 120.0
            },
            {
                "start_time": 3.5931818,
                "end_time": 3.675,
                "pitch": 69,
                "velocity": 80,
                "duration": 0.0818182,
                "tempo": 120.0
            },
            {
                "start_time": 3.7886364,
                "end_time": 3.8704545,
                "pitch": 69,
                "velocity": 80,
                "duration": 0.0818182,
                "tempo": 120.0
            },
            {
                "start_time": 3.9863636,
                "end_time": 4.3795455,
                "pitch": 68,
                "velocity": 80,
                "duration": 0.3931818,
                "tempo": 120.0
            },
            {
                "start_time": 4.3977273,
                "end_time": 4.7909091,
                "pitch": 68,
                "velocity": 80,
                "duration": 0.3931818,
                "tempo": 120.0
            },
            {
                "start_time": 4.8068182,
                "end_time": 4.8886364,
                "pitch": 71,
                "velocity": 80,
                "duration": 0.0818182,
                "tempo": 120.0
            },
            {
                "start_time": 5.0045455,
                "end_time": 5.0863636,
                "pitch": 71,
                "velocity": 80,
                "duration": 0.0818182,
                "tempo": 120.0
            },
            {
                "start_time": 5.1022727,
                "end_time": 5.1840909,
                "pitch": 71,
                "velocity": 80,
                "duration": 0.0818182,
                "tempo": 120.0
            },
            {
                "start_time": 5.2,
                "end_time": 5.2840909,
                "pitch": 71,
                "velocity": 80,
                "duration": 0.0840909,
                "tempo": 120.0
            },
            {
                "start_time": 5.4022727,
                "end_time": 5.4840909,
                "pitch": 71,
                "velocity": 80,
                "duration": 0.0818182,
                "tempo": 120.0
            },
            {
                "start_time": 5.6022727,
                "end_time": 6.1863636,
                "pitch": 69,
                "velocity": 80,
                "duration": 0.5840909,
                "tempo": 120.0
            }
        ]
    }
}