{
    "mood": "happy",
    "instruments": {
        "Oboe": [
            {
                "start_time": 6.3977273,
                "end_time": 32.1409091,
                "pitch": 74,
                "velocity": 64,
                "duration": 25.7431818,
                "tempo": 120.0
            },
            {
                "start_time": 32.1590909,
                "end_time": 32.2090909,
                "pitch": 51,
                "velocity": 64,
                "duration": 0.05,
                "tempo": 120.0
            },
            {
                "start_time": 32.225,
                "end_time": 33.0522727,
                "pitch": 52,
                "velocity": 64,
                "duration": 0.8272727,
                "tempo": 120.0
            },
            {
                "start_time": 33.0681818,
                "end_time": 33.3136364,
                "pitch": 51,
                "velocity": 64,
                "duration": 0.2454545,
                "tempo": 120.0
            },
            {
                "start_time": 33.3295455,
                "end_time": 33.6795455,
                "pitch": 50,
                "velocity": 64,
                "duration": 0.35,
                "tempo": 120.0
            },
            {
                "start_time": 33.6977273,
                "end_time": 34.6818182,
                "pitch": 57,
                "velocity": 64,
                "duration": 0.9840909,
                "tempo": 120.0
            },
            {
                "start_time": 34.6977273,
                "end_time": 34.8840909,
                "pitch": 59,
                "velocity": 64,
                "duration": 0.1863636,
                "tempo": 120.0
            },
            {
                "start_time": 34.9,
                "end_time": 35.1159091,
                "pitch": 60,
                "velocity": 64,
                "duration": 0.2159091,
                "tempo": 120.0
            },
            {
                "start_time": 35.1340909,
                "end_time": 35.2840909,
                "pitch": 62,
                "velocity": 64,
                "duration": 0.15,
                "tempo": 120.0
            },
            {
                "start_time": 35.3,
                "end_time": 35.3840909,
                "pitch": 62,
                "velocity": 64,
                "duration": 0.0840909,
                "tempo": 120.0
            },
            {
                "start_time": 35.4,
                "end_time": 35.4159091,
                "pitch": 63,
                "velocity": 64,
                "duration": 0.0159091,
                "tempo": 120.0
            },
            {
                "start_time": 35.4340909,
                "end_time": 36.2568182,
                "pitch": 64,
                "velocity": 64,
                "duration": 0.8227273,
                "tempo": 120.0
            },
            {
                "start_time": 36.2727273,
                "end_time": 36.2909091,
                "pitch": 64,
                "velocity": 64,
                "duration": 0.0181818,
                "tempo": 120.0
            },
            {
                "start_time": 36.3068182,
                "end_time": 36.6863636,
                "pitch": 65,
                "velocity": 64,
                "duration": 0.3795455,
                "tempo": 120.0
            },
            {
                "start_time": 36.7045455,
                "end_time": 36.7204545,
                "pitch": 63,
                "velocity": 64,
                "duration": 0.0159091,
                "tempo": 120.0
            },
            {
                "start_time": 36.7386364,
                "end_time": 36.9227273,
                "pitch": 64,
                "velocity": 64,
                "duration": 0.1840909,
                "tempo": 120.0
            },
            {
                "start_time": 36.9386364,
                "end_time": 37.1613636,
                "pitch": 67,
                "velocity": 64,
                "duration": 0.2227273,
                "tempo": 120.0
            },
            {
                "start_time": 37.1795455,
                "end_time": 37.4636364,
                "pitch": 65,
                "velocity": 64,
                "duration": 0.2840909,
                "tempo": 120.0
            },
            {
                "start_time": 37.4795455,
                "end_time": 37.4954545,
                "pitch": 65,
                "velocity": 64,
                "duration": 0.0159091,
                "tempo": 120.0
            },
            {
                "start_time": 37.5113636,
                "end_time": 37.6909091,
                "pitch": 64,
                "velocity": 64,
                "duration": 0.1795455,
                "tempo": 120.0
            },
            {
                "start_time": 37.7090909,
                "end_time": 37.725,
                "pitch": 62,
                "velocity": 64,
                "duration": 0.0159091,
                "tempo": 120.0
            },
            {
                "start_time": 37.7409091,
                "end_time": 37.9909091,
                "pitch": 62,
                "velocity": 64,
                "duration": 0.25,
                "tempo": 120.0
            },
            {
                "start_time": 38.0090909,
                "end_time": 38.2590909,
                "pitch": 60,
                "velocity": 64,
                "duration": 0.25,
                "tempo": 120.0
            },
            {
                "start_time": 38.275,
                "end_time": 38.2909091,
                "pitch": 62,
                "velocity": 64,
                "duration": 0.0159091,
                "tempo": 120.0
            },
            {
                "start_time": 38.3090909,
                "end_time": 38.3590909,
                "pitch": 67,
                "velocity": 64,
                "duration": 0.05,
                "tempo": 120.0
            },
            {
                "start_time": 38.375,
                "end_time": 38.4909091,
                "pitch": 60,
                "velocity": 64,
                "duration": 0.1159091,
                "tempo": 120.0
            },
            {
                "start_time": 38.5090909,
                "end_time": 39.4681818,
                "pitch": 65,
                "velocity": 64,
                "duration": 0.9590909,
                "tempo": 120.0
            },
            {
                "start_time": 39.4840909,
                "end_time": 39.5022727,
                "pitch": 65,
                "velocity": 64,
                "duration": 0.0181818,
                "tempo": 120.0
            },
            {
                "start_time": 39.5181818,
                "end_time": 39.5659091,
                "pitch": 64,
                "velocity": 64,
                "duration": 0.0477273,
                "tempo": 120.0
            },
            {
                "start_time": 39.5840909,
                "end_time": 39.6977273,
                "pitch": 65,
                "velocity": 64,
                "duration": 0.1136364,
                "tempo": 120.0
            },
            {
                "start_time": 39.7136364,
                "end_time": 39.8977273,
                "pitch": 67,
                "velocity": 64,
                "duration": 0.1840909,
                "tempo": 120.0
            },
            {
                "start_time": 39.9136364,
                "end_time": 39.9977273,
                "pitch": 65,
                "velocity": 64,
                "duration": 0.0840909,
                "tempo": 120.0
            },
            {
                "start_time": 40.0136364,
                "end_time": 40.0636364,
                "pitch": 64,
                "velocity": 64,
                "duration": 0.05,
                "tempo": 120.0
            },
            {
                "start_time": 40.0795455,
                "end_time": 40.0977273,
                "pitch": 60,
                "velocity": 64,
                "duration": 0.0181818,
                "tempo": 120.0
            },
            {
                "start_time": 40.1136364,
                "end_time": 40.3363636,
                "pitch": 62,
                "velocity": 64,
                "duration": 0.2227273,
                "tempo": 120.0
            },
            {
                "start_time": 40.3522727,
                "end_time": 40.7363636,
                "pitch": 62,
                "velocity": 64,
                "duration": 0.3840909,
                "tempo": 120.0
            },
            {
                "start_time": 40.7522727,
                "end_time": 41.1,
                "pitch": 60,
                "velocity": 64,
                "duration": 0.3477273,
                "tempo": 120.0
            },
            {
                "start_time": 41.1159091,
                "end_time": 41.2340909,
                "pitch": 55,
                "velocity": 64,
                "duration": 0.1181818,
                "tempo": 120.0
            },
            {
                "start_time": 41.25,
                "end_time": 41.3340909,
                "pitch": 57,
                "velocity": 64,
                "duration": 0.0840909,
                "tempo": 120.0
            },
            {
                "start_time": 41.35,
                "end_time": 41.4363636,
                "pitch": 58,
                "velocity": 64,
                "duration": 0.0863636,
                "tempo": 120.0
            },
            {
                "start_time": 41.4545455,
                "end_time": 41.5045455,
                "pitch": 60,
                "velocity": 64,
                "duration": 0.05,
                "tempo": 120.0
            },
            {
                "start_time": 41.5227273,
                "end_time": 41.6068182,
                "pitch": 62,
                "velocity": 64,
                "duration": 0.0840909,
                "tempo": 120.0
            },
            {
                "start_time": 41.625,
                "end_time": 41.7113636,
                "pitch": 64,
                "velocity": 64,
                "duration": 0.0863636,
                "tempo": 120.0
            },
            {
                "start_time": 41.7272727,
                "end_time": 41.875,
                "pitch": 59,
                "velocity": 64,
                "duration": 0.1477273,
                "tempo": 120.0
            },
            {
                "start_time": 42.3204545,
                "end_time": 42.3363636,
                "pitch": 65,
                "velocity": 64,
                "duration": 0.0159091,
                "tempo": 120.0
            },
            {
                "start_time": 42.3522727,
                "end_time": 42.7386364,
                "pitch": 64,
                "velocity": 64,
                "duration": 0.3863636,
                "tempo": 120.0
            },
            {
                "start_time": 42.7545455,
                "end_time": 42.9386364,
                "pitch": 62,
                "velocity": 64,
                "duration": 0.1840909,
                "tempo": 120.0
            },
            {
                "start_time": 42.9545455,
                "end_time": 43.2386364,
                "pitch": 60,
                "velocity": 64,
                "duration": 0.2840909,
                "tempo": 120.0
            },
            {
                "start_time": 43.2545455,
                "end_time": 43.3045455,
                "pitch": 60,
                "velocity": 64,
                "duration": 0.05,
                "tempo": 120.0
            },
            {
                "start_time": 43.3227273,
                "end_time": 44.3090909,
                "pitch": 67,
                "velocity": 64,
                "duration": 0.9863636,
                "tempo": 120.0
            },
            {
                "start_time": 44.325,
                "end_time": 44.8772727,
                "pitch": 65,
                "velocity": 64,
                "duration": 0.5522727,
                "tempo": 120.0
            }
        ],
        "Vibraphone": [
            {
                "start_time": 0.0,
                "end_time": 0.1681818,
                "pitch": 64,
                "velocity": 40,
                "duration": 0.1681818,
                "tempo": 120.0
            },
            {
                "start_time": 0.1840909,
                "end_time": 0.3681818,
                "pitch": 64,
                "velocity": 40,
                "duration": 0.1840909,
                "tempo": 120.0
            },
            {
                "start_time": 0.3840909,
                "end_time": 0.5681818,
                "pitch": 64,
                "velocity": 40,
                "duration": 0.1840909,
                "tempo": 120.0
            },
            {
                "start_time": 0.5840909,
                "end_time": 0.7681818,
                "pitch": 64,
                "velocity": 40,
                "duration": 0.1840909,
                "tempo": 120.0
            },
            {
                "start_time": 0.7840909,
                "end_time": 0.9681818,
                "pitch": 64,
                "velocity": 40,
                "duration": 0.1840909,
                "tempo": 120.0
            },
            {
                "start_time": 0.9840909,
                "end_time": 1.1681818,
                "pitch": 64,
                "velocity": 40,
                "duration": 0.1840909,
                "tempo": 120.0
            },
            {
                "start_time": 1.1840909,
                "end_time": 1.3681818,
                "pitch": 64,
                "velocity": 40,
                "duration": 0.1840909,
                "tempo": 120.0
            },
            {
                "start_time": 1.3840909,
                "end_time": 1.5681818,
                "pitch": 64,
                "velocity": 40,
                "duration": 0.1840909,
                "tempo": 120.0
            },
            {
                "start_time": 1.5840909,
                "end_time": 1.7727273,
                "pitch": 64,
                "velocity": 40,
                "duration": 0.1886364,
                "tempo": 120.0
            },
            {
                "start_time": 1.7886364,
                "end_time": 1.9772727,
                "pitch": 64,
                "velocity": 40,
                "duration": 0.1886364,
                "tempo": 120.0
            },
            {
                "start_time": 1.9954545,
                "end_time": 2.175,
                "pitch": 64,
                "velocity": 40,
                "duration": 0.1795455,
                "tempo": 120.0
            },
            {
                "start_time": 2.1909091,
                "end_time": 2.3704545,
                "pitch": 64,
                "velocity": 40,
                "duration": 0.1795455,
                "tempo": 120.0
            },
            {
                "start_time": 2.3863636,
                "end_time": 2.5704545,
                "pitch": 64,
                "velocity": 40,
                "duration": 0.1840909,
                "tempo": 120.0
            },
            {
                "start_time": 2.5863636,
                "end_time": 2.7704545,
                "pitch": 64,
                "velocity": 40,
                "duration": 0.1840909,
                "tempo": 120.0
            },
            {
                "start_time": 2.7863636,
                "end_time": 2.9704545,
                "pitch": 64,
                "velocity": 40,
                "duration": 0.1840909,
                "tempo": 120.0
            },
            {
                "start_time": 2.9863636,
                "end_time": 3.1704545,
                "pitch": 64,
                "velocity": 40,
                "duration": 0.1840909,
                "tempo": 120.0
            },
            {
                "start_time": 3.1863636,
                "end_time": 3.3704545,
                "pitch": 64,
                "velocity": 40,
                "duration": 0.1840909,
                "tempo": 120.0
            },
            {
                "start_time": 3.3886364,
                "end_time": 3.5727273,
                "pitch": 64,
                "velocity": 40,
                "duration": 0.1840909,
                "tempo": 120.0
            },
            {
                "start_time": 3.5886364,
                "end_time": 3.7727273,
                "pitch": 64,
                "velocity": 40,
                "duration": 0.1840909,
                "tempo": 120.0
            },
            {
                "start_time": 3.7886364,
                "end_time": 3.9727273,
                "pitch": 64,
                "velocity": 40,
                "duration": 0.1840909,
                "tempo": 120.0
            },
            {
                "start_time": 3.9886364,
                "end_time": 4.1727273,
                "pitch": 64,
                "velocity": 40,
                "duration": 0.1840909,
                "tempo": 120.0
            },
            {
                "start_time": 4.1886364,
                "end_time": 4.3727273,
                "pitch": 64,
                "velocity": 40,
                "duration": 0.1840909,
                "tempo": 120.0
            },
            {
                "start_time": 4.3886364,
                "end_time": 4.5727273,
                "pitch": 64,
                "velocity": 40,
                "duration": 0.1840909,
                "tempo": 120.0
            },
            {
                "start_time": 4.5886364,
                "end_time": 4.7727273,
                "pitch": 64,
                "velocity": 40,
                "duration": 0.1840909,
                "tempo": 120.0
            },
            {
                "start_time": 4.7886364,
                "end_time": 4.975,
                "pitch": 64,
                "velocity": 40,
                "duration": 0.1863636,
                "tempo": 120.0
            },
            {
                "start_time": 4.9909091,
                "end_time": 5.175,
                "pitch": 64,
                "velocity": 40,
                "duration": 0.1840909,
                "tempo": 120.0
            },
            {
                "start_time": 5.1931818,
                "end_time": 5.375,
                "pitch": 64,
                "velocity": 40,
                "duration": 0.1818182,
                "tempo": 120.0
            },
            {
                "start_time": 5.3931818,
                "end_time": 5.575,
                "pitch": 64,
                "velocity": 40,
                "duration": 0.1818182,
                "tempo": 120.0
            },
            {
                "start_time": 5.5931818,
                "end_time": 5.7772727,
                "pitch": 64,
                "velocity": 40,
                "duration": 0.1840909,
                "tempo": 120.0
            },
            {
                "start_time": 5.7931818,
                "end_time": 5.9772727,
                "pitch": 64,
                "velocity": 40,
                "duration": 0.1840909,
                "tempo": 120.0
            },
            {
                "start_time": 5.9954545,
                "end_time": 6.1795455,
                "pitch": 67,
                "velocity": 40,
                "duration": 0.1840909,
                "tempo": 120.0
            },
            {
                "start_time": 6.1954545,
                "end_time": 6.3818182,
                "pitch": 64,
                "velocity": 40,
                "duration": 0.1863636,
                "tempo": 120.0
            },
            {
                "start_time": 6.3977273,
                "end_time": 6.5818182,
                "pitch": 64,
                "velocity": 40,
                "duration": 0.1840909,
                "tempo": 120.0
            },
            {
                "start_time": 6.5977273,
                "end_time": 6.7818182,
                "pitch": 64,
                "velocity": 40,
                "duration": 0.1840909,
                "tempo": 120.0
            },
            {
                "start_time": 6.7977273,
                "end_time": 6.9818182,
                "pitch": 64,
                "velocity": 40,
                "duration": 0.1840909,
                "tempo": 120.0
            },
            {
                "start_time": 7.0,
                "end_time": 7.1840909,
                "pitch": 64,
                "velocity": 40,
                "duration": 0.1840909,
                "tempo": 120.0
            },
            {
                "start_time": 7.2,
                "end_time": 7.3840909,
                "pitch": 64,
                "velocity": 40,
                "duration": 0.1840909,
                "tempo": 120.0
            },
            {
                "start_time": 7.4,
                "end_time": 7.5840909,
                "pitch": 64,
                "velocity": 40,
                "duration": 0.1840909,
                "tempo": 120.0
            },
            {
                "start_time": 7.6,
                "end_time": 7.7840909,
                "pitch": 64,
                "velocity": 40,
                "duration": 0.1840909,
                "tempo": 120.0
            },
            {
                "start_time": 7.8022727,
                "end_time": 7.9863636,
                "pitch": 64,
                "velocity": 40,
                "duration": 0.1840909,
                "tempo": 120.0
            },
            {
                "start_time": 8.0022727,
                "end_time": 8.1909091,
                "pitch": 64,
                "velocity": 40,
                "duration": 0.1886364,
                "tempo": 120.0
            },
            {
                "start_time": 8.2090909,
                "end_time": 8.3977273,
                "pitch": 64,
                "velocity": 40,
                "duration": 0.1886364,
                "tempo": 120.0
            },
            {
                "start_time": 8.4136364,
                "end_time": 8.5977273,
                "pitch": 64,
                "velocity": 40,
                "duration": 0.1840909,
                "tempo": 120.0
            },
            {
                "start_time": 8.6159091,
                "end_time": 8.8,
                "pitch": 64,
                "velocity": 40,
                "duration": 0.1840909,
                "tempo": 120.0
            },
            {
                "start_time": 8.8159091,
                "end_time": 8.9954545,
                "pitch": 64,
                "velocity": 40,
                "duration": 0.1795455,
                "tempo": 120.0
            },
            {
                "start_time": 9.0136364,
                "end_time": 9.1931818,
                "pitch": 64,
                "velocity": 40,
                "duration": 0.1795455,
                "tempo": 120.0
            },
            {
                "start_time": 9.2090909,
                "end_time": 9.3931818,
                "pitch": 64,
                "velocity": 40,
                "duration": 0.1840909,
                "tempo": 120.0
            },
            {
                "start_time": 9.4090909,
                "end_time": 9.5954545,
                "pitch": 64,
                "velocity": 40,
                "duration": 0.1863636,
                "tempo": 120.0
            },
            {
                "start_time": 9.6113636,
                "end_time": 9.7954545,
                "pitch": 64,
                "velocity": 40,
                "duration": 0.1840909,
                "tempo": 120.0
            },
            {
                "start_time": 9.8136364,
                "end_time": 9.9977273,
                "pitch": 64,
                "velocity": 40,
                "duration": 0.1840909,
                "tempo": 120.0
            },
            {
                "start_time": 10.0136364,
                "end_time": 10.1977273,
                "pitch": 64,
                "velocity": 40,
                "duration": 0.1840909,
                "tempo": 120.0
            },
            {
                "start_time": 10.2159091,
                "end_time": 10.4,
                "pitch": 64,
                "velocity": 40,
                "duration": 0.1840909,
                "tempo": 120.0
            },
            {
                "start_time": 10.4159091,
                "end_time": 10.6022727,
                "pitch": 64,
                "velocity": 40,
                "duration": 0.1863636,
                "tempo": 120.0
            },
            {
                "start_time": 10.6181818,
                "end_time": 10.8022727,
                "pitch": 64,
                "velocity": 40,
                "duration": 0.1840909,
                "tempo": 120.0
            },
            {
                "start_time": 10.8204545,
                "end_time": 11.0022727,
                "pitch": 64,
                "velocity": 40,
                "duration": 0.1818182,
                "tempo": 120.0
            },
            {
                "start_time": 11.0204545,
                "end_time": 11.2022727,
                "pitch": 64,
                "velocity": 40,
                "duration": 0.1818182,
                "tempo": 120.0
            },
            {
                "start_time": 11.2204545,
                "end_time": 11.4068182,
                "pitch": 64,
                "velocity": 40,
                "duration": 0.1863636,
                "tempo": 120.0
            },
            {
                "start_time": 11.425,
                "end_time": 11.6136364,
                "pitch": 64,
                "velocity": 40,
                "duration": 0.1886364,
                "tempo": 120.0
            },
            {
                "start_time": 11.6295455,
                "end_time": 11.8090909,
                "pitch": 64,
                "velocity": 40,
                "duration": 0.1795455,
                "tempo": 120.0
            },
            {
                "start_time": 11.8272727,
                "end_time": 12.0068182,
                "pitch": 64,
                "velocity": 40,
                "duration": 0.1795455,
                "tempo": 120.0
            },
            {
                "start_time": 12.0227273,
                "end_time": 12.2068182,
                "pitch": 64,
                "velocity": 40,
                "duration": 0.1840909,
                "tempo": 120.0
            },
            {
                "start_time": 12.2227273,
                "end_time": 12.4090909,
                "pitch": 64,
                "velocity": 40,
                "duration": 0.1863636,
                "tempo": 120.0
            },
            {
                "start_time": 12.425,
                "end_time": 12.6090909,
                "pitch": 67,
                "velocity": 40,
                "duration": 0.1840909,
                "tempo": 120.0
            },
            {
                "start_time": 12.6272727,
                "end_time": 12.8113636,
                "pitch": 64,
                "velocity": 40,
                "duration": 0.1840909,
                "tempo": 120.0
            },
            {
                "start_time": 12.8272727,
                "end_time": 13.0113636,
                "pitch": 64,
                "velocity": 40,
                "duration": 0.1840909,
                "tempo": 120.0
            },
            {
                "start_time": 13.0272727,
                "end_time": 13.2113636,
                "pitch": 64,
                "velocity": 40,
                "duration": 0.1840909,
                "tempo": 120.0
            },
            {
                "start_time": 13.2272727,
                "end_time": 13.4113636,
                "pitch": 64,
                "velocity": 40,
                "duration": 0.1840909,
                "tempo": 120.0
            },
            {
                "start_time": 13.4295455,
                "end_time": 13.8159091,
                "pitch": 64,
                "velocity": 40,
                "duration": 0.3863636,
                "tempo": 120.0
            },
            {
                "start_time": 13.8318182,
                "end_time": 14.0159091,
                "pitch": 64,
                "velocity": 40,
                "duration": 0.1840909,
                "tempo": 120.0
            },
            {
                "start_time": 14.0340909,
                "end_time": 14.2181818,
                "pitch": 62,
                "velocity": 40,
                "duration": 0.1840909,
                "tempo": 120.0
            },
            {
                "start_time": 14.2340909,
                "end_time": 14.6204545,
                "pitch": 64,
                "velocity": 40,
                "duration": 0.3863636,
                "tempo": 120.0
            },
            {
                "start_time": 14.6363636,
                "end_time": 14.8227273,
                "pitch": 64,
                "velocity": 40,
                "duration": 0.1863636,
                "tempo": 120.0
            },
            {
                "start_time": 14.8386364,
                "end_time": 15.2318182,
                "pitch": 64,
                "velocity": 40,
                "duration": 0.3931818,
                "tempo": 120.0
            },
            {
                "start_time": 15.25,
                "end_time": 15.625,
                "pitch": 64,
                "velocity": 40,
                "duration": 0.375,
                "tempo": 120.0
            },
            {
                "start_time": 15.6409091,
                "end_time": 15.825,
                "pitch": 64,
                "velocity": 40,
                "duration": 0.1840909,
                "tempo": 120.0
            },
            {
                "start_time": 15.8431818,
                "end_time": 16.0272727,
                "pitch": 64,
                "velocity": 40,
                "duration": 0.1840909,
                "tempo": 120.0
            },
            {
                "start_time": 16.0431818,
                "end_time": 16.2295455,
                "pitch": 64,
                "velocity": 40,
                "duration": 0.1863636,
                "tempo": 120.0
            },
            {
                "start_time": 16.2454545,
                "end_time": 16.3954545,
                "pitch": 64,
                "velocity": 40,
                "duration": 0.15,
                "tempo": 120.0
            },
            {
                "start_time": 16.4136364,
                "end_time": 16.6295455,
                "pitch": 64,
                "velocity": 40,
                "duration": 0.2159091,
                "tempo": 120.0
            },
            {
                "start_time": 16.6477273,
                "end_time": 16.8295455,
                "pitch": 64,
                "velocity": 40,
                "duration": 0.1818182,
                "tempo": 120.0
            },
            {
                "start_time": 16.8477273,
                "end_time": 17.0318182,
                "pitch": 64,
                "velocity": 40,
                "duration": 0.1840909,
                "tempo": 120.0
            },
            {
                "start_time": 17.0477273,
                "end_time": 17.2318182,
                "pitch": 64,
                "velocity": 40,
                "duration": 0.1840909,
                "tempo": 120.0
            },
            {
                "start_time": 17.25,
                "end_time": 17.4318182,
                "pitch": 62,
                "velocity": 40,
                "duration": 0.1818182,
                "tempo": 120.0
            },
            {
                "start_time": 17.45,
                "end_time": 17.6318182,
                "pitch": 64,
                "velocity": 40,
                "duration": 0.1818182,
                "tempo": 120.0
            },
            {
                "start_time": 17.65,
                "end_time": 18.0431818,
                "pitch": 62,
                "velocity": 40,
                "duration": 0.3931818,
                "tempo": 120.0
            },
            {
                "start_time": 18.0590909,
                "end_time": 18.0772727,
                "pitch": 64,
                "velocity": 40,
                "duration": 0.0181818,
                "tempo": 120.0
            },
            {
                "start_time": 18.6568182,
                "end_time": 19.2386364,
                "pitch": 67,
                "velocity": 40,
                "duration": 0.5818182,
                "tempo": 120.0
            },
            {
                "start_time": 19.2545455,
                "end_time": 19.4386364,
                "pitch": 64,
                "velocity": 40,
                "duration": 0.1840909,
                "tempo": 120.0
            },
            {
                "start_time": 19.4545455,
                "end_time": 19.6386364,
                "pitch": 64,
                "velocity": 40,
                "duration": 0.1840909,
                "tempo": 120.0
            },
            {
                "start_time": 19.6545455,
                "end_time": 19.8386364,
                "pitch": 64,
                "velocity": 40,
                "duration": 0.1840909,
                "tempo": 120.0
            },
            {
                "start_time": 19.8545455,
                "end_time": 20.0386364,
                "pitch": 64,
                "velocity": 40,
                "duration": 0.1840909,
                "tempo": 120.0
            },
            {
                "start_time": 20.0545455,
                "end_time": 20.2409091,
                "pitch": 64,
                "velocity": 40,
                "duration": 0.1863636,
                "tempo": 120.0
            },
            {
                "start_time": 20.2568182,
                "end_time": 20.4409091,
                "pitch": 64,
                "velocity": 40,
                "duration": 0.1840909,
                "tempo": 120.0
            },
            {
                "start_time": 20.4568182,
                "end_time": 20.6409091,
                "pitch": 64,
                "velocity": 40,
                "duration": 0.1840909,
                "tempo": 120.0
            },
            {
                "start_time": 20.6568182,
                "end_time": 20.8409091,
                "pitch": 64,
                "velocity": 40,
                "duration": 0.1840909,
                "tempo": 120.0
            },
            {
                "start_time": 20.8568182,
                "end_time": 21.0454545,
                "pitch": 64,
                "velocity": 40,
                "duration": 0.1886364,
                "tempo": 120.0
            },
            {
                "start_time": 21.0636364,
                "end_time": 21.2522727,
                "pitch": 64,
                "velocity": 40,
                "duration": 0.1886364,
                "tempo": 120.0
            },
            {
                "start_time": 21.2681818,
                "end_time": 21.4522727,
                "pitch": 64,
                "velocity": 40,
                "duration": 0.1840909,
                "tempo": 120.0
            },
            {
                "start_time": 21.4704545,
                "end_time": 21.6545455,
                "pitch": 64,
                "velocity": 40,
                "duration": 0.1840909,
                "tempo": 120.0
            },
            {
                "start_time": 21.6704545,
                "end_time": 21.8522727,
                "pitch": 64,
                "velocity": 40,
                "duration": 0.1818182,
                "tempo": 120.0
            },
            {
                "start_time": 21.8681818,
                "end_time": 22.0477273,
                "pitch": 64,
                "velocity": 40,
                "duration": 0.1795455,
                "tempo": 120.0
            },
            {
                "start_time": 22.0636364,
                "end_time": 22.2477273,
                "pitch": 64,
                "velocity": 40,
                "duration": 0.1840909,
                "tempo": 120.0
            },
            {
                "start_time": 22.2659091,
                "end_time": 22.45,
                "pitch": 64,
                "velocity": 40,
                "duration": 0.1840909,
                "tempo": 120.0
            },
            {
                "start_time": 22.4659091,
                "end_time": 22.65,
                "pitch": 64,
                "velocity": 40,
                "duration": 0.1840909,
                "tempo": 120.0
            },
            {
                "start_time": 22.6659091,
                "end_time": 22.85,
                "pitch": 64,
                "velocity": 40,
                "duration": 0.1840909,
                "tempo": 120.0
            },
            {
                "start_time": 22.8659091,
                "end_time": 23.05,
                "pitch": 64,
                "velocity": 40,
                "duration": 0.1840909,
                "tempo": 120.0
            },
            {
                "start_time": 23.0681818,
                "end_time": 23.2522727,
                "pitch": 64,
                "velocity": 40,
                "duration": 0.1840909,
                "tempo": 120.0
            },
            {
                "start_time": 23.2681818,
                "end_time": 23.4522727,
                "pitch": 64,
                "velocity": 40,
                "duration": 0.1840909,
                "tempo": 120.0
            },
            {
                "start_time": 23.4681818,
                "end_time": 23.6522727,
                "pitch": 64,
                "velocity": 40,
                "duration": 0.1840909,
                "tempo": 120.0
            },
            {
                "start_time": 23.6681818,
                "end_time": 23.8522727,
                "pitch": 64,
                "velocity": 40,
                "duration": 0.1840909,
                "tempo": 120.0
            },
            {
                "start_time": 23.8681818,
                "end_time": 24.0522727,
                "pitch": 64,
                "velocity": 40,
                "duration": 0.1840909,
                "tempo": 120.0
            },
            {
                "start_time": 24.0681818,
                "end_time": 24.2545455,
                "pitch": 64,
                "velocity": 40,
                "duration": 0.1863636,
                "tempo": 120.0
            },
            {
                "start_time": 24.2704545,
                "end_time": 24.4545455,
                "pitch": 64,
                "velocity": 40,
                "duration": 0.1840909,
                "tempo": 120.0
            },
            {
                "start_time": 24.4727273,
                "end_time": 24.6545455,
                "pitch": 64,
                "velocity": 40,
                "duration": 0.1818182,
                "tempo": 120.0
            },
            {
                "start_time": 24.6727273,
                "end_time": 24.8545455,
                "pitch": 64,
                "velocity": 40,
                "duration": 0.1818182,
                "tempo": 120.0
            },
            {
                "start_time": 24.8727273,
                "end_time": 25.0568182,
                "pitch": 64,
                "velocity": 40,
                "duration": 0.1840909,
                "tempo": 120.0
            },
            {
                "start_time": 25.0727273,
                "end_time": 25.2568182,
                "pitch": 64,
                "velocity": 40,
                "duration": 0.1840909,
                "tempo": 120.0
            },
            {
                "start_time": 25.275,
                "end_time": 25.4568182,
                "pitch": 67,
                "velocity": 40,
                "duration": 0.1818182,
                "tempo": 120.0
            },
            {
                "start_time": 25.475,
                "end_time": 25.6568182,
                "pitch": 64,
                "velocity": 40,
                "duration": 0.1818182,
                "tempo": 120.0
            },
            {
                "start_time": 25.675,
                "end_time": 25.8568182,
                "pitch": 64,
                "velocity": 40,
                "duration": 0.1818182,
                "tempo": 120.0
            },
            {
                "start_time": 25.875,
                "end_time": 26.0568182,
                "pitch": 64,
                "velocity": 40,
                "duration": 0.1818182,
                "tempo": 120.0
            },
            {
                "start_time": 26.075,
                "end_time": 26.2590909,
                "pitch": 64,
                "velocity": 40,
                "duration": 0.1840909,
                "tempo": 120.0
            },
            {
                "start_time": 26.275,
                "end_time": 26.6613636,
                "pitch": 64,
                "velocity": 40,
                "duration": 0.3863636,
                "tempo": 120.0
            },
            {
                "start_time": 26.6772727,
                "end_time": 26.8613636,
                "pitch": 64,
                "velocity": 40,
                "duration": 0.1840909,
                "tempo": 120.0
            },
            {
                "start_time": 26.8772727,
                "end_time": 27.0613636,
                "pitch": 62,
                "velocity": 40,
                "duration": 0.1840909,
                "tempo": 120.0
            },
            {
                "start_time": 27.0795455,
                "end_time": 27.4681818,
                "pitch": 64,
                "velocity": 40,
                "duration": 0.3886364,
                "tempo": 120.0
            },
            {
                "start_time": 27.4840909,
                "end_time": 27.6727273,
                "pitch": 64,
                "velocity": 40,
                "duration": 0.1886364,
                "tempo": 120.0
            },
            {
                "start_time": 27.6909091,
                "end_time": 28.075,
                "pitch": 64,
                "velocity": 40,
                "duration": 0.3840909,
                "tempo": 120.0
            },
            {
                "start_time": 28.0909091,
                "end_time": 28.4659091,
                "pitch": 64,
                "velocity": 40,
                "duration": 0.375,
                "tempo": 120.0
            },
            {
                "start_time": 28.4818182,
                "end_time": 28.6659091,
                "pitch": 64,
                "velocity": 40,
                "duration": 0.1840909,
                "tempo": 120.0
            },
            {
                "start_time": 28.6818182,
                "end_time": 28.8659091,
                "pitch": 64,
                "velocity": 40,
                "duration": 0.1840909,
                "tempo": 120.0
            },
            {
                "start_time": 28.8840909,
                "end_time": 29.0681818,
                "pitch": 64,
                "velocity": 40,
                "duration": 0.1840909,
                "tempo": 120.0
            },
            {
                "start_time": 29.0840909,
                "end_time": 29.2363636,
                "pitch": 64,
                "velocity": 40,
                "duration": 0.1522727,
                "tempo": 120.0
            },
            {
                "start_time": 29.2522727,
                "end_time": 29.4681818,
                "pitch": 64,
                "velocity": 40,
                "duration": 0.2159091,
                "tempo": 120.0
            },
            {
                "start_time": 29.4863636,
                "end_time": 29.6681818,
                "pitch": 64,
                "velocity": 40,
                "duration": 0.1818182,
                "tempo": 120.0
            },
            {
                "start_time": 29.6863636,
                "end_time": 29.8681818,
                "pitch": 64,
                "velocity": 40,
                "duration": 0.1818182,
                "tempo": 120.0
            },
            {
                "start_time": 29.8863636,
                "end_time": 30.0681818,
                "pitch": 64,
                "velocity": 40,
                "duration": 0.1818182,
                "tempo": 120.0
            },
            {
                "start_time": 30.0863636,
                "end_time": 30.2704545,
                "pitch": 62,
                "velocity": 40,
                "duration": 0.1840909,
                "tempo": 120.0
            },
            {
                "start_time": 30.2863636,
                "end_time": 30.4704545,
                "pitch": 64,
                "velocity": 40,
                "duration": 0.1840909,
                "tempo": 120.0
            },
            {
                "start_time": 30.4886364,
                "end_time": 30.8818182,
                "pitch": 62,
                "velocity": 40,
                "duration": 0.3931818,
                "tempo": 120.0
            },
            {
                "start_time": 30.9,
                "end_time": 30.9159091,
                "pitch": 64,
                "velocity": 40,
                "duration": 0.0159091,
                "tempo": 120.0
            },
            {
                "start_time": 31.4954545,
                "end_time": 32.075,
                "pitch": 67,
                "velocity": 40,
                "duration": 0.5795455,
                "tempo": 120.0
            },
            {
                "start_time": 32.0909091,
                "end_time": 32.275,
                "pitch": 58,
                "velocity": 40,
                "duration": 0.1840909,
                "tempo": 120.0
            },
            {
                "start_time": 32.2931818,
                "end_time": 32.4772727,
                "pitch": 58,
                "velocity": 40,
                "duration": 0.1840909,
                "tempo": 120.0
            },
            {
                "start_time": 32.4931818,
                "end_time": 32.6818182,
                "pitch": 58,
                "velocity": 40,
                "duration": 0.1886364,
                "tempo": 120.0
            },
            {
                "start_time": 32.7,
                "end_time": 32.8886364,
                "pitch": 58,
                "velocity": 40,
                "duration": 0.1886364,
                "tempo": 120.0
            },
            {
                "start_time": 32.9045455,
                "end_time": 33.0840909,
                "pitch": 58,
                "velocity": 40,
                "duration": 0.1795455,
                "tempo": 120.0
            },
            {
                "start_time": 33.1,
                "end_time": 33.2795455,
                "pitch": 58,
                "velocity": 40,
                "duration": 0.1795455,
                "tempo": 120.0
            },
            {
                "start_time": 33.2977273,
                "end_time": 33.4795455,
                "pitch": 58,
                "velocity": 40,
                "duration": 0.1818182,
                "tempo": 120.0
            },
            {
                "start_time": 33.4977273,
                "end_time": 33.6795455,
                "pitch": 58,
                "velocity": 40,
                "duration": 0.1818182,
                "tempo": 120.0
            },
            {
                "start_time": 33.6977273,
                "end_time": 33.8795455,
                "pitch": 57,
                "velocity": 40,
                "duration": 0.1818182,
                "tempo": 120.0
            },
            {
                "start_time": 33.8977273,
                "end_time": 34.0795455,
                "pitch": 57,
                "velocity": 40,
                "duration": 0.1818182,
                "tempo": 120.0
            },
            {
                "start_time": 34.0977273,
                "end_time": 34.2795455,
                "pitch": 57,
                "velocity": 40,
                "duration": 0.1818182,
                "tempo": 120.0
            },
            {
                "start_time": 34.2977273,
                "end_time": 34.4795455,
                "pitch": 57,
                "velocity": 40,
                "duration": 0.1818182,
                "tempo": 120.0
            },
            {
                "start_time": 34.4977273,
                "end_time": 34.6818182,
                "pitch": 57,
                "velocity": 40,
                "duration": 0.1840909,
                "tempo": 120.0
            },
            {
                "start_time": 34.6977273,
                "end_time": 34.8840909,
                "pitch": 57,
                "velocity": 40,
                "duration": 0.1863636,
                "tempo": 120.0
            },
            {
                "start_time": 34.9,
                "end_time": 35.0840909,
                "pitch": 57,
                "velocity": 40,
                "duration": 0.1840909,
                "tempo": 120.0
            },
            {
                "start_time": 35.1,
                "end_time": 35.2840909,
                "pitch": 57,
                "velocity": 40,
                "duration": 0.1840909,
                "tempo": 120.0
            },
            {
                "start_time": 35.3,
                "end_time": 35.4840909,
                "pitch": 56,
                "velocity": 40,
                "duration": 0.1840909,
                "tempo": 120.0
            },
            {
                "start_time": 35.5,
                "end_time": 35.6840909,
                "pitch": 56,
                "velocity": 40,
                "duration": 0.1840909,
                "tempo": 120.0
            },
            {
                "start_time": 35.7,
                "end_time": 35.8886364,
                "pitch": 56,
                "velocity": 40,
                "duration": 0.1886364,
                "tempo": 120.0
            },
            {
                "start_time": 35.9045455,
                "end_time": 36.0931818,
                "pitch": 56,
                "velocity": 40,
                "duration": 0.1886364,
                "tempo": 120.0
            },
            {
                "start_time": 36.1113636,
                "end_time": 36.2909091,
                "pitch": 56,
                "velocity": 40,
                "duration": 0.1795455,
                "tempo": 120.0
            },
            {
                "start_time": 36.3068182,
                "end_time": 36.4863636,
                "pitch": 56,
                "velocity": 40,
                "duration": 0.1795455,
                "tempo": 120.0
            },
            {
                "start_time": 36.5022727,
                "end_time": 36.6863636,
                "pitch": 56,
                "velocity": 40,
                "duration": 0.1840909,
                "tempo": 120.0
            },
            {
                "start_time": 36.7045455,
                "end_time": 36.8886364,
                "pitch": 56,
                "velocity": 40,
                "duration": 0.1840909,
                "tempo": 120.0
            },
            {
                "start_time": 36.9045455,
                "end_time": 37.0931818,
                "pitch": 55,
                "velocity": 40,
                "duration": 0.1886364,
                "tempo": 120.0
            },
            {
                "start_time": 37.1113636,
                "end_time": 37.3,
                "pitch": 55,
                "velocity": 40,
                "duration": 0.1886364,
                "tempo": 120.0
            },
            {
                "start_time": 37.3159091,
                "end_time": 37.4954545,
                "pitch": 55,
                "velocity": 40,
                "duration": 0.1795455,
                "tempo": 120.0
            },
            {
                "start_time": 37.5113636,
                "end_time": 37.6909091,
                "pitch": 55,
                "velocity": 40,
                "duration": 0.1795455,
                "tempo": 120.0
            },
            {
                "start_time": 37.7090909,
                "end_time": 37.8909091,
                "pitch": 55,
                "velocity": 40,
                "duration": 0.1818182,
                "tempo": 120.0
            },
            {
                "start_time": 37.9090909,
                "end_time": 38.0909091,
                "pitch": 55,
                "velocity": 40,
                "duration": 0.1818182,
                "tempo": 120.0
            },
            {
                "start_time": 38.1090909,
                "end_time": 38.2909091,
                "pitch": 55,
                "velocity": 40,
                "duration": 0.1818182,
                "tempo": 120.0
            },
            {
                "start_time": 38.3090909,
                "end_time": 38.4909091,
                "pitch": 55,
                "velocity": 40,
                "duration": 0.1818182,
                "tempo": 120.0
            },
            {
                "start_time": 38.5090909,
                "end_time": 38.6931818,
                "pitch": 58,
                "velocity": 40,
                "duration": 0.1840909,
                "tempo": 120.0
            },
            {
                "start_time": 38.7090909,
                "end_time": 38.8931818,
                "pitch": 58,
                "velocity": 40,
                "duration": 0.1840909,
                "tempo": 120.0
            },
            {
                "start_time": 38.9113636,
                "end_time": 39.1,
                "pitch": 58,
                "velocity": 40,
                "duration": 0.1886364,
                "tempo": 120.0
            },
            {
                "start_time": 39.1159091,
                "end_time": 39.3045455,
                "pitch": 58,
                "velocity": 40,
                "duration": 0.1886364,
                "tempo": 120.0
            },
            {
                "start_time": 39.3204545,
                "end_time": 39.5022727,
                "pitch": 58,
                "velocity": 40,
                "duration": 0.1818182,
                "tempo": 120.0
            },
            {
                "start_time": 39.5181818,
                "end_time": 39.6977273,
                "pitch": 58,
                "velocity": 40,
                "duration": 0.1795455,
                "tempo": 120.0
            },
            {
                "start_time": 39.7136364,
                "end_time": 39.8977273,
                "pitch": 58,
                "velocity": 40,
                "duration": 0.1840909,
                "tempo": 120.0
            },
            {
                "start_time": 39.9136364,
                "end_time": 40.0977273,
                "pitch": 58,
                "velocity": 40,
                "duration": 0.1840909,
                "tempo": 120.0
            },
            {
                "start_time": 40.1136364,
                "end_time": 40.3022727,
                "pitch": 57,
                "velocity": 40,
                "duration": 0.1886364,
                "tempo": 120.0
            },
            {
                "start_time": 40.3181818,
                "end_time": 40.5068182,
                "pitch": 57,
                "velocity": 40,
                "duration": 0.1886364,
                "tempo": 120.0
            },
            {
                "start_time": 40.525,
                "end_time": 40.7045455,
                "pitch": 57,
                "velocity": 40,
                "duration": 0.1795455,
                "tempo": 120.0
            },
            {
                "start_time": 40.7204545,
                "end_time": 40.9,
                "pitch": 57,
                "velocity": 40,
                "duration": 0.1795455,
                "tempo": 120.0
            },
            {
                "start_time": 40.9159091,
                "end_time": 41.1,
                "pitch": 57,
                "velocity": 40,
                "duration": 0.1840909,
                "tempo": 120.0
            },
            {
                "start_time": 41.1159091,
                "end_time": 41.3,
                "pitch": 57,
                "velocity": 40,
                "duration": 0.1840909,
                "tempo": 120.0
            },
            {
                "start_time": 41.3159091,
                "end_time": 41.5045455,
                "pitch": 57,
                "velocity": 40,
                "duration": 0.1886364,
                "tempo": 120.0
            },
            {
                "start_time": 41.5227273,
                "end_time": 41.7113636,
                "pitch": 57,
                "velocity": 40,
                "duration": 0.1886364,
                "tempo": 120.0
            },
            {
                "start_time": 41.7272727,
                "end_time": 41.9068182,
                "pitch": 56,
                "velocity": 40,
                "duration": 0.1795455,
                "tempo": 120.0
            },
            {
                "start_time": 41.9227273,
                "end_time": 42.1022727,
                "pitch": 56,
                "velocity": 40,
                "duration": 0.1795455,
                "tempo": 120.0
            },
            {
                "start_time": 42.1204545,
                "end_time": 42.3022727,
                "pitch": 56,
                "velocity": 40,
                "duration": 0.1818182,
                "tempo": 120.0
            },
            {
                "start_time": 42.3204545,
                "end_time": 42.5022727,
                "pitch": 56,
                "velocity": 40,
                "duration": 0.1818182,
                "tempo": 120.0
            },
            {
                "start_time": 42.5204545,
                "end_time": 42.7045455,
                "pitch": 56,
                "velocity": 40,
                "duration": 0.1840909,
                "tempo": 120.0
            },
            {
                "start_time": 42.7204545,
                "end_time": 42.9045455,
                "pitch": 56,
                "velocity": 40,
                "duration": 0.1840909,
                "tempo": 120.0
            },
            {
                "start_time": 42.9227273,
                "end_time": 43.1045455,
                "pitch": 56,
                "velocity": 40,
                "duration": 0.1818182,
                "tempo": 120.0
            },
            {
                "start_time": 43.1227273,
                "end_time": 43.3045455,
                "pitch": 56,
                "velocity": 40,
                "duration": 0.1818182,
                "tempo": 120.0
            },
            {
                "start_time": 43.3227273,
                "end_time": 43.5113636,
                "pitch": 55,
                "velocity": 40,
                "duration": 0.1886364,
                "tempo": 120.0
            },
            {
                "start_time": 43.5272727,
                "end_time": 43.7159091,
                "pitch": 55,
                "velocity": 40,
                "duration": 0.1886364,
                "tempo": 120.0
            },
            {
                "start_time": 43.7318182,
                "end_time": 43.9136364,
                "pitch": 55,
                "velocity": 40,
                "duration": 0.1818182,
                "tempo": 120.0
            },
            {
                "start_time": 43.9295455,
                "end_time": 44.1090909,
                "pitch": 55,
                "velocity": 40,
                "duration": 0.1795455,
                "tempo": 120.0
            },
            {
                "start_time": 44.125,
                "end_time": 44.3090909,
                "pitch": 55,
                "velocity": 40,
                "duration": 0.1840909,
                "tempo": 120.0
            },
            {
                "start_time": 44.325,
                "end_time": 44.5090909,
                "pitch": 55,
                "velocity": 40,
                "duration": 0.1840909,
                "tempo": 120.0
            },
            {
                "start_time": 44.525,
                "end_time": 44.7090909,
                "pitch": 55,
                "velocity": 40,
                "duration": 0.1840909,
                "tempo": 120.0
            },
            {
                "start_time": 44.7272727,
                "end_time": 44.9272727,
                "pitch": 55,
                "velocity": 40,
                "duration": 0.2,
                "tempo": 120.0
            }
        ],
        "Acoustic Bass": [
            {
                "start_time": 0.0,
                "end_time": 0.1681818,
                "pitch": 31,
                "velocity": 51,
                "duration": 0.1681818,
                "tempo": 120.0
            },
            {
                "start_time": 0.1840909,
                "end_time": 0.3681818,
                "pitch": 31,
                "velocity": 51,
                "duration": 0.1840909,
                "tempo": 120.0
            },
            {
                "start_time": 0.3840909,
                "end_time": 0.5681818,
                "pitch": 38,
                "velocity": 51,
                "duration": 0.1840909,
                "tempo": 120.0
            },
            {
                "start_time": 0.5840909,
                "end_time": 0.9681818,
                "pitch": 36,
                "velocity": 51,
                "duration": 0.3840909,
                "tempo": 120.0
            },
            {
                "start_time": 0.9840909,
                "end_time": 1.1681818,
                "pitch": 35,
                "velocity": 51,
                "duration": 0.1840909,
                "tempo": 120.0
            },
            {
                "start_time": 1.1840909,
                "end_time": 1.3681818,
                "pitch": 36,
                "velocity": 51,
                "duration": 0.1840909,
                "tempo": 120.0
            },
            {
                "start_time": 1.3840909,
                "end_time": 1.5681818,
                "pitch": 38,
                "velocity": 51,
                "duration": 0.1840909,
                "tempo": 120.0
            },
            {
                "start_time": 1.5840909,
                "end_time": 1.9772727,
                "pitch": 31,
                "velocity": 51,
                "duration": 0.3931818,
                "tempo": 120.0
            },
            {
                "start_time": 1.9954545,
                "end_time": 2.175,
                "pitch": 38,
                "velocity": 51,
                "duration": 0.1795455,
                "tempo": 120.0
            },
            {
                "start_time": 2.1909091,
                "end_time": 2.5704545,
                "pitch": 36,
                "velocity": 51,
                "duration": 0.3795455,
                "tempo": 120.0
            },
            {
                "start_time": 2.5863636,
                "end_time": 2.7704545,
                "pitch": 35,
                "velocity": 51,
                "duration": 0.1840909,
                "tempo": 120.0
            },
            {
                "start_time": 2.7863636,
                "end_time": 2.9704545,
                "pitch": 36,
                "velocity": 51,
                "duration": 0.1840909,
                "tempo": 120.0
            },
            {
                "start_time": 2.9863636,
                "end_time": 3.1704545,
                "pitch": 38,
                "velocity": 51,
                "duration": 0.1840909,
                "tempo": 120.0
            },
            {
                "start_time": 3.1863636,
                "end_time": 3.5727273,
                "pitch": 29,
                "velocity": 51,
                "duration": 0.3863636,
                "tempo": 120.0
            },
            {
                "start_time": 3.5886364,
                "end_time": 3.7727273,
                "pitch": 40,
                "velocity": 51,
                "duration": 0.1840909,
                "tempo": 120.0
            },
            {
                "start_time": 3.7886364,
                "end_time": 4.3727273,
                "pitch": 38,
                "velocity": 51,
                "duration": 0.5840909,
                "tempo": 120.0
            },
            {
                "start_time": 4.3886364,
                "end_time": 4.5727273,
                "pitch": 36,
                "velocity": 51,
                "duration": 0.1840909,
                "tempo": 120.0
            },
            {
                "start_time": 4.5886364,
                "end_time": 5.375,
                "pitch": 35,
                "velocity": 51,
                "duration": 0.7863636,
                "tempo": 120.0
            },
            {
                "start_time": 5.3931818,
                "end_time": 5.475,
                "pitch": 35,
                "velocity": 51,
                "duration": 0.0818182,
                "tempo": 120.0
            },
            {
                "start_time": 5.4931818,
                "end_time": 5.575,
                "pitch": 36,
                "velocity": 51,
                "duration": 0.0818182,
                "tempo": 120.0
            },
            {
                "start_time": 5.5931818,
                "end_time": 5.7772727,
                "pitch": 38,
                "velocity": 51,
                "duration": 0.1840909,
                "tempo": 120.0
            },
            {
                "start_time": 5.7931818,
                "end_time": 5.9772727,
                "pitch": 38,
                "velocity": 51,
                "duration": 0.1840909,
                "tempo": 120.0
            },
            {
                "start_time": 5.9954545,
                "end_time": 6.3818182,
                "pitch": 35,
                "velocity": 51,
                "duration": 0.3863636,
                "tempo": 120.0
            },
            {
                "start_time": 6.3977273,
                "end_time": 6.5818182,
                "pitch": 31,
                "velocity": 51,
                "duration": 0.1840909,
                "tempo": 120.0
            },
            {
                "start_time": 6.5977273,
                "end_time": 6.7818182,
                "pitch": 31,
                "velocity": 51,
                "duration": 0.1840909,
                "tempo": 120.0
            },
            {
                "start_time": 6.7977273,
                "end_time": 6.9818182,
                "pitch": 38,
                "velocity": 51,
                "duration": 0.1840909,
                "tempo": 120.0
            },
            {
                "start_time": 7.0,
                "end_time": 7.3840909,
                "pitch": 36,
                "velocity": 51,
                "duration": 0.3840909,
                "tempo": 120.0
            },
            {
                "start_time": 7.4,
                "end_time": 7.5840909,
                "pitch": 35,
                "velocity": 51,
                "duration": 0.1840909,
                "tempo": 120.0
            },
            {
                "start_time": 7.6,
                "end_time": 7.7840909,
                "pitch": 36,
                "velocity": 51,
                "duration": 0.1840909,
                "tempo": 120.0
            },
            {
                "start_time": 7.8022727,
                "end_time": 7.9863636,
                "pitch": 38,
                "velocity": 51,
                "duration": 0.1840909,
                "tempo": 120.0
            },
            {
                "start_time": 8.0022727,
                "end_time": 8.3977273,
                "pitch": 31,
                "velocity": 51,
                "duration": 0.3954545,
                "tempo": 120.0
            },
            {
                "start_time": 8.4136364,
                "end_time": 8.5977273,
                "pitch": 38,
                "velocity": 51,
                "duration": 0.1840909,
                "tempo": 120.0
            },
            {
                "start_time": 8.6159091,
                "end_time": 8.9954545,
                "pitch": 36,
                "velocity": 51,
                "duration": 0.3795455,
                "tempo": 120.0
            },
            {
                "start_time": 9.0136364,
                "end_time": 9.1931818,
                "pitch": 35,
                "velocity": 51,
                "duration": 0.1795455,
                "tempo": 120.0
            },
            {
                "start_time": 9.2090909,
                "end_time": 9.3590909,
                "pitch": 36,
                "velocity": 51,
                "duration": 0.15,
                "tempo": 120.0
            },
            {
                "start_time": 9.3772727,
                "end_time": 9.5954545,
                "pitch": 38,
                "velocity": 51,
                "duration": 0.2181818,
                "tempo": 120.0
            },
            {
                "start_time": 9.6113636,
                "end_time": 9.9977273,
                "pitch": 29,
                "velocity": 51,
                "duration": 0.3863636,
                "tempo": 120.0
            },
            {
                "start_time": 10.0136364,
                "end_time": 10.1977273,
                "pitch": 40,
                "velocity": 51,
                "duration": 0.1840909,
                "tempo": 120.0
            },
            {
                "start_time": 10.2159091,
                "end_time": 10.8022727,
                "pitch": 38,
                "velocity": 51,
                "duration": 0.5863636,
                "tempo": 120.0
            },
            {
                "start_time": 10.8204545,
                "end_time": 11.0022727,
                "pitch": 36,
                "velocity": 51,
                "duration": 0.1818182,
                "tempo": 120.0
            },
            {
                "start_time": 11.0204545,
                "end_time": 11.7772727,
                "pitch": 35,
                "velocity": 51,
                "duration": 0.7568182,
                "tempo": 120.0
            },
            {
                "start_time": 11.7931818,
                "end_time": 11.9068182,
                "pitch": 35,
                "velocity": 51,
                "duration": 0.1136364,
                "tempo": 120.0
            },
            {
                "start_time": 11.925,
                "end_time": 12.0068182,
                "pitch": 36,
                "velocity": 51,
                "duration": 0.0818182,
                "tempo": 120.0
            },
            {
                "start_time": 12.0227273,
                "end_time": 12.2068182,
                "pitch": 38,
                "velocity": 51,
                "duration": 0.1840909,
                "tempo": 120.0
            },
            {
                "start_time": 12.2227273,
                "end_time": 12.4090909,
                "pitch": 36,
                "velocity": 51,
                "duration": 0.1863636,
                "tempo": 120.0
            },
            {
                "start_time": 12.425,
                "end_time": 12.8113636,
                "pitch": 35,
                "velocity": 51,
                "duration": 0.3863636,
                "tempo": 120.0
            },
            {
                "start_time": 12.8272727,
                "end_time": 13.0113636,
                "pitch": 31,
                "velocity": 51,
                "duration": 0.1840909,
                "tempo": 120.0
            },
            {
                "start_time": 13.0272727,
                "end_time": 13.2113636,
                "pitch": 31,
                "velocity": 51,
                "duration": 0.1840909,
                "tempo": 120.0
            },
            {
                "start_time": 13.2272727,
                "end_time": 13.4113636,
                "pitch": 38,
                "velocity": 51,
                "duration": 0.1840909,
                "tempo": 120.0
            },
            {
                "start_time": 13.4295455,
                "end_time": 13.8159091,
                "pitch": 36,
                "velocity": 51,
                "duration": 0.3863636,
                "tempo": 120.0
            },
            {
                "start_time": 13.8318182,
                "end_time": 14.0159091,
                "pitch": 35,
                "velocity": 51,
                "duration": 0.1840909,
                "tempo": 120.0
            },
            {
                "start_time": 14.0340909,
                "end_time": 14.4181818,
                "pitch": 36,
                "velocity": 51,
                "duration": 0.3840909,
                "tempo": 120.0
            },
            {
                "start_time": 14.4363636,
                "end_time": 14.6204545,
                "pitch": 31,
                "velocity": 51,
                "duration": 0.1840909,
                "tempo": 120.0
            },
            {
                "start_time": 14.6363636,
                "end_time": 14.8227273,
                "pitch": 31,
                "velocity": 51,
                "duration": 0.1863636,
                "tempo": 120.0
            },
            {
                "start_time": 14.8386364,
                "end_time": 15.0272727,
                "pitch": 38,
                "velocity": 51,
                "duration": 0.1886364,
                "tempo": 120.0
            },
            {
                "start_time": 15.0431818,
                "end_time": 15.4295455,
                "pitch": 36,
                "velocity": 51,
                "duration": 0.3863636,
                "tempo": 120.0
            },
            {
                "start_time": 15.4454545,
                "end_time": 15.625,
                "pitch": 35,
                "velocity": 51,
                "duration": 0.1795455,
                "tempo": 120.0
            },
            {
                "start_time": 15.6409091,
                "end_time": 15.825,
                "pitch": 36,
                "velocity": 51,
                "duration": 0.1840909,
                "tempo": 120.0
            },
            {
                "start_time": 15.8431818,
                "end_time": 16.0272727,
                "pitch": 38,
                "velocity": 51,
                "duration": 0.1840909,
                "tempo": 120.0
            },
            {
                "start_time": 16.0431818,
                "end_time": 16.2295455,
                "pitch": 29,
                "velocity": 51,
                "duration": 0.1863636,
                "tempo": 120.0
            },
            {
                "start_time": 16.2454545,
                "end_time": 16.4295455,
                "pitch": 29,
                "velocity": 51,
                "duration": 0.1840909,
                "tempo": 120.0
            },
            {
                "start_time": 16.4477273,
                "end_time": 16.6295455,
                "pitch": 40,
                "velocity": 51,
                "duration": 0.1818182,
                "tempo": 120.0
            },
            {
                "start_time": 16.6477273,
                "end_time": 17.0318182,
                "pitch": 38,
                "velocity": 51,
                "duration": 0.3840909,
                "tempo": 120.0
            },
            {
                "start_time": 17.0477273,
                "end_time": 17.2318182,
                "pitch": 40,
                "velocity": 51,
                "duration": 0.1840909,
                "tempo": 120.0
            },
            {
                "start_time": 17.25,
                "end_time": 17.4318182,
                "pitch": 41,
                "velocity": 51,
                "duration": 0.1818182,
                "tempo": 120.0
            },
            {
                "start_time": 17.45,
                "end_time": 17.6318182,
                "pitch": 43,
                "velocity": 51,
                "duration": 0.1818182,
                "tempo": 120.0
            },
            {
                "start_time": 17.65,
                "end_time": 18.0431818,
                "pitch": 38,
                "velocity": 51,
                "duration": 0.3931818,
                "tempo": 120.0
            },
            {
                "start_time": 18.0590909,
                "end_time": 18.2113636,
                "pitch": 40,
                "velocity": 51,
                "duration": 0.1522727,
                "tempo": 120.0
            },
            {
                "start_time": 18.6568182,
                "end_time": 19.2386364,
                "pitch": 38,
                "velocity": 51,
                "duration": 0.5818182,
                "tempo": 120.0
            },
            {
                "start_time": 19.2545455,
                "end_time": 19.4386364,
                "pitch": 31,
                "velocity": 51,
                "duration": 0.1840909,
                "tempo": 120.0
            },
            {
                "start_time": 19.4545455,
                "end_time": 19.6386364,
                "pitch": 31,
                "velocity": 51,
                "duration": 0.1840909,
                "tempo": 120.0
            },
            {
                "start_time": 19.6545455,
                "end_time": 19.8386364,
                "pitch": 38,
                "velocity": 51,
                "duration": 0.1840909,
                "tempo": 120.0
            },
            {
                "start_time": 19.8545455,
                "end_time": 20.2409091,
                "pitch": 36,
                "velocity": 51,
                "duration": 0.3863636,
                "tempo": 120.0
            },
            {
                "start_time": 20.2568182,
                "end_time": 20.4409091,
                "pitch": 35,
                "velocity": 51,
                "duration": 0.1840909,
                "tempo": 120.0
            },
            {
                "start_time": 20.4568182,
                "end_time": 20.6409091,
                "pitch": 36,
                "velocity": 51,
                "duration": 0.1840909,
                "tempo": 120.0
            },
            {
                "start_time": 20.6568182,
                "end_time": 20.8409091,
                "pitch": 38,
                "velocity": 51,
                "duration": 0.1840909,
                "tempo": 120.0
            },
            {
                "start_time": 20.8568182,
                "end_time": 21.2522727,
                "pitch": 31,
                "velocity": 51,
                "duration": 0.3954545,
                "tempo": 120.0
            },
            {
                "start_time": 21.2681818,
                "end_time": 21.4522727,
                "pitch": 38,
                "velocity": 51,
                "duration": 0.1840909,
                "tempo": 120.0
            },
            {
                "start_time": 21.4704545,
                "end_time": 21.8522727,
                "pitch": 36,
                "velocity": 51,
                "duration": 0.3818182,
                "tempo": 120.0
            },
            {
                "start_time": 21.8681818,
                "end_time": 22.0477273,
                "pitch": 35,
                "velocity": 51,
                "duration": 0.1795455,
                "tempo": 120.0
            },
            {
                "start_time": 22.0636364,
                "end_time": 22.2136364,
                "pitch": 36,
                "velocity": 51,
                "duration": 0.15,
                "tempo": 120.0
            },
            {
                "start_time": 22.2318182,
                "end_time": 22.45,
                "pitch": 38,
                "velocity": 51,
                "duration": 0.2181818,
                "tempo": 120.0
            },
            {
                "start_time": 22.4659091,
                "end_time": 22.85,
                "pitch": 29,
                "velocity": 51,
                "duration": 0.3840909,
                "tempo": 120.0
            },
            {
                "start_time": 22.8659091,
                "end_time": 23.05,
                "pitch": 40,
                "velocity": 51,
                "duration": 0.1840909,
                "tempo": 120.0
            },
            {
                "start_time": 23.0681818,
                "end_time": 23.6522727,
                "pitch": 38,
                "velocity": 51,
                "duration": 0.5840909,
                "tempo": 120.0
            },
            {
                "start_time": 23.6681818,
                "end_time": 23.8522727,
                "pitch": 36,
                "velocity": 51,
                "duration": 0.1840909,
                "tempo": 120.0
            },
            {
                "start_time": 23.8681818,
                "end_time": 24.6227273,
                "pitch": 35,
                "velocity": 51,
                "duration": 0.7545455,
                "tempo": 120.0
            },
            {
                "start_time": 24.6386364,
                "end_time": 24.7545455,
                "pitch": 35,
                "velocity": 51,
                "duration": 0.1159091,
                "tempo": 120.0
            },
            {
                "start_time": 24.7727273,
                "end_time": 24.8545455,
                "pitch": 36,
                "velocity": 51,
                "duration": 0.0818182,
                "tempo": 120.0
            },
            {
                "start_time": 24.8727273,
                "end_time": 25.0568182,
                "pitch": 38,
                "velocity": 51,
                "duration": 0.1840909,
                "tempo": 120.0
            },
            {
                "start_time": 25.0727273,
                "end_time": 25.2568182,
                "pitch": 36,
                "velocity": 51,
                "duration": 0.1840909,
                "tempo": 120.0
            },
            {
                "start_time": 25.275,
                "end_time": 25.6568182,
                "pitch": 35,
                "velocity": 51,
                "duration": 0.3818182,
                "tempo": 120.0
            },
            {
                "start_time": 25.675,
                "end_time": 25.8568182,
                "pitch": 31,
                "velocity": 51,
                "duration": 0.1818182,
                "tempo": 120.0
            },
            {
                "start_time": 25.875,
                "end_time": 26.0568182,
                "pitch": 31,
                "velocity": 51,
                "duration": 0.1818182,
                "tempo": 120.0
            },
            {
                "start_time": 26.075,
                "end_time": 26.2590909,
                "pitch": 38,
                "velocity": 51,
                "duration": 0.1840909,
                "tempo": 120.0
            },
            {
                "start_time": 26.275,
                "end_time": 26.6613636,
                "pitch": 36,
                "velocity": 51,
                "duration": 0.3863636,
                "tempo": 120.0
            },
            {
                "start_time": 26.6772727,
                "end_time": 26.8613636,
                "pitch": 35,
                "velocity": 51,
                "duration": 0.1840909,
                "tempo": 120.0
            },
            {
                "start_time": 26.8772727,
                "end_time": 27.2636364,
                "pitch": 36,
                "velocity": 51,
                "duration": 0.3863636,
                "tempo": 120.0
            },
            {
                "start_time": 27.2795455,
                "end_time": 27.4681818,
                "pitch": 31,
                "velocity": 51,
                "duration": 0.1886364,
                "tempo": 120.0
            },
            {
                "start_time": 27.4840909,
                "end_time": 27.6727273,
                "pitch": 31,
                "velocity": 51,
                "duration": 0.1886364,
                "tempo": 120.0
            },
            {
                "start_time": 27.6909091,
                "end_time": 27.875,
                "pitch": 38,
                "velocity": 51,
                "duration": 0.1840909,
                "tempo": 120.0
            },
            {
                "start_time": 27.8909091,
                "end_time": 28.2704545,
                "pitch": 36,
                "velocity": 51,
                "duration": 0.3795455,
                "tempo": 120.0
            },
            {
                "start_time": 28.2863636,
                "end_time": 28.4659091,
                "pitch": 35,
                "velocity": 51,
                "duration": 0.1795455,
                "tempo": 120.0
            },
            {
                "start_time": 28.4818182,
                "end_time": 28.6659091,
                "pitch": 36,
                "velocity": 51,
                "duration": 0.1840909,
                "tempo": 120.0
            },
            {
                "start_time": 28.6818182,
                "end_time": 28.8659091,
                "pitch": 38,
                "velocity": 51,
                "duration": 0.1840909,
                "tempo": 120.0
            },
            {
                "start_time": 28.8840909,
                "end_time": 29.0681818,
                "pitch": 29,
                "velocity": 51,
                "duration": 0.1840909,
                "tempo": 120.0
            },
            {
                "start_time": 29.0840909,
                "end_time": 29.2681818,
                "pitch": 29,
                "velocity": 51,
                "duration": 0.1840909,
                "tempo": 120.0
            },
            {
                "start_time": 29.2863636,
                "end_time": 29.4681818,
                "pitch": 40,
                "velocity": 51,
                "duration": 0.1818182,
                "tempo": 120.0
            },
            {
                "start_time": 29.4863636,
                "end_time": 29.8681818,
                "pitch": 38,
                "velocity": 51,
                "duration": 0.3818182,
                "tempo": 120.0
            },
            {
                "start_time": 29.8863636,
                "end_time": 30.0681818,
                "pitch": 40,
                "velocity": 51,
                "duration": 0.1818182,
                "tempo": 120.0
            },
            {
                "start_time": 30.0863636,
                "end_time": 30.2704545,
                "pitch": 41,
                "velocity": 51,
                "duration": 0.1840909,
                "tempo": 120.0
            },
            {
                "start_time": 30.2863636,
                "end_time": 30.4704545,
                "pitch": 43,
                "velocity": 51,
                "duration": 0.1840909,
                "tempo": 120.0
            },
            {
                "start_time": 30.4886364,
                "end_time": 30.8818182,
                "pitch": 38,
                "velocity": 51,
                "duration": 0.3931818,
                "tempo": 120.0
            },
            {
                "start_time": 30.9,
                "end_time": 31.05,
                "pitch": 40,
                "velocity": 51,
                "duration": 0.15,
                "tempo": 120.0
            },
            {
                "start_time": 31.4954545,
                "end_time": 32.075,
                "pitch": 38,
                "velocity": 51,
                "duration": 0.5795455,
                "tempo": 120.0
            },
            {
                "start_time": 32.0909091,
                "end_time": 33.0840909,
                "pitch": 34,
                "velocity": 51,
                "duration": 0.9931818,
                "tempo": 120.0
            },
            {
                "start_time": 33.1,
                "end_time": 33.2795455,
                "pitch": 38,
                "velocity": 51,
                "duration": 0.1795455,
                "tempo": 120.0
            },
            {
                "start_time": 33.2977273,
                "end_time": 33.6795455,
                "pitch": 43,
                "velocity": 51,
                "duration": 0.3818182,
                "tempo": 120.0
            },
            {
                "start_time": 33.6977273,
                "end_time": 34.6818182,
                "pitch": 33,
                "velocity": 51,
                "duration": 0.9840909,
                "tempo": 120.0
            },
            {
                "start_time": 34.6977273,
                "end_time": 35.0840909,
                "pitch": 43,
                "velocity": 51,
                "duration": 0.3863636,
                "tempo": 120.0
            },
            {
                "start_time": 35.1,
                "end_time": 35.2840909,
                "pitch": 41,
                "velocity": 51,
                "duration": 0.1840909,
                "tempo": 120.0
            },
            {
                "start_time": 35.3,
                "end_time": 36.2909091,
                "pitch": 32,
                "velocity": 51,
                "duration": 0.9909091,
                "tempo": 120.0
            },
            {
                "start_time": 36.3068182,
                "end_time": 36.6863636,
                "pitch": 45,
                "velocity": 51,
                "duration": 0.3795455,
                "tempo": 120.0
            },
            {
                "start_time": 36.7045455,
                "end_time": 36.8886364,
                "pitch": 32,
                "velocity": 51,
                "duration": 0.1840909,
                "tempo": 120.0
            },
            {
                "start_time": 36.9045455,
                "end_time": 38.4909091,
                "pitch": 43,
                "velocity": 51,
                "duration": 1.5863636,
                "tempo": 120.0
            },
            {
                "start_time": 38.5090909,
                "end_time": 39.5022727,
                "pitch": 34,
                "velocity": 51,
                "duration": 0.9931818,
                "tempo": 120.0
            },
            {
                "start_time": 39.5181818,
                "end_time": 39.6977273,
                "pitch": 41,
                "velocity": 51,
                "duration": 0.1795455,
                "tempo": 120.0
            },
            {
                "start_time": 39.7136364,
                "end_time": 39.8977273,
                "pitch": 43,
                "velocity": 51,
                "duration": 0.1840909,
                "tempo": 120.0
            },
            {
                "start_time": 39.9136364,
                "end_time": 40.0977273,
                "pitch": 45,
                "velocity": 51,
                "duration": 0.1840909,
                "tempo": 120.0
            },
            {
                "start_time": 40.1136364,
                "end_time": 40.7704545,
                "pitch": 33,
                "velocity": 51,
                "duration": 0.6568182,
                "tempo": 120.0
            },
            {
                "start_time": 40.7863636,
                "end_time": 41.3,
                "pitch": 33,
                "velocity": 51,
                "duration": 0.5136364,
                "tempo": 120.0
            },
            {
                "start_time": 41.3159091,
                "end_time": 41.5045455,
                "pitch": 38,
                "velocity": 51,
                "duration": 0.1886364,
                "tempo": 120.0
            },
            {
                "start_time": 41.5227273,
                "end_time": 41.7113636,
                "pitch": 40,
                "velocity": 51,
                "duration": 0.1886364,
                "tempo": 120.0
            },
            {
                "start_time": 41.7272727,
                "end_time": 42.7045455,
                "pitch": 32,
                "velocity": 51,
                "duration": 0.9772727,
                "tempo": 120.0
            },
            {
                "start_time": 42.7204545,
                "end_time": 43.1045455,
                "pitch": 43,
                "velocity": 51,
                "duration": 0.3840909,
                "tempo": 120.0
            },
            {
                "start_time": 43.1227273,
                "end_time": 43.3045455,
                "pitch": 41,
                "velocity": 51,
                "duration": 0.1818182,
                "tempo": 120.0
            },
            {
                "start_time": 43.3227273,
                "end_time": 44.3090909,
                "pitch": 31,
                "velocity": 51,
                "duration": 0.9863636,
                "tempo": 120.0
            },
            {
                "start_time": 44.325,
                "end_time": 44.7090909,
                "pitch": 40,
                "velocity": 51,
                "duration": 0.3840909,
                "tempo": 120.0
            }
        ],
        "Trumpet": [
            {
                "start_time": 0.0,
                "end_time": 0.0681818,
                "pitch": 45,
                "velocity": 51,
                "duration": 0.0681818,
                "tempo": 120.0
            },
            {
                "start_time": 0.5840909,
                "end_time": 0.6681818,
                "pitch": 45,
                "velocity": 51,
                "duration": 0.0840909,
                "tempo": 120.0
            },
            {
                "start_time": 1.1840909,
                "end_time": 1.5681818,
                "pitch": 45,
                "velocity": 51,
                "duration": 0.3840909,
                "tempo": 120.0
            },
            {
                "start_time": 1.5840909,
                "end_time": 1.6704545,
                "pitch": 45,
                "velocity": 51,
                "duration": 0.0863636,
                "tempo": 120.0
            },
            {
                "start_time": 2.1909091,
                "end_time": 2.2727273,
                "pitch": 45,
                "velocity": 51,
                "duration": 0.0818182,
                "tempo": 120.0
            },
            {
                "start_time": 2.7863636,
                "end_time": 3.1704545,
                "pitch": 45,
                "velocity": 51,
                "duration": 0.3840909,
                "tempo": 120.0
            },
            {
                "start_time": 3.1863636,
                "end_time": 3.2704545,
                "pitch": 47,
                "velocity": 51,
                "duration": 0.0840909,
                "tempo": 120.0
            },
            {
                "start_time": 3.7886364,
                "end_time": 3.8727273,
                "pitch": 47,
                "velocity": 51,
                "duration": 0.0840909,
                "tempo": 120.0
            },
            {
                "start_time": 4.3886364,
                "end_time": 4.7727273,
                "pitch": 47,
                "velocity": 51,
                "duration": 0.3840909,
                "tempo": 120.0
            },
            {
                "start_time": 4.7886364,
                "end_time": 4.8727273,
                "pitch": 47,
                "velocity": 51,
                "duration": 0.0840909,
                "tempo": 120.0
            },
            {
                "start_time": 5.3931818,
                "end_time": 5.475,
                "pitch": 47,
                "velocity": 51,
                "duration": 0.0818182,
                "tempo": 120.0
            },
            {
                "start_time": 5.9954545,
                "end_time": 6.3818182,
                "pitch": 47,
                "velocity": 51,
                "duration": 0.3863636,
                "tempo": 120.0
            },
            {
                "start_time": 6.3977273,
                "end_time": 6.4818182,
                "pitch": 45,
                "velocity": 51,
                "duration": 0.0840909,
                "tempo": 120.0
            },
            {
                "start_time": 7.0,
                "end_time": 7.0818182,
                "pitch": 45,
                "velocity": 51,
                "duration": 0.0818182,
                "tempo": 120.0
            },
            {
                "start_time": 7.6,
                "end_time": 7.9863636,
                "pitch": 45,
                "velocity": 51,
                "duration": 0.3863636,
                "tempo": 120.0
            },
            {
                "start_time": 8.0022727,
                "end_time": 8.0886364,
                "pitch": 45,
                "velocity": 51,
                "duration": 0.0863636,
                "tempo": 120.0
            },
            {
                "start_time": 8.6159091,
                "end_time": 8.7,
                "pitch": 45,
                "velocity": 51,
                "duration": 0.0840909,
                "tempo": 120.0
            },
            {
                "start_time": 9.2090909,
                "end_time": 9.5954545,
                "pitch": 45,
                "velocity": 51,
                "duration": 0.3863636,
                "tempo": 120.0
            },
            {
                "start_time": 9.6113636,
                "end_time": 9.6954545,
                "pitch": 47,
                "velocity": 51,
                "duration": 0.0840909,
                "tempo": 120.0
            },
            {
                "start_time": 10.2159091,
                "end_time": 10.3,
                "pitch": 47,
                "velocity": 51,
                "duration": 0.0840909,
                "tempo": 120.0
            },
            {
                "start_time": 10.8204545,
                "end_time": 11.2022727,
                "pitch": 47,
                "velocity": 51,
                "duration": 0.3818182,
                "tempo": 120.0
            },
            {
                "start_time": 11.2204545,
                "end_time": 11.3045455,
                "pitch": 47,
                "velocity": 51,
                "duration": 0.0840909,
                "tempo": 120.0
            },
            {
                "start_time": 11.8272727,
                "end_time": 11.9068182,
                "pitch": 47,
                "velocity": 51,
                "duration": 0.0795455,
                "tempo": 120.0
            },
            {
                "start_time": 12.425,
                "end_time": 12.8113636,
                "pitch": 47,
                "velocity": 51,
                "duration": 0.3863636,
                "tempo": 120.0
            },
            {
                "start_time": 12.8272727,
                "end_time": 12.9113636,
                "pitch": 45,
                "velocity": 51,
                "duration": 0.0840909,
                "tempo": 120.0
            },
            {
                "start_time": 13.4295455,
                "end_time": 13.8159091,
                "pitch": 45,
                "velocity": 51,
                "duration": 0.3863636,
                "tempo": 120.0
            },
            {
                "start_time": 13.8318182,
                "end_time": 14.0159091,
                "pitch": 45,
                "velocity": 51,
                "duration": 0.1840909,
                "tempo": 120.0
            },
            {
                "start_time": 14.0340909,
                "end_time": 14.2181818,
                "pitch": 45,
                "velocity": 51,
                "duration": 0.1840909,
                "tempo": 120.0
            },
            {
                "start_time": 14.2340909,
                "end_time": 14.6204545,
                "pitch": 45,
                "velocity": 51,
                "duration": 0.3863636,
                "tempo": 120.0
            },
            {
                "start_time": 14.6363636,
                "end_time": 14.8227273,
                "pitch": 45,
                "velocity": 51,
                "duration": 0.1863636,
                "tempo": 120.0
            },
            {
                "start_time": 14.8386364,
                "end_time": 15.2318182,
                "pitch": 45,
                "velocity": 51,
                "duration": 0.3931818,
                "tempo": 120.0
            },
            {
                "start_time": 15.25,
                "end_time": 15.5931818,
                "pitch": 45,
                "velocity": 51,
                "duration": 0.3431818,
                "tempo": 120.0
            },
            {
                "start_time": 15.6090909,
                "end_time": 16.0272727,
                "pitch": 45,
                "velocity": 51,
                "duration": 0.4181818,
                "tempo": 120.0
            },
            {
                "start_time": 16.0431818,
                "end_time": 16.0954545,
                "pitch": 47,
                "velocity": 51,
                "duration": 0.0522727,
                "tempo": 120.0
            },
            {
                "start_time": 16.6477273,
                "end_time": 16.6977273,
                "pitch": 47,
                "velocity": 51,
                "duration": 0.05,
                "tempo": 120.0
            },
            {
                "start_time": 17.25,
                "end_time": 17.4318182,
                "pitch": 47,
                "velocity": 51,
                "duration": 0.1818182,
                "tempo": 120.0
            },
            {
                "start_time": 17.45,
                "end_time": 17.6318182,
                "pitch": 47,
                "velocity": 51,
                "duration": 0.1818182,
                "tempo": 120.0
            },
            {
                "start_time": 17.65,
                "end_time": 18.0431818,
                "pitch": 47,
                "velocity": 51,
                "duration": 0.3931818,
                "tempo": 120.0
            },
            {
                "start_time": 18.0590909,
                "end_time": 18.1113636,
                "pitch": 47,
                "velocity": 51,
                "duration": 0.0522727,
                "tempo": 120.0
            },
            {
                "start_time": 18.6568182,
                "end_time": 19.2386364,
                "pitch": 47,
                "velocity": 51,
                "duration": 0.5818182,
                "tempo": 120.0
            },
            {
                "start_time": 19.2545455,
                "end_time": 19.3386364,
                "pitch": 45,
                "velocity": 51,
                "duration": 0.0840909,
                "tempo": 120.0
            },
            {
                "start_time": 19.8545455,
                "end_time": 19.9386364,
                "pitch": 45,
                "velocity": 51,
                "duration": 0.0840909,
                "tempo": 120.0
            },
            {
                "start_time": 20.4568182,
                "end_time": 20.8409091,
                "pitch": 45,
                "velocity": 51,
                "duration": 0.3840909,
                "tempo": 120.0
            },
            {
                "start_time": 20.8568182,
                "end_time": 20.9431818,
                "pitch": 45,
                "velocity": 51,
                "duration": 0.0863636,
                "tempo": 120.0
            },
            {
                "start_time": 21.4704545,
                "end_time": 21.5545455,
                "pitch": 45,
                "velocity": 51,
                "duration": 0.0840909,
                "tempo": 120.0
            },
            {
                "start_time": 22.0636364,
                "end_time": 22.45,
                "pitch": 45,
                "velocity": 51,
                "duration": 0.3863636,
                "tempo": 120.0
            },
            {
                "start_time": 22.4659091,
                "end_time": 22.55,
                "pitch": 47,
                "velocity": 51,
                "duration": 0.0840909,
                "tempo": 120.0
            },
            {
                "start_time": 23.0681818,
                "end_time": 23.1522727,
                "pitch": 47,
                "velocity": 51,
                "duration": 0.0840909,
                "tempo": 120.0
            },
            {
                "start_time": 23.6681818,
                "end_time": 24.0522727,
                "pitch": 47,
                "velocity": 51,
                "duration": 0.3840909,
                "tempo": 120.0
            },
            {
                "start_time": 24.0681818,
                "end_time": 24.1522727,
                "pitch": 47,
                "velocity": 51,
                "duration": 0.0840909,
                "tempo": 120.0
            },
            {
                "start_time": 24.6727273,
                "end_time": 24.7545455,
                "pitch": 47,
                "velocity": 51,
                "duration": 0.0818182,
                "tempo": 120.0
            },
            {
                "start_time": 25.275,
                "end_time": 25.6568182,
                "pitch": 47,
                "velocity": 51,
                "duration": 0.3818182,
                "tempo": 120.0
            },
            {
                "start_time": 25.675,
                "end_time": 25.7568182,
                "pitch": 45,
                "velocity": 51,
                "duration": 0.0818182,
                "tempo": 120.0
            },
            {
                "start_time": 26.275,
                "end_time": 26.6613636,
                "pitch": 45,
                "velocity": 51,
                "duration": 0.3863636,
                "tempo": 120.0
            },
            {
                "start_time": 26.6772727,
                "end_time": 26.8613636,
                "pitch": 45,
                "velocity": 51,
                "duration": 0.1840909,
                "tempo": 120.0
            },
            {
                "start_time": 26.8772727,
                "end_time": 27.0613636,
                "pitch": 45,
                "velocity": 51,
                "duration": 0.1840909,
                "tempo": 120.0
            },
            {
                "start_time": 27.0795455,
                "end_time": 27.4681818,
                "pitch": 45,
                "velocity": 51,
                "duration": 0.3886364,
                "tempo": 120.0
            },
            {
                "start_time": 27.4840909,
                "end_time": 27.6727273,
                "pitch": 45,
                "velocity": 51,
                "duration": 0.1886364,
                "tempo": 120.0
            },
            {
                "start_time": 27.6909091,
                "end_time": 28.075,
                "pitch": 45,
                "velocity": 51,
                "duration": 0.3840909,
                "tempo": 120.0
            },
            {
                "start_time": 28.0909091,
                "end_time": 28.4340909,
                "pitch": 45,
                "velocity": 51,
                "duration": 0.3431818,
                "tempo": 120.0
            },
            {
                "start_time": 28.45,
                "end_time": 28.8659091,
                "pitch": 45,
                "velocity": 51,
                "duration": 0.4159091,
                "tempo": 120.0
            },
            {
                "start_time": 28.8840909,
                "end_time": 28.9340909,
                "pitch": 47,
                "velocity": 51,
                "duration": 0.05,
                "tempo": 120.0
            },
            {
                "start_time": 29.4863636,
                "end_time": 29.5363636,
                "pitch": 47,
                "velocity": 51,
                "duration": 0.05,
                "tempo": 120.0
            },
            {
                "start_time": 30.0863636,
                "end_time": 30.2704545,
                "pitch": 47,
                "velocity": 51,
                "duration": 0.1840909,
                "tempo": 120.0
            },
            {
                "start_time": 30.2863636,
                "end_time": 30.4704545,
                "pitch": 47,
                "velocity": 51,
                "duration": 0.1840909,
                "tempo": 120.0
            },
            {
                "start_time": 30.4886364,
                "end_time": 30.8818182,
                "pitch": 47,
                "velocity": 51,
                "duration": 0.3931818,
                "tempo": 120.0
            },
            {
                "start_time": 30.9,
                "end_time": 30.95,
                "pitch": 47,
                "velocity": 51,
                "duration": 0.05,
                "tempo": 120.0
            },
            {
                "start_time": 31.4954545,
                "end_time": 32.075,
                "pitch": 47,
                "velocity": 51,
                "duration": 0.5795455,
                "tempo": 120.0
            },
            {
                "start_time": 32.0909091,
                "end_time": 32.275,
                "pitch": 62,
                "velocity": 51,
                "duration": 0.1840909,
                "tempo": 120.0
            },
            {
                "start_time": 32.2931818,
                "end_time": 32.4772727,
                "pitch": 62,
                "velocity": 51,
                "duration": 0.1840909,
                "tempo": 120.0
            },
            {
                "start_time": 32.4931818,
                "end_time": 32.6818182,
                "pitch": 62,
                "velocity": 51,
                "duration": 0.1886364,
                "tempo": 120.0
            },
            {
                "start_time": 32.7,
                "end_time": 32.8886364,
                "pitch": 62,
                "velocity": 51,
                "duration": 0.1886364,
                "tempo": 120.0
            },
            {
                "start_time": 32.9045455,
                "end_time": 33.0840909,
                "pitch": 62,
                "velocity": 51,
                "duration": 0.1795455,
                "tempo": 120.0
            },
            {
                "start_time": 33.1,
                "end_time": 33.2795455,
                "pitch": 62,
                "velocity": 51,
                "duration": 0.1795455,
                "tempo": 120.0
            },
            {
                "start_time": 33.2977273,
                "end_time": 33.4795455,
                "pitch": 62,
                "velocity": 51,
                "duration": 0.1818182,
                "tempo": 120.0
            },
            {
                "start_time": 33.4977273,
                "end_time": 33.6795455,
                "pitch": 62,
                "velocity": 51,
                "duration": 0.1818182,
                "tempo": 120.0
            },
            {
                "start_time": 33.6977273,
                "end_time": 33.8795455,
                "pitch": 62,
                "velocity": 51,
                "duration": 0.1818182,
                "tempo": 120.0
            },
            {
                "start_time": 33.8977273,
                "end_time": 34.0795455,
                "pitch": 62,
                "velocity": 51,
                "duration": 0.1818182,
                "tempo": 120.0
            },
            {
                "start_time": 34.0977273,
                "end_time": 34.2795455,
                "pitch": 62,
                "velocity": 51,
                "duration": 0.1818182,
                "tempo": 120.0
            },
            {
                "start_time": 34.2977273,
                "end_time": 34.4795455,
                "pitch": 62,
                "velocity": 51,
                "duration": 0.1818182,
                "tempo": 120.0
            },
            {
                "start_time": 34.4977273,
                "end_time": 34.6818182,
                "pitch": 62,
                "velocity": 51,
                "duration": 0.1840909,
                "tempo": 120.0
            },
            {
                "start_time": 34.6977273,
                "end_time": 34.8840909,
                "pitch": 62,
                "velocity": 51,
                "duration": 0.1863636,
                "tempo": 120.0
            },
            {
                "start_time": 34.9,
                "end_time": 35.0840909,
                "pitch": 62,
                "velocity": 51,
                "duration": 0.1840909,
                "tempo": 120.0
            },
            {
                "start_time": 35.1,
                "end_time": 35.2840909,
                "pitch": 62,
                "velocity": 51,
                "duration": 0.1840909,
                "tempo": 120.0
            },
            {
                "start_time": 35.3,
                "end_time": 35.4840909,
                "pitch": 64,
                "velocity": 51,
                "duration": 0.1840909,
                "tempo": 120.0
            },
            {
                "start_time": 35.5,
                "end_time": 35.6840909,
                "pitch": 64,
                "velocity": 51,
                "duration": 0.1840909,
                "tempo": 120.0
            },
            {
                "start_time": 35.7,
                "end_time": 35.8886364,
                "pitch": 64,
                "velocity": 51,
                "duration": 0.1886364,
                "tempo": 120.0
            },
            {
                "start_time": 35.9045455,
                "end_time": 36.0931818,
                "pitch": 64,
                "velocity": 51,
                "duration": 0.1886364,
                "tempo": 120.0
            },
            {
                "start_time": 36.1113636,
                "end_time": 36.2909091,
                "pitch": 64,
                "velocity": 51,
                "duration": 0.1795455,
                "tempo": 120.0
            },
            {
                "start_time": 36.3068182,
                "end_time": 36.4863636,
                "pitch": 64,
                "velocity": 51,
                "duration": 0.1795455,
                "tempo": 120.0
            },
            {
                "start_time": 36.5022727,
                "end_time": 36.6863636,
                "pitch": 64,
                "velocity": 51,
                "duration": 0.1840909,
                "tempo": 120.0
            },
            {
                "start_time": 36.7045455,
                "end_time": 36.8886364,
                "pitch": 64,
                "velocity": 51,
                "duration": 0.1840909,
                "tempo": 120.0
            },
            {
                "start_time": 36.9045455,
                "end_time": 37.0931818,
                "pitch": 62,
                "velocity": 51,
                "duration": 0.1886364,
                "tempo": 120.0
            },
            {
                "start_time": 37.1113636,
                "end_time": 37.3,
                "pitch": 62,
                "velocity": 51,
                "duration": 0.1886364,
                "tempo": 120.0
            },
            {
                "start_time": 37.3159091,
                "end_time": 37.4954545,
                "pitch": 62,
                "velocity": 51,
                "duration": 0.1795455,
                "tempo": 120.0
            },
            {
                "start_time": 37.5113636,
                "end_time": 37.6909091,
                "pitch": 62,
                "velocity": 51,
                "duration": 0.1795455,
                "tempo": 120.0
            },
            {
                "start_time": 37.7090909,
                "end_time": 37.8909091,
                "pitch": 62,
                "velocity": 51,
                "duration": 0.1818182,
                "tempo": 120.0
            },
            {
                "start_time": 37.9090909,
                "end_time": 38.0909091,
                "pitch": 62,
                "velocity": 51,
                "duration": 0.1818182,
                "tempo": 120.0
            },
            {
                "start_time": 38.1090909,
                "end_time": 38.2909091,
                "pitch": 62,
                "velocity": 51,
                "duration": 0.1818182,
                "tempo": 120.0
            },
            {
                "start_time": 38.3090909,
                "end_time": 38.4909091,
                "pitch": 62,
                "velocity": 51,
                "duration": 0.1818182,
                "tempo": 120.0
            },
            {
                "start_time": 38.5090909,
                "end_time": 38.6931818,
                "pitch": 62,
                "velocity": 51,
                "duration": 0.1840909,
                "tempo": 120.0
            },
            {
                "start_time": 38.7090909,
                "end_time": 38.8931818,
                "pitch": 62,
                "velocity": 51,
                "duration": 0.1840909,
                "tempo": 120.0
            },
            {
                "start_time": 38.9113636,
                "end_time": 39.1,
                "pitch": 62,
                "velocity": 51,
                "duration": 0.1886364,
                "tempo": 120.0
            },
            {
                "start_time": 39.1159091,
                "end_time": 39.3045455,
                "pitch": 62,
                "velocity": 51,
                "duration": 0.1886364,
                "tempo": 120.0
            },
            {
                "start_time": 39.3204545,
                "end_time": 39.5022727,
                "pitch": 62,
                "velocity": 51,
                "duration": 0.1818182,
                "tempo": 120.0
            },
            {
                "start_time": 39.5181818,
                "end_time": 39.6977273,
                "pitch": 62,
                "velocity": 51,
                "duration": 0.1795455,
                "tempo": 120.0
            },
            {
                "start_time": 39.7136364,
                "end_time": 39.8977273,
                "pitch": 62,
                "velocity": 51,
                "duration": 0.1840909,
                "tempo": 120.0
            },
            {
                "start_time": 39.9136364,
                "end_time": 40.0977273,
                "pitch": 62,
                "velocity": 51,
                "duration": 0.1840909,
                "tempo": 120.0
            },
            {
                "start_time": 40.1136364,
                "end_time": 40.3022727,
                "pitch": 62,
                "velocity": 51,
                "duration": 0.1886364,
                "tempo": 120.0
            },
            {
                "start_time": 40.3181818,
                "end_time": 40.5068182,
                "pitch": 62,
                "velocity": 51,
                "duration": 0.1886364,
                "tempo": 120.0
            },
            {
                "start_time": 40.525,
                "end_time": 40.7045455,
                "pitch": 62,
                "velocity": 51,
                "duration": 0.1795455,
                "tempo": 120.0
            },
            {
                "start_time": 40.7204545,
                "end_time": 40.9,
                "pitch": 62,
                "velocity": 51,
                "duration": 0.1795455,
                "tempo": 120.0
            },
            {
                "start_time": 40.9159091,
                "end_time": 41.1,
                "pitch": 62,
                "velocity": 51,
                "duration": 0.1840909,
                "tempo": 120.0
            },
            {
                "start_time": 41.1159091,
                "end_time": 41.3,
                "pitch": 62,
                "velocity": 51,
                "duration": 0.1840909,
                "tempo": 120.0
            },
            {
                "start_time": 41.3159091,
                "end_time": 41.5045455,
                "pitch": 62,
                "velocity": 51,
                "duration": 0.1886364,
                "tempo": 120.0
            },
            {
                "start_time": 41.5227273,
                "end_time": 41.7113636,
                "pitch": 62,
                "velocity": 51,
                "duration": 0.1886364,
                "tempo": 120.0
            },
            {
                "start_time": 41.7272727,
                "end_time": 41.9068182,
                "pitch": 64,
                "velocity": 51,
                "duration": 0.1795455,
                "tempo": 120.0
            },
            {
                "start_time": 41.9227273,
                "end_time": 42.0704545,
                "pitch": 64,
                "velocity": 51,
                "duration": 0.1477273,
                "tempo": 120.0
            },
            {
                "start_time": 42.0863636,
                "end_time": 42.3022727,
                "pitch": 64,
                "velocity": 51,
                "duration": 0.2159091,
                "tempo": 120.0
            },
            {
                "start_time": 42.3204545,
                "end_time": 42.5022727,
                "pitch": 64,
                "velocity": 51,
                "duration": 0.1818182,
                "tempo": 120.0
            },
            {
                "start_time": 42.5204545,
                "end_time": 42.7045455,
                "pitch": 64,
                "velocity": 51,
                "duration": 0.1840909,
                "tempo": 120.0
            },
            {
                "start_time": 42.7204545,
                "end_time": 42.9045455,
                "pitch": 64,
                "velocity": 51,
                "duration": 0.1840909,
                "tempo": 120.0
            },
            {
                "start_time": 42.9227273,
                "end_time": 43.0727273,
                "pitch": 64,
                "velocity": 51,
                "duration": 0.15,
                "tempo": 120.0
            },
            {
                "start_time": 43.0886364,
                "end_time": 43.3045455,
                "pitch": 64,
                "velocity": 51,
                "duration": 0.2159091,
                "tempo": 120.0
            },
            {
                "start_time": 43.3227273,
                "end_time": 43.5113636,
                "pitch": 62,
                "velocity": 51,
                "duration": 0.1886364,
                "tempo": 120.0
            },
            {
                "start_time": 43.5272727,
                "end_time": 43.7159091,
                "pitch": 62,
                "velocity": 51,
                "duration": 0.1886364,
                "tempo": 120.0
            },
            {
                "start_time": 43.7318182,
                "end_time": 43.9136364,
                "pitch": 62,
                "velocity": 51,
                "duration": 0.1818182,
                "tempo": 120.0
            },
            {
                "start_time": 43.9295455,
                "end_time": 44.1090909,
                "pitch": 62,
                "velocity": 51,
                "duration": 0.1795455,
                "tempo": 120.0
            },
            {
                "start_time": 44.125,
                "end_time": 44.3090909,
                "pitch": 62,
                "velocity": 51,
                "duration": 0.1840909,
                "tempo": 120.0
            },
            {
                "start_time": 44.325,
                "end_time": 44.5090909,
                "pitch": 62,
                "velocity": 51,
                "duration": 0.1840909,
                "tempo": 120.0
            },
            {
                "start_time": 44.525,
                "end_time": 44.7090909,
                "pitch": 62,
                "velocity": 51,
                "duration": 0.1840909,
                "tempo": 120.0
            },
            {
                "start_time": 44.7272727,
                "end_time": 44.7772727,
                "pitch": 62,
                "velocity": 51,
                "duration": 0.05,
                "tempo": 120.0
            }
        ]
    }
}