{
    "mood": "happy",
    "instruments": {
        "Clarinet": [
            {
                "start_time": 0.0022727,
                "end_time": 0.1181818,
                "pitch": 68,
                "velocity": 64,
                "duration": 0.1159091,
                "tempo": 120.0
            },
            {
                "start_time": 0.1363636,
                "end_time": 0.2522727,
                "pitch": 76,
                "velocity": 64,
                "duration": 0.1159091,
                "tempo": 120.0
            },
            {
                "start_time": 0.2681818,
                "end_time": 0.3863636,
                "pitch": 80,
                "velocity": 64,
                "duration": 0.1181818,
                "tempo": 120.0
            },
            {
                "start_time": 0.4022727,
                "end_time": 0.6295455,
                "pitch": 83,
                "velocity": 64,
                "duration": 0.2272727,
                "tempo": 120.0
            },
            {
                "start_time": 0.6613636,
                "end_time": 0.8954545,
                "pitch": 80,
                "velocity": 64,
                "duration": 0.2340909,
                "tempo": 120.0
            },
            {
                "start_time": 0.9295455,
                "end_time": 1.1613636,
                "pitch": 76,
                "velocity": 64,
                "duration": 0.2318182,
                "tempo": 120.0
            },
            {
                "start_time": 1.1954545,
                "end_time": 1.4295455,
                "pitch": 73,
                "velocity": 64,
                "duration": 0.2340909,
                "tempo": 120.0
            },
            {
                "start_time": 1.4613636,
                "end_time": 1.6954545,
                "pitch": 78,
                "velocity": 64,
                "duration": 0.2340909,
                "tempo": 120.0
            },
            {
                "start_time": 1.7295455,
                "end_time": 1.9613636,
                "pitch": 81,
                "velocity": 64,
                "duration": 0.2318182,
                "tempo": 120.0
            },
            {
                "start_time": 1.9954545,
                "end_time": 2.2295455,
                "pitch": 85,
                "velocity": 64,
                "duration": 0.2340909,
                "tempo": 120.0
            },
            {
                "start_time": 2.2613636,
                "end_time": 2.4954545,
                "pitch": 81,
                "velocity": 64,
                "duration": 0.2340909,
                "tempo": 120.0
            },
            {
                "start_time": 2.5295455,
                "end_time": 2.7613636,
                "pitch": 78,
                "velocity": 64,
                "duration": 0.2318182,
                "tempo": 120.0
            },
            {
                "start_time": 2.7954545,
                "end_time": 2.9613636,
                "pitch": 75,
                "velocity": 64,
                "duration": 0.1659091,
                "tempo": 120.0
            },
            {
                "start_time": 2.9954545,
                "end_time": 3.1613636,
                "pitch": 78,
                "velocity": 64,
                "duration": 0.1659091,
                "tempo": 120.0
            },
            {
                "start_time": 3.1954545,
                "end_time": 3.3613636,
                "pitch": 81,
                "velocity": 64,
                "duration": 0.1659091,
                "tempo": 120.0
            },
            {
                "start_time": 3.3954545,
                "end_time": 3.5613636,
                "pitch": 85,
                "velocity": 64,
                "duration": 0.1659091,
                "tempo": 120.0
            },
            {
                "start_time": 3.5954545,
                "end_time": 5.9818182,
                "pitch": 83,
                "velocity": 64,
                "duration": 2.3863636,
                "tempo": 120.0
            }
        ],
        "Acoustic Bass": [
            {
                "start_time": 0.0022727,
                "end_time": 0.3863636,
                "pitch": 40,
                "velocity": 51,
                "duration": 0.3840909,
                "tempo": 120.0
            },
            {
                "start_time": 0.4022727,
                "end_time": 1.1613636,
                "pitch": 42,
                "velocity": 51,
                "duration": 0.7590909,
                "tempo": 120.0
            },
            {
                "start_time": 1.1954545,
                "end_time": 1.9613636,
                "pitch": 44,
                "velocity": 51,
                "duration": 0.7659091,
                "tempo": 120.0
            },
            {
                "start_time": 1.9954545,
                "end_time": 2.7613636,
                "pitch": 45,
                "velocity": 51,
                "duration": 0.7659091,
                "tempo": 120.0
            },
            {
                "start_time": 2.7954545,
                "end_time": 3.5613636,
                "pitch": 47,
                "velocity": 51,
                "duration": 0.7659091,
                "tempo": 120.0
            },
            {
                "start_time": 3.5954545,
                "end_time": 5.9818182,
                "pitch": 52,
                "velocity": 51,
                "duration": 2.3863636,
                "tempo": 120.0
            }
        ],
        "Vibraphone": [
            {
                "start_time": 0.2022727,
                "end_time": 0.2863636,
                "pitch": 71,
                "velocity": 51,
                "duration": 0.0840909,
                "tempo": 120.0
            },
            {
                "start_time": 0.3022727,
                "end_time": 0.7613636,
                "pitch": 75,
                "velocity": 51,
                "duration": 0.4590909,
                "tempo": 120.0
            },
            {
                "start_time": 0.7954545,
                "end_time": 0.9613636,
                "pitch": 73,
                "velocity": 51,
                "duration": 0.1659091,
                "tempo": 120.0
            },
            {
                "start_time": 0.9954545,
                "end_time": 1.5613636,
                "pitch": 76,
                "velocity": 51,
                "duration": 0.5659091,
                "tempo": 120.0
            },
            {
                "start_time": 1.5954545,
                "end_time": 1.7613636,
                "pitch": 75,
                "velocity": 51,
                "duration": 0.1659091,
                "tempo": 120.0
            },
            {
                "start_time": 1.7954545,
                "end_time": 2.3613636,
                "pitch": 78,
                "velocity": 51,
                "duration": 0.5659091,
                "tempo": 120.0
            },
            {
                "start_time": 2.3954545,
                "end_time": 2.5613636,
                "pitch": 76,
                "velocity": 51,
                "duration": 0.1659091,
                "tempo": 120.0
            },
            {
                "start_time": 2.5954545,
                "end_time": 3.1613636,
                "pitch": 80,
                "velocity": 51,
                "duration": 0.5659091,
                "tempo": 120.0
            },
            {
                "start_time": 3.1954545,
                "end_time": 3.3613636,
                "pitch": 78,
                "velocity": 51,
                "duration": 0.1659091,
                "tempo": 120.0
            },
            {
                "start_time": 3.3954545,
                "end_time": 3.5613636,
                "pitch": 81,
                "velocity": 51,
                "duration": 0.1659091,
                "tempo": 120.0
            },
            {
                "start_time": 3.5954545,
                "end_time": 5.9818182,
                "pitch": 80,
                "velocity": 51,
                "duration": 2.3863636,
                "tempo": 120.0
            }
        ]
    }
}