{
    "mood": "happy",
    "instruments": {
        "French Horn": [
            {
                "start_time": 0.0045455,
                "end_time": 0.2545455,
                "pitch": 64,
                "velocity": 64,
                "duration": 0.25,
                "tempo": 120.0
            },
            {
                "start_time": 0.2727273,
                "end_time": 0.3886364,
                "pitch": 67,
                "velocity": 64,
                "duration": 0.1159091,
                "tempo": 120.0
            },
            {
                "start_time": 0.4045455,
                "end_time": 0.65,
                "pitch": 69,
                "velocity": 64,
                "duration": 0.2454545,
                "tempo": 120.0
            },
            {
                "start_time": 0.6659091,
                "end_time": 0.7818182,
                "pitch": 64,
                "velocity": 64,
                "duration": 0.1159091,
                "tempo": 120.0
            },
            {
                "start_time": 0.7977273,
                "end_time": 1.05,
                "pitch": 67,
                "velocity": 64,
                "duration": 0.2522727,
                "tempo": 120.0
            },
            {
                "start_time": 1.0659091,
                "end_time": 1.1840909,
                "pitch": 69,
                "velocity": 64,
                "duration": 0.1181818,
                "tempo": 120.0
            },
            {
                "start_time": 1.2,
                "end_time": 1.45,
                "pitch": 64,
                "velocity": 64,
                "duration": 0.25,
                "tempo": 120.0
            },
            {
                "start_time": 1.4659091,
                "end_time": 1.5840909,
                "pitch": 67,
                "velocity": 64,
                "duration": 0.1181818,
                "tempo": 120.0
            },
            {
                "start_time": 1.6,
                "end_time": 1.8522727,
                "pitch": 70,
                "velocity": 64,
                "duration": 0.2522727,
                "tempo": 120.0
            },
            {
                "start_time": 1.8681818,
                "end_time": 2.2522727,
                "pitch": 70,
                "velocity": 64,
                "duration": 0.3840909,
                "tempo": 120.0
            },
            {
                "start_time": 2.2704545,
                "end_time": 2.6545455,
                "pitch": 70,
                "velocity": 64,
                "duration": 0.3840909,
                "tempo": 120.0
            },
            {
                "start_time": 2.6704545,
                "end_time": 2.7886364,
                "pitch": 69,
                "velocity": 64,
                "duration": 0.1181818,
                "tempo": 120.0
            },
            {
                "start_time": 2.8045455,
                "end_time": 3.0545455,
                "pitch": 67,
                "velocity": 64,
                "duration": 0.25,
                "tempo": 120.0
            },
            {
                "start_time": 3.0727273,
                "end_time": 3.1886364,
                "pitch": 69,
                "velocity": 64,
                "duration": 0.1159091,
                "tempo": 120.0
            },
            {
                "start_time": 3.2045455,
                "end_time": 3.4545455,
                "pitch": 69,
                "velocity": 64,
                "duration": 0.25,
                "tempo": 120.0
            },
            {
                "start_time": 3.4727273,
                "end_time": 3.5886364,
                "pitch": 72,
                "velocity": 64,
                "duration": 0.1159091,
                "tempo": 120.0
            },
            {
                "start_time": 3.6045455,
                "end_time": 3.8545455,
                "pitch": 74,
                "velocity": 64,
                "duration": 0.25,
                "tempo": 120.0
            },
            {
                "start_time": 3.8727273,
                "end_time": 3.9886364,
                "pitch": 69,
                "velocity": 64,
                "duration": 0.1159091,
                "tempo": 120.0
            },
            {
                "start_time": 4.0045455,
                "end_time": 4.2545455,
                "pitch": 72,
                "velocity": 64,
                "duration": 0.25,
                "tempo": 120.0
            },
            {
                "start_time": 4.2727273,
                "end_time": 4.3886364,
                "pitch": 74,
                "velocity": 64,
                "duration": 0.1159091,
                "tempo": 120.0
            },
            {
                "start_time": 4.4045455,
                "end_time": 4.6568182,
                "pitch": 69,
                "velocity": 64,
                "duration": 0.2522727,
                "tempo": 120.0
            },
            {
                "start_time": 4.675,
                "end_time": 4.7909091,
                "pitch": 72,
                "velocity": 64,
                "duration": 0.1159091,
                "tempo": 120.0
            },
            {
                "start_time": 4.8090909,
                "end_time": 5.0590909,
                "pitch": 75,
                "velocity": 64,
                "duration": 0.25,
                "tempo": 120.0
            },
            {
                "start_time": 5.075,
                "end_time": 5.4590909,
                "pitch": 75,
                "velocity": 64,
                "duration": 0.3840909,
                "tempo": 120.0
            },
            {
                "start_time": 5.4772727,
                "end_time": 5.8636364,
                "pitch": 75,
                "velocity": 64,
                "duration": 0.3863636,
                "tempo": 120.0
            },
            {
                "start_time": 5.8795455,
                "end_time": 5.9977273,
                "pitch": 74,
                "velocity": 64,
                "duration": 0.1181818,
                "tempo": 120.0
            },
            {
                "start_time": 6.0136364,
                "end_time": 6.2636364,
                "pitch": 72,
                "velocity": 64,
                "duration": 0.25,
                "tempo": 120.0
            },
            {
                "start_time": 6.2795455,
                "end_time": 6.3977273,
                "pitch": 74,
                "velocity": 64,
                "duration": 0.1181818,
                "tempo": 120.0
            },
            {
                "start_time": 6.4136364,
                "end_time": 6.5977273,
                "pitch": 72,
                "velocity": 64,
                "duration": 0.1840909,
                "tempo": 120.0
            },
            {
                "start_time": 6.8159091,
                "end_time": 7.0659091,
                "pitch": 67,
                "velocity": 64,
                "duration": 0.25,
                "tempo": 120.0
            },
            {
                "start_time": 7.0818182,
                "end_time": 7.4681818,
                "pitch": 69,
                "velocity": 64,
                "duration": 0.3863636,
                "tempo": 120.0
            },
            {
                "start_time": 7.4840909,
                "end_time": 7.6022727,
                "pitch": 67,
                "velocity": 64,
                "duration": 0.1181818,
                "tempo": 120.0
            },
            {
                "start_time": 7.6181818,
                "end_time": 8.0045455,
                "pitch": 69,
                "velocity": 64,
                "duration": 0.3863636,
                "tempo": 120.0
            },
            {
                "start_time": 8.0204545,
                "end_time": 8.2045455,
                "pitch": 70,
                "velocity": 64,
                "duration": 0.1840909,
                "tempo": 120.0
            },
            {
                "start_time": 8.4227273,
                "end_time": 8.6727273,
                "pitch": 65,
                "velocity": 64,
                "duration": 0.25,
                "tempo": 120.0
            },
            {
                "start_time": 8.6909091,
                "end_time": 9.075,
                "pitch": 67,
                "velocity": 64,
                "duration": 0.3840909,
                "tempo": 120.0
            },
            {
                "start_time": 9.0931818,
                "end_time": 9.2090909,
                "pitch": 65,
                "velocity": 64,
                "duration": 0.1159091,
                "tempo": 120.0
            },
            {
                "start_time": 9.2272727,
                "end_time": 9.6136364,
                "pitch": 67,
                "velocity": 64,
                "duration": 0.3863636,
                "tempo": 120.0
            },
            {
                "start_time": 9.6295455,
                "end_time": 9.8795455,
                "pitch": 69,
                "velocity": 64,
                "duration": 0.25,
                "tempo": 120.0
            },
            {
                "start_time": 9.8954545,
                "end_time": 10.0136364,
                "pitch": 72,
                "velocity": 64,
                "duration": 0.1181818,
                "tempo": 120.0
            },
            {
                "start_time": 10.0295455,
                "end_time": 10.2818182,
                "pitch": 74,
                "velocity": 64,
                "duration": 0.2522727,
                "tempo": 120.0
            },
            {
                "start_time": 10.2977273,
                "end_time": 10.4159091,
                "pitch": 72,
                "velocity": 64,
                "duration": 0.1181818,
                "tempo": 120.0
            },
            {
                "start_time": 10.4318182,
                "end_time": 10.6840909,
                "pitch": 74,
                "velocity": 64,
                "duration": 0.2522727,
                "tempo": 120.0
            },
            {
                "start_time": 10.7,
                "end_time": 11.2204545,
                "pitch": 76,
                "velocity": 64,
                "duration": 0.5204545,
                "tempo": 120.0
            },
            {
                "start_time": 11.2386364,
                "end_time": 11.6227273,
                "pitch": 72,
                "velocity": 64,
                "duration": 0.3840909,
                "tempo": 120.0
            },
            {
                "start_time": 12.0409091,
                "end_time": 12.825,
                "pitch": 70,
                "velocity": 64,
                "duration": 0.7840909,
                "tempo": 120.0
            },
            {
                "start_time": 12.8431818,
                "end_time": 13.0272727,
                "pitch": 69,
                "velocity": 64,
                "duration": 0.1840909,
                "tempo": 120.0
            },
            {
                "start_time": 13.2454545,
                "end_time": 13.4977273,
                "pitch": 77,
                "velocity": 64,
                "duration": 0.2522727,
                "tempo": 120.0
            },
            {
                "start_time": 13.5136364,
                "end_time": 13.6318182,
                "pitch": 74,
                "velocity": 64,
                "duration": 0.1181818,
                "tempo": 120.0
            },
            {
                "start_time": 13.9159091,
                "end_time": 14.0318182,
                "pitch": 72,
                "velocity": 64,
                "duration": 0.1159091,
                "tempo": 120.0
            },
            {
                "start_time": 14.0477273,
                "end_time": 14.4340909,
                "pitch": 74,
                "velocity": 64,
                "duration": 0.3863636,
                "tempo": 120.0
            },
            {
                "start_time": 14.4522727,
                "end_time": 14.6363636,
                "pitch": 69,
                "velocity": 64,
                "duration": 0.1840909,
                "tempo": 120.0
            },
            {
                "start_time": 14.8545455,
                "end_time": 15.1068182,
                "pitch": 77,
                "velocity": 64,
                "duration": 0.2522727,
                "tempo": 120.0
            },
            {
                "start_time": 15.1227273,
                "end_time": 15.2409091,
                "pitch": 74,
                "velocity": 64,
                "duration": 0.1181818,
                "tempo": 120.0
            },
            {
                "start_time": 15.525,
                "end_time": 15.6431818,
                "pitch": 72,
                "velocity": 64,
                "duration": 0.1181818,
                "tempo": 120.0
            },
            {
                "start_time": 15.6590909,
                "end_time": 16.0431818,
                "pitch": 74,
                "velocity": 64,
                "duration": 0.3840909,
                "tempo": 120.0
            },
            {
                "start_time": 16.0590909,
                "end_time": 16.3113636,
                "pitch": 67,
                "velocity": 64,
                "duration": 0.2522727,
                "tempo": 120.0
            },
            {
                "start_time": 16.3272727,
                "end_time": 16.4454545,
                "pitch": 72,
                "velocity": 64,
                "duration": 0.1181818,
                "tempo": 120.0
            },
            {
                "start_time": 16.7295455,
                "end_time": 16.8454545,
                "pitch": 67,
                "velocity": 64,
                "duration": 0.1159091,
                "tempo": 120.0
            },
            {
                "start_time": 16.8613636,
                "end_time": 17.0454545,
                "pitch": 72,
                "velocity": 64,
                "duration": 0.1840909,
                "tempo": 120.0
            },
            {
                "start_time": 17.2613636,
                "end_time": 17.5136364,
                "pitch": 76,
                "velocity": 64,
                "duration": 0.2522727,
                "tempo": 120.0
            },
            {
                "start_time": 17.5295455,
                "end_time": 17.6477273,
                "pitch": 72,
                "velocity": 64,
                "duration": 0.1181818,
                "tempo": 120.0
            },
            {
                "start_time": 17.925,
                "end_time": 18.0409091,
                "pitch": 77,
                "velocity": 64,
                "duration": 0.1159091,
                "tempo": 120.0
            },
            {
                "start_time": 18.0568182,
                "end_time": 18.2454545,
                "pitch": 72,
                "velocity": 64,
                "duration": 0.1886364,
                "tempo": 120.0
            },
            {
                "start_time": 18.4681818,
                "end_time": 18.85,
                "pitch": 67,
                "velocity": 64,
                "duration": 0.3818182,
                "tempo": 120.0
            },
            {
                "start_time": 19.2681818,
                "end_time": 19.4477273,
                "pitch": 69,
                "velocity": 64,
                "duration": 0.1795455,
                "tempo": 120.0
            },
            {
                "start_time": 19.6590909,
                "end_time": 19.9159091,
                "pitch": 77,
                "velocity": 64,
                "duration": 0.2568182,
                "tempo": 120.0
            },
            {
                "start_time": 19.9340909,
                "end_time": 20.0522727,
                "pitch": 74,
                "velocity": 64,
                "duration": 0.1181818,
                "tempo": 120.0
            },
            {
                "start_time": 20.3386364,
                "end_time": 20.4568182,
                "pitch": 72,
                "velocity": 64,
                "duration": 0.1181818,
                "tempo": 120.0
            },
            {
                "start_time": 20.4727273,
                "end_time": 20.8568182,
                "pitch": 74,
                "velocity": 64,
                "duration": 0.3840909,
                "tempo": 120.0
            },
            {
                "start_time": 20.8727273,
                "end_time": 21.0568182,
                "pitch": 69,
                "velocity": 64,
                "duration": 0.1840909,
                "tempo": 120.0
            },
            {
                "start_time": 21.2727273,
                "end_time": 21.525,
                "pitch": 77,
                "velocity": 64,
                "duration": 0.2522727,
                "tempo": 120.0
            },
            {
                "start_time": 21.5409091,
                "end_time": 21.6590909,
                "pitch": 74,
                "velocity": 64,
                "duration": 0.1181818,
                "tempo": 120.0
            },
            {
                "start_time": 21.9431818,
                "end_time": 22.0590909,
                "pitch": 72,
                "velocity": 64,
                "duration": 0.1159091,
                "tempo": 120.0
            },
            {
                "start_time": 22.075,
                "end_time": 22.4613636,
                "pitch": 74,
                "velocity": 64,
                "duration": 0.3863636,
                "tempo": 120.0
            },
            {
                "start_time": 22.4795455,
                "end_time": 22.6613636,
                "pitch": 71,
                "velocity": 64,
                "duration": 0.1818182,
                "tempo": 120.0
            },
            {
                "start_time": 22.8795455,
                "end_time": 23.0613636,
                "pitch": 71,
                "velocity": 64,
                "duration": 0.1818182,
                "tempo": 120.0
            },
            {
                "start_time": 23.2795455,
                "end_time": 23.4636364,
                "pitch": 72,
                "velocity": 64,
                "duration": 0.1840909,
                "tempo": 120.0
            },
            {
                "start_time": 23.6818182,
                "end_time": 23.9318182,
                "pitch": 73,
                "velocity": 64,
                "duration": 0.25,
                "tempo": 120.0
            },
            {
                "start_time": 23.9477273,
                "end_time": 24.0636364,
                "pitch": 74,
                "velocity": 64,
                "duration": 0.1159091,
                "tempo": 120.0
            },
            {
                "start_time": 24.8840909,
                "end_time": 25.6795455,
                "pitch": 75,
                "velocity": 64,
                "duration": 0.7954545,
                "tempo": 120.0
            },
            {
                "start_time": 25.6977273,
                "end_time": 25.9363636,
                "pitch": 64,
                "velocity": 64,
                "duration": 0.2386364,
                "tempo": 120.0
            },
            {
                "start_time": 25.9522727,
                "end_time": 26.0636364,
                "pitch": 67,
                "velocity": 64,
                "duration": 0.1113636,
                "tempo": 120.0
            },
            {
                "start_time": 26.0795455,
                "end_time": 26.3363636,
                "pitch": 69,
                "velocity": 64,
                "duration": 0.2568182,
                "tempo": 120.0
            },
            {
                "start_time": 26.3522727,
                "end_time": 26.4727273,
                "pitch": 64,
                "velocity": 64,
                "duration": 0.1204545,
                "tempo": 120.0
            },
            {
                "start_time": 26.4886364,
                "end_time": 26.7340909,
                "pitch": 67,
                "velocity": 64,
                "duration": 0.2454545,
                "tempo": 120.0
            },
            {
                "start_time": 26.75,
                "end_time": 26.8659091,
                "pitch": 69,
                "velocity": 64,
                "duration": 0.1159091,
                "tempo": 120.0
            },
            {
                "start_time": 26.8818182,
                "end_time": 27.1386364,
                "pitch": 64,
                "velocity": 64,
                "duration": 0.2568182,
                "tempo": 120.0
            },
            {
                "start_time": 27.1545455,
                "end_time": 27.275,
                "pitch": 67,
                "velocity": 64,
                "duration": 0.1204545,
                "tempo": 120.0
            },
            {
                "start_time": 27.2931818,
                "end_time": 27.5363636,
                "pitch": 70,
                "velocity": 64,
                "duration": 0.2431818,
                "tempo": 120.0
            },
            {
                "start_time": 27.5545455,
                "end_time": 27.9409091,
                "pitch": 70,
                "velocity": 64,
                "duration": 0.3863636,
                "tempo": 120.0
            },
            {
                "start_time": 27.9590909,
                "end_time": 28.3477273,
                "pitch": 70,
                "velocity": 64,
                "duration": 0.3886364,
                "tempo": 120.0
            },
            {
                "start_time": 28.3636364,
                "end_time": 28.4818182,
                "pitch": 69,
                "velocity": 64,
                "duration": 0.1181818,
                "tempo": 120.0
            },
            {
                "start_time": 28.4977273,
                "end_time": 28.7477273,
                "pitch": 67,
                "velocity": 64,
                "duration": 0.25,
                "tempo": 120.0
            },
            {
                "start_time": 28.7636364,
                "end_time": 28.8818182,
                "pitch": 69,
                "velocity": 64,
                "duration": 0.1181818,
                "tempo": 120.0
            },
            {
                "start_time": 28.8977273,
                "end_time": 29.1477273,
                "pitch": 69,
                "velocity": 64,
                "duration": 0.25,
                "tempo": 120.0
            },
            {
                "start_time": 29.1636364,
                "end_time": 29.2818182,
                "pitch": 72,
                "velocity": 64,
                "duration": 0.1181818,
                "tempo": 120.0
            },
            {
                "start_time": 29.2977273,
                "end_time": 29.55,
                "pitch": 74,
                "velocity": 64,
                "duration": 0.2522727,
                "tempo": 120.0
            },
            {
                "start_time": 29.5659091,
                "end_time": 29.6840909,
                "pitch": 69,
                "velocity": 64,
                "duration": 0.1181818,
                "tempo": 120.0
            },
            {
                "start_time": 29.7,
                "end_time": 29.95,
                "pitch": 72,
                "velocity": 64,
                "duration": 0.25,
                "tempo": 120.0
            },
            {
                "start_time": 29.9681818,
                "end_time": 30.0840909,
                "pitch": 74,
                "velocity": 64,
                "duration": 0.1159091,
                "tempo": 120.0
            },
            {
                "start_time": 30.1,
                "end_time": 30.3522727,
                "pitch": 69,
                "velocity": 64,
                "duration": 0.2522727,
                "tempo": 120.0
            },
            {
                "start_time": 30.3681818,
                "end_time": 30.4863636,
                "pitch": 72,
                "velocity": 64,
                "duration": 0.1181818,
                "tempo": 120.0
            },
            {
                "start_time": 30.5022727,
                "end_time": 30.7522727,
                "pitch": 75,
                "velocity": 64,
                "duration": 0.25,
                "tempo": 120.0
            },
            {
                "start_time": 30.7704545,
                "end_time": 31.1522727,
                "pitch": 75,
                "velocity": 64,
                "duration": 0.3818182,
                "tempo": 120.0
            },
            {
                "start_time": 31.1704545,
                "end_time": 31.5545455,
                "pitch": 75,
                "velocity": 64,
                "duration": 0.3840909,
                "tempo": 120.0
            },
            {
                "start_time": 31.5727273,
                "end_time": 31.6886364,
                "pitch": 74,
                "velocity": 64,
                "duration": 0.1159091,
                "tempo": 120.0
            },
            {
                "start_time": 31.7068182,
                "end_time": 31.9568182,
                "pitch": 72,
                "velocity": 64,
                "duration": 0.25,
                "tempo": 120.0
            },
            {
                "start_time": 31.9727273,
                "end_time": 32.0886364,
                "pitch": 74,
                "velocity": 64,
                "duration": 0.1159091,
                "tempo": 120.0
            },
            {
                "start_time": 32.1068182,
                "end_time": 32.2886364,
                "pitch": 72,
                "velocity": 64,
                "duration": 0.1818182,
                "tempo": 120.0
            },
            {
                "start_time": 32.5068182,
                "end_time": 32.7568182,
                "pitch": 67,
                "velocity": 64,
                "duration": 0.25,
                "tempo": 120.0
            },
            {
                "start_time": 32.7727273,
                "end_time": 33.1568182,
                "pitch": 69,
                "velocity": 64,
                "duration": 0.3840909,
                "tempo": 120.0
            },
            {
                "start_time": 33.175,
                "end_time": 33.2909091,
                "pitch": 67,
                "velocity": 64,
                "duration": 0.1159091,
                "tempo": 120.0
            },
            {
                "start_time": 33.3090909,
                "end_time": 33.6909091,
                "pitch": 69,
                "velocity": 64,
                "duration": 0.3818182,
                "tempo": 120.0
            },
            {
                "start_time": 33.7090909,
                "end_time": 33.8909091,
                "pitch": 70,
                "velocity": 64,
                "duration": 0.1818182,
                "tempo": 120.0
            },
            {
                "start_time": 34.1090909,
                "end_time": 34.3590909,
                "pitch": 65,
                "velocity": 64,
                "duration": 0.25,
                "tempo": 120.0
            },
            {
                "start_time": 34.375,
                "end_time": 34.7590909,
                "pitch": 67,
                "velocity": 64,
                "duration": 0.3840909,
                "tempo": 120.0
            },
            {
                "start_time": 34.775,
                "end_time": 34.8909091,
                "pitch": 65,
                "velocity": 64,
                "duration": 0.1159091,
                "tempo": 120.0
            },
            {
                "start_time": 34.9090909,
                "end_time": 35.2954545,
                "pitch": 67,
                "velocity": 64,
                "duration": 0.3863636,
                "tempo": 120.0
            },
            {
                "start_time": 35.3113636,
                "end_time": 35.5613636,
                "pitch": 69,
                "velocity": 64,
                "duration": 0.25,
                "tempo": 120.0
            },
            {
                "start_time": 35.5772727,
                "end_time": 35.6954545,
                "pitch": 72,
                "velocity": 64,
                "duration": 0.1181818,
                "tempo": 120.0
            },
            {
                "start_time": 35.7113636,
                "end_time": 35.9613636,
                "pitch": 74,
                "velocity": 64,
                "duration": 0.25,
                "tempo": 120.0
            },
            {
                "start_time": 35.9772727,
                "end_time": 36.0954545,
                "pitch": 72,
                "velocity": 64,
                "duration": 0.1181818,
                "tempo": 120.0
            },
            {
                "start_time": 36.1113636,
                "end_time": 36.3613636,
                "pitch": 74,
                "velocity": 64,
                "duration": 0.25,
                "tempo": 120.0
            },
            {
                "start_time": 36.3772727,
                "end_time": 36.8954545,
                "pitch": 76,
                "velocity": 64,
                "duration": 0.5181818,
                "tempo": 120.0
            },
            {
                "start_time": 36.9113636,
                "end_time": 37.6977273,
                "pitch": 72,
                "velocity": 64,
                "duration": 0.7863636,
                "tempo": 120.0
            }
        ],
        "Acoustic Bass": [
            {
                "start_time": 0.0045455,
                "end_time": 0.3886364,
                "pitch": 48,
                "velocity": 51,
                "duration": 0.3840909,
                "tempo": 120.0
            },
            {
                "start_time": 0.6022727,
                "end_time": 0.7818182,
                "pitch": 48,
                "velocity": 51,
                "duration": 0.1795455,
                "tempo": 120.0
            },
            {
                "start_time": 0.7977273,
                "end_time": 1.1840909,
                "pitch": 48,
                "velocity": 51,
                "duration": 0.3863636,
                "tempo": 120.0
            },
            {
                "start_time": 1.6,
                "end_time": 1.9863636,
                "pitch": 48,
                "velocity": 51,
                "duration": 0.3863636,
                "tempo": 120.0
            },
            {
                "start_time": 2.2022727,
                "end_time": 2.2863636,
                "pitch": 48,
                "velocity": 51,
                "duration": 0.0840909,
                "tempo": 120.0
            },
            {
                "start_time": 2.3022727,
                "end_time": 2.3863636,
                "pitch": 48,
                "velocity": 51,
                "duration": 0.0840909,
                "tempo": 120.0
            },
            {
                "start_time": 2.4022727,
                "end_time": 2.5863636,
                "pitch": 48,
                "velocity": 51,
                "duration": 0.1840909,
                "tempo": 120.0
            },
            {
                "start_time": 2.6045455,
                "end_time": 2.9886364,
                "pitch": 48,
                "velocity": 51,
                "duration": 0.3840909,
                "tempo": 120.0
            },
            {
                "start_time": 3.0045455,
                "end_time": 3.1886364,
                "pitch": 48,
                "velocity": 51,
                "duration": 0.1840909,
                "tempo": 120.0
            },
            {
                "start_time": 3.2045455,
                "end_time": 3.5886364,
                "pitch": 41,
                "velocity": 51,
                "duration": 0.3840909,
                "tempo": 120.0
            },
            {
                "start_time": 3.8045455,
                "end_time": 3.9886364,
                "pitch": 41,
                "velocity": 51,
                "duration": 0.1840909,
                "tempo": 120.0
            },
            {
                "start_time": 4.0045455,
                "end_time": 4.3886364,
                "pitch": 41,
                "velocity": 51,
                "duration": 0.3840909,
                "tempo": 120.0
            },
            {
                "start_time": 4.6068182,
                "end_time": 4.6909091,
                "pitch": 41,
                "velocity": 51,
                "duration": 0.0840909,
                "tempo": 120.0
            },
            {
                "start_time": 4.7068182,
                "end_time": 4.7909091,
                "pitch": 41,
                "velocity": 51,
                "duration": 0.0840909,
                "tempo": 120.0
            },
            {
                "start_time": 4.8090909,
                "end_time": 5.1909091,
                "pitch": 41,
                "velocity": 51,
                "duration": 0.3818182,
                "tempo": 120.0
            },
            {
                "start_time": 5.4090909,
                "end_time": 5.5931818,
                "pitch": 41,
                "velocity": 51,
                "duration": 0.1840909,
                "tempo": 120.0
            },
            {
                "start_time": 5.6113636,
                "end_time": 5.7954545,
                "pitch": 41,
                "velocity": 51,
                "duration": 0.1840909,
                "tempo": 120.0
            },
            {
                "start_time": 5.8113636,
                "end_time": 6.1977273,
                "pitch": 41,
                "velocity": 51,
                "duration": 0.3863636,
                "tempo": 120.0
            },
            {
                "start_time": 6.2136364,
                "end_time": 6.3977273,
                "pitch": 41,
                "velocity": 51,
                "duration": 0.1840909,
                "tempo": 120.0
            },
            {
                "start_time": 6.4136364,
                "end_time": 6.8,
                "pitch": 48,
                "velocity": 51,
                "duration": 0.3863636,
                "tempo": 120.0
            },
            {
                "start_time": 7.0159091,
                "end_time": 7.1,
                "pitch": 48,
                "velocity": 51,
                "duration": 0.0840909,
                "tempo": 120.0
            },
            {
                "start_time": 7.1159091,
                "end_time": 7.2,
                "pitch": 48,
                "velocity": 51,
                "duration": 0.0840909,
                "tempo": 120.0
            },
            {
                "start_time": 7.2159091,
                "end_time": 7.4,
                "pitch": 48,
                "velocity": 51,
                "duration": 0.1840909,
                "tempo": 120.0
            },
            {
                "start_time": 7.4181818,
                "end_time": 7.8045455,
                "pitch": 48,
                "velocity": 51,
                "duration": 0.3863636,
                "tempo": 120.0
            },
            {
                "start_time": 7.8204545,
                "end_time": 8.0045455,
                "pitch": 48,
                "velocity": 51,
                "duration": 0.1840909,
                "tempo": 120.0
            },
            {
                "start_time": 8.0204545,
                "end_time": 8.4045455,
                "pitch": 46,
                "velocity": 51,
                "duration": 0.3840909,
                "tempo": 120.0
            },
            {
                "start_time": 8.6227273,
                "end_time": 8.7068182,
                "pitch": 46,
                "velocity": 51,
                "duration": 0.0840909,
                "tempo": 120.0
            },
            {
                "start_time": 8.7227273,
                "end_time": 8.8068182,
                "pitch": 46,
                "velocity": 51,
                "duration": 0.0840909,
                "tempo": 120.0
            },
            {
                "start_time": 8.825,
                "end_time": 9.0090909,
                "pitch": 46,
                "velocity": 51,
                "duration": 0.1840909,
                "tempo": 120.0
            },
            {
                "start_time": 9.025,
                "end_time": 9.4113636,
                "pitch": 46,
                "velocity": 51,
                "duration": 0.3863636,
                "tempo": 120.0
            },
            {
                "start_time": 9.4272727,
                "end_time": 9.6136364,
                "pitch": 46,
                "velocity": 51,
                "duration": 0.1863636,
                "tempo": 120.0
            },
            {
                "start_time": 9.6295455,
                "end_time": 10.0136364,
                "pitch": 41,
                "velocity": 51,
                "duration": 0.3840909,
                "tempo": 120.0
            },
            {
                "start_time": 10.2318182,
                "end_time": 10.4159091,
                "pitch": 41,
                "velocity": 51,
                "duration": 0.1840909,
                "tempo": 120.0
            },
            {
                "start_time": 10.4318182,
                "end_time": 10.6159091,
                "pitch": 43,
                "velocity": 51,
                "duration": 0.1840909,
                "tempo": 120.0
            },
            {
                "start_time": 10.6340909,
                "end_time": 11.0204545,
                "pitch": 43,
                "velocity": 51,
                "duration": 0.3863636,
                "tempo": 120.0
            },
            {
                "start_time": 11.0363636,
                "end_time": 11.2204545,
                "pitch": 43,
                "velocity": 51,
                "duration": 0.1840909,
                "tempo": 120.0
            },
            {
                "start_time": 11.2386364,
                "end_time": 11.6227273,
                "pitch": 48,
                "velocity": 51,
                "duration": 0.3840909,
                "tempo": 120.0
            },
            {
                "start_time": 11.8409091,
                "end_time": 12.2204545,
                "pitch": 48,
                "velocity": 51,
                "duration": 0.3795455,
                "tempo": 120.0
            },
            {
                "start_time": 12.2363636,
                "end_time": 12.4159091,
                "pitch": 48,
                "velocity": 51,
                "duration": 0.1795455,
                "tempo": 120.0
            },
            {
                "start_time": 12.4318182,
                "end_time": 12.6204545,
                "pitch": 50,
                "velocity": 51,
                "duration": 0.1886364,
                "tempo": 120.0
            },
            {
                "start_time": 12.6386364,
                "end_time": 12.825,
                "pitch": 48,
                "velocity": 51,
                "duration": 0.1863636,
                "tempo": 120.0
            },
            {
                "start_time": 12.8431818,
                "end_time": 13.0272727,
                "pitch": 41,
                "velocity": 51,
                "duration": 0.1840909,
                "tempo": 120.0
            },
            {
                "start_time": 13.0454545,
                "end_time": 13.2295455,
                "pitch": 41,
                "velocity": 51,
                "duration": 0.1840909,
                "tempo": 120.0
            },
            {
                "start_time": 13.2454545,
                "end_time": 13.4295455,
                "pitch": 41,
                "velocity": 51,
                "duration": 0.1840909,
                "tempo": 120.0
            },
            {
                "start_time": 13.4477273,
                "end_time": 13.5318182,
                "pitch": 41,
                "velocity": 51,
                "duration": 0.0840909,
                "tempo": 120.0
            },
            {
                "start_time": 13.5477273,
                "end_time": 13.7318182,
                "pitch": 41,
                "velocity": 51,
                "duration": 0.1840909,
                "tempo": 120.0
            },
            {
                "start_time": 13.7477273,
                "end_time": 13.8318182,
                "pitch": 41,
                "velocity": 51,
                "duration": 0.0840909,
                "tempo": 120.0
            },
            {
                "start_time": 13.8477273,
                "end_time": 14.0318182,
                "pitch": 41,
                "velocity": 51,
                "duration": 0.1840909,
                "tempo": 120.0
            },
            {
                "start_time": 14.0477273,
                "end_time": 14.2340909,
                "pitch": 41,
                "velocity": 51,
                "duration": 0.1863636,
                "tempo": 120.0
            },
            {
                "start_time": 14.25,
                "end_time": 14.4340909,
                "pitch": 41,
                "velocity": 51,
                "duration": 0.1840909,
                "tempo": 120.0
            },
            {
                "start_time": 14.4522727,
                "end_time": 14.6363636,
                "pitch": 41,
                "velocity": 51,
                "duration": 0.1840909,
                "tempo": 120.0
            },
            {
                "start_time": 14.6522727,
                "end_time": 14.8363636,
                "pitch": 41,
                "velocity": 51,
                "duration": 0.1840909,
                "tempo": 120.0
            },
            {
                "start_time": 14.8545455,
                "end_time": 15.0386364,
                "pitch": 41,
                "velocity": 51,
                "duration": 0.1840909,
                "tempo": 120.0
            },
            {
                "start_time": 15.0545455,
                "end_time": 15.1386364,
                "pitch": 41,
                "velocity": 51,
                "duration": 0.0840909,
                "tempo": 120.0
            },
            {
                "start_time": 15.1568182,
                "end_time": 15.3409091,
                "pitch": 41,
                "velocity": 51,
                "duration": 0.1840909,
                "tempo": 120.0
            },
            {
                "start_time": 15.3568182,
                "end_time": 15.4409091,
                "pitch": 41,
                "velocity": 51,
                "duration": 0.0840909,
                "tempo": 120.0
            },
            {
                "start_time": 15.4590909,
                "end_time": 15.6431818,
                "pitch": 41,
                "velocity": 51,
                "duration": 0.1840909,
                "tempo": 120.0
            },
            {
                "start_time": 15.6590909,
                "end_time": 15.8431818,
                "pitch": 41,
                "velocity": 51,
                "duration": 0.1840909,
                "tempo": 120.0
            },
            {
                "start_time": 15.8590909,
                "end_time": 16.0431818,
                "pitch": 41,
                "velocity": 51,
                "duration": 0.1840909,
                "tempo": 120.0
            },
            {
                "start_time": 16.0590909,
                "end_time": 16.2431818,
                "pitch": 48,
                "velocity": 51,
                "duration": 0.1840909,
                "tempo": 120.0
            },
            {
                "start_time": 16.2613636,
                "end_time": 16.4454545,
                "pitch": 48,
                "velocity": 51,
                "duration": 0.1840909,
                "tempo": 120.0
            },
            {
                "start_time": 16.4613636,
                "end_time": 16.6454545,
                "pitch": 48,
                "velocity": 51,
                "duration": 0.1840909,
                "tempo": 120.0
            },
            {
                "start_time": 16.6613636,
                "end_time": 16.7454545,
                "pitch": 48,
                "velocity": 51,
                "duration": 0.0840909,
                "tempo": 120.0
            },
            {
                "start_time": 16.7613636,
                "end_time": 16.9454545,
                "pitch": 48,
                "velocity": 51,
                "duration": 0.1840909,
                "tempo": 120.0
            },
            {
                "start_time": 16.9613636,
                "end_time": 17.0454545,
                "pitch": 48,
                "velocity": 51,
                "duration": 0.0840909,
                "tempo": 120.0
            },
            {
                "start_time": 17.0613636,
                "end_time": 17.2454545,
                "pitch": 48,
                "velocity": 51,
                "duration": 0.1840909,
                "tempo": 120.0
            },
            {
                "start_time": 17.2613636,
                "end_time": 17.4477273,
                "pitch": 48,
                "velocity": 51,
                "duration": 0.1863636,
                "tempo": 120.0
            },
            {
                "start_time": 17.4636364,
                "end_time": 17.6477273,
                "pitch": 48,
                "velocity": 51,
                "duration": 0.1840909,
                "tempo": 120.0
            },
            {
                "start_time": 17.6636364,
                "end_time": 17.8454545,
                "pitch": 48,
                "velocity": 51,
                "duration": 0.1818182,
                "tempo": 120.0
            },
            {
                "start_time": 17.8613636,
                "end_time": 18.0409091,
                "pitch": 48,
                "velocity": 51,
                "duration": 0.1795455,
                "tempo": 120.0
            },
            {
                "start_time": 18.0568182,
                "end_time": 18.2454545,
                "pitch": 48,
                "velocity": 51,
                "duration": 0.1886364,
                "tempo": 120.0
            },
            {
                "start_time": 18.2613636,
                "end_time": 18.3477273,
                "pitch": 48,
                "velocity": 51,
                "duration": 0.0863636,
                "tempo": 120.0
            },
            {
                "start_time": 18.3659091,
                "end_time": 18.55,
                "pitch": 48,
                "velocity": 51,
                "duration": 0.1840909,
                "tempo": 120.0
            },
            {
                "start_time": 18.5681818,
                "end_time": 18.65,
                "pitch": 48,
                "velocity": 51,
                "duration": 0.0818182,
                "tempo": 120.0
            },
            {
                "start_time": 18.6681818,
                "end_time": 18.85,
                "pitch": 48,
                "velocity": 51,
                "duration": 0.1818182,
                "tempo": 120.0
            },
            {
                "start_time": 18.8681818,
                "end_time": 19.05,
                "pitch": 55,
                "velocity": 51,
                "duration": 0.1818182,
                "tempo": 120.0
            },
            {
                "start_time": 19.0681818,
                "end_time": 19.25,
                "pitch": 48,
                "velocity": 51,
                "duration": 0.1818182,
                "tempo": 120.0
            },
            {
                "start_time": 19.2681818,
                "end_time": 19.4477273,
                "pitch": 41,
                "velocity": 51,
                "duration": 0.1795455,
                "tempo": 120.0
            },
            {
                "start_time": 19.4636364,
                "end_time": 19.6431818,
                "pitch": 41,
                "velocity": 51,
                "duration": 0.1795455,
                "tempo": 120.0
            },
            {
                "start_time": 19.6590909,
                "end_time": 19.8477273,
                "pitch": 41,
                "velocity": 51,
                "duration": 0.1886364,
                "tempo": 120.0
            },
            {
                "start_time": 19.8659091,
                "end_time": 19.95,
                "pitch": 41,
                "velocity": 51,
                "duration": 0.0840909,
                "tempo": 120.0
            },
            {
                "start_time": 19.9681818,
                "end_time": 20.1545455,
                "pitch": 41,
                "velocity": 51,
                "duration": 0.1863636,
                "tempo": 120.0
            },
            {
                "start_time": 20.1704545,
                "end_time": 20.2545455,
                "pitch": 41,
                "velocity": 51,
                "duration": 0.0840909,
                "tempo": 120.0
            },
            {
                "start_time": 20.2727273,
                "end_time": 20.4568182,
                "pitch": 41,
                "velocity": 51,
                "duration": 0.1840909,
                "tempo": 120.0
            },
            {
                "start_time": 20.4727273,
                "end_time": 20.6568182,
                "pitch": 41,
                "velocity": 51,
                "duration": 0.1840909,
                "tempo": 120.0
            },
            {
                "start_time": 20.6727273,
                "end_time": 20.8568182,
                "pitch": 41,
                "velocity": 51,
                "duration": 0.1840909,
                "tempo": 120.0
            },
            {
                "start_time": 20.8727273,
                "end_time": 21.0568182,
                "pitch": 41,
                "velocity": 51,
                "duration": 0.1840909,
                "tempo": 120.0
            },
            {
                "start_time": 21.0727273,
                "end_time": 21.2568182,
                "pitch": 41,
                "velocity": 51,
                "duration": 0.1840909,
                "tempo": 120.0
            },
            {
                "start_time": 21.2727273,
                "end_time": 21.4568182,
                "pitch": 41,
                "velocity": 51,
                "duration": 0.1840909,
                "tempo": 120.0
            },
            {
                "start_time": 21.475,
                "end_time": 21.5590909,
                "pitch": 41,
                "velocity": 51,
                "duration": 0.0840909,
                "tempo": 120.0
            },
            {
                "start_time": 21.575,
                "end_time": 21.7590909,
                "pitch": 41,
                "velocity": 51,
                "duration": 0.1840909,
                "tempo": 120.0
            },
            {
                "start_time": 21.775,
                "end_time": 21.8590909,
                "pitch": 41,
                "velocity": 51,
                "duration": 0.0840909,
                "tempo": 120.0
            },
            {
                "start_time": 21.875,
                "end_time": 22.0590909,
                "pitch": 41,
                "velocity": 51,
                "duration": 0.1840909,
                "tempo": 120.0
            },
            {
                "start_time": 22.075,
                "end_time": 22.2613636,
                "pitch": 41,
                "velocity": 51,
                "duration": 0.1863636,
                "tempo": 120.0
            },
            {
                "start_time": 22.2772727,
                "end_time": 22.4613636,
                "pitch": 41,
                "velocity": 51,
                "duration": 0.1840909,
                "tempo": 120.0
            },
            {
                "start_time": 22.4795455,
                "end_time": 22.6613636,
                "pitch": 43,
                "velocity": 51,
                "duration": 0.1818182,
                "tempo": 120.0
            },
            {
                "start_time": 22.6795455,
                "end_time": 22.8613636,
                "pitch": 43,
                "velocity": 51,
                "duration": 0.1818182,
                "tempo": 120.0
            },
            {
                "start_time": 22.8795455,
                "end_time": 23.0613636,
                "pitch": 43,
                "velocity": 51,
                "duration": 0.1818182,
                "tempo": 120.0
            },
            {
                "start_time": 23.0795455,
                "end_time": 23.1613636,
                "pitch": 43,
                "velocity": 51,
                "duration": 0.0818182,
                "tempo": 120.0
            },
            {
                "start_time": 23.1795455,
                "end_time": 23.3613636,
                "pitch": 43,
                "velocity": 51,
                "duration": 0.1818182,
                "tempo": 120.0
            },
            {
                "start_time": 23.3795455,
                "end_time": 23.4636364,
                "pitch": 43,
                "velocity": 51,
                "duration": 0.0840909,
                "tempo": 120.0
            },
            {
                "start_time": 23.4795455,
                "end_time": 23.6636364,
                "pitch": 43,
                "velocity": 51,
                "duration": 0.1840909,
                "tempo": 120.0
            },
            {
                "start_time": 23.6818182,
                "end_time": 23.8636364,
                "pitch": 43,
                "velocity": 51,
                "duration": 0.1818182,
                "tempo": 120.0
            },
            {
                "start_time": 23.8818182,
                "end_time": 24.0636364,
                "pitch": 43,
                "velocity": 51,
                "duration": 0.1818182,
                "tempo": 120.0
            },
            {
                "start_time": 24.0818182,
                "end_time": 24.2659091,
                "pitch": 43,
                "velocity": 51,
                "duration": 0.1840909,
                "tempo": 120.0
            },
            {
                "start_time": 24.2818182,
                "end_time": 24.4681818,
                "pitch": 44,
                "velocity": 51,
                "duration": 0.1863636,
                "tempo": 120.0
            },
            {
                "start_time": 24.4840909,
                "end_time": 24.6681818,
                "pitch": 45,
                "velocity": 51,
                "duration": 0.1840909,
                "tempo": 120.0
            },
            {
                "start_time": 24.6840909,
                "end_time": 24.8681818,
                "pitch": 46,
                "velocity": 51,
                "duration": 0.1840909,
                "tempo": 120.0
            },
            {
                "start_time": 24.8840909,
                "end_time": 25.0636364,
                "pitch": 47,
                "velocity": 51,
                "duration": 0.1795455,
                "tempo": 120.0
            },
            {
                "start_time": 25.0795455,
                "end_time": 25.6795455,
                "pitch": 47,
                "velocity": 51,
                "duration": 0.6,
                "tempo": 120.0
            },
            {
                "start_time": 25.6977273,
                "end_time": 26.0636364,
                "pitch": 48,
                "velocity": 51,
                "duration": 0.3659091,
                "tempo": 120.0
            },
            {
                "start_time": 26.2840909,
                "end_time": 26.4727273,
                "pitch": 48,
                "velocity": 51,
                "duration": 0.1886364,
                "tempo": 120.0
            },
            {
                "start_time": 26.4886364,
                "end_time": 26.8659091,
                "pitch": 48,
                "velocity": 51,
                "duration": 0.3772727,
                "tempo": 120.0
            },
            {
                "start_time": 27.2931818,
                "end_time": 27.6681818,
                "pitch": 48,
                "velocity": 51,
                "duration": 0.375,
                "tempo": 120.0
            },
            {
                "start_time": 27.8886364,
                "end_time": 27.975,
                "pitch": 48,
                "velocity": 51,
                "duration": 0.0863636,
                "tempo": 120.0
            },
            {
                "start_time": 27.9931818,
                "end_time": 28.0772727,
                "pitch": 48,
                "velocity": 51,
                "duration": 0.0840909,
                "tempo": 120.0
            },
            {
                "start_time": 28.0954545,
                "end_time": 28.2795455,
                "pitch": 48,
                "velocity": 51,
                "duration": 0.1840909,
                "tempo": 120.0
            },
            {
                "start_time": 28.2954545,
                "end_time": 28.6818182,
                "pitch": 48,
                "velocity": 51,
                "duration": 0.3863636,
                "tempo": 120.0
            },
            {
                "start_time": 28.6977273,
                "end_time": 28.8818182,
                "pitch": 48,
                "velocity": 51,
                "duration": 0.1840909,
                "tempo": 120.0
            },
            {
                "start_time": 28.8977273,
                "end_time": 29.2818182,
                "pitch": 41,
                "velocity": 51,
                "duration": 0.3840909,
                "tempo": 120.0
            },
            {
                "start_time": 29.5,
                "end_time": 29.6840909,
                "pitch": 41,
                "velocity": 51,
                "duration": 0.1840909,
                "tempo": 120.0
            },
            {
                "start_time": 29.7,
                "end_time": 30.0840909,
                "pitch": 41,
                "velocity": 51,
                "duration": 0.3840909,
                "tempo": 120.0
            },
            {
                "start_time": 30.3022727,
                "end_time": 30.3863636,
                "pitch": 41,
                "velocity": 51,
                "duration": 0.0840909,
                "tempo": 120.0
            },
            {
                "start_time": 30.4022727,
                "end_time": 30.4863636,
                "pitch": 41,
                "velocity": 51,
                "duration": 0.0840909,
                "tempo": 120.0
            },
            {
                "start_time": 30.5022727,
                "end_time": 30.8863636,
                "pitch": 41,
                "velocity": 51,
                "duration": 0.3840909,
                "tempo": 120.0
            },
            {
                "start_time": 31.1022727,
                "end_time": 31.2863636,
                "pitch": 41,
                "velocity": 51,
                "duration": 0.1840909,
                "tempo": 120.0
            },
            {
                "start_time": 31.3022727,
                "end_time": 31.4886364,
                "pitch": 41,
                "velocity": 51,
                "duration": 0.1863636,
                "tempo": 120.0
            },
            {
                "start_time": 31.5045455,
                "end_time": 31.8886364,
                "pitch": 41,
                "velocity": 51,
                "duration": 0.3840909,
                "tempo": 120.0
            },
            {
                "start_time": 31.9068182,
                "end_time": 32.0886364,
                "pitch": 41,
                "velocity": 51,
                "duration": 0.1818182,
                "tempo": 120.0
            },
            {
                "start_time": 32.1068182,
                "end_time": 32.4886364,
                "pitch": 48,
                "velocity": 51,
                "duration": 0.3818182,
                "tempo": 120.0
            },
            {
                "start_time": 32.7068182,
                "end_time": 32.7886364,
                "pitch": 48,
                "velocity": 51,
                "duration": 0.0818182,
                "tempo": 120.0
            },
            {
                "start_time": 32.8068182,
                "end_time": 32.8886364,
                "pitch": 48,
                "velocity": 51,
                "duration": 0.0818182,
                "tempo": 120.0
            },
            {
                "start_time": 32.9068182,
                "end_time": 33.0909091,
                "pitch": 48,
                "velocity": 51,
                "duration": 0.1840909,
                "tempo": 120.0
            },
            {
                "start_time": 33.1068182,
                "end_time": 33.4909091,
                "pitch": 48,
                "velocity": 51,
                "duration": 0.3840909,
                "tempo": 120.0
            },
            {
                "start_time": 33.5090909,
                "end_time": 33.6909091,
                "pitch": 48,
                "velocity": 51,
                "duration": 0.1818182,
                "tempo": 120.0
            },
            {
                "start_time": 33.7090909,
                "end_time": 34.0909091,
                "pitch": 46,
                "velocity": 51,
                "duration": 0.3818182,
                "tempo": 120.0
            },
            {
                "start_time": 34.3090909,
                "end_time": 34.3909091,
                "pitch": 46,
                "velocity": 51,
                "duration": 0.0818182,
                "tempo": 120.0
            },
            {
                "start_time": 34.4090909,
                "end_time": 34.4909091,
                "pitch": 46,
                "velocity": 51,
                "duration": 0.0818182,
                "tempo": 120.0
            },
            {
                "start_time": 34.5090909,
                "end_time": 34.6909091,
                "pitch": 46,
                "velocity": 51,
                "duration": 0.1818182,
                "tempo": 120.0
            },
            {
                "start_time": 34.7090909,
                "end_time": 35.0931818,
                "pitch": 46,
                "velocity": 51,
                "duration": 0.3840909,
                "tempo": 120.0
            },
            {
                "start_time": 35.1090909,
                "end_time": 35.2954545,
                "pitch": 46,
                "velocity": 51,
                "duration": 0.1863636,
                "tempo": 120.0
            },
            {
                "start_time": 35.3113636,
                "end_time": 35.6954545,
                "pitch": 41,
                "velocity": 51,
                "duration": 0.3840909,
                "tempo": 120.0
            },
            {
                "start_time": 35.9113636,
                "end_time": 36.0954545,
                "pitch": 41,
                "velocity": 51,
                "duration": 0.1840909,
                "tempo": 120.0
            },
            {
                "start_time": 36.1113636,
                "end_time": 36.2954545,
                "pitch": 43,
                "velocity": 51,
                "duration": 0.1840909,
                "tempo": 120.0
            },
            {
                "start_time": 36.3113636,
                "end_time": 36.6954545,
                "pitch": 43,
                "velocity": 51,
                "duration": 0.3840909,
                "tempo": 120.0
            },
            {
                "start_time": 36.7113636,
                "end_time": 36.8954545,
                "pitch": 43,
                "velocity": 51,
                "duration": 0.1840909,
                "tempo": 120.0
            },
            {
                "start_time": 36.9113636,
                "end_time": 37.2977273,
                "pitch": 48,
                "velocity": 51,
                "duration": 0.3863636,
                "tempo": 120.0
            },
            {
                "start_time": 37.5136364,
                "end_time": 37.8931818,
                "pitch": 48,
                "velocity": 51,
                "duration": 0.3795455,
                "tempo": 120.0
            },
            {
                "start_time": 37.9090909,
                "end_time": 38.0886364,
                "pitch": 48,
                "velocity": 51,
                "duration": 0.1795455,
                "tempo": 120.0
            },
            {
                "start_time": 38.1068182,
                "end_time": 38.2886364,
                "pitch": 48,
                "velocity": 51,
                "duration": 0.1818182,
                "tempo": 120.0
            },
            {
                "start_time": 38.3068182,
                "end_time": 38.5,
                "pitch": 48,
                "velocity": 51,
                "duration": 0.1931818,
                "tempo": 120.0
            }
        ],
        "Clarinet": [
            {
                "start_time": 0.0045455,
                "end_time": 0.2545455,
                "pitch": 67,
                "velocity": 40,
                "duration": 0.25,
                "tempo": 120.0
            },
            {
                "start_time": 0.2727273,
                "end_time": 0.3886364,
                "pitch": 72,
                "velocity": 40,
                "duration": 0.1159091,
                "tempo": 120.0
            },
            {
                "start_time": 0.4045455,
                "end_time": 0.65,
                "pitch": 74,
                "velocity": 40,
                "duration": 0.2454545,
                "tempo": 120.0
            },
            {
                "start_time": 0.6659091,
                "end_time": 0.7818182,
                "pitch": 67,
                "velocity": 40,
                "duration": 0.1159091,
                "tempo": 120.0
            },
            {
                "start_time": 0.7977273,
                "end_time": 1.05,
                "pitch": 72,
                "velocity": 40,
                "duration": 0.2522727,
                "tempo": 120.0
            },
            {
                "start_time": 1.0659091,
                "end_time": 1.1840909,
                "pitch": 74,
                "velocity": 40,
                "duration": 0.1181818,
                "tempo": 120.0
            },
            {
                "start_time": 1.2,
                "end_time": 1.45,
                "pitch": 67,
                "velocity": 40,
                "duration": 0.25,
                "tempo": 120.0
            },
            {
                "start_time": 1.4659091,
                "end_time": 1.5840909,
                "pitch": 72,
                "velocity": 40,
                "duration": 0.1181818,
                "tempo": 120.0
            },
            {
                "start_time": 1.6,
                "end_time": 1.8522727,
                "pitch": 74,
                "velocity": 40,
                "duration": 0.2522727,
                "tempo": 120.0
            },
            {
                "start_time": 1.8681818,
                "end_time": 2.2522727,
                "pitch": 74,
                "velocity": 40,
                "duration": 0.3840909,
                "tempo": 120.0
            },
            {
                "start_time": 2.2704545,
                "end_time": 2.6545455,
                "pitch": 74,
                "velocity": 40,
                "duration": 0.3840909,
                "tempo": 120.0
            },
            {
                "start_time": 2.6704545,
                "end_time": 2.7886364,
                "pitch": 69,
                "velocity": 40,
                "duration": 0.1181818,
                "tempo": 120.0
            },
            {
                "start_time": 2.8045455,
                "end_time": 3.0545455,
                "pitch": 67,
                "velocity": 40,
                "duration": 0.25,
                "tempo": 120.0
            },
            {
                "start_time": 3.0727273,
                "end_time": 3.1886364,
                "pitch": 69,
                "velocity": 40,
                "duration": 0.1159091,
                "tempo": 120.0
            },
            {
                "start_time": 3.2045455,
                "end_time": 3.4545455,
                "pitch": 72,
                "velocity": 40,
                "duration": 0.25,
                "tempo": 120.0
            },
            {
                "start_time": 3.4727273,
                "end_time": 3.5886364,
                "pitch": 76,
                "velocity": 40,
                "duration": 0.1159091,
                "tempo": 120.0
            },
            {
                "start_time": 3.6045455,
                "end_time": 3.8545455,
                "pitch": 77,
                "velocity": 40,
                "duration": 0.25,
                "tempo": 120.0
            },
            {
                "start_time": 3.8727273,
                "end_time": 3.9886364,
                "pitch": 72,
                "velocity": 40,
                "duration": 0.1159091,
                "tempo": 120.0
            },
            {
                "start_time": 4.0045455,
                "end_time": 4.2545455,
                "pitch": 76,
                "velocity": 40,
                "duration": 0.25,
                "tempo": 120.0
            },
            {
                "start_time": 4.2727273,
                "end_time": 4.3886364,
                "pitch": 77,
                "velocity": 40,
                "duration": 0.1159091,
                "tempo": 120.0
            },
            {
                "start_time": 4.4045455,
                "end_time": 4.6568182,
                "pitch": 72,
                "velocity": 40,
                "duration": 0.2522727,
                "tempo": 120.0
            },
            {
                "start_time": 4.675,
                "end_time": 4.7909091,
                "pitch": 76,
                "velocity": 40,
                "duration": 0.1159091,
                "tempo": 120.0
            },
            {
                "start_time": 4.8090909,
                "end_time": 5.0590909,
                "pitch": 77,
                "velocity": 40,
                "duration": 0.25,
                "tempo": 120.0
            },
            {
                "start_time": 5.075,
                "end_time": 5.4590909,
                "pitch": 77,
                "velocity": 40,
                "duration": 0.3840909,
                "tempo": 120.0
            },
            {
                "start_time": 5.4772727,
                "end_time": 5.9977273,
                "pitch": 77,
                "velocity": 40,
                "duration": 0.5204545,
                "tempo": 120.0
            },
            {
                "start_time": 6.0136364,
                "end_time": 6.3977273,
                "pitch": 76,
                "velocity": 40,
                "duration": 0.3840909,
                "tempo": 120.0
            },
            {
                "start_time": 6.4136364,
                "end_time": 6.8,
                "pitch": 77,
                "velocity": 40,
                "duration": 0.3863636,
                "tempo": 120.0
            },
            {
                "start_time": 7.0159091,
                "end_time": 7.4,
                "pitch": 76,
                "velocity": 40,
                "duration": 0.3840909,
                "tempo": 120.0
            },
            {
                "start_time": 7.6181818,
                "end_time": 8.0045455,
                "pitch": 74,
                "velocity": 40,
                "duration": 0.3863636,
                "tempo": 120.0
            },
            {
                "start_time": 8.0204545,
                "end_time": 8.4045455,
                "pitch": 76,
                "velocity": 40,
                "duration": 0.3840909,
                "tempo": 120.0
            },
            {
                "start_time": 8.6227273,
                "end_time": 9.0090909,
                "pitch": 74,
                "velocity": 40,
                "duration": 0.3863636,
                "tempo": 120.0
            },
            {
                "start_time": 9.2272727,
                "end_time": 9.6136364,
                "pitch": 72,
                "velocity": 40,
                "duration": 0.3863636,
                "tempo": 120.0
            },
            {
                "start_time": 9.6295455,
                "end_time": 10.0136364,
                "pitch": 74,
                "velocity": 40,
                "duration": 0.3840909,
                "tempo": 120.0
            },
            {
                "start_time": 10.4318182,
                "end_time": 10.8181818,
                "pitch": 76,
                "velocity": 40,
                "duration": 0.3863636,
                "tempo": 120.0
            },
            {
                "start_time": 11.2386364,
                "end_time": 11.4886364,
                "pitch": 77,
                "velocity": 40,
                "duration": 0.25,
                "tempo": 120.0
            },
            {
                "start_time": 11.5068182,
                "end_time": 11.6227273,
                "pitch": 76,
                "velocity": 40,
                "duration": 0.1159091,
                "tempo": 120.0
            },
            {
                "start_time": 12.4318182,
                "end_time": 12.825,
                "pitch": 76,
                "velocity": 40,
                "duration": 0.3931818,
                "tempo": 120.0
            },
            {
                "start_time": 12.8431818,
                "end_time": 13.0954545,
                "pitch": 77,
                "velocity": 40,
                "duration": 0.2522727,
                "tempo": 120.0
            },
            {
                "start_time": 13.1113636,
                "end_time": 13.2295455,
                "pitch": 76,
                "velocity": 40,
                "duration": 0.1181818,
                "tempo": 120.0
            },
            {
                "start_time": 13.5136364,
                "end_time": 13.6318182,
                "pitch": 72,
                "velocity": 40,
                "duration": 0.1181818,
                "tempo": 120.0
            },
            {
                "start_time": 14.0477273,
                "end_time": 14.4340909,
                "pitch": 81,
                "velocity": 40,
                "duration": 0.3863636,
                "tempo": 120.0
            },
            {
                "start_time": 14.4522727,
                "end_time": 14.7022727,
                "pitch": 77,
                "velocity": 40,
                "duration": 0.25,
                "tempo": 120.0
            },
            {
                "start_time": 14.7204545,
                "end_time": 14.8363636,
                "pitch": 76,
                "velocity": 40,
                "duration": 0.1159091,
                "tempo": 120.0
            },
            {
                "start_time": 15.1227273,
                "end_time": 15.2409091,
                "pitch": 72,
                "velocity": 40,
                "duration": 0.1181818,
                "tempo": 120.0
            },
            {
                "start_time": 15.6590909,
                "end_time": 16.0431818,
                "pitch": 81,
                "velocity": 40,
                "duration": 0.3840909,
                "tempo": 120.0
            },
            {
                "start_time": 16.0590909,
                "end_time": 16.3113636,
                "pitch": 76,
                "velocity": 40,
                "duration": 0.2522727,
                "tempo": 120.0
            },
            {
                "start_time": 16.3272727,
                "end_time": 16.4454545,
                "pitch": 74,
                "velocity": 40,
                "duration": 0.1181818,
                "tempo": 120.0
            },
            {
                "start_time": 16.7295455,
                "end_time": 16.8454545,
                "pitch": 72,
                "velocity": 40,
                "duration": 0.1159091,
                "tempo": 120.0
            },
            {
                "start_time": 17.2613636,
                "end_time": 17.6477273,
                "pitch": 79,
                "velocity": 40,
                "duration": 0.3863636,
                "tempo": 120.0
            },
            {
                "start_time": 17.6636364,
                "end_time": 17.9090909,
                "pitch": 76,
                "velocity": 40,
                "duration": 0.2454545,
                "tempo": 120.0
            },
            {
                "start_time": 17.925,
                "end_time": 18.0409091,
                "pitch": 74,
                "velocity": 40,
                "duration": 0.1159091,
                "tempo": 120.0
            },
            {
                "start_time": 18.3295455,
                "end_time": 18.45,
                "pitch": 72,
                "velocity": 40,
                "duration": 0.1204545,
                "tempo": 120.0
            },
            {
                "start_time": 18.8681818,
                "end_time": 19.25,
                "pitch": 79,
                "velocity": 40,
                "duration": 0.3818182,
                "tempo": 120.0
            },
            {
                "start_time": 19.2681818,
                "end_time": 19.5136364,
                "pitch": 77,
                "velocity": 40,
                "duration": 0.2454545,
                "tempo": 120.0
            },
            {
                "start_time": 19.5295455,
                "end_time": 19.6431818,
                "pitch": 76,
                "velocity": 40,
                "duration": 0.1136364,
                "tempo": 120.0
            },
            {
                "start_time": 19.9340909,
                "end_time": 20.0522727,
                "pitch": 72,
                "velocity": 40,
                "duration": 0.1181818,
                "tempo": 120.0
            },
            {
                "start_time": 20.4727273,
                "end_time": 20.8568182,
                "pitch": 81,
                "velocity": 40,
                "duration": 0.3840909,
                "tempo": 120.0
            },
            {
                "start_time": 20.8727273,
                "end_time": 21.1227273,
                "pitch": 77,
                "velocity": 40,
                "duration": 0.25,
                "tempo": 120.0
            },
            {
                "start_time": 21.1409091,
                "end_time": 21.2568182,
                "pitch": 76,
                "velocity": 40,
                "duration": 0.1159091,
                "tempo": 120.0
            },
            {
                "start_time": 21.5409091,
                "end_time": 21.6590909,
                "pitch": 72,
                "velocity": 40,
                "duration": 0.1181818,
                "tempo": 120.0
            },
            {
                "start_time": 22.075,
                "end_time": 22.4613636,
                "pitch": 83,
                "velocity": 40,
                "duration": 0.3863636,
                "tempo": 120.0
            },
            {
                "start_time": 22.4795455,
                "end_time": 23.2613636,
                "pitch": 84,
                "velocity": 40,
                "duration": 0.7818182,
                "tempo": 120.0
            },
            {
                "start_time": 23.2795455,
                "end_time": 24.0636364,
                "pitch": 83,
                "velocity": 40,
                "duration": 0.7840909,
                "tempo": 120.0
            },
            {
                "start_time": 24.0818182,
                "end_time": 24.8681818,
                "pitch": 79,
                "velocity": 40,
                "duration": 0.7863636,
                "tempo": 120.0
            },
            {
                "start_time": 24.8840909,
                "end_time": 25.6795455,
                "pitch": 77,
                "velocity": 40,
                "duration": 0.7954545,
                "tempo": 120.0
            },
            {
                "start_time": 25.6977273,
                "end_time": 25.9363636,
                "pitch": 67,
                "velocity": 40,
                "duration": 0.2386364,
                "tempo": 120.0
            },
            {
                "start_time": 25.9522727,
                "end_time": 26.0636364,
                "pitch": 72,
                "velocity": 40,
                "duration": 0.1113636,
                "tempo": 120.0
            },
            {
                "start_time": 26.0795455,
                "end_time": 26.3363636,
                "pitch": 74,
                "velocity": 40,
                "duration": 0.2568182,
                "tempo": 120.0
            },
            {
                "start_time": 26.3522727,
                "end_time": 26.4727273,
                "pitch": 67,
                "velocity": 40,
                "duration": 0.1204545,
                "tempo": 120.0
            },
            {
                "start_time": 26.4886364,
                "end_time": 26.7340909,
                "pitch": 72,
                "velocity": 40,
                "duration": 0.2454545,
                "tempo": 120.0
            },
            {
                "start_time": 26.75,
                "end_time": 26.8659091,
                "pitch": 74,
                "velocity": 40,
                "duration": 0.1159091,
                "tempo": 120.0
            },
            {
                "start_time": 26.8818182,
                "end_time": 27.1386364,
                "pitch": 67,
                "velocity": 40,
                "duration": 0.2568182,
                "tempo": 120.0
            },
            {
                "start_time": 27.1545455,
                "end_time": 27.275,
                "pitch": 72,
                "velocity": 40,
                "duration": 0.1204545,
                "tempo": 120.0
            },
            {
                "start_time": 27.2931818,
                "end_time": 27.5363636,
                "pitch": 74,
                "velocity": 40,
                "duration": 0.2431818,
                "tempo": 120.0
            },
            {
                "start_time": 27.5545455,
                "end_time": 27.9409091,
                "pitch": 74,
                "velocity": 40,
                "duration": 0.3863636,
                "tempo": 120.0
            },
            {
                "start_time": 27.9590909,
                "end_time": 28.3477273,
                "pitch": 74,
                "velocity": 40,
                "duration": 0.3886364,
                "tempo": 120.0
            },
            {
                "start_time": 28.3636364,
                "end_time": 28.4818182,
                "pitch": 69,
                "velocity": 40,
                "duration": 0.1181818,
                "tempo": 120.0
            },
            {
                "start_time": 28.4977273,
                "end_time": 28.7477273,
                "pitch": 67,
                "velocity": 40,
                "duration": 0.25,
                "tempo": 120.0
            },
            {
                "start_time": 28.7636364,
                "end_time": 28.8818182,
                "pitch": 69,
                "velocity": 40,
                "duration": 0.1181818,
                "tempo": 120.0
            },
            {
                "start_time": 28.8977273,
                "end_time": 29.1477273,
                "pitch": 72,
                "velocity": 40,
                "duration": 0.25,
                "tempo": 120.0
            },
            {
                "start_time": 29.1636364,
                "end_time": 29.2818182,
                "pitch": 76,
                "velocity": 40,
                "duration": 0.1181818,
                "tempo": 120.0
            },
            {
                "start_time": 29.2977273,
                "end_time": 29.55,
                "pitch": 77,
                "velocity": 40,
                "duration": 0.2522727,
                "tempo": 120.0
            },
            {
                "start_time": 29.5659091,
                "end_time": 29.6840909,
                "pitch": 72,
                "velocity": 40,
                "duration": 0.1181818,
                "tempo": 120.0
            },
            {
                "start_time": 29.7,
                "end_time": 29.95,
                "pitch": 76,
                "velocity": 40,
                "duration": 0.25,
                "tempo": 120.0
            },
            {
                "start_time": 29.9681818,
                "end_time": 30.0840909,
                "pitch": 77,
                "velocity": 40,
                "duration": 0.1159091,
                "tempo": 120.0
            },
            {
                "start_time": 30.1,
                "end_time": 30.3522727,
                "pitch": 72,
                "velocity": 40,
                "duration": 0.2522727,
                "tempo": 120.0
            },
            {
                "start_time": 30.3681818,
                "end_time": 30.4863636,
                "pitch": 76,
                "velocity": 40,
                "duration": 0.1181818,
                "tempo": 120.0
            },
            {
                "start_time": 30.5022727,
                "end_time": 30.7522727,
                "pitch": 77,
                "velocity": 40,
                "duration": 0.25,
                "tempo": 120.0
            },
            {
                "start_time": 30.7704545,
                "end_time": 31.1522727,
                "pitch": 77,
                "velocity": 40,
                "duration": 0.3818182,
                "tempo": 120.0
            },
            {
                "start_time": 31.1704545,
                "end_time": 31.6886364,
                "pitch": 77,
                "velocity": 40,
                "duration": 0.5181818,
                "tempo": 120.0
            },
            {
                "start_time": 31.7068182,
                "end_time": 32.0886364,
                "pitch": 76,
                "velocity": 40,
                "duration": 0.3818182,
                "tempo": 120.0
            },
            {
                "start_time": 32.1068182,
                "end_time": 32.4886364,
                "pitch": 77,
                "velocity": 40,
                "duration": 0.3818182,
                "tempo": 120.0
            },
            {
                "start_time": 32.7068182,
                "end_time": 33.0909091,
                "pitch": 76,
                "velocity": 40,
                "duration": 0.3840909,
                "tempo": 120.0
            },
            {
                "start_time": 33.3090909,
                "end_time": 33.6909091,
                "pitch": 74,
                "velocity": 40,
                "duration": 0.3818182,
                "tempo": 120.0
            },
            {
                "start_time": 33.7090909,
                "end_time": 34.0909091,
                "pitch": 76,
                "velocity": 40,
                "duration": 0.3818182,
                "tempo": 120.0
            },
            {
                "start_time": 34.3090909,
                "end_time": 34.6909091,
                "pitch": 74,
                "velocity": 40,
                "duration": 0.3818182,
                "tempo": 120.0
            },
            {
                "start_time": 34.9090909,
                "end_time": 35.2954545,
                "pitch": 72,
                "velocity": 40,
                "duration": 0.3863636,
                "tempo": 120.0
            },
            {
                "start_time": 35.3113636,
                "end_time": 35.6954545,
                "pitch": 74,
                "velocity": 40,
                "duration": 0.3840909,
                "tempo": 120.0
            },
            {
                "start_time": 36.1113636,
                "end_time": 36.4954545,
                "pitch": 76,
                "velocity": 40,
                "duration": 0.3840909,
                "tempo": 120.0
            },
            {
                "start_time": 36.9113636,
                "end_time": 37.1636364,
                "pitch": 77,
                "velocity": 40,
                "duration": 0.2522727,
                "tempo": 120.0
            },
            {
                "start_time": 37.1795455,
                "end_time": 37.2977273,
                "pitch": 76,
                "velocity": 40,
                "duration": 0.1181818,
                "tempo": 120.0
            }
        ]
    }
}