{
    "mood": "happy",
    "instruments": {
        "Clarinet": [
            {
                "start_time": 0.0,
                "end_time": 0.5840909,
                "pitch": 72,
                "velocity": 80,
                "duration": 0.5840909,
                "tempo": 120.0
            },
            {
                "start_time": 0.6,
                "end_time": 0.7840909,
                "pitch": 68,
                "velocity": 80,
                "duration": 0.1840909,
                "tempo": 120.0
            },
            {
                "start_time": 0.8,
                "end_time": 2.3863636,
                "pitch": 68,
                "velocity": 80,
                "duration": 1.5863636,
                "tempo": 120.0
            },
            {
                "start_time": 2.4022727,
                "end_time": 2.5863636,
                "pitch": 75,
                "velocity": 80,
                "duration": 0.1840909,
                "tempo": 120.0
            },
            {
                "start_time": 2.6022727,
                "end_time": 2.9863636,
                "pitch": 73,
                "velocity": 80,
                "duration": 0.3840909,
                "tempo": 120.0
            },
            {
                "start_time": 3.0022727,
                "end_time": 3.1863636,
                "pitch": 72,
                "velocity": 80,
                "duration": 0.1840909,
                "tempo": 120.0
            },
            {
                "start_time": 3.2022727,
                "end_time": 3.4886364,
                "pitch": 70,
                "velocity": 80,
                "duration": 0.2863636,
                "tempo": 120.0
            },
            {
                "start_time": 3.5045455,
                "end_time": 3.7886364,
                "pitch": 72,
                "velocity": 80,
                "duration": 0.2840909,
                "tempo": 120.0
            },
            {
                "start_time": 3.8045455,
                "end_time": 3.9886364,
                "pitch": 68,
                "velocity": 80,
                "duration": 0.1840909,
                "tempo": 120.0
            },
            {
                "start_time": 4.0045455,
                "end_time": 4.1886364,
                "pitch": 68,
                "velocity": 80,
                "duration": 0.1840909,
                "tempo": 120.0
            },
            {
                "start_time": 4.2045455,
                "end_time": 4.5909091,
                "pitch": 72,
                "velocity": 80,
                "duration": 0.3863636,
                "tempo": 120.0
            },
            {
                "start_time": 4.6068182,
                "end_time": 4.9909091,
                "pitch": 70,
                "velocity": 80,
                "duration": 0.3840909,
                "tempo": 120.0
            },
            {
                "start_time": 5.0090909,
                "end_time": 5.1909091,
                "pitch": 63,
                "velocity": 80,
                "duration": 0.1818182,
                "tempo": 120.0
            },
            {
                "start_time": 5.2090909,
                "end_time": 6.3977273,
                "pitch": 63,
                "velocity": 80,
                "duration": 1.1886364,
                "tempo": 120.0
            },
            {
                "start_time": 6.4136364,
                "end_time": 7.0,
                "pitch": 72,
                "velocity": 80,
                "duration": 0.5863636,
                "tempo": 120.0
            },
            {
                "start_time": 7.0159091,
                "end_time": 7.2,
                "pitch": 68,
                "velocity": 80,
                "duration": 0.1840909,
                "tempo": 120.0
            },
            {
                "start_time": 7.2159091,
                "end_time": 8.8068182,
                "pitch": 68,
                "velocity": 80,
                "duration": 1.5909091,
                "tempo": 120.0
            },
            {
                "start_time": 8.825,
                "end_time": 9.0090909,
                "pitch": 75,
                "velocity": 80,
                "duration": 0.1840909,
                "tempo": 120.0
            },
            {
                "start_time": 9.025,
                "end_time": 9.4090909,
                "pitch": 73,
                "velocity": 80,
                "duration": 0.3840909,
                "tempo": 120.0
            },
            {
                "start_time": 9.4272727,
                "end_time": 9.6090909,
                "pitch": 72,
                "velocity": 80,
                "duration": 0.1818182,
                "tempo": 120.0
            },
            {
                "start_time": 9.6272727,
                "end_time": 9.9113636,
                "pitch": 70,
                "velocity": 80,
                "duration": 0.2840909,
                "tempo": 120.0
            },
            {
                "start_time": 9.9295455,
                "end_time": 10.2136364,
                "pitch": 72,
                "velocity": 80,
                "duration": 0.2840909,
                "tempo": 120.0
            },
            {
                "start_time": 10.2318182,
                "end_time": 10.4159091,
                "pitch": 68,
                "velocity": 80,
                "duration": 0.1840909,
                "tempo": 120.0
            },
            {
                "start_time": 10.4318182,
                "end_time": 10.7181818,
                "pitch": 68,
                "velocity": 80,
                "duration": 0.2863636,
                "tempo": 120.0
            },
            {
                "start_time": 10.7340909,
                "end_time": 11.0204545,
                "pitch": 70,
                "velocity": 80,
                "duration": 0.2863636,
                "tempo": 120.0
            },
            {
                "start_time": 11.0363636,
                "end_time": 11.2204545,
                "pitch": 72,
                "velocity": 80,
                "duration": 0.1840909,
                "tempo": 120.0
            },
            {
                "start_time": 11.2386364,
                "end_time": 12.4272727,
                "pitch": 70,
                "velocity": 80,
                "duration": 1.1886364,
                "tempo": 120.0
            },
            {
                "start_time": 12.4431818,
                "end_time": 12.6272727,
                "pitch": 68,
                "velocity": 80,
                "duration": 0.1840909,
                "tempo": 120.0
            },
            {
                "start_time": 12.6431818,
                "end_time": 12.8295455,
                "pitch": 70,
                "velocity": 80,
                "duration": 0.1863636,
                "tempo": 120.0
            }
        ],
        "Vibraphone": [
            {
                "start_time": 12.8454545,
                "end_time": 14.4363636,
                "pitch": 71,
                "velocity": 80,
                "duration": 1.5909091,
                "tempo": 120.0
            },
            {
                "start_time": 14.4545455,
                "end_time": 14.8386364,
                "pitch": 75,
                "velocity": 80,
                "duration": 0.3840909,
                "tempo": 120.0
            },
            {
                "start_time": 14.8568182,
                "end_time": 15.0409091,
                "pitch": 75,
                "velocity": 80,
                "duration": 0.1840909,
                "tempo": 120.0
            },
            {
                "start_time": 15.0568182,
                "end_time": 15.5431818,
                "pitch": 73,
                "velocity": 80,
                "duration": 0.4863636,
                "tempo": 120.0
            },
            {
                "start_time": 15.5590909,
                "end_time": 16.0522727,
                "pitch": 71,
                "velocity": 80,
                "duration": 0.4931818,
                "tempo": 120.0
            },
            {
                "start_time": 16.0704545,
                "end_time": 17.6477273,
                "pitch": 70,
                "velocity": 80,
                "duration": 1.5772727,
                "tempo": 120.0
            },
            {
                "start_time": 17.6636364,
                "end_time": 18.05,
                "pitch": 79,
                "velocity": 80,
                "duration": 0.3863636,
                "tempo": 120.0
            },
            {
                "start_time": 18.0681818,
                "end_time": 18.25,
                "pitch": 79,
                "velocity": 80,
                "duration": 0.1818182,
                "tempo": 120.0
            },
            {
                "start_time": 18.2681818,
                "end_time": 18.75,
                "pitch": 77,
                "velocity": 80,
                "duration": 0.4818182,
                "tempo": 120.0
            },
            {
                "start_time": 18.7681818,
                "end_time": 19.2522727,
                "pitch": 75,
                "velocity": 80,
                "duration": 0.4840909,
                "tempo": 120.0
            },
            {
                "start_time": 19.2704545,
                "end_time": 20.8568182,
                "pitch": 74,
                "velocity": 80,
                "duration": 1.5863636,
                "tempo": 120.0
            },
            {
                "start_time": 20.8727273,
                "end_time": 21.1568182,
                "pitch": 72,
                "velocity": 80,
                "duration": 0.2840909,
                "tempo": 120.0
            },
            {
                "start_time": 21.175,
                "end_time": 21.4545455,
                "pitch": 74,
                "velocity": 80,
                "duration": 0.2795455,
                "tempo": 120.0
            },
            {
                "start_time": 21.4704545,
                "end_time": 21.65,
                "pitch": 75,
                "velocity": 80,
                "duration": 0.1795455,
                "tempo": 120.0
            },
            {
                "start_time": 21.6681818,
                "end_time": 21.9590909,
                "pitch": 75,
                "velocity": 80,
                "duration": 0.2909091,
                "tempo": 120.0
            },
            {
                "start_time": 21.975,
                "end_time": 22.2568182,
                "pitch": 72,
                "velocity": 80,
                "duration": 0.2818182,
                "tempo": 120.0
            },
            {
                "start_time": 22.2727273,
                "end_time": 22.5545455,
                "pitch": 80,
                "velocity": 80,
                "duration": 0.2818182,
                "tempo": 120.0
            },
            {
                "start_time": 22.5727273,
                "end_time": 24.0772727,
                "pitch": 79,
                "velocity": 80,
                "duration": 1.5045455,
                "tempo": 120.0
            },
            {
                "start_time": 24.0931818,
                "end_time": 24.8704545,
                "pitch": 77,
                "velocity": 80,
                "duration": 0.7772727,
                "tempo": 120.0
            },
            {
                "start_time": 24.8863636,
                "end_time": 25.2727273,
                "pitch": 68,
                "velocity": 80,
                "duration": 0.3863636,
                "tempo": 120.0
            },
            {
                "start_time": 25.2886364,
                "end_time": 25.4727273,
                "pitch": 70,
                "velocity": 80,
                "duration": 0.1840909,
                "tempo": 120.0
            },
            {
                "start_time": 25.4886364,
                "end_time": 25.6727273,
                "pitch": 71,
                "velocity": 80,
                "duration": 0.1840909,
                "tempo": 120.0
            },
            {
                "start_time": 25.6886364,
                "end_time": 27.2772727,
                "pitch": 71,
                "velocity": 80,
                "duration": 1.5886364,
                "tempo": 120.0
            },
            {
                "start_time": 27.2954545,
                "end_time": 27.6772727,
                "pitch": 75,
                "velocity": 80,
                "duration": 0.3818182,
                "tempo": 120.0
            },
            {
                "start_time": 27.6954545,
                "end_time": 27.8795455,
                "pitch": 75,
                "velocity": 80,
                "duration": 0.1840909,
                "tempo": 120.0
            },
            {
                "start_time": 27.8954545,
                "end_time": 28.3795455,
                "pitch": 73,
                "velocity": 80,
                "duration": 0.4840909,
                "tempo": 120.0
            },
            {
                "start_time": 28.3977273,
                "end_time": 28.8795455,
                "pitch": 71,
                "velocity": 80,
                "duration": 0.4818182,
                "tempo": 120.0
            },
            {
                "start_time": 28.8977273,
                "end_time": 30.4863636,
                "pitch": 70,
                "velocity": 80,
                "duration": 1.5886364,
                "tempo": 120.0
            },
            {
                "start_time": 30.5022727,
                "end_time": 30.8863636,
                "pitch": 79,
                "velocity": 80,
                "duration": 0.3840909,
                "tempo": 120.0
            },
            {
                "start_time": 30.9022727,
                "end_time": 31.0863636,
                "pitch": 79,
                "velocity": 80,
                "duration": 0.1840909,
                "tempo": 120.0
            },
            {
                "start_time": 31.1045455,
                "end_time": 31.5886364,
                "pitch": 77,
                "velocity": 80,
                "duration": 0.4840909,
                "tempo": 120.0
            },
            {
                "start_time": 31.6045455,
                "end_time": 32.0909091,
                "pitch": 75,
                "velocity": 80,
                "duration": 0.4863636,
                "tempo": 120.0
            },
            {
                "start_time": 32.1068182,
                "end_time": 33.8931818,
                "pitch": 74,
                "velocity": 80,
                "duration": 1.7863636,
                "tempo": 120.0
            },
            {
                "start_time": 33.9113636,
                "end_time": 34.0931818,
                "pitch": 72,
                "velocity": 80,
                "duration": 0.1818182,
                "tempo": 120.0
            },
            {
                "start_time": 34.1113636,
                "end_time": 34.2909091,
                "pitch": 74,
                "velocity": 80,
                "duration": 0.1795455,
                "tempo": 120.0
            },
            {
                "start_time": 34.3068182,
                "end_time": 34.4863636,
                "pitch": 75,
                "velocity": 80,
                "duration": 0.1795455,
                "tempo": 120.0
            },
            {
                "start_time": 34.5022727,
                "end_time": 34.8954545,
                "pitch": 80,
                "velocity": 80,
                "duration": 0.3931818,
                "tempo": 120.0
            },
            {
                "start_time": 34.9136364,
                "end_time": 35.0977273,
                "pitch": 79,
                "velocity": 80,
                "duration": 0.1840909,
                "tempo": 120.0
            },
            {
                "start_time": 35.1136364,
                "end_time": 35.2977273,
                "pitch": 80,
                "velocity": 80,
                "duration": 0.1840909,
                "tempo": 120.0
            },
            {
                "start_time": 35.3136364,
                "end_time": 36.5,
                "pitch": 79,
                "velocity": 80,
                "duration": 1.1863636,
                "tempo": 120.0
            },
            {
                "start_time": 36.5159091,
                "end_time": 36.7,
                "pitch": 77,
                "velocity": 80,
                "duration": 0.1840909,
                "tempo": 120.0
            },
            {
                "start_time": 36.7159091,
                "end_time": 36.9,
                "pitch": 79,
                "velocity": 80,
                "duration": 0.1840909,
                "tempo": 120.0
            },
            {
                "start_time": 36.9159091,
                "end_time": 38.5022727,
                "pitch": 77,
                "velocity": 80,
                "duration": 1.5863636,
                "tempo": 120.0
            }
        ],
        "Acoustic Bass": [
            {
                "start_time": 0.0,
                "end_time": 0.3840909,
                "pitch": 32,
                "velocity": 64,
                "duration": 0.3840909,
                "tempo": 120.0
            },
            {
                "start_time": 0.4,
                "end_time": 0.7840909,
                "pitch": 32,
                "velocity": 64,
                "duration": 0.3840909,
                "tempo": 120.0
            },
            {
                "start_time": 0.8,
                "end_time": 1.1840909,
                "pitch": 32,
                "velocity": 64,
                "duration": 0.3840909,
                "tempo": 120.0
            },
            {
                "start_time": 1.2,
                "end_time": 1.4840909,
                "pitch": 32,
                "velocity": 64,
                "duration": 0.2840909,
                "tempo": 120.0
            },
            {
                "start_time": 1.5,
                "end_time": 1.5840909,
                "pitch": 32,
                "velocity": 64,
                "duration": 0.0840909,
                "tempo": 120.0
            },
            {
                "start_time": 1.6,
                "end_time": 1.9863636,
                "pitch": 32,
                "velocity": 64,
                "duration": 0.3863636,
                "tempo": 120.0
            },
            {
                "start_time": 2.0022727,
                "end_time": 2.3863636,
                "pitch": 32,
                "velocity": 64,
                "duration": 0.3840909,
                "tempo": 120.0
            },
            {
                "start_time": 2.4022727,
                "end_time": 2.6863636,
                "pitch": 39,
                "velocity": 64,
                "duration": 0.2840909,
                "tempo": 120.0
            },
            {
                "start_time": 2.7022727,
                "end_time": 2.9863636,
                "pitch": 39,
                "velocity": 64,
                "duration": 0.2840909,
                "tempo": 120.0
            },
            {
                "start_time": 3.0022727,
                "end_time": 3.1863636,
                "pitch": 39,
                "velocity": 64,
                "duration": 0.1840909,
                "tempo": 120.0
            },
            {
                "start_time": 3.2022727,
                "end_time": 3.4886364,
                "pitch": 34,
                "velocity": 64,
                "duration": 0.2863636,
                "tempo": 120.0
            },
            {
                "start_time": 3.5045455,
                "end_time": 3.7886364,
                "pitch": 34,
                "velocity": 64,
                "duration": 0.2840909,
                "tempo": 120.0
            },
            {
                "start_time": 3.8045455,
                "end_time": 3.9886364,
                "pitch": 34,
                "velocity": 64,
                "duration": 0.1840909,
                "tempo": 120.0
            },
            {
                "start_time": 4.0045455,
                "end_time": 4.2886364,
                "pitch": 34,
                "velocity": 64,
                "duration": 0.2840909,
                "tempo": 120.0
            },
            {
                "start_time": 4.3045455,
                "end_time": 4.5909091,
                "pitch": 34,
                "velocity": 64,
                "duration": 0.2863636,
                "tempo": 120.0
            },
            {
                "start_time": 4.6068182,
                "end_time": 4.9909091,
                "pitch": 34,
                "velocity": 64,
                "duration": 0.3840909,
                "tempo": 120.0
            },
            {
                "start_time": 5.0090909,
                "end_time": 5.1909091,
                "pitch": 34,
                "velocity": 64,
                "duration": 0.1818182,
                "tempo": 120.0
            },
            {
                "start_time": 5.2090909,
                "end_time": 5.9931818,
                "pitch": 27,
                "velocity": 64,
                "duration": 0.7840909,
                "tempo": 120.0
            },
            {
                "start_time": 6.0113636,
                "end_time": 6.1954545,
                "pitch": 29,
                "velocity": 64,
                "duration": 0.1840909,
                "tempo": 120.0
            },
            {
                "start_time": 6.2113636,
                "end_time": 6.3977273,
                "pitch": 31,
                "velocity": 64,
                "duration": 0.1863636,
                "tempo": 120.0
            },
            {
                "start_time": 6.4136364,
                "end_time": 6.8,
                "pitch": 32,
                "velocity": 64,
                "duration": 0.3863636,
                "tempo": 120.0
            },
            {
                "start_time": 6.8159091,
                "end_time": 7.2,
                "pitch": 32,
                "velocity": 64,
                "duration": 0.3840909,
                "tempo": 120.0
            },
            {
                "start_time": 7.2159091,
                "end_time": 7.6022727,
                "pitch": 32,
                "velocity": 64,
                "duration": 0.3863636,
                "tempo": 120.0
            },
            {
                "start_time": 7.6181818,
                "end_time": 7.9022727,
                "pitch": 32,
                "velocity": 64,
                "duration": 0.2840909,
                "tempo": 120.0
            },
            {
                "start_time": 7.9181818,
                "end_time": 8.0022727,
                "pitch": 32,
                "velocity": 64,
                "duration": 0.0840909,
                "tempo": 120.0
            },
            {
                "start_time": 8.0181818,
                "end_time": 8.4045455,
                "pitch": 32,
                "velocity": 64,
                "duration": 0.3863636,
                "tempo": 120.0
            },
            {
                "start_time": 8.4204545,
                "end_time": 8.8068182,
                "pitch": 32,
                "velocity": 64,
                "duration": 0.3863636,
                "tempo": 120.0
            },
            {
                "start_time": 8.825,
                "end_time": 9.1090909,
                "pitch": 39,
                "velocity": 64,
                "duration": 0.2840909,
                "tempo": 120.0
            },
            {
                "start_time": 9.1272727,
                "end_time": 9.4090909,
                "pitch": 39,
                "velocity": 64,
                "duration": 0.2818182,
                "tempo": 120.0
            },
            {
                "start_time": 9.4272727,
                "end_time": 9.6090909,
                "pitch": 39,
                "velocity": 64,
                "duration": 0.1818182,
                "tempo": 120.0
            },
            {
                "start_time": 9.6272727,
                "end_time": 9.9113636,
                "pitch": 34,
                "velocity": 64,
                "duration": 0.2840909,
                "tempo": 120.0
            },
            {
                "start_time": 9.9295455,
                "end_time": 10.2136364,
                "pitch": 34,
                "velocity": 64,
                "duration": 0.2840909,
                "tempo": 120.0
            },
            {
                "start_time": 10.2318182,
                "end_time": 10.6159091,
                "pitch": 34,
                "velocity": 64,
                "duration": 0.3840909,
                "tempo": 120.0
            },
            {
                "start_time": 10.6340909,
                "end_time": 11.0204545,
                "pitch": 29,
                "velocity": 64,
                "duration": 0.3863636,
                "tempo": 120.0
            },
            {
                "start_time": 11.0363636,
                "end_time": 11.2204545,
                "pitch": 29,
                "velocity": 64,
                "duration": 0.1840909,
                "tempo": 120.0
            },
            {
                "start_time": 11.2386364,
                "end_time": 12.4272727,
                "pitch": 34,
                "velocity": 64,
                "duration": 1.1886364,
                "tempo": 120.0
            },
            {
                "start_time": 12.4431818,
                "end_time": 12.6272727,
                "pitch": 27,
                "velocity": 64,
                "duration": 0.1840909,
                "tempo": 120.0
            },
            {
                "start_time": 12.6431818,
                "end_time": 12.8295455,
                "pitch": 27,
                "velocity": 64,
                "duration": 0.1863636,
                "tempo": 120.0
            },
            {
                "start_time": 12.8454545,
                "end_time": 13.4318182,
                "pitch": 32,
                "velocity": 64,
                "duration": 0.5863636,
                "tempo": 120.0
            },
            {
                "start_time": 13.4477273,
                "end_time": 13.6318182,
                "pitch": 32,
                "velocity": 64,
                "duration": 0.1840909,
                "tempo": 120.0
            },
            {
                "start_time": 13.6477273,
                "end_time": 13.8318182,
                "pitch": 32,
                "velocity": 64,
                "duration": 0.1840909,
                "tempo": 120.0
            },
            {
                "start_time": 13.85,
                "end_time": 14.2363636,
                "pitch": 35,
                "velocity": 64,
                "duration": 0.3863636,
                "tempo": 120.0
            },
            {
                "start_time": 14.2522727,
                "end_time": 14.6386364,
                "pitch": 39,
                "velocity": 64,
                "duration": 0.3863636,
                "tempo": 120.0
            },
            {
                "start_time": 14.6545455,
                "end_time": 14.8386364,
                "pitch": 35,
                "velocity": 64,
                "duration": 0.1840909,
                "tempo": 120.0
            },
            {
                "start_time": 14.8568182,
                "end_time": 15.6431818,
                "pitch": 32,
                "velocity": 64,
                "duration": 0.7863636,
                "tempo": 120.0
            },
            {
                "start_time": 15.6590909,
                "end_time": 16.0522727,
                "pitch": 32,
                "velocity": 64,
                "duration": 0.3931818,
                "tempo": 120.0
            },
            {
                "start_time": 16.0704545,
                "end_time": 16.6454545,
                "pitch": 34,
                "velocity": 64,
                "duration": 0.575,
                "tempo": 120.0
            },
            {
                "start_time": 16.6613636,
                "end_time": 16.8454545,
                "pitch": 43,
                "velocity": 64,
                "duration": 0.1840909,
                "tempo": 120.0
            },
            {
                "start_time": 16.8613636,
                "end_time": 17.6477273,
                "pitch": 43,
                "velocity": 64,
                "duration": 0.7863636,
                "tempo": 120.0
            },
            {
                "start_time": 17.6636364,
                "end_time": 18.25,
                "pitch": 43,
                "velocity": 64,
                "duration": 0.5863636,
                "tempo": 120.0
            },
            {
                "start_time": 18.2681818,
                "end_time": 18.65,
                "pitch": 43,
                "velocity": 64,
                "duration": 0.3818182,
                "tempo": 120.0
            },
            {
                "start_time": 18.6681818,
                "end_time": 19.0522727,
                "pitch": 41,
                "velocity": 64,
                "duration": 0.3840909,
                "tempo": 120.0
            },
            {
                "start_time": 19.0681818,
                "end_time": 19.2522727,
                "pitch": 39,
                "velocity": 64,
                "duration": 0.1840909,
                "tempo": 120.0
            },
            {
                "start_time": 19.2704545,
                "end_time": 19.8545455,
                "pitch": 38,
                "velocity": 64,
                "duration": 0.5840909,
                "tempo": 120.0
            },
            {
                "start_time": 19.8704545,
                "end_time": 20.0568182,
                "pitch": 38,
                "velocity": 64,
                "duration": 0.1863636,
                "tempo": 120.0
            },
            {
                "start_time": 20.0727273,
                "end_time": 20.8568182,
                "pitch": 38,
                "velocity": 64,
                "duration": 0.7840909,
                "tempo": 120.0
            },
            {
                "start_time": 20.8727273,
                "end_time": 21.125,
                "pitch": 32,
                "velocity": 64,
                "duration": 0.2522727,
                "tempo": 120.0
            },
            {
                "start_time": 21.1409091,
                "end_time": 21.3886364,
                "pitch": 32,
                "velocity": 64,
                "duration": 0.2477273,
                "tempo": 120.0
            },
            {
                "start_time": 21.4068182,
                "end_time": 21.65,
                "pitch": 32,
                "velocity": 64,
                "duration": 0.2431818,
                "tempo": 120.0
            },
            {
                "start_time": 21.6681818,
                "end_time": 21.925,
                "pitch": 32,
                "velocity": 64,
                "duration": 0.2568182,
                "tempo": 120.0
            },
            {
                "start_time": 21.9409091,
                "end_time": 22.1931818,
                "pitch": 31,
                "velocity": 64,
                "duration": 0.2522727,
                "tempo": 120.0
            },
            {
                "start_time": 22.2090909,
                "end_time": 22.4545455,
                "pitch": 32,
                "velocity": 64,
                "duration": 0.2454545,
                "tempo": 120.0
            },
            {
                "start_time": 22.4704545,
                "end_time": 23.0659091,
                "pitch": 43,
                "velocity": 64,
                "duration": 0.5954545,
                "tempo": 120.0
            },
            {
                "start_time": 23.0818182,
                "end_time": 23.6659091,
                "pitch": 43,
                "velocity": 64,
                "duration": 0.5840909,
                "tempo": 120.0
            },
            {
                "start_time": 23.6840909,
                "end_time": 24.0772727,
                "pitch": 43,
                "velocity": 64,
                "duration": 0.3931818,
                "tempo": 120.0
            },
            {
                "start_time": 24.0931818,
                "end_time": 24.8704545,
                "pitch": 41,
                "velocity": 64,
                "duration": 0.7772727,
                "tempo": 120.0
            },
            {
                "start_time": 24.8863636,
                "end_time": 25.6727273,
                "pitch": 41,
                "velocity": 64,
                "duration": 0.7863636,
                "tempo": 120.0
            },
            {
                "start_time": 25.6886364,
                "end_time": 26.275,
                "pitch": 32,
                "velocity": 64,
                "duration": 0.5863636,
                "tempo": 120.0
            },
            {
                "start_time": 26.2909091,
                "end_time": 26.5090909,
                "pitch": 35,
                "velocity": 64,
                "duration": 0.2181818,
                "tempo": 120.0
            },
            {
                "start_time": 26.525,
                "end_time": 27.0772727,
                "pitch": 39,
                "velocity": 64,
                "duration": 0.5522727,
                "tempo": 120.0
            },
            {
                "start_time": 27.0931818,
                "end_time": 27.2772727,
                "pitch": 39,
                "velocity": 64,
                "duration": 0.1840909,
                "tempo": 120.0
            },
            {
                "start_time": 27.2954545,
                "end_time": 27.5454545,
                "pitch": 39,
                "velocity": 64,
                "duration": 0.25,
                "tempo": 120.0
            },
            {
                "start_time": 27.5613636,
                "end_time": 27.8795455,
                "pitch": 35,
                "velocity": 64,
                "duration": 0.3181818,
                "tempo": 120.0
            },
            {
                "start_time": 27.8954545,
                "end_time": 28.8477273,
                "pitch": 32,
                "velocity": 64,
                "duration": 0.9522727,
                "tempo": 120.0
            },
            {
                "start_time": 28.8636364,
                "end_time": 29.45,
                "pitch": 34,
                "velocity": 64,
                "duration": 0.5863636,
                "tempo": 120.0
            },
            {
                "start_time": 29.4659091,
                "end_time": 29.6840909,
                "pitch": 34,
                "velocity": 64,
                "duration": 0.2181818,
                "tempo": 120.0
            },
            {
                "start_time": 29.7,
                "end_time": 30.4863636,
                "pitch": 34,
                "velocity": 64,
                "duration": 0.7863636,
                "tempo": 120.0
            },
            {
                "start_time": 30.5022727,
                "end_time": 31.0863636,
                "pitch": 43,
                "velocity": 64,
                "duration": 0.5840909,
                "tempo": 120.0
            },
            {
                "start_time": 31.1045455,
                "end_time": 31.6227273,
                "pitch": 43,
                "velocity": 64,
                "duration": 0.5181818,
                "tempo": 120.0
            },
            {
                "start_time": 31.6386364,
                "end_time": 32.025,
                "pitch": 43,
                "velocity": 64,
                "duration": 0.3863636,
                "tempo": 120.0
            },
            {
                "start_time": 32.0409091,
                "end_time": 32.6568182,
                "pitch": 41,
                "velocity": 64,
                "duration": 0.6159091,
                "tempo": 120.0
            },
            {
                "start_time": 32.675,
                "end_time": 32.8568182,
                "pitch": 41,
                "velocity": 64,
                "duration": 0.1818182,
                "tempo": 120.0
            },
            {
                "start_time": 32.875,
                "end_time": 33.6931818,
                "pitch": 41,
                "velocity": 64,
                "duration": 0.8181818,
                "tempo": 120.0
            },
            {
                "start_time": 33.7113636,
                "end_time": 33.9613636,
                "pitch": 32,
                "velocity": 64,
                "duration": 0.25,
                "tempo": 120.0
            },
            {
                "start_time": 33.9772727,
                "end_time": 34.225,
                "pitch": 32,
                "velocity": 64,
                "duration": 0.2477273,
                "tempo": 120.0
            },
            {
                "start_time": 34.2409091,
                "end_time": 34.4863636,
                "pitch": 32,
                "velocity": 64,
                "duration": 0.2454545,
                "tempo": 120.0
            },
            {
                "start_time": 34.5022727,
                "end_time": 34.7590909,
                "pitch": 32,
                "velocity": 64,
                "duration": 0.2568182,
                "tempo": 120.0
            },
            {
                "start_time": 34.7772727,
                "end_time": 35.0295455,
                "pitch": 32,
                "velocity": 64,
                "duration": 0.2522727,
                "tempo": 120.0
            },
            {
                "start_time": 35.0477273,
                "end_time": 35.2977273,
                "pitch": 32,
                "velocity": 64,
                "duration": 0.25,
                "tempo": 120.0
            },
            {
                "start_time": 35.3136364,
                "end_time": 35.7,
                "pitch": 34,
                "velocity": 64,
                "duration": 0.3863636,
                "tempo": 120.0
            },
            {
                "start_time": 35.7159091,
                "end_time": 36.1,
                "pitch": 34,
                "velocity": 64,
                "duration": 0.3840909,
                "tempo": 120.0
            },
            {
                "start_time": 36.1159091,
                "end_time": 36.5,
                "pitch": 34,
                "velocity": 64,
                "duration": 0.3840909,
                "tempo": 120.0
            },
            {
                "start_time": 36.5159091,
                "end_time": 36.7,
                "pitch": 34,
                "velocity": 64,
                "duration": 0.1840909,
                "tempo": 120.0
            },
            {
                "start_time": 36.7159091,
                "end_time": 36.9318182,
                "pitch": 38,
                "velocity": 64,
                "duration": 0.2159091,
                "tempo": 120.0
            },
            {
                "start_time": 36.95,
                "end_time": 37.3,
                "pitch": 41,
                "velocity": 64,
                "duration": 0.35,
                "tempo": 120.0
            },
            {
                "start_time": 37.3159091,
                "end_time": 37.7022727,
                "pitch": 41,
                "velocity": 64,
                "duration": 0.3863636,
                "tempo": 120.0
            },
            {
                "start_time": 37.7181818,
                "end_time": 38.1022727,
                "pitch": 41,
                "velocity": 64,
                "duration": 0.3840909,
                "tempo": 120.0
            },
            {
                "start_time": 38.1181818,
                "end_time": 38.5022727,
                "pitch": 41,
                "velocity": 64,
                "duration": 0.3840909,
                "tempo": 120.0
            }
        ],
        "Church Organ": [
            {
                "start_time": 0.0,
                "end_time": 0.5840909,
                "pitch": 68,
                "velocity": 51,
                "duration": 0.5840909,
                "tempo": 120.0
            },
            {
                "start_time": 0.6,
                "end_time": 0.7840909,
                "pitch": 68,
                "velocity": 51,
                "duration": 0.1840909,
                "tempo": 120.0
            },
            {
                "start_time": 0.8,
                "end_time": 2.3863636,
                "pitch": 68,
                "velocity": 51,
                "duration": 1.5863636,
                "tempo": 120.0
            },
            {
                "start_time": 2.4022727,
                "end_time": 2.6863636,
                "pitch": 70,
                "velocity": 51,
                "duration": 0.2840909,
                "tempo": 120.0
            },
            {
                "start_time": 2.7022727,
                "end_time": 2.9863636,
                "pitch": 70,
                "velocity": 51,
                "duration": 0.2840909,
                "tempo": 120.0
            },
            {
                "start_time": 3.0022727,
                "end_time": 3.1863636,
                "pitch": 70,
                "velocity": 51,
                "duration": 0.1840909,
                "tempo": 120.0
            },
            {
                "start_time": 3.2022727,
                "end_time": 3.4886364,
                "pitch": 70,
                "velocity": 51,
                "duration": 0.2863636,
                "tempo": 120.0
            },
            {
                "start_time": 3.5045455,
                "end_time": 3.7886364,
                "pitch": 70,
                "velocity": 51,
                "duration": 0.2840909,
                "tempo": 120.0
            },
            {
                "start_time": 3.8045455,
                "end_time": 3.9886364,
                "pitch": 70,
                "velocity": 51,
                "duration": 0.1840909,
                "tempo": 120.0
            },
            {
                "start_time": 4.0045455,
                "end_time": 4.2886364,
                "pitch": 72,
                "velocity": 51,
                "duration": 0.2840909,
                "tempo": 120.0
            },
            {
                "start_time": 4.3045455,
                "end_time": 4.5909091,
                "pitch": 72,
                "velocity": 51,
                "duration": 0.2863636,
                "tempo": 120.0
            },
            {
                "start_time": 4.6068182,
                "end_time": 4.7909091,
                "pitch": 72,
                "velocity": 51,
                "duration": 0.1840909,
                "tempo": 120.0
            },
            {
                "start_time": 4.8090909,
                "end_time": 5.1909091,
                "pitch": 70,
                "velocity": 51,
                "duration": 0.3818182,
                "tempo": 120.0
            },
            {
                "start_time": 5.2090909,
                "end_time": 6.3977273,
                "pitch": 70,
                "velocity": 51,
                "duration": 1.1886364,
                "tempo": 120.0
            },
            {
                "start_time": 6.4136364,
                "end_time": 7.0,
                "pitch": 68,
                "velocity": 51,
                "duration": 0.5863636,
                "tempo": 120.0
            },
            {
                "start_time": 7.0159091,
                "end_time": 7.2,
                "pitch": 68,
                "velocity": 51,
                "duration": 0.1840909,
                "tempo": 120.0
            },
            {
                "start_time": 7.2159091,
                "end_time": 8.8068182,
                "pitch": 68,
                "velocity": 51,
                "duration": 1.5909091,
                "tempo": 120.0
            },
            {
                "start_time": 8.825,
                "end_time": 9.1090909,
                "pitch": 70,
                "velocity": 51,
                "duration": 0.2840909,
                "tempo": 120.0
            },
            {
                "start_time": 9.1272727,
                "end_time": 9.4090909,
                "pitch": 70,
                "velocity": 51,
                "duration": 0.2818182,
                "tempo": 120.0
            },
            {
                "start_time": 9.4272727,
                "end_time": 9.6090909,
                "pitch": 70,
                "velocity": 51,
                "duration": 0.1818182,
                "tempo": 120.0
            },
            {
                "start_time": 9.6272727,
                "end_time": 9.9113636,
                "pitch": 70,
                "velocity": 51,
                "duration": 0.2840909,
                "tempo": 120.0
            },
            {
                "start_time": 9.9295455,
                "end_time": 10.2136364,
                "pitch": 70,
                "velocity": 51,
                "duration": 0.2840909,
                "tempo": 120.0
            },
            {
                "start_time": 10.2318182,
                "end_time": 10.4159091,
                "pitch": 70,
                "velocity": 51,
                "duration": 0.1840909,
                "tempo": 120.0
            },
            {
                "start_time": 10.4318182,
                "end_time": 10.7181818,
                "pitch": 72,
                "velocity": 51,
                "duration": 0.2863636,
                "tempo": 120.0
            },
            {
                "start_time": 10.7340909,
                "end_time": 11.0204545,
                "pitch": 72,
                "velocity": 51,
                "duration": 0.2863636,
                "tempo": 120.0
            },
            {
                "start_time": 11.0363636,
                "end_time": 11.2204545,
                "pitch": 72,
                "velocity": 51,
                "duration": 0.1840909,
                "tempo": 120.0
            },
            {
                "start_time": 11.2386364,
                "end_time": 12.8295455,
                "pitch": 70,
                "velocity": 51,
                "duration": 1.5909091,
                "tempo": 120.0
            },
            {
                "start_time": 12.8454545,
                "end_time": 13.4318182,
                "pitch": 68,
                "velocity": 51,
                "duration": 0.5863636,
                "tempo": 120.0
            },
            {
                "start_time": 13.4477273,
                "end_time": 13.6318182,
                "pitch": 68,
                "velocity": 51,
                "duration": 0.1840909,
                "tempo": 120.0
            },
            {
                "start_time": 13.6477273,
                "end_time": 14.4363636,
                "pitch": 68,
                "velocity": 51,
                "duration": 0.7886364,
                "tempo": 120.0
            },
            {
                "start_time": 14.4545455,
                "end_time": 15.0409091,
                "pitch": 68,
                "velocity": 51,
                "duration": 0.5863636,
                "tempo": 120.0
            },
            {
                "start_time": 15.0568182,
                "end_time": 15.6431818,
                "pitch": 68,
                "velocity": 51,
                "duration": 0.5863636,
                "tempo": 120.0
            },
            {
                "start_time": 15.6590909,
                "end_time": 16.0522727,
                "pitch": 68,
                "velocity": 51,
                "duration": 0.3931818,
                "tempo": 120.0
            },
            {
                "start_time": 16.0704545,
                "end_time": 16.6454545,
                "pitch": 70,
                "velocity": 51,
                "duration": 0.575,
                "tempo": 120.0
            },
            {
                "start_time": 16.6613636,
                "end_time": 16.8454545,
                "pitch": 70,
                "velocity": 51,
                "duration": 0.1840909,
                "tempo": 120.0
            },
            {
                "start_time": 16.8613636,
                "end_time": 17.6477273,
                "pitch": 70,
                "velocity": 51,
                "duration": 0.7863636,
                "tempo": 120.0
            },
            {
                "start_time": 17.6636364,
                "end_time": 18.05,
                "pitch": 70,
                "velocity": 51,
                "duration": 0.3863636,
                "tempo": 120.0
            },
            {
                "start_time": 18.0681818,
                "end_time": 18.25,
                "pitch": 70,
                "velocity": 51,
                "duration": 0.1818182,
                "tempo": 120.0
            },
            {
                "start_time": 18.2681818,
                "end_time": 18.85,
                "pitch": 70,
                "velocity": 51,
                "duration": 0.5818182,
                "tempo": 120.0
            },
            {
                "start_time": 18.8681818,
                "end_time": 19.2522727,
                "pitch": 70,
                "velocity": 51,
                "duration": 0.3840909,
                "tempo": 120.0
            },
            {
                "start_time": 19.2704545,
                "end_time": 20.8568182,
                "pitch": 70,
                "velocity": 51,
                "duration": 1.5863636,
                "tempo": 120.0
            },
            {
                "start_time": 20.8727273,
                "end_time": 21.1568182,
                "pitch": 68,
                "velocity": 51,
                "duration": 0.2840909,
                "tempo": 120.0
            },
            {
                "start_time": 21.175,
                "end_time": 21.4545455,
                "pitch": 68,
                "velocity": 51,
                "duration": 0.2795455,
                "tempo": 120.0
            },
            {
                "start_time": 21.4704545,
                "end_time": 21.65,
                "pitch": 68,
                "velocity": 51,
                "duration": 0.1795455,
                "tempo": 120.0
            },
            {
                "start_time": 21.6681818,
                "end_time": 21.9590909,
                "pitch": 68,
                "velocity": 51,
                "duration": 0.2909091,
                "tempo": 120.0
            },
            {
                "start_time": 21.975,
                "end_time": 22.2568182,
                "pitch": 68,
                "velocity": 51,
                "duration": 0.2818182,
                "tempo": 120.0
            },
            {
                "start_time": 22.2727273,
                "end_time": 22.4545455,
                "pitch": 68,
                "velocity": 51,
                "duration": 0.1818182,
                "tempo": 120.0
            },
            {
                "start_time": 22.4704545,
                "end_time": 23.6659091,
                "pitch": 72,
                "velocity": 51,
                "duration": 1.1954545,
                "tempo": 120.0
            },
            {
                "start_time": 23.6840909,
                "end_time": 24.0772727,
                "pitch": 72,
                "velocity": 51,
                "duration": 0.3931818,
                "tempo": 120.0
            },
            {
                "start_time": 24.0931818,
                "end_time": 25.6727273,
                "pitch": 70,
                "velocity": 51,
                "duration": 1.5795455,
                "tempo": 120.0
            },
            {
                "start_time": 25.6886364,
                "end_time": 26.275,
                "pitch": 68,
                "velocity": 51,
                "duration": 0.5863636,
                "tempo": 120.0
            },
            {
                "start_time": 26.2909091,
                "end_time": 26.475,
                "pitch": 68,
                "velocity": 51,
                "duration": 0.1840909,
                "tempo": 120.0
            },
            {
                "start_time": 26.4909091,
                "end_time": 27.2772727,
                "pitch": 68,
                "velocity": 51,
                "duration": 0.7863636,
                "tempo": 120.0
            },
            {
                "start_time": 27.2954545,
                "end_time": 27.8795455,
                "pitch": 68,
                "velocity": 51,
                "duration": 0.5840909,
                "tempo": 120.0
            },
            {
                "start_time": 27.8954545,
                "end_time": 28.4795455,
                "pitch": 68,
                "velocity": 51,
                "duration": 0.5840909,
                "tempo": 120.0
            },
            {
                "start_time": 28.4977273,
                "end_time": 28.8795455,
                "pitch": 68,
                "velocity": 51,
                "duration": 0.3818182,
                "tempo": 120.0
            },
            {
                "start_time": 28.8977273,
                "end_time": 29.4840909,
                "pitch": 70,
                "velocity": 51,
                "duration": 0.5863636,
                "tempo": 120.0
            },
            {
                "start_time": 29.5,
                "end_time": 29.6840909,
                "pitch": 70,
                "velocity": 51,
                "duration": 0.1840909,
                "tempo": 120.0
            },
            {
                "start_time": 29.7,
                "end_time": 30.4863636,
                "pitch": 70,
                "velocity": 51,
                "duration": 0.7863636,
                "tempo": 120.0
            },
            {
                "start_time": 30.5022727,
                "end_time": 30.8863636,
                "pitch": 70,
                "velocity": 51,
                "duration": 0.3840909,
                "tempo": 120.0
            },
            {
                "start_time": 30.9022727,
                "end_time": 31.0863636,
                "pitch": 70,
                "velocity": 51,
                "duration": 0.1840909,
                "tempo": 120.0
            },
            {
                "start_time": 31.1045455,
                "end_time": 31.6886364,
                "pitch": 70,
                "velocity": 51,
                "duration": 0.5840909,
                "tempo": 120.0
            },
            {
                "start_time": 31.7045455,
                "end_time": 32.0909091,
                "pitch": 70,
                "velocity": 51,
                "duration": 0.3863636,
                "tempo": 120.0
            },
            {
                "start_time": 32.1068182,
                "end_time": 33.6931818,
                "pitch": 70,
                "velocity": 51,
                "duration": 1.5863636,
                "tempo": 120.0
            },
            {
                "start_time": 33.7113636,
                "end_time": 33.9931818,
                "pitch": 68,
                "velocity": 51,
                "duration": 0.2818182,
                "tempo": 120.0
            },
            {
                "start_time": 34.0113636,
                "end_time": 34.2909091,
                "pitch": 68,
                "velocity": 51,
                "duration": 0.2795455,
                "tempo": 120.0
            },
            {
                "start_time": 34.3068182,
                "end_time": 34.4863636,
                "pitch": 68,
                "velocity": 51,
                "duration": 0.1795455,
                "tempo": 120.0
            },
            {
                "start_time": 34.5022727,
                "end_time": 34.7931818,
                "pitch": 68,
                "velocity": 51,
                "duration": 0.2909091,
                "tempo": 120.0
            },
            {
                "start_time": 34.8113636,
                "end_time": 35.0977273,
                "pitch": 68,
                "velocity": 51,
                "duration": 0.2863636,
                "tempo": 120.0
            },
            {
                "start_time": 35.1136364,
                "end_time": 35.2977273,
                "pitch": 68,
                "velocity": 51,
                "duration": 0.1840909,
                "tempo": 120.0
            },
            {
                "start_time": 35.3136364,
                "end_time": 36.5,
                "pitch": 70,
                "velocity": 51,
                "duration": 1.1863636,
                "tempo": 120.0
            },
            {
                "start_time": 36.5159091,
                "end_time": 36.9,
                "pitch": 70,
                "velocity": 51,
                "duration": 0.3840909,
                "tempo": 120.0
            },
            {
                "start_time": 36.9159091,
                "end_time": 38.5022727,
                "pitch": 70,
                "velocity": 51,
                "duration": 1.5863636,
                "tempo": 120.0
            }
        ]
    }
}