{
    "mood": "happy",
    "instruments": {
        "Electric Guitar (clean)": [
            {
                "start_time": 0.0,
                "end_time": 0.1659091,
                "pitch": 33,
                "velocity": 80,
                "duration": 0.1659091,
                "tempo": 120.0
            },
            {
                "start_time": 0.1840909,
                "end_time": 0.3659091,
                "pitch": 33,
                "velocity": 80,
                "duration": 0.1818182,
                "tempo": 120.0
            },
            {
                "start_time": 0.3840909,
                "end_time": 0.5659091,
                "pitch": 33,
                "velocity": 80,
                "duration": 0.1818182,
                "tempo": 120.0
            },
            {
                "start_time": 0.5840909,
                "end_time": 0.7659091,
                "pitch": 33,
                "velocity": 80,
                "duration": 0.1818182,
                "tempo": 120.0
            },
            {
                "start_time": 0.7840909,
                "end_time": 0.9659091,
                "pitch": 33,
                "velocity": 80,
                "duration": 0.1818182,
                "tempo": 120.0
            },
            {
                "start_time": 0.9840909,
                "end_time": 1.1659091,
                "pitch": 33,
                "velocity": 80,
                "duration": 0.1818182,
                "tempo": 120.0
            },
            {
                "start_time": 1.1840909,
                "end_time": 1.3659091,
                "pitch": 33,
                "velocity": 80,
                "duration": 0.1818182,
                "tempo": 120.0
            },
            {
                "start_time": 1.3840909,
                "end_time": 1.5659091,
                "pitch": 33,
                "velocity": 80,
                "duration": 0.1818182,
                "tempo": 120.0
            },
            {
                "start_time": 1.5840909,
                "end_time": 1.7681818,
                "pitch": 31,
                "velocity": 80,
                "duration": 0.1840909,
                "tempo": 120.0
            },
            {
                "start_time": 1.7840909,
                "end_time": 1.9681818,
                "pitch": 31,
                "velocity": 80,
                "duration": 0.1840909,
                "tempo": 120.0
            },
            {
                "start_time": 1.9863636,
                "end_time": 2.1681818,
                "pitch": 31,
                "velocity": 80,
                "duration": 0.1818182,
                "tempo": 120.0
            },
            {
                "start_time": 2.1863636,
                "end_time": 2.3681818,
                "pitch": 31,
                "velocity": 80,
                "duration": 0.1818182,
                "tempo": 120.0
            },
            {
                "start_time": 2.3863636,
                "end_time": 2.5681818,
                "pitch": 31,
                "velocity": 80,
                "duration": 0.1818182,
                "tempo": 120.0
            },
            {
                "start_time": 2.5863636,
                "end_time": 2.7681818,
                "pitch": 31,
                "velocity": 80,
                "duration": 0.1818182,
                "tempo": 120.0
            },
            {
                "start_time": 2.7863636,
                "end_time": 2.9681818,
                "pitch": 31,
                "velocity": 80,
                "duration": 0.1818182,
                "tempo": 120.0
            },
            {
                "start_time": 2.9863636,
                "end_time": 3.1681818,
                "pitch": 31,
                "velocity": 80,
                "duration": 0.1818182,
                "tempo": 120.0
            },
            {
                "start_time": 3.1863636,
                "end_time": 3.3704545,
                "pitch": 29,
                "velocity": 80,
                "duration": 0.1840909,
                "tempo": 120.0
            },
            {
                "start_time": 3.3863636,
                "end_time": 3.5727273,
                "pitch": 29,
                "velocity": 80,
                "duration": 0.1863636,
                "tempo": 120.0
            },
            {
                "start_time": 3.5886364,
                "end_time": 3.7727273,
                "pitch": 29,
                "velocity": 80,
                "duration": 0.1840909,
                "tempo": 120.0
            },
            {
                "start_time": 3.7886364,
                "end_time": 3.9727273,
                "pitch": 29,
                "velocity": 80,
                "duration": 0.1840909,
                "tempo": 120.0
            },
            {
                "start_time": 3.9886364,
                "end_time": 4.1727273,
                "pitch": 31,
                "velocity": 80,
                "duration": 0.1840909,
                "tempo": 120.0
            },
            {
                "start_time": 4.1886364,
                "end_time": 4.3727273,
                "pitch": 31,
                "velocity": 80,
                "duration": 0.1840909,
                "tempo": 120.0
            },
            {
                "start_time": 4.3886364,
                "end_time": 4.5727273,
                "pitch": 31,
                "velocity": 80,
                "duration": 0.1840909,
                "tempo": 120.0
            },
            {
                "start_time": 4.5886364,
                "end_time": 4.7727273,
                "pitch": 31,
                "velocity": 80,
                "duration": 0.1840909,
                "tempo": 120.0
            },
            {
                "start_time": 4.7886364,
                "end_time": 6.3704545,
                "pitch": 33,
                "velocity": 80,
                "duration": 1.5818182,
                "tempo": 120.0
            }
        ],
        "Oboe": [
            {
                "start_time": 0.0,
                "end_time": 1.5659091,
                "pitch": 69,
                "velocity": 51,
                "duration": 1.5659091,
                "tempo": 120.0
            },
            {
                "start_time": 1.5840909,
                "end_time": 3.1681818,
                "pitch": 67,
                "velocity": 51,
                "duration": 1.5840909,
                "tempo": 120.0
            },
            {
                "start_time": 3.1863636,
                "end_time": 3.9727273,
                "pitch": 65,
                "velocity": 51,
                "duration": 0.7863636,
                "tempo": 120.0
            },
            {
                "start_time": 3.9886364,
                "end_time": 4.7727273,
                "pitch": 67,
                "velocity": 51,
                "duration": 0.7840909,
                "tempo": 120.0
            },
            {
                "start_time": 4.7886364,
                "end_time": 6.3704545,
                "pitch": 69,
                "velocity": 51,
                "duration": 1.5818182,
                "tempo": 120.0
            }
        ],
        "Church Organ": [
            {
                "start_time": 0.0,
                "end_time": 0.0340909,
                "pitch": 30,
                "velocity": 51,
                "duration": 0.0340909,
                "tempo": 120.0
            },
            {
                "start_time": 0.05,
                "end_time": 0.2340909,
                "pitch": 76,
                "velocity": 51,
                "duration": 0.1840909,
                "tempo": 120.0
            },
            {
                "start_time": 0.25,
                "end_time": 0.3340909,
                "pitch": 74,
                "velocity": 51,
                "duration": 0.0840909,
                "tempo": 120.0
            },
            {
                "start_time": 0.35,
                "end_time": 0.4340909,
                "pitch": 73,
                "velocity": 51,
                "duration": 0.0840909,
                "tempo": 120.0
            },
            {
                "start_time": 0.45,
                "end_time": 1.4340909,
                "pitch": 69,
                "velocity": 51,
                "duration": 0.9840909,
                "tempo": 120.0
            },
            {
                "start_time": 1.45,
                "end_time": 1.5340909,
                "pitch": 74,
                "velocity": 51,
                "duration": 0.0840909,
                "tempo": 120.0
            },
            {
                "start_time": 1.55,
                "end_time": 1.6340909,
                "pitch": 76,
                "velocity": 51,
                "duration": 0.0840909,
                "tempo": 120.0
            },
            {
                "start_time": 1.65,
                "end_time": 3.0363636,
                "pitch": 67,
                "velocity": 51,
                "duration": 1.3863636,
                "tempo": 120.0
            },
            {
                "start_time": 3.0522727,
                "end_time": 3.1363636,
                "pitch": 72,
                "velocity": 51,
                "duration": 0.0840909,
                "tempo": 120.0
            },
            {
                "start_time": 3.1522727,
                "end_time": 3.2363636,
                "pitch": 74,
                "velocity": 51,
                "duration": 0.0840909,
                "tempo": 120.0
            },
            {
                "start_time": 3.2522727,
                "end_time": 3.8386364,
                "pitch": 65,
                "velocity": 51,
                "duration": 0.5863636,
                "tempo": 120.0
            },
            {
                "start_time": 3.8545455,
                "end_time": 3.9386364,
                "pitch": 72,
                "velocity": 51,
                "duration": 0.0840909,
                "tempo": 120.0
            },
            {
                "start_time": 3.9545455,
                "end_time": 4.0386364,
                "pitch": 74,
                "velocity": 51,
                "duration": 0.0840909,
                "tempo": 120.0
            },
            {
                "start_time": 4.0545455,
                "end_time": 4.6386364,
                "pitch": 67,
                "velocity": 51,
                "duration": 0.5840909,
                "tempo": 120.0
            },
            {
                "start_time": 4.6545455,
                "end_time": 4.7386364,
                "pitch": 67,
                "velocity": 51,
                "duration": 0.0840909,
                "tempo": 120.0
            },
            {
                "start_time": 4.7545455,
                "end_time": 4.8386364,
                "pitch": 76,
                "velocity": 51,
                "duration": 0.0840909,
                "tempo": 120.0
            },
            {
                "start_time": 4.8545455,
                "end_time": 6.4363636,
                "pitch": 69,
                "velocity": 51,
                "duration": 1.5818182,
                "tempo": 120.0
            }
        ]
    }
}