{
    "mood": "happy",
    "instruments": {
        "Acoustic Bass": [
            {
                "start_time": 0.0,
                "end_time": 0.0772727,
                "pitch": 37,
                "velocity": 32,
                "duration": 0.0772727,
                "tempo": 120.0
            },
            {
                "start_time": 0.0886364,
                "end_time": 0.1772727,
                "pitch": 37,
                "velocity": 32,
                "duration": 0.0886364,
                "tempo": 120.0
            },
            {
                "start_time": 0.1886364,
                "end_time": 0.325,
                "pitch": 49,
                "velocity": 32,
                "duration": 0.1363636,
                "tempo": 120.0
            },
            {
                "start_time": 0.3409091,
                "end_time": 0.475,
                "pitch": 37,
                "velocity": 32,
                "duration": 0.1340909,
                "tempo": 120.0
            },
            {
                "start_time": 0.4931818,
                "end_time": 0.6272727,
                "pitch": 37,
                "velocity": 32,
                "duration": 0.1340909,
                "tempo": 120.0
            },
            {
                "start_time": 0.6431818,
                "end_time": 0.7795455,
                "pitch": 49,
                "velocity": 32,
                "duration": 0.1363636,
                "tempo": 120.0
            },
            {
                "start_time": 0.7954545,
                "end_time": 0.9272727,
                "pitch": 37,
                "velocity": 32,
                "duration": 0.1318182,
                "tempo": 120.0
            },
            {
                "start_time": 0.9431818,
                "end_time": 1.075,
                "pitch": 37,
                "velocity": 32,
                "duration": 0.1318182,
                "tempo": 120.0
            },
            {
                "start_time": 1.0931818,
                "end_time": 1.225,
                "pitch": 49,
                "velocity": 32,
                "duration": 0.1318182,
                "tempo": 120.0
            },
            {
                "start_time": 1.2409091,
                "end_time": 1.3727273,
                "pitch": 37,
                "velocity": 32,
                "duration": 0.1318182,
                "tempo": 120.0
            },
            {
                "start_time": 1.3886364,
                "end_time": 1.525,
                "pitch": 37,
                "velocity": 32,
                "duration": 0.1363636,
                "tempo": 120.0
            },
            {
                "start_time": 1.5431818,
                "end_time": 1.6795455,
                "pitch": 49,
                "velocity": 32,
                "duration": 0.1363636,
                "tempo": 120.0
            },
            {
                "start_time": 1.6954545,
                "end_time": 1.8318182,
                "pitch": 37,
                "velocity": 32,
                "duration": 0.1363636,
                "tempo": 120.0
            },
            {
                "start_time": 1.8477273,
                "end_time": 1.9840909,
                "pitch": 37,
                "velocity": 32,
                "duration": 0.1363636,
                "tempo": 120.0
            },
            {
                "start_time": 2.0022727,
                "end_time": 2.1363636,
                "pitch": 49,
                "velocity": 32,
                "duration": 0.1340909,
                "tempo": 120.0
            },
            {
                "start_time": 2.1522727,
                "end_time": 2.2886364,
                "pitch": 37,
                "velocity": 32,
                "duration": 0.1363636,
                "tempo": 120.0
            },
            {
                "start_time": 2.3045455,
                "end_time": 2.4386364,
                "pitch": 35,
                "velocity": 32,
                "duration": 0.1340909,
                "tempo": 120.0
            },
            {
                "start_time": 2.4568182,
                "end_time": 2.5909091,
                "pitch": 35,
                "velocity": 32,
                "duration": 0.1340909,
                "tempo": 120.0
            },
            {
                "start_time": 2.6068182,
                "end_time": 2.7431818,
                "pitch": 47,
                "velocity": 32,
                "duration": 0.1363636,
                "tempo": 120.0
            },
            {
                "start_time": 2.7590909,
                "end_time": 2.8931818,
                "pitch": 35,
                "velocity": 32,
                "duration": 0.1340909,
                "tempo": 120.0
            },
            {
                "start_time": 2.9113636,
                "end_time": 3.0454545,
                "pitch": 35,
                "velocity": 32,
                "duration": 0.1340909,
                "tempo": 120.0
            },
            {
                "start_time": 3.0613636,
                "end_time": 3.1977273,
                "pitch": 47,
                "velocity": 32,
                "duration": 0.1363636,
                "tempo": 120.0
            },
            {
                "start_time": 3.2136364,
                "end_time": 3.3477273,
                "pitch": 35,
                "velocity": 32,
                "duration": 0.1340909,
                "tempo": 120.0
            },
            {
                "start_time": 3.3636364,
                "end_time": 3.4977273,
                "pitch": 35,
                "velocity": 32,
                "duration": 0.1340909,
                "tempo": 120.0
            },
            {
                "start_time": 3.5136364,
                "end_time": 3.6477273,
                "pitch": 35,
                "velocity": 32,
                "duration": 0.1340909,
                "tempo": 120.0
            },
            {
                "start_time": 3.6636364,
                "end_time": 3.95,
                "pitch": 33,
                "velocity": 32,
                "duration": 0.2863636,
                "tempo": 120.0
            },
            {
                "start_time": 3.9659091,
                "end_time": 4.2568182,
                "pitch": 33,
                "velocity": 32,
                "duration": 0.2909091,
                "tempo": 120.0
            },
            {
                "start_time": 4.2727273,
                "end_time": 4.4090909,
                "pitch": 33,
                "velocity": 32,
                "duration": 0.1363636,
                "tempo": 120.0
            },
            {
                "start_time": 4.425,
                "end_time": 4.7068182,
                "pitch": 35,
                "velocity": 32,
                "duration": 0.2818182,
                "tempo": 120.0
            },
            {
                "start_time": 4.7227273,
                "end_time": 4.8545455,
                "pitch": 37,
                "velocity": 32,
                "duration": 0.1318182,
                "tempo": 120.0
            },
            {
                "start_time": 4.8704545,
                "end_time": 5.0045455,
                "pitch": 37,
                "velocity": 32,
                "duration": 0.1340909,
                "tempo": 120.0
            },
            {
                "start_time": 5.0204545,
                "end_time": 5.1522727,
                "pitch": 49,
                "velocity": 32,
                "duration": 0.1318182,
                "tempo": 120.0
            },
            {
                "start_time": 5.1704545,
                "end_time": 5.3022727,
                "pitch": 37,
                "velocity": 32,
                "duration": 0.1318182,
                "tempo": 120.0
            },
            {
                "start_time": 5.3204545,
                "end_time": 5.4522727,
                "pitch": 37,
                "velocity": 32,
                "duration": 0.1318182,
                "tempo": 120.0
            },
            {
                "start_time": 5.4704545,
                "end_time": 5.6022727,
                "pitch": 49,
                "velocity": 32,
                "duration": 0.1318182,
                "tempo": 120.0
            },
            {
                "start_time": 5.6204545,
                "end_time": 5.7522727,
                "pitch": 37,
                "velocity": 32,
                "duration": 0.1318182,
                "tempo": 120.0
            },
            {
                "start_time": 5.7704545,
                "end_time": 5.9022727,
                "pitch": 37,
                "velocity": 32,
                "duration": 0.1318182,
                "tempo": 120.0
            },
            {
                "start_time": 5.9204545,
                "end_time": 6.0522727,
                "pitch": 49,
                "velocity": 32,
                "duration": 0.1318182,
                "tempo": 120.0
            },
            {
                "start_time": 6.0704545,
                "end_time": 6.2022727,
                "pitch": 37,
                "velocity": 32,
                "duration": 0.1318182,
                "tempo": 120.0
            },
            {
                "start_time": 6.2204545,
                "end_time": 6.3545455,
                "pitch": 37,
                "velocity": 32,
                "duration": 0.1340909,
                "tempo": 120.0
            },
            {
                "start_time": 6.3727273,
                "end_time": 6.5068182,
                "pitch": 49,
                "velocity": 32,
                "duration": 0.1340909,
                "tempo": 120.0
            },
            {
                "start_time": 6.5227273,
                "end_time": 6.6568182,
                "pitch": 37,
                "velocity": 32,
                "duration": 0.1340909,
                "tempo": 120.0
            },
            {
                "start_time": 6.675,
                "end_time": 6.8090909,
                "pitch": 37,
                "velocity": 32,
                "duration": 0.1340909,
                "tempo": 120.0
            },
            {
                "start_time": 6.8272727,
                "end_time": 6.9613636,
                "pitch": 49,
                "velocity": 32,
                "duration": 0.1340909,
                "tempo": 120.0
            },
            {
                "start_time": 6.9795455,
                "end_time": 7.1159091,
                "pitch": 37,
                "velocity": 32,
                "duration": 0.1363636,
                "tempo": 120.0
            },
            {
                "start_time": 7.1318182,
                "end_time": 7.2681818,
                "pitch": 35,
                "velocity": 32,
                "duration": 0.1363636,
                "tempo": 120.0
            },
            {
                "start_time": 7.2863636,
                "end_time": 7.4204545,
                "pitch": 35,
                "velocity": 32,
                "duration": 0.1340909,
                "tempo": 120.0
            },
            {
                "start_time": 7.4386364,
                "end_time": 7.5704545,
                "pitch": 47,
                "velocity": 32,
                "duration": 0.1318182,
                "tempo": 120.0
            },
            {
                "start_time": 7.5863636,
                "end_time": 7.7181818,
                "pitch": 35,
                "velocity": 32,
                "duration": 0.1318182,
                "tempo": 120.0
            },
            {
                "start_time": 7.7363636,
                "end_time": 7.8681818,
                "pitch": 35,
                "velocity": 32,
                "duration": 0.1318182,
                "tempo": 120.0
            },
            {
                "start_time": 7.8840909,
                "end_time": 8.0159091,
                "pitch": 47,
                "velocity": 32,
                "duration": 0.1318182,
                "tempo": 120.0
            },
            {
                "start_time": 8.0318182,
                "end_time": 8.1659091,
                "pitch": 35,
                "velocity": 32,
                "duration": 0.1340909,
                "tempo": 120.0
            },
            {
                "start_time": 8.1818182,
                "end_time": 8.3159091,
                "pitch": 35,
                "velocity": 32,
                "duration": 0.1340909,
                "tempo": 120.0
            },
            {
                "start_time": 8.3318182,
                "end_time": 8.4659091,
                "pitch": 35,
                "velocity": 32,
                "duration": 0.1340909,
                "tempo": 120.0
            },
            {
                "start_time": 8.4818182,
                "end_time": 8.6159091,
                "pitch": 35,
                "velocity": 32,
                "duration": 0.1340909,
                "tempo": 120.0
            },
            {
                "start_time": 8.6318182,
                "end_time": 8.7681818,
                "pitch": 35,
                "velocity": 32,
                "duration": 0.1363636,
                "tempo": 120.0
            },
            {
                "start_time": 8.7863636,
                "end_time": 8.9204545,
                "pitch": 47,
                "velocity": 32,
                "duration": 0.1340909,
                "tempo": 120.0
            },
            {
                "start_time": 8.9386364,
                "end_time": 8.9886364,
                "pitch": 35,
                "velocity": 32,
                "duration": 0.05,
                "tempo": 120.0
            },
            {
                "start_time": 9.0227273,
                "end_time": 9.075,
                "pitch": 35,
                "velocity": 32,
                "duration": 0.0522727,
                "tempo": 120.0
            },
            {
                "start_time": 9.0909091,
                "end_time": 9.2272727,
                "pitch": 35,
                "velocity": 32,
                "duration": 0.1363636,
                "tempo": 120.0
            },
            {
                "start_time": 9.2454545,
                "end_time": 9.3772727,
                "pitch": 47,
                "velocity": 32,
                "duration": 0.1318182,
                "tempo": 120.0
            },
            {
                "start_time": 9.3931818,
                "end_time": 9.525,
                "pitch": 35,
                "velocity": 32,
                "duration": 0.1318182,
                "tempo": 120.0
            },
            {
                "start_time": 9.5409091,
                "end_time": 9.6727273,
                "pitch": 37,
                "velocity": 32,
                "duration": 0.1318182,
                "tempo": 120.0
            },
            {
                "start_time": 9.6909091,
                "end_time": 9.8227273,
                "pitch": 37,
                "velocity": 32,
                "duration": 0.1318182,
                "tempo": 120.0
            },
            {
                "start_time": 9.8386364,
                "end_time": 9.9727273,
                "pitch": 49,
                "velocity": 32,
                "duration": 0.1340909,
                "tempo": 120.0
            },
            {
                "start_time": 9.9909091,
                "end_time": 10.125,
                "pitch": 37,
                "velocity": 32,
                "duration": 0.1340909,
                "tempo": 120.0
            },
            {
                "start_time": 10.1409091,
                "end_time": 10.2772727,
                "pitch": 37,
                "velocity": 32,
                "duration": 0.1363636,
                "tempo": 120.0
            },
            {
                "start_time": 10.2931818,
                "end_time": 10.4272727,
                "pitch": 49,
                "velocity": 32,
                "duration": 0.1340909,
                "tempo": 120.0
            },
            {
                "start_time": 10.4454545,
                "end_time": 10.5772727,
                "pitch": 37,
                "velocity": 32,
                "duration": 0.1318182,
                "tempo": 120.0
            },
            {
                "start_time": 10.5954545,
                "end_time": 10.7272727,
                "pitch": 37,
                "velocity": 32,
                "duration": 0.1318182,
                "tempo": 120.0
            },
            {
                "start_time": 10.7454545,
                "end_time": 10.8772727,
                "pitch": 49,
                "velocity": 32,
                "duration": 0.1318182,
                "tempo": 120.0
            },
            {
                "start_time": 10.8954545,
                "end_time": 11.0272727,
                "pitch": 37,
                "velocity": 32,
                "duration": 0.1318182,
                "tempo": 120.0
            },
            {
                "start_time": 11.0454545,
                "end_time": 11.1772727,
                "pitch": 37,
                "velocity": 32,
                "duration": 0.1318182,
                "tempo": 120.0
            },
            {
                "start_time": 11.1954545,
                "end_time": 11.3272727,
                "pitch": 49,
                "velocity": 32,
                "duration": 0.1318182,
                "tempo": 120.0
            },
            {
                "start_time": 11.3454545,
                "end_time": 11.4772727,
                "pitch": 37,
                "velocity": 32,
                "duration": 0.1318182,
                "tempo": 120.0
            },
            {
                "start_time": 11.4954545,
                "end_time": 11.6272727,
                "pitch": 37,
                "velocity": 32,
                "duration": 0.1318182,
                "tempo": 120.0
            },
            {
                "start_time": 11.6454545,
                "end_time": 11.7795455,
                "pitch": 49,
                "velocity": 32,
                "duration": 0.1340909,
                "tempo": 120.0
            },
            {
                "start_time": 11.7977273,
                "end_time": 11.9340909,
                "pitch": 37,
                "velocity": 32,
                "duration": 0.1363636,
                "tempo": 120.0
            },
            {
                "start_time": 11.95,
                "end_time": 12.0863636,
                "pitch": 35,
                "velocity": 32,
                "duration": 0.1363636,
                "tempo": 120.0
            },
            {
                "start_time": 12.1045455,
                "end_time": 12.2386364,
                "pitch": 35,
                "velocity": 32,
                "duration": 0.1340909,
                "tempo": 120.0
            },
            {
                "start_time": 12.2568182,
                "end_time": 12.3886364,
                "pitch": 47,
                "velocity": 32,
                "duration": 0.1318182,
                "tempo": 120.0
            },
            {
                "start_time": 12.4045455,
                "end_time": 12.5363636,
                "pitch": 35,
                "velocity": 32,
                "duration": 0.1318182,
                "tempo": 120.0
            },
            {
                "start_time": 12.5545455,
                "end_time": 12.6863636,
                "pitch": 35,
                "velocity": 32,
                "duration": 0.1318182,
                "tempo": 120.0
            },
            {
                "start_time": 12.7022727,
                "end_time": 12.8340909,
                "pitch": 47,
                "velocity": 32,
                "duration": 0.1318182,
                "tempo": 120.0
            },
            {
                "start_time": 12.85,
                "end_time": 12.9863636,
                "pitch": 35,
                "velocity": 32,
                "duration": 0.1363636,
                "tempo": 120.0
            },
            {
                "start_time": 13.0022727,
                "end_time": 13.1363636,
                "pitch": 35,
                "velocity": 32,
                "duration": 0.1340909,
                "tempo": 120.0
            },
            {
                "start_time": 13.1545455,
                "end_time": 13.2886364,
                "pitch": 47,
                "velocity": 32,
                "duration": 0.1340909,
                "tempo": 120.0
            },
            {
                "start_time": 13.3045455,
                "end_time": 13.4409091,
                "pitch": 35,
                "velocity": 32,
                "duration": 0.1363636,
                "tempo": 120.0
            },
            {
                "start_time": 13.4568182,
                "end_time": 13.5931818,
                "pitch": 35,
                "velocity": 32,
                "duration": 0.1363636,
                "tempo": 120.0
            },
            {
                "start_time": 13.6090909,
                "end_time": 13.8977273,
                "pitch": 47,
                "velocity": 32,
                "duration": 0.2886364,
                "tempo": 120.0
            },
            {
                "start_time": 13.9159091,
                "end_time": 14.0522727,
                "pitch": 47,
                "velocity": 32,
                "duration": 0.1363636,
                "tempo": 120.0
            },
            {
                "start_time": 14.0681818,
                "end_time": 14.2022727,
                "pitch": 47,
                "velocity": 32,
                "duration": 0.1340909,
                "tempo": 120.0
            },
            {
                "start_time": 14.2181818,
                "end_time": 14.3522727,
                "pitch": 47,
                "velocity": 32,
                "duration": 0.1340909,
                "tempo": 120.0
            },
            {
                "start_time": 14.3681818,
                "end_time": 14.5022727,
                "pitch": 33,
                "velocity": 32,
                "duration": 0.1340909,
                "tempo": 120.0
            },
            {
                "start_time": 14.5181818,
                "end_time": 14.6522727,
                "pitch": 33,
                "velocity": 32,
                "duration": 0.1340909,
                "tempo": 120.0
            },
            {
                "start_time": 14.6681818,
                "end_time": 14.8022727,
                "pitch": 33,
                "velocity": 32,
                "duration": 0.1340909,
                "tempo": 120.0
            },
            {
                "start_time": 14.8181818,
                "end_time": 14.9522727,
                "pitch": 33,
                "velocity": 32,
                "duration": 0.1340909,
                "tempo": 120.0
            },
            {
                "start_time": 14.9681818,
                "end_time": 15.1022727,
                "pitch": 33,
                "velocity": 32,
                "duration": 0.1340909,
                "tempo": 120.0
            },
            {
                "start_time": 15.1181818,
                "end_time": 15.2522727,
                "pitch": 33,
                "velocity": 32,
                "duration": 0.1340909,
                "tempo": 120.0
            },
            {
                "start_time": 15.2681818,
                "end_time": 15.4,
                "pitch": 45,
                "velocity": 32,
                "duration": 0.1318182,
                "tempo": 120.0
            },
            {
                "start_time": 15.4181818,
                "end_time": 15.55,
                "pitch": 33,
                "velocity": 32,
                "duration": 0.1318182,
                "tempo": 120.0
            },
            {
                "start_time": 15.5659091,
                "end_time": 15.6977273,
                "pitch": 35,
                "velocity": 32,
                "duration": 0.1318182,
                "tempo": 120.0
            },
            {
                "start_time": 15.7136364,
                "end_time": 15.8454545,
                "pitch": 35,
                "velocity": 32,
                "duration": 0.1318182,
                "tempo": 120.0
            },
            {
                "start_time": 15.8636364,
                "end_time": 16.0,
                "pitch": 35,
                "velocity": 32,
                "duration": 0.1363636,
                "tempo": 120.0
            },
            {
                "start_time": 16.0159091,
                "end_time": 16.1522727,
                "pitch": 35,
                "velocity": 32,
                "duration": 0.1363636,
                "tempo": 120.0
            },
            {
                "start_time": 16.1681818,
                "end_time": 16.3045455,
                "pitch": 35,
                "velocity": 32,
                "duration": 0.1363636,
                "tempo": 120.0
            },
            {
                "start_time": 16.3227273,
                "end_time": 16.4590909,
                "pitch": 40,
                "velocity": 32,
                "duration": 0.1363636,
                "tempo": 120.0
            },
            {
                "start_time": 16.475,
                "end_time": 16.6090909,
                "pitch": 42,
                "velocity": 32,
                "duration": 0.1340909,
                "tempo": 120.0
            },
            {
                "start_time": 16.625,
                "end_time": 16.7590909,
                "pitch": 44,
                "velocity": 32,
                "duration": 0.1340909,
                "tempo": 120.0
            },
            {
                "start_time": 16.775,
                "end_time": 16.9090909,
                "pitch": 37,
                "velocity": 32,
                "duration": 0.1340909,
                "tempo": 120.0
            },
            {
                "start_time": 16.925,
                "end_time": 17.0590909,
                "pitch": 37,
                "velocity": 32,
                "duration": 0.1340909,
                "tempo": 120.0
            },
            {
                "start_time": 17.075,
                "end_time": 17.2068182,
                "pitch": 49,
                "velocity": 32,
                "duration": 0.1318182,
                "tempo": 120.0
            },
            {
                "start_time": 17.2227273,
                "end_time": 17.3568182,
                "pitch": 37,
                "velocity": 32,
                "duration": 0.1340909,
                "tempo": 120.0
            },
            {
                "start_time": 17.3727273,
                "end_time": 17.5045455,
                "pitch": 37,
                "velocity": 32,
                "duration": 0.1318182,
                "tempo": 120.0
            },
            {
                "start_time": 17.5204545,
                "end_time": 17.6522727,
                "pitch": 49,
                "velocity": 32,
                "duration": 0.1318182,
                "tempo": 120.0
            },
            {
                "start_time": 17.6681818,
                "end_time": 17.8045455,
                "pitch": 37,
                "velocity": 32,
                "duration": 0.1363636,
                "tempo": 120.0
            },
            {
                "start_time": 17.8204545,
                "end_time": 17.9545455,
                "pitch": 37,
                "velocity": 32,
                "duration": 0.1340909,
                "tempo": 120.0
            },
            {
                "start_time": 17.9727273,
                "end_time": 18.2590909,
                "pitch": 37,
                "velocity": 32,
                "duration": 0.2863636,
                "tempo": 120.0
            },
            {
                "start_time": 18.5772727,
                "end_time": 18.8636364,
                "pitch": 33,
                "velocity": 32,
                "duration": 0.2863636,
                "tempo": 120.0
            },
            {
                "start_time": 18.8818182,
                "end_time": 19.1704545,
                "pitch": 35,
                "velocity": 32,
                "duration": 0.2886364,
                "tempo": 120.0
            },
            {
                "start_time": 19.1863636,
                "end_time": 19.3227273,
                "pitch": 37,
                "velocity": 32,
                "duration": 0.1363636,
                "tempo": 120.0
            },
            {
                "start_time": 19.3409091,
                "end_time": 19.4772727,
                "pitch": 37,
                "velocity": 32,
                "duration": 0.1363636,
                "tempo": 120.0
            },
            {
                "start_time": 19.4931818,
                "end_time": 19.6272727,
                "pitch": 49,
                "velocity": 32,
                "duration": 0.1340909,
                "tempo": 120.0
            },
            {
                "start_time": 19.6431818,
                "end_time": 19.7772727,
                "pitch": 37,
                "velocity": 32,
                "duration": 0.1340909,
                "tempo": 120.0
            },
            {
                "start_time": 19.7931818,
                "end_time": 19.9272727,
                "pitch": 37,
                "velocity": 32,
                "duration": 0.1340909,
                "tempo": 120.0
            },
            {
                "start_time": 19.9431818,
                "end_time": 20.0772727,
                "pitch": 49,
                "velocity": 32,
                "duration": 0.1340909,
                "tempo": 120.0
            },
            {
                "start_time": 20.0931818,
                "end_time": 20.225,
                "pitch": 37,
                "velocity": 32,
                "duration": 0.1318182,
                "tempo": 120.0
            },
            {
                "start_time": 20.2431818,
                "end_time": 20.375,
                "pitch": 37,
                "velocity": 32,
                "duration": 0.1318182,
                "tempo": 120.0
            },
            {
                "start_time": 20.3909091,
                "end_time": 20.5227273,
                "pitch": 49,
                "velocity": 32,
                "duration": 0.1318182,
                "tempo": 120.0
            },
            {
                "start_time": 20.5386364,
                "end_time": 20.6704545,
                "pitch": 37,
                "velocity": 32,
                "duration": 0.1318182,
                "tempo": 120.0
            },
            {
                "start_time": 20.6886364,
                "end_time": 20.8227273,
                "pitch": 37,
                "velocity": 32,
                "duration": 0.1340909,
                "tempo": 120.0
            },
            {
                "start_time": 20.8409091,
                "end_time": 20.9772727,
                "pitch": 49,
                "velocity": 32,
                "duration": 0.1363636,
                "tempo": 120.0
            },
            {
                "start_time": 20.9931818,
                "end_time": 21.1295455,
                "pitch": 37,
                "velocity": 32,
                "duration": 0.1363636,
                "tempo": 120.0
            },
            {
                "start_time": 21.1477273,
                "end_time": 21.2818182,
                "pitch": 37,
                "velocity": 32,
                "duration": 0.1340909,
                "tempo": 120.0
            },
            {
                "start_time": 21.3,
                "end_time": 21.4318182,
                "pitch": 49,
                "velocity": 32,
                "duration": 0.1318182,
                "tempo": 120.0
            },
            {
                "start_time": 21.4477273,
                "end_time": 21.5795455,
                "pitch": 37,
                "velocity": 32,
                "duration": 0.1318182,
                "tempo": 120.0
            },
            {
                "start_time": 21.5977273,
                "end_time": 21.7295455,
                "pitch": 35,
                "velocity": 32,
                "duration": 0.1318182,
                "tempo": 120.0
            },
            {
                "start_time": 21.7454545,
                "end_time": 21.8772727,
                "pitch": 35,
                "velocity": 32,
                "duration": 0.1318182,
                "tempo": 120.0
            },
            {
                "start_time": 21.8931818,
                "end_time": 22.0272727,
                "pitch": 47,
                "velocity": 32,
                "duration": 0.1340909,
                "tempo": 120.0
            },
            {
                "start_time": 22.0431818,
                "end_time": 22.1772727,
                "pitch": 35,
                "velocity": 32,
                "duration": 0.1340909,
                "tempo": 120.0
            },
            {
                "start_time": 22.1931818,
                "end_time": 22.3272727,
                "pitch": 35,
                "velocity": 32,
                "duration": 0.1340909,
                "tempo": 120.0
            },
            {
                "start_time": 22.3431818,
                "end_time": 22.4772727,
                "pitch": 47,
                "velocity": 32,
                "duration": 0.1340909,
                "tempo": 120.0
            },
            {
                "start_time": 22.4931818,
                "end_time": 22.6295455,
                "pitch": 35,
                "velocity": 32,
                "duration": 0.1363636,
                "tempo": 120.0
            },
            {
                "start_time": 22.6454545,
                "end_time": 22.7795455,
                "pitch": 35,
                "velocity": 32,
                "duration": 0.1340909,
                "tempo": 120.0
            },
            {
                "start_time": 22.7977273,
                "end_time": 22.9318182,
                "pitch": 35,
                "velocity": 32,
                "duration": 0.1340909,
                "tempo": 120.0
            },
            {
                "start_time": 22.9477273,
                "end_time": 23.2363636,
                "pitch": 33,
                "velocity": 32,
                "duration": 0.2886364,
                "tempo": 120.0
            },
            {
                "start_time": 23.2522727,
                "end_time": 23.5409091,
                "pitch": 33,
                "velocity": 32,
                "duration": 0.2886364,
                "tempo": 120.0
            },
            {
                "start_time": 23.5590909,
                "end_time": 23.6954545,
                "pitch": 33,
                "velocity": 32,
                "duration": 0.1363636,
                "tempo": 120.0
            },
            {
                "start_time": 23.7113636,
                "end_time": 23.9977273,
                "pitch": 35,
                "velocity": 32,
                "duration": 0.2863636,
                "tempo": 120.0
            },
            {
                "start_time": 24.0159091,
                "end_time": 24.15,
                "pitch": 37,
                "velocity": 32,
                "duration": 0.1340909,
                "tempo": 120.0
            },
            {
                "start_time": 24.1659091,
                "end_time": 24.3022727,
                "pitch": 37,
                "velocity": 32,
                "duration": 0.1363636,
                "tempo": 120.0
            },
            {
                "start_time": 24.3181818,
                "end_time": 24.45,
                "pitch": 49,
                "velocity": 32,
                "duration": 0.1318182,
                "tempo": 120.0
            },
            {
                "start_time": 24.4659091,
                "end_time": 24.5977273,
                "pitch": 37,
                "velocity": 32,
                "duration": 0.1318182,
                "tempo": 120.0
            },
            {
                "start_time": 24.6159091,
                "end_time": 24.7477273,
                "pitch": 37,
                "velocity": 32,
                "duration": 0.1318182,
                "tempo": 120.0
            },
            {
                "start_time": 24.7636364,
                "end_time": 24.8954545,
                "pitch": 49,
                "velocity": 32,
                "duration": 0.1318182,
                "tempo": 120.0
            },
            {
                "start_time": 24.9113636,
                "end_time": 25.0454545,
                "pitch": 37,
                "velocity": 32,
                "duration": 0.1340909,
                "tempo": 120.0
            },
            {
                "start_time": 25.0613636,
                "end_time": 25.1954545,
                "pitch": 37,
                "velocity": 32,
                "duration": 0.1340909,
                "tempo": 120.0
            },
            {
                "start_time": 25.2113636,
                "end_time": 25.3454545,
                "pitch": 49,
                "velocity": 32,
                "duration": 0.1340909,
                "tempo": 120.0
            },
            {
                "start_time": 25.3613636,
                "end_time": 25.4954545,
                "pitch": 37,
                "velocity": 32,
                "duration": 0.1340909,
                "tempo": 120.0
            },
            {
                "start_time": 25.5113636,
                "end_time": 25.6477273,
                "pitch": 37,
                "velocity": 32,
                "duration": 0.1363636,
                "tempo": 120.0
            },
            {
                "start_time": 25.6636364,
                "end_time": 25.7977273,
                "pitch": 49,
                "velocity": 32,
                "duration": 0.1340909,
                "tempo": 120.0
            },
            {
                "start_time": 25.8159091,
                "end_time": 25.95,
                "pitch": 37,
                "velocity": 32,
                "duration": 0.1340909,
                "tempo": 120.0
            },
            {
                "start_time": 25.9659091,
                "end_time": 26.1022727,
                "pitch": 37,
                "velocity": 32,
                "duration": 0.1363636,
                "tempo": 120.0
            },
            {
                "start_time": 26.1181818,
                "end_time": 26.2522727,
                "pitch": 49,
                "velocity": 32,
                "duration": 0.1340909,
                "tempo": 120.0
            },
            {
                "start_time": 26.2681818,
                "end_time": 26.4022727,
                "pitch": 37,
                "velocity": 32,
                "duration": 0.1340909,
                "tempo": 120.0
            },
            {
                "start_time": 26.4181818,
                "end_time": 26.5522727,
                "pitch": 35,
                "velocity": 32,
                "duration": 0.1340909,
                "tempo": 120.0
            },
            {
                "start_time": 26.5681818,
                "end_time": 26.7022727,
                "pitch": 35,
                "velocity": 32,
                "duration": 0.1340909,
                "tempo": 120.0
            },
            {
                "start_time": 26.7181818,
                "end_time": 26.8522727,
                "pitch": 47,
                "velocity": 32,
                "duration": 0.1340909,
                "tempo": 120.0
            },
            {
                "start_time": 26.8704545,
                "end_time": 27.0045455,
                "pitch": 35,
                "velocity": 32,
                "duration": 0.1340909,
                "tempo": 120.0
            },
            {
                "start_time": 27.0204545,
                "end_time": 27.1568182,
                "pitch": 35,
                "velocity": 32,
                "duration": 0.1363636,
                "tempo": 120.0
            },
            {
                "start_time": 27.1727273,
                "end_time": 27.3068182,
                "pitch": 47,
                "velocity": 32,
                "duration": 0.1340909,
                "tempo": 120.0
            },
            {
                "start_time": 27.325,
                "end_time": 27.4590909,
                "pitch": 35,
                "velocity": 32,
                "duration": 0.1340909,
                "tempo": 120.0
            },
            {
                "start_time": 27.475,
                "end_time": 27.6113636,
                "pitch": 35,
                "velocity": 32,
                "duration": 0.1363636,
                "tempo": 120.0
            },
            {
                "start_time": 27.6272727,
                "end_time": 27.7613636,
                "pitch": 35,
                "velocity": 32,
                "duration": 0.1340909,
                "tempo": 120.0
            },
            {
                "start_time": 27.7795455,
                "end_time": 27.9136364,
                "pitch": 35,
                "velocity": 32,
                "duration": 0.1340909,
                "tempo": 120.0
            },
            {
                "start_time": 27.9295455,
                "end_time": 28.0659091,
                "pitch": 35,
                "velocity": 32,
                "duration": 0.1363636,
                "tempo": 120.0
            },
            {
                "start_time": 28.0840909,
                "end_time": 28.2204545,
                "pitch": 47,
                "velocity": 32,
                "duration": 0.1363636,
                "tempo": 120.0
            },
            {
                "start_time": 28.2363636,
                "end_time": 28.2886364,
                "pitch": 35,
                "velocity": 32,
                "duration": 0.0522727,
                "tempo": 120.0
            },
            {
                "start_time": 28.3204545,
                "end_time": 28.3727273,
                "pitch": 35,
                "velocity": 32,
                "duration": 0.0522727,
                "tempo": 120.0
            },
            {
                "start_time": 28.3886364,
                "end_time": 28.525,
                "pitch": 35,
                "velocity": 32,
                "duration": 0.1363636,
                "tempo": 120.0
            },
            {
                "start_time": 28.5431818,
                "end_time": 28.675,
                "pitch": 47,
                "velocity": 32,
                "duration": 0.1318182,
                "tempo": 120.0
            },
            {
                "start_time": 28.6931818,
                "end_time": 28.825,
                "pitch": 35,
                "velocity": 32,
                "duration": 0.1318182,
                "tempo": 120.0
            },
            {
                "start_time": 28.8431818,
                "end_time": 28.975,
                "pitch": 37,
                "velocity": 32,
                "duration": 0.1318182,
                "tempo": 120.0
            },
            {
                "start_time": 28.9931818,
                "end_time": 29.125,
                "pitch": 37,
                "velocity": 32,
                "duration": 0.1318182,
                "tempo": 120.0
            },
            {
                "start_time": 29.1431818,
                "end_time": 29.275,
                "pitch": 49,
                "velocity": 32,
                "duration": 0.1318182,
                "tempo": 120.0
            },
            {
                "start_time": 29.2909091,
                "end_time": 29.4227273,
                "pitch": 37,
                "velocity": 32,
                "duration": 0.1318182,
                "tempo": 120.0
            },
            {
                "start_time": 29.4386364,
                "end_time": 29.5727273,
                "pitch": 37,
                "velocity": 32,
                "duration": 0.1340909,
                "tempo": 120.0
            },
            {
                "start_time": 29.5886364,
                "end_time": 29.7204545,
                "pitch": 49,
                "velocity": 32,
                "duration": 0.1318182,
                "tempo": 120.0
            },
            {
                "start_time": 29.7363636,
                "end_time": 29.8704545,
                "pitch": 37,
                "velocity": 32,
                "duration": 0.1340909,
                "tempo": 120.0
            },
            {
                "start_time": 29.8886364,
                "end_time": 30.0227273,
                "pitch": 37,
                "velocity": 32,
                "duration": 0.1340909,
                "tempo": 120.0
            },
            {
                "start_time": 30.0409091,
                "end_time": 30.175,
                "pitch": 49,
                "velocity": 32,
                "duration": 0.1340909,
                "tempo": 120.0
            },
            {
                "start_time": 30.1909091,
                "end_time": 30.325,
                "pitch": 37,
                "velocity": 32,
                "duration": 0.1340909,
                "tempo": 120.0
            },
            {
                "start_time": 30.3431818,
                "end_time": 30.4772727,
                "pitch": 37,
                "velocity": 32,
                "duration": 0.1340909,
                "tempo": 120.0
            },
            {
                "start_time": 30.4954545,
                "end_time": 30.6295455,
                "pitch": 49,
                "velocity": 32,
                "duration": 0.1340909,
                "tempo": 120.0
            },
            {
                "start_time": 30.6454545,
                "end_time": 30.7795455,
                "pitch": 37,
                "velocity": 32,
                "duration": 0.1340909,
                "tempo": 120.0
            },
            {
                "start_time": 30.7977273,
                "end_time": 30.9318182,
                "pitch": 37,
                "velocity": 32,
                "duration": 0.1340909,
                "tempo": 120.0
            },
            {
                "start_time": 30.95,
                "end_time": 31.0818182,
                "pitch": 49,
                "velocity": 32,
                "duration": 0.1318182,
                "tempo": 120.0
            },
            {
                "start_time": 31.1,
                "end_time": 31.2318182,
                "pitch": 37,
                "velocity": 32,
                "duration": 0.1318182,
                "tempo": 120.0
            },
            {
                "start_time": 31.25,
                "end_time": 31.3818182,
                "pitch": 35,
                "velocity": 32,
                "duration": 0.1318182,
                "tempo": 120.0
            },
            {
                "start_time": 31.4,
                "end_time": 31.5318182,
                "pitch": 35,
                "velocity": 32,
                "duration": 0.1318182,
                "tempo": 120.0
            },
            {
                "start_time": 31.55,
                "end_time": 31.6840909,
                "pitch": 47,
                "velocity": 32,
                "duration": 0.1340909,
                "tempo": 120.0
            },
            {
                "start_time": 31.7022727,
                "end_time": 31.8386364,
                "pitch": 35,
                "velocity": 32,
                "duration": 0.1363636,
                "tempo": 120.0
            },
            {
                "start_time": 31.8545455,
                "end_time": 31.9909091,
                "pitch": 35,
                "velocity": 32,
                "duration": 0.1363636,
                "tempo": 120.0
            },
            {
                "start_time": 32.0090909,
                "end_time": 32.1431818,
                "pitch": 47,
                "velocity": 32,
                "duration": 0.1340909,
                "tempo": 120.0
            },
            {
                "start_time": 32.1613636,
                "end_time": 32.2931818,
                "pitch": 35,
                "velocity": 32,
                "duration": 0.1318182,
                "tempo": 120.0
            },
            {
                "start_time": 32.3090909,
                "end_time": 32.4409091,
                "pitch": 35,
                "velocity": 32,
                "duration": 0.1318182,
                "tempo": 120.0
            },
            {
                "start_time": 32.4590909,
                "end_time": 32.5909091,
                "pitch": 47,
                "velocity": 32,
                "duration": 0.1318182,
                "tempo": 120.0
            },
            {
                "start_time": 32.6068182,
                "end_time": 32.7386364,
                "pitch": 35,
                "velocity": 32,
                "duration": 0.1318182,
                "tempo": 120.0
            },
            {
                "start_time": 32.7545455,
                "end_time": 32.8909091,
                "pitch": 35,
                "velocity": 32,
                "duration": 0.1363636,
                "tempo": 120.0
            },
            {
                "start_time": 32.9068182,
                "end_time": 33.1977273,
                "pitch": 47,
                "velocity": 32,
                "duration": 0.2909091,
                "tempo": 120.0
            },
            {
                "start_time": 33.2136364,
                "end_time": 33.35,
                "pitch": 47,
                "velocity": 32,
                "duration": 0.1363636,
                "tempo": 120.0
            },
            {
                "start_time": 33.3659091,
                "end_time": 33.5022727,
                "pitch": 47,
                "velocity": 32,
                "duration": 0.1363636,
                "tempo": 120.0
            },
            {
                "start_time": 33.5181818,
                "end_time": 33.6522727,
                "pitch": 47,
                "velocity": 32,
                "duration": 0.1340909,
                "tempo": 120.0
            },
            {
                "start_time": 33.6704545,
                "end_time": 33.8045455,
                "pitch": 33,
                "velocity": 32,
                "duration": 0.1340909,
                "tempo": 120.0
            },
            {
                "start_time": 33.8227273,
                "end_time": 33.9568182,
                "pitch": 33,
                "velocity": 32,
                "duration": 0.1340909,
                "tempo": 120.0
            },
            {
                "start_time": 33.9727273,
                "end_time": 34.1068182,
                "pitch": 33,
                "velocity": 32,
                "duration": 0.1340909,
                "tempo": 120.0
            },
            {
                "start_time": 34.125,
                "end_time": 34.2590909,
                "pitch": 33,
                "velocity": 32,
                "duration": 0.1340909,
                "tempo": 120.0
            },
            {
                "start_time": 34.2772727,
                "end_time": 34.4113636,
                "pitch": 33,
                "velocity": 32,
                "duration": 0.1340909,
                "tempo": 120.0
            },
            {
                "start_time": 34.4272727,
                "end_time": 34.5613636,
                "pitch": 33,
                "velocity": 32,
                "duration": 0.1340909,
                "tempo": 120.0
            },
            {
                "start_time": 34.5795455,
                "end_time": 34.7136364,
                "pitch": 45,
                "velocity": 32,
                "duration": 0.1340909,
                "tempo": 120.0
            },
            {
                "start_time": 34.7318182,
                "end_time": 34.8659091,
                "pitch": 33,
                "velocity": 32,
                "duration": 0.1340909,
                "tempo": 120.0
            },
            {
                "start_time": 34.8818182,
                "end_time": 35.0159091,
                "pitch": 35,
                "velocity": 32,
                "duration": 0.1340909,
                "tempo": 120.0
            },
            {
                "start_time": 35.0340909,
                "end_time": 35.1681818,
                "pitch": 35,
                "velocity": 32,
                "duration": 0.1340909,
                "tempo": 120.0
            },
            {
                "start_time": 35.1840909,
                "end_time": 35.3181818,
                "pitch": 35,
                "velocity": 32,
                "duration": 0.1340909,
                "tempo": 120.0
            },
            {
                "start_time": 35.3340909,
                "end_time": 35.4659091,
                "pitch": 35,
                "velocity": 32,
                "duration": 0.1318182,
                "tempo": 120.0
            },
            {
                "start_time": 35.4818182,
                "end_time": 35.6136364,
                "pitch": 35,
                "velocity": 32,
                "duration": 0.1318182,
                "tempo": 120.0
            },
            {
                "start_time": 35.6318182,
                "end_time": 35.7636364,
                "pitch": 40,
                "velocity": 32,
                "duration": 0.1318182,
                "tempo": 120.0
            },
            {
                "start_time": 35.7795455,
                "end_time": 35.9159091,
                "pitch": 42,
                "velocity": 32,
                "duration": 0.1363636,
                "tempo": 120.0
            },
            {
                "start_time": 35.9318182,
                "end_time": 36.0681818,
                "pitch": 44,
                "velocity": 32,
                "duration": 0.1363636,
                "tempo": 120.0
            },
            {
                "start_time": 36.0840909,
                "end_time": 36.2204545,
                "pitch": 37,
                "velocity": 32,
                "duration": 0.1363636,
                "tempo": 120.0
            },
            {
                "start_time": 36.2386364,
                "end_time": 36.375,
                "pitch": 37,
                "velocity": 32,
                "duration": 0.1363636,
                "tempo": 120.0
            },
            {
                "start_time": 36.3909091,
                "end_time": 36.5227273,
                "pitch": 49,
                "velocity": 32,
                "duration": 0.1318182,
                "tempo": 120.0
            },
            {
                "start_time": 36.5386364,
                "end_time": 36.6727273,
                "pitch": 37,
                "velocity": 32,
                "duration": 0.1340909,
                "tempo": 120.0
            },
            {
                "start_time": 36.6886364,
                "end_time": 36.8204545,
                "pitch": 37,
                "velocity": 32,
                "duration": 0.1318182,
                "tempo": 120.0
            },
            {
                "start_time": 36.8363636,
                "end_time": 36.9681818,
                "pitch": 49,
                "velocity": 32,
                "duration": 0.1318182,
                "tempo": 120.0
            },
            {
                "start_time": 36.9863636,
                "end_time": 37.1204545,
                "pitch": 37,
                "velocity": 32,
                "duration": 0.1340909,
                "tempo": 120.0
            },
            {
                "start_time": 37.1386364,
                "end_time": 37.275,
                "pitch": 37,
                "velocity": 32,
                "duration": 0.1363636,
                "tempo": 120.0
            },
            {
                "start_time": 37.2909091,
                "end_time": 37.5795455,
                "pitch": 37,
                "velocity": 32,
                "duration": 0.2886364,
                "tempo": 120.0
            },
            {
                "start_time": 37.8931818,
                "end_time": 38.175,
                "pitch": 33,
                "velocity": 32,
                "duration": 0.2818182,
                "tempo": 120.0
            },
            {
                "start_time": 38.1909091,
                "end_time": 38.4772727,
                "pitch": 35,
                "velocity": 32,
                "duration": 0.2863636,
                "tempo": 120.0
            },
            {
                "start_time": 38.4954545,
                "end_time": 38.6295455,
                "pitch": 37,
                "velocity": 32,
                "duration": 0.1340909,
                "tempo": 120.0
            },
            {
                "start_time": 38.6454545,
                "end_time": 38.7795455,
                "pitch": 37,
                "velocity": 32,
                "duration": 0.1340909,
                "tempo": 120.0
            }
        ],
        "Oboe": [
            {
                "start_time": 0.0,
                "end_time": 0.1772727,
                "pitch": 65,
                "velocity": 25,
                "duration": 0.1772727,
                "tempo": 120.0
            },
            {
                "start_time": 0.1886364,
                "end_time": 0.6272727,
                "pitch": 73,
                "velocity": 25,
                "duration": 0.4386364,
                "tempo": 120.0
            },
            {
                "start_time": 0.6431818,
                "end_time": 0.9272727,
                "pitch": 75,
                "velocity": 25,
                "duration": 0.2840909,
                "tempo": 120.0
            },
            {
                "start_time": 0.9431818,
                "end_time": 1.075,
                "pitch": 73,
                "velocity": 25,
                "duration": 0.1318182,
                "tempo": 120.0
            },
            {
                "start_time": 1.0931818,
                "end_time": 1.525,
                "pitch": 77,
                "velocity": 25,
                "duration": 0.4318182,
                "tempo": 120.0
            },
            {
                "start_time": 1.5431818,
                "end_time": 1.9840909,
                "pitch": 75,
                "velocity": 25,
                "duration": 0.4409091,
                "tempo": 120.0
            },
            {
                "start_time": 2.0022727,
                "end_time": 2.2886364,
                "pitch": 73,
                "velocity": 25,
                "duration": 0.2863636,
                "tempo": 120.0
            },
            {
                "start_time": 2.3045455,
                "end_time": 2.7431818,
                "pitch": 71,
                "velocity": 25,
                "duration": 0.4386364,
                "tempo": 120.0
            },
            {
                "start_time": 2.7590909,
                "end_time": 3.6477273,
                "pitch": 71,
                "velocity": 25,
                "duration": 0.8886364,
                "tempo": 120.0
            },
            {
                "start_time": 3.6636364,
                "end_time": 3.95,
                "pitch": 69,
                "velocity": 25,
                "duration": 0.2863636,
                "tempo": 120.0
            },
            {
                "start_time": 3.9659091,
                "end_time": 4.2568182,
                "pitch": 69,
                "velocity": 25,
                "duration": 0.2909091,
                "tempo": 120.0
            },
            {
                "start_time": 4.2727273,
                "end_time": 4.4090909,
                "pitch": 69,
                "velocity": 25,
                "duration": 0.1363636,
                "tempo": 120.0
            },
            {
                "start_time": 4.425,
                "end_time": 4.7068182,
                "pitch": 71,
                "velocity": 25,
                "duration": 0.2818182,
                "tempo": 120.0
            },
            {
                "start_time": 4.7227273,
                "end_time": 5.0045455,
                "pitch": 65,
                "velocity": 25,
                "duration": 0.2818182,
                "tempo": 120.0
            },
            {
                "start_time": 5.0204545,
                "end_time": 5.4522727,
                "pitch": 73,
                "velocity": 25,
                "duration": 0.4318182,
                "tempo": 120.0
            },
            {
                "start_time": 5.4704545,
                "end_time": 5.7522727,
                "pitch": 75,
                "velocity": 25,
                "duration": 0.2818182,
                "tempo": 120.0
            },
            {
                "start_time": 5.7704545,
                "end_time": 5.9022727,
                "pitch": 73,
                "velocity": 25,
                "duration": 0.1318182,
                "tempo": 120.0
            },
            {
                "start_time": 5.9204545,
                "end_time": 6.3545455,
                "pitch": 77,
                "velocity": 25,
                "duration": 0.4340909,
                "tempo": 120.0
            },
            {
                "start_time": 6.3727273,
                "end_time": 6.8090909,
                "pitch": 75,
                "velocity": 25,
                "duration": 0.4363636,
                "tempo": 120.0
            },
            {
                "start_time": 6.8272727,
                "end_time": 7.1159091,
                "pitch": 73,
                "velocity": 25,
                "duration": 0.2886364,
                "tempo": 120.0
            },
            {
                "start_time": 7.1318182,
                "end_time": 7.5704545,
                "pitch": 71,
                "velocity": 25,
                "duration": 0.4386364,
                "tempo": 120.0
            },
            {
                "start_time": 7.5863636,
                "end_time": 8.3159091,
                "pitch": 71,
                "velocity": 25,
                "duration": 0.7295455,
                "tempo": 120.0
            },
            {
                "start_time": 8.3318182,
                "end_time": 8.7681818,
                "pitch": 80,
                "velocity": 25,
                "duration": 0.4363636,
                "tempo": 120.0
            },
            {
                "start_time": 8.7863636,
                "end_time": 9.4431818,
                "pitch": 78,
                "velocity": 25,
                "duration": 0.6568182,
                "tempo": 120.0
            },
            {
                "start_time": 9.5409091,
                "end_time": 9.8227273,
                "pitch": 65,
                "velocity": 25,
                "duration": 0.2818182,
                "tempo": 120.0
            },
            {
                "start_time": 9.8386364,
                "end_time": 10.2772727,
                "pitch": 73,
                "velocity": 25,
                "duration": 0.4386364,
                "tempo": 120.0
            },
            {
                "start_time": 10.2931818,
                "end_time": 10.5772727,
                "pitch": 75,
                "velocity": 25,
                "duration": 0.2840909,
                "tempo": 120.0
            },
            {
                "start_time": 10.5954545,
                "end_time": 10.7272727,
                "pitch": 73,
                "velocity": 25,
                "duration": 0.1318182,
                "tempo": 120.0
            },
            {
                "start_time": 10.7454545,
                "end_time": 11.1772727,
                "pitch": 77,
                "velocity": 25,
                "duration": 0.4318182,
                "tempo": 120.0
            },
            {
                "start_time": 11.1954545,
                "end_time": 11.6272727,
                "pitch": 75,
                "velocity": 25,
                "duration": 0.4318182,
                "tempo": 120.0
            },
            {
                "start_time": 11.6454545,
                "end_time": 11.9340909,
                "pitch": 73,
                "velocity": 25,
                "duration": 0.2886364,
                "tempo": 120.0
            },
            {
                "start_time": 11.95,
                "end_time": 12.3886364,
                "pitch": 71,
                "velocity": 25,
                "duration": 0.4386364,
                "tempo": 120.0
            },
            {
                "start_time": 12.4045455,
                "end_time": 13.3045455,
                "pitch": 71,
                "velocity": 25,
                "duration": 0.9,
                "tempo": 120.0
            },
            {
                "start_time": 14.3681818,
                "end_time": 14.8022727,
                "pitch": 73,
                "velocity": 25,
                "duration": 0.4340909,
                "tempo": 120.0
            },
            {
                "start_time": 14.8181818,
                "end_time": 15.55,
                "pitch": 76,
                "velocity": 25,
                "duration": 0.7318182,
                "tempo": 120.0
            },
            {
                "start_time": 15.5659091,
                "end_time": 16.1522727,
                "pitch": 75,
                "velocity": 25,
                "duration": 0.5863636,
                "tempo": 120.0
            },
            {
                "start_time": 16.1681818,
                "end_time": 16.7590909,
                "pitch": 78,
                "velocity": 25,
                "duration": 0.5909091,
                "tempo": 120.0
            },
            {
                "start_time": 16.775,
                "end_time": 18.0227273,
                "pitch": 77,
                "velocity": 25,
                "duration": 1.2477273,
                "tempo": 120.0
            },
            {
                "start_time": 18.5772727,
                "end_time": 18.8636364,
                "pitch": 73,
                "velocity": 25,
                "duration": 0.2863636,
                "tempo": 120.0
            },
            {
                "start_time": 18.8818182,
                "end_time": 19.1704545,
                "pitch": 75,
                "velocity": 25,
                "duration": 0.2886364,
                "tempo": 120.0
            },
            {
                "start_time": 19.1863636,
                "end_time": 19.2204545,
                "pitch": 73,
                "velocity": 25,
                "duration": 0.0340909,
                "tempo": 120.0
            },
            {
                "start_time": 20.2431818,
                "end_time": 20.5227273,
                "pitch": 80,
                "velocity": 25,
                "duration": 0.2795455,
                "tempo": 120.0
            },
            {
                "start_time": 20.5386364,
                "end_time": 20.6704545,
                "pitch": 85,
                "velocity": 25,
                "duration": 0.1318182,
                "tempo": 120.0
            },
            {
                "start_time": 20.6886364,
                "end_time": 20.8227273,
                "pitch": 83,
                "velocity": 25,
                "duration": 0.1340909,
                "tempo": 120.0
            },
            {
                "start_time": 20.8409091,
                "end_time": 20.9772727,
                "pitch": 90,
                "velocity": 25,
                "duration": 0.1363636,
                "tempo": 120.0
            },
            {
                "start_time": 20.9931818,
                "end_time": 21.1295455,
                "pitch": 89,
                "velocity": 25,
                "duration": 0.1363636,
                "tempo": 120.0
            },
            {
                "start_time": 21.1477273,
                "end_time": 21.4318182,
                "pitch": 85,
                "velocity": 25,
                "duration": 0.2840909,
                "tempo": 120.0
            },
            {
                "start_time": 21.4477273,
                "end_time": 22.9318182,
                "pitch": 85,
                "velocity": 25,
                "duration": 1.4840909,
                "tempo": 120.0
            },
            {
                "start_time": 22.9477273,
                "end_time": 23.2363636,
                "pitch": 85,
                "velocity": 25,
                "duration": 0.2886364,
                "tempo": 120.0
            },
            {
                "start_time": 23.2522727,
                "end_time": 23.5409091,
                "pitch": 85,
                "velocity": 25,
                "duration": 0.2886364,
                "tempo": 120.0
            },
            {
                "start_time": 23.5590909,
                "end_time": 23.6954545,
                "pitch": 85,
                "velocity": 25,
                "duration": 0.1363636,
                "tempo": 120.0
            },
            {
                "start_time": 23.7113636,
                "end_time": 23.9477273,
                "pitch": 87,
                "velocity": 25,
                "duration": 0.2363636,
                "tempo": 120.0
            },
            {
                "start_time": 25.0613636,
                "end_time": 25.1954545,
                "pitch": 80,
                "velocity": 25,
                "duration": 0.1340909,
                "tempo": 120.0
            },
            {
                "start_time": 25.2113636,
                "end_time": 25.3454545,
                "pitch": 85,
                "velocity": 25,
                "duration": 0.1340909,
                "tempo": 120.0
            },
            {
                "start_time": 25.3613636,
                "end_time": 25.4954545,
                "pitch": 83,
                "velocity": 25,
                "duration": 0.1340909,
                "tempo": 120.0
            },
            {
                "start_time": 25.5113636,
                "end_time": 25.6477273,
                "pitch": 90,
                "velocity": 25,
                "duration": 0.1363636,
                "tempo": 120.0
            },
            {
                "start_time": 25.6636364,
                "end_time": 25.95,
                "pitch": 89,
                "velocity": 25,
                "duration": 0.2863636,
                "tempo": 120.0
            },
            {
                "start_time": 25.9659091,
                "end_time": 26.1022727,
                "pitch": 80,
                "velocity": 25,
                "duration": 0.1363636,
                "tempo": 120.0
            },
            {
                "start_time": 26.1181818,
                "end_time": 26.2522727,
                "pitch": 85,
                "velocity": 25,
                "duration": 0.1340909,
                "tempo": 120.0
            },
            {
                "start_time": 26.2681818,
                "end_time": 26.4022727,
                "pitch": 83,
                "velocity": 25,
                "duration": 0.1340909,
                "tempo": 120.0
            },
            {
                "start_time": 26.4181818,
                "end_time": 26.5522727,
                "pitch": 90,
                "velocity": 25,
                "duration": 0.1340909,
                "tempo": 120.0
            },
            {
                "start_time": 26.5681818,
                "end_time": 26.8522727,
                "pitch": 89,
                "velocity": 25,
                "duration": 0.2840909,
                "tempo": 120.0
            },
            {
                "start_time": 26.8704545,
                "end_time": 27.1568182,
                "pitch": 89,
                "velocity": 25,
                "duration": 0.2863636,
                "tempo": 120.0
            },
            {
                "start_time": 27.1727273,
                "end_time": 27.4590909,
                "pitch": 87,
                "velocity": 25,
                "duration": 0.2863636,
                "tempo": 120.0
            },
            {
                "start_time": 27.475,
                "end_time": 28.3727273,
                "pitch": 85,
                "velocity": 25,
                "duration": 0.8977273,
                "tempo": 120.0
            },
            {
                "start_time": 28.3886364,
                "end_time": 28.525,
                "pitch": 85,
                "velocity": 25,
                "duration": 0.1363636,
                "tempo": 120.0
            },
            {
                "start_time": 28.5431818,
                "end_time": 28.675,
                "pitch": 85,
                "velocity": 25,
                "duration": 0.1318182,
                "tempo": 120.0
            },
            {
                "start_time": 28.6931818,
                "end_time": 28.775,
                "pitch": 83,
                "velocity": 25,
                "duration": 0.0818182,
                "tempo": 120.0
            },
            {
                "start_time": 29.2909091,
                "end_time": 29.4227273,
                "pitch": 80,
                "velocity": 25,
                "duration": 0.1318182,
                "tempo": 120.0
            },
            {
                "start_time": 29.4386364,
                "end_time": 29.5727273,
                "pitch": 85,
                "velocity": 25,
                "duration": 0.1340909,
                "tempo": 120.0
            },
            {
                "start_time": 29.5886364,
                "end_time": 29.7204545,
                "pitch": 83,
                "velocity": 25,
                "duration": 0.1318182,
                "tempo": 120.0
            },
            {
                "start_time": 29.7363636,
                "end_time": 29.8704545,
                "pitch": 90,
                "velocity": 25,
                "duration": 0.1340909,
                "tempo": 120.0
            },
            {
                "start_time": 29.8886364,
                "end_time": 29.9227273,
                "pitch": 89,
                "velocity": 25,
                "duration": 0.0340909,
                "tempo": 120.0
            },
            {
                "start_time": 30.4954545,
                "end_time": 30.6295455,
                "pitch": 80,
                "velocity": 25,
                "duration": 0.1340909,
                "tempo": 120.0
            },
            {
                "start_time": 30.6454545,
                "end_time": 30.7795455,
                "pitch": 85,
                "velocity": 25,
                "duration": 0.1340909,
                "tempo": 120.0
            },
            {
                "start_time": 30.7977273,
                "end_time": 30.9318182,
                "pitch": 83,
                "velocity": 25,
                "duration": 0.1340909,
                "tempo": 120.0
            },
            {
                "start_time": 30.95,
                "end_time": 31.0818182,
                "pitch": 90,
                "velocity": 25,
                "duration": 0.1318182,
                "tempo": 120.0
            },
            {
                "start_time": 31.1,
                "end_time": 31.1818182,
                "pitch": 89,
                "velocity": 25,
                "duration": 0.0818182,
                "tempo": 120.0
            },
            {
                "start_time": 31.7022727,
                "end_time": 31.8386364,
                "pitch": 85,
                "velocity": 25,
                "duration": 0.1363636,
                "tempo": 120.0
            },
            {
                "start_time": 31.8545455,
                "end_time": 31.9909091,
                "pitch": 83,
                "velocity": 25,
                "duration": 0.1363636,
                "tempo": 120.0
            },
            {
                "start_time": 32.0090909,
                "end_time": 32.1431818,
                "pitch": 80,
                "velocity": 25,
                "duration": 0.1340909,
                "tempo": 120.0
            },
            {
                "start_time": 32.1613636,
                "end_time": 32.2931818,
                "pitch": 90,
                "velocity": 25,
                "duration": 0.1318182,
                "tempo": 120.0
            },
            {
                "start_time": 32.3090909,
                "end_time": 32.5909091,
                "pitch": 89,
                "velocity": 25,
                "duration": 0.2818182,
                "tempo": 120.0
            },
            {
                "start_time": 32.6068182,
                "end_time": 32.7386364,
                "pitch": 85,
                "velocity": 25,
                "duration": 0.1318182,
                "tempo": 120.0
            },
            {
                "start_time": 32.7545455,
                "end_time": 32.8909091,
                "pitch": 83,
                "velocity": 25,
                "duration": 0.1363636,
                "tempo": 120.0
            },
            {
                "start_time": 32.9068182,
                "end_time": 33.1977273,
                "pitch": 85,
                "velocity": 25,
                "duration": 0.2909091,
                "tempo": 120.0
            },
            {
                "start_time": 33.2136364,
                "end_time": 33.4522727,
                "pitch": 80,
                "velocity": 25,
                "duration": 0.2386364,
                "tempo": 120.0
            },
            {
                "start_time": 33.8227273,
                "end_time": 33.9568182,
                "pitch": 80,
                "velocity": 25,
                "duration": 0.1340909,
                "tempo": 120.0
            },
            {
                "start_time": 33.9727273,
                "end_time": 34.1068182,
                "pitch": 85,
                "velocity": 25,
                "duration": 0.1340909,
                "tempo": 120.0
            },
            {
                "start_time": 34.125,
                "end_time": 34.2590909,
                "pitch": 83,
                "velocity": 25,
                "duration": 0.1340909,
                "tempo": 120.0
            },
            {
                "start_time": 34.2772727,
                "end_time": 34.8659091,
                "pitch": 90,
                "velocity": 25,
                "duration": 0.5886364,
                "tempo": 120.0
            },
            {
                "start_time": 34.8818182,
                "end_time": 35.4659091,
                "pitch": 90,
                "velocity": 25,
                "duration": 0.5840909,
                "tempo": 120.0
            },
            {
                "start_time": 35.4818182,
                "end_time": 36.0681818,
                "pitch": 83,
                "velocity": 25,
                "duration": 0.5863636,
                "tempo": 120.0
            },
            {
                "start_time": 36.0840909,
                "end_time": 37.275,
                "pitch": 92,
                "velocity": 25,
                "duration": 1.1909091,
                "tempo": 120.0
            },
            {
                "start_time": 38.4954545,
                "end_time": 38.7795455,
                "pitch": 65,
                "velocity": 25,
                "duration": 0.2840909,
                "tempo": 120.0
            }
        ],
        "Church Organ": [
            {
                "start_time": 0.0,
                "end_time": 0.0113636,
                "pitch": 60,
                "velocity": 25,
                "duration": 0.0113636,
                "tempo": 120.0
            },
            {
                "start_time": 0.0227273,
                "end_time": 0.1772727,
                "pitch": 61,
                "velocity": 25,
                "duration": 0.1545455,
                "tempo": 120.0
            },
            {
                "start_time": 0.1772727,
                "end_time": 0.2227273,
                "pitch": 61,
                "velocity": 25,
                "duration": 0.0454545,
                "tempo": 120.0
            },
            {
                "start_time": 0.2409091,
                "end_time": 0.6772727,
                "pitch": 77,
                "velocity": 25,
                "duration": 0.4363636,
                "tempo": 120.0
            },
            {
                "start_time": 0.6954545,
                "end_time": 0.9772727,
                "pitch": 78,
                "velocity": 25,
                "duration": 0.2818182,
                "tempo": 120.0
            },
            {
                "start_time": 0.9931818,
                "end_time": 1.125,
                "pitch": 77,
                "velocity": 25,
                "duration": 0.1318182,
                "tempo": 120.0
            },
            {
                "start_time": 1.1431818,
                "end_time": 1.5772727,
                "pitch": 80,
                "velocity": 25,
                "duration": 0.4340909,
                "tempo": 120.0
            },
            {
                "start_time": 1.5931818,
                "end_time": 2.0363636,
                "pitch": 78,
                "velocity": 25,
                "duration": 0.4431818,
                "tempo": 120.0
            },
            {
                "start_time": 2.0522727,
                "end_time": 2.3386364,
                "pitch": 77,
                "velocity": 25,
                "duration": 0.2863636,
                "tempo": 120.0
            },
            {
                "start_time": 2.3545455,
                "end_time": 2.4068182,
                "pitch": 75,
                "velocity": 25,
                "duration": 0.0522727,
                "tempo": 120.0
            },
            {
                "start_time": 2.8090909,
                "end_time": 3.6977273,
                "pitch": 75,
                "velocity": 25,
                "duration": 0.8886364,
                "tempo": 120.0
            },
            {
                "start_time": 3.7136364,
                "end_time": 4.0,
                "pitch": 73,
                "velocity": 25,
                "duration": 0.2863636,
                "tempo": 120.0
            },
            {
                "start_time": 4.0181818,
                "end_time": 4.3068182,
                "pitch": 73,
                "velocity": 25,
                "duration": 0.2886364,
                "tempo": 120.0
            },
            {
                "start_time": 4.325,
                "end_time": 4.4590909,
                "pitch": 73,
                "velocity": 25,
                "duration": 0.1340909,
                "tempo": 120.0
            },
            {
                "start_time": 4.475,
                "end_time": 4.6568182,
                "pitch": 75,
                "velocity": 25,
                "duration": 0.1818182,
                "tempo": 120.0
            },
            {
                "start_time": 5.0704545,
                "end_time": 5.1704545,
                "pitch": 77,
                "velocity": 25,
                "duration": 0.1,
                "tempo": 120.0
            },
            {
                "start_time": 5.5204545,
                "end_time": 5.8022727,
                "pitch": 78,
                "velocity": 25,
                "duration": 0.2818182,
                "tempo": 120.0
            },
            {
                "start_time": 5.8204545,
                "end_time": 5.9522727,
                "pitch": 77,
                "velocity": 25,
                "duration": 0.1318182,
                "tempo": 120.0
            },
            {
                "start_time": 5.9704545,
                "end_time": 6.1022727,
                "pitch": 80,
                "velocity": 25,
                "duration": 0.1318182,
                "tempo": 120.0
            },
            {
                "start_time": 6.4227273,
                "end_time": 6.8590909,
                "pitch": 78,
                "velocity": 25,
                "duration": 0.4363636,
                "tempo": 120.0
            },
            {
                "start_time": 6.8772727,
                "end_time": 7.1659091,
                "pitch": 77,
                "velocity": 25,
                "duration": 0.2886364,
                "tempo": 120.0
            },
            {
                "start_time": 7.1840909,
                "end_time": 7.6204545,
                "pitch": 83,
                "velocity": 25,
                "duration": 0.4363636,
                "tempo": 120.0
            },
            {
                "start_time": 7.6363636,
                "end_time": 8.3659091,
                "pitch": 83,
                "velocity": 25,
                "duration": 0.7295455,
                "tempo": 120.0
            },
            {
                "start_time": 8.3818182,
                "end_time": 8.8181818,
                "pitch": 87,
                "velocity": 25,
                "duration": 0.4363636,
                "tempo": 120.0
            },
            {
                "start_time": 8.8363636,
                "end_time": 9.575,
                "pitch": 83,
                "velocity": 25,
                "duration": 0.7386364,
                "tempo": 120.0
            },
            {
                "start_time": 9.5909091,
                "end_time": 9.8727273,
                "pitch": 61,
                "velocity": 25,
                "duration": 0.2818182,
                "tempo": 120.0
            },
            {
                "start_time": 9.8886364,
                "end_time": 10.3272727,
                "pitch": 77,
                "velocity": 25,
                "duration": 0.4386364,
                "tempo": 120.0
            },
            {
                "start_time": 10.3431818,
                "end_time": 10.6272727,
                "pitch": 78,
                "velocity": 25,
                "duration": 0.2840909,
                "tempo": 120.0
            },
            {
                "start_time": 10.6454545,
                "end_time": 10.7772727,
                "pitch": 77,
                "velocity": 25,
                "duration": 0.1318182,
                "tempo": 120.0
            },
            {
                "start_time": 10.7954545,
                "end_time": 11.2272727,
                "pitch": 80,
                "velocity": 25,
                "duration": 0.4318182,
                "tempo": 120.0
            },
            {
                "start_time": 11.2454545,
                "end_time": 11.6772727,
                "pitch": 78,
                "velocity": 25,
                "duration": 0.4318182,
                "tempo": 120.0
            },
            {
                "start_time": 11.6954545,
                "end_time": 11.9840909,
                "pitch": 77,
                "velocity": 25,
                "duration": 0.2886364,
                "tempo": 120.0
            },
            {
                "start_time": 12.0022727,
                "end_time": 12.0522727,
                "pitch": 75,
                "velocity": 25,
                "duration": 0.05,
                "tempo": 120.0
            },
            {
                "start_time": 13.2045455,
                "end_time": 13.6431818,
                "pitch": 78,
                "velocity": 25,
                "duration": 0.4386364,
                "tempo": 120.0
            },
            {
                "start_time": 13.6613636,
                "end_time": 14.1022727,
                "pitch": 77,
                "velocity": 25,
                "duration": 0.4409091,
                "tempo": 120.0
            },
            {
                "start_time": 14.1181818,
                "end_time": 14.4022727,
                "pitch": 75,
                "velocity": 25,
                "duration": 0.2840909,
                "tempo": 120.0
            },
            {
                "start_time": 14.4181818,
                "end_time": 14.8522727,
                "pitch": 76,
                "velocity": 25,
                "duration": 0.4340909,
                "tempo": 120.0
            },
            {
                "start_time": 14.8681818,
                "end_time": 15.6,
                "pitch": 80,
                "velocity": 25,
                "duration": 0.7318182,
                "tempo": 120.0
            },
            {
                "start_time": 15.6159091,
                "end_time": 16.2022727,
                "pitch": 78,
                "velocity": 25,
                "duration": 0.5863636,
                "tempo": 120.0
            },
            {
                "start_time": 16.2204545,
                "end_time": 16.8090909,
                "pitch": 81,
                "velocity": 25,
                "duration": 0.5886364,
                "tempo": 120.0
            },
            {
                "start_time": 16.825,
                "end_time": 18.0727273,
                "pitch": 80,
                "velocity": 25,
                "duration": 1.2477273,
                "tempo": 120.0
            },
            {
                "start_time": 18.6295455,
                "end_time": 18.9159091,
                "pitch": 76,
                "velocity": 25,
                "duration": 0.2863636,
                "tempo": 120.0
            },
            {
                "start_time": 18.9318182,
                "end_time": 19.2204545,
                "pitch": 78,
                "velocity": 25,
                "duration": 0.2886364,
                "tempo": 120.0
            },
            {
                "start_time": 19.2386364,
                "end_time": 19.375,
                "pitch": 80,
                "velocity": 25,
                "duration": 0.1363636,
                "tempo": 120.0
            },
            {
                "start_time": 19.3909091,
                "end_time": 19.5272727,
                "pitch": 80,
                "velocity": 25,
                "duration": 0.1363636,
                "tempo": 120.0
            },
            {
                "start_time": 19.5431818,
                "end_time": 19.6772727,
                "pitch": 85,
                "velocity": 25,
                "duration": 0.1340909,
                "tempo": 120.0
            },
            {
                "start_time": 19.6931818,
                "end_time": 19.8272727,
                "pitch": 83,
                "velocity": 25,
                "duration": 0.1340909,
                "tempo": 120.0
            },
            {
                "start_time": 19.8431818,
                "end_time": 19.9772727,
                "pitch": 90,
                "velocity": 25,
                "duration": 0.1340909,
                "tempo": 120.0
            },
            {
                "start_time": 19.9931818,
                "end_time": 20.275,
                "pitch": 89,
                "velocity": 25,
                "duration": 0.2818182,
                "tempo": 120.0
            },
            {
                "start_time": 20.2909091,
                "end_time": 21.3318182,
                "pitch": 85,
                "velocity": 25,
                "duration": 1.0409091,
                "tempo": 120.0
            },
            {
                "start_time": 21.35,
                "end_time": 21.4818182,
                "pitch": 83,
                "velocity": 25,
                "duration": 0.1318182,
                "tempo": 120.0
            },
            {
                "start_time": 21.4977273,
                "end_time": 21.6295455,
                "pitch": 85,
                "velocity": 25,
                "duration": 0.1318182,
                "tempo": 120.0
            },
            {
                "start_time": 21.6454545,
                "end_time": 22.0772727,
                "pitch": 87,
                "velocity": 25,
                "duration": 0.4318182,
                "tempo": 120.0
            },
            {
                "start_time": 22.0931818,
                "end_time": 23.4909091,
                "pitch": 83,
                "velocity": 25,
                "duration": 1.3977273,
                "tempo": 120.0
            },
            {
                "start_time": 24.3681818,
                "end_time": 24.5,
                "pitch": 80,
                "velocity": 25,
                "duration": 0.1318182,
                "tempo": 120.0
            },
            {
                "start_time": 24.5159091,
                "end_time": 24.6477273,
                "pitch": 83,
                "velocity": 25,
                "duration": 0.1318182,
                "tempo": 120.0
            },
            {
                "start_time": 24.6636364,
                "end_time": 24.7977273,
                "pitch": 85,
                "velocity": 25,
                "duration": 0.1340909,
                "tempo": 120.0
            },
            {
                "start_time": 24.8136364,
                "end_time": 25.0954545,
                "pitch": 83,
                "velocity": 25,
                "duration": 0.2818182,
                "tempo": 120.0
            },
            {
                "start_time": 25.1113636,
                "end_time": 25.3954545,
                "pitch": 90,
                "velocity": 25,
                "duration": 0.2840909,
                "tempo": 120.0
            },
            {
                "start_time": 25.4113636,
                "end_time": 26.0,
                "pitch": 89,
                "velocity": 25,
                "duration": 0.5886364,
                "tempo": 120.0
            },
            {
                "start_time": 26.0181818,
                "end_time": 26.4522727,
                "pitch": 89,
                "velocity": 25,
                "duration": 0.4340909,
                "tempo": 120.0
            },
            {
                "start_time": 26.4681818,
                "end_time": 26.9045455,
                "pitch": 92,
                "velocity": 25,
                "duration": 0.4363636,
                "tempo": 120.0
            },
            {
                "start_time": 26.9204545,
                "end_time": 27.8136364,
                "pitch": 90,
                "velocity": 25,
                "duration": 0.8931818,
                "tempo": 120.0
            },
            {
                "start_time": 27.8295455,
                "end_time": 27.9636364,
                "pitch": 83,
                "velocity": 25,
                "duration": 0.1340909,
                "tempo": 120.0
            },
            {
                "start_time": 27.9818182,
                "end_time": 28.1181818,
                "pitch": 85,
                "velocity": 25,
                "duration": 0.1363636,
                "tempo": 120.0
            },
            {
                "start_time": 28.1340909,
                "end_time": 28.875,
                "pitch": 80,
                "velocity": 25,
                "duration": 0.7409091,
                "tempo": 120.0
            },
            {
                "start_time": 28.8931818,
                "end_time": 28.9431818,
                "pitch": 90,
                "velocity": 25,
                "duration": 0.05,
                "tempo": 120.0
            },
            {
                "start_time": 28.975,
                "end_time": 29.025,
                "pitch": 89,
                "velocity": 25,
                "duration": 0.05,
                "tempo": 120.0
            },
            {
                "start_time": 29.0431818,
                "end_time": 29.175,
                "pitch": 87,
                "velocity": 25,
                "duration": 0.1318182,
                "tempo": 120.0
            },
            {
                "start_time": 29.1931818,
                "end_time": 29.325,
                "pitch": 85,
                "velocity": 25,
                "duration": 0.1318182,
                "tempo": 120.0
            },
            {
                "start_time": 29.3409091,
                "end_time": 29.3909091,
                "pitch": 87,
                "velocity": 25,
                "duration": 0.05,
                "tempo": 120.0
            },
            {
                "start_time": 29.4227273,
                "end_time": 29.5386364,
                "pitch": 87,
                "velocity": 25,
                "duration": 0.1159091,
                "tempo": 120.0
            },
            {
                "start_time": 29.5727273,
                "end_time": 29.6863636,
                "pitch": 83,
                "velocity": 25,
                "duration": 0.1136364,
                "tempo": 120.0
            },
            {
                "start_time": 29.7204545,
                "end_time": 29.7704545,
                "pitch": 85,
                "velocity": 25,
                "duration": 0.05,
                "tempo": 120.0
            },
            {
                "start_time": 29.7863636,
                "end_time": 29.9227273,
                "pitch": 85,
                "velocity": 25,
                "duration": 0.1363636,
                "tempo": 120.0
            },
            {
                "start_time": 29.9386364,
                "end_time": 30.0727273,
                "pitch": 80,
                "velocity": 25,
                "duration": 0.1340909,
                "tempo": 120.0
            },
            {
                "start_time": 30.0909091,
                "end_time": 30.5272727,
                "pitch": 83,
                "velocity": 25,
                "duration": 0.4363636,
                "tempo": 120.0
            },
            {
                "start_time": 30.5454545,
                "end_time": 30.9818182,
                "pitch": 78,
                "velocity": 25,
                "duration": 0.4363636,
                "tempo": 120.0
            },
            {
                "start_time": 31.0,
                "end_time": 31.4318182,
                "pitch": 80,
                "velocity": 25,
                "duration": 0.4318182,
                "tempo": 120.0
            },
            {
                "start_time": 31.45,
                "end_time": 31.5818182,
                "pitch": 73,
                "velocity": 25,
                "duration": 0.1318182,
                "tempo": 120.0
            },
            {
                "start_time": 31.6,
                "end_time": 31.7363636,
                "pitch": 71,
                "velocity": 25,
                "duration": 0.1363636,
                "tempo": 120.0
            },
            {
                "start_time": 31.7522727,
                "end_time": 31.8886364,
                "pitch": 73,
                "velocity": 25,
                "duration": 0.1363636,
                "tempo": 120.0
            },
            {
                "start_time": 31.9068182,
                "end_time": 32.0409091,
                "pitch": 75,
                "velocity": 25,
                "duration": 0.1340909,
                "tempo": 120.0
            },
            {
                "start_time": 32.0590909,
                "end_time": 32.3431818,
                "pitch": 73,
                "velocity": 25,
                "duration": 0.2840909,
                "tempo": 120.0
            },
            {
                "start_time": 32.3590909,
                "end_time": 32.6386364,
                "pitch": 78,
                "velocity": 25,
                "duration": 0.2795455,
                "tempo": 120.0
            },
            {
                "start_time": 32.6568182,
                "end_time": 32.7886364,
                "pitch": 77,
                "velocity": 25,
                "duration": 0.1318182,
                "tempo": 120.0
            },
            {
                "start_time": 32.8068182,
                "end_time": 33.1636364,
                "pitch": 73,
                "velocity": 25,
                "duration": 0.3568182,
                "tempo": 120.0
            },
            {
                "start_time": 33.8727273,
                "end_time": 33.9227273,
                "pitch": 83,
                "velocity": 25,
                "duration": 0.05,
                "tempo": 120.0
            },
            {
                "start_time": 33.9568182,
                "end_time": 34.0068182,
                "pitch": 85,
                "velocity": 25,
                "duration": 0.05,
                "tempo": 120.0
            },
            {
                "start_time": 34.0227273,
                "end_time": 34.1590909,
                "pitch": 80,
                "velocity": 25,
                "duration": 0.1363636,
                "tempo": 120.0
            },
            {
                "start_time": 34.175,
                "end_time": 34.3090909,
                "pitch": 80,
                "velocity": 25,
                "duration": 0.1340909,
                "tempo": 120.0
            },
            {
                "start_time": 34.3272727,
                "end_time": 34.4613636,
                "pitch": 83,
                "velocity": 25,
                "duration": 0.1340909,
                "tempo": 120.0
            },
            {
                "start_time": 34.4772727,
                "end_time": 34.7636364,
                "pitch": 85,
                "velocity": 25,
                "duration": 0.2863636,
                "tempo": 120.0
            },
            {
                "start_time": 34.7818182,
                "end_time": 35.5159091,
                "pitch": 90,
                "velocity": 25,
                "duration": 0.7340909,
                "tempo": 120.0
            },
            {
                "start_time": 35.5318182,
                "end_time": 36.1181818,
                "pitch": 92,
                "velocity": 25,
                "duration": 0.5863636,
                "tempo": 120.0
            },
            {
                "start_time": 36.1363636,
                "end_time": 37.325,
                "pitch": 89,
                "velocity": 25,
                "duration": 1.1886364,
                "tempo": 120.0
            },
            {
                "start_time": 38.5454545,
                "end_time": 38.7795455,
                "pitch": 61,
                "velocity": 25,
                "duration": 0.2340909,
                "tempo": 120.0
            }
        ]
    }
}