{
    "mood": "happy",
    "instruments": {
        "Synth Bass 1": [
            {
                "start_time": 0.4659091,
                "end_time": 0.6022727,
                "pitch": 60,
                "velocity": 80,
                "duration": 0.1363636,
                "tempo": 120.0
            },
            {
                "start_time": 1.2613636,
                "end_time": 1.3931818,
                "pitch": 60,
                "velocity": 80,
                "duration": 0.1318182,
                "tempo": 120.0
            },
            {
                "start_time": 1.5272727,
                "end_time": 1.6454545,
                "pitch": 67,
                "velocity": 80,
                "duration": 0.1181818,
                "tempo": 120.0
            },
            {
                "start_time": 2.3386364,
                "end_time": 2.4727273,
                "pitch": 67,
                "velocity": 80,
                "duration": 0.1340909,
                "tempo": 120.0
            },
            {
                "start_time": 2.6068182,
                "end_time": 2.7227273,
                "pitch": 65,
                "velocity": 80,
                "duration": 0.1159091,
                "tempo": 120.0
            },
            {
                "start_time": 3.4181818,
                "end_time": 3.55,
                "pitch": 65,
                "velocity": 80,
                "duration": 0.1318182,
                "tempo": 120.0
            },
            {
                "start_time": 3.6840909,
                "end_time": 3.8181818,
                "pitch": 67,
                "velocity": 80,
                "duration": 0.1340909,
                "tempo": 120.0
            },
            {
                "start_time": 4.4840909,
                "end_time": 4.6181818,
                "pitch": 67,
                "velocity": 80,
                "duration": 0.1340909,
                "tempo": 120.0
            },
            {
                "start_time": 4.7522727,
                "end_time": 4.8863636,
                "pitch": 60,
                "velocity": 80,
                "duration": 0.1340909,
                "tempo": 120.0
            },
            {
                "start_time": 5.5659091,
                "end_time": 5.6977273,
                "pitch": 60,
                "velocity": 80,
                "duration": 0.1318182,
                "tempo": 120.0
            },
            {
                "start_time": 5.8318182,
                "end_time": 5.9477273,
                "pitch": 67,
                "velocity": 80,
                "duration": 0.1159091,
                "tempo": 120.0
            },
            {
                "start_time": 6.6340909,
                "end_time": 6.7704545,
                "pitch": 67,
                "velocity": 80,
                "duration": 0.1363636,
                "tempo": 120.0
            },
            {
                "start_time": 6.9045455,
                "end_time": 7.025,
                "pitch": 65,
                "velocity": 80,
                "duration": 0.1204545,
                "tempo": 120.0
            },
            {
                "start_time": 7.7113636,
                "end_time": 7.8295455,
                "pitch": 65,
                "velocity": 80,
                "duration": 0.1181818,
                "tempo": 120.0
            },
            {
                "start_time": 7.9795455,
                "end_time": 8.1136364,
                "pitch": 60,
                "velocity": 80,
                "duration": 0.1340909,
                "tempo": 120.0
            },
            {
                "start_time": 8.2477273,
                "end_time": 8.3818182,
                "pitch": 55,
                "velocity": 80,
                "duration": 0.1340909,
                "tempo": 120.0
            },
            {
                "start_time": 8.5181818,
                "end_time": 8.6363636,
                "pitch": 57,
                "velocity": 80,
                "duration": 0.1181818,
                "tempo": 120.0
            },
            {
                "start_time": 8.7909091,
                "end_time": 8.9227273,
                "pitch": 59,
                "velocity": 80,
                "duration": 0.1318182,
                "tempo": 120.0
            },
            {
                "start_time": 9.0568182,
                "end_time": 9.1909091,
                "pitch": 60,
                "velocity": 80,
                "duration": 0.1340909,
                "tempo": 120.0
            },
            {
                "start_time": 9.8681818,
                "end_time": 10.0022727,
                "pitch": 60,
                "velocity": 80,
                "duration": 0.1340909,
                "tempo": 120.0
            },
            {
                "start_time": 10.1363636,
                "end_time": 10.2522727,
                "pitch": 67,
                "velocity": 80,
                "duration": 0.1159091,
                "tempo": 120.0
            },
            {
                "start_time": 10.9363636,
                "end_time": 11.0704545,
                "pitch": 67,
                "velocity": 80,
                "duration": 0.1340909,
                "tempo": 120.0
            },
            {
                "start_time": 11.2045455,
                "end_time": 11.3204545,
                "pitch": 65,
                "velocity": 80,
                "duration": 0.1159091,
                "tempo": 120.0
            },
            {
                "start_time": 12.0159091,
                "end_time": 12.15,
                "pitch": 65,
                "velocity": 80,
                "duration": 0.1340909,
                "tempo": 120.0
            },
            {
                "start_time": 12.2840909,
                "end_time": 12.4159091,
                "pitch": 67,
                "velocity": 80,
                "duration": 0.1318182,
                "tempo": 120.0
            },
            {
                "start_time": 13.0931818,
                "end_time": 13.225,
                "pitch": 67,
                "velocity": 80,
                "duration": 0.1318182,
                "tempo": 120.0
            },
            {
                "start_time": 13.3590909,
                "end_time": 13.4954545,
                "pitch": 60,
                "velocity": 80,
                "duration": 0.1363636,
                "tempo": 120.0
            },
            {
                "start_time": 14.1636364,
                "end_time": 14.2977273,
                "pitch": 60,
                "velocity": 80,
                "duration": 0.1340909,
                "tempo": 120.0
            },
            {
                "start_time": 14.4318182,
                "end_time": 14.5477273,
                "pitch": 67,
                "velocity": 80,
                "duration": 0.1159091,
                "tempo": 120.0
            },
            {
                "start_time": 15.2409091,
                "end_time": 15.375,
                "pitch": 67,
                "velocity": 80,
                "duration": 0.1340909,
                "tempo": 120.0
            },
            {
                "start_time": 15.5090909,
                "end_time": 15.625,
                "pitch": 65,
                "velocity": 80,
                "duration": 0.1159091,
                "tempo": 120.0
            },
            {
                "start_time": 16.3204545,
                "end_time": 16.4545455,
                "pitch": 65,
                "velocity": 80,
                "duration": 0.1340909,
                "tempo": 120.0
            },
            {
                "start_time": 16.5886364,
                "end_time": 16.8227273,
                "pitch": 60,
                "velocity": 80,
                "duration": 0.2340909,
                "tempo": 120.0
            },
            {
                "start_time": 17.025,
                "end_time": 17.2272727,
                "pitch": 59,
                "velocity": 80,
                "duration": 0.2022727,
                "tempo": 120.0
            },
            {
                "start_time": 17.4295455,
                "end_time": 17.5454545,
                "pitch": 55,
                "velocity": 80,
                "duration": 0.1159091,
                "tempo": 120.0
            },
            {
                "start_time": 18.3704545,
                "end_time": 18.4227273,
                "pitch": 55,
                "velocity": 80,
                "duration": 0.0522727,
                "tempo": 120.0
            },
            {
                "start_time": 18.5068182,
                "end_time": 18.6227273,
                "pitch": 55,
                "velocity": 80,
                "duration": 0.1159091,
                "tempo": 120.0
            },
            {
                "start_time": 19.4409091,
                "end_time": 19.4931818,
                "pitch": 55,
                "velocity": 80,
                "duration": 0.0522727,
                "tempo": 120.0
            },
            {
                "start_time": 19.575,
                "end_time": 19.7113636,
                "pitch": 57,
                "velocity": 80,
                "duration": 0.1363636,
                "tempo": 120.0
            },
            {
                "start_time": 20.5181818,
                "end_time": 20.5840909,
                "pitch": 57,
                "velocity": 80,
                "duration": 0.0659091,
                "tempo": 120.0
            },
            {
                "start_time": 20.6522727,
                "end_time": 20.7863636,
                "pitch": 57,
                "velocity": 80,
                "duration": 0.1340909,
                "tempo": 120.0
            },
            {
                "start_time": 21.5931818,
                "end_time": 21.6613636,
                "pitch": 57,
                "velocity": 80,
                "duration": 0.0681818,
                "tempo": 120.0
            },
            {
                "start_time": 21.7295455,
                "end_time": 21.8636364,
                "pitch": 55,
                "velocity": 80,
                "duration": 0.1340909,
                "tempo": 120.0
            },
            {
                "start_time": 22.6659091,
                "end_time": 22.7318182,
                "pitch": 55,
                "velocity": 80,
                "duration": 0.0659091,
                "tempo": 120.0
            },
            {
                "start_time": 22.8,
                "end_time": 22.9318182,
                "pitch": 55,
                "velocity": 80,
                "duration": 0.1318182,
                "tempo": 120.0
            },
            {
                "start_time": 23.7409091,
                "end_time": 23.8090909,
                "pitch": 55,
                "velocity": 80,
                "duration": 0.0681818,
                "tempo": 120.0
            },
            {
                "start_time": 23.8772727,
                "end_time": 24.0113636,
                "pitch": 57,
                "velocity": 80,
                "duration": 0.1340909,
                "tempo": 120.0
            },
            {
                "start_time": 24.8204545,
                "end_time": 24.8886364,
                "pitch": 57,
                "velocity": 80,
                "duration": 0.0681818,
                "tempo": 120.0
            },
            {
                "start_time": 24.9545455,
                "end_time": 25.0886364,
                "pitch": 57,
                "velocity": 80,
                "duration": 0.1340909,
                "tempo": 120.0
            },
            {
                "start_time": 25.8909091,
                "end_time": 25.9568182,
                "pitch": 57,
                "velocity": 80,
                "duration": 0.0659091,
                "tempo": 120.0
            },
            {
                "start_time": 26.025,
                "end_time": 26.1590909,
                "pitch": 55,
                "velocity": 80,
                "duration": 0.1340909,
                "tempo": 120.0
            },
            {
                "start_time": 26.9659091,
                "end_time": 27.0340909,
                "pitch": 55,
                "velocity": 80,
                "duration": 0.0681818,
                "tempo": 120.0
            },
            {
                "start_time": 27.1022727,
                "end_time": 27.2363636,
                "pitch": 55,
                "velocity": 80,
                "duration": 0.1340909,
                "tempo": 120.0
            },
            {
                "start_time": 28.0454545,
                "end_time": 28.1136364,
                "pitch": 55,
                "velocity": 80,
                "duration": 0.0681818,
                "tempo": 120.0
            },
            {
                "start_time": 28.1818182,
                "end_time": 28.3136364,
                "pitch": 57,
                "velocity": 80,
                "duration": 0.1318182,
                "tempo": 120.0
            },
            {
                "start_time": 29.1159091,
                "end_time": 29.1840909,
                "pitch": 57,
                "velocity": 80,
                "duration": 0.0681818,
                "tempo": 120.0
            },
            {
                "start_time": 29.25,
                "end_time": 29.3840909,
                "pitch": 57,
                "velocity": 80,
                "duration": 0.1340909,
                "tempo": 120.0
            },
            {
                "start_time": 30.1931818,
                "end_time": 30.2613636,
                "pitch": 57,
                "velocity": 80,
                "duration": 0.0681818,
                "tempo": 120.0
            },
            {
                "start_time": 30.3272727,
                "end_time": 30.4613636,
                "pitch": 53,
                "velocity": 80,
                "duration": 0.1340909,
                "tempo": 120.0
            },
            {
                "start_time": 31.1340909,
                "end_time": 31.2022727,
                "pitch": 53,
                "velocity": 80,
                "duration": 0.0681818,
                "tempo": 120.0
            },
            {
                "start_time": 31.2704545,
                "end_time": 31.3386364,
                "pitch": 53,
                "velocity": 80,
                "duration": 0.0681818,
                "tempo": 120.0
            },
            {
                "start_time": 31.4068182,
                "end_time": 31.5409091,
                "pitch": 55,
                "velocity": 80,
                "duration": 0.1340909,
                "tempo": 120.0
            },
            {
                "start_time": 32.2090909,
                "end_time": 32.275,
                "pitch": 55,
                "velocity": 80,
                "duration": 0.0659091,
                "tempo": 120.0
            },
            {
                "start_time": 32.3409091,
                "end_time": 32.4090909,
                "pitch": 55,
                "velocity": 80,
                "duration": 0.0681818,
                "tempo": 120.0
            },
            {
                "start_time": 32.475,
                "end_time": 32.6113636,
                "pitch": 60,
                "velocity": 80,
                "duration": 0.1363636,
                "tempo": 120.0
            },
            {
                "start_time": 33.0136364,
                "end_time": 33.15,
                "pitch": 55,
                "velocity": 80,
                "duration": 0.1363636,
                "tempo": 120.0
            },
            {
                "start_time": 33.5568182,
                "end_time": 33.6727273,
                "pitch": 60,
                "velocity": 80,
                "duration": 0.1159091,
                "tempo": 120.0
            },
            {
                "start_time": 33.825,
                "end_time": 33.9409091,
                "pitch": 55,
                "velocity": 80,
                "duration": 0.1159091,
                "tempo": 120.0
            },
            {
                "start_time": 34.0909091,
                "end_time": 34.2113636,
                "pitch": 57,
                "velocity": 80,
                "duration": 0.1204545,
                "tempo": 120.0
            },
            {
                "start_time": 34.3636364,
                "end_time": 34.5,
                "pitch": 59,
                "velocity": 80,
                "duration": 0.1363636,
                "tempo": 120.0
            }
        ],
        "Clarinet": [
            {
                "start_time": 0.0,
                "end_time": 0.1386364,
                "pitch": 84,
                "velocity": 51,
                "duration": 0.1386364,
                "tempo": 120.0
            },
            {
                "start_time": 0.2022727,
                "end_time": 0.4,
                "pitch": 86,
                "velocity": 51,
                "duration": 0.1977273,
                "tempo": 120.0
            },
            {
                "start_time": 0.4659091,
                "end_time": 0.8659091,
                "pitch": 88,
                "velocity": 51,
                "duration": 0.4,
                "tempo": 120.0
            },
            {
                "start_time": 0.9977273,
                "end_time": 1.1795455,
                "pitch": 86,
                "velocity": 51,
                "duration": 0.1818182,
                "tempo": 120.0
            },
            {
                "start_time": 1.2613636,
                "end_time": 1.4613636,
                "pitch": 84,
                "velocity": 51,
                "duration": 0.2,
                "tempo": 120.0
            },
            {
                "start_time": 1.5272727,
                "end_time": 1.7272727,
                "pitch": 86,
                "velocity": 51,
                "duration": 0.2,
                "tempo": 120.0
            },
            {
                "start_time": 1.7954545,
                "end_time": 2.2022727,
                "pitch": 79,
                "velocity": 51,
                "duration": 0.4068182,
                "tempo": 120.0
            },
            {
                "start_time": 2.3386364,
                "end_time": 2.5386364,
                "pitch": 91,
                "velocity": 51,
                "duration": 0.2,
                "tempo": 120.0
            },
            {
                "start_time": 2.6068182,
                "end_time": 2.8068182,
                "pitch": 89,
                "velocity": 51,
                "duration": 0.2,
                "tempo": 120.0
            },
            {
                "start_time": 2.8727273,
                "end_time": 3.0772727,
                "pitch": 88,
                "velocity": 51,
                "duration": 0.2045455,
                "tempo": 120.0
            },
            {
                "start_time": 3.1454545,
                "end_time": 3.3318182,
                "pitch": 86,
                "velocity": 51,
                "duration": 0.1863636,
                "tempo": 120.0
            },
            {
                "start_time": 3.4181818,
                "end_time": 3.8181818,
                "pitch": 88,
                "velocity": 51,
                "duration": 0.4,
                "tempo": 120.0
            },
            {
                "start_time": 3.9522727,
                "end_time": 4.1363636,
                "pitch": 86,
                "velocity": 51,
                "duration": 0.1840909,
                "tempo": 120.0
            },
            {
                "start_time": 4.2204545,
                "end_time": 4.4181818,
                "pitch": 84,
                "velocity": 51,
                "duration": 0.1977273,
                "tempo": 120.0
            },
            {
                "start_time": 4.4840909,
                "end_time": 4.6840909,
                "pitch": 86,
                "velocity": 51,
                "duration": 0.2,
                "tempo": 120.0
            },
            {
                "start_time": 4.7522727,
                "end_time": 5.1568182,
                "pitch": 88,
                "velocity": 51,
                "duration": 0.4045455,
                "tempo": 120.0
            },
            {
                "start_time": 5.2931818,
                "end_time": 5.4795455,
                "pitch": 86,
                "velocity": 51,
                "duration": 0.1863636,
                "tempo": 120.0
            },
            {
                "start_time": 5.5659091,
                "end_time": 5.7659091,
                "pitch": 84,
                "velocity": 51,
                "duration": 0.2,
                "tempo": 120.0
            },
            {
                "start_time": 5.8318182,
                "end_time": 6.0318182,
                "pitch": 86,
                "velocity": 51,
                "duration": 0.2,
                "tempo": 120.0
            },
            {
                "start_time": 6.1,
                "end_time": 6.5,
                "pitch": 79,
                "velocity": 51,
                "duration": 0.4,
                "tempo": 120.0
            },
            {
                "start_time": 6.6340909,
                "end_time": 6.8363636,
                "pitch": 89,
                "velocity": 51,
                "duration": 0.2022727,
                "tempo": 120.0
            },
            {
                "start_time": 6.9045455,
                "end_time": 7.1090909,
                "pitch": 89,
                "velocity": 51,
                "duration": 0.2045455,
                "tempo": 120.0
            },
            {
                "start_time": 7.1772727,
                "end_time": 7.3772727,
                "pitch": 88,
                "velocity": 51,
                "duration": 0.2,
                "tempo": 120.0
            },
            {
                "start_time": 7.4454545,
                "end_time": 7.6295455,
                "pitch": 86,
                "velocity": 51,
                "duration": 0.1840909,
                "tempo": 120.0
            },
            {
                "start_time": 7.7113636,
                "end_time": 8.5181818,
                "pitch": 84,
                "velocity": 51,
                "duration": 0.8068182,
                "tempo": 120.0
            },
            {
                "start_time": 8.7909091,
                "end_time": 8.8909091,
                "pitch": 84,
                "velocity": 51,
                "duration": 0.1,
                "tempo": 120.0
            },
            {
                "start_time": 8.9227273,
                "end_time": 9.025,
                "pitch": 86,
                "velocity": 51,
                "duration": 0.1022727,
                "tempo": 120.0
            },
            {
                "start_time": 9.0568182,
                "end_time": 9.4613636,
                "pitch": 88,
                "velocity": 51,
                "duration": 0.4045455,
                "tempo": 120.0
            },
            {
                "start_time": 9.5954545,
                "end_time": 9.7840909,
                "pitch": 86,
                "velocity": 51,
                "duration": 0.1886364,
                "tempo": 120.0
            },
            {
                "start_time": 9.8681818,
                "end_time": 10.0681818,
                "pitch": 84,
                "velocity": 51,
                "duration": 0.2,
                "tempo": 120.0
            },
            {
                "start_time": 10.1363636,
                "end_time": 10.3363636,
                "pitch": 86,
                "velocity": 51,
                "duration": 0.2,
                "tempo": 120.0
            },
            {
                "start_time": 10.4022727,
                "end_time": 10.8045455,
                "pitch": 79,
                "velocity": 51,
                "duration": 0.4022727,
                "tempo": 120.0
            },
            {
                "start_time": 10.9363636,
                "end_time": 11.1386364,
                "pitch": 91,
                "velocity": 51,
                "duration": 0.2022727,
                "tempo": 120.0
            },
            {
                "start_time": 11.2045455,
                "end_time": 11.4045455,
                "pitch": 89,
                "velocity": 51,
                "duration": 0.2,
                "tempo": 120.0
            },
            {
                "start_time": 11.4727273,
                "end_time": 11.675,
                "pitch": 88,
                "velocity": 51,
                "duration": 0.2022727,
                "tempo": 120.0
            },
            {
                "start_time": 11.7431818,
                "end_time": 11.9318182,
                "pitch": 86,
                "velocity": 51,
                "duration": 0.1886364,
                "tempo": 120.0
            },
            {
                "start_time": 12.0159091,
                "end_time": 12.4159091,
                "pitch": 88,
                "velocity": 51,
                "duration": 0.4,
                "tempo": 120.0
            },
            {
                "start_time": 12.55,
                "end_time": 12.7386364,
                "pitch": 86,
                "velocity": 51,
                "duration": 0.1886364,
                "tempo": 120.0
            },
            {
                "start_time": 12.8227273,
                "end_time": 13.025,
                "pitch": 84,
                "velocity": 51,
                "duration": 0.2022727,
                "tempo": 120.0
            },
            {
                "start_time": 13.0931818,
                "end_time": 13.2931818,
                "pitch": 86,
                "velocity": 51,
                "duration": 0.2,
                "tempo": 120.0
            },
            {
                "start_time": 13.3590909,
                "end_time": 13.7613636,
                "pitch": 88,
                "velocity": 51,
                "duration": 0.4022727,
                "tempo": 120.0
            },
            {
                "start_time": 13.8954545,
                "end_time": 14.0795455,
                "pitch": 86,
                "velocity": 51,
                "duration": 0.1840909,
                "tempo": 120.0
            },
            {
                "start_time": 14.1636364,
                "end_time": 14.3636364,
                "pitch": 84,
                "velocity": 51,
                "duration": 0.2,
                "tempo": 120.0
            },
            {
                "start_time": 14.4318182,
                "end_time": 14.6318182,
                "pitch": 86,
                "velocity": 51,
                "duration": 0.2,
                "tempo": 120.0
            },
            {
                "start_time": 14.6977273,
                "end_time": 15.1045455,
                "pitch": 79,
                "velocity": 51,
                "duration": 0.4068182,
                "tempo": 120.0
            },
            {
                "start_time": 15.2409091,
                "end_time": 15.4431818,
                "pitch": 91,
                "velocity": 51,
                "duration": 0.2022727,
                "tempo": 120.0
            },
            {
                "start_time": 15.5090909,
                "end_time": 15.7090909,
                "pitch": 91,
                "velocity": 51,
                "duration": 0.2,
                "tempo": 120.0
            },
            {
                "start_time": 15.775,
                "end_time": 15.9795455,
                "pitch": 89,
                "velocity": 51,
                "duration": 0.2045455,
                "tempo": 120.0
            },
            {
                "start_time": 16.0477273,
                "end_time": 16.2363636,
                "pitch": 86,
                "velocity": 51,
                "duration": 0.1886364,
                "tempo": 120.0
            },
            {
                "start_time": 16.3204545,
                "end_time": 17.3636364,
                "pitch": 84,
                "velocity": 51,
                "duration": 1.0431818,
                "tempo": 120.0
            },
            {
                "start_time": 17.4295455,
                "end_time": 17.6295455,
                "pitch": 83,
                "velocity": 51,
                "duration": 0.2,
                "tempo": 120.0
            },
            {
                "start_time": 17.6954545,
                "end_time": 17.8954545,
                "pitch": 86,
                "velocity": 51,
                "duration": 0.2,
                "tempo": 120.0
            },
            {
                "start_time": 17.9636364,
                "end_time": 18.15,
                "pitch": 91,
                "velocity": 51,
                "duration": 0.1863636,
                "tempo": 120.0
            },
            {
                "start_time": 18.2340909,
                "end_time": 18.4386364,
                "pitch": 83,
                "velocity": 51,
                "duration": 0.2045455,
                "tempo": 120.0
            },
            {
                "start_time": 18.5068182,
                "end_time": 18.7068182,
                "pitch": 86,
                "velocity": 51,
                "duration": 0.2,
                "tempo": 120.0
            },
            {
                "start_time": 18.775,
                "end_time": 18.975,
                "pitch": 91,
                "velocity": 51,
                "duration": 0.2,
                "tempo": 120.0
            },
            {
                "start_time": 19.0409091,
                "end_time": 19.225,
                "pitch": 89,
                "velocity": 51,
                "duration": 0.1840909,
                "tempo": 120.0
            },
            {
                "start_time": 19.3090909,
                "end_time": 19.5090909,
                "pitch": 86,
                "velocity": 51,
                "duration": 0.2,
                "tempo": 120.0
            },
            {
                "start_time": 19.575,
                "end_time": 19.6772727,
                "pitch": 88,
                "velocity": 51,
                "duration": 0.1022727,
                "tempo": 120.0
            },
            {
                "start_time": 19.7113636,
                "end_time": 19.8136364,
                "pitch": 86,
                "velocity": 51,
                "duration": 0.1022727,
                "tempo": 120.0
            },
            {
                "start_time": 19.8477273,
                "end_time": 19.95,
                "pitch": 88,
                "velocity": 51,
                "duration": 0.1022727,
                "tempo": 120.0
            },
            {
                "start_time": 19.9840909,
                "end_time": 20.0863636,
                "pitch": 86,
                "velocity": 51,
                "duration": 0.1022727,
                "tempo": 120.0
            },
            {
                "start_time": 20.1204545,
                "end_time": 20.3181818,
                "pitch": 88,
                "velocity": 51,
                "duration": 0.1977273,
                "tempo": 120.0
            },
            {
                "start_time": 20.3840909,
                "end_time": 20.5840909,
                "pitch": 86,
                "velocity": 51,
                "duration": 0.2,
                "tempo": 120.0
            },
            {
                "start_time": 20.6522727,
                "end_time": 20.8522727,
                "pitch": 88,
                "velocity": 51,
                "duration": 0.2,
                "tempo": 120.0
            },
            {
                "start_time": 20.9181818,
                "end_time": 21.1204545,
                "pitch": 86,
                "velocity": 51,
                "duration": 0.2022727,
                "tempo": 120.0
            },
            {
                "start_time": 21.1863636,
                "end_time": 21.3909091,
                "pitch": 84,
                "velocity": 51,
                "duration": 0.2045455,
                "tempo": 120.0
            },
            {
                "start_time": 21.4590909,
                "end_time": 21.6613636,
                "pitch": 86,
                "velocity": 51,
                "duration": 0.2022727,
                "tempo": 120.0
            },
            {
                "start_time": 21.7295455,
                "end_time": 21.9295455,
                "pitch": 83,
                "velocity": 51,
                "duration": 0.2,
                "tempo": 120.0
            },
            {
                "start_time": 21.9977273,
                "end_time": 22.1977273,
                "pitch": 86,
                "velocity": 51,
                "duration": 0.2,
                "tempo": 120.0
            },
            {
                "start_time": 22.2636364,
                "end_time": 22.4659091,
                "pitch": 91,
                "velocity": 51,
                "duration": 0.2022727,
                "tempo": 120.0
            },
            {
                "start_time": 22.5318182,
                "end_time": 22.7318182,
                "pitch": 83,
                "velocity": 51,
                "duration": 0.2,
                "tempo": 120.0
            },
            {
                "start_time": 22.8,
                "end_time": 23.0,
                "pitch": 86,
                "velocity": 51,
                "duration": 0.2,
                "tempo": 120.0
            },
            {
                "start_time": 23.0659091,
                "end_time": 23.2659091,
                "pitch": 91,
                "velocity": 51,
                "duration": 0.2,
                "tempo": 120.0
            },
            {
                "start_time": 23.3340909,
                "end_time": 23.5363636,
                "pitch": 89,
                "velocity": 51,
                "duration": 0.2022727,
                "tempo": 120.0
            },
            {
                "start_time": 23.6045455,
                "end_time": 23.8090909,
                "pitch": 86,
                "velocity": 51,
                "duration": 0.2045455,
                "tempo": 120.0
            },
            {
                "start_time": 23.8772727,
                "end_time": 24.2772727,
                "pitch": 88,
                "velocity": 51,
                "duration": 0.4,
                "tempo": 120.0
            },
            {
                "start_time": 24.4113636,
                "end_time": 24.8204545,
                "pitch": 93,
                "velocity": 51,
                "duration": 0.4090909,
                "tempo": 120.0
            },
            {
                "start_time": 24.9545455,
                "end_time": 25.3568182,
                "pitch": 88,
                "velocity": 51,
                "duration": 0.4022727,
                "tempo": 120.0
            },
            {
                "start_time": 25.4909091,
                "end_time": 25.6909091,
                "pitch": 96,
                "velocity": 51,
                "duration": 0.2,
                "tempo": 120.0
            },
            {
                "start_time": 25.7568182,
                "end_time": 25.9568182,
                "pitch": 95,
                "velocity": 51,
                "duration": 0.2,
                "tempo": 120.0
            },
            {
                "start_time": 26.025,
                "end_time": 26.225,
                "pitch": 83,
                "velocity": 51,
                "duration": 0.2,
                "tempo": 120.0
            },
            {
                "start_time": 26.2909091,
                "end_time": 26.4909091,
                "pitch": 86,
                "velocity": 51,
                "duration": 0.2,
                "tempo": 120.0
            },
            {
                "start_time": 26.5590909,
                "end_time": 26.7636364,
                "pitch": 91,
                "velocity": 51,
                "duration": 0.2045455,
                "tempo": 120.0
            },
            {
                "start_time": 26.8318182,
                "end_time": 27.0340909,
                "pitch": 83,
                "velocity": 51,
                "duration": 0.2022727,
                "tempo": 120.0
            },
            {
                "start_time": 27.1022727,
                "end_time": 27.3022727,
                "pitch": 86,
                "velocity": 51,
                "duration": 0.2,
                "tempo": 120.0
            },
            {
                "start_time": 27.3704545,
                "end_time": 27.5704545,
                "pitch": 91,
                "velocity": 51,
                "duration": 0.2,
                "tempo": 120.0
            },
            {
                "start_time": 27.6363636,
                "end_time": 27.8409091,
                "pitch": 89,
                "velocity": 51,
                "duration": 0.2045455,
                "tempo": 120.0
            },
            {
                "start_time": 27.9090909,
                "end_time": 28.1136364,
                "pitch": 86,
                "velocity": 51,
                "duration": 0.2045455,
                "tempo": 120.0
            },
            {
                "start_time": 28.1818182,
                "end_time": 28.2818182,
                "pitch": 88,
                "velocity": 51,
                "duration": 0.1,
                "tempo": 120.0
            },
            {
                "start_time": 28.3136364,
                "end_time": 28.4159091,
                "pitch": 86,
                "velocity": 51,
                "duration": 0.1022727,
                "tempo": 120.0
            },
            {
                "start_time": 28.4477273,
                "end_time": 28.5477273,
                "pitch": 88,
                "velocity": 51,
                "duration": 0.1,
                "tempo": 120.0
            },
            {
                "start_time": 28.5818182,
                "end_time": 28.6818182,
                "pitch": 86,
                "velocity": 51,
                "duration": 0.1,
                "tempo": 120.0
            },
            {
                "start_time": 28.7159091,
                "end_time": 28.9159091,
                "pitch": 88,
                "velocity": 51,
                "duration": 0.2,
                "tempo": 120.0
            },
            {
                "start_time": 28.9818182,
                "end_time": 29.1840909,
                "pitch": 86,
                "velocity": 51,
                "duration": 0.2022727,
                "tempo": 120.0
            },
            {
                "start_time": 29.25,
                "end_time": 29.45,
                "pitch": 88,
                "velocity": 51,
                "duration": 0.2,
                "tempo": 120.0
            },
            {
                "start_time": 29.5181818,
                "end_time": 29.7181818,
                "pitch": 86,
                "velocity": 51,
                "duration": 0.2,
                "tempo": 120.0
            },
            {
                "start_time": 29.7840909,
                "end_time": 29.9886364,
                "pitch": 84,
                "velocity": 51,
                "duration": 0.2045455,
                "tempo": 120.0
            },
            {
                "start_time": 30.0568182,
                "end_time": 30.2613636,
                "pitch": 86,
                "velocity": 51,
                "duration": 0.2045455,
                "tempo": 120.0
            },
            {
                "start_time": 30.3272727,
                "end_time": 30.4272727,
                "pitch": 89,
                "velocity": 51,
                "duration": 0.1,
                "tempo": 120.0
            },
            {
                "start_time": 30.4613636,
                "end_time": 30.5613636,
                "pitch": 88,
                "velocity": 51,
                "duration": 0.1,
                "tempo": 120.0
            },
            {
                "start_time": 30.5954545,
                "end_time": 30.6954545,
                "pitch": 89,
                "velocity": 51,
                "duration": 0.1,
                "tempo": 120.0
            },
            {
                "start_time": 30.7295455,
                "end_time": 30.8295455,
                "pitch": 88,
                "velocity": 51,
                "duration": 0.1,
                "tempo": 120.0
            },
            {
                "start_time": 30.8636364,
                "end_time": 31.0659091,
                "pitch": 89,
                "velocity": 51,
                "duration": 0.2022727,
                "tempo": 120.0
            },
            {
                "start_time": 31.1340909,
                "end_time": 31.3386364,
                "pitch": 84,
                "velocity": 51,
                "duration": 0.2045455,
                "tempo": 120.0
            },
            {
                "start_time": 31.4068182,
                "end_time": 31.8068182,
                "pitch": 83,
                "velocity": 51,
                "duration": 0.4,
                "tempo": 120.0
            },
            {
                "start_time": 31.9409091,
                "end_time": 32.3409091,
                "pitch": 86,
                "velocity": 51,
                "duration": 0.4,
                "tempo": 120.0
            },
            {
                "start_time": 32.475,
                "end_time": 33.6909091,
                "pitch": 84,
                "velocity": 51,
                "duration": 1.2159091,
                "tempo": 120.0
            },
            {
                "start_time": 34.3636364,
                "end_time": 34.4659091,
                "pitch": 84,
                "velocity": 51,
                "duration": 0.1022727,
                "tempo": 120.0
            },
            {
                "start_time": 34.5,
                "end_time": 34.6022727,
                "pitch": 86,
                "velocity": 51,
                "duration": 0.1022727,
                "tempo": 120.0
            }
        ],
        "Acoustic Guitar (nylon)": [
            {
                "start_time": 0.7340909,
                "end_time": 0.8,
                "pitch": 67,
                "velocity": 40,
                "duration": 0.0659091,
                "tempo": 120.0
            },
            {
                "start_time": 0.8659091,
                "end_time": 0.9318182,
                "pitch": 72,
                "velocity": 40,
                "duration": 0.0659091,
                "tempo": 120.0
            },
            {
                "start_time": 0.9977273,
                "end_time": 1.0636364,
                "pitch": 64,
                "velocity": 40,
                "duration": 0.0659091,
                "tempo": 120.0
            },
            {
                "start_time": 1.1295455,
                "end_time": 1.1954545,
                "pitch": 76,
                "velocity": 40,
                "duration": 0.0659091,
                "tempo": 120.0
            },
            {
                "start_time": 1.2613636,
                "end_time": 1.3272727,
                "pitch": 67,
                "velocity": 40,
                "duration": 0.0659091,
                "tempo": 120.0
            },
            {
                "start_time": 1.3931818,
                "end_time": 1.4613636,
                "pitch": 72,
                "velocity": 40,
                "duration": 0.0681818,
                "tempo": 120.0
            },
            {
                "start_time": 1.5272727,
                "end_time": 1.6613636,
                "pitch": 55,
                "velocity": 40,
                "duration": 0.1340909,
                "tempo": 120.0
            },
            {
                "start_time": 1.7954545,
                "end_time": 1.8636364,
                "pitch": 67,
                "velocity": 40,
                "duration": 0.0681818,
                "tempo": 120.0
            },
            {
                "start_time": 1.9318182,
                "end_time": 1.9977273,
                "pitch": 71,
                "velocity": 40,
                "duration": 0.0659091,
                "tempo": 120.0
            },
            {
                "start_time": 2.0659091,
                "end_time": 2.1340909,
                "pitch": 59,
                "velocity": 40,
                "duration": 0.0681818,
                "tempo": 120.0
            },
            {
                "start_time": 2.2022727,
                "end_time": 2.2704545,
                "pitch": 79,
                "velocity": 40,
                "duration": 0.0681818,
                "tempo": 120.0
            },
            {
                "start_time": 2.3386364,
                "end_time": 2.4068182,
                "pitch": 67,
                "velocity": 40,
                "duration": 0.0681818,
                "tempo": 120.0
            },
            {
                "start_time": 2.4727273,
                "end_time": 2.5386364,
                "pitch": 71,
                "velocity": 40,
                "duration": 0.0659091,
                "tempo": 120.0
            },
            {
                "start_time": 2.6068182,
                "end_time": 2.7386364,
                "pitch": 53,
                "velocity": 40,
                "duration": 0.1318182,
                "tempo": 120.0
            },
            {
                "start_time": 2.8727273,
                "end_time": 2.9409091,
                "pitch": 69,
                "velocity": 40,
                "duration": 0.0681818,
                "tempo": 120.0
            },
            {
                "start_time": 3.0090909,
                "end_time": 3.0772727,
                "pitch": 72,
                "velocity": 40,
                "duration": 0.0681818,
                "tempo": 120.0
            },
            {
                "start_time": 3.1454545,
                "end_time": 3.2136364,
                "pitch": 60,
                "velocity": 40,
                "duration": 0.0681818,
                "tempo": 120.0
            },
            {
                "start_time": 3.2818182,
                "end_time": 3.35,
                "pitch": 77,
                "velocity": 40,
                "duration": 0.0681818,
                "tempo": 120.0
            },
            {
                "start_time": 3.4181818,
                "end_time": 3.4840909,
                "pitch": 69,
                "velocity": 40,
                "duration": 0.0659091,
                "tempo": 120.0
            },
            {
                "start_time": 3.55,
                "end_time": 3.6181818,
                "pitch": 72,
                "velocity": 40,
                "duration": 0.0681818,
                "tempo": 120.0
            },
            {
                "start_time": 3.6840909,
                "end_time": 3.7522727,
                "pitch": 60,
                "velocity": 40,
                "duration": 0.0681818,
                "tempo": 120.0
            },
            {
                "start_time": 3.8181818,
                "end_time": 3.8840909,
                "pitch": 76,
                "velocity": 40,
                "duration": 0.0659091,
                "tempo": 120.0
            },
            {
                "start_time": 3.9522727,
                "end_time": 4.0022727,
                "pitch": 67,
                "velocity": 40,
                "duration": 0.05,
                "tempo": 120.0
            },
            {
                "start_time": 4.0863636,
                "end_time": 4.1522727,
                "pitch": 72,
                "velocity": 40,
                "duration": 0.0659091,
                "tempo": 120.0
            },
            {
                "start_time": 4.2204545,
                "end_time": 4.35,
                "pitch": 55,
                "velocity": 40,
                "duration": 0.1295455,
                "tempo": 120.0
            },
            {
                "start_time": 4.4840909,
                "end_time": 4.55,
                "pitch": 67,
                "velocity": 40,
                "duration": 0.0659091,
                "tempo": 120.0
            },
            {
                "start_time": 4.6181818,
                "end_time": 4.6840909,
                "pitch": 72,
                "velocity": 40,
                "duration": 0.0659091,
                "tempo": 120.0
            },
            {
                "start_time": 4.7522727,
                "end_time": 4.8863636,
                "pitch": 60,
                "velocity": 40,
                "duration": 0.1340909,
                "tempo": 120.0
            },
            {
                "start_time": 5.0204545,
                "end_time": 5.0886364,
                "pitch": 67,
                "velocity": 40,
                "duration": 0.0681818,
                "tempo": 120.0
            },
            {
                "start_time": 5.1568182,
                "end_time": 5.225,
                "pitch": 72,
                "velocity": 40,
                "duration": 0.0681818,
                "tempo": 120.0
            },
            {
                "start_time": 5.2931818,
                "end_time": 5.3613636,
                "pitch": 64,
                "velocity": 40,
                "duration": 0.0681818,
                "tempo": 120.0
            },
            {
                "start_time": 5.4295455,
                "end_time": 5.4977273,
                "pitch": 76,
                "velocity": 40,
                "duration": 0.0681818,
                "tempo": 120.0
            },
            {
                "start_time": 5.5659091,
                "end_time": 5.6318182,
                "pitch": 67,
                "velocity": 40,
                "duration": 0.0659091,
                "tempo": 120.0
            },
            {
                "start_time": 5.6977273,
                "end_time": 5.7659091,
                "pitch": 72,
                "velocity": 40,
                "duration": 0.0681818,
                "tempo": 120.0
            },
            {
                "start_time": 5.8318182,
                "end_time": 5.9659091,
                "pitch": 55,
                "velocity": 40,
                "duration": 0.1340909,
                "tempo": 120.0
            },
            {
                "start_time": 6.1,
                "end_time": 6.1659091,
                "pitch": 67,
                "velocity": 40,
                "duration": 0.0659091,
                "tempo": 120.0
            },
            {
                "start_time": 6.2318182,
                "end_time": 6.3,
                "pitch": 71,
                "velocity": 40,
                "duration": 0.0681818,
                "tempo": 120.0
            },
            {
                "start_time": 6.3659091,
                "end_time": 6.4318182,
                "pitch": 59,
                "velocity": 40,
                "duration": 0.0659091,
                "tempo": 120.0
            },
            {
                "start_time": 6.5,
                "end_time": 6.5659091,
                "pitch": 79,
                "velocity": 40,
                "duration": 0.0659091,
                "tempo": 120.0
            },
            {
                "start_time": 6.6340909,
                "end_time": 6.7022727,
                "pitch": 67,
                "velocity": 40,
                "duration": 0.0681818,
                "tempo": 120.0
            },
            {
                "start_time": 6.7704545,
                "end_time": 6.8363636,
                "pitch": 71,
                "velocity": 40,
                "duration": 0.0659091,
                "tempo": 120.0
            },
            {
                "start_time": 6.9045455,
                "end_time": 7.0409091,
                "pitch": 53,
                "velocity": 40,
                "duration": 0.1363636,
                "tempo": 120.0
            },
            {
                "start_time": 7.1772727,
                "end_time": 7.2431818,
                "pitch": 69,
                "velocity": 40,
                "duration": 0.0659091,
                "tempo": 120.0
            },
            {
                "start_time": 7.3113636,
                "end_time": 7.3772727,
                "pitch": 72,
                "velocity": 40,
                "duration": 0.0659091,
                "tempo": 120.0
            },
            {
                "start_time": 7.4454545,
                "end_time": 7.5113636,
                "pitch": 60,
                "velocity": 40,
                "duration": 0.0659091,
                "tempo": 120.0
            },
            {
                "start_time": 7.5795455,
                "end_time": 7.6454545,
                "pitch": 77,
                "velocity": 40,
                "duration": 0.0659091,
                "tempo": 120.0
            },
            {
                "start_time": 7.7113636,
                "end_time": 7.7795455,
                "pitch": 69,
                "velocity": 40,
                "duration": 0.0681818,
                "tempo": 120.0
            },
            {
                "start_time": 7.8454545,
                "end_time": 7.9113636,
                "pitch": 72,
                "velocity": 40,
                "duration": 0.0659091,
                "tempo": 120.0
            },
            {
                "start_time": 7.9795455,
                "end_time": 8.0454545,
                "pitch": 60,
                "velocity": 40,
                "duration": 0.0659091,
                "tempo": 120.0
            },
            {
                "start_time": 8.1136364,
                "end_time": 8.1795455,
                "pitch": 76,
                "velocity": 40,
                "duration": 0.0659091,
                "tempo": 120.0
            },
            {
                "start_time": 8.2477273,
                "end_time": 8.3136364,
                "pitch": 67,
                "velocity": 40,
                "duration": 0.0659091,
                "tempo": 120.0
            },
            {
                "start_time": 8.3818182,
                "end_time": 8.45,
                "pitch": 72,
                "velocity": 40,
                "duration": 0.0681818,
                "tempo": 120.0
            },
            {
                "start_time": 8.5181818,
                "end_time": 8.6545455,
                "pitch": 55,
                "velocity": 40,
                "duration": 0.1363636,
                "tempo": 120.0
            },
            {
                "start_time": 8.7909091,
                "end_time": 8.8568182,
                "pitch": 67,
                "velocity": 40,
                "duration": 0.0659091,
                "tempo": 120.0
            },
            {
                "start_time": 8.9227273,
                "end_time": 8.9909091,
                "pitch": 72,
                "velocity": 40,
                "duration": 0.0681818,
                "tempo": 120.0
            },
            {
                "start_time": 9.0568182,
                "end_time": 9.1909091,
                "pitch": 60,
                "velocity": 40,
                "duration": 0.1340909,
                "tempo": 120.0
            },
            {
                "start_time": 9.325,
                "end_time": 9.3931818,
                "pitch": 67,
                "velocity": 40,
                "duration": 0.0681818,
                "tempo": 120.0
            },
            {
                "start_time": 9.4613636,
                "end_time": 9.5272727,
                "pitch": 72,
                "velocity": 40,
                "duration": 0.0659091,
                "tempo": 120.0
            },
            {
                "start_time": 9.5954545,
                "end_time": 9.6636364,
                "pitch": 64,
                "velocity": 40,
                "duration": 0.0681818,
                "tempo": 120.0
            },
            {
                "start_time": 9.7318182,
                "end_time": 9.8,
                "pitch": 76,
                "velocity": 40,
                "duration": 0.0681818,
                "tempo": 120.0
            },
            {
                "start_time": 9.8681818,
                "end_time": 9.9363636,
                "pitch": 67,
                "velocity": 40,
                "duration": 0.0681818,
                "tempo": 120.0
            },
            {
                "start_time": 10.0022727,
                "end_time": 10.0681818,
                "pitch": 72,
                "velocity": 40,
                "duration": 0.0659091,
                "tempo": 120.0
            },
            {
                "start_time": 10.1363636,
                "end_time": 10.2704545,
                "pitch": 55,
                "velocity": 40,
                "duration": 0.1340909,
                "tempo": 120.0
            },
            {
                "start_time": 10.4022727,
                "end_time": 10.4704545,
                "pitch": 67,
                "velocity": 40,
                "duration": 0.0681818,
                "tempo": 120.0
            },
            {
                "start_time": 10.5363636,
                "end_time": 10.6045455,
                "pitch": 71,
                "velocity": 40,
                "duration": 0.0681818,
                "tempo": 120.0
            },
            {
                "start_time": 10.6704545,
                "end_time": 10.7363636,
                "pitch": 59,
                "velocity": 40,
                "duration": 0.0659091,
                "tempo": 120.0
            },
            {
                "start_time": 10.8045455,
                "end_time": 10.8704545,
                "pitch": 79,
                "velocity": 40,
                "duration": 0.0659091,
                "tempo": 120.0
            },
            {
                "start_time": 10.9363636,
                "end_time": 11.0045455,
                "pitch": 67,
                "velocity": 40,
                "duration": 0.0681818,
                "tempo": 120.0
            },
            {
                "start_time": 11.0704545,
                "end_time": 11.1386364,
                "pitch": 71,
                "velocity": 40,
                "duration": 0.0681818,
                "tempo": 120.0
            },
            {
                "start_time": 11.2045455,
                "end_time": 11.3386364,
                "pitch": 53,
                "velocity": 40,
                "duration": 0.1340909,
                "tempo": 120.0
            },
            {
                "start_time": 11.4727273,
                "end_time": 11.5409091,
                "pitch": 69,
                "velocity": 40,
                "duration": 0.0681818,
                "tempo": 120.0
            },
            {
                "start_time": 11.6068182,
                "end_time": 11.675,
                "pitch": 72,
                "velocity": 40,
                "duration": 0.0681818,
                "tempo": 120.0
            },
            {
                "start_time": 11.7431818,
                "end_time": 11.8113636,
                "pitch": 60,
                "velocity": 40,
                "duration": 0.0681818,
                "tempo": 120.0
            },
            {
                "start_time": 11.8795455,
                "end_time": 11.9477273,
                "pitch": 77,
                "velocity": 40,
                "duration": 0.0681818,
                "tempo": 120.0
            },
            {
                "start_time": 12.0159091,
                "end_time": 12.0818182,
                "pitch": 69,
                "velocity": 40,
                "duration": 0.0659091,
                "tempo": 120.0
            },
            {
                "start_time": 12.15,
                "end_time": 12.2159091,
                "pitch": 72,
                "velocity": 40,
                "duration": 0.0659091,
                "tempo": 120.0
            },
            {
                "start_time": 12.2840909,
                "end_time": 12.35,
                "pitch": 60,
                "velocity": 40,
                "duration": 0.0659091,
                "tempo": 120.0
            },
            {
                "start_time": 12.4159091,
                "end_time": 12.4840909,
                "pitch": 76,
                "velocity": 40,
                "duration": 0.0681818,
                "tempo": 120.0
            },
            {
                "start_time": 12.55,
                "end_time": 12.6022727,
                "pitch": 67,
                "velocity": 40,
                "duration": 0.0522727,
                "tempo": 120.0
            },
            {
                "start_time": 12.6863636,
                "end_time": 12.7545455,
                "pitch": 72,
                "velocity": 40,
                "duration": 0.0681818,
                "tempo": 120.0
            },
            {
                "start_time": 12.8227273,
                "end_time": 12.9568182,
                "pitch": 55,
                "velocity": 40,
                "duration": 0.1340909,
                "tempo": 120.0
            },
            {
                "start_time": 13.0931818,
                "end_time": 13.1590909,
                "pitch": 67,
                "velocity": 40,
                "duration": 0.0659091,
                "tempo": 120.0
            },
            {
                "start_time": 13.225,
                "end_time": 13.2931818,
                "pitch": 72,
                "velocity": 40,
                "duration": 0.0681818,
                "tempo": 120.0
            },
            {
                "start_time": 13.3590909,
                "end_time": 13.4954545,
                "pitch": 60,
                "velocity": 40,
                "duration": 0.1363636,
                "tempo": 120.0
            },
            {
                "start_time": 13.6295455,
                "end_time": 13.6954545,
                "pitch": 67,
                "velocity": 40,
                "duration": 0.0659091,
                "tempo": 120.0
            },
            {
                "start_time": 13.7613636,
                "end_time": 13.8295455,
                "pitch": 72,
                "velocity": 40,
                "duration": 0.0681818,
                "tempo": 120.0
            },
            {
                "start_time": 13.8954545,
                "end_time": 13.9636364,
                "pitch": 64,
                "velocity": 40,
                "duration": 0.0681818,
                "tempo": 120.0
            },
            {
                "start_time": 14.0295455,
                "end_time": 14.0977273,
                "pitch": 76,
                "velocity": 40,
                "duration": 0.0681818,
                "tempo": 120.0
            },
            {
                "start_time": 14.1636364,
                "end_time": 14.2295455,
                "pitch": 67,
                "velocity": 40,
                "duration": 0.0659091,
                "tempo": 120.0
            },
            {
                "start_time": 14.2977273,
                "end_time": 14.3636364,
                "pitch": 72,
                "velocity": 40,
                "duration": 0.0659091,
                "tempo": 120.0
            },
            {
                "start_time": 14.4318182,
                "end_time": 14.5636364,
                "pitch": 55,
                "velocity": 40,
                "duration": 0.1318182,
                "tempo": 120.0
            },
            {
                "start_time": 14.6977273,
                "end_time": 14.7659091,
                "pitch": 67,
                "velocity": 40,
                "duration": 0.0681818,
                "tempo": 120.0
            },
            {
                "start_time": 14.8340909,
                "end_time": 14.9022727,
                "pitch": 71,
                "velocity": 40,
                "duration": 0.0681818,
                "tempo": 120.0
            },
            {
                "start_time": 14.9704545,
                "end_time": 15.0386364,
                "pitch": 59,
                "velocity": 40,
                "duration": 0.0681818,
                "tempo": 120.0
            },
            {
                "start_time": 15.1045455,
                "end_time": 15.1727273,
                "pitch": 79,
                "velocity": 40,
                "duration": 0.0681818,
                "tempo": 120.0
            },
            {
                "start_time": 15.2409091,
                "end_time": 15.3090909,
                "pitch": 67,
                "velocity": 40,
                "duration": 0.0681818,
                "tempo": 120.0
            },
            {
                "start_time": 15.375,
                "end_time": 15.4431818,
                "pitch": 71,
                "velocity": 40,
                "duration": 0.0681818,
                "tempo": 120.0
            },
            {
                "start_time": 15.5090909,
                "end_time": 15.6431818,
                "pitch": 53,
                "velocity": 40,
                "duration": 0.1340909,
                "tempo": 120.0
            },
            {
                "start_time": 15.775,
                "end_time": 15.8431818,
                "pitch": 69,
                "velocity": 40,
                "duration": 0.0681818,
                "tempo": 120.0
            },
            {
                "start_time": 15.9113636,
                "end_time": 15.9795455,
                "pitch": 72,
                "velocity": 40,
                "duration": 0.0681818,
                "tempo": 120.0
            },
            {
                "start_time": 16.0477273,
                "end_time": 16.1159091,
                "pitch": 60,
                "velocity": 40,
                "duration": 0.0681818,
                "tempo": 120.0
            },
            {
                "start_time": 16.1840909,
                "end_time": 16.2522727,
                "pitch": 77,
                "velocity": 40,
                "duration": 0.0681818,
                "tempo": 120.0
            },
            {
                "start_time": 16.3204545,
                "end_time": 16.3863636,
                "pitch": 69,
                "velocity": 40,
                "duration": 0.0659091,
                "tempo": 120.0
            },
            {
                "start_time": 16.4545455,
                "end_time": 16.5204545,
                "pitch": 72,
                "velocity": 40,
                "duration": 0.0659091,
                "tempo": 120.0
            },
            {
                "start_time": 16.5886364,
                "end_time": 16.6545455,
                "pitch": 60,
                "velocity": 40,
                "duration": 0.0659091,
                "tempo": 120.0
            },
            {
                "start_time": 16.7204545,
                "end_time": 16.7704545,
                "pitch": 76,
                "velocity": 40,
                "duration": 0.05,
                "tempo": 120.0
            },
            {
                "start_time": 16.8227273,
                "end_time": 16.8727273,
                "pitch": 67,
                "velocity": 40,
                "duration": 0.05,
                "tempo": 120.0
            },
            {
                "start_time": 16.9227273,
                "end_time": 16.975,
                "pitch": 72,
                "velocity": 40,
                "duration": 0.0522727,
                "tempo": 120.0
            },
            {
                "start_time": 17.025,
                "end_time": 17.125,
                "pitch": 55,
                "velocity": 40,
                "duration": 0.1,
                "tempo": 120.0
            },
            {
                "start_time": 17.2272727,
                "end_time": 17.2772727,
                "pitch": 67,
                "velocity": 40,
                "duration": 0.05,
                "tempo": 120.0
            },
            {
                "start_time": 17.3272727,
                "end_time": 17.3772727,
                "pitch": 72,
                "velocity": 40,
                "duration": 0.05,
                "tempo": 120.0
            },
            {
                "start_time": 17.4295455,
                "end_time": 17.5613636,
                "pitch": 55,
                "velocity": 40,
                "duration": 0.1318182,
                "tempo": 120.0
            },
            {
                "start_time": 17.6954545,
                "end_time": 17.7613636,
                "pitch": 67,
                "velocity": 40,
                "duration": 0.0659091,
                "tempo": 120.0
            },
            {
                "start_time": 17.8295455,
                "end_time": 17.8954545,
                "pitch": 71,
                "velocity": 40,
                "duration": 0.0659091,
                "tempo": 120.0
            },
            {
                "start_time": 17.9636364,
                "end_time": 18.0295455,
                "pitch": 62,
                "velocity": 40,
                "duration": 0.0659091,
                "tempo": 120.0
            },
            {
                "start_time": 18.1,
                "end_time": 18.1659091,
                "pitch": 79,
                "velocity": 40,
                "duration": 0.0659091,
                "tempo": 120.0
            },
            {
                "start_time": 18.2340909,
                "end_time": 18.3022727,
                "pitch": 67,
                "velocity": 40,
                "duration": 0.0681818,
                "tempo": 120.0
            },
            {
                "start_time": 18.3704545,
                "end_time": 18.4386364,
                "pitch": 71,
                "velocity": 40,
                "duration": 0.0681818,
                "tempo": 120.0
            },
            {
                "start_time": 18.5068182,
                "end_time": 18.6409091,
                "pitch": 55,
                "velocity": 40,
                "duration": 0.1340909,
                "tempo": 120.0
            },
            {
                "start_time": 18.775,
                "end_time": 18.8409091,
                "pitch": 67,
                "velocity": 40,
                "duration": 0.0659091,
                "tempo": 120.0
            },
            {
                "start_time": 18.9068182,
                "end_time": 18.975,
                "pitch": 71,
                "velocity": 40,
                "duration": 0.0681818,
                "tempo": 120.0
            },
            {
                "start_time": 19.0409091,
                "end_time": 19.1068182,
                "pitch": 62,
                "velocity": 40,
                "duration": 0.0659091,
                "tempo": 120.0
            },
            {
                "start_time": 19.175,
                "end_time": 19.2409091,
                "pitch": 79,
                "velocity": 40,
                "duration": 0.0659091,
                "tempo": 120.0
            },
            {
                "start_time": 19.3090909,
                "end_time": 19.375,
                "pitch": 67,
                "velocity": 40,
                "duration": 0.0659091,
                "tempo": 120.0
            },
            {
                "start_time": 19.4409091,
                "end_time": 19.5090909,
                "pitch": 71,
                "velocity": 40,
                "duration": 0.0681818,
                "tempo": 120.0
            },
            {
                "start_time": 19.575,
                "end_time": 19.6431818,
                "pitch": 57,
                "velocity": 40,
                "duration": 0.0681818,
                "tempo": 120.0
            },
            {
                "start_time": 19.7113636,
                "end_time": 19.7795455,
                "pitch": 76,
                "velocity": 40,
                "duration": 0.0681818,
                "tempo": 120.0
            },
            {
                "start_time": 19.8477273,
                "end_time": 19.9159091,
                "pitch": 69,
                "velocity": 40,
                "duration": 0.0681818,
                "tempo": 120.0
            },
            {
                "start_time": 19.9840909,
                "end_time": 20.0522727,
                "pitch": 72,
                "velocity": 40,
                "duration": 0.0681818,
                "tempo": 120.0
            },
            {
                "start_time": 20.1204545,
                "end_time": 20.2522727,
                "pitch": 52,
                "velocity": 40,
                "duration": 0.1318182,
                "tempo": 120.0
            },
            {
                "start_time": 20.3840909,
                "end_time": 20.4522727,
                "pitch": 69,
                "velocity": 40,
                "duration": 0.0681818,
                "tempo": 120.0
            },
            {
                "start_time": 20.5181818,
                "end_time": 20.5840909,
                "pitch": 72,
                "velocity": 40,
                "duration": 0.0659091,
                "tempo": 120.0
            },
            {
                "start_time": 20.6522727,
                "end_time": 20.7181818,
                "pitch": 57,
                "velocity": 40,
                "duration": 0.0659091,
                "tempo": 120.0
            },
            {
                "start_time": 20.7863636,
                "end_time": 20.8522727,
                "pitch": 76,
                "velocity": 40,
                "duration": 0.0659091,
                "tempo": 120.0
            },
            {
                "start_time": 20.9181818,
                "end_time": 20.9863636,
                "pitch": 69,
                "velocity": 40,
                "duration": 0.0681818,
                "tempo": 120.0
            },
            {
                "start_time": 21.0522727,
                "end_time": 21.1204545,
                "pitch": 72,
                "velocity": 40,
                "duration": 0.0681818,
                "tempo": 120.0
            },
            {
                "start_time": 21.1863636,
                "end_time": 21.3227273,
                "pitch": 52,
                "velocity": 40,
                "duration": 0.1363636,
                "tempo": 120.0
            },
            {
                "start_time": 21.4590909,
                "end_time": 21.5272727,
                "pitch": 69,
                "velocity": 40,
                "duration": 0.0681818,
                "tempo": 120.0
            },
            {
                "start_time": 21.5931818,
                "end_time": 21.6613636,
                "pitch": 72,
                "velocity": 40,
                "duration": 0.0681818,
                "tempo": 120.0
            },
            {
                "start_time": 21.7295455,
                "end_time": 21.8636364,
                "pitch": 55,
                "velocity": 40,
                "duration": 0.1340909,
                "tempo": 120.0
            },
            {
                "start_time": 21.9977273,
                "end_time": 22.0636364,
                "pitch": 67,
                "velocity": 40,
                "duration": 0.0659091,
                "tempo": 120.0
            },
            {
                "start_time": 22.1318182,
                "end_time": 22.1977273,
                "pitch": 71,
                "velocity": 40,
                "duration": 0.0659091,
                "tempo": 120.0
            },
            {
                "start_time": 22.2636364,
                "end_time": 22.3318182,
                "pitch": 62,
                "velocity": 40,
                "duration": 0.0681818,
                "tempo": 120.0
            },
            {
                "start_time": 22.3977273,
                "end_time": 22.4659091,
                "pitch": 79,
                "velocity": 40,
                "duration": 0.0681818,
                "tempo": 120.0
            },
            {
                "start_time": 22.5318182,
                "end_time": 22.5977273,
                "pitch": 67,
                "velocity": 40,
                "duration": 0.0659091,
                "tempo": 120.0
            },
            {
                "start_time": 22.6659091,
                "end_time": 22.7318182,
                "pitch": 71,
                "velocity": 40,
                "duration": 0.0659091,
                "tempo": 120.0
            },
            {
                "start_time": 22.8,
                "end_time": 22.9318182,
                "pitch": 55,
                "velocity": 40,
                "duration": 0.1318182,
                "tempo": 120.0
            },
            {
                "start_time": 23.0659091,
                "end_time": 23.1340909,
                "pitch": 67,
                "velocity": 40,
                "duration": 0.0681818,
                "tempo": 120.0
            },
            {
                "start_time": 23.2,
                "end_time": 23.2659091,
                "pitch": 71,
                "velocity": 40,
                "duration": 0.0659091,
                "tempo": 120.0
            },
            {
                "start_time": 23.3340909,
                "end_time": 23.4022727,
                "pitch": 62,
                "velocity": 40,
                "duration": 0.0681818,
                "tempo": 120.0
            },
            {
                "start_time": 23.4704545,
                "end_time": 23.5363636,
                "pitch": 79,
                "velocity": 40,
                "duration": 0.0659091,
                "tempo": 120.0
            },
            {
                "start_time": 23.6045455,
                "end_time": 23.6727273,
                "pitch": 67,
                "velocity": 40,
                "duration": 0.0681818,
                "tempo": 120.0
            },
            {
                "start_time": 23.7409091,
                "end_time": 23.8090909,
                "pitch": 71,
                "velocity": 40,
                "duration": 0.0681818,
                "tempo": 120.0
            },
            {
                "start_time": 23.8772727,
                "end_time": 23.9431818,
                "pitch": 57,
                "velocity": 40,
                "duration": 0.0659091,
                "tempo": 120.0
            },
            {
                "start_time": 24.0113636,
                "end_time": 24.0772727,
                "pitch": 76,
                "velocity": 40,
                "duration": 0.0659091,
                "tempo": 120.0
            },
            {
                "start_time": 24.1454545,
                "end_time": 24.2113636,
                "pitch": 69,
                "velocity": 40,
                "duration": 0.0659091,
                "tempo": 120.0
            },
            {
                "start_time": 24.2772727,
                "end_time": 24.3454545,
                "pitch": 72,
                "velocity": 40,
                "duration": 0.0681818,
                "tempo": 120.0
            },
            {
                "start_time": 24.4113636,
                "end_time": 24.5477273,
                "pitch": 52,
                "velocity": 40,
                "duration": 0.1363636,
                "tempo": 120.0
            },
            {
                "start_time": 24.6840909,
                "end_time": 24.7522727,
                "pitch": 69,
                "velocity": 40,
                "duration": 0.0681818,
                "tempo": 120.0
            },
            {
                "start_time": 24.8204545,
                "end_time": 24.8886364,
                "pitch": 72,
                "velocity": 40,
                "duration": 0.0681818,
                "tempo": 120.0
            },
            {
                "start_time": 24.9545455,
                "end_time": 25.0227273,
                "pitch": 57,
                "velocity": 40,
                "duration": 0.0681818,
                "tempo": 120.0
            },
            {
                "start_time": 25.0886364,
                "end_time": 25.1568182,
                "pitch": 76,
                "velocity": 40,
                "duration": 0.0681818,
                "tempo": 120.0
            },
            {
                "start_time": 25.2227273,
                "end_time": 25.2886364,
                "pitch": 69,
                "velocity": 40,
                "duration": 0.0659091,
                "tempo": 120.0
            },
            {
                "start_time": 25.3568182,
                "end_time": 25.4227273,
                "pitch": 72,
                "velocity": 40,
                "duration": 0.0659091,
                "tempo": 120.0
            },
            {
                "start_time": 25.4909091,
                "end_time": 25.6227273,
                "pitch": 52,
                "velocity": 40,
                "duration": 0.1318182,
                "tempo": 120.0
            },
            {
                "start_time": 25.7568182,
                "end_time": 25.825,
                "pitch": 69,
                "velocity": 40,
                "duration": 0.0681818,
                "tempo": 120.0
            },
            {
                "start_time": 25.8909091,
                "end_time": 25.9568182,
                "pitch": 72,
                "velocity": 40,
                "duration": 0.0659091,
                "tempo": 120.0
            },
            {
                "start_time": 26.025,
                "end_time": 26.1590909,
                "pitch": 55,
                "velocity": 40,
                "duration": 0.1340909,
                "tempo": 120.0
            },
            {
                "start_time": 26.2909091,
                "end_time": 26.3590909,
                "pitch": 67,
                "velocity": 40,
                "duration": 0.0681818,
                "tempo": 120.0
            },
            {
                "start_time": 26.425,
                "end_time": 26.4909091,
                "pitch": 71,
                "velocity": 40,
                "duration": 0.0659091,
                "tempo": 120.0
            },
            {
                "start_time": 26.5590909,
                "end_time": 26.6272727,
                "pitch": 62,
                "velocity": 40,
                "duration": 0.0681818,
                "tempo": 120.0
            },
            {
                "start_time": 26.6954545,
                "end_time": 26.7636364,
                "pitch": 79,
                "velocity": 40,
                "duration": 0.0681818,
                "tempo": 120.0
            },
            {
                "start_time": 26.8318182,
                "end_time": 26.8977273,
                "pitch": 67,
                "velocity": 40,
                "duration": 0.0659091,
                "tempo": 120.0
            },
            {
                "start_time": 26.9659091,
                "end_time": 27.0340909,
                "pitch": 71,
                "velocity": 40,
                "duration": 0.0681818,
                "tempo": 120.0
            },
            {
                "start_time": 27.1022727,
                "end_time": 27.2363636,
                "pitch": 55,
                "velocity": 40,
                "duration": 0.1340909,
                "tempo": 120.0
            },
            {
                "start_time": 27.3704545,
                "end_time": 27.4363636,
                "pitch": 67,
                "velocity": 40,
                "duration": 0.0659091,
                "tempo": 120.0
            },
            {
                "start_time": 27.5045455,
                "end_time": 27.5704545,
                "pitch": 71,
                "velocity": 40,
                "duration": 0.0659091,
                "tempo": 120.0
            },
            {
                "start_time": 27.6363636,
                "end_time": 27.7045455,
                "pitch": 62,
                "velocity": 40,
                "duration": 0.0681818,
                "tempo": 120.0
            },
            {
                "start_time": 27.7727273,
                "end_time": 27.8409091,
                "pitch": 79,
                "velocity": 40,
                "duration": 0.0681818,
                "tempo": 120.0
            },
            {
                "start_time": 27.9090909,
                "end_time": 27.9772727,
                "pitch": 67,
                "velocity": 40,
                "duration": 0.0681818,
                "tempo": 120.0
            },
            {
                "start_time": 28.0454545,
                "end_time": 28.1136364,
                "pitch": 71,
                "velocity": 40,
                "duration": 0.0681818,
                "tempo": 120.0
            },
            {
                "start_time": 28.1818182,
                "end_time": 28.2477273,
                "pitch": 57,
                "velocity": 40,
                "duration": 0.0659091,
                "tempo": 120.0
            },
            {
                "start_time": 28.3136364,
                "end_time": 28.3818182,
                "pitch": 76,
                "velocity": 40,
                "duration": 0.0681818,
                "tempo": 120.0
            },
            {
                "start_time": 28.4477273,
                "end_time": 28.5159091,
                "pitch": 69,
                "velocity": 40,
                "duration": 0.0681818,
                "tempo": 120.0
            },
            {
                "start_time": 28.5818182,
                "end_time": 28.6477273,
                "pitch": 72,
                "velocity": 40,
                "duration": 0.0659091,
                "tempo": 120.0
            },
            {
                "start_time": 28.7159091,
                "end_time": 28.85,
                "pitch": 52,
                "velocity": 40,
                "duration": 0.1340909,
                "tempo": 120.0
            },
            {
                "start_time": 28.9818182,
                "end_time": 29.05,
                "pitch": 69,
                "velocity": 40,
                "duration": 0.0681818,
                "tempo": 120.0
            },
            {
                "start_time": 29.1159091,
                "end_time": 29.1840909,
                "pitch": 72,
                "velocity": 40,
                "duration": 0.0681818,
                "tempo": 120.0
            },
            {
                "start_time": 29.25,
                "end_time": 29.3159091,
                "pitch": 57,
                "velocity": 40,
                "duration": 0.0659091,
                "tempo": 120.0
            },
            {
                "start_time": 29.3840909,
                "end_time": 29.45,
                "pitch": 76,
                "velocity": 40,
                "duration": 0.0659091,
                "tempo": 120.0
            },
            {
                "start_time": 29.5181818,
                "end_time": 29.5840909,
                "pitch": 69,
                "velocity": 40,
                "duration": 0.0659091,
                "tempo": 120.0
            },
            {
                "start_time": 29.65,
                "end_time": 29.7181818,
                "pitch": 72,
                "velocity": 40,
                "duration": 0.0681818,
                "tempo": 120.0
            },
            {
                "start_time": 29.7840909,
                "end_time": 29.9204545,
                "pitch": 52,
                "velocity": 40,
                "duration": 0.1363636,
                "tempo": 120.0
            },
            {
                "start_time": 30.0568182,
                "end_time": 30.125,
                "pitch": 69,
                "velocity": 40,
                "duration": 0.0681818,
                "tempo": 120.0
            },
            {
                "start_time": 30.1931818,
                "end_time": 30.2613636,
                "pitch": 72,
                "velocity": 40,
                "duration": 0.0681818,
                "tempo": 120.0
            },
            {
                "start_time": 30.3272727,
                "end_time": 30.4613636,
                "pitch": 53,
                "velocity": 40,
                "duration": 0.1340909,
                "tempo": 120.0
            },
            {
                "start_time": 30.5954545,
                "end_time": 30.6613636,
                "pitch": 69,
                "velocity": 40,
                "duration": 0.0659091,
                "tempo": 120.0
            },
            {
                "start_time": 30.7295455,
                "end_time": 30.7954545,
                "pitch": 72,
                "velocity": 40,
                "duration": 0.0659091,
                "tempo": 120.0
            },
            {
                "start_time": 30.8636364,
                "end_time": 30.9295455,
                "pitch": 60,
                "velocity": 40,
                "duration": 0.0659091,
                "tempo": 120.0
            },
            {
                "start_time": 30.9977273,
                "end_time": 31.0659091,
                "pitch": 77,
                "velocity": 40,
                "duration": 0.0681818,
                "tempo": 120.0
            },
            {
                "start_time": 31.1340909,
                "end_time": 31.2022727,
                "pitch": 69,
                "velocity": 40,
                "duration": 0.0681818,
                "tempo": 120.0
            },
            {
                "start_time": 31.2704545,
                "end_time": 31.3386364,
                "pitch": 72,
                "velocity": 40,
                "duration": 0.0681818,
                "tempo": 120.0
            },
            {
                "start_time": 31.4068182,
                "end_time": 31.5409091,
                "pitch": 55,
                "velocity": 40,
                "duration": 0.1340909,
                "tempo": 120.0
            },
            {
                "start_time": 31.6727273,
                "end_time": 31.7409091,
                "pitch": 71,
                "velocity": 40,
                "duration": 0.0681818,
                "tempo": 120.0
            },
            {
                "start_time": 31.8068182,
                "end_time": 31.875,
                "pitch": 74,
                "velocity": 40,
                "duration": 0.0681818,
                "tempo": 120.0
            },
            {
                "start_time": 31.9409091,
                "end_time": 32.0068182,
                "pitch": 62,
                "velocity": 40,
                "duration": 0.0659091,
                "tempo": 120.0
            },
            {
                "start_time": 32.075,
                "end_time": 32.1409091,
                "pitch": 79,
                "velocity": 40,
                "duration": 0.0659091,
                "tempo": 120.0
            },
            {
                "start_time": 32.2090909,
                "end_time": 32.275,
                "pitch": 71,
                "velocity": 40,
                "duration": 0.0659091,
                "tempo": 120.0
            },
            {
                "start_time": 32.3409091,
                "end_time": 32.4090909,
                "pitch": 74,
                "velocity": 40,
                "duration": 0.0681818,
                "tempo": 120.0
            },
            {
                "start_time": 32.475,
                "end_time": 32.6113636,
                "pitch": 60,
                "velocity": 40,
                "duration": 0.1363636,
                "tempo": 120.0
            },
            {
                "start_time": 32.7454545,
                "end_time": 32.8136364,
                "pitch": 67,
                "velocity": 40,
                "duration": 0.0681818,
                "tempo": 120.0
            },
            {
                "start_time": 32.8795455,
                "end_time": 32.9454545,
                "pitch": 72,
                "velocity": 40,
                "duration": 0.0659091,
                "tempo": 120.0
            },
            {
                "start_time": 33.0136364,
                "end_time": 33.0818182,
                "pitch": 55,
                "velocity": 40,
                "duration": 0.0681818,
                "tempo": 120.0
            },
            {
                "start_time": 33.15,
                "end_time": 33.2159091,
                "pitch": 76,
                "velocity": 40,
                "duration": 0.0659091,
                "tempo": 120.0
            },
            {
                "start_time": 33.2840909,
                "end_time": 33.3522727,
                "pitch": 67,
                "velocity": 40,
                "duration": 0.0681818,
                "tempo": 120.0
            },
            {
                "start_time": 33.4204545,
                "end_time": 33.4886364,
                "pitch": 72,
                "velocity": 40,
                "duration": 0.0681818,
                "tempo": 120.0
            },
            {
                "start_time": 33.5568182,
                "end_time": 33.6909091,
                "pitch": 60,
                "velocity": 40,
                "duration": 0.1340909,
                "tempo": 120.0
            },
            {
                "start_time": 33.825,
                "end_time": 33.9590909,
                "pitch": 55,
                "velocity": 40,
                "duration": 0.1340909,
                "tempo": 120.0
            },
            {
                "start_time": 34.0909091,
                "end_time": 34.2272727,
                "pitch": 57,
                "velocity": 40,
                "duration": 0.1363636,
                "tempo": 120.0
            },
            {
                "start_time": 34.3636364,
                "end_time": 34.5,
                "pitch": 59,
                "velocity": 40,
                "duration": 0.1363636,
                "tempo": 120.0
            }
        ],
        "Electric Guitar (clean)": [
            {
                "start_time": 0.0,
                "end_time": 0.4659091,
                "pitch": 68,
                "velocity": 4,
                "duration": 0.4659091,
                "tempo": 120.0
            },
            {
                "start_time": 0.4659091,
                "end_time": 0.4818182,
                "pitch": 68,
                "velocity": 4,
                "duration": 0.0159091,
                "tempo": 120.0
            },
            {
                "start_time": 0.4818182,
                "end_time": 0.7340909,
                "pitch": 83,
                "velocity": 4,
                "duration": 0.2522727,
                "tempo": 120.0
            },
            {
                "start_time": 0.7340909,
                "end_time": 1.2613636,
                "pitch": 75,
                "velocity": 4,
                "duration": 0.5272727,
                "tempo": 120.0
            },
            {
                "start_time": 1.2613636,
                "end_time": 1.5272727,
                "pitch": 91,
                "velocity": 4,
                "duration": 0.2659091,
                "tempo": 120.0
            },
            {
                "start_time": 1.5272727,
                "end_time": 1.7954545,
                "pitch": 83,
                "velocity": 4,
                "duration": 0.2681818,
                "tempo": 120.0
            },
            {
                "start_time": 1.7954545,
                "end_time": 2.3386364,
                "pitch": 75,
                "velocity": 4,
                "duration": 0.5431818,
                "tempo": 120.0
            },
            {
                "start_time": 2.3386364,
                "end_time": 2.6068182,
                "pitch": 91,
                "velocity": 4,
                "duration": 0.2681818,
                "tempo": 120.0
            },
            {
                "start_time": 2.6068182,
                "end_time": 2.8727273,
                "pitch": 83,
                "velocity": 4,
                "duration": 0.2659091,
                "tempo": 120.0
            },
            {
                "start_time": 2.8727273,
                "end_time": 3.4181818,
                "pitch": 75,
                "velocity": 4,
                "duration": 0.5454545,
                "tempo": 120.0
            },
            {
                "start_time": 3.4181818,
                "end_time": 3.6840909,
                "pitch": 91,
                "velocity": 4,
                "duration": 0.2659091,
                "tempo": 120.0
            },
            {
                "start_time": 3.6840909,
                "end_time": 3.9522727,
                "pitch": 83,
                "velocity": 4,
                "duration": 0.2681818,
                "tempo": 120.0
            },
            {
                "start_time": 3.9522727,
                "end_time": 4.0181818,
                "pitch": 75,
                "velocity": 4,
                "duration": 0.0659091,
                "tempo": 120.0
            },
            {
                "start_time": 4.0181818,
                "end_time": 4.3181818,
                "pitch": 57,
                "velocity": 4,
                "duration": 0.3,
                "tempo": 120.0
            },
            {
                "start_time": 4.3181818,
                "end_time": 4.5,
                "pitch": 49,
                "velocity": 4,
                "duration": 0.1818182,
                "tempo": 120.0
            },
            {
                "start_time": 4.5,
                "end_time": 4.7681818,
                "pitch": 65,
                "velocity": 4,
                "duration": 0.2681818,
                "tempo": 120.0
            },
            {
                "start_time": 4.7681818,
                "end_time": 5.0204545,
                "pitch": 57,
                "velocity": 4,
                "duration": 0.2522727,
                "tempo": 120.0
            },
            {
                "start_time": 5.0204545,
                "end_time": 5.3613636,
                "pitch": 49,
                "velocity": 4,
                "duration": 0.3409091,
                "tempo": 120.0
            },
            {
                "start_time": 5.3613636,
                "end_time": 5.5659091,
                "pitch": 107,
                "velocity": 4,
                "duration": 0.2045455,
                "tempo": 120.0
            },
            {
                "start_time": 5.5659091,
                "end_time": 5.8318182,
                "pitch": 27,
                "velocity": 4,
                "duration": 0.2659091,
                "tempo": 120.0
            },
            {
                "start_time": 5.8318182,
                "end_time": 6.1,
                "pitch": 19,
                "velocity": 4,
                "duration": 0.2681818,
                "tempo": 120.0
            },
            {
                "start_time": 6.1,
                "end_time": 6.6340909,
                "pitch": 107,
                "velocity": 4,
                "duration": 0.5340909,
                "tempo": 120.0
            },
            {
                "start_time": 6.6340909,
                "end_time": 6.9045455,
                "pitch": 27,
                "velocity": 4,
                "duration": 0.2704545,
                "tempo": 120.0
            },
            {
                "start_time": 6.9045455,
                "end_time": 7.1772727,
                "pitch": 19,
                "velocity": 4,
                "duration": 0.2727273,
                "tempo": 120.0
            },
            {
                "start_time": 7.1772727,
                "end_time": 7.7113636,
                "pitch": 107,
                "velocity": 4,
                "duration": 0.5340909,
                "tempo": 120.0
            },
            {
                "start_time": 7.7113636,
                "end_time": 7.7454545,
                "pitch": 27,
                "velocity": 4,
                "duration": 0.0340909,
                "tempo": 120.0
            },
            {
                "start_time": 7.7454545,
                "end_time": 7.9795455,
                "pitch": 42,
                "velocity": 4,
                "duration": 0.2340909,
                "tempo": 120.0
            },
            {
                "start_time": 7.9795455,
                "end_time": 8.2477273,
                "pitch": 34,
                "velocity": 4,
                "duration": 0.2681818,
                "tempo": 120.0
            },
            {
                "start_time": 8.2477273,
                "end_time": 8.5181818,
                "pitch": 26,
                "velocity": 4,
                "duration": 0.2704545,
                "tempo": 120.0
            },
            {
                "start_time": 8.5181818,
                "end_time": 8.7909091,
                "pitch": 22,
                "velocity": 4,
                "duration": 0.2727273,
                "tempo": 120.0
            },
            {
                "start_time": 8.7909091,
                "end_time": 8.8909091,
                "pitch": 38,
                "velocity": 4,
                "duration": 0.1,
                "tempo": 120.0
            },
            {
                "start_time": 8.8909091,
                "end_time": 9.0568182,
                "pitch": 42,
                "velocity": 4,
                "duration": 0.1659091,
                "tempo": 120.0
            },
            {
                "start_time": 9.0568182,
                "end_time": 9.325,
                "pitch": 34,
                "velocity": 4,
                "duration": 0.2681818,
                "tempo": 120.0
            },
            {
                "start_time": 9.325,
                "end_time": 9.6295455,
                "pitch": 26,
                "velocity": 4,
                "duration": 0.3045455,
                "tempo": 120.0
            },
            {
                "start_time": 9.6295455,
                "end_time": 9.8681818,
                "pitch": 99,
                "velocity": 4,
                "duration": 0.2386364,
                "tempo": 120.0
            },
            {
                "start_time": 9.8681818,
                "end_time": 10.0022727,
                "pitch": 19,
                "velocity": 4,
                "duration": 0.1340909,
                "tempo": 120.0
            },
            {
                "start_time": 10.0022727,
                "end_time": 10.1363636,
                "pitch": 50,
                "velocity": 4,
                "duration": 0.1340909,
                "tempo": 120.0
            },
            {
                "start_time": 10.1363636,
                "end_time": 10.4022727,
                "pitch": 42,
                "velocity": 4,
                "duration": 0.2659091,
                "tempo": 120.0
            },
            {
                "start_time": 10.4022727,
                "end_time": 10.4704545,
                "pitch": 34,
                "velocity": 4,
                "duration": 0.0681818,
                "tempo": 120.0
            },
            {
                "start_time": 10.4704545,
                "end_time": 10.6045455,
                "pitch": 21,
                "velocity": 4,
                "duration": 0.1340909,
                "tempo": 120.0
            },
            {
                "start_time": 10.6045455,
                "end_time": 10.6704545,
                "pitch": 34,
                "velocity": 4,
                "duration": 0.0659091,
                "tempo": 120.0
            },
            {
                "start_time": 10.6704545,
                "end_time": 10.8704545,
                "pitch": 21,
                "velocity": 4,
                "duration": 0.2,
                "tempo": 120.0
            },
            {
                "start_time": 10.8704545,
                "end_time": 10.9363636,
                "pitch": 73,
                "velocity": 4,
                "duration": 0.0659091,
                "tempo": 120.0
            },
            {
                "start_time": 10.9363636,
                "end_time": 11.2045455,
                "pitch": 89,
                "velocity": 4,
                "duration": 0.2681818,
                "tempo": 120.0
            },
            {
                "start_time": 11.2045455,
                "end_time": 11.4727273,
                "pitch": 81,
                "velocity": 4,
                "duration": 0.2681818,
                "tempo": 120.0
            },
            {
                "start_time": 11.4727273,
                "end_time": 12.0159091,
                "pitch": 73,
                "velocity": 4,
                "duration": 0.5431818,
                "tempo": 120.0
            },
            {
                "start_time": 12.0159091,
                "end_time": 12.2840909,
                "pitch": 89,
                "velocity": 4,
                "duration": 0.2681818,
                "tempo": 120.0
            },
            {
                "start_time": 12.2840909,
                "end_time": 12.55,
                "pitch": 81,
                "velocity": 4,
                "duration": 0.2659091,
                "tempo": 120.0
            },
            {
                "start_time": 12.55,
                "end_time": 13.1090909,
                "pitch": 73,
                "velocity": 4,
                "duration": 0.5590909,
                "tempo": 120.0
            },
            {
                "start_time": 13.1090909,
                "end_time": 13.3772727,
                "pitch": 89,
                "velocity": 4,
                "duration": 0.2681818,
                "tempo": 120.0
            },
            {
                "start_time": 13.3772727,
                "end_time": 13.6295455,
                "pitch": 81,
                "velocity": 4,
                "duration": 0.2522727,
                "tempo": 120.0
            },
            {
                "start_time": 13.6295455,
                "end_time": 14.1636364,
                "pitch": 73,
                "velocity": 4,
                "duration": 0.5340909,
                "tempo": 120.0
            },
            {
                "start_time": 14.1636364,
                "end_time": 14.4318182,
                "pitch": 89,
                "velocity": 4,
                "duration": 0.2681818,
                "tempo": 120.0
            },
            {
                "start_time": 14.4318182,
                "end_time": 14.6977273,
                "pitch": 81,
                "velocity": 4,
                "duration": 0.2659091,
                "tempo": 120.0
            },
            {
                "start_time": 14.6977273,
                "end_time": 15.0386364,
                "pitch": 73,
                "velocity": 4,
                "duration": 0.3409091,
                "tempo": 120.0
            },
            {
                "start_time": 15.0386364,
                "end_time": 15.2409091,
                "pitch": 44,
                "velocity": 4,
                "duration": 0.2022727,
                "tempo": 120.0
            },
            {
                "start_time": 15.2409091,
                "end_time": 15.5090909,
                "pitch": 60,
                "velocity": 4,
                "duration": 0.2681818,
                "tempo": 120.0
            },
            {
                "start_time": 15.5090909,
                "end_time": 15.775,
                "pitch": 52,
                "velocity": 4,
                "duration": 0.2659091,
                "tempo": 120.0
            },
            {
                "start_time": 15.775,
                "end_time": 16.3204545,
                "pitch": 44,
                "velocity": 4,
                "duration": 0.5454545,
                "tempo": 120.0
            },
            {
                "start_time": 16.3204545,
                "end_time": 16.5886364,
                "pitch": 60,
                "velocity": 4,
                "duration": 0.2681818,
                "tempo": 120.0
            },
            {
                "start_time": 16.5886364,
                "end_time": 16.8227273,
                "pitch": 52,
                "velocity": 4,
                "duration": 0.2340909,
                "tempo": 120.0
            },
            {
                "start_time": 16.8227273,
                "end_time": 17.2272727,
                "pitch": 44,
                "velocity": 4,
                "duration": 0.4045455,
                "tempo": 120.0
            },
            {
                "start_time": 17.2272727,
                "end_time": 17.4295455,
                "pitch": 60,
                "velocity": 4,
                "duration": 0.2022727,
                "tempo": 120.0
            },
            {
                "start_time": 17.4295455,
                "end_time": 17.6954545,
                "pitch": 53,
                "velocity": 4,
                "duration": 0.2659091,
                "tempo": 120.0
            },
            {
                "start_time": 17.6954545,
                "end_time": 17.8295455,
                "pitch": 45,
                "velocity": 4,
                "duration": 0.1340909,
                "tempo": 120.0
            },
            {
                "start_time": 17.8295455,
                "end_time": 18.2340909,
                "pitch": 37,
                "velocity": 4,
                "duration": 0.4045455,
                "tempo": 120.0
            },
            {
                "start_time": 18.2340909,
                "end_time": 18.3704545,
                "pitch": 45,
                "velocity": 4,
                "duration": 0.1363636,
                "tempo": 120.0
            },
            {
                "start_time": 18.3704545,
                "end_time": 18.775,
                "pitch": 54,
                "velocity": 4,
                "duration": 0.4045455,
                "tempo": 120.0
            },
            {
                "start_time": 18.775,
                "end_time": 19.0409091,
                "pitch": 45,
                "velocity": 4,
                "duration": 0.2659091,
                "tempo": 120.0
            },
            {
                "start_time": 19.0409091,
                "end_time": 19.1068182,
                "pitch": 38,
                "velocity": 4,
                "duration": 0.0659091,
                "tempo": 120.0
            },
            {
                "start_time": 19.1068182,
                "end_time": 19.3090909,
                "pitch": 42,
                "velocity": 4,
                "duration": 0.2022727,
                "tempo": 120.0
            },
            {
                "start_time": 19.3090909,
                "end_time": 19.4409091,
                "pitch": 49,
                "velocity": 4,
                "duration": 0.1318182,
                "tempo": 120.0
            },
            {
                "start_time": 19.4409091,
                "end_time": 19.8477273,
                "pitch": 57,
                "velocity": 4,
                "duration": 0.4068182,
                "tempo": 120.0
            },
            {
                "start_time": 19.8477273,
                "end_time": 19.9840909,
                "pitch": 49,
                "velocity": 4,
                "duration": 0.1363636,
                "tempo": 120.0
            },
            {
                "start_time": 19.9840909,
                "end_time": 20.4022727,
                "pitch": 41,
                "velocity": 4,
                "duration": 0.4181818,
                "tempo": 120.0
            },
            {
                "start_time": 20.4022727,
                "end_time": 20.5340909,
                "pitch": 49,
                "velocity": 4,
                "duration": 0.1318182,
                "tempo": 120.0
            },
            {
                "start_time": 20.5340909,
                "end_time": 20.9363636,
                "pitch": 57,
                "velocity": 4,
                "duration": 0.4022727,
                "tempo": 120.0
            },
            {
                "start_time": 20.9363636,
                "end_time": 21.2022727,
                "pitch": 49,
                "velocity": 4,
                "duration": 0.2659091,
                "tempo": 120.0
            },
            {
                "start_time": 21.2022727,
                "end_time": 21.475,
                "pitch": 42,
                "velocity": 4,
                "duration": 0.2727273,
                "tempo": 120.0
            },
            {
                "start_time": 21.475,
                "end_time": 21.6113636,
                "pitch": 49,
                "velocity": 4,
                "duration": 0.1363636,
                "tempo": 120.0
            },
            {
                "start_time": 21.6113636,
                "end_time": 22.0136364,
                "pitch": 57,
                "velocity": 4,
                "duration": 0.4022727,
                "tempo": 120.0
            },
            {
                "start_time": 22.0136364,
                "end_time": 22.1477273,
                "pitch": 49,
                "velocity": 4,
                "duration": 0.1340909,
                "tempo": 120.0
            },
            {
                "start_time": 22.1477273,
                "end_time": 22.5477273,
                "pitch": 41,
                "velocity": 4,
                "duration": 0.4,
                "tempo": 120.0
            },
            {
                "start_time": 22.5477273,
                "end_time": 22.6818182,
                "pitch": 49,
                "velocity": 4,
                "duration": 0.1340909,
                "tempo": 120.0
            },
            {
                "start_time": 22.6818182,
                "end_time": 23.0818182,
                "pitch": 57,
                "velocity": 4,
                "duration": 0.4,
                "tempo": 120.0
            },
            {
                "start_time": 23.0818182,
                "end_time": 23.35,
                "pitch": 49,
                "velocity": 4,
                "duration": 0.2681818,
                "tempo": 120.0
            },
            {
                "start_time": 23.35,
                "end_time": 23.3681818,
                "pitch": 42,
                "velocity": 4,
                "duration": 0.0181818,
                "tempo": 120.0
            },
            {
                "start_time": 23.3681818,
                "end_time": 23.6227273,
                "pitch": 30,
                "velocity": 4,
                "duration": 0.2545455,
                "tempo": 120.0
            },
            {
                "start_time": 23.6227273,
                "end_time": 23.7590909,
                "pitch": 37,
                "velocity": 4,
                "duration": 0.1363636,
                "tempo": 120.0
            },
            {
                "start_time": 23.7590909,
                "end_time": 24.1613636,
                "pitch": 45,
                "velocity": 4,
                "duration": 0.4022727,
                "tempo": 120.0
            },
            {
                "start_time": 24.1613636,
                "end_time": 24.2954545,
                "pitch": 37,
                "velocity": 4,
                "duration": 0.1340909,
                "tempo": 120.0
            },
            {
                "start_time": 24.2954545,
                "end_time": 24.7,
                "pitch": 30,
                "velocity": 4,
                "duration": 0.4045455,
                "tempo": 120.0
            },
            {
                "start_time": 24.7,
                "end_time": 24.8363636,
                "pitch": 37,
                "velocity": 4,
                "duration": 0.1363636,
                "tempo": 120.0
            },
            {
                "start_time": 24.8363636,
                "end_time": 25.2386364,
                "pitch": 45,
                "velocity": 4,
                "duration": 0.4022727,
                "tempo": 120.0
            },
            {
                "start_time": 25.2386364,
                "end_time": 25.5068182,
                "pitch": 37,
                "velocity": 4,
                "duration": 0.2681818,
                "tempo": 120.0
            },
            {
                "start_time": 25.5068182,
                "end_time": 25.775,
                "pitch": 30,
                "velocity": 4,
                "duration": 0.2681818,
                "tempo": 120.0
            },
            {
                "start_time": 25.775,
                "end_time": 25.9068182,
                "pitch": 37,
                "velocity": 4,
                "duration": 0.1318182,
                "tempo": 120.0
            },
            {
                "start_time": 25.9068182,
                "end_time": 26.3090909,
                "pitch": 45,
                "velocity": 4,
                "duration": 0.4022727,
                "tempo": 120.0
            },
            {
                "start_time": 26.3090909,
                "end_time": 26.4409091,
                "pitch": 37,
                "velocity": 4,
                "duration": 0.1318182,
                "tempo": 120.0
            },
            {
                "start_time": 26.4409091,
                "end_time": 26.8477273,
                "pitch": 30,
                "velocity": 4,
                "duration": 0.4068182,
                "tempo": 120.0
            },
            {
                "start_time": 26.8477273,
                "end_time": 26.9840909,
                "pitch": 37,
                "velocity": 4,
                "duration": 0.1363636,
                "tempo": 120.0
            },
            {
                "start_time": 26.9840909,
                "end_time": 27.3863636,
                "pitch": 45,
                "velocity": 4,
                "duration": 0.4022727,
                "tempo": 120.0
            },
            {
                "start_time": 27.3863636,
                "end_time": 27.6545455,
                "pitch": 37,
                "velocity": 4,
                "duration": 0.2681818,
                "tempo": 120.0
            },
            {
                "start_time": 27.6545455,
                "end_time": 27.925,
                "pitch": 30,
                "velocity": 4,
                "duration": 0.2704545,
                "tempo": 120.0
            },
            {
                "start_time": 27.925,
                "end_time": 28.0613636,
                "pitch": 51,
                "velocity": 4,
                "duration": 0.1363636,
                "tempo": 120.0
            },
            {
                "start_time": 28.0613636,
                "end_time": 28.4659091,
                "pitch": 59,
                "velocity": 4,
                "duration": 0.4045455,
                "tempo": 120.0
            },
            {
                "start_time": 28.4659091,
                "end_time": 28.5977273,
                "pitch": 51,
                "velocity": 4,
                "duration": 0.1318182,
                "tempo": 120.0
            },
            {
                "start_time": 28.5977273,
                "end_time": 29.0,
                "pitch": 43,
                "velocity": 4,
                "duration": 0.4022727,
                "tempo": 120.0
            },
            {
                "start_time": 29.0,
                "end_time": 29.1340909,
                "pitch": 51,
                "velocity": 4,
                "duration": 0.1340909,
                "tempo": 120.0
            },
            {
                "start_time": 29.1340909,
                "end_time": 29.5340909,
                "pitch": 59,
                "velocity": 4,
                "duration": 0.4,
                "tempo": 120.0
            },
            {
                "start_time": 29.5340909,
                "end_time": 29.8022727,
                "pitch": 51,
                "velocity": 4,
                "duration": 0.2681818,
                "tempo": 120.0
            },
            {
                "start_time": 29.8022727,
                "end_time": 30.0727273,
                "pitch": 44,
                "velocity": 4,
                "duration": 0.2704545,
                "tempo": 120.0
            },
            {
                "start_time": 30.0727273,
                "end_time": 30.2090909,
                "pitch": 51,
                "velocity": 4,
                "duration": 0.1363636,
                "tempo": 120.0
            },
            {
                "start_time": 30.2090909,
                "end_time": 30.6113636,
                "pitch": 59,
                "velocity": 4,
                "duration": 0.4022727,
                "tempo": 120.0
            },
            {
                "start_time": 30.6113636,
                "end_time": 30.7454545,
                "pitch": 51,
                "velocity": 4,
                "duration": 0.1340909,
                "tempo": 120.0
            },
            {
                "start_time": 30.7454545,
                "end_time": 31.1522727,
                "pitch": 43,
                "velocity": 4,
                "duration": 0.4068182,
                "tempo": 120.0
            },
            {
                "start_time": 31.1522727,
                "end_time": 31.2886364,
                "pitch": 51,
                "velocity": 4,
                "duration": 0.1363636,
                "tempo": 120.0
            },
            {
                "start_time": 31.2886364,
                "end_time": 31.6909091,
                "pitch": 59,
                "velocity": 4,
                "duration": 0.4022727,
                "tempo": 120.0
            },
            {
                "start_time": 31.6909091,
                "end_time": 31.7068182,
                "pitch": 51,
                "velocity": 4,
                "duration": 0.0159091,
                "tempo": 120.0
            },
            {
                "start_time": 31.7068182,
                "end_time": 31.9568182,
                "pitch": 24,
                "velocity": 4,
                "duration": 0.25,
                "tempo": 120.0
            },
            {
                "start_time": 31.9568182,
                "end_time": 32.225,
                "pitch": 17,
                "velocity": 4,
                "duration": 0.2681818,
                "tempo": 120.0
            },
            {
                "start_time": 32.225,
                "end_time": 32.3590909,
                "pitch": 24,
                "velocity": 4,
                "duration": 0.1340909,
                "tempo": 120.0
            },
            {
                "start_time": 32.3590909,
                "end_time": 32.7454545,
                "pitch": 32,
                "velocity": 4,
                "duration": 0.3863636,
                "tempo": 120.0
            },
            {
                "start_time": 32.7454545,
                "end_time": 32.8136364,
                "pitch": 24,
                "velocity": 4,
                "duration": 0.0681818,
                "tempo": 120.0
            },
            {
                "start_time": 32.8136364,
                "end_time": 32.8795455,
                "pitch": 33,
                "velocity": 4,
                "duration": 0.0659091,
                "tempo": 120.0
            },
            {
                "start_time": 32.8795455,
                "end_time": 33.2840909,
                "pitch": 25,
                "velocity": 4,
                "duration": 0.4045455,
                "tempo": 120.0
            },
            {
                "start_time": 33.2840909,
                "end_time": 33.4204545,
                "pitch": 33,
                "velocity": 4,
                "duration": 0.1363636,
                "tempo": 120.0
            },
            {
                "start_time": 33.4204545,
                "end_time": 33.825,
                "pitch": 42,
                "velocity": 4,
                "duration": 0.4045455,
                "tempo": 120.0
            },
            {
                "start_time": 33.825,
                "end_time": 34.0909091,
                "pitch": 33,
                "velocity": 4,
                "duration": 0.2659091,
                "tempo": 120.0
            },
            {
                "start_time": 34.0909091,
                "end_time": 34.3636364,
                "pitch": 26,
                "velocity": 4,
                "duration": 0.2727273,
                "tempo": 120.0
            },
            {
                "start_time": 34.3636364,
                "end_time": 34.5,
                "pitch": 33,
                "velocity": 4,
                "duration": 0.1363636,
                "tempo": 120.0
            },
            {
                "start_time": 34.5,
                "end_time": 34.6340909,
                "pitch": 42,
                "velocity": 4,
                "duration": 0.1340909,
                "tempo": 120.0
            }
        ]
    }
}