{
    "mood": "happy",
    "instruments": {
        "Electric Piano 1": [
            {
                "start_time": 4.0090909,
                "end_time": 4.1136364,
                "pitch": 60,
                "velocity": 101,
                "duration": 0.1045455,
                "tempo": 120.0
            },
            {
                "start_time": 4.1318182,
                "end_time": 4.2522727,
                "pitch": 65,
                "velocity": 101,
                "duration": 0.1204545,
                "tempo": 120.0
            },
            {
                "start_time": 4.2704545,
                "end_time": 4.375,
                "pitch": 67,
                "velocity": 101,
                "duration": 0.1045455,
                "tempo": 120.0
            },
            {
                "start_time": 4.3931818,
                "end_time": 4.8681818,
                "pitch": 69,
                "velocity": 101,
                "duration": 0.475,
                "tempo": 120.0
            },
            {
                "start_time": 4.8840909,
                "end_time": 5.1136364,
                "pitch": 70,
                "velocity": 101,
                "duration": 0.2295455,
                "tempo": 120.0
            },
            {
                "start_time": 5.1295455,
                "end_time": 5.3590909,
                "pitch": 69,
                "velocity": 101,
                "duration": 0.2295455,
                "tempo": 120.0
            },
            {
                "start_time": 5.3772727,
                "end_time": 5.6090909,
                "pitch": 67,
                "velocity": 101,
                "duration": 0.2318182,
                "tempo": 120.0
            },
            {
                "start_time": 5.6272727,
                "end_time": 5.8590909,
                "pitch": 65,
                "velocity": 101,
                "duration": 0.2318182,
                "tempo": 120.0
            },
            {
                "start_time": 5.8772727,
                "end_time": 6.1090909,
                "pitch": 67,
                "velocity": 101,
                "duration": 0.2318182,
                "tempo": 120.0
            },
            {
                "start_time": 6.1272727,
                "end_time": 6.2431818,
                "pitch": 67,
                "velocity": 101,
                "duration": 0.1159091,
                "tempo": 120.0
            },
            {
                "start_time": 6.2590909,
                "end_time": 7.8772727,
                "pitch": 69,
                "velocity": 101,
                "duration": 1.6181818,
                "tempo": 120.0
            },
            {
                "start_time": 8.025,
                "end_time": 8.1227273,
                "pitch": 60,
                "velocity": 101,
                "duration": 0.0977273,
                "tempo": 120.0
            },
            {
                "start_time": 8.1386364,
                "end_time": 8.2545455,
                "pitch": 65,
                "velocity": 101,
                "duration": 0.1159091,
                "tempo": 120.0
            },
            {
                "start_time": 8.2704545,
                "end_time": 8.3681818,
                "pitch": 67,
                "velocity": 101,
                "duration": 0.0977273,
                "tempo": 120.0
            },
            {
                "start_time": 8.3840909,
                "end_time": 8.8795455,
                "pitch": 69,
                "velocity": 101,
                "duration": 0.4954545,
                "tempo": 120.0
            },
            {
                "start_time": 8.8977273,
                "end_time": 9.1272727,
                "pitch": 70,
                "velocity": 101,
                "duration": 0.2295455,
                "tempo": 120.0
            },
            {
                "start_time": 9.1431818,
                "end_time": 9.3727273,
                "pitch": 69,
                "velocity": 101,
                "duration": 0.2295455,
                "tempo": 120.0
            },
            {
                "start_time": 9.3886364,
                "end_time": 9.6227273,
                "pitch": 67,
                "velocity": 101,
                "duration": 0.2340909,
                "tempo": 120.0
            },
            {
                "start_time": 9.6386364,
                "end_time": 9.8727273,
                "pitch": 65,
                "velocity": 101,
                "duration": 0.2340909,
                "tempo": 120.0
            },
            {
                "start_time": 9.8886364,
                "end_time": 10.2886364,
                "pitch": 67,
                "velocity": 101,
                "duration": 0.4,
                "tempo": 120.0
            },
            {
                "start_time": 10.2886364,
                "end_time": 10.3727273,
                "pitch": 67,
                "velocity": 101,
                "duration": 0.0840909,
                "tempo": 120.0
            },
            {
                "start_time": 10.3886364,
                "end_time": 10.8840909,
                "pitch": 69,
                "velocity": 101,
                "duration": 0.4954545,
                "tempo": 120.0
            },
            {
                "start_time": 10.9022727,
                "end_time": 11.3772727,
                "pitch": 70,
                "velocity": 101,
                "duration": 0.475,
                "tempo": 120.0
            },
            {
                "start_time": 11.3931818,
                "end_time": 11.8886364,
                "pitch": 72,
                "velocity": 101,
                "duration": 0.4954545,
                "tempo": 120.0
            },
            {
                "start_time": 11.9068182,
                "end_time": 12.2659091,
                "pitch": 72,
                "velocity": 101,
                "duration": 0.3590909,
                "tempo": 120.0
            },
            {
                "start_time": 12.2840909,
                "end_time": 12.6363636,
                "pitch": 70,
                "velocity": 101,
                "duration": 0.3522727,
                "tempo": 120.0
            },
            {
                "start_time": 12.6545455,
                "end_time": 13.3863636,
                "pitch": 65,
                "velocity": 101,
                "duration": 0.7318182,
                "tempo": 120.0
            },
            {
                "start_time": 13.4022727,
                "end_time": 13.6409091,
                "pitch": 62,
                "velocity": 101,
                "duration": 0.2386364,
                "tempo": 120.0
            },
            {
                "start_time": 13.6590909,
                "end_time": 13.8977273,
                "pitch": 65,
                "velocity": 101,
                "duration": 0.2386364,
                "tempo": 120.0
            },
            {
                "start_time": 13.9136364,
                "end_time": 14.275,
                "pitch": 72,
                "velocity": 101,
                "duration": 0.3613636,
                "tempo": 120.0
            },
            {
                "start_time": 14.2909091,
                "end_time": 14.6454545,
                "pitch": 70,
                "velocity": 101,
                "duration": 0.3545455,
                "tempo": 120.0
            },
            {
                "start_time": 14.6613636,
                "end_time": 15.1477273,
                "pitch": 65,
                "velocity": 101,
                "duration": 0.4863636,
                "tempo": 120.0
            },
            {
                "start_time": 15.1636364,
                "end_time": 15.3931818,
                "pitch": 61,
                "velocity": 101,
                "duration": 0.2295455,
                "tempo": 120.0
            },
            {
                "start_time": 15.4113636,
                "end_time": 15.65,
                "pitch": 65,
                "velocity": 101,
                "duration": 0.2386364,
                "tempo": 120.0
            },
            {
                "start_time": 15.6659091,
                "end_time": 15.9068182,
                "pitch": 70,
                "velocity": 101,
                "duration": 0.2409091,
                "tempo": 120.0
            },
            {
                "start_time": 15.9227273,
                "end_time": 16.2840909,
                "pitch": 70,
                "velocity": 101,
                "duration": 0.3613636,
                "tempo": 120.0
            },
            {
                "start_time": 16.3,
                "end_time": 19.9181818,
                "pitch": 69,
                "velocity": 101,
                "duration": 3.6181818,
                "tempo": 120.0
            }
        ],
        "Acoustic Bass": [
            {
                "start_time": 0.0,
                "end_time": 0.1727273,
                "pitch": 29,
                "velocity": 80,
                "duration": 0.1727273,
                "tempo": 120.0
            },
            {
                "start_time": 0.1863636,
                "end_time": 0.3727273,
                "pitch": 41,
                "velocity": 80,
                "duration": 0.1863636,
                "tempo": 120.0
            },
            {
                "start_time": 0.3863636,
                "end_time": 0.6113636,
                "pitch": 29,
                "velocity": 80,
                "duration": 0.225,
                "tempo": 120.0
            },
            {
                "start_time": 0.6272727,
                "end_time": 0.85,
                "pitch": 41,
                "velocity": 80,
                "duration": 0.2227273,
                "tempo": 120.0
            },
            {
                "start_time": 0.8659091,
                "end_time": 1.1,
                "pitch": 29,
                "velocity": 80,
                "duration": 0.2340909,
                "tempo": 120.0
            },
            {
                "start_time": 1.1159091,
                "end_time": 1.35,
                "pitch": 41,
                "velocity": 80,
                "duration": 0.2340909,
                "tempo": 120.0
            },
            {
                "start_time": 1.3659091,
                "end_time": 1.6068182,
                "pitch": 29,
                "velocity": 80,
                "duration": 0.2409091,
                "tempo": 120.0
            },
            {
                "start_time": 1.6227273,
                "end_time": 1.8636364,
                "pitch": 41,
                "velocity": 80,
                "duration": 0.2409091,
                "tempo": 120.0
            },
            {
                "start_time": 1.8795455,
                "end_time": 2.1090909,
                "pitch": 29,
                "velocity": 80,
                "duration": 0.2295455,
                "tempo": 120.0
            },
            {
                "start_time": 2.125,
                "end_time": 2.3545455,
                "pitch": 41,
                "velocity": 80,
                "duration": 0.2295455,
                "tempo": 120.0
            },
            {
                "start_time": 2.3704545,
                "end_time": 2.6045455,
                "pitch": 29,
                "velocity": 80,
                "duration": 0.2340909,
                "tempo": 120.0
            },
            {
                "start_time": 2.6204545,
                "end_time": 2.8545455,
                "pitch": 41,
                "velocity": 80,
                "duration": 0.2340909,
                "tempo": 120.0
            },
            {
                "start_time": 2.8704545,
                "end_time": 3.1045455,
                "pitch": 29,
                "velocity": 80,
                "duration": 0.2340909,
                "tempo": 120.0
            },
            {
                "start_time": 3.1204545,
                "end_time": 3.3545455,
                "pitch": 41,
                "velocity": 80,
                "duration": 0.2340909,
                "tempo": 120.0
            },
            {
                "start_time": 3.3704545,
                "end_time": 3.6045455,
                "pitch": 29,
                "velocity": 80,
                "duration": 0.2340909,
                "tempo": 120.0
            },
            {
                "start_time": 3.6204545,
                "end_time": 3.8545455,
                "pitch": 41,
                "velocity": 80,
                "duration": 0.2340909,
                "tempo": 120.0
            },
            {
                "start_time": 3.8704545,
                "end_time": 4.1136364,
                "pitch": 29,
                "velocity": 80,
                "duration": 0.2431818,
                "tempo": 120.0
            },
            {
                "start_time": 4.1318182,
                "end_time": 4.375,
                "pitch": 41,
                "velocity": 80,
                "duration": 0.2431818,
                "tempo": 120.0
            },
            {
                "start_time": 4.3931818,
                "end_time": 4.6227273,
                "pitch": 29,
                "velocity": 80,
                "duration": 0.2295455,
                "tempo": 120.0
            },
            {
                "start_time": 4.6386364,
                "end_time": 4.8681818,
                "pitch": 41,
                "velocity": 80,
                "duration": 0.2295455,
                "tempo": 120.0
            },
            {
                "start_time": 4.8840909,
                "end_time": 5.1136364,
                "pitch": 29,
                "velocity": 80,
                "duration": 0.2295455,
                "tempo": 120.0
            },
            {
                "start_time": 5.1295455,
                "end_time": 5.3590909,
                "pitch": 41,
                "velocity": 80,
                "duration": 0.2295455,
                "tempo": 120.0
            },
            {
                "start_time": 5.3772727,
                "end_time": 5.6090909,
                "pitch": 29,
                "velocity": 80,
                "duration": 0.2318182,
                "tempo": 120.0
            },
            {
                "start_time": 5.6272727,
                "end_time": 5.8590909,
                "pitch": 41,
                "velocity": 80,
                "duration": 0.2318182,
                "tempo": 120.0
            },
            {
                "start_time": 5.8772727,
                "end_time": 6.1090909,
                "pitch": 29,
                "velocity": 80,
                "duration": 0.2318182,
                "tempo": 120.0
            },
            {
                "start_time": 6.1272727,
                "end_time": 6.3590909,
                "pitch": 41,
                "velocity": 80,
                "duration": 0.2318182,
                "tempo": 120.0
            },
            {
                "start_time": 6.3772727,
                "end_time": 6.6159091,
                "pitch": 29,
                "velocity": 80,
                "duration": 0.2386364,
                "tempo": 120.0
            },
            {
                "start_time": 6.6318182,
                "end_time": 6.8727273,
                "pitch": 41,
                "velocity": 80,
                "duration": 0.2409091,
                "tempo": 120.0
            },
            {
                "start_time": 6.8886364,
                "end_time": 7.1181818,
                "pitch": 29,
                "velocity": 80,
                "duration": 0.2295455,
                "tempo": 120.0
            },
            {
                "start_time": 7.1340909,
                "end_time": 7.3636364,
                "pitch": 41,
                "velocity": 80,
                "duration": 0.2295455,
                "tempo": 120.0
            },
            {
                "start_time": 7.3818182,
                "end_time": 7.6204545,
                "pitch": 29,
                "velocity": 80,
                "duration": 0.2386364,
                "tempo": 120.0
            },
            {
                "start_time": 7.6363636,
                "end_time": 7.8772727,
                "pitch": 41,
                "velocity": 80,
                "duration": 0.2409091,
                "tempo": 120.0
            },
            {
                "start_time": 7.8931818,
                "end_time": 8.1227273,
                "pitch": 27,
                "velocity": 80,
                "duration": 0.2295455,
                "tempo": 120.0
            },
            {
                "start_time": 8.1386364,
                "end_time": 8.3681818,
                "pitch": 39,
                "velocity": 80,
                "duration": 0.2295455,
                "tempo": 120.0
            },
            {
                "start_time": 8.3840909,
                "end_time": 8.625,
                "pitch": 27,
                "velocity": 80,
                "duration": 0.2409091,
                "tempo": 120.0
            },
            {
                "start_time": 8.6409091,
                "end_time": 8.8795455,
                "pitch": 39,
                "velocity": 80,
                "duration": 0.2386364,
                "tempo": 120.0
            },
            {
                "start_time": 8.8977273,
                "end_time": 9.1272727,
                "pitch": 27,
                "velocity": 80,
                "duration": 0.2295455,
                "tempo": 120.0
            },
            {
                "start_time": 9.1431818,
                "end_time": 9.3727273,
                "pitch": 39,
                "velocity": 80,
                "duration": 0.2295455,
                "tempo": 120.0
            },
            {
                "start_time": 9.3886364,
                "end_time": 9.6227273,
                "pitch": 27,
                "velocity": 80,
                "duration": 0.2340909,
                "tempo": 120.0
            },
            {
                "start_time": 9.6386364,
                "end_time": 9.8727273,
                "pitch": 39,
                "velocity": 80,
                "duration": 0.2340909,
                "tempo": 120.0
            },
            {
                "start_time": 9.8886364,
                "end_time": 10.1227273,
                "pitch": 27,
                "velocity": 80,
                "duration": 0.2340909,
                "tempo": 120.0
            },
            {
                "start_time": 10.1386364,
                "end_time": 10.3727273,
                "pitch": 39,
                "velocity": 80,
                "duration": 0.2340909,
                "tempo": 120.0
            },
            {
                "start_time": 10.3886364,
                "end_time": 10.6272727,
                "pitch": 27,
                "velocity": 80,
                "duration": 0.2386364,
                "tempo": 120.0
            },
            {
                "start_time": 10.6454545,
                "end_time": 10.8840909,
                "pitch": 39,
                "velocity": 80,
                "duration": 0.2386364,
                "tempo": 120.0
            },
            {
                "start_time": 10.9022727,
                "end_time": 11.1318182,
                "pitch": 27,
                "velocity": 80,
                "duration": 0.2295455,
                "tempo": 120.0
            },
            {
                "start_time": 11.1477273,
                "end_time": 11.3772727,
                "pitch": 39,
                "velocity": 80,
                "duration": 0.2295455,
                "tempo": 120.0
            },
            {
                "start_time": 11.3931818,
                "end_time": 11.6318182,
                "pitch": 27,
                "velocity": 80,
                "duration": 0.2386364,
                "tempo": 120.0
            },
            {
                "start_time": 11.65,
                "end_time": 11.8886364,
                "pitch": 39,
                "velocity": 80,
                "duration": 0.2386364,
                "tempo": 120.0
            },
            {
                "start_time": 11.9068182,
                "end_time": 12.1363636,
                "pitch": 34,
                "velocity": 80,
                "duration": 0.2295455,
                "tempo": 120.0
            },
            {
                "start_time": 12.1522727,
                "end_time": 12.3818182,
                "pitch": 46,
                "velocity": 80,
                "duration": 0.2295455,
                "tempo": 120.0
            },
            {
                "start_time": 12.3977273,
                "end_time": 12.6363636,
                "pitch": 34,
                "velocity": 80,
                "duration": 0.2386364,
                "tempo": 120.0
            },
            {
                "start_time": 12.6545455,
                "end_time": 12.8931818,
                "pitch": 46,
                "velocity": 80,
                "duration": 0.2386364,
                "tempo": 120.0
            },
            {
                "start_time": 12.9090909,
                "end_time": 13.1386364,
                "pitch": 34,
                "velocity": 80,
                "duration": 0.2295455,
                "tempo": 120.0
            },
            {
                "start_time": 13.1568182,
                "end_time": 13.3863636,
                "pitch": 46,
                "velocity": 80,
                "duration": 0.2295455,
                "tempo": 120.0
            },
            {
                "start_time": 13.4022727,
                "end_time": 13.6409091,
                "pitch": 34,
                "velocity": 80,
                "duration": 0.2386364,
                "tempo": 120.0
            },
            {
                "start_time": 13.6590909,
                "end_time": 13.8977273,
                "pitch": 46,
                "velocity": 80,
                "duration": 0.2386364,
                "tempo": 120.0
            },
            {
                "start_time": 13.9136364,
                "end_time": 14.1431818,
                "pitch": 34,
                "velocity": 80,
                "duration": 0.2295455,
                "tempo": 120.0
            },
            {
                "start_time": 14.1613636,
                "end_time": 14.3886364,
                "pitch": 46,
                "velocity": 80,
                "duration": 0.2272727,
                "tempo": 120.0
            },
            {
                "start_time": 14.4068182,
                "end_time": 14.6454545,
                "pitch": 34,
                "velocity": 80,
                "duration": 0.2386364,
                "tempo": 120.0
            },
            {
                "start_time": 14.6613636,
                "end_time": 14.9022727,
                "pitch": 46,
                "velocity": 80,
                "duration": 0.2409091,
                "tempo": 120.0
            },
            {
                "start_time": 14.9181818,
                "end_time": 15.1477273,
                "pitch": 34,
                "velocity": 80,
                "duration": 0.2295455,
                "tempo": 120.0
            },
            {
                "start_time": 15.1636364,
                "end_time": 15.3931818,
                "pitch": 46,
                "velocity": 80,
                "duration": 0.2295455,
                "tempo": 120.0
            },
            {
                "start_time": 15.4113636,
                "end_time": 15.65,
                "pitch": 34,
                "velocity": 80,
                "duration": 0.2386364,
                "tempo": 120.0
            },
            {
                "start_time": 15.6659091,
                "end_time": 15.9068182,
                "pitch": 46,
                "velocity": 80,
                "duration": 0.2409091,
                "tempo": 120.0
            },
            {
                "start_time": 15.9227273,
                "end_time": 16.1522727,
                "pitch": 29,
                "velocity": 80,
                "duration": 0.2295455,
                "tempo": 120.0
            },
            {
                "start_time": 16.1681818,
                "end_time": 16.3977273,
                "pitch": 41,
                "velocity": 80,
                "duration": 0.2295455,
                "tempo": 120.0
            },
            {
                "start_time": 16.4136364,
                "end_time": 16.6545455,
                "pitch": 29,
                "velocity": 80,
                "duration": 0.2409091,
                "tempo": 120.0
            },
            {
                "start_time": 16.6704545,
                "end_time": 16.9090909,
                "pitch": 41,
                "velocity": 80,
                "duration": 0.2386364,
                "tempo": 120.0
            },
            {
                "start_time": 16.9272727,
                "end_time": 17.1568182,
                "pitch": 29,
                "velocity": 80,
                "duration": 0.2295455,
                "tempo": 120.0
            },
            {
                "start_time": 17.1727273,
                "end_time": 17.4022727,
                "pitch": 41,
                "velocity": 80,
                "duration": 0.2295455,
                "tempo": 120.0
            },
            {
                "start_time": 17.4181818,
                "end_time": 17.6568182,
                "pitch": 29,
                "velocity": 80,
                "duration": 0.2386364,
                "tempo": 120.0
            },
            {
                "start_time": 17.675,
                "end_time": 17.9136364,
                "pitch": 41,
                "velocity": 80,
                "duration": 0.2386364,
                "tempo": 120.0
            },
            {
                "start_time": 17.9318182,
                "end_time": 18.1613636,
                "pitch": 29,
                "velocity": 80,
                "duration": 0.2295455,
                "tempo": 120.0
            },
            {
                "start_time": 18.1772727,
                "end_time": 18.4068182,
                "pitch": 41,
                "velocity": 80,
                "duration": 0.2295455,
                "tempo": 120.0
            },
            {
                "start_time": 18.4227273,
                "end_time": 18.6568182,
                "pitch": 29,
                "velocity": 80,
                "duration": 0.2340909,
                "tempo": 120.0
            },
            {
                "start_time": 18.6727273,
                "end_time": 18.9068182,
                "pitch": 41,
                "velocity": 80,
                "duration": 0.2340909,
                "tempo": 120.0
            },
            {
                "start_time": 18.9227273,
                "end_time": 19.1568182,
                "pitch": 29,
                "velocity": 80,
                "duration": 0.2340909,
                "tempo": 120.0
            },
            {
                "start_time": 19.1727273,
                "end_time": 19.4068182,
                "pitch": 41,
                "velocity": 80,
                "duration": 0.2340909,
                "tempo": 120.0
            },
            {
                "start_time": 19.4227273,
                "end_time": 19.6613636,
                "pitch": 29,
                "velocity": 80,
                "duration": 0.2386364,
                "tempo": 120.0
            },
            {
                "start_time": 19.6795455,
                "end_time": 19.9181818,
                "pitch": 41,
                "velocity": 80,
                "duration": 0.2386364,
                "tempo": 120.0
            }
        ],
        "Electric Guitar (clean)": [
            {
                "start_time": 0.1863636,
                "end_time": 0.2795455,
                "pitch": 60,
                "velocity": 51,
                "duration": 0.0931818,
                "tempo": 120.0
            },
            {
                "start_time": 0.2931818,
                "end_time": 0.3727273,
                "pitch": 60,
                "velocity": 51,
                "duration": 0.0795455,
                "tempo": 120.0
            },
            {
                "start_time": 0.6272727,
                "end_time": 0.7386364,
                "pitch": 60,
                "velocity": 51,
                "duration": 0.1113636,
                "tempo": 120.0
            },
            {
                "start_time": 1.1159091,
                "end_time": 1.2340909,
                "pitch": 60,
                "velocity": 51,
                "duration": 0.1181818,
                "tempo": 120.0
            },
            {
                "start_time": 1.25,
                "end_time": 1.35,
                "pitch": 60,
                "velocity": 51,
                "duration": 0.1,
                "tempo": 120.0
            },
            {
                "start_time": 1.6227273,
                "end_time": 1.7431818,
                "pitch": 60,
                "velocity": 51,
                "duration": 0.1204545,
                "tempo": 120.0
            },
            {
                "start_time": 2.125,
                "end_time": 2.2409091,
                "pitch": 60,
                "velocity": 51,
                "duration": 0.1159091,
                "tempo": 120.0
            },
            {
                "start_time": 2.2568182,
                "end_time": 2.3545455,
                "pitch": 60,
                "velocity": 51,
                "duration": 0.0977273,
                "tempo": 120.0
            },
            {
                "start_time": 2.6204545,
                "end_time": 2.7386364,
                "pitch": 60,
                "velocity": 51,
                "duration": 0.1181818,
                "tempo": 120.0
            },
            {
                "start_time": 3.1204545,
                "end_time": 3.2386364,
                "pitch": 60,
                "velocity": 51,
                "duration": 0.1181818,
                "tempo": 120.0
            },
            {
                "start_time": 3.2545455,
                "end_time": 3.3545455,
                "pitch": 60,
                "velocity": 51,
                "duration": 0.1,
                "tempo": 120.0
            },
            {
                "start_time": 3.6204545,
                "end_time": 3.7386364,
                "pitch": 60,
                "velocity": 51,
                "duration": 0.1181818,
                "tempo": 120.0
            },
            {
                "start_time": 4.1318182,
                "end_time": 4.2522727,
                "pitch": 60,
                "velocity": 51,
                "duration": 0.1204545,
                "tempo": 120.0
            },
            {
                "start_time": 4.2704545,
                "end_time": 4.375,
                "pitch": 60,
                "velocity": 51,
                "duration": 0.1045455,
                "tempo": 120.0
            },
            {
                "start_time": 4.6386364,
                "end_time": 4.7545455,
                "pitch": 60,
                "velocity": 51,
                "duration": 0.1159091,
                "tempo": 120.0
            },
            {
                "start_time": 5.1295455,
                "end_time": 5.2454545,
                "pitch": 60,
                "velocity": 51,
                "duration": 0.1159091,
                "tempo": 120.0
            },
            {
                "start_time": 5.2613636,
                "end_time": 5.3590909,
                "pitch": 60,
                "velocity": 51,
                "duration": 0.0977273,
                "tempo": 120.0
            },
            {
                "start_time": 5.6272727,
                "end_time": 5.7431818,
                "pitch": 60,
                "velocity": 51,
                "duration": 0.1159091,
                "tempo": 120.0
            },
            {
                "start_time": 6.1272727,
                "end_time": 6.2431818,
                "pitch": 60,
                "velocity": 51,
                "duration": 0.1159091,
                "tempo": 120.0
            },
            {
                "start_time": 6.2590909,
                "end_time": 6.3590909,
                "pitch": 60,
                "velocity": 51,
                "duration": 0.1,
                "tempo": 120.0
            },
            {
                "start_time": 6.6318182,
                "end_time": 6.7522727,
                "pitch": 60,
                "velocity": 51,
                "duration": 0.1204545,
                "tempo": 120.0
            },
            {
                "start_time": 7.1340909,
                "end_time": 7.25,
                "pitch": 60,
                "velocity": 51,
                "duration": 0.1159091,
                "tempo": 120.0
            },
            {
                "start_time": 7.2659091,
                "end_time": 7.3636364,
                "pitch": 60,
                "velocity": 51,
                "duration": 0.0977273,
                "tempo": 120.0
            },
            {
                "start_time": 7.6363636,
                "end_time": 7.7568182,
                "pitch": 60,
                "velocity": 51,
                "duration": 0.1204545,
                "tempo": 120.0
            },
            {
                "start_time": 8.1386364,
                "end_time": 8.2545455,
                "pitch": 60,
                "velocity": 51,
                "duration": 0.1159091,
                "tempo": 120.0
            },
            {
                "start_time": 8.2704545,
                "end_time": 8.3681818,
                "pitch": 60,
                "velocity": 51,
                "duration": 0.0977273,
                "tempo": 120.0
            },
            {
                "start_time": 8.6409091,
                "end_time": 8.7613636,
                "pitch": 60,
                "velocity": 51,
                "duration": 0.1204545,
                "tempo": 120.0
            },
            {
                "start_time": 9.1431818,
                "end_time": 9.2590909,
                "pitch": 60,
                "velocity": 51,
                "duration": 0.1159091,
                "tempo": 120.0
            },
            {
                "start_time": 9.275,
                "end_time": 9.3727273,
                "pitch": 60,
                "velocity": 51,
                "duration": 0.0977273,
                "tempo": 120.0
            },
            {
                "start_time": 9.6386364,
                "end_time": 9.7568182,
                "pitch": 60,
                "velocity": 51,
                "duration": 0.1181818,
                "tempo": 120.0
            },
            {
                "start_time": 10.1386364,
                "end_time": 10.2568182,
                "pitch": 60,
                "velocity": 51,
                "duration": 0.1181818,
                "tempo": 120.0
            },
            {
                "start_time": 10.2727273,
                "end_time": 10.3727273,
                "pitch": 60,
                "velocity": 51,
                "duration": 0.1,
                "tempo": 120.0
            },
            {
                "start_time": 10.6454545,
                "end_time": 10.7659091,
                "pitch": 60,
                "velocity": 51,
                "duration": 0.1204545,
                "tempo": 120.0
            },
            {
                "start_time": 11.1477273,
                "end_time": 11.2613636,
                "pitch": 60,
                "velocity": 51,
                "duration": 0.1136364,
                "tempo": 120.0
            },
            {
                "start_time": 11.2795455,
                "end_time": 11.3772727,
                "pitch": 60,
                "velocity": 51,
                "duration": 0.0977273,
                "tempo": 120.0
            },
            {
                "start_time": 11.65,
                "end_time": 11.7681818,
                "pitch": 60,
                "velocity": 51,
                "duration": 0.1181818,
                "tempo": 120.0
            },
            {
                "start_time": 12.1522727,
                "end_time": 12.2659091,
                "pitch": 70,
                "velocity": 51,
                "duration": 0.1136364,
                "tempo": 120.0
            },
            {
                "start_time": 12.2840909,
                "end_time": 12.3818182,
                "pitch": 70,
                "velocity": 51,
                "duration": 0.0977273,
                "tempo": 120.0
            },
            {
                "start_time": 12.6545455,
                "end_time": 12.7727273,
                "pitch": 70,
                "velocity": 51,
                "duration": 0.1181818,
                "tempo": 120.0
            },
            {
                "start_time": 13.1568182,
                "end_time": 13.2704545,
                "pitch": 70,
                "velocity": 51,
                "duration": 0.1136364,
                "tempo": 120.0
            },
            {
                "start_time": 13.2863636,
                "end_time": 13.3863636,
                "pitch": 70,
                "velocity": 51,
                "duration": 0.1,
                "tempo": 120.0
            },
            {
                "start_time": 13.6590909,
                "end_time": 13.7772727,
                "pitch": 70,
                "velocity": 51,
                "duration": 0.1181818,
                "tempo": 120.0
            },
            {
                "start_time": 14.1613636,
                "end_time": 14.275,
                "pitch": 70,
                "velocity": 51,
                "duration": 0.1136364,
                "tempo": 120.0
            },
            {
                "start_time": 14.2909091,
                "end_time": 14.3886364,
                "pitch": 70,
                "velocity": 51,
                "duration": 0.0977273,
                "tempo": 120.0
            },
            {
                "start_time": 14.6613636,
                "end_time": 14.7818182,
                "pitch": 70,
                "velocity": 51,
                "duration": 0.1204545,
                "tempo": 120.0
            },
            {
                "start_time": 15.1636364,
                "end_time": 15.2795455,
                "pitch": 70,
                "velocity": 51,
                "duration": 0.1159091,
                "tempo": 120.0
            },
            {
                "start_time": 15.2954545,
                "end_time": 15.3931818,
                "pitch": 70,
                "velocity": 51,
                "duration": 0.0977273,
                "tempo": 120.0
            },
            {
                "start_time": 15.6659091,
                "end_time": 15.7863636,
                "pitch": 70,
                "velocity": 51,
                "duration": 0.1204545,
                "tempo": 120.0
            },
            {
                "start_time": 16.1681818,
                "end_time": 16.2840909,
                "pitch": 60,
                "velocity": 51,
                "duration": 0.1159091,
                "tempo": 120.0
            },
            {
                "start_time": 16.3,
                "end_time": 16.3977273,
                "pitch": 60,
                "velocity": 51,
                "duration": 0.0977273,
                "tempo": 120.0
            },
            {
                "start_time": 16.6704545,
                "end_time": 16.7909091,
                "pitch": 60,
                "velocity": 51,
                "duration": 0.1204545,
                "tempo": 120.0
            },
            {
                "start_time": 17.1727273,
                "end_time": 17.2886364,
                "pitch": 60,
                "velocity": 51,
                "duration": 0.1159091,
                "tempo": 120.0
            },
            {
                "start_time": 17.3045455,
                "end_time": 17.4022727,
                "pitch": 60,
                "velocity": 51,
                "duration": 0.0977273,
                "tempo": 120.0
            },
            {
                "start_time": 17.675,
                "end_time": 17.7954545,
                "pitch": 60,
                "velocity": 51,
                "duration": 0.1204545,
                "tempo": 120.0
            },
            {
                "start_time": 18.1772727,
                "end_time": 18.2909091,
                "pitch": 60,
                "velocity": 51,
                "duration": 0.1136364,
                "tempo": 120.0
            },
            {
                "start_time": 18.3090909,
                "end_time": 18.4068182,
                "pitch": 60,
                "velocity": 51,
                "duration": 0.0977273,
                "tempo": 120.0
            },
            {
                "start_time": 18.6727273,
                "end_time": 18.7886364,
                "pitch": 60,
                "velocity": 51,
                "duration": 0.1159091,
                "tempo": 120.0
            },
            {
                "start_time": 19.1727273,
                "end_time": 19.2886364,
                "pitch": 60,
                "velocity": 51,
                "duration": 0.1159091,
                "tempo": 120.0
            },
            {
                "start_time": 19.3068182,
                "end_time": 19.4068182,
                "pitch": 60,
                "velocity": 51,
                "duration": 0.1,
                "tempo": 120.0
            },
            {
                "start_time": 19.6795455,
                "end_time": 19.8,
                "pitch": 60,
                "velocity": 51,
                "duration": 0.1204545,
                "tempo": 120.0
            }
        ]
    }
}