{
    "track_id": "06_Over_5",
    "mood": "sad",
    "instruments": {
        "Lead 1 (square)": [
            {
                "pitch": 37,
                "velocity": 15,
                "duration": 2.2,
                "tempo": 120.0
            },
            {
                "pitch": 35,
                "velocity": 15,
                "duration": 0.4386,
                "tempo": 120.0
            },
            {
                "pitch": 37,
                "velocity": 15,
                "duration": 2.1909,
                "tempo": 120.0
            },
            {
                "pitch": 35,
                "velocity": 15,
                "duration": 0.4409,
                "tempo": 120.0
            },
            {
                "pitch": 40,
                "velocity": 15,
                "duration": 2.6318,
                "tempo": 120.0
            },
            {
                "pitch": 37,
                "velocity": 15,
                "duration": 2.1977,
                "tempo": 120.0
            },
            {
                "pitch": 37,
                "velocity": 15,
                "duration": 0.4409,
                "tempo": 120.0
            },
            {
                "pitch": 35,
                "velocity": 15,
                "duration": 2.1886,
                "tempo": 120.0
            },
            {
                "pitch": 35,
                "velocity": 15,
                "duration": 0.4409,
                "tempo": 120.0
            },
            {
                "pitch": 34,
                "velocity": 15,
                "duration": 2.1886,
                "tempo": 120.0
            },
            {
                "pitch": 34,
                "velocity": 15,
                "duration": 0.4409,
                "tempo": 120.0
            },
            {
                "pitch": 33,
                "velocity": 15,
                "duration": 1.3205,
                "tempo": 120.0
            },
            {
                "pitch": 0,
                "velocity": 0,
                "duration": 0.4386,
                "tempo": 0
            },
            {
                "pitch": 35,
                "velocity": 15,
                "duration": 0.4295,
                "tempo": 120.0
            },
            {
                "pitch": 35,
                "velocity": 15,
                "duration": 0.4409,
                "tempo": 120.0
            },
            {
                "pitch": 40,
                "velocity": 15,
                "duration": 10.5273,
                "tempo": 120.0
            },
            {
                "pitch": 37,
                "velocity": 15,
                "duration": 2.1909,
                "tempo": 120.0
            },
            {
                "pitch": 37,
                "velocity": 15,
                "duration": 0.4386,
                "tempo": 120.0
            },
            {
                "pitch": 35,
                "velocity": 15,
                "duration": 2.2,
                "tempo": 120.0
            },
            {
                "pitch": 35,
                "velocity": 15,
                "duration": 0.4295,
                "tempo": 120.0
            },
            {
                "pitch": 34,
                "velocity": 15,
                "duration": 2.2,
                "tempo": 120.0
            },
            {
                "pitch": 34,
                "velocity": 15,
                "duration": 0.4386,
                "tempo": 120.0
            },
            {
                "pitch": 33,
                "velocity": 15,
                "duration": 1.3114,
                "tempo": 120.0
            },
            {
                "pitch": 0,
                "velocity": 0,
                "duration": 0.4386,
                "tempo": 0
            },
            {
                "pitch": 35,
                "velocity": 15,
                "duration": 0.4409,
                "tempo": 120.0
            },
            {
                "pitch": 35,
                "velocity": 15,
                "duration": 0.4386,
                "tempo": 120.0
            },
            {
                "pitch": 37,
                "velocity": 15,
                "duration": 2.1909,
                "tempo": 120.0
            },
            {
                "pitch": 37,
                "velocity": 15,
                "duration": 0.4386,
                "tempo": 120.0
            },
            {
                "pitch": 35,
                "velocity": 15,
                "duration": 2.1909,
                "tempo": 120.0
            },
            {
                "pitch": 35,
                "velocity": 15,
                "duration": 0.4409,
                "tempo": 120.0
            },
            {
                "pitch": 34,
                "velocity": 15,
                "duration": 2.1886,
                "tempo": 120.0
            },
            {
                "pitch": 34,
                "velocity": 15,
                "duration": 0.45,
                "tempo": 120.0
            },
            {
                "pitch": 33,
                "velocity": 15,
                "duration": 1.3091,
                "tempo": 120.0
            },
            {
                "pitch": 42,
                "velocity": 15,
                "duration": 21.0455,
                "tempo": 120.0
            },
            {
                "pitch": 0,
                "velocity": 0,
                "duration": 0.4409,
                "tempo": 0
            },
            {
                "pitch": 35,
                "velocity": 15,
                "duration": 0.4386,
                "tempo": 120.0
            },
            {
                "pitch": 35,
                "velocity": 15,
                "duration": 0.4409,
                "tempo": 120.0
            },
            {
                "pitch": 40,
                "velocity": 15,
                "duration": 21.0568,
                "tempo": 120.0
            },
            {
                "pitch": 37,
                "velocity": 15,
                "duration": 2.1886,
                "tempo": 120.0
            },
            {
                "pitch": 37,
                "velocity": 15,
                "duration": 0.4409,
                "tempo": 120.0
            },
            {
                "pitch": 35,
                "velocity": 15,
                "duration": 2.1909,
                "tempo": 120.0
            },
            {
                "pitch": 35,
                "velocity": 15,
                "duration": 0.4386,
                "tempo": 120.0
            },
            {
                "pitch": 33,
                "velocity": 15,
                "duration": 2.1909,
                "tempo": 120.0
            },
            {
                "pitch": 33,
                "velocity": 15,
                "duration": 0.4386,
                "tempo": 120.0
            },
            {
                "pitch": 40,
                "velocity": 15,
                "duration": 7.8886,
                "tempo": 120.0
            },
            {
                "pitch": 36,
                "velocity": 15,
                "duration": 0.8795,
                "tempo": 120.0
            },
            {
                "pitch": 36,
                "velocity": 15,
                "duration": 0.2159,
                "tempo": 120.0
            },
            {
                "pitch": 0,
                "velocity": 0,
                "duration": 1.5341,
                "tempo": 0
            },
            {
                "pitch": 38,
                "velocity": 15,
                "duration": 2.1909,
                "tempo": 120.0
            },
            {
                "pitch": 38,
                "velocity": 15,
                "duration": 0.4386,
                "tempo": 120.0
            },
            {
                "pitch": 36,
                "velocity": 15,
                "duration": 2.1909,
                "tempo": 120.0
            },
            {
                "pitch": 36,
                "velocity": 15,
                "duration": 0.4386,
                "tempo": 120.0
            },
            {
                "pitch": 35,
                "velocity": 15,
                "duration": 2.2,
                "tempo": 120.0
            },
            {
                "pitch": 35,
                "velocity": 15,
                "duration": 0.4295,
                "tempo": 120.0
            },
            {
                "pitch": 34,
                "velocity": 15,
                "duration": 1.3205,
                "tempo": 120.0
            },
            {
                "pitch": 40,
                "velocity": 15,
                "duration": 12.2795,
                "tempo": 120.0
            },
            {
                "pitch": 36,
                "velocity": 15,
                "duration": 0.4386,
                "tempo": 120.0
            },
            {
                "pitch": 36,
                "velocity": 15,
                "duration": 0.4409,
                "tempo": 120.0
            },
            {
                "pitch": 38,
                "velocity": 15,
                "duration": 2.1886,
                "tempo": 120.0
            },
            {
                "pitch": 38,
                "velocity": 15,
                "duration": 2.1886,
                "tempo": 120.0
            },
            {
                "pitch": 38,
                "velocity": 15,
                "duration": 0.4409,
                "tempo": 120.0
            },
            {
                "pitch": 36,
                "velocity": 15,
                "duration": 2.1886,
                "tempo": 120.0
            },
            {
                "pitch": 36,
                "velocity": 15,
                "duration": 0.4409,
                "tempo": 120.0
            },
            {
                "pitch": 35,
                "velocity": 15,
                "duration": 2.1886,
                "tempo": 120.0
            },
            {
                "pitch": 35,
                "velocity": 15,
                "duration": 0.4409,
                "tempo": 120.0
            },
            {
                "pitch": 34,
                "velocity": 15,
                "duration": 1.3182,
                "tempo": 120.0
            },
            {
                "pitch": 40,
                "velocity": 15,
                "duration": 10.5273,
                "tempo": 120.0
            },
            {
                "pitch": 36,
                "velocity": 15,
                "duration": 0.4386,
                "tempo": 120.0
            },
            {
                "pitch": 36,
                "velocity": 15,
                "duration": 0.4318,
                "tempo": 120.0
            },
            {
                "pitch": 38,
                "velocity": 15,
                "duration": 2.2,
                "tempo": 120.0
            },
            {
                "pitch": 38,
                "velocity": 15,
                "duration": 2.2,
                "tempo": 120.0
            },
            {
                "pitch": 38,
                "velocity": 15,
                "duration": 0.4386,
                "tempo": 120.0
            },
            {
                "pitch": 36,
                "velocity": 15,
                "duration": 2.1909,
                "tempo": 120.0
            },
            {
                "pitch": 36,
                "velocity": 15,
                "duration": 2.1909,
                "tempo": 120.0
            },
            {
                "pitch": 36,
                "velocity": 15,
                "duration": 0.4386,
                "tempo": 120.0
            },
            {
                "pitch": 35,
                "velocity": 15,
                "duration": 2.1909,
                "tempo": 120.0
            },
            {
                "pitch": 35,
                "velocity": 15,
                "duration": 0.4386,
                "tempo": 120.0
            },
            {
                "pitch": 34,
                "velocity": 15,
                "duration": 1.3205,
                "tempo": 120.0
            },
            {
                "pitch": 40,
                "velocity": 15,
                "duration": 10.5182,
                "tempo": 120.0
            },
            {
                "pitch": 36,
                "velocity": 15,
                "duration": 0.4409,
                "tempo": 120.0
            },
            {
                "pitch": 36,
                "velocity": 15,
                "duration": 0.4386,
                "tempo": 120.0
            },
            {
                "pitch": 38,
                "velocity": 15,
                "duration": 2.1909,
                "tempo": 120.0
            },
            {
                "pitch": 38,
                "velocity": 15,
                "duration": 2.1909,
                "tempo": 120.0
            },
            {
                "pitch": 38,
                "velocity": 15,
                "duration": 0.4386,
                "tempo": 120.0
            },
            {
                "pitch": 36,
                "velocity": 15,
                "duration": 2.2,
                "tempo": 120.0
            },
            {
                "pitch": 36,
                "velocity": 15,
                "duration": 2.2,
                "tempo": 120.0
            },
            {
                "pitch": 36,
                "velocity": 15,
                "duration": 0.4409,
                "tempo": 120.0
            },
            {
                "pitch": 34,
                "velocity": 15,
                "duration": 2.1886,
                "tempo": 120.0
            },
            {
                "pitch": 34,
                "velocity": 15,
                "duration": 0.4409,
                "tempo": 120.0
            },
            {
                "pitch": 40,
                "velocity": 15,
                "duration": 8.7795,
                "tempo": 120.0
            },
            {
                "pitch": 37,
                "velocity": 15,
                "duration": 0.8795,
                "tempo": 120.0
            },
            {
                "pitch": 37,
                "velocity": 15,
                "duration": 0.2136,
                "tempo": 120.0
            },
            {
                "pitch": 0,
                "velocity": 0,
                "duration": 0.2159,
                "tempo": 0
            },
            {
                "pitch": 33,
                "velocity": 15,
                "duration": 0.2205,
                "tempo": 120.0
            },
            {
                "pitch": 0,
                "velocity": 0,
                "duration": 0.2205,
                "tempo": 0
            },
            {
                "pitch": 33,
                "velocity": 15,
                "duration": 0.2182,
                "tempo": 120.0
            },
            {
                "pitch": 0,
                "velocity": 0,
                "duration": 0.2205,
                "tempo": 0
            },
            {
                "pitch": 33,
                "velocity": 15,
                "duration": 0.4409,
                "tempo": 120.0
            },
            {
                "pitch": 38,
                "velocity": 15,
                "duration": 0.2182,
                "tempo": 120.0
            }
        ],
        "Lead 2 (sawtooth)": [
            {
                "pitch": 0,
                "velocity": 0,
                "duration": 5.2705,
                "tempo": 0
            },
            {
                "pitch": 73,
                "velocity": 15,
                "duration": 2.1977,
                "tempo": 120.0
            },
            {
                "pitch": 75,
                "velocity": 15,
                "duration": 0.4409,
                "tempo": 120.0
            },
            {
                "pitch": 76,
                "velocity": 15,
                "duration": 1.3091,
                "tempo": 120.0
            },
            {
                "pitch": 80,
                "velocity": 15,
                "duration": 1.3205,
                "tempo": 120.0
            },
            {
                "pitch": 78,
                "velocity": 15,
                "duration": 0.4386,
                "tempo": 120.0
            },
            {
                "pitch": 73,
                "velocity": 15,
                "duration": 1.75,
                "tempo": 120.0
            },
            {
                "pitch": 73,
                "velocity": 15,
                "duration": 1.75,
                "tempo": 120.0
            },
            {
                "pitch": 75,
                "velocity": 15,
                "duration": 0.4409,
                "tempo": 120.0
            },
            {
                "pitch": 76,
                "velocity": 15,
                "duration": 1.3205,
                "tempo": 120.0
            },
            {
                "pitch": 75,
                "velocity": 15,
                "duration": 0.4386,
                "tempo": 120.0
            },
            {
                "pitch": 71,
                "velocity": 15,
                "duration": 0.4295,
                "tempo": 120.0
            },
            {
                "pitch": 66,
                "velocity": 15,
                "duration": 0.4409,
                "tempo": 120.0
            },
            {
                "pitch": 68,
                "velocity": 15,
                "duration": 2.1909,
                "tempo": 120.0
            },
            {
                "pitch": 79,
                "velocity": 15,
                "duration": 2.6318,
                "tempo": 120.0
            },
            {
                "pitch": 66,
                "velocity": 15,
                "duration": 0.2182,
                "tempo": 120.0
            },
            {
                "pitch": 64,
                "velocity": 15,
                "duration": 0.2205,
                "tempo": 120.0
            },
            {
                "pitch": 68,
                "velocity": 15,
                "duration": 1.3205,
                "tempo": 120.0
            },
            {
                "pitch": 71,
                "velocity": 15,
                "duration": 1.3091,
                "tempo": 120.0
            },
            {
                "pitch": 71,
                "velocity": 15,
                "duration": 1.3091,
                "tempo": 120.0
            },
            {
                "pitch": 70,
                "velocity": 15,
                "duration": 1.3205,
                "tempo": 120.0
            },
            {
                "pitch": 73,
                "velocity": 15,
                "duration": 1.3182,
                "tempo": 120.0
            },
            {
                "pitch": 76,
                "velocity": 15,
                "duration": 0.65,
                "tempo": 120.0
            },
            {
                "pitch": 75,
                "velocity": 15,
                "duration": 0.2205,
                "tempo": 120.0
            },
            {
                "pitch": 76,
                "velocity": 15,
                "duration": 0.4409,
                "tempo": 120.0
            },
            {
                "pitch": 78,
                "velocity": 15,
                "duration": 0.4386,
                "tempo": 120.0
            },
            {
                "pitch": 78,
                "velocity": 15,
                "duration": 0.4386,
                "tempo": 120.0
            },
            {
                "pitch": 83,
                "velocity": 15,
                "duration": 0.4409,
                "tempo": 120.0
            },
            {
                "pitch": 81,
                "velocity": 15,
                "duration": 0.4386,
                "tempo": 120.0
            },
            {
                "pitch": 85,
                "velocity": 15,
                "duration": 0.6614,
                "tempo": 120.0
            },
            {
                "pitch": 80,
                "velocity": 15,
                "duration": 0.2182,
                "tempo": 120.0
            },
            {
                "pitch": 78,
                "velocity": 15,
                "duration": 0.4318,
                "tempo": 120.0
            },
            {
                "pitch": 85,
                "velocity": 15,
                "duration": 0.4386,
                "tempo": 120.0
            },
            {
                "pitch": 83,
                "velocity": 15,
                "duration": 0.4409,
                "tempo": 120.0
            },
            {
                "pitch": 80,
                "velocity": 15,
                "duration": 0.4409,
                "tempo": 120.0
            },
            {
                "pitch": 80,
                "velocity": 15,
                "duration": 0.4386,
                "tempo": 120.0
            },
            {
                "pitch": 78,
                "velocity": 15,
                "duration": 0.2205,
                "tempo": 120.0
            },
            {
                "pitch": 76,
                "velocity": 15,
                "duration": 0.65,
                "tempo": 120.0
            },
            {
                "pitch": 71,
                "velocity": 15,
                "duration": 0.8795,
                "tempo": 120.0
            },
            {
                "pitch": 75,
                "velocity": 15,
                "duration": 0.4409,
                "tempo": 120.0
            },
            {
                "pitch": 73,
                "velocity": 15,
                "duration": 5.2682,
                "tempo": 120.0
            },
            {
                "pitch": 73,
                "velocity": 15,
                "duration": 1.3182,
                "tempo": 120.0
            },
            {
                "pitch": 78,
                "velocity": 15,
                "duration": 0.8705,
                "tempo": 120.0
            },
            {
                "pitch": 78,
                "velocity": 15,
                "duration": 0.8705,
                "tempo": 120.0
            },
            {
                "pitch": 73,
                "velocity": 15,
                "duration": 0.225,
                "tempo": 120.0
            },
            {
                "pitch": 75,
                "velocity": 15,
                "duration": 0.225,
                "tempo": 120.0
            },
            {
                "pitch": 76,
                "velocity": 15,
                "duration": 0.4295,
                "tempo": 120.0
            },
            {
                "pitch": 75,
                "velocity": 15,
                "duration": 0.4409,
                "tempo": 120.0
            },
            {
                "pitch": 73,
                "velocity": 15,
                "duration": 0.4386,
                "tempo": 120.0
            },
            {
                "pitch": 75,
                "velocity": 15,
                "duration": 0.4409,
                "tempo": 120.0
            },
            {
                "pitch": 76,
                "velocity": 15,
                "duration": 0.4386,
                "tempo": 120.0
            },
            {
                "pitch": 78,
                "velocity": 15,
                "duration": 0.4409,
                "tempo": 120.0
            },
            {
                "pitch": 78,
                "velocity": 15,
                "duration": 0.4409,
                "tempo": 120.0
            },
            {
                "pitch": 80,
                "velocity": 15,
                "duration": 1.3091,
                "tempo": 120.0
            },
            {
                "pitch": 76,
                "velocity": 15,
                "duration": 0.4409,
                "tempo": 120.0
            },
            {
                "pitch": 78,
                "velocity": 15,
                "duration": 0.4386,
                "tempo": 120.0
            },
            {
                "pitch": 78,
                "velocity": 15,
                "duration": 0.4386,
                "tempo": 120.0
            },
            {
                "pitch": 33,
                "velocity": 15,
                "duration": 29.8273,
                "tempo": 120.0
            },
            {
                "pitch": 33,
                "velocity": 15,
                "duration": 0.0023,
                "tempo": 120.0
            },
            {
                "pitch": 80,
                "velocity": 15,
                "duration": 0.4386,
                "tempo": 120.0
            },
            {
                "pitch": 75,
                "velocity": 15,
                "duration": 1.3091,
                "tempo": 120.0
            },
            {
                "pitch": 0,
                "velocity": 0,
                "duration": 0.0023,
                "tempo": 0
            },
            {
                "pitch": 75,
                "velocity": 15,
                "duration": 0.4386,
                "tempo": 120.0
            },
            {
                "pitch": 76,
                "velocity": 15,
                "duration": 0.4409,
                "tempo": 120.0
            },
            {
                "pitch": 78,
                "velocity": 15,
                "duration": 0.4386,
                "tempo": 120.0
            },
            {
                "pitch": 78,
                "velocity": 15,
                "duration": 0.4386,
                "tempo": 120.0
            },
            {
                "pitch": 73,
                "velocity": 15,
                "duration": 1.3114,
                "tempo": 120.0
            },
            {
                "pitch": 73,
                "velocity": 15,
                "duration": 1.3114,
                "tempo": 120.0
            },
            {
                "pitch": 73,
                "velocity": 15,
                "duration": 0.4386,
                "tempo": 120.0
            },
            {
                "pitch": 75,
                "velocity": 15,
                "duration": 0.4409,
                "tempo": 120.0
            },
            {
                "pitch": 76,
                "velocity": 15,
                "duration": 0.4386,
                "tempo": 120.0
            },
            {
                "pitch": 72,
                "velocity": 15,
                "duration": 0.8795,
                "tempo": 120.0
            },
            {
                "pitch": 72,
                "velocity": 15,
                "duration": 0.8795,
                "tempo": 120.0
            },
            {
                "pitch": 73,
                "velocity": 15,
                "duration": 0.4318,
                "tempo": 120.0
            },
            {
                "pitch": 75,
                "velocity": 15,
                "duration": 1.3182,
                "tempo": 120.0
            },
            {
                "pitch": 74,
                "velocity": 15,
                "duration": 2.1909,
                "tempo": 120.0
            },
            {
                "pitch": 76,
                "velocity": 15,
                "duration": 0.4386,
                "tempo": 120.0
            },
            {
                "pitch": 77,
                "velocity": 15,
                "duration": 20.1773,
                "tempo": 120.0
            },
            {
                "pitch": 77,
                "velocity": 15,
                "duration": 1.3205,
                "tempo": 120.0
            },
            {
                "pitch": 81,
                "velocity": 15,
                "duration": 1.3091,
                "tempo": 120.0
            },
            {
                "pitch": 79,
                "velocity": 15,
                "duration": 35.0841,
                "tempo": 120.0
            },
            {
                "pitch": 79,
                "velocity": 15,
                "duration": 0.4409,
                "tempo": 120.0
            },
            {
                "pitch": 89,
                "velocity": 15,
                "duration": 13.5886,
                "tempo": 120.0
            },
            {
                "pitch": 74,
                "velocity": 15,
                "duration": 1.7591,
                "tempo": 120.0
            },
            {
                "pitch": 76,
                "velocity": 15,
                "duration": 0.4295,
                "tempo": 120.0
            },
            {
                "pitch": 77,
                "velocity": 15,
                "duration": 1.3205,
                "tempo": 120.0
            },
            {
                "pitch": 76,
                "velocity": 15,
                "duration": 0.4409,
                "tempo": 120.0
            },
            {
                "pitch": 72,
                "velocity": 15,
                "duration": 0.4386,
                "tempo": 120.0
            },
            {
                "pitch": 72,
                "velocity": 15,
                "duration": 0.4386,
                "tempo": 120.0
            },
            {
                "pitch": 67,
                "velocity": 15,
                "duration": 0.4409,
                "tempo": 120.0
            },
            {
                "pitch": 69,
                "velocity": 15,
                "duration": 2.1886,
                "tempo": 120.0
            },
            {
                "pitch": 67,
                "velocity": 15,
                "duration": 0.2205,
                "tempo": 120.0
            },
            {
                "pitch": 65,
                "velocity": 15,
                "duration": 0.2205,
                "tempo": 120.0
            },
            {
                "pitch": 69,
                "velocity": 15,
                "duration": 1.3091,
                "tempo": 120.0
            },
            {
                "pitch": 56,
                "velocity": 15,
                "duration": 37.7159,
                "tempo": 120.0
            },
            {
                "pitch": 72,
                "velocity": 15,
                "duration": 1.3205,
                "tempo": 120.0
            },
            {
                "pitch": 71,
                "velocity": 15,
                "duration": 1.3182,
                "tempo": 120.0
            },
            {
                "pitch": 74,
                "velocity": 15,
                "duration": 1.3114,
                "tempo": 120.0
            },
            {
                "pitch": 77,
                "velocity": 15,
                "duration": 1.3114,
                "tempo": 120.0
            },
            {
                "pitch": 77,
                "velocity": 15,
                "duration": 0.6591,
                "tempo": 120.0
            },
            {
                "pitch": 77,
                "velocity": 15,
                "duration": 0.6591,
                "tempo": 120.0
            },
            {
                "pitch": 76,
                "velocity": 15,
                "duration": 4.8295,
                "tempo": 120.0
            },
            {
                "pitch": 76,
                "velocity": 15,
                "duration": 0.2205,
                "tempo": 120.0
            },
            {
                "pitch": 77,
                "velocity": 15,
                "duration": 0.4386,
                "tempo": 120.0
            },
            {
                "pitch": 79,
                "velocity": 15,
                "duration": 0.4409,
                "tempo": 120.0
            },
            {
                "pitch": 88,
                "velocity": 15,
                "duration": 41.225,
                "tempo": 120.0
            },
            {
                "pitch": 84,
                "velocity": 15,
                "duration": 0.4409,
                "tempo": 120.0
            },
            {
                "pitch": 82,
                "velocity": 15,
                "duration": 0.4295,
                "tempo": 120.0
            },
            {
                "pitch": 89,
                "velocity": 15,
                "duration": 15.3477,
                "tempo": 120.0
            },
            {
                "pitch": 86,
                "velocity": 15,
                "duration": 0.6591,
                "tempo": 120.0
            },
            {
                "pitch": 81,
                "velocity": 15,
                "duration": 0.2205,
                "tempo": 120.0
            },
            {
                "pitch": 79,
                "velocity": 15,
                "duration": 0.4386,
                "tempo": 120.0
            },
            {
                "pitch": 89,
                "velocity": 15,
                "duration": 1.3205,
                "tempo": 120.0
            },
            {
                "pitch": 89,
                "velocity": 15,
                "duration": 0.0023,
                "tempo": 120.0
            },
            {
                "pitch": 86,
                "velocity": 15,
                "duration": 0.4386,
                "tempo": 120.0
            },
            {
                "pitch": 56,
                "velocity": 15,
                "duration": 7.4591,
                "tempo": 120.0
            },
            {
                "pitch": 84,
                "velocity": 15,
                "duration": 0.4409,
                "tempo": 120.0
            },
            {
                "pitch": 81,
                "velocity": 15,
                "duration": 0.4386,
                "tempo": 120.0
            },
            {
                "pitch": 81,
                "velocity": 15,
                "duration": 0.4318,
                "tempo": 120.0
            },
            {
                "pitch": 79,
                "velocity": 15,
                "duration": 0.2182,
                "tempo": 120.0
            },
            {
                "pitch": 90,
                "velocity": 15,
                "duration": 33.5455,
                "tempo": 120.0
            },
            {
                "pitch": 77,
                "velocity": 15,
                "duration": 0.6614,
                "tempo": 120.0
            },
            {
                "pitch": 72,
                "velocity": 15,
                "duration": 0.8795,
                "tempo": 120.0
            },
            {
                "pitch": 76,
                "velocity": 15,
                "duration": 0.4386,
                "tempo": 120.0
            },
            {
                "pitch": 76,
                "velocity": 15,
                "duration": 0.4386,
                "tempo": 120.0
            },
            {
                "pitch": 74,
                "velocity": 15,
                "duration": 1.3114,
                "tempo": 120.0
            },
            {
                "pitch": 79,
                "velocity": 15,
                "duration": 0.5977,
                "tempo": 120.0
            },
            {
                "pitch": 79,
                "velocity": 15,
                "duration": 0.2,
                "tempo": 120.0
            },
            {
                "pitch": 79,
                "velocity": 15,
                "duration": 0.0818,
                "tempo": 120.0
            },
            {
                "pitch": 74,
                "velocity": 15,
                "duration": 0.2182,
                "tempo": 120.0
            },
            {
                "pitch": 76,
                "velocity": 15,
                "duration": 0.2205,
                "tempo": 120.0
            },
            {
                "pitch": 77,
                "velocity": 15,
                "duration": 0.4409,
                "tempo": 120.0
            },
            {
                "pitch": 76,
                "velocity": 15,
                "duration": 0.4386,
                "tempo": 120.0
            },
            {
                "pitch": 74,
                "velocity": 15,
                "duration": 0.4409,
                "tempo": 120.0
            },
            {
                "pitch": 76,
                "velocity": 15,
                "duration": 0.4295,
                "tempo": 120.0
            },
            {
                "pitch": 77,
                "velocity": 15,
                "duration": 0.4409,
                "tempo": 120.0
            },
            {
                "pitch": 79,
                "velocity": 15,
                "duration": 0.4386,
                "tempo": 120.0
            },
            {
                "pitch": 81,
                "velocity": 15,
                "duration": 1.3205,
                "tempo": 120.0
            },
            {
                "pitch": 90,
                "velocity": 15,
                "duration": 8.5591,
                "tempo": 120.0
            },
            {
                "pitch": 77,
                "velocity": 15,
                "duration": 0.4295,
                "tempo": 120.0
            },
            {
                "pitch": 79,
                "velocity": 15,
                "duration": 0.4409,
                "tempo": 120.0
            },
            {
                "pitch": 81,
                "velocity": 15,
                "duration": 0.4386,
                "tempo": 120.0
            },
            {
                "pitch": 76,
                "velocity": 15,
                "duration": 1.3205,
                "tempo": 120.0
            },
            {
                "pitch": 76,
                "velocity": 15,
                "duration": 0.4409,
                "tempo": 120.0
            },
            {
                "pitch": 77,
                "velocity": 15,
                "duration": 0.4386,
                "tempo": 120.0
            },
            {
                "pitch": 79,
                "velocity": 15,
                "duration": 0.4409,
                "tempo": 120.0
            },
            {
                "pitch": 89,
                "velocity": 15,
                "duration": 8.3386,
                "tempo": 120.0
            },
            {
                "pitch": 74,
                "velocity": 15,
                "duration": 1.3091,
                "tempo": 120.0
            },
            {
                "pitch": 74,
                "velocity": 15,
                "duration": 0.4409,
                "tempo": 120.0
            },
            {
                "pitch": 76,
                "velocity": 15,
                "duration": 0.4386,
                "tempo": 120.0
            },
            {
                "pitch": 77,
                "velocity": 15,
                "duration": 0.4409,
                "tempo": 120.0
            },
            {
                "pitch": 73,
                "velocity": 15,
                "duration": 0.8795,
                "tempo": 120.0
            },
            {
                "pitch": 74,
                "velocity": 15,
                "duration": 0.4295,
                "tempo": 120.0
            },
            {
                "pitch": 76,
                "velocity": 15,
                "duration": 1.3205,
                "tempo": 120.0
            },
            {
                "pitch": 74,
                "velocity": 15,
                "duration": 0.2182,
                "tempo": 120.0
            }
        ],
        "Synth Bass 1": [
            {
                "pitch": 0,
                "velocity": 0,
                "duration": 0.4386,
                "tempo": 0
            },
            {
                "pitch": 64,
                "velocity": 1,
                "duration": 0.8909,
                "tempo": 120.0
            },
            {
                "pitch": 73,
                "velocity": 1,
                "duration": 0.8705,
                "tempo": 120.0
            },
            {
                "pitch": 59,
                "velocity": 1,
                "duration": 0.8795,
                "tempo": 120.0
            },
            {
                "pitch": 64,
                "velocity": 1,
                "duration": 0.8795,
                "tempo": 120.0
            },
            {
                "pitch": 56,
                "velocity": 1,
                "duration": 2.6295,
                "tempo": 120.0
            },
            {
                "pitch": 73,
                "velocity": 1,
                "duration": 0.8705,
                "tempo": 120.0
            },
            {
                "pitch": 59,
                "velocity": 1,
                "duration": 0.8795,
                "tempo": 120.0
            },
            {
                "pitch": 64,
                "velocity": 1,
                "duration": 0.8795,
                "tempo": 120.0
            },
            {
                "pitch": 73,
                "velocity": 1,
                "duration": 0.8795,
                "tempo": 120.0
            },
            {
                "pitch": 61,
                "velocity": 1,
                "duration": 4.3795,
                "tempo": 120.0
            },
            {
                "pitch": 61,
                "velocity": 1,
                "duration": 0.8705,
                "tempo": 120.0
            },
            {
                "pitch": 64,
                "velocity": 1,
                "duration": 0.8795,
                "tempo": 120.0
            },
            {
                "pitch": 64,
                "velocity": 1,
                "duration": 0.8795,
                "tempo": 120.0
            },
            {
                "pitch": 71,
                "velocity": 1,
                "duration": 0.8795,
                "tempo": 120.0
            },
            {
                "pitch": 59,
                "velocity": 1,
                "duration": 0.8795,
                "tempo": 120.0
            },
            {
                "pitch": 66,
                "velocity": 1,
                "duration": 6.1386,
                "tempo": 120.0
            },
            {
                "pitch": 66,
                "velocity": 1,
                "duration": 0.8705,
                "tempo": 120.0
            },
            {
                "pitch": 73,
                "velocity": 1,
                "duration": 0.8795,
                "tempo": 120.0
            },
            {
                "pitch": 66,
                "velocity": 1,
                "duration": 0.8795,
                "tempo": 120.0
            },
            {
                "pitch": 61,
                "velocity": 1,
                "duration": 0.8795,
                "tempo": 120.0
            },
            {
                "pitch": 0,
                "velocity": 0,
                "duration": 0.0023,
                "tempo": 0
            },
            {
                "pitch": 59,
                "velocity": 1,
                "duration": 0.8682,
                "tempo": 120.0
            },
            {
                "pitch": 67,
                "velocity": 1,
                "duration": 4.3795,
                "tempo": 120.0
            },
            {
                "pitch": 66,
                "velocity": 1,
                "duration": 0.8795,
                "tempo": 120.0
            },
            {
                "pitch": 64,
                "velocity": 1,
                "duration": 0.8818,
                "tempo": 120.0
            },
            {
                "pitch": 73,
                "velocity": 1,
                "duration": 0.8682,
                "tempo": 120.0
            },
            {
                "pitch": 61,
                "velocity": 1,
                "duration": 0.8795,
                "tempo": 120.0
            },
            {
                "pitch": 44,
                "velocity": 1,
                "duration": 10.5295,
                "tempo": 120.0
            },
            {
                "pitch": 64,
                "velocity": 1,
                "duration": 0.8818,
                "tempo": 120.0
            },
            {
                "pitch": 64,
                "velocity": 1,
                "duration": 0.8818,
                "tempo": 120.0
            },
            {
                "pitch": 71,
                "velocity": 1,
                "duration": 0.8795,
                "tempo": 120.0
            },
            {
                "pitch": 59,
                "velocity": 1,
                "duration": 0.8705,
                "tempo": 120.0
            },
            {
                "pitch": 66,
                "velocity": 1,
                "duration": 0.8795,
                "tempo": 120.0
            },
            {
                "pitch": 73,
                "velocity": 1,
                "duration": 0.8795,
                "tempo": 120.0
            },
            {
                "pitch": 78,
                "velocity": 1,
                "duration": 10.5295,
                "tempo": 120.0
            },
            {
                "pitch": 66,
                "velocity": 1,
                "duration": 0.8705,
                "tempo": 120.0
            },
            {
                "pitch": 44,
                "velocity": 1,
                "duration": 5.2591,
                "tempo": 120.0
            },
            {
                "pitch": 61,
                "velocity": 1,
                "duration": 2.6295,
                "tempo": 120.0
            },
            {
                "pitch": 61,
                "velocity": 1,
                "duration": 0.8795,
                "tempo": 120.0
            },
            {
                "pitch": 59,
                "velocity": 1,
                "duration": 0.8795,
                "tempo": 120.0
            },
            {
                "pitch": 66,
                "velocity": 1,
                "duration": 0.8795,
                "tempo": 120.0
            },
            {
                "pitch": 64,
                "velocity": 1,
                "duration": 0.8705,
                "tempo": 120.0
            },
            {
                "pitch": 64,
                "velocity": 1,
                "duration": 0.8705,
                "tempo": 120.0
            },
            {
                "pitch": 73,
                "velocity": 1,
                "duration": 0.8795,
                "tempo": 120.0
            },
            {
                "pitch": 61,
                "velocity": 1,
                "duration": 1.7591,
                "tempo": 120.0
            },
            {
                "pitch": 61,
                "velocity": 1,
                "duration": 0.8795,
                "tempo": 120.0
            },
            {
                "pitch": 44,
                "velocity": 1,
                "duration": 5.2591,
                "tempo": 120.0
            },
            {
                "pitch": 64,
                "velocity": 1,
                "duration": 0.8705,
                "tempo": 120.0
            },
            {
                "pitch": 64,
                "velocity": 1,
                "duration": 0.8705,
                "tempo": 120.0
            },
            {
                "pitch": 71,
                "velocity": 1,
                "duration": 0.8795,
                "tempo": 120.0
            },
            {
                "pitch": 59,
                "velocity": 1,
                "duration": 0.8795,
                "tempo": 120.0
            },
            {
                "pitch": 67,
                "velocity": 1,
                "duration": 16.6682,
                "tempo": 120.0
            },
            {
                "pitch": 66,
                "velocity": 1,
                "duration": 0.8795,
                "tempo": 120.0
            },
            {
                "pitch": 73,
                "velocity": 1,
                "duration": 0.8705,
                "tempo": 120.0
            },
            {
                "pitch": 66,
                "velocity": 1,
                "duration": 0.8795,
                "tempo": 120.0
            },
            {
                "pitch": 61,
                "velocity": 1,
                "duration": 0.8795,
                "tempo": 120.0
            },
            {
                "pitch": 61,
                "velocity": 1,
                "duration": 0.8795,
                "tempo": 120.0
            },
            {
                "pitch": 59,
                "velocity": 1,
                "duration": 0.8795,
                "tempo": 120.0
            },
            {
                "pitch": 67,
                "velocity": 1,
                "duration": 4.3886,
                "tempo": 120.0
            },
            {
                "pitch": 66,
                "velocity": 1,
                "duration": 0.8705,
                "tempo": 120.0
            },
            {
                "pitch": 64,
                "velocity": 1,
                "duration": 0.8795,
                "tempo": 120.0
            },
            {
                "pitch": 64,
                "velocity": 1,
                "duration": 0.8795,
                "tempo": 120.0
            },
            {
                "pitch": 73,
                "velocity": 1,
                "duration": 0.8795,
                "tempo": 120.0
            },
            {
                "pitch": 61,
                "velocity": 1,
                "duration": 0.8795,
                "tempo": 120.0
            },
            {
                "pitch": 44,
                "velocity": 1,
                "duration": 10.5273,
                "tempo": 120.0
            },
            {
                "pitch": 63,
                "velocity": 1,
                "duration": 0.8705,
                "tempo": 120.0
            },
            {
                "pitch": 71,
                "velocity": 1,
                "duration": 0.8795,
                "tempo": 120.0
            },
            {
                "pitch": 63,
                "velocity": 1,
                "duration": 0.8818,
                "tempo": 120.0
            },
            {
                "pitch": 61,
                "velocity": 1,
                "duration": 0.8682,
                "tempo": 120.0
            },
            {
                "pitch": 69,
                "velocity": 1,
                "duration": 0.8795,
                "tempo": 120.0
            },
            {
                "pitch": 61,
                "velocity": 1,
                "duration": 0.8818,
                "tempo": 120.0
            },
            {
                "pitch": 63,
                "velocity": 1,
                "duration": 0.8682,
                "tempo": 120.0
            },
            {
                "pitch": 72,
                "velocity": 1,
                "duration": 0.8818,
                "tempo": 120.0
            },
            {
                "pitch": 72,
                "velocity": 1,
                "duration": 0.8795,
                "tempo": 120.0
            },
            {
                "pitch": 65,
                "velocity": 1,
                "duration": 0.8795,
                "tempo": 120.0
            },
            {
                "pitch": 74,
                "velocity": 1,
                "duration": 0.8705,
                "tempo": 120.0
            },
            {
                "pitch": 62,
                "velocity": 1,
                "duration": 0.8795,
                "tempo": 120.0
            },
            {
                "pitch": 60,
                "velocity": 1,
                "duration": 5.2705,
                "tempo": 120.0
            },
            {
                "pitch": 65,
                "velocity": 1,
                "duration": 0.8795,
                "tempo": 120.0
            },
            {
                "pitch": 72,
                "velocity": 1,
                "duration": 0.8705,
                "tempo": 120.0
            },
            {
                "pitch": 60,
                "velocity": 1,
                "duration": 1.75,
                "tempo": 120.0
            },
            {
                "pitch": 60,
                "velocity": 1,
                "duration": 0.8795,
                "tempo": 120.0
            },
            {
                "pitch": 67,
                "velocity": 1,
                "duration": 17.5386,
                "tempo": 120.0
            },
            {
                "pitch": 67,
                "velocity": 1,
                "duration": 0.8795,
                "tempo": 120.0
            },
            {
                "pitch": 74,
                "velocity": 1,
                "duration": 0.8795,
                "tempo": 120.0
            },
            {
                "pitch": 67,
                "velocity": 1,
                "duration": 0.8705,
                "tempo": 120.0
            },
            {
                "pitch": 62,
                "velocity": 1,
                "duration": 0.8795,
                "tempo": 120.0
            },
            {
                "pitch": 60,
                "velocity": 1,
                "duration": 0.8795,
                "tempo": 120.0
            },
            {
                "pitch": 67,
                "velocity": 1,
                "duration": 0.8795,
                "tempo": 120.0
            },
            {
                "pitch": 78,
                "velocity": 1,
                "duration": 35.0841,
                "tempo": 120.0
            },
            {
                "pitch": 65,
                "velocity": 1,
                "duration": 0.8705,
                "tempo": 120.0
            },
            {
                "pitch": 74,
                "velocity": 1,
                "duration": 0.8795,
                "tempo": 120.0
            },
            {
                "pitch": 62,
                "velocity": 1,
                "duration": 1.7591,
                "tempo": 120.0
            },
            {
                "pitch": 62,
                "velocity": 1,
                "duration": 0.8795,
                "tempo": 120.0
            },
            {
                "pitch": 65,
                "velocity": 1,
                "duration": 0.8705,
                "tempo": 120.0
            },
            {
                "pitch": 65,
                "velocity": 1,
                "duration": 0.8705,
                "tempo": 120.0
            },
            {
                "pitch": 72,
                "velocity": 1,
                "duration": 0.8795,
                "tempo": 120.0
            },
            {
                "pitch": 60,
                "velocity": 1,
                "duration": 0.8795,
                "tempo": 120.0
            },
            {
                "pitch": 67,
                "velocity": 1,
                "duration": 0.8795,
                "tempo": 120.0
            },
            {
                "pitch": 77,
                "velocity": 1,
                "duration": 22.8068,
                "tempo": 120.0
            },
            {
                "pitch": 74,
                "velocity": 1,
                "duration": 0.8705,
                "tempo": 120.0
            },
            {
                "pitch": 67,
                "velocity": 1,
                "duration": 0.8795,
                "tempo": 120.0
            },
            {
                "pitch": 77,
                "velocity": 1,
                "duration": 1.75,
                "tempo": 120.0
            },
            {
                "pitch": 62,
                "velocity": 1,
                "duration": 0.8795,
                "tempo": 120.0
            },
            {
                "pitch": 60,
                "velocity": 1,
                "duration": 0.8795,
                "tempo": 120.0
            },
            {
                "pitch": 60,
                "velocity": 1,
                "duration": 0.8795,
                "tempo": 120.0
            },
            {
                "pitch": 67,
                "velocity": 1,
                "duration": 0.8705,
                "tempo": 120.0
            },
            {
                "pitch": 78,
                "velocity": 1,
                "duration": 10.5182,
                "tempo": 120.0
            },
            {
                "pitch": 65,
                "velocity": 1,
                "duration": 0.8795,
                "tempo": 120.0
            },
            {
                "pitch": 74,
                "velocity": 1,
                "duration": 0.8818,
                "tempo": 120.0
            },
            {
                "pitch": 62,
                "velocity": 1,
                "duration": 0.8682,
                "tempo": 120.0
            },
            {
                "pitch": 65,
                "velocity": 1,
                "duration": 0.8795,
                "tempo": 120.0
            },
            {
                "pitch": 65,
                "velocity": 1,
                "duration": 0.8795,
                "tempo": 120.0
            },
            {
                "pitch": 72,
                "velocity": 1,
                "duration": 0.8818,
                "tempo": 120.0
            },
            {
                "pitch": 60,
                "velocity": 1,
                "duration": 1.7614,
                "tempo": 120.0
            },
            {
                "pitch": 60,
                "velocity": 1,
                "duration": 0.8795,
                "tempo": 120.0
            },
            {
                "pitch": 67,
                "velocity": 1,
                "duration": 0.8705,
                "tempo": 120.0
            },
            {
                "pitch": 77,
                "velocity": 1,
                "duration": 8.7705,
                "tempo": 120.0
            },
            {
                "pitch": 74,
                "velocity": 1,
                "duration": 0.8795,
                "tempo": 120.0
            },
            {
                "pitch": 67,
                "velocity": 1,
                "duration": 0.8795,
                "tempo": 120.0
            },
            {
                "pitch": 77,
                "velocity": 1,
                "duration": 1.7591,
                "tempo": 120.0
            },
            {
                "pitch": 62,
                "velocity": 1,
                "duration": 0.8795,
                "tempo": 120.0
            },
            {
                "pitch": 60,
                "velocity": 1,
                "duration": 0.8705,
                "tempo": 120.0
            },
            {
                "pitch": 60,
                "velocity": 1,
                "duration": 0.8705,
                "tempo": 120.0
            },
            {
                "pitch": 67,
                "velocity": 1,
                "duration": 0.8795,
                "tempo": 120.0
            },
            {
                "pitch": 78,
                "velocity": 1,
                "duration": 10.5295,
                "tempo": 120.0
            },
            {
                "pitch": 65,
                "velocity": 1,
                "duration": 0.8795,
                "tempo": 120.0
            },
            {
                "pitch": 74,
                "velocity": 1,
                "duration": 0.8705,
                "tempo": 120.0
            },
            {
                "pitch": 62,
                "velocity": 1,
                "duration": 0.8795,
                "tempo": 120.0
            },
            {
                "pitch": 64,
                "velocity": 1,
                "duration": 0.8795,
                "tempo": 120.0
            },
            {
                "pitch": 72,
                "velocity": 1,
                "duration": 0.8795,
                "tempo": 120.0
            },
            {
                "pitch": 76,
                "velocity": 1,
                "duration": 39.475,
                "tempo": 120.0
            },
            {
                "pitch": 64,
                "velocity": 1,
                "duration": 0.8705,
                "tempo": 120.0
            },
            {
                "pitch": 62,
                "velocity": 1,
                "duration": 0.8795,
                "tempo": 120.0
            },
            {
                "pitch": 70,
                "velocity": 1,
                "duration": 0.8795,
                "tempo": 120.0
            },
            {
                "pitch": 77,
                "velocity": 1,
                "duration": 9.6477,
                "tempo": 120.0
            },
            {
                "pitch": 62,
                "velocity": 1,
                "duration": 0.8705,
                "tempo": 120.0
            },
            {
                "pitch": 64,
                "velocity": 1,
                "duration": 0.8795,
                "tempo": 120.0
            },
            {
                "pitch": 73,
                "velocity": 1,
                "duration": 0.8795,
                "tempo": 120.0
            },
            {
                "pitch": 73,
                "velocity": 1,
                "duration": 0.6591,
                "tempo": 120.0
            }
        ],
        "Acoustic Grand Piano": [
            {
                "pitch": 0,
                "velocity": 0,
                "duration": 89.6955,
                "tempo": 0
            },
            {
                "pitch": 108,
                "velocity": 15,
                "duration": 0.1,
                "tempo": 120.0
            }
        ]
    }
}