{
    "track_id": "21 Rooftop (Thieves Tower)_11",
    "mood": "sad",
    "instruments": {
        "Lead 1 (square)": [
            {
                "pitch": 0,
                "velocity": 0,
                "duration": 5.1455,
                "tempo": 0
            },
            {
                "pitch": 37,
                "velocity": 7,
                "duration": 0.0318,
                "tempo": 120.0
            },
            {
                "pitch": 0,
                "velocity": 0,
                "duration": 0.0023,
                "tempo": 0
            },
            {
                "pitch": 37,
                "velocity": 7,
                "duration": 0.0341,
                "tempo": 120.0
            },
            {
                "pitch": 38,
                "velocity": 7,
                "duration": 0.0818,
                "tempo": 120.0
            },
            {
                "pitch": 39,
                "velocity": 7,
                "duration": 0.0818,
                "tempo": 120.0
            },
            {
                "pitch": 40,
                "velocity": 7,
                "duration": 0.1182,
                "tempo": 120.0
            },
            {
                "pitch": 41,
                "velocity": 7,
                "duration": 0.1182,
                "tempo": 120.0
            },
            {
                "pitch": 43,
                "velocity": 7,
                "duration": 0.1477,
                "tempo": 120.0
            },
            {
                "pitch": 0,
                "velocity": 0,
                "duration": 0.0023,
                "tempo": 0
            },
            {
                "pitch": 43,
                "velocity": 7,
                "duration": 0.1477,
                "tempo": 120.0
            },
            {
                "pitch": 44,
                "velocity": 7,
                "duration": 0.2,
                "tempo": 120.0
            },
            {
                "pitch": 45,
                "velocity": 7,
                "duration": 0.1841,
                "tempo": 120.0
            },
            {
                "pitch": 46,
                "velocity": 7,
                "duration": 0.2318,
                "tempo": 120.0
            },
            {
                "pitch": 0,
                "velocity": 0,
                "duration": 0.0023,
                "tempo": 0
            },
            {
                "pitch": 47,
                "velocity": 7,
                "duration": 0.2318,
                "tempo": 120.0
            },
            {
                "pitch": 46,
                "velocity": 7,
                "duration": 0.2364,
                "tempo": 120.0
            },
            {
                "pitch": 45,
                "velocity": 7,
                "duration": 0.2386,
                "tempo": 120.0
            },
            {
                "pitch": 44,
                "velocity": 7,
                "duration": 0.0864,
                "tempo": 120.0
            },
            {
                "pitch": 0,
                "velocity": 0,
                "duration": 5.1227,
                "tempo": 0
            },
            {
                "pitch": 37,
                "velocity": 7,
                "duration": 0.0318,
                "tempo": 120.0
            },
            {
                "pitch": 37,
                "velocity": 7,
                "duration": 0.0364,
                "tempo": 120.0
            },
            {
                "pitch": 38,
                "velocity": 7,
                "duration": 0.0841,
                "tempo": 120.0
            },
            {
                "pitch": 39,
                "velocity": 7,
                "duration": 0.0864,
                "tempo": 120.0
            },
            {
                "pitch": 40,
                "velocity": 7,
                "duration": 0.1182,
                "tempo": 120.0
            },
            {
                "pitch": 41,
                "velocity": 7,
                "duration": 0.1205,
                "tempo": 120.0
            },
            {
                "pitch": 54,
                "velocity": 7,
                "duration": 7.3091,
                "tempo": 120.0
            },
            {
                "pitch": 43,
                "velocity": 7,
                "duration": 0.1455,
                "tempo": 120.0
            },
            {
                "pitch": 43,
                "velocity": 7,
                "duration": 0.1455,
                "tempo": 120.0
            },
            {
                "pitch": 44,
                "velocity": 7,
                "duration": 0.1955,
                "tempo": 120.0
            },
            {
                "pitch": 0,
                "velocity": 0,
                "duration": 0.0023,
                "tempo": 0
            },
            {
                "pitch": 45,
                "velocity": 7,
                "duration": 0.1841,
                "tempo": 120.0
            },
            {
                "pitch": 46,
                "velocity": 7,
                "duration": 0.2318,
                "tempo": 120.0
            },
            {
                "pitch": 47,
                "velocity": 7,
                "duration": 0.2318,
                "tempo": 120.0
            },
            {
                "pitch": 0,
                "velocity": 0,
                "duration": 0.0023,
                "tempo": 0
            },
            {
                "pitch": 46,
                "velocity": 7,
                "duration": 0.2318,
                "tempo": 120.0
            },
            {
                "pitch": 45,
                "velocity": 7,
                "duration": 0.2386,
                "tempo": 120.0
            },
            {
                "pitch": 44,
                "velocity": 7,
                "duration": 0.0864,
                "tempo": 120.0
            },
            {
                "pitch": 0,
                "velocity": 0,
                "duration": 5.125,
                "tempo": 0
            },
            {
                "pitch": 37,
                "velocity": 7,
                "duration": 0.0318,
                "tempo": 120.0
            },
            {
                "pitch": 0,
                "velocity": 0,
                "duration": 0.0023,
                "tempo": 0
            },
            {
                "pitch": 37,
                "velocity": 7,
                "duration": 0.0341,
                "tempo": 120.0
            },
            {
                "pitch": 38,
                "velocity": 7,
                "duration": 0.0818,
                "tempo": 120.0
            },
            {
                "pitch": 39,
                "velocity": 7,
                "duration": 0.0841,
                "tempo": 120.0
            },
            {
                "pitch": 40,
                "velocity": 7,
                "duration": 0.1205,
                "tempo": 120.0
            },
            {
                "pitch": 41,
                "velocity": 7,
                "duration": 0.1205,
                "tempo": 120.0
            },
            {
                "pitch": 54,
                "velocity": 7,
                "duration": 7.2955,
                "tempo": 120.0
            },
            {
                "pitch": 43,
                "velocity": 7,
                "duration": 0.1523,
                "tempo": 120.0
            },
            {
                "pitch": 43,
                "velocity": 7,
                "duration": 0.1636,
                "tempo": 120.0
            },
            {
                "pitch": 44,
                "velocity": 7,
                "duration": 0.2409,
                "tempo": 120.0
            },
            {
                "pitch": 45,
                "velocity": 7,
                "duration": 0.225,
                "tempo": 120.0
            },
            {
                "pitch": 46,
                "velocity": 7,
                "duration": 0.2705,
                "tempo": 120.0
            },
            {
                "pitch": 47,
                "velocity": 7,
                "duration": 0.2636,
                "tempo": 120.0
            },
            {
                "pitch": 46,
                "velocity": 7,
                "duration": 0.2432,
                "tempo": 120.0
            },
            {
                "pitch": 45,
                "velocity": 7,
                "duration": 0.2341,
                "tempo": 120.0
            },
            {
                "pitch": 44,
                "velocity": 7,
                "duration": 0.0795,
                "tempo": 120.0
            }
        ],
        "Lead 2 (sawtooth)": [
            {
                "pitch": 43,
                "velocity": 12,
                "duration": 2.4841,
                "tempo": 120.0
            },
            {
                "pitch": 43,
                "velocity": 10,
                "duration": 2.4977,
                "tempo": 120.0
            },
            {
                "pitch": 0,
                "velocity": 0,
                "duration": 2.3432,
                "tempo": 0
            },
            {
                "pitch": 43,
                "velocity": 12,
                "duration": 2.4773,
                "tempo": 120.0
            },
            {
                "pitch": 43,
                "velocity": 10,
                "duration": 2.4773,
                "tempo": 120.0
            },
            {
                "pitch": 0,
                "velocity": 0,
                "duration": 2.3409,
                "tempo": 0
            },
            {
                "pitch": 43,
                "velocity": 12,
                "duration": 2.4795,
                "tempo": 120.0
            },
            {
                "pitch": 43,
                "velocity": 10,
                "duration": 2.4955,
                "tempo": 120.0
            }
        ],
        "Synth Bass 1": [
            {
                "pitch": 0,
                "velocity": 0,
                "duration": 4.9818,
                "tempo": 0
            },
            {
                "pitch": 37,
                "velocity": 1,
                "duration": 0.0477,
                "tempo": 120.0
            },
            {
                "pitch": 37,
                "velocity": 1,
                "duration": 0.0318,
                "tempo": 120.0
            },
            {
                "pitch": 38,
                "velocity": 1,
                "duration": 0.0841,
                "tempo": 120.0
            },
            {
                "pitch": 39,
                "velocity": 1,
                "duration": 0.0682,
                "tempo": 120.0
            },
            {
                "pitch": 40,
                "velocity": 1,
                "duration": 0.1159,
                "tempo": 120.0
            },
            {
                "pitch": 41,
                "velocity": 1,
                "duration": 0.1159,
                "tempo": 120.0
            },
            {
                "pitch": 42,
                "velocity": 1,
                "duration": 0.1659,
                "tempo": 120.0
            },
            {
                "pitch": 0,
                "velocity": 0,
                "duration": 0.0023,
                "tempo": 0
            },
            {
                "pitch": 44,
                "velocity": 1,
                "duration": 0.1477,
                "tempo": 120.0
            },
            {
                "pitch": 44,
                "velocity": 1,
                "duration": 0.1841,
                "tempo": 120.0
            },
            {
                "pitch": 45,
                "velocity": 1,
                "duration": 0.2,
                "tempo": 120.0
            },
            {
                "pitch": 46,
                "velocity": 1,
                "duration": 0.2341,
                "tempo": 120.0
            },
            {
                "pitch": 47,
                "velocity": 1,
                "duration": 0.2318,
                "tempo": 120.0
            },
            {
                "pitch": 46,
                "velocity": 1,
                "duration": 0.2341,
                "tempo": 120.0
            },
            {
                "pitch": 45,
                "velocity": 1,
                "duration": 0.2386,
                "tempo": 120.0
            },
            {
                "pitch": 0,
                "velocity": 0,
                "duration": 5.1955,
                "tempo": 0
            },
            {
                "pitch": 37,
                "velocity": 1,
                "duration": 0.0477,
                "tempo": 120.0
            },
            {
                "pitch": 37,
                "velocity": 1,
                "duration": 0.0341,
                "tempo": 120.0
            },
            {
                "pitch": 38,
                "velocity": 1,
                "duration": 0.0841,
                "tempo": 120.0
            },
            {
                "pitch": 39,
                "velocity": 1,
                "duration": 0.0682,
                "tempo": 120.0
            },
            {
                "pitch": 40,
                "velocity": 1,
                "duration": 0.1182,
                "tempo": 120.0
            },
            {
                "pitch": 41,
                "velocity": 1,
                "duration": 0.1205,
                "tempo": 120.0
            },
            {
                "pitch": 42,
                "velocity": 1,
                "duration": 0.1705,
                "tempo": 120.0
            },
            {
                "pitch": 55,
                "velocity": 1,
                "duration": 7.3091,
                "tempo": 120.0
            },
            {
                "pitch": 44,
                "velocity": 1,
                "duration": 0.1455,
                "tempo": 120.0
            },
            {
                "pitch": 44,
                "velocity": 1,
                "duration": 0.1795,
                "tempo": 120.0
            },
            {
                "pitch": 45,
                "velocity": 1,
                "duration": 0.1955,
                "tempo": 120.0
            },
            {
                "pitch": 46,
                "velocity": 1,
                "duration": 0.2341,
                "tempo": 120.0
            },
            {
                "pitch": 47,
                "velocity": 1,
                "duration": 0.2341,
                "tempo": 120.0
            },
            {
                "pitch": 46,
                "velocity": 1,
                "duration": 0.2318,
                "tempo": 120.0
            },
            {
                "pitch": 45,
                "velocity": 1,
                "duration": 0.2364,
                "tempo": 120.0
            },
            {
                "pitch": 0,
                "velocity": 0,
                "duration": 5.2159,
                "tempo": 0
            },
            {
                "pitch": 37,
                "velocity": 1,
                "duration": 0.0318,
                "tempo": 120.0
            },
            {
                "pitch": 37,
                "velocity": 1,
                "duration": 0.0318,
                "tempo": 120.0
            },
            {
                "pitch": 38,
                "velocity": 1,
                "duration": 0.0841,
                "tempo": 120.0
            },
            {
                "pitch": 39,
                "velocity": 1,
                "duration": 0.0682,
                "tempo": 120.0
            },
            {
                "pitch": 40,
                "velocity": 1,
                "duration": 0.1159,
                "tempo": 120.0
            },
            {
                "pitch": 41,
                "velocity": 1,
                "duration": 0.1205,
                "tempo": 120.0
            },
            {
                "pitch": 42,
                "velocity": 1,
                "duration": 0.1705,
                "tempo": 120.0
            },
            {
                "pitch": 55,
                "velocity": 1,
                "duration": 7.2955,
                "tempo": 120.0
            },
            {
                "pitch": 44,
                "velocity": 1,
                "duration": 0.1523,
                "tempo": 120.0
            },
            {
                "pitch": 44,
                "velocity": 1,
                "duration": 0.2227,
                "tempo": 120.0
            },
            {
                "pitch": 45,
                "velocity": 1,
                "duration": 0.2227,
                "tempo": 120.0
            },
            {
                "pitch": 46,
                "velocity": 1,
                "duration": 0.2841,
                "tempo": 120.0
            },
            {
                "pitch": 47,
                "velocity": 1,
                "duration": 0.2636,
                "tempo": 120.0
            },
            {
                "pitch": 46,
                "velocity": 1,
                "duration": 0.2636,
                "tempo": 120.0
            },
            {
                "pitch": 0,
                "velocity": 0,
                "duration": 0.0023,
                "tempo": 0
            },
            {
                "pitch": 45,
                "velocity": 1,
                "duration": 0.2318,
                "tempo": 120.0
            }
        ],
        "Acoustic Grand Piano": [
            {
                "pitch": 0,
                "velocity": 0,
                "duration": 22.0909,
                "tempo": 0
            },
            {
                "pitch": 108,
                "velocity": 15,
                "duration": 0.1,
                "tempo": 120.0
            }
        ]
    }
}