{
    "track_id": "21 Rooftop (Thieves Tower)_12",
    "mood": "sad",
    "instruments": {
        "Lead 1 (square)": [
            {
                "pitch": 43,
                "velocity": 15,
                "duration": 2.4841,
                "tempo": 120.0
            },
            {
                "pitch": 0,
                "velocity": 0,
                "duration": 0.0023,
                "tempo": 0
            },
            {
                "pitch": 43,
                "velocity": 12,
                "duration": 2.4977,
                "tempo": 120.0
            },
            {
                "pitch": 0,
                "velocity": 0,
                "duration": 2.3409,
                "tempo": 0
            },
            {
                "pitch": 43,
                "velocity": 15,
                "duration": 2.4773,
                "tempo": 120.0
            },
            {
                "pitch": 43,
                "velocity": 12,
                "duration": 2.4795,
                "tempo": 120.0
            },
            {
                "pitch": 0,
                "velocity": 0,
                "duration": 2.3386,
                "tempo": 0
            },
            {
                "pitch": 43,
                "velocity": 15,
                "duration": 2.4818,
                "tempo": 120.0
            },
            {
                "pitch": 43,
                "velocity": 12,
                "duration": 2.4932,
                "tempo": 120.0
            }
        ],
        "Lead 2 (sawtooth)": [
            {
                "pitch": 0,
                "velocity": 0,
                "duration": 0.0023,
                "tempo": 0
            },
            {
                "pitch": 43,
                "velocity": 12,
                "duration": 2.4841,
                "tempo": 120.0
            },
            {
                "pitch": 43,
                "velocity": 10,
                "duration": 2.4977,
                "tempo": 120.0
            },
            {
                "pitch": 0,
                "velocity": 0,
                "duration": 2.3409,
                "tempo": 0
            },
            {
                "pitch": 43,
                "velocity": 12,
                "duration": 2.4773,
                "tempo": 120.0
            },
            {
                "pitch": 43,
                "velocity": 10,
                "duration": 2.4795,
                "tempo": 120.0
            },
            {
                "pitch": 0,
                "velocity": 0,
                "duration": 2.3386,
                "tempo": 0
            },
            {
                "pitch": 43,
                "velocity": 12,
                "duration": 2.4818,
                "tempo": 120.0
            },
            {
                "pitch": 43,
                "velocity": 10,
                "duration": 2.4955,
                "tempo": 120.0
            }
        ],
        "Synth Bass 1": [
            {
                "pitch": 47,
                "velocity": 1,
                "duration": 2.4841,
                "tempo": 120.0
            },
            {
                "pitch": 47,
                "velocity": 1,
                "duration": 2.4977,
                "tempo": 120.0
            },
            {
                "pitch": 0,
                "velocity": 0,
                "duration": 2.3432,
                "tempo": 0
            },
            {
                "pitch": 47,
                "velocity": 1,
                "duration": 2.4773,
                "tempo": 120.0
            },
            {
                "pitch": 47,
                "velocity": 1,
                "duration": 2.4773,
                "tempo": 120.0
            },
            {
                "pitch": 55,
                "velocity": 1,
                "duration": 7.2955,
                "tempo": 120.0
            },
            {
                "pitch": 47,
                "velocity": 1,
                "duration": 2.4795,
                "tempo": 120.0
            },
            {
                "pitch": 47,
                "velocity": 1,
                "duration": 2.4955,
                "tempo": 120.0
            }
        ],
        "Acoustic Grand Piano": [
            {
                "pitch": 0,
                "velocity": 0,
                "duration": 19.5977,
                "tempo": 0
            },
            {
                "pitch": 108,
                "velocity": 15,
                "duration": 0.1,
                "tempo": 120.0
            }
        ]
    }
}