{
    "track_id": "Power Strike, Aleste (FM) - 13 - Easygoing_3",
    "mood": "sad",
    "instruments": {
        "Lead 1 (square)": [
            {
                "pitch": 43,
                "velocity": 7,
                "duration": 0.1159,
                "tempo": 120.0
            },
            {
                "pitch": 43,
                "velocity": 7,
                "duration": 0.1182,
                "tempo": 120.0
            },
            {
                "pitch": 55,
                "velocity": 7,
                "duration": 0.1386,
                "tempo": 120.0
            },
            {
                "pitch": 53,
                "velocity": 7,
                "duration": 0.1182,
                "tempo": 120.0
            },
            {
                "pitch": 53,
                "velocity": 7,
                "duration": 0.1114,
                "tempo": 120.0
            },
            {
                "pitch": 50,
                "velocity": 7,
                "duration": 0.1136,
                "tempo": 120.0
            },
            {
                "pitch": 52,
                "velocity": 7,
                "duration": 0.1114,
                "tempo": 120.0
            },
            {
                "pitch": 52,
                "velocity": 7,
                "duration": 0.1295,
                "tempo": 120.0
            },
            {
                "pitch": 43,
                "velocity": 7,
                "duration": 0.1182,
                "tempo": 120.0
            },
            {
                "pitch": 43,
                "velocity": 7,
                "duration": 0.1205,
                "tempo": 120.0
            },
            {
                "pitch": 55,
                "velocity": 7,
                "duration": 0.1182,
                "tempo": 120.0
            },
            {
                "pitch": 53,
                "velocity": 7,
                "duration": 0.1205,
                "tempo": 120.0
            },
            {
                "pitch": 53,
                "velocity": 7,
                "duration": 0.1318,
                "tempo": 120.0
            },
            {
                "pitch": 52,
                "velocity": 7,
                "duration": 0.1136,
                "tempo": 120.0
            },
            {
                "pitch": 55,
                "velocity": 7,
                "duration": 0.1159,
                "tempo": 120.0
            },
            {
                "pitch": 62,
                "velocity": 7,
                "duration": 0.1136,
                "tempo": 120.0
            },
            {
                "pitch": 43,
                "velocity": 7,
                "duration": 0.1205,
                "tempo": 120.0
            },
            {
                "pitch": 43,
                "velocity": 7,
                "duration": 0.1364,
                "tempo": 120.0
            },
            {
                "pitch": 55,
                "velocity": 7,
                "duration": 0.1182,
                "tempo": 120.0
            },
            {
                "pitch": 53,
                "velocity": 7,
                "duration": 0.1205,
                "tempo": 120.0
            },
            {
                "pitch": 53,
                "velocity": 7,
                "duration": 0.1136,
                "tempo": 120.0
            },
            {
                "pitch": 50,
                "velocity": 7,
                "duration": 0.1318,
                "tempo": 120.0
            },
            {
                "pitch": 52,
                "velocity": 7,
                "duration": 0.1159,
                "tempo": 120.0
            },
            {
                "pitch": 52,
                "velocity": 7,
                "duration": 0.1136,
                "tempo": 120.0
            },
            {
                "pitch": 43,
                "velocity": 7,
                "duration": 0.1205,
                "tempo": 120.0
            },
            {
                "pitch": 43,
                "velocity": 7,
                "duration": 0.1182,
                "tempo": 120.0
            },
            {
                "pitch": 55,
                "velocity": 7,
                "duration": 0.1364,
                "tempo": 120.0
            },
            {
                "pitch": 53,
                "velocity": 7,
                "duration": 0.1205,
                "tempo": 120.0
            },
            {
                "pitch": 53,
                "velocity": 7,
                "duration": 0.1205,
                "tempo": 120.0
            },
            {
                "pitch": 52,
                "velocity": 7,
                "duration": 0.1182,
                "tempo": 120.0
            },
            {
                "pitch": 55,
                "velocity": 7,
                "duration": 0.1205,
                "tempo": 120.0
            },
            {
                "pitch": 62,
                "velocity": 7,
                "duration": 0.1364,
                "tempo": 120.0
            },
            {
                "pitch": 46,
                "velocity": 7,
                "duration": 0.1159,
                "tempo": 120.0
            },
            {
                "pitch": 46,
                "velocity": 7,
                "duration": 0.1182,
                "tempo": 120.0
            },
            {
                "pitch": 58,
                "velocity": 7,
                "duration": 0.1159,
                "tempo": 120.0
            },
            {
                "pitch": 58,
                "velocity": 7,
                "duration": 0.1341,
                "tempo": 120.0
            },
            {
                "pitch": 56,
                "velocity": 7,
                "duration": 0.1136,
                "tempo": 120.0
            },
            {
                "pitch": 53,
                "velocity": 7,
                "duration": 0.1159,
                "tempo": 120.0
            },
            {
                "pitch": 55,
                "velocity": 7,
                "duration": 0.1136,
                "tempo": 120.0
            },
            {
                "pitch": 55,
                "velocity": 7,
                "duration": 0.1159,
                "tempo": 120.0
            },
            {
                "pitch": 46,
                "velocity": 7,
                "duration": 0.1295,
                "tempo": 120.0
            },
            {
                "pitch": 46,
                "velocity": 7,
                "duration": 0.1159,
                "tempo": 120.0
            },
            {
                "pitch": 58,
                "velocity": 7,
                "duration": 0.1136,
                "tempo": 120.0
            },
            {
                "pitch": 58,
                "velocity": 7,
                "duration": 0.1159,
                "tempo": 120.0
            },
            {
                "pitch": 56,
                "velocity": 7,
                "duration": 0.1182,
                "tempo": 120.0
            },
            {
                "pitch": 55,
                "velocity": 7,
                "duration": 0.1386,
                "tempo": 120.0
            },
            {
                "pitch": 56,
                "velocity": 7,
                "duration": 0.1182,
                "tempo": 120.0
            },
            {
                "pitch": 65,
                "velocity": 7,
                "duration": 0.1205,
                "tempo": 120.0
            },
            {
                "pitch": 46,
                "velocity": 7,
                "duration": 0.1182,
                "tempo": 120.0
            },
            {
                "pitch": 46,
                "velocity": 7,
                "duration": 0.1205,
                "tempo": 120.0
            },
            {
                "pitch": 58,
                "velocity": 7,
                "duration": 0.1364,
                "tempo": 120.0
            },
            {
                "pitch": 58,
                "velocity": 7,
                "duration": 0.1205,
                "tempo": 120.0
            },
            {
                "pitch": 56,
                "velocity": 7,
                "duration": 0.1136,
                "tempo": 120.0
            },
            {
                "pitch": 53,
                "velocity": 7,
                "duration": 0.1159,
                "tempo": 120.0
            },
            {
                "pitch": 55,
                "velocity": 7,
                "duration": 0.1295,
                "tempo": 120.0
            },
            {
                "pitch": 55,
                "velocity": 7,
                "duration": 0.1159,
                "tempo": 120.0
            },
            {
                "pitch": 46,
                "velocity": 7,
                "duration": 0.1182,
                "tempo": 120.0
            },
            {
                "pitch": 46,
                "velocity": 7,
                "duration": 0.1159,
                "tempo": 120.0
            },
            {
                "pitch": 58,
                "velocity": 7,
                "duration": 0.1182,
                "tempo": 120.0
            },
            {
                "pitch": 58,
                "velocity": 7,
                "duration": 0.1341,
                "tempo": 120.0
            },
            {
                "pitch": 56,
                "velocity": 7,
                "duration": 0.1205,
                "tempo": 120.0
            },
            {
                "pitch": 55,
                "velocity": 7,
                "duration": 0.1182,
                "tempo": 120.0
            },
            {
                "pitch": 56,
                "velocity": 7,
                "duration": 0.1205,
                "tempo": 120.0
            },
            {
                "pitch": 65,
                "velocity": 7,
                "duration": 0.1205,
                "tempo": 120.0
            },
            {
                "pitch": 41,
                "velocity": 7,
                "duration": 0.1341,
                "tempo": 120.0
            },
            {
                "pitch": 41,
                "velocity": 7,
                "duration": 0.1182,
                "tempo": 120.0
            },
            {
                "pitch": 53,
                "velocity": 7,
                "duration": 0.1159,
                "tempo": 120.0
            },
            {
                "pitch": 51,
                "velocity": 7,
                "duration": 0.1182,
                "tempo": 120.0
            },
            {
                "pitch": 51,
                "velocity": 7,
                "duration": 0.1159,
                "tempo": 120.0
            },
            {
                "pitch": 48,
                "velocity": 7,
                "duration": 0.1295,
                "tempo": 120.0
            },
            {
                "pitch": 50,
                "velocity": 7,
                "duration": 0.1159,
                "tempo": 120.0
            },
            {
                "pitch": 50,
                "velocity": 7,
                "duration": 0.1136,
                "tempo": 120.0
            },
            {
                "pitch": 41,
                "velocity": 7,
                "duration": 0.1182,
                "tempo": 120.0
            },
            {
                "pitch": 41,
                "velocity": 7,
                "duration": 0.1341,
                "tempo": 120.0
            },
            {
                "pitch": 53,
                "velocity": 7,
                "duration": 0.1182,
                "tempo": 120.0
            },
            {
                "pitch": 51,
                "velocity": 7,
                "duration": 0.1182,
                "tempo": 120.0
            },
            {
                "pitch": 51,
                "velocity": 7,
                "duration": 0.1182,
                "tempo": 120.0
            },
            {
                "pitch": 50,
                "velocity": 7,
                "duration": 0.1205,
                "tempo": 120.0
            },
            {
                "pitch": 53,
                "velocity": 7,
                "duration": 0.1364,
                "tempo": 120.0
            },
            {
                "pitch": 60,
                "velocity": 7,
                "duration": 0.1205,
                "tempo": 120.0
            },
            {
                "pitch": 41,
                "velocity": 7,
                "duration": 0.1182,
                "tempo": 120.0
            },
            {
                "pitch": 41,
                "velocity": 7,
                "duration": 0.1205,
                "tempo": 120.0
            },
            {
                "pitch": 53,
                "velocity": 7,
                "duration": 0.1182,
                "tempo": 120.0
            },
            {
                "pitch": 51,
                "velocity": 7,
                "duration": 0.1364,
                "tempo": 120.0
            },
            {
                "pitch": 51,
                "velocity": 7,
                "duration": 0.1159,
                "tempo": 120.0
            },
            {
                "pitch": 48,
                "velocity": 7,
                "duration": 0.1159,
                "tempo": 120.0
            },
            {
                "pitch": 50,
                "velocity": 7,
                "duration": 0.1136,
                "tempo": 120.0
            },
            {
                "pitch": 50,
                "velocity": 7,
                "duration": 0.1159,
                "tempo": 120.0
            },
            {
                "pitch": 41,
                "velocity": 7,
                "duration": 0.1295,
                "tempo": 120.0
            },
            {
                "pitch": 41,
                "velocity": 7,
                "duration": 0.1159,
                "tempo": 120.0
            },
            {
                "pitch": 53,
                "velocity": 7,
                "duration": 0.1136,
                "tempo": 120.0
            },
            {
                "pitch": 51,
                "velocity": 7,
                "duration": 0.1159,
                "tempo": 120.0
            },
            {
                "pitch": 51,
                "velocity": 7,
                "duration": 0.1364,
                "tempo": 120.0
            },
            {
                "pitch": 50,
                "velocity": 7,
                "duration": 0.1182,
                "tempo": 120.0
            },
            {
                "pitch": 53,
                "velocity": 7,
                "duration": 0.1205,
                "tempo": 120.0
            },
            {
                "pitch": 60,
                "velocity": 7,
                "duration": 2.0636,
                "tempo": 120.0
            },
            {
                "pitch": 58,
                "velocity": 7,
                "duration": 0.1205,
                "tempo": 120.0
            },
            {
                "pitch": 58,
                "velocity": 7,
                "duration": 0.1205,
                "tempo": 120.0
            },
            {
                "pitch": 70,
                "velocity": 7,
                "duration": 0.1182,
                "tempo": 120.0
            },
            {
                "pitch": 58,
                "velocity": 7,
                "duration": 0.1205,
                "tempo": 120.0
            },
            {
                "pitch": 65,
                "velocity": 7,
                "duration": 0.1273,
                "tempo": 120.0
            },
            {
                "pitch": 70,
                "velocity": 7,
                "duration": 0.1114,
                "tempo": 120.0
            },
            {
                "pitch": 58,
                "velocity": 7,
                "duration": 0.1136,
                "tempo": 120.0
            },
            {
                "pitch": 77,
                "velocity": 7,
                "duration": 0.1114,
                "tempo": 120.0
            },
            {
                "pitch": 58,
                "velocity": 7,
                "duration": 0.1205,
                "tempo": 120.0
            },
            {
                "pitch": 58,
                "velocity": 7,
                "duration": 0.1364,
                "tempo": 120.0
            },
            {
                "pitch": 70,
                "velocity": 7,
                "duration": 0.1182,
                "tempo": 120.0
            },
            {
                "pitch": 65,
                "velocity": 7,
                "duration": 0.1205,
                "tempo": 120.0
            },
            {
                "pitch": 58,
                "velocity": 7,
                "duration": 0.1182,
                "tempo": 120.0
            },
            {
                "pitch": 77,
                "velocity": 7,
                "duration": 0.1386,
                "tempo": 120.0
            },
            {
                "pitch": 58,
                "velocity": 7,
                "duration": 0.1182,
                "tempo": 120.0
            },
            {
                "pitch": 77,
                "velocity": 7,
                "duration": 0.1205,
                "tempo": 120.0
            },
            {
                "pitch": 58,
                "velocity": 7,
                "duration": 0.1182,
                "tempo": 120.0
            },
            {
                "pitch": 58,
                "velocity": 7,
                "duration": 0.1159,
                "tempo": 120.0
            },
            {
                "pitch": 70,
                "velocity": 7,
                "duration": 0.1341,
                "tempo": 120.0
            },
            {
                "pitch": 58,
                "velocity": 7,
                "duration": 0.1182,
                "tempo": 120.0
            },
            {
                "pitch": 65,
                "velocity": 7,
                "duration": 0.1159,
                "tempo": 120.0
            },
            {
                "pitch": 70,
                "velocity": 7,
                "duration": 0.1182,
                "tempo": 120.0
            },
            {
                "pitch": 58,
                "velocity": 7,
                "duration": 0.1159,
                "tempo": 120.0
            },
            {
                "pitch": 77,
                "velocity": 7,
                "duration": 0.1341,
                "tempo": 120.0
            },
            {
                "pitch": 58,
                "velocity": 7,
                "duration": 0.1182,
                "tempo": 120.0
            },
            {
                "pitch": 58,
                "velocity": 7,
                "duration": 0.1159,
                "tempo": 120.0
            },
            {
                "pitch": 70,
                "velocity": 7,
                "duration": 0.1182,
                "tempo": 120.0
            },
            {
                "pitch": 65,
                "velocity": 7,
                "duration": 0.1182,
                "tempo": 120.0
            },
            {
                "pitch": 58,
                "velocity": 7,
                "duration": 0.1318,
                "tempo": 120.0
            },
            {
                "pitch": 77,
                "velocity": 7,
                "duration": 0.1136,
                "tempo": 120.0
            },
            {
                "pitch": 58,
                "velocity": 7,
                "duration": 0.1159,
                "tempo": 120.0
            },
            {
                "pitch": 77,
                "velocity": 7,
                "duration": 0.1136,
                "tempo": 120.0
            },
            {
                "pitch": 60,
                "velocity": 7,
                "duration": 0.1364,
                "tempo": 120.0
            },
            {
                "pitch": 60,
                "velocity": 7,
                "duration": 0.1205,
                "tempo": 120.0
            },
            {
                "pitch": 72,
                "velocity": 7,
                "duration": 0.1182,
                "tempo": 120.0
            },
            {
                "pitch": 60,
                "velocity": 7,
                "duration": 0.1205,
                "tempo": 120.0
            },
            {
                "pitch": 67,
                "velocity": 7,
                "duration": 0.1136,
                "tempo": 120.0
            },
            {
                "pitch": 72,
                "velocity": 7,
                "duration": 0.1318,
                "tempo": 120.0
            },
            {
                "pitch": 60,
                "velocity": 7,
                "duration": 0.1159,
                "tempo": 120.0
            },
            {
                "pitch": 79,
                "velocity": 7,
                "duration": 0.1136,
                "tempo": 120.0
            },
            {
                "pitch": 60,
                "velocity": 7,
                "duration": 0.1205,
                "tempo": 120.0
            },
            {
                "pitch": 60,
                "velocity": 7,
                "duration": 0.1182,
                "tempo": 120.0
            },
            {
                "pitch": 72,
                "velocity": 7,
                "duration": 0.1364,
                "tempo": 120.0
            },
            {
                "pitch": 67,
                "velocity": 7,
                "duration": 0.1205,
                "tempo": 120.0
            },
            {
                "pitch": 60,
                "velocity": 7,
                "duration": 0.1182,
                "tempo": 120.0
            },
            {
                "pitch": 79,
                "velocity": 7,
                "duration": 0.1205,
                "tempo": 120.0
            },
            {
                "pitch": 60,
                "velocity": 7,
                "duration": 0.1205,
                "tempo": 120.0
            },
            {
                "pitch": 79,
                "velocity": 7,
                "duration": 0.1364,
                "tempo": 120.0
            },
            {
                "pitch": 60,
                "velocity": 7,
                "duration": 0.1159,
                "tempo": 120.0
            },
            {
                "pitch": 60,
                "velocity": 7,
                "duration": 0.1159,
                "tempo": 120.0
            },
            {
                "pitch": 72,
                "velocity": 7,
                "duration": 0.1182,
                "tempo": 120.0
            },
            {
                "pitch": 60,
                "velocity": 7,
                "duration": 0.1318,
                "tempo": 120.0
            },
            {
                "pitch": 67,
                "velocity": 7,
                "duration": 0.1182,
                "tempo": 120.0
            },
            {
                "pitch": 72,
                "velocity": 7,
                "duration": 0.1182,
                "tempo": 120.0
            },
            {
                "pitch": 60,
                "velocity": 7,
                "duration": 0.1182,
                "tempo": 120.0
            },
            {
                "pitch": 79,
                "velocity": 7,
                "duration": 0.1159,
                "tempo": 120.0
            },
            {
                "pitch": 60,
                "velocity": 7,
                "duration": 0.1295,
                "tempo": 120.0
            },
            {
                "pitch": 60,
                "velocity": 7,
                "duration": 0.1114,
                "tempo": 120.0
            },
            {
                "pitch": 72,
                "velocity": 7,
                "duration": 0.1114,
                "tempo": 120.0
            },
            {
                "pitch": 67,
                "velocity": 7,
                "duration": 0.1136,
                "tempo": 120.0
            },
            {
                "pitch": 60,
                "velocity": 7,
                "duration": 0.1182,
                "tempo": 120.0
            },
            {
                "pitch": 79,
                "velocity": 7,
                "duration": 0.1364,
                "tempo": 120.0
            },
            {
                "pitch": 60,
                "velocity": 7,
                "duration": 0.1205,
                "tempo": 120.0
            },
            {
                "pitch": 79,
                "velocity": 7,
                "duration": 0.1205,
                "tempo": 120.0
            },
            {
                "pitch": 62,
                "velocity": 7,
                "duration": 0.1182,
                "tempo": 120.0
            },
            {
                "pitch": 62,
                "velocity": 7,
                "duration": 0.1364,
                "tempo": 120.0
            },
            {
                "pitch": 74,
                "velocity": 7,
                "duration": 0.1205,
                "tempo": 120.0
            },
            {
                "pitch": 62,
                "velocity": 7,
                "duration": 0.1182,
                "tempo": 120.0
            },
            {
                "pitch": 69,
                "velocity": 7,
                "duration": 0.1159,
                "tempo": 120.0
            },
            {
                "pitch": 74,
                "velocity": 7,
                "duration": 0.1136,
                "tempo": 120.0
            },
            {
                "pitch": 62,
                "velocity": 7,
                "duration": 0.1318,
                "tempo": 120.0
            },
            {
                "pitch": 81,
                "velocity": 7,
                "duration": 0.1159,
                "tempo": 120.0
            },
            {
                "pitch": 62,
                "velocity": 7,
                "duration": 0.1182,
                "tempo": 120.0
            },
            {
                "pitch": 62,
                "velocity": 7,
                "duration": 0.1205,
                "tempo": 120.0
            },
            {
                "pitch": 74,
                "velocity": 7,
                "duration": 0.1182,
                "tempo": 120.0
            },
            {
                "pitch": 69,
                "velocity": 7,
                "duration": 0.1386,
                "tempo": 120.0
            },
            {
                "pitch": 62,
                "velocity": 7,
                "duration": 0.1159,
                "tempo": 120.0
            },
            {
                "pitch": 81,
                "velocity": 7,
                "duration": 0.1182,
                "tempo": 120.0
            },
            {
                "pitch": 62,
                "velocity": 7,
                "duration": 0.1182,
                "tempo": 120.0
            },
            {
                "pitch": 81,
                "velocity": 7,
                "duration": 0.1159,
                "tempo": 120.0
            },
            {
                "pitch": 62,
                "velocity": 7,
                "duration": 0.1318,
                "tempo": 120.0
            },
            {
                "pitch": 62,
                "velocity": 7,
                "duration": 0.1159,
                "tempo": 120.0
            },
            {
                "pitch": 74,
                "velocity": 7,
                "duration": 0.1136,
                "tempo": 120.0
            },
            {
                "pitch": 62,
                "velocity": 7,
                "duration": 0.1159,
                "tempo": 120.0
            },
            {
                "pitch": 69,
                "velocity": 7,
                "duration": 0.1341,
                "tempo": 120.0
            },
            {
                "pitch": 74,
                "velocity": 7,
                "duration": 0.1182,
                "tempo": 120.0
            },
            {
                "pitch": 62,
                "velocity": 7,
                "duration": 0.1159,
                "tempo": 120.0
            },
            {
                "pitch": 81,
                "velocity": 7,
                "duration": 0.1182,
                "tempo": 120.0
            },
            {
                "pitch": 62,
                "velocity": 7,
                "duration": 0.1182,
                "tempo": 120.0
            },
            {
                "pitch": 62,
                "velocity": 7,
                "duration": 0.1341,
                "tempo": 120.0
            },
            {
                "pitch": 74,
                "velocity": 7,
                "duration": 0.1182,
                "tempo": 120.0
            },
            {
                "pitch": 69,
                "velocity": 7,
                "duration": 0.1182,
                "tempo": 120.0
            },
            {
                "pitch": 62,
                "velocity": 7,
                "duration": 0.1182,
                "tempo": 120.0
            },
            {
                "pitch": 81,
                "velocity": 7,
                "duration": 0.1205,
                "tempo": 120.0
            },
            {
                "pitch": 62,
                "velocity": 7,
                "duration": 0.1364,
                "tempo": 120.0
            },
            {
                "pitch": 81,
                "velocity": 7,
                "duration": 0.1182,
                "tempo": 120.0
            },
            {
                "pitch": 63,
                "velocity": 7,
                "duration": 0.1205,
                "tempo": 120.0
            },
            {
                "pitch": 63,
                "velocity": 7,
                "duration": 0.1205,
                "tempo": 120.0
            },
            {
                "pitch": 75,
                "velocity": 7,
                "duration": 0.1182,
                "tempo": 120.0
            },
            {
                "pitch": 63,
                "velocity": 7,
                "duration": 0.1364,
                "tempo": 120.0
            },
            {
                "pitch": 70,
                "velocity": 7,
                "duration": 0.1159,
                "tempo": 120.0
            },
            {
                "pitch": 75,
                "velocity": 7,
                "duration": 0.1136,
                "tempo": 120.0
            },
            {
                "pitch": 63,
                "velocity": 7,
                "duration": 0.1159,
                "tempo": 120.0
            },
            {
                "pitch": 82,
                "velocity": 7,
                "duration": 0.1295,
                "tempo": 120.0
            },
            {
                "pitch": 63,
                "velocity": 7,
                "duration": 0.1205,
                "tempo": 120.0
            },
            {
                "pitch": 63,
                "velocity": 7,
                "duration": 0.1205,
                "tempo": 120.0
            },
            {
                "pitch": 75,
                "velocity": 7,
                "duration": 0.1182,
                "tempo": 120.0
            },
            {
                "pitch": 70,
                "velocity": 7,
                "duration": 0.1205,
                "tempo": 120.0
            },
            {
                "pitch": 63,
                "velocity": 7,
                "duration": 0.1318,
                "tempo": 120.0
            },
            {
                "pitch": 82,
                "velocity": 7,
                "duration": 0.1136,
                "tempo": 120.0
            },
            {
                "pitch": 63,
                "velocity": 7,
                "duration": 0.1159,
                "tempo": 120.0
            },
            {
                "pitch": 82,
                "velocity": 7,
                "duration": 0.1136,
                "tempo": 120.0
            },
            {
                "pitch": 63,
                "velocity": 7,
                "duration": 0.1182,
                "tempo": 120.0
            },
            {
                "pitch": 63,
                "velocity": 7,
                "duration": 0.1341,
                "tempo": 120.0
            },
            {
                "pitch": 75,
                "velocity": 7,
                "duration": 0.1182,
                "tempo": 120.0
            },
            {
                "pitch": 63,
                "velocity": 7,
                "duration": 0.1182,
                "tempo": 120.0
            },
            {
                "pitch": 70,
                "velocity": 7,
                "duration": 0.1159,
                "tempo": 120.0
            },
            {
                "pitch": 75,
                "velocity": 7,
                "duration": 0.1159,
                "tempo": 120.0
            },
            {
                "pitch": 63,
                "velocity": 7,
                "duration": 0.1341,
                "tempo": 120.0
            },
            {
                "pitch": 82,
                "velocity": 7,
                "duration": 0.1159,
                "tempo": 120.0
            },
            {
                "pitch": 63,
                "velocity": 7,
                "duration": 0.1182,
                "tempo": 120.0
            },
            {
                "pitch": 63,
                "velocity": 7,
                "duration": 0.1182,
                "tempo": 120.0
            },
            {
                "pitch": 75,
                "velocity": 7,
                "duration": 0.1341,
                "tempo": 120.0
            },
            {
                "pitch": 70,
                "velocity": 7,
                "duration": 0.1182,
                "tempo": 120.0
            },
            {
                "pitch": 63,
                "velocity": 7,
                "duration": 0.1182,
                "tempo": 120.0
            },
            {
                "pitch": 82,
                "velocity": 7,
                "duration": 0.1205,
                "tempo": 120.0
            },
            {
                "pitch": 63,
                "velocity": 7,
                "duration": 0.1182,
                "tempo": 120.0
            },
            {
                "pitch": 82,
                "velocity": 7,
                "duration": 0.1364,
                "tempo": 120.0
            },
            {
                "pitch": 58,
                "velocity": 7,
                "duration": 0.1182,
                "tempo": 120.0
            },
            {
                "pitch": 56,
                "velocity": 7,
                "duration": 0.1182,
                "tempo": 120.0
            },
            {
                "pitch": 68,
                "velocity": 7,
                "duration": 0.1182,
                "tempo": 120.0
            },
            {
                "pitch": 56,
                "velocity": 7,
                "duration": 0.1159,
                "tempo": 120.0
            },
            {
                "pitch": 63,
                "velocity": 7,
                "duration": 0.1318,
                "tempo": 120.0
            },
            {
                "pitch": 68,
                "velocity": 7,
                "duration": 0.1159,
                "tempo": 120.0
            },
            {
                "pitch": 56,
                "velocity": 7,
                "duration": 0.1136,
                "tempo": 120.0
            },
            {
                "pitch": 75,
                "velocity": 7,
                "duration": 0.1159,
                "tempo": 120.0
            },
            {
                "pitch": 56,
                "velocity": 7,
                "duration": 0.1341,
                "tempo": 120.0
            },
            {
                "pitch": 56,
                "velocity": 7,
                "duration": 0.1182,
                "tempo": 120.0
            },
            {
                "pitch": 68,
                "velocity": 7,
                "duration": 0.1159,
                "tempo": 120.0
            },
            {
                "pitch": 63,
                "velocity": 7,
                "duration": 0.1182,
                "tempo": 120.0
            },
            {
                "pitch": 56,
                "velocity": 7,
                "duration": 0.1205,
                "tempo": 120.0
            },
            {
                "pitch": 75,
                "velocity": 7,
                "duration": 0.1364,
                "tempo": 120.0
            },
            {
                "pitch": 56,
                "velocity": 7,
                "duration": 0.1182,
                "tempo": 120.0
            },
            {
                "pitch": 75,
                "velocity": 7,
                "duration": 0.1205,
                "tempo": 120.0
            },
            {
                "pitch": 56,
                "velocity": 7,
                "duration": 0.1182,
                "tempo": 120.0
            },
            {
                "pitch": 56,
                "velocity": 7,
                "duration": 0.1159,
                "tempo": 120.0
            },
            {
                "pitch": 68,
                "velocity": 7,
                "duration": 0.1364,
                "tempo": 120.0
            },
            {
                "pitch": 56,
                "velocity": 7,
                "duration": 0.1159,
                "tempo": 120.0
            },
            {
                "pitch": 63,
                "velocity": 7,
                "duration": 0.1182,
                "tempo": 120.0
            },
            {
                "pitch": 68,
                "velocity": 7,
                "duration": 0.1182,
                "tempo": 120.0
            },
            {
                "pitch": 56,
                "velocity": 7,
                "duration": 0.1182,
                "tempo": 120.0
            },
            {
                "pitch": 75,
                "velocity": 7,
                "duration": 0.1341,
                "tempo": 120.0
            },
            {
                "pitch": 56,
                "velocity": 7,
                "duration": 0.1159,
                "tempo": 120.0
            },
            {
                "pitch": 56,
                "velocity": 7,
                "duration": 0.1182,
                "tempo": 120.0
            },
            {
                "pitch": 68,
                "velocity": 7,
                "duration": 0.1182,
                "tempo": 120.0
            },
            {
                "pitch": 63,
                "velocity": 7,
                "duration": 0.1341,
                "tempo": 120.0
            },
            {
                "pitch": 56,
                "velocity": 7,
                "duration": 0.1205,
                "tempo": 120.0
            },
            {
                "pitch": 75,
                "velocity": 7,
                "duration": 0.1182,
                "tempo": 120.0
            },
            {
                "pitch": 56,
                "velocity": 7,
                "duration": 0.1205,
                "tempo": 120.0
            },
            {
                "pitch": 75,
                "velocity": 7,
                "duration": 0.1182,
                "tempo": 120.0
            },
            {
                "pitch": 58,
                "velocity": 7,
                "duration": 0.1318,
                "tempo": 120.0
            },
            {
                "pitch": 58,
                "velocity": 7,
                "duration": 0.1159,
                "tempo": 120.0
            },
            {
                "pitch": 70,
                "velocity": 7,
                "duration": 0.1136,
                "tempo": 120.0
            },
            {
                "pitch": 58,
                "velocity": 7,
                "duration": 0.1159,
                "tempo": 120.0
            },
            {
                "pitch": 65,
                "velocity": 7,
                "duration": 0.1159,
                "tempo": 120.0
            },
            {
                "pitch": 70,
                "velocity": 7,
                "duration": 0.1364,
                "tempo": 120.0
            },
            {
                "pitch": 58,
                "velocity": 7,
                "duration": 0.1159,
                "tempo": 120.0
            },
            {
                "pitch": 77,
                "velocity": 7,
                "duration": 0.1182,
                "tempo": 120.0
            },
            {
                "pitch": 58,
                "velocity": 7,
                "duration": 0.1159,
                "tempo": 120.0
            },
            {
                "pitch": 58,
                "velocity": 7,
                "duration": 0.1182,
                "tempo": 120.0
            },
            {
                "pitch": 70,
                "velocity": 7,
                "duration": 0.1318,
                "tempo": 120.0
            },
            {
                "pitch": 65,
                "velocity": 7,
                "duration": 0.1182,
                "tempo": 120.0
            },
            {
                "pitch": 58,
                "velocity": 7,
                "duration": 0.1159,
                "tempo": 120.0
            },
            {
                "pitch": 77,
                "velocity": 7,
                "duration": 0.1182,
                "tempo": 120.0
            },
            {
                "pitch": 58,
                "velocity": 7,
                "duration": 0.1341,
                "tempo": 120.0
            },
            {
                "pitch": 77,
                "velocity": 7,
                "duration": 0.1182,
                "tempo": 120.0
            },
            {
                "pitch": 58,
                "velocity": 7,
                "duration": 0.1205,
                "tempo": 120.0
            },
            {
                "pitch": 58,
                "velocity": 7,
                "duration": 0.1182,
                "tempo": 120.0
            },
            {
                "pitch": 70,
                "velocity": 7,
                "duration": 0.1205,
                "tempo": 120.0
            },
            {
                "pitch": 58,
                "velocity": 7,
                "duration": 0.1364,
                "tempo": 120.0
            },
            {
                "pitch": 65,
                "velocity": 7,
                "duration": 0.1182,
                "tempo": 120.0
            },
            {
                "pitch": 70,
                "velocity": 7,
                "duration": 0.1159,
                "tempo": 120.0
            },
            {
                "pitch": 58,
                "velocity": 7,
                "duration": 0.1182,
                "tempo": 120.0
            },
            {
                "pitch": 77,
                "velocity": 7,
                "duration": 0.1182,
                "tempo": 120.0
            },
            {
                "pitch": 58,
                "velocity": 7,
                "duration": 0.1318,
                "tempo": 120.0
            },
            {
                "pitch": 58,
                "velocity": 7,
                "duration": 0.1136,
                "tempo": 120.0
            },
            {
                "pitch": 70,
                "velocity": 7,
                "duration": 0.1159,
                "tempo": 120.0
            },
            {
                "pitch": 65,
                "velocity": 7,
                "duration": 0.1136,
                "tempo": 120.0
            },
            {
                "pitch": 58,
                "velocity": 7,
                "duration": 0.1182,
                "tempo": 120.0
            },
            {
                "pitch": 77,
                "velocity": 7,
                "duration": 0.1318,
                "tempo": 120.0
            },
            {
                "pitch": 58,
                "velocity": 7,
                "duration": 0.1182,
                "tempo": 120.0
            },
            {
                "pitch": 77,
                "velocity": 7,
                "duration": 0.1159,
                "tempo": 120.0
            },
            {
                "pitch": 0,
                "velocity": 0,
                "duration": 0.0159,
                "tempo": 0
            },
            {
                "pitch": 43,
                "velocity": 7,
                "duration": 0.0182,
                "tempo": 120.0
            }
        ],
        "Lead 2 (sawtooth)": [
            {
                "pitch": 0,
                "velocity": 0,
                "duration": 0.0136,
                "tempo": 0
            },
            {
                "pitch": 43,
                "velocity": 15,
                "duration": 0.1023,
                "tempo": 120.0
            },
            {
                "pitch": 43,
                "velocity": 15,
                "duration": 0.1182,
                "tempo": 120.0
            },
            {
                "pitch": 43,
                "velocity": 15,
                "duration": 0.1386,
                "tempo": 120.0
            },
            {
                "pitch": 43,
                "velocity": 15,
                "duration": 0.1182,
                "tempo": 120.0
            },
            {
                "pitch": 43,
                "velocity": 15,
                "duration": 0.1114,
                "tempo": 120.0
            },
            {
                "pitch": 43,
                "velocity": 15,
                "duration": 0.1136,
                "tempo": 120.0
            },
            {
                "pitch": 43,
                "velocity": 15,
                "duration": 0.1114,
                "tempo": 120.0
            },
            {
                "pitch": 43,
                "velocity": 15,
                "duration": 0.1295,
                "tempo": 120.0
            },
            {
                "pitch": 43,
                "velocity": 15,
                "duration": 0.1182,
                "tempo": 120.0
            },
            {
                "pitch": 43,
                "velocity": 15,
                "duration": 0.1205,
                "tempo": 120.0
            },
            {
                "pitch": 43,
                "velocity": 15,
                "duration": 0.1182,
                "tempo": 120.0
            },
            {
                "pitch": 43,
                "velocity": 15,
                "duration": 0.1205,
                "tempo": 120.0
            },
            {
                "pitch": 43,
                "velocity": 15,
                "duration": 0.1318,
                "tempo": 120.0
            },
            {
                "pitch": 43,
                "velocity": 15,
                "duration": 0.1136,
                "tempo": 120.0
            },
            {
                "pitch": 43,
                "velocity": 15,
                "duration": 0.1159,
                "tempo": 120.0
            },
            {
                "pitch": 43,
                "velocity": 15,
                "duration": 0.1136,
                "tempo": 120.0
            },
            {
                "pitch": 43,
                "velocity": 15,
                "duration": 0.1205,
                "tempo": 120.0
            },
            {
                "pitch": 43,
                "velocity": 15,
                "duration": 0.1364,
                "tempo": 120.0
            },
            {
                "pitch": 43,
                "velocity": 15,
                "duration": 0.1182,
                "tempo": 120.0
            },
            {
                "pitch": 43,
                "velocity": 15,
                "duration": 0.1205,
                "tempo": 120.0
            },
            {
                "pitch": 43,
                "velocity": 15,
                "duration": 0.1136,
                "tempo": 120.0
            },
            {
                "pitch": 43,
                "velocity": 15,
                "duration": 0.1318,
                "tempo": 120.0
            },
            {
                "pitch": 43,
                "velocity": 15,
                "duration": 0.1159,
                "tempo": 120.0
            },
            {
                "pitch": 43,
                "velocity": 15,
                "duration": 0.1136,
                "tempo": 120.0
            },
            {
                "pitch": 43,
                "velocity": 15,
                "duration": 0.1205,
                "tempo": 120.0
            },
            {
                "pitch": 43,
                "velocity": 15,
                "duration": 0.1182,
                "tempo": 120.0
            },
            {
                "pitch": 43,
                "velocity": 15,
                "duration": 0.1364,
                "tempo": 120.0
            },
            {
                "pitch": 43,
                "velocity": 15,
                "duration": 0.1205,
                "tempo": 120.0
            },
            {
                "pitch": 43,
                "velocity": 15,
                "duration": 0.1205,
                "tempo": 120.0
            },
            {
                "pitch": 43,
                "velocity": 15,
                "duration": 0.1182,
                "tempo": 120.0
            },
            {
                "pitch": 43,
                "velocity": 15,
                "duration": 0.1205,
                "tempo": 120.0
            },
            {
                "pitch": 43,
                "velocity": 15,
                "duration": 0.1364,
                "tempo": 120.0
            },
            {
                "pitch": 46,
                "velocity": 15,
                "duration": 0.1159,
                "tempo": 120.0
            },
            {
                "pitch": 46,
                "velocity": 15,
                "duration": 0.1182,
                "tempo": 120.0
            },
            {
                "pitch": 46,
                "velocity": 15,
                "duration": 0.1159,
                "tempo": 120.0
            },
            {
                "pitch": 46,
                "velocity": 15,
                "duration": 0.1341,
                "tempo": 120.0
            },
            {
                "pitch": 46,
                "velocity": 15,
                "duration": 0.1136,
                "tempo": 120.0
            },
            {
                "pitch": 46,
                "velocity": 15,
                "duration": 0.1159,
                "tempo": 120.0
            },
            {
                "pitch": 46,
                "velocity": 15,
                "duration": 0.1136,
                "tempo": 120.0
            },
            {
                "pitch": 46,
                "velocity": 15,
                "duration": 0.1159,
                "tempo": 120.0
            },
            {
                "pitch": 46,
                "velocity": 15,
                "duration": 0.1295,
                "tempo": 120.0
            },
            {
                "pitch": 46,
                "velocity": 15,
                "duration": 0.1159,
                "tempo": 120.0
            },
            {
                "pitch": 46,
                "velocity": 15,
                "duration": 0.1136,
                "tempo": 120.0
            },
            {
                "pitch": 46,
                "velocity": 15,
                "duration": 0.1159,
                "tempo": 120.0
            },
            {
                "pitch": 46,
                "velocity": 15,
                "duration": 0.1182,
                "tempo": 120.0
            },
            {
                "pitch": 46,
                "velocity": 15,
                "duration": 0.1386,
                "tempo": 120.0
            },
            {
                "pitch": 46,
                "velocity": 15,
                "duration": 0.1182,
                "tempo": 120.0
            },
            {
                "pitch": 46,
                "velocity": 15,
                "duration": 0.1205,
                "tempo": 120.0
            },
            {
                "pitch": 46,
                "velocity": 15,
                "duration": 0.1182,
                "tempo": 120.0
            },
            {
                "pitch": 46,
                "velocity": 15,
                "duration": 0.1205,
                "tempo": 120.0
            },
            {
                "pitch": 46,
                "velocity": 15,
                "duration": 0.1364,
                "tempo": 120.0
            },
            {
                "pitch": 46,
                "velocity": 15,
                "duration": 0.1205,
                "tempo": 120.0
            },
            {
                "pitch": 46,
                "velocity": 15,
                "duration": 0.1136,
                "tempo": 120.0
            },
            {
                "pitch": 46,
                "velocity": 15,
                "duration": 0.1159,
                "tempo": 120.0
            },
            {
                "pitch": 46,
                "velocity": 15,
                "duration": 0.1295,
                "tempo": 120.0
            },
            {
                "pitch": 46,
                "velocity": 15,
                "duration": 0.1159,
                "tempo": 120.0
            },
            {
                "pitch": 46,
                "velocity": 15,
                "duration": 0.1182,
                "tempo": 120.0
            },
            {
                "pitch": 46,
                "velocity": 15,
                "duration": 0.1159,
                "tempo": 120.0
            },
            {
                "pitch": 46,
                "velocity": 15,
                "duration": 0.1182,
                "tempo": 120.0
            },
            {
                "pitch": 46,
                "velocity": 15,
                "duration": 0.1341,
                "tempo": 120.0
            },
            {
                "pitch": 46,
                "velocity": 15,
                "duration": 0.1205,
                "tempo": 120.0
            },
            {
                "pitch": 46,
                "velocity": 15,
                "duration": 0.1182,
                "tempo": 120.0
            },
            {
                "pitch": 46,
                "velocity": 15,
                "duration": 0.1205,
                "tempo": 120.0
            },
            {
                "pitch": 46,
                "velocity": 15,
                "duration": 0.1205,
                "tempo": 120.0
            },
            {
                "pitch": 41,
                "velocity": 15,
                "duration": 0.1341,
                "tempo": 120.0
            },
            {
                "pitch": 41,
                "velocity": 15,
                "duration": 0.1182,
                "tempo": 120.0
            },
            {
                "pitch": 41,
                "velocity": 15,
                "duration": 0.1159,
                "tempo": 120.0
            },
            {
                "pitch": 41,
                "velocity": 15,
                "duration": 0.1182,
                "tempo": 120.0
            },
            {
                "pitch": 41,
                "velocity": 15,
                "duration": 0.1159,
                "tempo": 120.0
            },
            {
                "pitch": 41,
                "velocity": 15,
                "duration": 0.1295,
                "tempo": 120.0
            },
            {
                "pitch": 41,
                "velocity": 15,
                "duration": 0.1159,
                "tempo": 120.0
            },
            {
                "pitch": 41,
                "velocity": 15,
                "duration": 0.1136,
                "tempo": 120.0
            },
            {
                "pitch": 41,
                "velocity": 15,
                "duration": 0.1182,
                "tempo": 120.0
            },
            {
                "pitch": 41,
                "velocity": 15,
                "duration": 0.1341,
                "tempo": 120.0
            },
            {
                "pitch": 41,
                "velocity": 15,
                "duration": 0.1182,
                "tempo": 120.0
            },
            {
                "pitch": 41,
                "velocity": 15,
                "duration": 0.1182,
                "tempo": 120.0
            },
            {
                "pitch": 41,
                "velocity": 15,
                "duration": 0.1182,
                "tempo": 120.0
            },
            {
                "pitch": 41,
                "velocity": 15,
                "duration": 0.1205,
                "tempo": 120.0
            },
            {
                "pitch": 41,
                "velocity": 15,
                "duration": 0.1364,
                "tempo": 120.0
            },
            {
                "pitch": 41,
                "velocity": 15,
                "duration": 0.1205,
                "tempo": 120.0
            },
            {
                "pitch": 41,
                "velocity": 15,
                "duration": 0.1182,
                "tempo": 120.0
            },
            {
                "pitch": 41,
                "velocity": 15,
                "duration": 0.1205,
                "tempo": 120.0
            },
            {
                "pitch": 41,
                "velocity": 15,
                "duration": 0.1182,
                "tempo": 120.0
            },
            {
                "pitch": 41,
                "velocity": 15,
                "duration": 0.1364,
                "tempo": 120.0
            },
            {
                "pitch": 41,
                "velocity": 15,
                "duration": 0.1159,
                "tempo": 120.0
            },
            {
                "pitch": 41,
                "velocity": 15,
                "duration": 0.1159,
                "tempo": 120.0
            },
            {
                "pitch": 41,
                "velocity": 15,
                "duration": 0.1136,
                "tempo": 120.0
            },
            {
                "pitch": 41,
                "velocity": 15,
                "duration": 0.1159,
                "tempo": 120.0
            },
            {
                "pitch": 41,
                "velocity": 15,
                "duration": 0.1295,
                "tempo": 120.0
            },
            {
                "pitch": 41,
                "velocity": 15,
                "duration": 0.1159,
                "tempo": 120.0
            },
            {
                "pitch": 41,
                "velocity": 15,
                "duration": 0.1136,
                "tempo": 120.0
            },
            {
                "pitch": 41,
                "velocity": 15,
                "duration": 0.1159,
                "tempo": 120.0
            },
            {
                "pitch": 41,
                "velocity": 15,
                "duration": 0.1364,
                "tempo": 120.0
            },
            {
                "pitch": 41,
                "velocity": 15,
                "duration": 0.1182,
                "tempo": 120.0
            },
            {
                "pitch": 41,
                "velocity": 15,
                "duration": 0.1205,
                "tempo": 120.0
            },
            {
                "pitch": 41,
                "velocity": 15,
                "duration": 0.1205,
                "tempo": 120.0
            },
            {
                "pitch": 43,
                "velocity": 15,
                "duration": 0.1159,
                "tempo": 120.0
            },
            {
                "pitch": 43,
                "velocity": 15,
                "duration": 0.1341,
                "tempo": 120.0
            },
            {
                "pitch": 43,
                "velocity": 15,
                "duration": 0.1159,
                "tempo": 120.0
            },
            {
                "pitch": 43,
                "velocity": 15,
                "duration": 0.1159,
                "tempo": 120.0
            },
            {
                "pitch": 43,
                "velocity": 15,
                "duration": 0.1182,
                "tempo": 120.0
            },
            {
                "pitch": 43,
                "velocity": 15,
                "duration": 0.1182,
                "tempo": 120.0
            },
            {
                "pitch": 43,
                "velocity": 15,
                "duration": 0.1341,
                "tempo": 120.0
            },
            {
                "pitch": 43,
                "velocity": 15,
                "duration": 0.1182,
                "tempo": 120.0
            },
            {
                "pitch": 43,
                "velocity": 15,
                "duration": 0.1159,
                "tempo": 120.0
            },
            {
                "pitch": 43,
                "velocity": 15,
                "duration": 0.1182,
                "tempo": 120.0
            },
            {
                "pitch": 43,
                "velocity": 15,
                "duration": 0.1341,
                "tempo": 120.0
            },
            {
                "pitch": 43,
                "velocity": 15,
                "duration": 0.1182,
                "tempo": 120.0
            },
            {
                "pitch": 43,
                "velocity": 15,
                "duration": 0.1182,
                "tempo": 120.0
            },
            {
                "pitch": 43,
                "velocity": 15,
                "duration": 0.1159,
                "tempo": 120.0
            },
            {
                "pitch": 43,
                "velocity": 15,
                "duration": 0.1182,
                "tempo": 120.0
            },
            {
                "pitch": 43,
                "velocity": 15,
                "duration": 0.1341,
                "tempo": 120.0
            },
            {
                "pitch": 46,
                "velocity": 15,
                "duration": 0.1205,
                "tempo": 120.0
            },
            {
                "pitch": 46,
                "velocity": 15,
                "duration": 0.1205,
                "tempo": 120.0
            },
            {
                "pitch": 46,
                "velocity": 15,
                "duration": 0.1182,
                "tempo": 120.0
            },
            {
                "pitch": 46,
                "velocity": 15,
                "duration": 0.1205,
                "tempo": 120.0
            },
            {
                "pitch": 46,
                "velocity": 15,
                "duration": 0.1273,
                "tempo": 120.0
            },
            {
                "pitch": 46,
                "velocity": 15,
                "duration": 0.1114,
                "tempo": 120.0
            },
            {
                "pitch": 46,
                "velocity": 15,
                "duration": 0.1136,
                "tempo": 120.0
            },
            {
                "pitch": 46,
                "velocity": 15,
                "duration": 0.1114,
                "tempo": 120.0
            },
            {
                "pitch": 46,
                "velocity": 15,
                "duration": 0.1205,
                "tempo": 120.0
            },
            {
                "pitch": 46,
                "velocity": 15,
                "duration": 0.1364,
                "tempo": 120.0
            },
            {
                "pitch": 46,
                "velocity": 15,
                "duration": 0.1182,
                "tempo": 120.0
            },
            {
                "pitch": 46,
                "velocity": 15,
                "duration": 0.1205,
                "tempo": 120.0
            },
            {
                "pitch": 46,
                "velocity": 15,
                "duration": 0.1182,
                "tempo": 120.0
            },
            {
                "pitch": 46,
                "velocity": 15,
                "duration": 0.1386,
                "tempo": 120.0
            },
            {
                "pitch": 46,
                "velocity": 15,
                "duration": 0.1182,
                "tempo": 120.0
            },
            {
                "pitch": 46,
                "velocity": 15,
                "duration": 0.1205,
                "tempo": 120.0
            },
            {
                "pitch": 46,
                "velocity": 15,
                "duration": 0.1182,
                "tempo": 120.0
            },
            {
                "pitch": 46,
                "velocity": 15,
                "duration": 0.1159,
                "tempo": 120.0
            },
            {
                "pitch": 46,
                "velocity": 15,
                "duration": 0.1341,
                "tempo": 120.0
            },
            {
                "pitch": 46,
                "velocity": 15,
                "duration": 0.1182,
                "tempo": 120.0
            },
            {
                "pitch": 46,
                "velocity": 15,
                "duration": 0.1159,
                "tempo": 120.0
            },
            {
                "pitch": 46,
                "velocity": 15,
                "duration": 0.1182,
                "tempo": 120.0
            },
            {
                "pitch": 46,
                "velocity": 15,
                "duration": 0.1159,
                "tempo": 120.0
            },
            {
                "pitch": 46,
                "velocity": 15,
                "duration": 0.1341,
                "tempo": 120.0
            },
            {
                "pitch": 46,
                "velocity": 15,
                "duration": 0.1182,
                "tempo": 120.0
            },
            {
                "pitch": 46,
                "velocity": 15,
                "duration": 0.1159,
                "tempo": 120.0
            },
            {
                "pitch": 46,
                "velocity": 15,
                "duration": 0.1182,
                "tempo": 120.0
            },
            {
                "pitch": 46,
                "velocity": 15,
                "duration": 0.1182,
                "tempo": 120.0
            },
            {
                "pitch": 46,
                "velocity": 15,
                "duration": 0.1318,
                "tempo": 120.0
            },
            {
                "pitch": 46,
                "velocity": 15,
                "duration": 0.1136,
                "tempo": 120.0
            },
            {
                "pitch": 46,
                "velocity": 15,
                "duration": 0.1159,
                "tempo": 120.0
            },
            {
                "pitch": 46,
                "velocity": 15,
                "duration": 0.1136,
                "tempo": 120.0
            },
            {
                "pitch": 46,
                "velocity": 15,
                "duration": 0.1364,
                "tempo": 120.0
            },
            {
                "pitch": 48,
                "velocity": 15,
                "duration": 0.1205,
                "tempo": 120.0
            },
            {
                "pitch": 48,
                "velocity": 15,
                "duration": 0.1182,
                "tempo": 120.0
            },
            {
                "pitch": 48,
                "velocity": 15,
                "duration": 0.1205,
                "tempo": 120.0
            },
            {
                "pitch": 48,
                "velocity": 15,
                "duration": 0.1136,
                "tempo": 120.0
            },
            {
                "pitch": 48,
                "velocity": 15,
                "duration": 0.1318,
                "tempo": 120.0
            },
            {
                "pitch": 48,
                "velocity": 15,
                "duration": 0.1159,
                "tempo": 120.0
            },
            {
                "pitch": 48,
                "velocity": 15,
                "duration": 0.1136,
                "tempo": 120.0
            },
            {
                "pitch": 48,
                "velocity": 15,
                "duration": 0.1205,
                "tempo": 120.0
            },
            {
                "pitch": 48,
                "velocity": 15,
                "duration": 0.1182,
                "tempo": 120.0
            },
            {
                "pitch": 48,
                "velocity": 15,
                "duration": 0.1364,
                "tempo": 120.0
            },
            {
                "pitch": 48,
                "velocity": 15,
                "duration": 0.1205,
                "tempo": 120.0
            },
            {
                "pitch": 48,
                "velocity": 15,
                "duration": 0.1182,
                "tempo": 120.0
            },
            {
                "pitch": 48,
                "velocity": 15,
                "duration": 0.1205,
                "tempo": 120.0
            },
            {
                "pitch": 48,
                "velocity": 15,
                "duration": 0.1205,
                "tempo": 120.0
            },
            {
                "pitch": 48,
                "velocity": 15,
                "duration": 0.1364,
                "tempo": 120.0
            },
            {
                "pitch": 48,
                "velocity": 15,
                "duration": 0.1159,
                "tempo": 120.0
            },
            {
                "pitch": 48,
                "velocity": 15,
                "duration": 0.1159,
                "tempo": 120.0
            },
            {
                "pitch": 48,
                "velocity": 15,
                "duration": 0.1182,
                "tempo": 120.0
            },
            {
                "pitch": 48,
                "velocity": 15,
                "duration": 0.1318,
                "tempo": 120.0
            },
            {
                "pitch": 48,
                "velocity": 15,
                "duration": 0.1182,
                "tempo": 120.0
            },
            {
                "pitch": 48,
                "velocity": 15,
                "duration": 0.1182,
                "tempo": 120.0
            },
            {
                "pitch": 48,
                "velocity": 15,
                "duration": 0.1182,
                "tempo": 120.0
            },
            {
                "pitch": 48,
                "velocity": 15,
                "duration": 0.1159,
                "tempo": 120.0
            },
            {
                "pitch": 48,
                "velocity": 15,
                "duration": 0.1295,
                "tempo": 120.0
            },
            {
                "pitch": 48,
                "velocity": 15,
                "duration": 0.1114,
                "tempo": 120.0
            },
            {
                "pitch": 48,
                "velocity": 15,
                "duration": 0.1114,
                "tempo": 120.0
            },
            {
                "pitch": 48,
                "velocity": 15,
                "duration": 0.1136,
                "tempo": 120.0
            },
            {
                "pitch": 48,
                "velocity": 15,
                "duration": 0.1182,
                "tempo": 120.0
            },
            {
                "pitch": 48,
                "velocity": 15,
                "duration": 0.1364,
                "tempo": 120.0
            },
            {
                "pitch": 48,
                "velocity": 15,
                "duration": 0.1205,
                "tempo": 120.0
            },
            {
                "pitch": 48,
                "velocity": 15,
                "duration": 0.1205,
                "tempo": 120.0
            },
            {
                "pitch": 50,
                "velocity": 15,
                "duration": 0.1182,
                "tempo": 120.0
            },
            {
                "pitch": 50,
                "velocity": 15,
                "duration": 0.1364,
                "tempo": 120.0
            },
            {
                "pitch": 50,
                "velocity": 15,
                "duration": 0.1205,
                "tempo": 120.0
            },
            {
                "pitch": 50,
                "velocity": 15,
                "duration": 0.1182,
                "tempo": 120.0
            },
            {
                "pitch": 50,
                "velocity": 15,
                "duration": 0.1159,
                "tempo": 120.0
            },
            {
                "pitch": 50,
                "velocity": 15,
                "duration": 0.1136,
                "tempo": 120.0
            },
            {
                "pitch": 50,
                "velocity": 15,
                "duration": 0.1318,
                "tempo": 120.0
            },
            {
                "pitch": 50,
                "velocity": 15,
                "duration": 0.1159,
                "tempo": 120.0
            },
            {
                "pitch": 50,
                "velocity": 15,
                "duration": 0.1182,
                "tempo": 120.0
            },
            {
                "pitch": 50,
                "velocity": 15,
                "duration": 0.1205,
                "tempo": 120.0
            },
            {
                "pitch": 50,
                "velocity": 15,
                "duration": 0.1182,
                "tempo": 120.0
            },
            {
                "pitch": 50,
                "velocity": 15,
                "duration": 0.1386,
                "tempo": 120.0
            },
            {
                "pitch": 50,
                "velocity": 15,
                "duration": 0.1159,
                "tempo": 120.0
            },
            {
                "pitch": 50,
                "velocity": 15,
                "duration": 0.1182,
                "tempo": 120.0
            },
            {
                "pitch": 50,
                "velocity": 15,
                "duration": 0.1182,
                "tempo": 120.0
            },
            {
                "pitch": 50,
                "velocity": 15,
                "duration": 0.1159,
                "tempo": 120.0
            },
            {
                "pitch": 50,
                "velocity": 15,
                "duration": 0.1318,
                "tempo": 120.0
            },
            {
                "pitch": 50,
                "velocity": 15,
                "duration": 0.1159,
                "tempo": 120.0
            },
            {
                "pitch": 50,
                "velocity": 15,
                "duration": 0.1136,
                "tempo": 120.0
            },
            {
                "pitch": 50,
                "velocity": 15,
                "duration": 0.1159,
                "tempo": 120.0
            },
            {
                "pitch": 50,
                "velocity": 15,
                "duration": 0.1341,
                "tempo": 120.0
            },
            {
                "pitch": 50,
                "velocity": 15,
                "duration": 0.1182,
                "tempo": 120.0
            },
            {
                "pitch": 50,
                "velocity": 15,
                "duration": 0.1159,
                "tempo": 120.0
            },
            {
                "pitch": 50,
                "velocity": 15,
                "duration": 0.1182,
                "tempo": 120.0
            },
            {
                "pitch": 50,
                "velocity": 15,
                "duration": 0.1182,
                "tempo": 120.0
            },
            {
                "pitch": 50,
                "velocity": 15,
                "duration": 0.1341,
                "tempo": 120.0
            },
            {
                "pitch": 50,
                "velocity": 15,
                "duration": 0.1182,
                "tempo": 120.0
            },
            {
                "pitch": 50,
                "velocity": 15,
                "duration": 0.1182,
                "tempo": 120.0
            },
            {
                "pitch": 50,
                "velocity": 15,
                "duration": 0.1182,
                "tempo": 120.0
            },
            {
                "pitch": 50,
                "velocity": 15,
                "duration": 0.1205,
                "tempo": 120.0
            },
            {
                "pitch": 50,
                "velocity": 15,
                "duration": 0.1364,
                "tempo": 120.0
            },
            {
                "pitch": 50,
                "velocity": 15,
                "duration": 0.1182,
                "tempo": 120.0
            },
            {
                "pitch": 50,
                "velocity": 15,
                "duration": 0.1205,
                "tempo": 120.0
            },
            {
                "pitch": 51,
                "velocity": 15,
                "duration": 0.1205,
                "tempo": 120.0
            },
            {
                "pitch": 51,
                "velocity": 15,
                "duration": 0.1182,
                "tempo": 120.0
            },
            {
                "pitch": 51,
                "velocity": 15,
                "duration": 0.1364,
                "tempo": 120.0
            },
            {
                "pitch": 51,
                "velocity": 15,
                "duration": 0.1159,
                "tempo": 120.0
            },
            {
                "pitch": 51,
                "velocity": 15,
                "duration": 0.1136,
                "tempo": 120.0
            },
            {
                "pitch": 51,
                "velocity": 15,
                "duration": 0.1159,
                "tempo": 120.0
            },
            {
                "pitch": 51,
                "velocity": 15,
                "duration": 0.1295,
                "tempo": 120.0
            },
            {
                "pitch": 51,
                "velocity": 15,
                "duration": 0.1205,
                "tempo": 120.0
            },
            {
                "pitch": 51,
                "velocity": 15,
                "duration": 0.1205,
                "tempo": 120.0
            },
            {
                "pitch": 51,
                "velocity": 15,
                "duration": 0.1182,
                "tempo": 120.0
            },
            {
                "pitch": 51,
                "velocity": 15,
                "duration": 0.1205,
                "tempo": 120.0
            },
            {
                "pitch": 51,
                "velocity": 15,
                "duration": 0.1318,
                "tempo": 120.0
            },
            {
                "pitch": 51,
                "velocity": 15,
                "duration": 0.1136,
                "tempo": 120.0
            },
            {
                "pitch": 51,
                "velocity": 15,
                "duration": 0.1159,
                "tempo": 120.0
            },
            {
                "pitch": 51,
                "velocity": 15,
                "duration": 0.1136,
                "tempo": 120.0
            },
            {
                "pitch": 51,
                "velocity": 15,
                "duration": 0.1182,
                "tempo": 120.0
            },
            {
                "pitch": 51,
                "velocity": 15,
                "duration": 0.1341,
                "tempo": 120.0
            },
            {
                "pitch": 51,
                "velocity": 15,
                "duration": 0.1182,
                "tempo": 120.0
            },
            {
                "pitch": 51,
                "velocity": 15,
                "duration": 0.1182,
                "tempo": 120.0
            },
            {
                "pitch": 51,
                "velocity": 15,
                "duration": 0.1159,
                "tempo": 120.0
            },
            {
                "pitch": 51,
                "velocity": 15,
                "duration": 0.1159,
                "tempo": 120.0
            },
            {
                "pitch": 51,
                "velocity": 15,
                "duration": 0.1341,
                "tempo": 120.0
            },
            {
                "pitch": 51,
                "velocity": 15,
                "duration": 0.1159,
                "tempo": 120.0
            },
            {
                "pitch": 51,
                "velocity": 15,
                "duration": 0.1182,
                "tempo": 120.0
            },
            {
                "pitch": 51,
                "velocity": 15,
                "duration": 0.1182,
                "tempo": 120.0
            },
            {
                "pitch": 51,
                "velocity": 15,
                "duration": 0.1341,
                "tempo": 120.0
            },
            {
                "pitch": 51,
                "velocity": 15,
                "duration": 0.1182,
                "tempo": 120.0
            },
            {
                "pitch": 51,
                "velocity": 15,
                "duration": 0.1182,
                "tempo": 120.0
            },
            {
                "pitch": 51,
                "velocity": 15,
                "duration": 0.1205,
                "tempo": 120.0
            },
            {
                "pitch": 51,
                "velocity": 15,
                "duration": 0.1182,
                "tempo": 120.0
            },
            {
                "pitch": 51,
                "velocity": 15,
                "duration": 0.1364,
                "tempo": 120.0
            },
            {
                "pitch": 44,
                "velocity": 15,
                "duration": 0.1182,
                "tempo": 120.0
            },
            {
                "pitch": 44,
                "velocity": 15,
                "duration": 0.1182,
                "tempo": 120.0
            },
            {
                "pitch": 44,
                "velocity": 15,
                "duration": 0.1182,
                "tempo": 120.0
            },
            {
                "pitch": 44,
                "velocity": 15,
                "duration": 0.1159,
                "tempo": 120.0
            },
            {
                "pitch": 44,
                "velocity": 15,
                "duration": 0.1318,
                "tempo": 120.0
            },
            {
                "pitch": 44,
                "velocity": 15,
                "duration": 0.1159,
                "tempo": 120.0
            },
            {
                "pitch": 44,
                "velocity": 15,
                "duration": 0.1136,
                "tempo": 120.0
            },
            {
                "pitch": 44,
                "velocity": 15,
                "duration": 0.1159,
                "tempo": 120.0
            },
            {
                "pitch": 44,
                "velocity": 15,
                "duration": 0.1341,
                "tempo": 120.0
            },
            {
                "pitch": 44,
                "velocity": 15,
                "duration": 0.1182,
                "tempo": 120.0
            },
            {
                "pitch": 44,
                "velocity": 15,
                "duration": 0.1159,
                "tempo": 120.0
            },
            {
                "pitch": 44,
                "velocity": 15,
                "duration": 0.1182,
                "tempo": 120.0
            },
            {
                "pitch": 44,
                "velocity": 15,
                "duration": 0.1205,
                "tempo": 120.0
            },
            {
                "pitch": 44,
                "velocity": 15,
                "duration": 0.1364,
                "tempo": 120.0
            },
            {
                "pitch": 44,
                "velocity": 15,
                "duration": 0.1182,
                "tempo": 120.0
            },
            {
                "pitch": 44,
                "velocity": 15,
                "duration": 0.1205,
                "tempo": 120.0
            },
            {
                "pitch": 44,
                "velocity": 15,
                "duration": 0.1182,
                "tempo": 120.0
            },
            {
                "pitch": 44,
                "velocity": 15,
                "duration": 0.1159,
                "tempo": 120.0
            },
            {
                "pitch": 44,
                "velocity": 15,
                "duration": 0.1364,
                "tempo": 120.0
            },
            {
                "pitch": 44,
                "velocity": 15,
                "duration": 0.1159,
                "tempo": 120.0
            },
            {
                "pitch": 44,
                "velocity": 15,
                "duration": 0.1182,
                "tempo": 120.0
            },
            {
                "pitch": 44,
                "velocity": 15,
                "duration": 0.1182,
                "tempo": 120.0
            },
            {
                "pitch": 44,
                "velocity": 15,
                "duration": 0.1182,
                "tempo": 120.0
            },
            {
                "pitch": 44,
                "velocity": 15,
                "duration": 0.1341,
                "tempo": 120.0
            },
            {
                "pitch": 44,
                "velocity": 15,
                "duration": 0.1159,
                "tempo": 120.0
            },
            {
                "pitch": 44,
                "velocity": 15,
                "duration": 0.1182,
                "tempo": 120.0
            },
            {
                "pitch": 44,
                "velocity": 15,
                "duration": 0.1182,
                "tempo": 120.0
            },
            {
                "pitch": 44,
                "velocity": 15,
                "duration": 0.1341,
                "tempo": 120.0
            },
            {
                "pitch": 44,
                "velocity": 15,
                "duration": 0.1205,
                "tempo": 120.0
            },
            {
                "pitch": 44,
                "velocity": 15,
                "duration": 0.1182,
                "tempo": 120.0
            },
            {
                "pitch": 44,
                "velocity": 15,
                "duration": 0.1205,
                "tempo": 120.0
            },
            {
                "pitch": 44,
                "velocity": 15,
                "duration": 0.1182,
                "tempo": 120.0
            },
            {
                "pitch": 46,
                "velocity": 15,
                "duration": 0.1318,
                "tempo": 120.0
            },
            {
                "pitch": 46,
                "velocity": 15,
                "duration": 0.1159,
                "tempo": 120.0
            },
            {
                "pitch": 46,
                "velocity": 15,
                "duration": 0.1136,
                "tempo": 120.0
            },
            {
                "pitch": 46,
                "velocity": 15,
                "duration": 0.1159,
                "tempo": 120.0
            },
            {
                "pitch": 46,
                "velocity": 15,
                "duration": 0.1159,
                "tempo": 120.0
            },
            {
                "pitch": 46,
                "velocity": 15,
                "duration": 0.1364,
                "tempo": 120.0
            },
            {
                "pitch": 46,
                "velocity": 15,
                "duration": 0.1159,
                "tempo": 120.0
            },
            {
                "pitch": 46,
                "velocity": 15,
                "duration": 0.1182,
                "tempo": 120.0
            },
            {
                "pitch": 46,
                "velocity": 15,
                "duration": 0.1159,
                "tempo": 120.0
            },
            {
                "pitch": 46,
                "velocity": 15,
                "duration": 0.1182,
                "tempo": 120.0
            },
            {
                "pitch": 46,
                "velocity": 15,
                "duration": 0.1318,
                "tempo": 120.0
            },
            {
                "pitch": 46,
                "velocity": 15,
                "duration": 0.1182,
                "tempo": 120.0
            },
            {
                "pitch": 46,
                "velocity": 15,
                "duration": 0.1159,
                "tempo": 120.0
            },
            {
                "pitch": 46,
                "velocity": 15,
                "duration": 0.1182,
                "tempo": 120.0
            },
            {
                "pitch": 46,
                "velocity": 15,
                "duration": 0.1341,
                "tempo": 120.0
            },
            {
                "pitch": 46,
                "velocity": 15,
                "duration": 0.1182,
                "tempo": 120.0
            },
            {
                "pitch": 46,
                "velocity": 15,
                "duration": 0.1205,
                "tempo": 120.0
            },
            {
                "pitch": 46,
                "velocity": 15,
                "duration": 0.1182,
                "tempo": 120.0
            },
            {
                "pitch": 46,
                "velocity": 15,
                "duration": 0.1205,
                "tempo": 120.0
            },
            {
                "pitch": 46,
                "velocity": 15,
                "duration": 0.1364,
                "tempo": 120.0
            },
            {
                "pitch": 46,
                "velocity": 15,
                "duration": 0.1182,
                "tempo": 120.0
            },
            {
                "pitch": 46,
                "velocity": 15,
                "duration": 0.1159,
                "tempo": 120.0
            },
            {
                "pitch": 46,
                "velocity": 15,
                "duration": 0.1182,
                "tempo": 120.0
            },
            {
                "pitch": 46,
                "velocity": 15,
                "duration": 0.1182,
                "tempo": 120.0
            },
            {
                "pitch": 46,
                "velocity": 15,
                "duration": 0.1318,
                "tempo": 120.0
            },
            {
                "pitch": 46,
                "velocity": 15,
                "duration": 0.1136,
                "tempo": 120.0
            },
            {
                "pitch": 46,
                "velocity": 15,
                "duration": 0.1159,
                "tempo": 120.0
            },
            {
                "pitch": 46,
                "velocity": 15,
                "duration": 0.1136,
                "tempo": 120.0
            },
            {
                "pitch": 46,
                "velocity": 15,
                "duration": 0.1182,
                "tempo": 120.0
            },
            {
                "pitch": 46,
                "velocity": 15,
                "duration": 0.1318,
                "tempo": 120.0
            },
            {
                "pitch": 46,
                "velocity": 15,
                "duration": 0.1182,
                "tempo": 120.0
            },
            {
                "pitch": 46,
                "velocity": 15,
                "duration": 0.1318,
                "tempo": 120.0
            },
            {
                "pitch": 43,
                "velocity": 15,
                "duration": 0.0182,
                "tempo": 120.0
            }
        ],
        "Acoustic Grand Piano": [
            {
                "pitch": 0,
                "velocity": 0,
                "duration": 36.7773,
                "tempo": 0
            },
            {
                "pitch": 108,
                "velocity": 15,
                "duration": 0.1,
                "tempo": 120.0
            }
        ]
    }
}