{
    "track_id": "03 Sample 3_5",
    "mood": "angry",
    "instruments": {
        "Lead 1 (square)": [
            {
                "pitch": 0,
                "velocity": 0,
                "duration": 0.4727,
                "tempo": 0
            },
            {
                "pitch": 52,
                "velocity": 8,
                "duration": 3.2523,
                "tempo": 120.0
            },
            {
                "pitch": 0,
                "velocity": 0,
                "duration": 0.4614,
                "tempo": 0
            },
            {
                "pitch": 52,
                "velocity": 8,
                "duration": 3.2636,
                "tempo": 120.0
            },
            {
                "pitch": 0,
                "velocity": 0,
                "duration": 0.4636,
                "tempo": 0
            },
            {
                "pitch": 53,
                "velocity": 8,
                "duration": 3.2614,
                "tempo": 120.0
            },
            {
                "pitch": 0,
                "velocity": 0,
                "duration": 0.4614,
                "tempo": 0
            },
            {
                "pitch": 53,
                "velocity": 8,
                "duration": 3.2614,
                "tempo": 120.0
            },
            {
                "pitch": 0,
                "velocity": 0,
                "duration": 0.45,
                "tempo": 0
            },
            {
                "pitch": 52,
                "velocity": 8,
                "duration": 3.2659,
                "tempo": 120.0
            },
            {
                "pitch": 0,
                "velocity": 0,
                "duration": 0.4614,
                "tempo": 0
            },
            {
                "pitch": 52,
                "velocity": 8,
                "duration": 3.2545,
                "tempo": 120.0
            },
            {
                "pitch": 0,
                "velocity": 0,
                "duration": 0.4727,
                "tempo": 0
            },
            {
                "pitch": 52,
                "velocity": 8,
                "duration": 3.2545,
                "tempo": 120.0
            },
            {
                "pitch": 0,
                "velocity": 0,
                "duration": 0.4614,
                "tempo": 0
            },
            {
                "pitch": 52,
                "velocity": 8,
                "duration": 3.2636,
                "tempo": 120.0
            },
            {
                "pitch": 0,
                "velocity": 0,
                "duration": 0.4636,
                "tempo": 0
            },
            {
                "pitch": 52,
                "velocity": 8,
                "duration": 3.2545,
                "tempo": 120.0
            },
            {
                "pitch": 0,
                "velocity": 0,
                "duration": 0.4705,
                "tempo": 0
            },
            {
                "pitch": 52,
                "velocity": 8,
                "duration": 3.2545,
                "tempo": 120.0
            },
            {
                "pitch": 0,
                "velocity": 0,
                "duration": 0.4636,
                "tempo": 0
            },
            {
                "pitch": 53,
                "velocity": 8,
                "duration": 3.2614,
                "tempo": 120.0
            },
            {
                "pitch": 0,
                "velocity": 0,
                "duration": 0.4614,
                "tempo": 0
            },
            {
                "pitch": 53,
                "velocity": 8,
                "duration": 3.2659,
                "tempo": 120.0
            }
        ],
        "Lead 2 (sawtooth)": [
            {
                "pitch": 0,
                "velocity": 0,
                "duration": 0.9409,
                "tempo": 0
            },
            {
                "pitch": 57,
                "velocity": 8,
                "duration": 2.7841,
                "tempo": 120.0
            },
            {
                "pitch": 0,
                "velocity": 0,
                "duration": 0.9318,
                "tempo": 0
            },
            {
                "pitch": 57,
                "velocity": 8,
                "duration": 2.7932,
                "tempo": 120.0
            },
            {
                "pitch": 0,
                "velocity": 0,
                "duration": 0.925,
                "tempo": 0
            },
            {
                "pitch": 57,
                "velocity": 8,
                "duration": 2.8,
                "tempo": 120.0
            },
            {
                "pitch": 0,
                "velocity": 0,
                "duration": 0.9295,
                "tempo": 0
            },
            {
                "pitch": 57,
                "velocity": 8,
                "duration": 2.7932,
                "tempo": 120.0
            },
            {
                "pitch": 0,
                "velocity": 0,
                "duration": 0.9227,
                "tempo": 0
            },
            {
                "pitch": 57,
                "velocity": 8,
                "duration": 2.7932,
                "tempo": 120.0
            },
            {
                "pitch": 0,
                "velocity": 0,
                "duration": 0.9227,
                "tempo": 0
            },
            {
                "pitch": 57,
                "velocity": 8,
                "duration": 2.7932,
                "tempo": 120.0
            },
            {
                "pitch": 0,
                "velocity": 0,
                "duration": 0.9341,
                "tempo": 0
            },
            {
                "pitch": 57,
                "velocity": 8,
                "duration": 2.7932,
                "tempo": 120.0
            },
            {
                "pitch": 0,
                "velocity": 0,
                "duration": 0.9341,
                "tempo": 0
            },
            {
                "pitch": 57,
                "velocity": 8,
                "duration": 2.7909,
                "tempo": 120.0
            },
            {
                "pitch": 0,
                "velocity": 0,
                "duration": 0.9364,
                "tempo": 0
            },
            {
                "pitch": 57,
                "velocity": 8,
                "duration": 2.7818,
                "tempo": 120.0
            },
            {
                "pitch": 0,
                "velocity": 0,
                "duration": 0.9341,
                "tempo": 0
            },
            {
                "pitch": 57,
                "velocity": 8,
                "duration": 2.7909,
                "tempo": 120.0
            },
            {
                "pitch": 0,
                "velocity": 0,
                "duration": 0.9409,
                "tempo": 0
            },
            {
                "pitch": 57,
                "velocity": 8,
                "duration": 2.7841,
                "tempo": 120.0
            },
            {
                "pitch": 0,
                "velocity": 0,
                "duration": 0.9341,
                "tempo": 0
            },
            {
                "pitch": 57,
                "velocity": 8,
                "duration": 2.7932,
                "tempo": 120.0
            }
        ],
        "Synth Bass 1": [
            {
                "pitch": 28,
                "velocity": 1,
                "duration": 3.725,
                "tempo": 120.0
            },
            {
                "pitch": 28,
                "velocity": 1,
                "duration": 3.725,
                "tempo": 120.0
            },
            {
                "pitch": 29,
                "velocity": 1,
                "duration": 3.725,
                "tempo": 120.0
            },
            {
                "pitch": 29,
                "velocity": 1,
                "duration": 3.7114,
                "tempo": 120.0
            },
            {
                "pitch": 28,
                "velocity": 1,
                "duration": 3.7273,
                "tempo": 120.0
            },
            {
                "pitch": 28,
                "velocity": 1,
                "duration": 3.7159,
                "tempo": 120.0
            },
            {
                "pitch": 28,
                "velocity": 1,
                "duration": 3.7273,
                "tempo": 120.0
            },
            {
                "pitch": 28,
                "velocity": 1,
                "duration": 3.725,
                "tempo": 120.0
            },
            {
                "pitch": 28,
                "velocity": 1,
                "duration": 3.7182,
                "tempo": 120.0
            },
            {
                "pitch": 28,
                "velocity": 1,
                "duration": 3.725,
                "tempo": 120.0
            },
            {
                "pitch": 29,
                "velocity": 1,
                "duration": 3.725,
                "tempo": 120.0
            },
            {
                "pitch": 29,
                "velocity": 1,
                "duration": 3.7273,
                "tempo": 120.0
            }
        ],
        "Acoustic Grand Piano": [
            {
                "pitch": 0,
                "velocity": 0,
                "duration": 44.6773,
                "tempo": 0
            },
            {
                "pitch": 108,
                "velocity": 15,
                "duration": 0.1,
                "tempo": 120.0
            }
        ]
    }
}