{
    "track_id": "Thunder Blade (FM) - 03 - Thunder Blade_13",
    "mood": "sad",
    "instruments": {
        "Lead 1 (square)": [
            {
                "pitch": 0,
                "velocity": 0,
                "duration": 0.8568,
                "tempo": 0
            },
            {
                "pitch": 71,
                "velocity": 8,
                "duration": 1.8227,
                "tempo": 120.0
            },
            {
                "pitch": 0,
                "velocity": 0,
                "duration": 0.0159,
                "tempo": 0
            },
            {
                "pitch": 69,
                "velocity": 8,
                "duration": 1.3364,
                "tempo": 120.0
            },
            {
                "pitch": 0,
                "velocity": 0,
                "duration": 0.0159,
                "tempo": 0
            },
            {
                "pitch": 68,
                "velocity": 8,
                "duration": 1.8227,
                "tempo": 120.0
            },
            {
                "pitch": 0,
                "velocity": 0,
                "duration": 0.0182,
                "tempo": 0
            },
            {
                "pitch": 66,
                "velocity": 8,
                "duration": 1.3341,
                "tempo": 120.0
            },
            {
                "pitch": 0,
                "velocity": 0,
                "duration": 0.0182,
                "tempo": 0
            },
            {
                "pitch": 65,
                "velocity": 8,
                "duration": 1.8227,
                "tempo": 120.0
            },
            {
                "pitch": 0,
                "velocity": 0,
                "duration": 0.0159,
                "tempo": 0
            },
            {
                "pitch": 64,
                "velocity": 8,
                "duration": 1.3341,
                "tempo": 120.0
            },
            {
                "pitch": 0,
                "velocity": 0,
                "duration": 0.0182,
                "tempo": 0
            },
            {
                "pitch": 63,
                "velocity": 8,
                "duration": 1.8227,
                "tempo": 120.0
            },
            {
                "pitch": 0,
                "velocity": 0,
                "duration": 0.0159,
                "tempo": 0
            },
            {
                "pitch": 63,
                "velocity": 8,
                "duration": 1.3364,
                "tempo": 120.0
            },
            {
                "pitch": 0,
                "velocity": 0,
                "duration": 0.0159,
                "tempo": 0
            },
            {
                "pitch": 71,
                "velocity": 8,
                "duration": 1.8136,
                "tempo": 120.0
            },
            {
                "pitch": 0,
                "velocity": 0,
                "duration": 0.0159,
                "tempo": 0
            },
            {
                "pitch": 69,
                "velocity": 8,
                "duration": 1.3455,
                "tempo": 120.0
            },
            {
                "pitch": 0,
                "velocity": 0,
                "duration": 0.0159,
                "tempo": 0
            },
            {
                "pitch": 68,
                "velocity": 8,
                "duration": 1.8136,
                "tempo": 120.0
            },
            {
                "pitch": 0,
                "velocity": 0,
                "duration": 0.0159,
                "tempo": 0
            },
            {
                "pitch": 66,
                "velocity": 8,
                "duration": 1.3455,
                "tempo": 120.0
            },
            {
                "pitch": 0,
                "velocity": 0,
                "duration": 0.0159,
                "tempo": 0
            },
            {
                "pitch": 65,
                "velocity": 8,
                "duration": 1.8136,
                "tempo": 120.0
            },
            {
                "pitch": 0,
                "velocity": 0,
                "duration": 0.0159,
                "tempo": 0
            },
            {
                "pitch": 64,
                "velocity": 8,
                "duration": 1.3455,
                "tempo": 120.0
            },
            {
                "pitch": 0,
                "velocity": 0,
                "duration": 0.0182,
                "tempo": 0
            },
            {
                "pitch": 63,
                "velocity": 8,
                "duration": 1.8227,
                "tempo": 120.0
            },
            {
                "pitch": 0,
                "velocity": 0,
                "duration": 0.0159,
                "tempo": 0
            },
            {
                "pitch": 63,
                "velocity": 8,
                "duration": 1.3341,
                "tempo": 120.0
            },
            {
                "pitch": 0,
                "velocity": 0,
                "duration": 7.3091,
                "tempo": 0
            },
            {
                "pitch": 57,
                "velocity": 8,
                "duration": 1.7932,
                "tempo": 120.0
            },
            {
                "pitch": 0,
                "velocity": 0,
                "duration": 1.3977,
                "tempo": 0
            },
            {
                "pitch": 59,
                "velocity": 8,
                "duration": 1.7909,
                "tempo": 120.0
            },
            {
                "pitch": 0,
                "velocity": 0,
                "duration": 1.3977,
                "tempo": 0
            },
            {
                "pitch": 60,
                "velocity": 8,
                "duration": 1.7932,
                "tempo": 120.0
            },
            {
                "pitch": 0,
                "velocity": 0,
                "duration": 1.3977,
                "tempo": 0
            },
            {
                "pitch": 59,
                "velocity": 8,
                "duration": 1.7932,
                "tempo": 120.0
            },
            {
                "pitch": 0,
                "velocity": 0,
                "duration": 1.3977,
                "tempo": 0
            },
            {
                "pitch": 57,
                "velocity": 8,
                "duration": 1.7909,
                "tempo": 120.0
            },
            {
                "pitch": 0,
                "velocity": 0,
                "duration": 1.3977,
                "tempo": 0
            },
            {
                "pitch": 59,
                "velocity": 8,
                "duration": 1.7932,
                "tempo": 120.0
            },
            {
                "pitch": 0,
                "velocity": 0,
                "duration": 1.3977,
                "tempo": 0
            },
            {
                "pitch": 60,
                "velocity": 8,
                "duration": 1.7932,
                "tempo": 120.0
            },
            {
                "pitch": 0,
                "velocity": 0,
                "duration": 1.3977,
                "tempo": 0
            },
            {
                "pitch": 59,
                "velocity": 8,
                "duration": 1.7909,
                "tempo": 120.0
            },
            {
                "pitch": 0,
                "velocity": 0,
                "duration": 1.3977,
                "tempo": 0
            },
            {
                "pitch": 60,
                "velocity": 8,
                "duration": 1.7932,
                "tempo": 120.0
            },
            {
                "pitch": 0,
                "velocity": 0,
                "duration": 0.0159,
                "tempo": 0
            },
            {
                "pitch": 62,
                "velocity": 8,
                "duration": 1.8136,
                "tempo": 120.0
            },
            {
                "pitch": 0,
                "velocity": 0,
                "duration": 0.0159,
                "tempo": 0
            },
            {
                "pitch": 59,
                "velocity": 8,
                "duration": 1.8114,
                "tempo": 120.0
            },
            {
                "pitch": 0,
                "velocity": 0,
                "duration": 0.0182,
                "tempo": 0
            },
            {
                "pitch": 59,
                "velocity": 8,
                "duration": 1.8227,
                "tempo": 120.0
            },
            {
                "pitch": 0,
                "velocity": 0,
                "duration": 0.0182,
                "tempo": 0
            },
            {
                "pitch": 60,
                "velocity": 8,
                "duration": 1.7795,
                "tempo": 120.0
            },
            {
                "pitch": 0,
                "velocity": 0,
                "duration": 0.05,
                "tempo": 0
            },
            {
                "pitch": 62,
                "velocity": 8,
                "duration": 1.7795,
                "tempo": 120.0
            },
            {
                "pitch": 0,
                "velocity": 0,
                "duration": 0.0159,
                "tempo": 0
            },
            {
                "pitch": 59,
                "velocity": 8,
                "duration": 1.8227,
                "tempo": 120.0
            },
            {
                "pitch": 0,
                "velocity": 0,
                "duration": 0.0159,
                "tempo": 0
            },
            {
                "pitch": 59,
                "velocity": 8,
                "duration": 1.7841,
                "tempo": 120.0
            },
            {
                "pitch": 0,
                "velocity": 0,
                "duration": 0.0159,
                "tempo": 0
            },
            {
                "pitch": 60,
                "velocity": 8,
                "duration": 1.8136,
                "tempo": 120.0
            },
            {
                "pitch": 0,
                "velocity": 0,
                "duration": 0.0159,
                "tempo": 0
            },
            {
                "pitch": 62,
                "velocity": 8,
                "duration": 1.8136,
                "tempo": 120.0
            },
            {
                "pitch": 0,
                "velocity": 0,
                "duration": 0.0159,
                "tempo": 0
            },
            {
                "pitch": 59,
                "velocity": 8,
                "duration": 1.8227,
                "tempo": 120.0
            },
            {
                "pitch": 0,
                "velocity": 0,
                "duration": 0.0182,
                "tempo": 0
            },
            {
                "pitch": 59,
                "velocity": 8,
                "duration": 1.7773,
                "tempo": 120.0
            },
            {
                "pitch": 0,
                "velocity": 0,
                "duration": 0.0523,
                "tempo": 0
            },
            {
                "pitch": 60,
                "velocity": 8,
                "duration": 1.7773,
                "tempo": 120.0
            },
            {
                "pitch": 0,
                "velocity": 0,
                "duration": 0.0182,
                "tempo": 0
            },
            {
                "pitch": 62,
                "velocity": 8,
                "duration": 1.8227,
                "tempo": 120.0
            },
            {
                "pitch": 0,
                "velocity": 0,
                "duration": 0.0159,
                "tempo": 0
            },
            {
                "pitch": 59,
                "velocity": 8,
                "duration": 1.7841,
                "tempo": 120.0
            },
            {
                "pitch": 0,
                "velocity": 0,
                "duration": 0.0159,
                "tempo": 0
            },
            {
                "pitch": 59,
                "velocity": 8,
                "duration": 1.8295,
                "tempo": 120.0
            }
        ],
        "Lead 2 (sawtooth)": [
            {
                "pitch": 0,
                "velocity": 0,
                "duration": 0.8568,
                "tempo": 0
            },
            {
                "pitch": 80,
                "velocity": 8,
                "duration": 0.0841,
                "tempo": 120.0
            },
            {
                "pitch": 0,
                "velocity": 0,
                "duration": 0.0182,
                "tempo": 0
            },
            {
                "pitch": 81,
                "velocity": 8,
                "duration": 0.1205,
                "tempo": 120.0
            },
            {
                "pitch": 0,
                "velocity": 0,
                "duration": 0.0159,
                "tempo": 0
            },
            {
                "pitch": 85,
                "velocity": 8,
                "duration": 0.0864,
                "tempo": 120.0
            },
            {
                "pitch": 0,
                "velocity": 0,
                "duration": 0.0159,
                "tempo": 0
            },
            {
                "pitch": 87,
                "velocity": 8,
                "duration": 0.0864,
                "tempo": 120.0
            },
            {
                "pitch": 0,
                "velocity": 0,
                "duration": 0.0523,
                "tempo": 0
            },
            {
                "pitch": 95,
                "velocity": 8,
                "duration": 0.0818,
                "tempo": 120.0
            },
            {
                "pitch": 0,
                "velocity": 0,
                "duration": 0.0182,
                "tempo": 0
            },
            {
                "pitch": 80,
                "velocity": 8,
                "duration": 0.0841,
                "tempo": 120.0
            },
            {
                "pitch": 0,
                "velocity": 0,
                "duration": 0.0159,
                "tempo": 0
            },
            {
                "pitch": 81,
                "velocity": 8,
                "duration": 0.1159,
                "tempo": 120.0
            },
            {
                "pitch": 0,
                "velocity": 0,
                "duration": 0.0182,
                "tempo": 0
            },
            {
                "pitch": 85,
                "velocity": 8,
                "duration": 0.0841,
                "tempo": 120.0
            },
            {
                "pitch": 0,
                "velocity": 0,
                "duration": 0.0159,
                "tempo": 0
            },
            {
                "pitch": 87,
                "velocity": 8,
                "duration": 0.1114,
                "tempo": 120.0
            },
            {
                "pitch": 0,
                "velocity": 0,
                "duration": 0.0159,
                "tempo": 0
            },
            {
                "pitch": 95,
                "velocity": 8,
                "duration": 0.0795,
                "tempo": 120.0
            },
            {
                "pitch": 0,
                "velocity": 0,
                "duration": 0.0159,
                "tempo": 0
            },
            {
                "pitch": 81,
                "velocity": 8,
                "duration": 0.0795,
                "tempo": 120.0
            },
            {
                "pitch": 0,
                "velocity": 0,
                "duration": 0.05,
                "tempo": 0
            },
            {
                "pitch": 95,
                "velocity": 8,
                "duration": 0.0795,
                "tempo": 120.0
            },
            {
                "pitch": 0,
                "velocity": 0,
                "duration": 0.0159,
                "tempo": 0
            },
            {
                "pitch": 85,
                "velocity": 8,
                "duration": 0.0841,
                "tempo": 120.0
            },
            {
                "pitch": 0,
                "velocity": 0,
                "duration": 0.0182,
                "tempo": 0
            },
            {
                "pitch": 87,
                "velocity": 8,
                "duration": 0.1205,
                "tempo": 120.0
            },
            {
                "pitch": 0,
                "velocity": 0,
                "duration": 0.0159,
                "tempo": 0
            },
            {
                "pitch": 80,
                "velocity": 8,
                "duration": 0.0864,
                "tempo": 120.0
            },
            {
                "pitch": 0,
                "velocity": 0,
                "duration": 0.0159,
                "tempo": 0
            },
            {
                "pitch": 87,
                "velocity": 8,
                "duration": 0.1205,
                "tempo": 120.0
            },
            {
                "pitch": 0,
                "velocity": 0,
                "duration": 0.0159,
                "tempo": 0
            },
            {
                "pitch": 81,
                "velocity": 8,
                "duration": 0.0841,
                "tempo": 120.0
            },
            {
                "pitch": 0,
                "velocity": 0,
                "duration": 0.0182,
                "tempo": 0
            },
            {
                "pitch": 79,
                "velocity": 8,
                "duration": 0.0818,
                "tempo": 120.0
            },
            {
                "pitch": 0,
                "velocity": 0,
                "duration": 0.05,
                "tempo": 0
            },
            {
                "pitch": 84,
                "velocity": 8,
                "duration": 0.0841,
                "tempo": 120.0
            },
            {
                "pitch": 0,
                "velocity": 0,
                "duration": 0.0182,
                "tempo": 0
            },
            {
                "pitch": 86,
                "velocity": 8,
                "duration": 0.0818,
                "tempo": 120.0
            },
            {
                "pitch": 0,
                "velocity": 0,
                "duration": 0.0182,
                "tempo": 0
            },
            {
                "pitch": 93,
                "velocity": 8,
                "duration": 0.1091,
                "tempo": 120.0
            },
            {
                "pitch": 0,
                "velocity": 0,
                "duration": 0.0159,
                "tempo": 0
            },
            {
                "pitch": 81,
                "velocity": 8,
                "duration": 0.0773,
                "tempo": 120.0
            },
            {
                "pitch": 0,
                "velocity": 0,
                "duration": 0.0159,
                "tempo": 0
            },
            {
                "pitch": 79,
                "velocity": 8,
                "duration": 0.1091,
                "tempo": 120.0
            },
            {
                "pitch": 0,
                "velocity": 0,
                "duration": 0.0159,
                "tempo": 0
            },
            {
                "pitch": 84,
                "velocity": 8,
                "duration": 0.0773,
                "tempo": 120.0
            },
            {
                "pitch": 0,
                "velocity": 0,
                "duration": 0.0159,
                "tempo": 0
            },
            {
                "pitch": 86,
                "velocity": 8,
                "duration": 0.0864,
                "tempo": 120.0
            },
            {
                "pitch": 0,
                "velocity": 0,
                "duration": 0.0523,
                "tempo": 0
            },
            {
                "pitch": 93,
                "velocity": 8,
                "duration": 0.0841,
                "tempo": 120.0
            },
            {
                "pitch": 0,
                "velocity": 0,
                "duration": 0.0182,
                "tempo": 0
            },
            {
                "pitch": 79,
                "velocity": 8,
                "duration": 0.0841,
                "tempo": 120.0
            },
            {
                "pitch": 0,
                "velocity": 0,
                "duration": 0.0182,
                "tempo": 0
            },
            {
                "pitch": 84,
                "velocity": 8,
                "duration": 0.1205,
                "tempo": 120.0
            },
            {
                "pitch": 0,
                "velocity": 0,
                "duration": 0.0159,
                "tempo": 0
            },
            {
                "pitch": 81,
                "velocity": 8,
                "duration": 0.0864,
                "tempo": 120.0
            },
            {
                "pitch": 0,
                "velocity": 0,
                "duration": 0.0159,
                "tempo": 0
            },
            {
                "pitch": 80,
                "velocity": 8,
                "duration": 0.1205,
                "tempo": 120.0
            },
            {
                "pitch": 0,
                "velocity": 0,
                "duration": 0.0182,
                "tempo": 0
            },
            {
                "pitch": 85,
                "velocity": 8,
                "duration": 0.0841,
                "tempo": 120.0
            },
            {
                "pitch": 0,
                "velocity": 0,
                "duration": 0.0182,
                "tempo": 0
            },
            {
                "pitch": 90,
                "velocity": 8,
                "duration": 0.0841,
                "tempo": 120.0
            },
            {
                "pitch": 0,
                "velocity": 0,
                "duration": 0.0523,
                "tempo": 0
            },
            {
                "pitch": 92,
                "velocity": 8,
                "duration": 0.0841,
                "tempo": 120.0
            },
            {
                "pitch": 0,
                "velocity": 0,
                "duration": 0.0159,
                "tempo": 0
            },
            {
                "pitch": 81,
                "velocity": 8,
                "duration": 0.0841,
                "tempo": 120.0
            },
            {
                "pitch": 0,
                "velocity": 0,
                "duration": 0.0159,
                "tempo": 0
            },
            {
                "pitch": 80,
                "velocity": 8,
                "duration": 0.1182,
                "tempo": 120.0
            },
            {
                "pitch": 0,
                "velocity": 0,
                "duration": 0.0159,
                "tempo": 0
            },
            {
                "pitch": 85,
                "velocity": 8,
                "duration": 0.0841,
                "tempo": 120.0
            },
            {
                "pitch": 0,
                "velocity": 0,
                "duration": 0.0159,
                "tempo": 0
            },
            {
                "pitch": 90,
                "velocity": 8,
                "duration": 0.1114,
                "tempo": 120.0
            },
            {
                "pitch": 0,
                "velocity": 0,
                "duration": 0.0159,
                "tempo": 0
            },
            {
                "pitch": 92,
                "velocity": 8,
                "duration": 0.0818,
                "tempo": 120.0
            },
            {
                "pitch": 0,
                "velocity": 0,
                "duration": 0.0159,
                "tempo": 0
            },
            {
                "pitch": 81,
                "velocity": 8,
                "duration": 0.0795,
                "tempo": 120.0
            },
            {
                "pitch": 0,
                "velocity": 0,
                "duration": 0.0477,
                "tempo": 0
            },
            {
                "pitch": 92,
                "velocity": 8,
                "duration": 0.0795,
                "tempo": 120.0
            },
            {
                "pitch": 0,
                "velocity": 0,
                "duration": 0.0159,
                "tempo": 0
            },
            {
                "pitch": 80,
                "velocity": 8,
                "duration": 0.0864,
                "tempo": 120.0
            },
            {
                "pitch": 0,
                "velocity": 0,
                "duration": 0.0159,
                "tempo": 0
            },
            {
                "pitch": 85,
                "velocity": 8,
                "duration": 0.1205,
                "tempo": 120.0
            },
            {
                "pitch": 0,
                "velocity": 0,
                "duration": 0.0159,
                "tempo": 0
            },
            {
                "pitch": 90,
                "velocity": 8,
                "duration": 0.0864,
                "tempo": 120.0
            },
            {
                "pitch": 0,
                "velocity": 0,
                "duration": 0.0182,
                "tempo": 0
            },
            {
                "pitch": 85,
                "velocity": 8,
                "duration": 0.1182,
                "tempo": 120.0
            },
            {
                "pitch": 0,
                "velocity": 0,
                "duration": 0.0182,
                "tempo": 0
            },
            {
                "pitch": 81,
                "velocity": 8,
                "duration": 0.0841,
                "tempo": 120.0
            },
            {
                "pitch": 0,
                "velocity": 0,
                "duration": 0.0159,
                "tempo": 0
            },
            {
                "pitch": 78,
                "velocity": 8,
                "duration": 0.0841,
                "tempo": 120.0
            },
            {
                "pitch": 0,
                "velocity": 0,
                "duration": 0.05,
                "tempo": 0
            },
            {
                "pitch": 83,
                "velocity": 8,
                "duration": 0.0841,
                "tempo": 120.0
            },
            {
                "pitch": 0,
                "velocity": 0,
                "duration": 0.0159,
                "tempo": 0
            },
            {
                "pitch": 88,
                "velocity": 8,
                "duration": 0.0841,
                "tempo": 120.0
            },
            {
                "pitch": 0,
                "velocity": 0,
                "duration": 0.0159,
                "tempo": 0
            },
            {
                "pitch": 90,
                "velocity": 8,
                "duration": 0.1091,
                "tempo": 120.0
            },
            {
                "pitch": 0,
                "velocity": 0,
                "duration": 0.0159,
                "tempo": 0
            },
            {
                "pitch": 81,
                "velocity": 8,
                "duration": 0.0773,
                "tempo": 120.0
            },
            {
                "pitch": 0,
                "velocity": 0,
                "duration": 0.0159,
                "tempo": 0
            },
            {
                "pitch": 78,
                "velocity": 8,
                "duration": 0.1091,
                "tempo": 120.0
            },
            {
                "pitch": 0,
                "velocity": 0,
                "duration": 0.0159,
                "tempo": 0
            },
            {
                "pitch": 83,
                "velocity": 8,
                "duration": 0.0795,
                "tempo": 120.0
            },
            {
                "pitch": 0,
                "velocity": 0,
                "duration": 0.0159,
                "tempo": 0
            },
            {
                "pitch": 88,
                "velocity": 8,
                "duration": 0.0841,
                "tempo": 120.0
            },
            {
                "pitch": 0,
                "velocity": 0,
                "duration": 0.0523,
                "tempo": 0
            },
            {
                "pitch": 90,
                "velocity": 8,
                "duration": 0.0864,
                "tempo": 120.0
            },
            {
                "pitch": 0,
                "velocity": 0,
                "duration": 0.0159,
                "tempo": 0
            },
            {
                "pitch": 78,
                "velocity": 8,
                "duration": 0.0864,
                "tempo": 120.0
            },
            {
                "pitch": 0,
                "velocity": 0,
                "duration": 0.0159,
                "tempo": 0
            },
            {
                "pitch": 83,
                "velocity": 8,
                "duration": 0.1205,
                "tempo": 120.0
            },
            {
                "pitch": 0,
                "velocity": 0,
                "duration": 0.0182,
                "tempo": 0
            },
            {
                "pitch": 81,
                "velocity": 8,
                "duration": 0.0841,
                "tempo": 120.0
            },
            {
                "pitch": 0,
                "velocity": 0,
                "duration": 0.0182,
                "tempo": 0
            },
            {
                "pitch": 79,
                "velocity": 8,
                "duration": 0.1182,
                "tempo": 120.0
            },
            {
                "pitch": 0,
                "velocity": 0,
                "duration": 0.0182,
                "tempo": 0
            },
            {
                "pitch": 84,
                "velocity": 8,
                "duration": 0.0864,
                "tempo": 120.0
            },
            {
                "pitch": 0,
                "velocity": 0,
                "duration": 0.0159,
                "tempo": 0
            },
            {
                "pitch": 89,
                "velocity": 8,
                "duration": 0.0864,
                "tempo": 120.0
            },
            {
                "pitch": 0,
                "velocity": 0,
                "duration": 0.05,
                "tempo": 0
            },
            {
                "pitch": 81,
                "velocity": 8,
                "duration": 0.0841,
                "tempo": 120.0
            },
            {
                "pitch": 0,
                "velocity": 0,
                "duration": 0.0159,
                "tempo": 0
            },
            {
                "pitch": 79,
                "velocity": 8,
                "duration": 0.0841,
                "tempo": 120.0
            },
            {
                "pitch": 0,
                "velocity": 0,
                "duration": 0.0182,
                "tempo": 0
            },
            {
                "pitch": 84,
                "velocity": 8,
                "duration": 0.1159,
                "tempo": 120.0
            },
            {
                "pitch": 0,
                "velocity": 0,
                "duration": 0.0159,
                "tempo": 0
            },
            {
                "pitch": 89,
                "velocity": 8,
                "duration": 0.0841,
                "tempo": 120.0
            },
            {
                "pitch": 0,
                "velocity": 0,
                "duration": 0.0182,
                "tempo": 0
            },
            {
                "pitch": 80,
                "velocity": 8,
                "duration": 0.1114,
                "tempo": 120.0
            },
            {
                "pitch": 0,
                "velocity": 0,
                "duration": 0.0159,
                "tempo": 0
            },
            {
                "pitch": 89,
                "velocity": 8,
                "duration": 0.0795,
                "tempo": 120.0
            },
            {
                "pitch": 0,
                "velocity": 0,
                "duration": 0.0159,
                "tempo": 0
            },
            {
                "pitch": 79,
                "velocity": 8,
                "duration": 0.0795,
                "tempo": 120.0
            },
            {
                "pitch": 0,
                "velocity": 0,
                "duration": 0.0477,
                "tempo": 0
            },
            {
                "pitch": 84,
                "velocity": 8,
                "duration": 0.0795,
                "tempo": 120.0
            },
            {
                "pitch": 0,
                "velocity": 0,
                "duration": 0.0159,
                "tempo": 0
            },
            {
                "pitch": 81,
                "velocity": 8,
                "duration": 0.0864,
                "tempo": 120.0
            },
            {
                "pitch": 0,
                "velocity": 0,
                "duration": 0.0182,
                "tempo": 0
            },
            {
                "pitch": 79,
                "velocity": 8,
                "duration": 0.1182,
                "tempo": 120.0
            },
            {
                "pitch": 0,
                "velocity": 0,
                "duration": 0.0182,
                "tempo": 0
            },
            {
                "pitch": 84,
                "velocity": 8,
                "duration": 0.0841,
                "tempo": 120.0
            },
            {
                "pitch": 0,
                "velocity": 0,
                "duration": 0.0182,
                "tempo": 0
            },
            {
                "pitch": 89,
                "velocity": 8,
                "duration": 0.1205,
                "tempo": 120.0
            },
            {
                "pitch": 0,
                "velocity": 0,
                "duration": 0.0159,
                "tempo": 0
            },
            {
                "pitch": 81,
                "velocity": 8,
                "duration": 0.0841,
                "tempo": 120.0
            },
            {
                "pitch": 0,
                "velocity": 0,
                "duration": 0.0159,
                "tempo": 0
            },
            {
                "pitch": 77,
                "velocity": 8,
                "duration": 0.0841,
                "tempo": 120.0
            },
            {
                "pitch": 0,
                "velocity": 0,
                "duration": 0.05,
                "tempo": 0
            },
            {
                "pitch": 82,
                "velocity": 8,
                "duration": 0.0841,
                "tempo": 120.0
            },
            {
                "pitch": 0,
                "velocity": 0,
                "duration": 0.0159,
                "tempo": 0
            },
            {
                "pitch": 86,
                "velocity": 8,
                "duration": 0.0841,
                "tempo": 120.0
            },
            {
                "pitch": 0,
                "velocity": 0,
                "duration": 0.0159,
                "tempo": 0
            },
            {
                "pitch": 88,
                "velocity": 8,
                "duration": 0.1091,
                "tempo": 120.0
            },
            {
                "pitch": 0,
                "velocity": 0,
                "duration": 0.0159,
                "tempo": 0
            },
            {
                "pitch": 93,
                "velocity": 8,
                "duration": 0.0795,
                "tempo": 120.0
            },
            {
                "pitch": 0,
                "velocity": 0,
                "duration": 0.0159,
                "tempo": 0
            },
            {
                "pitch": 89,
                "velocity": 8,
                "duration": 0.1091,
                "tempo": 120.0
            },
            {
                "pitch": 0,
                "velocity": 0,
                "duration": 0.0159,
                "tempo": 0
            },
            {
                "pitch": 82,
                "velocity": 8,
                "duration": 0.0773,
                "tempo": 120.0
            },
            {
                "pitch": 0,
                "velocity": 0,
                "duration": 0.0159,
                "tempo": 0
            },
            {
                "pitch": 86,
                "velocity": 8,
                "duration": 0.0864,
                "tempo": 120.0
            },
            {
                "pitch": 0,
                "velocity": 0,
                "duration": 0.05,
                "tempo": 0
            },
            {
                "pitch": 88,
                "velocity": 8,
                "duration": 0.0864,
                "tempo": 120.0
            },
            {
                "pitch": 0,
                "velocity": 0,
                "duration": 0.0159,
                "tempo": 0
            },
            {
                "pitch": 77,
                "velocity": 8,
                "duration": 0.0864,
                "tempo": 120.0
            },
            {
                "pitch": 0,
                "velocity": 0,
                "duration": 0.0182,
                "tempo": 0
            },
            {
                "pitch": 82,
                "velocity": 8,
                "duration": 0.1182,
                "tempo": 120.0
            },
            {
                "pitch": 0,
                "velocity": 0,
                "duration": 0.0182,
                "tempo": 0
            },
            {
                "pitch": 81,
                "velocity": 8,
                "duration": 0.0864,
                "tempo": 120.0
            },
            {
                "pitch": 0,
                "velocity": 0,
                "duration": 0.0159,
                "tempo": 0
            },
            {
                "pitch": 80,
                "velocity": 8,
                "duration": 0.1205,
                "tempo": 120.0
            },
            {
                "pitch": 0,
                "velocity": 0,
                "duration": 0.0159,
                "tempo": 0
            },
            {
                "pitch": 85,
                "velocity": 8,
                "duration": 0.0864,
                "tempo": 120.0
            },
            {
                "pitch": 0,
                "velocity": 0,
                "duration": 0.0159,
                "tempo": 0
            },
            {
                "pitch": 87,
                "velocity": 8,
                "duration": 0.0864,
                "tempo": 120.0
            },
            {
                "pitch": 0,
                "velocity": 0,
                "duration": 0.0523,
                "tempo": 0
            },
            {
                "pitch": 81,
                "velocity": 8,
                "duration": 0.0818,
                "tempo": 120.0
            },
            {
                "pitch": 0,
                "velocity": 0,
                "duration": 0.0182,
                "tempo": 0
            },
            {
                "pitch": 80,
                "velocity": 8,
                "duration": 0.0841,
                "tempo": 120.0
            },
            {
                "pitch": 0,
                "velocity": 0,
                "duration": 0.0159,
                "tempo": 0
            },
            {
                "pitch": 85,
                "velocity": 8,
                "duration": 0.1159,
                "tempo": 120.0
            },
            {
                "pitch": 0,
                "velocity": 0,
                "duration": 0.0182,
                "tempo": 0
            },
            {
                "pitch": 87,
                "velocity": 8,
                "duration": 0.0841,
                "tempo": 120.0
            },
            {
                "pitch": 0,
                "velocity": 0,
                "duration": 0.0159,
                "tempo": 0
            },
            {
                "pitch": 81,
                "velocity": 8,
                "duration": 0.1114,
                "tempo": 120.0
            },
            {
                "pitch": 0,
                "velocity": 0,
                "duration": 0.0159,
                "tempo": 0
            },
            {
                "pitch": 87,
                "velocity": 8,
                "duration": 0.0795,
                "tempo": 120.0
            },
            {
                "pitch": 0,
                "velocity": 0,
                "duration": 0.0159,
                "tempo": 0
            },
            {
                "pitch": 80,
                "velocity": 8,
                "duration": 0.0818,
                "tempo": 120.0
            },
            {
                "pitch": 0,
                "velocity": 0,
                "duration": 0.0477,
                "tempo": 0
            },
            {
                "pitch": 85,
                "velocity": 8,
                "duration": 0.0795,
                "tempo": 120.0
            },
            {
                "pitch": 0,
                "velocity": 0,
                "duration": 0.0159,
                "tempo": 0
            },
            {
                "pitch": 81,
                "velocity": 8,
                "duration": 0.0841,
                "tempo": 120.0
            },
            {
                "pitch": 0,
                "velocity": 0,
                "duration": 0.0182,
                "tempo": 0
            },
            {
                "pitch": 80,
                "velocity": 8,
                "duration": 0.1205,
                "tempo": 120.0
            },
            {
                "pitch": 0,
                "velocity": 0,
                "duration": 0.0159,
                "tempo": 0
            },
            {
                "pitch": 85,
                "velocity": 8,
                "duration": 0.0864,
                "tempo": 120.0
            },
            {
                "pitch": 0,
                "velocity": 0,
                "duration": 0.0159,
                "tempo": 0
            },
            {
                "pitch": 87,
                "velocity": 8,
                "duration": 0.1205,
                "tempo": 120.0
            },
            {
                "pitch": 0,
                "velocity": 0,
                "duration": 0.0159,
                "tempo": 0
            },
            {
                "pitch": 80,
                "velocity": 8,
                "duration": 0.0841,
                "tempo": 120.0
            },
            {
                "pitch": 0,
                "velocity": 0,
                "duration": 0.0182,
                "tempo": 0
            },
            {
                "pitch": 78,
                "velocity": 8,
                "duration": 0.0818,
                "tempo": 120.0
            },
            {
                "pitch": 0,
                "velocity": 0,
                "duration": 0.05,
                "tempo": 0
            },
            {
                "pitch": 83,
                "velocity": 8,
                "duration": 0.0841,
                "tempo": 120.0
            },
            {
                "pitch": 0,
                "velocity": 0,
                "duration": 0.0182,
                "tempo": 0
            },
            {
                "pitch": 85,
                "velocity": 8,
                "duration": 0.0818,
                "tempo": 120.0
            },
            {
                "pitch": 0,
                "velocity": 0,
                "duration": 0.0182,
                "tempo": 0
            },
            {
                "pitch": 87,
                "velocity": 8,
                "duration": 0.1091,
                "tempo": 120.0
            },
            {
                "pitch": 0,
                "velocity": 0,
                "duration": 0.0159,
                "tempo": 0
            },
            {
                "pitch": 80,
                "velocity": 8,
                "duration": 0.0773,
                "tempo": 120.0
            },
            {
                "pitch": 0,
                "velocity": 0,
                "duration": 0.0159,
                "tempo": 0
            },
            {
                "pitch": 78,
                "velocity": 8,
                "duration": 0.1091,
                "tempo": 120.0
            },
            {
                "pitch": 0,
                "velocity": 0,
                "duration": 0.0159,
                "tempo": 0
            },
            {
                "pitch": 83,
                "velocity": 8,
                "duration": 0.0773,
                "tempo": 120.0
            },
            {
                "pitch": 0,
                "velocity": 0,
                "duration": 0.0159,
                "tempo": 0
            },
            {
                "pitch": 73,
                "velocity": 8,
                "duration": 0.0864,
                "tempo": 120.0
            },
            {
                "pitch": 0,
                "velocity": 0,
                "duration": 0.0523,
                "tempo": 0
            },
            {
                "pitch": 87,
                "velocity": 8,
                "duration": 0.0841,
                "tempo": 120.0
            },
            {
                "pitch": 0,
                "velocity": 0,
                "duration": 0.0182,
                "tempo": 0
            },
            {
                "pitch": 78,
                "velocity": 8,
                "duration": 0.0841,
                "tempo": 120.0
            },
            {
                "pitch": 0,
                "velocity": 0,
                "duration": 0.0182,
                "tempo": 0
            },
            {
                "pitch": 83,
                "velocity": 8,
                "duration": 0.1205,
                "tempo": 120.0
            },
            {
                "pitch": 0,
                "velocity": 0,
                "duration": 0.0159,
                "tempo": 0
            },
            {
                "pitch": 80,
                "velocity": 8,
                "duration": 0.0864,
                "tempo": 120.0
            },
            {
                "pitch": 0,
                "velocity": 0,
                "duration": 0.0159,
                "tempo": 0
            },
            {
                "pitch": 81,
                "velocity": 8,
                "duration": 0.1205,
                "tempo": 120.0
            },
            {
                "pitch": 0,
                "velocity": 0,
                "duration": 0.0182,
                "tempo": 0
            },
            {
                "pitch": 85,
                "velocity": 8,
                "duration": 0.0841,
                "tempo": 120.0
            },
            {
                "pitch": 0,
                "velocity": 0,
                "duration": 0.0182,
                "tempo": 0
            },
            {
                "pitch": 87,
                "velocity": 8,
                "duration": 0.0841,
                "tempo": 120.0
            },
            {
                "pitch": 0,
                "velocity": 0,
                "duration": 0.0523,
                "tempo": 0
            },
            {
                "pitch": 95,
                "velocity": 8,
                "duration": 0.0841,
                "tempo": 120.0
            },
            {
                "pitch": 0,
                "velocity": 0,
                "duration": 0.0159,
                "tempo": 0
            },
            {
                "pitch": 80,
                "velocity": 8,
                "duration": 0.0841,
                "tempo": 120.0
            },
            {
                "pitch": 0,
                "velocity": 0,
                "duration": 0.0159,
                "tempo": 0
            },
            {
                "pitch": 81,
                "velocity": 8,
                "duration": 0.1182,
                "tempo": 120.0
            },
            {
                "pitch": 0,
                "velocity": 0,
                "duration": 0.0159,
                "tempo": 0
            },
            {
                "pitch": 85,
                "velocity": 8,
                "duration": 0.0841,
                "tempo": 120.0
            },
            {
                "pitch": 0,
                "velocity": 0,
                "duration": 0.0159,
                "tempo": 0
            },
            {
                "pitch": 87,
                "velocity": 8,
                "duration": 0.1114,
                "tempo": 120.0
            },
            {
                "pitch": 0,
                "velocity": 0,
                "duration": 0.0159,
                "tempo": 0
            },
            {
                "pitch": 95,
                "velocity": 8,
                "duration": 0.0818,
                "tempo": 120.0
            },
            {
                "pitch": 0,
                "velocity": 0,
                "duration": 0.0159,
                "tempo": 0
            },
            {
                "pitch": 81,
                "velocity": 8,
                "duration": 0.0795,
                "tempo": 120.0
            },
            {
                "pitch": 0,
                "velocity": 0,
                "duration": 0.0477,
                "tempo": 0
            },
            {
                "pitch": 95,
                "velocity": 8,
                "duration": 0.0795,
                "tempo": 120.0
            },
            {
                "pitch": 0,
                "velocity": 0,
                "duration": 0.0159,
                "tempo": 0
            },
            {
                "pitch": 85,
                "velocity": 8,
                "duration": 0.0841,
                "tempo": 120.0
            },
            {
                "pitch": 0,
                "velocity": 0,
                "duration": 0.0159,
                "tempo": 0
            },
            {
                "pitch": 87,
                "velocity": 8,
                "duration": 0.1182,
                "tempo": 120.0
            },
            {
                "pitch": 0,
                "velocity": 0,
                "duration": 0.0159,
                "tempo": 0
            },
            {
                "pitch": 80,
                "velocity": 8,
                "duration": 0.0841,
                "tempo": 120.0
            },
            {
                "pitch": 0,
                "velocity": 0,
                "duration": 0.0159,
                "tempo": 0
            },
            {
                "pitch": 87,
                "velocity": 8,
                "duration": 0.1182,
                "tempo": 120.0
            },
            {
                "pitch": 0,
                "velocity": 0,
                "duration": 0.0159,
                "tempo": 0
            },
            {
                "pitch": 81,
                "velocity": 8,
                "duration": 0.0864,
                "tempo": 120.0
            },
            {
                "pitch": 0,
                "velocity": 0,
                "duration": 0.0159,
                "tempo": 0
            },
            {
                "pitch": 79,
                "velocity": 8,
                "duration": 0.0864,
                "tempo": 120.0
            },
            {
                "pitch": 0,
                "velocity": 0,
                "duration": 0.0523,
                "tempo": 0
            },
            {
                "pitch": 84,
                "velocity": 8,
                "duration": 0.0841,
                "tempo": 120.0
            },
            {
                "pitch": 0,
                "velocity": 0,
                "duration": 0.0182,
                "tempo": 0
            },
            {
                "pitch": 86,
                "velocity": 8,
                "duration": 0.0864,
                "tempo": 120.0
            },
            {
                "pitch": 0,
                "velocity": 0,
                "duration": 0.0159,
                "tempo": 0
            },
            {
                "pitch": 93,
                "velocity": 8,
                "duration": 0.1114,
                "tempo": 120.0
            },
            {
                "pitch": 0,
                "velocity": 0,
                "duration": 0.0159,
                "tempo": 0
            },
            {
                "pitch": 81,
                "velocity": 8,
                "duration": 0.0818,
                "tempo": 120.0
            },
            {
                "pitch": 0,
                "velocity": 0,
                "duration": 0.0159,
                "tempo": 0
            },
            {
                "pitch": 79,
                "velocity": 8,
                "duration": 0.1114,
                "tempo": 120.0
            },
            {
                "pitch": 0,
                "velocity": 0,
                "duration": 0.0159,
                "tempo": 0
            },
            {
                "pitch": 84,
                "velocity": 8,
                "duration": 0.0795,
                "tempo": 120.0
            },
            {
                "pitch": 0,
                "velocity": 0,
                "duration": 0.0159,
                "tempo": 0
            },
            {
                "pitch": 86,
                "velocity": 8,
                "duration": 0.0841,
                "tempo": 120.0
            },
            {
                "pitch": 0,
                "velocity": 0,
                "duration": 0.05,
                "tempo": 0
            },
            {
                "pitch": 93,
                "velocity": 8,
                "duration": 0.0841,
                "tempo": 120.0
            },
            {
                "pitch": 0,
                "velocity": 0,
                "duration": 0.0159,
                "tempo": 0
            },
            {
                "pitch": 79,
                "velocity": 8,
                "duration": 0.0841,
                "tempo": 120.0
            },
            {
                "pitch": 0,
                "velocity": 0,
                "duration": 0.0159,
                "tempo": 0
            },
            {
                "pitch": 84,
                "velocity": 8,
                "duration": 0.1182,
                "tempo": 120.0
            },
            {
                "pitch": 0,
                "velocity": 0,
                "duration": 0.0159,
                "tempo": 0
            },
            {
                "pitch": 81,
                "velocity": 8,
                "duration": 0.0864,
                "tempo": 120.0
            },
            {
                "pitch": 0,
                "velocity": 0,
                "duration": 0.0159,
                "tempo": 0
            },
            {
                "pitch": 80,
                "velocity": 8,
                "duration": 0.1205,
                "tempo": 120.0
            },
            {
                "pitch": 0,
                "velocity": 0,
                "duration": 0.0182,
                "tempo": 0
            },
            {
                "pitch": 85,
                "velocity": 8,
                "duration": 0.0841,
                "tempo": 120.0
            },
            {
                "pitch": 0,
                "velocity": 0,
                "duration": 0.0182,
                "tempo": 0
            },
            {
                "pitch": 90,
                "velocity": 8,
                "duration": 0.0841,
                "tempo": 120.0
            },
            {
                "pitch": 0,
                "velocity": 0,
                "duration": 0.0523,
                "tempo": 0
            },
            {
                "pitch": 92,
                "velocity": 8,
                "duration": 0.0841,
                "tempo": 120.0
            },
            {
                "pitch": 0,
                "velocity": 0,
                "duration": 0.0159,
                "tempo": 0
            },
            {
                "pitch": 81,
                "velocity": 8,
                "duration": 0.0841,
                "tempo": 120.0
            },
            {
                "pitch": 0,
                "velocity": 0,
                "duration": 0.0159,
                "tempo": 0
            },
            {
                "pitch": 80,
                "velocity": 8,
                "duration": 0.1182,
                "tempo": 120.0
            },
            {
                "pitch": 0,
                "velocity": 0,
                "duration": 0.0159,
                "tempo": 0
            },
            {
                "pitch": 85,
                "velocity": 8,
                "duration": 0.0841,
                "tempo": 120.0
            },
            {
                "pitch": 0,
                "velocity": 0,
                "duration": 0.0159,
                "tempo": 0
            },
            {
                "pitch": 90,
                "velocity": 8,
                "duration": 0.1114,
                "tempo": 120.0
            },
            {
                "pitch": 0,
                "velocity": 0,
                "duration": 0.0159,
                "tempo": 0
            },
            {
                "pitch": 92,
                "velocity": 8,
                "duration": 0.0818,
                "tempo": 120.0
            },
            {
                "pitch": 0,
                "velocity": 0,
                "duration": 0.0159,
                "tempo": 0
            },
            {
                "pitch": 81,
                "velocity": 8,
                "duration": 0.0795,
                "tempo": 120.0
            },
            {
                "pitch": 0,
                "velocity": 0,
                "duration": 0.0477,
                "tempo": 0
            },
            {
                "pitch": 92,
                "velocity": 8,
                "duration": 0.0795,
                "tempo": 120.0
            },
            {
                "pitch": 0,
                "velocity": 0,
                "duration": 0.0159,
                "tempo": 0
            },
            {
                "pitch": 80,
                "velocity": 8,
                "duration": 0.0841,
                "tempo": 120.0
            },
            {
                "pitch": 0,
                "velocity": 0,
                "duration": 0.0159,
                "tempo": 0
            },
            {
                "pitch": 85,
                "velocity": 8,
                "duration": 0.1182,
                "tempo": 120.0
            },
            {
                "pitch": 0,
                "velocity": 0,
                "duration": 0.0159,
                "tempo": 0
            },
            {
                "pitch": 90,
                "velocity": 8,
                "duration": 0.0841,
                "tempo": 120.0
            },
            {
                "pitch": 0,
                "velocity": 0,
                "duration": 0.0159,
                "tempo": 0
            },
            {
                "pitch": 85,
                "velocity": 8,
                "duration": 0.1182,
                "tempo": 120.0
            },
            {
                "pitch": 0,
                "velocity": 0,
                "duration": 0.0159,
                "tempo": 0
            },
            {
                "pitch": 81,
                "velocity": 8,
                "duration": 0.0864,
                "tempo": 120.0
            },
            {
                "pitch": 0,
                "velocity": 0,
                "duration": 0.0159,
                "tempo": 0
            },
            {
                "pitch": 78,
                "velocity": 8,
                "duration": 0.0864,
                "tempo": 120.0
            },
            {
                "pitch": 0,
                "velocity": 0,
                "duration": 0.0523,
                "tempo": 0
            },
            {
                "pitch": 83,
                "velocity": 8,
                "duration": 0.0841,
                "tempo": 120.0
            },
            {
                "pitch": 0,
                "velocity": 0,
                "duration": 0.0182,
                "tempo": 0
            },
            {
                "pitch": 88,
                "velocity": 8,
                "duration": 0.0841,
                "tempo": 120.0
            },
            {
                "pitch": 0,
                "velocity": 0,
                "duration": 0.0182,
                "tempo": 0
            },
            {
                "pitch": 90,
                "velocity": 8,
                "duration": 0.1091,
                "tempo": 120.0
            },
            {
                "pitch": 0,
                "velocity": 0,
                "duration": 0.0159,
                "tempo": 0
            },
            {
                "pitch": 81,
                "velocity": 8,
                "duration": 0.0773,
                "tempo": 120.0
            },
            {
                "pitch": 0,
                "velocity": 0,
                "duration": 0.0159,
                "tempo": 0
            },
            {
                "pitch": 78,
                "velocity": 8,
                "duration": 0.1091,
                "tempo": 120.0
            },
            {
                "pitch": 0,
                "velocity": 0,
                "duration": 0.0159,
                "tempo": 0
            },
            {
                "pitch": 83,
                "velocity": 8,
                "duration": 0.0773,
                "tempo": 120.0
            },
            {
                "pitch": 0,
                "velocity": 0,
                "duration": 0.0159,
                "tempo": 0
            },
            {
                "pitch": 88,
                "velocity": 8,
                "duration": 0.0864,
                "tempo": 120.0
            },
            {
                "pitch": 0,
                "velocity": 0,
                "duration": 0.0523,
                "tempo": 0
            },
            {
                "pitch": 90,
                "velocity": 8,
                "duration": 0.0841,
                "tempo": 120.0
            },
            {
                "pitch": 0,
                "velocity": 0,
                "duration": 0.0182,
                "tempo": 0
            },
            {
                "pitch": 78,
                "velocity": 8,
                "duration": 0.0864,
                "tempo": 120.0
            },
            {
                "pitch": 0,
                "velocity": 0,
                "duration": 0.0159,
                "tempo": 0
            },
            {
                "pitch": 83,
                "velocity": 8,
                "duration": 0.1205,
                "tempo": 120.0
            },
            {
                "pitch": 0,
                "velocity": 0,
                "duration": 0.0159,
                "tempo": 0
            },
            {
                "pitch": 81,
                "velocity": 8,
                "duration": 0.0864,
                "tempo": 120.0
            },
            {
                "pitch": 0,
                "velocity": 0,
                "duration": 0.0159,
                "tempo": 0
            },
            {
                "pitch": 79,
                "velocity": 8,
                "duration": 0.1205,
                "tempo": 120.0
            },
            {
                "pitch": 0,
                "velocity": 0,
                "duration": 0.0182,
                "tempo": 0
            },
            {
                "pitch": 84,
                "velocity": 8,
                "duration": 0.0841,
                "tempo": 120.0
            },
            {
                "pitch": 0,
                "velocity": 0,
                "duration": 0.0182,
                "tempo": 0
            },
            {
                "pitch": 89,
                "velocity": 8,
                "duration": 0.0864,
                "tempo": 120.0
            },
            {
                "pitch": 0,
                "velocity": 0,
                "duration": 0.05,
                "tempo": 0
            },
            {
                "pitch": 81,
                "velocity": 8,
                "duration": 0.0841,
                "tempo": 120.0
            },
            {
                "pitch": 0,
                "velocity": 0,
                "duration": 0.0159,
                "tempo": 0
            },
            {
                "pitch": 79,
                "velocity": 8,
                "duration": 0.0841,
                "tempo": 120.0
            },
            {
                "pitch": 0,
                "velocity": 0,
                "duration": 0.0159,
                "tempo": 0
            },
            {
                "pitch": 84,
                "velocity": 8,
                "duration": 0.1182,
                "tempo": 120.0
            },
            {
                "pitch": 0,
                "velocity": 0,
                "duration": 0.0159,
                "tempo": 0
            },
            {
                "pitch": 89,
                "velocity": 8,
                "duration": 0.0841,
                "tempo": 120.0
            },
            {
                "pitch": 0,
                "velocity": 0,
                "duration": 0.0159,
                "tempo": 0
            },
            {
                "pitch": 80,
                "velocity": 8,
                "duration": 0.1136,
                "tempo": 120.0
            },
            {
                "pitch": 0,
                "velocity": 0,
                "duration": 0.0159,
                "tempo": 0
            },
            {
                "pitch": 89,
                "velocity": 8,
                "duration": 0.0795,
                "tempo": 120.0
            },
            {
                "pitch": 0,
                "velocity": 0,
                "duration": 0.0159,
                "tempo": 0
            },
            {
                "pitch": 79,
                "velocity": 8,
                "duration": 0.0795,
                "tempo": 120.0
            },
            {
                "pitch": 0,
                "velocity": 0,
                "duration": 0.0477,
                "tempo": 0
            },
            {
                "pitch": 84,
                "velocity": 8,
                "duration": 0.0795,
                "tempo": 120.0
            },
            {
                "pitch": 0,
                "velocity": 0,
                "duration": 0.0159,
                "tempo": 0
            },
            {
                "pitch": 81,
                "velocity": 8,
                "duration": 0.0841,
                "tempo": 120.0
            },
            {
                "pitch": 0,
                "velocity": 0,
                "duration": 0.0182,
                "tempo": 0
            },
            {
                "pitch": 79,
                "velocity": 8,
                "duration": 0.1159,
                "tempo": 120.0
            },
            {
                "pitch": 0,
                "velocity": 0,
                "duration": 0.0159,
                "tempo": 0
            },
            {
                "pitch": 84,
                "velocity": 8,
                "duration": 0.0841,
                "tempo": 120.0
            },
            {
                "pitch": 0,
                "velocity": 0,
                "duration": 0.0182,
                "tempo": 0
            },
            {
                "pitch": 89,
                "velocity": 8,
                "duration": 0.1159,
                "tempo": 120.0
            },
            {
                "pitch": 0,
                "velocity": 0,
                "duration": 0.0159,
                "tempo": 0
            },
            {
                "pitch": 81,
                "velocity": 8,
                "duration": 0.0864,
                "tempo": 120.0
            },
            {
                "pitch": 0,
                "velocity": 0,
                "duration": 0.0182,
                "tempo": 0
            },
            {
                "pitch": 77,
                "velocity": 8,
                "duration": 0.0841,
                "tempo": 120.0
            },
            {
                "pitch": 0,
                "velocity": 0,
                "duration": 0.0523,
                "tempo": 0
            },
            {
                "pitch": 82,
                "velocity": 8,
                "duration": 0.0841,
                "tempo": 120.0
            },
            {
                "pitch": 0,
                "velocity": 0,
                "duration": 0.0182,
                "tempo": 0
            },
            {
                "pitch": 86,
                "velocity": 8,
                "duration": 0.0864,
                "tempo": 120.0
            },
            {
                "pitch": 0,
                "velocity": 0,
                "duration": 0.0159,
                "tempo": 0
            },
            {
                "pitch": 88,
                "velocity": 8,
                "duration": 0.1091,
                "tempo": 120.0
            },
            {
                "pitch": 0,
                "velocity": 0,
                "duration": 0.0159,
                "tempo": 0
            },
            {
                "pitch": 93,
                "velocity": 8,
                "duration": 0.0773,
                "tempo": 120.0
            },
            {
                "pitch": 0,
                "velocity": 0,
                "duration": 0.0159,
                "tempo": 0
            },
            {
                "pitch": 89,
                "velocity": 8,
                "duration": 0.1091,
                "tempo": 120.0
            },
            {
                "pitch": 0,
                "velocity": 0,
                "duration": 0.0159,
                "tempo": 0
            },
            {
                "pitch": 82,
                "velocity": 8,
                "duration": 0.0795,
                "tempo": 120.0
            },
            {
                "pitch": 0,
                "velocity": 0,
                "duration": 0.0159,
                "tempo": 0
            },
            {
                "pitch": 86,
                "velocity": 8,
                "duration": 0.0841,
                "tempo": 120.0
            },
            {
                "pitch": 0,
                "velocity": 0,
                "duration": 0.0523,
                "tempo": 0
            },
            {
                "pitch": 88,
                "velocity": 8,
                "duration": 0.0864,
                "tempo": 120.0
            },
            {
                "pitch": 0,
                "velocity": 0,
                "duration": 0.0159,
                "tempo": 0
            },
            {
                "pitch": 77,
                "velocity": 8,
                "duration": 0.0864,
                "tempo": 120.0
            },
            {
                "pitch": 0,
                "velocity": 0,
                "duration": 0.0159,
                "tempo": 0
            },
            {
                "pitch": 82,
                "velocity": 8,
                "duration": 0.1205,
                "tempo": 120.0
            },
            {
                "pitch": 0,
                "velocity": 0,
                "duration": 0.0182,
                "tempo": 0
            },
            {
                "pitch": 81,
                "velocity": 8,
                "duration": 0.0841,
                "tempo": 120.0
            },
            {
                "pitch": 0,
                "velocity": 0,
                "duration": 0.0182,
                "tempo": 0
            },
            {
                "pitch": 80,
                "velocity": 8,
                "duration": 0.1182,
                "tempo": 120.0
            },
            {
                "pitch": 0,
                "velocity": 0,
                "duration": 0.0182,
                "tempo": 0
            },
            {
                "pitch": 85,
                "velocity": 8,
                "duration": 0.0864,
                "tempo": 120.0
            },
            {
                "pitch": 0,
                "velocity": 0,
                "duration": 0.0159,
                "tempo": 0
            },
            {
                "pitch": 87,
                "velocity": 8,
                "duration": 0.0864,
                "tempo": 120.0
            },
            {
                "pitch": 0,
                "velocity": 0,
                "duration": 0.05,
                "tempo": 0
            },
            {
                "pitch": 81,
                "velocity": 8,
                "duration": 0.0841,
                "tempo": 120.0
            },
            {
                "pitch": 0,
                "velocity": 0,
                "duration": 0.0159,
                "tempo": 0
            },
            {
                "pitch": 80,
                "velocity": 8,
                "duration": 0.0841,
                "tempo": 120.0
            },
            {
                "pitch": 0,
                "velocity": 0,
                "duration": 0.0182,
                "tempo": 0
            },
            {
                "pitch": 85,
                "velocity": 8,
                "duration": 0.1159,
                "tempo": 120.0
            },
            {
                "pitch": 0,
                "velocity": 0,
                "duration": 0.0159,
                "tempo": 0
            },
            {
                "pitch": 87,
                "velocity": 8,
                "duration": 0.0841,
                "tempo": 120.0
            },
            {
                "pitch": 0,
                "velocity": 0,
                "duration": 0.0182,
                "tempo": 0
            },
            {
                "pitch": 81,
                "velocity": 8,
                "duration": 0.1114,
                "tempo": 120.0
            },
            {
                "pitch": 0,
                "velocity": 0,
                "duration": 0.0159,
                "tempo": 0
            },
            {
                "pitch": 87,
                "velocity": 8,
                "duration": 0.0795,
                "tempo": 120.0
            },
            {
                "pitch": 0,
                "velocity": 0,
                "duration": 0.0159,
                "tempo": 0
            },
            {
                "pitch": 80,
                "velocity": 8,
                "duration": 0.0795,
                "tempo": 120.0
            },
            {
                "pitch": 0,
                "velocity": 0,
                "duration": 0.0477,
                "tempo": 0
            },
            {
                "pitch": 85,
                "velocity": 8,
                "duration": 0.0795,
                "tempo": 120.0
            },
            {
                "pitch": 0,
                "velocity": 0,
                "duration": 0.0159,
                "tempo": 0
            },
            {
                "pitch": 81,
                "velocity": 8,
                "duration": 0.0864,
                "tempo": 120.0
            },
            {
                "pitch": 0,
                "velocity": 0,
                "duration": 0.0182,
                "tempo": 0
            },
            {
                "pitch": 80,
                "velocity": 8,
                "duration": 0.1182,
                "tempo": 120.0
            },
            {
                "pitch": 0,
                "velocity": 0,
                "duration": 0.0182,
                "tempo": 0
            },
            {
                "pitch": 85,
                "velocity": 8,
                "duration": 0.0841,
                "tempo": 120.0
            },
            {
                "pitch": 0,
                "velocity": 0,
                "duration": 0.0182,
                "tempo": 0
            },
            {
                "pitch": 87,
                "velocity": 8,
                "duration": 0.1205,
                "tempo": 120.0
            },
            {
                "pitch": 0,
                "velocity": 0,
                "duration": 0.0159,
                "tempo": 0
            },
            {
                "pitch": 80,
                "velocity": 8,
                "duration": 0.0841,
                "tempo": 120.0
            },
            {
                "pitch": 0,
                "velocity": 0,
                "duration": 0.0159,
                "tempo": 0
            },
            {
                "pitch": 78,
                "velocity": 8,
                "duration": 0.0841,
                "tempo": 120.0
            },
            {
                "pitch": 0,
                "velocity": 0,
                "duration": 0.05,
                "tempo": 0
            },
            {
                "pitch": 83,
                "velocity": 8,
                "duration": 0.0841,
                "tempo": 120.0
            },
            {
                "pitch": 0,
                "velocity": 0,
                "duration": 0.0159,
                "tempo": 0
            },
            {
                "pitch": 85,
                "velocity": 8,
                "duration": 0.0841,
                "tempo": 120.0
            },
            {
                "pitch": 0,
                "velocity": 0,
                "duration": 0.0159,
                "tempo": 0
            },
            {
                "pitch": 87,
                "velocity": 8,
                "duration": 0.1091,
                "tempo": 120.0
            },
            {
                "pitch": 0,
                "velocity": 0,
                "duration": 0.0159,
                "tempo": 0
            },
            {
                "pitch": 80,
                "velocity": 8,
                "duration": 0.0795,
                "tempo": 120.0
            },
            {
                "pitch": 0,
                "velocity": 0,
                "duration": 0.0159,
                "tempo": 0
            },
            {
                "pitch": 78,
                "velocity": 8,
                "duration": 0.1091,
                "tempo": 120.0
            },
            {
                "pitch": 0,
                "velocity": 0,
                "duration": 0.0159,
                "tempo": 0
            },
            {
                "pitch": 83,
                "velocity": 8,
                "duration": 0.0773,
                "tempo": 120.0
            },
            {
                "pitch": 0,
                "velocity": 0,
                "duration": 0.0159,
                "tempo": 0
            },
            {
                "pitch": 73,
                "velocity": 8,
                "duration": 0.0864,
                "tempo": 120.0
            },
            {
                "pitch": 0,
                "velocity": 0,
                "duration": 0.05,
                "tempo": 0
            },
            {
                "pitch": 87,
                "velocity": 8,
                "duration": 0.0864,
                "tempo": 120.0
            },
            {
                "pitch": 0,
                "velocity": 0,
                "duration": 0.0159,
                "tempo": 0
            },
            {
                "pitch": 78,
                "velocity": 8,
                "duration": 0.0864,
                "tempo": 120.0
            },
            {
                "pitch": 0,
                "velocity": 0,
                "duration": 0.0182,
                "tempo": 0
            },
            {
                "pitch": 83,
                "velocity": 8,
                "duration": 0.1182,
                "tempo": 120.0
            },
            {
                "pitch": 0,
                "velocity": 0,
                "duration": 7.3091,
                "tempo": 0
            },
            {
                "pitch": 64,
                "velocity": 8,
                "duration": 1.7932,
                "tempo": 120.0
            },
            {
                "pitch": 0,
                "velocity": 0,
                "duration": 1.3977,
                "tempo": 0
            },
            {
                "pitch": 67,
                "velocity": 8,
                "duration": 1.7909,
                "tempo": 120.0
            },
            {
                "pitch": 0,
                "velocity": 0,
                "duration": 1.3977,
                "tempo": 0
            },
            {
                "pitch": 69,
                "velocity": 8,
                "duration": 1.7932,
                "tempo": 120.0
            },
            {
                "pitch": 0,
                "velocity": 0,
                "duration": 1.3977,
                "tempo": 0
            },
            {
                "pitch": 67,
                "velocity": 8,
                "duration": 1.7932,
                "tempo": 120.0
            },
            {
                "pitch": 0,
                "velocity": 0,
                "duration": 1.3977,
                "tempo": 0
            },
            {
                "pitch": 64,
                "velocity": 8,
                "duration": 1.7909,
                "tempo": 120.0
            },
            {
                "pitch": 0,
                "velocity": 0,
                "duration": 1.3977,
                "tempo": 0
            },
            {
                "pitch": 67,
                "velocity": 8,
                "duration": 1.7932,
                "tempo": 120.0
            },
            {
                "pitch": 0,
                "velocity": 0,
                "duration": 1.3977,
                "tempo": 0
            },
            {
                "pitch": 69,
                "velocity": 8,
                "duration": 1.7932,
                "tempo": 120.0
            },
            {
                "pitch": 0,
                "velocity": 0,
                "duration": 1.3977,
                "tempo": 0
            },
            {
                "pitch": 67,
                "velocity": 8,
                "duration": 1.7909,
                "tempo": 120.0
            },
            {
                "pitch": 0,
                "velocity": 0,
                "duration": 1.3977,
                "tempo": 0
            },
            {
                "pitch": 69,
                "velocity": 8,
                "duration": 1.7932,
                "tempo": 120.0
            },
            {
                "pitch": 0,
                "velocity": 0,
                "duration": 0.0159,
                "tempo": 0
            },
            {
                "pitch": 71,
                "velocity": 8,
                "duration": 1.8136,
                "tempo": 120.0
            },
            {
                "pitch": 0,
                "velocity": 0,
                "duration": 0.0159,
                "tempo": 0
            },
            {
                "pitch": 67,
                "velocity": 8,
                "duration": 1.8114,
                "tempo": 120.0
            },
            {
                "pitch": 0,
                "velocity": 0,
                "duration": 0.0182,
                "tempo": 0
            },
            {
                "pitch": 67,
                "velocity": 8,
                "duration": 1.8227,
                "tempo": 120.0
            },
            {
                "pitch": 0,
                "velocity": 0,
                "duration": 0.0182,
                "tempo": 0
            },
            {
                "pitch": 69,
                "velocity": 8,
                "duration": 1.7795,
                "tempo": 120.0
            },
            {
                "pitch": 0,
                "velocity": 0,
                "duration": 0.05,
                "tempo": 0
            },
            {
                "pitch": 71,
                "velocity": 8,
                "duration": 1.7795,
                "tempo": 120.0
            },
            {
                "pitch": 0,
                "velocity": 0,
                "duration": 0.0159,
                "tempo": 0
            },
            {
                "pitch": 67,
                "velocity": 8,
                "duration": 1.8227,
                "tempo": 120.0
            },
            {
                "pitch": 0,
                "velocity": 0,
                "duration": 0.0159,
                "tempo": 0
            },
            {
                "pitch": 67,
                "velocity": 8,
                "duration": 1.7841,
                "tempo": 120.0
            },
            {
                "pitch": 0,
                "velocity": 0,
                "duration": 0.0159,
                "tempo": 0
            },
            {
                "pitch": 69,
                "velocity": 8,
                "duration": 1.8136,
                "tempo": 120.0
            },
            {
                "pitch": 0,
                "velocity": 0,
                "duration": 0.0159,
                "tempo": 0
            },
            {
                "pitch": 71,
                "velocity": 8,
                "duration": 1.8136,
                "tempo": 120.0
            },
            {
                "pitch": 0,
                "velocity": 0,
                "duration": 0.0159,
                "tempo": 0
            },
            {
                "pitch": 67,
                "velocity": 8,
                "duration": 1.8227,
                "tempo": 120.0
            },
            {
                "pitch": 0,
                "velocity": 0,
                "duration": 0.0182,
                "tempo": 0
            },
            {
                "pitch": 67,
                "velocity": 8,
                "duration": 1.7773,
                "tempo": 120.0
            },
            {
                "pitch": 0,
                "velocity": 0,
                "duration": 0.0523,
                "tempo": 0
            },
            {
                "pitch": 69,
                "velocity": 8,
                "duration": 1.7773,
                "tempo": 120.0
            },
            {
                "pitch": 0,
                "velocity": 0,
                "duration": 0.0182,
                "tempo": 0
            },
            {
                "pitch": 71,
                "velocity": 8,
                "duration": 1.8227,
                "tempo": 120.0
            },
            {
                "pitch": 0,
                "velocity": 0,
                "duration": 0.0159,
                "tempo": 0
            },
            {
                "pitch": 67,
                "velocity": 8,
                "duration": 1.7841,
                "tempo": 120.0
            },
            {
                "pitch": 0,
                "velocity": 0,
                "duration": 0.0159,
                "tempo": 0
            },
            {
                "pitch": 67,
                "velocity": 8,
                "duration": 1.8295,
                "tempo": 120.0
            }
        ],
        "Synth Bass 1": [
            {
                "pitch": 0,
                "velocity": 0,
                "duration": 0.8568,
                "tempo": 0
            },
            {
                "pitch": 83,
                "velocity": 1,
                "duration": 1.8227,
                "tempo": 120.0
            },
            {
                "pitch": 0,
                "velocity": 0,
                "duration": 0.0159,
                "tempo": 0
            },
            {
                "pitch": 81,
                "velocity": 1,
                "duration": 1.3364,
                "tempo": 120.0
            },
            {
                "pitch": 0,
                "velocity": 0,
                "duration": 0.0159,
                "tempo": 0
            },
            {
                "pitch": 80,
                "velocity": 1,
                "duration": 1.8227,
                "tempo": 120.0
            },
            {
                "pitch": 0,
                "velocity": 0,
                "duration": 0.0182,
                "tempo": 0
            },
            {
                "pitch": 78,
                "velocity": 1,
                "duration": 1.3341,
                "tempo": 120.0
            },
            {
                "pitch": 0,
                "velocity": 0,
                "duration": 0.0182,
                "tempo": 0
            },
            {
                "pitch": 77,
                "velocity": 1,
                "duration": 1.8227,
                "tempo": 120.0
            },
            {
                "pitch": 0,
                "velocity": 0,
                "duration": 0.0159,
                "tempo": 0
            },
            {
                "pitch": 76,
                "velocity": 1,
                "duration": 1.3341,
                "tempo": 120.0
            },
            {
                "pitch": 0,
                "velocity": 0,
                "duration": 0.0182,
                "tempo": 0
            },
            {
                "pitch": 75,
                "velocity": 1,
                "duration": 1.8227,
                "tempo": 120.0
            },
            {
                "pitch": 0,
                "velocity": 0,
                "duration": 0.0159,
                "tempo": 0
            },
            {
                "pitch": 75,
                "velocity": 1,
                "duration": 1.3364,
                "tempo": 120.0
            },
            {
                "pitch": 0,
                "velocity": 0,
                "duration": 0.0159,
                "tempo": 0
            },
            {
                "pitch": 83,
                "velocity": 1,
                "duration": 1.8136,
                "tempo": 120.0
            },
            {
                "pitch": 0,
                "velocity": 0,
                "duration": 0.0159,
                "tempo": 0
            },
            {
                "pitch": 81,
                "velocity": 1,
                "duration": 1.3455,
                "tempo": 120.0
            },
            {
                "pitch": 0,
                "velocity": 0,
                "duration": 0.0159,
                "tempo": 0
            },
            {
                "pitch": 80,
                "velocity": 1,
                "duration": 1.8136,
                "tempo": 120.0
            },
            {
                "pitch": 0,
                "velocity": 0,
                "duration": 0.0159,
                "tempo": 0
            },
            {
                "pitch": 78,
                "velocity": 1,
                "duration": 1.3455,
                "tempo": 120.0
            },
            {
                "pitch": 0,
                "velocity": 0,
                "duration": 0.0159,
                "tempo": 0
            },
            {
                "pitch": 77,
                "velocity": 1,
                "duration": 1.8136,
                "tempo": 120.0
            },
            {
                "pitch": 0,
                "velocity": 0,
                "duration": 0.0159,
                "tempo": 0
            },
            {
                "pitch": 76,
                "velocity": 1,
                "duration": 1.3455,
                "tempo": 120.0
            },
            {
                "pitch": 0,
                "velocity": 0,
                "duration": 0.0182,
                "tempo": 0
            },
            {
                "pitch": 75,
                "velocity": 1,
                "duration": 1.8227,
                "tempo": 120.0
            },
            {
                "pitch": 0,
                "velocity": 0,
                "duration": 0.0159,
                "tempo": 0
            },
            {
                "pitch": 75,
                "velocity": 1,
                "duration": 1.3341,
                "tempo": 120.0
            },
            {
                "pitch": 0,
                "velocity": 0,
                "duration": 7.3091,
                "tempo": 0
            },
            {
                "pitch": 69,
                "velocity": 1,
                "duration": 1.7932,
                "tempo": 120.0
            },
            {
                "pitch": 0,
                "velocity": 0,
                "duration": 1.3977,
                "tempo": 0
            },
            {
                "pitch": 71,
                "velocity": 1,
                "duration": 1.7909,
                "tempo": 120.0
            },
            {
                "pitch": 0,
                "velocity": 0,
                "duration": 1.3977,
                "tempo": 0
            },
            {
                "pitch": 72,
                "velocity": 1,
                "duration": 1.7932,
                "tempo": 120.0
            },
            {
                "pitch": 0,
                "velocity": 0,
                "duration": 1.3977,
                "tempo": 0
            },
            {
                "pitch": 71,
                "velocity": 1,
                "duration": 1.7932,
                "tempo": 120.0
            },
            {
                "pitch": 0,
                "velocity": 0,
                "duration": 1.3977,
                "tempo": 0
            },
            {
                "pitch": 69,
                "velocity": 1,
                "duration": 1.7909,
                "tempo": 120.0
            },
            {
                "pitch": 0,
                "velocity": 0,
                "duration": 1.3977,
                "tempo": 0
            },
            {
                "pitch": 71,
                "velocity": 1,
                "duration": 1.7932,
                "tempo": 120.0
            },
            {
                "pitch": 0,
                "velocity": 0,
                "duration": 1.3977,
                "tempo": 0
            },
            {
                "pitch": 72,
                "velocity": 1,
                "duration": 1.7932,
                "tempo": 120.0
            },
            {
                "pitch": 0,
                "velocity": 0,
                "duration": 1.3977,
                "tempo": 0
            },
            {
                "pitch": 71,
                "velocity": 1,
                "duration": 1.7909,
                "tempo": 120.0
            },
            {
                "pitch": 0,
                "velocity": 0,
                "duration": 1.3977,
                "tempo": 0
            },
            {
                "pitch": 72,
                "velocity": 1,
                "duration": 1.7932,
                "tempo": 120.0
            },
            {
                "pitch": 0,
                "velocity": 0,
                "duration": 0.0159,
                "tempo": 0
            },
            {
                "pitch": 74,
                "velocity": 1,
                "duration": 1.8136,
                "tempo": 120.0
            },
            {
                "pitch": 0,
                "velocity": 0,
                "duration": 0.0159,
                "tempo": 0
            },
            {
                "pitch": 71,
                "velocity": 1,
                "duration": 1.8114,
                "tempo": 120.0
            },
            {
                "pitch": 0,
                "velocity": 0,
                "duration": 0.0182,
                "tempo": 0
            },
            {
                "pitch": 71,
                "velocity": 1,
                "duration": 1.8227,
                "tempo": 120.0
            },
            {
                "pitch": 0,
                "velocity": 0,
                "duration": 0.0182,
                "tempo": 0
            },
            {
                "pitch": 72,
                "velocity": 1,
                "duration": 1.7795,
                "tempo": 120.0
            },
            {
                "pitch": 0,
                "velocity": 0,
                "duration": 0.05,
                "tempo": 0
            },
            {
                "pitch": 74,
                "velocity": 1,
                "duration": 1.7795,
                "tempo": 120.0
            },
            {
                "pitch": 0,
                "velocity": 0,
                "duration": 0.0159,
                "tempo": 0
            },
            {
                "pitch": 71,
                "velocity": 1,
                "duration": 1.8227,
                "tempo": 120.0
            },
            {
                "pitch": 0,
                "velocity": 0,
                "duration": 0.0159,
                "tempo": 0
            },
            {
                "pitch": 71,
                "velocity": 1,
                "duration": 1.7841,
                "tempo": 120.0
            },
            {
                "pitch": 0,
                "velocity": 0,
                "duration": 0.0159,
                "tempo": 0
            },
            {
                "pitch": 72,
                "velocity": 1,
                "duration": 1.8136,
                "tempo": 120.0
            },
            {
                "pitch": 0,
                "velocity": 0,
                "duration": 0.0159,
                "tempo": 0
            },
            {
                "pitch": 74,
                "velocity": 1,
                "duration": 1.8136,
                "tempo": 120.0
            },
            {
                "pitch": 0,
                "velocity": 0,
                "duration": 0.0159,
                "tempo": 0
            },
            {
                "pitch": 71,
                "velocity": 1,
                "duration": 1.8227,
                "tempo": 120.0
            },
            {
                "pitch": 0,
                "velocity": 0,
                "duration": 0.0182,
                "tempo": 0
            },
            {
                "pitch": 71,
                "velocity": 1,
                "duration": 1.7773,
                "tempo": 120.0
            },
            {
                "pitch": 0,
                "velocity": 0,
                "duration": 0.0523,
                "tempo": 0
            },
            {
                "pitch": 72,
                "velocity": 1,
                "duration": 1.7773,
                "tempo": 120.0
            },
            {
                "pitch": 0,
                "velocity": 0,
                "duration": 0.0182,
                "tempo": 0
            },
            {
                "pitch": 74,
                "velocity": 1,
                "duration": 1.8227,
                "tempo": 120.0
            },
            {
                "pitch": 0,
                "velocity": 0,
                "duration": 0.0159,
                "tempo": 0
            },
            {
                "pitch": 71,
                "velocity": 1,
                "duration": 1.7841,
                "tempo": 120.0
            },
            {
                "pitch": 0,
                "velocity": 0,
                "duration": 0.0159,
                "tempo": 0
            },
            {
                "pitch": 71,
                "velocity": 1,
                "duration": 1.8295,
                "tempo": 120.0
            }
        ],
        "Acoustic Grand Piano": [
            {
                "pitch": 0,
                "velocity": 0,
                "duration": 88.3659,
                "tempo": 0
            },
            {
                "pitch": 108,
                "velocity": 15,
                "duration": 0.1,
                "tempo": 120.0
            }
        ]
    }
}